<?xml version="1.0" encoding="UTF-8" standalone="no"?>
<!DOCTYPE svg PUBLIC "-//W3C//DTD SVG 1.1//EN" "http://www.w3.org/Graphics/SVG/1.1/DTD/svg11.dtd">
<svg width="60" height="60" viewBox="0 0 60 60" version="1.1" xmlns="http://www.w3.org/2000/svg" xmlns:xlink="http://www.w3.org/1999/xlink" xml:space="preserve" xmlns:serif="http://www.serif.com/" style="fill-rule:evenodd;clip-rule:evenodd;stroke-linejoin:round;stroke-miterlimit:2;">
    <g transform="matrix(3.84417,0,0,3.84417,-2.54734,-1.31167)">
        <path d="M2.195,1.764C1.422,1.764 0.793,2.398 0.793,3.173L0.793,13.762C0.793,14.537 1.422,15.169 2.195,15.169L14.736,15.169C15.509,15.169 16.141,14.537 16.141,13.762L16.141,3.173C16.141,2.398 15.509,1.764 14.736,1.764L2.195,1.764ZM2.195,2.294L14.736,2.294C15.224,2.294 15.611,2.681 15.611,3.173L15.611,4.929L1.322,4.929L1.322,3.173C1.322,2.681 1.707,2.294 2.195,2.294ZM2.783,3.305C2.638,3.306 2.519,3.425 2.519,3.57C2.519,3.57 2.519,3.571 2.519,3.571C2.52,3.715 2.638,3.834 2.783,3.835L3.419,3.835C3.564,3.835 3.683,3.716 3.683,3.571C3.683,3.571 3.683,3.57 3.683,3.57C3.683,3.425 3.564,3.305 3.419,3.305L2.783,3.305ZM5.526,3.305L4.891,3.305C4.746,3.305 4.627,3.425 4.627,3.57C4.627,3.57 4.627,3.571 4.627,3.571C4.627,3.716 4.746,3.835 4.891,3.835L5.526,3.835C5.671,3.835 5.79,3.716 5.791,3.571C5.791,3.571 5.791,3.57 5.791,3.57C5.791,3.425 5.671,3.305 5.526,3.305ZM1.322,5.458L15.611,5.458L15.611,13.762C15.611,14.254 15.224,14.639 14.736,14.639L2.195,14.639C1.707,14.639 1.322,14.254 1.322,13.762L1.322,5.458ZM6.219,7.618C6.149,7.623 6.084,7.657 6.039,7.71L4.187,9.878C4.103,9.976 4.103,10.123 4.187,10.221L6.039,12.388C6.089,12.446 6.163,12.48 6.24,12.48C6.303,12.48 6.364,12.458 6.412,12.417C6.471,12.366 6.505,12.293 6.505,12.216C6.505,12.152 6.482,12.091 6.441,12.043L4.736,10.049L6.441,8.054C6.482,8.006 6.505,7.945 6.505,7.881C6.505,7.804 6.471,7.731 6.412,7.68C6.359,7.635 6.289,7.612 6.219,7.618L6.219,7.618ZM10.712,7.618C10.642,7.612 10.573,7.635 10.519,7.68C10.46,7.731 10.426,7.804 10.426,7.882C10.426,7.945 10.449,8.006 10.49,8.054L12.195,10.049L10.49,12.043C10.449,12.091 10.426,12.152 10.426,12.215C10.426,12.293 10.46,12.366 10.519,12.417C10.567,12.458 10.628,12.48 10.691,12.48C10.769,12.48 10.842,12.446 10.892,12.388L12.744,10.221C12.828,10.123 12.828,9.976 12.744,9.878L10.892,7.71C10.847,7.657 10.782,7.623 10.712,7.618L10.712,7.618ZM9.042,7.691C8.917,7.683 8.802,7.766 8.769,7.888L7.652,12.075C7.616,12.215 7.7,12.36 7.84,12.397C7.98,12.435 8.126,12.351 8.164,12.211L9.281,8.024C9.287,8.002 9.29,7.979 9.29,7.956C9.29,7.836 9.209,7.731 9.094,7.7C9.077,7.695 9.06,7.692 9.042,7.691L9.042,7.691Z" style="fill:rgb(180,183,201);fill-rule:nonzero;"/>
    </g>
</svg>
