<?xml version="1.0" encoding="UTF-8" standalone="no"?>
<!DOCTYPE svg PUBLIC "-//W3C//DTD SVG 1.1//EN" "http://www.w3.org/Graphics/SVG/1.1/DTD/svg11.dtd">
<svg width="60" height="60" viewBox="0 0 60 60" version="1.1" xmlns="http://www.w3.org/2000/svg" xmlns:xlink="http://www.w3.org/1999/xlink" xml:space="preserve" xmlns:serif="http://www.serif.com/" style="fill-rule:evenodd;clip-rule:evenodd;stroke-linejoin:round;stroke-miterlimit:2;">
    <g transform="matrix(0.46875,0,0,0.46875,-4.71845e-16,5)">
        <path d="M122,19L6,19C2.71,19.004 0.004,21.71 -0,25L0,95C0.004,98.29 2.71,100.996 6,101L62,101L62,105L44,105C42.903,105 42,105.903 42,107C42,108.097 42.903,109 44,109L84,109C85.097,109 86,108.097 86,107C86,105.903 85.097,105 84,105L66,105L66,101L122,101C125.29,100.996 127.996,98.29 128,95L128,25C127.996,21.71 125.29,19.004 122,19ZM10,56.5L10,97L6,97C4.903,96.999 4.001,96.097 4,95L4,25C4.001,23.903 4.903,23.001 6,23L12,23L12,43C12,44.097 12.903,45 14,45C15.097,45 16,44.097 16,43L16,23L20,23L20,45.2L10.552,55.121C10.198,55.492 10,55.987 10,56.5ZM113,97L109,97L109,65C109,63.903 108.097,63 107,63C105.903,63 105,63.903 105,65L105,97L22,97L22,65C22,63.903 21.097,63 20,63C18.903,63 18,63.903 18,65L18,97L14,97L14,57.3L23.448,47.379C23.802,47.008 24,46.513 24,46L24,23L103,23L103,46C103,46.513 103.198,47.008 103.552,47.379L113,57.3L113,97ZM124,95C123.999,96.097 123.097,96.999 122,97L117,97L117,56.5C117,55.987 116.802,55.492 116.448,55.121L107,45.2L107,23L111,23L111,43C111,44.097 111.903,45 113,45C114.097,45 115,44.097 115,43L115,23L122,23C123.097,23.001 123.999,23.903 124,25L124,95Z" style="fill:rgb(180,183,201);fill-rule:nonzero;"/>
        <path d="M55,71L73,71C74.097,71 75,70.097 75,69L75,51C75,49.903 74.097,49 73,49L55,49C53.903,49 53,49.903 53,51L53,69C53,70.097 53.903,71 55,71ZM57,53L71,53L71,67L57,67L57,53Z" style="fill:rgb(180,183,201);fill-rule:nonzero;"/>
        <path d="M87,50C88.097,50 89,49.097 89,48C89,46.903 88.097,46 87,46L83,46L83,43C83,41.903 82.097,41 81,41L78,41L78,37C78,35.903 77.097,35 76,35C74.903,35 74,35.903 74,37L74,41L70,41L70,37C70,35.903 69.097,35 68,35C66.903,35 66,35.903 66,37L66,41L62,41L62,37C62,35.903 61.097,35 60,35C58.903,35 58,35.903 58,37L58,41L54,41L54,37C54,35.903 53.097,35 52,35C50.903,35 50,35.903 50,37L50,41L47,41C45.903,41 45,41.903 45,43L45,46L41,46C39.903,46 39,46.903 39,48C39,49.097 39.903,50 41,50L45,50L45,54L41,54C39.903,54 39,54.903 39,56C39,57.097 39.903,58 41,58L45,58L45,62L41,62C39.903,62 39,62.903 39,64C39,65.097 39.903,66 41,66L45,66L45,70L41,70C39.903,70 39,70.903 39,72C39,73.097 39.903,74 41,74L45,74L45,77C45,78.097 45.903,79 47,79L50,79L50,83C50,84.097 50.903,85 52,85C53.097,85 54,84.097 54,83L54,79L58,79L58,83C58,84.097 58.903,85 60,85C61.097,85 62,84.097 62,83L62,79L66,79L66,83C66,84.097 66.903,85 68,85C69.097,85 70,84.097 70,83L70,79L74,79L74,83C74,84.097 74.903,85 76,85C77.097,85 78,84.097 78,83L78,79L81,79C82.097,79 83,78.097 83,77L83,74L87,74C88.097,74 89,73.097 89,72C89,70.903 88.097,70 87,70L83,70L83,66L87,66C88.097,66 89,65.097 89,64C89,62.903 88.097,62 87,62L83,62L83,58L87,58C88.097,58 89,57.097 89,56C89,54.903 88.097,54 87,54L83,54L83,50L87,50ZM79,75L49,75L49,45L79,45L79,75Z" style="fill:rgb(180,183,201);fill-rule:nonzero;"/>
    </g>
</svg>
