<?xml version="1.0" encoding="UTF-8" standalone="no"?>
<!DOCTYPE svg PUBLIC "-//W3C//DTD SVG 1.1//EN" "http://www.w3.org/Graphics/SVG/1.1/DTD/svg11.dtd">
<svg width="100%" height="100%" viewBox="0 0 70 70" version="1.1" xmlns="http://www.w3.org/2000/svg" xmlns:xlink="http://www.w3.org/1999/xlink" xml:space="preserve" xmlns:serif="http://www.serif.com/" style="fill-rule:evenodd;clip-rule:evenodd;stroke-linejoin:round;stroke-miterlimit:2;">
    <g id="Artboard1" transform="matrix(1.09375,0,0,0.875,0,0)">
        <rect x="0" y="0" width="64" height="80" style="fill:none;"/>
        <g transform="matrix(1.06611,0,0,1.33264,-2.06806,-2.7111)">
            <path d="M56.5,15.6L33.5,2.7C32.6,2.2 31.5,2.2 30.6,2.7L7.6,15.6C6.6,16.1 6,17.1 6,18.2L6,45.9C6,47 6.6,48 7.5,48.5L30.5,61.4C31.4,61.9 32.5,61.9 33.4,61.4L56.4,48.5C57.3,48 57.9,47 57.9,45.9L57.9,18.2C58,17.1 57.4,16.1 56.5,15.6ZM47,12.5L49.4,13.8L47,15.4L47,12.5ZM39,8.1L43.6,10.7L39,13.1L39,8.1ZM37,14.2L34,15.8L33,15.3C32.4,15 31.6,15 31,15.4L23.9,19.8C23.3,20.2 23,20.8 23,21.5L23,24.8L18,22L18,17.5L25.1,13.1L26.1,13.6C26.7,13.9 27.4,13.9 28,13.6L37,8.7L37,14.2ZM25,21.6L32.1,17.2L33.1,17.7C33.7,18 34.4,18 35,17.7L45,12.1L45,16.6L39.9,19.8L38.9,19.3C38.3,19 37.5,19 36.9,19.4L29.8,23.8C29.2,24.2 28.9,24.8 28.9,25.5L28.9,28.1L24.9,25.9L24.9,21.6L25,21.6ZM32.5,29.6C32.2,29.8 31.8,29.8 31.5,29.6L31,29.3L31,25.6L38.1,21.2L39.1,21.7C39.7,22 40.5,22 41.1,21.6L51.1,15.2L51.1,19.2L32.5,29.6ZM53,15.9L55,17L53,18.1L53,15.9ZM31.5,4.4C31.8,4.2 32.2,4.2 32.5,4.4L36.5,6.7L27,11.9L26,11.4C25.4,11.1 24.6,11.1 24,11.5L16.9,15.9C16.3,16.3 16,16.9 16,17.6L16,20.9L9,17L31.5,4.4ZM8.5,46.7C8.2,46.5 8,46.2 8,45.8L8,24.6L11.4,26.3C11.7,26.5 12,26.8 12,27.2L12,28.1C10.4,28.7 9.6,30.4 10.2,31.9C10.8,33.5 12.5,34.3 14,33.7C15.5,33.1 16.4,31.4 15.8,29.9C15.5,29 14.8,28.4 14,28.1L14,27.2C14,26.1 13.4,25 12.3,24.5L8,22.4L8,18.7L30.5,31.3C30.6,31.4 30.8,31.4 31,31.5L31,42.3L22.5,37.7C22.2,37.5 22,37.2 22,36.8L22,34.8C23.6,34.2 24.4,32.5 23.8,31C23.2,29.5 21.5,28.6 20,29.2C18.4,29.8 17.6,31.5 18.2,33C18.5,33.9 19.2,34.5 20,34.8L20,36.8C20,37.9 20.6,38.9 21.6,39.4L31,44.5L31,54.2L22.5,49.6C22.2,49.4 22,49.1 22,48.7L22,45C22,43.9 21.4,43 20.5,42.4L17,40.4L17,40C17,38.3 15.7,37 14,37C12.3,37 11,38.3 11,40C11,41.7 12.3,43 14,43C14.8,43 15.5,42.7 16.1,42.2L19.6,44.3C19.9,44.5 20.1,44.8 20.1,45.2L20.1,48.9C20.1,50 20.7,51 21.7,51.5L31.1,56.6L31.1,59.3L8.5,46.7ZM14,31C14,31.6 13.6,32 13,32C12.4,32 12,31.6 12,31C12,30.4 12.4,30 13,30C13.6,30 14,30.4 14,31ZM20,32C20,31.4 20.4,31 21,31C21.6,31 22,31.4 22,32C22,32.6 21.6,33 21,33C20.4,33 20,32.6 20,32ZM15,40C15,40.6 14.6,41 14,41C13.4,41 13,40.6 13,40C13,39.4 13.4,39 14,39C14.6,39 15,39.4 15,40ZM55.5,46.7L33,59.3L33,50.6L42.4,45.5C43.4,45 44,44 44,42.9L44,39.3C44,38.9 44.2,38.6 44.6,38.4L49,36.2C50.2,37.3 52.1,37.3 53.2,36.1C54.3,34.9 54.3,33 53.1,31.9C51.9,30.8 50,30.8 48.9,32C48.3,32.5 48,33.2 48,34L48,34.4L43.6,36.6C42.6,37.1 41.9,38.1 41.9,39.3L41.9,42.9C41.9,43.3 41.7,43.6 41.4,43.8L33,48.3L33,38.6L35.9,37.1C37.1,38.2 39,38.2 40.1,37C41.2,35.8 41.2,33.9 40,32.8C38.8,31.7 36.9,31.7 35.8,32.9C35.3,33.5 35,34.2 35,35L35,35.4L33,36.4L33,31.5C33.2,31.5 33.3,31.4 33.5,31.3L56,18.7L56,38.4L51.1,40.9C49.9,39.8 48,39.8 46.9,41C45.8,42.2 45.8,44.1 47,45.2C48.2,46.3 50.1,46.3 51.2,45.1C51.7,44.5 52,43.8 52,43L52,42.6L56,40.6L56,45.8C56,46.2 55.8,46.5 55.5,46.7ZM50,34C50,33.4 50.4,33 51,33C51.6,33 52,33.4 52,34C52,34.6 51.6,35 51,35C50.4,35 50,34.6 50,34ZM37,35C37,34.4 37.4,34 38,34C38.6,34 39,34.4 39,35C39,35.6 38.6,36 38,36C37.4,36 37,35.6 37,35ZM50,43C50,43.6 49.6,44 49,44C48.4,44 48,43.6 48,43C48,42.4 48.4,42 49,42C49.6,42 50,42.4 50,43Z" style="fill:rgb(22,133,255);fill-rule:nonzero;"/>
        </g>
    </g>
</svg>
