<?xml version="1.0" encoding="UTF-8" standalone="no"?>
<!DOCTYPE svg PUBLIC "-//W3C//DTD SVG 1.1//EN" "http://www.w3.org/Graphics/SVG/1.1/DTD/svg11.dtd">
<svg width="100%" height="100%" viewBox="0 0 868 212" version="1.1" xmlns="http://www.w3.org/2000/svg" xmlns:xlink="http://www.w3.org/1999/xlink" xml:space="preserve" xmlns:serif="http://www.serif.com/" style="fill-rule:evenodd;clip-rule:evenodd;stroke-linejoin:round;stroke-miterlimit:2;">
    <g transform="matrix(1,0,0,1,-11438.5,-21324.6)">
        <g transform="matrix(0.548472,0,0,0.47291,10910.2,20844.8)">
            <g transform="matrix(1,0,0,1,163.981,51.7599)">
                <g transform="matrix(9.28092,0,0,10.7638,-51026,-12419.4)">
                    <path d="M5619.91,1259.29C5619.91,1262.68 5621.12,1265.58 5623.47,1267.99C5625.88,1270.34 5628.78,1271.55 5632.17,1271.55C5635.62,1271.55 5638.53,1270.34 5640.88,1267.99C5643.28,1265.58 5644.49,1262.68 5644.49,1259.29C5644.49,1255.83 5643.28,1252.93 5640.88,1250.58C5638.53,1248.17 5635.62,1246.97 5632.17,1246.97C5628.78,1246.97 5625.88,1248.17 5623.47,1250.58C5621.12,1252.93 5619.91,1255.83 5619.91,1259.29ZM5626.7,1259.29C5626.7,1256.22 5629.16,1253.75 5632.17,1253.75C5635.24,1253.75 5637.65,1256.22 5637.65,1259.29C5637.65,1262.3 5635.24,1264.76 5632.17,1264.76C5629.16,1264.76 5626.7,1262.3 5626.7,1259.29Z" style="fill:rgb(22,133,255);fill-rule:nonzero;"/>
                    <path d="M5657.03,1253.48C5659.33,1253.48 5660.48,1254.96 5660.48,1257.91L5660.48,1271.05L5667.48,1271.05L5667.48,1257.91C5667.48,1250.96 5663.22,1246.97 5657.03,1246.97C5650.84,1246.97 5646.52,1250.96 5646.52,1257.91L5646.52,1271.05L5653.52,1271.05L5653.52,1257.91C5653.52,1254.96 5654.67,1253.48 5657.03,1253.48Z" style="fill:rgb(22,133,255);fill-rule:nonzero;"/>
                    <path d="M5682.48,1278.29C5679.91,1278.29 5677.44,1276.31 5677.44,1273.46L5670.44,1273.46C5670.44,1277.03 5671.7,1279.76 5674.16,1281.79C5676.62,1283.81 5679.42,1284.79 5682.48,1284.79C5685.66,1284.79 5688.4,1283.75 5690.64,1281.73C5692.94,1279.71 5694.09,1277.03 5694.09,1273.57L5694.09,1259.29C5694.09,1255.83 5692.88,1252.93 5690.48,1250.58C5688.13,1248.17 5685.22,1246.97 5681.77,1246.97C5678.38,1246.97 5675.48,1248.17 5673.07,1250.58C5670.72,1252.93 5669.51,1255.83 5669.51,1259.29C5669.51,1262.68 5670.66,1265.58 5672.96,1267.99C5675.31,1270.34 5678.1,1271.55 5681.44,1271.55C5683.8,1271.55 5685.66,1271 5687.09,1269.9L5687.09,1273.57C5687.09,1276.37 5685.39,1278.29 5682.48,1278.29ZM5676.3,1259.29C5676.3,1256.22 5678.76,1253.75 5681.77,1253.75C5684.84,1253.75 5687.25,1256.22 5687.25,1259.29C5687.25,1262.3 5684.84,1264.76 5681.77,1264.76C5678.76,1264.76 5676.3,1262.3 5676.3,1259.29Z" style="fill:rgb(22,133,255);fill-rule:nonzero;"/>
                    <path d="M5703.5,1257.69C5703.5,1255.23 5704.93,1253.97 5706.95,1253.97L5708.32,1253.97L5708.32,1247.46L5706.95,1247.46C5703.94,1247.46 5701.43,1248.34 5699.46,1250.14C5697.49,1251.89 5696.5,1254.41 5696.5,1257.69L5696.5,1271.05L5703.5,1271.05L5703.5,1257.69Z" style="fill:rgb(22,133,255);fill-rule:nonzero;"/>
                    <path d="M5708.33,1259.29C5708.33,1262.68 5709.53,1265.58 5711.88,1267.99C5714.29,1270.34 5717.19,1271.55 5720.59,1271.55C5724.04,1271.55 5726.94,1270.34 5729.29,1267.99C5731.7,1265.58 5732.9,1262.68 5732.9,1259.29C5732.9,1255.83 5731.7,1252.93 5729.29,1250.58C5726.94,1248.17 5724.04,1246.97 5720.59,1246.97C5717.19,1246.97 5714.29,1248.17 5711.88,1250.58C5709.53,1252.93 5708.33,1255.83 5708.33,1259.29ZM5715.11,1259.29C5715.11,1256.22 5717.57,1253.75 5720.59,1253.75C5723.65,1253.75 5726.07,1256.22 5726.07,1259.29C5726.07,1262.3 5723.65,1264.76 5720.59,1264.76C5717.57,1264.76 5715.11,1262.3 5715.11,1259.29Z" style="fill:rgb(22,133,255);fill-rule:nonzero;"/>
                    <path d="M5743.2,1271.55C5745.66,1271.55 5747.19,1270.45 5747.9,1268.32L5754.47,1247.46L5747.25,1247.46L5743.2,1261.64L5739.2,1247.46L5731.92,1247.46L5738.55,1268.32C5739.26,1270.45 5740.79,1271.55 5743.2,1271.55Z" style="fill:rgb(22,133,255);fill-rule:nonzero;"/>
                </g>
                <g transform="matrix(1.82325,0,0,2.11457,-20056,-44129.5)">
                    <path d="M11607.8,21376.7C11609.7,21382.6 11610.7,21389.2 11610.7,21396.4L11610.7,21466.1L11575,21466.1L11575,21396.4C11575,21383.3 11569.7,21376.6 11558.8,21376.6C11548.5,21376.6 11542.4,21383.9 11542.4,21396.4L11542.4,21466.1L11506.8,21466.1L11506.8,21396.4C11506.8,21383.3 11501.5,21376.6 11490.6,21376.6C11479.7,21376.6 11474.1,21384.2 11474.1,21396.4L11474.1,21466.1L11438.5,21466.1L11438.5,21396.4C11438.5,21379.7 11443.5,21366.6 11453.5,21357.4C11463.5,21348.2 11475.8,21343.5 11490.6,21343.5C11504.2,21343.5 11515.4,21347.4 11524.6,21355.2C11533.8,21347.4 11545.2,21343.5 11558.8,21343.5C11563.9,21343.5 11568.7,21344.1 11573.1,21345.2C11573.3,21348.9 11574,21352.5 11575.3,21355.8C11578.3,21364.6 11585.3,21371.6 11594.1,21374.6C11597.8,21376 11601.7,21376.8 11605.8,21376.8C11606.5,21376.8 11607.2,21376.8 11607.8,21376.7Z" style="fill:rgb(22,133,255);fill-rule:nonzero;"/>
                </g>
                <g transform="matrix(1.20415,0,0,1.39655,-7561.91,-29179.6)">
                    <circle cx="7196.94" cy="21613" r="29.526" style="fill:rgb(92,197,108);"/>
                </g>
            </g>
        </g>
    </g>
</svg>
