<?xml version="1.0" encoding="UTF-8" standalone="no"?>
<!DOCTYPE svg PUBLIC "-//W3C//DTD SVG 1.1//EN" "http://www.w3.org/Graphics/SVG/1.1/DTD/svg11.dtd">
<svg width="100%" height="100%" viewBox="0 0 613 770" version="1.1" xmlns="http://www.w3.org/2000/svg" xmlns:xlink="http://www.w3.org/1999/xlink" xml:space="preserve" xmlns:serif="http://www.serif.com/" style="fill-rule:evenodd;clip-rule:evenodd;stroke-miterlimit:10;">
    <g>
        <g>
            <g>
                <circle cx="201.5" cy="153.5" r="3.5" style="fill:rgb(208,218,239);"/>
                <circle cx="201.5" cy="63.5" r="3.5" style="fill:rgb(208,218,239);"/>
                <circle cx="201.5" cy="135.5" r="3.5" style="fill:rgb(208,218,239);"/>
                <circle cx="201.5" cy="117.5" r="3.5" style="fill:rgb(208,218,239);"/>
                <circle cx="201.5" cy="99.5" r="3.5" style="fill:rgb(208,218,239);"/>
                <circle cx="201.5" cy="81.5" r="3.5" style="fill:rgb(208,218,239);"/>
                <circle cx="183.5" cy="153.5" r="3.5" style="fill:rgb(208,218,239);"/>
                <circle cx="183.5" cy="63.5" r="3.5" style="fill:rgb(208,218,239);"/>
                <circle cx="183.5" cy="135.5" r="3.5" style="fill:rgb(208,218,239);"/>
                <circle cx="183.5" cy="117.5" r="3.5" style="fill:rgb(208,218,239);"/>
                <circle cx="183.5" cy="99.5" r="3.5" style="fill:rgb(208,218,239);"/>
                <circle cx="183.5" cy="81.5" r="3.5" style="fill:rgb(208,218,239);"/>
                <circle cx="165.5" cy="153.5" r="3.5" style="fill:rgb(208,218,239);"/>
                <circle cx="165.5" cy="63.5" r="3.5" style="fill:rgb(208,218,239);"/>
                <circle cx="165.5" cy="135.5" r="3.5" style="fill:rgb(208,218,239);"/>
                <circle cx="165.5" cy="117.5" r="3.5" style="fill:rgb(208,218,239);"/>
                <circle cx="165.5" cy="99.5" r="3.5" style="fill:rgb(208,218,239);"/>
                <circle cx="165.5" cy="81.5" r="3.5" style="fill:rgb(208,218,239);"/>
                <circle cx="147.5" cy="153.5" r="3.5" style="fill:rgb(208,218,239);"/>
                <circle cx="147.5" cy="63.5" r="3.5" style="fill:rgb(208,218,239);"/>
                <circle cx="147.5" cy="135.5" r="3.5" style="fill:rgb(208,218,239);"/>
                <circle cx="147.5" cy="117.5" r="3.5" style="fill:rgb(208,218,239);"/>
                <circle cx="147.5" cy="99.5" r="3.5" style="fill:rgb(208,218,239);"/>
                <circle cx="147.5" cy="81.5" r="3.5" style="fill:rgb(208,218,239);"/>
                <circle cx="129.5" cy="153.5" r="3.5" style="fill:rgb(208,218,239);"/>
                <circle cx="129.5" cy="63.5" r="3.5" style="fill:rgb(208,218,239);"/>
                <circle cx="129.5" cy="135.5" r="3.5" style="fill:rgb(208,218,239);"/>
                <circle cx="129.5" cy="117.5" r="3.5" style="fill:rgb(208,218,239);"/>
                <circle cx="129.5" cy="99.5" r="3.5" style="fill:rgb(208,218,239);"/>
                <circle cx="129.5" cy="81.5" r="3.5" style="fill:rgb(208,218,239);"/>
                <circle cx="111.5" cy="153.5" r="3.5" style="fill:rgb(208,218,239);"/>
                <circle cx="111.5" cy="63.5" r="3.5" style="fill:rgb(208,218,239);"/>
                <circle cx="111.5" cy="135.5" r="3.5" style="fill:rgb(208,218,239);"/>
                <circle cx="111.5" cy="117.5" r="3.5" style="fill:rgb(208,218,239);"/>
                <circle cx="111.5" cy="99.5" r="3.5" style="fill:rgb(208,218,239);"/>
                <circle cx="111.5" cy="81.5" r="3.5" style="fill:rgb(208,218,239);"/>
                <circle cx="93.5" cy="153.5" r="3.5" style="fill:rgb(208,218,239);"/>
                <circle cx="93.5" cy="63.5" r="3.5" style="fill:rgb(208,218,239);"/>
                <circle cx="93.5" cy="135.5" r="3.5" style="fill:rgb(208,218,239);"/>
                <circle cx="93.5" cy="117.5" r="3.5" style="fill:rgb(208,218,239);"/>
                <circle cx="93.5" cy="99.5" r="3.5" style="fill:rgb(208,218,239);"/>
                <circle cx="93.5" cy="81.5" r="3.5" style="fill:rgb(208,218,239);"/>
                <circle cx="75.5" cy="63.5" r="3.5" style="fill:rgb(208,218,239);"/>
                <circle cx="75.5" cy="135.5" r="3.5" style="fill:rgb(208,218,239);"/>
                <circle cx="75.5" cy="117.5" r="3.5" style="fill:rgb(208,218,239);"/>
                <circle cx="75.5" cy="99.5" r="3.5" style="fill:rgb(208,218,239);"/>
                <circle cx="75.5" cy="81.5" r="3.5" style="fill:rgb(208,218,239);"/>
                <circle cx="57.5" cy="63.5" r="3.5" style="fill:rgb(208,218,239);"/>
                <circle cx="57.5" cy="117.5" r="3.5" style="fill:rgb(208,218,239);"/>
                <circle cx="57.5" cy="99.5" r="3.5" style="fill:rgb(208,218,239);"/>
                <circle cx="57.5" cy="81.5" r="3.5" style="fill:rgb(208,218,239);"/>
                <circle cx="39.5" cy="63.5" r="3.5" style="fill:rgb(208,218,239);"/>
                <circle cx="39.5" cy="99.5" r="3.5" style="fill:rgb(208,218,239);"/>
                <circle cx="39.5" cy="81.5" r="3.5" style="fill:rgb(208,218,239);"/>
                <circle cx="21.5" cy="63.5" r="3.5" style="fill:rgb(208,218,239);"/>
                <circle cx="3.5" cy="63.5" r="3.5" style="fill:rgb(208,218,239);"/>
                <circle cx="21.5" cy="81.5" r="3.5" style="fill:rgb(208,218,239);"/>
            </g>
            <circle cx="601" cy="12" r="12" style="fill:rgb(57,211,159);"/>
            <path d="M535.5,769C578.3,769 613,734.3 613,691.5C613,648.7 578.3,614 535.5,614C492.7,614 458,648.7 458,691.5C458,734.3 492.7,769 535.5,769Z" style="fill:rgb(57,211,159);fill-rule:nonzero;"/>
            <path d="M535.5,747.9C566.7,747.9 591.9,722.6 591.9,691.5C591.9,660.3 566.6,635.1 535.5,635.1C504.3,635.1 479.1,660.4 479.1,691.5C479.1,722.7 504.3,747.9 535.5,747.9Z" style="fill:none;fill-rule:nonzero;stroke:white;stroke-width:4px;"/>
            <path d="M535.5,711.2C546.4,711.2 555.2,702.4 555.2,691.5C555.2,680.6 546.4,671.8 535.5,671.8C524.6,671.8 515.8,680.6 515.8,691.5C515.8,702.4 524.6,711.2 535.5,711.2Z" style="fill:none;fill-rule:nonzero;stroke:white;stroke-width:4px;"/>
        </g>
    </g>
</svg>
