<?xml version="1.0" encoding="UTF-8" standalone="no"?>
<!DOCTYPE svg PUBLIC "-//W3C//DTD SVG 1.1//EN" "http://www.w3.org/Graphics/SVG/1.1/DTD/svg11.dtd">
<svg width="100%" height="100%" viewBox="0 0 1313 839" version="1.1" xmlns="http://www.w3.org/2000/svg" xmlns:xlink="http://www.w3.org/1999/xlink" xml:space="preserve" xmlns:serif="http://www.serif.com/" style="fill-rule:evenodd;clip-rule:evenodd;stroke-linecap:round;stroke-linejoin:round;">
    <g>
        <path d="M195.8,170C199.3,175.8 220.2,212.6 218.8,242.1C212.2,239.6 185.4,227.3 185.4,227.3L183.7,217.3L176.4,189.1L172.3,178.3L165.4,164.1L160.9,157.9L172.9,160.7L195.8,170Z" style="fill:rgb(231,234,243);fill-rule:nonzero;"/>
        <path d="M92.5,211.2C92.5,202.8 95.5,323.1 132.8,338.2C112.7,344 80,339.5 80,339.5L69.5,329.6L66.4,322.1L64.5,295.3L64.5,285.8L64.6,270L66.1,247.1L67.4,239L72,228.5L73.9,224.8C73.9,224.8 79.2,226.4 81.2,226.4C83.2,226.4 92.5,214.9 92.5,211.2Z" style="fill:rgb(231,234,243);fill-rule:nonzero;"/>
        <path d="M182.9,329C192.9,329 273.1,340.3 308.2,358.4C303.4,381.9 271.8,520.4 271.8,520.4L252.1,520.4C252.1,520.4 244.7,403.8 243.1,404.8C232.5,410.3 190.3,424.1 145.2,424.7" style="fill:rgb(30,32,34);fill-rule:nonzero;"/>
        <path d="M205.3,184.8C212.2,189.7 222.8,199.1 225.2,203C252.4,169.2 297.1,135.1 300.8,131.2C304.5,127.3 305.6,105.3 305.6,100.5C305.6,95.7 312.2,82.9 318.6,82.9L318.6,140.4C318.6,140.4 243.7,245.5 231.4,245.5C225,245.5 198.7,234.5 185.5,227.4" style="fill:none;fill-rule:nonzero;stroke:rgb(30,32,34);stroke-width:2.5px;"/>
        <path d="M160.5,158C180.5,160.9 206.8,173.9 206.8,179.1C206.9,185.1 193.9,208 183.7,217.4" style="fill:none;fill-rule:nonzero;stroke:rgb(30,32,34);stroke-width:2.5px;stroke-linejoin:miter;stroke-miterlimit:10;"/>
        <path d="M179.5,57.2C180.8,55.1 181.4,52.7 181.4,50.2C181.4,41.2 173.8,40 170.4,37.2C166.7,34.2 168.3,25.1 158.4,25.1C149.5,25.1 145.1,34.4 139.5,38C132.6,42.4 119.1,38.9 110.3,48C106,52.4 105,63.4 102.3,67.4C98.6,72.8 92.3,74.4 92.3,82.7C92.3,87.7 95.8,95.6 100.5,99" style="fill:none;fill-rule:nonzero;stroke:rgb(30,32,34);stroke-width:2.5px;stroke-linejoin:miter;stroke-miterlimit:10;"/>
        <path d="M143.9,143.7C197.7,171 193.4,321 182.9,329C171.4,337.8 77.4,342.1 68.8,329C64.8,322.9 61.9,281.4 67,238.8" style="fill:none;fill-rule:nonzero;stroke:rgb(30,32,34);stroke-width:2.5px;stroke-linejoin:miter;stroke-miterlimit:10;"/>
        <path d="M92.4,158.2C98.6,149.8 106.2,143.7 115.1,141" style="fill:none;fill-rule:nonzero;stroke:rgb(30,32,34);stroke-width:2.5px;stroke-linejoin:miter;stroke-miterlimit:10;"/>
        <path d="M39.2,203.2C24.1,220.5 1.3,264.7 1.3,272.6C1.3,292.6 68.8,380.7 77.4,380.7C81,374.5 86.7,361.6 86.7,361.6C86.7,361.6 46,286 38.6,276.2C45,270.2 68.4,238.7 72.2,229C72.7,227.7 73.1,226.3 73.4,224.9" style="fill:none;fill-rule:nonzero;stroke:rgb(30,32,34);stroke-width:2.5px;stroke-linejoin:miter;stroke-miterlimit:10;"/>
        <path d="M80.8,226.6C73.2,227.1 36.9,207.7 36.9,198.2C36.9,190.6 76.6,149.4 93.7,158.8C96.1,160.1 97.7,162.6 98.7,165.7" style="fill:none;fill-rule:nonzero;stroke:rgb(30,32,34);stroke-width:2.5px;stroke-linejoin:miter;stroke-miterlimit:10;"/>
        <path d="M143.9,143.7L143.9,131.1" style="fill:none;fill-rule:nonzero;stroke:rgb(30,32,34);stroke-width:2.5px;stroke-linejoin:miter;stroke-miterlimit:10;"/>
        <path d="M115.1,108.8L115.1,144.7C115.1,149.8 122.3,152.3 129.5,152.4" style="fill:none;fill-rule:nonzero;stroke:rgb(30,32,34);stroke-width:2.5px;stroke-linejoin:miter;stroke-miterlimit:10;"/>
        <path d="M143.9,131.1C145,131 146.2,130.9 147.3,130.6C162.1,127.1 170,106.8 164.9,85.1C164,81.2 162.7,77.4 161,73.7" style="fill:none;fill-rule:nonzero;stroke:rgb(30,32,34);stroke-width:2.5px;stroke-linejoin:miter;stroke-miterlimit:10;"/>
        <path d="M110,88.5C105,89.9 102.1,95.2 103.6,100.2C104.8,104.2 108.4,107 112.6,107C113.2,107 113.8,106.9 114.3,106.8C114.6,107.5 114.9,108.1 115.2,108.8" style="fill:none;fill-rule:nonzero;stroke:rgb(30,32,34);stroke-width:2.5px;stroke-linejoin:miter;stroke-miterlimit:10;"/>
        <path d="M69.4,329L69.4,329.6C78.8,346.9 86.7,361.6 86.7,361.6C86.7,361.6 81,374.5 77.4,380.7C76,380.7 73.2,378.5 69.4,374.7L69.4,678.8L86.7,678.8L182.9,329C176.8,334.1 91.8,346.1 69.4,329Z" style="fill:rgb(30,32,34);fill-rule:nonzero;"/>
        <path d="M69.4,329L69.4,329.6C78.8,346.9 86.7,361.6 86.7,361.6C86.7,361.6 81,374.5 77.4,380.7C76,380.7 73.2,378.5 69.4,374.7L69.4,678.8L86.7,678.8L182.9,329C176.8,334.1 91.8,346.1 69.4,329Z" style="fill:rgb(30,32,34);fill-opacity:0.1;fill-rule:nonzero;"/>
        <path d="M71.9,678.3L71.9,698.8L108.8,698.8L83.8,687.2L83.8,677.8" style="fill:none;fill-rule:nonzero;stroke:rgb(30,32,34);stroke-width:2.5px;"/>
        <path d="M253.9,518.8L253.9,539.3L290.8,539.3L265.9,527.7L265.9,518.3" style="fill:none;fill-rule:nonzero;stroke:rgb(30,32,34);stroke-width:2.5px;"/>
        <path d="M539.6,0L418.3,0C396.4,0 378.6,17.7 378.6,39.7C378.6,51.2 383.5,61.5 391.3,68.8L391.3,95.4L408.5,78.2C411.6,79 414.9,79.4 418.3,79.4L539.6,79.4C561.5,79.4 579.3,61.6 579.3,39.7C579.3,17.8 561.5,0 539.6,0Z" style="fill:rgb(57,211,159);fill-rule:nonzero;"/>
        <circle cx="438" cy="40.9" r="10" style="fill:white;"/>
        <circle cx="478.9" cy="40.9" r="10" style="fill:white;"/>
        <circle cx="519.9" cy="40.9" r="10" style="fill:white;"/>
        <path d="M980.9,152.3C980.9,130.3 963.1,112.6 941.2,112.6L819.9,112.6C798,112.6 780.2,130.4 780.2,152.3C780.2,174.2 798,192 819.9,192L941.2,192C944.6,192 947.8,191.6 950.9,190.8L968.1,208L968.1,181.5C976,174.2 980.9,163.8 980.9,152.3Z" style="fill:none;fill-rule:nonzero;stroke:rgb(30,32,34);stroke-width:2px;stroke-linecap:butt;stroke-linejoin:miter;stroke-miterlimit:10;"/>
        <circle cx="921.5" cy="153.6" r="10" style="fill:none;stroke:rgb(30,32,34);stroke-width:3px;stroke-linecap:butt;stroke-linejoin:miter;stroke-miterlimit:10;"/>
        <circle cx="880.5" cy="153.6" r="10" style="fill:none;stroke:rgb(30,32,34);stroke-width:3px;stroke-linecap:butt;stroke-linejoin:miter;stroke-miterlimit:10;"/>
        <circle cx="839.6" cy="153.6" r="10" style="fill:none;stroke:rgb(30,32,34);stroke-width:3px;stroke-linecap:butt;stroke-linejoin:miter;stroke-miterlimit:10;"/>
        <path d="M1108.1,225.8C1108.1,234.2 1100.4,324.2 1081.4,332C1095.8,324.3 1117.8,312.7 1125.1,303.5C1125.6,297.7 1127.6,273.7 1128.6,270.3C1129.6,266.9 1133.6,238.8 1138.7,228.1C1143.7,217.4 1144.9,213.1 1144.9,213.1L1148.4,206.3L1152.3,200L1156.2,194.2L1157.6,192.2L1155.8,191.8L1152.3,191.7L1147.8,192.7L1142,195.5L1135.1,199.7L1130.2,203.2L1125.5,207.1L1120.6,211.9L1115.6,217.4L1108.5,225.6" style="fill:rgb(231,234,243);fill-rule:nonzero;"/>
        <path d="M1239.8,292.4C1239.8,295.8 1217.8,404.9 1181.1,404.9C1222.5,408.7 1243.1,403.3 1243.1,403.3L1250.4,396.8L1252.9,389.5C1252.9,389.5 1254.9,369.1 1254.9,367.2C1255,364.3 1255.4,357.6 1255.4,357.6L1256,345L1257.6,313.5L1251.1,302.9L1246.7,292.1L1239.8,292.4Z" style="fill:rgb(231,234,243);fill-rule:nonzero;"/>
        <path d="M1255,202.1C1246.4,190.8 1232.2,180.4 1212.4,176.3" style="fill:none;fill-rule:nonzero;stroke:rgb(30,32,34);stroke-width:2.5px;stroke-linejoin:miter;stroke-miterlimit:10;"/>
        <path d="M1252.3,392.8C1254.8,382.1 1255.7,351.2 1257.8,313.6" style="fill:none;fill-rule:nonzero;stroke:rgb(30,32,34);stroke-width:2.5px;stroke-linejoin:miter;stroke-miterlimit:10;"/>
        <path d="M1180.6,176.6C1109.3,206.3 1125.1,383.8 1130,396.2C1138.3,417.4 1241.2,402.2 1250.4,396.6" style="fill:none;fill-rule:nonzero;stroke:rgb(30,32,34);stroke-width:2.5px;stroke-linejoin:miter;stroke-miterlimit:10;"/>
        <path d="M1225.2,140.1C1217,150.2 1211.3,181.2 1211.2,184.7C1209.9,186.8 1203.8,187.5 1197.6,187.6" style="fill:none;fill-rule:nonzero;stroke:rgb(30,32,34);stroke-width:2.5px;stroke-linejoin:miter;stroke-miterlimit:10;"/>
        <path d="M1100.8,253.3C1089.2,263.4 1066.4,289.1 1064.5,292.3C1058.7,289.5 998.4,257.8 993.8,255.8C989.3,253.8 979.7,237.8 976.4,237.8C974.5,237.8 972.7,241.5 972.7,244C972.7,248.3 974.7,251.6 976,252.9C971.7,252.3 933.9,249.4 933.9,251.9C933.9,258.4 976.2,267.1 979.5,268.9C982.8,270.7 1051.7,334.4 1075.6,334.4C1084.9,334.4 1125.7,306.4 1125.7,303.4" style="fill:none;fill-rule:nonzero;stroke:rgb(30,32,34);stroke-width:2.5px;stroke-linejoin:miter;stroke-miterlimit:10;"/>
        <path d="M1244.6,816.7L1244.6,837.7L1191.4,837.7L1225.3,816.7" style="fill:none;fill-rule:nonzero;stroke:rgb(30,32,34);stroke-width:2.5px;stroke-linejoin:miter;stroke-miterlimit:10;"/>
        <path d="M1244.6,816.7L1244.6,787.5" style="fill:none;fill-rule:nonzero;stroke:rgb(30,32,34);stroke-width:2.5px;stroke-linejoin:miter;stroke-miterlimit:10;"/>
        <path d="M1225.6,816.7L1225.6,787.5" style="fill:none;fill-rule:nonzero;stroke:rgb(30,32,34);stroke-width:2.5px;stroke-linejoin:miter;stroke-miterlimit:10;"/>
        <path d="M1016.6,693.3L1016.6,714.2L963.6,714.2L997.4,693.3" style="fill:none;fill-rule:nonzero;stroke:rgb(30,32,34);stroke-width:2.5px;stroke-linejoin:miter;stroke-miterlimit:10;"/>
        <path d="M1016.6,700.9L1016.6,671.7" style="fill:none;fill-rule:nonzero;stroke:rgb(30,32,34);stroke-width:2.5px;stroke-linejoin:miter;stroke-miterlimit:10;"/>
        <path d="M997.7,693.3L997.7,669.3" style="fill:none;fill-rule:nonzero;stroke:rgb(30,32,34);stroke-width:2.5px;stroke-linejoin:miter;stroke-miterlimit:10;"/>
        <path d="M918.3,837.7L918.3,715.5L1057.7,715.5L1057.7,837.7" style="fill:none;fill-rule:nonzero;stroke:rgb(30,32,34);stroke-width:2px;stroke-linejoin:miter;stroke-miterlimit:10;"/>
        <path d="M1247,293C1248.1,299.9 1274.6,341.6 1277.7,345.3C1271,351.1 1233.9,432.3 1231,437.6C1231,440.6 1240.1,450.6 1243.3,453.8C1248.8,453.8 1311.2,373.6 1311.2,364.5C1311.2,355.4 1312.2,296.2 1295.5,270.7" style="fill:none;fill-rule:nonzero;stroke:rgb(30,32,34);stroke-width:2.5px;stroke-linejoin:miter;stroke-miterlimit:10;"/>
        <path d="M1239.5,291.7C1248.6,295.6 1292.6,282.4 1296.2,269C1300,249.2 1270.3,192.3 1243.8,203" style="fill:none;fill-rule:nonzero;stroke:rgb(30,32,34);stroke-width:2.5px;stroke-linejoin:miter;stroke-miterlimit:10;"/>
        <path d="M1243.2,453.9C1239.9,450.6 1230.9,440.7 1230.9,437.7C1232.3,435.3 1240.8,416.7 1250.4,396.9C1226.7,403.3 1167.8,408.1 1146.2,403.2C1140.4,401.9 1134.6,399.2 1130,396.4C1124.3,400.1 1041,458.4 1002.4,515.5C1000.4,520 997.4,669.5 997.4,669.5L1028,672.1L1055.3,544.8C1059.7,544.8 1119.3,522 1162,494.8L1212.6,787.7L1245.5,787.7L1252.7,445.4C1247.9,450.5 1244.3,453.9 1243.2,453.9Z" style="fill:rgb(57,211,159);fill-rule:nonzero;"/>
        <path d="M1155.9,47.1C1155.9,81.1 1241.8,72.3 1241.8,115.9C1241.8,134.8 1231.5,139.3 1225.4,139.3" style="fill:none;fill-rule:nonzero;stroke:rgb(30,32,34);stroke-width:2.5px;stroke-linejoin:miter;stroke-miterlimit:10;"/>
        <path d="M1151.4,57.4C1151.4,61.2 1156.2,71.8 1170,84.9" style="fill:none;fill-rule:nonzero;stroke:rgb(30,32,34);stroke-width:2.5px;stroke-linejoin:miter;stroke-miterlimit:10;"/>
        <path d="M1179.1,93.2C1177.6,98.2 1163.7,122.7 1163.7,125.7C1163.7,128.7 1170.6,132.6 1170.6,134.8C1170.6,136.9 1167.8,148.1 1181.7,157.3C1181.1,161.5 1180.6,176.6 1180.6,176.6" style="fill:none;fill-rule:nonzero;stroke:rgb(30,32,34);stroke-width:2.5px;stroke-linejoin:miter;stroke-miterlimit:10;"/>
        <circle cx="1183.7" cy="112.4" r="1.9"/>
        <circle cx="145.2" cy="88.5" r="1.9"/>
        <path d="M1179.1,140.9C1176.6,142 1173.9,142.8 1171.2,143.2" style="fill:none;fill-rule:nonzero;stroke:rgb(30,32,34);stroke-width:2.5px;stroke-linejoin:miter;stroke-miterlimit:10;"/>
        <path d="M158,114.2C155.2,113.8 152.6,113.1 150.1,111.9" style="fill:none;fill-rule:nonzero;stroke:rgb(30,32,34);stroke-width:2.5px;stroke-linejoin:miter;stroke-miterlimit:10;"/>
        <path d="M1158.8,192.5C1140.7,185.6 1098.6,230.9 1097.8,248.5C1101.1,257.2 1118.2,268 1129.4,273.9" style="fill:none;fill-rule:nonzero;stroke:rgb(30,32,34);stroke-width:2.5px;stroke-linejoin:miter;stroke-miterlimit:10;"/>
        <path d="M346,835.8L346,540.2L202.3,540.2L202.3,835.8" style="fill:none;fill-rule:nonzero;stroke:rgb(30,32,34);stroke-width:2.5px;stroke-linejoin:miter;stroke-miterlimit:10;"/>
        <path d="M160.3,835.8L160.3,698.8L16.5,698.8L16.5,835.8" style="fill:none;fill-rule:nonzero;stroke:rgb(30,32,34);stroke-width:2.5px;stroke-linejoin:miter;stroke-miterlimit:10;"/>
    </g>
</svg>
