<?xml version="1.0" encoding="UTF-8" standalone="no"?><!DOCTYPE svg PUBLIC "-//W3C//DTD SVG 1.1//EN" "http://www.w3.org/Graphics/SVG/1.1/DTD/svg11.dtd"><svg width="100%" height="100%" viewBox="0 0 185 73" version="1.1" xmlns="http://www.w3.org/2000/svg" xmlns:xlink="http://www.w3.org/1999/xlink" xml:space="preserve" xmlns:serif="http://www.serif.com/" style="fill-rule:evenodd;clip-rule:evenodd;stroke-linejoin:round;stroke-miterlimit:2;"><path d="M42.112,27.049l-24.822,32.354l24.822,-0l0,12.411l-42.112,-0l0,-10.502l24.503,-32.353l-23.124,-0l0,-12.411l40.733,-0l-0,10.501Zm65.449,44.765l20.261,-55.266l-14.532,0l-11.138,34.156l-11.245,-34.156l-14.532,0l20.367,55.266l10.819,0Zm62.723,-3.508c-3.851,2.065 -8.251,3.236 -12.921,3.236c-15.144,0 -27.438,-12.312 -27.438,-27.477c0,-15.165 12.294,-27.477 27.438,-27.477c15.143,-0 27.438,12.312 27.438,27.477c0,0.461 -0.012,0.92 -0.034,1.374l0,26.924l-14.483,0l0,-4.057Zm0.128,-25.078c-0.431,-6.844 -6.107,-12.278 -13.049,-12.278c-7.223,-0 -13.076,5.882 -13.076,13.115c0,7.233 5.853,13.116 13.076,13.116c6.536,-0 11.951,-4.818 12.921,-11.094l0,-2.859l0.128,0Zm-101.993,-31.984l-14.108,0l0,-11.244l14.108,0l0,11.244Zm-0.106,60.57l-13.79,0l0,-55.266l13.79,0l0,55.266Z" style="fill:#fff;"/></svg>