<?xml version="1.0" encoding="UTF-8" standalone="no"?>
<!DOCTYPE svg PUBLIC "-//W3C//DTD SVG 1.1//EN" "http://www.w3.org/Graphics/SVG/1.1/DTD/svg11.dtd">
<svg width="100%" height="100%" viewBox="0 0 802 568" version="1.1" xmlns="http://www.w3.org/2000/svg" xmlns:xlink="http://www.w3.org/1999/xlink" xml:space="preserve" xmlns:serif="http://www.serif.com/" style="fill-rule:evenodd;clip-rule:evenodd;stroke-linejoin:round;stroke-miterlimit:2;">
    <g transform="matrix(0.742027,0,0,0.742027,140.971,145.353)">
        <rect x="290.55" y="30.152" width="90.461" height="12.922" style="fill:rgb(33,50,91);fill-rule:nonzero;"/>
        <rect x="395.66" y="30.152" width="12.922" height="12.922" style="fill:rgb(33,50,91);fill-rule:nonzero;"/>
        <path d="M505.94,-1.723L194.06,-1.723C175.966,-1.723 161.322,12.922 161.322,31.015L161.322,530.705C161.322,548.799 175.967,563.443 194.06,563.443L506.8,563.443C524.894,563.443 539.538,548.798 539.538,530.705L539.538,31.015C538.675,12.062 524.03,-1.723 505.936,-1.723L505.94,-1.723ZM194.06,11.199L506.8,11.199C517.14,11.199 526.616,19.817 526.616,31.015L526.616,66.339L174.246,66.339L174.246,30.151C174.246,19.815 182.863,11.198 194.062,11.198L194.06,11.199ZM525.75,78.398L525.75,467.808L174.24,467.812L174.24,78.392L525.75,78.398ZM505.934,549.658L194.054,549.658C183.714,549.658 174.238,541.041 174.238,529.842L174.238,479.873L525.748,479.873L525.748,529.842C525.748,540.182 517.131,549.658 505.932,549.658L505.934,549.658Z" style="fill:rgb(33,50,91);fill-rule:nonzero;"/>
        <path d="M387.91,492.8L312.094,492.8C300.895,492.8 291.418,502.277 291.418,513.476C291.418,524.675 300.895,534.152 312.094,534.152L387.91,534.152C399.109,534.152 408.586,524.675 408.586,513.476C408.59,502.277 399.113,492.8 387.91,492.8ZM387.91,522.093L312.094,522.093C307.785,522.093 304.34,518.648 304.34,514.339C304.34,510.03 307.785,506.585 312.094,506.585L387.91,506.585C392.219,506.585 395.664,510.03 395.664,514.339C395.664,518.644 392.219,522.093 387.91,522.093Z" style="fill:rgb(33,50,91);fill-rule:nonzero;"/>
        <path d="M233.69,194.71C244.889,194.71 253.506,186.956 256.952,177.48L304.335,177.48C281.937,192.125 266.429,216.25 263.843,243.82L246.613,243.82L246.613,290.343L294,290.343L294,243.82L276.77,243.82C279.356,214.527 299.168,190.406 326.739,180.929L326.739,194.714L373.262,194.714L373.262,180.925C400.832,190.402 420.645,214.527 423.231,243.816L406.001,243.82L406.001,290.343L452.524,290.343L452.524,243.82L435.294,243.82C433.571,216.25 418.064,192.129 394.802,177.48L442.185,177.48C444.771,187.82 454.247,194.71 465.447,194.71C478.369,194.71 489.572,183.511 489.572,170.585C489.572,157.663 478.373,146.46 465.447,146.46C454.248,146.46 445.631,154.214 442.185,163.69L372.4,163.69L372.4,146.46L325.877,146.46L325.877,163.69L256.092,163.69C253.506,153.35 244.03,146.46 232.83,146.46C219.908,146.46 208.705,157.659 208.705,170.585C209.572,184.374 220.771,194.71 233.693,194.71L233.69,194.71ZM281.077,277.417L259.538,277.417L259.538,256.741L280.214,256.741L280.214,277.417L281.077,277.417ZM440.457,277.417L419.781,277.417L419.781,256.741L440.457,256.741L440.457,277.417ZM466.305,160.247C472.336,160.247 477.504,165.415 477.504,171.446C477.504,177.477 472.336,182.645 466.305,182.645C460.274,182.645 455.106,177.477 455.106,171.446C455.106,164.555 460.274,160.247 466.305,160.247ZM339.655,160.247L360.331,160.247L360.331,180.923L339.655,180.923L339.655,160.247ZM233.685,160.247C239.716,160.247 244.884,165.415 244.884,171.446C244.884,177.477 239.716,182.645 233.685,182.645C227.654,182.645 222.486,177.477 222.486,171.446C222.486,164.555 227.654,160.247 233.685,160.247Z" style="fill:rgb(33,50,91);fill-rule:nonzero;"/>
        <path d="M472.34,367.88C431.848,356.681 396.524,351.509 365.51,351.509C333.635,351.509 315.541,357.54 306.924,360.986C300.893,354.095 294.002,350.646 294.002,350.646C288.834,347.2 282.803,346.337 276.772,346.337C262.987,346.337 251.788,354.954 244.897,360.982C242.311,363.568 238.006,365.291 232.835,365.291C228.526,365.291 225.081,364.427 225.081,364.427L216.464,361.841L216.464,370.459C216.464,382.521 224.218,407.506 256.956,416.119C262.987,417.841 268.155,418.705 273.327,418.705C292.28,418.705 303.479,408.365 308.651,401.475C317.268,404.92 336.221,410.951 367.237,410.951C397.389,410.951 432.714,405.783 472.347,395.443C475.792,394.58 482.687,390.275 482.687,381.658C482.679,373.053 475.788,368.744 472.343,367.881L472.34,367.88ZM469.754,383.388C430.984,393.728 396.524,398.033 368.094,398.033C326.739,398.033 310.371,387.693 310.371,387.693L304.34,383.384L300.895,390.275C300.895,391.138 294.004,404.92 274.188,404.92C269.879,404.92 265.57,404.057 261.266,403.197C241.45,398.029 234.559,385.967 231.973,378.213L234.559,378.213C242.312,378.213 250.067,375.627 255.235,371.323C263.852,363.569 271.606,360.124 278.496,360.124C281.942,360.124 285.387,360.987 289.696,363.569C289.696,363.569 296.586,367.014 300.895,373.909L304.34,379.94L310.371,376.495C310.371,376.495 326.742,366.155 367.234,366.155C396.527,366.155 431.851,371.323 470.614,382.526C470.614,382.526 471.477,382.526 471.477,383.389C469.751,381.666 469.751,382.53 469.751,383.389L469.754,383.388Z" style="fill:rgb(33,50,91);fill-rule:nonzero;"/>
        <rect x="381.02" y="375.63" width="12.922" height="12.922" style="fill:rgb(33,50,91);fill-rule:nonzero;"/>
        <rect x="350.86" y="375.63" width="12.922" height="12.922" style="fill:rgb(33,50,91);fill-rule:nonzero;"/>
    </g>
</svg>
