<?xml version="1.0" encoding="UTF-8" standalone="no"?>
<!DOCTYPE svg PUBLIC "-//W3C//DTD SVG 1.1//EN" "http://www.w3.org/Graphics/SVG/1.1/DTD/svg11.dtd">
<svg width="100%" height="100%" viewBox="0 0 512 512" version="1.1" xmlns="http://www.w3.org/2000/svg" xmlns:xlink="http://www.w3.org/1999/xlink" xml:space="preserve" xmlns:serif="http://www.serif.com/" style="fill-rule:evenodd;clip-rule:evenodd;stroke-linejoin:round;stroke-miterlimit:2;">
    <g transform="matrix(1.4918,0,0,1.28628,-1190.36,-1174.9)">
        <g>
            <g transform="matrix(1.82325,0,0,2.11457,-20056,-44129.5)">
                <path d="M11607.8,21376.7C11609.7,21382.6 11610.7,21389.2 11610.7,21396.4L11610.7,21466.1L11575,21466.1L11575,21396.4C11575,21383.3 11569.7,21376.6 11558.8,21376.6C11548.5,21376.6 11542.4,21383.9 11542.4,21396.4L11542.4,21466.1L11506.8,21466.1L11506.8,21396.4C11506.8,21383.3 11501.5,21376.6 11490.6,21376.6C11479.7,21376.6 11474.1,21384.2 11474.1,21396.4L11474.1,21466.1L11438.5,21466.1L11438.5,21396.4C11438.5,21379.7 11443.5,21366.6 11453.5,21357.4C11463.5,21348.2 11475.8,21343.5 11490.6,21343.5C11504.2,21343.5 11515.4,21347.4 11524.6,21355.2C11533.8,21347.4 11545.2,21343.5 11558.8,21343.5C11563.9,21343.5 11568.7,21344.1 11573.1,21345.2C11573.3,21348.9 11574,21352.5 11575.3,21355.8C11578.3,21364.6 11585.3,21371.6 11594.1,21374.6C11597.8,21376 11601.7,21376.8 11605.8,21376.8C11606.5,21376.8 11607.2,21376.8 11607.8,21376.7Z" style="fill:rgb(22,133,255);fill-rule:nonzero;"/>
            </g>
            <g transform="matrix(1.20415,0,0,1.39655,-7561.91,-29179.6)">
                <circle cx="7196.94" cy="21613" r="29.526" style="fill:rgb(92,197,108);"/>
            </g>
        </g>
    </g>
</svg>
