<?xml version="1.0" encoding="UTF-8" standalone="no"?>
<!DOCTYPE svg PUBLIC "-//W3C//DTD SVG 1.1//EN" "http://www.w3.org/Graphics/SVG/1.1/DTD/svg11.dtd">
<svg width="100%" height="100%" viewBox="0 0 1532 379" version="1.1" xmlns="http://www.w3.org/2000/svg" xmlns:xlink="http://www.w3.org/1999/xlink" xml:space="preserve" xmlns:serif="http://www.serif.com/" style="fill-rule:evenodd;clip-rule:evenodd;stroke-linejoin:round;stroke-miterlimit:2;">
    <g transform="matrix(1,0,0,1,-4836.61,-12881.1)">
        <g transform="matrix(1,0,0,1,3847.2,12219.8)">
            <g transform="matrix(5.39548,0,0,5.39548,-28720.1,-5933.32)">
                <text x="5581.48px" y="1271.06px" style="font-family:'Rubik-Regular', 'Rubik';font-size:54.745px;fill:rgb(22,133,255);">m<tspan x="5627.41px 5656.1px 5686.54px 5716.48px 5734px 5761.65px " y="1271.06px 1271.06px 1271.06px 1271.06px 1271.06px 1271.06px ">ongrov</tspan></text>
            </g>
            <g transform="matrix(4.86128,0,0,4.86128,-108349,-21330.7)">
                <circle cx="22530.7" cy="4562.8" r="38.891" style="fill:rgb(22,133,255);"/>
            </g>
            <g transform="matrix(-1.73048,0,0,1.73048,1961.95,-1458.51)">
                <g transform="matrix(1.53187,0,0,1.53187,184.383,1182.9)">
                    <path d="M126.48,74.62C135.35,71.52 144.39,74.75 148.97,83.03C149.137,83.343 150,85.327 151.56,88.98C156.28,100.04 160.977,111.14 165.65,122.28C165.79,122.607 165.693,122.833 165.36,122.96C157.69,126 148.88,123.24 144.22,116.67C143.467,115.61 141.91,112.307 139.55,106.76C135.09,96.267 130.637,85.77 126.19,75.27C126.057,74.95 126.153,74.733 126.48,74.62Z" style="fill:white;fill-rule:nonzero;"/>
                </g>
                <g transform="matrix(1.53187,0,0,1.53187,182.253,1182.9)">
                    <path d="M174.86,77.38C178.66,80.34 179.73,83.29 182.02,88.65C186.793,99.823 191.547,111.033 196.28,122.28C196.42,122.607 196.323,122.84 195.99,122.98C189.3,125.7 181.36,123.73 176.49,118.63C174.97,117.043 173.243,113.977 171.31,109.43C166.47,98.057 161.657,86.673 156.87,75.28C156.737,74.947 156.837,74.72 157.17,74.6C163.663,72.333 169.56,73.26 174.86,77.38Z" style="fill:white;fill-rule:nonzero;"/>
                </g>
                <g transform="matrix(1.53187,0,0,1.53187,184.383,1182.9)">
                    <path d="M184.93,74.6C193.95,71.53 203.83,74.91 207.8,83.85C213.44,96.57 218.907,109.45 224.2,122.49C224.333,122.823 224.223,123.037 223.87,123.13C212.543,126.05 204.73,122.433 200.43,112.28C195.17,99.867 189.93,87.473 184.71,75.1C184.603,74.853 184.677,74.687 184.93,74.6Z" style="fill:white;fill-rule:nonzero;"/>
                </g>
            </g>
        </g>
    </g>
</svg>
