<?xml version="1.0" encoding="UTF-8" standalone="no"?>
<!DOCTYPE svg PUBLIC "-//W3C//DTD SVG 1.1//EN" "http://www.w3.org/Graphics/SVG/1.1/DTD/svg11.dtd">
<svg width="100%" height="100%" viewBox="0 0 1532 379" version="1.1" xmlns="http://www.w3.org/2000/svg" xmlns:xlink="http://www.w3.org/1999/xlink" xml:space="preserve" xmlns:serif="http://www.serif.com/" style="fill-rule:evenodd;clip-rule:evenodd;stroke-linejoin:round;stroke-miterlimit:2;">
    <g transform="matrix(1,0,0,1,1881.14,-12898.2)">
        <g transform="matrix(1,0,0,1,-2870.55,12236.8)">
            <g transform="matrix(5.39548,0,0,5.39548,-28720.1,-5933.32)">
                <path d="M5586.79,1271.06C5586.43,1271.06 5586.12,1270.94 5585.89,1270.7C5585.65,1270.46 5585.53,1270.16 5585.53,1269.8L5585.53,1243.85C5585.53,1243.48 5585.65,1243.18 5585.89,1242.94C5586.12,1242.71 5586.43,1242.59 5586.79,1242.59L5589.25,1242.59C5589.62,1242.59 5589.92,1242.71 5590.16,1242.94C5590.39,1243.18 5590.51,1243.48 5590.51,1243.85L5590.51,1245.76C5591.35,1244.63 5592.41,1243.73 5593.69,1243.05C5594.97,1242.38 5596.5,1242.04 5598.29,1242.04C5602.41,1242 5605.33,1243.68 5607.05,1247.08C5607.89,1245.54 5609.11,1244.32 5610.71,1243.41C5612.32,1242.5 5614.15,1242.04 5616.19,1242.04C5618.09,1242.04 5619.81,1242.48 5621.36,1243.36C5622.91,1244.23 5624.14,1245.55 5625.03,1247.32C5625.92,1249.09 5626.37,1251.31 5626.37,1253.98L5626.37,1269.8C5626.37,1270.16 5626.25,1270.46 5626.02,1270.7C5625.78,1270.94 5625.48,1271.06 5625.11,1271.06L5622.54,1271.06C5622.17,1271.06 5621.87,1270.94 5621.64,1270.7C5621.4,1270.46 5621.28,1270.16 5621.28,1269.8L5621.28,1254.47C5621.28,1252.42 5620.99,1250.82 5620.4,1249.65C5619.82,1248.48 5619.03,1247.66 5618.05,1247.19C5617.06,1246.71 5615.99,1246.48 5614.82,1246.48C5613.87,1246.48 5612.9,1246.71 5611.92,1247.19C5610.93,1247.66 5610.12,1248.48 5609.48,1249.65C5608.84,1250.82 5608.52,1252.42 5608.52,1254.47L5608.52,1269.8C5608.52,1270.16 5608.41,1270.46 5608.17,1270.7C5607.93,1270.94 5607.63,1271.06 5607.27,1271.06L5604.69,1271.06C5604.33,1271.06 5604.03,1270.94 5603.79,1270.7C5603.55,1270.46 5603.43,1270.16 5603.43,1269.8L5603.43,1254.47C5603.43,1252.42 5603.12,1250.82 5602.5,1249.65C5601.88,1248.48 5601.08,1247.66 5600.09,1247.19C5599.11,1246.71 5598.07,1246.48 5596.97,1246.48C5596.02,1246.48 5595.06,1246.71 5594.07,1247.19C5593.09,1247.66 5592.27,1248.48 5591.64,1249.65C5591,1250.82 5590.68,1252.41 5590.68,1254.41L5590.68,1269.8C5590.68,1270.16 5590.56,1270.46 5590.32,1270.7C5590.08,1270.94 5589.78,1271.06 5589.42,1271.06L5586.79,1271.06Z" style="fill:rgb(22,133,255);fill-rule:nonzero;"/>
                <path d="M5643.12,1271.6C5640.35,1271.6 5638.03,1271.07 5636.17,1270.02C5634.31,1268.96 5632.89,1267.49 5631.9,1265.61C5630.91,1263.73 5630.37,1261.59 5630.26,1259.18C5630.22,1258.56 5630.2,1257.76 5630.2,1256.79C5630.2,1255.83 5630.22,1255.05 5630.26,1254.47C5630.37,1252.02 5630.92,1249.87 5631.93,1248.01C5632.93,1246.15 5634.36,1244.69 5636.23,1243.63C5638.09,1242.57 5640.39,1242.04 5643.12,1242.04C5645.86,1242.04 5648.16,1242.57 5650.02,1243.63C5651.88,1244.69 5653.32,1246.15 5654.32,1248.01C5655.32,1249.87 5655.88,1252.02 5655.99,1254.47C5656.02,1255.05 5656.04,1255.83 5656.04,1256.79C5656.04,1257.76 5656.02,1258.56 5655.99,1259.18C5655.88,1261.59 5655.33,1263.73 5654.35,1265.61C5653.36,1267.49 5651.94,1268.96 5650.07,1270.02C5648.21,1271.07 5645.9,1271.6 5643.12,1271.6ZM5643.12,1267.39C5645.39,1267.39 5647.19,1266.67 5648.54,1265.23C5649.89,1263.78 5650.62,1261.68 5650.73,1258.9C5650.77,1258.36 5650.79,1257.66 5650.79,1256.82C5650.79,1255.98 5650.77,1255.29 5650.73,1254.74C5650.62,1251.97 5649.89,1249.86 5648.54,1248.42C5647.19,1246.98 5645.39,1246.26 5643.12,1246.26C5640.86,1246.26 5639.04,1246.98 5637.68,1248.42C5636.31,1249.86 5635.59,1251.97 5635.51,1254.74C5635.48,1255.29 5635.46,1255.98 5635.46,1256.82C5635.46,1257.66 5635.48,1258.36 5635.51,1258.9C5635.59,1261.68 5636.31,1263.78 5637.68,1265.23C5639.04,1266.67 5640.86,1267.39 5643.12,1267.39Z" style="fill:rgb(22,133,255);fill-rule:nonzero;"/>
                <path d="M5661.41,1271.06C5661.04,1271.06 5660.74,1270.94 5660.5,1270.7C5660.27,1270.46 5660.15,1270.16 5660.15,1269.8L5660.15,1243.85C5660.15,1243.48 5660.27,1243.18 5660.5,1242.94C5660.74,1242.71 5661.04,1242.59 5661.41,1242.59L5663.98,1242.59C5664.35,1242.59 5664.65,1242.71 5664.88,1242.94C5665.12,1243.18 5665.24,1243.48 5665.24,1243.85L5665.24,1246.26C5666.19,1245.02 5667.38,1244 5668.83,1243.22C5670.27,1242.43 5672.12,1242.04 5674.38,1242.04C5676.75,1242.04 5678.77,1242.56 5680.43,1243.6C5682.09,1244.64 5683.35,1246.08 5684.21,1247.93C5685.07,1249.77 5685.49,1251.91 5685.49,1254.36L5685.49,1269.8C5685.49,1270.16 5685.38,1270.46 5685.14,1270.7C5684.9,1270.94 5684.6,1271.06 5684.24,1271.06L5681.5,1271.06C5681.13,1271.06 5680.83,1270.94 5680.6,1270.7C5680.36,1270.46 5680.24,1270.16 5680.24,1269.8L5680.24,1254.63C5680.24,1252.08 5679.62,1250.08 5678.38,1248.64C5677.14,1247.2 5675.31,1246.48 5672.9,1246.48C5670.64,1246.48 5668.83,1247.2 5667.46,1248.64C5666.09,1250.08 5665.4,1252.08 5665.4,1254.63L5665.4,1269.8C5665.4,1270.16 5665.28,1270.46 5665.05,1270.7C5664.81,1270.94 5664.51,1271.06 5664.15,1271.06L5661.41,1271.06Z" style="fill:rgb(22,133,255);fill-rule:nonzero;"/>
                <path d="M5702.25,1283.1C5699.77,1283.1 5697.73,1282.77 5696.14,1282.11C5694.56,1281.46 5693.32,1280.66 5692.42,1279.73C5691.53,1278.8 5690.89,1277.87 5690.51,1276.94C5690.12,1276.01 5689.91,1275.27 5689.88,1274.72C5689.84,1274.36 5689.96,1274.05 5690.23,1273.79C5690.51,1273.54 5690.81,1273.41 5691.13,1273.41L5693.76,1273.41C5694.09,1273.41 5694.36,1273.48 5694.58,1273.63C5694.8,1273.78 5694.98,1274.09 5695.13,1274.56C5695.35,1275.11 5695.68,1275.72 5696.12,1276.39C5696.55,1277.07 5697.23,1277.65 5698.14,1278.14C5699.05,1278.64 5700.33,1278.88 5701.97,1278.88C5703.69,1278.88 5705.13,1278.65 5706.3,1278.17C5707.47,1277.7 5708.35,1276.89 5708.95,1275.76C5709.56,1274.63 5709.86,1273.06 5709.86,1271.06L5709.86,1267.33C5708.98,1268.46 5707.83,1269.4 5706.41,1270.15C5704.98,1270.9 5703.2,1271.28 5701.04,1271.28C5699,1271.28 5697.25,1270.92 5695.79,1270.21C5694.33,1269.5 5693.13,1268.53 5692.2,1267.31C5691.27,1266.08 5690.58,1264.69 5690.12,1263.12C5689.66,1261.55 5689.4,1259.91 5689.33,1258.19C5689.29,1257.17 5689.29,1256.16 5689.33,1255.18C5689.4,1253.46 5689.66,1251.82 5690.12,1250.25C5690.58,1248.68 5691.27,1247.28 5692.2,1246.04C5693.13,1244.8 5694.33,1243.82 5695.79,1243.11C5697.25,1242.4 5699,1242.04 5701.04,1242.04C5703.23,1242.04 5705.05,1242.44 5706.49,1243.25C5707.93,1244.05 5709.11,1245.05 5710.02,1246.26L5710.02,1243.9C5710.02,1243.54 5710.14,1243.23 5710.38,1242.97C5710.61,1242.72 5710.91,1242.59 5711.28,1242.59L5713.8,1242.59C5714.16,1242.59 5714.47,1242.72 5714.73,1242.97C5714.98,1243.23 5715.11,1243.54 5715.11,1243.9L5715.11,1270.45C5715.11,1272.9 5714.7,1275.07 5713.88,1276.97C5713.06,1278.87 5711.71,1280.36 5709.83,1281.46C5707.95,1282.55 5705.42,1283.1 5702.25,1283.1ZM5702.14,1266.89C5703.96,1266.89 5705.43,1266.48 5706.55,1265.64C5707.66,1264.8 5708.48,1263.74 5709.01,1262.46C5709.54,1261.18 5709.82,1259.89 5709.86,1258.57C5709.89,1258.06 5709.91,1257.43 5709.91,1256.68C5709.91,1255.94 5709.89,1255.31 5709.86,1254.8C5709.82,1253.48 5709.54,1252.19 5709.01,1250.91C5708.48,1249.63 5707.66,1248.57 5706.55,1247.73C5705.43,1246.89 5703.96,1246.48 5702.14,1246.48C5700.31,1246.48 5698.85,1246.89 5697.76,1247.71C5696.66,1248.53 5695.88,1249.61 5695.4,1250.94C5694.93,1252.27 5694.66,1253.7 5694.58,1255.23C5694.55,1256.18 5694.55,1257.15 5694.58,1258.14C5694.66,1259.67 5694.93,1261.1 5695.4,1262.43C5695.88,1263.77 5696.66,1264.84 5697.76,1265.66C5698.85,1266.48 5700.31,1266.89 5702.14,1266.89Z" style="fill:rgb(22,133,255);fill-rule:nonzero;"/>
                <path d="M5721.79,1271.06C5721.43,1271.06 5721.12,1270.94 5720.89,1270.7C5720.65,1270.46 5720.53,1270.16 5720.53,1269.8L5720.53,1243.9C5720.53,1243.54 5720.65,1243.23 5720.89,1242.97C5721.12,1242.72 5721.43,1242.59 5721.79,1242.59L5724.31,1242.59C5724.68,1242.59 5724.98,1242.72 5725.24,1242.97C5725.5,1243.23 5725.62,1243.54 5725.62,1243.9L5725.62,1246.31C5726.35,1245.07 5727.36,1244.14 5728.63,1243.52C5729.91,1242.9 5731.46,1242.59 5733.29,1242.59L5735.42,1242.59C5735.79,1242.59 5736.09,1242.71 5736.33,1242.94C5736.56,1243.18 5736.68,1243.48 5736.68,1243.85L5736.68,1246.09C5736.68,1246.46 5736.56,1246.75 5736.33,1246.97C5736.09,1247.19 5735.79,1247.3 5735.42,1247.3L5732.14,1247.3C5730.17,1247.3 5728.62,1247.87 5727.48,1249.02C5726.35,1250.17 5725.79,1251.73 5725.79,1253.7L5725.79,1269.8C5725.79,1270.16 5725.66,1270.46 5725.4,1270.7C5725.15,1270.94 5724.84,1271.06 5724.47,1271.06L5721.79,1271.06Z" style="fill:rgb(22,133,255);fill-rule:nonzero;"/>
                <path d="M5749.71,1271.6C5746.94,1271.6 5744.62,1271.07 5742.76,1270.02C5740.9,1268.96 5739.47,1267.49 5738.49,1265.61C5737.5,1263.73 5736.96,1261.59 5736.85,1259.18C5736.81,1258.56 5736.79,1257.76 5736.79,1256.79C5736.79,1255.83 5736.81,1255.05 5736.85,1254.47C5736.96,1252.02 5737.51,1249.87 5738.52,1248.01C5739.52,1246.15 5740.95,1244.69 5742.81,1243.63C5744.68,1242.57 5746.97,1242.04 5749.71,1242.04C5752.45,1242.04 5754.75,1242.57 5756.61,1243.63C5758.47,1244.69 5759.9,1246.15 5760.91,1248.01C5761.91,1249.87 5762.47,1252.02 5762.58,1254.47C5762.61,1255.05 5762.63,1255.83 5762.63,1256.79C5762.63,1257.76 5762.61,1258.56 5762.58,1259.18C5762.47,1261.59 5761.92,1263.73 5760.93,1265.61C5759.95,1267.49 5758.53,1268.96 5756.66,1270.02C5754.8,1271.07 5752.48,1271.6 5749.71,1271.6ZM5749.71,1267.39C5751.97,1267.39 5753.78,1266.67 5755.13,1265.23C5756.48,1263.78 5757.21,1261.68 5757.32,1258.9C5757.36,1258.36 5757.38,1257.66 5757.38,1256.82C5757.38,1255.98 5757.36,1255.29 5757.32,1254.74C5757.21,1251.97 5756.48,1249.86 5755.13,1248.42C5753.78,1246.98 5751.97,1246.26 5749.71,1246.26C5747.45,1246.26 5745.63,1246.98 5744.26,1248.42C5742.9,1249.86 5742.18,1251.97 5742.1,1254.74C5742.07,1255.29 5742.05,1255.98 5742.05,1256.82C5742.05,1257.66 5742.07,1258.36 5742.1,1258.9C5742.18,1261.68 5742.9,1263.78 5744.26,1265.23C5745.63,1266.67 5747.45,1267.39 5749.71,1267.39Z" style="fill:rgb(22,133,255);fill-rule:nonzero;"/>
                <path d="M5775.61,1271.06C5775.06,1271.06 5774.63,1270.93 5774.32,1270.67C5774.01,1270.42 5773.76,1270.09 5773.58,1269.69L5763.45,1244.29C5763.38,1244.1 5763.34,1243.92 5763.34,1243.74C5763.34,1243.41 5763.45,1243.14 5763.67,1242.92C5763.89,1242.7 5764.16,1242.59 5764.49,1242.59L5767.12,1242.59C5767.52,1242.59 5767.83,1242.7 5768.05,1242.92C5768.27,1243.14 5768.42,1243.34 5768.49,1243.52L5776.81,1265.09L5785.13,1243.52C5785.2,1243.34 5785.34,1243.14 5785.54,1242.92C5785.74,1242.7 5786.04,1242.59 5786.44,1242.59L5789.13,1242.59C5789.42,1242.59 5789.68,1242.7 5789.92,1242.92C5790.16,1243.14 5790.28,1243.41 5790.28,1243.74C5790.28,1243.92 5790.24,1244.1 5790.17,1244.29L5779.98,1269.69C5779.84,1270.09 5779.61,1270.42 5779.3,1270.67C5778.99,1270.93 5778.54,1271.06 5777.96,1271.06L5775.61,1271.06Z" style="fill:rgb(22,133,255);fill-rule:nonzero;"/>
            </g>
            <g transform="matrix(4.86128,0,0,4.86128,-108349,-21330.7)">
                <circle cx="22530.7" cy="4562.8" r="38.891" style="fill:rgb(22,133,255);"/>
            </g>
            <g transform="matrix(-1.73048,0,0,1.73048,1961.95,-1458.51)">
                <g transform="matrix(1.53187,0,0,1.53187,184.383,1182.9)">
                    <path d="M126.48,74.62C135.35,71.52 144.39,74.75 148.97,83.03C149.137,83.343 150,85.327 151.56,88.98C156.28,100.04 160.977,111.14 165.65,122.28C165.79,122.607 165.693,122.833 165.36,122.96C157.69,126 148.88,123.24 144.22,116.67C143.467,115.61 141.91,112.307 139.55,106.76C135.09,96.267 130.637,85.77 126.19,75.27C126.057,74.95 126.153,74.733 126.48,74.62Z" style="fill:white;fill-rule:nonzero;"/>
                </g>
                <g transform="matrix(1.53187,0,0,1.53187,182.253,1182.9)">
                    <path d="M174.86,77.38C178.66,80.34 179.73,83.29 182.02,88.65C186.793,99.823 191.547,111.033 196.28,122.28C196.42,122.607 196.323,122.84 195.99,122.98C189.3,125.7 181.36,123.73 176.49,118.63C174.97,117.043 173.243,113.977 171.31,109.43C166.47,98.057 161.657,86.673 156.87,75.28C156.737,74.947 156.837,74.72 157.17,74.6C163.663,72.333 169.56,73.26 174.86,77.38Z" style="fill:white;fill-rule:nonzero;"/>
                </g>
                <g transform="matrix(1.53187,0,0,1.53187,184.383,1182.9)">
                    <path d="M184.93,74.6C193.95,71.53 203.83,74.91 207.8,83.85C213.44,96.57 218.907,109.45 224.2,122.49C224.333,122.823 224.223,123.037 223.87,123.13C212.543,126.05 204.73,122.433 200.43,112.28C195.17,99.867 189.93,87.473 184.71,75.1C184.603,74.853 184.677,74.687 184.93,74.6Z" style="fill:white;fill-rule:nonzero;"/>
                </g>
            </g>
        </g>
    </g>
</svg>
