<?xml version="1.0" encoding="UTF-8" standalone="no"?>
<!DOCTYPE svg PUBLIC "-//W3C//DTD SVG 1.1//EN" "http://www.w3.org/Graphics/SVG/1.1/DTD/svg11.dtd">
<svg width="100%" height="100%" viewBox="0 0 1621 416" version="1.1" xmlns="http://www.w3.org/2000/svg" xmlns:xlink="http://www.w3.org/1999/xlink" xml:space="preserve" xmlns:serif="http://www.serif.com/" style="fill-rule:evenodd;clip-rule:evenodd;stroke-linejoin:round;stroke-miterlimit:2;">
    <g transform="matrix(1,0,0,1,-5201.56,-2901.63)">
        <g transform="matrix(1,0,0,1,127.032,1619.46)">
            <g>
                <path d="M5277.88,1282.16C5390.11,1282.16 5481.22,1375.29 5481.22,1489.98C5481.22,1604.68 5390.11,1697.8 5277.88,1697.8C5165.65,1697.8 5074.53,1604.68 5074.53,1489.98C5074.53,1375.29 5165.65,1282.16 5277.88,1282.16ZM5159.59,1550.03C5165.41,1550.03 5170.14,1554.74 5170.14,1560.53C5170.14,1566.33 5165.41,1571.03 5159.59,1571.03C5153.77,1571.03 5149.04,1566.33 5149.04,1560.53C5149.04,1554.74 5153.77,1550.03 5159.59,1550.03ZM5373.66,1432.02C5375.71,1421.34 5368.69,1411.13 5357.97,1409.24C5347.26,1407.35 5336.89,1414.49 5334.84,1425.17L5311.23,1547.95C5309.18,1558.63 5316.21,1568.84 5326.92,1570.73C5337.63,1572.62 5348,1565.48 5350.05,1554.79L5373.66,1432.02ZM5245.75,1432.02C5247.8,1421.34 5240.77,1411.13 5230.06,1409.24C5219.35,1407.35 5208.98,1414.49 5206.93,1425.17L5183.32,1547.95C5181.26,1558.63 5188.29,1568.84 5199.01,1570.73C5209.72,1572.62 5220.08,1565.48 5222.14,1554.79L5245.75,1432.02ZM5309.7,1432.02C5311.76,1421.34 5304.73,1411.13 5294.02,1409.24C5283.3,1407.35 5272.94,1414.49 5270.88,1425.17L5247.28,1547.95C5245.22,1558.63 5252.25,1568.84 5262.96,1570.73C5273.68,1572.62 5284.04,1565.48 5286.1,1554.79L5309.7,1432.02ZM5396.17,1408.94C5401.99,1408.94 5406.71,1413.64 5406.71,1419.43C5406.71,1425.23 5401.99,1429.93 5396.17,1429.93C5390.34,1429.93 5385.62,1425.23 5385.62,1419.43C5385.62,1413.64 5390.34,1408.94 5396.17,1408.94Z" style="fill:rgb(55,125,255);"/>
            </g>
        </g>
        <g transform="matrix(5.96581,0,0,5.96581,-27629.1,-4406.58)">
            <text x="5582.85px" y="1271.06px" style="font-family:'Graphik-Regular', 'Graphik', sans-serif;font-size:50px;fill:rgb(55,125,255);">m<tspan x="5625.35px 5652.55px 5679.45px 5707.8px 5722.85px 5749.3px " y="1271.06px 1271.06px 1271.06px 1271.06px 1271.06px 1271.06px ">ongrov</tspan></text>
        </g>
    </g>
</svg>
