<?xml version="1.0" encoding="UTF-8" standalone="no"?><!DOCTYPE svg PUBLIC "-//W3C//DTD SVG 1.1//EN" "http://www.w3.org/Graphics/SVG/1.1/DTD/svg11.dtd"><svg width="100%" height="100%" viewBox="0 0 500 500" version="1.1" xmlns="http://www.w3.org/2000/svg" xmlns:xlink="http://www.w3.org/1999/xlink" xml:space="preserve" xmlns:serif="http://www.serif.com/" style="fill-rule:evenodd;clip-rule:evenodd;stroke-linecap:round;stroke-linejoin:round;stroke-miterlimit:10;"><path d="M148.75,500l-132.083,0c-9.167,0 -16.667,-7.5 -16.667,-16.667l0,-257.916c0,-9.167 7.5,-16.667 16.667,-16.667l132.083,0c9.167,0 16.667,7.5 16.667,16.667l0,257.916c0,9.167 -7.5,16.667 -16.667,16.667Z" style="fill:#bdc5d1;fill-opacity:0.5;fill-rule:nonzero;"/><path d="M201.667,485l-132.084,0c-9.166,0 -16.666,-7.5 -16.666,-16.667l0,-266.25c0,-9.166 7.5,-16.666 16.666,-16.666l132.084,0c9.166,0 16.666,7.5 16.666,16.666l0,266.25c0,9.167 -7.5,16.667 -16.666,16.667Z" style="fill:#63cee7;fill-rule:nonzero;"/><path d="M334.583,445.417c0,5.833 -4.583,10.833 -10.833,10.833c-5.833,0 -10.833,-4.583 -10.833,-10.833c0,-5.834 4.583,-10.834 10.833,-10.834c6.25,0 10.833,5 10.833,10.834Z" style="fill:none;stroke:#bdc5d1;stroke-width:12.5px;"/><circle cx="138.333" cy="457.917" r="10.833" style="fill:none;stroke:#fff;stroke-width:12.5px;"/><path d="M72.083,217.083l126.25,0" style="fill:none;stroke:#fff;stroke-width:12.5px;"/><path d="M198.333,423.75l-126.25,0" style="fill:none;stroke:#fff;stroke-width:12.5px;"/><path d="M153.75,147.083l0,-123.75c0,-8.75 7.083,-15.833 15.833,-15.833l307.917,0c8.75,0 15.833,7.083 15.833,15.833l0,437.084c0,8.75 -7.083,15.833 -15.833,15.833l-222.083,0" style="fill:none;stroke:#bdc5d1;stroke-width:12.5px;"/><path d="M391.667,120l-135.417,177.5" style="fill:none;stroke:#63cee7;stroke-width:12.5px;"/><path d="M298.333,286.667l43.75,-57.084" style="fill:none;stroke:#63cee7;stroke-width:12.5px;"/><path d="M355.833,211.667l20,-25.417" style="fill:none;stroke:#63cee7;stroke-width:12.5px;"/><path d="M179.583,259.583l-92.916,121.667" style="fill:none;stroke:#fff;stroke-opacity:0.5;stroke-width:12.5px;"/><path d="M115.417,373.75l30,-39.167" style="fill:none;stroke:#fff;stroke-opacity:0.5;stroke-width:12.5px;"/><path d="M155,322.083l13.75,-17.083" style="fill:none;stroke:#fff;stroke-opacity:0.5;stroke-width:12.5px;"/><path d="M302.083,28.333l42.5,0" style="fill:none;stroke:#fff;stroke-width:12.5px;"/><path d="M190,145l0,-96.25l267.917,0l0,227.917" style="fill:none;stroke:#bdc5d1;stroke-width:12.5px;"/><path d="M457.917,340.417l0,63.333l-210.834,0" style="fill:none;stroke:#bdc5d1;stroke-width:12.5px;"/></svg>