<?xml version="1.0" encoding="UTF-8" standalone="no"?><!DOCTYPE svg PUBLIC "-//W3C//DTD SVG 1.1//EN" "http://www.w3.org/Graphics/SVG/1.1/DTD/svg11.dtd"><svg width="100%" height="100%" viewBox="0 0 500 500" version="1.1" xmlns="http://www.w3.org/2000/svg" xmlns:xlink="http://www.w3.org/1999/xlink" xml:space="preserve" xmlns:serif="http://www.serif.com/" style="fill-rule:evenodd;clip-rule:evenodd;stroke-linecap:round;stroke-linejoin:round;stroke-miterlimit:10;"><path d="M491.25,250c0,-2.083 0,-4.167 0,-6.25l-29.583,-12.083l27.083,-18.334c-3.75,-23.75 -10.417,-45.833 -20.417,-66.666l-33.75,1.25l17.917,-28.75c-12.5,-19.584 -27.917,-36.667 -45.417,-51.667l-31.666,15.417l5,-35c-19.167,-12.084 -40,-21.667 -62.084,-28.334l-22.916,27.5l-10,-34.583c-11.25,-1.667 -22.5,-2.5 -34.167,-2.5c-11.667,0 -22.917,0.833 -34.167,2.5l-10,34.583l-22.916,-27.5c-22.084,6.667 -43.334,16.25 -62.084,28.334l5,35l-31.666,-15.417c-17.5,15 -32.917,32.5 -45.417,51.667l17.917,28.75l-33.75,-1.25c-10,20.833 -17.084,43.333 -20.417,66.666l27.083,18.334l-29.583,12.083c0,2.083 0,4.167 0,6.25c0,22.083 2.917,43.75 8.75,64.167l30,5.416l-20.833,21.667c8.333,22.5 20.833,43.333 36.25,61.667l28.333,-7.084l-9.583,27.084c17.5,16.666 37.083,31.25 59.166,42.083l22.084,-17.083l2.083,27.5c22.5,8.333 46.25,13.333 71.25,15l12.917,-24.167l12.916,24.167c25,-1.25 48.75,-6.667 71.25,-15l2.084,-27.5l22.083,17.083c21.667,-10.833 41.667,-25.417 59.167,-42.083l-10.834,-27.084l28.334,7.084c15,-18.334 27.5,-39.167 36.666,-61.667l-20.833,-21.667l30,-5.416c5.833,-20.417 8.75,-41.667 8.75,-64.167Z" style="fill:none;stroke:#bdc5d1;stroke-width:12.5px;"/><path d="M380.417,233.75l-29.167,-2.083l7.083,-28.334c-7.083,-6.666 -15,-12.916 -24.166,-17.5l-25,15.417l-11.25,-27.083c-5,-0.834 -10,-0.834 -15,-0.834c-5,0 -10,0.417 -15,0.834l-11.25,27.083l-25,-15.417c-8.75,4.584 -17.084,10.834 -24.167,17.5l7.083,28.334l-29.166,2.083c-4.167,8.75 -7.5,18.333 -9.167,28.333l22.5,19.167l-22.5,18.75c1.667,10 5,19.583 9.167,28.333l29.166,2.084l-7.083,28.333c7.083,6.667 15,12.917 24.167,17.5l25,-15.417l11.25,27.084c5,0.833 10,0.833 15,0.833c5,0 10,-0.417 15,-0.833l11.25,-27.084l25,15.417c8.75,-4.583 17.083,-10.833 24.166,-17.5l-7.083,-28.333l29.167,-2.084c4.166,-8.75 7.5,-18.333 9.166,-28.333l-22.5,-19.167l22.5,-19.166c-1.666,-9.584 -4.583,-19.167 -9.166,-27.917Z" style="fill:#bdc5d1;fill-opacity:0.5;fill-rule:nonzero;"/><path d="M347.5,201.667l-29.167,-2.084l6.667,-28.75c-7.083,-6.666 -15,-12.916 -24.167,-17.5l-25,15.417l-10.833,-27.083c-5,-0.834 -10,-0.834 -15,-0.834c-5,0 -10,0.417 -15,0.834l-11.25,27.083l-25,-15.417c-8.75,4.584 -17.083,10.834 -24.167,17.5l7.084,28.334l-29.167,2.083c-4.167,8.75 -7.5,18.333 -9.167,28.333l22.5,19.167l-22.5,19.167c1.667,10 5,19.583 9.167,28.333l29.167,2.083l-6.667,28.75c7.083,6.667 15,12.917 24.167,17.5l25,-15.416l11.25,27.083c5,0.833 10,0.833 15,0.833c5,0 10,-0.416 15,-0.833l11.25,-27.083l25,15.416c8.75,-4.583 17.083,-10.833 24.166,-17.5l-7.083,-28.333l29.167,-2.083c4.166,-8.75 7.5,-18.334 9.166,-28.334l-22.5,-19.166l22.5,-19.167c-2.083,-10 -5.416,-19.583 -9.583,-28.333Z" style="fill:#f8ac07;fill-rule:nonzero;"/><path d="M416.25,248.333c0,0.417 0,1.25 0,1.667" style="fill:none;stroke:#f8ac07;stroke-width:12.5px;"/><path d="M412.917,216.667c0.833,3.75 1.666,7.916 2.083,12.083" style="fill:none;stroke:#f8ac07;stroke-width:12.5px;"/><path d="M250.833,85c69.167,0 128.75,42.5 152.917,103.333" style="fill:none;stroke:#f8ac07;stroke-width:12.5px;"/><path d="M90.833,290.833c-3.333,-12.916 -5,-26.666 -5,-40.833" style="fill:none;stroke:#f8ac07;stroke-width:12.5px;"/><path d="M250.833,415c-64.583,0 -120.416,-37.083 -147.5,-91.25" style="fill:none;stroke:#f8ac07;stroke-width:12.5px;"/><circle cx="250" cy="248.75" r="47.083" style="fill:none;stroke:#fff;stroke-width:12.5px;"/><path d="M279.167,107.917l-28.334,-22.917l32.084,-17.5" style="fill:none;stroke:#f8ac07;stroke-width:12.5px;"/><path d="M220.833,395l30,20.417l-30,20" style="fill:none;stroke:#f8ac07;stroke-width:12.5px;"/></svg>