<?xml version="1.0" encoding="UTF-8" standalone="no"?><!DOCTYPE svg PUBLIC "-//W3C//DTD SVG 1.1//EN" "http://www.w3.org/Graphics/SVG/1.1/DTD/svg11.dtd"><svg width="100%" height="100%" viewBox="0 0 500 500" version="1.1" xmlns="http://www.w3.org/2000/svg" xmlns:xlink="http://www.w3.org/1999/xlink" xml:space="preserve" xmlns:serif="http://www.serif.com/" style="fill-rule:evenodd;clip-rule:evenodd;stroke-linecap:round;stroke-linejoin:round;stroke-miterlimit:10;"><g><path d="M282.083,280.833c5.417,7.084 13.75,11.667 23.334,11.667c15.833,0 28.75,-12.917 28.75,-28.75c0,-15.833 -12.917,-28.75 -28.75,-28.75l-0.417,0c-12.5,0 -22.083,-10 -22.083,-22.083c0,-12.5 10,-22.084 22.083,-22.084c7.5,0 13.75,3.75 17.917,9.167" style="fill:none;stroke:#fcba2a;stroke-width:12.5px;"/><path d="M305,190.417l0,-12.5" style="fill:none;stroke:#fcba2a;stroke-width:12.5px;"/><path d="M305,305l0,-12.5" style="fill:none;stroke:#fcba2a;stroke-width:12.5px;"/></g><g><path d="M272.083,97.083l0,-34.166" style="fill:none;stroke:#bdc5d1;stroke-width:12.5px;"/><path d="M344.583,62.917l0,34.166" style="fill:none;stroke:#bdc5d1;stroke-width:12.5px;"/></g><path d="M246.25,3.75l124.167,0c3.333,0 5.416,3.333 4.166,6.25l-23.75,49.583c-0.833,1.667 -2.5,2.5 -4.166,2.5l-76.667,0c-1.667,0 -3.333,-0.833 -4.167,-2.5l-23.75,-49.583c-1.25,-2.917 0.834,-6.25 4.167,-6.25Z" style="fill:#fcba2a;fill-rule:nonzero;"/><path d="M422.917,367.917c5.416,-9.167 8.75,-19.584 8.75,-31.25l0,-121.667c0,-55.417 -36.667,-102.5 -87.084,-117.917l-72.5,0c-50.416,15.417 -87.083,62.5 -87.083,117.917l0,102.917" style="fill:none;stroke:#bdc5d1;stroke-width:12.5px;"/><g><path d="M320.417,48.75l10,-26.25" style="fill:none;stroke:#fff;stroke-width:12.5px;"/><path d="M296.25,48.75l-10.417,-26.25" style="fill:none;stroke:#fff;stroke-width:12.5px;"/></g><g><path d="M362.083,247.083l7.5,0" style="fill:none;stroke:#bdc5d1;stroke-width:12.5px;"/><path d="M247.083,247.083l7.084,0" style="fill:none;stroke:#bdc5d1;stroke-width:12.5px;"/></g><path d="M377.917,390.833l88.75,-24.166c10.833,-2.917 22.083,2.916 25.833,13.75c2.917,9.583 -0.833,21.25 -10.833,25.833l-172.084,86.25c-19.166,9.167 -41.25,10.417 -60,2.083l-95.416,-40.833l-42.917,0c-2.917,0 -5.417,-2.5 -5.417,-5.417l0,-33.333l272.084,-24.167Z" style="fill:#bdc5d1;fill-opacity:0.5;fill-rule:nonzero;"/><path d="M324.167,359.583l142.916,-29.583c10.834,-2.917 22.084,2.917 25.834,13.75c2.916,9.583 -0.834,21.25 -10.834,25.833l-172.083,86.25c-19.167,9.167 -41.25,10.417 -60,2.084l-95.833,-40.834l-47.917,0" style="fill:#fff;fill-rule:nonzero;stroke:#bdc5d1;stroke-width:12.5px;"/><path d="M105.417,281.25l48.333,0l101.667,31.25l59.583,0c13.75,0 25,11.25 25,25c0,12.917 -10.417,22.917 -22.917,22.917l-61.666,0c-13.334,0 -24.167,10.833 -24.167,24.166" style="fill:#fff;fill-rule:nonzero;stroke:#bdc5d1;stroke-width:12.5px;"/><path d="M7.917,434.167l90.416,0c4.167,0 7.084,-2.917 7.084,-7.084l0,-155.833c0,-4.167 -2.917,-7.083 -7.084,-7.083l-90.416,0c-4.167,0 -7.084,2.916 -7.084,7.083l0,155.417c0,3.75 2.917,7.5 7.084,7.5Z" style="fill:#fcba2a;fill-rule:nonzero;"/><path d="M57.5,328.333l0,15.834" style="fill:none;stroke:#fff;stroke-width:12.5px;"/></svg>