<?xml version="1.0" encoding="UTF-8" standalone="no"?><!DOCTYPE svg PUBLIC "-//W3C//DTD SVG 1.1//EN" "http://www.w3.org/Graphics/SVG/1.1/DTD/svg11.dtd"><svg width="100%" height="100%" viewBox="0 0 500 500" version="1.1" xmlns="http://www.w3.org/2000/svg" xmlns:xlink="http://www.w3.org/1999/xlink" xml:space="preserve" xmlns:serif="http://www.serif.com/" style="fill-rule:evenodd;clip-rule:evenodd;stroke-linecap:round;stroke-linejoin:round;stroke-miterlimit:10;"><path d="M462.083,441.667l-123.333,0" style="fill:none;stroke:#bdc5d1;stroke-width:12.5px;"/><path d="M244.583,441.667l-208.333,0" style="fill:none;stroke:#bdc5d1;stroke-width:12.5px;"/><path d="M382.083,485l-208.333,0" style="fill:none;stroke:#bdc5d1;stroke-opacity:0.5;stroke-width:12.5px;"/><path d="M228.333,262.5l-208.333,0" style="fill:none;stroke:#bdc5d1;stroke-opacity:0.5;stroke-width:12.5px;"/><path d="M161.667,307.5l-69.167,0" style="fill:none;stroke:#bdc5d1;stroke-opacity:0.5;stroke-width:12.5px;"/><path d="M316.25,344.167l-69.583,0" style="fill:none;stroke:#bdc5d1;stroke-opacity:0.5;stroke-width:12.5px;"/><path d="M57.083,307.5l-17.916,0" style="fill:none;stroke:#bdc5d1;stroke-opacity:0.5;stroke-width:12.5px;"/><path d="M128.333,231.25l-42.083,0" style="fill:none;stroke:#bdc5d1;stroke-opacity:0.5;stroke-width:12.5px;"/><path d="M467.5,485l-23.333,0" style="fill:none;stroke:#bdc5d1;stroke-opacity:0.5;stroke-width:12.5px;"/><path d="M82.917,485l-43.75,0" style="fill:none;stroke:#bdc5d1;stroke-opacity:0.5;stroke-width:12.5px;"/><path d="M338.75,201.25l-23.333,0" style="fill:none;stroke:#bdc5d1;stroke-opacity:0.5;stroke-width:12.5px;"/><path d="M492.083,398.75l-118.333,0l0,-103.333l100,0c10,0 18.333,8.333 18.333,18.333l0,85Z" style="fill:none;stroke:#bdc5d1;stroke-width:12.5px;"/><path d="M451.667,234.167l14.166,60.416" style="fill:none;stroke:#bdc5d1;stroke-width:12.5px;"/><path d="M65.833,162.917l0,-23.75l307.917,0l0,259.583l-307.917,0l0,-37.5" style="fill:none;stroke:#bdc5d1;stroke-width:12.5px;"/><circle cx="429.167" cy="398.75" r="35.833" style="fill:#00b383;"/><circle cx="429.167" cy="398.75" r="10.833" style="fill:#fff;"/><circle cx="159.583" cy="398.75" r="35.833" style="fill:#00b383;"/><circle cx="159.583" cy="398.75" r="10.833" style="fill:#fff;"/><path d="M80,29.583c-34.167,0 -61.25,27.917 -61.25,61.667c0,17.917 21.25,58.333 56.25,107.083c1.25,1.667 2.917,2.5 5,2.5c2.083,0 3.75,-0.833 5,-2.5c35,-47.916 56.667,-88.333 56.667,-107.083c0,-33.75 -27.917,-61.667 -61.667,-61.667Z" style="fill:#bdc5d1;fill-opacity:0.5;fill-rule:nonzero;"/><path d="M62.083,6.667c-34.166,0 -61.666,27.916 -61.666,61.666c0,17.917 21.25,58.334 56.25,107.084c1.25,1.666 2.916,2.5 5,2.5c2.083,0 3.75,-0.834 5,-2.5c35,-47.917 56.25,-88.334 56.25,-107.084c0.416,-33.75 -27.5,-61.666 -60.834,-61.666Z" style="fill:#00b383;fill-rule:nonzero;"/><circle cx="62.083" cy="68.75" r="28.333" style="fill:none;stroke:#fff;stroke-width:12.5px;"/><path d="M451.667,234.167l-77.917,0" style="fill:none;stroke:#bdc5d1;stroke-width:12.5px;"/></svg>