<?xml version="1.0" encoding="UTF-8" standalone="no"?><!DOCTYPE svg PUBLIC "-//W3C//DTD SVG 1.1//EN" "http://www.w3.org/Graphics/SVG/1.1/DTD/svg11.dtd"><svg width="100%" height="100%" viewBox="0 0 500 500" version="1.1" xmlns="http://www.w3.org/2000/svg" xmlns:xlink="http://www.w3.org/1999/xlink" xml:space="preserve" xmlns:serif="http://www.serif.com/" style="fill-rule:evenodd;clip-rule:evenodd;stroke-linecap:round;stroke-linejoin:round;stroke-miterlimit:10;"><circle cx="300" cy="205.417" r="130.833" style="fill:#bdc5d1;fill-opacity:0.5;"/><path d="M363.333,369.583l-38.75,-38.333" style="fill:none;stroke:#bdc5d1;stroke-width:12.5px;"/><circle cx="243.75" cy="227.917" r="130.833" style="fill:#47ceee;"/><path d="M334.583,173.333c10.417,17.5 15.417,37.917 14.584,57.917c-0.834,25.833 -11.25,51.25 -31.25,70.833c-41.25,41.25 -108.334,41.25 -150,0c-41.25,-41.25 -41.25,-108.333 0,-150c41.25,-41.25 108.333,-41.25 150,0" style="fill:none;stroke:#fff;stroke-width:12.5px;"/><path d="M358.333,323.333l25.834,25.834" style="fill:none;stroke:#bdc5d1;stroke-width:12.5px;"/><path d="M482.917,468.75c-10.834,10.833 -28.75,10.833 -39.584,0l-89.583,-89.167l39.583,-39.583l89.584,89.583c10.833,10.417 10.833,28.334 0,39.167Z" style="fill:none;stroke:#bdc5d1;stroke-width:12.5px;"/><path d="M227.083,157.917c0,0 -44.166,2.5 -52.5,47.5" style="fill:none;stroke:#fff;stroke-width:12.5px;"/><path d="M152.5,345.833l-123.333,0c-10.834,0 -20,-8.75 -20,-20l0,-280.833c0,-10.833 8.75,-20 20,-20l430,0c10.833,0 20,8.75 20,20l0,280.833c0,10.834 -8.75,20 -20,20l-34.167,0" style="fill:none;stroke:#bdc5d1;stroke-width:12.5px;"/><circle cx="146.667" cy="66.667" r="12.917" style="fill:none;stroke:#bdc5d1;stroke-opacity:0.5;stroke-width:12.5px;"/><circle cx="98.333" cy="66.667" r="12.917" style="fill:none;stroke:#bdc5d1;stroke-opacity:0.5;stroke-width:12.5px;"/><circle cx="50" cy="66.667" r="12.917" style="fill:none;stroke:#47ceee;stroke-width:12.5px;"/></svg>