<?xml version="1.0" encoding="UTF-8" standalone="no"?><!DOCTYPE svg PUBLIC "-//W3C//DTD SVG 1.1//EN" "http://www.w3.org/Graphics/SVG/1.1/DTD/svg11.dtd"><svg width="100%" height="100%" viewBox="0 0 500 500" version="1.1" xmlns="http://www.w3.org/2000/svg" xmlns:xlink="http://www.w3.org/1999/xlink" xml:space="preserve" xmlns:serif="http://www.serif.com/" style="fill-rule:evenodd;clip-rule:evenodd;stroke-linecap:round;stroke-linejoin:round;stroke-miterlimit:10;"><path d="M221.667,200.833c-2.917,-3.333 -7.5,-5.416 -12.917,-5.416c-5.417,0 -10,2.083 -12.917,5.416" style="fill:none;stroke:#bdc5d1;stroke-width:12.5px;"/><path d="M299.583,200.833c-2.916,-3.333 -7.5,-5.416 -12.916,-5.416c-5.417,0 -10,2.083 -12.917,5.416" style="fill:none;stroke:#bdc5d1;stroke-width:12.5px;"/><path d="M150.833,126.667c7.5,-47.917 47.917,-84.584 96.667,-84.584c48.75,0 89.583,36.667 97.083,84.584" style="fill:none;stroke:#00b383;stroke-width:12.5px;"/><path d="M131.25,122.083c0,-64.166 52.083,-116.25 116.25,-116.25c20.833,0 40.417,5.417 57.5,15.417c35,20 58.75,57.917 58.75,101.25" style="fill:none;stroke:#00b383;stroke-width:12.5px;"/><path d="M210,107.083c7.083,44.167 70.833,62.917 130.833,59.584" style="fill:none;stroke:#bdc5d1;stroke-width:12.5px;"/><path d="M210,107.083c0,32.917 -23.75,52.5 -55,59.584" style="fill:none;stroke:#bdc5d1;stroke-width:12.5px;"/><path d="M242.083,277.083l-110.416,-15.833l-1.25,-31.25" style="fill:none;stroke:#00b383;stroke-width:12.5px;"/><path d="M248.75,403.75l36.25,40.833c2.917,3.334 8.333,3.334 11.667,0l46.666,-50.833c2.5,-2.5 2.5,-6.25 0.834,-9.167l-21.25,-36.666" style="fill:#bdc5d1;fill-opacity:0.4;fill-rule:nonzero;"/><path d="M150.833,360l-70,43.333c-6.666,4.167 -12.5,9.584 -17.083,15.834c-7.083,10 -11.25,22.083 -11.25,34.583l0,40.417" style="fill:none;stroke:#bdc5d1;stroke-width:12.5px;"/><path d="M346.667,360l72.916,45.417c17.5,10.833 27.917,30 27.917,50.416l0,38.334" style="fill:none;stroke:#bdc5d1;stroke-width:12.5px;"/><path d="M248.75,464.583l0,29.584" style="fill:none;stroke:#bdc5d1;stroke-width:12.5px;"/><path d="M248.75,434.583l0,6.25" style="fill:none;stroke:#bdc5d1;stroke-width:12.5px;"/><path d="M346.25,225.417c0,0.416 0,0.416 0,0.833c-5.417,40.833 -28.333,82.917 -67.5,99.167c-38.333,15.833 -78.75,-0.834 -102.917,-32.5" style="fill:none;stroke:#bdc5d1;stroke-width:12.5px;"/><path d="M248.75,403.75l-36.25,40.833c-2.917,3.334 -8.333,3.334 -11.667,0l-46.25,-50.833c-2.5,-2.5 -2.5,-6.25 -0.833,-9.167l21.25,-36.666" style="fill:#bdc5d1;fill-opacity:0.4;fill-rule:nonzero;"/><path d="M130,230l-3.333,0c-13.334,0 -24.167,-10.833 -24.167,-24.167l0,-59.583c0,-13.333 10.833,-24.167 24.167,-24.167l3.333,0c13.333,0 24.167,10.834 24.167,24.167l0,59.583c0,12.917 -10.834,24.167 -24.167,24.167Z" style="fill:#fff;fill-rule:nonzero;stroke:#00b383;stroke-width:12.5px;"/><path d="M368.75,230l-3.333,0c-13.334,0 -24.167,-10.833 -24.167,-24.167l0,-59.583c0,-13.333 10.833,-24.167 24.167,-24.167l3.333,0c13.333,0 24.167,10.834 24.167,24.167l0,59.167c0,13.333 -10.834,24.583 -24.167,24.583Z" style="fill:#fff;fill-rule:nonzero;stroke:#00b383;stroke-width:12.5px;"/><path d="M307.5,306.667l0,25" style="fill:none;stroke:#bdc5d1;stroke-width:12.5px;"/><path d="M192.5,310.417l0,22.916" style="fill:none;stroke:#bdc5d1;stroke-width:12.5px;"/><path d="M248.75,375.833l42.083,47.5l56.667,-61.666l-24.583,-41.667" style="fill:#00b383;fill-rule:nonzero;"/><path d="M248.75,375.833l-41.667,47.5l-56.666,-61.666l24.166,-41.667" style="fill:#00b383;fill-rule:nonzero;"/><path d="M322.917,320l-74.167,55.833" style="fill:#377dff;fill-rule:nonzero;stroke:#00b383;stroke-width:12.5px;"/><path d="M174.583,320l74.167,55.833" style="fill:#377dff;fill-rule:nonzero;stroke:#00b383;stroke-width:12.5px;"/></svg>