<?xml version="1.0" encoding="UTF-8" standalone="no"?><!DOCTYPE svg PUBLIC "-//W3C//DTD SVG 1.1//EN" "http://www.w3.org/Graphics/SVG/1.1/DTD/svg11.dtd"><svg width="100%" height="100%" viewBox="0 0 500 500" version="1.1" xmlns="http://www.w3.org/2000/svg" xmlns:xlink="http://www.w3.org/1999/xlink" xml:space="preserve" xmlns:serif="http://www.serif.com/" style="fill-rule:evenodd;clip-rule:evenodd;stroke-linecap:round;stroke-linejoin:round;stroke-miterlimit:10;"><path d="M115.833,154.583c0,6.25 -5.416,11.667 -11.666,11.667c-6.25,0 -11.667,-5 -11.667,-11.667c0,-6.25 5.417,-11.666 11.667,-11.666c6.666,0 11.666,5 11.666,11.666Z" style="fill:none;stroke:#e65ea0;stroke-width:12.5px;"/><path d="M170.833,154.583c0,6.25 -5,11.667 -11.666,11.667c-6.25,0 -11.667,-5 -11.667,-11.667c0,-6.25 5,-11.666 11.667,-11.666c6.666,0 11.666,5 11.666,11.666Z" style="fill:none;stroke:#bdc5d1;stroke-opacity:0.5;stroke-width:12.5px;"/><path d="M225.833,154.583c0,6.25 -5.416,11.667 -11.666,11.667c-6.25,0 -11.667,-5 -11.667,-11.667c0,-6.25 5.417,-11.666 11.667,-11.666c6.666,0 11.666,5 11.666,11.666Z" style="fill:none;stroke:#bdc5d1;stroke-opacity:0.5;stroke-width:12.5px;"/><path d="M440.833,257.083c3.334,5.834 5.834,12.084 7.917,18.75" style="fill:none;stroke:#bdc5d1;stroke-opacity:0.5;stroke-width:12.5px;"/><path d="M320,200c40.417,-7.5 80.417,7.083 105.833,35.833" style="fill:none;stroke:#bdc5d1;stroke-opacity:0.5;stroke-width:12.5px;"/><path d="M300.833,171.667c10,-74.584 -40,-145 -115,-159.167c-77.5,-15 -152.5,36.25 -167.083,113.75c-7.5,40 2.5,79.167 24.167,110l-20.834,62.917l67.084,-21.667c13.333,7.5 27.916,12.917 43.333,15.833c22.917,4.167 45.417,2.917 66.25,-3.333" style="fill:none;stroke:#bdc5d1;stroke-opacity:0.5;stroke-width:12.5px;"/><path d="M309.583,210.417c77.5,-14.584 152.5,36.25 167.084,113.75c7.5,40 -2.5,79.166 -24.167,110l21.25,62.916l-67.083,-21.666c-13.334,7.5 -27.917,12.916 -43.334,15.833c-77.5,14.583 -152.5,-36.25 -167.083,-113.75c-15.417,-77.5 35.833,-152.083 113.333,-167.083Z" style="fill:#bdc5d1;fill-opacity:0.5;fill-rule:nonzero;"/><path d="M314.167,168.333c77.5,-14.583 152.5,36.25 167.083,113.75c7.5,40 -2.5,79.167 -24.167,110l21.25,62.917l-67.083,-21.667c-13.333,7.5 -27.917,12.917 -43.333,15.834c-77.5,14.583 -152.5,-36.25 -167.084,-113.75c-15.416,-77.5 35.834,-152.084 113.334,-167.084Z" style="fill:#e65ea0;fill-rule:nonzero;"/><circle cx="395.833" cy="310.417" r="11.667" style="fill:none;stroke:#fff;stroke-opacity:0.5;stroke-width:12.5px;"/><circle cx="340.833" cy="310.417" r="11.667" style="fill:none;stroke:#fff;stroke-opacity:0.5;stroke-width:12.5px;"/><circle cx="285.833" cy="310.417" r="11.667" style="fill:none;stroke:#fff;stroke-width:12.5px;"/></svg>