<?xml version="1.0" encoding="UTF-8" standalone="no"?><!DOCTYPE svg PUBLIC "-//W3C//DTD SVG 1.1//EN" "http://www.w3.org/Graphics/SVG/1.1/DTD/svg11.dtd"><svg width="100%" height="100%" viewBox="0 0 500 500" version="1.1" xmlns="http://www.w3.org/2000/svg" xmlns:xlink="http://www.w3.org/1999/xlink" xml:space="preserve" xmlns:serif="http://www.serif.com/" style="fill-rule:evenodd;clip-rule:evenodd;stroke-linecap:round;stroke-linejoin:round;stroke-miterlimit:10;"><path d="M297.083,325.417l109.584,0l12.5,30l-135,0l12.916,-30Z" style="fill:none;stroke:#bdc5d1;stroke-width:12.5px;"/><g><g opacity="0.5"><path d="M383.333,76.667l50.417,0c12.917,0 22.917,10.416 22.917,22.916l0,267.5" style="fill:none;stroke:#bdc5d1;stroke-width:12.5px;"/><path d="M210,402.917l-180.417,0c-12.916,0 -22.916,-10.417 -22.916,-22.917l0,-280.417c0,-12.916 10.416,-22.916 22.916,-22.916l159.584,0" style="fill:none;stroke:#bdc5d1;stroke-width:12.5px;"/><path d="M6.25,332.5l269.583,0" style="fill:none;stroke:#bdc5d1;stroke-width:12.5px;"/><path d="M425,332.5l29.167,0" style="fill:none;stroke:#bdc5d1;stroke-width:12.5px;"/><path d="M175,402.917l-13.333,63.333" style="fill:none;stroke:#bdc5d1;stroke-width:12.5px;"/><path d="M210,466.25l-94.167,0" style="fill:none;stroke:#bdc5d1;stroke-width:12.5px;"/></g></g><g><path d="M177.083,188.75c1.667,-5.417 2.5,-11.25 2.5,-17.5c0,-28.75 -20.833,-50 -46.25,-50c-25.416,0 -45.833,21.667 -45.833,50.417c0,6.25 0.833,12.083 2.5,17.5c-3.75,2.5 -5.833,6.666 -5.833,11.25c0,6.25 4.166,11.25 9.583,12.916c6.667,19.584 22.083,33.75 40,33.75c17.917,0 33.333,-13.75 40,-33.75c5.417,-2.083 9.583,-7.083 9.583,-13.333c0,-4.583 -2.5,-8.75 -6.25,-11.25Z" style="fill:none;stroke:#bdc5d1;stroke-width:12.5px;"/><path d="M165.833,169.167c-1.25,-5.417 -5,-5.417 -9.583,-5.417c-1.667,0 -2.5,-12.083 -2.5,-12.083c0,0 -5,0 -13.333,7.5c-17.5,15.416 -36.667,3.333 -36.667,3.333" style="fill:none;stroke:#bdc5d1;stroke-width:12.5px;"/><g><path d="M173.75,267.083l43.75,18.334c7.917,4.166 11.25,12.083 11.25,20.416l0,25" style="fill:none;stroke:#bdc5d1;stroke-width:12.5px;"/><path d="M134.167,273.333l17.083,19.167l22.917,-24.583l-10,-17.084" style="fill:none;stroke:#c344ff;stroke-width:12.5px;"/><path d="M94.583,267.083l-42.916,17.5c-2.917,1.667 -5,3.75 -6.667,6.25c-2.917,4.167 -4.583,8.75 -4.583,14.167l0,25.833" style="fill:none;stroke:#bdc5d1;stroke-width:12.5px;"/><path d="M134.167,273.333l-16.667,19.167l-22.917,-24.583l9.584,-17.084" style="fill:none;stroke:#c344ff;stroke-width:12.5px;"/><path d="M164.167,250.833l-30,22.5" style="fill:none;stroke:#c344ff;stroke-width:12.5px;"/><path d="M104.167,250.833l30,22.5" style="fill:none;stroke:#c344ff;stroke-width:12.5px;"/></g></g><path d="M262.917,457.5l0,34.167" style="fill:none;stroke:#bdc5d1;stroke-width:12.5px;"/><path d="M444.583,457.5l0,34.167" style="fill:none;stroke:#bdc5d1;stroke-width:12.5px;"/><g><path d="M376.25,325.417l0,-8.75c15.417,-8.334 27.5,-24.167 34.167,-43.75c8.333,-2.5 14.583,-10 14.583,-19.584c0,-7.083 -3.75,-13.333 -8.75,-17.083c2.5,-8.333 4.167,-17.083 4.167,-25.833c0,-43.334 -31.25,-75.417 -69.584,-75.417c-38.333,0 -69.583,32.5 -69.583,75.417c0,9.166 1.25,17.916 4.167,25.833c-5.417,3.75 -8.75,10 -8.75,17.083c0,9.167 6.25,17.084 14.583,19.584c6.667,19.583 18.75,35.416 34.167,43.75l0,8.75" style="fill:none;stroke:#bdc5d1;stroke-width:12.5px;"/><path d="M493.75,491.667l0,-82.5l0,-2.5c0,-12.5 -5,-24.584 -17.083,-30.834l-57.084,-20.833l0,0.417" style="fill:none;stroke:#bdc5d1;stroke-width:12.5px;"/><path d="M285,353.75l-57.917,20.833c-4.166,2.5 -7.5,5.834 -10.416,9.584c-4.167,6.25 -6.667,13.333 -6.667,21.25l0,86.25" style="fill:none;stroke:#bdc5d1;stroke-width:12.5px;"/></g><path d="M405.417,417.5l-47.5,47.5" style="fill:none;stroke:#bdc5d1;stroke-opacity:0.5;stroke-width:12.5px;"/><path d="M400,452.083l-15.833,15.834" style="fill:none;stroke:#bdc5d1;stroke-opacity:0.5;stroke-width:12.5px;"/><path d="M416.25,236.667c-5,14.583 -20,27.916 -29.167,35c-1.25,0.833 -10,-10.417 -10,-10.417c0,0 -5.416,20 -8.333,20.833c-26.667,10 -59.583,-2.5 -83.75,-45.833" style="fill:none;stroke:#bdc5d1;stroke-width:12.5px;"/><g><path d="M363.333,31.25l-158.333,0c-10,0 -17.917,7.917 -17.917,17.917l0,59.583c0,10 7.917,17.917 17.917,17.917l15,0l0,29.166l46.25,-29.166l97.083,0c10,0 17.917,-7.917 17.917,-17.917l0,-59.583c0,-10 -7.917,-17.917 -17.917,-17.917Z" style="fill:#bdc5d1;fill-opacity:0.5;fill-rule:nonzero;"/><path d="M339.167,8.333l-158.334,0c-10,0 -17.916,7.917 -17.916,17.917l0,59.583c0,10 7.916,17.917 17.916,17.917l15,0l0,29.167l46.25,-29.167l97.084,0c10,0 17.916,-7.917 17.916,-17.917l0,-59.583c0,-10 -7.916,-17.917 -17.916,-17.917Z" style="fill:#c344ff;fill-rule:nonzero;"/><g><path d="M307.917,42.917l-95.834,0" style="fill:none;stroke:#fff;stroke-width:12.5px;"/><path d="M234.167,68.75l-22.084,0" style="fill:none;stroke:#fff;stroke-width:12.5px;"/></g></g></svg>