<?xml version="1.0" encoding="UTF-8" standalone="no"?><!DOCTYPE svg PUBLIC "-//W3C//DTD SVG 1.1//EN" "http://www.w3.org/Graphics/SVG/1.1/DTD/svg11.dtd"><svg width="100%" height="100%" viewBox="0 0 500 500" version="1.1" xmlns="http://www.w3.org/2000/svg" xmlns:xlink="http://www.w3.org/1999/xlink" xml:space="preserve" xmlns:serif="http://www.serif.com/" style="fill-rule:evenodd;clip-rule:evenodd;stroke-linecap:round;stroke-linejoin:round;stroke-miterlimit:10;"><circle cx="270.833" cy="270.833" r="229.167" style="fill:#bdc5d1;fill-opacity:0.4;"/><circle cx="229.583" cy="229.583" r="221.25" style="fill:#fff;stroke:#bdc5d1;stroke-width:12.5px;"/><path d="M417.917,229.583c0,103.75 -84.167,188.334 -188.334,188.334" style="fill:none;stroke:#bdc5d1;stroke-opacity:0.5;stroke-width:12.5px;"/><path d="M181.25,47.917c7.917,-2.084 15.417,-3.75 23.75,-4.584" style="fill:none;stroke:#00b4ab;stroke-width:12.5px;"/><path d="M78.333,118.333c18.75,-25.416 44.167,-46.25 73.334,-59.583" style="fill:none;stroke:#00b4ab;stroke-width:12.5px;"/><path d="M200,156.667l150,86.666c7.917,4.584 7.917,15.834 0,20l-150,86.667c-7.917,4.583 -17.5,-1.25 -17.5,-10l0,-173.333c0,-9.167 9.583,-14.584 17.5,-10Z" style="fill:#bdc5d1;fill-opacity:0.5;fill-rule:nonzero;"/><path d="M167.917,124.583l150,86.667c7.916,4.583 7.916,15.833 0,20l-150,86.667c-7.917,4.583 -17.5,-1.25 -17.5,-10l0,-173.334c0,-8.75 9.583,-14.583 17.5,-10Z" style="fill:#00b4ab;fill-rule:nonzero;"/><path d="M210,199.167l32.5,18.75c2.5,1.666 2.5,5 0,6.666l-32.5,18.75c-2.5,1.667 -5.833,-0.416 -5.833,-3.333l0,-37.5c0.416,-2.917 3.333,-4.583 5.833,-3.333Z" style="fill:#fff;fill-rule:nonzero;"/></svg>