<?xml version="1.0" encoding="UTF-8" standalone="no"?><!DOCTYPE svg PUBLIC "-//W3C//DTD SVG 1.1//EN" "http://www.w3.org/Graphics/SVG/1.1/DTD/svg11.dtd"><svg width="100%" height="100%" viewBox="0 0 500 500" version="1.1" xmlns="http://www.w3.org/2000/svg" xmlns:xlink="http://www.w3.org/1999/xlink" xml:space="preserve" xmlns:serif="http://www.serif.com/" style="fill-rule:evenodd;clip-rule:evenodd;stroke-linecap:round;stroke-linejoin:round;stroke-miterlimit:10;"><path d="M500,365.417l0,-255l-460.833,0l0,341.25l374.583,0l86.25,-86.25Z" style="fill:#bdc5d1;fill-opacity:0.5;fill-rule:nonzero;"/><path d="M469.167,322.5l0,-254.583l-460.834,0l0,341.25l374.584,0" style="fill:#fff;fill-rule:nonzero;stroke:#bdc5d1;stroke-width:12.5px;"/><path d="M420,351.667l-358.333,0c-3.334,0 -6.25,-2.917 -6.25,-6.25l0,-155.834c0,-3.333 2.916,-6.25 6.25,-6.25l358.333,0c3.333,0 6.25,2.917 6.25,6.25l0,156.25c0,3.334 -2.917,5.834 -6.25,5.834Z" style="fill:#c344ff;fill-rule:nonzero;"/><path d="M382.917,322.5l86.25,0l-86.25,86.667l0,-86.667Z" style="fill:#fff;fill-rule:nonzero;stroke:#bdc5d1;stroke-width:12.5px;"/><g><g><path d="M71.25,45l0,47.083" style="fill:none;stroke:#bdc5d1;stroke-width:12.5px;"/><path d="M61.667,101.667c0,-5.417 4.166,-9.584 9.583,-9.584c5.417,0 9.583,4.167 9.583,9.584c0,5.416 -4.166,9.583 -9.583,9.583c-5.417,0 -9.583,-4.167 -9.583,-9.583Z" style="fill:none;stroke:#c344ff;stroke-width:12.5px;"/></g><g><path d="M155,45l0,47.083" style="fill:none;stroke:#bdc5d1;stroke-width:12.5px;"/><path d="M145.417,101.667c0,-5.417 4.166,-9.584 9.583,-9.584c5.417,0 9.583,4.167 9.583,9.584c0,5.416 -4.166,9.583 -9.583,9.583c-5,0 -9.583,-4.167 -9.583,-9.583Z" style="fill:none;stroke:#c344ff;stroke-width:12.5px;"/></g><g><path d="M238.75,45l0,47.083" style="fill:none;stroke:#bdc5d1;stroke-width:12.5px;"/><path d="M229.167,101.667c0,-5.417 4.166,-9.584 9.583,-9.584c5.417,0 9.583,4.167 9.583,9.584c0,5.416 -4.166,9.583 -9.583,9.583c-5,0 -9.583,-4.167 -9.583,-9.583Z" style="fill:none;stroke:#c344ff;stroke-width:12.5px;"/></g><g><path d="M322.5,45l0,47.083" style="fill:none;stroke:#bdc5d1;stroke-width:12.5px;"/><path d="M312.917,101.667c0,-5.417 4.166,-9.584 9.583,-9.584c5.417,0 9.583,4.167 9.583,9.584c0,5.416 -4.166,9.583 -9.583,9.583c-5,0 -9.583,-4.167 -9.583,-9.583Z" style="fill:none;stroke:#c344ff;stroke-width:12.5px;"/></g><g><path d="M406.25,45l0,47.083" style="fill:none;stroke:#bdc5d1;stroke-width:12.5px;"/><path d="M396.667,101.667c0,-5.417 4.166,-9.584 9.583,-9.584c5.417,0 9.583,4.167 9.583,9.584c0,5.416 -4.166,9.583 -9.583,9.583c-5,0 -9.583,-4.167 -9.583,-9.583Z" style="fill:none;stroke:#c344ff;stroke-width:12.5px;"/></g></g><path d="M469.167,137.083l-460,0" style="fill:none;stroke:#bdc5d1;stroke-width:12.5px;"/><path d="M419.167,242.083l-356.667,0" style="fill:none;stroke:#fff;stroke-opacity:0.5;stroke-width:12.5px;"/><path d="M419.167,293.333l-356.667,0" style="fill:none;stroke:#fff;stroke-opacity:0.5;stroke-width:12.5px;"/><path d="M133.75,190.417l0,154.583" style="fill:none;stroke:#fff;stroke-opacity:0.5;stroke-width:12.5px;"/><path d="M205,190.417l0,154.583" style="fill:none;stroke:#fff;stroke-opacity:0.5;stroke-width:12.5px;"/><path d="M276.667,190.417l0,154.583" style="fill:none;stroke:#fff;stroke-opacity:0.5;stroke-width:12.5px;"/><path d="M347.917,190.417l0,154.583" style="fill:none;stroke:#fff;stroke-opacity:0.5;stroke-width:12.5px;"/><path d="M367.5,266.667l11.667,14.166l20.416,-25.833" style="fill:none;stroke:#fff;stroke-width:12.5px;"/><path d="M297.083,266.667l11.25,14.166l20.834,-25.833" style="fill:none;stroke:#fff;stroke-width:12.5px;"/><path d="M156.25,317.917l11.667,14.166l20.416,-25.833" style="fill:none;stroke:#fff;stroke-width:12.5px;"/><path d="M224.583,317.917l11.667,14.166l20.417,-25.833" style="fill:none;stroke:#fff;stroke-width:12.5px;"/><path d="M85.833,317.917l11.25,14.166l20.834,-25.833" style="fill:none;stroke:#fff;stroke-width:12.5px;"/></svg>