<?xml version="1.0" encoding="UTF-8" standalone="no"?><!DOCTYPE svg PUBLIC "-//W3C//DTD SVG 1.1//EN" "http://www.w3.org/Graphics/SVG/1.1/DTD/svg11.dtd"><svg width="100%" height="100%" viewBox="0 0 500 500" version="1.1" xmlns="http://www.w3.org/2000/svg" xmlns:xlink="http://www.w3.org/1999/xlink" xml:space="preserve" xmlns:serif="http://www.serif.com/" style="fill-rule:evenodd;clip-rule:evenodd;stroke-linecap:round;stroke-linejoin:round;stroke-miterlimit:10;"><path d="M59.583,311.667l0,-207.5c0,-9.584 7.917,-17.5 17.5,-17.5l351.25,0c9.584,0 17.5,7.916 17.5,17.5l0,207.916" style="fill:none;stroke:#bdc5d1;stroke-width:12.5px;"/><path d="M86.25,312.917l0,-197.5l333.333,0l0,130.416" style="fill:none;stroke:#bdc5d1;stroke-width:12.5px;"/><path d="M430.417,346.25l17.916,0c22.084,0 45,-33.333 45,-33.333l-63.333,0" style="fill:none;stroke:#bdc5d1;stroke-width:12.5px;"/><path d="M254.583,322.917l-56.666,0l0,-10l-191.667,0c0,0 27.083,33.333 50.833,33.333l200,0" style="fill:none;stroke:#bdc5d1;stroke-width:12.5px;"/><path d="M312.917,265l0,-25.833c0,-17.084 13.75,-30.834 30.833,-30.834c17.083,0 30.833,13.75 30.833,30.834l0,25.833" style="fill:none;stroke:#e65ea0;stroke-width:12.5px;"/><path d="M290.833,265l0,-27.083c0,-29.167 23.75,-52.917 52.917,-52.917c29.167,0 52.917,23.75 52.917,52.917l0,27.083" style="fill:none;stroke:#e65ea0;stroke-width:12.5px;"/><path d="M413.333,413.75l-139.166,0c-9.584,0 -17.5,-7.917 -17.5,-17.5l0,-113.75c0,-9.583 7.916,-17.5 17.5,-17.5l139.166,0c9.584,0 17.5,7.917 17.5,17.5l0,113.75c-0.416,9.583 -7.916,17.5 -17.5,17.5Z" style="fill:none;stroke:#e65ea0;stroke-width:12.5px;"/><circle cx="362.083" cy="354.167" r="49.167" style="fill:#bdc5d1;fill-opacity:0.5;"/><circle cx="343.75" cy="339.583" r="49.167" style="fill:#e65ea0;"/><path d="M331.25,336.667l20,20.416l56.25,-56.25" style="fill:none;stroke:#fff;stroke-opacity:0.15;stroke-width:12.5px;"/><path d="M323.75,333.75l20,20.417l56.25,-56.25" style="fill:none;stroke:#fff;stroke-width:12.5px;"/></svg>