<?xml version="1.0" encoding="UTF-8" standalone="no"?><!DOCTYPE svg PUBLIC "-//W3C//DTD SVG 1.1//EN" "http://www.w3.org/Graphics/SVG/1.1/DTD/svg11.dtd"><svg width="100%" height="100%" viewBox="0 0 500 500" version="1.1" xmlns="http://www.w3.org/2000/svg" xmlns:xlink="http://www.w3.org/1999/xlink" xml:space="preserve" xmlns:serif="http://www.serif.com/" style="fill-rule:evenodd;clip-rule:evenodd;stroke-linecap:round;stroke-linejoin:round;stroke-miterlimit:10;"><rect x="425.833" y="62.5" width="39.583" height="437.5" style="fill:#bdc5d1;fill-opacity:0.5;"/><path d="M81.25,460l0,-409.167c0,-24.583 20,-44.583 44.583,-44.583l293.334,0l0,419.583l-304.167,0c-18.75,0 -33.75,15.417 -33.75,34.167c0,18.75 15,33.75 33.75,33.75l303.75,0" style="fill:none;stroke:#bdc5d1;stroke-width:12.5px;"/><path d="M418.75,448.333l-296.25,0" style="fill:none;stroke:#bdc5d1;stroke-width:12.5px;"/><path d="M418.75,471.25l-296.25,0" style="fill:none;stroke:#bdc5d1;stroke-width:12.5px;"/><rect x="145" y="51.667" width="227.083" height="328.75" style="fill:#fcb720;"/><path d="M240.417,160l41.25,0" style="fill:none;stroke:#fff;stroke-width:12.5px;"/><path d="M203.75,193.333l114.583,0" style="fill:none;stroke:#fff;stroke-width:12.5px;"/><path d="M203.75,227.083l114.583,0" style="fill:none;stroke:#fff;stroke-width:12.5px;"/><path d="M203.75,260.833l114.583,0" style="fill:none;stroke:#fff;stroke-width:12.5px;"/></svg>