<?xml version="1.0" encoding="UTF-8" standalone="no"?><!DOCTYPE svg PUBLIC "-//W3C//DTD SVG 1.1//EN" "http://www.w3.org/Graphics/SVG/1.1/DTD/svg11.dtd"><svg width="100%" height="100%" viewBox="0 0 1646 416" version="1.1" xmlns="http://www.w3.org/2000/svg" xmlns:xlink="http://www.w3.org/1999/xlink" xml:space="preserve" xmlns:serif="http://www.serif.com/" style="fill-rule:evenodd;clip-rule:evenodd;stroke-linejoin:round;stroke-miterlimit:1.41421;"><g><g><ellipse cx="203.346" cy="207.819" rx="203.346" ry="207.819" style="fill:url(#_Linear1);"/><g><path d="M299.13,149.855c2.054,-10.684 -4.975,-20.891 -15.688,-22.78c-10.713,-1.889 -21.078,5.251 -23.132,15.935l-23.608,122.774c-2.054,10.683 4.976,20.89 15.689,22.779c10.712,1.889 21.078,-5.251 23.132,-15.934l23.607,-122.774Z" style="fill:#fff;"/><path d="M235.173,149.855c2.054,-10.684 -4.976,-20.891 -15.688,-22.78c-10.713,-1.889 -21.078,5.251 -23.133,15.935l-23.607,122.774c-2.054,10.683 4.976,20.89 15.688,22.779c10.713,1.889 21.078,-5.251 23.133,-15.934l23.607,-122.774Z" style="fill:#fff;"/><path d="M171.216,149.855c2.054,-10.684 -4.976,-20.891 -15.689,-22.78c-10.712,-1.889 -21.078,5.251 -23.132,15.935l-23.607,122.774c-2.054,10.683 4.975,20.89 15.688,22.779c10.713,1.889 21.078,-5.251 23.132,-15.934l23.608,-122.774Z" style="fill:#fff;"/><ellipse cx="321.636" cy="137.27" rx="10.548" ry="10.499" style="fill:#fff9f9;"/><ellipse cx="85.057" cy="278.368" rx="10.548" ry="10.499" style="fill:#fff9f9;"/></g></g></g><g><g transform="matrix(5.96581,0,0,5.96581,-32841.6,-7343.63)"><text x="5582.85px" y="1271.06px" style="font-family:'Graphik-Regular', 'Graphik', sans-serif;font-size:50px;fill:#63cee7;">m</text><text x="5626.35px" y="1271.06px" style="font-family:'Graphik-Regular', 'Graphik', sans-serif;font-size:50px;fill:#e65ea0;">o</text><text x="5654.55px" y="1271.06px" style="font-family:'Graphik-Regular', 'Graphik', sans-serif;font-size:50px;fill:#00b383;">n</text><text x="5682.45px" y="1271.06px" style="font-family:'Graphik-Regular', 'Graphik', sans-serif;font-size:50px;fill:#f7d71b;">g</text><text x="5711.8px" y="1271.06px" style="font-family:'Graphik-Regular', 'Graphik', sans-serif;font-size:50px;fill:#c344ff;">r</text><text x="5727.85px" y="1271.06px" style="font-family:'Graphik-Regular', 'Graphik', sans-serif;font-size:50px;fill:#00b4ab;">o</text><text x="5755.3px" y="1271.06px" style="font-family:'Graphik-Regular', 'Graphik', sans-serif;font-size:50px;fill:#ff62af;">v</text></g><text x="480.269px" y="334.209px" style="font-family:'Graphik-Regular', 'Graphik', sans-serif;font-size:94.967px;fill:#4d70d8;">f<tspan x="511.038px 568.683px 604.676px 630.127px 675.996px 730.413px 787.488px 845.133px 902.778px 927.375px " y="334.209px 334.209px 334.209px 334.209px 334.209px 334.209px 334.209px 334.209px 334.209px 334.209px ">or schools</tspan></text></g><defs><linearGradient id="_Linear1" x1="0" y1="0" x2="1" y2="0" gradientUnits="userSpaceOnUse" gradientTransform="matrix(2.49027e-14,415.638,-406.692,2.54505e-14,203.346,2.27374e-13)"><stop offset="0" style="stop-color:#fcba2a;stop-opacity:1"/><stop offset="1" style="stop-color:#fd8948;stop-opacity:1"/></linearGradient></defs></svg>