<?xml version="1.0" encoding="UTF-8" standalone="no"?><!DOCTYPE svg PUBLIC "-//W3C//DTD SVG 1.1//EN" "http://www.w3.org/Graphics/SVG/1.1/DTD/svg11.dtd"><svg width="100%" height="100%" viewBox="0 0 1945 1930" version="1.1" xmlns="http://www.w3.org/2000/svg" xmlns:xlink="http://www.w3.org/1999/xlink" xml:space="preserve" xmlns:serif="http://www.serif.com/" style="fill-rule:evenodd;clip-rule:evenodd;stroke-linejoin:round;stroke-miterlimit:1.41421;"><rect x="1657.31" y="437.275" width="287.112" height="299.292" style="fill:#e1e1e1;"/><rect x="1637.87" y="437.275" width="287.108" height="299.292" style="fill:#fafafa;"/><path d="M1637.96,736.475l286.929,0l0,-299.112l-286.929,0l0,299.112Zm287.112,0.179l-287.287,0l0,-299.467l287.287,0l0,299.467Z" style="fill:#e1e1e1;fill-rule:nonzero;"/><rect x="1676.46" y="477.508" width="209.921" height="218.821" style="fill:#fff;"/><path d="M1676.47,697.787c0.167,0.196 -1.825,2.483 -5.179,6.021c-3.354,3.537 -8.067,8.325 -13.342,13.529c-5.287,5.2 -10.137,9.838 -13.716,13.125c-3.584,3.292 -5.884,5.238 -6.067,5.054c-0.179,-0.183 1.8,-2.458 5.154,-5.996c3.35,-3.537 8.071,-8.337 13.371,-13.554c5.296,-5.216 10.158,-9.862 13.742,-13.15c3.579,-3.291 5.871,-5.225 6.037,-5.029" style="fill:#e1e1e1;fill-rule:nonzero;"/><path d="M1886.39,697.248c0.196,-0.167 2.487,1.829 6.021,5.179c3.537,3.354 8.325,8.067 13.529,13.346c5.2,5.279 9.837,10.133 13.129,13.712c3.287,3.58 5.233,5.888 5.054,6.067c-0.183,0.183 -2.462,-1.8 -6.004,-5.15c-3.533,-3.354 -8.333,-8.075 -13.554,-13.375c-5.213,-5.296 -9.859,-10.158 -13.146,-13.737c-3.292,-3.58 -5.225,-5.875 -5.029,-6.042" style="fill:#e1e1e1;fill-rule:nonzero;"/><path d="M1885.81,478.093c-0.167,-0.196 1.825,-2.488 5.179,-6.025c3.354,-3.538 8.063,-8.325 13.342,-13.525c5.283,-5.204 10.137,-9.838 13.712,-13.129c3.584,-3.288 5.888,-5.234 6.071,-5.054c0.179,0.183 -1.8,2.462 -5.154,6c-3.354,3.537 -8.071,8.337 -13.371,13.554c-5.296,5.216 -10.158,9.858 -13.742,13.15c-3.579,3.291 -5.875,5.225 -6.037,5.029" style="fill:#e1e1e1;fill-rule:nonzero;"/><path d="M1675.89,478.63c-0.196,0.167 -2.488,-1.829 -6.021,-5.183c-3.542,-3.35 -8.325,-8.063 -13.529,-13.342c-5.205,-5.283 -9.842,-10.133 -13.13,-13.713c-3.287,-3.583 -5.237,-5.887 -5.054,-6.066c0.184,-0.184 2.463,1.796 6,5.15c3.538,3.354 8.338,8.075 13.554,13.375c5.217,5.296 9.863,10.158 13.15,13.737c3.292,3.579 5.225,5.875 5.03,6.042" style="fill:#e1e1e1;fill-rule:nonzero;"/><path d="M1885.81,696.33c-0.017,-0.012 -0.033,-0.37 -0.046,-1.062c-0.012,-0.746 -0.029,-1.75 -0.046,-3.054c-0.021,-2.742 -0.054,-6.688 -0.096,-11.813c-0.05,-10.366 -0.12,-25.446 -0.212,-44.596c-0.1,-38.329 -0.238,-92.925 -0.408,-158.295l0.808,0.808c-61.113,0.037 -132.879,0.075 -209.325,0.121l-0.021,0l0.929,-0.929c-0.046,80.316 -0.091,155.454 -0.133,218.82l-0.796,-0.795c62.729,0.166 114.963,0.308 151.579,0.404c18.292,0.091 32.684,0.162 42.575,0.212c4.884,0.038 8.65,0.071 11.267,0.092c1.237,0.017 2.196,0.033 2.908,0.042c0.659,0.016 1,0.033 1.017,0.045c0.012,0.017 -0.296,0.03 -0.929,0.046c-0.692,0.013 -1.617,0.025 -2.821,0.042c-2.588,0.025 -6.292,0.054 -11.113,0.096c-9.85,0.046 -24.179,0.116 -42.395,0.208c-36.742,0.096 -89.146,0.238 -152.088,0.408l-0.8,0l0,-0.8c-0.033,-63.366 -0.083,-138.504 -0.129,-218.82l-0.004,-0.93l0.954,0c76.446,0.042 148.212,0.084 209.325,0.121l0.808,0l0,0.809c-0.171,65.587 -0.312,120.362 -0.408,158.812c-0.096,19.071 -0.163,34.092 -0.217,44.413c-0.041,5.058 -0.071,8.95 -0.096,11.658c-0.016,1.262 -0.029,2.242 -0.041,2.967c-0.017,0.658 -0.034,0.987 -0.046,0.97" style="fill:#e1e1e1;fill-rule:nonzero;"/><path d="M1776.26,590.839l-10.309,-23.129l-9.704,23.387l20.013,-0.258Zm4.737,10.613l-29.3,0.379l-5.417,13.091l-14.966,0.192l27.337,-61.108l14.421,-0.188l29.004,60.379l-15.321,0.2l-5.758,-12.945Z" style="fill:#e1e1e1;fill-rule:nonzero;"/><path d="M1829.7,603.887l-0.067,-4.955l-10.291,0.134c-6.609,0.087 -8.454,2.587 -8.417,5.6c0.05,3.55 3.138,5.716 8.217,5.65c5.004,-0.063 8.941,-2.325 10.558,-6.429m6.538,-10.663l0.279,21.421l-6.334,0.083l-0.058,-4.687c-2.183,3.241 -6.258,5.171 -12.033,5.246c-8.346,0.108 -13.684,-4.109 -13.767,-10.267c-0.071,-5.692 3.692,-10.425 14.679,-10.567l10.571,-0.137l-0.017,-1.275c-0.07,-5.421 -3.383,-8.525 -9.987,-8.438c-4.379,0.054 -8.817,1.584 -11.633,3.967l-2.842,-4.783c3.779,-2.996 9.254,-4.675 15.167,-4.75c10.083,-0.134 15.85,4.479 15.975,14.187" style="fill:#e1e1e1;fill-rule:nonzero;"/><rect x="1668.5" y="799.6" width="235.708" height="245.712" style="fill:#e1e1e1;"/><rect x="1652.54" y="799.6" width="235.708" height="245.712" style="fill:#fafafa;"/><path d="M1652.61,1045.24l235.562,0l0,-245.566l-235.562,0l0,245.566Zm235.708,0.146l-235.854,0l0,-245.854l235.854,0l0,245.854Z" style="fill:#e1e1e1;fill-rule:nonzero;"/><rect x="1684.22" y="832.633" width="172.337" height="179.646" style="fill:#fff;"/><path d="M1684.22,1013.48c0.133,0.158 -1.5,2.038 -4.255,4.946c-2.75,2.904 -6.616,6.833 -10.95,11.104c-4.337,4.271 -8.32,8.075 -11.262,10.775c-2.942,2.704 -4.833,4.3 -4.979,4.15c-0.15,-0.15 1.479,-2.021 4.229,-4.925c2.754,-2.9 6.633,-6.846 10.979,-11.125c4.346,-4.283 8.338,-8.096 11.279,-10.8c2.942,-2.7 4.825,-4.288 4.959,-4.125" style="fill:#e1e1e1;fill-rule:nonzero;"/><path d="M1856.56,1013.03c0.162,-0.134 2.041,1.5 4.946,4.254c2.904,2.754 6.833,6.617 11.108,10.954c4.271,4.338 8.075,8.321 10.771,11.263c2.704,2.937 4.304,4.829 4.154,4.979c-0.154,0.146 -2.021,-1.479 -4.925,-4.234c-2.904,-2.75 -6.846,-6.629 -11.129,-10.979c-4.28,-4.346 -8.092,-8.337 -10.796,-11.279c-2.7,-2.937 -4.288,-4.821 -4.129,-4.958" style="fill:#e1e1e1;fill-rule:nonzero;"/><path d="M1856.09,833.11c-0.134,-0.163 1.5,-2.042 4.254,-4.946c2.754,-2.904 6.616,-6.833 10.954,-11.104c4.333,-4.271 8.321,-8.075 11.262,-10.775c2.938,-2.7 4.83,-4.3 4.98,-4.15c0.145,0.15 -1.48,2.017 -4.234,4.925c-2.75,2.9 -6.629,6.842 -10.979,11.125c-4.346,4.283 -8.337,8.096 -11.279,10.796c-2.938,2.704 -4.821,4.292 -4.958,4.129" style="fill:#e1e1e1;fill-rule:nonzero;"/><path d="M1683.75,833.552c-0.158,0.137 -2.038,-1.5 -4.946,-4.255c-2.904,-2.75 -6.833,-6.616 -11.104,-10.954c-4.271,-4.337 -8.075,-8.321 -10.775,-11.258c-2.704,-2.942 -4.3,-4.833 -4.15,-4.979c0.15,-0.15 2.021,1.475 4.925,4.229c2.9,2.75 6.846,6.629 11.125,10.979c4.283,4.346 8.096,8.342 10.8,11.279c2.7,2.938 4.287,4.821 4.125,4.959" style="fill:#e1e1e1;fill-rule:nonzero;"/><path d="M1856.09,1012.28c-0.013,-0.013 -0.025,-0.304 -0.038,-0.871c-0.008,-0.613 -0.021,-1.442 -0.037,-2.508c-0.017,-2.255 -0.042,-5.492 -0.075,-9.7c-0.042,-8.509 -0.105,-20.888 -0.175,-36.613c-0.084,-31.462 -0.2,-76.287 -0.338,-129.954l0.663,0.662c-50.167,0.03 -109.088,0.063 -171.85,0.1l-0.017,0l0.767,-0.762c-0.042,65.937 -0.08,127.625 -0.113,179.646l-0.654,-0.654c51.5,0.137 94.379,0.254 124.442,0.337c15.025,0.071 26.841,0.129 34.958,0.167c4.008,0.037 7.096,0.062 9.25,0.075c1.012,0.016 1.8,0.029 2.387,0.037c0.542,0.013 0.817,0.025 0.83,0.038c0.016,0.012 -0.242,0.025 -0.759,0.037c-0.566,0.013 -1.333,0.021 -2.316,0.038c-2.121,0.016 -5.171,0.041 -9.125,0.075c-8.084,0.041 -19.846,0.1 -34.805,0.171c-30.166,0.083 -73.191,0.195 -124.862,0.333l-0.654,0.004l0,-0.658c-0.034,-52.021 -0.071,-113.709 -0.109,-179.646l-0.004,-0.763l0.784,0c62.762,0.034 121.683,0.067 171.85,0.096l0.666,0l0,0.667c-0.141,53.846 -0.254,98.817 -0.337,130.379c-0.075,15.663 -0.134,27.992 -0.175,36.467c-0.034,4.15 -0.063,7.341 -0.075,9.571c-0.017,1.037 -0.029,1.837 -0.038,2.433c-0.012,0.537 -0.025,0.808 -0.041,0.796" style="fill:#e1e1e1;fill-rule:nonzero;"/><path d="M1771.3,930.243c-0.055,-4.208 -3.405,-6.158 -9.626,-6.079l-13.983,0.183l0.158,12.33l13.988,-0.184c6.217,-0.079 9.521,-1.975 9.462,-6.25m-23.87,-26.062l0.154,11.754l11.912,-0.154c5.846,-0.075 9,-2.113 8.95,-6.029c-0.05,-3.917 -3.258,-5.805 -9.104,-5.725l-11.912,0.154Zm35.945,27.116c0.117,8.625 -6.92,13.705 -20.537,13.88l-26.788,0.35l-0.65,-49.888l25.309,-0.329c12.95,-0.167 19.679,4.95 19.779,12.717c0.067,4.987 -2.546,8.87 -6.737,11.062c5.795,1.704 9.545,5.938 9.625,12.208" style="fill:#e1e1e1;fill-rule:nonzero;"/><path d="M1817.25,930.642c-0.079,-6.208 -4.525,-10.162 -10.35,-10.087c-5.767,0.075 -10.109,4.145 -10.034,10.354c0.084,6.204 4.53,10.212 10.296,10.137c5.829,-0.075 10.171,-4.2 10.088,-10.404m5.537,-0.071c0.117,8.896 -6.258,14.967 -15.104,15.084c-4.454,0.058 -8.358,-1.542 -10.854,-4.805l0.058,4.617l-5.25,0.067l-0.529,-40.759l5.479,-0.07l0.209,16.037c2.47,-3.167 6.216,-4.754 10.5,-4.808c8.845,-0.117 15.379,5.733 15.491,14.637" style="fill:#e1e1e1;fill-rule:nonzero;"/><rect x="359.193" y="340.225" width="1215.45" height="868.092" style="fill:#e1e1e1;"/><rect x="388.068" y="374.921" width="1149" height="800.046" style="fill:#f5f5f5;"/><rect x="319.618" y="1208.32" width="1321.82" height="34.542" style="fill:#ececec;"/><path d="M359.623,341.033c11.475,10.216 22.466,20.979 32.916,32.241" style="fill:#ececec;fill-rule:nonzero;"/><path d="M392.541,373.275c-0.45,0.417 -7.758,-6.858 -16.833,-15.737c-9.067,-8.896 -16.492,-16.046 -16.084,-16.504c0.384,-0.442 8.488,6.012 17.604,14.954c9.121,8.925 15.746,16.896 15.313,17.287" style="fill:#ececec;fill-rule:nonzero;"/><path d="M1537.97,377.46l36.742,-35.65" style="fill:#ececec;fill-rule:nonzero;"/><path d="M1574.71,341.81c0.42,0.429 -7.471,8.762 -17.617,18.604c-10.146,9.846 -18.713,17.475 -19.125,17.046c-0.421,-0.43 7.466,-8.759 17.617,-18.605c10.145,-9.841 18.708,-17.479 19.125,-17.045" style="fill:#ececec;fill-rule:nonzero;"/><path d="M1540.04,1174.77c12.563,11.316 37.204,33.55 34.604,33.55" style="fill:#ececec;fill-rule:nonzero;"/><path d="M1574.64,1208.32c0.813,0.021 -7.629,-7.37 -17.366,-16.408c-9.851,-9.087 -17.642,-16.683 -17.238,-17.142c0.396,-0.433 8.833,6.442 18.713,15.55c4.929,4.555 9.266,8.83 12.237,12.105c1.483,1.641 2.625,3.033 3.321,4.087c0.342,0.542 0.592,0.963 0.667,1.367c0.15,0.529 -0.421,0.558 -0.334,0.441" style="fill:#ececec;fill-rule:nonzero;"/><rect x="832.964" y="1195.3" width="126.004" height="13.725" style="fill:#fafafa;"/><path d="M488.675,1113.64l113.875,67.438l-113.875,0l0,-67.438Zm-42.025,-64.171l0,159.379l273.967,0l-273.967,-159.379Z" style="fill:#ececec;fill-rule:nonzero;"/><path d="M472.959,1064.77c0.508,0.317 -1.65,4.717 -4.817,9.821c-3.167,5.112 -6.15,9 -6.658,8.679c-0.509,-0.317 1.646,-4.708 4.816,-9.821c3.167,-5.108 6.146,-8.992 6.659,-8.679" style="fill:#e1e1e1;fill-rule:nonzero;"/><path d="M513.6,1088.16c0.508,0.321 -1.625,4.6 -4.762,9.558c-3.138,4.959 -6.088,8.721 -6.596,8.404c-0.509,-0.325 1.625,-4.604 4.762,-9.562c3.138,-4.958 6.088,-8.717 6.596,-8.4" style="fill:#e1e1e1;fill-rule:nonzero;"/><path d="M554.243,1111.54c0.471,0.374 -2.096,4.408 -5.733,9.004c-3.642,4.608 -6.971,8.033 -7.442,7.662c-0.466,-0.371 2.1,-4.404 5.738,-9.004c3.637,-4.604 6.966,-8.033 7.437,-7.663" style="fill:#e1e1e1;fill-rule:nonzero;"/><path d="M594.165,1135.84c0.47,0.371 -2.096,4.405 -5.734,9.005c-3.641,4.604 -6.966,8.033 -7.437,7.662c-0.471,-0.371 2.096,-4.404 5.733,-9.004c3.638,-4.604 6.967,-8.034 7.438,-7.663" style="fill:#e1e1e1;fill-rule:nonzero;"/><path d="M635.892,1159.73c0.496,0.337 -1.862,4.637 -5.262,9.604c-3.405,4.966 -6.563,8.716 -7.059,8.379c-0.491,-0.342 1.867,-4.638 5.267,-9.604c3.4,-4.967 6.558,-8.717 7.054,-8.379" style="fill:#e1e1e1;fill-rule:nonzero;"/><path d="M679.237,1184.89c0.504,0.329 -1.604,4.425 -4.7,9.146c-3.1,4.725 -6.017,8.288 -6.517,7.954c-0.504,-0.329 1.605,-4.421 4.705,-9.146c3.095,-4.72 6.012,-8.283 6.512,-7.954" style="fill:#e1e1e1;fill-rule:nonzero;"/><path d="M485.632,1072.15c0.508,0.317 -0.359,2.634 -1.934,5.175c-1.579,2.546 -3.27,4.346 -3.779,4.029c-0.508,-0.312 0.354,-2.629 1.934,-5.17c1.579,-2.546 3.27,-4.35 3.779,-4.034" style="fill:#e1e1e1;fill-rule:nonzero;"/><path d="M498.958,1079.58c0.508,0.313 -0.358,2.633 -1.933,5.175c-1.58,2.546 -3.271,4.346 -3.78,4.029c-0.508,-0.312 0.355,-2.633 1.934,-5.175c1.579,-2.541 3.271,-4.345 3.779,-4.029" style="fill:#e1e1e1;fill-rule:nonzero;"/><path d="M528.595,1097.01c0.508,0.317 -0.359,2.633 -1.934,5.175c-1.579,2.546 -3.271,4.346 -3.779,4.029c-0.508,-0.312 0.354,-2.633 1.933,-5.171c1.58,-2.546 3.271,-4.35 3.78,-4.033" style="fill:#e1e1e1;fill-rule:nonzero;"/><path d="M541.92,1104.44c0.509,0.312 -0.358,2.633 -1.933,5.175c-1.579,2.542 -3.271,4.346 -3.779,4.029c-0.508,-0.312 0.354,-2.633 1.933,-5.175c1.579,-2.542 3.271,-4.346 3.779,-4.029" style="fill:#e1e1e1;fill-rule:nonzero;"/><path d="M568.7,1121.04c0.509,0.313 -0.358,2.634 -1.933,5.171c-1.579,2.546 -3.271,4.35 -3.779,4.034c-0.508,-0.317 0.354,-2.634 1.933,-5.175c1.579,-2.542 3.271,-4.346 3.779,-4.03" style="fill:#e1e1e1;fill-rule:nonzero;"/><path d="M581.414,1128.47c0.509,0.316 -0.358,2.633 -1.933,5.175c-1.579,2.545 -3.271,4.345 -3.779,4.033c-0.513,-0.317 0.354,-2.633 1.933,-5.175c1.579,-2.546 3.271,-4.35 3.779,-4.033" style="fill:#e1e1e1;fill-rule:nonzero;"/><path d="M608.841,1144.3c0.509,0.317 -0.358,2.633 -1.933,5.175c-1.579,2.546 -3.271,4.346 -3.779,4.033c-0.509,-0.316 0.354,-2.633 1.933,-5.175c1.579,-2.545 3.271,-4.345 3.779,-4.033" style="fill:#e1e1e1;fill-rule:nonzero;"/><path d="M623.573,1152.99c0.513,0.313 -0.354,2.633 -1.933,5.175c-1.579,2.542 -3.271,4.346 -3.779,4.029c-0.508,-0.312 0.358,-2.633 1.933,-5.175c1.579,-2.541 3.271,-4.345 3.779,-4.029" style="fill:#e1e1e1;fill-rule:nonzero;"/><path d="M650.067,1168.5c0.512,0.317 -0.355,2.634 -1.934,5.175c-1.579,2.546 -3.271,4.346 -3.779,4.034c-0.508,-0.317 0.358,-2.634 1.938,-5.175c1.575,-2.546 3.266,-4.35 3.775,-4.034" style="fill:#e1e1e1;fill-rule:nonzero;"/><path d="M665.364,1177.27c0.513,0.317 -0.354,2.633 -1.933,5.175c-1.579,2.546 -3.271,4.346 -3.779,4.029c-0.509,-0.312 0.358,-2.633 1.937,-5.175c1.575,-2.542 3.267,-4.346 3.775,-4.029" style="fill:#e1e1e1;fill-rule:nonzero;"/><path d="M1769.85,1519.46c21.429,-11.055 46.658,-12.492 70.45,-8.563c12.783,2.113 26.108,5.938 34.808,15.538c8.696,9.604 10.342,26.495 0.359,34.745c-5.946,4.909 -14.238,5.655 -21.95,5.571c-18.621,-0.221 -39.288,-3.496 -54.167,7.704c-8.488,6.392 -14.134,17.025 -24.288,20.167c-9.929,3.075 -21.133,-2.783 -26.4,-11.742c-5.266,-8.966 -5.441,-20.166 -2.987,-30.266c0,0 2.583,-22.017 24.175,-33.154" style="fill:#ececec;fill-rule:nonzero;"/><path d="M1720.75,1424.69c13.104,18.713 38.571,12.521 50.379,1.096c11.809,-11.425 16.8,-27.979 21.342,-43.767c10.379,-36.075 20.85,-73.916 13.129,-110.654c-2.304,-10.983 -6.416,-21.937 -14.129,-30.087c-7.721,-8.146 -19.587,-12.992 -30.438,-10.125c-12.841,3.391 -20.82,15.97 -26.591,27.933c-16.954,35.167 -25.933,74.158 -26.067,113.196c-0.058,18.233 2.088,37.358 12.375,52.408" style="fill:#ececec;fill-rule:nonzero;"/><path d="M1684.77,1451.55c14.225,-16.888 16.925,-41.517 10.596,-62.667c-6.333,-21.154 -20.633,-39.154 -37.117,-53.842c-19.329,-17.229 -42.046,-30.629 -66.462,-39.216c-9.613,-3.38 -19.754,-6.046 -29.892,-5.08c-10.146,0.971 -20.358,6.155 -25.087,15.18c-6.992,13.337 -0.288,29.52 6.962,42.72c12.783,23.259 27.392,45.509 43.658,66.48c13.084,16.87 28.071,33.508 48.013,41.133c19.942,7.621 40.658,6.725 51.225,-7.104" style="fill:#ececec;fill-rule:nonzero;"/><path d="M1719.86,1707c0.246,0.017 0.642,-3.016 1.183,-8.5c0.605,-6.191 1.359,-13.966 2.259,-23.208c1.083,-9.767 2.512,-21.388 5.221,-34.042c2.708,-12.629 6.937,-26.308 12.375,-40.179c5.629,-13.792 12.495,-26.329 20.516,-36.354c7.967,-10.071 17.229,-17.358 25.938,-21.563c8.679,-4.291 16.462,-6.033 21.841,-6.804c5.43,-0.558 8.467,-0.983 8.471,-1.225c0.004,-0.246 -3.046,-0.279 -8.621,-0.133c-5.516,0.371 -13.625,1.767 -22.775,5.929c-9.179,4.067 -19.004,11.471 -27.362,21.746c-8.421,10.237 -15.533,23.054 -21.263,37.092c-5.533,14.112 -9.704,27.937 -12.287,40.833c-2.575,12.875 -3.754,24.625 -4.525,34.471c-0.738,9.854 -1.017,17.833 -1.15,23.35c-0.121,5.521 -0.063,8.575 0.179,8.587" style="fill:#e1e1e1;fill-rule:nonzero;"/><path d="M1721.46,1689.15c0.121,-0.009 0.196,-1.367 0.229,-3.946c-0.008,-2.967 -0.016,-6.704 -0.029,-11.284c-0.029,-9.795 -0.025,-23.966 0.5,-41.462c0.867,-35.004 3.884,-72.671 9.7,-125.775c5.513,-49.933 12.913,-108.05 20.717,-145.829c1.675,-8.596 3.358,-16.329 4.946,-23.096c1.516,-6.787 2.808,-12.637 4.058,-17.375c1.071,-4.454 1.942,-8.083 2.638,-10.967c0.562,-2.516 0.804,-3.862 0.687,-3.891c-0.117,-0.034 -0.587,1.241 -1.371,3.696c-0.858,2.841 -1.946,6.42 -3.275,10.812c-1.454,4.692 -2.946,10.508 -4.646,17.267c-1.77,6.741 -3.629,14.454 -5.462,23.037c-7.725,34.238 -15.904,82.084 -21.783,135.317c-5.83,53.212 -8.455,101.667 -8.692,136.754c-0.208,17.546 0.167,31.746 0.617,41.546c0.279,4.579 0.508,8.317 0.687,11.279c0.2,2.575 0.358,3.921 0.479,3.917" style="fill:#e1e1e1;fill-rule:nonzero;"/><path d="M1721.69,1595.69c0.246,-0.008 0.205,-4.2 -0.083,-11.787c-0.429,-7.575 -1.471,-18.525 -3.608,-31.938c-2.263,-13.379 -5.421,-29.266 -10.384,-46.529c-2.154,-7.891 -7.208,-26.8 -19.458,-55.058c-16.142,-38.284 -38.067,-69.583 -57.142,-88.975c-4.47,-5.142 -9.454,-8.854 -13.441,-12.492c-2.059,-1.746 -3.884,-3.483 -5.742,-4.862c-1.867,-1.284 -3.6,-2.479 -5.212,-3.592c-6.28,-4.292 -9.796,-6.558 -9.925,-6.354c-0.567,0.762 14.058,9.375 32.529,29.021c18.391,19.604 39.704,50.687 55.712,88.65c8.925,20.587 15.15,38.958 19.567,54.554c5.104,17.091 8.492,32.821 11.05,46.062c2.433,13.28 3.846,24.117 4.692,31.621c0.7,7.521 1.204,11.688 1.445,11.679" style="fill:#e1e1e1;fill-rule:nonzero;"/><path d="M1631.37,1760.55l9.367,128.292l164.813,0l9.366,-128.292l-183.546,0Z" style="fill:#e1e1e1;fill-rule:nonzero;"/><rect x="1615.45" y="1709.98" width="219.129" height="50.571" style="fill:#e1e1e1;"/><path d="M1615.45,1883.93l-0.001,14.017l215.509,0l0,-14.017l-215.509,0Z" style="fill:#ececec;fill-rule:nonzero;"/><path d="M1635.84,1922.61l-10.092,-24.671l197.359,0l-11.775,24.671l-175.492,0Z" style="fill:#e1e1e1;fill-rule:nonzero;"/><path d="M1811.85,1802.47c0.038,0.033 -0.225,0.433 -0.77,1.179c-0.655,0.866 -1.463,1.941 -2.459,3.266c-2.346,2.996 -5.558,7.109 -9.604,12.288l-0.429,0.546l-0.408,-0.571c-6.034,-8.346 -14.1,-19.496 -23.588,-32.621l1.354,0c-7.016,9.929 -14.833,21 -23.221,32.879l-0.729,1.029l-0.816,-0.966c-8.571,-10.196 -17.88,-21.275 -27.542,-32.767l1.587,-0.021c-0.475,0.596 -0.991,1.25 -1.512,1.904c-8.542,10.705 -16.808,21.067 -24.625,30.871l-0.825,1.029l-0.754,-1.071c-8.363,-11.833 -16.175,-22.883 -23.242,-32.875l1.354,0.063c-11.45,13.046 -21.158,24.112 -28.616,32.6l-0.509,0.583l-0.383,-0.65c-3.775,-6.341 -6.779,-11.396 -8.963,-15.054c-0.933,-1.633 -1.691,-2.954 -2.295,-4.008c-0.509,-0.917 -0.746,-1.4 -0.7,-1.429c0.037,-0.029 0.362,0.408 0.954,1.271c0.671,1.012 1.508,2.283 2.546,3.854c2.287,3.6 5.445,8.558 9.404,14.779l-0.896,-0.071c7.333,-8.596 16.892,-19.792 28.158,-33l0.709,-0.833l0.641,0.896c7.125,9.95 15.009,20.954 23.442,32.729l-1.575,-0.042c7.8,-9.817 16.046,-20.2 24.567,-30.921c0.52,-0.654 1.037,-1.304 1.516,-1.904l0.784,-0.983l0.804,0.962c9.641,11.521 18.921,22.617 27.466,32.833l-1.541,0.063c8.475,-11.821 16.366,-22.833 23.454,-32.721l0.687,-0.958l0.671,0.958c9.288,13.271 17.184,24.542 23.092,32.979l-0.838,-0.025c4.205,-5.046 7.55,-9.054 9.984,-11.975c1.087,-1.254 1.966,-2.275 2.679,-3.096c0.612,-0.687 0.95,-1.029 0.987,-1" style="fill:#f5f5f5;fill-rule:nonzero;"/><path d="M1817.2,1759.7c0,0.567 -41.296,1.025 -92.225,1.025c-50.946,0 -92.237,-0.458 -92.237,-1.025c0,-0.566 41.291,-1.025 92.237,-1.025c50.929,0 92.225,0.459 92.225,1.025" style="fill:#f5f5f5;fill-rule:nonzero;"/><path d="M1825.53,1899.33c0,0.567 -44.879,1.025 -100.233,1.025c-55.375,0 -100.242,-0.458 -100.242,-1.025c0,-0.567 44.867,-1.025 100.242,-1.025c55.354,0 100.233,0.458 100.233,1.025" style="fill:#f5f5f5;fill-rule:nonzero;"/><path d="M472.806,135.21c0,0 37.079,170.966 61.359,169.904c31.316,-1.367 136.837,-145.217 136.837,-145.217c0,0 -180.637,-21.971 -198.196,-24.687" style="fill:#f5f5f5;fill-rule:nonzero;"/><path d="M690.618,162.332c0,0 54.63,167.316 78.717,164.391c31.067,-3.779 121.363,-155.104 121.363,-155.104c0,0 -182.296,-7.942 -200.08,-9.287" style="fill:#ececec;fill-rule:nonzero;"/><path d="M910.233,171.526c0,0 71.862,162.296 95.562,157.512c30.567,-6.171 104.792,-163.808 104.792,-163.808c0,0 -182.492,6.258 -200.354,6.296" style="fill:#f5f5f5;fill-rule:nonzero;"/><path d="M1119.74,165.42c0,0 82.771,158.321 106.117,152.346c30.104,-7.704 93.55,-168.763 93.55,-168.763c0,0 -181.834,15.475 -199.667,16.417" style="fill:#ececec;fill-rule:nonzero;"/><path d="M1331.67,144.29c0,0 101.354,149.962 123.871,141.937c29.046,-10.346 72.9,-176.096 72.9,-176.096c0,0 -179.133,31.629 -196.771,34.159" style="fill:#f5f5f5;fill-rule:nonzero;"/><path d="M1539.83,107.28c0,0 114.25,142.833 136.012,133.367c28.071,-12.213 57.3,-180.267 57.3,-180.267c0,0 -175.937,43.229 -193.312,46.9" style="fill:#ececec;fill-rule:nonzero;"/><path d="M261.008,92.79c0,0 21.367,173.046 45.654,173.642c31.325,0.763 149.571,-135.546 149.571,-135.546c0,0 -177.975,-34.191 -195.225,-38.096" style="fill:#ececec;fill-rule:nonzero;"/><path d="M1921.15,3.142c0,0 -1.571,0.612 -4.683,1.733c-3.15,1.121 -7.775,2.767 -13.83,4.921c-6.1,2.15 -13.629,4.808 -22.52,7.946c-4.455,1.566 -9.246,3.25 -14.375,5.05c-5.18,1.691 -10.692,3.491 -16.534,5.396c-11.683,3.808 -24.671,8.041 -38.891,12.675c-14.346,4.32 -29.934,9.012 -46.68,14.058c-8.345,2.596 -17.095,4.971 -26.116,7.467c-9.017,2.5 -18.321,5.079 -27.9,7.733c-4.788,1.308 -9.625,2.708 -14.579,3.996c-4.955,1.258 -9.984,2.537 -15.08,3.829c-10.183,2.587 -20.637,5.237 -31.341,7.958c-85.759,21.434 -189.554,41.913 -306.038,58c-58.316,7.617 -119.766,14.225 -183.683,19c-63.942,4.467 -130.308,7.225 -198.3,7.771c-17.004,0 -33.908,0 -50.7,0.004c-16.783,-0.346 -33.458,-0.691 -50.013,-1.029c-4.133,-0.087 -8.266,-0.175 -12.387,-0.267c-4.121,-0.17 -8.229,-0.341 -12.333,-0.508c-8.205,-0.342 -16.38,-0.679 -24.521,-1.017c-8.142,-0.337 -16.25,-0.675 -24.325,-1.012c-8.059,-0.5 -16.088,-1 -24.079,-1.496c-15.975,-1.087 -31.846,-1.804 -47.496,-3.171c-15.654,-1.312 -31.159,-2.616 -46.496,-3.908c-15.333,-1.342 -30.442,-3.142 -45.417,-4.667c-7.483,-0.791 -14.921,-1.579 -22.316,-2.362c-7.367,-0.938 -14.692,-1.871 -21.975,-2.8c-58.342,-6.904 -113.242,-16.267 -164.496,-25.363c-51.067,-9.846 -98.446,-19.779 -141.192,-30.408c-10.692,-2.638 -21.133,-5.213 -31.304,-7.721c-10.192,-2.454 -19.942,-5.337 -29.517,-7.875c-19.096,-5.233 -37.183,-9.954 -53.804,-15.129c-16.662,-5.05 -32.275,-9.504 -46.454,-14.05c-14.146,-4.625 -27.071,-8.85 -38.696,-12.654c-5.8,-1.929 -11.325,-3.638 -16.425,-5.446c-5.087,-1.817 -9.85,-3.513 -14.275,-5.088c-8.829,-3.158 -16.308,-5.829 -22.367,-7.995c-6.012,-2.167 -10.608,-3.821 -13.737,-4.946c-3.092,-1.125 -4.654,-1.742 -4.654,-1.742c0,0 1.621,0.504 4.737,1.575c3.146,1.092 7.767,2.692 13.813,4.788c6.075,2.12 13.579,4.741 22.437,7.837c4.434,1.55 9.204,3.221 14.309,5.008c5.108,1.78 10.641,3.467 16.45,5.371c11.641,3.759 24.583,7.938 38.741,12.509c14.196,4.491 29.821,8.9 46.492,13.904c16.629,5.129 34.725,9.804 53.821,14.991c9.579,2.513 19.333,5.375 29.525,7.813c10.175,2.483 20.612,5.037 31.304,7.654c42.746,10.546 90.112,20.404 141.162,30.179c51.234,9.025 106.105,18.329 164.409,25.188c7.275,0.921 14.596,1.846 21.962,2.779c7.388,0.779 14.825,1.562 22.3,2.346c14.963,1.512 30.063,3.304 45.384,4.637c15.333,1.279 30.82,2.575 46.466,3.884c15.638,1.354 31.496,2.066 47.459,3.145c7.987,0.492 16.008,0.988 24.062,1.488c8.067,0.333 16.171,0.667 24.304,1c8.138,0.337 16.304,0.675 24.504,1.012c4.1,0.171 8.209,0.338 12.321,0.509c4.121,0.087 8.25,0.175 12.384,0.258c16.537,0.342 33.2,0.683 49.97,1.025c16.78,-0.004 33.671,-0.004 50.659,-0.008c67.941,-0.546 134.254,-3.288 198.15,-7.725c63.875,-4.75 125.279,-11.317 183.558,-18.888c116.417,-15.987 220.175,-36.325 305.929,-57.596c10.709,-2.695 21.163,-5.329 31.346,-7.891c5.096,-1.284 10.125,-2.55 15.088,-3.796c4.925,-1.342 9.787,-2.667 14.583,-3.967c9.571,-2.629 18.879,-5.187 27.9,-7.666c9.025,-2.475 17.779,-4.825 26.129,-7.396c16.763,-4.996 32.358,-9.642 46.717,-13.917c14.229,-4.579 27.233,-8.762 38.937,-12.525c5.846,-1.879 11.367,-3.654 16.563,-5.321c5.133,-1.771 9.937,-3.429 14.404,-4.971c8.917,-3.075 16.467,-5.683 22.583,-7.791c6.084,-2.084 10.738,-3.675 13.904,-4.759c3.138,-1.062 4.763,-1.566 4.763,-1.566" style="fill:#375a64;fill-rule:nonzero;"/><path d="M172.2,69.642c-5.217,-1.492 -10.321,-3 -15.304,-4.554c-5.821,-1.763 -11.546,-3.463 -17.121,-5.117c-10.325,-3.071 -20.146,-5.988 -29.371,-8.946l-44.837,-14.663c-3.613,-1.174 -7.096,-2.308 -10.404,-3.474l-50.396,-18.038c-3.171,-1.158 -4.767,-1.787 -4.767,-1.787l2.963,-6.18c0,0 1.649,0.521 4.837,1.613l50.592,17.646c3.241,1.129 6.666,2.221 10.225,3.358l44.866,14.483c9.025,2.859 18.65,5.688 28.763,8.655c5.733,1.687 11.621,3.416 17.646,5.225c12.912,3.987 26.679,7.687 41.241,11.6l12.475,3.362c3.384,0.888 6.83,1.829 10.309,2.783c6.225,1.7 12.562,3.438 19.083,4.992l31.321,7.663c38.721,9.554 83.504,19.129 140.95,30.133c48.204,8.492 104.679,18.15 164.096,25.133l44.208,5.121c5.267,0.537 10.571,1.108 15.896,1.675c9.725,1.046 19.517,2.096 29.408,2.954l46.45,3.883c10.067,0.871 20.209,1.48 30.409,2.084c5.645,0.337 11.304,0.675 16.983,1.058l48.246,2.483l49.121,1.78l49.966,1.016l50.563,-0.008c65.054,-0.517 131.629,-3.117 197.846,-7.713c59.175,-4.399 120.85,-10.745 183.291,-18.862c107.879,-14.817 213.513,-34.7 305.434,-57.504l69.27,-17.921l23.196,-6.363c7.692,-2.108 15.175,-4.154 22.346,-6.366l46.758,-13.925l69.725,-22.763l36.496,-12.554c3.225,-1.087 4.888,-1.604 4.888,-1.604l2.854,6.183c0,0 -1.608,0.629 -4.796,1.771l-67.375,23.358l-38.892,12.671l-46.77,14.092c-7.242,2.25 -14.83,4.35 -22.634,6.504l-36.554,10.129c-3.154,0.879 -6.333,1.763 -9.562,2.609l-46.455,11.791c-92.22,23.046 -198.204,43.134 -306.516,58.092c-62.675,8.192 -124.563,14.592 -183.963,19.033c-66.441,4.634 -133.25,7.25 -198.596,7.775l-50.737,0.009l-123.763,-3.838l-24.17,-1.496c-5.725,-0.391 -11.405,-0.733 -17.071,-1.071c-10.246,-0.616 -20.434,-1.229 -30.538,-2.108l-46.479,-3.912c-10.012,-0.875 -19.908,-1.942 -29.733,-3c-5.275,-0.575 -10.525,-1.138 -15.763,-1.675l-44.404,-5.171c-59.821,-7.084 -116.387,-16.821 -164.708,-25.396c-57.592,-11.104 -102.525,-20.783 -141.484,-30.475l-31.295,-7.713c-6.65,-1.6 -13.134,-3.387 -19.505,-5.15c-3.391,-0.933 -6.75,-1.862 -10.087,-2.745l-12.263,-3.338c-9.112,-2.471 -17.912,-4.858 -26.408,-7.287" style="fill:#e1e1e1;fill-rule:nonzero;"/><rect x="24.981" y="1003.92" width="235.713" height="245.712" style="fill:#e1e1e1;"/><rect x="9.023" y="1003.92" width="235.708" height="245.712" style="fill:#fafafa;"/><path d="M9.093,1249.55l235.567,0l0,-245.567l-235.567,0l0,245.567Zm235.709,0.146l-235.854,0l0,-245.854l235.854,0l0,245.854Z" style="fill:#e1e1e1;fill-rule:nonzero;"/><rect x="40.706" y="1036.95" width="172.338" height="179.646" style="fill:#fff;"/><path d="M40.706,1217.79c0.133,0.158 -1.5,2.037 -4.254,4.945c-2.75,2.905 -6.617,6.834 -10.954,11.105c-4.338,4.27 -8.321,8.074 -11.259,10.774c-2.941,2.705 -4.833,4.3 -4.979,4.155c-0.15,-0.155 1.475,-2.025 4.229,-4.929c2.75,-2.9 6.629,-6.846 10.979,-11.125c4.346,-4.284 8.338,-8.096 11.28,-10.796c2.937,-2.7 4.82,-4.292 4.958,-4.13" style="fill:#e1e1e1;fill-rule:nonzero;"/><path d="M213.045,1217.35c0.162,-0.138 2.041,1.496 4.945,4.254c2.905,2.75 6.834,6.617 11.105,10.95c4.27,4.338 8.079,8.321 10.775,11.263c2.704,2.937 4.3,4.829 4.154,4.979c-0.154,0.15 -2.021,-1.479 -4.929,-4.229c-2.9,-2.755 -6.842,-6.634 -11.125,-10.984c-4.284,-4.341 -8.096,-8.337 -10.796,-11.279c-2.7,-2.937 -4.292,-4.821 -4.129,-4.954" style="fill:#e1e1e1;fill-rule:nonzero;"/><path d="M212.573,1037.43c-0.134,-0.162 1.5,-2.042 4.254,-4.946c2.75,-2.904 6.616,-6.833 10.954,-11.108c4.333,-4.271 8.321,-8.075 11.258,-10.771c2.942,-2.704 4.834,-4.304 4.984,-4.154c0.145,0.154 -1.48,2.021 -4.234,4.925c-2.75,2.904 -6.629,6.846 -10.979,11.129c-4.346,4.279 -8.337,8.092 -11.279,10.796c-2.938,2.7 -4.821,4.287 -4.958,4.129" style="fill:#e1e1e1;fill-rule:nonzero;"/><path d="M40.234,1037.87c-0.163,0.133 -2.042,-1.5 -4.946,-4.254c-2.904,-2.75 -6.833,-6.617 -11.104,-10.95c-4.271,-4.338 -8.079,-8.321 -10.775,-11.263c-2.704,-2.942 -4.3,-4.833 -4.15,-4.979c0.15,-0.15 2.016,1.479 4.925,4.229c2.904,2.75 6.841,6.633 11.125,10.979c4.283,4.346 8.096,8.338 10.796,11.284c2.704,2.937 4.291,4.816 4.129,4.954" style="fill:#e1e1e1;fill-rule:nonzero;"/><path d="M212.573,1216.6c-0.013,-0.013 -0.025,-0.304 -0.038,-0.871c-0.008,-0.613 -0.021,-1.442 -0.037,-2.508c-0.017,-2.255 -0.042,-5.492 -0.08,-9.7c-0.037,-8.509 -0.1,-20.888 -0.17,-36.613c-0.084,-31.466 -0.2,-76.283 -0.342,-129.954l0.667,0.663c-50.171,0.029 -109.088,0.062 -171.85,0.095l-0.017,0l0.762,-0.758c-0.041,65.938 -0.075,127.625 -0.108,179.646l-0.654,-0.654c51.5,0.137 94.379,0.254 124.442,0.337c15.02,0.071 26.837,0.129 34.954,0.171c4.012,0.033 7.1,0.058 9.25,0.071c1.016,0.017 1.804,0.029 2.387,0.037c0.542,0.017 0.821,0.025 0.834,0.038c0.012,0.012 -0.242,0.025 -0.759,0.042c-0.571,0.008 -1.333,0.02 -2.321,0.037c-2.12,0.013 -5.166,0.038 -9.12,0.071c-8.088,0.042 -19.85,0.1 -34.809,0.171c-30.162,0.083 -73.187,0.196 -124.858,0.333l-0.654,0.004l0,-0.658c-0.034,-52.021 -0.071,-113.708 -0.109,-179.646l-0.004,-0.767l0.784,0c62.762,0.038 121.679,0.071 171.85,0.105l0.666,0l0,0.662c-0.141,53.846 -0.258,98.817 -0.337,130.383c-0.075,15.659 -0.138,27.988 -0.175,36.463c-0.034,4.15 -0.063,7.346 -0.079,9.571c-0.017,1.037 -0.03,1.837 -0.038,2.433c-0.012,0.542 -0.025,0.813 -0.037,0.796" style="fill:#e1e1e1;fill-rule:nonzero;"/><path d="M158.398,1127.1c0,15.296 -12.4,27.692 -27.692,27.692c-15.296,0 -27.696,-12.396 -27.696,-27.692c0,-15.296 12.4,-27.692 27.696,-27.692c15.292,0 27.692,12.396 27.692,27.692" style="fill:#e1e1e1;fill-rule:nonzero;"/><path d="M96.16,716.191c0,0 0.08,-0.662 0.334,-1.933c0.287,-1.363 0.683,-3.229 1.187,-5.629c1.117,-5.042 2.725,-12.304 4.784,-21.613c4.266,-18.85 10.404,-45.971 17.987,-79.475c15.421,-67.187 36.713,-159.95 60.3,-262.716l1.067,-4.638l1.05,4.642c0.416,1.841 0.866,3.837 1.321,5.837c23.458,104.209 44.695,198.529 60.091,266.913c7.571,34.104 13.704,61.733 17.967,80.941c2.058,9.488 3.667,16.892 4.779,22.03c0.508,2.45 0.904,4.354 1.188,5.741c0.258,1.296 0.337,1.971 0.337,1.971c0,0 -0.225,-0.642 -0.55,-1.921c-0.337,-1.375 -0.804,-3.266 -1.4,-5.696c-1.208,-5.116 -2.946,-12.487 -5.175,-21.941c-4.425,-19.171 -10.787,-46.746 -18.642,-80.784c-15.554,-68.35 -37.008,-162.62 -60.712,-266.775c-0.454,-2 -0.904,-3.995 -1.321,-5.837l2.117,0.004c-23.838,102.708 -45.35,195.425 -60.934,262.571c-7.866,33.442 -14.229,60.508 -18.658,79.321c-2.229,9.271 -3.967,16.504 -5.171,21.521c-0.596,2.379 -1.062,4.233 -1.4,5.579c-0.325,1.258 -0.546,1.887 -0.546,1.887" style="fill:#1a2e35;fill-rule:nonzero;"/><path d="M96.115,794.217l0,-65.954l175.967,0l0,65.954c0,42.404 -34.379,76.783 -76.783,76.783l-22.4,0c-42.409,0 -76.784,-34.379 -76.784,-76.783" style="fill:#375a64;fill-rule:nonzero;"/><path d="M96.113,728.262c0.067,-0.037 0.75,0.917 1.996,2.771c1.338,2.033 3.125,4.754 5.367,8.167c4.7,7.329 11.296,17.62 19.396,30.254c16.3,25.821 38.625,61.187 63.287,100.254c0.154,0.246 0.309,0.487 0.45,0.717l-1.85,0.012c23.942,-39.312 45.588,-74.858 61.384,-100.796c7.854,-12.696 14.245,-23.033 18.795,-30.391c2.175,-3.43 3.909,-6.163 5.205,-8.205c1.208,-1.862 1.875,-2.82 1.937,-2.783c0.067,0.038 -0.475,1.075 -1.567,3.008c-1.208,2.096 -2.825,4.896 -4.854,8.413c-4.408,7.45 -10.6,17.904 -18.208,30.75c-15.654,26.025 -37.104,61.687 -60.833,101.129l-0.909,1.508l-0.937,-1.491c-0.142,-0.229 -0.296,-0.471 -0.45,-0.717c-24.454,-39.2 -46.588,-74.683 -62.75,-100.592c-7.854,-12.787 -14.254,-23.204 -18.809,-30.62c-2.1,-3.505 -3.775,-6.296 -5.025,-8.384c-1.125,-1.933 -1.687,-2.962 -1.625,-3.004" style="fill:#1a2e35;fill-rule:nonzero;"/><path d="M201.57,344.241c0,10.612 -8.604,19.216 -19.217,19.216c-10.612,0 -19.216,-8.604 -19.216,-19.216c0,-10.613 8.604,-19.213 19.216,-19.213c10.613,0 19.217,8.6 19.217,19.213" style="fill:#1a2e35;fill-rule:nonzero;"/><ellipse cx="182.354" cy="182.519" rx="1.083" ry="165.325" style="fill:#1a2e35;"/><path d="M192.325,878.164c0,4.546 -3.683,8.229 -8.229,8.229c-4.541,0 -8.225,-3.683 -8.225,-8.229c0,-4.542 3.684,-8.225 8.225,-8.225c4.546,0 8.229,3.683 8.229,8.225" style="fill:#1a2e35;fill-rule:nonzero;"/><path d="M180.458,881.238c0.437,-0.216 0.879,-0.437 1.321,-0.658c-4.8,2.704 -7.567,8.15 -8.313,13.608c-0.741,5.463 0.259,10.996 1.409,16.388c0.37,1.712 1.266,3.841 3.02,3.733c1.575,-0.092 2.321,-1.967 2.588,-3.525c0.558,-3.254 0.642,-6.592 0.25,-9.871c-0.208,4.175 1.179,8.409 3.817,11.646c0.516,0.629 1.254,1.283 2.041,1.075c0.746,-0.2 1.079,-1.058 1.275,-1.804c0.725,-2.763 1.142,-5.6 1.238,-8.454c0.429,2.45 0.929,5.046 2.621,6.871c1.687,1.825 5.004,2.362 6.554,0.416c1.037,-1.3 0.929,-3.146 0.7,-4.796c-1.371,-9.808 -5.388,-19.237 -11.504,-27.025" style="fill:#1a2e35;fill-rule:nonzero;"/><path d="M107.189,728.262c0,0 -79.054,-91.133 -70.271,-94.425c8.784,-3.296 79.055,47.213 79.055,47.213c0,0 -60.388,-135.055 -48.309,-144.934c12.075,-9.883 75.759,119.679 75.759,119.679c0,0 -9.88,-188.854 0,-191.05c9.883,-2.195 46.116,188.855 46.116,188.855c0,0 53.8,-174.58 69.171,-174.58c15.375,0 -16.467,167.992 -16.467,167.992c0,0 63.68,-107.604 73.563,-93.329c9.883,14.275 -45.017,130.658 -45.017,130.658c0,0 80.15,-66.975 83.446,-58.191c3.296,8.783 -86.742,102.112 -86.742,102.112l-160.304,0Z" style="fill:#00b383;fill-rule:nonzero;"/><path d="M96.158,591.014c0.546,-0.246 14.571,29.817 31.321,67.138c16.754,37.333 29.888,67.787 29.342,68.033c-0.55,0.246 -14.567,-29.808 -31.321,-67.146c-16.75,-37.321 -29.887,-67.779 -29.342,-68.025" style="fill:#1a2e35;fill-rule:nonzero;"/><path d="M160.023,607.809c0.6,-0.041 2.93,26.459 5.205,59.175c2.275,32.734 3.637,59.292 3.041,59.334c-0.6,0.041 -2.929,-26.45 -5.208,-59.184c-2.275,-32.716 -3.638,-59.283 -3.038,-59.325" style="fill:#1a2e35;fill-rule:nonzero;"/><path d="M248.115,523.233c0.071,0.025 -0.087,0.762 -0.462,2.141c-0.467,1.609 -1.042,3.592 -1.738,6.004c-1.654,5.5 -3.887,12.946 -6.612,22c-5.575,18.575 -13.067,44.296 -20.7,72.884c-7.625,28.596 -13.942,54.633 -18.363,73.516c-2.154,9.209 -3.92,16.771 -5.229,22.367c-0.596,2.438 -1.087,4.446 -1.487,6.071c-0.363,1.383 -0.588,2.104 -0.663,2.087c-0.071,-0.016 0.009,-0.762 0.234,-2.175c0.295,-1.65 0.654,-3.683 1.091,-6.154c0.979,-5.337 2.534,-13.041 4.554,-22.529c4.046,-18.987 10.134,-45.117 17.767,-73.746c7.642,-28.616 15.379,-54.3 21.333,-72.779c2.971,-9.233 5.463,-16.683 7.271,-21.804c0.854,-2.358 1.554,-4.304 2.125,-5.879c0.509,-1.338 0.809,-2.025 0.879,-2.005" style="fill:#1a2e35;fill-rule:nonzero;"/><path d="M286.21,620.58c0.491,0.341 -14.938,23.35 -34.463,51.383c-19.529,28.042 -35.758,50.492 -36.25,50.15c-0.487,-0.346 14.938,-23.346 34.467,-51.392c19.525,-28.033 35.754,-50.487 36.246,-50.141" style="fill:#1a2e35;fill-rule:nonzero;"/><path d="M133.87,726.329c-0.183,0.221 -2.862,-1.616 -6.917,-4.937c-4.058,-3.321 -9.454,-8.167 -15.041,-13.892c-5.584,-5.733 -10.292,-11.25 -13.509,-15.387c-3.22,-4.138 -4.987,-6.863 -4.762,-7.042c0.504,-0.392 8.721,9.562 19.825,20.917c11.067,11.383 20.808,19.85 20.404,20.341" style="fill:#1a2e35;fill-rule:nonzero;"/><path d="M181.884,690.125c0.596,-0.054 1.854,8.363 2.804,18.796c0.95,10.437 1.242,18.942 0.642,18.996c-0.596,0.054 -1.85,-8.363 -2.804,-18.796c-0.95,-10.438 -1.238,-18.942 -0.642,-18.996" style="fill:#1a2e35;fill-rule:nonzero;"/><path d="M272.082,769.361c0.021,0.15 -2.4,0.642 -6.8,1.408c-4.4,0.775 -10.787,1.771 -18.7,2.867c-15.817,2.187 -37.783,4.687 -62.179,5.529c-24.408,0.821 -46.542,-0.521 -62.4,-2.604c-7.929,-1.025 -14.321,-2.071 -18.692,-3.004c-4.379,-0.896 -6.783,-1.463 -6.754,-1.609c0.025,-0.15 2.483,0.138 6.896,0.775c4.404,0.68 10.808,1.488 18.725,2.313c15.837,1.687 37.846,2.775 62.15,1.962c24.296,-0.841 46.221,-3.091 62.062,-4.883c7.646,-0.887 13.971,-1.625 18.771,-2.179c4.434,-0.513 6.9,-0.725 6.921,-0.575" style="fill:#fff;fill-rule:nonzero;"/><path d="M272.082,788.996c0.021,0.146 -2.4,0.642 -6.8,1.408c-4.4,0.775 -10.787,1.771 -18.7,2.867c-15.817,2.187 -37.783,4.687 -62.179,5.529c-24.408,0.821 -46.542,-0.521 -62.4,-2.604c-7.929,-1.029 -14.321,-2.071 -18.692,-3.008c-4.379,-0.892 -6.783,-1.459 -6.754,-1.605c0.025,-0.15 2.483,0.138 6.896,0.775c4.404,0.68 10.808,1.488 18.725,2.313c15.837,1.687 37.846,2.775 62.15,1.962c24.296,-0.841 46.221,-3.091 62.062,-4.883c7.646,-0.887 13.971,-1.625 18.771,-2.183c4.434,-0.509 6.9,-0.721 6.921,-0.571" style="fill:#fff;fill-rule:nonzero;"/><path d="M1490.23,321.568c-79.067,0 -143.159,64.096 -143.159,143.159c0,29.037 8.667,56.037 23.521,78.6l-20.583,52.433l54,-16.758c23.979,18.125 53.841,28.887 86.221,28.887c79.066,0 143.158,-64.096 143.158,-143.162c0,-79.063 -64.092,-143.159 -143.158,-143.159" style="fill:#fafafa;fill-rule:nonzero;"/><g><path d="M1544.92,430.008c1.191,-6.196 -2.885,-12.115 -9.098,-13.211c-6.213,-1.095 -12.224,3.045 -13.415,9.241l-13.691,71.2c-1.191,6.196 2.886,12.115 9.098,13.211c6.213,1.095 12.224,-3.046 13.415,-9.241l13.691,-71.2Z" style="fill:#ececec;"/><path d="M1507.83,430.008c1.191,-6.196 -2.886,-12.115 -9.098,-13.211c-6.213,-1.095 -12.223,3.045 -13.415,9.241l-13.691,71.2c-1.191,6.196 2.886,12.115 9.098,13.211c6.213,1.095 12.224,-3.046 13.416,-9.241l13.69,-71.2Z" style="fill:#ececec;"/><path d="M1470.74,430.008c1.191,-6.196 -2.886,-12.115 -9.099,-13.211c-6.212,-1.095 -12.224,3.045 -13.415,9.241l-13.69,71.2c-1.191,6.196 2.885,12.115 9.098,13.211c6.213,1.095 12.224,-3.046 13.415,-9.241l13.691,-71.2Z" style="fill:#ececec;"/><ellipse cx="1557.97" cy="422.709" rx="6.117" ry="6.089" style="fill:#ececec;"/><ellipse cx="1420.77" cy="504.536" rx="6.117" ry="6.089" style="fill:#ececec;"/></g><path d="M1634.52,464.718c0.058,0 0.071,-0.85 0.042,-2.508c-0.05,-1.817 -0.121,-4.254 -0.209,-7.363c-0.075,-1.62 -0.075,-3.437 -0.241,-5.429c-0.28,-1.996 -0.584,-4.162 -0.909,-6.496c-0.341,-2.358 -0.704,-4.887 -1.091,-7.587c-0.659,-2.658 -1.363,-5.483 -2.1,-8.467c-3.063,-11.904 -8.292,-26.325 -17.905,-41.062c-9.454,-14.734 -22.983,-30.046 -41.362,-42.467c-18.4,-12.196 -41.55,-21.6 -67.554,-24.096c-6.504,-0.241 -13.125,-1.025 -19.854,-0.4c-3.359,0.238 -6.771,0.167 -10.159,0.659c-3.379,0.512 -6.791,1.025 -10.225,1.541c-13.566,2.771 -27.462,6.809 -40.404,13.8c-12.971,6.829 -25.317,15.638 -36.317,26.392c-10.77,10.962 -20.112,23.767 -27.316,38.021c-7.259,14.212 -12.271,29.958 -14.221,46.346c-0.804,4.062 -0.804,8.216 -1.054,12.362c-0.271,4.15 -0.421,8.313 -0.225,12.496c0.337,8.358 1.391,16.746 3.162,25.029c3.829,18 11.159,34.946 20.971,49.829l-0.154,-1.512c-6.933,17.271 -13.733,34.216 -20.371,50.758l-1.208,3.004l3.121,-0.858c18.625,-5.121 36.737,-10.104 54.258,-14.921l-1.338,-0.254c18.93,14.242 40.546,23.321 62.005,27.083c10.72,1.888 21.429,2.688 31.766,1.975c5.184,-0.221 10.296,-0.471 15.259,-1.441c2.491,-0.388 4.966,-0.771 7.42,-1.155c2.442,-0.454 4.813,-1.195 7.192,-1.775c38.192,-9.804 66.404,-33.329 82.55,-56.625c8.213,-11.666 14.104,-23.166 17.779,-33.7c0.942,-2.625 1.846,-5.158 2.717,-7.591c0.637,-2.5 1.246,-4.904 1.833,-7.209c0.567,-2.295 1.109,-4.495 1.629,-6.591c0.409,-2.113 0.625,-4.159 0.921,-6.067c0.484,-3.842 1.15,-7.212 1.296,-10.167c0.096,-2.904 0.183,-5.387 0.25,-7.458c0.042,-1.887 0.075,-3.387 0.1,-4.554c0.008,-1.021 -0.008,-1.542 -0.054,-1.542c-0.046,0 -0.113,0.521 -0.213,1.542c-0.087,1.158 -0.208,2.654 -0.358,4.533c-0.137,2.054 -0.304,4.521 -0.5,7.409c-0.229,2.933 -0.967,6.27 -1.529,10.07c-2.738,14.938 -8.696,37.33 -25.425,60.209c-16.15,22.846 -44.092,45.771 -81.638,55.204c-2.341,0.554 -4.662,1.275 -7.066,1.708c-2.413,0.363 -4.846,0.729 -7.292,1.092c-4.879,0.937 -9.896,1.154 -14.979,1.346c-10.15,0.658 -20.642,-0.171 -31.146,-2.059c-21.017,-3.762 -42.15,-12.72 -60.654,-26.712l-0.604,-0.454l-0.738,0.196c-17.529,4.783 -35.654,9.729 -54.291,14.812l1.916,2.146c6.654,-16.533 13.475,-33.471 20.425,-50.733l0.321,-0.796l-0.471,-0.717c-9.579,-14.558 -16.737,-31.125 -20.479,-48.717c-1.733,-8.095 -2.762,-16.291 -3.096,-24.466c-0.196,-4.088 -0.046,-8.163 0.221,-12.217c0.242,-4.054 0.229,-8.121 1.021,-12.087c1.892,-16.025 6.779,-31.421 13.858,-45.325c7.021,-13.946 16.142,-26.492 26.654,-37.246c10.742,-10.542 22.805,-19.196 35.488,-25.917c12.654,-6.887 26.254,-10.879 39.537,-13.65c3.363,-0.517 6.705,-1.033 10.017,-1.546c3.317,-0.5 6.667,-0.437 9.958,-0.683c6.6,-0.65 13.1,0.1 19.488,0.304c25.525,2.329 48.317,11.433 66.512,23.308c18.163,12.105 31.621,27.08 41.105,41.53c9.633,14.458 14.987,28.654 18.208,40.395c0.792,2.95 1.529,5.742 2.229,8.367c0.442,2.671 0.85,5.171 1.233,7.5c0.384,2.317 0.738,4.463 1.063,6.438c0.217,1.975 0.271,3.783 0.396,5.387c0.225,3.096 0.4,5.521 0.533,7.329c0.142,1.65 0.238,2.5 0.296,2.5" style="fill:#1a2e35;fill-rule:nonzero;"/><path d="M914.892,1270.33c-2.462,8.105 -13.475,371.001 53.729,657.1l334.459,0.763c4.437,-195.558 79.145,-499.721 -28.98,-667.896l-359.208,10.033Z" style="fill:#1a2e35;fill-rule:nonzero;"/><path d="M1252.55,578.349c11.029,40.158 27.729,72.367 44.012,88.517c16.284,16.15 33.713,35.071 33.129,57.996c-0.233,9 -3.233,18.554 0.7,26.654c5.105,10.521 18.73,12.8 28.925,18.533c15.08,8.475 23.492,26.433 22.875,43.721c-0.608,17.288 -9.308,33.642 -21.504,45.913c-12.671,12.75 -32.737,21.67 -48.483,12.983c-9.504,-5.242 -14.917,-15.513 -19.704,-25.258c-24.813,-50.455 -47.296,-102.05 -67.359,-154.571" style="fill:#1a2e35;fill-rule:nonzero;"/><path d="M1151.03,406.385c-27.917,-30.992 -75.609,-42.3 -114.475,-27.146c-38.863,15.158 -66.305,55.775 -65.867,97.483c0.283,26.892 10.804,55.08 0.175,79.784c-7.517,17.479 -24.904,30.679 -27.296,49.554c-2.779,21.9 15.95,41.758 14.971,63.808c-0.642,14.396 -9.671,27.113 -20.054,37.104c-10.384,9.988 -22.454,18.221 -31.979,29.034c-26.467,30.062 -28.159,77.55 -8.155,112.25c20.009,34.7 58.63,56.471 98.405,61.179c39.779,4.708 80.312,-6.254 115.516,-25.358c22.938,-12.45 44.475,-28.855 58.113,-51.109c13.629,-22.25 18.3,-51.062 7.529,-74.833" style="fill:#1a2e35;fill-rule:nonzero;"/><path d="M1024.85,390.2c0.025,0.405 6.883,-0.708 17.796,0.834c10.958,1.333 25.466,6.129 41.479,11.571c16.037,5.433 31.458,8.391 42.691,7.554c5.588,-0.342 10.059,-1.292 13.021,-2.275c2.971,-0.963 4.521,-1.729 4.479,-1.829c-0.112,-0.434 -6.541,2.42 -17.558,2.687c-11.004,0.463 -26.05,-2.637 -42.008,-8.037c-15.954,-5.425 -30.75,-10.084 -41.929,-11.08c-5.555,-0.57 -10.092,-0.529 -13.196,-0.212c-3.109,0.3 -4.792,0.679 -4.775,0.787" style="fill:#375a64;fill-rule:nonzero;"/><path d="M1361.45,886.54c-0.334,-5.195 -1.051,-10.325 -2.059,-15.345c-8.429,-41.867 -38.121,-76.325 -77.467,-92.942l-100.595,-42.475l-114.992,2.954c0,0 -85.463,39.042 -102.663,59.375c-1.291,1.525 -12.762,12.821 -13.529,17.254l-86.521,256.85l-110.658,68.938l30.342,38.691l163.079,-15.475l19.783,-32.141c-10.825,24.237 -53.85,122.433 -53.85,152.512c0,0 251.709,53.867 351.896,43.792c44.109,-4.438 54.559,-8.563 54.559,-8.563l-29.434,-110.254c24.404,-1.687 49.304,-16.616 59.333,-37.579c17.2,-35.975 15.905,-237.108 12.775,-285.592" style="fill:#fd9f3c;fill-rule:nonzero;"/><path d="M575.756,924.838l-17.316,0l23.754,224.187l205.004,-14.091l-23.129,-193.021l-188.313,-17.075Z" style="fill:#e1e1e1;fill-rule:nonzero;"/><path d="M575.756,913.756l18.142,227.392l404.737,-13.013l-49.854,-214.379l-181.971,17.546l-191.054,-17.546Z" style="fill:#fafafa;fill-rule:nonzero;"/><path d="M575.756,913.756c0,0 1.084,0.05 3.284,0.225c2.27,0.191 5.537,0.466 9.795,0.821c8.725,0.758 21.48,1.862 37.892,3.287c33.125,2.938 80.967,7.183 140.154,12.429l-0.146,0c51.792,-5.05 113.68,-11.091 181.946,-17.758l0.871,-0.083l0.2,0.854c15.342,65.85 32.225,138.308 49.942,214.358l0.296,1.288l-1.321,0.041c-6.042,0.196 -12.559,0.404 -19.104,0.613c-146.938,4.637 -281.78,8.883 -385.638,12.158l-0.804,0.025l-0.063,-0.796c-5.375,-69.841 -9.758,-126.775 -12.804,-166.329c-1.475,-19.621 -2.625,-34.917 -3.412,-45.383c-0.371,-5.129 -0.654,-9.063 -0.854,-11.788c-0.184,-2.65 -0.234,-3.962 -0.234,-3.962c0,0 0.171,1.433 0.413,4.137c0.241,2.763 0.587,6.746 1.041,11.942c0.888,10.508 2.184,25.867 3.842,45.562c3.254,39.405 7.942,96.117 13.688,165.688l-0.867,-0.775c103.854,-3.404 238.692,-7.829 385.621,-12.646c6.546,-0.212 13.066,-0.421 19.108,-0.617l-1.021,1.334c-17.658,-76.067 -34.483,-148.538 -49.775,-214.396l1.071,0.767c-68.287,6.504 -130.187,12.4 -181.987,17.333l-0.08,0.008l-0.07,-0.008c-58.934,-5.6 -106.571,-10.125 -139.555,-13.258c-16.483,-1.596 -29.287,-2.838 -38.05,-3.688c-4.32,-0.429 -7.633,-0.762 -9.937,-0.992c-2.25,-0.233 -3.442,-0.391 -3.442,-0.391" style="fill:#1a2e35;fill-rule:nonzero;"/><path d="M799.802,1131.77c-0.075,0.013 -0.292,-0.654 -0.646,-1.95c-0.391,-1.541 -0.862,-3.412 -1.437,-5.675c-1.209,-4.941 -2.838,-12.108 -4.754,-20.996c-3.838,-17.766 -8.692,-42.416 -13.255,-69.775c-4.558,-27.37 -7.958,-52.262 -10.091,-70.312c-1.067,-9.025 -1.85,-16.342 -2.309,-21.4c-0.195,-2.329 -0.354,-4.25 -0.483,-5.838c-0.087,-1.337 -0.096,-2.041 -0.021,-2.05c0.075,-0.008 0.229,0.684 0.454,2c0.242,1.571 0.534,3.48 0.888,5.788c0.754,5.362 1.767,12.558 2.996,21.3c2.516,17.987 6.154,42.817 10.704,70.158c4.562,27.325 9.171,51.988 12.621,69.825c1.675,8.667 3.05,15.804 4.079,21.121c0.412,2.296 0.754,4.196 1.037,5.763c0.213,1.32 0.292,2.025 0.217,2.041" style="fill:#1a2e35;fill-rule:nonzero;"/><path d="M693.562,991.226l3.933,79.296l-18.354,0.912l-3.2,-64.575l-15.862,0.784l-0.729,-14.721l34.212,-1.696Z" style="fill:#d7d7d7;fill-rule:nonzero;"/><path d="M912.9,1046.56l1.496,14.896l-59.704,6l-1.188,-11.854l27.579,-31.837c6.334,-7.363 7.163,-11.546 6.779,-15.384c-0.625,-6.204 -5.275,-9.391 -13.625,-8.554c-6.77,0.683 -12.266,3.858 -15.575,9.542l-14.175,-7.234c5.2,-9.529 15.684,-16.395 29.9,-17.825c17.605,-1.766 30.25,6.088 31.688,20.417c0.771,7.679 -0.667,14.883 -10.7,26.263l-16.446,18.983l33.971,-3.413Z" style="fill:#d7d7d7;fill-rule:nonzero;"/><path d="M743.755,1186.02l-37.337,-27.496l2.021,-62.659c0,0 14.75,3.025 16.266,17.675c1.517,14.655 2.813,28.563 2.813,28.563l11.8,3.537l-1.625,-8.133l28.683,-40.817c0,0 10.859,8.03 6.313,18.642c5.225,-5.083 13.479,-0.879 12.621,3.838l2.02,-11.117c0,0 13.05,-3.888 12.471,9.329c-0.55,12.508 -1.537,15.717 -1.537,15.717l45.541,-0.134c0,0 -13.137,22.234 -20.716,28.296c-7.579,6.063 -76.809,24.758 -76.809,24.758" style="fill:#ffbf9d;fill-rule:nonzero;"/><path d="M747.245,1174.01c-0.505,0.254 -4.53,-7.23 -7.205,-17.305c-2.72,-10.062 -2.979,-18.554 -2.416,-18.591c0.633,-0.067 1.841,8.171 4.508,18.029c2.621,9.867 5.692,17.608 5.113,17.867" style="fill:#ff9a6c;fill-rule:nonzero;"/><path d="M762.404,1164.37c-0.575,0.084 -2.579,-10.837 -4.538,-24.675l-0.054,-0.362l0.183,-0.321c0.217,-0.383 0.45,-0.792 0.684,-1.208c7.216,-12.709 13.487,-22.767 14.008,-22.471c0.521,0.3 -4.904,10.833 -12.121,23.541c-0.237,0.413 -0.471,0.825 -0.687,1.209l0.133,-0.684c1.9,13.846 2.967,24.888 2.392,24.971" style="fill:#ff9a6c;fill-rule:nonzero;"/><path d="M780.977,1157.13c-0.471,0.025 -1.192,-6.133 -1.792,-14.8l-0.008,-0.125l0.033,-0.15c0.508,-2.37 1.038,-4.812 1.588,-7.362c2.712,-12.071 5.383,-21.75 5.97,-21.621c0.584,0.129 -1.141,10.021 -3.854,22.096c-0.591,2.542 -1.158,4.979 -1.712,7.333l0.025,-0.275c0.3,8.684 0.216,14.879 -0.25,14.904" style="fill:#ff9a6c;fill-rule:nonzero;"/><path d="M1202.03,440.797l0.162,20.441l4.329,305.996c0.505,35.525 -29.637,64.246 -67.679,64.496c-38.416,0.25 -70.425,-28.612 -71.525,-64.487c-1.154,-37.655 -3.058,-77.28 -3.058,-77.28c0,0 -48.738,-6.716 -60.538,-69.737c-5.862,-31.338 -5.704,-82.996 -4.208,-125.259c1.342,-38.037 34.054,-67.304 72.004,-64.345l130.513,10.175Z" style="fill:#ffbf9d;fill-rule:nonzero;"/><path d="M1023.22,540.668c-0.033,4.292 3.571,7.859 8.054,7.975c4.475,0.113 8.133,-3.258 8.167,-7.55c0.029,-4.291 -3.575,-7.862 -8.046,-7.979c-4.479,-0.116 -8.142,3.263 -8.175,7.554" style="fill:#1a2e35;fill-rule:nonzero;"/><path d="M1011.45,521.509c1.038,1.029 7.063,-3.692 15.8,-3.908c8.721,-0.342 15.255,3.975 16.175,2.879c0.45,-0.488 -0.629,-2.371 -3.475,-4.325c-2.804,-1.946 -7.545,-3.788 -12.983,-3.613c-5.442,0.18 -9.962,2.309 -12.537,4.434c-2.63,2.133 -3.488,4.071 -2.98,4.533" style="fill:#1a2e35;fill-rule:nonzero;"/><path d="M1109.36,540.668c-0.034,4.292 3.575,7.859 8.058,7.975c4.471,0.113 8.129,-3.258 8.163,-7.55c0.033,-4.291 -3.575,-7.862 -8.046,-7.979c-4.479,-0.116 -8.138,3.263 -8.175,7.554" style="fill:#1a2e35;fill-rule:nonzero;"/><path d="M1097.36,520.771c1.038,1.029 7.067,-3.688 15.796,-3.909c8.725,-0.341 15.259,3.975 16.179,2.88c0.446,-0.488 -0.62,-2.367 -3.475,-4.325c-2.804,-1.946 -7.545,-3.788 -12.983,-3.613c-5.442,0.179 -9.962,2.308 -12.542,4.433c-2.62,2.134 -3.483,4.075 -2.975,4.534" style="fill:#1a2e35;fill-rule:nonzero;"/><path d="M1067.44,586.426c0.025,-0.496 -5.433,-1.283 -14.262,-2.166c-2.233,-0.171 -4.358,-0.555 -4.775,-2.067c-0.571,-1.596 0.296,-4.029 1.304,-6.654c1.95,-5.454 3.988,-11.171 6.129,-17.167c8.496,-24.437 14.579,-44.504 13.592,-44.837c-0.992,-0.334 -8.671,19.204 -17.171,43.637c-2.037,6.025 -3.992,11.767 -5.846,17.263c-0.771,2.558 -2.146,5.475 -0.916,8.787c0.65,1.65 2.32,2.813 3.762,3.158c1.438,0.396 2.692,0.388 3.8,0.421c8.867,0.234 14.363,0.125 14.383,-0.375" style="fill:#1a2e35;fill-rule:nonzero;"/><path d="M1064.26,689.964c0,0 42.659,1.571 84.146,-24.95c0,0 -19.362,44.046 -82.879,39.871l-1.267,-14.921Z" style="fill:#ff9a6c;fill-rule:nonzero;"/><path d="M1071.72,607.378c3.029,-4.242 8.466,-6.675 13.95,-6.238c3.804,0.304 7.679,2.029 10.07,5.05c2.388,3.025 2.988,7.396 0.98,10.396c-2.267,3.379 -7.171,4.279 -11.371,3.208c-4.204,-1.066 -7.867,-3.712 -11.35,-6.354c-0.967,-0.729 -1.95,-1.492 -2.567,-2.512c-0.617,-1.021 -0.779,-2.375 -0.075,-3.255" style="fill:#ff9a6c;fill-rule:nonzero;"/><path d="M1093.32,591.761c-1.421,-0.046 -1.175,9.437 -9.108,16.391c-7.913,6.976 -18.055,6.188 -18.088,7.517c-0.121,0.6 2.3,1.783 6.571,1.779c4.187,0.029 10.262,-1.483 15.112,-5.737c4.838,-4.267 6.813,-9.829 7.03,-13.729c0.254,-3.975 -0.871,-6.296 -1.517,-6.221" style="fill:#1a2e35;fill-rule:nonzero;"/><path d="M1094.16,486.601c0.929,2.35 9.621,0.984 19.9,1.934c10.304,0.75 18.65,3.52 19.95,1.354c0.579,-1.038 -0.921,-3.229 -4.329,-5.438c-3.371,-2.204 -8.717,-4.241 -14.892,-4.758c-6.166,-0.5 -11.775,0.629 -15.466,2.25c-3.721,1.621 -5.563,3.537 -5.163,4.658" style="fill:#1a2e35;fill-rule:nonzero;"/><path d="M1013.96,496.139c1.592,1.942 7.55,-0.283 14.788,-0.579c7.22,-0.55 13.4,0.963 14.754,-1.15c0.587,-1.025 -0.434,-2.987 -3.159,-4.787c-2.687,-1.805 -7.145,-3.209 -12.112,-2.921c-4.971,0.296 -9.229,2.212 -11.692,4.312c-2.496,2.108 -3.283,4.175 -2.579,5.125" style="fill:#1a2e35;fill-rule:nonzero;"/><path d="M1122.43,420.757c-16.909,22.491 0.696,54.333 20.183,74.633c19.483,20.3 43.229,43.871 37.908,71.5c-6.162,32.038 -49.979,52.558 -43.47,84.525c2.375,11.671 11.579,21.617 11.625,33.525c0.07,21.496 -27.734,31.938 -35.742,51.883c-10.971,27.338 19.196,54.6 19.654,84.054c0.258,16.721 -9.212,32.321 -9.721,49.042c-1.037,34.25 39.471,59.321 72.692,50.896c33.212,-8.425 55.962,-40.842 63.204,-74.337c7.233,-33.492 -3.737,-80.58 -9.1,-114.421l57.546,13.346c10.721,-10.221 -3.938,-21.092 -6.354,-35.7c-6.054,-36.63 -30.129,-67.646 -41.588,-102.959c-10.016,-30.866 -10.083,-63.929 -14.462,-96.083c-4.379,-32.154 -14.346,-65.667 -38.9,-86.875c-24.554,-21.217 -67.067,-23.825 -86.929,1.833" style="fill:#1a2e35;fill-rule:nonzero;"/><path d="M1159.73,1007.42l-17.491,-23.791l23.791,-53.179l8.371,-124.117c0,0 -17.246,-4.563 -19.008,14.946c-1.033,11.441 -1.963,21.704 -1.963,21.704l-19.591,-6.3l-27.842,8.217c0,0 1.25,14.175 12.45,11.379c11.192,-2.8 20.292,-2.1 20.292,-2.1l10.662,15.7l0,5.596l-14.162,-10.1l-27.992,0l-17.325,15.216c0,0 5.846,13.859 14.946,9.659c0,0 -15.113,40.9 -16.513,48.595c0,0 -15.391,39.888 0,62.98c15.392,23.091 36.063,41.983 36.063,41.983l35.312,-36.388Z" style="fill:#ffbf9d;fill-rule:nonzero;"/><path d="M1166.73,886.133c-0.262,-0.166 1.7,-2.212 1.188,-6.171c-0.488,-3.816 -3.63,-8.862 -6.08,-14.691c-5.229,-11.563 -9.02,-21.138 -8.475,-21.384c0.546,-0.245 5.225,8.926 10.455,20.488c1.25,2.833 2.441,5.537 3.604,8.183c1.104,2.529 1.966,5.042 2.025,7.288c0.075,2.237 -0.584,4.016 -1.284,5.033c-0.712,1.029 -1.345,1.35 -1.433,1.254" style="fill:#ff9a6c;fill-rule:nonzero;"/><path d="M1159.44,882.931c-0.342,0.492 -6.117,-2.941 -12.846,-7.737c-6.73,-4.771 -11.875,-9.229 -11.355,-9.821c0.28,-0.304 5.871,3.267 12.613,8.054c6.717,4.788 11.929,9.013 11.587,9.504" style="fill:#ff9a6c;fill-rule:nonzero;"/><path d="M1146.89,906.354c-0.184,0.175 -2.771,-2.071 -5.879,-6.621c-1.53,-2.279 -3.18,-5.133 -4.588,-8.5c-0.708,-1.654 -1.354,-3.55 -1.925,-5.333c-0.296,-0.85 -0.654,-1.446 -1.204,-1.696c-0.571,-0.296 -1.617,-0.375 -2.646,-0.529c-5.712,-0.75 -11.125,-1.717 -15.458,-2.154l0.283,-0.038c-1.4,0.584 -2.933,2.267 -4.096,3.392c-1.212,1.229 -2.279,2.312 -3.204,3.167c-1.808,1.758 -3.225,2.395 -3.304,2.208c-0.079,-0.175 0.975,-1.008 2.529,-2.946c0.921,-1.108 1.875,-2.254 2.871,-3.446c1.258,-1.287 2.171,-2.916 4.687,-4.145l0.096,-0.046l0.188,0.008c4.704,0.258 9.946,1.096 15.704,1.85c1,0.175 2.054,0.162 3.312,0.746c1.321,0.637 1.946,1.979 2.255,2.933c0.587,1.942 1.116,3.617 1.77,5.279c1.255,3.288 2.705,6.121 4.03,8.438c2.691,4.625 4.837,7.212 4.579,7.433" style="fill:#ff9a6c;fill-rule:nonzero;"/><path d="M1120.86,909.965c-0.587,-0.137 0.167,-6.287 1.679,-13.733c1.513,-7.446 3.217,-13.404 3.804,-13.3c0.592,0.1 -0.162,6.25 -1.679,13.733c-1.516,7.484 -3.221,13.438 -3.804,13.3" style="fill:#ff9a6c;fill-rule:nonzero;"/><path d="M1141.93,933.197c-0.237,-0.025 0.688,-1.6 -0.541,-3.95c-0.596,-1.125 -1.746,-2.345 -3.388,-3.083c-1.612,-0.737 -3.804,-0.737 -6.017,-0.042c-2.237,0.688 -4.495,2.03 -6.87,3.642c-2.396,1.575 -5.042,3.471 -8.459,4.354c-3.391,0.854 -7.746,0.179 -10.287,-3.283c-1.234,-1.75 -1.4,-4.138 -0.75,-6.092c0.629,-1.979 1.8,-3.616 3.033,-5.108c5.046,-5.758 10.296,-10.638 15.708,-14.538c2.738,-1.895 5.792,-3.333 8.909,-3.608c3.125,-0.287 5.979,0.654 8.196,1.908c4.495,2.596 6.829,6.105 8.395,8.334c1.534,2.312 2.242,3.662 2.13,3.741c-0.13,0.092 -1.088,-1.108 -2.805,-3.237c-1.75,-2.054 -4.237,-5.292 -8.445,-7.488c-2.084,-1.066 -4.625,-1.791 -7.288,-1.466c-2.679,0.304 -5.387,1.621 -7.946,3.458c-5.083,3.788 -10.346,8.746 -15.187,14.283c-2.35,2.659 -3.929,6.142 -2.184,8.63c1.675,2.425 5.275,3.233 8.05,2.52c5.871,-1.541 10.23,-6.354 15.38,-7.525c2.491,-0.675 5.05,-0.583 6.962,0.421c1.879,0.988 3.058,2.467 3.625,3.813c1.138,2.862 -0.225,4.454 -0.221,4.316" style="fill:#ff9a6c;fill-rule:nonzero;"/><path d="M1324.51,1192.54c0,0 -1.121,1.554 -3.779,4.025c-2.634,2.475 -6.946,5.808 -13.309,8.558c-6.308,2.775 -14.67,4.95 -24.512,5.025c-9.829,0.188 -21.058,-2.033 -32.388,-6.97c-11.375,-4.867 -22.779,-12.338 -34.1,-21.313c-11.266,-9.075 -23.004,-19.033 -35.087,-29.896c-12.058,-10.875 -24.221,-22.946 -35.358,-36.733c-11.175,-13.754 -21.175,-29.188 -30.575,-45.396c-1.946,-3.45 -3.888,-6.883 -5.817,-10.287l-0.396,-0.7l0.567,-0.584c22.583,-23.283 44.121,-45.5 63.921,-65.916l0.562,-0.58l0.688,0.425c41.854,25.846 76.833,48.855 101.758,64.755c12.371,7.896 22.217,14.175 29.092,18.562c3.283,2.109 5.854,3.759 7.716,4.959c0.804,0.533 1.442,0.958 1.967,1.308c0.442,0.304 0.65,0.466 0.637,0.492c-0.012,0.025 -0.258,-0.092 -0.72,-0.35c-0.55,-0.309 -1.217,-0.692 -2.059,-1.167c-1.904,-1.134 -4.529,-2.696 -7.883,-4.688c-6.867,-4.141 -16.858,-10.254 -29.404,-18.087c-25.117,-15.613 -60.25,-38.388 -102.159,-64.075l1.246,-0.158c-19.766,20.454 -41.266,42.704 -63.804,66.033l0.167,-1.279c1.921,3.396 3.858,6.816 5.804,10.254c9.362,16.15 19.283,31.479 30.346,45.146c11.025,13.691 23.066,25.712 35.046,36.583c24.216,21.321 45.945,41.525 68.458,51.288c11.133,4.95 22.104,7.229 31.771,7.162c9.675,0.038 17.921,-1.975 24.187,-4.587c6.309,-2.588 10.646,-5.767 13.346,-8.113c2.729,-2.337 3.975,-3.787 4.071,-3.696" style="fill:#1a2e35;fill-rule:nonzero;"/><path d="M1255.78,928.378c0.154,0.067 0.025,1.579 -0.012,4.446c-0.092,3.337 -0.209,7.371 -0.342,12.1c-0.371,10.754 -0.85,24.604 -1.383,39.921c-0.604,15.591 -1.238,29.704 -1.8,39.916c-0.3,4.725 -0.554,8.759 -0.767,12.092c-0.229,2.85 -0.425,4.425 -0.575,4.421c-0.15,-0.004 -0.242,-1.592 -0.267,-4.45c-0.033,-2.863 -0.004,-7.004 0.08,-12.113c0.166,-10.229 0.554,-24.354 1.162,-39.95c0.604,-15.591 1.317,-29.704 2.021,-39.912c0.654,-10.188 1.483,-16.559 1.883,-16.471" style="fill:#1a2e35;fill-rule:nonzero;"/><path d="M1308.52,818.7c0.142,0.383 -4.496,1.933 -11.204,5.87c-3.371,1.934 -7.146,4.63 -11.067,7.93c-3.846,3.383 -7.791,7.425 -11.391,12.116c-3.546,4.738 -6.367,9.634 -8.588,14.254c-2.112,4.663 -3.683,9.025 -4.637,12.792c-1.975,7.525 -2.205,12.408 -2.617,12.379c-0.15,-0.004 -0.183,-1.225 -0.108,-3.441c0.02,-2.213 0.42,-5.413 1.237,-9.296c0.775,-3.896 2.233,-8.425 4.308,-13.263c2.171,-4.791 5.03,-9.862 8.675,-14.737c3.705,-4.825 7.813,-8.946 11.834,-12.334c4.096,-3.308 8.058,-5.933 11.604,-7.741c3.517,-1.834 6.487,-3.084 8.612,-3.704c2.113,-0.667 3.296,-0.967 3.342,-0.825" style="fill:#1a2e35;fill-rule:nonzero;"/><path d="M983.331,1050.87c-0.142,0.054 -1.213,-2.291 -3.025,-6.579c-1.779,-4.304 -4.35,-10.537 -7.204,-18.371c-5.554,-15.587 -13.188,-37.887 -13.292,-63.658c-0.108,-6.413 0.667,-12.654 1.55,-18.629c1.033,-5.963 2.538,-11.583 4.042,-16.888c3.066,-10.596 6.012,-20.025 7.6,-28.145c1.596,-8.113 1.841,-14.826 1.533,-19.43c-0.25,-4.616 -0.892,-7.129 -0.65,-7.179c0.075,-0.017 0.263,0.6 0.55,1.796c0.304,1.196 0.717,2.971 0.942,5.308c0.575,4.65 0.558,11.517 -0.867,19.784c-1.417,8.27 -4.237,17.833 -7.183,28.404c-1.442,5.291 -2.888,10.862 -3.875,16.708c-0.834,5.863 -1.58,11.975 -1.471,18.275c0.091,25.292 7.391,47.471 12.571,63.146c2.658,7.867 5.008,14.179 6.545,18.575c1.567,4.379 2.371,6.829 2.234,6.883" style="fill:#1a2e35;fill-rule:nonzero;"/><path d="M1187.31,1220.16c0.025,0.071 -0.608,0.355 -1.846,0.83c-1.479,0.541 -3.275,1.195 -5.429,1.987c-4.721,1.725 -11.666,3.888 -20.337,6.258c-8.663,2.4 -19.117,4.75 -30.813,6.863c-11.721,2 -24.696,3.692 -38.391,4.637c-13.7,0.871 -26.792,0.913 -38.675,0.484c-11.88,-0.546 -22.555,-1.496 -31.455,-2.734c-8.904,-1.195 -16.079,-2.425 -20.983,-3.504c-2.246,-0.5 -4.108,-0.912 -5.646,-1.254c-1.287,-0.308 -1.954,-0.504 -1.937,-0.579c0.012,-0.071 0.712,-0.021 2.025,0.15c1.554,0.233 3.437,0.508 5.708,0.846c4.938,0.833 12.125,1.825 21.021,2.821c8.883,1.033 19.521,1.825 31.337,2.254c11.825,0.316 24.838,0.216 38.459,-0.646c13.616,-0.946 26.525,-2.567 38.196,-4.446c11.658,-1.992 22.095,-4.175 30.77,-6.379c8.68,-2.167 15.671,-4.1 20.459,-5.575c2.212,-0.633 4.037,-1.163 5.55,-1.596c1.279,-0.342 1.962,-0.492 1.987,-0.417" style="fill:#1a2e35;fill-rule:nonzero;"/><path d="M968.621,1126.77c0.142,0.024 -0.366,2.358 -1.762,6.375c-1.388,4.02 -3.521,9.787 -6.225,16.883c-5.396,14.187 -13.004,33.725 -21.059,55.429c-8.095,21.696 -14.954,41.496 -19.654,55.917c-2.2,6.95 -4.025,12.712 -5.421,17.125c-1.266,4.05 -2.037,6.271 -2.183,6.233c-0.142,-0.042 0.35,-2.333 1.371,-6.462c0.971,-4.142 2.646,-10.059 4.771,-17.355c4.333,-14.566 10.979,-34.491 19.083,-56.216c8.063,-21.729 15.904,-41.192 21.667,-55.238c2.783,-6.741 5.091,-12.333 6.858,-16.612c1.638,-3.917 2.396,-6.109 2.554,-6.079" style="fill:#1a2e35;fill-rule:nonzero;"/><path d="M1260.15,1926.64c-0.042,-0.001 -0.084,-0.517 -0.129,-1.526c-0.042,-1.125 -0.096,-2.604 -0.163,-4.487c-0.096,-4.079 -0.233,-9.871 -0.408,-17.267c-0.254,-14.991 -0.417,-36.691 -0.392,-63.495c-0.017,-53.617 0.742,-127.676 0.104,-209.455c-0.821,-81.8 -3.337,-155.846 -8.35,-209.204c-1.316,-13.329 -2.241,-25.417 -3.775,-35.95c-0.675,-5.271 -1.3,-10.179 -1.879,-14.708c-0.287,-2.258 -0.558,-4.421 -0.821,-6.492c-0.354,-2.042 -0.691,-3.992 -1.008,-5.837c-1.229,-7.288 -2.192,-12.996 -2.871,-17.013c-0.292,-1.862 -0.521,-3.329 -0.696,-4.433c-0.141,-1.009 -0.196,-1.525 -0.162,-1.534c0.037,-0.004 0.166,0.5 0.383,1.488c0.225,1.096 0.525,2.55 0.904,4.396c0.775,4.004 1.871,9.691 3.275,16.958c0.35,1.846 0.717,3.792 1.104,5.833c0.292,2.063 0.596,4.225 0.913,6.484c0.637,4.525 1.321,9.437 2.062,14.704c1.646,10.537 2.684,22.625 4.096,35.962c5.413,53.392 8.175,127.496 8.992,209.325c0.642,81.813 -0.358,155.88 -0.738,209.484c-0.125,26.704 -0.225,48.362 -0.295,63.483l0,17.263c-0.025,1.883 -0.042,3.366 -0.059,4.491c-0.021,1.009 -0.05,1.53 -0.087,1.53" style="fill:#375a64;fill-rule:nonzero;"/><path d="M1213.51,434.939c-1.87,-10.816 5.055,-22.071 14.992,-26.737c9.933,-4.667 22.054,-3.3 31.654,2.016c11.988,6.646 20.421,19.33 21.904,32.955c1.488,13.625 -4.016,27.825 -14.295,36.895c-5.85,5.163 -13.446,8.75 -21.242,8.355c-6.875,-0.346 -13.175,-3.667 -19.6,-6.138c-6.421,-2.471 -13.829,-4.087 -20.029,-1.096" style="fill:#1a2e35;fill-rule:nonzero;"/><path d="M1241.92,488.215c-0.696,0.166 -2.88,-14.813 -11.488,-31.009c-8.437,-16.287 -19.525,-26.591 -18.992,-27.071c0.175,-0.187 3.155,2.125 7.292,6.596c4.138,4.459 9.279,11.213 13.621,19.467c4.321,8.258 6.958,16.329 8.279,22.267c1.333,5.941 1.542,9.716 1.288,9.75" style="fill:#ff4f5b;fill-rule:nonzero;"/><path d="M1231.67,462.283c0.08,0.129 -1.558,1.217 -4.6,3.079c-3.125,1.704 -7.708,4.154 -13.758,6.238c-11.946,4.329 -29.958,7.591 -49.342,4.175c-9.645,-1.692 -18.575,-4.688 -26.137,-8.575c-7.575,-3.871 -13.621,-9.096 -17.063,-14.642c-3.495,-5.521 -4.495,-10.9 -4.466,-14.488c-0.021,-1.808 0.229,-3.195 0.416,-4.12c0.238,-0.917 0.396,-1.384 0.467,-1.367c0.213,0.033 -0.296,1.971 -0.042,5.458c0.225,3.45 1.417,8.525 4.909,13.675c6.837,10.6 23.554,18.6 42.283,21.921c18.95,3.338 36.588,0.4 48.483,-3.487c12.021,-3.846 18.63,-8.288 18.85,-7.867" style="fill:#375a64;fill-rule:nonzero;"/><path d="M1236.04,484.63c0.112,0.096 -0.575,1.042 -1.925,2.679c-1.317,1.663 -3.463,3.871 -6.296,6.4c-5.633,5.079 -14.488,11.067 -25.417,15.134c-10.946,4.02 -21.571,5.233 -29.15,5.041c-3.796,-0.083 -6.866,-0.366 -8.946,-0.771c-2.091,-0.362 -3.225,-0.633 -3.204,-0.783c0.046,-0.379 4.679,0.246 12.138,0.017c7.441,-0.2 17.737,-1.621 28.408,-5.542c10.658,-3.963 19.396,-9.579 25.183,-14.267c5.813,-4.679 8.925,-8.166 9.209,-7.908" style="fill:#375a64;fill-rule:nonzero;"/><path d="M1275.42,439.126c0.221,-0.016 0.625,3.154 -0.854,8c-1.416,4.775 -5.175,11.2 -11.85,15.367c-6.691,4.137 -14.121,4.658 -19.029,3.812c-5,-0.816 -7.662,-2.591 -7.55,-2.783c0.133,-0.346 2.958,0.871 7.733,1.263c4.705,0.42 11.546,-0.33 17.7,-4.134c6.134,-3.829 9.842,-9.633 11.55,-14.037c1.767,-4.45 1.93,-7.521 2.3,-7.488" style="fill:#375a64;fill-rule:nonzero;"/><path d="M1718.23,1773.89l-1567,-0.001l-4.075,49.934l303.85,0l0,104.366l29.342,0l0,-104.366l1115.04,0l0,104.846l29.341,0l0,-104.846l93.5,0l0,-49.934Z" style="fill:#375a64;fill-rule:nonzero;"/><path d="M1392.58,1390.42c0,-2.25 -32.117,-145.05 -34.546,-155.837l27.1,-40.038c0,0 9.912,-9.454 6.858,-13.65c-3.05,-4.196 -8.296,-4.729 -14.212,-0.896c-3.729,2.421 -23.167,12.721 -23.167,12.721c0,0 -7.379,-57.912 -8.904,-62.108c-1.525,-4.192 -5.592,-6.171 -8.263,-3.125c-2.67,3.054 -2.012,42.346 -2.012,42.346c0,0 -15.642,-48.45 -18.971,-50.35c-4.854,-2.771 -9.154,1.525 -9.154,3.429c0,1.908 10.729,53.825 10.729,53.825c0,0 -24.842,-47.342 -29.033,-45.813c-4.2,1.525 -5.346,3.817 -5.725,7.246c-0.379,3.433 16.783,53.4 16.783,53.4c0,0 -19.071,-36.617 -22.504,-35.471c-3.433,1.146 -5.038,6.104 -4.483,9.775c0.5,3.334 24.254,75.509 28.633,88.821l10.104,170.804l68.613,148.142l61.904,-86.558c0,0 -49.75,-94.321 -49.75,-96.663" style="fill:#ffbf9d;fill-rule:nonzero;"/><path d="M1481.01,1433.89c0,0 -8.129,121.067 7.846,139.754c15.971,18.684 49.167,14.005 49.167,14.005l21.437,-102.967l-78.45,-50.792Z" style="fill:#ffbf9d;fill-rule:nonzero;"/><path d="M1444.42,1487.58l31.358,44.138l70.85,37.166l161.059,84.455c17.083,8.962 25.42,28.775 19.883,47.258l-5.583,18.617l-60.425,149.433l3.095,60.017l-321.562,-0.48c0,0 72.287,-235.025 74.612,-250.12c2.321,-15.1 -11.612,-34.846 -11.612,-34.846c0,0 -41.813,-29.038 -41.813,-32.521c0,-3.483 5.805,-117.308 80.138,-123.117" style="fill:#ff62af;fill-rule:nonzero;"/><path d="M1436.86,1737.25c-0.404,-0.029 0.121,-5.75 -0.658,-14.904c-0.296,-4.587 -1.258,-9.983 -2.492,-15.912c-1.391,-5.904 -3.308,-12.309 -5.787,-18.863c-5.004,-13.108 -11.267,-24.246 -16.059,-32.108c-4.829,-7.854 -8.133,-12.529 -7.854,-12.742c0.121,-0.087 1.071,0.992 2.696,3.017c1.638,2.012 3.854,5.05 6.45,8.9c5.163,7.7 11.717,18.854 16.8,32.162c2.513,6.65 4.4,13.18 5.708,19.205c1.146,6.058 1.967,11.566 2.067,16.237c0.175,2.325 0.109,4.438 0.067,6.283c-0.004,1.855 -0.117,3.438 -0.288,4.734c-0.275,2.591 -0.5,4.008 -0.65,3.991" style="fill:#1a2e35;fill-rule:nonzero;"/><path d="M1619.95,1852c0.046,0.146 -2.171,0.963 -6.209,2.33c-4.041,1.362 -9.916,3.245 -17.195,5.5c-14.559,4.516 -34.767,10.458 -57.213,16.562c-22.45,6.096 -42.887,11.2 -57.725,14.679c-7.421,1.742 -13.442,3.092 -17.617,3.959c-4.17,0.87 -6.491,1.283 -6.529,1.141c-0.037,-0.15 2.221,-0.841 6.333,-1.962c4.492,-1.192 10.363,-2.746 17.442,-4.625c15.079,-4.009 35.242,-9.367 57.534,-15.284c22.212,-6.179 42.304,-11.762 57.337,-15.941c7.058,-1.963 12.912,-3.596 17.383,-4.842c4.117,-1.108 6.413,-1.658 6.459,-1.517" style="fill:#1a2e35;fill-rule:nonzero;"/><path d="M1725.02,1703.59c0,0 -0.9,-0.259 -2.609,-0.867c-1.7,-0.625 -4.275,-1.467 -7.696,-2.35c-6.808,-1.763 -17.229,-3.725 -30.629,-2.684c-13.279,1.013 -29.762,5.355 -45.2,16.605c-7.708,5.537 -15.025,12.787 -21.216,21.595c-6.092,8.813 -11.355,19.238 -13.405,30.975c-0.929,5.838 -1.133,12.038 0.463,18.009c1.567,5.9 4.833,11.666 10.054,15.375c10.267,7.596 26.121,7.908 37.479,0.079c11.333,-8.067 16.45,-23.821 13.625,-38.246c-2.55,-14.675 -13.925,-27.237 -28.108,-33.65c-14.238,-6.779 -31.271,-7.091 -47.117,-2.821c-7.95,2.134 -15.75,5.267 -23.096,9.388c-7.387,4.037 -14.437,8.892 -20.866,14.579c-12.85,11.367 -23.534,25.721 -30.421,42.05c-3.429,8.158 -5.929,16.796 -7.15,25.692c-0.463,4.45 -1.1,8.95 -0.825,13.396c0.25,4.404 1.146,8.904 3.629,12.437c2.408,3.6 6.475,5.692 10.763,6.421c4.312,0.775 8.816,0.337 13.075,-0.717c8.529,-2.204 16.187,-7.5 21.191,-14.596c10.225,-14.27 7.959,-35.441 -4.471,-47.041c-6.033,-5.921 -13.775,-9.854 -21.82,-12.075c-8.046,-2.304 -16.459,-3.013 -24.663,-2.592c-16.479,0.946 -32.292,5.921 -46.033,13.625c-13.771,7.704 -25.525,18.146 -34.396,30.167c-8.813,11.916 -15.146,25.858 -14.621,39.846c0.275,13.825 9.546,26.712 21.767,30.491c6.095,1.917 12.708,0.942 18.075,-1.983c5.404,-2.904 9.716,-7.446 12.666,-12.529c5.9,-10.359 5.83,-22.471 3.83,-32.884c-2.092,-10.55 -5.851,-20.158 -10.634,-28.337c-9.466,-16.475 -24.629,-26.413 -38.071,-27.033c-6.658,-0.484 -12.616,0.587 -17.441,2.325c-4.813,1.812 -8.53,4.233 -11.092,6.645c-5.158,4.85 -6.313,8.646 -6.533,8.48c0,0 0.383,-0.846 1.229,-2.463c0.891,-1.583 2.45,-3.85 5.008,-6.337c5.004,-4.95 15.175,-10.338 28.892,-9.492c13.75,0.492 29.358,10.579 39.05,27.254c4.908,8.288 8.762,17.979 10.946,28.696c2.079,10.587 2.271,23.025 -3.854,33.912c-3.059,5.313 -7.53,10.084 -13.242,13.18c-5.65,3.12 -12.775,4.204 -19.309,2.175c-13.062,-4.025 -22.716,-17.505 -23.087,-32.021c-0.571,-14.613 5.946,-28.904 14.883,-41.059c9.009,-12.262 20.95,-22.912 34.95,-30.779c13.984,-7.862 30.075,-12.958 46.904,-13.95c8.417,-0.441 17.034,0.271 25.346,2.638c8.3,2.287 16.375,6.354 22.746,12.591c13.138,12.288 15.592,34.617 4.738,49.796c-5.313,7.529 -13.375,13.109 -22.417,15.45c-4.517,1.121 -9.279,1.592 -13.988,0.754c-4.658,-0.77 -9.404,-3.179 -12.162,-7.316c-2.838,-4.054 -3.754,-8.942 -4.021,-13.567c-0.283,-4.692 0.375,-9.258 0.842,-13.808c1.25,-9.088 3.808,-17.909 7.308,-26.225c7.033,-16.654 17.921,-31.254 31.008,-42.817c6.55,-5.779 13.734,-10.721 21.263,-14.821c7.487,-4.187 15.437,-7.379 23.575,-9.55c16.187,-4.35 33.771,-4.021 48.483,3.009c14.634,6.645 26.496,19.716 29.146,35.116c2.904,15.05 -2.408,31.513 -14.467,40.067c-12.1,8.246 -28.595,7.867 -39.512,-0.204c-5.55,-3.984 -9,-10.134 -10.613,-16.321c-1.641,-6.263 -1.391,-12.675 -0.42,-18.667c2.166,-12.05 7.566,-22.587 13.791,-31.508c6.325,-8.913 13.788,-16.221 21.638,-21.788c15.716,-11.308 32.441,-15.57 45.841,-16.462c13.534,-0.921 24.005,1.192 30.813,3.1c6.829,1.971 10.188,3.642 10.188,3.642" style="fill:#fafafa;fill-rule:nonzero;"/><path d="M1509.84,1572.4c0,0 -2.017,4.434 -8.133,10.588c-6.004,6.05 -16.609,13.908 -31.996,16.871c-7.608,1.516 -16.358,1.458 -25.237,-0.813c-8.851,-2.337 -17.825,-6.846 -25.563,-13.679c-3.867,-3.404 -7.412,-7.388 -10.4,-11.892c-2.954,-4.5 -5.554,-9.495 -6.825,-15.066c-1.271,-5.459 -1.308,-11.85 1.992,-17.104c3.204,-5.3 9.521,-8.171 15.579,-8.255c6.108,-0.166 12.062,1.555 17.125,4.571c4.983,3.163 9.15,7.267 12.35,11.95c6.321,9.442 8.767,20.563 8.35,30.85c-0.271,5.163 -1.242,10.146 -2.792,14.8c-1.637,4.625 -3.933,8.834 -6.604,12.584c-5.579,7.333 -12.587,12.612 -19.629,15.891c-14.171,6.738 -27.375,6.492 -35.788,5.192c-8.541,-1.479 -12.804,-3.792 -12.804,-3.792c0.079,-0.266 4.471,1.754 12.929,2.95c8.325,1.038 21.275,1.013 34.992,-5.733c6.817,-3.275 13.538,-8.475 18.85,-15.575c2.529,-3.625 4.704,-7.679 6.25,-12.142c1.454,-4.483 2.363,-9.283 2.596,-14.258c0.35,-9.917 -2.063,-20.596 -8.108,-29.571c-3.038,-4.442 -7.059,-8.35 -11.7,-11.287c-4.713,-2.817 -10.342,-4.421 -15.942,-4.263c-5.583,0.108 -11.017,2.633 -13.821,7.233c-2.887,4.546 -2.942,10.33 -1.754,15.48c1.175,5.233 3.642,10.037 6.483,14.399c2.863,4.359 6.275,8.226 9.996,11.546c7.458,6.655 16.129,11.092 24.696,13.43c8.592,2.274 17.067,2.429 24.508,1.045c15.029,-2.691 25.579,-10.183 31.675,-15.966c6.209,-5.875 8.479,-10.171 8.725,-9.984" style="fill:#fafafa;fill-rule:nonzero;"/><path d="M1657.56,1915.67c-0.221,0.316 -3.621,-2.334 -9.938,-4.83c-6.237,-2.512 -15.704,-4.52 -25.862,-2.729c-10.155,1.804 -18.359,6.946 -23.35,11.446c-5.075,4.513 -7.363,8.171 -7.68,7.946c-0.112,-0.075 0.334,-1.058 1.38,-2.7c1.045,-1.642 2.77,-3.896 5.25,-6.367c4.883,-4.937 13.341,-10.566 24.02,-12.462c10.684,-1.884 20.563,0.491 26.842,3.454c3.175,1.467 5.571,2.996 7.117,4.179c1.55,1.183 2.304,1.954 2.221,2.063" style="fill:#fafafa;fill-rule:nonzero;"/><g><g opacity="0.300003"><clipPath id="_clip1"><rect x="1473.7" y="1531.23" width="221.533" height="160.451" clip-rule="nonzero"/></clipPath><g clip-path="url(#_clip1)"><path d="M1611.79,1582.01c-31.32,-13.72 -66.416,-15.27 -99.462,-30.525l-38.629,-20.262c3.754,5.908 14.354,10.837 16.891,19.817c2.538,8.987 1.584,18.529 1.088,27.85c-1.325,24.875 0.833,49.925 6.387,74.208c3.463,15.137 10.059,31.962 24.738,37.046c9.825,3.404 20.592,0.471 30.567,-2.467c44.416,-13.075 97.445,-27.192 141.862,-40.275c-13.154,-31.558 -52.121,-51.675 -83.442,-65.392" style="fill-rule:nonzero;"/></g></g></g><path d="M1713.08,1438.82c-4.858,-23.296 -11.862,-47.071 -27.5,-65.009c-18.233,-20.916 -46.358,-31.27 -74.046,-33.016c-23.733,-1.5 -28.458,-13.183 -52.72,-9.225c-9.338,1.525 -18.221,5.125 -26.28,10.083c-33.97,20.888 -52.979,55.096 -62.887,95.371c-3.713,15.092 -3.875,33.867 8.716,42.975c9.113,6.592 22.046,5.704 31.246,12.171c10.225,7.187 12.854,21.541 10.729,33.862c-2.125,12.321 -7.983,23.65 -11.441,35.667c-8.383,29.108 -2.288,60.183 3.85,89.846c58.996,-1.717 117.992,-3.438 176.983,-5.159c6.825,-0.191 14.313,-0.658 19.271,-5.345c4.2,-3.971 5.542,-10.029 6.571,-15.717c11.129,-61.563 10.279,-125.267 -2.492,-186.504" style="fill:#1a2e35;fill-rule:nonzero;"/><path d="M1482.9,1442.63c-0.15,-0.02 0.005,-1.75 0.413,-4.875c0.183,-1.566 0.462,-3.475 0.962,-5.654c0.48,-2.187 0.917,-4.704 1.746,-7.404c1.413,-5.458 3.654,-11.817 6.654,-18.654c3.104,-6.788 7.029,-14.025 11.896,-21.15c4.938,-7.083 10.317,-13.325 15.559,-18.633c5.333,-5.23 10.475,-9.584 15.083,-12.842c2.225,-1.733 4.425,-3.038 6.3,-4.258c1.862,-1.238 3.546,-2.18 4.946,-2.909c2.775,-1.487 4.337,-2.246 4.408,-2.112c0.208,0.362 -5.904,3.687 -14.737,10.504c-4.43,3.375 -9.4,7.792 -14.58,13.021c-5.087,5.312 -10.333,11.491 -15.195,18.458c-4.788,7.017 -8.7,14.108 -11.863,20.754c-3.05,6.692 -5.417,12.904 -6.996,18.25c-3.246,10.667 -4.179,17.571 -4.596,17.504" style="fill:#375a64;fill-rule:nonzero;"/><path d="M1503.99,1467.67c-0.266,-0.012 -0.321,-4.55 0.354,-11.841c0.671,-7.288 2.2,-17.325 4.984,-28.163c2.804,-10.833 6.316,-20.358 9.254,-27.067c2.933,-6.708 5.171,-10.65 5.412,-10.533c0.3,0.138 -1.441,4.3 -3.991,11.108c-2.554,6.809 -5.8,16.309 -8.571,27.034c-2.754,10.729 -4.508,20.616 -5.563,27.804c-1.062,7.196 -1.55,11.683 -1.879,11.658" style="fill:#375a64;fill-rule:nonzero;"/><path d="M1677.06,1614.79c-0.075,0.016 -0.346,-0.963 -0.796,-2.855c-0.495,-1.879 -1.045,-4.687 -1.683,-8.32c-1.246,-7.271 -2.337,-17.921 -2.458,-31.113c-0.125,-13.196 0.846,-28.879 2.271,-46.208c1.383,-17.329 3.075,-36.384 2.595,-56.375c-0.529,-19.95 -3.554,-39 -9.991,-55.025c-6.409,-16.025 -15.788,-28.863 -25.313,-37.742c-9.587,-8.883 -19.108,-13.917 -25.954,-16.425c-3.446,-1.221 -6.15,-2.087 -8.042,-2.492c-1.87,-0.487 -2.85,-0.783 -2.837,-0.854c0.012,-0.075 1.017,0.071 2.929,0.425c1.938,0.275 4.704,1.013 8.238,2.129c7.012,2.292 16.82,7.196 26.704,16.088c9.825,8.887 19.5,21.85 26.129,38.125c6.662,16.283 9.775,35.587 10.308,55.717c0.479,20.162 -1.283,39.283 -2.775,56.595c-1.533,17.313 -2.658,32.913 -2.725,46.038c-0.079,13.121 0.775,23.721 1.759,30.992c0.504,3.637 0.92,6.458 1.27,8.362c0.313,1.908 0.446,2.921 0.371,2.938" style="fill:#375a64;fill-rule:nonzero;"/><path d="M1660.54,1612.17c-0.283,0.016 -0.912,-5.071 -1.429,-13.329c-0.517,-8.263 -0.858,-19.705 -0.612,-32.334c0.254,-12.637 1.054,-24.054 1.9,-32.287c0.841,-8.238 1.666,-13.292 1.954,-13.267c0.312,0.033 0.021,5.142 -0.425,13.383c-0.454,8.242 -1.004,19.625 -1.259,32.213c-0.245,12.583 -0.15,23.979 -0.025,32.233c0.125,8.254 0.209,13.367 -0.104,13.388" style="fill:#375a64;fill-rule:nonzero;"/><path d="M863.126,1495.76c1.687,22.858 3.371,45.72 5.054,68.579c-17.25,3.15 -35.158,5.121 -52.212,1.033c-17.055,-4.087 -33.259,-15.233 -39.35,-31.679c-1.171,-3.158 -1.959,-6.617 -1.175,-9.896c0.783,-3.279 3.504,-6.275 6.87,-6.458" style="fill:#ffbf9d;fill-rule:nonzero;"/><path d="M909.305,1422.61c2.7,-8.442 14.134,-13.479 14.234,-22.296c0.1,-9.175 -11.984,-14.158 -15.529,-22.717c-5.313,-12.841 10.458,-26.537 6.829,-39.879c-4.354,-15.987 -31.834,-17.704 -36.971,-33.487c-2.129,-6.534 -0.029,-14.75 -5.329,-19.45c-6.942,-6.154 -19.029,0.058 -27.709,-3.704c-8.062,-3.492 -10.137,-14.2 -18.158,-17.775c-8.55,-3.817 -17.987,2.4 -26.067,7.025c-2.429,1.391 -5.445,3.195 -8.575,4.816c-13.729,-4.471 -35.562,-3.858 -44.929,3.45c-11.016,8.596 -19.471,20.088 -31.721,27.071c-10.812,6.159 -24.287,8.638 -32.891,17.317c-15.354,15.491 -7.071,40.904 -14.925,60.704c-2.675,6.758 -7.221,12.746 -10.071,19.438c-2.854,6.695 -3.763,14.812 0.637,20.724c4.396,5.905 13.684,9.367 13.863,16.559c0.179,7.062 -9.142,12.25 -8.258,19.262c0.958,7.596 12.22,9.405 17.1,15.55c6.379,8.042 -0.125,20.517 5.475,29.046c6.054,9.221 20.6,7.271 31.816,9.929c19.509,4.634 34.017,25.9 53.85,22.696c7.609,-1.229 14.125,-6.075 21.738,-7.279c10.229,-1.621 20.187,3.542 30.475,4.813c18.583,2.287 35.95,-8.117 51.387,-18.059c7.892,-5.087 16.396,-10.983 18.463,-19.729c1.875,-7.921 -1.967,-16.896 2.287,-23.963c3.971,-6.595 13.65,-8.933 17.146,-15.758c5.45,-10.629 -7.779,-23.008 -4.167,-34.304" style="fill:#1a2e35;fill-rule:nonzero;"/><path d="M711.118,1340.6c-0.063,0.021 -0.304,-0.508 -0.575,-1.571c-0.275,-1.062 -0.529,-2.687 -0.442,-4.787c0.142,-4.142 1.95,-10.454 7.375,-15.833c5.384,-5.288 13.542,-9.717 23.45,-11.246c4.913,-0.609 10.675,-0.129 15.284,3.425c2.225,1.766 3.995,4.141 5.05,6.887c1.02,2.725 1.354,5.963 0.154,8.896c-1.071,2.963 -3.775,5.25 -6.821,5.867c-1.533,0.316 -3.238,0.171 -4.688,-0.625c-1.404,-0.817 -2.508,-2.167 -2.929,-3.679c-0.871,-3.038 0.054,-5.971 1.496,-8.313c1.592,-2.354 3.796,-3.958 6.163,-5.025c9.791,-4.062 20.045,0.883 23.825,7.442c4.133,6.533 4.1,13.071 3.629,17.108c-0.242,2.075 -0.696,3.638 -1.017,4.679c-0.367,1.029 -0.596,1.554 -0.667,1.538c-0.204,-0.059 0.584,-2.234 0.842,-6.292c0.217,-3.954 -0.046,-10.217 -4.062,-16.183c-1.975,-2.942 -5.009,-5.559 -8.963,-6.854c-3.875,-1.321 -8.6,-1.5 -12.767,0.383c-2.041,0.929 -3.987,2.429 -5.237,4.317c-1.192,1.925 -1.867,4.458 -1.208,6.57c0.604,2.117 2.845,3.392 5.154,2.821c2.308,-0.504 4.396,-2.2 5.233,-4.55c1.829,-4.746 -0.733,-10.346 -4.512,-13.329c-3.871,-3.042 -9.125,-3.637 -13.721,-3.1c-9.342,1.325 -17.434,5.496 -22.613,10.363c-5.271,4.95 -7.216,10.837 -7.608,14.791c-0.396,4.034 0.404,6.259 0.175,6.3" style="fill:#375a64;fill-rule:nonzero;"/><path d="M691.05,1421.13c-0.088,0.046 -0.93,-1.325 -1.717,-4.129c-0.758,-2.784 -1.375,-7.113 -0.321,-12.342c1.017,-5.15 3.917,-11.337 9.671,-15.783c5.604,-4.429 13.817,-7.134 22.262,-5.634l-1.254,1.225c-0.462,-2.908 -0.491,-6.041 -0.037,-9.15c1.387,-9.45 6.821,-17.575 13.637,-22.191c6.871,-4.717 14.675,-5.696 20.738,-5.05c6.162,0.654 10.779,2.862 13.625,4.716c1.421,0.946 2.471,1.763 3.104,2.4c0.654,0.613 0.967,0.963 0.917,1.021c-0.13,0.154 -1.546,-1.079 -4.455,-2.7c-2.9,-1.579 -7.429,-3.475 -13.325,-3.908c-5.812,-0.433 -13.141,0.683 -19.462,5.158c-6.3,4.392 -11.342,12.05 -12.633,20.863c-0.421,2.9 -0.4,5.808 0.012,8.504l0.229,1.5l-1.487,-0.271c-7.734,-1.421 -15.417,0.992 -20.709,5.029c-5.412,4.034 -8.275,9.709 -9.433,14.584c-1.183,4.929 -0.825,9.1 -0.317,11.854c0.525,2.775 1.117,4.241 0.955,4.304" style="fill:#375a64;fill-rule:nonzero;"/><path d="M835.56,1306.94c-0.104,0.342 -2.908,-0.533 -7.508,-0.762c-4.562,-0.246 -11.054,0.425 -17.296,3.529c-6.237,3.112 -10.679,7.896 -13.225,11.687c-2.596,3.813 -3.579,6.575 -3.916,6.455c-0.234,-0.059 0.241,-3.055 2.612,-7.267c2.321,-4.179 6.871,-9.479 13.563,-12.817c6.691,-3.333 13.662,-3.775 18.395,-3.112c4.792,0.641 7.467,2.066 7.375,2.287" style="fill:#375a64;fill-rule:nonzero;"/><path d="M895.951,1417.14c-0.171,-0.108 0.787,-1.521 1.9,-4.317c1.05,-2.795 2.179,-7.1 1.737,-12.433c-0.45,-5.233 -2.533,-11.65 -7.612,-16.458c-4.946,-4.846 -12.821,-7.625 -20.804,-6.846c-3.634,0.396 -7.092,1.525 -10.042,3.254l-2.229,1.304l0.646,-2.491c1.675,-6.459 -0.488,-13.134 -4.159,-17.371c-3.679,-4.379 -8.862,-6.129 -13.075,-6.367c-4.279,-0.262 -7.675,0.808 -9.833,1.763c-2.171,0.983 -3.237,1.795 -3.342,1.658c-0.062,-0.071 0.85,-1.096 3.005,-2.333c2.133,-1.209 5.65,-2.567 10.229,-2.48c4.483,0.05 10.254,1.775 14.425,6.53c4.125,4.583 6.637,11.845 4.812,19.145l-1.579,-1.187c3.217,-1.917 6.988,-3.154 10.921,-3.588c8.633,-0.837 17.1,2.217 22.417,7.575c5.445,5.334 7.47,12.259 7.75,17.792c0.266,5.638 -1.163,10.088 -2.492,12.867c-0.713,1.383 -1.321,2.421 -1.842,3.054c-0.487,0.658 -0.771,0.975 -0.833,0.929" style="fill:#375a64;fill-rule:nonzero;"/><path d="M672.631,1803.44c0,0 -51.45,10.375 -59.141,4.879c-7.692,-5.492 -36.263,-24.175 -31.867,-49.446c4.396,-25.275 57.137,-205.479 68.125,-218.667c10.992,-13.183 21.979,-26.371 43.954,-25.271c21.975,1.096 165.921,31.867 165.921,31.867c0,0 59.337,-3.296 71.425,5.496c12.083,8.787 39.554,25.271 39.554,56.037c0,30.767 -6.087,241.667 -6.087,241.667l16.012,77.429l-316.717,0l8.821,-123.991" style="fill:#7483b0;fill-rule:nonzero;"/><path d="M672.631,1803.44c-0.6,0.045 -4.387,-41.842 -8.462,-93.546c-4.075,-51.721 -6.896,-93.679 -6.296,-93.725c0.596,-0.046 4.383,41.833 8.458,93.554c4.075,51.704 6.896,93.667 6.3,93.717" style="fill:#1a2e35;fill-rule:nonzero;"/><path d="M970.332,1603.01c-0.012,0.075 -1.154,-0.079 -3.308,-0.433c-2.346,-0.408 -5.475,-0.958 -9.4,-1.65c-8.379,-1.504 -20.125,-3.621 -34.546,-6.212c-29.175,-5.18 -69.563,-11.896 -114.333,-18.167c-44.792,-6.246 -85.475,-10.858 -114.955,-13.879c-14.579,-1.454 -26.454,-2.642 -34.92,-3.492c-3.967,-0.412 -7.125,-0.737 -9.496,-0.987c-2.167,-0.25 -3.304,-0.417 -3.3,-0.492c0.008,-0.075 1.154,-0.054 3.337,0.058c2.379,0.146 5.55,0.338 9.525,0.579c8.275,0.538 20.234,1.488 35,2.809c29.534,2.629 70.279,7.004 115.109,13.258c44.808,6.275 85.187,13.238 114.312,18.8c14.563,2.779 26.325,5.146 34.429,6.9c3.892,0.854 6.996,1.538 9.325,2.05c2.125,0.492 3.234,0.783 3.221,0.858" style="fill:#fafafa;fill-rule:nonzero;"/><path d="M964.515,1679.79c-0.004,0.079 -1.075,0.096 -3.108,0.075c-2.246,-0.054 -5.204,-0.13 -8.9,-0.217c-7.729,-0.225 -18.904,-0.692 -32.708,-1.392c-27.609,-1.387 -65.725,-3.887 -107.734,-7.72c-42.02,-3.855 -79.962,-8.309 -107.366,-11.95c-13.704,-1.817 -24.779,-3.384 -32.417,-4.571c-3.65,-0.579 -6.571,-1.046 -8.792,-1.396c-2.004,-0.346 -3.054,-0.563 -3.045,-0.638c0.012,-0.075 1.083,-0.004 3.108,0.2c2.229,0.255 5.171,0.584 8.842,0.996c7.912,0.95 18.95,2.267 32.491,3.883c27.442,3.25 65.384,7.467 107.375,11.317c41.979,3.829 80.05,6.567 107.625,8.35c13.613,0.867 24.709,1.571 32.659,2.075c3.687,0.258 6.641,0.467 8.879,0.625c2.029,0.167 3.096,0.288 3.091,0.363" style="fill:#fafafa;fill-rule:nonzero;"/><path d="M969.36,1751.33c0.008,0.075 -1.013,0.275 -2.963,0.592c-2.171,0.316 -5.017,0.737 -8.562,1.262c-7.434,1.088 -18.23,2.388 -31.596,3.746c-26.729,2.737 -63.821,5.208 -104.842,5.246c-41.033,-0.009 -78.129,-2.454 -104.858,-5.175c-13.371,-1.35 -24.167,-2.642 -31.6,-3.721c-3.546,-0.525 -6.388,-0.946 -8.559,-1.263c-1.954,-0.312 -2.975,-0.512 -2.962,-0.587c0.008,-0.071 1.05,-0.017 3.017,0.154c2.183,0.217 5.041,0.5 8.604,0.854c7.462,0.825 18.271,1.884 31.637,3.034c26.734,2.329 63.767,4.525 104.721,4.533c40.938,-0.038 77.967,-2.258 104.7,-4.6c13.367,-1.167 24.175,-2.233 31.638,-3.058c3.562,-0.359 6.425,-0.642 8.604,-0.863c1.971,-0.175 3.012,-0.229 3.021,-0.154" style="fill:#fafafa;fill-rule:nonzero;"/><path d="M963.745,1857.46c0,0.079 -1.03,0.179 -2.992,0.3c-2.179,0.108 -5.029,0.25 -8.588,0.421c-7.708,0.254 -18.441,0.612 -31.6,1.05c-26.687,0.742 -63.562,1.475 -104.295,1.696c-40.746,0.237 -77.642,-0.159 -104.334,-1.042c-13.341,-0.487 -24.141,-0.904 -31.591,-1.45c-3.55,-0.25 -6.4,-0.458 -8.575,-0.612c-1.959,-0.163 -2.988,-0.284 -2.984,-0.363c0.004,-0.075 1.042,-0.096 3.009,-0.075c2.179,0.054 5.033,0.125 8.591,0.208c7.454,0.288 18.254,0.471 31.588,0.759c26.683,0.487 63.55,0.637 104.283,0.408c40.613,-0.412 77.371,-0.787 104.275,-1.062c13.167,-0.15 23.9,-0.271 31.613,-0.359c3.558,-0.008 6.416,-0.012 8.595,-0.016c1.967,0.02 3.005,0.062 3.005,0.137" style="fill:#fafafa;fill-rule:nonzero;"/><path d="M665.252,1711.69c-0.175,0.575 -15.058,-3.417 -33.242,-8.917c-18.187,-5.496 -32.783,-10.417 -32.612,-10.987c0.175,-0.575 15.054,3.416 33.242,8.912c18.183,5.496 32.787,10.417 32.612,10.992" style="fill:#fafafa;fill-rule:nonzero;"/><path d="M205.385,1566.04c-1.009,-24.534 -22.255,-68.767 -30.963,-112.234c-4.446,-22.204 -7.083,-41.958 7.225,-59.516c12.146,-14.904 29.117,-24.95 45.838,-34.446c26.62,-15.108 54.729,-29.967 85.295,-31.629c19.905,-1.088 41.405,4.471 54.117,19.829c10.45,12.617 13.425,29.671 15.483,45.925c3.421,27.017 5.35,54.229 5.767,81.462c0.221,14.15 0,28.534 -4.054,42.092c-4.054,13.563 -12.442,26.396 -25.008,32.904c-10.842,5.609 -23.763,6.109 -34.6,11.717c-10.834,5.617 -18.821,20.675 -10.771,29.85l-71.671,19.587l-36.658,-45.541Z" style="fill:#b66955;fill-rule:nonzero;"/><path d="M190.427,1530.24c7.629,15.213 20.979,27.913 37.283,32.796c16.305,4.884 35.4,1.117 47.305,-11.046c7.058,-7.216 11.241,-16.666 16.02,-25.554c4.784,-8.887 10.721,-17.775 19.721,-22.333c9.009,-4.558 21.742,-3.108 26.954,5.537c1.671,2.771 2.692,6.275 5.58,7.73c3.612,1.825 8.183,-0.963 9.737,-4.7c1.554,-3.734 0.95,-7.98 0.292,-11.971c-2.471,-14.913 -5.396,-29.896 -4.854,-45c0.541,-15.104 4.933,-30.638 15.304,-41.638c7.966,-8.446 18.741,-13.562 28.258,-20.216c9.517,-6.655 18.413,-16.063 19.208,-27.65c0.713,-10.355 -5.337,-20.138 -13.016,-27.125c-16.763,-15.242 -82.459,-26.984 -103.45,-18.459c0,0 -88.238,38.367 -92.584,41.454c-4.345,3.084 -36.308,14.3 -35.387,53.246c0.917,38.946 23.629,114.929 23.629,114.929" style="fill:#1a2e35;fill-rule:nonzero;"/><path d="M205.385,1566.04c-1.009,-24.534 -22.255,-68.767 -30.963,-112.234c-4.446,-22.204 -7.083,-41.958 7.225,-59.516c12.146,-14.904 29.117,-24.95 45.838,-34.446c26.62,-15.108 54.729,-29.967 85.295,-31.629c19.905,-1.088 41.405,4.471 54.117,19.829c10.45,12.617 13.425,29.671 15.483,45.925c3.421,27.017 5.35,54.229 5.767,81.462c0.221,14.15 0,28.534 -4.054,42.092c-4.054,13.563 -12.442,26.396 -25.008,32.904c-10.842,5.609 -23.763,6.109 -34.6,11.717c-10.834,5.617 -18.821,20.675 -10.771,29.85l-71.671,19.587l-36.658,-45.541Z" style="fill:#b66955;fill-rule:nonzero;"/><path d="M412.697,1336.73c-4.217,-4.225 -12.3,-4.354 -15.688,0.562c5.309,-7.512 3.484,-19.116 -3.871,-24.637c-7.358,-5.525 -19.008,-4.029 -24.737,3.162c4.112,-7.412 0.775,-17.462 -6.071,-22.466c-6.842,-5.009 -16.171,-5.588 -24.358,-3.38c-8.188,2.209 -15.471,6.884 -22.429,11.725c0.17,-5.625 -3.692,-10.82 -8.63,-13.512c-4.941,-2.692 -10.775,-3.246 -16.395,-3c-21.825,0.937 -42.767,13.804 -53.463,32.858c-10.988,-4.45 -24.479,-1.816 -32.987,6.434c-8.509,8.245 -11.559,21.65 -7.459,32.766c-11.8,1.863 -20.833,13.679 -20.512,25.45c-5.529,7.792 -9.638,18.329 -9.3,32.617c0.916,38.946 23.633,114.929 23.633,114.929c7.625,15.217 20.975,27.917 37.279,32.796c16.304,4.883 35.4,1.117 47.304,-11.046c7.059,-7.212 11.242,-16.667 16.025,-25.554c4.784,-8.888 10.721,-17.771 19.721,-22.333c9.004,-4.559 19.388,-1.413 29.079,1.412c8.829,2.567 8.821,-3.162 9.355,-9.858l-0.73,-39.954c0.542,-15.105 4.938,-30.642 15.305,-41.638c7.966,-8.45 18.741,-13.562 28.258,-20.221c9.517,-6.654 18.412,-16.058 19.208,-27.65c0.121,-1.708 -0.008,-3.391 -0.237,-5.062c1.887,-2.321 3.466,-4.859 4.487,-7.667c2.038,-5.612 1.429,-12.504 -2.787,-16.733" style="fill:#1a2e35;fill-rule:nonzero;"/><path d="M294.561,1402.47c0.096,0.017 -0.021,1.58 -1.025,4.229c-1.004,2.617 -3.033,6.359 -6.912,9.809c-3.8,3.408 -9.717,6.504 -16.809,6.458c-6.958,0.029 -14.895,-2.904 -20.35,-9.267l1.713,-0.091c-1.713,2.558 -3.942,4.954 -6.538,6.962c-7.45,5.725 -16.85,7.688 -24.816,6.263c-8.059,-1.467 -14.196,-6.163 -17.963,-10.829c-3.829,-4.73 -5.504,-9.471 -6.187,-12.738c-0.321,-1.646 -0.479,-2.942 -0.471,-3.825c-0.025,-0.879 0.004,-1.337 0.079,-1.346c0.2,-0.016 0.325,1.83 1.208,4.971c0.917,3.109 2.746,7.567 6.546,11.954c3.742,4.33 9.634,8.592 17.125,9.838c7.425,1.229 16.217,-0.671 23.15,-6.004c2.421,-1.871 4.488,-4.084 6.084,-6.442l0.795,-1.179l0.917,1.083c4.942,5.829 12.267,8.659 18.725,8.746c6.554,0.162 12.125,-2.538 15.867,-5.642c3.8,-3.129 5.937,-6.591 7.125,-9.033c1.191,-2.467 1.566,-3.958 1.737,-3.917" style="fill:#375a64;fill-rule:nonzero;"/><path d="M351.869,1376.12c0.163,-0.159 1.821,2.52 0.8,7.079c-0.516,2.212 -1.721,4.758 -3.854,6.941c-2.133,2.2 -5.158,3.838 -8.512,4.671c-6.821,1.667 -13.067,-0.166 -17.055,-1.737c-4.054,-1.654 -6.308,-3.134 -6.191,-3.375c0.129,-0.3 2.629,0.683 6.695,1.925c4.03,1.179 9.892,2.596 16.03,1.079c3.025,-0.746 5.712,-2.154 7.629,-3.988c1.933,-1.825 3.142,-4 3.779,-5.925c1.288,-3.933 0.308,-6.595 0.679,-6.67" style="fill:#375a64;fill-rule:nonzero;"/><path d="M392.708,1361.88c0.229,-0.008 0.479,2.821 -1.138,7c-1.55,4.104 -5.404,9.517 -11.75,12.438c-6.362,2.883 -12.975,2.258 -17.091,0.741c-4.221,-1.512 -6.192,-3.55 -6.042,-3.721c0.2,-0.304 2.433,1.213 6.483,2.25c3.98,1.059 10.017,1.355 15.75,-1.245c5.717,-2.63 9.446,-7.392 11.246,-11.092c1.867,-3.738 2.179,-6.425 2.542,-6.371" style="fill:#375a64;fill-rule:nonzero;"/><path d="M343.103,1333.86c-0.225,0.404 -4.113,-3.708 -12.355,-5.175c-4.041,-0.679 -9.129,-0.546 -14.108,1.554c-4.933,2.112 -9.608,6.283 -12.408,11.854c-1.55,3.046 -2.4,6.313 -2.617,9.458l-2.108,-0.166c0.433,-4.684 -4.05,-8.242 -7.917,-9.038c-4,-0.912 -7.783,0.663 -10.437,2.238c-5.35,3.462 -7.709,6.787 -7.98,6.508c-0.095,-0.079 0.413,-0.929 1.55,-2.337c1.155,-1.388 2.921,-3.392 5.692,-5.313c2.725,-1.821 6.746,-3.804 11.558,-2.896c2.321,0.479 4.659,1.575 6.584,3.417c1.908,1.796 3.341,4.608 3.054,7.637l-2.108,-0.166c0.195,-3.442 1.112,-7.017 2.795,-10.321c3.034,-6.042 8.15,-10.525 13.575,-12.721c5.467,-2.183 10.925,-2.129 15.163,-1.217c4.287,0.9 7.412,2.705 9.367,4.096c1.941,1.454 2.779,2.504 2.7,2.588" style="fill:#375a64;fill-rule:nonzero;"/><path d="M303.999,1303.66c0,0.346 -1.991,0.404 -4.904,1.362c-2.887,0.934 -6.742,2.996 -9.546,6.638c-2.796,3.65 -3.8,7.904 -3.954,10.937c-0.175,3.063 0.279,4.996 -0.054,5.088c-0.233,0.087 -1.254,-1.75 -1.479,-5.084c-0.246,-3.275 0.596,-8.12 3.766,-12.262c3.184,-4.129 7.65,-6.192 10.875,-6.796c3.279,-0.646 5.321,-0.133 5.296,0.117" style="fill:#375a64;fill-rule:nonzero;"/><path d="M222.908,1352.33c-0.225,-0.012 0.454,-3.137 4.279,-6.05c1.883,-1.408 4.488,-2.658 7.592,-3.154c3.108,-0.504 6.604,-0.15 9.991,0.958c6.838,2.279 11.642,6.771 14.775,9.946c3.134,3.271 4.817,5.492 4.617,5.688c-0.225,0.225 -2.317,-1.634 -5.667,-4.571c-3.366,-2.863 -8.112,-6.917 -14.4,-8.996c-3.116,-1.025 -6.266,-1.388 -9.037,-1.042c-2.783,0.338 -5.192,1.313 -7.004,2.438c-3.667,2.291 -4.821,4.979 -5.146,4.783" style="fill:#375a64;fill-rule:nonzero;"/><path d="M265.079,1385.76c-0.496,0.284 -2.829,-5.104 -1.037,-11.75c1.725,-6.671 6.408,-10.204 6.7,-9.708c0.466,0.442 -3.084,4.271 -4.6,10.258c-1.638,5.959 -0.442,11.042 -1.063,11.2" style="fill:#375a64;fill-rule:nonzero;"/><path d="M498.803,1546.65l-60.417,19.641l11.588,111.055l-4.267,8.445l-44.887,73.621c-0.796,1.275 45.541,12.159 63.016,15.896c21.771,4.654 79.221,0.004 70.679,-72.146c-6.037,-51.041 -35.712,-156.512 -35.712,-156.512" style="fill:#b66955;fill-rule:nonzero;"/><path d="M433.679,1466.95c-9.542,4.621 -16.146,14.767 -16.513,25.362c-0.054,1.471 0.029,3.03 0.813,4.28c1.462,2.316 4.883,2.666 7.358,1.5c2.479,-1.171 4.225,-3.434 5.879,-5.617" style="fill:#b66955;fill-rule:nonzero;"/><path d="M431.213,1492.48c0.117,0.087 -0.196,0.767 -0.933,1.896c-0.763,1.1 -1.905,2.787 -4.113,4.158c-1.112,0.675 -2.571,1.138 -4.15,1.096c-1.542,-0.038 -3.425,-0.571 -4.642,-2.167c-1.233,-1.6 -1.329,-3.637 -1.262,-5.366c0.087,-1.775 0.287,-3.609 0.737,-5.438c1.73,-7.396 6.167,-12.992 9.95,-16.008c3.825,-3.079 6.8,-3.913 6.88,-3.696c0.166,0.321 -2.5,1.642 -5.863,4.846c-3.346,3.158 -7.254,8.504 -8.854,15.354c-0.421,1.696 -0.613,3.392 -0.725,5.029c-0.104,1.629 0.025,3.125 0.737,4.079c1.48,2 4.675,1.875 6.459,0.925c1.954,-0.987 3.258,-2.429 4.187,-3.341c0.921,-0.946 1.471,-1.459 1.592,-1.367" style="fill:#8e3823;fill-rule:nonzero;"/><path d="M469.122,1467.2c0,0 -29.746,11.891 -33.404,21.466c-3.655,9.579 -10.305,45.309 -10.305,45.309l13.192,34.591l59.179,-11.816c0,0 9.088,-70.517 9.721,-72.617c0,0 20.608,-59.013 20.571,-64.433c-0.054,-7.309 -5.808,-9.709 -12.958,-1.188c-7.155,8.525 -23.101,41.104 -23.101,41.104l-22.895,7.584Z" style="fill:#b66955;fill-rule:nonzero;"/><path d="M463.582,1453.04c-6.025,-0.367 -12.367,-0.458 -17.725,2.313c-5.15,2.666 -8.742,7.72 -10.813,13.141c-2.075,5.417 -2.804,11.238 -3.517,16.996c-0.537,4.333 -0.724,9.542 2.784,12.146c1.712,1.275 4.108,1.567 6.083,0.75c1.971,-0.821 3.45,-2.725 3.758,-4.842" style="fill:#b66955;fill-rule:nonzero;"/><path d="M444.152,1493.55c0.104,-0.017 0.296,1.25 -0.858,3.075c-0.579,0.879 -1.542,1.871 -3.004,2.454c-1.45,0.571 -3.35,0.679 -5.209,-0.1c-1.871,-0.767 -3.466,-2.583 -4.146,-4.783c-0.716,-2.184 -0.762,-4.575 -0.591,-6.984c0.487,-4.745 0.996,-9.908 2.45,-15.304c1.437,-5.371 4.041,-10.296 7.596,-13.729c3.512,-3.533 7.97,-5.121 11.558,-5.592c3.637,-0.508 6.562,-0.283 8.558,-0.108c1.996,0.196 3.084,0.421 3.075,0.567c0.013,0.446 -4.508,-0.113 -11.371,1.05c-3.391,0.654 -7.283,2.216 -10.408,5.5c-3.171,3.212 -5.546,7.766 -6.917,12.887c-1.387,5.109 -1.97,10.3 -2.55,14.9c-0.22,2.271 -0.216,4.442 0.317,6.275c0.496,1.838 1.663,3.246 3.063,3.925c2.966,1.434 5.812,-0.025 6.904,-1.466c1.216,-1.442 1.35,-2.613 1.533,-2.567" style="fill:#8e3823;fill-rule:nonzero;"/><path d="M491.121,1458.79c-3.817,-3.842 -7.942,-7.855 -13.229,-8.996c-5.721,-1.238 -11.759,1.25 -16.075,5.196c-4.321,3.945 -7.2,9.2 -9.775,14.454c-2.15,4.383 -4.142,8.846 -5.975,13.375c-0.984,2.429 -1.929,4.921 -2.167,7.533c-0.242,2.613 0.313,5.4 2.029,7.383c2.6,2.996 7.392,3.396 10.934,1.605c3.537,-1.788 5.92,-5.334 7.237,-9.075" style="fill:#b66955;fill-rule:nonzero;"/><path d="M464.1,1490.26c0.109,0.034 -0.116,1.542 -1.391,3.963c-1.259,2.254 -3.879,6.079 -9.146,6.879c-2.492,0.342 -5.604,-0.146 -7.925,-2.375c-2.317,-2.242 -3.096,-5.783 -2.667,-9.096c0.454,-3.354 1.775,-6.504 3.184,-9.617c1.404,-3.162 2.85,-6.42 4.333,-9.762c3.046,-6.588 6.662,-12.963 11.896,-17.058c5.146,-4.096 11.621,-5.492 16.475,-3.95c4.841,1.525 7.683,4.508 9.583,6.341c1.871,1.934 2.779,3.1 2.679,3.2c-0.112,0.117 -1.233,-0.862 -3.25,-2.583c-2.037,-1.625 -5,-4.3 -9.416,-5.479c-4.371,-1.192 -10.142,0.191 -14.821,4.033c-4.742,3.825 -8.171,9.892 -11.188,16.442c-1.483,3.296 -2.929,6.512 -4.329,9.637c-1.45,3.1 -2.729,6.142 -3.162,9.054c-0.425,2.884 0.22,5.809 1.958,7.567c1.725,1.775 4.304,2.333 6.475,2.117c4.504,-0.446 7.192,-3.734 8.596,-5.784c1.441,-2.183 1.941,-3.595 2.116,-3.529" style="fill:#8e3823;fill-rule:nonzero;"/><path d="M470.296,1512.77c-1.3,-6.766 -2.604,-13.533 -3.904,-20.304c-7.454,-1.171 -14.6,-4.237 -20.592,-8.825c-2,-5.362 0.808,-8.754 8.183,-10.825c7.375,-2.075 31.071,1.35 33.667,2.75c9.05,4.892 10.129,17.538 11.425,27.746" style="fill:#b66955;fill-rule:nonzero;"/><path d="M499.074,1503.32c-0.15,0.02 -0.5,-1.696 -1.034,-4.792c-0.591,-3.071 -1.183,-7.625 -3.162,-12.767c-1.017,-2.533 -2.496,-5.183 -4.775,-7.321c-1.171,-0.908 -2.55,-2.125 -3.975,-2.379c-1.625,-0.421 -3.408,-0.746 -5.225,-1.025c-7.263,-1.066 -15.479,-2.116 -23.817,-1.621c-3.025,0.267 -6.175,1.35 -8.491,2.946c-1.159,0.821 -1.95,1.884 -2.246,3.088c-0.259,1.216 -0.05,2.558 0.421,3.833l-0.342,-0.458c6.621,5.125 13.921,7.783 20.092,8.854l0.575,0.096l0.091,0.546c0.992,5.929 1.834,10.92 2.5,14.916c0.542,3.538 0.767,5.513 0.609,5.542c-0.155,0.029 -0.68,-1.888 -1.488,-5.375c-0.858,-3.954 -1.933,-8.9 -3.204,-14.775l0.662,0.642c-6.429,-0.905 -14.1,-3.513 -21.095,-8.8l-0.23,-0.175l-0.108,-0.288c-0.562,-1.479 -0.912,-3.225 -0.542,-5.025c0.405,-1.8 1.621,-3.35 3.03,-4.346c2.866,-1.958 6.062,-3.029 9.566,-3.379c8.813,-0.517 16.942,0.621 24.346,1.804c1.854,0.321 3.638,0.671 5.417,1.167c2.066,0.529 3.304,1.787 4.683,2.9c2.508,2.467 4.004,5.396 4.979,8.092c1.884,5.462 2.225,10.07 2.567,13.195c0.279,3.142 0.342,4.884 0.196,4.905" style="fill:#8e3823;fill-rule:nonzero;"/><path d="M464.088,1505.67c-0.037,0.338 -2.196,0.2 -5.546,0.696c-3.329,0.479 -7.9,1.792 -12.1,4.687c-4.2,2.896 -7.05,6.7 -8.683,9.642c-1.658,2.954 -2.292,5.025 -2.621,4.938c-0.25,-0.05 -0.146,-2.296 1.246,-5.613c1.358,-3.287 4.242,-7.592 8.829,-10.754c4.579,-3.163 9.629,-4.325 13.188,-4.425c3.596,-0.125 5.733,0.575 5.687,0.829" style="fill:#8e3823;fill-rule:nonzero;"/><path d="M486.303,1695.76c-0.292,0.55 -8.492,-3.35 -18.783,-7.675c-10.288,-4.354 -18.796,-7.504 -18.609,-8.096c0.167,-0.554 9.059,1.7 19.45,6.1c10.4,4.375 18.221,9.167 17.942,9.671" style="fill:#8e3823;fill-rule:nonzero;"/><path d="M282.659,1578.06c3.813,-1.271 63.692,9.5 81.1,17.241c9.846,4.371 93.213,72.013 93.213,72.013l-61.238,100.441l-40.162,-14.604l-0.467,175.7l-249.929,-0.666l5.429,-280.6c0,0 17.946,-73.58 48.45,-82.471c30.504,-8.9 123.604,12.946 123.604,12.946" style="fill:#62cee7;fill-rule:nonzero;"/><path d="M350.118,1755.78c-0.013,0.075 -0.717,-0.03 -2.05,-0.288c-1.317,-0.321 -3.334,-0.55 -5.78,-1.391c-4.979,-1.384 -12.004,-4.242 -19.783,-9.309c-7.787,-5.029 -16.121,-12.612 -23.058,-22.787c-6.946,-10.121 -12.221,-23.046 -13.513,-37.267c-1.062,-14.246 2.025,-27.862 7.213,-38.987c5.175,-11.18 12.154,-20.03 19.008,-26.267c6.842,-6.271 13.304,-10.246 17.983,-12.425c2.275,-1.229 4.23,-1.788 5.475,-2.321c1.271,-0.475 1.946,-0.692 1.975,-0.621c0.359,0.563 -11.116,3.784 -24.379,16.484c-6.591,6.262 -13.287,15.016 -18.241,25.979c-4.971,10.908 -7.896,24.166 -6.871,37.979c1.258,13.792 6.316,26.383 13.008,36.329c6.688,9.996 14.725,17.538 22.258,22.638c15.167,10.345 27.017,11.641 26.755,12.254" style="fill:#1a2e35;fill-rule:nonzero;"/><path d="M307.59,1916.32c-0.6,-0.037 0.892,-35.096 3.325,-78.3c2.438,-43.221 4.896,-78.217 5.496,-78.187c0.596,0.037 -0.892,35.087 -3.329,78.308c-2.434,43.204 -4.892,78.212 -5.492,78.179" style="fill:#1a2e35;fill-rule:nonzero;"/><path d="M244.193,1812.26c0.1,0.112 -1.158,1.412 -3.525,3.662c-2.354,2.263 -5.85,5.438 -10.242,9.279c-8.779,7.696 -21.225,17.971 -35.5,28.638c-14.283,10.654 -27.675,19.671 -37.546,25.896c-4.937,3.116 -8.97,5.566 -11.808,7.187c-2.833,1.625 -4.433,2.463 -4.512,2.333c-0.08,-0.125 1.37,-1.208 4.062,-3.05c3.067,-2.083 6.888,-4.675 11.417,-7.75c9.637,-6.545 22.846,-15.733 37.091,-26.354c14.23,-10.633 26.792,-20.687 35.805,-28.071c4.237,-3.466 7.808,-6.391 10.679,-8.741c2.529,-2.059 3.979,-3.138 4.079,-3.029" style="fill:#1a2e35;fill-rule:nonzero;"/><path d="M145.513,1643.17c-0.512,-0.379 4.371,-7.563 9.3,-17.004c4.975,-9.425 8.117,-17.517 8.717,-17.313c0.538,0.163 -1.729,8.713 -6.796,18.321c-5.029,9.625 -10.783,16.346 -11.221,15.996" style="fill:#fafafa;fill-rule:nonzero;"/><path d="M162.754,1736.61c-0.434,0.366 -6.463,-6.204 -12.254,-15.509c-5.83,-9.283 -9.1,-17.575 -8.575,-17.808c0.566,-0.267 4.666,7.508 10.412,16.658c5.713,9.171 10.904,16.263 10.417,16.659" style="fill:#fafafa;fill-rule:nonzero;"/><path d="M229.467,1652.5c0.446,0.4 -5.721,8.021 -13.775,17.025c-8.054,9 -14.946,15.975 -15.392,15.575c-0.445,-0.396 5.721,-8.021 13.775,-17.025c8.055,-9 14.946,-15.975 15.392,-15.575" style="fill:#fafafa;fill-rule:nonzero;"/><path d="M250.008,1762.33c-0.567,-0.28 4.087,-10.509 8.866,-23.48c4.821,-12.958 7.942,-23.754 8.554,-23.6c0.555,0.125 -1.65,11.259 -6.516,24.355c-4.829,13.1 -10.404,22.987 -10.904,22.725" style="fill:#fafafa;fill-rule:nonzero;"/><path d="M207.008,1811.32c-0.6,0.029 -1.466,-8.017 -1.937,-17.967c-0.471,-9.946 -0.367,-18.038 0.233,-18.063c0.596,-0.029 1.463,8.009 1.938,17.963c0.466,9.95 0.366,18.037 -0.234,18.067" style="fill:#fafafa;fill-rule:nonzero;"/><path d="M166.666,1865.58c-0.471,0.367 -6.983,-7.221 -14.541,-16.95c-7.563,-9.729 -13.309,-17.913 -12.834,-18.283c0.471,-0.367 6.984,7.22 14.546,16.95c7.558,9.729 13.304,17.916 12.829,18.283" style="fill:#fafafa;fill-rule:nonzero;"/><path d="M221.138,1900.52c-0.596,0.055 -1.654,-6.237 -2.367,-14.054c-0.712,-7.821 -0.808,-14.2 -0.212,-14.254c0.596,-0.058 1.658,6.238 2.371,14.054c0.712,7.817 0.808,14.2 0.208,14.254" style="fill:#fafafa;fill-rule:nonzero;"/><path d="M282.171,1874.62c-0.496,0.338 -5.721,-6.483 -11.667,-15.229c-5.95,-8.75 -10.366,-16.108 -9.871,-16.45c0.496,-0.337 5.717,6.479 11.667,15.233c5.946,8.742 10.367,16.109 9.871,16.446" style="fill:#fafafa;fill-rule:nonzero;"/><path d="M303.36,1791.57c-0.087,0.595 -4.187,0.5 -9.162,-0.213c-4.975,-0.712 -8.938,-1.771 -8.854,-2.362c0.087,-0.592 4.187,-0.496 9.162,0.216c4.975,0.709 8.942,1.767 8.854,2.359" style="fill:#fafafa;fill-rule:nonzero;"/><path d="M346.144,1837.97c-0.516,0.304 -5.354,-6.938 -10.8,-16.175c-5.45,-9.242 -9.45,-16.975 -8.933,-17.28c0.517,-0.308 5.35,6.938 10.8,16.18c5.45,9.233 9.45,16.97 8.933,17.275" style="fill:#fafafa;fill-rule:nonzero;"/><path d="M345.184,1877.28c0.554,0.233 -1.679,6.763 -4.988,14.583c-3.304,7.825 -6.433,13.975 -6.987,13.742c-0.55,-0.237 1.683,-6.762 4.991,-14.587c3.305,-7.821 6.434,-13.975 6.984,-13.738" style="fill:#fafafa;fill-rule:nonzero;"/><path d="M318.803,1698.07c-0.521,0.221 -3.875,-7.05 -5.542,-16.717c-1.717,-9.654 -1.025,-17.629 -0.463,-17.6c0.634,0.004 0.925,7.808 2.6,17.225c1.621,9.429 4,16.867 3.405,17.092" style="fill:#fafafa;fill-rule:nonzero;"/><path d="M342.773,1636.2c-0.246,-0.55 4.742,-3.3 11.137,-6.146c6.396,-2.841 11.78,-4.704 12.021,-4.158c0.246,0.546 -4.741,3.296 -11.137,6.142c-6.396,2.846 -11.779,4.708 -12.021,4.162" style="fill:#fafafa;fill-rule:nonzero;"/><path d="M372.973,1691.14c-0.529,0.275 -4.271,-5.812 -8.354,-13.6c-4.084,-7.787 -6.963,-14.325 -6.434,-14.608c0.534,-0.275 4.271,5.812 8.355,13.604c4.083,7.783 6.962,14.325 6.433,14.604" style="fill:#fafafa;fill-rule:nonzero;"/><path d="M413.887,1673.28c-0.512,0.317 -4.733,-5.591 -9.433,-13.195c-4.704,-7.6 -8.1,-14.021 -7.592,-14.334c0.508,-0.321 4.733,5.588 9.438,13.196c4.7,7.6 8.095,14.021 7.587,14.333" style="fill:#fafafa;fill-rule:nonzero;"/><path d="M401.267,1723.35c0.163,0.575 -7.196,3.154 -16.433,5.754c-9.246,2.6 -16.867,4.237 -17.029,3.662c-0.163,-0.575 7.195,-3.15 16.441,-5.754c9.238,-2.6 16.859,-4.241 17.021,-3.662" style="fill:#fafafa;fill-rule:nonzero;"/><path d="M272.468,1614.02c-0.208,0.517 -7.77,-2.291 -15.745,-8.112c-8.005,-5.788 -13.013,-12.108 -12.584,-12.467c0.467,-0.437 6.059,5.079 13.859,10.709c7.766,5.675 14.741,9.291 14.47,9.87" style="fill:#fafafa;fill-rule:nonzero;"/><path d="M182.405,1582.17c0.017,0.571 -5.65,0.983 -12.3,-0.946c-6.658,-1.891 -11.237,-5.246 -10.925,-5.721c0.313,-0.545 5.175,1.842 11.525,3.634c6.333,1.85 11.721,2.404 11.7,3.033" style="fill:#fafafa;fill-rule:nonzero;"/><path d="M1922.17,1928.19c0,0.6 -429.446,1.083 -959.07,1.083c-529.809,0 -959.163,-0.483 -959.163,-1.083c0,-0.604 429.354,-1.088 959.163,-1.088c529.625,0 959.07,0.484 959.07,1.088" style="fill:#1a2e35;fill-rule:nonzero;"/></svg>