<?xml version="1.0" encoding="UTF-8" standalone="no"?>
<!DOCTYPE svg PUBLIC "-//W3C//DTD SVG 1.1//EN" "http://www.w3.org/Graphics/SVG/1.1/DTD/svg11.dtd">
<svg width="100%" height="100%" viewBox="0 0 48 48" version="1.1" xmlns="http://www.w3.org/2000/svg" xmlns:xlink="http://www.w3.org/1999/xlink" xml:space="preserve" xmlns:serif="http://www.serif.com/" style="fill-rule:evenodd;clip-rule:evenodd;stroke-linejoin:round;stroke-miterlimit:2;">
    <g id="Artboard1" transform="matrix(0.853955,0,0,0.853955,99.3501,19.4443)">
        <rect x="-116.341" y="-22.77" width="56.209" height="56.209" style="fill:none;"/>
        <g transform="matrix(1.17102,0,0,1.17102,-116.341,-22.7697)">
            <path d="M30.532,36.363C30.229,34.707 28.665,33.458 26.903,33.458L1.895,33.458C1.083,33.458 0.424,32.799 0.424,31.987C0.424,31.175 1.083,30.516 1.895,30.516L26.903,30.516C30.283,30.516 33.175,33.064 33.496,36.337C35.77,36.966 37.441,39.051 37.441,41.524C37.441,44.493 35.029,46.905 32.06,46.905C29.09,46.905 26.679,44.493 26.679,41.524C26.679,39.084 28.306,37.022 30.532,36.363ZM32.06,39.085C30.714,39.085 29.621,40.178 29.621,41.524C29.621,42.87 30.714,43.962 32.06,43.962C33.406,43.962 34.498,42.87 34.498,41.524C34.498,40.178 33.406,39.085 32.06,39.085ZM37.018,22.422C37.659,20.166 39.735,18.512 42.195,18.512C45.165,18.512 47.576,20.923 47.576,23.893C47.576,26.863 45.165,29.274 42.195,29.274C39.735,29.274 37.659,27.619 37.018,25.364L1.942,25.364C1.104,25.364 0.424,24.705 0.424,23.893C0.424,23.081 1.104,22.422 1.942,22.422L37.018,22.422ZM42.195,21.454C43.541,21.454 44.634,22.547 44.634,23.893C44.634,25.239 43.541,26.332 42.195,26.332C40.849,26.332 39.756,25.239 39.756,23.893C39.756,22.547 40.849,21.454 42.195,21.454ZM30.532,11.637C28.306,10.978 26.679,8.916 26.679,6.476C26.679,3.507 29.09,1.095 32.06,1.095C35.029,1.095 37.441,3.507 37.441,6.476C37.441,8.949 35.77,11.034 33.496,11.663C33.175,14.936 30.283,17.484 26.903,17.484L1.895,17.484C1.083,17.484 0.424,16.825 0.424,16.013C0.424,15.201 1.083,14.542 1.895,14.542L26.903,14.542C28.665,14.542 30.229,13.293 30.532,11.637ZM32.06,8.915C30.714,8.915 29.621,7.822 29.621,6.476C29.621,5.13 30.714,4.038 32.06,4.038C33.406,4.038 34.498,5.13 34.498,6.476C34.498,7.822 33.406,8.915 32.06,8.915Z" style="fill:url(#_Linear1);"/>
        </g>
    </g>
    <defs>
        <linearGradient id="_Linear1" x1="0" y1="0" x2="1" y2="0" gradientUnits="userSpaceOnUse" gradientTransform="matrix(47.1758,0,0,47.1758,0.165435,23.2861)"><stop offset="0" style="stop-color:rgb(22,133,255);stop-opacity:1"/><stop offset="1" style="stop-color:rgb(217,70,239);stop-opacity:1"/></linearGradient>
    </defs>
</svg>
