<?xml version="1.0" encoding="UTF-8" standalone="no"?>
<!DOCTYPE svg PUBLIC "-//W3C//DTD SVG 1.1//EN" "http://www.w3.org/Graphics/SVG/1.1/DTD/svg11.dtd">
<svg width="60" height="60" viewBox="0 0 60 60" version="1.1" xmlns="http://www.w3.org/2000/svg" xmlns:xlink="http://www.w3.org/1999/xlink" xml:space="preserve" xmlns:serif="http://www.serif.com/" style="fill-rule:evenodd;clip-rule:evenodd;stroke-linejoin:round;stroke-miterlimit:2;">
    <g transform="matrix(1.02564,0,0,1.02564,-2.82051,-2.82051)">
        <path d="M32,24.39C27.78,24.39 23.73,25.97 20.61,28.84C20.1,29.31 20.07,30.1 20.54,30.61C21.01,31.12 21.8,31.15 22.31,30.68C24.97,28.24 28.41,26.89 32.01,26.89C35.61,26.89 39.05,28.24 41.71,30.68C41.95,30.9 42.25,31.01 42.56,31.01C42.9,31.01 43.23,30.87 43.48,30.61C43.95,30.1 43.91,29.31 43.41,28.84C40.27,25.97 36.22,24.39 32,24.39Z" style="fill:rgb(180,183,201);fill-rule:nonzero;"/>
        <path d="M32,30.23C29.24,30.23 26.6,31.26 24.57,33.13C24.06,33.6 24.03,34.39 24.5,34.9C24.97,35.41 25.76,35.44 26.27,34.97C27.84,33.52 29.88,32.73 32.01,32.73C34.14,32.73 36.18,33.53 37.75,34.97C37.99,35.19 38.29,35.3 38.6,35.3C38.94,35.3 39.27,35.16 39.52,34.9C39.99,34.39 39.96,33.6 39.45,33.13C37.4,31.26 34.76,30.23 32,30.23Z" style="fill:rgb(180,183,201);fill-rule:nonzero;"/>
        <path d="M32,36.08C30.7,36.08 29.47,36.57 28.52,37.45C28.01,37.92 27.98,38.71 28.45,39.22C28.92,39.73 29.71,39.75 30.22,39.29C31.19,38.39 32.81,38.39 33.78,39.29C34.02,39.51 34.33,39.62 34.63,39.62C34.96,39.62 35.3,39.49 35.55,39.22C36.02,38.71 35.99,37.92 35.48,37.45C34.53,36.56 33.3,36.08 32,36.08Z" style="fill:rgb(180,183,201);fill-rule:nonzero;"/>
        <path d="M60,33.25C60.69,33.25 61.25,32.69 61.25,32C61.25,31.31 60.69,30.75 60,30.75L49.1,30.75L49.1,25.57L60,25.57C60.69,25.57 61.25,25.01 61.25,24.32C61.25,23.63 60.69,23.07 60,23.07L49.1,23.07L49.1,18.15C49.1,16.36 47.64,14.9 45.85,14.9L40.93,14.9L40.93,4C40.93,3.31 40.37,2.75 39.68,2.75C38.99,2.75 38.43,3.31 38.43,4L38.43,14.9L33.25,14.9L33.25,4C33.25,3.31 32.69,2.75 32,2.75C31.31,2.75 30.75,3.31 30.75,4L30.75,14.9L25.57,14.9L25.57,4C25.57,3.31 25.01,2.75 24.32,2.75C23.63,2.75 23.07,3.31 23.07,4L23.07,14.9L18.15,14.9C16.36,14.9 14.9,16.36 14.9,18.15L14.9,23.07L4,23.07C3.31,23.07 2.75,23.63 2.75,24.32C2.75,25.01 3.31,25.57 4,25.57L14.9,25.57L14.9,30.75L4,30.75C3.31,30.75 2.75,31.31 2.75,32C2.75,32.69 3.31,33.25 4,33.25L14.9,33.25L14.9,38.43L4,38.43C3.31,38.43 2.75,38.99 2.75,39.68C2.75,40.37 3.31,40.93 4,40.93L14.9,40.93L14.9,45.85C14.9,47.64 16.36,49.1 18.15,49.1L23.07,49.1L23.07,60C23.07,60.69 23.63,61.25 24.32,61.25C25.01,61.25 25.57,60.69 25.57,60L25.57,49.1L30.75,49.1L30.75,60C30.75,60.69 31.31,61.25 32,61.25C32.69,61.25 33.25,60.69 33.25,60L33.25,49.1L38.43,49.1L38.43,60C38.43,60.69 38.99,61.25 39.68,61.25C40.37,61.25 40.93,60.69 40.93,60L40.93,49.1L45.85,49.1C47.64,49.1 49.1,47.64 49.1,45.85L49.1,40.93L60,40.93C60.69,40.93 61.25,40.37 61.25,39.68C61.25,38.99 60.69,38.43 60,38.43L49.1,38.43L49.1,33.25L60,33.25ZM46.6,45.85C46.6,46.26 46.26,46.6 45.85,46.6L18.15,46.6C17.74,46.6 17.4,46.26 17.4,45.85L17.4,18.15C17.4,17.74 17.74,17.4 18.15,17.4L45.85,17.4C46.26,17.4 46.6,17.74 46.6,18.15L46.6,45.85Z" style="fill:rgb(180,183,201);fill-rule:nonzero;"/>
    </g>
</svg>
