<?xml version="1.0" encoding="UTF-8" standalone="no"?>
<!DOCTYPE svg PUBLIC "-//W3C//DTD SVG 1.1//EN" "http://www.w3.org/Graphics/SVG/1.1/DTD/svg11.dtd">
<svg width="60" height="60" viewBox="0 0 60 60" version="1.1" xmlns="http://www.w3.org/2000/svg" xmlns:xlink="http://www.w3.org/1999/xlink" xml:space="preserve" xmlns:serif="http://www.serif.com/" style="fill-rule:evenodd;clip-rule:evenodd;stroke-linejoin:round;stroke-miterlimit:2;">
    <g transform="matrix(2.22222,0,0,2.22222,-5.55556,-0.555556)">
        <path d="M27,5.5L13,5.5C11.629,5.501 10.501,6.629 10.5,8L10.5,9.5L9,9.5C7.629,9.501 6.501,10.629 6.5,12L6.5,13.5L5,13.5C3.632,13.508 2.508,14.632 2.5,16L2.5,24C2.501,25.371 3.629,26.499 5,26.5L19,26.5C20.371,26.499 21.499,25.371 21.5,24L21.5,22.5L23,22.5C24.371,22.499 25.499,21.371 25.5,20L25.5,18.5L27,18.5C28.371,18.499 29.499,17.371 29.5,16L29.5,8C29.499,6.629 28.371,5.501 27,5.5ZM5,14.5L19,14.5C19.018,14.5 19.034,14.505 19.052,14.505L12,20.351L4.949,14.505C4.966,14.505 4.982,14.5 5,14.5ZM20.5,16L20.5,24C20.499,24.223 20.448,24.442 20.35,24.643L14.929,19.222L20.074,14.956C20.347,15.235 20.5,15.61 20.5,16ZM3.65,24.643C3.552,24.442 3.501,24.223 3.5,24L3.5,16C3.5,15.61 3.653,15.235 3.926,14.957L9.071,19.222L3.65,24.643ZM5,25.5C4.777,25.499 4.558,25.448 4.357,25.35L9.844,19.863L11.681,21.385C11.865,21.538 12.135,21.538 12.319,21.385L14.156,19.863L19.643,25.35C19.442,25.448 19.223,25.499 19,25.5L5,25.5ZM24.5,20C24.499,20.823 23.823,21.499 23,21.5L21.5,21.5L21.5,16C21.498,15.146 21.058,14.35 20.336,13.895C19.936,13.641 19.473,13.504 19,13.5L7.5,13.5L7.5,12C7.501,11.177 8.177,10.501 9,10.5L23,10.5C23.823,10.501 24.499,11.177 24.5,12L24.5,20ZM28.5,16C28.499,16.823 27.823,17.499 27,17.5L25.5,17.5L25.5,12C25.499,10.629 24.371,9.501 23,9.5L11.5,9.5L11.5,8C11.501,7.177 12.177,6.501 13,6.5L27,6.5C27.823,6.501 28.499,7.177 28.5,8L28.5,16Z" style="fill:rgb(180,183,201);fill-rule:nonzero;"/>
    </g>
</svg>
