<?xml version="1.0" encoding="UTF-8" standalone="no"?>
<!DOCTYPE svg PUBLIC "-//W3C//DTD SVG 1.1//EN" "http://www.w3.org/Graphics/SVG/1.1/DTD/svg11.dtd">
<svg width="100%" height="100%" viewBox="0 0 70 70" version="1.1" xmlns="http://www.w3.org/2000/svg" xmlns:xlink="http://www.w3.org/1999/xlink" xml:space="preserve" xmlns:serif="http://www.serif.com/" style="fill-rule:evenodd;clip-rule:evenodd;stroke-linejoin:round;stroke-miterlimit:2;">
    <g id="Artboard1" transform="matrix(1.09375,0,0,0.875,0,0)">
        <rect x="0" y="0" width="64" height="80" style="fill:none;"/>
        <clipPath id="_clip1">
            <rect x="0" y="0" width="64" height="80"/>
        </clipPath>
        <g clip-path="url(#_clip1)">
            <g transform="matrix(0.711792,0,0,0.88974,-3.617,-4.48798)">
                <path d="M59.318,71.737C62.793,70.155 64.707,67.937 64.707,65.496L64.707,38.673C64.707,36.232 62.791,34.016 59.318,32.435C55.578,30.88 51.555,30.117 47.505,30.194C43.455,30.116 39.432,30.879 35.692,32.435C32.218,34.016 30.304,36.235 30.303,38.673L30.303,65.5C30.303,67.943 32.217,70.159 35.692,71.741C39.432,73.297 43.455,74.06 47.505,73.982C51.555,74.058 55.578,73.294 59.318,71.737ZM62.311,47.617C62.311,50.496 56.23,53.704 47.505,53.704C38.78,53.704 32.7,50.5 32.7,47.619L32.7,43.1C33.614,43.836 34.62,44.449 35.694,44.922C39.434,46.478 43.457,47.241 47.507,47.163C51.557,47.24 55.58,46.477 59.32,44.922C60.393,44.449 61.399,43.836 62.311,43.1L62.311,47.617ZM32.7,52.039C33.614,52.775 34.62,53.387 35.694,53.86C39.434,55.415 43.456,56.178 47.505,56.1C51.555,56.178 55.578,55.415 59.318,53.86C60.392,53.388 61.398,52.775 62.311,52.039L62.311,56.556C62.311,59.435 56.23,62.644 47.505,62.644C38.78,62.644 32.7,59.436 32.7,56.557L32.7,52.039ZM47.507,32.589C56.232,32.589 62.313,35.797 62.313,38.676C62.313,41.555 56.232,44.764 47.507,44.764C38.782,44.764 32.7,41.556 32.7,38.676C32.7,35.796 38.779,32.589 47.505,32.589L47.507,32.589ZM32.7,65.5L32.7,60.977C33.613,61.714 34.619,62.327 35.692,62.8C39.432,64.355 43.455,65.118 47.505,65.04C51.555,65.118 55.578,64.355 59.318,62.8C60.392,62.327 61.398,61.715 62.311,60.978L62.311,65.5C62.311,68.379 56.231,71.587 47.505,71.587C38.779,71.587 32.7,68.375 32.7,65.5ZM49.32,50.33C49.364,50.985 48.863,51.561 48.208,51.608C47.974,51.624 47.738,51.632 47.508,51.632C47.278,51.632 47.038,51.624 46.808,51.608C46.213,51.531 45.762,51.018 45.762,50.418C45.762,49.76 46.304,49.218 46.962,49.218C46.966,49.218 46.969,49.218 46.973,49.218C47.331,49.243 47.69,49.243 48.048,49.218C48.701,49.177 49.273,49.677 49.32,50.33ZM45.69,59.268C45.737,58.613 46.313,58.113 46.968,58.157C47.326,58.182 47.684,58.182 48.042,58.157C48.096,58.15 48.15,58.146 48.204,58.146C48.862,58.146 49.404,58.688 49.404,59.346C49.404,60.003 48.865,60.544 48.208,60.546C47.975,60.563 47.738,60.571 47.508,60.571C47.278,60.571 47.037,60.563 46.808,60.546C46.181,60.504 45.687,59.977 45.687,59.349C45.687,59.322 45.688,59.295 45.69,59.268ZM48.208,69.485C47.974,69.501 47.738,69.509 47.508,69.509C47.278,69.509 47.038,69.501 46.808,69.485C46.213,69.408 45.762,68.895 45.762,68.295C45.762,67.637 46.304,67.095 46.962,67.095C46.966,67.095 46.969,67.095 46.973,67.095C47.331,67.12 47.69,67.12 48.048,67.095C48.052,67.095 48.056,67.095 48.06,67.095C48.718,67.095 49.26,67.637 49.26,68.295C49.26,68.895 48.809,69.408 48.214,69.485L48.208,69.485ZM24.513,23.9L41.734,25.646C41.774,25.65 41.813,25.652 41.853,25.652C42.512,25.652 43.053,25.11 43.053,24.452C43.053,24.246 43.001,24.044 42.9,23.865L41.23,20.938C56.348,18.017 71.509,26.55 76.857,40.989C77.031,41.457 77.481,41.769 77.98,41.77L78,41.77L86.67,41.653C87.32,41.641 87.847,41.103 87.847,40.453C87.847,40.34 87.831,40.228 87.8,40.12C83.247,24.502 70.059,12.846 54,10.246C47.913,9.243 41.679,9.599 35.746,11.289L32.975,6.424C32.761,6.052 32.363,5.821 31.934,5.821C31.47,5.821 31.045,6.091 30.848,6.511L23.548,22.211C23.474,22.37 23.436,22.542 23.436,22.717C23.436,23.329 23.904,23.848 24.513,23.911L24.513,23.9ZM32.041,9.627L34.13,13.3C34.407,13.786 34.989,14.016 35.524,13.852C41.375,12.039 47.569,11.614 53.613,12.61C68.182,15.019 80.285,25.294 85.025,39.28L78.798,39.364C73.641,26.468 61.086,17.966 47.198,17.964C44.468,17.965 41.748,18.297 39.098,18.955C38.566,19.088 38.189,19.57 38.189,20.119C38.189,20.326 38.243,20.53 38.345,20.71L39.665,23.03L26.43,21.69L32.041,9.627ZM27.228,69.854C27.034,69.425 26.605,69.148 26.134,69.148C25.71,69.148 25.315,69.374 25.1,69.74L23.4,72.64C13.307,61.014 13.114,43.618 22.946,31.771C23.269,31.382 23.313,30.827 23.055,30.392L18.622,22.948C18.406,22.586 18.014,22.364 17.592,22.364C17.266,22.364 16.954,22.497 16.728,22.732C0.793,39.379 1.27,66.151 17.788,82.219L14.955,87.054C14.85,87.236 14.794,87.443 14.794,87.654C14.794,88.31 15.332,88.851 15.988,88.854L16.094,88.854L33.34,87.325C33.954,87.269 34.43,86.747 34.43,86.13C34.43,85.962 34.395,85.795 34.326,85.641L27.228,69.854ZM18.2,86.26L20.339,82.609C20.621,82.127 20.53,81.508 20.122,81.127C4.386,66.502 3.164,41.649 17.39,25.551L20.573,30.9C13.584,39.769 11.451,51.56 14.892,62.315C16.485,67.239 19.173,71.739 22.753,75.476C22.979,75.712 23.292,75.845 23.619,75.845C24.043,75.845 24.438,75.619 24.653,75.253L26,72.954L31.455,85.088L18.2,86.26ZM94.78,60.455L84.839,46.285C84.616,45.968 84.253,45.779 83.866,45.776L83.858,45.776C83.473,45.777 83.111,45.963 82.887,46.276L72.764,60.314C72.617,60.518 72.539,60.763 72.539,61.014C72.539,61.668 73.074,62.208 73.728,62.214L77.089,62.235C72.098,76.69 57.288,85.545 42.193,83.1L42.048,83.074L41.922,83.052C41.422,82.968 40.92,83.209 40.674,83.652L36.441,91.218C36.342,91.396 36.29,91.597 36.29,91.801C36.29,92.351 36.669,92.834 37.203,92.966C38.291,93.231 39.397,93.455 40.488,93.632C42.736,93.997 45.01,94.181 47.288,94.181C66.541,94.153 83.457,80.968 88.186,62.305L93.792,62.341L93.8,62.341C94.457,62.338 94.995,61.798 94.995,61.141C94.995,60.896 94.92,60.656 94.78,60.455ZM87.251,59.9L87.243,59.9C86.686,59.901 86.199,60.289 86.075,60.832C81.386,81.173 61.486,94.571 40.875,91.265C40.359,91.181 39.841,91.086 39.321,90.981L42.36,85.549C59.068,87.975 75.176,77.595 79.869,61.377C79.9,61.27 79.915,61.159 79.915,61.048C79.915,60.394 79.38,59.854 78.726,59.848L76.065,59.831L83.845,49.04L91.486,59.93L87.251,59.9Z" style="fill:rgb(22,133,255);fill-rule:nonzero;"/>
            </g>
        </g>
    </g>
</svg>
