<?xml version="1.0" encoding="UTF-8" standalone="no"?>
<!DOCTYPE svg PUBLIC "-//W3C//DTD SVG 1.1//EN" "http://www.w3.org/Graphics/SVG/1.1/DTD/svg11.dtd">
<svg width="100%" height="100%" viewBox="0 0 70 70" version="1.1" xmlns="http://www.w3.org/2000/svg" xmlns:xlink="http://www.w3.org/1999/xlink" xml:space="preserve" xmlns:serif="http://www.serif.com/" style="fill-rule:evenodd;clip-rule:evenodd;stroke-linejoin:round;stroke-miterlimit:2;">
    <rect id="Artboard1" x="0" y="0" width="70" height="70" style="fill:none;"/>
    <g id="Artboard11" serif:id="Artboard1">
        <g transform="matrix(0.7638,0,0,0.7638,-1.66279,-1.66241)">
            <path d="M90.309,30.564C88.034,25.115 84.781,20.201 80.64,15.961C71.962,7.072 60.37,2.177 48,2.177C35.63,2.177 24.038,7.072 15.359,15.96C11.218,20.201 7.965,25.114 5.69,30.563C3.359,36.148 2.177,42.015 2.177,48L2.177,51.189C2.177,52.928 3.592,54.343 5.331,54.343L25.638,54.343C26.355,54.343 26.937,53.762 26.937,53.044L26.937,38.346C26.937,37.629 26.356,37.047 25.638,37.047L21.672,37.047C26.096,26.463 36.455,19.473 48,19.473C59.546,19.473 69.905,26.463 74.329,37.048L70.363,37.048C69.646,37.048 69.064,37.629 69.064,38.347L69.064,53.045C69.064,53.762 69.645,54.344 70.363,54.344L90.67,54.344C92.409,54.344 93.824,52.929 93.824,51.19L93.824,48C93.823,42.015 92.641,36.148 90.309,30.564ZM91.226,51.189C91.226,51.496 90.976,51.746 90.669,51.746L71.661,51.746L71.661,39.645L76.212,39.645C76.632,39.645 77.026,39.442 77.269,39.1C77.513,38.758 77.576,38.32 77.439,37.923C73.099,25.334 61.268,16.875 48,16.875C34.732,16.875 22.901,25.333 18.561,37.923C18.424,38.32 18.487,38.758 18.731,39.1C18.975,39.442 19.369,39.645 19.788,39.645L24.339,39.645L24.339,51.746L5.331,51.746C5.024,51.746 4.774,51.496 4.774,51.189L4.774,48C4.774,24.165 24.165,4.774 48,4.774C71.835,4.774 91.226,24.165 91.226,48L91.226,51.189ZM27.641,81.447L24.154,81.447L24.154,63.747C24.154,63.03 23.573,62.448 22.855,62.448L13.338,62.448C12.621,62.448 12.039,63.029 12.039,63.747L12.039,81.447L8.553,81.447C8.031,81.447 7.559,81.76 7.356,82.241C7.153,82.722 7.259,83.278 7.623,83.652L17.167,93.431C17.411,93.681 17.747,93.823 18.096,93.823C18.445,93.823 18.781,93.682 19.025,93.431L28.569,83.652C28.934,83.278 29.039,82.722 28.836,82.241C28.635,81.76 28.163,81.447 27.641,81.447ZM18.097,90.665L11.635,84.044L13.338,84.044C14.055,84.044 14.637,83.463 14.637,82.745L14.637,65.045L21.557,65.045L21.557,82.745C21.557,83.462 22.138,84.044 22.856,84.044L24.559,84.044L18.097,90.665ZM86.629,81.447L83.142,81.447L83.142,63.747C83.142,63.03 82.561,62.448 81.843,62.448L72.326,62.448C71.609,62.448 71.027,63.029 71.027,63.747L71.027,81.447L67.54,81.447C67.018,81.447 66.546,81.76 66.343,82.241C66.14,82.722 66.246,83.278 66.61,83.652L76.154,93.431C76.398,93.681 76.734,93.823 77.083,93.823C77.432,93.823 77.768,93.682 78.012,93.431L87.556,83.652C87.921,83.278 88.026,82.722 87.823,82.241C87.623,81.76 87.151,81.447 86.629,81.447ZM77.084,90.665L70.622,84.044L72.325,84.044C73.042,84.044 73.624,83.463 73.624,82.745L73.624,65.045L80.544,65.045L80.544,82.745C80.544,83.462 81.125,84.044 81.843,84.044L83.546,84.044L77.084,90.665ZM48,30.469C38.333,30.469 30.469,38.333 30.469,48C30.469,55.539 35.252,61.981 41.943,64.452L41.943,81.446L38.456,81.446C37.934,81.446 37.462,81.759 37.259,82.24C37.056,82.721 37.162,83.277 37.526,83.651L47.07,93.43C47.314,93.68 47.65,93.822 47.999,93.822C48.348,93.822 48.684,93.681 48.928,93.43L58.472,83.651C58.837,83.277 58.942,82.721 58.739,82.24C58.536,81.759 58.065,81.446 57.542,81.446L54.055,81.446L54.055,64.452C60.748,61.981 65.531,55.539 65.531,48C65.531,38.333 57.667,30.469 48,30.469ZM52.759,84.044L54.463,84.044L48,90.665L41.538,84.044L43.241,84.044C43.958,84.044 44.54,83.463 44.54,82.745L44.54,65.188C45.659,65.413 46.816,65.532 48,65.532C49.184,65.532 50.341,65.413 51.46,65.188L51.46,82.746C51.46,83.463 52.041,84.044 52.759,84.044ZM48,62.934C39.765,62.934 33.066,56.235 33.066,48C33.066,39.765 39.765,33.066 48,33.066C56.235,33.066 62.934,39.765 62.934,48C62.934,56.235 56.234,62.934 48,62.934ZM48,34.466C40.537,34.466 34.466,40.538 34.466,48C34.466,55.462 40.537,61.535 48,61.535C55.463,61.535 61.534,55.463 61.534,48C61.534,40.537 55.463,34.466 48,34.466ZM48,58.937C41.969,58.937 37.063,54.031 37.063,48C37.063,41.969 41.969,37.063 48,37.063C54.031,37.063 58.937,41.969 58.937,48C58.937,54.031 54.03,58.937 48,58.937ZM52.588,50.992C52.588,52.903 51.21,54.522 49.324,55.048L49.337,55.601C49.354,56.318 48.787,56.913 48.07,56.931L48.038,56.931C47.335,56.931 46.757,56.37 46.74,55.664L46.726,55.072C45.695,54.8 44.991,54.211 44.356,53.612C43.834,53.12 43.81,52.298 44.303,51.776C44.795,51.254 45.617,51.231 46.139,51.723C46.873,52.416 47.226,52.631 48,52.631C49.098,52.631 49.991,51.896 49.991,50.992C49.991,50.088 49.098,49.353 48,49.353C45.47,49.353 43.412,47.453 43.412,45.117C43.412,43.205 44.791,41.585 46.679,41.06L46.663,40.4C46.646,39.683 47.213,39.088 47.93,39.071C48.651,39.061 49.242,39.621 49.259,40.338L49.277,41.086C50.3,41.377 51.442,41.97 52.004,42.824C52.398,43.423 52.231,44.228 51.632,44.622C51.033,45.016 50.228,44.85 49.834,44.25C49.635,43.964 48.56,43.478 48.001,43.478C46.903,43.478 46.01,44.213 46.01,45.117C46.01,46.021 46.903,46.756 48.001,46.756C50.53,46.756 52.588,48.656 52.588,50.992Z" style="fill:rgb(22,133,255);fill-rule:nonzero;"/>
        </g>
    </g>
</svg>
