<?xml version="1.0" encoding="UTF-8" standalone="no"?>
<!DOCTYPE svg PUBLIC "-//W3C//DTD SVG 1.1//EN" "http://www.w3.org/Graphics/SVG/1.1/DTD/svg11.dtd">
<svg width="100%" height="100%" viewBox="0 0 70 70" version="1.1" xmlns="http://www.w3.org/2000/svg" xmlns:xlink="http://www.w3.org/1999/xlink" xml:space="preserve" xmlns:serif="http://www.serif.com/" style="fill-rule:evenodd;clip-rule:evenodd;stroke-linejoin:round;stroke-miterlimit:2;">
    <rect id="Artboard1" x="0" y="0" width="70" height="70" style="fill:none;"/>
    <clipPath id="_clip1">
        <rect id="Artboard11" serif:id="Artboard1" x="0" y="0" width="70" height="70"/>
    </clipPath>
    <g clip-path="url(#_clip1)">
        <g transform="matrix(0.138882,0,0,0.138882,-0.000367225,6.0607e-05)">
            <path d="M384.353,98.961L119.672,98.961C102.215,98.961 88.013,113.163 88.013,130.62L88.013,259.301C88.013,276.758 102.215,290.961 119.672,290.961L384.354,290.961C401.811,290.961 416.013,276.758 416.013,259.301L416.013,130.62C416.012,113.163 401.81,98.961 384.353,98.961ZM248.013,282.961L119.672,282.961C106.626,282.961 96.013,272.347 96.013,259.301L96.013,130.62C96.013,117.574 106.626,106.961 119.672,106.961L248.013,106.961L248.013,162.961L236.013,162.961C218.368,162.961 204.013,177.316 204.013,194.961C204.013,212.606 218.368,226.961 236.013,226.961L248.013,226.961L248.013,282.961ZM408.012,259.301C408.012,272.347 397.399,282.961 384.353,282.961L256.012,282.961L256.012,222.961C256.012,220.752 254.221,218.961 252.012,218.961L236.012,218.961C222.779,218.961 212.012,208.194 212.012,194.961C212.012,181.728 222.779,170.961 236.012,170.961L252.012,170.961C254.221,170.961 256.012,169.17 256.012,166.961L256.012,106.961L384.353,106.961C397.399,106.961 408.012,117.574 408.012,130.62L408.012,259.301Z" style="fill:rgb(22,133,255);fill-rule:nonzero;"/>
            <path d="M330.012,392.001L298.012,392.001C295.803,392.001 294.012,393.792 294.012,396.001L294.012,403.26L281.409,395.108C279.203,393.948 277.744,391.683 277.601,389.198C276.643,371.432 276.236,353.432 278.431,334.332C279.677,328.431 277.563,322.396 272.913,318.586C268.302,314.807 262.028,313.922 256.535,316.281L256.422,316.33C237.889,324.351 229.687,354.438 236.477,389.494C236.643,390.349 236.271,390.959 236.034,391.246C235.802,391.528 235.284,392.001 234.432,392.001L187.511,392.001C177.862,392.001 170.011,399.852 170.011,409.501C170.011,414.929 172.496,419.789 176.387,423.001C172.495,426.213 170.011,431.073 170.011,436.501C170.011,441.929 172.496,446.789 176.387,450.001C172.495,453.213 170.011,458.073 170.011,463.501C170.011,468.674 172.281,473.316 175.861,476.523C172.371,479.316 170.1,483.518 170.014,488.213C169.937,492.409 171.512,496.367 174.451,499.359C177.389,502.352 181.317,504.001 185.512,504.001L263.094,504.001C272.357,504.001 281.339,500.884 288.373,495.235L288.522,495.114C290.426,493.579 292.246,491.937 294.011,490.238L294.011,492.001C294.011,494.21 295.802,496.001 298.011,496.001L330.011,496.001C332.22,496.001 334.011,494.21 334.011,492.001L334.011,396.001C334.012,393.792 332.221,392.001 330.012,392.001ZM294.012,478.531C290.849,482.311 287.331,485.8 283.522,488.871L283.378,488.986C277.745,493.51 270.541,496.002 263.094,496.002L185.512,496.002C183.483,496.002 181.581,495.204 180.159,493.756C178.738,492.309 177.975,490.392 178.013,488.36C178.088,484.302 181.623,481.002 185.894,481.002L190.012,481.002C192.221,481.002 194.012,479.211 194.012,477.002C194.012,474.793 192.221,473.002 190.012,473.002L187.512,473.002C182.274,473.002 178.012,468.74 178.012,463.502C178.012,458.264 182.274,454.002 187.512,454.002L190.012,454.002C192.221,454.002 194.012,452.211 194.012,450.002C194.012,447.793 192.221,446.002 190.012,446.002L187.512,446.002C182.274,446.002 178.012,441.74 178.012,436.502C178.012,431.264 182.274,427.002 187.512,427.002L190.012,427.002C192.221,427.002 194.012,425.211 194.012,423.002C194.012,420.793 192.221,419.002 190.012,419.002L187.512,419.002C182.274,419.002 178.012,414.74 178.012,409.502C178.012,404.264 182.274,400.002 187.512,400.002L234.433,400.002C237.452,400.002 240.286,398.666 242.206,396.337C244.134,394 244.908,390.951 244.331,387.974C237.562,353.029 246.89,329.175 259.592,323.677C262.672,322.363 265.364,323.024 267.843,324.775C270.022,326.876 270.451,330.674 270.085,335.241C269.251,339.541 267.537,353.451 269.615,389.658C269.917,394.929 273.009,399.73 277.683,402.189L294.011,413.74L294.011,478.531L294.012,478.531ZM326.012,488.001L302.012,488.001L302.012,400.001L326.012,400.001L326.012,488.001Z" style="fill:rgb(22,133,255);fill-rule:nonzero;"/>
            <path d="M99.332,305.122C56.313,275.059 33.147,224.21 38.874,172.42C44.13,124.895 73.875,82.476 116.89,60.726L124.434,79.918C124.974,81.291 126.225,82.256 127.69,82.428C129.155,82.607 130.596,81.952 131.439,80.741L172.646,21.563C173.411,20.465 173.576,19.058 173.086,17.814C172.597,16.569 171.518,15.651 170.211,15.368L99.736,0.092C98.292,-0.223 96.797,0.285 95.841,1.409C94.885,2.533 94.625,4.092 95.165,5.465L102.928,25.209C77.788,37.267 55.512,55.155 38.326,77.124C17.644,103.56 4.773,135.068 1.104,168.243C-1.665,193.273 0.779,218.147 8.366,242.174C20.319,280.021 44.894,313.439 77.565,336.269C78.262,336.757 79.061,336.991 79.852,336.991C81.115,336.991 82.357,336.395 83.134,335.282L100.319,310.692C100.927,309.823 101.165,308.748 100.979,307.703C100.793,306.658 100.202,305.73 99.332,305.122ZM78.895,327.382C49.284,305.643 27.019,274.673 15.995,239.765C8.746,216.807 6.411,193.039 9.056,169.122C12.562,137.426 24.862,107.317 44.627,82.054C61.804,60.097 84.298,42.404 109.679,30.887C111.618,30.007 112.529,27.763 111.749,25.781L105.346,9.494L162.653,21.916L129.145,70.036L122.752,53.773C122.348,52.744 121.536,51.928 120.51,51.52C119.482,51.111 118.333,51.144 117.332,51.614C69.748,73.911 36.638,119.864 30.923,171.542C25.02,224.923 48.169,277.35 91.501,309.346L78.895,327.382Z" style="fill:rgb(22,133,255);fill-rule:nonzero;"/>
            <path d="M495.659,145.828C483.706,107.981 459.131,74.563 426.46,51.733C424.65,50.465 422.155,50.91 420.891,52.72L403.706,77.31C403.098,78.179 402.86,79.254 403.046,80.299C403.232,81.344 403.823,82.272 404.693,82.879C447.712,112.942 470.878,163.791 465.151,215.581C459.895,263.106 430.15,305.525 387.135,327.275L379.591,308.083C379.051,306.71 377.8,305.745 376.335,305.573C374.877,305.399 373.43,306.049 372.586,307.26L331.379,366.438C330.614,367.536 330.449,368.943 330.939,370.187C331.428,371.432 332.507,372.35 333.814,372.633L404.289,387.909C404.571,387.971 404.855,388 405.137,388C406.296,388 407.415,387.496 408.184,386.592C409.14,385.468 409.4,383.909 408.86,382.536L401.097,362.792C426.238,350.734 448.513,332.847 465.7,310.877C486.382,284.441 499.253,252.934 502.922,219.758C505.689,194.729 503.246,169.855 495.659,145.828ZM494.97,218.88C491.464,250.576 479.164,280.685 459.399,305.948C442.222,327.905 419.728,345.598 394.347,357.115C392.408,357.995 391.497,360.239 392.277,362.221L398.68,378.508L341.373,366.086L374.881,317.966L381.274,334.229C381.678,335.258 382.49,336.074 383.516,336.482C384.544,336.89 385.693,336.858 386.694,336.388C434.278,314.091 467.388,268.138 473.103,216.46C479.006,163.079 455.857,110.652 412.525,78.656L425.13,60.62C454.741,82.359 477.006,113.329 488.03,148.237C495.279,171.196 497.614,194.963 494.97,218.88Z" style="fill:rgb(22,133,255);fill-rule:nonzero;"/>
        </g>
    </g>
</svg>
