<?xml version="1.0" encoding="UTF-8" standalone="no"?>
<!DOCTYPE svg PUBLIC "-//W3C//DTD SVG 1.1//EN" "http://www.w3.org/Graphics/SVG/1.1/DTD/svg11.dtd">
<svg width="60" height="60" viewBox="0 0 60 60" version="1.1" xmlns="http://www.w3.org/2000/svg" xmlns:xlink="http://www.w3.org/1999/xlink" xml:space="preserve" xmlns:serif="http://www.serif.com/" style="fill-rule:evenodd;clip-rule:evenodd;stroke-linejoin:round;stroke-miterlimit:2;">
    <g transform="matrix(1,0,0,1,-2,-2)">
        <g>
            <path d="M4,32C3.998,25.535 6.236,19.264 10.33,14.26L8.79,13C-0.221,24.01 -0.221,39.99 8.79,51L10.33,49.74C6.236,44.736 3.998,38.465 4,32Z" style="fill:rgb(180,183,201);fill-rule:nonzero;"/>
            <path d="M32,60C26.927,59.996 21.949,58.613 17.6,56L16.6,57.72C26.089,63.393 37.971,63.393 47.46,57.72L46.4,56C42.051,58.613 37.073,59.996 32,60Z" style="fill:rgb(180,183,201);fill-rule:nonzero;"/>
            <path d="M53.67,14.26C62.087,24.538 62.087,39.462 53.67,49.74L55.21,51C64.221,39.99 64.221,24.01 55.21,13L53.67,14.26Z" style="fill:rgb(180,183,201);fill-rule:nonzero;"/>
            <path d="M17.6,8C26.452,2.692 37.548,2.692 46.4,8L47.4,6.28C37.911,0.607 26.029,0.607 16.54,6.28L17.6,8Z" style="fill:rgb(180,183,201);fill-rule:nonzero;"/>
            <path d="M10,10C10,11.646 11.354,13 13,13C14.646,13 16,11.646 16,10C16,8.354 14.646,7 13,7C11.354,7 10,8.354 10,10ZM14,10C14,10.549 13.549,11 13,11C12.451,11 12,10.549 12,10C12,9.451 12.451,9 13,9C13.549,9 14,9.451 14,10Z" style="fill:rgb(180,183,201);fill-rule:nonzero;"/>
            <path d="M54,10C54,8.354 52.646,7 51,7C49.354,7 48,8.354 48,10C48,11.646 49.354,13 51,13C52.646,13 54,11.646 54,10ZM50,10C50,9.451 50.451,9 51,9C51.549,9 52,9.451 52,10C52,10.549 51.549,11 51,11C50.451,11 50,10.549 50,10Z" style="fill:rgb(180,183,201);fill-rule:nonzero;"/>
            <path d="M13,51C11.354,51 10,52.354 10,54C10,55.646 11.354,57 13,57C14.646,57 16,55.646 16,54C16,52.354 14.646,51 13,51ZM13,55C12.451,55 12,54.549 12,54C12,53.451 12.451,53 13,53C13.549,53 14,53.451 14,54C14,54.549 13.549,55 13,55Z" style="fill:rgb(180,183,201);fill-rule:nonzero;"/>
            <path d="M51,51C49.354,51 48,52.354 48,54C48,55.646 49.354,57 51,57C52.646,57 54,55.646 54,54C54,52.354 52.646,51 51,51ZM51,55C50.451,55 50,54.549 50,54C50,53.451 50.451,53 51,53C51.549,53 52,53.451 52,54C52,54.549 51.549,55 51,55Z" style="fill:rgb(180,183,201);fill-rule:nonzero;"/>
            <path d="M51,24L51,16C51,12.05 39.06,11 32,11C24.94,11 13,12.05 13,16L13,24C13.054,24.831 13.52,25.582 14.24,26C13.525,26.423 13.061,27.171 13,28L13,36C13.054,36.831 13.52,37.582 14.24,38C13.525,38.423 13.061,39.171 13,40L13,48C13,52 24.94,53 32,53C39.06,53 51,52 51,48L51,40C50.939,39.171 50.475,38.423 49.76,38C50.48,37.582 50.946,36.831 51,36L51,28C50.939,27.171 50.475,26.423 49.76,26C50.48,25.582 50.946,24.831 51,24ZM15,18.46C18.7,20.41 26.72,21 32,21C37.28,21 45.3,20.41 49,18.46L49,24C48.69,25.05 42.6,27 32,27C21.4,27 15.31,25 15,24L15,18.46ZM32,13C42.55,13 48.64,14.94 49,16C48.64,17.06 42.55,19 32,19C21.45,19 15.31,17 15,16C15.31,15 21.41,13 32,13ZM15,30.46C18.7,32.41 26.72,33 32,33C37.28,33 45.3,32.41 49,30.46L49,36C48.69,37 42.6,39 32,39C21.4,39 15.31,37 15,36L15,30.46ZM32,51C21.4,51 15.31,49 15,48L15,42.46C18.7,44.41 26.72,45 32,45C37.28,45 45.3,44.41 49,42.46L49,48C48.69,49 42.6,51 32,51ZM49,40C48.7,41.06 42.6,43 32,43C21.4,43 15.31,41 15,40C14.69,39 15.2,39.58 16.44,39.06C20.51,40.54 27.33,41 32,41C36.67,41 43.49,40.54 47.56,39.08C48.79,39.6 49,40 49,40ZM49,28C48.7,29.06 42.6,31 32,31C21.4,31 15.31,29 15,28C14.69,27 15.2,27.58 16.44,27.06C20.51,28.54 27.33,29 32,29C36.67,29 43.49,28.54 47.56,27.08C48.79,27.6 49,28 49,28Z" style="fill:rgb(180,183,201);fill-rule:nonzero;"/>
            <rect x="31" y="23" width="2" height="2" style="fill:rgb(180,183,201);"/>
            <rect x="31" y="35" width="2" height="2" style="fill:rgb(180,183,201);"/>
            <rect x="31" y="47" width="2" height="2" style="fill:rgb(180,183,201);"/>
        </g>
    </g>
</svg>
