<?xml version="1.0" encoding="UTF-8" standalone="no"?>
<!DOCTYPE svg PUBLIC "-//W3C//DTD SVG 1.1//EN" "http://www.w3.org/Graphics/SVG/1.1/DTD/svg11.dtd">
<svg width="100%" height="100%" viewBox="0 0 560 324" version="1.1" xmlns="http://www.w3.org/2000/svg" xmlns:xlink="http://www.w3.org/1999/xlink" xml:space="preserve" xmlns:serif="http://www.serif.com/" style="fill-rule:evenodd;clip-rule:evenodd;stroke-linejoin:round;stroke-miterlimit:2;">
    <g transform="matrix(1,0,0,1,-7162.47,-7139.97)">
        <g id="Store" transform="matrix(1,0,0,1,1239.24,441.795)">
            <rect x="5923.23" y="6698.18" width="559.769" height="323.554" style="fill:none;"/>
            <g transform="matrix(0.93602,0,0,0.997241,380.065,18.7006)">
                <path d="M6471,6721.29C6471,6716.31 6466.69,6712.26 6461.38,6712.26L5946.44,6712.26C5941.13,6712.26 5936.82,6716.31 5936.82,6721.29L5936.82,7004.07C5936.82,7009.05 5941.13,7013.09 5946.44,7013.09L6461.38,7013.09C6466.69,7013.09 6471,7009.05 6471,7004.07L6471,6721.29Z" style="fill:white;"/>
            </g>
            <g transform="matrix(0.905095,0,0,0.905095,5718.99,6881.48)">
                <path d="M310.17,76.92L278.69,76.92C278.642,76.921 278.594,76.921 278.546,76.921C274.059,76.921 270.366,73.229 270.366,68.741C270.366,68.584 270.371,68.427 270.38,68.27C270.546,64.669 273.073,61.583 276.57,60.71C276.648,60.698 276.723,60.671 276.79,60.63C276.797,60.567 276.797,60.503 276.79,60.44C276.579,58.086 277.91,55.848 280.08,54.91C282.22,53.981 284.725,54.477 286.35,56.15L286.81,56.61C287.85,53.245 290.321,50.504 293.56,49.12C296.023,48.08 298.768,47.91 301.34,48.64C307.64,50.33 310.49,56.64 309.74,61.97L309.92,61.97C310.46,61.97 311.02,61.97 311.57,62.1C315.144,62.705 317.785,65.831 317.785,69.455C317.785,73.125 315.077,76.277 311.45,76.83C311.026,76.889 310.598,76.919 310.17,76.92ZM282.29,55.43C281.667,55.428 281.05,55.557 280.48,55.81C278.702,56.588 277.614,58.427 277.79,60.36C277.801,60.424 277.807,60.489 277.807,60.555C277.807,61.13 277.363,61.617 276.79,61.67C273.588,62.477 271.326,65.379 271.326,68.681C271.326,72.647 274.59,75.911 278.556,75.911C278.594,75.911 278.632,75.911 278.67,75.91L310.15,75.91C310.531,75.907 310.912,75.88 311.29,75.83C314.427,75.347 316.767,72.62 316.767,69.445C316.767,66.316 314.493,63.614 311.41,63.08C310.896,63.014 310.378,62.974 309.86,62.96L309.1,62.96C308.838,62.943 308.632,62.723 308.632,62.461C308.632,62.43 308.634,62.4 308.64,62.37C308.819,61.583 308.91,60.779 308.91,59.973C308.91,54.053 304.039,49.183 298.12,49.183C296.706,49.183 295.306,49.46 294,50C290.774,51.375 288.388,54.207 287.58,57.62C287.534,57.788 287.4,57.919 287.23,57.96C287.06,58.007 286.877,57.962 286.75,57.84L286.38,57.49L285.69,56.82C284.789,55.92 283.563,55.419 282.29,55.43Z" style="fill:rgb(209,211,212);fill-rule:nonzero;"/>
            </g>
            <g transform="matrix(0.905095,0,0,1.04239,5906.35,6676.58)">
                <rect x="104.72" y="132.65" width="196.06" height="135.27" style="fill:rgb(35,31,32);"/>
            </g>
            <g transform="matrix(0.905095,0,0,0.905095,5906.35,6694.79)">
                <path d="M300.78,268.41L104.72,268.41C104.449,268.41 104.225,268.191 104.22,267.92L104.22,132.65C104.22,132.376 104.446,132.15 104.72,132.15L300.78,132.15C301.054,132.15 301.28,132.376 301.28,132.65L301.28,267.92C301.28,268.189 301.059,268.41 300.79,268.41C300.787,268.41 300.783,268.41 300.78,268.41ZM105.22,267.41L300.29,267.41L300.29,133.14L105.22,133.14L105.22,267.41Z" style="fill:rgb(35,31,32);fill-rule:nonzero;"/>
            </g>
            <g transform="matrix(0.905095,0,0,0.905095,5906.35,6694.79)">
                <path d="M314.19,135.245C314.19,129.226 309.304,124.34 303.285,124.34L102.215,124.34C96.196,124.34 91.31,129.226 91.31,135.245L91.31,156.865C91.31,162.884 96.196,167.77 102.215,167.77L303.285,167.77C309.304,167.77 314.19,162.884 314.19,156.865L314.19,135.245Z" style="fill:rgb(230,230,230);"/>
            </g>
            <g transform="matrix(0.905095,0,0,0.905095,5906.35,6694.79)">
                <path d="M304.33,168.27L101.18,168.27C95.497,168.265 90.821,163.593 90.81,157.91L90.81,134.21C90.815,128.523 95.493,123.845 101.18,123.84L304.33,123.84C310.017,123.845 314.695,128.523 314.7,134.21L314.7,157.91C314.689,163.593 310.013,168.265 304.33,168.27ZM101.18,124.84C96.042,124.845 91.815,129.072 91.81,134.21L91.81,157.91C91.815,163.046 96.044,167.27 101.18,167.27L304.33,167.27C309.464,167.265 313.689,163.044 313.7,157.91L313.7,134.21C313.695,129.072 309.468,124.845 304.33,124.84L101.18,124.84Z" style="fill:rgb(35,31,32);fill-rule:nonzero;"/>
            </g>
            <g transform="matrix(0.905095,0,0,0.905095,5906.35,6694.79)">
                <path d="M314.19,186.335C314.19,180.316 309.304,175.43 303.285,175.43L102.215,175.43C96.196,175.43 91.31,180.316 91.31,186.335L91.31,207.955C91.31,213.974 96.196,218.86 102.215,218.86L303.285,218.86C309.304,218.86 314.19,213.974 314.19,207.955L314.19,186.335Z" style="fill:white;"/>
            </g>
            <g transform="matrix(0.905095,0,0,0.905095,5906.35,6694.79)">
                <path d="M304.33,219.36L101.18,219.36C95.497,219.355 90.821,214.683 90.81,209L90.81,185.3C90.815,179.613 95.493,174.935 101.18,174.93L304.33,174.93C310.017,174.935 314.695,179.613 314.7,185.3L314.7,209C314.689,214.683 310.013,219.355 304.33,219.36ZM101.18,175.93C96.042,175.935 91.815,180.162 91.81,185.3L91.81,209C91.815,214.136 96.044,218.36 101.18,218.36L304.33,218.36C309.464,218.355 313.689,214.134 313.7,209L313.7,185.3C313.689,180.164 309.466,175.941 304.33,175.93L101.18,175.93Z" style="fill:rgb(35,31,32);fill-rule:nonzero;"/>
            </g>
            <g transform="matrix(0.905095,0,0,0.905095,5906.35,6694.79)">
                <path d="M314.19,237.435C314.19,231.416 309.304,226.53 303.285,226.53L102.215,226.53C96.196,226.53 91.31,231.416 91.31,237.435L91.31,259.055C91.31,265.074 96.196,269.96 102.215,269.96L303.285,269.96C309.304,269.96 314.19,265.074 314.19,259.055L314.19,237.435Z" style="fill:rgb(230,230,230);"/>
            </g>
            <g transform="matrix(0.905095,0,0,0.905095,5906.35,6694.79)">
                <path d="M304.33,270.45L101.18,270.45C95.497,270.445 90.821,265.773 90.81,260.09L90.81,236.39C90.81,236.383 90.81,236.377 90.81,236.37C90.81,230.681 95.491,226 101.18,226L304.33,226C310.015,226 314.695,230.675 314.7,236.36L314.7,260.06C314.7,260.063 314.7,260.067 314.7,260.07C314.7,265.761 310.021,270.445 304.33,270.45ZM101.18,227C96.044,227 91.815,231.224 91.81,236.36L91.81,260.06C91.815,265.196 96.044,269.42 101.18,269.42L304.33,269.42C309.464,269.415 313.689,265.194 313.7,260.06L313.7,236.36C313.689,231.226 309.464,227.005 304.33,227L101.18,227Z" style="fill:rgb(35,31,32);fill-rule:nonzero;"/>
            </g>
            <g transform="matrix(0.905095,0,0,0.905095,5906.35,6694.79)">
                <path d="M253.37,144.94L105.37,144.94C105.093,144.903 104.885,144.664 104.885,144.385C104.885,144.106 105.093,143.867 105.37,143.83L253.37,143.83C253.395,143.827 253.42,143.825 253.445,143.825C253.752,143.825 254.005,144.078 254.005,144.385C254.005,144.692 253.752,144.945 253.445,144.945C253.42,144.945 253.395,144.943 253.37,144.94Z" style="fill:rgb(209,211,212);fill-rule:nonzero;"/>
            </g>
            <g transform="matrix(0.905095,0,0,0.905095,5906.35,6694.79)">
                <path d="M266.78,148.61C266.777,148.61 266.773,148.61 266.77,148.61C264.449,148.61 262.54,146.701 262.54,144.38C262.54,142.06 264.449,140.15 266.77,140.15C269.091,140.15 271,142.059 271,144.38C271,146.697 269.097,148.605 266.78,148.61ZM266.78,141.27C266.777,141.27 266.773,141.27 266.77,141.27C265.058,141.27 263.65,142.678 263.65,144.39C263.65,146.102 265.058,147.51 266.77,147.51C268.482,147.51 269.89,146.102 269.89,144.39C269.89,144.387 269.89,144.383 269.89,144.38C269.885,142.676 268.484,141.275 266.78,141.27Z" style="fill:rgb(209,211,212);fill-rule:nonzero;"/>
            </g>
            <g transform="matrix(0.905095,0,0,0.905095,5906.35,6694.79)">
                <circle cx="282.26" cy="144.38" r="3.67" style="fill:rgb(35,31,32);"/>
            </g>
            <g transform="matrix(0.905095,0,0,0.905095,5906.35,6694.79)">
                <path d="M282.26,148.55C279.972,148.55 278.09,146.668 278.09,144.38C278.09,142.092 279.972,140.21 282.26,140.21C284.548,140.21 286.43,142.092 286.43,144.38C286.43,146.668 284.548,148.55 282.26,148.55ZM282.26,141.21C280.516,141.21 279.08,142.646 279.08,144.39C279.08,146.134 280.516,147.57 282.26,147.57C284.005,147.57 285.44,146.134 285.44,144.39L285.44,144.38C285.44,142.641 284.009,141.21 282.27,141.21C282.267,141.21 282.263,141.21 282.26,141.21Z" style="fill:rgb(35,31,32);fill-rule:nonzero;"/>
            </g>
            <g transform="matrix(0.905095,0,0,0.905095,5906.35,6694.79)">
                <circle cx="297.75" cy="144.38" r="3.67" style="fill:rgb(255,116,105);"/>
            </g>
            <g transform="matrix(0.905095,0,0,0.905095,5906.35,6694.79)">
                <path d="M253.37,196L105.37,196C105.093,195.963 104.885,195.724 104.885,195.445C104.885,195.166 105.093,194.927 105.37,194.89L253.37,194.89C253.395,194.887 253.42,194.885 253.445,194.885C253.752,194.885 254.005,195.138 254.005,195.445C254.005,195.752 253.752,196.005 253.445,196.005C253.42,196.005 253.395,196.003 253.37,196Z" style="fill:rgb(209,211,212);fill-rule:nonzero;"/>
            </g>
            <g transform="matrix(0.905095,0,0,0.905095,5906.35,6694.79)">
                <path d="M266.78,199.7C266.777,199.7 266.773,199.7 266.77,199.7C264.45,199.7 262.54,197.791 262.54,195.47C262.54,193.15 264.45,191.24 266.77,191.24C269.091,191.24 271,193.15 271,195.47C271,195.473 271,195.477 271,195.48C270.995,197.793 269.093,199.695 266.78,199.7ZM266.78,192.36C266.777,192.36 266.773,192.36 266.77,192.36C265.058,192.36 263.65,193.768 263.65,195.48C263.65,197.192 265.058,198.6 266.77,198.6C268.482,198.6 269.89,197.192 269.89,195.48C269.89,193.772 268.488,192.365 266.78,192.36Z" style="fill:rgb(209,211,212);fill-rule:nonzero;"/>
            </g>
            <g transform="matrix(0.905095,0,0,0.905095,5906.35,6694.79)">
                <circle cx="282.26" cy="195.48" r="3.67" style="fill:rgb(35,31,32);"/>
            </g>
            <g transform="matrix(0.905095,0,0,0.905095,5906.35,6694.79)">
                <path d="M282.26,199.65C279.972,199.65 278.09,197.768 278.09,195.48C278.09,193.192 279.972,191.31 282.26,191.31C284.548,191.31 286.43,193.192 286.43,195.48C286.425,197.766 284.546,199.645 282.26,199.65ZM282.26,192.3C280.516,192.3 279.08,193.736 279.08,195.48C279.08,197.224 280.516,198.66 282.26,198.66C284.004,198.66 285.44,197.224 285.44,195.48C285.44,193.736 284.004,192.3 282.26,192.3Z" style="fill:rgb(35,31,32);fill-rule:nonzero;"/>
            </g>
            <g transform="matrix(0.905095,0,0,0.905095,5906.35,6694.79)">
                <circle cx="297.75" cy="195.48" r="3.67" style="fill:rgb(255,116,105);"/>
            </g>
            <g transform="matrix(0.905095,0,0,0.905095,5906.35,6694.79)">
                <path d="M253.37,247.12L105.37,247.12C105.093,247.083 104.885,246.844 104.885,246.565C104.885,246.286 105.093,246.047 105.37,246.01L253.37,246.01C253.395,246.007 253.42,246.005 253.445,246.005C253.752,246.005 254.005,246.258 254.005,246.565C254.005,246.872 253.752,247.125 253.445,247.125C253.42,247.125 253.395,247.123 253.37,247.12Z" style="fill:rgb(209,211,212);fill-rule:nonzero;"/>
            </g>
            <g transform="matrix(0.905095,0,0,0.905095,5906.35,6694.79)">
                <path d="M266.78,250.79C266.777,250.79 266.773,250.79 266.77,250.79C264.45,250.79 262.54,248.881 262.54,246.56C262.54,244.24 264.45,242.33 266.77,242.33C269.091,242.33 271,244.24 271,246.56C271,246.563 271,246.567 271,246.57C270.995,248.883 269.093,250.785 266.78,250.79ZM266.78,243.45C266.777,243.45 266.773,243.45 266.77,243.45C265.058,243.45 263.65,244.858 263.65,246.57C263.65,248.282 265.058,249.69 266.77,249.69C268.482,249.69 269.89,248.282 269.89,246.57C269.89,244.862 268.488,243.455 266.78,243.45Z" style="fill:rgb(209,211,212);fill-rule:nonzero;"/>
            </g>
            <g transform="matrix(0.905095,0,0,0.905095,5906.35,6694.79)">
                <circle cx="282.26" cy="246.57" r="3.67" style="fill:rgb(35,31,32);"/>
            </g>
            <g transform="matrix(0.905095,0,0,0.905095,5906.35,6694.79)">
                <path d="M282.26,250.74C279.972,250.74 278.09,248.858 278.09,246.57C278.09,244.282 279.972,242.4 282.26,242.4C284.548,242.4 286.43,244.282 286.43,246.57C286.43,248.858 284.548,250.74 282.26,250.74ZM282.26,243.39C280.516,243.39 279.08,244.826 279.08,246.57C279.08,248.314 280.516,249.75 282.26,249.75C284.004,249.75 285.44,248.314 285.44,246.57C285.44,244.826 284.004,243.39 282.26,243.39Z" style="fill:rgb(35,31,32);fill-rule:nonzero;"/>
            </g>
            <g transform="matrix(0.905095,0,0,0.905095,5906.35,6694.79)">
                <circle cx="297.75" cy="246.57" r="3.67" style="fill:rgb(255,116,105);"/>
            </g>
            <g transform="matrix(0.905095,0,0,0.905095,5906.35,6740.95)">
                <path d="M314.19,237.435C314.19,231.416 309.304,226.53 303.285,226.53L102.215,226.53C96.196,226.53 91.31,231.416 91.31,237.435L91.31,259.055C91.31,265.074 96.196,269.96 102.215,269.96L303.285,269.96C309.304,269.96 314.19,265.074 314.19,259.055L314.19,237.435Z" style="fill:white;"/>
            </g>
            <g transform="matrix(0.905095,0,0,0.905095,5906.35,6740.95)">
                <path d="M304.33,270.45L101.18,270.45C95.497,270.445 90.821,265.773 90.81,260.09L90.81,236.39C90.81,236.383 90.81,236.377 90.81,236.37C90.81,230.681 95.491,226 101.18,226L304.33,226C310.015,226 314.695,230.675 314.7,236.36L314.7,260.06C314.7,260.063 314.7,260.067 314.7,260.07C314.7,265.761 310.021,270.445 304.33,270.45ZM101.18,227C96.044,227 91.815,231.224 91.81,236.36L91.81,260.06C91.815,265.196 96.044,269.42 101.18,269.42L304.33,269.42C309.464,269.415 313.689,265.194 313.7,260.06L313.7,236.36C313.689,231.226 309.464,227.005 304.33,227L101.18,227Z" style="fill:rgb(35,31,32);fill-rule:nonzero;"/>
            </g>
            <g transform="matrix(0.905095,0,0,0.905095,5906.35,6740.95)">
                <path d="M253.37,247.12L105.37,247.12C105.093,247.083 104.885,246.844 104.885,246.565C104.885,246.286 105.093,246.047 105.37,246.01L253.37,246.01C253.395,246.007 253.42,246.005 253.445,246.005C253.752,246.005 254.005,246.258 254.005,246.565C254.005,246.872 253.752,247.125 253.445,247.125C253.42,247.125 253.395,247.123 253.37,247.12Z" style="fill:rgb(209,211,212);fill-rule:nonzero;"/>
            </g>
            <g transform="matrix(0.905095,0,0,0.905095,5906.35,6740.95)">
                <path d="M266.78,250.79C266.777,250.79 266.773,250.79 266.77,250.79C264.45,250.79 262.54,248.881 262.54,246.56C262.54,244.24 264.45,242.33 266.77,242.33C269.091,242.33 271,244.24 271,246.56C271,246.563 271,246.567 271,246.57C270.995,248.883 269.093,250.785 266.78,250.79ZM266.78,243.45C266.777,243.45 266.773,243.45 266.77,243.45C265.058,243.45 263.65,244.858 263.65,246.57C263.65,248.282 265.058,249.69 266.77,249.69C268.482,249.69 269.89,248.282 269.89,246.57C269.89,244.862 268.488,243.455 266.78,243.45Z" style="fill:rgb(209,211,212);fill-rule:nonzero;"/>
            </g>
            <g transform="matrix(0.905095,0,0,0.905095,5906.35,6740.95)">
                <circle cx="282.26" cy="246.57" r="3.67" style="fill:rgb(35,31,32);"/>
            </g>
            <g transform="matrix(0.905095,0,0,0.905095,5906.35,6740.95)">
                <path d="M282.26,250.74C279.972,250.74 278.09,248.858 278.09,246.57C278.09,244.282 279.972,242.4 282.26,242.4C284.548,242.4 286.43,244.282 286.43,246.57C286.43,248.858 284.548,250.74 282.26,250.74ZM282.26,243.39C280.516,243.39 279.08,244.826 279.08,246.57C279.08,248.314 280.516,249.75 282.26,249.75C284.004,249.75 285.44,248.314 285.44,246.57C285.44,244.826 284.004,243.39 282.26,243.39Z" style="fill:rgb(35,31,32);fill-rule:nonzero;"/>
            </g>
            <g transform="matrix(0.905095,0,0,0.905095,5906.35,6740.95)">
                <circle cx="297.75" cy="246.57" r="3.67" style="fill:rgb(255,116,105);"/>
            </g>
            <g transform="matrix(0.905095,0,0,0.905095,5906.35,6726.47)">
                <path d="M310.17,76.92L278.69,76.92C278.642,76.921 278.594,76.921 278.546,76.921C274.059,76.921 270.366,73.229 270.366,68.741C270.366,68.584 270.371,68.427 270.38,68.27C270.546,64.669 273.073,61.583 276.57,60.71C276.648,60.698 276.723,60.671 276.79,60.63C276.797,60.567 276.797,60.503 276.79,60.44C276.579,58.086 277.91,55.848 280.08,54.91C282.22,53.981 284.725,54.477 286.35,56.15L286.81,56.61C287.85,53.245 290.321,50.504 293.56,49.12C296.023,48.08 298.768,47.91 301.34,48.64C307.64,50.33 310.49,56.64 309.74,61.97L309.92,61.97C310.46,61.97 311.02,61.97 311.57,62.1C315.144,62.705 317.785,65.831 317.785,69.455C317.785,73.125 315.077,76.277 311.45,76.83C311.026,76.889 310.598,76.919 310.17,76.92ZM282.29,55.43C281.667,55.428 281.05,55.557 280.48,55.81C278.702,56.588 277.614,58.427 277.79,60.36C277.801,60.424 277.807,60.489 277.807,60.555C277.807,61.13 277.363,61.617 276.79,61.67C273.588,62.477 271.326,65.379 271.326,68.681C271.326,72.647 274.59,75.911 278.556,75.911C278.594,75.911 278.632,75.911 278.67,75.91L310.15,75.91C310.531,75.907 310.912,75.88 311.29,75.83C314.427,75.347 316.767,72.62 316.767,69.445C316.767,66.316 314.493,63.614 311.41,63.08C310.896,63.014 310.378,62.974 309.86,62.96L309.1,62.96C308.838,62.943 308.632,62.723 308.632,62.461C308.632,62.43 308.634,62.4 308.64,62.37C308.819,61.583 308.91,60.779 308.91,59.973C308.91,54.053 304.039,49.183 298.12,49.183C296.706,49.183 295.306,49.46 294,50C290.774,51.375 288.388,54.207 287.58,57.62C287.534,57.788 287.4,57.919 287.23,57.96C287.06,58.007 286.877,57.962 286.75,57.84L286.38,57.49L285.69,56.82C284.789,55.92 283.563,55.419 282.29,55.43Z" style="fill:rgb(209,211,212);fill-rule:nonzero;"/>
            </g>
            <g transform="matrix(0.905095,0,0,0.905095,6141.28,6778.29)">
                <path d="M310.17,76.92L278.69,76.92C278.642,76.921 278.594,76.921 278.546,76.921C274.059,76.921 270.366,73.229 270.366,68.741C270.366,68.584 270.371,68.427 270.38,68.27C270.546,64.669 273.073,61.583 276.57,60.71C276.648,60.698 276.723,60.671 276.79,60.63C276.797,60.567 276.797,60.503 276.79,60.44C276.579,58.086 277.91,55.848 280.08,54.91C282.22,53.981 284.725,54.477 286.35,56.15L286.81,56.61C287.85,53.245 290.321,50.504 293.56,49.12C296.023,48.08 298.768,47.91 301.34,48.64C307.64,50.33 310.49,56.64 309.74,61.97L309.92,61.97C310.46,61.97 311.02,61.97 311.57,62.1C315.144,62.705 317.785,65.831 317.785,69.455C317.785,73.125 315.077,76.277 311.45,76.83C311.026,76.889 310.598,76.919 310.17,76.92ZM282.29,55.43C281.667,55.428 281.05,55.557 280.48,55.81C278.702,56.588 277.614,58.427 277.79,60.36C277.801,60.424 277.807,60.489 277.807,60.555C277.807,61.13 277.363,61.617 276.79,61.67C273.588,62.477 271.326,65.379 271.326,68.681C271.326,72.647 274.59,75.911 278.556,75.911C278.594,75.911 278.632,75.911 278.67,75.91L310.15,75.91C310.531,75.907 310.912,75.88 311.29,75.83C314.427,75.347 316.767,72.62 316.767,69.445C316.767,66.316 314.493,63.614 311.41,63.08C310.896,63.014 310.378,62.974 309.86,62.96L309.1,62.96C308.838,62.943 308.632,62.723 308.632,62.461C308.632,62.43 308.634,62.4 308.64,62.37C308.819,61.583 308.91,60.779 308.91,59.973C308.91,54.053 304.039,49.183 298.12,49.183C296.706,49.183 295.306,49.46 294,50C290.774,51.375 288.388,54.207 287.58,57.62C287.534,57.788 287.4,57.919 287.23,57.96C287.06,58.007 286.877,57.962 286.75,57.84L286.38,57.49L285.69,56.82C284.789,55.92 283.563,55.419 282.29,55.43Z" style="fill:rgb(209,211,212);fill-rule:nonzero;"/>
            </g>
            <g transform="matrix(0.905095,0,0,0.905095,5906.35,6726.47)">
                <path d="M152.44,38.88C152.03,38.49 151.7,38.18 151.38,37.88C149.902,36.353 147.621,35.897 145.67,36.74C143.706,37.589 142.495,39.608 142.67,41.74C142.67,42.25 142.54,42.41 142.07,42.53C138.636,43.385 136.207,46.493 136.207,50.031C136.207,54.272 139.696,57.761 143.937,57.761C143.981,57.761 144.026,57.761 144.07,57.76L175.55,57.76C175.951,57.75 176.352,57.72 176.75,57.67C179.979,56.992 182.311,54.119 182.311,50.82C182.311,47.573 180.053,44.732 176.89,44C176.11,43.88 175.32,43.89 174.54,43.84C175.788,38.037 172.291,32.183 166.59,30.53C164.129,29.818 161.495,29.981 159.14,30.99C155.789,32.414 153.302,35.342 152.44,38.88Z" style="fill:white;fill-rule:nonzero;"/>
            </g>
            <g transform="matrix(0.905095,0,0,0.905095,5906.35,6726.47)">
                <path d="M156.89,58.28L144.08,58.28C144.036,58.281 143.992,58.281 143.948,58.281C139.449,58.281 135.748,54.579 135.748,50.081C135.748,49.931 135.752,49.78 135.76,49.63C135.929,46.025 138.459,42.936 141.96,42.06C142.036,42.043 142.11,42.016 142.18,41.98C142.25,41.944 142.18,41.98 142.18,41.79C141.97,39.439 143.296,37.203 145.46,36.26C147.601,35.328 150.11,35.828 151.73,37.51L152.2,37.96C153.254,34.589 155.744,31.85 159,30.48C161.457,29.43 164.203,29.26 166.77,30C173.08,31.69 175.93,38 175.17,43.32L175.35,43.32C175.905,43.329 176.46,43.373 177.01,43.45C180.59,44.043 183.242,47.171 183.242,50.8C183.242,54.478 180.519,57.633 176.88,58.17C176.459,58.227 176.035,58.26 175.61,58.27L156.89,58.28ZM147.68,36.79C147.056,36.79 146.439,36.923 145.87,37.18C144.092,37.953 143.001,39.788 143.17,41.72C143.184,41.79 143.191,41.861 143.191,41.933C143.191,42.506 142.742,42.989 142.17,43.03C138.947,43.821 136.663,46.733 136.663,50.052C136.663,54.018 139.927,57.282 143.893,57.282C143.945,57.282 143.998,57.281 144.05,57.28L175.53,57.28C175.911,57.273 176.292,57.243 176.67,57.19C179.805,56.705 182.142,53.978 182.142,50.806C182.142,47.675 179.866,44.972 176.78,44.44C176.262,44.377 175.742,44.34 175.22,44.33L174.48,44.33C174.336,44.321 174.201,44.252 174.11,44.14C174.027,44.025 173.994,43.88 174.02,43.74C175.251,38.195 171.917,32.576 166.46,31C164.107,30.322 161.591,30.478 159.34,31.44C156.123,32.796 153.737,35.606 152.92,39C152.868,39.167 152.737,39.298 152.57,39.35C152.4,39.394 152.219,39.348 152.09,39.23L151.71,38.86C151.46,38.63 151.24,38.42 151.03,38.2C150.144,37.307 148.939,36.799 147.68,36.79Z" style="fill:rgb(209,211,212);fill-rule:nonzero;"/>
            </g>
            <g transform="matrix(0.905095,0,0,0.905095,5906.35,6726.47)">
                <path d="M80.76,132.6C80.27,132.13 79.86,131.75 79.47,131.36C77.672,129.514 74.903,128.97 72.54,130C70.146,131.039 68.677,133.511 68.91,136.11C68.91,136.74 68.76,136.93 68.18,137.11C64.031,138.164 61.103,141.93 61.103,146.211C61.103,151.362 65.342,155.601 70.493,155.601C70.532,155.601 70.571,155.6 70.61,155.6L108.83,155.6C109.319,155.599 109.807,155.562 110.29,155.49C114.404,154.874 117.48,151.303 117.48,147.143C117.48,143.039 114.487,139.501 110.44,138.82C109.5,138.68 108.54,138.68 107.59,138.62C109.107,131.574 104.863,124.466 97.94,122.46C94.965,121.61 91.787,121.808 88.94,123.02C84.853,124.736 81.814,128.294 80.76,132.6Z" style="fill:white;fill-rule:nonzero;"/>
            </g>
            <g transform="matrix(0.905095,0,0,0.905095,5906.35,6726.47)">
                <path d="M86.22,156.05L70.61,156.05C70.552,156.051 70.493,156.052 70.435,156.052C65.036,156.052 60.595,151.61 60.595,146.212C60.595,146.028 60.6,145.844 60.61,145.66C60.815,141.336 63.85,137.631 68.05,136.58C68.42,136.49 68.42,136.49 68.4,136.14C68.151,133.33 69.735,130.659 72.32,129.53C74.881,128.42 77.878,129.015 79.82,131.02C80.04,131.24 80.26,131.46 80.51,131.69C81.734,127.568 84.736,124.2 88.69,122.51C91.653,121.244 94.964,121.039 98.06,121.93C105.7,123.93 109.13,131.64 108.17,138.1L108.5,138.1C109.169,138.111 109.837,138.161 110.5,138.25C114.783,138.98 117.947,142.728 117.947,147.073C117.947,151.474 114.701,155.255 110.35,155.92C109.843,155.989 109.332,156.026 108.82,156.03L86.22,156.05ZM75,130C74.227,129.996 73.463,130.16 72.76,130.48C70.563,131.44 69.217,133.712 69.43,136.1C69.446,136.18 69.454,136.262 69.454,136.345C69.454,136.985 68.958,137.525 68.32,137.58C64.541,138.685 61.926,142.175 61.926,146.112C61.926,150.912 65.812,154.889 70.61,155L108.83,155C109.295,154.999 109.76,154.966 110.22,154.9C114.078,154.303 116.954,150.948 116.954,147.044C116.954,143.192 114.155,139.867 110.36,139.21C109.73,139.127 109.096,139.08 108.46,139.07L107.56,139.02C107.419,139.011 107.288,138.941 107.2,138.83C107.11,138.718 107.073,138.571 107.1,138.43C108.613,131.634 104.508,124.749 97.81,122.85C94.933,122.018 91.855,122.205 89.1,123.38C85.1,125.08 82.55,128.13 81.24,132.7C81.187,132.864 81.056,132.992 80.89,133.04C80.72,133.082 80.54,133.037 80.41,132.92L79.95,132.48L79.12,131.68C78.021,130.601 76.54,129.998 75,130Z" style="fill:rgb(209,211,212);fill-rule:nonzero;"/>
            </g>
            <g transform="matrix(0.905095,0,0,0.905095,5906.35,6726.47)">
                <path d="M186.91,83.19L171.82,83.19C169.986,83.185 168.48,81.674 168.48,79.84L168.48,71.25C168.485,69.42 169.99,67.915 171.82,67.91L186.91,67.91C188.744,67.91 190.255,69.416 190.26,71.25L190.26,79.84C190.255,81.676 188.746,83.185 186.91,83.19ZM171.82,68.91C170.536,68.91 169.48,69.966 169.48,71.25L169.48,79.84C169.48,81.125 170.535,82.185 171.82,82.19L186.91,82.19C188.199,82.19 189.26,81.129 189.26,79.84L189.26,71.25C189.255,69.965 188.195,68.91 186.91,68.91L171.82,68.91Z" style="fill:rgb(209,211,212);fill-rule:nonzero;"/>
            </g>
            <g transform="matrix(0.905095,0,0,0.905095,5906.35,6726.47)">
                <path d="M175.9,80.4C175.808,80.402 175.718,80.378 175.64,80.33C175.493,80.236 175.403,80.074 175.4,79.9L175.4,71.19C175.401,71.018 175.492,70.858 175.64,70.77C175.79,70.69 175.97,70.69 176.12,70.77L185.12,75.13C185.293,75.212 185.403,75.388 185.4,75.58C185.398,75.77 185.29,75.944 185.12,76.03L176.12,80.38C176.049,80.402 175.974,80.409 175.9,80.4ZM176.4,71.99L176.4,79.1L183.72,75.55L176.4,71.99Z" style="fill:rgb(209,211,212);fill-rule:nonzero;"/>
            </g>
            <g transform="matrix(0.905095,0,0,0.905095,5906.35,6726.47)">
                <path d="M308.28,163.53C307.94,163.21 307.66,162.95 307.39,162.68C306.158,161.381 304.238,160.981 302.59,161.68C300.929,162.396 299.909,164.109 300.07,165.91C300.07,166.35 299.96,166.48 299.57,166.58C296.676,167.293 294.625,169.91 294.625,172.891C294.625,176.457 297.559,179.391 301.125,179.391C301.167,179.391 301.208,179.391 301.25,179.39L327.74,179.39C328.075,179.391 328.409,179.368 328.74,179.32C331.576,178.872 333.686,176.403 333.686,173.532C333.686,170.698 331.631,168.25 328.84,167.76C328.19,167.66 327.53,167.67 326.84,167.63C327.894,162.746 324.95,157.818 320.15,156.43C318.079,155.827 315.863,155.962 313.88,156.81C311.06,158.04 308.982,160.534 308.28,163.53Z" style="fill:white;fill-rule:nonzero;"/>
            </g>
            <g transform="matrix(0.905095,0,0,0.905095,5906.35,6726.47)">
                <path d="M312.38,179.94L301.25,179.94C301.22,179.94 301.19,179.941 301.161,179.941C297.321,179.941 294.161,176.781 294.161,172.941C294.161,172.82 294.164,172.7 294.17,172.58C294.325,169.521 296.471,166.903 299.44,166.15L299.58,166.15C299.573,166.114 299.573,166.076 299.58,166.04C299.4,164.028 300.537,162.114 302.39,161.31C304.222,160.516 306.367,160.939 307.76,162.37C307.847,162.47 307.947,162.57 308.06,162.67C308.955,159.867 311.031,157.59 313.74,156.44C315.826,155.561 318.151,155.417 320.33,156.03C325.162,157.448 328.232,162.273 327.47,167.25L327.54,167.25C328.008,167.262 328.476,167.299 328.94,167.36C331.983,167.874 334.232,170.535 334.232,173.621C334.232,176.748 331.922,179.433 328.83,179.9C328.473,179.956 328.112,179.982 327.75,179.98L312.38,179.94ZM304.28,161.86C303.767,161.859 303.26,161.964 302.79,162.17C301.325,162.811 300.427,164.327 300.57,165.92C300.583,165.984 300.589,166.05 300.589,166.115C300.589,166.626 300.198,167.059 299.69,167.11C297.148,167.753 295.308,169.992 295.17,172.61C295.164,172.717 295.161,172.824 295.161,172.931C295.161,176.222 297.87,178.931 301.161,178.931C301.191,178.931 301.22,178.93 301.25,178.93L327.74,178.93C328.055,178.931 328.369,178.907 328.68,178.86C331.28,178.461 333.219,176.202 333.219,173.572C333.219,170.979 331.335,168.742 328.78,168.3C328.352,168.241 327.922,168.207 327.49,168.2L326.85,168.2C326.704,168.187 326.57,168.115 326.48,168C326.395,167.885 326.363,167.74 326.39,167.6C327.412,162.975 324.617,158.294 320.06,157C318.098,156.433 315.999,156.56 314.12,157.36C311.424,158.504 309.431,160.87 308.76,163.72C308.714,163.888 308.58,164.019 308.41,164.06C308.243,164.108 308.063,164.062 307.94,163.94L307.62,163.64L307,163C306.277,162.281 305.3,161.871 304.28,161.86Z" style="fill:rgb(209,211,212);fill-rule:nonzero;"/>
            </g>
            <g transform="matrix(0.905095,0,0,0.905095,5906.35,6726.47)">
                <path d="M329.15,113.9L312.58,113.9C312.306,113.9 312.08,113.674 312.08,113.4L312.08,101.82C312.08,101.546 312.306,101.32 312.58,101.32L329.15,101.32C329.424,101.32 329.65,101.546 329.65,101.82L329.65,113.4C329.65,113.674 329.424,113.9 329.15,113.9ZM313.08,112.9L328.65,112.9L328.65,102.32L313.08,102.32L313.08,112.9Z" style="fill:rgb(209,211,212);fill-rule:nonzero;"/>
            </g>
            <g transform="matrix(0.905095,0,0,0.905095,5906.35,6726.47)">
                <path d="M312.57,113.9C312.465,113.901 312.362,113.866 312.28,113.8C312.063,113.639 312.014,113.33 312.17,113.11L318.72,104.29C318.811,104.171 318.95,104.097 319.1,104.09C319.253,104.089 319.399,104.155 319.5,104.27L324.62,110.34C324.674,110.422 324.704,110.518 324.704,110.617C324.704,110.891 324.478,111.117 324.204,111.117C324.076,111.117 323.953,111.068 323.86,110.98L319.14,105.4L313,113.7C312.898,113.833 312.737,113.908 312.57,113.9Z" style="fill:rgb(209,211,212);fill-rule:nonzero;"/>
            </g>
            <g transform="matrix(0.905095,0,0,0.905095,5906.35,6726.47)">
                <path d="M322.83,109.5C322.556,109.491 322.336,109.264 322.336,108.99C322.336,108.891 322.365,108.793 322.42,108.71L325.07,104.88C325.157,104.76 325.292,104.683 325.44,104.67C325.592,104.659 325.741,104.713 325.85,104.82L329.51,108.65C329.615,108.745 329.676,108.88 329.676,109.022C329.676,109.296 329.45,109.522 329.176,109.522C329.027,109.522 328.885,109.455 328.79,109.34L325.55,106L323.25,109.32C323.145,109.442 322.99,109.508 322.83,109.5Z" style="fill:rgb(209,211,212);fill-rule:nonzero;"/>
            </g>
            <g transform="matrix(0.905095,0,0,0.905095,5906.35,6726.47)">
                <path d="M323.12,105.67C322.281,105.67 321.59,104.979 321.59,104.14C321.59,103.301 322.281,102.61 323.12,102.61C323.959,102.61 324.65,103.301 324.65,104.14C324.65,104.979 323.959,105.67 323.12,105.67ZM323.12,103.67C322.835,103.67 322.6,103.905 322.6,104.19C322.6,104.193 322.6,104.197 322.6,104.2C322.6,104.485 322.835,104.72 323.12,104.72C323.12,104.72 323.12,104.72 323.12,104.72C323.411,104.72 323.65,104.481 323.65,104.19C323.652,104.173 323.652,104.157 323.652,104.14C323.652,103.855 323.418,103.62 323.132,103.62C323.128,103.62 323.124,103.62 323.12,103.62L323.12,103.67Z" style="fill:rgb(209,211,212);fill-rule:nonzero;"/>
            </g>
            <g transform="matrix(0.905095,0,0,0.905095,5906.35,6726.47)">
                <path d="M267,54.59L247.4,54.59C247.126,54.59 246.9,54.364 246.9,54.09L246.9,43.28C246.9,43.006 247.126,42.78 247.4,42.78L267,42.78C267.274,42.78 267.5,43.006 267.5,43.28L267.5,54.09C267.5,54.364 267.274,54.59 267,54.59ZM247.87,53.59L266.5,53.59L266.5,43.78L247.9,43.78L247.87,53.59Z" style="fill:rgb(209,211,212);fill-rule:nonzero;"/>
            </g>
            <g transform="matrix(0.905095,0,0,0.905095,5906.35,6726.47)">
                <path d="M257.22,50.52C257.118,50.518 257.018,50.491 256.93,50.44L247.12,43.69C246.9,43.532 246.846,43.223 247,43C247.162,42.779 247.474,42.725 247.7,42.88L257.23,49.43L266.75,42.88C266.838,42.812 266.945,42.775 267.056,42.775C267.331,42.775 267.556,43.001 267.556,43.275C267.556,43.448 267.467,43.609 267.32,43.7L257.51,50.45C257.422,50.5 257.321,50.524 257.22,50.52Z" style="fill:rgb(209,211,212);fill-rule:nonzero;"/>
            </g>
            <g transform="matrix(0.905095,0,0,0.905095,5906.35,6726.47)">
                <path d="M247.4,54.59C247.236,54.589 247.082,54.506 246.99,54.37C246.932,54.288 246.901,54.189 246.901,54.088C246.901,53.924 246.983,53.771 247.12,53.68L255,48.27C255.229,48.117 255.542,48.175 255.7,48.4C255.758,48.484 255.79,48.584 255.79,48.686C255.79,48.852 255.707,49.007 255.57,49.1L247.71,54.5C247.619,54.562 247.51,54.594 247.4,54.59Z" style="fill:rgb(209,211,212);fill-rule:nonzero;"/>
            </g>
            <g transform="matrix(0.905095,0,0,0.905095,5906.35,6726.47)">
                <path d="M267,54.59C266.9,54.588 266.802,54.557 266.72,54.5L258.86,49.1C258.639,48.938 258.585,48.626 258.74,48.4C258.895,48.177 259.205,48.118 259.43,48.27L267.29,53.68C267.513,53.835 267.572,54.145 267.42,54.37C267.324,54.506 267.167,54.588 267,54.59Z" style="fill:rgb(209,211,212);fill-rule:nonzero;"/>
            </g>
            <g transform="matrix(0.905095,0,0,0.905095,5906.35,6726.47)">
                <path d="M212.66,30.84L213.66,30.84C213.693,30.846 213.727,30.846 213.76,30.84C215.191,30.91 216.575,31.374 217.76,32.18C220.364,33.873 221.774,36.92 221.38,40C221.232,41.843 220.43,43.575 219.12,44.88C217.355,46.759 214.801,47.694 212.24,47.4C210.91,47.274 209.633,46.813 208.53,46.06C206.554,44.761 205.23,42.672 204.9,40.33C204.9,40.09 204.83,39.85 204.8,39.61L204.8,38.7C204.804,38.643 204.804,38.587 204.8,38.53C204.8,38.17 204.88,37.82 204.95,37.47C205.669,34.04 208.479,31.415 211.95,30.93L212.66,30.84ZM219.21,43.84C220.158,42.601 220.7,41.099 220.76,39.54L217.47,39.54C217.41,40.13 217.38,40.72 217.3,41.29C217.22,41.86 217.1,42.44 217.01,42.98L219.21,43.84ZM205.48,39.54C205.543,41.098 206.084,42.6 207.03,43.84L209.26,42.98C208.975,41.855 208.821,40.701 208.8,39.54L205.48,39.54ZM220.75,38.87C220.691,37.317 220.149,35.821 219.2,34.59L217,35.4C217.285,36.518 217.439,37.666 217.46,38.82L220.75,38.87ZM209.26,35.4L207,34.53C206.057,35.767 205.519,37.266 205.46,38.82L208.76,38.82C208.794,37.664 208.961,36.517 209.26,35.4ZM213.46,42.47C213.95,42.47 214.46,42.54 214.89,42.59C215.32,42.64 215.89,42.73 216.32,42.8C216.324,42.757 216.324,42.713 216.32,42.67C216.565,41.688 216.702,40.682 216.73,39.67C216.73,39.53 216.73,39.5 216.56,39.5L213.42,39.5L213.46,42.47ZM209.46,39.47C209.472,40.577 209.62,41.679 209.9,42.75L212.77,42.43L212.77,39.43L209.46,39.47ZM216.76,38.8C216.746,37.696 216.598,36.598 216.32,35.53L213.45,35.85L213.45,38.85L216.76,38.8ZM209.9,35.53C209.627,36.599 209.479,37.697 209.46,38.8L212.77,38.8L212.77,35.88L209.9,35.53ZM216.12,34.84C215.889,34.127 215.552,33.453 215.12,32.84C214.838,32.398 214.454,32.031 214,31.77C213.814,31.677 213.624,31.594 213.43,31.52L213.43,35.16C214.338,35.152 215.243,35.052 216.13,34.86L216.12,34.84ZM213.45,43.14L213.45,46.74C213.849,46.662 214.216,46.471 214.51,46.19C215.135,45.586 215.614,44.847 215.91,44.03L216.13,43.44C215.251,43.259 214.357,43.165 213.46,43.16L213.45,43.14ZM212.77,46.75L212.77,43.15C211.866,43.175 210.966,43.278 210.08,43.46C210.24,43.85 210.38,44.22 210.55,44.57C210.829,45.21 211.242,45.782 211.76,46.25C212.049,46.51 212.4,46.689 212.78,46.77L212.77,46.75ZM210.06,34.83C210.95,35.025 211.858,35.129 212.77,35.14L212.77,31.55C212.495,31.601 212.235,31.714 212.01,31.88C211.467,32.269 211.031,32.789 210.74,33.39C210.5,33.86 210.3,34.35 210.07,34.85L210.06,34.83ZM218.73,44.33C218.112,44.014 217.462,43.765 216.79,43.59C216.463,44.669 215.907,45.665 215.16,46.51C216.53,46.134 217.769,45.386 218.74,44.35L218.73,44.33ZM211.05,31.8C209.675,32.166 208.439,32.932 207.5,34L209.4,34.71C209.64,34.17 209.85,33.71 210.09,33.17C210.342,32.673 210.67,32.218 211.06,31.82L211.05,31.8ZM207.5,44.35C208.476,45.396 209.722,46.154 211.1,46.54C210.34,45.699 209.78,44.697 209.46,43.61C208.781,43.784 208.124,44.032 207.5,44.35ZM215.21,31.82C215.582,32.231 215.895,32.693 216.14,33.19C216.38,33.68 216.59,34.19 216.82,34.7C217.486,34.531 218.13,34.286 218.74,33.97C217.788,32.937 216.565,32.191 215.21,31.82Z" style="fill:rgb(209,211,212);fill-rule:nonzero;"/>
            </g>
            <g transform="matrix(0.905095,0,0,0.905095,5906.35,6726.47)">
                <path d="M76.22,119.62C76.121,119.635 76.019,119.635 75.92,119.62C75.476,119.496 75.173,119.08 75.19,118.62L75.19,116.4C74.15,115.856 73.497,114.774 73.5,113.6L73.5,108.96C73.5,107.225 74.925,105.795 76.66,105.79L87.23,105.79C88.969,105.79 90.4,107.221 90.4,108.96L90.4,113.6C90.395,115.335 88.965,116.76 87.23,116.76L78.62,116.76L77.07,119.17C76.882,119.455 76.561,119.625 76.22,119.62ZM76.66,106.77C75.473,106.775 74.5,107.753 74.5,108.94L74.5,113.58C74.503,114.466 75.053,115.263 75.88,115.58C76.068,115.654 76.192,115.838 76.19,116.04L76.19,118.59L77.92,116C78.014,115.86 78.171,115.774 78.34,115.77L87.23,115.77C88.417,115.77 89.395,114.797 89.4,113.61L89.4,108.97C89.4,107.78 88.42,106.8 87.23,106.8L76.66,106.77Z" style="fill:rgb(209,211,212);fill-rule:nonzero;"/>
            </g>
            <g transform="matrix(1,0,0,1,35.9311,-47.5396)">
                <g transform="matrix(2.11063,0,0,2.11063,6110.35,6766.65)">
                    <rect x="56.49" y="55.48" width="63.41" height="46.12" style="fill:rgb(234,234,234);"/>
                </g>
                <g transform="matrix(2.11063,0,0,2.11063,6110.35,6766.65)">
                    <rect x="61.05" y="94" width="55.66" height="2.19" style="fill:rgb(160,160,160);"/>
                </g>
                <g transform="matrix(2.11063,0,0,2.11063,6110.35,6766.65)">
                    <rect x="82.06" y="77.13" width="5.4" height="4.71" style="fill:rgb(175,175,175);"/>
                </g>
                <g transform="matrix(2.11063,0,0,2.11063,6110.35,6766.65)">
                    <rect x="76.7" y="73.47" width="5.4" height="8.36" style="fill:rgb(175,175,175);"/>
                </g>
                <g transform="matrix(2.11063,0,0,2.11063,6110.35,6766.65)">
                    <rect x="71.35" y="69.61" width="5.4" height="12.23" style="fill:rgb(255,116,105);"/>
                </g>
                <g transform="matrix(2.11063,0,0,2.11063,6110.35,6766.65)">
                    <rect x="65.99" y="65.85" width="5.4" height="15.99" style="fill:rgb(175,175,175);"/>
                </g>
                <g transform="matrix(2.11063,0,0,2.11063,6110.35,6766.65)">
                    <rect x="60.63" y="62.06" width="5.4" height="19.78" style="fill:rgb(157,97,255);"/>
                </g>
                <g transform="matrix(2.11063,0,0,2.11063,6110.35,6766.65)">
                    <rect x="60.63" y="62.06" width="5.4" height="19.78" style="fill:url(#_Linear1);"/>
                </g>
                <g transform="matrix(2.11063,0,0,2.11063,6094.96,6750.89)">
                    <path d="M114.56,30.71C114.56,34.601 111.361,37.805 107.47,37.81L89.26,37.81C89.171,37.813 89.082,37.815 88.994,37.815C85.099,37.815 81.894,34.61 81.894,30.715C81.894,26.82 85.099,23.615 88.994,23.615C89.082,23.615 89.171,23.617 89.26,23.62L91.88,23.62C91.87,23.427 91.87,23.233 91.88,23.04C92.081,19.613 94.956,16.902 98.389,16.902C101.735,16.902 104.566,19.478 104.88,22.81L104.88,23C104.89,23.193 104.89,23.387 104.88,23.58L107.49,23.58C107.493,23.58 107.497,23.58 107.5,23.58C111.384,23.58 114.58,26.776 114.58,30.66C114.58,30.663 114.58,30.667 114.58,30.67L114.56,30.71Z" style="fill:rgb(189,189,189);fill-rule:nonzero;"/>
                </g>
                <g transform="matrix(2.11063,0,0,2.11063,6094.96,6750.89)">
                    <path d="M112.36,30C112.36,33.891 109.161,37.095 105.27,37.1L87.05,37.1C83.258,36.958 80.216,33.799 80.216,30.005C80.216,26.211 83.258,23.052 87.05,22.91L89.67,22.91C89.66,22.717 89.66,22.523 89.67,22.33C89.935,18.956 92.785,16.32 96.17,16.32C99.555,16.32 102.405,18.956 102.67,22.33C102.68,22.523 102.68,22.717 102.67,22.91L105.29,22.91C109.17,22.926 112.355,26.12 112.36,30Z" style="fill:rgb(234,234,234);fill-rule:nonzero;"/>
                </g>
                <g transform="matrix(2.11063,0,0,2.11063,6110.35,6766.65)">
                    <rect x="88.19" y="29.66" width="1.36" height="6.01" style="fill:rgb(189,189,189);"/>
                </g>
                <g transform="matrix(2.11063,0,0,2.11063,6110.35,6766.65)">
                    <path d="M105.75,44.61L104.39,44.61L104.39,36.35L72.83,36.35L72.83,44.61L71.47,44.61L71.47,34.99L105.75,34.99L105.75,44.61Z" style="fill:rgb(189,189,189);fill-rule:nonzero;"/>
                </g>
                <g transform="matrix(2.11063,0,0,2.11063,6110.35,6766.65)">
                    <rect x="88.19" y="35.67" width="1.36" height="8.95" style="fill:rgb(189,189,189);"/>
                </g>
                <g transform="matrix(2.11063,0,0,2.11063,6110.35,6766.65)">
                    <rect x="102.31" y="44.61" width="5.24" height="5.24" style="fill:rgb(189,189,189);"/>
                </g>
                <g transform="matrix(2.11063,0,0,2.11063,6110.35,6766.65)">
                    <rect x="86.25" y="44.61" width="5.24" height="5.24" style="fill:rgb(189,189,189);"/>
                </g>
                <g transform="matrix(2.11063,0,0,2.11063,6110.35,6766.65)">
                    <rect x="69.64" y="44.61" width="5.24" height="5.24" style="fill:rgb(189,189,189);"/>
                </g>
                <g transform="matrix(2.11063,0,0,2.11063,6110.35,6766.65)">
                    <rect x="61.05" y="85.82" width="55.66" height="2.19" style="fill:rgb(160,160,160);"/>
                </g>
                <g transform="matrix(2.11063,0,0,2.11063,6110.35,6766.65)">
                    <rect x="61.05" y="85.82" width="27.14" height="2.19" style="fill:url(#_Linear2);"/>
                </g>
                <g transform="matrix(2.11063,0,0,2.11063,6110.35,6766.65)">
                    <rect x="67.55" y="93.92" width="27.14" height="2.19" style="fill:url(#_Linear3);"/>
                </g>
                <g transform="matrix(2.11063,0,0,2.11063,6110.35,6766.65)">
                    <rect x="61.05" y="89.91" width="55.66" height="2.19" style="fill:rgb(255,116,105);"/>
                </g>
                <g transform="matrix(2.11063,0,0,2.11063,6110.35,6766.65)">
                    <rect x="63.13" y="89.91" width="35.75" height="2.19" style="fill:url(#_Linear4);"/>
                </g>
                <g transform="matrix(2.11063,0,0,2.11063,6094.96,6750.89)">
                    <path d="M103.14,77.35C103.142,76.423 103.34,75.506 103.72,74.66L99.72,72.48C98.969,73.997 98.578,75.668 98.578,77.361C98.578,81.545 100.966,85.382 104.72,87.23C105.421,87.57 106.155,87.838 106.91,88.03L107.72,83.52C105.009,82.699 103.141,80.183 103.14,77.35Z" style="fill:rgb(255,188,14);fill-rule:nonzero;"/>
                </g>
                <g transform="matrix(2.11063,0,0,2.11063,6094.96,6750.89)">
                    <path d="M119.06,83C116.564,87.164 111.593,89.207 106.89,88L107.7,83.49C110.446,84.334 113.44,83.243 115,80.83L119.06,83Z" style="fill:rgb(255,188,14);fill-opacity:0.5;fill-rule:nonzero;"/>
                </g>
                <g transform="matrix(2.11063,0,0,2.11063,6094.96,6750.89)">
                    <path d="M120.62,77.35C120.621,79.34 120.081,81.293 119.06,83L115.06,80.81C115.732,79.766 116.089,78.551 116.089,77.31C116.089,73.764 113.171,70.846 109.625,70.846C107.429,70.846 105.379,71.964 104.19,73.81C104.02,74.067 103.873,74.338 103.75,74.62L99.75,72.44C101.576,68.628 105.444,66.192 109.671,66.192C115.705,66.192 120.671,71.158 120.671,77.192C120.671,77.231 120.67,77.271 120.67,77.31L120.62,77.35Z" style="fill:url(#_Linear5);fill-rule:nonzero;"/>
                </g>
            </g>
            <g transform="matrix(0.70276,0,0,0.70276,6109.24,6829.72)">
                <path d="M264.08,176.18L264.08,206.58C264.08,215.16 235.7,222.11 200.69,222.11C165.68,222.11 137.31,215.11 137.31,206.58L137.31,176.18L264.08,176.18Z" style="fill:rgb(224,224,224);fill-rule:nonzero;"/>
                <path d="M200.69,223.11C169.05,223.11 136.31,216.93 136.31,206.58L136.31,176.18C136.31,175.631 136.761,175.18 137.31,175.18L264.08,175.18C264.629,175.18 265.08,175.631 265.08,176.18L265.08,206.58C265.08,216.93 232.34,223.11 200.69,223.11ZM138.31,177.18L138.31,206.58C138.31,213.58 163.38,221.11 200.69,221.11C238,221.11 263.08,213.6 263.08,206.58L263.08,177.18L138.31,177.18Z" style="fill:rgb(56,56,56);fill-rule:nonzero;"/>
                <ellipse cx="200.69" cy="176.18" rx="63.38" ry="15.54" style="fill:rgb(56,56,56);"/>
                <path d="M200.69,192.71C169.04,192.71 136.31,186.53 136.31,176.18C136.31,165.83 169.04,159.64 200.69,159.64C232.34,159.64 265.08,165.83 265.08,176.18C265.08,186.53 232.34,192.71 200.69,192.71ZM200.69,161.64C163.38,161.64 138.31,169.16 138.31,176.18C138.31,183.2 163.38,190.71 200.69,190.71C238,190.71 263.08,183.2 263.08,176.18C263.08,169.16 238,161.64 200.69,161.64Z" style="fill:rgb(56,56,56);fill-rule:nonzero;"/>
                <path d="M254.61,206C254.061,206 253.61,205.549 253.61,205L253.61,193.15C253.61,192.601 254.061,192.15 254.61,192.15C255.159,192.15 255.61,192.601 255.61,193.15L255.61,205C255.61,205.549 255.159,206 254.61,206Z" style="fill:rgb(56,56,56);fill-rule:nonzero;"/>
                <path d="M264.08,134.67L264.08,165.07C264.08,173.65 235.7,180.61 200.69,180.61C165.68,180.61 137.31,173.61 137.31,165.07L137.31,134.67L264.08,134.67Z" style="fill:rgb(224,224,224);fill-rule:nonzero;"/>
                <path d="M200.69,181.61C169.05,181.61 136.31,175.42 136.31,165.07L136.31,134.67C136.31,134.121 136.761,133.67 137.31,133.67L264.08,133.67C264.629,133.67 265.08,134.121 265.08,134.67L265.08,165.07C265.08,175.42 232.34,181.61 200.69,181.61ZM138.31,135.67L138.31,165.07C138.31,172.07 163.38,179.61 200.69,179.61C238,179.61 263.08,172.09 263.08,165.07L263.08,135.67L138.31,135.67Z" style="fill:rgb(56,56,56);fill-rule:nonzero;"/>
                <ellipse cx="200.69" cy="134.67" rx="63.38" ry="15.54" style="fill:rgb(56,56,56);"/>
                <path d="M200.69,151.21C169.04,151.21 136.31,145.03 136.31,134.67C136.31,124.31 169.04,118.14 200.69,118.14C232.34,118.14 265.08,124.32 265.08,134.67C265.08,145.02 232.34,151.21 200.69,151.21ZM200.69,120.14C163.38,120.14 138.31,127.65 138.31,134.67C138.31,141.69 163.38,149.21 200.69,149.21C238,149.21 263.08,141.69 263.08,134.67C263.08,127.65 238,120.14 200.69,120.14Z" style="fill:rgb(56,56,56);fill-rule:nonzero;"/>
                <path d="M254.61,164.53C254.061,164.53 253.61,164.079 253.61,163.53L253.61,151.64C253.61,151.091 254.061,150.64 254.61,150.64C255.159,150.64 255.61,151.091 255.61,151.64L255.61,163.53C255.61,164.079 255.159,164.53 254.61,164.53Z" style="fill:rgb(56,56,56);fill-rule:nonzero;"/>
                <path d="M247,167.59C246.451,167.59 246,167.139 246,166.59L246,154.7C246,154.151 246.451,153.7 247,153.7C247.549,153.7 248,154.151 248,154.7L248,166.59C248,167.139 247.549,167.59 247,167.59Z" style="fill:rgb(56,56,56);fill-rule:nonzero;"/>
                <path d="M247,209.05C246.451,209.05 246,208.599 246,208.05L246,196.16C246,195.611 246.451,195.16 247,195.16C247.549,195.16 248,195.611 248,196.16L248,208.05C248,208.599 247.549,209.05 247,209.05Z" style="fill:rgb(56,56,56);fill-rule:nonzero;"/>
                <path d="M239.33,210.27C238.781,210.27 238.33,209.819 238.33,209.27L238.33,197.38C238.33,196.831 238.781,196.38 239.33,196.38C239.879,196.38 240.33,196.831 240.33,197.38L240.33,209.27C240.33,209.819 239.879,210.27 239.33,210.27Z" style="fill:rgb(56,56,56);fill-rule:nonzero;"/>
                <path d="M264.08,93.17L264.08,123.57C264.08,132.15 235.7,139.11 200.69,139.11C165.68,139.11 137.31,132.11 137.31,123.57L137.31,93.17L264.08,93.17Z" style="fill:rgb(224,224,224);fill-rule:nonzero;"/>
                <path d="M200.69,140.11C169.05,140.11 136.31,133.92 136.31,123.57L136.31,93.17C136.31,92.621 136.761,92.17 137.31,92.17L264.08,92.17C264.629,92.17 265.08,92.621 265.08,93.17L265.08,123.57C265.08,133.92 232.34,140.11 200.69,140.11ZM138.31,94.17L138.31,123.57C138.31,130.57 163.38,138.11 200.69,138.11C238,138.11 263.08,130.59 263.08,123.57L263.08,94.17L138.31,94.17Z" style="fill:rgb(56,56,56);fill-rule:nonzero;"/>
                <ellipse cx="200.69" cy="93.17" rx="63.38" ry="15.54" style="fill:rgb(224,224,224);"/>
                <path d="M200.69,109.71C169.04,109.71 136.31,103.52 136.31,93.17C136.31,82.82 169,76.64 200.69,76.64C232.38,76.64 265.08,82.82 265.08,93.17C265.08,103.52 232.34,109.71 200.69,109.71ZM200.69,78.64C163.38,78.64 138.31,86.15 138.31,93.17C138.31,100.19 163.38,107.71 200.69,107.71C238,107.71 263.08,100.19 263.08,93.17C263.08,86.15 238,78.64 200.69,78.64Z" style="fill:rgb(56,56,56);fill-rule:nonzero;"/>
                <path d="M254.61,123C254.061,123 253.61,122.549 253.61,122L253.61,110.14C253.61,109.591 254.061,109.14 254.61,109.14C255.159,109.14 255.61,109.591 255.61,110.14L255.61,122C255.61,122.549 255.159,123 254.61,123Z" style="fill:rgb(9,63,104);fill-rule:nonzero;"/>
                <path d="M181.29,205.03L128.41,205.03L128.41,142.74L166.69,142.74L181.29,156.93L181.29,205.03Z" style="fill:white;fill-rule:nonzero;"/>
                <path d="M181.29,206L128.41,206C127.861,206 127.41,205.549 127.41,205L127.41,142.7C127.41,142.151 127.861,141.7 128.41,141.7L166.69,141.7C166.951,141.698 167.202,141.799 167.39,141.98L182,156.21C182.193,156.399 182.302,156.659 182.3,156.93L182.3,205C182.3,205.549 181.849,206 181.3,206C181.297,206 181.293,206 181.29,206ZM129.41,204L180.29,204L180.29,157.35L166.29,143.74L129.41,143.74L129.41,204Z" style="fill:rgb(56,56,56);fill-rule:nonzero;"/>
                <path d="M166.69,142.74L166.69,156.93L181.29,156.93L166.69,142.74Z" style="fill:rgb(112,204,64);fill-rule:nonzero;"/>
                <path d="M181.29,157.93L166.69,157.93C166.141,157.93 165.69,157.479 165.69,156.93L165.69,142.74C165.69,142.738 165.69,142.736 165.69,142.734C165.69,142.186 166.141,141.734 166.69,141.734C166.952,141.734 167.203,141.837 167.39,142.02L182,156.21C182.195,156.398 182.306,156.659 182.306,156.93C182.306,157.479 181.855,157.93 181.306,157.93L181.29,157.93ZM167.69,155.93L178.82,155.93L167.69,145.11L167.69,155.93Z" style="fill:rgb(56,56,56);fill-rule:nonzero;"/>
                <path d="M154.85,156.1L136.59,156.1C136.041,156.1 135.59,155.649 135.59,155.1C135.59,154.551 136.041,154.1 136.59,154.1L154.85,154.1C155.399,154.1 155.85,154.551 155.85,155.1C155.85,155.649 155.399,156.1 154.85,156.1Z" style="fill:rgb(223,234,239);fill-rule:nonzero;"/>
                <path d="M171.68,168.87L136.59,168.87C136.041,168.87 135.59,168.419 135.59,167.87C135.59,167.321 136.041,166.87 136.59,166.87L171.68,166.87C172.229,166.87 172.68,167.321 172.68,167.87C172.68,168.419 172.229,168.87 171.68,168.87Z" style="fill:rgb(223,234,239);fill-rule:nonzero;"/>
                <path d="M171.68,181.46L161.68,181.46C161.131,181.46 160.68,181.009 160.68,180.46C160.68,179.911 161.131,179.46 161.68,179.46L171.68,179.46C172.229,179.46 172.68,179.911 172.68,180.46C172.68,181.009 172.229,181.46 171.68,181.46Z" style="fill:rgb(223,234,239);fill-rule:nonzero;"/>
                <path d="M152.85,181.46L136.59,181.46C136.041,181.46 135.59,181.009 135.59,180.46C135.59,179.911 136.041,179.46 136.59,179.46L152.85,179.46C153.399,179.46 153.85,179.911 153.85,180.46C153.85,181.009 153.399,181.46 152.85,181.46Z" style="fill:rgb(223,234,239);fill-rule:nonzero;"/>
                <path d="M160.27,194.05L136.59,194.05C136.041,194.05 135.59,193.599 135.59,193.05C135.59,192.501 136.041,192.05 136.59,192.05L160.27,192.05C160.819,192.05 161.27,192.501 161.27,193.05C161.27,193.599 160.819,194.05 160.27,194.05Z" style="fill:rgb(223,234,239);fill-rule:nonzero;"/>
                <path d="M283.59,120.45C283.601,122.649 282.77,124.772 281.27,126.38C279.821,127.94 277.789,128.831 275.66,128.84L214,128.84C209.525,128.71 205.948,124.925 206.07,120.45C206.06,118.251 206.89,116.129 208.39,114.52C208.826,114.063 209.313,113.657 209.84,113.31C209.611,112.222 209.493,111.112 209.49,110C209.49,101.74 215.82,95 223.63,95C226.147,94.985 228.618,95.678 230.76,97C231,87 238.75,78.9 248.3,78.9C257.85,78.9 265.5,86.9 265.8,96.81L266.61,96.81C273.51,96.81 279.11,102.73 279.11,110.03C279.109,110.957 279.015,111.882 278.83,112.79C281.761,114.204 283.62,117.196 283.59,120.45Z" style="fill:white;fill-rule:nonzero;"/>
                <path d="M275.66,129.84L214,129.84C208.977,129.71 204.948,125.474 205.07,120.45C205.055,117.995 205.986,115.626 207.67,113.84C207.996,113.476 208.355,113.141 208.74,112.84C208.572,111.893 208.488,110.932 208.49,109.97C208.49,101.16 215.29,93.97 223.63,93.97C225.783,93.968 227.909,94.45 229.85,95.38C230.85,85.57 238.76,77.84 248.26,77.84C257.99,77.84 265.92,85.62 266.7,95.72C274.08,95.8 280.07,102.15 280.07,109.94C280.068,110.68 280.011,111.419 279.9,112.15C282.804,113.869 284.579,117.015 284.55,120.39C284.567,122.846 283.639,125.217 281.96,127.01C280.345,128.786 278.061,129.812 275.66,129.84ZM223.67,96C216.43,96 210.53,102.27 210.53,110C210.531,111.045 210.641,112.088 210.86,113.11C210.926,113.498 210.757,113.891 210.43,114.11C209.968,114.414 209.542,114.77 209.16,115.17C207.85,116.597 207.134,118.473 207.16,120.41C207.043,124.335 210.166,127.665 214.09,127.8L275.71,127.8C277.562,127.793 279.33,127.018 280.59,125.66C281.902,124.23 282.618,122.351 282.59,120.41C282.633,117.535 280.998,114.883 278.41,113.63C277.99,113.436 277.756,112.974 277.85,112.52C278.021,111.677 278.108,110.82 278.11,109.96C278.11,103.22 272.95,97.74 266.61,97.74L265.87,97.74C265.847,97.742 265.823,97.742 265.8,97.742C265.251,97.742 264.8,97.291 264.8,96.742C264.8,96.742 264.8,96.741 264.8,96.74C264.51,87.24 257.26,79.8 248.3,79.8C239.34,79.8 232,87.61 231.8,97.09C231.794,97.449 231.595,97.778 231.28,97.95C230.971,98.128 230.589,98.128 230.28,97.95C228.304,96.691 226.013,96.015 223.67,96Z" style="fill:rgb(56,56,56);fill-rule:nonzero;"/>
                <path d="M239.06,125.92L239.06,111.36L230.66,111.36L230.66,125.92L226.22,125.92L234.86,134.68L243.51,125.92L239.06,125.92Z" style="fill:rgb(255,188,14);fill-rule:nonzero;"/>
                <path d="M234.86,135.67C234.594,135.672 234.339,135.567 234.15,135.38L225.51,126.62C225.327,126.433 225.224,126.182 225.224,125.92C225.224,125.373 225.673,124.922 226.22,124.92L229.66,124.92L229.66,111.36C229.66,110.811 230.111,110.36 230.66,110.36L239.06,110.36C239.609,110.36 240.06,110.811 240.06,111.36L240.06,124.92L243.51,124.92C244.057,124.922 244.506,125.373 244.506,125.92C244.506,126.182 244.403,126.433 244.22,126.62L235.58,135.38C235.389,135.57 235.129,135.674 234.86,135.67ZM228.61,126.92L234.86,133.25L241.12,126.92L239.06,126.92C238.511,126.92 238.06,126.469 238.06,125.92L238.06,112.36L231.66,112.36L231.66,125.92C231.66,126.469 231.209,126.92 230.66,126.92L228.61,126.92Z" style="fill:rgb(56,56,56);fill-rule:nonzero;"/>
                <path d="M259.04,120.11L259.04,134.68L250.64,134.68L250.64,120.11L246.19,120.11L254.84,111.36L263.48,120.11L259.04,120.11Z" style="fill:rgb(245,97,50);fill-rule:nonzero;"/>
                <path d="M259,135.67L250.6,135.67C250.051,135.67 249.6,135.219 249.6,134.67L249.6,121.11L246.15,121.11C245.603,121.108 245.154,120.657 245.154,120.11C245.154,119.848 245.257,119.597 245.44,119.41L254.09,110.66C254.277,110.469 254.533,110.361 254.8,110.36C255.067,110.361 255.323,110.469 255.51,110.66L264.16,119.41C264.443,119.697 264.526,120.128 264.37,120.5C264.212,120.872 263.844,121.114 263.44,121.11L260,121.11L260,134.67C260,135.219 259.549,135.67 259,135.67ZM251.6,133.67L258,133.67L258,120.11C258,119.561 258.451,119.11 259,119.11L261,119.11L254.75,112.78L248.49,119.11L250.55,119.11C251.099,119.11 251.55,119.561 251.55,120.11L251.6,133.67Z" style="fill:rgb(56,56,56);fill-rule:nonzero;"/>
            </g>
        </g>
        <g id="map">
        </g>
        <g id="map_1_">
        </g>
        <g id="white_line">
        </g>
        <g id="surveillance_camera_1_">
        </g>
        <g id="fan_1_">
        </g>
        <g id="air_conditioning_1_">
        </g>
        <g id="washing_machine_1_">
        </g>
        <g id="stove_1_">
        </g>
        <g id="coffee_maker_1_">
        </g>
        <g id="microwave_1_">
        </g>
        <g id="car_1_">
        </g>
        <g id="_laptop_3_">
        </g>
        <g id="smart_watches_3_">
        </g>
        <g id="smartphone_3_">
        </g>
        <g id="pad_3_">
        </g>
        <g id="refrigerator_1_">
        </g>
        <g id="_washing_machine_1_">
        </g>
        <g id="heating_1_">
        </g>
        <g id="idea_5_">
        </g>
        <g id="camera_2_">
        </g>
    </g>
    <defs>
        <linearGradient id="_Linear1" x1="0" y1="0" x2="1" y2="0" gradientUnits="userSpaceOnUse" gradientTransform="matrix(-262.008,680.234,-680.234,-262.008,475.836,1295.15)"><stop offset="0" style="stop-color:black;stop-opacity:1"/><stop offset="0.01" style="stop-color:black;stop-opacity:1"/><stop offset="0.08" style="stop-color:black;stop-opacity:0.69"/><stop offset="0.21" style="stop-color:black;stop-opacity:0.32"/><stop offset="1" style="stop-color:black;stop-opacity:0"/></linearGradient>
        <linearGradient id="_Linear2" x1="0" y1="0" x2="1" y2="0" gradientUnits="userSpaceOnUse" gradientTransform="matrix(-226.076,117.099,-117.099,-226.076,2154.36,240.806)"><stop offset="0" style="stop-color:black;stop-opacity:1"/><stop offset="0.01" style="stop-color:black;stop-opacity:1"/><stop offset="0.08" style="stop-color:black;stop-opacity:0.69"/><stop offset="0.21" style="stop-color:black;stop-opacity:0.32"/><stop offset="1" style="stop-color:black;stop-opacity:0"/></linearGradient>
        <linearGradient id="_Linear3" x1="0" y1="0" x2="1" y2="0" gradientUnits="userSpaceOnUse" gradientTransform="matrix(-225.805,117.099,-117.099,-225.805,2337.27,266.667)"><stop offset="0" style="stop-color:black;stop-opacity:1"/><stop offset="0.01" style="stop-color:black;stop-opacity:1"/><stop offset="0.08" style="stop-color:black;stop-opacity:0.69"/><stop offset="0.21" style="stop-color:black;stop-opacity:0.32"/><stop offset="1" style="stop-color:black;stop-opacity:0"/></linearGradient>
        <linearGradient id="_Linear4" x1="0" y1="0" x2="1" y2="0" gradientUnits="userSpaceOnUse" gradientTransform="matrix(-360.002,141.562,-141.562,-360.002,3067.92,246.473)"><stop offset="0" style="stop-color:black;stop-opacity:1"/><stop offset="0.01" style="stop-color:black;stop-opacity:1"/><stop offset="0.08" style="stop-color:black;stop-opacity:0.69"/><stop offset="0.21" style="stop-color:black;stop-opacity:0.32"/><stop offset="1" style="stop-color:black;stop-opacity:0"/></linearGradient>
        <linearGradient id="_Linear5" x1="0" y1="0" x2="1" y2="0" gradientUnits="userSpaceOnUse" gradientTransform="matrix(-867.997,-1257.24,1257.24,-867.997,3175.92,1547.15)"><stop offset="0" style="stop-color:black;stop-opacity:1"/><stop offset="0.01" style="stop-color:black;stop-opacity:1"/><stop offset="0.08" style="stop-color:black;stop-opacity:0.69"/><stop offset="0.21" style="stop-color:black;stop-opacity:0.32"/><stop offset="1" style="stop-color:black;stop-opacity:0"/></linearGradient>
    </defs>
</svg>
