<svg width="500" height="501" viewBox="0 0 500 501" fill="none" xmlns="http://www.w3.org/2000/svg">
<path d="M500 382.553H0V382.803H500V382.553Z" fill="#EBEBEB"/>
<path d="M449.901 398.649H416.779V398.899H449.901V398.649Z" fill="#EBEBEB"/>
<path d="M301.442 398.774H292.749V399.024H301.442V398.774Z" fill="#EBEBEB"/>
<path d="M415.778 389.363H354.333V389.613H415.778V389.363Z" fill="#EBEBEB"/>
<path d="M225.147 395.267H212.454V395.517H225.147V395.267Z" fill="#EBEBEB"/>
<path d="M203.55 395.267H166.717V395.517H203.55V395.267Z" fill="#EBEBEB"/>
<path d="M77.889 391.043H52.459V391.293H77.889V391.043Z" fill="#EBEBEB"/>
<path d="M158.778 391.043H83.8889V391.293H158.778V391.043Z" fill="#EBEBEB"/>
<path d="M237.014 337.955H43.915C40.768 337.955 38.207 335.394 38.207 332.247V60.8154C38.207 57.6684 40.768 55.1074 43.915 55.1074H237.014C240.16 55.1074 242.721 57.6684 242.721 60.8154V332.247C242.721 335.394 240.16 337.955 237.014 337.955ZM43.915 55.3584C40.905 55.3584 38.457 57.8064 38.457 60.8164V332.248C38.457 335.258 40.905 337.706 43.915 337.706H237.014C240.023 337.706 242.471 335.258 242.471 332.248V60.8154C242.471 57.8064 240.023 55.3574 237.014 55.3574L43.915 55.3584Z" fill="#EBEBEB"/>
<path d="M453.31 337.955H260.212C257.065 337.955 254.505 335.394 254.505 332.247V60.8154C254.505 57.6684 257.066 55.1074 260.212 55.1074H453.31C456.458 55.1074 459.018 57.6684 459.018 60.8154V332.247C459.019 335.394 456.458 337.955 453.31 337.955ZM260.212 55.3584C257.203 55.3584 254.755 57.8064 254.755 60.8164V332.248C254.755 335.258 257.203 337.706 260.212 337.706H453.31C456.32 337.706 458.768 335.258 458.768 332.248V60.8154C458.768 57.8064 456.32 55.3574 453.31 55.3574L260.212 55.3584Z" fill="#EBEBEB"/>
<path d="M190.778 249.66L433.818 249.66V72.1272L190.778 72.1272L190.778 249.66Z" fill="#E6E6E6"/>
<path d="M180.034 249.66L431.326 249.66V72.1272L180.034 72.1272L180.034 249.66Z" fill="#F0F0F0"/>
<path d="M416.284 234.618V87.1704L195.077 87.1704L195.077 234.618L416.284 234.618Z" fill="#FAFAFA"/>
<path d="M362.512 234.618L312.154 87.1704H264.064L314.423 234.618H362.512Z" fill="white"/>
<path d="M304.092 234.618L253.734 87.1704H234.986L285.345 234.618H304.092Z" fill="white"/>
<path d="M196.986 234.618L196.986 87.1704H195.076L195.076 234.618H196.986Z" fill="#E6E6E6"/>
<path d="M64.5763 201.37H150.395L150.395 79.6986L64.5763 79.6986L64.5763 201.37Z" fill="#E0E0E0"/>
<path d="M58.498 201.37H146.96L146.96 79.6986L58.498 79.6986L58.498 201.37Z" fill="#F5F5F5"/>
<path d="M138.228 191.782L138.228 89.2876L67.2303 89.2876L67.2303 191.782H138.228Z" fill="white"/>
<path d="M97.9301 286.551C104.301 270.833 119.452 264.981 124.686 255.057C131.544 242.054 131.505 222.549 125.666 215.51C120.593 209.394 103.792 250.752 101.9 255.373C95.3911 271.266 93.4991 283.06 92.2791 294.487C92.4181 284.774 92.5511 275.856 92.6601 268.975C93.0161 246.532 93.4611 239.313 93.6641 237.092C94.3651 236.007 95.1941 234.743 95.6751 234.065C99.7411 228.333 108.762 221.509 113.27 213.176C119.853 201.009 118.789 186.447 114.172 181.025C109.344 175.356 100.81 188.755 96.2781 202.032C91.7471 215.309 93.6831 228.017 92.4121 239.043C92.1461 241.206 91.8731 249.42 91.6171 260.814C90.2421 248.554 87.5041 240.341 82.4301 232.687C76.1891 223.273 70.8011 211.81 65.6581 213.292C60.5161 214.774 63.2841 229.941 67.3521 240.59C70.9751 250.073 88.8491 259.531 91.4821 267.156C91.1721 282.6 90.8951 302.167 90.6981 320.384C89.2891 310.974 90.2581 310.184 84.4841 295.778C81.0511 287.213 66.9781 276.651 65.3001 282.536C63.6531 288.311 66.1731 299.543 71.4861 307.332C75.7721 313.616 85.2811 313.609 87.4811 317.508C87.9941 318.418 89.6921 321.905 90.6611 323.91C90.4311 346.151 90.3291 365.783 90.4421 372.477L91.3641 372.544C91.3201 370.816 91.4311 359.502 91.6121 344.53C93.9211 336.563 109.466 331.913 114.268 323.628C119.294 314.958 122.905 304.84 120.75 298.065C118.953 292.417 104.787 300.098 99.0381 309.458C95.2091 315.692 92.8701 322.346 91.7781 331.285C91.9091 321.086 92.0581 310.128 92.2031 299.786C93.3671 297.207 96.0211 291.262 97.9301 286.551Z" fill="#E6E6E6"/>
<path d="M107.059 382.553H74.384C72.599 382.553 71.06 381.295 70.706 379.546L68.386 368.11H113.058L110.738 379.546C110.383 381.296 108.845 382.553 107.059 382.553Z" fill="#F0F0F0"/>
<path d="M113.992 372.544H67.4511C66.3361 372.544 65.3981 371.706 65.2741 370.598L64.3221 362.145C64.1761 360.846 65.1921 359.708 66.4991 359.708H114.943C116.25 359.708 117.267 360.846 117.12 362.145L116.168 370.598C116.044 371.706 115.107 372.544 113.992 372.544Z" fill="#F0F0F0"/>
<path d="M405.638 375.265H415.627V267.773H405.638V375.265Z" fill="#F0F0F0"/>
<path d="M202.062 382.428H411.791V375.264H202.062V382.428Z" fill="#F0F0F0"/>
<path d="M405.637 267.771H198.226V375.263H405.637V267.771Z" fill="#F5F5F5"/>
<path d="M407.987 267.772H418.31V260.997H407.987V267.772Z" fill="#E0E0E0"/>
<path d="M407.988 260.997H195.542V267.772H407.988V260.997Z" fill="#EBEBEB"/>
<path d="M390.751 314.197H213.111C208.683 314.197 205.081 310.595 205.081 306.166V283.146C205.081 278.717 208.684 275.115 213.111 275.115H390.751C395.18 275.115 398.782 278.717 398.782 283.146V306.166C398.782 310.595 395.18 314.197 390.751 314.197ZM213.111 277.115C209.786 277.115 207.081 279.821 207.081 283.146V306.166C207.081 309.491 209.786 312.197 213.111 312.197H390.751C394.076 312.197 396.782 309.491 396.782 306.166V283.146C396.782 279.821 394.076 277.115 390.751 277.115H213.111Z" fill="white"/>
<path d="M390.751 362.347H213.111C208.683 362.347 205.081 358.744 205.081 354.316V331.296C205.081 326.867 208.684 323.265 213.111 323.265H390.751C395.18 323.265 398.782 326.868 398.782 331.296V354.316C398.782 358.745 395.18 362.347 390.751 362.347ZM213.111 325.265C209.786 325.265 207.081 327.971 207.081 331.296V354.316C207.081 357.641 209.786 360.347 213.111 360.347H390.751C394.076 360.347 396.782 357.641 396.782 354.316V331.296C396.782 327.971 394.076 325.265 390.751 325.265H213.111Z" fill="white"/>
<path d="M350.382 298.197H253.482C252.05 298.197 250.885 297.032 250.885 295.6V293.708C250.885 292.276 252.05 291.111 253.482 291.111H350.382C351.814 291.111 352.979 292.276 352.979 293.708V295.6C352.979 297.032 351.814 298.197 350.382 298.197ZM253.482 293.112C253.159 293.112 252.885 293.385 252.885 293.709V295.601C252.885 295.924 253.158 296.198 253.482 296.198H350.382C350.705 296.198 350.979 295.925 350.979 295.601V293.709C350.979 293.386 350.706 293.112 350.382 293.112H253.482Z" fill="white"/>
<path d="M350.382 346.348H253.482C252.05 346.348 250.885 345.183 250.885 343.751V341.859C250.885 340.427 252.05 339.262 253.482 339.262H350.382C351.814 339.262 352.979 340.427 352.979 341.859V343.751C352.979 345.183 351.814 346.348 350.382 346.348ZM253.482 341.263C253.159 341.263 252.885 341.536 252.885 341.86V343.752C252.885 344.075 253.158 344.349 253.482 344.349H350.382C350.705 344.349 350.979 344.076 350.979 343.752V341.86C350.979 341.537 350.706 341.263 350.382 341.263H253.482Z" fill="white"/>
<path d="M245 427.716C352.082 427.716 438.889 422.647 438.889 416.393C438.889 410.14 352.082 405.07 245 405.07C137.918 405.07 51.1111 410.14 51.1111 416.393C51.1111 422.647 137.918 427.716 245 427.716Z" fill="#F5F5F5"/>
<path d="M374.773 167.905L374.392 173.795L375.39 173.859L375.771 167.97L374.773 167.905Z" fill="#407BFF"/>
<path d="M376.32 144.012L375.071 163.364L376.069 163.429L377.318 144.076L376.32 144.012Z" fill="#407BFF"/>
<path d="M364.44 115.891H246.886C240.728 115.891 235.364 120.929 234.965 127.087L219.783 361.586C219.384 367.744 224.096 372.782 230.254 372.782H347.808C353.966 372.782 359.33 367.744 359.729 361.586L374.911 127.087C375.31 120.929 370.598 115.891 364.44 115.891Z" fill="#407BFF"/>
<path opacity="0.7" d="M360.708 115.891H246.886C240.728 115.891 235.364 120.929 234.965 127.087L219.783 361.586C219.384 367.744 224.096 372.782 230.254 372.782H344.077C350.235 372.782 355.599 367.744 355.998 361.586L371.18 127.087C371.578 120.929 366.866 115.891 360.708 115.891Z" fill="white"/>
<path d="M351.112 355.455H225.906C223.928 355.455 222.362 353.784 222.49 351.811L236.228 139.619C236.345 137.818 237.839 136.417 239.644 136.417H364.85C366.828 136.417 368.394 138.088 368.266 140.061L354.528 352.253C354.411 354.054 352.917 355.455 351.112 355.455Z" fill="white"/>
<path d="M323.288 129.471H277.78C276.778 129.471 276.018 128.659 276.083 127.657C276.148 126.655 277.013 125.843 278.015 125.843H323.523C324.525 125.843 325.285 126.655 325.22 127.657C325.155 128.659 324.29 129.471 323.288 129.471Z" fill="white"/>
<path d="M287.768 364.37C287.641 366.832 285.542 368.827 283.08 368.827C280.618 368.827 278.726 366.831 278.853 364.37C278.98 361.908 281.079 359.912 283.541 359.912C286.003 359.912 287.896 361.908 287.768 364.37Z" fill="white"/>
<path opacity="0.2" d="M337.471 195.191H230.556L223.764 300.098H337.471C343.629 300.098 348.667 295.06 348.667 288.902V206.386C348.667 200.229 343.629 195.191 337.471 195.191Z" fill="#407BFF"/>
<path d="M327.513 290.769H196.483C190.325 290.769 185.287 285.731 185.287 279.573V197.057C185.287 190.899 190.325 185.861 196.483 185.861H327.514C333.672 185.861 338.71 190.899 338.71 197.057V279.573C338.709 285.731 333.671 290.769 327.513 290.769Z" fill="#407BFF"/>
<path d="M181.713 184.658C181.457 184.658 181.201 184.56 181.006 184.365L179.213 182.572C178.822 182.181 178.822 181.549 179.213 181.158C179.604 180.767 180.236 180.767 180.627 181.158L182.42 182.951C182.811 183.342 182.811 183.974 182.42 184.365C182.225 184.561 181.969 184.658 181.713 184.658Z" fill="#407BFF"/>
<path d="M179.011 190.933H176.476C175.923 190.933 175.476 190.485 175.476 189.933C175.476 189.381 175.923 188.933 176.476 188.933H179.011C179.564 188.933 180.011 189.381 180.011 189.933C180.011 190.485 179.564 190.933 179.011 190.933Z" fill="#407BFF"/>
<path d="M188.077 181.953C187.557 181.953 187.118 181.551 187.081 181.024L186.9 178.495C186.86 177.944 187.275 177.466 187.826 177.426C188.388 177.385 188.855 177.802 188.894 178.352L189.075 180.881C189.115 181.432 188.7 181.91 188.149 181.95C188.125 181.952 188.101 181.953 188.077 181.953Z" fill="#407BFF"/>
<path d="M273.194 279.988L313.415 320.209V279.988H273.194Z" fill="#407BFF"/>
<path d="M284.218 262.364L282.27 253.871C281.759 251.643 281.753 249.329 282.253 247.099L284.963 235.001C287.379 224.215 281.905 213.439 272.42 208.697C272.501 208.472 272.593 208.253 272.647 208.014C273.338 204.929 271.397 201.868 268.313 201.177C265.228 200.486 262.167 202.426 261.476 205.511C261.422 205.75 261.413 205.988 261.39 206.226C250.788 206.468 241.239 213.878 238.823 224.664L236.113 236.762C235.613 238.992 234.62 241.083 233.208 242.88L227.822 249.73C225.526 252.651 227.063 256.969 230.689 257.781L278.19 268.423C281.816 269.235 285.049 265.986 284.218 262.364Z" fill="white"/>
<path d="M248.345 264.987C246.782 264.637 245.378 265.993 245.647 267.572C246.189 270.76 248.599 273.46 251.95 274.211C255.301 274.962 258.632 273.548 260.483 270.896C261.4 269.583 260.709 267.757 259.146 267.407L248.345 264.987Z" fill="white"/>
<path d="M211.867 248.136C211.383 248.136 210.908 247.902 210.619 247.469C205.86 240.342 204.162 231.79 205.837 223.387C207.512 214.984 212.359 207.736 219.485 202.978C220.174 202.518 221.104 202.704 221.565 203.393C222.025 204.082 221.839 205.014 221.151 205.474C214.691 209.787 210.297 216.357 208.779 223.974C207.261 231.591 208.8 239.344 213.113 245.804C213.573 246.493 213.387 247.424 212.699 247.884C212.443 248.054 212.153 248.136 211.867 248.136Z" fill="white"/>
<path d="M218.225 243.891C217.741 243.891 217.266 243.657 216.977 243.224C213.353 237.796 212.059 231.282 213.335 224.881C214.61 218.481 218.303 212.96 223.73 209.336C224.418 208.875 225.35 209.061 225.81 209.751C226.27 210.44 226.084 211.372 225.396 211.832C220.634 215.011 217.396 219.854 216.276 225.468C215.157 231.083 216.292 236.797 219.47 241.559C219.93 242.248 219.744 243.179 219.056 243.639C218.801 243.809 218.511 243.891 218.225 243.891Z" fill="white"/>
<path d="M224.583 239.647C224.099 239.647 223.624 239.413 223.335 238.98C220.844 235.251 219.955 230.774 220.832 226.376C221.708 221.978 224.245 218.185 227.975 215.694C228.663 215.233 229.594 215.419 230.055 216.109C230.515 216.798 230.329 217.73 229.641 218.19C226.577 220.235 224.495 223.351 223.775 226.963C223.054 230.575 223.785 234.252 225.83 237.315C226.29 238.004 226.104 238.935 225.416 239.395C225.159 239.565 224.87 239.647 224.583 239.647Z" fill="white"/>
<path d="M298.348 269.248C297.805 269.248 297.281 268.952 297.014 268.437C296.634 267.701 296.923 266.795 297.659 266.415C304.561 262.852 309.662 256.814 312.023 249.415C314.383 242.015 313.72 234.139 310.157 227.237C309.777 226.501 310.066 225.596 310.802 225.216C311.538 224.838 312.443 225.124 312.823 225.861C316.754 233.474 317.485 242.163 314.881 250.326C312.277 258.49 306.649 265.15 299.036 269.081C298.815 269.194 298.579 269.248 298.348 269.248Z" fill="white"/>
<path d="M294.841 262.456C294.298 262.456 293.774 262.16 293.507 261.644C293.127 260.908 293.416 260.002 294.152 259.623C299.24 256.996 303 252.546 304.74 247.092C306.479 241.637 305.991 235.831 303.364 230.744C302.984 230.008 303.273 229.103 304.009 228.723C304.745 228.345 305.65 228.631 306.03 229.368C309.024 235.167 309.581 241.785 307.597 248.003C305.614 254.221 301.327 259.294 295.529 262.289C295.308 262.402 295.073 262.456 294.841 262.456Z" fill="white"/>
<path d="M291.334 255.663C290.791 255.663 290.267 255.367 290 254.852C289.62 254.116 289.909 253.21 290.645 252.831C293.918 251.142 296.337 248.278 297.456 244.769C298.575 241.259 298.262 237.525 296.571 234.252C296.191 233.516 296.48 232.61 297.216 232.231C297.953 231.853 298.857 232.139 299.237 232.876C303.484 241.102 300.247 251.249 292.021 255.497C291.801 255.609 291.566 255.663 291.334 255.663Z" fill="white"/>
<path d="M203.359 126.002H195.719C195.319 126.002 194.957 126.329 194.915 126.73L193.313 141.97C193.271 142.37 193.564 142.698 193.964 142.698H201.604C202.004 142.698 202.366 142.371 202.408 141.97L204.01 126.73C204.052 126.33 203.759 126.002 203.359 126.002Z" fill="#407BFF"/>
<path opacity="0.4" d="M202.672 126.002H195.719C195.319 126.002 194.957 126.329 194.915 126.73L193.313 141.97C193.271 142.37 193.564 142.698 193.964 142.698H200.917C201.317 142.698 201.679 142.371 201.721 141.97L203.323 126.73C203.365 126.33 203.072 126.002 202.672 126.002Z" fill="white"/>
<path d="M165.07 407.803C166.109 407.803 167.107 407.66 167.423 407.193C167.534 407.03 167.614 406.751 167.37 406.355C167.234 406.132 167.022 405.981 166.743 405.906C165.379 405.54 162.62 407.152 162.503 407.221C162.436 407.261 162.402 407.339 162.418 407.418C162.434 407.497 162.498 407.56 162.577 407.575C163.097 407.679 164.101 407.803 165.07 407.803ZM166.285 406.233C166.42 406.233 166.546 406.247 166.658 406.277C166.837 406.325 166.964 406.413 167.045 406.545C167.191 406.783 167.147 406.901 167.101 406.969C166.747 407.492 164.701 407.504 163.186 407.292C163.92 406.906 165.339 406.233 166.285 406.233Z" fill="#407BFF"/>
<path d="M162.614 407.579C162.641 407.579 162.667 407.573 162.692 407.562C163.65 407.123 165.51 405.372 165.322 404.457C165.278 404.242 165.114 403.974 164.584 403.921C164.189 403.881 163.838 403.992 163.535 404.25C162.542 405.096 162.419 407.277 162.414 407.37C162.41 407.438 162.444 407.504 162.501 407.544C162.535 407.566 162.574 407.579 162.614 407.579ZM164.446 404.296C164.484 404.296 164.522 404.298 164.561 404.302C164.908 404.337 164.936 404.473 164.944 404.518C165.057 405.067 163.802 406.444 162.831 407.043C162.907 406.406 163.138 405.101 163.791 404.546C163.987 404.378 164.203 404.296 164.446 404.296Z" fill="#407BFF"/>
<path d="M161.792 388.634H153.694V407.386H161.792V388.634Z" fill="#FF8B7B"/>
<path d="M94.948 398.449L103.036 399.324L108.313 381.121L100.225 380.246L94.948 398.449Z" fill="#FF8B7B"/>
<path d="M106.799 401.168C107.817 401.424 108.83 401.533 109.255 401.164C109.404 401.035 109.551 400.788 109.41 400.348C109.332 400.101 109.161 399.904 108.906 399.763C107.66 399.075 104.558 399.94 104.426 399.977C104.35 399.999 104.297 400.065 104.294 400.145C104.291 400.225 104.337 400.3 104.411 400.335C104.896 400.563 105.85 400.93 106.799 401.168ZM108.378 399.963C108.51 399.996 108.63 400.041 108.732 400.097C108.896 400.187 108.998 400.303 109.045 400.45C109.129 400.714 109.057 400.817 108.995 400.87C108.519 401.284 106.511 400.791 105.079 400.213C105.894 400.025 107.451 399.73 108.378 399.963Z" fill="#407BFF"/>
<path d="M104.447 400.349C104.473 400.356 104.5 400.357 104.527 400.352C105.574 400.168 107.829 398.947 107.871 398.024C107.881 397.807 107.786 397.511 107.281 397.329C106.904 397.193 106.532 397.213 106.172 397.385C104.99 397.951 104.33 400.01 104.303 400.097C104.283 400.161 104.299 400.234 104.345 400.286C104.373 400.318 104.409 400.339 104.447 400.349ZM107.054 397.655C107.091 397.664 107.129 397.676 107.166 397.689C107.497 397.808 107.491 397.945 107.488 397.99C107.463 398.544 105.893 399.554 104.793 399.888C105.025 399.296 105.574 398.102 106.351 397.731C106.584 397.62 106.816 397.595 107.054 397.655Z" fill="#407BFF"/>
<path d="M103.47 398.576L94.6231 396.037C94.3011 395.945 93.9681 396.085 93.8211 396.376L90.5591 402.841C90.2211 403.512 90.6241 404.354 91.3711 404.555C94.4731 405.389 96.0171 405.641 99.9081 406.758C102.302 407.445 107.172 409.106 110.477 410.054C113.71 410.982 115.011 407.899 113.73 407.219C107.986 404.167 106.147 401.704 104.63 399.422C104.357 399.009 103.941 398.711 103.47 398.576Z" fill="#263238"/>
<path d="M161.704 406.449H152.861C152.53 406.449 152.253 406.679 152.196 407.002L150.911 414.2C150.778 414.946 151.375 415.653 152.139 415.64C155.327 415.586 159.928 415.399 163.937 415.399C168.625 415.399 171.189 415.655 176.687 415.655C180.011 415.655 180.787 412.294 179.382 411.99C172.987 410.604 169.304 410.456 163.682 407.08C163.072 406.713 162.403 406.449 161.704 406.449Z" fill="#263238"/>
<path opacity="0.2" d="M161.788 388.64H153.687V398.306H161.788V388.64Z" fill="black"/>
<path opacity="0.2" d="M100.222 380.251L108.313 381.127L105.382 391.224L97.498 389.633L100.222 380.251Z" fill="black"/>
<path d="M148.467 202.184C148.467 202.184 144.004 263.294 139.973 286.478C135.559 311.866 109.904 389.603 109.904 389.603L95.2 386.92C95.2 386.92 113.728 313.916 115.781 288.779C118.009 261.498 120.69 205.262 120.69 205.262L148.467 202.184Z" fill="#407BFF"/>
<path opacity="0.3" d="M140.936 227.56C141.745 224.193 143.583 228.424 145.72 235.756C144.103 253.897 141.988 274.908 139.972 286.482C139.518 289.074 138.842 292.219 138.001 295.774C138.743 269.891 138.766 236.642 140.936 227.56Z" fill="black"/>
<path d="M163.738 200.491C163.738 200.491 169.615 261.953 169.814 286.647C170.021 312.332 164.728 396.433 164.728 396.433H151.01C151.01 396.433 146.894 313.833 145.181 288.607C143.313 261.107 135.441 203.626 135.441 203.626L163.738 200.491Z" fill="#407BFF"/>
<path d="M113.005 384.657C113.068 384.668 110.702 389.981 110.702 389.981L94.1592 386.963L95.1632 382.02L113.005 384.657Z" fill="#263238"/>
<path d="M167.128 390.97C167.191 390.97 166.603 396.665 166.603 396.665H149.916L149.243 391.582L167.128 390.97Z" fill="#263238"/>
<path d="M121.119 145.715C120.021 147.85 118.813 150.086 117.706 152.298L114.347 158.954C113.259 161.18 112.194 163.406 111.163 165.632C110.168 167.866 109.191 170.089 108.326 172.308L108.251 168.803C108.871 170.558 109.485 172.35 110.353 174.068C110.744 174.944 111.236 175.782 111.67 176.654C112.165 177.495 112.64 178.353 113.183 179.179C114.227 180.856 115.379 182.497 116.619 184.086C117.242 184.878 117.863 185.68 118.523 186.447C119.168 187.195 119.9 187.993 120.484 188.642L120.685 188.865C121.749 190.05 121.652 191.873 120.467 192.937C119.528 193.78 118.184 193.891 117.139 193.312C115.995 192.676 115.079 192.086 114.112 191.408C113.165 190.741 112.23 190.056 111.332 189.323C109.534 187.86 107.856 186.244 106.274 184.509C104.702 182.77 103.22 180.91 101.925 178.895C100.585 176.911 99.4681 174.746 98.4621 172.518C98.0141 171.526 97.9661 170.455 98.2481 169.487L98.3871 169.013C99.1501 166.404 100 163.87 100.94 161.391C101.876 158.917 102.878 156.486 103.938 154.092C104.991 151.697 106.113 149.342 107.278 147.011C108.477 144.681 109.628 142.401 110.985 140.072C112.598 137.304 116.149 136.369 118.916 137.981C121.591 139.54 122.555 142.909 121.16 145.631L121.119 145.715Z" fill="#FF8B7B"/>
<path d="M126.863 142.174C127.261 149.8 118.6 163.814 118.6 163.814L100.768 154.904C100.768 154.904 103.81 145.239 110.645 137.677C120.085 127.236 126.494 135.111 126.863 142.174Z" fill="#263238"/>
<path d="M114.777 191.89L118.367 197.892L125.837 193.112C125.837 193.112 123.852 189.295 120.03 187.885C118.894 187.466 117.606 188.006 116.992 189.153L114.777 191.89Z" fill="#FF8B7B"/>
<path d="M121.363 200.446L124.834 199.796C126.063 199.566 126.869 198.378 126.629 197.151L125.837 193.112L118.367 197.892L118.873 199.101C119.282 200.081 120.32 200.641 121.363 200.446Z" fill="#FF8B7B"/>
<path d="M142.425 103.815C142.503 104.47 142.909 104.973 143.331 104.94C143.753 104.906 144.032 104.349 143.953 103.694C143.875 103.039 143.469 102.536 143.047 102.569C142.626 102.602 142.347 103.16 142.425 103.815Z" fill="#263238"/>
<path d="M142.85 104.979C142.85 104.979 144.769 108.639 146.603 110.333C145.59 111.504 143.589 111.164 143.589 111.164L142.85 104.979Z" fill="#FF5652"/>
<path d="M139.627 100.367C139.73 100.38 139.835 100.351 139.916 100.279C141.155 99.1795 142.496 99.5495 142.552 99.5645C142.758 99.6225 142.963 99.5065 143.014 99.3035C143.065 99.0995 142.942 98.8865 142.738 98.8255C142.668 98.8035 140.951 98.3135 139.399 99.6915C139.243 99.8285 139.234 100.072 139.377 100.234C139.445 100.31 139.535 100.356 139.627 100.367Z" fill="#263238"/>
<path d="M122.271 111.057C124.183 116.841 126.722 127.52 123.096 131.792C123.096 131.792 125.476 137.622 136.445 136.698C148.506 135.682 141.443 130.247 141.443 130.247C134.659 129.235 134.204 124.355 134.764 119.689L122.271 111.057Z" fill="#FF8B7B"/>
<path d="M120.513 133.908C119.376 132.098 118.117 130.025 120.258 129.254C122.614 128.406 135.807 127.025 140.506 128.181C145.205 129.337 144.253 133.163 144.253 133.163L120.513 133.908Z" fill="#407BFF"/>
<path d="M159.16 136.345C160.881 137.927 162.741 139.671 164.589 141.276C166.437 142.915 168.313 144.516 170.191 146.097C172.085 147.652 173.993 149.167 175.919 150.616C177.861 152.024 179.806 153.382 181.773 154.572L177.761 154.198C179.244 153.824 180.844 153.109 182.407 152.044C183.965 150.981 185.524 149.668 186.977 148.164C188.455 146.682 189.846 145.021 191.189 143.292C191.856 142.424 192.528 141.544 193.158 140.635C193.777 139.742 194.422 138.766 194.974 137.93L195.083 137.765C195.961 136.433 197.753 136.066 199.085 136.944C200.168 137.658 200.611 138.979 200.268 140.162C199.89 141.461 199.494 142.571 199.028 143.739C198.57 144.89 198.093 146.037 197.549 147.158C196.461 149.401 195.209 151.592 193.722 153.703C192.223 155.798 190.518 157.847 188.419 159.674C186.334 161.498 183.839 163.151 180.876 164.195C179.621 164.637 178.305 164.524 177.196 163.984L176.864 163.821C174.327 162.574 171.935 161.205 169.647 159.734C167.368 158.264 165.177 156.711 163.052 155.097C160.929 153.485 158.879 151.8 156.879 150.065C154.883 148.291 152.959 146.586 151.011 144.599C148.77 142.311 148.807 138.639 151.095 136.398C153.306 134.232 156.81 134.194 159.066 136.26L159.16 136.345Z" fill="#FF8B7B"/>
<path d="M153.055 131.162C153.055 131.162 163.13 140.945 164.296 201.44C148.185 205.343 132.669 206.784 120.691 205.262C120.116 197.673 119.272 171.337 111.569 143.563C110.196 138.612 113.312 133.549 118.357 132.575C119.889 132.279 121.498 132.006 123.097 131.793C128.578 131.064 136.539 130.216 141.443 130.249C147.908 130.291 153.055 131.162 153.055 131.162Z" fill="#263238"/>
<path d="M145.228 141.695C146.195 149.27 159.181 163.814 159.181 163.814L174.614 147.819C174.614 147.819 167.94 140.639 159.787 134.521C148.528 126.075 144.332 134.679 145.228 141.695Z" fill="#263238"/>
<path d="M199.324 142.814L204.481 138.09L198.295 131.735C198.295 131.735 194.955 134.448 194.343 138.475C194.161 139.672 194.95 140.825 196.197 141.196L199.324 142.814Z" fill="#FF8B7B"/>
<path d="M206.38 134.641L205.045 131.372C204.572 130.214 203.247 129.664 202.093 130.146L198.296 131.734L204.482 138.089L205.565 137.351C206.441 136.753 206.781 135.623 206.38 134.641Z" fill="#FF8B7B"/>
<path d="M120.728 104.134C122.176 112.135 122.624 116.875 127.121 120.684C133.886 126.414 143.232 121.956 144.164 113.781C145.003 106.423 142.494 94.5742 134.351 91.9902C126.329 89.4442 119.28 96.1332 120.728 104.134Z" fill="#FF8B7B"/>
<path d="M136.504 107.032C139.315 107.679 141.531 104.43 141.795 103.504C140.428 103.636 138.003 102.931 137.518 102.313C139.017 102.445 140.472 100.593 140.649 99.8883C139.017 99.6683 137.21 98.2563 136.725 97.3303C139.15 97.2863 142.076 93.0093 139.4 89.1723C136.725 85.3363 125.569 88.5553 123.981 85.8213C121.644 87.1883 123.716 88.9963 123.716 88.9963C123.716 88.9963 107.93 91.9503 115.206 98.0803C109.871 98.5653 109.121 104.878 113.574 108.093C118.028 111.308 118.248 113.425 116.484 113.16C117.189 114.527 120.359 114.703 120.538 113.381C121.29 116.159 123.451 119.907 128.434 119.29C133.417 118.673 138.311 111.706 136.504 107.032Z" fill="#263238"/>
<path d="M116.611 97.1585C112.854 97.6755 111.138 95.5535 112.083 93.6865C107.425 96.0645 112.511 101.329 116.611 97.1585Z" fill="#263238"/>
<path d="M132.607 105.819C133.25 107.563 134.574 109.052 135.888 109.931C137.864 111.253 139.702 109.945 139.357 107.898C139.046 106.056 137.644 103.148 135.562 102.629C133.511 102.118 131.872 103.825 132.607 105.819Z" fill="#FF8B7B"/>
<path d="M386.785 387.673C379.384 370.212 376.394 349.699 384.865 350.524C393.555 351.37 392.531 382.328 393.945 385.728C391.228 388.057 386.785 387.673 386.785 387.673Z" fill="#407BFF"/>
<path d="M389.181 354.546C387.355 361.201 385.434 371.495 383.956 380.215C384.796 382.713 385.745 385.224 386.778 387.674C386.778 387.674 391.223 388.058 393.949 385.728C392.833 383.05 393.229 363.206 389.181 354.546Z" fill="#263238"/>
<path d="M389.216 384.475C386.904 347.372 393.247 312.986 409.86 314.539C424.141 315.874 403.32 378.336 403.721 385.543C397.181 388.079 389.216 384.475 389.216 384.475Z" fill="#407BFF"/>
<path d="M400.016 384.232C402.634 357.567 416.696 326.449 422.741 336.845C430.414 350.041 410.757 381.484 410.214 386.658C405.269 387.711 400.016 384.232 400.016 384.232Z" fill="#407BFF"/>
<path d="M397.367 324.441C395.683 324.165 394.743 323.111 394.849 321.623C394.97 319.947 396.349 318.278 397.633 318.253C398.244 318.258 399.288 318.57 399.546 320.89L398.552 321.001C398.43 319.904 398.098 319.253 397.661 319.253C397.658 319.253 397.655 319.253 397.652 319.253C396.969 319.266 395.932 320.499 395.846 321.694C395.776 322.668 396.342 323.259 397.528 323.455L397.367 324.441Z" fill="#407BFF"/>
<path d="M415.331 331.168C414.826 331.168 414.16 330.972 413.287 330.399L413.834 329.563C414.764 330.169 415.481 330.329 415.755 329.982C416.18 329.448 415.89 327.863 415.023 327.036C414.316 326.361 413.5 326.42 412.593 327.211L411.937 326.457C413.221 325.337 414.635 325.283 415.713 326.312C416.928 327.472 417.336 329.598 416.537 330.604C416.331 330.866 415.956 331.168 415.331 331.168Z" fill="#407BFF"/>
<path d="M390.815 346.258C389.464 346.258 388.506 345.553 388.2 344.295C387.802 342.663 388.603 340.653 389.818 340.236C390.389 340.042 391.489 340.03 392.446 342.161L391.534 342.571C391.08 341.558 390.564 341.04 390.142 341.181C389.496 341.403 388.887 342.894 389.171 344.059C389.401 345.006 390.124 345.394 391.31 345.22L391.458 346.208C391.235 346.241 391.021 346.258 390.815 346.258Z" fill="#407BFF"/>
<path d="M380.174 366.969C379.149 366.969 378.331 366.45 377.882 365.472C377.182 363.945 377.589 361.818 378.702 361.178C379.227 360.878 380.305 360.659 381.647 362.571L380.829 363.145C380.191 362.237 379.581 361.826 379.2 362.045C378.608 362.385 378.292 363.964 378.791 365.054C379.199 365.943 379.98 366.187 381.112 365.789L381.444 366.732C380.996 366.89 380.569 366.969 380.174 366.969Z" fill="#407BFF"/>
<path d="M397.888 336.776C397.787 336.776 397.686 336.746 397.597 336.683C396.223 335.701 395.729 334.343 396.277 333.052C396.855 331.69 398.424 330.784 399.772 331.031C400.389 331.144 401.835 331.695 401.936 334.357C401.946 334.632 401.731 334.865 401.455 334.876C401.186 334.884 400.947 334.67 400.936 334.395C400.884 333.01 400.407 332.165 399.591 332.015C398.708 331.854 397.589 332.52 397.196 333.444C396.835 334.298 397.183 335.159 398.178 335.87C398.403 336.031 398.454 336.344 398.294 336.568C398.197 336.704 398.043 336.776 397.888 336.776Z" fill="white"/>
<path d="M409.744 363.766C409.513 363.766 409.305 363.604 409.256 363.368C409.199 363.098 409.373 362.833 409.644 362.777C411.001 362.495 411.754 361.882 411.766 361.054C411.78 360.156 410.935 359.164 409.958 358.932C409.061 358.717 408.265 359.204 407.729 360.304C407.609 360.554 407.307 360.654 407.061 360.534C406.813 360.413 406.709 360.114 406.831 359.866C407.571 358.346 408.821 357.632 410.191 357.959C411.631 358.302 412.786 359.696 412.766 361.068C412.757 361.695 412.455 363.213 409.847 363.754C409.813 363.763 409.778 363.766 409.744 363.766Z" fill="white"/>
<path d="M423.799 355.341C423.225 355.341 422.454 354.997 421.586 353.704L422.416 353.147C423.035 354.069 423.631 354.485 424.022 354.281C424.621 353.953 424.97 352.381 424.494 351.28C424.106 350.384 423.329 350.123 422.189 350.497L421.876 349.548C423.494 349.014 424.817 349.514 425.41 350.883C426.079 352.425 425.628 354.542 424.501 355.158C424.325 355.255 424.087 355.341 423.799 355.341Z" fill="#407BFF"/>
<path d="M420.821 394.029C420.821 388.471 418.786 383.394 415.429 379.489C416.124 379.372 416.667 378.791 416.667 378.065C416.667 377.255 416.005 376.593 415.195 376.593H381.714C380.904 376.593 380.242 377.256 380.242 378.065C380.242 378.794 380.789 379.377 381.487 379.491C378.123 383.395 376.088 388.472 376.088 394.029C376.088 402.606 380.924 410.055 388.015 413.807C387.497 414.08 387.137 414.618 387.137 415.242C387.137 416.137 387.869 416.869 388.764 416.869H408.147C409.042 416.869 409.774 416.137 409.774 415.242C409.774 414.619 409.415 414.081 408.898 413.808C415.989 410.057 420.821 402.607 420.821 394.029Z" fill="#263238"/>
</svg>
