<svg width="462" height="451" viewBox="0 0 462 451" fill="none" xmlns="http://www.w3.org/2000/svg">
<path d="M27.433 442.245C26.114 441.114 23.171 437.529 25.44 433.36C26.272 431.831 28.039 431.075 29.639 430.402C31.238 429.728 32.919 429.143 34.243 428.017C36.739 425.893 37.428 422.366 39.084 419.533C40.986 416.281 44.536 413.845 48.287 414.015C52.582 414.21 56.165 417.718 57.788 421.718C59.412 425.718 59.469 430.159 59.502 434.479C59.521 436.868 59.415 439.56 57.661 441.173C56.044 442.66 53.61 442.678 51.419 442.611C43.595 442.371 35.77 442.13 27.946 441.89" fill="#F5F5F5"/>
<path d="M72.328 377.697H10.597L21.717 444.003C22.203 446.899 24.298 449.131 26.987 449.906C27.058 449.928 27.131 449.945 27.203 449.965C27.387 450.012 27.564 450.074 27.753 450.107C28.16 450.191 28.581 450.234 29.008 450.251C29.011 450.272 29.015 450.294 29.018 450.315L29.319 450.267H29.321H56.833C57.351 450.267 57.856 450.214 58.345 450.116C61.594 449.613 64.195 447.006 64.59 443.636L69.951 397.95L70.193 396.134H70.164L72.287 378.041L72.328 377.697ZM60.683 419.992H54.348L54.987 400.749H62.327L60.683 419.992ZM62.942 400.749H69.007L66.749 419.992H61.298L62.942 400.749ZM44.843 441.324L44.458 424.606H53.581L53.026 441.324H44.843ZM34.981 424.607H43.845L44.23 441.325H36.28L34.981 424.607ZM35.666 441.324H28.234C27.528 436.81 26.609 430.944 25.614 424.606H34.367L35.666 441.324ZM34.622 419.992L33.127 400.749H43.296L43.739 419.992H34.622ZM44.352 419.992L43.909 400.749H54.374L53.735 419.992H44.352ZM43.802 396.134L43.392 378.313H55.119L54.527 396.134H43.802ZM43.189 396.134H32.768L31.383 378.313H42.779L43.189 396.134ZM32.153 396.134H21.127C20.737 393.673 20.366 391.343 20.032 389.247C18.882 382.042 18.449 379.333 18.209 378.313H30.768L32.153 396.134ZM32.512 400.749L34.007 419.992H24.888C24.581 418.039 24.271 416.064 23.96 414.088C23.245 409.545 22.529 405.004 21.857 400.749H32.512ZM24.269 419.992H18.312L15.084 400.749H21.237C22.177 406.696 23.22 413.314 24.269 419.992ZM24.993 424.607C25.901 430.392 26.795 436.096 27.613 441.325H21.89L19.086 424.607H24.993ZM53.639 441.324L54.194 424.606H60.288L58.86 441.324H53.639ZM55.14 396.134L55.732 378.313H64.244L62.722 396.134H55.14ZM17.626 378.313C17.871 379.601 18.997 386.614 20.507 396.134H14.31L11.321 378.313H17.626ZM64.246 441.324H59.475L60.903 424.606H66.207L64.246 441.324ZM69.548 396.134H63.336L64.859 378.313H71.64L69.548 396.134Z" fill="#E0E0E0"/>
<path d="M447.607 95.45H364.406V169.887H447.607V95.45Z" fill="#FAFAFA"/>
<path d="M447.608 169.887C447.608 169.887 447.594 169.41 447.587 168.505C447.582 167.592 447.575 166.256 447.565 164.517C447.554 161.022 447.537 155.914 447.516 149.407C447.493 136.401 447.459 117.817 447.419 95.45L447.608 95.638C423.647 95.648 395.051 95.659 364.414 95.672H364.407L364.629 95.45C364.619 122.531 364.61 148.014 364.602 169.887L364.406 169.691C389.227 169.732 410.001 169.766 424.583 169.79C431.879 169.812 437.623 169.83 441.556 169.842C443.515 169.852 445.021 169.86 446.049 169.865C446.552 169.87 446.937 169.874 447.208 169.876C447.469 169.879 447.608 169.887 447.608 169.887C447.608 169.887 447.485 169.894 447.231 169.898C446.965 169.901 446.588 169.904 446.094 169.909C445.074 169.914 443.581 169.922 441.639 169.932C437.716 169.944 431.987 169.962 424.71 169.984C410.097 170.008 389.279 170.042 364.407 170.083H364.211V169.887C364.203 148.015 364.194 122.531 364.184 95.45V95.228H364.406H364.413C395.05 95.24 423.645 95.252 447.607 95.262H447.796V95.451C447.756 117.867 447.722 136.493 447.699 149.527C447.678 156.015 447.661 161.11 447.65 164.594C447.64 166.318 447.633 167.641 447.628 168.546C447.622 169.437 447.608 169.887 447.608 169.887Z" fill="#E0E0E0"/>
<path d="M396.309 108.676C396.309 108.799 391.93 108.898 386.529 108.898C381.126 108.898 376.748 108.798 376.748 108.676C376.748 108.553 381.126 108.454 386.529 108.454C391.929 108.453 396.309 108.553 396.309 108.676Z" fill="#E0E0E0"/>
<path d="M431.562 114.265C431.562 114.388 419.531 114.487 404.693 114.487C389.85 114.487 377.821 114.388 377.821 114.265C377.821 114.142 389.85 114.043 404.693 114.043C419.531 114.042 431.562 114.142 431.562 114.265Z" fill="#E0E0E0"/>
<path d="M380.395 123.732H376.89V127.237H380.395V123.732Z" fill="#E0E0E0"/>
<path d="M389.024 123.732H385.519V127.237H389.024V123.732Z" fill="#E0E0E0"/>
<path d="M397.811 123.573H394.306V127.078H397.811V123.573Z" fill="#E0E0E0"/>
<path d="M406.28 123.732H402.775V127.237H406.28V123.732Z" fill="#E0E0E0"/>
<path d="M414.909 123.732H411.404V127.237H414.909V123.732Z" fill="#E0E0E0"/>
<path d="M423.537 123.732H420.032V127.237H423.537V123.732Z" fill="#E0E0E0"/>
<path d="M432.165 123.732H428.66V127.237H432.165V123.732Z" fill="#EBEBEB"/>
<path d="M380.395 131.184H376.89V134.689H380.395V131.184Z" fill="#EBEBEB"/>
<path d="M389.024 131.184H385.519V134.689H389.024V131.184Z" fill="#E0E0E0"/>
<path d="M397.652 131.184H394.147V134.689H397.652V131.184Z" fill="#EBEBEB"/>
<path d="M406.28 131.184H402.775V134.689H406.28V131.184Z" fill="#E0E0E0"/>
<path d="M414.909 131.184H411.404V134.689H414.909V131.184Z" fill="#E0E0E0"/>
<path d="M423.696 131.025H420.191V134.53H423.696V131.025Z" fill="#E0E0E0"/>
<path d="M432.165 131.184H428.66V134.689H432.165V131.184Z" fill="#E0E0E0"/>
<path d="M380.395 138.636H376.89V142.141H380.395V138.636Z" fill="#E0E0E0"/>
<path d="M389.183 138.477H385.678V141.982H389.183V138.477Z" fill="#E0E0E0"/>
<path d="M397.652 138.636H394.147V142.141H397.652V138.636Z" fill="#E0E0E0"/>
<path d="M406.28 138.636H402.775V142.141H406.28V138.636Z" fill="#EBEBEB"/>
<path d="M414.909 138.636H411.404V142.141H414.909V138.636Z" fill="#E0E0E0"/>
<path d="M423.537 138.636H420.032V142.141H423.537V138.636Z" fill="#E0E0E0"/>
<path d="M432.165 138.636H428.66V142.141H432.165V138.636Z" fill="#E0E0E0"/>
<path d="M380.395 146.088H376.89V149.593H380.395V146.088Z" fill="#E0E0E0"/>
<path d="M389.024 146.088H385.519V149.593H389.024V146.088Z" fill="#E0E0E0"/>
<path d="M397.652 146.088H394.147V149.593H397.652V146.088Z" fill="#E0E0E0"/>
<path d="M406.439 145.929H402.934V149.434H406.439V145.929Z" fill="#E0E0E0"/>
<path d="M414.909 146.088H411.404V149.593H414.909V146.088Z" fill="#E0E0E0"/>
<path d="M423.537 146.088H420.032V149.593H423.537V146.088Z" fill="#EBEBEB"/>
<path d="M432.165 146.088H428.66V149.593H432.165V146.088Z" fill="#E0E0E0"/>
<path d="M380.395 153.54H376.89V157.045H380.395V153.54Z" fill="#E0E0E0"/>
<path d="M389.024 153.54H385.519V157.045H389.024V153.54Z" fill="#EBEBEB"/>
<path d="M397.652 153.54H394.147V157.045H397.652V153.54Z" fill="#E0E0E0"/>
<path d="M406.28 153.54H402.775V157.045H406.28V153.54Z" fill="#E0E0E0"/>
<path d="M414.909 153.54H411.404V157.045H414.909V153.54Z" fill="#E0E0E0"/>
<path d="M423.696 153.381H420.191V156.886H423.696V153.381Z" fill="#E0E0E0"/>
<path d="M432.165 153.54H428.66V157.045H432.165V153.54Z" fill="#E0E0E0"/>
<path d="M431.567 47.3126C434.224 30.78 422.976 15.2234 406.444 12.566C389.911 9.90848 374.355 21.1565 371.697 37.6891C369.04 54.2217 380.288 69.7783 396.82 72.4358C413.353 75.0933 428.909 63.8453 431.567 47.3126Z" fill="#E0E0E0"/>
<path d="M401.944 69.6209C417.098 69.6209 429.383 57.3361 429.383 42.1819C429.383 27.0278 417.098 14.7429 401.944 14.7429C386.79 14.7429 374.505 27.0278 374.505 42.1819C374.505 57.3361 386.79 69.6209 401.944 69.6209Z" fill="white"/>
<path d="M374.227 40.536C374.227 40.536 374.235 40.688 374.236 40.984C374.235 41.289 374.233 41.726 374.231 42.297C374.229 42.586 374.226 42.909 374.224 43.264C374.238 43.619 374.288 44.006 374.322 44.426C374.36 44.846 374.402 45.298 374.446 45.781C374.471 46.267 374.618 46.767 374.706 47.307C375.05 49.467 375.879 52.048 377.273 54.818C378.681 57.577 380.782 60.502 383.739 63.061C384.111 63.378 384.487 63.698 384.867 64.023C385.266 64.323 385.688 64.603 386.104 64.899C386.53 65.18 386.93 65.514 387.391 65.76C387.846 66.016 388.306 66.275 388.77 66.536C389.003 66.666 389.236 66.796 389.472 66.927C389.718 67.035 389.966 67.144 390.214 67.254C390.711 67.473 391.213 67.694 391.72 67.918C392.233 68.126 392.774 68.273 393.307 68.456C393.847 68.616 394.374 68.845 394.941 68.941C396.064 69.176 397.194 69.485 398.381 69.57C398.971 69.629 399.562 69.726 400.163 69.756C400.765 69.764 401.372 69.773 401.983 69.781C402.288 69.78 402.596 69.802 402.902 69.782C403.209 69.755 403.516 69.728 403.825 69.701C404.442 69.64 405.067 69.609 405.688 69.523C406.919 69.273 408.188 69.11 409.412 68.691L410.343 68.417C410.498 68.37 410.656 68.329 410.809 68.276L411.262 68.093C411.867 67.849 412.476 67.602 413.088 67.355C413.687 67.079 414.266 66.75 414.861 66.448C415.153 66.287 415.462 66.153 415.743 65.969L416.589 65.418C417.753 64.727 418.79 63.835 419.87 62.981C420.365 62.503 420.863 62.022 421.363 61.539L421.738 61.176L422.08 60.78L422.762 59.982L423.447 59.181L424.058 58.316L424.668 57.445L424.974 57.008C425.067 56.857 425.151 56.699 425.24 56.544C425.591 55.923 425.943 55.299 426.297 54.673C426.588 54.015 426.88 53.356 427.173 52.693C428.247 50.002 428.92 47.114 429.154 44.144C429.31 41.169 429.022 38.216 428.31 35.407C428.106 34.712 427.903 34.019 427.7 33.329C427.431 32.662 427.163 31.997 426.896 31.336L426.694 30.841L426.447 30.368L425.956 29.424L425.464 28.486L424.889 27.602L424.317 26.721L424.03 26.284L423.705 25.875C423.272 25.331 422.842 24.789 422.413 24.25C421.453 23.262 420.542 22.242 419.478 21.404L418.711 20.747C418.457 20.527 418.168 20.354 417.899 20.156C417.348 19.779 416.818 19.377 416.26 19.025C415.685 18.7 415.114 18.376 414.546 18.054L414.121 17.813C413.975 17.741 413.824 17.68 413.677 17.612L412.79 17.219C411.631 16.643 410.394 16.316 409.206 15.907C408.601 15.74 407.985 15.628 407.382 15.487C407.079 15.42 406.778 15.353 406.477 15.286C406.175 15.226 405.868 15.208 405.565 15.167C404.958 15.096 404.355 15.025 403.757 14.954C403.157 14.906 402.558 14.924 401.966 14.906C400.778 14.835 399.617 14.994 398.473 15.08C397.897 15.101 397.345 15.259 396.789 15.347C396.237 15.459 395.681 15.534 395.145 15.674C394.613 15.829 394.087 15.983 393.565 16.135C393.304 16.211 393.044 16.287 392.786 16.362C392.536 16.461 392.287 16.56 392.039 16.658C391.544 16.857 391.055 17.053 390.571 17.248C390.082 17.433 389.642 17.711 389.183 17.934C388.731 18.173 388.276 18.394 387.842 18.64C387.422 18.912 387.008 19.18 386.598 19.446C383.332 21.597 380.867 24.222 379.11 26.774C377.366 29.337 376.206 31.788 375.583 33.884C375.425 34.407 375.214 34.884 375.126 35.363C375.019 35.836 374.919 36.278 374.826 36.69C374.737 37.102 374.637 37.479 374.577 37.829C374.533 38.181 374.493 38.501 374.458 38.788C374.385 39.354 374.33 39.787 374.291 40.09C374.255 40.386 374.227 40.536 374.227 40.536C374.227 40.536 374.234 40.385 374.263 40.09C374.295 39.786 374.34 39.351 374.4 38.782C374.431 38.494 374.466 38.172 374.505 37.818C374.56 37.466 374.655 37.087 374.74 36.673C374.829 36.259 374.925 35.814 375.027 35.338C375.111 34.857 375.318 34.376 375.473 33.85C376.082 31.739 377.23 29.268 378.972 26.679C380.726 24.102 383.197 21.448 386.481 19.268C386.893 18.999 387.31 18.727 387.732 18.452C388.169 18.202 388.627 17.977 389.082 17.735C389.544 17.509 389.987 17.227 390.48 17.039C390.968 16.841 391.461 16.641 391.959 16.44C392.209 16.34 392.459 16.24 392.711 16.139C392.971 16.062 393.233 15.985 393.496 15.907C394.022 15.752 394.553 15.596 395.089 15.438C395.629 15.296 396.19 15.218 396.747 15.104C397.308 15.013 397.865 14.853 398.446 14.83C399.6 14.74 400.772 14.577 401.971 14.646C402.569 14.663 403.174 14.643 403.78 14.691C404.384 14.761 404.993 14.831 405.606 14.902C405.912 14.943 406.222 14.961 406.527 15.021C406.831 15.088 407.135 15.154 407.441 15.222C408.051 15.363 408.673 15.476 409.284 15.644C410.485 16.054 411.735 16.384 412.907 16.963L413.804 17.359C413.953 17.427 414.106 17.488 414.253 17.561L414.683 17.804C415.257 18.128 415.835 18.454 416.417 18.782C416.981 19.137 417.519 19.542 418.075 19.923C418.347 20.123 418.639 20.297 418.896 20.519L419.672 21.182C420.748 22.028 421.67 23.057 422.641 24.056C423.075 24.601 423.511 25.148 423.949 25.698L424.278 26.111L424.569 26.553L425.148 27.443L425.729 28.337L426.228 29.285L426.725 30.239L426.974 30.717L427.179 31.217C427.449 31.886 427.72 32.558 427.992 33.232C428.197 33.93 428.403 34.63 428.61 35.333C429.332 38.173 429.623 41.16 429.465 44.168C429.228 47.17 428.547 50.091 427.46 52.812C427.163 53.482 426.867 54.149 426.573 54.813C426.215 55.446 425.859 56.076 425.504 56.704C425.414 56.86 425.329 57.019 425.235 57.172L424.925 57.614L424.307 58.494L423.689 59.368L422.996 60.178L422.306 60.984L421.96 61.384L421.58 61.75C421.074 62.238 420.571 62.723 420.07 63.206C418.978 64.069 417.928 64.968 416.751 65.666L415.895 66.222C415.611 66.408 415.299 66.543 415.003 66.705C414.401 67.01 413.816 67.341 413.21 67.619C412.591 67.868 411.975 68.116 411.364 68.362L410.906 68.546C410.751 68.599 410.591 68.64 410.435 68.688L409.494 68.963C408.257 69.384 406.974 69.548 405.73 69.797C405.102 69.883 404.47 69.914 403.848 69.974C403.536 70.001 403.225 70.027 402.916 70.053C402.606 70.073 402.296 70.05 401.987 70.051C401.37 70.041 400.758 70.031 400.15 70.021C399.544 69.989 398.946 69.891 398.351 69.829C397.153 69.74 396.013 69.427 394.881 69.186C394.308 69.087 393.777 68.856 393.233 68.693C392.696 68.507 392.15 68.356 391.633 68.145C391.122 67.918 390.616 67.694 390.115 67.471C389.864 67.36 389.615 67.249 389.367 67.139C389.13 67.006 388.895 66.874 388.66 66.743C388.193 66.478 387.73 66.216 387.272 65.956C386.808 65.706 386.406 65.368 385.977 65.083C385.558 64.783 385.133 64.5 384.732 64.196C384.35 63.868 383.972 63.543 383.598 63.223C380.627 60.633 378.524 57.678 377.122 54.894C375.733 52.1 374.917 49.5 374.59 47.327C374.505 46.785 374.363 46.281 374.343 45.793C374.304 45.308 374.267 44.854 374.233 44.432C374.203 44.01 374.158 43.622 374.15 43.266C374.158 42.91 374.165 42.587 374.172 42.297C374.187 41.726 374.199 41.288 374.207 40.983C374.215 40.687 374.227 40.536 374.227 40.536Z" fill="#EBEBEB"/>
<path d="M414.442 42.934C414.442 42.957 414.097 42.979 413.467 42.998C412.777 43.012 411.876 43.03 410.784 43.052C408.508 43.083 405.336 43.105 401.756 43.111H401.579V42.934C401.579 42.361 401.578 41.757 401.578 41.144C401.578 37.145 401.598 33.526 401.63 30.906C401.653 29.643 401.672 28.598 401.687 27.804C401.708 27.071 401.732 26.666 401.756 26.666C401.781 26.666 401.804 27.071 401.826 27.804C401.84 28.598 401.86 29.643 401.883 30.906C401.915 33.526 401.936 37.145 401.936 41.144C401.935 41.757 401.935 42.361 401.935 42.934L401.758 42.757C405.338 42.763 408.51 42.784 410.786 42.816C411.878 42.838 412.778 42.856 413.469 42.87C414.096 42.89 414.442 42.911 414.442 42.934Z" fill="#E0E0E0"/>
<path d="M401.84 19.0171C401.939 19.0171 402.019 20.0551 402.019 21.3351C402.019 22.6161 401.939 23.6541 401.84 23.6541C401.742 23.6541 401.662 22.6161 401.662 21.3351C401.662 20.0551 401.742 19.0171 401.84 19.0171Z" fill="#E0E0E0"/>
<path d="M414.417 22.7411C414.487 22.8111 413.82 23.5911 412.927 24.4831C412.034 25.3761 411.254 26.0421 411.185 25.9731C411.115 25.9031 411.782 25.1231 412.675 24.2311C413.567 23.3381 414.347 22.6711 414.417 22.7411Z" fill="#E0E0E0"/>
<path d="M421.77 30.774C421.815 30.864 420.94 31.391 419.868 32.043C418.795 32.694 417.924 33.228 417.865 33.147C417.808 33.069 418.595 32.397 419.682 31.738C420.769 31.077 421.728 30.688 421.77 30.774Z" fill="#E0E0E0"/>
<path d="M426.08 42.6951C426.08 42.7941 424.664 42.8741 422.919 42.8741C421.173 42.8741 419.757 42.7941 419.757 42.6951C419.757 42.5961 421.172 42.5161 422.919 42.5161C424.664 42.5161 426.08 42.5961 426.08 42.6951Z" fill="#E0E0E0"/>
<path d="M382.238 42.273C382.238 42.371 380.901 42.452 379.252 42.452C377.603 42.452 376.266 42.372 376.266 42.273C376.266 42.174 377.603 42.094 379.252 42.094C380.901 42.094 382.238 42.174 382.238 42.273Z" fill="#E0E0E0"/>
<path d="M385.339 51.1481C385.404 51.2221 384.394 52.1391 383.083 53.1951C381.772 54.2511 380.661 55.0431 380.603 54.9641C380.544 54.8851 381.554 53.9691 382.859 52.9171C384.164 51.8651 385.274 51.0741 385.339 51.1481Z" fill="#E0E0E0"/>
<path d="M392.988 58.0112C393.07 58.0712 392.321 59.2232 391.452 60.6732C390.58 62.1212 389.914 63.3232 389.822 63.2782C389.736 63.2372 390.263 61.9532 391.145 60.4882C392.025 59.0232 392.912 57.9542 392.988 58.0112Z" fill="#E0E0E0"/>
<path d="M401.84 66.864C401.742 66.864 401.662 65.448 401.662 63.702C401.662 61.956 401.742 60.54 401.84 60.54C401.939 60.54 402.019 61.955 402.019 63.702C402.019 65.448 401.939 66.864 401.84 66.864Z" fill="#E0E0E0"/>
<path d="M415.469 62.6512C415.419 62.7302 414.182 62.0192 412.862 60.8652C411.538 59.7152 410.665 58.5872 410.737 58.5262C410.814 58.4582 411.794 59.4642 413.097 60.5962C414.395 61.7322 415.526 62.5652 415.469 62.6512Z" fill="#E0E0E0"/>
<path d="M421.865 55.7631C421.795 55.8331 420.858 55.0081 419.771 53.9221C418.684 52.8351 417.86 51.8981 417.93 51.8281C418 51.7581 418.937 52.5821 420.024 53.6691C421.11 54.7561 421.934 55.6931 421.865 55.7631Z" fill="#E0E0E0"/>
<path d="M385.049 33.7722C384.979 33.8422 384.152 33.1272 383.202 32.1772C382.251 31.2262 381.537 30.3992 381.607 30.3292C381.677 30.2592 382.504 30.9732 383.455 31.9242C384.404 32.8742 385.118 33.7022 385.049 33.7722Z" fill="#E0E0E0"/>
<path d="M392.942 25.457C392.872 25.527 392.059 24.83 391.126 23.901C390.192 22.972 389.492 22.162 389.562 22.092C389.631 22.022 390.444 22.719 391.378 23.648C392.311 24.577 393.011 25.387 392.942 25.457Z" fill="#E0E0E0"/>
<path d="M377.375 42.4519C377.375 27.8459 388.789 15.9099 403.183 15.0659C402.643 15.0339 402.1 15.0139 401.552 15.0139C386.398 15.0139 374.113 27.2989 374.113 42.4529C374.113 57.6069 386.398 69.8909 401.552 69.8909C402.1 69.8909 402.643 69.8699 403.183 69.8389C388.788 68.9929 377.375 57.0579 377.375 42.4519Z" fill="#F5F5F5"/>
<path d="M96.2481 18.0139H19.0011V140.09H96.2481V18.0139Z" fill="#E0E0E0"/>
<path d="M93.9032 20.3069H21.0822V138.083H93.9032V20.3069Z" fill="#F5F5F5"/>
<path d="M86.53 27.168H57.493V72.226H86.53V27.168Z" fill="white"/>
<path d="M73.5561 31.1519C73.5561 31.7509 73.0711 32.2359 72.4721 32.2359C71.8731 32.2359 71.3881 31.7509 71.3881 31.1519C71.3881 30.5529 71.8731 30.0679 72.4721 30.0679C73.0711 30.0679 73.5561 30.5529 73.5561 31.1519Z" fill="#E0E0E0"/>
<path d="M57.2661 84.7659H28.2291V129.824H57.2661V84.7659Z" fill="white"/>
<path d="M44.2921 88.7488C44.2921 89.3478 43.8071 89.8328 43.2081 89.8328C42.6091 89.8328 42.1241 89.3478 42.1241 88.7488C42.1241 88.1508 42.6091 87.6648 43.2081 87.6648C43.8071 87.6658 44.2921 88.1508 44.2921 88.7488Z" fill="#E0E0E0"/>
<path d="M52.6351 27.168H27.8361V62.353H52.6351V27.168Z" fill="white"/>
<path d="M41.1361 30.3639C41.1361 30.8609 40.7331 31.2639 40.2361 31.2639C39.7391 31.2639 39.3361 30.8609 39.3361 30.3639C39.3361 29.8669 39.7391 29.4639 40.2361 29.4639C40.7331 29.4639 41.1361 29.8669 41.1361 30.3639Z" fill="#E0E0E0"/>
<path d="M87.4844 85.3861L60.9635 88.3779L62.6211 103.072L89.142 100.08L87.4844 85.3861Z" fill="white"/>
<path d="M75.4561 89.6678C75.4561 90.1748 75.0451 90.5858 74.5381 90.5858C74.0311 90.5858 73.6201 90.1748 73.6201 89.6678C73.6201 89.1608 74.0311 88.7498 74.5381 88.7498C75.0451 88.7488 75.4561 89.1608 75.4561 89.6678Z" fill="#E0E0E0"/>
<path d="M53.3921 95.0429C53.3921 95.1619 48.8321 95.2589 43.2091 95.2589C37.5841 95.2589 33.0251 95.1619 33.0251 95.0429C33.0251 94.9239 37.5841 94.8269 43.2091 94.8269C48.8321 94.8269 53.3921 94.9239 53.3921 95.0429Z" fill="#E0E0E0"/>
<path d="M53.3921 98.267C53.3921 98.387 48.8321 98.484 43.2091 98.484C37.5841 98.484 33.0251 98.387 33.0251 98.267C33.0251 98.148 37.5841 98.051 43.2091 98.051C48.8321 98.051 53.3921 98.147 53.3921 98.267Z" fill="#E0E0E0"/>
<path d="M53.3921 101.491C53.3921 101.61 48.8321 101.707 43.2091 101.707C37.5841 101.707 33.0251 101.61 33.0251 101.491C33.0251 101.371 37.5841 101.275 43.2091 101.275C48.8321 101.274 53.3921 101.371 53.3921 101.491Z" fill="#E0E0E0"/>
<path d="M53.3921 104.714C53.3921 104.834 48.8321 104.93 43.2091 104.93C37.5841 104.93 33.0251 104.833 33.0251 104.714C33.0251 104.595 37.5841 104.498 43.2091 104.498C48.8321 104.498 53.3921 104.595 53.3921 104.714Z" fill="#E0E0E0"/>
<path d="M53.3921 107.938C53.3921 108.058 48.8321 108.155 43.2091 108.155C37.5841 108.155 33.0251 108.058 33.0251 107.938C33.0251 107.819 37.5841 107.722 43.2091 107.722C48.8321 107.722 53.3921 107.819 53.3921 107.938Z" fill="#E0E0E0"/>
<path d="M53.3921 111.162C53.3921 111.282 48.8321 111.378 43.2091 111.378C37.5841 111.378 33.0251 111.281 33.0251 111.162C33.0251 111.043 37.5841 110.946 43.2091 110.946C48.8321 110.945 53.3921 111.042 53.3921 111.162Z" fill="#E0E0E0"/>
<path d="M53.3921 114.386C53.3921 114.506 48.8321 114.602 43.2091 114.602C37.5841 114.602 33.0251 114.505 33.0251 114.386C33.0251 114.267 37.5841 114.17 43.2091 114.17C48.8321 114.169 53.3921 114.266 53.3921 114.386Z" fill="#E0E0E0"/>
<path d="M84.9991 91.5899C85.0161 91.7079 80.5141 92.4409 74.9461 93.2269C69.3761 94.0129 64.8481 94.5539 64.8321 94.4359C64.8151 94.3179 69.3161 93.5849 74.8861 92.7989C80.4541 92.0129 84.9821 91.4719 84.9991 91.5899Z" fill="#E0E0E0"/>
<path d="M85.4041 93.606C85.4211 93.724 80.9191 94.457 75.3511 95.243C69.7811 96.029 65.2531 96.57 65.2371 96.452C65.2211 96.334 69.7211 95.601 75.2911 94.815C80.8581 94.029 85.3871 93.488 85.4041 93.606Z" fill="#E0E0E0"/>
<path d="M85.7741 95.4678C85.7911 95.5858 81.2891 96.3198 75.7211 97.1048C70.1511 97.8908 65.6241 98.4318 65.6071 98.3138C65.5901 98.1958 70.0911 97.4628 75.6611 96.6768C81.2281 95.8908 85.7571 95.3498 85.7741 95.4678Z" fill="#E0E0E0"/>
<path d="M83.9771 36.5939C83.9771 36.7139 78.8261 36.8099 72.4731 36.8099C66.1181 36.8099 60.9681 36.7129 60.9681 36.5939C60.9681 36.4749 66.1181 36.3779 72.4731 36.3779C78.8251 36.3779 83.9771 36.4749 83.9771 36.5939Z" fill="#E0E0E0"/>
<path d="M83.9771 38.5109C83.9771 38.6299 78.8261 38.7269 72.4731 38.7269C66.1181 38.7269 60.9681 38.6299 60.9681 38.5109C60.9681 38.3919 66.1181 38.2949 72.4731 38.2949C78.8251 38.2949 83.9771 38.3909 83.9771 38.5109Z" fill="#E0E0E0"/>
<path d="M83.9771 40.4279C83.9771 40.5479 78.8261 40.6439 72.4731 40.6439C66.1181 40.6439 60.9681 40.5469 60.9681 40.4279C60.9681 40.3089 66.1181 40.2119 72.4731 40.2119C78.8251 40.2109 83.9771 40.3079 83.9771 40.4279Z" fill="#E0E0E0"/>
<path d="M83.9771 42.3439C83.9771 42.4629 78.8261 42.5599 72.4731 42.5599C66.1181 42.5599 60.9681 42.4629 60.9681 42.3439C60.9681 42.2249 66.1181 42.1279 72.4731 42.1279C78.8251 42.1279 83.9771 42.2249 83.9771 42.3439Z" fill="#E0E0E0"/>
<path d="M83.9771 44.2609C83.9771 44.3799 78.8261 44.4769 72.4731 44.4769C66.1181 44.4769 60.9681 44.3799 60.9681 44.2609C60.9681 44.1419 66.1181 44.0449 72.4731 44.0449C78.8251 44.0449 83.9771 44.1419 83.9771 44.2609Z" fill="#E0E0E0"/>
<path d="M83.9771 46.1779C83.9771 46.2969 78.8261 46.3939 72.4731 46.3939C66.1181 46.3939 60.9681 46.2969 60.9681 46.1779C60.9681 46.0589 66.1181 45.9619 72.4731 45.9619C78.8251 45.9619 83.9771 46.0589 83.9771 46.1779Z" fill="#E0E0E0"/>
<path d="M83.9771 48.0949C83.9771 48.2139 78.8261 48.3109 72.4731 48.3109C66.1181 48.3109 60.9681 48.2139 60.9681 48.0949C60.9681 47.9759 66.1181 47.8789 72.4731 47.8789C78.8251 47.8789 83.9771 47.9759 83.9771 48.0949Z" fill="#E0E0E0"/>
<path d="M83.9771 53.7829C83.9771 53.9029 78.8261 53.9989 72.4731 53.9989C66.1181 53.9989 60.9681 53.9019 60.9681 53.7829C60.9681 53.6639 66.1181 53.5669 72.4731 53.5669C78.8251 53.5669 83.9771 53.6639 83.9771 53.7829Z" fill="#E0E0E0"/>
<path d="M84.1382 55.8078C84.1382 55.9268 78.9872 56.0238 72.6342 56.0238C66.2792 56.0238 61.1292 55.9268 61.1292 55.8078C61.1292 55.6888 66.2792 55.5918 72.6342 55.5918C78.9872 55.5908 84.1382 55.6878 84.1382 55.8078Z" fill="#E0E0E0"/>
<path d="M84.3001 57.832C84.3001 57.952 79.1491 58.048 72.7961 58.048C66.4411 58.048 61.2911 57.951 61.2911 57.832C61.2911 57.713 66.4411 57.616 72.7961 57.616C79.1491 57.616 84.3001 57.713 84.3001 57.832Z" fill="#E0E0E0"/>
<path d="M84.4621 59.8569C84.4621 59.9759 79.3111 60.0729 72.9581 60.0729C66.6031 60.0729 61.4531 59.9759 61.4531 59.8569C61.4531 59.7379 66.6031 59.6409 72.9581 59.6409C79.3111 59.6409 84.4621 59.7379 84.4621 59.8569Z" fill="#E0E0E0"/>
<path d="M84.6241 61.881C84.6241 62 79.4731 62.097 73.1201 62.097C66.7651 62.097 61.6151 62 61.6151 61.881C61.6151 61.762 66.7651 61.665 73.1201 61.665C79.4731 61.665 84.6241 61.762 84.6241 61.881Z" fill="#E0E0E0"/>
<path d="M84.7861 63.9059C84.7861 64.0259 79.6351 64.1219 73.2821 64.1219C66.9271 64.1219 61.7771 64.0249 61.7771 63.9059C61.7771 63.7869 66.9271 63.6899 73.2821 63.6899C79.6351 63.6899 84.7861 63.7869 84.7861 63.9059Z" fill="#E0E0E0"/>
<path d="M461.143 450.342C461.143 450.486 358.096 450.602 231.011 450.602C103.882 450.602 0.857056 450.485 0.857056 450.342C0.857056 450.198 103.881 450.082 231.011 450.082C358.096 450.082 461.143 450.199 461.143 450.342Z" fill="#263238"/>
<path d="M337.259 344.48H127.128C122.028 344.48 117.893 340.345 117.893 335.245V29.2479C117.893 24.1469 122.028 20.0129 127.128 20.0129H337.259C342.36 20.0129 346.494 24.1479 346.494 29.2479V335.245C346.494 340.345 342.359 344.48 337.259 344.48Z" fill="#E0E0E0"/>
<path d="M337.259 344.48C337.259 344.48 337.497 344.46 337.967 344.433C338.436 344.401 339.134 344.294 340.025 344.034C340.905 343.745 341.973 343.259 343.046 342.395C344.103 341.53 345.165 340.265 345.818 338.576C346.162 337.74 346.356 336.789 346.418 335.784C346.471 334.776 346.43 333.703 346.44 332.584C346.437 330.343 346.433 327.892 346.43 325.238C346.424 319.928 346.417 313.802 346.41 306.906C346.393 279.317 346.369 239.4 346.34 190.078C346.332 165.416 346.323 138.402 346.313 109.402C346.31 94.9018 346.306 79.9048 346.302 64.4578C346.3 56.7338 346.299 48.8978 346.297 40.9538C346.292 36.9838 346.286 32.9878 346.28 28.9658C346.241 26.9928 345.485 25.0578 344.242 23.5188C342.972 22.0018 341.212 20.8738 339.26 20.4478C338.284 20.2258 337.292 20.2058 336.261 20.2188C335.239 20.2188 334.215 20.2188 333.19 20.2188C331.139 20.2188 329.083 20.2198 327.02 20.2198C322.894 20.2208 318.744 20.2208 314.569 20.2218C306.22 20.2228 297.776 20.2238 289.242 20.2248C272.174 20.2268 254.746 20.2288 237.005 20.2308C201.522 20.2318 164.784 20.2338 127.156 20.2348C124.854 20.2268 122.576 21.1348 120.923 22.7238C119.256 24.2968 118.236 26.5228 118.139 28.8038C118.093 33.4578 118.126 38.1358 118.116 42.7778C118.116 52.0708 118.115 61.3028 118.115 70.4668C118.114 88.7958 118.113 106.856 118.112 124.602C118.108 160.094 118.103 194.328 118.099 226.94C118.092 259.552 118.085 290.542 118.078 319.544C118.077 323.169 118.076 326.764 118.075 330.326C118.083 332.104 118.054 333.889 118.093 335.638C118.151 337.37 118.746 339.062 119.732 340.463C120.72 341.869 122.11 342.966 123.678 343.622C124.467 343.941 125.295 344.147 126.134 344.25C126.971 344.324 127.835 344.307 128.694 344.308C132.126 344.309 135.526 344.31 138.891 344.311C152.353 344.316 165.272 344.321 177.603 344.325C226.926 344.355 266.839 344.379 294.425 344.395C308.214 344.413 318.922 344.427 326.186 344.437C329.814 344.447 332.582 344.454 334.446 344.459C336.305 344.465 337.259 344.48 337.259 344.48C337.259 344.48 336.306 344.495 334.445 344.503C332.581 344.508 329.813 344.515 326.185 344.525C318.921 344.534 308.213 344.548 294.424 344.567C266.838 344.584 226.925 344.607 177.602 344.637C165.271 344.642 152.352 344.646 138.89 344.651C135.525 344.652 132.125 344.653 128.693 344.654C127.836 344.653 126.977 344.672 126.095 344.595C125.223 344.488 124.362 344.275 123.543 343.944C121.913 343.264 120.469 342.125 119.442 340.665C118.416 339.21 117.797 337.45 117.735 335.651C117.694 333.871 117.723 332.109 117.713 330.324C117.712 326.762 117.711 323.167 117.71 319.542C117.704 290.54 117.697 259.55 117.69 226.938C117.686 194.326 117.682 160.091 117.677 124.6C117.676 106.854 117.675 88.7938 117.674 70.4648C117.674 61.3008 117.673 52.0688 117.673 42.7758C117.683 38.1248 117.65 33.4778 117.696 28.7808C117.798 26.3878 118.869 24.0508 120.617 22.4018C122.35 20.7358 124.744 19.7818 127.155 19.7908C164.783 19.7918 201.521 19.7938 237.004 19.7958C254.746 19.7978 272.173 19.7998 289.241 19.8008C297.775 19.8018 306.219 19.8028 314.568 19.8048C318.742 19.8058 322.893 19.8058 327.019 19.8068C329.082 19.8068 331.139 19.8078 333.189 19.8078C334.214 19.8078 335.238 19.8078 336.26 19.8078C337.271 19.7958 338.334 19.8148 339.349 20.0478C341.389 20.4958 343.229 21.6738 344.554 23.2598C345.852 24.8668 346.641 26.8918 346.682 28.9518C346.686 32.9778 346.69 36.9788 346.694 40.9528C346.692 48.8958 346.691 56.7328 346.689 64.4568C346.685 79.9048 346.681 94.9008 346.678 109.401C346.668 138.401 346.659 165.415 346.651 190.077C346.621 239.4 346.597 279.316 346.581 306.905C346.573 313.801 346.567 319.927 346.561 325.237C346.557 327.892 346.554 330.342 346.551 332.583C346.537 333.704 346.575 334.769 346.518 335.788C346.452 336.804 346.252 337.763 345.902 338.607C345.235 340.31 344.158 341.58 343.089 342.446C342.004 343.31 340.926 343.793 340.039 344.075C339.141 344.33 338.439 344.429 337.969 344.454C337.497 344.476 337.259 344.48 337.259 344.48Z" fill="#263238"/>
<g opacity="0.3">
<path d="M137.837 337.148H329.697L327.593 297.242V276.001L137.837 305.651V337.148Z" fill="black"/>
</g>
<g opacity="0.3">
<path d="M289.877 20.6748L294.237 33.6058V39.9408H289.321L289.877 20.6748Z" fill="black"/>
</g>
<path d="M128.088 33.0129V331.068H283.576H336.298V33.0129H128.088Z" fill="white"/>
<path d="M336.298 277.772C336.298 277.772 336.287 277.386 336.282 276.626C336.278 275.862 336.273 274.73 336.266 273.239C336.259 270.247 336.249 265.817 336.236 260.046C336.223 248.494 336.205 231.579 336.181 210.106C336.162 167.15 336.134 105.962 336.101 33.0129L336.297 33.2089C274.78 33.2159 203.591 33.2249 128.086 33.2339L128.307 33.0129C128.307 33.0969 128.307 33.1869 128.307 33.2779C128.286 147.856 128.267 252.491 128.252 331.068L128.086 330.902C175.984 330.933 214.855 330.958 241.755 330.975C255.201 330.994 265.655 331.009 272.751 331.02C276.295 331.03 278.999 331.038 280.822 331.044C282.641 331.052 283.574 331.069 283.574 331.069C283.574 331.069 282.641 331.085 280.822 331.094C278.999 331.099 276.294 331.107 272.751 331.118C265.655 331.128 255.201 331.143 241.755 331.163C214.854 331.18 175.984 331.206 128.086 331.236H127.92V331.07C127.905 252.493 127.886 147.858 127.865 33.2799C127.865 33.1889 127.865 33.0979 127.865 33.0149V32.7939H128.086C203.591 32.8029 274.78 32.8119 336.297 32.8189H336.493V33.0149C336.46 105.964 336.433 167.152 336.413 210.108C336.39 231.582 336.371 248.497 336.358 260.048C336.345 265.819 336.335 270.249 336.328 273.241C336.321 274.732 336.316 275.864 336.312 276.628C336.309 277.386 336.298 277.772 336.298 277.772Z" fill="#263238"/>
<path d="M289.877 42.4869H184.528V18.2569C184.528 14.7639 187.36 11.9309 190.854 11.9309H283.551C287.044 11.9309 289.877 14.7629 289.877 18.2569V42.4869Z" fill="#263238"/>
<path d="M250.609 0.439941H223.796L226.93 23.4229H247.127L250.609 0.439941Z" fill="#263238"/>
<path d="M283.109 11.931C283.109 12.053 262.554 12.152 237.204 12.152C211.845 12.152 191.295 12.053 191.295 11.931C191.295 11.809 211.845 11.71 237.204 11.71C262.554 11.71 283.109 11.809 283.109 11.931Z" fill="#455A64"/>
<path d="M186.886 37.557C186.764 37.557 186.665 33.235 186.665 27.904C186.665 22.571 186.764 18.25 186.886 18.25C187.008 18.25 187.107 22.571 187.107 27.904C187.107 33.235 187.008 37.557 186.886 37.557Z" fill="#455A64"/>
<path d="M286.466 35.2709C286.344 35.2709 286.245 31.3469 286.245 26.5069C286.245 21.6659 286.344 17.7429 286.466 17.7429C286.588 17.7429 286.687 21.6659 286.687 26.5069C286.687 31.3469 286.588 35.2709 286.466 35.2709Z" fill="#455A64"/>
<path d="M281.386 39.336C281.386 39.458 260.287 39.557 234.265 39.557C208.234 39.557 187.14 39.458 187.14 39.336C187.14 39.214 208.235 39.115 234.265 39.115C260.286 39.115 281.386 39.214 281.386 39.336Z" fill="#455A64"/>
<path d="M309.937 90.2148H194.951V97.2829H309.937V90.2148Z" fill="#E0E0E0"/>
<path d="M247.117 104.653H194.951V111.672H247.117V104.653Z" fill="#E0E0E0"/>
<path d="M179.387 113.781H160.527C158.394 113.781 156.664 112.052 156.664 109.918V91.0578C156.664 88.9248 158.393 87.1948 160.527 87.1948H179.387C181.52 87.1948 183.25 88.9238 183.25 91.0578V109.918C183.25 112.052 181.521 113.781 179.387 113.781Z" fill="#1685FF"/>
<path d="M169.576 106.822L162.129 101.067L164.137 98.4678L169.131 102.327L176.233 94.1548L178.712 96.3098L169.576 106.822Z" fill="white"/>
<path d="M309.937 133.977H194.951V141.045H309.937V133.977Z" fill="#E0E0E0"/>
<path d="M247.117 148.415H194.951V155.434H247.117V148.415Z" fill="#E0E0E0"/>
<path d="M179.387 157.543H160.527C158.394 157.543 156.664 155.814 156.664 153.68V134.82C156.664 132.687 158.393 130.957 160.527 130.957H179.387C181.52 130.957 183.25 132.686 183.25 134.82V153.68C183.25 155.814 181.521 157.543 179.387 157.543Z" fill="#1685FF"/>
<path d="M169.576 150.584L162.129 144.829L164.137 142.23L169.131 146.089L176.233 137.917L178.712 140.072L169.576 150.584Z" fill="white"/>
<path d="M309.937 180.865H194.951V187.933H309.937V180.865Z" fill="#E0E0E0"/>
<path d="M247.117 195.303H194.951V202.322H247.117V195.303Z" fill="#E0E0E0"/>
<path d="M309.937 224.213H194.951V231.281H309.937V224.213Z" fill="#E0E0E0"/>
<path d="M247.117 238.651H194.951V245.67H247.117V238.651Z" fill="#E0E0E0"/>
<path d="M179.387 204.432H160.527C158.394 204.432 156.664 202.703 156.664 200.569V181.709C156.664 179.576 158.393 177.846 160.527 177.846H179.387C181.52 177.846 183.25 179.575 183.25 181.709V200.569C183.25 202.702 181.521 204.432 179.387 204.432Z" fill="#1685FF"/>
<path d="M169.576 197.473L162.129 191.718L164.137 189.119L169.131 192.978L176.233 184.806L178.712 186.96L169.576 197.473Z" fill="white"/>
<path d="M179.767 249.464H160.147C157.978 249.464 156.214 247.7 156.214 245.53V225.911C156.214 223.742 157.979 221.978 160.147 221.978H179.767C181.936 221.978 183.701 223.742 183.701 225.911V245.53C183.701 247.7 181.937 249.464 179.767 249.464ZM160.148 222.879C158.476 222.879 157.116 224.239 157.116 225.911V245.53C157.116 247.202 158.476 248.563 160.148 248.563H179.768C181.44 248.563 182.8 247.203 182.8 245.53V225.911C182.8 224.24 181.44 222.879 179.768 222.879H160.148Z" fill="#1685FF"/>
<path d="M309.937 273.798H194.951V280.866H309.937V273.798Z" fill="#E0E0E0"/>
<path d="M247.117 288.236H194.951V295.255H247.117V288.236Z" fill="#E0E0E0"/>
<path d="M179.767 299.049H160.147C157.978 299.049 156.214 297.285 156.214 295.115V275.496C156.214 273.327 157.979 271.563 160.147 271.563H179.767C181.936 271.563 183.701 273.327 183.701 275.496V295.115C183.701 297.285 181.937 299.049 179.767 299.049ZM160.148 272.464C158.476 272.464 157.116 273.824 157.116 275.496V295.115C157.116 296.787 158.476 298.148 160.148 298.148H179.768C181.44 298.148 182.8 296.788 182.8 295.115V275.496C182.8 273.825 181.44 272.464 179.768 272.464H160.148Z" fill="#1685FF"/>
<path d="M295.754 62.8459H181.111V72.6609H295.754V62.8459Z" fill="#1685FF"/>
<path d="M200.894 426.756C200.894 426.756 197.443 403.03 197.731 389.225C198.019 375.421 197.714 359.891 197.714 359.891H199.304C199.304 359.891 198.227 387.291 199.399 403.817C200.57 420.33 203.656 426.756 203.656 426.756H200.894Z" fill="#263238"/>
<path d="M211.174 333.195C210.854 332.384 210.461 331.54 209.725 331.074C208.716 330.435 207.394 330.701 206.267 331.099C201.462 332.798 197.203 341.757 195.26 346.469L201.639 367.963C213.154 357.281 215.148 343.268 211.174 333.195Z" fill="#455A64"/>
<path d="M209.352 331.944C209.36 331.948 209.328 332.044 209.259 332.224C209.177 332.43 209.073 332.689 208.947 333.007C208.667 333.683 208.275 334.667 207.806 335.888C206.866 338.329 205.67 341.741 204.6 345.585C203.535 349.432 202.801 352.973 202.348 355.549C202.121 356.837 201.95 357.882 201.841 358.606C201.786 358.944 201.741 359.219 201.705 359.438C201.671 359.628 201.649 359.727 201.64 359.726C201.631 359.725 201.635 359.623 201.653 359.431C201.676 359.211 201.705 358.933 201.74 358.592C201.818 357.864 201.961 356.813 202.165 355.518C202.571 352.929 203.279 349.372 204.347 345.514C205.42 341.659 206.647 338.246 207.633 335.819C208.125 334.605 208.544 333.63 208.853 332.966C208.998 332.655 209.117 332.403 209.211 332.202C209.296 332.029 209.344 331.94 209.352 331.944Z" fill="#263238"/>
<path d="M198.805 373.116C192.826 369.812 189.302 363.596 188.973 356.773C188.743 352.003 190.209 347.323 191.869 342.845C192.013 342.457 192.184 342.038 192.544 341.834C193.046 341.55 193.673 341.803 194.174 342.088C198.519 344.562 201.151 349.279 202.552 354.079C203.484 357.273 203.967 360.64 203.536 363.939C203.105 367.239 201.219 370.828 198.805 373.116Z" fill="#455A64"/>
<path d="M198.805 373.116C198.796 373.116 198.788 373.017 198.782 372.828C198.778 372.61 198.773 372.337 198.766 372.003C198.764 371.287 198.735 370.251 198.676 368.973C198.561 366.417 198.226 362.893 197.566 359.043C196.903 355.193 196.098 351.746 195.505 349.254C195.213 348.035 194.973 347.036 194.797 346.303C194.722 345.977 194.661 345.711 194.613 345.498C194.574 345.313 194.557 345.215 194.566 345.213C194.575 345.211 194.608 345.304 194.664 345.485C194.725 345.694 194.802 345.956 194.896 346.277C195.093 346.966 195.364 347.967 195.685 349.209C196.325 351.691 197.16 355.138 197.825 358.999C198.487 362.859 198.794 366.4 198.861 368.965C198.896 370.248 198.897 371.286 198.867 372.003C198.853 372.338 198.842 372.611 198.833 372.828C198.824 373.018 198.814 373.117 198.805 373.116Z" fill="#263238"/>
<g opacity="0.3">
<path d="M198.805 373.116C192.826 369.812 189.302 363.596 188.973 356.773C188.743 352.003 190.209 347.323 191.869 342.845C192.013 342.457 192.184 342.038 192.544 341.834C193.046 341.55 193.673 341.803 194.174 342.088C198.519 344.562 201.151 349.279 202.552 354.079C203.484 357.273 203.967 360.64 203.536 363.939C203.105 367.239 201.219 370.828 198.805 373.116Z" fill="black"/>
</g>
<path d="M205.551 409.419C211.436 410.712 216.281 414.863 221.959 416.881C225.715 418.216 229.963 418.689 232.962 421.315C232.242 419.498 230.536 418.288 228.879 417.253C224.21 414.337 219.211 411.95 214.008 410.154C211.337 409.232 208.439 408.461 205.717 409.221" fill="#455A64"/>
<path d="M197.042 414.662C189.672 414.543 181.912 408.269 174.577 407.894C182.254 405.415 193.245 407.44 197.042 414.662Z" fill="#455A64"/>
<path d="M199.922 396.983C203.664 395.634 207.773 395.57 211.704 396.181C215.635 396.792 219.431 398.052 223.206 399.307C222.828 396.75 220.757 394.827 218.812 393.125C217.348 391.844 215.873 390.556 214.193 389.575C212.513 388.594 210.597 387.93 208.654 388.012C206.31 388.111 204.078 389.321 202.54 391.093C201.003 392.866 200.176 394.65 199.922 396.983Z" fill="#455A64"/>
<path d="M184.796 388.845C180.157 384.884 173.13 385.271 167.031 385.409C176.406 389.891 186.508 396.036 194.582 402.578C194.83 398.267 190.657 393.849 184.796 388.845Z" fill="#455A64"/>
<g opacity="0.3">
<path d="M184.796 388.845C180.157 384.884 173.13 385.271 167.031 385.409C176.406 389.891 186.508 396.036 194.582 402.578C194.83 398.267 190.657 393.849 184.796 388.845Z" fill="black"/>
</g>
<path d="M202.008 383.378C204.341 381.823 206.701 380.34 209.143 379.231C211.585 378.122 213.863 376.354 216.221 375.077C219.279 373.421 221.928 371.119 224.735 369.067C227.542 367.014 230.625 365.161 234.06 364.617C231.259 364.039 228.333 364.354 225.574 365.108C222.815 365.861 220.194 367.041 217.587 368.216C213.968 369.846 210.286 371.517 207.328 374.163C204.37 376.809 201.696 379.421 202.008 383.378Z" fill="#455A64"/>
<path d="M221.823 414.662C221.819 414.67 221.738 414.635 221.59 414.561C221.416 414.471 221.204 414.361 220.947 414.228C220.392 413.933 219.595 413.495 218.592 412.991C218.095 412.729 217.545 412.455 216.948 412.175C216.357 411.881 215.715 411.592 215.034 411.297C213.673 410.716 212.154 410.109 210.496 409.715C208.844 409.31 207.197 409.22 205.769 409.596C205.048 409.77 204.37 409.942 203.766 410.194C203.16 410.44 202.62 410.727 202.149 411.024C201.205 411.618 200.545 412.249 200.117 412.703C199.69 413.16 199.482 413.44 199.463 413.426C199.456 413.421 199.501 413.346 199.595 413.209C199.687 413.071 199.836 412.876 200.04 412.634C200.449 412.154 201.098 411.493 202.047 410.868C202.52 410.555 203.066 410.252 203.682 409.992C204.297 409.725 204.991 409.541 205.712 409.36C207.172 408.961 208.883 409.046 210.556 409.459C212.239 409.859 213.767 410.478 215.13 411.075C215.812 411.377 216.453 411.675 217.042 411.978C217.638 412.268 218.185 412.552 218.677 412.825C219.672 413.352 220.456 413.815 220.996 414.138C221.243 414.288 221.448 414.413 221.615 414.514C221.757 414.604 221.828 414.654 221.823 414.662Z" fill="#263238"/>
<path d="M191.545 411.01C191.552 410.993 191.715 411.042 192.007 411.145C192.3 411.244 192.712 411.421 193.208 411.667C194.2 412.157 195.504 412.991 196.729 414.164C197.951 415.341 198.836 416.612 199.365 417.583C199.631 418.068 199.824 418.473 199.935 418.762C200.05 419.049 200.105 419.211 200.088 419.218C200.046 419.237 199.77 418.613 199.204 417.677C198.64 416.741 197.747 415.512 196.546 414.354C195.342 413.201 194.078 412.358 193.12 411.832C192.163 411.303 191.528 411.053 191.545 411.01Z" fill="#263238"/>
<path d="M175.239 388.475C175.242 388.466 175.35 388.499 175.553 388.568C175.781 388.649 176.074 388.754 176.438 388.883C176.831 389.028 177.297 389.2 177.833 389.397C178.377 389.599 178.967 389.897 179.635 390.191C182.288 391.396 185.819 393.423 189.23 396.304C190.912 397.768 192.432 399.256 193.704 400.71C194.971 402.167 196.044 403.538 196.88 404.733C197.721 405.925 198.36 406.918 198.797 407.605C199.004 407.929 199.171 408.191 199.301 408.395C199.415 408.576 199.472 408.674 199.464 408.68C199.457 408.685 199.386 408.598 199.257 408.426C199.128 408.254 198.941 407.998 198.711 407.662C198.247 406.992 197.586 406.016 196.729 404.842C195.876 403.664 194.793 402.311 193.523 400.871C192.248 399.433 190.731 397.96 189.059 396.505C185.67 393.642 182.178 391.603 179.556 390.36C178.896 390.056 178.313 389.747 177.777 389.533C177.249 389.32 176.79 389.135 176.402 388.979C176.047 388.831 175.759 388.711 175.536 388.618C175.338 388.533 175.236 388.484 175.239 388.475Z" fill="#263238"/>
<path d="M210.98 392.84C210.975 392.858 210.766 392.83 210.392 392.764C210.189 392.727 209.965 392.685 209.715 392.639C209.452 392.588 209.144 392.587 208.81 392.552C207.485 392.456 205.554 392.565 203.745 393.551C202.832 394.013 202.067 394.636 201.44 395.261C200.804 395.881 200.322 396.528 199.958 397.093C199.219 398.225 198.99 399.042 198.945 399.027C198.931 399.023 198.972 398.815 199.095 398.452C199.23 398.095 199.439 397.578 199.8 396.995C200.15 396.407 200.626 395.736 201.267 395.091C201.898 394.442 202.681 393.795 203.621 393.319C205.487 392.302 207.484 392.22 208.825 392.367C209.164 392.414 209.475 392.429 209.739 392.494C209.988 392.557 210.212 392.613 210.414 392.664C210.784 392.761 210.985 392.823 210.98 392.84Z" fill="#263238"/>
<path d="M218.387 369.862C218.391 369.87 218.295 369.929 218.108 370.034C217.896 370.149 217.623 370.297 217.286 370.481C216.571 370.866 215.542 371.434 214.292 372.171C213.048 372.917 211.582 373.834 210.023 374.949C208.468 376.066 206.798 377.365 205.256 378.943C204.496 379.737 203.795 380.566 203.306 381.467C202.823 382.394 202.362 383.29 201.938 384.15C201.086 385.869 200.392 387.452 199.89 388.811C199.39 390.171 199.079 391.304 198.894 392.093C198.705 392.882 198.637 393.327 198.611 393.322C198.602 393.321 198.612 393.209 198.64 392.996C198.667 392.783 198.712 392.47 198.793 392.071C198.948 391.272 199.234 390.124 199.714 388.748C200.196 387.372 200.876 385.773 201.719 384.043C202.139 383.177 202.596 382.277 203.076 381.348C203.583 380.405 204.295 379.565 205.065 378.76C206.626 377.163 208.31 375.864 209.881 374.751C211.456 373.642 212.937 372.738 214.197 372.01C215.463 371.292 216.507 370.747 217.238 370.389C217.585 370.224 217.865 370.09 218.084 369.986C218.279 369.897 218.383 369.853 218.387 369.862Z" fill="#263238"/>
<path d="M197.722 392.176C197.704 392.179 197.653 391.957 197.576 391.555C197.49 391.1 197.382 390.53 197.254 389.852C196.973 388.417 196.544 386.442 195.86 384.322C195.182 382.199 194.358 380.352 193.755 379.02C193.469 378.392 193.228 377.864 193.036 377.442C192.868 377.068 192.784 376.857 192.8 376.849C192.816 376.841 192.932 377.036 193.128 377.396C193.324 377.756 193.599 378.282 193.923 378.94C194.57 380.254 195.427 382.101 196.11 384.241C196.799 386.377 197.202 388.372 197.436 389.819C197.551 390.544 197.634 391.131 197.677 391.539C197.723 391.947 197.74 392.173 197.722 392.176Z" fill="#263238"/>
<path d="M197.188 375.409C197.003 372.625 196.096 369.919 194.791 367.453C191.214 360.69 184.491 355.676 176.988 354.177C182.482 362.365 187.976 370.554 193.47 378.742L195.598 383.126C197.051 380.743 197.373 378.193 197.188 375.409Z" fill="#455A64"/>
<path d="M220.83 423.821H182.506V430.614H220.83V423.821Z" fill="#1685FF"/>
<path d="M185.368 429.266L188.631 450.342H214.074L217.968 429.266H185.368Z" fill="#1685FF"/>
<path d="M220.809 430.622C220.809 430.696 212.164 430.757 201.503 430.757C190.838 430.757 182.195 430.697 182.195 430.622C182.195 430.548 190.838 430.487 201.503 430.487C212.164 430.487 220.809 430.547 220.809 430.622Z" fill="#263238"/>
<path d="M362.57 187.587L360.538 182.764C361.746 178.997 361.851 174.82 360.561 170.706C357.519 161.001 347.401 155.097 337.451 157.201C325.954 159.633 319.009 171.413 322.558 182.708C325.57 192.297 335.486 198.187 345.351 196.262C350.246 195.306 354.332 192.66 357.171 189.073L357.167 189.083L362.57 187.587Z" fill="white"/>
<path d="M362.57 187.587C362.577 187.591 362.466 187.627 362.241 187.696C361.989 187.771 361.652 187.872 361.222 188.001C360.279 188.276 358.929 188.668 357.192 189.174C357.142 189.189 357.089 189.16 357.075 189.11C357.069 189.088 357.071 189.064 357.079 189.045L357.083 189.035L357.246 189.132C355.72 191.083 353.283 193.465 349.647 195.077C347.841 195.885 345.755 196.464 343.476 196.71C341.197 196.936 338.724 196.767 336.245 196.091C333.771 195.405 331.303 194.198 329.093 192.463C326.892 190.73 324.915 188.479 323.579 185.768C322.224 183.075 321.45 179.984 321.413 176.799C321.355 173.61 322.162 170.347 323.695 167.406C325.234 164.423 327.491 161.881 330.169 160.088C332.829 158.267 335.856 157.169 338.868 156.745C341.889 156.304 344.892 156.681 347.586 157.533C350.286 158.395 352.687 159.779 354.653 161.458C356.615 163.146 358.146 165.115 359.239 167.141C359.487 167.66 359.732 168.17 359.972 168.672C360.2 169.179 360.359 169.705 360.551 170.205C360.918 171.214 361.148 172.225 361.324 173.199C362.008 177.124 361.389 180.466 360.627 182.793L360.624 182.729C361.255 184.286 361.747 185.502 362.093 186.356C362.247 186.745 362.369 187.052 362.46 187.282C362.54 187.487 362.577 187.59 362.57 187.587C362.563 187.583 362.51 187.473 362.414 187.262C362.311 187.031 362.173 186.723 361.999 186.332C361.635 185.501 361.116 184.317 360.452 182.8C360.443 182.78 360.443 182.755 360.449 182.735C361.164 180.416 361.735 177.11 361.027 173.25C360.845 172.292 360.61 171.298 360.242 170.308C360.05 169.817 359.89 169.301 359.662 168.805C359.423 168.313 359.179 167.813 358.931 167.305C357.845 165.322 356.331 163.399 354.398 161.752C352.462 160.115 350.103 158.769 347.456 157.935C344.816 157.11 341.878 156.75 338.927 157.188C335.983 157.61 333.027 158.689 330.431 160.469C327.818 162.222 325.615 164.706 324.111 167.621C322.614 170.493 321.823 173.68 321.877 176.794C321.91 179.905 322.661 182.929 323.979 185.563C325.278 188.216 327.205 190.422 329.354 192.127C331.512 193.833 333.926 195.027 336.348 195.711C338.776 196.385 341.201 196.565 343.44 196.358C345.68 196.131 347.737 195.577 349.522 194.797C353.116 193.242 355.55 190.92 357.094 189.013C357.126 188.971 357.186 188.964 357.228 188.996C357.263 189.023 357.273 189.071 357.257 189.11L357.253 189.12L357.14 188.99C358.865 188.537 360.206 188.186 361.142 187.94C361.587 187.827 361.935 187.738 362.195 187.671C362.436 187.612 362.562 187.583 362.57 187.587Z" fill="#263238"/>
<path d="M334.746 179.411C335.95 179.411 336.925 178.435 336.925 177.232C336.925 176.029 335.95 175.053 334.746 175.053C333.543 175.053 332.567 176.029 332.567 177.232C332.567 178.435 333.543 179.411 334.746 179.411Z" fill="#263238"/>
<path d="M344.267 177.232C344.267 178.436 343.291 179.411 342.088 179.411C340.884 179.411 339.908 178.435 339.908 177.232C339.908 176.028 340.884 175.053 342.088 175.053C343.291 175.053 344.267 176.029 344.267 177.232Z" fill="#263238"/>
<path d="M349.235 179.411C350.439 179.411 351.414 178.435 351.414 177.232C351.414 176.029 350.439 175.053 349.235 175.053C348.032 175.053 347.056 176.029 347.056 177.232C347.056 178.435 348.032 179.411 349.235 179.411Z" fill="#263238"/>
<path d="M97.908 146.486L98.856 140.923C97.178 137.984 96.265 134.56 96.386 130.929C96.734 120.488 105.48 112.306 115.921 112.654C126.362 113.002 134.544 121.748 134.196 132.189C133.848 142.63 125.102 150.812 114.661 150.464C110.301 150.319 106.339 148.705 103.223 146.12L103.229 146.129L97.908 146.486Z" fill="white"/>
<path d="M97.908 146.486C97.903 146.491 98.014 146.488 98.24 146.478C98.486 146.466 98.821 146.449 99.252 146.428C100.178 146.377 101.514 146.303 103.236 146.207C103.279 146.205 103.313 146.167 103.31 146.124C103.309 146.109 103.303 146.094 103.295 146.082L103.289 146.073L103.174 146.18C104.984 147.7 107.737 149.425 111.449 150.211C112.373 150.402 113.35 150.533 114.368 150.585C114.877 150.619 115.397 150.582 115.925 150.584C116.189 150.575 116.456 150.588 116.724 150.561C116.991 150.53 117.26 150.499 117.531 150.468C119.698 150.224 121.975 149.584 124.147 148.447C126.317 147.315 128.378 145.689 130.074 143.613C131.771 141.542 133.096 139.018 133.811 136.228C134.535 133.442 134.578 130.394 133.93 127.427C133.642 125.931 133.065 124.493 132.42 123.082C131.689 121.714 130.877 120.356 129.818 119.174C128.823 117.956 127.628 116.941 126.401 116.014C125.124 115.156 123.809 114.361 122.392 113.838C119.595 112.72 116.604 112.272 113.759 112.527C110.912 112.764 108.22 113.639 105.91 114.954C103.594 116.267 101.657 118.012 100.179 119.944C97.202 123.833 96.131 128.351 96.259 132.094C96.378 135.878 97.588 138.903 98.787 140.965L98.777 140.911C98.49 142.718 98.269 144.116 98.115 145.083C98.046 145.535 97.993 145.885 97.954 146.141C97.918 146.374 97.903 146.491 97.908 146.486C97.908 146.486 97.939 146.355 97.986 146.112C98.035 145.853 98.102 145.498 98.188 145.04C98.361 144.089 98.612 142.714 98.936 140.937C98.94 140.918 98.935 140.898 98.926 140.883C97.766 138.821 96.601 135.82 96.512 132.086C96.413 128.391 97.495 123.952 100.436 120.143C101.897 118.25 103.806 116.544 106.082 115.262C108.354 113.978 110.994 113.126 113.786 112.9C116.576 112.654 119.507 113.099 122.245 114.196C123.633 114.708 124.92 115.49 126.171 116.33C127.372 117.239 128.544 118.233 129.518 119.427C130.556 120.585 131.351 121.916 132.068 123.255C132.699 124.637 133.267 126.045 133.55 127.51C134.187 130.415 134.15 133.404 133.446 136.136C132.751 138.872 131.457 141.35 129.798 143.388C128.14 145.431 126.122 147.036 123.993 148.157C121.863 149.284 119.628 149.925 117.495 150.177C117.228 150.21 116.963 150.242 116.7 150.274C116.437 150.302 116.173 150.291 115.914 150.301C115.394 150.302 114.881 150.343 114.379 150.312C113.374 150.267 112.41 150.145 111.497 149.964C107.83 149.217 105.09 147.54 103.273 146.059C103.239 146.031 103.19 146.035 103.161 146.069C103.137 146.097 103.137 146.138 103.157 146.166L103.163 146.174L103.222 146.049C101.525 146.184 100.209 146.288 99.296 146.361C98.857 146.398 98.516 146.427 98.266 146.448C98.036 146.469 97.908 146.486 97.908 146.486Z" fill="#263238"/>
<path d="M107.116 132.859L109.204 130.771L113.231 134.351L121.135 126.745L123.074 128.833L112.933 138.377L107.116 132.859Z" fill="#1685FF"/>
<path d="M442.417 350.918C442.442 350.683 442.464 350.449 442.474 350.215C442.675 345.715 440.847 341.403 439.088 337.254C434.371 326.133 429.808 314.334 431.134 302.332C432.887 286.461 444.557 273.335 448.723 257.985C449.213 256.178 450.872 254.935 452.749 254.935C455.566 254.935 457.611 257.665 456.747 260.339C452.107 274.694 441.521 287.278 439.859 302.332C438.534 314.334 443.097 326.133 447.813 337.254C449.572 341.402 451.4 345.715 451.199 350.215C450.999 354.715 448.104 359.444 443.645 360.165H443.213H434.921H377.325C375.014 360.165 373.141 358.297 373.141 355.994V355.09C373.141 352.786 375.014 350.918 377.325 350.918H442.417Z" fill="#455A64"/>
<path d="M455.753 450.342H359.514C358.17 450.342 356.919 449.682 356.083 448.529C355.124 447.207 354.861 445.469 355.38 443.879L382.775 359.931L384.204 360.398L356.809 444.346C356.439 445.48 356.622 446.714 357.299 447.646C357.849 448.404 358.656 448.839 359.514 448.839H455.753C456.598 448.839 457.371 448.435 457.927 447.702C458.601 446.813 458.816 445.614 458.504 444.495L434.96 360.367L436.407 359.962L459.95 444.09C460.389 445.66 460.08 447.35 459.123 448.611C458.29 449.711 457.061 450.342 455.753 450.342Z" fill="#E0E0E0"/>
<path d="M320.773 297.966C320.773 297.966 324.278 289.449 327.74 287.647C331.202 285.846 335.611 284.694 335.611 284.694H351.025L351.178 294.673C351.178 294.673 348.952 296.905 345.901 296.483C342.85 296.061 335.233 294.178 335.233 294.178L331.473 294.384L328.008 298.828C328.008 298.828 325.195 299.683 326.185 297.021C327.175 294.359 327.617 293.186 327.617 293.186C327.617 293.186 324.289 298.365 323.012 298.603C321.735 298.841 320.773 297.966 320.773 297.966Z" fill="#6F4439"/>
<path d="M384.479 265.846L372.213 283.489L351.026 284.695L350.737 294.374L366.701 297.517C374.993 299.149 383.558 296.607 389.615 290.714L391.951 269.375L384.479 265.846Z" fill="#AE7461"/>
<path d="M374.966 412.173L389.223 426.115C389.223 426.115 378.93 445.988 381.298 448.833L411.06 420.828L389.794 398.149L374.966 412.173Z" fill="#263238"/>
<path d="M397.273 416.24C397.99 415.847 398.967 416.083 399.354 416.758C399.741 417.433 399.453 418.436 398.742 418.842C398.032 419.248 396.848 419 396.542 418.282C396.236 417.565 396.638 416.401 397.417 416.171" fill="#E0E0E0"/>
<path d="M411.06 420.829L408.822 418.631L381.124 446.304C381.124 446.304 380.314 448.095 381.298 448.834L411.06 420.829Z" fill="#455A64"/>
<path d="M388.606 426.427C388.741 426.56 389.527 425.938 390.659 425.706C391.788 425.445 392.719 425.692 392.801 425.512C392.91 425.36 391.916 424.744 390.548 425.049C389.179 425.34 388.455 426.331 388.606 426.427Z" fill="white"/>
<path d="M386.638 430.582C386.731 430.746 387.581 430.387 388.624 430.502C389.672 430.587 390.391 431.097 390.53 430.954C390.687 430.847 390.027 429.95 388.725 429.831C387.427 429.701 386.518 430.448 386.638 430.582Z" fill="white"/>
<path d="M388.206 435.775C388.366 435.68 387.919 434.805 386.834 434.405C385.752 433.997 384.786 434.346 384.833 434.518C384.858 434.708 385.681 434.696 386.566 435.038C387.46 435.358 388.049 435.897 388.206 435.775Z" fill="white"/>
<path d="M385.732 422.871C385.912 422.939 386.399 422.122 387.27 421.402C388.128 420.665 389.013 420.323 388.977 420.134C388.967 419.956 387.862 420.036 386.847 420.898C385.826 421.753 385.558 422.831 385.732 422.871Z" fill="white"/>
<path d="M376.642 312.798C374.035 312.798 310.527 331.298 303.655 337.551C296.783 343.805 291.642 421.191 291.642 421.191L318.271 430.321C318.271 430.321 323.883 392.527 327.285 380.32C329.989 370.617 329.367 361.556 329.367 361.556L382.093 338.594L376.642 312.798Z" fill="#263238"/>
<path d="M378.243 316.89C377.058 317.411 330.916 337.112 326.579 350.311C323.045 361.067 327.154 370.537 332.09 377.939C337.663 386.295 378.532 423.588 378.532 423.588L401.598 407.095L362.052 366.255C362.052 366.255 382.801 353.446 383.512 353.446C384.223 353.446 405.792 352.02 412.629 351.246C419.014 350.523 422.507 341.368 422.507 341.368L428.202 315.119L385.408 305.243L378.243 316.89Z" fill="#263238"/>
<path d="M378.243 316.89C378.243 316.89 378.391 316.627 378.694 316.123C379.002 315.615 379.454 314.868 380.05 313.885C381.254 311.912 383.033 308.999 385.349 305.205L385.376 305.161L385.426 305.173C394.97 307.36 409.674 310.73 428.235 314.984L428.367 315.014L428.338 315.147C426.633 323.038 424.718 331.903 422.666 341.401L422.663 341.415L422.659 341.425C421.683 343.773 420.366 346.033 418.596 348.005C417.709 348.985 416.663 349.855 415.467 350.495C415.171 350.662 414.869 350.819 414.541 350.921C414.216 351.025 413.908 351.191 413.564 351.234C413.227 351.297 412.888 351.377 412.55 351.425L411.539 351.532C406.137 352.066 400.549 352.465 394.802 352.884C391.928 353.08 389.014 353.279 386.063 353.48C385.324 353.525 384.583 353.57 383.839 353.615L383.553 353.627C383.491 353.624 383.499 353.647 383.471 353.649C383.454 353.651 383.397 353.681 383.362 353.696C383.203 353.765 383.037 353.858 382.874 353.941L381.897 354.481C380.599 355.22 379.303 355.987 378.003 356.762C372.806 359.869 367.525 363.107 362.153 366.416L362.19 366.121C372.039 376.29 382.414 387.003 393.073 398.008C395.985 401.016 398.876 404.001 401.739 406.958L401.897 407.121L401.713 407.253C393.846 412.876 386.141 418.384 378.644 423.743L378.518 423.833L378.404 423.728C370.145 416.158 362.213 408.751 354.684 401.552C350.92 397.953 347.259 394.403 343.738 390.881C340.218 387.36 336.8 383.901 333.721 380.298C333.318 379.864 332.986 379.368 332.62 378.905C332.262 378.435 331.895 377.973 331.594 377.472C330.956 376.494 330.348 375.505 329.787 374.499C328.656 372.493 327.682 370.433 326.921 368.33C326.162 366.227 325.61 364.082 325.331 361.933C325.058 359.783 325.053 357.64 325.287 355.564C325.512 353.484 325.993 351.478 326.725 349.594C327.535 347.725 328.819 346.183 330.129 344.777C332.818 342.006 335.766 339.769 338.64 337.767C344.413 333.785 349.926 330.698 354.786 328.094C359.654 325.497 363.903 323.42 367.383 321.768C370.864 320.117 373.581 318.9 375.424 318.089C376.344 317.691 377.045 317.388 377.523 317.181C377.998 316.983 378.243 316.89 378.243 316.89C378.243 316.89 378.006 317.006 377.537 317.216C377.062 317.43 376.365 317.744 375.452 318.155C373.618 318.986 370.911 320.223 367.441 321.892C363.971 323.562 359.733 325.656 354.878 328.268C350.031 330.887 344.531 333.987 338.782 337.974C335.92 339.976 332.986 342.215 330.326 344.968C329.032 346.362 327.768 347.893 326.987 349.707C326.277 351.545 325.797 353.55 325.581 355.601C325.353 357.654 325.361 359.772 325.635 361.897C325.914 364.022 326.464 366.144 327.219 368.226C327.976 370.309 328.945 372.351 330.071 374.343C330.629 375.342 331.235 376.324 331.871 377.296C332.173 377.795 332.535 378.249 332.888 378.711C333.25 379.168 333.574 379.654 333.978 380.087C337.046 383.667 340.467 387.123 343.987 390.637C347.508 394.153 351.171 397.697 354.937 401.292C362.469 408.482 370.404 415.884 378.663 423.448L378.423 423.434C385.918 418.073 393.622 412.563 401.487 406.938L401.46 407.233C398.597 404.276 395.706 401.291 392.793 398.283C382.137 387.275 371.764 376.56 361.917 366.389L361.752 366.218L361.954 366.094C367.329 362.786 372.612 359.551 377.814 356.446C379.116 355.671 380.412 354.904 381.716 354.164L382.702 353.62C382.872 353.534 383.031 353.444 383.214 353.364C383.265 353.343 383.289 353.324 383.362 353.302C383.424 353.284 383.518 353.259 383.551 353.263L383.822 353.251C384.564 353.207 385.303 353.162 386.04 353.118C388.99 352.919 391.903 352.723 394.777 352.529C400.522 352.116 406.113 351.721 411.505 351.195C412.868 351.108 414.153 350.835 415.31 350.2C416.463 349.585 417.483 348.742 418.353 347.783C420.088 345.858 421.402 343.611 422.36 341.312L422.353 341.335C424.421 331.841 426.351 322.979 428.07 315.091L428.174 315.254C409.626 310.944 394.932 307.529 385.395 305.313L385.471 305.281C383.125 309.064 381.323 311.97 380.104 313.937C379.496 314.91 379.035 315.649 378.72 316.152C378.408 316.645 378.243 316.89 378.243 316.89Z" fill="#455A64"/>
<path d="M382.441 190.672C380.363 191.095 378.076 189.741 377.446 187.717C376.816 185.692 377.933 183.281 379.884 182.45C378.462 181.227 377.943 179.061 378.657 177.326C379.37 175.591 381.262 174.417 383.133 174.547C383.049 172.697 383.996 170.832 385.541 169.81C387.085 168.787 389.171 168.643 390.842 169.443C392.727 167.517 396.007 167.165 398.259 168.645C400.022 168.157 402.06 168.941 403.042 170.484C404.024 172.027 403.871 174.205 402.683 175.595" fill="#263238"/>
<path d="M399.558 172.819L398.611 172.903C389.08 173.745 381.794 181.764 381.868 191.332C381.937 200.231 382.127 210.061 382.604 214.796C383.593 224.6 393.545 225.258 393.545 225.258L393.758 237.123L417.513 234.279L415.839 191.327C415.816 181.059 409.822 172.513 399.558 172.819Z" fill="#AE7461"/>
<path d="M393.532 225.257C393.532 225.257 399.764 225.074 405.99 220.35C405.99 220.35 403.463 227.859 393.591 227.841L393.532 225.257Z" fill="#6F4439"/>
<path d="M385.41 200.433C385.449 201.175 386.11 201.755 386.887 201.728C387.662 201.701 388.259 201.079 388.22 200.337C388.181 199.595 387.52 199.015 386.745 199.041C385.968 199.068 385.37 199.691 385.41 200.433Z" fill="#263238"/>
<path d="M384.403 195.947C384.593 196.115 385.585 195.235 387.094 195.105C388.599 194.954 389.775 195.632 389.922 195.433C389.995 195.344 389.789 195.029 389.276 194.721C388.771 194.413 387.931 194.145 386.992 194.232C386.053 194.32 385.293 194.736 384.87 195.13C384.437 195.529 384.31 195.873 384.403 195.947Z" fill="#263238"/>
<path d="M398.971 199.652C399.01 200.394 399.672 200.973 400.448 200.946C401.223 200.92 401.82 200.297 401.781 199.555C401.742 198.813 401.08 198.233 400.306 198.26C399.53 198.286 398.932 198.91 398.971 199.652Z" fill="#263238"/>
<path d="M399.253 194.918C399.443 195.085 400.437 194.206 401.944 194.077C403.449 193.926 404.624 194.604 404.772 194.405C404.845 194.316 404.641 194.001 404.126 193.694C403.621 193.387 402.782 193.118 401.843 193.205C400.904 193.293 400.144 193.709 399.721 194.103C399.289 194.499 399.16 194.844 399.253 194.918Z" fill="#263238"/>
<path d="M394.768 206.587C394.768 206.5 393.816 206.421 392.279 206.361C391.89 206.355 391.519 206.311 391.431 206.054C391.316 205.784 391.44 205.354 391.587 204.89C391.867 203.926 392.159 202.916 392.466 201.857C393.679 197.542 394.52 194.007 394.346 193.96C394.172 193.913 393.048 197.372 391.835 201.687C391.545 202.75 391.268 203.764 391.005 204.733C390.898 205.184 390.691 205.702 390.939 206.262C391.068 206.541 391.369 206.725 391.622 206.769C391.876 206.822 392.093 206.808 392.284 206.802C393.821 206.75 394.77 206.673 394.768 206.587Z" fill="#263238"/>
<path d="M397.432 189.23C397.665 189.595 398.921 189.066 400.508 188.874C402.09 188.646 403.458 188.827 403.568 188.417C403.614 188.222 403.301 187.904 402.7 187.648C402.104 187.392 401.218 187.232 400.268 187.357C399.318 187.484 398.518 187.867 398.026 188.267C397.529 188.669 397.327 189.056 397.432 189.23Z" fill="#263238"/>
<path d="M383.78 189.734C384.128 190.048 385.341 189.583 386.837 189.434C388.328 189.241 389.622 189.42 389.882 189.036C389.995 188.851 389.765 188.525 389.182 188.25C388.608 187.975 387.671 187.792 386.645 187.909C385.619 188.027 384.755 188.416 384.265 188.813C383.767 189.212 383.624 189.58 383.78 189.734Z" fill="#263238"/>
<path d="M382.414 186.747C382.414 186.747 384.459 180.372 387.296 178.675C390.73 176.622 392.623 180.423 395.958 179.165C399.293 177.907 402.571 175.938 406.299 178.272C410.38 180.827 408.767 183.015 409.388 187.349C411.907 204.92 415.573 209.628 415.755 201.23C415.775 200.31 418.239 199.362 418.274 195.479C418.318 190.444 417.975 184.367 416.547 180.923C415.344 178.02 413.459 176.108 410.205 174.103C405.069 170.939 398.443 171.447 393.988 172.297C389.533 173.148 381.324 179.087 382.414 186.747Z" fill="#263238"/>
<path d="M415.106 201.02C415.034 199.5 416.233 198.188 417.755 198.198C419.601 198.21 421.73 199.069 421.943 202.863C422.322 209.592 415.488 208.584 415.466 208.392C415.451 208.261 415.24 203.837 415.106 201.02Z" fill="#AE7461"/>
<path d="M416.788 205.777C416.816 205.754 416.91 205.853 417.113 205.932C417.311 206.01 417.647 206.052 417.99 205.901C418.686 205.6 419.221 204.438 419.186 203.223C419.169 202.61 419.008 202.034 418.763 201.563C418.53 201.082 418.192 200.756 417.831 200.713C417.47 200.65 417.229 200.879 417.157 201.073C417.077 201.266 417.127 201.398 417.093 201.412C417.075 201.43 416.942 201.307 416.981 201.026C417.001 200.891 417.071 200.728 417.222 200.59C417.376 200.45 417.61 200.369 417.86 200.382C418.381 200.389 418.875 200.84 419.143 201.356C419.44 201.873 419.636 202.52 419.655 203.208C419.688 204.567 419.066 205.875 418.109 206.21C417.642 206.36 417.24 206.24 417.027 206.093C416.809 205.939 416.765 205.791 416.788 205.777Z" fill="#6F4439"/>
<path d="M413.825 188.031C413.006 188.703 412.14 189.398 411.099 189.595C410.058 189.792 408.804 189.295 408.535 188.27C408.414 187.81 408.48 187.258 408.141 186.924C407.737 186.526 407.072 186.72 406.516 186.83C404.583 187.209 402.114 185.256 401.449 183.402C401.017 184.191 399.948 184.513 399.151 184.094C398.355 183.675 398.056 183.423 397.407 182.8C396.758 182.177 395.878 181.647 395.002 181.851C394.512 181.965 394.074 182.302 393.571 182.302C392.683 182.302 392.161 181.308 391.951 180.445C391.74 179.582 391.546 178.571 390.758 178.162C390.028 177.782 389.154 178.116 388.353 178.308C387.553 178.499 386.488 178.401 386.211 177.626C386.065 177.22 386.205 176.766 386.404 176.383C387.303 174.646 389.517 173.714 391.388 174.284C391.848 172.009 393.769 170.1 396.048 169.654C398.326 169.208 400.825 170.252 402.109 172.185C403.414 170.773 405.426 170.051 407.331 170.312C409.236 170.573 410.98 171.809 411.857 173.52C413.451 172.946 415.368 173.413 416.52 174.655C417.672 175.898 417.992 177.844 417.3 179.39C418.567 179.972 419.706 181.08 419.853 182.466C420.001 183.853 418.77 185.356 417.398 185.109C418.035 186.142 417.724 187.649 416.73 188.346C415.735 189.043 414.213 188.821 413.459 187.869" fill="#263238"/>
<path d="M391.064 176.301C391.058 176.302 391.063 176.343 391.076 176.424C391.092 176.504 391.107 176.625 391.15 176.779C391.239 177.083 391.404 177.531 391.752 178.029C392.101 178.519 392.623 179.073 393.38 179.484C394.123 179.901 395.117 180.18 396.198 180.025L396.071 179.887C395.913 180.479 396.031 181.163 396.369 181.728C396.693 182.304 397.166 182.798 397.663 183.277C397.916 183.505 398.143 183.78 398.482 183.981C398.812 184.173 399.195 184.267 399.58 184.282C400.345 184.312 401.179 184.002 401.671 183.317L401.414 183.268C401.703 184.587 402.579 185.854 403.857 186.562C404.535 186.967 405.35 187.179 406.124 187.089C406.9 187.013 407.602 186.721 408.253 186.42L408.067 186.357C408.501 187.159 409.118 187.822 409.838 188.288C410.545 188.754 411.453 188.984 412.232 188.718C413.786 188.243 414.72 186.833 414.822 185.574L414.676 185.658C415.5 186.017 416.347 185.983 417.012 185.793C417.687 185.607 418.199 185.261 418.556 184.934C418.915 184.6 419.115 184.273 419.233 184.048C419.339 183.816 419.38 183.689 419.372 183.686C419.336 183.661 419.195 184.216 418.48 184.85C418.122 185.154 417.62 185.473 416.969 185.636C416.328 185.805 415.524 185.817 414.762 185.471L414.63 185.411L414.616 185.555C414.505 186.731 413.602 188.049 412.16 188.473C411.453 188.706 410.655 188.5 409.985 188.059C409.312 187.619 408.723 186.98 408.319 186.226L408.255 186.106L408.132 186.162C407.49 186.456 406.813 186.731 406.095 186.799C405.378 186.878 404.648 186.69 404.001 186.307C402.794 185.638 401.972 184.452 401.692 183.204L401.622 182.89L401.435 183.154C401.02 183.74 400.276 184.031 399.588 184.006C399.243 183.995 398.903 183.913 398.615 183.748C398.335 183.59 398.1 183.319 397.843 183.089C397.347 182.62 396.887 182.145 396.58 181.609C396.259 181.081 396.154 180.481 396.286 179.945L396.327 179.78L396.159 179.806C395.142 179.966 394.187 179.717 393.462 179.329C392.724 178.948 392.205 178.423 391.851 177.959C391.154 176.994 391.111 176.281 391.064 176.301Z" fill="#455A64"/>
<path d="M394.897 211.417C394.912 211.164 396.594 211.362 397.96 210.067C399.33 208.775 399.357 206.96 399.593 206.976C399.701 206.965 399.872 207.414 399.801 208.173C399.737 208.918 399.368 209.973 398.533 210.765C397.696 211.554 396.674 211.814 395.978 211.789C395.267 211.769 394.873 211.531 394.897 211.417Z" fill="#263238"/>
<path d="M297.696 411.232L294.595 432.76C294.595 432.76 270.471 436.487 269.49 440.403L313.305 448.585L319.588 415.263L297.696 411.232Z" fill="#263238"/>
<path d="M308.473 433.491C309.281 433.869 309.701 434.881 309.356 435.656C309.011 436.431 307.942 436.823 307.127 436.458C306.313 436.094 305.769 434.892 306.204 434.161C306.639 433.43 307.922 433.035 308.626 433.573" fill="#E0E0E0"/>
<path d="M313.305 448.584L313.799 445.198L271.605 438.62C271.605 438.62 269.507 439.06 269.49 440.402L313.305 448.584Z" fill="#455A64"/>
<path d="M293.924 432.416C293.894 432.62 294.947 432.912 295.88 433.76C296.836 434.586 297.219 435.565 297.43 435.521C297.634 435.518 297.537 434.247 296.388 433.239C295.25 432.221 293.912 432.221 293.924 432.416Z" fill="white"/>
<path d="M288.999 433.358C288.914 433.545 289.778 434.063 290.348 435.056C290.948 436.034 290.962 436.995 291.177 437.025C291.372 437.095 291.737 435.935 291.004 434.713C290.282 433.485 289.039 433.165 288.999 433.358Z" fill="white"/>
<path d="M285.436 438.08C285.623 438.159 286.105 437.203 285.759 435.99C285.422 434.775 284.493 434.149 284.371 434.301C284.22 434.445 284.76 435.162 285.029 436.161C285.322 437.154 285.227 438.02 285.436 438.08Z" fill="white"/>
<path d="M295.205 427.596C295.261 427.798 296.294 427.701 297.489 428.005C298.69 428.286 299.561 428.846 299.704 428.693C299.855 428.569 299.073 427.648 297.661 427.309C296.251 426.96 295.129 427.418 295.205 427.596Z" fill="white"/>
<path d="M392.681 238.651L393.581 234.578L417.513 222.694L419.6 225.951C419.6 225.951 428.556 233.239 431.985 239.564C435.414 245.889 431.347 297.683 430.775 305.242C429.622 320.474 423.93 340.41 423.93 340.41C423.93 340.41 416.251 335.064 393.659 325.788C371.067 316.512 369.856 312.313 369.856 312.313L383.169 295.43L392.681 238.651Z" fill="#1685FF"/>
<path d="M393.042 240.076C392.908 240.827 382.092 266.802 382.092 266.802C382.092 266.802 387.712 269.937 388.496 270.094C389.279 270.251 393.042 240.076 393.042 240.076Z" fill="#1685FF"/>
<path d="M391.952 244.335C392.059 244.352 391.099 250.952 389.809 259.076C388.518 267.202 387.386 273.773 387.279 273.756C387.172 273.739 388.132 267.14 389.422 259.014C390.713 250.891 391.845 244.318 391.952 244.335Z" fill="#263238"/>
<path d="M316.033 296.298C316.033 296.298 322.479 286.787 326.321 285.117C330.162 283.447 334.969 282.543 334.969 282.543L351.178 284.71L350.89 294.389C350.89 294.389 348.34 296.612 345.105 295.932C341.87 295.252 333.855 292.667 333.855 292.667L329.814 292.606L325.772 297.105C325.772 297.105 322.696 297.81 323.955 295.034C325.214 292.258 325.775 291.035 325.775 291.035C325.775 291.035 321.825 296.331 320.44 296.491C319.055 296.652 316.033 296.298 316.033 296.298Z" fill="#AE7461"/>
<path d="M400.738 258.204L389.5 284.319L351.025 284.694L350.736 294.373C350.736 294.373 387.838 307.455 397.718 304.914C407.598 302.373 423.983 267.436 423.983 267.436L400.738 258.204Z" fill="#AE7461"/>
<path d="M409.837 236.17C408.786 237.123 405.31 241.207 401.599 250.084C397.888 258.962 392.681 269.336 392.681 269.336L419.206 279.909C419.206 279.909 425.253 265.997 428.059 259.807C430.196 255.094 431.692 245.824 429.745 241.338C427.798 236.852 419.075 227.794 409.837 236.17Z" fill="#1685FF"/>
<path d="M409.837 236.17C409.837 236.17 409.915 236.086 410.08 235.937C410.249 235.792 410.486 235.559 410.829 235.292C411.508 234.754 412.561 233.99 414.099 233.359C415.631 232.762 417.73 232.361 420.05 232.918C422.363 233.439 424.772 234.861 426.847 236.982C427.882 238.045 428.856 239.279 429.617 240.723C430.364 242.189 430.684 243.895 430.772 245.634C430.938 249.125 430.442 252.858 429.391 256.633C428.882 258.533 428.01 260.368 427.197 262.23C426.375 264.1 425.536 266.009 424.682 267.953C422.972 271.84 421.2 275.865 419.386 279.989L419.309 280.163L419.133 280.093C419.012 280.045 418.88 279.992 418.749 279.94C409.355 276.188 400.458 272.635 392.615 269.502L392.437 269.431L392.523 269.259C395.001 264.294 397.195 259.668 399.074 255.522C400.969 251.387 402.397 247.648 403.965 244.734C405.486 241.803 406.922 239.615 408.011 238.205C408.553 237.498 409.005 236.983 409.324 236.649C409.645 236.315 409.837 236.17 409.837 236.17C409.84 236.174 409.8 236.218 409.719 236.303C409.629 236.4 409.513 236.526 409.365 236.686C409.061 237.031 408.625 237.556 408.1 238.271C407.044 239.696 405.642 241.894 404.153 244.829C402.619 247.743 401.219 251.485 399.342 255.64C397.483 259.801 395.307 264.436 392.839 269.415L392.747 269.172C400.594 272.294 409.495 275.835 418.895 279.574C419.027 279.627 419.158 279.679 419.279 279.727L419.027 279.831C420.845 275.707 422.619 271.682 424.332 267.795C425.19 265.852 426.032 263.944 426.857 262.075C427.68 260.199 428.537 258.408 429.046 256.531C430.096 252.8 430.601 249.091 430.45 245.65C430.37 243.933 430.063 242.274 429.35 240.859C428.616 239.449 427.663 238.225 426.65 237.173C424.618 235.071 422.261 233.659 420.001 233.129C417.734 232.564 415.675 232.933 414.154 233.5C412.628 234.101 411.568 234.838 410.877 235.354C410.528 235.609 410.283 235.833 410.106 235.967C409.933 236.106 409.837 236.17 409.837 236.17Z" fill="#263238"/>
<path d="M333.04 287.431C333.05 287.556 331.047 287.379 328.938 288.469C326.809 289.521 325.764 291.239 325.669 291.156C325.631 291.134 325.829 290.677 326.331 290.054C326.829 289.432 327.667 288.675 328.762 288.119C329.859 287.567 330.965 287.342 331.761 287.31C332.56 287.276 333.045 287.387 333.04 287.431Z" fill="#6F4439"/>
<path d="M395.47 270.448C395.479 270.452 395.45 270.544 395.385 270.718C395.306 270.921 395.207 271.172 395.087 271.48C394.798 272.181 394.403 273.141 393.911 274.338C392.861 276.824 391.396 280.289 389.663 284.389L389.619 284.494L389.503 284.495C386.003 284.535 382.025 284.581 377.817 284.629C370.438 284.679 363.759 284.723 358.873 284.756C356.482 284.753 354.532 284.751 353.132 284.75C352.485 284.741 351.966 284.734 351.571 284.728C351.214 284.719 351.026 284.707 351.026 284.694C351.026 284.68 351.213 284.665 351.57 284.649C351.965 284.636 352.484 284.619 353.13 284.597C354.53 284.568 356.479 284.528 358.87 284.479C363.756 284.417 370.434 284.331 377.813 284.237C382.021 284.203 386 284.171 389.499 284.143L389.339 284.249C391.125 280.172 392.634 276.726 393.717 274.254C394.248 273.073 394.673 272.127 394.984 271.435C395.125 271.136 395.239 270.892 395.332 270.695C395.414 270.528 395.461 270.444 395.47 270.448Z" fill="#6F4439"/>
<path d="M55.035 305.242H47.629V450.153H55.035V305.242Z" fill="#455A64"/>
<path d="M359.031 306.263H351.625V450.169H359.031V306.263Z" fill="#455A64"/>
<path d="M366.368 303.813H29.126V312.557H366.368V303.813Z" fill="#455A64"/>
<path d="M363.121 312.558C363.121 312.666 323.767 312.754 275.233 312.754C226.682 312.754 187.337 312.666 187.337 312.558C187.337 312.45 226.682 312.362 275.233 312.362C323.768 312.363 363.121 312.45 363.121 312.558Z" fill="#263238"/>
<path d="M266.05 252.663C266.937 252.496 267.792 253.079 267.96 253.966L277.086 302.328H321.464C322.128 302.328 322.665 302.866 322.665 303.529C322.665 304.192 322.127 304.73 321.464 304.73H274.398V304.537L274.183 304.578L264.747 254.572C264.579 253.685 265.163 252.83 266.05 252.663Z" fill="#263238"/>
<path d="M43.6441 139.817C47.8671 133.602 53.9351 129.699 61.4071 128.908C65.6231 128.462 67.4481 129.183 70.5621 129.733C73.6761 130.282 76.5651 131.669 78.6081 134.082C81.0351 136.948 83.1501 140.211 83.8891 143.893C84.6481 147.675 84.6891 151.438 84.2381 154.582C83.6891 158.4 81.6321 164.346 79.6531 167.658L73.2431 169.023C67.8751 169.686 62.4321 170.349 57.0771 169.589C51.7221 168.828 46.3741 166.46 43.1551 162.114C38.6831 156.075 39.4211 146.033 43.6441 139.817Z" fill="#263238"/>
<path d="M52.313 138.98L64.849 132.655L68.279 132.747C75.921 132.093 81.941 140.049 82.543 146.232C83.211 153.101 83.757 161.514 83.116 166.679C81.828 177.063 73.208 178.686 73.208 178.686C73.208 178.686 74.653 190.797 75.023 194.212L54.214 187.852L49.188 142.775C49.087 140.891 50.444 139.242 52.313 138.98Z" fill="#FFBF9D"/>
<path d="M67.621 165.656C67.644 165.113 67.9 164.611 68.252 164.251C68.955 163.531 70.062 163.368 70.927 163.858C71.792 164.348 72.361 165.459 72.303 166.545C71.902 167.214 71.24 167.701 70.471 167.837C70.352 167.858 70.231 167.873 70.109 167.881C69.52 167.918 68.905 167.773 68.418 167.38C67.932 166.988 67.593 166.327 67.621 165.656Z" fill="#FF9A6C"/>
<path d="M80.553 155.509C80.602 156.208 80.05 156.825 79.321 156.889C78.594 156.953 77.963 156.44 77.915 155.742C77.866 155.043 78.418 154.425 79.145 154.361C79.874 154.297 80.504 154.811 80.553 155.509Z" fill="#263238"/>
<path d="M80.5211 149.876C80.3631 150.054 79.3341 149.346 77.9081 149.398C76.4841 149.43 75.4621 150.199 75.3021 150.029C75.2231 149.954 75.3801 149.637 75.8241 149.29C76.2611 148.945 77.0151 148.598 77.9031 148.571C78.7911 148.546 79.5491 148.847 79.9901 149.167C80.4401 149.489 80.6001 149.796 80.5211 149.876Z" fill="#263238"/>
<path d="M72.398 161.813C72.389 161.732 73.269 161.549 74.699 161.317C75.062 161.267 75.404 161.183 75.457 160.932C75.534 160.666 75.368 160.279 75.177 159.862C74.805 158.993 74.415 158.082 74.006 157.127C72.377 153.232 71.1841 150.024 71.3421 149.96C71.5001 149.896 72.9481 153.001 74.5771 156.896C74.9701 157.857 75.3461 158.773 75.7031 159.649C75.8551 160.058 76.108 160.519 75.941 161.071C75.852 161.346 75.592 161.553 75.361 161.624C75.13 161.703 74.926 161.714 74.746 161.731C73.302 161.857 72.406 161.894 72.398 161.813Z" fill="#263238"/>
<path d="M73.224 178.673C73.224 178.673 66.291 179.358 59.266 175.455C59.266 175.455 63.195 182.489 73.499 181.17L73.224 178.673Z" fill="#FF9A6C"/>
<path d="M80.5271 145.511C80.2991 145.867 79.2001 145.672 77.9281 145.821C76.6521 145.93 75.6111 146.342 75.3201 146.038C75.1901 145.889 75.3181 145.545 75.7481 145.18C76.1721 144.817 76.9131 144.468 77.7891 144.379C78.6641 144.291 79.4581 144.483 79.9431 144.755C80.4351 145.027 80.6251 145.339 80.5271 145.511Z" fill="#263238"/>
<path d="M65.9211 156.578C65.9461 157.278 66.5601 157.834 67.2911 157.82C68.0211 157.807 68.5941 157.231 68.5681 156.531C68.5421 155.831 67.9291 155.275 67.1991 155.288C66.4681 155.301 65.8961 155.878 65.9211 156.578Z" fill="#263238"/>
<path d="M61.2761 151.039C61.4521 151.199 62.401 150.387 63.824 150.288C65.244 150.17 66.3401 150.827 66.4821 150.641C66.5521 150.559 66.3631 150.259 65.8851 149.961C65.4141 149.664 64.627 149.398 63.742 149.465C62.856 149.534 62.1341 149.913 61.7301 150.278C61.3161 150.645 61.1901 150.967 61.2761 151.039Z" fill="#263238"/>
<path d="M63.153 146.012C63.451 146.32 64.532 145.924 65.852 145.836C67.169 145.707 68.304 145.92 68.543 145.568C68.647 145.398 68.453 145.084 67.947 144.804C67.449 144.525 66.63 144.32 65.723 144.394C64.817 144.47 64.046 144.805 63.605 145.162C63.156 145.519 63.021 145.861 63.153 146.012Z" fill="#263238"/>
<path d="M52.494 159.89C52.466 159.121 51.515 157.338 50.751 157.245C48.712 156.998 45.061 157.285 45.203 162.438C45.397 169.482 52.429 167.834 52.436 167.632C52.44 167.474 52.591 162.546 52.494 159.89Z" fill="#FFBF9D"/>
<path d="M50.421 165.113C50.389 165.091 50.301 165.202 50.096 165.303C49.896 165.401 49.55 165.475 49.179 165.347C48.427 165.094 47.769 163.93 47.7 162.662C47.664 162.021 47.782 161.407 47.995 160.895C48.196 160.374 48.519 160.005 48.892 159.928C49.262 159.832 49.534 160.049 49.625 160.244C49.725 160.439 49.684 160.581 49.721 160.592C49.741 160.609 49.869 160.47 49.805 160.181C49.772 160.042 49.685 159.878 49.515 159.747C49.342 159.614 49.092 159.551 48.832 159.586C48.29 159.639 47.815 160.152 47.58 160.713C47.316 161.278 47.169 161.968 47.209 162.688C47.293 164.106 48.056 165.414 49.082 165.681C49.581 165.796 49.99 165.636 50.199 165.463C50.413 165.283 50.446 165.124 50.421 165.113Z" fill="#FF9A6C"/>
<path d="M50.467 157.291L52.412 158.979C63.624 151.604 75.025 131.529 72.08 132.35C72.08 132.35 66.622 130.654 60.993 132.137C55.365 133.62 44.78 137.447 45.547 144.173C46.314 150.897 50.467 157.291 50.467 157.291Z" fill="#263238"/>
<path d="M47.173 129.133C49.902 130.728 52.334 135.379 51.218 138.337C51.722 141.43 50.529 144.747 48.17 146.81C45.811 148.873 42.365 149.614 39.367 148.702C37.296 148.072 35.453 146.681 34.34 144.825C33.019 142.624 32.771 139.896 33.243 137.373C33.823 134.265 35.528 131.3 38.177 129.576C40.826 127.852 44.444 127.537 47.173 129.133Z" fill="#263238"/>
<path d="M46.555 157.308C46.571 157.339 47.03 157.146 47.838 156.753C48.647 156.361 49.802 155.762 51.199 154.963C53.983 153.367 57.756 150.93 61.301 147.494C64.85 144.059 67.315 140.242 68.61 137.288C69.268 135.813 69.684 134.572 69.915 133.701C70.148 132.83 70.23 132.338 70.199 132.331C70.098 132.301 69.659 134.254 68.268 137.129C66.902 140.005 64.43 143.723 60.929 147.113C57.431 150.505 53.729 152.969 51.007 154.64C49.642 155.476 48.518 156.123 47.741 156.571C46.963 157.017 46.537 157.273 46.555 157.308Z" fill="#455A64"/>
<path d="M40.4091 152.02C40.5061 152.024 40.5471 150.708 40.9401 148.64C41.3271 146.574 42.1641 143.765 43.6871 140.94C45.2221 138.12 47.1181 135.884 48.6371 134.431C50.1551 132.971 51.2341 132.218 51.1781 132.14C51.1571 132.11 50.8731 132.275 50.3741 132.603C49.8701 132.922 49.1831 133.45 48.3801 134.155C46.7721 135.558 44.7841 137.806 43.2181 140.686C41.6621 143.571 40.8651 146.463 40.5681 148.577C40.4161 149.634 40.3491 150.498 40.3571 151.095C40.3561 151.691 40.3721 152.019 40.4091 152.02Z" fill="#455A64"/>
<path d="M47.89 168.358C47.89 169.815 49.071 170.996 50.528 170.996C51.985 170.996 53.166 169.815 53.166 168.358C53.166 166.901 51.985 165.72 50.528 165.72C49.071 165.72 47.89 166.901 47.89 168.358Z" fill="#263238"/>
<path d="M72.729 166.774C72.7 166.525 71.053 166.812 69.636 165.609C68.215 164.409 68.091 162.621 67.859 162.649C67.752 162.644 67.608 163.097 67.719 163.841C67.822 164.572 68.242 165.592 69.109 166.329C69.978 167.062 70.999 167.263 71.684 167.2C72.383 167.14 72.759 166.885 72.729 166.774Z" fill="#263238"/>
<path d="M35.1461 256.456C35.1461 256.456 27.2801 284.209 31.9531 299.276C34.7561 308.315 74.0991 358.108 75.9941 360.25C77.3131 361.741 59.1721 408.779 55.8531 418.577L76.7111 428.687C76.7111 428.687 102.812 373.188 104.407 363.462C106.456 350.971 77.0941 297.538 78.1731 296.821L88.7271 274.808L79.9681 252.137C79.9681 252.137 43.0531 252.537 35.5151 253.14L35.1461 256.456Z" fill="#263238"/>
<path d="M80.7761 272.822C80.7761 272.822 131.662 290.876 137.399 293.932C143.654 297.263 148.378 308.95 143.163 318.884C137.948 328.818 92.2001 357.26 92.2001 357.26L80.7761 339.876L113.883 313.799L78.0441 305.355L66.3721 291.523L80.7761 272.822Z" fill="#263238"/>
<path d="M104.409 363.144C104.338 363.137 104.644 361.879 104.384 359.607C104.149 357.336 103.266 354.129 101.808 350.31C101.083 348.397 100.214 346.331 99.298 344.1C98.833 342.991 98.393 341.811 97.934 340.617C97.481 339.428 96.944 338.217 96.411 336.975C94.241 332.014 91.77 326.593 89.172 320.907C84.974 311.783 81.095 303.355 77.983 296.593L77.952 296.526L77.969 296.456C79.293 290.973 80.459 286.488 81.343 283.385C81.789 281.835 82.166 280.631 82.459 279.824C82.617 279.423 82.729 279.115 82.841 278.92C82.955 278.726 83.016 278.632 83.025 278.639C83.033 278.646 82.989 278.753 82.898 278.949C82.808 279.145 82.714 279.462 82.577 279.864C82.323 280.68 81.984 281.891 81.573 283.448C80.759 286.564 79.654 291.063 78.377 296.552L78.363 296.415C81.531 303.131 85.459 311.548 89.645 320.69C92.243 326.379 94.702 331.806 96.851 336.785C97.38 338.035 97.908 339.243 98.362 340.457C98.817 341.662 99.24 342.821 99.698 343.938C100.594 346.172 101.446 348.253 102.152 350.181C103.572 354.032 104.409 357.284 104.585 359.587C104.786 361.893 104.409 363.144 104.409 363.144Z" fill="#455A64"/>
<path opacity="0.3" d="M81.4981 283.272C81.3981 283.638 81.4981 296.641 81.4981 296.641L88.0271 307.707L82.8131 306.479L78.1741 296.821L81.4981 283.272Z" fill="black"/>
<path d="M110.372 281.285C108.903 279.844 104.596 275.799 101.569 272.965C100.411 271.881 101.158 269.941 102.744 269.908L137.592 269.196C138.109 269.185 138.605 269.402 138.949 269.788L146.233 277.97C147.234 279.094 146.463 280.875 144.958 280.914L111.653 281.787C111.175 281.799 110.714 281.62 110.372 281.285Z" fill="#455A64"/>
<path d="M100.508 275.022C100.508 275.022 104.558 273.225 108.607 272.822C112.657 272.419 114.682 274.124 116.851 273.922C119.02 273.72 124.95 274.299 124.95 275.89C124.95 277.481 116.706 278.059 116.706 278.059L123.937 280.373C123.937 280.373 132.181 279.361 132.326 280.373C132.471 281.385 124.95 282.398 121.479 282.832C118.008 283.266 97.904 283.555 95.012 282.832C92.119 282.109 71.582 269.671 71.582 269.671L81.417 259.547L100.508 275.022Z" fill="#FFBF9D"/>
<path d="M49.8611 184.494C49.8611 184.494 40.4021 185.939 37.1671 196.239C34.4771 204.802 39.6081 239.993 41.7891 246.346C43.9701 252.699 67.454 273.148 69.518 271.409C71.582 269.67 83.0261 259.546 83.0261 259.546L64.6531 237.832C64.6531 237.832 65.6261 212.049 64.4101 207.184C63.1941 202.32 54.9691 184.007 49.8611 184.494Z" fill="#1685FF"/>
<path d="M38.376 227.414C39.72 239.635 37.096 244.889 37.096 244.889C34.971 246.497 33.905 249.157 33.676 251.151C33.551 252.238 34.423 253.177 35.516 253.139L79.969 252.136C79.969 252.136 86.19 252.729 86.058 246.831C85.91 240.247 87.724 217.114 85.334 208.02C84.509 204.882 74.358 189.58 74.358 189.58L53.167 177.564L50.925 183.339C50.925 183.339 44.202 185.793 41.131 189.751C38.703 192.88 37.85 195.039 36.877 198.391C35.038 204.724 37.655 220.859 38.376 227.414Z" fill="#1685FF"/>
<path d="M150.143 207.016C150.143 207.016 149.755 206.668 148.407 207.103C147.059 207.538 143.227 209.419 141.489 209.867C139.751 210.315 135.983 211.766 135.983 211.766C135.983 211.766 133.885 211.524 131.221 213.366C128.556 215.208 121.037 220.175 121.037 220.175L123.62 227.488C123.62 227.488 126.525 227.001 127.351 227.246C128.177 227.491 130.636 227.642 132.68 227.028C134.724 226.414 137.491 225.308 137.491 225.308C137.491 225.308 140.186 225.529 140.893 224.551C141.6 223.573 140.84 221.807 140.84 221.807C140.84 221.807 143.485 219.381 142.348 218.017C141.212 216.653 139.798 215.143 139.798 215.143C139.798 215.143 147.643 210.985 149.125 209.883C150.605 208.782 150.897 207.898 150.143 207.016Z" fill="#FFBF9D"/>
<path d="M121.037 220.175L96.639 228.386L86.781 233.367L100.619 240.827L123.62 227.488L121.037 220.175Z" fill="#FFBF9D"/>
<path d="M135.816 214.146C135.938 214.103 136.476 217.006 135.516 220.433C135.478 220.565 135.44 220.696 135.404 220.819L135.201 220.488C136.819 220.779 138.26 221.064 139.297 221.296C140.363 221.509 140.926 221.958 140.873 222.013C140.834 222.067 140.277 221.763 139.232 221.647C138.184 221.507 136.728 221.282 135.11 220.999L134.826 220.949L134.907 220.668C134.941 220.549 134.978 220.422 135.014 220.294C135.945 216.987 135.654 214.149 135.816 214.146Z" fill="#FF9A6C"/>
<path d="M135.699 217.616C135.717 217.573 135.917 217.594 136.202 217.78C136.48 217.962 136.842 218.335 136.997 218.917L136.735 218.735C137.144 218.661 137.616 218.61 138.116 218.6C139.906 218.561 141.276 219.11 141.227 219.238C141.187 219.384 139.821 219.081 138.126 219.121C137.649 219.131 137.197 219.161 136.801 219.2L136.579 219.222L136.539 219.018C136.352 218.071 135.629 217.705 135.699 217.616Z" fill="#FF9A6C"/>
<path d="M139.374 215.744C139.458 215.869 138.801 216.425 138.21 217.271C137.608 218.11 137.302 218.913 137.156 218.876C137.021 218.854 137.119 217.903 137.785 216.97C138.444 216.033 139.308 215.624 139.374 215.744Z" fill="#FF9A6C"/>
<path d="M73.8961 184.214L76.3461 190.796C79.0131 193.325 85.6541 200.431 86.9151 205.322C88.5641 211.718 95.9981 227.796 95.9981 227.796C95.9981 227.796 112.856 220.609 114.019 221.789C115.182 222.969 121.088 236.823 119.145 239.73C117.202 242.637 99.9861 250.258 93.0221 248.546C86.0581 246.833 79.4541 236.752 79.4541 236.752L73.8961 184.214Z" fill="#1685FF"/>
<path d="M84.9651 205.387C84.9991 205.375 85.1931 205.909 85.5161 206.888C85.6881 207.375 85.8731 207.978 86.0231 208.696C86.1861 209.41 86.4031 210.218 86.5221 211.134C86.8571 212.951 87.0191 215.146 87.1021 217.581C87.1421 220.017 87.0581 222.694 86.8831 225.493C86.4991 231.09 86.1021 236.139 86.1471 239.804C86.1281 240.721 86.1831 241.547 86.2021 242.274C86.2141 243.002 86.2611 243.627 86.3051 244.137C86.3811 245.159 86.4061 245.728 86.3711 245.733C86.3361 245.738 86.2421 245.178 86.1031 244.157C86.0271 243.647 85.9511 243.022 85.9111 242.291C85.8641 241.562 85.7831 240.73 85.7791 239.81C85.6401 236.125 85.9801 231.044 86.3631 225.461C86.5381 222.668 86.6361 220.008 86.6221 217.589C86.5661 215.173 86.4441 212.995 86.1581 211.19C85.6401 207.568 84.8511 205.421 84.9651 205.387Z" fill="#263238"/>
<path d="M95.743 237.326C95.599 237.324 95.514 235.135 95.553 232.437C95.592 229.738 95.7401 227.553 95.8841 227.555C96.0281 227.557 96.113 229.746 96.074 232.445C96.035 235.142 95.887 237.328 95.743 237.326Z" fill="#263238"/>
<path d="M64.29 204.242C64.308 204.243 64.321 204.446 64.329 204.833C64.334 205.276 64.34 205.836 64.348 206.524C64.369 208.062 64.397 210.17 64.432 212.743C64.494 217.991 64.768 225.256 64.552 233.27C64.532 235.248 64.708 237.217 65.578 238.84C66.449 240.459 67.756 241.768 68.882 243.085C71.159 245.686 73.215 248.036 74.959 250.028C76.64 251.977 78.017 253.573 79.022 254.739C79.463 255.267 79.822 255.697 80.107 256.037C80.351 256.338 80.472 256.501 80.458 256.513C80.444 256.525 80.297 256.384 80.027 256.106C79.723 255.782 79.34 255.374 78.868 254.872C77.832 253.733 76.413 252.174 74.68 250.27C72.912 248.298 70.826 245.973 68.518 243.4C67.387 242.094 66.064 240.8 65.125 239.079C64.186 237.339 64.009 235.269 64.029 233.267C64.245 225.254 64.029 218.003 64.061 212.746C64.061 210.118 64.092 207.991 64.143 206.522C64.165 205.787 64.196 205.217 64.222 204.831C64.249 204.443 64.272 204.241 64.29 204.242Z" fill="#263238"/>
<path d="M49.0251 184.493C49.0471 184.552 48.0171 184.842 46.3401 185.749C44.6861 186.661 42.3591 188.269 40.3391 191.015C39.3291 192.375 38.4081 194.012 37.7691 195.898C37.4321 196.834 37.2011 197.84 37.0321 198.884C36.8861 199.928 36.8011 201.035 36.7281 202.157C36.5911 204.407 36.5861 206.778 36.7401 209.226C36.9031 211.669 37.2421 214.205 37.5011 216.804C38.0501 222.001 38.5741 226.949 39.0501 231.459C39.5151 235.964 39.8801 240.03 40.8121 243.313C41.7071 246.603 43.0901 249.043 44.2651 250.534C44.8481 251.287 45.3601 251.823 45.7171 252.177C46.0771 252.527 46.2711 252.708 46.2581 252.724C46.2521 252.731 46.1971 252.694 46.0931 252.616C45.9911 252.536 45.8351 252.422 45.6451 252.254C45.2621 251.923 44.7211 251.404 44.1061 250.661C42.8671 249.19 41.4101 246.736 40.4571 243.414C39.4681 240.099 39.0631 236.004 38.5731 231.511C38.0841 227.002 37.5471 222.055 36.9831 216.86C36.7241 214.259 36.3891 211.734 36.2301 209.258C36.0811 206.787 36.0961 204.395 36.2481 202.126C36.3291 200.989 36.4201 199.893 36.5791 198.814C36.7601 197.742 37.0071 196.712 37.3611 195.756C38.0341 193.829 38.9951 192.168 40.0441 190.795C42.1431 188.025 44.5421 186.439 46.2451 185.571C47.1041 185.137 47.8001 184.856 48.2841 184.708C48.7651 184.55 49.0201 184.476 49.0251 184.493Z" fill="#263238"/>
<path d="M74.2161 191.016C74.1951 191.045 73.8311 190.826 73.1871 190.402C72.4611 189.909 71.5551 189.293 70.4761 188.561L70.7641 188.417C70.7511 189.801 70.7361 191.422 70.7201 193.206L70.7171 193.586L70.3751 193.414C68.6531 192.548 66.7561 191.594 64.7601 190.591C60.9311 188.649 57.4781 186.865 54.9911 185.55C53.8271 184.923 52.8451 184.394 52.0571 183.969C51.3701 183.585 50.9971 183.358 51.0131 183.326C51.0291 183.294 51.4331 183.46 52.1481 183.788C52.9561 184.173 53.9621 184.652 55.1561 185.221C57.6861 186.451 61.1651 188.184 64.9951 190.126C66.9841 191.144 68.8741 192.111 70.5901 192.989L70.2441 193.196C70.3021 191.414 70.3551 189.793 70.4001 188.41L70.4121 188.056L70.6891 188.265C71.7301 189.051 72.6031 189.711 73.3041 190.24C73.9121 190.714 74.2371 190.988 74.2161 191.016Z" fill="#263238"/>
<path d="M82.0931 413.318L73.8731 430.529C73.8731 430.529 89.6531 444.993 88.4621 448.327L52.5221 432.961L64.1641 405.598L82.0931 413.318Z" fill="#263238"/>
<path d="M63.3951 424.305C62.6221 424.187 61.8221 424.721 61.6971 425.454C61.5721 426.187 62.1601 426.994 62.9321 427.124C63.7031 427.255 64.6851 426.643 64.7241 425.898C64.7631 425.153 64.0191 424.24 63.2441 424.29" fill="#E0E0E0"/>
<path d="M52.5221 432.961L53.8101 430.251L87.7871 445.997C87.7871 445.997 89.1031 447.339 88.4621 448.327L52.5221 432.961Z" fill="#455A64"/>
<path d="M74.5301 430.605C74.4531 430.768 73.5421 430.468 72.4491 430.632C71.3501 430.769 70.5941 431.297 70.4611 431.162C70.3131 431.061 71.0032 430.181 72.3322 430.005C73.6582 429.817 74.6341 430.469 74.5301 430.605Z" fill="white"/>
<path d="M77.6631 433.69C77.6331 433.868 76.7521 433.825 75.8531 434.272C74.9401 434.693 74.4611 435.387 74.2901 435.305C74.1141 435.261 74.4121 434.238 75.5411 433.703C76.6651 433.158 77.7281 433.53 77.6631 433.69Z" fill="white"/>
<path d="M77.963 438.869C77.788 438.836 77.902 437.903 78.745 437.188C79.583 436.466 80.565 436.461 80.579 436.632C80.619 436.811 79.876 437.07 79.194 437.668C78.496 438.249 78.144 438.927 77.963 438.869Z" fill="white"/>
</svg>
