<?xml version="1.0" encoding="utf-8"?>
<!-- Generator: Adobe Illustrator 27.5.0, SVG Export Plug-In . SVG Version: 6.00 Build 0)  -->
<svg version="1.1" id="Слой_1" xmlns="http://www.w3.org/2000/svg" xmlns:xlink="http://www.w3.org/1999/xlink" x="0px" y="0px"
	 viewBox="0 0 658.7 533.836" style="enable-background:new 0 0 658.7 533.836;" xml:space="preserve">
<g>
	<rect x="-0.001" y="0.001" style="fill:#F7F7F7;" width="658.7" height="533.836"/>
	<g>
		<linearGradient id="SVGID_1_" gradientUnits="userSpaceOnUse" x1="302.1063" y1="444.3633" x2="302.1063" y2="359.1149">
			<stop  offset="0" style="stop-color:#D5E4FF"/>
			<stop  offset="1" style="stop-color:#EDFFFE"/>
		</linearGradient>
		<path style="fill:url(#SVGID_1_);" d="M394.122,412.836H210.09c-3.789,0-6.86-3.072-6.86-6.86v-21.31
			c0-3.789,3.071-6.86,6.86-6.86h184.032c3.789,0,6.86,3.071,6.86,6.86v21.31C400.983,409.764,397.911,412.836,394.122,412.836z"/>
		<g>
			<path style="fill:#609A3E;" d="M460.1,314.68c-11.043-6.776-20.312-2.568-22.941-1.084c-0.483,0.271-0.742,0.454-0.742,0.454
				c0.141-0.53,0.378-1.153,0.708-1.851c4.099-8.693,22.081-28.817,38.261-26.808c17.467,2.17,12.508-14.217,29.766-21.121
				c23.445-9.38,32.584,14.854,32.584,14.854c-6.606-6.629-29.944,0.056-38.8,14.902C490.076,308.875,473.19,322.709,460.1,314.68z"
				/>
			<g>
				
					<linearGradient id="SVGID_00000081636800296348709630000014270759202700592266_" gradientUnits="userSpaceOnUse" x1="3475.1172" y1="-6721.0508" x2="3475.1172" y2="-6776.6924" gradientTransform="matrix(0.4695 0.8829 -0.8829 0.4695 -7129.7988 402.3116)">
					<stop  offset="0.0052" style="stop-color:#3C6127"/>
					<stop  offset="1" style="stop-color:#639C38"/>
				</linearGradient>
				<path style="fill:url(#SVGID_00000081636800296348709630000014270759202700592266_);" d="M466.052,299.103
					c-6.39,0.059-12.419,0.111-16.317,4.194c-3.408,3.565-8.102,7.198-12.576,10.299c-0.483,0.271-0.742,0.454-0.742,0.454
					c0.141-0.53,0.378-1.153,0.708-1.851c4.225-2.961,8.576-6.366,11.77-9.712c4.234-4.434,10.506-4.489,17.147-4.55
					c7.528-0.068,15.32-0.139,20.821-6.668c10.499-12.475,21.074-17.245,21.18-17.295l0.477,1.069
					c-0.103,0.042-10.448,4.723-20.769,16.977C481.907,298.963,473.847,299.037,466.052,299.103z"/>
			</g>
		</g>
		<g>
			<path style="fill:#609A3E;" d="M154.369,85.079c3.851,24.969,18.391,49.925,20.9,54.1c0.24,0.4,0.371,0.607,0.371,0.607
				s-0.326,0.266-0.955,0.706c-3.274,2.27-14.809,9.084-32.149,6.367c-20.676-3.239-28.159-15.18-30.842-54.8
				c-1.95-28.765-32.989-30.502-33.552-30.535C121.169,41.632,151.066,63.613,154.369,85.079z"/>
			<g>
				
					<linearGradient id="SVGID_00000079476987164012754310000016962033972626276264_" gradientUnits="userSpaceOnUse" x1="-7786.3091" y1="1859.2841" x2="-7752.6108" y2="1859.2841" gradientTransform="matrix(0.5465 -0.8374 0.8374 0.5465 2836.8037 -7410.0879)">
					<stop  offset="0.0052" style="stop-color:#3C6127"/>
					<stop  offset="1" style="stop-color:#639C38"/>
				</linearGradient>
				<path style="fill:url(#SVGID_00000079476987164012754310000016962033972626276264_);" d="M145.878,127.875
					c9.856,12.426,26.938,11.511,29.391,11.304c0.24,0.4,0.371,0.607,0.371,0.607s-0.326,0.266-0.955,0.706
					c-4.19,0.228-20.224,0.247-29.809-11.827c-5.74-7.233-8.998-18.817-11.873-29.042c-2.63-9.344-5.109-18.163-8.925-21.535
					l0.848-0.951c4.088,3.618,6.503,12.198,9.3,22.136C137.069,109.387,140.296,120.843,145.878,127.875z"/>
			</g>
		</g>
		<g>
			<path style="fill:#609A3E;" d="M135.112,128.107c9.567,3.663,17.448,8.277,17.956,13.284c0.03,0.296,0.034,0.59,0.013,0.882
				c-0.236,3.217-3.602,6.584-11.563,9.943c-21.188,8.94-32.121-0.762-45.178-7.901c-12.889-7.055-21.864,5.07-22.09,5.381
				C90.573,116.762,118.89,121.901,135.112,128.107z"/>
			<g>
				
					<linearGradient id="SVGID_00000139972816499336109050000016338447313157019805_" gradientUnits="userSpaceOnUse" x1="-11544.8242" y1="-441.4556" x2="-11544.8242" y2="-487.7491" gradientTransform="matrix(0.0718 -0.9974 0.9974 0.0718 1429.4252 -11340.8096)">
					<stop  offset="0.0052" style="stop-color:#3C6127"/>
					<stop  offset="1" style="stop-color:#639C38"/>
				</linearGradient>
				<path style="fill:url(#SVGID_00000139972816499336109050000016338447313157019805_);" d="M153.068,141.391
					c0.03,0.296,0.034,0.59,0.013,0.882c-4.564,1.085-13.649,2.806-20.273,1.231c-3.126-0.744-6.292-1.921-9.646-3.162
					c-6.337-2.354-12.895-4.783-20.005-4.605l-0.024-0.853c7.277-0.179,13.909,2.281,20.325,4.662
					c3.329,1.235,6.47,2.402,9.546,3.129C139.465,144.212,148.622,142.45,153.068,141.391z"/>
			</g>
		</g>
		<g>
			<path style="fill:#609A3E;" d="M524.527,242.067c-12.235,10.425-27.471,4.99-31.166,34.174
				c-3.193,25.193-33.653,17.872-41.927,15.4c-1.311-0.393-2.064-0.663-2.064-0.663s0.348-0.101,0.938-0.3
				c3.83-1.313,17.932-6.98,15.059-18.566c-3.321-13.377-2.6-34.738,13.028-38.657c15.625-3.915,12.486-15.564,17.704-28.919
				c5.218-13.355,28.694-8.696,28.694-8.696S536.76,231.646,524.527,242.067z"/>
			<g>
				
					<linearGradient id="SVGID_00000067941453777617799360000006289344711312145319_" gradientUnits="userSpaceOnUse" x1="3245.2163" y1="-3108.7974" x2="3245.2163" y2="-3186.8394" gradientTransform="matrix(0.9069 0.4213 -0.4213 0.9069 -3792.4231 1749.8242)">
					<stop  offset="0.0052" style="stop-color:#3C6127"/>
					<stop  offset="1" style="stop-color:#639C38"/>
				</linearGradient>
				<path style="fill:url(#SVGID_00000067941453777617799360000006289344711312145319_);" d="M479.748,264.021
					c0.128,6.041,0.26,12.285-4.26,18.479c-6.168,8.446-17.047,9.482-24.054,9.142c-1.311-0.393-2.064-0.663-2.064-0.663
					s0.348-0.101,0.938-0.3c6.715,0.501,18.176-0.096,24.458-8.706c4.341-5.947,4.214-12.041,4.09-17.932
					c-0.145-6.813-0.295-13.854,6.528-20.443c3.014-2.91,6.271-4.528,9.419-6.093c4.537-2.251,8.823-4.377,11.419-10.178
					l0.817,0.365c-2.728,6.095-7.154,8.288-11.836,10.616c-3.089,1.533-6.284,3.116-9.196,5.934
					C479.465,250.556,479.601,257.099,479.748,264.021z"/>
			</g>
		</g>
		
			<linearGradient id="SVGID_00000173851147631789391590000007277937958384914349_" gradientUnits="userSpaceOnUse" x1="425.0762" y1="475.7401" x2="208.1619" y2="61.32">
			<stop  offset="0" style="stop-color:#D5E4FF"/>
			<stop  offset="1" style="stop-color:#EDFFFE"/>
		</linearGradient>
		<path style="fill:url(#SVGID_00000173851147631789391590000007277937958384914349_);" d="M462.622,398.191H141.59
			c-7.76,0-14.05-6.29-14.05-14.05V97.463c0-7.76,6.29-14.05,14.05-14.05h321.032c7.76,0,14.05,6.29,14.05,14.05v286.678
			C476.672,391.901,470.382,398.191,462.622,398.191z"/>
		<g>
			<g>
				<rect x="144.916" y="121.909" style="fill:#E0E0E0;" width="0.907" height="95.185"/>
			</g>
			<g>
				<rect x="209.423" y="121.909" style="fill:#E0E0E0;" width="0.907" height="95.185"/>
			</g>
			<g>
				<rect x="273.932" y="121.909" style="fill:#E0E0E0;" width="0.907" height="95.185"/>
			</g>
			<g>
				<rect x="338.44" y="121.909" style="fill:#E0E0E0;" width="0.907" height="95.185"/>
			</g>
			<g>
				<rect x="402.948" y="121.909" style="fill:#E0E0E0;" width="0.907" height="95.185"/>
			</g>
			<rect x="145.369" y="222.733" style="fill:#B8B8B8;" width="10.263" height="3.308"/>
			<rect x="145.369" y="110.18" style="fill:#D9D9D9;" width="15.451" height="2.481"/>
			<rect x="145.369" y="114.767" style="fill:#D9D9D9;" width="21.917" height="2.481"/>
			<rect x="209.182" y="110.18" style="fill:#D9D9D9;" width="18.14" height="2.481"/>
			<rect x="209.182" y="114.767" style="fill:#D9D9D9;" width="11.599" height="2.481"/>
			<rect x="274.839" y="110.18" style="fill:#D9D9D9;" width="11.241" height="2.481"/>
			<rect x="274.839" y="114.767" style="fill:#D9D9D9;" width="13.102" height="2.481"/>
			<rect x="339.348" y="110.18" style="fill:#D9D9D9;" width="16.373" height="2.481"/>
			<rect x="339.348" y="114.767" style="fill:#D9D9D9;" width="13.102" height="2.481"/>
			<rect x="403.401" y="110.18" style="fill:#D9D9D9;" width="9.78" height="2.481"/>
			<rect x="403.401" y="114.767" style="fill:#D9D9D9;" width="7.826" height="2.481"/>
			<rect x="209.877" y="222.733" style="fill:#B8B8B8;" width="10.263" height="3.308"/>
			<rect x="274.839" y="222.733" style="fill:#B8B8B8;" width="10.263" height="3.308"/>
			<rect x="339.348" y="222.733" style="fill:#B8B8B8;" width="10.263" height="3.308"/>
			<rect x="403.855" y="222.733" style="fill:#B8B8B8;" width="10.263" height="3.308"/>
			<g>
				
					<linearGradient id="SVGID_00000098912970729878280000000012031025105660479144_" gradientUnits="userSpaceOnUse" x1="145.3692" y1="167.7001" x2="403.4014" y2="167.7001">
					<stop  offset="0" style="stop-color:#FFC05C"/>
					<stop  offset="1" style="stop-color:#FF3857"/>
				</linearGradient>
				<path style="fill:url(#SVGID_00000098912970729878280000000012031025105660479144_);" d="M381.047,188.813
					c-20.121,0.002-37.611-8.698-55.845-17.765c-22.511-11.194-45.788-22.769-76.801-19.6
					c-19.803,2.024-32.234,10.089-43.201,17.205c-9.93,6.443-19.318,12.108-32.033,12.592c-20.549,0.782-27.678-7.982-27.797-8.517
					v-5.624l0,0l0,0c0.025,0.097,4.512,9.934,27.775,9.817c11.456-0.058,19.912-5.544,29.702-11.896
					c11.378-7.382,24.273-15.748,45.115-17.878c32.257-3.297,56.104,8.561,79.166,20.029c24.131,11.999,47.158,23.253,76.274,13.49
					v4.624C395.102,188.073,388.464,188.813,381.047,188.813z"/>
			</g>
			<g>
				
					<linearGradient id="SVGID_00000142170019596857660340000001979105080348112041_" gradientUnits="userSpaceOnUse" x1="145.3692" y1="160.7177" x2="403.5381" y2="160.7177">
					<stop  offset="0" style="stop-color:#9A5CFF"/>
					<stop  offset="0.9948" style="stop-color:#4059BF"/>
				</linearGradient>
				<path style="fill:url(#SVGID_00000142170019596857660340000001979105080348112041_);" d="M260.273,187.735
					c-14.852,0.001-26.63-9.988-38.163-19.765c-8.744-7.414-17.816-14.993-28.287-18.732c-31.959-11.41-48.309,9.425-48.455,9.608
					v-6.338c0.172-0.217,3.089-4.004,11.526-7.62c7.682-3.292,20.571-5.918,38.349,0.265c11.263,3.918,20.617,11.848,29.663,19.518
					c18.35,15.558,34.198,28.994,61.72,7.948c20.845-15.94,40.496-31.13,59.831-36.68c18.91-5.428,38.625-1.454,57.08,17.001
					l-0.137,5.755c-39.2-39.373-72.579-14.428-114.147,17.359C278.243,184.475,268.756,187.734,260.273,187.735z"/>
			</g>
		</g>
		<g>
			<g>
				<g>
					<path style="fill:#FFFFFF;" d="M202.778,270.319c-4.391-12.278-16.126-19.82-28.494-19.448c-2.994,0.09-6.025,0.644-9,1.708
						c-9.008,3.223-15.469,10.398-18.122,18.875c-1.839,5.875-1.851,12.375,0.382,18.619c0.222,0.621,0.463,1.231,0.722,1.829
						c1.175,2.703,2.716,5.15,4.547,7.301c7.675,9.022,20.411,12.836,32.225,8.611C200.291,302.358,208.232,285.572,202.778,270.319
						z M182.566,300.902c-8.858,3.168-18.406,0.309-24.161-6.456c-1.372-1.612-2.528-3.446-3.408-5.475
						c-0.194-0.447-0.376-0.905-0.543-1.371c-1.674-4.681-1.664-9.555-0.286-13.959c1.99-6.356,6.832-11.736,13.587-14.151
						c2.229-0.797,4.502-1.212,6.747-1.281c9.271-0.28,18.071,5.375,21.364,14.582C199.957,284.227,194.001,296.812,182.566,300.902
						z"/>
				</g>
			</g>
			<g>
				<g>
					<path style="fill:#FF4F58;" d="M154.169,273.642l-7.007-2.188c2.654-8.478,9.114-15.653,18.122-18.875
						c2.975-1.063,6.006-1.617,9-1.708l0.219,7.338c-2.245,0.068-4.518,0.483-6.747,1.281
						C161.001,261.905,156.159,267.286,154.169,273.642z"/>
				</g>
			</g>
			<g>
				<g>
					<path style="fill:#FF6F59;" d="M154.998,288.972l-6.731,2.931c-0.259-0.598-0.501-1.208-0.722-1.829
						c-2.233-6.244-2.222-12.744-0.382-18.619l7.007,2.188c-1.378,4.404-1.388,9.278,0.286,13.959
						C154.622,288.066,154.803,288.525,154.998,288.972z"/>
				</g>
			</g>
			<g>
				<g>
					<path style="fill:#FFAD5B;" d="M152.813,299.203c-1.831-2.15-3.372-4.598-4.547-7.301l6.731-2.931
						c0.879,2.028,2.036,3.862,3.408,5.475L152.813,299.203z"/>
				</g>
			</g>
		</g>
		<g>
			<g>
				<g>
					<path style="fill:#FFFFFF;" d="M283.461,290.994c4.801-12.124,0.958-25.534-8.582-33.414c-2.31-1.908-4.953-3.492-7.89-4.655
						c-8.896-3.522-18.484-2.392-26.072,2.228c-5.258,3.202-9.556,8.079-11.997,14.245c-0.243,0.613-0.464,1.231-0.664,1.851
						c-0.901,2.808-1.357,5.662-1.4,8.485c-0.186,11.845,6.87,23.113,18.536,27.733
						C260.454,313.431,277.498,306.055,283.461,290.994z M248.096,300.642c-8.747-3.463-14.036-11.911-13.897-20.791
						c0.033-2.116,0.374-4.258,1.051-6.362c0.149-0.465,0.315-0.928,0.497-1.389c1.83-4.622,5.053-8.278,8.994-10.678
						c5.689-3.465,12.878-4.313,19.547-1.671c2.202,0.872,4.184,2.059,5.916,3.489c7.152,5.906,10.034,15.961,6.435,25.052
						C272.166,299.583,259.388,305.112,248.096,300.642z"/>
				</g>
			</g>
			<g>
				<g>
					<path style="fill:#4B59C7;" d="M244.74,261.422l-3.822-6.268c7.587-4.62,17.176-5.75,26.072-2.228
						c2.937,1.163,5.58,2.747,7.89,4.655l-4.677,5.659c-1.732-1.43-3.714-2.617-5.916-3.489
						C257.618,257.109,250.429,257.957,244.74,261.422z"/>
				</g>
			</g>
			<g>
				<g>
					<path style="fill:#6F5BE0;" d="M235.249,273.488l-6.991-2.239c0.199-0.619,0.421-1.237,0.664-1.851
						c2.441-6.165,6.738-11.043,11.997-14.245l3.822,6.268c-3.941,2.4-7.164,6.056-8.994,10.678
						C235.564,272.561,235.398,273.023,235.249,273.488z"/>
				</g>
			</g>
			<g>
				<g>
					<path style="fill:#B487FE;" d="M226.857,279.734c0.043-2.823,0.499-5.678,1.4-8.485l6.991,2.239
						c-0.677,2.105-1.018,4.246-1.051,6.362L226.857,279.734z"/>
				</g>
			</g>
		</g>
		<g>
			<g>
				<g>
					<path style="fill:#FFFFFF;" d="M341.704,251.211c-12.886-1.993-25.11,4.727-30.679,15.776
						c-1.348,2.675-2.307,5.604-2.789,8.725c-1.462,9.455,1.766,18.555,7.953,24.93c4.288,4.417,9.996,7.526,16.549,8.54
						c0.651,0.102,1.304,0.181,1.952,0.237c2.936,0.257,5.822,0.068,8.585-0.516c11.591-2.445,21.015-11.823,22.934-24.223
						C368.683,268.672,357.713,253.688,341.704,251.211z M358.953,283.559c-1.438,9.297-8.504,16.326-17.193,18.161
						c-2.071,0.436-4.235,0.579-6.436,0.385c-0.486-0.042-0.976-0.101-1.464-0.177c-4.914-0.76-9.193-3.091-12.407-6.403
						c-4.639-4.779-7.06-11.601-5.963-18.69c0.362-2.34,1.081-4.535,2.091-6.542c4.174-8.283,13.34-13.323,23.002-11.828
						C352.584,260.322,360.809,271.557,358.953,283.559z"/>
				</g>
			</g>
			<g>
				<g>
					<path style="fill:#1A598C;" d="M321.452,295.525l-5.264,5.117c-6.187-6.375-9.415-15.475-7.953-24.93
						c0.483-3.121,1.441-6.05,2.789-8.725l6.555,3.306c-1.01,2.007-1.729,4.202-2.091,6.542
						C314.392,283.924,316.813,290.745,321.452,295.525z"/>
				</g>
			</g>
			<g>
				<g>
					<path style="fill:#2273B5;" d="M335.323,302.104l-0.634,7.315c-0.648-0.057-1.301-0.136-1.952-0.237
						c-6.553-1.014-12.262-4.123-16.549-8.54l5.264-5.117c3.214,3.313,7.494,5.643,12.407,6.403
						C334.348,302.004,334.837,302.063,335.323,302.104z"/>
				</g>
			</g>
			<g>
				<g>
					<path style="fill:#3788CC;" d="M343.275,308.903c-2.763,0.584-5.648,0.772-8.585,0.516l0.634-7.315
						c2.201,0.194,4.365,0.052,6.436-0.385L343.275,308.903z"/>
				</g>
			</g>
		</g>
		<rect x="145.823" y="323.47" style="fill:#BDC1C9;" width="58.676" height="4.524"/>
		<rect x="145.823" y="333.087" style="fill:#BDC1C9;" width="43.909" height="4.524"/>
		<rect x="226.854" y="323.47" style="fill:#BDC1C9;" width="32.354" height="4.524"/>
		<rect x="226.854" y="333.087" style="fill:#BDC1C9;" width="48.026" height="4.524"/>
		<rect x="313.208" y="323.47" style="fill:#BDC1C9;" width="35.959" height="4.524"/>
		<rect x="313.208" y="333.087" style="fill:#BDC1C9;" width="41.651" height="4.524"/>
		<path style="opacity:0.73;fill:#FFFFFF;" d="M486.161,379.268h-75.192c-5.516,0-9.986-4.471-9.986-9.985V112.323
			c0-5.515,4.471-9.986,9.986-9.986h75.192c5.515,0,9.985,4.471,9.985,9.986v256.959
			C496.147,374.797,491.676,379.268,486.161,379.268z"/>
		<rect x="145.823" y="354.704" style="fill:#FFFFFF;" width="186.706" height="4.379"/>
		<rect x="145.823" y="364.922" style="fill:#FFFFFF;" width="201.739" height="4.378"/>
		<rect x="145.823" y="375.139" style="fill:#FFFFFF;" width="130.9" height="4.379"/>
		<g>
			<path style="fill:#F5F5F5;" d="M474.682,148.025c0,10.576-6.285,19.682-15.324,23.789c-3.288,1.496-6.944,2.328-10.793,2.328
				c-3.849,0-7.505-0.831-10.794-2.328c-9.038-4.107-15.322-13.213-15.322-23.789c0-14.424,11.691-26.116,26.116-26.116
				C462.989,121.909,474.682,133.601,474.682,148.025z"/>
			<path style="fill:#FFB95C;" d="M454.571,141.079c0,3.289-2.666,5.955-5.955,5.955c-3.288,0-5.954-2.666-5.954-5.955
				c0-3.289,2.666-5.955,5.954-5.955C451.905,135.124,454.571,137.79,454.571,141.079z"/>
			<path style="fill:#FFB95C;" d="M459.358,160.49v11.324c-3.288,1.496-6.944,2.328-10.793,2.328c-3.849,0-7.505-0.831-10.794-2.328
				V160.49c0-5.958,4.831-10.794,10.794-10.794C454.527,149.697,459.358,154.532,459.358,160.49z"/>
		</g>
		<rect x="426.528" y="184.809" style="fill:#D6D6D6;" width="44.072" height="2.841"/>
		<rect x="431.44" y="179.75" style="fill:#D6D6D6;" width="34.251" height="2.841"/>
		<rect x="437.033" y="268.097" style="fill:#D6D6D6;" width="23.063" height="2.841"/>
		<rect x="431.44" y="263.037" style="fill:#D6D6D6;" width="34.251" height="2.841"/>
		<rect x="432.704" y="351.863" style="fill:#D6D6D6;" width="31.721" height="2.841"/>
		<rect x="428.325" y="346.804" style="fill:#D6D6D6;" width="40.479" height="2.841"/>
		<g>
			<path style="fill:#F5F5F5;" d="M474.682,230.983c0,10.576-6.285,19.682-15.324,23.789c-3.288,1.496-6.944,2.328-10.793,2.328
				c-3.849,0-7.505-0.832-10.794-2.328c-9.038-4.107-15.322-13.213-15.322-23.789c0-14.424,11.691-26.116,26.116-26.116
				C462.989,204.867,474.682,216.559,474.682,230.983z"/>
			<path style="fill:#FF6F59;" d="M454.571,224.037c0,3.289-2.666,5.955-5.955,5.955c-3.288,0-5.954-2.666-5.954-5.955
				c0-3.289,2.666-5.955,5.954-5.955C451.905,218.082,454.571,220.748,454.571,224.037z"/>
			<path style="fill:#FF6F59;" d="M459.358,243.448v11.324c-3.288,1.496-6.944,2.328-10.793,2.328
				c-3.849,0-7.505-0.832-10.794-2.328v-11.324c0-5.958,4.831-10.793,10.794-10.793C454.527,232.655,459.358,237.49,459.358,243.448
				z"/>
		</g>
		<g>
			<path style="fill:#F5F5F5;" d="M474.682,313.941c0,10.576-6.285,19.682-15.324,23.789c-3.288,1.496-6.944,2.327-10.793,2.327
				c-3.849,0-7.505-0.831-10.794-2.327c-9.038-4.107-15.322-13.213-15.322-23.789c0-14.425,11.691-26.116,26.116-26.116
				C462.989,287.825,474.682,299.517,474.682,313.941z"/>
			<path style="fill:#3788CC;" d="M454.571,306.995c0,3.288-2.666,5.954-5.955,5.954c-3.288,0-5.954-2.666-5.954-5.954
				c0-3.289,2.666-5.955,5.954-5.955C451.905,301.04,454.571,303.706,454.571,306.995z"/>
			<path style="fill:#3788CC;" d="M459.358,326.407v11.323c-3.288,1.496-6.944,2.327-10.793,2.327
				c-3.849,0-7.505-0.831-10.794-2.327v-11.323c0-5.96,4.831-10.794,10.794-10.794C454.527,315.613,459.358,320.447,459.358,326.407
				z"/>
		</g>
		<path style="fill:#FFFFFF;" d="M456.545,390.746h-15.858c-1.96,0-3.549-1.589-3.549-3.55V371.34c0-1.961,1.589-3.55,3.549-3.55
			h15.858c1.961,0,3.551,1.589,3.551,3.55v15.856C460.096,389.157,458.506,390.746,456.545,390.746z"/>
		<g>
			<polygon style="fill:#D6D6D6;" points="448.666,384.261 442.414,378.008 444.065,376.356 448.666,380.958 453.168,376.455 
				454.819,378.107 			"/>
		</g>
		<path style="fill:#FFFFFF;" d="M440.688,90.858h15.858c1.961,0,3.551,1.589,3.551,3.55v15.857c0,1.96-1.59,3.55-3.551,3.55
			h-15.858c-1.96,0-3.549-1.589-3.549-3.55V94.408C437.139,92.448,438.728,90.858,440.688,90.858z"/>
		<g>
			<polygon style="fill:#D6D6D6;" points="453.168,105.249 448.567,100.647 444.065,105.149 442.414,103.498 448.567,97.345 
				454.819,103.597 			"/>
		</g>
		<path style="opacity:0.1;fill:#B8B8B8;" d="M524.754,312.949c0,16.484,13.362,29.847,29.847,29.847
			c16.483,0,29.848-13.362,29.848-29.847c0-16.483-13.364-29.847-29.848-29.847C538.116,283.103,524.754,296.466,524.754,312.949z"
			/>
		<g>
			
				<ellipse transform="matrix(0.3182 -0.948 0.948 0.3182 -82.4542 539.7554)" style="opacity:0.17;fill:#B8B8B8;" cx="334.027" cy="327.202" rx="74.41" ry="74.41"/>
			<g>
				
					<rect x="422.534" y="346.874" transform="matrix(0.9858 0.1679 -0.1679 0.9858 67.2041 -77.555)" style="fill:#3F65A1;" width="139.632" height="23.738"/>
				<path style="fill:#5C544D;" d="M525.816,464.638c0,0,0.592,4.339,0.666,4.99c0.074,0.652,6.584-0.384,6.584-0.384l0.527-5.165
					C533.594,464.079,526.631,464.025,525.816,464.638z"/>
				<path style="fill:#3C4145;" d="M526.413,469.076c0,0-2.063,2.614-4.057,3.754c-1.995,1.141-5.131,1.592-6.311,2.771
					c-0.851,0.851-3.101,4.518,5.185,4.443c8.285-0.074,12.279,0.518,13.167-0.888c0.888-1.406-1.284-10.374-1.284-10.374
					S531.15,469.528,526.413,469.076z"/>
				<path style="fill:#5C544D;" d="M479.174,464.638c0,0,0.592,4.339,0.666,4.99c0.074,0.652,6.584-0.384,6.584-0.384l0.526-5.165
					C486.95,464.079,479.987,464.025,479.174,464.638z"/>
				<path style="fill:#3C4145;" d="M479.771,469.076c0,0-2.063,2.614-4.058,3.754c-1.995,1.141-9.336,2.076-10.516,3.256
					c-0.852,0.852-2.268,4.279,9.39,3.959c8.283-0.228,12.28,0.518,13.168-0.888c0.888-1.406-1.284-10.374-1.284-10.374
					S484.621,469.579,479.771,469.076z"/>
				<path style="fill:#33373B;" d="M523.504,352.623c0,0,3.466,10.767,3.009,20.045c-0.456,9.278,1.791,19.432,2.711,29.124
					c1.024,10.806,5.216,36.386,5.368,42.166c0.152,5.779-0.65,24.236-0.65,24.236l-8.392,0.203c0,0-7.048-44.722-8.874-49.285
					c-1.825-4.563-10.877-37.094-11.181-40.745C505.19,374.717,523.504,352.623,523.504,352.623z"/>
				<path style="fill:#3C4145;" d="M488.227,354.539c0,0-4.609,25.431-5.218,31.109c-0.608,5.679-1.014,27.481-1.318,31.03
					c-0.304,3.55-2.028,46.445-3.65,51.719h9.356c0,0,9.606-31.185,9.606-45.939s6.362-32.075,10.47-41.81
					c4.106-9.734,13.507-9.965,16.031-28.026C523.504,352.623,491.646,348.811,488.227,354.539z"/>
				<path style="fill:#EEA886;" d="M505.048,269.738c0,0-8.586-1.757-11.357,5.003c-2.771,6.762-0.474,19.065,3.854,19.944
					c4.326,0.879,10.344-0.879,11.831-5.07s2.502-10.074,1.825-13.792C510.525,272.104,507.347,270.482,505.048,269.738z"/>
				<path style="fill:#EEA886;" d="M457.935,361.077c0,0-2.594,2.785-3.455,3.089c-0.862,0.305-2.602-1.115-8.817-1.332
					c-0.546-0.018-1.483,0.508-1.229,1.219c0.254,0.709,2.475,3.596,3.642,3.85c1.166,0.253,7.248,1.165,9.86,0
					c2.612-1.166,4.286-4.614,4.286-4.614L457.935,361.077z"/>
				
					<rect x="416.118" y="337.389" transform="matrix(0.9858 0.168 -0.168 0.9858 64.1542 -65.6042)" style="fill:#446291;" width="7.459" height="18.019"/>
				<path style="fill:#3F444F;" d="M333.448,240.802c-47.717,0-86.4,38.682-86.4,86.4s38.683,86.4,86.4,86.4
					c47.718,0,86.399-38.683,86.399-86.4S381.166,240.802,333.448,240.802z M333.448,399.415c-27.64,0-51.652-15.529-63.789-38.338
					c0,0,0-0.001-0.001-0.001c-5.375-10.103-8.422-21.632-8.422-33.875c0-39.88,32.33-72.211,72.212-72.211
					c18.716,0,35.768,7.12,48.597,18.799c14.509,13.209,23.615,32.248,23.615,53.412C405.66,367.083,373.33,399.415,333.448,399.415
					z"/>
				<path style="fill:#EEA886;" d="M498.469,294.83c0,0,0.681,2.137,0.292,3.303c-0.389,1.167,10.682-0.541,10.682-0.541
					s-0.022-6.008,0.904-11.233C511.272,281.134,498.469,294.83,498.469,294.83z"/>
				<path style="fill:#3A3F47;" d="M510.347,286.358c0,0-0.566,1.38-3.761,1.38c-3.194,0-7.648-3.551-9.021-3.802
					c-1.374-0.252-1.506-1.015-1.506-1.015l-0.628,1.318l-1.369,0.305c0,0,0.679-3.908-1.461-5.124
					c-2.14-1.214,0.092-12.319,10.639-10.392c0,0,8.011,0.912,8.417,5.324C512.062,278.764,511.724,283.915,510.347,286.358z"/>
				<path style="fill:#FAB46C;" d="M498.761,298.133c0,0-5.833,1.567-11.602,5.801c0,0-7.06,3.291-7.811,10.948
					c-0.399,4.064-3.979,19.556-4.791,21.381c-0.811,1.825-17.476,24.812-17.814,25.42s4.293,3.819,4.834,3.549
					c0.541-0.27,19.132-20.315,20.011-22.276c0,0,5.737-11.611,5.872-13.977c0,0,0.145,6.744,0.416,8.638
					c0.27,1.893-2.469,26.15-2.333,27.164c0.135,1.014,18.514,4.648,27.1,3.702c8.586-0.947,14.731-4.18,14.731-4.18
					s-4.006-16.478-3.465-19.656c0.54-3.177,1.555-21.363,1.555-21.363l5.882,8.586l-9.397,14.13l2.231,9.193
					c0,0,16.293-20.889,16.833-23.188c0.541-2.299-0.338-4.53-1.217-6.423c-0.878-1.894-5.881-10.749-7.233-12.777
					c-1.352-2.028-5.139-8.316-10.952-10.276c-5.815-1.961-12.169-4.936-12.169-4.936L498.761,298.133z"/>
				<path style="fill:#D4985B;" d="M497.815,298.541c0,0,0.035-2.087,0.98-2.287c0.946-0.2,10.438-1.112,11.6-0.655v2.43
					C510.395,298.028,508.158,299.404,497.815,298.541z"/>
				<path style="fill:#EEA886;" d="M496.017,281.301c0.061-0.76,1.595-3.145,2.659-1.016c1.065,2.13-0.253,5.426-1.293,5.324
					C496.344,285.508,495.865,283.229,496.017,281.301z"/>
				<path style="opacity:0.3;fill:#C2C2C2;" d="M382.045,273.789c0,0-93.712-11.615-112.386,87.288c0,0,0-0.001-0.001-0.001
					c-5.375-10.103-8.422-21.632-8.422-33.875c0-39.88,32.33-72.211,72.212-72.211C352.164,254.99,369.217,262.11,382.045,273.789z"
					/>
				<path style="fill:#DA9B5E;" d="M524.943,353.181c0,0-1.672-7.915-0.8-10.481l1.413-2.125
					C525.557,340.574,524.734,345.069,524.943,353.181z"/>
			</g>
		</g>
		<g>
			<g>
				<g>
					<g>
						<path style="fill:#EEA886;" d="M99.499,369.596c0,0,0.42,2.284,1.702,2.621c1.09,0.287,2.291,1.445,2.662,1.8
							c0.495,0.477,2.561,1.37,1.967,2.001c-0.594,0.631-3.476-1.309-4.161-1.596c-0.686-0.286,0.296,2.888,0.019,3.609
							c-0.277,0.722-5.626,2.05-6.048-0.206c-0.422-2.257,0.617-4.945,0.464-5.327c-0.153-0.382-0.372-1.63-0.372-1.63
							L99.499,369.596z"/>
					</g>
				</g>
			</g>
			<g>
				<g>
					<g>
						<path style="fill:#EEA886;" d="M101.713,377.48c0,0,0.833,6.994,0.498,7.507c-0.335,0.513-0.716,0.534-0.821-0.116
							c-0.105-0.65-1-6.733-1-6.733s-0.405,8.442-0.588,8.923c-0.107,0.281-0.843,0.368-0.931,0.025
							c-0.088-0.344-0.165-8.733-0.165-8.733s-0.393,7.882-0.664,8.237c-0.238,0.312-0.934,0.223-0.945-0.364
							c-0.011-0.586-0.06-7.922-0.06-7.922s-0.646,5.718-1.054,5.884c-0.25,0.101-0.882,0.207-0.669-1.264
							c0.213-1.471,0.351-4.992,0.351-4.992L101.713,377.48z"/>
					</g>
				</g>
			</g>
			<path style="fill:#EEA886;" d="M137.24,479.786h1.581c0,0-0.527-5.971,0.937-6.028c1.462-0.06,5.09,4.856,7.257,5.618
				c2.165,0.761,13.284,1.403,13.343-0.645c0.059-2.047-4.271-2.868-5.618-3.452c-1.346-0.586-7.901-6.965-9.071-7.726
				c-1.171-0.762-3.169-6.051-3.169-6.051l-6.208-0.276c0,0-0.351,4.945-0.727,7.563c-0.14,0.969-0.241,1.851-0.256,2.452
				C135.251,473.465,137.24,479.786,137.24,479.786z"/>
			<path style="fill:#EEA886;" d="M109.776,478.604h1.317v-5.557c1.097,0.093,4.785,3.582,5.927,4.593
				c1.14,1.009,2.705,0.964,7.513,1.271c4.806,0.306,5.26-2.572,4.499-3.552c-0.76-0.979-3.219-1.408-4.499-2.02
				c-1.279-0.612-6.328-6.306-7.675-7.652c-1.345-1.347-2.166-5.204-2.166-5.204l-5.618,0.49c0,0,0.036,3.529-0.604,6.488v0.002
				c-0.003,0.007-0.004,0.016-0.005,0.022c-0.054,0.252-0.114,0.5-0.18,0.74C107.45,471.304,109.776,478.604,109.776,478.604z"/>
			<path style="fill:#EEA886;" d="M122.688,293.495c0,0-2.743,5.786-1.278,10.517c0,0-8.437-1.15-8.688-2.137
				c-0.251-0.987,1.057-9.857,0.082-12.578C111.828,286.576,122.688,293.495,122.688,293.495z"/>
			<path style="fill:#EB4747;" d="M123.119,301.486c0,0,4.883,2.096,7.111,2.742c2.229,0.645,6.806,3.171,5.825,11.362
				c-0.981,8.191-2.91,15.216-3.679,18.71c-0.77,3.495-1.1,12.507-0.581,16.934c0,0-12.221,2.084-26.134-1.893
				c0,0,3.044-7.268,3.12-9.198c0.075-1.932-7.059-18.391-7.263-20.923c-0.204-2.532-1.073-13.697,2.892-15.863
				c3.965-2.166,7.024-1.621,8.708-2.596C114.803,299.785,120.833,300.533,123.119,301.486z"/>
			<path style="fill:#EB4747;" d="M93.126,344.625c-0.286,3.465,1.6,27.387,1.6,27.387l6.783,0.781c0,0-0.482-23.626-0.862-29.076
				c-0.112-1.607,0.26-4.066,0.838-6.733v-0.002c0.367-1.694,0.819-3.473,1.285-5.17c1.283-4.687,2.666-8.758,2.666-8.758
				s7.595-19.757-1.934-18.958c0,0-3.541,3.651-5.04,9.643c-1.499,5.991-3.214,14.968-3.28,18.545
				C95.116,335.861,93.336,342.076,93.126,344.625z"/>
			<path style="fill:#323657;" d="M130.55,352.661c0,0,2.124,5.021,2.311,6.289c0.188,1.269,6.844,17.842,7.308,22.692
				c0.468,4.903,1.874,17.988,2.373,19.861c0.5,1.875-1.124,10.244-1.374,12.117c-0.25,1.874-0.125,32.479,2.124,47.595
				c0,0-5.247,2.249-9.244,0c0,0-6.621-23.61-6.246-37.226c0.375-13.616,2.102-19.362-0.011-24.859
				c-2.113-5.496-14.479-21.985-15.729-23.734c-1.249-1.749-9.075-11.413-1.664-21.884
				C117.809,343.042,130.55,352.661,130.55,352.661z"/>
			<path style="fill:#323657;" d="M103.798,397.135c0.678,4.508-0.035,10.429-1.451,26.911c-1.418,16.48,2.478,36.437,2.478,36.437
				c4.892,1.676,10.526,0,10.526,0c-0.129-1.158,0-40.171,0-43.648c0-3.476,0.998-7.422,1.255-11.412
				c0.176-2.719,1.441-7.733,2.864-12.852c0.427-1.533,0.867-3.074,1.296-4.567c0-0.002,0-0.002,0-0.002
				c0.242-0.836,0.477-1.659,0.707-2.455c2.004-6.952,4.701-33.801,4.701-33.801s-14.943-12.036-22.218-0.704
				c-7.275,11.329-3.54,19.57-3.283,20.986C100.93,373.444,103.12,392.629,103.798,397.135z"/>
			<path style="fill:#EB4747;" d="M132.755,330.788c0,0-1.328,21.332,2.644,33.336c0,0-15.779,2.631-35.911-4.152
				c0,0,5.537-14.339,5.346-16.58c-0.191-2.241-6.018-28.352-3.221-34.192C104.41,303.357,131.762,311.648,132.755,330.788z"/>
			<path style="fill:#EEA886;" d="M113.622,269.936c3.316-1.427,12.418-3.418,15.782,10.16c3.364,13.577-1.746,14.248-7.043,14.302
				c-5.297,0.054-14.219-8.548-15.057-11.321C106.466,280.304,104.159,274.007,113.622,269.936z"/>
			<path style="fill:#FCCCA2;" d="M128.653,277.514c0,0-3.488,5.058-7.421,6.656c0,0-2.604,5.855-7.908,7.772
				c0,0-12.604-10.02-3.624-19.247C118.68,263.467,128.327,273.254,128.653,277.514z"/>
			<path style="fill:#262942;" d="M109.994,372.921c0.116,0.258,7.561,16.783,9.477,19.649c0.427-1.533,0.867-3.074,1.296-4.567
				c0-0.002,0-0.002,0-0.002S110.243,373.284,109.994,372.921z"/>
			<path style="fill:#B53737;" d="M101.152,320.041c0,0-0.526,10.501,0.333,16.94c0.367-1.694,0.819-3.473,1.285-5.17
				C102.733,331.57,101.29,321.699,101.152,320.041z"/>
			<path style="fill:#FCCCA2;" d="M116.038,268.966c0,0-14.344,0.132-8.534,20.99c3.748,13.457-3.507,26.21-2.648,28.627
				c0.858,2.416,8.353,4.916,12.442,0.043c4.159-4.955-3.07-21.023,0.47-28.418c3.541-7.394,11.262-12.374,11.262-12.374
				S126.478,267.203,116.038,268.966z"/>
			<path style="fill:#EB4747;" d="M134.027,311.885c0,0,3.227,11.523,3.909,13.94c0.886,3.144-3.586,7.771-7.227,5.954
				C127.067,329.963,134.027,311.885,134.027,311.885z"/>
			<path style="fill:#3F446E;" d="M109.776,478.604h1.317v-5.557c1.097,0.093,4.785,3.582,5.927,4.593
				c1.14,1.009,2.705,0.964,7.513,1.271c4.806,0.306,5.26-2.572,4.499-3.552c-0.76-0.979-3.219-1.408-4.499-2.02
				c-5.142,0.275-11.417-6.954-14.429-6.939c-1.6,0.008-1.585,0.895-1.634,1.062v0.002c-0.003,0.007-0.004,0.016-0.005,0.022
				c-0.054,0.252-0.114,0.5-0.18,0.74C107.45,471.304,109.776,478.604,109.776,478.604z"/>
			<path style="fill:#3F446E;" d="M137.24,479.786h1.581c0,0-0.527-5.971,0.937-6.028c1.462-0.06,5.09,4.856,7.257,5.618
				c2.165,0.761,13.284,1.403,13.343-0.645c0.059-2.047-4.271-2.868-5.618-3.452c-4.586-0.011-12.045-5.059-14.358-6.082
				c-2.311-1.023-4.816-0.408-4.816-0.408c-0.14,0.969-0.241,1.851-0.256,2.452C135.251,473.465,137.24,479.786,137.24,479.786z"/>
			<path style="fill:#EEA886;" d="M120.965,282.621c-0.445-0.635-2.638-1.329-3.088,0.799c-0.45,2.126,3.421,4.799,4.238,4.418
				C122.933,287.457,122.655,285.03,120.965,282.621z"/>
			<g>
				<path style="fill:#877C78;" d="M134.598,384.829v-6.746c0-1.087,0.884-1.971,1.97-1.971h10.699c1.087,0,1.97,0.884,1.97,1.971
					v6.746c0,1.087-0.884,1.971-1.97,1.971h-10.699C135.482,386.8,134.598,385.916,134.598,384.829z M136.568,377.434
					c-0.357,0-0.648,0.291-0.648,0.65v6.746c0,0.357,0.291,0.648,0.648,0.648h10.699c0.357,0,0.648-0.291,0.648-0.648v-6.746
					c0-0.358-0.291-0.65-0.648-0.65H136.568z"/>
			</g>
			<g>
				
					<rect x="121.848" y="383.904" transform="matrix(-1 -1.224647e-16 1.224647e-16 -1 283.835 796.5665)" style="fill:#5C64A1;" width="40.14" height="28.758"/>
			</g>
			<g>
				<g>
					<g>
						<g>
							<g>
								<path style="fill:#EEA886;" d="M138.678,382.697c0,0-0.585-0.702-0.69-1.134c0,0-0.132-0.8-0.261-1.362
									c-0.042-0.179-0.081-0.334-0.118-0.431c-0.151-0.405-0.604-1.252-0.694-2.329c-0.09-1.075,0.718-5.817,0.718-5.817
									l2.687-0.291l2.477-0.632c0,0,3.872,5.364,4.071,6.357c0.019,0.098,0.034,0.194,0.041,0.286
									c0.087,0.856-0.208,1.531-0.213,1.987c-0.003,0.167-0.144,1.826-0.554,2.109c-0.567,0.395-1.121,0.438-1.56,0.262
									c0,0-1.145,0.723-2.049,0.61c0,0-1.035,0.701-2.121,0.241C140.414,382.555,139.284,383.148,138.678,382.697z"/>
							</g>
						</g>
					</g>
				</g>
			</g>
			<path style="fill:#EB4747;" d="M128.956,304.593c0,0,10.263,0.29,8.147,9.836c-1.861,8.392-2.015,16.671-1.568,18.164
				c0.446,1.492,0.694,8.959,2.311,13.145c1.426,3.694,6.36,25.251,6.36,25.251l-7.143,1.861c0,0-6.789-23.428-7.873-26.271
				c-1.084-2.843-7.105-28.204-6.891-30.933C122.512,312.919,122.127,305.042,128.956,304.593z"/>
			<path style="fill:#FCCCA2;" d="M107.468,274.502c0,0-3.421,6.308-0.213,18.064c1.116,4.088-9.454,22.063-1.492,27.147
				C113.726,324.8,119.732,281.42,107.468,274.502z"/>
		</g>
	</g>
</g>
</svg>
