<svg width="2475" height="1950" viewBox="0 0 2475 1950" fill="none" xmlns="http://www.w3.org/2000/svg">
<path d="M655.336 1519.05C512.595 1569.36 369.857 1619.68 227.116 1670C226.502 1670 393.723 1674.53 391.967 1670C390.802 1665.47 752.171 1521.35 750.594 1521.35C718.514 1520.58 686.763 1519.81 655.336 1519.05Z" fill="url(#paint0_linear_449_427)"/>
<path d="M827.63 1518.03C723.203 1569.19 621.192 1620.35 521.586 1671.51C576.755 1671.51 631.921 1671.51 687.083 1671.51C761.231 1621.45 838.439 1571.4 918.696 1521.35C887.885 1520.24 857.528 1519.14 827.63 1518.03Z" fill="url(#paint1_linear_449_427)"/>
<path d="M984.868 1521.1C982.984 1522.59 981.099 1524.08 979.225 1525.58C918.026 1574.18 861.536 1622.78 809.754 1671.39C852.449 1671.59 895.216 1671.8 938.051 1672.01C989.024 1620.52 1040 1569.03 1090.97 1517.54C1056.12 1518.73 1020.75 1519.91 984.868 1521.1Z" fill="url(#paint2_linear_449_427)"/>
<path d="M1723.31 1518.03C1814.66 1569.19 1908.43 1620.35 2004.6 1671.51C2059.77 1671.51 2114.94 1671.51 2170.1 1671.51C2052.71 1621.45 1938.36 1571.4 1827.08 1521.35C1792.03 1520.24 1757.44 1519.14 1723.31 1518.03Z" fill="url(#paint3_linear_449_427)"/>
<path d="M1181.57 1522.07C1152.15 1571.88 1122.72 1621.69 1093.3 1671.51C1092.2 1671.51 1272.25 1679.56 1265.17 1672.01C1258.21 1664.46 1289.11 1517.54 1288.05 1517.54C1253.23 1519.05 1217.73 1520.56 1181.57 1522.07Z" fill="url(#paint4_linear_449_427)"/>
<path d="M1363.01 1517.54C1372.15 1569.87 1381.29 1622.2 1390.43 1674.53C1435.92 1674.53 1481.4 1674.53 1526.89 1674.53C1508.55 1620.94 1486.2 1567.35 1459.84 1513.77C1428.1 1515.02 1395.82 1516.28 1363.01 1517.54Z" fill="url(#paint5_linear_449_427)"/>
<path d="M1561.94 1514.52C1617.41 1567.86 1672.87 1621.19 1728.33 1674.53C1793.56 1674.76 1858.91 1675 1924.38 1675.24C1818.88 1622.67 1723.29 1570.11 1637.62 1517.54C1612.08 1516.53 1586.86 1515.53 1561.94 1514.52Z" fill="url(#paint6_linear_449_427)"/>
<path d="M2253.26 992.63C2229.78 1006.42 2203.21 1017.59 2174.8 1026.14C2120.29 1042.54 2058.88 1038.06 2006.49 1062.31C1924.18 1100.4 1957.12 1171.29 1977.22 1242.02C1996.52 1309.95 1944.21 1409.43 1896.53 1452.94C1698.93 1633.26 1408.15 1529.46 1190.07 1456.24C1048.06 1408.57 888.829 1403.89 742.79 1435.88C614.177 1464.04 490.906 1543.18 361.235 1474.34C240.556 1410.27 160.483 1263.22 173.415 1125.69C180.596 1049.35 217.752 976.897 215.751 899.657C213.819 825.1 173.781 763.038 136.979 700.809C62.292 574.522 128.968 408.969 253.945 352.028C362.802 302.431 498.706 308.22 614.259 324.431C678.451 333.437 742.435 346.087 806.106 358.209C931.918 382.162 1061.08 383.562 1185.74 352.148C1304.63 322.191 1417.57 267.9 1543.17 275.478C1634.69 281.001 1713.71 335.823 1760.94 414.645C1832.5 534.077 1926.97 517.029 2048.59 521.984C2190.26 527.756 2296.69 639.092 2340.36 768.712C2375.22 872.232 2331.19 946.866 2253.26 992.63Z" fill="url(#paint7_linear_449_427)"/>
<mask id="mask0_449_427" style="mask-type:luminance" maskUnits="userSpaceOnUse" x="1055" y="368" width="1315" height="1160">
<path d="M2369.36 368.565H1055.98V1527.43H2369.36V368.565Z" fill="white"/>
</mask>
<g mask="url(#mask0_449_427)">
<path d="M1905.2 565.846C1904.98 553.852 1895.26 543.983 1883.35 543.983H1433.02C1420.95 543.983 1409.09 554.368 1409.09 566.525V1653.15C1409.09 1659 1412.44 1664.61 1416.55 1668.74C1420.66 1672.87 1426.75 1675.18 1432.56 1675.16L1903.4 1673.87C1909.26 1673.85 1915 1671.47 1919.1 1667.25C1923.2 1663.04 1925.51 1657.21 1925.4 1651.31L1905.2 565.846Z" fill="#91B3FA"/>
<path d="M1573.56 672.029L1445.28 671.855L1444.26 605.644H1572.67L1573.56 672.029Z" fill="#BDD0FB"/>
<path d="M1717.36 671.996L1589.2 671.822L1588.32 605.644H1716.61L1717.36 671.996Z" fill="#BDD0FB"/>
<path d="M1861.01 671.962L1732.98 671.789L1732.24 605.644H1860.4L1861.01 671.962Z" fill="#BDD0FB"/>
<path d="M1575.17 790.875L1447.1 790.957L1446.09 725.178L1574.28 725.125L1575.17 790.875Z" fill="#BDD0FB"/>
<path d="M1718.71 790.782L1590.78 790.865L1589.9 725.119L1717.96 725.065L1718.71 790.782Z" fill="#BDD0FB"/>
<path d="M1862.12 790.69L1734.31 790.773L1733.57 725.059L1861.5 725.005L1862.12 790.69Z" fill="#BDD0FB"/>
<path d="M1576.76 908.906L1448.92 909.041L1447.91 843.49L1575.88 843.384L1576.76 908.906Z" fill="#BDD0FB"/>
<path d="M1720.06 908.754L1592.35 908.888L1591.48 843.37L1719.31 843.265L1720.06 908.754Z" fill="#BDD0FB"/>
<path d="M1863.21 908.602L1735.63 908.738L1734.9 843.252L1862.6 843.146L1863.21 908.602Z" fill="#BDD0FB"/>
<path d="M1578.36 1026.53L1450.74 1026.71L1449.73 961.391L1577.47 961.232L1578.36 1026.53Z" fill="#BDD0FB"/>
<path d="M1721.4 1026.32L1593.91 1026.5L1593.04 961.212L1720.66 961.054L1721.4 1026.32Z" fill="#BDD0FB"/>
<path d="M1864.31 1026.11L1736.94 1026.29L1736.21 961.035L1863.7 960.877L1864.31 1026.11Z" fill="#BDD0FB"/>
<path d="M1579.94 1143.74L1452.55 1143.98L1451.54 1078.88L1579.06 1078.67L1579.94 1143.74Z" fill="#BDD0FB"/>
<path d="M1722.74 1143.47L1595.47 1143.71L1594.61 1078.65L1722 1078.44L1722.74 1143.47Z" fill="#BDD0FB"/>
<path d="M1865.4 1143.21L1738.26 1143.44L1737.53 1078.41L1864.79 1078.2L1865.4 1143.21Z" fill="#BDD0FB"/>
<path d="M1581.52 1260.55L1454.35 1260.84L1453.35 1195.97L1580.65 1195.71L1581.52 1260.55Z" fill="#BDD0FB"/>
<path d="M1724.08 1260.23L1597.03 1260.52L1596.16 1195.68L1723.34 1195.41L1724.08 1260.23Z" fill="#BDD0FB"/>
<path d="M1866.49 1259.9L1739.56 1260.19L1738.84 1195.38L1865.88 1195.12L1866.49 1259.9Z" fill="#BDD0FB"/>
<path d="M1583.1 1376.96L1456.14 1377.3L1455.15 1312.65L1582.23 1312.34L1583.1 1376.96Z" fill="#BDD0FB"/>
<path d="M1725.41 1376.58L1598.58 1376.92L1597.72 1312.3L1724.67 1311.99L1725.41 1376.58Z" fill="#BDD0FB"/>
<path d="M1867.57 1376.2L1740.87 1376.54L1740.14 1311.95L1866.97 1311.64L1867.57 1376.2Z" fill="#BDD0FB"/>
<path d="M1584.67 1492.97L1457.93 1493.36L1456.94 1428.93L1583.8 1428.57L1584.67 1492.97Z" fill="#BDD0FB"/>
<path d="M1726.73 1492.53L1600.12 1492.92L1599.26 1428.53L1726 1428.16L1726.73 1492.53Z" fill="#BDD0FB"/>
<path d="M1868.65 1492.09L1742.16 1492.48L1741.44 1428.12L1868.05 1427.75L1868.65 1492.09Z" fill="#BDD0FB"/>
<path d="M1506.89 910.663C1506.69 903.951 1498.16 898.427 1487.71 898.427H1092.44C1081.84 898.427 1071.44 904.238 1071.44 911.043V1519.17C1071.44 1522.44 1074.37 1525.58 1077.98 1527.89C1081.59 1530.2 1086.94 1531.5 1092.04 1531.49L1505.31 1530.77C1510.46 1530.76 1515.49 1529.42 1519.09 1527.06C1522.68 1524.7 1524.71 1521.44 1524.62 1518.14L1506.89 910.663Z" fill="#7D97F4"/>
<path d="M1215.8 970.087L1103.2 969.991L1102.3 932.936H1215.01L1215.8 970.087Z" fill="#91B3FA"/>
<path d="M1342.01 970.069L1229.52 969.972L1228.75 932.936H1341.35L1342.01 970.069Z" fill="#91B3FA"/>
<path d="M1468.1 970.05L1355.73 969.953L1355.08 932.936H1467.56L1468.1 970.05Z" fill="#91B3FA"/>
<path d="M1217.21 1036.6L1104.8 1036.65L1103.91 999.833L1216.43 999.803L1217.21 1036.6Z" fill="#91B3FA"/>
<path d="M1343.2 1036.55L1230.91 1036.59L1230.14 999.799L1342.54 999.77L1343.2 1036.55Z" fill="#91B3FA"/>
<path d="M1469.07 1036.5L1356.89 1036.54L1356.24 999.766L1468.53 999.736L1469.07 1036.5Z" fill="#91B3FA"/>
<path d="M1218.61 1102.65L1106.4 1102.73L1105.51 1066.04L1217.83 1065.99L1218.61 1102.65Z" fill="#91B3FA"/>
<path d="M1344.38 1102.57L1232.29 1102.65L1231.52 1065.98L1343.73 1065.92L1344.38 1102.57Z" fill="#91B3FA"/>
<path d="M1470.03 1102.49L1358.05 1102.56L1357.4 1065.91L1469.5 1065.85L1470.03 1102.49Z" fill="#91B3FA"/>
<path d="M1220.01 1168.48L1107.99 1168.59L1107.11 1132.03L1219.23 1131.94L1220.01 1168.48Z" fill="#91B3FA"/>
<path d="M1345.56 1168.36L1233.66 1168.47L1232.9 1131.93L1344.91 1131.84L1345.56 1168.36Z" fill="#91B3FA"/>
<path d="M1471 1168.25L1359.2 1168.35L1358.56 1131.83L1470.46 1131.74L1471 1168.25Z" fill="#91B3FA"/>
<path d="M1221.4 1234.08L1109.58 1234.21L1108.7 1197.78L1220.63 1197.66L1221.4 1234.08Z" fill="#91B3FA"/>
<path d="M1346.74 1233.93L1235.03 1234.06L1234.27 1197.65L1346.09 1197.53L1346.74 1233.93Z" fill="#91B3FA"/>
<path d="M1471.95 1233.78L1360.35 1233.91L1359.72 1197.52L1471.42 1197.4L1471.95 1233.78Z" fill="#91B3FA"/>
<path d="M1222.79 1299.45L1111.16 1299.62L1110.28 1263.31L1222.02 1263.16L1222.79 1299.45Z" fill="#91B3FA"/>
<path d="M1347.91 1299.27L1236.39 1299.43L1235.64 1263.15L1347.26 1263L1347.91 1299.27Z" fill="#91B3FA"/>
<path d="M1472.91 1299.09L1361.5 1299.25L1360.86 1262.98L1472.38 1262.83L1472.91 1299.09Z" fill="#91B3FA"/>
<path d="M1224.17 1364.6L1112.73 1364.79L1111.86 1328.61L1223.4 1328.44L1224.17 1364.6Z" fill="#91B3FA"/>
<path d="M1349.08 1364.39L1237.75 1364.58L1237 1328.41L1348.43 1328.24L1349.08 1364.39Z" fill="#91B3FA"/>
<path d="M1473.86 1364.17L1362.65 1364.36L1362.01 1328.22L1473.33 1328.04L1473.86 1364.17Z" fill="#91B3FA"/>
<path d="M1225.55 1429.53L1114.3 1429.75L1113.43 1393.69L1224.78 1393.49L1225.55 1429.53Z" fill="#91B3FA"/>
<path d="M1350.24 1429.28L1239.11 1429.5L1238.36 1393.46L1349.6 1393.26L1350.24 1429.28Z" fill="#91B3FA"/>
<path d="M1474.81 1429.03L1363.79 1429.25L1363.15 1393.23L1474.28 1393.03L1474.81 1429.03Z" fill="#91B3FA"/>
<path d="M1226.92 1494.23L1115.87 1494.47L1115 1458.54L1226.16 1458.31L1226.92 1494.23Z" fill="#91B3FA"/>
<path d="M1351.4 1493.95L1240.46 1494.2L1239.71 1458.28L1350.75 1458.05L1351.4 1493.95Z" fill="#91B3FA"/>
<path d="M1475.75 1493.67L1364.92 1493.92L1364.29 1458.02L1475.23 1457.79L1475.75 1493.67Z" fill="#91B3FA"/>
</g>
<path d="M439.09 425.942L371.186 589.805C353.196 633.218 356.084 682.48 379.024 723.492L516.714 969.662C532.327 997.574 538.831 1029.67 535.316 1061.46L519.997 1200.02C514.256 1251.96 535.334 1303.25 575.935 1336.15C640.375 1388.36 734.631 1379.93 788.793 1317.13L874.67 1217.55C914.93 1170.86 923.353 1104.62 896.059 1049.35L806.042 867.051C794.54 843.76 789.139 817.932 790.342 791.984L802.742 524.529C805.6 462.872 771.247 405.5 715.546 378.907L647.014 346.189C567.659 308.302 472.756 344.703 439.09 425.942Z" fill="#91B3FA"/>
<path d="M696.225 1404.13C695.8 1404.17 695.367 1404.19 694.926 1404.16C690.604 1403.92 687.295 1400.22 687.539 1395.89C710.065 994.352 578.259 574.933 567.25 553.981C565.133 551.433 564.794 547.712 566.667 544.766C568.987 541.114 573.833 540.031 577.489 542.356C579.82 543.837 581.36 544.816 588.983 567.418C592.498 577.836 598.335 596.044 606.19 623.629C617.991 665.071 635.749 732.67 653.339 819.377C682.732 964.26 715.241 1182.04 703.194 1396.77C702.975 1400.66 699.968 1403.72 696.225 1404.13ZM569.044 555.568C569.044 555.568 569.046 555.569 569.047 555.57C569.046 555.569 569.045 555.569 569.044 555.568Z" fill="#7D97F4"/>
<path d="M497.165 1060.43C467.37 1040.02 450.824 1005.35 453.582 969.344C456.528 930.905 450.501 887.949 434.34 845.318C391.929 733.437 295.789 666.15 219.605 695.029C143.422 723.908 116.043 838.017 158.454 949.898C166.687 971.616 176.945 991.654 188.689 1009.63C206.497 1036.89 210.145 1071.04 197.931 1101.22C186.329 1129.9 185.086 1162.85 196.914 1194.05C213.066 1236.66 249.621 1265.55 291.244 1273.82C315.899 1278.72 337.796 1292.52 352.617 1312.82C394.67 1370.43 458.229 1398.8 512.407 1378.27C581.843 1351.95 609.57 1255.26 574.337 1162.32C557.543 1118.01 529.469 1082.55 497.165 1060.43Z" fill="#BDD0FB"/>
<path d="M579.354 1505.39C577.557 1505.89 575.555 1505.34 574.276 1503.82C511.047 1428.78 446.977 1288.81 404.364 1184.6C358.271 1071.88 326.637 975.549 326.324 974.589C325.479 972.006 326.887 969.227 329.469 968.382C332.043 967.538 334.831 968.944 335.676 971.528C336.927 975.352 462.208 1355.55 581.802 1497.48C583.553 1499.55 583.287 1502.66 581.209 1504.41C580.649 1504.88 580.016 1505.21 579.354 1505.39Z" fill="#91B3FA"/>
<path d="M1596.41 631.866L1627.68 764.473C1635.96 799.605 1627.7 836.596 1605.24 864.859L1470.49 1034.5C1455.21 1053.74 1446.32 1077.26 1445.06 1101.8L1439.58 1208.74C1437.53 1248.82 1415.22 1285.11 1380.38 1305.04C1325.08 1336.67 1254.66 1318.66 1221.35 1264.36L1168.53 1178.27C1143.77 1137.91 1145.55 1086.65 1173.06 1048.12L1263.8 921.015C1275.39 904.776 1282.67 885.861 1284.96 866.041L1308.55 661.745C1313.99 614.647 1347.12 575.39 1392.63 562.1L1448.62 545.75C1513.46 526.819 1580.91 566.123 1596.41 631.866Z" fill="#BDD0FB"/>
<path d="M1276.42 1335.3C1293.78 1171.02 1345.29 1009.92 1385.45 903.711C1409.48 840.145 1431.28 791.087 1445.34 761.124C1454.7 741.179 1461.37 728.096 1465.32 720.631C1473.89 704.436 1475.18 703.885 1477.13 703.048C1480.19 701.738 1483.73 703.156 1485.03 706.211C1486.09 708.676 1485.38 711.454 1483.46 713.126C1472.53 727.652 1320.86 1029.37 1288.4 1336.57C1288.05 1339.88 1285.08 1342.27 1281.78 1341.92C1281.44 1341.89 1281.11 1341.82 1280.8 1341.74C1278.01 1340.97 1276.11 1338.27 1276.42 1335.3Z" fill="#91B3FA"/>
<path d="M1521.32 1114.47C1549.56 1100.74 1568.25 1073.04 1570.49 1041.71C1572.89 1008.27 1583.59 972.09 1602.96 937.491C1653.8 846.693 1745.14 801.15 1806.97 835.769C1868.79 870.387 1877.7 972.058 1826.86 1062.86C1816.99 1080.48 1805.6 1096.4 1793.19 1110.36C1774.37 1131.53 1766.85 1160.43 1773.48 1187.96C1779.78 1214.12 1776.62 1242.62 1762.44 1267.94C1743.08 1302.52 1707.93 1322.68 1671.06 1324.45C1649.23 1325.5 1628.62 1334.57 1613.26 1350.13C1569.7 1394.29 1511.38 1410.54 1467.41 1385.92C1411.06 1354.37 1399.62 1267.64 1441.85 1192.21C1461.99 1156.25 1490.69 1129.35 1521.32 1114.47Z" fill="#BDD0FB"/>
<path d="M1393.51 1486.68C1394.99 1487.34 1396.79 1487.12 1398.08 1485.98C1462.1 1429.55 1535.18 1317.36 1585.21 1233.19C1639.32 1142.15 1678.9 1063.34 1679.29 1062.56C1680.35 1060.44 1679.49 1057.87 1677.38 1056.81C1675.28 1055.76 1672.7 1056.61 1671.64 1058.72C1670.07 1061.85 1513.51 1372.82 1392.42 1479.56C1390.65 1481.12 1390.48 1483.83 1392.04 1485.6C1392.46 1486.08 1392.97 1486.44 1393.51 1486.68Z" fill="#91B3FA"/>
<path d="M573.939 1079.84L523.373 1120.38C509.332 1131.63 516.768 1155.7 534.262 1155.61L1365.48 1150.71L1140.45 1016.34H751.834C687.751 1016.34 625.374 1038.6 573.939 1079.84Z" fill="url(#paint8_linear_449_427)"/>
<path d="M1811.99 1441.41C1811.26 1434.59 1810.52 1427.77 1809.77 1421.01C1802.08 1351.65 1766.68 1289.39 1712.81 1250.64L1708.64 1247.64C1643.75 1200.97 1569.2 1172.26 1491.59 1164.05L1365.48 1150.71L534.262 1155.61C516.768 1155.7 509.333 1131.63 523.373 1120.38L573.939 1079.84C625.374 1038.61 687.751 1016.34 751.834 1016.34H1140.45L1137.54 1015.03C1114.19 1004.52 1089.14 999.11 1063.84 999.11H697.868C675.632 999.11 653.522 1002.71 632.274 1009.77L357.018 1119.67C343.414 1124.2 331.27 1132.77 321.98 1144.4L265.119 1215.6C253.285 1230.42 246.774 1249.33 246.774 1268.89V1384.92C246.774 1415.63 347.435 1520.55 347.435 1520.55C358.399 1526.58 370.529 1529.72 382.833 1529.72H1619.39L1750.72 1520.49C1788.33 1517.84 1816.3 1481.8 1811.99 1441.41Z" fill="url(#paint9_linear_449_427)"/>
<path d="M1807.62 1493.97H1803.69C1796.04 1493.97 1789.84 1487.27 1789.84 1479.02V1403.89C1789.84 1395.63 1796.04 1388.94 1803.69 1388.94C1811.04 1388.94 1817.11 1395.13 1817.53 1403.05L1821.46 1478.18C1821.91 1486.75 1815.58 1493.97 1807.62 1493.97Z" fill="url(#paint10_linear_449_427)"/>
<path d="M1758.86 1374.52H1800.12C1784.76 1324.29 1754.3 1280.48 1712.81 1250.64L1708.64 1247.64C1704.34 1244.55 1699.99 1241.55 1695.61 1238.61C1704.03 1270.31 1714.42 1313.78 1721.25 1342.96C1725.61 1361.54 1741.09 1374.52 1758.86 1374.52Z" fill="url(#paint11_linear_449_427)"/>
<path d="M357.018 1205.58V1119.67C343.414 1124.2 331.27 1132.77 321.98 1144.4L265.119 1215.6C255.238 1227.97 249.135 1243.21 247.366 1259.29L324.984 1246.04C343.432 1242.89 357.018 1225.73 357.018 1205.58Z" fill="url(#paint12_linear_449_427)"/>
<path d="M1228.9 1146.94L1199.67 1116.3C1187.49 1103.53 1172.17 1094.82 1155.52 1091.2L1097.72 1078.62C1081.86 1075.17 1066.67 1087.17 1064.94 1104.53L1064.53 1108.6C1062.76 1126.28 1075.7 1141.66 1092.19 1141.46L1166.65 1140.54C1177.04 1140.42 1186.48 1147.04 1190.58 1157.33L1191.95 1160.78C1193.77 1165.35 1197.94 1168.31 1202.55 1168.31H1220.86C1231.22 1168.3 1236.33 1154.72 1228.9 1146.94Z" fill="url(#paint13_linear_449_427)"/>
<path d="M929.46 1202.43H1056.92C1066.86 1202.43 1073.87 1213.09 1070.42 1223.15C1064.59 1240.17 1050.7 1261.88 1017.68 1264.41C987.992 1266.69 950.567 1248.56 922.339 1231.32C909.541 1223.51 914.756 1202.43 929.46 1202.43Z" fill="url(#paint14_linear_449_427)"/>
<path d="M554.177 1667.35C647.102 1667.35 722.432 1592.02 722.432 1499.1C722.432 1406.17 647.102 1330.84 554.177 1330.84C461.252 1330.84 385.922 1406.17 385.922 1499.1C385.922 1592.02 461.252 1667.35 554.177 1667.35Z" fill="url(#paint15_linear_449_427)"/>
<path d="M554.177 1635.74C629.641 1635.74 690.818 1574.56 690.818 1499.1C690.818 1423.63 629.641 1362.46 554.177 1362.46C478.712 1362.46 417.535 1423.63 417.535 1499.1C417.535 1574.56 478.712 1635.74 554.177 1635.74Z" fill="url(#paint16_linear_449_427)"/>
<path d="M1546.53 1667.35C1639.45 1667.35 1714.79 1592.02 1714.79 1499.1C1714.79 1406.17 1639.45 1330.84 1546.53 1330.84C1453.61 1330.84 1378.27 1406.17 1378.27 1499.1C1378.27 1592.02 1453.61 1667.35 1546.53 1667.35Z" fill="url(#paint17_linear_449_427)"/>
<path d="M1546.53 1635.74C1621.99 1635.74 1683.17 1574.56 1683.17 1499.1C1683.17 1423.63 1621.99 1362.46 1546.53 1362.46C1471.07 1362.46 1409.89 1423.63 1409.89 1499.1C1409.89 1574.56 1471.07 1635.74 1546.53 1635.74Z" fill="url(#paint18_linear_449_427)"/>
<path d="M1658 1548.53C1657.7 1548.53 1657.39 1548.47 1657.09 1548.34C1655.9 1547.84 1655.34 1546.47 1655.85 1545.28C1662.03 1530.65 1665.17 1515.12 1665.17 1499.1C1665.17 1433.68 1611.95 1380.46 1546.53 1380.46C1526.24 1380.46 1506.21 1385.67 1488.62 1395.53C1487.49 1396.16 1486.06 1395.76 1485.43 1394.63C1484.8 1393.51 1485.2 1392.08 1486.33 1391.45C1504.62 1381.2 1525.44 1375.78 1546.53 1375.78C1614.53 1375.78 1669.85 1431.1 1669.85 1499.1C1669.85 1515.75 1666.59 1531.9 1660.16 1547.1C1659.78 1547.99 1658.91 1548.53 1658 1548.53Z" fill="url(#paint19_linear_449_427)"/>
<path d="M668.949 1548.53C668.646 1548.53 668.337 1548.47 668.039 1548.34C666.847 1547.84 666.291 1546.47 666.794 1545.28C672.98 1530.65 676.117 1515.11 676.117 1499.1C676.117 1433.68 622.896 1380.46 557.478 1380.46C537.185 1380.46 517.159 1385.67 499.564 1395.53C498.44 1396.16 497.012 1395.76 496.377 1394.63C495.744 1393.51 496.147 1392.08 497.275 1391.45C515.567 1381.2 536.384 1375.78 557.478 1375.78C625.477 1375.78 680.799 1431.1 680.799 1499.1C680.799 1515.75 677.538 1531.89 671.107 1547.1C670.729 1547.99 669.861 1548.53 668.949 1548.53Z" fill="url(#paint20_linear_449_427)"/>
<path d="M757.768 1447.22C756.667 1447.22 755.684 1446.44 755.471 1445.31C740.521 1366.71 695.726 1316.68 622.331 1296.62C567.38 1281.6 516.115 1289.97 515.605 1290.05C514.334 1290.28 513.122 1289.41 512.907 1288.13C512.691 1286.86 513.55 1285.65 514.825 1285.44C515.343 1285.35 567.492 1276.82 623.417 1292.06C675.223 1306.19 740.985 1344.09 760.071 1444.44C760.312 1445.71 759.478 1446.93 758.209 1447.18C758.06 1447.2 757.914 1447.22 757.768 1447.22Z" fill="url(#paint21_linear_449_427)"/>
<path d="M1341.03 1472.85C1339.77 1472.85 1338.73 1471.85 1338.69 1470.59C1336.75 1408.58 1353.36 1360.01 1388.06 1326.23C1445.35 1270.47 1533.25 1274.91 1534.13 1274.96C1535.42 1275.04 1536.4 1276.14 1536.33 1277.43C1536.25 1278.72 1535.19 1279.68 1533.86 1279.63C1532.99 1279.58 1447.08 1275.29 1391.3 1329.61C1357.6 1362.44 1341.47 1409.82 1343.37 1470.44C1343.41 1471.73 1342.39 1472.81 1341.1 1472.85C1341.08 1472.85 1341.05 1472.85 1341.03 1472.85Z" fill="url(#paint22_linear_449_427)"/>
<path d="M539.57 1136.9C538.756 1136.9 537.964 1136.48 537.533 1135.72C536.894 1134.6 537.286 1133.17 538.41 1132.53L651.108 1068.4C683.17 1050.16 719.61 1040.17 756.49 1039.51L885.765 1037.19C887.023 1037.2 888.126 1038.19 888.149 1039.48C888.172 1040.78 887.143 1041.84 885.85 1041.87L756.576 1044.19C720.477 1044.84 684.807 1054.62 653.424 1072.47L540.727 1136.6C540.36 1136.8 539.962 1136.9 539.57 1136.9Z" fill="#91B3FA"/>
<path d="M1262.4 880.295C1330.86 880.295 1386.35 824.803 1386.35 756.35C1386.35 687.897 1330.86 632.404 1262.4 632.404C1193.95 632.404 1138.46 687.897 1138.46 756.35C1138.46 824.803 1193.95 880.295 1262.4 880.295Z" fill="url(#paint23_linear_449_427)"/>
<path d="M1148.15 751.587C1148.12 751.587 1148.1 751.587 1148.08 751.586C1147.36 751.548 1146.8 750.931 1146.84 750.21C1147.09 745.34 1147.66 740.45 1148.52 735.674C1148.65 734.964 1149.33 734.49 1150.04 734.618C1150.76 734.748 1151.23 735.428 1151.1 736.139C1150.26 740.807 1149.7 745.587 1149.46 750.345C1149.42 751.045 1148.84 751.587 1148.15 751.587Z" fill="url(#paint24_linear_449_427)"/>
<path d="M1160.2 706.171C1160 706.171 1159.8 706.127 1159.61 706.031C1158.96 705.705 1158.71 704.917 1159.03 704.273C1178.85 665.013 1218.46 640.624 1262.4 640.624C1269.41 640.624 1276.44 641.255 1283.28 642.503C1283.99 642.632 1284.46 643.314 1284.33 644.027C1284.2 644.738 1283.53 645.215 1282.81 645.079C1276.12 643.86 1269.26 643.242 1262.4 643.242C1219.45 643.242 1180.74 667.081 1161.37 705.451C1161.14 705.908 1160.68 706.171 1160.2 706.171Z" fill="url(#paint25_linear_449_427)"/>
<path opacity="0.88" d="M1339.27 833.232C1380.24 792.264 1380.24 725.843 1339.27 684.876C1298.3 643.909 1231.88 643.909 1190.91 684.876C1149.95 725.843 1149.95 792.264 1190.91 833.232C1231.88 874.199 1298.3 874.199 1339.27 833.232Z" fill="white"/>
<path d="M1259.34 703.617C1243.27 689.098 1218.29 690.565 1203.77 706.636C1189.25 722.707 1190.3 747.738 1206.37 762.256C1220.53 775.045 1242.25 774.703 1255.95 764.782L1266.78 774.563C1266.91 777.465 1267.72 780.993 1270.19 783.221L1306.27 815.816C1310.83 819.937 1317.7 818.47 1321.83 813.908L1322.07 813.642C1326.19 809.079 1326.09 803.054 1321.52 798.931L1285.44 766.337C1282.98 764.11 1279.39 763.652 1277.87 762.284L1267.04 752.503C1275.53 737.865 1273.5 716.406 1259.34 703.617ZM1213.71 756.852C1201.31 745.656 1200.34 726.531 1211.54 714.138C1222.74 701.744 1241.86 700.773 1254.25 711.969C1266.65 723.166 1267.62 742.289 1256.42 754.684C1245.23 767.078 1226.1 768.049 1213.71 756.852Z" fill="url(#paint26_linear_449_427)"/>
<path d="M1220.75 747.14C1220.65 747.243 1220.55 747.34 1220.44 747.432C1219.14 748.539 1217.18 748.375 1216.07 747.066C1208.85 738.522 1209.06 725.809 1216.57 717.495C1217.72 716.223 1219.68 716.123 1220.96 717.272C1222.23 718.421 1222.33 720.384 1221.18 721.655C1215.74 727.674 1215.58 736.876 1220.81 743.061C1221.82 744.26 1221.77 746.005 1220.75 747.14Z" fill="url(#paint27_linear_449_427)"/>
<path d="M967.421 668.592C1035.87 668.592 1091.37 613.1 1091.37 544.647C1091.37 476.194 1035.87 420.702 967.421 420.702C898.968 420.702 843.476 476.194 843.476 544.647C843.476 613.1 898.968 668.592 967.421 668.592Z" fill="url(#paint28_linear_449_427)"/>
<path d="M853.164 539.885C853.141 539.885 853.118 539.885 853.095 539.884C852.372 539.846 851.818 539.229 851.856 538.508C852.11 533.638 852.676 528.748 853.539 523.972C853.666 523.262 854.343 522.788 855.06 522.916C855.772 523.044 856.244 523.725 856.115 524.437C855.274 529.105 854.72 533.885 854.472 538.643C854.435 539.343 853.856 539.885 853.164 539.885Z" fill="url(#paint29_linear_449_427)"/>
<path d="M865.217 494.469C865.018 494.469 864.817 494.425 864.627 494.329C863.982 494.003 863.723 493.215 864.048 492.57C883.865 453.311 923.475 428.921 967.421 428.921C974.429 428.921 981.453 429.553 988.296 430.801C989.008 430.93 989.479 431.612 989.351 432.324C989.221 433.036 988.542 433.512 987.827 433.376C981.139 432.157 974.273 431.539 967.421 431.539C924.469 431.539 885.755 455.377 866.385 493.748C866.156 494.206 865.695 494.469 865.217 494.469Z" fill="url(#paint30_linear_449_427)"/>
<path opacity="0.88" d="M1044.29 621.529C1085.26 580.562 1085.26 514.14 1044.29 473.173C1003.32 432.206 936.901 432.206 895.933 473.173C854.966 514.141 854.966 580.562 895.933 621.529C936.901 662.496 1003.32 662.496 1044.29 621.529Z" fill="white"/>
<path d="M945.379 561.91C960.591 548.559 983.827 550.072 997.18 565.282C998.007 566.225 998.773 567.2 999.482 568.202C1000.44 569.549 1002.38 569.672 1003.45 568.411L1006.94 564.288C1007.7 563.388 1007.72 562.084 1007.01 561.143C1006.34 560.251 1005.63 559.376 1004.88 558.524C987.802 539.069 958.078 537.134 938.624 554.211C937.15 555.504 935.783 556.874 934.515 558.306C933.565 559.377 933.688 561.022 934.8 561.924L938.889 565.243C939.923 566.083 941.43 565.961 942.314 564.965C943.26 563.9 944.279 562.876 945.379 561.91Z" fill="url(#paint31_linear_449_427)"/>
<path d="M927.923 542.023C954.1 519.045 994.089 521.648 1017.07 547.826C1017.07 547.833 1017.08 547.84 1017.09 547.848C1018.09 548.994 1019.87 549.003 1020.85 547.839L1024.28 543.795C1024.27 542.544 1024.26 541.738 1024.25 540.487C997.467 510.609 951.393 507.792 921.166 534.324C918.527 536.641 916.108 539.112 913.888 541.704C912.985 542.76 913.16 544.361 914.238 545.235L918.316 548.546C919.354 549.389 920.884 549.274 921.756 548.261C923.64 546.071 925.69 543.982 927.923 542.023Z" fill="url(#paint32_linear_449_427)"/>
<path d="M910.466 522.135C946.642 490.381 1001.4 493.075 1034.35 527.556C1035.39 528.638 1037.12 528.615 1038.08 527.472L1041.48 523.459C1042.3 522.484 1042.27 521.029 1041.39 520.112C1004.64 482.044 943.889 479.168 903.71 514.437C899.935 517.751 896.491 521.297 893.345 525.024C892.448 526.086 892.621 527.687 893.701 528.564L897.774 531.871C898.836 532.733 900.377 532.567 901.261 531.523C904.057 528.22 907.117 525.075 910.466 522.135Z" fill="url(#paint33_linear_449_427)"/>
<path d="M970.859 599.615C980.332 599.615 988.011 591.935 988.011 582.462C988.011 572.989 980.332 565.31 970.859 565.31C961.386 565.31 953.706 572.989 953.706 582.462C953.706 591.935 961.386 599.615 970.859 599.615Z" fill="url(#paint34_linear_449_427)"/>
<path d="M1620.6 1071.27C1689.05 1071.27 1744.54 1015.78 1744.54 947.323C1744.54 878.87 1689.05 823.377 1620.6 823.377C1552.15 823.377 1496.65 878.87 1496.65 947.323C1496.65 1015.78 1552.15 1071.27 1620.6 1071.27Z" fill="url(#paint35_linear_449_427)"/>
<path d="M1506.34 942.56C1506.32 942.56 1506.3 942.56 1506.27 942.559C1505.55 942.521 1505 941.905 1505.03 941.183C1505.29 936.313 1505.85 931.424 1506.72 926.648C1506.84 925.937 1507.52 925.464 1508.24 925.591C1508.95 925.721 1509.42 926.401 1509.29 927.112C1508.45 931.78 1507.9 936.56 1507.65 941.318C1507.61 942.018 1507.03 942.56 1506.34 942.56Z" fill="url(#paint36_linear_449_427)"/>
<path d="M1518.39 897.144C1518.2 897.144 1517.99 897.1 1517.8 897.004C1517.16 896.678 1516.9 895.89 1517.23 895.246C1537.04 855.986 1576.65 831.597 1620.6 831.597C1627.61 831.597 1634.63 832.228 1641.47 833.476C1642.19 833.605 1642.66 834.287 1642.53 834.999C1642.4 835.711 1641.72 836.187 1641 836.051C1634.31 834.832 1627.45 834.215 1620.6 834.215C1577.65 834.215 1538.93 858.053 1519.56 896.423C1519.33 896.881 1518.87 897.144 1518.39 897.144Z" fill="url(#paint37_linear_449_427)"/>
<path opacity="0.88" d="M1697.46 1024.21C1738.43 983.24 1738.43 916.819 1697.46 875.851C1656.49 834.884 1590.07 834.884 1549.11 875.851C1508.14 916.819 1508.14 983.24 1549.11 1024.21C1590.07 1065.17 1656.49 1065.17 1697.46 1024.21Z" fill="white"/>
<path d="M1667.02 944.614C1667.02 934.199 1658.58 925.756 1648.16 925.756H1589.89C1579.47 925.756 1571.03 934.199 1571.03 944.614V1002.88C1571.03 1013.3 1579.48 1021.74 1589.89 1021.74H1648.16C1658.58 1021.74 1667.02 1013.3 1667.02 1002.88V944.614Z" fill="url(#paint38_linear_449_427)"/>
<path d="M1662.34 937.461H1645.95V907.131C1645.95 896.372 1640.08 883.614 1629.32 883.614H1613.89C1603.14 883.614 1592.1 896.372 1592.1 907.131V937.461H1578.06V907.131C1578.06 888.367 1595.13 871.909 1613.89 871.909H1629.32C1648.08 871.909 1662.34 888.367 1662.34 907.131V937.461Z" fill="url(#paint39_linear_449_427)"/>
<path d="M1632.05 948.873C1632.05 942.107 1627.7 936.623 1620.93 936.623C1614.17 936.623 1608.92 942.107 1608.92 948.873C1608.92 953.499 1610.83 957.524 1615.51 959.609V996.513C1615.51 999.52 1616.02 1001.96 1619.02 1001.96C1622.03 1001.96 1622.54 999.52 1622.54 996.513V960.054C1629.56 958.141 1632.05 953.859 1632.05 948.873Z" fill="url(#paint40_linear_449_427)"/>
<path d="M320.887 1116.24L316.483 1110.66C315.27 1109.13 315.532 1106.9 317.069 1105.68C318.606 1104.47 320.837 1104.73 322.051 1106.27L322.073 1106.3L322.125 1106.36L326.37 1111.85L326.422 1111.92C327.608 1113.45 327.327 1115.66 325.793 1116.84C324.267 1118.02 322.078 1117.75 320.887 1116.24Z" fill="white"/>
<path d="M306.728 1097.25L302.775 1091.34C301.65 1089.66 302.101 1087.39 303.783 1086.26C305.465 1085.14 307.74 1085.59 308.865 1087.27L308.885 1087.3L308.931 1087.37L312.731 1093.18L312.777 1093.25C313.875 1094.92 313.406 1097.17 311.729 1098.27C310.065 1099.36 307.833 1098.9 306.728 1097.25Z" fill="white"/>
<path d="M294.094 1077.21L290.609 1071.01C289.585 1069.19 290.23 1066.89 292.05 1065.86C293.87 1064.84 296.175 1065.49 297.198 1067.31L297.217 1067.34L297.258 1067.41L300.599 1073.49L300.64 1073.57C301.636 1075.38 300.974 1077.66 299.161 1078.65C297.36 1079.64 295.1 1078.99 294.094 1077.21Z" fill="white"/>
<path d="M283.031 1056.26L280.021 1049.82C279.11 1047.87 279.951 1045.55 281.901 1044.64C283.85 1043.73 286.169 1044.57 287.08 1046.52L287.097 1046.55L287.133 1046.63L290.007 1052.94L290.043 1053.02C290.927 1054.96 290.069 1057.25 288.128 1058.14C286.2 1059.01 283.926 1058.17 283.031 1056.26Z" fill="white"/>
<path d="M273.555 1034.54L271.023 1027.9C270.233 1025.83 271.272 1023.51 273.343 1022.72C275.414 1021.93 277.733 1022.97 278.523 1025.04L278.537 1025.08L278.566 1025.16L280.972 1031.67L281.002 1031.75C281.764 1033.81 280.712 1036.09 278.651 1036.86C276.604 1037.61 274.331 1036.58 273.555 1034.54Z" fill="white"/>
<path d="M265.669 1012.2L263.612 1005.4C262.952 1003.22 264.186 1000.91 266.37 1000.25C268.553 999.593 270.858 1000.83 271.518 1003.01L271.53 1003.05L271.553 1003.13L273.494 1009.79L273.518 1009.87C274.151 1012.04 272.905 1014.32 270.734 1014.95C268.577 1015.58 266.318 1014.35 265.669 1012.2Z" fill="white"/>
<path d="M259.36 989.37L257.771 982.442C257.247 980.156 258.674 977.879 260.96 977.354C263.246 976.83 265.524 978.257 266.048 980.544L266.058 980.585L266.076 980.669L267.559 987.446L267.577 987.529C268.074 989.801 266.636 992.046 264.364 992.542C262.107 993.036 259.875 991.617 259.36 989.37Z" fill="white"/>
<path d="M254.605 966.163L253.478 959.145C253.096 956.767 254.715 954.528 257.094 954.146C259.472 953.764 261.71 955.382 262.093 957.761L262.101 957.804L262.113 957.887L263.145 964.748L263.158 964.832C263.513 967.196 261.885 969.399 259.523 969.755C257.174 970.109 254.982 968.501 254.605 966.163Z" fill="white"/>
<path d="M251.377 942.694L250.701 935.618C250.466 933.155 252.272 930.969 254.735 930.733C257.198 930.498 259.385 932.304 259.62 934.767L259.624 934.812L259.631 934.896L260.222 941.809L260.229 941.893C260.438 944.338 258.625 946.49 256.179 946.699C253.749 946.907 251.609 945.115 251.377 942.694Z" fill="white"/>
<path d="M249.645 919.067L249.412 911.963C249.328 909.427 251.318 907.302 253.855 907.219C256.391 907.136 258.516 909.125 258.599 911.662L258.6 911.707L258.602 911.791L258.76 918.728L258.762 918.813C258.82 921.331 256.826 923.419 254.307 923.476C251.804 923.534 249.727 921.563 249.645 919.067Z" fill="white"/>
<path d="M249.377 895.377L249.578 888.271C249.652 885.67 251.821 883.62 254.422 883.694C257.023 883.768 259.072 885.936 258.999 888.537L258.997 888.584L258.994 888.668L258.729 895.601L258.725 895.687C258.626 898.268 256.454 900.28 253.872 900.181C251.308 900.084 249.305 897.937 249.377 895.377Z" fill="white"/>
<path d="M250.547 871.712L251.173 864.638C251.409 861.981 253.753 860.019 256.409 860.254C259.066 860.49 261.028 862.834 260.793 865.49L260.789 865.538L260.78 865.623L260.1 872.518L260.092 872.604C259.831 875.238 257.486 877.164 254.851 876.903C252.234 876.647 250.316 874.325 250.547 871.712Z" fill="white"/>
<path d="M253.126 848.171L254.172 841.135C254.574 838.434 257.089 836.569 259.791 836.971C262.493 837.373 264.358 839.888 263.956 842.59L263.949 842.639L263.935 842.725L262.846 849.577L262.832 849.664C262.406 852.342 259.89 854.168 257.213 853.743C254.55 853.32 252.732 850.83 253.126 848.171Z" fill="white"/>
<path d="M257.11 824.804L258.587 817.837C259.164 815.119 261.835 813.383 264.553 813.96C267.271 814.536 269.007 817.207 268.431 819.925L268.425 819.95L268.406 820.037L266.93 826.822L266.911 826.91C266.323 829.615 263.653 831.331 260.948 830.742C258.252 830.156 256.539 827.5 257.11 824.804Z" fill="white"/>
<path d="M262.507 801.71L264.39 794.851C265.135 792.139 267.937 790.545 270.649 791.289C273.36 792.034 274.955 794.836 274.21 797.548L274.203 797.573L274.178 797.66L272.308 804.336L272.284 804.423C271.528 807.121 268.729 808.695 266.031 807.939C263.342 807.185 261.769 804.4 262.507 801.71Z" fill="white"/>
<path d="M269.258 778.98L271.546 772.242C272.461 769.547 275.387 768.105 278.082 769.02C280.777 769.935 282.219 772.861 281.304 775.556L281.295 775.581L281.266 775.668L279.003 782.219L278.973 782.307C278.047 784.987 275.124 786.409 272.444 785.483C269.773 784.561 268.352 781.653 269.258 778.98Z" fill="white"/>
<path d="M277.353 756.686L280.042 750.095C281.129 747.429 284.172 746.15 286.838 747.237C289.504 748.324 290.783 751.367 289.696 754.033L289.686 754.058L289.65 754.146L286.999 760.548L286.963 760.635C285.866 763.286 282.827 764.545 280.177 763.447C277.533 762.354 276.275 759.33 277.353 756.686Z" fill="white"/>
<path d="M286.781 734.912L289.872 728.486C291.136 725.861 294.287 724.757 296.911 726.02C299.536 727.283 300.64 730.434 299.377 733.058L299.366 733.083L299.322 733.17L296.283 739.405L296.239 739.493C294.968 742.102 291.822 743.186 289.212 741.914C286.614 740.646 285.529 737.515 286.781 734.912Z" fill="white"/>
<path d="M297.539 713.74L301.025 707.52C302.465 704.949 305.716 704.033 308.287 705.474C310.857 706.915 311.773 710.166 310.333 712.737L310.319 712.761L310.27 712.848L306.851 718.875L306.801 718.962C305.353 721.516 302.107 722.412 299.554 720.963C297.008 719.519 296.11 716.29 297.539 713.74Z" fill="white"/>
<path d="M309.614 693.274L313.491 687.289C315.111 684.788 318.452 684.073 320.954 685.694C323.454 687.313 324.169 690.654 322.549 693.155L322.534 693.178L322.477 693.266L318.685 699.055L318.627 699.142C317 701.626 313.666 702.321 311.182 700.694C308.706 699.073 308.008 695.755 309.614 693.274Z" fill="white"/>
<path d="M322.982 673.629L327.221 667.913C329.017 665.492 332.434 664.985 334.854 666.78C337.275 668.576 337.782 671.993 335.987 674.414L335.97 674.437L335.913 674.513L331.758 680.055L331.701 680.131C329.899 682.534 326.491 683.022 324.088 681.22C321.693 679.424 321.202 676.031 322.982 673.629Z" fill="white"/>
<path d="M337.499 654.864L342.062 649.402C344.015 647.063 347.495 646.751 349.833 648.704C352.172 650.657 352.484 654.137 350.531 656.475L350.513 656.497L350.452 656.569L345.983 661.864L345.922 661.936C343.963 664.257 340.493 664.55 338.172 662.591C335.859 660.639 335.561 657.185 337.499 654.864Z" fill="white"/>
<path d="M353.066 636.964L357.929 631.769C360.035 629.521 363.564 629.405 365.813 631.51C368.062 633.616 368.178 637.145 366.073 639.394L366.053 639.415L365.988 639.483L361.226 644.517L361.162 644.586C359.052 646.817 355.533 646.914 353.303 644.804C351.08 642.7 350.977 639.195 353.066 636.964Z" fill="white"/>
<path d="M369.61 619.969L374.753 615.051C377.004 612.899 380.574 612.98 382.726 615.229C384.878 617.48 384.798 621.05 382.547 623.202L382.526 623.222L382.459 623.285L377.425 628.049L377.357 628.112C375.103 630.245 371.546 630.147 369.412 627.893C367.286 625.647 367.377 622.105 369.61 619.969Z" fill="white"/>
<path d="M387.058 603.908L392.457 599.277C394.846 597.227 398.445 597.502 400.494 599.891C402.544 602.28 402.269 605.879 399.88 607.928L399.858 607.947L399.788 608.005L394.504 612.491L394.434 612.551C392.042 614.581 388.457 614.288 386.427 611.896C384.402 609.513 384.688 605.943 387.058 603.908Z" fill="white"/>
<path d="M405.334 588.807L410.968 584.465C413.487 582.523 417.105 582.993 419.047 585.512C420.989 588.032 420.52 591.649 418 593.592L417.977 593.609L417.906 593.663L412.392 597.867L412.32 597.922C409.798 599.844 406.195 599.359 404.273 596.836C402.357 594.323 402.835 590.734 405.334 588.807Z" fill="white"/>
<path d="M424.368 574.678L430.215 570.631C432.858 568.801 436.485 569.461 438.314 572.104C440.145 574.747 439.485 578.374 436.842 580.203L436.816 580.22L436.744 580.269L431.021 584.187L430.948 584.237C428.304 586.047 424.692 585.371 422.881 582.726C421.077 580.092 421.745 576.495 424.368 574.678Z" fill="white"/>
<path d="M444.087 561.533L450.126 557.782C452.885 556.068 456.512 556.915 458.226 559.675C459.941 562.435 459.093 566.061 456.333 567.776L456.306 567.792L456.232 567.837L450.321 571.466L450.247 571.511C447.487 573.205 443.876 572.342 442.182 569.582C440.496 566.832 441.349 563.235 444.087 561.533Z" fill="white"/>
<path d="M464.425 549.375L470.637 545.922C473.506 544.326 477.125 545.359 478.72 548.227C480.315 551.096 479.283 554.715 476.414 556.31L476.387 556.324L476.313 556.365L470.232 559.705L470.157 559.746C467.289 561.321 463.686 560.273 462.111 557.405C460.541 554.547 461.579 550.959 464.425 549.375Z" fill="white"/>
<path d="M485.334 538.238L491.707 535.094C494.657 533.639 498.229 534.85 499.684 537.8C501.139 540.75 499.928 544.322 496.978 545.777L496.971 545.78L496.896 545.817L490.67 548.881L490.595 548.918C487.645 550.369 484.077 549.154 482.625 546.204C481.174 543.253 482.384 539.688 485.334 538.238Z" fill="white"/>
<path d="M506.742 528.104L513.251 525.257C516.272 523.936 519.791 525.314 521.113 528.335C522.434 531.355 521.056 534.874 518.036 536.196L518.029 536.199L517.955 536.231L511.592 539.006L511.517 539.039C508.496 540.356 504.981 538.975 503.664 535.955C502.346 532.934 503.721 529.421 506.742 528.104Z" fill="white"/>
<path d="M528.585 518.96L535.214 516.409C538.298 515.223 541.759 516.761 542.946 519.844C544.132 522.928 542.593 526.389 539.51 527.575L539.503 527.578L539.428 527.606L532.945 530.092L532.87 530.121C529.788 531.302 526.33 529.762 525.148 526.679C523.967 523.598 525.501 520.141 528.585 518.96Z" fill="white"/>
<path d="M550.81 510.804L557.54 508.55C560.68 507.498 564.078 509.192 565.129 512.331C566.181 515.471 564.487 518.869 561.348 519.92L561.341 519.922L561.266 519.948L554.682 522.144L554.607 522.169C551.469 523.216 548.075 521.521 547.028 518.382C545.982 515.241 547.671 511.851 550.81 510.804Z" fill="white"/>
<path d="M573.366 503.632L580.195 501.671C583.384 500.755 586.712 502.599 587.628 505.788C588.543 508.977 586.7 512.305 583.51 513.221L583.504 513.223L583.429 513.244L576.747 515.155L576.672 515.176C573.484 516.088 570.16 514.242 569.249 511.053C568.338 507.866 570.178 504.544 573.366 503.632Z" fill="white"/>
<path d="M596.215 497.443L603.128 495.776C606.361 494.997 609.613 496.986 610.393 500.218C611.173 503.451 609.184 506.703 605.952 507.484L605.945 507.485L605.87 507.503L599.106 509.126L599.031 509.144C595.8 509.919 592.551 507.928 591.776 504.697C590.999 501.466 592.984 498.219 596.215 497.443Z" fill="white"/>
<path d="M619.314 492.238L626.281 490.87C629.552 490.228 632.723 492.357 633.365 495.627C634.007 498.897 631.877 502.069 628.607 502.711L628.601 502.712L628.526 502.726L621.707 504.058L621.631 504.073C618.363 504.711 615.196 502.579 614.557 499.31C613.92 496.042 616.046 492.876 619.314 492.238Z" fill="white"/>
<path d="M642.602 488.021L649.62 486.949C652.921 486.445 656.006 488.711 656.511 492.012C657.015 495.313 654.748 498.399 651.447 498.903L651.441 498.904L651.365 498.916L644.497 499.958L644.421 499.969C641.121 500.47 638.041 498.2 637.541 494.901C637.039 491.601 639.302 488.521 642.602 488.021Z" fill="white"/>
<path d="M666.047 484.792L673.105 484.019C676.431 483.654 679.424 486.054 679.789 489.381C680.154 492.707 677.753 495.7 674.427 496.065L674.42 496.066L674.344 496.075L667.439 496.824L667.362 496.833C664.036 497.193 661.048 494.792 660.687 491.466C660.326 488.142 662.722 485.154 666.047 484.792Z" fill="white"/>
<path d="M689.608 482.561L696.704 482.086C700.05 481.862 702.944 484.392 703.169 487.739C703.394 491.085 700.862 493.979 697.516 494.204H697.509L697.432 494.209L690.491 494.666L690.414 494.671C687.07 494.891 684.18 492.358 683.959 489.013C683.738 485.671 686.264 482.781 689.608 482.561Z" fill="white"/>
<path d="M713.257 481.333L720.361 481.162C723.721 481.081 726.51 483.739 726.59 487.099C726.672 490.459 724.013 493.249 720.654 493.33H720.647L720.569 493.332L713.622 493.491L713.544 493.493C710.186 493.57 707.402 490.911 707.324 487.553C707.246 484.194 709.899 481.41 713.257 481.333Z" fill="white"/>
<path d="M736.927 481.117L744.015 481.242C747.383 481.301 750.065 484.079 750.006 487.446C749.947 490.814 747.169 493.496 743.801 493.437H743.795L743.723 493.436L736.777 493.306L736.706 493.305C733.34 493.242 730.663 490.463 730.726 487.097C730.789 483.732 733.561 481.054 736.927 481.117Z" fill="white"/>
<path d="M760.556 481.853L767.638 482.252C771.008 482.442 773.587 485.326 773.397 488.697C773.207 492.067 770.323 494.645 766.952 494.456H766.946L766.876 494.451L759.934 494.054L759.865 494.05C756.497 493.857 753.924 490.97 754.117 487.603C754.309 484.234 757.189 481.66 760.556 481.853Z" fill="white"/>
<path d="M784.14 483.493L791.201 484.157C794.568 484.474 797.041 487.461 796.725 490.829C796.407 494.196 793.42 496.669 790.053 496.352L790.046 496.351L789.979 496.345L783.055 495.686L782.987 495.68C779.621 495.359 777.153 492.371 777.474 489.007C777.795 485.64 780.776 483.172 784.14 483.493Z" fill="white"/>
<path d="M807.642 486.011L814.671 486.935C818.032 487.377 820.398 490.458 819.957 493.82C819.515 497.18 816.433 499.547 813.072 499.105L813.066 499.104L812.999 499.095L806.103 498.181L806.037 498.173C802.679 497.728 800.317 494.645 800.762 491.287C801.208 487.929 804.284 485.566 807.642 486.011Z" fill="white"/>
<path d="M831.031 489.385L838.021 490.56C841.371 491.123 843.63 494.294 843.067 497.644C842.504 500.993 839.333 503.253 835.983 502.69L835.977 502.689L835.912 502.678L829.052 501.518L828.988 501.508C825.641 500.942 823.386 497.769 823.952 494.423C824.518 491.076 827.683 488.819 831.031 489.385Z" fill="white"/>
<path d="M854.28 493.585L861.223 495.001C864.558 495.681 866.71 498.936 866.03 502.271C865.35 505.606 862.094 507.758 858.759 507.078L858.753 507.077L858.691 507.064L851.873 505.666L851.811 505.653C848.479 504.97 846.331 501.714 847.014 498.383C847.699 495.049 850.947 492.9 854.28 493.585Z" fill="white"/>
<path d="M877.364 498.579L884.254 500.228C887.571 501.022 889.616 504.354 888.822 507.672C888.029 510.989 884.696 513.034 881.378 512.241L881.372 512.238L881.312 512.224L874.543 510.596L874.483 510.581C871.169 509.784 869.128 506.451 869.925 503.136C870.724 499.824 874.05 497.782 877.364 498.579Z" fill="white"/>
<path d="M900.264 504.341L907.095 506.215C910.391 507.119 912.331 510.524 911.426 513.819C910.522 517.115 907.117 519.055 903.821 518.15L903.815 518.148L903.757 518.133L897.043 516.283L896.985 516.267C893.691 515.361 891.758 511.955 892.664 508.662C893.572 505.37 896.97 503.434 900.264 504.341Z" fill="white"/>
<path d="M922.959 510.84L929.726 512.928C932.998 513.938 934.833 517.41 933.823 520.683C932.813 523.955 929.341 525.79 926.068 524.78L926.062 524.778L926.007 524.761L919.354 522.7L919.298 522.683C916.029 521.67 914.2 518.198 915.213 514.928C916.224 511.658 919.69 509.827 922.959 510.84Z" fill="white"/>
<path d="M945.435 518.044L952.132 520.339C955.379 521.451 957.109 524.985 955.997 528.232C954.885 531.48 951.351 533.21 948.103 532.098L948.097 532.095L948.044 532.078L941.456 529.812L941.402 529.794C938.159 528.678 936.433 525.144 937.549 521.901C938.664 518.656 942.191 516.928 945.435 518.044Z" fill="white"/>
<path d="M967.671 525.937L974.291 528.441C977.495 529.654 979.11 533.233 977.898 536.437C976.685 539.641 973.106 541.255 969.902 540.044L969.866 540.03L963.342 537.581L963.291 537.562C960.08 536.357 958.453 532.775 959.659 529.564C960.865 526.352 964.446 524.726 967.657 525.932L967.671 525.937Z" fill="white"/>
<path d="M989.65 534.508L996.184 537.197C999.337 538.495 1000.84 542.102 999.542 545.254C998.245 548.407 994.638 549.91 991.485 548.612L991.452 548.599L985.008 545.966L984.959 545.946C981.798 544.654 980.283 541.046 981.575 537.886C982.866 534.726 986.475 533.21 989.635 534.501L989.65 534.508Z" fill="white"/>
<path d="M1011.36 543.695L1017.82 546.568C1020.92 547.946 1022.32 551.577 1020.94 554.677C1019.56 557.777 1015.93 559.173 1012.83 557.794L1012.8 557.78L1006.42 554.965L1006.38 554.945C1003.27 553.572 1001.86 549.94 1003.23 546.833C1004.61 543.725 1008.24 542.318 1011.35 543.691L1011.36 543.695Z" fill="white"/>
<path d="M1032.81 553.478L1039.19 556.527C1042.24 557.982 1043.53 561.63 1042.07 564.677C1040.62 567.723 1036.97 569.014 1033.92 567.559L1033.89 567.545L1027.59 564.555L1027.55 564.534C1024.49 563.085 1023.19 559.434 1024.64 556.38C1026.09 553.325 1029.74 552.023 1032.79 553.473L1032.81 553.478Z" fill="white"/>
<path d="M1054 563.839L1060.3 567.055C1063.29 568.582 1064.48 572.246 1062.95 575.238C1061.43 578.23 1057.76 579.418 1054.77 577.891L1054.74 577.876L1048.52 574.718L1048.47 574.697C1045.47 573.176 1044.27 569.51 1045.8 566.509C1047.32 563.509 1050.98 562.31 1053.98 563.831L1054 563.839Z" fill="white"/>
<path d="M1074.9 574.742L1081.12 578.12C1084.06 579.715 1085.14 583.389 1083.55 586.326C1081.96 589.264 1078.28 590.353 1075.34 588.758L1075.32 588.743L1069.17 585.425L1069.13 585.403C1066.18 583.813 1065.08 580.136 1066.67 577.191C1068.26 574.245 1071.94 573.145 1074.89 574.735L1074.9 574.742Z" fill="white"/>
<path d="M1095.51 586.171L1101.64 589.696C1104.52 591.356 1105.51 595.037 1103.85 597.92C1102.19 600.802 1098.51 601.793 1095.63 600.135L1095.6 600.12L1089.55 596.654L1089.51 596.631C1086.62 594.977 1085.62 591.292 1087.27 588.401C1088.92 585.511 1092.61 584.508 1095.5 586.162L1095.51 586.171Z" fill="white"/>
<path d="M1115.83 598.097L1121.88 601.775C1124.7 603.495 1125.6 607.182 1123.88 610.009C1122.16 612.835 1118.47 613.734 1115.65 612.013L1115.62 611.998L1109.64 608.38L1109.6 608.358C1106.77 606.642 1105.86 602.953 1107.57 600.117C1109.29 597.281 1112.98 596.373 1115.82 598.089L1115.83 598.097Z" fill="white"/>
<path d="M1135.86 610.513L1141.81 614.332C1144.58 616.11 1145.39 619.798 1143.61 622.57C1141.83 625.341 1138.15 626.147 1135.37 624.369L1135.35 624.355L1129.46 620.596L1129.42 620.573C1126.64 618.799 1125.83 615.108 1127.6 612.328C1129.37 609.548 1133.06 608.732 1135.84 610.505L1135.86 610.513Z" fill="white"/>
<path d="M1155.59 623.399L1161.45 627.352C1164.17 629.184 1164.88 632.871 1163.05 635.587C1161.22 638.303 1157.53 639.019 1154.81 637.187L1154.79 637.172L1148.99 633.279L1148.96 633.256C1146.23 631.428 1145.51 627.738 1147.34 625.012C1149.16 622.287 1152.85 621.562 1155.58 623.389L1155.59 623.399Z" fill="white"/>
<path d="M1175 636.724L1180.77 640.798C1183.43 642.68 1184.06 646.363 1182.18 649.024C1180.3 651.685 1176.61 652.318 1173.95 650.436L1173.94 650.424L1168.22 646.405L1168.19 646.384C1165.52 644.506 1164.88 640.82 1166.76 638.149C1168.63 635.478 1172.32 634.836 1174.99 636.714L1175 636.724Z" fill="white"/>
<path d="M1194.11 650.43L1199.79 654.607C1202.4 656.529 1202.96 660.204 1201.04 662.816C1199.12 665.427 1195.44 665.987 1192.83 664.066L1192.82 664.057L1187.18 659.93L1187.15 659.912C1184.53 657.994 1183.96 654.315 1185.88 651.694C1187.8 649.073 1191.48 648.502 1194.1 650.42L1194.11 650.43Z" fill="white"/>
<path d="M1212.96 664.467L1218.57 668.732C1221.13 670.684 1221.63 674.349 1219.68 676.918C1217.73 679.485 1214.06 679.983 1211.49 678.031L1211.49 678.025L1205.91 673.805L1205.89 673.789C1203.31 671.84 1202.8 668.171 1204.75 665.594C1206.7 663.017 1210.37 662.509 1212.95 664.459L1212.96 664.467Z" fill="white"/>
<path d="M1231.58 678.769L1237.12 683.104C1239.65 685.081 1240.1 688.733 1238.12 691.262C1236.14 693.79 1232.49 694.238 1229.96 692.261L1229.96 692.258L1224.44 687.963L1224.42 687.95C1221.88 685.977 1221.42 682.32 1223.4 679.782C1225.37 677.245 1229.03 676.787 1231.56 678.76L1231.58 678.769Z" fill="white"/>
<path d="M1250 693.286L1255.5 697.677C1258 699.668 1258.41 703.307 1256.41 705.801C1254.42 708.297 1250.78 708.704 1248.29 706.712L1242.8 702.356L1242.79 702.346C1240.29 700.358 1239.87 696.715 1241.86 694.211C1243.85 691.707 1247.49 691.29 1249.99 693.278L1250 693.286Z" fill="white"/>
<path d="M1268.29 707.97L1273.75 712.399C1276.22 714.399 1276.6 718.021 1274.6 720.488C1272.6 722.955 1268.98 723.337 1266.51 721.336L1261.05 716.934C1258.57 714.941 1258.18 711.315 1260.17 708.836C1262.16 706.356 1265.79 705.96 1268.27 707.953L1268.29 707.97Z" fill="white"/>
<path d="M1286.47 722.766L1291.91 727.22C1294.35 729.221 1294.71 732.825 1292.71 735.27C1290.71 737.715 1287.11 738.08 1284.66 736.079L1279.22 731.648C1276.77 729.652 1276.39 726.043 1278.39 723.587C1280.39 721.132 1284 720.759 1286.45 722.755L1286.47 722.766Z" fill="white"/>
<path d="M1304.58 737.622L1310.01 742.082C1312.44 744.078 1312.79 747.664 1310.79 750.092C1308.8 752.52 1305.22 752.88 1302.79 750.884L1297.36 746.438C1294.92 744.446 1294.56 740.855 1296.55 738.418C1298.54 735.98 1302.13 735.618 1304.57 737.611L1304.58 737.622Z" fill="white"/>
<path d="M1322.67 752.486L1328.1 756.94C1330.52 758.921 1330.87 762.488 1328.89 764.906C1326.91 767.325 1323.35 767.686 1320.93 765.705L1315.49 761.261C1313.06 759.281 1312.7 755.711 1314.68 753.284C1316.66 750.858 1320.23 750.496 1322.66 752.475L1322.67 752.486Z" fill="white"/>
<path d="M1340.78 767.307L1346.22 771.737C1348.63 773.697 1349 777.243 1347.04 779.657C1345.08 782.071 1341.54 782.445 1339.13 780.485L1333.66 776.058C1331.24 774.098 1330.87 770.547 1332.83 768.126C1334.79 765.705 1338.34 765.332 1340.76 767.292L1340.78 767.307Z" fill="white"/>
<path d="M1358.94 782.032L1364.41 786.423L1364.42 786.432C1366.83 788.368 1367.22 791.894 1365.28 794.305C1363.34 796.716 1359.83 797.111 1357.42 795.173L1351.92 790.78C1349.5 788.846 1349.1 785.316 1351.04 782.895C1352.97 780.475 1356.5 780.08 1358.92 782.015L1358.93 782.023L1358.94 782.032Z" fill="white"/>
<path d="M1377.2 796.607L1382.71 800.944L1382.72 800.955C1385.14 802.859 1385.55 806.362 1383.65 808.778C1381.74 811.195 1378.25 811.619 1375.84 809.715L1370.29 805.371C1367.87 803.47 1367.44 799.963 1369.35 797.537C1371.25 795.112 1374.75 794.687 1377.18 796.588L1377.19 796.597L1377.2 796.607Z" fill="white"/>
<path d="M1395.6 810.983L1401.15 815.249L1401.17 815.262C1403.59 817.126 1404.05 820.605 1402.19 823.032C1400.32 825.458 1396.85 825.922 1394.43 824.058L1388.83 819.779C1386.4 817.918 1385.93 814.435 1387.79 812C1389.65 809.566 1393.14 809.1 1395.57 810.962L1395.58 810.97L1395.6 810.983Z" fill="white"/>
<path d="M1414.18 825.109L1419.79 829.285L1419.81 829.302C1422.25 831.118 1422.76 834.57 1420.94 837.012C1419.13 839.454 1415.69 839.968 1413.25 838.152L1407.58 833.957C1405.13 832.143 1404.61 828.687 1406.42 826.237C1408.24 823.787 1411.69 823.271 1414.14 825.084L1414.16 825.093L1414.18 825.109Z" fill="white"/>
<path d="M1432.97 838.911L1438.65 842.982L1438.68 843.001C1441.14 844.764 1441.7 848.187 1439.94 850.647C1438.18 853.108 1434.77 853.681 1432.31 851.919L1426.56 847.825C1424.09 846.067 1423.51 842.639 1425.27 840.17C1427.03 837.701 1430.46 837.125 1432.93 838.884L1432.94 838.892L1432.97 838.911Z" fill="white"/>
<path d="M1452 852.345L1457.77 856.295L1457.8 856.315C1460.28 858.017 1460.91 861.409 1459.21 863.892C1457.51 866.374 1454.13 867.015 1451.65 865.314L1445.81 861.338C1443.32 859.639 1442.68 856.244 1444.38 853.752C1446.08 851.261 1449.47 850.618 1451.96 852.316L1451.98 852.325L1452 852.345Z" fill="white"/>
<path d="M1471.31 865.357L1477.16 869.18L1477.19 869.202C1479.69 870.838 1480.39 874.189 1478.76 876.688C1477.13 879.178 1473.79 879.882 1471.3 878.271L1465.36 874.439C1462.85 872.812 1462.12 869.452 1463.75 866.934C1465.38 864.415 1468.74 863.692 1471.25 865.318L1471.28 865.335L1471.31 865.357Z" fill="white"/>
<path d="M1490.9 877.926L1496.84 881.594L1496.88 881.617C1499.39 883.167 1500.17 886.456 1498.62 888.964C1497.07 891.463 1493.8 892.243 1491.3 890.717L1485.26 887.038C1482.73 885.498 1481.93 882.2 1483.47 879.672C1485.01 877.144 1488.31 876.344 1490.84 877.886L1490.87 877.902L1490.9 877.926Z" fill="white"/>
<path d="M1510.81 889.956L1516.85 893.451L1516.89 893.475C1519.41 894.933 1520.27 898.157 1518.81 900.675C1517.36 903.184 1514.15 904.046 1511.64 902.61L1505.5 899.104C1502.96 897.655 1502.08 894.424 1503.53 891.886C1504.97 889.348 1508.21 888.466 1510.74 889.915L1510.77 889.931L1510.81 889.956Z" fill="white"/>
<path d="M1531.06 901.384L1537.2 904.685L1537.24 904.71C1539.77 906.07 1540.72 909.222 1539.36 911.753C1538.01 914.272 1534.87 915.222 1532.35 913.885L1526.09 910.573C1523.55 909.222 1522.58 906.062 1523.93 903.514C1525.28 900.966 1528.44 899.996 1530.98 901.345L1531.01 901.36L1531.06 901.384Z" fill="white"/>
<path d="M1551.65 912.142L1557.91 915.232L1557.96 915.257C1560.5 916.511 1561.54 919.589 1560.29 922.13C1559.04 924.661 1555.98 925.704 1553.44 924.471L1547.07 921.368C1544.51 920.123 1543.44 917.04 1544.69 914.482C1545.93 911.923 1549.01 910.858 1551.57 912.103L1551.6 912.117L1551.65 912.142Z" fill="white"/>
<path d="M1572.61 922.162L1578.97 925.01L1579.02 925.035C1581.57 926.177 1582.71 929.173 1581.57 931.724C1580.43 934.266 1577.45 935.407 1574.91 934.285L1568.43 931.426C1565.86 930.294 1564.7 927.293 1565.83 924.725C1566.96 922.156 1569.96 920.992 1572.53 922.126L1572.56 922.137L1572.61 922.162Z" fill="white"/>
<path d="M1593.91 931.355L1600.37 933.94L1600.43 933.964C1602.99 934.988 1604.23 937.895 1603.21 940.454C1602.19 943.004 1599.3 944.247 1596.75 943.244L1590.16 940.651C1587.58 939.637 1586.32 936.726 1587.33 934.149C1588.34 931.572 1591.25 930.306 1593.83 931.321L1593.86 931.331L1593.91 931.355Z" fill="white"/>
<path d="M1615.57 939.653L1622.12 941.953L1622.19 941.975C1624.75 942.876 1626.1 945.686 1625.2 948.252C1624.31 950.807 1621.51 952.157 1618.95 951.277L1612.26 948.972C1609.68 948.083 1608.31 945.269 1609.19 942.687C1610.08 940.105 1612.9 938.732 1615.48 939.621L1615.51 939.631L1615.57 939.653Z" fill="white"/>
<path d="M1637.56 946.976L1644.21 948.971L1644.28 948.991C1646.85 949.761 1648.3 952.467 1647.53 955.034C1646.77 957.593 1644.08 959.048 1641.52 958.298L1634.72 956.305C1632.13 955.547 1630.66 952.838 1631.41 950.254C1632.17 947.67 1634.88 946.191 1637.46 946.948L1637.49 946.956L1637.56 946.976Z" fill="white"/>
<path d="M1659.85 953.25L1666.6 954.918L1666.67 954.936C1669.24 955.571 1670.8 958.165 1670.17 960.73C1669.54 963.285 1666.96 964.849 1664.4 964.233L1657.5 962.571C1654.92 961.949 1653.34 959.353 1653.96 956.773C1654.58 954.192 1657.17 952.604 1659.75 953.226L1659.78 953.233L1659.85 953.25Z" fill="white"/>
<path d="M1682.43 958.372L1689.25 959.662L1689.33 959.677C1691.89 960.16 1693.57 962.627 1693.09 965.186C1692.61 967.736 1690.15 969.415 1687.61 968.95L1680.62 967.673C1678.04 967.202 1676.34 964.734 1676.81 962.162C1677.28 959.588 1679.75 957.883 1682.32 958.353L1682.35 958.359L1682.43 958.372Z" fill="white"/>
<path d="M1705.25 962.219L1712.14 963.12L1712.21 963.131C1714.76 963.464 1716.55 965.797 1716.22 968.341C1715.89 970.876 1713.57 972.665 1711.04 972.349L1703.99 971.468C1701.43 971.149 1699.62 968.815 1699.93 966.258C1700.25 963.7 1702.59 961.885 1705.15 962.205L1705.17 962.208L1705.25 962.219Z" fill="white"/>
<path d="M1728.25 964.764L1735.18 965.269L1735.26 965.275C1737.78 965.459 1739.68 967.653 1739.49 970.174C1739.31 972.686 1737.13 974.576 1734.62 974.408L1727.53 973.932C1725 973.763 1723.08 971.571 1723.25 969.036C1723.42 966.502 1725.61 964.586 1728.15 964.756L1728.17 964.758L1728.25 964.764Z" fill="white"/>
<path d="M1751.36 965.977L1758.31 966.075L1758.39 966.076C1760.88 966.111 1762.87 968.158 1762.83 970.647C1762.8 973.128 1760.76 975.111 1758.29 975.092L1751.18 975.034C1748.68 975.013 1746.67 972.969 1746.69 970.468C1746.71 967.967 1748.76 965.956 1751.26 965.977H1751.28H1751.36Z" fill="white"/>
<path d="M1774.5 965.817L1781.44 965.494L1781.52 965.49C1783.97 965.376 1786.04 967.269 1786.16 969.718C1786.27 972.158 1784.39 974.229 1781.96 974.358L1774.86 974.73C1772.4 974.859 1770.3 972.97 1770.17 970.51C1770.04 968.05 1771.93 965.951 1774.39 965.822L1774.42 965.821L1774.5 965.817Z" fill="white"/>
<path d="M1797.58 964.235L1804.48 963.476L1804.56 963.467C1806.96 963.202 1809.12 964.933 1809.38 967.332C1809.65 969.722 1807.93 971.874 1805.54 972.151L1798.48 972.971C1796.07 973.251 1793.9 971.525 1793.62 969.116C1793.34 966.707 1795.06 964.527 1797.47 964.248L1797.5 964.245L1797.58 964.235Z" fill="white"/>
<path d="M1820.5 961.179L1827.33 959.965L1827.41 959.949C1829.75 959.534 1831.99 961.093 1832.4 963.432C1832.82 965.762 1831.27 967.986 1828.94 968.414L1821.95 969.7C1819.6 970.131 1817.35 968.578 1816.92 966.23C1816.49 963.882 1818.04 961.63 1820.39 961.198L1820.41 961.193L1820.5 961.179Z" fill="white"/>
<path d="M1843.15 956.589L1849.88 954.905L1849.97 954.883C1852.23 954.315 1854.53 955.693 1855.1 957.96C1855.66 960.218 1854.3 962.508 1852.05 963.087L1845.15 964.856C1842.88 965.44 1840.56 964.07 1839.98 961.794C1839.39 959.519 1840.76 957.202 1843.04 956.618L1843.06 956.611L1843.15 956.589Z" fill="white"/>
<path d="M1865.41 950.41L1871.99 948.239L1872.08 948.21C1874.26 947.49 1876.62 948.675 1877.34 950.858C1878.05 953.033 1876.88 955.378 1874.71 956.108L1867.97 958.378C1865.78 959.114 1863.4 957.937 1862.67 955.747C1861.93 953.557 1863.11 951.185 1865.3 950.448L1865.32 950.441L1865.41 950.41Z" fill="white"/>
<path d="M1887.13 942.592L1893.53 939.929L1893.62 939.891C1895.7 939.023 1898.09 940.008 1898.96 942.09C1899.82 944.162 1898.85 946.54 1896.79 947.418L1890.24 950.212C1888.15 951.104 1885.73 950.132 1884.84 948.041C1883.95 945.951 1884.92 943.534 1887.01 942.643L1887.05 942.629L1887.13 942.592Z" fill="white"/>
<path d="M1908.19 933.131L1914.34 929.962L1914.43 929.917C1916.38 928.914 1918.78 929.681 1919.78 931.63C1920.78 933.568 1920.02 935.945 1918.1 936.959L1911.8 940.279C1909.84 941.31 1907.42 940.559 1906.39 938.603C1905.36 936.646 1906.11 934.224 1908.06 933.193L1908.1 933.175L1908.19 933.131Z" fill="white"/>
<path d="M1928.39 921.976L1934.25 918.299L1934.34 918.247C1936.14 917.115 1938.52 917.662 1939.65 919.465C1940.78 921.259 1940.24 923.62 1938.47 924.759L1932.47 928.601C1930.66 929.76 1928.25 929.233 1927.09 927.423C1925.93 925.614 1926.46 923.208 1928.27 922.05L1928.3 922.029L1928.39 921.976Z" fill="white"/>
<path d="M1947.55 909.135L1953.06 904.959L1953.15 904.889C1954.8 903.641 1957.14 903.962 1958.39 905.608C1959.63 907.243 1959.32 909.572 1957.7 910.827L1952.06 915.197C1950.41 916.474 1948.04 916.172 1946.76 914.523C1945.48 912.874 1945.79 910.503 1947.44 909.227L1947.46 909.204L1947.55 909.135Z" fill="white"/>
<path d="M1965.39 894.57L1970.46 889.857L1970.53 889.785C1972 888.42 1974.29 888.502 1975.66 889.967C1977.02 891.423 1976.94 893.7 1975.5 895.068L1970.33 899.978C1968.86 901.37 1966.55 901.311 1965.16 899.844C1963.76 898.377 1963.82 896.061 1965.29 894.668L1965.32 894.644L1965.39 894.57Z" fill="white"/>
<path d="M1981.72 878.294L1986.31 873.109L1986.38 873.034C1987.66 871.581 1989.88 871.446 1991.33 872.731C1992.78 874.008 1992.92 876.209 1991.66 877.662L1986.99 883.043C1985.71 884.523 1983.47 884.682 1981.99 883.399C1980.51 882.116 1980.35 879.875 1981.63 878.396L1981.65 878.37L1981.72 878.294Z" fill="white"/>
<path d="M1996.44 860.515L2000.52 854.919L2000.57 854.842C2001.68 853.326 2003.81 852.995 2005.32 854.101C2006.83 855.199 2007.16 857.307 2006.08 858.82L2001.94 864.611C2000.84 866.154 1998.7 866.51 1997.15 865.407C1995.61 864.306 1995.26 862.162 1996.36 860.62L1996.38 860.592L1996.44 860.515Z" fill="white"/>
<path d="M2009.43 841.428L2012.98 835.474L2013.03 835.395C2013.96 833.838 2015.98 833.328 2017.53 834.256C2019.08 835.179 2019.59 837.176 2018.69 838.729L2015.1 844.875C2014.18 846.458 2012.15 846.992 2010.57 846.07C2008.98 845.147 2008.45 843.116 2009.37 841.533L2009.39 841.505L2009.43 841.428Z" fill="white"/>
<path d="M2020.62 821.209L2023.6 814.95L2023.64 814.869C2024.39 813.29 2026.28 812.621 2027.86 813.372C2029.43 814.121 2030.1 815.993 2029.37 817.566L2026.37 824.017C2025.63 825.62 2023.72 826.317 2022.12 825.572C2020.52 824.826 2019.82 822.922 2020.56 821.318L2020.58 821.289L2020.62 821.209Z" fill="white"/>
<path d="M2029.87 800.031L2032.25 793.516L2032.28 793.433C2032.86 791.849 2034.61 791.033 2036.19 791.612C2037.77 792.187 2038.58 793.923 2038.02 795.499L2035.65 802.204C2035.08 803.811 2033.32 804.653 2031.71 804.083C2030.1 803.514 2029.26 801.749 2029.83 800.141L2029.84 800.113L2029.87 800.031Z" fill="white"/>
<path d="M2037.05 778.065L2038.78 771.349L2038.81 771.264C2039.21 769.692 2040.81 768.746 2042.38 769.152C2043.95 769.555 2044.89 771.142 2044.5 772.703L2042.8 779.608C2042.4 781.202 2040.79 782.175 2039.2 781.781C2037.6 781.386 2036.63 779.774 2037.02 778.18L2037.03 778.152L2037.05 778.065Z" fill="white"/>
<path d="M2042.02 755.497L2043.06 748.641L2043.07 748.552C2043.3 747.01 2044.74 745.948 2046.28 746.181C2047.82 746.412 2048.87 747.836 2048.66 749.367L2047.67 756.411C2047.45 757.975 2046 759.064 2044.44 758.843C2042.87 758.623 2041.79 757.177 2042.01 755.614L2042.01 755.587L2042.02 755.497Z" fill="white"/>
<path d="M2044.61 732.538L2044.9 725.62L2044.9 725.529C2044.96 724.034 2046.22 722.872 2047.72 722.933C2049.2 722.994 2050.36 724.242 2050.31 725.725L2050.09 732.827C2050.04 734.342 2048.78 735.531 2047.26 735.484C2045.75 735.436 2044.56 734.169 2044.61 732.655L2044.61 732.627L2044.61 732.538Z" fill="white"/>
<path d="M2044.64 709.45L2044.13 702.538L2044.13 702.446C2044.02 701.016 2045.1 699.772 2046.52 699.666C2047.94 699.561 2049.18 700.622 2049.3 702.038L2049.89 709.129C2050.02 710.577 2048.94 711.848 2047.49 711.968C2046.05 712.089 2044.77 711.014 2044.65 709.567L2044.65 709.542L2044.64 709.45Z" fill="white"/>
<path d="M2041.97 686.514L2040.63 679.716L2040.61 679.624C2040.35 678.281 2041.22 676.976 2042.56 676.71C2043.9 676.445 2045.2 677.308 2045.47 678.637L2046.92 685.604C2047.21 686.964 2046.33 688.296 2044.97 688.578C2043.61 688.861 2042.28 687.989 2042 686.629L2041.99 686.605L2041.97 686.514Z" fill="white"/>
<path d="M2036.49 664.082L2034.3 657.509L2034.27 657.421C2033.85 656.182 2034.52 654.842 2035.76 654.428C2036.99 654.017 2038.33 654.676 2038.75 655.9L2041.07 662.626C2041.5 663.88 2040.84 665.246 2039.59 665.679C2038.33 666.111 2036.97 665.446 2036.53 664.193L2036.53 664.171L2036.49 664.082Z" fill="white"/>
<path d="M667.875 858.97C736.329 858.97 791.821 803.478 791.821 735.024C791.821 666.571 736.329 611.079 667.875 611.079C599.422 611.079 543.93 666.571 543.93 735.024C543.93 803.478 599.422 858.97 667.875 858.97Z" fill="url(#paint41_linear_449_427)"/>
<path d="M553.619 730.262C553.596 730.262 553.572 730.262 553.549 730.261C552.827 730.223 552.272 729.607 552.31 728.886C552.565 724.016 553.131 719.126 553.993 714.35C554.121 713.639 554.798 713.166 555.514 713.293C556.226 713.422 556.699 714.103 556.57 714.815C555.729 719.482 555.175 724.262 554.926 729.021C554.888 729.72 554.31 730.262 553.619 730.262Z" fill="url(#paint42_linear_449_427)"/>
<path d="M565.67 684.847C565.472 684.847 565.27 684.802 565.08 684.705C564.435 684.38 564.176 683.592 564.502 682.947C584.318 643.687 623.928 619.298 667.874 619.298C674.882 619.298 681.906 619.929 688.749 621.178C689.461 621.306 689.932 621.988 689.804 622.7C689.674 623.413 688.995 623.888 688.28 623.752C681.591 622.534 674.726 621.916 667.874 621.916C624.922 621.916 586.208 645.754 566.838 684.125C566.61 684.583 566.149 684.847 565.67 684.847Z" fill="url(#paint43_linear_449_427)"/>
<path opacity="0.88" d="M744.745 811.903C785.712 770.936 785.712 704.515 744.745 663.547C703.777 622.58 637.356 622.58 596.389 663.547C555.422 704.515 555.422 770.936 596.389 811.903C637.356 852.87 703.777 852.87 744.745 811.903Z" fill="white"/>
<path d="M667.219 801.105C630.843 801.105 601.249 771.51 601.249 735.134C601.249 698.758 630.842 669.164 667.219 669.164C703.595 669.164 733.19 698.758 733.19 735.134C733.189 771.51 703.595 801.105 667.219 801.105ZM667.219 676.359C634.811 676.359 608.445 702.726 608.445 735.134C608.445 767.543 634.812 793.909 667.219 793.909C699.628 793.909 725.994 767.543 725.994 735.134C725.993 702.726 699.627 676.359 667.219 676.359Z" fill="url(#paint44_linear_449_427)"/>
<path d="M667.22 771.56C647.135 771.56 630.794 755.22 630.794 735.134C630.794 715.049 647.135 698.709 667.22 698.709C687.305 698.709 703.645 715.049 703.645 735.134C703.645 755.219 687.304 771.56 667.22 771.56ZM667.22 705.905C651.102 705.905 637.99 719.017 637.99 735.134C637.99 751.252 651.102 764.364 667.22 764.364C683.337 764.364 696.449 751.252 696.449 735.134C696.449 719.017 683.336 705.905 667.22 705.905Z" fill="url(#paint45_linear_449_427)"/>
<path d="M682.319 735.133C682.319 743.473 675.558 750.234 667.218 750.234C658.879 750.234 652.117 743.473 652.117 735.133C652.117 726.794 658.877 720.032 667.218 720.032C675.559 720.032 682.319 726.794 682.319 735.133Z" fill="url(#paint46_linear_449_427)"/>
<path d="M671.596 672.543H664.155V664.008C664.155 661.953 665.821 660.288 667.876 660.288C669.931 660.288 671.597 661.953 671.597 664.008L671.596 672.543Z" fill="url(#paint47_linear_449_427)"/>
<path d="M671.596 797.507H664.155V806.042C664.155 808.096 665.821 809.762 667.876 809.762C669.931 809.762 671.597 808.096 671.597 806.042L671.596 797.507Z" fill="url(#paint48_linear_449_427)"/>
<path d="M605.94 730.757V738.198H597.406C595.351 738.198 593.685 736.532 593.685 734.478C593.685 732.423 595.351 730.757 597.406 730.757H605.94Z" fill="url(#paint49_linear_449_427)"/>
<path d="M729.81 738.198V730.757H738.345C740.4 730.757 742.066 732.423 742.066 734.478C742.066 736.532 740.4 738.198 738.345 738.198H729.81Z" fill="url(#paint50_linear_449_427)"/>
<path d="M349.361 1031.47C417.814 1031.47 473.306 975.977 473.306 907.523C473.306 839.07 417.814 783.578 349.361 783.578C280.908 783.578 225.416 839.07 225.416 907.523C225.416 975.977 280.908 1031.47 349.361 1031.47Z" fill="url(#paint51_linear_449_427)"/>
<path d="M235.104 902.761C235.081 902.761 235.057 902.761 235.034 902.76C234.312 902.722 233.757 902.105 233.795 901.384C234.049 896.514 234.616 891.624 235.478 886.848C235.606 886.138 236.282 885.664 236.999 885.792C237.711 885.92 238.183 886.602 238.055 887.313C237.213 891.981 236.661 896.761 236.411 901.519C236.374 902.219 235.795 902.761 235.104 902.761Z" fill="url(#paint52_linear_449_427)"/>
<path d="M247.156 857.345C246.957 857.345 246.756 857.301 246.566 857.205C245.921 856.879 245.662 856.091 245.987 855.446C265.804 816.187 305.414 791.797 349.361 791.797C356.369 791.797 363.393 792.429 370.236 793.677C370.948 793.806 371.419 794.488 371.29 795.2C371.161 795.911 370.481 796.388 369.766 796.252C363.076 795.033 356.212 794.415 349.36 794.415C306.408 794.415 267.694 818.253 248.324 856.624C248.095 857.082 247.634 857.345 247.156 857.345Z" fill="url(#paint53_linear_449_427)"/>
<path opacity="0.88" d="M426.231 984.4C467.198 943.432 467.198 877.011 426.231 836.044C385.264 795.076 318.842 795.076 277.875 836.044C236.908 877.011 236.908 943.432 277.875 984.4C318.842 1025.37 385.264 1025.37 426.231 984.4Z" fill="white"/>
<path d="M349.402 928.713C376.08 928.713 397.706 907.086 397.706 880.409C397.706 853.731 376.08 832.104 349.402 832.104C322.724 832.104 301.097 853.731 301.097 880.409C301.097 907.086 322.724 928.713 349.402 928.713Z" fill="url(#paint54_linear_449_427)"/>
<path d="M397.618 876.592H349.402H301.098C301.098 876.592 297.253 904.017 340.363 977.452C342.244 980.656 345.681 982.877 349.397 982.879C353.112 982.882 356.554 980.538 358.435 977.334C401.541 903.892 397.618 876.592 397.618 876.592Z" fill="url(#paint55_linear_449_427)"/>
<path opacity="0.8" d="M369.273 899.973C380.165 889.081 380.165 871.421 369.273 860.529C358.38 849.636 340.72 849.636 329.828 860.529C318.935 871.421 318.935 889.081 329.828 899.973C340.72 910.866 358.38 910.866 369.273 899.973Z" fill="white"/>
<path d="M1920.61 493.252L1939.91 490.89C1945.88 497.923 1952.78 504.026 1960.46 509.075L1960.47 528.512C1960.47 530.733 1961.88 532.707 1963.98 533.435L1988.18 541.767C1990.28 542.488 1992.61 541.796 1993.98 540.048L2005.95 524.735C2015.11 525.484 2024.31 524.918 2033.34 523.048L2047.1 536.793C2048.67 538.363 2051.07 538.765 2053.07 537.791L2076.07 526.57C2078.06 525.595 2079.22 523.458 2078.95 521.254L2076.59 501.947C2083.62 495.98 2089.73 489.082 2094.78 481.403L2114.21 481.393C2116.43 481.39 2118.41 479.979 2119.14 477.879L2127.46 453.681C2128.19 451.581 2127.5 449.25 2125.75 447.879L2110.44 435.907C2111.18 426.746 2110.62 417.553 2108.75 408.522L2122.5 394.761C2124.07 393.189 2124.46 390.791 2123.49 388.796L2112.27 365.792C2111.3 363.796 2109.16 362.637 2106.95 362.907L2087.65 365.27C2081.68 358.238 2074.78 352.133 2067.1 347.084L2067.09 327.648C2067.09 325.541 2065.82 323.654 2063.9 322.846C2063.8 322.802 2063.69 322.761 2063.58 322.724L2039.38 314.392C2037.28 313.671 2034.95 314.361 2033.58 316.11L2021.61 331.423C2012.45 330.675 2003.25 331.242 1994.22 333.11L1980.46 319.365C1978.89 317.792 1976.49 317.391 1974.5 318.368L1951.49 329.589C1949.5 330.562 1948.34 332.698 1948.61 334.905L1950.97 354.211C1943.94 360.178 1937.83 367.075 1932.78 374.756L1913.35 374.766C1911.12 374.768 1909.15 376.182 1908.43 378.28L1900.09 402.479C1899.37 404.58 1900.06 406.911 1901.81 408.28L1917.12 420.251C1916.38 429.412 1916.94 438.606 1918.81 447.636L1905.06 461.398C1903.5 462.969 1903.09 465.367 1904.07 467.364L1915.29 490.368C1916.27 492.363 1918.4 493.523 1920.61 493.252ZM1910.82 465.424L1926.39 449.838L1925.96 447.977C1923.79 438.454 1923.19 428.717 1924.18 419.04L1924.37 417.142L1907.03 403.581L1914.57 381.679L1936.58 381.668L1937.6 380.054C1942.78 371.82 1949.25 364.516 1956.82 358.344L1958.29 357.139L1955.62 335.273L1976.44 325.116L1992.02 340.685L1993.88 340.262C2003.41 338.094 2013.14 337.494 2022.82 338.479L2024.72 338.672L2038.28 321.326L2060.18 328.867L2060.19 350.883L2061.81 351.899C2070.04 357.079 2077.34 363.544 2083.52 371.116L2084.72 372.595L2106.59 369.918L2116.74 390.737L2101.18 406.322L2101.6 408.183C2103.77 417.707 2104.37 427.443 2103.38 437.12L2103.19 439.019L2120.53 452.579L2112.99 474.482L2090.97 474.494L2089.96 476.108C2084.78 484.34 2078.31 491.644 2070.74 497.817L2069.26 499.023L2071.94 520.889L2051.12 531.045L2035.54 515.476L2033.67 515.9C2024.15 518.068 2014.42 518.669 2004.74 517.683L2002.84 517.49L1989.28 534.836L1967.38 527.295L1967.36 505.279L1965.75 504.262C1957.52 499.083 1950.21 492.618 1944.04 485.045L1942.83 483.566L1920.97 486.243L1910.82 465.424Z" fill="#BDD0FB"/>
<path d="M2041.91 486.967C2057.56 479.331 2069.31 466.054 2074.97 449.584C2078.82 438.407 2079.57 426.417 2077.13 414.91C2076.74 413.043 2074.9 411.849 2073.03 412.244C2071.17 412.639 2069.97 414.474 2070.37 416.342C2072.54 426.624 2071.88 437.341 2068.44 447.334C2057.97 477.729 2024.73 493.945 1994.34 483.483C1963.94 473.013 1947.73 439.781 1958.19 409.385C1968.65 378.99 2001.89 362.772 2032.29 373.236C2036.22 374.589 2040.01 376.359 2043.54 378.493C2045.18 379.481 2047.3 378.957 2048.28 377.324C2049.27 375.691 2048.75 373.565 2047.11 372.577C2044.4 370.934 2041.54 369.484 2038.59 368.246C2037.26 367.686 2035.91 367.17 2034.54 366.699C2000.54 354.995 1963.36 373.134 1951.65 407.134C1939.95 441.134 1958.1 478.318 1992.09 490.02C2008.56 495.689 2026.25 494.605 2041.91 486.967Z" fill="#BDD0FB"/>
<path d="M1987.69 425.877C1987.1 432.845 1989.26 439.625 1993.78 444.97C1998.29 450.315 2004.61 453.58 2011.58 454.168C2025.96 455.383 2038.66 444.668 2039.87 430.283C2040.46 423.314 2038.3 416.534 2033.79 411.189C2031.07 407.978 2027.71 405.517 2023.94 403.936C2021.44 402.887 2018.76 402.225 2015.98 401.99C2001.6 400.776 1988.91 411.491 1987.69 425.877ZM2028.5 415.65C2031.82 419.583 2033.41 424.573 2032.98 429.701C2032.09 440.288 2022.75 448.174 2012.16 447.28C2010.11 447.107 2008.14 446.621 2006.3 445.848C2003.53 444.685 2001.05 442.872 1999.06 440.51C1995.74 436.577 1994.15 431.587 1994.58 426.459C1995.47 415.871 2004.82 407.986 2015.4 408.88C2020.53 409.314 2025.18 411.717 2028.5 415.65Z" fill="#BDD0FB"/>
<path d="M1813.71 578.346L1821.81 574.763C1825.35 576.992 1829.15 578.734 1833.14 579.958L1835.72 588.424C1836.14 589.828 1837.41 590.808 1838.88 590.858L1851.18 591.312C1852.64 591.367 1853.98 590.485 1854.51 589.118L1857.7 580.863C1861.77 579.937 1865.68 578.479 1869.38 576.515L1877.2 580.685C1878.48 581.374 1880.08 581.166 1881.15 580.17L1890.17 571.793C1891.24 570.797 1891.57 569.226 1890.97 567.884L1887.39 559.785C1889.62 556.242 1891.36 552.442 1892.58 548.454L1901.06 545.877C1902.46 545.448 1903.43 544.177 1903.49 542.717L1903.94 530.415C1903.99 528.948 1903.08 527.601 1901.75 527.087L1893.49 523.896C1892.56 519.829 1891.11 515.911 1889.14 512.214L1893.31 504.397C1894 503.104 1893.79 501.515 1892.8 500.445L1884.42 491.428C1883.43 490.354 1881.85 490.031 1880.51 490.623L1872.41 494.206C1868.87 491.978 1865.07 490.235 1861.08 489.012L1858.51 480.541C1858.2 479.544 1857.47 478.762 1856.55 478.375C1856.17 478.218 1855.77 478.126 1855.35 478.111L1843.05 477.658C1841.58 477.603 1840.24 478.485 1839.71 479.855L1836.52 488.107C1832.46 489.033 1828.54 490.492 1824.84 492.455L1817.03 488.284C1815.74 487.583 1814.15 487.802 1813.07 488.8L1804.06 497.176C1802.98 498.173 1802.66 499.743 1803.25 501.086L1806.84 509.185C1804.61 512.727 1802.86 516.527 1801.64 520.515L1793.18 523.088C1791.77 523.513 1790.79 524.786 1790.74 526.251L1790.29 538.549C1790.23 540.013 1791.11 541.349 1792.48 541.882L1800.74 545.073C1801.66 549.141 1803.12 553.059 1805.08 556.755L1800.91 564.571C1800.22 565.862 1800.43 567.451 1801.43 568.525L1809.8 577.54C1810.8 578.614 1812.37 578.939 1813.71 578.346ZM1806.07 565.909L1810.99 556.693L1810.28 555.451C1808 551.459 1806.4 547.157 1805.52 542.664L1805.25 541.259L1795.51 537.495L1795.87 527.688L1805.86 524.65L1806.24 523.269C1807.44 518.856 1809.36 514.683 1811.92 510.867L1812.72 509.679L1808.49 500.128L1815.69 493.447L1824.9 498.364L1826.14 497.655C1830.14 495.378 1834.44 493.776 1838.93 492.898L1840.34 492.623L1844.1 482.886L1853.91 483.248L1856.94 493.234L1858.32 493.612C1862.74 494.82 1866.91 496.731 1870.73 499.298L1871.91 500.097L1881.46 495.871L1888.15 503.062L1883.23 512.277L1883.94 513.52C1886.22 517.514 1887.82 521.817 1888.7 526.307L1888.97 527.711L1898.71 531.475L1898.35 541.282L1888.36 544.32L1887.98 545.701C1886.78 550.114 1884.86 554.288 1882.3 558.104L1881.5 559.291L1885.72 568.842L1878.53 575.523L1869.32 570.606L1868.08 571.316C1864.08 573.594 1859.78 575.195 1855.29 576.073L1853.88 576.348L1850.12 586.085L1840.31 585.723L1837.27 575.736L1835.89 575.359C1831.48 574.154 1827.31 572.238 1823.49 569.673L1822.3 568.874L1812.75 573.101L1806.07 565.909Z" fill="#BDD0FB"/>
<path d="M1879.21 535.865C1879.42 530.016 1878.05 524.226 1875.24 519.123C1874.55 517.869 1872.97 517.413 1871.72 518.102C1870.47 518.794 1870.01 520.37 1870.7 521.625C1873.06 525.904 1874.21 530.763 1874.02 535.676C1873.47 550.613 1860.87 562.318 1845.94 561.769C1831 561.22 1819.3 548.62 1819.84 533.681C1820.39 518.742 1832.99 507.037 1847.93 507.587C1849.87 507.658 1851.79 507.935 1853.65 508.407C1855.04 508.76 1856.45 507.921 1856.8 506.533C1857.12 505.273 1856.46 503.994 1855.29 503.505C1855.18 503.456 1855.05 503.415 1854.93 503.382C1852.72 502.82 1850.43 502.491 1848.12 502.406C1839.5 502.088 1831.27 505.147 1824.95 511.018C1818.64 516.889 1814.98 524.87 1814.66 533.49C1814.35 542.11 1817.4 550.338 1823.28 556.658C1829.15 562.976 1837.13 566.633 1845.75 566.949C1863.54 567.605 1878.55 553.66 1879.21 535.865Z" fill="#BDD0FB"/>
<path d="M2042.76 559.878L2023.12 595.003L2007.78 566.606L2042.76 559.878Z" fill="#7D97F4"/>
<path d="M1896.08 451.43L1944.43 587.654C1945.35 590.262 1947.3 592.381 1949.82 593.523C1952.34 594.665 1955.22 594.732 1957.79 593.71L2092.73 540.015C2094.28 539.401 2095.3 537.91 2095.31 536.247C2095.32 534.585 2094.32 533.082 2092.78 532.449L1896.08 451.43Z" fill="#91B3FA"/>
<path d="M2042.74 559.877L1896.08 451.43L2020.99 568.609L2015.96 578.582L2042.74 559.877Z" fill="#7D97F4"/>
<path d="M2008.06 573.689L2023.12 595.003L2020.99 568.609L2008.06 573.689Z" fill="#7D97F4"/>
<defs>
<linearGradient id="paint0_linear_449_427" x1="473.236" y1="1699.82" x2="515.377" y2="1418.88" gradientUnits="userSpaceOnUse">
<stop stop-color="#4042E2"/>
<stop offset="1" stop-color="#4F52FF"/>
</linearGradient>
<linearGradient id="paint1_linear_449_427" x1="699.54" y1="1733.76" x2="741.681" y2="1452.83" gradientUnits="userSpaceOnUse">
<stop stop-color="#4042E2"/>
<stop offset="1" stop-color="#4F52FF"/>
</linearGradient>
<linearGradient id="paint2_linear_449_427" x1="924.41" y1="1767.49" x2="966.551" y2="1486.56" gradientUnits="userSpaceOnUse">
<stop stop-color="#4042E2"/>
<stop offset="1" stop-color="#4F52FF"/>
</linearGradient>
<linearGradient id="paint3_linear_449_427" x1="1898.87" y1="1913.66" x2="1941.01" y2="1632.73" gradientUnits="userSpaceOnUse">
<stop stop-color="#4042E2"/>
<stop offset="1" stop-color="#4F52FF"/>
</linearGradient>
<linearGradient id="paint4_linear_449_427" x1="1159.71" y1="1802.79" x2="1201.85" y2="1521.85" gradientUnits="userSpaceOnUse">
<stop stop-color="#4042E2"/>
<stop offset="1" stop-color="#4F52FF"/>
</linearGradient>
<linearGradient id="paint5_linear_449_427" x1="1408.34" y1="1840.08" x2="1450.48" y2="1559.15" gradientUnits="userSpaceOnUse">
<stop stop-color="#4042E2"/>
<stop offset="1" stop-color="#4F52FF"/>
</linearGradient>
<linearGradient id="paint6_linear_449_427" x1="1699.82" y1="1883.81" x2="1741.96" y2="1602.87" gradientUnits="userSpaceOnUse">
<stop stop-color="#4042E2"/>
<stop offset="1" stop-color="#4F52FF"/>
</linearGradient>
<linearGradient id="paint7_linear_449_427" x1="105.641" y1="913.951" x2="2352.45" y2="913.951" gradientUnits="userSpaceOnUse">
<stop stop-color="#DAE3FE"/>
<stop offset="1" stop-color="#E9EFFD"/>
</linearGradient>
<linearGradient id="paint8_linear_449_427" x1="516.026" y1="1085.98" x2="1365.48" y2="1085.98" gradientUnits="userSpaceOnUse">
<stop stop-color="#09005D"/>
<stop offset="1" stop-color="#1A0F91"/>
</linearGradient>
<linearGradient id="paint9_linear_449_427" x1="681.979" y1="1482.86" x2="1507.59" y2="1125.41" gradientUnits="userSpaceOnUse">
<stop stop-color="#FE7062"/>
<stop offset="1" stop-color="#FF928E"/>
</linearGradient>
<linearGradient id="paint10_linear_449_427" x1="1861.23" y1="1380.46" x2="1610.25" y2="1655.96" gradientUnits="userSpaceOnUse">
<stop stop-color="#E1473D"/>
<stop offset="1" stop-color="#E9605A"/>
</linearGradient>
<linearGradient id="paint11_linear_449_427" x1="1803.95" y1="1225.8" x2="1749.96" y2="1303.55" gradientUnits="userSpaceOnUse">
<stop stop-color="#E1473D"/>
<stop offset="1" stop-color="#E9605A"/>
</linearGradient>
<linearGradient id="paint12_linear_449_427" x1="269.442" y1="1139.99" x2="354.358" y2="1268.31" gradientUnits="userSpaceOnUse">
<stop stop-color="#E1473D"/>
<stop offset="1" stop-color="#E9605A"/>
</linearGradient>
<linearGradient id="paint13_linear_449_427" x1="1239.64" y1="1207.83" x2="1087.91" y2="1085.38" gradientUnits="userSpaceOnUse">
<stop stop-color="#E1473D"/>
<stop offset="1" stop-color="#E9605A"/>
</linearGradient>
<linearGradient id="paint14_linear_449_427" x1="916.976" y1="1297.85" x2="996.835" y2="1217.99" gradientUnits="userSpaceOnUse">
<stop stop-color="#E1473D"/>
<stop offset="1" stop-color="#E9605A"/>
</linearGradient>
<linearGradient id="paint15_linear_449_427" x1="385.922" y1="1499.1" x2="722.432" y2="1499.1" gradientUnits="userSpaceOnUse">
<stop stop-color="#09005D"/>
<stop offset="1" stop-color="#1A0F91"/>
</linearGradient>
<linearGradient id="paint16_linear_449_427" x1="688.832" y1="1278.47" x2="315.883" y2="1889.53" gradientUnits="userSpaceOnUse">
<stop stop-color="#E1473D"/>
<stop offset="1" stop-color="#E9605A"/>
</linearGradient>
<linearGradient id="paint17_linear_449_427" x1="1378.28" y1="1499.1" x2="1714.79" y2="1499.1" gradientUnits="userSpaceOnUse">
<stop stop-color="#09005D"/>
<stop offset="1" stop-color="#1A0F91"/>
</linearGradient>
<linearGradient id="paint18_linear_449_427" x1="1692.75" y1="1249.39" x2="1319.8" y2="1886.28" gradientUnits="userSpaceOnUse">
<stop stop-color="#E1473D"/>
<stop offset="1" stop-color="#E9605A"/>
</linearGradient>
<linearGradient id="paint19_linear_449_427" x1="1874.56" y1="966.799" x2="1722.73" y2="1219.86" gradientUnits="userSpaceOnUse">
<stop stop-color="#FF928E"/>
<stop offset="1" stop-color="#FEB3B1"/>
</linearGradient>
<linearGradient id="paint20_linear_449_427" x1="811.909" y1="1105.27" x2="568.338" y2="1494.35" gradientUnits="userSpaceOnUse">
<stop stop-color="#FF928E"/>
<stop offset="1" stop-color="#FEB3B1"/>
</linearGradient>
<linearGradient id="paint21_linear_449_427" x1="947.605" y1="756.286" x2="786.278" y2="1072.61" gradientUnits="userSpaceOnUse">
<stop stop-color="#FF928E"/>
<stop offset="1" stop-color="#FEB3B1"/>
</linearGradient>
<linearGradient id="paint22_linear_449_427" x1="1490.22" y1="692.521" x2="1468.08" y2="974.051" gradientUnits="userSpaceOnUse">
<stop stop-color="#FF928E"/>
<stop offset="1" stop-color="#FEB3B1"/>
</linearGradient>
<linearGradient id="paint23_linear_449_427" x1="1138.46" y1="756.35" x2="1386.35" y2="756.35" gradientUnits="userSpaceOnUse">
<stop stop-color="#FE7062"/>
<stop offset="1" stop-color="#FF928E"/>
</linearGradient>
<linearGradient id="paint24_linear_449_427" x1="1094.43" y1="366.734" x2="1126.06" y2="584.967" gradientUnits="userSpaceOnUse">
<stop stop-color="#FF928E"/>
<stop offset="1" stop-color="#FEB3B1"/>
</linearGradient>
<linearGradient id="paint25_linear_449_427" x1="1175.35" y1="355.007" x2="1206.97" y2="573.24" gradientUnits="userSpaceOnUse">
<stop stop-color="#FF928E"/>
<stop offset="1" stop-color="#FEB3B1"/>
</linearGradient>
<linearGradient id="paint26_linear_449_427" x1="1251.51" y1="595.186" x2="1265.74" y2="914.627" gradientUnits="userSpaceOnUse">
<stop stop-color="#FE7062"/>
<stop offset="1" stop-color="#FF928E"/>
</linearGradient>
<linearGradient id="paint27_linear_449_427" x1="1210.63" y1="597.007" x2="1224.86" y2="916.448" gradientUnits="userSpaceOnUse">
<stop stop-color="#FE7062"/>
<stop offset="1" stop-color="#FF928E"/>
</linearGradient>
<linearGradient id="paint28_linear_449_427" x1="843.475" y1="544.647" x2="1091.37" y2="544.647" gradientUnits="userSpaceOnUse">
<stop stop-color="#FE7062"/>
<stop offset="1" stop-color="#FF928E"/>
</linearGradient>
<linearGradient id="paint29_linear_449_427" x1="812" y1="121.137" x2="832.558" y2="321.972" gradientUnits="userSpaceOnUse">
<stop stop-color="#FF928E"/>
<stop offset="1" stop-color="#FEB3B1"/>
</linearGradient>
<linearGradient id="paint30_linear_449_427" x1="890.858" y1="113.062" x2="911.416" y2="313.899" gradientUnits="userSpaceOnUse">
<stop stop-color="#FF928E"/>
<stop offset="1" stop-color="#FEB3B1"/>
</linearGradient>
<linearGradient id="paint31_linear_449_427" x1="933.874" y1="555.929" x2="1007.52" y2="555.929" gradientUnits="userSpaceOnUse">
<stop stop-color="#FE7062"/>
<stop offset="1" stop-color="#FF928E"/>
</linearGradient>
<linearGradient id="paint32_linear_449_427" x1="913.306" y1="532.614" x2="1024.27" y2="532.614" gradientUnits="userSpaceOnUse">
<stop stop-color="#FE7062"/>
<stop offset="1" stop-color="#FF928E"/>
</linearGradient>
<linearGradient id="paint33_linear_449_427" x1="892.767" y1="511.052" x2="1042.08" y2="511.052" gradientUnits="userSpaceOnUse">
<stop stop-color="#FE7062"/>
<stop offset="1" stop-color="#FF928E"/>
</linearGradient>
<linearGradient id="paint34_linear_449_427" x1="953.707" y1="582.462" x2="988.011" y2="582.462" gradientUnits="userSpaceOnUse">
<stop stop-color="#FE7062"/>
<stop offset="1" stop-color="#FF928E"/>
</linearGradient>
<linearGradient id="paint35_linear_449_427" x1="1561" y1="1070.54" x2="1707.2" y2="768.299" gradientUnits="userSpaceOnUse">
<stop stop-color="#FE7062"/>
<stop offset="1" stop-color="#FF928E"/>
</linearGradient>
<linearGradient id="paint36_linear_449_427" x1="1516.51" y1="714.596" x2="1513.7" y2="780.667" gradientUnits="userSpaceOnUse">
<stop stop-color="#FF928E"/>
<stop offset="1" stop-color="#FEB3B1"/>
</linearGradient>
<linearGradient id="paint37_linear_449_427" x1="1586.1" y1="717.558" x2="1583.29" y2="783.628" gradientUnits="userSpaceOnUse">
<stop stop-color="#FF928E"/>
<stop offset="1" stop-color="#FEB3B1"/>
</linearGradient>
<linearGradient id="paint38_linear_449_427" x1="1596.17" y1="1034.81" x2="1688.25" y2="788.805" gradientUnits="userSpaceOnUse">
<stop stop-color="#FE7062"/>
<stop offset="1" stop-color="#FF928E"/>
</linearGradient>
<linearGradient id="paint39_linear_449_427" x1="1579.36" y1="1028.52" x2="1671.44" y2="782.514" gradientUnits="userSpaceOnUse">
<stop stop-color="#FE7062"/>
<stop offset="1" stop-color="#FF928E"/>
</linearGradient>
<linearGradient id="paint40_linear_449_427" x1="1608.92" y1="969.289" x2="1632.05" y2="969.289" gradientUnits="userSpaceOnUse">
<stop stop-color="#E1473D"/>
<stop offset="1" stop-color="#E9605A"/>
</linearGradient>
<linearGradient id="paint41_linear_449_427" x1="543.93" y1="735.024" x2="791.822" y2="735.024" gradientUnits="userSpaceOnUse">
<stop stop-color="#FE7062"/>
<stop offset="1" stop-color="#FF928E"/>
</linearGradient>
<linearGradient id="paint42_linear_449_427" x1="524.144" y1="260.458" x2="538.376" y2="477.109" gradientUnits="userSpaceOnUse">
<stop stop-color="#FF928E"/>
<stop offset="1" stop-color="#FEB3B1"/>
</linearGradient>
<linearGradient id="paint43_linear_449_427" x1="600.975" y1="255.413" x2="615.208" y2="472.064" gradientUnits="userSpaceOnUse">
<stop stop-color="#FF928E"/>
<stop offset="1" stop-color="#FEB3B1"/>
</linearGradient>
<linearGradient id="paint44_linear_449_427" x1="678.657" y1="607.886" x2="653.354" y2="889.374" gradientUnits="userSpaceOnUse">
<stop stop-color="#FE7062"/>
<stop offset="1" stop-color="#FF928E"/>
</linearGradient>
<linearGradient id="paint45_linear_449_427" x1="678.657" y1="607.886" x2="653.355" y2="889.374" gradientUnits="userSpaceOnUse">
<stop stop-color="#FE7062"/>
<stop offset="1" stop-color="#FF928E"/>
</linearGradient>
<linearGradient id="paint46_linear_449_427" x1="678.657" y1="607.886" x2="653.354" y2="889.374" gradientUnits="userSpaceOnUse">
<stop stop-color="#FE7062"/>
<stop offset="1" stop-color="#FF928E"/>
</linearGradient>
<linearGradient id="paint47_linear_449_427" x1="673.339" y1="607.409" x2="648.036" y2="888.895" gradientUnits="userSpaceOnUse">
<stop stop-color="#FE7062"/>
<stop offset="1" stop-color="#FF928E"/>
</linearGradient>
<linearGradient id="paint48_linear_449_427" x1="685.258" y1="608.478" x2="659.955" y2="889.968" gradientUnits="userSpaceOnUse">
<stop stop-color="#FE7062"/>
<stop offset="1" stop-color="#FF928E"/>
</linearGradient>
<linearGradient id="paint49_linear_449_427" x1="611.891" y1="601.886" x2="586.589" y2="883.372" gradientUnits="userSpaceOnUse">
<stop stop-color="#FE7062"/>
<stop offset="1" stop-color="#FF928E"/>
</linearGradient>
<linearGradient id="paint50_linear_449_427" x1="746.608" y1="613.995" x2="721.306" y2="895.481" gradientUnits="userSpaceOnUse">
<stop stop-color="#FE7062"/>
<stop offset="1" stop-color="#FF928E"/>
</linearGradient>
<linearGradient id="paint51_linear_449_427" x1="225.415" y1="907.524" x2="473.306" y2="907.524" gradientUnits="userSpaceOnUse">
<stop stop-color="#FE7062"/>
<stop offset="1" stop-color="#FF928E"/>
</linearGradient>
<linearGradient id="paint52_linear_449_427" x1="116.952" y1="564.94" x2="205.51" y2="810.056" gradientUnits="userSpaceOnUse">
<stop stop-color="#FF928E"/>
<stop offset="1" stop-color="#FEB3B1"/>
</linearGradient>
<linearGradient id="paint53_linear_449_427" x1="203.186" y1="533.786" x2="291.744" y2="778.902" gradientUnits="userSpaceOnUse">
<stop stop-color="#FF928E"/>
<stop offset="1" stop-color="#FEB3B1"/>
</linearGradient>
<linearGradient id="paint54_linear_449_427" x1="301.832" y1="1010.48" x2="403.041" y2="733.738" gradientUnits="userSpaceOnUse">
<stop stop-color="#FE7062"/>
<stop offset="1" stop-color="#FF928E"/>
</linearGradient>
<linearGradient id="paint55_linear_449_427" x1="303.006" y1="1010.91" x2="404.215" y2="734.167" gradientUnits="userSpaceOnUse">
<stop stop-color="#FE7062"/>
<stop offset="1" stop-color="#FF928E"/>
</linearGradient>
</defs>
</svg>
