<?xml version="1.0" encoding="UTF-8" standalone="no"?><!DOCTYPE svg PUBLIC "-//W3C//DTD SVG 1.1//EN" "http://www.w3.org/Graphics/SVG/1.1/DTD/svg11.dtd"><svg width="100%" height="100%" viewBox="0 0 1280 1280" version="1.1" xmlns="http://www.w3.org/2000/svg" xmlns:xlink="http://www.w3.org/1999/xlink" xml:space="preserve" xmlns:serif="http://www.serif.com/" style="fill-rule:evenodd;clip-rule:evenodd;stroke-linejoin:round;stroke-miterlimit:2;"><rect id="Artboard1" x="0" y="0" width="1280" height="1280" style="fill:#cad9f7;"/><g id="Artboard11" serif:id="Artboard1"><g><path d="M354.638,910.609c-70.999,25.024 -141.996,50.053 -212.995,75.082c-0.306,-0 82.87,2.253 81.996,-0c-0.579,-2.253 179.165,-73.938 178.38,-73.938c-15.956,-0.383 -31.749,-0.766 -47.381,-1.144Z" style="fill:url(#_Linear1);fill-rule:nonzero;"/><path d="M440.337,910.101c-51.942,25.447 -102.682,50.894 -152.226,76.341l82.318,-0c36.881,-24.9 75.284,-49.795 115.204,-74.689c-15.325,-0.552 -30.425,-1.1 -45.296,-1.652Z" style="fill:url(#_Linear2);fill-rule:nonzero;"/><path d="M518.547,911.628c-0.937,0.741 -1.875,1.483 -2.807,2.229c-30.44,24.173 -58.538,48.347 -84.295,72.525c21.237,0.1 42.509,0.204 63.815,0.309c25.354,-25.611 50.709,-51.222 76.061,-76.833c-17.334,0.591 -34.927,1.178 -52.774,1.77Z" style="fill:url(#_Linear3);fill-rule:nonzero;"/><path d="M885.846,910.101c45.437,25.447 92.078,50.894 139.913,76.341l82.319,-0c-58.39,-24.9 -115.267,-49.795 -170.617,-74.689c-17.434,-0.552 -34.639,-1.1 -51.615,-1.652Z" style="fill:url(#_Linear4);fill-rule:nonzero;"/><path d="M616.386,912.111c-14.634,24.775 -29.272,49.551 -43.906,74.331c-0.547,-0 89.01,4.004 85.488,0.249c-3.462,-3.756 11.908,-76.833 11.381,-76.833c-17.32,0.751 -34.977,1.502 -52.963,2.253Z" style="fill:url(#_Linear5);fill-rule:nonzero;"/><path d="M706.633,909.858c4.547,26.028 9.093,52.057 13.639,78.086l67.875,-0c-9.122,-26.656 -20.239,-53.311 -33.351,-79.962c-15.787,0.622 -31.843,1.249 -48.163,1.876Z" style="fill:url(#_Linear6);fill-rule:nonzero;"/><path d="M805.581,908.355c27.59,26.532 55.176,53.058 82.762,79.589c32.445,0.114 64.95,0.234 97.514,0.353c-52.475,-26.148 -100.021,-52.291 -142.633,-78.439c-12.704,-0.503 -25.248,-1 -37.643,-1.503Z" style="fill:url(#_Linear7);fill-rule:nonzero;"/><path d="M1149.44,648.769c-11.679,6.859 -24.894,12.415 -39.025,16.668c-27.114,8.157 -57.659,5.929 -83.717,17.99c-40.941,18.946 -24.557,54.207 -14.559,89.388c9.6,33.788 -16.419,83.269 -40.135,104.911c-98.286,89.69 -242.919,38.061 -351.391,1.641c-70.636,-23.711 -149.837,-26.039 -222.476,-10.127c-63.972,14.007 -125.287,53.371 -189.785,19.13c-60.025,-31.868 -99.853,-105.01 -93.421,-173.418c3.572,-37.971 22.053,-74.009 21.058,-112.428c-0.961,-37.084 -20.876,-67.954 -39.181,-98.906c-37.149,-62.815 -3.985,-145.161 58.179,-173.483c54.145,-24.669 121.743,-21.79 179.219,-13.727c31.929,4.48 63.754,10.772 95.424,16.802c62.578,11.914 126.823,12.61 188.829,-3.015c59.135,-14.901 115.311,-41.905 177.785,-38.136c45.521,2.747 84.826,30.016 108.318,69.222c35.593,59.405 82.583,50.925 143.076,53.39c70.466,2.871 123.404,58.249 145.126,122.722c17.339,51.49 -4.561,88.613 -43.324,111.376Z" style="fill:url(#_Linear8);fill-rule:nonzero;"/><path d="M976.317,436.488c-0.109,-5.966 -4.944,-10.875 -10.868,-10.875l-223.993,-0c-6.003,-0 -11.903,5.165 -11.903,11.212l0,540.485c0,2.909 1.667,5.7 3.711,7.754c2.044,2.054 5.074,3.203 7.963,3.193l234.195,-0.641c2.915,-0.01 5.77,-1.194 7.809,-3.293c2.039,-2.094 3.188,-4.994 3.134,-7.929l-10.048,-539.906Z" style="fill:#91b3fa;fill-rule:nonzero;"/><path d="M811.36,489.303l-63.806,-0.087l-0.507,-32.933l63.871,0l0.442,33.02Z" style="fill:#bdd0fb;fill-rule:nonzero;"/><path d="M882.886,489.286l-63.746,-0.086l-0.438,-32.917l63.811,0l0.373,33.003Z" style="fill:#bdd0fb;fill-rule:nonzero;"/><path d="M954.337,489.269l-63.682,-0.086l-0.368,-32.9l63.747,0l0.303,32.986Z" style="fill:#bdd0fb;fill-rule:nonzero;"/><path d="M812.161,548.416l-63.701,0.041l-0.503,-32.718l63.762,-0.026l0.442,32.703Z" style="fill:#bdd0fb;fill-rule:nonzero;"/><path d="M883.558,548.37l-63.632,0.041l-0.438,-32.701l63.697,-0.027l0.373,32.687Z" style="fill:#bdd0fb;fill-rule:nonzero;"/><path d="M954.889,548.324l-63.572,0.042l-0.368,-32.686l63.632,-0.027l0.308,32.671Z" style="fill:#bdd0fb;fill-rule:nonzero;"/><path d="M812.952,607.125l-63.587,0.067l-0.503,-32.605l63.652,-0.053l0.438,32.591Z" style="fill:#bdd0fb;fill-rule:nonzero;"/><path d="M884.229,607.049l-63.522,0.067l-0.433,-32.589l63.582,-0.052l0.373,32.574Z" style="fill:#bdd0fb;fill-rule:nonzero;"/><path d="M955.432,606.973l-63.458,0.068l-0.364,-32.572l63.518,-0.053l0.304,32.557Z" style="fill:#bdd0fb;fill-rule:nonzero;"/><path d="M813.748,665.631l-63.478,0.089l-0.502,-32.489l63.537,-0.079l0.443,32.479Z" style="fill:#bdd0fb;fill-rule:nonzero;"/><path d="M884.896,665.526l-63.414,0.09l-0.432,-32.474l63.478,-0.079l0.368,32.463Z" style="fill:#bdd0fb;fill-rule:nonzero;"/><path d="M955.979,665.422l-63.354,0.089l-0.363,-32.457l63.413,-0.079l0.304,32.447Z" style="fill:#bdd0fb;fill-rule:nonzero;"/><path d="M814.534,723.93l-63.364,0.12l-0.502,-32.381l63.428,-0.104l0.438,32.365Z" style="fill:#bdd0fb;fill-rule:nonzero;"/><path d="M885.562,723.796l-63.304,0.12l-0.427,-32.361l63.363,-0.105l0.368,32.346Z" style="fill:#bdd0fb;fill-rule:nonzero;"/><path d="M956.521,723.667l-63.239,0.114l-0.363,-32.345l63.298,-0.105l0.304,32.336Z" style="fill:#bdd0fb;fill-rule:nonzero;"/><path d="M815.32,782.031l-63.254,0.145l-0.498,-32.266l63.319,-0.13l0.433,32.251Z" style="fill:#bdd0fb;fill-rule:nonzero;"/><path d="M886.229,781.872l-63.195,0.145l-0.432,-32.252l63.259,-0.134l0.368,32.241Z" style="fill:#bdd0fb;fill-rule:nonzero;"/><path d="M957.063,781.708l-63.135,0.144l-0.358,-32.236l63.19,-0.129l0.303,32.221Z" style="fill:#bdd0fb;fill-rule:nonzero;"/><path d="M816.106,839.933l-63.15,0.17l-0.492,-32.157l63.209,-0.154l0.433,32.141Z" style="fill:#bdd0fb;fill-rule:nonzero;"/><path d="M886.89,839.744l-63.085,0.17l-0.427,-32.142l63.144,-0.154l0.368,32.126Z" style="fill:#bdd0fb;fill-rule:nonzero;"/><path d="M957.6,839.555l-63.02,0.17l-0.363,-32.127l63.085,-0.155l0.298,32.112Z" style="fill:#bdd0fb;fill-rule:nonzero;"/><path d="M816.887,897.637l-63.041,0.194l-0.492,-32.048l63.1,-0.179l0.433,32.033Z" style="fill:#bdd0fb;fill-rule:nonzero;"/><path d="M887.547,897.418l-62.976,0.194l-0.427,-32.028l63.04,-0.184l0.363,32.018Z" style="fill:#bdd0fb;fill-rule:nonzero;"/><path d="M958.137,897.199l-62.915,0.194l-0.359,-32.013l62.976,-0.184l0.298,32.003Z" style="fill:#bdd0fb;fill-rule:nonzero;"/><path d="M778.199,607.999c-0.1,-3.339 -4.342,-6.087 -9.54,-6.087l-196.606,0c-5.273,0 -10.446,2.891 -10.446,6.276l0,302.48c0,1.627 1.458,3.189 3.253,4.338c1.796,1.149 4.457,1.795 6.994,1.79l205.559,-0.358c2.562,-0.005 5.064,-0.671 6.854,-1.845c1.786,-1.174 2.796,-2.796 2.751,-4.437l-8.819,-302.157Z" style="fill:#7d97f4;fill-rule:nonzero;"/><path d="M633.412,637.556l-56.007,-0.048l-0.448,-18.431l56.062,0l0.393,18.479Z" style="fill:#91b3fa;fill-rule:nonzero;"/><path d="M696.188,637.547l-55.952,-0.048l-0.383,-18.422l56.007,0l0.328,18.47Z" style="fill:#91b3fa;fill-rule:nonzero;"/><path d="M758.905,637.538l-55.893,-0.049l-0.323,-18.412l55.947,0l0.269,18.461Z" style="fill:#91b3fa;fill-rule:nonzero;"/><path d="M634.113,670.639l-55.913,0.025l-0.442,-18.312l55.967,-0.015l0.388,18.302Z" style="fill:#91b3fa;fill-rule:nonzero;"/><path d="M696.78,670.614l-55.853,0.02l-0.383,-18.299l55.908,-0.015l0.328,18.294Z" style="fill:#91b3fa;fill-rule:nonzero;"/><path d="M759.387,670.59l-55.798,0.019l-0.323,-18.291l55.853,-0.015l0.268,18.287Z" style="fill:#91b3fa;fill-rule:nonzero;"/><path d="M634.809,703.492l-55.813,0.04l-0.442,-18.249l55.867,-0.025l0.388,18.234Z" style="fill:#91b3fa;fill-rule:nonzero;"/><path d="M697.367,703.453l-55.753,0.039l-0.383,-18.239l55.813,-0.03l0.323,18.23Z" style="fill:#91b3fa;fill-rule:nonzero;"/><path d="M759.865,703.413l-55.699,0.035l-0.323,-18.23l55.758,-0.03l0.264,18.225Z" style="fill:#91b3fa;fill-rule:nonzero;"/><path d="M635.506,736.236l-55.719,0.055l-0.438,-18.185l55.769,-0.045l0.388,18.175Z" style="fill:#91b3fa;fill-rule:nonzero;"/><path d="M697.954,736.176l-55.659,0.055l-0.378,-18.175l55.714,-0.045l0.323,18.165Z" style="fill:#91b3fa;fill-rule:nonzero;"/><path d="M760.347,736.122l-55.609,0.049l-0.318,-18.165l55.659,-0.044l0.268,18.16Z" style="fill:#91b3fa;fill-rule:nonzero;"/><path d="M636.197,768.865l-55.619,0.065l-0.438,-18.12l55.674,-0.06l0.383,18.115Z" style="fill:#91b3fa;fill-rule:nonzero;"/><path d="M698.541,768.791l-55.564,0.064l-0.378,-18.11l55.618,-0.06l0.324,18.106Z" style="fill:#91b3fa;fill-rule:nonzero;"/><path d="M760.82,768.716l-55.51,0.065l-0.313,-18.1l55.559,-0.06l0.264,18.095Z" style="fill:#91b3fa;fill-rule:nonzero;"/><path d="M636.888,801.38l-55.524,0.085l-0.438,-18.061l55.579,-0.074l0.383,18.05Z" style="fill:#91b3fa;fill-rule:nonzero;"/><path d="M699.123,801.291l-55.47,0.079l-0.373,-18.045l55.519,-0.075l0.324,18.041Z" style="fill:#91b3fa;fill-rule:nonzero;"/><path d="M761.297,801.201l-55.415,0.08l-0.318,-18.041l55.47,-0.074l0.263,18.035Z" style="fill:#91b3fa;fill-rule:nonzero;"/><path d="M637.575,833.786l-55.43,0.094l-0.433,-17.996l55.48,-0.084l0.383,17.986Z" style="fill:#91b3fa;fill-rule:nonzero;"/><path d="M699.705,833.681l-55.376,0.095l-0.373,-17.991l55.425,-0.085l0.324,17.981Z" style="fill:#91b3fa;fill-rule:nonzero;"/><path d="M761.77,833.572l-55.316,0.094l-0.318,-17.976l55.37,-0.089l0.264,17.971Z" style="fill:#91b3fa;fill-rule:nonzero;"/><path d="M638.261,866.082l-55.335,0.109l-0.433,-17.936l55.385,-0.1l0.383,17.927Z" style="fill:#91b3fa;fill-rule:nonzero;"/><path d="M700.282,865.957l-55.276,0.11l-0.373,-17.926l55.33,-0.1l0.319,17.916Z" style="fill:#91b3fa;fill-rule:nonzero;"/><path d="M762.242,865.833l-55.221,0.109l-0.318,-17.916l55.276,-0.099l0.263,17.906Z" style="fill:#91b3fa;fill-rule:nonzero;"/><path d="M638.943,898.263l-55.236,0.12l-0.433,-17.872l55.291,-0.114l0.378,17.866Z" style="fill:#91b3fa;fill-rule:nonzero;"/><path d="M700.859,898.124l-55.182,0.124l-0.373,-17.866l55.231,-0.115l0.324,17.857Z" style="fill:#91b3fa;fill-rule:nonzero;"/><path d="M762.71,897.985l-55.127,0.124l-0.313,-17.857l55.181,-0.114l0.259,17.847Z" style="fill:#91b3fa;fill-rule:nonzero;"/><path d="M247.078,366.9l-33.775,81.505c-8.948,21.593 -7.512,46.096 3.898,66.495l68.487,122.445c7.766,13.883 11.001,29.847 9.253,45.66l-7.62,68.919c-2.855,25.835 7.629,51.346 27.823,67.711c32.053,25.969 78.935,21.776 105.875,-9.461l42.715,-49.531c20.026,-23.223 24.215,-56.171 10.639,-83.662l-44.774,-90.675c-5.721,-11.585 -8.407,-24.432 -7.809,-37.338l6.168,-133.031c1.421,-30.668 -15.666,-59.205 -43.371,-72.432l-34.088,-16.274c-39.471,-18.845 -86.675,-0.739 -103.421,39.669Z" style="fill:#91b3fa;fill-rule:nonzero;"/><path d="M374.976,853.448c-0.211,0.02 -0.426,0.03 -0.646,0.015c-2.149,-0.12 -3.795,-1.96 -3.674,-4.114c11.204,-199.724 -54.356,-408.342 -59.831,-418.763c-1.053,-1.267 -1.222,-3.118 -0.29,-4.584c1.154,-1.816 3.564,-2.355 5.382,-1.198c1.16,0.736 1.926,1.223 5.718,12.465c1.748,5.182 4.651,14.239 8.558,27.96c5.87,20.613 14.703,54.236 23.452,97.364c14.62,72.065 30.79,180.388 24.798,287.194c-0.109,1.935 -1.605,3.457 -3.467,3.661Zm-63.259,-422.073c-0,0 0.001,0.001 0.001,0.001c-0,-0 -0.001,-0 -0.001,-0.001Z" style="fill:#7d97f4;fill-rule:nonzero;"/><path d="M275.964,682.492c-14.819,-10.152 -23.049,-27.396 -21.678,-45.306c1.466,-19.119 -1.532,-40.485 -9.57,-61.69c-21.096,-55.649 -68.915,-89.117 -106.809,-74.753c-37.893,14.364 -51.512,71.122 -30.416,126.771c4.095,10.802 9.197,20.769 15.038,29.711c8.858,13.559 10.673,30.545 4.597,45.556c-5.77,14.266 -6.389,30.655 -0.506,46.174c8.034,21.194 26.217,35.563 46.92,39.677c12.263,2.437 23.155,9.301 30.527,19.398c20.917,28.655 52.531,42.767 79.479,32.555c34.537,-13.091 48.328,-61.185 30.804,-107.413c-8.354,-22.04 -22.318,-39.677 -38.386,-50.68Z" style="fill:#bdd0fb;fill-rule:nonzero;"/><path d="M316.845,903.814c-0.894,0.249 -1.89,-0.025 -2.526,-0.781c-31.45,-37.324 -63.318,-106.945 -84.513,-158.779c-22.927,-56.066 -38.662,-103.981 -38.817,-104.459c-0.421,-1.285 0.28,-2.667 1.564,-3.087c1.28,-0.42 2.667,0.279 3.087,1.565c0.623,1.902 62.937,191.011 122.423,261.607c0.871,1.029 0.738,2.576 -0.295,3.447c-0.279,0.234 -0.594,0.398 -0.923,0.487Z" style="fill:#91b3fa;fill-rule:nonzero;"/><path d="M822.726,469.326l15.554,65.958c4.118,17.475 0.01,35.874 -11.162,49.932l-67.024,84.379c-7.601,9.57 -12.022,21.269 -12.649,33.475l-2.726,53.191c-1.02,19.936 -12.116,37.987 -29.446,47.9c-27.506,15.732 -62.533,6.774 -79.101,-20.234l-26.272,-42.821c-12.316,-20.075 -11.431,-45.572 2.253,-64.737l45.134,-63.221c5.764,-8.078 9.386,-17.486 10.525,-27.344l11.733,-101.617c2.706,-23.426 19.185,-42.952 41.821,-49.563l27.85,-8.132c32.251,-9.416 65.8,10.133 73.51,42.834Z" style="fill:#bdd0fb;fill-rule:nonzero;"/><path d="M663.564,819.212c8.635,-81.713 34.256,-161.843 54.231,-214.671c11.952,-31.618 22.796,-56.019 29.789,-70.923c4.656,-9.92 7.973,-16.428 9.938,-20.141c4.263,-8.055 4.904,-8.329 5.874,-8.746c1.522,-0.651 3.283,0.054 3.93,1.574c0.527,1.226 0.174,2.608 -0.781,3.439c-5.437,7.225 -80.877,157.299 -97.022,310.1c-0.174,1.646 -1.652,2.835 -3.293,2.661c-0.169,-0.015 -0.333,-0.05 -0.488,-0.09c-1.387,-0.383 -2.332,-1.726 -2.178,-3.203Z" style="fill:#91b3fa;fill-rule:nonzero;"/><path d="M785.376,709.372c14.047,-6.83 23.343,-20.608 24.457,-36.191c1.194,-16.633 6.516,-34.629 16.151,-51.838c25.288,-45.163 70.72,-67.816 101.474,-50.596c30.749,17.218 35.181,67.789 9.893,112.954c-4.909,8.764 -10.575,16.683 -16.747,23.626c-9.361,10.53 -13.102,24.905 -9.804,38.598c3.134,13.012 1.562,27.188 -5.491,39.782c-9.63,17.2 -27.113,27.228 -45.452,28.108c-10.859,0.522 -21.11,5.034 -28.75,12.773c-21.667,21.965 -50.675,30.048 -72.545,17.802c-28.029,-15.693 -33.719,-58.832 -12.714,-96.351c10.018,-17.886 24.293,-31.266 39.528,-38.667Z" style="fill:#bdd0fb;fill-rule:nonzero;"/><path d="M721.804,894.508c0.736,0.328 1.632,0.219 2.273,-0.348c31.844,-28.068 68.193,-83.871 93.078,-125.737c26.914,-45.283 46.601,-84.483 46.795,-84.871c0.527,-1.055 0.1,-2.333 -0.95,-2.86c-1.044,-0.523 -2.328,-0.1 -2.855,0.95c-0.781,1.557 -78.653,156.232 -138.883,209.324c-0.881,0.776 -0.965,2.124 -0.189,3.005c0.209,0.238 0.462,0.418 0.731,0.537Z" style="fill:#91b3fa;fill-rule:nonzero;"/><path d="M314.152,692.147l-25.152,20.164c-6.984,5.596 -3.285,17.568 5.416,17.524l413.446,-2.438l-111.929,-66.835l-193.297,0c-31.875,0 -62.901,11.072 -88.484,31.585Z" style="fill:url(#_Linear9);fill-rule:nonzero;"/><path d="M929.955,871.991c-0.363,-3.393 -0.731,-6.785 -1.104,-10.147c-3.825,-34.5 -21.433,-65.468 -48.228,-84.742l-2.074,-1.492c-32.276,-23.213 -69.357,-37.494 -107.96,-41.577l-62.727,-6.636l-413.446,2.438c-8.701,0.044 -12.399,-11.928 -5.416,-17.524l25.152,-20.164c25.583,-20.508 56.609,-31.585 88.484,-31.585l193.297,0l-1.448,-0.652c-11.614,-5.227 -24.074,-7.918 -36.658,-7.918l-182.033,-0c-11.061,-0 -22.058,1.791 -32.627,5.302l-136.911,54.664c-6.767,2.253 -12.807,6.516 -17.428,12.301l-28.283,35.414c-5.886,7.372 -9.124,16.778 -9.124,26.507l-0,57.713c-0,15.275 50.068,67.462 50.068,67.462c5.454,2.999 11.487,4.561 17.607,4.561l615.06,-0l65.323,-4.591c18.707,-1.318 32.62,-19.244 30.476,-39.334Z" style="fill:url(#_Linear10);fill-rule:nonzero;"/><path d="M927.781,898.134l-1.955,-0c-3.805,-0 -6.889,-3.333 -6.889,-7.436l0,-37.37c0,-4.108 3.084,-7.436 6.889,-7.436c3.656,0 6.676,3.079 6.884,7.019l1.955,37.369c0.224,4.263 -2.924,7.854 -6.884,7.854Z" style="fill:url(#_Linear11);fill-rule:nonzero;"/><path d="M903.528,838.72l20.523,-0c-7.64,-24.984 -22.791,-46.775 -43.428,-61.618l-2.074,-1.492c-2.139,-1.537 -4.303,-3.029 -6.481,-4.491c4.188,15.767 9.356,37.389 12.753,51.903c2.169,9.242 9.868,15.698 18.707,15.698Z" style="fill:url(#_Linear12);fill-rule:nonzero;"/><path d="M206.256,754.69l-0,-42.732c-6.767,2.253 -12.807,6.516 -17.428,12.301l-28.283,35.414c-4.914,6.153 -7.95,13.734 -8.83,21.732l38.607,-6.591c9.176,-1.567 15.934,-10.102 15.934,-20.124Z" style="fill:url(#_Linear13);fill-rule:nonzero;"/><path d="M639.927,725.522l-14.538,-15.24c-6.059,-6.352 -13.679,-10.684 -21.961,-12.485l-28.749,-6.257c-7.889,-1.716 -15.444,4.253 -16.305,12.888l-0.204,2.024c-0.88,8.794 5.556,16.444 13.758,16.344l37.036,-0.457c5.168,-0.06 9.864,3.233 11.903,8.351l0.682,1.716c0.905,2.273 2.979,3.746 5.272,3.746l9.107,-0c5.153,-0.005 7.695,-6.76 3.999,-10.63Z" style="fill:url(#_Linear14);fill-rule:nonzero;"/><path d="M490.987,753.123l63.398,-0c4.944,-0 8.431,5.302 6.715,10.306c-2.9,8.466 -9.809,19.264 -26.233,20.522c-14.767,1.134 -33.382,-7.883 -47.422,-16.458c-6.366,-3.885 -3.772,-14.37 3.542,-14.37Z" style="fill:url(#_Linear15);fill-rule:nonzero;"/><path d="M304.322,984.373c46.221,-0 83.69,-37.469 83.69,-83.687c-0,-46.224 -37.469,-83.692 -83.69,-83.692c-46.221,-0 -83.689,37.468 -83.689,83.692c-0,46.218 37.468,83.687 83.689,83.687Z" style="fill:url(#_Linear16);fill-rule:nonzero;"/><path d="M304.322,968.65c37.536,-0 67.965,-30.431 67.965,-67.964c-0,-37.539 -30.429,-67.965 -67.965,-67.965c-37.536,0 -67.965,30.426 -67.965,67.965c-0,37.533 30.429,67.964 67.965,67.964Z" style="fill:url(#_Linear17);fill-rule:nonzero;"/><path d="M797.916,984.373c46.218,-0 83.692,-37.469 83.692,-83.687c-0,-46.224 -37.474,-83.692 -83.692,-83.692c-46.218,-0 -83.692,37.468 -83.692,83.692c-0,46.218 37.474,83.687 83.692,83.687Z" style="fill:url(#_Linear18);fill-rule:nonzero;"/><path d="M797.916,968.65c37.533,-0 67.964,-30.431 67.964,-67.964c0,-37.539 -30.431,-67.965 -67.964,-67.965c-37.534,0 -67.965,30.426 -67.965,67.965c0,37.533 30.431,67.964 67.965,67.964Z" style="fill:url(#_Linear19);fill-rule:nonzero;"/><path d="M853.361,925.272c-0.15,-0 -0.304,-0.03 -0.453,-0.095c-0.592,-0.248 -0.87,-0.93 -0.617,-1.522c3.074,-7.277 4.636,-15.001 4.636,-22.969c-0,-32.54 -26.471,-59.012 -59.011,-59.012c-10.092,0 -20.055,2.592 -28.805,7.496c-0.562,0.314 -1.273,0.115 -1.586,-0.448c-0.314,-0.557 -0.115,-1.268 0.447,-1.581c9.098,-5.099 19.454,-7.794 29.944,-7.794c33.823,-0 61.339,27.516 61.339,61.339c-0,8.281 -1.622,16.314 -4.82,23.875c-0.189,0.442 -0.622,0.711 -1.074,0.711Z" style="fill:url(#_Linear20);fill-rule:nonzero;"/><path d="M361.409,925.272c-0.15,-0 -0.304,-0.03 -0.452,-0.095c-0.593,-0.248 -0.87,-0.93 -0.62,-1.522c3.077,-7.277 4.638,-15.006 4.638,-22.969c-0,-32.54 -26.472,-59.012 -59.011,-59.012c-10.094,0 -20.055,2.592 -28.806,7.496c-0.559,0.314 -1.27,0.115 -1.585,-0.448c-0.315,-0.557 -0.115,-1.268 0.446,-1.581c9.099,-5.099 19.453,-7.794 29.945,-7.794c33.823,-0 61.34,27.516 61.34,61.339c-0,8.281 -1.622,16.309 -4.821,23.875c-0.188,0.442 -0.62,0.711 -1.074,0.711Z" style="fill:url(#_Linear21);fill-rule:nonzero;"/><path d="M405.588,874.881c-0.548,-0 -1.037,-0.388 -1.143,-0.95c-7.436,-39.096 -29.717,-63.981 -66.223,-73.958c-27.333,-7.471 -52.832,-3.308 -53.086,-3.268c-0.632,0.114 -1.235,-0.319 -1.341,-0.955c-0.108,-0.632 0.319,-1.234 0.954,-1.338c0.257,-0.045 26.196,-4.288 54.013,3.292c25.768,7.029 58.478,25.88 67.971,75.794c0.12,0.632 -0.295,1.238 -0.926,1.363c-0.074,0.01 -0.147,0.02 -0.219,0.02Z" style="fill:url(#_Linear22);fill-rule:nonzero;"/><path d="M695.701,887.629c-0.627,-0 -1.144,-0.498 -1.164,-1.124c-0.965,-30.844 7.297,-55.002 24.556,-71.804c28.496,-27.735 72.217,-25.527 72.655,-25.502c0.642,0.04 1.129,0.587 1.094,1.229c-0.039,0.641 -0.567,1.119 -1.228,1.094c-0.433,-0.025 -43.164,-2.159 -70.909,24.86c-16.762,16.329 -24.786,39.896 -23.84,70.048c0.019,0.642 -0.488,1.179 -1.13,1.199l-0.034,-0Z" style="fill:url(#_Linear23);fill-rule:nonzero;"/><path d="M297.057,720.528c-0.405,0 -0.799,-0.209 -1.014,-0.587c-0.317,-0.557 -0.122,-1.268 0.437,-1.586l56.055,-31.898c15.948,-9.073 34.073,-14.042 52.417,-14.37l64.301,-1.154c0.626,0.005 1.174,0.497 1.186,1.139c0.011,0.646 -0.501,1.174 -1.144,1.189l-64.3,1.154c-17.956,0.323 -35.698,5.187 -51.308,14.066l-56.055,31.898c-0.182,0.1 -0.38,0.149 -0.575,0.149Z" style="fill:#91b3fa;fill-rule:nonzero;"/><path d="M656.59,592.894c34.052,-0 61.653,-27.602 61.653,-61.65c-0,-34.049 -27.601,-61.651 -61.653,-61.651c-34.047,0 -61.647,27.602 -61.647,61.651c-0,34.048 27.6,61.65 61.647,61.65Z" style="fill:url(#_Linear24);fill-rule:nonzero;"/><path d="M599.763,528.875c-0.015,-0 -0.025,-0 -0.035,-0.001c-0.358,-0.019 -0.637,-0.326 -0.617,-0.684c0.124,-2.423 0.408,-4.855 0.836,-7.23c0.064,-0.354 0.403,-0.589 0.756,-0.526c0.358,0.065 0.592,0.403 0.527,0.757c-0.418,2.322 -0.696,4.699 -0.816,7.066c-0.02,0.348 -0.308,0.618 -0.651,0.618Z" style="fill:url(#_Linear25);fill-rule:nonzero;"/><path d="M605.756,506.285c-0.099,-0 -0.199,-0.022 -0.293,-0.07c-0.323,-0.162 -0.448,-0.554 -0.289,-0.874c9.859,-19.528 29.561,-31.659 51.416,-31.659c3.487,-0 6.984,0.314 10.386,0.935c0.353,0.064 0.587,0.403 0.522,0.758c-0.064,0.353 -0.398,0.591 -0.756,0.523c-3.327,-0.606 -6.74,-0.914 -10.152,-0.914c-21.363,0 -40.617,11.858 -50.252,30.943c-0.114,0.227 -0.343,0.358 -0.582,0.358Z" style="fill:url(#_Linear26);fill-rule:nonzero;"/><path d="M694.825,569.485c20.379,-20.378 20.379,-53.415 0,-73.792c-20.378,-20.377 -53.415,-20.377 -73.794,-0c-20.373,20.377 -20.373,53.414 0,73.792c20.379,20.377 53.416,20.377 73.794,-0Z" style="fill:#fff;fill-opacity:0.88;fill-rule:nonzero;"/><path d="M509.869,487.593c34.046,0 61.651,-27.601 61.651,-61.65c0,-34.048 -27.605,-61.65 -61.651,-61.65c-34.049,0 -61.65,27.602 -61.65,61.65c-0,34.049 27.601,61.65 61.65,61.65Z" style="fill:url(#_Linear27);fill-rule:nonzero;"/><path d="M453.037,423.575c-0.011,-0 -0.022,-0 -0.034,-0.001c-0.36,-0.019 -0.635,-0.326 -0.616,-0.684c0.126,-2.423 0.408,-4.855 0.837,-7.23c0.063,-0.354 0.4,-0.589 0.756,-0.526c0.355,0.064 0.589,0.403 0.525,0.757c-0.418,2.322 -0.694,4.699 -0.817,7.066c-0.018,0.348 -0.306,0.618 -0.651,0.618Z" style="fill:url(#_Linear28);fill-rule:nonzero;"/><path d="M459.033,400.985c-0.099,-0 -0.199,-0.022 -0.294,-0.07c-0.321,-0.162 -0.45,-0.554 -0.288,-0.875c9.857,-19.527 29.559,-31.659 51.418,-31.659c3.485,0 6.979,0.315 10.383,0.936c0.354,0.064 0.588,0.403 0.524,0.757c-0.064,0.354 -0.402,0.591 -0.758,0.523c-3.326,-0.606 -6.741,-0.913 -10.149,-0.913c-21.365,-0 -40.621,11.857 -50.255,30.942c-0.114,0.228 -0.344,0.359 -0.581,0.359Z" style="fill:url(#_Linear29);fill-rule:nonzero;"/><path d="M548.103,464.184c20.378,-20.377 20.378,-53.415 -0,-73.792c-20.378,-20.377 -53.415,-20.377 -73.792,0c-20.377,20.378 -20.377,53.415 -0,73.792c20.377,20.377 53.414,20.377 73.792,0Z" style="fill:#fff;fill-opacity:0.88;fill-rule:nonzero;"/><path d="M498.905,434.53c7.566,-6.641 19.124,-5.888 25.766,1.677c0.411,0.469 0.792,0.954 1.145,1.452c0.476,0.67 1.441,0.732 1.973,0.104l1.736,-2.05c0.378,-0.448 0.388,-1.097 0.035,-1.565c-0.333,-0.443 -0.686,-0.879 -1.059,-1.302c-8.495,-9.677 -23.28,-10.64 -32.956,-2.146c-0.733,0.644 -1.413,1.325 -2.044,2.037c-0.472,0.533 -0.411,1.351 0.142,1.8l2.034,1.651c0.514,0.417 1.264,0.357 1.703,-0.139c0.471,-0.529 0.978,-1.039 1.525,-1.519Z" style="fill:url(#_Linear30);fill-rule:nonzero;"/><path d="M490.222,424.638c13.021,-11.429 32.911,-10.134 44.342,2.886c-0,0.004 0.005,0.007 0.01,0.011c0.497,0.57 1.383,0.575 1.87,-0.004l1.706,-2.012c-0.005,-0.622 -0.01,-1.023 -0.015,-1.645c-13.322,-14.861 -36.239,-16.262 -51.274,-3.065c-1.312,1.152 -2.515,2.381 -3.62,3.67c-0.449,0.526 -0.362,1.322 0.174,1.757l2.029,1.647c0.516,0.419 1.277,0.362 1.711,-0.142c0.937,-1.089 1.957,-2.129 3.067,-3.103Z" style="fill:url(#_Linear31);fill-rule:nonzero;"/><path d="M481.539,414.746c17.994,-15.794 45.231,-14.455 61.62,2.696c0.517,0.538 1.378,0.527 1.855,-0.042l1.691,-1.996c0.408,-0.485 0.393,-1.208 -0.044,-1.664c-18.28,-18.935 -48.497,-20.366 -68.482,-2.823c-1.878,1.648 -3.591,3.412 -5.156,5.266c-0.446,0.528 -0.36,1.324 0.177,1.761l2.026,1.645c0.529,0.428 1.295,0.346 1.735,-0.174c1.39,-1.642 2.912,-3.207 4.578,-4.669Z" style="fill:url(#_Linear32);fill-rule:nonzero;"/><path d="M511.579,453.284c4.711,0 8.531,-3.82 8.531,-8.532c-0,-4.712 -3.82,-8.531 -8.531,-8.531c-4.712,-0 -8.532,3.819 -8.532,8.531c-0,4.712 3.82,8.532 8.532,8.532Z" style="fill:url(#_Linear33);fill-rule:nonzero;"/><path d="M834.758,687.884c34.047,0 61.647,-27.6 61.647,-61.651c0,-34.048 -27.6,-61.65 -61.647,-61.65c-34.047,-0 -61.652,27.602 -61.652,61.65c-0,34.051 27.605,61.651 61.652,61.651Z" style="fill:url(#_Linear34);fill-rule:nonzero;"/><path d="M777.925,623.864c-0.01,0 -0.02,0 -0.034,-0c-0.359,-0.019 -0.632,-0.326 -0.617,-0.685c0.129,-2.422 0.408,-4.854 0.84,-7.229c0.06,-0.354 0.398,-0.589 0.756,-0.526c0.354,0.064 0.587,0.403 0.523,0.756c-0.418,2.322 -0.692,4.7 -0.816,7.066c-0.02,0.349 -0.308,0.618 -0.652,0.618Z" style="fill:url(#_Linear35);fill-rule:nonzero;"/><path d="M783.919,601.274c-0.094,0 -0.199,-0.022 -0.293,-0.069c-0.319,-0.162 -0.448,-0.554 -0.284,-0.875c9.853,-19.528 29.555,-31.659 51.416,-31.659c3.487,0 6.978,0.314 10.381,0.935c0.358,0.064 0.592,0.403 0.527,0.758c-0.065,0.354 -0.403,0.59 -0.761,0.523c-3.328,-0.607 -6.74,-0.913 -10.147,-0.913c-21.363,-0 -40.622,11.857 -50.257,30.942c-0.114,0.227 -0.343,0.358 -0.582,0.358Z" style="fill:url(#_Linear36);fill-rule:nonzero;"/><path d="M872.988,664.477c20.378,-20.379 20.378,-53.416 -0,-73.794c-20.378,-20.377 -53.416,-20.377 -73.789,0c-20.378,20.378 -20.378,53.415 0,73.794c20.373,20.373 53.411,20.373 73.789,-0Z" style="fill:#fff;fill-opacity:0.88;fill-rule:nonzero;"/><g><path d="M850.15,648.12c-0.018,3.875 -1.417,7.615 -3.942,10.552c-2.525,2.936 -6.018,4.881 -9.842,5.479c-3.829,0.599 -7.743,-0.184 -11.048,-2.21c-3.301,-2.026 -5.776,-5.16 -6.977,-8.844c-1.201,-3.683 -1.052,-7.672 0.421,-11.256c1.47,-3.584 4.173,-6.524 7.615,-8.298l3.769,-1.941l-0,-23.943l7.395,0l0,23.943l3.769,1.941c2.677,1.374 4.923,3.464 6.485,6.039c1.558,2.571 2.376,5.528 2.355,8.539l0,-0.001Z" style="fill:#fe7a6f;fill-rule:nonzero;"/><path d="M844.483,627.379l0,-34.3c-0.29,-5.656 -4.962,-10.09 -10.626,-10.09c-5.663,-0 -10.334,4.434 -10.625,10.09l-0,34.3c-6.23,3.201 -10.686,9.042 -12.128,15.895c-1.438,6.857 0.287,13.994 4.704,19.435c4.413,5.44 11.044,8.596 18.049,8.596c7.005,-0 13.636,-3.156 18.049,-8.596c4.417,-5.441 6.142,-12.577 4.704,-19.435c-1.442,-6.853 -5.898,-12.694 -12.128,-15.895l0.001,-0Zm-10.639,39.271c-4.555,-0.018 -8.943,-1.704 -12.336,-4.743c-3.393,-3.035 -5.557,-7.211 -6.081,-11.733c-0.153,-1.357 -0.153,-2.724 -0,-4.08c0.637,-6.223 4.363,-11.71 9.917,-14.593l2.522,-1.289l0,-37.133c0,-3.308 2.685,-5.993 5.993,-5.993c3.308,0 5.993,2.685 5.993,5.993l-0,37.133l2.521,1.289c5.579,2.865 9.337,8.355 9.989,14.593c0.152,1.356 0.152,2.723 -0,4.08c-0.524,4.54 -2.703,8.73 -6.117,11.769c-3.414,3.035 -7.827,4.714 -12.4,4.707l-0.001,0Z" style="fill:#fe7a6f;fill-rule:nonzero;"/><rect x="847.175" y="592.527" width="9.918" height="1.743" style="fill:#fe7a6f;fill-rule:nonzero;"/><rect x="847.175" y="597.401" width="5.568" height="1.743" style="fill:#fe7a6f;fill-rule:nonzero;"/><rect x="847.175" y="602.373" width="9.918" height="1.743" style="fill:#fe7a6f;fill-rule:nonzero;"/><rect x="847.175" y="607.247" width="5.568" height="1.743" style="fill:#fe7a6f;fill-rule:nonzero;"/><rect x="847.175" y="612.22" width="9.918" height="1.743" style="fill:#fe7a6f;fill-rule:nonzero;"/><rect x="847.175" y="617.094" width="5.568" height="1.743" style="fill:#fe7a6f;fill-rule:nonzero;"/><rect x="847.175" y="622.066" width="9.918" height="1.743" style="fill:#fe7a6f;fill-rule:nonzero;"/></g><path d="M188.284,710.252l-2.19,-2.775c-0.604,-0.761 -0.473,-1.871 0.291,-2.477c0.765,-0.602 1.874,-0.473 2.478,0.293l0.011,0.015l0.026,0.03l2.112,2.73l0.025,0.035c0.59,0.761 0.451,1.861 -0.312,2.447c-0.759,0.587 -1.848,0.453 -2.441,-0.298Z" style="fill:#fff;fill-rule:nonzero;"/><path d="M181.242,700.806l-1.967,-2.939c-0.559,-0.836 -0.335,-1.965 0.502,-2.527c0.836,-0.557 1.968,-0.333 2.528,0.502l0.01,0.015l0.022,0.035l1.891,2.89l0.022,0.035c0.547,0.831 0.313,1.95 -0.521,2.497c-0.828,0.542 -1.938,0.313 -2.487,-0.508Z" style="fill:#fff;fill-rule:nonzero;"/><path d="M174.958,690.839l-1.734,-3.084c-0.509,-0.905 -0.188,-2.049 0.717,-2.562c0.905,-0.507 2.052,-0.184 2.56,0.721l0.01,0.015l0.02,0.035l1.662,3.024l0.02,0.04c0.496,0.9 0.167,2.034 -0.735,2.527c-0.896,0.492 -2.02,0.169 -2.52,-0.716Z" style="fill:#fff;fill-rule:nonzero;"/><path d="M169.455,680.418l-1.497,-3.203c-0.453,-0.97 -0.035,-2.124 0.935,-2.577c0.969,-0.452 2.123,-0.034 2.576,0.936l0.008,0.014l0.018,0.04l1.43,3.139l0.018,0.04c0.439,0.965 0.013,2.104 -0.953,2.546c-0.959,0.433 -2.09,0.015 -2.535,-0.935Z" style="fill:#fff;fill-rule:nonzero;"/><path d="M164.741,669.615l-1.259,-3.303c-0.393,-1.03 0.124,-2.184 1.154,-2.577c1.03,-0.392 2.184,0.125 2.577,1.154l0.007,0.02l0.014,0.04l1.197,3.238l0.015,0.04c0.379,1.025 -0.145,2.159 -1.17,2.542c-1.018,0.373 -2.149,-0.14 -2.535,-1.154Z" style="fill:#fff;fill-rule:nonzero;"/><path d="M160.819,658.503l-1.023,-3.382c-0.328,-1.085 0.285,-2.234 1.372,-2.562c1.086,-0.327 2.232,0.288 2.56,1.373l0.006,0.02l0.012,0.039l0.965,3.313l0.012,0.04c0.315,1.079 -0.305,2.213 -1.385,2.527c-1.073,0.313 -2.196,-0.299 -2.519,-1.368Z" style="fill:#fff;fill-rule:nonzero;"/><path d="M157.681,647.147l-0.79,-3.446c-0.261,-1.137 0.449,-2.269 1.586,-2.53c1.137,-0.261 2.27,0.449 2.531,1.586l0.005,0.021l0.008,0.041l0.738,3.371l0.009,0.042c0.247,1.13 -0.468,2.246 -1.598,2.493c-1.123,0.246 -2.233,-0.46 -2.489,-1.578Z" style="fill:#fff;fill-rule:nonzero;"/><path d="M155.316,635.604l-0.561,-3.491c-0.19,-1.182 0.616,-2.296 1.799,-2.486c1.183,-0.19 2.296,0.615 2.486,1.798l0.004,0.021l0.006,0.042l0.514,3.412l0.006,0.042c0.177,1.176 -0.633,2.272 -1.808,2.449c-1.168,0.176 -2.259,-0.624 -2.446,-1.787Z" style="fill:#fff;fill-rule:nonzero;"/><path d="M153.71,623.931l-0.336,-3.52c-0.117,-1.225 0.781,-2.312 2.006,-2.43c1.226,-0.117 2.313,0.782 2.43,2.007l0.002,0.022l0.004,0.042l0.294,3.439l0.003,0.041c0.104,1.216 -0.798,2.287 -2.014,2.391c-1.209,0.103 -2.273,-0.788 -2.389,-1.992Z" style="fill:#fff;fill-rule:nonzero;"/><path d="M152.849,612.179l-0.116,-3.534c-0.042,-1.261 0.948,-2.318 2.21,-2.359c1.261,-0.042 2.318,0.948 2.359,2.21l0.001,0.022l0.001,0.042l0.078,3.45l0.001,0.042c0.029,1.253 -0.962,2.291 -2.215,2.32c-1.245,0.029 -2.278,-0.952 -2.319,-2.193Z" style="fill:#fff;fill-rule:nonzero;"/><path d="M152.715,600.395l0.1,-3.534c0.037,-1.294 1.116,-2.313 2.41,-2.277c1.294,0.037 2.313,1.115 2.276,2.409l-0.001,0.024l-0.001,0.041l-0.132,3.449l-0.002,0.043c-0.049,1.283 -1.129,2.284 -2.414,2.235c-1.275,-0.048 -2.271,-1.116 -2.236,-2.39Z" style="fill:#fff;fill-rule:nonzero;"/><path d="M153.297,588.625l0.312,-3.519c0.117,-1.322 1.283,-2.298 2.604,-2.181c1.322,0.118 2.298,1.284 2.181,2.605l-0.002,0.024l-0.005,0.042l-0.338,3.429l-0.004,0.043c-0.13,1.31 -1.296,2.268 -2.607,2.138c-1.302,-0.127 -2.256,-1.282 -2.141,-2.581Z" style="fill:#fff;fill-rule:nonzero;"/><path d="M154.58,576.915l0.52,-3.499c0.2,-1.344 1.451,-2.272 2.795,-2.072c1.344,0.2 2.272,1.451 2.072,2.795l-0.004,0.025l-0.006,0.042l-0.542,3.409l-0.007,0.043c-0.212,1.332 -1.463,2.24 -2.795,2.029c-1.325,-0.211 -2.229,-1.449 -2.033,-2.772Z" style="fill:#fff;fill-rule:nonzero;"/><path d="M156.562,565.293l0.734,-3.466c0.287,-1.352 1.616,-2.215 2.968,-1.928c1.352,0.286 2.215,1.615 1.929,2.967l-0.003,0.012l-0.01,0.043l-0.734,3.375l-0.009,0.044c-0.293,1.346 -1.621,2.199 -2.966,1.906c-1.341,-0.291 -2.193,-1.612 -1.909,-2.953Z" style="fill:#fff;fill-rule:nonzero;"/><path d="M159.246,553.806l0.937,-3.412c0.37,-1.349 1.764,-2.142 3.113,-1.772c1.348,0.371 2.142,1.765 1.771,3.114l-0.003,0.012l-0.013,0.043l-0.93,3.321l-0.012,0.043c-0.376,1.342 -1.768,2.125 -3.11,1.749c-1.337,-0.375 -2.12,-1.76 -1.753,-3.098Z" style="fill:#fff;fill-rule:nonzero;"/><path d="M162.604,542.5l1.138,-3.352c0.455,-1.34 1.911,-2.057 3.251,-1.602c1.341,0.455 2.058,1.91 1.603,3.251l-0.005,0.012l-0.014,0.043l-1.126,3.259l-0.015,0.044c-0.46,1.333 -1.914,2.04 -3.247,1.579c-1.329,-0.458 -2.035,-1.905 -1.585,-3.234Z" style="fill:#fff;fill-rule:nonzero;"/><path d="M166.631,531.411l1.337,-3.278c0.541,-1.327 2.054,-1.963 3.38,-1.422c1.326,0.541 1.963,2.054 1.422,3.38l-0.005,0.013l-0.018,0.043l-1.318,3.185l-0.018,0.043c-0.546,1.319 -2.058,1.945 -3.376,1.399c-1.315,-0.544 -1.941,-2.048 -1.404,-3.363Z" style="fill:#fff;fill-rule:nonzero;"/><path d="M171.32,520.581l1.538,-3.197c0.628,-1.305 2.196,-1.855 3.501,-1.226c1.305,0.628 1.854,2.195 1.226,3.5l-0.005,0.013l-0.022,0.043l-1.512,3.101l-0.022,0.044c-0.632,1.298 -2.197,1.837 -3.495,1.204c-1.292,-0.63 -1.832,-2.188 -1.209,-3.482Z" style="fill:#fff;fill-rule:nonzero;"/><path d="M176.671,510.05l1.734,-3.094c0.716,-1.279 2.333,-1.735 3.612,-1.018c1.278,0.717 1.734,2.334 1.018,3.613l-0.007,0.012l-0.025,0.043l-1.7,2.998l-0.025,0.043c-0.72,1.27 -2.335,1.716 -3.605,0.995c-1.266,-0.718 -1.713,-2.324 -1.002,-3.592Z" style="fill:#fff;fill-rule:nonzero;"/><path d="M182.677,499.87l1.929,-2.977c0.805,-1.244 2.467,-1.6 3.712,-0.793c1.243,0.805 1.599,2.467 0.793,3.711l-0.007,0.011l-0.029,0.044l-1.886,2.879l-0.029,0.044c-0.809,1.235 -2.467,1.581 -3.703,0.772c-1.231,-0.807 -1.579,-2.457 -0.78,-3.691Z" style="fill:#fff;fill-rule:nonzero;"/><path d="M189.326,490.099l2.109,-2.844c0.893,-1.204 2.593,-1.456 3.796,-0.563c1.205,0.893 1.457,2.593 0.564,3.797l-0.008,0.011l-0.029,0.038l-2.066,2.757l-0.029,0.038c-0.896,1.195 -2.591,1.438 -3.787,0.541c-1.191,-0.893 -1.435,-2.581 -0.55,-3.775Z" style="fill:#fff;fill-rule:nonzero;"/><path d="M196.547,480.765l2.27,-2.717c0.971,-1.163 2.702,-1.318 3.865,-0.347c1.163,0.971 1.319,2.702 0.347,3.865l-0.009,0.011l-0.03,0.036l-2.223,2.634l-0.03,0.035c-0.975,1.155 -2.701,1.301 -3.855,0.326c-1.151,-0.971 -1.299,-2.689 -0.335,-3.843Z" style="fill:#fff;fill-rule:nonzero;"/><path d="M204.29,471.861l2.419,-2.583c1.047,-1.119 2.803,-1.176 3.921,-0.129c1.119,1.047 1.177,2.803 0.13,3.921l-0.01,0.011l-0.033,0.033l-2.368,2.504l-0.032,0.035c-1.05,1.109 -2.8,1.158 -3.909,0.108c-1.106,-1.046 -1.157,-2.79 -0.118,-3.9Z" style="fill:#fff;fill-rule:nonzero;"/><path d="M212.519,463.408l2.558,-2.446c1.12,-1.07 2.895,-1.03 3.966,0.089c1.07,1.119 1.03,2.895 -0.089,3.965l-0.011,0.01l-0.033,0.032l-2.504,2.369l-0.034,0.032c-1.121,1.06 -2.89,1.012 -3.951,-0.109c-1.058,-1.118 -1.013,-2.879 0.098,-3.942Z" style="fill:#fff;fill-rule:nonzero;"/><path d="M221.198,455.42l2.685,-2.304c1.188,-1.02 2.978,-0.883 3.998,0.305c1.019,1.189 0.882,2.979 -0.306,3.998l-0.011,0.01l-0.035,0.028l-2.628,2.232l-0.035,0.03c-1.189,1.009 -2.973,0.864 -3.982,-0.326c-1.008,-1.186 -0.865,-2.961 0.314,-3.973Z" style="fill:#fff;fill-rule:nonzero;"/><path d="M230.288,447.908l2.802,-2.159c1.253,-0.966 3.053,-0.733 4.019,0.52c0.966,1.254 0.732,3.053 -0.521,4.019l-0.011,0.009l-0.036,0.027l-2.742,2.091l-0.036,0.027c-1.255,0.956 -3.047,0.715 -4.003,-0.54c-0.953,-1.25 -0.715,-3.035 0.528,-3.994Z" style="fill:#fff;fill-rule:nonzero;"/><path d="M239.755,440.881l2.909,-2.013c1.314,-0.911 3.118,-0.582 4.028,0.732c0.911,1.315 0.583,3.119 -0.732,4.029l-0.013,0.008l-0.036,0.025l-2.846,1.948l-0.037,0.025c-1.315,0.901 -3.111,0.564 -4.012,-0.751c-0.897,-1.31 -0.565,-3.1 0.739,-4.003Z" style="fill:#fff;fill-rule:nonzero;"/><path d="M249.564,434.342l3.003,-1.865c1.373,-0.853 3.177,-0.432 4.029,0.941c0.853,1.373 0.432,3.177 -0.941,4.03l-0.014,0.008l-0.036,0.022l-2.941,1.805l-0.036,0.022c-1.373,0.843 -3.169,0.414 -4.012,-0.959c-0.839,-1.368 -0.414,-3.157 0.948,-4.004Z" style="fill:#fff;fill-rule:nonzero;"/><path d="M259.68,428.295l3.09,-1.718c1.427,-0.793 3.227,-0.28 4.02,1.147c0.793,1.427 0.28,3.227 -1.147,4.02l-0.013,0.007l-0.037,0.021l-3.025,1.661l-0.037,0.02c-1.427,0.784 -3.219,0.263 -4.002,-1.164c-0.781,-1.422 -0.265,-3.206 1.151,-3.994Z" style="fill:#fff;fill-rule:nonzero;"/><path d="M270.08,422.755l3.17,-1.563c1.467,-0.724 3.244,-0.122 3.967,1.346c0.724,1.467 0.122,3.244 -1.346,3.967l-0.003,0.002l-0.037,0.018l-3.097,1.524l-0.037,0.019c-1.468,0.721 -3.242,0.117 -3.965,-1.35c-0.721,-1.468 -0.12,-3.241 1.348,-3.963Z" style="fill:#fff;fill-rule:nonzero;"/><path d="M280.728,417.715l3.238,-1.416c1.502,-0.657 3.253,0.028 3.91,1.531c0.657,1.502 -0.028,3.252 -1.53,3.91l-0.004,0.001l-0.037,0.016l-3.165,1.38l-0.037,0.017c-1.502,0.655 -3.251,-0.032 -3.906,-1.534c-0.655,-1.503 0.028,-3.25 1.531,-3.905Z" style="fill:#fff;fill-rule:nonzero;"/><path d="M291.593,413.167l3.297,-1.269c1.534,-0.59 3.255,0.175 3.846,1.708c0.59,1.534 -0.176,3.256 -1.709,3.846l-0.004,0.001l-0.037,0.014l-3.225,1.237l-0.037,0.014c-1.533,0.587 -3.253,-0.178 -3.841,-1.712c-0.587,-1.532 0.176,-3.252 1.71,-3.839Z" style="fill:#fff;fill-rule:nonzero;"/><path d="M302.647,409.11l3.348,-1.121c1.562,-0.524 3.252,0.319 3.775,1.88c0.523,1.562 -0.32,3.252 -1.881,3.775l-0.004,0.001l-0.037,0.013l-3.275,1.092l-0.037,0.013c-1.561,0.521 -3.249,-0.323 -3.77,-1.884c-0.52,-1.562 0.32,-3.248 1.881,-3.769Z" style="fill:#fff;fill-rule:nonzero;"/><path d="M313.867,405.543l3.396,-0.976c1.587,-0.455 3.242,0.462 3.698,2.048c0.455,1.586 -0.462,3.241 -2.049,3.697l-0.003,0.001l-0.037,0.01l-3.324,0.951l-0.037,0.01c-1.586,0.454 -3.239,-0.464 -3.692,-2.05c-0.453,-1.586 0.462,-3.238 2.048,-3.691Z" style="fill:#fff;fill-rule:nonzero;"/><path d="M325.232,402.464l3.438,-0.829c1.608,-0.388 3.226,0.602 3.614,2.209c0.388,1.608 -0.602,3.226 -2.209,3.614l-0.004,0.001l-0.037,0.009l-3.364,0.807l-0.038,0.009c-1.607,0.386 -3.223,-0.605 -3.608,-2.212c-0.387,-1.607 0.601,-3.222 2.208,-3.608Z" style="fill:#fff;fill-rule:nonzero;"/><path d="M336.721,399.875l3.465,-0.68c1.627,-0.32 3.205,0.739 3.524,2.366c0.319,1.626 -0.74,3.204 -2.367,3.523l-0.003,0.001l-0.037,0.007l-3.392,0.662l-0.037,0.008c-1.626,0.317 -3.201,-0.743 -3.519,-2.369c-0.317,-1.626 0.741,-3.2 2.366,-3.518Z" style="fill:#fff;fill-rule:nonzero;"/><path d="M348.304,397.778l3.491,-0.534c1.642,-0.25 3.177,0.877 3.428,2.519c0.25,1.642 -0.877,3.177 -2.519,3.427l-0.003,0.001l-0.038,0.006l-3.416,0.518l-0.038,0.006c-1.641,0.249 -3.173,-0.88 -3.422,-2.521c-0.25,-1.642 0.876,-3.174 2.517,-3.422Z" style="fill:#fff;fill-rule:nonzero;"/><path d="M359.966,396.172l3.511,-0.385c1.654,-0.181 3.143,1.012 3.324,2.667c0.182,1.654 -1.013,3.143 -2.667,3.325l-0.003,0l-0.038,0.005l-3.435,0.372l-0.038,0.005c-1.654,0.179 -3.141,-1.015 -3.32,-2.67c-0.18,-1.653 1.012,-3.139 2.666,-3.319Z" style="fill:#fff;fill-rule:nonzero;"/><path d="M371.685,395.062l3.53,-0.236c1.664,-0.112 3.103,1.147 3.215,2.811c0.112,1.665 -1.147,3.104 -2.811,3.216l-0.004,0l-0.038,0.003l-3.453,0.227l-0.038,0.002c-1.663,0.11 -3.101,-1.15 -3.211,-2.814c-0.11,-1.662 1.147,-3.1 2.81,-3.209Z" style="fill:#fff;fill-rule:nonzero;"/><path d="M383.448,394.451l3.534,-0.085c1.671,-0.04 3.058,1.282 3.098,2.953c0.041,1.671 -1.282,3.059 -2.953,3.099l-0.003,0l-0.039,0.001l-3.455,0.079l-0.039,0.001c-1.67,0.039 -3.055,-1.284 -3.094,-2.954c-0.039,-1.671 1.281,-3.056 2.951,-3.094Z" style="fill:#fff;fill-rule:nonzero;"/><path d="M395.221,394.344l3.526,0.062c1.675,0.029 3.009,1.411 2.98,3.086c-0.029,1.675 -1.411,3.009 -3.086,2.98l-0.003,-0l-0.036,-0.001l-3.455,-0.065l-0.035,-0c-1.675,-0.031 -3.006,-1.414 -2.975,-3.088c0.031,-1.674 1.41,-3.006 3.084,-2.974Z" style="fill:#fff;fill-rule:nonzero;"/><path d="M406.974,394.71l3.523,0.198c1.676,0.095 2.959,1.529 2.865,3.206c-0.095,1.676 -1.529,2.958 -3.206,2.864l-0.003,0l-0.035,-0.002l-3.453,-0.198l-0.034,-0.002c-1.675,-0.096 -2.955,-1.532 -2.859,-3.206c0.095,-1.676 1.528,-2.956 3.202,-2.86Z" style="fill:#fff;fill-rule:nonzero;"/><path d="M418.705,395.525l3.512,0.331c1.675,0.157 2.905,1.643 2.748,3.318c-0.158,1.675 -1.644,2.905 -3.319,2.747l-0.003,-0l-0.034,-0.003l-3.444,-0.328l-0.033,-0.003c-1.675,-0.159 -2.902,-1.646 -2.743,-3.319c0.16,-1.675 1.643,-2.902 3.316,-2.743Z" style="fill:#fff;fill-rule:nonzero;"/><path d="M430.395,396.778l3.496,0.459c1.672,0.22 2.849,1.753 2.629,3.425c-0.219,1.671 -1.752,2.849 -3.424,2.629l-0.003,-0.001l-0.034,-0.004l-3.43,-0.455l-0.032,-0.004c-1.671,-0.221 -2.846,-1.755 -2.624,-3.425c0.222,-1.67 1.752,-2.845 3.422,-2.624Z" style="fill:#fff;fill-rule:nonzero;"/><path d="M442.029,398.456l3.476,0.585c1.667,0.28 2.79,1.857 2.51,3.523c-0.28,1.666 -1.857,2.79 -3.523,2.51l-0.036,-0.006l-3.412,-0.577l-0.032,-0.005c-1.664,-0.281 -2.786,-1.86 -2.505,-3.524c0.282,-1.665 1.856,-2.787 3.522,-2.506Z" style="fill:#fff;fill-rule:nonzero;"/><path d="M453.593,400.545l3.453,0.704c1.659,0.339 2.729,1.958 2.391,3.617c-0.338,1.658 -1.958,2.729 -3.617,2.391l-0.003,-0.001l-0.03,-0.006l-3.392,-0.696l-0.031,-0.006c-1.657,-0.34 -2.725,-1.959 -2.386,-3.616c0.341,-1.659 1.957,-2.728 3.615,-2.387Z" style="fill:#fff;fill-rule:nonzero;"/><path d="M465.074,403.029l3.428,0.82c1.649,0.395 2.667,2.053 2.272,3.703c-0.395,1.65 -2.053,2.667 -3.703,2.273l-0.003,-0.002l-0.03,-0.007l-3.367,-0.81l-0.03,-0.007c-1.648,-0.396 -2.663,-2.054 -2.267,-3.703c0.398,-1.648 2.052,-2.663 3.7,-2.267Z" style="fill:#fff;fill-rule:nonzero;"/><path d="M476.465,405.895l3.398,0.932c1.639,0.45 2.604,2.144 2.154,3.783c-0.45,1.639 -2.144,2.604 -3.783,2.154l-0.003,-0.001l-0.029,-0.008l-3.339,-0.92l-0.029,-0.008c-1.639,-0.451 -2.6,-2.145 -2.149,-3.783c0.451,-1.637 2.141,-2.6 3.78,-2.149Z" style="fill:#fff;fill-rule:nonzero;"/><path d="M487.753,409.128l3.366,1.038c1.628,0.503 2.54,2.23 2.038,3.858c-0.502,1.627 -2.229,2.54 -3.857,2.037l-0.003,-0.001l-0.028,-0.008l-3.309,-1.025l-0.028,-0.009c-1.626,-0.503 -2.535,-2.23 -2.032,-3.857c0.503,-1.626 2.227,-2.537 3.853,-2.033Z" style="fill:#fff;fill-rule:nonzero;"/><path d="M498.933,412.711l3.331,1.142c1.615,0.553 2.475,2.31 1.922,3.925c-0.553,1.616 -2.311,2.477 -3.926,1.923l-0.003,-0.001l-0.027,-0.009l-3.276,-1.127l-0.027,-0.009c-1.613,-0.555 -2.472,-2.312 -1.917,-3.926c0.555,-1.614 2.309,-2.473 3.923,-1.918Z" style="fill:#fff;fill-rule:nonzero;"/><path d="M509.993,416.637l3.293,1.245c1.593,0.604 2.397,2.384 1.794,3.978c-0.604,1.593 -2.384,2.396 -3.977,1.794l-0.018,-0.007l-3.245,-1.218l-0.026,-0.01c-1.597,-0.599 -2.406,-2.381 -1.806,-3.978c0.6,-1.598 2.381,-2.406 3.978,-1.807l0.007,0.003Z" style="fill:#fff;fill-rule:nonzero;"/><path d="M520.925,420.9l3.25,1.338c1.568,0.645 2.316,2.439 1.67,4.007c-0.645,1.568 -2.439,2.316 -4.007,1.67l-0.017,-0.006l-3.205,-1.31l-0.024,-0.01c-1.572,-0.642 -2.326,-2.437 -1.683,-4.009c0.642,-1.571 2.437,-2.325 4.009,-1.683l0.007,0.003Z" style="fill:#fff;fill-rule:nonzero;"/><path d="M531.724,425.47l3.213,1.429c1.542,0.685 2.238,2.491 1.552,4.033c-0.687,1.542 -2.492,2.236 -4.034,1.551l-0.015,-0.007l-3.173,-1.401l-0.02,-0.01c-1.547,-0.682 -2.249,-2.489 -1.567,-4.034c0.686,-1.546 2.492,-2.246 4.039,-1.563l0.005,0.002Z" style="fill:#fff;fill-rule:nonzero;"/><path d="M542.393,430.336l3.173,1.516c1.517,0.724 2.159,2.539 1.433,4.054c-0.721,1.515 -2.537,2.157 -4.054,1.434l-0.015,-0.007l-3.134,-1.488l-0.019,-0.01c-1.522,-0.721 -2.169,-2.537 -1.448,-4.056c0.721,-1.519 2.537,-2.167 4.054,-1.446l0.01,0.003Z" style="fill:#fff;fill-rule:nonzero;"/><path d="M552.933,435.489l3.133,1.6c1.488,0.759 2.079,2.582 1.318,4.07c-0.756,1.488 -2.581,2.079 -4.068,1.32l-0.015,-0.008l-3.094,-1.571l-0.025,-0.01c-1.492,-0.756 -2.089,-2.58 -1.328,-4.073c0.756,-1.492 2.577,-2.088 4.069,-1.332l0.01,0.004Z" style="fill:#fff;fill-rule:nonzero;"/><path d="M563.328,440.912l3.094,1.681c1.462,0.793 2,2.62 1.209,4.081c-0.791,1.462 -2.621,2.003 -4.084,1.21l-0.01,-0.008l-3.059,-1.65l-0.02,-0.011c-1.467,-0.791 -2.014,-2.62 -1.223,-4.084c0.791,-1.466 2.621,-2.013 4.088,-1.222l0.005,0.003Z" style="fill:#fff;fill-rule:nonzero;"/><path d="M573.58,446.597l3.049,1.754c1.432,0.825 1.925,2.656 1.099,4.09c-0.826,1.434 -2.656,1.927 -4.089,1.102l-0.015,-0.008l-3.009,-1.724l-0.02,-0.011c-1.437,-0.823 -1.935,-2.656 -1.114,-4.094c0.821,-1.437 2.656,-1.936 4.094,-1.113l0.005,0.004Z" style="fill:#fff;fill-rule:nonzero;"/><path d="M583.687,452.529l3.009,1.83c1.403,0.855 1.85,2.689 0.995,4.095c-0.856,1.406 -2.691,1.853 -4.094,0.997l-0.015,-0.008l-2.974,-1.799l-0.02,-0.011c-1.408,-0.854 -1.86,-2.688 -1.01,-4.099c0.856,-1.411 2.691,-1.862 4.104,-1.009l0.005,0.004Z" style="fill:#fff;fill-rule:nonzero;"/><path d="M593.65,458.705l2.959,1.899c1.378,0.885 1.781,2.719 0.895,4.098c-0.885,1.378 -2.715,1.779 -4.098,0.895l-0.01,-0.007l-2.93,-1.87l-0.02,-0.011c-1.382,-0.883 -1.785,-2.719 -0.905,-4.101c0.881,-1.383 2.716,-1.789 4.099,-0.907l0.01,0.004Z" style="fill:#fff;fill-rule:nonzero;"/><path d="M603.463,465.114l2.915,1.967c1.353,0.911 1.706,2.745 0.796,4.096c-0.91,1.351 -2.746,1.707 -4.099,0.795l-0.01,-0.007l-2.885,-1.936l-0.014,-0.012c-1.358,-0.909 -1.716,-2.744 -0.806,-4.1c0.905,-1.356 2.74,-1.716 4.098,-0.808l0.005,0.005Z" style="fill:#fff;fill-rule:nonzero;"/><path d="M613.118,471.742l2.87,2.027c1.323,0.936 1.636,2.768 0.701,4.091c-0.935,1.324 -2.77,1.639 -4.094,0.702l-0.004,-0.006l-2.846,-1.999l-0.015,-0.01c-1.328,-0.934 -1.646,-2.768 -0.711,-4.096c0.93,-1.329 2.766,-1.648 4.094,-0.714l0.005,0.005Z" style="fill:#fff;fill-rule:nonzero;"/><path d="M622.623,478.559l2.825,2.078c1.298,0.956 1.577,2.784 0.622,4.083c-0.955,1.299 -2.785,1.577 -4.084,0.622l-0.005,-0.005l-2.805,-2.052l-0.015,-0.009c-1.303,-0.954 -1.587,-2.784 -0.632,-4.088c0.955,-1.304 2.786,-1.588 4.089,-0.634l0.005,0.005Z" style="fill:#fff;fill-rule:nonzero;"/><path d="M631.999,485.541l2.79,2.122c1.274,0.971 1.522,2.794 0.552,4.071c-0.969,1.277 -2.795,1.525 -4.073,0.554l-0,-0.003l-2.776,-2.099l-0.01,-0.008c-1.283,-0.969 -1.537,-2.794 -0.567,-4.076c0.97,-1.282 2.796,-1.534 4.079,-0.565l0.005,0.004Z" style="fill:#fff;fill-rule:nonzero;"/><path d="M641.261,492.655l2.755,2.156c1.258,0.984 1.482,2.8 0.497,4.058c-0.984,1.258 -2.8,1.48 -4.058,0.497l-0,-0.001l-2.746,-2.137l-0.01,-0.006c-1.263,-0.982 -1.492,-2.801 -0.507,-4.063c0.98,-1.262 2.8,-1.49 4.059,-0.508l0.01,0.004Z" style="fill:#fff;fill-rule:nonzero;"/><path d="M650.423,499.876l2.735,2.184c1.244,0.99 1.448,2.8 0.453,4.041c-0.99,1.241 -2.8,1.444 -4.039,0.453l-2.731,-2.167l-0.005,-0.005c-1.243,-0.989 -1.452,-2.801 -0.462,-4.046c0.99,-1.245 2.8,-1.453 4.044,-0.464l0.005,0.004Z" style="fill:#fff;fill-rule:nonzero;"/><path d="M659.52,507.18l2.716,2.203c1.228,0.994 1.417,2.796 0.423,4.023c-0.995,1.227 -2.796,1.417 -4.024,0.422l-2.716,-2.19c-1.234,-0.991 -1.428,-2.795 -0.438,-4.028c0.99,-1.233 2.795,-1.43 4.029,-0.439l0.01,0.009Z" style="fill:#fff;fill-rule:nonzero;"/><path d="M668.563,514.539l2.705,2.216c1.214,0.995 1.393,2.787 0.398,4.004c-0.994,1.216 -2.785,1.397 -4.004,0.402l-2.705,-2.204c-1.219,-0.993 -1.408,-2.788 -0.413,-4.009c0.994,-1.222 2.79,-1.407 4.009,-0.414l0.01,0.005Z" style="fill:#fff;fill-rule:nonzero;"/><path d="M677.571,521.929l2.7,2.218c1.209,0.993 1.383,2.776 0.388,3.984c-0.989,1.208 -2.77,1.387 -3.979,0.394l-2.701,-2.211c-1.213,-0.991 -1.392,-2.777 -0.403,-3.99c0.99,-1.212 2.776,-1.392 3.99,-0.401l0.005,0.006Z" style="fill:#fff;fill-rule:nonzero;"/><path d="M686.568,529.322l2.701,2.215c1.204,0.986 1.378,2.76 0.393,3.962c-0.985,1.204 -2.755,1.383 -3.959,0.398l-2.706,-2.211c-1.209,-0.984 -1.388,-2.76 -0.403,-3.967c0.985,-1.207 2.761,-1.387 3.969,-0.403l0.005,0.006Z" style="fill:#fff;fill-rule:nonzero;"/><path d="M695.576,536.694l2.706,2.203c1.199,0.975 1.383,2.739 0.408,3.94c-0.975,1.2 -2.736,1.386 -3.934,0.411l-2.721,-2.202c-1.204,-0.974 -1.388,-2.741 -0.413,-3.945c0.975,-1.204 2.741,-1.39 3.944,-0.415l0.01,0.008Z" style="fill:#fff;fill-rule:nonzero;"/><path d="M704.609,544.018l2.721,2.184l0.005,0.004c1.198,0.963 1.392,2.717 0.428,3.916c-0.965,1.2 -2.711,1.396 -3.91,0.432l-2.736,-2.185c-1.203,-0.962 -1.402,-2.718 -0.437,-3.922c0.96,-1.204 2.715,-1.4 3.919,-0.438l0.005,0.004l0.005,0.005Z" style="fill:#fff;fill-rule:nonzero;"/><path d="M713.691,551.267l2.741,2.158l0.005,0.005c1.204,0.947 1.408,2.69 0.463,3.891c-0.95,1.203 -2.686,1.413 -3.885,0.466l-2.761,-2.16c-1.203,-0.946 -1.417,-2.69 -0.467,-3.897c0.945,-1.206 2.686,-1.418 3.895,-0.472l0.005,0.005l0.004,0.004Z" style="fill:#fff;fill-rule:nonzero;"/><path d="M722.844,558.418l2.76,2.122l0.01,0.006c1.204,0.928 1.433,2.658 0.507,3.865c-0.93,1.207 -2.656,1.438 -3.859,0.511l-2.786,-2.129c-1.208,-0.925 -1.442,-2.658 -0.517,-3.869c0.925,-1.211 2.661,-1.443 3.87,-0.516l0.005,0.004l0.01,0.006Z" style="fill:#fff;fill-rule:nonzero;"/><path d="M732.085,565.444l2.791,2.077l0.01,0.009c1.213,0.903 1.467,2.62 0.562,3.835c-0.901,1.214 -2.612,1.47 -3.825,0.567l-2.821,-2.087c-1.218,-0.902 -1.477,-2.621 -0.577,-3.84c0.906,-1.218 2.622,-1.475 3.84,-0.573l0.01,0.004l0.01,0.008Z" style="fill:#fff;fill-rule:nonzero;"/><path d="M741.431,572.309l2.826,2.025l0.014,0.01c1.224,0.877 1.503,2.579 0.627,3.803c-0.875,1.224 -2.571,1.509 -3.795,0.633l-2.86,-2.037c-1.229,-0.874 -1.517,-2.579 -0.642,-3.807c0.876,-1.228 2.582,-1.515 3.81,-0.64l0.005,0.004l0.015,0.009Z" style="fill:#fff;fill-rule:nonzero;"/><path d="M750.897,578.991l2.87,1.965l0.015,0.01c1.233,0.847 1.547,2.534 0.701,3.769c-0.846,1.234 -2.527,1.553 -3.76,0.707l-2.905,-1.977c-1.239,-0.846 -1.557,-2.534 -0.711,-3.774c0.845,-1.239 2.531,-1.559 3.77,-0.714l0.01,0.004l0.01,0.01Z" style="fill:#fff;fill-rule:nonzero;"/><path d="M760.502,585.464l2.909,1.901l0.015,0.011c1.244,0.814 1.592,2.481 0.781,3.724c-0.811,1.238 -2.472,1.588 -3.71,0.787l-2.955,-1.906c-1.248,-0.809 -1.612,-2.481 -0.801,-3.733c0.811,-1.253 2.482,-1.613 3.731,-0.804l0.015,0.009l0.015,0.011Z" style="fill:#fff;fill-rule:nonzero;"/><path d="M770.246,591.715l2.954,1.825l0.02,0.011c1.248,0.771 1.636,2.407 0.865,3.655c-0.77,1.243 -2.397,1.631 -3.64,0.872l-3.005,-1.83c-1.258,-0.766 -1.656,-2.407 -0.89,-3.664c0.766,-1.258 2.407,-1.656 3.666,-0.889l0.015,0.008l0.015,0.012Z" style="fill:#fff;fill-rule:nonzero;"/><path d="M780.149,597.699l3.004,1.738l0.02,0.012c1.253,0.726 1.681,2.329 0.955,3.582c-0.721,1.248 -2.318,1.676 -3.566,0.962l-3.054,-1.744c-1.264,-0.721 -1.702,-2.328 -0.98,-3.59c0.716,-1.262 2.328,-1.701 3.586,-0.98l0.015,0.008l0.02,0.012Z" style="fill:#fff;fill-rule:nonzero;"/><path d="M790.221,603.383l3.054,1.642l0.02,0.013c1.258,0.676 1.731,2.244 1.054,3.503c-0.671,1.253 -2.233,1.725 -3.486,1.06l-3.114,-1.647c-1.263,-0.672 -1.746,-2.244 -1.074,-3.511c0.671,-1.268 2.243,-1.75 3.506,-1.079l0.015,0.007l0.025,0.012Z" style="fill:#fff;fill-rule:nonzero;"/><path d="M800.462,608.734l3.114,1.537l0.025,0.013c1.263,0.623 1.781,2.154 1.159,3.418c-0.622,1.259 -2.144,1.778 -3.407,1.165l-3.169,-1.544c-1.273,-0.619 -1.805,-2.152 -1.183,-3.425c0.616,-1.273 2.148,-1.802 3.422,-1.183l0.015,0.007l0.024,0.012Z" style="fill:#fff;fill-rule:nonzero;"/><path d="M810.888,613.718l3.163,1.417l0.025,0.012c1.269,0.568 1.836,2.058 1.269,3.327c-0.567,1.265 -2.05,1.832 -3.313,1.274l-3.223,-1.422c-1.279,-0.563 -1.856,-2.056 -1.293,-3.333c0.562,-1.278 2.054,-1.857 3.332,-1.293l0.015,0.006l0.025,0.012Z" style="fill:#fff;fill-rule:nonzero;"/><path d="M821.482,618.291l3.214,1.286l0.029,0.011c1.274,0.51 1.891,1.956 1.383,3.229c-0.507,1.268 -1.945,1.886 -3.213,1.387l-3.278,-1.289c-1.283,-0.505 -1.91,-1.953 -1.407,-3.235c0.502,-1.281 1.949,-1.911 3.233,-1.406l0.015,0.005l0.024,0.012Z" style="fill:#fff;fill-rule:nonzero;"/><path d="M832.256,622.418l3.258,1.144l0.035,0.011c1.273,0.448 1.945,1.846 1.497,3.122c-0.443,1.271 -1.835,1.943 -3.109,1.505l-3.327,-1.147c-1.284,-0.442 -1.965,-1.841 -1.527,-3.126c0.442,-1.284 1.845,-1.967 3.128,-1.525l0.015,0.005l0.03,0.011Z" style="fill:#fff;fill-rule:nonzero;"/><path d="M843.194,626.061l3.308,0.992l0.034,0.01c1.279,0.383 2,1.729 1.617,3.006c-0.378,1.272 -1.716,1.996 -2.989,1.623l-3.383,-0.991c-1.288,-0.377 -2.019,-1.725 -1.646,-3.01c0.378,-1.285 1.726,-2.021 3.009,-1.644l0.015,0.004l0.035,0.01Z" style="fill:#fff;fill-rule:nonzero;"/><path d="M854.281,629.181l3.357,0.83l0.035,0.009c1.278,0.316 2.054,1.606 1.741,2.882c-0.313,1.271 -1.597,2.049 -2.87,1.742l-3.432,-0.826c-1.283,-0.31 -2.069,-1.601 -1.761,-2.884c0.309,-1.284 1.597,-2.074 2.88,-1.765l0.015,0.004l0.035,0.008Z" style="fill:#fff;fill-rule:nonzero;"/><path d="M865.512,631.729l3.392,0.642l0.04,0.007c1.273,0.24 2.109,1.467 1.87,2.74c-0.238,1.269 -1.462,2.104 -2.725,1.872l-3.477,-0.635c-1.284,-0.234 -2.129,-1.462 -1.895,-2.741c0.233,-1.28 1.462,-2.128 2.74,-1.895l0.015,0.003l0.04,0.007Z" style="fill:#fff;fill-rule:nonzero;"/><path d="M876.863,633.642l3.427,0.449l0.035,0.005c1.268,0.166 2.158,1.326 1.994,2.592c-0.164,1.26 -1.318,2.15 -2.576,1.993l-3.507,-0.438c-1.273,-0.159 -2.174,-1.32 -2.019,-2.592c0.159,-1.272 1.323,-2.175 2.596,-2.016l0.01,0.002l0.04,0.005Z" style="fill:#fff;fill-rule:nonzero;"/><path d="M888.303,634.908l3.447,0.251l0.04,0.003c1.253,0.092 2.198,1.183 2.104,2.437c-0.09,1.25 -1.174,2.19 -2.423,2.106l-3.526,-0.237c-1.259,-0.084 -2.214,-1.174 -2.129,-2.435c0.084,-1.26 1.174,-2.213 2.437,-2.129l0.01,0.001l0.04,0.003Z" style="fill:#fff;fill-rule:nonzero;"/><path d="M899.798,635.512l3.457,0.048l0.039,0.001c1.239,0.017 2.229,1.035 2.209,2.273c-0.015,1.235 -1.03,2.221 -2.258,2.211l-3.537,-0.028c-1.243,-0.011 -2.243,-1.028 -2.233,-2.272c0.01,-1.244 1.029,-2.244 2.273,-2.233l0.05,-0Z" style="fill:#fff;fill-rule:nonzero;"/><path d="M911.307,635.432l3.452,-0.161l0.04,-0.002c1.219,-0.056 2.248,0.885 2.308,2.103c0.055,1.214 -0.88,2.244 -2.089,2.308l-3.532,0.185c-1.223,0.065 -2.268,-0.875 -2.332,-2.099c-0.065,-1.223 0.875,-2.267 2.099,-2.331l0.015,-0.001l0.039,-0.002Z" style="fill:#fff;fill-rule:nonzero;"/><path d="M922.787,634.645l3.432,-0.377l0.04,-0.005c1.194,-0.132 2.268,0.729 2.398,1.923c0.134,1.188 -0.722,2.259 -1.91,2.397l-3.512,0.407c-1.199,0.14 -2.278,-0.719 -2.417,-1.917c-0.14,-1.198 0.716,-2.283 1.915,-2.421l0.015,-0.002l0.039,-0.005Z" style="fill:#fff;fill-rule:nonzero;"/><path d="M934.188,633.125l3.397,-0.604l0.04,-0.008c1.164,-0.206 2.278,0.569 2.482,1.733c0.209,1.159 -0.562,2.265 -1.721,2.478l-3.477,0.639c-1.169,0.215 -2.288,-0.558 -2.502,-1.726c-0.214,-1.167 0.557,-2.288 1.726,-2.502l0.01,-0.003l0.045,-0.007Z" style="fill:#fff;fill-rule:nonzero;"/><path d="M945.454,630.842l3.347,-0.838l0.045,-0.01c1.124,-0.283 2.268,0.402 2.552,1.53c0.278,1.123 -0.398,2.262 -1.517,2.55l-3.432,0.88c-1.13,0.291 -2.284,-0.391 -2.572,-1.523c-0.293,-1.132 0.388,-2.284 1.522,-2.574l0.01,-0.004l0.045,-0.011Z" style="fill:#fff;fill-rule:nonzero;"/><path d="M956.526,627.769l3.273,-1.08l0.044,-0.015c1.085,-0.358 2.259,0.232 2.617,1.318c0.353,1.081 -0.229,2.248 -1.308,2.611l-3.353,1.129c-1.089,0.366 -2.273,-0.219 -2.636,-1.309c-0.368,-1.089 0.219,-2.269 1.308,-2.635l0.01,-0.004l0.045,-0.015Z" style="fill:#fff;fill-rule:nonzero;"/><path d="M967.329,623.88l3.184,-1.325l0.044,-0.018c1.035,-0.432 2.224,0.058 2.656,1.093c0.428,1.031 -0.054,2.214 -1.079,2.65l-3.258,1.39c-1.039,0.444 -2.243,-0.04 -2.686,-1.08c-0.442,-1.039 0.04,-2.241 1.08,-2.685l0.019,-0.007l0.04,-0.018Z" style="fill:#fff;fill-rule:nonzero;"/><path d="M977.804,619.174l3.059,-1.576l0.045,-0.022c0.97,-0.499 2.164,-0.118 2.661,0.852c0.498,0.964 0.12,2.146 -0.835,2.65l-3.134,1.652c-0.975,0.512 -2.179,0.139 -2.691,-0.834c-0.512,-0.974 -0.139,-2.178 0.831,-2.691l0.02,-0.009l0.044,-0.022Z" style="fill:#fff;fill-rule:nonzero;"/><path d="M987.852,613.626l2.915,-1.829l0.044,-0.026c0.896,-0.563 2.08,-0.291 2.642,0.606c0.562,0.892 0.293,2.066 -0.587,2.633l-2.985,1.911c-0.9,0.576 -2.099,0.314 -2.676,-0.586c-0.577,-0.9 -0.313,-2.097 0.587,-2.673l0.015,-0.01l0.045,-0.026Z" style="fill:#fff;fill-rule:nonzero;"/><path d="M997.382,607.239l2.741,-2.078l0.044,-0.034c0.821,-0.621 1.985,-0.461 2.607,0.357c0.617,0.814 0.462,1.972 -0.343,2.596l-2.806,2.174c-0.82,0.635 -1.999,0.485 -2.636,-0.335c-0.637,-0.821 -0.482,-2 0.338,-2.635l0.01,-0.011l0.045,-0.034Z" style="fill:#fff;fill-rule:nonzero;"/><path d="M1006.26,599.994l2.521,-2.344l0.035,-0.036c0.731,-0.679 1.87,-0.638 2.552,0.09c0.676,0.725 0.637,1.857 -0.08,2.538l-2.571,2.442c-0.731,0.692 -1.88,0.663 -2.572,-0.067c-0.696,-0.729 -0.666,-1.881 0.065,-2.574l0.015,-0.012l0.035,-0.037Z" style="fill:#fff;fill-rule:nonzero;"/><path d="M1014.38,591.898l2.283,-2.579l0.035,-0.037c0.637,-0.723 1.741,-0.79 2.462,-0.151c0.721,0.636 0.791,1.73 0.164,2.453l-2.323,2.677c-0.636,0.736 -1.75,0.815 -2.487,0.177c-0.736,-0.639 -0.815,-1.753 -0.179,-2.489l0.01,-0.013l0.035,-0.038Z" style="fill:#fff;fill-rule:nonzero;"/><path d="M1021.7,583.055l2.029,-2.783l0.025,-0.039c0.552,-0.754 1.612,-0.918 2.363,-0.368c0.751,0.546 0.915,1.594 0.378,2.347l-2.06,2.88c-0.547,0.768 -1.611,0.945 -2.382,0.396c-0.766,-0.547 -0.94,-1.614 -0.393,-2.381l0.01,-0.014l0.03,-0.038Z" style="fill:#fff;fill-rule:nonzero;"/><path d="M1028.16,573.561l1.766,-2.961l0.025,-0.039c0.462,-0.775 1.467,-1.029 2.238,-0.567c0.771,0.459 1.025,1.452 0.577,2.225l-1.786,3.057c-0.457,0.787 -1.467,1.053 -2.253,0.594c-0.791,-0.459 -1.054,-1.469 -0.597,-2.256l0.01,-0.014l0.02,-0.039Z" style="fill:#fff;fill-rule:nonzero;"/><path d="M1033.73,563.504l1.482,-3.113l0.02,-0.04c0.373,-0.785 1.313,-1.118 2.099,-0.745c0.781,0.373 1.114,1.304 0.751,2.086l-1.492,3.209c-0.368,0.797 -1.318,1.144 -2.114,0.774c-0.796,-0.371 -1.144,-1.319 -0.776,-2.116l0.01,-0.015l0.02,-0.04Z" style="fill:#fff;fill-rule:nonzero;"/><path d="M1038.33,552.971l1.184,-3.241l0.014,-0.041c0.289,-0.788 1.159,-1.194 1.945,-0.906c0.786,0.286 1.189,1.149 0.911,1.933l-1.179,3.335c-0.284,0.8 -1.159,1.219 -1.96,0.935c-0.801,-0.283 -1.219,-1.161 -0.935,-1.961l0.005,-0.014l0.015,-0.04Z" style="fill:#fff;fill-rule:nonzero;"/><path d="M1041.9,542.045l0.861,-3.341l0.014,-0.042c0.199,-0.782 0.995,-1.253 1.776,-1.051c0.781,0.201 1.249,0.99 1.055,1.767l-0.846,3.434c-0.199,0.793 -1,1.277 -1.791,1.081c-0.795,-0.196 -1.278,-0.998 -1.084,-1.791l0.005,-0.014l0.01,-0.043Z" style="fill:#fff;fill-rule:nonzero;"/><path d="M1044.37,530.819l0.517,-3.41l0.005,-0.044c0.115,-0.767 0.831,-1.295 1.597,-1.179c0.766,0.115 1.288,0.823 1.184,1.584l-0.493,3.504c-0.109,0.778 -0.83,1.32 -1.606,1.21c-0.781,-0.11 -1.318,-0.829 -1.209,-1.606l0,-0.014l0.005,-0.045Z" style="fill:#fff;fill-rule:nonzero;"/><path d="M1045.66,519.4l0.145,-3.441l-0,-0.046c0.029,-0.743 0.656,-1.321 1.402,-1.291c0.736,0.031 1.313,0.651 1.289,1.389l-0.11,3.532c-0.025,0.754 -0.651,1.345 -1.407,1.322c-0.752,-0.024 -1.343,-0.654 -1.319,-1.407l0,-0.058Z" style="fill:#fff;fill-rule:nonzero;"/><path d="M1045.67,507.916l-0.253,-3.438l-0,-0.046c-0.055,-0.711 0.482,-1.33 1.188,-1.383c0.707,-0.052 1.324,0.476 1.383,1.18l0.294,3.527c0.064,0.72 -0.473,1.353 -1.194,1.412c-0.716,0.06 -1.353,-0.474 -1.413,-1.194l0,-0.012l-0.005,-0.046Z" style="fill:#fff;fill-rule:nonzero;"/><path d="M1044.35,496.508l-0.666,-3.382l-0.01,-0.046c-0.13,-0.668 0.303,-1.317 0.97,-1.449c0.666,-0.132 1.313,0.297 1.447,0.959l0.721,3.465c0.145,0.676 -0.293,1.339 -0.97,1.479c-0.676,0.141 -1.338,-0.293 -1.477,-0.969l-0.005,-0.012l-0.01,-0.045Z" style="fill:#fff;fill-rule:nonzero;"/><path d="M1041.62,485.35l-1.09,-3.269l-0.015,-0.044c-0.209,-0.617 0.125,-1.283 0.741,-1.489c0.612,-0.204 1.279,0.123 1.488,0.732l1.154,3.346c0.213,0.623 -0.115,1.303 -0.737,1.518c-0.626,0.215 -1.303,-0.116 -1.522,-0.739l0,-0.011l-0.019,-0.044Z" style="fill:#fff;fill-rule:nonzero;"/><path d="M360.875,582.287c34.049,-0 61.651,-27.602 61.651,-61.651c-0,-34.048 -27.602,-61.65 -61.651,-61.65c-34.048,0 -61.65,27.602 -61.65,61.65c0,34.049 27.602,61.651 61.65,61.651Z" style="fill:url(#_Linear37);fill-rule:nonzero;"/><path d="M304.045,518.268c-0.012,-0 -0.024,-0 -0.035,-0.001c-0.359,-0.019 -0.635,-0.325 -0.617,-0.684c0.127,-2.422 0.409,-4.854 0.838,-7.23c0.063,-0.354 0.4,-0.589 0.756,-0.526c0.354,0.064 0.59,0.403 0.525,0.757c-0.418,2.322 -0.693,4.699 -0.817,7.066c-0.019,0.348 -0.307,0.618 -0.65,0.618Z" style="fill:url(#_Linear38);fill-rule:nonzero;"/><path d="M310.039,495.678c-0.099,0 -0.199,-0.022 -0.294,-0.07c-0.321,-0.162 -0.449,-0.554 -0.287,-0.875c9.856,-19.528 29.558,-31.659 51.417,-31.659c3.485,0 6.979,0.314 10.383,0.936c0.354,0.063 0.588,0.402 0.525,0.757c-0.065,0.354 -0.403,0.591 -0.758,0.523c-3.328,-0.606 -6.742,-0.913 -10.15,-0.913c-21.365,-0 -40.621,11.857 -50.255,30.942c-0.114,0.228 -0.343,0.359 -0.581,0.359Z" style="fill:url(#_Linear39);fill-rule:nonzero;"/><path d="M399.11,558.876c20.377,-20.377 20.377,-53.415 0,-73.792c-20.377,-20.377 -53.415,-20.377 -73.792,-0c-20.377,20.377 -20.377,53.415 0,73.792c20.377,20.377 53.415,20.377 73.792,-0Z" style="fill:#fff;fill-opacity:0.88;fill-rule:nonzero;"/><path d="M360.549,553.505c-18.093,-0 -32.813,-14.721 -32.813,-32.814c-0,-18.093 14.719,-32.813 32.813,-32.813c18.093,-0 32.814,14.72 32.814,32.813c-0.001,18.093 -14.721,32.814 -32.814,32.814Zm-0,-62.049c-16.12,0 -29.234,13.115 -29.234,29.235c-0,16.12 13.115,29.235 29.234,29.235c16.12,-0 29.234,-13.115 29.234,-29.235c-0,-16.12 -13.114,-29.235 -29.234,-29.235Z" style="fill:url(#_Linear40);fill-rule:nonzero;"/><path d="M360.549,538.809c-9.99,0 -18.118,-8.127 -18.118,-18.118c0,-9.99 8.128,-18.118 18.118,-18.118c9.991,0 18.118,8.128 18.118,18.118c0,9.99 -8.128,18.118 -18.118,18.118Zm0,-32.656c-8.017,-0 -14.539,6.521 -14.539,14.538c0,8.017 6.522,14.539 14.539,14.539c8.017,-0 14.539,-6.522 14.539,-14.539c-0,-8.017 -6.523,-14.538 -14.539,-14.538Z" style="fill:url(#_Linear41);fill-rule:nonzero;"/><path d="M368.06,520.69c-0,4.149 -3.363,7.512 -7.512,7.512c-4.147,-0 -7.511,-3.363 -7.511,-7.512c0,-4.147 3.363,-7.511 7.511,-7.511c4.149,0 7.512,3.364 7.512,7.511Z" style="fill:url(#_Linear42);fill-rule:nonzero;"/><path d="M362.726,489.558l-3.701,0l-0,-4.245c-0,-1.022 0.829,-1.85 1.851,-1.85c1.022,-0 1.85,0.828 1.85,1.85l-0,4.245Z" style="fill:url(#_Linear43);fill-rule:nonzero;"/><path d="M362.726,551.715l-3.701,0l-0,4.245c-0,1.022 0.829,1.851 1.851,1.851c1.022,-0 1.85,-0.829 1.85,-1.851l-0,-4.245Z" style="fill:url(#_Linear44);fill-rule:nonzero;"/><path d="M330.069,518.514l-0,3.701l-4.245,0c-1.022,0 -1.851,-0.829 -1.851,-1.85c0,-1.022 0.829,-1.851 1.851,-1.851l4.245,-0Z" style="fill:url(#_Linear45);fill-rule:nonzero;"/><path d="M391.681,522.215l0,-3.701l4.246,-0c1.022,-0 1.851,0.829 1.851,1.851c-0,1.021 -0.829,1.85 -1.851,1.85l-4.246,0Z" style="fill:url(#_Linear46);fill-rule:nonzero;"/><path d="M202.447,668.088c34.049,-0 61.65,-27.602 61.65,-61.651c0,-34.049 -27.601,-61.65 -61.65,-61.65c-34.048,-0 -61.65,27.601 -61.65,61.65c0,34.049 27.602,61.651 61.65,61.651Z" style="fill:url(#_Linear47);fill-rule:nonzero;"/><path d="M145.616,604.068c-0.011,0 -0.023,0 -0.035,-0c-0.359,-0.019 -0.635,-0.326 -0.616,-0.685c0.126,-2.422 0.408,-4.854 0.837,-7.23c0.064,-0.353 0.4,-0.589 0.757,-0.525c0.354,0.064 0.589,0.403 0.525,0.756c-0.419,2.322 -0.693,4.7 -0.818,7.066c-0.018,0.349 -0.306,0.618 -0.65,0.618Z" style="fill:url(#_Linear48);fill-rule:nonzero;"/><path d="M151.611,581.478c-0.099,0 -0.199,-0.021 -0.294,-0.069c-0.321,-0.162 -0.449,-0.554 -0.288,-0.875c9.857,-19.527 29.559,-31.659 51.418,-31.659c3.486,-0 6.98,0.314 10.383,0.935c0.355,0.064 0.589,0.403 0.525,0.758c-0.065,0.353 -0.403,0.591 -0.758,0.523c-3.328,-0.606 -6.742,-0.914 -10.15,-0.914c-21.365,0 -40.621,11.857 -50.255,30.943c-0.114,0.228 -0.344,0.358 -0.581,0.358Z" style="fill:url(#_Linear49);fill-rule:nonzero;"/><path d="M240.682,644.675c20.377,-20.377 20.377,-53.415 0,-73.792c-20.377,-20.377 -53.415,-20.377 -73.792,0c-20.377,20.377 -20.377,53.415 0,73.792c20.377,20.379 53.415,20.379 73.792,0Z" style="fill:#fff;fill-opacity:0.88;fill-rule:nonzero;"/><path d="M202.468,616.977c13.269,-0 24.026,-10.758 24.026,-24.027c-0,-13.269 -10.757,-24.026 -24.026,-24.026c-13.27,-0 -24.027,10.757 -24.027,24.026c-0,13.269 10.757,24.027 24.027,24.027Z" style="fill:url(#_Linear50);fill-rule:nonzero;"/><path d="M226.45,591.052l-48.009,-0c0,-0 -1.912,13.641 19.531,50.167c0.935,1.594 2.645,2.699 4.493,2.7c1.848,0.001 3.56,-1.165 4.496,-2.758c21.44,-36.53 19.489,-50.109 19.489,-50.109Z" style="fill:url(#_Linear51);fill-rule:nonzero;"/><path d="M212.351,602.681c5.418,-5.417 5.418,-14.201 0,-19.619c-5.418,-5.418 -14.202,-5.418 -19.619,0c-5.419,5.418 -5.419,14.202 -0,19.619c5.417,5.419 14.201,5.419 19.619,0Z" style="fill:#fff;fill-opacity:0.8;fill-rule:nonzero;"/><path d="M983.982,400.38l9.6,-1.175c2.969,3.498 6.401,6.533 10.221,9.045l0.005,9.668c0,1.104 0.702,2.086 1.746,2.448l12.037,4.145c1.045,0.358 2.204,0.014 2.885,-0.855l5.954,-7.617c4.556,0.373 9.132,0.091 13.624,-0.839l6.844,6.837c0.781,0.781 1.975,0.981 2.969,0.496l11.441,-5.581c0.989,-0.485 1.566,-1.548 1.432,-2.644l-1.174,-9.604c3.497,-2.968 6.536,-6.399 9.048,-10.218l9.664,-0.005c1.104,-0.002 2.089,-0.703 2.452,-1.748l4.139,-12.036c0.363,-1.045 0.02,-2.204 -0.851,-2.886l-7.615,-5.955c0.368,-4.556 0.09,-9.129 -0.841,-13.621l6.84,-6.845c0.781,-0.782 0.975,-1.974 0.492,-2.967l-5.581,-11.442c-0.482,-0.993 -1.547,-1.569 -2.646,-1.435l-9.6,1.176c-2.969,-3.498 -6.401,-6.535 -10.221,-9.046l-0.005,-9.667c-0,-1.048 -0.632,-1.987 -1.587,-2.389c-0.05,-0.022 -0.104,-0.042 -0.159,-0.061l-12.037,-4.144c-1.045,-0.359 -2.203,-0.015 -2.885,0.855l-5.954,7.616c-4.556,-0.372 -9.132,-0.09 -13.623,0.839l-6.845,-6.836c-0.781,-0.783 -1.974,-0.982 -2.964,-0.496l-11.445,5.581c-0.99,0.484 -1.567,1.546 -1.433,2.644l1.174,9.603c-3.497,2.968 -6.536,6.398 -9.048,10.219l-9.664,0.005c-1.109,0.001 -2.089,0.704 -2.447,1.748l-4.148,12.036c-0.359,1.045 -0.015,2.205 0.855,2.886l7.615,5.954c-0.368,4.557 -0.089,9.13 0.841,13.621l-6.839,6.845c-0.776,0.782 -0.98,1.975 -0.493,2.968l5.581,11.442c0.487,0.992 1.547,1.569 2.646,1.435Zm-4.869,-13.842l7.744,-7.752l-0.214,-0.926c-1.079,-4.737 -1.378,-9.58 -0.885,-14.393l0.094,-0.944l-8.625,-6.746l3.751,-10.894l10.948,-0.005l0.507,-0.803c2.576,-4.095 5.795,-7.728 9.56,-10.798l0.731,-0.6l-1.328,-10.876l10.356,-5.052l7.749,7.744l0.925,-0.21c4.741,-1.079 9.58,-1.377 14.395,-0.887l0.945,0.096l6.745,-8.628l10.893,3.751l0.005,10.951l0.806,0.505c4.093,2.576 7.724,5.792 10.798,9.558l0.597,0.736l10.878,-1.331l5.049,10.355l-7.74,7.752l0.209,0.925c1.079,4.738 1.378,9.58 0.885,14.394l-0.094,0.944l8.625,6.745l-3.751,10.894l-10.952,0.006l-0.503,0.803c-2.576,4.095 -5.794,7.728 -9.56,10.798l-0.736,0.6l1.333,10.876l-10.356,5.052l-7.749,-7.744l-0.93,0.211c-4.735,1.078 -9.575,1.377 -14.39,0.886l-0.945,-0.096l-6.745,8.628l-10.893,-3.751l-0.01,-10.95l-0.8,-0.506c-4.094,-2.576 -7.73,-5.792 -10.799,-9.559l-0.602,-0.735l-10.873,1.331l-5.048,-10.355Z" style="fill:#bdd0fb;fill-rule:nonzero;"/><path d="M1044.32,397.253c7.785,-3.798 13.629,-10.402 16.444,-18.594c1.915,-5.559 2.288,-11.523 1.075,-17.247c-0.194,-0.928 -1.109,-1.522 -2.04,-1.326c-0.925,0.197 -1.522,1.11 -1.323,2.039c1.08,5.114 0.751,10.445 -0.96,15.415c-5.207,15.118 -21.741,23.184 -36.857,17.98c-15.121,-5.207 -23.183,-21.737 -17.981,-36.856c5.203,-15.118 21.737,-23.185 36.857,-17.98c1.955,0.673 3.84,1.553 5.596,2.615c0.816,0.491 1.87,0.231 2.358,-0.582c0.492,-0.812 0.234,-1.869 -0.582,-2.361c-1.348,-0.817 -2.771,-1.538 -4.238,-2.154c-0.661,-0.279 -1.333,-0.535 -2.014,-0.77c-16.912,-5.821 -35.405,3.201 -41.23,20.113c-5.819,16.911 3.209,35.406 20.115,41.227c8.192,2.82 16.991,2.281 24.78,-1.519Z" style="fill:#bdd0fb;fill-rule:nonzero;"/><path d="M1017.35,366.867c-0.294,3.466 0.78,6.839 3.029,9.497c2.243,2.659 5.387,4.283 8.853,4.575c7.153,0.605 13.47,-4.725 14.072,-11.88c0.293,-3.466 -0.781,-6.839 -3.024,-9.497c-1.353,-1.598 -3.025,-2.822 -4.9,-3.608c-1.243,-0.522 -2.576,-0.851 -3.959,-0.968c-7.153,-0.604 -13.465,4.726 -14.071,11.881Zm20.298,-5.086c1.652,1.956 2.443,4.438 2.229,6.988c-0.443,5.266 -5.089,9.189 -10.356,8.744c-1.02,-0.086 -2,-0.328 -2.915,-0.712c-1.378,-0.579 -2.611,-1.48 -3.601,-2.655c-1.651,-1.956 -2.442,-4.438 -2.228,-6.989c0.442,-5.267 5.093,-9.189 10.355,-8.744c2.552,0.216 4.865,1.411 6.516,3.368Z" style="fill:#bdd0fb;fill-rule:nonzero;"/><path d="M930.81,442.705l4.029,-1.782c1.761,1.109 3.651,1.975 5.636,2.584l1.283,4.211c0.209,0.698 0.841,1.186 1.572,1.21l6.118,0.226c0.726,0.028 1.393,-0.411 1.656,-1.091l1.587,-4.106c2.024,-0.461 3.969,-1.186 5.809,-2.163l3.89,2.074c0.637,0.343 1.433,0.24 1.965,-0.256l4.486,-4.166c0.533,-0.496 0.697,-1.277 0.398,-1.945l-1.78,-4.028c1.109,-1.762 1.974,-3.653 2.581,-5.636l4.218,-1.282c0.696,-0.213 1.179,-0.846 1.209,-1.572l0.224,-6.119c0.024,-0.729 -0.428,-1.399 -1.09,-1.655l-4.108,-1.587c-0.463,-2.023 -1.184,-3.972 -2.164,-5.811l2.074,-3.888c0.343,-0.643 0.239,-1.433 -0.253,-1.966l-4.169,-4.485c-0.492,-0.534 -1.278,-0.695 -1.944,-0.4l-4.029,1.782c-1.761,-1.108 -3.651,-1.975 -5.636,-2.583l-1.278,-4.214c-0.154,-0.496 -0.518,-0.885 -0.975,-1.077c-0.189,-0.078 -0.388,-0.124 -0.597,-0.132l-6.118,-0.225c-0.731,-0.027 -1.398,0.411 -1.661,1.093l-1.587,4.104c-2.019,0.461 -3.969,1.187 -5.81,2.163l-3.884,-2.075c-0.642,-0.348 -1.433,-0.239 -1.97,0.257l-4.482,4.166c-0.537,0.496 -0.696,1.277 -0.402,1.945l1.785,4.029c-1.109,1.761 -1.979,3.651 -2.586,5.635l-4.208,1.28c-0.702,0.211 -1.189,0.844 -1.214,1.573l-0.224,6.117c-0.03,0.728 0.408,1.393 1.09,1.658l4.108,1.587c0.458,2.024 1.184,3.972 2.159,5.811l-2.074,3.887c-0.344,0.643 -0.239,1.433 0.258,1.967l4.164,4.484c0.497,0.534 1.278,0.696 1.944,0.401Zm-3.8,-6.186l2.447,-4.584l-0.353,-0.618c-1.134,-1.985 -1.93,-4.125 -2.367,-6.36l-0.135,-0.699l-4.844,-1.872l0.179,-4.878l4.969,-1.511l0.189,-0.687c0.597,-2.195 1.552,-4.271 2.825,-6.169l0.398,-0.591l-2.104,-4.75l3.581,-3.323l4.581,2.445l0.617,-0.352c1.99,-1.133 4.128,-1.93 6.362,-2.367l0.701,-0.136l1.87,-4.843l4.88,0.18l1.507,4.967l0.686,0.188c2.199,0.6 4.273,1.551 6.173,2.828l0.587,0.397l4.75,-2.102l3.328,3.577l-2.448,4.584l0.354,0.618c1.134,1.986 1.929,4.127 2.367,6.36l0.134,0.698l4.845,1.873l-0.179,4.878l-4.969,1.511l-0.189,0.687c-0.597,2.195 -1.552,4.271 -2.825,6.169l-0.398,0.59l2.099,4.751l-3.576,3.323l-4.581,-2.446l-0.617,0.353c-1.99,1.133 -4.129,1.93 -6.362,2.366l-0.701,0.137l-1.87,4.843l-4.88,-0.18l-1.512,-4.967l-0.686,-0.188c-2.194,-0.599 -4.268,-1.552 -6.168,-2.828l-0.592,-0.397l-4.75,2.102l-3.323,-3.577Z" style="fill:#bdd0fb;fill-rule:nonzero;"/><path d="M963.39,421.575c0.104,-2.909 -0.577,-5.789 -1.975,-8.327c-0.343,-0.624 -1.129,-0.851 -1.751,-0.508c-0.621,0.344 -0.85,1.128 -0.507,1.752c1.174,2.129 1.746,4.545 1.651,6.989c-0.273,7.43 -6.54,13.252 -13.967,12.979c-7.431,-0.273 -13.25,-6.541 -12.982,-13.971c0.274,-7.431 6.541,-13.253 13.972,-12.979c0.965,0.035 1.92,0.173 2.845,0.408c0.692,0.175 1.393,-0.242 1.567,-0.933c0.159,-0.626 -0.169,-1.262 -0.751,-1.506c-0.055,-0.024 -0.119,-0.044 -0.179,-0.061c-1.099,-0.279 -2.238,-0.443 -3.387,-0.485c-4.288,-0.158 -8.381,1.363 -11.525,4.283c-3.138,2.921 -4.959,6.89 -5.118,11.178c-0.154,4.287 1.363,8.38 4.287,11.524c2.92,3.142 6.889,4.961 11.177,5.118c8.849,0.327 16.315,-6.61 16.643,-15.461Z" style="fill:#bdd0fb;fill-rule:nonzero;"/><path d="M1044.74,433.519l-9.769,17.471l-7.63,-14.124l17.399,-3.347Z" style="fill:#7d97f4;fill-rule:nonzero;"/><path d="M971.781,379.577l24.049,67.758c0.458,1.297 1.428,2.351 2.681,2.919c1.254,0.568 2.686,0.601 3.964,0.093l67.119,-26.708c0.771,-0.305 1.278,-1.047 1.283,-1.874c0.005,-0.827 -0.492,-1.574 -1.258,-1.889l-97.838,-40.299Z" style="fill:#91b3fa;fill-rule:nonzero;"/><path d="M1044.73,433.519l-72.948,-53.942l62.13,58.285l-2.502,4.96l13.32,-9.303Z" style="fill:#7d97f4;fill-rule:nonzero;"/><path d="M1027.48,440.389l7.49,10.601l-1.059,-13.128l-6.431,2.527Z" style="fill:#7d97f4;fill-rule:nonzero;"/><path d="M690.598,559.286c-5.962,-0.068 -6.017,2.543 -11.422,2.64c-5.399,-0.097 -5.468,-2.708 -11.423,-2.64c-5.954,-0.068 -6.016,2.543 -11.412,2.64c-5.399,-0.097 -5.461,-2.708 -11.419,-2.64c-3.279,0 -5.002,0.795 -6.52,1.499c-1.322,0.611 -2.465,1.141 -4.892,1.141c-2.427,-0 -3.57,-0.53 -4.892,-1.141c-1.518,-0.704 -3.241,-1.499 -6.52,-1.499c-1.07,0 -1.939,0.87 -1.939,1.939c-0,1.07 0.869,1.938 1.939,1.938c5.393,0.098 5.461,2.708 11.412,2.64c5.955,0.068 6.013,-2.542 11.412,-2.64c5.399,0.098 5.461,2.708 11.419,2.64c5.955,0.068 6.016,-2.542 11.412,-2.64c5.406,0.098 5.465,2.708 11.423,2.64c5.954,0.068 6.019,-2.542 11.422,-2.64c2.523,-0.035 2.569,-3.831 -0,-3.877Zm-34.249,-1.815c11.916,-0 21.609,-9.694 21.609,-21.61c-0,-4.164 -2.359,-10.068 -7.209,-18.042c-1.366,-2.158 -4.598,-0.181 -3.312,2.013c5.494,9.027 6.643,13.697 6.643,16.026c-0.969,23.516 -34.491,23.525 -35.464,0c0,-6.765 9.099,-20.805 17.733,-31.849c1.47,1.881 4.087,5.312 6.879,9.384c1.48,2.081 4.604,-0.072 3.199,-2.194c-3.053,-4.449 -5.9,-8.152 -7.316,-9.952c-1.298,-1.78 -4.213,-1.786 -5.512,-0.009c-5.67,7.215 -18.856,25.031 -18.856,34.62c-0,11.916 9.693,21.609 21.609,21.609l-0.003,0.004Zm20.349,-5.785c-0.1,4.111 8.12,1.173 9.002,0.601c1.324,-0.61 2.468,-1.141 4.898,-1.141c1.07,0 1.939,-0.868 1.939,-1.938c-0.197,-3.903 -7.625,-0.911 -8.465,-0.442c-1.325,0.61 -2.469,1.14 -4.898,1.14c-1.186,-0.177 -2.388,0.507 -2.476,1.78Zm-54.599,-0.539c2.423,0 3.564,0.527 4.886,1.137c1.518,0.701 3.244,1.499 6.526,1.499c1.293,0.166 2.598,-0.691 2.488,-2.087c-0.087,-1.289 -1.302,-1.974 -2.488,-1.79c-5.402,-0.096 -5.46,-2.704 -11.412,-2.637c-2.543,0.043 -2.552,3.833 -0,3.878l0,0Zm25.91,-15.282c-0.042,-2.543 -3.835,-2.55 -3.877,-0c-0,6.736 5.479,12.217 12.217,12.217c1.069,-0 1.938,-0.87 1.938,-1.939c0,-1.07 -0.869,-1.939 -1.938,-1.939c-4.598,0 -8.34,-3.741 -8.34,-8.339Z" style="fill:#fe7a6f;fill-rule:nonzero;"/></g></g><defs><linearGradient id="_Linear1" x1="0" y1="0" x2="1" y2="0" gradientUnits="userSpaceOnUse" gradientTransform="matrix(20.9608,-139.739,139.739,20.9608,264.062,1000.52)"><stop offset="0" style="stop-color:#4042e2;stop-opacity:1"/><stop offset="1" style="stop-color:#4f52ff;stop-opacity:1"/></linearGradient><linearGradient id="_Linear2" x1="0" y1="0" x2="1" y2="0" gradientUnits="userSpaceOnUse" gradientTransform="matrix(20.9608,-139.734,139.734,20.9608,376.625,1017.4)"><stop offset="0" style="stop-color:#4042e2;stop-opacity:1"/><stop offset="1" style="stop-color:#4f52ff;stop-opacity:1"/></linearGradient><linearGradient id="_Linear3" x1="0" y1="0" x2="1" y2="0" gradientUnits="userSpaceOnUse" gradientTransform="matrix(20.9608,-139.734,139.734,20.9608,488.475,1034.18)"><stop offset="0" style="stop-color:#4042e2;stop-opacity:1"/><stop offset="1" style="stop-color:#4f52ff;stop-opacity:1"/></linearGradient><linearGradient id="_Linear4" x1="0" y1="0" x2="1" y2="0" gradientUnits="userSpaceOnUse" gradientTransform="matrix(20.9603,-139.734,139.734,20.9603,973.169,1106.89)"><stop offset="0" style="stop-color:#4042e2;stop-opacity:1"/><stop offset="1" style="stop-color:#4f52ff;stop-opacity:1"/></linearGradient><linearGradient id="_Linear5" x1="0" y1="0" x2="1" y2="0" gradientUnits="userSpaceOnUse" gradientTransform="matrix(20.9603,-139.739,139.739,20.9603,605.513,1051.74)"><stop offset="0" style="stop-color:#4042e2;stop-opacity:1"/><stop offset="1" style="stop-color:#4f52ff;stop-opacity:1"/></linearGradient><linearGradient id="_Linear6" x1="0" y1="0" x2="1" y2="0" gradientUnits="userSpaceOnUse" gradientTransform="matrix(20.9603,-139.734,139.734,20.9603,729.18,1070.29)"><stop offset="0" style="stop-color:#4042e2;stop-opacity:1"/><stop offset="1" style="stop-color:#4f52ff;stop-opacity:1"/></linearGradient><linearGradient id="_Linear7" x1="0" y1="0" x2="1" y2="0" gradientUnits="userSpaceOnUse" gradientTransform="matrix(20.9603,-139.739,139.739,20.9603,874.162,1092.04)"><stop offset="0" style="stop-color:#4042e2;stop-opacity:1"/><stop offset="1" style="stop-color:#4f52ff;stop-opacity:1"/></linearGradient><linearGradient id="_Linear8" x1="0" y1="0" x2="1" y2="0" gradientUnits="userSpaceOnUse" gradientTransform="matrix(1117.56,0,0,1117.56,81.2215,609.634)"><stop offset="0" style="stop-color:#dae3fe;stop-opacity:1"/><stop offset="1" style="stop-color:#e9effd;stop-opacity:1"/></linearGradient><linearGradient id="_Linear9" x1="0" y1="0" x2="1" y2="0" gradientUnits="userSpaceOnUse" gradientTransform="matrix(422.516,0,0,422.516,285.346,695.201)"><stop offset="0" style="stop-color:#09005d;stop-opacity:1"/><stop offset="1" style="stop-color:#1a0f91;stop-opacity:1"/></linearGradient><linearGradient id="_Linear10" x1="0" y1="0" x2="1" y2="0" gradientUnits="userSpaceOnUse" gradientTransform="matrix(410.657,-177.795,177.795,410.657,367.89,892.608)"><stop offset="0" style="stop-color:#fe7062;stop-opacity:1"/><stop offset="1" style="stop-color:#ff928e;stop-opacity:1"/></linearGradient><linearGradient id="_Linear11" x1="0" y1="0" x2="1" y2="0" gradientUnits="userSpaceOnUse" gradientTransform="matrix(-124.837,137.033,-137.033,-124.837,954.447,841.674)"><stop offset="0" style="stop-color:#e1473d;stop-opacity:1"/><stop offset="1" style="stop-color:#e9605a;stop-opacity:1"/></linearGradient><linearGradient id="_Linear12" x1="0" y1="0" x2="1" y2="0" gradientUnits="userSpaceOnUse" gradientTransform="matrix(-26.8545,38.6726,-38.6726,-26.8545,925.956,764.747)"><stop offset="0" style="stop-color:#e1473d;stop-opacity:1"/><stop offset="1" style="stop-color:#e9605a;stop-opacity:1"/></linearGradient><linearGradient id="_Linear13" x1="0" y1="0" x2="1" y2="0" gradientUnits="userSpaceOnUse" gradientTransform="matrix(42.237,63.826,-63.826,42.237,162.696,722.065)"><stop offset="0" style="stop-color:#e1473d;stop-opacity:1"/><stop offset="1" style="stop-color:#e9605a;stop-opacity:1"/></linearGradient><linearGradient id="_Linear14" x1="0" y1="0" x2="1" y2="0" gradientUnits="userSpaceOnUse" gradientTransform="matrix(-75.4701,-60.9063,60.9063,-75.4701,645.27,755.809)"><stop offset="0" style="stop-color:#e1473d;stop-opacity:1"/><stop offset="1" style="stop-color:#e9605a;stop-opacity:1"/></linearGradient><linearGradient id="_Linear15" x1="0" y1="0" x2="1" y2="0" gradientUnits="userSpaceOnUse" gradientTransform="matrix(39.7216,-39.7221,39.7221,39.7216,484.777,800.584)"><stop offset="0" style="stop-color:#e1473d;stop-opacity:1"/><stop offset="1" style="stop-color:#e9605a;stop-opacity:1"/></linearGradient><linearGradient id="_Linear16" x1="0" y1="0" x2="1" y2="0" gradientUnits="userSpaceOnUse" gradientTransform="matrix(167.379,0,0,167.379,220.633,900.686)"><stop offset="0" style="stop-color:#09005d;stop-opacity:1"/><stop offset="1" style="stop-color:#1a0f91;stop-opacity:1"/></linearGradient><linearGradient id="_Linear17" x1="0" y1="0" x2="1" y2="0" gradientUnits="userSpaceOnUse" gradientTransform="matrix(-185.504,303.94,-303.94,-185.504,371.299,790.945)"><stop offset="0" style="stop-color:#e1473d;stop-opacity:1"/><stop offset="1" style="stop-color:#e9605a;stop-opacity:1"/></linearGradient><linearGradient id="_Linear18" x1="0" y1="0" x2="1" y2="0" gradientUnits="userSpaceOnUse" gradientTransform="matrix(167.379,0,0,167.379,714.229,900.686)"><stop offset="0" style="stop-color:#09005d;stop-opacity:1"/><stop offset="1" style="stop-color:#1a0f91;stop-opacity:1"/></linearGradient><linearGradient id="_Linear19" x1="0" y1="0" x2="1" y2="0" gradientUnits="userSpaceOnUse" gradientTransform="matrix(-185.504,316.787,-316.787,-185.504,870.645,776.481)"><stop offset="0" style="stop-color:#e1473d;stop-opacity:1"/><stop offset="1" style="stop-color:#e9605a;stop-opacity:1"/></linearGradient><linearGradient id="_Linear20" x1="0" y1="0" x2="1" y2="0" gradientUnits="userSpaceOnUse" gradientTransform="matrix(-75.5198,125.872,-125.872,-75.5198,961.077,635.921)"><stop offset="0" style="stop-color:#ff928e;stop-opacity:1"/><stop offset="1" style="stop-color:#feb3b1;stop-opacity:1"/></linearGradient><linearGradient id="_Linear21" x1="0" y1="0" x2="1" y2="0" gradientUnits="userSpaceOnUse" gradientTransform="matrix(-121.152,193.527,-193.527,-121.152,432.517,704.796)"><stop offset="0" style="stop-color:#ff928e;stop-opacity:1"/><stop offset="1" style="stop-color:#feb3b1;stop-opacity:1"/></linearGradient><linearGradient id="_Linear22" x1="0" y1="0" x2="1" y2="0" gradientUnits="userSpaceOnUse" gradientTransform="matrix(-80.2436,157.339,-157.339,-80.2436,500.012,531.212)"><stop offset="0" style="stop-color:#ff928e;stop-opacity:1"/><stop offset="1" style="stop-color:#feb3b1;stop-opacity:1"/></linearGradient><linearGradient id="_Linear23" x1="0" y1="0" x2="1" y2="0" gradientUnits="userSpaceOnUse" gradientTransform="matrix(-11.0124,140.032,-140.032,-11.0124,769.907,499.495)"><stop offset="0" style="stop-color:#ff928e;stop-opacity:1"/><stop offset="1" style="stop-color:#feb3b1;stop-opacity:1"/></linearGradient><linearGradient id="_Linear24" x1="0" y1="0" x2="1" y2="0" gradientUnits="userSpaceOnUse" gradientTransform="matrix(123.3,0,0,123.3,594.943,531.244)"><stop offset="0" style="stop-color:#fe7062;stop-opacity:1"/><stop offset="1" style="stop-color:#ff928e;stop-opacity:1"/></linearGradient><linearGradient id="_Linear25" x1="0" y1="0" x2="1" y2="0" gradientUnits="userSpaceOnUse" gradientTransform="matrix(15.7327,108.548,-108.548,15.7327,573.042,337.45)"><stop offset="0" style="stop-color:#ff928e;stop-opacity:1"/><stop offset="1" style="stop-color:#feb3b1;stop-opacity:1"/></linearGradient><linearGradient id="_Linear26" x1="0" y1="0" x2="1" y2="0" gradientUnits="userSpaceOnUse" gradientTransform="matrix(15.7277,108.548,-108.548,15.7277,613.292,331.617)"><stop offset="0" style="stop-color:#ff928e;stop-opacity:1"/><stop offset="1" style="stop-color:#feb3b1;stop-opacity:1"/></linearGradient><linearGradient id="_Linear27" x1="0" y1="0" x2="1" y2="0" gradientUnits="userSpaceOnUse" gradientTransform="matrix(123.302,0,0,123.302,448.218,425.943)"><stop offset="0" style="stop-color:#fe7062;stop-opacity:1"/><stop offset="1" style="stop-color:#ff928e;stop-opacity:1"/></linearGradient><linearGradient id="_Linear28" x1="0" y1="0" x2="1" y2="0" gradientUnits="userSpaceOnUse" gradientTransform="matrix(10.2255,99.8948,-99.8948,10.2255,432.563,215.291)"><stop offset="0" style="stop-color:#ff928e;stop-opacity:1"/><stop offset="1" style="stop-color:#feb3b1;stop-opacity:1"/></linearGradient><linearGradient id="_Linear29" x1="0" y1="0" x2="1" y2="0" gradientUnits="userSpaceOnUse" gradientTransform="matrix(10.2255,99.8958,-99.8958,10.2255,471.786,211.274)"><stop offset="0" style="stop-color:#ff928e;stop-opacity:1"/><stop offset="1" style="stop-color:#feb3b1;stop-opacity:1"/></linearGradient><linearGradient id="_Linear30" x1="0" y1="0" x2="1" y2="0" gradientUnits="userSpaceOnUse" gradientTransform="matrix(36.6313,0,0,36.6313,493.182,431.555)"><stop offset="0" style="stop-color:#fe7062;stop-opacity:1"/><stop offset="1" style="stop-color:#ff928e;stop-opacity:1"/></linearGradient><linearGradient id="_Linear31" x1="0" y1="0" x2="1" y2="0" gradientUnits="userSpaceOnUse" gradientTransform="matrix(55.1932,0,0,55.1932,482.952,419.958)"><stop offset="0" style="stop-color:#fe7062;stop-opacity:1"/><stop offset="1" style="stop-color:#ff928e;stop-opacity:1"/></linearGradient><linearGradient id="_Linear32" x1="0" y1="0" x2="1" y2="0" gradientUnits="userSpaceOnUse" gradientTransform="matrix(74.2679,0,0,74.2679,472.736,409.233)"><stop offset="0" style="stop-color:#fe7062;stop-opacity:1"/><stop offset="1" style="stop-color:#ff928e;stop-opacity:1"/></linearGradient><linearGradient id="_Linear33" x1="0" y1="0" x2="1" y2="0" gradientUnits="userSpaceOnUse" gradientTransform="matrix(17.0627,0,0,17.0627,503.047,444.752)"><stop offset="0" style="stop-color:#fe7062;stop-opacity:1"/><stop offset="1" style="stop-color:#ff928e;stop-opacity:1"/></linearGradient><linearGradient id="_Linear34" x1="0" y1="0" x2="1" y2="0" gradientUnits="userSpaceOnUse" gradientTransform="matrix(72.7195,-150.334,150.334,72.7195,805.113,687.521)"><stop offset="0" style="stop-color:#fe7062;stop-opacity:1"/><stop offset="1" style="stop-color:#ff928e;stop-opacity:1"/></linearGradient><linearGradient id="_Linear35" x1="0" y1="0" x2="1" y2="0" gradientUnits="userSpaceOnUse" gradientTransform="matrix(-1.39769,32.8635,-32.8635,-1.39769,782.984,510.475)"><stop offset="0" style="stop-color:#ff928e;stop-opacity:1"/><stop offset="1" style="stop-color:#feb3b1;stop-opacity:1"/></linearGradient><linearGradient id="_Linear36" x1="0" y1="0" x2="1" y2="0" gradientUnits="userSpaceOnUse" gradientTransform="matrix(-1.39769,32.863,-32.863,-1.39769,817.598,511.949)"><stop offset="0" style="stop-color:#ff928e;stop-opacity:1"/><stop offset="1" style="stop-color:#feb3b1;stop-opacity:1"/></linearGradient><linearGradient id="_Linear37" x1="0" y1="0" x2="1" y2="0" gradientUnits="userSpaceOnUse" gradientTransform="matrix(123.301,0,0,123.301,299.225,520.636)"><stop offset="0" style="stop-color:#fe7062;stop-opacity:1"/><stop offset="1" style="stop-color:#ff928e;stop-opacity:1"/></linearGradient><linearGradient id="_Linear38" x1="0" y1="0" x2="1" y2="0" gradientUnits="userSpaceOnUse" gradientTransform="matrix(7.07896,107.762,-107.762,7.07896,289.384,284.588)"><stop offset="0" style="stop-color:#ff928e;stop-opacity:1"/><stop offset="1" style="stop-color:#feb3b1;stop-opacity:1"/></linearGradient><linearGradient id="_Linear39" x1="0" y1="0" x2="1" y2="0" gradientUnits="userSpaceOnUse" gradientTransform="matrix(7.07946,107.762,-107.762,7.07946,327.599,282.079)"><stop offset="0" style="stop-color:#ff928e;stop-opacity:1"/><stop offset="1" style="stop-color:#feb3b1;stop-opacity:1"/></linearGradient><linearGradient id="_Linear40" x1="0" y1="0" x2="1" y2="0" gradientUnits="userSpaceOnUse" gradientTransform="matrix(-12.5856,140.011,-140.011,-12.5856,366.238,457.398)"><stop offset="0" style="stop-color:#fe7062;stop-opacity:1"/><stop offset="1" style="stop-color:#ff928e;stop-opacity:1"/></linearGradient><linearGradient id="_Linear41" x1="0" y1="0" x2="1" y2="0" gradientUnits="userSpaceOnUse" gradientTransform="matrix(-12.5851,140.011,-140.011,-12.5851,366.238,457.398)"><stop offset="0" style="stop-color:#fe7062;stop-opacity:1"/><stop offset="1" style="stop-color:#ff928e;stop-opacity:1"/></linearGradient><linearGradient id="_Linear42" x1="0" y1="0" x2="1" y2="0" gradientUnits="userSpaceOnUse" gradientTransform="matrix(-12.5856,140.011,-140.011,-12.5856,366.238,457.398)"><stop offset="0" style="stop-color:#fe7062;stop-opacity:1"/><stop offset="1" style="stop-color:#ff928e;stop-opacity:1"/></linearGradient><linearGradient id="_Linear43" x1="0" y1="0" x2="1" y2="0" gradientUnits="userSpaceOnUse" gradientTransform="matrix(-12.5856,140.01,-140.01,-12.5856,363.593,457.161)"><stop offset="0" style="stop-color:#fe7062;stop-opacity:1"/><stop offset="1" style="stop-color:#ff928e;stop-opacity:1"/></linearGradient><linearGradient id="_Linear44" x1="0" y1="0" x2="1" y2="0" gradientUnits="userSpaceOnUse" gradientTransform="matrix(-12.5856,140.012,-140.012,-12.5856,369.521,457.693)"><stop offset="0" style="stop-color:#fe7062;stop-opacity:1"/><stop offset="1" style="stop-color:#ff928e;stop-opacity:1"/></linearGradient><linearGradient id="_Linear45" x1="0" y1="0" x2="1" y2="0" gradientUnits="userSpaceOnUse" gradientTransform="matrix(-12.5851,140.01,-140.01,-12.5851,333.029,454.414)"><stop offset="0" style="stop-color:#fe7062;stop-opacity:1"/><stop offset="1" style="stop-color:#ff928e;stop-opacity:1"/></linearGradient><linearGradient id="_Linear46" x1="0" y1="0" x2="1" y2="0" gradientUnits="userSpaceOnUse" gradientTransform="matrix(-12.5851,140.01,-140.01,-12.5851,400.037,460.437)"><stop offset="0" style="stop-color:#fe7062;stop-opacity:1"/><stop offset="1" style="stop-color:#ff928e;stop-opacity:1"/></linearGradient><linearGradient id="_Linear47" x1="0" y1="0" x2="1" y2="0" gradientUnits="userSpaceOnUse" gradientTransform="matrix(123.3,0,0,123.3,140.797,606.437)"><stop offset="0" style="stop-color:#fe7062;stop-opacity:1"/><stop offset="1" style="stop-color:#ff928e;stop-opacity:1"/></linearGradient><linearGradient id="_Linear48" x1="0" y1="0" x2="1" y2="0" gradientUnits="userSpaceOnUse" gradientTransform="matrix(44.0485,121.92,-121.92,44.0485,86.8476,436.037)"><stop offset="0" style="stop-color:#ff928e;stop-opacity:1"/><stop offset="1" style="stop-color:#feb3b1;stop-opacity:1"/></linearGradient><linearGradient id="_Linear49" x1="0" y1="0" x2="1" y2="0" gradientUnits="userSpaceOnUse" gradientTransform="matrix(44.0485,121.92,-121.92,44.0485,129.74,420.541)"><stop offset="0" style="stop-color:#ff928e;stop-opacity:1"/><stop offset="1" style="stop-color:#feb3b1;stop-opacity:1"/></linearGradient><linearGradient id="_Linear50" x1="0" y1="0" x2="1" y2="0" gradientUnits="userSpaceOnUse" gradientTransform="matrix(50.3411,-137.651,137.651,50.3411,178.806,657.647)"><stop offset="0" style="stop-color:#fe7062;stop-opacity:1"/><stop offset="1" style="stop-color:#ff928e;stop-opacity:1"/></linearGradient><linearGradient id="_Linear51" x1="0" y1="0" x2="1" y2="0" gradientUnits="userSpaceOnUse" gradientTransform="matrix(50.3411,-137.651,137.651,50.3411,179.39,657.861)"><stop offset="0" style="stop-color:#fe7062;stop-opacity:1"/><stop offset="1" style="stop-color:#ff928e;stop-opacity:1"/></linearGradient></defs></svg>