<?xml version="1.0" encoding="UTF-8" standalone="no"?><!DOCTYPE svg PUBLIC "-//W3C//DTD SVG 1.1//EN" "http://www.w3.org/Graphics/SVG/1.1/DTD/svg11.dtd"><svg width="100%" height="100%" viewBox="0 0 1771 1513" version="1.1" xmlns="http://www.w3.org/2000/svg" xmlns:xlink="http://www.w3.org/1999/xlink" xml:space="preserve" xmlns:serif="http://www.serif.com/" style="fill-rule:evenodd;clip-rule:evenodd;stroke-linejoin:round;stroke-miterlimit:2;"><g><path d="M876.646,1418.17c446.175,0 807.875,21.116 807.875,47.166c0,26.05 -361.7,47.163 -807.875,47.163c-446.179,0 -807.875,-21.113 -807.875,-47.163c0,-26.05 361.696,-47.166 807.875,-47.166Z" style="fill:#f6f8f9;fill-rule:nonzero;"/><path d="M23.746,2.25c-12.546,0.025 -22.704,10.204 -22.704,22.754l0,1130.95c0,12.55 10.158,22.725 22.704,22.75l804.546,0c12.554,-0.025 22.729,-10.191 22.754,-22.75l0,-1130.95c-0.025,-12.554 -10.2,-22.729 -22.754,-22.754l-804.546,0Zm804.546,1177.5l-804.546,0c-13.121,-0.025 -23.746,-10.671 -23.746,-23.792l0,-1130.95c0.113,-13.046 10.704,-23.562 23.746,-23.583l804.546,0c13.141,0 23.791,10.65 23.791,23.787l0,1130.75c0,13.138 -10.65,23.792 -23.791,23.792Z" style="fill:#e7e7e7;fill-rule:nonzero;"/><path d="M925,2.25c-12.554,0.025 -22.729,10.2 -22.754,22.754l0,1130.95c0.025,12.559 10.2,22.725 22.754,22.75l804.583,0c12.555,-0.025 22.725,-10.191 22.75,-22.75l0,-1130.95c-0.025,-12.554 -10.195,-22.729 -22.75,-22.754l-804.583,0Zm804.583,1177.5l-804.583,0c-13.129,-0.025 -23.771,-10.662 -23.792,-23.792l0,-1130.95c0.138,-13.05 10.742,-23.562 23.792,-23.583l804.583,0c13.025,0.042 23.596,10.554 23.705,23.583l0,1130.95c0,13.104 -10.596,23.746 -23.705,23.792Z" style="fill:#e7e7e7;fill-rule:nonzero;"/><rect x="59.104" y="1390.92" width="171.708" height="1.042" style="fill:#e1e2e1;fill-rule:nonzero;"/><rect x="408.6" y="1382.58" width="172.213" height="1.042" style="fill:#e1e2e1;fill-rule:nonzero;"/><rect x="763.229" y="1382.58" width="41.667" height="1.042" style="fill:#e1e2e1;fill-rule:nonzero;"/><rect x="195.729" y="1418.17" width="192.708" height="1.042" style="fill:#e1e2e1;fill-rule:nonzero;"/><rect x="964.979" y="1390.38" width="90" height="1.042" style="fill:#e1e2e1;fill-rule:nonzero;"/><rect x="1092.06" y="1390.38" width="116.375" height="1.042" style="fill:#e1e2e1;fill-rule:nonzero;"/><rect x="1509.52" y="1408" width="260.167" height="1.042" style="fill:#e1e2e1;fill-rule:nonzero;"/><rect x="1355.1" y="232.65" width="198.375" height="138.625" style="fill:#e7e7e7;fill-rule:nonzero;"/><rect x="1355.1" y="232.65" width="89.458" height="138.625" style="fill:#f1f2f3;fill-rule:nonzero;"/><path d="M1399.76,310.525c-16.316,0 -29.541,-13.229 -29.541,-29.546c0,-16.312 13.225,-29.541 29.541,-29.541c16.317,0 29.542,13.229 29.542,29.541c0,16.317 -13.225,29.546 -29.542,29.546Z" style="fill:#ebebeb;fill-rule:nonzero;"/><path d="M1414.18,338.604c0,7.963 -6.454,14.417 -14.417,14.417c-7.962,0 -14.416,-6.454 -14.416,-14.417c0,-7.958 6.454,-14.417 14.416,-14.417c7.963,0 14.417,6.459 14.417,14.417Z" style="fill:#e1e2e1;fill-rule:nonzero;"/><path d="M1407.96,282.987c0,4.642 -3.766,8.405 -8.408,8.405c-4.642,0 -8.408,-3.763 -8.408,-8.405c0,-4.645 3.766,-8.408 8.408,-8.408c4.642,0 8.408,3.763 8.408,8.408Z" style="fill:#fbfdfd;fill-rule:nonzero;"/><rect x="1044.18" y="183.008" width="85.783" height="188.317" style="fill:#f1f2f3;fill-rule:nonzero;"/><rect x="1127.62" y="183.008" width="113.825" height="188.317" style="fill:#e7e7e7;fill-rule:nonzero;"/><path d="M1086.76,242.804c6.559,0 11.88,5.321 11.88,11.884c0,6.558 -5.321,11.879 -11.88,11.879c-6.566,0 -11.883,-5.321 -11.883,-11.879c0,-6.563 5.317,-11.884 11.883,-11.884Z" style="fill:#fff;fill-rule:nonzero;"/><path d="M1086.76,224.258c3.276,0 5.942,2.659 5.942,5.942c0,3.279 -2.666,5.942 -5.942,5.942c-3.283,0 -5.941,-2.663 -5.941,-5.942c0,-3.283 2.658,-5.942 5.941,-5.942Z" style="fill:#fff;fill-rule:nonzero;"/><path d="M1086.76,206.25c3.276,0 5.942,2.658 5.942,5.937c0,3.284 -2.666,5.942 -5.942,5.942c-3.283,0 -5.941,-2.658 -5.941,-5.942c0,-3.279 2.658,-5.937 5.941,-5.937Z" style="fill:#fff;fill-rule:nonzero;"/><rect x="1046.1" y="288.638" width="193.35" height="2.971" style="fill:#e1e2e1;fill-rule:nonzero;"/><rect x="1046.1" y="305.342" width="193.35" height="2.971" style="fill:#e1e2e1;fill-rule:nonzero;"/><rect x="1046.1" y="322.05" width="193.35" height="2.971" style="fill:#e1e2e1;fill-rule:nonzero;"/><rect x="1046.1" y="338.758" width="193.35" height="2.971" style="fill:#e1e2e1;fill-rule:nonzero;"/><rect x="1046.1" y="355.467" width="193.35" height="2.971" style="fill:#e1e2e1;fill-rule:nonzero;"/><rect x="1080.63" y="293.708" width="8.171" height="8.171" style="fill:#e1e2e1;fill-rule:nonzero;"/><rect x="1080.63" y="311.283" width="8.171" height="8.171" style="fill:#e1e2e1;fill-rule:nonzero;"/><rect x="1080.63" y="327.125" width="8.171" height="8.167" style="fill:#e1e2e1;fill-rule:nonzero;"/><rect x="1080.63" y="344.204" width="8.171" height="8.171" style="fill:#e1e2e1;fill-rule:nonzero;"/><rect x="1080.63" y="360.796" width="8.171" height="8.171" style="fill:#e1e2e1;fill-rule:nonzero;"/><path d="M880.267,556.771l-4.167,0l0,-159.6c0,-17.908 14.571,-32.484 32.483,-32.484l137.517,0l0,4.167l-137.517,0c-15.612,0 -28.316,12.704 -28.316,28.317l0,159.6Z" style="fill:#e1e2e1;fill-rule:nonzero;"/><path d="M871.933,557.008l-4.166,0l0,-161.004c0,-21.733 17.679,-39.412 39.412,-39.412l138.921,0l0,4.166l-138.921,0c-19.433,0 -35.246,15.813 -35.246,35.246l0,161.004Z" style="fill:#e1e2e1;fill-rule:nonzero;"/><rect x="285.229" y="156.717" width="130.458" height="138.875" style="fill:#e7e7e7;fill-rule:nonzero;"/><rect x="415.687" y="156.717" width="33.421" height="138.875" style="fill:#f6f8f9;fill-rule:nonzero;"/><rect x="251.021" y="135.3" width="98" height="160.292" style="fill:#e7e7e7;fill-rule:nonzero;"/><rect x="348.979" y="135.3" width="28.333" height="160.292" style="fill:#f6f8f9;fill-rule:nonzero;"/><rect x="237.521" y="156.717" width="82.625" height="138.875" style="fill:#eceded;fill-rule:nonzero;"/><rect x="320.146" y="156.717" width="18.875" height="138.875" style="fill:#f6f8f9;fill-rule:nonzero;"/><rect x="144.146" y="180.217" width="108.375" height="115.375" style="fill:#e7e7e7;fill-rule:nonzero;"/><rect x="252.521" y="180.217" width="27.75" height="115.375" style="fill:#f6f8f9;fill-rule:nonzero;"/><rect x="115.729" y="162.425" width="81.417" height="133.167" style="fill:#e7e7e7;fill-rule:nonzero;"/><rect x="197.104" y="162.425" width="23.542" height="133.167" style="fill:#f6f8f9;fill-rule:nonzero;"/><rect x="94.063" y="180.217" width="79.083" height="115.375" style="fill:#e7e7e7;fill-rule:nonzero;"/><rect x="173.187" y="180.217" width="15.667" height="115.375" style="fill:#f1f2f3;fill-rule:nonzero;"/><rect x="1.638" y="295.517" width="850" height="40.192" style="fill:#e7e7e7;fill-rule:nonzero;"/><path d="M154.167,336.658l47.025,0l-34.255,51.717l-12.77,0l0,-51.717Z" style="fill:#e1e2e1;fill-rule:nonzero;"/><rect x="147.396" y="336.658" width="6.771" height="51.717" style="fill:#e1e2e1;fill-rule:nonzero;"/><path d="M682.121,336.658l47.025,0l-34.254,51.717l-12.771,0l0,-51.717Z" style="fill:#e1e2e1;fill-rule:nonzero;"/><rect x="675.346" y="336.658" width="6.775" height="51.717" style="fill:#e1e2e1;fill-rule:nonzero;"/><rect x="902.621" y="371.325" width="850" height="40.196" style="fill:#e7e7e7;fill-rule:nonzero;"/><path d="M1600.09,464.183l-12.771,0l-34.254,-51.716l47.025,0l0,51.716Z" style="fill:#e1e2e1;fill-rule:nonzero;"/><rect x="1600.09" y="412.467" width="6.771" height="51.717" style="fill:#e1e2e1;fill-rule:nonzero;"/><path d="M1072.14,464.183l-12.771,0l-34.254,-51.716l47.025,0l0,51.716Z" style="fill:#e1e2e1;fill-rule:nonzero;"/><rect x="1072.14" y="412.467" width="6.771" height="51.717" style="fill:#e1e2e1;fill-rule:nonzero;"/><path d="M597.008,247.342c-17.416,0 -31.529,-14.125 -31.529,-31.542c0,-17.417 14.113,-31.542 31.529,-31.542c17.413,0 31.542,14.125 31.542,31.542c0,17.417 -14.129,31.542 -31.542,31.542Zm60.68,-32.759c0,-6.125 -0.905,-12.05 -2.605,-17.616l15.455,-13.596l-9.73,-16.858l-19.504,6.599c-8.075,-8.616 -18.621,-14.87 -30.516,-17.633l-4.046,-20.179l-19.467,0l-4.037,20.179c-11.888,2.763 -22.455,9.017 -30.525,17.633l-19.509,-6.599l-9.729,16.858l15.454,13.596c-1.687,5.566 -2.604,11.491 -2.604,17.616c0,6.142 0.917,12.05 2.604,17.634l-15.454,13.579l9.729,16.858l19.509,-6.596c8.07,8.617 18.637,14.871 30.525,17.646l4.037,20.179l19.467,0l4.046,-20.179c11.895,-2.775 22.441,-9.029 30.516,-17.646l19.504,6.596l9.73,-16.858l-15.455,-13.579c1.7,-5.584 2.605,-11.492 2.605,-17.634Z" style="fill:#f1f2f3;fill-rule:nonzero;"/><path d="M740.137,264.033c-9.779,5.988 -22.558,2.909 -28.545,-6.875c-5.988,-9.779 -2.917,-22.562 6.858,-28.55c9.783,-5.987 22.567,-2.912 28.558,6.867c5.984,9.783 2.913,22.571 -6.871,28.558Zm22.813,-39.258c-2.104,-3.437 -4.646,-6.454 -7.521,-8.996l4.008,-12.946l-11.262,-6.121l-8.683,10.409c-7.496,-2.063 -15.567,-1.95 -23.196,0.587l-9.208,-9.937l-10.93,6.692l4.671,12.716c-5.729,5.642 -9.512,12.784 -11.079,20.396l-13.225,3l0.333,12.817l13.35,2.321c0.967,3.704 2.492,7.345 4.592,10.787c2.113,3.446 4.663,6.45 7.525,9.004l-4.008,12.942l11.258,6.117l8.687,-10.409c7.496,2.063 15.58,1.946 23.209,-0.587l9.204,9.945l10.929,-6.691l-4.662,-12.725c5.725,-5.646 9.496,-12.784 11.066,-20.396l13.221,-3l-0.329,-12.813l-13.354,-2.312c-0.958,-3.721 -2.483,-7.35 -4.596,-10.8Z" style="fill:#f1f2f3;fill-rule:nonzero;"/><rect x="28.975" y="894.708" width="1698.41" height="21.375" style="fill:#3e75ba;fill-rule:nonzero;"/><path d="M130.137,910.042l0,509.75l13.255,0l16.666,-509.75l-29.921,0Z" style="fill:#3e75ba;fill-rule:nonzero;"/><path d="M286.554,926.708l0,472.25l13.254,0l16.667,-472.25l-29.921,0Z" style="fill:#3e75ba;fill-rule:nonzero;"/><path d="M299.808,1398.96l-13.254,0l0,-460.008l29.488,0l-8.459,239.758l-0.037,1.042l-7.738,219.208Z" style="fill:#1e407e;fill-rule:nonzero;"/><path d="M1632.25,910.042l0,509.75l-13.208,0l-16.709,-509.75l29.917,0Z" style="fill:#3e75ba;fill-rule:nonzero;"/><path d="M1475.88,926.708l0,472.25l-13.25,0l-16.667,-472.25l29.917,0Z" style="fill:#3e75ba;fill-rule:nonzero;"/><path d="M1475.88,1398.96l-13.25,0l-9.604,-272.046l17.333,0l0,-0.462c1.884,-0.271 3.725,-0.667 5.521,-1.171l0,273.679Z" style="fill:#1e407e;fill-rule:nonzero;"/><path d="M1662.46,938.95l-1563.58,0l-34.579,-22.867l1632.73,0l-34.58,22.867Z" style="fill:#3e75ba;fill-rule:nonzero;"/><path d="M1662.46,938.95l-155.095,0l0,-22.867l189.675,0l-34.58,22.867Zm-476.27,0l-47.738,0c-16.45,-2.967 -33.104,-4.45 -49.754,-4.45c-16.65,0 -33.304,1.483 -49.754,4.45l-495.804,0c0.071,-7.821 0.196,-15.442 0.375,-22.867l655.425,0c0.066,7.667 0.17,14.838 0.387,21.371l-0.196,0c-0.196,0 -4.933,0.471 -12.941,1.496Zm-815.646,0l-271.659,0l-34.579,-22.867l308.671,0c-0.871,8.784 -1.775,16.367 -2.433,22.867Z" style="fill:#1e407e;fill-rule:nonzero;"/><path d="M148.933,829.179c0,-1.141 0.929,-2.071 2.071,-2.071l6.963,0l0,27.392l0.054,1.113l-8.479,-8.48c-0.384,-0.387 -0.609,-0.92 -0.609,-1.466l0,-16.488Zm-8.333,0l0,16.488c0,2.775 1.083,5.387 3.046,7.358l13.221,13.221c1.212,1.212 2.687,2.042 4.283,2.533c5.392,11.596 17.113,19.654 30.75,19.654l4.946,0c18.742,0 33.937,-15.191 33.937,-33.933l0,-38.879l-72.816,0l0,3.154l-6.963,0c-5.737,0 -10.404,4.667 -10.404,10.404Z" style="fill:#3e75ba;fill-rule:nonzero;"/><path d="M203.225,887.833l-17.696,0c-10.85,-2.066 -19.85,-9.308 -24.379,-19.054c-1.596,-0.491 -3.071,-1.321 -4.283,-2.533l-13.221,-13.221c-1.963,-1.971 -3.046,-4.583 -3.046,-7.358l0,-16.488c0,-5.737 4.667,-10.404 10.404,-10.404l6.963,0l0,-3.154l72.816,0l0,38.879c0,16.562 -11.866,30.35 -27.558,33.333Zm-45.204,-32.22l-0.054,-1.113l0,-27.392l-6.963,0c-1.142,0 -2.071,0.93 -2.071,2.071l0,16.488c0,0.546 0.225,1.079 0.609,1.466l8.479,8.48Z" style="fill:#9cbbe2;fill-rule:nonzero;"/><path d="M248.062,894.004l-104.745,0c-6.809,0 -12.329,-6.171 -12.329,-6.171l129.412,0c0,0 -5.521,6.171 -12.338,6.171Z" style="fill:#3e75ba;fill-rule:nonzero;"/><path d="M248.062,894.004l-104.745,0c-6.809,0 -12.329,-6.171 -12.329,-6.171l129.412,0c0,0 -5.521,6.171 -12.338,6.171Z" style="fill:#9cbbe2;fill-rule:nonzero;"/><path d="M1627.75,874.7l0,-43.758c12.084,1.779 20.434,3.433 18.654,15.516c-1.425,9.65 -9.004,26.817 -18.654,28.242Zm29.575,-31.496c-0.55,-16.533 -13.133,-20.587 -29.575,-22.454l0,-6.037c-0.025,-1.455 -1.225,-2.605 -2.675,-2.58l-56.787,0c-1.479,-0.058 -2.725,1.092 -2.788,2.575l0,78.796l62.25,0l0,-8.616c16.471,-1.846 29.075,-25.113 29.575,-41.684Z" style="fill:#3e75ba;fill-rule:nonzero;"/><path d="M1627.75,893.504l-62.25,0l0,-78.796c0.058,-1.446 1.246,-2.575 2.675,-2.575l56.954,0c1.425,0 2.596,1.142 2.621,2.58l0,6.037c16.442,1.867 29.025,5.921 29.575,22.454c-0.5,16.571 -13.104,39.838 -29.575,41.684l0,8.616Zm0,-18.804c9.65,-1.425 17.229,-18.592 18.654,-28.242c0.159,-1.087 0.238,-2.087 0.238,-3.012c0.012,-9.367 -7.896,-10.888 -18.892,-12.504l0,43.758Z" style="fill:#9cbbe2;fill-rule:nonzero;"/><rect x="852.083" y="793.088" width="49.125" height="99.796" style="fill:#3e75ba;fill-rule:nonzero;"/><path d="M852.083,875.513l0,-42.867l49.125,0l0,29.716l-5.858,0l5.858,4.517l-5.858,-4.517l2.046,12.33l-44.379,0l-0.934,0.821Z" style="fill:#9cbbe2;fill-rule:nonzero;"/><path d="M923.388,894.675l-93.071,0l22.7,-19.983l47.666,0l22.705,19.983Z" style="fill:#3e75ba;fill-rule:nonzero;"/><path d="M900.704,894.675l-70.387,0l22.7,-19.983l44.379,0l3.308,19.983Z" style="fill:#9cbbe2;fill-rule:nonzero;"/><path d="M1128.02,862.362l-232.667,0l42.042,32.434l232.625,0l-42,-32.434Z" style="fill:#3e75ba;fill-rule:nonzero;"/><path d="M1170.02,894.796l-232.625,0l-36.184,-27.917l-5.858,-4.517l232.667,0l42,32.434Z" style="fill:#87aedc;fill-rule:nonzero;"/><path d="M900.725,894.796l-5.375,-32.434l42.042,32.434l-36.667,0Z" style="fill:#3e75ba;fill-rule:nonzero;"/><path d="M937.392,894.796l-36.667,0l-5.375,-32.434l42.042,32.434Z" style="fill:#1e407e;fill-rule:nonzero;"/><path d="M663.708,556.892l423.484,0c4.437,0 8.033,3.595 8.033,8.033l0,259.683c0,4.442 -3.596,8.038 -8.033,8.038l-423.484,0c-4.433,0 -8.029,-3.596 -8.029,-8.038l0,-259.683c0,-4.438 3.596,-8.033 8.029,-8.033Z" style="fill:#3e75ba;fill-rule:nonzero;"/><path d="M1078.81,814.429l-407.167,0l0,-63.341l8.9,-0.938l1.05,-26.767c0.054,-1.425 -0.229,-2.85 -0.892,-4.112c-3.016,-5.729 -6.941,-11.171 -9.058,-13.963l0,-31.491c2.446,-8.996 6.454,-17.459 13.346,-23.563c-3.909,0.521 -8.467,0.663 -13.346,0.717l0,-76.854l407.167,0l0,240.312Zm-218.396,-190.879l0,141.446l205.462,0l0,-141.446l-205.462,0Z" style="fill:#1e407e;fill-rule:nonzero;"/><rect x="860.417" y="623.55" width="205.463" height="141.446" style="fill:#11234a;fill-rule:nonzero;"/><rect x="860.417" y="623.55" width="205.463" height="12.954" style="fill:#3e75ba;fill-rule:nonzero;"/><path d="M898.063,701.779l33.591,18.613c1.684,0.946 2.808,1.791 3.363,2.533c0.558,0.742 0.833,1.683 0.833,2.829c0,1.454 -0.521,2.708 -1.567,3.771c-1.045,1.063 -2.258,1.592 -3.641,1.592c-0.913,0 -2.279,-0.504 -4.096,-1.513l-43.338,-24.1c-2.921,-1.625 -2.921,-5.825 0,-7.45l43.338,-24.1c1.817,-0.979 3.166,-1.466 4.042,-1.466c1.42,0 2.65,0.524 3.695,1.566c1.046,1.05 1.567,2.296 1.567,3.746c0,1.146 -0.275,2.092 -0.833,2.833c-0.555,0.742 -1.679,1.584 -3.363,2.529l-33.591,18.617Z" style="fill:#fff;fill-rule:nonzero;"/><path d="M984.492,667.075l-33.234,71.633c-0.846,1.788 -1.604,2.95 -2.279,3.492c-0.879,0.708 -1.937,1.062 -3.183,1.062c-1.417,0 -2.642,-0.508 -3.671,-1.52c-1.029,-1.009 -1.542,-2.159 -1.542,-3.438c0,-0.912 0.4,-2.242 1.213,-3.996l33.342,-71.583c0.841,-1.788 1.583,-2.95 2.22,-3.492c0.917,-0.708 1.975,-1.062 3.192,-1.062c1.413,0 2.625,0.496 3.642,1.492c1.012,0.995 1.516,2.133 1.516,3.416c0,0.908 -0.404,2.242 -1.216,3.996Z" style="fill:#fff;fill-rule:nonzero;"/><path d="M1026.29,701.779l-33.592,-18.617c-1.688,-0.945 -2.804,-1.787 -3.363,-2.529c-0.558,-0.741 -0.833,-1.687 -0.833,-2.833c0,-1.45 0.521,-2.696 1.567,-3.746c1.046,-1.042 2.275,-1.566 3.687,-1.566c0.879,0 2.234,0.487 4.05,1.466l43.338,24.1c2.92,1.625 2.92,5.825 0,7.45l-43.338,24.1c-1.816,1.009 -3.171,1.513 -4.05,1.513c-1.429,0 -2.675,-0.534 -3.725,-1.605c-0.991,-1.008 -1.529,-2.341 -1.529,-3.758c0,-1.146 0.275,-2.091 0.833,-2.829c0.559,-0.742 1.675,-1.587 3.363,-2.533l33.592,-18.613Z" style="fill:#fff;fill-rule:nonzero;"/><rect x="688.338" y="596.304" width="13.912" height="13.908" style="fill:#fff;fill-rule:nonzero;"/><rect x="688.338" y="632.313" width="13.912" height="13.908" style="fill:#fff;fill-rule:nonzero;"/><rect x="688.338" y="668.321" width="13.912" height="13.908" style="fill:#fff;fill-rule:nonzero;"/><rect x="688.338" y="704.329" width="13.912" height="13.908" style="fill:#fff;fill-rule:nonzero;"/><rect x="688.338" y="740.337" width="13.912" height="13.908" style="fill:#fff;fill-rule:nonzero;"/><rect x="688.338" y="776.346" width="13.912" height="13.908" style="fill:#fff;fill-rule:nonzero;"/><rect x="715.462" y="599.438" width="55.45" height="4.167" style="fill:#fff;fill-rule:nonzero;"/><rect x="728.388" y="635.542" width="19.75" height="4.167" style="fill:#fff;fill-rule:nonzero;"/><rect x="814.35" y="676.037" width="19.75" height="4.167" style="fill:#fff;fill-rule:nonzero;"/><rect x="728.388" y="708.183" width="19.75" height="4.167" style="fill:#fff;fill-rule:nonzero;"/><rect x="756.871" y="708.183" width="19.75" height="4.167" style="fill:#fff;fill-rule:nonzero;"/><rect x="756.871" y="676.037" width="50.467" height="4.167" style="fill:#fff;fill-rule:nonzero;"/><rect x="786.271" y="708.183" width="33.225" height="4.167" style="fill:#fff;fill-rule:nonzero;"/><rect x="786.154" y="785.383" width="19.75" height="4.167" style="fill:#fff;fill-rule:nonzero;"/><rect x="814.633" y="785.383" width="19.75" height="4.167" style="fill:#fff;fill-rule:nonzero;"/><rect x="844.038" y="785.383" width="11.033" height="4.167" style="fill:#fff;fill-rule:nonzero;"/><rect x="758.038" y="635.542" width="61.458" height="4.167" style="fill:#fff;fill-rule:nonzero;"/><rect x="756.871" y="745.787" width="19.75" height="4.167" style="fill:#fff;fill-rule:nonzero;"/><rect x="783.221" y="745.787" width="11.417" height="4.167" style="fill:#fff;fill-rule:nonzero;"/><rect x="803.371" y="745.787" width="32.25" height="4.167" style="fill:#fff;fill-rule:nonzero;"/><path d="M840.962,442.138c-1.016,50.416 -53.416,92.683 -117.033,94.362c-19.516,0.658 -38.816,-2.917 -57.004,-10.558c-6.387,15.841 -19.904,29.421 -58.621,35.504c40.4,-31.2 18.3,-57.596 9.088,-80.825c-4.684,-9.709 -7.084,-20.904 -6.946,-32.409c1.021,-50.445 53.421,-92.683 117.033,-94.366c63.663,-1.817 114.5,37.871 113.483,88.292Z" style="fill:#3e75ba;fill-rule:nonzero;"/><rect x="671.608" y="389.35" width="55.45" height="4.167" style="fill:#fff;fill-rule:nonzero;"/><rect x="684.533" y="425.45" width="19.75" height="4.167" style="fill:#fff;fill-rule:nonzero;"/><rect x="770.492" y="465.95" width="19.754" height="4.167" style="fill:#fff;fill-rule:nonzero;"/><rect x="684.533" y="498.092" width="19.75" height="4.167" style="fill:#fff;fill-rule:nonzero;"/><rect x="713.017" y="498.092" width="19.75" height="4.167" style="fill:#fff;fill-rule:nonzero;"/><rect x="713.017" y="465.95" width="50.467" height="4.167" style="fill:#fff;fill-rule:nonzero;"/><rect x="742.413" y="498.092" width="33.229" height="4.167" style="fill:#fff;fill-rule:nonzero;"/><rect x="714.183" y="425.45" width="61.458" height="4.167" style="fill:#fff;fill-rule:nonzero;"/><path d="M1081.51,1397.33l-30.375,-9.083l7.084,-74.459l30.375,9.084l-7.084,74.458Z" style="fill:#913c38;fill-rule:nonzero;"/><path d="M1087.47,1344.42l-0.917,-0.167l2.038,-21.391l-0.646,-0.192l1.571,0.088l-2.046,21.662Z" style="fill:#cdcdcd;fill-rule:nonzero;"/><path d="M1086.55,1344.26l-29.791,-5.541l1.674,-17.671l29.509,1.629l0.646,0.192l-2.038,21.391Z" style="fill:#752f2c;fill-rule:nonzero;"/><path d="M1261.3,937.454c0,0 -208.879,17.621 -203.75,108.329c4.204,74.263 15.204,54.075 -6.417,274.859l52.546,2.904c0,0 53.454,-180.596 46.246,-252.346c58.875,0 193.667,5.167 213.25,-47.958c9.725,-26.975 14.454,-55.496 13.958,-84.167l-115.833,-1.621Z" style="fill:#3e75ba;fill-rule:nonzero;"/><path d="M1112.04,1333.71l-68.667,-11.746l1.125,-30.375l71.083,15.792l-3.541,26.329Z" style="fill:#182e35;fill-rule:nonzero;"/><path d="M1048.01,1375.75l35.08,6.937c1.241,0.184 2.129,1.492 2.004,2.955l-2.921,33.17c-0.529,3.571 -3.375,5.992 -6.413,5.459c-12.166,-2.654 -17.916,-4.625 -33.333,-7.675c-9.5,-1.871 -31.208,-6.446 -44.417,-7.925c-13.208,-1.475 -11.625,-16.925 -5.916,-17.717c25.666,-3.392 40.25,-7.525 50.208,-13.975c1.733,-1.146 3.742,-1.579 5.708,-1.229Z" style="fill:#182e35;fill-rule:nonzero;"/><path d="M1038.98,1380.64c-5.796,0 -9.875,-0.667 -11.083,-2.38c-0.488,-0.821 -0.488,-1.841 0,-2.662c0.133,-0.458 0.496,-0.804 0.954,-0.917c2.125,-0.458 6.879,3.042 10.129,5.959Zm-6.708,1.12c2.758,0.375 5.554,0.463 8.333,0.255l0.621,-0.463l0,-0.788c-0.875,-0.874 -8.75,-8.333 -12.788,-7.499c-0.954,0.162 -1.737,0.833 -2.045,1.749c-0.667,1.33 -0.571,2.921 0.25,4.167c1.496,1.517 3.5,2.438 5.629,2.579Z" style="fill:#3e75ba;fill-rule:nonzero;"/><path d="M1038.48,1368.64c0.588,0.092 1.113,0.426 1.454,0.917c1.221,3.288 1.359,6.879 0.375,10.25c-2.525,-2.854 -3.862,-6.567 -3.746,-10.379c0,-0.413 0.455,-0.875 1.538,-0.829l0.379,0.041Zm2.163,13.376l0.333,0l0.504,-0.542c0,-0.375 2.288,-9.254 -0.375,-12.792c-0.658,-0.967 -1.75,-1.542 -2.917,-1.542c-1.287,-0.183 -2.533,0.538 -2.999,1.746c-1.296,3.292 2.291,10.584 5.083,12.963l0.371,0.167Z" style="fill:#3e75ba;fill-rule:nonzero;"/><path d="M946.092,1408.91l-28.917,-13l20,-71.329l28.917,12.996l-20,71.333Z" style="fill:#913c38;fill-rule:nonzero;"/><path d="M931.979,1343.1l-0.212,-0.096l4.904,-17.516l0.216,0.108l-4.908,17.504Z" style="fill:#cdcdcd;fill-rule:nonzero;"/><path d="M960.683,1356.01l-28.704,-12.909l4.908,-17.504l28.371,14.054l-4.575,16.359Z" style="fill:#752f2c;fill-rule:nonzero;"/><path d="M1199.13,937.454c-1.375,0 -234.166,23.954 -234.458,102.913c-0.5,130.587 -37.792,280.275 -37.792,280.275l46.009,22.791c0,0 80.116,-162.275 78.908,-264.066c64.042,-18.375 229.708,12.5 249.292,-40.584c16.041,-43.416 7.375,-101.329 7.375,-101.329l-109.334,0Z" style="fill:#3e75ba;fill-rule:nonzero;"/><path d="M980.246,1350.04l-61.671,-27.746l4.963,-25.254l65.041,22.462l-8.333,30.538Z" style="fill:#182e35;fill-rule:nonzero;"/><path d="M920.05,1371.94l35.167,7.305c1.216,0.225 2.079,1.654 1.958,3.246l-2.75,36.466c-0.471,3.959 -3.321,6.671 -6.367,6.063l-0.008,-0.004c-12.167,-2.813 -17.917,-4.975 -33.333,-8.171c-9.5,-1.946 -35.375,-8.221 -48.417,-11.63c-13.042,-3.408 -10.125,-20.016 -4.167,-20.129c25.792,-0.379 42.5,-4.596 52.417,-11.795c1.667,-1.226 3.6,-1.701 5.5,-1.351Z" style="fill:#182e35;fill-rule:nonzero;"/><path d="M910.313,1374.95c-4.53,3.546 -8.321,5.275 -10.313,4.663c-0.887,-0.384 -1.5,-1.226 -1.587,-2.192c-0.159,-0.438 -0.063,-0.925 0.254,-1.267c1.491,-1.5 7.325,-1.621 11.646,-1.204Zm-4.705,4.863c2.446,-1.334 4.75,-2.921 6.863,-4.734l0.241,-0.8l-0.608,-0.483c-1.221,-0.192 -11.975,-1.592 -14.762,1.517c-0.63,0.72 -0.838,1.716 -0.567,2.625c0.246,1.475 1.258,2.704 2.654,3.225c2.154,0.341 4.363,-0.142 6.179,-1.35Z" style="fill:#3e75ba;fill-rule:nonzero;"/><path d="M902.779,1365.58c0.529,-0.296 1.159,-0.354 1.733,-0.175c2.938,1.942 5.188,4.759 6.421,8.055c-3.741,-0.784 -7.037,-2.984 -9.2,-6.138c-0.246,-0.333 -0.146,-0.975 0.755,-1.575l0.291,-0.167Zm9.692,9.496l0.304,-0.221l0.071,-0.675c-0.217,-0.3 -3.646,-8.837 -7.884,-10.133c-1.099,-0.358 -2.304,-0.171 -3.237,0.5c-1.146,0.633 -1.712,1.958 -1.375,3.217c0.892,3.42 8.087,7.154 11.779,7.404l0.342,-0.092Z" style="fill:#3e75ba;fill-rule:nonzero;"/><path d="M1278.22,685.525c6.125,13.167 11.166,25.833 16.208,39c5.042,13.167 9.5,26.333 13.625,39.833c4.125,13.5 7.708,27.334 10.583,41.667c3.138,14.892 4.7,30.071 4.667,45.292c-0.05,8.933 -1.383,17.816 -3.958,26.375c-1.625,5.241 -3.963,10.233 -6.959,14.829c-1.741,2.608 -3.737,5.037 -5.958,7.254l-1.792,1.746c-1,0.837 -2.083,1.75 -3.125,2.458c-1.758,1.208 -3.625,2.238 -5.583,3.088c-2.887,1.275 -5.904,2.241 -9,2.875c-2.433,0.516 -4.896,0.879 -7.375,1.083c-4.229,0.262 -8.475,0.262 -12.713,0c-7.512,-0.358 -14.999,-1.196 -22.412,-2.504c-27.658,-5.025 -54.75,-12.783 -80.879,-23.163l6.046,-22.958c26.458,3.167 53.458,6.537 78.916,7.704c6.334,0 12.5,0.296 18.25,0c2.563,-0.133 5.113,-0.454 7.625,-0.954c2.084,-0.375 3.875,-1.129 3.25,-1.087c-0.412,0.141 -0.808,0.337 -1.166,0.587c-0.421,0.246 -0.809,0.542 -1.167,0.875l0.375,-0.708c0.537,-1.192 0.958,-2.434 1.25,-3.713c0.929,-4.575 1.308,-9.25 1.125,-13.916c-0.617,-11.934 -2.383,-23.784 -5.292,-35.376c-2.833,-12.5 -6.5,-24.662 -10.5,-37.041c-4,-12.371 -8.333,-24.746 -13.083,-37.079c-4.75,-12.334 -9.75,-24.713 -14.667,-36.338l43.709,-19.829Z" style="fill:#913c38;fill-rule:nonzero;"/><path d="M1181.09,868.65l-27.62,-15.546l-13.879,29.921c0,0 32.291,13.454 39.087,5.042l2.412,-19.417Z" style="fill:#913c38;fill-rule:nonzero;"/><path d="M1131.09,858.775l-12.62,19.996l21.121,4.042l13.879,-29.913l-22.38,5.875Z" style="fill:#913c38;fill-rule:nonzero;"/><path d="M1213.8,709.283c-5.292,13.292 -10.833,26 -16.667,38.875c-5.833,12.875 -11.666,25.542 -17.833,38.209c-12.412,25.791 -26.329,50.837 -41.667,75c-4.166,6.166 -8.333,12.291 -13,18.421c-2.333,3.079 -4.916,6.12 -7.666,9.245c-1.5,1.584 -2.709,3.042 -4.459,4.667l-2.5,2.421l-1.416,1.329c-3.963,3.396 -8.63,5.871 -13.667,7.25c-2.654,0.754 -5.354,1.329 -8.083,1.708c-4.454,0.538 -8.942,0.721 -13.417,0.542c-7.738,-0.246 -15.446,-1.012 -23.083,-2.292c-28.25,-4.987 -55.917,-12.837 -82.584,-23.416l6.084,-23c26.958,3.25 54.5,6.708 80.416,7.791c6.113,0.238 12.234,0.154 18.334,-0.25c2.458,-0.196 4.891,-0.579 7.291,-1.166c0.78,-0.184 1.534,-0.459 2.25,-0.834c0.25,0 0,-0.291 -1.129,0.417c-0.404,0.229 -0.787,0.508 -1.121,0.837l0.417,-0.504l1.167,-1.291c0.75,-0.75 1.666,-2 2.537,-3c1.709,-2.167 3.463,-4.5 5.209,-7.042c3.462,-4.958 6.837,-10.458 10.17,-16.042c6.667,-11.166 12.875,-23.041 18.959,-35.041c6.083,-12 11.916,-24.25 17.666,-36.584c11.459,-24.583 22.667,-49.791 33.334,-74.583l44.458,18.333Z" style="fill:#913c38;fill-rule:nonzero;"/><path d="M985.675,864.242l-27.667,-15.75l-13.875,29.921c0,0 32.292,13.495 39.125,5.079l2.417,-19.25Z" style="fill:#913c38;fill-rule:nonzero;"/><path d="M935.675,854.408l-12.667,19.959l21.125,4.046l13.875,-29.921l-22.333,5.916Z" style="fill:#913c38;fill-rule:nonzero;"/><path d="M1285.34,561.45l-17.667,20.458l-26.963,27.892c0.555,1.371 1.301,3.158 2.063,5.054c2.075,5.138 3.304,10.596 3.596,16.133c0.587,11.18 -0.483,20.634 -18.113,28.213c0,0 -18.5,24.167 25.5,17.458c44,-6.708 50.625,-29.541 50.625,-29.541c-19.5,-13.875 -20.583,-60 -19.041,-85.667Z" style="fill:#913c38;fill-rule:nonzero;"/><path d="M1195.63,538.367c0,2.75 -1.375,5.083 -3.208,5.166c-1.833,0.084 -3.292,-2.083 -3.333,-4.833c-0.042,-2.75 1.416,-5.083 3.208,-5.167c1.792,-0.083 3.292,2.084 3.333,4.834Z" style="fill:#182e35;fill-rule:nonzero;"/><path d="M1204.84,528.117c-0.542,-0.005 -1.046,-0.288 -1.334,-0.75c-2.183,-3.588 -5.912,-5.959 -10.083,-6.417c-0.892,-0.046 -1.588,-0.775 -1.588,-1.667c0.025,-0.896 0.771,-1.604 1.671,-1.583c5.263,0.471 9.996,3.408 12.746,7.917c0.467,0.762 0.246,1.754 -0.496,2.25l-0.916,0.25Z" style="fill:#182e35;fill-rule:nonzero;"/><path d="M1194.63,539.908c-2.237,7.504 -5.458,14.679 -9.583,21.334c3.467,1.954 7.621,2.258 11.333,0.833l-1.75,-22.167Z" style="fill:#730f11;fill-rule:nonzero;"/><path d="M1287.84,524.492c-1.62,34 -0.87,54.166 -17.745,72.166c-16.442,18.117 -44.45,19.475 -62.567,3.038c-6.642,-6.025 -11.3,-13.929 -13.35,-22.663c-7.667,-30.125 -3.667,-80.666 29.167,-95.833c22.145,-10.971 48.991,-1.912 59.966,20.233c3.534,7.146 5.1,15.104 4.529,23.059Z" style="fill:#913c38;fill-rule:nonzero;"/><path d="M1303.27,535.833c-4.917,14.417 -12.375,27.83 -22.084,39.584l-44.25,8.333c0,0 -34.958,-14.625 -25.625,-38.708c-5.916,-5 -3.708,-20.459 0.459,-28.959c6.666,5.33 17.625,5.792 23.625,-0.625c4.833,8.875 19.333,10.121 25.625,2.125c7.208,7.996 22.583,5.542 26.917,-4.337c5.333,3.504 13,3.004 17.833,-1.163l0.625,-0.583c0.704,6.083 0,14.042 -3.125,24.333Z" style="fill:#182e35;fill-rule:nonzero;"/><path d="M1236.94,583.75c0,0 -27.183,-11.375 -27.208,-30.575c-0.004,-2.575 0.483,-5.288 1.583,-8.133c-2.575,-2.179 -3.612,-6.342 -3.616,-11.046c-0.004,-6.1 1.721,-13.117 4.075,-17.913c3.308,2.646 7.679,4.092 11.971,4.092c4.354,0 8.633,-1.487 11.654,-4.717c2.654,4.875 8.237,7.45 13.767,7.45c4.529,0 9.024,-1.725 11.858,-5.325c2.929,3.25 7.212,4.775 11.55,4.775c6.333,0 12.796,-3.25 15.367,-9.112c2.379,1.562 5.22,2.329 8.066,2.329c3.542,0 7.088,-1.183 9.767,-3.492l0.625,-0.583c0.162,1.4 0.25,2.9 0.25,4.508c0,5.367 -0.971,11.905 -3.375,19.825c-4.917,14.417 -12.375,27.83 -22.084,39.584l-44.25,8.333Z" style="fill:#182e35;fill-rule:nonzero;"/><path d="M1309.65,494.625c2.5,5.583 1.121,12.621 -3.25,16.875l-0.625,0.583c-4.833,4.167 -12.5,4.667 -17.833,1.163c-4.334,9.879 -19.709,12.333 -26.917,4.333c-6.292,8 -20.792,6.754 -25.625,-2.121c-6,6.417 -16.959,5.955 -23.625,0.625c-1.75,-1.375 -3.209,-3.125 -4.167,-5.17c-0.25,-0.455 -0.416,-0.913 -0.583,-1.371c-0.375,0.412 -0.75,0.791 -1.167,1.125c-4.042,3.333 -10.417,3.833 -14.833,0.875c-3.625,-2.417 -5.625,-6.917 -5.333,-11.209c0.041,-0.916 0.208,-1.791 0.458,-2.666c-0.333,0.625 -0.75,1.208 -1.25,1.708c-3.625,3.875 -11.292,4.042 -14.833,-0.375c-4.417,-5.462 -1.917,-14.542 4.124,-18.167c2.417,-1.416 5.084,-2.083 7.834,-2.083c4.25,0 8.583,1.542 11.958,4.121c-3.625,-5.208 -2.333,-13.163 2.75,-16.954c5.083,-3.75 13.084,-2.709 17,2.25c-0.541,-5.917 1.417,-9.459 4.458,-11.292c5.75,-3.333 15.334,-0.458 20.001,5.125c0,0 6.416,-15.504 17.499,-13.75c2.417,0.329 13.792,5.371 13.501,9.458l-0.209,0.792l0.542,-0.917c2.166,-3.416 6.542,-5.125 10.666,-5.041c4.459,0.037 8.709,1.75 12.834,3.412c8.625,3.546 17.792,7.504 22.792,15.375c4.958,7.921 2.791,20.796 -6.167,23.296Z" style="fill:#182e35;fill-rule:nonzero;"/><path d="M1230.84,548.2c-1.209,8.4 -5.063,16.192 -11,22.25c-7.542,7.208 -13.959,0 -14.042,-10.958c0,-9.917 3.708,-25.625 12.5,-28.542c8.788,-2.917 14.162,6.458 12.542,17.25Z" style="fill:#913c38;fill-rule:nonzero;"/><path d="M1364.09,658.95c-3.125,-8.333 -17.709,-16.667 -26.667,-16.667l-5.917,0c-10.333,0 -23.208,0.834 -35.708,2.292c-23.817,2.637 -47.467,6.613 -70.833,11.917c-10.75,2.833 -21.125,6.416 -29.375,9.5c-10.5,4.166 -16.667,6.958 -16.667,6.958c0,0 11.508,76.604 17.458,152.696c3.309,42.342 1.942,84.387 3,113.304l177.75,0c6.125,-34.75 5.159,-65.054 5.663,-127.804c0.287,-37.667 -5.829,-117.904 -18.704,-152.196Z" style="fill:#182e35;fill-rule:nonzero;"/><path d="M1196.71,832.575c-1.204,-13.829 -2.35,-27.654 -3.462,-41.038c0.037,-0.054 0.079,-0.099 0.117,-0.154c1.095,11.254 2.12,22.763 3.02,34.263c0.175,2.229 0.338,4.462 0.488,6.692c-0.054,0.079 -0.109,0.158 -0.163,0.237Z" style="fill:#cdcdcd;fill-rule:nonzero;"/><path d="M1196.87,832.338c-0.15,-2.23 -0.313,-4.463 -0.488,-6.692c-0.9,-11.5 -1.925,-23.009 -3.02,-34.263c8.304,-10.708 16.745,-23.275 23.858,-35.379l0,22.975c-5.196,20.375 -12.029,41.071 -20.35,53.359Z" style="fill:#0f2329;fill-rule:nonzero;"/><path d="M1168.88,678.554c-25.458,14.333 -50.412,87.684 -50.412,87.684l58.287,43.979c22.25,-21.038 54.792,-73.246 58.333,-94.121c5.713,-32.042 -25.416,-60.375 -66.208,-37.542Z" style="fill:#182e35;fill-rule:nonzero;"/><path d="M1118.58,1425.19c0,10.008 -8.117,18.125 -18.125,18.125c-10.008,0 -18.125,-8.117 -18.125,-18.125c0,-10.009 8.117,-18.121 18.125,-18.121c10.008,0 18.125,8.112 18.125,18.121Z" style="fill:#182e35;fill-rule:nonzero;"/><path d="M1388.95,1425.19c0,10.008 8.113,18.125 18.125,18.125c10.008,0 18.125,-8.117 18.125,-18.125c0,-10.009 -8.117,-18.121 -18.125,-18.121c-10.012,0 -18.125,8.112 -18.125,18.121Z" style="fill:#182e35;fill-rule:nonzero;"/><path d="M1236.12,1419.4c0,10.008 8.117,18.121 18.125,18.121c10.008,0 18.125,-8.113 18.125,-18.121c0,-10.013 -8.117,-18.129 -18.125,-18.129c-10.008,0 -18.125,8.116 -18.125,18.129Z" style="fill:#182e35;fill-rule:nonzero;"/><path d="M1248.62,1397.02l0,-35.042l-51.917,0c-10.192,0.008 -20.358,0.958 -30.375,2.834l-96.671,18.787c-4.767,0.929 -7.875,5.546 -6.95,10.308c0.829,4.234 4.6,7.246 8.909,7.109l177.004,-3.996Z" style="fill:#182e35;fill-rule:nonzero;"/><path d="M1248.62,1397.02l0,-35.042l51.958,0c10.188,0.004 20.358,0.954 30.375,2.834l108.646,17.37c4.767,0.93 7.879,5.546 6.946,10.309c-0.821,4.233 -4.592,7.246 -8.9,7.112l-189.025,-2.583Z" style="fill:#182e35;fill-rule:nonzero;"/><rect x="1216.45" y="1201.56" width="64.292" height="160.458" style="fill:#182e35;fill-rule:nonzero;"/><rect x="1225.7" y="1126.9" width="45.833" height="74.625" style="fill:#182e35;fill-rule:nonzero;"/><path d="M1271.53,1160.36l-45.833,-11.546l0,-21.9l45.833,0l0,33.446Z" style="fill:#0b1417;fill-rule:nonzero;"/><rect x="1077.16" y="958.062" width="23.292" height="99.375" style="fill:#182e35;fill-rule:nonzero;"/><path d="M1217.22,1126.9l0,-432.013c0,-16.358 7.062,-31.916 19.371,-42.691l30.787,-26.954c10.346,-9.059 23.625,-14.051 37.375,-14.051l111.234,0l54.354,57.834l0,457.875l-253.121,0Z" style="fill:#3e75ba;fill-rule:nonzero;"/><path d="M1051.62,1043.31l253.754,0l0,83.584l-295.088,0c-16.566,0.012 -30.012,-13.409 -30.025,-29.975c-0.004,-5.388 1.446,-10.684 4.192,-15.317c14.042,-23.741 39.583,-38.3 67.167,-38.292Z" style="fill:#3e75ba;fill-rule:nonzero;"/><rect x="1271.53" y="1126.9" width="181.488" height="0.017" style="fill:#fff;fill-rule:nonzero;"/><path d="M1470.35,1126.91l-17.333,0l0,-0.016l17.321,0l0,-0.446l0.012,0l0,0.462Z" style="fill:#bac5da;fill-rule:nonzero;"/><path d="M1225.7,1126.91l-78.05,0l0,-0.016l78.05,0l0,0.016Zm-161.7,0l-16.333,0c0,-0.004 0,-0.008 0.004,-0.016l16.329,0l0,0.016Z" style="fill:#fff;fill-rule:nonzero;"/><rect x="1064" y="1126.9" width="83.65" height="0.017" style="fill:#c2d7ef;fill-rule:nonzero;"/><path d="M1047.67,1126.91l-37.396,0c-8.921,0 -16.942,-3.899 -22.442,-10.091c5.496,6.183 13.513,10.075 22.433,10.075l37.409,0c-0.004,0.008 -0.004,0.012 -0.004,0.016Z" style="fill:#c2d7ef;fill-rule:nonzero;"/><path d="M1271.53,1126.91l-45.833,0l0,-0.016l45.833,0l0,0.016Z" style="fill:#b9bbbb;fill-rule:nonzero;"/><path d="M981.687,1087.75c0.68,-2.125 1.596,-4.187 2.75,-6.125c0.059,-0.096 0.117,-0.188 0.176,-0.292c-0.055,0.092 -0.109,0.184 -0.163,0.271c-1.154,1.946 -2.079,4.008 -2.763,6.146Zm34.363,-35.871c0,0 0.004,0 0.004,-0.004c0,0.004 -0.004,0.004 -0.004,0.004Zm0.112,-0.058c0.021,-0.009 0.038,-0.021 0.059,-0.029c-0.017,0.008 -0.042,0.02 -0.059,0.029Zm0.109,-0.054c3.804,-1.934 7.762,-3.555 11.85,-4.842c-4.084,1.292 -8.05,2.912 -11.85,4.842Zm11.854,-4.842c0.038,-0.012 0.075,-0.025 0.112,-0.038c-0.037,0.013 -0.074,0.026 -0.112,0.038Zm0.2,-0.062c0.008,-0.005 0.021,-0.009 0.029,-0.009c-0.008,0 -0.017,0.004 -0.029,0.009Zm188.896,-3.551l-36.679,0c20.112,-0.654 36.271,-16.966 36.679,-37.141l0,37.141Z" style="fill:#c2d7ef;fill-rule:nonzero;"/><path d="M1470.34,1126.9l-6.23,0c2.117,0 4.196,-0.15 6.23,-0.446l0,0.446Zm-216.096,-83.584l-37.025,0l0,-37.141c0.008,-0.259 0.008,-0.521 0.008,-0.784l0,-310.512c0,-16.333 7.042,-31.917 19.375,-42.671l30.792,-26.954c10.333,-9.083 23.625,-14.042 37.375,-14.042l35.554,0c-13.229,0.338 -25.942,5.292 -35.921,14.03l-30.792,26.954c-12.308,10.775 -19.366,26.333 -19.366,42.691l0,348.429Z" style="fill:#c2d7ef;fill-rule:nonzero;"/><path d="M1010.26,1126.9c-8.92,0 -16.937,-3.892 -22.433,-10.075c-4.7,-5.296 -7.558,-12.263 -7.558,-19.904c0,-3.121 0.479,-6.213 1.416,-9.167c0.684,-2.138 1.609,-4.2 2.763,-6.146c0.054,-0.087 0.108,-0.179 0.163,-0.271c7.641,-12.779 18.612,-22.887 31.437,-29.454c0,0 0.004,0 0.004,-0.004c0.038,-0.017 0.071,-0.033 0.108,-0.054l0.109,-0.054c3.8,-1.93 7.766,-3.55 11.85,-4.842l0.004,0c0.038,-0.012 0.075,-0.025 0.112,-0.038c0.03,-0.008 0.059,-0.016 0.088,-0.024c0.012,-0.005 0.021,-0.009 0.029,-0.009c7.383,-2.304 15.167,-3.521 23.125,-3.521l127.808,0c0.417,0 0.838,-0.008 1.255,-0.021l73.704,0l0,83.584l-243.984,0Z" style="fill:#c2d7ef;fill-rule:nonzero;"/><path d="M1254.25,1126.9l0,-432.013c0,-16.358 7.058,-31.916 19.366,-42.691l30.792,-26.954c10.342,-9.059 23.625,-14.051 37.375,-14.051l86.692,0c15.658,0 30.625,6.471 41.346,17.884l22.158,23.571c9.887,10.52 15.392,24.416 15.392,38.858l0,392.137c0,23.892 -19.363,43.259 -43.255,43.259l-209.866,0Z" style="fill:#3e75ba;fill-rule:nonzero;"/><path d="M1464.11,1126.9l-209.866,0l0,-432.013c0,-16.358 7.058,-31.916 19.366,-42.691l30.792,-26.954c10.342,-9.059 23.625,-14.051 37.375,-14.051l86.692,0c15.658,0 30.625,6.471 41.346,17.884l22.158,23.571c9.887,10.52 15.392,24.416 15.392,38.858l0,392.137c0,21.776 -16.088,39.792 -37.025,42.813c-2.034,0.296 -4.113,0.446 -6.23,0.446Z" style="fill:#9cbbe2;fill-rule:nonzero;"/><path d="M1167.91,988.396c-51.258,-17.896 -107.071,-17.896 -158.333,0c-10.642,4.012 -22.6,-0.55 -27.875,-10.625c-4.75,-10.042 1.629,-23.042 14.542,-27.584c59.862,-20.916 125.054,-20.916 184.916,0c12.917,4.5 19.292,17.542 14.542,27.584c-5.279,10.021 -17.175,14.567 -27.792,10.625Z" style="fill:#3e75ba;fill-rule:nonzero;"/><path d="M1001.65,989.846c-8.167,0 -15.963,-4.463 -19.946,-12.075c-1.067,-2.254 -1.571,-4.659 -1.567,-7.084c0.013,-8.37 6.096,-16.979 16.109,-20.5c29.933,-10.458 61.196,-15.687 92.458,-15.687c31.262,0 62.525,5.229 92.458,15.687c10.013,3.492 16.096,12.117 16.113,20.496c0,2.425 -0.504,4.834 -1.571,7.088c-4,7.591 -11.792,12.037 -19.946,12.037c-2.616,0 -5.267,-0.454 -7.846,-1.412c-21.891,-7.642 -44.616,-12.021 -67.458,-13.138c-3.9,-0.187 -7.804,-0.283 -11.708,-0.283c-3.863,0 -7.725,0.092 -11.584,0.279c-22.883,1.104 -45.65,5.483 -67.583,13.142c-2.088,0.787 -4.229,1.246 -6.363,1.396c-0.52,0.037 -1.045,0.054 -1.566,0.054Z" style="fill:#c2d7ef;fill-rule:nonzero;"/><path d="M520.363,575.017c-0.875,2.458 -0.25,4.916 1.375,5.458c1.625,0.542 3.62,-0.958 4.458,-3.417c0.833,-2.454 0.25,-4.958 -1.333,-5.495c-1.588,-0.546 -3.625,0.958 -4.5,3.454Z" style="fill:#182e35;fill-rule:nonzero;"/><path d="M519.904,577.558c0.325,8.584 1.821,17.079 4.459,25.255c-4.246,1.216 -8.813,0.516 -12.5,-1.917l8.041,-23.338Z" style="fill:#bb2425;fill-rule:nonzero;"/><path d="M516.363,558.267l0.958,0c3.704,-1.238 7.783,-0.617 10.958,1.666c0.692,0.5 1.654,0.35 2.15,-0.341c0.446,-0.613 0.379,-1.454 -0.15,-1.992c-3.971,-2.958 -9.121,-3.813 -13.833,-2.292c-0.809,0.28 -1.233,1.154 -0.958,1.959c0.149,0.45 0.504,0.804 0.958,0.958l-0.083,0.042Z" style="fill:#182e35;fill-rule:nonzero;"/><path d="M428.988,584.1c4.666,23.708 9.291,67.167 -7.292,83c0,0 6.5,24.042 50.583,24.042c48.458,0 23.167,-24.042 23.167,-24.042c-26.459,-6.333 -22.2,-25.958 -17.575,-44.375l-48.883,-38.625Z" style="fill:#d05b51;fill-rule:nonzero;"/><path d="M439.775,541.1c-8.662,31 -15.329,48.708 -5.412,69.583c14.875,31.459 66.85,35.538 81.041,-0.47c10.792,-33.155 21.459,-68.196 -4.042,-90.571c-18.137,-16.109 -45.891,-14.467 -61.999,3.666c-4.534,5.109 -7.817,11.196 -9.588,17.792Z" style="fill:#d05b51;fill-rule:nonzero;"/><path d="M406.175,551.408c-2.254,-11.425 -2.829,-23.916 2.867,-34.066c5.7,-10.154 19.521,-16.371 29.541,-10.45c8.654,-18.255 29.584,-29.863 49.646,-27.546c20.067,2.321 37.796,18.396 42.054,38.142c4.263,19.741 -5.25,41.695 -22.571,52.087c2.317,-8.517 4.625,-17.038 6.938,-25.554c-1.983,11.771 -8.429,22.733 -17.754,30.196c1.342,-8.517 2.679,-17.034 4.017,-25.55c-1.221,12.029 -8.476,23.295 -18.921,29.383c1.621,-5.963 3.241,-11.929 4.858,-17.896c-0.713,2.621 -7.192,21.379 -9.4,23.946c-4.087,4.767 -6.825,36.096 -21.192,37.088c-49.083,9.829 -44.812,-43.109 -50.083,-69.78Z" style="fill:#182e35;fill-rule:nonzero;"/><path d="M472.475,566.262c-0.833,7.946 0.954,15.951 5.087,22.792c5.538,8.917 13.663,5.5 16.667,-3.625c2.663,-8.333 2.958,-22.712 -4.754,-28.5c-7.708,-5.792 -15.833,-0.25 -17,9.333Z" style="fill:#d05b51;fill-rule:nonzero;"/><path d="M355.029,866.583c-5.304,-1.758 -30.091,-14.504 -34.033,-12.229c11.442,-29.2 18.579,-33.679 23.779,-52.262c2.908,-10.388 0.912,-18.471 -5.538,-27.113c-7.325,-9.812 -9.891,-14.783 -22.07,-13.571c-16.75,28.009 -37.842,62.567 -46.096,94.138c-2.779,10.633 -4.796,18.7 1.529,27.687c5.575,7.917 15.883,11.109 25.529,11.975c23.225,2.084 57.675,-2.187 57.238,-15.975c-0.275,-8.695 -0.338,-12.65 -0.338,-12.65Z" style="fill:#d05b51;fill-rule:nonzero;"/><path d="M351.092,865.546l19.687,-6.392l-1.754,35.55c0,0 -15.758,0.559 -24.154,-9.983l6.221,-19.175Z" style="fill:#d05b51;fill-rule:nonzero;"/><path d="M395.363,858.6l-2.821,29.312l-23.517,6.792l1.754,-35.55l24.584,-0.554Z" style="fill:#d05b51;fill-rule:nonzero;"/><path d="M620.867,890.775c0,0 -27.434,-21.5 -63.45,-92.563c-5.342,-9.933 -10.45,-19.949 -15.334,-30.045c-4.904,-10.196 -9.616,-20.171 -14.104,-30.875l42.567,-18.346c8.779,19.1 22.425,38.8 32.087,57.758c9.671,18.958 32.484,63.859 35.342,68.046c1.425,2.158 2.958,3.946 4.433,5.937l2.196,2.926l-27.458,31.749l3.721,5.413Z" style="fill:#d05b51;fill-rule:nonzero;"/><path d="M656.892,752.642l-8.53,-10.167l-3.941,-15.221l25.712,-23.887c0,0 6.229,7.654 10.571,15.904c0.663,1.262 0.946,2.687 0.892,4.112l-1.05,26.767l-23.654,2.492Z" style="fill:#d05b51;fill-rule:nonzero;"/><path d="M644.796,710.767l19.242,-17.488l6.087,10.213l-25.704,23.762l0.375,-16.487Z" style="fill:#d05b51;fill-rule:nonzero;"/><path d="M657.271,745.2c0.675,-2.863 1.266,2.75 3.15,0.492c5.692,-6.805 13.946,-7.546 18.858,-0.163c4.913,7.388 0.713,81.742 -7.141,105.033c-5.217,15.475 -7.996,27.826 -21.338,37.238c-5.512,3.892 -11.992,6.829 -18.742,6.725c-6.746,-0.104 -13.708,-3.796 -16.266,-10.05c-3.959,-9.717 10.75,-44.713 16.008,-56.004c16.483,-35.383 17.575,-49.692 25.471,-83.271Z" style="fill:#d05b51;fill-rule:nonzero;"/><path d="M602.125,741.996c11.354,-0.109 22.708,-0.217 34.062,-0.329c4.85,-0.046 9.888,-0.138 14.25,-2.259c5.717,-2.779 9.33,-8.616 11.638,-14.537c4.817,-12.35 5.221,-25.896 7.133,-39.017c1.913,-13.121 5.859,-26.808 15.784,-35.6c-18.092,2.404 -50.071,-3.267 -63.959,11.554c-7.362,7.854 -20.3,80.204 -18.908,80.188Z" style="fill:#3e75ba;fill-rule:nonzero;"/><path d="M602.125,741.996c-0.067,0 -0.104,-0.179 -0.104,-0.521c-0.008,-6.525 12.017,-72.204 19.012,-79.667c13.888,-14.821 45.867,-9.15 63.959,-11.554c-6.892,6.104 -10.9,14.567 -13.346,23.563c-1.079,3.962 -1.854,8.029 -2.438,12.037c-1.012,6.938 -1.6,13.992 -2.641,20.925c-0.934,6.183 -2.221,12.271 -4.492,18.092c-2.308,5.921 -5.921,11.758 -11.638,14.537c-0.845,0.413 -1.716,0.746 -2.604,1.021c-3.704,1.134 -7.733,1.2 -11.646,1.238c-11.354,0.112 -22.708,0.22 -34.062,0.329Z" style="fill:#9cbbe2;fill-rule:nonzero;"/><path d="M660.379,691.425c-1.954,0.517 -3.25,7.508 -2.821,9.483l1.913,3.413l3.892,16.892l12.995,-7.192l-11.72,-20.796c-0.846,-1.496 -2.596,-2.237 -4.259,-1.8Z" style="fill:#d05b51;fill-rule:nonzero;"/><path d="M366.758,673.054c-30.42,6.959 -75.395,101.725 -75.395,101.725l61.037,41.663c15.183,-21.771 35.858,-54.684 47.496,-78.538c18.042,-37.75 -2.058,-71.975 -33.138,-64.85Z" style="fill:#3e75ba;fill-rule:nonzero;"/><path d="M411.196,675.35c-3.5,-7.625 -7.292,-16.333 0.579,-19.042c8.708,-3 56.379,-6.083 72.792,-0.454c9.016,2.45 14.337,11.746 11.887,20.763l-0.096,0.316l-85.162,-1.583Z" style="fill:#182e35;fill-rule:nonzero;"/><path d="M352.4,816.442l-10.079,-6.875l0,-0.005l10.079,6.88Z" style="fill:#cdcdcd;fill-rule:nonzero;"/><path d="M342.321,809.567l-0.15,-0.105l0.15,0.1l0,0.005Z" style="fill:#a74840;fill-rule:nonzero;"/><path d="M352.4,816.442c5.638,-8.084 12.033,-17.704 18.446,-27.83c0.025,0.205 0.05,0.405 0.075,0.609c-9.788,15.058 -18.484,27.171 -18.521,27.221Z" style="fill:#cdcdcd;fill-rule:nonzero;"/><path d="M352.4,816.442l-10.079,-6.88l-0.15,-0.1l24.833,-46.754c1.504,8.984 2.775,17.613 3.842,25.904c-6.413,10.126 -12.808,19.746 -18.446,27.83Z" style="fill:#2b64b0;fill-rule:nonzero;"/><path d="M551.696,714.75c6.575,33.267 -8.788,112.358 -8.629,241.558l-173.459,0c-1.141,-26.112 17.85,-87.941 -5.745,-211.108c-0.759,-3.992 -1.109,-71.442 2.895,-72.146c16.792,-2.95 33.742,-4.954 50.771,-5.996c24.563,-1.437 49.188,-1.437 73.75,0c10.021,1.013 25.842,7.238 35.804,10.825c15.563,5.605 21.404,20.642 24.613,36.867Z" style="fill:#3e75ba;fill-rule:nonzero;"/><path d="M546.162,832.646c-17.891,-21.221 -35.845,-57.392 -40.37,-84.771l42.591,40.537c0.042,12.463 -1.516,28.692 -2.221,44.234Z" style="fill:#2b64b0;fill-rule:nonzero;"/><path d="M493.454,706.725c-4.166,30.713 56.25,109.129 56.25,109.129l60.792,-41.671c0,0 -16.875,-43.204 -45.25,-71.541c-32.333,-32.496 -67.042,-29.334 -71.792,4.083Z" style="fill:#3e75ba;fill-rule:nonzero;"/><path d="M692.154,1386.4l32.417,0l7.371,-75.129l-32.413,0l-7.375,75.129Z" style="fill:#d05b51;fill-rule:nonzero;"/><path d="M727.7,1354.55l-0.004,0l0.329,-3.367l-0.325,3.367Zm-32.421,0l-0.037,0l2.058,-20.996l0.042,0l-2.063,20.996Z" style="fill:#cdcdcd;fill-rule:nonzero;"/><path d="M727.696,1354.55l-32.417,0l2.063,-20.996l32.391,0l-1.708,17.629l-0.329,3.367Z" style="fill:#a74840;fill-rule:nonzero;"/><path d="M564.279,1386.4l32.413,0l16.296,-75.129l-32.421,0l-16.288,75.129Z" style="fill:#d05b51;fill-rule:nonzero;"/><path d="M603.867,1353.98l-0.142,0l2.283,-10.546l0.155,0l-2.296,10.546Z" style="fill:#cdcdcd;fill-rule:nonzero;"/><path d="M603.725,1353.98l-32.271,0l2.292,-10.546l32.262,0l-2.283,10.546Z" style="fill:#a74840;fill-rule:nonzero;"/><path d="M726.4,1371.83l-35.371,0c-1.342,0.008 -2.5,1.217 -2.791,2.917l-6.417,37.1c-0.6,3.275 0.967,6.558 3.496,7.333c0.383,0.117 0.779,0.175 1.166,0.167c12.755,-0.275 31.213,-1.242 47.255,-1.242c18.791,0 34.999,1.296 56.999,1.296c13.334,0 17.042,-17.421 11.459,-18.983c-25.375,-7.175 -46.084,-7.93 -68,-25.459c-2.325,-1.95 -5.025,-3.033 -7.796,-3.129Z" style="fill:#182e35;fill-rule:nonzero;"/><path d="M757.317,1377.6c0.487,-0.067 0.979,-0.067 1.462,0c0.634,0.121 1.188,0.517 1.5,1.083c0.542,0.959 0.375,1.417 0,1.667c-1.5,2.125 -9.708,2.167 -15.75,1.292c3.958,-2.167 8.304,-3.538 12.788,-4.042Zm-5.163,6.292c4.167,0 8.333,-0.584 9.542,-2.459c0.704,-1.012 0.704,-2.358 0,-3.37c-0.558,-0.88 -1.417,-1.521 -2.417,-1.796c-5.416,-1.459 -16.666,5 -17.208,5.291l-0.375,0.792l0.583,0.625c3.259,0.596 6.563,0.9 9.875,0.917Z" style="fill:#3e75ba;fill-rule:nonzero;"/><path d="M750.279,1369.85l0.459,0c1.37,0 1.458,0.708 1.5,0.875c0.37,2.208 -4.917,7.708 -8.917,10.088c0.329,-3.671 1.787,-7.15 4.167,-9.963c0.774,-0.662 1.77,-1.021 2.791,-1Zm-7.921,13.125l0.338,0c3.916,-1.75 11.662,-8.746 11.042,-12.5c0,-0.875 -0.751,-1.917 -2.834,-2.162c-1.512,-0.134 -3.012,0.345 -4.167,1.329c-4.166,3.379 -5,12.125 -5.045,12.5l0.295,0.708l0.371,0.125Z" style="fill:#3e75ba;fill-rule:nonzero;"/><path d="M598.983,1371.83l-36.412,0c-1.329,0.013 -2.479,1.221 -2.75,2.913l-6.417,37.1c-0.554,3.35 1.096,6.646 3.688,7.362l1.058,0.138c12.708,-0.275 18.921,-1.242 34.917,-1.242c9.879,0 22.504,1.292 36.125,1.292c13.629,0 15.379,-17.417 9.795,-18.979c-25,-7.067 -26.708,-16.83 -34.708,-26.155c-1.479,-1.621 -3.358,-2.483 -5.296,-2.429Z" style="fill:#182e35;fill-rule:nonzero;"/><path d="M622.113,1381.85l0.995,0c0.609,0.084 1.134,0.458 1.421,0.996c0.709,1.296 0.292,1.796 0,2c-1.375,1.792 -8,1.833 -12.879,1.042c3.137,-2.121 6.717,-3.5 10.463,-4.038Zm-4.084,6.163c2.779,0.362 5.584,-0.4 7.792,-2.125c0.783,-1.08 0.783,-2.542 0,-3.625c-0.5,-0.925 -1.383,-1.584 -2.417,-1.788c-4.75,-1.129 -13.708,4.996 -14.083,5.246l-0.334,0.792l0.58,0.587c2.779,0.604 5.616,0.908 8.462,0.913Z" style="fill:#3e75ba;fill-rule:nonzero;"/><path d="M616.317,1374.02l0.337,0c1,0 1.084,0.587 1.125,0.791c0.417,2.125 -3.75,7.5 -7.083,10.042c0.225,-3.696 1.558,-7.242 3.833,-10.167c0.496,-0.425 1.134,-0.662 1.788,-0.666Zm-6.955,13.125l0.751,0c3.374,-1.834 9.87,-8.913 9.162,-12.5c-0.217,-1.184 -1.25,-2.042 -2.454,-2.042c-1.179,-0.142 -2.359,0.221 -3.25,1c-3.75,3.087 -4.546,12.5 -4.584,12.833l0.375,0.709Z" style="fill:#3e75ba;fill-rule:nonzero;"/><path d="M491.071,956.354c0,0 153.533,63.383 185.287,112.121c-18.883,123.912 -52.758,265.083 -52.758,265.083l-57.737,0c0,0 -1.584,-78.5 14.95,-182.337c8.333,-151.454 -264.242,5.254 -211.288,-194.867l121.546,0Z" style="fill:#182e35;fill-rule:nonzero;"/><path d="M671.367,1099.64c0.012,-0.084 0.025,-0.159 0.041,-0.242c0.03,0.017 0.059,0.037 0.092,0.054c-0.046,0.063 -0.092,0.125 -0.133,0.188Z" style="fill:#b3b4b4;fill-rule:nonzero;"/><path d="M624.412,1124.26l-0.083,0c-4.896,-0.02 -9.658,-0.937 -14.279,-2.437l-4.517,-37.884l12.534,0c0,-0.683 -0.021,-1.366 -0.067,-2.041c21.517,4.104 40.221,9.741 53.408,17.504c-0.016,0.083 -0.029,0.158 -0.041,0.242c-9.925,13.858 -35.563,24.62 -46.955,24.616Zm-34.283,-12.137c-1.279,-0.779 -2.546,-1.571 -3.8,-2.363c-12.721,-8.054 -25.083,-16.67 -37.037,-25.821l36.579,0l4.258,28.184Z" style="fill:#0e1d21;fill-rule:nonzero;"/><path d="M543.067,956.354c0,0 141.925,18.296 220.162,62.854c24.084,13.717 20.717,57.767 20.092,86.767c-1.725,77.825 -16.684,154.783 -44.254,227.583l-48.163,0c0,0 2.458,-78.625 0.833,-205.495c-0.499,-38.038 -77.291,-50.588 -152.341,-55.005c-64.813,-4.075 -121.717,-44.558 -146.825,-104.458l-5.129,-12.246l155.625,0Z" style="fill:#182e35;fill-rule:nonzero;"/><path d="M750.863,1320.64l-3.125,22.791l-66.667,0l-1.834,-20.333l71.626,-2.458Z" style="fill:#3e75ba;fill-rule:nonzero;"/><path d="M629.192,1320.64l-6.121,22.791l-66.667,0l1.208,-20.333l71.58,-2.458Z" style="fill:#3e75ba;fill-rule:nonzero;"/><path d="M450.042,1071.33l-47.767,352.109l-8.629,-1.175l36.871,-353.601l19.525,2.667Z" style="fill:#3e75ba;fill-rule:nonzero;"/><path d="M402.275,1423.44l-8.629,-1.175l8.629,1.174l33.058,-243.687l0.005,0l-33.063,243.688Zm33.2,-244.73l12.858,-94.771l-12.858,94.771Z" style="fill:#9b9a9b;fill-rule:nonzero;"/><path d="M435.338,1179.75l-0.005,0l0.142,-1.042l-0.137,1.042Z" style="fill:#8d8c8c;fill-rule:nonzero;"/><path d="M402.275,1423.44l-8.629,-1.175l35.279,-338.326l19.408,0l-12.858,94.771l-0.142,1.042l-33.058,243.688Z" style="fill:#0e4c9a;fill-rule:nonzero;"/><path d="M618.067,1083.94l-270.834,0c0,-17.079 13.842,-30.92 30.917,-30.92l209,0c17.079,0 30.917,13.841 30.917,30.92Z" style="fill:#3e75ba;fill-rule:nonzero;"/><path d="M618.067,1083.94l-12.534,0l-0.004,-0.045l-19.667,0l0.009,0.045l-238.638,0c0,-17.079 13.842,-30.92 30.917,-30.92l209,0c17.079,0 30.917,13.841 30.917,30.92Z" style="fill:#c2d7ef;fill-rule:nonzero;"/><path d="M359.779,1083.89l-40.837,342.333l8.75,0l51.791,-342.333l-19.704,0Z" style="fill:#3e75ba;fill-rule:nonzero;"/><path d="M605.529,1083.89l40.829,342.333l-8.746,0l-51.75,-342.333l19.667,0Z" style="fill:#3e75ba;fill-rule:nonzero;"/><path d="M646.358,1426.23l-8.746,0l-1.337,-8.846l-2.829,-18.704l-9.079,-60.071l-2.675,-17.704l-35.83,-237.008l19.667,0l40.829,342.333Z" style="fill:#0e4c9a;fill-rule:nonzero;"/><path d="M550.904,1083.89l0.792,342.333l-8.708,0l-11.792,-342.333l19.708,0Z" style="fill:#3e75ba;fill-rule:nonzero;"/></g></svg>