<svg width="49" height="49" viewBox="0 0 49 49" fill="none" xmlns="http://www.w3.org/2000/svg">
<path d="M45.5357 27.9008H27.0595C25.1493 27.9008 23.5952 29.4549 23.5952 31.3651V45.2222C23.5952 47.1324 25.1493 48.6865 27.0595 48.6865H45.5357C47.4459 48.6865 49 47.1324 49 45.2222V31.3651C49 29.4549 47.4459 27.9008 45.5357 27.9008ZM46.6905 45.2222C46.6905 45.8583 46.1718 46.377 45.5357 46.377H27.0595C26.4235 46.377 25.9048 45.8583 25.9048 45.2222V36.698L34.7482 41.1198C35.2332 41.3612 35.7653 41.4829 36.2976 41.4829C36.83 41.4829 37.3621 41.3612 37.8471 41.1198L46.6905 36.698V45.2222ZM46.6905 34.1167L36.814 39.0537C36.4893 39.2161 36.1059 39.2161 35.781 39.0537L25.9045 34.1167V31.3651C25.9045 30.7291 26.4232 30.2103 27.0593 30.2103H45.5355C46.1715 30.2103 46.6902 30.7291 46.6902 31.3651L46.6905 34.1167ZM2.80952 35.9841V20.9722H42.0714V24.4365H44.381V12.8889C44.381 8.43222 40.7543 4.80557 36.2976 4.80557H32.8333V1.34129C32.8333 0.702933 32.3169 0.186523 31.6786 0.186523C31.0402 0.186523 30.5238 0.702933 30.5238 1.34129V4.80557H14.3571V1.34129C14.3571 0.702933 13.8407 0.186523 13.2024 0.186523C12.564 0.186523 12.0476 0.702933 12.0476 1.34129V4.80557H8.58333C4.12665 4.80557 0.5 8.43222 0.5 12.8889V35.9841C0.5 40.4408 4.12665 44.0675 8.58333 44.0675H20.131V41.758H8.58333C5.39873 41.758 2.80952 39.1687 2.80952 35.9841ZM2.80952 12.8889C2.80952 9.7043 5.39873 7.11509 8.58333 7.11509H12.0476V10.5794C12.0476 11.2177 12.564 11.7341 13.2024 11.7341C13.8407 11.7341 14.3571 11.2177 14.3571 10.5794V7.11509H30.5238V10.5794C30.5238 11.2177 31.0402 11.7341 31.6786 11.7341C32.3169 11.7341 32.8333 11.2177 32.8333 10.5794V7.11509H36.2976C39.4822 7.11509 42.0714 9.7043 42.0714 12.8889V18.6627H2.80952V12.8889Z" fill="#1685FF"/>
</svg>
