<?xml version="1.0" encoding="UTF-8" standalone="no"?><!DOCTYPE svg PUBLIC "-//W3C//DTD SVG 1.1//EN" "http://www.w3.org/Graphics/SVG/1.1/DTD/svg11.dtd"><svg width="100%" height="100%" viewBox="0 0 4500 4500" version="1.1" xmlns="http://www.w3.org/2000/svg" xmlns:xlink="http://www.w3.org/1999/xlink" xml:space="preserve" xmlns:serif="http://www.serif.com/" style="fill-rule:evenodd;clip-rule:evenodd;stroke-linecap:round;stroke-linejoin:round;stroke-miterlimit:1.5;"><g opacity="0.8"><rect x="162.333" y="3800.25" width="4202.71" height="2.458" style="fill:#ececec;"/><rect x="3665.54" y="3957.96" width="278.417" height="2.458" style="fill:#ececec;"/><rect x="2873.29" y="3984.54" width="73.083" height="2.458" style="fill:#ececec;"/><rect x="3495.79" y="3866.96" width="161.333" height="2.458" style="fill:#ececec;"/><rect x="603.292" y="3883.42" width="363.042" height="2.458" style="fill:#ececec;"/><rect x="1041.17" y="3883.42" width="53.25" height="2.458" style="fill:#ececec;"/><rect x="1267.42" y="3924.79" width="787.375" height="2.458" style="fill:#ececec;"/><path d="M2154.54,3363.25l-1623.08,0c-26.458,0 -47.958,-25.083 -47.958,-55.917l0,-2659.62c0,-30.833 21.542,-55.916 47.958,-55.916l1623.08,0c26.458,0 47.958,25.083 47.958,55.916l0,2659.58c0,30.833 -21.542,55.916 -47.958,55.916l0,0.042l0,-0.001Zm-1623.08,-2769.04c-25.291,0 -45.875,24 -45.875,53.459l0,2659.62c0,29.5 20.584,53.5 45.875,53.5l1623.08,0c25.291,0 45.875,-24 45.875,-53.5l0,-2659.58c0,-29.5 -20.584,-53.458 -45.875,-53.458l-1623.08,0l0,-0.042l0,0.001Z" style="fill:#ececec;fill-rule:nonzero;"/><path d="M3972.58,3363.25l-1623.08,0c-26.458,0 -47.958,-25.083 -47.958,-55.917l0,-2659.62c0,-30.833 21.541,-55.916 47.958,-55.916l1623.08,0c26.459,0 47.959,25.083 47.959,55.916l0,2659.58c0,30.833 -21.542,55.916 -47.959,55.916l0,0.042l0,-0.001Zm-1623.04,-2769.04c-25.292,0 -45.875,24 -45.875,53.459l0,2659.62c0,29.5 20.583,53.5 45.875,53.5l1623.08,0c25.292,0 45.875,-24 45.875,-53.5l0,-2659.58c0,-29.5 -20.583,-53.458 -45.875,-53.458l-1623.08,0l0,-0.042l0,0.001Z" style="fill:#ececec;fill-rule:nonzero;"/></g><g opacity="0.8"><g opacity="0.8"><rect x="2842.67" y="1466.75" width="1096.38" height="56.333" style="fill:#e1e1e1;"/><rect x="2893.12" y="1259.08" width="48.292" height="207.667" style="fill:#ececec;"/><rect x="3126.71" y="1259.08" width="48.292" height="207.667" style="fill:#ececec;"/><path d="M3440.14,1253.82l-47.59,8.204l35.276,204.648l47.59,-8.203l-35.276,-204.649Z" style="fill:#ececec;"/><rect x="2953" y="1286.46" width="48.292" height="180.292" style="fill:#ececec;"/><rect x="3064" y="1286.46" width="48.292" height="180.292" style="fill:#ececec;"/><rect x="3344.25" y="1286.46" width="48.292" height="180.292" style="fill:#ececec;"/><path d="M3238.44,1280.07l-47.141,10.477l39.114,175.998l47.141,-10.477l-39.114,-175.998Z" style="fill:#ececec;"/><rect x="3018.92" y="1248.79" width="24.167" height="217.958" style="fill:#ececec;"/><rect x="3306.21" y="1248.79" width="24.167" height="217.958" style="fill:#ececec;"/><rect x="3598.5" y="1302.38" width="235.333" height="162.5" style="fill:#ececec;"/></g><g opacity="0.8"><rect x="2842.71" y="1887.25" width="1096.38" height="56.333" style="fill:#e1e1e1;"/><rect x="3840.33" y="1679.62" width="48.292" height="207.667" style="fill:#ececec;"/><rect x="3606.75" y="1679.62" width="48.292" height="207.667" style="fill:#ececec;"/><path d="M3306.38,1878.98l47.59,8.203l35.275,-204.649l-47.59,-8.203l-35.275,204.649Z" style="fill:#ececec;"/><rect x="3780.46" y="1706.96" width="48.292" height="180.292" style="fill:#ececec;"/><rect x="3669.46" y="1706.96" width="48.292" height="180.292" style="fill:#ececec;"/><rect x="3389.21" y="1706.96" width="48.292" height="180.292" style="fill:#ececec;"/><path d="M3504.35,1876.63l47.142,10.477l39.114,-175.997l-47.142,-10.477l-39.114,175.997Z" style="fill:#ececec;"/><rect x="3738.67" y="1669.29" width="24.167" height="217.958" style="fill:#ececec;"/><rect x="3451.38" y="1669.29" width="24.167" height="217.958" style="fill:#ececec;"/><rect x="2947.92" y="1722.92" width="235.333" height="162.5" style="fill:#ececec;"/></g><g opacity="0.8"><path d="M625.333,2537.46l0,983.459l50.417,0l0,-882.584l891,0l0,882.584l58.833,0l0,-983.459l-1000.25,0Z" style="fill:#e1e1e1;fill-rule:nonzero;"/><path d="M1180.08,2537.46l0,983.459l50.417,0l0,-882.584l891,0l0,882.584l58.833,0l0,-983.459l-1000.25,0Z" style="fill:#f5f5f5;fill-rule:nonzero;"/></g><g opacity="0.8"><path d="M1498.46,2171.04c-11.25,-18.5 -29.75,-2.417 -29.75,-2.417c2.667,-35.5 -30,-59.75 -30,-59.75c0,0 37.959,0 43.25,-36.208c5.292,-36.209 -13.208,-19.375 -30.625,-19.625c-17.375,-0.25 -35.541,50.5 -12.625,79.083c22.917,28.542 16.792,77.292 -36.125,124.167c-12.916,11.416 -21.666,26.666 -27.625,43.125c4,-43.042 6.25,-103.709 -6.416,-144.25c-21.542,-68.792 19.5,-87.292 31.375,-121.709c11.916,-34.375 -31.375,-63.5 -31.375,-63.5c0,0 40.666,-18.5 20.833,-39.666c-19.833,-21.167 -60.833,-18.292 -60.833,9.375c0,27.666 27.791,38.25 27.791,38.25c0,0 31.75,33.083 31.75,50.25c0,17.166 -31.75,54.25 -31.75,54.25c0,0 14.542,-31.709 -14.541,-33.042c-29.084,-1.333 -38.375,37 -26.459,54.208c11.917,17.209 31.75,2.625 31.75,2.625c0,0 2.292,37.042 9.084,59.542c3,9.875 1.583,48.708 -0.917,89.083c-5.875,-14.583 -14.167,-27.916 -25.792,-38.208c-52.916,-46.875 -59.041,-95.583 -36.125,-124.167c22.917,-28.541 4.75,-79.333 -12.625,-79.083c-17.375,0.25 -35.916,-16.583 -30.625,19.625c5.292,36.208 43.25,36.208 43.25,36.208c0,0 -32.666,24.292 -30,59.75c0,0 -18.541,-16.125 -29.75,2.417c-20.083,33.083 26.459,53.583 34.292,37.292c0,0 98.667,69.833 74.875,170.375l5.542,8.166c-0.709,8.125 -1.167,13 -1.167,13l7.708,-3.333l8.792,12.958c-0.458,25.125 2.25,43.709 2.25,43.709l23.583,-34.834c-23.791,-100.541 74.875,-170.375 74.875,-170.375c7.834,16.292 54.375,-4.25 34.292,-37.291l-0.167,0Z" style="fill:#e1e1e1;fill-rule:nonzero;"/><path d="M1438.71,2537.46l-31.833,-182.291l9,-53.042l-100.292,0l9,53.042l-31.791,182.291l145.916,0Z" style="fill:#ececec;fill-rule:nonzero;"/></g></g><ellipse id="b" cx="2281.21" cy="3800.29" rx="1629.71" ry="95.167" style="fill:#f5f5f5;"/><g opacity="0.8"><path d="M2184.33,1579.54c3.667,-17.042 5.625,-34.709 5.625,-52.834c0,-138.458 -112.208,-250.666 -250.666,-250.666c-15.834,0 -31.292,1.5 -46.334,4.291c-6.416,-1.208 -12.916,-0.083 -19.5,-0.791c-46.583,-102.084 -149.375,-171.042 -268.916,-171.042l-92.459,0c-163.25,0 -295.625,130.25 -295.625,293.542c0,2.166 0.125,3.291 0.167,5.458c-116.417,21.375 -204.667,120.875 -204.667,243.458c0,138.125 111.959,247.667 250.042,247.667l907.792,0c89.375,0 161.791,-70.583 161.791,-159.917c0,-84.458 -64.75,-151.833 -147.291,-159.208l0.041,0.042Z" style="fill:#007cff;fill-rule:nonzero;"/><path d="M2184.33,1579.54c3.667,-17.042 5.625,-34.709 5.625,-52.834c0,-138.458 -112.208,-250.666 -250.666,-250.666c-15.834,0 -31.292,1.5 -46.334,4.291c-6.416,-1.208 -12.916,-0.083 -19.5,-0.791c-46.583,-102.084 -149.375,-171.042 -268.916,-171.042l-92.459,0c-163.25,0 -295.625,130.25 -295.625,293.542c0,2.166 0.125,3.291 0.167,5.458c-116.417,21.375 -204.667,120.875 -204.667,243.458c0,138.125 111.959,247.667 250.042,247.667l907.792,0c89.375,0 161.791,-70.583 161.791,-159.917c0,-84.458 -64.75,-151.833 -147.291,-159.208l0.041,0.042Z" style="fill:#0091ff;fill-rule:nonzero;"/><path d="M2184.33,1579.54c3.667,-17.042 5.625,-34.709 5.625,-52.834c0,-138.458 -112.208,-250.666 -250.666,-250.666c-15.834,0 -31.292,1.5 -46.334,4.291c-6.416,-1.208 -12.916,-0.083 -19.5,-0.791c-46.583,-102.084 -149.375,-171.042 -268.916,-171.042c-15.75,0 15.708,0 0,0c-163.25,0 -295.625,130.25 -295.625,293.542c0,2.166 0.125,3.291 0.166,5.458c-116.416,21.375 -204.666,120.875 -204.666,243.458c0,138.125 111.958,247.667 250.041,247.667l815.334,0c89.375,0 161.791,-70.583 161.791,-159.917c0,-84.458 -64.75,-151.833 -147.291,-159.208l0.041,0.042Z" style="fill:#007cff;fill-rule:nonzero;"/><path d="M1632.72,1052.85l-2.329,315.679" style="fill:none;stroke:#000;stroke-width:12.5px;"/><path d="M2012.2,1407.46l462.254,5.013" style="fill:none;stroke:#000;stroke-width:12.5px;"/></g><g opacity="0.8"><path d="M2429.67,2310.5l-283,0c-231.75,0 -420.25,-188.542 -420.25,-420.25l0,-84.042l-84.042,0l0,84.042c0,278.083 226.25,504.333 504.333,504.333l283,0l0,-84.041l-0.041,-0.042Z" style="fill:#007cff;fill-rule:nonzero;"/><path d="M1683.38,1750.21l-72.833,72.792l145.625,0l-72.792,-72.792Z" style="fill:#007cff;fill-rule:nonzero;"/></g><g opacity="0.8"><g opacity="0.8"><g opacity="0.8"><path d="M1056.33,3389.21l-49.958,-154.083c0,0 74.25,-70.042 182.125,-49.042l42.042,144.292l-174.167,58.833l-0.042,0Z" style="fill:#007cff;fill-rule:nonzero;"/><path d="M1056.33,3389.21l-49.958,-154.083c0,0 74.25,-70.042 182.125,-49.042l42.042,144.292l-174.167,58.833l-0.042,0Z" style="fill-rule:nonzero;"/></g><g opacity="0.8"><path d="M1030,3271.54c0,0 7,-8.334 19.917,-18.292c6.416,-5.042 14.375,-10.25 23.291,-15.25c4.5,-2.417 9.209,-4.833 14.125,-7.042c5,-1.916 9.959,-4.333 15.209,-5.916c5.208,-1.667 10.458,-3.334 15.75,-4.375c2.625,-0.625 5.25,-1.209 7.833,-1.709c2.625,-0.333 5.208,-0.666 7.792,-1c2.541,-0.291 5.041,-0.708 7.5,-0.875c2.458,-0.041 4.916,-0.083 7.25,-0.125c4.708,-0.166 9.125,-0.125 13.208,0.459c4.083,0.416 7.792,0.791 11.042,1.333c3.208,0.75 6.041,1.417 8.375,1.958c4.583,1.125 7.166,1.875 7.166,1.875c0,0 -2.75,0 -7.416,-0.25c-2.334,-0.125 -5.167,-0.291 -8.417,-0.458c-3.25,0.125 -6.875,0.25 -10.875,0.375c-3.958,-0.042 -8.25,0.458 -12.708,1c-4.5,0.375 -9.209,1.042 -14.042,2.042c-2.417,0.458 -4.875,0.875 -7.375,1.333c-2.458,0.625 -4.917,1.292 -7.417,1.917c-5.041,1.083 -10,2.791 -15,4.458c-5.083,1.375 -9.833,3.625 -14.708,5.375c-4.75,2.083 -9.458,4 -13.917,6.125c-4.375,2.292 -8.791,4.208 -12.75,6.458c-4.041,2.125 -7.791,4.25 -11.25,6.25c-6.875,4.042 -12.625,7.459 -16.458,10.167c-3.917,2.625 -6.125,4.167 -6.125,4.167Z" style="fill-rule:nonzero;"/><path d="M1034.38,3285.67c0,0 1.958,-1.667 5.625,-4.292c3.708,-2.542 8.958,-6.292 15.583,-10.25c6.625,-3.958 14.542,-8.333 23.292,-12.417c8.708,-4.208 18.333,-7.958 28.083,-11.416c4.959,-1.5 9.875,-3.167 14.792,-4.417c4.958,-1.25 9.792,-2.542 14.583,-3.333c4.792,-0.834 9.375,-1.834 13.834,-2.125c4.458,-0.417 8.625,-0.959 12.5,-1c7.791,-0.25 14.25,0.125 18.75,0.666c4.5,0.459 7,0.834 7,0.834c0,0 -2.584,0.375 -7.042,0.791c-2.208,0.25 -4.917,0.334 -7.958,0.834c-3.042,0.541 -6.5,1.125 -10.25,1.666c-3.75,0.542 -7.75,1.625 -12,2.375c-4.25,0.709 -8.625,2.167 -13.25,3.167c-4.625,0.958 -9.209,2.75 -14,3.917c-4.792,1.333 -9.5,3.083 -14.334,4.583c-19.125,6.417 -37.833,14.167 -51.875,20.125c-7,3.042 -12.916,5.458 -16.958,7.375c-4.083,1.833 -6.458,2.875 -6.458,2.875l0.083,0.042Z" style="fill-rule:nonzero;"/><path d="M1046.29,3314.25c0,0 1.791,-1.792 5.166,-4.583c3.417,-2.75 8.292,-6.75 14.5,-11.042c6.25,-4.25 13.667,-9 22.042,-13.375c8.292,-4.583 17.583,-8.583 27,-12.333c9.583,-3.334 19.25,-6.375 28.625,-8.125c4.708,-0.792 9.167,-1.834 13.583,-2.084c4.375,-0.333 8.459,-0.833 12.25,-0.75c3.834,0 7.292,0.209 10.375,0.375c3.084,0.167 5.75,0.75 7.917,1.042c4.375,0.667 6.792,1.167 6.792,1.167c0,0 -2.542,0.25 -6.875,0.458c-2.167,0.167 -4.792,0.083 -7.792,0.458c-3,0.459 -6.375,0.917 -10,1.334c-3.667,0.458 -7.542,1.5 -11.667,2.166c-4.166,0.625 -8.375,2.125 -12.875,3.084c-4.5,0.958 -8.916,2.791 -13.541,4c-4.625,1.416 -9.167,3.208 -13.792,4.791c-4.542,1.834 -9.167,3.459 -13.625,5.417c-4.417,2 -8.875,3.625 -13.042,5.667c-8.458,3.75 -16.166,7.625 -22.875,10.875c-6.625,3.416 -12.25,6.083 -16.041,8.25c-3.875,2.041 -6.084,3.25 -6.084,3.25l-0.041,-0.042Z" style="fill-rule:nonzero;"/><path d="M1053.29,3333.88c0,0 6.791,-7.167 18.916,-15.625c6.042,-4.25 13.459,-8.75 21.709,-12.917c4.125,-2.083 8.541,-4.041 13,-5.958c4.583,-1.625 9.166,-3.583 13.958,-4.958c4.792,-1.334 9.542,-2.834 14.375,-3.667c4.792,-1.083 9.542,-1.833 14.208,-2.25c4.625,-0.625 9.125,-0.875 13.417,-0.75c4.292,0 8.292,-0.083 12,0.5c3.708,0.375 7.083,0.875 10.042,1.292c2.916,0.708 5.458,1.375 7.583,1.875c4.167,1.083 6.5,1.791 6.5,1.791c0,0 -2.5,0 -6.75,-0.166c-2.125,-0.125 -4.667,-0.25 -7.625,-0.375c-2.958,0.166 -6.292,0.333 -9.875,0.416c-3.583,-0.041 -7.458,0.584 -11.542,0.917c-4.083,0.292 -8.333,1.042 -12.75,1.833c-4.416,0.584 -8.875,1.792 -13.458,2.834c-4.583,0.875 -9.125,2.458 -13.667,3.791c-9.125,2.709 -18.041,6.167 -26.333,9.584c-8.25,3.5 -15.875,7.083 -22.375,10.333c-6.458,3.292 -11.875,6 -15.542,8.167c-3.708,2.125 -5.833,3.333 -5.833,3.333l0.042,0Z" style="fill-rule:nonzero;"/><path d="M1063.12,3360.08c-0,0 1.667,-1.791 4.917,-4.583c3.25,-2.75 7.916,-6.75 13.875,-11.042c6,-4.208 13.125,-9 21.25,-13.375c4,-2.25 8.25,-4.416 12.625,-6.458c4.375,-2.125 9,-3.833 13.5,-5.792c4.666,-1.625 9.333,-3.208 14,-4.625c4.708,-1.208 9.333,-2.5 13.916,-3.291c4.584,-0.709 9,-1.667 13.25,-1.834c4.25,-0.25 8.25,-0.625 11.959,-0.458c3.708,0.167 7.125,0.458 10.083,0.708c3,0.25 5.542,1 7.667,1.334c4.208,0.875 6.541,1.458 6.541,1.458c-0,0 -2.458,0.125 -6.708,0.167c-2.125,0.083 -4.667,-0.167 -7.583,0.166c-2.917,0.334 -6.209,0.709 -9.75,1c-3.542,0.375 -7.334,1.292 -11.375,1.875c-4.042,0.584 -8.167,1.959 -12.5,2.834c-4.334,0.958 -8.667,2.666 -13.167,3.833c-4.458,1.458 -8.917,3.083 -13.375,4.708c-4.417,1.792 -8.917,3.375 -13.167,5.334c-4.291,1.958 -8.583,3.625 -12.625,5.625c-8.166,3.708 -15.625,7.625 -22.083,10.875c-6.375,3.416 -11.792,6.125 -15.458,8.25c-3.709,2.083 -5.875,3.25 -5.875,3.25l0.083,0.041Z" style="fill-rule:nonzero;"/></g><path d="M1034.5,3390.29l103.708,-78.584c2.542,-1.958 5.834,-2.708 8.959,-2.083l118.291,22.5c10.5,2 12.667,16.042 3.292,21.125l-97.625,52.875c-1.583,0.833 -3.333,1.333 -5.125,1.375l-124.375,3.208c-11.042,0.292 -15.958,-13.75 -7.167,-20.416l0.042,0Z" style="fill:#007cff;fill-rule:nonzero;"/></g><g opacity="0.8"><path d="M1221.17,3436.83c0,0 159.25,-385.25 187.25,-409.083c28,-23.833 205.916,79.583 205.916,79.583l-158.291,406.542l-234.875,-77.042Z" style="fill:#007cff;fill-rule:nonzero;"/><path d="M1266.92,3434.04c0,0 152.416,-367.959 175.125,-383.834c22.708,-15.916 152.708,51.834 152.708,51.834c0,0 -135.417,-82.667 -177,-68.625c-41.542,14 -183.042,392.25 -183.042,392.25l32.209,8.416l0,-0.041Z" style="fill-rule:nonzero;"/></g><g><rect x="911.583" y="3399.04" width="676.167" height="399.25" style="fill:#e1e1e1;"/><rect x="911.583" y="3399.04" width="676.167" height="399.25" style="fill:#e1e1e1;"/><rect x="1167.96" y="3399.04" width="419.792" height="399.25" style="fill:#e1e1e1;"/><path d="M1167.96,3403.21l159.209,-128.166l355.125,24.166l-94.542,104l-419.792,0Z" style="fill:#e1e1e1;fill-rule:nonzero;"/><path d="M1167.96,3403.21l-120.25,-138.666l-254.291,27.291l118.166,107.209l256.375,4.166Z" style="fill:#e1e1e1;fill-rule:nonzero;"/><path d="M1167.96,3403.21l-120.25,-138.666l-254.291,27.291l118.166,107.209l256.375,4.166Z" style="fill:#e1e1e1;fill-opacity:0.1;fill-rule:nonzero;"/><path d="M1167.96,3403.21l159.209,-128.166l355.125,24.166l-94.542,104l-419.792,0Z" style="fill:#e1e1e1;fill-rule:nonzero;"/></g><g opacity="0.8"><path d="M1459.75,3582.79c-59.292,0 -107.375,48.083 -107.375,107.375c0,59.291 48.083,107.375 107.375,107.375c59.292,0 107.375,-48.084 107.375,-107.375c0,-59.292 -48.083,-107.375 -107.375,-107.375Zm0,150.166c-23.625,0 -42.833,-19.166 -42.833,-42.833c0,-23.667 19.166,-42.833 42.833,-42.833c23.667,0 42.833,19.166 42.833,42.833c0,23.667 -19.166,42.833 -42.833,42.833Z" style="fill:#007cff;fill-rule:nonzero;"/><path d="M1556.54,3643.54c-1.917,-3.959 -4.125,-7.834 -6.542,-11.5c-3.125,-4.959 -6.708,-9.667 -10.75,-14.042c-17.917,-19.75 -43.042,-32.792 -71.208,-34.792c-2.792,-0.333 -5.542,-0.416 -8.334,-0.416c-59.25,0 -107.333,48.083 -107.333,107.416c0,9 1.083,17.75 3.208,26.042c1,4.125 2.25,8.167 3.875,12.083c2.167,5.959 4.959,11.667 8.25,17.084c17.25,28.75 47.584,48.666 82.709,51.708c3.125,0.25 6.208,0.417 9.333,0.417c59.333,0 107.417,-48.084 107.417,-107.334c0,-16.708 -3.792,-32.541 -10.584,-46.666l-0.041,0Zm-96.834,89.416c-1.333,0 -2.708,-0.083 -4.041,-0.25c-16.125,-1.416 -29.667,-11.916 -35.542,-26.291c-1,-2.459 -1.75,-4.959 -2.375,-7.584c-0.25,-1.583 -0.5,-3.208 -0.583,-4.875c-0.167,-1.25 -0.25,-2.541 -0.25,-3.791c0,-23.709 19.166,-42.875 42.791,-42.875c1,0 2,0 3.042,0.166c9.167,0.584 17.5,4.042 24.125,9.417c1.667,1.417 3.292,2.958 4.708,4.625c1.25,1.333 2.334,2.792 3.375,4.292c4.875,6.875 7.667,15.291 7.667,24.375c0,23.625 -19.167,42.791 -42.875,42.791l-0.042,0Z" style="fill-rule:nonzero;"/><path d="M1455.71,3732.71l-5.291,64.375c-35.125,-3.041 -65.459,-22.958 -82.709,-51.708l52.459,-39c5.875,14.375 19.416,24.875 35.541,26.292l0,0.041Z" style="fill-rule:nonzero;"/><path d="M1539.25,3617.96l-52.375,38.917c-6.625,-5.375 -14.958,-8.833 -24.125,-9.417l5.292,-64.291c28.166,2 53.291,15.041 71.208,34.791Z" style="fill-rule:nonzero;"/><path d="M1417.79,3698.83l-58.334,29.5c-1.583,-3.958 -2.875,-8 -3.875,-12.083l61.625,-22.292c0.084,1.667 0.334,3.292 0.584,4.875Z" style="fill-rule:nonzero;"/><path d="M1556.54,3643.54l-61.625,22.291c-1,-1.5 -2.084,-2.958 -3.375,-4.291l58.416,-29.5c2.459,3.708 4.625,7.583 6.542,11.5l0.042,0Z" style="fill-rule:nonzero;"/></g><g opacity="0.8"><path d="M1538.21,3612.62c-59.291,0 -91.041,41.375 -70.916,92.458c20.125,51.084 84.5,92.459 143.791,92.459c59.292,0 91.042,-41.417 70.917,-92.459c-20.125,-51.083 -84.5,-92.458 -143.792,-92.458Zm50.959,129.333c-23.625,0 -49.334,-16.5 -57.334,-36.875c-8.041,-20.375 4.625,-36.875 28.292,-36.875c23.667,0 49.333,16.5 57.333,36.875c8.042,20.375 -4.625,36.875 -28.291,36.875Z" style="fill:#007cff;fill-rule:nonzero;"/><path d="M1655.58,3664.92c-3.291,-3.417 -6.75,-6.75 -10.458,-9.917c-4.792,-4.25 -10,-8.333 -15.542,-12.083c-24.625,-17 -54.166,-28.25 -83,-29.959c-2.875,-0.291 -5.708,-0.375 -8.458,-0.375c-59.25,0 -91.042,41.417 -70.875,92.5c3.042,7.75 7.125,15.292 12.042,22.459c2.416,3.541 5.041,7.041 7.958,10.416c4.208,5.125 8.917,10.042 14.042,14.709c27,24.75 64.083,41.916 100.25,44.5c3.208,0.208 6.375,0.375 9.458,0.375c59.333,0 91.125,-41.417 71,-92.417c-5.667,-14.417 -14.833,-28 -26.417,-40.167l0,-0.041Zm-66.5,77c-1.333,0 -2.708,-0.084 -4.125,-0.209c-16.625,-1.25 -33.708,-10.291 -44.5,-22.666c-1.833,-2.084 -3.458,-4.25 -4.916,-6.5c-0.792,-1.375 -1.584,-2.75 -2.25,-4.209c-0.584,-1.083 -1.125,-2.166 -1.542,-3.25c-8.042,-20.416 4.625,-36.916 28.25,-36.916c1,0 2,0 3.083,0.125c9.375,0.5 18.834,3.458 27.334,8.125c2.166,1.25 4.291,2.541 6.291,4c1.709,1.166 3.292,2.375 4.834,3.708c7.208,5.917 12.833,13.167 15.916,21c8,20.333 -4.666,36.833 -28.333,36.833l-0.042,-0.041Z" style="fill-opacity:0.1;fill-rule:nonzero;"/><path d="M1585,3741.71l16.542,55.459c-36.167,-2.625 -73.25,-19.75 -100.25,-44.5l39.208,-33.584c10.75,12.375 27.875,21.417 44.5,22.667l0,-0.042Z" style="fill-rule:nonzero;"/><path d="M1629.62,3642.92l-39.167,33.5c-8.458,-4.625 -17.958,-7.584 -27.333,-8.125l-16.542,-55.375c28.834,1.75 58.417,12.958 83,29.958l0.042,0.042Z" style="fill-rule:nonzero;"/><path d="M1535.58,3712.54l-48.333,25.416c-2.958,-3.416 -5.583,-6.875 -7.958,-10.416l54.041,-19.167c0.667,1.458 1.459,2.833 2.25,4.208l0,-0.041Z" style="fill-rule:nonzero;"/><path d="M1655.58,3664.92l-54.041,19.166c-1.542,-1.291 -3.084,-2.541 -4.834,-3.708l48.417,-25.417c3.708,3.167 7.208,6.5 10.458,9.917l0,0.042Z" style="fill-rule:nonzero;"/></g></g><g opacity="0.8"><path d="M3310.04,3075.42l3,130.875l13.791,592l45.5,0l13.667,-592l3.042,-130.875l-79,0Z" style="fill:#007cff;fill-rule:nonzero;"/><path d="M3310.04,3075.42l3,130.875l13.791,592l45.5,0l13.667,-592l3.042,-130.875l-79,0Z" style="fill-rule:nonzero;"/><path d="M3310.04,3075.42l3,134.5l72.958,0l3.042,-134.5l-79,0Z" style="fill-rule:nonzero;"/><g><g opacity="0.8"><path d="M3063.08,3796.17l42.042,-711.5l68.667,0l-58.834,711.5l-51.875,0Z" style="fill:#007cff;fill-rule:nonzero;"/><path d="M3115.08,3796.17l-51.916,0l38.125,-647.625l3.791,-64.709l68.667,0l-5.292,64.709l-53.375,647.625Z" style="fill-rule:nonzero;"/><path d="M3173.75,3083.83l-5.292,67.209l-67.166,0l3.791,-67.209l68.667,0Z" style="fill-rule:nonzero;"/></g><g opacity="0.8"><path d="M3584.17,3796.17l-58.834,-711.5l68.667,0l42.042,711.5l-51.875,0Z" style="fill:#007cff;fill-rule:nonzero;"/><path d="M3584.04,3796.17l-53.375,-647.625l-5.292,-64.709l68.667,0l3.791,64.709l38.125,647.625l-51.916,0Z" style="fill-rule:nonzero;"/><path d="M3525.38,3083.83l5.292,67.209l67.166,0l-3.791,-67.209l-68.667,0Z" style="fill-rule:nonzero;"/></g></g><path d="M3630.79,3109.25l-562.5,0l0,-77.417c0,-11.5 9.333,-20.833 20.833,-20.833l520.833,0c11.5,0 20.834,9.333 20.834,20.833l0,77.417Z" style="fill:#007cff;fill-rule:nonzero;"/><g opacity="0.8"><path d="M3041.33,3100.88c0,4.622 3.753,8.375 8.375,8.375l599.667,0c4.622,0 8.375,-3.753 8.375,-8.375l0,-32.375c0,-4.622 -3.753,-8.375 -8.375,-8.375l-599.667,0c-4.622,0 -8.375,3.753 -8.375,8.375l0,32.375Z" style="fill:#007cff;"/><path d="M3041.33,3100.88c0,4.622 3.753,8.375 8.375,8.375l599.667,0c4.622,0 8.375,-3.753 8.375,-8.375l0,-32.375c0,-4.622 -3.753,-8.375 -8.375,-8.375l-599.667,0c-4.622,0 -8.375,3.753 -8.375,8.375l0,32.375Z"/></g></g><g id="c" opacity="0.8"><path d="M3147.71,2213.88c0,0 -2.333,6.375 -6.625,16.875c-4.375,10.917 -10.833,26.292 -18.833,43.625c-19.333,42.125 -47.417,95.5 -76.75,124.333c-8.667,8.5 -17.417,14.875 -26.042,18.167c-31.25,12 -109.708,14.208 -179.708,13.542c-68.917,-0.584 -129.875,-4.209 -129.875,-4.209l0,-53.041l230.208,-61.375c0,0 121.375,-219.042 193.167,-251.5l14.458,153.583Z" style="fill-rule:nonzero;"/><path d="M3141.04,2230.75c-4.375,10.917 -10.834,26.292 -18.834,43.625c-19.333,42.125 -47.416,95.5 -76.75,124.333c-29.833,-109.958 80.542,-214.583 80.542,-214.583l15.042,46.667l0,-0.042Z" style="fill-rule:nonzero;"/><path d="M3111.29,3737.58l-66.959,-9.208l-9.25,-159.167l66.834,9.292l9.375,159.083Z" style="fill:#fcb373;fill-rule:nonzero;"/><path d="M3101.92,3578.5l-66.875,-9.208l5.333,91l66.792,5.875l-5.25,-87.667Z" style="fill-rule:nonzero;"/><path d="M3108.62,2801.92l16.333,-102.334l375.375,-22.458c0,0 39.917,212.958 9.25,269.708c-54.75,101.292 -349.833,50.167 -436.166,60.125c51.625,211.042 46.583,623.5 46.583,623.5l-123.292,9.417c0,0 -94.875,-444.458 -114.041,-655.625c-12.959,-142.5 105.125,-138.958 226,-182.333l-0.042,0Z" style="fill:#007cff;fill-rule:nonzero;"/><path d="M3134.46,3636.25l-148.208,9.75l-12.667,-63.458l162.792,-7.542l-1.917,61.25Z" style="fill:#007cff;fill-rule:nonzero;"/><path d="M2956.83,3678.12l-67.416,4.958l-42.209,-153.708l67.334,-4.875l42.291,153.625Z" style="fill:#fcb373;fill-rule:nonzero;"/><path d="M2880.33,3685.42c0,0 -1.125,-0.125 -1.125,-0.209l-1.208,-0.083l1.208,0c-0.25,-1.042 -3.416,-19.917 -11.625,-24.417c-2.208,-1.125 -4.5,-1.25 -6.75,-0.291c-2.625,0.833 -4.25,3.375 -4.083,6.125c0.292,4.208 4.792,9.5 9.958,13.666c-7.041,-1.5 -15.083,-2.333 -18.916,0.5c-1.625,1.25 -2.459,3.25 -2.292,5.292c-0.25,3.25 1.417,6.333 4.208,7.958c4.25,1.584 8.917,1.5 13.125,-0.208c5.75,-1.75 11.25,-4.125 16.5,-7.083c0.209,0 0.417,0 0.584,-0.084c0.125,-0.125 0.083,-0.333 0.166,-0.5c0.167,-0.208 0.209,-0.458 0.25,-0.708l0,0.042Zm-20.25,-18.834c-0.125,-0.916 0.167,-2.125 2.25,-3l0.709,-0.25c1.208,-0.333 2.541,-0.166 3.625,0.459c4.916,2.625 8.291,12.791 9.875,19c-0.459,-0.167 -0.959,-0.292 -1.5,-0.459c-6.625,-3.666 -14.375,-11.208 -14.959,-15.75Zm-8.833,24.667c-1.708,-1.125 -2.667,-3.042 -2.583,-5.083c-0.125,-1 0.291,-2 1.125,-2.584c3.791,-2.833 16.125,-0.416 25.041,2.292c-11,5.542 -19.625,7.542 -23.541,5.417l-0.042,-0.042Z" style="fill:#007cff;fill-rule:nonzero;"/><path d="M2914.54,3524.5l-67.334,4.958l24.167,87.875l66.542,-8.208l-23.375,-84.625Z" style="fill-rule:nonzero;"/><path d="M2824.38,3606.46l118.667,-34.875c0,0 -70.875,-399.916 -142.709,-538.625c5.375,-1.75 12.542,-4.041 21.334,-6.625c15.875,-4.791 37,-10.75 61.791,-17.666c172.459,-47.834 522.042,-137.5 522.042,-137.5l-159.708,-149.042c0,0 -636.125,97 -649.334,264.583c-6.291,80.625 227.875,619.75 227.875,619.75l0.042,0Z" style="fill:#007cff;fill-rule:nonzero;"/><path d="M2958.38,3574.21l-142.917,40.417l-25.625,-59.417l157.667,-41.333l10.875,60.333Z" style="fill:#007cff;fill-rule:nonzero;"/><path d="M2821.67,3026.33c15.875,-4.791 37,-10.75 61.791,-17.666c-4.958,-40.667 -5.041,-87.334 14.542,-111.125c38.917,-47.417 139.042,-75.209 196,-85.334c47.667,-8.416 207.792,-25.125 207.792,-25.125c0,0 -207.792,-19.916 -420.167,42.042c-105,30.667 -84.542,133.292 -59.917,197.208l-0.041,0Z" style="fill:#007cff;fill-rule:nonzero;"/><g opacity="0.82"><path d="M3521.17,2784.04c25,-19.209 1,-198.25 13.875,-374.375c19.583,-268.084 0,-354.25 -19.792,-362.584c-36.458,-6.333 -73.333,-10 -110.333,-10.916c-54.125,-1.959 -108.334,-0.792 -162.334,3.5c-36.958,4.541 -73.541,12 -109.333,22.25c0,0 -88.458,281.5 -31.958,687.125l419.875,35.041l0,-0.041Z" style="fill-rule:nonzero;"/><path d="M3542.33,2271.67c0,0 -0.083,0 0,0.083c-1.083,39.417 -3.458,85.167 -7.333,137.917c-12.875,176.083 11.167,355.125 -13.875,374.375l-419.833,-35.042c-31.084,-223.25 -18.25,-408.917 -0.417,-530.792c34.125,-53.291 100.375,-114.041 130.792,-140.708c7.041,8.75 19.083,16.208 38.666,20.083c32.709,6.375 70,-8.833 100.959,-27.25c24.375,24.292 70.625,73.459 90.875,114.917c2.166,4.542 4.125,8.917 5.625,13.208c12.875,35.959 52.125,-8.333 72.125,-66.25c2.958,33.875 4.125,79.417 2.458,139.459l-0.042,0Z" style="fill-opacity:0.8;fill-rule:nonzero;"/></g><path d="M3384.96,1854.17c-9.125,52.416 -17.291,148.333 19.959,182.416c0,0 -40.542,50.042 -117.75,53.459c-66.959,2.958 -44.584,-49.917 -44.584,-49.917c57.959,-15.167 55.542,-58.375 44.5,-98.75l97.834,-87.167l0.041,-0.041Z" style="fill:#fcb373;fill-rule:nonzero;"/><path d="M3345.08,1889.71l-57.875,51.625c2.709,9.375 4.584,19 5.625,28.709c22.167,-3.667 52.167,-28.792 54.042,-52.084c1.167,-9.416 0.542,-19 -1.792,-28.208l0,-0.042Z" style="fill-rule:nonzero;"/><g opacity="0.8"><path d="M3257.88,1718.42c29,19.666 15.792,53 -49.792,105.125c-26.625,-34.542 -31.041,-101.584 -9.875,-118.459c21.167,-16.875 34.375,-3.708 59.667,13.292l0,0.042Z" style="fill-rule:nonzero;"/><path d="M3382.5,1772.42c-3.167,70.833 -1.417,112.416 -36.5,149.333c-52.792,55.5 -140.708,24.625 -158.792,-45.75c-16.166,-63.208 -8.375,-168.458 60.375,-197.75c49.042,-21.167 105.959,1.417 127.125,50.417c5.959,13.791 8.625,28.75 7.792,43.708l0,0.042Z" style="fill:#fcb373;fill-rule:nonzero;"/><path d="M3277.17,1793.62c0.083,5.75 -2.917,10.5 -6.667,10.542c-3.75,0.041 -6.833,-4.5 -6.917,-10.25c-0.083,-5.75 2.834,-10.459 6.542,-10.584c3.75,-0.125 6.542,4.667 7.042,10.334l0,-0.042Z" style="fill-rule:nonzero;"/><path d="M3211.71,1794.83c0.084,5.75 -2.916,10.5 -6.666,10.542c-3.75,0.042 -6.917,-4.5 -7.042,-10.333c-0.125,-5.834 2.917,-10.5 6.667,-10.542c3.75,-0.042 6.916,4.583 7.041,10.333Z" style="fill-rule:nonzero;"/><path d="M3233.12,1797.17c-6.583,17.708 -15.542,34.458 -26.708,49.708c10.583,9.333 27.625,4.667 27.625,4.667l-0.959,-54.375l0.042,0Z" style="fill:#ec873e;fill-rule:nonzero;"/><path d="M3294.71,1772.67c0.75,0.083 1.5,-0.084 2.125,-0.5c1.459,-1.125 1.75,-3.25 0.625,-4.75c-6.5,-8.75 -16.875,-13.792 -27.791,-13.5c-1.792,0.083 -3.167,1.625 -3.084,3.416l0,0.25c0.209,1.834 1.834,3.167 3.667,3.084c8.583,-0.125 16.708,3.958 21.833,10.875c0.667,0.75 1.625,1.166 2.625,1.125Z" style="fill-rule:nonzero;"/><path d="M3181.54,1773.25c1.291,0 2.5,-0.792 3.041,-1.958c3.417,-7.917 10.375,-13.709 18.792,-15.625c1.833,-0.292 3.125,-2 2.875,-3.875c-0.292,-1.834 -1.958,-3.084 -3.792,-2.875c-10.666,2.25 -19.625,9.541 -23.958,19.541c-0.792,1.667 -0.083,3.667 1.583,4.459l0.042,0c0.458,0.208 0.917,0.333 1.417,0.375l0,-0.042Z" style="fill-rule:nonzero;"/><path d="M3353.25,1710.21c-32.875,11.917 -28.208,47.5 22.583,114.042c34.292,-26.958 55.042,-90.958 38.542,-112.375c-16.5,-21.417 -32.375,-12 -61.125,-1.667Z" style="fill-rule:nonzero;"/><path d="M3417.17,1828.46c-4.625,17.25 -15.917,31.917 -31.375,40.875c-20.542,11.625 -36.459,-5.416 -35.5,-27.75c0.875,-20.125 12.708,-50.458 35.583,-52.916c22.875,-2.417 36.875,18.666 31.292,39.791Z" style="fill:#fcb373;fill-rule:nonzero;"/><path d="M3287.17,1863.29c0,0 -12.292,23.208 -46.584,22.125" style="fill-rule:nonzero;stroke:#1a2e35;stroke-width:2.21px;stroke-linecap:butt;stroke-linejoin:miter;stroke-miterlimit:4;"/><path d="M3281.38,1698.96c0,0 10.583,70.959 78.875,75.417c68.292,4.5 83,-37.708 83,-37.708c0,0 -10.5,1.583 -16.792,1.416c0,0 19.959,-34.458 0,-67.75c-19.958,-33.291 -88.041,-67.958 -138.583,-50.125c0,0 -48.292,-18.25 -95.625,9.25c-47.375,27.5 -38.958,87.417 -38.958,87.417c0,0 -2.084,-36.375 19.958,-46.542c0,0 -27.333,74.917 13.667,94.875c0,0 4.083,-73.708 94.5,-66.25l-0.042,0Z" style="fill-rule:nonzero;"/></g><path d="M3165.17,2369.38c0,0 -243.875,-5.542 -257.542,-6.917c-13.667,-1.375 -71.5,-33.958 -83.708,-35.333c-12.25,-1.375 -45.209,50.292 -49.292,62.5c-4.083,12.25 92.208,44.833 101.75,43.5c9.5,-1.375 31.375,-11.667 31.375,-11.667l248.833,32l8.625,-84.041l-0.041,-0.042Z" style="fill:#fcb373;fill-rule:nonzero;"/><g><path d="M2457.71,2419.79l0,22.25c0,6.666 11.459,11.375 18.042,11.375l519.417,0c6.666,0 17.291,-4.709 17.291,-11.375l0,-22.25l-554.75,0Z" style="fill-rule:nonzero;"/><path d="M2457.71,2419.79l0,22.25c0,6.666 11.459,11.375 18.042,11.375l519.417,0c6.666,0 17.291,-4.709 17.291,-11.375l0,-22.25l-554.75,0Z" style="fill-rule:nonzero;"/><path d="M2457.71,2419.79l0,22.25c0,6.666 11.459,11.375 18.042,11.375l342.583,0c6.667,0 17.625,-4.709 17.625,-11.375l0,-22.25l-378.25,0Z" style="fill-rule:nonzero;"/><path d="M2374.42,2146.71l61.833,281.417c2,9.25 11,16.875 20.083,16.875l337.75,0c9,0 14.792,-9.583 12.709,-18.833l-61.75,-278.375c-2.084,-9.167 -11,-13.792 -20.084,-13.792l-337.75,0c-9.083,0 -14.791,3.583 -12.75,12.708l-0.041,0Z" style="fill-rule:nonzero;"/><path d="M2374.42,2146.71l61.833,281.417c2,9.25 11,16.875 20.083,16.875l337.75,0c9,0 14.792,-9.583 12.709,-18.833l-61.75,-278.375c-2.084,-9.167 -11,-13.792 -20.084,-13.792l-337.75,0c-9.083,0 -14.791,3.583 -12.75,12.708l-0.041,0Z" style="fill-rule:nonzero;"/><path d="M2374.42,2146.71l61.833,281.417c2,9.25 11,16.875 20.083,16.875l326.292,0c9.083,0 14.792,-9.583 12.75,-18.833l-61.833,-278.375c-2,-9.167 -11,-13.792 -20.084,-13.792l-326.291,0c-9.084,0 -14.792,3.583 -12.75,12.708Z" style="fill-rule:nonzero;"/><path d="M2573.12,2327.08c-15.708,0 -31.875,-16.875 -35.958,-37.666c-4.042,-20.834 5.375,-37.75 21.166,-37.75c2.959,0 5.875,0.583 8.75,1.666c3.709,16.209 14.709,29.834 26.834,34.375c0.166,0.584 0.333,1.084 0.416,1.667c4.125,20.75 -5.375,37.667 -21.166,37.667l-0.042,0.041Z" style="fill-rule:nonzero;"/></g><path d="M3542.33,2271.67c0,0 -0.083,0 0,0.083c-36.208,58.75 -86.916,121.458 -137.416,118.5c-52.875,-3.125 0.416,-111.042 57.25,-205c2.166,4.542 4.125,8.917 5.625,13.208c12.875,35.959 52.125,-8.333 72.125,-66.25c2.958,33.875 4.125,79.417 2.458,139.459l-0.042,0Z" style="fill-rule:nonzero;"/><path d="M3515.25,2047.08c124.625,44.917 -94.167,382.5 -162.083,417.292c-67.959,34.792 -246.709,-5.333 -246.709,-5.333l11.084,-104.292c0,-0 141.5,9.542 169.666,2.417c28.167,-7.125 95.042,-151 133.5,-218.959c38.459,-67.958 94.584,-91.125 94.584,-91.125l-0.042,-0Z" style="fill-rule:nonzero;"/><path d="M3134.46,3636.25l-148.208,9.75l-12.667,-63.458l162.792,-7.542l-1.917,61.25Z" style="fill-rule:nonzero;"/><path d="M2958.38,3574.21l-142.917,40.417l-25.625,-59.417l157.667,-41.333l10.875,60.333Z" style="fill-rule:nonzero;"/><path d="M2882.83,3676.25l73,-20.375c2.5,-0.833 5.209,0.542 6.042,3.042l0,0.083l19.708,56.833c1.75,6.292 -1.875,12.834 -8.166,14.667c-25.584,6.708 -38.125,8.625 -70.334,17.333c-19.75,5.459 -58.208,18.084 -86.375,21.292c-28.166,3.208 -30.541,-24.708 -18.916,-28.542c27.541,-9.208 60.541,-37.958 74.875,-57.458c2.541,-3.333 6.083,-5.75 10.166,-6.875Z" style="fill-rule:nonzero;"/><path d="M3037.67,3728.5l0,-0.083c0,-1.167 -1.125,-20.25 -8.167,-26.334c-1.917,-1.583 -5.083,-2.208 -7.5,-1.75c-2.75,0.25 -5.333,2.375 -5.75,5.125c-0.583,4.167 2.5,10.25 6.667,15.417c-6.584,-2.958 -14.375,-5.417 -18.709,-3.458c-1.833,0.875 -3.166,2.666 -3.375,4.708c-0.916,3.125 0,6.5 2.459,8.625c3.833,2.417 8.416,3.333 12.833,2.542c5.958,-0.5 11.875,-1.709 17.583,-3.5c0.167,0.083 0.375,0.125 0.584,0.041c0.166,-0.125 0.166,-0.333 0.291,-0.458c0.209,-0.167 1.625,-0.375 1.709,-0.625c0,-0.083 1.416,-0.083 1.416,-0.167l0,-0.083l-0.041,0Zm-18.584,-22.375c0.084,-0.917 0.584,-2.042 2.834,-2.458l0.75,-0.084c1.25,-0.083 2.5,0.334 3.458,1.209c4.25,3.583 5.458,14.25 5.708,20.666c-0.416,-0.25 -0.875,-0.5 -1.375,-0.791c-5.75,-4.959 -11.75,-13.959 -11.333,-18.542l-0.042,0Zm-13.791,22.292c-1.417,-1.459 -2,-3.542 -1.459,-5.542c0.084,-1 0.709,-1.875 1.625,-2.292c4.292,-2 15.875,2.959 24,7.417c-11.916,3.125 -20.791,3.292 -24.166,0.417Z" style="fill:#007cff;fill-rule:nonzero;"/><path d="M3039.29,3720.33l75.666,-4.708c2.625,-0.292 5,1.625 5.292,4.25l0,0.083l7.417,59.667c0.416,6.542 -4.5,12.167 -11.042,12.667c-26.417,1.208 -39.083,0.5 -72.417,2.291c-20.416,1.209 -60.708,5.584 -88.916,2.834c-28.209,-2.75 -24.75,-30.542 -12.584,-31.875c28.875,-3.292 67.125,-24.5 85.167,-40.584c3.167,-2.75 7.167,-4.375 11.375,-4.625l0.042,0Z" style="fill-rule:nonzero;"/></g><g opacity="0.8"><g opacity="0.8"><path d="M2702.38,3798.29l51.5,0l8.375,-1288.12l-68.292,0l8.417,1288.12Z" style="fill:#007cff;fill-rule:nonzero;"/><path d="M2693.92,2512.25l1.333,207.833l7.083,1078.21l51.5,0l7.084,-1078.21l1.333,-207.833l-68.333,0Z" style="fill-rule:nonzero;"/><path d="M2693.92,2512.25l1.333,210.125l65.667,0l1.333,-210.125l-68.333,0Z" style="fill-rule:nonzero;"/></g><g opacity="0.8"><path d="M2155.67,3798.29l51.5,0l92.5,-1288.12l-68.292,0l-75.708,1288.12Z" style="fill:#007cff;fill-rule:nonzero;"/><path d="M2155.62,3798.29l51.542,0l88,-1224.12l4.541,-61.917l-68.333,0l-3.708,61.917l-72.042,1224.12Z" style="fill-rule:nonzero;"/><path d="M2227.67,2571.08l67.5,0l4.541,-58.833l-68.333,0l-3.708,58.833Z" style="fill-rule:nonzero;"/></g><g opacity="0.8"><path d="M3249.04,3798.29l51.5,0l-75.667,-1288.12l-68.333,0l92.5,1288.12Z" style="fill:#007cff;fill-rule:nonzero;"/><path d="M3156.54,2512.25l4.541,61.917l88,1224.12l51.459,-0l-71.959,-1224.12l-3.708,-61.917l-68.333,-0Z" style="fill-rule:nonzero;"/><path d="M3224.88,2512.25l-68.333,0l4.541,58.833l67.5,0l-3.708,-58.833Z" style="fill-rule:nonzero;"/></g><g opacity="0.8"><path d="M3270,2542.42l-1083.79,0c-4.958,0 -9,-4.042 -9,-9l0,-55.5l1101.79,0l0,55.5c0,4.958 -4.042,9 -9,9Z" style="fill:#007cff;fill-rule:nonzero;"/><path d="M3270,2542.42l-1083.79,0c-4.958,0 -9,-4.042 -9,-9l0,-55.5l1101.79,0l0,55.5c0,4.958 -4.042,9 -9,9Z" style="fill-rule:nonzero;"/></g><rect x="2177.21" y="2477.92" width="1101.79" height="32.25"/><g opacity="0.8"><path d="M2145.29,2486.33l1165.62,0c10.041,0 18.166,-8.125 18.166,-18.166c0,-10.042 -8.125,-18.167 -18.166,-18.167l-1165.62,0c-10.042,0 -18.167,8.125 -18.167,18.167c0,10.041 8.125,18.166 18.167,18.166Z" style="fill:#007cff;fill-rule:nonzero;"/><path d="M2145.29,2486.33l1165.62,0c10.041,0 18.166,-8.125 18.166,-18.166c0,-10.042 -8.125,-18.167 -18.166,-18.167l-1165.62,0c-10.042,0 -18.167,8.125 -18.167,18.167c0,10.041 8.125,18.166 18.167,18.166Z" style="fill-rule:nonzero;"/></g></g><g opacity="0.8"><path d="M2093.29,1993.58l0,-113.375c0,-48.416 -39.25,-87.666 -87.667,-87.666l-208.667,-0c-48.416,-0 -87.666,-39.25 -87.666,-87.667l0,-87.583" style="fill:none;fill-rule:nonzero;stroke:#000;stroke-width:12.5px;stroke-linecap:butt;stroke-miterlimit:2;"/><g><path d="M2173.12,1995.83l-136.875,-0c-27.75,-0 -50.25,22.5 -50.25,50.25l0,136.875c0,27.75 22.5,50.25 50.25,50.25l136.875,0c27.75,0 50.25,-22.5 50.25,-50.25l0,-136.875c0,-27.75 -22.5,-50.25 -50.25,-50.25Z" style="fill:#007cff;fill-rule:nonzero;"/><g opacity="0.8"><path d="M2173.12,1995.83l-136.875,-0c-27.75,-0 -50.25,22.5 -50.25,50.25l0,136.875c0,27.75 22.5,50.25 50.25,50.25l136.875,0c27.75,0 50.25,-22.5 50.25,-50.25l0,-136.875c0,-27.75 -22.5,-50.25 -50.25,-50.25Z" style="fill:#007cff;fill-rule:nonzero;"/></g><path d="M2103.88,2018.25c-52.042,0 -94.417,42.333 -94.417,94.417c0,52.083 42.334,94.416 94.417,94.416c52.083,0 94.417,-42.333 94.417,-94.416c0,-52.084 -42.375,-94.417 -94.417,-94.417Zm-15,10.667c-8.667,8.375 -16.167,19 -22.042,31.25l-29.875,0c13,-16.584 31.375,-27.625 51.917,-31.25Zm-58.333,40.583l32.333,0c-4.75,12.375 -7.667,25.542 -8.333,37.75l-0.209,2.25l-35.5,0c0.542,-14.125 4.542,-27.875 11.709,-40Zm1.916,89.292c-7.791,-12 -12.375,-25.709 -13.416,-39.959l35.708,0c1.167,13.209 4.833,27.167 10.458,39.959l-32.791,0l0.041,0Zm6.959,9.333l30.375,0c6.25,11.458 14,21.292 22.791,28.833c-20.625,-2.75 -39.458,-12.916 -53.166,-28.833Zm59.833,22.208c-7,-5.875 -13.375,-13.458 -18.708,-22.208l18.708,0l-0,22.208Zm-0,-31.541l-23.75,0c-6.083,-12.625 -10.083,-26.667 -11.333,-39.959l35.083,0l-0,39.959Zm-0,-49.292l-35.458,0c0.458,-12.875 3.666,-26.958 9.125,-40l26.333,0l-0,40Zm-0,-49.333l-21.958,0c5.958,-11.292 13.416,-20.834 21.958,-27.959l-0,27.959Zm89.667,49.333l-35.5,0l-0.084,-2.208l-0.125,0c-0.666,-12.209 -3.583,-25.417 -8.333,-37.792l32.292,0c7.166,12.167 11.208,25.875 11.708,40l0.042,0Zm-18.084,-49.333l-29.875,0c-5.875,-12.292 -13.375,-22.917 -22.041,-31.292c20.541,3.667 38.958,14.708 51.916,31.292Zm-62.25,-27.959c8.542,7.167 16,16.667 21.959,27.959l-21.959,0l-0,-27.959Zm-0.041,37.292l26.375,0c5.416,12.958 8.625,26.958 9.083,40l-35.458,0l-0,-40Zm0.041,49.333l35.084,0c-1.25,13.334 -5.25,27.334 -11.334,39.959l-23.75,0l-0,-39.959Zm-0,71.542l-0,-22.25l18.709,0c-5.334,8.792 -11.709,16.333 -18.709,22.25Zm6.667,6.583c8.792,-7.541 16.583,-17.375 22.792,-28.833l30.333,0c-13.708,15.917 -32.5,26.083 -53.125,28.833Zm60.125,-38.166l-32.792,0c5.625,-12.792 9.292,-26.792 10.459,-39.959l35.708,0c-1.042,14.25 -5.625,28 -13.417,39.959l0.042,0Z" style="fill-rule:nonzero;"/></g></g><g opacity="0.8"><path d="M1934.08,1617.25l497.959,0c48.416,0 87.666,39.25 87.666,87.667l0,113.375" style="fill:none;fill-rule:nonzero;stroke:#000;stroke-width:12.5px;stroke-linecap:butt;stroke-miterlimit:2;"/><g><path d="M2559.12,1736.08l-136.875,0c-27.75,0 -50.25,22.5 -50.25,50.25l0,136.875c0,27.75 22.5,50.25 50.25,50.25l136.875,0c27.75,0 50.25,-22.5 50.25,-50.25l0,-136.875c0,-27.75 -22.5,-50.25 -50.25,-50.25Z" style="fill:#007cff;fill-rule:nonzero;"/><g opacity="0.8"><path d="M2559.12,1736.08l-136.875,0c-27.75,0 -50.25,22.5 -50.25,50.25l0,136.875c0,27.75 22.5,50.25 50.25,50.25l136.875,0c27.75,0 50.25,-22.5 50.25,-50.25l0,-136.875c0,-27.75 -22.5,-50.25 -50.25,-50.25Z" style="fill:#007cff;fill-rule:nonzero;"/></g><path d="M2506.46,1789.29c-22.5,-22.5 -59.125,-22.5 -81.625,0c-22.5,22.5 -22.5,59.125 0,81.625c19.959,19.958 51,22.166 73.5,6.708c0.417,2.583 1.584,5.042 3.584,7.042l35.833,35.833c5.042,5.042 13.25,5.042 18.292,0c5.041,-5.042 5.041,-13.25 0,-18.292l-35.834,-35.833c-2,-2 -4.458,-3.167 -7.041,-3.583c15.458,-22.459 13.25,-53.542 -6.709,-73.5Zm-12.208,69.416c-15.792,15.792 -41.458,15.792 -57.208,0c-15.792,-15.791 -15.792,-41.458 0,-57.25c15.791,-15.791 41.458,-15.791 57.25,0c15.791,15.792 15.791,41.459 0,57.209l-0.042,0.041Z" style="fill-opacity:0.9;fill-rule:nonzero;"/></g></g><g opacity="0.8"><g><path d="M2660.5,1250.62l-136.875,-0c-27.75,-0 -50.25,22.5 -50.25,50.25l0,136.875c0,27.75 22.5,50.25 50.25,50.25l136.875,-0c27.75,-0 50.25,-22.5 50.25,-50.25l0,-136.875c0,-27.75 -22.5,-50.25 -50.25,-50.25Z" style="fill:#007cff;fill-rule:nonzero;"/><g opacity="0.8"><path d="M2660.5,1250.62l-136.875,-0c-27.75,-0 -50.25,22.5 -50.25,50.25l0,136.875c0,27.75 22.5,50.25 50.25,50.25l136.875,-0c27.75,-0 50.25,-22.5 50.25,-50.25l0,-136.875c0,-27.75 -22.5,-50.25 -50.25,-50.25Z" style="fill:#007cff;fill-rule:nonzero;"/></g><g><g><path d="M2558.75,1437.25c0,9.875 -8,17.875 -17.875,17.875c-9.875,0 -17.875,-8 -17.875,-17.875c0,-9.875 8,-17.875 17.875,-17.875c9.875,0 17.875,8 17.875,17.875Z" style="fill:#001933;fill-rule:nonzero;"/><path d="M2628.46,1437.25c0,9.875 -8,17.875 -17.875,17.875c-9.875,0 -17.875,-8 -17.875,-17.875c0,-9.875 8,-17.875 17.875,-17.875c9.875,0 17.875,8 17.875,17.875Z" style="fill:#001933;fill-rule:nonzero;"/></g><g><path d="M2643.74,1329.17l7.469,-26.069c2.18,-7.576 9.102,-12.806 17.004,-12.806l16.417,0l-0,8.333l-16.417,0c-4.181,0 -7.842,2.769 -8.994,6.773l-6.811,23.769l0.084,0l-24.352,80.583l-109.895,0l-24.352,-80.583l149.847,0Zm-138.623,8.333l19.315,63.917l97.521,0l19.315,-63.917l-136.151,0Z"/></g></g></g></g><g opacity="0.8"><path d="M1902.79,1285.5l207.791,0c48.417,0 87.667,-39.25 87.667,-87.667l0,-113.375" style="fill:none;fill-rule:nonzero;stroke:#000;stroke-width:12.5px;stroke-linecap:butt;stroke-miterlimit:2;"/><g><path d="M2097.42,903.5l201.75,0c10.125,0 18.333,8.208 18.333,18.333l0,201.75c0,10.125 -8.208,18.334 -18.333,18.334l-201.75,0c-10.125,0 -18.334,-8.209 -18.334,-18.334l0,-201.75c0,-10.125 8.209,-18.333 18.334,-18.333Z" style="fill:#007cff;fill-rule:nonzero;"/><g opacity="0.8"><path d="M2097.42,903.5l201.75,0c10.125,0 18.333,8.208 18.333,18.333l0,201.75c0,10.125 -8.208,18.334 -18.333,18.334l-201.75,0c-10.125,0 -18.334,-8.209 -18.334,-18.334l0,-201.75c0,-10.125 8.209,-18.333 18.334,-18.333Z" style="fill:#007cff;fill-rule:nonzero;"/></g><path d="M2288.58,1047.58c0,2.542 -0.208,11.5 -0.541,14.042l-81.459,0l0,-38.833l11.084,0l-23.042,-23.042l-23.042,23.042l11.084,0l0,38.833l-76.5,0c-0.209,-1.25 -0.209,-9.083 -0.209,-10.458c0,-21.25 16.292,-38.792 37,-40.667l0,-1.583c0,-26.417 21.459,-47.959 47.959,-47.959c21.458,0 39.541,14.042 45.666,33.5c2.959,0.125 5.792,0.334 8.542,0.834c24.75,4.541 43.417,26.208 43.417,52.291l0.041,0Z" style="fill-rule:nonzero;"/></g></g><g opacity="0.8"><path d="M1625.71,1237.17l0,-217.167" style="fill:none;fill-rule:nonzero;"/><g><path d="M1694.12,812.917l-136.875,0c-27.75,0 -50.25,22.5 -50.25,50.25l-0,136.875c-0,27.75 22.5,50.25 50.25,50.25l136.875,0c27.75,0 50.25,-22.5 50.25,-50.25l-0,-136.875c-0,-27.75 -22.5,-50.25 -50.25,-50.25Z" style="fill:#007cff;fill-rule:nonzero;"/><g opacity="0.8"><path d="M1694.12,812.917l-136.875,0c-27.75,0 -50.25,22.5 -50.25,50.25l-0,136.875c-0,27.75 22.5,50.25 50.25,50.25l136.875,0c27.75,0 50.25,-22.5 50.25,-50.25l-0,-136.875c-0,-27.75 -22.5,-50.25 -50.25,-50.25Z" style="fill:#007cff;fill-rule:nonzero;"/></g><g opacity="0.8"><path d="M1647.62,947.167c0.208,-1.542 0.333,-3.084 0.417,-4.625l9.666,-3.834c-0.125,-4.416 -0.708,-8.75 -1.708,-12.958l-10.333,-1.208c-0.917,-2.959 -2.125,-5.834 -3.542,-8.584l6.458,-8.125c-2.291,-3.708 -4.958,-7.208 -7.958,-10.375l-9.542,4.125c-2.25,-2.083 -4.708,-4 -7.375,-5.666l1.542,-10.292c-3.792,-2.083 -7.833,-3.75 -12.042,-5l-6.208,8.375c-1.5,-0.333 -3,-0.625 -4.583,-0.833c-1.584,-0.209 -3.084,-0.334 -4.625,-0.375l-3.834,-9.667c-4.416,0.125 -8.75,0.708 -12.958,1.708l-1.208,10.334c-2.959,0.916 -5.834,2.125 -8.584,3.541l-8.125,-6.458c-3.708,2.292 -7.208,4.958 -10.375,7.958l4.125,9.542c-2.083,2.25 -4,4.708 -5.666,7.375l-10.292,-1.542c-2.042,3.792 -3.75,7.834 -5,12.042l8.333,6.208c-0.333,1.5 -0.625,3 -0.833,4.584c-0.208,1.541 -0.333,3.083 -0.417,4.625l-9.666,3.833c0.125,4.417 0.708,8.75 1.708,12.958l10.333,1.209c0.917,2.958 2.125,5.833 3.542,8.583l-6.458,8.125c2.291,3.708 4.958,7.208 7.958,10.375l9.542,-4.125c2.25,2.083 4.708,4 7.375,5.667l-1.542,10.291c3.792,2.084 7.833,3.75 12.042,5l6.208,-8.333c1.5,0.333 3,0.625 4.583,0.833c1.542,0.209 3.084,0.334 4.625,0.375l3.834,9.667c4.416,-0.125 8.75,-0.708 12.958,-1.708l1.208,-10.334c2.959,-0.916 5.834,-2.125 8.584,-3.541l8.125,6.458c3.708,-2.292 7.208,-4.958 10.375,-7.958l-4.125,-9.542c2.083,-2.25 4,-4.708 5.666,-7.375l10.292,1.542c2.042,-3.792 3.75,-7.834 5,-12.042l-8.333,-6.208c0.333,-1.5 0.625,-3 0.833,-4.584l-0,-0.041Zm-54.792,13.625c-11.333,-1.5 -19.291,-11.917 -17.791,-23.25c1.5,-11.334 11.916,-19.292 23.25,-17.792c11.333,1.5 19.291,11.917 17.791,23.25c-1.5,11.333 -11.916,19.292 -23.25,17.792Z" style="fill:#007cff;fill-rule:nonzero;"/><path d="M1647.62,947.167c0.208,-1.542 0.333,-3.084 0.417,-4.625l9.666,-3.834c-0.125,-4.416 -0.708,-8.75 -1.708,-12.958l-10.333,-1.208c-0.917,-2.959 -2.125,-5.834 -3.542,-8.584l6.458,-8.125c-2.291,-3.708 -4.958,-7.208 -7.958,-10.375l-9.542,4.125c-2.25,-2.083 -4.708,-4 -7.375,-5.666l1.542,-10.292c-3.792,-2.083 -7.833,-3.75 -12.042,-5l-6.208,8.375c-1.5,-0.333 -3,-0.625 -4.583,-0.833c-1.584,-0.209 -3.084,-0.334 -4.625,-0.375l-3.834,-9.667c-4.416,0.125 -8.75,0.708 -12.958,1.708l-1.208,10.334c-2.959,0.916 -5.834,2.125 -8.584,3.541l-8.125,-6.458c-3.708,2.292 -7.208,4.958 -10.375,7.958l4.125,9.542c-2.083,2.25 -4,4.708 -5.666,7.375l-10.292,-1.542c-2.042,3.792 -3.75,7.834 -5,12.042l8.333,6.208c-0.333,1.5 -0.625,3 -0.833,4.584c-0.208,1.541 -0.333,3.083 -0.417,4.625l-9.666,3.833c0.125,4.417 0.708,8.75 1.708,12.958l10.333,1.209c0.917,2.958 2.125,5.833 3.542,8.583l-6.458,8.125c2.291,3.708 4.958,7.208 7.958,10.375l9.542,-4.125c2.25,2.083 4.708,4 7.375,5.667l-1.542,10.291c3.792,2.084 7.833,3.75 12.042,5l6.208,-8.333c1.5,0.333 3,0.625 4.583,0.833c1.542,0.209 3.084,0.334 4.625,0.375l3.834,9.667c4.416,-0.125 8.75,-0.708 12.958,-1.708l1.208,-10.334c2.959,-0.916 5.834,-2.125 8.584,-3.541l8.125,6.458c3.708,-2.292 7.208,-4.958 10.375,-7.958l-4.125,-9.542c2.083,-2.25 4,-4.708 5.666,-7.375l10.292,1.542c2.042,-3.792 3.75,-7.834 5,-12.042l-8.333,-6.208c0.333,-1.5 0.625,-3 0.833,-4.584l-0,-0.041Zm-54.792,13.625c-11.333,-1.5 -19.291,-11.917 -17.791,-23.25c1.5,-11.334 11.916,-19.292 23.25,-17.792c11.333,1.5 19.291,11.917 17.791,23.25c-1.5,11.333 -11.916,19.292 -23.25,17.792Z" style="fill-rule:nonzero;"/></g><g opacity="0.8"><path d="M1690.96,915c-4.458,0 -8.625,-1.042 -12.333,-3c-8.75,-4.458 -14.708,-13.5 -14.708,-24c0,-10.5 5.958,-19.542 14.708,-23.958l0,17.041c0,3.375 1.375,6.5 3.625,8.75c2.25,2.209 5.292,3.584 8.708,3.584c6.792,0 12.334,-5.5 12.334,-12.334l0,-17.041c8.75,4.458 14.708,13.5 14.708,23.958c0,10.458 -5.958,19.583 -14.708,24c-3.667,1.958 -7.875,3 -12.334,3Z" style="fill-rule:nonzero;"/><path d="M1678.67,982.25l0,-74.792c0,-6.791 5.5,-12.291 12.291,-12.291c6.792,0 12.292,5.5 12.292,12.291l0,74.792c0,6.792 -5.5,12.292 -12.292,12.292c-6.791,0 -12.291,-5.5 -12.291,-12.292Z" style="fill-rule:nonzero;"/></g></g></g><g opacity="0.8"><path d="M1162.17,1993.58l0,-113.375c0,-48.416 39.25,-87.666 87.666,-87.666l208.667,-0c48.417,-0 87.667,-39.25 87.667,-87.667l0,-87.583" style="fill:none;fill-rule:nonzero;stroke:#000;stroke-width:12.5px;stroke-linecap:butt;stroke-miterlimit:2;"/><g><path d="M1225.38,1980.33l-136.875,-0c-27.75,-0 -50.25,22.5 -50.25,50.25l0,136.875c0,27.75 22.5,50.25 50.25,50.25l136.875,0c27.75,0 50.25,-22.5 50.25,-50.25l0,-136.875c0,-27.75 -22.5,-50.25 -50.25,-50.25Z" style="fill:#007cff;fill-rule:nonzero;"/><g opacity="0.8"><path d="M1225.38,1980.33l-136.875,-0c-27.75,-0 -50.25,22.5 -50.25,50.25l0,136.875c0,27.75 22.5,50.25 50.25,50.25l136.875,0c27.75,0 50.25,-22.5 50.25,-50.25l0,-136.875c0,-27.75 -22.5,-50.25 -50.25,-50.25Z" style="fill:#007cff;fill-rule:nonzero;"/></g><g opacity="0.8"><g opacity="0.8"><path d="M1242.08,2155.88c0,8.458 -6.875,15.333 -15.333,15.333c-8.458,0 -15.333,-6.875 -15.333,-15.333c0,-8.458 6.875,-15.333 15.333,-15.333c8.458,0 15.333,6.875 15.333,15.333Z" style="fill-rule:nonzero;"/><path d="M1174.25,2155.88c0,8.458 -6.875,15.333 -15.333,15.333c-8.459,0 -15.334,-6.875 -15.334,-15.333c0,-8.458 6.875,-15.333 15.334,-15.333c8.458,0 15.333,6.875 15.333,15.333Z" style="fill-rule:nonzero;"/><path d="M1106.42,2155.88c0,8.458 -6.875,15.333 -15.334,15.333c-8.458,0 -15.333,-6.875 -15.333,-15.333c0,-8.458 6.875,-15.333 15.333,-15.333c8.459,0 15.334,6.875 15.334,15.333Z" style="fill-rule:nonzero;"/></g><path d="M1255.25,2139.83c0,-5.45 -4.425,-9.875 -9.875,-9.875l-173.75,0c-5.45,0 -9.875,4.425 -9.875,9.875l0,32.042c0,5.45 4.425,9.875 9.875,9.875l173.75,0c5.45,0 9.875,-4.425 9.875,-9.875l0,-32.042Z" style="stroke:#fff;stroke-width:3.75px;stroke-linecap:butt;stroke-linejoin:miter;stroke-miterlimit:4;"/><path d="M1228.83,2134.38c-5.25,0 -9.5,-4.25 -9.5,-9.5l0,-30.125l-60.708,-62.917l-34.458,11.334c-5,1.625 -10.375,-1.084 -12,-6.084c-1.625,-5 1.083,-10.375 6.083,-12l40.125,-13.208c3.458,-1.125 7.292,-0.208 9.833,2.417l67.5,69.958c1.709,1.792 2.667,4.125 2.667,6.625l0,33.958c0,5.25 -4.25,9.5 -9.5,9.5l-0.042,0.042Z" style="fill-rule:nonzero;"/><g opacity="0.8"><path d="M1118.54,2034.17l0,23.666" style="fill:none;fill-rule:nonzero;stroke:#fff;stroke-width:3.75px;stroke-linecap:butt;stroke-linejoin:miter;stroke-miterlimit:4;"/><path d="M1111.12,2075.79c-1.917,-1.917 -3.083,-4.542 -3.083,-7.417c-0,-5.792 4.708,-10.5 10.5,-10.5c5.791,0 10.5,4.708 10.5,10.5c-0,2.75 -1.042,5.25 -2.75,7.125" style="fill-rule:nonzero;stroke:#fff;stroke-width:3.75px;stroke-linecap:butt;stroke-linejoin:miter;stroke-miterlimit:4;"/></g></g><path d="M1164.88,2021.46c0,2.084 -1.708,3.792 -3.792,3.792c-2.083,0 -3.791,-1.708 -3.791,-3.792c0,-2.083 1.708,-3.791 3.791,-3.791c2.084,0 3.792,1.708 3.792,3.791Z" style="fill:#007cff;fill-rule:nonzero;"/><path d="M1231.96,2091.38c0,2.083 -1.708,3.792 -3.791,3.792c-2.084,0 -3.792,-1.709 -3.792,-3.792c0,-2.083 1.708,-3.792 3.792,-3.792c2.083,0 3.791,1.709 3.791,3.792Z" style="fill:#007cff;fill-rule:nonzero;"/><rect x="1104.12" y="2091.08" width="28.833" height="28.833"/></g></g><g opacity="0.8"><path d="M1354.58,1617.25l-497.958,0c-48.417,0 -87.667,39.25 -87.667,87.667l0,113.375" style="fill:none;fill-rule:nonzero;stroke:#000;stroke-width:12.5px;stroke-linecap:butt;stroke-miterlimit:2;"/><path d="M704.667,1734.54l136.875,0c27.75,0 50.25,22.5 50.25,50.25l0,136.875c0,27.75 -22.5,50.25 -50.25,50.25l-136.875,0c-27.75,0 -50.25,-22.5 -50.25,-50.25l0,-136.875c0,-27.75 22.5,-50.25 50.25,-50.25Z" style="fill:#007cff;fill-rule:nonzero;"/><path d="M704.667,1734.54l136.875,0c27.75,0 50.25,22.5 50.25,50.25l0,136.875c0,27.75 -22.5,50.25 -50.25,50.25l-136.875,0c-27.75,0 -50.25,-22.5 -50.25,-50.25l0,-136.875c0,-27.75 22.5,-50.25 50.25,-50.25Z" style="fill:#007cff;fill-rule:nonzero;"/><g opacity="0.8"><rect x="694.708" y="1874.83" width="29.5" height="56.75"/><rect x="778.375" y="1855.71" width="29.5" height="75.875"/><rect x="735.042" y="1836.58" width="29.5" height="94.958"/><rect x="820.292" y="1817.46" width="29.5" height="114.083"/></g></g><g opacity="0.8"><path d="M1254.29,1285.5l-207.792,0c-48.417,0 -87.667,-39.25 -87.667,-87.667l0,-113.375" style="fill:none;fill-rule:nonzero;stroke:#000;stroke-width:12.5px;stroke-linecap:butt;stroke-miterlimit:2;"/><g><path d="M910.292,892.583l136.875,0c27.75,0 50.25,22.5 50.25,50.25l0,136.875c0,27.75 -22.5,50.25 -50.25,50.25l-136.875,0c-27.75,0 -50.25,-22.5 -50.25,-50.25l0,-136.875c0,-27.75 22.5,-50.25 50.25,-50.25Z" style="fill:#007cff;fill-rule:nonzero;"/><path d="M910.292,892.583l136.875,0c27.75,0 50.25,22.5 50.25,50.25l0,136.875c0,27.75 -22.5,50.25 -50.25,50.25l-136.875,0c-27.75,0 -50.25,-22.5 -50.25,-50.25l0,-136.875c0,-27.75 22.5,-50.25 50.25,-50.25Z" style="fill:#007cff;fill-rule:nonzero;"/><path d="M978.75,941.167c20.667,0 31.75,16.75 31.75,37.416c0,20.667 -11.125,37.417 -31.75,37.417c-20.625,0 -31.75,-16.75 -31.75,-37.417c0,-20.666 11.125,-37.416 31.75,-37.416Z" style="fill-rule:nonzero;"/><path d="M1061.38,1081.38l-165.25,0c-1.375,0 -2.625,-0.542 -3.542,-1.458l10.584,-28.917c6.833,-18.625 24.541,-31 44.375,-31l62.416,0c19.834,0 37.542,12.375 44.375,31l10.584,28.917c-0.917,0.916 -2.167,1.458 -3.542,1.458Z" style="fill-rule:nonzero;"/></g></g><g opacity="0.8"><path d="M757,1437.25l637.458,0" style="fill:none;fill-rule:nonzero;"/><g><path d="M777.375,1248l-136.875,0c-27.75,0 -50.25,22.5 -50.25,50.25l0,136.875c0,27.75 22.5,50.25 50.25,50.25l136.875,0c27.75,0 50.25,-22.5 50.25,-50.25l0,-136.875c0,-27.75 -22.5,-50.25 -50.25,-50.25Z" style="fill:#007cff;fill-rule:nonzero;"/><g opacity="0.8"><path d="M777.375,1248l-136.875,0c-27.75,0 -50.25,22.5 -50.25,50.25l0,136.875c0,27.75 22.5,50.25 50.25,50.25l136.875,0c27.75,0 50.25,-22.5 50.25,-50.25l0,-136.875c0,-27.75 -22.5,-50.25 -50.25,-50.25Z" style="fill:#007cff;fill-rule:nonzero;"/></g><g opacity="0.8"><g opacity="0.8"><path d="M714.167,1279.17l0,22c14.166,1.125 27.083,6.75 37.291,15.458l15.542,-15.542c-14.25,-12.625 -32.625,-20.708 -52.875,-21.916l0.042,0Z" style="fill:#007cff;fill-rule:nonzero;"/><path d="M714.167,1279.17l0,22c14.166,1.125 27.083,6.75 37.291,15.458l15.542,-15.542c-14.25,-12.625 -32.625,-20.708 -52.875,-21.916l0.042,0Z" style="fill-rule:nonzero;"/></g><g opacity="0.8"><path d="M703.542,1432.29c-32.125,-2.584 -57.709,-28.167 -60.25,-60.25l-22,0c2.625,44.208 38.041,79.625 82.25,82.25l0,-22Z" style="fill:#007cff;fill-rule:nonzero;"/><path d="M703.542,1432.29c-32.125,-2.584 -57.709,-28.167 -60.25,-60.25l-22,0c2.625,44.208 38.041,79.625 82.25,82.25l0,-22Z" style="fill-opacity:0.8;fill-rule:nonzero;"/></g><g opacity="0.8"><path d="M643.292,1361.42c2.583,-32.125 28.166,-57.709 60.291,-60.25l0,-22c-44.208,2.625 -79.625,38.041 -82.25,82.25l22,0l-0.041,0Z" style="fill:#007cff;fill-rule:nonzero;"/><path d="M643.292,1361.42c2.583,-32.125 28.166,-57.709 60.291,-60.25l0,-22c-44.208,2.625 -79.625,38.041 -82.25,82.25l22,0l-0.041,0Z" style="fill-rule:nonzero;"/></g><path d="M774.542,1308.54l-15.542,15.541c9.792,11.5 15.667,26.375 15.667,42.625c0,34.542 -26.625,62.875 -60.5,65.584l0,22c46,-2.75 82.416,-40.875 82.416,-87.584c0,-22.333 -8.333,-42.666 -22.083,-58.166l0.042,0Z" style="fill-rule:nonzero;"/></g></g><path d="M854.528,1380.18l541.506,-13.114" style="fill:none;stroke:#000;stroke-width:12.5px;"/></g></svg>