<?xml version="1.0" encoding="UTF-8" standalone="no"?><!DOCTYPE svg PUBLIC "-//W3C//DTD SVG 1.1//EN" "http://www.w3.org/Graphics/SVG/1.1/DTD/svg11.dtd"><svg width="100%" height="100%" viewBox="0 0 855 761" version="1.1" xmlns="http://www.w3.org/2000/svg" xmlns:xlink="http://www.w3.org/1999/xlink" xml:space="preserve" xmlns:serif="http://www.serif.com/" style="fill-rule:evenodd;clip-rule:evenodd;"><rect id="Artboard1" x="0" y="0" width="854.765" height="760.336" style="fill:none;"/><clipPath id="_clip1"><rect x="0" y="0" width="854.765" height="760.336"/></clipPath><g clip-path="url(#_clip1)"><g opacity="0.8"><rect x="-65.063" y="727.471" width="1008.65" height="0.59" style="fill:#ececec;"/><rect x="734.967" y="743.481" width="38.72" height="0.59" style="fill:#ececec;"/><rect x="40.767" y="747.431" width="87.13" height="0.59" style="fill:#ececec;"/><rect x="145.857" y="747.431" width="12.78" height="0.59" style="fill:#ececec;"/><rect x="200.157" y="757.361" width="188.97" height="0.59" style="fill:#ececec;"/><path d="M413.067,622.591l-389.54,0c-6.35,0 -11.51,-6.02 -11.51,-13.42l-0,-638.31c-0,-7.4 5.17,-13.42 11.51,-13.42l389.54,0c6.35,0 11.51,6.02 11.51,13.42l-0,638.3c-0,7.4 -5.17,13.42 -11.51,13.42l-0,0.01Zm-389.54,-664.57c-6.07,0 -11.01,5.76 -11.01,12.83l-0,638.31c-0,7.08 4.94,12.84 11.01,12.84l389.54,0c6.07,0 11.01,-5.76 11.01,-12.84l-0,-638.3c-0,-7.08 -4.94,-12.83 -11.01,-12.83l-389.54,0l-0,-0.01Z" style="fill:#ececec;fill-rule:nonzero;"/><path d="M849.397,622.591l-389.54,0c-6.35,0 -11.51,-6.02 -11.51,-13.42l-0,-638.31c-0,-7.4 5.17,-13.42 11.51,-13.42l389.54,0c6.35,0 11.51,6.02 11.51,13.42l-0,638.3c-0,7.4 -5.17,13.42 -11.51,13.42l-0,0.01Zm-389.53,-664.57c-6.07,0 -11.01,5.76 -11.01,12.83l-0,638.31c-0,7.08 4.94,12.84 11.01,12.84l389.54,0c6.07,0 11.01,-5.76 11.01,-12.84l-0,-638.3c-0,-7.08 -4.94,-12.83 -11.01,-12.83l-389.54,0l-0,-0.01Z" style="fill:#ececec;fill-rule:nonzero;"/></g><g opacity="0.8"><g opacity="0.8"><rect x="578.217" y="167.431" width="263.13" height="13.52" style="fill:#e1e1e1;"/><rect x="590.327" y="117.591" width="11.59" height="49.84" style="fill:#ececec;"/><rect x="646.387" y="117.591" width="11.59" height="49.84" style="fill:#ececec;"/><path d="M721.61,116.329l-11.421,1.968l8.466,49.116l11.421,-1.969l-8.466,-49.115Z" style="fill:#ececec;"/><rect x="604.697" y="124.161" width="11.59" height="43.27" style="fill:#ececec;"/><rect x="631.337" y="124.161" width="11.59" height="43.27" style="fill:#ececec;"/><rect x="698.597" y="124.161" width="11.59" height="43.27" style="fill:#ececec;"/><path d="M673.203,122.629l-11.314,2.514l9.388,42.24l11.314,-2.515l-9.388,-42.239Z" style="fill:#ececec;"/><rect x="620.517" y="115.121" width="5.8" height="52.31" style="fill:#ececec;"/><rect x="689.467" y="115.121" width="5.8" height="52.31" style="fill:#ececec;"/><rect x="759.617" y="127.981" width="56.48" height="39" style="fill:#ececec;"/></g><g opacity="0.8"><rect x="578.227" y="268.351" width="263.13" height="13.52" style="fill:#e1e1e1;"/><rect x="817.657" y="218.521" width="11.59" height="49.84" style="fill:#ececec;"/><rect x="761.597" y="218.521" width="11.59" height="49.84" style="fill:#ececec;"/><path d="M689.507,266.365l11.421,1.969l8.466,-49.116l-11.421,-1.969l-8.466,49.116Z" style="fill:#ececec;"/><rect x="803.287" y="225.081" width="11.59" height="43.27" style="fill:#ececec;"/><rect x="776.647" y="225.081" width="11.59" height="43.27" style="fill:#ececec;"/><rect x="709.387" y="225.081" width="11.59" height="43.27" style="fill:#ececec;"/><path d="M737.02,265.801l11.314,2.515l9.387,-42.24l-11.314,-2.514l-9.387,42.239Z" style="fill:#ececec;"/><rect x="793.257" y="216.041" width="5.8" height="52.31" style="fill:#ececec;"/><rect x="724.307" y="216.041" width="5.8" height="52.31" style="fill:#ececec;"/><rect x="603.477" y="228.911" width="56.48" height="39" style="fill:#ececec;"/></g><g opacity="0.8"><path d="M46.057,424.401l-0,236.03l12.1,0l-0,-211.82l213.84,0l-0,211.82l14.12,0l-0,-236.03l-240.06,0Z" style="fill:#e1e1e1;fill-rule:nonzero;"/><path d="M179.197,424.401l-0,236.03l12.1,0l-0,-211.82l213.84,0l-0,211.82l14.12,0l-0,-236.03l-240.06,0Z" style="fill:#f5f5f5;fill-rule:nonzero;"/></g><g opacity="0.8"><path d="M255.607,336.461c-2.7,-4.44 -7.14,-0.58 -7.14,-0.58c0.64,-8.52 -7.2,-14.34 -7.2,-14.34c-0,0 9.11,0 10.38,-8.69c1.27,-8.69 -3.17,-4.65 -7.35,-4.71c-4.17,-0.06 -8.53,12.12 -3.03,18.98c5.5,6.85 4.03,18.55 -8.67,29.8c-3.1,2.74 -5.2,6.4 -6.63,10.35c0.96,-10.33 1.5,-24.89 -1.54,-34.62c-5.17,-16.51 4.68,-20.95 7.53,-29.21c2.86,-8.25 -7.53,-15.24 -7.53,-15.24c-0,0 9.76,-4.44 5,-9.52c-4.76,-5.08 -14.6,-4.39 -14.6,2.25c-0,6.64 6.67,9.18 6.67,9.18c-0,0 7.62,7.94 7.62,12.06c-0,4.12 -7.62,13.02 -7.62,13.02c-0,0 3.49,-7.61 -3.49,-7.93c-6.98,-0.32 -9.21,8.88 -6.35,13.01c2.86,4.13 7.62,0.63 7.62,0.63c-0,0 0.55,8.89 2.18,14.29c0.72,2.37 0.38,11.69 -0.22,21.38c-1.41,-3.5 -3.4,-6.7 -6.19,-9.17c-12.7,-11.25 -14.17,-22.94 -8.67,-29.8c5.5,-6.85 1.14,-19.04 -3.03,-18.98c-4.17,0.06 -8.62,-3.98 -7.35,4.71c1.27,8.69 10.38,8.69 10.38,8.69c-0,0 -7.84,5.83 -7.2,14.34c-0,0 -4.45,-3.87 -7.14,0.58c-4.82,7.94 6.35,12.86 8.23,8.95c-0,0 23.68,16.76 17.97,40.89l1.33,1.96c-0.17,1.95 -0.28,3.12 -0.28,3.12l1.85,-0.8l2.11,3.11c-0.11,6.03 0.54,10.49 0.54,10.49l5.66,-8.36c-5.71,-24.13 17.97,-40.89 17.97,-40.89c1.88,3.91 13.05,-1.02 8.23,-8.95l-0.04,0Z" style="fill:#e1e1e1;fill-rule:nonzero;"/><path d="M241.267,424.401l-7.64,-43.75l2.16,-12.73l-24.07,0l2.16,12.73l-7.63,43.75l35.02,0Z" style="fill:#ececec;fill-rule:nonzero;"/></g></g><ellipse id="b" cx="443.467" cy="727.481" rx="391.13" ry="22.84" style="fill:#f5f5f5;"/><g opacity="0.8"><path d="M420.217,194.501c0.88,-4.09 1.35,-8.33 1.35,-12.68c-0,-33.23 -26.93,-60.16 -60.16,-60.16c-3.8,0 -7.51,0.36 -11.12,1.03c-1.54,-0.29 -3.1,-0.02 -4.68,-0.19c-11.18,-24.5 -35.85,-41.05 -64.54,-41.05l-22.19,0c-39.18,0 -70.95,31.26 -70.95,70.45c-0,0.52 0.03,0.79 0.04,1.31c-27.94,5.13 -49.12,29.01 -49.12,58.43c-0,33.15 26.87,59.44 60.01,59.44l217.87,0c21.45,0 38.83,-16.94 38.83,-38.38c-0,-20.27 -15.54,-36.44 -35.35,-38.21l0.01,0.01Z" style="fill:#007cff;fill-rule:nonzero;"/><path d="M420.217,194.501c0.88,-4.09 1.35,-8.33 1.35,-12.68c-0,-33.23 -26.93,-60.16 -60.16,-60.16c-3.8,0 -7.51,0.36 -11.12,1.03c-1.54,-0.29 -3.1,-0.02 -4.68,-0.19c-11.18,-24.5 -35.85,-41.05 -64.54,-41.05l-22.19,0c-39.18,0 -70.95,31.26 -70.95,70.45c-0,0.52 0.03,0.79 0.04,1.31c-27.94,5.13 -49.12,29.01 -49.12,58.43c-0,33.15 26.87,59.44 60.01,59.44l217.87,0c21.45,0 38.83,-16.94 38.83,-38.38c-0,-20.27 -15.54,-36.44 -35.35,-38.21l0.01,0.01Z" style="fill-rule:nonzero;"/><path d="M420.217,194.501c0.88,-4.09 1.35,-8.33 1.35,-12.68c-0,-33.23 -26.93,-60.16 -60.16,-60.16c-3.8,0 -7.51,0.36 -11.12,1.03c-1.54,-0.29 -3.1,-0.02 -4.68,-0.19c-11.18,-24.5 -35.85,-41.05 -64.54,-41.05c-3.78,0 3.77,0 -0,0c-39.18,0 -70.95,31.26 -70.95,70.45c-0,0.52 0.03,0.79 0.04,1.31c-27.94,5.13 -49.12,29.01 -49.12,58.43c-0,33.15 26.87,59.44 60.01,59.44l195.68,0c21.45,0 38.83,-16.94 38.83,-38.38c-0,-20.27 -15.54,-36.44 -35.35,-38.21l0.01,0.01Z" style="fill-rule:nonzero;"/></g><g opacity="0.8"><path d="M479.097,369.931l-67.92,0c-55.62,0 -100.86,-45.25 -100.86,-100.86l-0,-20.17l-20.17,0l-0,20.17c-0,66.74 54.3,121.04 121.04,121.04l67.92,0l-0,-20.17l-0.01,-0.01Z" style="fill:#007cff;fill-rule:nonzero;"/><path d="M299.987,235.461l-17.48,17.47l34.95,0l-17.47,-17.47Z" style="fill:#007cff;fill-rule:nonzero;"/></g><g opacity="0.8"><g opacity="0.8"><g opacity="0.8"><path d="M149.497,628.821l-11.99,-36.98c-0,0 17.82,-16.81 43.71,-11.77l10.09,34.63l-41.8,14.12l-0.01,0Z" style="fill:#007cff;fill-rule:nonzero;"/><path d="M149.497,628.821l-11.99,-36.98c-0,0 17.82,-16.81 43.71,-11.77l10.09,34.63l-41.8,14.12l-0.01,0Z" style="fill-rule:nonzero;"/></g><g opacity="0.8"><path d="M143.177,600.581c-0,0 1.68,-2 4.78,-4.39c1.54,-1.21 3.45,-2.46 5.59,-3.66c1.08,-0.58 2.21,-1.16 3.39,-1.69c1.2,-0.46 2.39,-1.04 3.65,-1.42c1.25,-0.4 2.51,-0.8 3.78,-1.05c0.63,-0.15 1.26,-0.29 1.88,-0.41c0.63,-0.08 1.25,-0.16 1.87,-0.24c0.61,-0.07 1.21,-0.17 1.8,-0.21c0.59,-0.01 1.18,-0.02 1.74,-0.03c1.13,-0.04 2.19,-0.03 3.17,0.11c0.98,0.1 1.87,0.19 2.65,0.32c0.77,0.18 1.45,0.34 2.01,0.47c1.1,0.27 1.72,0.45 1.72,0.45c-0,0 -0.66,0 -1.78,-0.06c-0.56,-0.03 -1.24,-0.07 -2.02,-0.11c-0.78,0.03 -1.65,0.06 -2.61,0.09c-0.95,-0.01 -1.98,0.11 -3.05,0.24c-1.08,0.09 -2.21,0.25 -3.37,0.49c-0.58,0.11 -1.17,0.21 -1.77,0.32c-0.59,0.15 -1.18,0.31 -1.78,0.46c-1.21,0.26 -2.4,0.67 -3.6,1.07c-1.22,0.33 -2.36,0.87 -3.53,1.29c-1.14,0.5 -2.27,0.96 -3.34,1.47c-1.05,0.55 -2.11,1.01 -3.06,1.55c-0.97,0.51 -1.87,1.02 -2.7,1.5c-1.65,0.97 -3.03,1.79 -3.95,2.44c-0.94,0.63 -1.47,1 -1.47,1Z" style="fill-rule:nonzero;"/><path d="M144.227,603.971c-0,0 0.47,-0.4 1.35,-1.03c0.89,-0.61 2.15,-1.51 3.74,-2.46c1.59,-0.95 3.49,-2 5.59,-2.98c2.09,-1.01 4.4,-1.91 6.74,-2.74c1.19,-0.36 2.37,-0.76 3.55,-1.06c1.19,-0.3 2.35,-0.61 3.5,-0.8c1.15,-0.2 2.25,-0.44 3.32,-0.51c1.07,-0.1 2.07,-0.23 3,-0.24c1.87,-0.06 3.42,0.03 4.5,0.16c1.08,0.11 1.68,0.2 1.68,0.2c-0,0 -0.62,0.09 -1.69,0.19c-0.53,0.06 -1.18,0.08 -1.91,0.2c-0.73,0.13 -1.56,0.27 -2.46,0.4c-0.9,0.13 -1.86,0.39 -2.88,0.57c-1.02,0.17 -2.07,0.52 -3.18,0.76c-1.11,0.23 -2.21,0.66 -3.36,0.94c-1.15,0.32 -2.28,0.74 -3.44,1.1c-4.59,1.54 -9.08,3.4 -12.45,4.83c-1.68,0.73 -3.1,1.31 -4.07,1.77c-0.98,0.44 -1.55,0.69 -1.55,0.69l0.02,0.01Z" style="fill-rule:nonzero;"/><path d="M147.087,610.831c-0,0 0.43,-0.43 1.24,-1.1c0.82,-0.66 1.99,-1.62 3.48,-2.65c1.5,-1.02 3.28,-2.16 5.29,-3.21c1.99,-1.1 4.22,-2.06 6.48,-2.96c2.3,-0.8 4.62,-1.53 6.87,-1.95c1.13,-0.19 2.2,-0.44 3.26,-0.5c1.05,-0.08 2.03,-0.2 2.94,-0.18c0.92,0 1.75,0.05 2.49,0.09c0.74,0.04 1.38,0.18 1.9,0.25c1.05,0.16 1.63,0.28 1.63,0.28c-0,0 -0.61,0.06 -1.65,0.11c-0.52,0.04 -1.15,0.02 -1.87,0.11c-0.72,0.11 -1.53,0.22 -2.4,0.32c-0.88,0.11 -1.81,0.36 -2.8,0.52c-1,0.15 -2.01,0.51 -3.09,0.74c-1.08,0.23 -2.14,0.67 -3.25,0.96c-1.11,0.34 -2.2,0.77 -3.31,1.15c-1.09,0.44 -2.2,0.83 -3.27,1.3c-1.06,0.48 -2.13,0.87 -3.13,1.36c-2.03,0.9 -3.88,1.83 -5.49,2.61c-1.59,0.82 -2.94,1.46 -3.85,1.98c-0.93,0.49 -1.46,0.78 -1.46,0.78l-0.01,-0.01Z" style="fill-rule:nonzero;"/><path d="M148.767,615.541c-0,0 1.63,-1.72 4.54,-3.75c1.45,-1.02 3.23,-2.1 5.21,-3.1c0.99,-0.5 2.05,-0.97 3.12,-1.43c1.1,-0.39 2.2,-0.86 3.35,-1.19c1.15,-0.32 2.29,-0.68 3.45,-0.88c1.15,-0.26 2.29,-0.44 3.41,-0.54c1.11,-0.15 2.19,-0.21 3.22,-0.18c1.03,0 1.99,-0.02 2.88,0.12c0.89,0.09 1.7,0.21 2.41,0.31c0.7,0.17 1.31,0.33 1.82,0.45c1,0.26 1.56,0.43 1.56,0.43c-0,0 -0.6,0 -1.62,-0.04c-0.51,-0.03 -1.12,-0.06 -1.83,-0.09c-0.71,0.04 -1.51,0.08 -2.37,0.1c-0.86,-0.01 -1.79,0.14 -2.77,0.22c-0.98,0.07 -2,0.25 -3.06,0.44c-1.06,0.14 -2.13,0.43 -3.23,0.68c-1.1,0.21 -2.19,0.59 -3.28,0.91c-2.19,0.65 -4.33,1.48 -6.32,2.3c-1.98,0.84 -3.81,1.7 -5.37,2.48c-1.55,0.79 -2.85,1.44 -3.73,1.96c-0.89,0.51 -1.4,0.8 -1.4,0.8l0.01,0Z" style="fill-rule:nonzero;"/><path d="M151.127,621.831c-0,0 0.4,-0.43 1.18,-1.1c0.78,-0.66 1.9,-1.62 3.33,-2.65c1.44,-1.01 3.15,-2.16 5.1,-3.21c0.96,-0.54 1.98,-1.06 3.03,-1.55c1.05,-0.51 2.16,-0.92 3.24,-1.39c1.12,-0.39 2.24,-0.77 3.36,-1.11c1.13,-0.29 2.24,-0.6 3.34,-0.79c1.1,-0.17 2.16,-0.4 3.18,-0.44c1.02,-0.06 1.98,-0.15 2.87,-0.11c0.89,0.04 1.71,0.11 2.42,0.17c0.72,0.06 1.33,0.24 1.84,0.32c1.01,0.21 1.57,0.35 1.57,0.35c-0,0 -0.59,0.03 -1.61,0.04c-0.51,0.02 -1.12,-0.04 -1.82,0.04c-0.7,0.08 -1.49,0.17 -2.34,0.24c-0.85,0.09 -1.76,0.31 -2.73,0.45c-0.97,0.14 -1.96,0.47 -3,0.68c-1.04,0.23 -2.08,0.64 -3.16,0.92c-1.07,0.35 -2.14,0.74 -3.21,1.13c-1.06,0.43 -2.14,0.81 -3.16,1.28c-1.03,0.47 -2.06,0.87 -3.03,1.35c-1.96,0.89 -3.75,1.83 -5.3,2.61c-1.53,0.82 -2.83,1.47 -3.71,1.98c-0.89,0.5 -1.41,0.78 -1.41,0.78l0.02,0.01Z" style="fill-rule:nonzero;"/></g><path d="M144.257,629.081l24.89,-18.86c0.61,-0.47 1.4,-0.65 2.15,-0.5l28.39,5.4c2.52,0.48 3.04,3.85 0.79,5.07l-23.43,12.69c-0.38,0.2 -0.8,0.32 -1.23,0.33l-29.85,0.77c-2.65,0.07 -3.83,-3.3 -1.72,-4.9l0.01,0Z" style="fill:#007cff;fill-rule:nonzero;"/></g><g opacity="0.8"><path d="M189.057,640.251c-0,0 38.22,-92.46 44.94,-98.18c6.72,-5.72 49.42,19.1 49.42,19.1l-37.99,97.57l-56.37,-18.49Z" style="fill:#007cff;fill-rule:nonzero;"/><path d="M200.037,639.581c-0,0 36.58,-88.31 42.03,-92.12c5.45,-3.82 36.65,12.44 36.65,12.44c-0,0 -32.5,-19.84 -42.48,-16.47c-9.97,3.36 -43.93,94.14 -43.93,94.14l7.73,2.02l-0,-0.01Z" style="fill-rule:nonzero;"/></g><g opacity="0.8"><rect x="114.757" y="631.181" width="162.28" height="95.82"/><rect x="114.757" y="631.181" width="162.28" height="95.82"/><rect x="176.287" y="631.181" width="100.75" height="95.82"/><path d="M176.287,632.181l38.21,-30.76l85.23,5.8l-22.69,24.96l-100.75,0Z" style="fill-rule:nonzero;"/><path d="M176.287,632.181l-28.86,-33.28l-61.03,6.55l28.36,25.73l61.53,1Z" style="fill-rule:nonzero;"/><path d="M176.287,632.181l-28.86,-33.28l-61.03,6.55l28.36,25.73l61.53,1Z" style="fill-opacity:0.1;fill-rule:nonzero;"/><path d="M176.287,632.181l38.21,-30.76l85.23,5.8l-22.69,24.96l-100.75,0Z" style="fill-rule:nonzero;"/></g><g opacity="0.8"><path d="M246.317,675.281c-14.23,0 -25.77,11.54 -25.77,25.77c-0,14.23 11.54,25.77 25.77,25.77c14.23,0 25.77,-11.54 25.77,-25.77c-0,-14.23 -11.54,-25.77 -25.77,-25.77Zm-0,36.04c-5.67,0 -10.28,-4.6 -10.28,-10.28c-0,-5.68 4.6,-10.28 10.28,-10.28c5.68,0 10.28,4.6 10.28,10.28c-0,5.68 -4.6,10.28 -10.28,10.28Z" style="fill:#007cff;fill-rule:nonzero;"/><path d="M269.547,689.861c-0.46,-0.95 -0.99,-1.88 -1.57,-2.76c-0.75,-1.19 -1.61,-2.32 -2.58,-3.37c-4.3,-4.74 -10.33,-7.87 -17.09,-8.35c-0.67,-0.08 -1.33,-0.1 -2,-0.1c-14.22,0 -25.76,11.54 -25.76,25.78c-0,2.16 0.26,4.26 0.77,6.25c0.24,0.99 0.54,1.96 0.93,2.9c0.52,1.43 1.19,2.8 1.98,4.1c4.14,6.9 11.42,11.68 19.85,12.41c0.75,0.06 1.49,0.1 2.24,0.1c14.24,0 25.78,-11.54 25.78,-25.76c-0,-4.01 -0.91,-7.81 -2.54,-11.2l-0.01,0Zm-23.24,21.46c-0.32,0 -0.65,-0.02 -0.97,-0.06c-3.87,-0.34 -7.12,-2.86 -8.53,-6.31c-0.24,-0.59 -0.42,-1.19 -0.57,-1.82c-0.06,-0.38 -0.12,-0.77 -0.14,-1.17c-0.04,-0.3 -0.06,-0.61 -0.06,-0.91c-0,-5.69 4.6,-10.29 10.27,-10.29c0.24,0 0.48,0 0.73,0.04c2.2,0.14 4.2,0.97 5.79,2.26c0.4,0.34 0.79,0.71 1.13,1.11c0.3,0.32 0.56,0.67 0.81,1.03c1.17,1.65 1.84,3.67 1.84,5.85c-0,5.67 -4.6,10.27 -10.29,10.27l-0.01,0Z" style="fill-rule:nonzero;"/><path d="M245.347,711.261l-1.27,15.45c-8.43,-0.73 -15.71,-5.51 -19.85,-12.41l12.59,-9.36c1.41,3.45 4.66,5.97 8.53,6.31l-0,0.01Z" style="fill-rule:nonzero;"/><path d="M265.397,683.721l-12.57,9.34c-1.59,-1.29 -3.59,-2.12 -5.79,-2.26l1.27,-15.43c6.76,0.48 12.79,3.61 17.09,8.35Z" style="fill-rule:nonzero;"/><path d="M236.247,703.131l-14,7.08c-0.38,-0.95 -0.69,-1.92 -0.93,-2.9l14.79,-5.35c0.02,0.4 0.08,0.79 0.14,1.17Z" style="fill-rule:nonzero;"/><path d="M269.547,689.861l-14.79,5.35c-0.24,-0.36 -0.5,-0.71 -0.81,-1.03l14.02,-7.08c0.59,0.89 1.11,1.82 1.57,2.76l0.01,0Z" style="fill-rule:nonzero;"/></g><g opacity="0.8"><path d="M265.147,682.441c-14.23,0 -21.85,9.93 -17.02,22.19c4.83,12.26 20.28,22.19 34.51,22.19c14.23,0 21.85,-9.94 17.02,-22.19c-4.83,-12.26 -20.28,-22.19 -34.51,-22.19Zm12.23,31.04c-5.67,0 -11.84,-3.96 -13.76,-8.85c-1.93,-4.89 1.11,-8.85 6.79,-8.85c5.68,0 11.84,3.96 13.76,8.85c1.93,4.89 -1.11,8.85 -6.79,8.85Z" style="fill:#007cff;fill-rule:nonzero;"/><path d="M293.317,694.991c-0.79,-0.82 -1.62,-1.62 -2.51,-2.38c-1.15,-1.02 -2.4,-2 -3.73,-2.9c-5.91,-4.08 -13,-6.78 -19.92,-7.19c-0.69,-0.07 -1.37,-0.09 -2.03,-0.09c-14.22,0 -21.85,9.94 -17.01,22.2c0.73,1.86 1.71,3.67 2.89,5.39c0.58,0.85 1.21,1.69 1.91,2.5c1.01,1.23 2.14,2.41 3.37,3.53c6.48,5.94 15.38,10.06 24.06,10.68c0.77,0.05 1.53,0.09 2.27,0.09c14.24,0 21.87,-9.94 17.04,-22.18c-1.36,-3.46 -3.56,-6.72 -6.34,-9.64l-0,-0.01Zm-15.96,18.48c-0.32,0 -0.65,-0.02 -0.99,-0.05c-3.99,-0.3 -8.09,-2.47 -10.68,-5.44c-0.44,-0.5 -0.83,-1.02 -1.18,-1.56c-0.19,-0.33 -0.38,-0.66 -0.54,-1.01c-0.14,-0.26 -0.27,-0.52 -0.37,-0.78c-1.93,-4.9 1.11,-8.86 6.78,-8.86c0.24,0 0.48,0 0.74,0.03c2.25,0.12 4.52,0.83 6.56,1.95c0.52,0.3 1.03,0.61 1.51,0.96c0.41,0.28 0.79,0.57 1.16,0.89c1.73,1.42 3.08,3.16 3.82,5.04c1.92,4.88 -1.12,8.84 -6.8,8.84l-0.01,-0.01Z" style="fill-opacity:0.1;fill-rule:nonzero;"/><path d="M276.377,713.421l3.97,13.31c-8.68,-0.63 -17.58,-4.74 -24.06,-10.68l9.41,-8.06c2.58,2.97 6.69,5.14 10.68,5.44l-0,-0.01Z" style="fill-rule:nonzero;"/><path d="M287.087,689.711l-9.4,8.04c-2.03,-1.11 -4.31,-1.82 -6.56,-1.95l-3.97,-13.29c6.92,0.42 14.02,3.11 19.92,7.19l0.01,0.01Z" style="fill-rule:nonzero;"/><path d="M264.517,706.421l-11.6,6.1c-0.71,-0.82 -1.34,-1.65 -1.91,-2.5l12.97,-4.6c0.16,0.35 0.35,0.68 0.54,1.01l-0,-0.01Z" style="fill-rule:nonzero;"/><path d="M293.317,694.991l-12.97,4.6c-0.37,-0.31 -0.74,-0.61 -1.16,-0.89l11.62,-6.1c0.89,0.76 1.73,1.56 2.51,2.38l-0,0.01Z" style="fill-rule:nonzero;"/></g></g><g opacity="0.8"><path d="M690.387,553.511l0.72,31.41l3.31,142.08l10.92,0l3.28,-142.08l0.73,-31.41l-18.96,0Z" style="fill:#007cff;fill-rule:nonzero;"/><path d="M690.387,553.511l0.72,31.41l3.31,142.08l10.92,0l3.28,-142.08l0.73,-31.41l-18.96,0Z" style="fill-rule:nonzero;"/><path d="M690.387,553.511l0.72,32.28l17.51,0l0.73,-32.28l-18.96,0Z" style="fill-rule:nonzero;"/><g opacity="0.8"><g opacity="0.8"><path d="M631.117,726.491l10.09,-170.76l16.48,0l-14.12,170.76l-12.45,0Z" style="fill:#007cff;fill-rule:nonzero;"/><path d="M643.597,726.491l-12.46,0l9.15,-155.43l0.91,-15.53l16.48,0l-1.27,15.53l-12.81,155.43Z" style="fill-rule:nonzero;"/><path d="M657.677,555.531l-1.27,16.13l-16.12,0l0.91,-16.13l16.48,0Z" style="fill-rule:nonzero;"/></g><g opacity="0.8"><path d="M756.177,726.491l-14.12,-170.76l16.48,0l10.09,170.76l-12.45,0Z" style="fill:#007cff;fill-rule:nonzero;"/><path d="M756.147,726.491l-12.81,-155.43l-1.27,-15.53l16.48,0l0.91,15.53l9.15,155.43l-12.46,0Z" style="fill-rule:nonzero;"/><path d="M742.067,555.531l1.27,16.13l16.12,0l-0.91,-16.13l-16.48,0Z" style="fill-rule:nonzero;"/></g></g><path d="M767.367,561.631l-135,0l-0,-18.58c-0,-2.76 2.24,-5 5,-5l125,0c2.76,0 5,2.24 5,5l-0,18.58Z" style="fill:#007cff;fill-rule:nonzero;"/><g opacity="0.8"><path d="M625.897,559.621c-0,1.109 0.901,2.01 2.01,2.01l143.92,0c1.109,0 2.01,-0.901 2.01,-2.01l-0,-7.77c-0,-1.109 -0.901,-2.01 -2.01,-2.01l-143.92,0c-1.109,0 -2.01,0.901 -2.01,2.01l-0,7.77Z" style="fill:#007cff;"/><path d="M625.897,559.621c-0,1.109 0.901,2.01 2.01,2.01l143.92,0c1.109,0 2.01,-0.901 2.01,-2.01l-0,-7.77c-0,-1.109 -0.901,-2.01 -2.01,-2.01l-143.92,0c-1.109,0 -2.01,0.901 -2.01,2.01l-0,7.77Z"/></g></g><g id="c" opacity="0.8"><path d="M651.427,346.741c-0,0 -0.56,1.53 -1.59,4.05c-1.05,2.62 -2.6,6.31 -4.52,10.47c-4.64,10.11 -11.38,22.92 -18.42,29.84c-2.08,2.04 -4.18,3.57 -6.25,4.36c-7.5,2.88 -26.33,3.41 -43.13,3.25c-16.54,-0.14 -31.17,-1.01 -31.17,-1.01l-0,-12.73l55.25,-14.73c-0,0 29.13,-52.57 46.36,-60.36l3.47,36.86Z" style="fill-rule:nonzero;"/><path d="M649.827,350.791c-1.05,2.62 -2.6,6.31 -4.52,10.47c-4.64,10.11 -11.38,22.92 -18.42,29.84c-7.16,-26.39 19.33,-51.5 19.33,-51.5l3.61,11.2l-0,-0.01Z" style="fill-rule:nonzero;"/><path d="M642.687,712.431l-16.07,-2.21l-2.22,-38.2l16.04,2.23l2.25,38.18Z" style="fill:#fcb373;fill-rule:nonzero;"/><path d="M640.437,674.251l-16.05,-2.21l1.28,21.84l16.03,1.41l-1.26,-21.04Z" style="fill-rule:nonzero;"/><path d="M642.047,487.871l3.92,-24.56l90.09,-5.39c-0,0 9.58,51.11 2.22,64.73c-13.14,24.31 -83.96,12.04 -104.68,14.43c12.39,50.65 11.18,149.64 11.18,149.64l-29.59,2.26c-0,0 -22.77,-106.67 -27.37,-157.35c-3.11,-34.2 25.23,-33.35 54.24,-43.76l-0.01,0Z" style="fill:#007cff;fill-rule:nonzero;"/><path d="M648.247,688.111l-35.57,2.34l-3.04,-15.23l39.07,-1.81l-0.46,14.7Z" style="fill:#007cff;fill-rule:nonzero;"/><path d="M605.617,698.161l-16.18,1.19l-10.13,-36.89l16.16,-1.17l10.15,36.87Z" style="fill:#fcb373;fill-rule:nonzero;"/><path d="M587.257,699.911c-0,0 -0.27,-0.03 -0.27,-0.05l-0.29,-0.02l0.29,0c-0.06,-0.25 -0.82,-4.78 -2.79,-5.86c-0.53,-0.27 -1.08,-0.3 -1.62,-0.07c-0.63,0.2 -1.02,0.81 -0.98,1.47c0.07,1.01 1.15,2.28 2.39,3.28c-1.69,-0.36 -3.62,-0.56 -4.54,0.12c-0.39,0.3 -0.59,0.78 -0.55,1.27c-0.06,0.78 0.34,1.52 1.01,1.91c1.02,0.38 2.14,0.36 3.15,-0.05c1.38,-0.42 2.7,-0.99 3.96,-1.7c0.05,0 0.1,0 0.14,-0.02c0.03,-0.03 0.02,-0.08 0.04,-0.12c0.04,-0.05 0.05,-0.11 0.06,-0.17l-0,0.01Zm-4.86,-4.52c-0.03,-0.22 0.04,-0.51 0.54,-0.72l0.17,-0.06c0.29,-0.08 0.61,-0.04 0.87,0.11c1.18,0.63 1.99,3.07 2.37,4.56c-0.11,-0.04 -0.23,-0.07 -0.36,-0.11c-1.59,-0.88 -3.45,-2.69 -3.59,-3.78Zm-2.12,5.92c-0.41,-0.27 -0.64,-0.73 -0.62,-1.22c-0.03,-0.24 0.07,-0.48 0.27,-0.62c0.91,-0.68 3.87,-0.1 6.01,0.55c-2.64,1.33 -4.71,1.81 -5.65,1.3l-0.01,-0.01Z" style="fill:#007cff;fill-rule:nonzero;"/><path d="M595.467,661.291l-16.16,1.19l5.8,21.09l15.97,-1.97l-5.61,-20.31Z" style="fill-rule:nonzero;"/><path d="M573.827,680.961l28.48,-8.37c-0,0 -17.01,-95.98 -34.25,-129.27c1.29,-0.42 3.01,-0.97 5.12,-1.59c3.81,-1.15 8.88,-2.58 14.83,-4.24c41.39,-11.48 125.29,-33 125.29,-33l-38.33,-35.77c-0,0 -152.67,23.28 -155.84,63.5c-1.51,19.35 54.69,148.74 54.69,148.74l0.01,0Z" style="fill:#007cff;fill-rule:nonzero;"/><path d="M605.987,673.221l-34.3,9.7l-6.15,-14.26l37.84,-9.92l2.61,14.48Z" style="fill:#007cff;fill-rule:nonzero;"/><path d="M573.177,541.731c3.81,-1.15 8.88,-2.58 14.83,-4.24c-1.19,-9.76 -1.21,-20.96 3.49,-26.67c9.34,-11.38 33.37,-18.05 47.04,-20.48c11.44,-2.02 49.87,-6.03 49.87,-6.03c-0,0 -49.87,-4.78 -100.84,10.09c-25.2,7.36 -20.29,31.99 -14.38,47.33l-0.01,0Z" style="fill-rule:nonzero;"/><g opacity="0.8"><path d="M741.057,483.581c6,-4.61 0.24,-47.58 3.33,-89.85c4.7,-64.34 -0,-85.02 -4.75,-87.02c-8.75,-1.52 -17.6,-2.4 -26.48,-2.62c-12.99,-0.47 -26,-0.19 -38.96,0.84c-8.87,1.09 -17.65,2.88 -26.24,5.34c-0,0 -21.23,67.56 -7.67,164.91l100.77,8.41l-0,-0.01Z" style="fill-rule:nonzero;"/><path d="M746.137,360.611c-0,0 -0.02,0 -0,0.02c-0.26,9.46 -0.83,20.44 -1.76,33.1c-3.09,42.26 2.68,85.23 -3.33,89.85l-100.76,-8.41c-7.46,-53.58 -4.38,-98.14 -0.1,-127.39c8.19,-12.79 24.09,-27.37 31.39,-33.77c1.69,2.1 4.58,3.89 9.28,4.82c7.85,1.53 16.8,-2.12 24.23,-6.54c5.85,5.83 16.95,17.63 21.81,27.58c0.52,1.09 0.99,2.14 1.35,3.17c3.09,8.63 12.51,-2 17.31,-15.9c0.71,8.13 0.99,19.06 0.59,33.47l-0.01,0Z" style="fill-opacity:0.8;fill-rule:nonzero;"/></g><path d="M708.367,260.411c-2.19,12.58 -4.15,35.6 4.79,43.78c-0,0 -9.73,12.01 -28.26,12.83c-16.07,0.71 -10.7,-11.98 -10.7,-11.98c13.91,-3.64 13.33,-14.01 10.68,-23.7l23.48,-20.92l0.01,-0.01Z" style="fill:#fcb373;fill-rule:nonzero;"/><path d="M698.797,268.941l-13.89,12.39c0.65,2.25 1.1,4.56 1.35,6.89c5.32,-0.88 12.52,-6.91 12.97,-12.5c0.28,-2.26 0.13,-4.56 -0.43,-6.77l-0,-0.01Z" style="fill-rule:nonzero;"/><g opacity="0.8"><path d="M677.867,227.831c6.96,4.72 3.79,12.72 -11.95,25.23c-6.39,-8.29 -7.45,-24.38 -2.37,-28.43c5.08,-4.05 8.25,-0.89 14.32,3.19l-0,0.01Z" style="fill-rule:nonzero;"/><path d="M707.777,240.791c-0.76,17 -0.34,26.98 -8.76,35.84c-12.67,13.32 -33.77,5.91 -38.11,-10.98c-3.88,-15.17 -2.01,-40.43 14.49,-47.46c11.77,-5.08 25.43,0.34 30.51,12.1c1.43,3.31 2.07,6.9 1.87,10.49l-0,0.01Z" style="fill:#fcb373;fill-rule:nonzero;"/><path d="M682.497,245.881c0.02,1.38 -0.7,2.52 -1.6,2.53c-0.9,0.01 -1.64,-1.08 -1.66,-2.46c-0.02,-1.38 0.68,-2.51 1.57,-2.54c0.9,-0.03 1.57,1.12 1.69,2.48l-0,-0.01Z" style="fill-rule:nonzero;"/><path d="M666.787,246.171c0.02,1.38 -0.7,2.52 -1.6,2.53c-0.9,0.01 -1.66,-1.08 -1.69,-2.48c-0.03,-1.4 0.7,-2.52 1.6,-2.53c0.9,-0.01 1.66,1.1 1.69,2.48Z" style="fill-rule:nonzero;"/><path d="M671.927,246.731c-1.58,4.25 -3.73,8.27 -6.41,11.93c2.54,2.24 6.63,1.12 6.63,1.12l-0.23,-13.05l0.01,0Z" style="fill:#ec873e;fill-rule:nonzero;"/><path d="M686.707,240.851c0.18,0.02 0.36,-0.02 0.51,-0.12c0.35,-0.27 0.42,-0.78 0.15,-1.14c-1.56,-2.1 -4.05,-3.31 -6.67,-3.24c-0.43,0.02 -0.76,0.39 -0.74,0.82l-0,0.06c0.05,0.44 0.44,0.76 0.88,0.74c2.06,-0.03 4.01,0.95 5.24,2.61c0.16,0.18 0.39,0.28 0.63,0.27Z" style="fill-rule:nonzero;"/><path d="M659.547,240.991c0.31,0 0.6,-0.19 0.73,-0.47c0.82,-1.9 2.49,-3.29 4.51,-3.75c0.44,-0.07 0.75,-0.48 0.69,-0.93c-0.07,-0.44 -0.47,-0.74 -0.91,-0.69c-2.56,0.54 -4.71,2.29 -5.75,4.69c-0.19,0.4 -0.02,0.88 0.38,1.07l0.01,0c0.11,0.05 0.22,0.08 0.34,0.09l-0,-0.01Z" style="fill-rule:nonzero;"/><path d="M700.757,225.861c-7.89,2.86 -6.77,11.4 5.42,27.37c8.23,-6.47 13.21,-21.83 9.25,-26.97c-3.96,-5.14 -7.77,-2.88 -14.67,-0.4Z" style="fill-rule:nonzero;"/><path d="M716.097,254.241c-1.11,4.14 -3.82,7.66 -7.53,9.81c-4.93,2.79 -8.75,-1.3 -8.52,-6.66c0.21,-4.83 3.05,-12.11 8.54,-12.7c5.49,-0.58 8.85,4.48 7.51,9.55Z" style="fill:#fcb373;fill-rule:nonzero;"/><path d="M684.897,262.601c-0,0 -2.95,5.57 -11.18,5.31" style="fill-rule:nonzero;stroke:#1a2e35;stroke-width:0.53px;"/><path d="M683.507,223.161c-0,0 2.54,17.03 18.93,18.1c16.39,1.08 19.92,-9.05 19.92,-9.05c-0,0 -2.52,0.38 -4.03,0.34c-0,0 4.79,-8.27 -0,-16.26c-4.79,-7.99 -21.13,-16.31 -33.26,-12.03c-0,0 -11.59,-4.38 -22.95,2.22c-11.37,6.6 -9.35,20.98 -9.35,20.98c-0,0 -0.5,-8.73 4.79,-11.17c-0,0 -6.56,17.98 3.28,22.77c-0,0 0.98,-17.69 22.68,-15.9l-0.01,0Z" style="fill-rule:nonzero;"/></g><path d="M655.617,384.061c-0,0 -58.53,-1.33 -61.81,-1.66c-3.28,-0.33 -17.16,-8.15 -20.09,-8.48c-2.94,-0.33 -10.85,12.07 -11.83,15c-0.98,2.94 22.13,10.76 24.42,10.44c2.28,-0.33 7.53,-2.8 7.53,-2.8l59.72,7.68l2.07,-20.17l-0.01,-0.01Z" style="fill:#fcb373;fill-rule:nonzero;"/><g opacity="0.8"><path d="M485.827,396.161l-0,5.34c-0,1.6 2.75,2.73 4.33,2.73l124.66,0c1.6,0 4.15,-1.13 4.15,-2.73l-0,-5.34l-133.14,0Z" style="fill-rule:nonzero;"/><path d="M485.827,396.161l-0,5.34c-0,1.6 2.75,2.73 4.33,2.73l124.66,0c1.6,0 4.15,-1.13 4.15,-2.73l-0,-5.34l-133.14,0Z" style="fill-rule:nonzero;"/><path d="M485.827,396.161l-0,5.34c-0,1.6 2.75,2.73 4.33,2.73l82.22,0c1.6,0 4.23,-1.13 4.23,-2.73l-0,-5.34l-90.78,0Z" style="fill-rule:nonzero;"/><path d="M465.837,330.621l14.84,67.54c0.48,2.22 2.64,4.05 4.82,4.05l81.06,0c2.16,0 3.55,-2.3 3.05,-4.52l-14.82,-66.81c-0.5,-2.2 -2.64,-3.31 -4.82,-3.31l-81.06,0c-2.18,0 -3.55,0.86 -3.06,3.05l-0.01,0Z" style="fill-rule:nonzero;"/><path d="M465.837,330.621l14.84,67.54c0.48,2.22 2.64,4.05 4.82,4.05l81.06,0c2.16,0 3.55,-2.3 3.05,-4.52l-14.82,-66.81c-0.5,-2.2 -2.64,-3.31 -4.82,-3.31l-81.06,0c-2.18,0 -3.55,0.86 -3.06,3.05l-0.01,0Z" style="fill-rule:nonzero;"/><path d="M465.837,330.621l14.84,67.54c0.48,2.22 2.64,4.05 4.82,4.05l78.31,0c2.18,0 3.55,-2.3 3.06,-4.52l-14.84,-66.81c-0.48,-2.2 -2.64,-3.31 -4.82,-3.31l-78.31,0c-2.18,0 -3.55,0.86 -3.06,3.05Z" style="fill-rule:nonzero;"/><path d="M513.527,373.911c-3.77,0 -7.65,-4.05 -8.63,-9.04c-0.97,-5 1.29,-9.06 5.08,-9.06c0.71,0 1.41,0.14 2.1,0.4c0.89,3.89 3.53,7.16 6.44,8.25c0.04,0.14 0.08,0.26 0.1,0.4c0.99,4.98 -1.29,9.04 -5.08,9.04l-0.01,0.01Z" style="fill-rule:nonzero;"/></g><path d="M746.137,360.611c-0,0 -0.02,0 -0,0.02c-8.69,14.1 -20.86,29.15 -32.98,28.44c-12.69,-0.75 0.1,-26.65 13.74,-49.2c0.52,1.09 0.99,2.14 1.35,3.17c3.09,8.63 12.51,-2 17.31,-15.9c0.71,8.13 0.99,19.06 0.59,33.47l-0.01,0Z" style="fill-rule:nonzero;"/><path d="M739.637,306.711c29.91,10.78 -22.6,91.8 -38.9,100.15c-16.31,8.35 -59.21,-1.28 -59.21,-1.28l2.66,-25.03c-0,0 33.96,2.29 40.72,0.58c6.76,-1.71 22.81,-36.24 32.04,-52.55c9.23,-16.31 22.7,-21.87 22.7,-21.87l-0.01,0Z" style="fill-rule:nonzero;"/><path d="M648.247,688.111l-35.57,2.34l-3.04,-15.23l39.07,-1.81l-0.46,14.7Z" style="fill-rule:nonzero;"/><path d="M605.987,673.221l-34.3,9.7l-6.15,-14.26l37.84,-9.92l2.61,14.48Z" style="fill-rule:nonzero;"/><path d="M587.857,697.711l17.52,-4.89c0.6,-0.2 1.25,0.13 1.45,0.73l-0,0.02l4.73,13.64c0.42,1.51 -0.45,3.08 -1.96,3.52c-6.14,1.61 -9.15,2.07 -16.88,4.16c-4.74,1.31 -13.97,4.34 -20.73,5.11c-6.76,0.77 -7.33,-5.93 -4.54,-6.85c6.61,-2.21 14.53,-9.11 17.97,-13.79c0.61,-0.8 1.46,-1.38 2.44,-1.65Z" style="fill-rule:nonzero;"/><path d="M625.017,710.251l-0,-0.02c-0,-0.28 -0.27,-4.86 -1.96,-6.32c-0.46,-0.38 -1.22,-0.53 -1.8,-0.42c-0.66,0.06 -1.28,0.57 -1.38,1.23c-0.14,1 0.6,2.46 1.6,3.7c-1.58,-0.71 -3.45,-1.3 -4.49,-0.83c-0.44,0.21 -0.76,0.64 -0.81,1.13c-0.22,0.75 -0,1.56 0.59,2.07c0.92,0.58 2.02,0.8 3.08,0.61c1.43,-0.12 2.85,-0.41 4.22,-0.84c0.04,0.02 0.09,0.03 0.14,0.01c0.04,-0.03 0.04,-0.08 0.07,-0.11c0.05,-0.04 0.39,-0.09 0.41,-0.15c-0,-0.02 0.34,-0.02 0.34,-0.04l-0,-0.02l-0.01,0Zm-4.46,-5.37c0.02,-0.22 0.14,-0.49 0.68,-0.59l0.18,-0.02c0.3,-0.02 0.6,0.08 0.83,0.29c1.02,0.86 1.31,3.42 1.37,4.96c-0.1,-0.06 -0.21,-0.12 -0.33,-0.19c-1.38,-1.19 -2.82,-3.35 -2.72,-4.45l-0.01,0Zm-3.31,5.35c-0.34,-0.35 -0.48,-0.85 -0.35,-1.33c0.02,-0.24 0.17,-0.45 0.39,-0.55c1.03,-0.48 3.81,0.71 5.76,1.78c-2.86,0.75 -4.99,0.79 -5.8,0.1Z" style="fill:#007cff;fill-rule:nonzero;"/><path d="M625.407,708.291l18.16,-1.13c0.63,-0.07 1.2,0.39 1.27,1.02l-0,0.02l1.78,14.32c0.1,1.57 -1.08,2.92 -2.65,3.04c-6.34,0.29 -9.38,0.12 -17.38,0.55c-4.9,0.29 -14.57,1.34 -21.34,0.68c-6.77,-0.66 -5.94,-7.33 -3.02,-7.65c6.93,-0.79 16.11,-5.88 20.44,-9.74c0.76,-0.66 1.72,-1.05 2.73,-1.11l0.01,0Z" style="fill-rule:nonzero;"/></g><g opacity="0.8"><g opacity="0.8"><path d="M544.547,727.001l12.36,0l2.01,-309.15l-16.39,0l2.02,309.15Z" style="fill:#007cff;fill-rule:nonzero;"/><path d="M542.517,418.351l0.32,49.88l1.7,258.77l12.36,0l1.7,-258.77l0.32,-49.88l-16.4,0Z" style="fill-rule:nonzero;"/><path d="M542.517,418.351l0.32,50.43l15.76,0l0.32,-50.43l-16.4,0Z" style="fill-rule:nonzero;"/></g><g opacity="0.8"><path d="M413.337,727.001l12.36,0l22.2,-309.15l-16.39,0l-18.17,309.15Z" style="fill:#007cff;fill-rule:nonzero;"/><path d="M413.327,727.001l12.37,0l21.12,-293.79l1.09,-14.86l-16.4,0l-0.89,14.86l-17.29,293.79Z" style="fill-rule:nonzero;"/><path d="M430.617,432.471l16.2,0l1.09,-14.12l-16.4,0l-0.89,14.12Z" style="fill-rule:nonzero;"/></g><g opacity="0.8"><path d="M675.747,727.001l12.36,0l-18.16,-309.15l-16.4,0l22.2,309.15Z" style="fill:#007cff;fill-rule:nonzero;"/><path d="M653.547,418.351l1.09,14.86l21.12,293.79l12.35,0l-17.27,-293.79l-0.89,-14.86l-16.4,0Z" style="fill-rule:nonzero;"/><path d="M669.947,418.351l-16.4,0l1.09,14.12l16.2,0l-0.89,-14.12Z" style="fill-rule:nonzero;"/></g><g opacity="0.8"><path d="M680.777,425.591l-260.11,0c-1.19,0 -2.16,-0.97 -2.16,-2.16l-0,-13.32l264.43,0l-0,13.32c-0,1.19 -0.97,2.16 -2.16,2.16Z" style="fill:#007cff;fill-rule:nonzero;"/><path d="M680.777,425.591l-260.11,0c-1.19,0 -2.16,-0.97 -2.16,-2.16l-0,-13.32l264.43,0l-0,13.32c-0,1.19 -0.97,2.16 -2.16,2.16Z" style="fill-rule:nonzero;"/></g><rect x="418.507" y="410.111" width="264.43" height="7.74"/><g opacity="0.8"><path d="M410.847,412.131l279.75,0c2.41,0 4.36,-1.95 4.36,-4.36c-0,-2.41 -1.95,-4.36 -4.36,-4.36l-279.75,0c-2.41,0 -4.36,1.95 -4.36,4.36c-0,2.41 1.95,4.36 4.36,4.36Z" style="fill:#007cff;fill-rule:nonzero;"/><path d="M410.847,412.131l279.75,0c2.41,0 4.36,-1.95 4.36,-4.36c-0,-2.41 -1.95,-4.36 -4.36,-4.36l-279.75,0c-2.41,0 -4.36,1.95 -4.36,4.36c-0,2.41 1.95,4.36 4.36,4.36Z" style="fill-rule:nonzero;"/></g></g><g opacity="0.8"><path d="M398.367,293.871l-0,-27.21c-0,-11.62 -9.42,-21.04 -21.04,-21.04l-50.08,0c-11.62,0 -21.04,-9.42 -21.04,-21.04l-0,-21.02" style="fill-rule:nonzero;"/><g opacity="0.8"><path d="M417.527,294.411l-32.85,0c-6.66,0 -12.06,5.4 -12.06,12.06l-0,32.85c-0,6.66 5.4,12.06 12.06,12.06l32.85,0c6.66,0 12.06,-5.4 12.06,-12.06l-0,-32.85c-0,-6.66 -5.4,-12.06 -12.06,-12.06Z" style="fill:#007cff;fill-rule:nonzero;"/><g opacity="0.8"><path d="M417.527,294.411l-32.85,0c-6.66,0 -12.06,5.4 -12.06,12.06l-0,32.85c-0,6.66 5.4,12.06 12.06,12.06l32.85,0c6.66,0 12.06,-5.4 12.06,-12.06l-0,-32.85c-0,-6.66 -5.4,-12.06 -12.06,-12.06Z" style="fill-rule:nonzero;"/></g><path d="M400.907,299.791c-12.49,0 -22.66,10.16 -22.66,22.66c-0,12.5 10.16,22.66 22.66,22.66c12.5,0 22.66,-10.16 22.66,-22.66c-0,-12.5 -10.17,-22.66 -22.66,-22.66Zm-3.6,2.56c-2.08,2.01 -3.88,4.56 -5.29,7.5l-7.17,0c3.12,-3.98 7.53,-6.63 12.46,-7.5Zm-14,9.74l7.76,0c-1.14,2.97 -1.84,6.13 -2,9.06l-0.05,0.54l-8.52,0c0.13,-3.39 1.09,-6.69 2.81,-9.6Zm0.46,21.43c-1.87,-2.88 -2.97,-6.17 -3.22,-9.59l8.57,0c0.28,3.17 1.16,6.52 2.51,9.59l-7.87,0l0.01,0Zm1.67,2.24l7.29,0c1.5,2.75 3.36,5.11 5.47,6.92c-4.95,-0.66 -9.47,-3.1 -12.76,-6.92Zm14.36,5.33c-1.68,-1.41 -3.21,-3.23 -4.49,-5.33l4.49,0l-0,5.33Zm-0,-7.57l-5.7,0c-1.46,-3.03 -2.42,-6.4 -2.72,-9.59l8.42,0l-0,9.59Zm-0,-11.83l-8.51,0c0.11,-3.09 0.88,-6.47 2.19,-9.6l6.32,0l-0,9.6Zm-0,-11.84l-5.27,0c1.43,-2.71 3.22,-5 5.27,-6.71l-0,6.71Zm21.52,11.84l-8.52,0l-0.02,-0.53l-0.03,0c-0.16,-2.93 -0.86,-6.1 -2,-9.07l7.75,0c1.72,2.92 2.69,6.21 2.81,9.6l0.01,0Zm-4.34,-11.84l-7.17,0c-1.41,-2.95 -3.21,-5.5 -5.29,-7.51c4.93,0.88 9.35,3.53 12.46,7.51Zm-14.94,-6.71c2.05,1.72 3.84,4 5.27,6.71l-5.27,0l-0,-6.71Zm-0.01,8.95l6.33,0c1.3,3.11 2.07,6.47 2.18,9.6l-8.51,0l-0,-9.6Zm0.01,11.84l8.42,0c-0.3,3.2 -1.26,6.56 -2.72,9.59l-5.7,0l-0,-9.59Zm-0,17.17l-0,-5.34l4.49,0c-1.28,2.11 -2.81,3.92 -4.49,5.34Zm1.6,1.58c2.11,-1.81 3.98,-4.17 5.47,-6.92l7.28,0c-3.29,3.82 -7.8,6.26 -12.75,6.92Zm14.43,-9.16l-7.87,0c1.35,-3.07 2.23,-6.43 2.51,-9.59l8.57,0c-0.25,3.42 -1.35,6.72 -3.22,9.59l0.01,0Z" style="fill-rule:nonzero;"/></g></g><g opacity="0.8"><path d="M360.157,203.551l119.51,0c11.62,0 21.04,9.42 21.04,21.04l-0,27.21" style="fill-rule:nonzero;"/><g opacity="0.8"><path d="M510.167,232.071l-32.85,0c-6.66,0 -12.06,5.4 -12.06,12.06l-0,32.85c-0,6.66 5.4,12.06 12.06,12.06l32.85,0c6.66,0 12.06,-5.4 12.06,-12.06l-0,-32.85c-0,-6.66 -5.4,-12.06 -12.06,-12.06Z" style="fill:#007cff;fill-rule:nonzero;"/><g opacity="0.8"><path d="M510.167,232.071l-32.85,0c-6.66,0 -12.06,5.4 -12.06,12.06l-0,32.85c-0,6.66 5.4,12.06 12.06,12.06l32.85,0c6.66,0 12.06,-5.4 12.06,-12.06l-0,-32.85c-0,-6.66 -5.4,-12.06 -12.06,-12.06Z" style="fill-rule:nonzero;"/></g><path d="M497.527,244.841c-5.4,-5.4 -14.19,-5.4 -19.59,0c-5.4,5.4 -5.4,14.19 -0,19.59c4.79,4.79 12.24,5.32 17.64,1.61c0.1,0.62 0.38,1.21 0.86,1.69l8.6,8.6c1.21,1.21 3.18,1.21 4.39,0c1.21,-1.21 1.21,-3.18 -0,-4.39l-8.6,-8.6c-0.48,-0.48 -1.07,-0.76 -1.69,-0.86c3.71,-5.39 3.18,-12.85 -1.61,-17.64Zm-2.93,16.66c-3.79,3.79 -9.95,3.79 -13.73,0c-3.79,-3.79 -3.79,-9.95 -0,-13.74c3.79,-3.79 9.95,-3.79 13.74,0c3.79,3.79 3.79,9.95 -0,13.73l-0.01,0.01Z" style="fill-opacity:0.9;fill-rule:nonzero;"/></g></g><g opacity="0.8"><path d="M357.317,160.351l152.98,0" style="fill:none;fill-rule:nonzero;"/><g opacity="0.8"><path d="M534.497,115.561l-32.85,0c-6.66,0 -12.06,5.4 -12.06,12.06l-0,32.85c-0,6.66 5.4,12.06 12.06,12.06l32.85,0c6.66,0 12.06,-5.4 12.06,-12.06l-0,-32.85c-0,-6.66 -5.4,-12.06 -12.06,-12.06Z" style="fill:#007cff;fill-rule:nonzero;"/><g opacity="0.8"><path d="M534.497,115.561l-32.85,0c-6.66,0 -12.06,5.4 -12.06,12.06l-0,32.85c-0,6.66 5.4,12.06 12.06,12.06l32.85,0c6.66,0 12.06,-5.4 12.06,-12.06l-0,-32.85c-0,-6.66 -5.4,-12.06 -12.06,-12.06Z" style="fill-rule:nonzero;"/></g><g opacity="0.8"><g opacity="0.8"><path d="M510.077,160.351c-0,2.37 -1.92,4.29 -4.29,4.29c-2.37,0 -4.29,-1.92 -4.29,-4.29c-0,-2.37 1.92,-4.29 4.29,-4.29c2.37,0 4.29,1.92 4.29,4.29Z" style="fill-rule:nonzero;"/><path d="M526.807,160.351c-0,2.37 -1.92,4.29 -4.29,4.29c-2.37,0 -4.29,-1.92 -4.29,-4.29c-0,-2.37 1.92,-4.29 4.29,-4.29c2.37,0 4.29,1.92 4.29,4.29Z" style="fill-rule:nonzero;"/></g><g opacity="0.8"><path d="M525.987,152.751l-24.89,0l-5.24,-17.34l35.37,0l-5.24,17.34Z" style="fill-rule:nonzero;stroke:#fff;stroke-width:0.9px;"/><path d="M531.227,135.411l2,-6.98c0.4,-1.39 1.67,-2.35 3.12,-2.35l3.94,0" style="fill-rule:nonzero;stroke:#fff;stroke-width:0.9px;"/></g></g></g></g><g opacity="0.8"><path d="M352.647,123.931l49.87,0c11.62,0 21.04,-9.42 21.04,-21.04l-0,-27.21" style="fill-rule:nonzero;"/><g opacity="0.8"><path d="M399.357,32.251l48.42,0c2.43,0 4.4,1.97 4.4,4.4l-0,48.42c-0,2.43 -1.97,4.4 -4.4,4.4l-48.42,0c-2.43,0 -4.4,-1.97 -4.4,-4.4l-0,-48.42c-0,-2.43 1.97,-4.4 4.4,-4.4Z" style="fill:#007cff;fill-rule:nonzero;"/><g opacity="0.8"><path d="M399.357,32.251l48.42,0c2.43,0 4.4,1.97 4.4,4.4l-0,48.42c-0,2.43 -1.97,4.4 -4.4,4.4l-48.42,0c-2.43,0 -4.4,-1.97 -4.4,-4.4l-0,-48.42c-0,-2.43 1.97,-4.4 4.4,-4.4Z" style="fill-rule:nonzero;"/></g><path d="M445.237,66.831c-0,0.61 -0.05,2.76 -0.13,3.37l-19.55,0l-0,-9.32l2.66,0l-5.53,-5.53l-5.53,5.53l2.66,0l-0,9.32l-18.36,0c-0.05,-0.3 -0.05,-2.18 -0.05,-2.51c-0,-5.1 3.91,-9.31 8.88,-9.76l-0,-0.38c-0,-6.34 5.15,-11.51 11.51,-11.51c5.15,0 9.49,3.37 10.96,8.04c0.71,0.03 1.39,0.08 2.05,0.2c5.94,1.09 10.42,6.29 10.42,12.55l0.01,0Z" style="fill-rule:nonzero;"/></g></g><g opacity="0.8"><path d="M286.147,112.331l-0,-52.12" style="fill:none;fill-rule:nonzero;"/><g opacity="0.8"><path d="M302.567,10.511l-32.85,0c-6.66,0 -12.06,5.4 -12.06,12.06l-0,32.85c-0,6.66 5.4,12.06 12.06,12.06l32.85,0c6.66,0 12.06,-5.4 12.06,-12.06l-0,-32.85c-0,-6.66 -5.4,-12.06 -12.06,-12.06Z" style="fill:#007cff;fill-rule:nonzero;"/><g opacity="0.8"><path d="M302.567,10.511l-32.85,0c-6.66,0 -12.06,5.4 -12.06,12.06l-0,32.85c-0,6.66 5.4,12.06 12.06,12.06l32.85,0c6.66,0 12.06,-5.4 12.06,-12.06l-0,-32.85c-0,-6.66 -5.4,-12.06 -12.06,-12.06Z" style="fill-rule:nonzero;"/></g><g opacity="0.8"><path d="M291.407,42.731c0.05,-0.37 0.08,-0.74 0.1,-1.11l2.32,-0.92c-0.03,-1.06 -0.17,-2.1 -0.41,-3.11l-2.48,-0.29c-0.22,-0.71 -0.51,-1.4 -0.85,-2.06l1.55,-1.95c-0.55,-0.89 -1.19,-1.73 -1.91,-2.49l-2.29,0.99c-0.54,-0.5 -1.13,-0.96 -1.77,-1.36l0.37,-2.47c-0.91,-0.5 -1.88,-0.9 -2.89,-1.2l-1.49,2.01c-0.36,-0.08 -0.72,-0.15 -1.1,-0.2c-0.38,-0.05 -0.74,-0.08 -1.11,-0.09l-0.92,-2.32c-1.06,0.03 -2.1,0.17 -3.11,0.41l-0.29,2.48c-0.71,0.22 -1.4,0.51 -2.06,0.85l-1.95,-1.55c-0.89,0.55 -1.73,1.19 -2.49,1.91l0.99,2.29c-0.5,0.54 -0.96,1.13 -1.36,1.77l-2.47,-0.37c-0.49,0.91 -0.9,1.88 -1.2,2.89l2,1.49c-0.08,0.36 -0.15,0.72 -0.2,1.1c-0.05,0.37 -0.08,0.74 -0.1,1.11l-2.32,0.92c0.03,1.06 0.17,2.1 0.41,3.11l2.48,0.29c0.22,0.71 0.51,1.4 0.85,2.06l-1.55,1.95c0.55,0.89 1.19,1.73 1.91,2.49l2.29,-0.99c0.54,0.5 1.13,0.96 1.77,1.36l-0.37,2.47c0.91,0.5 1.88,0.9 2.89,1.2l1.49,-2c0.36,0.08 0.72,0.15 1.1,0.2c0.37,0.05 0.74,0.08 1.11,0.09l0.92,2.32c1.06,-0.03 2.1,-0.17 3.11,-0.41l0.29,-2.48c0.71,-0.22 1.4,-0.51 2.06,-0.85l1.95,1.55c0.89,-0.55 1.73,-1.19 2.49,-1.91l-0.99,-2.29c0.5,-0.54 0.96,-1.13 1.36,-1.77l2.47,0.37c0.49,-0.91 0.9,-1.88 1.2,-2.89l-2,-1.49c0.08,-0.36 0.15,-0.72 0.2,-1.1l-0,-0.01Zm-13.15,3.27c-2.72,-0.36 -4.63,-2.86 -4.27,-5.58c0.36,-2.72 2.86,-4.63 5.58,-4.27c2.72,0.36 4.63,2.86 4.27,5.58c-0.36,2.72 -2.86,4.63 -5.58,4.27Z" style="fill:#007cff;fill-rule:nonzero;"/><path d="M291.407,42.731c0.05,-0.37 0.08,-0.74 0.1,-1.11l2.32,-0.92c-0.03,-1.06 -0.17,-2.1 -0.41,-3.11l-2.48,-0.29c-0.22,-0.71 -0.51,-1.4 -0.85,-2.06l1.55,-1.95c-0.55,-0.89 -1.19,-1.73 -1.91,-2.49l-2.29,0.99c-0.54,-0.5 -1.13,-0.96 -1.77,-1.36l0.37,-2.47c-0.91,-0.5 -1.88,-0.9 -2.89,-1.2l-1.49,2.01c-0.36,-0.08 -0.72,-0.15 -1.1,-0.2c-0.38,-0.05 -0.74,-0.08 -1.11,-0.09l-0.92,-2.32c-1.06,0.03 -2.1,0.17 -3.11,0.41l-0.29,2.48c-0.71,0.22 -1.4,0.51 -2.06,0.85l-1.95,-1.55c-0.89,0.55 -1.73,1.19 -2.49,1.91l0.99,2.29c-0.5,0.54 -0.96,1.13 -1.36,1.77l-2.47,-0.37c-0.49,0.91 -0.9,1.88 -1.2,2.89l2,1.49c-0.08,0.36 -0.15,0.72 -0.2,1.1c-0.05,0.37 -0.08,0.74 -0.1,1.11l-2.32,0.92c0.03,1.06 0.17,2.1 0.41,3.11l2.48,0.29c0.22,0.71 0.51,1.4 0.85,2.06l-1.55,1.95c0.55,0.89 1.19,1.73 1.91,2.49l2.29,-0.99c0.54,0.5 1.13,0.96 1.77,1.36l-0.37,2.47c0.91,0.5 1.88,0.9 2.89,1.2l1.49,-2c0.36,0.08 0.72,0.15 1.1,0.2c0.37,0.05 0.74,0.08 1.11,0.09l0.92,2.32c1.06,-0.03 2.1,-0.17 3.11,-0.41l0.29,-2.48c0.71,-0.22 1.4,-0.51 2.06,-0.85l1.95,1.55c0.89,-0.55 1.73,-1.19 2.49,-1.91l-0.99,-2.29c0.5,-0.54 0.96,-1.13 1.36,-1.77l2.47,0.37c0.49,-0.91 0.9,-1.88 1.2,-2.89l-2,-1.49c0.08,-0.36 0.15,-0.72 0.2,-1.1l-0,-0.01Zm-13.15,3.27c-2.72,-0.36 -4.63,-2.86 -4.27,-5.58c0.36,-2.72 2.86,-4.63 5.58,-4.27c2.72,0.36 4.63,2.86 4.27,5.58c-0.36,2.72 -2.86,4.63 -5.58,4.27Z" style="fill-rule:nonzero;"/></g><g opacity="0.8"><path d="M301.807,35.011c-1.07,0 -2.07,-0.25 -2.96,-0.72c-2.1,-1.07 -3.53,-3.24 -3.53,-5.76c-0,-2.52 1.43,-4.69 3.53,-5.75l-0,4.09c-0,0.81 0.33,1.56 0.87,2.1c0.54,0.53 1.27,0.86 2.09,0.86c1.63,0 2.96,-1.32 2.96,-2.96l-0,-4.09c2.1,1.07 3.53,3.24 3.53,5.75c-0,2.51 -1.43,4.7 -3.53,5.76c-0.88,0.47 -1.89,0.72 -2.96,0.72Z" style="fill-rule:nonzero;"/><path d="M298.857,51.151l-0,-17.95c-0,-1.63 1.32,-2.95 2.95,-2.95c1.63,0 2.95,1.32 2.95,2.95l-0,17.95c-0,1.63 -1.32,2.95 -2.95,2.95c-1.63,0 -2.95,-1.32 -2.95,-2.95Z" style="fill-rule:nonzero;"/></g></g></g><g opacity="0.8"><path d="M174.897,293.871l-0,-27.21c-0,-11.62 9.42,-21.04 21.04,-21.04l50.08,0c11.62,0 21.04,-9.42 21.04,-21.04l-0,-21.02" style="fill-rule:nonzero;"/><g opacity="0.8"><path d="M190.067,290.691l-32.85,0c-6.66,0 -12.06,5.4 -12.06,12.06l-0,32.85c-0,6.66 5.4,12.06 12.06,12.06l32.85,0c6.66,0 12.06,-5.4 12.06,-12.06l-0,-32.85c-0,-6.66 -5.4,-12.06 -12.06,-12.06Z" style="fill:#007cff;fill-rule:nonzero;"/><g opacity="0.8"><path d="M190.067,290.691l-32.85,0c-6.66,0 -12.06,5.4 -12.06,12.06l-0,32.85c-0,6.66 5.4,12.06 12.06,12.06l32.85,0c6.66,0 12.06,-5.4 12.06,-12.06l-0,-32.85c-0,-6.66 -5.4,-12.06 -12.06,-12.06Z" style="fill-rule:nonzero;"/></g><g opacity="0.8"><g opacity="0.8"><path d="M194.077,332.821c-0,2.03 -1.65,3.68 -3.68,3.68c-2.03,0 -3.68,-1.65 -3.68,-3.68c-0,-2.03 1.65,-3.68 3.68,-3.68c2.03,0 3.68,1.65 3.68,3.68Z" style="fill-rule:nonzero;"/><path d="M177.797,332.821c-0,2.03 -1.65,3.68 -3.68,3.68c-2.03,0 -3.68,-1.65 -3.68,-3.68c-0,-2.03 1.65,-3.68 3.68,-3.68c2.03,0 3.68,1.65 3.68,3.68Z" style="fill-rule:nonzero;"/><path d="M161.517,332.821c-0,2.03 -1.65,3.68 -3.68,3.68c-2.03,0 -3.68,-1.65 -3.68,-3.68c-0,-2.03 1.65,-3.68 3.68,-3.68c2.03,0 3.68,1.65 3.68,3.68Z" style="fill-rule:nonzero;"/></g><path d="M197.237,328.971c-0,-1.308 -1.062,-2.37 -2.37,-2.37l-41.7,0c-1.308,0 -2.37,1.062 -2.37,2.37l-0,7.69c-0,1.308 1.062,2.37 2.37,2.37l41.7,0c1.308,0 2.37,-1.062 2.37,-2.37l-0,-7.69Z" style="stroke:#fff;stroke-width:0.9px;"/><path d="M190.897,327.661c-1.26,0 -2.28,-1.02 -2.28,-2.28l-0,-7.23l-14.57,-15.1l-8.27,2.72c-1.2,0.39 -2.49,-0.26 -2.88,-1.46c-0.39,-1.2 0.26,-2.49 1.46,-2.88l9.63,-3.17c0.83,-0.27 1.75,-0.05 2.36,0.58l16.2,16.79c0.41,0.43 0.64,0.99 0.64,1.59l-0,8.15c-0,1.26 -1.02,2.28 -2.28,2.28l-0.01,0.01Z" style="fill-rule:nonzero;"/><g opacity="0.8"><path d="M164.427,303.611l-0,5.68" style="fill:none;fill-rule:nonzero;stroke:#fff;stroke-width:0.9px;"/><path d="M162.647,313.601c-0.46,-0.46 -0.74,-1.09 -0.74,-1.78c-0,-1.39 1.13,-2.52 2.52,-2.52c1.39,0 2.52,1.13 2.52,2.52c-0,0.66 -0.25,1.26 -0.66,1.71" style="fill-rule:nonzero;stroke:#fff;stroke-width:0.9px;"/></g></g><path d="M175.547,300.561c-0,0.5 -0.41,0.91 -0.91,0.91c-0.5,0 -0.91,-0.41 -0.91,-0.91c-0,-0.5 0.41,-0.91 0.91,-0.91c0.5,0 0.91,0.41 0.91,0.91Z" style="fill:#007cff;fill-rule:nonzero;"/><path d="M191.647,317.341c-0,0.5 -0.41,0.91 -0.91,0.91c-0.5,0 -0.91,-0.41 -0.91,-0.91c-0,-0.5 0.41,-0.91 0.91,-0.91c0.5,0 0.91,0.41 0.91,0.91Z" style="fill:#007cff;fill-rule:nonzero;"/><rect x="160.967" y="317.271" width="6.92" height="6.92"/></g></g><g opacity="0.8"><path d="M221.077,203.551l-119.51,0c-11.62,0 -21.04,9.42 -21.04,21.04l-0,27.21" style="fill-rule:nonzero;"/><g opacity="0.8"><path d="M65.097,231.701l32.85,0c6.66,0 12.06,5.4 12.06,12.06l-0,32.85c-0,6.66 -5.4,12.06 -12.06,12.06l-32.85,0c-6.66,0 -12.06,-5.4 -12.06,-12.06l-0,-32.85c-0,-6.66 5.4,-12.06 12.06,-12.06Z" style="fill:#007cff;fill-rule:nonzero;"/><path d="M65.097,231.701l32.85,0c6.66,0 12.06,5.4 12.06,12.06l-0,32.85c-0,6.66 -5.4,12.06 -12.06,12.06l-32.85,0c-6.66,0 -12.06,-5.4 -12.06,-12.06l-0,-32.85c-0,-6.66 5.4,-12.06 12.06,-12.06Z" style="fill-rule:nonzero;"/><g opacity="0.8"><rect x="62.707" y="265.371" width="7.08" height="13.62"/><rect x="82.787" y="260.781" width="7.08" height="18.21"/><rect x="72.387" y="256.191" width="7.08" height="22.79"/><rect x="92.847" y="251.601" width="7.08" height="27.38"/></g></g></g><g opacity="0.8"><path d="M197.007,123.931l-49.87,0c-11.62,0 -21.04,-9.42 -21.04,-21.04l-0,-27.21" style="fill-rule:nonzero;"/><g opacity="0.8"><path d="M114.447,29.631l32.85,0c6.66,0 12.06,5.4 12.06,12.06l-0,32.85c-0,6.66 -5.4,12.06 -12.06,12.06l-32.85,0c-6.66,0 -12.06,-5.4 -12.06,-12.06l-0,-32.85c-0,-6.66 5.4,-12.06 12.06,-12.06Z" style="fill:#007cff;fill-rule:nonzero;"/><path d="M114.447,29.631l32.85,0c6.66,0 12.06,5.4 12.06,12.06l-0,32.85c-0,6.66 -5.4,12.06 -12.06,12.06l-32.85,0c-6.66,0 -12.06,-5.4 -12.06,-12.06l-0,-32.85c-0,-6.66 5.4,-12.06 12.06,-12.06Z" style="fill-rule:nonzero;"/><path d="M130.877,41.291c4.96,0 7.62,4.02 7.62,8.98c-0,4.96 -2.67,8.98 -7.62,8.98c-4.95,0 -7.62,-4.02 -7.62,-8.98c-0,-4.96 2.67,-8.98 7.62,-8.98Z" style="fill-rule:nonzero;"/><path d="M150.707,74.941l-39.66,0c-0.33,0 -0.63,-0.13 -0.85,-0.35l2.54,-6.94c1.64,-4.47 5.89,-7.44 10.65,-7.44l14.98,0c4.76,0 9.01,2.97 10.65,7.44l2.54,6.94c-0.22,0.22 -0.52,0.35 -0.85,0.35Z" style="fill-rule:nonzero;"/></g></g><g opacity="0.8"><path d="M77.657,160.351l152.99,0" style="fill:none;fill-rule:nonzero;"/><g opacity="0.8"><path d="M82.547,114.931l-32.85,0c-6.66,0 -12.06,5.4 -12.06,12.06l-0,32.85c-0,6.66 5.4,12.06 12.06,12.06l32.85,0c6.66,0 12.06,-5.4 12.06,-12.06l-0,-32.85c-0,-6.66 -5.4,-12.06 -12.06,-12.06Z" style="fill:#007cff;fill-rule:nonzero;"/><g opacity="0.8"><path d="M82.547,114.931l-32.85,0c-6.66,0 -12.06,5.4 -12.06,12.06l-0,32.85c-0,6.66 5.4,12.06 12.06,12.06l32.85,0c6.66,0 12.06,-5.4 12.06,-12.06l-0,-32.85c-0,-6.66 -5.4,-12.06 -12.06,-12.06Z" style="fill-rule:nonzero;"/></g><g opacity="0.8"><g opacity="0.8"><path d="M67.377,122.411l-0,5.28c3.4,0.27 6.5,1.62 8.95,3.71l3.73,-3.73c-3.42,-3.03 -7.83,-4.97 -12.69,-5.26l0.01,0Z" style="fill:#007cff;fill-rule:nonzero;"/><path d="M67.377,122.411l-0,5.28c3.4,0.27 6.5,1.62 8.95,3.71l3.73,-3.73c-3.42,-3.03 -7.83,-4.97 -12.69,-5.26l0.01,0Z" style="fill-rule:nonzero;"/></g><g opacity="0.8"><path d="M64.827,159.161c-7.71,-0.62 -13.85,-6.76 -14.46,-14.46l-5.28,0c0.63,10.61 9.13,19.11 19.74,19.74l-0,-5.28Z" style="fill:#007cff;fill-rule:nonzero;"/><path d="M64.827,159.161c-7.71,-0.62 -13.85,-6.76 -14.46,-14.46l-5.28,0c0.63,10.61 9.13,19.11 19.74,19.74l-0,-5.28Z" style="fill-opacity:0.8;fill-rule:nonzero;"/></g><g opacity="0.8"><path d="M50.367,142.151c0.62,-7.71 6.76,-13.85 14.47,-14.46l-0,-5.28c-10.61,0.63 -19.11,9.13 -19.74,19.74l5.28,0l-0.01,0Z" style="fill:#007cff;fill-rule:nonzero;"/><path d="M50.367,142.151c0.62,-7.71 6.76,-13.85 14.47,-14.46l-0,-5.28c-10.61,0.63 -19.11,9.13 -19.74,19.74l5.28,0l-0.01,0Z" style="fill-rule:nonzero;"/></g><path d="M81.867,129.461l-3.73,3.73c2.35,2.76 3.76,6.33 3.76,10.23c-0,8.29 -6.39,15.09 -14.52,15.74l-0,5.28c11.04,-0.66 19.78,-9.81 19.78,-21.02c-0,-5.36 -2,-10.24 -5.3,-13.96l0.01,0Z" style="fill-rule:nonzero;"/></g></g></g></g></svg>