<?xml version="1.0" encoding="UTF-8" standalone="no"?>
<!DOCTYPE svg PUBLIC "-//W3C//DTD SVG 1.1//EN" "http://www.w3.org/Graphics/SVG/1.1/DTD/svg11.dtd">
<svg width="60" height="60" viewBox="0 0 60 60" version="1.1" xmlns="http://www.w3.org/2000/svg" xmlns:xlink="http://www.w3.org/1999/xlink" xml:space="preserve" xmlns:serif="http://www.serif.com/" style="fill-rule:evenodd;clip-rule:evenodd;stroke-linejoin:round;stroke-miterlimit:2;">
    <g transform="matrix(1.07143,0,0,1.07143,-4.28572,-4.28572)">
        <g>
            <path d="M46.444,42.878C53.918,42.878 59.999,36.797 59.999,29.324C60.127,20.751 51.656,14.073 43.364,16.151C40.432,16.826 37.775,18.495 35.883,20.851C35.537,21.282 35.606,21.912 36.037,22.258C36.468,22.605 37.098,22.536 37.444,22.104C39.055,20.098 41.317,18.677 43.837,18.096C50.896,16.34 58.108,22.025 57.996,29.324C57.996,35.694 52.814,40.876 46.444,40.876L31.984,40.876C31.968,40.905 15.355,40.855 15.332,40.876C10.155,40.876 5.942,36.654 5.942,31.465C5.914,26.008 10.69,21.633 16.113,22.105C16.731,22.098 17.216,21.486 17.093,20.889C16.551,7.359 34.408,2.201 41.251,13.864C41.92,14.998 43.626,14.016 42.989,12.869C35.357,-0.202 15.372,4.925 15.075,20.086C0.144,21.003 0.389,42.284 15.332,42.878C15.332,42.878 30.968,42.878 30.968,42.878L30.968,48.465C28.961,48.867 27.371,50.452 26.96,52.469L13.219,52.469C11.917,52.478 11.894,54.454 13.219,54.471C13.219,54.471 26.954,54.471 26.954,54.471C27.091,55.338 27.597,56.649 28.696,56.149C29.867,55.516 28.762,54.441 28.856,53.472C28.864,51.759 30.26,50.365 31.969,50.365C36.067,50.491 36.092,56.462 31.969,56.592C31.313,56.474 30.562,56.768 30.521,57.509C30.46,58.313 31.268,58.678 31.969,58.594C34.446,58.594 36.516,56.823 36.983,54.471L50.72,54.471C52.024,54.443 52.048,52.499 50.72,52.469C50.72,52.469 36.98,52.469 36.98,52.469C36.572,50.456 34.981,48.867 32.97,48.465L32.97,42.878L46.444,42.878L46.444,42.878Z" style="fill:rgb(180,183,201);fill-rule:nonzero;"/>
            <path d="M15.332,36.759C12.424,36.759 10.059,34.385 10.059,31.466C10.039,30.152 8.078,30.148 8.057,31.466C8.057,35.488 11.321,38.761 15.332,38.761C15.885,38.761 16.333,38.314 16.333,37.76C16.333,37.207 15.885,36.759 15.332,36.759L15.332,36.759Z" style="fill:rgb(180,183,201);fill-rule:nonzero;"/>
        </g>
    </g>
</svg>
