<svg width="500" height="501" viewBox="0 0 500 501" fill="none" xmlns="http://www.w3.org/2000/svg">
<path d="M97.618 408.705H409.538C441.162 387.431 459.403 345.147 453.414 307.506C447.425 269.865 418.19 236.931 381.524 226.522C381.746 202.549 378.261 177.726 368.171 155.978C358.081 134.23 341.774 115.07 320.821 103.419C299.868 91.7666 274.196 88.0816 251.34 95.3176C228.484 102.554 209.103 121.198 202.827 144.336C179.08 138.31 152.996 145.77 135.216 162.625C117.436 179.48 109.081 205.695 113.829 229.73C96.571 231.421 80.937 238.292 68.546 250.422C56.155 262.552 48.063 278.989 46.005 296.206C43.493 317.221 49.817 338.533 59.98 357.098C70.143 375.663 83.863 392.619 97.618 408.705Z" fill="#EEF5FF"/>
<g opacity="0.63">
<path d="M245.935 241.138H244.853V243.302H245.935V241.138Z" fill="#A9CBF7"/>
<path d="M245.935 236.559H244.853V231.979H245.935V236.559ZM245.935 227.399H244.853V222.819H245.935V227.399ZM245.935 218.24H244.853V213.66H245.935V218.24ZM245.935 209.081H244.853V204.501H245.935V209.081ZM245.935 199.922H244.853V195.342H245.935V199.922ZM245.935 190.762H244.853V186.182H245.935V190.762Z" fill="#A9CBF7"/>
<path d="M245.935 181.601H244.853V179.978H243.23V178.896H245.935V181.601Z" fill="#A9CBF7"/>
<path d="M239.232 179.978H235.235V178.896H239.232V179.978ZM231.237 179.978H227.24V178.896H231.237V179.978ZM223.243 179.978H219.246V178.896H223.243V179.978ZM215.248 179.978H211.251V178.896H215.248V179.978ZM207.254 179.978H203.257V178.896H207.254V179.978ZM199.259 179.978H195.262V178.896H199.259V179.978Z" fill="#A9CBF7"/>
<path d="M191.264 179.978H188.559V177.272H189.641V178.896H191.264V179.978Z" fill="#A9CBF7"/>
<path d="M189.641 173.251H188.559V169.229H189.641V173.251ZM189.641 165.208H188.559V161.186H189.641V165.208ZM189.641 157.164H188.559V153.142H189.641V157.164Z" fill="#A9CBF7"/>
<path d="M189.641 149.12H188.559V147.497H186.936V146.415H189.641V149.12Z" fill="#A9CBF7"/>
<path d="M182.461 147.497H177.986V146.415H182.461V147.497ZM173.512 147.497H169.038V146.415H173.512V147.497ZM164.563 147.497H160.088V146.415H164.563V147.497ZM155.614 147.497H151.139V146.415H155.614V147.497ZM146.665 147.497H142.191V146.415H146.665V147.497ZM137.716 147.497H133.241V146.415H137.716V147.497ZM128.767 147.497H124.292V146.415H128.767V147.497ZM119.818 147.497H115.344V146.415H119.818V147.497Z" fill="#A9CBF7"/>
<path d="M109.246 149.12H108.164V146.415H110.869V147.497H109.246V149.12Z" fill="#A9CBF7"/>
<path d="M109.246 188.962H108.164V184.978H109.246V188.962ZM109.246 180.993H108.164V177.009H109.246V180.993ZM109.246 173.025H108.164V169.041H109.246V173.025ZM109.246 165.056H108.164V161.072H109.246V165.056ZM109.246 157.088H108.164V153.104H109.246V157.088Z" fill="#A9CBF7"/>
<path d="M110.869 195.653H108.164V192.947H109.246V194.57H110.869V195.653Z" fill="#A9CBF7"/>
<path d="M115.718 194.569H113.294V195.651H115.718V194.569Z" fill="#A9CBF7"/>
<path d="M120.848 197.275H119.766V195.652H118.142V194.569H120.848V197.275Z" fill="#A9CBF7"/>
<path d="M122.471 258.87H119.766V256.165H120.848V257.788H122.471V258.87Z" fill="#A9CBF7"/>
<path d="M150.096 258.87H145.492V257.788H150.096V258.87ZM140.888 258.87H136.284V257.788H140.888V258.87ZM131.679 258.87H127.075V257.788H131.679V258.87Z" fill="#A9CBF7"/>
<path d="M156.865 257.788H154.701V258.87H156.865V257.788Z" fill="#A9CBF7"/>
<path d="M280.545 160.85H278.381V161.932H280.545V160.85Z" fill="#A9CBF7"/>
<path d="M274.029 161.932H269.676V160.85H274.029V161.932ZM265.323 161.932H260.97V160.85H265.323V161.932ZM256.616 161.932H252.263V160.85H256.616V161.932ZM247.91 161.932H243.558V160.85H247.91V161.932ZM239.205 161.932H234.852V160.85H239.205V161.932Z" fill="#A9CBF7"/>
<path d="M228.875 163.556H227.793V160.85H230.498V161.932H228.875V163.556Z" fill="#A9CBF7"/>
<path d="M228.875 243.899H227.793V239.436H228.875V243.899ZM228.875 234.972H227.793V230.509H228.875V234.972ZM228.875 226.045H227.793V221.582H228.875V226.045ZM228.875 217.118H227.793V212.655H228.875V217.118ZM228.875 208.191H227.793V203.728H228.875V208.191ZM228.875 199.264H227.793V194.801H228.875V199.264ZM228.875 190.337H227.793V185.873H228.875V190.337ZM228.875 181.41H227.793V176.947H228.875V181.41ZM228.875 172.483H227.793V168.02H228.875V172.483Z" fill="#A9CBF7"/>
<path d="M228.875 248.361H227.793V250.525H228.875V248.361Z" fill="#A9CBF7"/>
<path d="M309.507 221.845H308.425V224.009H309.507V221.845Z" fill="#A9CBF7"/>
<path d="M309.507 217.803H308.425V213.76H309.507V217.803ZM309.507 209.716H308.425V205.673H309.507V209.716ZM309.507 201.629H308.425V197.586H309.507V201.629ZM309.507 193.543H308.425V189.5H309.507V193.543Z" fill="#A9CBF7"/>
<path d="M309.507 185.455H308.425V182.75H311.131V183.832H309.507V185.455Z" fill="#A9CBF7"/>
<path d="M316.102 182.75H313.616V183.832H316.102V182.75Z" fill="#A9CBF7"/>
<path d="M321.294 183.832H318.589V182.75H320.212V181.127H321.294V183.832Z" fill="#A9CBF7"/>
<path d="M321.294 176.986H320.212V172.845H321.294V176.986ZM321.294 168.703H320.212V164.561H321.294V168.703Z" fill="#A9CBF7"/>
<path d="M321.294 160.42H320.212V157.715H322.917V158.797H321.294V160.42Z" fill="#A9CBF7"/>
<path d="M345.966 158.797H342.124V157.715H345.966V158.797ZM338.283 158.797H334.441V157.715H338.283V158.797ZM330.599 158.797H326.757V157.715H330.599V158.797Z" fill="#A9CBF7"/>
<path d="M352.513 160.42H351.43V158.797H349.807V157.715H352.513V160.42Z" fill="#A9CBF7"/>
<path d="M352.513 182.961H351.431V179.205H352.513V182.961ZM352.513 175.447H351.431V171.69H352.513V175.447ZM352.513 167.934H351.431V164.178H352.513V167.934Z" fill="#A9CBF7"/>
<path d="M354.136 189.423H351.43V186.717H352.513V188.34H354.136V189.423Z" fill="#A9CBF7"/>
<path d="M380.026 189.423H375.711V188.341H380.026V189.423ZM371.396 189.423H367.081V188.341H371.396V189.423ZM362.766 189.423H358.451V188.341H362.766V189.423Z" fill="#A9CBF7"/>
<path d="M387.045 191.046H385.963V189.423H384.34V188.34H387.045V191.046Z" fill="#A9CBF7"/>
<path d="M387.045 274.308H385.963V270.145H387.045V274.308ZM387.045 265.982H385.963V261.819H387.045V265.982ZM387.045 257.656H385.963V253.493H387.045V257.656ZM387.045 249.329H385.963V245.166H387.045V249.329ZM387.045 241.003H385.963V236.84H387.045V241.003ZM387.045 232.677H385.963V228.514H387.045V232.677ZM387.045 224.351H385.963V220.188H387.045V224.351ZM387.045 216.024H385.963V211.861H387.045V216.024ZM387.045 207.698H385.963V203.535H387.045V207.698ZM387.045 199.372H385.963V195.209H387.045V199.372Z" fill="#A9CBF7"/>
<path d="M388.669 281.177H385.963V278.471H387.045V280.094H388.669V281.177Z" fill="#A9CBF7"/>
<path d="M397.196 280.094H392.933V281.176H397.196V280.094Z" fill="#A9CBF7"/>
<path d="M404.165 282.8H403.083V281.177H401.459V280.094H404.165V282.8Z" fill="#A9CBF7"/>
<path d="M404.165 306.259H403.083V302.349H404.165V306.259ZM404.165 298.44H403.083V294.53H404.165V298.44ZM404.165 290.62H403.083V286.71H404.165V290.62Z" fill="#A9CBF7"/>
<path d="M404.165 312.875H401.459V311.793H403.083V310.17H404.165V312.875Z" fill="#A9CBF7"/>
<path d="M397.141 312.875H392.823V311.793H397.141V312.875ZM388.505 312.875H384.188V311.793H388.505V312.875ZM379.87 312.875H375.552V311.793H379.87V312.875ZM371.233 312.875H366.915V311.793H371.233V312.875ZM362.598 312.875H358.28V311.793H362.598V312.875ZM353.962 312.875H349.644V311.793H353.962V312.875Z" fill="#A9CBF7"/>
<path d="M345.326 312.875H342.621V310.17H343.703V311.793H345.326V312.875Z" fill="#A9CBF7"/>
<path d="M343.703 305.621H342.621V301.072H343.703V305.621ZM343.703 296.525H342.621V291.976H343.703V296.525ZM343.703 287.428H342.621V282.879H343.703V287.428Z" fill="#A9CBF7"/>
<path d="M343.703 278.332H342.621V276.708H340.997V275.626H343.703V278.332Z" fill="#A9CBF7"/>
<path d="M336.533 276.708H332.069V275.626H336.533V276.708ZM327.605 276.708H323.14V275.626H327.605V276.708ZM318.676 276.708H314.212V275.626H318.676V276.708ZM309.748 276.708H305.283V275.626H309.748V276.708ZM300.819 276.708H296.355V275.626H300.819V276.708Z" fill="#A9CBF7"/>
<path d="M291.89 275.626H289.726V276.708H291.89V275.626Z" fill="#A9CBF7"/>
<path d="M95.7089 281.248H93.5449V282.33H95.7089V281.248Z" fill="#A9CBF7"/>
<path d="M79.5818 282.33V281.248H83.0718V282.33H79.5818ZM86.5618 282.33V281.248H90.0528V282.33H86.5618Z" fill="#A9CBF7"/>
<path d="M73.387 282.33V279.625H74.469V281.248H76.092V282.33H73.387Z" fill="#A9CBF7"/>
<path d="M73.387 275.608V271.591H74.469V275.608H73.387ZM73.387 267.574V263.557H74.469V267.574H73.387Z" fill="#A9CBF7"/>
<path d="M71.7639 257.915V256.833H74.4689V259.539H73.3869V257.915H71.7639Z" fill="#A9CBF7"/>
<path d="M66.784 256.833H61.804V257.915H66.784V256.833Z" fill="#A9CBF7"/>
<path d="M54.1189 257.915V255.21H55.2009V256.833H56.8239V257.915H54.1189Z" fill="#A9CBF7"/>
<path d="M54.1189 251.213V247.216H55.2009V251.213H54.1189ZM54.1189 243.218V239.221H55.2009V243.218H54.1189ZM54.1189 235.223V231.226H55.2009V235.223H54.1189Z" fill="#A9CBF7"/>
<path d="M54.1189 227.226V224.521H56.8239V225.603H55.2009V227.226H54.1189Z" fill="#A9CBF7"/>
<path d="M60.6748 225.603V224.521H64.5258V225.603H60.6748ZM68.3788 225.603V224.521H72.2298V225.603H68.3788ZM76.0808 225.603V224.521H79.9328V225.603H76.0808ZM83.7838 225.603V224.521H87.6348V225.603H83.7838Z" fill="#A9CBF7"/>
<path d="M91.4858 225.603V224.521H93.1088V222.897H94.1908V225.603H91.4858Z" fill="#A9CBF7"/>
<path d="M93.1089 219.438V215.977H94.1909V219.438H93.1089ZM93.1089 212.517V209.056H94.1909V212.517H93.1089Z" fill="#A9CBF7"/>
<path d="M93.1089 205.595V202.89H95.8149V203.972H94.1909V205.595H93.1089Z" fill="#A9CBF7"/>
<path d="M103.997 202.89H99.907V203.972H103.997V202.89Z" fill="#A9CBF7"/>
<path d="M112.178 202.89H108.088V203.972H112.178V202.89Z" fill="#A9CBF7"/>
<path d="M128.539 202.89H124.449V203.972H128.539V202.89Z" fill="#A9CBF7"/>
<path d="M120.359 202.89H116.269V203.972H120.359V202.89Z" fill="#A9CBF7"/>
<path d="M133.271 202.896H131.107V203.978H133.271V202.896Z" fill="#A9CBF7"/>
</g>
<path d="M101.249 267.723C103.423 270.803 107.682 271.537 110.761 269.363L112.817 267.911C115.023 269.713 117.459 271.152 120.037 272.205L119.672 274.322C119.032 278.037 121.524 281.568 125.239 282.208C128.954 282.848 132.485 280.356 133.125 276.641L133.553 274.156C136.313 273.884 139.06 273.197 141.693 272.089L142.933 273.846C145.107 276.926 149.366 277.66 152.445 275.486C155.525 273.312 156.259 269.053 154.085 265.974L152.634 263.919C154.436 261.713 155.875 259.277 156.927 256.699L156.928 256.697L159.044 257.062C162.759 257.703 166.289 255.21 166.93 251.495C167.571 247.78 165.078 244.25 161.363 243.609L158.878 243.181C158.605 240.421 157.919 237.674 156.81 235.041L158.567 233.801C161.647 231.627 162.381 227.368 160.207 224.289C158.033 221.209 153.774 220.475 150.695 222.649L148.635 224.103L148.634 224.102C146.434 222.296 144.001 220.862 141.418 219.813L141.784 217.69C142.425 213.975 139.932 210.445 136.217 209.804C132.502 209.163 128.972 211.656 128.331 215.371L127.902 217.857C125.143 218.13 122.396 218.816 119.764 219.924L118.523 218.166C116.349 215.086 112.09 214.352 109.011 216.526C105.931 218.7 105.197 222.959 107.371 226.038L108.826 228.099L108.824 228.101C107.019 230.301 105.584 232.733 104.535 235.316L102.412 234.95C98.697 234.31 95.167 236.802 94.526 240.517C93.885 244.232 96.378 247.762 100.093 248.403L102.579 248.832C102.851 251.592 103.538 254.338 104.646 256.971L102.888 258.212C99.809 260.385 99.075 264.643 101.249 267.723ZM119.01 229.403C128.177 222.932 140.859 225.114 147.333 234.286C153.804 243.453 151.617 256.138 142.45 262.609C133.283 269.08 120.598 266.893 114.127 257.726C107.652 248.554 109.843 235.874 119.01 229.403Z" fill="#CFE5FF"/>
<path d="M141.224 238.599C145.315 244.394 143.933 252.409 138.138 256.5C132.343 260.591 124.323 259.213 120.232 253.417C116.141 247.622 117.524 239.598 123.32 235.507C129.115 231.417 137.133 232.804 141.224 238.599Z" fill="#CFE5FF"/>
<path d="M157.036 211.986C157.657 213.703 159.553 214.592 161.27 213.971L162.417 213.556C163.217 214.68 164.17 215.665 165.24 216.487L164.798 217.429C164.023 219.082 164.735 221.051 166.388 221.826C168.041 222.601 170.01 221.889 170.785 220.236L171.303 219.13C172.627 219.356 173.999 219.388 175.371 219.207L175.725 220.186C176.346 221.903 178.242 222.792 179.959 222.171C181.676 221.55 182.565 219.654 181.944 217.937L181.53 216.791C182.654 215.991 183.639 215.038 184.461 213.968L184.462 213.967L185.404 214.408C187.057 215.183 189.026 214.471 189.801 212.818C190.576 211.165 189.864 209.196 188.211 208.421L187.105 207.903C187.331 206.579 187.362 205.207 187.182 203.835L188.162 203.481C189.879 202.86 190.768 200.964 190.147 199.247C189.526 197.53 187.63 196.641 185.913 197.262L184.764 197.677L184.763 197.676C183.966 196.55 183.014 195.569 181.941 194.748L182.384 193.803C183.159 192.15 182.447 190.181 180.794 189.406C179.141 188.631 177.172 189.343 176.397 190.996L175.878 192.103C174.554 191.877 173.183 191.846 171.811 192.026L171.456 191.046C170.835 189.329 168.939 188.44 167.222 189.061C165.505 189.682 164.616 191.578 165.237 193.295L165.653 194.444L165.652 194.445C164.527 195.241 163.545 196.194 162.724 197.266L161.779 196.823C160.126 196.048 158.157 196.76 157.382 198.413C156.607 200.066 157.319 202.035 158.972 202.81L160.079 203.329C159.853 204.653 159.822 206.024 160.002 207.396L159.022 207.751C157.303 208.373 156.415 210.268 157.036 211.986ZM170.242 196.359C175.354 194.51 180.999 197.154 182.849 202.269C184.698 207.381 182.051 213.027 176.939 214.875C171.827 216.724 166.181 214.077 164.333 208.965C162.483 203.851 165.131 198.208 170.242 196.359Z" fill="#CFE5FF"/>
<path d="M179.442 203.501C180.611 206.733 178.939 210.3 175.707 211.469C172.475 212.638 168.905 210.967 167.737 207.735C166.568 204.503 168.242 200.932 171.474 199.763C174.705 198.594 178.273 200.269 179.442 203.501Z" fill="#CFE5FF"/>
<path d="M324.798 236.932C326.359 239.143 329.417 239.67 331.628 238.11L333.105 237.068C334.689 238.362 336.438 239.395 338.289 240.151L338.027 241.671C337.567 244.338 339.357 246.874 342.024 247.333C344.691 247.793 347.227 246.003 347.686 243.336L347.994 241.552C349.976 241.356 351.948 240.863 353.839 240.068L354.729 241.329C356.29 243.54 359.348 244.068 361.559 242.507C363.77 240.946 364.297 237.888 362.736 235.677L361.694 234.201C362.988 232.617 364.021 230.868 364.777 229.017L364.778 229.016L366.297 229.278C368.964 229.738 371.5 227.948 371.959 225.281C372.419 222.614 370.629 220.079 367.962 219.619L366.178 219.311C365.982 217.329 365.489 215.357 364.693 213.466L365.955 212.575C368.166 211.014 368.694 207.956 367.133 205.745C365.572 203.534 362.514 203.006 360.303 204.568L358.824 205.612L358.823 205.611C357.243 204.314 355.496 203.284 353.641 202.531L353.904 201.007C354.364 198.34 352.574 195.804 349.907 195.345C347.24 194.885 344.704 196.675 344.245 199.342L343.937 201.127C341.956 201.323 339.984 201.816 338.093 202.611L337.202 201.349C335.641 199.138 332.583 198.611 330.372 200.171C328.161 201.732 327.634 204.79 329.194 207.001L330.239 208.481L330.238 208.482C328.942 210.062 327.912 211.808 327.159 213.663L325.634 213.4C322.967 212.94 320.431 214.73 319.972 217.397C319.512 220.064 321.302 222.6 323.969 223.059L325.754 223.367C325.95 225.349 326.443 227.321 327.238 229.211L325.976 230.102C323.764 231.663 323.237 234.72 324.798 236.932ZM337.551 209.417C344.133 204.771 353.239 206.337 357.888 212.923C362.534 219.505 360.964 228.614 354.382 233.26C347.8 237.907 338.691 236.336 334.045 229.754C329.395 223.168 330.968 214.063 337.551 209.417Z" fill="#CFE5FF"/>
<path d="M353.501 216.019C356.438 220.18 355.446 225.935 351.285 228.873C347.124 231.811 341.365 230.821 338.428 226.66C335.49 222.499 336.484 216.738 340.645 213.8C344.806 210.862 350.563 211.858 353.501 216.019Z" fill="#CFE5FF"/>
<path d="M383.705 293.949C383.588 297.099 383.472 300.249 383.357 303.4C383.278 305.51 383.2 307.621 383.123 309.731C383.146 309.913 383.172 310.088 383.197 310.259C383.034 313.89 382.869 317.519 382.704 321.149C382.67 321.907 382.634 322.669 382.599 323.428C382.539 324.792 382.478 326.157 382.414 327.523C382.397 327.925 382.377 328.326 382.36 328.728C382.332 329.326 382.306 329.922 382.278 330.518C388.424 331.914 394.568 333.309 400.713 334.705C402.901 334.702 415.176 334.48 424.853 324.513C425.329 324.022 425.782 323.526 426.21 323.026C434.122 313.821 434.343 303.287 434.342 301.052C432.556 302.95 427.765 307.529 420.061 309.16C416.323 309.955 413.022 309.816 410.542 309.453C409.6 309.315 408.781 309.145 408.099 308.982C408.061 308.974 408.027 308.965 407.991 308.956C411.816 308.04 416.766 306.457 422.12 303.601C426.731 301.143 430.363 298.425 433.068 296.084C432.974 294.025 432.781 290.902 432.359 287.117C432.319 286.753 432.277 286.394 432.237 286.046C432.201 285.75 432.165 285.458 432.13 285.175C431.961 283.847 431.791 282.643 431.618 281.548C431.561 281.182 431.505 280.828 431.447 280.484C430.987 277.719 430.542 275.645 430.217 273.828C430.179 273.615 430.143 273.408 430.108 273.2C429.998 272.541 429.906 271.91 429.836 271.284C429.322 266.614 429.864 259.817 434.856 250.857C435.058 250.498 435.266 250.131 435.484 249.761C435.073 249.966 434.63 250.185 434.159 250.42C434.156 250.419 434.155 250.422 434.155 250.422C426.397 252.28 418.122 255.228 410.281 259.903C410.256 259.918 410.231 259.933 410.205 259.949C410.028 260.057 409.85 260.164 409.674 260.27C409.649 260.285 409.624 260.3 409.598 260.316C408.395 261.051 407.203 261.827 406.025 262.648C405.81 262.798 405.595 262.95 405.382 263.101C401.964 265.538 398.672 268.351 395.593 271.597C394.769 272.466 393.98 273.347 393.222 274.234C392.641 274.936 392.095 275.64 391.586 276.34C391.386 276.613 391.191 276.885 391.003 277.155C387.359 282.382 385.594 287.271 384.842 289.643C384.374 291.115 384 292.554 383.705 293.949Z" fill="#092C24"/>
<path d="M391.058 309.935C392.142 312.158 392.773 314.538 392.944 317.01C391.819 318.209 390.664 319.413 389.48 320.622C387.109 323.035 384.751 325.335 382.415 327.522C382.398 327.924 382.378 328.325 382.361 328.727C386.861 324.561 391.433 320.042 396.01 315.144C397.71 313.326 399.353 311.516 400.944 309.716C402.503 309.9 404.076 309.973 405.64 309.936C407.279 309.896 408.924 309.735 410.543 309.453C409.601 309.315 408.782 309.145 408.1 308.982C407.277 309.067 406.449 309.118 405.621 309.139C404.265 309.171 402.902 309.117 401.55 308.979C405.914 303.6 409.345 297.916 411.812 291.974C415.569 291.943 419.29 291.38 422.881 290.291C426.177 289.291 429.317 287.867 432.237 286.046C432.201 285.75 432.165 285.458 432.13 285.175C429.178 287.051 425.998 288.515 422.648 289.528C422.539 289.562 422.427 289.593 422.317 289.626C424.443 288.348 426.43 286.853 428.246 285.161C429.451 284.038 430.579 282.831 431.617 281.548C431.56 281.182 431.504 280.828 431.446 280.484C430.309 281.949 429.053 283.318 427.701 284.579C425.188 286.919 422.341 288.876 419.24 290.393C416.906 290.872 414.528 291.134 412.137 291.173C413.136 288.671 413.96 286.195 414.826 283.585C415.442 281.721 416.067 279.841 416.766 277.927C418.515 277.625 420.262 277.238 421.971 276.774C424.779 276.012 427.548 275.02 430.215 273.828C430.177 273.615 430.141 273.408 430.106 273.2C427.425 274.409 424.637 275.41 421.808 276.179C420.234 276.606 418.625 276.967 417.012 277.257C418.867 272.288 421.281 267.076 425.465 261.325C428.211 257.549 431.366 254.031 434.854 250.857C435.056 250.498 435.264 250.131 435.482 249.761C435.071 249.966 434.628 250.185 434.157 250.42C434.154 250.419 434.153 250.422 434.153 250.422C430.691 253.591 427.555 257.096 424.821 260.855C420.458 266.855 418.001 272.261 416.106 277.411C416.05 277.421 415.993 277.43 415.936 277.439L415.985 277.743C414.988 275.283 413.797 272.92 412.427 270.678L412.491 270.68C412.556 269.262 412.509 267.397 412.083 265.264C411.636 263.029 410.917 261.216 410.279 259.902C410.254 259.917 410.229 259.932 410.203 259.948C410.026 260.056 409.848 260.163 409.672 260.269C409.647 260.284 409.622 260.299 409.596 260.315C410.211 261.59 410.884 263.309 411.3 265.41C411.607 266.967 411.701 268.366 411.701 269.523C411.175 268.693 410.576 267.825 409.898 266.939C408.594 265.235 407.263 263.815 406.023 262.648C405.808 262.798 405.593 262.95 405.38 263.101C406.643 264.322 407.964 265.753 409.26 267.418C412.475 271.547 414.397 275.64 415.575 278.883C415.046 280.384 414.556 281.865 414.066 283.335C413.143 286.125 412.269 288.762 411.175 291.427C409.704 295.011 407.879 298.5 405.705 301.885C405.149 296.589 403.476 291.428 400.829 286.888C399.879 285.258 398.768 283.732 398.768 283.732C397.918 282.555 396.874 281.264 395.605 279.942C394.204 278.483 392.827 277.295 391.583 276.34C391.562 276.324 391.542 276.309 391.522 276.294C391.305 276.553 391.09 276.812 390.873 277.071C390.915 277.099 390.956 277.127 391 277.155C392.07 277.872 393.275 278.789 394.505 279.955C396.124 281.489 397.329 283.019 398.207 284.312C398.207 284.312 399.246 285.753 400.14 287.288C402.895 292.013 404.571 297.429 405 302.958C403.66 304.968 402.194 306.94 400.605 308.87C400.405 309.11 400.205 309.351 400.005 309.59C398.072 311.887 395.964 314.126 393.684 316.307C393.446 313.965 392.806 311.706 391.77 309.584C391.374 308.771 390.969 308.083 390.611 307.529C390.594 307.5 390.319 307.075 390.081 306.747C389 305.251 387.567 304.222 387.305 304.037C385.827 302.992 384.397 302.473 383.419 302.204C383.398 302.602 383.375 303.001 383.355 303.4C384.593 303.789 387.748 304.921 389.535 307.351C389.918 307.869 390.518 308.828 391.058 309.935Z" fill="#245558"/>
<path d="M388.168 338.254C385.248 343.069 382.328 347.884 379.408 352.699C383.847 349.891 388.285 347.083 392.724 344.275C401.72 338.219 430.757 315.653 443.233 294.882C446.805 288.936 451.344 278.107 446.7 271.395C440.08 261.829 426.347 279.335 419.417 288.011C418.838 288.736 418.306 289.399 417.83 289.979C413.861 294.823 410.35 300.222 407.08 305.548C402.441 313.099 396.487 323.274 391.601 332.017C390.377 334.207 389.22 336.308 388.168 338.254Z" fill="#3D8E94"/>
<path d="M379.334 352.958C379.286 352.944 379.242 352.917 379.206 352.877C379.107 352.765 379.118 352.595 379.229 352.496C394.853 338.668 409.004 323.202 421.289 306.529C427.392 298.247 433.126 289.536 438.332 280.639C438.407 280.51 438.573 280.467 438.701 280.542C438.83 280.617 438.873 280.783 438.798 280.911C433.582 289.824 427.838 298.551 421.724 306.848C409.416 323.552 395.24 339.046 379.587 352.9C379.515 352.964 379.419 352.983 379.334 352.958Z" fill="#245558"/>
<path d="M379.274 354.27C379.838 354.115 380.402 353.961 380.966 353.804C386.2 352.366 391.434 350.927 396.668 349.487C401.597 348.082 408.941 345.991 417.932 343.398C421.315 342.421 424.697 341.446 428.079 340.475C430.385 339.813 432.703 339.188 435.024 338.57C442.045 336.697 449.09 334.892 455.913 332.377C467.171 328.227 473.266 325.426 476.095 321.271C476.72 320.353 478.292 318.044 478.115 315.044C478.115 315.044 478.031 312.603 476.472 310.484C469.244 300.664 441.076 310.342 431.632 315.789C417.654 323.854 405.072 333.917 392.089 343.44C387.818 347.05 383.546 350.659 379.274 354.27Z" fill="#317277"/>
<path d="M379.2 354.529C379.138 354.511 379.081 354.471 379.045 354.411C378.967 354.284 379.006 354.118 379.133 354.04C396.153 343.548 414.147 334.438 432.615 326.964C443.504 322.557 454.748 318.644 466.032 315.334C466.175 315.292 466.325 315.374 466.367 315.517C466.409 315.66 466.327 315.81 466.184 315.852C454.916 319.157 443.69 323.063 432.817 327.464C414.376 334.927 396.409 344.023 379.415 354.5C379.349 354.541 379.271 354.549 379.2 354.529Z" fill="#3D8E94"/>
<path d="M375.815 349.746C377.111 345.053 379.087 338.08 381.668 329.664C384.457 320.568 388.55 311.215 394.942 292.285C396.285 288.307 402.453 269.971 410.489 267.557C411.235 267.333 413.374 266.69 415.44 267.624C418.455 268.987 419.374 272.834 419.737 274.351C423.424 289.778 407.102 314.548 407.102 314.548C402.752 321.744 396.714 330.172 388.411 338.572C384.1 342.933 379.829 346.628 375.815 349.746Z" fill="#317277"/>
<path d="M375.741 350.005C375.717 349.998 375.694 349.988 375.671 349.974C375.545 349.895 375.507 349.728 375.586 349.602C385.246 334.252 393.815 318.077 401.054 301.525C404.51 293.621 407.726 285.488 410.61 277.351C410.66 277.211 410.812 277.14 410.955 277.187C411.095 277.237 411.169 277.391 411.119 277.532C408.23 285.681 405.01 293.826 401.549 301.742C394.3 318.319 385.718 334.518 376.043 349.891C375.978 349.994 375.853 350.038 375.741 350.005Z" fill="#3D8E94"/>
<path d="M403.58 358.622C403.58 358.622 417.243 358.846 423.56 358.831C437.669 358.797 453.745 359.753 462.906 350.863C465.015 348.817 466.958 346.006 466.566 342.628C466.326 340.563 465.217 338.612 463.835 337.107C459.15 332.004 447.437 333.121 441.471 333.745C429.788 334.967 396.063 348.688 396.063 348.688C390.048 351.591 384.032 354.495 378.017 357.398C386.537 357.806 395.059 358.214 403.58 358.622Z" fill="#3D8E94"/>
<path d="M377.942 357.657C377.847 357.63 377.771 357.552 377.751 357.449C377.723 357.303 377.818 357.161 377.965 357.133L456.013 342.045C456.159 342.017 456.301 342.112 456.329 342.259C456.357 342.405 456.262 342.547 456.115 342.575L378.067 357.663C378.024 357.671 377.982 357.668 377.942 357.657Z" fill="#245558"/>
<path d="M125.771 339.567C127.546 344.911 129.321 350.255 131.096 355.599C127.394 351.873 123.692 348.148 119.989 344.422C112.566 336.515 89.2821 308.052 81.7421 285.025C79.5841 278.433 77.5691 266.866 83.5901 261.355C92.1731 253.502 101.665 273.626 106.49 283.627C106.893 284.463 107.264 285.228 107.599 285.899C110.39 291.505 112.611 297.55 114.614 303.47C117.456 311.865 120.995 323.109 123.813 332.721C124.518 335.13 125.178 337.435 125.771 339.567Z" fill="#3D8E94"/>
<path d="M131.111 355.869C131.161 355.866 131.21 355.85 131.253 355.819C131.374 355.732 131.402 355.564 131.315 355.442C119.161 338.483 108.808 320.256 100.543 301.266C96.4372 291.833 92.7862 282.065 89.6912 272.232C89.6462 272.09 89.4952 272.011 89.3532 272.056C89.2112 272.101 89.1322 272.252 89.1772 272.394C92.2782 282.245 95.9362 292.031 100.049 301.481C108.33 320.506 118.702 338.767 130.877 355.757C130.932 355.834 131.022 355.873 131.111 355.869Z" fill="#245558"/>
<path d="M130.876 357.162C130.361 356.886 129.845 356.609 129.33 356.331C124.548 353.764 119.765 351.196 114.983 348.628C110.49 346.161 103.796 342.488 95.608 337.958C92.528 336.253 89.447 334.549 86.366 332.849C84.265 331.69 82.144 330.565 80.019 329.446C73.591 326.057 67.124 322.73 61.032 318.758C50.98 312.206 45.661 308.119 43.829 303.438C43.424 302.404 42.406 299.803 43.246 296.918C43.246 296.918 43.871 294.557 45.863 292.838C55.095 284.873 80.403 300.578 88.397 307.991C100.229 318.965 110.256 331.577 120.793 343.75C124.154 348.221 127.515 352.69 130.876 357.162Z" fill="#317277"/>
<path d="M130.891 357.431C130.956 357.427 131.02 357.401 131.069 357.351C131.173 357.245 131.172 357.074 131.066 356.969C116.809 342.951 101.294 330.065 84.953 318.667C75.318 311.947 65.227 305.629 54.963 299.891C54.833 299.818 54.669 299.865 54.596 299.995C54.523 300.125 54.57 300.29 54.7 300.362C64.949 306.092 75.0239 312.399 84.6449 319.11C100.962 330.491 116.453 343.358 130.689 357.354C130.743 357.409 130.818 357.435 130.891 357.431Z" fill="#3D8E94"/>
<path d="M106.212 355.994C106.212 355.994 92.8419 353.171 86.6869 351.75C72.9389 348.576 57.0539 345.93 50.1009 335.223C48.5009 332.759 47.2309 329.586 48.3659 326.38C49.0599 324.42 50.5749 322.765 52.2579 321.605C57.9609 317.673 69.1319 321.369 74.8099 323.305C85.9279 327.097 115.752 347.98 115.752 347.98C120.97 352.15 126.188 356.319 131.407 360.489C123.008 358.992 114.61 357.493 106.212 355.994Z" fill="#3D8E94"/>
<path d="M131.421 360.76C131.519 360.755 131.611 360.696 131.654 360.6C131.714 360.464 131.652 360.304 131.516 360.244L58.7849 328.161C58.6489 328.101 58.4889 328.163 58.4289 328.299C58.3689 328.435 58.4309 328.595 58.5669 328.655L131.298 360.738C131.338 360.755 131.38 360.762 131.421 360.76Z" fill="#245558"/>
<path d="M169.607 341.351H66.824C65.188 341.351 63.863 340.025 63.863 338.39V327.645C63.863 326.009 65.189 324.684 66.824 324.684H169.607C171.243 324.684 172.568 326.01 172.568 327.645V338.39C172.569 340.025 171.243 341.351 169.607 341.351Z" fill="#297EEC"/>
<path d="M168.039 341.351H68.3921V358.019H168.039V341.351Z" fill="#4095F2"/>
<path d="M169.607 374.688H66.824C65.188 374.688 63.863 373.362 63.863 371.727V360.982C63.863 359.347 65.189 358.021 66.824 358.021H169.607C171.243 358.021 172.568 359.347 172.568 360.982V371.727C172.569 373.362 171.243 374.688 169.607 374.688Z" fill="#297EEC"/>
<path d="M169.607 408.023H66.824C65.188 408.023 63.863 406.697 63.863 405.062V394.317C63.863 392.681 65.189 391.356 66.824 391.356H169.607C171.243 391.356 172.568 392.682 172.568 394.317V405.062C172.569 406.697 171.243 408.023 169.607 408.023Z" fill="#297EEC"/>
<path d="M168.039 374.688H68.3921V391.355H168.039V374.688Z" fill="#4095F2"/>
<path d="M394.423 376.854H179.192C178.902 376.854 178.668 376.619 178.668 376.33V225.396C178.668 225.106 178.903 224.872 179.192 224.872H394.423C394.713 224.872 394.947 225.107 394.947 225.396V376.33C394.947 376.62 394.713 376.854 394.423 376.854Z" fill="#4095F2"/>
<path d="M389.888 229.991H183.728V354.613H389.888V229.991Z" fill="#EEF5FF"/>
<path d="M368.365 336.24H205.25C204.997 336.24 204.792 336.035 204.792 335.782V247.395C204.792 247.142 204.997 246.937 205.25 246.937H368.364C368.617 246.937 368.822 247.142 368.822 247.395V335.782C368.823 336.035 368.618 336.24 368.365 336.24Z" fill="#A9CBF7"/>
<path d="M212.206 252.497C212.206 251.473 211.376 250.644 210.353 250.644C209.329 250.644 208.5 251.474 208.5 252.497C208.5 253.521 209.33 254.35 210.353 254.35C211.376 254.351 212.206 253.521 212.206 252.497Z" fill="white"/>
<path d="M218.898 252.497C218.898 251.473 218.068 250.644 217.045 250.644C216.021 250.644 215.192 251.474 215.192 252.497C215.192 253.521 216.022 254.35 217.045 254.35C218.068 254.351 218.898 253.521 218.898 252.497Z" fill="white"/>
<path d="M225.59 252.497C225.59 251.473 224.76 250.644 223.737 250.644C222.713 250.644 221.884 251.474 221.884 252.497C221.884 253.521 222.714 254.35 223.737 254.35C224.76 254.351 225.59 253.521 225.59 252.497Z" fill="white"/>
<path d="M270.28 374.912L255.217 406.862C255.217 406.862 255.394 409.098 256.865 409.098H325.178V406.862H294.993L310.174 374.294L270.28 374.912Z" fill="#297EEC"/>
<path d="M294.993 406.922H257.924C257.696 406.922 257.511 406.737 257.511 406.509C257.511 406.281 257.696 406.096 257.924 406.096H294.993C295.221 406.096 295.406 406.281 295.406 406.509C295.405 406.737 295.221 406.922 294.993 406.922Z" fill="#9BB8BC"/>
<path d="M267.113 167.77C266.738 167.484 266.321 167.252 265.876 167.076V138.121H261.989V167.073C261.545 167.249 261.129 167.48 260.753 167.763C259.466 168.723 258.635 170.262 258.635 171.991C258.635 174.919 261.005 177.288 263.926 177.288C266.861 177.288 269.23 174.918 269.23 171.991C269.231 170.262 268.401 168.73 267.113 167.77ZM263.927 174.532C262.531 174.532 261.387 173.395 261.387 171.992C261.387 170.589 262.531 169.452 263.927 169.452C265.337 169.452 266.467 170.589 266.467 171.992C266.466 173.394 265.336 174.531 263.927 174.532ZM280.775 156.041L280.287 154.904C277.984 149.535 276.634 143.903 276.225 138.121H272.317C272.732 144.434 274.203 150.579 276.715 156.436L277.202 157.572C276.233 158.527 275.627 159.853 275.627 161.326C275.627 164.254 277.997 166.624 280.918 166.624C283.846 166.624 286.215 164.254 286.215 161.326C286.215 159.597 285.384 158.064 284.104 157.104C283.219 156.43 282.116 156.035 280.918 156.035C280.869 156.035 280.822 156.04 280.775 156.041ZM283.457 161.326C283.457 162.728 282.32 163.866 280.917 163.866C279.521 163.866 278.377 162.729 278.377 161.326C278.377 159.93 279.521 158.786 280.917 158.786C282.319 158.786 283.457 159.93 283.457 161.326ZM237.388 167.77C237.013 167.484 236.596 167.252 236.151 167.076V138.121H232.264V167.073C231.82 167.249 231.404 167.48 231.028 167.763C229.741 168.723 228.91 170.262 228.91 171.991C228.91 174.919 231.28 177.288 234.201 177.288C237.136 177.288 239.505 174.918 239.505 171.991C239.506 170.262 238.675 168.73 237.388 167.77ZM234.202 174.532C232.806 174.532 231.662 173.395 231.662 171.992C231.662 170.589 232.806 169.452 234.202 169.452C235.612 169.452 236.742 170.589 236.742 171.992C236.741 173.394 235.611 174.531 234.202 174.532ZM217.225 166.624C220.146 166.624 222.516 164.254 222.516 161.326C222.516 159.853 221.91 158.527 220.941 157.572L221.428 156.436C223.939 150.579 225.411 144.433 225.826 138.121H221.918C221.509 143.903 220.158 149.535 217.856 154.904L217.368 156.041C217.32 156.04 217.273 156.035 217.226 156.035C216.028 156.035 214.925 156.43 214.04 157.104C212.76 158.064 211.929 159.596 211.929 161.326C211.927 164.254 214.297 166.624 217.225 166.624ZM217.225 158.786C218.621 158.786 219.765 159.93 219.765 161.326C219.765 162.728 218.621 163.866 217.225 163.866C215.823 163.866 214.685 162.729 214.685 161.326C214.685 159.93 215.822 158.786 217.225 158.786Z" fill="#297EEC"/>
<path d="M252.252 173.31C251.876 173.023 251.457 172.793 251.015 172.614V138.122H247.126V172.609C246.684 172.788 246.265 173.018 245.889 173.3C244.605 174.259 243.773 175.802 243.773 177.527C243.773 180.457 246.143 182.827 249.063 182.827C251.997 182.827 254.367 180.457 254.367 177.527C254.368 175.802 253.54 174.269 252.252 173.31ZM249.064 180.072C247.667 180.072 246.525 178.934 246.525 177.528C246.525 176.127 247.668 174.989 249.064 174.989C250.475 174.989 251.603 176.127 251.603 177.528C251.603 178.934 250.474 180.072 249.064 180.072Z" fill="#297EEC"/>
<path d="M295.604 83.0844C294.002 67.8844 281.146 56.0374 265.521 56.0374C259.791 56.0374 254.434 57.6314 249.867 60.3984C245.271 57.1734 239.676 55.2744 233.635 55.2744C219.216 55.2744 207.325 66.0604 205.568 80.0024C193.401 83.8354 184.577 95.2054 184.577 108.638C184.577 125.217 198.017 138.657 214.596 138.658L214.597 138.66H284.71L284.708 138.658H284.71C300.646 138.658 313.564 125.739 313.564 109.804C313.565 97.7234 306.138 87.3834 295.604 83.0844Z" fill="#1685FF"/>
<path d="M281.496 109.472C280.888 105.28 279.496 101.292 277.349 97.6196C275.207 93.9486 272.418 90.7766 269.064 88.1896C265.584 85.5106 261.656 83.5876 257.382 82.4636C253.103 81.3406 248.736 81.0936 244.396 81.7186C240.205 82.3266 236.216 83.7186 232.545 85.8666C228.874 88.0086 225.701 90.7976 223.115 94.1566C220.436 97.6306 218.512 101.559 217.389 105.833C216.266 110.107 216.019 114.479 216.644 118.819C217.252 123.01 218.644 126.999 220.791 130.671C222.939 134.342 225.728 137.514 229.081 140.101C232.555 142.78 236.484 144.703 240.757 145.827C245.031 146.95 249.403 147.197 253.743 146.572C257.934 145.964 261.923 144.572 265.594 142.424C269.265 140.276 272.438 137.487 275.024 134.134C277.703 130.66 279.626 126.731 280.75 122.458C281.875 118.184 282.121 113.812 281.496 109.472ZM271.568 120.049C268.311 132.452 255.576 139.895 243.169 136.643C230.766 133.386 223.322 120.651 226.575 108.243C229.832 95.8396 242.567 88.3966 254.974 91.6486C260.98 93.2256 266.016 97.0486 269.152 102.412C272.286 107.776 273.14 114.038 271.568 120.049Z" fill="white"/>
<path d="M239.604 129.612C239.604 130.026 239.269 130.361 238.855 130.361C238.441 130.361 238.106 130.026 238.106 129.612C238.106 129.198 238.441 128.863 238.855 128.863C239.269 128.863 239.604 129.198 239.604 129.612Z" fill="white"/>
<path d="M243.69 129.612C243.69 130.026 243.355 130.361 242.941 130.361C242.527 130.361 242.192 130.026 242.192 129.612C242.192 129.198 242.527 128.863 242.941 128.863C243.355 128.863 243.69 129.198 243.69 129.612Z" fill="white"/>
<path d="M247.777 129.612C247.777 130.026 247.442 130.361 247.028 130.361C246.614 130.361 246.279 130.026 246.279 129.612C246.279 129.198 246.614 128.863 247.028 128.863C247.441 128.863 247.777 129.198 247.777 129.612Z" fill="white"/>
<path d="M251.863 129.612C251.863 130.026 251.528 130.361 251.114 130.361C250.7 130.361 250.365 130.026 250.365 129.612C250.365 129.198 250.7 128.863 251.114 128.863C251.527 128.863 251.863 129.198 251.863 129.612Z" fill="white"/>
<path d="M256.198 129.612C256.198 130.163 255.751 130.61 255.199 130.61C254.648 130.61 254.201 130.163 254.201 129.612C254.201 129.061 254.648 128.614 255.199 128.614C255.751 128.613 256.198 129.06 256.198 129.612Z" fill="white"/>
<path d="M260.035 129.612C260.035 130.026 259.7 130.361 259.286 130.361C258.872 130.361 258.537 130.026 258.537 129.612C258.537 129.198 258.872 128.863 259.286 128.863C259.699 128.863 260.035 129.198 260.035 129.612Z" fill="white"/>
<path d="M64.8569 200.458H61.8509V197.441C61.8509 196.791 61.3239 196.27 60.6739 196.27C60.0219 196.27 59.4999 196.792 59.4999 197.441V200.458H56.4919C55.8419 200.458 55.3179 200.974 55.3179 201.624C55.3179 202.274 55.8429 202.806 56.4919 202.806H59.4999V205.809C59.4999 206.458 60.0219 206.988 60.6739 206.988C61.3239 206.988 61.8509 206.458 61.8509 205.809V202.806H64.8569C65.5069 202.806 66.0339 202.274 66.0339 201.624C66.0329 200.974 65.5059 200.458 64.8569 200.458Z" fill="#CBDBEF"/>
<path d="M432.43 187.299H429.424V184.283C429.424 183.633 428.897 183.112 428.247 183.112C427.595 183.112 427.073 183.634 427.073 184.283V187.299H424.065C423.415 187.299 422.891 187.815 422.891 188.465C422.891 189.115 423.416 189.647 424.065 189.647H427.073V192.65C427.073 193.299 427.595 193.829 428.247 193.829C428.897 193.829 429.424 193.299 429.424 192.65V189.647H432.43C433.08 189.647 433.607 189.115 433.607 188.465C433.607 187.816 433.08 187.299 432.43 187.299Z" fill="#CBDBEF"/>
<path d="M382.095 110.521C382.095 113.415 384.451 115.771 387.342 115.771C390.236 115.771 392.589 113.415 392.589 110.521C392.589 107.63 390.236 105.271 387.342 105.271C384.451 105.271 382.095 107.63 382.095 110.521ZM384.108 110.521C384.108 108.737 385.559 107.284 387.343 107.284C389.129 107.284 390.578 108.738 390.578 110.521C390.578 112.307 389.13 113.756 387.343 113.756C385.559 113.756 384.108 112.308 384.108 110.521Z" fill="#CBDBEF"/>
<path d="M163.752 105.271C163.752 108.165 166.108 110.521 168.999 110.521C171.893 110.521 174.246 108.165 174.246 105.271C174.246 102.38 171.892 100.021 168.999 100.021C166.108 100.021 163.752 102.38 163.752 105.271ZM165.765 105.271C165.765 103.487 167.216 102.034 169 102.034C170.786 102.034 172.235 103.488 172.235 105.271C172.235 107.057 170.787 108.506 169 108.506C167.216 108.506 165.765 107.057 165.765 105.271Z" fill="#CBDBEF"/>
<path d="M59.9319 153.228C59.9319 156.122 62.2879 158.478 65.1789 158.478C68.0729 158.478 70.4259 156.122 70.4259 153.228C70.4259 150.337 68.0719 147.978 65.1789 147.978C62.2879 147.978 59.9319 150.337 59.9319 153.228ZM61.9439 153.228C61.9439 151.444 63.3949 149.991 65.1789 149.991C66.9649 149.991 68.4139 151.445 68.4139 153.228C68.4139 155.014 66.9659 156.463 65.1789 156.463C63.3949 156.463 61.9439 155.015 61.9439 153.228Z" fill="#CBDBEF"/>
<path d="M382.617 139.418C381.882 139.418 381.294 140.017 381.294 140.746C381.294 141.484 381.882 142.064 382.617 142.064H395.846C396.578 142.064 397.172 141.484 397.172 140.746C397.172 140.017 396.578 139.418 395.846 139.418H382.617Z" fill="#CBDBEF"/>
<path d="M401.517 139.418C400.79 139.418 400.194 140.017 400.194 140.746C400.194 141.484 400.79 142.064 401.517 142.064H403.945C404.677 142.064 405.266 141.484 405.266 140.746C405.266 140.017 404.678 139.418 403.945 139.418H401.517Z" fill="#CBDBEF"/>
<path d="M94.3208 126.45C93.5858 126.45 92.9978 127.049 92.9978 127.778C92.9978 128.516 93.5858 129.096 94.3208 129.096H107.55C108.282 129.096 108.876 128.516 108.876 127.778C108.876 127.049 108.283 126.45 107.55 126.45H94.3208Z" fill="#CBDBEF"/>
<path d="M113.22 126.45C112.493 126.45 111.897 127.049 111.897 127.778C111.897 128.516 112.493 129.096 113.22 129.096H115.648C116.38 129.096 116.969 128.516 116.969 127.778C116.969 127.049 116.381 126.45 115.648 126.45H113.22Z" fill="#CBDBEF"/>
<path d="M440.097 234.694C439.396 234.694 438.834 235.293 438.834 236.022C438.834 236.76 439.395 237.34 440.097 237.34H452.72C453.419 237.34 453.985 236.76 453.985 236.022C453.985 235.293 453.419 234.694 452.72 234.694H440.097Z" fill="#CBDBEF"/>
<path d="M462.783 234.694C462.089 234.694 461.52 235.293 461.52 236.022C461.52 236.76 462.089 237.34 462.783 237.34H465.1C465.799 237.34 466.36 236.76 466.36 236.022C466.36 235.293 465.799 234.694 465.1 234.694H462.783Z" fill="#CBDBEF"/>
<path d="M414.935 279.847C414.935 282.841 414.935 282.841 414.935 282.841V362.566C414.935 364.738 413.174 366.498 411.002 366.498H270.992C268.82 366.498 267.06 364.737 267.06 362.566V279.846C267.06 277.674 268.821 275.914 270.992 275.914H411.002C413.174 275.913 414.935 277.676 414.935 279.847Z" fill="white"/>
<path d="M328.838 326.71C328.838 333.427 326.298 339.547 322.127 344.166C317.357 349.447 310.457 352.766 302.781 352.766C288.388 352.766 276.722 341.103 276.722 326.71C276.722 323.141 277.441 319.739 278.74 316.639L302.781 326.71L301.547 300.685C301.951 300.661 302.366 300.654 302.781 300.654C317.171 300.653 328.838 312.319 328.838 326.71Z" fill="#1685FF"/>
<path d="M298.953 296.385C291.166 296.745 284.278 300.522 279.745 306.252C278.286 308.094 277.072 310.14 276.149 312.339L300.188 322.409L298.953 296.385Z" fill="#297EEC"/>
<path d="M391.567 308.765H387.989V312.343H391.567V308.765Z" fill="#4F469F"/>
<path d="M406.802 311.002H393.981C393.96 311.002 393.942 310.984 393.942 310.963V310.145C393.942 310.123 393.96 310.106 393.981 310.106H406.802C406.824 310.106 406.841 310.123 406.841 310.145V310.963C406.841 310.984 406.823 311.002 406.802 311.002Z" fill="#297EEC"/>
<path d="M391.567 302.388H387.989V305.966H391.567V302.388Z" fill="#297EEC"/>
<path d="M406.802 304.625H393.981C393.96 304.625 393.942 304.608 393.942 304.586V303.768C393.942 303.746 393.96 303.729 393.981 303.729H406.802C406.824 303.729 406.841 303.747 406.841 303.768V304.586C406.841 304.607 406.823 304.625 406.802 304.625Z" fill="#297EEC"/>
<path d="M391.567 315.14H387.989V318.718H391.567V315.14Z" fill="#1685FF"/>
<path d="M406.802 317.377H393.981C393.96 317.377 393.942 317.36 393.942 317.338V316.52C393.942 316.498 393.96 316.481 393.981 316.481H406.802C406.824 316.481 406.841 316.498 406.841 316.52V317.338C406.841 317.359 406.823 317.377 406.802 317.377Z" fill="#297EEC"/>
<path d="M406.392 329.933H388.436C388.189 329.933 387.988 329.733 387.988 329.485C387.988 329.238 388.188 329.037 388.436 329.037H406.392C406.64 329.037 406.84 329.238 406.84 329.485C406.841 329.733 406.64 329.933 406.392 329.933Z" fill="#297EEC"/>
<path d="M406.392 333.613H388.436C388.189 333.613 387.988 333.412 387.988 333.165C387.988 332.918 388.188 332.717 388.436 332.717H406.392C406.64 332.717 406.84 332.918 406.84 333.165C406.841 333.412 406.64 333.613 406.392 333.613Z" fill="#297EEC"/>
<path d="M406.392 337.292H388.436C388.189 337.292 387.988 337.091 387.988 336.844C387.988 336.597 388.188 336.396 388.436 336.396H406.392C406.64 336.396 406.84 336.597 406.84 336.844C406.841 337.091 406.64 337.292 406.392 337.292Z" fill="#297EEC"/>
<path d="M406.392 340.971H388.436C388.189 340.971 387.988 340.77 387.988 340.523C387.988 340.275 388.188 340.075 388.436 340.075H406.392C406.64 340.075 406.84 340.275 406.84 340.523C406.841 340.77 406.64 340.971 406.392 340.971Z" fill="#297EEC"/>
<path d="M406.392 344.649H388.436C388.189 344.649 387.988 344.448 387.988 344.201C387.988 343.953 388.188 343.753 388.436 343.753H406.392C406.64 343.753 406.84 343.953 406.84 344.201C406.841 344.449 406.64 344.649 406.392 344.649Z" fill="#297EEC"/>
<path d="M406.392 348.33H388.436C388.189 348.33 387.988 348.129 387.988 347.882C387.988 347.635 388.188 347.434 388.436 347.434H406.392C406.64 347.434 406.84 347.635 406.84 347.882C406.841 348.129 406.64 348.33 406.392 348.33Z" fill="#297EEC"/>
<path d="M406.392 352.009H388.436C388.189 352.009 387.988 351.808 387.988 351.561C387.988 351.314 388.188 351.113 388.436 351.113H406.392C406.64 351.113 406.84 351.314 406.84 351.561C406.841 351.808 406.64 352.009 406.392 352.009Z" fill="#297EEC"/>
<path d="M414.935 279.847C414.935 282.841 414.935 282.841 414.935 282.841V286.749H267.06V279.845C267.06 277.673 268.821 275.913 270.992 275.913H411.002C413.174 275.913 414.935 277.676 414.935 279.847Z" fill="#184785"/>
<path d="M399.357 281.332C399.357 282.338 398.541 283.154 397.535 283.154C396.529 283.154 395.713 282.339 395.713 281.332C395.713 280.325 396.528 279.51 397.535 279.51C398.541 279.51 399.357 280.325 399.357 281.332Z" fill="#297EEC"/>
<path d="M405.261 281.332C405.261 282.338 404.445 283.154 403.439 283.154C402.433 283.154 401.617 282.339 401.617 281.332C401.617 280.325 402.433 279.51 403.439 279.51C404.446 279.51 405.261 280.325 405.261 281.332Z" fill="#4F469F"/>
<path d="M410.915 281.332C410.915 282.338 410.099 283.154 409.093 283.154C408.087 283.154 407.271 282.339 407.271 281.332C407.271 280.325 408.087 279.51 409.093 279.51C410.099 279.51 410.915 280.325 410.915 281.332Z" fill="#1685FF"/>
<path d="M328.838 326.71C328.838 333.427 326.298 339.547 322.127 344.166L302.781 326.71L301.547 300.685C301.951 300.661 302.366 300.654 302.781 300.654C317.171 300.653 328.838 312.319 328.838 326.71Z" fill="#4F469F"/>
<path d="M362.505 320.127H354.209V355.674H362.505V320.127Z" fill="#297EEC"/>
<path d="M354.209 346.299C357.148 345.391 359.904 343.764 362.505 342.014V355.675H354.209V346.299Z" fill="#1685FF"/>
<path d="M348.945 330.005H340.649V355.675H348.945V330.005Z" fill="#297EEC"/>
<path d="M347.41 346.9C347.927 346.975 348.439 347.021 348.946 347.041V355.674H340.65V347.122C342.117 346.639 344.265 346.441 347.41 346.9Z" fill="#1685FF"/>
<path d="M376.064 309.507H367.768V355.675H376.064V309.507Z" fill="#297EEC"/>
<path d="M376.065 334.809V355.675H367.769V338.352C370.717 336.349 373.465 334.798 376.065 334.809Z" fill="#1685FF"/>
<path d="M375.729 296.048L368.242 297.654L370.252 299.626L358.79 311.312L354.768 307.366L340.543 321.868C340 322.421 340.009 323.31 340.562 323.853C341.115 324.396 342.004 324.387 342.547 323.834L354.806 311.336L358.828 315.282L372.256 301.592L374.266 303.564L375.729 296.048Z" fill="#4F469F"/>
<path d="M214.453 409.156H100.306V398.951C100.306 397.81 101.231 396.886 102.371 396.886H212.387C213.528 396.886 214.452 397.811 214.452 398.951V409.156H214.453Z" fill="#124072"/>
<path d="M212.569 277.915H192.147C191.107 277.915 190.264 277.072 190.264 276.032V250.182C190.264 249.142 191.107 248.299 192.147 248.299H212.569C213.609 248.299 214.452 249.142 214.452 250.182V276.032C214.453 277.072 213.61 277.915 212.569 277.915Z" fill="#124072"/>
<path d="M198.686 277.915H102.071C101.096 277.915 100.306 277.125 100.306 276.15V250.062C100.306 249.087 101.096 248.297 102.071 248.297H198.686C199.661 248.297 200.451 249.087 200.451 250.062V276.15C200.45 277.125 199.66 277.915 198.686 277.915Z" fill="#184785"/>
<path d="M192.373 272.957H107.764C107.194 272.957 106.731 272.495 106.731 271.924V255.543C106.731 254.973 107.193 254.51 107.764 254.51H192.373C192.943 254.51 193.406 254.972 193.406 255.543V271.924C193.406 272.495 192.944 272.957 192.373 272.957Z" fill="white"/>
<path d="M109.968 263.927C109.968 262.9 110.788 262.068 111.8 262.068C112.812 262.068 113.632 262.9 113.632 263.927C113.632 264.954 112.812 265.786 111.8 265.786C110.789 265.786 109.968 264.954 109.968 263.927Z" fill="#297EEC"/>
<path d="M116.108 263.927C116.108 262.9 116.928 262.068 117.94 262.068C118.952 262.068 119.772 262.9 119.772 263.927C119.772 264.954 118.952 265.786 117.94 265.786C116.929 265.786 116.108 264.954 116.108 263.927Z" fill="#1685FF"/>
<path d="M122.248 263.927C122.248 262.9 123.068 262.068 124.08 262.068C125.092 262.068 125.913 262.9 125.913 263.927C125.913 264.954 125.093 265.786 124.08 265.786C123.069 265.786 122.248 264.954 122.248 263.927Z" fill="#297EEC"/>
<path d="M128.388 263.927C128.388 262.9 129.208 262.068 130.22 262.068C131.232 262.068 132.052 262.9 132.052 263.927C132.052 264.954 131.232 265.786 130.22 265.786C129.209 265.786 128.388 264.954 128.388 263.927Z" fill="#297EEC"/>
<path d="M188.999 269.527H180.107C179.921 269.527 179.77 269.376 179.77 269.19V258.667C179.77 258.481 179.921 258.33 180.107 258.33H188.999C189.185 258.33 189.336 258.481 189.336 258.667V269.19C189.336 269.376 189.185 269.527 188.999 269.527Z" fill="#297EEC"/>
<path d="M197.785 277.916H107.446V285.847H197.785V277.916Z" fill="#124072"/>
<path d="M201.736 277.916H197.69V285.847H201.736V277.916Z" fill="#4095F2"/>
<path d="M172.89 269.527H171.28C171.124 269.527 170.997 269.4 170.997 269.244V258.613C170.997 258.456 171.124 258.33 171.28 258.33H172.89C173.046 258.33 173.173 258.457 173.173 258.613V269.244C173.174 269.4 173.047 269.527 172.89 269.527Z" fill="#297EEC"/>
<path d="M165.09 269.527H163.48C163.324 269.527 163.197 269.4 163.197 269.244V258.613C163.197 258.456 163.324 258.33 163.48 258.33H165.09C165.246 258.33 165.373 258.457 165.373 258.613V269.244C165.373 269.4 165.246 269.527 165.09 269.527Z" fill="#297EEC"/>
<path d="M157.289 269.527H155.679C155.523 269.527 155.396 269.4 155.396 269.244V258.613C155.396 258.456 155.523 258.33 155.679 258.33H157.289C157.445 258.33 157.572 258.457 157.572 258.613V269.244C157.572 269.4 157.445 269.527 157.289 269.527Z" fill="#297EEC"/>
<path d="M149.488 269.527H147.878C147.722 269.527 147.595 269.4 147.595 269.244V258.613C147.595 258.456 147.722 258.33 147.878 258.33H149.488C149.644 258.33 149.771 258.457 149.771 258.613V269.244C149.771 269.4 149.645 269.527 149.488 269.527Z" fill="#297EEC"/>
<path d="M141.687 269.527H140.077C139.921 269.527 139.794 269.4 139.794 269.244V258.613C139.794 258.456 139.921 258.33 140.077 258.33H141.687C141.843 258.33 141.97 258.457 141.97 258.613V269.244C141.971 269.4 141.844 269.527 141.687 269.527Z" fill="#297EEC"/>
<path d="M197.69 277.916H107.446V280.691H197.69V277.916Z" fill="#4095F2"/>
<path d="M212.569 315.265H192.147C191.107 315.265 190.264 314.422 190.264 313.382V287.532C190.264 286.492 191.107 285.649 192.147 285.649H212.569C213.609 285.649 214.452 286.492 214.452 287.532V313.382C214.453 314.421 213.61 315.265 212.569 315.265Z" fill="#124072"/>
<path d="M198.686 315.265H102.071C101.096 315.265 100.306 314.475 100.306 313.5V287.412C100.306 286.437 101.096 285.647 102.071 285.647H198.686C199.661 285.647 200.451 286.437 200.451 287.412V313.5C200.45 314.475 199.66 315.265 198.686 315.265Z" fill="#184785"/>
<path d="M192.373 310.307H107.764C107.194 310.307 106.731 309.845 106.731 309.274V292.893C106.731 292.323 107.193 291.86 107.764 291.86H192.373C192.943 291.86 193.406 292.322 193.406 292.893V309.274C193.406 309.845 192.944 310.307 192.373 310.307Z" fill="white"/>
<path d="M197.785 315.265H107.446V323.196H197.785V315.265Z" fill="#124072"/>
<path d="M201.736 315.265H197.69V323.196H201.736V315.265Z" fill="#4095F2"/>
<path d="M189.456 301.277C189.456 300.25 188.636 299.418 187.623 299.418C186.611 299.418 185.791 300.25 185.791 301.277C185.791 302.304 186.611 303.136 187.623 303.136C188.635 303.136 189.456 302.304 189.456 301.277Z" fill="#297EEC"/>
<path d="M183.315 301.277C183.315 300.25 182.495 299.418 181.483 299.418C180.471 299.418 179.651 300.25 179.651 301.277C179.651 302.304 180.471 303.136 181.483 303.136C182.495 303.136 183.315 302.304 183.315 301.277Z" fill="#1685FF"/>
<path d="M177.175 301.277C177.175 300.25 176.355 299.418 175.342 299.418C174.329 299.418 173.51 300.25 173.51 301.277C173.51 302.304 174.33 303.136 175.342 303.136C176.354 303.136 177.175 302.304 177.175 301.277Z" fill="#297EEC"/>
<path d="M171.035 301.277C171.035 300.25 170.215 299.418 169.203 299.418C168.191 299.418 167.37 300.25 167.37 301.277C167.37 302.304 168.19 303.136 169.203 303.136C170.215 303.136 171.035 302.304 171.035 301.277Z" fill="#297EEC"/>
<path d="M110.425 306.876H119.317C119.503 306.876 119.654 306.725 119.654 306.539V296.016C119.654 295.83 119.503 295.679 119.317 295.679H110.425C110.239 295.679 110.088 295.83 110.088 296.016V306.539C110.087 306.725 110.238 306.876 110.425 306.876Z" fill="#297EEC"/>
<path d="M126.533 306.876H128.143C128.3 306.876 128.426 306.749 128.426 306.593V295.962C128.426 295.806 128.299 295.679 128.143 295.679H126.533C126.376 295.679 126.25 295.806 126.25 295.962V306.593C126.25 306.749 126.377 306.876 126.533 306.876Z" fill="#297EEC"/>
<path d="M134.334 306.876H135.944C136.101 306.876 136.227 306.749 136.227 306.593V295.962C136.227 295.806 136.1 295.679 135.944 295.679H134.334C134.177 295.679 134.051 295.806 134.051 295.962V306.593C134.051 306.749 134.178 306.876 134.334 306.876Z" fill="#297EEC"/>
<path d="M142.135 306.876H143.745C143.902 306.876 144.028 306.749 144.028 306.593V295.962C144.028 295.806 143.901 295.679 143.745 295.679H142.135C141.978 295.679 141.852 295.806 141.852 295.962V306.593C141.852 306.749 141.978 306.876 142.135 306.876Z" fill="#297EEC"/>
<path d="M149.936 306.876H151.546C151.703 306.876 151.829 306.749 151.829 306.593V295.962C151.829 295.806 151.702 295.679 151.546 295.679H149.936C149.779 295.679 149.653 295.806 149.653 295.962V306.593C149.652 306.749 149.779 306.876 149.936 306.876Z" fill="#297EEC"/>
<path d="M157.736 306.876H159.346C159.503 306.876 159.629 306.749 159.629 306.593V295.962C159.629 295.806 159.502 295.679 159.346 295.679H157.736C157.579 295.679 157.453 295.806 157.453 295.962V306.593C157.453 306.749 157.58 306.876 157.736 306.876Z" fill="#297EEC"/>
<path d="M197.69 315.265H107.446V318.04H197.69V315.265Z" fill="#4095F2"/>
<path d="M212.569 352.615H192.147C191.107 352.615 190.264 351.772 190.264 350.732V324.882C190.264 323.842 191.107 322.999 192.147 322.999H212.569C213.609 322.999 214.452 323.842 214.452 324.882V350.732C214.453 351.772 213.61 352.615 212.569 352.615Z" fill="#124072"/>
<path d="M198.686 352.615H102.071C101.096 352.615 100.306 351.825 100.306 350.85V324.762C100.306 323.787 101.096 322.997 102.071 322.997H198.686C199.661 322.997 200.451 323.787 200.451 324.762V350.85C200.45 351.825 199.66 352.615 198.686 352.615Z" fill="#184785"/>
<path d="M192.373 347.657H107.764C107.194 347.657 106.731 347.195 106.731 346.624V330.243C106.731 329.673 107.193 329.21 107.764 329.21H192.373C192.943 329.21 193.406 329.672 193.406 330.243V346.624C193.406 347.194 192.944 347.657 192.373 347.657Z" fill="white"/>
<path d="M109.968 338.628C109.968 337.601 110.788 336.769 111.8 336.769C112.812 336.769 113.632 337.601 113.632 338.628C113.632 339.655 112.812 340.487 111.8 340.487C110.789 340.487 109.968 339.655 109.968 338.628Z" fill="#297EEC"/>
<path d="M116.108 338.628C116.108 337.601 116.928 336.769 117.94 336.769C118.952 336.769 119.772 337.601 119.772 338.628C119.772 339.655 118.952 340.487 117.94 340.487C116.929 340.487 116.108 339.655 116.108 338.628Z" fill="#1685FF"/>
<path d="M122.248 338.628C122.248 337.601 123.068 336.769 124.08 336.769C125.092 336.769 125.913 337.601 125.913 338.628C125.913 339.655 125.093 340.487 124.08 340.487C123.069 340.487 122.248 339.655 122.248 338.628Z" fill="#297EEC"/>
<path d="M128.388 338.628C128.388 337.601 129.208 336.769 130.22 336.769C131.232 336.769 132.052 337.601 132.052 338.628C132.052 339.655 131.232 340.487 130.22 340.487C129.209 340.487 128.388 339.655 128.388 338.628Z" fill="#1685FF"/>
<path d="M188.999 344.226H180.107C179.921 344.226 179.77 344.075 179.77 343.889V333.365C179.77 333.179 179.921 333.028 180.107 333.028H188.999C189.185 333.028 189.336 333.179 189.336 333.365V343.888C189.336 344.075 189.185 344.226 188.999 344.226Z" fill="#297EEC"/>
<path d="M197.785 352.614H107.446V360.545H197.785V352.614Z" fill="#124072"/>
<path d="M201.736 352.614H197.69V360.545H201.736V352.614Z" fill="#4095F2"/>
<path d="M172.89 344.226H171.28C171.124 344.226 170.997 344.099 170.997 343.943V333.312C170.997 333.155 171.124 333.029 171.28 333.029H172.89C173.046 333.029 173.173 333.156 173.173 333.312V343.943C173.174 344.099 173.047 344.226 172.89 344.226Z" fill="#297EEC"/>
<path d="M165.09 344.226H163.48C163.324 344.226 163.197 344.099 163.197 343.943V333.312C163.197 333.155 163.324 333.029 163.48 333.029H165.09C165.246 333.029 165.373 333.156 165.373 333.312V343.943C165.373 344.099 165.246 344.226 165.09 344.226Z" fill="#297EEC"/>
<path d="M157.289 344.226H155.679C155.523 344.226 155.396 344.099 155.396 343.943V333.312C155.396 333.155 155.523 333.029 155.679 333.029H157.289C157.445 333.029 157.572 333.156 157.572 333.312V343.943C157.572 344.099 157.445 344.226 157.289 344.226Z" fill="#297EEC"/>
<path d="M149.488 344.226H147.878C147.722 344.226 147.595 344.099 147.595 343.943V333.312C147.595 333.155 147.722 333.029 147.878 333.029H149.488C149.644 333.029 149.771 333.156 149.771 333.312V343.943C149.771 344.099 149.645 344.226 149.488 344.226Z" fill="#297EEC"/>
<path d="M141.687 344.226H140.077C139.921 344.226 139.794 344.099 139.794 343.943V333.312C139.794 333.155 139.921 333.029 140.077 333.029H141.687C141.843 333.029 141.97 333.156 141.97 333.312V343.943C141.971 344.099 141.844 344.226 141.687 344.226Z" fill="#297EEC"/>
<path d="M197.69 352.614H107.446V355.389H197.69V352.614Z" fill="#4095F2"/>
<path d="M212.569 389.964H192.147C191.107 389.964 190.264 389.121 190.264 388.081V362.231C190.264 361.191 191.107 360.348 192.147 360.348H212.569C213.609 360.348 214.452 361.191 214.452 362.231V388.081C214.453 389.121 213.61 389.964 212.569 389.964Z" fill="#124072"/>
<path d="M198.686 389.964H102.071C101.096 389.964 100.306 389.174 100.306 388.199V362.111C100.306 361.136 101.096 360.346 102.071 360.346H198.686C199.661 360.346 200.451 361.136 200.451 362.111V388.199C200.45 389.174 199.66 389.964 198.686 389.964Z" fill="#184785"/>
<path d="M192.373 385.007H107.764C107.194 385.007 106.731 384.545 106.731 383.974V367.593C106.731 367.023 107.193 366.56 107.764 366.56H192.373C192.943 366.56 193.406 367.022 193.406 367.593V383.974C193.406 384.545 192.944 385.007 192.373 385.007Z" fill="white"/>
<path d="M197.785 389.964H107.446V397.895H197.785V389.964Z" fill="#124072"/>
<path d="M201.736 389.964H197.69V397.895H201.736V389.964Z" fill="#4095F2"/>
<path d="M112.217 377.837C113.229 377.837 114.049 377.004 114.049 375.978C114.049 374.951 113.229 374.119 112.217 374.119C111.205 374.119 110.385 374.951 110.385 375.978C110.385 377.004 111.205 377.837 112.217 377.837Z" fill="#297EEC"/>
<path d="M116.525 375.978C116.525 374.951 117.345 374.119 118.357 374.119C119.369 374.119 120.19 374.951 120.19 375.978C120.19 377.005 119.37 377.837 118.357 377.837C117.345 377.837 116.525 377.004 116.525 375.978Z" fill="#1685FF"/>
<path d="M124.497 377.837C125.509 377.837 126.329 377.004 126.329 375.978C126.329 374.951 125.509 374.119 124.497 374.119C123.485 374.119 122.665 374.951 122.665 375.978C122.665 377.004 123.485 377.837 124.497 377.837Z" fill="#297EEC"/>
<path d="M128.805 375.978C128.805 374.951 129.625 374.119 130.638 374.119C131.65 374.119 132.47 374.951 132.47 375.978C132.47 377.005 131.65 377.837 130.638 377.837C129.625 377.837 128.805 377.004 128.805 375.978Z" fill="#297EEC"/>
<path d="M189.415 381.576H180.523C180.337 381.576 180.186 381.425 180.186 381.239V370.715C180.186 370.529 180.337 370.378 180.523 370.378H189.415C189.601 370.378 189.752 370.529 189.752 370.715V381.238C189.753 381.424 189.602 381.576 189.415 381.576Z" fill="#297EEC"/>
<path d="M173.307 381.576H171.697C171.54 381.576 171.414 381.449 171.414 381.293V370.662C171.414 370.505 171.541 370.379 171.697 370.379H173.307C173.464 370.379 173.59 370.506 173.59 370.662V381.293C173.59 381.449 173.463 381.576 173.307 381.576Z" fill="#297EEC"/>
<path d="M165.506 381.576H163.896C163.739 381.576 163.613 381.449 163.613 381.293V370.662C163.613 370.505 163.74 370.379 163.896 370.379H165.506C165.663 370.379 165.789 370.506 165.789 370.662V381.293C165.79 381.449 165.663 381.576 165.506 381.576Z" fill="#297EEC"/>
<path d="M157.705 381.576H156.095C155.938 381.576 155.812 381.449 155.812 381.293V370.662C155.812 370.505 155.939 370.379 156.095 370.379H157.705C157.862 370.379 157.988 370.506 157.988 370.662V381.293C157.989 381.449 157.862 381.576 157.705 381.576Z" fill="#297EEC"/>
<path d="M149.905 381.576H148.295C148.138 381.576 148.012 381.449 148.012 381.293V370.662C148.012 370.505 148.139 370.379 148.295 370.379H149.905C150.062 370.379 150.188 370.506 150.188 370.662V381.293C150.188 381.449 150.061 381.576 149.905 381.576Z" fill="#297EEC"/>
<path d="M142.104 381.576H140.494C140.337 381.576 140.211 381.449 140.211 381.293V370.662C140.211 370.505 140.338 370.379 140.494 370.379H142.104C142.261 370.379 142.387 370.506 142.387 370.662V381.293C142.387 381.449 142.26 381.576 142.104 381.576Z" fill="#297EEC"/>
<path d="M197.69 389.964H107.446V392.739H197.69V389.964Z" fill="#4095F2"/>
<path d="M200.45 409.156H100.306V398.951C100.306 397.81 101.231 396.886 102.371 396.886H198.385C199.526 396.886 200.45 397.811 200.45 398.951V409.156Z" fill="#184785"/>
<path d="M441.301 415.445H58.699C56.355 415.445 54.437 413.527 54.437 411.183C54.437 408.839 56.355 406.921 58.699 406.921H441.301C443.645 406.921 445.563 408.839 445.563 411.183C445.563 413.527 443.645 415.445 441.301 415.445Z" fill="#124072"/>
<path d="M332.871 139.583H344.97C344.97 139.583 359.131 152.565 360.352 161.731C361.573 170.897 356.175 207.743 339.484 205.832C322.793 203.921 316.788 152.235 332.871 139.583Z" fill="white"/>
<path d="M354.4 163.729C354.4 163.729 348.096 168.718 342.598 171.126C337.1 173.535 333.466 172.237 335.676 180.543C341.706 203.2 355.495 196.53 355.495 196.53C355.495 196.53 364.912 162.463 354.4 163.729Z" fill="#F9EFE8"/>
<path d="M332.871 139.583C332.871 139.583 333.592 175.183 330.418 202.283L350.631 202.447C350.631 202.447 342.119 169.433 344.97 139.582C344.97 139.582 356.159 140.502 363.291 150.357C370.803 160.737 377.582 170.505 382.297 181.444L370.395 195.6C367.716 190.972 363.686 182.913 363.686 182.913L366.722 200.014C366.722 200.014 338.184 211.471 314.162 199.053L317.804 183.229C317.804 183.229 312.628 193.637 311.309 194.75L298.637 182.649C310.431 152.923 319.998 141.202 332.871 139.583Z" fill="#4095F2"/>
<path d="M317.803 183.231L321.813 164.764C321.813 164.764 313.713 178.008 304.118 187.382C304.118 187.382 308.322 191.744 311.308 194.752C311.308 194.752 315.492 188.936 317.803 183.231Z" fill="#297EEC"/>
<path d="M363.383 182.724L359.373 164.257C359.373 164.257 368.536 178.86 378.13 188.234C378.13 188.234 373.379 192.594 370.393 195.603C370.393 195.603 365.694 188.428 363.383 182.724Z" fill="#297EEC"/>
<path d="M382.308 227.541L370.263 225.789L370.92 216.481L387.454 219.876C387.454 219.876 389.964 226.426 382.308 227.541Z" fill="#1685FF"/>
<path d="M383.512 218.193C383.512 218.193 399.827 215.887 404.426 217.389C409.025 218.89 407.711 222.613 403.988 224.913C400.265 227.212 384.935 227.76 382.307 227.541C382.307 227.541 385.356 226.008 383.402 224.475C381.448 222.942 379.793 218.335 383.512 218.193Z" fill="#1685FF"/>
<path d="M378.441 227.545C378.441 227.545 312.806 226.239 295.531 220.049C278.256 213.859 283.602 195.928 294.742 193.225C305.882 190.522 379.812 212.023 379.812 212.023L378.441 227.545Z" fill="#4F469F"/>
<path d="M301.247 226.373L313.292 224.621L312.635 215.313L296.101 218.708C296.101 218.708 293.591 225.258 301.247 226.373Z" fill="#1685FF"/>
<path d="M300.042 217.026C300.042 217.026 283.727 214.72 279.128 216.222C274.529 217.723 275.843 221.446 279.566 223.746C283.289 226.046 298.619 226.593 301.247 226.374C301.247 226.374 298.198 224.841 300.152 223.308C302.106 221.775 303.761 217.167 300.042 217.026Z" fill="#1685FF"/>
<path d="M305.967 227.545C305.967 227.545 371.608 226.545 388.911 220.435C406.214 214.325 400.952 196.369 389.825 193.615C378.697 190.861 304.668 212.017 304.668 212.017L305.967 227.545Z" fill="#4F469F"/>
<path d="M339.595 193.368L339.867 199.25C339.867 199.25 313.184 202.732 302.975 194.753C293.442 187.302 299.93 173.248 308.904 175.544C312.66 176.504 339.595 193.368 339.595 193.368Z" fill="#4095F2"/>
<path d="M339.595 193.368C339.595 193.368 345.785 193.681 348.086 194.294C350.387 194.907 354.935 197.623 353.838 200.162C353.46 201.036 351.929 200.897 350.137 200.401C347.197 199.588 344.747 198.661 339.867 199.25L339.595 193.368Z" fill="#F8C2AB"/>
<path d="M341.855 193.368L341.583 199.25C341.583 199.25 368.266 202.732 378.475 194.753C388.008 187.302 381.52 173.248 372.546 175.544C368.79 176.504 341.855 193.368 341.855 193.368Z" fill="#4095F2"/>
<path d="M341.855 193.368C341.855 193.368 335.665 193.681 333.364 194.294C331.063 194.907 326.515 197.623 327.612 200.162C327.99 201.036 329.521 200.897 331.313 200.401C334.254 199.588 336.703 198.661 341.583 199.25L341.855 193.368Z" fill="#F8C2AB"/>
<path d="M361.85 207.916H317.117C316.038 207.916 315.164 207.042 315.164 205.963V177.246C315.164 176.167 316.038 175.293 317.117 175.293H361.85C362.929 175.293 363.803 176.167 363.803 177.246V205.963C363.803 207.041 362.928 207.916 361.85 207.916Z" fill="#124072"/>
<path d="M339.483 194.775C341.234 194.775 342.654 193.355 342.654 191.604C342.654 189.853 341.234 188.433 339.483 188.433C337.732 188.433 336.312 189.853 336.312 191.604C336.312 193.355 337.732 194.775 339.483 194.775Z" fill="#F9EFE8"/>
<path d="M342.923 130.742C343.594 130.685 345.095 126.65 345.095 126.65L343.622 127.599C343.622 127.599 343.088 129.083 342.882 130.039C342.676 130.995 342.625 130.767 342.923 130.742Z" fill="#184785"/>
<path d="M343.594 126.367C342.418 137.918 344.085 142.734 344.085 142.734C344.085 142.734 341.746 145.559 338.987 145.559C336.228 145.559 334.187 143.332 334.187 143.332V132.658L343.594 126.367Z" fill="#1685FF"/>
<path d="M336.285 135.87C340.659 135.944 343.552 131.746 343.623 127.599L343.735 121.022C343.805 116.875 340.641 113.458 336.667 113.39C332.693 113.323 329.415 116.63 329.344 120.778L329.409 127.337C329.338 131.484 331.911 135.796 336.285 135.87Z" fill="#1685FF"/>
<path d="M341.445 132.477C341.387 132.571 340.179 137.134 334.19 136.393L334.198 135.479C334.257 135.5 335.304 135.786 337.185 135.224C339.253 134.607 340.375 133.818 341.445 132.477Z" fill="#DEAC93"/>
<path d="M336.728 123.868C336.723 124.18 336.971 124.437 337.283 124.442C337.595 124.447 337.852 124.199 337.857 123.887C337.862 123.575 337.614 123.318 337.302 123.313C336.991 123.308 336.734 123.556 336.728 123.868Z" fill="#184785"/>
<path d="M330.67 123.838C330.665 124.15 330.913 124.407 331.225 124.412C331.537 124.417 331.794 124.169 331.799 123.857C331.804 123.545 331.556 123.288 331.244 123.283C330.932 123.278 330.675 123.526 330.67 123.838Z" fill="#184785"/>
<path d="M345.882 126.091C345.312 127.268 344.13 127.873 343.242 127.443C341.591 126.644 342.254 125.354 342.824 124.178C343.394 123.001 344.192 122.614 345.305 123.182C346.184 123.63 346.451 124.915 345.882 126.091Z" fill="#1685FF"/>
<path d="M345.48 124.88C345.47 124.556 345.37 124.158 345.079 123.973C344.827 123.812 344.415 123.908 344.338 124.219C344.323 124.28 344.422 124.318 344.444 124.257C344.498 124.11 344.653 124.044 344.803 124.076C344.961 124.11 345.077 124.251 345.141 124.392C345.276 124.693 345.268 125.06 345.181 125.373C345.093 125.691 344.903 126.001 344.637 126.201C344.514 126.294 344.365 126.361 344.211 126.377C344.079 126.39 343.904 126.362 343.797 126.282C343.753 126.249 343.67 126.285 343.697 126.347C343.755 126.48 343.849 126.587 343.994 126.62C344.147 126.655 344.317 126.628 344.463 126.576C344.793 126.459 345.049 126.19 345.223 125.893C345.4 125.588 345.491 125.232 345.48 124.88Z" fill="#DEAC93"/>
<path d="M332.417 116.161C332.417 116.161 336.501 118.026 340.517 117.903C343.228 117.82 341.977 120.969 342.07 121.71C342.163 122.451 342.805 123.974 342.805 123.974L342.836 124.139C342.895 124.457 343.352 124.453 343.406 124.134L343.544 123.31L343.593 123.212C343.791 123.051 344.058 122.938 344.313 122.942C344.745 122.95 345.645 123.06 346.047 124.079C346.047 124.079 347.02 120.695 346.98 118.191C346.934 115.252 344.577 111.229 338.949 110.898C331.075 110.435 332.417 116.161 332.417 116.161Z" fill="#184785"/>
<path d="M334.965 112.38C334.965 112.38 333.099 112.269 330.549 113.669C327.09 115.568 329.428 123.512 329.428 123.512C329.428 123.512 329.926 117.656 330.923 116.784C331.92 115.912 333.789 116.41 333.789 116.41L334.965 112.38Z" fill="#184785"/>
<path d="M333.359 130.7C333.426 130.678 333.491 130.696 333.56 130.701C333.625 130.705 333.688 130.692 333.753 130.693C333.879 130.694 334.004 130.694 334.128 130.675C334.388 130.636 334.644 130.562 334.877 130.44C335.339 130.198 335.733 129.777 335.918 129.286C335.969 129.152 336.166 129.202 336.135 129.346C336.002 129.954 335.59 130.439 335.052 130.739C334.787 130.887 334.496 130.992 334.194 131.026C334.039 131.044 333.881 131.048 333.726 131.027C333.655 131.017 333.592 130.99 333.524 130.97C333.449 130.948 333.368 130.931 333.314 130.871C333.261 130.812 333.284 130.725 333.359 130.7Z" fill="#184785"/>
<path d="M332.925 113.19C333.038 113.413 333.179 113.622 333.33 113.821C333.48 114.022 333.644 114.212 333.817 114.395C333.989 114.579 334.176 114.747 334.364 114.914C334.557 115.076 334.756 115.23 334.963 115.373C335.376 115.662 335.819 115.907 336.278 116.118C336.738 116.327 337.217 116.488 337.703 116.621C338.19 116.754 338.688 116.838 339.187 116.9C339.437 116.925 339.687 116.952 339.939 116.959C340.065 116.964 340.19 116.975 340.315 116.974L340.692 116.973C341.696 116.965 342.695 116.834 343.669 116.616C342.68 116.755 341.685 116.83 340.692 116.811C339.701 116.789 338.71 116.678 337.756 116.42C336.801 116.171 335.882 115.778 335.053 115.239C334.638 114.97 334.247 114.665 333.888 114.323C333.526 113.985 333.195 113.61 332.925 113.19Z" fill="#573B2D"/>
<path d="M335.639 121.501C335.732 121.382 335.838 121.327 335.992 121.292C336.121 121.262 336.255 121.245 336.387 121.231C336.611 121.208 336.836 121.202 337.061 121.212C337.522 121.233 338.073 121.282 338.426 121.578C338.551 121.683 338.445 121.851 338.297 121.861C338.082 121.877 337.867 121.843 337.655 121.809C337.452 121.777 337.245 121.764 337.039 121.763L336.139 121.849C335.984 121.874 335.875 121.875 335.73 121.815C335.613 121.766 335.566 121.595 335.639 121.501Z" fill="#184785"/>
<path d="M332.164 126.363C332.251 125.714 332.643 125.15 332.869 124.547C333.135 123.838 333.222 123.115 333.302 122.367C333.314 122.254 333.466 122.254 333.478 122.367C333.602 123.522 333.15 124.584 332.696 125.614C332.491 126.08 332.314 126.683 332.602 127.158C332.738 127.382 332.974 127.51 333.232 127.533C333.501 127.557 333.722 127.414 333.98 127.4C334.128 127.392 334.163 127.567 334.089 127.663C333.778 128.063 332.98 127.977 332.623 127.699C332.226 127.389 332.099 126.844 332.164 126.363Z" fill="#184785"/>
<path d="M330.473 121.185C330.775 121.058 331.126 121.088 331.442 121.136C331.585 121.158 331.726 121.19 331.864 121.233C332.031 121.286 332.227 121.343 332.301 121.519C332.347 121.629 332.313 121.735 332.196 121.777C332.033 121.836 331.885 121.765 331.729 121.724C331.664 121.707 331.598 121.692 331.531 121.679C331.502 121.674 331.474 121.669 331.445 121.664C331.432 121.662 331.428 121.661 331.423 121.661C331.406 121.659 331.389 121.657 331.371 121.655C331.092 121.626 330.814 121.663 330.535 121.649C330.418 121.643 330.317 121.563 330.302 121.444C330.289 121.318 330.361 121.232 330.473 121.185Z" fill="#184785"/>
</svg>
