<?xml version="1.0" encoding="UTF-8" standalone="no"?>
<!DOCTYPE svg PUBLIC "-//W3C//DTD SVG 1.1//EN" "http://www.w3.org/Graphics/SVG/1.1/DTD/svg11.dtd">
<svg width="100%" height="100%" viewBox="0 0 802 568" version="1.1" xmlns="http://www.w3.org/2000/svg" xmlns:xlink="http://www.w3.org/1999/xlink" xml:space="preserve" xmlns:serif="http://www.serif.com/" style="fill-rule:evenodd;clip-rule:evenodd;stroke-linejoin:round;stroke-miterlimit:2;">
    <g transform="matrix(0.843688,0,0,0.843688,105.709,99.7803)">
        <path d="M337.78,521.9C348.3,521.9 356.87,513.33 356.87,502.81C356.87,492.29 348.3,483.72 337.78,483.72C327.26,483.72 318.69,492.29 318.69,502.81C318.69,513.33 327.26,521.9 337.78,521.9ZM337.78,496.447C341.261,496.447 344.143,499.334 344.143,502.81C344.143,506.291 341.257,509.174 337.78,509.174C334.299,509.174 331.417,506.287 331.417,502.81C331.417,499.33 334.217,496.447 337.78,496.447Z" style="fill:rgb(33,50,91);fill-rule:nonzero;"/>
        <path d="M218.91,390.05C222.391,390.05 225.273,387.163 225.273,383.687L225.273,166.477L377.403,166.477C380.884,166.477 383.767,163.59 383.767,160.113C383.767,156.633 380.88,153.75 377.403,153.75L225.273,153.75L225.273,121.508C225.273,109.121 235.285,99.11 247.671,99.11L378.251,99.11C381.732,99.11 384.615,96.223 384.615,92.747C384.615,89.266 381.728,86.384 378.251,86.384L247.751,86.38C228.407,86.38 212.622,102.161 212.622,121.509L212.622,383.689C212.54,387.251 215.423,390.048 218.904,390.048L218.91,390.05Z" style="fill:rgb(33,50,91);fill-rule:nonzero;"/>
        <path d="M456.57,252.85C453.09,252.85 450.207,255.737 450.207,259.213L450.207,460.393L323.777,460.393C320.296,460.393 317.413,463.28 317.413,466.757C317.413,470.237 320.3,473.12 323.777,473.12L450.207,473.12L450.207,510.03C450.207,522.417 440.195,532.428 427.809,532.428L319.969,532.432C316.488,532.432 313.605,535.319 313.605,538.795C313.605,542.276 316.492,545.158 319.969,545.158L427.809,545.158C447.153,545.158 462.938,529.377 462.938,510.029L462.934,259.219C462.934,255.743 460.133,252.856 456.57,252.856L456.57,252.85Z" style="fill:rgb(33,50,91);fill-rule:nonzero;"/>
        <path d="M306.9,120.06C303.419,120.06 300.537,122.947 300.537,126.423C300.537,129.904 303.423,132.787 306.9,132.787L368.67,132.787C372.15,132.787 375.033,129.9 375.033,126.423C375.033,122.943 372.147,120.06 368.67,120.06L306.9,120.06Z" style="fill:rgb(33,50,91);fill-rule:nonzero;"/>
        <path d="M505.95,14.848C443.415,14.848 392.51,65.758 392.51,128.288C392.51,153.827 401.166,178.686 417.03,198.628L406.592,249.96C406.084,252.335 407.018,254.71 408.881,256.237C409.983,257.171 411.428,257.597 412.869,257.597C413.803,257.597 414.651,257.429 415.498,257.003L465.56,234.179C478.54,239.101 492.119,241.644 505.947,241.644C568.482,241.644 619.387,190.734 619.387,128.204C619.391,65.673 568.481,14.844 505.947,14.844L505.95,14.848ZM505.95,228.918C492.798,228.918 479.985,226.371 467.766,221.367C466.153,220.688 464.285,220.773 462.676,221.453L421.524,240.203L430.094,198.117C430.434,196.25 430.009,194.215 428.735,192.773C413.547,174.699 405.231,151.707 405.231,128.203C405.231,72.711 450.372,27.493 505.941,27.493C561.433,27.493 606.651,72.634 606.651,128.203C606.655,183.777 561.514,228.913 505.941,228.913L505.95,228.918Z" style="fill:rgb(33,50,91);fill-rule:nonzero;"/>
        <g transform="matrix(1.72361,0,0,1,-271.379,147.019)">
            <path d="M306.9,120.06C303.419,120.06 300.537,122.947 300.537,126.423C300.537,129.904 303.423,132.787 306.9,132.787L368.67,132.787C372.15,132.787 375.033,129.9 375.033,126.423C375.033,122.943 372.147,120.06 368.67,120.06L306.9,120.06Z" style="fill:rgb(33,50,91);fill-rule:nonzero;"/>
        </g>
        <g transform="matrix(1.38758,0,0,1,-170.389,170.724)">
            <path d="M306.9,120.06C303.419,120.06 300.537,122.947 300.537,126.423C300.537,129.904 303.423,132.787 306.9,132.787L368.67,132.787C372.15,132.787 375.033,129.9 375.033,126.423C375.033,122.943 372.147,120.06 368.67,120.06L306.9,120.06Z" style="fill:rgb(33,50,91);fill-rule:nonzero;"/>
        </g>
        <g transform="matrix(1.72361,0,0,1,-271.379,194.43)">
            <path d="M306.9,120.06C303.419,120.06 300.537,122.947 300.537,126.423C300.537,129.904 303.423,132.787 306.9,132.787L368.67,132.787C372.15,132.787 375.033,129.9 375.033,126.423C375.033,122.943 372.147,120.06 368.67,120.06L306.9,120.06Z" style="fill:rgb(33,50,91);fill-rule:nonzero;"/>
        </g>
        <path d="M294.09,406.85C290.188,404.221 285.606,402.862 280.852,402.862L104.542,402.862C99.792,402.862 95.292,404.221 91.304,406.85C84.601,411.264 80.613,418.729 80.613,426.788L80.613,521.308C80.613,534.546 91.39,545.234 104.539,545.234L280.859,545.234C294.011,545.234 304.785,534.457 304.785,521.308L304.789,426.792C304.789,418.729 300.801,411.265 294.098,406.851L294.09,406.85ZM277.883,415.506L200.5,490.596C196.086,494.838 189.301,494.838 184.887,490.596L107.504,415.506L277.883,415.506ZM104.543,532.426C103.863,532.426 103.355,532.172 102.676,532.086L141.621,493.141C144.082,490.68 144.082,486.606 141.621,484.149C139.16,481.688 135.086,481.688 132.629,484.149L93.684,523.094C93.598,522.5 93.344,521.907 93.344,521.227L93.34,426.789C93.34,424.754 93.934,422.801 94.953,421.105L175.984,499.761C180.652,504.257 186.675,506.55 192.613,506.55C198.637,506.55 204.578,504.261 209.242,499.761L290.355,421.105C291.375,422.801 291.968,424.754 291.968,426.789L291.968,521.309C291.968,521.989 291.715,522.496 291.629,523.176L252.684,484.231C250.223,481.77 246.148,481.77 243.691,484.231C241.231,486.692 241.231,490.766 243.691,493.223L282.636,532.168C282.043,532.254 281.449,532.508 280.769,532.508L104.539,532.508L104.543,532.426Z" style="fill:rgb(33,50,91);fill-rule:nonzero;"/>
        <path d="M447.07,103.43C433.41,103.43 422.293,114.543 422.293,128.207C422.293,141.867 433.406,152.984 447.07,152.984C460.73,152.984 471.847,141.871 471.847,128.207C471.847,114.547 460.73,103.43 447.07,103.43ZM447.07,140.34C440.453,140.34 435.023,134.91 435.023,128.293C435.023,121.676 440.453,116.246 447.07,116.246C453.687,116.246 459.117,121.676 459.117,128.293C459.117,134.91 453.687,140.34 447.07,140.34Z" style="fill:rgb(33,50,91);fill-rule:nonzero;"/>
        <path d="M505.95,103.43C492.29,103.43 481.173,114.543 481.173,128.207C481.173,141.867 492.286,152.984 505.95,152.984C519.61,152.984 530.727,141.871 530.727,128.207C530.723,114.547 519.692,103.43 505.95,103.43ZM505.95,140.34C499.333,140.34 493.903,134.91 493.903,128.293C493.903,121.676 499.333,116.246 505.95,116.246C512.567,116.246 517.997,121.676 517.997,128.293C517.997,134.91 512.653,140.34 505.95,140.34Z" style="fill:rgb(33,50,91);fill-rule:nonzero;"/>
        <path d="M564.92,103.43C551.26,103.43 540.143,114.543 540.143,128.207C540.143,141.867 551.256,152.984 564.92,152.984C578.58,152.984 589.697,141.871 589.697,128.207C589.693,114.547 578.58,103.43 564.92,103.43ZM564.92,140.34C558.303,140.34 552.873,134.91 552.873,128.293C552.873,121.676 558.303,116.246 564.92,116.246C571.537,116.246 576.967,121.676 576.967,128.293C576.967,134.91 571.537,140.34 564.92,140.34Z" style="fill:rgb(33,50,91);fill-rule:nonzero;"/>
    </g>
</svg>
