<svg width="394" height="379" viewBox="0 0 394 379" fill="none" xmlns="http://www.w3.org/2000/svg">
<path d="M117.821 372.774C179.1 372.774 228.777 323.097 228.777 261.818C228.777 200.539 179.1 150.862 117.821 150.862C56.5417 150.862 6.86499 200.539 6.86499 261.818C6.86499 323.097 56.5417 372.774 117.821 372.774Z" fill="#A017EE" fill-opacity="0.85"/>
<path d="M273.998 372.774C335.277 372.774 384.954 323.097 384.954 261.818C384.954 200.539 335.277 150.862 273.998 150.862C212.719 150.862 163.042 200.539 163.042 261.818C163.042 323.097 212.719 372.774 273.998 372.774Z" fill="#02AC96" fill-opacity="0.85"/>
<path d="M195.468 228.774C256.747 228.774 306.424 179.097 306.424 117.818C306.424 56.5388 256.747 6.86206 195.468 6.86206C134.189 6.86206 84.512 56.5388 84.512 117.818C84.512 179.097 134.189 228.774 195.468 228.774Z" fill="#173FEE" fill-opacity="0.8"/>
<path d="M225.2 123.061C224.745 123.156 224.295 123.193 223.85 123.173C223.41 123.153 223.015 123.058 222.665 122.888C222.32 122.718 222.058 122.453 221.878 122.093C221.733 121.793 221.653 121.491 221.638 121.186C221.628 120.876 221.623 120.523 221.623 120.128V112.711H222.718V120.083C222.718 120.423 222.72 120.708 222.725 120.938C222.735 121.163 222.788 121.363 222.883 121.538C223.063 121.873 223.348 122.073 223.738 122.138C224.133 122.203 224.62 122.188 225.2 122.093V123.061ZM219.89 115.906V114.961H225.2V115.906H219.89Z" fill="white"/>
<path d="M215.845 123.286C215.03 123.286 214.34 123.103 213.775 122.738C213.21 122.373 212.78 121.871 212.485 121.231C212.195 120.586 212.045 119.846 212.035 119.011C212.045 118.161 212.2 117.416 212.5 116.776C212.8 116.131 213.232 115.631 213.797 115.276C214.362 114.916 215.047 114.736 215.852 114.736C216.672 114.736 217.385 114.936 217.99 115.336C218.6 115.736 219.017 116.283 219.242 116.978L218.162 117.323C217.972 116.838 217.67 116.463 217.255 116.198C216.845 115.928 216.375 115.793 215.845 115.793C215.25 115.793 214.757 115.931 214.367 116.206C213.977 116.476 213.687 116.853 213.497 117.338C213.307 117.823 213.21 118.381 213.205 119.011C213.215 119.981 213.44 120.761 213.88 121.351C214.32 121.936 214.975 122.228 215.845 122.228C216.395 122.228 216.862 122.103 217.247 121.853C217.637 121.598 217.932 121.228 218.132 120.743L219.242 121.073C218.942 121.793 218.502 122.343 217.922 122.723C217.342 123.098 216.65 123.286 215.845 123.286Z" fill="white"/>
<path d="M207.138 123.286C206.348 123.286 205.663 123.111 205.083 122.761C204.508 122.411 204.06 121.918 203.74 121.283C203.42 120.648 203.26 119.903 203.26 119.048C203.26 118.163 203.418 117.398 203.733 116.753C204.048 116.108 204.49 115.611 205.06 115.261C205.635 114.911 206.313 114.736 207.093 114.736C207.893 114.736 208.575 114.921 209.14 115.291C209.705 115.656 210.133 116.181 210.423 116.866C210.713 117.551 210.845 118.368 210.82 119.318H209.695V118.928C209.675 117.878 209.448 117.086 209.013 116.551C208.583 116.016 207.953 115.748 207.123 115.748C206.253 115.748 205.585 116.031 205.12 116.596C204.66 117.161 204.43 117.966 204.43 119.011C204.43 120.031 204.66 120.823 205.12 121.388C205.585 121.948 206.243 122.228 207.093 122.228C207.673 122.228 208.178 122.096 208.608 121.831C209.043 121.561 209.385 121.173 209.635 120.668L210.663 121.066C210.343 121.771 209.87 122.318 209.245 122.708C208.625 123.093 207.923 123.286 207.138 123.286ZM204.04 119.318V118.396H210.228V119.318H204.04Z" fill="white"/>
<path d="M200.713 123.061V118.928C200.713 118.478 200.67 118.066 200.585 117.691C200.5 117.311 200.363 116.981 200.173 116.701C199.988 116.416 199.745 116.196 199.445 116.041C199.15 115.886 198.79 115.808 198.365 115.808C197.975 115.808 197.63 115.876 197.33 116.011C197.035 116.146 196.785 116.341 196.58 116.596C196.38 116.846 196.228 117.151 196.123 117.511C196.018 117.871 195.965 118.281 195.965 118.741L195.185 118.568C195.185 117.738 195.33 117.041 195.62 116.476C195.91 115.911 196.31 115.483 196.82 115.193C197.33 114.903 197.915 114.758 198.575 114.758C199.06 114.758 199.483 114.833 199.843 114.983C200.208 115.133 200.515 115.336 200.765 115.591C201.02 115.846 201.225 116.138 201.38 116.468C201.535 116.793 201.648 117.141 201.718 117.511C201.788 117.876 201.823 118.241 201.823 118.606V123.061H200.713ZM194.855 123.061V114.961H195.853V116.956H195.965V123.061H194.855Z" fill="white"/>
<path d="M191.806 123.061V118.928C191.806 118.478 191.764 118.066 191.679 117.691C191.594 117.311 191.456 116.981 191.266 116.701C191.081 116.416 190.839 116.196 190.539 116.041C190.244 115.886 189.884 115.808 189.459 115.808C189.069 115.808 188.724 115.876 188.424 116.011C188.129 116.146 187.879 116.341 187.674 116.596C187.474 116.846 187.321 117.151 187.216 117.511C187.111 117.871 187.059 118.281 187.059 118.741L186.279 118.568C186.279 117.738 186.424 117.041 186.714 116.476C187.004 115.911 187.404 115.483 187.914 115.193C188.424 114.903 189.009 114.758 189.669 114.758C190.154 114.758 190.576 114.833 190.936 114.983C191.301 115.133 191.609 115.336 191.859 115.591C192.114 115.846 192.319 116.138 192.474 116.468C192.629 116.793 192.741 117.141 192.811 117.511C192.881 117.876 192.916 118.241 192.916 118.606V123.061H191.806ZM185.949 123.061V114.961H186.946V116.956H187.059V123.061H185.949Z" fill="white"/>
<path d="M180.462 123.286C179.657 123.286 178.969 123.103 178.399 122.738C177.829 122.373 177.392 121.868 177.087 121.223C176.782 120.578 176.629 119.838 176.629 119.003C176.629 118.153 176.784 117.408 177.094 116.768C177.404 116.128 177.844 115.631 178.414 115.276C178.989 114.916 179.672 114.736 180.462 114.736C181.272 114.736 181.962 114.918 182.532 115.283C183.107 115.643 183.544 116.146 183.844 116.791C184.149 117.431 184.302 118.168 184.302 119.003C184.302 119.853 184.149 120.601 183.844 121.246C183.539 121.886 183.099 122.386 182.524 122.746C181.949 123.106 181.262 123.286 180.462 123.286ZM180.462 122.228C181.362 122.228 182.032 121.931 182.472 121.336C182.912 120.736 183.132 119.958 183.132 119.003C183.132 118.023 182.909 117.243 182.464 116.663C182.024 116.083 181.357 115.793 180.462 115.793C179.857 115.793 179.357 115.931 178.962 116.206C178.572 116.476 178.279 116.853 178.084 117.338C177.894 117.818 177.799 118.373 177.799 119.003C177.799 119.978 178.024 120.761 178.474 121.351C178.924 121.936 179.587 122.228 180.462 122.228Z" fill="white"/>
<path d="M170.715 123.286C169.64 123.286 168.732 123.048 167.992 122.573C167.252 122.093 166.692 121.431 166.312 120.586C165.932 119.741 165.742 118.766 165.742 117.661C165.742 116.556 165.932 115.581 166.312 114.736C166.692 113.891 167.252 113.231 167.992 112.756C168.732 112.276 169.64 112.036 170.715 112.036C171.97 112.036 172.995 112.358 173.79 113.003C174.585 113.643 175.13 114.503 175.425 115.583L174.3 115.876C174.07 115.021 173.657 114.343 173.062 113.843C172.467 113.343 171.685 113.093 170.715 113.093C169.87 113.093 169.167 113.286 168.607 113.671C168.047 114.056 167.625 114.593 167.34 115.283C167.06 115.968 166.915 116.761 166.905 117.661C166.9 118.561 167.037 119.353 167.317 120.038C167.602 120.723 168.027 121.261 168.592 121.651C169.162 122.036 169.87 122.228 170.715 122.228C171.685 122.228 172.467 121.978 173.062 121.478C173.657 120.973 174.07 120.296 174.3 119.446L175.425 119.738C175.13 120.818 174.585 121.681 173.79 122.326C172.995 122.966 171.97 123.286 170.715 123.286Z" fill="white"/>
<path d="M276.742 141.522C275.982 141.522 275.356 141.358 274.864 141.03C274.376 140.702 274.076 140.246 273.964 139.662L274.864 139.512C274.96 139.88 275.178 140.174 275.518 140.394C275.862 140.61 276.286 140.718 276.79 140.718C277.282 140.718 277.67 140.616 277.954 140.412C278.238 140.204 278.38 139.922 278.38 139.566C278.38 139.366 278.334 139.204 278.242 139.08C278.154 138.952 277.972 138.834 277.696 138.726C277.42 138.618 277.008 138.49 276.46 138.342C275.872 138.182 275.412 138.022 275.08 137.862C274.748 137.702 274.512 137.518 274.372 137.31C274.232 137.098 274.162 136.84 274.162 136.536C274.162 136.168 274.266 135.846 274.474 135.57C274.682 135.29 274.97 135.074 275.338 134.922C275.706 134.766 276.134 134.688 276.622 134.688C277.11 134.688 277.546 134.768 277.93 134.928C278.318 135.084 278.63 135.304 278.866 135.588C279.102 135.872 279.242 136.202 279.286 136.578L278.386 136.74C278.326 136.36 278.136 136.06 277.816 135.84C277.5 135.616 277.098 135.5 276.61 135.492C276.15 135.48 275.776 135.568 275.488 135.756C275.2 135.94 275.056 136.186 275.056 136.494C275.056 136.666 275.108 136.814 275.212 136.938C275.316 137.058 275.504 137.172 275.776 137.28C276.052 137.388 276.444 137.506 276.952 137.634C277.548 137.786 278.016 137.946 278.356 138.114C278.696 138.282 278.938 138.48 279.082 138.708C279.226 138.936 279.298 139.218 279.298 139.554C279.298 140.166 279.07 140.648 278.614 141C278.162 141.348 277.538 141.522 276.742 141.522Z" fill="white"/>
<path d="M271.643 141.348V132.528H272.525V141.348H271.643Z" fill="white"/>
<path d="M267.128 141.528C266.484 141.528 265.934 141.382 265.478 141.09C265.022 140.798 264.672 140.394 264.428 139.878C264.184 139.362 264.062 138.77 264.062 138.102C264.062 137.422 264.186 136.826 264.434 136.314C264.682 135.802 265.034 135.404 265.49 135.12C265.95 134.832 266.496 134.688 267.128 134.688C267.776 134.688 268.328 134.834 268.784 135.126C269.244 135.414 269.594 135.816 269.834 136.332C270.078 136.844 270.2 137.434 270.2 138.102C270.2 138.782 270.078 139.38 269.834 139.896C269.59 140.408 269.238 140.808 268.778 141.096C268.318 141.384 267.768 141.528 267.128 141.528ZM267.128 140.682C267.848 140.682 268.384 140.444 268.736 139.968C269.088 139.488 269.264 138.866 269.264 138.102C269.264 137.318 269.086 136.694 268.73 136.23C268.378 135.766 267.844 135.534 267.128 135.534C266.644 135.534 266.244 135.644 265.928 135.864C265.616 136.08 265.382 136.382 265.226 136.77C265.074 137.154 264.998 137.598 264.998 138.102C264.998 138.882 265.178 139.508 265.538 139.98C265.898 140.448 266.428 140.682 267.128 140.682Z" fill="white"/>
<path d="M260.641 141.528C259.989 141.528 259.437 141.382 258.985 141.09C258.533 140.798 258.189 140.396 257.953 139.884C257.721 139.368 257.601 138.776 257.593 138.108C257.601 137.428 257.725 136.832 257.965 136.32C258.205 135.804 258.551 135.404 259.003 135.12C259.455 134.832 260.003 134.688 260.647 134.688C261.303 134.688 261.873 134.848 262.357 135.168C262.845 135.488 263.179 135.926 263.359 136.482L262.495 136.758C262.343 136.37 262.101 136.07 261.769 135.858C261.441 135.642 261.065 135.534 260.641 135.534C260.165 135.534 259.771 135.644 259.459 135.864C259.147 136.08 258.915 136.382 258.763 136.77C258.611 137.158 258.533 137.604 258.529 138.108C258.537 138.884 258.717 139.508 259.069 139.98C259.421 140.448 259.945 140.682 260.641 140.682C261.081 140.682 261.455 140.582 261.763 140.382C262.075 140.178 262.311 139.882 262.471 139.494L263.359 139.758C263.119 140.334 262.767 140.774 262.303 141.078C261.839 141.378 261.285 141.528 260.641 141.528Z" fill="white"/>
<path d="M253.558 141.528C252.914 141.528 252.364 141.382 251.908 141.09C251.452 140.798 251.102 140.394 250.858 139.878C250.614 139.362 250.492 138.77 250.492 138.102C250.492 137.422 250.616 136.826 250.864 136.314C251.112 135.802 251.464 135.404 251.92 135.12C252.38 134.832 252.926 134.688 253.558 134.688C254.206 134.688 254.758 134.834 255.214 135.126C255.674 135.414 256.024 135.816 256.264 136.332C256.508 136.844 256.63 137.434 256.63 138.102C256.63 138.782 256.508 139.38 256.264 139.896C256.02 140.408 255.668 140.808 255.208 141.096C254.748 141.384 254.198 141.528 253.558 141.528ZM253.558 140.682C254.278 140.682 254.814 140.444 255.166 139.968C255.518 139.488 255.694 138.866 255.694 138.102C255.694 137.318 255.516 136.694 255.16 136.23C254.808 135.766 254.274 135.534 253.558 135.534C253.074 135.534 252.674 135.644 252.358 135.864C252.046 136.08 251.812 136.382 251.656 136.77C251.504 137.154 251.428 137.598 251.428 138.102C251.428 138.882 251.608 139.508 251.968 139.98C252.328 140.448 252.858 140.682 253.558 140.682Z" fill="white"/>
<path d="M249.809 141.348C249.445 141.424 249.085 141.454 248.729 141.438C248.377 141.422 248.061 141.346 247.781 141.21C247.505 141.074 247.295 140.862 247.151 140.574C247.035 140.334 246.971 140.092 246.959 139.848C246.951 139.6 246.947 139.318 246.947 139.002V133.068H247.823V138.966C247.823 139.238 247.825 139.466 247.829 139.65C247.837 139.83 247.879 139.99 247.955 140.13C248.099 140.398 248.327 140.558 248.639 140.61C248.955 140.662 249.345 140.65 249.809 140.574V141.348ZM245.561 135.624V134.868H249.809V135.624H245.561Z" fill="white"/>
<path d="M241.886 141.528C241.242 141.528 240.692 141.382 240.236 141.09C239.78 140.798 239.43 140.394 239.186 139.878C238.942 139.362 238.82 138.77 238.82 138.102C238.82 137.422 238.944 136.826 239.192 136.314C239.44 135.802 239.792 135.404 240.248 135.12C240.708 134.832 241.254 134.688 241.886 134.688C242.534 134.688 243.086 134.834 243.542 135.126C244.002 135.414 244.352 135.816 244.592 136.332C244.836 136.844 244.958 137.434 244.958 138.102C244.958 138.782 244.836 139.38 244.592 139.896C244.348 140.408 243.996 140.808 243.536 141.096C243.076 141.384 242.526 141.528 241.886 141.528ZM241.886 140.682C242.606 140.682 243.142 140.444 243.494 139.968C243.846 139.488 244.022 138.866 244.022 138.102C244.022 137.318 243.844 136.694 243.488 136.23C243.136 135.766 242.602 135.534 241.886 135.534C241.402 135.534 241.002 135.644 240.686 135.864C240.374 136.08 240.14 136.382 239.984 136.77C239.832 137.154 239.756 137.598 239.756 138.102C239.756 138.882 239.936 139.508 240.296 139.98C240.656 140.448 241.186 140.682 241.886 140.682Z" fill="white"/>
<path d="M234.973 141.348V134.868H235.765V136.428L235.609 136.224C235.681 136.032 235.775 135.856 235.891 135.696C236.007 135.532 236.133 135.398 236.269 135.294C236.437 135.146 236.633 135.034 236.857 134.958C237.081 134.878 237.307 134.832 237.535 134.82C237.763 134.804 237.971 134.82 238.159 134.868V135.696C237.923 135.636 237.665 135.622 237.385 135.654C237.105 135.686 236.847 135.798 236.611 135.99C236.395 136.158 236.233 136.36 236.125 136.596C236.017 136.828 235.945 137.076 235.909 137.34C235.873 137.6 235.855 137.858 235.855 138.114V141.348H234.973Z" fill="white"/>
<path d="M227.73 141.348V132.708H231.066C231.15 132.708 231.244 132.712 231.348 132.72C231.456 132.724 231.564 132.736 231.672 132.756C232.124 132.824 232.506 132.982 232.818 133.23C233.134 133.474 233.372 133.782 233.532 134.154C233.696 134.526 233.778 134.938 233.778 135.39C233.778 135.838 233.696 136.248 233.532 136.62C233.368 136.992 233.128 137.302 232.812 137.55C232.5 137.794 232.12 137.95 231.672 138.018C231.564 138.034 231.456 138.046 231.348 138.054C231.244 138.062 231.15 138.066 231.066 138.066H228.612V141.348H227.73ZM228.612 137.226H231.042C231.114 137.226 231.198 137.222 231.294 137.214C231.39 137.206 231.484 137.192 231.576 137.172C231.872 137.108 232.114 136.986 232.302 136.806C232.494 136.626 232.636 136.412 232.728 136.164C232.824 135.916 232.872 135.658 232.872 135.39C232.872 135.122 232.824 134.864 232.728 134.616C232.636 134.364 232.494 134.148 232.302 133.968C232.114 133.788 231.872 133.666 231.576 133.602C231.484 133.582 231.39 133.57 231.294 133.566C231.198 133.558 231.114 133.554 231.042 133.554H228.612V137.226Z" fill="white"/>
<path d="M220.829 141.348V133.554H217.811V132.708H224.729V133.554H221.711V141.348H220.829Z" fill="white"/>
<path d="M214.851 141.528C214.207 141.528 213.657 141.382 213.201 141.09C212.745 140.798 212.395 140.394 212.151 139.878C211.907 139.362 211.785 138.77 211.785 138.102C211.785 137.422 211.909 136.826 212.157 136.314C212.405 135.802 212.757 135.404 213.213 135.12C213.673 134.832 214.219 134.688 214.851 134.688C215.499 134.688 216.051 134.834 216.507 135.126C216.967 135.414 217.317 135.816 217.557 136.332C217.801 136.844 217.923 137.434 217.923 138.102C217.923 138.782 217.801 139.38 217.557 139.896C217.313 140.408 216.961 140.808 216.501 141.096C216.041 141.384 215.491 141.528 214.851 141.528ZM214.851 140.682C215.571 140.682 216.107 140.444 216.459 139.968C216.811 139.488 216.987 138.866 216.987 138.102C216.987 137.318 216.809 136.694 216.453 136.23C216.101 135.766 215.567 135.534 214.851 135.534C214.367 135.534 213.967 135.644 213.651 135.864C213.339 136.08 213.105 136.382 212.949 136.77C212.797 137.154 212.721 137.598 212.721 138.102C212.721 138.882 212.901 139.508 213.261 139.98C213.621 140.448 214.151 140.682 214.851 140.682Z" fill="white"/>
<path d="M209.464 141.348V132.708H210.346V141.348H209.464Z" fill="white"/>
<path d="M202.664 141.528C202.032 141.528 201.484 141.388 201.02 141.108C200.56 140.828 200.202 140.434 199.946 139.926C199.69 139.418 199.562 138.822 199.562 138.138C199.562 137.43 199.688 136.818 199.94 136.302C200.192 135.786 200.546 135.388 201.002 135.108C201.462 134.828 202.004 134.688 202.628 134.688C203.268 134.688 203.814 134.836 204.266 135.132C204.718 135.424 205.06 135.844 205.292 136.392C205.524 136.94 205.63 137.594 205.61 138.354H204.71V138.042C204.694 137.202 204.512 136.568 204.164 136.14C203.82 135.712 203.316 135.498 202.652 135.498C201.956 135.498 201.422 135.724 201.05 136.176C200.682 136.628 200.498 137.272 200.498 138.108C200.498 138.924 200.682 139.558 201.05 140.01C201.422 140.458 201.948 140.682 202.628 140.682C203.092 140.682 203.496 140.576 203.84 140.364C204.188 140.148 204.462 139.838 204.662 139.434L205.484 139.752C205.228 140.316 204.85 140.754 204.35 141.066C203.854 141.374 203.292 141.528 202.664 141.528ZM200.186 138.354V137.616H205.136V138.354H200.186Z" fill="white"/>
<path d="M196.035 141.522C195.275 141.522 194.649 141.358 194.157 141.03C193.669 140.702 193.369 140.246 193.257 139.662L194.157 139.512C194.253 139.88 194.471 140.174 194.811 140.394C195.155 140.61 195.579 140.718 196.083 140.718C196.575 140.718 196.963 140.616 197.247 140.412C197.531 140.204 197.673 139.922 197.673 139.566C197.673 139.366 197.627 139.204 197.535 139.08C197.447 138.952 197.265 138.834 196.989 138.726C196.713 138.618 196.301 138.49 195.753 138.342C195.165 138.182 194.705 138.022 194.373 137.862C194.041 137.702 193.805 137.518 193.665 137.31C193.525 137.098 193.455 136.84 193.455 136.536C193.455 136.168 193.559 135.846 193.767 135.57C193.975 135.29 194.263 135.074 194.631 134.922C194.999 134.766 195.427 134.688 195.915 134.688C196.403 134.688 196.839 134.768 197.223 134.928C197.611 135.084 197.923 135.304 198.159 135.588C198.395 135.872 198.535 136.202 198.579 136.578L197.679 136.74C197.619 136.36 197.429 136.06 197.109 135.84C196.793 135.616 196.391 135.5 195.903 135.492C195.443 135.48 195.069 135.568 194.781 135.756C194.493 135.94 194.349 136.186 194.349 136.494C194.349 136.666 194.401 136.814 194.505 136.938C194.609 137.058 194.797 137.172 195.069 137.28C195.345 137.388 195.737 137.506 196.245 137.634C196.841 137.786 197.309 137.946 197.649 138.114C197.989 138.282 198.231 138.48 198.375 138.708C198.519 138.936 198.591 139.218 198.591 139.554C198.591 140.166 198.363 140.648 197.907 141C197.455 141.348 196.831 141.522 196.035 141.522Z" fill="white"/>
<path d="M189.527 141.348V134.868H190.319V136.428L190.163 136.224C190.235 136.032 190.329 135.856 190.445 135.696C190.561 135.532 190.687 135.398 190.823 135.294C190.991 135.146 191.187 135.034 191.411 134.958C191.635 134.878 191.861 134.832 192.089 134.82C192.317 134.804 192.525 134.82 192.713 134.868V135.696C192.477 135.636 192.219 135.622 191.939 135.654C191.659 135.686 191.401 135.798 191.165 135.99C190.949 136.158 190.787 136.36 190.679 136.596C190.571 136.828 190.499 137.076 190.463 137.34C190.427 137.6 190.409 137.858 190.409 138.114V141.348H189.527Z" fill="white"/>
<path d="M185.25 141.528C184.618 141.528 184.07 141.388 183.606 141.108C183.146 140.828 182.788 140.434 182.532 139.926C182.276 139.418 182.148 138.822 182.148 138.138C182.148 137.43 182.274 136.818 182.526 136.302C182.778 135.786 183.132 135.388 183.588 135.108C184.048 134.828 184.59 134.688 185.214 134.688C185.854 134.688 186.4 134.836 186.852 135.132C187.304 135.424 187.646 135.844 187.878 136.392C188.11 136.94 188.216 137.594 188.196 138.354H187.296V138.042C187.28 137.202 187.098 136.568 186.75 136.14C186.406 135.712 185.902 135.498 185.238 135.498C184.542 135.498 184.008 135.724 183.636 136.176C183.268 136.628 183.084 137.272 183.084 138.108C183.084 138.924 183.268 139.558 183.636 140.01C184.008 140.458 184.534 140.682 185.214 140.682C185.678 140.682 186.082 140.576 186.426 140.364C186.774 140.148 187.048 139.838 187.248 139.434L188.07 139.752C187.814 140.316 187.436 140.754 186.936 141.066C186.44 141.374 185.878 141.528 185.25 141.528ZM182.772 138.354V137.616H187.722V138.354H182.772Z" fill="white"/>
<path d="M178.4 141.348L176.048 134.868H176.942L178.856 140.196L180.758 134.868H181.664L179.312 141.348H178.4Z" fill="white"/>
<path d="M173.968 133.638V132.648H174.85V133.638H173.968ZM173.968 141.348V134.868H174.85V141.348H173.968Z" fill="white"/>
<path d="M165.785 141.348V132.708H168.407C168.499 132.708 168.655 132.71 168.875 132.714C169.099 132.718 169.313 132.734 169.517 132.762C170.173 132.854 170.721 133.098 171.161 133.494C171.601 133.89 171.931 134.394 172.151 135.006C172.371 135.618 172.481 136.292 172.481 137.028C172.481 137.764 172.371 138.438 172.151 139.05C171.931 139.662 171.601 140.166 171.161 140.562C170.721 140.958 170.173 141.202 169.517 141.294C169.317 141.318 169.103 141.334 168.875 141.342C168.647 141.346 168.491 141.348 168.407 141.348H165.785ZM166.697 140.502H168.407C168.571 140.502 168.747 140.498 168.935 140.49C169.127 140.478 169.291 140.458 169.427 140.43C169.931 140.342 170.337 140.138 170.645 139.818C170.957 139.498 171.185 139.098 171.329 138.618C171.473 138.134 171.545 137.604 171.545 137.028C171.545 136.448 171.473 135.916 171.329 135.432C171.185 134.948 170.957 134.548 170.645 134.232C170.333 133.916 169.927 133.714 169.427 133.626C169.291 133.598 169.125 133.58 168.929 133.572C168.737 133.56 168.563 133.554 168.407 133.554H166.697V140.502Z" fill="white"/>
<path d="M159.496 141.522C158.736 141.522 158.11 141.358 157.618 141.03C157.13 140.702 156.83 140.246 156.718 139.662L157.618 139.512C157.714 139.88 157.932 140.174 158.272 140.394C158.616 140.61 159.04 140.718 159.544 140.718C160.036 140.718 160.424 140.616 160.708 140.412C160.992 140.204 161.134 139.922 161.134 139.566C161.134 139.366 161.088 139.204 160.996 139.08C160.908 138.952 160.726 138.834 160.45 138.726C160.174 138.618 159.762 138.49 159.214 138.342C158.626 138.182 158.166 138.022 157.834 137.862C157.502 137.702 157.266 137.518 157.126 137.31C156.986 137.098 156.916 136.84 156.916 136.536C156.916 136.168 157.02 135.846 157.228 135.57C157.436 135.29 157.724 135.074 158.092 134.922C158.46 134.766 158.888 134.688 159.376 134.688C159.864 134.688 160.3 134.768 160.684 134.928C161.072 135.084 161.384 135.304 161.62 135.588C161.856 135.872 161.996 136.202 162.04 136.578L161.14 136.74C161.08 136.36 160.89 136.06 160.57 135.84C160.254 135.616 159.852 135.5 159.364 135.492C158.904 135.48 158.53 135.568 158.242 135.756C157.954 135.94 157.81 136.186 157.81 136.494C157.81 136.666 157.862 136.814 157.966 136.938C158.07 137.058 158.258 137.172 158.53 137.28C158.806 137.388 159.198 137.506 159.706 137.634C160.302 137.786 160.77 137.946 161.11 138.114C161.45 138.282 161.692 138.48 161.836 138.708C161.98 138.936 162.052 139.218 162.052 139.554C162.052 140.166 161.824 140.648 161.368 141C160.916 141.348 160.292 141.522 159.496 141.522Z" fill="white"/>
<path d="M155.801 141.348C155.437 141.424 155.077 141.454 154.721 141.438C154.369 141.422 154.053 141.346 153.773 141.21C153.497 141.074 153.287 140.862 153.143 140.574C153.027 140.334 152.963 140.092 152.951 139.848C152.943 139.6 152.939 139.318 152.939 139.002V133.068H153.815V138.966C153.815 139.238 153.817 139.466 153.821 139.65C153.829 139.83 153.871 139.99 153.947 140.13C154.091 140.398 154.319 140.558 154.631 140.61C154.947 140.662 155.337 140.65 155.801 140.574V141.348ZM151.553 135.624V134.868H155.801V135.624H151.553Z" fill="white"/>
<path d="M147.949 141.348V134.868H148.741V136.428L148.585 136.224C148.657 136.032 148.751 135.856 148.867 135.696C148.983 135.532 149.109 135.398 149.245 135.294C149.413 135.146 149.609 135.034 149.833 134.958C150.057 134.878 150.283 134.832 150.511 134.82C150.739 134.804 150.947 134.82 151.135 134.868V135.696C150.899 135.636 150.641 135.622 150.361 135.654C150.081 135.686 149.823 135.798 149.587 135.99C149.371 136.158 149.209 136.36 149.101 136.596C148.993 136.828 148.921 137.076 148.885 137.34C148.849 137.6 148.831 137.858 148.831 138.114V141.348H147.949Z" fill="white"/>
<path d="M143.554 141.528C142.91 141.528 142.36 141.382 141.904 141.09C141.448 140.798 141.098 140.394 140.854 139.878C140.61 139.362 140.488 138.77 140.488 138.102C140.488 137.422 140.612 136.826 140.86 136.314C141.108 135.802 141.46 135.404 141.916 135.12C142.376 134.832 142.922 134.688 143.554 134.688C144.202 134.688 144.754 134.834 145.21 135.126C145.67 135.414 146.02 135.816 146.26 136.332C146.504 136.844 146.626 137.434 146.626 138.102C146.626 138.782 146.504 139.38 146.26 139.896C146.016 140.408 145.664 140.808 145.204 141.096C144.744 141.384 144.194 141.528 143.554 141.528ZM143.554 140.682C144.274 140.682 144.81 140.444 145.162 139.968C145.514 139.488 145.69 138.866 145.69 138.102C145.69 137.318 145.512 136.694 145.156 136.23C144.804 135.766 144.27 135.534 143.554 135.534C143.07 135.534 142.67 135.644 142.354 135.864C142.042 136.08 141.808 136.382 141.652 136.77C141.5 137.154 141.424 137.598 141.424 138.102C141.424 138.882 141.604 139.508 141.964 139.98C142.324 140.448 142.854 140.682 143.554 140.682Z" fill="white"/>
<path d="M136.656 141.528C136.06 141.528 135.556 141.378 135.144 141.078C134.732 140.774 134.42 140.364 134.208 139.848C133.996 139.328 133.89 138.746 133.89 138.102C133.89 137.446 133.996 136.862 134.208 136.35C134.424 135.834 134.74 135.428 135.156 135.132C135.572 134.836 136.084 134.688 136.692 134.688C137.284 134.688 137.792 134.838 138.216 135.138C138.64 135.438 138.964 135.846 139.188 136.362C139.416 136.878 139.53 137.458 139.53 138.102C139.53 138.75 139.416 139.332 139.188 139.848C138.96 140.364 138.632 140.774 138.204 141.078C137.776 141.378 137.26 141.528 136.656 141.528ZM133.74 144.228V134.868H134.532V139.746H134.628V144.228H133.74ZM136.566 140.706C137.018 140.706 137.394 140.592 137.694 140.364C137.994 140.136 138.218 139.826 138.366 139.434C138.518 139.038 138.594 138.594 138.594 138.102C138.594 137.614 138.52 137.174 138.372 136.782C138.224 136.39 137.998 136.08 137.694 135.852C137.394 135.624 137.012 135.51 136.548 135.51C136.096 135.51 135.72 135.62 135.42 135.84C135.124 136.06 134.902 136.366 134.754 136.758C134.606 137.146 134.532 137.594 134.532 138.102C134.532 138.602 134.606 139.05 134.754 139.446C134.902 139.838 135.126 140.146 135.426 140.37C135.726 140.594 136.106 140.706 136.566 140.706Z" fill="white"/>
<path d="M129.555 141.528C128.959 141.528 128.455 141.378 128.043 141.078C127.631 140.774 127.319 140.364 127.107 139.848C126.895 139.328 126.789 138.746 126.789 138.102C126.789 137.446 126.895 136.862 127.107 136.35C127.323 135.834 127.639 135.428 128.055 135.132C128.471 134.836 128.983 134.688 129.591 134.688C130.183 134.688 130.691 134.838 131.115 135.138C131.539 135.438 131.863 135.846 132.087 136.362C132.315 136.878 132.429 137.458 132.429 138.102C132.429 138.75 132.315 139.332 132.087 139.848C131.859 140.364 131.531 140.774 131.103 141.078C130.675 141.378 130.159 141.528 129.555 141.528ZM126.639 144.228V134.868H127.431V139.746H127.527V144.228H126.639ZM129.465 140.706C129.917 140.706 130.293 140.592 130.593 140.364C130.893 140.136 131.117 139.826 131.265 139.434C131.417 139.038 131.493 138.594 131.493 138.102C131.493 137.614 131.419 137.174 131.271 136.782C131.123 136.39 130.897 136.08 130.593 135.852C130.293 135.624 129.911 135.51 129.447 135.51C128.995 135.51 128.619 135.62 128.319 135.84C128.023 136.06 127.801 136.366 127.653 136.758C127.505 137.146 127.431 137.594 127.431 138.102C127.431 138.602 127.505 139.05 127.653 139.446C127.801 139.838 128.025 140.146 128.325 140.37C128.625 140.594 129.005 140.706 129.465 140.706Z" fill="white"/>
<path d="M121.998 141.51C121.61 141.51 121.27 141.45 120.978 141.33C120.69 141.21 120.444 141.048 120.24 140.844C120.04 140.64 119.878 140.408 119.754 140.148C119.63 139.884 119.54 139.606 119.484 139.314C119.428 139.018 119.4 138.724 119.4 138.432V134.868H120.288V138.174C120.288 138.53 120.322 138.86 120.39 139.164C120.458 139.468 120.566 139.734 120.714 139.962C120.866 140.186 121.06 140.36 121.296 140.484C121.536 140.608 121.826 140.67 122.166 140.67C122.478 140.67 122.752 140.616 122.988 140.508C123.228 140.4 123.428 140.246 123.588 140.046C123.752 139.842 123.876 139.596 123.96 139.308C124.044 139.016 124.086 138.688 124.086 138.324L124.71 138.462C124.71 139.126 124.594 139.684 124.362 140.136C124.13 140.588 123.81 140.93 123.402 141.162C122.994 141.394 122.526 141.51 121.998 141.51ZM124.176 141.348V139.752H124.086V134.868H124.968V141.348H124.176Z" fill="white"/>
<path d="M115.125 141.528C114.521 141.528 113.977 141.428 113.493 141.228C113.013 141.024 112.615 140.736 112.299 140.364C111.987 139.992 111.783 139.55 111.687 139.038L112.587 138.888C112.731 139.448 113.035 139.888 113.499 140.208C113.963 140.524 114.517 140.682 115.161 140.682C115.585 140.682 115.965 140.616 116.301 140.484C116.637 140.348 116.901 140.156 117.093 139.908C117.285 139.66 117.381 139.366 117.381 139.026C117.381 138.802 117.341 138.612 117.261 138.456C117.181 138.296 117.075 138.164 116.943 138.06C116.811 137.956 116.667 137.87 116.511 137.802C116.355 137.73 116.203 137.672 116.055 137.628L113.865 136.974C113.601 136.898 113.357 136.802 113.133 136.686C112.909 136.566 112.713 136.424 112.545 136.26C112.381 136.092 112.253 135.896 112.161 135.672C112.069 135.448 112.023 135.192 112.023 134.904C112.023 134.416 112.151 133.994 112.407 133.638C112.663 133.282 113.013 133.008 113.457 132.816C113.901 132.624 114.407 132.53 114.975 132.534C115.551 132.534 116.065 132.636 116.517 132.84C116.973 133.044 117.349 133.336 117.645 133.716C117.941 134.092 118.137 134.538 118.233 135.054L117.309 135.222C117.249 134.846 117.111 134.52 116.895 134.244C116.679 133.968 116.403 133.756 116.067 133.608C115.735 133.456 115.369 133.378 114.969 133.374C114.581 133.374 114.235 133.44 113.931 133.572C113.631 133.7 113.393 133.876 113.217 134.1C113.041 134.324 112.953 134.58 112.953 134.868C112.953 135.16 113.033 135.394 113.193 135.57C113.357 135.746 113.557 135.884 113.793 135.984C114.033 136.084 114.265 136.166 114.489 136.23L116.181 136.728C116.357 136.776 116.563 136.846 116.799 136.938C117.039 137.026 117.271 137.154 117.495 137.322C117.723 137.486 117.911 137.702 118.059 137.97C118.207 138.238 118.281 138.578 118.281 138.99C118.281 139.39 118.201 139.748 118.041 140.064C117.885 140.38 117.663 140.646 117.375 140.862C117.091 141.078 116.757 141.242 116.373 141.354C115.993 141.47 115.577 141.528 115.125 141.528Z" fill="white"/>
<path d="M316.194 305.061C315.739 305.156 315.289 305.193 314.844 305.173C314.404 305.153 314.009 305.058 313.659 304.888C313.314 304.718 313.052 304.453 312.872 304.093C312.727 303.793 312.647 303.491 312.632 303.186C312.622 302.876 312.617 302.523 312.617 302.128V294.711H313.712V302.083C313.712 302.423 313.714 302.708 313.719 302.938C313.729 303.163 313.782 303.363 313.877 303.538C314.057 303.873 314.342 304.073 314.732 304.138C315.127 304.203 315.614 304.188 316.194 304.093V305.061ZM310.884 297.906V296.961H316.194V297.906H310.884Z" fill="white"/>
<path d="M306.839 305.286C306.024 305.286 305.334 305.104 304.769 304.739C304.204 304.374 303.774 303.871 303.479 303.231C303.189 302.586 303.039 301.846 303.029 301.011C303.039 300.161 303.194 299.416 303.494 298.776C303.794 298.131 304.226 297.631 304.791 297.276C305.356 296.916 306.041 296.736 306.846 296.736C307.666 296.736 308.379 296.936 308.984 297.336C309.594 297.736 310.011 298.284 310.236 298.979L309.156 299.324C308.966 298.839 308.664 298.464 308.249 298.199C307.839 297.929 307.369 297.794 306.839 297.794C306.244 297.794 305.751 297.931 305.361 298.206C304.971 298.476 304.681 298.854 304.491 299.339C304.301 299.824 304.204 300.381 304.199 301.011C304.209 301.981 304.434 302.761 304.874 303.351C305.314 303.936 305.969 304.229 306.839 304.229C307.389 304.229 307.856 304.104 308.241 303.854C308.631 303.599 308.926 303.229 309.126 302.744L310.236 303.074C309.936 303.794 309.496 304.344 308.916 304.724C308.336 305.099 307.644 305.286 306.839 305.286Z" fill="white"/>
<path d="M298.132 305.286C297.342 305.286 296.657 305.111 296.077 304.761C295.502 304.411 295.054 303.919 294.734 303.284C294.414 302.649 294.254 301.904 294.254 301.049C294.254 300.164 294.412 299.399 294.727 298.754C295.042 298.109 295.484 297.611 296.054 297.261C296.629 296.911 297.307 296.736 298.087 296.736C298.887 296.736 299.569 296.921 300.134 297.291C300.699 297.656 301.127 298.181 301.417 298.866C301.707 299.551 301.839 300.369 301.814 301.319H300.689V300.929C300.669 299.879 300.442 299.086 300.007 298.551C299.577 298.016 298.947 297.749 298.117 297.749C297.247 297.749 296.579 298.031 296.114 298.596C295.654 299.161 295.424 299.966 295.424 301.011C295.424 302.031 295.654 302.824 296.114 303.389C296.579 303.949 297.237 304.229 298.087 304.229C298.667 304.229 299.172 304.096 299.602 303.831C300.037 303.561 300.379 303.174 300.629 302.669L301.657 303.066C301.337 303.771 300.864 304.319 300.239 304.709C299.619 305.094 298.917 305.286 298.132 305.286ZM295.034 301.319V300.396H301.222V301.319H295.034Z" fill="white"/>
<path d="M291.353 305.061V294.036H292.456V305.061H291.353Z" fill="white"/>
<path d="M287.852 305.061V294.036H288.955V305.061H287.852Z" fill="white"/>
<path d="M282.208 305.286C281.403 305.286 280.715 305.104 280.145 304.739C279.575 304.374 279.138 303.869 278.833 303.224C278.528 302.579 278.375 301.839 278.375 301.004C278.375 300.154 278.53 299.409 278.84 298.769C279.15 298.129 279.59 297.631 280.16 297.276C280.735 296.916 281.418 296.736 282.208 296.736C283.018 296.736 283.708 296.919 284.278 297.284C284.853 297.644 285.29 298.146 285.59 298.791C285.895 299.431 286.048 300.169 286.048 301.004C286.048 301.854 285.895 302.601 285.59 303.246C285.285 303.886 284.845 304.386 284.27 304.746C283.695 305.106 283.008 305.286 282.208 305.286ZM282.208 304.229C283.108 304.229 283.778 303.931 284.218 303.336C284.658 302.736 284.878 301.959 284.878 301.004C284.878 300.024 284.655 299.244 284.21 298.664C283.77 298.084 283.103 297.794 282.208 297.794C281.603 297.794 281.103 297.931 280.708 298.206C280.318 298.476 280.025 298.854 279.83 299.339C279.64 299.819 279.545 300.374 279.545 301.004C279.545 301.979 279.77 302.761 280.22 303.351C280.67 303.936 281.333 304.229 282.208 304.229Z" fill="white"/>
<path d="M272.461 305.286C271.386 305.286 270.478 305.049 269.738 304.574C268.998 304.094 268.438 303.431 268.058 302.586C267.678 301.741 267.488 300.766 267.488 299.661C267.488 298.556 267.678 297.581 268.058 296.736C268.438 295.891 268.998 295.231 269.738 294.756C270.478 294.276 271.386 294.036 272.461 294.036C273.716 294.036 274.741 294.359 275.536 295.004C276.331 295.644 276.876 296.504 277.171 297.584L276.046 297.876C275.816 297.021 275.403 296.344 274.808 295.844C274.213 295.344 273.431 295.094 272.461 295.094C271.616 295.094 270.913 295.286 270.353 295.671C269.793 296.056 269.371 296.594 269.086 297.284C268.806 297.969 268.661 298.761 268.651 299.661C268.646 300.561 268.783 301.354 269.063 302.039C269.348 302.724 269.773 303.261 270.338 303.651C270.908 304.036 271.616 304.229 272.461 304.229C273.431 304.229 274.213 303.979 274.808 303.479C275.403 302.974 275.816 302.296 276.046 301.446L277.171 301.739C276.876 302.819 276.331 303.681 275.536 304.326C274.741 304.966 273.716 305.286 272.461 305.286Z" fill="white"/>
<path d="M348.447 321.528C347.959 321.528 347.549 321.44 347.217 321.264C346.889 321.088 346.643 320.854 346.479 320.562C346.315 320.27 346.233 319.952 346.233 319.608C346.233 319.256 346.303 318.956 346.443 318.708C346.587 318.456 346.781 318.25 347.025 318.09C347.273 317.93 347.559 317.808 347.883 317.724C348.211 317.644 348.573 317.574 348.969 317.514C349.369 317.45 349.759 317.396 350.139 317.352C350.523 317.304 350.859 317.258 351.147 317.214L350.835 317.406C350.847 316.766 350.723 316.292 350.463 315.984C350.203 315.676 349.751 315.522 349.107 315.522C348.663 315.522 348.287 315.622 347.979 315.822C347.675 316.022 347.461 316.338 347.337 316.77L346.479 316.518C346.627 315.938 346.925 315.488 347.373 315.168C347.821 314.848 348.403 314.688 349.119 314.688C349.711 314.688 350.213 314.8 350.625 315.024C351.041 315.244 351.335 315.564 351.507 315.984C351.587 316.172 351.639 316.382 351.663 316.614C351.687 316.846 351.699 317.082 351.699 317.322V321.348H350.913V319.722L351.141 319.818C350.921 320.374 350.579 320.798 350.115 321.09C349.651 321.382 349.095 321.528 348.447 321.528ZM348.549 320.766C348.961 320.766 349.321 320.692 349.629 320.544C349.937 320.396 350.185 320.194 350.373 319.938C350.561 319.678 350.683 319.386 350.739 319.062C350.787 318.854 350.813 318.626 350.817 318.378C350.821 318.126 350.823 317.938 350.823 317.814L351.159 317.988C350.859 318.028 350.533 318.068 350.181 318.108C349.833 318.148 349.489 318.194 349.149 318.246C348.813 318.298 348.509 318.36 348.237 318.432C348.053 318.484 347.875 318.558 347.703 318.654C347.531 318.746 347.389 318.87 347.277 319.026C347.169 319.182 347.115 319.376 347.115 319.608C347.115 319.796 347.161 319.978 347.253 320.154C347.349 320.33 347.501 320.476 347.709 320.592C347.921 320.708 348.201 320.766 348.549 320.766Z" fill="white"/>
<path d="M345.316 321.348C344.952 321.424 344.592 321.454 344.236 321.438C343.884 321.422 343.568 321.346 343.288 321.21C343.012 321.074 342.802 320.862 342.658 320.574C342.542 320.334 342.478 320.092 342.466 319.848C342.458 319.6 342.454 319.318 342.454 319.002V313.068H343.33V318.966C343.33 319.238 343.332 319.466 343.336 319.65C343.344 319.83 343.386 319.99 343.462 320.13C343.606 320.398 343.834 320.558 344.146 320.61C344.462 320.662 344.852 320.65 345.316 320.574V321.348ZM341.068 315.624V314.868H345.316V315.624H341.068Z" fill="white"/>
<path d="M336.974 321.528C336.486 321.528 336.076 321.44 335.744 321.264C335.416 321.088 335.17 320.854 335.006 320.562C334.842 320.27 334.76 319.952 334.76 319.608C334.76 319.256 334.83 318.956 334.97 318.708C335.114 318.456 335.308 318.25 335.552 318.09C335.8 317.93 336.086 317.808 336.41 317.724C336.738 317.644 337.1 317.574 337.496 317.514C337.896 317.45 338.286 317.396 338.666 317.352C339.05 317.304 339.386 317.258 339.674 317.214L339.362 317.406C339.374 316.766 339.25 316.292 338.99 315.984C338.73 315.676 338.278 315.522 337.634 315.522C337.19 315.522 336.814 315.622 336.506 315.822C336.202 316.022 335.988 316.338 335.864 316.77L335.006 316.518C335.154 315.938 335.452 315.488 335.9 315.168C336.348 314.848 336.93 314.688 337.646 314.688C338.238 314.688 338.74 314.8 339.152 315.024C339.568 315.244 339.862 315.564 340.034 315.984C340.114 316.172 340.166 316.382 340.19 316.614C340.214 316.846 340.226 317.082 340.226 317.322V321.348H339.44V319.722L339.668 319.818C339.448 320.374 339.106 320.798 338.642 321.09C338.178 321.382 337.622 321.528 336.974 321.528ZM337.076 320.766C337.488 320.766 337.848 320.692 338.156 320.544C338.464 320.396 338.712 320.194 338.9 319.938C339.088 319.678 339.21 319.386 339.266 319.062C339.314 318.854 339.34 318.626 339.344 318.378C339.348 318.126 339.35 317.938 339.35 317.814L339.686 317.988C339.386 318.028 339.06 318.068 338.708 318.108C338.36 318.148 338.016 318.194 337.676 318.246C337.34 318.298 337.036 318.36 336.764 318.432C336.58 318.484 336.402 318.558 336.23 318.654C336.058 318.746 335.916 318.87 335.804 319.026C335.696 319.182 335.642 319.376 335.642 319.608C335.642 319.796 335.688 319.978 335.78 320.154C335.876 320.33 336.028 320.476 336.236 320.592C336.448 320.708 336.728 320.766 337.076 320.766Z" fill="white"/>
<path d="M327.058 321.348V312.708H329.68C329.772 312.708 329.928 312.71 330.148 312.714C330.372 312.718 330.586 312.734 330.79 312.762C331.446 312.854 331.994 313.098 332.434 313.494C332.874 313.89 333.204 314.394 333.424 315.006C333.644 315.618 333.754 316.292 333.754 317.028C333.754 317.764 333.644 318.438 333.424 319.05C333.204 319.662 332.874 320.166 332.434 320.562C331.994 320.958 331.446 321.202 330.79 321.294C330.59 321.318 330.376 321.334 330.148 321.342C329.92 321.346 329.764 321.348 329.68 321.348H327.058ZM327.97 320.502H329.68C329.844 320.502 330.02 320.498 330.208 320.49C330.4 320.478 330.564 320.458 330.7 320.43C331.204 320.342 331.61 320.138 331.918 319.818C332.23 319.498 332.458 319.098 332.602 318.618C332.746 318.134 332.818 317.604 332.818 317.028C332.818 316.448 332.746 315.916 332.602 315.432C332.458 314.948 332.23 314.548 331.918 314.232C331.606 313.916 331.2 313.714 330.7 313.626C330.564 313.598 330.398 313.58 330.202 313.572C330.01 313.56 329.836 313.554 329.68 313.554H327.97V320.502Z" fill="white"/>
<path d="M320.378 321.528C319.746 321.528 319.198 321.388 318.734 321.108C318.274 320.828 317.916 320.434 317.66 319.926C317.404 319.418 317.276 318.822 317.276 318.138C317.276 317.43 317.402 316.818 317.654 316.302C317.906 315.786 318.26 315.388 318.716 315.108C319.176 314.828 319.718 314.688 320.342 314.688C320.982 314.688 321.528 314.836 321.98 315.132C322.432 315.424 322.774 315.844 323.006 316.392C323.238 316.94 323.344 317.594 323.324 318.354H322.424V318.042C322.408 317.202 322.226 316.568 321.878 316.14C321.534 315.712 321.03 315.498 320.366 315.498C319.67 315.498 319.136 315.724 318.764 316.176C318.396 316.628 318.212 317.272 318.212 318.108C318.212 318.924 318.396 319.558 318.764 320.01C319.136 320.458 319.662 320.682 320.342 320.682C320.806 320.682 321.21 320.576 321.554 320.364C321.902 320.148 322.176 319.838 322.376 319.434L323.198 319.752C322.942 320.316 322.564 320.754 322.064 321.066C321.568 321.374 321.006 321.528 320.378 321.528ZM317.9 318.354V317.616H322.85V318.354H317.9Z" fill="white"/>
<path d="M313.529 321.348L311.177 314.868H312.071L313.985 320.196L315.887 314.868H316.793L314.441 321.348H313.529Z" fill="white"/>
<path d="M309.096 313.638V312.648H309.978V313.638H309.096ZM309.096 321.348V314.868H309.978V321.348H309.096Z" fill="white"/>
<path d="M305.089 321.522C304.329 321.522 303.703 321.358 303.211 321.03C302.723 320.702 302.423 320.246 302.311 319.662L303.211 319.512C303.307 319.88 303.525 320.174 303.865 320.394C304.209 320.61 304.633 320.718 305.137 320.718C305.629 320.718 306.017 320.616 306.301 320.412C306.585 320.204 306.727 319.922 306.727 319.566C306.727 319.366 306.681 319.204 306.589 319.08C306.501 318.952 306.319 318.834 306.043 318.726C305.767 318.618 305.355 318.49 304.807 318.342C304.219 318.182 303.759 318.022 303.427 317.862C303.095 317.702 302.859 317.518 302.719 317.31C302.579 317.098 302.509 316.84 302.509 316.536C302.509 316.168 302.613 315.846 302.821 315.57C303.029 315.29 303.317 315.074 303.685 314.922C304.053 314.766 304.481 314.688 304.969 314.688C305.457 314.688 305.893 314.768 306.277 314.928C306.665 315.084 306.977 315.304 307.213 315.588C307.449 315.872 307.589 316.202 307.633 316.578L306.733 316.74C306.673 316.36 306.483 316.06 306.163 315.84C305.847 315.616 305.445 315.5 304.957 315.492C304.497 315.48 304.123 315.568 303.835 315.756C303.547 315.94 303.403 316.186 303.403 316.494C303.403 316.666 303.455 316.814 303.559 316.938C303.663 317.058 303.851 317.172 304.123 317.28C304.399 317.388 304.791 317.506 305.299 317.634C305.895 317.786 306.363 317.946 306.703 318.114C307.043 318.282 307.285 318.48 307.429 318.708C307.573 318.936 307.645 319.218 307.645 319.554C307.645 320.166 307.417 320.648 306.961 321C306.509 321.348 305.885 321.522 305.089 321.522Z" fill="white"/>
<path d="M298.784 321.522C298.024 321.522 297.398 321.358 296.906 321.03C296.418 320.702 296.118 320.246 296.006 319.662L296.906 319.512C297.002 319.88 297.22 320.174 297.56 320.394C297.904 320.61 298.328 320.718 298.832 320.718C299.324 320.718 299.712 320.616 299.996 320.412C300.28 320.204 300.422 319.922 300.422 319.566C300.422 319.366 300.376 319.204 300.284 319.08C300.196 318.952 300.014 318.834 299.738 318.726C299.462 318.618 299.05 318.49 298.502 318.342C297.914 318.182 297.454 318.022 297.122 317.862C296.79 317.702 296.554 317.518 296.414 317.31C296.274 317.098 296.204 316.84 296.204 316.536C296.204 316.168 296.308 315.846 296.516 315.57C296.724 315.29 297.012 315.074 297.38 314.922C297.748 314.766 298.176 314.688 298.664 314.688C299.152 314.688 299.588 314.768 299.972 314.928C300.36 315.084 300.672 315.304 300.908 315.588C301.144 315.872 301.284 316.202 301.328 316.578L300.428 316.74C300.368 316.36 300.178 316.06 299.858 315.84C299.542 315.616 299.14 315.5 298.652 315.492C298.192 315.48 297.818 315.568 297.53 315.756C297.242 315.94 297.098 316.186 297.098 316.494C297.098 316.666 297.15 316.814 297.254 316.938C297.358 317.058 297.546 317.172 297.818 317.28C298.094 317.388 298.486 317.506 298.994 317.634C299.59 317.786 300.058 317.946 300.398 318.114C300.738 318.282 300.98 318.48 301.124 318.708C301.268 318.936 301.34 319.218 301.34 319.554C301.34 320.166 301.112 320.648 300.656 321C300.204 321.348 299.58 321.522 298.784 321.522Z" fill="white"/>
<path d="M291.552 321.528C291.064 321.528 290.654 321.44 290.322 321.264C289.994 321.088 289.748 320.854 289.584 320.562C289.42 320.27 289.338 319.952 289.338 319.608C289.338 319.256 289.408 318.956 289.548 318.708C289.692 318.456 289.886 318.25 290.13 318.09C290.378 317.93 290.664 317.808 290.988 317.724C291.316 317.644 291.678 317.574 292.074 317.514C292.474 317.45 292.864 317.396 293.244 317.352C293.628 317.304 293.964 317.258 294.252 317.214L293.94 317.406C293.952 316.766 293.828 316.292 293.568 315.984C293.308 315.676 292.856 315.522 292.212 315.522C291.768 315.522 291.392 315.622 291.084 315.822C290.78 316.022 290.566 316.338 290.442 316.77L289.584 316.518C289.732 315.938 290.03 315.488 290.478 315.168C290.926 314.848 291.508 314.688 292.224 314.688C292.816 314.688 293.318 314.8 293.73 315.024C294.146 315.244 294.44 315.564 294.612 315.984C294.692 316.172 294.744 316.382 294.768 316.614C294.792 316.846 294.804 317.082 294.804 317.322V321.348H294.018V319.722L294.246 319.818C294.026 320.374 293.684 320.798 293.22 321.09C292.756 321.382 292.2 321.528 291.552 321.528ZM291.654 320.766C292.066 320.766 292.426 320.692 292.734 320.544C293.042 320.396 293.29 320.194 293.478 319.938C293.666 319.678 293.788 319.386 293.844 319.062C293.892 318.854 293.918 318.626 293.922 318.378C293.926 318.126 293.928 317.938 293.928 317.814L294.264 317.988C293.964 318.028 293.638 318.068 293.286 318.108C292.938 318.148 292.594 318.194 292.254 318.246C291.918 318.298 291.614 318.36 291.342 318.432C291.158 318.484 290.98 318.558 290.808 318.654C290.636 318.746 290.494 318.87 290.382 319.026C290.274 319.182 290.22 319.376 290.22 319.608C290.22 319.796 290.266 319.978 290.358 320.154C290.454 320.33 290.606 320.476 290.814 320.592C291.026 320.708 291.306 320.766 291.654 320.766Z" fill="white"/>
<path d="M279.609 321.348V312.708H280.419L283.815 319.974L287.193 312.708H288.015V321.342H287.175V314.676L284.097 321.348H283.527L280.455 314.676V321.348H279.609Z" fill="white"/>
<path d="M273.32 321.522C272.56 321.522 271.934 321.358 271.442 321.03C270.954 320.702 270.654 320.246 270.542 319.662L271.442 319.512C271.538 319.88 271.756 320.174 272.096 320.394C272.44 320.61 272.864 320.718 273.368 320.718C273.86 320.718 274.248 320.616 274.532 320.412C274.816 320.204 274.958 319.922 274.958 319.566C274.958 319.366 274.912 319.204 274.82 319.08C274.732 318.952 274.55 318.834 274.274 318.726C273.998 318.618 273.586 318.49 273.038 318.342C272.45 318.182 271.99 318.022 271.658 317.862C271.326 317.702 271.09 317.518 270.95 317.31C270.81 317.098 270.74 316.84 270.74 316.536C270.74 316.168 270.844 315.846 271.052 315.57C271.26 315.29 271.548 315.074 271.916 314.922C272.284 314.766 272.712 314.688 273.2 314.688C273.688 314.688 274.124 314.768 274.508 314.928C274.896 315.084 275.208 315.304 275.444 315.588C275.68 315.872 275.82 316.202 275.864 316.578L274.964 316.74C274.904 316.36 274.714 316.06 274.394 315.84C274.078 315.616 273.676 315.5 273.188 315.492C272.728 315.48 272.354 315.568 272.066 315.756C271.778 315.94 271.634 316.186 271.634 316.494C271.634 316.666 271.686 316.814 271.79 316.938C271.894 317.058 272.082 317.172 272.354 317.28C272.63 317.388 273.022 317.506 273.53 317.634C274.126 317.786 274.594 317.946 274.934 318.114C275.274 318.282 275.516 318.48 275.66 318.708C275.804 318.936 275.876 319.218 275.876 319.554C275.876 320.166 275.648 320.648 275.192 321C274.74 321.348 274.116 321.522 273.32 321.522Z" fill="white"/>
<path d="M266.624 321.528C265.992 321.528 265.444 321.388 264.98 321.108C264.52 320.828 264.162 320.434 263.906 319.926C263.65 319.418 263.522 318.822 263.522 318.138C263.522 317.43 263.648 316.818 263.9 316.302C264.152 315.786 264.506 315.388 264.962 315.108C265.422 314.828 265.964 314.688 266.588 314.688C267.228 314.688 267.774 314.836 268.226 315.132C268.678 315.424 269.02 315.844 269.252 316.392C269.484 316.94 269.59 317.594 269.57 318.354H268.67V318.042C268.654 317.202 268.472 316.568 268.124 316.14C267.78 315.712 267.276 315.498 266.612 315.498C265.916 315.498 265.382 315.724 265.01 316.176C264.642 316.628 264.458 317.272 264.458 318.108C264.458 318.924 264.642 319.558 265.01 320.01C265.382 320.458 265.908 320.682 266.588 320.682C267.052 320.682 267.456 320.576 267.8 320.364C268.148 320.148 268.422 319.838 268.622 319.434L269.444 319.752C269.188 320.316 268.81 320.754 268.31 321.066C267.814 321.374 267.252 321.528 266.624 321.528ZM264.146 318.354V317.616H269.096V318.354H264.146Z" fill="white"/>
<path d="M261.201 321.348V312.528H262.083V321.348H261.201Z" fill="white"/>
<path d="M256.482 321.528C255.878 321.528 255.362 321.378 254.934 321.078C254.506 320.774 254.178 320.364 253.95 319.848C253.722 319.332 253.608 318.75 253.608 318.102C253.608 317.458 253.72 316.878 253.944 316.362C254.172 315.846 254.498 315.438 254.922 315.138C255.346 314.838 255.854 314.688 256.446 314.688C257.054 314.688 257.566 314.836 257.982 315.132C258.398 315.428 258.712 315.834 258.924 316.35C259.14 316.862 259.248 317.446 259.248 318.102C259.248 318.746 259.142 319.328 258.93 319.848C258.718 320.364 258.406 320.774 257.994 321.078C257.582 321.378 257.078 321.528 256.482 321.528ZM256.572 320.706C257.032 320.706 257.412 320.594 257.712 320.37C258.012 320.146 258.236 319.838 258.384 319.446C258.532 319.05 258.606 318.602 258.606 318.102C258.606 317.594 258.532 317.146 258.384 316.758C258.236 316.366 258.012 316.06 257.712 315.84C257.416 315.62 257.042 315.51 256.59 315.51C256.126 315.51 255.742 315.624 255.438 315.852C255.134 316.08 254.908 316.39 254.76 316.782C254.616 317.174 254.544 317.614 254.544 318.102C254.544 318.594 254.618 319.038 254.766 319.434C254.918 319.826 255.144 320.136 255.444 320.364C255.744 320.592 256.12 320.706 256.572 320.706ZM258.606 321.348V316.47H258.51V312.708H259.398V321.348H258.606Z" fill="white"/>
<path d="M251.57 321.348V318.042C251.57 317.682 251.536 317.352 251.468 317.052C251.4 316.748 251.29 316.484 251.138 316.26C250.99 316.032 250.796 315.856 250.556 315.732C250.32 315.608 250.032 315.546 249.692 315.546C249.38 315.546 249.104 315.6 248.864 315.708C248.628 315.816 248.428 315.972 248.264 316.176C248.104 316.376 247.982 316.62 247.898 316.908C247.814 317.196 247.772 317.524 247.772 317.892L247.148 317.754C247.148 317.09 247.264 316.532 247.496 316.08C247.728 315.628 248.048 315.286 248.456 315.054C248.864 314.822 249.332 314.706 249.86 314.706C250.248 314.706 250.586 314.766 250.874 314.886C251.166 315.006 251.412 315.168 251.612 315.372C251.816 315.576 251.98 315.81 252.104 316.074C252.228 316.334 252.318 316.612 252.374 316.908C252.43 317.2 252.458 317.492 252.458 317.784V321.348H251.57ZM246.884 321.348V314.868H247.682V316.464H247.772V321.348H246.884Z" fill="white"/>
<path d="M242.076 321.528C241.588 321.528 241.178 321.44 240.846 321.264C240.518 321.088 240.272 320.854 240.108 320.562C239.944 320.27 239.862 319.952 239.862 319.608C239.862 319.256 239.932 318.956 240.072 318.708C240.216 318.456 240.41 318.25 240.654 318.09C240.902 317.93 241.188 317.808 241.512 317.724C241.84 317.644 242.202 317.574 242.598 317.514C242.998 317.45 243.388 317.396 243.768 317.352C244.152 317.304 244.488 317.258 244.776 317.214L244.464 317.406C244.476 316.766 244.352 316.292 244.092 315.984C243.832 315.676 243.38 315.522 242.736 315.522C242.292 315.522 241.916 315.622 241.608 315.822C241.304 316.022 241.09 316.338 240.966 316.77L240.108 316.518C240.256 315.938 240.554 315.488 241.002 315.168C241.45 314.848 242.032 314.688 242.748 314.688C243.34 314.688 243.842 314.8 244.254 315.024C244.67 315.244 244.964 315.564 245.136 315.984C245.216 316.172 245.268 316.382 245.292 316.614C245.316 316.846 245.328 317.082 245.328 317.322V321.348H244.542V319.722L244.77 319.818C244.55 320.374 244.208 320.798 243.744 321.09C243.28 321.382 242.724 321.528 242.076 321.528ZM242.178 320.766C242.59 320.766 242.95 320.692 243.258 320.544C243.566 320.396 243.814 320.194 244.002 319.938C244.19 319.678 244.312 319.386 244.368 319.062C244.416 318.854 244.442 318.626 244.446 318.378C244.45 318.126 244.452 317.938 244.452 317.814L244.788 317.988C244.488 318.028 244.162 318.068 243.81 318.108C243.462 318.148 243.118 318.194 242.778 318.246C242.442 318.298 242.138 318.36 241.866 318.432C241.682 318.484 241.504 318.558 241.332 318.654C241.16 318.746 241.018 318.87 240.906 319.026C240.798 319.182 240.744 319.376 240.744 319.608C240.744 319.796 240.79 319.978 240.882 320.154C240.978 320.33 241.13 320.476 241.338 320.592C241.55 320.708 241.83 320.766 242.178 320.766Z" fill="white"/>
<path d="M232.007 321.348V312.708H232.889V316.602H237.665V312.708H238.541V321.348H237.665V317.448H232.889V321.348H232.007Z" fill="white"/>
<path d="M118.448 305.286C117.658 305.286 116.973 305.111 116.393 304.761C115.818 304.411 115.371 303.919 115.051 303.284C114.731 302.649 114.571 301.904 114.571 301.049C114.571 300.164 114.728 299.399 115.043 298.754C115.358 298.109 115.801 297.611 116.371 297.261C116.946 296.911 117.623 296.736 118.403 296.736C119.203 296.736 119.886 296.921 120.451 297.291C121.016 297.656 121.443 298.181 121.733 298.866C122.023 299.551 122.156 300.369 122.131 301.319H121.006V300.929C120.986 299.879 120.758 299.086 120.323 298.551C119.893 298.016 119.263 297.749 118.433 297.749C117.563 297.749 116.896 298.031 116.431 298.596C115.971 299.161 115.741 299.966 115.741 301.011C115.741 302.031 115.971 302.824 116.431 303.389C116.896 303.949 117.553 304.229 118.403 304.229C118.983 304.229 119.488 304.096 119.918 303.831C120.353 303.561 120.696 303.174 120.946 302.669L121.973 303.066C121.653 303.771 121.181 304.319 120.556 304.709C119.936 305.094 119.233 305.286 118.448 305.286ZM115.351 301.319V300.396H121.538V301.319H115.351Z" fill="white"/>
<path d="M109.762 305.061V296.961H110.752V298.911L110.557 298.656C110.647 298.416 110.765 298.196 110.91 297.996C111.055 297.791 111.212 297.624 111.382 297.494C111.592 297.309 111.837 297.169 112.117 297.074C112.397 296.974 112.68 296.916 112.965 296.901C113.25 296.881 113.51 296.901 113.745 296.961V297.996C113.45 297.921 113.127 297.904 112.777 297.944C112.427 297.984 112.105 298.124 111.81 298.364C111.54 298.574 111.337 298.826 111.202 299.121C111.067 299.411 110.977 299.721 110.932 300.051C110.887 300.376 110.865 300.699 110.865 301.019V305.061H109.762Z" fill="white"/>
<path d="M104.268 305.286C103.463 305.286 102.775 305.104 102.205 304.739C101.635 304.374 101.198 303.869 100.893 303.224C100.588 302.579 100.435 301.839 100.435 301.004C100.435 300.154 100.59 299.409 100.9 298.769C101.21 298.129 101.65 297.631 102.22 297.276C102.795 296.916 103.478 296.736 104.268 296.736C105.078 296.736 105.768 296.919 106.338 297.284C106.913 297.644 107.35 298.146 107.65 298.791C107.955 299.431 108.108 300.169 108.108 301.004C108.108 301.854 107.955 302.601 107.65 303.246C107.345 303.886 106.905 304.386 106.33 304.746C105.755 305.106 105.068 305.286 104.268 305.286ZM104.268 304.229C105.168 304.229 105.838 303.931 106.278 303.336C106.718 302.736 106.938 301.959 106.938 301.004C106.938 300.024 106.715 299.244 106.27 298.664C105.83 298.084 105.163 297.794 104.268 297.794C103.663 297.794 103.163 297.931 102.768 298.206C102.378 298.476 102.085 298.854 101.89 299.339C101.7 299.819 101.605 300.374 101.605 301.004C101.605 301.979 101.83 302.761 102.28 303.351C102.73 303.936 103.393 304.229 104.268 304.229Z" fill="white"/>
<path d="M99.5822 305.061C99.1272 305.156 98.6772 305.193 98.2322 305.173C97.7922 305.153 97.3972 305.058 97.0472 304.888C96.7022 304.718 96.4397 304.453 96.2597 304.093C96.1147 303.793 96.0347 303.491 96.0197 303.186C96.0097 302.876 96.0047 302.523 96.0047 302.128V294.711H97.0997V302.083C97.0997 302.423 97.1022 302.708 97.1072 302.938C97.1172 303.163 97.1697 303.363 97.2647 303.538C97.4447 303.873 97.7297 304.073 98.1197 304.138C98.5147 304.203 99.0022 304.188 99.5822 304.093V305.061ZM94.2722 297.906V296.961H99.5822V297.906H94.2722Z" fill="white"/>
<path d="M89.679 305.286C88.924 305.286 88.244 305.161 87.639 304.911C87.039 304.656 86.5415 304.296 86.1465 303.831C85.7565 303.366 85.5015 302.814 85.3815 302.174L86.5065 301.986C86.6865 302.686 87.0665 303.236 87.6465 303.636C88.2265 304.031 88.919 304.229 89.724 304.229C90.254 304.229 90.729 304.146 91.149 303.981C91.569 303.811 91.899 303.571 92.139 303.261C92.379 302.951 92.499 302.584 92.499 302.159C92.499 301.879 92.449 301.641 92.349 301.446C92.249 301.246 92.1165 301.081 91.9515 300.951C91.7865 300.821 91.6065 300.714 91.4115 300.629C91.2165 300.539 91.0265 300.466 90.8415 300.411L88.104 299.594C87.774 299.499 87.469 299.379 87.189 299.234C86.909 299.084 86.664 298.906 86.454 298.701C86.249 298.491 86.089 298.246 85.974 297.966C85.859 297.686 85.8015 297.366 85.8015 297.006C85.8015 296.396 85.9615 295.869 86.2815 295.424C86.6015 294.979 87.039 294.636 87.594 294.396C88.149 294.156 88.7815 294.039 89.4915 294.044C90.2115 294.044 90.854 294.171 91.419 294.426C91.989 294.681 92.459 295.046 92.829 295.521C93.199 295.991 93.444 296.549 93.564 297.194L92.409 297.404C92.334 296.934 92.1615 296.526 91.8915 296.181C91.6215 295.836 91.2765 295.571 90.8565 295.386C90.4415 295.196 89.984 295.099 89.484 295.094C88.999 295.094 88.5665 295.176 88.1865 295.341C87.8115 295.501 87.514 295.721 87.294 296.001C87.074 296.281 86.964 296.601 86.964 296.961C86.964 297.326 87.064 297.619 87.264 297.839C87.469 298.059 87.719 298.231 88.014 298.356C88.314 298.481 88.604 298.584 88.884 298.664L90.999 299.286C91.219 299.346 91.4765 299.434 91.7715 299.549C92.0715 299.659 92.3615 299.819 92.6415 300.029C92.9265 300.234 93.1615 300.504 93.3465 300.839C93.5315 301.174 93.624 301.599 93.624 302.114C93.624 302.614 93.524 303.061 93.324 303.456C93.129 303.851 92.8515 304.184 92.4915 304.454C92.1365 304.724 91.719 304.929 91.239 305.069C90.764 305.214 90.244 305.286 89.679 305.286Z" fill="white"/>
<path d="M166.05 321.528C165.418 321.528 164.87 321.388 164.406 321.108C163.946 320.828 163.588 320.434 163.332 319.926C163.076 319.418 162.948 318.822 162.948 318.138C162.948 317.43 163.074 316.818 163.326 316.302C163.578 315.786 163.932 315.388 164.388 315.108C164.848 314.828 165.39 314.688 166.014 314.688C166.654 314.688 167.2 314.836 167.652 315.132C168.104 315.424 168.446 315.844 168.678 316.392C168.91 316.94 169.016 317.594 168.996 318.354H168.096V318.042C168.08 317.202 167.898 316.568 167.55 316.14C167.206 315.712 166.702 315.498 166.038 315.498C165.342 315.498 164.808 315.724 164.436 316.176C164.068 316.628 163.884 317.272 163.884 318.108C163.884 318.924 164.068 319.558 164.436 320.01C164.808 320.458 165.334 320.682 166.014 320.682C166.478 320.682 166.882 320.576 167.226 320.364C167.574 320.148 167.848 319.838 168.048 319.434L168.87 319.752C168.614 320.316 168.236 320.754 167.736 321.066C167.24 321.374 166.678 321.528 166.05 321.528ZM163.572 318.354V317.616H168.522V318.354H163.572Z" fill="white"/>
<path d="M158.78 324.408C158.448 324.408 158.12 324.358 157.796 324.258C157.476 324.162 157.18 324.008 156.908 323.796C156.636 323.588 156.408 323.316 156.224 322.98L157.022 322.536C157.202 322.896 157.454 323.154 157.778 323.31C158.106 323.47 158.44 323.55 158.78 323.55C159.248 323.55 159.626 323.462 159.914 323.286C160.206 323.114 160.418 322.858 160.55 322.518C160.682 322.178 160.746 321.754 160.742 321.246V319.518H160.844V314.868H161.63V321.258C161.63 321.442 161.624 321.618 161.612 321.786C161.604 321.958 161.586 322.126 161.558 322.29C161.482 322.774 161.324 323.172 161.084 323.484C160.848 323.796 160.536 324.028 160.148 324.18C159.764 324.332 159.308 324.408 158.78 324.408ZM158.72 321.528C158.116 321.528 157.6 321.378 157.172 321.078C156.744 320.774 156.416 320.364 156.188 319.848C155.96 319.332 155.846 318.75 155.846 318.102C155.846 317.458 155.958 316.878 156.182 316.362C156.41 315.846 156.736 315.438 157.16 315.138C157.584 314.838 158.092 314.688 158.684 314.688C159.292 314.688 159.804 314.836 160.22 315.132C160.636 315.428 160.95 315.834 161.162 316.35C161.378 316.862 161.486 317.446 161.486 318.102C161.486 318.746 161.38 319.328 161.168 319.848C160.956 320.364 160.644 320.774 160.232 321.078C159.82 321.378 159.316 321.528 158.72 321.528ZM158.81 320.706C159.27 320.706 159.65 320.594 159.95 320.37C160.25 320.146 160.474 319.838 160.622 319.446C160.77 319.05 160.844 318.602 160.844 318.102C160.844 317.594 160.77 317.146 160.622 316.758C160.474 316.366 160.25 316.06 159.95 315.84C159.654 315.62 159.28 315.51 158.828 315.51C158.364 315.51 157.98 315.624 157.676 315.852C157.372 316.08 157.146 316.39 156.998 316.782C156.854 317.174 156.782 317.614 156.782 318.102C156.782 318.594 156.856 319.038 157.004 319.434C157.156 319.826 157.382 320.136 157.682 320.364C157.982 320.592 158.358 320.706 158.81 320.706Z" fill="white"/>
<path d="M151.392 321.528C150.904 321.528 150.494 321.44 150.162 321.264C149.834 321.088 149.588 320.854 149.424 320.562C149.26 320.27 149.178 319.952 149.178 319.608C149.178 319.256 149.248 318.956 149.388 318.708C149.532 318.456 149.726 318.25 149.97 318.09C150.218 317.93 150.504 317.808 150.828 317.724C151.156 317.644 151.518 317.574 151.914 317.514C152.314 317.45 152.704 317.396 153.084 317.352C153.468 317.304 153.804 317.258 154.092 317.214L153.78 317.406C153.792 316.766 153.668 316.292 153.408 315.984C153.148 315.676 152.696 315.522 152.052 315.522C151.608 315.522 151.232 315.622 150.924 315.822C150.62 316.022 150.406 316.338 150.282 316.77L149.424 316.518C149.572 315.938 149.87 315.488 150.318 315.168C150.766 314.848 151.348 314.688 152.064 314.688C152.656 314.688 153.158 314.8 153.57 315.024C153.986 315.244 154.28 315.564 154.452 315.984C154.532 316.172 154.584 316.382 154.608 316.614C154.632 316.846 154.644 317.082 154.644 317.322V321.348H153.858V319.722L154.086 319.818C153.866 320.374 153.524 320.798 153.06 321.09C152.596 321.382 152.04 321.528 151.392 321.528ZM151.494 320.766C151.906 320.766 152.266 320.692 152.574 320.544C152.882 320.396 153.13 320.194 153.318 319.938C153.506 319.678 153.628 319.386 153.684 319.062C153.732 318.854 153.758 318.626 153.762 318.378C153.766 318.126 153.768 317.938 153.768 317.814L154.104 317.988C153.804 318.028 153.478 318.068 153.126 318.108C152.778 318.148 152.434 318.194 152.094 318.246C151.758 318.298 151.454 318.36 151.182 318.432C150.998 318.484 150.82 318.558 150.648 318.654C150.476 318.746 150.334 318.87 150.222 319.026C150.114 319.182 150.06 319.376 150.06 319.608C150.06 319.796 150.106 319.978 150.198 320.154C150.294 320.33 150.446 320.476 150.654 320.592C150.866 320.708 151.146 320.766 151.494 320.766Z" fill="white"/>
<path d="M145.448 321.348V314.868H146.24V316.428L146.084 316.224C146.156 316.032 146.25 315.856 146.366 315.696C146.482 315.532 146.608 315.398 146.744 315.294C146.912 315.146 147.108 315.034 147.332 314.958C147.556 314.878 147.782 314.832 148.01 314.82C148.238 314.804 148.446 314.82 148.634 314.868V315.696C148.398 315.636 148.14 315.622 147.86 315.654C147.58 315.686 147.322 315.798 147.086 315.99C146.87 316.158 146.708 316.36 146.6 316.596C146.492 316.828 146.42 317.076 146.384 317.34C146.348 317.6 146.33 317.858 146.33 318.114V321.348H145.448Z" fill="white"/>
<path d="M141.053 321.528C140.409 321.528 139.859 321.382 139.403 321.09C138.947 320.798 138.597 320.394 138.353 319.878C138.109 319.362 137.987 318.77 137.987 318.102C137.987 317.422 138.111 316.826 138.359 316.314C138.607 315.802 138.959 315.404 139.415 315.12C139.875 314.832 140.421 314.688 141.053 314.688C141.701 314.688 142.253 314.834 142.709 315.126C143.169 315.414 143.519 315.816 143.759 316.332C144.003 316.844 144.125 317.434 144.125 318.102C144.125 318.782 144.003 319.38 143.759 319.896C143.515 320.408 143.163 320.808 142.703 321.096C142.243 321.384 141.693 321.528 141.053 321.528ZM141.053 320.682C141.773 320.682 142.309 320.444 142.661 319.968C143.013 319.488 143.189 318.866 143.189 318.102C143.189 317.318 143.011 316.694 142.655 316.23C142.303 315.766 141.769 315.534 141.053 315.534C140.569 315.534 140.169 315.644 139.853 315.864C139.541 316.08 139.307 316.382 139.151 316.77C138.999 317.154 138.923 317.598 138.923 318.102C138.923 318.882 139.103 319.508 139.463 319.98C139.823 320.448 140.353 320.682 141.053 320.682Z" fill="white"/>
<path d="M137.305 321.348C136.941 321.424 136.581 321.454 136.225 321.438C135.873 321.422 135.557 321.346 135.277 321.21C135.001 321.074 134.791 320.862 134.647 320.574C134.531 320.334 134.467 320.092 134.455 319.848C134.447 319.6 134.443 319.318 134.443 319.002V313.068H135.319V318.966C135.319 319.238 135.321 319.466 135.325 319.65C135.333 319.83 135.375 319.99 135.451 320.13C135.595 320.398 135.823 320.558 136.135 320.61C136.451 320.662 136.841 320.65 137.305 320.574V321.348ZM133.057 315.624V314.868H137.305V315.624H133.057Z" fill="white"/>
<path d="M129.382 321.528C128.778 321.528 128.234 321.428 127.75 321.228C127.27 321.024 126.872 320.736 126.556 320.364C126.244 319.992 126.04 319.55 125.944 319.038L126.844 318.888C126.988 319.448 127.292 319.888 127.756 320.208C128.22 320.524 128.774 320.682 129.418 320.682C129.842 320.682 130.222 320.616 130.558 320.484C130.894 320.348 131.158 320.156 131.35 319.908C131.542 319.66 131.638 319.366 131.638 319.026C131.638 318.802 131.598 318.612 131.518 318.456C131.438 318.296 131.332 318.164 131.2 318.06C131.068 317.956 130.924 317.87 130.768 317.802C130.612 317.73 130.46 317.672 130.312 317.628L128.122 316.974C127.858 316.898 127.614 316.802 127.39 316.686C127.166 316.566 126.97 316.424 126.802 316.26C126.638 316.092 126.51 315.896 126.418 315.672C126.326 315.448 126.28 315.192 126.28 314.904C126.28 314.416 126.408 313.994 126.664 313.638C126.92 313.282 127.27 313.008 127.714 312.816C128.158 312.624 128.664 312.53 129.232 312.534C129.808 312.534 130.322 312.636 130.774 312.84C131.23 313.044 131.606 313.336 131.902 313.716C132.198 314.092 132.394 314.538 132.49 315.054L131.566 315.222C131.506 314.846 131.368 314.52 131.152 314.244C130.936 313.968 130.66 313.756 130.324 313.608C129.992 313.456 129.626 313.378 129.226 313.374C128.838 313.374 128.492 313.44 128.188 313.572C127.888 313.7 127.65 313.876 127.474 314.1C127.298 314.324 127.21 314.58 127.21 314.868C127.21 315.16 127.29 315.394 127.45 315.57C127.614 315.746 127.814 315.884 128.05 315.984C128.29 316.084 128.522 316.166 128.746 316.23L130.438 316.728C130.614 316.776 130.82 316.846 131.056 316.938C131.296 317.026 131.528 317.154 131.752 317.322C131.98 317.486 132.168 317.702 132.316 317.97C132.464 318.238 132.538 318.578 132.538 318.99C132.538 319.39 132.458 319.748 132.298 320.064C132.142 320.38 131.92 320.646 131.632 320.862C131.348 321.078 131.014 321.242 130.63 321.354C130.25 321.47 129.834 321.528 129.382 321.528Z" fill="white"/>
<path d="M119.166 321.528C118.678 321.528 118.268 321.44 117.936 321.264C117.608 321.088 117.362 320.854 117.198 320.562C117.034 320.27 116.952 319.952 116.952 319.608C116.952 319.256 117.022 318.956 117.162 318.708C117.306 318.456 117.5 318.25 117.744 318.09C117.992 317.93 118.278 317.808 118.602 317.724C118.93 317.644 119.292 317.574 119.688 317.514C120.088 317.45 120.478 317.396 120.858 317.352C121.242 317.304 121.578 317.258 121.866 317.214L121.554 317.406C121.566 316.766 121.442 316.292 121.182 315.984C120.922 315.676 120.47 315.522 119.826 315.522C119.382 315.522 119.006 315.622 118.698 315.822C118.394 316.022 118.18 316.338 118.056 316.77L117.198 316.518C117.346 315.938 117.644 315.488 118.092 315.168C118.54 314.848 119.122 314.688 119.838 314.688C120.43 314.688 120.932 314.8 121.344 315.024C121.76 315.244 122.054 315.564 122.226 315.984C122.306 316.172 122.358 316.382 122.382 316.614C122.406 316.846 122.418 317.082 122.418 317.322V321.348H121.632V319.722L121.86 319.818C121.64 320.374 121.298 320.798 120.834 321.09C120.37 321.382 119.814 321.528 119.166 321.528ZM119.268 320.766C119.68 320.766 120.04 320.692 120.348 320.544C120.656 320.396 120.904 320.194 121.092 319.938C121.28 319.678 121.402 319.386 121.458 319.062C121.506 318.854 121.532 318.626 121.536 318.378C121.54 318.126 121.542 317.938 121.542 317.814L121.878 317.988C121.578 318.028 121.252 318.068 120.9 318.108C120.552 318.148 120.208 318.194 119.868 318.246C119.532 318.298 119.228 318.36 118.956 318.432C118.772 318.484 118.594 318.558 118.422 318.654C118.25 318.746 118.108 318.87 117.996 319.026C117.888 319.182 117.834 319.376 117.834 319.608C117.834 319.796 117.88 319.978 117.972 320.154C118.068 320.33 118.22 320.476 118.428 320.592C118.64 320.708 118.92 320.766 119.268 320.766Z" fill="white"/>
<path d="M116.035 321.348C115.671 321.424 115.311 321.454 114.955 321.438C114.603 321.422 114.287 321.346 114.007 321.21C113.731 321.074 113.521 320.862 113.377 320.574C113.261 320.334 113.197 320.092 113.185 319.848C113.177 319.6 113.173 319.318 113.173 319.002V313.068H114.049V318.966C114.049 319.238 114.051 319.466 114.055 319.65C114.063 319.83 114.105 319.99 114.181 320.13C114.325 320.398 114.553 320.558 114.865 320.61C115.181 320.662 115.571 320.65 116.035 320.574V321.348ZM111.787 315.624V314.868H116.035V315.624H111.787Z" fill="white"/>
<path d="M107.693 321.528C107.205 321.528 106.795 321.44 106.463 321.264C106.135 321.088 105.889 320.854 105.725 320.562C105.561 320.27 105.479 319.952 105.479 319.608C105.479 319.256 105.549 318.956 105.689 318.708C105.833 318.456 106.027 318.25 106.271 318.09C106.519 317.93 106.805 317.808 107.129 317.724C107.457 317.644 107.819 317.574 108.215 317.514C108.615 317.45 109.005 317.396 109.385 317.352C109.769 317.304 110.105 317.258 110.393 317.214L110.081 317.406C110.093 316.766 109.969 316.292 109.709 315.984C109.449 315.676 108.997 315.522 108.353 315.522C107.909 315.522 107.533 315.622 107.225 315.822C106.921 316.022 106.707 316.338 106.583 316.77L105.725 316.518C105.873 315.938 106.171 315.488 106.619 315.168C107.067 314.848 107.649 314.688 108.365 314.688C108.957 314.688 109.459 314.8 109.871 315.024C110.287 315.244 110.581 315.564 110.753 315.984C110.833 316.172 110.885 316.382 110.909 316.614C110.933 316.846 110.945 317.082 110.945 317.322V321.348H110.159V319.722L110.387 319.818C110.167 320.374 109.825 320.798 109.361 321.09C108.897 321.382 108.341 321.528 107.693 321.528ZM107.795 320.766C108.207 320.766 108.567 320.692 108.875 320.544C109.183 320.396 109.431 320.194 109.619 319.938C109.807 319.678 109.929 319.386 109.985 319.062C110.033 318.854 110.059 318.626 110.063 318.378C110.067 318.126 110.069 317.938 110.069 317.814L110.405 317.988C110.105 318.028 109.779 318.068 109.427 318.108C109.079 318.148 108.735 318.194 108.395 318.246C108.059 318.298 107.755 318.36 107.483 318.432C107.299 318.484 107.121 318.558 106.949 318.654C106.777 318.746 106.635 318.87 106.523 319.026C106.415 319.182 106.361 319.376 106.361 319.608C106.361 319.796 106.407 319.978 106.499 320.154C106.595 320.33 106.747 320.476 106.955 320.592C107.167 320.708 107.447 320.766 107.795 320.766Z" fill="white"/>
<path d="M97.7766 321.348V312.708H100.399C100.491 312.708 100.647 312.71 100.867 312.714C101.091 312.718 101.305 312.734 101.509 312.762C102.165 312.854 102.713 313.098 103.153 313.494C103.593 313.89 103.923 314.394 104.143 315.006C104.363 315.618 104.473 316.292 104.473 317.028C104.473 317.764 104.363 318.438 104.143 319.05C103.923 319.662 103.593 320.166 103.153 320.562C102.713 320.958 102.165 321.202 101.509 321.294C101.309 321.318 101.095 321.334 100.867 321.342C100.639 321.346 100.483 321.348 100.399 321.348H97.7766ZM98.6885 320.502H100.399C100.563 320.502 100.739 320.498 100.927 320.49C101.119 320.478 101.283 320.458 101.419 320.43C101.923 320.342 102.329 320.138 102.637 319.818C102.949 319.498 103.177 319.098 103.321 318.618C103.465 318.134 103.537 317.604 103.537 317.028C103.537 316.448 103.465 315.916 103.321 315.432C103.177 314.948 102.949 314.548 102.637 314.232C102.325 313.916 101.919 313.714 101.419 313.626C101.283 313.598 101.117 313.58 100.921 313.572C100.729 313.56 100.555 313.554 100.399 313.554H98.6885V320.502Z" fill="white"/>
<path d="M90.7749 321.528C90.1709 321.528 89.6549 321.378 89.2269 321.078C88.7989 320.774 88.4709 320.364 88.2429 319.848C88.0149 319.332 87.9009 318.75 87.9009 318.102C87.9009 317.458 88.0129 316.878 88.2369 316.362C88.4649 315.846 88.7909 315.438 89.2149 315.138C89.6389 314.838 90.1469 314.688 90.7389 314.688C91.3469 314.688 91.8589 314.836 92.2749 315.132C92.6909 315.428 93.0049 315.834 93.2169 316.35C93.4329 316.862 93.5409 317.446 93.5409 318.102C93.5409 318.746 93.4349 319.328 93.2229 319.848C93.0109 320.364 92.6989 320.774 92.2869 321.078C91.8749 321.378 91.3709 321.528 90.7749 321.528ZM90.8649 320.706C91.3249 320.706 91.7049 320.594 92.0049 320.37C92.3049 320.146 92.5289 319.838 92.6769 319.446C92.8249 319.05 92.8989 318.602 92.8989 318.102C92.8989 317.594 92.8249 317.146 92.6769 316.758C92.5289 316.366 92.3049 316.06 92.0049 315.84C91.7089 315.62 91.3349 315.51 90.8829 315.51C90.4189 315.51 90.0349 315.624 89.7309 315.852C89.4269 316.08 89.2009 316.39 89.0529 316.782C88.9089 317.174 88.8369 317.614 88.8369 318.102C88.8369 318.594 88.9109 319.038 89.0589 319.434C89.2109 319.826 89.4369 320.136 89.7369 320.364C90.0369 320.592 90.4129 320.706 90.8649 320.706ZM92.8989 321.348V316.47H92.8029V312.708H93.6909V321.348H92.8989Z" fill="white"/>
<path d="M83.9834 321.528C83.3514 321.528 82.8034 321.388 82.3394 321.108C81.8794 320.828 81.5214 320.434 81.2654 319.926C81.0094 319.418 80.8814 318.822 80.8814 318.138C80.8814 317.43 81.0074 316.818 81.2594 316.302C81.5114 315.786 81.8654 315.388 82.3214 315.108C82.7814 314.828 83.3234 314.688 83.9474 314.688C84.5874 314.688 85.1334 314.836 85.5854 315.132C86.0374 315.424 86.3794 315.844 86.6114 316.392C86.8434 316.94 86.9494 317.594 86.9294 318.354H86.0294V318.042C86.0134 317.202 85.8314 316.568 85.4834 316.14C85.1394 315.712 84.6354 315.498 83.9714 315.498C83.2754 315.498 82.7414 315.724 82.3694 316.176C82.0014 316.628 81.8174 317.272 81.8174 318.108C81.8174 318.924 82.0014 319.558 82.3694 320.01C82.7414 320.458 83.2674 320.682 83.9474 320.682C84.4114 320.682 84.8154 320.576 85.1594 320.364C85.5074 320.148 85.7814 319.838 85.9814 319.434L86.8034 319.752C86.5474 320.316 86.1694 320.754 85.6694 321.066C85.1734 321.374 84.6114 321.528 83.9834 321.528ZM81.5054 318.354V317.616H86.4554V318.354H81.5054Z" fill="white"/>
<path d="M74.7703 321.348V321.162L78.9523 315.69H75.0823V314.868H80.4043V315.072L76.2283 320.526H80.1763V321.348H74.7703Z" fill="white"/>
<path d="M72.6895 313.638V312.648H73.5715V313.638H72.6895ZM72.6895 321.348V314.868H73.5715V321.348H72.6895Z" fill="white"/>
<path d="M70.1256 321.348L70.1316 317.094C70.1316 316.594 69.9916 316.202 69.7116 315.918C69.4356 315.63 69.0836 315.486 68.6556 315.486C68.4116 315.486 68.1736 315.542 67.9416 315.654C67.7096 315.766 67.5176 315.946 67.3656 316.194C67.2176 316.442 67.1436 316.766 67.1436 317.166L66.6216 317.016C66.6096 316.552 66.6996 316.146 66.8916 315.798C67.0876 315.45 67.3556 315.18 67.6956 314.988C68.0396 314.792 68.4276 314.694 68.8596 314.694C69.5116 314.694 70.0336 314.896 70.4256 315.3C70.8176 315.7 71.0136 316.242 71.0136 316.926L71.0076 321.348H70.1256ZM62.3916 321.348V314.868H63.1836V316.464H63.2796V321.348H62.3916ZM66.2676 321.348L66.2736 317.154C66.2736 316.638 66.1356 316.232 65.8596 315.936C65.5876 315.636 65.2276 315.486 64.7796 315.486C64.3316 315.486 63.9696 315.64 63.6936 315.948C63.4176 316.252 63.2796 316.658 63.2796 317.166L62.7516 316.878C62.7516 316.462 62.8496 316.09 63.0456 315.762C63.2416 315.43 63.5096 315.17 63.8496 314.982C64.1896 314.79 64.5756 314.694 65.0076 314.694C65.4196 314.694 65.7856 314.782 66.1056 314.958C66.4296 315.134 66.6836 315.39 66.8676 315.726C67.0516 316.062 67.1436 316.47 67.1436 316.95L67.1376 321.348H66.2676Z" fill="white"/>
<path d="M59.7169 313.638V312.648H60.5989V313.638H59.7169ZM59.7169 321.348V314.868H60.5989V321.348H59.7169Z" fill="white"/>
<path d="M58.3202 321.348C57.9562 321.424 57.5962 321.454 57.2402 321.438C56.8882 321.422 56.5722 321.346 56.2922 321.21C56.0162 321.074 55.8062 320.862 55.6622 320.574C55.5462 320.334 55.4822 320.092 55.4702 319.848C55.4622 319.6 55.4582 319.318 55.4582 319.002V313.068H56.3342V318.966C56.3342 319.238 56.3362 319.466 56.3402 319.65C56.3482 319.83 56.3902 319.99 56.4662 320.13C56.6102 320.398 56.8382 320.558 57.1502 320.61C57.4662 320.662 57.8562 320.65 58.3202 320.574V321.348ZM54.0722 315.624V314.868H58.3202V315.624H54.0722Z" fill="white"/>
<path d="M50.6006 321.528C50.0046 321.528 49.5006 321.378 49.0886 321.078C48.6766 320.774 48.3646 320.364 48.1526 319.848C47.9406 319.328 47.8346 318.746 47.8346 318.102C47.8346 317.446 47.9406 316.862 48.1526 316.35C48.3686 315.834 48.6846 315.428 49.1006 315.132C49.5166 314.836 50.0286 314.688 50.6366 314.688C51.2286 314.688 51.7366 314.838 52.1606 315.138C52.5846 315.438 52.9086 315.846 53.1326 316.362C53.3606 316.878 53.4746 317.458 53.4746 318.102C53.4746 318.75 53.3606 319.332 53.1326 319.848C52.9046 320.364 52.5766 320.774 52.1486 321.078C51.7206 321.378 51.2046 321.528 50.6006 321.528ZM47.6846 324.228V314.868H48.4766V319.746H48.5726V324.228H47.6846ZM50.5106 320.706C50.9626 320.706 51.3386 320.592 51.6386 320.364C51.9386 320.136 52.1626 319.826 52.3106 319.434C52.4626 319.038 52.5386 318.594 52.5386 318.102C52.5386 317.614 52.4646 317.174 52.3166 316.782C52.1686 316.39 51.9426 316.08 51.6386 315.852C51.3386 315.624 50.9566 315.51 50.4926 315.51C50.0406 315.51 49.6646 315.62 49.3646 315.84C49.0686 316.06 48.8466 316.366 48.6986 316.758C48.5506 317.146 48.4766 317.594 48.4766 318.102C48.4766 318.602 48.5506 319.05 48.6986 319.446C48.8466 319.838 49.0706 320.146 49.3706 320.37C49.6706 320.594 50.0506 320.706 50.5106 320.706Z" fill="white"/>
<path d="M42.505 321.528C41.645 321.528 40.919 321.338 40.327 320.958C39.735 320.574 39.287 320.044 38.983 319.368C38.679 318.692 38.527 317.912 38.527 317.028C38.527 316.144 38.679 315.364 38.983 314.688C39.287 314.012 39.735 313.484 40.327 313.104C40.919 312.72 41.645 312.528 42.505 312.528C43.369 312.528 44.095 312.72 44.683 313.104C45.275 313.484 45.723 314.012 46.027 314.688C46.335 315.364 46.489 316.144 46.489 317.028C46.489 317.912 46.335 318.692 46.027 319.368C45.723 320.044 45.275 320.574 44.683 320.958C44.095 321.338 43.369 321.528 42.505 321.528ZM42.505 320.682C43.181 320.682 43.745 320.528 44.197 320.22C44.649 319.912 44.987 319.484 45.211 318.936C45.439 318.384 45.553 317.748 45.553 317.028C45.553 316.308 45.439 315.674 45.211 315.126C44.987 314.578 44.649 314.15 44.197 313.842C43.745 313.534 43.181 313.378 42.505 313.374C41.829 313.374 41.267 313.528 40.819 313.836C40.371 314.144 40.033 314.574 39.805 315.126C39.581 315.674 39.467 316.308 39.463 317.028C39.459 317.748 39.569 318.382 39.793 318.93C40.021 319.474 40.361 319.902 40.813 320.214C41.265 320.522 41.829 320.678 42.505 320.682Z" fill="white"/>
<path d="M130.458 244.543C129.053 242.987 127.171 241.941 125.109 241.569C124.865 237.829 123.323 234.289 120.751 231.563C118.284 229.084 115.101 227.44 111.652 226.864C108.244 226.227 104.724 226.55 101.488 227.796C98.647 228.833 96.272 230.859 94.801 233.502C93.623 233.067 92.377 232.844 91.122 232.844C85.931 232.844 81.463 236.649 80.636 241.773C76.555 242.915 73.713 246.662 73.713 250.899C73.713 256.098 77.991 260.376 83.19 260.376H89.152V272.054C89.152 275.229 96.278 276.89 103.316 276.89C110.354 276.89 117.483 275.229 117.483 272.054V260.375H123.442C123.446 260.375 123.45 260.375 123.453 260.375C128.646 260.375 132.919 256.102 132.919 250.91C132.919 248.556 132.041 246.284 130.458 244.543ZM115.864 255.059C115.864 255.591 114.832 256.436 112.527 257.131C109.525 257.94 106.425 258.324 103.316 258.274C100.208 258.324 97.108 257.939 94.107 257.131C91.803 256.436 90.772 255.591 90.772 255.059V249.233C91.692 249.792 92.686 250.218 93.725 250.5C96.852 251.336 100.08 251.736 103.316 251.689C108.303 251.689 113.358 250.849 115.864 249.222V255.059ZM90.772 257.432C93.274 259.055 98.316 259.893 103.316 259.893C108.316 259.893 113.361 259.055 115.864 257.432V263.561C115.864 263.957 115.161 264.838 112.527 265.633C109.525 266.441 106.424 266.825 103.316 266.774C100.208 266.824 97.108 266.438 94.107 265.629C91.475 264.835 90.772 263.954 90.772 263.561V257.432ZM115.861 246.865C115.849 247.263 115.125 248.147 112.486 248.937C109.497 249.737 106.411 250.118 103.316 250.069C100.235 250.116 97.161 249.737 94.183 248.944C91.567 248.169 90.808 247.294 90.772 246.888V246.848C90.772 246.452 91.474 245.57 94.107 244.776C97.109 243.968 100.208 243.584 103.316 243.635C106.425 243.585 109.525 243.97 112.527 244.78C115.135 245.566 115.849 246.438 115.863 246.839C115.862 246.848 115.861 246.857 115.861 246.865ZM112.527 274.125C109.525 274.935 106.425 275.32 103.316 275.27C100.208 275.32 97.108 274.935 94.107 274.125C91.474 273.331 90.772 272.45 90.772 272.053V265.929C93.274 267.555 98.316 268.393 103.316 268.393C108.316 268.393 113.361 267.555 115.864 265.929V272.054C115.864 272.45 115.161 273.33 112.527 274.125ZM123.442 258.756H117.483V246.851C117.483 243.676 110.356 242.016 103.316 242.016C96.276 242.016 89.152 243.676 89.152 246.851V258.756H83.189C78.878 258.756 75.331 255.209 75.331 250.899C75.331 247.209 77.931 243.992 81.538 243.217C81.88 243.142 82.137 242.855 82.173 242.506C82.657 237.956 86.541 234.463 91.118 234.463C92.409 234.463 93.685 234.741 94.859 235.278C94.965 235.327 95.08 235.352 95.197 235.352C95.517 235.352 95.808 235.162 95.938 234.869C98.118 229.92 104.604 227.223 111.362 228.456C118.585 229.775 123.141 234.958 123.538 242.322C123.56 242.717 123.869 243.042 124.262 243.083C128.244 243.5 131.303 246.895 131.303 250.898C131.303 255.209 127.756 258.756 123.445 258.756C123.444 258.756 123.443 258.756 123.442 258.756ZM103.316 254.078C103.76 254.078 104.126 254.444 104.126 254.888C104.126 255.332 103.76 255.698 103.316 255.698C102.633 255.698 101.969 255.683 101.342 255.654C100.912 255.634 100.569 255.276 100.569 254.845C100.569 254.401 100.935 254.036 101.379 254.036C101.391 254.036 101.404 254.036 101.416 254.037C102.019 254.065 102.658 254.078 103.316 254.078ZM99.725 254.742C99.679 255.15 99.331 255.461 98.921 255.462C98.891 255.462 98.86 255.46 98.83 255.456C96.931 255.298 95.067 254.854 93.3 254.14C93.025 254.003 92.85 253.721 92.85 253.414C92.85 252.97 93.216 252.604 93.66 252.604C93.767 252.604 93.874 252.626 93.973 252.667C95.584 253.309 97.282 253.707 99.011 253.848C99.418 253.894 99.73 254.242 99.73 254.652C99.73 254.682 99.728 254.712 99.725 254.742ZM100.57 263.292C100.593 262.85 100.974 262.503 101.416 262.522C102.067 262.552 102.706 262.567 103.316 262.567C103.752 262.579 104.104 262.941 104.104 263.377C104.104 263.813 103.752 264.175 103.316 264.186C102.681 264.186 102.017 264.171 101.342 264.14C100.912 264.12 100.569 263.762 100.569 263.332C100.569 263.318 100.569 263.305 100.57 263.292ZM92.901 261.548C93.086 261.145 93.571 260.965 93.975 261.151C95.586 261.794 97.283 262.193 99.012 262.335C99.419 262.382 99.729 262.73 99.729 263.14C99.729 263.583 99.365 263.948 98.921 263.95C98.89 263.95 98.86 263.948 98.829 263.944C96.93 263.784 95.065 263.338 93.298 262.623C93.011 262.492 92.826 262.203 92.826 261.887C92.826 261.77 92.852 261.655 92.901 261.548ZM104.125 271.858C104.125 272.302 103.76 272.668 103.316 272.668C102.634 272.668 101.97 272.653 101.342 272.624C100.912 272.604 100.569 272.245 100.569 271.815C100.569 271.371 100.935 271.005 101.379 271.005C101.391 271.005 101.404 271.006 101.416 271.006C102.019 271.034 102.66 271.048 103.316 271.048C103.76 271.048 104.125 271.414 104.125 271.858ZM99.725 271.712C99.679 272.119 99.331 272.431 98.921 272.431C98.891 272.431 98.862 272.431 98.83 272.427C96.93 272.269 95.065 271.824 93.298 271.109C93.012 270.977 92.827 270.689 92.827 270.373C92.827 269.929 93.192 269.563 93.637 269.563C93.753 269.563 93.869 269.589 93.975 269.637C95.584 270.28 97.28 270.678 99.007 270.817C99.416 270.861 99.73 271.21 99.73 271.622C99.73 271.652 99.728 271.682 99.725 271.712Z" fill="white"/>
<path d="M207.47 93.524C208.566 93.523 209.468 92.621 209.47 91.524V75.524C209.468 74.428 208.566 73.526 207.47 73.524H183.47C182.373 73.526 181.471 74.428 181.47 75.524V91.524C181.471 92.621 182.373 93.523 183.47 93.524H207.47ZM183.47 75.524H207.47L207.472 91.524H183.47V75.524ZM204.47 77.524H186.469C185.921 77.524 185.47 77.975 185.47 78.524V88.525C185.47 89.073 185.921 89.524 186.469 89.524H196.47V87.524H187.47V79.524H203.47V86.524H205.47V78.524C205.47 77.975 205.018 77.524 204.47 77.524ZM205.47 87.524H203.47V89.524H205.47V87.524ZM202.47 87.524H200.47V89.524H202.47V87.524ZM199.47 87.524H197.47V89.524H199.47V87.524ZM215.447 44.884L213.912 46.165C221.706 55.525 221.202 69.409 212.75 78.179L214.189 79.567C223.347 70.066 223.893 55.023 215.447 44.884ZM177.873 77.844C169.707 69.039 169.343 55.393 177.027 46.165L175.492 44.884C167.166 54.88 167.559 69.665 176.406 79.205L177.873 77.844ZM180.743 70.023C180.051 68.826 179.508 67.549 179.126 66.221L177.204 66.771C177.63 68.258 178.238 69.687 179.013 71.025L180.743 70.023ZM210.196 70.023L211.927 71.025C213.414 68.446 214.275 65.552 214.44 62.579L212.444 62.47C212.305 65.13 211.534 67.72 210.196 70.023ZM196.507 67.524C196.507 66.972 196.059 66.524 195.507 66.524C194.955 66.524 194.507 66.972 194.507 67.524C194.507 68.076 194.955 68.524 195.507 68.524C196.059 68.524 196.507 68.076 196.507 67.524ZM198.759 63.402C196.743 62.245 194.255 62.255 192.248 63.427L193.277 65.141C194.655 64.34 196.362 64.334 197.745 65.127L198.759 63.402ZM180.47 61.972C180.47 60.327 179.115 58.972 177.47 58.972C175.824 58.972 174.47 60.327 174.47 61.972C174.47 63.618 175.824 64.972 177.47 64.972C179.115 64.971 180.468 63.618 180.47 61.972ZM177.47 62.972C176.921 62.972 176.47 62.521 176.47 61.972C176.47 61.424 176.921 60.972 177.47 60.972C178.018 60.972 178.47 61.424 178.47 61.972C178.469 62.521 178.018 62.972 177.47 62.972ZM200.933 60.167C199.345 59.09 197.468 58.518 195.55 58.524H195.496C193.562 58.519 191.671 59.106 190.08 60.205L191.224 61.844C192.484 60.978 193.978 60.518 195.507 60.524C197.042 60.494 198.548 60.948 199.81 61.821L200.933 60.167ZM216.718 56.93C216.718 54.735 214.912 52.93 212.718 52.93C210.523 52.93 208.718 54.735 208.718 56.93C208.718 59.124 210.523 60.93 212.718 60.93C214.911 60.927 216.715 59.123 216.718 56.93ZM212.718 58.93C211.62 58.93 210.718 58.027 210.718 56.93C210.718 55.832 211.62 54.93 212.718 54.93C213.815 54.93 214.718 55.832 214.718 56.93C214.716 58.026 213.814 58.928 212.718 58.93ZM203.128 56.747C200.87 55.284 198.233 54.512 195.543 54.524H195.488C192.791 54.522 190.151 55.301 187.887 56.766L188.978 58.442C192.948 55.896 198.058 55.889 202.036 58.423L203.128 56.747ZM209.637 52.125L211.303 51.017C207.784 45.718 201.831 42.524 195.47 42.524C186.588 42.524 178.833 48.75 176.914 57.422L178.867 57.851C180.585 50.094 187.523 44.524 195.469 44.524C201.161 44.524 206.489 47.382 209.637 52.125ZM184.47 41.524C184.47 39.33 182.664 37.524 180.47 37.524C178.275 37.524 176.47 39.33 176.47 41.524C176.47 43.719 178.275 45.524 180.47 45.524C182.663 45.522 184.467 43.718 184.47 41.524ZM211.192 39.195C209.546 39.195 208.192 40.549 208.192 42.195C208.192 43.841 209.546 45.195 211.192 45.195C212.838 45.195 214.192 43.841 214.192 42.195C214.19 40.55 212.837 39.197 211.192 39.195ZM180.47 43.524C179.372 43.524 178.47 42.621 178.47 41.524C178.47 40.427 179.372 39.524 180.47 39.524C181.567 39.524 182.47 40.427 182.47 41.524C182.468 42.621 181.566 43.523 180.47 43.524ZM211.192 43.195C210.644 43.195 210.192 42.744 210.192 42.195C210.192 41.647 210.644 41.195 211.192 41.195C211.741 41.195 212.192 41.647 212.192 42.195C212.192 42.744 211.741 43.195 211.192 43.195ZM206.989 40.464L207.95 38.71C200.895 34.858 192.44 34.481 185.069 37.688L185.87 39.52C192.673 36.562 200.477 36.91 206.989 40.464Z" fill="white"/>
<path d="M298.277 259.32C296.539 258.49 294.251 258.033 291.833 258.033C289.415 258.033 287.126 258.49 285.388 259.32C283.458 260.239 282.399 261.531 282.399 262.958V275.069C282.399 276.496 283.458 277.788 285.383 278.706C287.121 279.536 289.409 279.993 291.833 279.993C294.256 279.993 296.544 279.536 298.282 278.706C300.207 277.788 301.266 276.496 301.266 275.069V262.958C301.266 261.536 300.207 260.244 298.277 259.32ZM299.663 269.044C299.663 270.617 296.446 272.365 291.833 272.365C287.22 272.365 284.003 270.617 284.003 269.044V265.765C284.397 266.066 284.859 266.346 285.388 266.6C287.126 267.431 289.415 267.887 291.833 267.887C294.251 267.887 296.539 267.431 298.277 266.6C298.806 266.346 299.268 266.066 299.663 265.765V269.044ZM291.833 259.642C296.446 259.642 299.663 261.391 299.663 262.963C299.663 264.535 296.446 266.284 291.833 266.284C287.22 266.284 284.003 264.535 284.003 262.963C284.003 261.391 287.22 259.642 291.833 259.642ZM291.833 278.39C287.22 278.39 284.003 276.641 284.003 275.069V271.852C284.397 272.152 284.854 272.433 285.383 272.682C287.121 273.512 289.409 273.969 291.833 273.969C294.256 273.969 296.544 273.512 298.282 272.682C298.806 272.433 299.268 272.152 299.663 271.852V275.074C299.663 276.641 296.446 278.39 291.833 278.39ZM313.06 228.628H305.64C305.204 228.628 304.805 228.789 304.488 229.105L302.05 231.549C301.738 231.861 301.572 232.26 301.572 232.701V245.549C301.572 246.447 302.304 247.178 303.201 247.178H313.06C313.958 247.178 314.69 246.447 314.69 245.549V230.257C314.69 229.36 313.958 228.628 313.06 228.628ZM305.033 230.833V232.089H303.777L305.033 230.833ZM313.086 245.549C313.086 245.559 313.076 245.575 313.06 245.575H303.201C303.186 245.575 303.176 245.565 303.176 245.549V233.698H305.832C306.273 233.698 306.637 233.34 306.637 232.893V230.237H313.06C313.071 230.237 313.086 230.247 313.086 230.263V245.549ZM311.94 235.778C311.94 236.219 311.582 236.583 311.135 236.583H305.127C304.686 236.583 304.322 236.225 304.322 235.778C304.322 235.337 304.68 234.974 305.127 234.974H311.135C311.582 234.974 311.94 235.337 311.94 235.778ZM311.94 241.066C311.94 241.507 311.582 241.87 311.135 241.87H305.127C304.686 241.87 304.322 241.512 304.322 241.066C304.322 240.625 304.68 240.262 305.127 240.262H311.135C311.582 240.262 311.94 240.62 311.94 241.066ZM286.903 247.178H296.762C297.66 247.178 298.391 246.447 298.391 245.549V230.257C298.391 229.36 297.66 228.628 296.762 228.628H289.342C288.906 228.628 288.507 228.789 288.19 229.105L285.751 231.549C285.44 231.861 285.274 232.26 285.274 232.701V245.549C285.274 246.447 286.005 247.178 286.903 247.178ZM296.788 230.257V245.544C296.788 245.554 296.778 245.57 296.762 245.57H286.903C286.888 245.57 286.877 245.554 286.877 245.544V233.698H289.539C289.98 233.698 290.343 233.34 290.343 232.893V230.237H296.762C296.772 230.237 296.788 230.247 296.788 230.257ZM288.735 230.833V232.089H287.479L288.735 230.833ZM294.837 234.974C295.278 234.974 295.641 235.332 295.641 235.778C295.641 236.219 295.283 236.583 294.837 236.583H288.828C288.387 236.583 288.024 236.225 288.024 235.778C288.024 235.337 288.382 234.974 288.828 234.974H294.837ZM295.641 241.066C295.641 241.507 295.283 241.87 294.837 241.87H288.828C288.387 241.87 288.024 241.512 288.024 241.066C288.024 240.625 288.382 240.262 288.828 240.262H294.837C295.278 240.262 295.641 240.62 295.641 241.066ZM282.098 245.549V230.257C282.098 229.36 281.367 228.628 280.464 228.628H273.044C272.608 228.628 272.208 228.789 271.892 229.105L269.448 231.549C269.136 231.866 268.976 232.265 268.976 232.701V245.549C268.976 246.447 269.707 247.178 270.605 247.178H280.464C281.361 247.178 282.098 246.447 282.098 245.549ZM272.437 230.833V232.089H271.181L272.437 230.833ZM270.579 245.549V233.698H273.241C273.682 233.698 274.045 233.34 274.045 232.893V230.237H280.464C280.479 230.237 280.49 230.252 280.49 230.263V245.549C280.49 245.559 280.479 245.575 280.464 245.575H270.605C270.594 245.57 270.579 245.559 270.579 245.549ZM279.343 235.778C279.343 236.219 278.985 236.583 278.539 236.583H272.53C272.089 236.583 271.726 236.225 271.726 235.778C271.726 235.337 272.084 234.974 272.53 234.974H278.539C278.98 234.974 279.343 235.337 279.343 235.778ZM279.343 241.066C279.343 241.507 278.985 241.87 278.539 241.87H272.53C272.089 241.87 271.726 241.512 271.726 241.066C271.726 240.625 272.084 240.262 272.53 240.262H278.539C278.98 240.262 279.343 240.62 279.343 241.066ZM308.972 249.726C308.447 252.461 306.839 254.624 304.063 256.321L304.872 256.591C305.293 256.731 305.521 257.188 305.381 257.608C305.267 257.945 304.955 258.158 304.618 258.158C304.535 258.158 304.447 258.142 304.364 258.117L301.795 257.26C301.593 257.193 301.427 257.048 301.328 256.856C301.235 256.664 301.219 256.446 301.287 256.243L302.143 253.675C302.283 253.255 302.74 253.026 303.16 253.166C303.58 253.306 303.809 253.763 303.668 254.183L303.461 254.811C305.692 253.384 306.984 251.62 307.399 249.43C307.482 248.994 307.903 248.709 308.338 248.792C308.764 248.87 309.055 249.29 308.972 249.726ZM282.342 256.856C282.249 257.048 282.077 257.193 281.875 257.26L279.307 258.117C279.224 258.142 279.135 258.158 279.052 258.158C278.715 258.158 278.404 257.945 278.29 257.608C278.149 257.188 278.378 256.731 278.798 256.591L279.602 256.321C276.826 254.624 275.213 252.461 274.694 249.726C274.611 249.29 274.896 248.87 275.332 248.787C275.768 248.704 276.188 248.989 276.271 249.425C276.686 251.61 277.978 253.379 280.209 254.806L280.002 254.178C279.862 253.758 280.09 253.301 280.51 253.161C280.931 253.021 281.387 253.249 281.527 253.67L282.384 256.238C282.451 256.446 282.436 256.664 282.342 256.856ZM292.637 249.576V253.618L293.177 253.078C293.488 252.767 293.996 252.767 294.313 253.078C294.624 253.389 294.624 253.898 294.313 254.214L292.398 256.129C292.243 256.285 292.035 256.363 291.833 256.363C291.625 256.363 291.423 256.285 291.267 256.129L289.352 254.214C289.041 253.903 289.036 253.395 289.352 253.078C289.664 252.767 290.172 252.762 290.489 253.078L291.034 253.623V249.581C291.034 249.14 291.392 248.776 291.838 248.776C292.279 248.771 292.637 249.129 292.637 249.576Z" fill="white"/>
</svg>
