<?xml version="1.0" encoding="UTF-8" standalone="no"?><!DOCTYPE svg PUBLIC "-//W3C//DTD SVG 1.1//EN" "http://www.w3.org/Graphics/SVG/1.1/DTD/svg11.dtd"><svg width="100%" height="100%" viewBox="0 0 394 379" version="1.1" xmlns="http://www.w3.org/2000/svg" xmlns:xlink="http://www.w3.org/1999/xlink" xml:space="preserve" xmlns:serif="http://www.serif.com/" style="fill-rule:evenodd;clip-rule:evenodd;stroke-linejoin:round;stroke-miterlimit:2;"><rect id="Artboard1" x="0" y="0" width="393.93" height="378.864" style="fill:none;"/><circle cx="117.821" cy="261.818" r="110.956" style="fill:#a017ee;fill-opacity:0.85;"/><circle cx="273.998" cy="261.818" r="110.956" style="fill:#02ac96;fill-opacity:0.85;"/><circle cx="195.468" cy="117.818" r="110.956" style="fill:#173fee;fill-opacity:0.8;"/><text x="165.292px" y="122.061px" style="font-family:'Manrope-Regular', 'Manrope';font-size:15px;fill:#fff;">Connect</text><text x="111.285px" y="140.348px" style="font-family:'Manrope-Regular', 'Manrope';font-size:12px;fill:#fff;">Supports Div<tspan x="181.665px 188.679px 192.765px " y="140.348px 140.348px 140.348px ">ers</tspan>e Io<tspan x="217.659px 224.457px " y="140.348px 140.348px ">T </tspan>Pr<tspan x="238.311px 245.409px 249.975px 257.073px 263.535px " y="140.348px 140.348px 140.348px 140.348px 140.348px ">otoco</tspan>ls</text><text x="267.038px" y="304.061px" style="font-family:'Manrope-Regular', 'Manrope';font-size:15px;fill:#fff;">Collect</text><text x="231.167px" y="320.348px" style="font-family:'Manrope-Regular', 'Manrope';font-size:12px;fill:#fff;">Handles Massiv<tspan x="316.769px " y="320.348px ">e</tspan> Data</text><text x="84.879px" y="304.061px" style="font-family:'Manrope-Regular', 'Manrope';font-size:15px;fill:#fff;">St<tspan x="99.834px 108.706px 113.964px " y="304.061px 304.061px 304.061px ">ore</tspan></text><text x="38.167px" y="320.348px" style="font-family:'Manrope-Regular', 'Manrope';font-size:12px;fill:#fff;">Optimiz<tspan x="80.413px " y="320.348px ">e</tspan>d Data St<tspan x="137.497px 144.595px 148.681px " y="320.348px 320.348px 320.348px ">ora</tspan>ge</text><path d="M130.458,244.543c-1.405,-1.556 -3.287,-2.602 -5.349,-2.974c-0.244,-3.74 -1.786,-7.28 -4.358,-10.006c-2.467,-2.479 -5.65,-4.123 -9.099,-4.699c-3.408,-0.637 -6.928,-0.314 -10.164,0.932c-2.841,1.037 -5.216,3.063 -6.687,5.706c-1.178,-0.435 -2.424,-0.658 -3.679,-0.658c-5.191,0 -9.659,3.805 -10.486,8.929c-4.081,1.142 -6.923,4.889 -6.923,9.126c0,5.199 4.278,9.477 9.477,9.477l5.962,-0l0,11.678c0,3.175 7.126,4.836 14.164,4.836c7.038,-0 14.167,-1.661 14.167,-4.836l0,-11.679l5.959,0c0.004,0 0.008,0 0.011,0c5.193,0 9.466,-4.273 9.466,-9.465c0,-2.354 -0.878,-4.626 -2.461,-6.367Zm-14.594,10.516c-0,0.532 -1.032,1.377 -3.337,2.072c-3.002,0.809 -6.102,1.193 -9.211,1.143c-3.108,0.05 -6.208,-0.335 -9.209,-1.143c-2.304,-0.695 -3.335,-1.54 -3.335,-2.072l-0,-5.826c0.92,0.559 1.914,0.985 2.953,1.267c3.127,0.836 6.355,1.236 9.591,1.189c4.987,-0 10.042,-0.84 12.548,-2.467l-0,5.837Zm-25.092,2.373c2.502,1.623 7.544,2.461 12.544,2.461c5,0 10.045,-0.838 12.548,-2.461l-0,6.129c-0,0.396 -0.703,1.277 -3.337,2.072c-3.002,0.808 -6.103,1.192 -9.211,1.141c-3.108,0.05 -6.208,-0.336 -9.209,-1.145c-2.632,-0.794 -3.335,-1.675 -3.335,-2.068l-0,-6.129Zm25.089,-10.567c-0.012,0.398 -0.736,1.282 -3.375,2.072c-2.989,0.8 -6.075,1.181 -9.17,1.132c-3.081,0.047 -6.155,-0.332 -9.133,-1.125c-2.616,-0.775 -3.375,-1.65 -3.411,-2.056l-0,-0.04c-0,-0.396 0.702,-1.278 3.335,-2.072c3.002,-0.808 6.101,-1.192 9.209,-1.141c3.109,-0.05 6.209,0.335 9.211,1.145c2.608,0.786 3.322,1.658 3.336,2.059c-0.001,0.009 -0.002,0.018 -0.002,0.026Zm-3.334,27.26c-3.002,0.81 -6.102,1.195 -9.211,1.145c-3.108,0.05 -6.208,-0.335 -9.209,-1.145c-2.633,-0.794 -3.335,-1.675 -3.335,-2.072l-0,-6.124c2.502,1.626 7.544,2.464 12.544,2.464c5,-0 10.045,-0.838 12.548,-2.464l-0,6.125c-0,0.396 -0.703,1.276 -3.337,2.071Zm10.915,-15.369l-5.959,0l0,-11.905c0,-3.175 -7.127,-4.835 -14.167,-4.835c-7.04,-0 -14.164,1.66 -14.164,4.835l0,11.905l-5.963,0c-4.311,0 -7.858,-3.547 -7.858,-7.857c0,-3.69 2.6,-6.907 6.207,-7.682c0.342,-0.075 0.599,-0.362 0.635,-0.711c0.484,-4.55 4.368,-8.043 8.945,-8.043c1.291,0 2.567,0.278 3.741,0.815c0.106,0.049 0.221,0.074 0.338,0.074c0.32,-0 0.611,-0.19 0.741,-0.483c2.18,-4.949 8.666,-7.646 15.424,-6.413c7.223,1.319 11.779,6.502 12.176,13.866c0.022,0.395 0.331,0.72 0.724,0.761c3.982,0.417 7.041,3.812 7.041,7.815c-0,4.311 -3.547,7.858 -7.858,7.858c-0.001,0 -0.002,0 -0.003,0Zm-20.126,-4.678c0.444,0 0.81,0.366 0.81,0.81c0,0.444 -0.366,0.81 -0.81,0.81c-0.683,0 -1.347,-0.015 -1.974,-0.044c-0.43,-0.02 -0.773,-0.378 -0.773,-0.809c0,-0.444 0.366,-0.809 0.81,-0.809c0.012,-0 0.025,0 0.037,0.001c0.603,0.028 1.242,0.041 1.9,0.041Zm-3.591,0.664c-0.046,0.408 -0.394,0.719 -0.804,0.72c-0.03,-0 -0.061,-0.002 -0.091,-0.006c-1.899,-0.158 -3.763,-0.602 -5.53,-1.316c-0.275,-0.137 -0.45,-0.419 -0.45,-0.726c0,-0.444 0.366,-0.81 0.81,-0.81c0.107,0 0.214,0.022 0.313,0.063c1.611,0.642 3.309,1.04 5.038,1.181c0.407,0.046 0.719,0.394 0.719,0.804c-0,0.03 -0.002,0.06 -0.005,0.09Zm0.845,8.55c0.023,-0.442 0.404,-0.789 0.846,-0.77c0.651,0.03 1.29,0.045 1.9,0.045c0.436,0.012 0.788,0.374 0.788,0.81c0,0.436 -0.352,0.798 -0.788,0.809c-0.635,0 -1.299,-0.015 -1.974,-0.046c-0.43,-0.02 -0.773,-0.378 -0.773,-0.808c0,-0.014 0,-0.027 0.001,-0.04Zm-7.669,-1.744c0.185,-0.403 0.67,-0.583 1.074,-0.397c1.611,0.643 3.308,1.042 5.037,1.184c0.407,0.047 0.717,0.395 0.717,0.805c0,0.443 -0.364,0.808 -0.808,0.81c-0.031,-0 -0.061,-0.002 -0.092,-0.006c-1.899,-0.16 -3.764,-0.606 -5.531,-1.321c-0.287,-0.131 -0.472,-0.42 -0.472,-0.736c0,-0.117 0.026,-0.232 0.075,-0.339Zm11.224,10.31c0,-0 0,0 0,0c0,0.444 -0.365,0.81 -0.809,0.81c-0.682,-0 -1.346,-0.015 -1.974,-0.044c-0.43,-0.02 -0.773,-0.379 -0.773,-0.809c0,-0.444 0.366,-0.81 0.81,-0.81c0.012,0 0.025,0.001 0.037,0.001c0.603,0.028 1.244,0.042 1.9,0.042c0.444,0 0.809,0.366 0.809,0.81Zm-4.4,-0.146c-0.046,0.407 -0.394,0.719 -0.804,0.719c-0.03,0 -0.059,0 -0.091,-0.004c-1.9,-0.158 -3.765,-0.603 -5.532,-1.318c-0.286,-0.132 -0.471,-0.42 -0.471,-0.736c-0,-0.444 0.365,-0.81 0.81,-0.81c0.116,0 0.232,0.026 0.338,0.074c1.609,0.643 3.305,1.041 5.032,1.18c0.409,0.044 0.723,0.393 0.723,0.805c-0,0.03 -0.002,0.06 -0.005,0.09Z" style="fill:#fff;fill-rule:nonzero;"/><path d="M207.47,93.524c1.096,-0.001 1.998,-0.903 2,-2l-0,-16c-0.002,-1.096 -0.904,-1.998 -2,-2l-24,0c-1.097,0.002 -1.999,0.904 -2,2l-0,16c0.001,1.097 0.903,1.999 2,2l24,0Zm-24,-18l24,0l0.002,16l-24.002,0l-0,-16Zm21,2l-18.001,0c-0.548,0 -0.999,0.451 -0.999,1l-0,10.001c-0,0.548 0.451,0.999 0.999,0.999l10.001,0l-0,-2l-9,0l-0,-8l16,0l-0,7l2,0l-0,-8c-0,-0.549 -0.452,-1 -1,-1c-0,0 -0,0 -0,0Zm1,10l-2,0l-0,2l2,0l-0,-2Zm-3,0l-2,0l-0,2l2,0l-0,-2Zm-3,0l-2,0l-0,2l2,0l-0,-2Zm15.977,-42.64l-1.535,1.281c7.794,9.36 7.29,23.244 -1.162,32.014l1.439,1.388c9.158,-9.501 9.704,-24.544 1.258,-34.683l0,-0Zm-37.574,32.96c-8.166,-8.805 -8.53,-22.451 -0.846,-31.679l-1.535,-1.281c-8.326,9.996 -7.933,24.781 0.914,34.321l1.467,-1.361Zm2.87,-7.821c-0.692,-1.197 -1.235,-2.474 -1.617,-3.802l-1.922,0.55c0.426,1.487 1.034,2.916 1.809,4.254l1.73,-1.002Zm29.453,0l1.731,1.002c1.487,-2.579 2.348,-5.473 2.513,-8.446l-1.996,-0.109c-0.139,2.66 -0.91,5.25 -2.248,7.553Zm-13.689,-2.499c-0,-0.552 -0.448,-1 -1,-1c-0.552,0 -1,0.448 -1,1c-0,0.552 0.448,1 1,1c0.552,0 1,-0.448 1,-1Zm2.252,-4.122c-2.016,-1.157 -4.504,-1.147 -6.511,0.025l1.029,1.714c1.378,-0.801 3.085,-0.807 4.468,-0.014l1.014,-1.725Zm-18.289,-1.43c-0,-1.645 -1.355,-3 -3,-3c-1.646,0 -3,1.355 -3,3c-0,1.646 1.354,3 3,3c1.645,-0.001 2.998,-1.354 3,-3Zm-3,1c-0.549,0 -1,-0.451 -1,-1c-0,-0.548 0.451,-1 1,-1c0.548,0 1,0.452 1,1c-0.001,0.549 -0.452,1 -1,1Zm23.463,-2.805c-1.588,-1.077 -3.465,-1.649 -5.383,-1.643l-0.054,0c-1.934,-0.005 -3.825,0.582 -5.416,1.681l1.144,1.639c1.26,-0.866 2.754,-1.326 4.283,-1.32c1.535,-0.03 3.041,0.424 4.303,1.297l1.123,-1.654Zm15.785,-3.237c-0,-2.195 -1.806,-4 -4,-4c-2.195,-0 -4,1.805 -4,4c-0,2.194 1.805,4 4,4c2.193,-0.003 3.997,-1.807 4,-4Zm-4,2c-1.098,-0 -2,-0.903 -2,-2c-0,-1.098 0.902,-2 2,-2c1.097,-0 2,0.902 2,2c-0.002,1.096 -0.904,1.998 -2,2Zm-9.59,-2.183c-2.258,-1.463 -4.895,-2.235 -7.585,-2.223l-0.055,0c-2.697,-0.002 -5.337,0.777 -7.601,2.242l1.091,1.676c3.97,-2.546 9.08,-2.553 13.058,-0.019l1.092,-1.676Zm6.509,-4.622l1.666,-1.108c-3.519,-5.299 -9.472,-8.493 -15.833,-8.493c-8.882,0 -16.637,6.226 -18.556,14.898l1.953,0.429c1.718,-7.757 8.656,-13.327 16.602,-13.327c5.692,0 11.02,2.858 14.168,7.601Zm-25.167,-10.601c-0,-2.194 -1.806,-4 -4,-4c-2.195,0 -4,1.806 -4,4c-0,2.195 1.805,4 4,4c2.193,-0.002 3.997,-1.806 4,-4Zm26.722,-2.329c-1.646,0 -3,1.354 -3,3c0,1.646 1.354,3 3,3c1.646,0 3,-1.354 3,-3c-0.002,-1.645 -1.355,-2.998 -3,-3Zm-30.722,4.329c-1.098,0 -2,-0.903 -2,-2c-0,-1.097 0.902,-2 2,-2c1.097,0 2,0.903 2,2c-0.002,1.097 -0.904,1.999 -2,2Zm30.722,-0.329c-0.548,0 -1,-0.451 -1,-1c0,-0.548 0.452,-1 1,-1c0.549,0 1,0.452 1,1c-0,0.549 -0.451,1 -1,1Zm-4.203,-2.731l0.961,-1.754c-7.055,-3.852 -15.51,-4.229 -22.881,-1.022l0.801,1.832c6.803,-2.958 14.607,-2.61 21.119,0.944l0,-0Z" style="fill:#fff;fill-rule:nonzero;"/><path d="M298.277,259.32c-1.738,-0.83 -4.026,-1.287 -6.444,-1.287c-2.418,0 -4.707,0.457 -6.445,1.287c-1.93,0.919 -2.989,2.211 -2.989,3.638l0,12.111c0,1.427 1.059,2.719 2.984,3.637c1.738,0.83 4.026,1.287 6.45,1.287c2.423,-0 4.711,-0.457 6.449,-1.287c1.925,-0.918 2.984,-2.21 2.984,-3.637l0,-12.111c0,-1.422 -1.059,-2.714 -2.989,-3.638Zm1.386,9.724c-0,1.573 -3.217,3.321 -7.83,3.321c-4.613,0 -7.83,-1.748 -7.83,-3.321l-0,-3.279c0.394,0.301 0.856,0.581 1.385,0.835c1.738,0.831 4.027,1.287 6.445,1.287c2.418,0 4.706,-0.456 6.444,-1.287c0.529,-0.254 0.991,-0.534 1.386,-0.835l-0,3.279Zm-7.83,-9.402c4.613,0 7.83,1.749 7.83,3.321c-0,1.572 -3.217,3.321 -7.83,3.321c-4.613,-0 -7.83,-1.749 -7.83,-3.321c-0,-1.572 3.217,-3.321 7.83,-3.321Zm-0,18.748c-4.613,-0 -7.83,-1.749 -7.83,-3.321l-0,-3.217c0.394,0.3 0.851,0.581 1.38,0.83c1.738,0.83 4.026,1.287 6.45,1.287c2.423,-0 4.711,-0.457 6.449,-1.287c0.524,-0.249 0.986,-0.53 1.381,-0.83l-0,3.222c-0,1.567 -3.217,3.316 -7.83,3.316Zm21.227,-49.762l-7.42,0c-0.436,0 -0.835,0.161 -1.152,0.477l-2.438,2.444c-0.312,0.312 -0.478,0.711 -0.478,1.152l0,12.848c0,0.898 0.732,1.629 1.629,1.629l9.859,0c0.898,0 1.63,-0.731 1.63,-1.629l-0,-15.292c-0,-0.897 -0.732,-1.629 -1.63,-1.629Zm-8.027,2.205l0,1.256l-1.256,0l1.256,-1.256Zm8.053,14.716c0,0.01 -0.01,0.026 -0.026,0.026l-9.859,-0c-0.015,-0 -0.025,-0.01 -0.025,-0.026l-0,-11.851l2.656,-0c0.441,-0 0.805,-0.358 0.805,-0.805l-0,-2.656l6.423,-0c0.011,-0 0.026,0.01 0.026,0.026l0,15.286Zm-1.146,-9.771c-0,0.441 -0.358,0.805 -0.805,0.805l-6.008,-0c-0.441,-0 -0.805,-0.358 -0.805,-0.805c0,-0.441 0.358,-0.804 0.805,-0.804l6.008,0c0.447,0 0.805,0.363 0.805,0.804Zm-0,5.288c-0,0.441 -0.358,0.804 -0.805,0.804l-6.008,0c-0.441,0 -0.805,-0.358 -0.805,-0.804c0,-0.441 0.358,-0.804 0.805,-0.804l6.008,-0c0.447,-0 0.805,0.358 0.805,0.804Zm-25.037,6.112l9.859,0c0.898,0 1.629,-0.731 1.629,-1.629l0,-15.292c0,-0.897 -0.731,-1.629 -1.629,-1.629l-7.42,0c-0.436,0 -0.835,0.161 -1.152,0.477l-2.439,2.444c-0.311,0.312 -0.477,0.711 -0.477,1.152l-0,12.848c-0,0.898 0.731,1.629 1.629,1.629Zm9.885,-16.921l0,15.287c0,0.01 -0.01,0.026 -0.026,0.026l-9.859,-0c-0.015,-0 -0.026,-0.016 -0.026,-0.026l0,-11.846l2.662,-0c0.441,-0 0.804,-0.358 0.804,-0.805l0,-2.656l6.419,-0c0.01,-0 0.026,0.01 0.026,0.02Zm-8.053,0.576l-0,1.256l-1.256,0l1.256,-1.256Zm6.102,4.141c0.441,0 0.804,0.358 0.804,0.804c0,0.441 -0.358,0.805 -0.804,0.805l-6.009,-0c-0.441,-0 -0.804,-0.358 -0.804,-0.805c-0,-0.441 0.358,-0.804 0.804,-0.804l6.009,0Zm0.804,6.092c0,0.441 -0.358,0.804 -0.804,0.804l-6.009,0c-0.441,0 -0.804,-0.358 -0.804,-0.804c-0,-0.441 0.358,-0.804 0.804,-0.804l6.009,-0c0.441,-0 0.804,0.358 0.804,0.804Zm-13.543,4.483l0,-15.292c0,-0.897 -0.731,-1.629 -1.634,-1.629l-7.42,0c-0.436,0 -0.836,0.161 -1.152,0.477l-2.444,2.444c-0.312,0.317 -0.472,0.716 -0.472,1.152l-0,12.848c-0,0.898 0.731,1.629 1.629,1.629l9.859,0c0.897,0 1.634,-0.731 1.634,-1.629Zm-9.661,-14.716l-0,1.256l-1.256,0l1.256,-1.256Zm-1.858,14.716l-0,-11.851l2.662,-0c0.441,-0 0.804,-0.358 0.804,-0.805l0,-2.656l6.419,-0c0.015,-0 0.026,0.015 0.026,0.026l-0,15.286c-0,0.01 -0.011,0.026 -0.026,0.026l-9.859,-0c-0.011,-0.005 -0.026,-0.016 -0.026,-0.026Zm8.764,-9.771c-0,0.441 -0.358,0.805 -0.804,0.805l-6.009,-0c-0.441,-0 -0.804,-0.358 -0.804,-0.805c-0,-0.441 0.358,-0.804 0.804,-0.804l6.009,0c0.441,0 0.804,0.363 0.804,0.804Zm-0,5.288c-0,0.441 -0.358,0.804 -0.804,0.804l-6.009,0c-0.441,0 -0.804,-0.358 -0.804,-0.804c-0,-0.441 0.358,-0.804 0.804,-0.804l6.009,-0c0.441,-0 0.804,0.358 0.804,0.804Zm29.629,8.66c-0.525,2.735 -2.133,4.898 -4.909,6.595l0.809,0.27c0.421,0.14 0.649,0.597 0.509,1.017c-0.114,0.337 -0.426,0.55 -0.763,0.55c-0.083,0 -0.171,-0.016 -0.254,-0.041l-2.569,-0.857c-0.202,-0.067 -0.368,-0.212 -0.467,-0.404c-0.093,-0.192 -0.109,-0.41 -0.041,-0.613l0.856,-2.568c0.14,-0.42 0.597,-0.649 1.017,-0.509c0.42,0.14 0.649,0.597 0.508,1.017l-0.207,0.628c2.231,-1.427 3.523,-3.191 3.938,-5.381c0.083,-0.436 0.504,-0.721 0.939,-0.638c0.426,0.078 0.717,0.498 0.634,0.934Zm-26.63,7.13c-0.093,0.192 -0.265,0.337 -0.467,0.404l-2.568,0.857c-0.083,0.025 -0.172,0.041 -0.255,0.041c-0.337,0 -0.648,-0.213 -0.762,-0.55c-0.141,-0.42 0.088,-0.877 0.508,-1.017l0.804,-0.27c-2.776,-1.697 -4.389,-3.86 -4.908,-6.595c-0.083,-0.436 0.202,-0.856 0.638,-0.939c0.436,-0.083 0.856,0.202 0.939,0.638c0.415,2.185 1.707,3.954 3.938,5.381l-0.207,-0.628c-0.14,-0.42 0.088,-0.877 0.508,-1.017c0.421,-0.14 0.877,0.088 1.017,0.509l0.857,2.568c0.067,0.208 0.052,0.426 -0.042,0.618Zm10.295,-7.28l-0,4.042l0.54,-0.54c0.311,-0.311 0.819,-0.311 1.136,0c0.311,0.311 0.311,0.82 -0,1.136l-1.915,1.915c-0.155,0.156 -0.363,0.234 -0.565,0.234c-0.208,-0 -0.41,-0.078 -0.566,-0.234l-1.915,-1.915c-0.311,-0.311 -0.316,-0.819 0,-1.136c0.312,-0.311 0.82,-0.316 1.137,0l0.545,0.545l-0,-4.042c-0,-0.441 0.358,-0.805 0.804,-0.805c0.441,-0.005 0.799,0.353 0.799,0.8Z" style="fill:#fff;fill-rule:nonzero;"/></svg>