<?xml version="1.0" encoding="UTF-8" standalone="no"?><!DOCTYPE svg PUBLIC "-//W3C//DTD SVG 1.1//EN" "http://www.w3.org/Graphics/SVG/1.1/DTD/svg11.dtd"><svg width="100%" height="100%" viewBox="0 0 512 512" version="1.1" xmlns="http://www.w3.org/2000/svg" xmlns:xlink="http://www.w3.org/1999/xlink" xml:space="preserve" xmlns:serif="http://www.serif.com/" style="fill-rule:evenodd;clip-rule:evenodd;stroke-linejoin:round;stroke-miterlimit:2;"><g id="Layer6"><g><rect x="393.679" y="73.746" width="55.931" height="105.441" style="fill:#e0e0df;fill-rule:nonzero;"/><rect x="381.165" y="73.746" width="65.699" height="105.441" style="fill:#e6e7e5;fill-rule:nonzero;"/><rect x="391.152" y="83.112" width="45.696" height="86.709" style="fill:#fff;fill-rule:nonzero;"/><path d="M411.75,103.023c-4.416,5.641 -7.862,13.52 -6.841,20.833c0.464,3.323 2.304,6.602 5.479,8.002c3.353,1.478 6.919,0.253 9.661,-1.897c2.517,-1.974 5.746,-5.409 5.06,-8.91c-0.715,-3.657 -4.99,-4.739 -8.085,-3.588c-7.002,2.602 -10.368,10.567 -10.932,17.484c-0.599,7.339 0.631,19.315 9.649,20.978c1.927,0.355 2.753,-2.596 0.814,-2.955c-6.151,-1.134 -7.225,-8.601 -7.46,-13.744c-0.258,-5.629 0.79,-11.669 4.782,-15.915c1.598,-1.699 4.539,-4.159 7.04,-3.015c3.033,1.388 -0.382,5.08 -1.755,6.395c-1.827,1.75 -4.455,3.389 -7.074,2.552c-2.448,-0.782 -3.799,-3.354 -4.159,-5.746c-0.482,-3.203 0.312,-6.646 1.33,-9.672c1.045,-3.106 2.637,-6.054 4.657,-8.634c1.202,-1.535 -0.951,-3.719 -2.166,-2.168Z" style="fill:#eaebea;fill-rule:nonzero;"/><path d="M124.889,155.969l-63.346,0c-1.422,0 -2.574,-1.152 -2.574,-2.573l0,-57.947c0,-1.421 1.152,-2.573 2.574,-2.573l63.346,0c1.42,0 2.572,1.152 2.572,2.573l0,57.947c0,1.421 -1.152,2.573 -2.572,2.573Z" style="fill:#eaebea;fill-rule:nonzero;"/><path d="M117.103,119.97l-47.776,0c-0.746,0 -1.07,-0.944 -0.481,-1.402l11.285,-8.792l12.603,-9.817c0.282,-0.221 0.68,-0.221 0.963,0l12.602,9.817l11.285,8.792c0.589,0.458 0.265,1.402 -0.481,1.402Z" style="fill:#e0e0df;fill-rule:nonzero;"/><path d="M77.476,116.387l31.479,0l-15.739,-12.262l-15.74,12.262Zm32.629,1.121l-33.779,0c-0.311,0 -0.588,-0.197 -0.688,-0.491c-0.1,-0.293 -0.004,-0.618 0.241,-0.809l16.889,-13.157c0.264,-0.203 0.63,-0.206 0.892,-0.001l16.892,13.158c0.244,0.19 0.341,0.516 0.241,0.809c-0.101,0.294 -0.377,0.491 -0.688,0.491Z" style="fill:#d7d9d9;fill-rule:nonzero;"/><rect x="74.035" y="119.97" width="4.564" height="19.499" style="fill:#e0e0df;fill-rule:nonzero;"/><rect x="84.385" y="119.97" width="4.564" height="19.499" style="fill:#e0e0df;fill-rule:nonzero;"/><rect x="98.428" y="119.97" width="4.564" height="19.499" style="fill:#e0e0df;fill-rule:nonzero;"/><rect x="108.605" y="119.97" width="4.564" height="19.499" style="fill:#e0e0df;fill-rule:nonzero;"/><path d="M117.56,144.489l-48.69,0c-0.7,0 -1.213,-0.66 -1.038,-1.339l0.738,-2.875c0.122,-0.474 0.549,-0.806 1.039,-0.806l47.035,0c0.467,0 0.879,0.302 1.021,0.747l0.917,2.875c0.22,0.692 -0.296,1.398 -1.022,1.398Z" style="fill:#e0e0df;fill-rule:nonzero;"/><path d="M93.216,109.431c-1.213,0 -2.198,0.985 -2.198,2.197c0,1.212 0.985,2.198 2.198,2.198c1.211,0 2.196,-0.986 2.196,-2.198c0,-1.212 -0.985,-2.197 -2.196,-2.197Zm0,5.516c-1.831,0 -3.32,-1.489 -3.32,-3.319c0,-1.83 1.489,-3.319 3.32,-3.319c1.829,0 3.318,1.489 3.318,3.319c0,1.83 -1.489,3.319 -3.318,3.319Z" style="fill:#d7d9d9;fill-rule:nonzero;"/><path d="M116.01,122.803l-45.589,0c-0.35,0 -0.633,-0.284 -0.633,-0.633l0,-1.568c0,-0.35 0.283,-0.632 0.633,-0.632l45.589,0c0.349,0 0.632,0.282 0.632,0.632l0,1.568c0,0.349 -0.283,0.633 -0.632,0.633Z" style="fill:#e0e0df;fill-rule:nonzero;"/><path d="M115.606,120.681l-44.782,0c-0.309,0 -0.561,-0.251 -0.561,-0.56c0,-0.311 0.252,-0.562 0.561,-0.562l44.782,0c0.311,0 0.562,0.251 0.562,0.562c0,0.309 -0.251,0.56 -0.562,0.56Z" style="fill:#d7d9d9;fill-rule:nonzero;"/><path d="M115.606,142.629l-44.782,0c-0.309,0 -0.561,-0.25 -0.561,-0.561c0,-0.31 0.252,-0.561 0.561,-0.561l44.782,0c0.311,0 0.562,0.251 0.562,0.561c0,0.311 -0.251,0.561 -0.562,0.561Z" style="fill:#d7d9d9;fill-rule:nonzero;"/><path d="M269.015,44.162c-3.161,0 -5.731,2.852 -5.731,6.357l0,298.27c0,3.506 2.57,6.358 5.731,6.358l184.593,0c3.161,0 5.733,-2.852 5.733,-6.358l0,-298.27c0,-3.505 -2.572,-6.357 -5.733,-6.357l-184.593,0Zm184.593,311.269l-184.593,0c-3.302,0 -5.986,-2.981 -5.986,-6.642l0,-298.27c0,-3.662 2.684,-6.64 5.986,-6.64l184.593,0c3.302,0 5.988,2.978 5.988,6.64l0,298.27c0,3.661 -2.686,6.642 -5.988,6.642Z" style="fill:#d7d9d9;fill-rule:nonzero;"/><path d="M56.151,44.162c-3.161,0 -5.731,2.852 -5.731,6.357l0,298.27c0,3.506 2.57,6.358 5.731,6.358l184.594,0c3.16,0 5.732,-2.852 5.732,-6.358l0,-298.27c0,-3.505 -2.572,-6.357 -5.732,-6.357l-184.594,0Zm184.594,311.269l-184.594,0c-3.302,0 -5.987,-2.981 -5.987,-6.642l0,-298.27c0,-3.662 2.685,-6.64 5.987,-6.64l184.594,0c3.301,0 5.987,2.978 5.987,6.64l0,298.27c0,3.661 -2.686,6.642 -5.987,6.642Z" style="fill:#d7d9d9;fill-rule:nonzero;"/><rect x="0.24" y="399.268" width="510.642" height="0.255" style="fill:#d7d9d9;fill-rule:nonzero;"/><rect x="53.012" y="413.837" width="16.402" height="0.255" style="fill:#d7d9d9;fill-rule:nonzero;"/><rect x="174.218" y="411.069" width="54.669" height="0.255" style="fill:#d7d9d9;fill-rule:nonzero;"/><rect x="70.435" y="423.324" width="37.022" height="0.255" style="fill:#d7d9d9;fill-rule:nonzero;"/><rect x="386.645" y="410.936" width="44.109" height="0.255" style="fill:#d7d9d9;fill-rule:nonzero;"/><rect x="439.854" y="410.936" width="6.465" height="0.255" style="fill:#d7d9d9;fill-rule:nonzero;"/><rect x="323.182" y="417.299" width="55.037" height="0.255" style="fill:#d7d9d9;fill-rule:nonzero;"/><path d="M462.184,379.189c2.819,0.398 5.718,-0.44 8.147,-1.924c2.428,-1.485 4.428,-3.582 6.182,-5.825c4.659,-5.953 7.756,-13.115 8.904,-20.587c0.246,-1.602 0.402,-3.258 0.003,-4.828c-0.398,-1.571 -1.446,-3.059 -2.975,-3.596c-2.283,-0.803 -4.704,0.671 -6.561,2.222c-8.431,7.044 -14.082,17.33 -15.507,28.224c-0.348,2.666 0.028,5.382 1.807,6.314Z" style="fill:#eaebea;fill-rule:nonzero;"/><path d="M445.707,365.519c2.338,-4.855 2.51,-10.608 0.965,-15.771c-1.546,-5.163 -4.72,-9.751 -8.652,-13.436c-4.311,-4.042 -9.848,-7.147 -15.757,-7.177c-2.52,-0.014 -5.247,0.662 -6.794,2.651c-1.646,2.118 -1.51,5.129 -0.788,7.712c1.184,4.23 3.694,7.994 6.692,11.203c2.999,3.21 6.49,5.913 9.971,8.591c3.925,3.017 8.163,6.14 13.099,6.517" style="fill:#eaebea;fill-rule:nonzero;"/><path d="M445.357,381.904c-0.695,-5.455 -4.933,-9.967 -9.889,-12.353c-4.955,-2.386 -10.569,-2.972 -16.063,-3.247c-1.222,-0.06 -2.474,-0.104 -3.645,0.26c-1.169,0.363 -2.258,1.216 -2.572,2.4c-0.412,1.55 0.572,3.106 1.599,4.338c6.019,7.224 15.434,11.487 24.833,11.246c1.087,-0.027 2.194,-0.117 3.199,-0.535c1.004,-0.416 1.902,-1.211 2.204,-2.256" style="fill:#eaebea;fill-rule:nonzero;"/><path d="M480.879,346.21c-9.575,14.512 -17.969,29.793 -25.05,45.672c-1.968,4.413 -3.831,8.871 -5.6,13.367c-0.18,0.458 0.56,0.657 0.739,0.203c6.322,-16.075 13.944,-31.631 22.791,-46.467c2.498,-4.189 5.096,-8.317 7.782,-12.388c0.272,-0.412 -0.391,-0.796 -0.662,-0.387Z" style="fill:#d7d9d9;fill-rule:nonzero;"/><path d="M452.136,401.833c0.325,-10.035 -0.487,-20.177 -3.339,-29.837c-2.815,-9.531 -7.652,-18.36 -14.28,-25.773c-4.165,-4.659 -8.956,-8.706 -14.107,-12.233c-0.407,-0.28 -0.79,0.384 -0.386,0.661c8.808,6.035 16.461,13.688 21.819,22.969c4.858,8.417 7.675,17.851 8.861,27.469c0.684,5.552 0.847,11.155 0.667,16.744c-0.017,0.493 0.749,0.492 0.765,0Z" style="fill:#d7d9d9;fill-rule:nonzero;"/><path d="M451.613,387.678c-7.85,-9.119 -18.851,-15.483 -30.707,-17.596c-0.482,-0.086 -0.69,0.653 -0.205,0.739c11.742,2.092 22.596,8.368 30.37,17.398c0.322,0.375 0.861,-0.17 0.542,-0.541Z" style="fill:#d7d9d9;fill-rule:nonzero;"/><path d="M433.851,408.935l0,-11.811l32.901,0l0,11.811c0,0 0.632,20.879 -10.966,22.776l-10.967,0c-11.6,-1.897 -10.968,-22.776 -10.968,-22.776Z" style="fill:#e0e0df;fill-rule:nonzero;"/><rect x="324.327" y="54.254" width="44.102" height="75.576" style="fill:#d7d9d9;fill-rule:nonzero;"/><rect x="314.46" y="54.254" width="51.805" height="75.576" style="fill:#e6e7e5;fill-rule:nonzero;"/><rect x="322.334" y="60.967" width="36.032" height="62.15" style="fill:#fff;fill-rule:nonzero;"/><path d="M314.46,54.254c0.638,0 7.874,6.713 7.874,6.713l36.032,0l7.899,-6.713l-51.805,0Z" style="fill:#d7d9d9;fill-rule:nonzero;"/><path d="M366.265,129.83c-0.637,0 -7.874,-6.713 -7.874,-6.713l-36.032,0l-7.899,6.713l51.805,0Z" style="fill:#d7d9d9;fill-rule:nonzero;"/><path d="M399.875,89.634l-2.831,-2.774l-2.83,-2.775l-2.831,2.775l-2.83,2.774l2.874,0l0,12.874l5.574,0l0,-12.874l2.874,0Z" style="fill:#3073ba;fill-rule:nonzero;"/><path d="M374.203,255.471c0,0 -3.747,75.137 -19.928,88.073l17.307,0c0,0 15.433,-25.598 16.583,-88.073l-13.962,0Z" style="fill:#0c2b34;fill-rule:nonzero;"/><path d="M374.542,337.317l-15.431,0c1.112,-2.03 2.147,-4.376 3.11,-6.965l14.929,0c-0.941,2.775 -1.829,5.091 -2.608,6.965Z" style="fill:#9da7aa;fill-rule:nonzero;"/><path d="M301.983,337.317l80.579,0c2.533,0 4.587,2.055 4.587,4.589l0,7.864l-89.753,0l0,-7.864c0,-2.534 2.053,-4.589 4.587,-4.589Z" style="fill:#3073ba;fill-rule:nonzero;"/><path d="M387.149,343.543l-38.517,0c-0.311,-2.134 -0.614,-4.215 -0.904,-6.226l34.834,0c2.533,0 4.587,2.055 4.587,4.589l0,1.637Zm-69.041,0l-18.442,0c-0.082,-1.898 -0.155,-3.725 -0.22,-5.461c0.727,-0.483 1.6,-0.765 2.537,-0.765l14.671,0c0.481,2.06 0.965,4.136 1.454,6.226Z" style="fill:#0d60ae;fill-rule:nonzero;"/><path d="M383.76,435.984l-34.601,-3.016l0,-54.464l-12.164,0l0,54.452l-34.724,3.028c-3.058,0.302 -5.391,2.874 -5.391,5.947l0,4.609l92.271,0l0,-4.609c0,-3.073 -2.333,-5.645 -5.391,-5.947Z" style="fill:#0c2b34;fill-rule:nonzero;"/><path d="M380.374,446.54l-83.494,0l0,-4.609c0,-0.31 0.024,-0.617 0.07,-0.915c4.395,0.039 8.412,0.101 8.412,0.101c0,0 -0.132,-1.953 -0.358,-5.371l31.991,-2.79l0,-10.147c2.276,9.122 3.786,14.732 4.053,14.732c0.002,0 0.004,-0.001 0.007,-0.001c1.334,-0.473 21.803,-0.946 21.803,-0.946c0,0 -0.137,-0.869 -0.387,-2.465l21.289,1.855c3.058,0.302 5.391,2.874 5.391,5.947l0,3.065c-0.992,-0.444 -2.092,-0.691 -3.249,-0.691c-2.148,0 -4.097,0.851 -5.528,2.235Z" style="fill:#879397;fill-rule:nonzero;"/><path d="M308.081,452.257c0,4.392 -3.561,7.953 -7.953,7.953c-4.392,0 -7.953,-3.561 -7.953,-7.953c0,-4.392 3.561,-7.952 7.953,-7.952c4.392,0 7.953,3.56 7.953,7.952Z" style="fill:#0c2b34;fill-rule:nonzero;"/><path d="M377.949,452.257c0,4.392 3.561,7.953 7.953,7.953c4.393,0 7.953,-3.561 7.953,-7.953c0,-4.392 -3.56,-7.952 -7.953,-7.952c-4.392,0 -7.953,3.56 -7.953,7.952Z" style="fill:#0c2b34;fill-rule:nonzero;"/><path d="M337.996,452.257c0,4.392 3.561,7.953 7.953,7.953c4.392,0 7.953,-3.561 7.953,-7.953c0,-4.392 -3.561,-7.952 -7.953,-7.952c-4.392,0 -7.953,3.56 -7.953,7.952Z" style="fill:#0c2b34;fill-rule:nonzero;"/><path d="M347.731,384.039l-8.768,0c-2.095,0 -3.792,-1.699 -3.792,-3.793l0,-34.884l16.353,0l0,34.884c0,2.094 -1.699,3.793 -3.793,3.793Z" style="fill:#0c2b34;fill-rule:nonzero;"/><path d="M351.524,363.011c-0.678,-4.509 -1.342,-8.956 -1.975,-13.241l1.975,0l0,13.241Z" style="fill:#9da7aa;fill-rule:nonzero;"/><path d="M295.826,343.543l92.893,0c1.02,0 1.846,0.827 1.846,1.846l0,2.534c0,1.019 -0.826,1.847 -1.846,1.847l-92.893,0c-1.019,0 -1.845,-0.828 -1.845,-1.847l0,-2.534c0,-1.019 0.826,-1.846 1.845,-1.846Z" style="fill:#0c2b34;fill-rule:nonzero;"/><path d="M388.719,349.77l-39.17,0c-0.314,-2.121 -0.619,-4.196 -0.917,-6.227l40.087,0c0.582,0 1.102,0.269 1.44,0.69l0,4.846c-0.338,0.421 -0.858,0.691 -1.44,0.691Zm-69.155,0l-19.619,0c-0.1,-2.147 -0.194,-4.23 -0.279,-6.227l18.442,0c0.481,2.062 0.97,4.147 1.456,6.227Z" style="fill:#9da7aa;fill-rule:nonzero;"/><path d="M384.972,330.353l-28.505,-0.001c-8.351,0 -14.382,-7.503 -13.47,-16.758l12.96,-72.433c0.911,-9.256 8.419,-16.759 16.77,-16.759l28.505,0c8.351,0 14.381,7.503 13.47,16.759l-12.96,72.433c-0.911,9.255 -8.419,16.759 -16.77,16.759Z" style="fill:#3073ba;fill-rule:nonzero;"/><path d="M384.972,330.353c1.786,0 3.533,-0.344 5.187,-0.974c-1.654,0.63 -3.4,0.974 -5.187,0.974Zm-5.42,-0.001l-23.085,0c-4.322,0 -8.024,-2.011 -10.462,-5.234c-0.679,-4.946 -1.206,-9.016 -1.525,-11.861c-0.182,-1.632 -0.368,-3.252 -0.555,-4.853l2.104,-11.76l44.13,0l0,29.32c-2.952,2.72 -6.685,4.382 -10.607,4.388Zm16.506,-4.821c3.082,-3.039 5.224,-7.265 5.684,-11.937l3.032,-16.95l-3.032,16.95c-0.46,4.672 -2.601,8.898 -5.684,11.937Zm0,-10.271l0,-18.616l3.271,0l-3.033,16.95c-0.055,0.562 -0.135,1.118 -0.238,1.666Zm6.018,-33.97l-53.3,0l7.181,-40.129c0.772,-7.848 6.288,-14.436 13.038,-16.259c0.547,0.106 1.113,0.161 1.692,0.161l29.253,0c1.885,0.626 3.566,1.674 4.967,3.047c-0.56,-0.238 -1.151,-0.403 -1.763,-0.479c-0.113,-0.013 -0.23,-0.021 -0.349,-0.021c-0.45,0 -0.909,0.119 -1.115,0.5c-0.085,0.156 -0.111,0.331 -0.112,0.511c0,0.14 0.016,0.282 0.032,0.419c0.225,1.886 0.451,3.771 0.676,5.656c-0.262,0.169 -0.517,0.34 -0.768,0.513c-0.016,-0.022 -0.031,-0.045 -0.048,-0.067c-1.337,-1.906 -3.333,-3.476 -5.644,-3.761c-0.114,-0.013 -0.231,-0.021 -0.35,-0.021c-0.45,0 -0.908,0.119 -1.115,0.499c-0.085,0.158 -0.111,0.332 -0.112,0.512c0,0.139 0.015,0.281 0.033,0.419c0.338,2.832 0.677,5.664 1.015,8.496c-2.808,3.799 -3.817,7.143 -3.817,7.143l-4.696,-0.108c-0.661,1.351 -0.959,3.02 -0.958,4.888c0.002,2.821 0.684,6.094 1.812,9.406l5.467,0c2.512,6.651 10.345,10.493 10.345,10.493l0.008,0.517l-1.372,7.665Zm10.464,-50.402c-1.726,-2.865 -4.345,-4.989 -7.51,-5.938c3.165,0.949 5.784,3.072 7.51,5.938Z" style="fill:#0d60ae;fill-rule:nonzero;"/><path d="M384.972,330.353l-5.446,0c0.008,0 0.018,0 0.026,-0.001l5.42,0.001Z" style="fill:#a8abab;fill-rule:nonzero;"/><path d="M384.972,330.353l-5.42,-0.001c3.922,-0.006 7.655,-1.668 10.607,-4.388l0,3.415c-1.654,0.63 -3.401,0.974 -5.187,0.974Zm11.086,-4.822l0,-10.271c0.103,-0.548 0.183,-1.104 0.238,-1.666l3.033,-16.95l5.445,0l-3.032,16.95c-0.46,4.672 -2.602,8.898 -5.684,11.937Zm7.499,-44.241l-1.481,0l1.372,-7.665l0.109,7.665Zm5.423,-49.621c-0.062,-0.093 -0.126,-0.185 -0.19,-0.277c-0.984,-1.402 -2.323,-2.621 -3.883,-3.282c-1.401,-1.373 -3.082,-2.421 -4.967,-3.047l3.672,0c0.483,0 0.956,-0.038 1.418,-0.113c3.165,0.949 5.784,3.073 7.51,5.938c-1.255,0.193 -2.441,0.458 -3.56,0.781Z" style="fill:#17467d;fill-rule:nonzero;"/><path d="M403.612,225.063l-27.877,0c-4.914,0 -8.897,-3.983 -8.897,-8.897l0,-8.423c0,-4.915 3.983,-8.898 8.897,-8.898l27.877,0c4.914,0 8.898,3.983 8.898,8.898l0,8.423c0,4.914 -3.984,8.897 -8.898,8.897Z" style="fill:#3073ba;fill-rule:nonzero;"/><path d="M403.612,225.063l-5.048,0c4.914,0 8.897,-3.983 8.897,-8.897l0,-8.423c0,-4.915 -3.983,-8.898 -8.897,-8.898l-22.829,0l27.877,0c4.914,0 8.898,3.983 8.898,8.898l0,8.423c0,4.914 -3.984,8.897 -8.898,8.897Z" style="fill:#174781;fill-rule:nonzero;"/><path d="M398.564,225.063l-27.877,0c-4.914,0 -8.897,-3.983 -8.897,-8.897l0,-8.423c0,-4.915 3.983,-8.898 8.897,-8.898l27.877,0c4.914,0 8.897,3.983 8.897,8.898l0,8.423c0,4.914 -3.983,8.897 -8.897,8.897Z" style="fill:#3073ba;fill-rule:nonzero;"/><path d="M398.564,225.063l-27.877,0c-4.914,0 -8.897,-3.983 -8.897,-8.897l0,-8.423c0,-4.915 3.983,-8.898 8.897,-8.898l27.877,0c4.914,0 8.897,3.983 8.897,8.898l0,8.423c0,4.914 -3.983,8.897 -8.897,8.897Z" style="fill:#0d60ae;fill-rule:nonzero;"/><path d="M259.002,164.553l-110.5,0c-2.647,0 -4.793,-2.147 -4.793,-4.793l0,-65.954c0,-2.647 2.146,-4.793 4.793,-4.793l110.5,0c2.647,0 4.792,2.146 4.792,4.793l0,65.954c0,2.646 -2.145,4.793 -4.792,4.793Z" style="fill:#3073ba;fill-rule:nonzero;"/><path d="M259.002,164.553l-110.5,0c-2.647,0 -4.793,-2.147 -4.793,-4.793l0,-65.954c0,-2.647 2.146,-4.793 4.793,-4.793l110.5,0c2.647,0 4.792,2.146 4.792,4.793l0,65.954c0,0.775 -0.184,1.507 -0.51,2.155c-0.078,0.153 -0.163,0.302 -0.255,0.445c-0.854,1.319 -2.338,2.193 -4.027,2.193Z" style="fill:#b3cfec;fill-rule:nonzero;"/><g><path d="M198.017,92.953c17.963,0.279 32.953,7.093 44.756,20.722c1.613,1.86 1.416,4.443 -0.383,5.988c-1.714,1.473 -4.265,1.286 -5.841,-0.545c-4.292,-4.982 -9.266,-9.108 -15.096,-12.166c-18.278,-9.592 -40.139,-7.24 -55.886,6.081c-2.17,1.836 -4.101,3.965 -6.057,6.039c-1.694,1.798 -4.194,2.085 -5.986,0.541c-1.768,-1.524 -1.902,-4.119 -0.289,-5.989c9.893,-11.466 22.339,-18.244 37.341,-20.316c1.175,-0.162 2.359,-0.289 3.543,-0.342c1.297,-0.059 2.599,-0.013 3.898,-0.013Z" style="fill:#182e35;fill-rule:nonzero;"/><path d="M199.501,109.608c11.354,0.294 22.028,5.144 30.428,14.85c1.656,1.915 1.461,4.386 -0.377,5.966c-1.751,1.504 -4.284,1.301 -5.902,-0.571c-4.383,-5.073 -9.695,-8.794 -16.171,-10.543c-13.199,-3.563 -24.61,-0.313 -34.166,9.456c-0.356,0.363 -0.683,0.753 -1.021,1.134c-1.577,1.776 -4.129,2.015 -5.853,0.545c-1.818,-1.548 -2.007,-4.108 -0.417,-5.983c3.743,-4.411 8.199,-7.92 13.384,-10.493c5.875,-2.916 12.103,-4.334 20.095,-4.361Z" style="fill:#182e35;fill-rule:nonzero;"/><path d="M218.181,138.014c-0.002,1.729 -1.047,3.259 -2.654,3.885c-1.618,0.631 -3.416,0.211 -4.627,-1.161c-1.785,-2.021 -3.844,-3.657 -6.341,-4.715c-6.816,-2.888 -14.336,-1.094 -19.405,4.632c-1.202,1.358 -2.703,1.85 -4.437,1.325c-1.669,-0.506 -2.632,-1.708 -2.889,-3.429c-0.181,-1.212 0.185,-2.29 0.964,-3.23c8.682,-10.468 24.654,-11.95 35.098,-3.223c1.187,0.991 2.302,2.101 3.285,3.293c0.577,0.701 0.826,1.673 1.223,2.523l-0.217,0.1Z" style="fill:#182e35;fill-rule:nonzero;"/><path d="M198.002,159.822c-4.657,0.002 -8.356,-3.693 -8.353,-8.346c0.003,-4.578 3.724,-8.301 8.317,-8.319c4.614,-0.018 8.358,3.736 8.347,8.367c-0.013,4.613 -3.702,8.296 -8.311,8.298Z" style="fill:#182e35;fill-rule:nonzero;"/></g><g><path d="M171.235,143.79c-1.007,0 -1.949,0.273 -2.762,0.742c0.073,-0.423 0.114,-0.86 0.114,-1.304c0,-4.211 -3.414,-7.624 -7.624,-7.624c-3.731,0 -6.834,2.679 -7.493,6.218c-0.741,-0.28 -1.54,-0.44 -2.379,-0.44c-3.722,0 -6.741,3.019 -6.741,6.741c0,3.724 3.019,6.742 6.741,6.742l20.144,0c3.058,0 5.537,-2.48 5.537,-5.538c0,-3.058 -2.479,-5.537 -5.537,-5.537Z" style="fill:#fff;fill-rule:nonzero;"/><path d="M153.678,162.174l0.255,0l0,-6.644l1.657,0l-1.28,-2.218l-1.28,-2.216l-1.28,2.216l-1.28,2.218l1.657,0l0,6.899l1.806,0l0,-0.255l-0.255,0l0,-0.255l-1.041,0l0,-6.9l-1.282,0l0.837,-1.451l0.838,-1.451l0.838,1.451l0.837,1.451l-1.282,0l0,7.155l0.255,0l0,-0.255l0,0.255Z" style="fill:#182e35;fill-rule:nonzero;"/><path d="M153.678,178.481l0.255,0l0,-6.646l1.657,0l-1.28,-2.217l-1.28,-2.216l-1.28,2.216l-1.28,2.217l1.657,0l0,6.901l1.806,0l0,-0.255l-0.255,0l0,-0.255l-1.041,0l0,-6.901l-1.282,0l0.837,-1.451l0.838,-1.451l0.838,1.451l0.837,1.451l-1.282,0l0,7.156l0.255,0l0,-0.255l0,0.255Z" style="fill:#182e35;fill-rule:nonzero;"/><path d="M166.545,151.607l-0.255,0l0,6.644l-1.657,0l1.28,2.217l1.28,2.217l1.28,-2.217l1.28,-2.217l-1.656,0l0,-6.9l-1.807,0l0,0.256l0.255,0l0,0.255l1.041,0l0,6.9l1.283,0l-0.838,1.451l-0.838,1.45l-0.838,-1.45l-0.837,-1.451l1.283,0l0,-7.155l-0.256,0l0,0.255l0,-0.255Z" style="fill:#182e35;fill-rule:nonzero;"/><path d="M166.545,165.176l-0.255,0l0,6.644l-1.657,0l2.56,4.434l1.28,-2.217l1.28,-2.217l-1.656,0l0,-6.9l-1.807,0l0,0.256l0.255,0l0,0.255l1.041,0l0,6.9l1.283,0l-0.838,1.451l-0.838,1.451l-0.838,-1.451l-0.837,-1.451l1.283,0l0,-7.155l-0.256,0l0,0.255l0,-0.255Z" style="fill:#182e35;fill-rule:nonzero;"/></g><g><path d="M261.761,139.806c-1.007,0 -1.949,0.273 -2.762,0.743c0.073,-0.424 0.113,-0.86 0.113,-1.304c0,-4.211 -3.414,-7.624 -7.623,-7.624c-3.731,0 -6.834,2.679 -7.494,6.217c-0.74,-0.279 -1.54,-0.44 -2.378,-0.44c-3.723,0 -6.742,3.019 -6.742,6.742c0,3.723 3.019,6.741 6.742,6.741l20.144,0c3.057,0 5.537,-2.479 5.537,-5.537c0,-3.059 -2.48,-5.538 -5.537,-5.538Z" style="fill:#fff;fill-rule:nonzero;"/><path d="M244.204,158.191l0.255,0l0,-6.645l1.657,0l-1.28,-2.217l-1.281,-2.216l-1.279,2.216l-1.28,2.217l1.656,0l0,6.9l1.807,0l0,-0.255l-0.255,0l0,-0.256l-1.041,0l0,-6.9l-1.283,0l0.838,-1.451l0.837,-1.45l0.839,1.45l0.837,1.451l-1.283,0l0,7.156l0.256,0l0,-0.256l0,0.256Z" style="fill:#182e35;fill-rule:nonzero;"/><path d="M244.204,174.497l0.255,0l0,-6.645l1.657,0l-1.28,-2.217l-1.281,-2.216l-1.279,2.216l-1.28,2.217l1.656,0l0,6.901l1.807,0l0,-0.256l-0.255,0l0,-0.255l-1.041,0l0,-6.901l-1.283,0l0.838,-1.451l0.837,-1.45l0.839,1.45l0.837,1.451l-1.283,0l0,7.156l0.256,0l0,-0.255l0,0.255Z" style="fill:#182e35;fill-rule:nonzero;"/><path d="M257.071,147.623l-0.255,0l0,6.645l-1.657,0l1.28,2.217l1.279,2.216l1.281,-2.216l1.28,-2.217l-1.657,0l0,-6.9l-1.806,0l0,0.255l0.255,0l0,0.256l1.041,0l0,6.899l1.282,0l-0.837,1.452l-0.839,1.45l-0.837,-1.45l-0.838,-1.452l1.283,0l0,-7.155l-0.255,0l0,0.256l0,-0.256Z" style="fill:#182e35;fill-rule:nonzero;"/><path d="M257.071,161.192l-0.255,0l0,6.645l-1.657,0l2.559,4.434l1.281,-2.217l1.28,-2.217l-1.657,0l0,-6.9l-1.806,0l0,0.255l0.255,0l0,0.255l1.041,0l0,6.9l1.282,0l-0.837,1.451l-0.839,1.452l-0.837,-1.452l-0.838,-1.451l1.283,0l0,-7.155l-0.255,0l0,0.255l0,-0.255Z" style="fill:#182e35;fill-rule:nonzero;"/></g><path d="M227.529,151.343l0,4.589c0,0.493 0.766,0.494 0.766,0l0,-4.589c0,-0.493 -0.766,-0.493 -0.766,0Z" style="fill:#0c2b34;fill-rule:nonzero;"/><path d="M239.464,82.865l-80.823,0c-1.555,0 -2.817,-1.261 -2.817,-2.816l0,-44.522c0,-1.556 1.262,-2.817 2.817,-2.817l80.823,0c1.556,0 2.817,1.261 2.817,2.817l0,44.522c0,1.555 -1.261,2.816 -2.817,2.816Z" style="fill:#3073ba;fill-rule:nonzero;"/><path d="M239.464,82.865l-80.823,0c-1.555,0 -2.817,-1.261 -2.817,-2.816l0,-44.522c0,-1.556 1.262,-2.817 2.817,-2.817l80.823,0c1.556,0 2.817,1.261 2.817,2.817l0,44.522c0,1.555 -1.261,2.816 -2.817,2.816Zm-15.732,-29.725l0,24.423l8.438,0l0,-24.423l-8.438,0Zm-33.914,14.281l0,10.142l8.439,0l0,-10.142l-8.439,0Z" style="fill:#b3cfec;fill-rule:nonzero;"/><rect x="168.005" y="43.808" width="8.439" height="33.754" style="fill:#3073ba;fill-rule:nonzero;"/><rect x="178.673" y="54.157" width="8.439" height="23.406" style="fill:#0c2b34;fill-rule:nonzero;"/><rect x="201.122" y="46.062" width="8.439" height="31.5" style="fill:#3073ba;fill-rule:nonzero;"/><rect x="223.732" y="53.14" width="8.439" height="24.423" style="fill:#7aa8da;fill-rule:nonzero;"/><rect x="189.818" y="67.421" width="8.439" height="10.141" style="fill:#7aa8da;fill-rule:nonzero;"/><rect x="212.586" y="72.492" width="8.439" height="5.071" style="fill:#0c2b34;fill-rule:nonzero;"/><path d="M293.805,82.865l-37.356,0c-1.557,0 -2.82,-1.263 -2.82,-2.821l0,-30.207c0,-1.558 1.263,-2.822 2.82,-2.822l37.356,0c1.558,0 2.822,1.264 2.822,2.822l0,30.207c0,1.558 -1.264,2.821 -2.822,2.821Z" style="fill:#3073ba;fill-rule:nonzero;"/><path d="M186.423,181.842c-0.242,0.927 -0.485,1.855 -0.728,2.782c0.123,-0.094 0.246,-0.188 0.37,-0.281l-0.026,0.001l0.271,0.111l-0.019,-0.018l0.113,0.271l0.001,-0.025c0.007,-0.207 -0.182,-0.383 -0.383,-0.383c-0.214,0 -0.376,0.176 -0.383,0.383c-0.008,0.236 0.19,0.434 0.426,0.426c0.166,-0.006 0.325,-0.115 0.368,-0.282c0.243,-0.926 0.486,-1.853 0.729,-2.781c0.053,-0.2 -0.066,-0.415 -0.267,-0.472c-0.198,-0.054 -0.419,0.068 -0.472,0.268Z" style="fill:#0c2b34;fill-rule:nonzero;"/><path d="M163.191,37.171c0,0.66 -0.534,1.194 -1.194,1.194c-0.66,0 -1.195,-0.534 -1.195,-1.194c0,-0.66 0.535,-1.195 1.195,-1.195c0.66,0 1.194,0.535 1.194,1.195Z" style="fill:#3073ba;fill-rule:nonzero;"/><path d="M166.368,37.171c0,0.66 -0.535,1.194 -1.195,1.194c-0.659,0 -1.194,-0.534 -1.194,-1.194c0,-0.66 0.535,-1.195 1.194,-1.195c0.66,0 1.195,0.535 1.195,1.195Z" style="fill:#3073ba;fill-rule:nonzero;"/><path d="M169.602,37.171c0,0.66 -0.535,1.194 -1.193,1.194c-0.66,0 -1.195,-0.534 -1.195,-1.194c0,-0.66 0.535,-1.195 1.195,-1.195c0.658,0 1.193,0.535 1.193,1.195Z" style="fill:#3073ba;fill-rule:nonzero;"/><path d="M328.231,160.95c-2.137,-4.389 1.045,-10.221 0.184,-15.307c-0.988,-5.838 -6.682,-8.17 -8.606,-13.588c-1.28,-3.601 -0.646,-7.813 -0.89,-11.776c-0.606,-9.851 -7.094,-18.026 -14.464,-20.155c-5.377,-1.554 -11.016,-0.281 -16.071,2.744l0.242,-0.183c-5.176,1.918 -11.895,9.187 -12.486,16.18c-0.39,4.612 -0.48,8.958 -1.664,13.336c-0.931,3.449 -3.064,6.066 -4.71,9.026c-1.646,2.959 -2.843,6.937 -1.61,10.208c0.963,2.554 3.191,4.034 4.004,6.675c0.961,3.121 -0.371,6.589 -1.704,9.478c-0.335,0.727 -0.683,1.598 -0.434,2.381c0.278,0.87 1.122,1.102 1.84,1.198c7.764,1.039 15.551,0.052 23.347,-0.935c5.775,-0.731 11.557,-1.462 17.339,-1.371c5.133,0.083 10.476,0.768 15.22,-1.822c0.821,-0.448 1.703,-1.143 1.865,-2.287c0.2,-1.429 -0.807,-2.58 -1.402,-3.802Z" style="fill:#0c2b34;fill-rule:nonzero;"/><path d="M306.987,130.447l-11.456,10.486l-2.206,2.34c0.605,1.659 1.111,3.359 1.283,4.992c0.25,2.126 -0.075,3.269 -1.553,4.708l5.432,11.802l11.354,-10.869c-5.557,-4.274 -3.486,-16.115 -2.854,-23.459Z" style="fill:#faaa6a;fill-rule:nonzero;"/><path d="M294.573,149.214c0.037,-0.318 0.049,-0.613 0.042,-0.889c0.034,0.308 0.057,0.595 0.066,0.865c-0.037,0.008 -0.072,0.016 -0.108,0.024Zm-0.318,-2.937c-0.06,-0.223 -0.119,-0.44 -0.17,-0.661c0.061,0.221 0.118,0.441 0.17,0.661Z" style="fill:#021e27;fill-rule:nonzero;"/><path d="M294.681,149.19c-0.009,-0.27 -0.032,-0.557 -0.066,-0.865c-0.02,-0.796 -0.193,-1.437 -0.36,-2.048c-0.052,-0.22 -0.109,-0.44 -0.17,-0.661c-0.062,-0.268 -0.111,-0.538 -0.132,-0.823c3.2,-0.355 6.492,-1.759 9.39,-4.355c-0.032,0.761 -0.13,1.623 -0.324,2.489c-0.786,3.516 -5.215,5.546 -8.338,6.263Z" style="fill:#dd8f50;fill-rule:nonzero;"/><path d="M311.665,118.829c-1.625,11.161 -2.077,15.907 -8.178,21.479c-9.178,8.382 -22.412,4.693 -24.126,-6.547c-1.542,-10.117 1.374,-26.67 12.637,-30.797c11.095,-4.066 21.292,4.703 19.667,15.865Z" style="fill:#faaa6a;fill-rule:nonzero;"/><path d="M296.742,122.516c-0.026,1.053 -0.646,1.936 -1.385,1.974c-0.737,0.038 -1.313,-0.786 -1.287,-1.838c0.027,-1.052 0.647,-1.937 1.385,-1.975c0.738,-0.037 1.314,0.786 1.287,1.839Z" style="fill:#0c2b34;fill-rule:nonzero;"/><path d="M297.544,117.604c-0.136,0.05 -0.286,0.045 -0.419,-0.026c-2.071,-1.128 -3.822,-0.103 -3.842,-0.092c-0.259,0.153 -0.582,0.066 -0.719,-0.203c-0.136,-0.269 -0.034,-0.614 0.228,-0.771c0.091,-0.055 2.286,-1.343 4.857,0.058c0.256,0.139 0.347,0.478 0.202,0.756c-0.07,0.134 -0.182,0.23 -0.307,0.278Z" style="fill:#0c2b34;fill-rule:nonzero;"/><path d="M282.598,116.804c-0.123,-0.059 -0.222,-0.161 -0.267,-0.296c-0.094,-0.275 0.07,-0.58 0.368,-0.679c2.984,-0.998 5.023,0.458 5.109,0.521c0.242,0.178 0.277,0.51 0.079,0.745c-0.198,0.233 -0.554,0.279 -0.795,0.104c-0.08,-0.058 -1.679,-1.163 -4.051,-0.371c-0.154,0.051 -0.313,0.039 -0.443,-0.024Z" style="fill:#0c2b34;fill-rule:nonzero;"/><path d="M288.922,120.697c0,0 -1.979,4.104 -4.097,6.616c-0.371,0.439 -0.192,1.118 0.336,1.345c1.357,0.584 3.002,0.209 3.002,0.209l0.759,-8.17Z" style="fill:#f68a58;fill-rule:nonzero;"/><path d="M295.887,120.756l-2.595,-0.531c0,0 1.827,1.881 2.595,0.531Z" style="fill:#0c2b34;fill-rule:nonzero;"/><path d="M286.008,121.569c-0.026,1.053 -0.646,1.937 -1.384,1.975c-0.738,0.037 -1.314,-0.785 -1.287,-1.838c0.026,-1.053 0.646,-1.937 1.385,-1.974c0.737,-0.038 1.313,0.784 1.286,1.837Z" style="fill:#0c2b34;fill-rule:nonzero;"/><path d="M285.16,119.829l-2.595,-0.531c0,0 1.827,1.882 2.595,0.531Z" style="fill:#0c2b34;fill-rule:nonzero;"/><path d="M306.254,138.229c10.996,-7.041 12.52,-35.593 -7.069,-37.323c-19.588,-1.729 -21.361,25.13 -21.361,25.13c7.241,-16.35 24.263,-17.153 24.263,-17.153c-3.826,8.656 3.771,14.405 3.771,14.405c2.673,5.961 0.396,14.941 0.396,14.941Z" style="fill:#0c2b34;fill-rule:nonzero;"/><path d="M314.572,128.151c-1.449,2.23 -3.678,3.559 -5.678,3.949c-3.008,0.587 -4.287,-4.269 -3.116,-7.189c1.055,-2.629 4.067,-4.246 6.926,-3.508c2.815,0.727 3.522,4.199 1.868,6.748Z" style="fill:#faaa6a;fill-rule:nonzero;"/><path d="M309.627,129.431c-0.411,0 -0.557,-0.649 -0.11,-0.75c0.653,-0.147 1.29,-0.385 1.826,-0.794c0.349,-0.266 0.64,-0.605 0.844,-0.993c0.092,-0.175 0.142,-0.303 0.196,-0.505c0.053,-0.197 0.066,-0.281 0.074,-0.443l-0.002,-0.24l-0.001,-0.043l-0.016,-0.092c-0.04,-0.186 -0.114,-0.353 -0.228,-0.508c-0.278,-0.383 -0.706,-0.606 -1.156,-0.606c-0.147,0 -0.295,0.024 -0.441,0.073c-0.045,0.015 -0.088,0.022 -0.126,0.022c-0.375,0 -0.498,-0.619 -0.078,-0.761c0.211,-0.071 0.426,-0.104 0.637,-0.104c0.683,0 1.342,0.347 1.766,0.907c0.599,0.792 0.477,1.848 0.036,2.687c-0.62,1.181 -1.866,1.854 -3.126,2.139c-0.033,0.008 -0.065,0.011 -0.095,0.011Z" style="fill:#dd8f50;fill-rule:nonzero;"/><path d="M300.508,123.509c2.025,-0.084 4.04,-0.309 6.065,-0.394c0.294,-0.012 0.296,-0.472 0,-0.459c-2.025,0.084 -4.04,0.309 -6.065,0.394c-0.295,0.012 -0.297,0.472 0,0.459Z" style="fill:#0c2b34;fill-rule:nonzero;"/><path d="M300.301,123.912c-0.302,1.526 -1.871,2.507 -3.26,2.912c-1.88,0.549 -4.08,0.321 -5.754,-0.724c-0.823,-0.513 -2.521,-2.374 -0.882,-3.01c0.66,-0.256 1.434,-0.243 2.129,-0.252c0.593,-0.006 1.184,0 1.776,0.006c0.431,0.005 0.863,0.009 1.294,0.009c1.024,-0.001 2.058,-0.023 3.076,0.094c0.539,0.062 1.727,0.179 1.621,0.965c-0.039,0.289 0.405,0.413 0.443,0.121c0.231,-1.713 -2.508,-1.608 -3.573,-1.631c-1.325,-0.026 -2.65,-0.016 -3.975,-0.023c-0.918,-0.006 -1.931,-0.055 -2.817,0.235c-1.519,0.497 -1.219,2.11 -0.317,3.081c1.474,1.586 3.981,2.077 6.048,1.794c1.881,-0.257 4.227,-1.398 4.634,-3.456c0.058,-0.289 -0.385,-0.412 -0.443,-0.121Z" style="fill:#0c2b34;fill-rule:nonzero;"/><path d="M286.9,123.478c-0.581,1.569 -2.544,2.272 -4.073,2.369c-1.872,0.119 -3.914,-0.482 -5.298,-1.784c-0.698,-0.657 -1.89,-2.627 -0.272,-2.984c0.734,-0.163 1.558,-0.011 2.289,0.102c0.989,0.152 1.976,0.331 2.964,0.488c1.025,0.162 2.067,0.306 3.063,0.6c0.549,0.162 1.555,0.452 1.327,1.209c-0.085,0.284 0.358,0.405 0.443,0.122c0.508,-1.69 -2.507,-2.004 -3.519,-2.179c-1.275,-0.222 -2.553,-0.424 -3.83,-0.631c-0.876,-0.143 -1.824,-0.332 -2.711,-0.182c-1.61,0.272 -1.47,1.996 -0.706,3.066c1.187,1.662 3.365,2.516 5.344,2.634c2.007,0.119 4.651,-0.625 5.422,-2.708c0.103,-0.278 -0.341,-0.398 -0.443,-0.122Z" style="fill:#0c2b34;fill-rule:nonzero;"/><path d="M287.217,123.117c0.293,-0.282 0.713,-0.429 1.12,-0.369c0.391,0.058 0.742,0.297 0.949,0.633c0.155,0.251 0.552,0.02 0.397,-0.233c-0.274,-0.444 -0.739,-0.772 -1.26,-0.848c-0.559,-0.082 -1.124,0.1 -1.532,0.491c-0.214,0.206 0.111,0.53 0.326,0.326Z" style="fill:#0c2b34;fill-rule:nonzero;"/><path d="M294.008,126.541l-0.011,0c-1.501,-0.018 -2.654,-0.684 -3.267,-1.593c-0.439,-0.651 -0.69,-1.11 0.123,-1.53c0.45,-0.232 1.852,-0.284 3.036,-0.284c0.071,0 0.143,0 0.213,0.001c0.126,0.789 0.609,1.356 1.207,1.356c0.017,0 0.032,0 0.048,-0.001c0.054,-0.002 0.106,-0.009 0.159,-0.022c-0.214,0.951 -0.648,2.073 -1.508,2.073Z" style="fill:#fcc290;fill-rule:nonzero;"/><path d="M295.309,124.491c-0.598,0 -1.081,-0.567 -1.207,-1.356c0.859,0.004 1.556,0.032 1.608,0.032c0,0 -0.038,0.605 -0.194,1.301c-0.053,0.013 -0.105,0.02 -0.159,0.022c-0.016,0.001 -0.031,0.001 -0.048,0.001Z" style="fill:#5d6c71;fill-rule:nonzero;"/><path d="M279.146,124.709c-0.186,-0.104 -0.36,-0.22 -0.519,-0.347c0.225,-0.437 0.457,-0.86 0.697,-1.272c-0.07,0.542 -0.129,1.082 -0.178,1.619Zm-1.067,-0.889c-0.129,-0.161 -0.24,-0.329 -0.334,-0.504c-0.369,-0.693 -0.57,-1.174 0.281,-1.509c0.099,-0.039 0.238,-0.066 0.409,-0.082c-0.152,0.785 -0.268,1.491 -0.356,2.095Z" style="fill:#5d6c71;fill-rule:nonzero;"/><path d="M280.942,125.243c-0.036,0 -0.074,-0.002 -0.111,-0.006c-0.642,-0.074 -1.207,-0.261 -1.685,-0.528c0.049,-0.537 0.108,-1.077 0.178,-1.619c0.268,-0.46 0.542,-0.905 0.826,-1.336c1.29,0.096 2.661,0.297 2.733,0.304c0,0 -0.532,3.185 -1.941,3.185Z" style="fill:#fcc290;fill-rule:nonzero;"/><path d="M278.627,124.362c-0.208,-0.165 -0.391,-0.347 -0.548,-0.542c0.088,-0.604 0.204,-1.31 0.356,-2.095c0.159,-0.015 0.346,-0.022 0.551,-0.022c0.35,0 0.753,0.02 1.164,0.051c-0.284,0.431 -0.558,0.876 -0.826,1.336c-0.24,0.412 -0.472,0.835 -0.697,1.272Z" style="fill:#5d6c71;fill-rule:nonzero;"/><path d="M287.503,132.102c0.614,1.084 1.149,2.212 1.602,3.372c0.213,-0.044 0.432,-0.085 0.643,-0.14c2.911,-0.652 4.05,-1.911 4.415,-3.118c0.169,-0.595 0.196,-1.219 0.079,-1.825c-0.058,-0.343 -0.163,-0.676 -0.313,-0.99c-1.337,1.269 -3.996,2.085 -5.439,2.459c-0.629,0.133 -0.987,0.242 -0.987,0.242Z" style="fill:#0c2b34;fill-rule:nonzero;"/><path d="M288.459,131.839l0.501,0.982c2.732,-0.618 4.573,-1.413 5.251,-2.451c-0.058,-0.343 -0.163,-0.677 -0.313,-0.99c-1.346,1.28 -3.995,2.084 -5.439,2.459Z" style="fill:#fff;fill-rule:nonzero;"/><path d="M289.718,135.312c2.909,-0.651 4.049,-1.91 4.415,-3.118c-1.101,0.268 -2.147,0.729 -3.088,1.361c-0.614,0.433 -1.078,1.048 -1.327,1.757Z" style="fill:#ef3b44;fill-rule:nonzero;"/><path d="M317.327,154.168c-0.277,0 -0.543,-0.271 -0.341,-0.553c3.142,-4.358 -3.395,-8.372 -4.927,-11.953c-1.451,-3.395 0.6,-5.931 2.451,-8.62c2.167,-3.148 2.526,-7.108 0.315,-10.368c-0.19,-0.28 -0.395,-0.54 -0.613,-0.785c0.024,-0.325 0.041,-0.648 0.053,-0.974c1.343,1.33 2.311,2.953 2.687,4.978c0.617,3.331 -0.653,5.975 -2.55,8.614c-1.135,1.577 -2.331,3.282 -2.066,5.328c0.302,2.33 2.073,4.081 3.523,5.792c1.929,2.276 3.827,5.547 1.789,8.375c-0.085,0.118 -0.205,0.166 -0.321,0.166Z" style="fill:#011721;fill-rule:nonzero;"/><path d="M314.212,121.889c-2.132,-2.405 -5.486,-3.294 -7.802,-5.52c-2.283,-2.196 -2.837,-5.513 -1.496,-8.361c0.066,-0.139 0.176,-0.197 0.289,-0.197c0.25,0 0.516,0.279 0.373,0.584c-1.101,2.338 -0.743,5.112 0.996,7.045c1.338,1.488 3.213,2.364 4.906,3.368c1.034,0.613 1.978,1.308 2.787,2.107c-0.012,0.326 -0.029,0.649 -0.053,0.974Z" style="fill:#011721;fill-rule:nonzero;"/><path d="M276.099,119.353c-0.102,-0.08 -0.155,-0.212 -0.096,-0.375c0.055,-0.151 0.112,-0.301 0.169,-0.45c-0.012,0.112 -0.023,0.224 -0.032,0.337c-0.015,0.163 -0.028,0.325 -0.041,0.488Z" style="fill:#a8abab;fill-rule:nonzero;"/><path d="M276.365,119.442c-0.097,0 -0.194,-0.032 -0.266,-0.089c0.013,-0.163 0.026,-0.325 0.041,-0.488c0.009,-0.113 0.02,-0.225 0.032,-0.337c1.451,-3.725 3.88,-7.027 7.007,-9.484c-0.429,0.668 -0.825,1.357 -1.189,2.055c-2.323,2.25 -4.131,5.021 -5.249,8.082c-0.066,0.182 -0.221,0.261 -0.376,0.261Z" style="fill:#011721;fill-rule:nonzero;"/><path d="M281.99,111.099c0.364,-0.698 0.76,-1.387 1.189,-2.055c1.047,-0.823 2.173,-1.551 3.366,-2.169c3.093,-1.603 6.529,-2.396 9.971,-2.396c2.665,0 5.335,0.476 7.851,1.418c0.411,0.155 0.293,0.765 -0.069,0.765c-0.041,0 -0.086,-0.008 -0.134,-0.026c-2.461,-0.922 -5.07,-1.391 -7.674,-1.391c-3.299,0 -6.59,0.752 -9.559,2.29c-1.82,0.944 -3.482,2.15 -4.941,3.564Z" style="fill:#011721;fill-rule:nonzero;"/><path d="M223.049,149.77c0.355,0.04 -4.879,-6.414 -3.569,-7.669c0.728,-0.698 0.873,-0.72 3.439,1.911c2.566,2.629 9.714,11.099 10.374,12.819c0.659,1.72 -0.319,6.773 -0.575,8.126c-0.256,1.352 5.862,6.037 5.862,6.037l-7.786,4.025l-9.117,-10.638c0,0 -4.168,-4.757 -4.072,-6.112c0.097,-1.355 1.871,-2.928 1.871,-2.928c0,0 -2.121,-2.037 1.219,-3.306c0,0 -0.831,-2.623 2.354,-2.265Z" style="fill:#faaa6a;fill-rule:nonzero;"/><path d="M232.333,157.334c-0.569,-0.907 -1.231,-1.895 -2.272,-2.299c-1.248,-0.483 -2.498,0.226 -3.484,0.951c-0.521,0.384 -1.015,0.804 -1.475,1.259c-0.419,0.415 -1.009,0.927 -1.23,1.485c-0.414,1.057 1.348,1.333 2.03,1.299c1.151,-0.057 2.232,-0.658 2.836,-1.646c-0.14,-0.018 -0.28,-0.037 -0.42,-0.055c0.248,0.964 0.759,1.82 1.49,2.495c0.218,0.2 0.543,-0.124 0.326,-0.325c-0.677,-0.624 -1.143,-1.4 -1.373,-2.293c-0.051,-0.195 -0.318,-0.219 -0.419,-0.054c-0.567,0.926 -1.63,1.458 -2.709,1.421c-0.265,-0.009 -0.529,-0.055 -0.781,-0.14c-0.11,-0.037 -0.244,-0.079 -0.342,-0.144c-0.341,-0.23 -0.159,-0.509 0.026,-0.737c0.395,-0.489 0.832,-0.943 1.295,-1.365c0.911,-0.827 2.212,-1.96 3.534,-1.846c1.218,0.104 1.982,1.289 2.572,2.226c0.156,0.25 0.554,0.019 0.396,-0.232Z" style="fill:#f68a58;fill-rule:nonzero;"/><path d="M222.852,149.936c0.935,0.717 1.687,1.675 2.3,2.675c0.33,0.539 0.625,1.103 0.865,1.689c0.219,0.533 0.551,1.218 0.314,1.789c-0.114,0.273 0.332,0.392 0.443,0.123c0.248,-0.598 -0.014,-1.263 -0.232,-1.829c-0.255,-0.662 -0.57,-1.301 -0.935,-1.909c-0.666,-1.108 -1.494,-2.146 -2.523,-2.935c-0.235,-0.18 -0.464,0.219 -0.232,0.397Z" style="fill:#f68a58;fill-rule:nonzero;"/><path d="M217.648,158.437c0.852,0.744 1.704,1.486 2.556,2.23c0.643,0.561 1.395,1.453 2.336,1.397c0.84,-0.051 1.225,-0.867 0.995,-1.619c-0.111,-0.361 -0.251,-0.722 -0.493,-1.016c-0.355,-0.432 -0.735,-0.843 -1.086,-1.278c-0.779,-0.961 -1.522,-1.948 -2.35,-2.869c-0.199,-0.219 -0.522,0.107 -0.325,0.326c0.775,0.86 1.477,1.78 2.201,2.683c0.379,0.473 0.783,0.922 1.17,1.387c0.271,0.325 0.514,0.838 0.494,1.268c-0.027,0.584 -0.581,0.773 -1.073,0.588c-0.523,-0.195 -0.947,-0.671 -1.358,-1.03c-0.914,-0.797 -1.828,-1.595 -2.742,-2.392c-0.222,-0.194 -0.549,0.13 -0.325,0.325Z" style="fill:#f68a58;fill-rule:nonzero;"/><path d="M225.123,157.623c-0.582,-1.013 -1.193,-2.012 -1.869,-2.965c-0.662,-0.932 -1.383,-1.852 -2.267,-2.586c-0.225,-0.188 -0.552,0.135 -0.324,0.324c0.876,0.73 1.593,1.641 2.246,2.569c0.656,0.93 1.25,1.903 1.817,2.89c0.147,0.256 0.545,0.026 0.397,-0.232Z" style="fill:#f68a58;fill-rule:nonzero;"/><path d="M274.633,160.075c0,0 -2.905,-1.015 -5.456,1.958c-2.553,2.974 -12.802,22.861 -15.399,23.394c-2.596,0.534 -16.365,-16.059 -20.406,-20.481c0,0 -11.604,5.853 -10.21,8.643c1.393,2.791 24.873,32.564 29.46,34.245c6.818,2.497 21.763,-18.278 21.763,-18.278l0.248,-29.481Z" style="fill:#3073ba;fill-rule:nonzero;"/><path d="M368.879,460.501c-1.338,-1.012 -2.857,-1.764 -4.474,-2.214c0,0 -4.928,-4.521 -7.796,-18.616l-6.236,-1.372c-2.184,-0.443 -4.409,0.53 -5.567,2.432c-0.176,0.254 -0.297,0.539 -0.359,0.842c-0.262,1.505 -0.424,3.026 -0.483,4.553c-0.141,5.203 0.031,10.41 0.515,15.592l1.122,0l0,-9.792c0,-3.337 2.745,0.467 3.602,4.007c0.857,3.54 2.573,7.297 9.869,7.188c8.513,-0.172 12.038,-0.702 9.807,-2.62Z" style="fill:#0c2b34;fill-rule:nonzero;"/><path d="M355.362,434.635c0,0 1.559,6.439 3.96,13.533c1.028,3.669 2.754,7.104 5.083,10.119c0,0 -5.411,1.186 -7.921,-2.401c-2.51,-3.586 -6.236,-15.966 -11.709,-15.092c0.411,-0.944 0.935,-1.834 1.56,-2.651c0.217,-0.332 -1.447,-4.418 -0.559,-4.809c2.661,-1.172 9.586,1.301 9.586,1.301Z" style="fill:#faaa6a;fill-rule:nonzero;"/><path d="M278.154,459.693c1.339,-1.012 2.856,-1.763 4.474,-2.214c0,0 4.927,-4.521 7.796,-18.617l6.236,-1.371c2.183,-0.444 4.409,0.53 5.567,2.432c0.176,0.254 0.298,0.54 0.359,0.842c0.262,1.505 0.424,3.026 0.483,4.553c0.141,5.202 -0.032,10.41 -0.515,15.592l-1.122,0l0,-9.792c0,-3.337 -2.744,0.467 -3.602,4.007c-0.857,3.539 -2.573,7.297 -9.87,7.188c-8.512,-0.172 -12.037,-0.702 -9.806,-2.62Z" style="fill:#0c2b34;fill-rule:nonzero;"/><path d="M291.671,433.826c0,0 -1.559,6.441 -3.96,13.534c-1.028,3.669 -2.754,7.104 -5.083,10.119c0,0 5.411,1.185 7.921,-2.401c2.51,-3.586 6.236,-15.966 11.709,-15.092c-0.411,-0.944 -0.934,-1.834 -1.559,-2.652c-0.874,-1.324 -9.028,-3.508 -9.028,-3.508Z" style="fill:#faaa6a;fill-rule:nonzero;"/><path d="M264.279,281.143c0.015,1.856 1.937,26.749 4.981,40.564c3.045,13.815 15.72,119.704 16.55,119.41c0.831,-0.294 19.552,0 19.552,0c0,0 -6.764,-100.305 -6.211,-119.117c0.554,-18.811 3.321,-46.735 3.321,-45.854c0,0 37.248,161.866 38.583,161.394c1.334,-0.473 21.803,-0.946 21.803,-0.946c0,0 -15.842,-100.655 -18.378,-123.337c-2.536,-22.683 -5.65,-43.004 -5.65,-43.004c0,0 -17.945,-47.988 -19.874,-46.44c-1.929,1.548 -36.897,6.27 -36.897,6.27c0,0 -18.022,20.838 -17.78,51.06Z" style="fill:#0c2b34;fill-rule:nonzero;"/><path d="M310.512,155.268l-3.669,-7.034l-7.607,6.5l-4.82,-5.252l-4.14,5.061c0,0 -7.583,23.518 -7.242,22.619c0.341,-0.898 2.663,20.068 2.663,20.068l2.069,34.665l23.621,-3.133l4.06,-39.819l0,-31.398l-4.935,-2.277Z" style="fill:#fff;fill-rule:nonzero;"/><path d="M299.156,198.952c-0.293,-0.544 -0.588,-1.086 -0.885,-1.626c-0.855,-13.27 -0.675,-26.601 0.52,-39.847c0.151,-0.252 0.302,-0.505 0.453,-0.759c0.104,0.24 0.21,0.479 0.317,0.717c-1.247,13.807 -1.383,27.698 -0.405,41.515Z" style="fill:#a8abab;fill-rule:nonzero;"/><path d="M281.9,281.29l-7.234,0c-4.562,-2.364 -9.925,-5.766 -9.925,-5.766l0.353,-2.945l14.492,7.527c0,0 8.058,-24.474 11.778,-42.542c1.043,-0.059 2.085,-0.119 3.128,-0.18c-0.014,0.059 -8.908,34.762 -12.592,43.906Z" style="fill:#000c19;fill-rule:nonzero;"/><path d="M292.638,151.329l-7.819,5.545l-14.56,4.577c0,0 6.166,50.093 5.119,59.512c-1.047,9.42 -15.938,48.678 -15.938,48.678l20.146,10.465c0,0 14.129,-42.908 13.605,-57.038c-0.523,-14.128 -4.709,-41.338 -4.448,-49.449c0.262,-8.111 3.895,-22.29 3.895,-22.29Z" style="fill:#3073ba;fill-rule:nonzero;"/><path d="M321.135,278.935c-0.7,0 -1.26,-0.129 -1.626,-0.424c-1.161,-0.935 -7.251,-30.371 -9.46,-41.206c3.163,13.935 11.622,38.971 12.309,38.971c0.009,0 0.017,-0.005 0.023,-0.014c0.315,-0.472 8.65,-4.341 15.089,-7.299l0.938,3.312c0,0 -12.251,6.66 -17.273,6.66Z" style="fill:#000c19;fill-rule:nonzero;"/><path d="M307.469,148.581c0,0 4.447,16.745 3.4,29.304c-1.046,12.558 -3.765,42.909 -1.62,55.467c2.143,12.559 12.609,43.694 13.132,42.91c0.524,-0.786 23.287,-10.989 22.501,-10.728c-0.784,0.262 -13.343,-30.612 -15.436,-46.31c-2.093,-15.699 -4.428,-7.85 -3.26,-26.687c1.167,-18.839 4.306,-34.798 4.306,-34.798l-16.483,-3.925l-6.54,-5.233Z" style="fill:#3073ba;fill-rule:nonzero;"/><path d="M308.943,204.067c0.357,-13.109 1.269,-18.288 1.926,-26.182c0.023,-0.272 0.043,-0.548 0.061,-0.824c-0.018,0.277 -0.038,0.551 -0.061,0.824c-0.498,5.976 -1.374,15.983 -1.926,26.182Z" style="fill:#909394;fill-rule:nonzero;"/><path d="M307.871,150.205c-0.247,-1.037 -0.402,-1.624 -0.402,-1.624c0.002,0.01 0.157,0.595 0.402,1.624Z" style="fill:#000c19;fill-rule:nonzero;"/><path d="M309.668,159.159c-0.024,-0.146 -0.049,-0.291 -0.072,-0.435c0.023,0.144 0.048,0.289 0.072,0.435Zm-0.168,-0.994c-0.596,-3.44 -1.231,-6.286 -1.629,-7.96c0.398,1.674 1.033,4.52 1.629,7.96Z" style="fill:#909394;fill-rule:nonzero;"/><path d="M308.943,204.081l0,-0.014c0.552,-10.199 1.428,-20.206 1.926,-26.182c0.023,-0.273 0.043,-0.547 0.061,-0.824c0.375,-5.857 -0.369,-12.503 -1.262,-17.902c-0.024,-0.146 -0.049,-0.291 -0.072,-0.435c0.012,-0.018 0.024,-0.037 0.037,-0.055c0.143,-0.208 0.04,-0.41 -0.133,-0.504c-0.596,-3.44 -1.231,-6.286 -1.629,-7.96c-0.245,-1.029 -0.4,-1.614 -0.402,-1.624l6.54,5.233c0,0 4.569,7.193 4.023,7.556c-0.069,0.046 -0.182,0.067 -0.33,0.067c-1.032,0 -3.693,-0.977 -3.693,-0.977c0,0 3.204,1.457 4.068,4.734c0.865,3.277 -2.814,26.582 -9.134,38.887Z" style="fill:#0056a7;fill-rule:nonzero;"/><path d="M278.408,250.653l-10.325,-4.767l2.169,-6.293l10.435,4.026l-2.279,7.034Z" style="fill:#0056a7;fill-rule:nonzero;"/><path d="M334.94,240.533c-0.697,-2.114 -1.371,-4.248 -1.997,-6.354l0.012,-0.005l1.985,6.359Z" style="fill:#909394;fill-rule:nonzero;"/><path d="M324.764,245.123l-2.279,-7.034l10.458,-3.91c0.626,2.106 1.3,4.24 1.997,6.354l0.001,0.002l-10.177,4.588Z" style="fill:#0056a7;fill-rule:nonzero;"/><path d="M285.17,156.624l0.004,-0.005l7.463,-5.29l-7.467,5.295Z" style="fill:#000c19;fill-rule:nonzero;"/><path d="M286.709,195.459c-4.961,-11.425 -7.262,-25.916 -6.967,-28.281c0.382,-3.053 5.225,-5.344 5.225,-5.344l-2.355,0l2.355,-4.96l0.203,-0.25l7.468,-5.295c-0.012,0.043 -3.633,14.191 -3.895,22.29c-0.125,3.895 0.775,12.193 1.802,21.333l-3.836,0.507Z" style="fill:#0056a7;fill-rule:nonzero;"/><path d="M273.569,191.209c-0.083,-0.061 -0.142,-0.156 -0.149,-0.287c-0.001,-0.02 -0.003,-0.042 -0.004,-0.062c0.036,-0.047 0.07,-0.092 0.104,-0.138c0.016,0.164 0.033,0.324 0.049,0.487Z" style="fill:#a8abab;fill-rule:nonzero;"/><path d="M273.416,190.86c-0.047,-0.871 -0.096,-1.744 -0.147,-2.619c0.085,0.824 0.168,1.654 0.251,2.481c-0.034,0.046 -0.068,0.091 -0.104,0.138Z" style="fill:#0d60ae;fill-rule:nonzero;"/><path d="M273.823,191.291c-0.089,0 -0.18,-0.027 -0.254,-0.082c-0.016,-0.163 -0.033,-0.323 -0.049,-0.487c-0.083,-0.827 -0.166,-1.657 -0.251,-2.481c-0.313,-5.372 -0.719,-10.781 -1.64,-16.07c-0.051,-0.291 0.196,-0.481 0.418,-0.481c0.149,0 0.286,0.084 0.32,0.277c1.087,6.238 1.473,12.639 1.819,18.955c0.013,0.246 -0.171,0.369 -0.363,0.369Z" style="fill:#0d60ae;fill-rule:nonzero;"/><path d="M296.519,194.162c3.654,6.567 7.333,13.195 9.52,20.385c2.185,7.189 2.791,15.081 0.269,22.159c-10.753,0.617 -21.505,1.235 -32.257,1.853c1.626,-7.834 4.197,-17.346 1.895,-23.922c0,0 -7.863,-11.779 -16.506,-15.57l37.079,-4.905Z" style="fill:#3073ba;fill-rule:nonzero;"/><path d="M274.051,238.559c1.162,-5.6 2.808,-12.057 2.81,-17.687c0.001,-2.245 -0.26,-4.359 -0.915,-6.235c0,0 -5.296,-7.933 -11.973,-12.874c-1.459,-1.079 -2.983,-2.016 -4.533,-2.696l37.079,-4.905c1.771,3.184 3.55,6.384 5.161,9.655c-1.212,-0.556 -2.343,-0.97 -3.302,-1.154c-0.455,-0.087 -0.918,-0.126 -1.373,-0.126c-2.874,0 -5.464,1.551 -3.926,2.394c1.27,0.697 2.761,0.265 3.909,0.559c2.873,0.737 4.603,1.35 4.603,1.35c-0.84,-0.089 -1.673,-0.128 -2.482,-0.128c-4.616,0 -8.434,1.284 -8.232,2.021c0.336,1.22 0.819,1.872 0.819,1.872c0,0 -0.867,0.044 -0.115,2.273c0.229,0.684 1.597,0.881 3.092,0.881c2.025,0 4.286,-0.36 4.286,-0.36c0,0 -6.176,1.797 -5.55,3.507c0.166,0.455 0.674,0.623 1.387,0.623c1.958,0 5.471,-1.265 7.745,-1.278l0.005,0c0.997,0 2.487,1.817 4.564,2.494c0.538,2.616 0.843,5.283 0.844,7.935c0.002,3.416 -0.499,6.805 -1.646,10.026c-10.753,0.617 -21.505,1.235 -32.257,1.853Z" style="fill:#caddf2;fill-rule:nonzero;"/><path d="M330.959,226.912c-0.174,-0.718 -0.34,-1.423 -0.493,-2.115l0.493,2.115Z" style="fill:#a8abab;fill-rule:nonzero;"/><path d="M315.606,231.744c-0.543,0 -0.907,-0.107 -1.024,-0.354c-0.907,-1.905 -2.63,-11.972 -2.747,-12.176l0.003,0c0.616,0.09 1.233,0.235 1.824,0.475l0.706,3.565c0.278,3.3 0.668,6.155 1.079,6.874c0.048,0.083 0.154,0.132 0.315,0.147l0.005,0.023c0.02,-0.006 0.04,-0.011 0.061,-0.018c0.021,0.001 0.044,0.001 0.067,0.001c0.815,0 2.621,-0.592 4.972,-1.558c3.265,-1.13 6.3,-2.476 9.487,-4.408l0.112,0.482c0.153,0.692 0.319,1.397 0.493,2.115l0.001,0.002c0,0 -11.713,4.83 -15.354,4.83Z" style="fill:#0d60ae;fill-rule:nonzero;"/><path d="M314.121,219.898c-1.959,-0.999 -4.311,-0.76 -5.955,-0.926c-2.641,-0.268 -4.466,-2.728 -5.625,-2.721c-3.103,0.018 -8.506,2.364 -9.132,0.655c-0.626,-1.71 5.55,-3.507 5.55,-3.507c0,0 -6.836,1.089 -7.378,-0.521c-0.752,-2.229 0.115,-2.273 0.115,-2.273c0,0 -0.483,-0.652 -0.819,-1.872c-0.238,-0.867 5.077,-2.487 10.714,-1.893c0,0 -1.73,-0.613 -4.603,-1.35c-1.148,-0.294 -2.639,0.138 -3.909,-0.559c-1.782,-0.977 1.977,-2.903 5.299,-2.268c3.321,0.636 8.68,4.031 12.437,6.502c0.412,0.271 0.898,0.615 1.422,0.999l4.637,2.985l-2.753,6.749Z" style="fill:#faaa6a;fill-rule:nonzero;"/><path d="M291.804,211.08c1.798,-0.551 3.624,-1.097 5.517,-1.156c2.224,-0.07 4.389,0.525 6.464,1.272c0.279,0.1 0.399,-0.344 0.122,-0.444c-2.113,-0.759 -4.323,-1.359 -6.586,-1.287c-1.935,0.06 -3.801,0.608 -5.639,1.172c-0.282,0.087 -0.162,0.53 0.122,0.443Z" style="fill:#f68a58;fill-rule:nonzero;"/><path d="M298.754,213.705c0.866,-0.033 1.738,-0.097 2.604,-0.075c0.817,0.022 1.667,0.175 2.316,0.706c0.226,0.186 0.554,-0.138 0.324,-0.325c-0.67,-0.548 -1.494,-0.773 -2.347,-0.827c-0.96,-0.062 -1.937,0.026 -2.897,0.061c-0.295,0.012 -0.296,0.471 0,0.46Z" style="fill:#f68a58;fill-rule:nonzero;"/><path d="M330.492,157.789c0,0 3.478,-1.545 4.449,4.649c1.277,8.144 14.394,47.505 11.988,51.437c-2.407,3.933 -30.468,18.027 -31.482,16.253c-1.013,-1.774 -1.905,-16.561 -1.269,-18.908l17.352,-7.428l-5.344,-19.886l1.411,-20.709l2.895,-5.408Z" style="fill:#3073ba;fill-rule:nonzero;"/><path d="M326.651,187.072c-0.023,0 -0.046,-0.001 -0.068,-0.005c0.036,-0.427 0.071,-0.854 0.109,-1.277l0.298,1.112c-0.076,0.114 -0.209,0.17 -0.339,0.17Z" style="fill:#a8abab;fill-rule:nonzero;"/><path d="M326.583,187.067c-0.164,-0.026 -0.305,-0.147 -0.294,-0.364c0.036,-0.65 0.077,-1.301 0.123,-1.951l0.28,1.038c-0.038,0.423 -0.073,0.85 -0.109,1.277Z" style="fill:#0d60ae;fill-rule:nonzero;"/><path d="M326.99,186.902l-0.298,-1.112l-0.28,-1.038c0.496,-6.89 1.605,-13.721 3.319,-20.417c0.049,-0.19 0.195,-0.273 0.346,-0.273c0.228,0 0.467,0.189 0.393,0.476c-1.86,7.263 -3.004,14.68 -3.415,22.165c-0.004,0.08 -0.028,0.146 -0.065,0.199Z" style="fill:#0d60ae;fill-rule:nonzero;"/><path d="M331.256,204.256c2.009,0.475 3.872,1.447 5.4,2.838c0.363,0.331 0.907,-0.209 0.541,-0.541c-1.623,-1.478 -3.6,-2.531 -5.737,-3.036c-0.479,-0.114 -0.684,0.625 -0.204,0.739Z" style="fill:#0c2b34;fill-rule:nonzero;"/><path d="M326.323,206.021c-0.136,-0.612 -0.246,-1.297 -0.322,-2.135l0.324,2.134l-0.002,0.001Z" style="fill:#a8abab;fill-rule:nonzero;"/><path d="M314.178,211.22c0,0 -1.053,-0.636 -1.692,-0.998l0.005,0c2.086,0 13.459,-6.307 13.51,-6.336c0.076,0.838 0.186,1.523 0.322,2.135l-12.145,5.199Zm-1.692,-0.998c-0.1,-0.001 -0.179,-0.016 -0.233,-0.048l-0.016,-0.01c-0.043,-0.031 -0.085,-0.062 -0.128,-0.093c-0.085,-0.065 -0.114,-0.094 -0.098,-0.094c0.031,0 0.221,0.101 0.475,0.245Z" style="fill:#0d60ae;fill-rule:nonzero;"/><path d="M312.253,210.174c-0.005,-0.003 -0.01,-0.006 -0.016,-0.01c-0.051,-0.037 -0.094,-0.067 -0.128,-0.093c0.043,0.031 0.085,0.062 0.128,0.093l0.016,0.01Z" style="fill:#be7d46;fill-rule:nonzero;"/><path d="M303.804,163.411c-0.165,0 -0.331,-0.021 -0.496,-0.068c-1.225,-0.342 -1.781,-1.841 -2.296,-2.857c-0.508,-1.005 -0.992,-2.021 -1.451,-3.049c0.02,-0.231 0.042,-0.462 0.063,-0.695c0.016,-0.176 -0.071,-0.288 -0.193,-0.337c0.065,-0.111 0.131,-0.222 0.196,-0.332c0.061,-0.105 0.068,-0.207 0.039,-0.296c0.535,1.257 1.104,2.5 1.709,3.725c0.292,0.591 0.589,1.181 0.901,1.761c0.238,0.442 0.513,0.952 0.958,1.217c0.185,0.111 0.374,0.157 0.561,0.157c0.451,0 0.898,-0.262 1.282,-0.511c0.511,-0.333 0.998,-0.705 1.458,-1.105c0.927,-0.806 1.743,-1.726 2.437,-2.739c0.083,-0.122 0.201,-0.172 0.318,-0.172c0.073,0 0.147,0.02 0.21,0.055c0.032,0.184 0.063,0.37 0.096,0.559c-0.802,1.16 -1.747,2.214 -2.839,3.109c-0.786,0.643 -1.854,1.578 -2.953,1.578Z" style="fill:#a8abab;fill-rule:nonzero;"/><path d="M299.561,157.437c-0.107,-0.238 -0.213,-0.477 -0.317,-0.717c0.063,-0.105 0.125,-0.21 0.187,-0.315c0.122,0.049 0.209,0.161 0.193,0.337c-0.021,0.233 -0.043,0.464 -0.063,0.695Z" style="fill:#727678;fill-rule:nonzero;"/><path d="M309.596,158.724c-0.033,-0.189 -0.064,-0.375 -0.096,-0.559c0.032,0.184 0.063,0.37 0.096,0.559Z" style="fill:#626668;fill-rule:nonzero;"/><path d="M309.596,158.724c-0.033,-0.189 -0.064,-0.375 -0.096,-0.559c0.173,0.094 0.276,0.296 0.133,0.504c-0.013,0.018 -0.025,0.037 -0.037,0.055Z" style="fill:#1a3d6b;fill-rule:nonzero;"/><path d="M299.643,155.723c-0.07,-0.132 -0.22,-0.222 -0.369,-0.222c-0.013,0 -0.026,0.001 -0.038,0.002c0.037,-0.011 0.075,-0.018 0.111,-0.018c0.113,0 0.219,0.059 0.28,0.201c0.005,0.012 0.01,0.024 0.016,0.037Z" style="fill:#a8abab;fill-rule:nonzero;"/><path d="M294.285,163.027c-1.407,0 -2.743,-1.936 -3.465,-3.02c-0.192,-0.288 0.073,-0.561 0.344,-0.561c0.117,0 0.235,0.051 0.316,0.174c0.512,0.768 1.074,1.488 1.754,2.113c0.304,0.28 0.652,0.539 1.025,0.539c0.164,0 0.332,-0.049 0.504,-0.167c0.394,-0.271 0.665,-0.71 0.929,-1.1c0.474,-0.7 0.919,-1.42 1.362,-2.139c0.648,-1.054 1.285,-2.114 1.911,-3.18c0.069,-0.117 0.168,-0.172 0.271,-0.183c-0.205,0.068 -0.382,0.309 -0.271,0.57c0.047,0.111 0.095,0.223 0.143,0.335c-0.128,0.05 -0.233,0.162 -0.25,0.334c-0.022,0.246 -0.045,0.491 -0.067,0.737c-0.02,0.033 -0.04,0.067 -0.059,0.1c-0.514,0.854 -1.031,1.707 -1.562,2.551c-0.488,0.776 -0.969,1.658 -1.623,2.31c-0.418,0.415 -0.842,0.587 -1.262,0.587Z" style="fill:#a8abab;fill-rule:nonzero;"/><path d="M298.791,157.479c0.022,-0.246 0.045,-0.491 0.067,-0.737c0.017,-0.172 0.122,-0.284 0.25,-0.334c0.045,0.104 0.09,0.208 0.136,0.312c-0.151,0.254 -0.302,0.507 -0.453,0.759Z" style="fill:#727678;fill-rule:nonzero;"/><path d="M299.666,155.777c-0.008,-0.018 -0.016,-0.036 -0.023,-0.054c0.009,0.017 0.017,0.035 0.023,0.054Z" style="fill:#a8abab;fill-rule:nonzero;"/><path d="M299.108,156.408c-0.048,-0.112 -0.096,-0.224 -0.143,-0.335c-0.111,-0.261 0.066,-0.502 0.271,-0.57c0.012,-0.001 0.025,-0.002 0.038,-0.002c0.149,0 0.299,0.09 0.369,0.222c0.007,0.018 0.015,0.036 0.023,0.054c0.029,0.089 0.022,0.191 -0.039,0.296c-0.065,0.11 -0.131,0.221 -0.196,0.332c-0.048,-0.02 -0.101,-0.03 -0.154,-0.03c-0.057,0 -0.114,0.011 -0.169,0.033Z" style="fill:#727678;fill-rule:nonzero;"/><path d="M408.79,231.392c-1.339,-1.906 -3.334,-3.476 -5.646,-3.761c-0.543,-0.066 -1.204,-0.002 -1.464,0.479c-0.151,0.278 -0.117,0.616 -0.08,0.93c0.371,3.101 0.742,6.203 1.112,9.306l8.958,-0.616c-0.763,-2.2 -1.542,-4.433 -2.88,-6.338Z" style="fill:#3073ba;fill-rule:nonzero;"/><path d="M402.712,238.346c-0.37,-3.103 -0.741,-6.205 -1.112,-9.306c-0.016,-0.137 -0.032,-0.279 -0.032,-0.419c0.001,-0.18 0.027,-0.355 0.112,-0.511c0.206,-0.381 0.665,-0.5 1.115,-0.5c0.119,0 0.236,0.008 0.349,0.021c2.312,0.285 4.307,1.855 5.646,3.761c1.338,1.905 2.117,4.138 2.88,6.338l-8.958,0.616Z" style="fill:#6698d0;fill-rule:nonzero;"/><path d="M400.494,246.6c0.064,0.476 0.092,0.956 0.082,1.438c-0.005,0.234 -0.019,0.47 -0.043,0.704l-0.018,0.169c-0.015,0.127 0.007,-0.037 -0.011,0.078c-0.019,0.131 -0.04,0.261 -0.065,0.39c-0.052,0.282 0.078,0.606 0.384,0.676c0.269,0.061 0.619,-0.082 0.675,-0.383c0.188,-1.016 0.23,-2.048 0.094,-3.072c-0.02,-0.152 -0.048,-0.275 -0.161,-0.389c-0.095,-0.095 -0.251,-0.166 -0.388,-0.16c-0.265,0.012 -0.59,0.244 -0.549,0.549Z" style="fill:#0c2b34;fill-rule:nonzero;"/><path d="M386.747,249.1c1.97,3.847 2.489,8.323 1.462,12.52c-0.168,0.686 0.89,0.979 1.058,0.292c1.099,-4.493 0.534,-9.251 -1.572,-13.366c-0.322,-0.629 -1.27,-0.074 -0.948,0.554Z" style="fill:#0c2b34;fill-rule:nonzero;"/><rect x="209.031" y="293.697" width="5.899" height="166.513" style="fill:#0c2b34;fill-rule:nonzero;"/><path d="M214.93,460.21l-5.899,0l0,-31.148l0.158,-0.069c0,0 -0.054,-0.215 -0.158,-0.622l0,-131.727l0,9.854l5.899,-2.671l0,156.383Z" style="fill:#5d6c71;fill-rule:nonzero;"/><path d="M209.031,306.498l0,-9.854l5.899,0l0,7.183l-5.899,2.671Z" style="fill:#485559;fill-rule:nonzero;"/><rect x="161.532" y="293.697" width="5.9" height="166.513" style="fill:#0c2b34;fill-rule:nonzero;"/><path d="M167.432,460.21l-5.9,0l0,-70.453c1.309,-6.086 2.524,-11.929 3.551,-17.166c0.008,0.001 0.016,0.001 0.024,0.001c0.141,0 0.279,-0.07 0.338,-0.233c0.124,0.283 0.251,0.569 0.379,0.856c0.509,1.147 1.048,2.358 1.608,3.624l0,83.371Zm0,-143.671c-1.848,-0.931 -3.83,-1.609 -5.9,-2.003l0,-17.892l0,10.563l5.9,-2.67l0,12.002Z" style="fill:#5d6c71;fill-rule:nonzero;"/><path d="M161.532,307.207l0,-10.563l5.9,0l0,7.893l-5.9,2.67Z" style="fill:#485559;fill-rule:nonzero;"/><rect x="390.159" y="292.298" width="5.899" height="167.912" style="fill:#0c2b34;fill-rule:nonzero;"/><path d="M396.058,460.21l-5.899,0l0,-163.566l1.213,0l-1.213,0.186l0,10.625l5.899,-2.671l0,155.426Z" style="fill:#5d6c71;fill-rule:nonzero;"/><path d="M390.159,307.455l0,-10.625l1.213,-0.186l4.686,0l0,8.14l-5.899,2.671Z" style="fill:#485559;fill-rule:nonzero;"/><rect x="451.485" y="292.298" width="5.9" height="167.912" style="fill:#0c2b34;fill-rule:nonzero;"/><path d="M457.385,460.21l-5.9,0l0,-163.566l1.213,0l-1.213,0.186l0,10.625l5.9,-2.671l0,155.426Z" style="fill:#5d6c71;fill-rule:nonzero;"/><path d="M451.485,307.455l0,-10.625l1.213,-0.186l4.687,0l0,8.14l-5.9,2.671Z" style="fill:#485559;fill-rule:nonzero;"/><rect x="132.239" y="281.29" width="334.141" height="15.354" style="fill:#c87865;fill-rule:nonzero;"/><path d="M466.38,296.644l-68.577,0l0,-15.354l68.577,0l0,15.354Z" style="fill:#875246;fill-rule:nonzero;"/><path d="M242.582,257.111c0.23,2.895 -1.611,5.247 -4.117,5.247l-79.432,0c-2.519,0 -4.745,-2.352 -4.974,-5.247l-4.719,-58.458c-0.051,-0.602 -0.012,-1.175 0.102,-1.704c0.448,-2.058 2.02,-3.543 4.016,-3.543l79.431,0c2.52,0 4.744,2.352 4.975,5.247l4.718,58.458Z" style="fill:#0c2b34;fill-rule:nonzero;"/><path d="M238.465,262.358l-0.281,0c0.081,-0.377 0.124,-0.775 0.124,-1.191c0,-0.168 -0.008,-0.34 -0.022,-0.515l-4.718,-58.456c-0.244,-2.896 -2.469,-5.247 -4.974,-5.247l-79.152,0c-0.081,0.376 -0.124,0.774 -0.124,1.19c0,-0.416 0.043,-0.814 0.124,-1.19c0.448,-2.058 2.02,-3.543 4.016,-3.543l79.431,0c2.52,0 4.744,2.352 4.975,5.247l4.718,58.458c0.013,0.163 0.02,0.325 0.02,0.486c0,2.667 -1.773,4.761 -4.137,4.761Z" style="fill:#b2bbbe;fill-rule:nonzero;"/><path d="M238.184,262.358l-79.151,0c-2.519,0 -4.745,-2.352 -4.974,-5.247l-4.719,-58.458c-0.051,-0.602 -0.012,-1.175 0.102,-1.704l79.152,0c2.505,0 4.73,2.351 4.974,5.247l4.718,58.456c0.051,0.603 0.012,1.177 -0.102,1.706Z" style="fill:#0c2b34;fill-rule:nonzero;"/><path d="M238.184,262.358l-33.762,0c0,0 -3.582,-13.132 -3.536,-13.562l-15.966,-0.07l-4.126,13.632l-21.761,0c-2.519,0 -4.745,-2.352 -4.974,-5.247l-4.719,-58.458c-0.014,-0.173 -0.022,-0.346 -0.022,-0.514c0,-0.416 0.043,-0.814 0.124,-1.19l79.152,0c2.505,0 4.73,2.351 4.974,5.247l4.718,58.456c0.014,0.175 0.022,0.347 0.022,0.515c0,0.416 -0.043,0.814 -0.124,1.191Z" style="fill:#879397;fill-rule:nonzero;"/><path d="M184.92,248.726l15.966,0.07l-3.09,28.763l15.685,0.244l0,3.386l-42.244,0.101l0,-3.341l10.181,-0.195l3.502,-29.028Z" style="fill:#0c2b34;fill-rule:nonzero;"/><path d="M204.422,262.358l-4.992,0l1.456,-13.562c-0.046,0.43 3.536,13.562 3.536,13.562Z" style="fill:#5e6769;fill-rule:nonzero;"/><path d="M183.275,262.358l-2.481,0l4.126,-13.632l-1.645,13.632Z" style="fill:#5e6769;fill-rule:nonzero;"/><path d="M171.237,281.29l0,-3.341l10.181,-0.195l1.857,-15.396l1.645,-13.632l15.966,0.07l-1.457,13.562l0.001,0l-1.634,15.201l15.685,0.244l0,3.386l-42.244,0.101Z" style="fill:#9da7aa;fill-rule:nonzero;"/><path d="M199.43,262.358l-0.001,0l1.457,-13.562l-1.456,13.562Z" style="fill:#98a0a3;fill-rule:nonzero;"/><path d="M183.275,262.358l1.645,-13.632l-1.645,13.632Z" style="fill:#98a0a3;fill-rule:nonzero;"/><path d="M56.996,366.064l-13.786,110.476l4.349,0l20.195,-110.476l-10.758,0Z" style="fill:#c87865;fill-rule:nonzero;"/><path d="M142.197,365.297l13.99,111.103l-4.412,0l-20.497,-111.103l10.919,0Z" style="fill:#c87865;fill-rule:nonzero;"/><path d="M112.735,366.985l-50.091,0c-9.562,0 -17.368,-7.581 -17.564,-17.056l-1.866,-75.451c-0.146,-7.105 5.624,-12.941 12.793,-12.941l31.401,0c6.505,0 11.976,4.839 12.712,11.245l12.615,94.203Z" style="fill:#3073ba;fill-rule:nonzero;"/><path d="M140.354,355.314l-61.137,0l0,11.671l65.853,0c1.494,0 2.707,-1.211 2.707,-2.706l0,-1.542c0,-4.1 -3.324,-7.423 -7.423,-7.423Z" style="fill:#3073ba;fill-rule:nonzero;"/><path d="M67.585,366.985l-4.941,0c-1.975,0 -3.874,-0.322 -5.648,-0.92l0,-0.001c1.774,0.599 3.673,0.921 5.648,0.921l4.941,0Z" style="fill:#875246;fill-rule:nonzero;"/><path d="M79.217,366.985l-16.573,0c-1.975,0 -3.874,-0.322 -5.648,-0.92c-6.814,-2.292 -11.76,-8.617 -11.916,-16.136l-1.866,-75.451c-0.002,-0.09 -0.004,-0.18 -0.004,-0.27c0.005,-6.982 5.719,-12.671 12.797,-12.671l5.796,0c-1.956,11.531 -5.642,29.799 -5.643,38.378c0,1.686 0.142,2.997 0.468,3.81c0.702,1.748 6.536,4.555 13.893,7.34l-13.983,39.175l13.142,1.374c0.374,0.476 0.776,0.935 1.207,1.373l0.014,0.013c0.277,0.283 0.576,0.548 0.884,0.804l0.094,0.073c0.293,0.239 0.6,0.464 0.919,0.678l0.078,0.05c0.184,0.122 0.37,0.24 0.562,0.354l-4.805,0c-0.493,0 -0.494,0.766 0,0.766l6.271,0c0.473,0.217 0.965,0.416 1.478,0.595c0.891,0.319 1.838,0.586 2.835,0.806l0,9.859Z" style="fill:#0d60ae;fill-rule:nonzero;"/><path d="M134.669,366.985l-55.452,0l0,-9.859c2.458,0.541 5.216,0.789 8.181,0.789c4.021,0 8.422,-0.456 12.975,-1.257c4.232,-0.162 13.045,-0.526 31.293,-1.344l6.292,0c-0.406,1.042 -1.825,4.906 -3.289,11.671Z" style="fill:#0d60ae;fill-rule:nonzero;"/><path d="M112.822,354.959l-44.189,0c-0.493,0 -0.494,0.766 0,0.766l44.189,0c0.493,0 0.494,-0.766 0,-0.766Z" style="fill-rule:nonzero;"/><path d="M73.6,252.285c-0.096,-0.202 -1.216,-23.384 -0.698,-37.318c0.34,-9.151 1.894,-20.669 6.934,-24.563c16.726,-12.922 26.473,-5.267 29.044,-2.449c1.819,1.995 5.259,7.062 6.152,11.328c4.434,21.158 -1.563,44.595 -2.844,48.536c-1.418,4.361 -38.505,4.561 -38.588,4.466Z" style="fill:#0c2b34;fill-rule:nonzero;"/><path d="M129.671,465.268l12.066,1.171l5.586,-30.644l-17.142,-1.849l-0.51,31.322Z" style="fill:#f8afaf;fill-rule:nonzero;"/><path d="M143.484,461.157l-4.308,0c-0.974,0 -1.876,0.489 -2.452,1.268c-2.483,3.363 -4.35,2.092 -7.053,-1.07c-1.717,-0.198 -2.18,1.756 -2.32,2.282l-3.22,11.612c-0.28,0.97 0.286,1.981 1.264,2.258c0.174,0.05 0.355,0.073 0.535,0.07l34.131,0c5.428,0 6.552,-5.423 4.317,-5.924c-10.055,-2.203 -17.175,-5.136 -20.283,-8.036c-0.576,-0.508 0.016,-0.887 -0.611,-2.46Z" style="fill:#0c2b34;fill-rule:nonzero;"/><path d="M152.875,462.716c0.109,0.068 0.165,0.195 0.14,0.321c-0.023,0.399 -0.217,0.77 -0.534,1.017c-1.224,0.907 -4.176,0.516 -5.766,0.224c2.236,-0.976 5.414,-2.077 6.16,-1.562Zm-0.043,1.743c0.453,-0.323 0.725,-0.841 0.731,-1.394c0.039,-0.298 -0.098,-0.59 -0.351,-0.753c-1.35,-0.948 -6.736,1.547 -7.341,1.84l-0.144,0.143c-0.044,0.123 0.02,0.259 0.144,0.304c1.324,0.31 2.677,0.483 4.036,0.515c1.02,0.096 2.046,-0.133 2.925,-0.655Z" style="fill:#3073ba;fill-rule:nonzero;"/><path d="M149.809,459.649c0.548,0.056 0.548,0.251 0.548,0.321c0.155,0.85 -2.306,3.038 -4.064,3.959c0.365,-1.227 1.449,-4.294 3.319,-4.294l0.197,0.014Zm-3.755,5.005c1.617,-0.669 5.006,-3.304 4.823,-4.698c-0.027,-0.293 -0.239,-0.641 -0.97,-0.739c-2.952,-0.335 -4.219,4.921 -4.219,5.145l0.071,0.25l0.168,0l0.127,0.042Z" style="fill:#3073ba;fill-rule:nonzero;"/><path d="M146.373,464.083c-1.584,0.224 -3.024,1.17 -3.887,2.512c-0.267,0.416 0.396,0.8 0.661,0.386c0.764,-1.186 2.039,-1.963 3.43,-2.16c0.205,-0.028 0.317,-0.29 0.267,-0.471c-0.06,-0.22 -0.265,-0.296 -0.471,-0.267Z" style="fill:#3073ba;fill-rule:nonzero;"/><path d="M149.05,466.081c-1.584,0.223 -3.024,1.17 -3.887,2.512c-0.267,0.416 0.395,0.801 0.662,0.387c0.763,-1.188 2.038,-1.964 3.429,-2.16c0.206,-0.03 0.317,-0.29 0.268,-0.472c-0.061,-0.221 -0.266,-0.296 -0.472,-0.267Z" style="fill:#3073ba;fill-rule:nonzero;"/><path d="M152.382,467.761c-1.584,0.223 -3.024,1.17 -3.887,2.512c-0.268,0.416 0.395,0.8 0.66,0.386c0.764,-1.187 2.039,-1.963 3.43,-2.159c0.205,-0.03 0.317,-0.291 0.267,-0.472c-0.06,-0.221 -0.265,-0.296 -0.47,-0.267Z" style="fill:#3073ba;fill-rule:nonzero;"/><path d="M199.826,445.71l11.257,-4.498l-9.102,-29.789l-16.078,6.225l13.923,28.062Z" style="fill:#f8afaf;fill-rule:nonzero;"/><path d="M210.212,435.718l-3.827,1.977c-0.867,0.447 -1.443,1.296 -1.597,2.253c-0.663,4.128 -2.906,3.855 -6.757,2.287c-1.618,0.611 -1.132,2.56 -1.015,3.091l2.469,11.796c0.197,0.989 1.163,1.628 2.16,1.426c0.178,-0.037 0.349,-0.099 0.508,-0.184c4.648,-2.401 6.847,-3.538 12.631,-6.526l17.691,-9.14c4.823,-2.492 3.333,-7.826 1.116,-7.246c-9.943,2.659 -17.615,3.32 -21.707,2.171c-0.746,-0.186 -0.394,-0.795 -1.672,-1.905Z" style="fill:#0c2b34;fill-rule:nonzero;"/><path d="M219.27,432.793c0.128,0.01 0.236,0.098 0.272,0.22c0.164,0.366 0.161,0.785 -0.008,1.15c-0.671,1.367 -3.473,2.376 -5.02,2.845c1.539,-1.894 3.857,-4.331 4.756,-4.215Zm0.762,1.567c0.255,-0.494 0.258,-1.079 0.01,-1.573c-0.102,-0.282 -0.358,-0.479 -0.658,-0.508c-1.634,-0.223 -5.274,4.467 -5.677,5.004l-0.063,0.193c0.018,0.13 0.137,0.222 0.268,0.204c1.318,-0.331 2.599,-0.799 3.823,-1.394c0.95,-0.383 1.755,-1.057 2.297,-1.926Z" style="fill:#3073ba;fill-rule:nonzero;"/><path d="M215.138,431.475c0.513,-0.202 0.603,-0.028 0.635,0.034c0.528,0.684 -0.654,3.758 -1.794,5.383c-0.238,-1.258 -0.684,-4.48 0.979,-5.338l0.18,-0.079Zm-1.038,6.171c1.129,-1.337 2.931,-5.234 2.129,-6.388c-0.16,-0.247 -0.506,-0.461 -1.201,-0.212c-2.778,1.058 -1.49,6.309 -1.387,6.507c0.015,0.094 0.085,0.169 0.177,0.191l0.15,-0.078l0.132,-0.02Z" style="fill:#3073ba;fill-rule:nonzero;"/><path d="M214.188,436.942c-1.345,0.955 -2.211,2.443 -2.368,4.085c-0.019,0.207 0.19,0.383 0.383,0.383c0.224,0 0.364,-0.175 0.383,-0.383c0.129,-1.351 0.883,-2.639 1.989,-3.423c0.168,-0.119 0.248,-0.335 0.137,-0.524c-0.097,-0.166 -0.355,-0.258 -0.524,-0.138Z" style="fill:#3073ba;fill-rule:nonzero;"/><path d="M217.483,437.489c-1.345,0.955 -2.211,2.443 -2.367,4.085c-0.019,0.206 0.19,0.383 0.383,0.383c0.224,0 0.364,-0.176 0.383,-0.383c0.129,-1.351 0.882,-2.639 1.988,-3.424c0.169,-0.12 0.249,-0.335 0.137,-0.524c-0.097,-0.167 -0.354,-0.258 -0.524,-0.137Z" style="fill:#3073ba;fill-rule:nonzero;"/><path d="M221.214,437.452c-1.345,0.955 -2.211,2.443 -2.367,4.085c-0.021,0.206 0.19,0.383 0.383,0.383c0.222,0 0.362,-0.176 0.383,-0.383c0.128,-1.351 0.882,-2.639 1.988,-3.423c0.169,-0.12 0.248,-0.334 0.137,-0.524c-0.097,-0.167 -0.354,-0.259 -0.524,-0.138Z" style="fill:#3073ba;fill-rule:nonzero;"/><path d="M114.675,241.972c0,0 7.811,2.153 10.305,10.26c1.972,6.407 5.662,53.039 6.632,53.987c0.968,0.948 20.445,9.561 20.445,9.561l-1.185,5.861c0,0 -30.999,-2.757 -34.087,-5.84c-3.089,-3.085 -5.819,-8.093 -6.057,-12.424c-0.238,-4.331 3.947,-61.405 3.947,-61.405Z" style="fill:#0c2b34;fill-rule:nonzero;"/><path d="M120.043,316.146c0,0 -0.19,-1.585 -0.443,-3.392c0.024,-0.002 0.047,-0.003 0.071,-0.005l0.372,3.397Zm6.14,-0.579l-1.307,-5.858c-0.176,-0.173 -0.254,-0.768 -0.254,-1.697c0.001,-5.218 2.454,-20.965 3.585,-31.238c1.467,14.085 2.861,28.915 3.405,29.445c0.707,0.691 11.274,5.467 16.931,7.997c-7.933,0.237 -16.476,0.848 -22.36,1.351Zm0.26,-54.497c-3.575,-8.002 -10.137,-17.428 -11.176,-18.901c1.868,0.688 7.635,3.309 9.713,10.063c0.423,1.376 0.926,4.605 1.463,8.838Z" style="fill:#45575d;fill-rule:nonzero;"/><path d="M96.534,356.788c0,0 2.517,0 41.539,-1.762c0,0 -5.357,12.652 -6.848,38.711c-0.613,10.718 -1.443,44.229 -2.785,59.594c0.679,0.958 13.899,4.214 18.273,1.004c0,0 21.81,-90.234 21.559,-102.632c-0.252,-12.399 -14.627,-16.05 -14.627,-16.05c0,0 -27.693,16.05 -57.111,21.135Z" style="fill:#0c2b34;fill-rule:nonzero;"/><path d="M69.571,351.474l-0.013,-0.016c-0.384,-0.501 -0.736,-1.02 -1.062,-1.558l-0.097,-0.156c-0.295,-0.498 -0.562,-1.013 -0.81,-1.539l-0.125,-0.259c-0.244,-0.54 -0.463,-1.095 -0.661,-1.661l-0.053,-0.145c-6.23,-18.18 10.412,-48.961 10.412,-48.961c0,0 24.039,0.851 38.209,-0.556c0.688,2.482 3.488,11.051 3.849,13.599c0.415,2.518 0.823,5.924 0.823,5.924l0.016,-0.002c1.069,-0.117 2.775,-0.284 4.92,-0.473l0.016,-0.001c8.162,-0.72 22.678,-1.755 32.868,-1.521c8.819,0.202 16.674,5.558 20.183,13.652c13.233,30.518 31.143,101.192 31.143,101.192l-15.804,6.914c0,0 -18.327,-41.929 -27.561,-62.692c-10.912,-24.532 -8.51,-32.434 -11.782,-32.577c-2.752,-0.12 -17.044,5.695 -33.25,10.579c-15.793,5.53 -33.932,8.848 -44.41,5.103c-0.862,-0.3 -1.667,-0.66 -2.424,-1.066l-0.024,-0.014c-0.367,-0.199 -0.719,-0.41 -1.058,-0.635l-0.078,-0.05c-0.319,-0.214 -0.626,-0.439 -0.919,-0.678l-0.094,-0.073c-0.308,-0.256 -0.607,-0.521 -0.884,-0.804l-0.014,-0.013c-0.474,-0.481 -0.911,-0.987 -1.316,-1.513Z" style="fill:#0c2b34;fill-rule:nonzero;"/><path d="M165.107,372.592c-0.008,0 -0.016,0 -0.024,-0.001c0.049,-0.245 0.096,-0.489 0.144,-0.731c0.073,0.166 0.144,0.331 0.218,0.499c-0.059,0.163 -0.197,0.233 -0.338,0.233Z" style="fill:#3e494d;fill-rule:nonzero;"/><path d="M165.083,372.591c-0.221,-0.011 -0.44,-0.196 -0.364,-0.474c0.079,-0.292 0.159,-0.585 0.239,-0.879c0.088,0.205 0.178,0.415 0.269,0.622c-0.048,0.242 -0.095,0.486 -0.144,0.731Z" style="fill:#011721;fill-rule:nonzero;"/><path d="M165.445,372.359c-0.074,-0.168 -0.145,-0.333 -0.218,-0.499c-0.091,-0.207 -0.181,-0.417 -0.269,-0.622c1.824,-6.755 3.504,-13.848 1.893,-20.811c-1.459,-6.306 -6.102,-12.176 -12.874,-12.941c-0.468,-0.054 -0.488,-0.769 -0.049,-0.769c0.016,0 0.033,0.001 0.049,0.003c6.611,0.746 11.469,6.07 13.279,12.232c2.275,7.747 0.257,15.819 -1.799,23.37c-0.003,0.012 -0.007,0.025 -0.012,0.037Z" style="fill:#011721;fill-rule:nonzero;"/><path d="M102.204,355.809c-0.415,0 -0.563,-0.651 -0.112,-0.748c17.203,-3.72 33.928,-9.475 49.772,-17.141c0.06,-0.03 0.119,-0.042 0.175,-0.042c0.357,0 0.595,0.518 0.211,0.703c-15.904,7.696 -32.685,13.485 -49.955,17.218c-0.032,0.007 -0.062,0.01 -0.091,0.01Z" style="fill:#011721;fill-rule:nonzero;"/><path d="M124.911,269.615c0.008,-3.557 -0.848,-7.062 -2.507,-10.21l-9.062,-17.185c-2.267,-0.285 -4.676,-0.555 -6.915,-0.755c-6.992,-0.471 -15.4,-0.402 -22.392,0.069c-3.623,0.453 -7.438,1.781 -11.363,3.619c-0.49,0.43 -3.903,4.533 -2.242,9.912c8.297,27.572 9.822,41.586 8.896,53.846c15.311,1.981 39.842,5.698 44.576,2.932c-6.261,-24.594 0.983,-31.744 1.009,-42.228Z" style="fill:#3073ba;fill-rule:nonzero;"/><path d="M116.927,312.831c-2.717,0 -5.982,-0.194 -9.526,-0.506c0.547,-1.675 0.881,-2.941 0.881,-2.941c0,0 -6.144,-1.929 -13.082,-4.65c0.287,-3.115 0.489,-6.148 0.578,-9.015c0.399,-12.951 -0.406,-38.179 -2.834,-52.369c4.595,2.257 10.076,4.842 12.066,5.353c2.113,-0.861 1.937,-3.632 1.678,-5.094c4.352,7.229 11.995,16.86 15.251,25.721c0.57,1.552 0.798,3.47 0.798,5.644c-0.001,8.641 -3.594,21.332 -3.591,31.143c0.001,1.242 0.059,2.437 0.189,3.571l0.336,3.061c-0.833,0.056 -1.752,0.082 -2.744,0.082Z" style="fill:#76a6d9;fill-rule:nonzero;"/><path d="M104.749,217.58c-1.825,6.715 -3.498,19.555 1.732,25.106c0,0 1.446,4.83 -1.471,6.017c-3.665,-0.941 -19.17,-8.917 -19.17,-8.917c6.149,-2.05 5.288,-10.321 4.362,-15.568l14.547,-6.638Z" style="fill:#f8afaf;fill-rule:nonzero;"/><path d="M102.979,231.37c-0.009,-0.4 -0.011,-0.803 -0.008,-1.205c0.024,-0.003 0.048,-0.005 0.071,-0.007c-0.028,0.405 -0.051,0.809 -0.063,1.212Z" style="fill:#021e27;fill-rule:nonzero;"/><path d="M103.034,233.398c-2.45,-0.103 -6.131,-2.084 -7.677,-4.493c2.066,0.899 4.185,1.326 6.226,1.326c0.467,0 0.93,-0.022 1.388,-0.066c-0.003,0.402 -0.001,0.805 0.008,1.205c-0.019,0.673 -0.008,1.345 0.055,2.028Z" style="fill:#d6918d;fill-rule:nonzero;"/><path d="M82.043,205.392c2.053,10.905 2.694,15.567 8.952,20.799c9.381,7.827 22.254,3.706 23.509,-7.413c1.127,-9.979 -2.423,-26.189 -13.672,-29.795c-7.403,-2.681 -15.577,1.148 -18.258,8.551c-0.912,2.516 -1.096,5.24 -0.531,7.858Z" style="fill:#f8afaf;fill-rule:nonzero;"/><path d="M105.986,188.065c0,0 1.43,8.269 -2.008,10.088c-2.119,1.121 -2.916,-4.022 -2.916,-4.022c0,0 -1.401,9.24 -4.296,8.965c-2.895,-0.274 -1.961,-4.442 -1.961,-4.442c0,0 -1.236,13.528 -4.13,14.744c-2.896,1.215 -11.745,-4.973 -11.745,-4.973c0,0 -2.093,-13.727 4.23,-17.089c6.322,-3.362 14.143,-5.23 14.143,-5.23l8.683,1.959Z" style="fill:#0c2b34;fill-rule:nonzero;"/><path d="M81.776,216.979c1.695,2.001 4.03,3.041 6.019,3.194c2.992,0.232 3.595,-4.619 2.076,-7.32c-1.367,-2.431 -4.497,-3.662 -7.17,-2.626c-2.632,1.021 -2.862,4.466 -0.925,6.752Z" style="fill:#f8afaf;fill-rule:nonzero;"/><path d="M87.993,215.678c-0.151,0 -0.298,-0.082 -0.35,-0.27c-0.441,-1.637 -1.944,-2.771 -3.589,-2.771c-0.262,0 -0.527,0.028 -0.793,0.089c-0.033,0.007 -0.064,0.01 -0.094,0.01c-0.41,0 -0.557,-0.648 -0.109,-0.749c0.331,-0.075 0.669,-0.112 1.007,-0.112c0.844,0 1.686,0.233 2.401,0.695c0.937,0.608 1.625,1.556 1.916,2.633c0.077,0.288 -0.159,0.475 -0.389,0.475Z" style="fill:#d6918d;fill-rule:nonzero;"/><path d="M98.091,203.084c0.137,0.03 0.282,0.006 0.399,-0.082c1.822,-1.372 3.657,-0.61 3.678,-0.601c0.273,0.114 0.57,-0.013 0.662,-0.294c0.09,-0.28 -0.059,-0.601 -0.334,-0.719c-0.096,-0.041 -2.398,-0.999 -4.66,0.704c-0.226,0.17 -0.262,0.512 -0.082,0.763c0.087,0.12 0.21,0.199 0.337,0.229Z" style="fill:#0c2b34;fill-rule:nonzero;"/><path d="M112.065,199.514c0.084,-0.079 0.13,-0.193 0.122,-0.321c-0.019,-0.267 -0.269,-0.499 -0.557,-0.52c-2.889,-0.214 -4.097,1.535 -4.147,1.61c-0.142,0.212 -0.052,0.514 0.2,0.677c0.251,0.164 0.57,0.124 0.712,-0.085c0.046,-0.07 1.006,-1.41 3.304,-1.239c0.148,0.01 0.278,-0.037 0.366,-0.122Z" style="fill:#0c2b34;fill-rule:nonzero;"/><path d="M106.248,207.163c0,0 2.454,3.759 4.837,5.957c0.417,0.384 0.332,1.063 -0.149,1.342c-1.239,0.718 -2.882,0.538 -2.882,0.538l-1.806,-7.837Z" style="fill:#f15a57;fill-rule:nonzero;"/><path d="M98.963,209.366c0.238,1.119 1.006,1.943 1.716,1.84c0.71,-0.102 1.092,-1.094 0.853,-2.213c-0.238,-1.12 -1.006,-1.944 -1.716,-1.841c-0.71,0.103 -1.092,1.093 -0.853,2.214Z" style="fill:#0c2b34;fill-rule:nonzero;"/><path d="M108.723,207.148c0.234,1.085 0.996,1.881 1.703,1.778c0.707,-0.102 1.092,-1.064 0.859,-2.149c-0.234,-1.084 -0.996,-1.881 -1.703,-1.777c-0.708,0.101 -1.092,1.064 -0.859,2.148Z" style="fill:#0c2b34;fill-rule:nonzero;"/><path d="M99.26,207.186l2.373,-0.988c0,0 -1.05,2.049 -2.373,0.988Z" style="fill:#0c2b34;fill-rule:nonzero;"/><path d="M109.233,205.157l2.374,-0.988c0,0 -1.05,2.049 -2.374,0.988Z" style="fill:#0c2b34;fill-rule:nonzero;"/><path d="M105.889,217.556c-1.388,0.245 -2.872,-0.457 -3.593,-1.658c-0.253,-0.422 -0.916,-0.037 -0.661,0.387c0.909,1.514 2.726,2.316 4.457,2.01c0.204,-0.036 0.319,-0.285 0.268,-0.471c-0.06,-0.216 -0.267,-0.304 -0.471,-0.268Z" style="fill:#0c2b34;fill-rule:nonzero;"/><path d="M120.043,316.146l-0.708,-6.458c-1.419,-12.363 5.724,-31.865 2.604,-40.358c-4.42,-12.032 -16.932,-25.482 -18.303,-32.413l5.948,3.492l5.543,1.563c0,0 13.256,18.551 13.624,26.847c0.317,7.124 -5.38,39.423 -3.875,40.89l1.323,5.93l-6.156,0.507Z" style="fill:#0c2b34;fill-rule:nonzero;"/><path d="M120.043,316.146l-0.372,-3.397l-0.336,-3.061c-0.13,-1.134 -0.188,-2.329 -0.189,-3.571c-0.003,-9.811 3.59,-22.502 3.591,-31.143c0,-2.174 -0.228,-4.092 -0.798,-5.644c-3.256,-8.861 -10.899,-18.492 -15.251,-25.721c-0.552,-0.919 -1.053,-1.799 -1.484,-2.635c-0.496,-0.963 -0.901,-1.866 -1.19,-2.698c-0.166,-0.476 -0.293,-0.928 -0.378,-1.356l0,-0.003l5.948,3.492l5.543,1.563c0,0 13.256,18.551 13.624,26.847c0.009,0.195 0.013,0.408 0.013,0.639c-0.003,7.237 -4.141,31.776 -4.142,38.554c0,0.929 0.078,1.524 0.254,1.697l1.323,5.93l-6.156,0.507Z" style="fill:#45575d;fill-rule:nonzero;"/><path d="M120.271,251.799c3.053,5.488 5.889,11.251 7.01,17.482c0.486,2.704 0.62,5.456 0.444,8.196c-0.171,2.653 -0.753,5.186 -1.227,7.79c-1.112,6.106 -1.872,12.412 -2.268,18.6c-0.262,4.081 0.715,7.9 1.599,11.873c0.108,0.481 0.846,0.278 0.74,-0.203c-0.811,-3.641 -1.809,-7.251 -1.612,-11c0.202,-3.874 0.704,-7.736 1.212,-11.579c0.33,-2.493 0.617,-5.013 1.068,-7.487c0.451,-2.481 1.013,-4.897 1.213,-7.421c0.204,-2.569 0.137,-5.15 -0.227,-7.703c-0.963,-6.768 -4,-13.02 -7.29,-18.934c-0.24,-0.431 -0.902,-0.045 -0.662,0.386Z" style="fill:#0c2b34;fill-rule:nonzero;"/><path d="M109.236,240.874c3.707,3.634 5.959,8.97 7.881,13.697c1.931,4.749 3.723,9.765 4.452,14.861c0.071,0.487 0.808,0.279 0.74,-0.204c-0.763,-5.326 -2.669,-10.576 -4.726,-15.521c-1.929,-4.64 -4.157,-9.798 -7.805,-13.374c-0.353,-0.345 -0.895,0.196 -0.542,0.541Z" style="fill:#0c2b34;fill-rule:nonzero;"/><path d="M90.343,234.242l-5.856,6.104l-12.983,3.969l-0.481,26.037c2.659,10.012 4.604,25.997 4.671,26.217l-19.156,53.671l30.233,3.16c0,0 8.287,-34.338 9.007,-57.681c0.517,-16.794 -0.991,-54.241 -5.435,-61.477Z" style="fill:#0c2b34;fill-rule:nonzero;"/><path d="M84.487,240.346l5.804,-6.235c0.052,0.086 0.104,0.176 0.156,0.27c-0.002,0.008 -0.004,0.017 -0.006,0.025c-0.033,-0.056 -0.066,-0.111 -0.098,-0.164l-5.856,6.104Z" style="fill:#45575d;fill-rule:nonzero;"/><path d="M90.982,235.534c-0.176,-0.427 -0.355,-0.804 -0.541,-1.128c0.002,-0.008 0.004,-0.017 0.006,-0.025c0.184,0.333 0.361,0.719 0.535,1.153Z" style="fill:#f9bdbc;fill-rule:nonzero;"/><path d="M86.771,353.4l-30.233,-3.16l13.983,-39.175c7.356,2.785 16.236,5.551 23.022,7.216c-2.682,18.175 -6.772,35.119 -6.772,35.119Zm8.429,-48.666c-9.002,-3.531 -19.341,-8.394 -19.345,-12.113c0,-0.027 0.001,-0.052 0.001,-0.078c0.226,-5.972 3.225,-24.329 3.223,-29.446c0,-0.523 -0.032,-0.908 -0.101,-1.126c-0.728,-2.307 -6.512,-17.213 -6.768,-17.872l12.277,-3.753l5.856,-6.104c0.032,0.053 0.065,0.108 0.098,0.164c0.186,0.324 0.365,0.701 0.541,1.128c3.914,9.794 5.285,44.294 4.796,60.185c-0.089,2.867 -0.291,5.9 -0.578,9.015Zm-23.698,-60.332l0.002,-0.087l0.46,-0.141c-0.117,0.052 -0.272,0.127 -0.462,0.228Z" style="fill:#45575d;fill-rule:nonzero;"/><path d="M72.202,244.076c0,0 -7.907,2.755 -10.389,17.401c-2.337,13.79 -7.171,37.294 -5.185,42.248c1.988,4.954 45.196,18.4 47.432,15.805c2.235,-2.595 4.222,-10.146 4.222,-10.146c0,0 -32.674,-10.257 -32.426,-16.841c0.249,-6.583 3.867,-28.213 3.122,-30.572c-0.745,-2.359 -6.776,-17.895 -6.776,-17.895Z" style="fill:#0c2b34;fill-rule:nonzero;"/><path d="M102.61,319.859c-1.81,0 -5.076,-0.598 -9.067,-1.578c-6.786,-1.665 -15.666,-4.431 -23.022,-7.216c-7.357,-2.785 -13.191,-5.592 -13.893,-7.34c-0.326,-0.813 -0.468,-2.124 -0.468,-3.81c0.001,-8.594 3.7,-26.91 5.653,-38.438c2.482,-14.646 10.389,-17.401 10.389,-17.401c0,0 6.031,15.536 6.776,17.895c0.069,0.218 0.101,0.603 0.101,1.126c0.002,5.117 -2.997,23.474 -3.223,29.446c0,0.026 -0.001,0.051 -0.001,0.078c0.008,6.585 32.427,16.763 32.427,16.763c0,0 -0.334,1.266 -0.881,2.941c-0.788,2.414 -2.022,5.673 -3.341,7.205c-0.193,0.225 -0.694,0.329 -1.45,0.329Z" style="fill:#45575d;fill-rule:nonzero;"/><path d="M78.6,265.236c-1.111,6.719 -2.15,13.468 -2.881,20.24c-0.184,1.698 -0.364,3.407 -0.4,5.116c-0.022,0.98 -0.049,1.891 0.559,2.701c1.376,1.831 3.643,3.167 5.539,4.373c3.091,1.968 6.334,3.71 9.648,5.274c5.535,2.612 11.316,4.85 17.114,6.813c0.468,0.158 0.669,-0.581 0.205,-0.739c-4.782,-1.617 -9.499,-3.479 -14.134,-5.475c-3.337,-1.436 -6.591,-3.073 -9.736,-4.892c-2.469,-1.431 -5.037,-2.94 -7.145,-4.887c-0.993,-0.917 -1.294,-1.506 -1.29,-2.809c0.006,-1.558 0.163,-3.118 0.321,-4.666c0.435,-4.284 1.047,-8.55 1.682,-12.807c0.401,-2.682 0.814,-5.363 1.257,-8.039c0.08,-0.482 -0.658,-0.689 -0.739,-0.203Z" style="fill:#0c2b34;fill-rule:nonzero;"/><path d="M72.56,246.184c3.95,2.356 6.72,6.553 7.046,11.175c0.035,0.489 0.801,0.492 0.766,0c-0.345,-4.896 -3.232,-9.336 -7.425,-11.837c-0.425,-0.252 -0.811,0.41 -0.387,0.662Z" style="fill:#0c2b34;fill-rule:nonzero;"/><path d="M126.81,315.49c0,0 -1.899,-4.84 -18.632,-5.964l-3.335,9.115c0,0 19.285,-1.653 21.967,-3.151Z" style="fill:#f8afaf;fill-rule:nonzero;"/><path d="M84.441,240.346c-0.363,11.751 3.567,24.179 10.287,33.792c0.28,0.402 0.945,0.019 0.661,-0.386c-6.647,-9.509 -10.541,-21.781 -10.182,-33.406c0.015,-0.493 -0.751,-0.492 -0.766,0Z" style="fill:#0c2b34;fill-rule:nonzero;"/></g></g></svg>