<svg width="500" height="501" viewBox="0 0 500 501" fill="none" xmlns="http://www.w3.org/2000/svg">
<path d="M438.556 430.884C443.606 427.638 448.182 423.787 452.035 419.123C480.669 384.463 480.37 335.56 478.401 293.419C476.077 243.676 467.276 193.913 441.837 150.037C417.317 107.746 380.371 71.8232 334.124 52.6112C321.364 47.3102 308.039 43.3212 294.427 40.7112C269.286 35.8912 243.191 36.9002 218.671 44.2612C209.313 47.0712 200.186 50.5902 191.286 54.5602C130.45 81.7052 121.999 137.638 98.34 193.572C81.593 233.164 42.204 259.038 25.498 298.687C6.78898 343.091 36.772 391.612 75.03 415.44C83.785 420.893 93.161 425.391 102.881 428.967C193.796 462.423 296.341 472.685 390.976 448.334C406.901 444.236 424.55 439.887 438.556 430.884Z" fill="#3B99FF"/>
<path opacity="0.7" d="M438.556 430.884C443.606 427.638 448.182 423.787 452.035 419.123C480.669 384.463 480.37 335.56 478.401 293.419C476.077 243.676 467.276 193.913 441.837 150.037C417.317 107.746 380.371 71.8232 334.124 52.6112C321.364 47.3102 308.039 43.3212 294.427 40.7112C269.286 35.8912 243.191 36.9002 218.671 44.2612C209.313 47.0712 200.186 50.5902 191.286 54.5602C130.45 81.7052 121.999 137.638 98.34 193.572C81.593 233.164 42.204 259.038 25.498 298.687C6.78898 343.091 36.772 391.612 75.03 415.44C83.785 420.893 93.161 425.391 102.881 428.967C193.796 462.423 296.341 472.685 390.976 448.334C406.901 444.236 424.55 439.887 438.556 430.884Z" fill="white"/>
<path opacity="0.3" d="M72.919 406.442L75.532 399.169L69.487 395.873L64.788 402.009C63.422 401.693 62.041 401.543 60.668 401.564L57.375 394.578L50.77 396.522L51.786 404.178C50.621 404.904 49.541 405.778 48.564 406.784L41.291 404.171L37.995 410.216L44.131 414.915C43.815 416.281 43.665 417.662 43.686 419.035L36.7 422.328L38.644 428.933L46.3 427.918C47.026 429.083 47.9 430.163 48.906 431.14L46.293 438.413L52.338 441.709L57.037 435.573C58.403 435.889 59.784 436.039 61.157 436.018L64.45 443.004L71.055 441.06L70.04 433.404C71.205 432.678 72.285 431.804 73.262 430.798L80.535 433.411L83.831 427.366L77.695 422.667C78.011 421.301 78.161 419.92 78.14 418.547L85.126 415.254L83.183 408.649L75.527 409.664C75.349 409.378 75.161 409.096 74.965 408.821M52.733 425.981C49.8 422.645 49.103 417.704 51.353 413.578C54.231 408.299 60.844 406.354 66.123 409.232C71.402 412.11 73.347 418.723 70.469 424.002C67.872 428.765 62.234 430.815 57.279 429.054" stroke="black" stroke-miterlimit="10" stroke-linecap="round" stroke-linejoin="round"/>
<path opacity="0.3" d="M61.284 382.613C59.479 383.162 57.463 383.014 55.676 382.039C52.143 380.113 50.841 375.687 52.768 372.155C54.694 368.622 59.119 367.32 62.652 369.247C66.185 371.173 67.487 375.599 65.56 379.131C65.351 379.514 65.113 379.871 64.85 380.2M49.379 388.773L53.424 390.979L56.569 386.873C57.483 387.085 58.407 387.185 59.326 387.171L61.53 391.846L65.95 390.545L65.271 385.422C66.051 384.936 66.773 384.351 67.427 383.678L72.294 385.427L74.5 381.382L70.394 378.237C70.606 377.323 70.706 376.398 70.692 375.48L75.367 373.276L74.066 368.856L68.943 369.536C68.457 368.756 67.872 368.034 67.199 367.38L68.948 362.513L64.903 360.307L61.759 364.413C60.845 364.201 59.92 364.101 59.002 364.115L56.799 359.44L52.379 360.741L53.058 365.864C52.278 366.35 51.556 366.935 50.902 367.608L46.035 365.859L43.829 369.904L47.935 373.049C47.724 373.963 47.623 374.888 47.637 375.806L42.962 378.01L44.263 382.43L49.386 381.75C49.872 382.53 50.457 383.253 51.13 383.906L49.379 388.773Z" stroke="black" stroke-miterlimit="10" stroke-linecap="round" stroke-linejoin="round"/>
<path opacity="0.3" d="M321.194 125.701L323.807 118.428L317.762 115.132L313.063 121.268C311.697 120.952 310.316 120.802 308.943 120.823L305.65 113.837L299.045 115.781L300.06 123.437C298.895 124.163 297.815 125.037 296.838 126.043L289.565 123.43L286.269 129.475L292.405 134.174C292.089 135.54 291.939 136.921 291.96 138.294L284.974 141.587L286.918 148.192L294.574 147.177C295.3 148.342 296.174 149.422 297.18 150.399L294.567 157.672L300.612 160.968L305.311 154.832C306.677 155.148 308.058 155.298 309.431 155.277L312.724 162.263L319.329 160.319L318.314 152.663C319.479 151.937 320.559 151.063 321.536 150.057L328.809 152.67L332.105 146.625L325.969 141.926C326.285 140.56 326.435 139.179 326.414 137.806L333.4 134.513L331.456 127.908L323.8 128.923C323.622 128.637 323.434 128.355 323.238 128.08M301.009 145.24C298.076 141.904 297.379 136.963 299.629 132.837C302.507 127.558 309.12 125.613 314.399 128.491C319.678 131.369 321.623 137.982 318.745 143.261C316.148 148.024 310.51 150.074 305.555 148.314" stroke="black" stroke-miterlimit="10" stroke-linecap="round" stroke-linejoin="round"/>
<path opacity="0.3" d="M309.559 101.872C307.754 102.421 305.738 102.273 303.951 101.298C300.418 99.3722 299.116 94.9472 301.042 91.4142C302.968 87.8822 307.393 86.5792 310.926 88.5062C314.459 90.4322 315.761 94.8572 313.834 98.3902C313.625 98.7732 313.387 99.1302 313.124 99.4592M297.654 108.033L301.699 110.239L304.844 106.133C305.758 106.345 306.683 106.445 307.601 106.431L309.805 111.106L314.225 109.805L313.546 104.682C314.326 104.196 315.048 103.611 315.702 102.938L320.569 104.687L322.775 100.642L318.669 97.4972C318.881 96.5832 318.981 95.6592 318.967 94.7402L323.642 92.5362L322.341 88.1162L317.218 88.7962C316.732 88.0162 316.147 87.2942 315.474 86.6402L317.223 81.7732L313.178 79.5672L310.034 83.6732C309.12 83.4612 308.195 83.3612 307.277 83.3752L305.074 78.7002L300.654 80.0012L301.334 85.1242C300.554 85.6102 299.831 86.1952 299.178 86.8682L294.311 85.1192L292.105 89.1642L296.211 92.3092C296 93.2232 295.899 94.1482 295.913 95.0662L291.238 97.2702L292.539 101.69L297.662 101.01C298.148 101.79 298.733 102.513 299.406 103.166L297.654 108.033Z" stroke="black" stroke-miterlimit="10" stroke-linecap="round" stroke-linejoin="round"/>
<g opacity="0.3">
<path d="M380.807 119.886C382.917 119.886 384.627 118.176 384.627 116.066C384.627 113.956 382.917 112.246 380.807 112.246C378.697 112.246 376.987 113.956 376.987 116.066C376.987 118.176 378.697 119.886 380.807 119.886Z" stroke="black" stroke-miterlimit="10" stroke-linecap="round" stroke-linejoin="round"/>
<path d="M45.612 184.824C47.7217 184.824 49.432 183.114 49.432 181.004C49.432 178.894 47.7217 177.184 45.612 177.184C43.5023 177.184 41.792 178.894 41.792 181.004C41.792 183.114 43.5023 184.824 45.612 184.824Z" stroke="black" stroke-miterlimit="10" stroke-linecap="round" stroke-linejoin="round"/>
<path d="M333.059 382.503C335.169 382.503 336.879 380.793 336.879 378.683C336.879 376.574 335.169 374.863 333.059 374.863C330.949 374.863 329.239 376.574 329.239 378.683C329.239 380.793 330.949 382.503 333.059 382.503Z" stroke="black" stroke-miterlimit="10" stroke-linecap="round" stroke-linejoin="round"/>
<path d="M52.2971 350.989C54.4068 350.989 56.1171 349.279 56.1171 347.169C56.1171 345.059 54.4068 343.349 52.2971 343.349C50.1873 343.349 48.4771 345.059 48.4771 347.169C48.4771 349.279 50.1873 350.989 52.2971 350.989Z" stroke="black" stroke-miterlimit="10" stroke-linecap="round" stroke-linejoin="round"/>
<path d="M311.326 182.682L303.223 190.785" stroke="black" stroke-miterlimit="10" stroke-linecap="round" stroke-linejoin="round"/>
<path d="M311.326 190.785L303.223 182.682" stroke="black" stroke-miterlimit="10" stroke-linecap="round" stroke-linejoin="round"/>
<path d="M282.214 415.695L290.317 423.798" stroke="black" stroke-miterlimit="10" stroke-linecap="round" stroke-linejoin="round"/>
<path d="M290.317 415.695L282.214 423.798" stroke="black" stroke-miterlimit="10" stroke-linecap="round" stroke-linejoin="round"/>
<path d="M27.236 233.296L35.339 241.399" stroke="black" stroke-miterlimit="10" stroke-linecap="round" stroke-linejoin="round"/>
<path d="M35.339 233.296L27.236 241.399" stroke="black" stroke-miterlimit="10" stroke-linecap="round" stroke-linejoin="round"/>
<path d="M326.142 44.2112L334.246 52.3142" stroke="black" stroke-miterlimit="10" stroke-linecap="round" stroke-linejoin="round"/>
<path d="M334.246 44.2112L326.142 52.3142" stroke="black" stroke-miterlimit="10" stroke-linecap="round" stroke-linejoin="round"/>
<path d="M129.418 50.8962L137.521 58.9992" stroke="black" stroke-miterlimit="10" stroke-linecap="round" stroke-linejoin="round"/>
<path d="M137.521 50.8962L129.418 58.9992" stroke="black" stroke-miterlimit="10" stroke-linecap="round" stroke-linejoin="round"/>
</g>
<path d="M31.184 453.831H469.382" stroke="#263238" stroke-miterlimit="10" stroke-linecap="round" stroke-linejoin="round"/>
<path d="M70.695 105.624V427.808C70.695 439.13 79.873 448.308 91.195 448.308H237.5C248.822 448.308 258 439.13 258 427.808V105.624C258 94.3023 248.822 85.1243 237.5 85.1243H91.195C79.873 85.1243 70.695 94.3023 70.695 105.624Z" fill="white"/>
<path d="M258 104.701C258 100.014 256.349 95.7152 253.602 92.3442C244.235 96.8832 230.841 106.52 213.491 126.703C176.196 170.087 164.78 275.121 120.635 320.788C101.736 340.339 84.375 352.352 70.695 359.703V428.732C70.695 439.544 79.46 448.309 90.272 448.309H227.589C228.488 447.196 229.372 446.046 230.236 444.85C240.541 430.582 250.016 418.613 258.001 409.059V104.701H258Z" fill="#D6D6D6"/>
<path d="M70.695 104.701V188.464C85.939 181.662 104.383 168.737 117.59 144.209C130.972 119.357 148.194 99.1173 162.022 85.1243H90.272C79.46 85.1243 70.695 93.8893 70.695 104.701Z" fill="#D6D6D6"/>
<path d="M85.167 92.9833C85.167 95.2043 82.673 96.0043 82.663 97.6983V97.8143H85.083V98.5613H81.853V97.9293C81.853 95.5513 84.347 95.0883 84.347 93.0143C84.347 92.2573 84.094 91.8573 83.484 91.8573C82.884 91.8573 82.621 92.2883 82.621 92.9403V93.5933H81.853V92.9933C81.853 91.8673 82.369 91.1193 83.505 91.1193C84.652 91.1203 85.167 91.8573 85.167 92.9833Z" fill="#263238"/>
<path d="M89.199 92.9732V93.1622C89.199 93.9202 88.894 94.4572 88.305 94.6782C88.925 94.9102 89.199 95.4672 89.199 96.2042V96.7722C89.199 97.8982 88.673 98.6352 87.536 98.6352C86.41 98.6352 85.884 97.8982 85.884 96.7722V96.2672H86.652V96.8252C86.652 97.4882 86.926 97.8882 87.515 97.8882C88.115 97.8882 88.378 97.4992 88.378 96.7522V96.1842C88.378 95.4582 88.073 95.1112 87.451 95.0902H87.01V94.3532H87.494C88.041 94.3322 88.379 93.9852 88.379 93.3432V93.0062C88.379 92.2492 88.116 91.8592 87.516 91.8592C86.927 91.8592 86.653 92.2692 86.653 92.9322V93.3112H85.885V92.9742C85.885 91.8482 86.411 91.1212 87.537 91.1212C88.673 91.1202 89.199 91.8472 89.199 92.9732Z" fill="#263238"/>
<path d="M90.79 93.5303V94.5513H90V93.5303H90.79ZM90.79 97.5403V98.5613H90V97.5403H90.79Z" fill="#263238"/>
<path d="M92.453 94.1943C92.685 93.7943 93.053 93.5843 93.548 93.5843C94.495 93.5843 94.916 94.2783 94.916 95.3313V96.7733C94.916 97.8993 94.38 98.6363 93.254 98.6363C92.127 98.6363 91.601 97.8993 91.601 96.7733V96.2783H92.369V96.8253C92.369 97.4883 92.643 97.8883 93.232 97.8883C93.821 97.8883 94.095 97.4883 94.095 96.8253V95.3943C94.095 94.7313 93.821 94.3313 93.232 94.3313C92.78 94.3313 92.474 94.5843 92.401 95.1213V95.2893H91.633L91.833 91.1953H94.737V91.9323H92.569L92.453 94.1943Z" fill="#263238"/>
<path d="M99.01 92.9623V93.0993H98.242V92.9103C98.242 92.2473 97.968 91.8583 97.369 91.8583C96.748 91.8583 96.474 92.2583 96.474 93.0473V94.6993C96.674 94.1943 97.074 93.9103 97.663 93.9103C98.61 93.9103 99.031 94.5943 99.031 95.6573V96.7733C99.031 97.8993 98.472 98.6363 97.347 98.6363C96.21 98.6363 95.652 97.8993 95.652 96.7733V93.0163C95.652 91.8483 96.179 91.1223 97.347 91.1223C98.484 91.1203 99.01 91.8363 99.01 92.9623ZM96.474 95.7203V96.8253C96.474 97.4883 96.748 97.8883 97.347 97.8883C97.936 97.8883 98.22 97.4883 98.22 96.8253V95.7203C98.22 95.0573 97.936 94.6573 97.347 94.6573C96.748 94.6573 96.474 95.0563 96.474 95.7203Z" fill="#263238"/>
<path d="M214.009 93.2863H211.929V98.4863H214.009V93.2863Z" fill="#263238"/>
<path d="M216.782 92.2443H214.702V98.4863H216.782V92.2443Z" fill="#263238"/>
<path d="M219.556 91.5052H217.476V98.4872H219.556V91.5052Z" fill="#263238"/>
<path d="M222.329 90.2183H220.249V98.4863H222.329V90.2183Z" fill="#263238"/>
<path d="M248.069 98.3433H235.589V90.7163H248.069V98.3433ZM236.283 97.6503H247.377V91.4103H236.283V97.6503Z" fill="#263238"/>
<path d="M243.91 92.1653H237.323V96.8963H243.91V92.1653Z" fill="#263238"/>
<path d="M249.205 93.6323H247.636V95.4293H249.205V93.6323Z" fill="#263238"/>
<path d="M231.013 96.6843C230.932 96.6843 230.849 96.6632 230.774 96.6192C228.234 95.1102 226.556 96.5112 226.485 96.5702C226.291 96.7382 225.997 96.7172 225.829 96.5242C225.661 96.3302 225.679 96.0392 225.872 95.8692C225.962 95.7902 228.109 93.9512 231.251 95.8182C231.472 95.9492 231.545 96.2362 231.413 96.4572C231.326 96.6032 231.172 96.6843 231.013 96.6843Z" fill="#263238"/>
<path d="M231.953 95.1173C231.872 95.1173 231.789 95.0963 231.715 95.0513C228.043 92.8673 225.575 94.9803 225.549 95.0003C225.356 95.1713 225.062 95.1513 224.892 94.9583C224.722 94.7653 224.74 94.4703 224.934 94.3013C224.964 94.2743 227.941 91.7243 232.192 94.2503C232.413 94.3813 232.486 94.6683 232.354 94.8893C232.266 95.0373 232.111 95.1173 231.953 95.1173Z" fill="#263238"/>
<path d="M232.806 93.3033C232.725 93.3033 232.642 93.2823 232.568 93.2383C227.917 90.4723 224.825 93.0763 224.696 93.1893C224.502 93.3583 224.207 93.3373 224.039 93.1443C223.87 92.9513 223.889 92.6583 224.082 92.4883C224.118 92.4553 227.792 89.3133 233.046 92.4373C233.267 92.5683 233.34 92.8553 233.208 93.0763C233.119 93.2223 232.964 93.3033 232.806 93.3033Z" fill="#263238"/>
<path d="M229.61 97.4653C229.61 98.1113 229.087 98.6343 228.441 98.6343C227.795 98.6343 227.272 98.1103 227.272 97.4653C227.272 96.8193 227.795 96.2963 228.441 96.2963C229.087 96.2963 229.61 96.8203 229.61 97.4653Z" fill="#263238"/>
<path d="M263.036 98.0402V109.195H266.505V140.897H263.036V148.102H266.505V179.804H263.036V187.009H266.505V218.711H263.036V435.392C263.036 446.793 253.793 456.036 242.392 456.036H86.304C74.903 456.036 65.66 446.793 65.66 435.392V166.259H63.183V134.557H65.66V98.0402C65.66 86.6392 74.903 77.3962 86.304 77.3962H242.392C253.793 77.3962 263.036 86.6392 263.036 98.0402ZM209.062 85.1242L202.97 94.1902C201.142 96.9102 198.08 98.5422 194.802 98.5422H133.895C130.617 98.5422 127.555 96.9102 125.727 94.1902L119.635 85.1242H91.339C79.938 85.1242 70.695 94.3672 70.695 105.768V427.665C70.695 439.066 79.938 448.309 91.339 448.309H237.357C248.758 448.309 258.001 439.066 258.001 427.665V105.768C258.001 94.3672 248.758 85.1242 237.357 85.1242H209.062Z" fill="#263238"/>
<path d="M241.798 186.734H243.231C246.132 186.734 248.483 189.086 248.483 191.986V292.331C248.483 308.641 261.705 321.862 278.014 321.862C294.324 321.862 307.545 308.64 307.545 292.331V255.492" stroke="#263238" stroke-miterlimit="10" stroke-linecap="round" stroke-linejoin="round"/>
<path d="M237.424 186.734H241.798" stroke="#263238" stroke-width="3" stroke-miterlimit="10" stroke-linecap="round" stroke-linejoin="round"/>
<path d="M133.057 248.263C134.753 248.263 136.127 249.637 136.127 251.333V292.433C136.127 338.877 173.777 376.527 220.221 376.527C264.364 376.527 300.149 340.742 300.149 296.599V255.719" stroke="#263238" stroke-miterlimit="10" stroke-linecap="round" stroke-linejoin="round"/>
<path d="M128.233 248.263H133.057" stroke="#263238" stroke-width="3" stroke-miterlimit="10" stroke-linecap="round" stroke-linejoin="round"/>
<path d="M244.364 312.766C247.297 312.766 249.675 315.144 249.675 318.077V366.11C249.675 384.348 264.46 399.132 282.697 399.132C300.935 399.132 315.719 384.347 315.719 366.11V256.882" stroke="#263238" stroke-miterlimit="10" stroke-linecap="round" stroke-linejoin="round"/>
<path d="M238.13 312.766H244.364" stroke="#263238" stroke-width="3" stroke-miterlimit="10" stroke-linecap="round" stroke-linejoin="round"/>
<path d="M232.68 208.181H199.764C196.928 208.181 194.629 205.882 194.629 203.046V170.13C194.629 167.294 196.928 164.995 199.764 164.995H232.68C235.516 164.995 237.815 167.294 237.815 170.13V203.046C237.816 205.882 235.517 208.181 232.68 208.181Z" fill="#3B99FF" stroke="#263238" stroke-miterlimit="10" stroke-linecap="round" stroke-linejoin="round"/>
<path d="M230.149 185.635V182.363L226.847 181.811C226.571 180.444 226.034 179.173 225.295 178.046L227.257 175.295L224.944 172.982L222.199 174.941C221.081 174.204 219.82 173.665 218.463 173.385L217.902 170.029H214.631L214.07 173.385C212.726 173.663 211.477 174.195 210.367 174.921L207.563 172.921L205.25 175.234L207.246 178.033C206.522 179.134 205.992 180.374 205.709 181.706L202.296 182.277V185.549L205.687 186.116C205.958 187.451 206.482 188.693 207.197 189.8L205.187 192.617L207.5 194.93L210.286 192.943C211.39 193.679 212.638 194.215 213.977 194.504L214.542 197.883H217.813L218.372 194.543C219.731 194.274 220.994 193.747 222.117 193.02L224.881 194.992L227.194 192.679L225.245 189.946C225.994 188.825 226.538 187.556 226.826 186.192L230.149 185.635ZM216.266 191.976C211.837 191.976 208.246 188.385 208.246 183.956C208.246 179.527 211.837 175.936 216.266 175.936C220.695 175.936 224.286 179.527 224.286 183.956C224.286 188.385 220.695 191.976 216.266 191.976Z" fill="white" stroke="#263238" stroke-miterlimit="10" stroke-linecap="round" stroke-linejoin="round"/>
<path d="M229.184 201.246H202.212V203.457H229.184V201.246Z" fill="white" stroke="#263238" stroke-miterlimit="10" stroke-linecap="round" stroke-linejoin="round"/>
<path d="M215.698 201.246H202.212V203.457H215.698V201.246Z" fill="#263238" stroke="#263238" stroke-miterlimit="10" stroke-linecap="round" stroke-linejoin="round"/>
<path d="M177.466 208.038H145.184C142.223 208.038 139.822 205.637 139.822 202.676V170.394C139.822 167.433 142.223 165.032 145.184 165.032H177.466C180.427 165.032 182.828 167.433 182.828 170.394V202.676C182.828 205.638 180.427 208.038 177.466 208.038Z" fill="white" stroke="#263238" stroke-miterlimit="10" stroke-linecap="round" stroke-linejoin="round"/>
<path d="M164.71 200.967C172.679 199.098 177.624 191.123 175.756 183.154C173.887 175.184 165.912 170.239 157.942 172.108C149.973 173.976 145.027 181.952 146.896 189.921C148.765 197.89 156.74 202.836 164.71 200.967Z" fill="#263238" stroke="#263238" stroke-miterlimit="10" stroke-linecap="round" stroke-linejoin="round"/>
<path d="M156.653 192.603L161.324 186.535V175.675" stroke="white" stroke-miterlimit="10" stroke-linecap="round" stroke-linejoin="round"/>
<path d="M122.568 208.038H90.285C87.324 208.038 84.923 205.637 84.923 202.676V170.394C84.923 167.433 87.324 165.032 90.285 165.032H122.567C125.528 165.032 127.929 167.433 127.929 170.394V202.676C127.93 205.638 125.529 208.038 122.568 208.038Z" fill="white" stroke="#263238" stroke-miterlimit="10" stroke-linecap="round" stroke-linejoin="round"/>
<path d="M101.755 192.603L106.427 186.535V175.675" stroke="white" stroke-miterlimit="10" stroke-linecap="round" stroke-linejoin="round"/>
<path d="M118.468 185.563L98.937 174.287V196.839L118.468 185.563Z" fill="#263238" stroke="#263238" stroke-miterlimit="10" stroke-linecap="round" stroke-linejoin="round"/>
<path d="M232.68 271.403H199.764C196.928 271.403 194.629 269.104 194.629 266.268V233.352C194.629 230.516 196.928 228.217 199.764 228.217H232.68C235.516 228.217 237.815 230.516 237.815 233.352V266.268C237.816 269.103 235.517 271.403 232.68 271.403Z" fill="white" stroke="#263238" stroke-miterlimit="10" stroke-linecap="round" stroke-linejoin="round"/>
<path d="M215.595 236.995C207.916 236.995 201.69 241.975 201.69 248.119C201.69 252.09 204.3 255.566 208.214 257.534L205.862 263.414L213.296 259.078C214.046 259.178 214.811 259.243 215.596 259.243C223.276 259.243 229.501 254.263 229.501 248.119C229.5 241.975 223.275 236.995 215.595 236.995Z" fill="#263238" stroke="#263238" stroke-miterlimit="10" stroke-linecap="round" stroke-linejoin="round"/>
<path d="M232.68 334.624H199.764C196.928 334.624 194.629 332.325 194.629 329.489V296.573C194.629 293.737 196.928 291.438 199.764 291.438H232.68C235.516 291.438 237.815 293.737 237.815 296.573V329.489C237.816 332.325 235.517 334.624 232.68 334.624Z" fill="#3B99FF" stroke="#263238" stroke-miterlimit="10" stroke-linecap="round" stroke-linejoin="round"/>
<path d="M230.149 312.079V308.807L226.847 308.255C226.571 306.888 226.034 305.617 225.295 304.49L227.257 301.739L224.944 299.426L222.199 301.385C221.081 300.648 219.82 300.109 218.463 299.829L217.902 296.473H214.631L214.07 299.829C212.726 300.107 211.477 300.639 210.367 301.365L207.563 299.365L205.25 301.678L207.246 304.477C206.522 305.578 205.992 306.818 205.709 308.15L202.296 308.721V311.993L205.687 312.56C205.958 313.895 206.482 315.137 207.197 316.244L205.187 319.061L207.5 321.374L210.286 319.387C211.39 320.123 212.638 320.659 213.977 320.948L214.542 324.327H217.813L218.372 320.987C219.731 320.718 220.994 320.19 222.117 319.464L224.881 321.436L227.194 319.123L225.245 316.39C225.994 315.269 226.538 314 226.826 312.636L230.149 312.079ZM216.266 318.419C211.837 318.419 208.246 314.828 208.246 310.399C208.246 305.97 211.837 302.379 216.266 302.379C220.695 302.379 224.286 305.97 224.286 310.399C224.286 314.829 220.695 318.419 216.266 318.419Z" fill="white" stroke="#263238" stroke-miterlimit="10" stroke-linecap="round" stroke-linejoin="round"/>
<path d="M229.184 327.689H202.212V329.9H229.184V327.689Z" fill="white" stroke="#263238" stroke-miterlimit="10" stroke-linecap="round" stroke-linejoin="round"/>
<path d="M206.674 327.689H202.212V329.9H206.674V327.689Z" fill="#263238" stroke="#263238" stroke-miterlimit="10" stroke-linecap="round" stroke-linejoin="round"/>
<path d="M122.568 271.26H90.285C87.324 271.26 84.923 268.859 84.923 265.898V233.616C84.923 230.655 87.324 228.254 90.285 228.254H122.567C125.528 228.254 127.929 230.655 127.929 233.616V265.898C127.93 268.859 125.529 271.26 122.568 271.26Z" fill="#3B99FF" stroke="#263238" stroke-miterlimit="10" stroke-linecap="round" stroke-linejoin="round"/>
<path d="M120.666 248.857V245.586L117.364 245.034C117.088 243.667 116.551 242.396 115.812 241.269L117.774 238.518L115.461 236.205L112.715 238.163C111.597 237.426 110.336 236.887 108.979 236.607L108.417 233.251H105.146L104.585 236.607C103.242 236.885 101.993 237.417 100.882 238.143L98.078 236.143L95.765 238.456L97.762 241.255C97.037 242.356 96.508 243.596 96.225 244.928L92.812 245.499V248.77L96.203 249.337C96.474 250.672 96.998 251.914 97.713 253.021L95.704 255.838L98.017 258.151L100.803 256.164C101.907 256.9 103.155 257.436 104.494 257.725L105.059 261.104H108.331L108.89 257.764C110.249 257.495 111.512 256.967 112.635 256.241L115.399 258.213L117.712 255.9L115.763 253.167C116.512 252.046 117.056 250.777 117.344 249.413L120.666 248.857ZM106.783 255.198C102.354 255.198 98.763 251.607 98.763 247.178C98.763 242.749 102.354 239.158 106.783 239.158C111.212 239.158 114.803 242.749 114.803 247.178C114.803 251.607 111.212 255.198 106.783 255.198Z" fill="white" stroke="#263238" stroke-miterlimit="10" stroke-linecap="round" stroke-linejoin="round"/>
<path d="M119.701 264.467H92.729V266.678H119.701V264.467Z" fill="white" stroke="#263238" stroke-miterlimit="10" stroke-linecap="round" stroke-linejoin="round"/>
<path d="M117.105 264.467H92.729V266.678H117.105V264.467Z" fill="#263238" stroke="#263238" stroke-miterlimit="10" stroke-linecap="round" stroke-linejoin="round"/>
<path d="M122.568 334.482H90.285C87.324 334.482 84.923 332.081 84.923 329.12V296.838C84.923 293.877 87.324 291.476 90.285 291.476H122.567C125.528 291.476 127.929 293.877 127.929 296.838V329.12C127.93 332.081 125.529 334.482 122.568 334.482Z" fill="white" stroke="#263238" stroke-miterlimit="10" stroke-linecap="round" stroke-linejoin="round"/>
<path d="M101.755 319.047L106.427 312.979V302.119" stroke="white" stroke-miterlimit="10" stroke-linecap="round" stroke-linejoin="round"/>
<path d="M120.92 303.679H91.933V322.279H120.92V303.679Z" fill="#263238" stroke="#263238" stroke-miterlimit="10" stroke-linecap="round" stroke-linejoin="round"/>
<path d="M91.933 303.679L106.185 315.757L120.716 303.846" stroke="white" stroke-miterlimit="10" stroke-linecap="round" stroke-linejoin="round"/>
<path d="M91.933 322.279L102.32 312.858" stroke="white" stroke-miterlimit="10" stroke-linecap="round" stroke-linejoin="round"/>
<path d="M120.92 322.279L110.05 312.858" stroke="white" stroke-miterlimit="10" stroke-linecap="round" stroke-linejoin="round"/>
<path d="M426.005 308.567L437.463 418.355" stroke="#263238" stroke-width="2" stroke-miterlimit="10"/>
<path d="M435.616 397.344L430.422 391.858" stroke="#263238" stroke-width="2" stroke-miterlimit="10"/>
<path d="M432 393.502C432 393.502 432.149 391.075 429.933 389.096C428.6 387.905 421.583 384.953 420.917 387.425C420.193 390.113 427.375 395.391 432 393.502Z" fill="#3B99FF" stroke="#263238" stroke-miterlimit="10"/>
<path d="M432 393.502L425.32 389.339" stroke="#263238" stroke-width="0.5" stroke-miterlimit="10"/>
<path d="M436.919 409.83L431.725 404.344" stroke="#263238" stroke-width="2" stroke-miterlimit="10"/>
<path d="M433.303 405.988C433.303 405.988 433.452 403.561 431.236 401.582C429.903 400.391 422.886 397.439 422.22 399.911C421.496 402.599 428.678 407.877 433.303 405.988Z" fill="#3B99FF" stroke="#263238" stroke-miterlimit="10"/>
<path d="M433.303 405.988L426.623 401.825" stroke="#263238" stroke-width="0.5" stroke-miterlimit="10"/>
<path d="M432.437 366.876L427.242 361.39" stroke="#263238" stroke-width="2" stroke-miterlimit="10"/>
<path d="M428.82 363.034C428.82 363.034 428.969 360.607 426.753 358.628C425.42 357.437 418.403 354.485 417.737 356.957C417.013 359.644 424.195 364.923 428.82 363.034Z" fill="#3B99FF" stroke="#263238" stroke-miterlimit="10"/>
<path d="M428.82 363.034L422.141 358.871" stroke="#263238" stroke-width="0.5" stroke-miterlimit="10"/>
<path d="M433.74 379.362L428.546 373.876" stroke="#263238" stroke-width="2" stroke-miterlimit="10"/>
<path d="M430.124 375.52C430.124 375.52 430.273 373.093 428.057 371.114C426.724 369.923 419.707 366.972 419.041 369.443C418.316 372.13 425.498 377.409 430.124 375.52Z" fill="#3B99FF" stroke="#263238" stroke-miterlimit="10"/>
<path d="M430.124 375.52L423.444 371.357" stroke="#263238" stroke-width="0.5" stroke-miterlimit="10"/>
<path d="M430.32 346.593L425.126 341.107" stroke="#263238" stroke-width="2" stroke-miterlimit="10"/>
<path d="M426.704 342.751C426.704 342.751 426.853 340.324 424.637 338.345C423.304 337.154 416.287 334.202 415.621 336.674C414.896 339.361 422.078 344.64 426.704 342.751Z" fill="#3B99FF" stroke="#263238" stroke-miterlimit="10"/>
<path d="M426.704 342.751L420.024 338.588" stroke="#263238" stroke-width="0.5" stroke-miterlimit="10"/>
<path d="M428.194 326.222L423 320.736" stroke="#263238" stroke-width="2" stroke-miterlimit="10"/>
<path d="M424.578 322.379C424.578 322.379 424.727 319.952 422.511 317.973C421.178 316.782 414.161 313.83 413.495 316.301C412.77 318.99 419.952 324.269 424.578 322.379Z" fill="#3B99FF" stroke="#263238" stroke-miterlimit="10"/>
<path d="M424.578 322.379L417.898 318.217" stroke="#263238" stroke-width="0.5" stroke-miterlimit="10"/>
<path d="M434.743 389.957L438.693 383.516" stroke="#263238" stroke-width="2" stroke-miterlimit="10"/>
<path d="M437.488 385.45C437.488 385.45 436.842 383.106 438.601 380.712C439.66 379.272 445.916 374.935 447.078 377.215C448.341 379.696 442.404 386.344 437.488 385.45Z" fill="#3B99FF" stroke="#263238" stroke-miterlimit="10"/>
<path d="M437.488 385.45L443.503 379.701" stroke="#263238" stroke-width="0.5" stroke-miterlimit="10"/>
<path d="M431.314 357.099L435.264 350.659" stroke="#263238" stroke-width="2" stroke-miterlimit="10"/>
<path d="M434.059 352.593C434.059 352.593 433.413 350.249 435.172 347.855C436.231 346.415 442.487 342.078 443.649 344.358C444.912 346.839 438.975 353.487 434.059 352.593Z" fill="#3B99FF" stroke="#263238" stroke-miterlimit="10"/>
<path d="M434.059 352.593L440.074 346.844" stroke="#263238" stroke-width="0.5" stroke-miterlimit="10"/>
<path d="M429.807 342.66L433.757 336.219" stroke="#263238" stroke-width="2" stroke-miterlimit="10"/>
<path d="M432.552 338.154C432.552 338.154 431.905 335.81 433.665 333.416C434.724 331.976 440.98 327.639 442.142 329.919C443.405 332.399 437.468 339.047 432.552 338.154Z" fill="#3B99FF" stroke="#263238" stroke-miterlimit="10"/>
<path d="M432.552 338.154L438.567 332.404" stroke="#263238" stroke-width="0.5" stroke-miterlimit="10"/>
<path d="M427.598 321.491L431.548 315.051" stroke="#263238" stroke-width="2" stroke-miterlimit="10"/>
<path d="M430.343 316.985C430.343 316.985 429.697 314.641 431.456 312.247C432.515 310.807 438.771 306.47 439.933 308.75C441.196 311.231 435.259 317.879 430.343 316.985Z" fill="#3B99FF" stroke="#263238" stroke-miterlimit="10"/>
<path d="M430.343 316.985L436.358 311.236" stroke="#263238" stroke-width="0.5" stroke-miterlimit="10"/>
<path d="M425.909 307.957C425.909 307.957 425.263 305.613 427.022 303.219C428.081 301.779 434.337 297.442 435.498 299.722C436.762 302.203 430.825 308.851 425.909 307.957Z" fill="#3B99FF" stroke="#263238" stroke-miterlimit="10"/>
<path d="M425.909 307.957L431.924 302.208" stroke="#263238" stroke-width="0.5" stroke-miterlimit="10"/>
<path d="M426.257 308.205C426.257 308.205 423.858 308.602 421.662 306.601C420.341 305.397 416.684 298.721 419.073 297.805C421.673 296.808 427.662 303.41 426.257 308.205Z" fill="#3B99FF" stroke="#263238" stroke-miterlimit="10"/>
<path d="M426.257 308.205L421.171 301.62" stroke="#263238" stroke-width="0.5" stroke-miterlimit="10"/>
<path d="M456.225 323.686L444.832 433.481" stroke="#263238" stroke-width="2" stroke-miterlimit="10"/>
<path d="M447.351 412.541L443.398 406.103" stroke="#263238" stroke-width="2" stroke-miterlimit="10"/>
<path d="M444.604 408.036C444.604 408.036 445.249 405.692 443.488 403.299C442.428 401.859 436.17 397.526 435.009 399.807C433.747 402.288 439.688 408.932 444.604 408.036Z" fill="#3B99FF" stroke="#263238" stroke-miterlimit="10"/>
<path d="M444.604 408.036L438.924 402.587" stroke="#263238" stroke-width="0.5" stroke-miterlimit="10"/>
<path d="M450.513 382.07L446.56 375.632" stroke="#263238" stroke-width="2" stroke-miterlimit="10"/>
<path d="M447.766 377.566C447.766 377.566 448.411 375.222 446.65 372.829C445.59 371.389 439.332 367.056 438.171 369.337C436.909 371.818 442.85 378.462 447.766 377.566Z" fill="#3B99FF" stroke="#263238" stroke-miterlimit="10"/>
<path d="M447.766 377.566L442.086 372.117" stroke="#263238" stroke-width="0.5" stroke-miterlimit="10"/>
<path d="M449.217 394.557L445.264 388.119" stroke="#263238" stroke-width="2" stroke-miterlimit="10"/>
<path d="M446.47 390.053C446.47 390.053 447.115 387.709 445.354 385.316C444.294 383.876 438.036 379.543 436.875 381.824C435.613 384.305 441.554 390.949 446.47 390.053Z" fill="#3B99FF" stroke="#263238" stroke-miterlimit="10"/>
<path d="M446.47 390.053L440.79 384.604" stroke="#263238" stroke-width="0.5" stroke-miterlimit="10"/>
<path d="M452.618 361.786L448.664 355.348" stroke="#263238" stroke-width="2" stroke-miterlimit="10"/>
<path d="M449.87 357.282C449.87 357.282 450.515 354.938 448.754 352.545C447.695 351.105 441.436 346.772 440.275 349.053C439.014 351.534 444.955 358.178 449.87 357.282Z" fill="#3B99FF" stroke="#263238" stroke-miterlimit="10"/>
<path d="M449.87 357.282L444.19 351.833" stroke="#263238" stroke-width="0.5" stroke-miterlimit="10"/>
<path d="M454.732 341.414L450.779 334.976" stroke="#263238" stroke-width="2" stroke-miterlimit="10"/>
<path d="M451.984 336.909C451.984 336.909 452.629 334.565 450.868 332.172C449.809 330.732 443.55 326.399 442.389 328.68C441.128 331.161 447.069 337.806 451.984 336.909Z" fill="#3B99FF" stroke="#263238" stroke-miterlimit="10"/>
<path d="M451.984 336.909L446.304 331.46" stroke="#263238" stroke-width="0.5" stroke-miterlimit="10"/>
<path d="M448.018 405.132L453.209 399.642" stroke="#263238" stroke-width="2" stroke-miterlimit="10"/>
<path d="M451.632 401.287C451.632 401.287 451.482 398.86 453.697 396.88C455.03 395.689 462.044 392.733 462.712 395.203C463.437 397.891 456.258 403.174 451.632 401.287Z" fill="#3B99FF" stroke="#263238" stroke-miterlimit="10"/>
<path d="M451.632 401.287L458.702 396.9" stroke="#263238" stroke-width="0.5" stroke-miterlimit="10"/>
<path d="M451.428 372.272L456.619 366.783" stroke="#263238" stroke-width="2" stroke-miterlimit="10"/>
<path d="M455.041 368.428C455.041 368.428 454.891 366.001 457.106 364.021C458.439 362.829 465.454 359.873 466.121 362.344C466.847 365.031 459.668 370.314 455.041 368.428Z" fill="#3B99FF" stroke="#263238" stroke-miterlimit="10"/>
<path d="M455.041 368.428L462.111 364.04" stroke="#263238" stroke-width="0.5" stroke-miterlimit="10"/>
<path d="M452.926 357.832L458.117 352.343" stroke="#263238" stroke-width="2" stroke-miterlimit="10"/>
<path d="M456.54 353.987C456.54 353.987 456.39 351.56 458.605 349.58C459.937 348.389 466.953 345.432 467.62 347.903C468.345 350.591 461.166 355.874 456.54 353.987Z" fill="#3B99FF" stroke="#263238" stroke-miterlimit="10"/>
<path d="M456.54 353.987L463.61 349.6" stroke="#263238" stroke-width="0.5" stroke-miterlimit="10"/>
<path d="M455.123 336.662L460.314 331.173" stroke="#263238" stroke-width="2" stroke-miterlimit="10"/>
<path d="M458.737 332.818C458.737 332.818 458.587 330.391 460.802 328.411C462.135 327.22 469.15 324.264 469.817 326.734C470.542 329.421 463.363 334.704 458.737 332.818Z" fill="#3B99FF" stroke="#263238" stroke-miterlimit="10"/>
<path d="M458.737 332.818L465.806 328.43" stroke="#263238" stroke-width="0.5" stroke-miterlimit="10"/>
<path d="M456.257 323.07C456.257 323.07 456.107 320.643 458.322 318.663C459.654 317.472 466.67 314.516 467.337 316.987C468.062 319.674 460.883 324.957 456.257 323.07Z" fill="#3B99FF" stroke="#263238" stroke-miterlimit="10"/>
<path d="M456.257 323.07L463.326 318.682" stroke="#263238" stroke-width="0.5" stroke-miterlimit="10"/>
<path d="M456.546 323.384C456.546 323.384 454.117 323.279 452.38 320.868C451.335 319.418 449.131 312.131 451.658 311.727C454.407 311.288 458.908 318.981 456.546 323.384Z" fill="#3B99FF" stroke="#263238" stroke-miterlimit="10"/>
<path d="M456.546 323.384L452.925 315.893" stroke="#263238" stroke-width="0.5" stroke-miterlimit="10"/>
<path d="M443.169 278.978V417.82" stroke="#263238" stroke-width="2" stroke-miterlimit="10"/>
<path d="M443.28 396.944L438.683 390.949" stroke="#263238" stroke-width="2" stroke-miterlimit="10"/>
<path d="M440.082 392.747C440.082 392.747 440.482 390.349 438.483 388.15C437.281 386.827 430.608 383.163 429.689 385.552C428.69 388.15 435.285 394.146 440.082 392.747Z" fill="#3B99FF" stroke="#263238" stroke-miterlimit="10"/>
<path d="M440.082 392.747L433.87 387.914" stroke="#263238" stroke-width="0.5" stroke-miterlimit="10"/>
<path d="M443.28 370.852L438.683 364.856" stroke="#263238" stroke-width="2" stroke-miterlimit="10"/>
<path d="M440.082 366.655C440.082 366.655 440.482 364.257 438.483 362.058C437.281 360.735 430.608 357.071 429.689 359.46C428.69 362.058 435.285 368.054 440.082 366.655Z" fill="#3B99FF" stroke="#263238" stroke-miterlimit="10"/>
<path d="M440.082 366.655L433.87 361.821" stroke="#263238" stroke-width="0.5" stroke-miterlimit="10"/>
<path d="M443.28 340.218L438.683 334.223" stroke="#263238" stroke-width="2" stroke-miterlimit="10"/>
<path d="M440.082 336.021C440.082 336.021 440.482 333.623 438.483 331.424C437.281 330.101 430.608 326.437 429.689 328.826C428.69 331.424 435.285 337.42 440.082 336.021Z" fill="#3B99FF" stroke="#263238" stroke-miterlimit="10"/>
<path d="M440.082 336.021L433.87 331.188" stroke="#263238" stroke-width="0.5" stroke-miterlimit="10"/>
<path d="M443.28 319.825L438.683 313.83" stroke="#263238" stroke-width="2" stroke-miterlimit="10"/>
<path d="M440.082 315.628C440.082 315.628 440.482 313.23 438.483 311.031C437.281 309.708 430.608 306.044 429.689 308.433C428.69 311.032 435.285 317.027 440.082 315.628Z" fill="#3B99FF" stroke="#263238" stroke-miterlimit="10"/>
<path d="M440.082 315.628L433.87 310.795" stroke="#263238" stroke-width="0.5" stroke-miterlimit="10"/>
<path d="M443.28 299.343L438.683 293.348" stroke="#263238" stroke-width="2" stroke-miterlimit="10"/>
<path d="M440.082 295.146C440.082 295.146 440.482 292.748 438.483 290.549C437.281 289.226 430.608 285.562 429.689 287.951C428.69 290.55 435.285 296.545 440.082 295.146Z" fill="#3B99FF" stroke="#263238" stroke-miterlimit="10"/>
<path d="M440.082 295.146L433.87 290.313" stroke="#263238" stroke-width="0.5" stroke-miterlimit="10"/>
<path d="M443.178 404.912L447.775 398.916" stroke="#263238" stroke-width="2" stroke-miterlimit="10"/>
<path d="M446.376 400.715C446.376 400.715 445.976 398.317 447.975 396.118C449.177 394.795 455.85 391.131 456.769 393.52C457.768 396.118 451.173 402.114 446.376 400.715Z" fill="#3B99FF" stroke="#263238" stroke-miterlimit="10"/>
<path d="M446.376 400.715L452.955 395.621" stroke="#263238" stroke-width="0.5" stroke-miterlimit="10"/>
<path d="M443.178 363.414L447.775 357.418" stroke="#263238" stroke-width="2" stroke-miterlimit="10"/>
<path d="M446.376 359.217C446.376 359.217 445.976 356.819 447.975 354.62C449.177 353.297 455.85 349.633 456.769 352.022C457.768 354.62 451.173 360.616 446.376 359.217Z" fill="#3B99FF" stroke="#263238" stroke-miterlimit="10"/>
<path d="M446.376 359.217L452.955 354.123" stroke="#263238" stroke-width="0.5" stroke-miterlimit="10"/>
<path d="M443.178 342.932L447.775 336.936" stroke="#263238" stroke-width="2" stroke-miterlimit="10"/>
<path d="M446.376 338.735C446.376 338.735 445.976 336.337 447.975 334.138C449.177 332.815 455.85 329.151 456.769 331.54C457.768 334.138 451.173 340.134 446.376 338.735Z" fill="#3B99FF" stroke="#263238" stroke-miterlimit="10"/>
<path d="M446.376 338.735L452.955 333.641" stroke="#263238" stroke-width="0.5" stroke-miterlimit="10"/>
<path d="M443.178 315.86L447.775 309.864" stroke="#263238" stroke-width="2" stroke-miterlimit="10"/>
<path d="M446.376 311.663C446.376 311.663 445.976 309.265 447.975 307.066C449.177 305.743 455.85 302.079 456.769 304.468C457.768 307.066 451.173 313.062 446.376 311.663Z" fill="#3B99FF" stroke="#263238" stroke-miterlimit="10"/>
<path d="M446.376 311.663L452.955 306.569" stroke="#263238" stroke-width="0.5" stroke-miterlimit="10"/>
<path d="M443.178 294.577L447.775 288.581" stroke="#263238" stroke-width="2" stroke-miterlimit="10"/>
<path d="M446.376 290.379C446.376 290.379 445.976 287.981 447.975 285.782C449.177 284.459 455.85 280.795 456.769 283.184C457.768 285.783 451.173 291.779 446.376 290.379Z" fill="#3B99FF" stroke="#263238" stroke-miterlimit="10"/>
<path d="M446.376 290.379L452.955 285.286" stroke="#263238" stroke-width="0.5" stroke-miterlimit="10"/>
<path d="M442.903 280.94C442.903 280.94 442.503 278.542 444.502 276.343C445.704 275.02 452.377 271.356 453.296 273.745C454.295 276.343 447.7 282.339 442.903 280.94Z" fill="#3B99FF" stroke="#263238" stroke-miterlimit="10"/>
<path d="M442.903 280.94L449.482 275.846" stroke="#263238" stroke-width="0.5" stroke-miterlimit="10"/>
<path d="M443.224 281.223C443.224 281.223 440.797 281.369 438.82 279.151C437.631 277.816 434.686 270.797 437.159 270.133C439.847 269.412 445.118 276.599 443.224 281.223Z" fill="#3B99FF" stroke="#263238" stroke-miterlimit="10"/>
<path d="M443.224 281.223L438.848 274.146" stroke="#263238" stroke-width="0.5" stroke-miterlimit="10"/>
<path d="M448.881 453.831H434.177L432.339 416.695H450.719L448.881 453.831Z" fill="#263238" stroke="#263238" stroke-miterlimit="10"/>
<path d="M413.353 184.042C407.305 178.949 408.474 170.835 408.474 170.835C408.474 170.835 383.749 193.273 382.476 200.594C381.203 207.916 399.666 234.336 402.53 238.475C402.882 238.983 403.346 239.388 403.895 239.701C403.12 241.607 402.581 243.812 402.607 246.59C402.683 254.705 411.855 251.83 415.554 249.364C419.253 246.898 418.328 242.582 418.328 242.582C418.328 242.582 413.704 244.431 413.704 242.274C413.704 240.116 418.02 236.725 418.02 236.725L417.913 236.65C418.815 235.953 419.65 235.185 420.357 234.337C425.132 228.607 417.174 222.241 415.582 218.739C413.99 215.237 416.855 212.054 422.585 207.279C428.315 202.504 419.401 189.135 413.353 184.042Z" fill="#263238" stroke="#263238" stroke-miterlimit="10" stroke-linecap="round" stroke-linejoin="round"/>
<path d="M322.671 233.328C322.671 233.328 322.91 237.864 322.432 241.684C321.954 245.504 324.581 249.682 325.894 250.637C327.207 251.592 333.773 253.741 333.773 253.741L334.847 248.011L333.892 245.624L335.205 236.91C335.205 236.91 334.25 234.164 333.056 232.254C331.862 230.344 328.639 228.315 328.401 227.957C328.162 227.599 324.223 228.435 323.865 228.435C323.507 228.435 321.716 229.151 321.716 229.151L322.671 233.328Z" fill="white" stroke="#263238" stroke-miterlimit="10" stroke-linecap="round" stroke-linejoin="round"/>
<path d="M320.64 227.497C320.64 227.497 318.59 227.665 318.339 228.479C318.088 229.293 318.948 233.984 319.459 234.419C319.971 234.853 321.364 234.422 321.367 232.517C321.37 230.611 321.177 228.246 320.64 227.497Z" fill="white" stroke="#263238" stroke-miterlimit="10" stroke-linecap="round" stroke-linejoin="round"/>
<path d="M322.967 226.937C322.967 226.937 320.732 226.937 320.388 227.797C320.044 228.657 320.56 233.815 321.076 234.331C321.592 234.847 323.139 234.503 323.311 232.44C323.483 230.376 323.483 227.797 322.967 226.937Z" fill="white" stroke="#263238" stroke-miterlimit="10" stroke-linecap="round" stroke-linejoin="round"/>
<path d="M325.349 226.071C325.349 226.071 322.829 226.071 322.441 227.04C322.053 228.009 322.635 233.825 323.216 234.407C323.798 234.989 325.542 234.601 325.736 232.275C325.931 229.948 325.931 227.041 325.349 226.071Z" fill="white" stroke="#263238" stroke-miterlimit="10" stroke-linecap="round" stroke-linejoin="round"/>
<path d="M327.636 226.085C327.636 226.085 325.116 226.085 324.728 227.054C324.34 228.023 324.922 233.839 325.503 234.421C326.085 235.003 327.829 234.615 328.023 232.289C328.218 229.962 328.218 227.054 327.636 226.085Z" fill="white" stroke="#263238" stroke-miterlimit="10" stroke-linecap="round" stroke-linejoin="round"/>
<path d="M334.033 243.725C334.033 243.725 335.002 238.685 335.196 235.971C335.39 233.257 332.288 229.961 331.513 228.992C330.738 228.023 330.738 224.533 329.381 224.533C328.024 224.533 327.636 226.084 327.636 226.084C327.636 226.084 326.861 228.604 328.218 229.961C329.575 231.318 330.932 233.45 330.932 233.45C330.932 233.45 326.861 241.204 326.861 243.337C326.861 245.47 330.738 247.99 330.738 247.99" fill="white"/>
<path d="M334.033 243.725C334.033 243.725 335.002 238.685 335.196 235.971C335.39 233.257 332.288 229.961 331.513 228.992C330.738 228.023 330.738 224.533 329.381 224.533C328.024 224.533 327.636 226.084 327.636 226.084C327.636 226.084 326.861 228.604 328.218 229.961C329.575 231.318 330.932 233.45 330.932 233.45C330.932 233.45 326.861 241.204 326.861 243.337C326.861 245.47 330.738 247.99 330.738 247.99" stroke="#263238" stroke-miterlimit="10" stroke-linecap="round" stroke-linejoin="round"/>
<path d="M334.608 247.533L333.533 256.844L359.079 265.201L358.84 251.234L334.608 247.533Z" fill="#3B99FF" stroke="#263238" stroke-miterlimit="10" stroke-linecap="round" stroke-linejoin="round"/>
<path d="M376.746 203.605C376.746 203.605 362.516 207.864 361.561 212.321C360.606 216.777 357.646 230.344 357.646 230.344C357.646 230.344 354.145 239.575 354.463 244.35C354.781 249.125 357.646 258.675 356.055 265.041C354.463 271.408 349.052 290.507 347.779 296.873C346.506 303.24 345.869 307.059 345.869 307.059L350.962 308.014L357.965 308.969C357.965 308.969 360.83 289.87 363.058 273.317C365.286 256.764 359.557 245.304 364.968 234.481C370.379 223.658 383.431 212.835 382.476 208.379C381.521 203.923 376.746 203.605 376.746 203.605Z" fill="#3B99FF" stroke="#263238" stroke-miterlimit="10" stroke-linecap="round" stroke-linejoin="round"/>
<path d="M350.961 295.6C350.961 295.6 349.051 318.838 352.871 336.027C356.691 353.217 361.147 364.994 361.147 364.994C361.147 364.994 365.604 393.007 368.787 402.875C371.97 412.743 372.925 422.293 372.288 429.933C371.651 437.573 366.24 447.441 363.693 449.351C361.146 451.261 356.053 455.718 362.42 457.309C368.786 458.901 377.013 455.242 380.883 455.081C388.523 454.763 389.478 449.669 389.478 444.895C389.478 440.12 385.021 423.886 386.295 415.609C387.568 407.333 387.887 379.957 386.613 372.635C385.34 365.314 384.703 358.629 384.703 358.629L383.748 299.102L352.234 294.646L350.961 295.6Z" fill="#263238" stroke="#263238" stroke-miterlimit="10" stroke-linecap="round" stroke-linejoin="round"/>
<path d="M386.102 420.596C378.753 423.782 374.628 423.199 372.362 421.884C372.515 424.728 372.497 427.44 372.289 429.933C371.652 437.573 366.241 447.441 363.694 449.351C361.147 451.261 356.054 455.718 362.421 457.309C368.787 458.901 377.014 455.242 380.884 455.081C388.524 454.763 389.479 449.67 389.479 444.895C389.479 440.957 386.451 429.23 386.102 420.596Z" fill="white" stroke="#263238" stroke-miterlimit="10" stroke-linecap="round" stroke-linejoin="round"/>
<path d="M389.448 444.149C389.444 444.097 389.441 444.047 389.437 443.993C389.416 443.727 389.389 443.441 389.354 443.135C389.347 443.071 389.338 443.005 389.33 442.94C389.294 442.643 389.254 442.333 389.207 442.005C389.202 441.969 389.198 441.936 389.193 441.901C389.143 441.557 389.086 441.191 389.026 440.816C389.008 440.702 388.99 440.588 388.971 440.472C388.914 440.125 388.854 439.768 388.791 439.4C388.757 439.203 388.722 439.002 388.687 438.8C388.679 438.757 388.672 438.713 388.664 438.67C388.218 439.114 387.752 439.588 387.251 440.12C382.158 445.531 375.155 451.58 367.833 451.58C364.345 451.58 363.46 450.568 363.487 449.509C360.886 451.496 356.222 455.76 362.421 457.31C368.787 458.902 377.014 455.243 380.884 455.082C388.524 454.764 389.479 449.671 389.479 444.896C389.479 444.673 389.466 444.418 389.448 444.149Z" fill="#3B99FF" stroke="#263238" stroke-miterlimit="10" stroke-linecap="round" stroke-linejoin="round"/>
<path d="M383.112 450.624C377.064 455.399 370.697 456.035 365.286 456.035C361.104 456.035 359.967 454.328 359.665 453.551C358.935 455.067 359.307 456.53 362.421 457.309C368.787 458.901 377.014 455.242 380.884 455.081C388.081 454.781 389.345 450.244 389.467 445.727C387.937 446.872 385.812 448.492 383.112 450.624Z" fill="white" stroke="#263238" stroke-miterlimit="10" stroke-linecap="round" stroke-linejoin="round"/>
<path d="M371.334 330.934C371.334 330.934 374.517 371.361 377.064 382.184C379.611 393.007 385.022 430.569 385.022 435.662C385.022 440.755 381.52 448.077 379.611 451.26C377.701 454.443 372.608 455.08 372.608 457.945C372.608 460.81 382.794 460.81 384.704 461.128C386.614 461.446 399.665 457.945 399.984 456.353C400.302 454.761 400.302 448.077 400.302 448.077C400.302 448.077 400.62 444.894 400.302 442.666C399.984 440.438 396.164 433.753 396.164 433.753C396.164 433.753 399.666 402.557 400.621 397.464C401.576 392.371 401.258 381.866 400.939 377.091C400.621 372.316 397.756 362.766 397.756 362.766L404.122 312.153L403.485 295.919C403.485 295.919 394.572 296.874 384.704 296.874C374.836 296.874 367.833 296.874 367.833 296.874L368.47 308.97" fill="#263238"/>
<path d="M371.334 330.934C371.334 330.934 374.517 371.361 377.064 382.184C379.611 393.007 385.022 430.569 385.022 435.662C385.022 440.755 381.52 448.077 379.611 451.26C377.701 454.443 372.608 455.08 372.608 457.945C372.608 460.81 382.794 460.81 384.704 461.128C386.614 461.446 399.665 457.945 399.984 456.353C400.302 454.761 400.302 448.077 400.302 448.077C400.302 448.077 400.62 444.894 400.302 442.666C399.984 440.438 396.164 433.753 396.164 433.753C396.164 433.753 399.666 402.557 400.621 397.464C401.576 392.371 401.258 381.866 400.939 377.091C400.621 372.316 397.756 362.766 397.756 362.766L404.122 312.153L403.485 295.919C403.485 295.919 394.572 296.874 384.704 296.874C374.836 296.874 367.833 296.874 367.833 296.874L368.47 308.97" stroke="#263238" stroke-miterlimit="10" stroke-linecap="round" stroke-linejoin="round"/>
<path d="M399.983 456.354C400.301 454.762 400.301 448.078 400.301 448.078C400.301 448.078 400.619 444.895 400.301 442.667C399.983 440.439 396.163 433.754 396.163 433.754C396.163 433.754 396.685 429.105 397.38 423.109C391.196 425.567 385.91 423.445 383.552 422.156C384.431 428.769 385.021 433.985 385.021 435.664C385.021 440.757 381.519 448.079 379.61 451.262C377.7 454.445 372.607 455.082 372.607 457.947C372.607 460.812 382.793 460.812 384.703 461.13C386.614 461.447 399.665 457.946 399.983 456.354Z" fill="white" stroke="#263238" stroke-miterlimit="10" stroke-linecap="round" stroke-linejoin="round"/>
<path d="M399.983 456.354C400.301 454.762 400.301 448.078 400.301 448.078C400.301 448.078 400.619 444.895 400.301 442.667C400.117 441.381 398.768 438.613 397.659 436.5C397.583 436.649 397.514 436.782 397.436 436.937C395.526 440.757 387.348 450.701 383.528 452.93C379.708 455.158 378.655 452.535 378.655 452.535H378.556C376.279 454.682 372.831 455.522 372.607 457.947C372.186 462.488 384.647 462.189 386.459 461.596C388.3 460.992 399.665 457.946 399.983 456.354Z" fill="#3B99FF" stroke="#263238" stroke-miterlimit="10" stroke-linecap="round" stroke-linejoin="round"/>
<path d="M399.983 456.354C400.189 455.326 400.261 452.18 400.287 450.076C391.472 456.985 382.33 458.293 378.431 458.536C374.757 458.766 373.26 457.138 372.998 456.812C372.787 457.153 372.646 457.524 372.607 457.945C372.186 462.486 384.647 462.187 386.459 461.594C388.3 460.992 399.665 457.946 399.983 456.354Z" fill="white" stroke="#263238" stroke-miterlimit="10" stroke-linecap="round" stroke-linejoin="round"/>
<path d="M374.836 205.196C374.836 205.196 362.421 229.389 359.557 236.073C356.692 242.758 357.965 253.581 357.965 257.401C357.965 261.221 350.962 295.6 350.962 295.6C350.962 295.6 357.329 302.285 374.2 301.648C391.071 301.011 401.257 296.873 401.257 296.873C401.257 296.873 397.437 265.359 397.437 258.674C397.437 251.989 405.713 223.34 404.759 215.7C403.804 208.06 392.344 208.697 389.479 208.06C386.614 207.425 374.836 205.196 374.836 205.196Z" fill="white" stroke="#263238" stroke-miterlimit="10" stroke-linecap="round" stroke-linejoin="round"/>
<path d="M360.59 160.034C360.59 160.034 357.027 172.252 358.299 173.779C359.572 175.306 360.844 178.87 360.844 178.87C360.844 178.87 357.026 186.252 358.044 187.27C359.062 188.288 361.353 189.052 361.353 189.052C361.353 189.052 363.644 199.997 365.68 200.506C367.716 201.015 379.68 197.706 379.68 197.706C379.68 197.706 386.807 191.342 384.007 179.888C381.207 168.434 370.007 160.288 367.971 159.27C365.936 158.252 360.59 160.034 360.59 160.034Z" fill="white" stroke="#263238" stroke-miterlimit="10" stroke-linecap="round" stroke-linejoin="round"/>
<path d="M366.954 178.361V181.161C366.954 181.161 370.108 181.355 371.635 180.337" stroke="#263238" stroke-miterlimit="10" stroke-linecap="round" stroke-linejoin="round"/>
<path d="M365.889 177.07C365.889 177.07 368.593 175.493 371.409 177.183" stroke="#263238" stroke-miterlimit="10" stroke-linecap="round" stroke-linejoin="round"/>
<path d="M363.073 177.07C363.073 177.07 364.2 174.704 368.593 174.704C372.987 174.704 375.465 176.056 375.803 176.845C376.141 177.634 375.69 178.197 375.69 178.197C375.69 178.197 375.69 182.816 374.451 184.055C373.212 185.294 368.705 186.534 366.452 185.52C364.199 184.506 362.96 180.112 362.96 179.098C362.96 178.084 363.073 177.07 363.073 177.07Z" stroke="#263238" stroke-miterlimit="10" stroke-linecap="round" stroke-linejoin="round"/>
<path d="M375.803 176.845H377.606" stroke="#263238" stroke-miterlimit="10" stroke-linecap="round" stroke-linejoin="round"/>
<path d="M363.073 177.07C363.073 177.07 361.158 175.493 360.369 177.408" stroke="#263238" stroke-miterlimit="10" stroke-linecap="round" stroke-linejoin="round"/>
<path d="M359.581 177.07C359.581 177.07 358.004 176.619 356.089 176.619C354.174 176.619 353.61 177.408 353.723 177.746C353.836 178.084 354.399 179.774 354.399 181.013C354.399 182.252 354.512 184.168 355.638 184.731C356.765 185.294 358.117 185.407 358.117 185.407" stroke="#263238" stroke-miterlimit="10" stroke-linecap="round" stroke-linejoin="round"/>
<path d="M385.34 207.106C385.34 207.106 376.745 228.752 374.517 240.848C372.289 252.944 373.244 315.654 373.244 315.654C373.244 315.654 380.884 319.792 391.707 319.156C402.53 318.519 413.671 311.516 413.671 311.516C413.671 311.516 411.124 293.053 406.986 280.002C402.848 266.951 401.256 260.903 401.256 260.903C401.256 260.903 409.532 218.566 408.896 214.109C408.26 209.653 385.34 207.106 385.34 207.106Z" fill="#3B99FF" stroke="#263238" stroke-miterlimit="10" stroke-linecap="round" stroke-linejoin="round"/>
<path d="M368.99 148.071C368.99 148.071 356.517 151.635 356.517 153.671C356.517 155.707 356.008 158.507 364.408 164.362C372.808 170.216 378.917 175.562 379.426 182.689C379.935 189.816 372.808 208.652 371.281 214.761C369.754 220.87 370.517 229.779 375.354 231.052C380.19 232.325 378.663 231.561 378.154 228.761C377.645 225.961 380.445 214.252 388.845 210.434C397.245 206.616 406.348 200.497 408.19 189.052C410.113 177.106 409.34 159.829 396.99 150.362C384.496 140.784 368.99 148.071 368.99 148.071Z" fill="#263238" stroke="#263238" stroke-miterlimit="10" stroke-linecap="round" stroke-linejoin="round"/>
<path d="M392.025 230.662L388.842 259.948L386.932 260.585V262.177L385.022 263.132L384.067 264.405L339.82 260.267C339.82 260.267 329.634 258.994 327.724 258.994C325.814 258.994 318.493 258.039 318.493 258.039C318.493 258.039 319.448 260.904 321.04 261.222C322.632 261.54 330.908 264.405 330.908 264.405C330.908 264.405 336.319 267.27 339.821 267.27C343.322 267.27 348.734 267.588 348.734 267.588C348.734 267.588 371.972 273.955 379.293 275.228C386.615 276.501 392.663 279.366 395.209 278.411C397.756 277.456 400.939 274.91 401.894 271.408C402.849 267.906 406.987 246.26 406.987 246.26C406.987 246.26 412.08 224.296 412.08 218.884C412.08 213.472 404.759 210.607 398.074 214.109" fill="#3B99FF"/>
<path d="M392.025 230.662L388.842 259.948L386.932 260.585V262.177L385.022 263.132L384.067 264.405L339.82 260.267C339.82 260.267 329.634 258.994 327.724 258.994C325.814 258.994 318.493 258.039 318.493 258.039C318.493 258.039 319.448 260.904 321.04 261.222C322.632 261.54 330.908 264.405 330.908 264.405C330.908 264.405 336.319 267.27 339.821 267.27C343.322 267.27 348.734 267.588 348.734 267.588C348.734 267.588 371.972 273.955 379.293 275.228C386.615 276.501 392.663 279.366 395.209 278.411C397.756 277.456 400.939 274.91 401.894 271.408C402.849 267.906 406.987 246.26 406.987 246.26C406.987 246.26 412.08 224.296 412.08 218.884C412.08 213.472 404.759 210.607 398.074 214.109" stroke="#263238" stroke-miterlimit="10" stroke-linecap="round" stroke-linejoin="round"/>
<path d="M385.088 276.553L381.696 264.183L339.82 260.267C339.82 260.267 329.634 258.994 327.724 258.994C325.814 258.994 318.493 258.039 318.493 258.039C318.493 258.039 319.448 260.904 321.04 261.222C322.632 261.54 330.908 264.405 330.908 264.405C330.908 264.405 336.319 267.27 339.821 267.27C343.322 267.27 348.734 267.588 348.734 267.588C348.734 267.588 371.972 273.955 379.293 275.228C381.342 275.584 383.286 276.066 385.088 276.553Z" fill="white" stroke="#263238" stroke-miterlimit="10" stroke-linecap="round" stroke-linejoin="round"/>
<path d="M389.76 272.809L390.752 274.273" stroke="#263238" stroke-miterlimit="10" stroke-linecap="round" stroke-linejoin="round"/>
<path d="M384.067 264.405L388.547 271.018" stroke="#263238" stroke-miterlimit="10" stroke-linecap="round" stroke-linejoin="round"/>
<path d="M386.932 262.176L393.299 266.633" stroke="#263238" stroke-miterlimit="10" stroke-linecap="round" stroke-linejoin="round"/>
<path d="M320.435 258.508C320.435 258.508 320.877 260.128 322.496 260.275C324.116 260.422 328.828 263.073 329.269 263.073" stroke="#263238" stroke-miterlimit="10" stroke-linecap="round" stroke-linejoin="round"/>
<path d="M325.736 258.95C325.736 258.95 327.209 260.275 328.534 260.57C329.859 260.865 334.129 262.779 334.129 262.779" stroke="#263238" stroke-miterlimit="10" stroke-linecap="round" stroke-linejoin="round"/>
<path d="M348.117 261.6C348.117 261.6 341.536 259.374 340.998 259.53C340.46 259.686 338.546 259.686 336.337 259.391C334.128 259.097 332.803 261.6 334.57 262.336C336.337 263.072 337.809 262.778 338.398 262.778C338.987 262.778 340.754 263.367 341.196 263.367" fill="white"/>
<path d="M348.117 261.6C348.117 261.6 341.536 259.374 340.998 259.53C340.46 259.686 338.546 259.686 336.337 259.391C334.128 259.097 332.803 261.6 334.57 262.336C336.337 263.072 337.809 262.778 338.398 262.778C338.987 262.778 340.754 263.367 341.196 263.367" stroke="#263238" stroke-miterlimit="10" stroke-linecap="round" stroke-linejoin="round"/>
<path d="M296.425 254.775L358.459 261.754L358.265 259.621L296.038 253.03L296.425 254.775Z" fill="white" stroke="#263238" stroke-miterlimit="10" stroke-linecap="round" stroke-linejoin="round"/>
<path d="M296.038 253.03L283.825 220.85L318.719 223.758L330.156 256.908L296.038 253.03Z" fill="white" stroke="#263238" stroke-miterlimit="10" stroke-linecap="round" stroke-linejoin="round"/>
<path d="M330.156 256.908V258.57L358.459 261.754L358.265 259.621L330.127 256.641L330.156 256.908Z" fill="#263238" stroke="#263238" stroke-miterlimit="10" stroke-linecap="round" stroke-linejoin="round"/>
</svg>
