<?xml version="1.0" encoding="UTF-8" standalone="no"?><!DOCTYPE svg PUBLIC "-//W3C//DTD SVG 1.1//EN" "http://www.w3.org/Graphics/SVG/1.1/DTD/svg11.dtd"><svg width="100%" height="100%" viewBox="0 0 1945 1945" version="1.1" xmlns="http://www.w3.org/2000/svg" xmlns:xlink="http://www.w3.org/1999/xlink" xml:space="preserve" xmlns:serif="http://www.serif.com/" style="fill-rule:evenodd;clip-rule:evenodd;stroke-linejoin:round;stroke-miterlimit:2;"><g><rect x="-104.678" y="1568.46" width="2129.8" height="1.065" style="fill:#ececec;fill-rule:nonzero;"/><rect x="1670.63" y="1637.02" width="141.087" height="1.065" style="fill:#ececec;fill-rule:nonzero;"/><rect x="1269.16" y="1648.58" width="37.029" height="1.065" style="fill:#ececec;fill-rule:nonzero;"/><rect x="1584.62" y="1597.47" width="81.75" height="1.065" style="fill:#ececec;fill-rule:nonzero;"/><rect x="118.777" y="1604.62" width="183.985" height="1.065" style="fill:#ececec;fill-rule:nonzero;"/><rect x="340.689" y="1604.62" width="26.976" height="1.065" style="fill:#ececec;fill-rule:nonzero;"/><rect x="455.336" y="1622.61" width="399.022" height="1.065" style="fill:#ececec;fill-rule:nonzero;"/><path d="M82.383,174.737c-12.822,0 -23.249,10.432 -23.249,23.249l0,1156.19c0,12.822 10.427,23.249 23.249,23.249l822.524,0c12.817,0 23.245,-10.427 23.245,-23.249l0,-1156.19c0,-12.817 -10.428,-23.249 -23.245,-23.249l-822.524,0Zm822.524,1203.75l-822.524,0c-13.41,0 -24.319,-10.904 -24.319,-24.314l0,-1156.19c0,-13.405 10.909,-24.314 24.319,-24.314l822.524,0c13.401,0 24.31,10.909 24.31,24.314l0,1156.19c0,13.41 -10.909,24.314 -24.31,24.314Z" style="fill:#ececec;fill-rule:nonzero;"/><path d="M1003.72,174.737c-12.817,0 -23.244,10.432 -23.244,23.249l0,1156.19c0,12.822 10.427,23.249 23.244,23.249l822.521,0c12.821,0 23.253,-10.427 23.253,-23.249l0,-1156.19c0,-12.817 -10.432,-23.249 -23.253,-23.249l-822.521,0Zm822.521,1203.75l-822.521,0c-13.405,0 -24.309,-10.904 -24.309,-24.314l0,-1156.19c0,-13.405 10.904,-24.314 24.309,-24.314l822.521,0c13.409,0 24.318,10.909 24.318,24.314l0,1156.19c0,13.41 -10.909,24.314 -24.318,24.314Z" style="fill:#ececec;fill-rule:nonzero;"/><rect x="501.936" y="1064.87" width="617.936" height="393.067" style="fill:#ececec;fill-rule:nonzero;"/><rect x="501.936" y="1064.87" width="617.936" height="26.635" style="fill:#e1e1e1;fill-rule:nonzero;"/><path d="M1110.68,1078.19c0,4.434 -3.591,8.025 -8.025,8.025c-4.43,0 -8.021,-3.591 -8.021,-8.025c0,-4.43 3.591,-8.021 8.021,-8.021c4.434,0 8.025,3.591 8.025,8.021Z" style="fill:#fbfdfd;fill-rule:nonzero;"/><path d="M1084.02,1078.19c0,4.434 -3.591,8.025 -8.025,8.025c-4.43,0 -8.021,-3.591 -8.021,-8.025c0,-4.43 3.591,-8.021 8.021,-8.021c4.434,0 8.025,3.591 8.025,8.021Z" style="fill:#fbfdfd;fill-rule:nonzero;"/><path d="M1057.35,1078.19c0,4.434 -3.591,8.025 -8.025,8.025c-4.43,0 -8.025,-3.591 -8.025,-8.025c0,-4.43 3.595,-8.021 8.025,-8.021c4.434,0 8.025,3.591 8.025,8.021Z" style="fill:#fbfdfd;fill-rule:nonzero;"/><rect x="847.1" y="1174.7" width="617.932" height="393.072" style="fill:#f6f8f9;fill-rule:nonzero;"/><rect x="847.1" y="1174.7" width="617.932" height="26.64" style="fill:#e1e1e1;fill-rule:nonzero;"/><path d="M1455.84,1188.02c0,4.43 -3.595,8.025 -8.025,8.025c-4.43,0 -8.025,-3.595 -8.025,-8.025c0,-4.43 3.595,-8.025 8.025,-8.025c4.43,0 8.025,3.595 8.025,8.025Z" style="fill:#fbfdfd;fill-rule:nonzero;"/><path d="M1429.18,1188.02c0,4.43 -3.595,8.025 -8.025,8.025c-4.435,0 -8.025,-3.595 -8.025,-8.025c0,-4.43 3.59,-8.025 8.025,-8.025c4.43,0 8.025,3.595 8.025,8.025Z" style="fill:#fbfdfd;fill-rule:nonzero;"/><path d="M1402.51,1188.02c0,4.43 -3.59,8.025 -8.02,8.025c-4.435,0 -8.025,-3.595 -8.025,-8.025c0,-4.43 3.59,-8.025 8.025,-8.025c4.43,0 8.02,3.595 8.02,8.025Z" style="fill:#fbfdfd;fill-rule:nonzero;"/><path d="M1025.07,309.694c-0.528,0 -1.039,0.055 -1.559,0.081c0.665,-3.612 1.057,-7.323 1.057,-11.126c0,-33.864 -27.449,-61.313 -61.313,-61.313l-0.469,0.021c-8.097,-13.997 -23.189,-23.44 -40.521,-23.44c-18.035,0 -33.664,10.214 -41.48,25.157c-4.187,-1.095 -8.562,-1.738 -13.094,-1.738c-27.824,0 -50.438,22.056 -51.465,49.629c-11.454,8.523 -18.908,22.124 -18.908,37.501c0,25.826 20.936,46.762 46.762,46.762c3.872,0 7.612,-0.524 11.211,-1.41l160.557,0c2.914,0.912 6.01,1.41 9.222,1.41c16.992,0 30.767,-13.775 30.767,-30.767c0,-16.992 -13.775,-30.767 -30.767,-30.767Z" style="fill:#ececec;fill-rule:nonzero;"/><path d="M1516.92,430.607c-0.4,0 -0.792,0.038 -1.193,0.059c0.507,-2.768 0.814,-5.605 0.814,-8.519c0,-25.928 -21.021,-46.945 -46.949,-46.945l-0.358,0.017c-6.198,-10.717 -17.754,-17.945 -31.027,-17.945c-13.806,0 -25.771,7.82 -31.76,19.261c-3.203,-0.839 -6.551,-1.333 -10.018,-1.333c-21.307,0 -38.622,16.89 -39.406,38c-8.77,6.526 -14.478,16.941 -14.478,28.714c0,19.773 16.029,35.802 35.802,35.802c3.429,0 6.73,-0.511 9.869,-1.41l120.743,0c2.492,0.895 5.163,1.41 7.961,1.41c13.013,0 23.556,-10.547 23.556,-23.556c0,-13.013 -10.543,-23.555 -23.556,-23.555Z" style="fill:#ececec;fill-rule:nonzero;"/><path d="M545.729,464.684c-0.4,0 -0.792,0.038 -1.193,0.059c0.507,-2.768 0.81,-5.605 0.81,-8.519c0,-25.928 -21.017,-46.945 -46.945,-46.945l-0.358,0.017c-6.198,-10.717 -17.754,-17.946 -31.027,-17.946c-13.805,0 -25.775,7.821 -31.76,19.262c-3.203,-0.839 -6.551,-1.333 -10.022,-1.333c-21.303,0 -38.618,16.889 -39.402,38c-8.77,6.526 -14.478,16.94 -14.478,28.71c0,19.777 16.029,35.806 35.802,35.806c3.429,0 6.73,-0.511 9.869,-1.41l120.743,0c2.492,0.894 5.163,1.41 7.961,1.41c13.013,0 23.556,-10.547 23.556,-23.556c0,-13.013 -10.543,-23.555 -23.556,-23.555Z" style="fill:#ececec;fill-rule:nonzero;"/><g><path d="M230.898,1416.74l-5.359,-7.45c-1.959,-2.731 -5.09,-4.366 -8.34,-4.366l-37.744,0c-3.251,0 -6.194,1.635 -7.838,4.366l-4.498,7.45c-1.644,2.73 -4.584,4.366 -7.838,4.366l-22.52,0c-5.372,0 -9.47,4.392 -9.159,9.805l7.293,126.046c0.315,5.414 4.92,9.802 10.291,9.802l178.507,0c5.367,0 9.469,-4.388 9.154,-9.802l-7.292,-126.046c-0.311,-5.413 -4.92,-9.805 -10.292,-9.805l-76.021,0c-3.254,0 -6.385,-1.636 -8.344,-4.366Z" style="fill:#e1e1e1;fill-rule:nonzero;"/><path d="M333.107,1433.12l-163.539,0c-6.815,0 -12.838,5.482 -13.448,12.246l-9.831,109.148c-0.609,6.765 4.426,12.247 11.241,12.247l163.539,0c6.82,0 12.839,-5.482 13.448,-12.247l9.831,-109.148c0.609,-6.764 -4.422,-12.246 -11.241,-12.246Z" style="fill:#f1f2f3;fill-rule:nonzero;"/></g><path d="M1674.62,1418.54l-5.359,-7.454c-1.959,-2.726 -5.09,-4.362 -8.34,-4.362l-37.744,0c-3.25,0 -6.194,1.636 -7.838,4.362l-4.494,7.454c-1.648,2.726 -4.587,4.366 -7.837,4.366l-22.525,0c-5.372,0 -9.469,4.388 -9.158,9.806l7.292,126.046c0.315,5.414 4.92,9.801 10.291,9.801l178.503,0c5.372,0 9.469,-4.387 9.158,-9.801l-7.292,-126.046c-0.315,-5.418 -4.92,-9.806 -10.291,-9.806l-76.021,0c-3.255,0 -6.381,-1.64 -8.345,-4.366Z" style="fill:#e1e1e1;fill-rule:nonzero;"/><path d="M1776.83,1434.92l-163.539,0c-6.815,0 -12.838,5.483 -13.447,12.247l-9.831,109.148c-0.61,6.764 4.425,12.246 11.241,12.246l163.538,0c6.816,0 12.839,-5.482 13.448,-12.246l9.831,-109.148c0.609,-6.764 -4.426,-12.247 -11.241,-12.247Z" style="fill:#f1f2f3;fill-rule:nonzero;"/><path d="M1160.3,1316.7l-5.359,-7.451c-1.959,-2.73 -5.09,-4.366 -8.34,-4.366l-37.744,0c-3.25,0 -6.19,1.636 -7.838,4.366l-4.494,7.451c-1.644,2.726 -4.588,4.366 -7.838,4.366l-22.524,0c-5.368,0 -9.469,4.391 -9.154,9.805l7.292,126.046c0.311,5.414 4.92,9.801 10.287,9.801l178.507,0c5.367,0 9.469,-4.387 9.154,-9.801l-7.292,-126.046c-0.311,-5.414 -4.92,-9.805 -10.292,-9.805l-76.021,0c-3.25,0 -6.381,-1.64 -8.344,-4.366Z" style="fill:#e1e1e1;fill-rule:nonzero;"/><path d="M1262.51,1333.08l-163.535,0c-6.819,0 -12.842,5.482 -13.451,12.246l-9.832,109.148c-0.609,6.764 4.426,12.246 11.246,12.246l163.534,0c6.82,0 12.839,-5.482 13.448,-12.246l9.831,-109.148c0.609,-6.764 -4.421,-12.246 -11.241,-12.246Z" style="fill:#f1f2f3;fill-rule:nonzero;"/><path d="M1786.11,1712.6c0,26.639 -369.763,48.236 -825.89,48.236c-456.126,0 -825.889,-21.597 -825.889,-48.236c0,-26.635 369.763,-48.232 825.889,-48.232c456.127,0 825.89,21.597 825.89,48.232Z" style="fill:#f6f8f9;fill-rule:nonzero;"/><path d="M583.793,1242.64l-424.601,0c-5.58,0 -10.104,-4.523 -10.104,-10.103l0,-741.81c0,-5.584 4.524,-10.108 10.104,-10.108l424.601,0c5.58,0 10.104,4.524 10.104,10.108l0,741.81c0,5.58 -4.524,10.103 -10.104,10.103Z" style="fill:#3e75bb;fill-rule:nonzero;"/><path d="M358.149,1242.64l-198.957,0c-5.58,0 -10.104,-4.523 -10.104,-10.103l0,-741.81c0,-5.584 4.524,-10.108 10.104,-10.108l401.045,0l0,19.058l-32.535,0c-3.722,0 -6.977,2.019 -8.727,5.022l-339.682,0l0,11.36l338.318,0l0,61.095l-39.955,0l0,11.361l39.955,0l0,49.65l-295.693,0l0,11.36l295.693,0l0,11.36l-338.318,0l0,11.357l338.318,0l0,11.36l-338.318,0l0,11.36l301.626,0c-1.022,1.576 -1.614,3.459 -1.614,5.478l-37.502,0c-4.068,0 -7.573,2.411 -9.171,5.878l-253.339,0l0,11.361l252.419,0l0,11.36l-252.419,0l0,11.356l252.419,0l0,29.902l-209.794,0l0,11.361l209.794,0l0,11.356l-252.419,0l0,11.36l252.419,0l0,11.361l-252.419,0l0,11.356l252.419,0l0,11.36l-252.419,0l0,11.36l252.419,0l0,11.357l-252.419,0l0,11.36l252.419,0l0,29.898l-209.794,0l0,11.36l217.883,0c0.648,0.132 1.312,0.201 2.002,0.201l152.094,0l0,10.572l-71.579,0c-1.192,0 -2.338,0.204 -3.399,0.588l-339.626,0l0,11.356l332.939,0l0,11.36l-332.939,0l0,11.361l332.939,0l0,11.356l-332.939,0l0,11.36l332.939,0l0,11.36l-332.939,0l0,11.356l332.939,0l0,34.167l-290.314,0l0,11.356l290.314,0l0,11.36l-332.939,0l0,11.361l181.548,0c-1.67,1.797 -2.692,4.208 -2.692,6.857l0,4.499l-178.856,0l0,11.36l178.856,0l0,11.36l-178.856,0l0,11.356l178.856,0l0,11.361l-178.856,0l0,11.36l178.856,0l0,101.587Zm-178.856,-628.572l83.773,0l0,-11.36l-83.773,0l0,11.36Zm0,-25.553l83.773,0l0,-11.361l-83.773,0l0,11.361Zm142.177,-52.576l83.773,0l0,-11.361l-83.773,0l0,11.361Z" style="fill:#c2d7ef;fill-rule:nonzero;"/><rect x="179.293" y="577.158" width="83.774" height="11.36" style="fill:#3e75bb;fill-rule:nonzero;"/><rect x="179.293" y="602.712" width="83.774" height="11.36" style="fill:#3e75bb;fill-rule:nonzero;"/><rect x="477.656" y="577.158" width="83.769" height="11.36" style="fill:#3e75bb;fill-rule:nonzero;"/><rect x="321.47" y="524.582" width="83.774" height="11.36" style="fill:#3e75bb;fill-rule:nonzero;"/><rect x="179.293" y="504.703" width="382.133" height="11.36" style="fill:#3e75bb;fill-rule:nonzero;"/><rect x="221.918" y="638.169" width="339.507" height="11.36" style="fill:#3e75bb;fill-rule:nonzero;"/><rect x="179.293" y="660.889" width="382.133" height="11.356" style="fill:#3e75bb;fill-rule:nonzero;"/><rect x="179.293" y="683.606" width="382.133" height="11.36" style="fill:#3e75bb;fill-rule:nonzero;"/><rect x="179.293" y="706.322" width="382.133" height="11.36" style="fill:#3e75bb;fill-rule:nonzero;"/><rect x="179.293" y="729.043" width="339.511" height="11.356" style="fill:#3e75bb;fill-rule:nonzero;"/><rect x="221.918" y="770.301" width="339.507" height="11.36" style="fill:#3e75bb;fill-rule:nonzero;"/><rect x="179.293" y="793.018" width="382.133" height="11.36" style="fill:#3e75bb;fill-rule:nonzero;"/><rect x="179.293" y="815.739" width="382.133" height="11.356" style="fill:#3e75bb;fill-rule:nonzero;"/><rect x="179.293" y="838.455" width="382.133" height="11.36" style="fill:#3e75bb;fill-rule:nonzero;"/><rect x="179.293" y="861.172" width="339.511" height="11.36" style="fill:#3e75bb;fill-rule:nonzero;"/><rect x="221.918" y="902.43" width="339.507" height="11.36" style="fill:#3e75bb;fill-rule:nonzero;"/><rect x="179.293" y="925.151" width="382.133" height="11.356" style="fill:#3e75bb;fill-rule:nonzero;"/><rect x="179.293" y="947.867" width="382.133" height="11.36" style="fill:#3e75bb;fill-rule:nonzero;"/><rect x="179.293" y="970.584" width="382.133" height="11.36" style="fill:#3e75bb;fill-rule:nonzero;"/><rect x="179.293" y="993.304" width="339.511" height="11.356" style="fill:#3e75bb;fill-rule:nonzero;"/><rect x="221.918" y="1038.83" width="339.507" height="11.356" style="fill:#3e75bb;fill-rule:nonzero;"/><rect x="179.293" y="1061.54" width="382.133" height="11.36" style="fill:#3e75bb;fill-rule:nonzero;"/><rect x="179.293" y="1084.26" width="382.133" height="11.36" style="fill:#3e75bb;fill-rule:nonzero;"/><rect x="179.293" y="1106.98" width="382.133" height="11.356" style="fill:#3e75bb;fill-rule:nonzero;"/><rect x="179.293" y="1129.7" width="339.511" height="11.36" style="fill:#3e75bb;fill-rule:nonzero;"/><rect x="477.656" y="1195.19" width="83.769" height="11.36" style="fill:#3e75bb;fill-rule:nonzero;"/><rect x="179.293" y="577.158" width="83.774" height="11.36" style="fill:#608dc9;fill-rule:nonzero;"/><rect x="179.293" y="602.712" width="83.774" height="11.36" style="fill:#608dc9;fill-rule:nonzero;"/><rect x="477.656" y="577.158" width="39.955" height="11.36" style="fill:#608dc9;fill-rule:nonzero;"/><rect x="321.47" y="524.582" width="83.774" height="11.36" style="fill:#608dc9;fill-rule:nonzero;"/><path d="M517.611,516.063l-338.318,0l0,-11.36l339.682,0c-0.865,1.49 -1.364,3.224 -1.364,5.069l0,6.291Z" style="fill:#608dc9;fill-rule:nonzero;"/><rect x="221.918" y="638.169" width="295.693" height="11.36" style="fill:#608dc9;fill-rule:nonzero;"/><rect x="179.293" y="660.889" width="338.319" height="11.356" style="fill:#608dc9;fill-rule:nonzero;"/><path d="M480.919,694.966l-301.626,0l0,-11.36l338.318,0l0,6.747l-28.219,0c-3.553,0 -6.675,1.836 -8.473,4.613Z" style="fill:#608dc9;fill-rule:nonzero;"/><path d="M431.712,717.683l-252.419,0l0,-11.361l253.339,0c-0.592,1.282 -0.92,2.709 -0.92,4.213l0,7.148Z" style="fill:#608dc9;fill-rule:nonzero;"/><rect x="179.293" y="729.043" width="252.42" height="11.356" style="fill:#608dc9;fill-rule:nonzero;"/><rect x="221.918" y="770.301" width="209.794" height="11.36" style="fill:#608dc9;fill-rule:nonzero;"/><rect x="179.293" y="793.018" width="252.42" height="11.36" style="fill:#608dc9;fill-rule:nonzero;"/><rect x="179.293" y="815.739" width="252.42" height="11.356" style="fill:#608dc9;fill-rule:nonzero;"/><rect x="179.293" y="838.455" width="252.42" height="11.36" style="fill:#608dc9;fill-rule:nonzero;"/><rect x="179.293" y="861.172" width="252.42" height="11.36" style="fill:#608dc9;fill-rule:nonzero;"/><path d="M439.801,913.79l-217.883,0l0,-11.36l209.794,0l0,1.47c0,4.885 3.476,8.962 8.089,9.89Z" style="fill:#608dc9;fill-rule:nonzero;"/><path d="M512.232,936.507l-332.939,0l0,-11.356l339.626,0c-3.902,1.397 -6.687,5.124 -6.687,9.503l0,1.853Z" style="fill:#608dc9;fill-rule:nonzero;"/><rect x="179.293" y="947.867" width="332.939" height="11.36" style="fill:#608dc9;fill-rule:nonzero;"/><rect x="179.293" y="970.584" width="332.939" height="11.36" style="fill:#608dc9;fill-rule:nonzero;"/><rect x="179.293" y="993.304" width="332.939" height="11.356" style="fill:#608dc9;fill-rule:nonzero;"/><rect x="221.918" y="1038.83" width="290.313" height="11.356" style="fill:#608dc9;fill-rule:nonzero;"/><path d="M360.841,1072.9l-181.548,0l0,-11.361l332.939,0l0,8.127l-143.992,0c-2.922,0 -5.559,1.244 -7.399,3.234Z" style="fill:#608dc9;fill-rule:nonzero;"/><rect x="179.293" y="1084.26" width="178.856" height="11.36" style="fill:#608dc9;fill-rule:nonzero;"/><rect x="179.293" y="1106.98" width="178.856" height="11.356" style="fill:#608dc9;fill-rule:nonzero;"/><rect x="179.293" y="1129.7" width="178.856" height="11.36" style="fill:#608dc9;fill-rule:nonzero;"/><path d="M389.853,1283.22l-21.613,0c-5.571,0 -10.091,-4.515 -10.091,-10.091l0,-30.482l31.704,0l0,40.573Z" style="fill:#e6e6e6;fill-rule:nonzero;"/><path d="M389.853,1242.64l-31.704,0l0,-101.587l31.704,0l0,101.587Zm0,-112.947l-31.704,0l0,-11.361l31.87,0c-0.11,0.597 -0.166,1.21 -0.166,1.841l0,9.52Zm122.379,-22.717l-154.083,0l0,-11.36l154.083,0l0,11.36Zm0,-22.72l-154.083,0l0,-4.499c0,-2.649 1.022,-5.06 2.692,-6.857l151.391,0l0,11.356Z" style="fill:#abc2e5;fill-rule:nonzero;"/><path d="M512.232,1072.9l-151.391,0c1.84,-1.99 4.477,-3.234 7.399,-3.234l143.992,0l0,3.234Z" style="fill:#5181c2;fill-rule:nonzero;"/><rect x="358.149" y="1084.26" width="154.083" height="11.36" style="fill:#5181c2;fill-rule:nonzero;"/><path d="M390.019,1118.34l-31.87,0l0,-11.356l154.083,0l0,3.106l-112.292,0c-4.941,0 -9.056,3.556 -9.921,8.25Z" style="fill:#5181c2;fill-rule:nonzero;"/><rect x="358.149" y="1129.7" width="31.704" height="11.36" style="fill:#5181c2;fill-rule:nonzero;"/><path d="M636.808,1323.63l-236.868,0c-5.572,0 -10.087,-4.519 -10.087,-10.091l0,-193.364c0,-5.572 4.515,-10.091 10.087,-10.091l236.868,0c5.571,0 10.087,4.519 10.087,10.091l0,193.364c0,5.572 -4.516,10.091 -10.087,10.091Z" style="fill:#3e75bb;fill-rule:nonzero;"/><path d="M636.808,1323.63l-236.868,0c-5.572,0 -10.087,-4.519 -10.087,-10.091l0,-193.364c0,-5.572 4.515,-10.091 10.087,-10.091l112.292,0l0,17.932c0,3.587 1.87,6.735 4.694,8.524l-46.558,0l0,29.817l144.827,0l0,-28.254l31.7,0l0,175.436c0,5.572 -4.516,10.091 -10.087,10.091Z" style="fill:#749dd3;fill-rule:nonzero;"/><rect x="414.993" y="1234.51" width="51.115" height="25.558" style="fill:#3e75bb;fill-rule:nonzero;"/><rect x="470.368" y="1234.51" width="144.826" height="25.558" style="fill:#3e75bb;fill-rule:nonzero;"/><rect x="414.993" y="1200.44" width="51.115" height="29.817" style="fill:#3e75bb;fill-rule:nonzero;"/><rect x="414.993" y="1170.62" width="51.115" height="25.558" style="fill:#3e75bb;fill-rule:nonzero;"/><rect x="470.368" y="1200.44" width="144.826" height="29.817" style="fill:#3e75bb;fill-rule:nonzero;"/><rect x="470.368" y="1264.33" width="144.826" height="29.817" style="fill:#3e75bb;fill-rule:nonzero;"/><rect x="470.368" y="1170.62" width="144.826" height="25.558" style="fill:#3e75bb;fill-rule:nonzero;"/><rect x="414.993" y="1264.33" width="51.115" height="29.817" style="fill:#3e75bb;fill-rule:nonzero;"/><rect x="414.993" y="1136.54" width="51.115" height="29.817" style="fill:#3e75bb;fill-rule:nonzero;"/><rect x="470.368" y="1136.54" width="144.826" height="29.817" style="fill:#3e75bb;fill-rule:nonzero;"/><path d="M601.364,913.991l-7.467,0l0,-10.091l94.861,0c0,2.704 -1.065,5.158 -2.794,6.968l-77.304,0c-2.866,0 -5.456,1.197 -7.296,3.123Z" style="fill:#e6e6e6;fill-rule:nonzero;"/><path d="M593.897,913.991l-152.094,0c-0.69,0 -1.354,-0.069 -2.002,-0.201l121.625,0l0,-9.89l32.471,0l0,10.091Zm-109.745,-11.561l-52.44,0l0,-29.898l47.593,0l0,21.277c0,3.654 1.938,6.853 4.847,8.621Z" style="fill:#abc2e5;fill-rule:nonzero;"/><rect x="431.712" y="849.815" width="47.593" height="11.356" style="fill:#abc2e5;fill-rule:nonzero;"/><rect x="431.712" y="827.095" width="47.593" height="11.36" style="fill:#abc2e5;fill-rule:nonzero;"/><rect x="431.712" y="804.378" width="47.593" height="11.36" style="fill:#abc2e5;fill-rule:nonzero;"/><rect x="431.712" y="781.662" width="47.593" height="11.356" style="fill:#abc2e5;fill-rule:nonzero;"/><rect x="431.712" y="740.399" width="47.593" height="29.902" style="fill:#abc2e5;fill-rule:nonzero;"/><rect x="431.712" y="717.683" width="47.593" height="11.36" style="fill:#abc2e5;fill-rule:nonzero;"/><path d="M479.305,706.322l-46.673,0c1.598,-3.467 5.103,-5.878 9.171,-5.878l37.502,0l0,5.878Z" style="fill:#abc2e5;fill-rule:nonzero;"/><path d="M479.305,717.683l-47.593,0l0,-7.148c0,-1.504 0.328,-2.931 0.92,-4.213l46.673,0l0,11.361Z" style="fill:#5181c2;fill-rule:nonzero;"/><rect x="431.712" y="729.043" width="47.593" height="11.356" style="fill:#5181c2;fill-rule:nonzero;"/><rect x="431.712" y="770.301" width="47.593" height="11.36" style="fill:#5181c2;fill-rule:nonzero;"/><rect x="431.712" y="793.018" width="47.593" height="11.36" style="fill:#5181c2;fill-rule:nonzero;"/><rect x="431.712" y="815.739" width="47.593" height="11.356" style="fill:#5181c2;fill-rule:nonzero;"/><rect x="431.712" y="838.455" width="47.593" height="11.36" style="fill:#5181c2;fill-rule:nonzero;"/><rect x="431.712" y="861.172" width="47.593" height="11.36" style="fill:#5181c2;fill-rule:nonzero;"/><path d="M561.426,913.79l-121.625,0c-4.613,-0.928 -8.089,-5.005 -8.089,-9.89l0,-1.47l52.44,0c1.525,0.933 3.323,1.47 5.24,1.47l72.034,0l0,9.89Z" style="fill:#5181c2;fill-rule:nonzero;"/><path d="M726.26,903.9l-236.868,0c-5.572,0 -10.087,-4.52 -10.087,-10.091l0,-193.365c0,-5.572 4.515,-10.091 10.087,-10.091l236.868,0c5.571,0 10.086,4.519 10.086,10.091l0,193.365c0,5.571 -4.515,10.091 -10.086,10.091Z" style="fill:#3e75bb;fill-rule:nonzero;"/><path d="M726.26,903.9l-236.868,0c-1.917,0 -3.715,-0.537 -5.24,-1.47c-2.909,-1.768 -4.847,-4.967 -4.847,-8.621l0,-193.365c0,-5.572 4.515,-10.091 10.087,-10.091l28.219,0l0,12.783c0,5.572 4.52,10.091 10.091,10.091l208.644,0l0,180.582c0,5.571 -4.515,10.091 -10.086,10.091Z" style="fill:#749dd3;fill-rule:nonzero;"/><rect x="645.012" y="719.101" width="63.894" height="29.817" style="fill:#3e75bb;fill-rule:nonzero;"/><rect x="576.858" y="719.101" width="63.894" height="29.817" style="fill:#3e75bb;fill-rule:nonzero;"/><rect x="576.858" y="748.918" width="63.894" height="127.788" style="fill:#3e75bb;fill-rule:nonzero;"/><rect x="645.012" y="748.918" width="63.894" height="127.788" style="fill:#3e75bb;fill-rule:nonzero;"/><rect x="508.705" y="719.101" width="63.894" height="29.817" style="fill:#3e75bb;fill-rule:nonzero;"/><rect x="508.705" y="748.918" width="63.894" height="127.788" style="fill:#3e75bb;fill-rule:nonzero;"/><path d="M759.186,1138.11l-112.291,0l0,-13.69l122.378,0l0,3.603c0,5.572 -4.515,10.087 -10.087,10.087Z" style="fill:#d5d4d4;fill-rule:nonzero;"/><rect x="593.897" y="924.563" width="4.677" height="140.311" style="fill:#e6e6e6;fill-rule:nonzero;"/><rect x="593.897" y="1064.87" width="4.677" height="4.796" style="fill:#cbcaca;fill-rule:nonzero;"/><path d="M593.897,1069.67l-32.471,0l0,-8.127l-49.194,0l0,-11.36l49.194,0l0,-11.356l-49.194,0l0,-34.167l6.572,0l0,-11.356l-6.572,0l0,-11.36l49.194,0l0,-11.36l-49.194,0l0,-11.356l49.194,0l0,-11.361l-49.194,0l0,-11.36l49.194,0l0,-11.356l-42.507,0c1.061,-0.384 2.207,-0.588 3.399,-0.588l71.579,0l0,145.107Z" style="fill:#abc2e5;fill-rule:nonzero;"/><path d="M561.426,936.507l-49.194,0l0,-1.853c0,-4.379 2.785,-8.106 6.687,-9.503l42.507,0l0,11.356Z" style="fill:#5181c2;fill-rule:nonzero;"/><rect x="512.232" y="947.867" width="49.194" height="11.36" style="fill:#5181c2;fill-rule:nonzero;"/><rect x="512.232" y="970.584" width="49.194" height="11.36" style="fill:#5181c2;fill-rule:nonzero;"/><rect x="512.232" y="993.304" width="6.573" height="11.356" style="fill:#5181c2;fill-rule:nonzero;"/><rect x="512.232" y="1038.83" width="49.194" height="11.356" style="fill:#5181c2;fill-rule:nonzero;"/><rect x="512.232" y="1061.54" width="49.194" height="8.127" style="fill:#5181c2;fill-rule:nonzero;"/><rect x="593.897" y="1091.51" width="4.677" height="18.576" style="fill:#bfbebe;fill-rule:nonzero;"/><rect x="593.897" y="1069.67" width="4.677" height="21.839" style="fill:#b7b7b7;fill-rule:nonzero;"/><path d="M593.897,1110.09l-32.471,0l0,-3.106l-49.194,0l0,-11.36l49.194,0l0,-11.36l-49.194,0l0,-11.356l49.194,0l0,-3.234l32.471,0l0,40.416Z" style="fill:#9bafd1;fill-rule:nonzero;"/><rect x="512.232" y="1069.67" width="49.194" height="3.233" style="fill:#4676bb;fill-rule:nonzero;"/><rect x="512.232" y="1084.26" width="49.194" height="11.36" style="fill:#4676bb;fill-rule:nonzero;"/><rect x="512.232" y="1106.98" width="49.194" height="3.105" style="fill:#4676bb;fill-rule:nonzero;"/><path d="M646.895,1138.11l-31.7,0l0,-1.563l-98.269,0c-2.824,-1.789 -4.694,-4.937 -4.694,-8.524l0,-17.932l86.342,0l0,4.238c0,5.571 4.515,10.091 10.086,10.091l38.235,0l0,13.69Z" style="fill:#6490cb;fill-rule:nonzero;"/><path d="M615.195,1138.11l-92.877,0c-1.98,0 -3.833,-0.571 -5.392,-1.563l98.269,0l0,1.563Z" style="fill:#356eb6;fill-rule:nonzero;"/><path d="M845.528,1124.41l-236.868,0c-5.571,0 -10.086,-4.52 -10.086,-10.091l0,-193.365c0,-5.571 4.515,-10.091 10.086,-10.091l236.868,0c5.572,0 10.087,4.52 10.087,10.091l0,193.365c0,5.571 -4.515,10.091 -10.087,10.091Z" style="fill:#3e75bb;fill-rule:nonzero;"/><path d="M845.528,1124.41l-236.868,0c-5.571,0 -10.086,-4.52 -10.086,-10.091l0,-193.365c0,-5.571 4.515,-10.091 10.086,-10.091l138.582,0l0,29.732l-17.038,0l0,72.414l17.038,0l0,4.259l-17.038,0l0,80.933l97.971,0l0,-34.077l25.557,0l0,-53.739l1.883,0l0,103.934c0,5.571 -4.515,10.091 -10.087,10.091Z" style="fill:#749dd3;fill-rule:nonzero;"/><rect x="730.204" y="940.6" width="97.971" height="72.413" style="fill:#3e75bb;fill-rule:nonzero;"/><rect x="627.973" y="940.6" width="97.971" height="72.413" style="fill:#3e75bb;fill-rule:nonzero;"/><rect x="627.973" y="1017.27" width="97.971" height="80.932" style="fill:#3e75bb;fill-rule:nonzero;"/><rect x="730.204" y="1017.27" width="97.971" height="80.932" style="fill:#3e75bb;fill-rule:nonzero;"/><path d="M853.732,1064.13l-25.557,0l0,-46.856l-80.933,0l0,-4.259l80.933,0l0,-2.624l25.557,0l0,53.739Z" style="fill:#5582c3;fill-rule:nonzero;"/><rect x="747.242" y="910.783" width="54.996" height="0.085" style="fill:#cdcdcd;fill-rule:nonzero;"/><rect x="747.242" y="910.868" width="54.996" height="29.732" style="fill:#5582c3;fill-rule:nonzero;"/><path d="M828.175,1013.01l-80.933,0l0,-72.414l54.996,0l0,49.744c0,11.071 8.975,20.046 20.046,20.046l5.891,0l0,2.624Z" style="fill:#2b65b0;fill-rule:nonzero;"/><path d="M828.175,1064.13l-62.744,0c-11.075,0 -18.189,-7.923 -18.189,-18.998l0,-27.858l80.933,0l0,46.856Z" style="fill:#2b65b0;fill-rule:nonzero;"/><path d="M764.566,713.227l-28.22,0l0,-12.783c0,-5.572 -4.515,-10.091 -10.086,-10.091l-132.363,0l0,-15.488l180.76,0l0,28.271c0,5.572 -4.519,10.091 -10.091,10.091Z" style="fill:#e6e6e6;fill-rule:nonzero;"/><path d="M593.897,690.353l-32.471,0l0,-6.747l-43.815,0l0,-11.36l43.815,0l0,-2.71c1.704,3.174 5.047,5.329 8.898,5.329l23.573,0l0,15.488Zm-33.66,-29.464l-42.626,0l0,-11.36l42.626,0l0,11.36Zm0,-22.72l-42.626,0l0,-49.65l42.626,0l0,49.65Zm0,-61.011l-42.626,0l0,-61.095l42.626,0l0,61.095Zm0,-72.455l-41.262,0c1.75,-3.003 5.005,-5.022 8.727,-5.022l32.535,0l0,5.022Z" style="fill:#abc2e5;fill-rule:nonzero;"/><rect x="517.611" y="577.158" width="42.626" height="11.36" style="fill:#5181c2;fill-rule:nonzero;"/><path d="M560.237,516.063l-42.626,0l0,-6.291c0,-1.845 0.499,-3.579 1.364,-5.069l41.262,0l0,11.36Z" style="fill:#5181c2;fill-rule:nonzero;"/><rect x="517.611" y="638.169" width="42.626" height="11.36" style="fill:#5181c2;fill-rule:nonzero;"/><path d="M561.426,672.246l-43.815,0l0,-11.357l42.626,0l0,3.885c0,1.721 0.431,3.344 1.189,4.762l0,2.71Z" style="fill:#5181c2;fill-rule:nonzero;"/><rect x="517.611" y="683.606" width="43.814" height="6.747" style="fill:#5181c2;fill-rule:nonzero;"/><path d="M736.346,713.227l-208.644,0c-5.571,0 -10.091,-4.519 -10.091,-10.091l0,-12.783l208.649,0c5.571,0 10.086,4.519 10.086,10.091l0,12.783Z" style="fill:#6490cb;fill-rule:nonzero;"/><path d="M807.192,674.865l-236.868,0c-5.572,0 -10.087,-4.519 -10.087,-10.091l0,-193.36c0,-5.576 4.515,-10.091 10.087,-10.091l236.868,0c5.571,0 10.087,4.515 10.087,10.091l0,193.36c0,5.572 -4.516,10.091 -10.087,10.091Z" style="fill:#3e75bb;fill-rule:nonzero;"/><path d="M807.192,674.865l-236.868,0c-3.851,0 -7.194,-2.155 -8.898,-5.329c-0.758,-1.418 -1.189,-3.041 -1.189,-4.762l0,-193.36c0,-5.576 4.515,-10.091 10.087,-10.091l236.868,0c5.571,0 10.087,4.515 10.087,10.091l0,193.36c0,5.572 -4.516,10.091 -10.087,10.091Z" style="fill:#749dd3;fill-rule:nonzero;"/><rect x="662.05" y="489.087" width="80.932" height="21.298" style="fill:#3e75bb;fill-rule:nonzero;"/><rect x="662.05" y="514.644" width="38.336" height="132.043" style="fill:#3e75bb;fill-rule:nonzero;"/><rect x="747.242" y="489.087" width="42.596" height="21.298" style="fill:#3e75bb;fill-rule:nonzero;"/><rect x="747.242" y="514.644" width="42.596" height="132.043" style="fill:#3e75bb;fill-rule:nonzero;"/><rect x="704.646" y="514.644" width="38.336" height="132.043" style="fill:#3e75bb;fill-rule:nonzero;"/><rect x="589.637" y="514.644" width="68.154" height="132.043" style="fill:#3e75bb;fill-rule:nonzero;"/><rect x="589.637" y="489.087" width="68.154" height="21.298" style="fill:#3e75bb;fill-rule:nonzero;"/><path d="M1514.36,1290.72l-290.027,0c-11.071,0 -20.046,-8.971 -20.046,-20.041l0,-290.032c0,-11.071 8.975,-20.046 20.046,-20.046l290.027,0c11.071,0 20.046,8.975 20.046,20.046l0,290.032c0,11.07 -8.975,20.041 -20.046,20.041Z" style="fill:#3e75bb;fill-rule:nonzero;"/><path d="M1451.81,1247.59l-204.389,0l0,-230.317l223.451,0c-2.935,24.65 -5.892,52.312 -8.656,82.27l-6.458,6.453l-47.562,-8.536l-46.14,60.308l-61.773,-9.648l-52.862,99.172l204.402,0c-0.005,0.106 -0.009,0.191 -0.013,0.298Z" style="fill:#6a95ce;fill-rule:nonzero;"/><path d="M1247.42,1247.29l52.862,-99.172l61.773,9.648l46.14,-60.308l47.562,8.536l6.458,-6.453c-1.879,20.387 -3.672,41.829 -5.303,64.158l-30.231,25.349l-31.755,-31.265l-64.652,54.612l-20.412,-16.442l-62.442,51.337Z" style="fill:#8fb3de;fill-rule:nonzero;"/><path d="M1247.42,1247.29l62.442,-51.337l20.412,16.442l64.652,-54.612l31.755,31.265l30.231,-25.349c-1.235,16.868 -2.386,34.26 -3.412,52.031l-2.002,0.997l-42.596,-4.298l-39.551,19.807l-121.931,15.054Z" style="fill:#aac6e8;fill-rule:nonzero;"/><path d="M1451.82,1247.29l-204.402,0l121.931,-15.054l39.551,-19.807l42.596,4.298l2.002,-0.997c-0.601,10.389 -1.163,20.915 -1.678,31.56Z" style="fill:#c0d5ef;fill-rule:nonzero;"/><path d="M1204.29,1136.54l-1.269,0l0,-155.901c0,-5.58 2.598,-10.3 6.593,-13.606c-3.305,3.574 -5.324,8.358 -5.324,13.61l0,155.897Z" style="fill:#cdcdcd;fill-rule:nonzero;"/><path d="M1220.23,1136.54l-15.939,0l0,-155.897c0,-5.252 2.019,-10.036 5.324,-13.61c3.932,-3.25 9.214,-5.137 14.705,-5.137l253.778,0c-1.797,12.498 -3.676,26.499 -5.58,41.83l-225.099,0l0,13.545l-6.061,0l0,100.016c0,11.075 -10.053,19.253 -21.128,19.253Z" style="fill:#2b65b0;fill-rule:nonzero;"/><path d="M1470.87,1017.27l-223.451,0l0,-13.545l225.099,0c-0.545,4.413 -1.095,8.919 -1.648,13.545Z" style="fill:#4b7cbf;fill-rule:nonzero;"/><path d="M1112.31,1010.39l-290.027,0c-11.071,0 -20.046,-8.975 -20.046,-20.046l0,-290.028c0,-11.07 8.975,-20.045 20.046,-20.045l290.027,0c11.071,0 20.046,8.975 20.046,20.045l0,290.028c0,11.071 -8.975,20.046 -20.046,20.046Z" style="fill:#3e75bb;fill-rule:nonzero;"/><path d="M944.21,876.498l-67.506,0c-2.049,0 -3.71,-1.666 -3.71,-3.715l0,-34.958c0,-2.049 1.661,-3.715 3.71,-3.715l67.506,0c2.049,0 3.711,1.666 3.711,3.715l0,34.958c0,2.049 -1.662,3.715 -3.711,3.715Z" style="fill:#aec8e9;fill-rule:nonzero;"/><path d="M1057.89,876.498l-67.506,0c-2.049,0 -3.71,-1.666 -3.71,-3.715l0,-34.958c0,-2.049 1.661,-3.715 3.71,-3.715l67.506,0c2.049,0 3.71,1.666 3.71,3.715l0,34.958c0,2.049 -1.661,3.715 -3.71,3.715Z" style="fill:#aec8e9;fill-rule:nonzero;"/><path d="M987.991,959.999l-31.905,0c-2.049,0 -3.71,-1.662 -3.71,-3.711l0,-28.777c0,-2.054 1.661,-3.715 3.71,-3.715l31.905,0c2.053,0 3.71,1.661 3.71,3.715l0,28.777c0,2.049 -1.657,3.711 -3.71,3.711Z" style="fill:#87aedc;fill-rule:nonzero;"/><path d="M1037.94,959.999l-31.905,0c-2.053,0 -3.714,-1.662 -3.714,-3.711l0,-28.777c0,-2.054 1.661,-3.715 3.714,-3.715l31.905,0c2.049,0 3.71,1.661 3.71,3.715l0,28.777c0,2.049 -1.661,3.711 -3.71,3.711Z" style="fill:#87aedc;fill-rule:nonzero;"/><path d="M1087.89,959.999l-31.905,0c-2.053,0 -3.714,-1.662 -3.714,-3.711l0,-28.777c0,-2.054 1.661,-3.715 3.714,-3.715l31.905,0c2.049,0 3.71,1.661 3.71,3.715l0,28.777c0,2.049 -1.661,3.711 -3.71,3.711Z" style="fill:#87aedc;fill-rule:nonzero;"/><path d="M872.419,959.999l-31.904,0c-2.049,0 -3.71,-1.662 -3.71,-3.711l0,-28.777c0,-2.054 1.661,-3.715 3.71,-3.715l31.904,0c2.053,0 3.715,1.661 3.715,3.715l0,28.777c0,2.049 -1.662,3.711 -3.715,3.711Z" style="fill:#87aedc;fill-rule:nonzero;"/><path d="M926.631,959.999l-31.909,0c-2.048,0 -3.71,-1.662 -3.71,-3.711l0,-28.777c0,-2.054 1.662,-3.715 3.71,-3.715l31.909,0c2.049,0 3.71,1.661 3.71,3.715l0,28.777c0,2.049 -1.661,3.711 -3.71,3.711Z" style="fill:#87aedc;fill-rule:nonzero;"/><path d="M1024.12,834.11l-4.259,0l0,-25.557l-106.49,0l0,25.557l-4.26,0l0,-29.817l55.375,0l0,-8.519l4.26,0l0,8.519l55.374,0l0,29.817Z" style="fill:#749dd3;fill-rule:nonzero;"/><path d="M913.367,923.562l-4.26,0l0,-17.038l-51.115,0l0,17.038l-4.26,0l0,-21.298l55.375,0l0,-25.558l4.26,0l0,46.856Z" style="fill:#749dd3;fill-rule:nonzero;"/><path d="M1075.23,923.562l-4.26,0l0,-12.779l-46.856,0l0,12.779l-4.259,0l0,-12.779l-46.856,0l0,12.779l-4.259,0l0,-17.038l51.115,0l0,-29.818l4.259,0l0,29.818l51.116,0l0,17.038Z" style="fill:#749dd3;fill-rule:nonzero;"/><path d="M1130.61,795.774l-161.864,0l0,-25.558l-4.26,0l0,25.558l-67.855,0c-11.075,0 -21.597,-10.053 -21.597,-21.128l0,-93.881l237.303,0c11.032,0 18.273,8.476 18.273,19.551l0,95.458Zm-206.607,-81.077c-2.049,0 -3.71,1.661 -3.71,3.71l0,48.099c0,2.049 1.661,3.71 3.71,3.71l85.226,0c2.044,0 3.71,-1.661 3.71,-3.71l0,-48.099c0,-2.049 -1.666,-3.71 -3.71,-3.71l-85.226,0Z" style="fill:#2b65b0;fill-rule:nonzero;"/><path d="M1009.23,770.216l-85.226,0c-2.049,0 -3.71,-1.661 -3.71,-3.71l0,-48.099c0,-2.049 1.661,-3.71 3.71,-3.71l85.226,0c2.044,0 3.71,1.661 3.71,3.71l0,48.099c0,2.049 -1.666,3.71 -3.71,3.71Z" style="fill:#acb8ce;fill-rule:nonzero;"/><rect x="964.482" y="770.216" width="4.26" height="25.558" style="fill:#5582c3;fill-rule:nonzero;"/><path d="M1564.97,866.85l-290.028,0c-11.071,0 -20.046,-8.971 -20.046,-20.042l0,-290.028c0,-11.07 8.975,-20.045 20.046,-20.045l290.028,0c11.07,0 20.045,8.975 20.045,20.045l0,290.028c0,11.071 -8.975,20.042 -20.045,20.042Z" style="fill:#3e75bb;fill-rule:nonzero;"/><path d="M1479.34,823.721l-4.413,0l0,-149.38l-24.697,0l0,149.38l-17.925,0l0,-111.043l-24.697,0l0,111.043l-17.928,0l0,-138.343l-24.698,0l0,138.343l-17.924,0l0,-93.954l-8.864,0c3.327,-3.446 5.392,-8.055 5.392,-13.222l0,-117.761c16.217,10.569 44.377,22.84 72.188,33.715l-0.788,12.059l11.539,4.234l66.326,26.955l0,58.574c-5.631,30.805 -10.061,61.491 -13.511,89.4Zm-156.979,0l-25.034,0l0,-87.581l25.034,0l0,87.581Zm220.221,-231.969c-6.466,-0.631 -10.295,-0.946 -10.295,-0.946c-0.017,0.039 -0.034,0.077 -0.051,0.115l-60.534,-11.058l70.88,0l0,11.889Z" style="fill:#6a95ce;fill-rule:nonzero;"/><path d="M1347.06,823.721l-24.697,0l0,-30.631l24.697,0l0,-63.323l0,93.954Z" style="fill:#9dbde4;fill-rule:nonzero;"/><path d="M1347.06,793.09l-24.697,0l0,-56.95l0.652,0c5.912,0 11.373,-2.424 15.181,-6.373l8.864,0l0,63.323Z" style="fill:#bfd4ee;fill-rule:nonzero;"/><path d="M1389.68,823.721l-24.698,0l0,-45.101l24.698,0l0,-93.242l0,138.343Z" style="fill:#9dbde4;fill-rule:nonzero;"/><rect x="1364.98" y="685.378" width="24.697" height="93.243" style="fill:#bfd4ee;fill-rule:nonzero;"/><path d="M1432.31,823.721l-24.697,0l0,-36.198l24.697,0l0,-74.845l0,111.043Z" style="fill:#9dbde4;fill-rule:nonzero;"/><rect x="1407.61" y="712.678" width="24.697" height="74.846" style="fill:#bfd4ee;fill-rule:nonzero;"/><path d="M1474.93,823.721l-24.697,0l0,-48.7l24.697,0l0,-100.68l0,149.38Z" style="fill:#9dbde4;fill-rule:nonzero;"/><rect x="1450.23" y="674.341" width="24.697" height="100.68" style="fill:#bfd4ee;fill-rule:nonzero;"/><path d="M1492.85,734.321l0,-58.574l11.258,4.575c-3.105,13.081 -5.955,26.435 -8.583,39.844c-0.92,4.72 -1.81,9.435 -2.675,14.155Z" style="fill:#bfd4ee;fill-rule:nonzero;"/><path d="M1254.9,736.14l-0.762,0l0,-95.688l0.762,0l0,95.688Zm88.689,-199.405l-8.114,0c-0.311,-0.264 -0.622,-0.528 -0.933,-0.792l9.047,0l0,0.792Z" style="fill:#cdcdcd;fill-rule:nonzero;"/><path d="M1297.33,736.14l-42.43,0l0,-95.688l37.855,0c1.576,0 3.106,-0.183 4.575,-0.524l0,96.212Zm23.777,-156.277l-8.306,0l0,-8.353c2.828,2.922 5.601,5.717 8.306,8.353Zm22.482,-36.368c-2.585,-2.113 -5.303,-4.379 -8.114,-6.76l8.114,0l0,6.76Z" style="fill:#2b65b0;fill-rule:nonzero;"/><path d="M1322.36,736.14l-25.034,0l0,-96.212c8.869,-2.07 15.471,-10.027 15.471,-19.522l0,-40.543l8.306,0c6.509,6.351 12.583,11.765 17.865,15.714c1.401,1.048 2.948,2.117 4.617,3.207l0,117.761c0,5.167 -2.065,9.776 -5.392,13.222l-15.833,0l0,6.373Z" style="fill:#4b7cbf;fill-rule:nonzero;"/><path d="M1323.01,736.14l-0.652,0l0,-6.373l15.833,0c-3.808,3.949 -9.269,6.373 -15.181,6.373Z" style="fill:#96accf;fill-rule:nonzero;"/><path d="M1292.75,640.452l-290.027,0c-11.071,0 -20.046,-8.975 -20.046,-20.046l0,-290.028c0,-11.07 8.975,-20.045 20.046,-20.045l290.027,0c11.071,0 20.046,8.975 20.046,20.045l0,290.028c0,11.071 -8.975,20.046 -20.046,20.046Z" style="fill:#3e75bb;fill-rule:nonzero;"/><path d="M1147.74,583.646c-59.787,0 -108.253,-48.466 -108.253,-108.254l0,0.392c0,0.102 0.004,0.2 0.004,0.303l0,0.247c0,0.089 0.004,0.183 0.004,0.277l0,0.204c0.005,0.047 0.005,0.094 0.005,0.141l0,0.17c0.004,0.043 0.004,0.085 0.004,0.124l0,0.051c0,0.038 0,0.085 0.004,0.123l0,0.136c0,0.03 0.005,0.06 0.005,0.09l0,0.085c0,0.026 0,0.055 0.004,0.085l0,0.107c0,0.021 0,0.042 0.004,0.064l0,0.089c0,0.03 0,0.06 0.004,0.085l0,0.056c0,0.042 0,0.081 0.005,0.119l0,0.034c0,0.047 0,0.094 0.004,0.141l0,0.042c0,0.043 0.004,0.085 0.004,0.128l0,0.06c0.004,0.034 0.004,0.076 0.004,0.11c0,0.022 0.005,0.052 0.005,0.077c0,0.03 0,0.068 0.004,0.098l0,0.098c0.004,0.021 0.004,0.051 0.004,0.072c0,0.043 0.004,0.086 0.004,0.128l0,0.043c0.005,0.042 0.005,0.076 0.005,0.119c0.004,0.021 0.004,0.038 0.004,0.055c0,0.034 0.004,0.064 0.004,0.094c0,0.026 0,0.056 0.004,0.081c0,0.034 0,0.072 0.005,0.107l0,0.063c0,0.034 0.004,0.073 0.004,0.107c0,0.021 0.004,0.043 0.004,0.064c0,0.034 0.004,0.064 0.004,0.094c0,0.025 0,0.055 0.005,0.08c0,0.03 0,0.056 0.004,0.086c0,0.029 0,0.059 0.004,0.085c0,0.034 0,0.068 0.004,0.098l0,0.072c0.005,0.034 0.005,0.06 0.005,0.094c0.004,0.03 0.004,0.051 0.004,0.081c0.004,0.025 0.004,0.055 0.004,0.081c0.005,0.03 0.005,0.06 0.005,0.094c0.004,0.021 0.004,0.042 0.004,0.063c0.004,0.034 0.004,0.073 0.008,0.107l0,0.055c0.005,0.039 0.005,0.077 0.009,0.12l0,0.055c0.004,0.038 0.004,0.072 0.008,0.111c0,0.025 0.005,0.051 0.005,0.072c0,0.038 0.004,0.064 0.004,0.102c0.004,0.022 0.004,0.043 0.004,0.064c0.004,0.039 0.004,0.073 0.009,0.107c0,0.021 0,0.046 0.004,0.068c0,0.038 0.004,0.068 0.004,0.102c0,0.021 0.004,0.047 0.004,0.068c0.005,0.034 0.005,0.068 0.009,0.107c0,0.021 0,0.042 0.004,0.068c0,0.034 0.004,0.068 0.004,0.102c0,0.017 0.005,0.038 0.005,0.055c0.004,0.043 0.004,0.077 0.008,0.116c0,0.021 0,0.038 0.005,0.055c0,0.042 0.004,0.076 0.004,0.115c0.004,0.021 0.004,0.042 0.004,0.064c0.004,0.038 0.009,0.072 0.009,0.106c0.004,0.026 0.004,0.043 0.004,0.068c0.004,0.035 0.004,0.069 0.008,0.107c0,0.021 0.005,0.034 0.005,0.055c0.004,0.039 0.004,0.077 0.008,0.115c0,0.013 0,0.034 0.004,0.051c0,0.039 0.005,0.081 0.009,0.12c0,0.017 0,0.034 0.004,0.046c0,0.043 0.004,0.081 0.009,0.124c0,0.017 0,0.038 0.004,0.051c0,0.043 0.004,0.081 0.009,0.119c0,0.018 0,0.035 0.004,0.047c0,0.043 0.004,0.085 0.008,0.124c0,0.017 0.005,0.038 0.005,0.051c0.004,0.038 0.004,0.081 0.008,0.124c0,0.012 0.004,0.029 0.004,0.046c0.005,0.039 0.009,0.081 0.009,0.12c0.004,0.021 0.004,0.034 0.004,0.055c0.004,0.038 0.009,0.077 0.013,0.119c0,0.013 0,0.03 0.004,0.043c0,0.042 0.004,0.085 0.009,0.128c0,0.008 0.004,0.025 0.004,0.038c0.004,0.042 0.008,0.089 0.008,0.132c0.005,0.009 0.005,0.021 0.005,0.034c0.004,0.043 0.008,0.09 0.012,0.136c0,0.009 0,0.017 0.005,0.026c0.004,0.051 0.008,0.098 0.012,0.145l0,0.021c0.005,0.051 0.009,0.098 0.013,0.149c0,0.009 0.004,0.017 0.004,0.026c0.005,0.047 0.009,0.098 0.013,0.144l0,0.018c0.004,0.055 0.013,0.102 0.017,0.153l0,0.013c0.005,0.051 0.009,0.106 0.017,0.157l0,0.009c5.078,52.683 48.594,94.853 101.869,97.766l0.012,0c0.047,0 0.098,0.004 0.145,0.009l0.03,0c0.038,0 0.081,0.004 0.119,0.004c0.017,0.004 0.043,0.004 0.06,0.004c0.034,0.004 0.068,0.004 0.102,0.004c0.026,0.005 0.047,0.005 0.073,0.005c0.034,0.004 0.059,0.004 0.089,0.004c0.03,0.004 0.055,0.004 0.085,0.004c0.03,0.004 0.051,0.004 0.081,0.004c0.03,0 0.064,0.005 0.094,0.005c0.021,0 0.043,0.004 0.06,0.004c0.038,0 0.08,0.004 0.119,0.004c0.013,0 0.03,0 0.042,0.005c0.043,0 0.086,0 0.133,0.004l0.034,0c0.046,0.004 0.089,0.004 0.136,0.008l0.03,0c0.051,0 0.098,0.005 0.149,0.005l0.008,0c1.423,0.059 2.85,0.085 4.285,0.085Zm0.167,0l0.072,0l-0.072,0Zm0.153,0l0.106,0l-0.106,0Zm0.153,0l0.137,0l-0.137,0Zm0.137,0c49.287,-0.277 92.211,-34.196 104.287,-81.495c0.005,0.009 0.013,0.017 0.022,0.026c-11.872,46.647 -54.038,81.192 -104.309,81.469Zm97.834,-89.537l-98.444,-18.717l0,-108.253l-0.349,0l0.349,0c55.874,0 101.86,42.327 107.645,96.663c-0.814,-0.775 -1.248,-1.189 -1.248,-1.189l-20.532,15.518c0,0 4.827,6.262 12.579,15.978Zm-206.697,-18.717c0,-59.515 48.027,-107.81 107.436,-108.249l-0.069,0c-0.106,0 -0.212,0 -0.319,0.004l-0.192,0c-9.622,0.124 -19.185,1.529 -28.432,4.183c-9.589,2.748 -18.751,6.811 -27.228,12.068l0.085,0.136c-30.694,19.194 -51.281,53.309 -51.281,91.858Zm107.444,-108.249c0.064,0 0.128,-0.004 0.192,-0.004l-0.047,0c-0.021,0 -0.043,0 -0.064,0.004l-0.081,0Zm0.256,-0.004l0.157,0l-0.157,0Z" style="fill:#6a95ce;fill-rule:nonzero;"/><path d="M1147.74,583.646l0.167,0l-0.167,0Zm0.239,0l0.081,0l-0.081,0Zm0.187,0l0.047,0l-0.047,0Zm0.184,0c0,0 -0.005,0 0,0Z" style="fill:#6a95ce;fill-rule:nonzero;"/><path d="M1147.74,583.646c-1.435,0 -2.862,-0.026 -4.285,-0.085c1.317,0.055 2.641,0.081 3.97,0.085l0.315,-108.254l98.444,18.717c1.972,2.475 4.132,5.167 6.453,8.042c-12.076,47.299 -55,81.218 -104.287,81.495c-0.005,0 0,0 0,0l-0.61,0Zm-4.293,-0.085c-0.051,0 -0.098,-0.005 -0.149,-0.005c0.051,0 0.098,0.005 0.149,0.005Zm-0.179,-0.005c-0.047,-0.004 -0.09,-0.004 -0.136,-0.008c0.042,0.004 0.093,0.004 0.136,0.008Zm-0.17,-0.008c-0.047,-0.004 -0.09,-0.004 -0.133,-0.004c0.043,0 0.086,0 0.133,0.004Zm-0.175,-0.009c-0.039,0 -0.081,-0.004 -0.119,-0.004c0.042,0 0.076,0.004 0.119,0.004Zm-0.179,-0.008c-0.03,0 -0.064,-0.005 -0.094,-0.005c0.03,0 0.064,0.005 0.094,0.005Zm-0.175,-0.009c-0.03,0 -0.055,0 -0.085,-0.004c0.026,0.004 0.06,0.004 0.085,0.004Zm-0.174,-0.008c-0.026,0 -0.047,0 -0.073,-0.005c0.026,0.005 0.047,0.005 0.073,0.005Zm-0.175,-0.009c-0.017,0 -0.043,0 -0.06,-0.004c0.022,0.004 0.039,0.004 0.06,0.004Zm-0.179,-0.008l-0.03,0l0.03,0Zm-0.175,-0.009l-0.012,0l0.012,0Zm-101.881,-97.766l0,-0.009l0,0.009Zm-0.017,-0.166l0,-0.013l0,0.013Zm-0.017,-0.166l0,-0.018l0,0.018Zm-0.013,-0.162c0,-0.009 -0.004,-0.017 -0.004,-0.026c0,0.009 0.004,0.017 0.004,0.026Zm-0.017,-0.175l0,-0.021l0,0.021Zm-0.012,-0.166c-0.005,-0.009 -0.005,-0.017 -0.005,-0.026c0,0.013 0,0.017 0.005,0.026Zm-0.017,-0.162c0,-0.013 0,-0.025 -0.005,-0.034c0.005,0.009 0.005,0.021 0.005,0.034Zm-0.013,-0.166c0,-0.013 -0.004,-0.03 -0.004,-0.038c0,0.012 0.004,0.021 0.004,0.038Zm-0.013,-0.166c-0.004,-0.013 -0.004,-0.03 -0.004,-0.043c0,0.013 0,0.03 0.004,0.043Zm-0.017,-0.162c0,-0.021 0,-0.034 -0.004,-0.055c0.004,0.021 0.004,0.034 0.004,0.055Zm-0.013,-0.175c0,-0.017 -0.004,-0.034 -0.004,-0.046c0,0.017 0.004,0.029 0.004,0.046Zm-0.012,-0.17c0,-0.013 -0.005,-0.034 -0.005,-0.051c0,0.021 0.005,0.034 0.005,0.051Zm-0.013,-0.175c-0.004,-0.012 -0.004,-0.029 -0.004,-0.047c0,0.022 0,0.03 0.004,0.047Zm-0.013,-0.166c-0.004,-0.013 -0.004,-0.034 -0.004,-0.051c0,0.017 0,0.034 0.004,0.051Zm-0.013,-0.175c-0.004,-0.012 -0.004,-0.029 -0.004,-0.046c0,0.017 0,0.034 0.004,0.046Zm-0.013,-0.166c-0.004,-0.017 -0.004,-0.038 -0.004,-0.051c0,0.017 0,0.03 0.004,0.051Zm-0.012,-0.166c0,-0.021 -0.005,-0.034 -0.005,-0.055c0,0.017 0.005,0.038 0.005,0.055Zm-0.013,-0.162c0,-0.025 0,-0.042 -0.004,-0.068c0,0.022 0.004,0.047 0.004,0.068Zm-0.013,-0.174c0,-0.022 0,-0.043 -0.004,-0.064c0.004,0.021 0.004,0.042 0.004,0.064Zm-0.008,-0.179c-0.005,-0.017 -0.005,-0.034 -0.005,-0.055c0,0.021 0,0.038 0.005,0.055Zm-0.013,-0.171c0,-0.017 -0.005,-0.038 -0.005,-0.055c0,0.017 0.005,0.038 0.005,0.055Zm-0.009,-0.157c-0.004,-0.026 -0.004,-0.047 -0.004,-0.068c0,0.021 0,0.047 0.004,0.068Zm-0.013,-0.175c0,-0.021 -0.004,-0.047 -0.004,-0.068c0,0.021 0.004,0.047 0.004,0.068Zm-0.008,-0.17c-0.004,-0.022 -0.004,-0.047 -0.004,-0.068c0,0.021 0,0.046 0.004,0.068Zm-0.013,-0.175c0,-0.021 0,-0.042 -0.004,-0.064c0.004,0.022 0.004,0.043 0.004,0.064Zm-0.008,-0.166c0,-0.021 -0.005,-0.047 -0.005,-0.072c0,0.025 0.005,0.051 0.005,0.072Zm-0.013,-0.183l0,-0.055l0,0.055Zm-0.009,-0.175l0,-0.055l0,0.055Zm-0.008,-0.162c0,-0.021 0,-0.042 -0.004,-0.063c0.004,0.021 0.004,0.042 0.004,0.063Zm-0.009,-0.157c0,-0.026 0,-0.056 -0.004,-0.081c0.004,0.025 0.004,0.055 0.004,0.081Zm-0.008,-0.162c0,-0.034 0,-0.06 -0.005,-0.094c0.005,0.034 0.005,0.06 0.005,0.094Zm-0.005,-0.166c-0.004,-0.03 -0.004,-0.064 -0.004,-0.098c0,0.038 0,0.064 0.004,0.098Zm-0.008,-0.183c-0.004,-0.03 -0.004,-0.056 -0.004,-0.086c0,0.03 0,0.056 0.004,0.086Zm-0.009,-0.166c0,-0.03 -0.004,-0.06 -0.004,-0.094c0,0.034 0.004,0.064 0.004,0.094Zm-0.008,-0.158c0,-0.034 -0.004,-0.073 -0.004,-0.107c0,0.034 0.004,0.073 0.004,0.107Zm-0.004,-0.17c-0.005,-0.035 -0.005,-0.073 -0.005,-0.107c0,0.034 0,0.072 0.005,0.107Zm-0.009,-0.188c0,-0.03 -0.004,-0.06 -0.004,-0.094c0,0.034 0.004,0.064 0.004,0.094Zm-0.008,-0.149c0,-0.043 0,-0.077 -0.005,-0.119c0.005,0.042 0.005,0.081 0.005,0.119Zm-0.005,-0.162c0,-0.042 -0.004,-0.085 -0.004,-0.128c0,0.043 0.004,0.086 0.004,0.128Zm-0.008,-0.2l0,-0.098l0,0.098Zm-0.004,-0.196c0,-0.025 -0.005,-0.055 -0.005,-0.077c0,0.026 0.005,0.052 0.005,0.077Zm-0.009,-0.187l0,-0.06l0,0.06Zm-0.004,-0.188l0,-0.042l0,0.042Zm-0.004,-0.183l0,-0.034l0,0.034Zm-0.005,-0.153l0,-0.056l0,0.056Zm-0.004,-0.141l0,-0.089l0,0.089Zm-0.004,-0.153l0,-0.107l0,0.107Zm-0.004,-0.192l0,-0.085l0,0.085Zm-0.005,-0.175l0,-0.085l0,0.085Zm0,-0.136c-0.004,-0.038 -0.004,-0.085 -0.004,-0.123c0,0.042 0,0.081 0.004,0.123Zm-0.004,-0.174c0,-0.039 0,-0.081 -0.004,-0.124c0.004,0.043 0.004,0.081 0.004,0.124Zm-0.004,-0.171l0,-0.123l0,0.123Zm-0.005,-0.264l0,-0.034l0,0.034Zm0,-0.192l0,-0.012l0,0.012Zm-0.004,-0.289l0,-0.247l0,0.247Zm-0.004,-0.55l0,-0.042l0,0.042Zm0,-0.098l0,-0.294l0,0.294Z" style="fill:#8fb3de;fill-rule:nonzero;"/><path d="M1143.45,583.561l-0.008,0l0.008,0Zm-0.157,-0.005l-0.03,0l0.03,0Zm-0.166,-0.008l-0.034,0l0.034,0Zm-0.167,-0.004c-0.012,-0.005 -0.029,-0.005 -0.042,-0.005c0.017,0 0.025,0 0.042,0.005Zm-0.161,-0.009c-0.017,0 -0.039,-0.004 -0.06,-0.004c0.021,0 0.038,0.004 0.06,0.004Zm-0.154,-0.009c-0.03,0 -0.051,0 -0.081,-0.004c0.026,0.004 0.056,0.004 0.081,0.004Zm-0.166,-0.008c-0.03,0 -0.055,0 -0.089,-0.004c0.029,0.004 0.064,0.004 0.089,0.004Zm-0.162,-0.009c-0.034,0 -0.068,0 -0.102,-0.004c0.038,0.004 0.064,0.004 0.102,0.004Zm-0.162,-0.008c-0.038,0 -0.081,-0.004 -0.119,-0.004c0.038,0 0.081,0.004 0.119,0.004Zm-0.149,-0.004c-0.047,-0.005 -0.098,-0.009 -0.145,-0.009c0.047,0 0.094,0.004 0.145,0.009Zm-0.157,-0.009c-53.275,-2.913 -96.791,-45.083 -101.869,-97.766c5.078,52.691 48.611,94.853 101.869,97.766Zm-101.869,-97.775c-0.008,-0.051 -0.012,-0.106 -0.017,-0.157c0.005,0.051 0.009,0.106 0.017,0.157Zm-0.017,-0.17c-0.004,-0.051 -0.013,-0.098 -0.017,-0.153c0.004,0.055 0.013,0.102 0.017,0.153Zm-0.017,-0.171c-0.004,-0.046 -0.008,-0.097 -0.013,-0.144c0.005,0.047 0.009,0.098 0.013,0.144Zm-0.017,-0.17c-0.004,-0.051 -0.008,-0.098 -0.013,-0.149c0.005,0.051 0.009,0.102 0.013,0.149Zm-0.013,-0.17c-0.004,-0.047 -0.008,-0.094 -0.012,-0.145c0.004,0.051 0.008,0.098 0.012,0.145Zm-0.017,-0.171c-0.004,-0.046 -0.008,-0.093 -0.012,-0.136c0.004,0.043 0.008,0.09 0.012,0.136Zm-0.017,-0.17c0,-0.043 -0.004,-0.09 -0.008,-0.132c0.004,0.047 0.008,0.085 0.008,0.132Zm-0.012,-0.17c-0.005,-0.043 -0.009,-0.086 -0.009,-0.128c0,0.042 0.004,0.085 0.009,0.128Zm-0.013,-0.171c-0.004,-0.042 -0.009,-0.081 -0.013,-0.119c0.004,0.043 0.009,0.077 0.013,0.119Zm-0.017,-0.174c0,-0.039 -0.004,-0.081 -0.009,-0.12c0.005,0.039 0.009,0.081 0.009,0.12Zm-0.013,-0.166c-0.004,-0.043 -0.004,-0.086 -0.008,-0.124c0.004,0.043 0.004,0.081 0.008,0.124Zm-0.013,-0.175c-0.004,-0.039 -0.008,-0.081 -0.008,-0.124c0,0.043 0.004,0.081 0.008,0.124Zm-0.012,-0.171c-0.005,-0.038 -0.009,-0.076 -0.009,-0.119c0,0.043 0.004,0.077 0.009,0.119Zm-0.013,-0.17c-0.005,-0.043 -0.009,-0.081 -0.009,-0.124c0,0.043 0.004,0.081 0.009,0.124Zm-0.013,-0.17c-0.004,-0.039 -0.009,-0.081 -0.009,-0.12c0,0.043 0.005,0.077 0.009,0.12Zm-0.013,-0.171c-0.004,-0.038 -0.004,-0.076 -0.008,-0.115c0.004,0.039 0.004,0.077 0.008,0.115Zm-0.013,-0.17c-0.004,-0.038 -0.004,-0.072 -0.008,-0.107c0.004,0.035 0.004,0.073 0.008,0.107Zm-0.012,-0.175c0,-0.034 -0.005,-0.068 -0.009,-0.106c0.004,0.038 0.009,0.072 0.009,0.106Zm-0.013,-0.17c0,-0.039 -0.004,-0.073 -0.004,-0.115c0,0.038 0.004,0.081 0.004,0.115Zm-0.009,-0.17c-0.004,-0.039 -0.004,-0.073 -0.008,-0.116c0.004,0.043 0.004,0.077 0.008,0.116Zm-0.013,-0.171c0,-0.034 -0.004,-0.068 -0.004,-0.102c0,0.034 0.004,0.068 0.004,0.102Zm-0.008,-0.17c-0.004,-0.039 -0.004,-0.073 -0.009,-0.107c0,0.03 0.005,0.073 0.009,0.107Zm-0.013,-0.175c0,-0.034 -0.004,-0.064 -0.004,-0.102c0,0.038 0.004,0.068 0.004,0.102Zm-0.008,-0.17c-0.005,-0.034 -0.005,-0.068 -0.009,-0.107c0.004,0.039 0.004,0.073 0.009,0.107Zm-0.013,-0.171c0,-0.038 -0.004,-0.064 -0.004,-0.102c0,0.038 0.004,0.064 0.004,0.102Zm-0.009,-0.174c-0.004,-0.039 -0.004,-0.073 -0.008,-0.111c0.004,0.038 0.004,0.072 0.008,0.111Zm-0.008,-0.166c-0.004,-0.043 -0.004,-0.081 -0.009,-0.12c0.005,0.039 0.005,0.077 0.009,0.12Zm-0.009,-0.175c-0.004,-0.034 -0.004,-0.073 -0.008,-0.107c0.004,0.034 0.004,0.073 0.008,0.107Zm-0.012,-0.17c0,-0.034 0,-0.064 -0.005,-0.094c0.005,0.03 0.005,0.06 0.005,0.094Zm-0.009,-0.175c0,-0.03 0,-0.051 -0.004,-0.081c0.004,0.03 0.004,0.051 0.004,0.081Zm-0.009,-0.175l0,-0.072l0,0.072Zm-0.004,-0.17c-0.004,-0.026 -0.004,-0.056 -0.004,-0.085c0,0.029 0,0.059 0.004,0.085Zm-0.008,-0.171c-0.005,-0.025 -0.005,-0.055 -0.005,-0.08c0,0.029 0,0.051 0.005,0.08Zm-0.009,-0.174c0,-0.021 -0.004,-0.043 -0.004,-0.064c0,0.021 0.004,0.043 0.004,0.064Zm-0.008,-0.171l0,-0.063l0,0.063Zm-0.005,-0.17c-0.004,-0.025 -0.004,-0.055 -0.004,-0.081c0,0.03 0,0.051 0.004,0.081Zm-0.008,-0.175c0,-0.017 0,-0.034 -0.004,-0.055c0.004,0.017 0.004,0.043 0.004,0.055Zm-0.009,-0.174l0,-0.043l0,0.043Zm-0.004,-0.171c0,-0.021 0,-0.051 -0.004,-0.072c0.004,0.021 0.004,0.051 0.004,0.072Zm-0.004,-0.17c-0.004,-0.03 -0.004,-0.068 -0.004,-0.098c0,0.034 0,0.064 0.004,0.098Zm-0.009,-0.175c0,-0.034 0,-0.076 -0.004,-0.11c0.004,0.038 0.004,0.072 0.004,0.11Zm-0.004,-0.17c0,-0.043 -0.004,-0.085 -0.004,-0.128c0,0.043 0.004,0.085 0.004,0.128Zm-0.004,-0.17c-0.004,-0.047 -0.004,-0.094 -0.004,-0.141c0,0.047 0,0.094 0.004,0.141Zm-0.004,-0.175c-0.005,-0.038 -0.005,-0.077 -0.005,-0.119c0,0.042 0,0.081 0.005,0.119Zm-0.005,-0.175c-0.004,-0.025 -0.004,-0.055 -0.004,-0.085c0,0.03 0,0.056 0.004,0.085Zm-0.004,-0.174c-0.004,-0.022 -0.004,-0.043 -0.004,-0.064c0,0.021 0,0.042 0.004,0.064Zm-0.004,-0.171c-0.004,-0.03 -0.004,-0.059 -0.004,-0.085c0,0.026 0,0.055 0.004,0.085Zm-0.004,-0.17c0,-0.03 -0.005,-0.06 -0.005,-0.09c0,0.03 0.005,0.06 0.005,0.09Zm-0.005,-0.175l0,-0.051l0,0.051Zm-0.004,-0.174l0,-0.051l0,0.051Zm-0.004,-0.175l0,-0.047l0,0.047Zm0,-0.17c0,-0.047 0,-0.094 -0.005,-0.141c0.005,0.047 0.005,0.094 0.005,0.141Zm-0.005,-0.175l0,-0.158l0,0.158Zm0,-0.17c0,-0.094 -0.004,-0.188 -0.004,-0.277c0,0.093 0.004,0.183 0.004,0.277Zm-0.004,-0.524c0,-0.103 -0.004,-0.201 -0.004,-0.303c0,0.102 0.004,0.2 0.004,0.303Zm-0.004,-0.345l0,-0.056l0,0.056Z" style="fill:#8fb3de;fill-rule:nonzero;"/><path d="M1147.42,583.646c-1.329,-0.004 -2.653,-0.03 -3.97,-0.085l-0.008,0c-0.051,0 -0.098,-0.005 -0.149,-0.005l-0.03,0c-0.043,-0.004 -0.094,-0.004 -0.136,-0.008l-0.034,0c-0.047,-0.004 -0.09,-0.004 -0.133,-0.004c-0.017,-0.005 -0.025,-0.005 -0.042,-0.005c-0.043,0 -0.077,-0.004 -0.119,-0.004c-0.022,0 -0.039,-0.004 -0.06,-0.004c-0.03,0 -0.064,-0.005 -0.094,-0.005c-0.025,0 -0.055,0 -0.081,-0.004c-0.025,0 -0.059,0 -0.085,-0.004c-0.025,0 -0.06,0 -0.089,-0.004c-0.026,0 -0.047,0 -0.073,-0.005c-0.038,0 -0.064,0 -0.102,-0.004c-0.021,0 -0.038,0 -0.06,-0.004c-0.038,0 -0.081,-0.004 -0.119,-0.004l-0.03,0c-0.051,-0.005 -0.098,-0.009 -0.145,-0.009l-0.012,0c-53.258,-2.913 -96.791,-45.075 -101.869,-97.766l0,-0.009c-0.008,-0.051 -0.012,-0.106 -0.017,-0.157l0,-0.013c-0.004,-0.051 -0.013,-0.098 -0.017,-0.153l0,-0.018c-0.004,-0.046 -0.008,-0.097 -0.013,-0.144c0,-0.009 -0.004,-0.017 -0.004,-0.026c-0.004,-0.047 -0.008,-0.098 -0.013,-0.149l0,-0.021c-0.004,-0.047 -0.008,-0.094 -0.012,-0.145c-0.005,-0.009 -0.005,-0.013 -0.005,-0.026c-0.004,-0.046 -0.008,-0.093 -0.012,-0.136c0,-0.013 0,-0.025 -0.005,-0.034c0,-0.047 -0.004,-0.085 -0.008,-0.132c0,-0.017 -0.004,-0.026 -0.004,-0.038c-0.005,-0.043 -0.009,-0.086 -0.009,-0.128c-0.004,-0.013 -0.004,-0.03 -0.004,-0.043c-0.004,-0.042 -0.009,-0.076 -0.013,-0.119c0,-0.021 0,-0.034 -0.004,-0.055c0,-0.039 -0.004,-0.081 -0.009,-0.12c0,-0.017 -0.004,-0.029 -0.004,-0.046c-0.004,-0.043 -0.004,-0.081 -0.008,-0.124c0,-0.017 -0.005,-0.03 -0.005,-0.051c-0.004,-0.043 -0.008,-0.081 -0.008,-0.124c-0.004,-0.017 -0.004,-0.025 -0.004,-0.047c-0.005,-0.042 -0.009,-0.076 -0.009,-0.119c-0.004,-0.017 -0.004,-0.034 -0.004,-0.051c-0.005,-0.043 -0.009,-0.081 -0.009,-0.124c-0.004,-0.012 -0.004,-0.029 -0.004,-0.046c-0.004,-0.043 -0.009,-0.077 -0.009,-0.12c-0.004,-0.021 -0.004,-0.034 -0.004,-0.051c-0.004,-0.038 -0.004,-0.076 -0.008,-0.115c0,-0.017 -0.005,-0.038 -0.005,-0.055c-0.004,-0.034 -0.004,-0.072 -0.008,-0.107c0,-0.021 -0.004,-0.046 -0.004,-0.068c0,-0.034 -0.005,-0.068 -0.009,-0.106c0,-0.022 0,-0.043 -0.004,-0.064c0,-0.034 -0.004,-0.077 -0.004,-0.115c-0.005,-0.017 -0.005,-0.034 -0.005,-0.055c-0.004,-0.039 -0.004,-0.073 -0.008,-0.116c0,-0.017 -0.005,-0.038 -0.005,-0.055c0,-0.034 -0.004,-0.068 -0.004,-0.102c-0.004,-0.021 -0.004,-0.047 -0.004,-0.068c-0.004,-0.034 -0.009,-0.077 -0.009,-0.107c0,-0.021 -0.004,-0.047 -0.004,-0.068c0,-0.034 -0.004,-0.064 -0.004,-0.102c-0.004,-0.022 -0.004,-0.047 -0.004,-0.068c-0.005,-0.034 -0.005,-0.068 -0.009,-0.107c0,-0.021 0,-0.042 -0.004,-0.064c0,-0.038 -0.004,-0.064 -0.004,-0.102c0,-0.021 -0.005,-0.047 -0.005,-0.072c-0.004,-0.039 -0.004,-0.073 -0.008,-0.111l0,-0.055c-0.004,-0.043 -0.004,-0.081 -0.009,-0.12l0,-0.055c-0.004,-0.034 -0.004,-0.073 -0.008,-0.107c0,-0.021 0,-0.042 -0.004,-0.063c0,-0.034 0,-0.064 -0.005,-0.094c0,-0.026 0,-0.056 -0.004,-0.081c0,-0.03 0,-0.051 -0.004,-0.081c0,-0.034 0,-0.06 -0.005,-0.094l0,-0.072c-0.004,-0.034 -0.004,-0.06 -0.004,-0.098c-0.004,-0.026 -0.004,-0.056 -0.004,-0.085c-0.004,-0.03 -0.004,-0.056 -0.004,-0.086c-0.005,-0.029 -0.005,-0.051 -0.005,-0.08c0,-0.03 -0.004,-0.06 -0.004,-0.094c0,-0.021 -0.004,-0.043 -0.004,-0.064c0,-0.034 -0.004,-0.073 -0.004,-0.107l0,-0.063c-0.005,-0.035 -0.005,-0.073 -0.005,-0.107c-0.004,-0.03 -0.004,-0.051 -0.004,-0.081c0,-0.03 -0.004,-0.06 -0.004,-0.094c0,-0.012 0,-0.038 -0.004,-0.055c0,-0.038 0,-0.077 -0.005,-0.119l0,-0.043c0,-0.042 -0.004,-0.085 -0.004,-0.128c0,-0.021 0,-0.051 -0.004,-0.072l0,-0.098c-0.004,-0.034 -0.004,-0.064 -0.004,-0.098c0,-0.025 -0.005,-0.051 -0.005,-0.077c0,-0.038 0,-0.072 -0.004,-0.11l0,-0.06c0,-0.043 -0.004,-0.085 -0.004,-0.128l0,-0.042c-0.004,-0.047 -0.004,-0.094 -0.004,-0.141l0,-0.034c-0.005,-0.038 -0.005,-0.077 -0.005,-0.119l0,-0.056c-0.004,-0.029 -0.004,-0.055 -0.004,-0.085l0,-0.089c-0.004,-0.022 -0.004,-0.043 -0.004,-0.064l0,-0.107c-0.004,-0.03 -0.004,-0.059 -0.004,-0.085l0,-0.085c0,-0.03 -0.005,-0.06 -0.005,-0.09l0,-0.136c-0.004,-0.042 -0.004,-0.081 -0.004,-0.123l0,-0.051c0,-0.043 0,-0.081 -0.004,-0.124l0,-0.17c0,-0.047 0,-0.094 -0.005,-0.141l0,-0.204c0,-0.094 -0.004,-0.184 -0.004,-0.277l0,-0.247c0,-0.103 -0.004,-0.201 -0.004,-0.303l0,-0.392c0,-38.549 20.587,-72.664 51.281,-91.858l56.972,91.858l-0.315,108.254Zm0.315,-108.254l-0.349,-108.253l0.349,0l0,108.253Zm-1.397,-108.245l0.017,0l-0.017,0Zm0.179,0l0.013,0l-0.013,0Zm0.332,-0.004l0.022,0l-0.022,0Zm0.158,0c0.021,-0.004 0.043,-0.004 0.064,-0.004c-0.021,0 -0.043,0 -0.064,0.004Zm0.196,-0.004l0.068,0l-0.068,0Z" style="fill:#aac6e8;fill-rule:nonzero;"/><path d="M1146.92,367.143l0.008,0l-0.008,0Zm0.2,-0.004l0.064,0l-0.064,0Zm0.221,0l0.047,0l-0.047,0Z" style="fill:#6a95ce;fill-rule:nonzero;"/><path d="M1090.77,383.534l-0.085,-0.136c8.477,-5.257 17.639,-9.32 27.228,-12.068c9.247,-2.654 18.81,-4.059 28.432,-4.183c-20.314,0.264 -39.358,6.241 -55.575,16.387Zm55.592,-16.387l0.162,0l-0.162,0Zm0.175,0c0.107,-0.004 0.213,-0.004 0.319,-0.004c-0.106,0 -0.217,0 -0.319,0.004Zm0.341,-0.004l0.136,0l-0.136,0Zm0.2,-0.004l0.132,0l-0.132,0Zm0.2,0l0.115,0l-0.115,0Z" style="fill:#8fb3de;fill-rule:nonzero;"/><path d="M1147.74,475.392l-56.972,-91.858c16.217,-10.146 35.261,-16.123 55.575,-16.387l0.192,0c0.102,-0.004 0.213,-0.004 0.319,-0.004l0.158,0c0.021,-0.004 0.043,-0.004 0.064,-0.004l0.315,0l0.349,108.253Z" style="fill:#c0d5ef;fill-rule:nonzero;"/><path d="M1719.5,689.284c0,0 57.505,100.791 61.764,124.938c4.26,24.148 -48.985,178.558 -48.985,178.558c0,0 11.714,40.65 -1.065,47.482c-12.779,6.828 -35.108,20.672 -38.319,8.958c-3.212,-11.714 0,-50.348 0,-50.348l9.601,-8.221c0,0 33.94,-161.341 33.991,-166.93c0.052,-5.584 -61.811,-100.735 -61.811,-100.735l44.824,-33.702Z" style="fill:#f5897d;fill-rule:nonzero;"/><path d="M1507.5,1673.38l-34.546,3.621l-1.746,-20.02l-4.728,-54.48l34.545,-3.664l5.24,60.189l1.235,14.354Z" style="fill:#f5897d;fill-rule:nonzero;"/><path d="M1679.92,1668.99l-33.48,0l-0.298,-7.582l-0.043,-0.937l-1.704,-48.56l-0.042,-0.979l-0.682,-18.615l33.523,0l2.726,76.673Z" style="fill:#f5897d;fill-rule:nonzero;"/><path d="M1506.26,1659.03l-35.057,-2.045l-0.434,-5.026l34.873,0l0.618,7.071Z" style="fill:#cd6f62;fill-rule:nonzero;"/><path d="M1646.1,1660.47l-0.157,-4.26l0.008,0l0.149,4.26Z" style="fill:#cdcdcd;fill-rule:nonzero;"/><path d="M1679.71,1664.73l-0.042,0l-33.523,-4.259l-0.043,0l-0.149,-4.26l33.459,0l0.256,7.05l0.042,1.469Z" style="fill:#cd6f62;fill-rule:nonzero;"/><path d="M1757.96,737.545l-57.632,39.189l-1.108,-1.406l-34.971,-45.578l-21.426,-27.943l31.649,-86.044c36.505,13.886 83.488,121.782 83.488,121.782Z" style="fill:#182f36;fill-rule:nonzero;"/><path d="M1697.44,773.002l-10.867,-14.159c2.599,-26.218 4.784,-50.957 5.764,-72.119c0.528,1.384 15.956,42.43 7.769,84.472l-2.666,1.806Z" style="fill:#102329;fill-rule:nonzero;"/><path d="M1641.8,1666.98l40.679,0c1.372,0.009 2.556,0.963 2.854,2.3l6.603,29.818c0.566,2.67 -1.142,5.294 -3.813,5.857l-1.086,0.106c-13.162,-0.213 -22.746,-1.022 -39.274,-1.022c-10.18,0 -40.892,1.065 -54.948,1.065c-14.057,0 -15.889,-13.887 -10.138,-15.164c25.813,-5.623 45.237,-13.418 53.5,-20.83c1.534,-1.406 3.544,-2.168 5.623,-2.13Z" style="fill:#182f36;fill-rule:nonzero;"/><path d="M1469.29,1665.91l40.679,0c1.372,0.009 2.556,0.963 2.854,2.301l6.603,29.817c0.566,2.671 -1.142,5.294 -3.813,5.857l-1.086,0.106c-13.162,-0.213 -22.746,-1.022 -39.273,-1.022c-10.181,0 -40.893,1.065 -54.949,1.065c-14.057,0 -15.889,-13.887 -10.138,-15.164c25.813,-5.623 45.237,-13.418 53.501,-20.83c1.533,-1.405 3.544,-2.168 5.622,-2.13Z" style="fill:#182f36;fill-rule:nonzero;"/><path d="M1463.3,1651.95l49.113,0c0,0 -4.004,-422.787 49.113,-565.569c3.748,47.197 7.965,96.173 12.097,136.98c2.598,25.26 5.154,46.963 7.582,63.49c15.463,106.486 54.481,369.358 54.481,369.358l48.516,0c0,0 -5.75,-251.891 -11.5,-356.55c-6.347,-113.603 -9.073,-363.322 -9.329,-384.62l-177.711,0c-16.91,89.451 -60.273,447.258 -22.362,736.911Z" style="fill:#3e75bb;fill-rule:nonzero;"/><path d="M1684.2,1656.21l-48.516,0c0,0 -39.018,-262.872 -54.481,-369.358c-2.428,-16.527 -4.984,-38.23 -7.582,-63.49c-4.132,-40.807 -8.349,-89.783 -12.097,-136.98c-23.36,62.791 -35.67,179.721 -42.136,291.037c-0.017,0.358 -0.038,0.712 -0.06,1.065c-4.089,70.803 -5.818,139.268 -6.525,189.974c-0.005,0.354 -0.009,0.712 -0.013,1.065c-0.362,26.329 -0.448,47.793 -0.448,62.212l0,0.144c0,12.813 0.069,20.021 0.069,20.072l-49.113,0c-10.922,-83.442 -15.097,-172.544 -15.105,-259.257c-0.013,-190.417 20.075,-369.303 32.999,-451.475l182.609,8.924c1.01,77.303 3.774,257.783 8.899,349.517c5.75,104.659 11.5,356.55 11.5,356.55Zm-71.092,-657.341c0.596,52.819 -51.584,87.321 -51.584,87.321c3.748,47.197 7.965,96.267 12.097,137.074c6.049,-58.91 13.46,-100.909 13.46,-100.909c0,0 6.944,-5.708 26.027,-36.165c19.083,-30.498 0,-87.321 0,-87.321Z" style="fill:#aec8e9;fill-rule:nonzero;"/><path d="M1550.2,539.653c0.413,1.627 0.878,3.216 1.444,4.736c3.28,9.197 9.214,16.77 16.566,22.074c1.925,1.405 3.961,2.658 6.066,3.748c11.126,5.729 24.335,6.798 36.274,1.606c4.886,-2.07 9.614,-5.244 13.848,-9.58c16.779,-16.949 16.332,-36.505 18.223,-69.623c0.515,-7.131 -0.609,-14.274 -3.386,-20.838c-9.606,-23.138 -36.182,-34.073 -59.277,-24.463c-32.488,13.252 -36.939,62.527 -29.758,92.34Z" style="fill:#f5897d;fill-rule:nonzero;"/><path d="M1585.31,574.189c-0.102,-0.021 -0.2,-0.042 -0.298,-0.063c-3.714,-0.835 -7.326,-2.156 -10.742,-3.915c-2.105,-1.09 -4.141,-2.343 -6.066,-3.748c5.218,-2.803 10.743,-4.426 15.871,-5.334c0.46,2.718 0.839,5.457 1.027,8.166c0.132,1.649 0.204,3.284 0.208,4.894Z" style="fill:#cd6f62;fill-rule:nonzero;"/><path d="M1634.86,609.416c-16.314,14.824 -56.282,9.346 -56.282,9.346c0,0 -24.949,-6.832 -19.709,-14.628c14.695,-2.428 21.809,-9.281 24.748,-18.056c1.704,-5.111 1.959,-10.862 1.491,-16.783c-0.213,-3.109 -0.682,-6.261 -1.236,-9.371l49.412,-36.59c-6.475,24.152 -14.398,68.58 1.576,86.082Z" style="fill:#f5897d;fill-rule:nonzero;"/><path d="M1566.05,469.459c0.357,0.928 -0.507,2.841 -1.125,5.035c-1.193,4.242 -1.789,8.664 -1.802,13.068c-0.047,14.683 6.828,28.071 17.141,38.251c3.684,13.367 8.677,26.457 14.908,38.784c0.627,1.239 1.304,2.539 2.467,3.301c1.371,0.899 3.126,0.873 4.762,0.818c9.622,-0.337 19.245,-0.669 28.863,-1.005c1.704,-0.06 3.655,-0.243 4.66,-1.619c0.554,-0.754 0.694,-1.725 1.056,-2.586c2.616,-6.236 13.61,-3.279 17.401,-8.881c1.542,-2.279 1.337,-5.29 2.232,-7.893c2.373,-6.913 12.17,-10.513 11.812,-17.814c-0.209,-4.238 -4.085,-8.101 -2.914,-12.186c1.15,-4 6.394,-5.363 8.353,-9.035c2.007,-3.748 -0.089,-8.315 -2.347,-11.918c-2.257,-3.604 -4.817,-7.714 -3.659,-11.804c0.46,-1.623 1.47,-3.024 2.219,-4.532c2.833,-5.674 1.628,-13.098 -2.858,-17.583c-1.802,-1.807 -4.102,-3.216 -5.282,-5.474c-1.955,-3.736 -0.302,-8.736 -2.675,-12.221c-2.351,-3.454 -7.301,-3.608 -11.475,-3.361c-4.17,0.247 -9.086,0.213 -11.578,-3.143c-1.78,-2.403 -1.708,-5.861 -3.676,-8.111c-2.781,-3.186 -7.918,-2.295 -11.846,-0.724c-3.927,1.572 -8.331,3.574 -12.173,1.811c-2.65,-1.214 -4.269,-3.949 -6.684,-5.58c-3.365,-2.284 -8.246,-2.011 -11.339,0.63c-2.147,1.832 -3.437,4.605 -5.853,6.066c-3.39,2.053 -7.705,0.873 -11.56,-0.047c-3.855,-0.916 -8.583,-1.235 -11.105,1.819c-3.591,4.349 0.29,11.876 -3.369,16.165c-2.1,2.462 -5.904,2.786 -8.179,5.09c-3.135,3.174 -1.201,9.58 3.165,10.491c1.282,0.269 2.939,0.333 3.412,1.555c0.196,0.507 0.107,1.082 0.256,1.602c0.477,1.644 2.794,1.746 4.408,1.18c2.914,-1.018 4.081,-0.933 4.384,-0.149Z" style="fill:#182f36;fill-rule:nonzero;"/><path d="M1587.03,511.867c-1.981,7.208 -5.942,12.498 -11.024,14.717c-6.747,2.863 -11.173,-6.64 -10.197,-16.599c0.92,-8.822 5.49,-21.247 12.71,-19.607c7.22,1.64 10.862,12.582 8.511,21.489Z" style="fill:#f5897d;fill-rule:nonzero;"/><path d="M1573.63,1223.27c-4.132,-40.807 -8.349,-89.877 -12.097,-137.074c0,0 52.18,-34.502 51.584,-87.321c0,0 19.083,56.823 0,87.321c-19.083,30.457 -26.027,36.165 -26.027,36.165c0,0 -7.411,41.999 -13.46,100.909Z" style="fill:#87a3cf;fill-rule:nonzero;"/><path d="M1671.58,950.525l-203.056,-9.925c0,0 5.836,-111.899 27.006,-220.434c5.879,-29.988 12.864,-59.677 21.298,-86.725c4.686,-15.207 9.84,-29.562 15.463,-42.635c0,0 126.212,10.432 151.94,30.324c25.685,19.893 -14.057,225.759 -12.651,329.395Z" style="fill:#182f36;fill-rule:nonzero;"/><path d="M1565.67,594.201c0,0 19.292,-15.143 55.499,-14.338c36.206,0.805 39.755,14.338 39.755,14.338c0,0 39.755,19.833 8.519,52.487c-31.236,32.658 -92.74,-50.093 -92.74,-50.093l-11.033,-2.394Z" style="fill:#182f36;fill-rule:nonzero;"/><path d="M1651.95,654.317c-32.339,0 -75.241,-57.722 -75.241,-57.722l-11.033,-2.394c0,0 18.304,-14.368 52.722,-14.368c0.911,0 1.84,0.009 2.777,0.03c36.206,0.805 39.755,14.338 39.755,14.338c0,0 20.484,10.215 20.493,28.062c0.004,7.016 -3.157,15.211 -11.974,24.425c-5.146,5.384 -11.118,7.629 -17.499,7.629Z" style="fill:#57666b;fill-rule:nonzero;"/><path d="M1495.53,720.166c2.628,-13.409 5.478,-26.763 8.583,-39.844l1.091,0.443c0,0 20.288,-20.357 30.269,-44.726l0.012,0c0,0 -8.817,57.632 -39.955,84.127Z" style="fill:#102329;fill-rule:nonzero;"/><path d="M1509.46,591.573c0,0 -126.119,-25.792 -143.864,-32.548c-17.75,-6.755 -111.461,-96.412 -111.461,-96.412l-20.532,15.518c0,0 70.224,91.177 105.366,117.446c35.146,26.265 158.142,65.985 158.142,65.985l12.349,-69.989Z" style="fill:#f5897d;fill-rule:nonzero;"/><path d="M1535.79,591.573l-109.851,-20.071l-2.837,75.897l82.1,33.366c0,0 51.763,-51.938 30.588,-89.192Z" style="fill:#182f36;fill-rule:nonzero;"/><path d="M1254.13,462.613c-10.117,-11.518 -46.941,-36.457 -52.265,-38.587c-5.325,-2.13 -13.265,30.452 -11.668,34.711c1.598,4.26 19.65,13.311 28.744,14.376c9.099,1.065 18.853,10.402 18.853,10.402l16.336,-20.902Z" style="fill:#f5897d;fill-rule:nonzero;"/><path d="M1419.96,568.737l12.071,2.765l-5.503,77.29l-11.539,-4.234l4.971,-75.821Z" style="fill:#182f36;fill-rule:nonzero;"/><path d="M1426.53,648.792l5.422,-76.191l-5.422,76.191Z" style="fill:#57666b;fill-rule:nonzero;"/><path d="M1426.53,648.792l-11.539,-4.234l4.971,-75.821l12.071,2.765l-0.081,1.099l-5.422,76.191Z" style="fill:#57666b;fill-rule:nonzero;"/><path d="M1692.89,776.082l65.086,-44.083l4.469,11.241l-62.046,39.048l-7.509,-6.206Z" style="fill:#182f36;fill-rule:nonzero;"/><path d="M1700.4,782.288l-7.509,-6.206l65.086,-44.083l4.469,11.241l-10.057,6.33l-43.291,27.244l-8.698,5.474Z" style="fill:#57666b;fill-rule:nonzero;"/><path d="M1457.8,1638.11l2.394,13.844l58.037,0l0,-12.779l-60.431,-1.065Z" style="fill:#3e75bb;fill-rule:nonzero;"/><path d="M1630.12,1643.43l5.572,12.779l48.665,0l3.195,-12.779l-57.432,0Z" style="fill:#3e75bb;fill-rule:nonzero;"/><g><rect x="533.222" y="1656.05" width="35.942" height="1.034" style="fill:#ececec;fill-rule:nonzero;"/><rect x="151.17" y="1381.36" width="251.228" height="307.303" style="fill:#182f36;fill-rule:nonzero;"/><path d="M405.14,1660.42l-186.509,0c-3.763,0 -6.81,3.051 -6.81,6.814l0,45.133c0,3.767 3.047,6.814 6.81,6.814l186.509,0c3.762,0 6.814,-3.047 6.814,-6.814l0,-45.133c0,-3.763 -3.052,-6.814 -6.814,-6.814Z" style="fill:#3e75bb;fill-rule:nonzero;"/><path d="M375.433,1719.18l-38.465,0c3.763,0 6.81,-3.047 6.81,-6.814l0,-45.133c0,-3.763 -3.047,-6.814 -6.81,-6.814l-118.337,0l157.509,0l-0.707,0c-3.763,0 -6.814,3.051 -6.814,6.814l0,45.133c0,3.767 3.051,6.814 6.814,6.814Z" style="fill:#2b65b0;fill-rule:nonzero;"/><path d="M336.968,1660.42l-186.509,0c-3.762,0 -6.814,3.051 -6.814,6.814l0,45.133c0,3.767 3.052,6.814 6.814,6.814l186.509,0c3.763,0 6.81,-3.047 6.81,-6.814l0,-45.133c0,-3.763 -3.047,-6.814 -6.81,-6.814Z" style="fill:#3e75bb;fill-rule:nonzero;"/><path d="M311.685,1702.15c-6.822,0 -12.35,-5.528 -12.35,-12.35c0,-6.818 5.528,-12.346 12.35,-12.346c6.818,0 12.346,5.528 12.346,12.346c0,6.822 -5.528,12.35 -12.346,12.35Z" style="fill:#719ad1;fill-rule:nonzero;"/><path d="M317.965,1689.8c0,3.469 -2.811,6.281 -6.28,6.281c-3.469,0 -6.281,-2.812 -6.281,-6.281c0,-3.469 2.812,-6.28 6.281,-6.28c3.469,0 6.28,2.811 6.28,6.28Z" style="fill:#3e75bb;fill-rule:nonzero;"/><rect x="271.174" y="1682.77" width="14.058" height="14.049" style="fill:#719ad1;fill-rule:nonzero;"/><path d="M405.14,1599.06l-186.509,0c-3.763,0 -6.81,3.047 -6.81,6.81l0,45.137c0,3.763 3.047,6.814 6.81,6.814l186.509,0c3.762,0 6.814,-3.051 6.814,-6.814l0,-45.137c0,-3.763 -3.052,-6.81 -6.814,-6.81Z" style="fill:#3e75bb;fill-rule:nonzero;"/><path d="M375.433,1657.82l-38.465,0c3.763,0 6.81,-3.051 6.81,-6.814l0,-45.137c0,-3.763 -3.047,-6.81 -6.81,-6.81l-118.337,0l186.509,0l-29.707,0c-3.763,0 -6.814,3.047 -6.814,6.81l0,45.137c0,3.763 3.051,6.814 6.814,6.814Z" style="fill:#2b65b0;fill-rule:nonzero;"/><path d="M336.968,1599.06l-186.509,0c-3.762,0 -6.814,3.047 -6.814,6.81l0,45.137c0,3.763 3.052,6.814 6.814,6.814l186.509,0c3.763,0 6.81,-3.051 6.81,-6.814l0,-45.137c0,-3.763 -3.047,-6.81 -6.81,-6.81Z" style="fill:#3e75bb;fill-rule:nonzero;"/><path d="M311.685,1640.79c-6.822,0 -12.35,-5.528 -12.35,-12.346c0,-6.823 5.528,-12.351 12.35,-12.351c6.818,0 12.346,5.528 12.346,12.351c0,6.818 -5.528,12.346 -12.346,12.346Z" style="fill:#719ad1;fill-rule:nonzero;"/><path d="M317.965,1628.44c0,3.469 -2.811,6.28 -6.28,6.28c-3.469,0 -6.281,-2.811 -6.281,-6.28c0,-3.469 2.812,-6.281 6.281,-6.281c3.469,0 6.28,2.812 6.28,6.281Z" style="fill:#3e75bb;fill-rule:nonzero;"/><rect x="271.174" y="1621.41" width="14.058" height="14.054" style="fill:#719ad1;fill-rule:nonzero;"/><path d="M405.14,1537.7l-186.509,0c-3.763,0 -6.81,3.051 -6.81,6.814l0,45.133c0,3.763 3.047,6.814 6.81,6.814l186.509,0c3.762,0 6.814,-3.051 6.814,-6.814l0,-45.133c0,-3.763 -3.052,-6.814 -6.814,-6.814Z" style="fill:#3e75bb;fill-rule:nonzero;"/><path d="M405.14,1596.47l-68.172,0c3.763,0 6.81,-3.051 6.81,-6.814l0,-45.133c0,-3.763 -3.047,-6.814 -6.81,-6.814l-118.337,0l186.509,0c3.762,0 6.814,3.051 6.814,6.814l0,45.133c0,3.763 -3.052,6.814 -6.814,6.814Z" style="fill:#2b65b0;fill-rule:nonzero;"/><path d="M336.968,1537.7l-186.509,0c-3.762,0 -6.814,3.051 -6.814,6.814l0,45.133c0,3.763 3.052,6.814 6.814,6.814l186.509,0c3.763,0 6.81,-3.051 6.81,-6.814l0,-45.133c0,-3.763 -3.047,-6.814 -6.81,-6.814Z" style="fill:#3e75bb;fill-rule:nonzero;"/><path d="M311.685,1579.44c-6.822,0 -12.35,-5.528 -12.35,-12.35c0,-6.818 5.528,-12.346 12.35,-12.346c6.818,0 12.346,5.528 12.346,12.346c0,6.822 -5.528,12.35 -12.346,12.35Z" style="fill:#719ad1;fill-rule:nonzero;"/><path d="M317.965,1567.09c0,3.469 -2.811,6.28 -6.28,6.28c-3.469,0 -6.281,-2.811 -6.281,-6.28c0,-3.469 2.812,-6.281 6.281,-6.281c3.469,0 6.28,2.812 6.28,6.281Z" style="fill:#3e75bb;fill-rule:nonzero;"/><rect x="271.174" y="1560.06" width="14.058" height="14.049" style="fill:#719ad1;fill-rule:nonzero;"/><path d="M405.14,1476.35l-186.509,0c-3.763,0 -6.81,3.051 -6.81,6.814l0,45.138c0,3.762 3.047,6.814 6.81,6.814l186.509,0c3.762,0 6.814,-3.052 6.814,-6.814l0,-45.138c0,-3.763 -3.052,-6.814 -6.814,-6.814Z" style="fill:#3e75bb;fill-rule:nonzero;"/><path d="M405.14,1535.11l-68.172,0c3.763,0 6.81,-3.052 6.81,-6.814l0,-45.138c0,-3.763 -3.047,-6.814 -6.81,-6.814l-118.337,0l186.509,0c3.762,0 6.814,3.051 6.814,6.814l0,45.138c0,3.762 -3.052,6.814 -6.814,6.814Z" style="fill:#2b65b0;fill-rule:nonzero;"/><path d="M405.506,1474.68l-68.171,0c3.762,0 6.809,-3.051 6.809,-6.814l0,-45.137c0,-3.763 -3.047,-6.814 -6.809,-6.814l-118.338,0l186.509,0c3.763,0 6.814,3.051 6.814,6.814l0,45.137c0,3.763 -3.051,6.814 -6.814,6.814Z" style="fill:#2b65b0;fill-rule:nonzero;"/><path d="M403.865,1413.5l-68.172,0c3.763,0 6.81,-3.051 6.81,-6.814l0,-45.138c0,-3.762 -3.047,-6.814 -6.81,-6.814l-118.337,0l186.509,0c3.763,0 6.814,3.052 6.814,6.814l0,45.138c0,3.763 -3.051,6.814 -6.814,6.814Z" style="fill:#2b65b0;fill-rule:nonzero;"/><path d="M336.968,1476.35l-186.509,0c-3.762,0 -6.814,3.051 -6.814,6.814l0,45.138c0,3.762 3.052,6.814 6.814,6.814l186.509,0c3.763,0 6.81,-3.052 6.81,-6.814l0,-45.138c0,-3.763 -3.047,-6.814 -6.81,-6.814Z" style="fill:#3e75bb;fill-rule:nonzero;"/><path d="M337.335,1415.91l-186.509,0c-3.763,0 -6.814,3.051 -6.814,6.814l0,45.137c0,3.763 3.051,6.814 6.814,6.814l186.509,0c3.762,0 6.809,-3.051 6.809,-6.814l0,-45.137c0,-3.763 -3.047,-6.814 -6.809,-6.814Z" style="fill:#3e75bb;fill-rule:nonzero;"/><path d="M335.693,1354.74l-186.509,0c-3.762,0 -6.813,3.052 -6.813,6.814l0,45.138c0,3.763 3.051,6.814 6.813,6.814l186.509,0c3.763,0 6.81,-3.051 6.81,-6.814l0,-45.138c0,-3.762 -3.047,-6.814 -6.81,-6.814Z" style="fill:#3e75bb;fill-rule:nonzero;"/><path d="M311.685,1518.08c-6.822,0 -12.35,-5.528 -12.35,-12.346c0,-6.822 5.528,-12.35 12.35,-12.35c6.818,0 12.346,5.528 12.346,12.35c0,6.818 -5.528,12.346 -12.346,12.346Z" style="fill:#719ad1;fill-rule:nonzero;"/><path d="M317.965,1505.73c0,3.469 -2.811,6.28 -6.28,6.28c-3.469,0 -6.281,-2.811 -6.281,-6.28c0,-3.469 2.812,-6.285 6.281,-6.285c3.469,0 6.28,2.816 6.28,6.285Z" style="fill:#3e75bb;fill-rule:nonzero;"/><path d="M318.332,1445.3c0,3.469 -2.812,6.28 -6.281,6.28c-3.469,0 -6.28,-2.811 -6.28,-6.28c0,-3.469 2.811,-6.285 6.28,-6.285c3.469,0 6.281,2.816 6.281,6.285Z" style="fill:#3e75bb;fill-rule:nonzero;"/><path d="M316.691,1384.12c0,3.469 -2.812,6.281 -6.281,6.281c-3.469,0 -6.28,-2.812 -6.28,-6.281c0,-3.469 2.811,-6.284 6.28,-6.284c3.469,0 6.281,2.815 6.281,6.284Z" style="fill:#3e75bb;fill-rule:nonzero;"/><rect x="271.174" y="1498.7" width="14.058" height="14.054" style="fill:#719ad1;fill-rule:nonzero;"/><rect x="271.54" y="1438.27" width="14.058" height="14.054" style="fill:#719ad1;fill-rule:nonzero;"/><rect x="269.899" y="1377.09" width="14.058" height="14.054" style="fill:#719ad1;fill-rule:nonzero;"/><rect x="376.14" y="1606.91" width="251.232" height="81.758" style="fill:#182f36;fill-rule:nonzero;"/><path d="M630.113,1660.42l-186.509,0c-3.762,0 -6.813,3.051 -6.813,6.814l0,45.133c0,3.767 3.051,6.814 6.813,6.814l186.509,0c3.763,0 6.81,-3.047 6.81,-6.814l0,-45.133c0,-3.763 -3.047,-6.814 -6.81,-6.814Z" style="fill:#3e75bb;fill-rule:nonzero;"/><path d="M630.113,1719.18l-68.176,0c3.763,0 6.814,-3.047 6.814,-6.814l0,-45.133c0,-3.763 -3.051,-6.814 -6.814,-6.814l-118.333,0l186.509,0c3.763,0 6.81,3.051 6.81,6.814l0,45.133c0,3.767 -3.047,6.814 -6.81,6.814Z" style="fill:#2b65b0;fill-rule:nonzero;"/><path d="M561.937,1660.42l-186.504,0c-3.763,0 -6.814,3.051 -6.814,6.814l0,45.133c0,3.767 3.051,6.814 6.814,6.814l186.504,0c3.763,0 6.814,-3.047 6.814,-6.814l0,-45.133c0,-3.763 -3.051,-6.814 -6.814,-6.814Z" style="fill:#3e75bb;fill-rule:nonzero;"/><path d="M536.654,1702.15c-6.818,0 -12.346,-5.528 -12.346,-12.35c0,-6.818 5.528,-12.346 12.346,-12.346c6.822,0 12.35,5.528 12.35,12.346c0,6.822 -5.528,12.35 -12.35,12.35Z" style="fill:#719ad1;fill-rule:nonzero;"/><path d="M542.935,1689.8c0,3.469 -2.812,6.281 -6.281,6.281c-3.469,0 -6.28,-2.812 -6.28,-6.281c0,-3.469 2.811,-6.28 6.28,-6.28c3.469,0 6.281,2.811 6.281,6.28Z" style="fill:#3e75bb;fill-rule:nonzero;"/><rect x="496.151" y="1682.77" width="14.05" height="14.049" style="fill:#719ad1;fill-rule:nonzero;"/><path d="M630.113,1599.06l-186.509,0c-3.762,0 -6.813,3.047 -6.813,6.81l0,45.137c0,3.763 3.051,6.814 6.813,6.814l186.509,0c3.763,0 6.81,-3.051 6.81,-6.814l0,-45.137c0,-3.763 -3.047,-6.81 -6.81,-6.81Z" style="fill:#3e75bb;fill-rule:nonzero;"/><path d="M630.113,1657.82l-68.176,0c3.763,0 6.814,-3.051 6.814,-6.814l0,-45.137c0,-3.763 -3.051,-6.81 -6.814,-6.81l-118.333,0l186.509,0c3.763,0 6.81,3.047 6.81,6.81l0,45.137c0,3.763 -3.047,6.814 -6.81,6.814Z" style="fill:#2b65b0;fill-rule:nonzero;"/><path d="M561.937,1599.06l-186.504,0c-3.763,0 -6.814,3.047 -6.814,6.81l0,45.137c0,3.763 3.051,6.814 6.814,6.814l186.504,0c3.763,0 6.814,-3.051 6.814,-6.814l0,-45.137c0,-3.763 -3.051,-6.81 -6.814,-6.81Z" style="fill:#3e75bb;fill-rule:nonzero;"/><path d="M536.654,1640.79c-6.818,0 -12.346,-5.528 -12.346,-12.346c0,-6.823 5.528,-12.351 12.346,-12.351c6.822,0 12.35,5.528 12.35,12.351c0,6.818 -5.528,12.346 -12.35,12.346Z" style="fill:#719ad1;fill-rule:nonzero;"/><path d="M542.935,1628.44c0,3.469 -2.812,6.28 -6.281,6.28c-3.469,0 -6.28,-2.811 -6.28,-6.28c0,-3.469 2.811,-6.281 6.28,-6.281c3.469,0 6.281,2.812 6.281,6.281Z" style="fill:#3e75bb;fill-rule:nonzero;"/><rect x="496.151" y="1621.41" width="14.05" height="14.054" style="fill:#719ad1;fill-rule:nonzero;"/></g></g></svg>