<?xml version="1.0" encoding="UTF-8" standalone="no"?><!DOCTYPE svg PUBLIC "-//W3C//DTD SVG 1.1//EN" "http://www.w3.org/Graphics/SVG/1.1/DTD/svg11.dtd"><svg width="100%" height="100%" viewBox="0 0 1945 1945" version="1.1" xmlns="http://www.w3.org/2000/svg" xmlns:xlink="http://www.w3.org/1999/xlink" xml:space="preserve" xmlns:serif="http://www.serif.com/" style="fill-rule:evenodd;clip-rule:evenodd;stroke-linejoin:round;stroke-miterlimit:2;"><g id="Layer5"><g><rect x="0" y="1550.34" width="1948.18" height="1.07" style="fill:#e5e5e4;fill-rule:nonzero;"/><rect x="1623.92" y="1619.24" width="129.055" height="1.07" style="fill:#e5e5e4;fill-rule:nonzero;"/><rect x="1256.68" y="1630.85" width="33.871" height="1.07" style="fill:#e5e5e4;fill-rule:nonzero;"/><rect x="1545.24" y="1579.49" width="74.779" height="1.07" style="fill:#e5e5e4;fill-rule:nonzero;"/><rect x="204.399" y="1586.68" width="168.296" height="1.07" style="fill:#e5e5e4;fill-rule:nonzero;"/><rect x="407.388" y="1586.68" width="24.676" height="1.07" style="fill:#e5e5e4;fill-rule:nonzero;"/><rect x="512.259" y="1604.75" width="364.996" height="1.07" style="fill:#e5e5e4;fill-rule:nonzero;"/><path d="M171.109,149.678c-11.728,0 -21.267,10.479 -21.267,23.36l0,1161.94c0,12.886 9.539,23.365 21.267,23.365l752.384,0c11.72,0 21.262,-10.479 21.262,-23.365l0,-1161.94c0,-12.881 -9.542,-23.36 -21.262,-23.36l-752.384,0Zm752.384,1209.74l-752.384,0c-12.266,0 -22.241,-10.959 -22.241,-24.435l0,-1161.94c0,-13.472 9.975,-24.43 22.241,-24.43l752.384,0c12.258,0 22.236,10.958 22.236,24.43l0,1161.94c0,13.476 -9.978,24.435 -22.236,24.435Z" style="fill:#e5e5e4;fill-rule:nonzero;"/><path d="M1013.88,149.678c-11.724,0 -21.263,10.479 -21.263,23.36l0,1161.94c0,12.886 9.539,23.365 21.263,23.365l752.384,0c11.724,0 21.266,-10.479 21.266,-23.365l0,-1161.94c0,-12.881 -9.542,-23.36 -21.266,-23.36l-752.384,0Zm752.384,1209.74l-752.384,0c-12.262,0 -22.237,-10.959 -22.237,-24.435l0,-1161.94c0,-13.472 9.975,-24.43 22.237,-24.43l752.384,0c12.262,0 22.24,10.958 22.24,24.43l0,1161.94c0,13.476 -9.978,24.435 -22.24,24.435Z" style="fill:#e5e5e4;fill-rule:nonzero;"/><path d="M333.654,353.645c0.428,-56.087 41.928,-101.412 93.084,-101.412c12.324,0 24.079,2.654 34.845,7.436c18.282,-41.087 56.684,-69.396 101.114,-69.396c53.735,0 98.641,41.399 109.804,96.742c50.536,3.57 90.524,49.708 90.524,106.129c0,58.754 -43.351,106.383 -96.825,106.383l-308.105,0c-37.907,0 -68.634,-33.763 -68.634,-75.411c0,-32.187 18.356,-59.645 44.193,-70.471Z" style="fill:#d7d9d9;fill-rule:nonzero;"/><path d="M1426.41,1188.03c0.265,-34.61 25.872,-62.577 57.437,-62.577c7.601,0 14.857,1.64 21.5,4.589c11.28,-25.355 34.978,-42.821 62.392,-42.821c33.155,0 60.865,25.544 67.754,59.692c31.183,2.204 55.855,30.672 55.855,65.488c0,36.254 -26.749,65.641 -59.747,65.641l-190.108,0c-23.39,0 -42.353,-20.834 -42.353,-46.532c0,-19.859 11.33,-36.802 27.27,-43.48Z" style="fill:#d7d9d9;fill-rule:nonzero;"/><path d="M398.018,1001.65c0.448,-58.792 43.951,-106.309 97.568,-106.309c12.917,0 25.245,2.787 36.529,7.795c19.162,-43.073 59.419,-72.748 105.997,-72.748c56.325,0 103.401,43.403 115.102,101.417c52.975,3.741 94.892,52.106 94.892,111.249c0,61.588 -45.439,111.515 -101.496,111.515l-322.97,0c-39.743,0 -71.954,-35.389 -71.954,-79.049c0,-33.737 19.248,-62.526 46.332,-73.87Z" style="fill:#eaebea;fill-rule:nonzero;"/><path d="M465.199,1103.4c0,8.934 -6.593,16.177 -14.729,16.177c-8.135,0 -14.728,-7.243 -14.728,-16.177c0,-8.939 6.593,-16.182 14.728,-16.182c8.136,0 14.729,7.243 14.729,16.182Z" style="fill:#e0e0df;fill-rule:nonzero;"/><path d="M520.722,1103.4c0,8.934 -6.593,16.177 -14.728,16.177c-8.136,0 -14.729,-7.243 -14.729,-16.177c0,-8.939 6.593,-16.182 14.729,-16.182c8.135,0 14.728,7.243 14.728,16.182Z" style="fill:#fff;fill-rule:nonzero;"/><path d="M1405.42,483.833c0.307,-40.723 30.438,-73.63 67.574,-73.63c8.95,0 17.483,1.931 25.299,5.398c13.275,-29.833 41.158,-50.38 73.412,-50.38c39.014,0 71.615,30.055 79.723,70.235c36.688,2.594 65.72,36.087 65.72,77.054c0,42.65 -31.475,77.23 -70.298,77.23l-223.686,0c-27.524,0 -49.835,-24.512 -49.835,-54.747c0,-23.369 13.333,-43.304 32.091,-51.16Z" style="fill:#f0f0f0;fill-rule:nonzero;"/><path d="M1609.51,551.303c0,5.779 -4.266,10.467 -9.527,10.467c-5.263,0 -9.53,-4.688 -9.53,-10.467c0,-5.783 4.267,-10.471 9.53,-10.471c5.261,0 9.527,4.688 9.527,10.471Z" style="fill:#fff;fill-rule:nonzero;"/><path d="M1645.43,551.303c0,5.779 -4.267,10.467 -9.531,10.467c-5.26,0 -9.526,-4.688 -9.526,-10.467c0,-5.783 4.266,-10.471 9.526,-10.471c5.264,0 9.531,4.688 9.531,10.471Z" style="fill:#fff;fill-rule:nonzero;"/><path d="M1573.59,551.303c0,5.779 -4.267,10.467 -9.527,10.467c-5.264,0 -9.531,-4.688 -9.531,-10.467c0,-5.783 4.267,-10.471 9.531,-10.471c5.26,0 9.527,4.688 9.527,10.471Z" style="fill:#e0e0df;fill-rule:nonzero;"/><path d="M1729.55,1695.19c0,26.772 -338.227,48.476 -755.462,48.476c-417.23,0 -755.466,-21.704 -755.466,-48.476c0,-26.768 338.236,-48.471 755.466,-48.471c417.235,0 755.462,21.703 755.462,48.471Z" style="fill:#f0f0f0;fill-rule:nonzero;"/><path d="M784.899,330.439l-71.646,0c-95.083,0 -176.607,63.566 -211.409,154.109l-57.012,0c-108.548,0 -196.548,96.678 -196.548,215.941c0,119.263 88,215.945 196.548,215.945l340.067,0l0,-585.995Z" style="fill:#3073ba;fill-rule:nonzero;"/><path d="M615.598,342.549l-1.593,-3.908c8.938,-4.388 18.215,-8.215 27.574,-11.378l1.146,4.092c-9.211,3.112 -18.337,6.879 -27.127,11.194Z" style="fill:#3073ba;fill-rule:nonzero;"/><path d="M526.683,418.007l-3.039,-2.68c17.974,-24.644 39.579,-45.402 64.208,-61.69l2.007,3.668c-24.232,16.028 -45.486,36.451 -63.176,60.702Z" style="fill:#3073ba;fill-rule:nonzero;"/><path d="M516.486,916.434l-71.654,0c-108.548,0 -196.548,-96.682 -196.548,-215.945c0,-23.583 3.445,-46.293 9.803,-67.538c-2.049,6.853 -3.791,13.857 -5.217,20.989l71.639,0c-2.997,14.991 -4.579,30.573 -4.579,46.549c0,119.263 88.004,215.945 196.556,215.945Zm-241.122,-325.392c34.171,-63.733 97.273,-106.494 169.468,-106.494l57.012,0c18.021,-46.879 48.564,-86.528 87.029,-113.865l71.643,0c-4.466,3.172 -8.83,6.52 -13.077,10.017l-71.595,0c-24.314,20.034 -44.925,45.248 -60.394,74.186l71.604,0c-6.453,12.051 -12.025,24.748 -16.607,37.971c-17.155,-5.372 -35.242,-8.309 -53.961,-8.309c-67.847,0 -127.664,37.765 -162.988,95.205l-71.639,0c-2.268,3.682 -4.434,7.449 -6.495,11.289Z" style="fill:#1f68b3;fill-rule:nonzero;"/><path d="M614.628,354.865c29.874,-15.663 63.308,-24.426 98.625,-24.426l71.646,0c-29.53,0 -57.752,6.13 -83.674,17.299l-71.611,0c-5.085,2.183 -10.084,4.563 -14.986,7.127Z" style="fill:#1f68b3;fill-rule:nonzero;"/><path d="M587.054,454.886l-71.604,0c15.469,-28.938 36.08,-54.152 60.394,-74.186l71.595,0c-24.321,20.043 -44.901,45.265 -60.385,74.186Z" style="fill:#276eb7;fill-rule:nonzero;"/><path d="M258.087,632.951c4.407,-14.739 10.224,-28.776 17.277,-41.909c-7.049,13.142 -12.866,27.174 -17.277,41.909Z" style="fill:#88b3df;fill-rule:nonzero;"/><path d="M324.509,653.94l-71.639,0c1.426,-7.132 3.168,-14.136 5.217,-20.989c4.411,-14.735 10.228,-28.767 17.277,-41.909c2.061,-3.84 4.227,-7.607 6.495,-11.289l71.639,0c-13.622,22.153 -23.597,47.222 -28.989,74.187Z" style="fill:#276eb7;fill-rule:nonzero;"/><path d="M588.873,370.683l-0.015,0c8.225,-5.861 16.84,-11.147 25.77,-15.818c-8.919,4.675 -17.518,9.966 -25.755,15.818Z" style="fill:#7aa6d8;fill-rule:nonzero;"/><path d="M660.516,370.683l-71.643,0c8.237,-5.852 16.836,-11.143 25.755,-15.818c4.902,-2.564 9.901,-4.944 14.986,-7.127l71.611,0c-14.327,6.173 -27.953,13.878 -40.709,22.945Z" style="fill:#276eb7;fill-rule:nonzero;"/><path d="M1176.14,650.648c-19.626,-91.229 -91.872,-160.077 -179.622,-165.693c-34.717,-90.77 -116.385,-154.516 -211.62,-154.516c-97.966,0 -181.543,67.478 -214.452,162.418c-17.155,-5.372 -35.242,-8.309 -53.961,-8.309c-108.552,0 -196.556,96.678 -196.556,215.941c0,119.263 88.004,215.945 196.556,215.945l625.987,0c68.1,0 123.304,-60.654 123.304,-135.474c0,-61.982 -37.908,-114.212 -89.636,-130.312Z" style="fill:#3073ba;fill-rule:nonzero;"/><path d="M1159.51,650.99l0.004,-0.004l0.004,0l-0.008,0.004Zm-71.361,-99.156c-29.714,-28.879 -67.899,-47.153 -109.106,-49.807l-9.702,-0.6l-3.741,-9.846c-32.379,-84.67 -105.942,-140.32 -188.935,-143.835c2.728,-0.124 5.455,-0.171 8.222,-0.171c86.382,0 163.803,56.507 197.273,144.006l3.74,9.846l9.702,0.6c32.757,2.11 63.608,14.092 89.807,33.424l2.74,16.383Z" style="fill:#1f68b3;fill-rule:nonzero;"/><path d="M1155.35,667.137l-8.845,-2.739l-2.104,-9.803c-18.235,-84.761 -86.226,-147.474 -165.361,-152.568l-9.702,-0.6l-3.741,-9.846c-32.379,-84.67 -105.942,-140.32 -188.935,-143.835l-0.272,0c-84.785,3.767 -160.998,63.57 -191.39,151.203l-5.065,14.679l-13.754,-4.32c-0.39,-0.132 -0.818,-0.261 -1.208,-0.346c-15.819,-4.834 -32.184,-7.278 -48.471,-7.278c-2.844,0 -5.65,0.086 -8.494,0.214c-95.851,4.88 -172.496,92.08 -172.496,198.587c0,109.631 81.204,198.843 180.99,198.843l609.43,0c59.381,0 107.696,-53.125 107.696,-118.364c0,-52.697 -32.184,-99.486 -78.278,-113.827Z" style="fill:#fff;fill-rule:nonzero;"/><path d="M683.259,1142.35l-7.984,0c-11.186,0 -20.253,-9.962 -20.253,-22.252l0,-88.005l48.49,0l0,88.005c0,12.29 -9.071,22.252 -20.253,22.252Z" style="fill:#3073ba;fill-rule:nonzero;"/><path d="M683.259,1142.35l-7.984,0c-11.186,0 -20.253,-9.962 -20.253,-22.252l0,-64.807c5.046,2.688 10.707,4.191 16.688,4.191l15.11,0c5.985,0 11.646,-1.507 16.692,-4.191l0,64.807c0,12.29 -9.071,22.252 -20.253,22.252Z" style="fill:#1f68b3;fill-rule:nonzero;"/><path d="M686.82,1059.48l-15.11,0c-21.173,0 -38.333,-18.857 -38.333,-42.119l0,-100.929l91.779,0l0,100.929c0,23.262 -17.163,42.119 -38.336,42.119Z" style="fill:#3073ba;fill-rule:nonzero;"/><path d="M633.377,956.926l0,-40.492l91.779,0l0,25.274l-91.779,15.218Z" style="fill:#1f68b3;fill-rule:nonzero;"/><path d="M718.069,992.483c0,7.388 -5.451,13.377 -12.176,13.377c-6.725,0 -12.176,-5.989 -12.176,-13.377c0,-7.389 5.451,-13.378 12.176,-13.378c6.725,0 12.176,5.989 12.176,13.378Z" style="fill:#fff;fill-rule:nonzero;"/><path d="M673.424,1005.86c-6.729,0 -12.176,-5.989 -12.176,-13.377c0,-7.389 5.447,-13.378 12.176,-13.378c6.722,0 12.176,5.989 12.176,13.378c0,7.388 -5.454,13.377 -12.176,13.377Z" style="fill:#8ab3df;fill-rule:nonzero;"/><path d="M984.915,1290.35l-204.345,0c-61.227,0 -111.046,-54.73 -111.046,-122.003l0,-26.001l19.482,0l0,26.001c0,55.471 41.075,100.599 91.564,100.599l204.345,0l0,21.404Z" style="fill:#3073ba;fill-rule:nonzero;"/><path d="M1461.87,753.828l-334.869,0c-27.949,0 -50.812,25.12 -50.812,55.826l0,829.714c0,30.706 22.863,55.826 50.812,55.826l334.869,0c27.949,0 50.813,-25.12 50.813,-55.826l0,-829.714c0,-30.706 -22.864,-55.826 -50.813,-55.826Z" style="fill:#3073ba;fill-rule:nonzero;"/><path d="M1461.87,1695.19l-91.276,0c27.949,0 50.816,-25.12 50.816,-55.826l0,-829.714c0,-30.706 -22.867,-55.826 -50.816,-55.826l-14.728,0l106.004,0c27.949,0 50.813,25.12 50.813,55.826l0,829.714c0,30.706 -22.864,55.826 -50.813,55.826Zm-14.526,-747.009c-6.351,0 -11.552,5.715 -11.552,12.697l0,53.476c0,6.982 5.201,12.692 11.552,12.692l39.4,0c6.356,0 11.557,-5.71 11.557,-12.692l0,-53.476c0,-6.982 -5.201,-12.697 -11.557,-12.697l-39.4,0Z" style="fill:#1f68b3;fill-rule:nonzero;"/><path d="M1370.6,753.828l-334.869,0c-27.949,0 -50.813,25.12 -50.813,55.826l0,829.714c0,30.706 22.864,55.826 50.813,55.826l334.869,0c27.949,0 50.816,-25.12 50.816,-55.826l0,-829.714c0,-30.706 -22.867,-55.826 -50.816,-55.826Z" style="fill:#3073ba;fill-rule:nonzero;"/><path d="M1017.61,1350.41l-15.761,0l0,-540.76c0,-8.84 2.821,-16.969 7.524,-23.365l12.238,5.831c-2.552,5.227 -4.001,11.198 -4.001,17.534l0,540.76Z" style="fill:#1f68b3;fill-rule:nonzero;"/><path d="M1051.49,1676.59c-18.68,0 -33.875,-16.7 -33.875,-37.222l0,-829.714c0,-20.522 15.195,-37.217 33.875,-37.217l319.112,0c18.675,0 33.875,16.695 33.875,37.217l0,829.714c0,20.522 -15.2,37.222 -33.875,37.222l-319.112,0Z" style="fill:#fff;fill-rule:nonzero;"/><path d="M1351.78,881.285l-156.926,0c2.124,-7.291 4.197,-14.863 6.188,-22.616l57.935,0c3.171,0 5.763,-2.851 5.763,-6.335c0,-3.481 -2.592,-6.332 -5.763,-6.332l-54.799,0c1.773,-7.448 3.456,-15.017 5.011,-22.615l142.591,0c14.491,0 26.348,13.026 26.348,28.947c0,15.924 -11.857,28.951 -26.348,28.951Zm-226.289,0l-55.18,0c-14.491,0 -26.347,-13.027 -26.347,-28.951c0,-15.921 11.856,-28.947 26.347,-28.947l53.509,0c0.226,7.607 0.444,15.167 0.662,22.615l-58.406,0c-3.168,0 -5.763,2.851 -5.763,6.332c0,3.484 2.595,6.335 5.763,6.335l58.772,0c0.222,7.74 0.437,15.304 0.643,22.616Z" style="fill:#b3cfec;fill-rule:nonzero;"/><path d="M1258.97,858.669l-192.901,0c-3.168,0 -5.763,-2.851 -5.763,-6.335c0,-3.481 2.595,-6.332 5.763,-6.332l192.901,0c3.171,0 5.763,2.851 5.763,6.332c0,3.484 -2.592,6.335 -5.763,6.335Z" style="fill:#fff;fill-rule:nonzero;"/><path d="M1334.37,852.334c0,3.497 -2.579,6.335 -5.762,6.335c-3.184,0 -5.763,-2.838 -5.763,-6.335c0,-3.494 2.579,-6.332 5.763,-6.332c3.183,0 5.762,2.838 5.762,6.332Z" style="fill:#3073ba;fill-rule:nonzero;"/><path d="M1359.78,852.334c0,3.497 -2.58,6.335 -5.763,6.335c-3.183,0 -5.763,-2.838 -5.763,-6.335c0,-3.494 2.58,-6.332 5.763,-6.332c3.183,0 5.763,2.838 5.763,6.332Z" style="fill:#3073ba;fill-rule:nonzero;"/><path d="M1308.96,852.334c0,3.497 -2.579,6.335 -5.763,6.335c-3.183,0 -5.762,-2.838 -5.762,-6.335c0,-3.494 2.579,-6.332 5.762,-6.332c3.184,0 5.763,2.838 5.763,6.332Z" style="fill:#3073ba;fill-rule:nonzero;"/><path d="M1351.78,974.328l-281.469,0c-14.491,0 -26.347,-13.027 -26.347,-28.947l0,-0.004c0,-15.916 11.856,-28.943 26.347,-28.943l65.895,0l-0.432,25.296l35.394,-1.773l3.604,-23.523l177.008,0c14.491,0 26.348,13.027 26.348,28.943l0,0.004c0,15.92 -11.857,28.947 -26.348,28.947Zm-48.576,-35.283c-3.183,0 -5.762,2.839 -5.762,6.336c0,3.497 2.579,6.331 5.762,6.331c3.184,0 5.763,-2.834 5.763,-6.331c0,-3.497 -2.579,-6.336 -5.763,-6.336Z" style="fill:#b3cfec;fill-rule:nonzero;"/><path d="M1258.97,951.712l-192.901,0c-3.168,0 -5.763,-2.851 -5.763,-6.331c0,-3.484 2.595,-6.331 5.763,-6.331l192.901,0c3.171,0 5.763,2.847 5.763,6.331c0,3.48 -2.592,6.331 -5.763,6.331Z" style="fill:#fff;fill-rule:nonzero;"/><path d="M1334.37,945.381c0,3.497 -2.579,6.331 -5.762,6.331c-3.184,0 -5.763,-2.834 -5.763,-6.331c0,-3.497 2.579,-6.331 5.763,-6.331c3.183,0 5.762,2.834 5.762,6.331Z" style="fill:#3073ba;fill-rule:nonzero;"/><path d="M1359.78,945.381c0,3.497 -2.58,6.331 -5.763,6.331c-3.183,0 -5.763,-2.834 -5.763,-6.331c0,-3.497 2.58,-6.331 5.763,-6.331c3.183,0 5.763,2.834 5.763,6.331Z" style="fill:#3073ba;fill-rule:nonzero;"/><path d="M1303.2,951.712c-3.183,0 -5.762,-2.834 -5.762,-6.331c0,-3.497 2.579,-6.336 5.762,-6.336c3.184,0 5.763,2.839 5.763,6.336c0,3.497 -2.579,6.331 -5.763,6.331Z" style="fill:#86b1de;fill-rule:nonzero;"/><path d="M1351.78,1067.37l-281.469,0c-14.491,0 -26.347,-13.026 -26.347,-28.947c0,-15.92 11.856,-28.946 26.347,-28.946l281.469,0c14.491,0 26.348,13.026 26.348,28.946c0,15.921 -11.857,28.947 -26.348,28.947Zm-48.576,-35.278c-3.183,0 -5.762,2.834 -5.762,6.331c0,3.498 2.579,6.332 5.762,6.332c3.184,0 5.763,-2.834 5.763,-6.332c0,-3.497 -2.579,-6.331 -5.763,-6.331Z" style="fill:#b3cfec;fill-rule:nonzero;"/><path d="M1258.97,1044.76l-192.901,0c-3.168,0 -5.763,-2.851 -5.763,-6.332c0,-3.484 2.595,-6.331 5.763,-6.331l192.901,0c3.171,0 5.763,2.847 5.763,6.331c0,3.481 -2.592,6.332 -5.763,6.332Z" style="fill:#fff;fill-rule:nonzero;"/><path d="M1334.37,1038.42c0,3.498 -2.579,6.332 -5.762,6.332c-3.184,0 -5.763,-2.834 -5.763,-6.332c0,-3.497 2.579,-6.331 5.763,-6.331c3.183,0 5.762,2.834 5.762,6.331Z" style="fill:#3073ba;fill-rule:nonzero;"/><path d="M1359.78,1038.42c0,3.498 -2.58,6.332 -5.763,6.332c-3.183,0 -5.763,-2.834 -5.763,-6.332c0,-3.497 2.58,-6.331 5.763,-6.331c3.183,0 5.763,2.834 5.763,6.331Z" style="fill:#3073ba;fill-rule:nonzero;"/><path d="M1303.2,1044.76c-3.183,0 -5.762,-2.834 -5.762,-6.332c0,-3.497 2.579,-6.331 5.762,-6.331c3.184,0 5.763,2.834 5.763,6.331c0,3.498 -2.579,6.332 -5.763,6.332Z" style="fill:#6396cf;fill-rule:nonzero;"/><path d="M1351.78,1160.41l-281.469,0c-14.491,0 -26.347,-13.027 -26.347,-28.947c0,-15.921 11.856,-28.947 26.347,-28.947l281.469,0c14.491,0 26.348,13.026 26.348,28.947c0,15.92 -11.857,28.947 -26.348,28.947Zm2.237,-35.279c-3.183,0 -5.763,2.834 -5.763,6.332c0,3.497 2.58,6.331 5.763,6.331c3.183,0 5.763,-2.834 5.763,-6.331c0,-3.498 -2.58,-6.332 -5.763,-6.332Zm-50.813,0c-3.183,0 -5.762,2.834 -5.762,6.332c0,3.497 2.579,6.331 5.762,6.331c3.184,0 5.763,-2.834 5.763,-6.331c0,-3.498 -2.579,-6.332 -5.763,-6.332Z" style="fill:#b3cfec;fill-rule:nonzero;"/><path d="M1258.97,1137.8l-192.901,0c-3.168,0 -5.763,-2.851 -5.763,-6.331c0,-3.485 2.595,-6.332 5.763,-6.332l192.901,0c3.171,0 5.763,2.847 5.763,6.332c0,3.48 -2.592,6.331 -5.763,6.331Z" style="fill:#fff;fill-rule:nonzero;"/><path d="M1334.37,1131.47c0,3.497 -2.579,6.331 -5.762,6.331c-3.184,0 -5.763,-2.834 -5.763,-6.331c0,-3.498 2.579,-6.332 5.763,-6.332c3.183,0 5.762,2.834 5.762,6.332Z" style="fill:#3073ba;fill-rule:nonzero;"/><path d="M1354.01,1137.8c-3.183,0 -5.763,-2.834 -5.763,-6.331c0,-3.498 2.58,-6.332 5.763,-6.332c3.183,0 5.763,2.834 5.763,6.332c0,3.497 -2.58,6.331 -5.763,6.331Z" style="fill:#86b1de;fill-rule:nonzero;"/><path d="M1303.2,1137.8c-3.183,0 -5.762,-2.834 -5.762,-6.331c0,-3.498 2.579,-6.332 5.762,-6.332c3.184,0 5.763,2.834 5.763,6.332c0,3.497 -2.579,6.331 -5.763,6.331Z" style="fill:#6396cf;fill-rule:nonzero;"/><path d="M1351.78,1253.46l-281.469,0c-14.491,0 -26.347,-13.027 -26.347,-28.943c0,-15.924 11.856,-28.951 26.347,-28.951l281.469,0c14.491,0 26.348,13.027 26.348,28.951c0,15.916 -11.857,28.943 -26.348,28.943Zm2.237,-35.274c-3.183,0 -5.763,2.83 -5.763,6.331c0,3.493 2.58,6.327 5.763,6.327c3.183,0 5.763,-2.834 5.763,-6.327c0,-3.501 -2.58,-6.331 -5.763,-6.331Z" style="fill:#b3cfec;fill-rule:nonzero;"/><path d="M1258.97,1230.84l-192.901,0c-3.168,0 -5.763,-2.842 -5.763,-6.327c0,-3.484 2.595,-6.331 5.763,-6.331l192.901,0c3.171,0 5.763,2.847 5.763,6.331c0,3.485 -2.592,6.327 -5.763,6.327Z" style="fill:#fff;fill-rule:nonzero;"/><path d="M1334.37,1224.52c0,3.493 -2.579,6.327 -5.762,6.327c-3.184,0 -5.763,-2.834 -5.763,-6.327c0,-3.501 2.579,-6.331 5.763,-6.331c3.183,0 5.762,2.83 5.762,6.331Z" style="fill:#3073ba;fill-rule:nonzero;"/><path d="M1354.01,1230.84c-3.183,0 -5.763,-2.834 -5.763,-6.327c0,-3.501 2.58,-6.331 5.763,-6.331c3.183,0 5.763,2.83 5.763,6.331c0,3.493 -2.58,6.327 -5.763,6.327Z" style="fill:#6396cf;fill-rule:nonzero;"/><path d="M1308.96,1224.52c0,3.493 -2.579,6.327 -5.763,6.327c-3.183,0 -5.762,-2.834 -5.762,-6.327c0,-3.501 2.579,-6.331 5.762,-6.331c3.184,0 5.763,2.83 5.763,6.331Z" style="fill:#3073ba;fill-rule:nonzero;"/><path d="M1351.78,1346.5l-281.469,0c-14.491,0 -26.347,-13.026 -26.347,-28.947c0,-15.92 11.856,-28.947 26.347,-28.947l281.469,0c14.491,0 26.348,13.027 26.348,28.947c0,15.921 -11.857,28.947 -26.348,28.947Zm-23.171,-35.278c-3.184,0 -5.763,2.834 -5.763,6.331c0,3.498 2.579,6.332 5.763,6.332c3.183,0 5.762,-2.834 5.762,-6.332c0,-3.497 -2.579,-6.331 -5.762,-6.331Z" style="fill:#b3cfec;fill-rule:nonzero;"/><path d="M1258.97,1323.89l-192.901,0c-3.168,0 -5.763,-2.847 -5.763,-6.332c0,-3.48 2.595,-6.331 5.763,-6.331l192.901,0c3.171,0 5.763,2.851 5.763,6.331c0,3.485 -2.592,6.332 -5.763,6.332Z" style="fill:#fff;fill-rule:nonzero;"/><path d="M1328.61,1323.89c-3.184,0 -5.763,-2.834 -5.763,-6.332c0,-3.497 2.579,-6.331 5.763,-6.331c3.183,0 5.762,2.834 5.762,6.331c0,3.498 -2.579,6.332 -5.762,6.332Z" style="fill:#86b1de;fill-rule:nonzero;"/><path d="M1359.78,1317.55c0,3.498 -2.58,6.332 -5.763,6.332c-3.183,0 -5.763,-2.834 -5.763,-6.332c0,-3.497 2.58,-6.331 5.763,-6.331c3.183,0 5.763,2.834 5.763,6.331Z" style="fill:#3073ba;fill-rule:nonzero;"/><path d="M1308.96,1317.55c0,3.498 -2.579,6.332 -5.763,6.332c-3.183,0 -5.762,-2.834 -5.762,-6.332c0,-3.497 2.579,-6.331 5.762,-6.331c3.184,0 5.763,2.834 5.763,6.331Z" style="fill:#3073ba;fill-rule:nonzero;"/><path d="M1351.78,1439.55l-268.58,0l1.703,-22.616l174.074,0c3.171,0 5.763,-2.851 5.763,-6.335c0,-3.481 -2.592,-6.332 -5.763,-6.332l-173.12,0l1.703,-22.611l264.22,0c14.491,0 26.348,13.022 26.348,28.943c0,15.924 -11.857,28.951 -26.348,28.951Zm-23.171,-35.283c-3.184,0 -5.763,2.838 -5.763,6.332c0,3.497 2.579,6.335 5.763,6.335c3.183,0 5.762,-2.838 5.762,-6.335c0,-3.494 -2.579,-6.332 -5.762,-6.332Zm-25.405,0c-3.183,0 -5.762,2.838 -5.762,6.332c0,3.497 2.579,6.335 5.762,6.335c3.184,0 5.763,-2.838 5.763,-6.335c0,-3.494 -2.579,-6.332 -5.763,-6.332Z" style="fill:#b3cfec;fill-rule:nonzero;"/><path d="M1258.97,1416.93l-192.901,0c-3.168,0 -5.763,-2.851 -5.763,-6.335c0,-3.481 2.595,-6.332 5.763,-6.332l192.901,0c3.171,0 5.763,2.851 5.763,6.332c0,3.484 -2.592,6.335 -5.763,6.335Z" style="fill:#fff;fill-rule:nonzero;"/><path d="M1328.61,1416.93c-3.184,0 -5.763,-2.838 -5.763,-6.335c0,-3.494 2.579,-6.332 5.763,-6.332c3.183,0 5.762,2.838 5.762,6.332c0,3.497 -2.579,6.335 -5.762,6.335Z" style="fill:#86b1de;fill-rule:nonzero;"/><path d="M1359.78,1410.6c0,3.493 -2.58,6.331 -5.763,6.331c-3.183,0 -5.763,-2.838 -5.763,-6.331c0,-3.498 2.58,-6.336 5.763,-6.336c3.183,0 5.763,2.838 5.763,6.336Z" style="fill:#3073ba;fill-rule:nonzero;"/><path d="M1303.2,1416.93c-3.183,0 -5.762,-2.838 -5.762,-6.335c0,-3.494 2.579,-6.332 5.762,-6.332c3.184,0 5.763,2.838 5.763,6.332c0,3.497 -2.579,6.335 -5.763,6.335Z" style="fill:#86b1de;fill-rule:nonzero;"/><path d="M1351.78,1532.59l-265.322,0l-1.621,-22.615l174.14,0c3.171,0 5.763,-2.851 5.763,-6.332c0,-3.484 -2.592,-6.335 -5.763,-6.335l-175.048,0l-1.625,-22.612l269.476,0c14.491,0 26.348,13.027 26.348,28.947c0,15.921 -11.857,28.947 -26.348,28.947Z" style="fill:#b3cfec;fill-rule:nonzero;"/><path d="M1258.97,1509.98l-192.901,0c-3.168,0 -5.763,-2.851 -5.763,-6.332c0,-3.484 2.595,-6.335 5.763,-6.335l192.901,0c3.171,0 5.763,2.851 5.763,6.335c0,3.481 -2.592,6.332 -5.763,6.332Z" style="fill:#fff;fill-rule:nonzero;"/><path d="M1334.37,1503.64c0,3.498 -2.579,6.332 -5.762,6.332c-3.184,0 -5.763,-2.834 -5.763,-6.332c0,-3.497 2.579,-6.335 5.763,-6.335c3.183,0 5.762,2.838 5.762,6.335Z" style="fill:#3073ba;fill-rule:nonzero;"/><path d="M1359.78,1503.64c0,3.498 -2.58,6.332 -5.763,6.332c-3.183,0 -5.763,-2.834 -5.763,-6.332c0,-3.497 2.58,-6.335 5.763,-6.335c3.183,0 5.763,2.838 5.763,6.335Z" style="fill:#3073ba;fill-rule:nonzero;"/><path d="M1308.96,1503.64c0,3.498 -2.579,6.332 -5.763,6.332c-3.183,0 -5.762,-2.834 -5.762,-6.332c0,-3.497 2.579,-6.335 5.762,-6.335c3.184,0 5.763,2.838 5.763,6.335Z" style="fill:#3073ba;fill-rule:nonzero;"/><path d="M1351.78,1625.63l-258.644,0l-1.621,-22.615l167.462,0c3.171,0 5.763,-2.851 5.763,-6.331c0,-3.485 -2.592,-6.332 -5.763,-6.332l-168.374,0l-1.621,-22.615l262.798,0c14.491,0 26.348,13.026 26.348,28.947c0,15.92 -11.857,28.946 -26.348,28.946Zm-48.576,-35.278c-3.183,0 -5.762,2.834 -5.762,6.332c0,3.497 2.579,6.331 5.762,6.331c3.184,0 5.763,-2.834 5.763,-6.331c0,-3.498 -2.579,-6.332 -5.763,-6.332Z" style="fill:#b3cfec;fill-rule:nonzero;"/><path d="M1258.97,1603.02l-192.901,0c-3.168,0 -5.763,-2.851 -5.763,-6.331c0,-3.485 2.595,-6.332 5.763,-6.332l192.901,0c3.171,0 5.763,2.847 5.763,6.332c0,3.48 -2.592,6.331 -5.763,6.331Z" style="fill:#fff;fill-rule:nonzero;"/><path d="M1334.37,1596.69c0,3.497 -2.579,6.331 -5.762,6.331c-3.184,0 -5.763,-2.834 -5.763,-6.331c0,-3.498 2.579,-6.332 5.763,-6.332c3.183,0 5.762,2.834 5.762,6.332Z" style="fill:#3073ba;fill-rule:nonzero;"/><path d="M1359.78,1596.69c0,3.497 -2.58,6.331 -5.763,6.331c-3.183,0 -5.763,-2.834 -5.763,-6.331c0,-3.498 2.58,-6.332 5.763,-6.332c3.183,0 5.763,2.834 5.763,6.332Z" style="fill:#3073ba;fill-rule:nonzero;"/><path d="M1303.2,1603.02c-3.183,0 -5.762,-2.834 -5.762,-6.331c0,-3.498 2.579,-6.332 5.762,-6.332c3.184,0 5.763,2.834 5.763,6.332c0,3.497 -2.579,6.331 -5.763,6.331Z" style="fill:#6396cf;fill-rule:nonzero;"/><path d="M1486.75,1027.05l-39.4,0c-6.351,0 -11.552,-5.71 -11.552,-12.692l0,-53.476c0,-6.982 5.201,-12.697 11.552,-12.697l39.4,0c6.356,0 11.557,5.715 11.557,12.697l0,53.476c0,6.982 -5.201,12.692 -11.557,12.692Z" style="fill:#0759a9;fill-rule:nonzero;"/><path d="M1098.12,1695.19l-34.514,0c0.32,-1.353 0.538,-2.744 0.647,-4.165l1.087,-14.439l31.448,0l1.332,18.604Z" style="fill:#1f68b3;fill-rule:nonzero;"/><path d="M1096.79,1676.59l-31.448,0l3.838,-50.98c0.374,0.017 0.748,0.025 1.126,0.025l22.825,0l3.659,50.955Zm-7.813,-108.848l-15.437,0l2.646,-35.15l10.267,0l2.524,35.15Zm-6.678,-93.044l-1.75,0l0.897,-11.909l0.853,11.909Z" style="fill:#c3c5c5;fill-rule:nonzero;"/><path d="M1086.45,1532.59l-10.267,0l1.706,-22.615l6.94,0l1.621,22.615Zm-2.529,-35.282l-5.081,0l1.706,-22.612l1.75,0l1.625,22.612Z" style="fill:#8ea7c8;fill-rule:nonzero;"/><path d="M1084.83,1509.98l-6.94,0l0.951,-12.667l5.081,0l0.908,12.667Z" style="fill:#c3c5c5;fill-rule:nonzero;"/><path d="M1093.13,1625.63l-22.825,0c-0.378,0 -0.752,-0.008 -1.126,-0.025l1.703,-22.59l20.627,0l1.621,22.615Zm-2.533,-35.278l-18.761,0l1.703,-22.615l15.437,0l1.621,22.615Z" style="fill:#8ea7c8;fill-rule:nonzero;"/><g><path d="M1196.62,1597.92l-20.628,0l0.955,-12.663l18.761,0l0.912,12.663Z" style="fill:#c3c5c5;fill-rule:nonzero;"/><path d="M997.133,1355.2l-24.906,34.126c-4.528,6.207 -11.334,9.885 -18.289,9.885l-224.871,0c-11.935,0 -22.412,10.629 -23.398,23.741l-19.809,262.983c-0.986,13.112 7.89,23.741 19.825,23.741l440.277,0c11.935,0 22.408,-10.629 23.398,-23.741l23.865,-316.874c0.986,-13.112 -7.886,-23.741 -19.821,-23.741l-157.982,0c-6.955,0 -13.762,3.677 -18.289,9.88Z" style="fill:#3073ba;fill-rule:nonzero;"/><path d="M1145.96,1709.67l-440.277,0c-11.331,0 -19.903,-9.58 -19.899,-21.768c0,-0.651 0.023,-1.31 0.074,-1.973l19.809,-262.983c0.986,-13.112 11.463,-23.741 23.398,-23.741l224.871,0c6.955,0 13.761,-3.678 18.289,-9.885l24.906,-34.126c4.527,-6.203 11.334,-9.88 18.289,-9.88l157.982,0c11.331,0 19.899,9.576 19.895,21.763c0,0.651 -0.023,1.31 -0.074,1.978l-2.268,30.111l-0.954,12.667l-1.703,22.616l-4.352,57.76l-0.951,12.667l-1.707,22.616l-4.348,57.765l-0.955,12.663l-1.702,22.589l-3.838,50.981l-1.087,14.439c-0.109,1.421 -0.328,2.812 -0.647,4.165c-2.63,11.126 -12.114,19.576 -22.751,19.576Z" style="fill:#0d60ae;fill-rule:nonzero;"/><path d="M908.221,1373.9l-20.19,32.328c-3.667,5.878 -9.967,9.358 -16.922,9.358l-184.945,0c-11.935,0 -20.943,10.073 -20.117,22.492l16.532,249.1c0.826,12.423 11.171,22.491 23.106,22.491l440.277,0c11.935,0 20.939,-10.068 20.117,-22.491l-19.922,-300.149c-0.826,-12.419 -11.171,-22.487 -23.106,-22.487l-197.908,0c-6.955,0 -13.251,3.485 -16.922,9.358Z" style="fill:#3073ba;fill-rule:nonzero;"/></g><g><g><path d="M471.704,1607.94l-304.882,0c-6.152,0 -11.138,4.983 -11.138,11.134l0,73.786c0,6.152 4.986,11.139 11.138,11.139l304.882,0c6.148,0 11.134,-4.987 11.134,-11.139l0,-73.786c0,-6.151 -4.986,-11.134 -11.134,-11.134Z" style="fill:#e7e7e7;fill-rule:nonzero;"/><path d="M450.559,1655.97c0,11.147 -9.038,20.185 -20.185,20.185c-11.151,0 -20.189,-9.038 -20.189,-20.185c0,-11.151 9.038,-20.189 20.189,-20.189c11.147,0 20.185,9.038 20.185,20.189Z" style="fill:#f6f8f9;fill-rule:nonzero;"/><path d="M440.639,1655.97c0,5.668 -4.598,10.266 -10.265,10.266c-5.672,0 -10.27,-4.598 -10.27,-10.266c0,-5.671 4.598,-10.27 10.27,-10.27c5.667,0 10.265,4.599 10.265,10.27Z" style="fill:#e7e7e7;fill-rule:nonzero;"/><rect x="364.16" y="1644.49" width="22.971" height="22.971" style="fill:#f6f8f9;fill-rule:nonzero;"/></g><g><path d="M471.704,1501.24l-304.882,0c-6.152,0 -11.138,4.983 -11.138,11.134l0,73.786c0,6.152 4.986,11.139 11.138,11.139l304.882,0c6.148,0 11.134,-4.987 11.134,-11.139l0,-73.786c0,-6.151 -4.986,-11.134 -11.134,-11.134Z" style="fill:#e7e7e7;fill-rule:nonzero;"/><path d="M450.559,1549.27c0,11.147 -9.038,20.185 -20.185,20.185c-11.151,0 -20.189,-9.038 -20.189,-20.185c0,-11.151 9.038,-20.189 20.189,-20.189c11.147,0 20.185,9.038 20.185,20.189Z" style="fill:#f6f8f9;fill-rule:nonzero;"/><path d="M440.639,1549.27c0,5.668 -4.598,10.266 -10.265,10.266c-5.672,0 -10.27,-4.598 -10.27,-10.266c0,-5.671 4.598,-10.27 10.27,-10.27c5.667,0 10.265,4.599 10.265,10.27Z" style="fill:#e7e7e7;fill-rule:nonzero;"/><rect x="364.16" y="1537.79" width="22.971" height="22.971" style="fill:#f6f8f9;fill-rule:nonzero;"/></g><g><path d="M471.704,1394.55l-304.882,0c-6.152,0 -11.138,4.982 -11.138,11.134l0,73.786c0,6.152 4.986,11.139 11.138,11.139l304.882,0c6.148,0 11.134,-4.987 11.134,-11.139l0,-73.786c0,-6.152 -4.986,-11.134 -11.134,-11.134Z" style="fill:#e7e7e7;fill-rule:nonzero;"/><path d="M450.559,1442.58c0,11.147 -9.038,20.185 -20.185,20.185c-11.151,0 -20.189,-9.038 -20.189,-20.185c0,-11.151 9.038,-20.189 20.189,-20.189c11.147,0 20.185,9.038 20.185,20.189Z" style="fill:#f6f8f9;fill-rule:nonzero;"/><path d="M440.639,1442.58c0,5.668 -4.598,10.266 -10.265,10.266c-5.672,0 -10.27,-4.598 -10.27,-10.266c0,-5.671 4.598,-10.27 10.27,-10.27c5.667,0 10.265,4.599 10.265,10.27Z" style="fill:#e7e7e7;fill-rule:nonzero;"/><rect x="364.16" y="1431.09" width="22.971" height="22.971" style="fill:#f6f8f9;fill-rule:nonzero;"/></g><g><path d="M471.704,1287.85l-304.882,0c-6.152,0 -11.138,4.982 -11.138,11.134l0,73.786c0,6.152 4.986,11.139 11.138,11.139l304.882,0c6.148,0 11.134,-4.987 11.134,-11.139l0,-73.786c0,-6.152 -4.986,-11.134 -11.134,-11.134Z" style="fill:#e7e7e7;fill-rule:nonzero;"/><path d="M450.559,1335.88c0,11.147 -9.038,20.185 -20.185,20.185c-11.151,0 -20.189,-9.038 -20.189,-20.185c0,-11.151 9.038,-20.189 20.189,-20.189c11.147,0 20.185,9.038 20.185,20.189Z" style="fill:#f6f8f9;fill-rule:nonzero;"/><path d="M440.639,1335.88c0,5.668 -4.598,10.266 -10.265,10.266c-5.672,0 -10.27,-4.598 -10.27,-10.266c0,-5.671 4.598,-10.27 10.27,-10.27c5.667,0 10.265,4.599 10.265,10.27Z" style="fill:#e7e7e7;fill-rule:nonzero;"/><rect x="364.16" y="1324.39" width="22.971" height="22.971" style="fill:#f6f8f9;fill-rule:nonzero;"/></g><g><path d="M471.704,1181.15l-304.882,0c-6.152,0 -11.138,4.982 -11.138,11.134l0,73.786c0,6.152 4.986,11.139 11.138,11.139l304.882,0c6.148,0 11.134,-4.987 11.134,-11.139l0,-73.786c0,-6.152 -4.986,-11.134 -11.134,-11.134Z" style="fill:#e7e7e7;fill-rule:nonzero;"/><path d="M450.559,1229.18c0,11.147 -9.038,20.185 -20.185,20.185c-11.151,0 -20.189,-9.038 -20.189,-20.185c0,-11.151 9.038,-20.189 20.189,-20.189c11.147,0 20.185,9.038 20.185,20.189Z" style="fill:#f6f8f9;fill-rule:nonzero;"/><path d="M440.639,1229.18c0,5.668 -4.598,10.266 -10.265,10.266c-5.672,0 -10.27,-4.598 -10.27,-10.266c0,-5.671 4.598,-10.27 10.27,-10.27c5.667,0 10.265,4.599 10.265,10.27Z" style="fill:#e7e7e7;fill-rule:nonzero;"/><rect x="364.16" y="1217.69" width="22.971" height="22.971" style="fill:#f6f8f9;fill-rule:nonzero;"/></g></g></g><g><path d="M518.853,1218.62c-30.84,28.291 -73.565,50.527 -120.547,62.647l-0.464,103.658c-0.212,47.428 18.631,90.339 56.007,127.538c24.559,24.441 50.38,39.605 63.481,46.414c0.564,-0.28 1.183,-0.611 1.791,-0.922l0,-339.093c-0.089,-0.081 -0.182,-0.16 -0.268,-0.242Z" style="fill:#296acc;fill-rule:nonzero;"/><path d="M519.121,1218.87l0,339.093c13.625,-7.09 38.388,-21.735 62.104,-44.922c37.705,-36.868 56.932,-79.602 57.143,-127.033l0.464,-103.661c-46.739,-12.501 -89.148,-35.028 -119.711,-63.477Z" style="fill:#2e77e6;fill-rule:nonzero;"/><path d="M524.644,1410.92l0,22.765c0,3.026 -2.466,5.545 -5.498,5.545c-3.081,0 -5.548,-2.519 -5.548,-5.545l0,-22.817c-4.676,-2.106 -7.963,-6.833 -7.963,-12.279c0,-7.45 6.061,-13.462 13.511,-13.462c7.449,0 13.462,6.012 13.462,13.462c0,5.496 -3.238,10.224 -7.964,12.331Zm-60.113,-42.644l0,80.303c0,8.945 109.18,8.945 109.18,0l0,-80.303l-109.18,0Z" style="fill:#fff;fill-rule:nonzero;"/><path d="M564.155,1362.55l-11.052,0l0,-5.407c0,-18.736 -15.244,-33.979 -33.976,-33.979c-18.737,0 -33.98,15.243 -33.98,33.979l0,5.407l-11.052,0l0,-5.407c0,-24.83 20.2,-45.031 45.032,-45.031c24.827,0 45.028,20.201 45.028,45.031l0,5.407Z" style="fill:#fff;fill-rule:nonzero;"/></g><g><rect x="520.291" y="1650.12" width="35.942" height="1.034" style="fill:#ececec;fill-rule:nonzero;"/><rect x="138.238" y="1507.31" width="251.228" height="175.436" style="fill:#182f36;fill-rule:nonzero;"/><path d="M392.208,1654.49l-186.509,0c-3.762,0 -6.81,3.052 -6.81,6.814l0,45.134c0,3.767 3.048,6.814 6.81,6.814l186.509,0c3.763,0 6.814,-3.047 6.814,-6.814l0,-45.134c0,-3.762 -3.051,-6.814 -6.814,-6.814Z" style="fill:#3e75bb;fill-rule:nonzero;"/><path d="M362.501,1713.26l-38.465,0c3.763,0 6.81,-3.047 6.81,-6.814l0,-45.134c0,-3.762 -3.047,-6.814 -6.81,-6.814l-118.337,0l157.509,0l-0.707,0c-3.763,0 -6.814,3.052 -6.814,6.814l0,45.134c0,3.767 3.051,6.814 6.814,6.814Z" style="fill:#2b65b0;fill-rule:nonzero;"/><path d="M324.036,1654.49l-186.509,0c-3.762,0 -6.814,3.052 -6.814,6.814l0,45.134c0,3.767 3.052,6.814 6.814,6.814l186.509,0c3.763,0 6.81,-3.047 6.81,-6.814l0,-45.134c0,-3.762 -3.047,-6.814 -6.81,-6.814Z" style="fill:#3e75bb;fill-rule:nonzero;"/><path d="M298.753,1696.22c-6.822,0 -12.35,-5.528 -12.35,-12.35c0,-6.818 5.528,-12.346 12.35,-12.346c6.818,0 12.346,5.528 12.346,12.346c0,6.822 -5.528,12.35 -12.346,12.35Z" style="fill:#719ad1;fill-rule:nonzero;"/><path d="M305.034,1683.87c0,3.469 -2.812,6.281 -6.281,6.281c-3.469,0 -6.28,-2.812 -6.28,-6.281c0,-3.469 2.811,-6.28 6.28,-6.28c3.469,0 6.281,2.811 6.281,6.28Z" style="fill:#3e75bb;fill-rule:nonzero;"/><rect x="258.242" y="1676.85" width="14.058" height="14.049" style="fill:#719ad1;fill-rule:nonzero;"/><path d="M392.208,1593.14l-186.509,0c-3.762,0 -6.81,3.047 -6.81,6.809l0,45.138c0,3.763 3.048,6.814 6.81,6.814l186.509,0c3.763,0 6.814,-3.051 6.814,-6.814l0,-45.138c0,-3.762 -3.051,-6.809 -6.814,-6.809Z" style="fill:#3e75bb;fill-rule:nonzero;"/><path d="M362.501,1651.9l-38.465,0c3.763,0 6.81,-3.051 6.81,-6.814l0,-45.138c0,-3.762 -3.047,-6.809 -6.81,-6.809l-118.337,0l186.509,0l-29.707,0c-3.763,0 -6.814,3.047 -6.814,6.809l0,45.138c0,3.763 3.051,6.814 6.814,6.814Z" style="fill:#2b65b0;fill-rule:nonzero;"/><path d="M324.036,1593.14l-186.509,0c-3.762,0 -6.814,3.047 -6.814,6.809l0,45.138c0,3.763 3.052,6.814 6.814,6.814l186.509,0c3.763,0 6.81,-3.051 6.81,-6.814l0,-45.138c0,-3.762 -3.047,-6.809 -6.81,-6.809Z" style="fill:#3e75bb;fill-rule:nonzero;"/><path d="M298.753,1634.87c-6.822,0 -12.35,-5.528 -12.35,-12.346c0,-6.822 5.528,-12.35 12.35,-12.35c6.818,0 12.346,5.528 12.346,12.35c0,6.818 -5.528,12.346 -12.346,12.346Z" style="fill:#719ad1;fill-rule:nonzero;"/><path d="M305.034,1622.52c0,3.469 -2.812,6.281 -6.281,6.281c-3.469,0 -6.28,-2.812 -6.28,-6.281c0,-3.469 2.811,-6.28 6.28,-6.28c3.469,0 6.281,2.811 6.281,6.28Z" style="fill:#3e75bb;fill-rule:nonzero;"/><rect x="258.242" y="1615.49" width="14.058" height="14.054" style="fill:#719ad1;fill-rule:nonzero;"/><path d="M392.208,1531.78l-186.509,0c-3.762,0 -6.81,3.051 -6.81,6.814l0,45.133c0,3.763 3.048,6.814 6.81,6.814l186.509,0c3.763,0 6.814,-3.051 6.814,-6.814l0,-45.133c0,-3.763 -3.051,-6.814 -6.814,-6.814Z" style="fill:#3e75bb;fill-rule:nonzero;"/><path d="M392.208,1590.54l-68.172,0c3.763,0 6.81,-3.051 6.81,-6.814l0,-45.133c0,-3.763 -3.047,-6.814 -6.81,-6.814l-118.337,0l186.509,0c3.763,0 6.814,3.051 6.814,6.814l0,45.133c0,3.763 -3.051,6.814 -6.814,6.814Z" style="fill:#2b65b0;fill-rule:nonzero;"/><path d="M324.036,1531.78l-186.509,0c-3.762,0 -6.814,3.051 -6.814,6.814l0,45.133c0,3.763 3.052,6.814 6.814,6.814l186.509,0c3.763,0 6.81,-3.051 6.81,-6.814l0,-45.133c0,-3.763 -3.047,-6.814 -6.81,-6.814Z" style="fill:#3e75bb;fill-rule:nonzero;"/><path d="M298.753,1573.51c-6.822,0 -12.35,-5.528 -12.35,-12.351c0,-6.818 5.528,-12.346 12.35,-12.346c6.818,0 12.346,5.528 12.346,12.346c0,6.823 -5.528,12.351 -12.346,12.351Z" style="fill:#719ad1;fill-rule:nonzero;"/><path d="M305.034,1561.16c0,3.469 -2.812,6.281 -6.281,6.281c-3.469,0 -6.28,-2.812 -6.28,-6.281c0,-3.468 2.811,-6.28 6.28,-6.28c3.469,0 6.281,2.812 6.281,6.28Z" style="fill:#3e75bb;fill-rule:nonzero;"/><rect x="258.242" y="1554.14" width="14.058" height="14.049" style="fill:#719ad1;fill-rule:nonzero;"/><path d="M392.208,1470.42l-186.509,0c-3.762,0 -6.81,3.051 -6.81,6.814l0,45.138c0,3.762 3.048,6.813 6.81,6.813l186.509,0c3.763,0 6.814,-3.051 6.814,-6.813l0,-45.138c0,-3.763 -3.051,-6.814 -6.814,-6.814Z" style="fill:#3e75bb;fill-rule:nonzero;"/><path d="M392.208,1529.19l-68.172,0c3.763,0 6.81,-3.051 6.81,-6.813l0,-45.138c0,-3.763 -3.047,-6.814 -6.81,-6.814l-118.337,0l186.509,0c3.763,0 6.814,3.051 6.814,6.814l0,45.138c0,3.762 -3.051,6.813 -6.814,6.813Z" style="fill:#2b65b0;fill-rule:nonzero;"/><path d="M324.036,1470.42l-186.509,0c-3.762,0 -6.814,3.051 -6.814,6.814l0,45.138c0,3.762 3.052,6.813 6.814,6.813l186.509,0c3.763,0 6.81,-3.051 6.81,-6.813l0,-45.138c0,-3.763 -3.047,-6.814 -6.81,-6.814Z" style="fill:#3e75bb;fill-rule:nonzero;"/><path d="M298.753,1512.15c-6.822,0 -12.35,-5.528 -12.35,-12.346c0,-6.822 5.528,-12.35 12.35,-12.35c6.818,0 12.346,5.528 12.346,12.35c0,6.818 -5.528,12.346 -12.346,12.346Z" style="fill:#719ad1;fill-rule:nonzero;"/><path d="M305.034,1499.81c0,3.469 -2.812,6.28 -6.281,6.28c-3.469,0 -6.28,-2.811 -6.28,-6.28c0,-3.469 2.811,-6.285 6.28,-6.285c3.469,0 6.281,2.816 6.281,6.285Z" style="fill:#3e75bb;fill-rule:nonzero;"/><rect x="258.242" y="1492.78" width="14.058" height="14.054" style="fill:#719ad1;fill-rule:nonzero;"/><rect x="363.208" y="1600.98" width="251.232" height="81.758" style="fill:#182f36;fill-rule:nonzero;"/><path d="M617.182,1654.49l-186.51,0c-3.762,0 -6.813,3.052 -6.813,6.814l0,45.134c0,3.767 3.051,6.814 6.813,6.814l186.51,0c3.762,0 6.809,-3.047 6.809,-6.814l0,-45.134c0,-3.762 -3.047,-6.814 -6.809,-6.814Z" style="fill:#3e75bb;fill-rule:nonzero;"/><path d="M617.182,1713.26l-68.176,0c3.762,0 6.813,-3.047 6.813,-6.814l0,-45.134c0,-3.762 -3.051,-6.814 -6.813,-6.814l-118.334,0l186.51,0c3.762,0 6.809,3.052 6.809,6.814l0,45.134c0,3.767 -3.047,6.814 -6.809,6.814Z" style="fill:#2b65b0;fill-rule:nonzero;"/><path d="M549.006,1654.49l-186.505,0c-3.763,0 -6.814,3.052 -6.814,6.814l0,45.134c0,3.767 3.051,6.814 6.814,6.814l186.505,0c3.762,0 6.813,-3.047 6.813,-6.814l0,-45.134c0,-3.762 -3.051,-6.814 -6.813,-6.814Z" style="fill:#3e75bb;fill-rule:nonzero;"/><path d="M523.722,1696.22c-6.818,0 -12.346,-5.528 -12.346,-12.35c0,-6.818 5.528,-12.346 12.346,-12.346c6.822,0 12.35,5.528 12.35,12.346c0,6.822 -5.528,12.35 -12.35,12.35Z" style="fill:#719ad1;fill-rule:nonzero;"/><path d="M530.003,1683.87c0,3.469 -2.812,6.281 -6.281,6.281c-3.469,0 -6.28,-2.812 -6.28,-6.281c0,-3.469 2.811,-6.28 6.28,-6.28c3.469,0 6.281,2.811 6.281,6.28Z" style="fill:#3e75bb;fill-rule:nonzero;"/><rect x="483.22" y="1676.85" width="14.05" height="14.049" style="fill:#719ad1;fill-rule:nonzero;"/><path d="M617.182,1593.14l-186.51,0c-3.762,0 -6.813,3.047 -6.813,6.809l0,45.138c0,3.763 3.051,6.814 6.813,6.814l186.51,0c3.762,0 6.809,-3.051 6.809,-6.814l0,-45.138c0,-3.762 -3.047,-6.809 -6.809,-6.809Z" style="fill:#3e75bb;fill-rule:nonzero;"/><path d="M617.182,1651.9l-68.176,0c3.762,0 6.813,-3.051 6.813,-6.814l0,-45.138c0,-3.762 -3.051,-6.809 -6.813,-6.809l-118.334,0l186.51,0c3.762,0 6.809,3.047 6.809,6.809l0,45.138c0,3.763 -3.047,6.814 -6.809,6.814Z" style="fill:#2b65b0;fill-rule:nonzero;"/><path d="M549.006,1593.14l-186.505,0c-3.763,0 -6.814,3.047 -6.814,6.809l0,45.138c0,3.763 3.051,6.814 6.814,6.814l186.505,0c3.762,0 6.813,-3.051 6.813,-6.814l0,-45.138c0,-3.762 -3.051,-6.809 -6.813,-6.809Z" style="fill:#3e75bb;fill-rule:nonzero;"/><path d="M523.722,1634.87c-6.818,0 -12.346,-5.528 -12.346,-12.346c0,-6.822 5.528,-12.35 12.346,-12.35c6.822,0 12.35,5.528 12.35,12.35c0,6.818 -5.528,12.346 -12.35,12.346Z" style="fill:#719ad1;fill-rule:nonzero;"/><path d="M530.003,1622.52c0,3.469 -2.812,6.281 -6.281,6.281c-3.469,0 -6.28,-2.812 -6.28,-6.281c0,-3.469 2.811,-6.28 6.28,-6.28c3.469,0 6.281,2.811 6.281,6.28Z" style="fill:#3e75bb;fill-rule:nonzero;"/><rect x="483.22" y="1615.49" width="14.05" height="14.054" style="fill:#719ad1;fill-rule:nonzero;"/></g><g><rect x="1208.63" y="1781.34" width="170.231" height="1.156" style="fill:#e5e5e4;fill-rule:nonzero;"/><path d="M1257.59,854.301c9.063,70.286 19.712,208.925 212.093,222.64c127.074,9.012 182.803,-111.755 262.8,-151.152c-7.075,-57.708 -33.571,-115.833 -34.496,-117.914c1.758,1.711 41.247,40.923 55.212,108.902c9.156,-3.376 18.635,-6.155 28.484,-8.092c0,-54.384 -57.569,-158.518 -206.557,-196.062c-148.942,-37.552 -76.547,-184.399 -154.815,-189.541c-60.547,-81.18 -143.688,53.889 -120.549,90.216c14.889,97.101 -54.426,145.7 -42.172,241.003Z" style="fill:#0c2b34;fill-rule:nonzero;"/><path d="M1184.93,856.964c1.808,-10.7 14.566,-15.379 22.866,-8.388l23.277,19.616c2.71,3.509 3.547,8.115 2.252,12.36l-4.12,13.479c-10.926,1.161 -22.699,-1.549 -31.915,-4.638c-9.706,-3.255 -15.639,-13.012 -13.937,-23.102l1.577,-9.327Z" style="fill:#faab76;fill-rule:nonzero;"/><path d="M1315.75,776.098c-0.92,5.119 -2.159,11.352 -3.38,17.1c-1.258,5.85 -2.511,11.732 -3.935,17.567c-2.742,11.694 -5.928,23.236 -9.299,34.639c-3.505,11.352 -7.426,22.422 -11.699,33.206c-4.49,10.621 -9.373,20.831 -14.903,30.31l11.92,-9.465c-1.932,1.04 -4.004,2.215 -8.341,1.646c-4.157,-0.462 -9.725,-2.335 -15.306,-5.359c-5.665,-2.96 -11.486,-6.848 -17.22,-11.204c-5.683,-4.241 -11.574,-9.41 -16.767,-13.896l-1.082,-0.934c-5.799,-5.012 -14.566,-4.37 -19.574,1.429c-3.699,4.277 -4.31,10.178 -2.058,14.987c4.023,8.545 8.416,15.634 13.706,22.972c5.258,7.214 11.32,14.08 18.566,20.503c7.357,6.252 15.893,12.374 27.143,16.236c5.558,1.937 11.833,3.296 18.534,3.468c6.681,0.235 13.641,-0.879 20.147,-3.001c4.591,-1.494 8.342,-4.389 10.931,-8.051l0.994,-1.41c8.342,-11.796 15.486,-23.99 21.567,-36.443c5.974,-12.439 11.195,-25.067 15.652,-37.82c4.463,-12.744 8.213,-25.627 11.477,-38.593c1.577,-6.497 3.122,-12.998 4.389,-19.583c1.359,-6.681 2.423,-12.929 3.454,-20.346c2.108,-15.176 -8.485,-29.187 -23.662,-31.295c-14.783,-2.054 -28.461,7.953 -31.101,22.5l-0.153,0.837Z" style="fill:#faab76;fill-rule:nonzero;"/><path d="M1637.87,1745.42c7.167,-32.433 5.345,-40.021 11.19,-57.801c4.967,-15.25 5.35,-14.334 13.036,-28.618c5.095,-9.465 -4.592,-17.003 -14.243,-18.214c-7.523,-0.944 -15.495,-1.286 -24.734,-2.756l-19.994,37.261c10.552,13.396 18.982,46.093 15.245,71.141c-2.626,17.918 16.61,11.972 19.5,-1.013Z" style="fill:#3073ba;fill-rule:nonzero;"/><path d="M1315.87,974.231c0,0 -5.285,274.097 -10.88,425.929c-14.695,89.878 294.286,276.978 294.286,276.978c6.612,3.13 24.101,-31.125 23.851,-39.106c0,0 -132.887,-195.742 -212.07,-243.01c87.627,-242.505 63.817,-420.791 63.817,-420.791l-159.004,0Z" style="fill:#0c2b34;fill-rule:nonzero;"/><path d="M1416.97,1378.21c3.842,-11.148 7.449,-22.158 10.834,-33.006c-2.881,-18.016 -6.044,-37.321 -9.368,-57.284c-4.652,1.198 -9.179,2.299 -13.577,3.297c3.88,31.842 7.958,61.704 12.111,86.993Z" style="fill:#021e27;fill-rule:nonzero;"/><path d="M1458.9,1581.66c-6.03,-58.763 -13.419,-117.124 -20.448,-166.453c-6.552,-5.568 -12.924,-10.539 -19.032,-14.756c5.04,46.981 10.219,103.672 14.195,161.704c8.384,6.636 16.851,13.156 25.285,19.505Z" style="fill:#021e27;fill-rule:nonzero;"/><path d="M1579.89,1670.35c4.032,2.89 11.195,8.083 16.36,12.124c1.711,1.341 4.124,1.036 5.498,-0.647c10.293,-12.587 22.07,-35.786 25.848,-43.462c0.749,-1.516 0.435,-3.334 -0.767,-4.527l-12.943,-12.859c-1.767,-1.753 -4.694,-1.457 -6.072,0.615l-28.886,43.374c-1.179,1.771 -0.772,4.138 0.962,5.382Z" style="fill:#3073ba;fill-rule:nonzero;"/><path d="M1598.66,1683.32c1.151,0 2.293,-0.513 3.089,-1.484c1.035,-1.267 2.085,-2.64 3.144,-4.092c9.308,-12.827 19.037,-31.939 22.566,-39.083c0.046,-0.097 0.092,-0.194 0.138,-0.287c0.268,-0.545 0.403,-1.128 0.403,-1.711c0.004,-1.031 -0.403,-2.053 -1.17,-2.816l-12.943,-12.859c-0.782,-0.772 -1.785,-1.147 -2.784,-1.147c-1.262,0 -2.52,0.601 -3.288,1.762l-28.886,43.374c-0.453,0.679 -0.671,1.442 -0.671,2.201c-0.004,1.221 0.564,2.414 1.633,3.181c1.026,0.735 2.261,1.623 3.611,2.604c3.944,2.862 8.901,6.51 12.749,9.52c0.721,0.565 1.567,0.837 2.409,0.837Z" style="fill:#6698d0;fill-rule:nonzero;"/><path d="M1430.92,1902.16c33.798,0 31.407,-0.522 50.454,-1.16c8.628,-0.31 13.728,0.115 18.556,0.541c4.3,0.379 8.388,0.753 14.557,0.619c10.94,-0.231 11.481,-10.686 9.206,-22.708c-1.133,-6.035 -3.075,-13.415 -4.513,-23.167l-51.336,0c-8.176,13.299 -22.968,23.282 -42.246,25.844c-18.399,2.437 -8.152,20.031 5.322,20.031Z" style="fill:#3073ba;fill-rule:nonzero;"/><path d="M1363.55,974.231c0,0 53.103,292.256 72.548,424.717c20.424,139.116 45.593,364.914 31.749,457.336c7.5,4.596 35.3,4.878 51.336,0c0,0 81.13,-317.258 13.359,-451.186c38.56,-325.544 -18.469,-342.496 -34.237,-430.867l-134.755,0Z" style="fill:#0c2b34;fill-rule:nonzero;"/><path d="M1465.72,1837.04c-0.573,4.657 -1.734,12.777 -3.509,18.978c-0.643,2.238 0.68,4.309 2.894,4.67c18.52,3.006 46.107,-1.35 54.879,-2.904c1.679,-0.296 3.052,-1.609 3.463,-3.265l4.416,-17.761c0.606,-2.423 -1.1,-4.61 -3.56,-4.564l-54.365,1.045c-2.109,0.042 -3.959,1.697 -4.218,3.801Z" style="fill:#3073ba;fill-rule:nonzero;"/><path d="M1480,1861.72c16.054,0 33.367,-2.765 39.984,-3.935c1.679,-0.296 3.052,-1.609 3.463,-3.265l4.416,-17.761c0.084,-0.328 0.121,-0.652 0.125,-0.966c0.005,-1.984 -1.521,-3.598 -3.611,-3.598l-0.074,0l-54.365,1.045c-2.109,0.042 -3.959,1.697 -4.218,3.801c-0.573,4.657 -1.734,12.777 -3.509,18.978c-0.111,0.383 -0.162,0.763 -0.162,1.133c0,1.766 1.221,3.236 3.056,3.537c4.555,0.74 9.66,1.031 14.895,1.031Z" style="fill:#6698d0;fill-rule:nonzero;"/><path d="M1358.91,718.256c-33.664,6.339 -40.789,20.105 -65.579,71.224c7.482,33.641 47.725,63.207 47.725,63.207c0,0 73.371,-90.946 17.854,-134.431Z" style="fill:#fff;fill-rule:nonzero;"/><path d="M1498.31,974.231c31.606,43.11 65.981,111.958 66.263,259.929c-164.131,73.985 -242.227,73.985 -281.273,55.489c28.165,-114.099 32.576,-315.418 32.576,-315.418c25.997,-28.817 182.434,0 182.434,0Z" style="fill:#3073ba;fill-rule:nonzero;"/><path d="M1374.58,1222.35c12.674,-11.819 27.402,-64.996 13.012,-118.173c0,0 -4.328,87.469 -13.012,118.173Z" style="fill:#1f68b3;fill-rule:nonzero;"/><path d="M1305.54,781.957c-0.555,17.937 1.207,39.624 5.234,82.323c2.719,36.165 -6.289,104.915 5.1,109.951c28.744,8.078 104.25,4.379 182.434,0c3.676,-51.79 2.322,-87.46 35.079,-203.094c7.597,-26.806 -9.341,-52.553 -36.387,-55.3c-7.228,-0.735 -14.894,-1.345 -22.765,-1.724c-30.588,-1.48 -55.664,-2.461 -82.84,0c-9.003,0.818 -18.335,1.951 -27.254,3.19c-32.198,4.472 -57.607,32.507 -58.601,64.654Z" style="fill:#fff;fill-rule:nonzero;"/><path d="M1444.81,633.801c-4.536,27.241 7.551,62.527 24.873,80.312c0,0 -25.243,-3.792 -78.85,29.358c-15.519,-22.26 -3.991,-29.358 -3.991,-29.358c14.372,-2.789 14.39,-13.304 8.721,-33.553l49.247,-46.759Z" style="fill:#faab76;fill-rule:nonzero;"/><path d="M1402.1,736.798c17.655,2.511 23.181,29.178 23.181,29.178c0,0 42.403,-29.992 55.845,-51.147c-6.298,-3.297 -15.486,-9.831 -15.486,-9.831c0,0 -53.233,21.609 -63.54,31.8Z" style="fill:#3073ba;fill-rule:nonzero;"/><path d="M1385.32,733.954c0,0 -14.016,3.034 -21.049,22.529c-4.042,-38.875 14.39,-42.449 14.39,-42.449c0,0 5.752,-4.953 16.175,-3.311c-13.997,7.394 -9.516,23.231 -9.516,23.231Z" style="fill:#3073ba;fill-rule:nonzero;"/><path d="M1398.53,704.666c0.005,0 0.009,-0.005 0.014,-0.005c0.606,-2.423 0.684,-5.299 0.328,-8.652c0,0.005 -0.009,0.005 -0.014,0.005c0.356,3.357 0.278,6.228 -0.328,8.652Z" style="fill:#021e27;fill-rule:nonzero;"/><path d="M1398.54,704.661c5.461,-3.995 10.718,-9.355 14.94,-15.532c-4.642,3.042 -9.567,5.34 -14.612,6.88c0.356,3.353 0.278,6.229 -0.328,8.652Z" style="fill:#dc905d;fill-rule:nonzero;"/><path d="M1433.64,571.316c11.315,42.301 16.984,59.924 3.764,89.157c-19.884,43.971 -72.751,51.106 -96.098,13.637c-21.017,-33.719 -35.994,-97.236 -2.15,-129.225c33.344,-31.518 83.164,-15.874 94.484,26.431Z" style="fill:#faab76;fill-rule:nonzero;"/><path d="M1416.57,530.097c-6.552,50.592 -73.162,21.077 -113.623,79.668c3.852,-50.078 52.83,-120.817 113.623,-79.668Z" style="fill:#0c2b34;fill-rule:nonzero;"/><path d="M1412.38,528.224c-56.871,38.015 5.397,68.816 47.397,66.518c13.872,-41.991 -47.397,-66.518 -47.397,-66.518Z" style="fill:#0c2b34;fill-rule:nonzero;"/><path d="M1383.67,603.116c0,0 7.588,-2.243 14.599,-8.374c-8.467,0.277 -14.599,8.374 -14.599,8.374Z" style="fill:#dc905d;fill-rule:nonzero;"/><path d="M1385.9,606.464c0,0 7.265,-0.097 14.709,-4.051c-1.1,-0.287 -2.182,-0.411 -3.236,-0.411c-6.322,0 -11.473,4.462 -11.473,4.462Z" style="fill:#dc905d;fill-rule:nonzero;"/><path d="M1375.26,607.259c1.105,3.51 0.231,7.047 -1.942,7.898c-2.178,0.856 -4.837,-1.295 -5.942,-4.809c-1.1,-3.505 -0.231,-7.042 1.942,-7.898c2.178,-0.851 4.837,1.3 5.942,4.809Z" style="fill:#0c2b34;fill-rule:nonzero;"/><path d="M1334.5,623.934c1.105,3.509 0.236,7.042 -1.942,7.898c-2.178,0.85 -4.837,-1.3 -5.938,-4.809c-1.105,-3.51 -0.235,-7.048 1.943,-7.898c2.178,-0.856 4.836,1.299 5.937,4.809Z" style="fill:#0c2b34;fill-rule:nonzero;"/><path d="M1329.59,618.94l-8.762,0.707c0,0 6.173,4.976 8.762,-0.707Z" style="fill:#0c2b34;fill-rule:nonzero;"/><path d="M1347.73,625.215c0,0 -0.901,17.321 -4.827,27.05c5.752,2.599 12.61,-2.307 12.61,-2.307l-7.783,-24.743Z" style="fill:#f68949;fill-rule:nonzero;"/><path d="M1378.74,655.424c-1.627,0.998 -3.426,1.909 -5.428,2.696c-0.537,0.208 -1.119,-0.079 -1.3,-0.652c-0.18,-0.565 0.102,-1.189 0.657,-1.411c14.603,-5.715 18.052,-19.162 18.089,-19.296c0.144,-0.597 0.708,-0.967 1.258,-0.833c0.55,0.13 0.879,0.722 0.735,1.309c-0.129,0.527 -2.899,11.352 -14.011,18.187Z" style="fill:#0c2b34;fill-rule:nonzero;"/><path d="M1454.32,599.472c-0.069,9.863 -4.166,17.932 -9.363,22.455c-7.82,6.797 -16.781,-1.595 -18.839,-13.359c-1.854,-10.594 -0.018,-26.889 9.868,-28.961c9.734,-2.044 18.413,8.583 18.334,19.865Z" style="fill:#faab76;fill-rule:nonzero;"/><path d="M1376.5,584.333c-0.536,0.153 -1.119,0.083 -1.609,-0.236c-7.648,-5.035 -14.751,-1.641 -14.834,-1.604c-1.05,0.508 -2.275,0.069 -2.714,-1.018c-0.439,-1.086 0.065,-2.386 1.128,-2.913c0.375,-0.18 9.285,-4.453 18.779,1.804c0.943,0.619 1.183,1.96 0.536,2.991c-0.315,0.495 -0.782,0.833 -1.286,0.976Z" style="fill:#0c2b34;fill-rule:nonzero;"/><path d="M1314.92,609.594c-0.49,0.208 -1.04,0.236 -1.544,0.024c-1.05,-0.435 -1.512,-1.693 -1.04,-2.817c4.739,-11.255 14.209,-13.479 14.612,-13.562c1.137,-0.25 2.201,0.495 2.372,1.674c0.176,1.174 -0.601,2.33 -1.729,2.589c-0.375,0.084 -7.7,1.915 -11.464,10.862c-0.245,0.583 -0.689,1.008 -1.207,1.23Z" style="fill:#0c2b34;fill-rule:nonzero;"/><path d="M1370.35,602.27l-8.763,0.703c0,0 6.173,4.975 8.763,-0.703Z" style="fill:#0c2b34;fill-rule:nonzero;"/><path d="M1506.12,784.944l13.947,28.669c4.647,9.656 9.114,19.385 13.423,29.054c4.227,9.687 8.388,19.393 11.949,28.96c3.477,9.558 6.756,19.116 8.712,27.823l0.864,-11.444c0.176,0.444 -0.776,2.839 -2.395,5.479c-1.609,2.687 -3.981,5.711 -6.617,8.698c-5.313,6.002 -11.69,12.217 -18.496,18.127c-6.765,6.011 -13.97,11.86 -21.294,17.691c-7.278,5.813 -14.991,11.616 -22.251,17.257l-0.416,0.333c-6.058,4.712 -7.149,13.438 -2.437,19.495c3.708,4.772 9.937,6.446 15.361,4.652c9.896,-3.301 18.986,-7.098 28.244,-11.32c9.183,-4.24 18.214,-8.929 27.162,-14.205c8.873,-5.401 17.761,-11.153 26.385,-18.575c4.319,-3.722 8.628,-7.736 12.869,-12.762c4.207,-5.045 8.443,-10.978 11.648,-19.75c1.151,-3.153 1.484,-6.404 1.105,-9.521l-0.241,-1.928c-1.646,-13.229 -4.541,-25.071 -7.916,-36.622c-3.302,-11.556 -7.251,-22.548 -11.449,-33.4c-4.13,-10.871 -8.768,-21.414 -13.558,-31.855c-4.902,-10.497 -9.808,-20.522 -15.662,-31.01c-7.463,-13.386 -24.364,-18.186 -37.746,-10.718c-12.906,7.195 -17.826,23.166 -11.473,36.294l0.282,0.578Z" style="fill:#faab76;fill-rule:nonzero;"/><path d="M1498.69,716.059c30.052,-0.078 43.216,7.001 76.45,62.199c-7.427,23.698 -55.069,52.737 -55.069,52.737c0,0 -51.331,-66.235 -21.381,-114.936Z" style="fill:#fff;fill-rule:nonzero;"/><path d="M1448.5,992.237l1.549,-13.521c0.583,-5.091 3.588,-9.576 8.069,-12.055l20.933,-11.583c8.37,-4.629 18.46,-4.92 27.084,-0.777l5.336,2.562c-1.036,22.607 -18.816,46.273 -18.816,46.273l-4.314,7.306c-3.852,6.506 -11.703,8.726 -18.038,5.087l-14.594,-8.37c-5.04,-2.89 -7.907,-8.827 -7.209,-14.922Z" style="fill:#faab76;fill-rule:nonzero;"/><path d="M1214.78,908.675l158.495,0c4.18,0 6.784,-3.417 5.78,-7.597l-22.385,-93.587c-0.999,-4.185 -5.234,-7.602 -9.419,-7.602l-158.491,0c-4.18,0 -6.783,3.417 -5.784,7.602l22.385,93.587c0.999,4.18 5.239,7.597 9.419,7.597Z" style="fill:#3073ba;fill-rule:nonzero;"/><path d="M1372.66,901.161l0.269,-0.032c0.619,-0.148 1.003,-0.772 0.855,-1.392l-20.882,-87.298c-1.119,-4.68 -5.85,-8.485 -10.543,-8.485l-150.907,0c-0.638,0 -1.156,0.513 -1.156,1.156c0,0.638 0.518,1.156 1.156,1.156l150.907,0c3.625,0 7.426,3.075 8.295,6.709l20.883,87.298c0.125,0.532 0.601,0.888 1.123,0.888Z" style="fill:#fff;fill-rule:nonzero;"/></g><g><path d="M774.684,576.013c58.086,0.902 106.559,22.935 144.725,67.006c5.215,6.017 4.577,14.369 -1.238,19.365c-5.545,4.762 -13.791,4.158 -18.89,-1.763c-13.877,-16.109 -29.963,-29.451 -48.813,-39.342c-59.103,-31.016 -129.795,-23.411 -180.711,19.666c-7.018,5.934 -13.263,12.82 -19.587,19.527c-5.478,5.812 -13.563,6.74 -19.355,1.75c-5.72,-4.93 -6.152,-13.322 -0.935,-19.368c31.987,-37.076 72.234,-58.991 120.743,-65.692c3.801,-0.525 7.629,-0.934 11.459,-1.106c4.194,-0.192 8.402,-0.043 12.602,-0.043Z" style="fill:#296acc;fill-rule:nonzero;"/><path d="M779.483,629.869c36.716,0.951 71.229,16.634 98.392,48.02c5.356,6.192 4.725,14.181 -1.219,19.289c-5.66,4.865 -13.853,4.208 -19.085,-1.846c-14.17,-16.403 -31.349,-28.437 -52.29,-34.09c-42.68,-11.522 -79.578,-1.014 -110.479,30.577c-1.149,1.172 -2.209,2.433 -3.302,3.665c-5.099,5.743 -13.348,6.516 -18.926,1.764c-5.878,-5.007 -6.489,-13.286 -1.347,-19.346c12.103,-14.266 26.511,-25.61 43.278,-33.932c18.998,-9.428 39.136,-14.012 64.978,-14.101Z" style="fill:#296acc;fill-rule:nonzero;"/><path d="M839.887,721.722c-0.007,5.591 -3.385,10.538 -8.583,12.562c-5.231,2.041 -11.043,0.684 -14.96,-3.755c-5.772,-6.535 -12.43,-11.822 -20.504,-15.243c-22.041,-9.34 -46.356,-3.541 -62.749,14.976c-3.887,4.392 -8.739,5.984 -14.346,4.283c-5.396,-1.635 -8.51,-5.522 -9.343,-11.086c-0.584,-3.92 0.598,-7.404 3.118,-10.446c28.074,-33.849 79.72,-38.641 113.494,-10.422c3.837,3.207 7.443,6.796 10.62,10.65c1.866,2.266 2.672,5.41 3.957,8.157l-0.704,0.324Z" style="fill:#296acc;fill-rule:nonzero;"/><path d="M774.638,792.242c-15.059,0.006 -27.02,-11.942 -27.01,-26.988c0.01,-14.805 12.04,-26.842 26.891,-26.901c14.921,-0.06 27.027,12.08 26.991,27.056c-0.04,14.914 -11.968,26.826 -26.872,26.833Z" style="fill:#296acc;fill-rule:nonzero;"/></g></g></svg>