<?xml version="1.0" encoding="UTF-8" standalone="no"?><!DOCTYPE svg PUBLIC "-//W3C//DTD SVG 1.1//EN" "http://www.w3.org/Graphics/SVG/1.1/DTD/svg11.dtd"><svg width="100%" height="100%" viewBox="0 0 56 56" version="1.1" xmlns="http://www.w3.org/2000/svg" xmlns:xlink="http://www.w3.org/1999/xlink" xml:space="preserve" xmlns:serif="http://www.serif.com/" style="fill-rule:evenodd;clip-rule:evenodd;stroke-linejoin:round;stroke-miterlimit:2;"><path d="M30.974,48.594l-2.31,-1.34l-0,-6.87c-0,-0.549 -0.452,-1 -1,-1c-0.549,-0 -1,0.451 -1,1l-0,6.87l-2.31,1.34c-0.307,0.177 -0.498,0.505 -0.5,0.86l-0,3.21c-0.002,0.358 0.19,0.691 0.5,0.87l2.81,1.62c0.309,0.178 0.691,0.178 1,-0l2.81,-1.62c0.31,-0.179 0.501,-0.512 0.5,-0.87l-0,-3.21c-0.002,-0.355 -0.193,-0.683 -0.5,-0.86Zm-1.5,3.53l-1.81,1l-1.81,-1l-0,-2.09l1.81,-1l1.81,1l-0,2.09Zm16.3,-11.75c-0.261,-0.262 -0.647,-0.358 -1,-0.25l-2.58,0.69l-4.83,-4.86c-0.181,-0.155 -0.412,-0.241 -0.651,-0.241c-0.548,0 -1,0.452 -1,1c0,0.239 0.086,0.47 0.241,0.651l4.86,4.86l-0.69,2.58c-0.106,0.355 -0.005,0.741 0.26,1l2.28,2.26c0.187,0.191 0.443,0.299 0.71,0.3c0.086,0.014 0.174,0.014 0.26,-0l3.13,-0.84c0.344,-0.09 0.615,-0.358 0.71,-0.7l0.85,-3.16c0.105,-0.355 0.005,-0.741 -0.26,-1l-2.29,-2.29Zm-27.81,-4.42l-4.86,4.86l-2.58,-0.69c-0.354,-0.108 -0.739,-0.012 -1,0.25l-2.26,2.29c-0.265,0.259 -0.366,0.645 -0.26,1l0.84,3.14c0.095,0.342 0.366,0.61 0.71,0.7l3.13,0.84c0.086,0.014 0.174,0.014 0.26,-0c0.267,-0.001 0.523,-0.109 0.71,-0.3l2.29,-2.29c0.265,-0.259 0.365,-0.645 0.26,-1l-0.69,-2.58l4.86,-4.86c0.155,-0.181 0.24,-0.412 0.24,-0.651c0,-0.548 -0.451,-1 -1,-1c-0.238,0 -0.469,0.086 -0.65,0.241l-0,0.05Zm-6.3,10.29l-2,-0.58l-0.54,-2l1.48,-1.48l2,0.54l0.54,2l-1.48,1.52Zm34,-0.58l-2,0.54l-1.46,-1.44l0.54,-2l2,-0.54l1.5,1.44l-0.58,2Zm-17.5,-28.49c-0.309,-0.179 -0.691,-0.179 -1,-0l-8.34,4.81c-0.31,0.179 -0.502,0.512 -0.5,0.87l-0,9.62c-0.002,0.358 0.19,0.691 0.5,0.87l8.34,4.81c0.309,0.178 0.691,0.178 1,-0l8.34,-4.81c0.31,-0.179 0.501,-0.512 0.5,-0.87l-0,-9.62c0.001,-0.358 -0.19,-0.691 -0.5,-0.87l-8.34,-4.81Zm6.84,14.73l-7.34,4.23l-7.34,-4.23l-0,-8.48l7.34,-4.23l7.34,4.23l-0,8.48Zm20.19,-4.74l-1.62,-2.81c-0.179,-0.31 -0.512,-0.502 -0.87,-0.5l-3.25,-0c-0.355,0.002 -0.683,0.193 -0.86,0.5l-1.34,2.31l-6.87,-0c-0.549,-0 -1,0.451 -1,1c-0,0.548 0.451,1 1,1l6.87,-0l1.34,2.31c0.177,0.307 0.505,0.498 0.86,0.5l3.21,-0c0.358,0.001 0.691,-0.19 0.87,-0.5l1.62,-2.81c0.191,-0.302 0.206,-0.684 0.04,-1Zm-40.25,1.5c0.548,-0 1,-0.452 1,-1c-0,-0.549 -0.452,-1 -1,-1l-6.87,-0l-1.34,-2.31c-0.178,-0.307 -0.506,-0.498 -0.86,-0.5l-3.21,-0c-0.358,-0.002 -0.691,0.19 -0.87,0.5l-1.66,2.81c-0.179,0.309 -0.179,0.691 -0,1l1.62,2.81c0.179,0.31 0.512,0.501 0.87,0.5l3.25,-0c0.354,-0.002 0.682,-0.193 0.86,-0.5l1.34,-2.31l6.87,-0Zm37.19,0.81l-2.1,-0l-1,-1.81l1,-1.81l2.1,-0l1,1.81l-1,1.81Zm-46.84,-0l-2.1,-0l-1.04,-1.81l1,-1.81l2.1,-0l1,1.81l-0.96,1.81Zm4.26,-14.52c0.188,0.187 0.444,0.291 0.71,0.29c0.086,0.014 0.174,0.014 0.26,-0l2.58,-0.69l4.86,4.86c0.387,0.385 1.022,0.385 1.41,-0c0.385,-0.388 0.385,-1.023 -0,-1.41l-4.86,-4.86l0.69,-2.58c0.105,-0.355 0.005,-0.741 -0.26,-1l-2.28,-2.3c-0.259,-0.265 -0.645,-0.366 -1,-0.26l-3.13,0.84c-0.344,0.09 -0.615,0.357 -0.71,0.7l-0.82,3.12c-0.106,0.355 -0.005,0.741 0.26,1l2.29,2.29Zm27.11,4.71c0.262,-0.001 0.514,-0.106 0.7,-0.29l4.86,-4.86l2.58,0.69c0.086,0.014 0.174,0.014 0.26,-0c0.266,0.001 0.521,-0.103 0.71,-0.29l2.29,-2.25c0.265,-0.259 0.365,-0.645 0.26,-1l-0.84,-3.14c-0.095,-0.343 -0.366,-0.61 -0.71,-0.7l-3.11,-0.82c-0.355,-0.106 -0.741,-0.005 -1,0.26l-2.29,2.29c-0.265,0.259 -0.366,0.645 -0.26,1l0.69,2.58l-4.85,4.83c-0.385,0.387 -0.385,1.022 -0,1.41c0.188,0.187 0.444,0.291 0.71,0.29Zm-12.31,-12.93l2.31,1.34l-0,6.87c-0,0.548 0.451,1 1,1c0.548,-0 1,-0.452 1,-1l-0,-6.87l2.31,-1.34c0.307,-0.178 0.498,-0.506 0.5,-0.86l-0,-3.21c0.001,-0.358 -0.19,-0.691 -0.5,-0.87l-2.81,-1.66c-0.309,-0.179 -0.691,-0.179 -1,-0l-2.81,1.62c-0.31,0.179 -0.502,0.512 -0.5,0.87l-0,3.25c0.002,0.354 0.193,0.682 0.5,0.86Zm-14.69,2.93l2,-0.54l1.48,1.48l-0.54,2l-2,0.54l-1.52,-1.48l0.58,-2Zm34,-0.58l2,0.58l0.54,2l-1.44,1.46l-2,-0.54l-0.54,-2l1.44,-1.5Zm-17.81,-5.88l1.81,-1l1.81,1l-0,2.09l-1.81,1l-1.81,-1l-0,-2.09Z" style="fill:url(#_Linear1);fill-rule:nonzero;"/><defs><linearGradient id="_Linear1" x1="0" y1="0" x2="1" y2="0" gradientUnits="userSpaceOnUse" gradientTransform="matrix(55.3088,0,0,53.743,-6.23891e-05,27.777)"><stop offset="0" style="stop-color:#1685ff;stop-opacity:1"/><stop offset="0.5" style="stop-color:#8b5cf6;stop-opacity:1"/><stop offset="1" style="stop-color:#d946ef;stop-opacity:1"/></linearGradient></defs></svg>