<?xml version="1.0" encoding="UTF-8" standalone="no"?><!DOCTYPE svg PUBLIC "-//W3C//DTD SVG 1.1//EN" "http://www.w3.org/Graphics/SVG/1.1/DTD/svg11.dtd"><svg width="100%" height="100%" viewBox="0 0 1945 1945" version="1.1" xmlns="http://www.w3.org/2000/svg" xmlns:xlink="http://www.w3.org/1999/xlink" xml:space="preserve" xmlns:serif="http://www.serif.com/" style="fill-rule:evenodd;clip-rule:evenodd;stroke-miterlimit:1.5;"><g id="Layer7"><g><rect x="1707.03" y="1690.28" width="144.762" height="1.093" style="fill:#e5e5e4;fill-rule:nonzero;"/><rect x="1295.1" y="1702.14" width="37.993" height="1.093" style="fill:#e5e5e4;fill-rule:nonzero;"/><rect x="1618.78" y="1649.69" width="83.88" height="1.093" style="fill:#e5e5e4;fill-rule:nonzero;"/><rect x="114.749" y="1657.04" width="188.778" height="1.093" style="fill:#e5e5e4;fill-rule:nonzero;"/><rect x="342.442" y="1657.04" width="27.679" height="1.093" style="fill:#e5e5e4;fill-rule:nonzero;"/><rect x="460.076" y="1675.49" width="409.417" height="1.093" style="fill:#e5e5e4;fill-rule:nonzero;"/><path d="M77.407,189.908c-13.155,0 -23.855,10.699 -23.855,23.85l0,1186.31c0,13.156 10.7,23.855 23.855,23.855l843.951,0c13.151,0 23.85,-10.699 23.85,-23.855l0,-1186.31c0,-13.151 -10.699,-23.85 -23.85,-23.85l-843.951,0Zm843.951,1235.1l-843.951,0c-13.759,0 -24.947,-11.188 -24.947,-24.947l0,-1186.31c0,-13.754 11.188,-24.947 24.947,-24.947l843.951,0c13.75,0 24.943,11.193 24.943,24.947l0,1186.31c0,13.759 -11.193,24.947 -24.943,24.947Z" style="fill:#e5e5e4;fill-rule:nonzero;"/><path d="M1022.75,189.908c-13.151,0 -23.851,10.699 -23.851,23.85l0,1186.31c0,13.156 10.7,23.855 23.851,23.855l843.951,0c13.151,0 23.855,-10.699 23.855,-23.855l0,-1186.31c0,-13.151 -10.704,-23.85 -23.855,-23.85l-843.951,0Zm843.951,1235.1l-843.951,0c-13.75,0 -24.943,-11.188 -24.943,-24.947l0,-1186.31c0,-13.754 11.193,-24.947 24.943,-24.947l843.951,0c13.754,0 24.947,11.193 24.947,24.947l0,1186.31c0,13.759 -11.193,24.947 -24.947,24.947Z" style="fill:#e5e5e4;fill-rule:nonzero;"/><path d="M228.467,1435.93c-0.359,-0.301 -0.547,-0.747 -0.568,-1.215c-0.398,-8.579 -5.56,-92.774 -57.119,-150.447c-43.619,-48.798 1.119,-13.978 20.537,1.717c1.556,1.259 3.697,-0.586 2.679,-2.312c-13.684,-23.138 -48.024,-84.282 -36.118,-96.187c11.254,-11.254 34.497,44.601 44.872,71.686c0.752,1.958 3.685,1.258 3.466,-0.831c-2.989,-28.671 -7.347,-88.63 8.807,-86.524c15.996,2.085 11.525,81.306 8.37,120.077c-0.175,2.146 2.884,2.727 3.505,0.669c7.216,-23.859 20.952,-59.116 37.075,-49.772c23.863,13.824 -35.126,62.368 -31.437,115.059c3.614,51.638 4.571,85.523 -4.069,78.08Z" style="fill:#f0f0f0;fill-rule:nonzero;"/><path d="M253.038,1450.84c-0.109,-0.144 0.293,-0.843 0.782,-1.18c59.396,-41.101 44.772,-131.589 26.726,-187.703c-4.016,-12.486 -8.199,-25.445 -8.819,-38.784c12.631,15.131 20.222,35.026 28.657,53.019c1.11,2.374 3.881,1.539 3.475,-1.036c-4.515,-28.95 -6.294,-119.888 19.987,-118.267c11.879,0.73 -1.338,79.828 -1.845,95.973c-0.078,2.596 3.134,3.575 3.807,1.158c7.775,-28.063 61.415,-86.052 71.153,-74.452c4.134,4.926 -20.927,32.18 -29.475,44.982c-16.018,23.99 -26.993,50.794 -37.207,77.599c-0.9,2.365 2.01,4.847 3.269,2.863c9.506,-15 44.978,-51.048 56.979,-33.19c8.706,12.954 -14.523,31.713 -25.965,42.827c-20.302,19.733 -39.659,41.468 -49.501,67.691c-6.7,17.858 -54.846,78.085 -62.023,68.5Z" style="fill:#f0f0f0;fill-rule:nonzero;"/><path d="M260.302,1442.18c0.415,-0.398 0.616,-0.948 0.612,-1.517c-0.083,-10.441 0.634,-113.001 59.435,-186.422c49.746,-62.118 -2.281,-16.892 -24.82,3.436c-1.81,1.63 -4.528,-0.464 -3.405,-2.623c15.087,-28.994 52.753,-105.496 37.517,-119.163c-14.41,-12.924 -38.946,56.419 -49.763,89.985c-0.783,2.43 -4.388,1.775 -4.262,-0.778c1.74,-35.008 3.077,-108.088 -16.394,-104.465c-19.283,3.584 -8.636,99.47 -2.246,146.335c0.354,2.597 -3.326,3.506 -4.218,1.036c-10.332,-28.487 -29.331,-70.383 -48.29,-57.98c-28.063,18.357 46.756,73.413 45.751,137.625c-0.983,62.932 0.083,104.133 10.083,94.531Z" style="fill:#e0e0df;fill-rule:nonzero;"/><path d="M300.026,1599.31c17.823,-66.455 29.562,-160.046 29.562,-183.096l-132.935,0c0,23.05 11.74,116.641 29.559,183.096c3.277,12.211 14.379,20.677 27.023,20.677l19.772,0c12.644,0 23.745,-8.466 27.019,-20.677Z" style="fill:#e0e0df;fill-rule:nonzero;"/><path d="M1754.58,1615.72l-119.653,0c-14.537,0 -26.534,-11.377 -27.312,-25.892l-14.633,-274.41l203.542,0l-14.637,274.41c-0.769,14.515 -12.767,25.892 -27.307,25.892Z" style="fill:#e0e0df;fill-rule:nonzero;"/><rect x="1667.17" y="1332.25" width="55.156" height="55.152" style="fill:#f9f9f9;fill-rule:nonzero;"/><rect x="1667.17" y="1400.98" width="55.156" height="55.152" style="fill:#f9f9f9;fill-rule:nonzero;"/><rect x="1667.17" y="1469.72" width="55.156" height="55.152" style="fill:#f9f9f9;fill-rule:nonzero;"/><rect x="1667.17" y="1538.45" width="55.156" height="55.152" style="fill:#f9f9f9;fill-rule:nonzero;"/><path d="M1802.74,1315.41l-215.976,0c-3.011,0 -5.454,-2.443 -5.454,-5.45l0,-9.091c0,-3.015 2.443,-5.454 5.454,-5.454l215.976,0c3.015,0 5.459,2.439 5.459,5.454l0,9.091c0,3.007 -2.444,5.45 -5.459,5.45Z" style="fill:#f0f0f0;fill-rule:nonzero;"/><path d="M1768.59,1538.45l-32.063,0l0,55.152l28.007,0c0.747,-1.407 1.272,-2.941 1.363,-4.632l2.693,-50.52Z" style="fill:#f9f9f9;fill-rule:nonzero;"/><path d="M1652.97,1538.45l-32.062,0l2.696,50.52c0.088,1.691 0.616,3.225 1.36,4.632l28.006,0l0,-55.152Z" style="fill:#f9f9f9;fill-rule:nonzero;"/><path d="M1652.97,1469.72l-35.725,0l2.937,55.152l32.788,0l0,-55.152Z" style="fill:#f9f9f9;fill-rule:nonzero;"/><path d="M1652.97,1400.98l-39.392,0l2.942,55.152l36.45,0l0,-55.152Z" style="fill:#f9f9f9;fill-rule:nonzero;"/><path d="M1652.97,1332.25l-43.063,0l2.946,55.152l40.117,0l0,-55.152Z" style="fill:#f9f9f9;fill-rule:nonzero;"/><path d="M1736.53,1469.72l0,55.152l32.788,0l2.941,-55.152l-35.729,0Z" style="fill:#f9f9f9;fill-rule:nonzero;"/><path d="M1736.53,1400.98l0,55.152l36.455,0l2.941,-55.152l-39.396,0Z" style="fill:#f9f9f9;fill-rule:nonzero;"/><path d="M1736.53,1332.25l0,55.152l40.122,0l2.941,-55.152l-43.063,0Z" style="fill:#f9f9f9;fill-rule:nonzero;"/><path d="M1804.44,1751.02c0,27.334 -379.396,49.488 -847.404,49.488c-468.009,0 -847.409,-22.154 -847.409,-49.488c0,-27.329 379.4,-49.488 847.409,-49.488c468.008,0 847.404,22.159 847.404,49.488Z" style="fill:#f0f0f0;fill-rule:nonzero;"/><path d="M1618.43,1004c-30.93,0 -67.473,-56.533 -99.719,-106.41c-21.144,-32.709 -41.686,-64.457 -63.548,-87.429l72.32,0l0,-34.964l-88.687,0c15.86,-18.068 30.873,-41.285 46.288,-65.122c24.222,-37.473 54.37,-84.107 77.416,-84.107l67.831,0l0,-34.964l-67.831,0c-42.075,0 -73.504,48.618 -106.777,100.086c-24.226,37.473 -54.37,84.107 -77.416,84.107l-774.223,0c-23.046,0 -53.194,-46.634 -77.416,-84.107c-33.278,-51.468 -64.702,-100.086 -106.782,-100.086l-67.831,0l0,34.964l67.831,0c23.046,0 53.194,46.634 77.416,84.107c15.411,23.837 30.428,47.054 46.289,65.122l-314.252,0l0,34.964l352.525,0c-21.862,22.972 -42.399,54.72 -63.544,87.429c-32.246,49.877 -68.793,106.41 -99.723,106.41l-128.586,0l0,34.965l128.586,0c49.964,0 88.395,-59.449 129.085,-122.394c32.241,-49.877 68.788,-106.41 99.718,-106.41l742.227,0c30.935,0 67.477,56.533 99.723,106.41c40.686,62.945 79.116,122.394 129.08,122.394l128.582,0l0,-34.965l-128.582,0Z" style="fill:#0c2b34;fill-rule:nonzero;"/><path d="M1497.86,899.613c-26.892,-41.52 -51.253,-77.337 -77.013,-95.104l1.862,-2.696c26.258,18.107 50.816,54.195 77.905,96.017l-2.754,1.783Z" style="fill:#727f84;fill-rule:nonzero;"/><path d="M1571.46,999.109c-11.892,-11.141 -24.44,-26.359 -39.501,-47.897l2.688,-1.88c14.925,21.346 27.333,36.403 39.055,47.386l-2.242,2.391Z" style="fill:#727f84;fill-rule:nonzero;"/><path d="M1523.21,938.423c-4.663,-6.944 -9.322,-14.064 -13.977,-21.236l3.907,0c4.262,6.551 8.523,13.05 12.793,19.41l-2.723,1.826Z" style="fill:#727f84;fill-rule:nonzero;"/><path d="M611.477,793.36l-203.38,0l0,-3.278l180.369,0c-3.217,-1.337 -6.469,-3.09 -9.786,-5.266l1.796,-2.741c8.208,5.389 15.931,8.007 23.606,8.007l7.395,0l0,3.278Z" style="fill:#727f84;fill-rule:nonzero;"/><path d="M1407.67,797.189c-6.088,-2.54 -12.158,-3.829 -18.041,-3.829l-40.782,0l0.284,-3.278l29.174,0c7.674,0 15.397,-2.618 23.605,-8.007l1.796,2.741c-3.317,2.176 -6.573,3.929 -9.785,5.266l81.917,0l0,3.278l-69.098,0c0.729,0.271 1.459,0.498 2.194,0.8l-1.264,3.029Z" style="fill:#727f84;fill-rule:nonzero;"/><rect x="1501.26" y="790.082" width="1.517" height="3.278" style="fill:#727f84;fill-rule:nonzero;"/><path d="M1418.55,772.583l-2.294,-2.339c15.957,-15.668 31.822,-39.291 45.441,-60.209l2.749,1.788c-13.715,21.062 -29.703,44.859 -45.896,60.76Z" style="fill:#727f84;fill-rule:nonzero;"/><path d="M1474.78,695.879l-2.753,-1.783c26.761,-41.341 57.093,-88.202 90.471,-88.202l22.661,0l0,3.278l-22.657,0l-0.004,0c-31.595,0 -61.415,46.065 -87.718,86.707Z" style="fill:#727f84;fill-rule:nonzero;"/><path d="M563.829,772.583c-16.193,-15.901 -32.181,-39.698 -45.895,-60.76l2.749,-1.788c13.618,20.918 29.483,44.541 45.44,60.209l-2.294,2.339Z" style="fill:#727f84;fill-rule:nonzero;"/><path d="M507.606,695.879c-26.307,-40.646 -56.123,-86.712 -87.722,-86.707l-22.657,0l0,-3.278l22.657,0c33.378,-0.005 63.714,46.856 90.475,88.202l-2.753,1.783Z" style="fill:#727f84;fill-rule:nonzero;"/><path d="M539.161,899.613l-2.753,-1.783c27.089,-41.818 51.647,-77.906 77.905,-96.017l1.862,2.696c-25.764,17.776 -50.122,53.584 -77.014,95.104Z" style="fill:#727f84;fill-rule:nonzero;"/><path d="M629.352,797.189l-1.258,-3.029c2.941,-1.224 5.878,-2.137 8.802,-2.81l0,-1.268l19.746,0l-0.284,3.278l-8.96,0c-5.882,0 -11.953,1.289 -18.046,3.829Z" style="fill:#727f84;fill-rule:nonzero;"/><path d="M437.716,1018.18l0,-3.571c4.537,-1.997 9.152,-4.707 13.89,-8.138l1.927,2.653c-5.389,3.903 -10.642,6.914 -15.817,9.056Z" style="fill:#727f84;fill-rule:nonzero;"/><path d="M513.812,938.423l-2.723,-1.826c5.664,-8.431 11.311,-17.111 16.954,-25.83l2.753,1.778c-5.655,8.737 -11.311,17.435 -16.984,25.878Z" style="fill:#727f84;fill-rule:nonzero;"/><path d="M465.561,999.109l-2.238,-2.391c11.718,-10.983 24.13,-26.04 39.056,-47.386l2.683,1.88c-15.056,21.538 -27.609,36.756 -39.501,47.897Z" style="fill:#727f84;fill-rule:nonzero;"/><path d="M420.103,937.025l-32.054,0c-7.539,0 -14.576,3.78 -18.741,10.07l-4.689,7.084c-3.82,5.77 -10.276,9.235 -17.194,9.235l-82.669,0c-7.417,0 -13.431,6.014 -13.431,13.427l0,129.089l186.391,0l0,-142.516l-1.639,-12.395c-1.062,-8.011 -7.893,-13.994 -15.974,-13.994Z" style="fill:#3073ba;fill-rule:nonzero;"/><path d="M437.716,1105.93l-13.981,-50.913l0,-75.296l-158.429,0l0,11.652l-13.981,0l0,-14.532c0,-7.413 6.014,-13.427 13.431,-13.427l82.669,0c6.918,0 13.374,-3.465 17.194,-9.235l4.689,-7.084c4.165,-6.29 11.202,-10.07 18.741,-10.07l32.054,0c8.081,0 14.912,5.983 15.974,13.994l1.639,12.395l0,142.516Z" style="fill:#568ac7;fill-rule:nonzero;"/><rect x="265.306" y="979.721" width="158.429" height="108.346" style="fill:#0c2b34;fill-rule:nonzero;"/><path d="M423.735,1055.02l-12.679,-46.184c-2.828,-10.314 -12.203,-17.46 -22.898,-17.46l-122.852,0l0,-11.652l158.429,0l0,75.296Z" style="fill:#e2e4e5;fill-rule:nonzero;"/><path d="M437.716,1105.93l-186.391,0l-27.338,-99.57c-2.072,-7.54 3.606,-14.987 11.429,-14.987l152.742,0c10.695,0 20.07,7.146 22.898,17.46l26.66,97.097Z" style="fill:#3073ba;fill-rule:nonzero;"/><path d="M437.716,1105.93l-186.391,0l-27.338,-99.57c-0.289,-1.063 -0.428,-2.12 -0.428,-3.156c-0.005,-6.333 5.135,-11.831 11.857,-11.831l152.742,0c10.695,0 20.07,7.146 22.898,17.46l26.66,97.097Z" style="fill:#9ec1e6;fill-rule:nonzero;"/><path d="M214.136,462.469l34.575,0c8.134,0 15.73,4.078 20.223,10.865l5.057,7.64c4.121,6.224 11.088,9.965 18.553,9.965l89.185,0c8.003,0 14.489,6.486 14.489,14.488l0,127.433c0,6.534 -5.302,11.831 -11.836,11.831l-177.418,0c-6.534,0 -11.832,-5.297 -11.832,-11.831l0,-141.921l1.771,-13.369c1.145,-8.641 8.513,-15.101 17.233,-15.101Z" style="fill:#3073ba;fill-rule:nonzero;"/><path d="M384.382,644.691l-13.072,0l0,-38.653l-11.254,0l4.895,0l0,-10.197l-4.895,0l0,-12.01l4.895,0l0,-10.197l-4.895,0l0,-12.005l4.895,0l0,-10.197l-4.895,0l0,-12.01l4.895,0l0,-10.197l-4.895,0l0,-12.006l4.895,0l0,-10.201l-4.895,0l0,-16.079l-17.863,0l0,5.883l-4.244,0l0,10.196l4.244,0l0,12.011l-4.244,0l0,10.196l4.244,0l0,12.006l-4.244,0l0,10.201l4.244,0l0,12.006l-4.244,0l0,10.196l4.244,0l0,12.006l-4.244,0l0,10.201l4.244,0l0,10.197l-10.188,0l0,38.653l-125.041,0c-6.534,0 -11.832,-5.297 -11.832,-11.831l0,-141.921l1.771,-13.369c1.145,-8.641 8.513,-15.101 17.233,-15.101l34.575,0c8.134,0 15.73,4.078 20.223,10.865l5.057,7.64c4.121,6.224 11.088,9.965 18.553,9.965l89.185,0c8.003,0 14.489,6.486 14.489,14.488l0,127.433c0,6.534 -5.302,11.831 -11.836,11.831Zm-19.392,-5.411l-26.053,0l0,-25.873l3.256,0l0,1.372l17.863,0l0,-1.372l4.934,0l0,25.873Z" style="fill:#9ec1e6;fill-rule:nonzero;"/><rect x="342.193" y="490.939" width="17.862" height="123.84" style="fill:#0c2b34;fill-rule:nonzero;"/><path d="M360.056,614.779l-17.863,0l0,-1.372l17.863,0l0,1.372Zm0,-8.741l-17.863,0l0,-10.197l9.462,0l0,-10.201l-9.462,0l0,-12.006l9.462,0l0,-10.196l-9.462,0l0,-12.006l9.462,0l0,-10.201l-9.462,0l0,-12.006l9.462,0l0,-10.196l-9.462,0l0,-12.011l9.462,0l0,-10.196l-9.462,0l0,-5.883l17.863,0l0,16.079l-8.816,0l0,10.201l8.816,0l0,12.006l-8.816,0l0,10.197l8.816,0l0,12.01l-8.816,0l0,10.197l8.816,0l0,12.005l-8.816,0l0,10.197l8.816,0l0,12.01l-8.816,0l0,10.197l8.816,0Z" style="fill:#879397;fill-rule:nonzero;"/><rect x="337.949" y="496.822" width="13.706" height="10.197" style="fill:#0c2b34;fill-rule:nonzero;"/><rect x="337.949" y="519.029" width="13.706" height="10.197" style="fill:#0c2b34;fill-rule:nonzero;"/><rect x="337.949" y="541.231" width="13.706" height="10.201" style="fill:#0c2b34;fill-rule:nonzero;"/><rect x="337.949" y="563.438" width="13.706" height="10.196" style="fill:#0c2b34;fill-rule:nonzero;"/><rect x="337.949" y="585.64" width="13.706" height="10.201" style="fill:#0c2b34;fill-rule:nonzero;"/><rect x="337.949" y="496.822" width="13.706" height="10.197" style="fill:#b2bbbe;fill-rule:nonzero;"/><rect x="337.949" y="519.029" width="13.706" height="10.197" style="fill:#b2bbbe;fill-rule:nonzero;"/><rect x="337.949" y="541.231" width="13.706" height="10.201" style="fill:#b2bbbe;fill-rule:nonzero;"/><rect x="337.949" y="563.438" width="13.706" height="10.196" style="fill:#b2bbbe;fill-rule:nonzero;"/><rect x="337.949" y="585.64" width="13.706" height="10.201" style="fill:#b2bbbe;fill-rule:nonzero;"/><rect x="351.24" y="507.018" width="13.71" height="10.201" style="fill:#0c2b34;fill-rule:nonzero;"/><rect x="351.24" y="529.225" width="13.71" height="10.197" style="fill:#0c2b34;fill-rule:nonzero;"/><rect x="351.24" y="551.432" width="13.71" height="10.197" style="fill:#0c2b34;fill-rule:nonzero;"/><rect x="351.24" y="573.634" width="13.71" height="10.197" style="fill:#0c2b34;fill-rule:nonzero;"/><rect x="351.24" y="595.841" width="13.71" height="10.196" style="fill:#0c2b34;fill-rule:nonzero;"/><path d="M364.951,517.219l-13.711,0l0,-10.201l13.711,0l0,10.201Z" style="fill:#cbd0d1;fill-rule:nonzero;"/><path d="M364.951,539.422l-13.711,0l0,-10.197l13.711,0l0,10.197Z" style="fill:#cbd0d1;fill-rule:nonzero;"/><path d="M364.951,561.629l-13.711,0l0,-10.197l13.711,0l0,10.197Z" style="fill:#cbd0d1;fill-rule:nonzero;"/><path d="M364.951,583.831l-13.711,0l0,-10.197l13.711,0l0,10.197Z" style="fill:#cbd0d1;fill-rule:nonzero;"/><path d="M364.951,606.038l-13.711,0l0,-10.197l13.711,0l0,10.197Z" style="fill:#cbd0d1;fill-rule:nonzero;"/><path d="M364.99,639.28l-26.053,0l0,-25.873l26.053,0l0,25.873Zm-32.985,-33.242l0,40.611l39.305,0l0,-40.611l-39.305,0Z" style="fill:#0c2b34;fill-rule:nonzero;"/><path d="M371.31,646.649l-39.305,0l0,-40.611l39.305,0l0,40.611Zm-32.373,-7.369l26.053,0l0,-25.873l-26.053,0l0,25.873Z" style="fill:#b2bbbe;fill-rule:nonzero;"/><path d="M343.059,696.653l-182.192,0l0,40.611l40.546,40.554l182.196,0l0,-40.615l-40.55,-40.55Z" style="fill:#3073ba;fill-rule:nonzero;"/><path d="M160.867,737.264l0,-40.611l182.192,0l40.55,40.55l-72.578,0l-40.55,-40.55l-40.895,0l40.55,40.55l-68.723,0l-40.546,-40.55l0,40.611Z" style="fill:#6698d0;fill-rule:nonzero;"/><rect x="201.413" y="777.783" width="182.196" height="40.616" style="fill:#3073ba;fill-rule:nonzero;"/><path d="M383.609,818.364l-62.661,0l0,-40.546l62.661,0l0,40.546Zm-124.356,0l-57.84,0l0,-40.546l57.84,0l0,40.546Z" style="fill:#6698d0;fill-rule:nonzero;"/><rect x="201.413" y="818.364" width="182.196" height="40.616" style="fill:#3073ba;fill-rule:nonzero;"/><path d="M383.609,858.98l-72.578,0l0,-29.016l9.917,0l0,-11.6l62.661,0l0,40.616Zm-113.473,0l-68.723,0l0,-40.616l57.84,0l0,11.6l10.883,0l0,29.016Z" style="fill:#9ec1e6;fill-rule:nonzero;"/><rect x="201.413" y="737.203" width="182.196" height="40.616" style="fill:#3073ba;fill-rule:nonzero;"/><path d="M270.136,858.98l40.895,0l0,-121.777l-40.55,-40.55l-40.895,0l40.55,40.55l0,121.777Z" style="fill:#3073ba;fill-rule:nonzero;"/><rect x="270.136" y="829.964" width="40.895" height="29.016" style="fill:#1f68b3;fill-rule:nonzero;"/><path d="M311.031,766.219l-40.895,0l0,-29.016l-40.55,-40.55l40.895,0l40.55,40.55l0,29.016Z" style="fill:#1f68b3;fill-rule:nonzero;"/><path d="M311.031,818.399l-40.895,0l0,-40.616l40.895,0l0,40.616Z" style="fill:#1f68b3;fill-rule:nonzero;"/><path d="M311.031,818.399l-40.895,0l0,-40.616l40.895,0l0,40.616Zm-51.778,-52.18l0,63.745l61.695,0l0,-63.745l-61.695,0Z" style="fill:#0c2b34;fill-rule:nonzero;"/><path d="M320.948,829.964l-61.695,0l0,-63.745l61.695,0l0,63.745Zm-50.812,-11.565l40.895,0l0,-40.616l-40.895,0l0,40.616Z" style="fill:#879397;fill-rule:nonzero;"/><path d="M160.867,696.653l0,40.611l40.546,40.554l0,-40.615l-40.546,-40.55Z" style="fill:#0c2b34;fill-rule:nonzero;"/><path d="M201.413,777.783l-40.546,-40.55l0,0.031l0,-40.611l40.546,40.55l0,40.58Z" style="fill:#879397;fill-rule:nonzero;"/><path d="M160.867,737.233l0,40.612l40.546,40.554l0,-40.616l-40.546,-40.55Z" style="fill:#0c2b34;fill-rule:nonzero;"/><path d="M201.413,818.364l-40.546,-40.546l0,0.027l0,-40.612l40.546,40.55l0,40.581Z" style="fill:#9da7aa;fill-rule:nonzero;"/><path d="M160.867,777.818l0,40.612l40.546,40.55l0,-40.616l-40.546,-40.546Z" style="fill:#0c2b34;fill-rule:nonzero;"/><path d="M201.413,858.98l-40.546,-40.55l0,-40.612l40.546,40.546l0,40.616Z" style="fill:#cbd0d1;fill-rule:nonzero;"/><rect x="1583.33" y="883.451" width="198.699" height="267.382" style="fill:#3073ba;fill-rule:nonzero;"/><path d="M1782.03,1150.83l-198.698,0l0,-233.646l12.976,0l0,48.845l172.742,0l0,-69.601l-85.641,0l0,-12.98l98.621,0l0,267.382Zm-117.515,-29.58c0,1.621 1.044,3.243 3.133,3.243l90.322,0c2.085,0 3.134,-1.622 3.134,-3.243c0,-1.626 -1.044,-3.247 -3.134,-3.247l-90.322,0c-2.089,0 -3.133,1.621 -3.133,3.247Zm0,-17.67c0,1.621 1.044,3.243 3.133,3.243l85.996,0c2.089,0 3.133,-1.622 3.133,-3.243c0,-1.622 -1.04,-3.243 -3.133,-3.243l-85.996,0c-2.089,0 -3.133,1.621 -3.133,3.243Zm0,-17.666c0,1.621 1.044,3.243 3.133,3.243l85.996,0c2.089,0 3.133,-1.622 3.133,-3.243c0,-1.626 -1.04,-3.247 -3.133,-3.247l-85.996,0c-2.089,0 -3.133,1.621 -3.133,3.247Zm0,-17.67c0,1.621 1.044,3.243 3.133,3.243l98.976,0c2.089,0 3.134,-1.622 3.134,-3.243c0,-1.622 -1.045,-3.243 -3.134,-3.243l-98.976,0c-2.089,0 -3.133,1.621 -3.133,3.243Zm-68.207,-85.908l0,69.601l172.742,0l0,-69.601l-172.742,0Z" style="fill:#b3cfec;fill-rule:nonzero;"/><path d="M1769.05,966.032l-172.742,0l0,-48.845l87.101,0l0,-20.756l85.641,0l0,37.552l-16.119,-19.646l-19.903,24.257l-19.882,-28.579l-21.119,21.118l-20.716,-11.652l-18.846,31.289l-18.841,-31.293l-21.39,12.08l-15.926,-8.994l0,7.452l15.926,8.994l19.082,-10.778l21.149,35.118l21.154,-35.122l19.519,10.974l19.112,-19.112l20.354,29.261l20.327,-24.777l16.119,19.641l0,21.818Z" style="fill:#e3eef9;fill-rule:nonzero;"/><path d="M1769.05,1051.94l-172.742,0l0,-69.601l172.742,0l0,21.132l-16.237,9.169l-21.385,-12.076l-18.846,31.289l-18.846,-31.285l-20.716,11.648l-21.119,-21.118l-19.881,28.583l-19.904,-24.257l-15.808,19.261l0,10.232l15.808,-19.261l20.332,24.772l20.349,-29.252l19.113,19.113l19.519,-10.975l21.153,35.122l21.149,-35.118l19.082,10.778l16.237,-9.169l0,41.013Z" style="fill:#e3eef9;fill-rule:nonzero;"/><path d="M1769.05,933.983l-16.119,-19.646l-19.903,24.257l-19.882,-28.579l-21.119,21.118l-20.716,-11.652l-18.846,31.289l-18.841,-31.293l-21.39,12.08l-15.926,-8.994l0,7.452l15.926,8.994l19.082,-10.778l21.149,35.118l21.154,-35.122l19.519,10.974l19.112,-19.112l20.354,29.261l20.327,-24.777l16.119,19.641l0,-10.231Z" style="fill:#3073ba;fill-rule:nonzero;"/><path d="M1652.47,963.349l-21.149,-35.118l-19.082,10.778l-15.926,-8.994l0,-7.452l15.926,8.994l21.39,-12.08l18.841,31.293l18.846,-31.289l20.716,11.652l21.119,-21.118l19.882,28.579l19.903,-24.257l16.119,19.646l0,10.231l-16.119,-19.641l-20.327,24.777l-20.354,-29.261l-19.112,19.112l-19.519,-10.974l-21.154,35.122Z" style="fill:#8ab3df;fill-rule:nonzero;"/><path d="M1769.05,1003.47l-16.237,9.169l-21.385,-12.076l-18.846,31.289l-18.846,-31.285l-20.716,11.648l-21.119,-21.118l-19.881,28.583l-19.904,-24.257l-15.808,19.261l0,10.232l15.808,-19.261l20.332,24.772l20.349,-29.252l19.113,19.113l19.519,-10.975l21.153,35.122l21.149,-35.118l19.082,10.778l16.237,-9.169l0,-7.456Z" style="fill:#3073ba;fill-rule:nonzero;"/><path d="M1712.58,1044.44l-21.153,-35.122l-19.519,10.975l-19.113,-19.113l-20.349,29.252l-20.332,-24.772l-15.808,19.261l0,-10.232l15.808,-19.261l19.904,24.257l19.881,-28.583l21.119,21.118l20.716,-11.648l18.846,31.285l18.846,-31.289l21.385,12.076l16.237,-9.169l0,7.456l-16.237,9.169l-19.082,-10.778l-21.149,35.118Z" style="fill:#8ab3df;fill-rule:nonzero;"/><path d="M1667.65,1071.49l98.976,0c4.174,0 4.183,-6.486 0,-6.486l-98.976,0c-4.174,0 -4.182,6.486 0,6.486Z" style="fill:#0c2b34;fill-rule:nonzero;"/><path d="M1667.65,1089.16l85.996,0c4.178,0 4.182,-6.49 0,-6.49l-85.996,0c-4.174,0 -4.182,6.49 0,6.49Z" style="fill:#0c2b34;fill-rule:nonzero;"/><path d="M1667.65,1106.83l85.996,0c4.178,0 4.182,-6.486 0,-6.486l-85.996,0c-4.174,0 -4.182,6.486 0,6.486Z" style="fill:#0c2b34;fill-rule:nonzero;"/><path d="M1667.65,1124.5l90.322,0c4.174,0 4.183,-6.49 0,-6.49l-90.322,0c-4.174,0 -4.182,6.49 0,6.49Z" style="fill:#0c2b34;fill-rule:nonzero;"/><path d="M1766.62,1071.49l-98.976,0c-2.089,0 -3.133,-1.622 -3.133,-3.243c0,-1.622 1.044,-3.243 3.133,-3.243l98.976,0c2.089,0 3.134,1.621 3.134,3.243c0,1.621 -1.045,3.243 -3.134,3.243Z" style="fill:#727f84;fill-rule:nonzero;"/><path d="M1753.64,1089.16l-85.996,0c-2.089,0 -3.133,-1.622 -3.133,-3.243c0,-1.626 1.044,-3.247 3.133,-3.247l85.996,0c2.093,0 3.133,1.621 3.133,3.247c0,1.621 -1.044,3.243 -3.133,3.243Z" style="fill:#727f84;fill-rule:nonzero;"/><path d="M1753.64,1106.83l-85.996,0c-2.089,0 -3.133,-1.622 -3.133,-3.243c0,-1.622 1.044,-3.243 3.133,-3.243l85.996,0c2.093,0 3.133,1.621 3.133,3.243c0,1.621 -1.044,3.243 -3.133,3.243Z" style="fill:#727f84;fill-rule:nonzero;"/><path d="M1757.97,1124.5l-90.322,0c-2.089,0 -3.133,-1.622 -3.133,-3.243c0,-1.626 1.044,-3.247 3.133,-3.247l90.322,0c2.09,0 3.134,1.621 3.134,3.247c0,1.621 -1.049,3.243 -3.134,3.243Z" style="fill:#727f84;fill-rule:nonzero;"/><rect x="1591.23" y="472.168" width="180.635" height="243.069" style="fill:#3073ba;fill-rule:nonzero;"/><path d="M1771.87,715.236l-88.46,0l0,-20.493l67.057,0c1.897,0 2.85,-1.473 2.85,-2.95c0,-1.473 -0.949,-2.95 -2.85,-2.95l-67.057,0l0,-10.158l63.124,0c1.897,0 2.849,-1.477 2.849,-2.954c0,-1.473 -0.948,-2.95 -2.849,-2.95l-78.177,0c-1.167,0 -1.975,0.559 -2.425,1.333l-74.698,0l0,-201.946l180.636,0l0,243.068Zm-106.362,-55.567c0,1.477 0.948,2.95 2.849,2.95l78.177,0c1.897,0 2.849,-1.473 2.849,-2.95c0,-1.473 -0.948,-2.946 -2.849,-2.946l-78.177,0c-1.896,0 -2.849,1.473 -2.849,2.946Zm0,-16.062c0,1.477 0.948,2.95 2.849,2.95l89.977,0c1.897,0 2.85,-1.473 2.85,-2.95c0,-1.473 -0.949,-2.95 -2.85,-2.95l-89.977,0c-1.896,0 -2.849,1.477 -2.849,2.95Zm0,-16.057c0,1.473 0.948,2.95 2.849,2.95l66.376,0c1.897,0 2.85,-1.477 2.85,-2.95c0,-1.478 -0.949,-2.95 -2.85,-2.95l-66.376,0c-1.896,0 -2.849,1.472 -2.849,2.95Zm0,-16.062c0,1.473 0.948,2.95 2.849,2.95l82.11,0c1.897,0 2.85,-1.477 2.85,-2.95c0,-1.477 -0.949,-2.95 -2.85,-2.95l-82.11,0c-1.896,0 -2.849,1.473 -2.849,2.95Zm-62.473,-3.921l44.265,0l0,-44.265l-44.265,0l0,44.265Zm62.473,-12.141c0,1.473 0.948,2.95 2.849,2.95l78.177,0c1.897,0 2.849,-1.477 2.849,-2.95c0,-1.477 -0.948,-2.95 -2.849,-2.95l-78.177,0c-1.896,0 -2.849,1.473 -2.849,2.95Zm0,-16.062c0,1.473 0.948,2.95 2.849,2.95l78.177,0c1.897,0 2.849,-1.477 2.849,-2.95c0,-1.477 -0.948,-2.95 -2.849,-2.95l-78.177,0c-1.896,0 -2.849,1.473 -2.849,2.95Zm0,-16.062c0,1.473 0.948,2.951 2.849,2.951l89.977,0c1.897,0 2.85,-1.478 2.85,-2.951c0,-1.477 -0.949,-2.95 -2.85,-2.95l-89.977,0c-1.896,0 -2.849,1.473 -2.849,2.95Zm-62.473,-79.338l0,63.277l157.034,0l0,-63.277l-157.034,0Z" style="fill:#9ec1e6;fill-rule:nonzero;"/><rect x="1603.04" y="483.964" width="157.034" height="63.277" style="fill:#ddeaf7;fill-rule:nonzero;"/><path d="M1668.36,566.253l89.977,0c3.798,0 3.803,-5.901 0,-5.901l-89.977,0c-3.798,0 -3.802,5.901 0,5.901Z" style="fill:#0c2b34;fill-rule:nonzero;"/><path d="M1668.36,582.314l78.177,0c3.798,0 3.802,-5.9 0,-5.9l-78.177,0c-3.798,0 -3.802,5.9 0,5.9Z" style="fill:#0c2b34;fill-rule:nonzero;"/><path d="M1668.36,598.376l78.177,0c3.798,0 3.802,-5.9 0,-5.9l-78.177,0c-3.798,0 -3.802,5.9 0,5.9Z" style="fill:#0c2b34;fill-rule:nonzero;"/><path d="M1668.36,614.438l82.11,0c3.798,0 3.803,-5.9 0,-5.9l-82.11,0c-3.798,0 -3.802,5.9 0,5.9Z" style="fill:#0c2b34;fill-rule:nonzero;"/><path d="M1668.36,630.5l66.376,0c3.798,0 3.803,-5.9 0,-5.9l-66.376,0c-3.798,0 -3.802,5.9 0,5.9Z" style="fill:#0c2b34;fill-rule:nonzero;"/><path d="M1668.36,646.557l89.977,0c3.798,0 3.803,-5.9 0,-5.9l-89.977,0c-3.798,0 -3.802,5.9 0,5.9Z" style="fill:#0c2b34;fill-rule:nonzero;"/><path d="M1668.36,662.619l78.177,0c3.798,0 3.802,-5.896 0,-5.896l-78.177,0c-3.798,0 -3.802,5.896 0,5.896Z" style="fill:#0c2b34;fill-rule:nonzero;"/><path d="M1668.36,678.685l78.177,0c3.798,0 3.802,-5.904 0,-5.904l-78.177,0c-3.798,0 -3.802,5.904 0,5.904Z" style="fill:#0c2b34;fill-rule:nonzero;"/><path d="M1668.36,694.743l82.11,0c3.798,0 3.803,-5.9 0,-5.9l-82.11,0c-3.798,0 -3.802,5.9 0,5.9Z" style="fill:#0c2b34;fill-rule:nonzero;"/><path d="M1758.33,566.253l-89.977,0c-1.901,0 -2.849,-1.478 -2.849,-2.951c0,-1.477 0.953,-2.95 2.849,-2.95l89.977,0c1.901,0 2.85,1.473 2.85,2.95c0,1.473 -0.953,2.951 -2.85,2.951Z" style="fill:#727f84;fill-rule:nonzero;"/><path d="M1746.53,582.314l-78.177,0c-1.901,0 -2.849,-1.477 -2.849,-2.95c0,-1.477 0.953,-2.95 2.849,-2.95l78.177,0c1.901,0 2.849,1.473 2.849,2.95c0,1.473 -0.952,2.95 -2.849,2.95Z" style="fill:#727f84;fill-rule:nonzero;"/><path d="M1746.53,598.376l-78.177,0c-1.901,0 -2.849,-1.477 -2.849,-2.95c0,-1.477 0.953,-2.95 2.849,-2.95l78.177,0c1.901,0 2.849,1.473 2.849,2.95c0,1.473 -0.952,2.95 -2.849,2.95Z" style="fill:#727f84;fill-rule:nonzero;"/><path d="M1750.47,614.438l-82.11,0c-1.901,0 -2.849,-1.477 -2.849,-2.95c0,-1.477 0.953,-2.95 2.849,-2.95l82.11,0c1.901,0 2.85,1.473 2.85,2.95c0,1.473 -0.953,2.95 -2.85,2.95Z" style="fill:#727f84;fill-rule:nonzero;"/><path d="M1734.73,630.5l-66.376,0c-1.901,0 -2.849,-1.477 -2.849,-2.95c0,-1.478 0.953,-2.95 2.849,-2.95l66.376,0c1.901,0 2.85,1.472 2.85,2.95c0,1.473 -0.953,2.95 -2.85,2.95Z" style="fill:#727f84;fill-rule:nonzero;"/><path d="M1758.33,646.557l-89.977,0c-1.901,0 -2.849,-1.473 -2.849,-2.95c0,-1.473 0.953,-2.95 2.849,-2.95l89.977,0c1.901,0 2.85,1.477 2.85,2.95c0,1.477 -0.953,2.95 -2.85,2.95Z" style="fill:#727f84;fill-rule:nonzero;"/><path d="M1746.53,662.619l-78.177,0c-1.901,0 -2.849,-1.473 -2.849,-2.95c0,-1.473 0.953,-2.946 2.849,-2.946l78.177,0c1.901,0 2.849,1.473 2.849,2.946c0,1.477 -0.952,2.95 -2.849,2.95Z" style="fill:#727f84;fill-rule:nonzero;"/><path d="M1746.53,678.685l-63.124,0l0,-4.571l-17.478,0c0.45,-0.774 1.258,-1.333 2.425,-1.333l78.177,0c1.901,0 2.849,1.477 2.849,2.95c0,1.477 -0.952,2.954 -2.849,2.954Z" style="fill:#727f84;fill-rule:nonzero;"/><path d="M1750.47,694.743l-67.057,0l0,-5.9l67.057,0c1.901,0 2.85,1.477 2.85,2.95c0,1.477 -0.953,2.95 -2.85,2.95Z" style="fill:#727f84;fill-rule:nonzero;"/><rect x="1603.04" y="563.302" width="44.265" height="44.265" style="fill:#3073ba;fill-rule:nonzero;"/><rect x="1603.04" y="563.302" width="44.265" height="44.265" style="fill:#6698d0;fill-rule:nonzero;"/><rect x="1639.61" y="517.538" width="11.984" height="23.964" style="fill:#3073ba;fill-rule:nonzero;"/><rect x="1663.58" y="505.554" width="11.98" height="35.948" style="fill:#3073ba;fill-rule:nonzero;"/><rect x="1687.54" y="511.546" width="11.98" height="29.956" style="fill:#3073ba;fill-rule:nonzero;"/><rect x="1711.51" y="493.57" width="11.984" height="47.932" style="fill:#3073ba;fill-rule:nonzero;"/><rect x="1502.77" y="674.114" width="180.635" height="243.073" style="fill:#3073ba;fill-rule:nonzero;"/><path d="M1683.41,917.187l-180.636,0l0,-243.073l180.636,0l0,243.073Zm-160.042,-29.108c4.908,4.908 11.692,7.946 19.183,7.946c14.978,0 27.124,-12.146 27.124,-27.128l-10.083,0c0,9.414 -7.631,17.04 -17.041,17.04c-4.707,0 -8.969,-1.905 -12.054,-4.991c-3.081,-3.081 -4.991,-7.342 -4.991,-12.049c0,-9.41 7.631,-17.041 17.045,-17.041c4.703,0 8.964,1.905 12.045,4.991c3.09,3.086 4.996,7.342 4.996,12.05l10.083,0c0,-7.492 -3.038,-14.27 -7.946,-19.183c-4.908,-4.908 -11.687,-7.941 -19.178,-7.941c-14.982,0 -27.128,12.141 -27.128,27.124c0,5.734 1.779,11.053 4.816,15.436c0.931,1.342 1.98,2.592 3.129,3.746Zm53.68,1.892c0,1.478 0.948,2.951 2.849,2.951l78.176,0c1.897,0 2.85,-1.473 2.85,-2.951c0,-1.477 -0.948,-2.95 -2.85,-2.95l-78.176,0c-1.897,0 -2.849,1.473 -2.849,2.95Zm0,-16.061c0,1.473 0.948,2.95 2.849,2.95l78.176,0c1.897,0 2.85,-1.477 2.85,-2.95c0,-1.473 -0.948,-2.951 -2.85,-2.951l-78.176,0c-1.897,0 -2.849,1.478 -2.849,2.951Zm0,-16.062c0,1.473 0.948,2.95 2.849,2.95l89.977,0c1.897,0 2.85,-1.477 2.85,-2.95c0,-1.477 -0.949,-2.95 -2.85,-2.95l-89.977,0c-1.897,0 -2.849,1.473 -2.849,2.95Zm0,-16.062c0,1.477 0.948,2.95 2.849,2.95l66.376,0c1.897,0 2.85,-1.473 2.85,-2.95c0,-1.473 -0.949,-2.95 -2.85,-2.95l-66.376,0c-1.897,0 -2.849,1.477 -2.849,2.95Zm0,-16.075c0,1.473 0.948,2.95 2.849,2.95l82.11,0c1.901,0 2.85,-1.477 2.85,-2.95c0,-1.477 -0.949,-2.95 -2.85,-2.95l-82.11,0c-1.897,0 -2.849,1.473 -2.849,2.95Zm-22.448,-20.074c-3.085,3.086 -7.346,4.991 -12.049,4.991l0,10.083c7.491,0 14.27,-3.037 19.178,-7.946c4.908,-4.908 7.946,-11.691 7.946,-19.182c0,-14.978 -12.146,-27.124 -27.124,-27.124l0,10.088c9.41,0 17.041,7.626 17.041,17.036c0,4.707 -1.906,8.968 -4.996,12.054l0.004,0Zm-39.177,-12.054c0,14.982 12.146,27.128 27.128,27.128l0,-10.083c-9.414,0 -17.045,-7.631 -17.045,-17.045l-10.083,0Zm61.625,16.066c0,1.473 0.948,2.95 2.849,2.95l78.176,0c1.897,0 2.85,-1.477 2.85,-2.95c0,-1.477 -0.948,-2.95 -2.85,-2.95l-78.176,0c-1.897,0 -2.849,1.473 -2.849,2.95Zm0,-16.062c0,1.473 0.948,2.951 2.849,2.951l78.176,0c1.897,0 2.85,-1.478 2.85,-2.951c0,-1.477 -0.948,-2.95 -2.85,-2.95l-78.176,0c-1.897,0 -2.849,1.473 -2.849,2.95Zm-53.68,-19.182c-4.908,4.908 -7.945,11.691 -7.945,19.178l10.083,0c0,-4.703 1.91,-8.964 4.991,-12.045c3.085,-3.086 7.347,-4.991 12.054,-4.991l0,-10.088c-7.491,0 -14.275,3.038 -19.183,7.946Zm53.68,3.121c0,1.477 0.948,2.95 2.849,2.95l89.977,0c1.897,0 2.85,-1.473 2.85,-2.95c0,-1.478 -0.949,-2.951 -2.85,-2.951l-89.977,0c-1.897,0 -2.849,1.473 -2.849,2.951Zm0,-16.062c0,1.473 0.948,2.95 2.849,2.95l66.376,0c1.897,0 2.85,-1.477 2.85,-2.95c0,-1.477 -0.949,-2.95 -2.85,-2.95l-66.376,0c-1.897,0 -2.849,1.473 -2.849,2.95Zm0,-16.062c0,1.473 0.948,2.95 2.849,2.95l82.11,0c1.901,0 2.85,-1.477 2.85,-2.95c0,-1.477 -0.949,-2.95 -2.85,-2.95l-82.11,0c-1.897,0 -2.849,1.473 -2.849,2.95Zm-34.497,0c14.978,0 27.124,-12.146 27.124,-27.124c0,-14.982 -12.146,-27.128 -27.124,-27.128c-14.982,0 -27.128,12.146 -27.128,27.128c0,7.487 3.037,14.27 7.945,19.178c4.908,4.908 11.692,7.946 19.183,7.946l0,-10.083c-4.707,0 -8.969,-1.91 -12.054,-4.995c-3.081,-3.082 -4.991,-7.343 -4.991,-12.046c0,-9.414 7.631,-17.045 17.045,-17.045c4.703,0 8.964,1.91 12.045,4.991l0.004,0c3.086,3.086 4.992,7.347 4.992,12.054c0,9.41 -7.631,17.041 -17.041,17.041l0,10.083Zm34.497,-16.062c0,1.473 0.948,2.95 2.849,2.95l78.176,0c1.897,0 2.85,-1.477 2.85,-2.95c0,-1.477 -0.948,-2.95 -2.85,-2.95l-78.176,0c-1.897,0 -2.849,1.473 -2.849,2.95Zm0,-16.062c0,1.473 0.948,2.95 2.849,2.95l78.176,0c1.897,0 2.85,-1.477 2.85,-2.95c0,-1.477 -0.948,-2.95 -2.85,-2.95l-78.176,0c-1.897,0 -2.849,1.473 -2.849,2.95Zm0,-16.061c0,1.472 0.948,2.95 2.849,2.95l89.977,0c1.897,0 2.85,-1.478 2.85,-2.95c0,-1.478 -0.949,-2.951 -2.85,-2.951l-89.977,0c-1.897,0 -2.849,1.473 -2.849,2.951Z" style="fill:#caddf2;fill-rule:nonzero;"/><path d="M1579.9,700.167l89.977,0c3.798,0 3.802,-5.901 0,-5.901l-89.977,0c-3.798,0 -3.802,5.901 0,5.901Z" style="fill:#0c2b34;fill-rule:nonzero;"/><path d="M1579.9,716.228l78.176,0c3.799,0 3.803,-5.9 0,-5.9l-78.176,0c-3.798,0 -3.802,5.9 0,5.9Z" style="fill:#0c2b34;fill-rule:nonzero;"/><path d="M1579.9,732.29l78.176,0c3.799,0 3.803,-5.9 0,-5.9l-78.176,0c-3.798,0 -3.802,5.9 0,5.9Z" style="fill:#0c2b34;fill-rule:nonzero;"/><path d="M1579.9,748.352l82.11,0c3.798,0 3.802,-5.9 0,-5.9l-82.11,0c-3.798,0 -3.802,5.9 0,5.9Z" style="fill:#0c2b34;fill-rule:nonzero;"/><path d="M1579.9,764.414l66.376,0c3.798,0 3.802,-5.9 0,-5.9l-66.376,0c-3.798,0 -3.802,5.9 0,5.9Z" style="fill:#0c2b34;fill-rule:nonzero;"/><path d="M1579.9,780.476l89.977,0c3.798,0 3.802,-5.901 0,-5.901l-89.977,0c-3.798,0 -3.802,5.901 0,5.901Z" style="fill:#0c2b34;fill-rule:nonzero;"/><path d="M1579.9,796.538l78.176,0c3.799,0 3.803,-5.901 0,-5.901l-78.176,0c-3.798,0 -3.802,5.901 0,5.901Z" style="fill:#0c2b34;fill-rule:nonzero;"/><path d="M1579.9,812.599l78.176,0c3.799,0 3.803,-5.9 0,-5.9l-78.176,0c-3.798,0 -3.802,5.9 0,5.9Z" style="fill:#0c2b34;fill-rule:nonzero;"/><path d="M1579.9,844.736l66.376,0c3.798,0 3.802,-5.9 0,-5.9l-66.376,0c-3.798,0 -3.802,5.9 0,5.9Z" style="fill:#0c2b34;fill-rule:nonzero;"/><path d="M1579.9,860.798l89.977,0c3.798,0 3.802,-5.9 0,-5.9l-89.977,0c-3.798,0 -3.802,5.9 0,5.9Z" style="fill:#0c2b34;fill-rule:nonzero;"/><path d="M1579.9,876.86l78.176,0c3.799,0 3.803,-5.901 0,-5.901l-78.176,0c-3.798,0 -3.802,5.901 0,5.901Z" style="fill:#0c2b34;fill-rule:nonzero;"/><path d="M1579.9,892.922l78.176,0c3.799,0 3.803,-5.901 0,-5.901l-78.176,0c-3.798,0 -3.802,5.901 0,5.901Z" style="fill:#0c2b34;fill-rule:nonzero;"/><path d="M1579.9,828.661l82.11,0c3.798,0 3.802,-5.9 0,-5.9l-82.11,0c-3.798,0 -3.802,5.9 0,5.9Z" style="fill:#0c2b34;fill-rule:nonzero;"/><path d="M1669.87,700.167l-89.977,0c-1.901,0 -2.849,-1.478 -2.849,-2.95c0,-1.478 0.952,-2.951 2.849,-2.951l89.977,0c1.901,0 2.85,1.473 2.85,2.951c0,1.472 -0.953,2.95 -2.85,2.95Z" style="fill:#727f84;fill-rule:nonzero;"/><path d="M1658.07,716.228l-78.176,0c-1.901,0 -2.849,-1.477 -2.849,-2.95c0,-1.477 0.952,-2.95 2.849,-2.95l78.176,0c1.902,0 2.85,1.473 2.85,2.95c0,1.473 -0.953,2.95 -2.85,2.95Z" style="fill:#727f84;fill-rule:nonzero;"/><path d="M1658.07,732.29l-78.176,0c-1.901,0 -2.849,-1.477 -2.849,-2.95c0,-1.477 0.952,-2.95 2.849,-2.95l78.176,0c1.902,0 2.85,1.473 2.85,2.95c0,1.473 -0.953,2.95 -2.85,2.95Z" style="fill:#727f84;fill-rule:nonzero;"/><path d="M1662.01,748.352l-82.11,0c-1.901,0 -2.849,-1.477 -2.849,-2.95c0,-1.477 0.952,-2.95 2.849,-2.95l82.11,0c1.901,0 2.85,1.473 2.85,2.95c0,1.473 -0.949,2.95 -2.85,2.95Z" style="fill:#727f84;fill-rule:nonzero;"/><path d="M1646.27,764.414l-66.376,0c-1.901,0 -2.849,-1.477 -2.849,-2.95c0,-1.477 0.952,-2.95 2.849,-2.95l66.376,0c1.901,0 2.85,1.473 2.85,2.95c0,1.473 -0.953,2.95 -2.85,2.95Z" style="fill:#727f84;fill-rule:nonzero;"/><path d="M1669.87,780.476l-89.977,0c-1.901,0 -2.849,-1.473 -2.849,-2.95c0,-1.478 0.952,-2.951 2.849,-2.951l89.977,0c1.901,0 2.85,1.473 2.85,2.951c0,1.477 -0.953,2.95 -2.85,2.95Z" style="fill:#727f84;fill-rule:nonzero;"/><path d="M1658.07,796.538l-78.176,0c-1.901,0 -2.849,-1.478 -2.849,-2.951c0,-1.477 0.952,-2.95 2.849,-2.95l78.176,0c1.902,0 2.85,1.473 2.85,2.95c0,1.473 -0.953,2.951 -2.85,2.951Z" style="fill:#727f84;fill-rule:nonzero;"/><path d="M1658.07,812.599l-78.176,0c-1.901,0 -2.849,-1.477 -2.849,-2.95c0,-1.477 0.952,-2.95 2.849,-2.95l78.176,0c1.902,0 2.85,1.473 2.85,2.95c0,1.473 -0.953,2.95 -2.85,2.95Z" style="fill:#727f84;fill-rule:nonzero;"/><path d="M1646.27,844.736l-66.376,0c-1.901,0 -2.849,-1.473 -2.849,-2.95c0,-1.473 0.952,-2.95 2.849,-2.95l66.376,0c1.901,0 2.85,1.477 2.85,2.95c0,1.477 -0.953,2.95 -2.85,2.95Z" style="fill:#727f84;fill-rule:nonzero;"/><path d="M1669.87,860.798l-89.977,0c-1.901,0 -2.849,-1.477 -2.849,-2.95c0,-1.477 0.952,-2.95 2.849,-2.95l89.977,0c1.901,0 2.85,1.473 2.85,2.95c0,1.473 -0.953,2.95 -2.85,2.95Z" style="fill:#727f84;fill-rule:nonzero;"/><path d="M1658.07,876.86l-78.176,0c-1.901,0 -2.849,-1.477 -2.849,-2.95c0,-1.473 0.952,-2.951 2.849,-2.951l78.176,0c1.902,0 2.85,1.478 2.85,2.951c0,1.473 -0.953,2.95 -2.85,2.95Z" style="fill:#727f84;fill-rule:nonzero;"/><path d="M1658.07,892.922l-78.176,0c-1.901,0 -2.849,-1.473 -2.849,-2.951c0,-1.477 0.952,-2.95 2.849,-2.95l78.176,0c1.902,0 2.85,1.473 2.85,2.95c0,1.478 -0.953,2.951 -2.85,2.951Z" style="fill:#727f84;fill-rule:nonzero;"/><path d="M1662.01,828.661l-82.11,0c-1.901,0 -2.849,-1.477 -2.849,-2.95c0,-1.477 0.952,-2.95 2.849,-2.95l82.11,0c1.901,0 2.85,1.473 2.85,2.95c0,1.473 -0.949,2.95 -2.85,2.95Z" style="fill:#727f84;fill-rule:nonzero;"/><path d="M1530.5,781.538l-7.129,-7.133c-4.908,4.908 -7.945,11.691 -7.945,19.178l10.083,0c0,-4.703 1.91,-8.964 4.991,-12.045Z" style="fill:#3073ba;fill-rule:nonzero;"/><path d="M1542.55,810.628c-9.414,0 -17.045,-7.631 -17.045,-17.045l-10.083,0c0,14.982 12.146,27.128 27.128,27.128l0,-10.083Z" style="fill:#3073ba;fill-rule:nonzero;"/><path d="M1542.55,820.711c-14.982,0 -27.128,-12.146 -27.128,-27.128l10.083,0c0,9.414 7.631,17.045 17.045,17.045l0,10.083Z" style="fill:#6698d0;fill-rule:nonzero;"/><path d="M1530.5,781.538c3.085,-3.086 7.347,-4.991 12.054,-4.991l0,-10.088c-7.491,0 -14.275,3.038 -19.183,7.946l7.129,7.133Z" style="fill:#3073ba;fill-rule:nonzero;"/><path d="M1530.5,781.538l-7.129,-7.133c4.908,-4.908 11.692,-7.946 19.183,-7.946l0,10.088c-4.707,0 -8.969,1.905 -12.054,4.991Z" style="fill:#174781;fill-rule:nonzero;"/><path d="M1559.59,793.583c0,9.414 -7.631,17.045 -17.041,17.045l0,10.083c14.978,0 27.124,-12.146 27.124,-27.128c0,-14.978 -12.146,-27.124 -27.124,-27.124l0,10.088c9.41,0 17.041,7.626 17.041,17.036Z" style="fill:#3073ba;fill-rule:nonzero;"/><path d="M1561.73,812.765c4.908,-4.908 7.946,-11.691 7.946,-19.182c0,7.491 -3.038,14.274 -7.946,19.182Zm-7.129,-7.128l-0.004,0c3.09,-3.086 4.996,-7.347 4.996,-12.054c0,4.712 -1.906,8.968 -4.992,12.054Z" style="fill:#a0b0c6;fill-rule:nonzero;"/><path d="M1561.73,812.765l-7.129,-7.128c3.086,-3.086 4.992,-7.342 4.992,-12.054l10.083,0c0,7.491 -3.038,14.274 -7.946,19.182Z" style="fill:#1f68b3;fill-rule:nonzero;"/><path d="M1530.5,730.324l-7.129,7.132c4.908,4.908 11.692,7.946 19.183,7.946l0,-10.083c-4.707,0 -8.969,-1.91 -12.054,-4.995Z" style="fill:#3073ba;fill-rule:nonzero;"/><path d="M1559.59,718.278c0,9.41 -7.631,17.041 -17.041,17.041l0,10.083c14.978,0 27.124,-12.146 27.124,-27.124l-10.083,0Z" style="fill:#3073ba;fill-rule:nonzero;"/><path d="M1542.55,745.402l0,-10.083c9.41,0 17.041,-7.631 17.041,-17.041l10.083,0c0,14.978 -12.146,27.124 -27.124,27.124Z" style="fill:#6698d0;fill-rule:nonzero;"/><path d="M1530.5,730.324c-3.081,-3.082 -4.991,-7.343 -4.991,-12.046l-10.083,0c0,7.487 3.037,14.27 7.945,19.178l7.129,-7.132Z" style="fill:#3073ba;fill-rule:nonzero;"/><path d="M1523.37,737.456c-4.908,-4.908 -7.945,-11.691 -7.945,-19.178l10.083,0c0,4.703 1.91,8.964 4.991,12.046l-7.129,7.132Z" style="fill:#174781;fill-rule:nonzero;"/><path d="M1542.55,701.233c9.41,0 17.041,7.631 17.041,17.045l10.083,0c0,-14.982 -12.146,-27.128 -27.124,-27.128c-14.982,0 -27.128,12.146 -27.128,27.128l10.083,0c0,-9.414 7.631,-17.045 17.045,-17.045Z" style="fill:#3073ba;fill-rule:nonzero;"/><path d="M1554.6,706.224c-3.081,-3.081 -7.342,-4.991 -12.045,-4.991c4.703,0 8.964,1.91 12.049,4.991l-0.004,0Z" style="fill:#a0b0c6;fill-rule:nonzero;"/><path d="M1554.6,706.224c-3.085,-3.081 -7.346,-4.991 -12.049,-4.991l0,-10.083c7.491,0 14.27,3.038 19.178,7.946l-7.129,7.128Z" style="fill:#1f68b3;fill-rule:nonzero;"/><path d="M1554.6,856.847l7.133,-7.133c4.908,4.913 7.946,11.691 7.946,19.183l-10.083,0c0,-4.708 -1.906,-8.964 -4.996,-12.05Z" style="fill:#3073ba;fill-rule:nonzero;"/><path d="M1542.55,885.937c9.41,0 17.041,-7.626 17.041,-17.04l10.083,0c0,14.982 -12.146,27.128 -27.124,27.128l0,-10.088Z" style="fill:#3073ba;fill-rule:nonzero;"/><path d="M1542.55,896.025l0,-10.088c9.41,0 17.041,-7.626 17.041,-17.04l10.083,0c0,14.982 -12.146,27.128 -27.124,27.128Z" style="fill:#6698d0;fill-rule:nonzero;"/><path d="M1554.6,856.847c-3.081,-3.086 -7.342,-4.991 -12.045,-4.991l0,-10.083c7.491,0 14.27,3.033 19.178,7.941l-7.133,7.133Z" style="fill:#3073ba;fill-rule:nonzero;"/><path d="M1554.6,856.847c-3.081,-3.086 -7.342,-4.991 -12.045,-4.991l0,-10.083c7.491,0 14.27,3.033 19.178,7.941l-7.133,7.133Z" style="fill:#174781;fill-rule:nonzero;"/><path d="M1525.51,868.897c0,9.414 7.631,17.04 17.045,17.04l0,10.088c-14.982,0 -27.128,-12.146 -27.128,-27.128c0,-14.983 12.146,-27.124 27.128,-27.124l0,10.083c-9.414,0 -17.045,7.631 -17.045,17.041Z" style="fill:#3073ba;fill-rule:nonzero;"/><path d="M1523.37,888.079c-1.149,-1.154 -2.198,-2.404 -3.129,-3.746c0.931,1.342 1.98,2.592 3.129,3.746Zm7.129,-7.133c-3.081,-3.081 -4.991,-7.342 -4.991,-12.049c0,4.707 1.91,8.968 4.991,12.049Z" style="fill:#a0b0c6;fill-rule:nonzero;"/><path d="M1523.37,888.079c-1.149,-1.154 -2.198,-2.404 -3.129,-3.746c-3.037,-4.383 -4.816,-9.702 -4.816,-15.436l10.083,0c0,4.707 1.91,8.968 4.991,12.049l-7.129,7.133Z" style="fill:#1f68b3;fill-rule:nonzero;"/><path d="M1138.21,1187.72l-105.715,0l0,-29.593l105.715,0c6.394,0 11.578,5.183 11.578,11.573l0,6.447c0,6.394 -5.184,11.573 -11.578,11.573Z" style="fill:#0c2b34;fill-rule:nonzero;"/><path d="M1050.78,1187.72l-224.961,0c-5.953,0 -10.774,-4.821 -10.774,-10.773l0,-8.047c0,-5.948 4.821,-10.773 10.774,-10.773l224.961,0c5.949,0 10.774,4.825 10.774,10.773l0,8.047c0,5.952 -4.825,10.773 -10.774,10.773Z" style="fill-rule:nonzero;"/><path d="M1050.78,1187.72l-132.537,0l-2.102,-29.593l134.639,0c5.949,0 10.774,4.825 10.774,10.773l0,8.047c0,5.952 -4.825,10.773 -10.774,10.773Z" style="fill:#767b7c;fill-rule:nonzero;"/><path d="M1001.35,1158.12l56.996,0l-36.494,-136.327l-20.502,0l0,136.327Z" style="fill:#0c2b34;fill-rule:nonzero;"/><path d="M1050.05,1158.12l-116.336,0l-11.581,-136.327l91.423,0l36.494,136.327Z" style="fill-rule:nonzero;"/><path d="M1050.05,1158.12l-116.336,0l-5.117,-60.222l105.334,0l16.119,60.222Z" style="fill:#444748;fill-rule:nonzero;"/><path d="M1343.09,629.945l-52.879,0l-40.944,467.956l52.884,0c11.071,0 20.83,-8.973 21.801,-20.048l37.434,-427.86c0.965,-11.075 -7.225,-20.048 -18.296,-20.048Z" style="fill:#0c2b34;fill-rule:nonzero;"/><path d="M1289.95,1097.9l-640.192,0c-11.07,0 -19.261,-8.973 -18.29,-20.048l37.434,-427.86c0.965,-11.075 10.725,-20.048 21.796,-20.048l640.195,0c11.071,0 19.261,8.973 18.291,20.048l-37.434,427.86c-0.966,11.075 -10.725,20.048 -21.8,20.048Z" style="fill:#0c2b34;fill-rule:nonzero;"/><path d="M1289.95,1097.9l-378.089,0l-2.517,-35.437l-2.186,-2.543l-0.655,-16.635l366.362,0c9.602,0 18.073,-7.788 18.912,-17.39l31.101,-355.506c0.843,-9.607 -6.263,-17.395 -15.87,-17.395l-483.563,0c-5.385,-9.694 -12.609,-17.889 -21.923,-23.05l529.371,0c10.468,0 18.356,8.02 18.37,18.247c0,0.594 -0.022,1.193 -0.079,1.801l-37.434,427.86c-0.966,11.075 -10.725,20.048 -21.8,20.048Zm-568.72,0l-71.472,0c-10.463,0 -18.356,-8.02 -18.369,-18.247c0,-0.595 0.026,-1.193 0.079,-1.801l6.988,-79.902c6.394,5.45 14.379,10.48 23.203,15.078l-1.123,12.867c-0.843,9.602 6.263,17.39 15.87,17.39l44.912,0c5.253,22.146 5.472,23.068 5.48,23.108c-1.42,5.633 -3.623,15.904 -5.568,31.507Zm-72.271,-220.005l19.943,-227.903c0.965,-11.075 10.725,-20.048 21.796,-20.048l64.098,0c-9.296,5.013 -16.883,12.994 -21.175,23.05l-23.072,0c-9.603,0 -18.073,7.788 -18.912,17.395l-12.119,138.534c-3.121,4.353 -5.35,9.283 -6.504,14.479c-0.494,0.673 -0.931,1.408 -1.302,2.199c-5.446,11.652 -14.178,30.917 -22.753,52.294Z" style="fill:#b2bbbe;fill-rule:nonzero;"/><path d="M1272.87,1043.29l-366.362,0l-1.342,-34.112l125.776,0c2.509,0 3.763,-1.949 3.763,-3.898c0,-1.95 -1.25,-3.899 -3.763,-3.899l-126.086,0l-0.503,-12.779c0.503,0.253 1.053,0.371 1.617,0.371c1.373,0 2.797,-0.708 3.615,-1.897c7.264,-10.528 14.527,-21.062 21.796,-31.599c5.651,3.344 11.306,6.691 16.962,10.03c0.594,0.355 1.25,0.521 1.897,0.521c1.027,0 2.045,-0.411 2.823,-1.128c6.442,-5.926 12.889,-11.849 19.331,-17.775c5.315,8.741 10.629,17.478 15.948,26.219c0.73,1.211 2.12,1.927 3.492,1.927c0.962,0 1.915,-0.354 2.623,-1.136c6.765,-7.447 13.527,-14.895 20.288,-22.342c5.262,7.185 10.533,14.37 15.799,21.551c0.87,1.193 2.081,1.687 3.274,1.687c2.819,0 5.542,-2.767 3.453,-5.616c-6.285,-8.575 -12.566,-17.146 -18.851,-25.721c-0.843,-1.149 -2.224,-1.932 -3.597,-1.932c-0.896,0 -1.791,0.341 -2.521,1.145c-6.657,7.33 -13.317,14.668 -19.974,21.997c-5.236,-8.605 -10.472,-17.22 -15.708,-25.825c-0.765,-1.259 -2.036,-1.897 -3.334,-1.897c-0.984,0 -1.98,0.367 -2.784,1.106c-6.893,6.337 -13.641,12.888 -20.695,19.047c-2.107,-1.15 -4.143,-2.465 -6.198,-3.68c-3.798,-2.247 -7.6,-4.493 -11.398,-6.74c-0.612,-0.363 -1.254,-0.524 -1.884,-0.524c-1.346,0 -2.635,0.747 -3.448,1.923c-6.726,9.746 -13.448,19.497 -20.17,29.243c-1.005,-1.954 -2.015,-3.907 -3.02,-5.865l-0.953,-24.134c0.743,1.014 1.49,2.028 2.246,3.055l-1.774,-32.216c3.365,3.291 6.84,6.508 10.437,9.672c8.658,7.627 19.663,11.604 30.83,11.604c5.743,0 11.529,-1.053 17.058,-3.204l89.946,-30.484c1.421,-0.481 2.317,-1.814 2.312,-3.239c0,-0.345 -0.052,-0.695 -0.166,-1.044l-2.701,-8.304l188.087,0l8.523,-97.438l-344.291,0l-1.355,15.472c-8.413,-12.561 -18.916,-24.96 -29.536,-28.277c-6.303,-3.37 -13.383,-5.424 -20.857,-5.84c-12.932,-0.712 -24.947,-1.075 -36.109,-1.136c15.087,-8.186 26.131,-23.645 27.679,-41.372c0.126,-1.433 0.188,-2.858 0.183,-4.261c-0.008,-8.925 -2.548,-17.141 -6.988,-23.964c0,-2.39 -0.075,-4.838 -0.223,-7.32c7.74,-0.42 11.949,-5.136 11.949,-5.136l-14.681,-14.353c-0.424,-1.897 -0.891,-3.785 -1.407,-5.66c1.001,-0.926 1.398,-2.801 0.922,-4.777c-0.424,-1.687 -1.403,-3.02 -2.513,-3.623l1.237,-0.59c0,0 4.191,13.597 8.335,17.863c0.502,0.686 0.952,1.088 1.319,1.088c0.04,0 0.079,-0.005 0.118,-0.013c0.285,0.122 0.569,0.192 0.844,0.192c0.153,0 0.302,-0.022 0.45,-0.061c4.782,-1.311 -5.192,-27.255 -5.192,-27.255l-9.55,5.306c-1.307,-3.195 -2.775,-6.289 -4.418,-9.244l483.563,0c9.607,0 16.713,7.788 15.87,17.395l-31.101,355.506c-0.839,9.602 -9.31,17.39 -18.912,17.39Zm-163.638,-46.013c0.004,3.099 2.395,5.529 5.568,5.529l69.837,0c3.357,0 6.316,-2.719 6.609,-6.075c0.017,-0.184 0.021,-0.367 0.021,-0.547c0,-3.103 -2.395,-5.533 -5.568,-5.533l-69.837,0c-3.357,0 -6.315,2.719 -6.608,6.08c-0.018,0.183 -0.022,0.367 -0.022,0.546Zm3.317,-37.928c0.005,3.099 2.395,5.533 5.568,5.533l64.44,0c3.352,0 6.311,-2.722 6.604,-6.079c0.017,-0.184 0.026,-0.363 0.026,-0.542c-0.004,-3.103 -2.399,-5.533 -5.568,-5.533l-64.435,0c-3.357,0 -6.316,2.718 -6.613,6.075c-0.013,0.184 -0.022,0.367 -0.022,0.546Zm3.269,-37.359c0.005,3.099 2.395,5.533 5.568,5.533l83.343,0c3.352,0 6.311,-2.723 6.608,-6.08c0.013,-0.183 0.022,-0.362 0.022,-0.541c-0.005,-3.104 -2.395,-5.534 -5.568,-5.534l-83.342,0c-3.353,0 -6.316,2.719 -6.609,6.075c-0.013,0.184 -0.022,0.368 -0.022,0.547Zm-44.693,-143.215c-0.004,1.971 2.002,3.61 3.864,3.61l187.79,0c2.478,0 3.719,-1.927 3.719,-3.855c0,-1.923 -1.237,-3.85 -3.719,-3.85l-20.529,0l6.962,-79.605l-20.865,0l-6.962,79.605l-20.869,0l4.23,-48.308l-20.865,0l-4.226,48.308l-20.865,0l5.135,-58.745l-20.865,0l-5.135,58.745l-20.865,0l3.313,-37.88l-20.866,0l-3.317,37.88l-17.01,0c2.325,-26.534 4.641,-53.072 6.962,-79.605c0.013,-0.136 0.018,-0.267 0.018,-0.398c0.004,-2.203 -1.718,-3.3 -3.536,-3.3c-1.932,0 -3.973,1.237 -4.187,3.698c-2.43,27.818 -4.864,55.637 -7.299,83.46c-0.009,0.079 -0.013,0.162 -0.013,0.24Zm-179.704,-10.323c7.858,8.61 19.282,13.933 32.42,13.933l1.548,-17.683c-8.252,0 -15.433,-3.348 -20.367,-8.759c-4.939,-5.41 -7.631,-12.88 -6.91,-21.136c1.447,-16.507 16.001,-29.89 32.508,-29.89c15.607,0 27.373,11.958 27.395,27.211c0,0.883 -0.039,1.779 -0.118,2.679c-1.442,16.508 -15.996,29.895 -32.508,29.895l-1.548,17.683c26.276,0 49.445,-21.297 51.743,-47.578c0.123,-1.433 0.184,-2.858 0.184,-4.261c-0.017,-13.898 -6.162,-26.075 -16.066,-33.95c-6.779,-5.385 -15.319,-8.759 -24.864,-9.292c-0.092,-0.005 -0.193,-0.009 -0.284,-0.013c-0.057,-0.005 -0.114,-0.009 -0.171,-0.009c-0.065,-0.005 -0.135,-0.009 -0.201,-0.009c-0.026,-0.004 -0.052,-0.004 -0.074,-0.004c-0.088,-0.005 -0.171,-0.009 -0.258,-0.009c-0.14,-0.004 -0.28,-0.009 -0.424,-0.013c-0.031,0 -0.061,-0.004 -0.092,-0.004c-0.227,-0.005 -0.45,-0.009 -0.673,-0.009c-0.166,-0.005 -0.332,-0.005 -0.494,-0.005c-26.275,0 -49.439,21.303 -51.738,47.578c-1.15,13.138 3.133,25.035 10.992,33.645Zm-170.098,274.838l-44.912,0c-9.607,0 -16.713,-7.788 -15.87,-17.39l1.123,-12.867c17.968,9.357 39.392,16.905 57.801,22.43c0.682,2.867 1.298,5.467 1.858,7.827Zm-15.044,-63.412l-20.751,-12.749l-10.914,-6.704l8.335,-19.633l9.021,-21.254c5.634,23.754 10.349,43.649 14.309,60.34Zm-26.756,-170.95l12.119,-138.534c0.839,-9.607 9.309,-17.395 18.912,-17.395l23.072,0c-0.809,1.897 -1.499,3.872 -2.063,5.914c-1.967,7.11 -2.207,14.584 -0.704,21.826c5.07,25.966 7.491,40.677 17.15,53.072c-0.039,0.332 -0.07,0.664 -0.1,0.996c-0.756,8.645 0.839,16.748 4.257,23.737l-3.921,21.835c-26.184,3.964 -43.701,10.236 -55.41,16.7c-5.349,2.955 -9.873,7.045 -13.312,11.849Zm120.387,-45.043c-0.179,-0.77 -0.341,-1.534 -0.481,-2.29c0,0 0.004,0 0.004,0.004c-0.646,-3.483 -0.874,-6.77 -0.336,-9.392c9.528,-1.202 18.299,-4.646 24.89,-10.542c-3.531,10.965 -12.897,19.606 -24.077,22.22Z" style="fill:#eff0ef;fill-rule:nonzero;"/><path d="M1116.72,778.531l-20.869,0l3.653,-41.735l20.866,0l-3.65,41.735Z" style="fill:#3073ba;fill-rule:nonzero;"/><path d="M1117.06,774.676l-20.87,0l3.317,-37.88l20.866,0l-3.313,37.88Z" style="fill:#1f68b3;fill-rule:nonzero;"/><path d="M1158.44,778.531l-20.861,0l5.472,-62.6l20.865,0l-5.476,62.6Z" style="fill:#3073ba;fill-rule:nonzero;"/><path d="M1200.17,778.531l-20.865,0l4.567,-52.163l20.865,0l-4.567,52.163Z" style="fill:#3073ba;fill-rule:nonzero;"/><path d="M1241.91,778.531l-20.865,0l7.299,-83.46l20.865,0l-7.299,83.46Z" style="fill:#3073ba;fill-rule:nonzero;"/><path d="M1242.25,774.676l-20.865,0l6.962,-79.605l20.865,0l-6.962,79.605Z" style="fill:#0056a7;fill-rule:nonzero;"/><path d="M1262.77,774.676l-183.599,0c2.325,-26.534 4.641,-53.072 6.962,-79.605c0.437,-4.944 -7.277,-4.913 -7.705,0c-2.43,27.818 -4.864,55.637 -7.299,83.46c-0.183,2.076 1.91,3.85 3.851,3.85l187.79,0c4.956,0 4.965,-7.705 0,-7.705Z" style="fill:#3073ba;fill-rule:nonzero;"/><path d="M1262.77,782.381l-187.79,0c-1.862,0 -3.868,-1.639 -3.864,-3.61c0,-0.078 0.004,-0.161 0.013,-0.24c2.435,-27.823 4.869,-55.642 7.299,-83.46c0.214,-2.461 2.255,-3.698 4.187,-3.698c1.818,0 3.54,1.097 3.536,3.3c0,0.131 -0.005,0.262 -0.018,0.398c-2.321,26.533 -4.637,53.071 -6.962,79.605l183.599,0c2.482,0 3.719,1.927 3.719,3.85c0,1.928 -1.241,3.855 -3.719,3.855Z" style="fill:#8ab3df;fill-rule:nonzero;"/><path d="M772.497,755.939l-13.601,12.509c7.858,8.61 19.287,13.933 32.425,13.933l1.547,-17.683c-8.256,0 -15.437,-3.348 -20.371,-8.759Z" style="fill:#3073ba;fill-rule:nonzero;"/><path d="M825.372,734.803c-1.442,16.508 -15.996,29.895 -32.504,29.895l-1.547,17.683c26.276,0 49.44,-21.297 51.739,-47.578l-17.688,0Z" style="fill:#3073ba;fill-rule:nonzero;"/><path d="M803.803,776.219c-1.429,-3.72 -2.919,-8.099 -3.898,-12.338c11.18,-2.614 20.546,-11.255 24.077,-22.22c2.238,-2.002 4.222,-4.283 5.9,-6.858l13.178,0c-1.548,17.727 -12.592,33.186 -27.679,41.372c-1.145,-0.009 -2.282,-0.009 -3.409,-0.009c-2.775,0 -5.498,0.018 -8.169,0.053Z" style="fill:#266eb6;fill-rule:nonzero;"/><path d="M772.497,755.939c-4.939,-5.41 -7.627,-12.88 -6.906,-21.136l-17.687,0c-1.15,13.138 3.138,25.035 10.992,33.645l13.601,-12.509Z" style="fill:#3073ba;fill-rule:nonzero;"/><path d="M798.1,704.913c16.507,0 28.719,13.383 27.272,29.89l17.688,0c2.299,-26.275 -17.137,-47.578 -43.413,-47.578c-26.28,0 -49.444,21.303 -51.743,47.578l17.687,0c1.443,-16.507 15.997,-29.89 32.509,-29.89Z" style="fill:#3073ba;fill-rule:nonzero;"/><path d="M843.06,734.803l-13.178,0c3.016,-4.619 5.048,-10.179 5.77,-16.721c0.397,-3.624 0.607,-7.487 0.603,-11.504c4.44,6.823 6.98,15.039 6.988,23.964c0.005,1.403 -0.057,2.828 -0.183,4.261Z" style="fill:#568ac7;fill-rule:nonzero;"/><path d="M748.8,734.803l-0.896,0c0.03,-0.332 0.061,-0.664 0.1,-0.996c0.258,0.336 0.525,0.669 0.796,0.996Z" style="fill:#568ac7;fill-rule:nonzero;"/><path d="M905.017,755.939l-13.601,12.509c7.858,8.61 19.282,13.933 32.42,13.933l1.548,-17.683c-8.252,0 -15.433,-3.348 -20.367,-8.759Z" style="fill:#3073ba;fill-rule:nonzero;"/><path d="M923.836,782.381c-13.138,0 -24.562,-5.323 -32.42,-13.933l13.601,-12.509c4.934,5.411 12.115,8.759 20.367,8.759l-1.548,17.683Z" style="fill:#174781;fill-rule:nonzero;"/><path d="M957.892,734.803c-1.442,16.508 -15.996,29.895 -32.508,29.895l-1.548,17.683c26.276,0 49.445,-21.297 51.743,-47.578l-17.687,0Z" style="fill:#3073ba;fill-rule:nonzero;"/><path d="M923.836,782.381l1.548,-17.683c16.512,0 31.066,-13.387 32.508,-29.895l17.687,0c-2.298,26.281 -25.467,47.578 -51.743,47.578Z" style="fill:#266eb6;fill-rule:nonzero;"/><path d="M905.017,755.939c-4.939,-5.41 -7.631,-12.88 -6.91,-21.136l-17.683,0c-1.15,13.138 3.133,25.035 10.992,33.645l13.601,-12.509Z" style="fill:#3073ba;fill-rule:nonzero;"/><path d="M930.615,704.913c16.508,0 28.723,13.383 27.277,29.89l17.687,0c2.299,-26.275 -17.141,-47.578 -43.417,-47.578c-26.275,0 -49.439,21.303 -51.738,47.578l17.683,0c1.447,-16.507 16.001,-29.89 32.508,-29.89Z" style="fill:#3073ba;fill-rule:nonzero;"/><path d="M975.579,734.803l-17.687,0c0.079,-0.9 0.118,-1.796 0.118,-2.679c-0.022,-15.253 -11.788,-27.211 -27.395,-27.211c8.256,0 15.437,3.344 20.371,8.754l13.597,-12.504c-1.503,-1.652 -3.138,-3.177 -4.886,-4.571c9.904,7.875 16.049,20.052 16.066,33.95c0,1.403 -0.061,2.828 -0.184,4.261Z" style="fill:#568ac7;fill-rule:nonzero;"/><path d="M898.107,734.803l-17.683,0c2.299,-26.275 25.463,-47.578 51.738,-47.578c0.162,0 0.328,0 0.494,0.005c-0.166,-0.005 -0.328,-0.005 -0.494,-0.005l-1.547,17.688c-16.507,0 -31.061,13.383 -32.508,29.89Zm36.726,-47.503c-0.096,-0.005 -0.188,-0.009 -0.284,-0.013c0.091,0.004 0.192,0.008 0.284,0.013Zm-0.455,-0.022c-0.065,-0.005 -0.135,-0.009 -0.201,-0.009c0.066,0 0.136,0.004 0.201,0.009Zm-0.275,-0.013c-0.088,-0.005 -0.171,-0.009 -0.258,-0.009c0.087,0 0.17,0.004 0.258,0.009Zm-0.682,-0.022c-0.031,0 -0.061,-0.004 -0.092,-0.004c0.031,0 0.061,0.004 0.092,0.004Z" style="fill:#568ac7;fill-rule:nonzero;"/><path d="M959.697,696.592c-6.779,-5.385 -15.319,-8.759 -24.864,-9.292c9.545,0.533 18.085,3.907 24.864,9.292Z" style="fill:#fafafa;fill-rule:nonzero;"/><path d="M934.549,687.287c-0.057,-0.005 -0.114,-0.009 -0.171,-0.009c0.057,0 0.114,0.004 0.171,0.009Z" style="fill:#fafafa;fill-rule:nonzero;"/><path d="M933.329,687.239c-0.227,-0.005 -0.45,-0.009 -0.673,-0.009c0.223,0 0.446,0.004 0.673,0.009Z" style="fill:#fafafa;fill-rule:nonzero;"/><path d="M950.986,713.667c-4.934,-5.41 -12.115,-8.754 -20.371,-8.754l1.547,-17.688c0.166,0 0.328,0 0.494,0.005c0.223,0 0.446,0.004 0.673,0.009c0.031,0 0.061,0.004 0.092,0.004c0.144,0.004 0.284,0.009 0.424,0.013c0.087,0 0.17,0.004 0.258,0.009c0.022,0 0.048,0 0.074,0.004c0.066,0 0.136,0.004 0.201,0.009c0.057,0 0.114,0.004 0.171,0.009c0.096,0.004 0.188,0.008 0.284,0.013c9.545,0.533 18.085,3.907 24.864,9.292c1.748,1.394 3.383,2.919 4.886,4.571l-13.597,12.504Z" style="fill:#afcdec;fill-rule:nonzero;"/><path d="M1085.08,927.921l14.077,0l1.233,-14.095l-14.074,0l-1.236,14.095Zm19.025,5.402l-24.921,0l2.181,-24.899l24.916,0l-2.176,24.899Z" style="fill:#3073ba;fill-rule:nonzero;"/><path d="M1081.76,965.849l14.074,0l1.232,-14.095l-14.073,0l-1.233,14.095Zm19.025,5.402l-24.921,0l2.177,-24.899l24.921,0l-2.177,24.899Z" style="fill:#3073ba;fill-rule:nonzero;"/><path d="M1078.44,1003.77l14.073,0l1.233,-14.095l-14.073,0l-1.233,14.095Zm19.025,5.402l-24.921,0l2.177,-24.899l24.921,0l-2.177,24.899Z" style="fill:#3073ba;fill-rule:nonzero;"/><path d="M1121.38,927.519c-3.356,0 -5.839,-2.723 -5.546,-6.08c0.293,-3.356 3.256,-6.075 6.609,-6.075l83.342,0c3.352,0 5.835,2.719 5.546,6.075c-0.297,3.357 -3.256,6.08 -6.608,6.08l-83.343,0Z" style="fill:#3073ba;fill-rule:nonzero;"/><path d="M1204.72,927.519l-83.343,0c-3.173,0 -5.563,-2.434 -5.568,-5.533c0,-0.179 0.009,-0.363 0.022,-0.547c0.293,-3.356 3.256,-6.075 6.609,-6.075l83.342,0c3.173,0 5.563,2.43 5.568,5.534c0,0.179 -0.009,0.358 -0.022,0.541c-0.297,3.357 -3.256,6.08 -6.608,6.08Z" style="fill:#b3cfec;fill-rule:nonzero;"/><path d="M1114.8,1002.8c-3.357,0 -5.839,-2.719 -5.546,-6.075c0.293,-3.361 3.251,-6.08 6.608,-6.08l69.837,0c3.357,0 5.839,2.719 5.547,6.08c-0.293,3.356 -3.252,6.075 -6.609,6.075l-69.837,0Z" style="fill:#3073ba;fill-rule:nonzero;"/><path d="M1184.63,1002.8l-69.837,0c-3.173,0 -5.564,-2.43 -5.568,-5.529c0,-0.179 0.004,-0.363 0.022,-0.546c0.293,-3.361 3.251,-6.08 6.608,-6.08l69.837,0c3.173,0 5.568,2.43 5.568,5.533c0,0.18 -0.004,0.363 -0.021,0.547c-0.293,3.356 -3.252,6.075 -6.609,6.075Z" style="fill:#76a6d9;fill-rule:nonzero;"/><path d="M1118.11,964.878c-3.356,0 -5.839,-2.722 -5.546,-6.079c0.297,-3.357 3.256,-6.075 6.613,-6.075l64.435,0c3.352,0 5.839,2.718 5.542,6.075c-0.293,3.357 -3.252,6.079 -6.604,6.079l-64.44,0Z" style="fill:#3073ba;fill-rule:nonzero;"/><path d="M1182.55,964.878l-64.44,0c-3.173,0 -5.563,-2.434 -5.568,-5.533c0,-0.179 0.009,-0.362 0.022,-0.546c0.297,-3.357 3.256,-6.075 6.613,-6.075l64.435,0c3.169,0 5.564,2.43 5.568,5.533c0,0.179 -0.009,0.358 -0.026,0.542c-0.293,3.357 -3.252,6.079 -6.604,6.079Z" style="fill:#568ac7;fill-rule:nonzero;"/><path d="M1037.27,969.411c-6.285,-8.575 -12.566,-17.146 -18.851,-25.721c-1.398,-1.906 -4.283,-2.81 -6.118,-0.787c-6.657,7.33 -13.317,14.668 -19.974,21.997c-5.236,-8.605 -10.472,-17.22 -15.708,-25.825c-1.341,-2.212 -4.257,-2.505 -6.118,-0.791c-6.893,6.337 -13.641,12.888 -20.695,19.047c-2.107,-1.15 -4.143,-2.465 -6.198,-3.68c-3.798,-2.247 -7.6,-4.493 -11.398,-6.74c-1.91,-1.132 -4.139,-0.332 -5.332,1.399c-6.726,9.746 -13.448,19.497 -20.17,29.243c-5.022,-9.746 -10.039,-19.497 -15.057,-29.243c-0.988,-1.919 -3.557,-2.356 -5.332,-1.399c-3.208,1.727 -6.411,3.453 -9.619,5.179c-1.967,1.058 -8.576,4.358 -10.437,5.817c-1.508,-1.376 -7.234,-4.326 -8.374,-4.999c-3.361,-1.998 -6.722,-4 -10.088,-5.997c-4.318,-2.57 -8.243,4.165 -3.933,6.731c5.594,3.321 15.563,12.535 22.146,12.521c5.974,-0.013 14.444,-6.328 20.725,-10.397c5.371,10.441 10.743,20.874 16.114,31.306c1.433,2.789 5.175,2.26 6.731,0c7.264,-10.528 14.527,-21.062 21.796,-31.599c5.651,3.344 11.306,6.691 16.962,10.03c1.538,0.914 3.448,0.564 4.72,-0.607c6.442,-5.926 12.889,-11.849 19.331,-17.775c5.315,8.741 10.629,17.478 15.948,26.219c1.246,2.058 4.393,2.692 6.115,0.791c6.765,-7.447 13.527,-14.895 20.288,-22.342c5.262,7.185 10.533,14.37 15.799,21.551c2.933,4.008 9.699,0.127 6.727,-3.929Z" style="fill:#3073ba;fill-rule:nonzero;"/><path d="M1030.94,1001.38l-185.679,0c2.347,-26.831 4.694,-53.67 7.045,-80.506c0.437,-4.995 -7.36,-4.969 -7.797,0c-2.46,28.134 -4.921,56.271 -7.382,84.405c-0.187,2.106 1.932,3.898 3.895,3.898l189.918,0c5.013,0 5.022,-7.797 0,-7.797Z" style="fill:#3073ba;fill-rule:nonzero;"/><path d="M1030.94,1009.17l-125.776,0l-0.31,-7.797l126.086,0c2.513,0 3.763,1.949 3.763,3.899c0,1.949 -1.254,3.898 -3.763,3.898Z" style="fill:#8ab3df;fill-rule:nonzero;"/><path d="M1233.12,886.951l-331.403,0l7.395,-84.548l331.407,0l-7.399,84.548Z" style="fill:#3073ba;fill-rule:nonzero;"/><path d="M1227.25,880.509l-180.517,0l-0.835,-2.57c-0.463,-1.42 -1.783,-2.351 -3.243,-2.351c-0.162,0 -0.323,0.009 -0.489,0.035l-33.654,4.886l-70.064,0c-4.926,-9.602 -11.578,-25.24 -23.824,-47.744c-0.468,-0.857 -0.962,-1.752 -1.477,-2.692l1.853,-21.228l318.522,0l-6.272,71.664Z" style="fill:#e2edf9;fill-rule:nonzero;"/><path d="M908.727,880.509l318.518,0l6.272,-71.664l-318.522,0l-6.268,71.664Zm330.279,12.885l-344.295,0l8.527,-97.438l344.291,0l-8.523,97.438Z" style="fill:#0c2b34;fill-rule:nonzero;"/><path d="M976.563,856.021l-0.586,6.7l-27.941,0l3.16,-36.088l27.268,0l-0.586,6.705l-18.968,0l-0.686,7.836l16.752,0l-0.568,6.495l-16.752,0l-0.73,8.352l19.637,0Z" style="fill:#3073ba;fill-rule:nonzero;"/><path d="M1005,862.721l-7.618,-12.526l-9.654,12.526l-9.585,0l14.952,-18.356l-11.128,-17.732l9.484,0l7.277,11.705l9.17,-11.705l9.021,0l-14.104,17.426l11.827,18.662l-9.642,0Z" style="fill:#3073ba;fill-rule:nonzero;"/><path d="M1027.56,833.438l-11.547,0l0.594,-6.805l31.451,0l-0.599,6.805l-11.547,0l-2.561,29.283l-8.352,0l2.561,-29.283Z" style="fill:#3073ba;fill-rule:nonzero;"/><path d="M1072.68,835.06c-1.211,-1.08 -3.073,-1.622 -5.582,-1.622l-6.805,0l-1.101,12.583l6.805,0c2.509,0 4.462,-0.551 5.865,-1.656c1.403,-1.097 2.194,-2.64 2.365,-4.633c0.179,-2.033 -0.337,-3.584 -1.547,-4.672Zm-0.306,27.661l-6.084,-10.052l-7.679,0l-0.879,10.052l-8.352,0l3.156,-36.088l15.62,0c3.199,0 5.927,0.538 8.186,1.595c2.26,1.067 3.942,2.584 5.044,4.542c1.101,1.962 1.53,4.278 1.293,6.962c-0.231,2.679 -1.079,4.991 -2.534,6.927c-1.46,1.945 -3.418,3.427 -5.883,4.462l7.08,11.6l-8.968,0Z" style="fill:#3073ba;fill-rule:nonzero;"/><path d="M1109.64,848.643l-4.515,-13.811l-6.931,13.811l11.446,0Zm2.072,6.346l-16.753,0l-3.872,7.732l-8.557,0l19.243,-36.088l8.247,0l12.977,36.088l-8.763,0l-2.522,-7.732Z" style="fill:#3073ba;fill-rule:nonzero;"/><path d="M1133.69,860.942c-2.832,-1.599 -4.973,-3.815 -6.424,-6.652c-1.456,-2.836 -2.028,-6.04 -1.714,-9.615c0.315,-3.571 1.447,-6.779 3.392,-9.615c1.954,-2.832 4.484,-5.048 7.596,-6.648c3.112,-1.6 6.525,-2.399 10.236,-2.399c3.125,0 5.904,0.55 8.334,1.652c2.43,1.097 4.415,2.679 5.953,4.742l-5.795,4.947c-2.194,-2.814 -5.096,-4.222 -8.702,-4.222c-2.233,0 -4.27,0.485 -6.11,1.469c-1.836,0.974 -3.326,2.342 -4.458,4.095c-1.132,1.757 -1.792,3.75 -1.989,5.979c-0.196,2.238 0.118,4.231 0.944,5.983c0.827,1.753 2.076,3.121 3.742,4.1c1.665,0.974 3.619,1.468 5.852,1.468c3.606,0 6.757,-1.429 9.445,-4.278l4.93,4.943c-1.902,2.097 -4.174,3.697 -6.814,4.799c-2.64,1.097 -5.524,1.647 -8.649,1.647c-3.68,0 -6.932,-0.8 -9.769,-2.395Z" style="fill:#3073ba;fill-rule:nonzero;"/><path d="M1173.71,833.438l-11.547,0l0.595,-6.805l31.45,0l-0.599,6.805l-11.547,0l-2.561,29.283l-8.352,0l2.561,-29.283Z" style="fill:#3073ba;fill-rule:nonzero;"/><rect x="570.599" y="1217.53" width="898.732" height="502.492" style="fill:#3073ba;fill-rule:nonzero;"/><rect x="504.254" y="1217.53" width="83.814" height="502.492" style="fill:#3073ba;fill-rule:nonzero;"/><rect x="504.254" y="1262" width="66.345" height="458.026" style="fill:#6698d0;fill-rule:nonzero;"/><rect x="486.658" y="1217.53" width="920.279" height="44.466" style="fill:#3073ba;fill-rule:nonzero;"/><rect x="504.254" y="1227.12" width="66.345" height="34.873" style="fill:#9ec1e6;fill-rule:nonzero;"/><rect x="469.071" y="1217.53" width="35.183" height="502.492" style="fill:#3073ba;fill-rule:nonzero;"/><path d="M504.254,1720.02l-35.183,0l0,-492.899l35.183,0l0,492.899Z" style="fill:#8ab3df;fill-rule:nonzero;"/><rect x="1431.47" y="1217.53" width="83.814" height="502.492" style="fill:#3073ba;fill-rule:nonzero;"/><path d="M1515.29,1720.02l-45.956,0l0,-492.899l45.956,0l0,492.899Z" style="fill:#6698d0;fill-rule:nonzero;"/><rect x="1460.38" y="1188.56" width="76.026" height="38.57" style="fill:#3073ba;fill-rule:nonzero;"/><path d="M1536.41,1227.12l-67.075,0l0,-9.593l-8.951,0l0,-28.977l76.026,0l0,38.57Z" style="fill:#6698d0;fill-rule:nonzero;"/><rect x="992.62" y="1285.99" width="379.675" height="434.036" style="fill:#3073ba;fill-rule:nonzero;"/><rect x="1372.3" y="1285.99" width="23.99" height="434.036" style="fill:#3073ba;fill-rule:nonzero;"/><rect x="1016.61" y="1428.57" width="331.695" height="100.405" style="fill:#3073ba;fill-rule:nonzero;"/><rect x="1016.61" y="1309.65" width="331.695" height="100.401" style="fill:#3073ba;fill-rule:nonzero;"/><rect x="1016.61" y="1547.49" width="331.695" height="100.405" style="fill:#3073ba;fill-rule:nonzero;"/><rect x="1396.29" y="1217.53" width="35.188" height="502.492" style="fill:#3073ba;fill-rule:nonzero;"/><path d="M1469.33,1720.02l-37.858,0l0,-492.899l37.858,0l0,492.899Z" style="fill:#72a1d6;fill-rule:nonzero;"/><rect x="1460.38" y="1217.53" width="8.951" height="9.593" style="fill:#72a1d6;fill-rule:nonzero;"/><path d="M1396.29,1720.02l0,-434.036l-23.989,0l0,434.036l0,-434.036l-379.676,0l0,434.036l-37.831,0l-0.389,-3.719l-0.752,-7.176l6.425,-0.997l-1.259,-16.792l-4.742,0.756l-30.555,-430.098l472.768,0l0,458.026Zm-475.062,0l-238.362,0l1.333,-5.262l6.556,0.874l3.531,-16.464l-3.614,-0.463l90.016,-333.605l26.359,-81.013l7.439,-22.093l5.511,0l24.479,82.835l5.394,18.261c3.763,12.731 5.721,26.022 5.214,39.348c-0.341,8.99 0.087,19.545 1.127,31.227c7.465,84.016 46.455,226.4 57.307,264.913l-4.716,0.756l5.966,15.8l4.838,-0.747l1.622,5.633Zm-269.533,0l-63.622,0l0,-458.026l124.251,0c-0.988,16.119 -2.006,31.674 -2.937,45.45c-0.896,13.238 -1.714,24.829 -2.356,33.718c-0.813,11.294 -3.497,22.338 -7.78,32.762c-2.985,7.26 -6.717,17.194 -10.572,29.593c-6.128,19.729 -12.557,45.681 -16.739,76.979c-8.519,63.797 -18.099,177.607 -21.005,213.104l-4.917,-0.629l-0.713,16.591l7.312,0.974l-0.577,5.949l-0.345,3.535Z" style="fill:#437ec0;fill-rule:nonzero;"/><rect x="570.599" y="1262" width="17.469" height="458.026" style="fill:#72a1d6;fill-rule:nonzero;"/><path d="M1396.29,1262l-472.768,0l-2.478,-34.873l475.246,0l0,34.873Zm-576.293,0l-5.511,0l2.932,-8.715l2.579,8.715Zm-107.673,0l-141.72,0l0,-34.873l143.748,0c-0.634,11.622 -1.325,23.387 -2.028,34.873Z" style="fill:#a7c6e8;fill-rule:nonzero;"/><path d="M1372.3,1720.02l-379.676,0l0,-434.036l379.676,0l0,434.036Zm-355.686,-72.127l331.695,0l0,-100.405l-331.695,0l0,100.405Zm0,-118.927l331.695,0l0,-100.405l-331.695,0l0,100.405Zm0,-118.923l331.695,0l0,-100.401l-331.695,0l0,100.401Z" style="fill:#95bbe4;fill-rule:nonzero;"/><rect x="1372.3" y="1285.99" width="23.99" height="434.036" style="fill:#6395cf;fill-rule:nonzero;"/><path d="M1348.31,1528.97l-331.695,0l0,-100.405l331.695,0l0,100.405Zm-176.404,-39.287l11.516,0c6.027,0 10.914,-4.887 10.914,-10.914c0,-6.031 -4.887,-10.913 -10.914,-10.913l-11.516,0c-2.094,0 -4.052,0.59 -5.712,1.613c-3.121,1.918 -5.201,5.367 -5.201,9.3c0,3.934 2.08,7.378 5.201,9.301c1.66,1.023 3.618,1.613 5.712,1.613Z" style="fill:#b9d3ee;fill-rule:nonzero;"/><path d="M1348.31,1410.05l-331.695,0l0,-100.401l331.695,0l0,100.401Zm-176.404,-39.287l11.516,0c6.027,0 10.914,-4.887 10.914,-10.918c0,-6.027 -4.887,-10.913 -10.914,-10.913l-11.516,0c-2.094,0 -4.052,0.59 -5.712,1.612c-3.121,1.923 -5.201,5.367 -5.201,9.301c0,3.933 2.08,7.382 5.201,9.305c1.66,1.023 3.618,1.613 5.712,1.613Z" style="fill:#b9d3ee;fill-rule:nonzero;"/><path d="M1348.31,1647.9l-331.695,0l0,-100.405l331.695,0l0,100.405Zm-176.404,-39.291l11.516,0c6.027,0 10.914,-4.887 10.914,-10.914c0,-6.027 -4.887,-10.913 -10.914,-10.913l-11.516,0c-2.094,0 -4.052,0.59 -5.712,1.613c-3.121,1.923 -5.201,5.367 -5.201,9.3c0,4.943 3.282,9.113 7.783,10.459c0.005,0 0.009,0 0.014,0.004l0.008,0c0.984,0.293 2.028,0.451 3.108,0.451Z" style="fill:#b9d3ee;fill-rule:nonzero;"/><rect x="1396.29" y="1227.12" width="35.188" height="492.899" style="fill:#93bbe3;fill-rule:nonzero;"/><rect x="440.155" y="1188.56" width="1020.23" height="38.57" style="fill:#3073ba;fill-rule:nonzero;"/><path d="M1460.38,1227.12l-539.341,0l-2.736,-38.57l542.077,0l0,38.57Zm-746.033,0l-274.192,0l0,-38.57l276.071,0c-0.511,12.225 -1.158,25.301 -1.879,38.57Z" style="fill:#9ec1e6;fill-rule:nonzero;"/><path d="M1183.42,1348.93l-11.516,0c-6.027,0 -10.913,4.886 -10.913,10.913c0,6.031 4.886,10.918 10.913,10.918l11.516,0c6.027,0 10.914,-4.887 10.914,-10.918c0,-6.027 -4.887,-10.913 -10.914,-10.913Z" style="fill:#3073ba;fill-rule:nonzero;"/><path d="M1183.42,1467.86l-11.516,0c-6.027,0 -10.913,4.882 -10.913,10.913c0,6.027 4.886,10.914 10.913,10.914l11.516,0c6.027,0 10.914,-4.887 10.914,-10.914c0,-6.031 -4.887,-10.913 -10.914,-10.913Z" style="fill:#3073ba;fill-rule:nonzero;"/><path d="M1183.42,1586.78l-11.516,0c-6.027,0 -10.913,4.886 -10.913,10.913c0,6.027 4.886,10.914 10.913,10.914l11.516,0c6.027,0 10.914,-4.887 10.914,-10.914c0,-6.027 -4.887,-10.913 -10.914,-10.913Z" style="fill:#3073ba;fill-rule:nonzero;"/><path d="M1166.19,1369.15c-3.121,-1.923 -5.201,-5.372 -5.201,-9.305c0,-3.934 2.08,-7.378 5.201,-9.301c-3.121,1.923 -5.201,5.367 -5.201,9.301c0,3.933 2.08,7.382 5.201,9.305Z" style="fill:#cbdcf2;fill-rule:nonzero;"/><path d="M1171.9,1370.76c-2.098,0 -4.056,-0.59 -5.716,-1.613c-3.121,-1.923 -5.201,-5.372 -5.201,-9.305c0,-3.934 2.08,-7.378 5.201,-9.301c1.66,-1.022 3.618,-1.612 5.716,-1.612c6.023,0 10.914,4.886 10.914,10.913c0,6.031 -4.891,10.918 -10.914,10.918Z" style="fill:#6697d0;fill-rule:nonzero;"/><path d="M1166.19,1488.07c-3.121,-1.923 -5.201,-5.367 -5.201,-9.301c0,-3.933 2.08,-7.382 5.201,-9.3c-3.121,1.918 -5.201,5.367 -5.201,9.3c0,3.934 2.08,7.378 5.201,9.301Z" style="fill:#cbdcf2;fill-rule:nonzero;"/><path d="M1171.9,1489.68c-2.098,0 -4.056,-0.59 -5.716,-1.613c-3.121,-1.923 -5.201,-5.367 -5.201,-9.301c0,-3.933 2.08,-7.382 5.201,-9.3c1.66,-1.023 3.618,-1.613 5.716,-1.613c6.023,0 10.914,4.882 10.914,10.913c0,6.027 -4.891,10.914 -10.914,10.914Z" style="fill:#6697d0;fill-rule:nonzero;"/><path d="M1168.79,1608.15l-0.008,0l0.008,0Zm-0.022,-0.004c-4.501,-1.346 -7.783,-5.516 -7.783,-10.459c0,-3.933 2.08,-7.377 5.201,-9.3c-3.121,1.923 -5.201,5.367 -5.201,9.3c0,4.939 3.282,9.113 7.783,10.459Z" style="fill:#cbdcf2;fill-rule:nonzero;"/><path d="M1171.9,1608.61c-1.084,0 -2.124,-0.158 -3.112,-0.451l-0.008,0c-0.005,-0.004 -0.009,-0.004 -0.014,-0.004c-4.501,-1.346 -7.783,-5.52 -7.783,-10.459c0,-3.933 2.08,-7.377 5.201,-9.3c1.66,-1.023 3.618,-1.613 5.716,-1.613c6.023,0 10.914,4.886 10.914,10.913c0,6.032 -4.891,10.914 -10.914,10.914Z" style="fill:#6697d0;fill-rule:nonzero;"/><path d="M800.407,748.942c-6.236,8.824 7.531,36.905 7.531,36.905l-62.027,7.504l12.137,-67.612c0,0 49.732,12.788 42.359,23.203Z" style="fill:#e87e66;fill-rule:nonzero;"/><path d="M799.428,761.595c0,-0.004 -0.004,-0.004 -0.004,-0.004c-0.651,-3.484 -0.874,-6.766 -0.337,-9.388l0.005,0c-0.538,2.622 -0.31,5.909 0.336,9.392Z" style="fill:#b9bcbc;fill-rule:nonzero;"/><path d="M799.424,761.591c-3.951,-2.382 -7.548,-5.534 -10.738,-8.956c0.847,0.035 1.691,0.048 2.534,0.048c2.658,0 5.289,-0.157 7.867,-0.48c-0.537,2.622 -0.314,5.904 0.337,9.388Z" style="fill:#b36451;fill-rule:nonzero;"/><path d="M949.841,1672.76l6.609,63.111l-29.108,5.463l-17.496,-60.917l39.995,-7.657Z" style="fill:#e87e66;fill-rule:nonzero;"/><path d="M955.807,1725.08l-34.217,6.853c-1.294,0.253 -2.233,1.372 -2.26,2.688l-0.607,29.077c-0.074,2.579 1.958,4.729 4.537,4.803l0.987,-0.078c12.29,-2.684 23.125,-5.56 38.487,-8.61c18.125,-3.628 13.96,-0.538 35.328,-4.506c12.871,-2.4 12.294,-17.465 6.708,-17.094c-25.541,1.858 -29.632,-5.144 -41.03,-12.141c-2.435,-1.294 -5.258,-1.648 -7.933,-0.992Z" style="fill:#0c2b34;fill-rule:nonzero;"/><path d="M921.402,1720.66l-0.179,-0.634l0.179,0.634Z" style="fill:#bbbebe;fill-rule:nonzero;"/><path d="M921.223,1720.02l-1.622,-5.633l1.622,5.633Zm33.177,-3.719l-0.752,-7.176l0.752,7.176Z" style="fill:#2a6fb7;fill-rule:nonzero;"/><path d="M921.402,1720.66l-0.179,-0.634l-1.622,-5.633l34.047,-5.262l0.752,7.176l-32.998,4.353Z" style="fill:#b36451;fill-rule:nonzero;"/><path d="M698.066,1659.97l-19.811,78.234l-27.946,-3.93l7.421,-76.541l40.336,2.237Z" style="fill:#e87e66;fill-rule:nonzero;"/><path d="M681.952,1728.37l-34.812,-2.452c-1.315,-0.092 -2.517,0.739 -2.889,1.998l-8.29,27.879c-0.752,2.465 0.638,5.079 3.103,5.831l0.974,0.188c12.566,0.664 23.772,0.765 39.392,1.883c18.44,1.303 13.606,3.182 35.262,5.018c13.046,1.092 16.481,-13.588 10.996,-14.707c-25.122,-4.974 -27.215,-12.815 -36.354,-22.574c-2.002,-1.893 -4.629,-2.981 -7.382,-3.064Z" style="fill:#0c2b34;fill-rule:nonzero;"/><path d="M682.573,1721.17l0.288,-1.145l-0.288,1.145Z" style="fill:#bbbebe;fill-rule:nonzero;"/><path d="M682.861,1720.02l1.333,-5.262l-1.333,5.262Zm-30.826,-3.535l0.577,-5.949l-0.577,5.949Z" style="fill:#2a6fb7;fill-rule:nonzero;"/><path d="M682.573,1721.17l-30.538,-4.68l0.577,-5.949l31.582,4.222l-1.333,5.262l-0.293,1.145" style="fill:#b36451;fill-rule:nonzero;"/><path d="M728.293,1061.09c0,0 -9.637,27.963 -11.036,96.038c-0.834,40.682 -4.812,105.078 -7.875,150.322c-0.896,13.238 -1.714,24.829 -2.356,33.718c-0.813,11.294 -3.497,22.338 -7.78,32.762c-2.985,7.26 -6.717,17.194 -10.572,29.593c-6.128,19.729 -12.557,45.681 -16.739,76.979c-10.184,76.262 -21.884,223.983 -21.884,223.983l37.736,4.899l92.896,-344.278l99.002,-304.287l-151.392,0.271Z" style="fill:#0c2b34;fill-rule:nonzero;"/><path d="M807.042,1284.09l7.189,-22.093l0.25,0l-7.439,22.093Z" style="fill:#2a6fb7;fill-rule:nonzero;"/><path d="M814.481,1262l-0.25,0l3.016,-9.274l0.166,0.559l-2.932,8.715Z" style="fill:#85a1c8;fill-rule:nonzero;"/><path d="M798.471,1309.55c3.951,-52.106 -4.427,-96.524 -11.263,-122.507c12.185,16.455 21.079,35.345 26.962,55.253l3.077,10.424l-3.016,9.274l-7.189,22.093l-8.571,25.463Z" style="fill:#021e27;fill-rule:nonzero;"/><path d="M909.344,1062.46l45.423,639.436l-38.444,6.538c0,0 -51.424,-176.947 -60.117,-274.769c-1.04,-11.682 -1.468,-22.237 -1.127,-31.227c0.507,-13.326 -1.451,-26.617 -5.214,-39.348l-5.394,-18.261l-30.301,-102.533c-6.363,-21.525 -16.241,-41.861 -29.995,-59.212c-15.756,-19.878 -35.248,-58.4 -27.159,-122.481l142.271,-9.851l10.057,11.708Z" style="fill:#0c2b34;fill-rule:nonzero;"/><path d="M767.147,1022.1c0,0 22.089,-4.524 29.493,-3.829c6.193,0.586 23.649,7.762 23.649,7.762c7.378,2.422 9.436,11.875 3.737,17.146c0,0 -12.133,15.555 -18.195,16.836c-12.102,2.556 -46.809,-16.01 -46.809,-16.01l8.125,-21.905Z" style="fill:#e87e66;fill-rule:nonzero;"/><path d="M766.063,1011.52l-12.268,39.567l11.77,0.979l10.796,-34.572l-10.298,-5.974Z" style="fill:#0c2b34;fill-rule:nonzero;"/><path d="M693.429,823.062c-5.629,-7.714 -17.674,-6.11 -21.717,2.54c-13.768,29.453 -48.527,107.555 -48.662,145.465c-0.171,47.277 138.77,75.257 138.77,75.257l8.396,-27.167l-95.607,-58.736l27.5,-64.794c0,0 6.84,-51.302 -8.68,-72.565Z" style="fill:#3073ba;fill-rule:nonzero;"/><path d="M719.46,1035.46c-40.821,-12.251 -96.432,-34.423 -96.41,-64.322l0,-0.07c0.135,-37.91 34.894,-116.012 48.662,-145.465c0.371,-0.791 0.808,-1.526 1.302,-2.199c-1.175,5.302 -1.232,10.87 0.031,16.373l9.899,101.012l-8.335,19.633l10.914,6.704l5.769,58.885c8.295,3.111 16.586,5.882 24.449,8.308l1.665,-7.522c0.743,3.13 1.425,6.01 2.054,8.663Z" style="fill:#266eb6;fill-rule:nonzero;"/><path d="M682.944,940.788l9.017,-21.254l0.004,0l-9.021,21.254Z" style="fill:#878b8c;fill-rule:nonzero;"/><path d="M682.944,940.788l-9.899,-101.012c0.017,0.087 0.039,0.17 0.061,0.257c7.207,30.398 13.453,56.722 18.855,79.501l-9.017,21.254Z" style="fill:#0c4e90;fill-rule:nonzero;"/><path d="M706.274,979.878l-20.751,-12.753l20.751,12.749l0,0.004Z" style="fill:#878b8c;fill-rule:nonzero;"/><path d="M715.741,1034.32c-7.863,-2.426 -16.154,-5.197 -24.449,-8.308l-5.769,-58.885l20.751,12.753c4.707,19.838 8.335,35.135 11.132,46.918l-1.665,7.522Z" style="fill:#0c4e90;fill-rule:nonzero;"/><path d="M907.246,1062.13c0,0 -68.404,22.382 -180.448,4.262l-53.692,-226.361c-4.017,-16.922 4.497,-34.553 19.724,-42.958c23.064,-12.731 68.671,-24.733 158.66,-19.764c22.199,1.229 40.97,16.958 46.057,38.597l9.699,246.224Z" style="fill:#3073ba;fill-rule:nonzero;"/><path d="M727.581,786.865l6.84,-16.053c0,0 26.935,-13.605 72.695,-7.198l10.865,12.583c0,0 -51.201,1.246 -90.4,10.668Z" style="fill:#0c2b34;fill-rule:nonzero;"/><path d="M832.815,669.332c0.616,2.548 -0.232,4.93 -1.94,5.319c-1.709,0.389 -3.737,-1.451 -4.266,-3.946c-0.529,-2.496 0.232,-4.935 1.949,-5.297c1.722,-0.363 3.615,1.381 4.257,3.924Z" style="fill:#0c2b34;fill-rule:nonzero;"/><path d="M830.507,677.042l17.474,17.08c0,0 -5.603,6.285 -15.778,4.987l-1.696,-22.067Z" style="fill:#d85643;fill-rule:nonzero;"/><path d="M730.854,680.735c6.687,34.252 8.768,48.915 28.925,64.523c29.619,14.825 71.965,8.291 75.873,-27.176c3.531,-31.914 -7.972,-82.451 -44.405,-92.298c-25.975,-7.01 -52.696,7.819 -59.689,33.125c-1.967,7.11 -2.207,14.584 -0.704,21.826Z" style="fill:#e87e66;fill-rule:nonzero;"/><path d="M819.944,661.29c0.472,0 0.909,-0.222 1.175,-0.598c1.84,-2.937 5.022,-4.786 8.541,-4.974c0.764,0.017 1.385,-0.572 1.398,-1.329c-0.009,-0.76 -0.629,-1.381 -1.398,-1.411c-4.472,0.135 -8.536,2.434 -10.883,6.14c-0.424,0.63 -0.249,1.491 0.393,1.923l0.005,0.005l0.769,0.244Z" style="fill:#0c2b34;fill-rule:nonzero;"/><path d="M904.977,950.609c-0.756,-1.027 -1.503,-2.041 -2.246,-3.055l-1.211,-30.822c0.555,0.555 1.119,1.111 1.683,1.661l1.774,32.216Z" style="fill:#878b8c;fill-rule:nonzero;"/><path d="M902.731,947.554c-57.141,-78.242 -60.519,-122.516 -60.677,-125.217c1.932,10.026 7.199,19.008 10.446,25.428c14.397,28.448 29.96,49.986 49.02,68.967l1.211,30.822Z" style="fill:#0056a7;fill-rule:nonzero;"/><path d="M914.619,832.765c16.411,30.157 22.775,47.985 28.4,55.471c0.747,0.997 1.975,1.499 3.208,1.32l95.934,-13.933c1.643,-0.24 3.221,0.739 3.732,2.316l7.727,23.759c0.577,1.774 -0.38,3.684 -2.146,4.283l-89.946,30.484c-16.285,6.329 -34.776,3.147 -47.888,-8.4c-24.777,-21.809 -43.806,-46.052 -61.14,-80.3c-6.91,-13.654 -22.945,-38.894 3.392,-61.101c21.848,-18.422 47.835,26.088 58.727,46.101Z" style="fill:#3073ba;fill-rule:nonzero;"/><path d="M944.47,939.669c-11.167,0 -22.172,-3.977 -30.83,-11.604c-4.2,-3.693 -8.234,-7.46 -12.12,-11.333c-19.06,-18.981 -34.623,-40.519 -49.02,-68.967c-3.247,-6.42 -8.514,-15.402 -10.446,-25.428c-0.467,-2.426 -0.738,-4.908 -0.738,-7.434c-0.005,-9.235 3.619,-18.999 14.576,-28.239c3.61,-3.046 7.338,-4.37 11.088,-4.37c18.942,0 38.548,33.767 47.639,50.471c16.411,30.157 22.775,47.985 28.4,55.471c0.647,0.866 1.652,1.355 2.71,1.355c0.166,0 0.332,-0.013 0.498,-0.035l95.934,-13.933c0.166,-0.026 0.327,-0.035 0.489,-0.035c1.46,0 2.78,0.931 3.243,2.351l7.727,23.759c0.114,0.349 0.166,0.699 0.166,1.044c0.005,1.425 -0.891,2.758 -2.312,3.239l-89.946,30.484c-5.529,2.151 -11.315,3.204 -17.058,3.204Z" style="fill:#437ec0;fill-rule:nonzero;"/><path d="M1044.93,877.891l19.781,-23.234c2.146,-2.522 4.992,-4.362 8.178,-5.288l46.529,-13.527c1.573,-0.459 3.251,0.267 3.99,1.731c0.9,1.774 0.096,3.938 -1.748,4.694l-19.231,7.871c-1.376,0.564 -2.229,1.949 -2.106,3.431l0.948,11.63c0.586,7.133 -3.365,13.859 -9.877,16.822l-13.995,6.368c-0.537,0.214 -1.075,0.429 -1.617,0.638l-24.003,8.073c-1.91,0.638 -3.955,-0.507 -4.41,-2.47l-3.169,-13.767c-0.24,-1.049 0.031,-2.15 0.73,-2.972Z" style="fill:#e87e66;fill-rule:nonzero;"/><path d="M1039.17,875.487l11.858,29.917c0.729,1.844 2.875,2.679 4.663,1.809l3.933,-1.918c1.596,-0.783 2.326,-2.658 1.674,-4.314l-11.302,-28.684c-0.581,-1.482 -2.115,-2.36 -3.689,-2.12l-4.484,0.686c-2.163,0.332 -3.457,2.588 -2.653,4.624Z" style="fill:#0c2b34;fill-rule:nonzero;"/><path d="M908.797,1699.34l5.966,15.8l45.31,-7.006l-1.259,-16.792l-50.017,7.998Z" style="fill:#3073ba;fill-rule:nonzero;"/><path d="M914.763,1715.14l-5.966,-15.8l50.017,-7.998l1.259,16.792l-6.425,0.997l-34.047,5.262l-4.838,0.747Z" style="fill:#1f68b3;fill-rule:nonzero;"/><path d="M646.013,1692.98l-0.713,16.591l45.45,6.07l3.531,-16.464l-48.268,-6.197Z" style="fill:#3073ba;fill-rule:nonzero;"/><path d="M690.75,1715.64l-6.556,-0.874l-31.582,-4.222l-7.312,-0.974l0.713,-16.591l48.268,6.197l-3.531,16.464Z" style="fill:#1f68b3;fill-rule:nonzero;"/><path d="M754.294,746.294c0,0 5.082,-7.212 20.379,1.132c0,0 21.713,-24.31 22.387,-47.076c0,0 16.044,-2.967 14.698,-13.334c-1.342,-10.363 -8.977,-23.92 -7.365,-33.317c1.617,-9.393 17.212,-34.06 3.956,-45.008c-13.252,-10.953 -14.812,2.093 -22.316,3.505c-7.5,1.403 -52.823,3.024 -58.618,35.104c0,0 -22.845,23.837 -3.025,54.488c19.821,30.647 29.904,44.506 29.904,44.506Z" style="fill:#0c2b34;fill-rule:nonzero;"/><path d="M797.759,678.965l39.654,-22.032c0,0 9.974,25.944 5.192,27.255c-4.781,1.307 -11.066,-19.069 -11.066,-19.069l-28.238,13.47l-5.542,0.376Z" style="fill:#3073ba;fill-rule:nonzero;"/><path d="M841.193,684.07c-0.367,0 -0.817,-0.402 -1.319,-1.088c0.485,0.498 0.965,0.865 1.437,1.075c-0.039,0.008 -0.078,0.013 -0.118,0.013Z" style="fill:#fbfcfc;fill-rule:nonzero;"/><path d="M841.311,684.057c-0.472,-0.21 -0.952,-0.577 -1.437,-1.075c-2.863,-3.934 -7.343,-17.172 -7.343,-17.172l3.007,-1.788c0,0 8.19,18.339 5.94,19.956c-0.053,0.039 -0.11,0.066 -0.167,0.079Z" style="fill:#b3cfec;fill-rule:nonzero;"/><path d="M803.152,679.76c6.036,4.03 10.197,10.232 11.56,17.229c1.735,9.296 -7.01,13.094 -15.524,9.803c-7.718,-2.976 -17.828,-11.402 -15.699,-20.415c2.133,-9.02 12.229,-11.464 19.663,-6.617Z" style="fill:#e87e66;fill-rule:nonzero;"/><path d="M1237.49,354.344c0,-30.269 -24.538,-54.807 -54.807,-54.807c-5.475,0 -10.751,0.827 -15.742,2.321c0.803,-5.498 1.233,-11.113 1.233,-16.829c0,-64.103 -51.968,-116.066 -116.066,-116.066c-7.307,0 -14.45,0.706 -21.38,1.997c-17.84,-29.191 -49.909,-48.748 -86.629,-48.748c-55.572,0 -100.654,44.657 -101.48,100.035c-0.566,-0.01 -1.118,-0.087 -1.688,-0.087c-51.635,0 -93.496,41.861 -93.496,93.496c0,51.639 41.861,93.501 93.496,93.501l343.362,0l-0.068,-0.078c29.549,-0.827 53.265,-24.983 53.265,-54.735Z" style="fill:#b9d3ee;fill-rule:nonzero;"/></g><g><path d="M232.746,892.329c19.558,0.303 35.879,7.722 48.729,22.56c1.756,2.026 1.541,4.838 -0.417,6.521c-1.867,1.603 -4.643,1.399 -6.36,-0.594c-4.672,-5.424 -10.089,-9.916 -16.435,-13.246c-19.9,-10.443 -43.702,-7.883 -60.845,6.621c-2.363,1.998 -4.466,4.317 -6.595,6.575c-1.845,1.957 -4.567,2.269 -6.517,0.589c-1.926,-1.66 -2.071,-4.485 -0.315,-6.521c10.77,-12.484 24.321,-19.862 40.654,-22.118c1.28,-0.177 2.569,-0.315 3.858,-0.373c1.413,-0.064 2.829,-0.014 4.243,-0.014Z" style="fill:#296acc;fill-rule:nonzero;"/><path d="M234.362,910.462c12.362,0.32 23.983,5.6 33.128,16.168c1.804,2.085 1.592,4.775 -0.41,6.495c-1.906,1.638 -4.664,1.416 -6.426,-0.622c-4.771,-5.523 -10.555,-9.575 -17.606,-11.478c-14.37,-3.88 -26.793,-0.342 -37.198,10.295c-0.387,0.395 -0.743,0.82 -1.111,1.234c-1.717,1.934 -4.495,2.194 -6.373,0.594c-1.979,-1.686 -2.185,-4.473 -0.453,-6.514c4.075,-4.803 8.926,-8.622 14.571,-11.424c6.397,-3.175 13.177,-4.718 21.878,-4.748Z" style="fill:#296acc;fill-rule:nonzero;"/><path d="M254.7,941.388c-0.002,1.883 -1.14,3.549 -2.89,4.23c-1.761,0.687 -3.718,0.23 -5.037,-1.264c-1.943,-2.201 -4.185,-3.981 -6.904,-5.133c-7.421,-3.144 -15.608,-1.192 -21.127,5.043c-1.309,1.479 -2.942,2.015 -4.83,1.442c-1.817,-0.55 -2.866,-1.859 -3.146,-3.733c-0.197,-1.32 0.201,-2.493 1.05,-3.517c9.452,-11.397 26.841,-13.01 38.213,-3.509c1.292,1.08 2.506,2.288 3.576,3.586c0.628,0.763 0.899,1.821 1.332,2.746l-0.237,0.109Z" style="fill:#296acc;fill-rule:nonzero;"/><path d="M232.731,965.132c-5.07,0.002 -9.098,-4.021 -9.094,-9.086c0.003,-4.985 4.054,-9.038 9.054,-9.058c5.024,-0.02 9.1,4.067 9.088,9.11c-0.014,5.021 -4.03,9.032 -9.048,9.034Z" style="fill:#296acc;fill-rule:nonzero;"/></g><g><path d="M1769.93,762.717c19.557,0.304 35.878,7.722 48.728,22.561c1.756,2.026 1.541,4.838 -0.417,6.52c-1.867,1.604 -4.643,1.4 -6.36,-0.594c-4.672,-5.424 -10.088,-9.916 -16.435,-13.246c-19.9,-10.443 -43.701,-7.882 -60.845,6.622c-2.363,1.998 -4.465,4.316 -6.595,6.574c-1.844,1.957 -4.566,2.27 -6.517,0.59c-1.925,-1.66 -2.071,-4.486 -0.314,-6.522c10.77,-12.483 24.321,-19.862 40.653,-22.118c1.28,-0.177 2.569,-0.315 3.859,-0.372c1.412,-0.065 2.828,-0.015 4.243,-0.015Z" style="fill:#296acc;fill-rule:nonzero;"/><path d="M1771.55,780.85c12.363,0.32 23.983,5.601 33.129,16.169c1.803,2.084 1.591,4.774 -0.411,6.494c-1.905,1.638 -4.664,1.417 -6.425,-0.621c-4.772,-5.523 -10.556,-9.575 -17.606,-11.479c-14.371,-3.879 -26.794,-0.341 -37.198,10.296c-0.387,0.394 -0.744,0.819 -1.112,1.234c-1.717,1.933 -4.494,2.194 -6.372,0.594c-1.98,-1.686 -2.185,-4.474 -0.454,-6.514c4.075,-4.803 8.926,-8.623 14.571,-11.425c6.397,-3.174 13.178,-4.718 21.878,-4.748Z" style="fill:#296acc;fill-rule:nonzero;"/><path d="M1791.88,811.777c-0.002,1.882 -1.139,3.548 -2.889,4.23c-1.762,0.687 -3.719,0.23 -5.037,-1.265c-1.944,-2.2 -4.186,-3.98 -6.904,-5.132c-7.421,-3.145 -15.608,-1.192 -21.128,5.042c-1.308,1.479 -2.942,2.015 -4.83,1.443c-1.817,-0.551 -2.865,-1.86 -3.145,-3.733c-0.197,-1.32 0.201,-2.493 1.049,-3.517c9.453,-11.397 26.842,-13.011 38.213,-3.509c1.292,1.079 2.507,2.288 3.576,3.586c0.628,0.762 0.9,1.821 1.332,2.746l-0.237,0.109Z" style="fill:#296acc;fill-rule:nonzero;"/><path d="M1769.92,835.521c-5.07,0.002 -9.097,-4.021 -9.094,-9.087c0.003,-4.985 4.054,-9.037 9.054,-9.057c5.024,-0.02 9.1,4.067 9.088,9.109c-0.013,5.022 -4.03,9.033 -9.048,9.035Z" style="fill:#296acc;fill-rule:nonzero;"/></g><g><rect x="845.677" y="226.138" width="251.228" height="217.414" style="fill:#182f36;fill-rule:nonzero;"/><path d="M1099.65,382.482l-186.509,0c-3.762,0 -6.81,3.052 -6.81,6.814l0,45.134c0,3.762 3.048,6.814 6.81,6.814l186.509,0c3.763,0 6.814,-3.052 6.814,-6.814l0,-45.134c0,-3.762 -3.051,-6.814 -6.814,-6.814Z" style="fill:#3e75bb;fill-rule:nonzero;"/><path d="M1099.65,441.244l-68.172,0c3.763,0 6.81,-3.052 6.81,-6.814l0,-45.134c0,-3.762 -3.047,-6.814 -6.81,-6.814l-118.337,0l186.509,0c3.763,0 6.814,3.052 6.814,6.814l0,45.134c0,3.762 -3.051,6.814 -6.814,6.814Z" style="fill:#2b65b0;fill-rule:nonzero;"/><path d="M1031.47,382.482l-186.509,0c-3.762,0 -6.813,3.052 -6.813,6.814l0,45.134c0,3.762 3.051,6.814 6.813,6.814l186.509,0c3.763,0 6.81,-3.052 6.81,-6.814l0,-45.134c0,-3.762 -3.047,-6.814 -6.81,-6.814Z" style="fill:#3e75bb;fill-rule:nonzero;"/><path d="M1006.19,424.213c-6.822,0 -12.35,-5.528 -12.35,-12.35c0,-6.818 5.528,-12.346 12.35,-12.346c6.818,0 12.346,5.528 12.346,12.346c0,6.822 -5.528,12.35 -12.346,12.35Z" style="fill:#719ad1;fill-rule:nonzero;"/><path d="M1012.47,411.863c0,3.469 -2.812,6.28 -6.281,6.28c-3.469,0 -6.28,-2.811 -6.28,-6.28c0,-3.469 2.811,-6.281 6.28,-6.281c3.469,0 6.281,2.812 6.281,6.281Z" style="fill:#3e75bb;fill-rule:nonzero;"/><rect x="965.68" y="404.838" width="14.058" height="14.049" style="fill:#719ad1;fill-rule:nonzero;"/><path d="M1099.65,321.124l-186.509,0c-3.762,0 -6.81,3.052 -6.81,6.814l0,45.138c0,3.762 3.048,6.814 6.81,6.814l186.509,0c3.763,0 6.814,-3.052 6.814,-6.814l0,-45.138c0,-3.762 -3.051,-6.814 -6.814,-6.814Z" style="fill:#3e75bb;fill-rule:nonzero;"/><path d="M1099.65,379.89l-68.172,0c3.763,0 6.81,-3.052 6.81,-6.814l0,-45.138c0,-3.762 -3.047,-6.814 -6.81,-6.814l-118.337,0l186.509,0c3.763,0 6.814,3.052 6.814,6.814l0,45.138c0,3.762 -3.051,6.814 -6.814,6.814Z" style="fill:#2b65b0;fill-rule:nonzero;"/><path d="M1100.01,319.456l-68.172,0c3.762,0 6.81,-3.051 6.81,-6.813l0,-45.138c0,-3.763 -3.048,-6.814 -6.81,-6.814l-118.337,0l186.509,0c3.762,0 6.814,3.051 6.814,6.814l0,45.138c0,3.762 -3.052,6.813 -6.814,6.813Z" style="fill:#2b65b0;fill-rule:nonzero;"/><path d="M1098.37,258.28l-68.172,0c3.762,0 6.81,-3.051 6.81,-6.814l0,-45.137c0,-3.763 -3.048,-6.814 -6.81,-6.814l-118.337,0l186.509,0c3.762,0 6.813,3.051 6.813,6.814l0,45.137c0,3.763 -3.051,6.814 -6.813,6.814Z" style="fill:#2b65b0;fill-rule:nonzero;"/><path d="M1031.47,321.124l-186.509,0c-3.762,0 -6.813,3.052 -6.813,6.814l0,45.138c0,3.762 3.051,6.814 6.813,6.814l186.509,0c3.763,0 6.81,-3.052 6.81,-6.814l0,-45.138c0,-3.762 -3.047,-6.814 -6.81,-6.814Z" style="fill:#3e75bb;fill-rule:nonzero;"/><path d="M1031.84,260.691l-186.509,0c-3.763,0 -6.814,3.051 -6.814,6.814l0,45.138c0,3.762 3.051,6.813 6.814,6.813l186.509,0c3.762,0 6.81,-3.051 6.81,-6.813l0,-45.138c0,-3.763 -3.048,-6.814 -6.81,-6.814Z" style="fill:#3e75bb;fill-rule:nonzero;"/><path d="M1030.2,199.515l-186.509,0c-3.763,0 -6.814,3.051 -6.814,6.814l0,45.137c0,3.763 3.051,6.814 6.814,6.814l186.509,0c3.762,0 6.81,-3.051 6.81,-6.814l0,-45.137c0,-3.763 -3.048,-6.814 -6.81,-6.814Z" style="fill:#3e75bb;fill-rule:nonzero;"/><path d="M1006.19,362.855c-6.822,0 -12.35,-5.528 -12.35,-12.346c0,-6.822 5.528,-12.35 12.35,-12.35c6.818,0 12.346,5.528 12.346,12.35c0,6.818 -5.528,12.346 -12.346,12.346Z" style="fill:#719ad1;fill-rule:nonzero;"/><path d="M1012.47,350.509c0,3.469 -2.812,6.281 -6.281,6.281c-3.469,0 -6.28,-2.812 -6.28,-6.281c0,-3.469 2.811,-6.285 6.28,-6.285c3.469,0 6.281,2.816 6.281,6.285Z" style="fill:#3e75bb;fill-rule:nonzero;"/><path d="M1012.84,290.076c0,3.469 -2.811,6.28 -6.28,6.28c-3.469,0 -6.281,-2.811 -6.281,-6.28c0,-3.469 2.812,-6.285 6.281,-6.285c3.469,0 6.28,2.816 6.28,6.285Z" style="fill:#3e75bb;fill-rule:nonzero;"/><path d="M1011.2,228.899c0,3.469 -2.812,6.281 -6.28,6.281c-3.469,0 -6.281,-2.812 -6.281,-6.281c0,-3.469 2.812,-6.284 6.281,-6.284c3.468,0 6.28,2.815 6.28,6.284Z" style="fill:#3e75bb;fill-rule:nonzero;"/><rect x="965.68" y="343.48" width="14.058" height="14.054" style="fill:#719ad1;fill-rule:nonzero;"/><rect x="966.047" y="283.047" width="14.058" height="14.054" style="fill:#719ad1;fill-rule:nonzero;"/><rect x="964.405" y="221.871" width="14.058" height="14.054" style="fill:#719ad1;fill-rule:nonzero;"/></g><path d="M660.41,357.992l87.5,-43.75l-87.5,-43.75l0,87.5Z" style="fill:#0b2b34;"/><path d="M677.91,314.242l-344.246,0l0,145.176" style="fill:none;stroke:#0b2b34;stroke-width:29.17px;"/><path d="M1312.62,270.492l-87.5,43.75l87.5,43.75l0,-87.5Z" style="fill:#0b2b34;"/><path d="M1295.12,314.242l344.246,0l0,145.176" style="fill:none;stroke:#0b2b34;stroke-width:29.17px;"/><path d="M975.862,558.046l-31.25,62.5l-31.25,-62.5l62.5,0Z" style="fill:#0b2b34;"/><path d="M944.612,444.663l0,125.883" style="fill:none;stroke:#0b2b34;stroke-width:20.83px;"/><path d="M1046.34,559.28l-31.25,62.5l-31.25,-62.5l62.5,0Z" style="fill:#0b2b34;"/><path d="M1015.09,445.898l0,125.882" style="fill:none;stroke:#0b2b34;stroke-width:20.83px;"/><g><path d="M973.207,211.489c-18.868,17.309 -45.009,30.914 -73.753,38.329l-0.284,63.42c-0.13,29.018 11.399,55.271 34.266,78.031c15.026,14.953 30.824,24.231 38.839,28.397c0.345,-0.171 0.724,-0.374 1.096,-0.565l0,-207.464c-0.054,-0.049 -0.111,-0.098 -0.164,-0.148Z" style="fill:#9ec1e6;fill-rule:nonzero;"/><path d="M973.371,211.637l0,207.464c8.336,-4.337 23.487,-13.298 37.996,-27.483c23.069,-22.557 34.833,-48.703 34.962,-77.722l0.284,-63.422c-28.596,-7.648 -54.543,-21.431 -73.242,-38.837Z" style="fill:#9ec1e6;fill-rule:nonzero;"/><path d="M976.75,329.139l0,13.928c0,1.852 -1.509,3.393 -3.364,3.393c-1.885,0 -3.394,-1.541 -3.394,-3.393l0,-13.959c-2.861,-1.289 -4.872,-4.181 -4.872,-7.513c0,-4.558 3.708,-8.236 8.266,-8.236c4.558,0 8.237,3.678 8.237,8.236c0,3.363 -1.981,6.255 -4.873,7.544Zm-36.778,-26.09l0,49.131c0,5.473 66.799,5.473 66.799,0l0,-49.131l-66.799,0Z" style="fill:#fff;fill-rule:nonzero;"/><path d="M1000.92,299.546l-6.762,0l0,-3.308c0,-11.463 -9.327,-20.789 -20.788,-20.789c-11.463,0 -20.789,9.326 -20.789,20.789l0,3.308l-6.762,0l0,-3.308c0,-15.192 12.359,-27.551 27.551,-27.551c15.19,0 27.55,12.359 27.55,27.551l0,3.308Z" style="fill:#fff;fill-rule:nonzero;"/></g></g></svg>