<?xml version="1.0" encoding="UTF-8" standalone="no"?><!DOCTYPE svg PUBLIC "-//W3C//DTD SVG 1.1//EN" "http://www.w3.org/Graphics/SVG/1.1/DTD/svg11.dtd"><svg width="100%" height="100%" viewBox="0 0 40 40" version="1.1" xmlns="http://www.w3.org/2000/svg" xmlns:xlink="http://www.w3.org/1999/xlink" xml:space="preserve" xmlns:serif="http://www.serif.com/" style="fill-rule:evenodd;clip-rule:evenodd;stroke-linejoin:round;stroke-miterlimit:2;"><path d="M18,25c0,-1.657 -1.343,-3 -3,-3l-12,0c-1.657,0 -3,1.343 -3,3l0,12c0,1.657 1.343,3 3,3l12,0c1.657,0 3,-1.343 3,-3l0,-12Zm-2,0l0,12c0,0.552 -0.448,1 -1,1l-12,0c-0.552,0 -1,-0.448 -1,-1l0,-12c0,-0.552 0.448,-1 1,-1l12,0c0.552,0 1,0.448 1,1Zm-12,3l0,6c0,1.105 0.895,2 2,2l6,0c0.552,0 1,-0.448 1,-1c0,-0.552 -0.448,-1 -1,-1l-6,0l0,-6c0,-0.552 -0.448,-1 -1,-1c-0.552,0 -1,0.448 -1,1Zm17,4l16,0c0.796,0 1.559,-0.316 2.121,-0.879c0.563,-0.562 0.879,-1.325 0.879,-2.121l0,-26c0,-0.796 -0.316,-1.559 -0.879,-2.121c-0.562,-0.563 -1.325,-0.879 -2.121,-0.879l-26,0c-0.796,0 -1.559,0.316 -2.121,0.879c-0.563,0.562 -0.879,1.325 -0.879,2.121l0,16c0,0.552 0.448,1 1,1c0.552,0 1,-0.448 1,-1l0,-16c0,-0.265 0.105,-0.52 0.293,-0.707c0.187,-0.188 0.442,-0.293 0.707,-0.293l26,0c0.265,0 0.52,0.105 0.707,0.293c0.188,0.187 0.293,0.442 0.293,0.707l0,26c0,0.265 -0.105,0.52 -0.293,0.707c-0.187,0.188 -0.442,0.293 -0.707,0.293l-16,0c-0.552,0 -1,0.448 -1,1c0,0.552 0.448,1 1,1Zm10.525,-24.939l-12.232,12.232c-0.39,0.39 -0.39,1.024 0,1.414c0.39,0.39 1.024,0.39 1.414,0l12.25,-12.25l0.055,3.399c0.009,0.551 0.464,0.992 1.016,0.983c0.551,-0.009 0.992,-0.464 0.983,-1.016c0,0 -0.034,-2.137 -0.061,-3.805c-0.026,-1.624 -1.339,-2.932 -2.963,-2.951c-1.55,-0.019 -3.462,-0.043 -3.462,-0.043c-0.552,-0.006 -1.005,0.436 -1.012,0.988c-0.007,0.552 0.436,1.006 0.988,1.012l3.024,0.037Z" style="fill:url(#_Linear1);"/><defs><linearGradient id="_Linear1" x1="0" y1="0" x2="1" y2="0" gradientUnits="userSpaceOnUse" gradientTransform="matrix(40.0002,0,0,38.8825,-4.51208e-05,20.0963)"><stop offset="0" style="stop-color:#1685ff;stop-opacity:1"/><stop offset="0.5" style="stop-color:#8b5cf6;stop-opacity:1"/><stop offset="1" style="stop-color:#d946ef;stop-opacity:1"/></linearGradient></defs></svg>