<?xml version="1.0" encoding="UTF-8" standalone="no"?><!DOCTYPE svg PUBLIC "-//W3C//DTD SVG 1.1//EN" "http://www.w3.org/Graphics/SVG/1.1/DTD/svg11.dtd"><svg width="100%" height="100%" viewBox="0 0 1945 1945" version="1.1" xmlns="http://www.w3.org/2000/svg" xmlns:xlink="http://www.w3.org/1999/xlink" xml:space="preserve" xmlns:serif="http://www.serif.com/" style="fill-rule:evenodd;clip-rule:evenodd;stroke-linejoin:round;stroke-miterlimit:2;"><g id="Layer4"><g><rect x="1753.53" y="1704.2" width="153.009" height="1.187" style="fill:#eceded;fill-rule:nonzero;"/><rect x="1318.13" y="1717.09" width="40.158" height="1.187" style="fill:#eceded;fill-rule:nonzero;"/><rect x="1660.25" y="1660.09" width="88.658" height="1.187" style="fill:#eceded;fill-rule:nonzero;"/><rect x="70.542" y="1668.08" width="199.532" height="1.187" style="fill:#eceded;fill-rule:nonzero;"/><rect x="311.206" y="1668.08" width="29.256" height="1.187" style="fill:#eceded;fill-rule:nonzero;"/><rect x="435.541" y="1688.13" width="432.741" height="1.187" style="fill:#eceded;fill-rule:nonzero;"/><path d="M31.072,73.653c-13.905,0 -25.213,11.627 -25.213,25.919l0,1289.23c0,14.297 11.308,25.925 25.213,25.925l892.03,0c13.895,0 25.209,-11.628 25.209,-25.925l0,-1289.23c0,-14.292 -11.314,-25.919 -25.209,-25.919l-892.03,0Zm892.03,1342.27l-892.03,0c-14.542,0 -26.368,-12.159 -26.368,-27.112l0,-1289.23c0,-14.947 11.826,-27.111 26.368,-27.111l892.03,0c14.533,0 26.364,12.164 26.364,27.111l0,1289.23c0,14.953 -11.831,27.112 -26.364,27.112Z" style="fill:#eceded;fill-rule:nonzero;"/><path d="M1030.27,73.653c-13.9,0 -25.209,11.627 -25.209,25.919l0,1289.23c0,14.297 11.309,25.925 25.209,25.925l892.03,0c13.9,0 25.213,-11.628 25.213,-25.925l0,-1289.23c0,-14.292 -11.313,-25.919 -25.213,-25.919l-892.03,0Zm892.03,1342.27l-892.03,0c-14.538,0 -26.364,-12.159 -26.364,-27.112l0,-1289.23c0,-14.947 11.826,-27.111 26.364,-27.111l892.03,0c14.537,0 26.368,12.164 26.368,27.111l0,1289.23c0,14.953 -11.831,27.112 -26.368,27.112Z" style="fill:#eceded;fill-rule:nonzero;"/><rect x="468.853" y="1238.73" width="312.956" height="346.344" style="fill:#e7e7e7;fill-rule:nonzero;"/><rect x="790.253" y="1212.96" width="39.335" height="417.053" style="fill:#e7e7e7;fill-rule:nonzero;"/><rect x="518.67" y="1265.99" width="25.643" height="129.431" style="fill:#fbfdfd;fill-rule:nonzero;"/><rect x="624.989" y="1265.99" width="25.643" height="129.431" style="fill:#f6f8f9;fill-rule:nonzero;"/><rect x="544.313" y="1275.09" width="25.643" height="120.335" style="fill:#f6f8f9;fill-rule:nonzero;"/><rect x="599.35" y="1275.09" width="25.638" height="120.335" style="fill:#fbfdfd;fill-rule:nonzero;"/><rect x="582.775" y="1265.99" width="16.575" height="129.431" style="fill:#eceded;fill-rule:nonzero;"/><rect x="569.956" y="1275.09" width="12.819" height="120.335" style="fill:#fbfdfd;fill-rule:nonzero;"/><rect x="650.632" y="1265.99" width="25.643" height="129.431" style="fill:#eceded;fill-rule:nonzero;"/><rect x="676.275" y="1275.09" width="25.643" height="120.335" style="fill:#e7e7e7;fill-rule:nonzero;"/><rect x="731.312" y="1275.09" width="25.638" height="120.335" style="fill:#e7e7e7;fill-rule:nonzero;"/><rect x="714.742" y="1265.99" width="16.57" height="129.431" style="fill:#fbfdfd;fill-rule:nonzero;"/><rect x="701.918" y="1275.09" width="12.824" height="120.335" style="fill:#eceded;fill-rule:nonzero;"/><rect x="756.951" y="1269.06" width="12.824" height="126.368" style="fill:#fbfdfd;fill-rule:nonzero;"/><rect x="744.131" y="1439.46" width="25.643" height="129.431" style="fill:#fbfdfd;fill-rule:nonzero;"/><rect x="637.813" y="1439.46" width="25.643" height="129.431" style="fill:#fbfdfd;fill-rule:nonzero;"/><rect x="718.488" y="1448.56" width="25.643" height="120.335" style="fill:#f1f2f3;fill-rule:nonzero;"/><rect x="663.456" y="1448.56" width="25.638" height="120.335" style="fill:#eceded;fill-rule:nonzero;"/><rect x="689.094" y="1439.46" width="16.575" height="129.431" style="fill:#fbfdfd;fill-rule:nonzero;"/><rect x="705.669" y="1448.56" width="12.819" height="120.335" style="fill:#f6f8f9;fill-rule:nonzero;"/><rect x="612.169" y="1439.46" width="25.643" height="129.431" style="fill:#eceded;fill-rule:nonzero;"/><rect x="586.526" y="1448.56" width="25.643" height="120.335" style="fill:#f6f8f9;fill-rule:nonzero;"/><rect x="531.494" y="1448.56" width="25.638" height="120.335" style="fill:#e7e7e7;fill-rule:nonzero;"/><rect x="557.132" y="1439.46" width="16.57" height="129.431" style="fill:#fbfdfd;fill-rule:nonzero;"/><rect x="502.1" y="1439.46" width="16.57" height="129.431" style="fill:#fbfdfd;fill-rule:nonzero;"/><rect x="573.703" y="1448.56" width="12.824" height="120.335" style="fill:#eceded;fill-rule:nonzero;"/><rect x="518.67" y="1442.53" width="12.824" height="126.363" style="fill:#f1f2f3;fill-rule:nonzero;"/><path d="M769.742,1395.56l-291.013,0l0,-144.849l291.013,0l0,144.849Zm0,173.333l-291.013,0l0,-151.76l291.013,0l0,151.76Zm20.978,-355.933l-331.776,0l0,393.679l310.798,0l0,23.374l20.978,0l0,-417.053Z" style="fill:#f1f2f3;fill-rule:nonzero;"/><rect x="155.384" y="1238.73" width="312.956" height="346.344" style="fill:#e7e7e7;fill-rule:nonzero;"/><rect x="167.418" y="1602.41" width="39.335" height="27.606" style="fill:#e7e7e7;fill-rule:nonzero;"/><rect x="432.155" y="1265.99" width="25.643" height="129.431" style="fill:#fbfdfd;fill-rule:nonzero;"/><rect x="325.836" y="1265.99" width="25.638" height="129.431" style="fill:#f6f8f9;fill-rule:nonzero;"/><rect x="406.512" y="1275.09" width="25.643" height="120.335" style="fill:#f6f8f9;fill-rule:nonzero;"/><rect x="351.475" y="1275.09" width="25.648" height="120.335" style="fill:#fbfdfd;fill-rule:nonzero;"/><rect x="377.122" y="1265.99" width="16.57" height="129.431" style="fill:#eceded;fill-rule:nonzero;"/><rect x="393.693" y="1275.09" width="12.819" height="120.335" style="fill:#fbfdfd;fill-rule:nonzero;"/><rect x="317.096" y="1265.99" width="25.643" height="129.431" style="fill:#eceded;fill-rule:nonzero;"/><rect x="291.453" y="1275.09" width="25.643" height="120.335" style="fill:#e7e7e7;fill-rule:nonzero;"/><rect x="236.42" y="1275.09" width="25.643" height="120.335" style="fill:#e7e7e7;fill-rule:nonzero;"/><rect x="262.063" y="1265.99" width="16.566" height="129.431" style="fill:#fbfdfd;fill-rule:nonzero;"/><rect x="278.629" y="1275.09" width="12.824" height="120.335" style="fill:#eceded;fill-rule:nonzero;"/><rect x="223.596" y="1269.06" width="12.824" height="126.368" style="fill:#f6f8f9;fill-rule:nonzero;"/><rect x="211.553" y="1439.46" width="25.643" height="129.431" style="fill:#fbfdfd;fill-rule:nonzero;"/><rect x="317.877" y="1439.46" width="25.638" height="129.431" style="fill:#fbfdfd;fill-rule:nonzero;"/><rect x="237.196" y="1448.56" width="25.643" height="120.335" style="fill:#f6f8f9;fill-rule:nonzero;"/><rect x="292.234" y="1448.56" width="25.643" height="120.335" style="fill:#eceded;fill-rule:nonzero;"/><rect x="275.659" y="1439.46" width="16.575" height="129.431" style="fill:#fbfdfd;fill-rule:nonzero;"/><rect x="262.839" y="1448.56" width="12.819" height="120.335" style="fill:#f6f8f9;fill-rule:nonzero;"/><rect x="326.612" y="1439.46" width="25.643" height="129.431" style="fill:#eceded;fill-rule:nonzero;"/><rect x="352.255" y="1448.56" width="25.643" height="120.335" style="fill:#f6f8f9;fill-rule:nonzero;"/><rect x="407.288" y="1448.56" width="25.643" height="120.335" style="fill:#e7e7e7;fill-rule:nonzero;"/><rect x="390.718" y="1439.46" width="16.57" height="129.431" style="fill:#fbfdfd;fill-rule:nonzero;"/><rect x="442.373" y="1439.46" width="16.57" height="129.431" style="fill:#fbfdfd;fill-rule:nonzero;"/><rect x="377.898" y="1448.56" width="12.819" height="120.335" style="fill:#eceded;fill-rule:nonzero;"/><rect x="432.931" y="1442.53" width="12.824" height="126.363" style="fill:#eceded;fill-rule:nonzero;"/><path d="M167.45,1250.71l291.013,0l0,144.849l-291.013,0l0,-144.849Zm0,166.422l291.013,0l0,151.76l-291.013,0l0,-151.76Zm-20.982,-204.173l0,417.053l20.982,0l0,-23.374l310.799,0l0,-393.679l-331.781,0Z" style="fill:#f1f2f3;fill-rule:nonzero;"/><rect x="168.975" y="222.9" width="661.205" height="702.467" style="fill:#eceded;fill-rule:nonzero;"/><rect x="145.877" y="222.9" width="661.205" height="702.467" style="fill:#f1f2f3;fill-rule:nonzero;"/><rect x="163.404" y="239.553" width="627.006" height="669.489" style="fill:#e1e2e1;fill-rule:nonzero;"/><rect x="179.069" y="239.543" width="611.351" height="669.475" style="fill:#f6f8f9;fill-rule:nonzero;"/><rect x="478.42" y="239.553" width="12.413" height="669.489" style="fill:#eceded;fill-rule:nonzero;"/><path d="M407.182,239.543l-174.249,669.475l-16.723,0l174.249,-669.475l16.723,0Z" style="fill:#fff;fill-rule:nonzero;"/><rect x="473.098" y="229.222" width="10.643" height="692.654" style="fill:#f1f2f3;fill-rule:nonzero;"/><path d="M343.94,239.543l-164.871,633.572l0,-348.248l74.236,-285.324l90.635,0Z" style="fill:#fff;fill-rule:nonzero;"/><path d="M790.419,300.293l0,64.269l-141.727,544.456l-16.723,0l158.45,-608.725Z" style="fill:#fff;fill-rule:nonzero;"/><path d="M790.419,430.056l0,348.253l-34,130.709l-90.63,0l124.63,-478.962Z" style="fill:#fff;fill-rule:nonzero;"/><path d="M1626.93,308.79c0,-53.658 -42.301,-97.152 -94.483,-97.152c-52.183,0 -94.489,43.494 -94.489,97.152c0,53.653 42.306,97.147 94.489,97.147c52.182,0 94.483,-43.494 94.483,-97.147Z" style="fill:#e1e2e1;fill-rule:nonzero;"/><path d="M1612.79,308.79c0,-45.621 -35.972,-82.603 -80.338,-82.603c-44.371,0 -80.339,36.982 -80.339,82.603c0,45.617 35.968,82.603 80.339,82.603c44.366,0 80.338,-36.986 80.338,-82.603Z" style="fill:#f1f2f3;fill-rule:nonzero;"/><path d="M1528.66,365.455l0,-57.743l-37.22,21.649l37.22,36.094Z" style="fill:#f1f2f3;fill-rule:nonzero;"/><path d="M1533.28,365.455l0,-57.743c0,-1.696 -0.868,-3.249 -2.296,-4.104c-1.423,-0.855 -3.164,-0.864 -4.601,-0.033l-37.215,21.654c-2.222,1.292 -3.003,4.189 -1.746,6.474c1.256,2.285 4.074,3.087 6.292,1.795l30.327,-17.64l0,49.597c0,2.622 2.065,4.75 4.62,4.75c2.55,0 4.619,-2.128 4.619,-4.75Z" style="fill:#e1e2e1;fill-rule:nonzero;"/><rect x="1234.87" y="584.676" width="595.155" height="24.984" style="fill:#e1e2e1;fill-rule:nonzero;"/><rect x="1262.26" y="492.582" width="26.221" height="92.093" style="fill:#eceded;fill-rule:nonzero;"/><rect x="1389.04" y="492.582" width="26.221" height="92.093" style="fill:#eceded;fill-rule:nonzero;"/><path d="M1578.34,581.037l-25.837,3.639l-19.143,-90.754l25.837,-3.639l19.143,90.754Z" style="fill:#eceded;fill-rule:nonzero;"/><rect x="1294.75" y="504.718" width="26.221" height="79.958" style="fill:#eceded;fill-rule:nonzero;"/><rect x="1355.02" y="504.718" width="26.221" height="79.958" style="fill:#eceded;fill-rule:nonzero;"/><rect x="1507.14" y="504.718" width="26.221" height="79.958" style="fill:#eceded;fill-rule:nonzero;"/><path d="M1470.93,580.03l-25.597,4.646l-21.227,-78.053l25.592,-4.646l21.232,78.053Z" style="fill:#eceded;fill-rule:nonzero;"/><rect x="1330.53" y="488.013" width="13.11" height="96.662" style="fill:#eceded;fill-rule:nonzero;"/><rect x="1486.49" y="488.013" width="13.115" height="96.662" style="fill:#eceded;fill-rule:nonzero;"/><rect x="1645.16" y="511.79" width="127.758" height="72.059" style="fill:#eceded;fill-rule:nonzero;"/><path d="M1878.77,1788.49c0,29.705 -401.004,53.782 -895.679,53.782c-494.67,0 -895.679,-24.077 -895.679,-53.782c0,-29.705 401.009,-53.786 895.679,-53.786c494.675,0 895.679,24.081 895.679,53.786Z" style="fill:#f6f8f9;fill-rule:nonzero;"/><path d="M203.566,1549.06c0,0 -28.53,6.398 -40.712,0c-12.186,-6.398 -7.641,-99.632 -20.09,-101.56c-28.646,-4.441 -23.773,119.39 -11.586,145.481c12.182,26.095 74.975,14.995 74.975,14.995l-2.587,-58.916Z" style="fill:#3e75ba;fill-rule:nonzero;"/><path d="M177.359,1610.33c-3.238,0 -6.578,-0.104 -9.909,-0.351c-7.363,-0.547 -14.713,-1.796 -20.982,-4.209c-6.883,-2.65 -12.458,-6.706 -15.29,-12.781c-5.576,-11.936 -9.623,-44.349 -9.627,-75.569c0,-35.799 5.312,-70.031 19.734,-70.031c0.481,0 0.98,0.038 1.479,0.119c12.449,1.928 7.904,95.162 20.09,101.56c4.061,2.132 9.937,2.845 15.97,2.845c4.883,0 9.872,-0.466 14.076,-1.022c1.09,20.239 2.346,39.956 3.64,58.375c-5.146,0.546 -11.919,1.064 -19.181,1.064Z" style="fill:#608dc9;fill-rule:nonzero;"/><path d="M205.941,1721.18c0,0 -42.269,-413.871 8.185,-421.148c50.46,-7.276 62.632,-2.774 43.142,413.107l-51.327,8.041Z" style="fill:#3e75ba;fill-rule:nonzero;"/><path d="M205.941,1721.18c0,0 -4.92,-48.163 -9.401,-111.919c-1.294,-18.419 -2.55,-38.136 -3.64,-58.375c-2.07,-38.349 -3.539,-78.556 -3.534,-115.267c0.004,-73.422 5.917,-132.87 24.76,-135.587c5.484,-0.788 10.514,-1.444 15.102,-1.444c25.024,0 36.85,19.403 36.854,141.425c0,7.998 -0.05,16.439 -0.152,25.349c-5.779,-0.404 -9.872,-0.774 -9.872,-0.774c-2.559,5.59 -3.409,13.727 -3.414,22.091c0,16.753 3.414,34.426 3.414,34.426c0,0 3.437,-0.408 8.791,-1.206c-0.407,15.275 -0.919,31.586 -1.529,48.994c-0.42,12.041 -0.892,24.632 -1.409,37.746c-0.268,6.897 -0.554,13.912 -0.85,21.113c-0.019,0.394 -0.032,0.793 -0.051,1.187c-0.522,12.573 -1.081,25.606 -1.681,39.138c-0.019,0.399 -0.037,0.789 -0.056,1.188c-0.623,14.083 -1.293,28.722 -2.005,43.874l-51.327,8.041Z" style="fill:#749dd3;fill-rule:nonzero;"/><path d="M146.681,1674.45l165.971,0l-13.859,109.183l-138.253,0l-13.859,-109.183Z" style="fill:#182e35;fill-rule:nonzero;"/><path d="M256.058,1464.59c0,0 45.988,4.128 47.36,0c1.372,-4.132 1.372,-93.627 20.866,-88.336c19.495,5.286 10.967,113.021 0,125.541c-10.962,12.53 -68.226,19.312 -68.226,19.312c0,0 -7.673,-39.731 0,-56.517Z" style="fill:#3e75ba;fill-rule:nonzero;"/><path d="M256.058,1521.11c0,0 -3.414,-17.673 -3.414,-34.426c0.005,-8.364 0.855,-16.501 3.414,-22.091c0,0 20.437,1.838 34.471,1.838c7.017,0 12.431,-0.461 12.889,-1.838c1.335,-4.014 1.372,-88.564 19.235,-88.564c0.532,0 1.072,0.076 1.631,0.228c8.454,2.289 11.637,23.844 11.637,48.542c0,4.812 -0.12,9.742 -0.342,14.668c-1.1,23.924 -4.671,47.858 -8.967,58.203c-0.757,1.824 -1.533,3.225 -2.328,4.128c-10.962,12.53 -68.226,19.312 -68.226,19.312Z" style="fill:#87aedc;fill-rule:nonzero;"/><path d="M226.913,1663.44c-3.349,-29.919 -6.37,-59.88 -9.165,-89.866c-2.647,-29.999 -4.989,-60.027 -6.929,-90.093c-1.982,-30.066 -3.289,-60.185 -3.677,-90.36c-0.153,-15.08 -0.06,-30.189 0.836,-45.317c0.462,-7.557 1.136,-15.128 2.43,-22.699c0.693,-3.786 1.483,-7.576 2.91,-11.352c0.711,-1.877 1.626,-3.781 3.095,-5.591c0.407,-0.461 0.961,-0.912 1.464,-1.33c0.495,-0.423 1.516,-0.727 2.287,-0.931c2.019,-0.081 3.525,1.045 4.287,1.986c2.966,3.894 3.636,7.604 4.689,11.361c0.901,3.752 1.654,7.5 2.245,11.252c1.229,7.5 2.12,15.01 2.896,22.528c1.525,15.029 2.583,30.076 3.465,45.128c1.7,30.099 2.86,60.213 3.442,90.336c0.628,30.118 0.988,60.236 1.131,90.359c-0.009,30.123 -0.18,60.242 -0.577,90.35c-0.356,-30.108 -0.942,-60.217 -1.686,-90.321c-0.605,-30.104 -1.363,-60.203 -2.421,-90.284c-1.141,-30.075 -2.171,-60.16 -4.088,-90.169c-0.942,-15.01 -2.074,-30 -3.654,-44.909c-0.804,-7.457 -1.723,-14.891 -2.966,-22.229c-0.596,-3.681 -1.344,-7.305 -2.213,-10.858c-0.859,-3.434 -2.032,-7.296 -3.658,-9.334c-0.398,-0.527 -0.582,-0.365 -0.416,-0.489l-0.222,0.167l-0.586,0.531c-0.883,1.093 -1.673,2.57 -2.278,4.195c-1.247,3.234 -2.042,6.839 -2.712,10.44c-1.275,7.257 -1.981,14.705 -2.466,22.162c-0.952,14.928 -1.123,29.961 -1.035,44.985c0.175,30.057 1.584,60.123 3.007,90.179c1.511,30.052 3.465,60.094 5.636,90.117c2.051,30.038 4.324,60.056 6.929,90.056Z" style="fill:#3e75ba;fill-rule:nonzero;"/><path d="M261.846,1485.83c5.941,-0.565 11.868,-0.974 17.772,-1.677c5.903,-0.56 11.803,-1.196 17.591,-2.222c2.882,-0.528 5.751,-1.131 8.463,-1.915c2.605,-0.603 5.705,-2.465 4.795,-2.778c-0.379,-3.6 -0.074,-6.455 0.023,-9.618c0.171,-3.083 0.365,-6.156 0.619,-9.21c1.09,-12.231 2.472,-24.39 4.315,-36.497c1.857,-12.098 3.649,-24.234 6.73,-36.108c-0.623,6.099 -1.15,12.178 -1.593,18.282l-1.613,18.263l-3.238,36.459c-0.485,5.946 -1.136,12.392 -0.928,17.788l0.023,0.631l-0.042,1.245c-0.175,0.708 -0.54,1.577 -0.942,1.961c-0.818,1.012 -1.663,1.497 -2.449,1.91c-1.593,0.822 -3.118,1.287 -4.638,1.681c-3.03,0.798 -6.042,1.197 -9.049,1.506c-11.997,1.197 -23.93,1.154 -35.839,0.299Z" style="fill:#3e75ba;fill-rule:nonzero;"/><path d="M261.846,1506.5l19.606,-4.474c6.541,-1.416 13.078,-2.845 19.559,-4.451c6.366,-1.691 13.165,-3.106 18.801,-5.533c0.606,-0.285 1.322,-0.751 1.169,-0.703c0.236,-0.447 0.527,-1.021 0.748,-1.781c0.481,-1.425 0.823,-3.059 1.141,-4.679c0.601,-3.277 1.021,-6.649 1.4,-10.027c1.534,-13.532 2.278,-27.258 3.271,-40.952l1.312,-20.576l1.524,-20.6c0.786,13.775 0.887,27.544 0.712,41.328c-0.157,13.784 -0.781,27.549 -2.232,41.356c-0.425,3.449 -0.887,6.902 -1.566,10.374c-0.365,1.748 -0.73,3.481 -1.362,5.3c-0.278,0.889 -0.703,1.867 -1.335,2.893c-1.155,1.496 -2.056,1.639 -2.943,2.128c-6.814,2.617 -13.254,3.785 -19.924,5.035c-13.235,2.398 -26.516,4.222 -39.881,5.362Z" style="fill:#3e75ba;fill-rule:nonzero;"/><path d="M189.366,1566.36c-11.729,0.109 -23.514,-0.361 -35.132,-4.203c-1.446,-0.58 -2.897,-1.15 -4.319,-2.071c-0.629,-0.261 -1.631,-1.254 -2.148,-2.043c-0.481,-0.788 -0.934,-1.596 -1.201,-2.351c-1.234,-3.082 -1.867,-6.084 -2.481,-9.11c-1.086,-6.037 -1.696,-12.064 -2.231,-18.096c-0.901,-12.06 -1.289,-24.11 -1.174,-36.16c0.088,-12.041 0.425,-24.082 1.465,-36.094l1.154,18.011l0.934,17.997c0.716,11.979 1.228,23.958 2.222,35.856c0.439,5.952 1.03,11.889 1.926,17.702c0.467,2.874 1.007,5.795 1.917,8.313c0.208,0.669 0.49,1.159 0.753,1.667c0.319,0.418 0.328,0.579 1.003,1.007c0.997,0.779 2.249,1.382 3.483,1.99c5.141,2.242 10.86,3.562 16.547,4.669c5.687,1.249 11.475,2.047 17.282,2.916Z" style="fill:#3e75ba;fill-rule:nonzero;"/><path d="M133.631,1467.51c0.665,7.02 1.076,14.045 1.677,21.056l1.386,21.056c0.993,14.021 1.736,28.052 2.836,42.021c0.517,6.982 1.076,13.983 1.986,20.847c0.421,3.363 0.92,7.02 1.844,9.794c0.725,2.736 3.432,4.284 6.328,5.813c6.001,2.675 12.709,4.199 19.389,5.377c6.684,1.321 13.475,2.138 20.289,2.936c-13.702,0.213 -27.542,-0.214 -41.059,-4.95c-1.663,-0.769 -3.354,-1.439 -4.943,-2.669c-1.575,-1.055 -3.169,-2.95 -3.719,-4.864c-1.413,-3.823 -1.861,-7.215 -2.457,-10.782c-1.072,-7.063 -1.663,-14.092 -2.259,-21.127c-0.993,-14.083 -1.622,-28.161 -1.769,-42.249c-0.19,-14.088 -0.185,-28.171 0.471,-42.259Z" style="fill:#3e75ba;fill-rule:nonzero;"/><path d="M1714.99,324.194l0,385.628c0,7.13 -5.641,12.92 -12.57,12.92l-576.381,0c-6.929,0 -12.56,-5.79 -12.56,-12.92l0,-385.628c0,-7.173 5.631,-12.92 12.56,-12.92l576.381,0c6.929,0 12.57,5.747 12.57,12.92Z" style="fill:#3e75ba;fill-rule:nonzero;"/><path d="M1702.42,722.742l-503.942,0l0,-19.716l496.116,0l0,-324.471l-560.729,0l0,83.596l-20.386,0l0,-107.226l601.511,0l0,354.897c0,7.13 -5.641,12.92 -12.57,12.92Z" style="fill:#afc8e9;fill-rule:nonzero;"/><path d="M1689.81,343.14c-4.795,0 -8.68,-3.999 -8.68,-8.924c0,-4.931 3.885,-8.925 8.68,-8.925c4.795,0 8.68,3.994 8.68,8.925c0,4.925 -3.885,8.924 -8.68,8.924Z" style="fill:#87aedc;fill-rule:nonzero;"/><path d="M1656.91,343.14c-4.79,0 -8.68,-3.999 -8.68,-8.924c0,-4.931 3.89,-8.925 8.68,-8.925c4.795,0 8.685,3.994 8.685,8.925c0,4.925 -3.89,8.924 -8.685,8.924Z" style="fill:#87aedc;fill-rule:nonzero;"/><path d="M1624.02,343.14c-4.795,0 -8.685,-3.999 -8.685,-8.924c0,-4.931 3.89,-8.925 8.685,-8.925c4.79,0 8.68,3.994 8.68,8.925c0,4.925 -3.89,8.924 -8.68,8.924Z" style="fill:#87aedc;fill-rule:nonzero;"/><path d="M1694.6,703.026l-496.116,0l0,-63.453c13.064,-4.749 26.078,-9.466 37.663,-13.641l37.705,12.682l72.998,-23.212l40.116,57.239l94.391,-105.217l44.246,84.371l51.171,-83.544l18.982,-11.471l65.916,37.666l32.928,-7.557l0,116.137Zm-307.149,-39.101l-38.457,-54.978l-75.086,23.877l-37.811,-12.682l-0.86,0.276c-13.743,4.963 -25.934,9.371 -36.753,13.289l0,-12.059l62.872,-12.81l22.849,12.905l59.264,-20.681l47.95,12.682l62.05,-99.536l25.209,48.03l-91.227,101.687Zm138.476,-23.05l-40.703,-77.754l24.188,-26.964l43.119,46.761l14.103,-8.549l-40.707,66.506Zm-327.443,-24.846l0,-140.959c0,-7.172 -5.636,-12.919 -12.565,-12.919l-52.048,0l0,-83.596l560.729,0l0,133.558l-43.812,49.08l-55.993,-32.812l-21.938,35.842l-19.361,11.746l-44.14,-47.92l-26.871,29.947l-28.586,-54.651l-64.895,104.115l-45.697,-12.188l-58.567,20.458l-22.525,-12.682l-63.731,12.981Zm463.992,-27.43l-66.771,-38.217l-12.713,7.723l13.628,-22.276l55.24,32.365l42.74,-47.916l0,60.93l-32.124,7.391Z" style="fill:#bfd4ee;fill-rule:nonzero;"/><path d="M1694.6,512.113l0,8.165l-42.74,47.916l-55.24,-32.365l-13.628,22.276l-6.218,10.146l-51.171,83.544l-44.246,-84.371l-2.679,-5.186l-25.209,-48.03l-62.05,99.536l-47.95,-12.682l-59.264,20.681l-22.849,-12.905l-127.485,25.971l0,-5.623l128.344,-26.138l22.525,12.682l58.567,-20.458l45.697,12.188l64.895,-104.115l28.586,54.651l2.739,5.125l40.703,77.754l40.707,-66.506l6.223,-10.146l21.938,-35.842l55.993,32.812l43.812,-49.08Z" style="fill:#fff;fill-rule:nonzero;"/><path d="M1694.6,581.208l0,5.681l-32.928,7.557l-65.916,-37.666l-18.982,11.471l-10.14,6.118l-14.103,8.549l-43.119,-46.761l-24.188,26.964l-3.867,4.303l-94.391,105.217l-40.116,-57.239l-72.998,23.212l-37.705,-12.682c-33.196,11.965 -78.139,28.347 -102.276,37.333l0,-5.899c16.736,-6.341 46.879,-17.261 101.366,-36.948l0.86,-0.276l37.811,12.682l75.086,-23.877l38.457,54.978l91.227,-101.687l3.807,-4.242l26.871,-29.947l44.14,47.92l19.361,-11.746l10.135,-6.118l12.713,-7.723l66.771,38.217l32.124,-7.391Z" style="fill:#3e75ba;fill-rule:nonzero;"/><path d="M1198.48,475.07l0,703.868c0,7.125 -5.636,12.915 -12.565,12.915l-992.14,0c-6.929,0 -12.565,-5.79 -12.565,-12.915l0,-703.868c0,-7.172 5.636,-12.919 12.565,-12.919l992.14,0c6.929,0 12.565,5.747 12.565,12.919Z" style="fill:#3e75ba;fill-rule:nonzero;"/><path d="M181.212,1178.94l0,-673.137l1017.27,0l-1017.27,0l0,42.301l1017.27,0l0,602.19l-1017.27,0l0,28.646Zm848.121,-245.169c-49,0 -88.718,40.843 -88.718,91.22c0,50.38 39.718,91.224 88.718,91.224c48.999,0 88.718,-40.844 88.718,-91.224c0,-50.377 -39.719,-91.22 -88.718,-91.22Zm-226.321,0c-48.999,0 -88.723,40.843 -88.723,91.22c0,50.38 39.724,91.224 88.723,91.224c48.995,0 88.719,-40.844 88.719,-91.224c0,-50.377 -39.724,-91.22 -88.719,-91.22Zm-226.325,0c-49,0 -88.723,40.843 -88.723,91.22c0,50.38 39.723,91.224 88.723,91.224c48.999,0 88.718,-40.844 88.718,-91.224c0,-50.377 -39.719,-91.22 -88.718,-91.22Zm-226.326,0c-48.999,0 -88.723,40.843 -88.723,91.22c0,50.38 39.724,91.224 88.723,91.224c49,0 88.719,-40.844 88.719,-91.224c0,-50.377 -39.719,-91.22 -88.719,-91.22Zm313.524,-332.08l0,279.472l482.988,0l0,-279.472l-482.988,0Z" style="fill:#87aedc;fill-rule:nonzero;"/><path d="M1185.92,1191.85l-992.14,0c-6.929,0 -12.565,-5.79 -12.565,-12.915l0,-28.646l1017.27,0l0,28.646c0,7.125 -5.636,12.915 -12.565,12.915Z" style="fill:#638ec9;fill-rule:nonzero;"/><path d="M1173.3,494.017c-4.795,0 -8.68,-3.995 -8.68,-8.925c0,-4.93 3.885,-8.925 8.68,-8.925c4.795,0 8.68,3.995 8.68,8.925c0,4.93 -3.885,8.925 -8.68,8.925Z" style="fill:#87aedc;fill-rule:nonzero;"/><path d="M1140.4,494.017c-4.795,0 -8.68,-3.995 -8.68,-8.925c0,-4.93 3.885,-8.925 8.68,-8.925c4.795,0 8.68,3.995 8.68,8.925c0,4.93 -3.885,8.925 -8.68,8.925Z" style="fill:#87aedc;fill-rule:nonzero;"/><path d="M1107.51,494.017c-4.796,0 -8.681,-3.995 -8.681,-8.925c0,-4.93 3.885,-8.925 8.681,-8.925c4.795,0 8.684,3.995 8.684,8.925c0,4.93 -3.889,8.925 -8.684,8.925Z" style="fill:#87aedc;fill-rule:nonzero;"/><rect x="181.212" y="505.801" width="1017.27" height="42.301" style="fill:#638ec9;fill-rule:nonzero;"/><path d="M217.97,524.135l-18.275,0c-1.28,0 -2.31,1.064 -2.31,2.375c0,1.311 1.03,2.375 2.31,2.375l18.275,0c1.275,0 2.31,-1.064 2.31,-2.375c0,-1.311 -1.035,-2.375 -2.31,-2.375Z" style="fill:#fff;fill-rule:nonzero;"/><path d="M206.573,532.533l-5.857,-6.023l5.857,-6.023c0.906,-0.931 0.906,-2.432 0,-3.358c-0.9,-0.931 -2.365,-0.931 -3.266,0l-7.488,7.7c-0.905,0.926 -0.905,2.431 0,3.358l7.488,7.704c0.901,0.926 2.366,0.926 3.266,0c0.906,-0.926 0.906,-2.432 0,-3.358Z" style="fill:#fff;fill-rule:nonzero;"/><path d="M1179.7,514.635l-19.647,0c-1.275,0 -2.31,1.065 -2.31,2.375c0,1.311 1.035,2.375 2.31,2.375l19.647,0c1.275,0 2.31,-1.064 2.31,-2.375c0,-1.31 -1.035,-2.375 -2.31,-2.375Z" style="fill:#fff;fill-rule:nonzero;"/><path d="M1179.7,524.135l-19.647,0c-1.275,0 -2.31,1.064 -2.31,2.375c0,1.311 1.035,2.375 2.31,2.375l19.647,0c1.275,0 2.31,-1.064 2.31,-2.375c0,-1.311 -1.035,-2.375 -2.31,-2.375Z" style="fill:#fff;fill-rule:nonzero;"/><path d="M1179.7,533.635l-19.647,0c-1.275,0 -2.31,1.064 -2.31,2.374c0,1.311 1.035,2.375 2.31,2.375l19.647,0c1.275,0 2.31,-1.064 2.31,-2.375c0,-1.31 -1.035,-2.374 -2.31,-2.374Z" style="fill:#fff;fill-rule:nonzero;"/><path d="M232.822,622.199l202.853,0c2.555,0 4.62,-2.128 4.62,-4.75c0,-2.622 -2.065,-4.75 -4.62,-4.75l-202.853,0c-2.55,0 -4.62,2.128 -4.62,4.75c0,2.622 2.07,4.75 4.62,4.75Z" style="fill:#fff;fill-rule:nonzero;"/><path d="M232.822,671.687l365.503,0c2.55,0 4.619,-2.128 4.619,-4.75c0,-2.627 -2.069,-4.75 -4.619,-4.75l-365.503,0c-2.55,0 -4.62,2.123 -4.62,4.75c0,2.622 2.07,4.75 4.62,4.75Z" style="fill:#fff;fill-rule:nonzero;"/><path d="M232.822,702.289l365.503,0c2.55,0 4.619,-2.128 4.619,-4.749c0,-2.622 -2.069,-4.75 -4.619,-4.75l-365.503,0c-2.55,0 -4.62,2.128 -4.62,4.75c0,2.621 2.07,4.749 4.62,4.749Z" style="fill:#fff;fill-rule:nonzero;"/><path d="M232.822,732.892l365.503,0c2.55,0 4.619,-2.128 4.619,-4.75c0,-2.622 -2.069,-4.749 -4.619,-4.749l-365.503,0c-2.55,0 -4.62,2.127 -4.62,4.749c0,2.622 2.07,4.75 4.62,4.75Z" style="fill:#fff;fill-rule:nonzero;"/><path d="M232.822,763.495l365.503,0c2.55,0 4.619,-2.123 4.619,-4.75c0,-2.622 -2.069,-4.75 -4.619,-4.75l-365.503,0c-2.55,0 -4.62,2.128 -4.62,4.75c0,2.627 2.07,4.75 4.62,4.75Z" style="fill:#fff;fill-rule:nonzero;"/><path d="M232.822,794.098l365.503,0c2.55,0 4.619,-2.128 4.619,-4.75c0,-2.622 -2.069,-4.75 -4.619,-4.75l-365.503,0c-2.55,0 -4.62,2.128 -4.62,4.75c0,2.622 2.07,4.75 4.62,4.75Z" style="fill:#fff;fill-rule:nonzero;"/><path d="M232.822,824.705l365.503,0c2.55,0 4.619,-2.128 4.619,-4.75c0,-2.626 -2.069,-4.749 -4.619,-4.749l-365.503,0c-2.55,0 -4.62,2.123 -4.62,4.749c0,2.622 2.07,4.75 4.62,4.75Z" style="fill:#fff;fill-rule:nonzero;"/><path d="M232.822,855.303l365.503,0c2.55,0 4.619,-2.123 4.619,-4.75c0,-2.622 -2.069,-4.749 -4.619,-4.749l-365.503,0c-2.55,0 -4.62,2.127 -4.62,4.749c0,2.627 2.07,4.75 4.62,4.75Z" style="fill:#fff;fill-rule:nonzero;"/><path d="M232.822,885.911l365.503,0c2.55,0 4.619,-2.128 4.619,-4.75c0,-2.627 -2.069,-4.75 -4.619,-4.75l-365.503,0c-2.55,0 -4.62,2.123 -4.62,4.75c0,2.622 2.07,4.75 4.62,4.75Z" style="fill:#fff;fill-rule:nonzero;"/><rect x="663.885" y="601.689" width="482.987" height="279.472" style="fill:#b6cfec;fill-rule:nonzero;"/><path d="M663.885,824.971l117.799,-24.005l18.275,10.326l47.516,-16.586l37.77,10.022l51.17,-82.124l58.128,110.931l56.396,-92.108l44.837,26.281l51.097,-57.263l0,170.716l-482.988,0l0,-56.19Z" style="fill:#fff;fill-rule:nonzero;"/><path d="M663.885,850.553c0,-0.731 97.089,-35.808 97.089,-35.808l30.457,10.226l59.703,-18.994l31.676,45.265l98.526,-109.815l35.168,38.174l34.435,-20.856l53.517,30.603l42.417,-9.747l0,101.56l-482.988,0l0,-30.608Z" style="fill:#3e75ba;fill-rule:nonzero;"/><path d="M576.687,1116.21c-49,0 -88.723,-40.844 -88.723,-91.224c0,-50.377 39.723,-91.22 88.723,-91.22c48.999,0 88.718,40.843 88.718,91.22c0,50.38 -39.719,91.224 -88.718,91.224Z" style="fill:#abc6e8;fill-rule:nonzero;"/><path d="M576.687,1024.99l88.718,0c0,50.044 -40.047,91.22 -88.718,91.22c-48.672,0 -88.723,-41.176 -88.723,-91.22c0,-50.048 40.051,-91.224 88.723,-91.224l0.143,0l-0.143,91.224Z" style="fill:#3e75ba;fill-rule:nonzero;"/><path d="M634.893,1024.99c0,33.049 -26.059,59.847 -58.206,59.847c-32.148,0 -58.211,-26.798 -58.211,-59.847c0,-33.053 26.063,-59.852 58.211,-59.852c32.147,0 58.206,26.799 58.206,59.852Z" style="fill:#fff;fill-rule:nonzero;"/><path d="M556.287,1029.74l40.795,0c2.555,0 4.62,-2.128 4.62,-4.75c0,-2.626 -2.065,-4.749 -4.62,-4.749l-40.795,0c-2.55,0 -4.62,2.123 -4.62,4.749c0,2.622 2.07,4.75 4.62,4.75Z" style="fill:#3e75ba;fill-rule:nonzero;"/><path d="M803.012,1116.21c-48.999,0 -88.723,-40.844 -88.723,-91.224c0,-50.377 39.724,-91.22 88.723,-91.22c48.995,0 88.719,40.843 88.719,91.22c0,50.38 -39.724,91.224 -88.719,91.224Z" style="fill:#abc6e8;fill-rule:nonzero;"/><path d="M803.012,1024.99l60.761,66.468c-16.45,15.893 -38.19,24.752 -60.761,24.752c-48.671,0 -88.723,-41.176 -88.723,-91.22c0,-50.048 40.052,-91.224 88.723,-91.224l0.143,0l-0.143,91.224Z" style="fill:#3e75ba;fill-rule:nonzero;"/><path d="M861.218,1024.99c0,33.049 -26.058,59.847 -58.206,59.847c-32.147,0 -58.211,-26.798 -58.211,-59.847c0,-33.053 26.064,-59.852 58.211,-59.852c32.148,0 58.206,26.799 58.206,59.852Z" style="fill:#fff;fill-rule:nonzero;"/><path d="M782.612,1029.74l40.795,0c2.55,0 4.62,-2.128 4.62,-4.75c0,-2.626 -2.07,-4.749 -4.62,-4.749l-40.795,0c-2.55,0 -4.619,2.123 -4.619,4.749c0,2.622 2.069,4.75 4.619,4.75Z" style="fill:#3e75ba;fill-rule:nonzero;"/><path d="M1029.33,1116.21c-49,0 -88.718,-40.844 -88.718,-91.224c0,-50.377 39.718,-91.22 88.718,-91.22c48.999,0 88.718,40.843 88.718,91.22c0,50.38 -39.719,91.224 -88.718,91.224Z" style="fill:#abc6e8;fill-rule:nonzero;"/><path d="M1029.33,1024.99l88.718,0c0,50.044 -40.047,91.22 -88.718,91.22c-48.667,0 -88.718,-41.176 -88.718,-91.22c0,-20.756 6.887,-40.9 19.517,-57.087l69.201,57.087Z" style="fill:#3e75ba;fill-rule:nonzero;"/><path d="M1087.54,1024.99c0,33.049 -26.064,59.847 -58.211,59.847c-32.148,0 -58.206,-26.798 -58.206,-59.847c0,-33.053 26.058,-59.852 58.206,-59.852c32.147,0 58.211,26.799 58.211,59.852Z" style="fill:#fff;fill-rule:nonzero;"/><path d="M1008.94,1029.74l40.795,0c2.55,0 4.619,-2.128 4.619,-4.75c0,-2.626 -2.069,-4.749 -4.619,-4.749l-40.795,0c-2.555,0 -4.62,2.123 -4.62,4.749c0,2.622 2.065,4.75 4.62,4.75Z" style="fill:#3e75ba;fill-rule:nonzero;"/><path d="M350.361,1116.21c-48.999,0 -88.723,-40.844 -88.723,-91.224c0,-50.377 39.724,-91.22 88.723,-91.22c49,0 88.719,40.843 88.719,91.22c0,50.38 -39.719,91.224 -88.719,91.224Z" style="fill:#abc6e8;fill-rule:nonzero;"/><path d="M350.361,1024.99l76.874,-45.541c-15.817,-28.232 -45.188,-45.683 -76.874,-45.683l-0.143,0l0.143,91.224Z" style="fill:#3e75ba;fill-rule:nonzero;"/><path d="M292.155,1024.99c0,33.049 26.059,59.847 58.206,59.847c32.148,0 58.211,-26.798 58.211,-59.847c0,-33.053 -26.063,-59.852 -58.211,-59.852c-32.147,0 -58.206,26.799 -58.206,59.852Z" style="fill:#fff;fill-rule:nonzero;"/><path d="M370.761,1020.24l-40.795,0c-2.555,0 -4.619,2.123 -4.619,4.749c0,2.622 2.064,4.75 4.619,4.75l40.795,0c2.55,0 4.62,-2.128 4.62,-4.75c0,-2.626 -2.07,-4.749 -4.62,-4.749Z" style="fill:#3e75ba;fill-rule:nonzero;"/><path d="M723.413,380.725c-1.774,0 -3.548,-0.698 -4.902,-2.09c-7.659,-7.87 -17.836,-12.206 -28.664,-12.206c-10.828,0 -21.005,4.336 -28.664,12.206c-2.703,2.784 -7.091,2.784 -9.798,0c-2.707,-2.778 -2.707,-7.291 0,-10.074c10.269,-10.563 23.929,-16.382 38.462,-16.382c14.533,0 28.193,5.819 38.462,16.382c2.708,2.783 2.708,7.296 0,10.074c-1.353,1.392 -3.127,2.09 -4.896,2.09Z" style="fill:#3e75ba;fill-rule:nonzero;"/><path d="M748.072,355.366c-1.774,0 -3.548,-0.693 -4.901,-2.085c-29.404,-30.237 -77.248,-30.232 -106.652,0c-2.707,2.779 -7.091,2.779 -9.798,0c-2.707,-2.783 -2.707,-7.295 0,-10.079c34.808,-35.789 91.444,-35.789 126.252,0c2.703,2.784 2.703,7.296 0,10.079c-1.353,1.392 -3.127,2.085 -4.901,2.085Z" style="fill:#3e75ba;fill-rule:nonzero;"/><path d="M770.98,331.817c-1.774,0 -3.548,-0.698 -4.901,-2.09c-20.363,-20.937 -47.434,-32.469 -76.232,-32.469c-28.798,0 -55.869,11.532 -76.232,32.469c-2.707,2.783 -7.095,2.783 -9.802,0c-2.703,-2.779 -2.703,-7.291 0,-10.074c22.982,-23.63 53.536,-36.645 86.034,-36.645c32.499,0 63.052,13.015 86.035,36.645c2.702,2.783 2.702,7.295 0,10.074c-1.354,1.392 -3.128,2.09 -4.902,2.09Z" style="fill:#3e75ba;fill-rule:nonzero;"/><path d="M703.216,406.498c0,7.59 -5.982,13.745 -13.369,13.745c-7.382,0 -13.369,-6.155 -13.369,-13.745c0,-7.595 5.987,-13.746 13.369,-13.746c7.387,0 13.369,6.151 13.369,13.746Z" style="fill:#3e75ba;fill-rule:nonzero;"/><rect x="983.659" y="1699.36" width="778.356" height="84.28" style="fill:#3e75ba;fill-rule:nonzero;"/><path d="M1762.02,1783.64l-305.029,0l0,-71.157l305.029,0l0,71.157Z" style="fill:#87aedc;fill-rule:nonzero;"/><path d="M1456.99,1783.64l-473.328,0l0,-46.178l8.011,7.951l34.817,-29.263l0.079,0.071l4.421,-3.738l203.024,0l7.992,23.554l30.397,-12.453l-2.892,-11.101l187.479,0l0,71.157Z" style="fill:#9ebee4;fill-rule:nonzero;"/><path d="M1271.85,1495.99l519.828,0l79.216,-420.625c8.657,-45.988 -25.597,-88.683 -71.15,-88.683l-372.192,0c-34.712,0 -64.554,25.306 -71.151,60.35l-84.551,448.958Z" style="fill:#3e75ba;fill-rule:nonzero;"/><path d="M1791.84,1495.13c-5.072,-2.741 -10.847,-4.294 -16.977,-4.294l-129.85,0l83.581,-443.809c6.601,-35.044 36.439,-60.35 71.15,-60.35l0.005,0c40.79,0 72.527,34.241 72.494,74.419c-0.004,4.688 -0.443,9.457 -1.344,14.264l-63.916,339.366l-0.222,1.187l-14.921,79.217Z" style="fill:#1659a9;fill-rule:nonzero;"/><path d="M927.98,1674.93c0,20.742 16.349,37.551 36.522,37.551l810.356,0c20.169,0 36.518,-16.809 36.518,-37.551l0,-146.54c0,-20.738 -16.349,-37.547 -36.518,-37.547l-810.356,0c-20.173,0 -36.522,16.809 -36.522,37.547l0,146.54Z" style="fill:#3e75ba;fill-rule:nonzero;"/><path d="M1774.86,1712.48l-315.154,0c-20.165,0 -36.518,-16.809 -36.518,-37.551l0,-146.54c0,-14.406 7.886,-26.912 19.462,-33.211c7.022,0.053 13.642,0.072 19.841,0.072c44.898,0 68.217,-1.159 68.217,-1.159c0.471,0.005 0.933,0.005 1.4,0.005c10.907,0 21.688,-1.06 31.551,-3.254l211.201,0c20.169,0 36.518,16.809 36.518,37.547l0,146.54c0,11.836 -5.327,22.395 -13.646,29.277c-0.495,0.409 -0.998,0.803 -1.516,1.188c-6.005,4.455 -13.382,7.086 -21.356,7.086Z" style="fill:#1659a9;fill-rule:nonzero;"/><path d="M1399.27,1026.76c-30.835,2.29 -41.511,152.363 -43.627,158.942c-2.12,6.569 -83.789,135.287 -83.789,135.287l16.792,17.85c0,0 112.393,-108.988 116.048,-148.445c3.654,-39.461 22.049,-165.667 -5.424,-163.634Z" style="fill:#182e35;fill-rule:nonzero;"/><path d="M1377.28,1240.79c-21.758,-47.825 11.78,-153.75 11.78,-153.75c0,0 0,0.005 0.009,0.019c-0.905,13.456 -1.566,30.432 -1.095,50.533c0.513,22.181 2.403,48.167 6.86,77.483c-4.67,7.975 -10.717,16.705 -17.554,25.715Z" style="fill:#0f2329;fill-rule:nonzero;"/><path d="M1242,1736.03l30.397,-12.453l-11.873,-45.57l-10.953,-41.788l-38.43,8.749l16.317,48.215l14.542,42.847Z" style="fill:#fbb474;fill-rule:nonzero;"/><path d="M1260.76,1678.91l-0.236,-0.898l-5.765,-21.996l0.074,-0.014l6.024,22.865l-0.097,0.043Z" style="fill:#2b64b0;fill-rule:nonzero;"/><path d="M1227.84,1694.15l-10.08,-29.724l37.007,-8.412l5.765,21.996l0.236,0.898l-32.928,15.242Z" style="fill:#cd925a;fill-rule:nonzero;"/><path d="M1472.02,1325.58c0,0 -254.005,-35.214 -324.666,11.129c-70.665,46.353 66.115,328.693 66.115,328.693l42.772,-9.722c0,0 -32.055,-223.79 -29.657,-233.171c2.402,-9.386 122.03,51.701 285.779,57.486l-40.343,-154.415Z" style="fill:#3e75ba;fill-rule:nonzero;"/><path d="M1213.47,1665.4c0,0 -12.838,-26.499 -28.618,-64.601c23.028,-20.025 41.622,-37.656 56.418,-52.59c7.475,55.117 14.972,107.469 14.972,107.469l-1.478,0.332l-37.007,8.412l-0.023,0.005l-4.264,0.973Zm-61.186,-151.911c-14.182,-43.527 -25.218,-88.484 -25.199,-122.958c0.013,-24.884 5.779,-44.315 20.27,-53.824c3.141,-2.057 6.643,-3.957 10.468,-5.704l10.098,47.089c1.049,4.958 5.742,8.559 10.482,8.559l2.619,0c0.217,3.367 4.186,4.75 7.53,4.75l85.453,0c-12.944,6.483 -25.45,14.263 -36.693,23.606c-0.615,0.508 -2.772,2.859 -6.195,6.726c-0.883,-0.133 -1.64,-0.205 -2.268,-0.205c-1.326,0 -2.093,0.314 -2.264,0.979c-0.083,0.337 -0.125,0.959 -0.125,1.833c0,0.708 0.028,1.572 0.079,2.598c-14.852,16.981 -43.115,50.001 -74.255,86.551Zm206.346,-149.053l-10.819,-50.138c19.735,0.997 38.578,2.384 55.342,3.833c-0.873,10.145 -1.755,21.635 -2.37,29.899c-1.921,-0.123 -3.82,-0.199 -5.617,-0.199c-3.959,0 -7.414,0.366 -9.452,1.354c-2.956,1.444 -6.55,6.63 -9.327,12.463c-5.27,0.703 -11.248,1.615 -17.757,2.788Z" style="fill:#9cbbe2;fill-rule:nonzero;"/><path d="M968.129,1722.04l23.541,23.368l35.515,-29.857l32.545,-27.448l-23.551,-32.422l-36.042,35.115l-32.008,31.244Z" style="fill:#fbb474;fill-rule:nonzero;"/><path d="M1000.95,1749.37c2.85,-2.275 -25.75,-37.215 -25.75,-37.215c0,0 -38.508,-5.614 -59.254,-23.72c-20.751,-18.101 -24.743,3.847 -7.161,28.337c17.582,24.49 31.002,43.175 43.498,60.579c12.496,17.398 19.102,-4.418 48.667,-27.981Z" style="fill:#263238;fill-rule:nonzero;"/><path d="M968.193,1710.51l0.929,0.641c0.018,-0.028 1.261,-1.919 2.513,-4.588c1.247,-2.669 2.536,-6.099 2.55,-9.366c0.032,-2.675 -1.007,-5.429 -3.761,-6.916c-0.979,-0.537 -1.861,-0.836 -2.725,-0.841c-1.33,-0.038 -2.435,0.893 -2.883,1.99c-0.485,1.102 -0.628,2.399 -0.633,3.843c0.019,6.213 2.943,15.527 2.948,15.584l1.062,-0.347l1.049,-0.404c-0.014,-0.028 -1.608,-4.441 -4.019,-8.91c-1.21,-2.237 -2.615,-4.489 -4.181,-6.241c-1.561,-1.734 -3.312,-3.083 -5.4,-3.111c-0.573,0 -1.15,0.114 -1.705,0.346c-0.974,0.414 -1.746,0.927 -2.3,1.596c-0.555,0.665 -0.846,1.511 -0.836,2.328c0.041,1.961 1.275,3.652 2.859,5.353c4.805,5.03 13.965,10.017 14.011,10.055c0.504,0.275 1.127,0.119 1.451,-0.371l-0.929,-0.641l0.527,-1.012c0,-0.004 -0.993,-0.546 -2.504,-1.458c-2.259,-1.368 -5.663,-3.557 -8.449,-5.866c-1.391,-1.154 -2.629,-2.337 -3.479,-3.424c-0.863,-1.083 -1.275,-2.062 -1.256,-2.636l0.309,-0.846c0.236,-0.294 0.689,-0.636 1.437,-0.95l0.864,-0.18c1.012,-0.024 2.384,0.812 3.76,2.37c2.061,2.299 4.038,5.928 5.451,8.958c0.712,1.515 1.289,2.878 1.686,3.866c0.398,0.983 0.61,1.577 0.61,1.577c0.213,0.584 0.836,0.888 1.409,0.684c0.573,-0.204 0.883,-0.841 0.702,-1.434c-0.004,-0.005 -0.716,-2.299 -1.427,-5.33c-0.716,-3.025 -1.423,-6.796 -1.418,-9.556c-0.005,-1.264 0.161,-2.308 0.425,-2.874c0.309,-0.565 0.402,-0.622 0.859,-0.665c0.328,0 0.896,0.138 1.668,0.57c1.935,1.098 2.55,2.698 2.587,4.893c0.009,2.631 -1.141,5.861 -2.329,8.369c-0.591,1.258 -1.182,2.341 -1.626,3.106c-0.443,0.765 -0.73,1.192 -0.73,1.192l0.924,0.646l0.527,-1.012l-0.527,1.012Z" style="fill:#5174b9;fill-rule:nonzero;"/><path d="M1026.57,1716.22l-0.079,-0.071l0.698,-0.594l3.645,-3.073l0.157,0l-4.421,3.738Z" style="fill:#769bd0;fill-rule:nonzero;"/><path d="M1030.99,1712.48l-0.157,0l10.934,-9.219l0.056,0.057l-10.833,9.162Z" style="fill:#2b64b0;fill-rule:nonzero;"/><path d="M1026.49,1716.15l-27.047,-24.599l16.492,-16.097l25.832,27.81l-10.934,9.219l-3.645,3.073l-0.698,0.594Z" style="fill:#cd925a;fill-rule:nonzero;"/><path d="M1399.95,1359.36c0,0 3.658,-51.678 5.349,-62.222c1.741,-11.195 4.037,-24.276 6.213,-30.945c11.179,-34.474 160.525,6.051 160.525,6.051c0,0 88.33,136.813 26.599,201.329c-13.688,14.311 -40.523,20.747 -67.935,20.519c0,0 -83.748,4.165 -239.486,-3.292c0,0 -54.825,83.929 -244.887,217.378l-30.997,-33.367c0,0 214.85,-253.889 221.974,-259.798c62.109,-51.587 162.645,-55.653 162.645,-55.653Z" style="fill:#3e75ba;fill-rule:nonzero;"/><path d="M1046.33,1708.18l-4.569,-4.916l-25.832,-27.81l-0.596,-0.641c0,0 214.85,-253.889 221.974,-259.798c11.243,-9.343 23.749,-17.123 36.693,-23.606l185.747,0c3.483,0 7.673,-1.468 7.673,-5.045l0,-13.954l-47.738,0c4.776,-2.209 46.481,-30.095 46.481,-30.095l-13.304,-16.729l-32.267,24.96c0,0 -10.163,-1.881 -19.814,-2.508c1.178,-15.835 3.336,-43.498 4.523,-50.898c0.887,-5.69 1.912,-11.87 2.998,-17.446l100.401,0.665l66.337,0.427c-0.13,-1.405 -0.254,-2.835 -0.374,-4.293c10.093,16.757 45.899,80.105 45.881,136.09c-0.005,22.756 -5.932,44.296 -21.906,60.992c-13.452,14.064 -39.617,20.524 -66.535,20.524c-0.467,0 -0.929,0 -1.4,-0.005c0,0 -23.319,1.159 -68.217,1.159c-40.199,0 -97.698,-0.926 -171.269,-4.451c0,0 -13.411,20.529 -49.952,57.415c-14.796,14.934 -33.39,32.565 -56.418,52.59c-35.099,30.531 -80.505,66.639 -138.517,107.373Zm326.223,-335.77l-12.205,0l-1.723,-7.966c6.509,-1.173 12.487,-2.085 17.757,-2.788c-1.699,3.581 -3.09,7.405 -3.829,10.754Z" style="fill:#afc8e9;fill-rule:nonzero;"/><path d="M1060.55,1703.12l-38.047,-43.08l-18.409,19.422l35.668,39.242l20.788,-15.584Z" style="fill:#3e75ba;fill-rule:nonzero;"/><path d="M1585.24,1075.62c-14.713,45.522 -15.401,148.331 -10.2,205.157l-167.084,-1.097c-28.738,-113.306 -19.028,-192.841 -16.57,-219.392c3.035,-32.313 7.899,-33.505 7.899,-33.505c0,0 34.055,-3.439 63.74,-3.211c22.941,0.827 45.84,3.306 68.471,7.433c16.829,2.888 33.474,6.736 49.873,11.547c7.29,2.138 11.359,10.108 8.925,17.484c-1.765,5.363 -3.451,10.554 -5.054,15.584Z" style="fill:#182e35;fill-rule:nonzero;"/><path d="M1408.3,1279.69l-0.351,0c-1.936,-7.638 -3.7,-15.123 -5.299,-22.447c1.603,7.319 3.363,14.8 5.299,22.438l0.351,0l0,0.009Z" style="fill:#4c7fc1;fill-rule:nonzero;"/><path d="M1508.7,1280.36l-100.401,-0.665l0,-0.009l100.406,0.66c0,0.005 -0.005,0.009 -0.005,0.014Z" style="fill:#b8ceeb;fill-rule:nonzero;"/><path d="M1399.27,1026.76c0,0 18.691,-1.871 40.435,-2.75c-19.744,0.808 -36.956,2.437 -39.959,2.731c-0.157,0 -0.314,0.01 -0.476,0.019Z" style="fill:#4c7fc1;fill-rule:nonzero;"/><path d="M1389.07,1087.07c-0.005,-0.005 -0.005,-0.01 -0.005,-0.01c0.776,-11.608 1.732,-20.609 2.301,-26.765c3.049,-32.298 7.899,-33.538 7.899,-33.538c0.162,-0.009 0.319,-0.019 0.476,-0.019c-0.305,0.029 -0.462,0.043 -0.462,0.043c0,0 -4.864,1.192 -7.899,33.505c-0.573,6.16 -1.529,15.166 -2.31,26.784Z" style="fill:#33464b;fill-rule:nonzero;"/><path d="M1387.97,1137.6c-0.471,-20.101 0.19,-37.077 1.095,-50.533c0,0 0,0.005 0.005,0.01c-0.906,13.461 -1.566,30.431 -1.1,50.523Z" style="fill:#2d3c40;fill-rule:nonzero;"/><path d="M1576.35,1121.85c2.079,-18.14 4.989,-34.189 8.883,-46.225c0.582,-1.838 1.183,-3.695 1.788,-5.576c-0.605,1.885 -1.201,3.752 -1.774,5.595c-3.88,12.017 -6.791,28.024 -8.87,46.168c-0.009,0.014 -0.018,0.028 -0.027,0.038Zm12.953,-58.812c0.328,-0.993 0.656,-1.99 0.984,-2.997c2.434,-7.376 -1.635,-15.346 -8.925,-17.484c-11.877,-3.481 -23.874,-6.464 -35.986,-8.939c0,-0.005 0,-0.005 -0.005,-0.009c12.122,2.479 24.119,5.457 35.996,8.929c7.298,2.138 11.364,10.117 8.915,17.527c-0.328,0.993 -0.656,1.985 -0.979,2.973Z" style="fill:#4c7fc1;fill-rule:nonzero;"/><path d="M1508.71,1280.34l-100.406,-0.66l-0.351,0c-1.936,-7.638 -3.696,-15.119 -5.299,-22.438c-10.264,-46.952 -13.932,-87.344 -14.681,-119.647c-0.466,-20.092 0.194,-37.062 1.1,-50.523c0.781,-11.618 1.737,-20.624 2.31,-26.784c3.035,-32.313 7.899,-33.505 7.899,-33.505c0,0 0.157,-0.014 0.462,-0.043c3.003,-0.294 20.215,-1.923 39.959,-2.731c1.478,-0.057 2.975,-0.114 4.476,-0.161c-24.834,15.902 -25.107,46.752 -25.107,48.119l0,0.048l11.78,-6.578l15.485,21.611l60.349,-22.547l29.307,22.547c0,0 12.269,-20.139 12.283,-39.19c0.005,-4.945 -0.817,-9.818 -2.896,-14.245c12.112,2.475 24.109,5.458 35.986,8.939c7.29,2.138 11.359,10.108 8.925,17.484c-0.328,1.007 -0.656,2.004 -0.984,2.997c-0.776,2.361 -1.538,4.702 -2.282,7.011c-0.605,1.881 -1.206,3.738 -1.788,5.576c-3.894,12.036 -6.804,28.085 -8.883,46.225c-20.562,30.028 -56.701,90.559 -67.644,158.495Z" style="fill:#33464b;fill-rule:nonzero;"/><path d="M1574.67,1276.49c0,-0.005 -0.005,-0.01 -0.01,-0.01c-0.96,-11.599 -1.69,-24.87 -2.12,-39.038c0.434,14.164 1.164,27.444 2.13,39.048Z" style="fill:#346db5;fill-rule:nonzero;"/><path d="M1575.04,1280.78l-66.337,-0.427c0,-0.005 0.005,-0.009 0.005,-0.014l66.327,0.437c-0.129,-1.406 -0.254,-2.841 -0.379,-4.299c0.005,0 0.01,0.005 0.01,0.01c0.12,1.458 0.244,2.888 0.374,4.293Z" style="fill:#90a7cf;fill-rule:nonzero;"/><path d="M1572.46,1180.51c0.573,-20.376 1.821,-40.563 3.895,-58.664c0.009,-0.01 0.018,-0.024 0.027,-0.038c-2.088,18.106 -3.344,38.311 -3.922,58.702Z" style="fill:#346db5;fill-rule:nonzero;"/><path d="M1575.04,1280.78l-66.327,-0.437c10.943,-67.936 47.082,-128.467 67.644,-158.495c-2.074,18.101 -3.322,38.288 -3.895,58.664c-0.249,9.01 -0.374,18.059 -0.374,26.984c0,10.231 0.157,20.295 0.453,29.947c0.43,14.168 1.16,27.439 2.12,39.038c0.125,1.458 0.25,2.893 0.379,4.299Z" style="fill:#26363b;fill-rule:nonzero;"/><path d="M1466.17,1342.31c0,0 -41.705,27.886 -46.481,30.095c-4.777,2.203 -35.71,9.984 -44.561,9.466c-8.846,-0.513 2.994,-28.979 10.588,-32.683c7.6,-3.696 34.883,1.353 34.883,1.353l32.267,-24.96l13.304,16.729Z" style="fill:#f5897d;fill-rule:nonzero;"/><path d="M1181.01,1372.41l0,13.954c0,3.577 4.098,5.045 7.539,5.045l271.2,0c3.483,0 7.673,-1.468 7.673,-5.045l0,-13.954l-286.412,0Z" style="fill:#182e35;fill-rule:nonzero;"/><path d="M1459.75,1391.4l-92.331,0c3.479,0 7.613,-1.468 7.613,-5.045l0,-13.954l-14.681,0l107.072,0l0,13.954c0,3.577 -4.19,5.045 -7.673,5.045Z" style="fill:#7b868a;fill-rule:nonzero;"/><path d="M1367.42,1391.4l-178.869,0c-3.344,0 -7.313,-1.383 -7.53,-4.75l173.737,0c4.698,0 7.714,-4.503 6.624,-9.462l-1.03,-4.787l14.681,0l0,13.954c0,3.577 -4.134,5.045 -7.613,5.045Z" style="fill:#616b6e;fill-rule:nonzero;"/><path d="M1135.63,1227.53l32.286,150.563c1.049,4.958 5.742,8.559 10.482,8.559l176.356,0c4.698,0 7.714,-4.503 6.624,-9.462l-32.244,-149.413c-1.09,-4.916 -5.742,-7.367 -10.477,-7.367l-176.361,0c-4.739,0 -7.714,2.204 -6.666,7.12Z" style="fill:#182e35;fill-rule:nonzero;"/><path d="M1348.76,1386.65l-170.36,0c-4.74,0 -9.433,-3.601 -10.482,-8.559l-32.286,-150.563c-0.143,-0.67 -0.208,-1.292 -0.208,-1.867c0.005,-3.61 2.786,-5.253 6.874,-5.253l170.36,0c4.74,0 9.433,2.451 10.482,7.367l32.29,149.413c1.044,4.959 -1.931,9.462 -6.67,9.462Zm-126.174,-82.599l0,0.048c0,12.891 13.443,23.364 23.296,23.364c9.854,0 15.693,-10.473 12.884,-23.364c-2.808,-12.635 -12.616,-22.937 -22.257,-23.326c2.809,12.895 -3.21,23.326 -13.022,23.326l-0.901,-0.048Z" style="fill:#7b868a;fill-rule:nonzero;"/><path d="M1245.88,1327.47c-9.853,0 -23.296,-10.473 -23.296,-23.364l0,-0.048l0.901,0.048c9.812,0 15.831,-10.431 13.022,-23.326c9.641,0.389 19.449,10.691 22.257,23.326c2.809,12.891 -3.03,23.364 -12.884,23.364Z" style="fill:#616b6e;fill-rule:nonzero;"/><path d="M1588.55,1047.84c-33.126,-27.345 -20.561,126.614 -36.194,161.691c-15.637,35.077 -108.721,117.942 -108.721,117.942l19.984,23.074c0,0 113.637,-64.43 129.597,-107.677c20.238,-54.845 19.781,-174.858 -4.666,-195.03Z" style="fill:#182e35;fill-rule:nonzero;"/><path d="M1443.63,1327.47l-12.782,11.086l17.536,21.92l15.23,-9.932l-19.984,-23.074Z" style="fill:#3e75ba;fill-rule:nonzero;"/><path d="M1258.61,1641.63l-53.837,17.944l9.651,25.241l49.457,-17.299l-5.271,-25.886Z" style="fill:#3e75ba;fill-rule:nonzero;"/><path d="M1226.58,1734.7l1.039,-0.418c-0.018,-0.043 -1.279,-3.354 -3.441,-6.726c-1.086,-1.691 -2.393,-3.396 -3.931,-4.731c-1.539,-1.32 -3.354,-2.299 -5.405,-2.303c-1.054,0 -2.144,0.27 -3.211,0.836c-0.85,0.451 -1.515,0.945 -2,1.543c-0.485,0.589 -0.776,1.325 -0.772,2.057c0.005,0.945 0.416,1.757 0.961,2.456c1.931,2.393 5.946,4.317 9.586,5.866c3.631,1.519 6.832,2.512 6.855,2.522l0.319,-1.102l0.272,-1.112c-0.046,-0.004 -7.137,-1.847 -13.415,-1.852c-2.166,0 -4.245,0.209 -5.982,0.864c-1.719,0.632 -3.224,1.867 -3.626,3.814c-0.12,0.561 -0.185,1.088 -0.185,1.587c-0.023,1.358 0.54,2.588 1.515,3.268c0.956,0.679 2.116,0.883 3.359,0.888c3.455,-0.019 7.991,-1.648 11.793,-3.239c3.788,-1.601 6.768,-3.188 6.786,-3.197c0.508,-0.271 0.735,-0.893 0.522,-1.439l-1.039,0.418l-0.513,-1.017c0,0 -0.721,0.385 -1.912,0.969c-1.788,0.874 -4.62,2.195 -7.558,3.282c-2.933,1.093 -6.001,1.938 -8.079,1.929c-0.994,0.004 -1.714,-0.2 -2.075,-0.471c-0.346,-0.28 -0.54,-0.555 -0.568,-1.391c0,-0.304 0.042,-0.67 0.134,-1.097c0.213,-0.969 0.873,-1.62 2.217,-2.152c1.322,-0.504 3.193,-0.727 5.211,-0.722c2.934,-0.005 6.172,0.442 8.657,0.893c2.49,0.446 4.213,0.893 4.218,0.893c0.587,0.152 1.183,-0.209 1.344,-0.808c0.162,-0.603 -0.171,-1.225 -0.753,-1.405c0,0 -1.011,-0.314 -2.55,-0.865c-2.305,-0.822 -5.774,-2.166 -8.601,-3.7c-1.414,-0.76 -2.666,-1.577 -3.502,-2.337c-0.864,-0.769 -1.187,-1.449 -1.159,-1.743l0.254,-0.589c0.212,-0.266 0.633,-0.617 1.307,-0.974c0.785,-0.408 1.497,-0.574 2.19,-0.579c1.325,0 2.67,0.651 3.968,1.771c1.945,1.668 3.672,4.323 4.864,6.546c0.596,1.111 1.067,2.118 1.386,2.84c0.323,0.722 0.481,1.149 0.485,1.149l1.035,-0.422l-0.513,-1.017l0.513,1.017Z" style="fill:#5174b9;fill-rule:nonzero;"/><path d="M1278.61,1722.73c-0.208,-3.705 -44.407,0.751 -44.407,0.751c0,0 -26.309,29.453 -52.571,36.782c-26.267,7.333 -10.93,23.15 18.663,22.115c29.588,-1.031 52.169,-1.824 73.192,-2.56c21.024,-0.741 7.276,-18.691 5.123,-57.088Z" style="fill:#263238;fill-rule:nonzero;"/><path d="M1494.71,1015.49c0,0 40.583,-3.373 50.663,18.12c10.08,21.488 -9.387,53.435 -9.387,53.435l-29.307,-22.547l-60.349,22.547l-15.485,-21.611l-11.78,6.578c0,0 -0.628,-66.074 75.645,-56.522Z" style="fill:#3e75ba;fill-rule:nonzero;"/><path d="M1535.99,1087.05l-29.307,-22.547l-60.349,22.547l-15.485,-21.611l-11.78,6.578l0,-0.048c0,-1.79 0.458,-53.947 55.652,-57.258c-1.834,13.052 -9.844,15.631 -9.844,15.631c-39.054,15.338 -13.369,48.909 -13.369,48.909c57.656,-20.044 72.961,-42.501 72.961,-42.501c-5.424,-5.263 -8.745,-12.525 -10.644,-20.614c11.983,1.582 26.151,5.956 31.552,17.479c2.079,4.427 2.901,9.3 2.896,14.245c-0.014,19.051 -12.283,39.19 -12.283,39.19Z" style="fill:#608dc9;fill-rule:nonzero;"/><path d="M1524.47,1036.75c0,0 -15.305,22.457 -72.961,42.501c0,0 -25.685,-33.571 13.369,-48.909c0,0 8.13,-2.612 9.885,-15.916c0.878,-6.412 0.278,-15.342 -3.464,-27.691c-0.416,-1.425 -0.924,-2.94 -1.432,-4.465l47.489,-30.536c0,0 -16.723,61.885 7.114,85.016Z" style="fill:#f5897d;fill-rule:nonzero;"/><path d="M1474.76,1014.43c0.227,-1.653 0.351,-3.472 0.356,-5.476c0.005,-5.767 -1.044,-13.048 -3.82,-22.215c17.323,-9.405 35.385,-17.289 35.385,-17.289c0,0 -2.54,34.911 -31.921,44.98Z" style="fill:#ce6f62;fill-rule:nonzero;"/><path d="M1445.79,867.235c0,0 -5.816,-40.872 36.536,-54.024c10.588,-3.292 21.264,-3.05 31.321,-0.841c34.813,7.642 59.236,39.922 60.428,76.504c1.293,39.946 -7.784,91.025 -63.837,86.403c-91.047,-7.514 -64.448,-108.042 -64.448,-108.042Z" style="fill:#182e35;fill-rule:nonzero;"/><path d="M1494.16,852.601c-39.206,-3.777 -53.794,16.59 -60.451,57.852c-8.315,51.573 -0.48,89.537 49.549,83.168c67.949,-8.649 76.015,-134.756 10.902,-141.02Z" style="fill:#f5897d;fill-rule:nonzero;"/><path d="M1459.27,910.643c0,0 -6.394,10.007 -12.93,15.617c0,0 2.855,5.809 9.918,5.557l3.012,-21.174Z" style="fill:#f15954;fill-rule:nonzero;"/><path d="M1483.56,909.655c-0.379,3.31 1.053,6.193 3.196,6.455c2.144,0.256 4.186,-2.214 4.564,-5.515c0.375,-3.306 -1.057,-6.194 -3.201,-6.455c-2.143,-0.256 -4.181,2.214 -4.559,5.515Z" style="fill:#182e35;fill-rule:nonzero;"/><path d="M1489,904.411l-6.671,-3.662c0,0 2.795,6.469 6.671,3.662Z" style="fill:#182e35;fill-rule:nonzero;"/><path d="M1443.69,904.15c-0.379,3.306 1.054,6.193 3.197,6.455c2.144,0.256 4.185,-2.214 4.564,-5.52c0.374,-3.301 -1.058,-6.189 -3.201,-6.445c-2.144,-0.261 -4.181,2.209 -4.56,5.51Z" style="fill:#182e35;fill-rule:nonzero;"/><path d="M1449.13,898.906l-6.671,-3.662c0,0 2.79,6.464 6.671,3.662Z" style="fill:#182e35;fill-rule:nonzero;"/><path d="M1486.55,883.578l0.213,-0.004c0.758,0 3.455,0.085 6.444,1.021c3.008,0.94 6.232,2.698 8.343,5.951c0.513,0.794 1.552,1.003 2.324,0.475c0.767,-0.527 0.975,-1.6 0.457,-2.389c-2.698,-4.142 -6.698,-6.251 -10.149,-7.329c-3.46,-1.083 -6.449,-1.168 -7.419,-1.168l-0.333,0.005c-0.924,0.033 -1.644,0.831 -1.612,1.781c0.032,0.95 0.809,1.691 1.732,1.657Z" style="fill:#182e35;fill-rule:nonzero;"/><path d="M1458.88,875.86c-0.162,-0.081 -2.523,-1.221 -6.361,-1.221c-2.966,-0.004 -6.81,0.694 -11.087,3.064c-0.813,0.451 -1.118,1.491 -0.679,2.332c0.434,0.836 1.45,1.15 2.263,0.698c3.788,-2.09 7.036,-2.65 9.503,-2.65c1.593,0 2.859,0.237 3.709,0.465c0.425,0.114 0.744,0.228 0.947,0.309l0.222,0.09l0.037,0.019l0.148,-0.327l-0.153,0.323l0.005,0.004l0.148,-0.327l-0.153,0.323c0.832,0.408 1.834,0.052 2.236,-0.808c0.397,-0.855 0.046,-1.885 -0.785,-2.294Z" style="fill:#182e35;fill-rule:nonzero;"/><path d="M1530.82,924.664c0,0 -15.314,-34.882 -10.21,-60.184c0,0 -74.716,-40.117 -85.937,40.596c0,0 -1.035,-72.729 66.508,-67.846c67.436,4.883 58.026,106.238 20.469,133.098c0,0 18.626,-23.858 9.17,-45.664Z" style="fill:#182e35;fill-rule:nonzero;"/><path d="M1523.65,932.563c0.85,-6.469 8.366,-16.824 19.985,-14.382c12.024,2.531 15.48,28.736 -15.3,31.994c-4.417,0.465 -6.468,-4.128 -4.685,-17.612Z" style="fill:#f5897d;fill-rule:nonzero;"/><path d="M1450.2,947.377c2.153,4.798 4.287,13.803 4.287,13.803c0.832,-0.052 1.654,-0.104 2.481,-0.199c11.211,-0.993 16.094,-5.258 18.109,-9.695c1.09,-2.427 1.298,-4.93 1.205,-6.953c-0.083,-2.337 -0.66,-3.985 -0.66,-3.985c-5.641,4.179 -16.021,5.932 -21.606,6.63c-2.333,0.314 -3.816,0.399 -3.816,0.399Z" style="fill:#182e35;fill-rule:nonzero;"/><path d="M1454.02,946.978l1.367,4.033c10.556,-0.96 17.869,-3.092 20.899,-6.678c-0.083,-2.337 -0.66,-3.985 -0.66,-3.985c-5.641,4.179 -16.021,5.932 -21.606,6.63Z" style="fill:#fff;fill-rule:nonzero;"/><path d="M1456.97,960.981c11.211,-0.993 16.094,-5.258 18.109,-9.695c-3.812,0.49 -8.348,1.516 -12.238,3.643c-2.984,1.606 -4.758,3.843 -5.871,6.052Z" style="fill:#f15954;fill-rule:nonzero;"/><path d="M1562.31,893.738c0,0 -18.852,-30.835 13.129,-43.047c31.981,-12.216 63.047,30.123 43.862,59.448c-19.189,29.335 -49.803,18.586 -49.803,18.586l-7.188,-34.987Z" style="fill:#182e35;fill-rule:nonzero;"/></g><path d="M1348.15,840.049c0,-26.105 -21.194,-47.299 -47.299,-47.299l-94.598,0c-26.106,0 -47.3,21.194 -47.3,47.299l0,94.598c0,26.105 21.194,47.3 47.3,47.3l94.598,0c26.105,0 47.299,-21.195 47.299,-47.3l0,-94.598Z" style="fill:#3e75ba;"/><path d="M1290.22,884.459l-60.891,29.065l1.104,-60.339l59.787,31.274Z" style="fill:#e6e6e6;"/></g></svg>