<svg width="500" height="501" viewBox="0 0 500 501" fill="none" xmlns="http://www.w3.org/2000/svg">
<g clip-path="url(#clip0_590_1267)">
<path d="M577.425 433.198H-73V433.523H577.425V433.198Z" fill="#EBEBEB"/>
<path d="M512.254 454.138H469.167V454.463H512.254V454.138Z" fill="#EBEBEB"/>
<path d="M357.867 457.667H346.559V457.993H357.867V457.667Z" fill="#EBEBEB"/>
<path d="M467.865 442.058H442.899V442.383H467.865V442.058Z" fill="#EBEBEB"/>
<path d="M51.4288 444.243H-4.75879V444.568H51.4288V444.243Z" fill="#EBEBEB"/>
<path d="M71.25 444.243H63.0117V444.568H71.25V444.243Z" fill="#EBEBEB"/>
<path d="M219.882 449.737H98.0239V450.062H219.882V449.737Z" fill="#EBEBEB"/>
<path d="M235.32 375.183H-15.8731C-19.9669 375.183 -23.2983 371.852 -23.2983 367.758V14.666C-23.2983 10.5722 -19.9669 7.24072 -15.8731 7.24072H235.32C239.412 7.24072 242.744 10.5722 242.744 14.666V367.758C242.744 371.852 239.412 375.183 235.32 375.183ZM-15.8731 7.56724C-19.7886 7.56724 -22.9731 10.7517 -22.9731 14.6673V367.759C-22.9731 371.675 -19.7886 374.86 -15.8731 374.86H235.32C239.234 374.86 242.418 371.675 242.418 367.759V14.666C242.418 10.7517 239.234 7.56594 235.32 7.56594L-15.8731 7.56724Z" fill="#EBEBEB"/>
<path d="M516.688 375.183H265.497C261.403 375.183 258.073 371.852 258.073 367.758V14.666C258.073 10.5722 261.404 7.24072 265.497 7.24072H516.688C520.783 7.24072 524.113 10.5722 524.113 14.666V367.758C524.115 371.852 520.783 375.183 516.688 375.183ZM265.497 7.56724C261.582 7.56724 258.398 10.7517 258.398 14.6673V367.759C258.398 371.675 261.582 374.86 265.497 374.86H516.688C520.604 374.86 523.788 371.675 523.788 367.759V14.666C523.788 10.7517 520.604 7.56594 516.688 7.56594L265.497 7.56724Z" fill="#EBEBEB"/>
<path d="M490.813 33.335H13.6119V379.978H490.813V33.335Z" fill="#E0E0E0"/>
<path d="M485.064 39.8242H20.6611V372.842H485.064V39.8242Z" fill="#F5F5F5"/>
<path d="M20.6611 292.189V372.842H485.064V281.782H472.056V254.465H464.251V236.253H453.844V208.935H451.242V236.253H440.836V254.465H433.03V281.782H418.721V289.587H412.217V319.507H410.916V276.579H407.013V303.897H403.111V238.854H400.509V266.172H390.102V257.066H386.2V219.342H383.88H378.395V181.617H375.793V186.82H322.458V171.21H313.352V111.371H309.45V171.21H296.441V186.82H291.238V264.871H263.92V241.456H273.026V237.554H263.92V231.049H237.903V171.21H231.399V162.104H200.178V171.21H196.276V254.465H181.966V292.189H174.161V262.27H167.657V254.465H153.348V227.147H145.543V208.935H136.437V181.617H132.534V208.935H123.428V227.147H115.623V254.465H101.314V262.27H94.8096V292.189H85.7036V212.837H81.8011V240.155H70.0934V292.189H64.89V192.024H60.9875V154.299H57.0849V167.841L33.6696 178.794V192.024H23.2628V292.189H20.6611Z" fill="#E6E6E6"/>
<path d="M346.062 190.898H342.377V194.584H346.062V190.898Z" fill="#F0F0F0"/>
<path d="M346.062 197.078H342.377V200.763H346.062V197.078Z" fill="#F0F0F0"/>
<path d="M346.062 221.793H342.377V225.479H346.062V221.793Z" fill="#F0F0F0"/>
<path d="M346.062 227.973H342.377V231.658H346.062V227.973Z" fill="#F0F0F0"/>
<path d="M346.062 234.151H342.377V237.837H346.062V234.151Z" fill="#F0F0F0"/>
<path d="M346.062 252.688H342.377V256.374H346.062V252.688Z" fill="#F0F0F0"/>
<path d="M346.062 258.868H342.377V262.553H346.062V258.868Z" fill="#F0F0F0"/>
<path d="M340.208 215.615H336.523V219.3H340.208V215.615Z" fill="#F0F0F0"/>
<path d="M340.208 221.793H336.523V225.479H340.208V221.793Z" fill="#F0F0F0"/>
<path d="M340.208 227.973H336.523V231.658H340.208V227.973Z" fill="#F0F0F0"/>
<path d="M340.208 234.151H336.523V237.837H340.208V234.151Z" fill="#F0F0F0"/>
<path d="M340.208 240.331H336.523V244.016H340.208V240.331Z" fill="#F0F0F0"/>
<path d="M340.208 252.688H336.523V256.374H340.208V252.688Z" fill="#F0F0F0"/>
<path d="M340.208 258.868H336.523V262.553H340.208V258.868Z" fill="#F0F0F0"/>
<path d="M334.355 190.898H330.669V194.584H334.355V190.898Z" fill="#F0F0F0"/>
<path d="M334.355 197.078H330.669V200.763H334.355V197.078Z" fill="#F0F0F0"/>
<path d="M334.355 203.256H330.669V206.942H334.355V203.256Z" fill="#F0F0F0"/>
<path d="M334.355 209.436H330.669V213.121H334.355V209.436Z" fill="#F0F0F0"/>
<path d="M334.355 215.615H330.669V219.3H334.355V215.615Z" fill="#F0F0F0"/>
<path d="M334.355 221.793H330.669V225.479H334.355V221.793Z" fill="#F0F0F0"/>
<path d="M334.355 227.973H330.669V231.658H334.355V227.973Z" fill="#F0F0F0"/>
<path d="M334.355 234.151H330.669V237.837H334.355V234.151Z" fill="#F0F0F0"/>
<path d="M334.355 240.331H330.669V244.016H334.355V240.331Z" fill="#F0F0F0"/>
<path d="M334.355 246.51H330.669V250.195H334.355V246.51Z" fill="#F0F0F0"/>
<path d="M334.355 258.868H330.669V262.553H334.355V258.868Z" fill="#F0F0F0"/>
<path d="M328.501 190.898H324.815V194.584H328.501V190.898Z" fill="#F0F0F0"/>
<path d="M328.501 197.078H324.815V200.763H328.501V197.078Z" fill="#F0F0F0"/>
<path d="M328.501 203.256H324.815V206.942H328.501V203.256Z" fill="#F0F0F0"/>
<path d="M328.501 209.436H324.815V213.121H328.501V209.436Z" fill="#F0F0F0"/>
<path d="M328.501 215.615H324.815V219.3H328.501V215.615Z" fill="#F0F0F0"/>
<path d="M328.501 221.793H324.815V225.479H328.501V221.793Z" fill="#F0F0F0"/>
<path d="M328.501 227.973H324.815V231.658H328.501V227.973Z" fill="#F0F0F0"/>
<path d="M328.501 283.584H324.815V287.269H328.501V283.584Z" fill="#F0F0F0"/>
<path d="M322.647 190.898H318.962V194.584H322.647V190.898Z" fill="#F0F0F0"/>
<path d="M322.647 197.078H318.962V200.763H322.647V197.078Z" fill="#F0F0F0"/>
<path d="M322.647 203.256H318.962V206.942H322.647V203.256Z" fill="#F0F0F0"/>
<path d="M322.647 209.436H318.962V213.121H322.647V209.436Z" fill="#F0F0F0"/>
<path d="M322.647 215.615H318.962V219.3H322.647V215.615Z" fill="#F0F0F0"/>
<path d="M322.647 221.793H318.962V225.479H322.647V221.793Z" fill="#F0F0F0"/>
<path d="M322.647 227.973H318.962V231.658H322.647V227.973Z" fill="#F0F0F0"/>
<path d="M322.647 234.151H318.962V237.837H322.647V234.151Z" fill="#F0F0F0"/>
<path d="M322.647 271.226H318.962V274.911H322.647V271.226Z" fill="#F0F0F0"/>
<path d="M322.647 277.405H318.962V281.09H322.647V277.405Z" fill="#F0F0F0"/>
<path d="M322.647 283.584H318.962V287.269H322.647V283.584Z" fill="#F0F0F0"/>
<path d="M322.647 289.763H318.962V293.448H322.647V289.763Z" fill="#F0F0F0"/>
<path d="M322.647 314.479H318.962V318.164H322.647V314.479Z" fill="#F0F0F0"/>
<path d="M316.793 190.898H313.108V194.584H316.793V190.898Z" fill="#F0F0F0"/>
<path d="M316.793 197.078H313.108V200.763H316.793V197.078Z" fill="#F0F0F0"/>
<path d="M316.793 203.256H313.108V206.942H316.793V203.256Z" fill="#F0F0F0"/>
<path d="M316.793 209.436H313.108V213.121H316.793V209.436Z" fill="#F0F0F0"/>
<path d="M316.793 215.615H313.108V219.3H316.793V215.615Z" fill="#F0F0F0"/>
<path d="M316.793 221.793H313.108V225.479H316.793V221.793Z" fill="#F0F0F0"/>
<path d="M316.793 227.973H313.108V231.658H316.793V227.973Z" fill="#F0F0F0"/>
<path d="M316.793 234.151H313.108V237.837H316.793V234.151Z" fill="#F0F0F0"/>
<path d="M316.793 240.331H313.108V244.016H316.793V240.331Z" fill="#F0F0F0"/>
<path d="M316.793 246.51H313.108V250.195H316.793V246.51Z" fill="#F0F0F0"/>
<path d="M316.793 265.047H313.108V268.732H316.793V265.047Z" fill="#F0F0F0"/>
<path d="M316.793 271.226H313.108V274.911H316.793V271.226Z" fill="#F0F0F0"/>
<path d="M316.793 277.405H313.108V281.09H316.793V277.405Z" fill="#F0F0F0"/>
<path d="M316.793 283.584H313.108V287.269H316.793V283.584Z" fill="#F0F0F0"/>
<path d="M316.793 289.763H313.108V293.448H316.793V289.763Z" fill="#F0F0F0"/>
<path d="M316.793 314.479H313.108V318.164H316.793V314.479Z" fill="#F0F0F0"/>
<path d="M310.939 190.898H307.254V194.584H310.939V190.898Z" fill="#F0F0F0"/>
<path d="M310.939 197.078H307.254V200.763H310.939V197.078Z" fill="#F0F0F0"/>
<path d="M310.939 203.256H307.254V206.942H310.939V203.256Z" fill="#F0F0F0"/>
<path d="M310.939 209.436H307.254V213.121H310.939V209.436Z" fill="#F0F0F0"/>
<path d="M310.939 215.615H307.254V219.3H310.939V215.615Z" fill="#F0F0F0"/>
<path d="M310.939 221.793H307.254V225.479H310.939V221.793Z" fill="#F0F0F0"/>
<path d="M310.939 227.973H307.254V231.658H310.939V227.973Z" fill="#F0F0F0"/>
<path d="M310.939 234.151H307.254V237.837H310.939V234.151Z" fill="#F0F0F0"/>
<path d="M310.939 240.331H307.254V244.016H310.939V240.331Z" fill="#F0F0F0"/>
<path d="M310.939 246.51H307.254V250.195H310.939V246.51Z" fill="#F0F0F0"/>
<path d="M310.939 252.688H307.254V256.374H310.939V252.688Z" fill="#F0F0F0"/>
<path d="M310.939 258.868H307.254V262.553H310.939V258.868Z" fill="#F0F0F0"/>
<path d="M310.939 265.047H307.254V268.732H310.939V265.047Z" fill="#F0F0F0"/>
<path d="M310.939 271.226H307.254V274.911H310.939V271.226Z" fill="#F0F0F0"/>
<path d="M310.939 277.405H307.254V281.09H310.939V277.405Z" fill="#F0F0F0"/>
<path d="M310.939 283.584H307.254V287.269H310.939V283.584Z" fill="#F0F0F0"/>
<path d="M310.939 289.763H307.254V293.448H310.939V289.763Z" fill="#F0F0F0"/>
<path d="M310.939 295.942H307.254V299.627H310.939V295.942Z" fill="#F0F0F0"/>
<path d="M305.085 190.898H301.4V194.584H305.085V190.898Z" fill="#F0F0F0"/>
<path d="M305.085 197.078H301.4V200.763H305.085V197.078Z" fill="#F0F0F0"/>
<path d="M305.085 203.256H301.4V206.942H305.085V203.256Z" fill="#F0F0F0"/>
<path d="M305.085 209.436H301.4V213.121H305.085V209.436Z" fill="#F0F0F0"/>
<path d="M305.085 215.615H301.4V219.3H305.085V215.615Z" fill="#F0F0F0"/>
<path d="M305.085 221.793H301.4V225.479H305.085V221.793Z" fill="#F0F0F0"/>
<path d="M305.085 227.973H301.4V231.658H305.085V227.973Z" fill="#F0F0F0"/>
<path d="M305.085 234.151H301.4V237.837H305.085V234.151Z" fill="#F0F0F0"/>
<path d="M305.085 240.331H301.4V244.016H305.085V240.331Z" fill="#F0F0F0"/>
<path d="M305.085 246.51H301.4V250.195H305.085V246.51Z" fill="#F0F0F0"/>
<path d="M305.085 265.047H301.4V268.732H305.085V265.047Z" fill="#F0F0F0"/>
<path d="M305.085 271.226H301.4V274.911H305.085V271.226Z" fill="#F0F0F0"/>
<path d="M305.085 277.405H301.4V281.09H305.085V277.405Z" fill="#F0F0F0"/>
<path d="M305.085 283.584H301.4V287.269H305.085V283.584Z" fill="#F0F0F0"/>
<path d="M299.232 190.898H295.546V194.584H299.232V190.898Z" fill="#F0F0F0"/>
<path d="M299.232 197.078H295.546V200.763H299.232V197.078Z" fill="#F0F0F0"/>
<path d="M299.232 203.256H295.546V206.942H299.232V203.256Z" fill="#F0F0F0"/>
<path d="M299.232 209.436H295.546V213.121H299.232V209.436Z" fill="#F0F0F0"/>
<path d="M299.232 215.615H295.546V219.3H299.232V215.615Z" fill="#F0F0F0"/>
<path d="M299.232 221.793H295.546V225.479H299.232V221.793Z" fill="#F0F0F0"/>
<path d="M299.232 227.973H295.546V231.658H299.232V227.973Z" fill="#F0F0F0"/>
<path d="M299.232 234.151H295.546V237.837H299.232V234.151Z" fill="#F0F0F0"/>
<path d="M299.232 240.331H295.546V244.016H299.232V240.331Z" fill="#F0F0F0"/>
<path d="M299.232 246.51H295.546V250.195H299.232V246.51Z" fill="#F0F0F0"/>
<path d="M299.232 265.047H295.546V268.732H299.232V265.047Z" fill="#F0F0F0"/>
<path d="M299.232 271.226H295.546V274.911H299.232V271.226Z" fill="#F0F0F0"/>
<path d="M299.232 277.405H295.546V281.09H299.232V277.405Z" fill="#F0F0F0"/>
<path d="M233.321 174.855H229.636V178.54H233.321V174.855Z" fill="#F0F0F0"/>
<path d="M233.321 181.034H229.636V184.719H233.321V181.034Z" fill="#F0F0F0"/>
<path d="M233.321 187.213H229.636V190.898H233.321V187.213Z" fill="#F0F0F0"/>
<path d="M233.321 193.392H229.636V197.077H233.321V193.392Z" fill="#F0F0F0"/>
<path d="M233.321 199.571H229.636V203.256H233.321V199.571Z" fill="#F0F0F0"/>
<path d="M233.321 205.75H229.636V209.435H233.321V205.75Z" fill="#F0F0F0"/>
<path d="M233.321 211.929H229.636V215.614H233.321V211.929Z" fill="#F0F0F0"/>
<path d="M233.321 218.108H229.636V221.793H233.321V218.108Z" fill="#F0F0F0"/>
<path d="M233.321 236.645H229.636V240.33H233.321V236.645Z" fill="#F0F0F0"/>
<path d="M233.321 242.824H229.636V246.51H233.321V242.824Z" fill="#F0F0F0"/>
<path d="M227.468 174.855H223.782V178.54H227.468V174.855Z" fill="#F0F0F0"/>
<path d="M227.468 181.034H223.782V184.719H227.468V181.034Z" fill="#F0F0F0"/>
<path d="M227.468 187.213H223.782V190.898H227.468V187.213Z" fill="#F0F0F0"/>
<path d="M227.468 193.392H223.782V197.077H227.468V193.392Z" fill="#F0F0F0"/>
<path d="M227.468 199.571H223.782V203.256H227.468V199.571Z" fill="#F0F0F0"/>
<path d="M227.468 205.75H223.782V209.435H227.468V205.75Z" fill="#F0F0F0"/>
<path d="M227.468 211.929H223.782V215.614H227.468V211.929Z" fill="#F0F0F0"/>
<path d="M227.468 218.108H223.782V221.793H227.468V218.108Z" fill="#F0F0F0"/>
<path d="M227.468 242.824H223.782V246.51H227.468V242.824Z" fill="#F0F0F0"/>
<path d="M221.614 174.855H217.929V178.54H221.614V174.855Z" fill="#F0F0F0"/>
<path d="M221.614 181.034H217.929V184.719H221.614V181.034Z" fill="#F0F0F0"/>
<path d="M221.614 187.213H217.929V190.898H221.614V187.213Z" fill="#F0F0F0"/>
<path d="M221.614 193.392H217.929V197.077H221.614V193.392Z" fill="#F0F0F0"/>
<path d="M221.614 199.571H217.929V203.256H221.614V199.571Z" fill="#F0F0F0"/>
<path d="M221.614 205.75H217.929V209.435H221.614V205.75Z" fill="#F0F0F0"/>
<path d="M221.614 211.929H217.929V215.614H221.614V211.929Z" fill="#F0F0F0"/>
<path d="M221.614 218.108H217.929V221.793H221.614V218.108Z" fill="#F0F0F0"/>
<path d="M215.76 174.855H212.075V178.54H215.76V174.855Z" fill="#F0F0F0"/>
<path d="M215.76 181.034H212.075V184.719H215.76V181.034Z" fill="#F0F0F0"/>
<path d="M215.76 187.213H212.075V190.898H215.76V187.213Z" fill="#F0F0F0"/>
<path d="M215.76 193.392H212.075V197.077H215.76V193.392Z" fill="#F0F0F0"/>
<path d="M215.76 199.571H212.075V203.256H215.76V199.571Z" fill="#F0F0F0"/>
<path d="M215.76 205.75H212.075V209.435H215.76V205.75Z" fill="#F0F0F0"/>
<path d="M215.76 218.108H212.075V221.793H215.76V218.108Z" fill="#F0F0F0"/>
<path d="M215.76 224.287H212.075V227.972H215.76V224.287Z" fill="#F0F0F0"/>
<path d="M215.76 242.824H212.075V246.51H215.76V242.824Z" fill="#F0F0F0"/>
<path d="M215.76 249.003H212.075V252.688H215.76V249.003Z" fill="#F0F0F0"/>
<path d="M215.76 255.182H212.075V258.867H215.76V255.182Z" fill="#F0F0F0"/>
<path d="M215.76 261.361H212.075V265.047H215.76V261.361Z" fill="#F0F0F0"/>
<path d="M215.76 267.54H212.075V271.225H215.76V267.54Z" fill="#F0F0F0"/>
<path d="M215.76 273.719H212.075V277.405H215.76V273.719Z" fill="#F0F0F0"/>
<path d="M215.76 279.899H212.075V283.584H215.76V279.899Z" fill="#F0F0F0"/>
<path d="M209.906 174.855H206.221V178.54H209.906V174.855Z" fill="#F0F0F0"/>
<path d="M209.906 181.034H206.221V184.719H209.906V181.034Z" fill="#F0F0F0"/>
<path d="M209.906 187.213H206.221V190.898H209.906V187.213Z" fill="#F0F0F0"/>
<path d="M209.906 193.392H206.221V197.077H209.906V193.392Z" fill="#F0F0F0"/>
<path d="M209.906 199.571H206.221V203.256H209.906V199.571Z" fill="#F0F0F0"/>
<path d="M209.906 205.75H206.221V209.435H209.906V205.75Z" fill="#F0F0F0"/>
<path d="M209.906 224.287H206.221V227.972H209.906V224.287Z" fill="#F0F0F0"/>
<path d="M209.906 230.466H206.221V234.151H209.906V230.466Z" fill="#F0F0F0"/>
<path d="M209.906 236.645H206.221V240.33H209.906V236.645Z" fill="#F0F0F0"/>
<path d="M209.906 242.824H206.221V246.51H209.906V242.824Z" fill="#F0F0F0"/>
<path d="M209.906 249.003H206.221V252.688H209.906V249.003Z" fill="#F0F0F0"/>
<path d="M209.906 255.182H206.221V258.867H209.906V255.182Z" fill="#F0F0F0"/>
<path d="M209.906 261.361H206.221V265.047H209.906V261.361Z" fill="#F0F0F0"/>
<path d="M209.906 267.54H206.221V271.225H209.906V267.54Z" fill="#F0F0F0"/>
<path d="M209.906 273.719H206.221V277.405H209.906V273.719Z" fill="#F0F0F0"/>
<path d="M209.906 279.899H206.221V283.584H209.906V279.899Z" fill="#F0F0F0"/>
<path d="M209.906 286.078H206.221V289.763H209.906V286.078Z" fill="#F0F0F0"/>
<path d="M209.906 298.436H206.221V302.121H209.906V298.436Z" fill="#F0F0F0"/>
<path d="M204.052 174.855H200.367V178.54H204.052V174.855Z" fill="#F0F0F0"/>
<path d="M204.052 181.034H200.367V184.719H204.052V181.034Z" fill="#F0F0F0"/>
<path d="M204.052 187.213H200.367V190.898H204.052V187.213Z" fill="#F0F0F0"/>
<path d="M204.052 193.392H200.367V197.077H204.052V193.392Z" fill="#F0F0F0"/>
<path d="M204.052 199.571H200.367V203.256H204.052V199.571Z" fill="#F0F0F0"/>
<path d="M204.052 205.75H200.367V209.435H204.052V205.75Z" fill="#F0F0F0"/>
<path d="M204.052 224.287H200.367V227.972H204.052V224.287Z" fill="#F0F0F0"/>
<path d="M204.052 230.466H200.367V234.151H204.052V230.466Z" fill="#F0F0F0"/>
<path d="M204.052 236.645H200.367V240.33H204.052V236.645Z" fill="#F0F0F0"/>
<path d="M204.052 242.824H200.367V246.51H204.052V242.824Z" fill="#F0F0F0"/>
<path d="M204.052 261.361H200.367V265.047H204.052V261.361Z" fill="#F0F0F0"/>
<path d="M204.052 267.54H200.367V271.225H204.052V267.54Z" fill="#F0F0F0"/>
<path d="M204.052 273.719H200.367V277.405H204.052V273.719Z" fill="#F0F0F0"/>
<path d="M204.052 279.899H200.367V283.584H204.052V279.899Z" fill="#F0F0F0"/>
<path d="M204.052 286.078H200.367V289.763H204.052V286.078Z" fill="#F0F0F0"/>
<path d="M204.052 298.436H200.367V302.121H204.052V298.436Z" fill="#F0F0F0"/>
<path d="M204.052 304.615H200.367V308.3H204.052V304.615Z" fill="#F0F0F0"/>
<path d="M150.935 232.31H147.25V235.995H150.935V232.31Z" fill="#F0F0F0"/>
<path d="M150.935 238.489H147.25V242.174H150.935V238.489Z" fill="#F0F0F0"/>
<path d="M150.935 244.667H147.25V248.353H150.935V244.667Z" fill="#F0F0F0"/>
<path d="M150.935 250.847H147.25V254.532H150.935V250.847Z" fill="#F0F0F0"/>
<path d="M150.935 257.026H147.25V260.711H150.935V257.026Z" fill="#F0F0F0"/>
<path d="M150.935 263.205H147.25V266.89H150.935V263.205Z" fill="#F0F0F0"/>
<path d="M150.935 269.384H147.25V273.069H150.935V269.384Z" fill="#F0F0F0"/>
<path d="M150.935 287.921H147.25V291.606H150.935V287.921Z" fill="#F0F0F0"/>
<path d="M150.935 294.1H147.25V297.785H150.935V294.1Z" fill="#F0F0F0"/>
<path d="M150.935 300.279H147.25V303.964H150.935V300.279Z" fill="#F0F0F0"/>
<path d="M145.081 232.31H141.396V235.995H145.081V232.31Z" fill="#F0F0F0"/>
<path d="M145.081 238.489H141.396V242.174H145.081V238.489Z" fill="#F0F0F0"/>
<path d="M145.081 244.667H141.396V248.353H145.081V244.667Z" fill="#F0F0F0"/>
<path d="M145.081 250.847H141.396V254.532H145.081V250.847Z" fill="#F0F0F0"/>
<path d="M145.081 257.026H141.396V260.711H145.081V257.026Z" fill="#F0F0F0"/>
<path d="M145.081 263.205H141.396V266.89H145.081V263.205Z" fill="#F0F0F0"/>
<path d="M145.081 269.384H141.396V273.069H145.081V269.384Z" fill="#F0F0F0"/>
<path d="M139.227 232.31H135.542V235.995H139.227V232.31Z" fill="#F0F0F0"/>
<path d="M139.227 238.489H135.542V242.174H139.227V238.489Z" fill="#F0F0F0"/>
<path d="M139.227 244.667H135.542V248.353H139.227V244.667Z" fill="#F0F0F0"/>
<path d="M139.227 250.847H135.542V254.532H139.227V250.847Z" fill="#F0F0F0"/>
<path d="M139.227 257.026H135.542V260.711H139.227V257.026Z" fill="#F0F0F0"/>
<path d="M139.227 263.205H135.542V266.89H139.227V263.205Z" fill="#F0F0F0"/>
<path d="M139.227 269.384H135.542V273.069H139.227V269.384Z" fill="#F0F0F0"/>
<path d="M133.373 232.31H129.688V235.995H133.373V232.31Z" fill="#F0F0F0"/>
<path d="M133.373 238.489H129.688V242.174H133.373V238.489Z" fill="#F0F0F0"/>
<path d="M133.373 244.667H129.688V248.353H133.373V244.667Z" fill="#F0F0F0"/>
<path d="M133.373 250.847H129.688V254.532H133.373V250.847Z" fill="#F0F0F0"/>
<path d="M133.373 257.026H129.688V260.711H133.373V257.026Z" fill="#F0F0F0"/>
<path d="M133.373 263.205H129.688V266.89H133.373V263.205Z" fill="#F0F0F0"/>
<path d="M133.373 269.384H129.688V273.069H133.373V269.384Z" fill="#F0F0F0"/>
<path d="M133.373 275.563H129.688V279.248H133.373V275.563Z" fill="#F0F0F0"/>
<path d="M133.373 281.742H129.688V285.427H133.373V281.742Z" fill="#F0F0F0"/>
<path d="M133.373 287.921H129.688V291.606H133.373V287.921Z" fill="#F0F0F0"/>
<path d="M133.373 294.1H129.688V297.785H133.373V294.1Z" fill="#F0F0F0"/>
<path d="M127.52 232.31H123.834V235.995H127.52V232.31Z" fill="#F0F0F0"/>
<path d="M127.52 238.489H123.834V242.174H127.52V238.489Z" fill="#F0F0F0"/>
<path d="M127.52 244.667H123.834V248.353H127.52V244.667Z" fill="#F0F0F0"/>
<path d="M127.52 250.847H123.834V254.532H127.52V250.847Z" fill="#F0F0F0"/>
<path d="M127.52 257.026H123.834V260.711H127.52V257.026Z" fill="#F0F0F0"/>
<path d="M127.52 263.205H123.834V266.89H127.52V263.205Z" fill="#F0F0F0"/>
<path d="M127.52 269.384H123.834V273.069H127.52V269.384Z" fill="#F0F0F0"/>
<path d="M127.52 275.563H123.834V279.248H127.52V275.563Z" fill="#F0F0F0"/>
<path d="M127.52 281.742H123.834V285.427H127.52V281.742Z" fill="#F0F0F0"/>
<path d="M127.52 287.921H123.834V291.606H127.52V287.921Z" fill="#F0F0F0"/>
<path d="M127.52 294.1H123.834V297.785H127.52V294.1Z" fill="#F0F0F0"/>
<path d="M127.52 300.279H123.834V303.964H127.52V300.279Z" fill="#F0F0F0"/>
<path d="M127.52 318.816H123.834V322.501H127.52V318.816Z" fill="#F0F0F0"/>
<path d="M127.52 324.995H123.834V328.68H127.52V324.995Z" fill="#F0F0F0"/>
<path d="M121.666 232.31H117.98V235.995H121.666V232.31Z" fill="#F0F0F0"/>
<path d="M121.666 238.489H117.98V242.174H121.666V238.489Z" fill="#F0F0F0"/>
<path d="M121.666 244.667H117.98V248.353H121.666V244.667Z" fill="#F0F0F0"/>
<path d="M121.666 263.205H117.98V266.89H121.666V263.205Z" fill="#F0F0F0"/>
<path d="M121.666 269.384H117.98V273.069H121.666V269.384Z" fill="#F0F0F0"/>
<path d="M121.666 275.563H117.98V279.248H121.666V275.563Z" fill="#F0F0F0"/>
<path d="M121.666 281.742H117.98V285.427H121.666V281.742Z" fill="#F0F0F0"/>
<path d="M121.666 287.921H117.98V291.606H121.666V287.921Z" fill="#F0F0F0"/>
<path d="M121.666 294.1H117.98V297.785H121.666V294.1Z" fill="#F0F0F0"/>
<path d="M121.666 300.279H117.98V303.964H121.666V300.279Z" fill="#F0F0F0"/>
<path d="M121.666 318.816H117.98V322.501H121.666V318.816Z" fill="#F0F0F0"/>
<path d="M121.666 324.995H117.98V328.68H121.666V324.995Z" fill="#F0F0F0"/>
<path d="M121.666 331.174H117.98V334.859H121.666V331.174Z" fill="#F0F0F0"/>
<path d="M60.3085 195.235H56.6232V198.921H60.3085V195.235Z" fill="#F0F0F0"/>
<path d="M60.3085 201.415H56.6232V205.1H60.3085V201.415Z" fill="#F0F0F0"/>
<path d="M60.3085 207.594H56.6232V211.279H60.3085V207.594Z" fill="#F0F0F0"/>
<path d="M60.3085 213.772H56.6232V217.458H60.3085V213.772Z" fill="#F0F0F0"/>
<path d="M60.3085 219.952H56.6232V223.637H60.3085V219.952Z" fill="#F0F0F0"/>
<path d="M60.3085 226.131H56.6232V229.816H60.3085V226.131Z" fill="#F0F0F0"/>
<path d="M60.3085 232.31H56.6232V235.995H60.3085V232.31Z" fill="#F0F0F0"/>
<path d="M60.3085 238.489H56.6232V242.174H60.3085V238.489Z" fill="#F0F0F0"/>
<path d="M60.3085 244.667H56.6232V248.353H60.3085V244.667Z" fill="#F0F0F0"/>
<path d="M60.3085 250.847H56.6232V254.532H60.3085V250.847Z" fill="#F0F0F0"/>
<path d="M60.3085 257.026H56.6232V260.711H60.3085V257.026Z" fill="#F0F0F0"/>
<path d="M60.3085 263.205H56.6232V266.89H60.3085V263.205Z" fill="#F0F0F0"/>
<path d="M60.3085 269.384H56.6232V273.069H60.3085V269.384Z" fill="#F0F0F0"/>
<path d="M60.3085 275.563H56.6232V279.248H60.3085V275.563Z" fill="#F0F0F0"/>
<path d="M60.3085 281.742H56.6232V285.427H60.3085V281.742Z" fill="#F0F0F0"/>
<path d="M60.3085 287.921H56.6232V291.606H60.3085V287.921Z" fill="#F0F0F0"/>
<path d="M60.3085 294.1H56.6232V297.785H60.3085V294.1Z" fill="#F0F0F0"/>
<path d="M60.3085 300.279H56.6232V303.964H60.3085V300.279Z" fill="#F0F0F0"/>
<path d="M60.3085 306.458H56.6232V310.143H60.3085V306.458Z" fill="#F0F0F0"/>
<path d="M60.3085 312.637H56.6232V316.322H60.3085V312.637Z" fill="#F0F0F0"/>
<path d="M60.3085 318.816H56.6232V322.501H60.3085V318.816Z" fill="#F0F0F0"/>
<path d="M60.3085 324.995H56.6232V328.68H60.3085V324.995Z" fill="#F0F0F0"/>
<path d="M60.3085 331.174H56.6232V334.859H60.3085V331.174Z" fill="#F0F0F0"/>
<path d="M54.4547 195.235H50.7694V198.921H54.4547V195.235Z" fill="#F0F0F0"/>
<path d="M54.4547 201.415H50.7694V205.1H54.4547V201.415Z" fill="#F0F0F0"/>
<path d="M54.4547 207.594H50.7694V211.279H54.4547V207.594Z" fill="#F0F0F0"/>
<path d="M54.4547 213.772H50.7694V217.458H54.4547V213.772Z" fill="#F0F0F0"/>
<path d="M54.4547 219.952H50.7694V223.637H54.4547V219.952Z" fill="#F0F0F0"/>
<path d="M54.4547 226.131H50.7694V229.816H54.4547V226.131Z" fill="#F0F0F0"/>
<path d="M54.4547 232.31H50.7694V235.995H54.4547V232.31Z" fill="#F0F0F0"/>
<path d="M54.4547 238.489H50.7694V242.174H54.4547V238.489Z" fill="#F0F0F0"/>
<path d="M54.4547 244.667H50.7694V248.353H54.4547V244.667Z" fill="#F0F0F0"/>
<path d="M54.4547 250.847H50.7694V254.532H54.4547V250.847Z" fill="#F0F0F0"/>
<path d="M54.4547 257.026H50.7694V260.711H54.4547V257.026Z" fill="#F0F0F0"/>
<path d="M54.4547 263.205H50.7694V266.89H54.4547V263.205Z" fill="#F0F0F0"/>
<path d="M54.4547 269.384H50.7694V273.069H54.4547V269.384Z" fill="#F0F0F0"/>
<path d="M54.4547 275.563H50.7694V279.248H54.4547V275.563Z" fill="#F0F0F0"/>
<path d="M54.4547 281.742H50.7694V285.427H54.4547V281.742Z" fill="#F0F0F0"/>
<path d="M54.4547 287.921H50.7694V291.606H54.4547V287.921Z" fill="#F0F0F0"/>
<path d="M54.4547 294.1H50.7694V297.785H54.4547V294.1Z" fill="#F0F0F0"/>
<path d="M54.4547 300.279H50.7694V303.964H54.4547V300.279Z" fill="#F0F0F0"/>
<path d="M54.4547 306.458H50.7694V310.143H54.4547V306.458Z" fill="#F0F0F0"/>
<path d="M48.6008 195.235H44.9155V198.921H48.6008V195.235Z" fill="#F0F0F0"/>
<path d="M48.6008 201.415H44.9155V205.1H48.6008V201.415Z" fill="#F0F0F0"/>
<path d="M48.6008 207.594H44.9155V211.279H48.6008V207.594Z" fill="#F0F0F0"/>
<path d="M48.6008 213.772H44.9155V217.458H48.6008V213.772Z" fill="#F0F0F0"/>
<path d="M48.6008 219.952H44.9155V223.637H48.6008V219.952Z" fill="#F0F0F0"/>
<path d="M48.6008 226.131H44.9155V229.816H48.6008V226.131Z" fill="#F0F0F0"/>
<path d="M48.6008 232.31H44.9155V235.995H48.6008V232.31Z" fill="#F0F0F0"/>
<path d="M48.6008 238.489H44.9155V242.174H48.6008V238.489Z" fill="#F0F0F0"/>
<path d="M48.6008 244.667H44.9155V248.353H48.6008V244.667Z" fill="#F0F0F0"/>
<path d="M48.6008 250.847H44.9155V254.532H48.6008V250.847Z" fill="#F0F0F0"/>
<path d="M48.6008 257.026H44.9155V260.711H48.6008V257.026Z" fill="#F0F0F0"/>
<path d="M48.6008 263.205H44.9155V266.89H48.6008V263.205Z" fill="#F0F0F0"/>
<path d="M48.6008 269.384H44.9155V273.069H48.6008V269.384Z" fill="#F0F0F0"/>
<path d="M48.6008 275.563H44.9155V279.248H48.6008V275.563Z" fill="#F0F0F0"/>
<path d="M48.6008 281.742H44.9155V285.427H48.6008V281.742Z" fill="#F0F0F0"/>
<path d="M48.6008 287.921H44.9155V291.606H48.6008V287.921Z" fill="#F0F0F0"/>
<path d="M48.6008 294.1H44.9155V297.785H48.6008V294.1Z" fill="#F0F0F0"/>
<path d="M48.6008 300.279H44.9155V303.964H48.6008V300.279Z" fill="#F0F0F0"/>
<path d="M48.6008 306.458H44.9155V310.143H48.6008V306.458Z" fill="#F0F0F0"/>
<path d="M42.747 195.235H39.0616V198.921H42.747V195.235Z" fill="#F0F0F0"/>
<path d="M42.747 201.415H39.0616V205.1H42.747V201.415Z" fill="#F0F0F0"/>
<path d="M42.747 207.594H39.0616V211.279H42.747V207.594Z" fill="#F0F0F0"/>
<path d="M42.747 213.772H39.0616V217.458H42.747V213.772Z" fill="#F0F0F0"/>
<path d="M42.747 219.952H39.0616V223.637H42.747V219.952Z" fill="#F0F0F0"/>
<path d="M42.747 226.131H39.0616V229.816H42.747V226.131Z" fill="#F0F0F0"/>
<path d="M42.747 232.31H39.0616V235.995H42.747V232.31Z" fill="#F0F0F0"/>
<path d="M42.747 238.489H39.0616V242.174H42.747V238.489Z" fill="#F0F0F0"/>
<path d="M42.747 244.667H39.0616V248.353H42.747V244.667Z" fill="#F0F0F0"/>
<path d="M42.747 250.847H39.0616V254.532H42.747V250.847Z" fill="#F0F0F0"/>
<path d="M42.747 257.026H39.0616V260.711H42.747V257.026Z" fill="#F0F0F0"/>
<path d="M42.747 263.205H39.0616V266.89H42.747V263.205Z" fill="#F0F0F0"/>
<path d="M42.747 269.384H39.0616V273.069H42.747V269.384Z" fill="#F0F0F0"/>
<path d="M42.747 275.563H39.0616V279.248H42.747V275.563Z" fill="#F0F0F0"/>
<path d="M42.747 281.742H39.0616V285.427H42.747V281.742Z" fill="#F0F0F0"/>
<path d="M36.8932 195.235H33.2079V198.921H36.8932V195.235Z" fill="#F0F0F0"/>
<path d="M36.8932 201.415H33.2079V205.1H36.8932V201.415Z" fill="#F0F0F0"/>
<path d="M36.8932 207.594H33.2079V211.279H36.8932V207.594Z" fill="#F0F0F0"/>
<path d="M36.8932 213.772H33.2079V217.458H36.8932V213.772Z" fill="#F0F0F0"/>
<path d="M36.8932 219.952H33.2079V223.637H36.8932V219.952Z" fill="#F0F0F0"/>
<path d="M36.8932 226.131H33.2079V229.816H36.8932V226.131Z" fill="#F0F0F0"/>
<path d="M36.8932 232.31H33.2079V235.995H36.8932V232.31Z" fill="#F0F0F0"/>
<path d="M36.8932 238.489H33.2079V242.174H36.8932V238.489Z" fill="#F0F0F0"/>
<path d="M36.8932 244.667H33.2079V248.353H36.8932V244.667Z" fill="#F0F0F0"/>
<path d="M36.8932 250.847H33.2079V254.532H36.8932V250.847Z" fill="#F0F0F0"/>
<path d="M36.8932 257.026H33.2079V260.711H36.8932V257.026Z" fill="#F0F0F0"/>
<path d="M36.8932 263.205H33.2079V266.89H36.8932V263.205Z" fill="#F0F0F0"/>
<path d="M36.8932 269.384H33.2079V273.069H36.8932V269.384Z" fill="#F0F0F0"/>
<path d="M31.0394 195.235H27.3541V198.921H31.0394V195.235Z" fill="#F0F0F0"/>
<path d="M31.0394 201.415H27.3541V205.1H31.0394V201.415Z" fill="#F0F0F0"/>
<path d="M31.0394 207.594H27.3541V211.279H31.0394V207.594Z" fill="#F0F0F0"/>
<path d="M31.0394 213.772H27.3541V217.458H31.0394V213.772Z" fill="#F0F0F0"/>
<path d="M31.0394 219.952H27.3541V223.637H31.0394V219.952Z" fill="#F0F0F0"/>
<path d="M31.0394 226.131H27.3541V229.816H31.0394V226.131Z" fill="#F0F0F0"/>
<path d="M31.0394 232.31H27.3541V235.995H31.0394V232.31Z" fill="#F0F0F0"/>
<path d="M31.0394 238.489H27.3541V242.174H31.0394V238.489Z" fill="#F0F0F0"/>
<path d="M31.0394 244.667H27.3541V248.353H31.0394V244.667Z" fill="#F0F0F0"/>
<path d="M31.0394 250.847H27.3541V254.532H31.0394V250.847Z" fill="#F0F0F0"/>
<path d="M31.0394 257.026H27.3541V260.711H31.0394V257.026Z" fill="#F0F0F0"/>
<path d="M31.0394 263.205H27.3541V266.89H31.0394V263.205Z" fill="#F0F0F0"/>
<path d="M461.187 240.331H457.502V244.016H461.187V240.331Z" fill="#F0F0F0"/>
<path d="M461.187 246.51H457.502V250.195H461.187V246.51Z" fill="#F0F0F0"/>
<path d="M461.187 252.688H457.502V256.374H461.187V252.688Z" fill="#F0F0F0"/>
<path d="M461.187 258.868H457.502V262.553H461.187V258.868Z" fill="#F0F0F0"/>
<path d="M461.187 265.047H457.502V268.732H461.187V265.047Z" fill="#F0F0F0"/>
<path d="M461.187 271.226H457.502V274.911H461.187V271.226Z" fill="#F0F0F0"/>
<path d="M461.187 277.405H457.502V281.09H461.187V277.405Z" fill="#F0F0F0"/>
<path d="M461.187 283.584H457.502V287.269H461.187V283.584Z" fill="#F0F0F0"/>
<path d="M461.187 289.763H457.502V293.448H461.187V289.763Z" fill="#F0F0F0"/>
<path d="M461.187 295.942H457.502V299.627H461.187V295.942Z" fill="#F0F0F0"/>
<path d="M461.187 302.121H457.502V305.806H461.187V302.121Z" fill="#F0F0F0"/>
<path d="M461.187 308.3H457.502V311.985H461.187V308.3Z" fill="#F0F0F0"/>
<path d="M461.187 314.479H457.502V318.164H461.187V314.479Z" fill="#F0F0F0"/>
<path d="M461.187 320.658H457.502V324.343H461.187V320.658Z" fill="#F0F0F0"/>
<path d="M461.187 326.837H457.502V330.522H461.187V326.837Z" fill="#F0F0F0"/>
<path d="M461.187 333.016H457.502V336.701H461.187V333.016Z" fill="#F0F0F0"/>
<path d="M461.187 339.195H457.502V342.88H461.187V339.195Z" fill="#F0F0F0"/>
<path d="M461.187 345.374H457.502V349.059H461.187V345.374Z" fill="#F0F0F0"/>
<path d="M461.187 351.553H457.502V355.238H461.187V351.553Z" fill="#F0F0F0"/>
<path d="M461.187 357.732H457.502V361.417H461.187V357.732Z" fill="#F0F0F0"/>
<path d="M455.333 240.331H451.648V244.016H455.333V240.331Z" fill="#F0F0F0"/>
<path d="M455.333 246.51H451.648V250.195H455.333V246.51Z" fill="#F0F0F0"/>
<path d="M455.333 252.688H451.648V256.374H455.333V252.688Z" fill="#F0F0F0"/>
<path d="M455.333 258.868H451.648V262.553H455.333V258.868Z" fill="#F0F0F0"/>
<path d="M455.333 265.047H451.648V268.732H455.333V265.047Z" fill="#F0F0F0"/>
<path d="M455.333 271.226H451.648V274.911H455.333V271.226Z" fill="#F0F0F0"/>
<path d="M455.333 277.405H451.648V281.09H455.333V277.405Z" fill="#F0F0F0"/>
<path d="M455.333 283.584H451.648V287.269H455.333V283.584Z" fill="#F0F0F0"/>
<path d="M455.333 289.763H451.648V293.448H455.333V289.763Z" fill="#F0F0F0"/>
<path d="M455.333 295.942H451.648V299.627H455.333V295.942Z" fill="#F0F0F0"/>
<path d="M455.333 302.121H451.648V305.806H455.333V302.121Z" fill="#F0F0F0"/>
<path d="M455.333 308.3H451.648V311.985H455.333V308.3Z" fill="#F0F0F0"/>
<path d="M455.333 314.479H451.648V318.164H455.333V314.479Z" fill="#F0F0F0"/>
<path d="M455.333 320.658H451.648V324.343H455.333V320.658Z" fill="#F0F0F0"/>
<path d="M455.333 326.837H451.648V330.522H455.333V326.837Z" fill="#F0F0F0"/>
<path d="M455.333 333.016H451.648V336.701H455.333V333.016Z" fill="#F0F0F0"/>
<path d="M455.333 339.195H451.648V342.88H455.333V339.195Z" fill="#F0F0F0"/>
<path d="M455.333 345.374H451.648V349.059H455.333V345.374Z" fill="#F0F0F0"/>
<path d="M449.48 240.331H445.794V244.016H449.48V240.331Z" fill="#F0F0F0"/>
<path d="M449.48 246.51H445.794V250.195H449.48V246.51Z" fill="#F0F0F0"/>
<path d="M449.48 252.688H445.794V256.374H449.48V252.688Z" fill="#F0F0F0"/>
<path d="M449.48 258.868H445.794V262.553H449.48V258.868Z" fill="#F0F0F0"/>
<path d="M449.48 265.047H445.794V268.732H449.48V265.047Z" fill="#F0F0F0"/>
<path d="M449.48 271.226H445.794V274.911H449.48V271.226Z" fill="#F0F0F0"/>
<path d="M449.48 277.405H445.794V281.09H449.48V277.405Z" fill="#F0F0F0"/>
<path d="M449.48 283.584H445.794V287.269H449.48V283.584Z" fill="#F0F0F0"/>
<path d="M449.48 289.763H445.794V293.448H449.48V289.763Z" fill="#F0F0F0"/>
<path d="M449.48 295.942H445.794V299.627H449.48V295.942Z" fill="#F0F0F0"/>
<path d="M449.48 302.121H445.794V305.806H449.48V302.121Z" fill="#F0F0F0"/>
<path d="M449.48 308.3H445.794V311.985H449.48V308.3Z" fill="#F0F0F0"/>
<path d="M449.48 314.479H445.794V318.164H449.48V314.479Z" fill="#F0F0F0"/>
<path d="M449.48 320.658H445.794V324.343H449.48V320.658Z" fill="#F0F0F0"/>
<path d="M449.48 326.837H445.794V330.522H449.48V326.837Z" fill="#F0F0F0"/>
<path d="M449.48 333.016H445.794V336.701H449.48V333.016Z" fill="#F0F0F0"/>
<path d="M449.48 339.195H445.794V342.88H449.48V339.195Z" fill="#F0F0F0"/>
<path d="M449.48 345.374H445.794V349.059H449.48V345.374Z" fill="#F0F0F0"/>
<path d="M483.085 285.427H479.399V289.113H483.085V285.427Z" fill="#F0F0F0"/>
<path d="M483.085 291.606H479.399V295.292H483.085V291.606Z" fill="#F0F0F0"/>
<path d="M483.085 297.785H479.399V301.47H483.085V297.785Z" fill="#F0F0F0"/>
<path d="M483.085 303.964H479.399V307.65H483.085V303.964Z" fill="#F0F0F0"/>
<path d="M483.085 310.144H479.399V313.829H483.085V310.144Z" fill="#F0F0F0"/>
<path d="M483.085 316.322H479.399V320.008H483.085V316.322Z" fill="#F0F0F0"/>
<path d="M483.085 322.501H479.399V326.187H483.085V322.501Z" fill="#F0F0F0"/>
<path d="M483.085 328.681H479.399V332.366H483.085V328.681Z" fill="#F0F0F0"/>
<path d="M483.085 334.859H479.399V338.545H483.085V334.859Z" fill="#F0F0F0"/>
<path d="M483.085 341.039H479.399V344.724H483.085V341.039Z" fill="#F0F0F0"/>
<path d="M483.085 347.218H479.399V350.903H483.085V347.218Z" fill="#F0F0F0"/>
<path d="M483.085 353.396H479.399V357.082H483.085V353.396Z" fill="#F0F0F0"/>
<path d="M483.085 359.576H479.399V363.261H483.085V359.576Z" fill="#F0F0F0"/>
<path d="M477.231 285.427H473.546V289.113H477.231V285.427Z" fill="#F0F0F0"/>
<path d="M477.231 291.606H473.546V295.292H477.231V291.606Z" fill="#F0F0F0"/>
<path d="M477.231 297.785H473.546V301.47H477.231V297.785Z" fill="#F0F0F0"/>
<path d="M477.231 303.964H473.546V307.65H477.231V303.964Z" fill="#F0F0F0"/>
<path d="M477.231 310.144H473.546V313.829H477.231V310.144Z" fill="#F0F0F0"/>
<path d="M477.231 316.322H473.546V320.008H477.231V316.322Z" fill="#F0F0F0"/>
<path d="M477.231 322.501H473.546V326.187H477.231V322.501Z" fill="#F0F0F0"/>
<path d="M477.231 328.681H473.546V332.366H477.231V328.681Z" fill="#F0F0F0"/>
<path d="M477.231 334.859H473.546V338.545H477.231V334.859Z" fill="#F0F0F0"/>
<path d="M477.231 341.039H473.546V344.724H477.231V341.039Z" fill="#F0F0F0"/>
<path d="M477.231 347.218H473.546V350.903H477.231V347.218Z" fill="#F0F0F0"/>
<path d="M477.231 353.396H473.546V357.082H477.231V353.396Z" fill="#F0F0F0"/>
<path d="M477.231 359.576H473.546V363.261H477.231V359.576Z" fill="#F0F0F0"/>
<path d="M471.377 285.427H467.692V289.113H471.377V285.427Z" fill="#F0F0F0"/>
<path d="M471.377 291.606H467.692V295.292H471.377V291.606Z" fill="#F0F0F0"/>
<path d="M471.377 297.785H467.692V301.47H471.377V297.785Z" fill="#F0F0F0"/>
<path d="M471.377 303.964H467.692V307.65H471.377V303.964Z" fill="#F0F0F0"/>
<path d="M471.377 310.144H467.692V313.829H471.377V310.144Z" fill="#F0F0F0"/>
<path d="M471.377 316.322H467.692V320.008H471.377V316.322Z" fill="#F0F0F0"/>
<path d="M471.377 322.501H467.692V326.187H471.377V322.501Z" fill="#F0F0F0"/>
<path d="M471.377 328.681H467.692V332.366H471.377V328.681Z" fill="#F0F0F0"/>
<path d="M471.377 334.859H467.692V338.545H471.377V334.859Z" fill="#F0F0F0"/>
<path d="M471.377 341.039H467.692V344.724H471.377V341.039Z" fill="#F0F0F0"/>
<path d="M471.377 347.218H467.692V350.903H471.377V347.218Z" fill="#F0F0F0"/>
<path d="M471.377 353.396H467.692V357.082H471.377V353.396Z" fill="#F0F0F0"/>
<path d="M471.377 359.576H467.692V363.261H471.377V359.576Z" fill="#F0F0F0"/>
<path d="M471.377 365.754H467.692V369.44H471.377V365.754Z" fill="#F0F0F0"/>
<path d="M438.856 287.271H435.17V290.956H438.856V287.271Z" fill="#F0F0F0"/>
<path d="M438.856 293.449H435.17V297.135H438.856V293.449Z" fill="#F0F0F0"/>
<path d="M438.856 299.628H435.17V303.314H438.856V299.628Z" fill="#F0F0F0"/>
<path d="M438.856 305.808H435.17V309.493H438.856V305.808Z" fill="#F0F0F0"/>
<path d="M438.856 311.986H435.17V315.672H438.856V311.986Z" fill="#F0F0F0"/>
<path d="M438.856 318.166H435.17V321.851H438.856V318.166Z" fill="#F0F0F0"/>
<path d="M438.856 324.345H435.17V328.03H438.856V324.345Z" fill="#F0F0F0"/>
<path d="M438.856 330.523H435.17V334.209H438.856V330.523Z" fill="#F0F0F0"/>
<path d="M438.856 336.703H435.17V340.388H438.856V336.703Z" fill="#F0F0F0"/>
<path d="M438.856 342.881H435.17V346.567H438.856V342.881Z" fill="#F0F0F0"/>
<path d="M438.856 361.418H435.17V365.104H438.856V361.418Z" fill="#F0F0F0"/>
<path d="M433.002 287.271H429.317V290.956H433.002V287.271Z" fill="#F0F0F0"/>
<path d="M433.002 293.449H429.317V297.135H433.002V293.449Z" fill="#F0F0F0"/>
<path d="M433.002 299.628H429.317V303.314H433.002V299.628Z" fill="#F0F0F0"/>
<path d="M433.002 305.808H429.317V309.493H433.002V305.808Z" fill="#F0F0F0"/>
<path d="M433.002 311.986H429.317V315.672H433.002V311.986Z" fill="#F0F0F0"/>
<path d="M433.002 318.166H429.317V321.851H433.002V318.166Z" fill="#F0F0F0"/>
<path d="M433.002 324.345H429.317V328.03H433.002V324.345Z" fill="#F0F0F0"/>
<path d="M433.002 330.523H429.317V334.209H433.002V330.523Z" fill="#F0F0F0"/>
<path d="M433.002 336.703H429.317V340.388H433.002V336.703Z" fill="#F0F0F0"/>
<path d="M433.002 355.24H429.317V358.925H433.002V355.24Z" fill="#F0F0F0"/>
<path d="M433.002 361.418H429.317V365.104H433.002V361.418Z" fill="#F0F0F0"/>
<path d="M427.148 287.271H423.463V290.956H427.148V287.271Z" fill="#F0F0F0"/>
<path d="M427.148 293.449H423.463V297.135H427.148V293.449Z" fill="#F0F0F0"/>
<path d="M427.148 299.628H423.463V303.314H427.148V299.628Z" fill="#F0F0F0"/>
<path d="M427.148 305.808H423.463V309.493H427.148V305.808Z" fill="#F0F0F0"/>
<path d="M427.148 311.986H423.463V315.672H427.148V311.986Z" fill="#F0F0F0"/>
<path d="M427.148 318.166H423.463V321.851H427.148V318.166Z" fill="#F0F0F0"/>
<path d="M427.148 324.345H423.463V328.03H427.148V324.345Z" fill="#F0F0F0"/>
<path d="M427.148 330.523H423.463V334.209H427.148V330.523Z" fill="#F0F0F0"/>
<path d="M427.148 349.061H423.463V352.746H427.148V349.061Z" fill="#F0F0F0"/>
<path d="M427.148 355.24H423.463V358.925H427.148V355.24Z" fill="#F0F0F0"/>
<path d="M427.148 361.418H423.463V365.104H427.148V361.418Z" fill="#F0F0F0"/>
<path d="M372.73 193.392H369.044V197.077H372.73V193.392Z" fill="#F0F0F0"/>
<path d="M372.73 199.571H369.044V203.256H372.73V199.571Z" fill="#F0F0F0"/>
<path d="M372.73 205.75H369.044V209.435H372.73V205.75Z" fill="#F0F0F0"/>
<path d="M372.73 211.929H369.044V215.614H372.73V211.929Z" fill="#F0F0F0"/>
<path d="M372.73 218.108H369.044V221.793H372.73V218.108Z" fill="#F0F0F0"/>
<path d="M372.73 224.287H369.044V227.972H372.73V224.287Z" fill="#F0F0F0"/>
<path d="M372.73 230.466H369.044V234.151H372.73V230.466Z" fill="#F0F0F0"/>
<path d="M372.73 236.645H369.044V240.33H372.73V236.645Z" fill="#F0F0F0"/>
<path d="M372.73 242.824H369.044V246.51H372.73V242.824Z" fill="#F0F0F0"/>
<path d="M372.73 249.003H369.044V252.688H372.73V249.003Z" fill="#F0F0F0"/>
<path d="M372.73 255.182H369.044V258.867H372.73V255.182Z" fill="#F0F0F0"/>
<path d="M372.73 261.361H369.044V265.047H372.73V261.361Z" fill="#F0F0F0"/>
<path d="M372.73 267.54H369.044V271.225H372.73V267.54Z" fill="#F0F0F0"/>
<path d="M372.73 273.719H369.044V277.405H372.73V273.719Z" fill="#F0F0F0"/>
<path d="M372.73 279.899H369.044V283.584H372.73V279.899Z" fill="#F0F0F0"/>
<path d="M372.73 286.078H369.044V289.763H372.73V286.078Z" fill="#F0F0F0"/>
<path d="M372.73 292.257H369.044V295.942H372.73V292.257Z" fill="#F0F0F0"/>
<path d="M372.73 304.615H369.044V308.3H372.73V304.615Z" fill="#F0F0F0"/>
<path d="M372.73 310.794H369.044V314.479H372.73V310.794Z" fill="#F0F0F0"/>
<path d="M372.73 316.973H369.044V320.658H372.73V316.973Z" fill="#F0F0F0"/>
<path d="M372.73 323.152H369.044V326.837H372.73V323.152Z" fill="#F0F0F0"/>
<path d="M372.73 329.331H369.044V333.016H372.73V329.331Z" fill="#F0F0F0"/>
<path d="M366.876 193.392H363.19V197.077H366.876V193.392Z" fill="#F0F0F0"/>
<path d="M366.876 199.571H363.19V203.256H366.876V199.571Z" fill="#F0F0F0"/>
<path d="M366.876 205.75H363.19V209.435H366.876V205.75Z" fill="#F0F0F0"/>
<path d="M366.876 211.929H363.19V215.614H366.876V211.929Z" fill="#F0F0F0"/>
<path d="M366.876 218.108H363.19V221.793H366.876V218.108Z" fill="#F0F0F0"/>
<path d="M366.876 224.287H363.19V227.972H366.876V224.287Z" fill="#F0F0F0"/>
<path d="M366.876 230.466H363.19V234.151H366.876V230.466Z" fill="#F0F0F0"/>
<path d="M366.876 236.645H363.19V240.33H366.876V236.645Z" fill="#F0F0F0"/>
<path d="M366.876 242.824H363.19V246.51H366.876V242.824Z" fill="#F0F0F0"/>
<path d="M366.876 249.003H363.19V252.688H366.876V249.003Z" fill="#F0F0F0"/>
<path d="M366.876 255.182H363.19V258.867H366.876V255.182Z" fill="#F0F0F0"/>
<path d="M366.876 261.361H363.19V265.047H366.876V261.361Z" fill="#F0F0F0"/>
<path d="M366.876 267.54H363.19V271.225H366.876V267.54Z" fill="#F0F0F0"/>
<path d="M366.876 273.719H363.19V277.405H366.876V273.719Z" fill="#F0F0F0"/>
<path d="M366.876 279.899H363.19V283.584H366.876V279.899Z" fill="#F0F0F0"/>
<path d="M366.876 286.078H363.19V289.763H366.876V286.078Z" fill="#F0F0F0"/>
<path d="M366.876 323.152H363.19V326.837H366.876V323.152Z" fill="#F0F0F0"/>
<path d="M366.876 329.331H363.19V333.016H366.876V329.331Z" fill="#F0F0F0"/>
<path d="M361.022 193.392H357.337V197.077H361.022V193.392Z" fill="#F0F0F0"/>
<path d="M361.022 199.571H357.337V203.256H361.022V199.571Z" fill="#F0F0F0"/>
<path d="M361.022 205.75H357.337V209.435H361.022V205.75Z" fill="#F0F0F0"/>
<path d="M361.022 211.929H357.337V215.614H361.022V211.929Z" fill="#F0F0F0"/>
<path d="M361.022 218.108H357.337V221.793H361.022V218.108Z" fill="#F0F0F0"/>
<path d="M361.022 224.287H357.337V227.972H361.022V224.287Z" fill="#F0F0F0"/>
<path d="M361.022 230.466H357.337V234.151H361.022V230.466Z" fill="#F0F0F0"/>
<path d="M361.022 236.645H357.337V240.33H361.022V236.645Z" fill="#F0F0F0"/>
<path d="M361.022 242.824H357.337V246.51H361.022V242.824Z" fill="#F0F0F0"/>
<path d="M361.022 249.003H357.337V252.688H361.022V249.003Z" fill="#F0F0F0"/>
<path d="M361.022 255.182H357.337V258.867H361.022V255.182Z" fill="#F0F0F0"/>
<path d="M361.022 261.361H357.337V265.047H361.022V261.361Z" fill="#F0F0F0"/>
<path d="M361.022 267.54H357.337V271.225H361.022V267.54Z" fill="#F0F0F0"/>
<path d="M361.022 273.719H357.337V277.405H361.022V273.719Z" fill="#F0F0F0"/>
<path d="M361.022 279.899H357.337V283.584H361.022V279.899Z" fill="#F0F0F0"/>
<path d="M361.022 286.078H357.337V289.763H361.022V286.078Z" fill="#F0F0F0"/>
<path d="M361.022 298.436H357.337V302.121H361.022V298.436Z" fill="#F0F0F0"/>
<path d="M361.022 304.615H357.337V308.3H361.022V304.615Z" fill="#F0F0F0"/>
<path d="M361.022 310.794H357.337V314.479H361.022V310.794Z" fill="#F0F0F0"/>
<path d="M361.022 316.973H357.337V320.658H361.022V316.973Z" fill="#F0F0F0"/>
<path d="M361.022 329.331H357.337V333.016H361.022V329.331Z" fill="#F0F0F0"/>
<path d="M393.976 271.226H390.291V274.911H393.976V271.226Z" fill="#F0F0F0"/>
<path d="M393.976 277.405H390.291V281.09H393.976V277.405Z" fill="#F0F0F0"/>
<path d="M393.976 283.584H390.291V287.269H393.976V283.584Z" fill="#F0F0F0"/>
<path d="M393.976 289.763H390.291V293.448H393.976V289.763Z" fill="#F0F0F0"/>
<path d="M393.976 295.942H390.291V299.627H393.976V295.942Z" fill="#F0F0F0"/>
<path d="M393.976 302.121H390.291V305.806H393.976V302.121Z" fill="#F0F0F0"/>
<path d="M393.976 308.3H390.291V311.985H393.976V308.3Z" fill="#F0F0F0"/>
<path d="M393.976 320.658H390.291V324.343H393.976V320.658Z" fill="#F0F0F0"/>
<path d="M393.976 326.837H390.291V330.522H393.976V326.837Z" fill="#F0F0F0"/>
<path d="M393.976 333.016H390.291V336.701H393.976V333.016Z" fill="#F0F0F0"/>
<path d="M393.976 339.195H390.291V342.88H393.976V339.195Z" fill="#F0F0F0"/>
<path d="M393.976 345.374H390.291V349.059H393.976V345.374Z" fill="#F0F0F0"/>
<path d="M393.976 351.553H390.291V355.238H393.976V351.553Z" fill="#F0F0F0"/>
<path d="M393.976 357.732H390.291V361.417H393.976V357.732Z" fill="#F0F0F0"/>
<path d="M393.976 363.912H390.291V367.597H393.976V363.912Z" fill="#F0F0F0"/>
<path d="M388.123 271.226H384.437V274.911H388.123V271.226Z" fill="#F0F0F0"/>
<path d="M388.123 277.405H384.437V281.09H388.123V277.405Z" fill="#F0F0F0"/>
<path d="M388.123 283.584H384.437V287.269H388.123V283.584Z" fill="#F0F0F0"/>
<path d="M388.123 289.763H384.437V293.448H388.123V289.763Z" fill="#F0F0F0"/>
<path d="M388.123 295.942H384.437V299.627H388.123V295.942Z" fill="#F0F0F0"/>
<path d="M388.123 302.121H384.437V305.806H388.123V302.121Z" fill="#F0F0F0"/>
<path d="M388.123 320.658H384.437V324.343H388.123V320.658Z" fill="#F0F0F0"/>
<path d="M388.123 326.837H384.437V330.522H388.123V326.837Z" fill="#F0F0F0"/>
<path d="M388.123 333.016H384.437V336.701H388.123V333.016Z" fill="#F0F0F0"/>
<path d="M388.123 339.195H384.437V342.88H388.123V339.195Z" fill="#F0F0F0"/>
<path d="M388.123 345.374H384.437V349.059H388.123V345.374Z" fill="#F0F0F0"/>
<path d="M388.123 351.553H384.437V355.238H388.123V351.553Z" fill="#F0F0F0"/>
<path d="M388.123 357.732H384.437V361.417H388.123V357.732Z" fill="#F0F0F0"/>
<path d="M388.123 363.912H384.437V367.597H388.123V363.912Z" fill="#F0F0F0"/>
<path d="M382.269 271.226H378.583V274.911H382.269V271.226Z" fill="#F0F0F0"/>
<path d="M382.269 277.405H378.583V281.09H382.269V277.405Z" fill="#F0F0F0"/>
<path d="M382.269 283.584H378.583V287.269H382.269V283.584Z" fill="#F0F0F0"/>
<path d="M382.269 289.763H378.583V293.448H382.269V289.763Z" fill="#F0F0F0"/>
<path d="M382.269 295.942H378.583V299.627H382.269V295.942Z" fill="#F0F0F0"/>
<path d="M382.269 302.121H378.583V305.806H382.269V302.121Z" fill="#F0F0F0"/>
<path d="M382.269 314.479H378.583V318.164H382.269V314.479Z" fill="#F0F0F0"/>
<path d="M382.269 320.658H378.583V324.343H382.269V320.658Z" fill="#F0F0F0"/>
<path d="M382.269 326.837H378.583V330.522H382.269V326.837Z" fill="#F0F0F0"/>
<path d="M382.269 333.016H378.583V336.701H382.269V333.016Z" fill="#F0F0F0"/>
<path d="M382.269 339.195H378.583V342.88H382.269V339.195Z" fill="#F0F0F0"/>
<path d="M382.269 345.374H378.583V349.059H382.269V345.374Z" fill="#F0F0F0"/>
<path d="M382.269 351.553H378.583V355.238H382.269V351.553Z" fill="#F0F0F0"/>
<path d="M382.269 357.732H378.583V361.417H382.269V357.732Z" fill="#F0F0F0"/>
<path d="M382.269 363.912H378.583V367.597H382.269V363.912Z" fill="#F0F0F0"/>
<path d="M258.905 236.645H255.22V240.33H258.905V236.645Z" fill="#F0F0F0"/>
<path d="M258.905 242.824H255.22V246.51H258.905V242.824Z" fill="#F0F0F0"/>
<path d="M258.905 249.003H255.22V252.688H258.905V249.003Z" fill="#F0F0F0"/>
<path d="M258.905 255.182H255.22V258.867H258.905V255.182Z" fill="#F0F0F0"/>
<path d="M258.905 261.361H255.22V265.047H258.905V261.361Z" fill="#F0F0F0"/>
<path d="M258.905 267.54H255.22V271.225H258.905V267.54Z" fill="#F0F0F0"/>
<path d="M258.905 273.719H255.22V277.405H258.905V273.719Z" fill="#F0F0F0"/>
<path d="M258.905 279.899H255.22V283.584H258.905V279.899Z" fill="#F0F0F0"/>
<path d="M258.905 286.078H255.22V289.763H258.905V286.078Z" fill="#F0F0F0"/>
<path d="M258.905 292.257H255.22V295.942H258.905V292.257Z" fill="#F0F0F0"/>
<path d="M258.905 298.436H255.22V302.121H258.905V298.436Z" fill="#F0F0F0"/>
<path d="M258.905 304.615H255.22V308.3H258.905V304.615Z" fill="#F0F0F0"/>
<path d="M258.905 310.794H255.22V314.479H258.905V310.794Z" fill="#F0F0F0"/>
<path d="M258.905 323.152H255.22V326.837H258.905V323.152Z" fill="#F0F0F0"/>
<path d="M258.905 329.331H255.22V333.016H258.905V329.331Z" fill="#F0F0F0"/>
<path d="M258.905 335.51H255.22V339.195H258.905V335.51Z" fill="#F0F0F0"/>
<path d="M258.905 341.689H255.22V345.374H258.905V341.689Z" fill="#F0F0F0"/>
<path d="M258.905 354.047H255.22V357.732H258.905V354.047Z" fill="#F0F0F0"/>
<path d="M258.905 360.226H255.22V363.911H258.905V360.226Z" fill="#F0F0F0"/>
<path d="M258.905 366.405H255.22V370.091H258.905V366.405Z" fill="#F0F0F0"/>
<path d="M253.052 236.645H249.366V240.33H253.052V236.645Z" fill="#F0F0F0"/>
<path d="M253.052 242.824H249.366V246.51H253.052V242.824Z" fill="#F0F0F0"/>
<path d="M253.052 249.003H249.366V252.688H253.052V249.003Z" fill="#F0F0F0"/>
<path d="M253.052 255.182H249.366V258.867H253.052V255.182Z" fill="#F0F0F0"/>
<path d="M253.052 261.361H249.366V265.047H253.052V261.361Z" fill="#F0F0F0"/>
<path d="M253.052 267.54H249.366V271.225H253.052V267.54Z" fill="#F0F0F0"/>
<path d="M253.052 273.719H249.366V277.405H253.052V273.719Z" fill="#F0F0F0"/>
<path d="M253.052 279.899H249.366V283.584H253.052V279.899Z" fill="#F0F0F0"/>
<path d="M253.052 286.078H249.366V289.763H253.052V286.078Z" fill="#F0F0F0"/>
<path d="M253.052 292.257H249.366V295.942H253.052V292.257Z" fill="#F0F0F0"/>
<path d="M253.052 298.436H249.366V302.121H253.052V298.436Z" fill="#F0F0F0"/>
<path d="M253.052 304.615H249.366V308.3H253.052V304.615Z" fill="#F0F0F0"/>
<path d="M253.052 310.794H249.366V314.479H253.052V310.794Z" fill="#F0F0F0"/>
<path d="M253.052 329.331H249.366V333.016H253.052V329.331Z" fill="#F0F0F0"/>
<path d="M253.052 335.51H249.366V339.195H253.052V335.51Z" fill="#F0F0F0"/>
<path d="M253.052 347.868H249.366V351.553H253.052V347.868Z" fill="#F0F0F0"/>
<path d="M253.052 354.047H249.366V357.732H253.052V354.047Z" fill="#F0F0F0"/>
<path d="M253.052 360.226H249.366V363.911H253.052V360.226Z" fill="#F0F0F0"/>
<path d="M253.052 366.405H249.366V370.091H253.052V366.405Z" fill="#F0F0F0"/>
<path d="M247.198 236.645H243.512V240.33H247.198V236.645Z" fill="#F0F0F0"/>
<path d="M247.198 242.824H243.512V246.51H247.198V242.824Z" fill="#F0F0F0"/>
<path d="M247.198 249.003H243.512V252.688H247.198V249.003Z" fill="#F0F0F0"/>
<path d="M247.198 255.182H243.512V258.867H247.198V255.182Z" fill="#F0F0F0"/>
<path d="M247.198 261.361H243.512V265.047H247.198V261.361Z" fill="#F0F0F0"/>
<path d="M247.198 267.54H243.512V271.225H247.198V267.54Z" fill="#F0F0F0"/>
<path d="M247.198 273.719H243.512V277.405H247.198V273.719Z" fill="#F0F0F0"/>
<path d="M247.198 279.899H243.512V283.584H247.198V279.899Z" fill="#F0F0F0"/>
<path d="M247.198 286.078H243.512V289.763H247.198V286.078Z" fill="#F0F0F0"/>
<path d="M247.198 292.257H243.512V295.942H247.198V292.257Z" fill="#F0F0F0"/>
<path d="M247.198 298.436H243.512V302.121H247.198V298.436Z" fill="#F0F0F0"/>
<path d="M247.198 304.615H243.512V308.3H247.198V304.615Z" fill="#F0F0F0"/>
<path d="M247.198 310.794H243.512V314.479H247.198V310.794Z" fill="#F0F0F0"/>
<path d="M247.198 316.973H243.512V320.658H247.198V316.973Z" fill="#F0F0F0"/>
<path d="M247.198 329.331H243.512V333.016H247.198V329.331Z" fill="#F0F0F0"/>
<path d="M247.198 341.689H243.512V345.374H247.198V341.689Z" fill="#F0F0F0"/>
<path d="M247.198 347.868H243.512V351.553H247.198V347.868Z" fill="#F0F0F0"/>
<path d="M247.198 354.047H243.512V357.732H247.198V354.047Z" fill="#F0F0F0"/>
<path d="M247.198 360.226H243.512V363.911H247.198V360.226Z" fill="#F0F0F0"/>
<path d="M247.198 366.405H243.512V370.091H247.198V366.405Z" fill="#F0F0F0"/>
<path d="M282.754 271.876H279.068V275.561H282.754V271.876Z" fill="#F0F0F0"/>
<path d="M282.754 278.055H279.068V281.74H282.754V278.055Z" fill="#F0F0F0"/>
<path d="M282.754 284.234H279.068V287.92H282.754V284.234Z" fill="#F0F0F0"/>
<path d="M282.754 290.413H279.068V294.098H282.754V290.413Z" fill="#F0F0F0"/>
<path d="M282.754 296.592H279.068V300.278H282.754V296.592Z" fill="#F0F0F0"/>
<path d="M282.754 302.771H279.068V306.457H282.754V302.771Z" fill="#F0F0F0"/>
<path d="M282.754 321.308H279.068V324.993H282.754V321.308Z" fill="#F0F0F0"/>
<path d="M282.754 327.487H279.068V331.173H282.754V327.487Z" fill="#F0F0F0"/>
<path d="M282.754 333.667H279.068V337.352H282.754V333.667Z" fill="#F0F0F0"/>
<path d="M282.754 339.845H279.068V343.53H282.754V339.845Z" fill="#F0F0F0"/>
<path d="M282.754 346.024H279.068V349.71H282.754V346.024Z" fill="#F0F0F0"/>
<path d="M282.754 352.204H279.068V355.889H282.754V352.204Z" fill="#F0F0F0"/>
<path d="M282.754 358.382H279.068V362.068H282.754V358.382Z" fill="#F0F0F0"/>
<path d="M276.9 271.876H273.215V275.561H276.9V271.876Z" fill="#F0F0F0"/>
<path d="M276.9 278.055H273.215V281.74H276.9V278.055Z" fill="#F0F0F0"/>
<path d="M276.9 284.234H273.215V287.92H276.9V284.234Z" fill="#F0F0F0"/>
<path d="M276.9 290.413H273.215V294.098H276.9V290.413Z" fill="#F0F0F0"/>
<path d="M276.9 296.592H273.215V300.278H276.9V296.592Z" fill="#F0F0F0"/>
<path d="M276.9 302.771H273.215V306.457H276.9V302.771Z" fill="#F0F0F0"/>
<path d="M276.9 321.308H273.215V324.993H276.9V321.308Z" fill="#F0F0F0"/>
<path d="M276.9 327.487H273.215V331.173H276.9V327.487Z" fill="#F0F0F0"/>
<path d="M276.9 333.667H273.215V337.352H276.9V333.667Z" fill="#F0F0F0"/>
<path d="M276.9 339.845H273.215V343.53H276.9V339.845Z" fill="#F0F0F0"/>
<path d="M276.9 346.024H273.215V349.71H276.9V346.024Z" fill="#F0F0F0"/>
<path d="M276.9 352.204H273.215V355.889H276.9V352.204Z" fill="#F0F0F0"/>
<path d="M276.9 364.562H273.215V368.247H276.9V364.562Z" fill="#F0F0F0"/>
<path d="M82.4229 244.667H78.7375V248.353H82.4229V244.667Z" fill="#F0F0F0"/>
<path d="M82.4229 250.847H78.7375V254.532H82.4229V250.847Z" fill="#F0F0F0"/>
<path d="M82.4229 257.026H78.7375V260.711H82.4229V257.026Z" fill="#F0F0F0"/>
<path d="M82.4229 263.205H78.7375V266.89H82.4229V263.205Z" fill="#F0F0F0"/>
<path d="M82.4229 269.384H78.7375V273.069H82.4229V269.384Z" fill="#F0F0F0"/>
<path d="M82.4229 275.563H78.7375V279.248H82.4229V275.563Z" fill="#F0F0F0"/>
<path d="M82.4229 281.742H78.7375V285.427H82.4229V281.742Z" fill="#F0F0F0"/>
<path d="M82.4229 287.921H78.7375V291.606H82.4229V287.921Z" fill="#F0F0F0"/>
<path d="M82.4229 294.1H78.7375V297.785H82.4229V294.1Z" fill="#F0F0F0"/>
<path d="M82.4229 300.279H78.7375V303.964H82.4229V300.279Z" fill="#F0F0F0"/>
<path d="M82.4229 306.458H78.7375V310.143H82.4229V306.458Z" fill="#F0F0F0"/>
<path d="M82.4229 318.816H78.7375V322.501H82.4229V318.816Z" fill="#F0F0F0"/>
<path d="M82.4229 324.995H78.7375V328.68H82.4229V324.995Z" fill="#F0F0F0"/>
<path d="M82.4229 331.174H78.7375V334.859H82.4229V331.174Z" fill="#F0F0F0"/>
<path d="M82.4229 337.353H78.7375V341.038H82.4229V337.353Z" fill="#F0F0F0"/>
<path d="M82.4229 343.532H78.7375V347.218H82.4229V343.532Z" fill="#F0F0F0"/>
<path d="M82.4229 349.711H78.7375V353.396H82.4229V349.711Z" fill="#F0F0F0"/>
<path d="M82.4229 355.89H78.7375V359.575H82.4229V355.89Z" fill="#F0F0F0"/>
<path d="M82.4229 362.069H78.7375V365.754H82.4229V362.069Z" fill="#F0F0F0"/>
<path d="M76.5691 244.667H72.8838V248.353H76.5691V244.667Z" fill="#F0F0F0"/>
<path d="M76.5691 250.847H72.8838V254.532H76.5691V250.847Z" fill="#F0F0F0"/>
<path d="M76.5691 257.026H72.8838V260.711H76.5691V257.026Z" fill="#F0F0F0"/>
<path d="M76.5691 263.205H72.8838V266.89H76.5691V263.205Z" fill="#F0F0F0"/>
<path d="M76.5691 269.384H72.8838V273.069H76.5691V269.384Z" fill="#F0F0F0"/>
<path d="M76.5691 275.563H72.8838V279.248H76.5691V275.563Z" fill="#F0F0F0"/>
<path d="M76.5691 281.742H72.8838V285.427H76.5691V281.742Z" fill="#F0F0F0"/>
<path d="M76.5691 287.921H72.8838V291.606H76.5691V287.921Z" fill="#F0F0F0"/>
<path d="M76.5691 294.1H72.8838V297.785H76.5691V294.1Z" fill="#F0F0F0"/>
<path d="M76.5691 300.279H72.8838V303.964H76.5691V300.279Z" fill="#F0F0F0"/>
<path d="M76.5691 306.458H72.8838V310.143H76.5691V306.458Z" fill="#F0F0F0"/>
<path d="M76.5691 312.637H72.8838V316.322H76.5691V312.637Z" fill="#F0F0F0"/>
<path d="M76.5691 318.816H72.8838V322.501H76.5691V318.816Z" fill="#F0F0F0"/>
<path d="M76.5691 324.995H72.8838V328.68H76.5691V324.995Z" fill="#F0F0F0"/>
<path d="M76.5691 331.174H72.8838V334.859H76.5691V331.174Z" fill="#F0F0F0"/>
<path d="M76.5691 337.353H72.8838V341.038H76.5691V337.353Z" fill="#F0F0F0"/>
<path d="M76.5691 343.532H72.8838V347.218H76.5691V343.532Z" fill="#F0F0F0"/>
<path d="M76.5691 349.711H72.8838V353.396H76.5691V349.711Z" fill="#F0F0F0"/>
<path d="M76.5691 355.89H72.8838V359.575H76.5691V355.89Z" fill="#F0F0F0"/>
<path d="M76.5691 362.069H72.8838V365.754H76.5691V362.069Z" fill="#F0F0F0"/>
<path d="M111.259 268.733H107.574V272.419H111.259V268.733Z" fill="#F0F0F0"/>
<path d="M111.259 274.912H107.574V278.597H111.259V274.912Z" fill="#F0F0F0"/>
<path d="M111.259 281.091H107.574V284.777H111.259V281.091Z" fill="#F0F0F0"/>
<path d="M111.259 287.271H107.574V290.956H111.259V287.271Z" fill="#F0F0F0"/>
<path d="M111.259 293.449H107.574V297.135H111.259V293.449Z" fill="#F0F0F0"/>
<path d="M111.259 299.628H107.574V303.314H111.259V299.628Z" fill="#F0F0F0"/>
<path d="M111.259 305.808H107.574V309.493H111.259V305.808Z" fill="#F0F0F0"/>
<path d="M111.259 311.986H107.574V315.672H111.259V311.986Z" fill="#F0F0F0"/>
<path d="M111.259 318.166H107.574V321.851H111.259V318.166Z" fill="#F0F0F0"/>
<path d="M111.259 324.345H107.574V328.03H111.259V324.345Z" fill="#F0F0F0"/>
<path d="M105.405 268.733H101.72V272.419H105.405V268.733Z" fill="#F0F0F0"/>
<path d="M105.405 274.912H101.72V278.597H105.405V274.912Z" fill="#F0F0F0"/>
<path d="M105.405 281.091H101.72V284.777H105.405V281.091Z" fill="#F0F0F0"/>
<path d="M105.405 287.271H101.72V290.956H105.405V287.271Z" fill="#F0F0F0"/>
<path d="M105.405 293.449H101.72V297.135H105.405V293.449Z" fill="#F0F0F0"/>
<path d="M105.405 299.628H101.72V303.314H105.405V299.628Z" fill="#F0F0F0"/>
<path d="M105.405 305.808H101.72V309.493H105.405V305.808Z" fill="#F0F0F0"/>
<path d="M105.405 311.986H101.72V315.672H105.405V311.986Z" fill="#F0F0F0"/>
<path d="M105.405 318.166H101.72V321.851H105.405V318.166Z" fill="#F0F0F0"/>
<path d="M371.676 34.2388H365.489V381H371.676V34.2388Z" fill="#E0E0E0"/>
<path d="M255.306 34.2388H249.119V381H255.306V34.2388Z" fill="#E0E0E0"/>
<path d="M138.936 34.2388H132.749V381H138.936V34.2388Z" fill="#E0E0E0"/>
<path d="M252.212 491.949C391.51 491.949 504.433 485.354 504.433 477.219C504.433 469.084 391.51 462.49 252.212 462.49C112.915 462.49 -0.00793457 469.084 -0.00793457 477.219C-0.00793457 485.354 112.915 491.949 252.212 491.949Z" fill="#F5F5F5"/>
<path d="M328.789 285.248H106.452C104.626 285.248 103.145 283.768 103.145 281.941V105.346C103.145 103.519 104.626 102.039 106.452 102.039H328.789C330.616 102.039 332.096 103.519 332.096 105.346V281.941C332.095 283.768 330.615 285.248 328.789 285.248Z" fill="#263238"/>
<g opacity="0.2">
<path d="M312.051 260.969H132.534V262.27H312.051V260.969Z" fill="white"/>
<path d="M312.051 254.464H132.534V255.765H312.051V254.464Z" fill="white"/>
<path d="M312.051 247.96H132.534V249.261H312.051V247.96Z" fill="white"/>
<path d="M312.051 241.456H132.534V242.757H312.051V241.456Z" fill="white"/>
<path d="M312.051 234.952H132.534V236.253H312.051V234.952Z" fill="white"/>
<path d="M312.051 228.448H132.534V229.749H312.051V228.448Z" fill="white"/>
<path d="M312.051 221.943H132.534V223.244H312.051V221.943Z" fill="white"/>
<path d="M312.051 215.439H132.534V216.74H312.051V215.439Z" fill="white"/>
<path d="M312.051 208.935H132.534V210.236H312.051V208.935Z" fill="white"/>
<path d="M312.051 202.431H132.534V203.732H312.051V202.431Z" fill="white"/>
<path d="M312.051 195.927H132.534V197.228H312.051V195.927Z" fill="white"/>
<path d="M312.051 189.422H132.534V190.723H312.051V189.422Z" fill="white"/>
<path d="M312.051 182.918H132.534V184.219H312.051V182.918Z" fill="white"/>
<path d="M312.051 176.414H132.534V177.714H312.051V176.414Z" fill="white"/>
<path d="M312.051 169.91H132.534V171.211H312.051V169.91Z" fill="white"/>
<path d="M312.051 163.405H132.534V164.706H312.051V163.405Z" fill="white"/>
<path d="M312.051 156.901H132.534V158.202H312.051V156.901Z" fill="white"/>
<path d="M312.051 150.396H132.534V151.697H312.051V150.396Z" fill="white"/>
<path d="M312.051 143.893H132.534V145.193H312.051V143.893Z" fill="white"/>
<path d="M312.051 137.388H132.534V138.689H312.051V137.388Z" fill="white"/>
</g>
<path d="M149.454 249.283H138.615V262.266H149.454V249.283Z" fill="#407BFF"/>
<path d="M168.967 210.233H158.127V262.267H168.967V210.233Z" fill="#407BFF"/>
<path d="M188.48 184.2H177.64V262.268H188.48V184.2Z" fill="#407BFF"/>
<path d="M207.993 192.01H197.153V262.268H207.993V192.01Z" fill="#407BFF"/>
<path d="M227.505 210.233H216.665V262.267H227.505V210.233Z" fill="#407BFF"/>
<path d="M247.018 184.2H236.178V262.268H247.018V184.2Z" fill="#407BFF"/>
<path d="M266.531 158.167H255.691V262.267H266.531V158.167Z" fill="#407BFF"/>
<path d="M286.044 151.658H275.204V262.267H286.044V151.658Z" fill="#407BFF"/>
<path d="M305.556 210.233H294.716V262.267H305.556V210.233Z" fill="#407BFF"/>
<g opacity="0.6">
<path d="M149.454 254.02H138.615V262.267H149.454V254.02Z" fill="white"/>
<path d="M168.967 229.216H158.127V262.267H168.967V229.216Z" fill="white"/>
<path d="M188.48 212.68H177.64V262.267H188.48V212.68Z" fill="white"/>
<path d="M207.993 217.641H197.153V262.268H207.993V217.641Z" fill="white"/>
<path d="M227.505 229.216H216.665V262.267H227.505V229.216Z" fill="white"/>
<path d="M247.018 212.68H236.178V262.267H247.018V212.68Z" fill="white"/>
<path d="M266.531 196.144H255.691V262.267H266.531V196.144Z" fill="white"/>
<path d="M286.044 192.01H275.204V262.268H286.044V192.01Z" fill="white"/>
<path d="M305.556 229.216H294.716V262.267H305.556V229.216Z" fill="white"/>
</g>
<path d="M149.454 255.611H138.615V262.266H149.454V255.611Z" fill="white"/>
<path d="M168.967 235.594H158.127V262.266H168.967V235.594Z" fill="white"/>
<path d="M188.48 222.25H177.64V262.266H188.48V222.25Z" fill="white"/>
<path d="M207.993 226.252H197.153V262.266H207.993V226.252Z" fill="white"/>
<path d="M227.505 235.594H216.665V262.266H227.505V235.594Z" fill="white"/>
<path d="M247.018 222.25H236.178V262.266H247.018V222.25Z" fill="white"/>
<path d="M266.531 208.904H255.691V262.266H266.531V208.904Z" fill="white"/>
<path d="M286.044 205.569H275.204V262.266H286.044V205.569Z" fill="white"/>
<path d="M305.556 235.594H294.716V262.266H305.556V235.594Z" fill="white"/>
<g opacity="0.2">
<path d="M124.82 258.94H127.997C128.915 258.94 129.661 259.685 129.661 260.604C129.661 261.522 128.915 262.268 127.997 262.268H124.82C123.902 262.268 123.156 261.522 123.156 260.604C123.155 259.685 123.9 258.94 124.82 258.94Z" fill="white"/>
<path d="M124.82 252.435H127.997C128.915 252.435 129.661 253.18 129.661 254.099C129.661 255.017 128.915 255.763 127.997 255.763H124.82C123.902 255.763 123.156 255.017 123.156 254.099C123.155 253.18 123.9 252.435 124.82 252.435Z" fill="white"/>
<path d="M124.82 245.931H127.997C128.915 245.931 129.661 246.677 129.661 247.595C129.661 248.513 128.915 249.259 127.997 249.259H124.82C123.902 249.259 123.156 248.513 123.156 247.595C123.155 246.677 123.9 245.931 124.82 245.931Z" fill="white"/>
<path d="M124.82 239.427H127.997C128.915 239.427 129.661 240.172 129.661 241.091C129.661 242.009 128.915 242.754 127.997 242.754H124.82C123.902 242.754 123.156 242.009 123.156 241.091C123.155 240.172 123.9 239.427 124.82 239.427Z" fill="white"/>
<path d="M124.82 232.922H127.997C128.915 232.922 129.661 233.668 129.661 234.586C129.661 235.505 128.915 236.25 127.997 236.25H124.82C123.902 236.25 123.156 235.505 123.156 234.586C123.155 233.668 123.9 232.922 124.82 232.922Z" fill="white"/>
<path d="M124.82 226.418H127.997C128.915 226.418 129.661 227.163 129.661 228.082C129.661 229 128.915 229.746 127.997 229.746H124.82C123.902 229.746 123.156 229 123.156 228.082C123.155 227.163 123.9 226.418 124.82 226.418Z" fill="white"/>
<path d="M124.82 219.914H127.997C128.915 219.914 129.661 220.659 129.661 221.578C129.661 222.496 128.915 223.242 127.997 223.242H124.82C123.902 223.242 123.156 222.496 123.156 221.578C123.155 220.659 123.9 219.914 124.82 219.914Z" fill="white"/>
<path d="M124.82 213.41H127.997C128.915 213.41 129.661 214.155 129.661 215.073C129.661 215.992 128.915 216.737 127.997 216.737H124.82C123.902 216.737 123.156 215.992 123.156 215.073C123.155 214.155 123.9 213.41 124.82 213.41Z" fill="white"/>
<path d="M124.82 206.905H127.997C128.915 206.905 129.661 207.651 129.661 208.569C129.661 209.487 128.915 210.233 127.997 210.233H124.82C123.902 210.233 123.156 209.487 123.156 208.569C123.155 207.651 123.9 206.905 124.82 206.905Z" fill="white"/>
<path d="M124.82 200.401H127.997C128.915 200.401 129.661 201.147 129.661 202.065C129.661 202.984 128.915 203.729 127.997 203.729H124.82C123.902 203.729 123.156 202.984 123.156 202.065C123.155 201.147 123.9 200.401 124.82 200.401Z" fill="white"/>
<path d="M124.82 193.896H127.997C128.915 193.896 129.661 194.642 129.661 195.56C129.661 196.479 128.915 197.224 127.997 197.224H124.82C123.902 197.224 123.156 196.479 123.156 195.56C123.155 194.642 123.9 193.896 124.82 193.896Z" fill="white"/>
<path d="M124.82 187.393H127.997C128.915 187.393 129.661 188.138 129.661 189.056C129.661 189.975 128.915 190.72 127.997 190.72H124.82C123.902 190.72 123.156 189.975 123.156 189.056C123.155 188.138 123.9 187.393 124.82 187.393Z" fill="white"/>
<path d="M124.82 180.888H127.997C128.915 180.888 129.661 181.634 129.661 182.552C129.661 183.47 128.915 184.216 127.997 184.216H124.82C123.902 184.216 123.156 183.47 123.156 182.552C123.155 181.634 123.9 180.888 124.82 180.888Z" fill="white"/>
<path d="M124.82 174.384H127.997C128.915 174.384 129.661 175.13 129.661 176.048C129.661 176.966 128.915 177.712 127.997 177.712H124.82C123.902 177.712 123.156 176.966 123.156 176.048C123.155 175.13 123.9 174.384 124.82 174.384Z" fill="white"/>
<path d="M124.82 167.88H127.997C128.915 167.88 129.661 168.625 129.661 169.544C129.661 170.462 128.915 171.207 127.997 171.207H124.82C123.902 171.207 123.156 170.462 123.156 169.544C123.155 168.625 123.9 167.88 124.82 167.88Z" fill="white"/>
<path d="M124.82 161.376H127.997C128.915 161.376 129.661 162.121 129.661 163.04C129.661 163.958 128.915 164.704 127.997 164.704H124.82C123.902 164.704 123.156 163.958 123.156 163.04C123.155 162.121 123.9 161.376 124.82 161.376Z" fill="white"/>
<path d="M124.82 154.871H127.997C128.915 154.871 129.661 155.616 129.661 156.535C129.661 157.453 128.915 158.199 127.997 158.199H124.82C123.902 158.199 123.156 157.453 123.156 156.535C123.155 155.616 123.9 154.871 124.82 154.871Z" fill="white"/>
<path d="M124.82 148.367H127.997C128.915 148.367 129.661 149.113 129.661 150.031C129.661 150.949 128.915 151.695 127.997 151.695H124.82C123.902 151.695 123.156 150.949 123.156 150.031C123.155 149.113 123.9 148.367 124.82 148.367Z" fill="white"/>
<path d="M124.82 141.863H127.997C128.915 141.863 129.661 142.608 129.661 143.527C129.661 144.445 128.915 145.19 127.997 145.19H124.82C123.902 145.19 123.156 144.445 123.156 143.527C123.155 142.608 123.9 141.863 124.82 141.863Z" fill="white"/>
<path d="M124.82 135.359H127.997C128.915 135.359 129.661 136.104 129.661 137.023C129.661 137.941 128.915 138.686 127.997 138.686H124.82C123.902 138.686 123.156 137.941 123.156 137.023C123.155 136.104 123.9 135.359 124.82 135.359Z" fill="white"/>
</g>
<path d="M142.447 265.523H145.624C146.542 265.523 147.287 266.269 147.287 267.187C147.287 268.106 146.542 268.851 145.624 268.851H142.447C141.528 268.851 140.783 268.106 140.783 267.187C140.783 266.269 141.527 265.523 142.447 265.523Z" fill="white"/>
<path d="M161.96 265.523H165.136C166.055 265.523 166.8 266.269 166.8 267.187C166.8 268.106 166.055 268.851 165.136 268.851H161.96C161.041 268.851 160.296 268.106 160.296 267.187C160.296 266.269 161.04 265.523 161.96 265.523Z" fill="white"/>
<path d="M181.472 265.523H184.649C185.567 265.523 186.313 266.269 186.313 267.187C186.313 268.106 185.567 268.851 184.649 268.851H181.472C180.554 268.851 179.808 268.106 179.808 267.187C179.808 266.269 180.553 265.523 181.472 265.523Z" fill="white"/>
<path d="M200.985 265.523H204.162C205.08 265.523 205.826 266.269 205.826 267.187C205.826 268.106 205.08 268.851 204.162 268.851H200.985C200.067 268.851 199.321 268.106 199.321 267.187C199.321 266.269 200.065 265.523 200.985 265.523Z" fill="white"/>
<path d="M220.498 265.523H223.674C224.593 265.523 225.338 266.269 225.338 267.187C225.338 268.106 224.593 268.851 223.674 268.851H220.498C219.579 268.851 218.834 268.106 218.834 267.187C218.834 266.269 219.578 265.523 220.498 265.523Z" fill="white"/>
<path d="M240.01 265.523H243.187C244.106 265.523 244.851 266.269 244.851 267.187C244.851 268.106 244.106 268.851 243.187 268.851H240.01C239.092 268.851 238.347 268.106 238.347 267.187C238.347 266.269 239.091 265.523 240.01 265.523Z" fill="white"/>
<path d="M259.523 265.523H262.7C263.618 265.523 264.364 266.269 264.364 267.187C264.364 268.106 263.618 268.851 262.7 268.851H259.523C258.605 268.851 257.859 268.106 257.859 267.187C257.859 266.269 258.604 265.523 259.523 265.523Z" fill="white"/>
<path d="M279.036 265.523H282.213C283.131 265.523 283.876 266.269 283.876 267.187C283.876 268.106 283.131 268.851 282.213 268.851H279.036C278.116 268.851 277.372 268.106 277.372 267.187C277.372 266.269 278.116 265.523 279.036 265.523Z" fill="white"/>
<path d="M298.549 265.523H301.725C302.644 265.523 303.389 266.269 303.389 267.187C303.389 268.106 302.644 268.851 301.725 268.851H298.549C297.629 268.851 296.885 268.106 296.885 267.187C296.885 266.269 297.629 265.523 298.549 265.523Z" fill="white"/>
<path opacity="0.2" d="M269.153 120.555H166.088C164.547 120.555 163.298 119.306 163.298 117.764C163.298 116.223 164.547 114.974 166.088 114.974H269.153C270.695 114.974 271.944 116.223 271.944 117.764C271.944 119.306 270.694 120.555 269.153 120.555Z" fill="white"/>
<g opacity="0.2">
<path d="M264.678 134.786H331.564V105.346C331.564 103.519 330.616 102.265 328.79 102.265H261.318V130.906C261.318 132.732 262.852 134.786 264.678 134.786Z" fill="black"/>
<path d="M331.564 281.941V262.27H252.084C250.257 262.27 248.31 263.845 248.31 265.672V285.685H328.789C330.616 285.685 331.564 283.768 331.564 281.941Z" fill="black"/>
</g>
<path d="M383.953 393.915H267.051C265.225 393.915 263.744 392.434 263.744 390.608V279.095C263.744 277.269 265.225 275.789 267.051 275.789H383.953C385.78 275.789 387.26 277.269 387.26 279.095V390.608C387.26 392.434 385.78 393.915 383.953 393.915Z" fill="#263238"/>
<path d="M314.777 380.296C333.517 380.296 348.709 365.103 348.709 346.363C348.709 327.622 333.517 312.43 314.777 312.43C296.036 312.43 280.844 327.622 280.844 346.363C280.844 365.103 296.036 380.296 314.777 380.296Z" fill="#407BFF"/>
<path opacity="0.2" d="M314.777 346.363L341.863 325.922C346.305 331.81 348.709 338.987 348.709 346.363C348.709 364.978 333.392 380.295 314.777 380.295C296.161 380.295 280.844 364.978 280.844 346.363C280.844 331.967 290.005 319.068 303.596 314.325L314.777 346.363Z" fill="white"/>
<path d="M314.777 346.362L341.071 324.914C346.01 330.97 348.709 338.548 348.709 346.362C348.709 364.978 333.392 380.295 314.777 380.295C296.161 380.295 280.844 364.978 280.844 346.362C280.844 339.196 283.115 332.209 287.329 326.413L314.777 346.362Z" fill="white"/>
<path d="M368.408 329.69H361.049C360.08 329.69 359.296 328.904 359.296 327.936V320.577C359.296 319.608 360.081 318.824 361.049 318.824H368.408C369.377 318.824 370.162 319.609 370.162 320.577V327.936C370.162 328.904 369.377 329.69 368.408 329.69Z" fill="#407BFF"/>
<path d="M368.408 350.749H361.049C360.08 350.749 359.296 349.964 359.296 348.996V341.637C359.296 340.668 360.081 339.883 361.049 339.883H368.408C369.377 339.883 370.162 340.669 370.162 341.637V348.996C370.162 349.964 369.377 350.749 368.408 350.749Z" fill="#407BFF"/>
<path d="M368.408 371.808H361.049C360.08 371.808 359.296 371.023 359.296 370.055V362.696C359.296 361.727 360.081 360.942 361.049 360.942H368.408C369.377 360.942 370.162 361.728 370.162 362.696V370.055C370.162 371.023 369.377 371.808 368.408 371.808Z" fill="white"/>
<path opacity="0.2" d="M368.408 350.749H361.049C360.08 350.749 359.296 349.964 359.296 348.996V341.637C359.296 340.668 360.081 339.883 361.049 339.883H368.408C369.377 339.883 370.162 340.669 370.162 341.637V348.996C370.162 349.964 369.377 350.749 368.408 350.749Z" fill="white"/>
<path opacity="0.2" d="M365.972 295.193H285.035C283.494 295.193 282.245 293.945 282.245 292.403C282.245 290.862 283.494 289.613 285.035 289.613H365.972C367.513 289.613 368.762 290.862 368.762 292.403C368.762 293.943 367.512 295.193 365.972 295.193Z" fill="white"/>
<path d="M366.385 119.307H284.63C282.803 119.307 281.323 117.827 281.323 116V51.3483C281.323 49.5219 282.803 48.0415 284.63 48.0415H366.387C368.213 48.0415 369.693 49.5219 369.693 51.3483V116C369.692 117.827 368.212 119.307 366.385 119.307Z" fill="#263238"/>
<g opacity="0.2">
<path d="M361.484 110.07H289.937V111.371H361.484V110.07Z" fill="white"/>
<path d="M361.484 103.566H289.937V104.867H361.484V103.566Z" fill="white"/>
<path d="M361.484 97.0615H289.937V98.3624H361.484V97.0615Z" fill="white"/>
<path d="M361.484 90.5576H289.937V91.8585H361.484V90.5576Z" fill="white"/>
<path d="M361.484 84.0532H289.937V85.3541H361.484V84.0532Z" fill="white"/>
<path d="M361.484 77.5493H289.937V78.8502H361.484V77.5493Z" fill="white"/>
<path d="M361.484 71.0449H289.937V72.3458H361.484V71.0449Z" fill="white"/>
</g>
<path d="M289.757 111.373V98.3648L294.891 93.2316C296.366 91.7565 298.759 91.7565 300.234 93.2316C301.654 94.6509 303.937 94.7133 305.43 93.3721C308.824 90.3268 313.866 90.0133 317.611 92.615L319.174 93.7012C324.186 97.1836 330.998 96.4421 335.143 91.962L338.68 88.1388C340.921 85.7166 344.653 85.4369 347.23 87.4988C349.604 89.398 352.997 89.3278 355.29 87.3336L361.302 82.1055V111.375H289.757V111.373Z" fill="#407BFF"/>
<path opacity="0.2" d="M289.757 111.373V98.3648L294.891 93.2316C296.366 91.7565 298.759 91.7565 300.234 93.2316C301.654 94.6509 303.937 94.7133 305.43 93.3721C308.824 90.3268 313.866 90.0133 317.611 92.615L319.174 93.7012C324.186 97.1836 330.998 96.4421 335.143 91.962L338.68 88.1388C340.921 85.7166 344.653 85.4369 347.23 87.4988C349.604 89.398 352.997 89.3278 355.29 87.3336L361.302 82.1055V111.375H289.757V111.373Z" fill="white"/>
<path d="M289.757 111.373L302.771 99.0541C304.432 97.445 307.107 97.5634 308.62 99.313C310.116 101.043 312.751 101.182 314.42 99.6174L320.537 93.8846C323.253 91.3388 327.411 91.1294 330.37 93.3876C333.388 95.6901 337.639 95.4209 340.342 92.7554L340.649 92.4523C342.204 90.9199 344.695 90.9043 346.269 92.4172C348.002 94.0849 350.704 94.2059 352.579 92.7008L361.305 85.9351V111.373H289.757Z" fill="#407BFF"/>
<path opacity="0.2" d="M345.799 62.1798H305.214C303.673 62.1798 302.424 60.931 302.424 59.3894C302.424 57.8479 303.673 56.5991 305.214 56.5991H345.799C347.341 56.5991 348.59 57.8479 348.59 59.3894C348.59 60.931 347.341 62.1798 345.799 62.1798Z" fill="white"/>
<path d="M323.335 167.09L310.533 158.201C310.533 158.201 308.582 151.184 307.714 150.465C306.847 149.746 295.139 145.41 293.622 146.06C292.104 146.711 292.321 160.097 293.622 160.45C294.923 160.804 305.547 164.056 305.547 164.056L319.206 175.114L323.335 167.09Z" fill="#E4897B"/>
<path d="M402.786 169.908C402.786 169.908 402.213 170.442 401.264 171.391C399.026 173.577 394.005 177.987 388.801 182.709C388.801 182.722 388.801 182.722 388.801 182.722C378.395 191.255 365.555 200.791 357.542 200.062C343.233 198.761 312.006 173.408 312.006 173.408L317.895 162.611C317.895 162.611 340.665 177.713 354.324 180.888C367.983 184.062 390.1 143.241 400.715 140.392L402.786 169.908Z" fill="#407BFF"/>
<path opacity="0.6" d="M402.786 169.908C402.786 169.908 402.213 170.442 401.264 171.391C399.026 173.577 394.005 177.987 388.801 182.709C388.801 182.722 388.801 182.722 388.801 182.722C378.395 191.255 365.555 200.791 357.542 200.062C343.233 198.761 312.006 173.408 312.006 173.408L317.895 162.611C317.895 162.611 340.665 177.713 354.324 180.888C367.983 184.062 390.1 143.241 400.715 140.392L402.786 169.908Z" fill="white"/>
<path d="M320.29 162.154L313.135 176.414L310.533 172.511L316.604 160.45L320.29 162.154Z" fill="#407BFF"/>
<path opacity="0.7" d="M320.29 162.154L313.135 176.414L310.533 172.511L316.604 160.45L320.29 162.154Z" fill="white"/>
<path opacity="0.2" d="M401.302 171.392C399.065 173.578 394.447 177.987 388.879 182.71C391.403 171.184 399.429 161.675 399.429 161.675L401.302 171.392Z" fill="black"/>
<path d="M402.436 466.539L391.882 467.654L389.902 444.893L400.455 443.778L402.436 466.539Z" fill="#E4897B"/>
<path d="M455.093 465.77H444.868L444.023 442.082H454.26L455.093 465.77Z" fill="#E4897B"/>
<path d="M443.45 464.586H455.873C456.292 464.589 456.654 464.88 456.745 465.289L458.761 474.395C458.934 475.21 458.412 476.01 457.597 476.183C457.488 476.207 457.377 476.217 457.265 476.216C453.245 476.151 450.319 475.904 445.271 475.904C442.162 475.904 432.783 476.229 428.49 476.229C424.197 476.229 423.638 471.988 425.394 471.598C433.277 469.881 439.209 467.5 441.733 465.237C442.201 464.808 442.815 464.575 443.45 464.586Z" fill="#2E353A"/>
<path d="M440.068 466.382C439.373 466.438 438.68 466.255 438.104 465.862C437.72 465.546 437.527 465.053 437.596 464.561C437.589 464.273 437.752 464.008 438.013 463.884C439.144 463.299 442.448 465.328 442.813 465.562C442.899 465.607 442.947 465.702 442.93 465.797C442.917 465.897 442.845 465.979 442.748 466.005C441.871 466.229 440.972 466.356 440.068 466.382ZM438.546 464.262C438.438 464.253 438.329 464.275 438.234 464.327C438.169 464.327 438.091 464.418 438.078 464.613C438.036 464.939 438.158 465.265 438.403 465.484C439.55 466.005 440.852 466.07 442.045 465.667C440.98 464.978 439.792 464.502 438.546 464.262Z" fill="#407BFF"/>
<path d="M442.683 466.018H442.566C441.512 465.445 439.469 463.195 439.678 462.115C439.752 461.743 440.08 461.476 440.458 461.478C440.83 461.428 441.204 461.543 441.486 461.79C442.67 462.752 442.917 465.692 442.93 465.835C442.931 465.924 442.887 466.008 442.813 466.057C442.766 466.058 442.72 466.044 442.683 466.018ZM440.627 461.868H440.51C440.198 461.868 440.172 462.05 440.159 462.115C440.029 462.778 441.33 464.483 442.383 465.276C442.314 464.111 441.893 462.994 441.174 462.076C441.023 461.943 440.829 461.869 440.627 461.868Z" fill="#407BFF"/>
<path d="M390.766 464.261H403.189C403.608 464.264 403.969 464.555 404.06 464.964L406.077 474.07C406.25 474.885 405.728 475.685 404.912 475.858C404.803 475.882 404.693 475.892 404.581 475.891C400.561 475.826 397.634 475.579 392.587 475.579C389.478 475.579 380.099 475.904 375.806 475.904C371.513 475.904 370.954 471.663 372.71 471.273C380.593 469.556 386.525 467.175 389.049 464.912C389.517 464.482 390.131 464.249 390.766 464.261Z" fill="#2E353A"/>
<path d="M387.384 466.057C386.689 466.113 385.996 465.929 385.419 465.536C385.036 465.22 384.843 464.727 384.912 464.236C384.904 463.948 385.068 463.683 385.328 463.559C386.46 462.974 389.764 465.003 390.128 465.237C390.214 465.282 390.262 465.376 390.245 465.471C390.232 465.572 390.161 465.654 390.063 465.68C389.187 465.903 388.288 466.031 387.384 466.057ZM385.862 463.936C385.754 463.927 385.644 463.949 385.549 464.001C385.484 464.001 385.406 464.093 385.393 464.288C385.352 464.614 385.474 464.939 385.719 465.159C386.866 465.68 388.168 465.745 389.361 465.341C388.295 464.653 387.108 464.177 385.862 463.936Z" fill="#407BFF"/>
<path d="M389.998 465.692H389.881C388.827 465.12 386.785 462.869 386.993 461.789C387.067 461.417 387.395 461.151 387.774 461.152C388.146 461.102 388.519 461.217 388.801 461.464C389.985 462.427 390.232 465.367 390.245 465.51C390.247 465.598 390.202 465.683 390.128 465.731C390.081 465.732 390.036 465.718 389.998 465.692ZM387.943 461.542H387.826C387.514 461.542 387.488 461.724 387.475 461.789C387.344 462.453 388.645 464.157 389.699 464.95C389.63 463.785 389.209 462.669 388.489 461.75C388.338 461.618 388.144 461.543 387.943 461.542Z" fill="#407BFF"/>
<path opacity="0.2" d="M400.455 443.778L389.902 444.893L390.932 456.633L401.486 455.518L400.455 443.778Z" fill="black"/>
<path opacity="0.2" d="M454.26 442.095H444.023L444.465 454.31H454.703L454.26 442.095Z" fill="black"/>
<path d="M450.039 234.302H395.762C390.602 262.482 374.448 362.205 386.037 451.06L404.412 448.781C404.412 448.781 402.71 330.823 418.934 287.215C420.8 310.554 423.016 335.386 424.94 348.598C429.662 381.12 439.77 452.193 439.77 452.193H458.476C458.476 452.193 454.652 384.162 452.883 352.2C450.948 317.503 450.113 241.428 450.039 234.302Z" fill="#407BFF"/>
<path opacity="0.2" d="M418.929 287.22C416.536 293.646 414.545 301.672 412.867 310.7C411.349 289.932 417.42 267.906 417.42 267.906L418.929 287.22Z" fill="black"/>
<path d="M383.935 455.34L406.678 451.956L405.982 445.658L382.324 448.764L383.935 455.34Z" fill="#407BFF"/>
<path opacity="0.6" d="M383.935 455.34L406.678 451.956L405.982 445.658L382.324 448.764L383.935 455.34Z" fill="white"/>
<path d="M437.518 452.345H459.581V445.75L436.686 445.321L437.518 452.345Z" fill="#407BFF"/>
<path opacity="0.6" d="M437.518 452.345H459.581V445.75L436.686 445.321L437.518 452.345Z" fill="white"/>
<path d="M395.306 234.952H449.941V241.456L394.61 240.784L395.306 234.952Z" fill="#263238"/>
<path d="M432.38 232.025H430.429V243.57H432.38V232.025Z" fill="#407BFF"/>
<path d="M404.737 232.025H402.786V243.57H404.737V232.025Z" fill="#407BFF"/>
<path d="M420.208 233.813H410.103V241.094H420.208V233.813Z" fill="white"/>
<path d="M400.715 140.393C400.715 140.393 435.24 138.766 460.963 145.259C460.963 145.259 449.607 202.43 450.039 234.951H395.306C395.306 234.951 391.748 173.956 400.715 140.393Z" fill="#407BFF"/>
<path opacity="0.6" d="M460.959 145.258C460.959 145.258 458.696 156.653 456.224 172.159C455.314 177.922 454.364 184.257 453.493 190.788C451.476 206.033 449.863 222.346 450.032 234.951H395.306C395.306 234.951 391.754 173.954 400.717 140.393C400.717 140.393 435.242 138.767 460.959 145.258Z" fill="white"/>
<path d="M418.755 144.771L420.208 151.914C420.208 151.914 411.892 186.604 410.103 204.599L413.133 207.634L417.901 204.599C417.901 204.599 418.328 167.958 422.535 152.565L430.076 146.39L424.14 144.468L418.755 144.771Z" fill="#407BFF"/>
<path d="M411.324 93.8096C411.324 93.8096 409.182 107.902 416.662 113.322C424.142 118.743 424.142 92.5088 424.142 92.5088L411.324 93.8096Z" fill="#2E353A"/>
<path d="M441.33 141.616C436.348 146.143 424.142 144.469 424.142 144.469C424.142 144.469 416.523 142.383 418.123 140.003C422.611 139.261 424.783 137.167 425.681 134.487C426.201 132.926 426.279 131.17 426.136 129.362C426.071 128.412 425.928 127.45 425.759 126.5L440.849 115.326C438.871 122.702 436.452 136.269 441.33 141.616Z" fill="#E4897B"/>
<path opacity="0.2" d="M437.362 122.428C436.764 131.482 429.323 133.98 425.681 134.487C426.201 132.926 426.279 131.17 426.136 129.362L437.362 122.428Z" fill="black"/>
<path d="M438.377 124.522C434.747 129.739 428.828 131.105 423.69 129.478C420.386 128.438 417.407 126.148 415.56 122.857C415.313 122.428 415.091 121.973 414.883 121.504C411.202 112.893 410.031 97.8288 419.137 92.1831C425.602 88.1115 434.162 90.0497 438.234 96.528C439.404 98.3621 440.107 100.457 440.315 102.629C441.434 112.698 442.565 118.564 438.377 124.522Z" fill="#E4897B"/>
<path d="M425.638 108.008C425.831 108.804 425.465 109.549 424.925 109.64C424.385 109.731 423.852 109.138 423.708 108.33C423.565 107.523 423.894 106.785 424.421 106.698C424.948 106.609 425.491 107.187 425.638 108.008Z" fill="#2E353A"/>
<path d="M416.447 109.579C416.641 110.375 416.261 111.124 415.733 111.211C415.206 111.3 414.66 110.709 414.517 109.901C414.373 109.092 414.703 108.356 415.229 108.269C415.758 108.18 416.313 108.807 416.447 109.579Z" fill="#2E353A"/>
<path d="M419.435 109.479C418.891 112.131 417.985 114.695 416.739 117.099C418.007 117.714 419.483 117.736 420.77 117.161L419.435 109.479Z" fill="#DE5753"/>
<path d="M427.98 104.545C427.809 104.6 427.62 104.56 427.486 104.439C426.608 103.575 425.375 103.176 424.157 103.362C423.9 103.425 423.638 103.268 423.574 103.009C423.511 102.752 423.668 102.49 423.927 102.426H423.929C425.462 102.152 427.033 102.637 428.143 103.73C428.342 103.905 428.36 104.21 428.185 104.409C428.182 104.411 428.179 104.415 428.177 104.418C428.118 104.47 428.052 104.514 427.98 104.545Z" fill="#2E353A"/>
<path d="M422.81 121.145C425.232 121.1 427.48 119.877 428.833 117.867C428.903 117.745 428.862 117.589 428.742 117.516C428.627 117.442 428.474 117.476 428.401 117.59C428.397 117.595 428.394 117.601 428.39 117.607C427.101 119.44 425.024 120.557 422.784 120.625C422.647 120.625 422.536 120.734 422.535 120.871C422.535 120.88 422.535 120.889 422.536 120.898C422.535 121.035 422.646 121.145 422.782 121.147C422.791 121.147 422.802 121.145 422.81 121.145Z" fill="#2E353A"/>
<path d="M411.957 107.083C411.873 107.134 411.776 107.159 411.678 107.151C411.422 107.081 411.271 106.815 411.341 106.559C411.343 106.555 411.343 106.552 411.344 106.549C411.746 105.038 412.857 103.819 414.323 103.28C414.577 103.203 414.846 103.346 414.923 103.601V103.602C414.993 103.857 414.851 104.121 414.6 104.203C413.455 104.664 412.595 105.637 412.281 106.83C412.217 106.958 412.097 107.051 411.957 107.083Z" fill="#2E353A"/>
<path d="M430.862 91.4253V95.9236C432.41 96.5207 433.487 98.0531 433.03 99.8808C432.055 103.783 434.875 109.307 438.016 111.263C438.016 111.263 437.909 109.637 439.317 109.854C440.726 110.072 441.377 118.527 439.209 122.863C439.209 122.863 442.787 118.743 443.98 109.637C445.083 101.215 444.513 94.3795 442.45 91.4253H430.862Z" fill="#2E353A"/>
<path d="M442.448 92.7256C442.448 92.7256 445.822 85.1377 433.246 83.4024C420.671 81.6684 407.447 86.6545 407.447 86.6545C407.447 86.6545 406.796 98.6939 417.441 98.5794C427.843 98.4662 442.448 92.7256 442.448 92.7256Z" fill="#2E353A"/>
<path d="M446.075 110.071C445.353 112.519 443.691 114.581 441.451 115.805C438.473 117.404 436.249 114.916 436.45 111.718C436.657 108.878 438.422 104.535 441.721 104.285C445.018 104.035 446.923 107.055 446.075 110.071Z" fill="#E4897B"/>
<path d="M439.105 135.87L424.682 142.374L423.836 137.161L418.532 139.026C416.629 139.696 415.434 141.583 415.643 143.591L416.242 149.313L423.56 145.308L427.206 150.466L444.532 142.121L439.105 135.87Z" fill="#407BFF"/>
<path opacity="0.7" d="M439.105 135.87L424.682 142.374L423.836 137.161L418.532 139.026C416.629 139.696 415.434 141.583 415.643 143.591L416.242 149.313L423.56 145.308L427.206 150.466L444.532 142.121L439.105 135.87Z" fill="white"/>
<path opacity="0.2" d="M456.224 172.16C455.314 177.922 454.364 184.258 453.493 190.788C447.522 179.483 452.426 168.426 452.426 168.426L456.224 172.16Z" fill="black"/>
<path d="M460.962 145.259C467.178 148.12 487.375 188.648 486.04 211.523C484.739 233.813 449.941 261.619 449.941 261.619C449.941 261.619 442.406 255.511 441.356 250.252C441.356 250.252 465.877 224.841 466.527 211.523C467.166 198.437 452.868 175.112 452.868 175.112C452.868 175.112 451.242 165.356 454.169 156.901C457.096 148.445 460.962 145.259 460.962 145.259Z" fill="#407BFF"/>
<path opacity="0.6" d="M460.962 145.259C467.178 148.12 487.375 188.648 486.04 211.523C484.739 233.813 449.941 261.619 449.941 261.619C449.941 261.619 442.406 255.511 441.356 250.252C441.356 250.252 465.877 224.841 466.527 211.523C467.166 198.437 452.868 175.112 452.868 175.112C452.868 175.112 451.242 165.356 454.169 156.901C457.096 148.445 460.962 145.259 460.962 145.259Z" fill="white"/>
<path d="M441.356 244.838C441.356 244.838 447.022 257.559 451.734 260.131C451.734 260.131 452.759 264.438 448.641 270.292C444.521 276.145 428.652 256.025 441.356 244.838Z" fill="#407BFF"/>
<path d="M101.293 466.539L111.847 467.654L113.827 444.893L103.274 443.778L101.293 466.539Z" fill="#E4897B"/>
<path d="M48.6359 465.77H58.8605L59.7061 442.082H49.4684L48.6359 465.77Z" fill="#E4897B"/>
<path d="M60.2785 464.586H47.8554C47.4365 464.589 47.0748 464.88 46.9838 465.289L44.9675 474.395C44.7945 475.21 45.3161 476.01 46.1317 476.183C46.241 476.207 46.3529 476.217 46.4634 476.216C50.4831 476.151 53.41 475.904 58.4573 475.904C61.5663 475.904 70.9454 476.229 75.2382 476.229C79.531 476.229 80.0904 471.988 78.3343 471.598C70.4511 469.881 64.5192 467.5 61.9956 465.237C61.5273 464.808 60.9133 464.575 60.2785 464.586Z" fill="#2E353A"/>
<path d="M112.963 464.261H100.54C100.121 464.264 99.7592 464.555 99.6681 464.964L97.6518 474.07C97.4788 474.885 98.0004 475.685 98.8161 475.858C98.9253 475.882 99.0372 475.892 99.1478 475.891C103.167 475.826 106.094 475.579 111.142 475.579C114.251 475.579 123.63 475.904 127.923 475.904C132.215 475.904 132.775 471.663 131.019 471.273C123.135 469.556 117.204 467.175 114.68 464.912C114.212 464.482 113.598 464.249 112.963 464.261Z" fill="#2E353A"/>
<path d="M114.79 459.999H99.7916C99.7916 459.999 101.014 330.883 84.7928 287.279C83.6481 301.692 82.3602 316.648 81.0984 329.112C80.3049 336.826 79.5244 343.452 78.7829 348.499C74.0608 381.021 62.145 461.301 62.145 461.301H47.3284C47.3284 461.301 49.0845 384.376 50.8407 352.414C52.7789 317.719 53.6115 241.456 53.6895 234.952H107.961C113.125 262.27 126.368 371.541 114.79 459.999Z" fill="#263238"/>
<path opacity="0.1" d="M114.79 459.999H99.7916C99.7916 459.999 101.014 330.883 84.7928 287.279C83.6481 301.692 82.3602 316.648 81.0984 329.112C80.3049 336.826 79.5244 343.452 78.7829 348.499C74.0608 381.021 62.145 461.301 62.145 461.301H47.3284C47.3284 461.301 49.0845 384.376 50.8407 352.414C52.7789 317.719 53.6115 241.456 53.6895 234.952H107.961C113.125 262.27 126.368 371.541 114.79 459.999Z" fill="white"/>
<path d="M100.826 154.185L88.5863 134.252C88.5863 134.252 85.42 133.679 83.5377 131.017C81.6567 128.354 80.4755 118.034 81.3666 117.568C82.2576 117.103 91.7513 118.218 92.4173 119.491C93.082 120.763 94.9566 131.329 94.9566 131.329L109.062 147.857L100.826 154.185Z" fill="#E4897B"/>
<path opacity="0.2" d="M100.826 154.185L88.5863 134.252C88.5863 134.252 85.42 133.679 83.5377 131.017C81.6567 128.354 80.4755 118.034 81.3666 117.568C82.2576 117.103 91.7513 118.218 92.4173 119.491C93.082 120.763 94.9566 131.329 94.9566 131.329L109.062 147.857L100.826 154.185Z" fill="black"/>
<path d="M104.251 137.795L101.106 134.624L90.5961 142.429L91.5847 146.494L104.251 137.795Z" fill="#407BFF"/>
<path opacity="0.6" d="M104.251 137.795L101.106 134.624L90.5961 142.429L91.5847 146.494L104.251 137.795Z" fill="white"/>
<path d="M96.0023 141.923L104.251 136.845C104.251 136.845 127.695 168.498 130.494 184.218C133.294 199.937 101.748 165.898 101.748 165.898L96.0023 141.923Z" fill="#407BFF"/>
<path d="M44.4536 145.308C44.4536 145.308 39.5403 148.104 38.8274 161.779C38.1848 174.106 42.1576 200.347 49.8846 206.081C62.2362 215.247 107.122 202.609 107.122 202.609L105.392 189.374C105.392 189.374 71.4137 193.877 63.3224 189.374C55.2311 184.87 52.8115 161.78 52.8115 161.78C52.8115 161.78 49.4293 146.723 44.4536 145.308Z" fill="#407BFF"/>
<path opacity="0.2" d="M44.4536 145.308C44.4536 145.308 39.5403 148.104 38.8274 161.779C38.1848 174.106 42.1576 200.347 49.8846 206.081C62.2362 215.247 107.122 202.609 107.122 202.609L105.392 189.374C105.392 189.374 71.4137 193.877 63.3224 189.374C55.2311 184.87 52.8115 161.78 52.8115 161.78C52.8115 161.78 49.4293 146.723 44.4536 145.308Z" fill="black"/>
<path d="M88.8515 121.504C88.6434 121.973 88.4223 122.428 88.1751 122.857C86.7181 125.459 84.5457 127.436 82.0611 128.659C81.4107 128.984 80.7342 129.257 80.0448 129.478C76.4024 130.636 72.3698 130.285 69.0396 128.113C67.6737 127.241 66.4119 126.044 65.3582 124.522C61.1695 118.564 62.3012 112.698 63.4199 102.629C63.6281 100.457 64.3305 98.3621 65.5013 96.528C69.5729 90.0497 78.1325 88.1115 84.5978 92.1831C93.7037 97.8288 92.5329 112.893 88.8515 121.504Z" fill="#E4897B"/>
<path opacity="0.2" d="M82.0612 128.66C81.4107 128.985 80.7343 129.258 80.0449 129.479C76.4025 130.637 72.3698 130.286 69.0397 128.113C70.0673 126.305 71.3942 125.03 71.3942 125.03C71.3942 125.03 77.5082 125.121 82.0612 128.66Z" fill="black"/>
<path d="M62.3987 141.615C67.3809 146.142 79.5868 144.468 79.5868 144.468C79.5868 144.468 87.2059 142.383 85.6058 140.002C81.1179 139.261 78.9455 137.166 78.0479 134.487C77.5276 132.926 77.4495 131.17 77.5926 129.361C77.6576 128.412 77.8007 127.449 77.9699 126.5L62.88 115.325C64.8573 122.701 67.2769 136.269 62.3987 141.615Z" fill="#E4897B"/>
<path d="M87.4375 99.4458C87.4375 99.4458 90.2603 108.964 80.5026 115.804C80.5026 115.804 76.3985 124.595 74.1129 125.68C71.8273 126.764 66.6564 126.113 64.9055 125.68C63.1545 125.247 54.1578 117.767 56.7595 100.205C59.3612 82.644 74.1129 88.1986 74.1129 88.1986C74.1129 88.1986 79.1511 83.8356 88.5224 89.2562C96.3379 93.7767 94.8094 102.265 87.4375 99.4458Z" fill="#2E353A"/>
<path d="M79.1757 111.26C79.4047 113.53 80.3283 115.327 81.7449 116.253C83.6298 117.459 85.4484 114.823 85.6618 111.775C85.8335 109.071 85.0907 105.098 82.8337 105.224C80.5767 105.349 78.9234 108.459 79.1757 111.26Z" fill="#E4897B"/>
<path d="M62.3989 138.363L63.9144 132.51C63.9144 132.51 78.8404 130.515 85.6867 137.122L83.915 144.055L62.3989 138.363Z" fill="#407BFF"/>
<path opacity="0.6" d="M62.3989 138.363L63.9144 132.51C63.9144 132.51 78.8404 130.515 85.6867 137.122L83.915 144.055L62.3989 138.363Z" fill="white"/>
<path d="M58.0409 142.305L62.3987 135.437C62.3987 135.437 81.0594 130.85 89.8857 141.924C98.7119 152.998 58.0409 142.305 58.0409 142.305Z" fill="#407BFF"/>
<path opacity="0.2" d="M58.0409 142.305L62.3987 135.437C62.3987 135.437 81.0594 130.85 89.8857 141.924C98.7119 152.998 58.0409 142.305 58.0409 142.305Z" fill="black"/>
<path d="M89.8857 192.851L113.22 191.234C113.22 191.234 115.195 188.692 118.426 188.258C121.658 187.823 131.35 191.557 131.35 192.562C131.35 193.568 125.965 201.465 124.53 201.465C123.095 201.465 112.863 198.234 112.863 198.234L91.6822 203.081L89.8857 192.851Z" fill="#E4897B"/>
<path d="M44.291 145.206C47.296 156.237 49.4684 167.489 50.7953 178.859C51.2245 182.345 51.5758 185.766 51.862 189.083C52.2392 193.298 52.4994 197.357 52.7075 201.207C52.9677 206.086 53.0457 211.848 53.0327 217.52C53.0067 230.554 48.6293 256.986 48.6293 256.986C59.0361 259.588 92.533 259.467 113.336 255.115C115.47 238.425 111.714 209.754 110.908 195.393C110.257 183.347 108.917 172.68 107.46 164.263C106.185 156.887 104.833 151.255 103.792 147.977C102.556 144.1 99.1869 141.303 95.1542 140.809C93.1639 140.562 90.8614 140.315 88.4419 140.171C87.5052 140.171 86.5686 140.08 85.619 140.067C77.8529 140.158 70.1129 140.692 62.4119 141.68C60.9549 141.85 59.4719 142.071 58.041 142.305C50.7172 143.424 44.291 145.206 44.291 145.206Z" fill="#407BFF"/>
<path d="M98.7211 141.924C111.025 142.916 135.227 183.154 130.674 191.9C126.121 200.644 118.488 204.707 105.324 179.991C92.1622 155.274 98.7211 141.924 98.7211 141.924Z" fill="#407BFF"/>
<path opacity="0.2" d="M98.7211 141.924C111.025 142.916 135.227 183.154 130.674 191.9C126.121 200.644 118.488 204.707 105.324 179.991C92.1622 155.274 98.7211 141.924 98.7211 141.924Z" fill="black"/>
<path opacity="0.2" d="M84.7929 287.22C83.6481 301.633 82.3603 316.619 81.0985 329.081C79.2513 311.09 76.9878 298.264 76.9878 298.264C76.9878 298.264 74.8674 296.521 69.0396 287.22C63.2118 277.906 69.0396 260.552 69.0396 260.552C68.8575 276.683 84.7929 287.22 84.7929 287.22Z" fill="black"/>
<path opacity="0.2" d="M67.4916 141.924C67.4916 141.924 66.8386 143.326 66.2363 145.937C65.9423 147.242 65.6301 148.838 65.4506 150.692C65.2398 152.54 65.154 154.64 65.1566 156.927C65.1709 159.213 65.3244 161.69 65.6483 164.291C65.7758 165.594 66.0425 166.918 66.2402 168.278C66.5043 169.632 66.7735 171.016 67.048 172.424C67.3108 173.839 67.6113 175.267 67.8546 176.733C68.0757 178.207 68.2994 179.699 68.5245 181.203C68.7105 182.707 68.8978 184.222 69.0852 185.743C69.2426 187.266 69.4013 188.796 69.5587 190.326C70.0881 196.453 70.4563 202.588 70.7385 208.34C71.0169 214.092 71.0989 219.469 71.1964 224.072C71.2849 228.677 71.2394 232.518 71.2394 235.203C71.199 237.889 71.1769 239.424 71.1769 239.424C71.1769 239.424 70.892 233.292 70.4654 224.095C70.2611 219.497 69.9333 214.138 69.612 208.399C69.2751 202.659 68.8445 196.543 68.2643 190.444C68.1212 188.92 67.9794 187.395 67.8363 185.877C67.6633 184.363 67.4916 182.854 67.3212 181.358C67.1131 179.872 66.9075 178.398 66.7033 176.941C66.4756 175.486 66.1882 174.046 65.9384 172.63C65.6899 171.233 65.3986 169.817 65.1891 168.446C65.0278 167.06 64.7976 165.715 64.7065 164.39C64.4554 161.746 64.3722 159.233 64.4242 156.917C64.4736 154.602 64.6675 152.483 64.9706 150.627C65.2411 148.765 65.6327 147.17 65.9904 145.872C66.7332 143.277 67.4916 141.924 67.4916 141.924Z" fill="black"/>
</g>
<defs>
<clipPath id="clip0_590_1267">
<rect width="500" height="500" fill="white" transform="translate(0 0.155273)"/>
</clipPath>
</defs>
</svg>
