<?xml version="1.0" encoding="UTF-8" standalone="no"?><!DOCTYPE svg PUBLIC "-//W3C//DTD SVG 1.1//EN" "http://www.w3.org/Graphics/SVG/1.1/DTD/svg11.dtd"><svg width="100%" height="100%" viewBox="0 0 4320 4320" version="1.1" xmlns="http://www.w3.org/2000/svg" xmlns:xlink="http://www.w3.org/1999/xlink" xml:space="preserve" xmlns:serif="http://www.serif.com/" style="fill-rule:evenodd;clip-rule:evenodd;stroke-linejoin:round;stroke-miterlimit:2;"><g><path d="M2137.78,2067.9c5.551,-0.768 4.784,-23.917 2.687,-24.104c-2.116,-0.187 -2.687,3.632 -8.041,6.889c-5.354,3.258 0.039,17.943 5.354,17.215Z" style="fill:#12b9e4;fill-rule:nonzero;"/><path d="M1521.96,3429.13c1.111,5.04 6.161,2.796 11.2,7.284c5.029,4.478 9.517,12.863 14.557,5.039c5.049,-7.844 -26.388,-15.108 -25.757,-12.323Z" style="fill:#12b9e4;fill-rule:nonzero;"/><path d="M961.897,1444.28c-3.445,7.46 7.45,7.46 8.031,16.072c0.581,8.602 11.476,11.476 19.507,6.309c8.042,-5.167 30.993,1.525 30.993,-5.167c0,-6.309 -24.093,-17.795 -32.705,-16.073c-8.612,1.723 -22.391,-8.602 -25.826,-1.141Z" style="fill:#12b9e4;fill-rule:nonzero;"/><path d="M1033.64,1593.49c6.879,-1.152 5.61,-11.772 1.712,-17.224c-2.874,-4.006 -10.324,-4.587 -16.643,-4.006c-6.318,0.571 -17.214,10.324 -11.476,20.078c5.738,9.754 19.507,2.293 26.407,1.152Z" style="fill:#12b9e4;fill-rule:nonzero;"/><path d="M976.247,1715.72c4.015,-0.571 12.047,-14.921 1.712,-14.35c-10.324,0.571 -7.962,15.246 -1.712,14.35Z" style="fill:#12b9e4;fill-rule:nonzero;"/><path d="M967.064,1671.54c1.142,-5.738 -18.946,-8.042 -17.804,-14.35c1.161,-6.319 -18.927,-11.477 -25.236,-14.921c-6.318,-3.445 -16.072,-5.168 -16.072,-12.047c0,-6.89 -13.77,-1.732 -14.35,8.602c-0.581,10.334 -6.319,8.031 -3.445,17.785c2.864,9.763 -12.628,12.066 -10.905,17.224c1.732,5.157 9.192,-0.571 16.072,-0.571c6.89,0 -1.87,9.606 6.89,10.324c6.88,0.571 18.936,-7.46 21.81,-12.046c2.864,-4.597 8.602,-6.319 16.633,-0.581c8.042,5.748 25.255,6.318 26.407,0.581Z" style="fill:#12b9e4;fill-rule:nonzero;"/><path d="M925.746,1703.1c9.173,5.738 22.953,-9.763 21.811,-14.349c-1.162,-4.597 -32.913,7.421 -21.811,14.349Z" style="fill:#12b9e4;fill-rule:nonzero;"/><path d="M2061.26,2095.06c-0.965,-6.506 -14.114,1.949 -11.299,3.829c5.748,3.828 12.244,2.677 11.299,-3.829Z" style="fill:#12b9e4;fill-rule:nonzero;"/><path d="M2352.59,2160.1c-0.187,-1.919 -4.97,1.152 -8.031,-0.57c-3.071,-1.713 -16.84,1.151 -20.462,-2.294c-3.641,-3.445 -11.052,2.717 -7.854,3.248c4.597,0.768 11.476,4.783 18.936,4.971c7.471,0.206 17.599,-3.435 17.411,-5.355Z" style="fill:#12b9e4;fill-rule:nonzero;"/><path d="M2449.58,2164.88c-0.373,-2.107 2.491,-6.506 6.89,-8.229c4.39,-1.712 2.687,-4.97 -0.187,-2.48c-2.864,2.48 -9.773,5.158 -18.366,5.541c-8.612,0.384 -11.298,6.054 -5.924,9.183c6.88,4.026 17.971,-1.909 17.587,-4.015Z" style="fill:#12b9e4;fill-rule:nonzero;"/><path d="M1895.98,1903.01c4.783,0 15.875,-3.071 22.381,-9.183c6.495,-6.122 9.94,-0.207 15.875,-3.248c5.935,-3.071 2.294,-25.442 0,-30.039c-0.413,-0.816 -0.404,-1.446 -0.226,-1.997c0.797,-2.618 6.84,-3.071 9.98,-6.231c3.828,-3.828 -1.91,-9.379 -7.264,-14.536c-4.832,-4.666 -11.082,2.647 -16.19,2.568c-0.541,0 -1.073,-0.069 -1.595,-0.285c-5.354,-2.087 -12.824,-2.096 -13.011,2.687c-0.197,4.783 5.925,3.061 6.122,6.112c0.187,3.071 -6.122,2.303 -10.531,5.364c-4.39,3.061 -9.183,-2.096 -13.769,0.187c-4.597,2.293 4.969,4.99 1.525,9.763c-3.435,4.794 0.197,4.587 5.935,9.183c5.738,4.596 -3.445,5.738 -3.445,10.905c0,5.158 -7.077,4.971 -8.612,8.415c-1.516,3.445 6.122,10.335 12.825,10.335Z" style="fill:#12b9e4;fill-rule:nonzero;"/><path d="M1931.76,1794.92c-3.838,3.061 4.399,7.087 9.36,7.658c4.98,0.571 -3.819,4.203 -4.774,9.556c-0.964,5.355 6.506,3.071 6.89,6.89c0.384,3.819 -10.718,4.399 -10.718,8.022c0,3.651 6.309,-1.713 9.173,-3.239c2.874,-1.535 -1.516,8.977 5.364,7.835c6.889,-1.142 4.97,-10.512 7.46,-10.138c2.49,0.394 -1.141,4.971 0.965,8.996c2.096,4.016 -4.98,10.138 -4.596,13.012c0.383,2.864 14.153,2.864 18.562,-1.723c4.399,-4.596 6.495,0.384 3.435,3.829c-3.051,3.445 -1.722,6.692 2.116,8.041c3.818,1.328 5.167,1.712 3.445,4.763c-1.733,3.071 -0.207,8.799 -1.152,11.673c-0.954,2.865 -12.825,2.49 -13.198,0.581c-0.384,-1.919 -5.364,-0.581 -4.016,2.096c1.329,2.687 -4.212,5.551 -3.829,8.042c0.384,2.49 7.461,1.909 7.638,4.98c0.196,3.051 -5.157,6.683 -12.421,8.799c-7.274,2.096 1.526,7.844 4.961,5.344c3.444,-2.48 2.687,1.722 7.667,1.722c4.97,0 8.031,4.016 13.572,1.92c5.551,-2.116 5.364,0 1.151,3.247c-4.212,3.249 -10.521,-0.196 -14.35,1.92c-3.828,2.096 -19.389,16.692 -16.446,20.275c1.723,2.096 4.006,-3.061 9.557,-5.364c5.551,-2.293 6.505,1.535 9.567,1.919c3.06,0.384 3.248,-6.309 5.738,-5.738c2.48,0.571 4.783,-2.106 9.369,-1.339c4.597,0.768 7.844,-0.964 10.148,-2.873c2.293,-1.91 8.405,3.818 10.324,2.48c1.92,-1.329 10.334,-2.864 14.537,-2.677c4.213,0.197 15.108,-4.774 17.982,-7.461c2.864,-2.667 -1.732,-3.238 -5.541,-2.667c-3.829,0.571 -3.071,-3.838 0.944,-7.657c4.026,-3.819 10.335,-6.693 10.719,-12.431c0.384,-5.738 -12.244,-9.754 -13.592,-6.702c-1.319,3.061 -4.193,2.686 -6.299,-0.758c-2.107,-3.445 1.909,-6.703 -0.197,-7.077c-2.106,-0.384 -4.773,-5.177 -4.203,-7.077c0.571,-1.919 -3.257,-14.162 -9.763,-15.688c-6.496,-1.535 -7.461,-10.718 -8.603,-15.688c-1.141,-4.971 -5.363,-2.304 -8.612,-6.506c-3.247,-4.213 -8.798,-2.106 -11.663,-1.91c-2.873,0.187 0,-5.363 4.587,-8.415c4.586,-3.061 9.951,-19.33 9.951,-22.578c0,-3.248 -20.088,-3.061 -23.907,-1.141c-3.839,1.909 -7.657,-2.874 -4.409,-4.223c3.247,-1.328 10.147,-8.021 9.763,-10.698c-0.384,-2.677 4.783,-5.167 1.92,-7.657c-2.875,-2.481 -3.268,3.257 -5.749,5.167c-2.48,1.909 -8.04,1.338 -13.966,0.196c-5.934,-1.161 -8.228,7.254 -8.031,10.906c0.187,3.632 -6.899,5.738 -5.738,8.799c1.142,3.051 -1.338,5.354 -3.258,3.622c-1.909,-1.723 -4.016,-5.926 -7.834,-2.865Z" style="fill:#12b9e4;fill-rule:nonzero;"/><path d="M2000.43,1747.67c3.248,-3.248 7.077,-15.679 2.116,-14.34c-4.98,1.348 -3.523,15.767 -2.116,14.34Z" style="fill:#12b9e4;fill-rule:nonzero;"/><path d="M1926.4,1789.18c5.157,-0.186 11.092,-8.986 8.602,-11.485c-2.481,-2.481 -12.451,11.623 -8.602,11.485Z" style="fill:#12b9e4;fill-rule:nonzero;"/><path d="M2166.29,1842.17c-3.454,-0.768 -1.348,4.96 3.425,5.738c4.793,0.758 9.951,-8.415 9.38,-10.718c-0.571,-2.293 4.882,-12.834 3.071,-13.956c-1.536,-0.965 -2.688,2.667 -4.4,3.051c-1.732,0.393 -3.632,-7.264 -4.409,-3.051c-0.768,4.202 -4.586,-1.733 -8.415,3.621c-3.829,5.365 2.293,10.148 4.97,11.87c2.677,1.723 -0.197,4.203 -3.622,3.445Z" style="fill:#12b9e4;fill-rule:nonzero;"/><path d="M2259.04,1788.03c-7.253,0.197 -10.659,14.498 -8.789,16.84c1.536,1.91 16.062,-17.027 8.789,-16.84Z" style="fill:#12b9e4;fill-rule:nonzero;"/><path d="M2310.51,1767.36c1.535,-2.864 -11.053,-1.604 -8.228,0.975c2.116,1.909 6.712,1.899 8.228,-0.975Z" style="fill:#12b9e4;fill-rule:nonzero;"/><path d="M2299.61,1784.21c3.434,-0.197 11.279,-6.702 13.385,-8.809c2.107,-2.106 -1.348,-4.389 -8.228,-2.48c-6.88,1.919 -7.903,11.437 -5.157,11.289Z" style="fill:#12b9e4;fill-rule:nonzero;"/><path d="M2702.56,2480.97c4.291,4.439 12.716,-0.728 13.169,-2.509c0.443,-1.782 -17.991,-2.49 -13.169,2.509Z" style="fill:#12b9e4;fill-rule:nonzero;"/><path d="M3767.62,3136.37c3.15,2.864 13.779,1.998 15.453,-2.008c1.771,-4.026 -18.307,-0.571 -15.453,2.008Z" style="fill:#12b9e4;fill-rule:nonzero;"/><path d="M3231.81,1277.48c0,4.202 -12.303,8.405 -8.858,11.476c3.051,2.687 5.807,1.909 9.645,2.677c3.74,0.768 5.709,10.324 12.598,8.809c6.89,-1.536 25.59,7.637 36.712,7.637c11.121,0 12.204,-9.173 8.759,-9.566c-3.444,-0.375 -0.295,-5.738 5.807,-14.528c6.103,-8.799 -19.192,-15.304 -19.192,-8.424c0,6.889 -7.283,-1.526 -9.547,-5.738c-2.264,-4.213 -35.924,3.444 -35.924,7.657Z" style="fill:#12b9e4;fill-rule:nonzero;"/><path d="M3291.06,1331.42c5.413,3.061 22.637,-3.829 34.054,-3.445c11.515,0.384 43.601,-8.799 44.782,-14.921c1.181,-6.122 -11.909,-5.738 -16.83,-11.102c-5.019,-5.354 -16.043,-0.758 -18.7,3.839c-2.756,4.586 -5.807,0.384 1.476,-6.89c7.283,-7.273 -7.283,-13.011 -7.677,-8.425c-0.393,4.597 -13.779,0.768 -13.779,4.98c0,4.203 -4.921,6.122 -4.527,10.335c0.393,4.202 -9.252,-2.303 -9.548,7.263c-0.393,9.567 -14.861,15.138 -9.251,18.366Z" style="fill:#12b9e4;fill-rule:nonzero;"/><path d="M3211.53,1266.76c7.283,3.061 4.527,4.98 -3.051,4.98c-7.677,0 -14.271,2.578 -9.252,4.596c3.838,1.535 3.445,5.738 11.515,7.647c8.071,1.91 16.043,-4.596 15.256,-9.183c-0.689,-4.596 27.952,-8.798 35.629,-10.718c7.677,-1.909 -5.02,-9.95 3.445,-10.708c8.365,-0.758 4.921,-4.586 -5.414,-6.122c-10.236,-1.535 -6.102,-10.334 -9.547,-13.385c-3.445,-3.061 -5.315,3.819 -18.7,6.506c-13.385,2.677 -19.881,6.121 -14.566,8.789c5.413,2.677 0,9.182 -5.709,8.808c-5.709,-0.393 -6.89,5.738 0.394,8.79Z" style="fill:#12b9e4;fill-rule:nonzero;"/><path d="M3201.59,1239.61c1.476,-5.738 -23.907,-3.248 -17.253,2.293c2.303,1.909 15.678,3.445 17.253,-2.293Z" style="fill:#12b9e4;fill-rule:nonzero;"/><path d="M3456.3,1427.06c-1.466,3.071 -9.842,3.267 -7.579,6.131c3.839,4.971 22.943,2.294 23.337,-3.828c0.393,-6.122 -14.174,-5.354 -15.758,-2.303Z" style="fill:#12b9e4;fill-rule:nonzero;"/><path d="M1211.18,2511.69c1.545,1.427 7.175,-0.118 9.832,-1.211c2.648,-1.112 2.323,-4.98 -0.669,-7.539c-2.973,-2.529 -12.382,1.339 -9.508,2.667c2.884,1.329 -1.378,4.479 0.345,6.083Z" style="fill:#12b9e4;fill-rule:nonzero;"/><path d="M2207.21,2118.98c-7.844,1.712 -11.092,2.283 -15.678,0c-4.597,-2.294 -12.038,2.086 -10.906,5.157c0.758,2.106 3.829,4.783 13.385,7.273c9.567,2.49 10.719,8.986 14.734,9.183c4.016,0.187 4.4,-3.642 3.445,-8.799c-0.964,-5.167 4.774,-11.102 5.355,-12.056c0.561,-0.945 -2.491,-2.481 -10.335,-0.758Z" style="fill:#12b9e4;fill-rule:nonzero;"/><path d="M2123.81,2077.84c-2.106,3.642 6.496,9.183 4.783,16.643c-1.722,7.461 0.955,16.84 5.355,12.441c4.399,-4.39 6.515,-2.293 8.995,-5.551c2.49,-3.248 0.384,-15.295 2.097,-21.033c1.732,-5.738 -7.648,-8.425 -11.86,-4.793c-4.203,3.642 -7.667,-0.62 -9.37,2.293Z" style="fill:#12b9e4;fill-rule:nonzero;"/><g><path d="M1133.41,744.605c-0.404,0.58 0.154,2.481 -0.285,3.044c-22.171,28.715 -87.959,44.503 -193.373,44.503c-105.414,0 -170.052,-13.86 -193.305,-44.378c-0.461,-0.614 0.068,-1.638 -0.358,-2.259c0,-1.382 2.907,-5.752 3.237,-7.117c7.146,-29.824 87.618,-49.936 190.426,-49.936c107.491,0 193.658,24.402 193.658,56.143Z" style="fill:#39475e;fill-rule:nonzero;"/><path d="M939.752,691.261c-59.039,0 -111.9,7.766 -147.59,20.027l0,59.415c35.69,9.063 88.551,12.989 147.59,12.989c59.04,0 111.9,-3.926 147.59,-12.989l0,-59.415c-35.69,-12.261 -88.55,-20.027 -147.59,-20.027Z" style="fill:#5f779e;fill-rule:nonzero;"/><path d="M746.06,743.109c3.983,12.096 20.699,21.147 46.102,27.594l0,-59.415c-25.403,8.727 -42.119,19.719 -46.102,31.821Z" style="fill:#516687;fill-rule:nonzero;"/><path d="M1133.44,743.109c-3.983,-12.102 -20.698,-23.094 -46.102,-31.821l0,59.415c25.404,-6.447 42.119,-15.498 46.102,-27.594Z" style="fill:#516687;fill-rule:nonzero;"/><path d="M939.752,704.13c92.039,0 169.597,18.235 193.658,43.138l0,-132.656c0,-21.585 -73.673,-51.705 -193.658,-51.705c-119.99,0 -193.663,30.12 -193.663,51.705l0,132.656c24.06,-24.903 101.625,-43.138 193.663,-43.138Z" style="fill-rule:nonzero;"/><path d="M939.752,698.304c92.039,0 169.597,18.235 193.658,43.132l0,-132.644c0,-21.597 -73.673,-51.717 -193.658,-51.717c-119.99,0 -193.663,30.12 -193.663,51.717l0,132.644c24.06,-24.897 101.625,-43.132 193.663,-43.132Z" style="fill:#404040;fill-rule:nonzero;"/><path d="M862.04,612.49c-4.296,0 -8.073,2.134 -10.611,5.399c-2.532,-3.265 -6.31,-5.399 -10.594,-5.399c-7.629,0 -13.814,6.606 -13.814,14.77c0,8.17 20.443,36.077 24.408,36.077c3.988,0 24.431,-27.907 24.431,-36.077c0,-8.164 -6.196,-14.77 -13.82,-14.77Z" style="fill:#df4019;fill-rule:nonzero;"/><path d="M909.974,658.825l-6.629,0l0,-42.659l-10.616,0.096l0,-5.086l17.245,-1.804l0,49.453Z" style="fill:#df4019;fill-rule:nonzero;"/><path d="M960.098,658.825l-30.268,0l0,-4.523l15.304,-18.246c2.72,-3.306 4.569,-5.934 5.542,-7.886c0.967,-1.957 1.456,-3.92 1.456,-5.911c0,-2.253 -0.659,-4.102 -1.979,-5.536c-1.315,-1.439 -3.135,-2.162 -5.457,-2.162c-2.879,0 -5.075,0.882 -6.577,2.64c-1.507,1.769 -2.264,3.966 -2.264,6.6l-6.361,0l-0.068,-0.199c-0.108,-3.977 1.217,-7.345 3.988,-10.099c2.765,-2.754 6.526,-4.131 11.282,-4.131c4.353,0 7.783,1.201 10.281,3.613c2.498,2.413 3.75,5.525 3.75,9.342c0,2.566 -0.712,5.075 -2.128,7.533c-1.417,2.458 -3.573,5.542 -6.475,9.24l-12.289,14.4l0.068,0.17l22.195,0l0,5.155Z" style="fill:#df4019;fill-rule:nonzero;"/><path d="M991.64,625.912c0,-3.505 -0.779,-6.276 -2.344,-8.307c-1.565,-2.031 -3.772,-3.044 -6.628,-3.044c-2.834,0 -5.024,1.013 -6.566,3.044c-1.536,2.031 -2.31,4.802 -2.31,8.307l0,17.04c0,3.504 0.791,6.281 2.361,8.34c1.576,2.054 3.767,3.078 6.583,3.078c2.856,0 5.058,-1.018 6.594,-3.061c1.542,-2.048 2.31,-4.83 2.31,-8.357l0,-17.04Zm6.6,15.703c0,5.513 -1.405,9.876 -4.205,13.091c-2.799,3.215 -6.571,4.825 -11.299,4.825c-4.711,0 -8.477,-1.61 -11.299,-4.825c-2.828,-3.215 -4.239,-7.578 -4.239,-13.091l0,-14.332c0,-5.468 1.4,-9.826 4.205,-13.058c2.799,-3.237 6.554,-4.853 11.265,-4.853c4.733,0 8.511,1.616 11.333,4.853c2.822,3.232 4.239,7.59 4.239,13.058l0,14.332Z" style="fill:#df4019;fill-rule:nonzero;"/><rect x="1096.63" y="607.068" width="5.803" height="78.987" style="fill-rule:nonzero;"/><rect x="776.158" y="607.068" width="5.798" height="78.987" style="fill-rule:nonzero;"/><path d="M809.873,643.583c0,3.135 -2.537,5.672 -5.666,5.672c-3.135,0 -5.673,-2.537 -5.673,-5.672c0,-3.129 2.538,-5.672 5.673,-5.672c3.129,0 5.666,2.543 5.666,5.672Z" style="fill:#03b8ff;fill-rule:nonzero;"/><path d="M1063.79,664.361l-14.85,-4.711l3.937,-7.271c0.268,-0.495 0.456,-1.07 0.518,-1.673c0.08,-0.819 -0.08,-1.598 -0.392,-2.298c0.074,-0.564 0.074,-1.138 -0.018,-1.724l-1.644,-10.611l7.874,2.765l0,9.433c0,0.967 0.78,1.753 1.753,1.753c0.961,0 1.752,-0.786 1.752,-1.753l0,-10.667c0,-0.604 -0.33,-1.201 -0.899,-1.52l-0.142,-0.074l-12.062,-6.656c-1.28,-1.736 -3.459,-2.725 -5.74,-2.378c-2.105,0.335 -3.772,1.706 -4.563,3.521l-8.517,2.851l-6.475,-8.113c-0.603,-0.757 -1.707,-0.882 -2.464,-0.279c-0.751,0.603 -0.876,1.701 -0.278,2.458l7.231,9.069c0.358,0.432 0.922,0.699 1.525,0.637l0.21,-0.017l8.711,-0.842l1.906,12.249l0.188,0.814l-8.745,5.888l-0.324,0.211l-0.615,0.683l-7.601,13.791c-0.575,1.041 -0.199,2.35 0.842,2.93c1.047,0.563 2.355,0.193 2.93,-0.853l7.203,-13.075l8.841,-2.919l-0.443,4.359l-0.052,0.5c-0.102,1.036 0.518,2.037 1.554,2.367l17.455,5.547c1.212,0.376 2.503,-0.296 2.89,-1.502c0.381,-1.206 -0.284,-2.503 -1.496,-2.89Z" style="fill:#df4019;fill-rule:nonzero;"/><path d="M1042.88,626.264c2.896,-0.449 5.633,-3.647 5.121,-6.986c-0.524,-3.346 -3.653,-5.633 -6.992,-5.121c-3.352,0.524 -5.639,3.653 -5.121,6.998c0.523,3.34 4.102,5.553 6.992,5.109Z" style="fill:#df4019;fill-rule:nonzero;"/></g><path d="M3403.65,2475.84l9.055,-145.222l194.679,83.57c0.285,-39.585 -19.783,-76.563 -53.148,-97.871l-135.921,-86.907l2.559,-38.719c2.067,-37.223 -11.024,-73.689 -36.417,-101.021c-5.609,-6.043 -15.157,-5.935 -20.57,0.266l-0.492,0.522c-23.129,26.436 -35.235,60.707 -33.857,95.774l2.165,42.47l-137.397,84.653c-33.71,20.767 -54.369,57.399 -54.693,96.995l196.027,-80.372l6.693,145.36l-49.605,35.875c-6.496,6.22 -10.137,14.763 -10.236,23.719l-0.295,43.69l82.379,-57.341l1.87,20.511c0.295,3.652 3.346,6.457 6.988,6.457c3.74,0 6.791,-2.805 7.087,-6.457l1.771,-19.162l79.526,57.468l0.394,-43.679c0.087,-8.957 -3.456,-17.569 -9.843,-23.897l-48.719,-36.682Z" style="fill:#cdecf9;fill-rule:nonzero;"/><path d="M3218.52,2289l0,-12.106c0,-9.872 -7.973,-17.873 -17.913,-17.873c-9.852,0 -17.854,8.001 -17.854,17.873l0,34.536c2.382,-1.702 4.813,-3.356 7.342,-4.911l28.425,-17.519Z" style="fill:#546f7d;fill-rule:nonzero;"/><path d="M3269.7,2253.36c0,-9.871 -7.972,-17.883 -17.814,-17.883c-9.941,0 -17.913,8.012 -17.913,17.883l0,26.131l35.727,-22.046l0,-4.085Z" style="fill:#546f7d;fill-rule:nonzero;"/><path d="M3564.18,2313.4l0,-36.505c0,-9.872 -7.973,-17.873 -17.815,-17.873c-9.941,0 -17.912,8.001 -17.912,17.873l0,13.395l30.116,19.261c1.969,1.231 3.839,2.53 5.611,3.849Z" style="fill:#546f7d;fill-rule:nonzero;"/><path d="M3513,2253.36c0,-9.871 -7.972,-17.883 -17.913,-17.883c-9.842,0 -17.824,8.012 -17.824,17.883l0,4.203l35.737,22.853l0,-27.056Z" style="fill:#546f7d;fill-rule:nonzero;"/><path d="M3380.52,2541.79l1.771,-19.162l79.526,57.468l0.394,-43.679c0.087,-8.957 -3.456,-17.569 -9.843,-23.897l-48.719,-36.682l9.055,-145.222l194.679,83.57c0.285,-39.585 -19.783,-76.563 -53.148,-97.871l-135.921,-86.907l2.559,-38.719c2.067,-37.223 -11.024,-73.689 -36.417,-101.021c-2.952,-3.188 -6.987,-4.616 -11.023,-4.389l0,462.968c3.74,0 6.791,-2.805 7.087,-6.457Z" style="fill:#9ddbed;fill-rule:nonzero;"/><path d="M2557.15,3451.06l-18.612,-3.642l23.534,-120.055l18.601,3.651l-23.523,120.046Z" style="fill:#ebebec;fill-rule:nonzero;"/><path d="M2674.46,3454.81l-86.975,-120.056l15.344,-11.131l86.985,120.055l-15.354,11.132Z" style="fill:#ebebec;fill-rule:nonzero;"/><rect x="2590.41" y="3329.2" width="9.478" height="120.055" style="fill:#ebebec;fill-rule:nonzero;"/><path d="M2593.92,3225.07l-154.976,-117.802c4.557,-6.407 4.085,-15.334 -1.555,-21.229c-6.387,-6.644 -16.958,-6.87 -23.622,-0.483c-6.663,6.388 -6.879,16.959 -0.492,23.622c5.65,5.885 14.548,6.722 21.142,2.431l111.276,159.729l48.227,-46.268Z" style="fill:#546f7d;fill-rule:nonzero;"/><path d="M2438.95,3107.26c4.557,-6.407 4.085,-15.334 -1.555,-21.229c-6.387,-6.644 -16.958,-6.87 -23.622,-0.483l156.039,162.653l24.114,-23.139l-154.976,-117.802Z" style="fill:#4b6371;fill-rule:nonzero;"/><path d="M2635.85,3317.03c59.949,-57.527 61.937,-152.761 4.409,-212.729l-217.159,208.32c57.538,59.969 152.781,61.947 212.75,4.409Z" style="fill:#546f7d;fill-rule:nonzero;"/><path d="M2730.93,3458.73l-248.014,0c-5.246,0 -9.478,-4.242 -9.478,-9.478c0,-5.236 4.232,-9.478 9.478,-9.478l248.014,0c5.226,0 9.478,4.242 9.478,9.478c0,5.236 -4.252,9.478 -9.478,9.478Z" style="fill:#feffff;fill-rule:nonzero;"/><path d="M3324.52,306.691c0,64.22 -80.509,212.483 -130.114,297.707c-16.919,29.143 -58.984,29.143 -75.932,0c-49.566,-85.224 -130.046,-233.487 -130.046,-297.707c0,-92.803 75.224,-168.037 168.027,-168.037c92.772,0 168.065,75.234 168.065,168.037Z" style="fill:#34495e;fill-rule:nonzero;"/><path d="M3194.41,604.398c49.605,-85.224 130.114,-233.487 130.114,-297.707c0,-92.803 -75.293,-168.037 -168.065,-168.037l0,487.603c14.753,0 29.507,-7.293 37.951,-21.859Z" style="fill:#253545;fill-rule:nonzero;"/><path d="M3264.29,296.287c0,59.536 -48.325,107.802 -107.831,107.802c-59.536,0 -107.802,-48.266 -107.802,-107.802c0,-59.535 48.266,-107.802 107.802,-107.802c59.506,0 107.831,48.267 107.831,107.802Z" style="fill:#efc94d;fill-rule:nonzero;"/><path d="M3210.35,296.287c0,29.773 -24.123,53.896 -53.895,53.896c-29.763,0 -53.896,-24.123 -53.896,-53.896c0,-29.772 24.133,-53.896 53.896,-53.896c29.772,0 53.895,24.124 53.895,53.896Z" style="fill:#e04949;fill-rule:nonzero;"/><path d="M2213.52,1007.37l311.408,0c7.864,0 14.222,-6.368 14.222,-14.222l0,-345.639l-94.141,-95.667l-231.489,0c-7.854,0 -14.222,6.368 -14.222,14.223l0,427.083c0,7.854 6.368,14.222 14.222,14.222Z" style="fill:#fff;fill-rule:nonzero;"/><path d="M2539.15,647.507l-94.141,0l0,-95.667l94.141,95.667Z" style="fill:#bababb;fill-rule:nonzero;"/><path d="M2236.71,763.025l265.041,0c3.327,0 6.024,-2.697 6.024,-6.024c0,-3.326 -2.697,-6.023 -6.024,-6.023l-265.041,0c-3.327,0 -6.023,2.697 -6.023,6.023c0,3.327 2.696,6.024 6.023,6.024Z" style="fill:#bababb;fill-rule:nonzero;"/><path d="M2236.71,796.105l265.041,0c3.327,0 6.024,-2.697 6.024,-6.014c0,-3.336 -2.697,-6.033 -6.024,-6.033l-265.041,0c-3.327,0 -6.023,2.697 -6.023,6.033c0,3.317 2.696,6.014 6.023,6.014Z" style="fill:#bababb;fill-rule:nonzero;"/><path d="M2236.71,829.194l265.041,0c3.327,0 6.024,-2.697 6.024,-6.033c0,-3.327 -2.697,-6.014 -6.024,-6.014l-265.041,0c-3.327,0 -6.023,2.687 -6.023,6.014c0,3.336 2.696,6.033 6.023,6.033Z" style="fill:#bababb;fill-rule:nonzero;"/><path d="M2236.71,862.274l265.041,0c3.327,0 6.024,-2.707 6.024,-6.033c0,-3.327 -2.697,-6.024 -6.024,-6.024l-265.041,0c-3.327,0 -6.023,2.697 -6.023,6.024c0,3.326 2.696,6.033 6.023,6.033Z" style="fill:#bababb;fill-rule:nonzero;"/><path d="M2236.71,895.344l265.041,0c3.327,0 6.024,-2.697 6.024,-6.014c0,-3.337 -2.697,-6.033 -6.024,-6.033l-265.041,0c-3.327,0 -6.023,2.696 -6.023,6.033c0,3.317 2.696,6.014 6.023,6.014Z" style="fill:#bababb;fill-rule:nonzero;"/><path d="M2236.71,928.433l265.041,0c3.327,0 6.024,-2.696 6.024,-6.023c0,-3.327 -2.697,-6.024 -6.024,-6.024l-265.041,0c-3.327,0 -6.023,2.697 -6.023,6.024c0,3.327 2.696,6.023 6.023,6.023Z" style="fill:#bababb;fill-rule:nonzero;"/><path d="M2392.9,619.014l-87.871,116.384l-87.861,-116.384l43.915,0l0,-67.174l87.891,0l0,67.174l43.926,0Z" style="fill:#34b357;fill-rule:nonzero;"/><path d="M2348.97,619.014l43.926,0l-87.871,116.384l0,-183.558l43.945,0l0,67.174Z" style="fill:#31a24d;fill-rule:nonzero;"/><path d="M1092.16,1402.38l-212.012,0l27.362,-105.144c5.354,-20.57 23.936,-34.93 45.195,-34.93l66.898,0c21.259,0 39.831,14.36 45.185,34.93l27.372,105.144Z" style="fill:#28415f;fill-rule:nonzero;"/><path d="M1064.79,1297.24c-5.354,-20.57 -23.926,-34.93 -45.185,-34.93l-34.714,0l0,140.074l107.271,0l-27.372,-105.144Z" style="fill:#345277;fill-rule:nonzero;"/><path d="M1088.84,1760.11l-212.011,0l27.371,105.144c5.354,20.57 23.926,34.93 45.186,34.93l66.897,0c21.259,0 39.832,-14.36 45.186,-34.93l27.371,-105.144Z" style="fill:#28415f;fill-rule:nonzero;"/><path d="M1061.47,1865.26l27.371,-105.144l-103.954,0l0,140.074l31.397,0c21.259,0 39.832,-14.36 45.186,-34.93Z" style="fill:#345277;fill-rule:nonzero;"/><path d="M1099.68,1763.28l-230.367,0c-24.192,0 -43.798,-19.616 -43.798,-43.808l0,-276.448c0,-24.192 19.606,-43.808 43.798,-43.808l230.367,0c24.192,0 43.798,19.616 43.798,43.808l0,276.448c0,24.192 -19.606,43.808 -43.798,43.808Z" style="fill:#406795;fill-rule:nonzero;"/><path d="M869.311,1733.14c-7.529,0 -13.671,-6.132 -13.671,-13.671l0,-276.448c0,-7.549 6.142,-13.681 13.671,-13.681l230.367,0c7.529,0 13.661,6.132 13.661,13.681l0,276.448c0,7.539 -6.132,13.671 -13.661,13.671l-230.367,0Z" style="fill:#cdecf9;fill-rule:nonzero;"/><path d="M869.311,1733.14l230.367,0c7.529,0 13.661,-6.132 13.661,-13.671l0,-138.077l-257.699,0l0,138.077c0,7.539 6.142,13.671 13.671,13.671Z" style="fill:#feffff;fill-rule:nonzero;"/><path d="M1053.37,1556.77c4.576,0 8.473,-3.622 8.493,-8.198l0,-0.089c0,-9.498 -6.358,-17.509 -15.039,-20.029c1.142,-3.179 1.447,-6.742 0.463,-10.482c-1.781,-6.84 -7.569,-12.115 -14.557,-13.139c-7.578,-1.102 -14.389,2.579 -17.932,8.454c-3.1,-1.24 -6.467,-1.948 -9.98,-2.037c-0.423,-15.698 -13.248,-28.306 -29.045,-28.306c-16.062,0 -29.073,13.021 -29.073,29.084c0,1.25 0.088,2.47 0.245,3.681c-8.897,4.97 -14.94,14.468 -14.94,25.392c0,3.632 0.679,7.107 1.9,10.305c1.24,3.258 4.419,5.364 7.903,5.364l111.562,0Z" style="fill:#9ddbed;fill-rule:nonzero;"/><path d="M1080.99,1522.79c4.576,0 8.474,-3.622 8.484,-8.198l0,-0.079c0,-9.508 -6.339,-17.509 -15.029,-20.039c1.131,-3.169 1.456,-6.732 0.472,-10.492c-1.791,-6.83 -7.588,-12.106 -14.577,-13.119c-7.568,-1.103 -14.379,2.578 -17.922,8.444c-3.1,-1.24 -6.466,-1.948 -9.98,-2.037c-0.413,-15.698 -13.248,-28.306 -29.054,-28.306c-16.053,0 -29.074,13.021 -29.074,29.084c0,1.249 0.108,2.47 0.265,3.68c-8.917,4.971 -14.95,14.478 -14.95,25.403c0,3.632 0.669,7.096 1.89,10.295c1.25,3.258 4.429,5.364 7.913,5.364l111.562,0Z" style="fill:#a8dff4;fill-rule:nonzero;"/><path d="M935.992,1650.9l-9.645,0l0,-43.679l-7.825,0l-30.845,43.955l0,6.456l31.574,0l0,14.921l7.096,0l0,-14.921l9.645,0l0,-6.732Zm-40.943,0l20.284,-28.847c1.28,-1.91 2.638,-4.272 4.006,-7.097l0.364,0c-0.275,5.375 -0.452,10.099 -0.452,14.38l0,21.564l-24.202,0Z" style="fill:#c9c9c9;fill-rule:nonzero;"/><path d="M949.801,1610.86c-3.543,2.825 -5.276,6.555 -5.276,11.279c0,3.278 0.906,6.28 2.726,9.016c1.733,2.637 4.646,5.187 8.74,7.46c-9.005,4.183 -13.562,9.921 -13.562,17.382c0,5.551 1.821,9.921 5.551,12.922c3.73,3.002 9.104,4.548 16.013,4.548c6.555,0 11.742,-1.634 15.472,-4.823c3.819,-3.189 5.64,-7.549 5.64,-12.923c0,-3.642 -1.092,-6.821 -3.268,-9.645c-2.283,-2.727 -6.013,-5.364 -11.289,-7.914c4.37,-2.184 7.549,-4.556 9.557,-7.194c1.91,-2.638 2.913,-5.551 2.913,-8.73c0,-4.921 -1.732,-8.651 -5.187,-11.466c-3.464,-2.737 -8.188,-4.095 -14.104,-4.095c-5.826,0 -10.471,1.358 -13.926,4.183Zm2.913,37.037c1.909,-2.274 5.187,-4.37 9.557,-6.28c5.728,2.096 9.823,4.282 12.096,6.555c2.283,2.185 3.464,4.724 3.464,7.638c0,3.641 -1.181,6.466 -3.641,8.553c-2.461,2.096 -5.915,3.1 -10.374,3.1c-4.458,0 -7.913,-1.004 -10.374,-3.002c-2.549,-2.008 -3.73,-4.734 -3.73,-8.287c0,-3.179 1.004,-6.004 3.002,-8.277Zm19.832,-32.578c2.096,1.732 3.189,4.183 3.189,7.096c0,2.736 -0.906,5.187 -2.638,7.195c-1.732,1.998 -4.734,3.907 -9.006,5.728c-4.733,-1.91 -7.922,-3.908 -9.645,-5.827c-1.821,-1.998 -2.638,-4.36 -2.638,-7.096c0,-2.913 0.995,-5.275 3.179,-7.096c2.097,-1.732 5.011,-2.638 8.642,-2.638c3.829,0 6.742,0.906 8.917,2.638Z" style="fill:#c9c9c9;fill-rule:nonzero;"/><path d="M1002.19,1600.42c-4.281,0 -7.766,3.484 -7.766,7.765c0,4.281 3.485,7.766 7.766,7.766c4.281,0 7.765,-3.485 7.765,-7.766c0,-4.281 -3.484,-7.765 -7.765,-7.765Zm0,20.55c-7.057,0 -12.785,-5.738 -12.785,-12.785c0,-7.057 5.728,-12.795 12.785,-12.795c7.057,0 12.785,5.738 12.785,12.795c0,7.047 -5.728,12.785 -12.785,12.785Z" style="fill:#c9c9c9;fill-rule:nonzero;"/><g><path d="M3930.46,1541.93l-173.203,0c-20.102,0 -36.455,16.358 -36.455,36.466l0,291.711c0,20.107 16.353,36.46 36.455,36.46l173.203,0c20.108,0 36.466,-16.353 36.466,-36.46l0,-291.711c0,-20.108 -16.358,-36.466 -36.466,-36.466Z" style="fill:#ccc;fill-rule:nonzero;"/><path d="M3757.26,1555.61c-12.586,0 -22.782,10.201 -22.782,22.787l0,291.711c0,12.585 10.196,22.787 22.782,22.787l86.605,0l0,-337.285l-86.605,0Z" style="fill:#375c56;fill-rule:nonzero;"/><path d="M3930.46,1555.61l-86.598,0l0,337.285l86.598,0c12.592,0 22.794,-10.202 22.794,-22.787l0,-291.711c0,-12.586 -10.202,-22.787 -22.794,-22.787Z" style="fill:#2f4f4a;fill-rule:nonzero;"/><path d="M3969.21,1663.88l-9.109,0l0,-65.711l9.109,0c2.521,0 4.563,2.042 4.563,4.557l0,56.597c0,2.514 -2.042,4.557 -4.563,4.557Z" style="fill:#9e9e9e;fill-rule:nonzero;"/><path d="M3718.52,1663.88l9.121,0l0,-65.711l-9.121,0c-2.52,0 -4.552,2.042 -4.552,4.557l0,56.597c0,2.514 2.032,4.557 4.552,4.557Z" style="fill:#9e9e9e;fill-rule:nonzero;"/><path d="M3718.52,1846.94l9.121,0l0,-65.712l-9.121,0c-2.52,0 -4.552,2.037 -4.552,4.558l0,56.591c0,2.515 2.032,4.563 4.552,4.563Z" style="fill:#9e9e9e;fill-rule:nonzero;"/><rect x="3758.41" y="1830.62" width="85.461" height="43.322" style="fill:#26403c;fill-rule:nonzero;"/><rect x="3843.87" y="1830.62" width="85.461" height="43.322" style="fill:#375c56;fill-rule:nonzero;"/><rect x="3763.67" y="1833.3" width="160.396" height="37.951" style="fill:#ccc;fill-rule:nonzero;"/><path d="M3836.65,1850.44l0,-2.686l-30.475,0l0,9.246l30.475,0l0,-2.674l2.885,0l0,-3.886l-2.885,0Z" style="fill:#26403c;fill-rule:nonzero;"/><rect x="3807.93" y="1849.81" width="2.299" height="4.933" style="fill:#ccc;fill-rule:nonzero;"/><rect x="3810.97" y="1849.81" width="2.304" height="4.933" style="fill:#ccc;fill-rule:nonzero;"/><rect x="3814.02" y="1849.81" width="2.299" height="4.933" style="fill:#ccc;fill-rule:nonzero;"/><rect x="3817.06" y="1849.81" width="2.304" height="4.933" style="fill:#ccc;fill-rule:nonzero;"/><rect x="3820.1" y="1849.81" width="2.304" height="4.933" style="fill:#ccc;fill-rule:nonzero;"/><path d="M3876.3,1858.04c-0.58,0 -1.052,-0.472 -1.052,-1.053c0,-3.823 -3.113,-6.93 -6.936,-6.93c-3.824,0 -6.93,3.107 -6.93,6.93c0,0.581 -0.473,1.053 -1.053,1.053c-0.58,0 -1.053,-0.472 -1.053,-1.053c0,-4.984 4.052,-9.041 9.036,-9.041c4.984,0 9.041,4.057 9.041,9.041c0,0.581 -0.472,1.053 -1.053,1.053Z" style="fill:#26403c;fill-rule:nonzero;"/><path d="M3881.56,1858.04c-0.581,0 -1.053,-0.472 -1.053,-1.053c0,-6.725 -5.468,-12.193 -12.193,-12.193c-6.725,0 -12.193,5.468 -12.193,12.193c0,0.581 -0.473,1.053 -1.053,1.053c-0.58,0 -1.053,-0.472 -1.053,-1.053c0,-7.886 6.413,-14.298 14.299,-14.298c7.886,0 14.298,6.412 14.298,14.298c0,0.581 -0.472,1.053 -1.052,1.053Z" style="fill:#26403c;fill-rule:nonzero;"/><path d="M3872.14,1856.98c0,2.117 -1.718,3.835 -3.835,3.835c-2.117,0 -3.829,-1.718 -3.829,-3.835c0,-2.116 1.712,-3.835 3.829,-3.835c2.117,0 3.835,1.719 3.835,3.835Z" style="fill:#26403c;fill-rule:nonzero;"/><path d="M3827.75,1589.71c0.689,0 1.303,-0.063 1.838,-0.183c0.535,-0.119 1.036,-0.273 1.514,-0.478l0,-3.277l-2.14,0l-0.739,-0.25l-0.268,-0.637l0,-2.76l7.687,0l0,9.126c-0.552,0.404 -1.127,0.751 -1.73,1.047c-0.597,0.291 -1.234,0.529 -1.911,0.717c-0.678,0.188 -1.4,0.325 -2.168,0.416c-0.768,0.091 -1.588,0.13 -2.47,0.13c-1.587,0 -3.049,-0.273 -4.392,-0.836c-1.349,-0.558 -2.515,-1.326 -3.499,-2.316c-0.985,-0.984 -1.759,-2.15 -2.316,-3.499c-0.558,-1.354 -0.837,-2.822 -0.837,-4.398c0,-1.616 0.268,-3.095 0.803,-4.45c0.535,-1.348 1.297,-2.514 2.293,-3.493c0.995,-0.979 2.196,-1.741 3.607,-2.287c1.411,-0.547 2.982,-0.814 4.728,-0.814c0.899,0 1.741,0.074 2.532,0.222c0.797,0.148 1.525,0.353 2.191,0.609c0.671,0.256 1.28,0.563 1.832,0.921c0.558,0.353 1.053,0.74 1.485,1.156l-1.451,2.213l-0.501,0.483l-0.625,0.182l-0.928,-0.295l-1.115,-0.615l-1.076,-0.427l-1.16,-0.238l-1.366,-0.069c-0.939,0 -1.786,0.159 -2.537,0.495c-0.751,0.33 -1.394,0.797 -1.924,1.4c-0.529,0.609 -0.933,1.331 -1.223,2.173c-0.284,0.848 -0.427,1.793 -0.427,2.834c0,1.143 0.154,2.162 0.473,3.055c0.318,0.888 0.751,1.639 1.314,2.254c0.558,0.614 1.218,1.081 1.986,1.405c0.768,0.318 1.604,0.484 2.52,0.484Z" style="fill:#fff;fill-rule:nonzero;"/><path d="M3843.71,1582.32l2.611,0c1.309,0 2.248,-0.307 2.823,-0.933c0.569,-0.626 0.859,-1.491 0.859,-2.612l-0.222,-1.348l-0.677,-1.047l-1.144,-0.677c-0.455,-0.16 -1.001,-0.239 -1.639,-0.239l-2.611,0l0,6.856Zm0,3.784l0,7.231l-5.019,0l0,-21.621l7.63,0c1.525,0 2.834,0.176 3.926,0.541c1.093,0.358 1.992,0.859 2.703,1.49c0.706,0.632 1.229,1.377 1.565,2.242c0.336,0.859 0.506,1.792 0.506,2.788c0,1.081 -0.176,2.071 -0.523,2.97c-0.342,0.899 -0.876,1.673 -1.588,2.316c-0.711,0.643 -1.616,1.144 -2.708,1.502c-1.093,0.364 -2.384,0.541 -3.881,0.541l-2.611,0Z" style="fill:#fff;fill-rule:nonzero;"/><path d="M3869.69,1576.1l-0.467,0.529l-0.637,0.182l-0.734,-0.217l-0.888,-0.483l-1.138,-0.478c-0.421,-0.148 -0.91,-0.222 -1.45,-0.222c-0.939,0 -1.639,0.205 -2.106,0.603c-0.455,0.404 -0.688,0.945 -0.688,1.628l0.421,1.081l1.087,0.745c0.449,0.205 0.961,0.398 1.547,0.569c0.575,0.176 1.167,0.364 1.77,0.58c0.603,0.211 1.195,0.461 1.775,0.746c0.58,0.29 1.092,0.654 1.542,1.103c0.449,0.444 0.814,0.985 1.092,1.622c0.274,0.637 0.416,1.405 0.416,2.31c0,0.996 -0.177,1.935 -0.524,2.805c-0.341,0.871 -0.847,1.627 -1.502,2.276c-0.66,0.649 -1.473,1.161 -2.435,1.531c-0.962,0.369 -2.06,0.551 -3.289,0.551c-0.671,0 -1.354,-0.062 -2.054,-0.204c-0.7,-0.137 -1.371,-0.336 -2.025,-0.586c-0.655,-0.251 -1.269,-0.552 -1.844,-0.899c-0.569,-0.347 -1.07,-0.729 -1.496,-1.155l1.485,-2.345l0.461,-0.432l0.637,-0.165l0.899,0.284l1.024,0.621l1.314,0.626c0.495,0.187 1.076,0.284 1.747,0.284c0.911,0 1.622,-0.199 2.122,-0.603c0.507,-0.404 0.763,-1.036 0.763,-1.906l-0.421,-1.235l-1.093,-0.785c-0.449,-0.205 -0.955,-0.393 -1.536,-0.546c-0.569,-0.16 -1.161,-0.336 -1.764,-0.529c-0.603,-0.194 -1.189,-0.433 -1.764,-0.712c-0.574,-0.284 -1.086,-0.654 -1.536,-1.115c-0.449,-0.461 -0.813,-1.035 -1.092,-1.724c-0.273,-0.683 -0.416,-1.53 -0.416,-2.543c0,-0.814 0.165,-1.605 0.49,-2.373c0.33,-0.774 0.808,-1.462 1.439,-2.065c0.632,-0.603 1.411,-1.087 2.333,-1.446c0.916,-0.364 1.974,-0.54 3.158,-0.54c0.666,0 1.309,0.051 1.94,0.154c0.626,0.108 1.223,0.256 1.787,0.46c0.563,0.205 1.092,0.444 1.582,0.729l1.314,0.956l-1.246,2.333Z" style="fill:#fff;fill-rule:nonzero;"/><path d="M3818.24,1601.59l0,2.845l2.561,0l0,1.337l-2.561,0l0,5.303c0,1.217 0.347,1.911 1.343,1.911l1.036,-0.125l0.079,1.343c-0.347,0.165 -0.893,0.262 -1.604,0.262c-0.808,0 -1.502,-0.285 -1.929,-0.751c-0.467,-0.569 -0.671,-1.423 -0.671,-2.578l0,-5.365l-1.525,0l0,-1.337l1.525,0l0,-2.379l1.746,-0.466Z" style="fill:#fff;fill-rule:nonzero;"/><path d="M3822.82,1607.48c0,-1.155 -0.04,-2.134 -0.08,-3.044l1.565,0l0.063,1.928l0.062,0c0.467,-1.325 1.565,-2.156 2.743,-2.156l0.483,0.04l0,1.69l-0.591,-0.063c-1.281,0 -2.151,0.956 -2.396,2.299l-0.08,0.808l0,5.263l-1.769,0l0,-6.765Z" style="fill:#fff;fill-rule:nonzero;"/><path d="M3834.55,1609.25c-1.952,-0.062 -4.165,0.285 -4.165,2.191c0,1.183 0.796,1.707 1.684,1.707c1.303,0 2.099,-0.808 2.401,-1.645l0.08,-0.569l0,-1.684Zm1.729,2.64c0,0.854 0.04,1.685 0.143,2.356l-1.605,0l-0.165,-1.24l-0.04,0c-0.552,0.756 -1.604,1.462 -3.01,1.462c-1.968,0 -3.004,-1.417 -3.004,-2.822c0,-2.379 2.111,-3.676 5.912,-3.636l0,-0.222c0,-0.814 -0.245,-2.276 -2.231,-2.276c-0.921,0 -1.894,0.285 -2.566,0.728l-0.404,-1.177c0.814,-0.524 2.014,-0.854 3.232,-0.854c3.004,0 3.738,2.054 3.738,4.023l0,3.658Z" style="fill:#fff;fill-rule:nonzero;"/><path d="M3846.18,1613.88c-0.473,0.244 -1.508,0.586 -2.828,0.586c-2.965,0 -4.893,-2.009 -4.893,-5.019c0,-3.021 2.071,-5.24 5.28,-5.24c1.035,0 1.991,0.268 2.48,0.507l-0.409,1.388c-0.427,-0.245 -1.093,-0.472 -2.071,-0.472c-2.254,0 -3.471,1.684 -3.471,3.721c0,2.276 1.462,3.675 3.431,3.675c0.996,0 1.667,-0.267 2.173,-0.489l0.308,1.343Z" style="fill:#fff;fill-rule:nonzero;"/><path d="M3850.04,1608.93l0.04,0l0.853,-1.121l2.902,-3.368l2.156,0l-3.8,4.022l4.33,5.787l-2.18,0l-3.368,-4.734l-0.933,1.036l0,3.698l-1.77,0l0,-14.424l1.77,0l0,9.104Z" style="fill:#fff;fill-rule:nonzero;"/><path d="M3864.02,1608.37c0.023,-1.115 -0.467,-2.885 -2.475,-2.885c-1.81,0 -2.601,1.65 -2.748,2.885l5.223,0Zm-5.241,1.28c0.04,2.418 1.565,3.414 3.369,3.414c1.286,0 2.077,-0.222 2.725,-0.506l0.308,1.28c-0.615,0.284 -1.713,0.626 -3.272,0.626c-3.027,0 -4.836,-2.009 -4.836,-4.956c0,-2.987 1.746,-5.303 4.631,-5.303c3.186,0 4.04,2.805 4.04,4.615l-0.08,0.83l-6.885,0Z" style="fill:#fff;fill-rule:nonzero;"/><path d="M3867.97,1607.48c0,-1.155 -0.04,-2.134 -0.08,-3.044l1.565,0l0.056,1.928l0.063,0c0.467,-1.325 1.565,-2.156 2.743,-2.156l0.489,0.04l0,1.69l-0.592,-0.063c-1.28,0 -2.151,0.956 -2.395,2.299l-0.086,0.808l0,5.263l-1.763,0l0,-6.765Z" style="fill:#fff;fill-rule:nonzero;"/><rect x="3747.29" y="1631.02" width="194.483" height="189.903" style="fill-rule:nonzero;"/><rect x="3759.73" y="1643.17" width="169.596" height="165.602" style="fill:#496f75;fill-rule:nonzero;"/><path d="M3929.33,1702.8l-70.053,0l-20.79,-26.429l-78.753,0l0,-4.335l80.858,0l20.791,26.429l67.947,0l0,4.335Z" style="fill:#fff;fill-rule:nonzero;"/><path d="M3862.49,1728.14l-102.764,0l0,-4.33l98.428,0l0,-23.18l4.336,0l0,27.51Z" style="fill:#fff;fill-rule:nonzero;"/><path d="M3929.33,1751.31l-103.571,0l0,-23.181l4.335,0l0,18.845l99.236,0l0,4.336Z" style="fill:#fff;fill-rule:nonzero;"/><path d="M3840.4,1676.18l-1.729,-3.971l27.476,-11.932l0,-17.109l4.33,0l0,19.954l-30.077,13.058Z" style="fill:#fff;fill-rule:nonzero;"/><path d="M3787.19,1779.45l-27.459,0l0,-4.336l23.124,0l0,-47.919l4.335,0l0,52.255Z" style="fill:#fff;fill-rule:nonzero;"/><path d="M3803.3,1808.78l-4.33,0l0,-24.182l130.359,0l0,4.33l-126.029,0l0,19.852Z" style="fill:#fff;fill-rule:nonzero;"/><rect x="3879.39" y="1749.14" width="4.336" height="37.621" style="fill:#fff;fill-rule:nonzero;"/><rect x="3776.32" y="1682.73" width="44.932" height="11.351" style="fill:#2b4145;fill-rule:nonzero;"/><rect x="3794.59" y="1656.03" width="28.261" height="11.351" style="fill:#2b4145;fill-rule:nonzero;"/><rect x="3792.05" y="1734.6" width="28.256" height="11.351" style="fill:#2b4145;fill-rule:nonzero;"/><rect x="3840.93" y="1767.95" width="28.261" height="11.351" style="fill:#2b4145;fill-rule:nonzero;"/><rect x="3895.81" y="1767.95" width="28.256" height="11.351" style="fill:#2b4145;fill-rule:nonzero;"/><rect x="3886.59" y="1793.17" width="28.261" height="11.351" style="fill:#2b4145;fill-rule:nonzero;"/><rect x="3821.25" y="1710.1" width="28.261" height="11.351" style="fill:#2b4145;fill-rule:nonzero;"/><rect x="3775.04" y="1710.1" width="28.261" height="11.351" style="fill:#2b4145;fill-rule:nonzero;"/><rect x="3762.19" y="1792.09" width="28.256" height="11.351" style="fill:#2b4145;fill-rule:nonzero;"/><rect x="3826.81" y="1793.17" width="28.256" height="11.351" style="fill:#2b4145;fill-rule:nonzero;"/><rect x="3899.51" y="1707.62" width="28.261" height="11.351" style="fill:#2b4145;fill-rule:nonzero;"/><rect x="3867.43" y="1730.11" width="28.261" height="11.357" style="fill:#2b4145;fill-rule:nonzero;"/><rect x="3872.46" y="1683.44" width="28.261" height="11.357" style="fill:#2b4145;fill-rule:nonzero;"/><rect x="3885.38" y="1667.38" width="28.261" height="11.351" style="fill:#2b4145;fill-rule:nonzero;"/><rect x="3895.81" y="1650.35" width="28.256" height="11.351" style="fill:#2b4145;fill-rule:nonzero;"/><path d="M3825.16,1664.23c-1.735,-0.694 -2.794,-1.058 -2.811,-1.064l1.007,-2.925c0,0 1.11,0.381 2.953,1.11l-1.149,2.879Z" style="fill:#ff7d03;fill-rule:nonzero;"/><path d="M3833.49,1667.99c-2.014,-1.019 -3.903,-1.889 -5.525,-2.595l1.229,-2.839c1.679,0.728 3.619,1.622 5.69,2.674l-1.394,2.76Zm7.938,4.512c-1.747,-1.127 -3.517,-2.157 -5.235,-3.095l1.479,-2.72c1.787,0.973 3.619,2.043 5.434,3.215l-1.678,2.6Zm7.226,5.439c-1.394,-1.251 -2.982,-2.509 -4.712,-3.738l1.787,-2.532c1.832,1.297 3.511,2.634 4.996,3.966l-2.071,2.304Zm5.889,6.72l-0.74,-1.041c-0.848,-1.206 -1.849,-2.418 -2.999,-3.608l2.231,-2.15c1.257,1.308 2.367,2.645 3.3,3.977l0.717,1.013l-2.509,1.809Zm5.422,7.533c-0.859,-1.206 -1.741,-2.429 -2.651,-3.681l-0.968,-1.332l2.509,-1.815l0.962,1.332c0.916,1.257 1.809,2.486 2.674,3.698l-2.526,1.798Zm4.87,7.67c-0.813,-1.542 -1.843,-3.226 -3.14,-5.155l2.577,-1.724c1.371,2.043 2.418,3.767 3.3,5.428l-2.737,1.451Zm2.891,8.205c-0.245,-1.775 -0.768,-3.59 -1.599,-5.542l2.851,-1.212c0.933,2.208 1.53,4.273 1.82,6.327l-3.072,0.427Zm1.986,9.451l-2.914,-1.059c0.689,-1.883 1.042,-3.704 1.093,-5.564l3.095,0.085c-0.057,2.168 -0.489,4.37 -1.274,6.538Zm-4.933,8.455l-2.362,-2.009c1.241,-1.451 2.322,-3.084 3.221,-4.842l2.754,1.405c-1.008,1.975 -2.219,3.807 -3.613,5.446Zm-7.528,6.224l-1.548,-2.685c1.73,-0.996 3.312,-2.151 4.706,-3.448l2.105,2.276c-1.565,1.445 -3.334,2.742 -5.263,3.857Zm-8.95,3.642l-0.825,-2.982c2.054,-0.563 3.886,-1.217 5.604,-1.997l1.275,2.822c-1.866,0.842 -3.846,1.548 -6.054,2.157Zm-8.745,2.054l-1.366,-2.777c0.899,-0.444 1.735,-0.728 2.498,-0.859c1.126,-0.182 2.441,-0.404 3.869,-0.706l0.637,3.033c-1.479,0.307 -2.833,0.541 -4,0.734c-0.455,0.074 -1.018,0.273 -1.638,0.575Zm-6.527,5.564l-2.401,-1.951c1.406,-1.736 3.027,-3.317 4.694,-4.581l1.872,2.47c-1.473,1.115 -2.913,2.52 -4.165,4.062Zm-3.772,7.494l-3.061,-0.478c0.313,-1.997 1.155,-4.114 2.515,-6.293l2.623,1.639c-1.115,1.792 -1.832,3.567 -2.077,5.132Zm79.083,5.542l-0.444,-3.061c1.98,-0.285 4.279,-0.592 6.316,-0.678l0.13,3.096c-1.894,0.079 -4.096,0.37 -6.002,0.643Zm-9.32,1.257l-0.234,-3.089c1.759,-0.137 3.852,-0.438 6.032,-0.769l0.466,3.062c-2.259,0.341 -4.443,0.654 -6.264,0.796Zm-9.172,0.427l-0.421,-3.067c3.562,-0.489 5.513,-0.609 6.611,-0.449l-0.461,3.061c-0.876,-0.142 -2.674,0.034 -5.729,0.455Zm28.841,0.831c-0.045,-1.161 -0.108,-2.043 -0.193,-2.567c-0.017,-0.108 -0.37,-0.364 -1.354,-0.512l0.455,-3.061c2.925,0.433 3.767,1.912 3.954,3.073c0.097,0.591 0.177,1.61 0.234,2.93l-3.096,0.137Zm-38.007,0.557l-0.478,-3.055l6.133,-0.956l0.467,3.061l-6.122,0.95Zm-49.98,0.29c-2.395,-1.422 -3.88,-3.345 -4.421,-5.729l3.027,-0.677c0.342,1.536 1.315,2.759 2.97,3.743l-1.576,2.663Zm40.756,1.087l-0.426,-3.067c2.099,-0.29 4.147,-0.597 6.116,-0.893l0.467,3.061c-1.98,0.296 -4.046,0.603 -6.157,0.899Zm-9.28,1.155l-0.324,-3.078c2.054,-0.222 4.097,-0.467 6.117,-0.728l0.403,3.067c-2.042,0.267 -4.119,0.517 -6.196,0.739Zm-21.979,0.461c-1.918,-0.222 -3.67,-0.546 -5.218,-0.962l-1.155,-0.347l0.979,-2.941l0.984,0.296c1.4,0.381 3.004,0.677 4.762,0.882l-0.352,3.072Zm12.625,0.273l-0.148,-3.095c2.009,-0.091 4.057,-0.239 6.123,-0.421l0.273,3.084c-2.106,0.187 -4.199,0.335 -6.248,0.432Zm-5.166,0.125c-1.474,0 -2.908,-0.04 -4.29,-0.125l0.182,-3.09c1.377,0.086 2.816,0.109 4.256,0.12c0.597,0 1.2,-0.006 1.815,-0.017l0.068,3.089c-0.688,0.018 -1.365,0.029 -2.031,0.023Zm71.162,5.275c0,-2.464 -0.011,-4.444 -0.045,-6.168l3.095,-0.057c0.028,1.741 0.046,3.738 0.046,5.861l-3.096,0.364Zm3.027,9.308l-3.095,-0.034c0.028,-2.048 0.046,-4.142 0.057,-6.185l3.095,0.017c-0.011,2.049 -0.028,4.154 -0.057,6.202Zm-0.142,9.309l-3.095,-0.057l0.102,-6.196l3.095,0.045l-0.102,6.208Z" style="fill:#ff7d03;fill-rule:nonzero;"/><path d="M3921.53,1794.76l-4.608,0l0,-3.096l1.581,0l0.034,-1.57l3.096,0.062l-0.103,4.604Z" style="fill:#ff7d03;fill-rule:nonzero;"/><path d="M3797.1,1794.76l-5.991,0l0,-3.096l5.991,0l0,3.096Zm8.984,0l-5.985,0l0,-3.096l5.985,0l0,3.096Zm8.99,0l-5.991,0l0,-3.096l5.991,0l0,3.096Zm8.984,0l-5.991,0l0,-3.096l5.991,0l0,3.096Zm8.99,0l-5.991,0l0,-3.096l5.991,0l0,3.096Zm8.984,0l-5.991,0l0,-3.096l5.991,0l0,3.096Zm8.985,0l-5.986,0l0,-3.096l5.986,0l0,3.096Zm8.989,0l-5.991,0l0,-3.096l5.991,0l0,3.096Zm8.99,0l-5.997,0l0,-3.096l5.997,0l0,3.096Zm8.985,0l-5.992,0l0,-3.096l5.992,0l0,3.096Zm8.984,0l-5.992,0l0,-3.096l5.992,0l0,3.096Zm8.99,0l-5.992,0l0,-3.096l5.992,0l0,3.096Zm8.984,0l-5.992,0l0,-3.096l5.992,0l0,3.096Zm8.99,0l-5.992,0l0,-3.096l5.992,0l0,3.096Z" style="fill:#ff7d03;fill-rule:nonzero;"/><rect x="3785.02" y="1791.66" width="3.095" height="3.095" style="fill:#ff7d03;fill-rule:nonzero;"/><path d="M3785.02,1751.02c-6.988,0 -12.655,5.667 -12.655,12.654c0,6.982 12.655,32.552 12.655,32.552c0,0 12.648,-25.57 12.648,-32.552c0,-6.987 -5.667,-12.654 -12.648,-12.654Z" style="fill:#ff7d03;fill-rule:nonzero;"/><path d="M3790.83,1763.46c0,3.209 -2.6,5.809 -5.803,5.809c-3.204,0 -5.81,-2.6 -5.81,-5.809c0,-3.203 2.606,-5.804 5.81,-5.804c3.203,0 5.803,2.601 5.803,5.804Z" style="fill:#fff;fill-rule:nonzero;"/></g><path d="M2329.72,3845.38l-29.891,0l0,-29.881l29.891,0l0,29.881Zm0,61.533l-29.891,0l0,-29.891l29.891,0l0,29.891Zm0,61.524l-29.891,0l0,-29.881l29.891,0l0,29.881Zm0,61.533l-29.891,0l0,-29.891l29.891,0l0,29.891Zm-297.973,-184.59l-29.891,0l0,-29.881l29.891,0l0,29.881Zm0,61.533l-29.891,0l0,-29.891l29.891,0l0,29.891Zm0,61.524l-29.891,0l0,-29.881l29.891,0l0,29.881Zm0,61.533l-29.891,0l0,-29.891l29.891,0l0,29.891Zm-53.148,-242.797l0,271.123c0,11.102 8.996,20.108 20.107,20.108l334.154,0c11.112,0 20.107,-9.006 20.107,-20.108l0,-271.123c0,-11.112 -8.995,-20.118 -20.107,-20.118l-334.154,0c-11.111,0 -20.107,9.006 -20.107,20.118Z" style="fill:#34495e;fill-rule:nonzero;"/><path d="M2234.08,3938.14l-115.282,79.732c-12.421,8.592 -29.389,-0.295 -29.389,-15.403l0,-159.483c0,-15.118 16.968,-24.005 29.389,-15.413l115.282,79.751c10.768,7.451 10.768,23.366 0,30.816Z" style="fill:#efc94d;fill-rule:nonzero;"/><path d="M2234.08,3907.33l-42.666,-29.516c-1.122,3.996 -3.553,7.677 -7.352,10.314l-94.653,65.471l0,48.876c0,15.108 16.968,23.995 29.389,15.403l115.282,-79.732c10.768,-7.45 10.768,-23.365 0,-30.816Z" style="fill:#e2b72a;fill-rule:nonzero;"/><path d="M2947.02,3690.53l-55.904,0l0,-14.34c0,-4.646 3.78,-8.425 8.445,-8.425l39.024,0c4.656,0 8.435,3.779 8.435,8.425l0,14.34Z" style="fill:#efc94d;fill-rule:nonzero;"/><path d="M3264.88,3952.66l-382.439,0c-12.648,0 -22.893,-10.256 -22.893,-22.903l0,-223.478c0,-12.647 10.245,-22.893 22.893,-22.893l382.439,0c12.696,0 22.932,10.246 22.932,22.893l0,223.478c0,12.647 -10.236,22.903 -22.932,22.903Z" style="fill:#fff;fill-rule:nonzero;"/><path d="M3264.88,3683.39l-88.728,0l0,-6.929c0,-12.696 -10.295,-22.991 -22.991,-22.991l-158.962,0c-12.696,0 -22.982,10.295 -22.982,22.991l0,6.929l-88.776,0c-12.648,0 -22.893,10.246 -22.893,22.893l0,76.11l109.189,0c14.892,-43.709 56.258,-75.293 104.947,-75.293c48.681,0 90.047,31.584 104.938,75.293l109.19,0l0,-76.11c0,-12.647 -10.236,-22.893 -22.932,-22.893Z" style="fill:#546f7d;fill-rule:nonzero;"/><path d="M3172.3,3818.02c0,54.477 -44.153,98.619 -98.62,98.619c-54.466,0 -98.628,-44.142 -98.628,-98.619c0,-54.467 44.162,-98.619 98.628,-98.619c54.467,0 98.62,44.152 98.62,98.619Z" style="fill:#192530;fill-rule:nonzero;"/><path d="M3073.68,3902.71c-46.701,0 -84.692,-37.991 -84.692,-84.692c0,-46.701 37.991,-84.682 84.692,-84.682c46.692,0 84.683,37.981 84.683,84.682c0,46.701 -37.991,84.692 -84.683,84.692Z" style="fill:#2c4255;fill-rule:nonzero;"/><path d="M3128.6,3826.39c-4.626,-0.01 -8.365,-3.75 -8.365,-8.366c0,-3.11 -0.267,-6.21 -0.808,-9.261c-0.807,-4.548 2.234,-8.878 6.782,-9.685c4.547,-0.797 8.887,2.224 9.685,6.781c0.718,3.996 1.072,8.09 1.072,12.165c0,4.616 -3.75,8.366 -8.366,8.366Z" style="fill:#fff;fill-rule:nonzero;"/><path d="M3116.5,3789.81c-2.549,0 -5.068,-1.161 -6.712,-3.366c-9.941,-13.316 -25.787,-21.288 -42.42,-21.298c-4.616,0 -8.356,-3.74 -8.356,-8.356c0.01,-4.616 3.75,-8.356 8.356,-8.356l0.01,0c21.879,0.01 42.745,10.491 55.815,28.02c2.766,3.701 1.988,8.937 -1.713,11.693c-1.495,1.132 -3.248,1.663 -4.98,1.663Z" style="fill:#fff;fill-rule:nonzero;"/><path d="M3181.9,3887.4c0,6.496 -5.266,11.771 -11.762,11.771c-6.495,0 -11.771,-5.275 -11.771,-11.771c0,-6.506 5.276,-11.771 11.771,-11.771c6.496,0 11.762,5.265 11.762,11.771Z" style="fill:#ef3a5b;fill-rule:nonzero;"/><path d="M3449.03,1441.96c21.457,0 39.665,-16.948 39.763,-38.355l0,-0.414c0,-44.467 -29.724,-81.936 -70.372,-93.767c5.217,-14.851 6.693,-31.524 2.166,-49.073c-8.367,-31.987 -35.433,-56.691 -68.207,-61.454c-35.432,-5.158 -67.321,12.066 -83.856,39.555c-14.566,-5.797 -30.314,-9.124 -46.75,-9.557c-1.969,-73.472 -62.006,-132.456 -135.951,-132.456c-75.155,0 -136.098,60.933 -136.098,136.108c0,5.836 0.492,11.565 1.201,17.214c-41.692,23.257 -69.919,67.754 -69.919,118.884c0,16.998 3.149,33.227 8.868,48.207c5.816,15.236 20.688,25.108 36.996,25.108l522.159,0Z" style="fill:#ebebec;fill-rule:nonzero;"/><path d="M3418.42,1309.42c5.217,-14.851 6.693,-31.524 2.166,-49.073c-8.367,-31.987 -35.433,-56.691 -68.207,-61.454c-35.432,-5.158 -67.321,12.066 -83.856,39.555c-14.566,-5.797 -30.314,-9.124 -46.75,-9.557c-1.969,-73.472 -62.006,-132.456 -135.951,-132.456c-61.671,0 -113.697,41.052 -130.419,97.31c12.313,-3.661 25.324,-5.689 38.807,-5.689c73.935,0 133.963,58.985 135.912,132.457c16.485,0.433 32.223,3.759 46.731,9.557c16.574,-27.5 48.463,-44.723 83.895,-39.556c32.774,4.763 59.84,29.467 68.207,61.454c4.625,17.549 3.149,34.212 -2.166,49.064c22.834,6.653 42.224,21.397 54.821,40.924l67.419,0c21.457,0 39.665,-16.948 39.763,-38.355l0,-0.414c0,-44.467 -29.724,-81.936 -70.372,-93.767Z" style="fill:#ebebec;fill-rule:nonzero;"/><path d="M3252.08,1351l-134.504,-178.233l-134.553,178.233l67.261,0l0,90.962l134.593,0l0,-90.962l67.203,0Z" style="fill:#34b357;fill-rule:nonzero;"/><path d="M3184.88,1351l67.203,0l-134.504,-178.233l0,269.195l67.301,0l0,-90.962Z" style="fill:#31a24d;fill-rule:nonzero;"/><path d="M431.529,2052.31l123.786,0l0,-49.693c0,-1.358 -1.102,-2.47 -2.461,-2.47l-118.864,0c-1.359,0 -2.461,1.112 -2.461,2.47l0,49.693Zm144.14,20.354l-164.494,0l0,-70.047c0,-12.578 10.227,-22.814 22.815,-22.814l118.864,0c12.578,0 22.815,10.236 22.815,22.814l0,70.047Z" style="fill:#263e59;fill-rule:nonzero;"/><path d="M679.208,2332.18l-371.789,0c-11.851,0 -21.446,-9.606 -21.446,-21.456l0,-247.877c0,-11.84 9.595,-21.446 21.446,-21.446l371.789,0c11.841,0 21.447,9.606 21.447,21.446l0,247.877c0,11.85 -9.606,21.456 -21.447,21.456Z" style="fill:#345277;fill-rule:nonzero;"/><path d="M544.606,2005.26l-102.368,0c-4.705,0 -8.514,-3.809 -8.514,-8.504l0,-13.563c0,-4.694 3.809,-8.513 8.514,-8.513l102.368,0c4.705,0 8.514,3.819 8.514,8.513l0,13.563c0,4.695 -3.809,8.504 -8.514,8.504Z" style="fill:#e04949;fill-rule:nonzero;"/><path d="M433.724,1996.76c0,4.695 3.809,8.504 8.514,8.504l102.368,0c4.705,0 8.514,-3.809 8.514,-8.504l0,-6.782l-119.396,0l0,6.782Z" style="fill:#c54040;fill-rule:nonzero;"/><path d="M601.249,2186.79c0,59.605 -48.326,107.93 -107.941,107.93c-59.604,0 -107.929,-48.325 -107.929,-107.93c0,-59.614 48.325,-107.939 107.929,-107.939c59.615,0 107.941,48.325 107.941,107.939Z" style="fill:#feffff;fill-rule:nonzero;"/><path d="M573.572,2161.57l-56.937,0l0,-56.947l-45.836,0l0,56.947l-56.947,0l0,45.835l56.947,0l0,56.947l45.836,0l0,-56.947l56.937,0l0,-45.835Z" style="fill:#e04949;fill-rule:nonzero;"/><path d="M865.886,2583.52c-9.842,0 -19.596,-4.389 -26.092,-12.765c-11.171,-14.399 -8.562,-35.117 5.827,-46.298c58.088,-45.097 127.673,-68.944 201.214,-68.944c73.531,0 143.106,23.847 201.205,68.944c14.399,11.171 17.007,31.899 5.836,46.288c-11.19,14.399 -31.918,16.998 -46.298,5.837c-46.416,-36.023 -102.005,-55.077 -160.743,-55.077c-58.748,0 -114.337,19.054 -160.743,55.086c-6.023,4.656 -13.149,6.929 -20.206,6.929Z" style="fill:#ebebec;fill-rule:nonzero;"/><path d="M1160.46,2670.43c-7.067,0 -14.193,-2.264 -20.216,-6.929c-26.968,-20.944 -59.27,-32.007 -93.413,-32.007c-34.133,0 -66.445,11.063 -93.422,32.007c-14.39,11.171 -35.107,8.563 -46.298,-5.836c-11.171,-14.389 -8.563,-35.117 5.836,-46.288c38.66,-30.019 84.959,-45.875 133.884,-45.875c48.926,0 95.224,15.856 133.884,45.875c14.399,11.181 16.997,31.899 5.826,46.298c-6.495,8.375 -16.239,12.755 -26.081,12.755Z" style="fill:#ebebec;fill-rule:nonzero;"/><path d="M1093.17,2757.33c-7.057,0 -14.192,-2.273 -20.206,-6.939c-15.039,-11.683 -37.194,-11.683 -52.252,0c-14.399,11.161 -35.117,8.553 -46.298,-5.846c-11.171,-14.399 -8.553,-35.127 5.846,-46.298c19.202,-14.901 42.224,-22.765 66.573,-22.765c24.36,0 47.4,7.874 66.602,22.785c14.39,11.181 17.008,31.898 5.827,46.298c-6.496,8.375 -16.25,12.765 -26.092,12.765Z" style="fill:#ebebec;fill-rule:nonzero;"/><path d="M1093.2,2823.69c0,23.08 -18.7,41.781 -41.78,41.781c-23.071,0 -41.771,-18.701 -41.771,-41.781c0,-23.08 18.7,-41.78 41.771,-41.78c23.08,0 41.78,18.7 41.78,41.78Z" style="fill:#ebebec;fill-rule:nonzero;"/><path d="M1248.04,2524.46c-56.889,-44.162 -124.78,-67.882 -196.618,-68.846l0,65.982c57.045,0.965 110.951,19.891 156.156,54.989c14.38,11.161 35.108,8.562 46.298,-5.837c11.171,-14.389 8.563,-35.117 -5.836,-46.288Z" style="fill:#ebebec;fill-rule:nonzero;"/><path d="M1160.46,2670.43c9.842,0 19.586,-4.38 26.081,-12.755c11.171,-14.399 8.573,-35.117 -5.826,-46.298c-37.44,-29.064 -82.074,-44.723 -129.297,-45.697l0,65.992c32.439,0.954 63.068,11.84 88.826,31.829c6.023,4.665 13.149,6.929 20.216,6.929Z" style="fill:#ebebec;fill-rule:nonzero;"/><path d="M1093.17,2757.33c9.842,0 19.596,-4.39 26.092,-12.765c11.181,-14.4 8.563,-35.117 -5.827,-46.298c-17.991,-13.966 -39.358,-21.673 -62.015,-22.608l0,66.337c7.726,0.797 15.265,3.523 21.544,8.395c6.014,4.666 13.149,6.939 20.206,6.939Z" style="fill:#ebebec;fill-rule:nonzero;"/><path d="M1093.2,2823.69c0,-23.08 -18.7,-41.78 -41.78,-41.78l0,83.561c23.08,0 41.78,-18.701 41.78,-41.781Z" style="fill:#ebebec;fill-rule:nonzero;"/><path d="M1720.62,3388.09c-63.424,7.992 -116.769,-45.353 -108.767,-108.776c5.443,-43.217 40.343,-78.108 83.56,-83.56c63.424,-7.992 116.769,45.343 108.777,108.776c-5.453,43.217 -40.353,78.118 -83.57,83.56Zm194.177,-148.371l-49.497,0c-11.525,0 -17.293,-13.937 -9.153,-22.086l35.008,-34.999c5.04,-5.059 5.04,-13.248 0,-18.297l-55.549,-55.539c-5.059,-5.059 -13.248,-5.059 -18.297,0l-34.998,34.999c-8.15,8.149 -22.077,2.372 -22.077,-9.154l0,-49.486c0,-7.156 -5.797,-12.943 -12.942,-12.943l-78.551,0c-7.145,0 -12.942,5.787 -12.942,12.943l0,49.486c0,11.526 -13.927,17.303 -22.076,9.154l-34.999,-34.999c-5.049,-5.059 -13.238,-5.059 -18.297,0l-55.54,55.539c-5.049,5.049 -5.049,13.238 0,18.297l34.999,34.999c8.14,8.149 2.382,22.086 -9.143,22.086l-49.507,0c-7.135,0 -12.932,5.787 -12.932,12.923l0,78.56c0,7.136 5.797,12.933 12.932,12.933l49.507,0c11.525,0 17.283,13.936 9.143,22.076l-34.999,35.009c-5.049,5.049 -5.049,13.248 0,18.287l55.54,55.549c5.059,5.049 13.248,5.049 18.297,0l34.999,-34.999c8.149,-8.149 22.076,-2.382 22.076,9.144l0,49.496c0,7.146 5.797,12.943 12.942,12.943l78.551,0c7.145,0 12.942,-5.797 12.942,-12.943l0,-49.496c0,-11.526 13.927,-17.293 22.077,-9.144l34.998,34.999c5.049,5.049 13.238,5.049 18.297,0l55.549,-55.549c5.04,-5.039 5.04,-13.238 0,-18.287l-35.008,-35.009c-8.14,-8.14 -2.372,-22.076 9.153,-22.076l49.497,0c7.135,0 12.932,-5.797 12.932,-12.933l0,-78.56c0,-7.136 -5.797,-12.923 -12.932,-12.923Z" style="fill:#34495e;fill-rule:nonzero;"/><path d="M1718.69,3337.35c-33.936,7.578 -63.67,-22.145 -56.091,-56.101c3.829,-17.106 17.637,-30.914 34.743,-34.733c33.936,-7.579 63.669,22.145 56.09,56.081c-3.818,17.125 -17.637,30.924 -34.742,34.753Z" style="fill:#34495e;fill-rule:nonzero;"/><path d="M1804.19,3304.53c-5.453,43.217 -40.353,78.118 -83.57,83.56c-63.424,7.992 -116.769,-45.353 -108.767,-108.776c5.443,-43.217 40.343,-78.108 83.56,-83.56c63.424,-7.992 116.769,45.343 108.777,108.776Zm-96.178,-155.084c-78.689,0 -142.466,63.788 -142.466,142.476c0,78.688 63.777,142.486 142.466,142.486c78.698,0 142.485,-63.798 142.485,-142.486c0,-78.688 -63.787,-142.476 -142.485,-142.476Z" style="fill:#253545;fill-rule:nonzero;"/><path d="M2753.33,2595.58l-1139.35,0c-14.251,0 -25.816,-9.478 -25.816,-21.18l1190.99,0c0,11.702 -11.564,21.18 -25.826,21.18Z" style="fill:#d6e4e9;fill-rule:nonzero;"/><path d="M2618.45,2210.26l0,-539.166c0,-3.691 -2.992,-6.674 -6.672,-6.674l-856.234,0c-3.681,0 -6.673,2.983 -6.673,6.674l0,539.166l869.579,0Z" style="fill:#feffff;fill-rule:nonzero;"/><rect x="1800.63" y="1716.18" width="766.06" height="450.311" style="fill:#4b6371;fill-rule:nonzero;"/><path d="M1800.63,1716.18l766.059,450.311l0,-450.311l-766.059,0Z" style="fill:#546f7d;fill-rule:nonzero;"/><path d="M2767.95,2582.57l-1168.59,0c-9.005,0 -13.483,-5.955 -10.029,-13.248l159.533,-359.054l869.579,0l159.543,359.054c3.455,7.293 -1.024,13.248 -10.039,13.248Z" style="fill:#e8f6fd;fill-rule:nonzero;"/><path d="M2643.94,2395.45l-920.553,0l68.728,-164.768l783.097,0l68.728,164.768Z" style="fill:#c4c4c4;fill-rule:nonzero;"/><path d="M2306.22,2550.58l-245.111,0c-17.154,0 -29.723,-11.034 -28.089,-24.38l10.413,-85.361c1.387,-11.329 14.96,-20.354 30.343,-20.354l219.777,0c15.393,0 28.966,9.025 30.344,20.354l10.422,85.361c1.634,13.346 -10.934,24.38 -28.099,24.38Z" style="fill:#c4c4c4;fill-rule:nonzero;"/><path d="M2643.94,2395.45l-38.739,-92.851l-843.084,0l-38.73,92.851l920.553,0Z" style="fill:#bababb;fill-rule:nonzero;"/><path d="M2369.24,418.055c-197.12,0 -357.49,160.36 -357.49,357.479c0,197.111 160.37,357.48 357.49,357.48c197.11,0 357.479,-160.369 357.479,-357.48c0,-197.119 -160.369,-357.479 -357.479,-357.479Zm0,724.801c-202.543,0 -367.332,-164.779 -367.332,-367.322c0,-202.543 164.789,-367.321 367.332,-367.321c202.543,0 367.321,164.778 367.321,367.321c0,202.543 -164.778,367.322 -367.321,367.322Z" style="fill:#4cc9f5;fill-rule:nonzero;"/><path d="M938.915,358.293c-180.103,0 -326.634,146.531 -326.634,326.634c0,180.103 146.531,326.624 326.634,326.624c180.093,0 326.624,-146.521 326.624,-326.624c0,-180.103 -146.531,-326.634 -326.624,-326.634Zm0,663.1c-185.536,0 -336.476,-150.94 -336.476,-336.466c0,-185.536 150.94,-336.476 336.476,-336.476c185.526,0 336.466,150.94 336.466,336.476c0,185.526 -150.94,336.466 -336.466,336.466Z" style="fill:#4cc9f5;fill-rule:nonzero;"/><path d="M3073.68,3485.44c-175.132,0 -317.618,142.486 -317.618,317.618c0,175.142 142.486,317.618 317.618,317.618c175.153,0 317.569,-142.476 317.569,-317.618c0,-175.132 -142.416,-317.618 -317.569,-317.618Zm0,645.078c-180.565,0 -327.46,-146.895 -327.46,-327.46c0,-180.565 146.895,-327.46 327.46,-327.46c180.566,0 327.412,146.895 327.412,327.46c0,180.565 -146.846,327.46 -327.412,327.46Z" style="fill:#4cc9f5;fill-rule:nonzero;"/><path d="M3176.11,911.721c-211.618,0 -383.778,172.17 -383.778,383.788c0,211.617 172.16,383.777 383.778,383.777c211.597,0 383.738,-172.16 383.738,-383.777c0,-211.618 -172.141,-383.788 -383.738,-383.788Zm0,777.408c-217.051,0 -393.62,-176.58 -393.62,-393.62c0,-217.051 176.569,-393.63 393.62,-393.63c217.01,0 393.58,176.579 393.58,393.63c0,217.04 -176.57,393.62 -393.58,393.62Z" style="fill:#4cc9f5;fill-rule:nonzero;"/><path d="M493.308,1842.93c-171.205,0 -310.502,139.287 -310.502,310.502c0,171.206 139.297,310.493 310.502,310.493c171.216,0 310.503,-139.287 310.503,-310.493c0,-171.215 -139.287,-310.502 -310.503,-310.502Zm0,630.837c-176.637,0 -320.344,-143.697 -320.344,-320.335c0,-176.638 143.707,-320.345 320.344,-320.345c176.639,0 320.345,143.707 320.345,320.345c0,176.638 -143.706,320.335 -320.345,320.335Z" style="fill:#4cc9f5;fill-rule:nonzero;"/><path d="M1046.83,2338.81c-177.366,0 -321.673,144.307 -321.673,321.674c0,177.386 144.307,321.692 321.673,321.692c177.387,0 321.693,-144.306 321.693,-321.692c0,-177.367 -144.306,-321.674 -321.693,-321.674Zm0,653.209c-182.799,0 -331.515,-148.726 -331.515,-331.535c0,-182.8 148.716,-331.516 331.515,-331.516c182.82,0 331.535,148.716 331.535,331.516c0,182.809 -148.715,331.535 -331.535,331.535Z" style="fill:#4cc9f5;fill-rule:nonzero;"/><path d="M926.514,3173.74c-187.12,0 -339.35,152.219 -339.35,339.33c0,187.12 152.23,339.35 339.35,339.35c187.11,0 339.33,-152.23 339.33,-339.35c0,-187.111 -152.22,-339.33 -339.33,-339.33Zm0,688.522c-192.543,0 -349.192,-156.649 -349.192,-349.192c0,-192.534 156.649,-349.173 349.192,-349.173c192.533,0 349.172,156.639 349.172,349.173c0,192.543 -156.639,349.192 -349.172,349.192Z" style="fill:#4cc9f5;fill-rule:nonzero;"/><path d="M984.485,1224.65c-196.618,0 -356.584,159.966 -356.584,356.594c0,196.618 159.966,356.584 356.584,356.584c196.628,0 356.593,-159.966 356.593,-356.584c0,-196.628 -159.965,-356.594 -356.593,-356.594Zm0,723.02c-202.051,0 -366.426,-164.375 -366.426,-366.426c0,-202.051 164.375,-366.436 366.426,-366.436c202.06,0 366.436,164.385 366.436,366.436c0,202.051 -164.376,366.426 -366.436,366.426Z" style="fill:#4cc9f5;fill-rule:nonzero;"/><path d="M2165.79,3611.33c-171.698,0 -311.398,139.701 -311.398,311.398c0,171.698 139.7,311.389 311.398,311.389c171.698,0 311.398,-139.691 311.398,-311.389c0,-171.697 -139.7,-311.398 -311.398,-311.398Zm0,632.629c-177.13,0 -321.24,-144.11 -321.24,-321.231c0,-177.13 144.11,-321.24 321.24,-321.24c177.131,0 321.241,144.11 321.241,321.24c0,177.121 -144.11,321.231 -321.241,321.231Z" style="fill:#4cc9f5;fill-rule:nonzero;"/><path d="M2574.51,2985.6c-156.718,0 -284.214,127.496 -284.214,284.214c0,156.717 127.496,284.213 284.214,284.213c156.717,0 284.214,-127.496 284.214,-284.213c0,-156.718 -127.497,-284.214 -284.214,-284.214Zm0,578.269c-162.141,0 -294.056,-131.905 -294.056,-294.055c0,-162.141 131.915,-294.057 294.056,-294.057c162.15,0 294.056,131.916 294.056,294.057c0,162.15 -131.906,294.055 -294.056,294.055Z" style="fill:#4cc9f5;fill-rule:nonzero;"/><path d="M3373.44,2051.71c-160.034,0 -290.247,130.222 -290.247,290.296c0,160.054 130.213,290.287 290.247,290.287c160.134,0 290.346,-130.233 290.346,-290.287c0,-160.074 -130.212,-290.296 -290.346,-290.296Zm0,590.425c-165.448,0 -300.089,-134.642 -300.089,-300.129c0,-165.497 134.641,-300.138 300.089,-300.138c165.546,0 300.188,134.641 300.188,300.138c0,165.487 -134.642,300.129 -300.188,300.129Z" style="fill:#4cc9f5;fill-rule:nonzero;"/><path d="M3839.37,1435.34c-164.267,0 -297.826,133.598 -297.826,297.806c0,164.217 133.559,297.825 297.826,297.825c164.169,0 297.826,-133.608 297.826,-297.825c0,-164.208 -133.657,-297.806 -297.826,-297.806Zm0,605.474c-169.68,0 -307.668,-138.018 -307.668,-307.668c0,-169.641 137.988,-307.648 307.668,-307.648c169.581,0 307.668,138.007 307.668,307.648c0,169.65 -138.087,307.668 -307.668,307.668Z" style="fill:#4cc9f5;fill-rule:nonzero;"/><path d="M1629.2,723.587c-154.946,0 -280.995,126.049 -280.995,280.995c0,154.956 126.049,281.006 280.995,281.006c154.946,0 281.005,-126.05 281.005,-281.006c0,-154.946 -126.059,-280.995 -281.005,-280.995Zm0,571.843c-160.369,0 -290.837,-130.468 -290.837,-290.848c0,-160.369 130.468,-290.837 290.837,-290.837c160.369,0 290.847,130.468 290.847,290.837c0,160.38 -130.478,290.848 -290.847,290.848Z" style="fill:#4cc9f5;fill-rule:nonzero;"/><path d="M3146.68,85.88c-163.528,0 -296.575,133.038 -296.575,296.576c0,163.538 133.047,296.575 296.575,296.575c163.568,0 296.537,-133.037 296.537,-296.575c0,-163.538 -132.969,-296.576 -296.537,-296.576Zm0,602.994c-168.961,0 -306.418,-137.457 -306.418,-306.418c0,-168.962 137.457,-306.418 306.418,-306.418c168.981,0 306.379,137.456 306.379,306.418c0,168.961 -137.398,306.418 -306.379,306.418Z" style="fill:#4cc9f5;fill-rule:nonzero;"/><path d="M1708.02,2996.04c-163.155,0 -295.887,132.733 -295.887,295.887c0,163.164 132.732,295.896 295.887,295.896c163.154,0 295.906,-132.732 295.906,-295.896c0,-163.154 -132.752,-295.887 -295.906,-295.887Zm0,601.626c-168.588,0 -305.729,-137.152 -305.729,-305.739c0,-168.587 137.141,-305.729 305.729,-305.729c168.587,0 305.748,137.142 305.748,305.729c0,168.587 -137.161,305.739 -305.748,305.739Z" style="fill:#4cc9f5;fill-rule:nonzero;"/><path d="M3536.62,2860.52c-174.01,0 -315.64,141.58 -315.64,315.6c0,174.011 141.63,315.581 315.64,315.581c174.011,0 315.542,-141.57 315.542,-315.581c0,-174.02 -141.531,-315.6 -315.542,-315.6Zm0,641.024c-179.423,0 -325.482,-145.99 -325.482,-325.424c0,-179.453 146.059,-325.442 325.482,-325.442c179.424,0 325.385,145.989 325.385,325.442c0,179.434 -145.961,325.424 -325.385,325.424Z" style="fill:#4cc9f5;fill-rule:nonzero;"/><path d="M2183.66,1294.39c-460.754,0 -835.614,374.86 -835.614,835.614c0,460.763 374.86,835.614 835.614,835.614c460.763,0 835.624,-374.851 835.624,-835.614c0,-460.754 -374.861,-835.614 -835.624,-835.614Zm0,1681.07c-466.187,0 -845.457,-379.27 -845.457,-845.456c0,-466.187 379.27,-845.457 845.457,-845.457c466.186,0 845.466,379.27 845.466,845.457c0,466.186 -379.28,845.456 -845.466,845.456Z" style="fill:#4cc9f5;fill-rule:nonzero;"/><path d="M377.82,1864.85c-0.58,0 -1.161,-0.099 -1.742,-0.316c-2.549,-0.964 -3.829,-3.808 -2.864,-6.348l348.129,-920.946c0.965,-2.549 3.769,-3.828 6.348,-2.864c2.54,0.955 3.819,3.799 2.865,6.338l-348.13,920.957c-0.757,1.968 -2.618,3.179 -4.606,3.179Z" style="fill:#4cc9f5;fill-rule:nonzero;"/><path d="M1242.58,556.762c-2.697,0 -4.901,-2.176 -4.921,-4.882c-0.02,-2.717 2.165,-4.941 4.882,-4.961l846.834,-6.614l0.039,0c2.707,0 4.902,2.176 4.921,4.882c0.02,2.727 -2.165,4.941 -4.881,4.961l-846.835,6.614l-0.039,0Z" style="fill:#4cc9f5;fill-rule:nonzero;"/><path d="M1407.21,1812.57c-0.62,0 -1.23,-0.109 -1.84,-0.355l-110.42,-44.369c-2.51,-1.013 -3.74,-3.877 -2.727,-6.407c1.014,-2.519 3.878,-3.72 6.398,-2.726l110.42,44.369c2.519,1.013 3.749,3.877 2.736,6.407c-0.778,1.919 -2.618,3.081 -4.567,3.081Z" style="fill:#4cc9f5;fill-rule:nonzero;"/><path d="M1220.3,1312.29c-1.594,0 -3.169,-0.788 -4.114,-2.225c-1.486,-2.273 -0.846,-5.324 1.417,-6.81l186.894,-122.635c2.264,-1.486 5.315,-0.876 6.821,1.408c1.486,2.274 0.856,5.325 -1.417,6.82l-186.894,122.635c-0.836,0.541 -1.772,0.807 -2.707,0.807Z" style="fill:#4cc9f5;fill-rule:nonzero;"/><path d="M984.485,1224.65c-2.254,0 -4.282,-1.555 -4.803,-3.838l-45.58,-203.271c-0.58,-2.648 1.083,-5.276 3.731,-5.876c2.706,-0.591 5.285,1.082 5.885,3.73l45.58,203.262c0.58,2.657 -1.083,5.285 -3.731,5.875c-0.364,0.079 -0.718,0.118 -1.082,0.118Z" style="fill:#4cc9f5;fill-rule:nonzero;"/><path d="M1383.14,863.898c-0.611,0 -1.241,-0.118 -1.831,-0.354l-135.045,-54.388c-2.529,-1.014 -3.75,-3.888 -2.726,-6.408c1.003,-2.529 3.917,-3.74 6.397,-2.726l135.045,54.388c2.529,1.014 3.75,3.888 2.727,6.407c-0.768,1.92 -2.609,3.081 -4.567,3.081Z" style="fill:#4cc9f5;fill-rule:nonzero;"/><path d="M808.732,2158.36c-2.628,0 -4.793,-2.067 -4.921,-4.704c-0.118,-2.717 1.988,-5.02 4.715,-5.138l534.383,-23.425c2.559,-0.304 5.01,1.979 5.138,4.695c0.117,2.717 -1.989,5.01 -4.715,5.138l-534.393,23.425c-0.059,0.009 -0.138,0.009 -0.207,0.009Z" style="fill:#4cc9f5;fill-rule:nonzero;"/><path d="M622.98,1870.81c-1.457,0 -2.904,-0.649 -3.878,-1.89c-1.673,-2.136 -1.289,-5.226 0.837,-6.909l77.675,-60.894c2.135,-1.663 5.236,-1.299 6.909,0.837c1.673,2.136 1.299,5.236 -0.837,6.909l-77.665,60.894c-0.905,0.709 -1.978,1.053 -3.041,1.053Z" style="fill:#4cc9f5;fill-rule:nonzero;"/><path d="M808.732,2441.97c-1.014,0 -2.027,-0.306 -2.903,-0.955l-88.501,-64.644c-2.195,-1.594 -2.678,-4.675 -1.064,-6.87c1.605,-2.204 4.685,-2.667 6.87,-1.062l88.502,64.643c2.195,1.595 2.667,4.675 1.063,6.87c-0.955,1.319 -2.461,2.018 -3.967,2.018Z" style="fill:#4cc9f5;fill-rule:nonzero;"/><path d="M1493.71,3085.83c-1.112,0 -2.204,-0.364 -3.129,-1.112l-222.936,-182.79c-2.097,-1.712 -2.402,-4.823 -0.68,-6.929c1.722,-2.096 4.823,-2.392 6.929,-0.679l222.936,182.78c2.096,1.722 2.402,4.823 0.679,6.929c-0.964,1.181 -2.381,1.801 -3.799,1.801Z" style="fill:#4cc9f5;fill-rule:nonzero;"/><path d="M926.514,3173.74c-0.482,0 -0.974,-0.069 -1.466,-0.227c-2.589,-0.807 -4.046,-3.563 -3.238,-6.161l58.384,-187.652c0.797,-2.588 3.533,-4.065 6.161,-3.238c2.598,0.807 4.045,3.563 3.238,6.161l-58.384,187.652c-0.65,2.106 -2.599,3.465 -4.695,3.465Z" style="fill:#4cc9f5;fill-rule:nonzero;"/><path d="M1351.99,2548.99c-1.791,0 -3.523,-0.994 -4.39,-2.697c-1.22,-2.431 -0.245,-5.393 2.176,-6.614l78.895,-39.841c2.401,-1.211 5.383,-0.266 6.614,2.175c1.22,2.431 0.256,5.384 -2.176,6.604l-78.895,39.842c-0.708,0.354 -1.476,0.531 -2.224,0.531Z" style="fill:#4cc9f5;fill-rule:nonzero;"/><path d="M1260.81,3435.75c-2.185,0 -4.173,-1.456 -4.764,-3.651c-0.698,-2.638 0.867,-5.325 3.494,-6.033l161.6,-43.031c2.647,-0.718 5.324,0.876 6.023,3.494c0.699,2.619 -0.866,5.325 -3.484,6.024l-161.6,43.03c-0.422,0.118 -0.856,0.167 -1.269,0.167Z" style="fill:#4cc9f5;fill-rule:nonzero;"/><path d="M1856.29,3862.26c-0.414,0 -0.837,-0.049 -1.25,-0.167l-634.754,-166.796c-2.628,-0.699 -4.193,-3.386 -3.504,-6.014c0.679,-2.628 3.415,-4.213 6.003,-3.504l634.755,166.796c2.627,0.699 4.192,3.386 3.503,6.014c-0.58,2.204 -2.578,3.671 -4.753,3.671Z" style="fill:#4cc9f5;fill-rule:nonzero;"/><path d="M1854.32,3033.94c-0.856,0 -1.722,-0.217 -2.51,-0.689c-2.342,-1.378 -3.11,-4.4 -1.712,-6.742l60.795,-102.31c1.408,-2.333 4.429,-3.09 6.752,-1.712c2.333,1.387 3.101,4.409 1.713,6.751l-60.806,102.3c-0.925,1.555 -2.559,2.402 -4.232,2.402Z" style="fill:#4cc9f5;fill-rule:nonzero;"/><path d="M2008.83,3296.85c-2.54,0 -4.696,-1.949 -4.892,-4.527c-0.227,-2.707 1.791,-5.079 4.508,-5.295l276.536,-22.116c2.677,-0.177 5.088,1.801 5.295,4.508c0.227,2.716 -1.791,5.088 -4.507,5.295l-276.537,22.115c-0.138,0.01 -0.275,0.02 -0.403,0.02Z" style="fill:#4cc9f5;fill-rule:nonzero;"/><path d="M2574.51,2985.6c-1.289,0 -2.579,-0.492 -3.543,-1.506l-70.677,-73.334c-1.88,-1.949 -1.821,-5.069 0.138,-6.959c1.948,-1.87 5.058,-1.84 6.958,0.128l70.677,73.344c1.88,1.949 1.821,5.059 -0.138,6.959c-0.955,0.905 -2.185,1.368 -3.415,1.368Z" style="fill:#4cc9f5;fill-rule:nonzero;"/><path d="M2326.22,3655.07c-1.003,0 -2.008,-0.305 -2.884,-0.935c-2.204,-1.594 -2.706,-4.665 -1.112,-6.87l96.897,-134.011c1.584,-2.205 4.675,-2.687 6.87,-1.112c2.204,1.594 2.706,4.675 1.112,6.879l-96.897,134.012c-0.964,1.329 -2.47,2.037 -3.986,2.037Z" style="fill:#4cc9f5;fill-rule:nonzero;"/><path d="M2891.12,3542.11c-1.082,0 -2.175,-0.354 -3.07,-1.082l-97.832,-78.472c-2.126,-1.703 -2.46,-4.794 -0.758,-6.91c1.713,-2.116 4.813,-2.45 6.909,-0.758l97.832,78.472c2.116,1.693 2.461,4.794 0.758,6.91c-0.975,1.21 -2.392,1.84 -3.839,1.84Z" style="fill:#4cc9f5;fill-rule:nonzero;"/><path d="M2482.1,3927.65c-2.44,0 -4.557,-1.811 -4.881,-4.301c-0.335,-2.707 1.574,-5.168 4.271,-5.502l280.257,-35.334c2.657,-0.403 5.148,1.565 5.492,4.272c0.335,2.696 -1.565,5.157 -4.261,5.492l-280.258,35.333c-0.206,0.03 -0.413,0.04 -0.62,0.04Z" style="fill:#4cc9f5;fill-rule:nonzero;"/><path d="M3297.26,3575.65c-1.082,0 -2.165,-0.355 -3.051,-1.063c-2.165,-1.674 -2.46,-4.764 -0.787,-6.91l88.088,-111.994c1.673,-2.136 4.822,-2.49 6.889,-0.817c2.166,1.673 2.559,4.764 0.788,6.909l-88.088,111.995c-0.984,1.23 -2.362,1.88 -3.839,1.88Z" style="fill:#4cc9f5;fill-rule:nonzero;"/><path d="M3216.06,3181.04c-0.196,0 -0.492,-0.02 -0.689,-0.06l-398.403,-62.566c-2.687,-0.424 -4.527,-2.933 -4.104,-5.62c0.423,-2.697 3.071,-4.528 5.62,-4.105l398.364,62.567c2.657,0.424 4.527,2.933 4.133,5.62c-0.393,2.431 -2.46,4.164 -4.921,4.164Z" style="fill:#4cc9f5;fill-rule:nonzero;"/><path d="M3083.13,2293.76c-0.935,0 -1.87,-0.266 -2.707,-0.817l-66.769,-43.995c-2.264,-1.496 -2.894,-4.547 -1.388,-6.821c1.477,-2.273 4.548,-2.893 6.811,-1.397l66.759,43.994c2.274,1.497 2.894,4.548 1.398,6.821c-0.945,1.437 -2.509,2.215 -4.104,2.215Z" style="fill:#4cc9f5;fill-rule:nonzero;"/><path d="M3457.38,2870.39c-1.958,0 -3.828,-1.231 -4.616,-3.219l-83.855,-228.261c-0.985,-2.559 0.295,-5.383 2.854,-6.328c2.559,-0.906 5.413,0.364 6.299,2.923l83.955,228.261c0.984,2.559 -0.394,5.383 -2.855,6.328c-0.601,0.207 -1.181,0.296 -1.782,0.296Z" style="fill:#4cc9f5;fill-rule:nonzero;"/><path d="M3546.37,2107.66c-1.28,0 -2.559,-0.502 -3.543,-1.486c-1.87,-1.939 -1.87,-5.059 0.098,-6.959l122.329,-119.533c1.979,-1.89 5.118,-1.861 6.998,0.078c1.87,1.949 1.87,5.059 -0.098,6.969l-122.349,119.533c-0.975,0.926 -2.254,1.398 -3.435,1.398Z" style="fill:#4cc9f5;fill-rule:nonzero;"/><path d="M1897.96,911.721c-1.998,0 -3.878,-1.22 -4.616,-3.199c-0.945,-2.549 0.344,-5.383 2.894,-6.328l119.395,-44.536c2.54,-0.945 5.384,0.334 6.339,2.893c0.944,2.55 -0.355,5.384 -2.894,6.329l-119.396,44.536c-0.571,0.207 -1.142,0.305 -1.722,0.305Z" style="fill:#4cc9f5;fill-rule:nonzero;"/><path d="M2842.2,1101.36c-1.142,0 -2.284,-0.394 -3.219,-1.201l-160.054,-138.165c-2.057,-1.771 -2.283,-4.882 -0.512,-6.939c1.792,-2.076 4.892,-2.273 6.949,-0.511l160.064,138.174c2.057,1.772 2.274,4.882 0.501,6.939c-0.974,1.122 -2.351,1.703 -3.729,1.703Z" style="fill:#4cc9f5;fill-rule:nonzero;"/><path d="M2305.03,1303.14c-0.61,0 -1.23,-0.109 -1.821,-0.345c-2.529,-1.014 -3.75,-3.878 -2.746,-6.407l64.211,-160.281c1.004,-2.539 3.887,-3.74 6.388,-2.746c2.529,1.024 3.749,3.888 2.745,6.407l-64.21,160.291c-0.768,1.919 -2.608,3.081 -4.567,3.081Z" style="fill:#4cc9f5;fill-rule:nonzero;"/><path d="M3564.77,1613.11c-0.984,0 -2.067,-0.334 -2.952,-1.013l-87.596,-66.947c-2.165,-1.654 -2.559,-4.744 -0.896,-6.9c1.683,-2.165 4.734,-2.559 6.899,-0.925l87.596,66.947c2.165,1.653 2.56,4.744 0.886,6.899c-0.984,1.27 -2.461,1.939 -3.937,1.939Z" style="fill:#4cc9f5;fill-rule:nonzero;"/><path d="M3251.79,919.162c-2.263,0 -4.33,-1.624 -4.724,-3.976l-46.554,-235.997c-0.59,-2.667 1.182,-5.246 3.839,-5.778c2.657,-0.501 5.315,1.211 5.807,3.878l46.553,235.997c0.492,2.667 -1.279,5.256 -3.936,5.787c-0.296,0.059 -0.591,0.089 -0.985,0.089Z" style="fill:#4cc9f5;fill-rule:nonzero;"/><path d="M2654.28,556.762c-2.293,0 -4.35,-1.615 -4.822,-3.947c-0.532,-2.667 1.2,-5.266 3.857,-5.797l218.183,-43.926c2.598,-0.531 5.256,1.181 5.797,3.848c0.541,2.668 -1.191,5.266 -3.858,5.797l-218.182,43.926c-0.325,0.069 -0.65,0.099 -0.975,0.099Z" style="fill:#4cc9f5;fill-rule:nonzero;"/><path d="M706.639,3253.13c-2.166,0 -4.153,-1.437 -4.744,-3.622l-213.33,-779.356c-0.719,-2.618 0.827,-5.325 3.445,-6.043c2.657,-0.699 5.334,0.836 6.053,3.454l213.32,779.347c0.718,2.628 -0.827,5.324 -3.445,6.043c-0.433,0.118 -0.876,0.177 -1.299,0.177Z" style="fill:#4cc9f5;fill-rule:nonzero;"/><path d="M2751.14,3040.38c-1.161,0 -2.332,-0.414 -3.277,-1.25c-2.028,-1.811 -2.195,-4.921 -0.394,-6.949l418.993,-469.956c1.801,-2.018 4.901,-2.215 6.949,-0.394c2.027,1.801 2.195,4.921 0.394,6.949l-418.984,469.956c-0.974,1.083 -2.323,1.644 -3.681,1.644Z" style="fill:#4cc9f5;fill-rule:nonzero;"/><path d="M3724.21,2921.25c-0.295,0 -0.591,-0.029 -0.985,-0.098c-2.656,-0.512 -4.33,-3.1 -3.838,-5.768l173.125,-880.445c0.492,-2.668 3.149,-4.4 5.807,-3.878c2.657,0.522 4.428,3.11 3.838,5.777l-173.124,880.446c-0.493,2.342 -2.461,3.966 -4.823,3.966Z" style="fill:#4cc9f5;fill-rule:nonzero;"/><path d="M2995.14,1915.3c-2.333,0 -4.4,-1.664 -4.843,-4.036c-0.482,-2.667 1.289,-5.236 3.967,-5.718l551.213,-100.922c2.559,-0.492 5.217,1.279 5.708,3.956c0.493,2.668 -1.279,5.237 -3.946,5.729l-551.214,100.912c-0.295,0.059 -0.59,0.079 -0.885,0.079Z" style="fill:#4cc9f5;fill-rule:nonzero;"/><path d="M1850.5,1363.06c-1.653,0 -3.277,-0.837 -4.202,-2.352l-68.256,-112.093c-1.407,-2.323 -0.679,-5.355 1.644,-6.772c2.312,-1.407 5.334,-0.669 6.761,1.644l68.246,112.093c1.418,2.323 0.69,5.354 -1.643,6.771c-0.798,0.482 -1.674,0.709 -2.55,0.709Z" style="fill:#4cc9f5;fill-rule:nonzero;"/><path d="M2032.87,3640.62c-1.25,0 -2.5,-0.472 -3.455,-1.408l-122.732,-120.98c-1.949,-1.919 -1.969,-5.029 -0.059,-6.958c1.919,-1.959 5.039,-1.959 6.958,-0.06l122.743,120.981c1.939,1.909 1.958,5.02 0.049,6.958c-0.965,0.975 -2.234,1.467 -3.504,1.467Z" style="fill:#4cc9f5;fill-rule:nonzero;"/><g><path d="M954.059,3527.09l0,-135.319c0,-14.765 -14.124,-26.724 -31.518,-26.724c-17.413,0 -31.518,11.959 -31.518,26.724l0,135.319c-39.458,12.568 -65.776,47.884 -56.361,87.177c6.939,28.936 34.41,52.405 68.499,58.449c58.044,10.276 109.149,-27.012 109.149,-74.416c0,-32.624 -24.238,-60.389 -58.251,-71.21Z" style="fill:#095384;fill-rule:nonzero;"/><path d="M857.766,3500.97c0,-2.982 -2.836,-5.403 -6.352,-5.403l-46.795,0c-3.517,0 -6.372,2.421 -6.372,5.403c0,2.982 2.855,5.402 6.372,5.402l46.795,0c3.516,0 6.352,-2.42 6.352,-5.402Zm0,-58.898c0,-2.998 -2.836,-5.403 -6.352,-5.403l-46.795,0c-3.517,0 -6.372,2.405 -6.372,5.403c0,2.965 2.855,5.386 6.372,5.386l46.795,0c3.516,0 6.352,-2.421 6.352,-5.386Zm-6.352,-53.512l-46.795,0c-3.517,0 -6.372,-2.421 -6.372,-5.403c0,-2.982 2.855,-5.402 6.372,-5.402l46.795,0c3.516,0 6.352,2.42 6.352,5.402c0,2.982 -2.836,5.403 -6.352,5.403Z" style="fill:#095384;fill-rule:nonzero;"/><path d="M1055,3407.2c0,16.272 -15.561,29.465 -34.751,29.465c-19.19,0 -34.732,-13.193 -34.732,-29.465c0,-16.272 15.542,-29.449 34.732,-29.449c19.19,0 34.751,13.177 34.751,29.449Z" style="fill:#095384;fill-rule:nonzero;"/></g><g><path d="M1698.29,1134.68c-29.177,-13.641 -36.685,-76.555 -36.685,-76.555l-24.174,-6.557l0,-7.507l-13.842,3.753l-13.846,-3.753l0,7.507l-24.175,6.557c0,0 -7.507,62.914 -36.706,76.555c-6.228,2.91 -10.32,9.023 -10.32,15.896c0,9.626 7.803,17.429 17.429,17.429l135.232,0c9.613,0 17.445,-7.803 17.445,-17.429c0,-6.873 -4.109,-12.986 -10.358,-15.896Z" style="fill:#0b71b6;fill-rule:nonzero;"/><path d="M1754.06,959.657c0,72.061 -58.411,130.476 -130.472,130.476c-72.061,0 -130.48,-58.415 -130.48,-130.476c0,-72.061 58.419,-130.476 130.48,-130.476c72.061,0 130.472,58.415 130.472,130.476Z" style="fill:#108bcc;fill-rule:nonzero;"/><path d="M1698.07,959.657c0,41.145 -33.347,74.496 -74.488,74.496c-41.145,0 -74.5,-33.351 -74.5,-74.496c0,-41.145 33.355,-74.496 74.5,-74.496c41.141,0 74.488,33.351 74.488,74.496Z" style="fill:#0b71b6;fill-rule:nonzero;"/><path d="M1637.61,942.772c0,16.187 -13.119,29.31 -29.311,29.31c-16.187,0 -29.306,-13.123 -29.306,-29.31c0,-16.188 13.119,-29.306 29.306,-29.306c16.192,0 29.311,13.118 29.311,29.306Z" style="fill:#fff;fill-rule:nonzero;"/><path d="M1668.18,985.492c0,9.476 -7.683,17.159 -17.159,17.159c-9.477,0 -17.159,-7.683 -17.159,-17.159c0,-9.472 7.682,-17.155 17.159,-17.155c9.476,0 17.159,7.683 17.159,17.155Z" style="fill:#fff;fill-rule:nonzero;"/></g><g><path d="M3665.83,3041.55c-0.906,0 -1.811,0.016 -2.717,0.037l-92.272,-0.012l0,-0.004l-15.316,0.004l-15.28,-0.004l0,0.004l-92.267,0.012c-0.906,-0.021 -1.812,-0.037 -2.718,-0.037c-63.573,0 -115.275,55.091 -115.275,122.806c0,190.567 98.394,144.505 138.74,99.703c17.499,-19.417 42.743,-30.073 68.885,-30.073l35.867,0c26.145,0 51.344,10.656 68.843,30.073c40.392,44.802 138.757,90.864 138.757,-99.703c0,-67.715 -51.715,-122.806 -115.247,-122.806Z" style="fill:#108bcc;fill-rule:nonzero;"/><path d="M3397.37,3150.96c5.105,0 9.223,-4.138 9.223,-9.235l0,-8.832c0,-5.106 -4.118,-9.24 -9.223,-9.24c-5.106,0 -9.265,4.134 -9.265,9.24l0,8.832c0,5.097 4.159,9.235 9.265,9.235Z" style="fill:#fff;fill-rule:nonzero;"/><path d="M3397.37,3206.65c5.105,0 9.223,-4.138 9.223,-9.24l0,-8.831c0,-5.102 -4.118,-9.236 -9.223,-9.236c-5.106,0 -9.265,4.134 -9.265,9.236l0,8.831c0,5.102 4.159,9.24 9.265,9.24Z" style="fill:#fff;fill-rule:nonzero;"/><path d="M3365.64,3172.78l8.841,0c5.105,0 9.223,-4.138 9.223,-9.235c0,-5.102 -4.118,-9.236 -9.223,-9.236l-8.841,0c-5.105,0 -9.235,4.134 -9.235,9.236c0,5.097 4.13,9.235 9.235,9.235Z" style="fill:#fff;fill-rule:nonzero;"/><path d="M3420.27,3172.78l8.812,0c5.105,0 9.223,-4.138 9.223,-9.235c0,-5.102 -4.118,-9.236 -9.223,-9.236l-8.812,0c-5.105,0 -9.264,4.134 -9.264,9.236c0,5.097 4.159,9.235 9.264,9.235Z" style="fill:#fff;fill-rule:nonzero;"/><path d="M3684.36,3152.02c-6.671,0 -12.023,5.386 -12.023,12.023c0,6.637 5.352,12.023 12.023,12.023c6.628,0 12.023,-5.386 12.023,-12.023c0,-6.637 -5.395,-12.023 -12.023,-12.023Z" style="fill:#fff;fill-rule:nonzero;"/><path d="M3742.66,3152.02c-6.67,0 -12.023,5.386 -12.023,12.023c0,6.637 5.353,12.023 12.023,12.023c6.629,0 12.023,-5.386 12.023,-12.023c0,-6.637 -5.394,-12.023 -12.023,-12.023Z" style="fill:#fff;fill-rule:nonzero;"/><path d="M3713.51,3121.14c-6.67,0 -12.023,5.385 -12.023,12.022c0,6.642 5.353,12.023 12.023,12.023c6.629,0 12.023,-5.381 12.023,-12.023c0,-6.637 -5.394,-12.022 -12.023,-12.022Z" style="fill:#fff;fill-rule:nonzero;"/><path d="M3713.51,3182.91c-6.67,0 -12.023,5.381 -12.023,12.023c0,6.637 5.353,12.023 12.023,12.023c6.629,0 12.023,-5.386 12.023,-12.023c0,-6.642 -5.394,-12.023 -12.023,-12.023Z" style="fill:#fff;fill-rule:nonzero;"/><path d="M3618.31,3071.97l-125.54,0c-16.927,0 -30.633,13.707 -30.633,30.613l0,75.481c0,16.91 13.706,30.613 30.633,30.613l125.54,0c16.923,0 30.634,-13.703 30.634,-30.613l0,-75.481c0,-16.906 -13.711,-30.613 -30.634,-30.613Z" style="fill:#0b71b6;fill-rule:nonzero;"/><path d="M3618.31,3208.68l-125.746,0l0,-0.004l-0.21,0c-0.078,0 -0.119,0 -0.16,-0.004l-0.041,0c-0.083,0 -0.124,0 -0.165,-0.005l-0.083,0c-0.045,0 -0.086,-0.004 -0.127,-0.004c0,0 -0.037,0 -0.078,-0.004l-0.041,0c-8.61,-0.3 -16.31,-4.179 -21.658,-10.17l170.832,-116.572c4.858,5.274 7.905,12.237 8.07,19.92l0,0.033c0,0.049 0,0.099 0.041,0.148l0,76.049c0,16.91 -13.711,30.613 -30.634,30.613Z" style="fill:#085696;fill-rule:nonzero;"/></g></g></svg>