<?xml version="1.0" encoding="utf-8"?>
<!-- Generator: Adobe Illustrator 27.5.0, SVG Export Plug-In . SVG Version: 6.00 Build 0)  -->
<svg version="1.1" xmlns="http://www.w3.org/2000/svg" xmlns:xlink="http://www.w3.org/1999/xlink" x="0px" y="0px"
	 viewBox="0 0 500 500" style="enable-background:new 0 0 500 500;" xml:space="preserve">
<g id="BACKGROUND">
	<rect style="fill:#93CAF2;" width="500" height="500"/>
</g>
<g id="OBJECTS">
	<path style="fill:none;stroke:#9BD5FF;stroke-width:3;stroke-miterlimit:10;" d="M37.614,0v99.838
		c0,13.696,11.103,24.799,24.799,24.799h0c13.696,0,24.799-11.103,24.799-24.799v-18.19c0-8.448,6.849-15.297,15.297-15.297H500"/>
	<path style="fill:none;stroke:#B2DEFF;stroke-width:3;stroke-miterlimit:10;" d="M0,57.385h329.074
		c7.866,0,14.242-6.376,14.242-14.242V0"/>
	<path style="fill:none;stroke:#B2DEFF;stroke-width:3;stroke-miterlimit:10;" d="M389.997,0v34.044
		c0,6.336,5.136,11.472,11.473,11.472H500"/>
	<g>
		<rect x="22.422" y="179.584" style="opacity:0.5;fill:#28378F;" width="35.526" height="14.472"/>
		<rect x="22.422" y="198.651" style="opacity:0.2;fill:#FFFFFF;" width="35.526" height="43.964"/>
		<path style="fill:#28378F;" d="M51.731,233.069H38.1c-0.579,0-1.049-0.47-1.049-1.049l0,0c0-0.579,0.47-1.049,1.049-1.049h13.631
			c0.579,0,1.049,0.47,1.049,1.049l0,0C52.78,232.6,52.31,233.069,51.731,233.069z"/>
		<path style="fill:#28378F;" d="M51.731,238.036h-7.91c-0.579,0-1.049-0.47-1.049-1.049l0,0c0-0.579,0.47-1.049,1.049-1.049h7.91
			c0.579,0,1.049,0.47,1.049,1.049l0,0C52.78,237.567,52.31,238.036,51.731,238.036z"/>
	</g>
	<g>
		<g>
			<g>
				<g>
					<g>
						
							<ellipse transform="matrix(0.8519 -0.5237 0.5237 0.8519 -72.2878 150.0936)" style="fill:#4F88B3;" cx="229.24" cy="202.861" rx="17.434" ry="17.434"/>
					</g>
					<g>
						<path style="fill:#4F88B3;" d="M242.619,194.686c0,0,3.298,0.739,5.103-0.759c1.878-1.558,4.348-4.025,5.332-1.75
							c1.084,2.507-3.898,2.253-4.867,2.718s-3.394,1.532-3.63,3.396L242.619,194.686z"/>
					</g>
					<g>
						<path style="fill:#4F88B3;" d="M233.557,187.847c0,0,4.078-0.056,5.363-2.402c1.337-2.441,2.889-6.159,5.128-3.674
							c2.467,2.737-3.264,3.872-4.123,4.719s-3.056,2.848-2.394,5.185L233.557,187.847z"/>
					</g>
					<g>
						<path style="fill:#4F88B3;" d="M244.745,202.687c0,0,2.592,2.661,4.885,1.962c2.385-0.728,5.715-2.156,5.544,0.966
							c-0.189,3.44-4.501,0.397-5.576,0.389c-1.075-0.008-4.075-0.143-5.142,1.838L244.745,202.687z"/>
					</g>
					<g>
						<path style="fill:#4F88B3;" d="M243.49,210.398c0,0,0.733,3.642,3.039,4.299c2.398,0.683,5.971,1.29,4.133,3.82
							c-2.025,2.787-3.996-2.109-4.895-2.699c-0.898-0.59-3.345-2.332-5.316-1.246L243.49,210.398z"/>
					</g>
					<g>
						<path style="fill:#4F88B3;" d="M214.597,197.455c0,0-1.14-3.535-3.505-3.927c-2.46-0.408-6.079-0.606-4.538-3.328
							c1.697-2.998,4.209,1.643,5.168,2.128c0.96,0.485,3.587,1.938,5.423,0.637L214.597,197.455z"/>
					</g>
					<g>
						<path style="fill:#4F88B3;" d="M219.205,190.075c0,0,1.67-3.518,0.246-5.676c-1.482-2.245-3.942-5.249-0.919-6.047
							c3.331-0.88,1.868,4.54,2.217,5.657c0.348,1.117,1.214,4.268,3.45,4.754L219.205,190.075z"/>
					</g>
					<g>
						<path style="fill:#4F88B3;" d="M244.126,198.607c0,0,2.269,1.691,3.758,0.772c1.548-0.956,3.639-2.617,4.05-0.12
							c0.453,2.75-3.087,1.032-3.842,1.197c-0.755,0.165-2.632,0.482-3.043,2.219L244.126,198.607z"/>
					</g>
					<g>
						<path style="fill:#4F88B3;" d="M227.324,187.852c0,0,2.849-2.39,2.233-4.664c-0.641-2.365-1.961-5.689,1.239-5.359
							c3.525,0.364,0.208,4.412,0.151,5.46c-0.056,1.048-0.31,3.623,1.678,4.767L227.324,187.852z"/>
					</g>
					<g>
						<path style="fill:#4F88B3;" d="M228.262,219.264c0,0-2.353,2.416-1.622,4.442c0.761,2.108,2.204,5.035-0.679,4.995
							c-3.176-0.044-0.537-4.012-0.57-4.974c-0.033-0.962-0.012-3.334-1.878-4.217L228.262,219.264z"/>
					</g>
					<g>
						<path style="fill:#4F88B3;" d="M215.787,211.304c0,0-3.282-0.808-5.118,0.652c-1.91,1.519-4.431,3.934-5.368,1.638
							c-1.032-2.529,3.944-2.171,4.923-2.616c0.978-0.445,3.425-1.461,3.7-3.32L215.787,211.304z"/>
					</g>
					<g>
						<path style="fill:#4F88B3;" d="M223.867,216.509c0,0-3.949,1.3-4.797,4.016c-0.882,2.825-1.756,6.982-4.352,5.205
							c-2.861-1.958,2.51-4.831,3.199-5.932c0.689-1.101,2.481-3.754,1.441-5.866L223.867,216.509z"/>
					</g>
					<g>
						<path style="fill:#4F88B3;" d="M213.823,203.26c0,0-3.048-2.751-5.78-2.13c-2.842,0.646-6.813,1.962-6.574-1.156
							c0.264-3.435,5.35-0.244,6.627-0.199c1.277,0.045,4.839,0.283,6.128-1.663L213.823,203.26z"/>
					</g>
					<g>
						<path style="fill:#4F88B3;" d="M214.362,207.353c0,0-2.881-1.643-4.925-0.676c-2.126,1.006-5.026,2.737-5.381,0.232
							c-0.391-2.76,4.173-1.125,5.187-1.312c1.014-0.187,3.528-0.558,4.204-2.32L214.362,207.353z"/>
					</g>
					<g>
						<path style="fill:#4F88B3;" d="M240.263,215.318c0,0-0.475,2.34,0.761,3.145c1.286,0.838,3.306,1.837,1.548,3.048
							c-1.936,1.334-1.898-1.985-2.295-2.502c-0.397-0.517-1.314-1.835-2.788-1.524L240.263,215.318z"/>
					</g>
					<g>
						<path style="fill:#4F88B3;" d="M234.146,218.262c0,0-2.213,2.37-1.393,4.225c0.854,1.929,2.421,4.588-0.434,4.694
							c-3.145,0.117-0.723-3.717-0.802-4.613c-0.079-0.896-0.171-3.11-2.059-3.841L234.146,218.262z"/>
					</g>
					<g>
						<path style="fill:#4F88B3;" d="M223.482,186.788c0,0,1.609-1.764,0.962-3.09c-0.673-1.38-1.893-3.274,0.237-3.41
							c2.347-0.15,0.609,2.678,0.684,3.325c0.075,0.648,0.185,2.25,1.609,2.74L223.482,186.788z"/>
					</g>
					<g>
						<path style="fill:#5593C2;" d="M228.173,191.595c0.501-0.864,0.308-1.99-0.56-2.545l-0.136-0.087
							c-0.813-0.52-2.045-0.301-2.545,0.56c-0.501,0.864-0.308,1.991,0.56,2.545c0.045,0.029,0.091,0.058,0.136,0.087
							C226.441,192.675,227.673,192.456,228.173,191.595z"/>
					</g>
					<g>
						<path style="fill:#5593C2;" d="M220.901,201.464c-0.35-1.589-2.82-1.048-2.47,0.544
							C218.781,203.597,221.251,203.056,220.901,201.464z"/>
					</g>
					<g>
						<path style="fill:#5593C2;" d="M242.017,208.943c-0.35-1.589-2.82-1.048-2.47,0.544
							C239.897,211.076,242.368,210.535,242.017,208.943z"/>
					</g>
					<g>
						<path style="fill:#5593C2;" d="M232.84,213.555c0.877-0.463,1.73-1.408,1.999-2.38c0.288-1.043,0.286-2.229-0.277-3.192
							c-0.523-0.894-1.343-1.735-2.38-1.999c-0.099-0.025-0.199-0.05-0.298-0.076c-1.078-0.274-2.184-0.255-3.192,0.277
							c-0.877,0.463-1.73,1.408-1.999,2.38c-0.288,1.043-0.286,2.229,0.277,3.192c0.523,0.893,1.343,1.735,2.38,1.999
							c0.099,0.025,0.199,0.051,0.298,0.076C230.727,214.106,231.832,214.087,232.84,213.555z"/>
					</g>
					<g>
						<path style="fill:#5593C2;" d="M239.299,199.063c-0.439-1.993-3.536-1.314-3.097,0.682
							C236.641,201.738,239.738,201.059,239.299,199.063z"/>
					</g>
					<g>
						<path style="fill:#5593C2;" d="M220.705,209.602c-0.439-1.993-3.536-1.314-3.097,0.682
							C218.047,212.277,221.145,211.598,220.705,209.602z"/>
					</g>
					<g>
						<path style="fill:#5593C2;" d="M231.698,201.076c0.604-1.04,0.371-2.398-0.675-3.066c-0.055-0.035-0.109-0.07-0.164-0.105
							c-0.98-0.626-2.464-0.362-3.066,0.675c-0.604,1.04-0.371,2.398,0.675,3.066c0.055,0.035,0.109,0.07,0.164,0.105
							C229.612,202.377,231.096,202.113,231.698,201.076z"/>
					</g>
				</g>
			</g>
			<g>
				<g>
					<g>
						<path style="fill:#3D739C;" d="M174.468,239.721c-6.277-2.441-9.387-9.509-6.946-15.787c2.442-6.277,9.509-9.387,15.787-6.945
							c6.277,2.441,9.387,9.509,6.945,15.787C187.813,239.053,180.745,242.162,174.468,239.721z"/>
					</g>
					<g>
						<path style="fill:#3D739C;" d="M189.55,230.929c0,0,1.266,1.997,2.9,2.149c1.7,0.158,4.142,0.16,3.503,1.772
							c-0.704,1.776-3.043-0.814-3.752-1.063c-0.709-0.249-2.437-0.921-3.475-0.115L189.55,230.929z"/>
					</g>
					<g>
						<path style="fill:#3D739C;" d="M188.45,223.064c0,0,2.045,1.99,3.841,1.465c1.869-0.546,4.475-1.617,4.354,0.719
							c-0.134,2.574-3.53,0.3-4.373,0.295c-0.843-0.006-2.92-0.103-3.749,1.381L188.45,223.064z"/>
					</g>
					<g>
						<path style="fill:#3D739C;" d="M186.644,235.938c0,0-0.034,2.598,1.446,3.387c1.54,0.82,3.894,1.76,2.265,3.22
							c-1.795,1.608-2.423-2.03-2.95-2.566c-0.527-0.536-1.945-2.087-3.452-1.634L186.644,235.938z"/>
					</g>
					<g>
						<path style="fill:#3D739C;" d="M182.209,239.132c0,0-1.439,2.164-0.623,3.629c0.848,1.524,2.315,3.592,0.155,3.934
							c-2.38,0.377-0.934-3.02-1.086-3.756c-0.152-0.736-0.501-2.808-2.013-3.246L182.209,239.132z"/>
					</g>
					<g>
						<path style="fill:#3D739C;" d="M174.319,218.438c0,0,1.185-2.313,0.209-3.676c-1.015-1.419-2.707-3.307-0.599-3.891
							c2.322-0.644,1.269,2.895,1.504,3.609c0.235,0.714,0.816,2.733,2.367,2.998L174.319,218.438z"/>
					</g>
					<g>
						<path style="fill:#3D739C;" d="M180.249,217.066c0,0,2.566-0.914,2.929-2.686c0.378-1.843,0.646-4.546,2.537-3.446
							c2.083,1.213-1.322,3.17-1.702,3.895c-0.38,0.725-1.511,2.712-0.645,4.058L180.249,217.066z"/>
					</g>
					<g>
						<path style="fill:#3D739C;" d="M188.356,233.614c0,0,0.286,1.959,1.477,2.241c1.239,0.293,3.095,0.506,2.063,1.944
							c-1.136,1.584-2.038-1.017-2.492-1.309c-0.455-0.292-1.541-1.063-2.603-0.407L188.356,233.614z"/>
					</g>
					<g>
						<path style="fill:#3D739C;" d="M185.365,219.983c0,0,2.591,0.227,3.411-1.202c0.853-1.487,1.844-3.784,3.264-2.038
							c1.564,1.924-2.079,2.285-2.626,2.776c-0.546,0.491-1.945,1.639-1.528,3.188L185.365,219.983z"/>
					</g>
					<g>
						<path style="fill:#3D739C;" d="M170.291,235.984c0,0-2.359,0.031-2.999,1.395c-0.666,1.419-1.4,3.58-2.807,2.135
							c-1.549-1.593,1.719-2.25,2.179-2.742c0.459-0.492,1.643-1.655,1.157-3.015L170.291,235.984z"/>
					</g>
					<g>
						<path style="fill:#3D739C;" d="M168.058,225.877c0,0-1.224-2.023-2.854-2.209c-1.696-0.193-4.137-0.246-3.465-1.845
							c0.74-1.761,3.025,0.877,3.729,1.141c0.704,0.264,2.417,0.971,3.472,0.188L168.058,225.877z"/>
					</g>
					<g>
						<path style="fill:#3D739C;" d="M169.48,232.448c0,0-2.596-1.31-4.36-0.386c-1.834,0.961-4.322,2.585-4.727,0.421
							c-0.447-2.383,3.631-1.148,4.516-1.352c0.885-0.204,3.084-0.629,3.614-2.189L169.48,232.448z"/>
					</g>
					<g>
						<path style="fill:#3D739C;" d="M171.065,220.926c0,0-0.147-2.868-1.806-3.912c-1.725-1.086-4.341-2.4-2.68-3.823
							c1.829-1.569,2.767,2.526,3.376,3.18c0.609,0.654,2.254,2.533,3.854,2.209L171.065,220.926z"/>
					</g>
					<g>
						<path style="fill:#3D739C;" d="M169.307,223.217c0,0-0.613-2.238-2.102-2.77c-1.549-0.554-3.84-1.132-2.777-2.547
							c1.172-1.559,2.62,1.508,3.214,1.917c0.594,0.409,2.021,1.469,3.227,0.932L169.307,223.217z"/>
					</g>
					<g>
						<path style="fill:#3D739C;" d="M178.179,239.969c0,0-1.392,0.923-1.179,1.933c0.222,1.051,0.727,2.544-0.742,2.273
							c-1.618-0.298,0.043-1.921,0.102-2.373c0.059-0.452,0.258-1.558-0.625-2.133L178.179,239.969z"/>
					</g>
					<g>
						<path style="fill:#3D739C;" d="M173.697,238.4c0,0-2.267,0.078-2.779,1.401c-0.532,1.376-1.072,3.467-2.536,2.107
							c-1.613-1.498,1.481-2.196,1.885-2.678c0.404-0.482,1.454-1.623,0.881-2.919L173.697,238.4z"/>
					</g>
					<g>
						<path style="fill:#3D739C;" d="M183.99,217.556c0,0,1.669-0.077,2.004-1.053c0.35-1.015,0.683-2.555,1.804-1.569
							c1.235,1.086-1.023,1.626-1.307,1.983c-0.283,0.358-1.021,1.204-0.559,2.151L183.99,217.556z"/>
					</g>
					<g>
						<path style="fill:#4F88B3;" d="M183.933,222.254c0.675-0.179,1.137-0.832,0.982-1.536l-0.024-0.11
							c-0.145-0.66-0.863-1.161-1.536-0.982c-0.675,0.179-1.137,0.832-0.982,1.536c0.008,0.037,0.016,0.074,0.024,0.11
							C182.542,221.932,183.26,222.433,183.933,222.254z"/>
					</g>
					<g>
						<path style="fill:#4F88B3;" d="M175.454,223.539c0.613-0.959-0.876-1.913-1.49-0.953
							C173.351,223.545,174.84,224.499,175.454,223.539z"/>
					</g>
					<g>
						<path style="fill:#4F88B3;" d="M182.2,237.683c0.613-0.959-0.877-1.913-1.491-0.953
							C180.096,237.69,181.586,238.644,182.2,237.683z"/>
					</g>
					<g>
						<path style="fill:#4F88B3;" d="M175.379,235.425c0.663,0.205,1.552,0.16,2.166-0.188c0.658-0.373,1.244-0.961,1.442-1.716
							c0.183-0.701,0.194-1.523-0.188-2.166c-0.037-0.062-0.073-0.123-0.11-0.185c-0.398-0.669-0.954-1.206-1.716-1.442
							c-0.663-0.205-1.552-0.16-2.166,0.188c-0.658,0.374-1.244,0.961-1.442,1.716c-0.183,0.701-0.194,1.523,0.188,2.166
							c0.037,0.062,0.073,0.123,0.11,0.185C174.061,234.653,174.618,235.19,175.379,235.425z"/>
					</g>
					<g>
						<path style="fill:#4F88B3;" d="M185.742,231.452c0.769-1.203-1.099-2.399-1.869-1.195
							C183.105,231.46,184.972,232.656,185.742,231.452z"/>
					</g>
					<g>
						<path style="fill:#4F88B3;" d="M171.332,227.468c0.769-1.203-1.099-2.399-1.869-1.195
							C168.694,227.476,170.562,228.672,171.332,227.468z"/>
					</g>
					<g>
						<path style="fill:#4F88B3;" d="M180.987,228.688c0.813-0.216,1.369-1.003,1.183-1.85c-0.01-0.044-0.019-0.089-0.029-0.133
							c-0.175-0.794-1.039-1.398-1.85-1.183c-0.813,0.216-1.369,1.003-1.183,1.85c0.01,0.044,0.02,0.089,0.029,0.133
							C179.312,228.299,180.176,228.903,180.987,228.688z"/>
					</g>
				</g>
			</g>
			<g>
				<g>
					<g>
						<path style="fill:#4F88B3;" d="M178.43,165.282c6.432-2.83,13.94,0.09,16.77,6.522c2.83,6.432-0.09,13.94-6.522,16.77
							c-6.432,2.83-13.94-0.09-16.77-6.522C169.078,175.62,171.998,168.112,178.43,165.282z"/>
					</g>
					<g>
						<path style="fill:#4F88B3;" d="M173.79,182.894c0,0-2.407-0.54-3.724,0.554c-1.37,1.137-3.173,2.938-3.891,1.277
							c-0.791-1.829,2.845-1.644,3.552-1.984c0.707-0.339,2.477-1.118,2.649-2.479L173.79,182.894z"/>
					</g>
					<g>
						<path style="fill:#4F88B3;" d="M180.403,187.885c0,0-2.976,0.041-3.914,1.753c-0.976,1.781-2.108,4.495-3.742,2.682
							c-1.8-1.997,2.382-2.826,3.009-3.444c0.626-0.618,2.23-2.079,1.747-3.784L180.403,187.885z"/>
					</g>
					<g>
						<path style="fill:#4F88B3;" d="M172.239,177.055c0,0-1.891-1.942-3.565-1.432c-1.741,0.531-4.171,1.574-4.046-0.705
							c0.138-2.51,3.285-0.29,4.069-0.284c0.785,0.006,2.974,0.105,3.753-1.341L172.239,177.055z"/>
					</g>
					<g>
						<path style="fill:#4F88B3;" d="M173.154,171.427c0,0-0.535-2.658-2.217-3.137c-1.75-0.499-4.358-0.941-3.016-2.788
							c1.478-2.034,2.916,1.539,3.572,1.97c0.656,0.431,2.441,1.702,3.88,0.91L173.154,171.427z"/>
					</g>
					<g>
						<path style="fill:#4F88B3;" d="M194.24,180.873c0,0,0.832,2.58,2.558,2.866c1.796,0.297,4.436,0.442,3.312,2.428
							c-1.238,2.188-3.072-1.199-3.772-1.553c-0.7-0.354-2.618-1.415-3.958-0.465L194.24,180.873z"/>
					</g>
					<g>
						<path style="fill:#4F88B3;" d="M190.878,186.259c0,0-1.219,2.567-0.179,4.142c1.081,1.638,2.877,3.831,0.671,4.413
							c-2.431,0.642-1.364-3.313-1.618-4.128c-0.254-0.815-0.886-3.115-2.518-3.47L190.878,186.259z"/>
					</g>
					<g>
						<path style="fill:#4F88B3;" d="M172.69,180.032c0,0-1.656-1.234-2.742-0.564c-1.13,0.697-2.656,1.91-2.956,0.088
							c-0.331-2.007,2.253-0.753,2.804-0.873c0.551-0.12,1.921-0.352,2.221-1.62L172.69,180.032z"/>
					</g>
					<g>
						<path style="fill:#4F88B3;" d="M184.953,187.881c0,0-2.079,1.744-1.63,3.404c0.468,1.726,1.431,4.152-0.904,3.911
							c-2.573-0.265-0.152-3.22-0.111-3.985c0.041-0.765,0.226-2.644-1.225-3.479L184.953,187.881z"/>
					</g>
					<g>
						<path style="fill:#4F88B3;" d="M184.268,164.957c0,0,1.717-1.763,1.184-3.242c-0.555-1.538-1.608-3.674,0.496-3.646
							c2.318,0.032,0.392,2.928,0.416,3.63c0.024,0.702,0.009,2.433,1.37,3.077L184.268,164.957z"/>
					</g>
					<g>
						<path style="fill:#4F88B3;" d="M193.372,170.766c0,0,2.395,0.59,3.735-0.476c1.394-1.109,3.234-2.871,3.917-1.196
							c0.753,1.846-2.878,1.585-3.592,1.909s-2.5,1.066-2.7,2.423L193.372,170.766z"/>
					</g>
					<g>
						<path style="fill:#4F88B3;" d="M187.475,166.967c0,0,2.882-0.949,3.501-2.931c0.644-2.062,1.281-5.095,3.176-3.798
							c2.088,1.429-1.832,3.526-2.334,4.329c-0.503,0.803-1.811,2.739-1.052,4.281L187.475,166.967z"/>
					</g>
					<g>
						<path style="fill:#4F88B3;" d="M194.806,176.636c0,0,2.224,2.008,4.218,1.554c2.074-0.472,4.972-1.432,4.798,0.843
							c-0.192,2.507-3.905,0.178-4.837,0.145c-0.932-0.033-3.531-0.206-4.473,1.214L194.806,176.636z"/>
					</g>
					<g>
						<path style="fill:#4F88B3;" d="M194.412,173.649c0,0,2.102,1.199,3.594,0.493c1.552-0.734,3.668-1.998,3.927-0.169
							c0.286,2.014-3.045,0.821-3.785,0.957c-0.74,0.136-2.574,0.408-3.068,1.693L194.412,173.649z"/>
					</g>
					<g>
						<path style="fill:#4F88B3;" d="M175.51,167.837c0,0,0.346-1.708-0.556-2.296c-0.939-0.612-2.412-1.34-1.13-2.224
							c1.413-0.974,1.385,1.449,1.675,1.826c0.29,0.377,0.959,1.34,2.035,1.113L175.51,167.837z"/>
					</g>
					<g>
						<path style="fill:#4F88B3;" d="M179.973,165.688c0,0,1.615-1.73,1.017-3.083c-0.623-1.408-1.767-3.349,0.317-3.426
							c2.295-0.085,0.527,2.712,0.585,3.366s0.125,2.27,1.503,2.803L179.973,165.688z"/>
					</g>
					<g>
						<path style="fill:#4F88B3;" d="M187.756,188.658c0,0-1.174,1.287-0.702,2.255c0.491,1.007,1.381,2.389-0.173,2.489
							c-1.713,0.11-0.444-1.954-0.499-2.427c-0.055-0.473-0.135-1.642-1.174-1.999L187.756,188.658z"/>
					</g>
					<g>
						<path style="fill:#5593C2;" d="M184.333,185.15c-0.366,0.63-0.225,1.453,0.409,1.857l0.099,0.063
							c0.594,0.379,1.493,0.22,1.857-0.409c0.366-0.63,0.225-1.453-0.409-1.858c-0.033-0.021-0.066-0.042-0.099-0.063
							C185.596,184.361,184.697,184.521,184.333,185.15z"/>
					</g>
					<g>
						<path style="fill:#5593C2;" d="M189.64,177.947c0.255,1.16,2.058,0.765,1.802-0.397
							C191.187,176.391,189.384,176.786,189.64,177.947z"/>
					</g>
					<g>
						<path style="fill:#5593C2;" d="M174.229,172.489c0.255,1.16,2.058,0.765,1.802-0.397
							C175.776,170.932,173.973,171.327,174.229,172.489z"/>
					</g>
					<g>
						<path style="fill:#5593C2;" d="M180.927,169.123c-0.64,0.338-1.263,1.027-1.459,1.737c-0.21,0.761-0.209,1.627,0.202,2.329
							c0.382,0.652,0.98,1.266,1.737,1.459c0.072,0.018,0.145,0.037,0.218,0.055c0.787,0.2,1.594,0.186,2.329-0.202
							c0.64-0.338,1.263-1.027,1.459-1.737c0.21-0.761,0.209-1.627-0.202-2.329c-0.382-0.652-0.98-1.266-1.737-1.459
							c-0.072-0.019-0.145-0.037-0.217-0.055C182.469,168.721,181.662,168.735,180.927,169.123z"/>
					</g>
					<g>
						<path style="fill:#5593C2;" d="M176.213,179.699c0.32,1.454,2.581,0.959,2.26-0.498
							C178.153,177.748,175.892,178.243,176.213,179.699z"/>
					</g>
					<g>
						<path style="fill:#5593C2;" d="M189.783,172.008c0.32,1.454,2.581,0.959,2.26-0.498
							C191.723,170.056,189.462,170.551,189.783,172.008z"/>
					</g>
					<g>
						<path style="fill:#5593C2;" d="M181.76,178.23c-0.441,0.759-0.27,1.75,0.493,2.237c0.04,0.025,0.08,0.051,0.12,0.076
							c0.715,0.457,1.798,0.264,2.237-0.493c0.441-0.759,0.27-1.75-0.493-2.237c-0.04-0.025-0.08-0.051-0.12-0.077
							C183.283,177.281,182.199,177.473,181.76,178.23z"/>
					</g>
				</g>
			</g>
			<path style="fill:#3D739C;" d="M208.61,248.421c0,2.654-2.152,4.806-4.806,4.806s-4.806-2.152-4.806-4.806
				s2.152-4.806,4.806-4.806S208.61,245.766,208.61,248.421z"/>
			<path style="fill:#3D739C;" d="M258.262,143.388c0,1.874-1.519,3.394-3.394,3.394c-1.874,0-3.394-1.519-3.394-3.394
				c0-1.874,1.519-3.393,3.394-3.393C256.742,139.994,258.262,141.514,258.262,143.388z"/>
			<circle style="fill:#5593C2;" cx="158.182" cy="201.736" r="5.888"/>
			<path style="fill:#4F88B3;" d="M186.897,257.388c2.207,0,3.997,1.789,3.997,3.997c0,2.207-1.789,3.997-3.997,3.997
				c-2.207,0-3.997-1.789-3.997-3.997C182.9,259.178,184.69,257.388,186.897,257.388z"/>
			<path style="fill:#5593C2;" d="M229.472,148.333c1.492,0,2.702,1.21,2.702,2.702c0,1.492-1.21,2.702-2.702,2.702
				c-1.493,0-2.703-1.21-2.703-2.702C226.769,149.543,227.979,148.333,229.472,148.333z"/>
			<path style="fill:#5593C2;" d="M251.974,164.988c2.207,0,3.997,1.789,3.997,3.997c0,2.207-1.789,3.997-3.997,3.997
				c-2.207,0-3.997-1.789-3.997-3.997C247.977,166.778,249.767,164.988,251.974,164.988z"/>
		</g>
		<g>
			<g>
				<rect x="135.47" y="114.196" style="opacity:0.2;fill:#FEFEFE;" width="136.79" height="175.978"/>
				<polygon style="opacity:0.3;fill:#FFFFFF;" points="272.633,177.438 135.47,249.521 135.47,185.826 272.633,113.743 				"/>
				<polygon style="opacity:0.3;fill:#FFFFFF;" points="272.633,233.172 135.47,305.255 135.47,286.841 272.633,214.758 				"/>
				<rect x="116.779" y="316.258" style="fill:#FFFFFF;" width="174.171" height="141.536"/>
				<rect x="116.779" y="316.258" style="fill:#E1EDFF;" width="31.349" height="141.536"/>
				<rect x="121.421" style="fill:#FFFFFF;" width="159.711" height="102.745"/>
				<rect x="121.421" style="fill:#E1EDFF;" width="24.426" height="102.745"/>
				<rect x="121.421" y="83.141" style="fill:#192157;" width="159.711" height="3.697"/>
				<rect x="116.779" y="348.483" style="fill:#192157;" width="174.171" height="3.697"/>
				<rect x="135.47" y="102.745" style="fill:#28378F;" width="136.79" height="11.45"/>
				<rect x="153.035" y="102.745" style="opacity:0.1;fill:#FFFFFF;" width="58.222" height="11.45"/>
				<rect x="226.757" y="102.745" style="opacity:0.1;fill:#FFFFFF;" width="20.976" height="11.45"/>
				<polygon style="fill:#E1EDFF;" points="290.95,316.258 116.779,316.258 135.47,290.523 272.26,290.523 				"/>
				<rect x="239.353" y="65.395" style="fill:#E1EDFF;" width="8.38" height="8.38"/>
				<rect x="253.4" y="65.395" style="fill:#28378F;" width="8.38" height="8.38"/>
			</g>
			<g>
				<polygon style="fill:#E1EDFF;" points="216.099,308.78 248.778,274.966 251.649,308.78 				"/>
				<polygon style="fill:#F2F7FF;" points="227.472,308.78 250.217,285.245 252.215,308.78 				"/>
				<g>
					<path style="fill:#192157;" d="M248.923,321.714h95.737c1.962,0,3.418-1.591,3.251-3.553l-5.44-64.085
						c-0.166-1.962-1.892-3.553-3.854-3.553H242.88c-1.962,0-3.418,1.591-3.251,3.553l5.44,64.085
						C245.235,320.124,246.961,321.714,248.923,321.714z"/>
					<path style="fill:#28378F;" d="M252.513,321.714h95.737c1.962,0,3.418-1.591,3.251-3.553l-5.44-64.085
						c-0.167-1.962-1.892-3.553-3.855-3.553H246.47c-1.962,0-3.418,1.591-3.251,3.553l5.44,64.085
						C248.825,320.124,250.551,321.714,252.513,321.714z"/>
					<path style="fill:#192157;" d="M254.924,318.683h90.313c1.962,0,3.418-1.591,3.251-3.553l-4.98-58.661
						c-0.167-1.962-1.892-3.553-3.855-3.553h-90.313c-1.962,0-3.418,1.591-3.251,3.553l4.98,58.661
						C251.236,317.092,252.962,318.683,254.924,318.683z"/>
					<g>
						<rect x="279.571" y="303.111" style="fill:#FFFFFF;" width="3.973" height="3.973"/>
						<rect x="290.416" y="303.111" style="fill:#AFDDFF;" width="3.973" height="3.973"/>
						<rect x="301.261" y="303.111" style="fill:#FFFFFF;" width="3.973" height="3.973"/>
						<rect x="312.106" y="303.111" style="fill:#FFFFFF;" width="3.973" height="3.973"/>
						<rect x="322.952" y="303.111" style="fill:#FFFFFF;" width="3.973" height="3.973"/>
					</g>
					<path style="fill:#519FD6;" d="M318.941,264.442h14.262c1.074,0,1.953-0.879,1.953-1.953l0,0c0-1.074-0.879-1.953-1.953-1.953
						h-14.262c-1.074,0-1.953,0.879-1.953,1.953l0,0C316.988,263.563,317.867,264.442,318.941,264.442z"/>
					<path style="fill:#519FD6;" d="M328.025,272.423h5.178c1.074,0,1.953-0.879,1.953-1.953l0,0c0-1.074-0.879-1.953-1.953-1.953
						h-5.178c-1.074,0-1.953,0.879-1.953,1.953l0,0C326.072,271.545,326.951,272.423,328.025,272.423z"/>
					<g>
						<circle style="fill:#FFFFFF;" cx="268.663" cy="271.732" r="13.949"/>
						<circle style="fill:#FF82A1;" cx="261.755" cy="268.806" r="1.09"/>
						<path style="fill:none;stroke:#C2ECFF;stroke-width:0.5;stroke-miterlimit:10;" d="M265.667,270.203
							c0,1.08-0.876,1.956-1.956,1.956c-1.08,0-1.956-0.876-1.956-1.956s0.876-1.956,1.956-1.956
							C264.792,268.247,265.667,269.122,265.667,270.203z"/>
						<path style="fill:none;stroke:#C2ECFF;stroke-width:0.5;stroke-miterlimit:10;" d="M272.541,276.775
							c0,0.414-0.335,0.749-0.749,0.749c-0.414,0-0.749-0.335-0.749-0.749c0-0.414,0.335-0.749,0.749-0.749
							C272.205,276.026,272.541,276.361,272.541,276.775z"/>
						<path style="fill:none;stroke:#C2ECFF;stroke-width:0.5;stroke-miterlimit:10;" d="M263.594,263.357
							c0,0.413-0.335,0.749-0.749,0.749c-0.413,0-0.749-0.335-0.749-0.749c0-0.414,0.335-0.749,0.749-0.749
							C263.258,262.608,263.594,262.944,263.594,263.357z"/>
						<circle style="fill:#FF82A1;" cx="265.406" cy="278.309" r="1.236"/>
						<circle style="fill:#FF82A1;" cx="276.415" cy="269.525" r="3.045"/>
						<path style="fill:#FF82A1;" d="M268.141,265.392c0,0.601-0.487,1.088-1.088,1.088c-0.601,0-1.088-0.487-1.088-1.088
							c0-0.601,0.487-1.088,1.088-1.088C267.654,264.304,268.141,264.791,268.141,265.392z"/>
						<path style="fill:none;stroke:#FF82A1;stroke-width:0.5;stroke-miterlimit:10;" d="M272.63,281.798
							c0,0.876-0.711,1.587-1.587,1.587s-1.587-0.711-1.587-1.587s0.711-1.587,1.587-1.587S272.63,280.922,272.63,281.798z"/>
						<circle style="fill:#C2ECFF;" cx="270.376" cy="268.806" r="0.544"/>
						<path style="fill:#C2ECFF;" d="M278.269,277.916c0,0.217-0.176,0.393-0.393,0.393c-0.217,0-0.393-0.176-0.393-0.393
							c0-0.217,0.176-0.393,0.393-0.393C278.093,277.524,278.269,277.699,278.269,277.916z"/>
						<path style="fill:#C2ECFF;" d="M267.858,273.658c0,0.444-0.36,0.805-0.805,0.805c-0.444,0-0.805-0.36-0.805-0.805
							c0-0.444,0.36-0.805,0.805-0.805C267.498,272.853,267.858,273.213,267.858,273.658z"/>
						<path style="fill:#C2ECFF;" d="M259.456,276.026c0,0.3-0.243,0.544-0.544,0.544c-0.3,0-0.544-0.244-0.544-0.544
							c0-0.301,0.244-0.544,0.544-0.544C259.212,275.482,259.456,275.725,259.456,276.026z"/>
						<path style="fill:none;stroke:#C2ECFF;stroke-width:0.5;stroke-miterlimit:10;" d="M275.266,262.608
							c0,0.335-0.272,0.607-0.607,0.607s-0.607-0.272-0.607-0.607c0-0.335,0.272-0.607,0.607-0.607S275.266,262.273,275.266,262.608
							z"/>
						<path style="fill:#C2ECFF;" d="M275.82,272.48c0,0.677-0.549,1.225-1.225,1.225c-0.677,0-1.225-0.548-1.225-1.225
							c0-0.676,0.548-1.225,1.225-1.225C275.272,271.255,275.82,271.804,275.82,272.48z"/>
					</g>
					<path style="fill:#519FD6;" d="M339.78,279.845l-7.894,0.162c-4.476,0.092-8.825,1.506-12.5,4.063l-0.147,0.102
						c-1.64,1.141-3.711,1.47-5.624,0.894L313,284.882c-1.512-0.456-3.131-0.413-4.616,0.123l-7.839,2.825
						c-1.328,0.478-2.753,0.619-4.149,0.409l-3.198-0.481c-1.673-0.252-3.378-0.194-5.03,0.17l-16.57,3.654
						c-1.03,0.227-2.098,0.22-3.125-0.02l0,0c-2.081-0.487-4.239-0.556-6.347-0.203l-7.734,1.296v2.158h85.388L339.78,279.845z"/>
					<path style="fill:#AFDDFF;" d="M316.587,287.861l-4.256,1.425c-3.027,1.014-6.235,1.377-9.412,1.067l-3.893-0.38
						c-5.2-0.508-10.445-0.314-15.594,0.576l-13.137,2.27c-2.056,0.355-4.139,0.53-6.225,0.523l-9.677-0.033v1.503h85.388V284.18
						l-15.364,1.904C321.754,286.414,319.131,287.009,316.587,287.861z"/>
					<g>
						
							<line style="fill:none;stroke:#FFFFFF;stroke-width:0.25;stroke-miterlimit:10;" x1="282.536" y1="281.4" x2="282.536" y2="294.813"/>
						
							<line style="fill:none;stroke:#FFFFFF;stroke-width:0.25;stroke-miterlimit:10;" x1="311.636" y1="281.4" x2="311.636" y2="294.813"/>
					</g>
					<polygon style="opacity:0.1;fill:#FFFFFF;" points="290.977,252.879 261.693,252.879 267.279,318.683 296.563,318.683 					"/>
					<polygon style="opacity:0.1;fill:#FFFFFF;" points="320.486,252.879 304.698,252.879 310.284,318.683 326.072,318.683 					"/>
				</g>
			</g>
		</g>
	</g>
	<g>
		<g>
			<g>
				<path style="fill:#231B26;" d="M375.051,445.235c0,0-4.066,4.027-13.772,4.225c-7.439,0.152-12.551,7.532-8.555,8.198
					c1.822,0.304,43.474,0,43.474,0s2.429-5.769,0-9.413L375.051,445.235z"/>
				<path style="fill:none;stroke:#0D0000;stroke-miterlimit:10;" d="M361.877,449.442c0,0,1.451,2.863,5.854,2.313
					c4.403-0.55,11.311-6.038,11.311-6.038"/>
			</g>
			<g>
				<path style="fill:#231B26;" d="M442.095,445.235c0,0,4.066,4.027,13.772,4.225c7.439,0.152,12.551,7.532,8.555,8.198
					c-1.822,0.304-43.474,0-43.474,0s-2.429-5.769,0-9.413L442.095,445.235z"/>
				<path style="fill:none;stroke:#0D0000;stroke-miterlimit:10;" d="M455.269,449.442c0,0-1.451,2.863-5.854,2.313
					c-4.403-0.55-11.311-6.038-11.311-6.038"/>
			</g>
			<g>
				<polygon style="fill:#413147;" points="364.894,313.768 379.806,445.481 397.752,455.687 391.126,309.929 				"/>
				<path style="fill:#4D3A54;" d="M382.915,389.471c-0.098-1.806-7.071-3.243-7.602-1.351c-0.531,1.892,0.418,4.324,2.376,4.729
					C379.645,393.254,382.996,390.957,382.915,389.471z"/>
				<line style="fill:none;stroke:#0D0000;stroke-miterlimit:10;" x1="384.551" y1="310.891" x2="392.833" y2="443.356"/>
				<polygon style="fill:#413147;" points="397.752,455.687 397.277,445.235 376.068,436.269 375.051,445.235 				"/>
				<line style="fill:none;stroke:#0D0000;stroke-miterlimit:10;" x1="378.898" y1="437.465" x2="397.277" y2="445.235"/>
			</g>
			<g>
				<polygon style="fill:#413147;" points="393.603,313.768 419.368,455.687 438.33,446.899 419.651,309.929 				"/>
				<path style="fill:#4D3A54;" d="M419.869,389.471c0.098-1.806,7.071-3.243,7.602-1.351s-0.418,4.324-2.376,4.729
					C423.138,393.254,419.788,390.957,419.869,389.471z"/>
				<polygon style="fill:#413147;" points="419.365,455.687 417.835,446.083 440.35,436.564 442.066,445.235 				"/>
				<line style="fill:none;stroke:#0D0000;stroke-miterlimit:10;" x1="417.835" y1="446.083" x2="437.107" y2="437.935"/>
				<line style="fill:none;stroke:#0D0000;stroke-miterlimit:10;" x1="397.954" y1="313.127" x2="423.635" y2="443.631"/>
			</g>
			<polygon style="fill:#413147;" points="364.894,313.768 419.651,309.929 425.096,349.853 369.153,351.389 			"/>
			<line style="fill:none;stroke:#0D0000;stroke-miterlimit:10;" x1="374.281" y1="329.048" x2="368.093" y2="342.022"/>
			<line style="fill:none;stroke:#0D0000;stroke-miterlimit:10;" x1="423.834" y1="340.603" x2="412.911" y2="329.048"/>
			<polyline style="fill:none;stroke:#0D0000;stroke-miterlimit:10;" points="389.711,317.263 389.711,335.125 399.259,335.125 			
				"/>
			<line style="fill:none;stroke:#0D0000;stroke-miterlimit:10;" x1="395.778" y1="317.263" x2="394.995" y2="350.658"/>
			
				<line style="fill:none;stroke:#454859;stroke-width:0.5;stroke-miterlimit:10;" x1="365.711" y1="322.341" x2="421.344" y2="322.341"/>
			<line style="fill:none;stroke:#0D0000;stroke-miterlimit:10;" x1="383.886" y1="350.984" x2="407.67" y2="350.331"/>
		</g>
		<path style="fill:#FFFFFF;" d="M365.497,221.046c-7.46,4.373-11.231,10.674-14.658,18.768
			c-3.715,8.776-11.454,38.388-11.454,40.709c0,2.322,6.502,7.585,11.553,7.831c4.861,0.237,24.281-37.931,24.281-37.931
			L365.497,221.046z"/>
		<path style="fill:#441B15;" d="M384.207,192.451c0,0-3.254-7.96-3.392-9.126c-0.169-1.419,0.856-2.094,0.856-2.094
			s-0.451-2.512,0.104-3.413c0.555-0.901,2.384-0.201,2.384-0.201s-1.112-2.761,1.971-5.305c2.302-1.9,8.217-2.187,11.361,0
			c3.145,2.187,7.364,2.303,9.514,3.108c2.15,0.806-2.482,16.463-2.482,16.463L384.207,192.451z"/>
		<path style="fill:#B56355;" d="M386.898,190.791c0,0-3.636-2.475-4.473,0.497c-0.713,2.53,2.711,3.795,4.473,2.169V190.791z"/>
		<path style="fill:#C66D5D;" d="M402.117,193.442l0.526,18.42c0,0-5.593,4.145-14.58,0l0-18.407L402.117,193.442z"/>
		<path style="fill:#0D0000;" d="M388.063,209.094c0,0,8.777,2.143,11.681-5.997l0.272-9.653l-11.953,0.011V209.094z"/>
		<path style="fill:#C66D5D;" d="M392.751,180.526c0,0,8.75-0.806,8.75,5.756c0,2.65-0.461,12.088-0.691,14.161
			c-0.23,2.072-1.957,5.411-8.059,5.411c-6.102,0-7.829-3.339-8.059-5.411c-0.23-2.072-0.691-11.51-0.691-14.161
			C384.002,179.72,392.751,180.526,392.751,180.526z"/>
		<path style="fill:none;stroke:#0D0000;stroke-width:0.5;stroke-miterlimit:10;" d="M393.111,191.684c0,0-2.214,3.757-2.33,4.635
			c-0.115,0.878,2.527,0.811,2.527,0.811"/>
		<path style="fill:#C66D5D;" d="M400.797,190.791c0,0,3.635-2.475,4.473,0.497c0.713,2.53-2.711,3.795-4.473,2.169V190.791z"/>
		
			<line style="fill:none;stroke:#0D0000;stroke-width:0.5;stroke-miterlimit:10;" x1="402.093" y1="192.451" x2="404.07" y2="190.704"/>
		
			<line style="fill:none;stroke:#0D0000;stroke-width:0.5;stroke-miterlimit:10;" x1="403.082" y1="191.723" x2="403.665" y2="192.257"/>
		<path style="fill:none;stroke:#0D0000;stroke-width:0.5;stroke-miterlimit:10;" d="M384.014,193.111"/>
		<path style="fill:none;stroke:#0D0000;stroke-width:0.5;stroke-miterlimit:10;" d="M381.89,190.897"/>
		<path style="fill:none;stroke:#0D0000;stroke-width:0.5;stroke-miterlimit:10;" d="M383.076,192.134"/>
		<g>
			<g>
				<g>
					<g>
						<g>
							<g>
								<path style="fill:#0D0000;" d="M395.113,192.643c-0.001,0.441,0.193,0.798,0.433,0.799c0.24,0.001,0.436-0.356,0.437-0.797
									c0.001-0.441-0.193-0.798-0.433-0.799C395.31,191.845,395.114,192.202,395.113,192.643z"/>
							</g>
						</g>
					</g>
				</g>
			</g>
			<g>
				<g>
					<g>
						<g>
							<g>
								<path style="fill:#0D0000;" d="M390.085,192.643c0.001,0.441-0.193,0.798-0.433,0.799c-0.24,0.001-0.436-0.356-0.437-0.797
									c-0.001-0.441,0.193-0.798,0.433-0.799C389.888,191.845,390.084,192.202,390.085,192.643z"/>
							</g>
						</g>
					</g>
				</g>
			</g>
		</g>
		<path style="fill:#441B15;" d="M397.862,189.579c0.053-0.492-3.191-0.67-3.082,0.069
			C394.888,190.387,397.793,190.221,397.862,189.579z"/>
		<path style="fill:#441B15;" d="M387.337,189.579c-0.053-0.492,3.191-0.67,3.082,0.069
			C390.31,190.387,387.405,190.221,387.337,189.579z"/>
		<ellipse style="fill:#B65E5A;" cx="397.858" cy="196.229" rx="2.158" ry="1.234"/>
		<ellipse style="fill:#B65E5A;" cx="387.645" cy="196.229" rx="2.158" ry="1.234"/>
		<path style="fill:#441B15;" d="M385.201,180.625c0,0,1.849,6.302,5.734,6.673c3.886,0.37,7.011-7.077,11.73-3.545
			c0,0-2.244-7.837-9.892-7.837C385.127,175.916,385.201,180.625,385.201,180.625z"/>
		<path style="fill:#FFFFFF;" d="M402.643,211.862c0,0,13.73,6.43,17.828,10.271c4.097,3.841,1.768,25.607,1.768,25.607
			l-1.775,48.988l7.519,35.513h-64.094l0.173-84.501c0,0-0.485-23.161,1.048-26.127c1.928-3.731,23.223-9.751,23.223-9.751H402.643z
			"/>
		<polygon style="fill:#3F5587;" points="402.643,211.862 392.938,272.052 387.794,211.862 		"/>
		<polygon style="fill:#FF904A;" points="389.148,241.957 392.188,217.989 390.293,214.749 393.934,211.862 397.232,214.722 
			395.583,218.144 397.737,242.287 392.938,272.052 		"/>
		<polygon style="fill:#49639C;" points="402.643,211.862 393.934,211.862 399.111,216.351 		"/>
		<polygon style="fill:#49639C;" points="393.934,211.862 388.063,211.862 388.879,216.351 		"/>
		<polyline style="fill:none;stroke:#0D0000;stroke-miterlimit:10;" points="410.658,215.764 410.658,225.724 405.268,227.805 
			409.138,231.365 392.938,272.052 		"/>
		<polyline style="fill:none;stroke:#0D0000;stroke-miterlimit:10;" points="375.458,216.059 375.218,225.724 380.608,227.805 
			376.738,231.365 392.938,272.052 		"/>
		<rect x="365.603" y="250.424" style="fill:#D8DEE5;" width="11.609" height="3.599"/>
		<path style="fill:#31435F;" d="M373.497,250.424c0,0,0-6.791-1.335-6.791c-1.161,0-1.161,6.791-1.161,6.791H373.497z"/>
		<path style="fill:#31435F;" d="M372.743,246.418h0.626c1.039,0,1.9,0.808,1.966,1.845l0.484,7.674h-0.383
			c-0.506,0-0.928-0.387-0.972-0.891l-0.561-6.423h-1.161V246.418z"/>
		<path style="fill:#E85B41;" d="M369.666,250.424l0.232-8.467c0,0-2.032-0.456-2.264,0v8.467H369.666z"/>
		<path style="fill:#C66D5D;" d="M340.213,278.565c-2.509,10.227,30.845,30.209,30.845,30.209l3.677-4.039l-17.419-28.188
			C357.317,276.547,342.885,267.677,340.213,278.565z"/>
		<path style="fill:#C66D5D;" d="M381.973,308.774c0,0-2.243-3.578-2.94-3.81c-0.697-0.232-4.297-0.229-4.297-0.229l-3.677,4.039
			c0,0,0.605,2.944,2.439,4.685L381.973,308.774z"/>
		<line style="fill:none;stroke:#0D0000;stroke-miterlimit:10;" x1="393.442" y1="332.242" x2="392.938" y2="272.052"/>
		<path style="fill:none;stroke:#0D0000;stroke-miterlimit:10;" d="M345.454,270.65c8.948-0.967,11.863,5.897,11.863,5.897"/>
		<path style="fill:none;stroke:#0D0000;stroke-miterlimit:10;" d="M360.7,276.547c0,0-0.75-6.504-6.835-8.67"/>
		<polygon style="fill:#D8DEE5;" points="371.058,314.549 383.024,307.55 384.504,309.914 371.91,316.908 		"/>
		<polygon style="fill:#D8DEE5;" points="416.089,314.549 404.122,307.55 402.643,309.914 415.236,316.908 		"/>
		<path style="fill:#F4F4F4;" d="M397.018,200.432c0,0-4.589-0.618-8.139,0c0,0,0.629,2.766,1.539,3.16
			c0.91,0.393,4.547,0.533,5.117,0C396.105,203.059,397.018,200.432,397.018,200.432z"/>
		<path style="fill:#FFFFFF;" d="M418.295,221.046c7.46,4.373,11.231,10.674,14.657,18.768c3.715,8.776,11.454,38.388,11.454,40.709
			c0,2.322-6.502,7.585-11.553,7.831c-4.861,0.237-24.281-37.931-24.281-37.931L418.295,221.046z"/>
		<path style="fill:none;stroke:#0D0000;stroke-miterlimit:10;" d="M419.202,231.331c0,0-4.564,6.217-4.027,10.424
			s10.335,27.357,10.335,27.357"/>
		<path style="fill:none;stroke:#0D0000;stroke-miterlimit:10;" d="M440.082,269.111c0,0-6.195-7.337-12.1-5.369"/>
		<path style="fill:none;stroke:#0D0000;stroke-miterlimit:10;" d="M434.032,260.291c0,0-4.56-0.665-7.542,1.841"/>
		<path style="fill:#C66D5D;" d="M402.157,250.189c0,0-1.344-1.678-1.948-1.879c-0.604-0.201-5.093-0.693-5.093-0.693l0.919,2.572
			H402.157z"/>
		<polygon style="fill:#AFDDFF;" points="394.427,239.304 407.729,276.547 384.356,275.597 369.915,239.304 		"/>
		<polygon style="fill:#519FD6;" points="392.147,239.304 405.449,276.547 382.076,275.597 367.635,239.304 		"/>
		<path style="fill:#C66D5D;" d="M436.132,286.565c-9.558,4.419-35.55-24.499-35.55-24.499l3.261-4.382l30.999,11.707
			C434.842,269.392,446.309,281.861,436.132,286.565z"/>
		<path style="fill:#C66D5D;" d="M403.844,257.685c0,0-1.254-5.599-1.51-7.171c-0.256-1.572-8.357-2.171-8.816-1.532
			c-0.459,0.639,0.944,2.118,0.944,2.118s-1.109,0.847-0.807,1.432c0.302,0.584,1.041,0.835,1.041,0.835s-1.677,0.43-1.383,1.162
			c0.294,0.733,3.848,1.234,3.848,1.234s0.091,6.277,3.422,6.305L403.844,257.685z"/>
		<path style="fill:none;stroke:#0D0000;stroke-miterlimit:10;" d="M397.737,248.903c0,0,1.558,0.102,2.598,0.448"/>
		<path style="fill:none;stroke:#0D0000;stroke-miterlimit:10;" d="M364.819,269.62c0,0-1.293-25.835-0.831-35.202"/>
		<path style="fill:none;stroke:#0D0000;stroke-miterlimit:10;" d="M359.205,246.418c0,0,2.915,5.537,5.148,9.52"/>
		<path style="fill:none;stroke:#0D0000;stroke-miterlimit:10;" d="M422.055,264.563c0,0,2.3,3.566,0.842,5.994"/>
		<path style="fill:none;stroke:#0D0000;stroke-miterlimit:10;" d="M418.995,263.407c0,0,1.314,2.665,0,4.153"/>
		<path style="fill:none;stroke:#0D0000;stroke-miterlimit:10;" d="M360.7,289.091c0,0-4.046,0.878-4.762,3.034"/>
		<path style="fill:none;stroke:#0D0000;stroke-miterlimit:10;" d="M357.283,285.333c0,0-4.207,0.676-4.744,3.022"/>
		<line style="fill:none;stroke:#0D0000;stroke-miterlimit:10;" x1="420.463" y1="296.729" x2="415.967" y2="285.333"/>
	</g>
	<g>
		<polyline style="fill:none;stroke:#FFFFFF;stroke-width:0.25;stroke-miterlimit:10;" points="246.635,262.303 270.114,262.303 
			278.165,273.129 		"/>
		<circle style="fill:#FFFFFF;" cx="278.165" cy="273.129" r="1.767"/>
		<circle style="fill:#FFFFFF;" cx="246.635" cy="262.303" r="1.767"/>
	</g>
	<g>
		<path style="fill:#C66D5D;" d="M151.644,210.061c0,0-7.634-5.828-8.228-5.565c-0.789,0.348-0.961,2.67,3.601,5.575
			L151.644,210.061z"/>
		<path style="fill:#C66D5D;" d="M152.08,226.171l-0.69-7.847c0,0,0.527-5.8,0.391-8.041c-0.068-1.125-10.434-2.648-10.547-1.456
			c-0.515,5.423,5.293,6.258,5.293,6.258l-0.604,10.995C145.924,226.08,149.46,229.325,152.08,226.171z"/>
		<path style="fill:#FFFFFF;" d="M85.217,233.639c0,0,7.532,0.239,11.344,1.411c3.812,1.172,36.52,7.586,36.52,7.586l13.703-26.318
			l8.684,2.745c0,0-14.562,35.425-18.412,37.54c-3.851,2.115-51.323-5.906-51.323-5.906L85.217,233.639z"/>
		<g>
			<path style="fill:#EBEAE8;" d="M146.17,226.304L146.17,226.304c1.532-0.355,2.485-1.885,2.13-3.417l-4.448-19.167l-5.547,1.287
				l4.448,19.167C143.109,225.706,144.638,226.66,146.17,226.304z"/>
			<path style="fill:#F66C7E;" d="M145.828,224.828L145.828,224.828c0.828-0.192,1.343-1.019,1.151-1.846l-1.856-7.995l-2.997,0.696
				l1.856,7.996C144.173,224.505,145,225.02,145.828,224.828z"/>
			
				<rect x="137.043" y="202.085" transform="matrix(-0.9741 0.2261 -0.2261 -0.9741 323.9543 369.3766)" style="fill:#EBEAE8;" width="7.567" height="2.307"/>
		</g>
		<path style="fill:#C66D5D;" d="M146.625,208.7c0,0-6.418-0.937-6.522,0.209c-0.129,1.417,3.586,1.759,3.586,1.759
			s-2.781,1.817-2.634,2.625c0.218,1.195,4.903-0.663,4.903-0.663L146.625,208.7z"/>
		
			<line style="fill:none;stroke:#0D0000;stroke-width:0.5;stroke-miterlimit:10;" x1="145.006" y1="208.622" x2="148.128" y2="208.952"/>
		<g>
			<path style="fill:#EBEAE8;" d="M118.339,286.493l5.098,0.302c1.612,0.095,2.646-1.684,1.766-3.037l-2.008-3.086l-4.134-6.354
				l-4.855,5.822l-2.358,2.828c-1.034,1.24-0.217,3.129,1.395,3.225L118.339,286.493z"/>
			
				<rect x="117.523" y="266.87" transform="matrix(-0.9983 -0.0591 0.0591 -0.9983 221.6921 555.1946)" style="fill:#EBEAE8;" width="3.076" height="14.893"/>
			
				<rect x="117.042" y="265.913" transform="matrix(-0.9982 -0.0591 0.0591 -0.9982 223.0521 539.908)" style="fill:#EBEAE8;" width="4.946" height="1.482"/>
			<path style="fill:#F66C7E;" d="M115.702,280.88l0.518-0.622l4.96,0.294l0.442,0.679l1.322,2.032c0.58,0.891-0.101,2.063-1.163,2
				l-3.357-0.199l-3.357-0.199c-1.061-0.063-1.599-1.307-0.918-2.123L115.702,280.88z"/>
		</g>
		<path style="fill:#C66D5D;" d="M122.45,268.823c-0.438-0.691-5.631-1.292-6.729-1.201c-1.098,0.091-4.249,3.019-4.249,3.019
			c-1.697,0.116-6.555,0.167-6.555,0.167l-1.11,5.606c4.51-0.938,9.075-1.411,13.612-1.409c0.505,0,1.207-0.196,1.19-0.737
			c-0.003-0.108-0.04-0.217-0.004-0.32c0.085-0.241,0.428-0.188,0.616-0.352c0.146-0.128,0.163-0.352,0.167-0.548
			c0.022-1.002-0.108-2.115-0.086-3.116C119.302,269.933,122.888,269.514,122.45,268.823z"/>
		<path style="fill:#FFFFFF;" d="M96.561,235.91c0,0,5.234,17.178,5.774,21.939c0.54,4.76-0.545,81.475-0.545,81.475H75.644
			l5.286-103.847L96.561,235.91z"/>
		<path style="fill:none;stroke:#0D0000;stroke-miterlimit:10;" d="M91.524,234.116c0,0,6.935,9.831,8.062,12.199l-1.102,6.17
			l3.306,2.402c0,0-2.588,50.686-9.779,53.178"/>
		<path style="fill:#C66D5D;" d="M78.04,365.58c0,0-0.325,58.991,5.081,81.542h7.114c0,0,0.285-70.112,1.423-81.542H78.04z"/>
		<path style="fill:#373A52;" d="M81.383,451.654c0,0-1.208,3.766,0,5.76c0,0,19.39,0.884,24.839-0.046
			c5.449-0.93,3.317-2.421-3.923-3.337L81.383,451.654z"/>
		<path style="fill:#C66D5D;" d="M83.122,447.121c0,0-1.76,1.285-1.739,4.532c0,0,16.326,5.065,20.916,2.377
			c0,0-5.852-2.4-12.089-6.899L83.122,447.121z"/>
		<path style="fill:#C66D5D;" d="M57.443,365.58c0,0-3.131,58.991,2.276,81.542h7.114c0,0,3.09-70.112,4.229-81.542H57.443z"/>
		<path style="fill:#373A52;" d="M57.98,451.654c0,0-1.208,3.766,0,5.76c0,0,19.39,0.884,24.839-0.046
			c5.449-0.93,3.317-2.421-3.923-3.337L57.98,451.654z"/>
		<path style="fill:#C66D5D;" d="M59.719,447.121c0,0-1.76,1.285-1.739,4.532c0,0,16.326,5.065,20.916,2.377
			c0,0-5.852-2.4-12.089-6.899L59.719,447.121z"/>
		<path style="fill:#413147;" d="M55.856,301.894c0,0-3.713,121.108,2.813,139.754h8.408l9.587-109.263
			c0,0,11.915-14.772,15.28-30.49H55.856z"/>
		<path style="fill:#413147;" d="M91.944,301.894l-1.68,139.661c0,0-8.249,0.209-8.249,0c0-0.209-9.453-67.494-8.618-117.111
			L91.944,301.894z"/>
		<path style="fill:#441B15;" d="M86.861,194.3c-12.014-6.537-20.534,3.378-21.931,13.434c-1.006,7.237-7.13,16.296-0.101,24.303
			c10.684-4.142,25.568-4.423,35.708,0c6.607-14.045-3.012-18.978-2.931-33.481C97.647,191.234,89.609,192.095,86.861,194.3z"/>
		<polygon style="fill:#C66D5D;" points="73.707,214.62 73.76,230.445 83.083,230.445 83.083,214.902 		"/>
		<path style="fill:#0D0000;" d="M75.648,219.062c0,0-0.397,10.741,7.436,11.383v-11.383H75.648z"/>
		<path style="fill:#B56455;" d="M89.618,211.348c0,0,3.808-2.593,4.685,0.52c0.746,2.649-2.839,3.975-4.685,2.271V211.348z"/>
		<path style="fill:#C66D5D;" d="M74.432,211.348c0,0-3.808-2.593-4.685,0.52c-0.746,2.649,2.839,3.975,4.685,2.271V211.348z"/>
		<path style="fill:#C66D5D;" d="M91.944,214.574c0,0.458-0.019,0.822-0.037,1.065c-0.037,0.336-0.234,1.215-0.635,2.327
			c-1.065,2.934-3.589,7.448-8.411,7.448c-6.635,0-8.925-8.56-9.046-9.775c-0.122-1.206,0-5.785,0-7.953
			c0-7,9.046-6.514,9.046-6.514s9.046-0.486,9.046,6.514C91.906,209.424,91.981,212.714,91.944,214.574z"/>
		
			<line style="fill:none;stroke:#0D0000;stroke-width:0.5;stroke-miterlimit:10;" x1="71.483" y1="211.459" x2="73.707" y2="213.778"/>
		
			<line style="fill:none;stroke:#0D0000;stroke-width:0.5;stroke-miterlimit:10;" x1="71.483" y1="213.494" x2="72.725" y2="212.754"/>
		<g>
			<g>
				<g>
					<g>
						<g>
							<g>
								<path style="fill:#0D0000;" d="M82.194,213.287c0.001,0.462-0.202,0.836-0.454,0.837c-0.252,0.001-0.457-0.373-0.458-0.835
									c-0.001-0.462,0.202-0.836,0.453-0.837C81.988,212.452,82.193,212.826,82.194,213.287z"/>
							</g>
						</g>
					</g>
				</g>
			</g>
			<g>
				<g>
					<g>
						<g>
							<g>
								<path style="fill:#0D0000;" d="M87.46,213.287c-0.001,0.462,0.202,0.836,0.454,0.837c0.252,0.001,0.457-0.373,0.458-0.835
									c0.001-0.462-0.202-0.836-0.453-0.837C87.666,212.452,87.461,212.826,87.46,213.287z"/>
							</g>
						</g>
					</g>
				</g>
			</g>
		</g>
		<path style="fill:#441B15;" d="M79.315,210.079c-0.055-0.515,3.342-0.702,3.228,0.072
			C82.429,210.924,79.387,210.751,79.315,210.079z"/>
		<path style="fill:#441B15;" d="M90.339,210.079c0.055-0.515-3.342-0.702-3.228,0.072
			C87.225,210.924,90.267,210.751,90.339,210.079z"/>
		<path style="fill:none;stroke:#0D0000;stroke-width:0.5;stroke-miterlimit:10;" d="M85.197,214.47c0,0,0.299,1.092,0.513,2.165
			c0.203,1.018-1.008,0.625-1.008,0.625"/>
		<path style="fill:#B65E5A;" d="M81.574,216.317c0,0.964-1.012,1.745-2.26,1.745s-2.26-0.781-2.26-1.745
			c0-0.964,1.012-1.745,2.26-1.745S81.574,215.354,81.574,216.317z"/>
		<path style="fill:#B65E5A;" d="M91.944,214.574c0,0.458-0.019,0.822-0.037,1.065c-0.037,0.336-0.234,1.215-0.635,2.327
			c-0.916-0.215-1.579-0.869-1.579-1.645C89.692,215.349,90.701,214.574,91.944,214.574z"/>
		<path style="fill:#441B15;" d="M88.371,202.511c-0.214,2.041-3.479,3.87-5.13,4.115c-1.745,0.258-3.521,0.446-5.2,0.878
			c-1.679,0.432-3.28,2.388-4.262,3.466c-1.903-2.902-4.581-10.582,4.029-12.782C83.889,196.634,88.991,196.608,88.371,202.511z"/>
		<path style="fill:#F4F4F4;" d="M82.542,219.82h4.319c0,0-1.154,3.627-2.374,3.561C83.267,223.315,82.542,219.82,82.542,219.82z"/>
		<rect x="71.483" y="227.252" style="fill:#49639C;" width="13.734" height="6.387"/>
		<path style="fill:#FFFFFF;" d="M71.483,233.639v105.684h-26.03l7.431-37.429l1.889-61.615
			C54.773,240.28,64.076,234.704,71.483,233.639z"/>
		<path style="fill:none;stroke:#0D0000;stroke-miterlimit:10;" d="M65.687,235.148l-0.23,17.337l2.925,1.697l-2.925,2.776
			c0,0-1.745,51.924,6.026,51.647"/>
		<path style="fill:#3F5587;" d="M71.483,233.639h13.734c0,0,10.697,16.138,11.305,19.189c0.608,3.052-4.869,11.46-4.869,11.46
			l0.29,37.606H71.483V233.639z"/>
		<path style="fill:#FFFFFF;" d="M54.773,240.28c-6.011,0.7-6.145,39.208-3.105,41.033c3.04,1.824,58.821-3.33,58.821-3.33
			l-1.03-8.424l-48.299-1.097C61.16,268.461,62.539,239.375,54.773,240.28z"/>
		<line style="fill:none;stroke:#0D0000;stroke-miterlimit:10;" x1="74.772" y1="360.218" x2="79.771" y2="330.898"/>
		<path style="fill:none;stroke:#0D0000;stroke-miterlimit:10;" d="M82.644,325.629c0,0-0.171,5.134-5.98,6.756"/>
		<line style="fill:none;stroke:#0D0000;stroke-miterlimit:10;" x1="57.947" y1="268.505" x2="102.031" y2="269.389"/>
		<path style="fill:none;stroke:#0D0000;stroke-miterlimit:10;" d="M59.511,245.753c0,0,1.818,10.869,1.649,22.707"/>
		<path style="fill:none;stroke:#0D0000;stroke-miterlimit:10;" d="M53.503,281.703c0,0,32.094-0.746,48.874-3"/>
		<line style="fill:none;stroke:#0D0000;stroke-miterlimit:10;" x1="133.081" y1="242.636" x2="131.317" y2="246.315"/>
		<line style="fill:none;stroke:#0D0000;stroke-miterlimit:10;" x1="52.884" y1="301.894" x2="53.503" y2="306.578"/>
		<line style="fill:none;stroke:#0D0000;stroke-miterlimit:10;" x1="91.524" y1="296.284" x2="71.483" y2="296.284"/>
		<path style="fill:none;stroke:#0D0000;stroke-miterlimit:10;" d="M73.76,263.149c0,0,5.407,1.821,8.884-2.168"/>
		<line style="fill:none;stroke:#0D0000;stroke-miterlimit:10;" x1="57.574" y1="437.076" x2="67.478" y2="437.076"/>
		<line style="fill:#FFFFFF;stroke:#000000;stroke-miterlimit:10;" x1="81.424" y1="437.076" x2="90.175" y2="437.076"/>
	</g>
	<line style="fill:none;stroke:#FFFFFF;stroke-width:0.7941;stroke-miterlimit:10;" x1="0" y1="457.794" x2="500" y2="457.794"/>
	<g>
		<path style="opacity:0.5;fill:#AEDDFF;" d="M353.039,238.179H285.85c-5.845,0-10.584-4.738-10.584-10.584v-34.394
			c0-5.845,4.738-10.584,10.584-10.584h67.189c5.845,0,10.584,4.738,10.584,10.584v34.394
			C363.623,233.44,358.884,238.179,353.039,238.179z"/>
		<g>
			<path style="fill:#192157;" d="M302.074,189.151H285.06c-0.302,0-0.547-0.245-0.547-0.547l0,0c0-0.302,0.245-0.547,0.547-0.547
				h17.015c0.302,0,0.547,0.245,0.547,0.547l0,0C302.621,188.906,302.376,189.151,302.074,189.151z"/>
			<path style="fill:#192157;" d="M353.829,189.151h-17.015c-0.302,0-0.547-0.245-0.547-0.547l0,0c0-0.302,0.245-0.547,0.547-0.547
				h17.015c0.302,0,0.547,0.245,0.547,0.547l0,0C354.376,188.906,354.131,189.151,353.829,189.151z"/>
		</g>
		<g>
			<path style="fill:#FFFFFF;" d="M285.051,219.605L285.051,219.605c-1.339-2.146-0.901-5.125,0.977-6.654l22.055-17.958l0,0
				c1.339,2.146,0.901,5.125-0.977,6.654L285.051,219.605z"/>
			<path style="fill:#FF81A0;" d="M308.083,219.605L308.083,219.605c1.339-2.146,0.901-5.125-0.977-6.654l-22.055-17.958l0,0
				c-1.339,2.146-0.901,5.125,0.977,6.654L308.083,219.605z"/>
			<path style="fill:#FF81A0;" d="M307.929,219.605L307.929,219.605c-1.339-2.146-0.901-5.125,0.977-6.654l22.055-17.958l0,0
				c1.339,2.146,0.901,5.125-0.977,6.654L307.929,219.605z"/>
			<path style="fill:#FFFFFF;" d="M330.96,219.605L330.96,219.605c1.339-2.146,0.901-5.125-0.977-6.654l-22.055-17.958l0,0
				c-1.339,2.146-0.901,5.125,0.977,6.654L330.96,219.605z"/>
			<path style="fill:#FFFFFF;" d="M330.806,219.605L330.806,219.605c-1.339-2.146-0.901-5.125,0.977-6.654l22.055-17.958l0,0
				c1.339,2.146,0.901,5.125-0.977,6.654L330.806,219.605z"/>
			<path style="fill:#FF81A0;" d="M353.838,219.605L353.838,219.605c1.339-2.146,0.901-5.125-0.977-6.654l-22.055-17.958l0,0
				c-1.339,2.146-0.901,5.125,0.977,6.654L353.838,219.605z"/>
		</g>
		<path style="fill:#519FD6;" d="M353.983,226.443h-18.476c-0.785,0-1.422-0.637-1.422-1.422l0,0c0-0.785,0.637-1.422,1.422-1.422
			h18.476c0.785,0,1.422,0.637,1.422,1.422l0,0C355.405,225.807,354.769,226.443,353.983,226.443z"/>
		<path style="fill:#519FD6;" d="M353.983,233.176h-10.723c-0.785,0-1.422-0.637-1.422-1.422l0,0c0-0.785,0.637-1.422,1.422-1.422
			h10.723c0.785,0,1.422,0.637,1.422,1.422l0,0C355.405,232.539,354.769,233.176,353.983,233.176z"/>
		<text transform="matrix(1 0 0 1 307.9093 190.103)" style="fill:#192157; font-family:'Montserrat-ExtraBold'; font-size:5px;">VACCINE</text>
	</g>
	<g>
		<g>
			<rect x="431.082" y="52.561" style="fill:#E1EDFF;" width="37.301" height="37.301"/>
			<rect x="431.082" y="52.561" style="fill:#E1EDFF;" width="37.301" height="37.301"/>
			<rect x="431.082" y="52.561" style="fill:#E1EDFF;" width="37.301" height="37.301"/>
			<rect x="431.082" y="52.561" style="fill:#E1EDFF;" width="37.301" height="37.301"/>
			<rect x="431.082" y="52.561" style="fill:#E1EDFF;" width="37.301" height="37.301"/>
		</g>
		<polygon style="opacity:0.1;fill:#41415E;" points="431.082,52.561 433.485,54.964 433.485,87.459 431.082,89.863 		"/>
		<polygon style="opacity:0.1;fill:#41415E;" points="468.383,52.561 465.98,54.964 465.98,87.459 468.383,89.863 		"/>
		<rect x="433.485" y="54.964" style="fill:#FFFFFF;" width="32.495" height="32.495"/>
		<g>
			<polygon style="fill:#192157;" points="462.395,58.822 437.647,58.822 437.07,61.465 461.818,61.465 			"/>
			<polygon style="fill:#192157;" points="437.07,66.999 461.818,66.999 462.395,64.356 437.647,64.356 			"/>
			<polygon style="fill:#192157;" points="437.647,69.89 437.07,72.534 461.818,72.534 462.395,69.89 462.395,69.89 462.395,69.89 
							"/>
			<polygon style="fill:#192157;" points="437.07,78.068 461.818,78.068 462.395,75.424 437.647,75.424 			"/>
			<polygon style="fill:#192157;" points="437.07,83.602 461.818,83.602 462.395,80.959 437.647,80.959 			"/>
		</g>
	</g>
</g>
</svg>
