<?xml version="1.0" encoding="UTF-8" standalone="no"?><!DOCTYPE svg PUBLIC "-//W3C//DTD SVG 1.1//EN" "http://www.w3.org/Graphics/SVG/1.1/DTD/svg11.dtd"><svg width="100%" height="100%" viewBox="0 0 91 91" version="1.1" xmlns="http://www.w3.org/2000/svg" xmlns:xlink="http://www.w3.org/1999/xlink" xml:space="preserve" xmlns:serif="http://www.serif.com/" style="fill-rule:evenodd;clip-rule:evenodd;stroke-linejoin:round;stroke-miterlimit:2;"><path d="M83.8,57.943c-0.5,0 -1.1,0.101 -1.6,0.202l-5.1,-8.898c1.2,-1.113 2,-2.731 2,-4.551c0,-1.719 -0.7,-3.236 -1.7,-4.348l4.8,-8.494c0.5,0.101 0.9,0.202 1.4,0.202c3.4,-0 6.2,-2.832 6.2,-6.27c0,-3.438 -2.8,-6.269 -6.2,-6.269c-0.4,-0 -0.9,-0 -1.3,0.101l-5.1,-8.899c1.1,-1.112 1.8,-2.73 1.8,-4.449c0,-3.439 -2.8,-6.27 -6.2,-6.27c-2.8,0 -5.2,1.921 -5.9,4.551l-10.4,-0c-0.7,-2.63 -3.1,-4.551 -5.9,-4.551c-3.4,0 -6.2,2.831 -6.2,6.27c-0,1.82 0.8,3.438 2,4.55l-5,8.798c-0.5,-0.101 -1,-0.203 -1.6,-0.203c-2.8,0 -5.2,1.922 -5.9,4.551l-10.8,-0c-0.7,-2.629 -3.1,-4.551 -5.9,-4.551c-3.4,0 -6.2,2.832 -6.2,6.27c0,1.719 0.7,3.236 1.8,4.449l-5,8.798c-0.5,-0.101 -1,-0.202 -1.6,-0.202c-3.4,0.101 -6.2,2.932 -6.2,6.371c-0,3.438 2.8,6.269 6.2,6.269c0.5,0 1.1,-0.101 1.6,-0.202l5,8.696c-1.1,1.113 -1.8,2.63 -1.8,4.349c-0,3.438 2.8,6.269 6.2,6.269c2.8,0 5.1,-1.82 5.9,-4.449l10.8,-0c0.8,2.528 3.1,4.449 5.9,4.449c0.5,0 1,-0.101 1.5,-0.202l5.1,9c-1.2,1.112 -2,2.73 -2,4.55c-0,3.439 2.8,6.27 6.2,6.27c2.8,0 5.2,-1.921 6,-4.652l10.4,0c0.7,2.63 3.1,4.652 6,4.652c3.4,0 6.2,-2.831 6.2,-6.27c-0,-1.719 -0.7,-3.337 -1.8,-4.449l5.2,-9.101c0.4,0.101 0.9,0.101 1.3,0.101c3.4,0 6.2,-2.831 6.2,-6.269c-0.1,-3.337 -2.9,-6.169 -6.3,-6.169Zm0.3,9.607l-0.3,-0c-1,-0 -1.8,-0.405 -2.4,-1.113c-0.5,-0.606 -0.9,-1.415 -0.9,-2.224c-0,-0.809 0.3,-1.416 0.7,-2.023c0.6,-0.809 1.5,-1.314 2.6,-1.314c1.8,-0 3.3,1.516 3.3,3.337c-0,1.719 -1.3,3.134 -3,3.337Zm-44.4,-0c-1.1,-0 -2.1,-0.607 -2.7,-1.517c-0.3,-0.506 -0.5,-1.112 -0.5,-1.82c-0,-0.405 0.1,-0.708 0.2,-1.113c0.4,-1.314 1.7,-2.224 3.1,-2.224l0.3,-0c1,0.101 1.8,0.606 2.4,1.314l0.1,0.101c0.4,0.506 0.6,1.214 0.6,1.821c0,0.809 -0.3,1.516 -0.7,2.123c-0.8,0.809 -1.7,1.315 -2.8,1.315Zm36.6,-22.854c-0,0.708 -0.2,1.416 -0.6,1.921c-0.6,0.809 -1.5,1.315 -2.5,1.416l-0.1,0c-1.1,0 -2.1,-0.506 -2.7,-1.416c-0,-0.101 -0.1,-0.101 -0.1,-0.202c-0.3,-0.505 -0.5,-1.112 -0.5,-1.719c-0,-0.303 0.1,-0.708 0.2,-1.011c-0,-0.101 -0,-0.101 0.1,-0.202c0.5,-1.315 1.7,-2.225 3.1,-2.225c0.2,-0 0.4,-0 0.6,0.101c1,0.202 1.9,0.809 2.3,1.719c-0,0.506 0.2,1.011 0.2,1.618Zm-22.4,0c-0,0.607 -0.2,1.214 -0.5,1.719c-0,0.101 -0.1,0.101 -0.1,0.202c-0.6,0.809 -1.5,1.315 -2.6,1.416l-0.2,0c-1,0 -1.9,-0.506 -2.5,-1.213l-0.1,-0.101c-0.4,-0.607 -0.7,-1.214 -0.7,-2.023c-0,-0.607 0.2,-1.112 0.4,-1.618c-0,-0.101 0.1,-0.101 0.1,-0.202c0.5,-0.809 1.3,-1.315 2.3,-1.517l0.5,0c1.4,0 2.6,0.91 3.1,2.225c-0,0.101 -0,0.101 0.1,0.202c0.1,0.202 0.2,0.506 0.2,0.91Zm30.1,-22.247c1.7,0.202 3,1.618 3,3.337c0,1.82 -1.4,3.236 -3.1,3.337l-0.2,0c-1,0 -1.9,-0.505 -2.5,-1.213c-0.5,-0.607 -0.8,-1.315 -0.8,-2.124c0,-0.91 0.3,-1.719 0.9,-2.224c0.6,-0.607 1.5,-1.113 2.4,-1.113l0.3,0Zm-14.3,-16.078c-0,-0.607 0.2,-1.214 0.5,-1.719c0.6,-1.012 1.6,-1.618 2.8,-1.618c1.8,-0 3.3,1.517 3.3,3.337c-0,0.606 -0.2,1.213 -0.5,1.719c-0.5,0.91 -1.4,1.517 -2.4,1.618l-0.4,-0c-1.4,-0 -2.6,-0.91 -3.1,-2.124c-0.1,-0.404 -0.2,-0.809 -0.2,-1.213Zm-22.4,-0c0,-1.82 1.5,-3.337 3.3,-3.337c1.2,-0 2.3,0.708 2.8,1.618c0.3,0.505 0.5,1.112 0.5,1.719c0,0.404 -0.1,0.809 -0.2,1.213c-0.5,1.214 -1.7,2.124 -3.1,2.124l-0.2,-0c-1,-0.101 -2,-0.607 -2.5,-1.416c-0.4,-0.506 -0.6,-1.213 -0.6,-1.921Zm1.6,6.067c0.5,0.202 1.1,0.202 1.7,0.202c3,0 5.5,-2.123 6.1,-5.056l10.3,0c0.6,2.832 3.1,5.056 6.1,5.056c0.7,0 1.3,-0.101 1.9,-0.303l4.9,8.595c-1.4,1.113 -2.3,2.933 -2.3,4.854c0,1.922 0.9,3.641 2.2,4.753l-4.8,8.292c-0.6,-0.202 -1.3,-0.405 -2,-0.405c-3,0 -5.5,2.225 -6.1,5.057l-10.2,-0c-0.5,-2.933 -3.1,-5.057 -6.1,-5.057c-0.6,0 -1.3,0.102 -1.8,0.304l-4.8,-8.393c1.2,-1.113 2,-2.731 2,-4.551c-0,-1.82 -0.8,-3.539 -2.1,-4.651l5,-8.697Zm-9.1,10.011c1.1,0 2,0.506 2.6,1.315c0.4,0.606 0.7,1.213 0.7,2.022c-0,0.708 -0.2,1.416 -0.6,1.922l-0.1,0.101c-0.6,0.707 -1.4,1.213 -2.4,1.314l-0.2,0c-1.4,0 -2.6,-0.91 -3.1,-2.123c-0.1,-0.405 -0.2,-0.809 -0.2,-1.214c-0,-0.607 0.2,-1.213 0.5,-1.719c0.5,-0.91 1.6,-1.618 2.8,-1.618Zm-25.9,3.337c0,-1.82 1.5,-3.337 3.3,-3.337c1.2,0 2.3,0.708 2.8,1.618c0.3,0.506 0.5,1.112 0.5,1.719c0,0.405 -0.1,0.809 -0.2,1.214c-0.5,1.213 -1.7,2.123 -3.1,2.123l-0.4,0c-1,-0.101 -1.9,-0.708 -2.4,-1.618c-0.3,-0.505 -0.5,-1.112 -0.5,-1.719Zm-7.7,22.652c-1.8,-0 -3.3,-1.517 -3.3,-3.337c0,-1.821 1.5,-3.337 3.3,-3.337c1.1,-0 2,0.505 2.6,1.314c0.4,0.607 0.7,1.214 0.7,2.023c0,0.809 -0.3,1.415 -0.7,2.022c-0.6,0.809 -1.5,1.315 -2.6,1.315Zm4.1,1.314c1.3,-1.112 2.1,-2.831 2.1,-4.651c0,-1.821 -0.8,-3.54 -2.1,-4.652l5,-8.697c0.6,0.203 1.3,0.304 1.9,0.304c3,-0 5.5,-2.124 6.1,-5.056l10.5,-0c0.6,2.831 3.1,5.056 6.1,5.056c0.5,-0 1,-0.101 1.5,-0.202l4.8,8.494c-1.1,1.112 -1.8,2.629 -1.8,4.348c0,1.82 0.8,3.438 2,4.652l-5.1,8.898c-0.5,-0.101 -1.1,-0.202 -1.6,-0.202c-3,0 -5.6,2.225 -6.1,5.157l-10.3,0c-0.5,-2.932 -3,-5.157 -6.1,-5.157c-0.7,0 -1.4,0.101 -2,0.304l-4.9,-8.596Zm10.2,14.461c0,0.708 -0.2,1.314 -0.5,1.82c-0.6,0.91 -1.6,1.517 -2.8,1.517c-1.8,-0 -3.3,-1.517 -3.3,-3.337c0,-0.607 0.2,-1.113 0.4,-1.618c0.5,-0.91 1.4,-1.517 2.4,-1.719l0.5,-0c1.4,-0 2.7,0.91 3.1,2.224c0.1,0.405 0.2,0.708 0.2,1.113Zm33.4,19.617c0,0.607 -0.2,1.113 -0.4,1.618c-0.6,1.012 -1.6,1.719 -2.9,1.719c-1.8,0 -3.3,-1.516 -3.3,-3.337c0,-0.707 0.2,-1.415 0.6,-1.921c0.6,-0.809 1.5,-1.314 2.5,-1.416l0.2,0c1.4,0 2.6,0.809 3,2.023c0.2,0.404 0.3,0.809 0.3,1.314Zm22.4,0c0,1.821 -1.5,3.337 -3.3,3.337c-1.2,0 -2.3,-0.707 -2.9,-1.719c-0.3,-0.505 -0.4,-1.011 -0.4,-1.618c0,-0.404 0.1,-0.91 0.3,-1.314c0.5,-1.214 1.7,-2.023 3,-2.023l0.4,0c1,0.102 1.9,0.708 2.4,1.618c0.3,0.506 0.5,1.113 0.5,1.719Zm-1.4,-5.966c-0.6,-0.202 -1.2,-0.303 -1.9,-0.303c-3,-0 -5.5,2.123 -6.1,4.955l-10.3,-0c-0.6,-2.832 -3.1,-4.955 -6.1,-4.955c-0.6,-0 -1.2,0.101 -1.7,0.202l-5.1,-8.899c1.3,-1.112 2.1,-2.831 2.1,-4.752c0,-1.821 -0.7,-3.337 -1.9,-4.551l5.1,-8.899c0.5,0.101 1,0.203 1.5,0.203c2.7,-0 5.1,-1.821 5.9,-4.349l10.6,0c0.8,2.528 3.1,4.349 5.9,4.349c0.6,-0 1.1,-0.102 1.7,-0.203l5.1,8.899c-1.3,1.112 -2.1,2.831 -2.1,4.652c0,1.921 0.9,3.741 2.3,4.854l-5,8.797Z" style="fill:url(#_Linear1);fill-rule:nonzero;"/><defs><linearGradient id="_Linear1" x1="0" y1="0" x2="1" y2="0" gradientUnits="userSpaceOnUse" gradientTransform="matrix(90.1,0,0,90.1,0,45.2668)"><stop offset="0" style="stop-color:#1685ff;stop-opacity:1"/><stop offset="0.5" style="stop-color:#8b5cf6;stop-opacity:1"/><stop offset="1" style="stop-color:#d946ef;stop-opacity:1"/></linearGradient></defs></svg>