<svg width="535" height="439" viewBox="0 0 535 439" fill="none" xmlns="http://www.w3.org/2000/svg">
<path d="M521.415 189.032C517.067 206.065 508.318 222.077 495.644 234.33C482.435 247.107 465.033 255.422 446.849 257.969C437.892 259.227 428.752 259.103 419.858 257.406C410.922 255.71 402.495 252.283 394.526 247.958C385.571 243.107 377.178 237.242 368.583 231.759C368.409 231.903 368.167 231.936 367.988 231.702C367.821 231.484 367.65 231.279 367.483 231.062C360.969 226.953 354.32 223.09 347.191 220.091C338.457 216.413 329.307 214.652 319.897 213.866C310.545 213.076 301.123 213.024 291.801 211.878C283.14 210.819 274.52 208.713 266.888 204.372L266.694 204.281C258.848 200.357 252.24 194.323 247.29 187.115C237.011 172.144 234.422 153.331 238.611 135.828C240.895 126.264 244.986 117.314 250.345 109.161C254.602 102.449 259.742 96.3009 265.492 90.8851C268.526 88.0166 271.732 85.3554 275.064 82.8696C289.276 71.7846 305.704 63.4094 322.461 57.0093C343.127 49.0975 365.134 44.4599 387.299 44.2615C406.495 44.0951 425.75 47.363 443.7 54.2252C461.404 60.9914 477.78 71.2764 491.057 84.8677C504.722 98.8481 515.144 116.121 520.546 134.951C525.605 152.562 525.94 171.283 521.415 189.032Z" fill="#D1CEEE"/>
<path d="M1.34427 171.273C6.71525 171.431 11.8341 173.193 16.757 175.217C21.1309 177.026 25.4292 179.058 29.9413 180.514C34.3151 181.931 38.8656 182.658 43.4724 182.574C52.3122 182.396 61.0484 179.395 68.0514 173.976C74.9891 174.761 81.7489 176.56 88.1183 179.254C84.789 179.349 81.4789 179.861 78.2596 180.756C71.1747 182.714 64.6581 186.537 59.529 191.815C54.6611 196.812 51.0719 203.023 49.1698 209.737C49.0955 210.017 49.3195 210.342 49.6178 210.324C53.3747 210.09 57.0586 209.251 60.5646 207.898C66.8866 205.465 72.5187 201.567 77.4788 196.999C82.7461 192.149 87.2876 186.574 91.7254 180.971L91.7536 180.914C100.23 185.056 107.913 190.825 114.282 197.912C114.878 198.79 115.485 199.674 116.1 200.542C119.149 204.831 122.441 208.934 125.947 212.842C122.711 211.106 119.327 209.671 115.83 208.561C107.587 205.95 98.804 205.111 90.215 206.183C81.6555 207.265 73.3661 210.146 66.0098 214.651C65.6834 214.855 65.7205 215.415 66.1211 215.508C71.2963 216.683 76.4714 217.857 81.6555 219.041C86.2252 220.077 90.7936 221.186 95.3901 222.1C99.8574 222.986 104.408 223.629 108.967 223.415C115.979 223.088 123.215 220.487 127.653 214.846L127.951 215.014C135.233 222.781 143.411 229.698 152.297 235.602C153.296 236.264 154.228 234.651 153.24 233.989C145.426 228.804 138.171 222.809 131.588 216.133C130.917 215.452 130.255 214.762 129.612 214.072C131.429 209.364 133.22 204.645 134.674 199.806C136.036 195.265 137.089 190.612 137.555 185.874C138.012 181.128 137.742 176.392 137.127 171.674C135.905 162.266 133.509 152.847 134.591 143.299C134.646 142.805 133.956 142.712 133.724 143.066C130.712 147.7 128.25 152.69 126.358 157.902C122.991 167.189 121.481 177.157 121.853 187.031C122.161 195.189 123.803 203.284 126.72 210.901C122.842 206.529 119.252 201.904 115.969 197.064L115.849 196.858L115.764 196.775C110.935 189.615 106.794 181.996 103.418 174.042C102.188 171.134 101.07 168.187 100.044 165.203C103.223 161.967 106.095 158.433 108.594 154.648C113.536 147.141 117.088 138.712 119.046 129.948C121.005 121.182 121.359 112.091 119.979 103.223C119.933 102.897 119.401 102.747 119.196 103.018C116.147 106.953 113.396 111.112 110.972 115.456C106.691 123.14 103.438 131.402 101.294 139.934C99.6424 146.507 98.6734 153.23 98.3841 159.99C96.7521 154.527 95.4657 148.969 94.5325 143.347C94.5799 138.871 94.9153 134.394 95.2788 129.928C96.0622 120.128 96.9287 110.142 94.8692 100.426C93.1719 92.4531 89.3113 84.6488 82.7934 79.5389C82.4862 79.288 82.019 79.4365 81.9998 79.8653C81.7297 85.1057 81.4699 90.3462 81.3931 95.5955C81.2638 104.426 81.6939 113.321 83.5576 121.974C85.2728 129.948 88.2207 137.704 92.8365 144.455C93.2551 146.918 93.7402 149.369 94.2996 151.813C94.9997 154.871 95.801 157.911 96.715 160.914C95.0177 158.731 93.1987 156.653 91.2505 154.694C85.5071 148.912 78.7562 144.12 71.4179 140.577C64.0795 137.043 56.1728 134.759 48.069 133.919C47.6312 133.872 47.5186 134.442 47.7426 134.712L58.4 147.765C61.0958 151.058 63.6788 154.423 66.9519 157.193C69.8422 159.645 73.0678 161.687 76.5188 163.263C83.4002 166.396 91.1021 167.711 98.6171 166.76C101.564 175.114 105.312 183.189 109.816 190.825C108.099 189.287 106.328 187.815 104.473 186.436C100.352 183.357 95.9316 180.756 91.3069 178.62C83.9493 175.227 76.0708 173.054 68.0233 172.168C64.1256 169.054 59.8183 166.47 55.2307 164.513C46.5496 160.801 36.9724 159.3 27.5732 160.326C18.0729 161.361 8.87849 164.84 1.11131 170.405C0.7465 170.666 0.859142 171.264 1.34427 171.273Z" fill="#D1CEEE"/>
<path d="M367.957 388.087C362.708 386.944 357.314 387.419 352.049 388.196C347.368 388.897 342.706 389.832 337.975 390.154C333.389 390.476 328.797 390.083 324.348 388.891C315.811 386.587 308.057 381.566 302.568 374.618C295.647 373.704 288.652 373.82 281.822 374.899C285.031 375.793 288.118 377.089 291.025 378.734C297.429 382.342 302.832 387.625 306.536 393.984C310.054 400.009 312.04 406.902 312.266 413.876C312.271 414.166 311.975 414.429 311.69 414.339C308.099 413.206 304.728 411.503 301.652 409.345C296.103 405.458 291.578 400.317 287.866 394.686C283.923 388.709 280.862 382.203 277.906 375.694L277.892 375.633C268.668 377.605 259.819 381.353 251.929 386.695C251.138 387.401 250.337 388.114 249.531 388.807C245.537 392.234 241.352 395.422 237.008 398.368C240.565 397.466 244.197 396.889 247.859 396.654C256.487 396.109 265.215 397.415 273.289 400.526C281.335 403.641 288.685 408.437 294.738 414.582C295.006 414.86 294.834 415.395 294.423 415.389C289.117 415.28 283.811 415.171 278.495 415.07C273.81 414.973 269.11 414.947 264.427 414.725C259.88 414.507 255.309 414.033 250.935 412.726C244.208 410.717 237.814 406.447 234.868 399.902L234.538 399.993C225.597 405.773 215.991 410.515 205.944 414.1C204.817 414.501 204.301 412.711 205.42 412.308C214.253 409.162 222.74 405.092 230.738 400.201C231.554 399.702 232.364 399.193 233.154 398.678C232.525 393.669 231.926 388.659 231.682 383.612C231.457 378.876 231.556 374.107 232.246 369.398C232.949 364.682 234.353 360.151 236.089 355.719C239.544 346.883 244.142 338.322 245.395 328.794C245.46 328.302 246.151 328.378 246.293 328.779C248.098 334.002 249.283 339.437 249.863 344.952C250.89 354.776 249.95 364.815 247.205 374.308C244.938 382.152 241.395 389.609 236.724 396.299C241.543 392.991 246.144 389.369 250.496 385.463L250.663 385.294L250.764 385.233C257.18 379.448 263.036 373.055 268.23 366.149C270.126 363.622 271.923 361.034 273.638 358.386C271.333 354.479 269.398 350.356 267.887 346.078C264.901 337.602 263.488 328.565 263.702 319.587C263.915 310.607 265.765 301.7 269.243 293.428C269.367 293.121 269.919 293.106 270.053 293.417C272.063 297.971 273.729 302.67 275.034 307.473C277.333 315.962 278.499 324.763 278.522 333.561C278.537 340.338 277.856 347.097 276.506 353.728C279.409 348.819 281.997 343.734 284.259 338.503C285.293 334.148 286.047 329.725 286.772 325.302C288.375 315.603 289.943 305.701 294.288 296.77C297.858 289.442 303.486 282.8 311.045 279.413C311.404 279.244 311.82 279.5 311.735 279.921C310.734 285.072 309.722 290.22 308.528 295.333C306.525 303.935 303.962 312.463 300.065 320.411C296.477 327.734 291.746 334.552 285.637 339.99C284.636 342.278 283.574 344.541 282.442 346.776C281.025 349.576 279.515 352.332 277.904 355.027C280.076 353.318 282.343 351.738 284.707 350.309C291.675 346.083 299.384 343.061 307.359 341.392C315.333 339.733 323.558 339.423 331.624 340.564C332.06 340.625 332.032 341.204 331.75 341.412L318.258 351.511C314.849 354.054 311.53 356.697 307.686 358.595C304.289 360.277 300.665 361.482 296.936 362.18C289.503 363.559 281.71 362.977 274.647 360.24C269.772 367.638 264.186 374.57 257.974 380.895C260.01 379.816 262.084 378.813 264.218 377.921C268.96 375.93 273.877 374.47 278.88 373.514C286.838 371.995 295.01 371.787 303.032 372.869C307.565 370.788 312.369 369.321 317.294 368.526C326.614 367.019 336.269 367.873 345.144 371.136C354.115 374.432 362.198 380.026 368.393 387.3C368.683 387.642 368.431 388.195 367.957 388.087Z" fill="#D1CEEE"/>
<path d="M469.806 74.7003H468.074V188.951C468.074 192.093 466.804 194.926 464.746 196.986C462.688 199.043 459.852 200.312 456.713 200.313H266.838C263.698 200.312 260.863 199.043 258.804 196.986C256.747 194.928 255.477 192.093 255.477 188.951V74.7003C255.477 71.5591 256.747 68.7226 258.804 66.6617C260.863 64.6022 263.698 63.3311 266.838 63.3311H456.713C459.852 63.3311 462.688 64.6022 464.746 66.6617C466.803 68.7226 468.074 71.5591 468.074 74.7003H469.806C469.805 67.4682 463.945 61.5992 456.713 61.5992H266.838C259.604 61.5992 253.746 67.4682 253.746 74.7003V188.951C253.746 196.185 259.606 202.043 266.838 202.045H456.713C463.945 202.043 469.805 196.185 469.806 188.951V74.7003Z" fill="#212757"/>
<path d="M254.611 79.1447H468.939C469.418 79.1447 469.806 78.7569 469.806 78.2781C469.806 77.7994 469.418 77.4128 468.939 77.4128H254.611C254.133 77.4128 253.746 77.7994 253.746 78.2781C253.746 78.7569 254.133 79.1447 254.611 79.1447Z" fill="#212757"/>
<path d="M416.345 66.1997H407.313V75.2303H416.345V66.1997Z" fill="#1685FF"/>
<path d="M433.533 66.1997H424.502V75.2303H433.533V66.1997Z" fill="#212757"/>
<path d="M451.79 66.1997H442.758V75.2303H451.79V66.1997Z" fill="white"/>
<path d="M321.506 85.6868H262.397V144.796H321.506V85.6868Z" fill="white"/>
<path d="M451.056 93.2094H333.179C331.85 93.2094 330.763 92.1214 330.763 90.7927V90.4778C330.763 89.1492 331.85 88.0612 333.179 88.0612H451.056C452.385 88.0612 453.471 89.1492 453.471 90.4778V90.7927C453.471 92.1214 452.385 93.2094 451.056 93.2094Z" fill="white"/>
<path d="M451.056 106.521H333.179C331.85 106.521 330.763 105.434 330.763 104.105V103.79C330.763 102.462 331.85 101.374 333.179 101.374H451.056C452.385 101.374 453.471 102.462 453.471 103.79V104.105C453.471 105.434 452.385 106.521 451.056 106.521Z" fill="white"/>
<path d="M451.056 123.321H333.179C331.85 123.321 330.763 122.234 330.763 120.905V120.59C330.763 119.262 331.85 118.174 333.179 118.174H451.056C452.385 118.174 453.471 119.262 453.471 120.59V120.905C453.471 122.234 452.385 123.321 451.056 123.321Z" fill="white"/>
<path d="M372.038 136.633H333.179C331.85 136.633 330.763 135.545 330.763 134.216V133.901C330.763 132.573 331.85 131.486 333.179 131.486H372.038C373.366 131.486 374.454 132.573 374.454 133.901V134.216C374.454 135.545 373.366 136.633 372.038 136.633Z" fill="white"/>
<path d="M357.251 156.289H264.813C263.484 156.289 262.397 155.202 262.397 153.874V153.559C262.397 152.229 263.484 151.142 264.813 151.142H357.251C358.58 151.142 359.666 152.229 359.666 153.559V153.874C359.666 155.202 358.58 156.289 357.251 156.289Z" fill="white"/>
<path d="M357.251 169.601H264.813C263.484 169.601 262.397 168.515 262.397 167.186V166.87C262.397 165.541 263.484 164.454 264.813 164.454H357.251C358.58 164.454 359.666 165.541 359.666 166.87V167.186C359.666 168.515 358.58 169.601 357.251 169.601Z" fill="white"/>
<path d="M323.693 182.914H264.813C263.484 182.914 262.397 181.826 262.397 180.497V180.182C262.397 178.853 263.484 177.765 264.813 177.765H323.693C325.021 177.765 326.108 178.853 326.108 180.182V180.497C326.108 181.826 325.021 182.914 323.693 182.914Z" fill="white"/>
<path d="M296.56 17.9351C290.234 21.235 289.158 30.1286 289.014 31.95C288.857 30.1286 287.796 21.235 281.454 17.9351C287.796 14.6352 288.857 5.72748 289.014 3.90601C289.158 5.72748 290.234 14.6352 296.56 17.9351Z" fill="#212757"/>
<path d="M51.0528 47.7739C44.7269 51.0725 43.6504 59.9661 43.5071 61.7888C43.3496 59.9661 42.2872 51.0725 35.9473 47.7739C42.2872 44.474 43.3496 35.565 43.5071 33.7435C43.6504 35.565 44.7269 44.474 51.0528 47.7739Z" fill="#212757"/>
<path d="M387.326 318.866C381 322.166 379.924 331.06 379.78 332.881C379.623 331.06 378.562 322.166 372.221 318.866C378.562 315.566 379.623 306.659 379.782 304.837C379.924 306.659 381 315.566 387.326 318.866Z" fill="#212757"/>
<path d="M351.784 312.466C349.015 312.466 349.01 316.77 351.784 316.77C354.554 316.77 354.558 312.466 351.784 312.466Z" fill="#212757"/>
<path d="M372.522 287.741C369.753 287.741 369.748 292.045 372.522 292.045C375.29 292.045 375.295 287.741 372.522 287.741Z" fill="#212757"/>
<path d="M58.5858 32.0909C55.8158 32.0909 55.8119 36.3944 58.5858 36.3944C61.3544 36.3944 61.3596 32.0909 58.5858 32.0909Z" fill="#212757"/>
<path d="M72.1436 65.588C69.3749 65.588 69.3698 69.8915 72.1436 69.8915C74.9136 69.8915 74.9174 65.588 72.1436 65.588Z" fill="#212757"/>
<path d="M84.9041 39.2681C82.1354 39.2681 82.1316 43.5715 84.9041 43.5715C87.6741 43.5715 87.6779 39.2681 84.9041 39.2681Z" fill="#212757"/>
<path d="M265.482 26.5076C262.714 26.5076 262.709 30.811 265.482 30.811C268.251 30.811 268.256 26.5076 265.482 26.5076Z" fill="#212757"/>
<path d="M283.029 48.84C280.26 48.84 280.255 53.1421 283.029 53.1421C285.798 53.1421 285.803 48.84 283.029 48.84Z" fill="#212757"/>
<path d="M34.1282 374.381C27.8023 377.681 26.7271 386.574 26.5825 388.396C26.425 386.574 25.3639 377.681 19.0239 374.381C25.3639 371.082 26.425 362.173 26.5825 360.352C26.7271 362.173 27.8023 371.082 34.1282 374.381Z" fill="#212757"/>
<path d="M39.6297 398.545C36.8597 398.545 36.8559 402.847 39.6297 402.847C42.3984 402.847 42.4035 398.545 39.6297 398.545Z" fill="#212757"/>
<path d="M20.5972 405.284C17.8285 405.284 17.8234 409.589 20.5972 409.589C23.3672 409.589 23.371 405.284 20.5972 405.284Z" fill="#212757"/>
<path d="M227.46 49.9577C223.639 57.4445 215.653 62.1358 207.424 63.8357C206.526 64.0226 205.626 64.1787 204.727 64.2952C197.339 65.3218 189.755 64.4424 182.355 63.2686C174.058 61.94 165.759 60.2209 157.355 60.3476C149.087 60.4846 140.534 62.5954 134.269 67.951C132.237 74.5969 128.043 80.5784 122.454 84.7321C121.104 81.6639 117.684 79.6696 114.313 79.7285C112.533 79.7669 110.822 80.2955 109.299 81.1941C107.05 75.4084 104.988 69.4947 104.606 63.3083C104.167 56.2912 106.268 48.7455 111.692 44.2603C114.741 41.7387 118.846 40.3601 122.736 40.9079C120.362 35.4051 121.769 28.5634 125.551 23.8234C129.686 18.6534 136.175 15.7708 142.724 14.7826C149.273 13.7957 155.947 14.5087 162.506 15.4278C169.063 16.3468 175.641 17.4604 182.258 17.2556C190.369 17.0009 198.433 14.7238 205.391 10.5509C207.806 9.10446 210.102 7.42379 212.712 6.34857C215.312 5.27335 218.352 4.85222 220.922 5.99656C224.871 7.75531 226.503 12.5733 226.512 16.8844C226.552 26.1492 220.638 35.1709 212.126 38.8356C214.97 37.9063 217.892 36.9693 220.873 37.096C223.863 37.2227 226.982 38.65 228.291 41.338C229.601 44.035 228.82 47.2901 227.46 49.9577Z" fill="#212757"/>
<path d="M204.727 64.2952L199.205 125.566C197.71 142.201 185.649 155.474 170.265 159.334C170.686 166.44 171.115 173.544 171.536 180.649L171.673 181.305C172.367 185.126 174.821 204.369 152.537 202.836C150.758 202.718 148.959 202.444 147.171 202.045C126.001 197.314 105.135 174.775 101.909 171.169C106.053 151.476 110.198 131.801 114.332 112.108C108.018 108.922 103.561 102.335 102.965 95.2884C102.662 91.7005 103.346 87.9577 105.33 84.9573C106.346 83.4225 107.714 82.122 109.299 81.194C110.822 80.2954 112.534 79.7668 114.313 79.7284C117.684 79.6695 121.105 81.6638 122.454 84.732C128.044 80.5783 132.237 74.5968 134.27 67.9509C140.534 62.5953 149.087 60.4845 157.355 60.3476C165.76 60.2208 174.058 61.9399 182.355 63.2686C189.755 64.4424 197.339 65.3217 204.727 64.2952Z" fill="#FAB37E"/>
<path d="M170.686 166.292C136.918 173.083 130.38 145.134 130.38 145.134C133.536 149.326 137.525 152.873 142.137 155.493C146.741 158.112 151.96 159.813 157.56 160.321C161.939 160.712 166.219 160.351 170.265 159.334L170.686 166.292Z" fill="#212757"/>
<path d="M180.009 92.3801L184.179 124.176L170.481 121.453C169.953 121.347 169.438 121.691 169.333 122.221C169.227 122.75 169.571 123.264 170.101 123.369L185.135 126.358C185.442 126.42 185.765 126.328 185.993 126.114C186.222 125.899 186.334 125.584 186.295 125.273L181.948 92.1253C181.877 91.5903 181.386 91.214 180.851 91.2831C180.316 91.3535 179.939 91.845 180.009 92.3801Z" fill="#212757"/>
<path d="M107.448 92.3352C107.576 90.7531 108.157 89.2107 109.189 88.1572C110.006 87.3162 111.195 86.7799 112.302 86.785C112.568 86.785 112.829 86.8145 113.084 86.8746C113.938 87.0756 114.68 87.5902 115.323 88.3326C115.963 89.0712 116.479 90.0286 116.835 91.0014C117.415 92.5784 117.706 94.2668 117.706 95.9539C117.706 97.5948 117.43 99.2358 116.881 100.776C116.652 101.422 116.348 102.056 115.981 102.549C115.61 103.044 115.196 103.386 114.716 103.558C114.492 103.639 114.258 103.678 114.012 103.678C113.176 103.689 112.191 103.176 111.61 102.432C110.817 101.445 110.479 100.022 110.422 98.5523L110.415 98.2707C110.414 97.8393 110.464 97.4195 110.569 97.102C110.676 96.7795 110.816 96.5823 111.003 96.4505C111.144 96.3519 111.314 96.2982 111.534 96.2969C111.923 96.2892 112.433 96.5132 112.718 96.8332C113.233 97.3785 113.489 98.3014 113.548 99.3037C113.582 99.8426 114.046 100.251 114.584 100.218C115.123 100.183 115.533 99.7184 115.498 99.1795C115.418 97.9712 115.141 96.5926 114.156 95.5097C113.477 94.7839 112.538 94.3513 111.534 94.3423C110.976 94.341 110.385 94.4933 109.878 94.8518C109.267 95.2806 108.905 95.895 108.712 96.494C108.515 97.0969 108.462 97.7062 108.461 98.2707C108.461 98.3936 108.463 98.5152 108.468 98.6329C108.541 100.323 108.906 102.161 110.08 103.648C111.021 104.821 112.454 105.621 114.012 105.632C114.465 105.632 114.927 105.559 115.375 105.398C116.309 105.064 117.02 104.426 117.549 103.716C118.079 103 118.448 102.2 118.721 101.432C119.349 99.6736 119.661 97.8137 119.661 95.9539C119.661 94.0415 119.331 92.1291 118.67 90.3281C118.248 89.18 117.641 88.0267 116.803 87.0551C115.968 86.0861 114.878 85.2887 113.533 84.9725C113.124 84.8752 112.712 84.8304 112.302 84.8304C110.591 84.8368 108.963 85.5972 107.79 86.7927C106.359 88.266 105.66 90.2411 105.5 92.1765C105.457 92.7141 105.856 93.1864 106.395 93.23C106.932 93.2735 107.405 92.8728 107.448 92.3352Z" fill="#212757"/>
<path d="M166.384 96.2419C165.657 100.003 162.509 102.556 159.353 101.946C156.198 101.335 154.228 97.792 154.955 94.0326C155.682 90.2719 158.829 87.7182 161.986 88.3275C165.141 88.9381 167.111 92.4812 166.384 96.2419Z" fill="#212757"/>
<path d="M199.776 99.1578C199.049 102.919 195.9 105.472 192.745 104.862C189.588 104.252 187.62 100.708 188.347 96.9485C189.074 93.1878 192.221 90.6342 195.378 91.2447C198.533 91.854 200.502 95.3984 199.776 99.1578Z" fill="#212757"/>
<path d="M165.249 79.6617C162.138 79.4262 159.028 79.5683 155.967 80.1801C151.671 81.039 152.629 87.8168 156.963 86.9502C159.441 86.4548 161.889 86.2603 164.409 86.451C168.785 86.7838 169.649 79.9958 165.249 79.6617Z" fill="#212757"/>
<path d="M193.216 82.0568C196.33 82.2027 199.401 82.7275 202.363 83.7093C206.522 85.0892 204.74 91.6979 200.544 90.3066C198.145 89.5104 195.74 89.0176 193.216 88.8972C188.832 88.6912 188.806 81.8482 193.216 82.0568Z" fill="#212757"/>
<path d="M225.444 3.24563C220.589 -0.742922 214.27 -0.0299491 208.873 2.44306C205.851 3.82804 203.075 5.6764 200.16 7.26362C197.194 8.87773 194.068 10.1731 190.831 11.1357C184.565 13.0007 177.962 13.61 171.461 12.9072C158.895 11.5479 145.567 5.23223 133.352 11.5568C127.931 14.3639 123.627 19.251 121.601 25.0137C119.635 30.6049 119.893 36.8232 122.109 42.2812C116.496 39.9657 109.602 41.59 105.386 46.1021C99.888 51.9864 99.1622 60.8608 101.745 68.2107C103.352 72.7778 106.033 76.8483 109.184 80.4938C110.007 81.4487 111.384 80.0611 110.566 79.1126C105.731 73.5164 101.887 66.4826 102.255 58.8819C102.58 52.1092 106.429 45.4045 113.291 43.6022C116.864 42.6652 120.878 43.135 123.836 45.457C124.815 46.2263 126.208 44.8515 125.22 44.0758L124.971 43.9017L124.887 43.624C119.452 33.4465 122.745 20.5707 132.456 14.3332C143.3 7.36987 156.141 12.4029 167.681 14.3332C179.471 16.3057 191.488 14.3831 201.939 8.51165C207.258 5.52407 213.192 1.16303 219.669 2.53138C224.564 3.56436 227.885 8.06748 228.799 12.7946C229.981 18.9003 226.873 25.0572 222.792 29.408C218.216 34.2862 212.178 37.4351 206.333 40.5174C205.22 41.1036 206.207 42.7907 207.32 42.2044C217.589 36.7912 229.86 29.6666 230.937 16.732C231.353 11.7475 229.346 6.45081 225.444 3.24563Z" fill="#212757"/>
<path d="M215.685 438.92H132.684L147.171 202.045C148.959 202.444 150.758 202.718 152.537 202.836C174.821 204.369 172.367 185.126 171.673 181.305L215.685 438.92Z" fill="#212757"/>
<path d="M363.448 270.963C363.448 270.963 312.843 337.057 294.37 338.415C275.889 339.774 228.966 299.292 228.966 299.292L247.751 438.92H215.685L169.996 196.767L170.686 166.292C170.686 166.292 205.246 177.024 225.896 181.735C246.548 186.455 291.654 271.027 291.654 271.027L334.307 239.649L363.448 270.963Z" fill="#1685FF"/>
<path d="M220.726 241.048L240.544 387.779C240.617 388.314 241.108 388.689 241.643 388.617C242.178 388.544 242.553 388.053 242.482 387.518L222.663 240.787C222.591 240.252 222.099 239.877 221.563 239.949C221.03 240.022 220.655 240.513 220.726 241.048Z" fill="#212757"/>
<path d="M403.65 162.831C398.936 171.573 394.135 180.872 388.677 189.169C391.713 188.06 394.834 187.214 398.043 186.731C399.928 186.453 402.286 186.524 403.176 188.21C403.705 189.214 403.467 190.48 402.861 191.441C402.254 192.391 401.33 193.097 400.418 193.769C398.413 195.245 396.365 196.66 394.29 198.018L394.423 198.225C395.874 198.997 396.893 200.326 397.482 201.864C399.81 201.871 402.002 203.414 403.101 205.474C403.513 206.237 403.789 207.074 403.936 207.921C408.02 209.157 410.497 213.724 410.283 217.996C410.076 222.309 407.649 226.24 404.637 229.335C401.149 232.905 396.801 235.625 392.066 237.19L391.934 237.231C389.557 244.759 384.358 251.193 378.21 256.177C372.682 260.654 366.398 264.076 360.009 267.227L337.108 242.79C346.492 225.296 356.889 208.35 368.242 192.058C377.004 179.478 386.598 167.03 399.47 158.701C400.805 157.839 402.665 157.04 403.874 158.081C405.177 159.205 404.461 161.312 403.65 162.831Z" fill="#FAB37E"/>
<path d="M284.557 202.181L260.211 264.487C259.616 266.003 258.15 267.01 256.517 267.01H221.186L246.997 196.767H280.853C283.649 196.767 285.573 199.581 284.557 202.181Z" fill="#1685FF"/>
<path d="M246.998 196.767L221.186 267.01C218.919 267.01 217.218 265.153 217.218 263.051C217.218 262.593 217.296 262.132 217.462 261.673L240.352 199.366C240.929 197.803 242.415 196.767 244.075 196.767H246.998Z" fill="#D1CEEE"/>
<path d="M277.256 207.362H261.02C259.337 207.362 257.959 205.985 257.959 204.301V203.902C257.959 202.219 259.337 200.842 261.02 200.842H277.256C278.939 200.842 280.316 202.219 280.316 203.902V204.301C280.316 205.985 278.939 207.362 277.256 207.362Z" fill="#212757"/>
<path d="M284.557 202.18L283.647 201.826L259.301 264.131L259.302 264.13C258.853 265.272 257.743 266.033 256.517 266.032H221.186C220.323 266.031 219.591 265.685 219.052 265.136C218.514 264.585 218.194 263.835 218.196 263.051C218.196 262.703 218.253 262.361 218.381 262.006L218.38 262.01L241.269 199.702C241.704 198.522 242.824 197.745 244.075 197.744H280.853C281.722 197.746 282.457 198.093 282.997 198.646C283.536 199.199 283.856 199.953 283.856 200.737C283.856 201.094 283.79 201.459 283.647 201.826L284.557 202.18L285.468 202.536C285.7 201.942 285.81 201.332 285.81 200.737C285.809 199.421 285.28 198.191 284.398 197.283C283.519 196.376 282.263 195.788 280.853 195.789H244.075C242.005 195.789 240.153 197.081 239.435 199.028V199.029L216.544 261.337L216.543 261.341C216.338 261.904 216.24 262.481 216.241 263.051C216.241 264.367 216.771 265.597 217.652 266.5C218.53 267.405 219.782 267.989 221.186 267.986H256.517C258.556 267.986 260.377 266.732 261.121 264.845L261.122 264.843L285.468 202.536L284.557 202.18Z" fill="#212757"/>
<path d="M280.051 226.781C278.782 231.131 275.703 234.629 272.292 237.679L272.429 237.836C272.547 241.041 271.676 244.15 270.161 246.983V246.993C268.695 253.952 264.678 261.467 259.224 267.01C259.489 271.29 256.801 275.317 253.322 277.818C249.822 280.331 245.591 281.573 241.456 282.773C230.442 285.98 209.916 289.879 202.948 291.169L188.161 257.842L188.22 257.812L199.087 251.108C199.087 251.108 202.079 235.715 215.752 229.185C215.752 229.185 234.595 208.183 239.306 209.804C243.762 211.349 228.223 235.831 226.59 238.391C231.76 241.002 237.977 241.041 243.596 239.575C249.44 238.04 254.758 235.021 259.918 231.884C265.079 228.755 270.19 225.451 275.82 223.293C277.091 222.804 278.704 222.442 279.671 223.391C280.53 224.23 280.394 225.638 280.051 226.781Z" fill="#FAB37E"/>
<path d="M205.225 296.301C183.509 321.067 161.498 341.084 140.905 355.587L139.335 438.92H45.0583L52.8652 372.319C29.5931 344.054 17.5429 261.271 20.4947 235.167C23.9546 204.595 102.896 166.292 102.896 166.292L147.171 202.035L143.907 282.09L186.774 254.724L188.161 257.842L202.948 291.169L205.225 296.301Z" fill="#1685FF"/>
<path d="M90.453 240.264L105.017 307.514C105.085 307.826 105.304 308.088 105.6 308.21C105.897 308.333 106.237 308.301 106.505 308.126L186.345 256.169L204.333 296.696L205.225 296.301L204.479 295.67C204.479 295.67 204.305 295.876 203.963 296.273C201.4 299.25 189.501 312.849 173.268 327.956C157.039 343.063 136.457 359.675 116.635 368.676C98.5556 376.891 85.7656 379.591 76.5097 379.589C70.2645 379.587 65.6231 378.369 61.9776 376.766C58.3321 375.159 55.685 373.16 53.4399 371.529C53.0034 371.212 52.3915 371.308 52.0741 371.745C51.7579 372.182 51.8539 372.792 52.2904 373.11C54.5138 374.724 57.3171 376.849 61.1904 378.554C65.0638 380.263 70.0111 381.545 76.5097 381.544C86.1509 381.543 99.1982 378.743 117.442 370.455C138.954 360.676 161.042 342.304 177.802 326.374C194.555 310.442 205.957 296.948 205.973 296.932C206.213 296.645 206.271 296.246 206.119 295.904L187.667 254.327C187.55 254.066 187.325 253.869 187.051 253.787C186.776 253.707 186.48 253.749 186.24 253.905L106.627 305.714L92.3641 239.85C92.2489 239.322 91.7292 238.988 91.2019 239.102C90.6745 239.216 90.3391 239.737 90.453 240.264Z" fill="#212757"/>
<path d="M376.928 237.388C376.944 237.33 379.986 228.877 379.991 219.269C379.989 214.668 379.292 209.788 377.164 205.438L376.286 205.868L376.677 206.764L394.68 198.914C395.174 198.699 395.401 198.123 395.185 197.627C394.97 197.133 394.394 196.907 393.898 197.123L375.896 204.972C375.65 205.08 375.462 205.279 375.369 205.532C375.276 205.784 375.29 206.058 375.408 206.298C377.358 210.272 378.039 214.864 378.036 219.269C378.037 223.867 377.299 228.249 376.558 231.471C376.188 233.082 375.818 234.404 375.541 235.318C375.403 235.776 375.289 236.132 375.21 236.371C375.169 236.492 375.138 236.582 375.118 236.643L375.088 236.728C374.905 237.237 375.17 237.796 375.678 237.978C376.187 238.161 376.746 237.896 376.928 237.388Z" fill="#212757"/>
<path d="M388.319 188.259L363.09 198.152C362.587 198.349 362.34 198.916 362.537 199.42C362.734 199.921 363.301 200.17 363.804 199.973L389.032 190.079C389.535 189.882 389.784 189.315 389.587 188.813C389.389 188.31 388.822 188.063 388.319 188.259Z" fill="#212757"/>
<path d="M396.676 201.912C396.727 202.319 396.751 202.727 396.751 203.135C396.758 205.989 395.526 208.922 394.023 211.644C390.229 218.541 384.757 224.712 377.702 227.854C377.209 228.074 376.988 228.651 377.208 229.144C377.427 229.637 378.005 229.859 378.498 229.64C386.085 226.251 391.8 219.734 395.735 212.586C397.291 209.752 398.699 206.548 398.706 203.135C398.706 202.649 398.678 202.158 398.615 201.665C398.546 201.13 398.057 200.751 397.522 200.819C396.985 200.888 396.606 201.377 396.676 201.912Z" fill="#212757"/>
<path d="M403.433 208.191C402.668 212.627 400.74 216.855 398.107 220.561C395.473 224.271 392.139 227.485 388.48 230.269C387.723 230.845 386.946 231.393 386.163 231.795C385.378 232.198 384.596 232.454 383.803 232.494L383.616 232.499C382.631 232.5 381.624 232.1 380.83 231.429C380.035 230.759 379.475 229.839 379.321 228.868C379.234 228.334 378.734 227.972 378.2 228.057C377.667 228.143 377.305 228.645 377.391 229.179C377.634 230.676 378.457 231.983 379.571 232.923C380.684 233.861 382.108 234.451 383.616 234.454L383.9 234.446C385.052 234.388 386.105 234.022 387.056 233.533C388.009 233.043 388.87 232.427 389.664 231.824C393.444 228.948 396.923 225.603 399.7 221.693C402.477 217.783 404.535 213.297 405.359 208.523C405.452 207.992 405.095 207.486 404.562 207.394C404.031 207.302 403.525 207.659 403.433 208.191Z" fill="#212757"/>
<path d="M403.665 229.394C400.997 232.212 397.434 234.154 393.704 235.648C392.604 236.092 391.541 236.462 390.517 236.53L390.189 236.541C389.283 236.543 388.422 236.276 387.864 235.762C387.45 235.394 387.176 234.781 387.183 234.264C387.183 234.031 387.231 233.82 387.325 233.634C387.568 233.152 387.375 232.564 386.892 232.321C386.411 232.078 385.823 232.271 385.58 232.754C385.336 233.238 385.228 233.759 385.228 234.264C385.236 235.389 385.727 236.453 386.549 237.208C387.585 238.144 388.926 238.495 390.189 238.496C390.343 238.496 390.498 238.491 390.65 238.481C392.04 238.382 393.288 237.919 394.433 237.463C398.297 235.912 402.122 233.861 405.084 230.739C405.455 230.347 405.438 229.728 405.047 229.357C404.655 228.985 404.037 229.002 403.665 229.394Z" fill="#212757"/>
<path d="M272.138 237.344C265.016 243.857 256.75 249.119 247.836 252.814C247.336 253.02 247.1 253.593 247.307 254.091C247.513 254.59 248.085 254.827 248.583 254.62C257.71 250.837 266.167 245.454 273.457 238.787C273.855 238.422 273.883 237.804 273.518 237.405C273.155 237.007 272.536 236.98 272.138 237.344Z" fill="#212757"/>
<path d="M269.756 246.23C263.182 253.824 254.687 259.756 245.29 263.308C244.786 263.499 244.53 264.063 244.722 264.568C244.914 265.073 245.477 265.327 245.982 265.136C255.685 261.466 264.444 255.353 271.235 247.509C271.588 247.1 271.543 246.483 271.135 246.13C270.728 245.777 270.11 245.822 269.756 246.23Z" fill="#212757"/>
<path d="M258.907 266.45C255.722 268.88 252.249 270.934 248.585 272.556C248.093 272.775 247.87 273.352 248.088 273.845C248.307 274.339 248.884 274.562 249.378 274.343C253.181 272.66 256.786 270.527 260.092 268.004C260.522 267.677 260.604 267.064 260.276 266.635C259.95 266.205 259.336 266.123 258.907 266.45Z" fill="#212757"/>
<path d="M85.4443 178.668L119.859 228.118C120.074 228.426 120.445 228.583 120.816 228.523C121.189 228.463 121.491 228.197 121.599 227.836L121.615 227.778C121.808 227.145 123.652 221.368 127.432 215.828C129.32 213.058 131.689 210.352 134.543 208.359C137.4 206.366 140.722 205.076 144.626 205.073C144.78 205.073 144.933 205.076 145.088 205.08C145.628 205.094 146.076 204.668 146.091 204.127C146.105 203.588 145.68 203.139 145.139 203.125C144.968 203.121 144.796 203.119 144.626 203.119C140.14 203.116 136.296 204.674 133.124 206.97C128.361 210.416 125.043 215.488 122.882 219.689C120.726 223.892 119.736 227.242 119.723 227.282L120.66 227.559L121.463 227L87.0482 177.551C86.7397 177.107 86.1304 176.999 85.6875 177.307C85.2446 177.615 85.1358 178.225 85.4443 178.668Z" fill="#212757"/>
<path d="M172.059 198.351L171.97 197.979L172.048 198.352L172.059 198.351L171.97 197.979L172.048 198.352C172.061 198.349 172.326 198.296 172.825 198.296C174.685 198.302 179.877 199.032 187.48 206.389C187.793 206.691 188.269 206.751 188.645 206.536C189.023 206.321 189.212 205.881 189.111 205.459L180.946 171.496C180.82 170.971 180.292 170.648 179.767 170.775C179.242 170.901 178.92 171.428 179.046 171.953L187.21 205.916L188.161 205.688L188.841 204.985C180.982 197.357 175.237 196.335 172.825 196.341C172.091 196.341 171.672 196.433 171.604 196.45C171.079 196.575 170.756 197.103 170.881 197.627C171.006 198.152 171.534 198.476 172.059 198.351Z" fill="#212757"/>
<path d="M290.988 270.31L273.052 286.978C272.657 287.346 272.634 287.964 273.001 288.359C273.369 288.755 273.988 288.777 274.382 288.409L292.319 271.742C292.715 271.375 292.737 270.756 292.369 270.361C292.002 269.965 291.384 269.942 290.988 270.31Z" fill="#212757"/>
<path d="M519.921 174.491V172.759H380.404C376.921 172.759 373.758 171.337 371.46 169.038C369.161 166.738 367.737 163.575 367.737 160.092V158.328C367.737 154.845 369.161 151.684 371.46 149.383C373.758 147.084 376.921 145.662 380.404 145.661H519.921C523.402 145.662 526.565 147.084 528.865 149.383C531.163 151.684 532.586 154.845 532.586 158.328V160.092C532.586 163.575 531.163 166.738 528.865 169.038C526.565 171.337 523.402 172.759 519.921 172.759V174.491C527.845 174.488 534.316 168.018 534.318 160.092V158.328C534.316 150.404 527.845 143.933 519.921 143.929H380.404C372.48 143.933 366.009 150.404 366.005 158.328V160.092C366.009 168.018 372.48 174.488 380.404 174.491H519.921Z" fill="#212757"/>
<path d="M391.855 101.225L398.2 114.08L412.386 116.141L402.12 126.148L404.545 140.277L391.855 133.606L379.166 140.277L381.59 126.148L371.324 116.141L385.511 114.08L391.855 101.225Z" fill="#1685FF"/>
<path d="M391.855 148.272L395.41 155.474L403.358 156.628L397.607 162.234L398.963 170.149L391.855 166.412L384.748 170.149L386.106 162.234L380.354 156.628L388.302 155.474L391.855 148.272Z" fill="white"/>
<path d="M421.897 148.272L425.452 155.474L433.399 156.628L427.648 162.234L429.006 170.149L421.897 166.412L414.789 170.149L416.146 162.234L410.396 156.628L418.344 155.474L421.897 148.272Z" fill="#1685FF"/>
<path d="M453.472 148.272L457.026 155.474L464.974 156.628L459.224 162.234L460.581 170.149L453.472 166.412L446.365 170.149L447.722 162.234L441.971 156.628L449.918 155.474L453.472 148.272Z" fill="#1685FF"/>
<path d="M483.514 148.272L487.068 155.474L495.016 156.628L489.265 162.234L490.623 170.149L483.514 166.412L476.406 170.149L477.764 162.234L472.013 156.628L479.96 155.474L483.514 148.272Z" fill="#1685FF"/>
<path d="M514.255 148.272L517.809 155.474L525.756 156.628L520.006 162.234L521.363 170.149L514.255 166.412L507.146 170.149L508.504 162.234L502.753 156.628L510.701 155.474L514.255 148.272Z" fill="#1685FF"/>
</svg>
