<?xml version="1.0" encoding="UTF-8" standalone="no"?><!DOCTYPE svg PUBLIC "-//W3C//DTD SVG 1.1//EN" "http://www.w3.org/Graphics/SVG/1.1/DTD/svg11.dtd"><svg width="100%" height="100%" viewBox="0 0 98 98" version="1.1" xmlns="http://www.w3.org/2000/svg" xmlns:xlink="http://www.w3.org/1999/xlink" xml:space="preserve" xmlns:serif="http://www.serif.com/" style="fill-rule:evenodd;clip-rule:evenodd;stroke-linejoin:round;stroke-miterlimit:2;"><rect id="Artboard1" x="0" y="0" width="98" height="98" style="fill:none;"/><path d="M76.297,39.251c0.208,0.361 0.593,0.583 1.01,0.583c0.417,-0 0.803,-0.222 1.011,-0.583l10.282,-17.809c0.208,-0.361 0.208,-0.806 -0,-1.166c-0.208,-0.361 -0.593,-0.584 -1.011,-0.584l-20.563,0c-0.417,0 -0.802,0.223 -1.011,0.584c-0.208,0.36 -0.208,0.805 0,1.166l2.703,4.681l-14.452,8.344c-0.131,0.065 -0.256,0.137 -0.38,0.214l-0,-14.539l5.397,-0c0.417,-0 0.802,-0.223 1.01,-0.584c0.208,-0.36 0.208,-0.805 0,-1.166l-10.282,-17.809c-0.208,-0.361 -0.593,-0.583 -1.01,-0.583c-0.418,0 -0.803,0.222 -1.011,0.583l-10.282,17.809c-0.208,0.361 -0.208,0.806 -0,1.166c0.208,0.361 0.593,0.584 1.01,0.584l5.396,-0l0,14.539c-0.123,-0.076 -0.249,-0.149 -0.38,-0.214l-14.452,-8.344l2.703,-4.681c0.208,-0.361 0.208,-0.806 -0,-1.166c-0.209,-0.361 -0.594,-0.584 -1.011,-0.584l-20.563,0c-0.418,0 -0.803,0.223 -1.011,0.584c-0.208,0.36 -0.208,0.805 0,1.166l10.282,17.809c0.208,0.361 0.594,0.583 1.011,0.583c0.417,-0 0.802,-0.222 1.01,-0.583l2.703,-4.681l2.494,1.44l-5.661,5.661c-0.67,0.67 -1.039,1.562 -1.039,2.512c0,0.949 0.369,1.841 1.039,2.511l1.722,1.722c-1.213,2.136 -2.155,4.407 -2.808,6.772l-2.432,-0c-1.959,-0 -3.552,1.593 -3.552,3.551l0,8.859c0,1.959 1.594,3.552 3.552,3.552l2.432,-0c0.652,2.363 1.594,4.634 2.808,6.771l-1.722,1.723c-1.385,1.384 -1.385,3.638 -0,5.022l6.264,6.265c1.385,1.384 3.638,1.384 5.023,-0l1.722,-1.723c2.137,1.213 4.407,2.154 6.77,2.806l0,2.434c0,1.959 1.594,3.552 3.552,3.552l8.859,-0c1.959,-0 3.552,-1.594 3.552,-3.552l-0,-2.431c2.363,-0.653 4.634,-1.594 6.771,-2.808l1.722,1.722c1.385,1.384 3.638,1.384 5.023,-0l6.264,-6.265c1.385,-1.384 1.385,-3.638 0,-5.022l-1.723,-1.723c1.213,-2.137 2.155,-4.407 2.807,-6.77l2.434,0c1.959,0 3.552,-1.594 3.552,-3.552l-0,-8.859c-0,-1.957 -1.594,-3.551 -3.552,-3.551l-2.434,-0c-0.652,-2.363 -1.594,-4.633 -2.808,-6.771l1.723,-1.723c1.385,-1.385 1.385,-3.638 0,-5.023l-5.661,-5.661l2.494,-1.44l2.703,4.681l0.001,-0.001Zm-35.559,-21.442l8.261,-14.309l8.262,14.309l-4.543,-0c-0.644,-0 -1.166,0.522 -1.166,1.166l-0,62.338c-0.835,0.117 -1.687,0.178 -2.553,0.178c-0.865,-0 -1.717,-0.062 -2.552,-0.178l0,-62.338c0,-0.644 -0.522,-1.166 -1.166,-1.166l-4.543,-0Zm-16.177,14.157c-0.268,-0.155 -0.586,-0.197 -0.885,-0.117c-0.299,0.08 -0.554,0.276 -0.709,0.544l-2.275,3.941l-8.261,-14.309l16.522,0l-2.276,3.942c-0.322,0.558 -0.13,1.272 0.428,1.594l15.496,8.947c0.024,0.013 0.049,0.027 0.073,0.039c0.888,0.431 1.439,1.311 1.439,2.297l-0,41.985c-1.832,-0.507 -3.55,-1.293 -5.105,-2.308l0,-37.539c0,-0.418 -0.222,-0.803 -0.583,-1.011l-13.865,-8.004l0.001,-0.001Zm50.551,11.354c0.475,0.475 0.475,1.249 0,1.724l-2.362,2.362c-0.38,0.38 -0.451,0.971 -0.171,1.432c1.476,2.424 2.563,5.045 3.231,7.792c0.127,0.522 0.595,0.891 1.133,0.891l3.336,-0c0.672,-0 1.219,0.547 1.219,1.218l-0,8.859c-0,0.672 -0.547,1.219 -1.219,1.219l-3.336,-0c-0.538,-0 -1.006,0.368 -1.133,0.891c-0.668,2.747 -1.755,5.369 -3.231,7.793c-0.28,0.459 -0.209,1.051 0.171,1.432l2.361,2.361c0.475,0.475 0.475,1.248 0,1.723l-6.264,6.265c-0.475,0.475 -1.249,0.475 -1.724,-0l-2.36,-2.361c-0.381,-0.381 -0.973,-0.452 -1.433,-0.172c-2.422,1.477 -5.044,2.564 -7.793,3.232c-0.522,0.127 -0.891,0.596 -0.891,1.134l0,3.334c0,0.672 -0.546,1.219 -1.218,1.219l-8.859,-0c-0.672,-0 -1.219,-0.547 -1.219,-1.219l0,-3.336c0,-0.537 -0.368,-1.006 -0.891,-1.133c-2.747,-0.667 -5.369,-1.754 -7.793,-3.231c-0.459,-0.28 -1.051,-0.209 -1.432,0.172l-2.361,2.361c-0.475,0.475 -1.248,0.475 -1.723,-0l-6.265,-6.265c-0.474,-0.475 -0.474,-1.248 0,-1.723l2.361,-2.361c0.381,-0.381 0.452,-0.973 0.172,-1.432c-1.477,-2.423 -2.564,-5.045 -3.232,-7.793c-0.127,-0.523 -0.596,-0.891 -1.133,-0.891l-3.335,-0c-0.672,-0 -1.219,-0.547 -1.219,-1.219l0,-8.859c0,-0.671 0.547,-1.218 1.219,-1.218l3.335,-0c0.537,-0 1.006,-0.369 1.133,-0.891c0.668,-2.75 1.755,-5.372 3.232,-7.793c0.28,-0.46 0.209,-1.052 -0.172,-1.432l-2.359,-2.36c-0.475,-0.475 -0.475,-1.249 -0,-1.723l6.102,-6.103l7.686,4.437l0,4.935c-5.23,3.893 -8.333,10.044 -8.333,16.579c0,11.39 9.266,20.656 20.656,20.656c11.39,0 20.657,-9.266 20.657,-20.656c-0,-6.535 -3.104,-12.685 -8.333,-16.579l-0,-4.935l7.685,-4.437l6.103,6.103l0.002,-0.002Zm-38.436,6.292l0,27.105c-3.683,-3.353 -6,-8.186 -6,-13.548c0,-5.19 2.208,-10.106 6,-13.557Zm24.647,27.105l-0,-27.105c3.792,3.451 6,8.367 6,13.557c-0,5.362 -2.316,10.195 -6,13.548Zm-1.75,-36.746c-0.361,0.208 -0.584,0.593 -0.584,1.011l0,37.539c-1.555,1.015 -3.271,1.801 -5.104,2.308l-0,-41.985c-0,-0.986 0.551,-1.866 1.439,-2.297c0.025,-0.012 0.05,-0.026 0.073,-0.039l15.496,-8.947c0.558,-0.322 0.75,-1.036 0.427,-1.594l-2.275,-3.942l16.522,0l-8.261,14.309l-2.276,-3.941c-0.322,-0.558 -1.036,-0.749 -1.593,-0.427l-13.865,8.004l0.001,0.001Z" style="fill:url(#_Linear1);fill-rule:nonzero;"/><defs><linearGradient id="_Linear1" x1="0" y1="0" x2="1" y2="0" gradientUnits="userSpaceOnUse" gradientTransform="matrix(79.5119,0,0,98,9.24405,49.2358)"><stop offset="0" style="stop-color:#1685ff;stop-opacity:1"/><stop offset="0.5" style="stop-color:#8b5cf6;stop-opacity:1"/><stop offset="1" style="stop-color:#d946ef;stop-opacity:1"/></linearGradient></defs></svg>