<svg width="500" height="500" viewBox="0 0 500 500" fill="none" xmlns="http://www.w3.org/2000/svg">
<path d="M500 382.398H0V382.648H500V382.398Z" fill="#EBEBEB"/>
<path d="M449.901 398.494H416.779V398.744H449.901V398.494Z" fill="#EBEBEB"/>
<path d="M331.22 401.208H322.527V401.458H331.22V401.208Z" fill="#EBEBEB"/>
<path d="M415.778 389.208H396.586V389.458H415.778V389.208Z" fill="#EBEBEB"/>
<path d="M95.652 390.888H52.459V391.138H95.652V390.888Z" fill="#EBEBEB"/>
<path d="M110.889 390.888H104.556V391.138H110.889V390.888Z" fill="#EBEBEB"/>
<path d="M225.147 395.111H131.471V395.361H225.147V395.111Z" fill="#EBEBEB"/>
<path d="M237.014 337.8H43.915C40.768 337.8 38.207 335.239 38.207 332.092V60.6599C38.207 57.5129 40.768 54.9519 43.915 54.9519H237.014C240.16 54.9519 242.721 57.5129 242.721 60.6599V332.092C242.721 335.239 240.16 337.8 237.014 337.8ZM43.915 55.2029C40.905 55.2029 38.457 57.6509 38.457 60.6609V332.093C38.457 335.103 40.905 337.551 43.915 337.551H237.014C240.023 337.551 242.471 335.103 242.471 332.093V60.6599C242.471 57.6509 240.023 55.2019 237.014 55.2019L43.915 55.2029Z" fill="#EBEBEB"/>
<path d="M453.31 337.8H260.212C257.065 337.8 254.505 335.239 254.505 332.092V60.6599C254.505 57.5129 257.066 54.9519 260.212 54.9519H453.31C456.458 54.9519 459.018 57.5129 459.018 60.6599V332.092C459.019 335.239 456.458 337.8 453.31 337.8ZM260.212 55.2029C257.203 55.2029 254.755 57.6509 254.755 60.6609V332.093C254.755 335.103 257.203 337.551 260.212 337.551H453.31C456.32 337.551 458.768 335.103 458.768 332.093V60.6599C458.768 57.6509 456.32 55.2019 453.31 55.2019L260.212 55.2029Z" fill="#EBEBEB"/>
<path d="M63.384 381.709V335.338H67.349V313.244H73.145V236.423H81.523V226.51L99.413 218.167V208.172H101.891V236.423H105.36V313.244H108.829V272.851H118.246V252.035H120.874V313.244H128.026V289.95H132.734V284.002H143.638V263.682H149.609V249.309H156.949V228.369H159.569V249.309H166.909V263.682H172.88V284.002H183.783V289.95H188.492V313.244H194.076V284.002H204.98V221.058H208.449V214.12H231.743V221.058H236.7V266.655H256.525V271.116H263.959V274.585H256.525V292.428H277.341V232.953H281.801V220.315H291.466V175.461H294.192V220.315H301.13V232.953H341.809V228.793H344.287V257.044H347.757V257.539H349.84V285.79H353.31V293.472H360.643V272.656H363.27V322.218H366.196V301.402H368.824V333.865H370.422V310.571H375.131V304.623H386.035V284.303H392.006V269.93H399.346V248.99H401.965V269.93H409.305V284.303H415.276V304.623H426.18V310.571H430.888V333.369H431.733V333.865H434.065V381.709H63.384Z" fill="#EBEBEB"/>
<path d="M319.112 235.732H316.303V238.541H319.112V235.732Z" fill="#F5F5F5"/>
<path d="M319.112 240.441H316.303V243.25H319.112V240.441Z" fill="#F5F5F5"/>
<path d="M319.112 259.274H316.303V262.083H319.112V259.274Z" fill="#F5F5F5"/>
<path d="M319.112 263.983H316.303V266.792H319.112V263.983Z" fill="#F5F5F5"/>
<path d="M319.112 268.691H316.303V271.5H319.112V268.691Z" fill="#F5F5F5"/>
<path d="M319.112 282.816H316.303V285.625H319.112V282.816Z" fill="#F5F5F5"/>
<path d="M319.112 287.525H316.303V290.334H319.112V287.525Z" fill="#F5F5F5"/>
<path d="M314.652 254.566H311.843V257.375H314.652V254.566Z" fill="#F5F5F5"/>
<path d="M314.652 259.274H311.843V262.083H314.652V259.274Z" fill="#F5F5F5"/>
<path d="M314.652 263.983H311.843V266.792H314.652V263.983Z" fill="#F5F5F5"/>
<path d="M314.652 268.691H311.843V271.5H314.652V268.691Z" fill="#F5F5F5"/>
<path d="M314.652 273.4H311.843V276.209H314.652V273.4Z" fill="#F5F5F5"/>
<path d="M314.652 282.816H311.843V285.625H314.652V282.816Z" fill="#F5F5F5"/>
<path d="M314.652 287.525H311.843V290.334H314.652V287.525Z" fill="#F5F5F5"/>
<path d="M310.191 235.732H307.382V238.541H310.191V235.732Z" fill="#F5F5F5"/>
<path d="M310.191 240.441H307.382V243.25H310.191V240.441Z" fill="#F5F5F5"/>
<path d="M310.191 245.149H307.382V247.958H310.191V245.149Z" fill="#F5F5F5"/>
<path d="M310.191 249.857H307.382V252.666H310.191V249.857Z" fill="#F5F5F5"/>
<path d="M310.191 254.566H307.382V257.375H310.191V254.566Z" fill="#F5F5F5"/>
<path d="M310.191 259.274H307.382V262.083H310.191V259.274Z" fill="#F5F5F5"/>
<path d="M310.191 263.983H307.382V266.792H310.191V263.983Z" fill="#F5F5F5"/>
<path d="M310.191 268.691H307.382V271.5H310.191V268.691Z" fill="#F5F5F5"/>
<path d="M310.191 273.4H307.382V276.209H310.191V273.4Z" fill="#F5F5F5"/>
<path d="M310.191 278.108H307.382V280.917H310.191V278.108Z" fill="#F5F5F5"/>
<path d="M310.191 287.525H307.382V290.334H310.191V287.525Z" fill="#F5F5F5"/>
<path d="M305.731 235.732H302.922V238.541H305.731V235.732Z" fill="#F5F5F5"/>
<path d="M305.731 240.441H302.922V243.25H305.731V240.441Z" fill="#F5F5F5"/>
<path d="M305.731 245.149H302.922V247.958H305.731V245.149Z" fill="#F5F5F5"/>
<path d="M305.731 249.857H302.922V252.666H305.731V249.857Z" fill="#F5F5F5"/>
<path d="M305.731 254.566H302.922V257.375H305.731V254.566Z" fill="#F5F5F5"/>
<path d="M305.731 259.274H302.922V262.083H305.731V259.274Z" fill="#F5F5F5"/>
<path d="M305.731 263.983H302.922V266.792H305.731V263.983Z" fill="#F5F5F5"/>
<path d="M305.731 306.358H302.922V309.167H305.731V306.358Z" fill="#F5F5F5"/>
<path d="M301.27 235.732H298.461V238.541H301.27V235.732Z" fill="#F5F5F5"/>
<path d="M301.27 240.441H298.461V243.25H301.27V240.441Z" fill="#F5F5F5"/>
<path d="M301.27 245.149H298.461V247.958H301.27V245.149Z" fill="#F5F5F5"/>
<path d="M301.27 249.857H298.461V252.666H301.27V249.857Z" fill="#F5F5F5"/>
<path d="M301.27 254.566H298.461V257.375H301.27V254.566Z" fill="#F5F5F5"/>
<path d="M301.27 259.274H298.461V262.083H301.27V259.274Z" fill="#F5F5F5"/>
<path d="M301.27 263.983H298.461V266.792H301.27V263.983Z" fill="#F5F5F5"/>
<path d="M301.27 268.691H298.461V271.5H301.27V268.691Z" fill="#F5F5F5"/>
<path d="M301.27 296.941H298.461V299.75H301.27V296.941Z" fill="#F5F5F5"/>
<path d="M301.27 301.65H298.461V304.459H301.27V301.65Z" fill="#F5F5F5"/>
<path d="M301.27 306.358H298.461V309.167H301.27V306.358Z" fill="#F5F5F5"/>
<path d="M301.27 311.067H298.461V313.876H301.27V311.067Z" fill="#F5F5F5"/>
<path d="M301.27 329.9H298.461V332.709H301.27V329.9Z" fill="#F5F5F5"/>
<path d="M296.809 235.732H294V238.541H296.809V235.732Z" fill="#F5F5F5"/>
<path d="M296.809 240.441H294V243.25H296.809V240.441Z" fill="#F5F5F5"/>
<path d="M296.809 245.149H294V247.958H296.809V245.149Z" fill="#F5F5F5"/>
<path d="M296.809 249.857H294V252.666H296.809V249.857Z" fill="#F5F5F5"/>
<path d="M296.809 254.566H294V257.375H296.809V254.566Z" fill="#F5F5F5"/>
<path d="M296.809 259.274H294V262.083H296.809V259.274Z" fill="#F5F5F5"/>
<path d="M296.809 263.983H294V266.792H296.809V263.983Z" fill="#F5F5F5"/>
<path d="M296.809 268.691H294V271.5H296.809V268.691Z" fill="#F5F5F5"/>
<path d="M296.809 273.4H294V276.209H296.809V273.4Z" fill="#F5F5F5"/>
<path d="M296.809 278.108H294V280.917H296.809V278.108Z" fill="#F5F5F5"/>
<path d="M296.809 292.233H294V295.042H296.809V292.233Z" fill="#F5F5F5"/>
<path d="M296.809 296.941H294V299.75H296.809V296.941Z" fill="#F5F5F5"/>
<path d="M296.809 301.65H294V304.459H296.809V301.65Z" fill="#F5F5F5"/>
<path d="M296.809 306.358H294V309.167H296.809V306.358Z" fill="#F5F5F5"/>
<path d="M296.809 311.067H294V313.876H296.809V311.067Z" fill="#F5F5F5"/>
<path d="M296.809 329.9H294V332.709H296.809V329.9Z" fill="#F5F5F5"/>
<path d="M292.349 235.732H289.54V238.541H292.349V235.732Z" fill="#F5F5F5"/>
<path d="M292.349 240.441H289.54V243.25H292.349V240.441Z" fill="#F5F5F5"/>
<path d="M292.349 245.149H289.54V247.958H292.349V245.149Z" fill="#F5F5F5"/>
<path d="M292.349 249.857H289.54V252.666H292.349V249.857Z" fill="#F5F5F5"/>
<path d="M292.349 254.566H289.54V257.375H292.349V254.566Z" fill="#F5F5F5"/>
<path d="M292.349 259.274H289.54V262.083H292.349V259.274Z" fill="#F5F5F5"/>
<path d="M292.349 263.983H289.54V266.792H292.349V263.983Z" fill="#F5F5F5"/>
<path d="M292.349 268.691H289.54V271.5H292.349V268.691Z" fill="#F5F5F5"/>
<path d="M292.349 273.4H289.54V276.209H292.349V273.4Z" fill="#F5F5F5"/>
<path d="M292.349 278.108H289.54V280.917H292.349V278.108Z" fill="#F5F5F5"/>
<path d="M292.349 282.816H289.54V285.625H292.349V282.816Z" fill="#F5F5F5"/>
<path d="M292.349 287.525H289.54V290.334H292.349V287.525Z" fill="#F5F5F5"/>
<path d="M292.349 292.233H289.54V295.042H292.349V292.233Z" fill="#F5F5F5"/>
<path d="M292.349 296.941H289.54V299.75H292.349V296.941Z" fill="#F5F5F5"/>
<path d="M292.349 301.65H289.54V304.459H292.349V301.65Z" fill="#F5F5F5"/>
<path d="M292.349 306.358H289.54V309.167H292.349V306.358Z" fill="#F5F5F5"/>
<path d="M292.349 311.067H289.54V313.876H292.349V311.067Z" fill="#F5F5F5"/>
<path d="M292.349 315.775H289.54V318.584H292.349V315.775Z" fill="#F5F5F5"/>
<path d="M287.888 235.732H285.079V238.541H287.888V235.732Z" fill="#F5F5F5"/>
<path d="M287.888 240.441H285.079V243.25H287.888V240.441Z" fill="#F5F5F5"/>
<path d="M287.888 245.149H285.079V247.958H287.888V245.149Z" fill="#F5F5F5"/>
<path d="M287.888 249.857H285.079V252.666H287.888V249.857Z" fill="#F5F5F5"/>
<path d="M287.888 254.566H285.079V257.375H287.888V254.566Z" fill="#F5F5F5"/>
<path d="M287.888 259.274H285.079V262.083H287.888V259.274Z" fill="#F5F5F5"/>
<path d="M287.888 263.983H285.079V266.792H287.888V263.983Z" fill="#F5F5F5"/>
<path d="M287.888 268.691H285.079V271.5H287.888V268.691Z" fill="#F5F5F5"/>
<path d="M287.888 273.4H285.079V276.209H287.888V273.4Z" fill="#F5F5F5"/>
<path d="M287.888 278.108H285.079V280.917H287.888V278.108Z" fill="#F5F5F5"/>
<path d="M287.888 292.233H285.079V295.042H287.888V292.233Z" fill="#F5F5F5"/>
<path d="M287.888 296.941H285.079V299.75H287.888V296.941Z" fill="#F5F5F5"/>
<path d="M287.888 301.65H285.079V304.459H287.888V301.65Z" fill="#F5F5F5"/>
<path d="M287.888 306.358H285.079V309.167H287.888V306.358Z" fill="#F5F5F5"/>
<path d="M283.428 235.732H280.619V238.541H283.428V235.732Z" fill="#F5F5F5"/>
<path d="M283.428 240.441H280.619V243.25H283.428V240.441Z" fill="#F5F5F5"/>
<path d="M283.428 245.149H280.619V247.958H283.428V245.149Z" fill="#F5F5F5"/>
<path d="M283.428 249.857H280.619V252.666H283.428V249.857Z" fill="#F5F5F5"/>
<path d="M283.428 254.566H280.619V257.375H283.428V254.566Z" fill="#F5F5F5"/>
<path d="M283.428 259.274H280.619V262.083H283.428V259.274Z" fill="#F5F5F5"/>
<path d="M283.428 263.983H280.619V266.792H283.428V263.983Z" fill="#F5F5F5"/>
<path d="M283.428 268.691H280.619V271.5H283.428V268.691Z" fill="#F5F5F5"/>
<path d="M283.428 273.4H280.619V276.209H283.428V273.4Z" fill="#F5F5F5"/>
<path d="M283.428 278.108H280.619V280.917H283.428V278.108Z" fill="#F5F5F5"/>
<path d="M283.428 292.233H280.619V295.042H283.428V292.233Z" fill="#F5F5F5"/>
<path d="M283.428 296.941H280.619V299.75H283.428V296.941Z" fill="#F5F5F5"/>
<path d="M283.428 301.65H280.619V304.459H283.428V301.65Z" fill="#F5F5F5"/>
<path d="M233.205 223.507H230.396V226.316H233.205V223.507Z" fill="#F5F5F5"/>
<path d="M233.205 228.215H230.396V231.024H233.205V228.215Z" fill="#F5F5F5"/>
<path d="M233.205 232.924H230.396V235.733H233.205V232.924Z" fill="#F5F5F5"/>
<path d="M233.205 237.632H230.396V240.441H233.205V237.632Z" fill="#F5F5F5"/>
<path d="M233.205 242.341H230.396V245.15H233.205V242.341Z" fill="#F5F5F5"/>
<path d="M233.205 247.049H230.396V249.858H233.205V247.049Z" fill="#F5F5F5"/>
<path d="M233.205 251.757H230.396V254.566H233.205V251.757Z" fill="#F5F5F5"/>
<path d="M233.205 256.466H230.396V259.275H233.205V256.466Z" fill="#F5F5F5"/>
<path d="M233.205 270.591H230.396V273.4H233.205V270.591Z" fill="#F5F5F5"/>
<path d="M233.205 275.299H230.396V278.108H233.205V275.299Z" fill="#F5F5F5"/>
<path d="M228.744 223.507H225.935V226.316H228.744V223.507Z" fill="#F5F5F5"/>
<path d="M228.744 228.215H225.935V231.024H228.744V228.215Z" fill="#F5F5F5"/>
<path d="M228.744 232.924H225.935V235.733H228.744V232.924Z" fill="#F5F5F5"/>
<path d="M228.744 237.632H225.935V240.441H228.744V237.632Z" fill="#F5F5F5"/>
<path d="M228.744 242.341H225.935V245.15H228.744V242.341Z" fill="#F5F5F5"/>
<path d="M228.744 247.049H225.935V249.858H228.744V247.049Z" fill="#F5F5F5"/>
<path d="M228.744 251.757H225.935V254.566H228.744V251.757Z" fill="#F5F5F5"/>
<path d="M228.744 256.466H225.935V259.275H228.744V256.466Z" fill="#F5F5F5"/>
<path d="M228.744 275.299H225.935V278.108H228.744V275.299Z" fill="#F5F5F5"/>
<path d="M224.284 223.507H221.475V226.316H224.284V223.507Z" fill="#F5F5F5"/>
<path d="M224.284 228.215H221.475V231.024H224.284V228.215Z" fill="#F5F5F5"/>
<path d="M224.284 232.924H221.475V235.733H224.284V232.924Z" fill="#F5F5F5"/>
<path d="M224.284 237.632H221.475V240.441H224.284V237.632Z" fill="#F5F5F5"/>
<path d="M224.284 242.341H221.475V245.15H224.284V242.341Z" fill="#F5F5F5"/>
<path d="M224.284 247.049H221.475V249.858H224.284V247.049Z" fill="#F5F5F5"/>
<path d="M224.284 251.757H221.475V254.566H224.284V251.757Z" fill="#F5F5F5"/>
<path d="M224.284 256.466H221.475V259.275H224.284V256.466Z" fill="#F5F5F5"/>
<path d="M219.823 223.507H217.014V226.316H219.823V223.507Z" fill="#F5F5F5"/>
<path d="M219.823 228.215H217.014V231.024H219.823V228.215Z" fill="#F5F5F5"/>
<path d="M219.823 232.924H217.014V235.733H219.823V232.924Z" fill="#F5F5F5"/>
<path d="M219.823 237.632H217.014V240.441H219.823V237.632Z" fill="#F5F5F5"/>
<path d="M219.823 242.341H217.014V245.15H219.823V242.341Z" fill="#F5F5F5"/>
<path d="M219.823 247.049H217.014V249.858H219.823V247.049Z" fill="#F5F5F5"/>
<path d="M219.823 256.466H217.014V259.275H219.823V256.466Z" fill="#F5F5F5"/>
<path d="M219.823 261.174H217.014V263.983H219.823V261.174Z" fill="#F5F5F5"/>
<path d="M219.823 275.299H217.014V278.108H219.823V275.299Z" fill="#F5F5F5"/>
<path d="M219.823 280.008H217.014V282.817H219.823V280.008Z" fill="#F5F5F5"/>
<path d="M219.823 284.716H217.014V287.525H219.823V284.716Z" fill="#F5F5F5"/>
<path d="M219.823 289.425H217.014V292.234H219.823V289.425Z" fill="#F5F5F5"/>
<path d="M219.823 294.133H217.014V296.941H219.823V294.133Z" fill="#F5F5F5"/>
<path d="M219.823 298.841H217.014V301.65H219.823V298.841Z" fill="#F5F5F5"/>
<path d="M219.823 303.55H217.014V306.359H219.823V303.55Z" fill="#F5F5F5"/>
<path d="M215.362 223.507H212.553V226.316H215.362V223.507Z" fill="#F5F5F5"/>
<path d="M215.362 228.215H212.553V231.024H215.362V228.215Z" fill="#F5F5F5"/>
<path d="M215.362 232.924H212.553V235.733H215.362V232.924Z" fill="#F5F5F5"/>
<path d="M215.362 237.632H212.553V240.441H215.362V237.632Z" fill="#F5F5F5"/>
<path d="M215.362 242.341H212.553V245.15H215.362V242.341Z" fill="#F5F5F5"/>
<path d="M215.362 247.049H212.553V249.858H215.362V247.049Z" fill="#F5F5F5"/>
<path d="M215.362 261.174H212.553V263.983H215.362V261.174Z" fill="#F5F5F5"/>
<path d="M215.362 265.883H212.553V268.692H215.362V265.883Z" fill="#F5F5F5"/>
<path d="M215.362 270.591H212.553V273.4H215.362V270.591Z" fill="#F5F5F5"/>
<path d="M215.362 275.299H212.553V278.108H215.362V275.299Z" fill="#F5F5F5"/>
<path d="M215.362 280.008H212.553V282.817H215.362V280.008Z" fill="#F5F5F5"/>
<path d="M215.362 284.716H212.553V287.525H215.362V284.716Z" fill="#F5F5F5"/>
<path d="M215.362 289.425H212.553V292.234H215.362V289.425Z" fill="#F5F5F5"/>
<path d="M215.362 294.133H212.553V296.941H215.362V294.133Z" fill="#F5F5F5"/>
<path d="M215.362 298.841H212.553V301.65H215.362V298.841Z" fill="#F5F5F5"/>
<path d="M215.362 303.55H212.553V306.359H215.362V303.55Z" fill="#F5F5F5"/>
<path d="M215.362 308.258H212.553V311.067H215.362V308.258Z" fill="#F5F5F5"/>
<path d="M215.362 317.675H212.553V320.483H215.362V317.675Z" fill="#F5F5F5"/>
<path d="M210.902 223.507H208.093V226.316H210.902V223.507Z" fill="#F5F5F5"/>
<path d="M210.902 228.215H208.093V231.024H210.902V228.215Z" fill="#F5F5F5"/>
<path d="M210.902 232.924H208.093V235.733H210.902V232.924Z" fill="#F5F5F5"/>
<path d="M210.902 237.632H208.093V240.441H210.902V237.632Z" fill="#F5F5F5"/>
<path d="M210.902 242.341H208.093V245.15H210.902V242.341Z" fill="#F5F5F5"/>
<path d="M210.902 247.049H208.093V249.858H210.902V247.049Z" fill="#F5F5F5"/>
<path d="M210.902 261.174H208.093V263.983H210.902V261.174Z" fill="#F5F5F5"/>
<path d="M210.902 265.883H208.093V268.692H210.902V265.883Z" fill="#F5F5F5"/>
<path d="M210.902 270.591H208.093V273.4H210.902V270.591Z" fill="#F5F5F5"/>
<path d="M210.902 275.299H208.093V278.108H210.902V275.299Z" fill="#F5F5F5"/>
<path d="M210.902 289.425H208.093V292.234H210.902V289.425Z" fill="#F5F5F5"/>
<path d="M210.902 294.133H208.093V296.941H210.902V294.133Z" fill="#F5F5F5"/>
<path d="M210.902 298.841H208.093V301.65H210.902V298.841Z" fill="#F5F5F5"/>
<path d="M210.902 303.55H208.093V306.359H210.902V303.55Z" fill="#F5F5F5"/>
<path d="M210.902 308.258H208.093V311.067H210.902V308.258Z" fill="#F5F5F5"/>
<path d="M210.902 317.675H208.093V320.483H210.902V317.675Z" fill="#F5F5F5"/>
<path d="M210.902 322.383H208.093V325.192H210.902V322.383Z" fill="#F5F5F5"/>
<path d="M170.426 267.287H167.617V270.096H170.426V267.287Z" fill="#F5F5F5"/>
<path d="M170.426 271.995H167.617V274.804H170.426V271.995Z" fill="#F5F5F5"/>
<path d="M170.426 276.704H167.617V279.513H170.426V276.704Z" fill="#F5F5F5"/>
<path d="M170.426 281.412H167.617V284.221H170.426V281.412Z" fill="#F5F5F5"/>
<path d="M170.426 286.121H167.617V288.93H170.426V286.121Z" fill="#F5F5F5"/>
<path d="M170.426 290.829H167.617V293.638H170.426V290.829Z" fill="#F5F5F5"/>
<path d="M170.426 295.537H167.617V298.346H170.426V295.537Z" fill="#F5F5F5"/>
<path d="M170.426 309.663H167.617V312.472H170.426V309.663Z" fill="#F5F5F5"/>
<path d="M170.426 314.371H167.617V317.18H170.426V314.371Z" fill="#F5F5F5"/>
<path d="M170.426 319.079H167.617V321.888H170.426V319.079Z" fill="#F5F5F5"/>
<path d="M165.965 267.287H163.156V270.096H165.965V267.287Z" fill="#F5F5F5"/>
<path d="M165.965 271.995H163.156V274.804H165.965V271.995Z" fill="#F5F5F5"/>
<path d="M165.965 276.704H163.156V279.513H165.965V276.704Z" fill="#F5F5F5"/>
<path d="M165.965 281.412H163.156V284.221H165.965V281.412Z" fill="#F5F5F5"/>
<path d="M165.965 286.121H163.156V288.93H165.965V286.121Z" fill="#F5F5F5"/>
<path d="M165.965 290.829H163.156V293.638H165.965V290.829Z" fill="#F5F5F5"/>
<path d="M165.965 295.537H163.156V298.346H165.965V295.537Z" fill="#F5F5F5"/>
<path d="M161.505 267.287H158.696V270.096H161.505V267.287Z" fill="#F5F5F5"/>
<path d="M161.505 271.995H158.696V274.804H161.505V271.995Z" fill="#F5F5F5"/>
<path d="M161.505 276.704H158.696V279.513H161.505V276.704Z" fill="#F5F5F5"/>
<path d="M161.505 281.412H158.696V284.221H161.505V281.412Z" fill="#F5F5F5"/>
<path d="M161.505 286.121H158.696V288.93H161.505V286.121Z" fill="#F5F5F5"/>
<path d="M161.505 290.829H158.696V293.638H161.505V290.829Z" fill="#F5F5F5"/>
<path d="M161.505 295.537H158.696V298.346H161.505V295.537Z" fill="#F5F5F5"/>
<path d="M157.044 267.287H154.235V270.096H157.044V267.287Z" fill="#F5F5F5"/>
<path d="M157.044 271.995H154.235V274.804H157.044V271.995Z" fill="#F5F5F5"/>
<path d="M157.044 276.704H154.235V279.513H157.044V276.704Z" fill="#F5F5F5"/>
<path d="M157.044 281.412H154.235V284.221H157.044V281.412Z" fill="#F5F5F5"/>
<path d="M157.044 286.121H154.235V288.93H157.044V286.121Z" fill="#F5F5F5"/>
<path d="M157.044 290.829H154.235V293.638H157.044V290.829Z" fill="#F5F5F5"/>
<path d="M157.044 295.537H154.235V298.346H157.044V295.537Z" fill="#F5F5F5"/>
<path d="M157.044 300.246H154.235V303.055H157.044V300.246Z" fill="#F5F5F5"/>
<path d="M157.044 304.954H154.235V307.762H157.044V304.954Z" fill="#F5F5F5"/>
<path d="M157.044 309.663H154.235V312.472H157.044V309.663Z" fill="#F5F5F5"/>
<path d="M157.044 314.371H154.235V317.18H157.044V314.371Z" fill="#F5F5F5"/>
<path d="M152.584 267.287H149.775V270.096H152.584V267.287Z" fill="#F5F5F5"/>
<path d="M152.584 271.995H149.775V274.804H152.584V271.995Z" fill="#F5F5F5"/>
<path d="M152.584 276.704H149.775V279.513H152.584V276.704Z" fill="#F5F5F5"/>
<path d="M152.584 281.412H149.775V284.221H152.584V281.412Z" fill="#F5F5F5"/>
<path d="M152.584 286.121H149.775V288.93H152.584V286.121Z" fill="#F5F5F5"/>
<path d="M152.584 290.829H149.775V293.638H152.584V290.829Z" fill="#F5F5F5"/>
<path d="M152.584 295.537H149.775V298.346H152.584V295.537Z" fill="#F5F5F5"/>
<path d="M152.584 300.246H149.775V303.055H152.584V300.246Z" fill="#F5F5F5"/>
<path d="M152.584 304.954H149.775V307.762H152.584V304.954Z" fill="#F5F5F5"/>
<path d="M152.584 309.663H149.775V312.472H152.584V309.663Z" fill="#F5F5F5"/>
<path d="M152.584 314.371H149.775V317.18H152.584V314.371Z" fill="#F5F5F5"/>
<path d="M152.584 319.079H149.775V321.888H152.584V319.079Z" fill="#F5F5F5"/>
<path d="M152.584 333.204H149.775V336.013H152.584V333.204Z" fill="#F5F5F5"/>
<path d="M152.584 337.913H149.775V340.722H152.584V337.913Z" fill="#F5F5F5"/>
<path d="M148.123 267.287H145.314V270.096H148.123V267.287Z" fill="#F5F5F5"/>
<path d="M148.123 271.995H145.314V274.804H148.123V271.995Z" fill="#F5F5F5"/>
<path d="M148.123 276.704H145.314V279.513H148.123V276.704Z" fill="#F5F5F5"/>
<path d="M148.123 290.829H145.314V293.638H148.123V290.829Z" fill="#F5F5F5"/>
<path d="M148.123 295.537H145.314V298.346H148.123V295.537Z" fill="#F5F5F5"/>
<path d="M148.123 300.246H145.314V303.055H148.123V300.246Z" fill="#F5F5F5"/>
<path d="M148.123 304.954H145.314V307.762H148.123V304.954Z" fill="#F5F5F5"/>
<path d="M148.123 309.663H145.314V312.472H148.123V309.663Z" fill="#F5F5F5"/>
<path d="M148.123 314.371H145.314V317.18H148.123V314.371Z" fill="#F5F5F5"/>
<path d="M148.123 319.079H145.314V321.888H148.123V319.079Z" fill="#F5F5F5"/>
<path d="M148.123 333.204H145.314V336.013H148.123V333.204Z" fill="#F5F5F5"/>
<path d="M148.123 337.913H145.314V340.722H148.123V337.913Z" fill="#F5F5F5"/>
<path d="M148.123 342.621H145.314V345.43H148.123V342.621Z" fill="#F5F5F5"/>
<path d="M101.37 239.036H98.561V241.845H101.37V239.036Z" fill="#F5F5F5"/>
<path d="M101.37 243.745H98.561V246.554H101.37V243.745Z" fill="#F5F5F5"/>
<path d="M101.37 248.453H98.561V251.262H101.37V248.453Z" fill="#F5F5F5"/>
<path d="M101.37 253.162H98.561V255.971H101.37V253.162Z" fill="#F5F5F5"/>
<path d="M101.37 257.87H98.561V260.678H101.37V257.87Z" fill="#F5F5F5"/>
<path d="M101.37 262.578H98.561V265.387H101.37V262.578Z" fill="#F5F5F5"/>
<path d="M101.37 267.287H98.561V270.096H101.37V267.287Z" fill="#F5F5F5"/>
<path d="M101.37 271.995H98.561V274.804H101.37V271.995Z" fill="#F5F5F5"/>
<path d="M101.37 276.704H98.561V279.513H101.37V276.704Z" fill="#F5F5F5"/>
<path d="M101.37 281.412H98.561V284.221H101.37V281.412Z" fill="#F5F5F5"/>
<path d="M101.37 286.121H98.561V288.93H101.37V286.121Z" fill="#F5F5F5"/>
<path d="M101.37 290.829H98.561V293.638H101.37V290.829Z" fill="#F5F5F5"/>
<path d="M101.37 295.537H98.561V298.346H101.37V295.537Z" fill="#F5F5F5"/>
<path d="M101.37 300.246H98.561V303.055H101.37V300.246Z" fill="#F5F5F5"/>
<path d="M101.37 304.954H98.561V307.762H101.37V304.954Z" fill="#F5F5F5"/>
<path d="M101.37 309.663H98.561V312.472H101.37V309.663Z" fill="#F5F5F5"/>
<path d="M101.37 314.371H98.561V317.18H101.37V314.371Z" fill="#F5F5F5"/>
<path d="M101.37 319.079H98.561V321.888H101.37V319.079Z" fill="#F5F5F5"/>
<path d="M101.37 323.788H98.561V326.597H101.37V323.788Z" fill="#F5F5F5"/>
<path d="M101.37 328.496H98.561V331.304H101.37V328.496Z" fill="#F5F5F5"/>
<path d="M101.37 333.204H98.561V336.013H101.37V333.204Z" fill="#F5F5F5"/>
<path d="M101.37 337.913H98.561V340.722H101.37V337.913Z" fill="#F5F5F5"/>
<path d="M101.37 342.621H98.561V345.43H101.37V342.621Z" fill="#F5F5F5"/>
<path d="M96.9091 239.036H94.1001V241.845H96.9091V239.036Z" fill="#F5F5F5"/>
<path d="M96.9091 243.745H94.1001V246.554H96.9091V243.745Z" fill="#F5F5F5"/>
<path d="M96.9091 248.453H94.1001V251.262H96.9091V248.453Z" fill="#F5F5F5"/>
<path d="M96.9091 253.162H94.1001V255.971H96.9091V253.162Z" fill="#F5F5F5"/>
<path d="M96.9091 257.87H94.1001V260.678H96.9091V257.87Z" fill="#F5F5F5"/>
<path d="M96.9091 262.578H94.1001V265.387H96.9091V262.578Z" fill="#F5F5F5"/>
<path d="M96.9091 267.287H94.1001V270.096H96.9091V267.287Z" fill="#F5F5F5"/>
<path d="M96.9091 271.995H94.1001V274.804H96.9091V271.995Z" fill="#F5F5F5"/>
<path d="M96.9091 276.704H94.1001V279.513H96.9091V276.704Z" fill="#F5F5F5"/>
<path d="M96.9091 281.412H94.1001V284.221H96.9091V281.412Z" fill="#F5F5F5"/>
<path d="M96.9091 286.121H94.1001V288.93H96.9091V286.121Z" fill="#F5F5F5"/>
<path d="M96.9091 290.829H94.1001V293.638H96.9091V290.829Z" fill="#F5F5F5"/>
<path d="M96.9091 295.537H94.1001V298.346H96.9091V295.537Z" fill="#F5F5F5"/>
<path d="M96.9091 300.246H94.1001V303.055H96.9091V300.246Z" fill="#F5F5F5"/>
<path d="M96.9091 304.954H94.1001V307.762H96.9091V304.954Z" fill="#F5F5F5"/>
<path d="M96.9091 309.663H94.1001V312.472H96.9091V309.663Z" fill="#F5F5F5"/>
<path d="M96.9091 314.371H94.1001V317.18H96.9091V314.371Z" fill="#F5F5F5"/>
<path d="M96.9091 319.079H94.1001V321.888H96.9091V319.079Z" fill="#F5F5F5"/>
<path d="M96.9091 323.788H94.1001V326.597H96.9091V323.788Z" fill="#F5F5F5"/>
<path d="M92.448 239.036H89.639V241.845H92.448V239.036Z" fill="#F5F5F5"/>
<path d="M92.448 243.745H89.639V246.554H92.448V243.745Z" fill="#F5F5F5"/>
<path d="M92.448 248.453H89.639V251.262H92.448V248.453Z" fill="#F5F5F5"/>
<path d="M92.448 253.162H89.639V255.971H92.448V253.162Z" fill="#F5F5F5"/>
<path d="M92.448 257.87H89.639V260.678H92.448V257.87Z" fill="#F5F5F5"/>
<path d="M92.448 262.578H89.639V265.387H92.448V262.578Z" fill="#F5F5F5"/>
<path d="M92.448 267.287H89.639V270.096H92.448V267.287Z" fill="#F5F5F5"/>
<path d="M92.448 271.995H89.639V274.804H92.448V271.995Z" fill="#F5F5F5"/>
<path d="M92.448 276.704H89.639V279.513H92.448V276.704Z" fill="#F5F5F5"/>
<path d="M92.448 281.412H89.639V284.221H92.448V281.412Z" fill="#F5F5F5"/>
<path d="M92.448 286.121H89.639V288.93H92.448V286.121Z" fill="#F5F5F5"/>
<path d="M92.448 290.829H89.639V293.638H92.448V290.829Z" fill="#F5F5F5"/>
<path d="M92.448 295.537H89.639V298.346H92.448V295.537Z" fill="#F5F5F5"/>
<path d="M92.448 300.246H89.639V303.055H92.448V300.246Z" fill="#F5F5F5"/>
<path d="M92.448 304.954H89.639V307.762H92.448V304.954Z" fill="#F5F5F5"/>
<path d="M92.448 309.663H89.639V312.472H92.448V309.663Z" fill="#F5F5F5"/>
<path d="M92.448 314.371H89.639V317.18H92.448V314.371Z" fill="#F5F5F5"/>
<path d="M92.448 319.079H89.639V321.888H92.448V319.079Z" fill="#F5F5F5"/>
<path d="M92.448 323.788H89.639V326.597H92.448V323.788Z" fill="#F5F5F5"/>
<path d="M87.9881 239.036H85.1791V241.845H87.9881V239.036Z" fill="#F5F5F5"/>
<path d="M87.9881 243.745H85.1791V246.554H87.9881V243.745Z" fill="#F5F5F5"/>
<path d="M87.9881 248.453H85.1791V251.262H87.9881V248.453Z" fill="#F5F5F5"/>
<path d="M87.9881 253.162H85.1791V255.971H87.9881V253.162Z" fill="#F5F5F5"/>
<path d="M87.9881 257.87H85.1791V260.678H87.9881V257.87Z" fill="#F5F5F5"/>
<path d="M87.9881 262.578H85.1791V265.387H87.9881V262.578Z" fill="#F5F5F5"/>
<path d="M87.9881 267.287H85.1791V270.096H87.9881V267.287Z" fill="#F5F5F5"/>
<path d="M87.9881 271.995H85.1791V274.804H87.9881V271.995Z" fill="#F5F5F5"/>
<path d="M87.9881 276.704H85.1791V279.513H87.9881V276.704Z" fill="#F5F5F5"/>
<path d="M87.9881 281.412H85.1791V284.221H87.9881V281.412Z" fill="#F5F5F5"/>
<path d="M87.9881 286.121H85.1791V288.93H87.9881V286.121Z" fill="#F5F5F5"/>
<path d="M87.9881 290.829H85.1791V293.638H87.9881V290.829Z" fill="#F5F5F5"/>
<path d="M87.9881 295.537H85.1791V298.346H87.9881V295.537Z" fill="#F5F5F5"/>
<path d="M87.9881 300.246H85.1791V303.055H87.9881V300.246Z" fill="#F5F5F5"/>
<path d="M87.9881 304.954H85.1791V307.762H87.9881V304.954Z" fill="#F5F5F5"/>
<path d="M83.527 239.036H80.718V241.845H83.527V239.036Z" fill="#F5F5F5"/>
<path d="M83.527 243.745H80.718V246.554H83.527V243.745Z" fill="#F5F5F5"/>
<path d="M83.527 248.453H80.718V251.262H83.527V248.453Z" fill="#F5F5F5"/>
<path d="M83.527 253.162H80.718V255.971H83.527V253.162Z" fill="#F5F5F5"/>
<path d="M83.527 257.87H80.718V260.678H83.527V257.87Z" fill="#F5F5F5"/>
<path d="M83.527 262.578H80.718V265.387H83.527V262.578Z" fill="#F5F5F5"/>
<path d="M83.527 267.287H80.718V270.096H83.527V267.287Z" fill="#F5F5F5"/>
<path d="M83.527 271.995H80.718V274.804H83.527V271.995Z" fill="#F5F5F5"/>
<path d="M83.527 276.704H80.718V279.513H83.527V276.704Z" fill="#F5F5F5"/>
<path d="M83.527 281.412H80.718V284.221H83.527V281.412Z" fill="#F5F5F5"/>
<path d="M83.527 286.121H80.718V288.93H83.527V286.121Z" fill="#F5F5F5"/>
<path d="M83.527 290.829H80.718V293.638H83.527V290.829Z" fill="#F5F5F5"/>
<path d="M83.527 295.537H80.718V298.346H83.527V295.537Z" fill="#F5F5F5"/>
<path d="M79.0671 239.036H76.2581V241.845H79.0671V239.036Z" fill="#F5F5F5"/>
<path d="M79.0671 243.745H76.2581V246.554H79.0671V243.745Z" fill="#F5F5F5"/>
<path d="M79.0671 248.453H76.2581V251.262H79.0671V248.453Z" fill="#F5F5F5"/>
<path d="M79.0671 253.162H76.2581V255.971H79.0671V253.162Z" fill="#F5F5F5"/>
<path d="M79.0671 257.87H76.2581V260.678H79.0671V257.87Z" fill="#F5F5F5"/>
<path d="M79.0671 262.578H76.2581V265.387H79.0671V262.578Z" fill="#F5F5F5"/>
<path d="M79.0671 267.287H76.2581V270.096H79.0671V267.287Z" fill="#F5F5F5"/>
<path d="M79.0671 271.995H76.2581V274.804H79.0671V271.995Z" fill="#F5F5F5"/>
<path d="M79.0671 276.704H76.2581V279.513H79.0671V276.704Z" fill="#F5F5F5"/>
<path d="M79.0671 281.412H76.2581V284.221H79.0671V281.412Z" fill="#F5F5F5"/>
<path d="M79.0671 286.121H76.2581V288.93H79.0671V286.121Z" fill="#F5F5F5"/>
<path d="M79.0671 290.829H76.2581V293.638H79.0671V290.829Z" fill="#F5F5F5"/>
<path d="M406.837 273.4H404.028V276.209H406.837V273.4Z" fill="#F5F5F5"/>
<path d="M406.837 278.108H404.028V280.917H406.837V278.108Z" fill="#F5F5F5"/>
<path d="M406.837 282.816H404.028V285.625H406.837V282.816Z" fill="#F5F5F5"/>
<path d="M406.837 287.525H404.028V290.334H406.837V287.525Z" fill="#F5F5F5"/>
<path d="M406.837 292.233H404.028V295.042H406.837V292.233Z" fill="#F5F5F5"/>
<path d="M406.837 296.941H404.028V299.75H406.837V296.941Z" fill="#F5F5F5"/>
<path d="M406.837 301.65H404.028V304.459H406.837V301.65Z" fill="#F5F5F5"/>
<path d="M406.837 306.358H404.028V309.167H406.837V306.358Z" fill="#F5F5F5"/>
<path d="M406.837 311.067H404.028V313.876H406.837V311.067Z" fill="#F5F5F5"/>
<path d="M406.837 315.775H404.028V318.584H406.837V315.775Z" fill="#F5F5F5"/>
<path d="M406.837 320.483H404.028V323.292H406.837V320.483Z" fill="#F5F5F5"/>
<path d="M406.837 325.192H404.028V328.001H406.837V325.192Z" fill="#F5F5F5"/>
<path d="M406.837 329.9H404.028V332.709H406.837V329.9Z" fill="#F5F5F5"/>
<path d="M406.837 334.609H404.028V337.418H406.837V334.609Z" fill="#F5F5F5"/>
<path d="M406.837 339.317H404.028V342.126H406.837V339.317Z" fill="#F5F5F5"/>
<path d="M406.837 344.026H404.028V346.835H406.837V344.026Z" fill="#F5F5F5"/>
<path d="M406.837 348.734H404.028V351.543H406.837V348.734Z" fill="#F5F5F5"/>
<path d="M406.837 353.442H404.028V356.251H406.837V353.442Z" fill="#F5F5F5"/>
<path d="M406.837 358.151H404.028V360.96H406.837V358.151Z" fill="#F5F5F5"/>
<path d="M406.837 362.859H404.028V365.668H406.837V362.859Z" fill="#F5F5F5"/>
<path d="M402.377 273.4H399.568V276.209H402.377V273.4Z" fill="#F5F5F5"/>
<path d="M402.377 278.108H399.568V280.917H402.377V278.108Z" fill="#F5F5F5"/>
<path d="M402.377 282.816H399.568V285.625H402.377V282.816Z" fill="#F5F5F5"/>
<path d="M402.377 287.525H399.568V290.334H402.377V287.525Z" fill="#F5F5F5"/>
<path d="M402.377 292.233H399.568V295.042H402.377V292.233Z" fill="#F5F5F5"/>
<path d="M402.377 296.941H399.568V299.75H402.377V296.941Z" fill="#F5F5F5"/>
<path d="M402.377 301.65H399.568V304.459H402.377V301.65Z" fill="#F5F5F5"/>
<path d="M402.377 306.358H399.568V309.167H402.377V306.358Z" fill="#F5F5F5"/>
<path d="M402.377 311.067H399.568V313.876H402.377V311.067Z" fill="#F5F5F5"/>
<path d="M402.377 315.775H399.568V318.584H402.377V315.775Z" fill="#F5F5F5"/>
<path d="M402.377 320.483H399.568V323.292H402.377V320.483Z" fill="#F5F5F5"/>
<path d="M402.377 325.192H399.568V328.001H402.377V325.192Z" fill="#F5F5F5"/>
<path d="M402.377 329.9H399.568V332.709H402.377V329.9Z" fill="#F5F5F5"/>
<path d="M402.377 334.609H399.568V337.418H402.377V334.609Z" fill="#F5F5F5"/>
<path d="M402.377 339.317H399.568V342.126H402.377V339.317Z" fill="#F5F5F5"/>
<path d="M402.377 344.026H399.568V346.835H402.377V344.026Z" fill="#F5F5F5"/>
<path d="M402.377 348.734H399.568V351.543H402.377V348.734Z" fill="#F5F5F5"/>
<path d="M402.377 353.442H399.568V356.251H402.377V353.442Z" fill="#F5F5F5"/>
<path d="M397.916 273.4H395.107V276.209H397.916V273.4Z" fill="#F5F5F5"/>
<path d="M397.916 278.108H395.107V280.917H397.916V278.108Z" fill="#F5F5F5"/>
<path d="M397.916 282.816H395.107V285.625H397.916V282.816Z" fill="#F5F5F5"/>
<path d="M397.916 287.525H395.107V290.334H397.916V287.525Z" fill="#F5F5F5"/>
<path d="M397.916 292.233H395.107V295.042H397.916V292.233Z" fill="#F5F5F5"/>
<path d="M397.916 296.941H395.107V299.75H397.916V296.941Z" fill="#F5F5F5"/>
<path d="M397.916 301.65H395.107V304.459H397.916V301.65Z" fill="#F5F5F5"/>
<path d="M397.916 306.358H395.107V309.167H397.916V306.358Z" fill="#F5F5F5"/>
<path d="M397.916 311.067H395.107V313.876H397.916V311.067Z" fill="#F5F5F5"/>
<path d="M397.916 315.775H395.107V318.584H397.916V315.775Z" fill="#F5F5F5"/>
<path d="M397.916 320.483H395.107V323.292H397.916V320.483Z" fill="#F5F5F5"/>
<path d="M397.916 325.192H395.107V328.001H397.916V325.192Z" fill="#F5F5F5"/>
<path d="M397.916 329.9H395.107V332.709H397.916V329.9Z" fill="#F5F5F5"/>
<path d="M397.916 334.609H395.107V337.418H397.916V334.609Z" fill="#F5F5F5"/>
<path d="M397.916 339.317H395.107V342.126H397.916V339.317Z" fill="#F5F5F5"/>
<path d="M397.916 344.026H395.107V346.835H397.916V344.026Z" fill="#F5F5F5"/>
<path d="M397.916 348.734H395.107V351.543H397.916V348.734Z" fill="#F5F5F5"/>
<path d="M397.916 353.442H395.107V356.251H397.916V353.442Z" fill="#F5F5F5"/>
<path d="M423.523 307.763H420.714V310.572H423.523V307.763Z" fill="#F5F5F5"/>
<path d="M423.523 312.471H420.714V315.28H423.523V312.471Z" fill="#F5F5F5"/>
<path d="M423.523 317.178H420.714V319.987H423.523V317.178Z" fill="#F5F5F5"/>
<path d="M423.523 321.888H420.714V324.697H423.523V321.888Z" fill="#F5F5F5"/>
<path d="M423.523 326.596H420.714V329.404H423.523V326.596Z" fill="#F5F5F5"/>
<path d="M423.523 331.305H420.714V334.114H423.523V331.305Z" fill="#F5F5F5"/>
<path d="M423.523 336.013H420.714V338.822H423.523V336.013Z" fill="#F5F5F5"/>
<path d="M423.523 340.721H420.714V343.53H423.523V340.721Z" fill="#F5F5F5"/>
<path d="M423.523 345.43H420.714V348.239H423.523V345.43Z" fill="#F5F5F5"/>
<path d="M423.523 350.138H420.714V352.947H423.523V350.138Z" fill="#F5F5F5"/>
<path d="M423.523 354.847H420.714V357.656H423.523V354.847Z" fill="#F5F5F5"/>
<path d="M423.523 359.555H420.714V362.364H423.523V359.555Z" fill="#F5F5F5"/>
<path d="M423.523 364.263H420.714V367.072H423.523V364.263Z" fill="#F5F5F5"/>
<path d="M419.063 307.763H416.254V310.572H419.063V307.763Z" fill="#F5F5F5"/>
<path d="M419.063 312.471H416.254V315.28H419.063V312.471Z" fill="#F5F5F5"/>
<path d="M419.063 317.178H416.254V319.987H419.063V317.178Z" fill="#F5F5F5"/>
<path d="M419.063 321.888H416.254V324.697H419.063V321.888Z" fill="#F5F5F5"/>
<path d="M419.063 326.596H416.254V329.404H419.063V326.596Z" fill="#F5F5F5"/>
<path d="M419.063 331.305H416.254V334.114H419.063V331.305Z" fill="#F5F5F5"/>
<path d="M419.063 336.013H416.254V338.822H419.063V336.013Z" fill="#F5F5F5"/>
<path d="M419.063 340.721H416.254V343.53H419.063V340.721Z" fill="#F5F5F5"/>
<path d="M419.063 345.43H416.254V348.239H419.063V345.43Z" fill="#F5F5F5"/>
<path d="M419.063 350.138H416.254V352.947H419.063V350.138Z" fill="#F5F5F5"/>
<path d="M419.063 354.847H416.254V357.656H419.063V354.847Z" fill="#F5F5F5"/>
<path d="M419.063 359.555H416.254V362.364H419.063V359.555Z" fill="#F5F5F5"/>
<path d="M419.063 364.263H416.254V367.072H419.063V364.263Z" fill="#F5F5F5"/>
<path d="M414.602 307.763H411.793V310.572H414.602V307.763Z" fill="#F5F5F5"/>
<path d="M414.602 312.471H411.793V315.28H414.602V312.471Z" fill="#F5F5F5"/>
<path d="M414.602 317.178H411.793V319.987H414.602V317.178Z" fill="#F5F5F5"/>
<path d="M414.602 321.888H411.793V324.697H414.602V321.888Z" fill="#F5F5F5"/>
<path d="M414.602 326.596H411.793V329.404H414.602V326.596Z" fill="#F5F5F5"/>
<path d="M414.602 331.305H411.793V334.114H414.602V331.305Z" fill="#F5F5F5"/>
<path d="M414.602 336.013H411.793V338.822H414.602V336.013Z" fill="#F5F5F5"/>
<path d="M414.602 340.721H411.793V343.53H414.602V340.721Z" fill="#F5F5F5"/>
<path d="M414.602 345.43H411.793V348.239H414.602V345.43Z" fill="#F5F5F5"/>
<path d="M414.602 350.138H411.793V352.947H414.602V350.138Z" fill="#F5F5F5"/>
<path d="M414.602 354.847H411.793V357.656H414.602V354.847Z" fill="#F5F5F5"/>
<path d="M414.602 359.555H411.793V362.364H414.602V359.555Z" fill="#F5F5F5"/>
<path d="M414.602 364.263H411.793V367.072H414.602V364.263Z" fill="#F5F5F5"/>
<path d="M414.602 368.972H411.793V371.781H414.602V368.972Z" fill="#F5F5F5"/>
<path d="M389.821 309.167H387.012V311.976H389.821V309.167Z" fill="#F5F5F5"/>
<path d="M389.821 313.875H387.012V316.683H389.821V313.875Z" fill="#F5F5F5"/>
<path d="M389.821 318.583H387.012V321.392H389.821V318.583Z" fill="#F5F5F5"/>
<path d="M389.821 323.292H387.012V326.101H389.821V323.292Z" fill="#F5F5F5"/>
<path d="M389.821 328H387.012V330.809H389.821V328Z" fill="#F5F5F5"/>
<path d="M389.821 332.708H387.012V335.517H389.821V332.708Z" fill="#F5F5F5"/>
<path d="M389.821 337.417H387.012V340.226H389.821V337.417Z" fill="#F5F5F5"/>
<path d="M389.821 342.125H387.012V344.934H389.821V342.125Z" fill="#F5F5F5"/>
<path d="M389.821 346.833H387.012V349.642H389.821V346.833Z" fill="#F5F5F5"/>
<path d="M389.821 351.542H387.012V354.351H389.821V351.542Z" fill="#F5F5F5"/>
<path d="M389.821 365.667H387.012V368.476H389.821V365.667Z" fill="#F5F5F5"/>
<path d="M385.361 309.167H382.552V311.976H385.361V309.167Z" fill="#F5F5F5"/>
<path d="M385.361 313.875H382.552V316.683H385.361V313.875Z" fill="#F5F5F5"/>
<path d="M385.361 318.583H382.552V321.392H385.361V318.583Z" fill="#F5F5F5"/>
<path d="M385.361 323.292H382.552V326.101H385.361V323.292Z" fill="#F5F5F5"/>
<path d="M385.361 328H382.552V330.809H385.361V328Z" fill="#F5F5F5"/>
<path d="M385.361 332.708H382.552V335.517H385.361V332.708Z" fill="#F5F5F5"/>
<path d="M385.361 337.417H382.552V340.226H385.361V337.417Z" fill="#F5F5F5"/>
<path d="M385.361 342.125H382.552V344.934H385.361V342.125Z" fill="#F5F5F5"/>
<path d="M385.361 346.833H382.552V349.642H385.361V346.833Z" fill="#F5F5F5"/>
<path d="M385.361 360.958H382.552V363.767H385.361V360.958Z" fill="#F5F5F5"/>
<path d="M385.361 365.667H382.552V368.476H385.361V365.667Z" fill="#F5F5F5"/>
<path d="M380.9 309.167H378.091V311.976H380.9V309.167Z" fill="#F5F5F5"/>
<path d="M380.9 313.875H378.091V316.683H380.9V313.875Z" fill="#F5F5F5"/>
<path d="M380.9 318.583H378.091V321.392H380.9V318.583Z" fill="#F5F5F5"/>
<path d="M380.9 323.292H378.091V326.101H380.9V323.292Z" fill="#F5F5F5"/>
<path d="M380.9 328H378.091V330.809H380.9V328Z" fill="#F5F5F5"/>
<path d="M380.9 332.708H378.091V335.517H380.9V332.708Z" fill="#F5F5F5"/>
<path d="M380.9 337.417H378.091V340.226H380.9V337.417Z" fill="#F5F5F5"/>
<path d="M380.9 342.125H378.091V344.934H380.9V342.125Z" fill="#F5F5F5"/>
<path d="M380.9 356.25H378.091V359.059H380.9V356.25Z" fill="#F5F5F5"/>
<path d="M380.9 360.958H378.091V363.767H380.9V360.958Z" fill="#F5F5F5"/>
<path d="M380.9 365.667H378.091V368.476H380.9V365.667Z" fill="#F5F5F5"/>
<path d="M339.433 237.632H336.624V240.441H339.433V237.632Z" fill="#F5F5F5"/>
<path d="M339.433 242.341H336.624V245.15H339.433V242.341Z" fill="#F5F5F5"/>
<path d="M339.433 247.049H336.624V249.858H339.433V247.049Z" fill="#F5F5F5"/>
<path d="M339.433 251.757H336.624V254.566H339.433V251.757Z" fill="#F5F5F5"/>
<path d="M339.433 256.466H336.624V259.275H339.433V256.466Z" fill="#F5F5F5"/>
<path d="M339.433 261.174H336.624V263.983H339.433V261.174Z" fill="#F5F5F5"/>
<path d="M339.433 265.883H336.624V268.692H339.433V265.883Z" fill="#F5F5F5"/>
<path d="M339.433 270.591H336.624V273.4H339.433V270.591Z" fill="#F5F5F5"/>
<path d="M339.433 275.299H336.624V278.108H339.433V275.299Z" fill="#F5F5F5"/>
<path d="M339.433 280.008H336.624V282.817H339.433V280.008Z" fill="#F5F5F5"/>
<path d="M339.433 284.716H336.624V287.525H339.433V284.716Z" fill="#F5F5F5"/>
<path d="M339.433 289.425H336.624V292.234H339.433V289.425Z" fill="#F5F5F5"/>
<path d="M339.433 294.133H336.624V296.941H339.433V294.133Z" fill="#F5F5F5"/>
<path d="M339.433 298.841H336.624V301.65H339.433V298.841Z" fill="#F5F5F5"/>
<path d="M339.433 303.55H336.624V306.359H339.433V303.55Z" fill="#F5F5F5"/>
<path d="M339.433 308.258H336.624V311.067H339.433V308.258Z" fill="#F5F5F5"/>
<path d="M339.433 312.967H336.624V315.776H339.433V312.967Z" fill="#F5F5F5"/>
<path d="M339.433 322.383H336.624V325.192H339.433V322.383Z" fill="#F5F5F5"/>
<path d="M339.433 327.092H336.624V329.901H339.433V327.092Z" fill="#F5F5F5"/>
<path d="M339.433 331.8H336.624V334.609H339.433V331.8Z" fill="#F5F5F5"/>
<path d="M339.433 336.509H336.624V339.318H339.433V336.509Z" fill="#F5F5F5"/>
<path d="M339.433 341.217H336.624V344.025H339.433V341.217Z" fill="#F5F5F5"/>
<path d="M334.972 237.632H332.163V240.441H334.972V237.632Z" fill="#F5F5F5"/>
<path d="M334.972 242.341H332.163V245.15H334.972V242.341Z" fill="#F5F5F5"/>
<path d="M334.972 247.049H332.163V249.858H334.972V247.049Z" fill="#F5F5F5"/>
<path d="M334.972 251.757H332.163V254.566H334.972V251.757Z" fill="#F5F5F5"/>
<path d="M334.972 256.466H332.163V259.275H334.972V256.466Z" fill="#F5F5F5"/>
<path d="M334.972 261.174H332.163V263.983H334.972V261.174Z" fill="#F5F5F5"/>
<path d="M334.972 265.883H332.163V268.692H334.972V265.883Z" fill="#F5F5F5"/>
<path d="M334.972 270.591H332.163V273.4H334.972V270.591Z" fill="#F5F5F5"/>
<path d="M334.972 275.299H332.163V278.108H334.972V275.299Z" fill="#F5F5F5"/>
<path d="M334.972 280.008H332.163V282.817H334.972V280.008Z" fill="#F5F5F5"/>
<path d="M334.972 284.716H332.163V287.525H334.972V284.716Z" fill="#F5F5F5"/>
<path d="M334.972 289.425H332.163V292.234H334.972V289.425Z" fill="#F5F5F5"/>
<path d="M334.972 294.133H332.163V296.941H334.972V294.133Z" fill="#F5F5F5"/>
<path d="M334.972 298.841H332.163V301.65H334.972V298.841Z" fill="#F5F5F5"/>
<path d="M334.972 303.55H332.163V306.359H334.972V303.55Z" fill="#F5F5F5"/>
<path d="M334.972 308.258H332.163V311.067H334.972V308.258Z" fill="#F5F5F5"/>
<path d="M334.972 336.509H332.163V339.318H334.972V336.509Z" fill="#F5F5F5"/>
<path d="M334.972 341.217H332.163V344.025H334.972V341.217Z" fill="#F5F5F5"/>
<path d="M330.512 237.632H327.703V240.441H330.512V237.632Z" fill="#F5F5F5"/>
<path d="M330.512 242.341H327.703V245.15H330.512V242.341Z" fill="#F5F5F5"/>
<path d="M330.512 247.049H327.703V249.858H330.512V247.049Z" fill="#F5F5F5"/>
<path d="M330.512 251.757H327.703V254.566H330.512V251.757Z" fill="#F5F5F5"/>
<path d="M330.512 256.466H327.703V259.275H330.512V256.466Z" fill="#F5F5F5"/>
<path d="M330.512 261.174H327.703V263.983H330.512V261.174Z" fill="#F5F5F5"/>
<path d="M330.512 265.883H327.703V268.692H330.512V265.883Z" fill="#F5F5F5"/>
<path d="M330.512 270.591H327.703V273.4H330.512V270.591Z" fill="#F5F5F5"/>
<path d="M330.512 275.299H327.703V278.108H330.512V275.299Z" fill="#F5F5F5"/>
<path d="M330.512 280.008H327.703V282.817H330.512V280.008Z" fill="#F5F5F5"/>
<path d="M330.512 284.716H327.703V287.525H330.512V284.716Z" fill="#F5F5F5"/>
<path d="M330.512 289.425H327.703V292.234H330.512V289.425Z" fill="#F5F5F5"/>
<path d="M330.512 294.133H327.703V296.941H330.512V294.133Z" fill="#F5F5F5"/>
<path d="M330.512 298.841H327.703V301.65H330.512V298.841Z" fill="#F5F5F5"/>
<path d="M330.512 303.55H327.703V306.359H330.512V303.55Z" fill="#F5F5F5"/>
<path d="M330.512 308.258H327.703V311.067H330.512V308.258Z" fill="#F5F5F5"/>
<path d="M330.512 317.675H327.703V320.483H330.512V317.675Z" fill="#F5F5F5"/>
<path d="M330.512 322.383H327.703V325.192H330.512V322.383Z" fill="#F5F5F5"/>
<path d="M330.512 327.092H327.703V329.901H330.512V327.092Z" fill="#F5F5F5"/>
<path d="M330.512 331.8H327.703V334.609H330.512V331.8Z" fill="#F5F5F5"/>
<path d="M330.512 341.217H327.703V344.025H330.512V341.217Z" fill="#F5F5F5"/>
<path d="M355.623 296.941H352.814V299.75H355.623V296.941Z" fill="#F5F5F5"/>
<path d="M355.623 301.65H352.814V304.459H355.623V301.65Z" fill="#F5F5F5"/>
<path d="M355.623 306.358H352.814V309.167H355.623V306.358Z" fill="#F5F5F5"/>
<path d="M355.623 311.067H352.814V313.876H355.623V311.067Z" fill="#F5F5F5"/>
<path d="M355.623 315.775H352.814V318.584H355.623V315.775Z" fill="#F5F5F5"/>
<path d="M355.623 320.483H352.814V323.292H355.623V320.483Z" fill="#F5F5F5"/>
<path d="M355.623 325.192H352.814V328.001H355.623V325.192Z" fill="#F5F5F5"/>
<path d="M355.623 334.609H352.814V337.418H355.623V334.609Z" fill="#F5F5F5"/>
<path d="M355.623 339.317H352.814V342.126H355.623V339.317Z" fill="#F5F5F5"/>
<path d="M355.623 344.026H352.814V346.835H355.623V344.026Z" fill="#F5F5F5"/>
<path d="M355.623 348.734H352.814V351.543H355.623V348.734Z" fill="#F5F5F5"/>
<path d="M355.623 353.442H352.814V356.251H355.623V353.442Z" fill="#F5F5F5"/>
<path d="M355.623 358.151H352.814V360.96H355.623V358.151Z" fill="#F5F5F5"/>
<path d="M355.623 362.859H352.814V365.668H355.623V362.859Z" fill="#F5F5F5"/>
<path d="M355.623 367.568H352.814V370.377H355.623V367.568Z" fill="#F5F5F5"/>
<path d="M351.163 296.941H348.354V299.75H351.163V296.941Z" fill="#F5F5F5"/>
<path d="M351.163 301.65H348.354V304.459H351.163V301.65Z" fill="#F5F5F5"/>
<path d="M351.163 306.358H348.354V309.167H351.163V306.358Z" fill="#F5F5F5"/>
<path d="M351.163 311.067H348.354V313.876H351.163V311.067Z" fill="#F5F5F5"/>
<path d="M351.163 315.775H348.354V318.584H351.163V315.775Z" fill="#F5F5F5"/>
<path d="M351.163 320.483H348.354V323.292H351.163V320.483Z" fill="#F5F5F5"/>
<path d="M351.163 334.609H348.354V337.418H351.163V334.609Z" fill="#F5F5F5"/>
<path d="M351.163 339.317H348.354V342.126H351.163V339.317Z" fill="#F5F5F5"/>
<path d="M351.163 344.026H348.354V346.835H351.163V344.026Z" fill="#F5F5F5"/>
<path d="M351.163 348.734H348.354V351.543H351.163V348.734Z" fill="#F5F5F5"/>
<path d="M351.163 353.442H348.354V356.251H351.163V353.442Z" fill="#F5F5F5"/>
<path d="M351.163 358.151H348.354V360.96H351.163V358.151Z" fill="#F5F5F5"/>
<path d="M351.163 362.859H348.354V365.668H351.163V362.859Z" fill="#F5F5F5"/>
<path d="M351.163 367.568H348.354V370.377H351.163V367.568Z" fill="#F5F5F5"/>
<path d="M346.702 296.941H343.893V299.75H346.702V296.941Z" fill="#F5F5F5"/>
<path d="M346.702 301.65H343.893V304.459H346.702V301.65Z" fill="#F5F5F5"/>
<path d="M346.702 306.358H343.893V309.167H346.702V306.358Z" fill="#F5F5F5"/>
<path d="M346.702 311.067H343.893V313.876H346.702V311.067Z" fill="#F5F5F5"/>
<path d="M346.702 315.775H343.893V318.584H346.702V315.775Z" fill="#F5F5F5"/>
<path d="M346.702 320.483H343.893V323.292H346.702V320.483Z" fill="#F5F5F5"/>
<path d="M346.702 329.9H343.893V332.709H346.702V329.9Z" fill="#F5F5F5"/>
<path d="M346.702 334.609H343.893V337.418H346.702V334.609Z" fill="#F5F5F5"/>
<path d="M346.702 339.317H343.893V342.126H346.702V339.317Z" fill="#F5F5F5"/>
<path d="M346.702 344.026H343.893V346.835H346.702V344.026Z" fill="#F5F5F5"/>
<path d="M346.702 348.734H343.893V351.543H346.702V348.734Z" fill="#F5F5F5"/>
<path d="M346.702 353.442H343.893V356.251H346.702V353.442Z" fill="#F5F5F5"/>
<path d="M346.702 358.151H343.893V360.96H346.702V358.151Z" fill="#F5F5F5"/>
<path d="M346.702 362.859H343.893V365.668H346.702V362.859Z" fill="#F5F5F5"/>
<path d="M346.702 367.568H343.893V370.377H346.702V367.568Z" fill="#F5F5F5"/>
<path d="M252.699 270.591H249.89V273.4H252.699V270.591Z" fill="#F5F5F5"/>
<path d="M252.699 275.299H249.89V278.108H252.699V275.299Z" fill="#F5F5F5"/>
<path d="M252.699 280.008H249.89V282.817H252.699V280.008Z" fill="#F5F5F5"/>
<path d="M252.699 284.716H249.89V287.525H252.699V284.716Z" fill="#F5F5F5"/>
<path d="M252.699 289.425H249.89V292.234H252.699V289.425Z" fill="#F5F5F5"/>
<path d="M252.699 294.133H249.89V296.941H252.699V294.133Z" fill="#F5F5F5"/>
<path d="M252.699 298.841H249.89V301.65H252.699V298.841Z" fill="#F5F5F5"/>
<path d="M252.699 303.55H249.89V306.359H252.699V303.55Z" fill="#F5F5F5"/>
<path d="M252.699 308.258H249.89V311.067H252.699V308.258Z" fill="#F5F5F5"/>
<path d="M252.699 312.967H249.89V315.776H252.699V312.967Z" fill="#F5F5F5"/>
<path d="M252.699 317.675H249.89V320.483H252.699V317.675Z" fill="#F5F5F5"/>
<path d="M252.699 322.383H249.89V325.192H252.699V322.383Z" fill="#F5F5F5"/>
<path d="M252.699 327.092H249.89V329.901H252.699V327.092Z" fill="#F5F5F5"/>
<path d="M252.699 336.509H249.89V339.318H252.699V336.509Z" fill="#F5F5F5"/>
<path d="M252.699 341.217H249.89V344.025H252.699V341.217Z" fill="#F5F5F5"/>
<path d="M252.699 345.925H249.89V348.734H252.699V345.925Z" fill="#F5F5F5"/>
<path d="M252.699 350.634H249.89V353.443H252.699V350.634Z" fill="#F5F5F5"/>
<path d="M252.699 360.051H249.89V362.86H252.699V360.051Z" fill="#F5F5F5"/>
<path d="M252.699 364.759H249.89V367.567H252.699V364.759Z" fill="#F5F5F5"/>
<path d="M252.699 369.467H249.89V372.276H252.699V369.467Z" fill="#F5F5F5"/>
<path d="M248.239 270.591H245.43V273.4H248.239V270.591Z" fill="#F5F5F5"/>
<path d="M248.239 275.299H245.43V278.108H248.239V275.299Z" fill="#F5F5F5"/>
<path d="M248.239 280.008H245.43V282.817H248.239V280.008Z" fill="#F5F5F5"/>
<path d="M248.239 284.716H245.43V287.525H248.239V284.716Z" fill="#F5F5F5"/>
<path d="M248.239 289.425H245.43V292.234H248.239V289.425Z" fill="#F5F5F5"/>
<path d="M248.239 294.133H245.43V296.941H248.239V294.133Z" fill="#F5F5F5"/>
<path d="M248.239 298.841H245.43V301.65H248.239V298.841Z" fill="#F5F5F5"/>
<path d="M248.239 303.55H245.43V306.359H248.239V303.55Z" fill="#F5F5F5"/>
<path d="M248.239 308.258H245.43V311.067H248.239V308.258Z" fill="#F5F5F5"/>
<path d="M248.239 312.967H245.43V315.776H248.239V312.967Z" fill="#F5F5F5"/>
<path d="M248.239 317.675H245.43V320.483H248.239V317.675Z" fill="#F5F5F5"/>
<path d="M248.239 322.383H245.43V325.192H248.239V322.383Z" fill="#F5F5F5"/>
<path d="M248.239 327.092H245.43V329.901H248.239V327.092Z" fill="#F5F5F5"/>
<path d="M248.239 341.217H245.43V344.025H248.239V341.217Z" fill="#F5F5F5"/>
<path d="M248.239 345.925H245.43V348.734H248.239V345.925Z" fill="#F5F5F5"/>
<path d="M248.239 355.342H245.43V358.151H248.239V355.342Z" fill="#F5F5F5"/>
<path d="M248.239 360.051H245.43V362.86H248.239V360.051Z" fill="#F5F5F5"/>
<path d="M248.239 364.759H245.43V367.567H248.239V364.759Z" fill="#F5F5F5"/>
<path d="M248.239 369.467H245.43V372.276H248.239V369.467Z" fill="#F5F5F5"/>
<path d="M243.778 270.591H240.969V273.4H243.778V270.591Z" fill="#F5F5F5"/>
<path d="M243.778 275.299H240.969V278.108H243.778V275.299Z" fill="#F5F5F5"/>
<path d="M243.778 280.008H240.969V282.817H243.778V280.008Z" fill="#F5F5F5"/>
<path d="M243.778 284.716H240.969V287.525H243.778V284.716Z" fill="#F5F5F5"/>
<path d="M243.778 289.425H240.969V292.234H243.778V289.425Z" fill="#F5F5F5"/>
<path d="M243.778 294.133H240.969V296.941H243.778V294.133Z" fill="#F5F5F5"/>
<path d="M243.778 298.841H240.969V301.65H243.778V298.841Z" fill="#F5F5F5"/>
<path d="M243.778 303.55H240.969V306.359H243.778V303.55Z" fill="#F5F5F5"/>
<path d="M243.778 308.258H240.969V311.067H243.778V308.258Z" fill="#F5F5F5"/>
<path d="M243.778 312.967H240.969V315.776H243.778V312.967Z" fill="#F5F5F5"/>
<path d="M243.778 317.675H240.969V320.483H243.778V317.675Z" fill="#F5F5F5"/>
<path d="M243.778 322.383H240.969V325.192H243.778V322.383Z" fill="#F5F5F5"/>
<path d="M243.778 327.092H240.969V329.901H243.778V327.092Z" fill="#F5F5F5"/>
<path d="M243.778 331.8H240.969V334.609H243.778V331.8Z" fill="#F5F5F5"/>
<path d="M243.778 341.217H240.969V344.025H243.778V341.217Z" fill="#F5F5F5"/>
<path d="M243.778 350.634H240.969V353.443H243.778V350.634Z" fill="#F5F5F5"/>
<path d="M243.778 355.342H240.969V358.151H243.778V355.342Z" fill="#F5F5F5"/>
<path d="M243.778 360.051H240.969V362.86H243.778V360.051Z" fill="#F5F5F5"/>
<path d="M243.778 364.759H240.969V367.567H243.778V364.759Z" fill="#F5F5F5"/>
<path d="M243.778 369.467H240.969V372.276H243.778V369.467Z" fill="#F5F5F5"/>
<path d="M270.872 297.437H268.063V300.246H270.872V297.437Z" fill="#F5F5F5"/>
<path d="M270.872 302.146H268.063V304.954H270.872V302.146Z" fill="#F5F5F5"/>
<path d="M270.872 306.854H268.063V309.661H270.872V306.854Z" fill="#F5F5F5"/>
<path d="M270.872 311.562H268.063V314.371H270.872V311.562Z" fill="#F5F5F5"/>
<path d="M270.872 316.271H268.063V319.079H270.872V316.271Z" fill="#F5F5F5"/>
<path d="M270.872 320.979H268.063V323.788H270.872V320.979Z" fill="#F5F5F5"/>
<path d="M270.872 335.104H268.063V337.913H270.872V335.104Z" fill="#F5F5F5"/>
<path d="M270.872 339.812H268.063V342.622H270.872V339.812Z" fill="#F5F5F5"/>
<path d="M270.872 344.521H268.063V347.329H270.872V344.521Z" fill="#F5F5F5"/>
<path d="M270.872 349.229H268.063V352.038H270.872V349.229Z" fill="#F5F5F5"/>
<path d="M270.872 353.938H268.063V356.746H270.872V353.938Z" fill="#F5F5F5"/>
<path d="M270.872 358.646H268.063V361.454H270.872V358.646Z" fill="#F5F5F5"/>
<path d="M270.872 363.354H268.063V366.163H270.872V363.354Z" fill="#F5F5F5"/>
<path d="M266.411 297.437H263.602V300.246H266.411V297.437Z" fill="#F5F5F5"/>
<path d="M266.411 302.146H263.602V304.954H266.411V302.146Z" fill="#F5F5F5"/>
<path d="M266.411 306.854H263.602V309.661H266.411V306.854Z" fill="#F5F5F5"/>
<path d="M266.411 311.562H263.602V314.371H266.411V311.562Z" fill="#F5F5F5"/>
<path d="M266.411 316.271H263.602V319.079H266.411V316.271Z" fill="#F5F5F5"/>
<path d="M266.411 320.979H263.602V323.788H266.411V320.979Z" fill="#F5F5F5"/>
<path d="M266.411 335.104H263.602V337.913H266.411V335.104Z" fill="#F5F5F5"/>
<path d="M266.411 339.812H263.602V342.622H266.411V339.812Z" fill="#F5F5F5"/>
<path d="M266.411 344.521H263.602V347.329H266.411V344.521Z" fill="#F5F5F5"/>
<path d="M266.411 349.229H263.602V352.038H266.411V349.229Z" fill="#F5F5F5"/>
<path d="M266.411 353.938H263.602V356.746H266.411V353.938Z" fill="#F5F5F5"/>
<path d="M266.411 358.646H263.602V361.454H266.411V358.646Z" fill="#F5F5F5"/>
<path d="M266.411 368.062H263.602V370.872H266.411V368.062Z" fill="#F5F5F5"/>
<path d="M118.221 276.704H115.412V279.513H118.221V276.704Z" fill="#F5F5F5"/>
<path d="M118.221 281.412H115.412V284.221H118.221V281.412Z" fill="#F5F5F5"/>
<path d="M118.221 286.121H115.412V288.93H118.221V286.121Z" fill="#F5F5F5"/>
<path d="M118.221 290.829H115.412V293.638H118.221V290.829Z" fill="#F5F5F5"/>
<path d="M118.221 295.537H115.412V298.346H118.221V295.537Z" fill="#F5F5F5"/>
<path d="M118.221 300.246H115.412V303.055H118.221V300.246Z" fill="#F5F5F5"/>
<path d="M118.221 304.954H115.412V307.762H118.221V304.954Z" fill="#F5F5F5"/>
<path d="M118.221 309.663H115.412V312.472H118.221V309.663Z" fill="#F5F5F5"/>
<path d="M118.221 314.371H115.412V317.18H118.221V314.371Z" fill="#F5F5F5"/>
<path d="M118.221 319.079H115.412V321.888H118.221V319.079Z" fill="#F5F5F5"/>
<path d="M118.221 323.788H115.412V326.597H118.221V323.788Z" fill="#F5F5F5"/>
<path d="M118.221 333.204H115.412V336.013H118.221V333.204Z" fill="#F5F5F5"/>
<path d="M118.221 337.913H115.412V340.722H118.221V337.913Z" fill="#F5F5F5"/>
<path d="M118.221 342.621H115.412V345.43H118.221V342.621Z" fill="#F5F5F5"/>
<path d="M118.221 347.33H115.412V350.139H118.221V347.33Z" fill="#F5F5F5"/>
<path d="M118.221 352.038H115.412V354.846H118.221V352.038Z" fill="#F5F5F5"/>
<path d="M118.221 356.746H115.412V359.555H118.221V356.746Z" fill="#F5F5F5"/>
<path d="M118.221 361.455H115.412V364.264H118.221V361.455Z" fill="#F5F5F5"/>
<path d="M118.221 366.163H115.412V368.972H118.221V366.163Z" fill="#F5F5F5"/>
<path d="M113.76 276.704H110.951V279.513H113.76V276.704Z" fill="#F5F5F5"/>
<path d="M113.76 281.412H110.951V284.221H113.76V281.412Z" fill="#F5F5F5"/>
<path d="M113.76 286.121H110.951V288.93H113.76V286.121Z" fill="#F5F5F5"/>
<path d="M113.76 290.829H110.951V293.638H113.76V290.829Z" fill="#F5F5F5"/>
<path d="M113.76 295.537H110.951V298.346H113.76V295.537Z" fill="#F5F5F5"/>
<path d="M113.76 300.246H110.951V303.055H113.76V300.246Z" fill="#F5F5F5"/>
<path d="M113.76 304.954H110.951V307.762H113.76V304.954Z" fill="#F5F5F5"/>
<path d="M113.76 309.663H110.951V312.472H113.76V309.663Z" fill="#F5F5F5"/>
<path d="M113.76 314.371H110.951V317.18H113.76V314.371Z" fill="#F5F5F5"/>
<path d="M113.76 319.079H110.951V321.888H113.76V319.079Z" fill="#F5F5F5"/>
<path d="M113.76 323.788H110.951V326.597H113.76V323.788Z" fill="#F5F5F5"/>
<path d="M113.76 328.496H110.951V331.304H113.76V328.496Z" fill="#F5F5F5"/>
<path d="M113.76 333.204H110.951V336.013H113.76V333.204Z" fill="#F5F5F5"/>
<path d="M113.76 337.913H110.951V340.722H113.76V337.913Z" fill="#F5F5F5"/>
<path d="M113.76 342.621H110.951V345.43H113.76V342.621Z" fill="#F5F5F5"/>
<path d="M113.76 347.33H110.951V350.139H113.76V347.33Z" fill="#F5F5F5"/>
<path d="M113.76 352.038H110.951V354.846H113.76V352.038Z" fill="#F5F5F5"/>
<path d="M113.76 356.746H110.951V359.555H113.76V356.746Z" fill="#F5F5F5"/>
<path d="M113.76 361.455H110.951V364.264H113.76V361.455Z" fill="#F5F5F5"/>
<path d="M113.76 366.163H110.951V368.972H113.76V366.163Z" fill="#F5F5F5"/>
<path d="M140.193 295.042H137.384V297.851H140.193V295.042Z" fill="#F5F5F5"/>
<path d="M140.193 299.75H137.384V302.559H140.193V299.75Z" fill="#F5F5F5"/>
<path d="M140.193 304.458H137.384V307.267H140.193V304.458Z" fill="#F5F5F5"/>
<path d="M140.193 309.167H137.384V311.976H140.193V309.167Z" fill="#F5F5F5"/>
<path d="M140.193 313.875H137.384V316.683H140.193V313.875Z" fill="#F5F5F5"/>
<path d="M140.193 318.583H137.384V321.392H140.193V318.583Z" fill="#F5F5F5"/>
<path d="M140.193 323.292H137.384V326.101H140.193V323.292Z" fill="#F5F5F5"/>
<path d="M140.193 328H137.384V330.809H140.193V328Z" fill="#F5F5F5"/>
<path d="M140.193 332.708H137.384V335.517H140.193V332.708Z" fill="#F5F5F5"/>
<path d="M140.193 337.417H137.384V340.226H140.193V337.417Z" fill="#F5F5F5"/>
<path d="M135.733 295.042H132.924V297.851H135.733V295.042Z" fill="#F5F5F5"/>
<path d="M135.733 299.75H132.924V302.559H135.733V299.75Z" fill="#F5F5F5"/>
<path d="M135.733 304.458H132.924V307.267H135.733V304.458Z" fill="#F5F5F5"/>
<path d="M135.733 309.167H132.924V311.976H135.733V309.167Z" fill="#F5F5F5"/>
<path d="M135.733 313.875H132.924V316.683H135.733V313.875Z" fill="#F5F5F5"/>
<path d="M135.733 318.583H132.924V321.392H135.733V318.583Z" fill="#F5F5F5"/>
<path d="M135.733 323.292H132.924V326.101H135.733V323.292Z" fill="#F5F5F5"/>
<path d="M135.733 328H132.924V330.809H135.733V328Z" fill="#F5F5F5"/>
<path d="M135.733 332.708H132.924V335.517H135.733V332.708Z" fill="#F5F5F5"/>
<path d="M122.732 104.172C122.732 102.076 121.033 100.377 118.937 100.377C118.558 100.377 118.193 100.434 117.847 100.538C117.902 100.157 117.932 99.7689 117.932 99.3729C117.932 94.9339 114.334 91.3359 109.895 91.3359C109.389 91.3359 108.895 91.3849 108.415 91.4739C107.18 89.4519 104.959 88.0979 102.417 88.0979C98.5691 88.0979 95.4471 91.1899 95.3901 95.0249C95.3511 95.0239 95.3131 95.0189 95.2731 95.0189C91.6971 95.0189 88.7991 97.9179 88.7991 101.493C88.7991 105.069 91.6981 107.967 95.2731 107.967H119.05L119.045 107.962C121.09 107.905 122.732 106.232 122.732 104.172Z" fill="#F5F5F5"/>
<path d="M351.668 106.174H370.843C370.792 105.714 370.761 105.249 370.761 104.775C370.761 97.8038 376.412 92.1538 383.383 92.1538C383.538 92.1538 383.689 92.1718 383.843 92.1768C385.425 87.9328 389.502 84.9038 394.298 84.9038C400.465 84.9038 405.465 89.9028 405.465 96.0708C405.465 96.0798 405.464 96.0878 405.464 96.0958C410.932 96.3508 415.313 100.714 415.597 106.174H416.105C419.191 106.174 421.716 108.699 421.716 111.785C421.716 114.871 419.191 117.396 416.105 117.396H351.67C348.584 117.396 346.059 114.871 346.059 111.785C346.057 108.699 348.582 106.174 351.668 106.174Z" fill="#F5F5F5"/>
<path d="M227.686 131.195C231.818 124.601 239.129 120.203 247.484 120.203C255.978 120.203 263.391 124.75 267.483 131.527C268.558 131.227 269.685 131.054 270.856 131.054C277.771 131.054 283.376 136.66 283.376 143.575C283.376 143.58 283.375 143.586 283.375 143.591H289.976C293.415 143.591 296.228 146.405 296.228 149.843C296.228 153.282 293.414 156.095 289.976 156.095H267.196C263.048 162.611 255.78 166.946 247.484 166.946C240.942 166.946 235.036 164.251 230.794 159.92C230.4 159.952 230.004 159.98 229.601 159.98C221.613 159.98 215.138 153.505 215.138 145.517C215.138 138.179 220.605 132.133 227.686 131.195Z" fill="#F5F5F5"/>
<path d="M250 427.561C357.082 427.561 443.889 422.492 443.889 416.238C443.889 409.985 357.082 404.915 250 404.915C142.918 404.915 56.111 409.985 56.111 416.238C56.111 422.492 142.918 427.561 250 427.561Z" fill="#F5F5F5"/>
<path d="M86.718 392.039C86.718 392.039 91.468 381.675 86.041 371.458C80.614 361.241 79.04 358.834 82.5 356.741C85.96 354.648 87.547 364.914 87.547 364.914C87.547 364.914 90.463 357.851 88.055 350.46C85.647 343.068 84.137 331.029 87.425 329.738C90.714 328.447 88.053 344.757 90.906 350.316C90.906 350.316 93.303 344.127 93.697 338.19C94.091 332.253 93.475 322.773 96.072 320.341C98.669 317.909 100.333 319.592 97.78 332.694C95.228 345.796 95.247 356.446 95.247 356.446C95.247 356.446 100.884 339.26 104.667 338.758C108.45 338.257 108.445 343.823 105.207 348.65C101.969 353.477 95.724 362.126 94.7 366.576C94.7 366.576 100.887 353.642 106.453 357.606C112.019 361.57 101.609 369.382 96.969 372.205C92.329 375.028 89.107 392.723 89.107 392.723L86.718 392.039Z" fill="#407BFF"/>
<path opacity="0.2" d="M86.718 392.039C86.718 392.039 91.468 381.675 86.041 371.458C80.614 361.241 79.04 358.834 82.5 356.741C85.96 354.648 87.547 364.914 87.547 364.914C87.547 364.914 90.463 357.851 88.055 350.46C85.647 343.068 84.137 331.029 87.425 329.738C90.714 328.447 88.053 344.757 90.906 350.316C90.906 350.316 93.303 344.127 93.697 338.19C94.091 332.253 93.475 322.773 96.072 320.341C98.669 317.909 100.333 319.592 97.78 332.694C95.228 345.796 95.247 356.446 95.247 356.446C95.247 356.446 100.884 339.26 104.667 338.758C108.45 338.257 108.445 343.823 105.207 348.65C101.969 353.477 95.724 362.126 94.7 366.576C94.7 366.576 100.887 353.642 106.453 357.606C112.019 361.57 101.609 369.382 96.969 372.205C92.329 375.028 89.107 392.723 89.107 392.723L86.718 392.039Z" fill="black"/>
<path d="M90.468 396.29C90.468 396.29 85.843 385.856 91.392 375.721C96.941 365.586 98.543 363.203 95.109 361.058C91.675 358.913 89.964 369.155 89.964 369.155C89.964 369.155 87.133 362.049 89.629 354.694C92.126 347.339 93.78 335.323 90.507 333.983C87.234 332.643 89.699 348.991 86.779 354.508C86.779 354.508 84.457 348.284 84.134 342.341C83.811 336.399 84.541 326.929 81.973 324.458C79.406 321.988 77.722 323.645 80.117 336.784C82.512 349.923 82.365 360.572 82.365 360.572C82.365 360.572 76.935 343.303 73.158 342.745C69.381 342.187 69.319 347.753 72.499 352.628C75.679 357.503 81.82 366.244 82.791 370.709C82.791 370.709 76.759 357.684 71.147 361.565C65.534 365.446 75.85 373.412 80.455 376.304C85.061 379.196 88.07 396.937 88.07 396.937L90.468 396.29Z" fill="#407BFF"/>
<path d="M69.134 388.852H107.345L104.252 416.196H72.227L69.134 388.852Z" fill="#263238"/>
<path d="M167.934 119.911H139.206C134.321 119.911 130.36 123.871 130.36 128.757V153.759C130.36 158.644 134.321 162.605 139.206 162.605H147.594L147.567 171.5L153.544 162.605H167.935C172.82 162.605 176.781 158.645 176.781 153.759V128.757C176.78 123.871 172.82 119.911 167.934 119.911Z" fill="#407BFF"/>
<path opacity="0.7" d="M167.934 119.911H139.206C134.321 119.911 130.36 123.871 130.36 128.757V153.759C130.36 158.644 134.321 162.605 139.206 162.605H147.594L147.567 171.5L153.544 162.605H167.935C172.82 162.605 176.781 158.645 176.781 153.759V128.757C176.78 123.871 172.82 119.911 167.934 119.911Z" fill="white"/>
<path d="M147.869 153.994L148.857 154.812L150.606 153.063L149.788 152.075C150.237 151.39 150.566 150.62 150.738 149.791L152.011 149.671V147.198L150.738 147.078C150.566 146.249 150.237 145.478 149.788 144.794L150.606 143.806L148.857 142.057L147.869 142.875C147.184 142.426 146.413 142.097 145.585 141.925L145.465 140.652H142.992L142.872 141.925C142.043 142.097 141.272 142.426 140.588 142.875L139.6 142.057L137.851 143.806L138.669 144.794C138.22 145.478 137.891 146.249 137.719 147.078L136.446 147.198V149.671L137.719 149.791C137.891 150.62 138.219 151.391 138.669 152.075L137.851 153.063L139.6 154.812L140.588 153.994C141.273 154.443 142.043 154.772 142.872 154.944L142.992 156.217H145.465L145.585 154.944C146.413 154.772 147.184 154.443 147.869 153.994ZM140.88 148.434C140.88 146.585 142.379 145.086 144.228 145.086C146.077 145.086 147.576 146.585 147.576 148.434C147.576 150.283 146.077 151.782 144.228 151.782C142.379 151.782 140.88 150.283 140.88 148.434Z" fill="#407BFF"/>
<path d="M164.858 146.132L166.285 147.314L168.812 144.787L167.63 143.36C168.279 142.371 168.754 141.257 169.002 140.06L170.842 139.887V136.314L169.002 136.141C168.754 134.943 168.279 133.83 167.63 132.841L168.812 131.413L166.285 128.886L164.858 130.068C163.869 129.419 162.755 128.944 161.558 128.696L161.385 126.856L157.812 126.857L157.639 128.696C156.441 128.944 155.327 129.419 154.339 130.068L152.911 128.886L150.384 131.413L151.566 132.841C150.917 133.83 150.442 134.943 150.194 136.141L148.355 136.314V139.887L150.194 140.06C150.443 141.258 150.917 142.371 151.566 143.36L150.384 144.787L152.911 147.314L154.339 146.132C155.328 146.781 156.442 147.256 157.639 147.504L157.812 149.344H161.385L161.558 147.504C162.755 147.255 163.869 146.781 164.858 146.132ZM154.761 138.099C154.761 135.428 156.926 133.262 159.598 133.262C162.269 133.262 164.435 135.427 164.435 138.099C164.435 140.77 162.269 142.936 159.598 142.936C156.926 142.936 154.761 140.771 154.761 138.099Z" fill="#407BFF"/>
<path d="M147.123 215.507C155.533 217.393 172.676 236.624 172.676 236.624L203.648 239.731L203.977 247.051C203.977 247.051 173.659 247.657 169.739 247.294C165.819 246.931 147.123 232.384 147.123 232.384V215.507Z" fill="#407BFF"/>
<path opacity="0.7" d="M203.974 247.054C203.974 247.054 173.664 247.654 169.744 247.294C167.774 247.114 162.094 243.364 156.914 239.664C154.284 237.794 151.784 235.924 149.964 234.554C148.234 233.244 147.124 232.384 147.124 232.384V215.504C155.534 217.394 172.674 236.624 172.674 236.624L203.644 239.734L203.974 247.054Z" fill="white"/>
<path d="M203 246.751L212.211 246.051L210.321 238.199C210.321 238.199 203.813 237.783 201.547 242.661L203 246.751Z" fill="#EBB376"/>
<path d="M217.766 242.533L214.956 237.018L210.321 238.199L212.211 246.051L217.766 242.533Z" fill="#EBB376"/>
<path opacity="0.1" d="M156.914 239.664C154.284 237.794 151.784 235.924 149.964 234.554C149.284 232.344 148.964 230.034 149.264 227.944C149.264 227.944 155.664 232.934 156.914 239.664Z" fill="black"/>
<path d="M129.206 408.179L120.801 408.312C120.518 408.318 120.276 408.519 120.219 408.797L118.952 414.98C118.844 415.534 119.205 416.07 119.759 416.178C119.833 416.192 119.908 416.199 119.984 416.196C122.703 416.109 124.68 415.911 128.096 415.856C130.2 415.823 136.549 415.942 139.453 415.896C142.357 415.85 142.691 412.975 141.498 412.729C136.146 411.652 132.107 410.104 130.375 408.6C130.054 408.315 129.636 408.164 129.206 408.179Z" fill="#263238"/>
<path d="M200.079 408.179L191.674 408.312C191.391 408.318 191.149 408.519 191.092 408.797L189.825 414.98C189.717 415.534 190.078 416.07 190.632 416.178C190.706 416.192 190.781 416.199 190.857 416.196C193.576 416.109 195.554 415.911 198.969 415.856C201.073 415.823 207.422 415.942 210.326 415.896C213.23 415.85 213.563 412.975 212.371 412.729C207.019 411.652 202.98 410.104 201.248 408.6C200.927 408.315 200.508 408.164 200.079 408.179Z" fill="#263238"/>
<path d="M118.923 408.605H130.374C130.374 408.605 144.954 360.547 146.21 348.287C147.465 336.028 147.922 305.308 147.922 305.308C147.922 305.308 147.922 305.317 147.932 305.327C147.942 305.337 147.951 305.356 147.97 305.384C148.465 306.04 152.792 312.127 157.766 319.194C164.281 328.448 171.918 339.385 173.526 342.067C178.253 349.961 189.808 408.605 189.808 408.605H201.25C201.25 408.605 198.368 356.115 192.491 338.815C186.623 321.515 161.191 283.738 160.088 281.703C158.68 279.116 155.219 270.899 155.219 270.899L120.913 275.664C120.913 275.664 121.352 281.475 121.39 286.554C121.552 305.614 128.149 331.378 128.729 338.302C129.811 351.474 118.923 408.605 118.923 408.605Z" fill="#263238"/>
<path d="M147.121 215.51C147.121 215.51 157.385 233.825 155.212 270.893C144.876 272.331 125.937 274.965 120.907 275.665C119.938 270.432 119.674 244.283 111.143 220.177C111.143 220.177 116.859 218.179 122.425 217.129C126.779 216.308 133.106 215.285 137.008 215.101C142.153 214.859 147.121 215.51 147.121 215.51Z" fill="#407BFF"/>
<path opacity="0.7" d="M155.214 270.894C147.654 271.944 135.504 273.634 127.544 274.744C124.624 275.144 122.264 275.474 120.914 275.664C120.314 272.464 119.984 261.394 117.854 247.754C117.814 247.464 117.764 247.164 117.714 246.864C117.114 243.114 116.374 239.184 115.454 235.174C114.314 230.234 112.904 225.164 111.144 220.174C111.144 220.174 116.864 218.184 122.424 217.134C126.784 216.304 133.104 215.284 137.014 215.094C142.154 214.864 147.124 215.504 147.124 215.504C147.124 215.504 157.383 233.824 155.214 270.894Z" fill="white"/>
<path d="M125.783 220.177L134.018 224.091L135.869 226.335C135.869 226.335 138.814 241.656 138.502 253.656L141.619 256.425L143.993 251.81C143.993 251.81 139.093 230.222 137.511 225.766L137.927 222.931L139.378 216.983L126.306 217.788L125.783 220.177Z" fill="#263238"/>
<path d="M121.649 201.438C123.361 205.952 125.733 214.352 122.997 218.026C127.796 219.165 131.243 219.897 135.62 222.66C136.48 219.562 137.511 215.552 137.511 215.552C132.092 215.196 131.567 211.31 131.856 207.527L121.649 201.438Z" fill="#EBB376"/>
<path opacity="0.2" d="M125.81 203.922L131.85 207.522C131.779 208.418 131.758 209.317 131.842 210.174C129.804 210.226 126.698 208.508 126.132 206.461C125.85 205.441 125.723 204.435 125.81 203.922Z" fill="black"/>
<path opacity="0.5" d="M118.923 408.605H130.374C130.374 408.605 144.954 360.547 146.21 348.287C147.465 336.028 147.922 305.308 147.922 305.308C147.922 305.308 147.922 305.317 147.932 305.327C147.942 305.337 147.951 305.356 147.97 305.384C148.465 306.04 152.792 312.127 157.766 319.194C164.281 328.448 171.918 339.385 173.526 342.067C178.253 349.961 189.808 408.605 189.808 408.605H201.25C201.25 408.605 198.368 356.115 192.491 338.815C186.623 321.515 161.191 283.738 160.088 281.703C158.68 279.116 155.219 270.899 155.219 270.899L120.913 275.664C120.913 275.664 121.352 281.475 121.39 286.554C121.552 305.614 128.149 331.378 128.729 338.302C129.811 351.474 118.923 408.605 118.923 408.605Z" fill="white"/>
<path d="M118.14 218.094L120.987 214.538L130.221 216.316L134.908 221.687L135.497 215.488L137.231 213.409L141.019 215.048V218.928L138.322 218.05L135.986 223.464L128.613 220.433L126.972 222.521L118.14 218.094Z" fill="#407BFF"/>
<path opacity="0.9" d="M118.14 218.094L120.987 214.538L130.221 216.316L134.908 221.687L135.497 215.488L137.231 213.409L141.019 215.048V218.928L138.322 218.05L135.986 223.464L128.613 220.433L126.972 222.521L118.14 218.094Z" fill="white"/>
<path opacity="0.1" d="M135.986 223.464L136.88 216.984L141.019 218.928L138.322 218.05L135.986 223.464Z" fill="black"/>
<path opacity="0.1" d="M135.986 223.464L129.154 218.437L126.972 222.521L128.613 220.433L135.986 223.464Z" fill="black"/>
<path opacity="0.2" d="M147.922 305.308C147.922 305.308 147.922 305.317 147.932 305.327C147.942 305.337 147.951 305.356 147.97 305.384C148.465 306.04 152.792 312.127 157.766 319.194C159.373 305.574 148.122 299.744 148.122 299.744L147.922 305.308Z" fill="black"/>
<path d="M133.683 185.479C135.641 187.192 135.979 190.216 136.347 192.127C136.716 194.039 137.427 196.493 134.56 194.217C131.693 191.942 127.505 181.445 133.683 185.479Z" fill="#263238"/>
<path d="M119.633 196.707C121.435 202.998 120.748 204.218 124.693 206.751C130.627 210.562 138.77 209.775 138.495 203.059C138.247 197.014 136.526 186.341 129.722 185.24C123.02 184.154 117.831 190.416 119.633 196.707Z" fill="#EBB376"/>
<path d="M121.235 200.883C124.601 200.259 123.924 198.977 123.676 198.691C122.591 197.442 123.254 195.257 123.901 192.462C124.548 189.666 118.796 187.418 115.124 189.14C111.744 190.726 115.614 201.925 121.235 200.883Z" fill="#263238"/>
<path d="M117.659 201.609C118.623 203.003 120.038 203.834 121.28 204.077C123.149 204.442 123.727 202.565 122.909 200.739C122.173 199.095 120.314 196.924 118.582 197.387C116.876 197.843 116.557 200.015 117.659 201.609Z" fill="#EBB376"/>
<path d="M133.157 194.587C133.157 194.587 134.588 196.815 135.869 197.768C135.262 198.615 133.937 198.557 133.937 198.557L133.157 194.587Z" fill="#D58745"/>
<path d="M114.606 186.379C115.615 184.008 126.733 180.482 131.491 181.346C133.946 181.792 134.539 183.81 134.113 185.099C132.604 189.667 128.671 187.896 128.671 187.896C123.669 186.012 121.708 190.523 121.708 190.523L114.829 189.93C114.829 189.93 113.724 188.45 114.606 186.379Z" fill="#263238"/>
<path d="M128.598 195.015C128.709 195.552 129.083 195.925 129.433 195.849C129.783 195.773 129.978 195.277 129.867 194.74C129.756 194.203 129.382 193.83 129.032 193.906C128.682 193.981 128.488 194.478 128.598 195.015Z" fill="#263238"/>
<path d="M134.661 193.702C134.772 194.239 135.146 194.612 135.496 194.536C135.847 194.46 136.041 193.963 135.93 193.427C135.819 192.89 135.445 192.517 135.095 192.593C134.745 192.668 134.551 193.165 134.661 193.702Z" fill="#263238"/>
<path d="M125.303 193.615C125.415 193.606 125.519 193.539 125.571 193.429C126.188 192.125 127.36 191.941 127.372 191.939C127.548 191.914 127.672 191.75 127.648 191.574C127.625 191.398 127.462 191.276 127.287 191.301C127.225 191.31 125.755 191.539 124.991 193.157C124.915 193.319 124.983 193.51 125.143 193.585C125.194 193.611 125.249 193.62 125.303 193.615Z" fill="#263238"/>
<path d="M135.821 191.204C135.882 191.199 135.942 191.177 135.995 191.136C136.136 191.026 136.162 190.823 136.054 190.683C134.967 189.277 133.491 189.402 133.425 189.399C133.248 189.415 133.116 189.571 133.129 189.749C133.143 189.926 133.296 190.056 133.472 190.042C133.533 190.034 134.672 189.953 135.544 191.081C135.611 191.17 135.717 191.212 135.821 191.204Z" fill="#263238"/>
<path d="M134.908 201.508C134.908 201.508 132.487 201.951 130.491 200.837" stroke="#263238" stroke-width="0.5" stroke-miterlimit="10" stroke-linecap="round" stroke-linejoin="round"/>
<path opacity="0.1" d="M127.544 274.744C124.624 275.144 122.264 275.474 120.914 275.664C120.314 272.464 119.984 261.394 117.854 247.754C120.214 241.474 122.494 236.704 122.494 236.704C122.494 236.704 128.888 243.107 134.514 252.602C138.578 259.462 134.544 269.834 127.544 274.744Z" fill="black"/>
<path d="M396.638 110.408L342.189 112.537L347.256 119.915L351.466 125.531L263.897 191.192L221.62 185.148L98.4871 277.476L103.553 284.854L121.551 308.856L234.742 223.982L277.019 230.026L374.828 156.687L384.403 169.456L401.704 117.786L396.638 110.408Z" fill="#407BFF"/>
<path opacity="0.2" d="M396.638 110.408L342.189 112.537L347.256 119.915L351.466 125.531L263.897 191.192L221.62 185.148L98.4871 277.476L103.553 284.854L121.551 308.856L234.742 223.982L277.019 230.026L374.828 156.687L384.403 169.456L401.704 117.786L396.638 110.408Z" fill="black"/>
<path d="M396.638 110.408L342.189 112.537L351.764 125.307L263.897 191.192L221.62 185.148L98.4871 277.476L116.484 301.479L229.676 216.605L271.952 222.649L369.762 149.309L379.337 162.079L396.638 110.408Z" fill="#407BFF"/>
<path d="M396.638 110.408L342.189 112.537L351.764 125.307L263.897 191.192L221.62 185.148L98.4871 277.476L116.484 301.479L229.676 216.605L271.952 222.649L369.762 149.309L379.337 162.079L396.638 110.408Z" fill="#407BFF"/>
<path d="M157.723 264.11L165.96 268.292L161.201 274.817C161.201 274.817 155.032 272.703 154.811 267.329L157.723 264.11Z" fill="#EBB376"/>
<path d="M169.739 273.672L165.027 277.687L161.2 274.817L165.959 268.292L169.739 273.672Z" fill="#EBB376"/>
<path d="M111.143 220.177C102.126 225.773 117.169 255.016 119.999 259.386C122.829 263.756 154.81 270.899 154.81 270.899L158.762 264.111L129.058 250.916L120 228.206C116.483 220.95 111.143 220.177 111.143 220.177Z" fill="#407BFF"/>
<path opacity="0.7" d="M111.143 220.177C102.126 225.773 117.169 255.016 119.999 259.386C122.829 263.756 154.81 270.899 154.81 270.899L158.762 264.111L129.058 250.916L120 228.206C116.483 220.95 111.143 220.177 111.143 220.177Z" fill="white"/>
<path d="M391.891 202.01L381.77 205.15L391.891 208.291V202.01Z" fill="#407BFF"/>
<path opacity="0.7" d="M391.891 202.01L381.77 205.15L391.891 208.291V202.01Z" fill="white"/>
<path d="M428.23 183.803H399.502C394.616 183.803 390.656 187.764 390.656 192.649V217.651C390.656 222.536 394.617 226.497 399.502 226.497H410.864H416.868H428.231C433.116 226.497 437.077 222.537 437.077 217.651V192.65C437.076 187.764 433.116 183.803 428.23 183.803Z" fill="#407BFF"/>
<path opacity="0.7" d="M428.23 183.803H399.502C394.616 183.803 390.656 187.764 390.656 192.649V217.651C390.656 222.536 394.617 226.497 399.502 226.497H428.231C433.116 226.497 437.077 222.537 437.077 217.651V192.65C437.076 187.764 433.116 183.803 428.23 183.803Z" fill="white"/>
<path d="M424.052 215.234C429.62 209.666 429.62 200.638 424.052 195.07C418.484 189.502 409.456 189.502 403.888 195.07C398.32 200.638 398.32 209.666 403.888 215.234C409.456 220.802 418.484 220.802 424.052 215.234Z" fill="#407BFF"/>
<path d="M412.477 211.519C412.092 211.519 411.727 211.35 411.478 211.057L405.884 204.466C405.416 203.914 405.484 203.088 406.035 202.619C406.586 202.152 407.413 202.218 407.882 202.77L412.477 208.184L420.065 199.244C420.534 198.691 421.361 198.625 421.912 199.093C422.464 199.561 422.532 200.388 422.063 200.94L413.476 211.058C413.227 211.35 412.862 211.519 412.477 211.519Z" fill="white"/>
<path d="M380.293 414.632L386.467 412.074L382.297 397.052L376.123 399.609L380.293 414.632Z" fill="#B55B52"/>
<path d="M386.518 401.998L374.788 406.858C374.788 406.858 364.408 368.548 354.408 348.808C348.918 337.988 339.568 320.818 331.448 306.128C327.438 298.848 323.728 292.188 320.938 287.198C317.878 281.708 315.928 278.248 315.928 278.248L335.788 264.878C335.788 264.878 362.638 318.548 370.668 337.238C379.448 357.708 386.518 401.998 386.518 401.998Z" fill="#263238"/>
<path d="M386.036 408.599H377.889C377.616 408.599 377.377 408.789 377.315 409.055L375.936 414.995C375.793 415.611 376.271 416.194 376.902 416.183C379.523 416.138 381.438 415.984 384.739 415.984C386.77 415.984 392.893 416.195 395.698 416.195C398.441 416.195 398.897 413.421 397.751 413.17C392.614 412.044 388.749 410.49 387.116 409.009C386.822 408.743 386.435 408.599 386.036 408.599Z" fill="#263238"/>
<path opacity="0.3" d="M331.448 306.128C327.438 298.848 323.728 292.188 320.938 287.198C321.978 286.948 323.378 287.178 325.228 288.038C325.228 288.038 330.898 295.718 331.448 306.128Z" fill="black"/>
<path d="M362.525 176.472L367.523 168.703L360.12 165.474C360.12 165.474 355.863 170.414 358.386 175.164L362.525 176.472Z" fill="#B55B52"/>
<path d="M368.068 162.151L361.974 161.065L360.12 165.475L367.523 168.704L368.068 162.151Z" fill="#B55B52"/>
<path d="M347.912 233.712C361.494 222.545 368.59 215.152 371.313 210.714C374.036 206.276 364.034 174.48 364.034 174.48L356.205 174.841L359.764 206.192L347.732 216.06L347.912 233.712Z" fill="#263238"/>
<path opacity="0.2" d="M371.318 210.718C368.858 214.708 362.868 221.098 351.788 230.478C350.558 231.518 349.268 232.598 347.908 233.708L347.848 227.888L347.728 216.058L359.768 206.188L356.208 174.838L364.038 174.478C364.038 174.478 374.038 206.278 371.318 210.718Z" fill="white"/>
<path opacity="0.2" d="M351.788 230.478C350.558 231.518 349.268 232.598 347.908 233.708L347.848 227.888C348.788 228.328 350.148 229.118 351.788 230.478Z" fill="black"/>
<path d="M280.778 413.887L287.318 415.262L292.358 400.509L285.819 399.133L280.778 413.887Z" fill="#B55B52"/>
<path d="M329.117 265.428C329.117 265.428 320.974 324.885 317.04 344.842C312.732 366.697 293.561 407.244 293.561 407.244L281.135 404.631C281.135 404.631 294.2 367.156 297.09 345.214C300.322 320.677 305.173 265.251 305.173 265.251L329.117 265.428Z" fill="#263238"/>
<path d="M289.697 408.599H281.55C281.277 408.599 281.038 408.789 280.976 409.055L279.596 414.995C279.453 415.611 279.931 416.194 280.562 416.183C283.184 416.138 285.098 415.984 288.399 415.984C290.43 415.984 296.553 416.195 299.358 416.195C302.101 416.195 302.557 413.421 301.411 413.17C296.274 412.044 292.409 410.49 290.776 409.009C290.483 408.743 290.097 408.599 289.697 408.599Z" fill="#263238"/>
<path d="M342.827 264.174C350.618 236.262 347.057 220.777 347.057 220.777C347.057 220.777 343.284 219.431 338.796 218.517C338.209 218.394 337.61 218.287 336.999 218.187C333.073 217.54 326.586 217.215 322.147 217.106C321.22 217.084 320.278 217.086 319.362 217.103C314.726 217.194 310.582 218.798 310.582 218.798C310.815 226.071 310.331 232.332 309.529 239.201C308.938 244.24 309.168 249.021 308.366 253.344C307.612 257.417 307.835 261.073 307.15 264.176H342.827V264.174Z" fill="#407BFF"/>
<path opacity="0.7" d="M342.827 264.174C350.618 236.262 347.057 220.777 347.057 220.777C347.057 220.777 343.284 219.431 338.796 218.517C338.209 218.394 337.61 218.287 336.999 218.187C333.073 217.54 326.586 217.215 322.147 217.106C321.22 217.084 320.278 217.086 319.362 217.103C314.726 217.194 310.582 218.798 310.582 218.798C310.815 226.071 310.331 232.332 309.529 239.201C308.938 244.24 309.168 249.021 308.366 253.344C307.612 257.417 307.835 261.073 307.15 264.176H342.827V264.174Z" fill="white"/>
<path d="M333.912 226.618C334.347 229.325 335.727 236.281 335.666 243.136C335.021 244.466 334.154 247.708 333.371 249.023C332.798 247.522 331.804 244.433 331.123 242.919C331.729 236.404 332.884 229.872 332.528 226.453L333.912 226.618Z" fill="#407BFF"/>
<path d="M332.418 225.458C327.258 223.998 324.438 220.908 322.858 217.788C323.888 217.278 324.758 216.368 325.508 215.208C326.908 213.058 327.858 210.058 328.478 207.228C328.868 205.448 329.118 203.728 329.278 202.328L332.318 207.128L335.648 212.378C335.138 213.208 334.678 214.038 334.338 214.858C333.348 217.278 333.388 219.608 336.328 221.398C336.728 223.178 336.368 226.568 332.418 225.458Z" fill="#B55B52"/>
<path d="M333.499 228.679L335.208 225.634L333.039 224.258L331.122 225.056L333.499 228.679Z" fill="#407BFF"/>
<path d="M333.039 224.258C333.039 224.258 331.204 225.987 329.107 227.655C326.646 225.851 320.945 221.154 321.699 217.676C322.195 216.702 323.641 216.277 323.641 216.277C323.641 216.277 327.047 220.598 333.039 224.258Z" fill="white"/>
<path d="M333.039 224.258C333.039 224.258 334.887 226.264 335.95 228.63C338.067 227.565 337.314 220.597 336.692 219.77C334.953 217.704 333.759 217.288 333.759 217.288C333.759 217.288 334.716 220.828 333.039 224.258Z" fill="white"/>
<path d="M302.039 285.537L326.83 288.038L331.122 277.904L335.191 287.097L346.346 283.559L340.503 271.836C351.695 244.644 347.732 216.062 347.732 216.062C342.654 217.289 336.561 218.115 336.561 218.115C343.062 227.99 333.37 249.024 333.37 249.024C327.544 232.777 320.572 217.087 320.572 217.087C313.493 217.288 307.818 220.064 307.818 220.064C307.818 220.064 309.003 253.288 305.64 262.702C302.289 272.104 302.039 285.537 302.039 285.537Z" fill="#263238"/>
<path opacity="0.2" d="M340.508 271.838L346.348 283.558L335.188 287.098L331.118 277.908L326.828 288.038L302.038 285.538C302.038 285.538 302.288 272.108 305.638 262.698C306.708 259.708 307.318 254.308 307.648 248.338C307.938 243.328 308.018 237.898 308.018 233.158C308.018 225.788 307.818 220.068 307.818 220.068C307.818 220.068 313.488 217.288 320.568 217.088C320.568 217.088 327.548 232.778 333.368 249.018C333.368 249.018 343.068 227.988 336.558 218.118C336.558 218.118 342.658 217.288 347.728 216.058C347.728 216.058 351.698 244.638 340.508 271.838Z" fill="white"/>
<path d="M324.374 230.516L318.933 237.37C318.933 237.37 331.646 246.473 335.384 261.585L334.045 252.76L344.498 238.077L339.689 232.069L345.408 227.828C345.408 227.828 340.492 219.549 336.562 218.114C343.063 227.989 333.371 249.023 333.371 249.023C327.545 232.776 320.573 217.086 320.573 217.086C320.573 217.086 315.968 220.353 313.494 227.196L324.374 230.516Z" fill="#263238"/>
<path opacity="0.2" d="M335.648 212.378C335.138 213.208 334.678 214.038 334.338 214.858C332.118 215.938 329.208 216.358 325.508 215.208C326.908 213.058 327.858 210.058 328.478 207.228C329.748 207.138 331.048 207.108 332.318 207.128L335.648 212.378Z" fill="black"/>
<path d="M323.327 192.954C322.124 195.319 321.698 200.518 325.464 199.434C329.229 198.35 325.394 188.89 323.327 192.954Z" fill="#263238"/>
<path d="M340.748 199.332C340.06 205.811 339.987 209.641 336.552 212.799C331.386 217.55 323.485 214.136 322.221 207.562C321.083 201.645 322.4 192.044 328.884 189.803C335.272 187.596 341.436 192.853 340.748 199.332Z" fill="#B55B52"/>
<path d="M345.755 193.496L338.933 191.035L337.52 194.95C337.674 194.916 337.844 194.89 337.99 194.852C337.99 194.852 336.633 200.788 339.327 203.797C344.876 201.765 347.922 196.579 345.755 193.496Z" fill="#263238"/>
<path d="M343.014 204.859C342.42 206.509 341.117 207.722 339.8 208.305C337.818 209.182 336.498 207.477 336.773 205.438C337.02 203.603 338.35 200.936 340.471 200.919C342.562 200.904 343.694 202.973 343.014 204.859Z" fill="#B55B52"/>
<path d="M330.797 200.612C330.773 201.141 330.474 201.555 330.127 201.536C329.781 201.517 329.519 201.073 329.542 200.544C329.565 200.015 329.865 199.601 330.212 199.62C330.559 199.639 330.82 200.083 330.797 200.612Z" fill="#263238"/>
<path d="M324.808 200.287C324.784 200.816 324.485 201.23 324.138 201.211C323.792 201.192 323.53 200.748 323.553 200.218C323.577 199.689 323.876 199.275 324.223 199.294C324.57 199.313 324.831 199.758 324.808 200.287Z" fill="#263238"/>
<path d="M326.7 200.654C326.7 200.654 325.334 203.527 323.932 204.881C324.82 205.758 326.431 205.444 326.431 205.444L326.7 200.654Z" fill="#A02724"/>
<path d="M329.181 207.623C328.962 207.641 328.732 207.644 328.489 207.631C328.403 207.626 328.336 207.553 328.34 207.467C328.344 207.381 328.418 207.315 328.502 207.32C330.83 207.444 331.985 205.882 331.997 205.866C332.047 205.797 332.145 205.782 332.214 205.832C332.284 205.883 332.3 205.98 332.25 206.05C332.206 206.114 331.209 207.461 329.181 207.623Z" fill="#263238"/>
<path d="M332.729 198.781C332.621 198.79 332.511 198.741 332.444 198.644C331.656 197.493 330.508 197.498 330.497 197.498C330.325 197.501 330.182 197.364 330.178 197.192C330.174 197.02 330.31 196.879 330.481 196.876C330.542 196.875 331.979 196.869 332.957 198.297C333.055 198.44 333.019 198.633 332.877 198.729C332.832 198.76 332.781 198.777 332.729 198.781Z" fill="#263238"/>
<path d="M322.319 198.089C322.26 198.094 322.199 198.082 322.143 198.051C321.992 197.967 321.936 197.778 322.018 197.628C322.84 196.119 324.268 196.012 324.332 195.999C324.503 195.987 324.654 196.116 324.668 196.288C324.682 196.459 324.555 196.607 324.385 196.621C324.325 196.623 323.226 196.72 322.566 197.93C322.513 198.024 322.419 198.081 322.319 198.089Z" fill="#263238"/>
<path d="M339.667 197.003C339.667 197.003 339.472 197.095 339.157 197.166C338.528 197.309 337.424 197.369 336.45 196.449C334.989 195.068 335.964 190.01 330.299 190.983C330.299 190.983 328.779 189.959 327.04 191.112C325.301 192.265 324.425 198.173 321.976 196.559C319.527 194.946 320.253 194.261 320.253 194.261C320.253 194.261 320.858 194.971 321.423 194.732C321.423 194.732 320.376 193.124 321.561 191.696C321.561 191.696 321.975 192.67 322.46 192.653C322.46 192.653 322.537 189.522 325.298 186.115C328.059 182.708 337.34 186.535 337.34 186.535C337.34 186.535 339.168 184.897 343.046 187.637C346.924 190.377 347.284 196.183 345.898 198.238" fill="#263238"/>
<path opacity="0.2" d="M311.538 233.708C311.538 233.708 311.328 242.958 307.648 248.338C307.938 243.328 308.018 237.898 308.018 233.158C309.177 232.918 310.358 233.068 311.538 233.708Z" fill="black"/>
<path d="M273.37 231.83L264.213 230.615L266.541 222.882C266.541 222.882 273.062 222.832 275.051 227.829L273.37 231.83Z" fill="#B55B52"/>
<path d="M258.863 226.791L261.978 221.442L266.54 222.881L264.212 230.615L258.863 226.791Z" fill="#B55B52"/>
<path d="M313.492 233.712C313.492 233.712 299.874 253.384 294.864 254.804C289.855 256.225 269.958 231.987 269.958 231.987L274.425 225.549L292.636 241.462C292.636 241.462 302.121 224.257 307.818 220.063L313.492 233.712Z" fill="#263238"/>
<path opacity="0.2" d="M313.492 233.712C313.492 233.712 299.874 253.384 294.864 254.804C289.855 256.225 269.958 231.987 269.958 231.987L274.425 225.549L292.636 241.462C292.636 241.462 302.121 224.257 307.818 220.063L313.492 233.712Z" fill="white"/>
</svg>
