<svg width="501" height="500" viewBox="0 0 501 500" fill="none" xmlns="http://www.w3.org/2000/svg">
<g clip-path="url(#clip0_561_3031)">
<path d="M500.806 382.398H0.806152V382.648H500.806V382.398Z" fill="#EBEBEB"/>
<path d="M450.707 398.494H417.585V398.744H450.707V398.494Z" fill="#EBEBEB"/>
<path d="M332.026 401.208H323.333V401.458H332.026V401.208Z" fill="#EBEBEB"/>
<path d="M416.584 389.208H397.392V389.458H416.584V389.208Z" fill="#EBEBEB"/>
<path d="M96.4581 390.888H53.2651V391.138H96.4581V390.888Z" fill="#EBEBEB"/>
<path d="M111.695 390.888H105.362V391.138H111.695V390.888Z" fill="#EBEBEB"/>
<path d="M225.953 395.111H132.277V395.361H225.953V395.111Z" fill="#EBEBEB"/>
<path d="M237.82 337.8H44.7212C41.5742 337.8 39.0132 335.239 39.0132 332.092V60.6599C39.0132 57.5129 41.5742 54.9519 44.7212 54.9519H237.82C240.966 54.9519 243.527 57.5129 243.527 60.6599V332.092C243.527 335.239 240.966 337.8 237.82 337.8ZM44.7212 55.2029C41.7112 55.2029 39.2632 57.6509 39.2632 60.6609V332.093C39.2632 335.103 41.7112 337.551 44.7212 337.551H237.82C240.829 337.551 243.277 335.103 243.277 332.093V60.6599C243.277 57.6509 240.829 55.2019 237.82 55.2019L44.7212 55.2029Z" fill="#EBEBEB"/>
<path d="M454.116 337.8H261.018C257.871 337.8 255.311 335.239 255.311 332.092V60.6599C255.311 57.5129 257.872 54.9519 261.018 54.9519H454.116C457.264 54.9519 459.824 57.5129 459.824 60.6599V332.092C459.825 335.239 457.264 337.8 454.116 337.8ZM261.018 55.2029C258.009 55.2029 255.561 57.6509 255.561 60.6609V332.093C255.561 335.103 258.009 337.551 261.018 337.551H454.116C457.126 337.551 459.574 335.103 459.574 332.093V60.6599C459.574 57.6509 457.126 55.2019 454.116 55.2019L261.018 55.2029Z" fill="#EBEBEB"/>
<path d="M217.08 90.0598H73.9482V237.955H217.08V90.0598Z" fill="#EBEBEB"/>
<path d="M222.08 90.0598H78.9482V237.955H222.08V90.0598Z" fill="#F0F0F0"/>
<path d="M218.286 93.5659H82.5571V234.519H218.286V93.5659Z" fill="#E0E0E0"/>
<path d="M214.895 93.5637H82.5552V234.514H214.895V93.5637Z" fill="#F5F5F5"/>
<path d="M150.095 93.5659H147.408V234.519H150.095V93.5659Z" fill="#EBEBEB"/>
<path d="M131.935 93.5637L94.2152 234.514H90.5952L128.315 93.5637H131.935Z" fill="white"/>
<path d="M151.247 91.3918H148.943V237.22H151.247V91.3918Z" fill="#F0F0F0"/>
<path d="M118.245 93.5637L82.5552 226.954V153.634L98.6252 93.5637H118.245Z" fill="white"/>
<path d="M214.895 106.354V119.884L184.215 234.514H180.595L214.895 106.354Z" fill="white"/>
<path d="M214.895 133.674V206.994L207.535 234.514H187.915L214.895 133.674Z" fill="white"/>
<path d="M324.533 283.109H444.674C444.674 287.52 441.202 291.141 436.796 291.34C423.885 291.922 404.023 293.965 397.724 301.109C385.983 314.426 387.12 361.204 401.184 372.038C405.593 375.435 418.449 382.18 418.449 382.18H350.758C350.758 382.18 362.77 375.299 366.944 372.038C380.928 361.115 381.335 314.364 369.539 301.109C363.487 294.308 344.87 292.111 332.379 291.418C327.974 291.173 324.533 287.522 324.533 283.109Z" fill="#F5F5F5"/>
<path d="M429.792 291.776C417.589 292.754 402.964 295.166 397.724 301.109C396.173 302.868 394.854 305.223 393.752 307.989H373.574C372.443 305.22 371.101 302.864 369.539 301.109C364.279 295.199 349.533 292.767 337.562 291.776H429.792Z" fill="#E6E6E6"/>
<path d="M375.71 283.167L377.344 264.493H353.662L352.028 283.167H375.71Z" fill="#EBEBEB"/>
<path d="M375.71 283.167L377.344 264.493H378.619L376.985 283.167H375.71Z" fill="#E0E0E0"/>
<path d="M373.462 281.263L374.763 266.397H355.91L354.609 281.263H373.462Z" fill="#F0F0F0"/>
<path d="M372.018 280.04L373.104 267.621H357.355L356.269 280.04H372.018Z" fill="#FAFAFA"/>
<path d="M383.392 283.109H407.181L404.542 252.939H380.752L383.392 283.109Z" fill="#E6E6E6"/>
<path d="M383.392 283.109H382.256L379.616 252.939H380.752L383.392 283.109Z" fill="#E0E0E0"/>
<path d="M385.548 280.033H404.487L402.386 256.015H383.447L385.548 280.033Z" fill="#F0F0F0"/>
<path d="M386.934 278.056H402.755L401 257.992H385.179L386.934 278.056Z" fill="#FAFAFA"/>
<path d="M394.925 267.019C393.85 268.094 392.108 268.094 391.033 267.019C389.958 265.944 389.958 264.202 391.033 263.127C392.108 262.052 393.85 262.052 394.925 263.127C396 264.202 396 265.944 394.925 267.019Z" fill="#EBEBEB"/>
<path d="M393.76 270.39C394.547 269.603 395.823 269.603 396.61 270.39C397.879 271.66 396.98 273.83 395.185 273.83C393.39 273.83 392.491 271.66 393.76 270.39Z" fill="#F0F0F0"/>
<path d="M192.141 376.009H215.311L203.13 276.803C202.614 272.604 198.792 269.199 194.592 269.199H186.629H93.4922L108.313 376.009H192.141Z" fill="#F5F5F5"/>
<path d="M118.655 376.009H95.485L83.304 276.803C82.788 272.604 85.775 269.199 89.974 269.199H97.937C102.137 269.199 105.959 272.603 106.475 276.803L118.655 376.009Z" fill="#F0F0F0"/>
<path d="M127.191 375.892L122.993 327.908C122.805 325.765 121.15 324.042 119.015 323.77L117.289 323.55C114.426 323.185 112.205 320.874 111.953 317.999L111.188 309.25C110.874 305.664 113.7 302.58 117.3 302.58H78.5773C74.9773 302.58 72.1513 305.664 72.4653 309.25L73.2313 317.999C73.4823 320.874 75.7043 323.185 78.5663 323.55L80.2933 323.77C82.4273 324.042 84.0833 325.765 84.2703 327.908L88.4683 375.892C88.7743 379.39 91.7033 382.075 95.2153 382.075H133.938C130.426 382.074 127.497 379.39 127.191 375.892Z" fill="#E6E6E6"/>
<path d="M233.754 315.896C234.413 308.361 240.723 302.579 248.287 302.579H229.55H214.575C207.011 302.579 200.701 308.361 200.042 315.896L196.714 353.933H230.426L233.754 315.896Z" fill="#E6E6E6"/>
<path d="M263.261 302.579H248.286C240.722 302.579 234.413 308.361 233.753 315.896L230.425 353.933H150.135L146.807 315.896C146.148 308.361 139.838 302.579 132.274 302.579H117.299C113.699 302.579 110.873 305.663 111.187 309.249L111.952 317.998C112.204 320.873 114.425 323.184 117.288 323.549L119.014 323.769C121.148 324.041 122.804 325.764 122.991 327.907L127.189 375.891C127.495 379.389 130.424 382.074 133.936 382.074H246.622C250.134 382.074 253.063 379.39 253.369 375.891L257.567 327.907C257.755 325.764 259.41 324.041 261.544 323.769L263.271 323.549C266.134 323.184 268.355 320.873 268.607 317.997L269.372 309.248C269.687 305.663 266.861 302.579 263.261 302.579Z" fill="#F0F0F0"/>
<path d="M419.54 144.033V113.028L375.667 113.028V144.033H419.54Z" fill="#E0E0E0"/>
<path d="M417.476 142.011V115.049L377.729 115.049V142.011H417.476Z" fill="#EBEBEB"/>
<path d="M404.325 182.984V151.979H360.452V182.984H404.325Z" fill="#E0E0E0"/>
<path d="M402.262 180.962V154H362.515V180.962H402.262Z" fill="#EBEBEB"/>
<path d="M339.426 144.033H367.343V104.53H339.426V144.033Z" fill="#E0E0E0"/>
<path d="M341.247 142.176H365.523V106.388H341.247V142.176Z" fill="#EBEBEB"/>
<path d="M323.545 195.852H354.55V151.979H323.545V195.852Z" fill="#E0E0E0"/>
<path d="M325.567 193.789H352.529V154.042H325.567V193.789Z" fill="#EBEBEB"/>
<path d="M295.597 119.757V144.034H329.949V119.757H295.597Z" fill="#E0E0E0"/>
<path d="M297.213 121.34V142.451H328.334V121.34H297.213Z" fill="#EBEBEB"/>
<path d="M250.806 427.561C357.888 427.561 444.695 422.492 444.695 416.238C444.695 409.985 357.888 404.915 250.806 404.915C143.724 404.915 56.917 409.985 56.917 416.238C56.917 422.492 143.724 427.561 250.806 427.561Z" fill="#F5F5F5"/>
<path d="M343.093 409.288H199.423C193.678 409.288 189.021 404.631 189.021 398.886V143.861C189.021 138.116 193.678 133.459 199.423 133.459H343.092C348.837 133.459 353.494 138.116 353.494 143.861V398.885C353.495 404.63 348.838 409.288 343.093 409.288Z" fill="#263238"/>
<path d="M347.945 143.369V398.848C347.945 401.114 346.124 402.874 343.858 402.874H198.223C196.14 402.874 194.572 401.262 194.572 399.179V143.038C194.572 141.234 195.897 139.657 197.701 139.657H234.11C235.138 139.657 236.071 140.328 236.454 141.295L237.962 145.007C238.345 145.966 239.278 146.628 240.306 146.628H302.291C303.32 146.628 304.252 145.992 304.635 145.033L306.143 141.303C306.526 140.336 307.459 139.656 308.487 139.656H344.373C346.359 139.656 347.945 141.382 347.945 143.369Z" fill="#407BFF"/>
<path opacity="0.3" d="M347.945 143.369V398.848C347.945 401.114 346.124 402.874 343.858 402.874H198.223C196.14 402.874 194.572 401.262 194.572 399.179V143.038C194.572 141.234 195.897 139.657 197.701 139.657H234.11C235.138 139.657 236.071 140.328 236.454 141.295L237.962 145.007C238.345 145.966 239.278 146.628 240.306 146.628H302.291C303.32 146.628 304.252 145.992 304.635 145.033L306.143 141.303C306.526 140.336 307.459 139.656 308.487 139.656H344.373C346.359 139.656 347.945 141.382 347.945 143.369Z" fill="black"/>
<path opacity="0.7" d="M347.945 156.867H194.572V384.075H347.945V156.867Z" fill="white"/>
<path opacity="0.6" d="M211.473 150.758H213.368V148.232H211.473V150.758Z" fill="white"/>
<path opacity="0.6" d="M208.386 150.758H210.281V147.39H208.386V150.758Z" fill="white"/>
<path opacity="0.6" d="M205.298 150.758H207.193V146.547H205.298V150.758Z" fill="white"/>
<path opacity="0.6" d="M202.21 150.758H204.105V145.705H202.21V150.758Z" fill="white"/>
<path opacity="0.6" d="M330.587 147.311H329.464V149.837H330.587V147.311Z" fill="white"/>
<path opacity="0.6" d="M331.359 150.758H340.305V146.389H331.359V150.758Z" fill="white"/>
<path d="M241.751 356.851V357.428H237.287V351.115H241.616V351.692H237.955V353.937H241.22V354.505H237.955V356.85H241.751V356.851Z" fill="#407BFF"/>
<path d="M247.555 354.678V357.428H246.915V354.74C246.915 353.739 246.392 353.225 245.49 353.225C244.471 353.225 243.831 353.856 243.831 354.938V357.427H243.19V352.684H243.803V353.558C244.146 352.981 244.786 352.648 245.607 352.648C246.762 352.648 247.555 353.315 247.555 354.678Z" fill="#407BFF"/>
<path d="M248.841 355.056C248.841 353.641 249.869 352.649 251.285 352.649C252.087 352.649 252.764 352.964 253.142 353.587L252.664 353.912C252.339 353.433 251.834 353.208 251.285 353.208C250.248 353.208 249.49 353.948 249.49 355.057C249.49 356.175 250.248 356.906 251.285 356.906C251.835 356.906 252.34 356.69 252.664 356.212L253.142 356.537C252.763 357.15 252.087 357.475 251.285 357.475C249.869 357.473 248.841 356.472 248.841 355.056Z" fill="#407BFF"/>
<path d="M256.789 352.648V353.27C256.735 353.27 256.681 353.261 256.636 353.261C255.644 353.261 255.04 353.892 255.04 355.01V357.427H254.399V352.684H255.012V353.613C255.31 352.981 255.914 352.648 256.789 352.648Z" fill="#407BFF"/>
<path d="M262.14 352.685L259.768 357.996C259.371 358.925 258.866 359.223 258.19 359.223C257.748 359.223 257.324 359.078 257.036 358.789L257.334 358.311C257.568 358.545 257.857 358.671 258.2 358.671C258.624 358.671 258.912 358.473 259.183 357.878L259.39 357.418L257.27 352.684H257.937L259.723 356.714L261.509 352.684H262.14V352.685Z" fill="#407BFF"/>
<path d="M267.852 355.056C267.852 356.499 266.842 357.473 265.489 357.473C264.732 357.473 264.082 357.149 263.686 356.535V359.177H263.045V352.685H263.658V353.623C264.046 352.992 264.704 352.649 265.489 352.649C266.842 352.648 267.852 353.622 267.852 355.056ZM267.212 355.056C267.212 353.956 266.445 353.207 265.444 353.207C264.434 353.207 263.676 353.956 263.676 355.056C263.676 356.165 264.434 356.905 265.444 356.905C266.445 356.904 267.212 356.165 267.212 355.056Z" fill="#407BFF"/>
<path d="M271.662 357.139C271.41 357.365 271.031 357.473 270.661 357.473C269.768 357.473 269.272 356.968 269.272 356.093V353.226H268.424V352.685H269.272V351.648H269.912V352.685H271.355V353.226H269.912V356.057C269.912 356.617 270.201 356.923 270.733 356.923C270.995 356.923 271.256 356.842 271.437 356.68L271.662 357.139Z" fill="#407BFF"/>
<path d="M272.684 351.188C272.684 350.944 272.892 350.737 273.153 350.737C273.415 350.737 273.622 350.935 273.622 351.179C273.622 351.44 273.423 351.648 273.153 351.648C272.892 351.647 272.684 351.44 272.684 351.188ZM272.828 352.685H273.469V357.428H272.828V352.685Z" fill="#407BFF"/>
<path d="M279.621 354.678V357.428H278.981V354.74C278.981 353.739 278.458 353.225 277.556 353.225C276.537 353.225 275.897 353.856 275.897 354.938V357.427H275.256V352.684H275.869V353.558C276.212 352.981 276.852 352.648 277.673 352.648C278.828 352.648 279.621 353.315 279.621 354.678Z" fill="#407BFF"/>
<path d="M285.777 352.685V356.851C285.777 358.483 284.974 359.223 283.405 359.223C282.539 359.223 281.692 358.961 281.196 358.493L281.52 358.006C281.971 358.412 282.656 358.655 283.387 358.655C284.587 358.655 285.137 358.105 285.137 356.932V356.327C284.74 356.932 284.064 357.247 283.288 357.247C281.935 357.247 280.908 356.301 280.908 354.938C280.908 353.577 281.936 352.648 283.288 352.648C284.082 352.648 284.767 352.972 285.164 353.594V352.684H285.777V352.685ZM285.154 354.939C285.154 353.912 284.397 353.207 283.351 353.207C282.305 353.207 281.556 353.911 281.556 354.939C281.556 355.967 282.305 356.68 283.351 356.68C284.397 356.68 285.154 355.967 285.154 354.939Z" fill="#407BFF"/>
<path d="M293.971 351.115V351.575L291.329 357.428H290.625L293.222 351.693H289.975V352.875H289.335V351.116H293.971V351.115Z" fill="#407BFF"/>
<path d="M298.945 355.57C298.945 356.643 298.196 357.481 296.654 357.481C295.743 357.481 294.878 357.166 294.39 356.669L294.706 356.155C295.112 356.579 295.833 356.885 296.645 356.885C297.718 356.885 298.286 356.362 298.286 355.595C298.286 354.783 297.781 354.279 296.176 354.279H294.832L295.157 351.114H298.611V351.691H295.725L295.508 353.702H296.32C298.224 353.703 298.945 354.452 298.945 355.57Z" fill="#407BFF"/>
<path d="M299.589 352.783C299.589 351.756 300.166 351.07 301.014 351.07C301.852 351.07 302.439 351.746 302.439 352.783C302.439 353.82 301.853 354.497 301.014 354.497C300.166 354.497 299.589 353.811 299.589 352.783ZM301.988 352.783C301.988 351.963 301.6 351.475 301.014 351.475C300.419 351.475 300.04 351.971 300.04 352.783C300.04 353.595 300.419 354.091 301.014 354.091C301.6 354.091 301.988 353.604 301.988 352.783ZM304.838 351.115H305.37L301.059 357.428H300.527L304.838 351.115ZM303.458 355.76C303.458 354.732 304.044 354.046 304.883 354.046C305.731 354.046 306.308 354.732 306.308 355.76C306.308 356.787 305.731 357.473 304.883 357.473C304.044 357.473 303.458 356.787 303.458 355.76ZM305.856 355.76C305.856 354.948 305.478 354.452 304.882 354.452C304.296 354.452 303.908 354.938 303.908 355.76C303.908 356.58 304.296 357.068 304.882 357.068C305.478 357.067 305.856 356.571 305.856 355.76Z" fill="#407BFF"/>
<path opacity="0.6" d="M271.233 140.019C271.233 141.181 270.29 142.124 269.128 142.124C267.965 142.124 267.023 141.181 267.023 140.019C267.023 138.856 267.966 137.914 269.128 137.914C270.29 137.914 271.233 138.857 271.233 140.019Z" fill="white"/>
<path opacity="0.6" d="M275.494 140.019C275.494 140.764 274.89 141.367 274.145 141.367C273.4 141.367 272.796 140.763 272.796 140.019C272.796 139.275 273.4 138.67 274.145 138.67C274.89 138.671 275.494 139.275 275.494 140.019Z" fill="white"/>
<path d="M347.945 156.867H194.572V183.098H347.945V156.867Z" fill="#407BFF"/>
<g opacity="0.2">
<path d="M264.279 202.011C263.877 202.06 263.474 202.107 263.074 202.164C262.639 202.61 262.083 202.856 261.433 202.856C261.049 202.856 260.694 202.775 260.379 202.616C260.003 202.688 259.626 202.758 259.253 202.838C259.841 203.381 260.583 203.687 261.433 203.687C262.646 203.687 263.654 203.083 264.279 202.011Z" fill="black"/>
<path d="M269.763 203.687C271.122 203.687 272.223 202.93 272.814 201.602C272.487 201.594 272.162 201.58 271.833 201.577C271.377 202.405 270.655 202.855 269.763 202.855C268.911 202.855 268.216 202.443 267.758 201.687C267.433 201.707 267.11 201.736 266.786 201.761C267.389 202.994 268.457 203.687 269.763 203.687Z" fill="black"/>
<path d="M276.997 203.611V201.842C276.696 201.813 276.392 201.797 276.091 201.773V203.611H276.997Z" fill="black"/>
<path d="M281.539 203.611V202.471C281.237 202.418 280.937 202.358 280.633 202.309V203.611H281.539Z" fill="black"/>
<path d="M285.688 203.348C286.024 203.515 286.395 203.608 286.788 203.649C286.422 203.548 286.058 203.441 285.688 203.348Z" fill="black"/>
<path d="M226.642 227.894C228.681 227.894 230.167 226.219 230.167 223.413C230.167 221.878 229.712 220.698 228.977 219.928C228.779 220.139 228.573 220.342 228.378 220.556C228.913 221.172 229.236 222.129 229.236 223.413C229.236 225.767 228.178 227.063 226.643 227.063C225.631 227.063 224.835 226.49 224.404 225.432C224.207 225.701 224.017 225.975 223.824 226.248C224.446 227.3 225.441 227.894 226.642 227.894Z" fill="black"/>
<path d="M232.97 227.818H233.877V219.006H230.893V219.812H232.97V227.818Z" fill="black"/>
<path d="M237.513 227.818H238.419V219.006H235.436V219.812H237.513V227.818Z" fill="black"/>
<path d="M242.055 227.818H242.961V219.006H239.978V219.812H242.055V227.818Z" fill="black"/>
<path d="M246.597 227.818H247.504V219.006H244.52V219.812H246.597V227.818Z" fill="black"/>
<path d="M249.604 223.413C249.604 226.22 251.077 227.894 253.116 227.894C255.155 227.894 256.64 226.219 256.64 223.413C256.64 220.605 255.155 218.931 253.116 218.931C251.076 218.93 249.604 220.605 249.604 223.413ZM253.116 219.761C254.652 219.761 255.709 221.058 255.709 223.412C255.709 225.766 254.651 227.062 253.116 227.062C251.58 227.062 250.523 225.765 250.523 223.412C250.523 221.058 251.58 219.761 253.116 219.761Z" fill="black"/>
<path d="M261.445 218.93C259.405 218.93 257.933 220.605 257.933 223.412C257.933 226.219 259.406 227.893 261.445 227.893C263.484 227.893 264.969 226.218 264.969 223.412C264.97 220.605 263.484 218.93 261.445 218.93ZM261.445 227.063C259.909 227.063 258.852 225.766 258.852 223.413C258.852 221.058 259.909 219.762 261.445 219.762C262.981 219.762 264.038 221.059 264.038 223.413C264.039 225.766 262.981 227.063 261.445 227.063Z" fill="black"/>
<path d="M269.775 218.93C267.735 218.93 266.263 220.605 266.263 223.412C266.263 226.219 267.736 227.893 269.775 227.893C271.814 227.893 273.299 226.218 273.299 223.412C273.299 220.605 271.814 218.93 269.775 218.93ZM269.775 227.063C268.239 227.063 267.182 225.766 267.182 223.413C267.182 221.058 268.239 219.762 269.775 219.762C271.311 219.762 272.368 221.059 272.368 223.413C272.368 225.766 271.311 227.063 269.775 227.063Z" fill="black"/>
<path d="M276.103 227.818H277.009V219.006H274.026V219.812H276.103V227.818Z" fill="black"/>
<path d="M281.552 227.818V219.006H278.569V219.812H280.646V227.818H281.552Z" fill="black"/>
<path d="M287.164 227.894C289.203 227.894 290.688 226.219 290.688 223.413C290.688 220.605 289.203 218.931 287.164 218.931C285.125 218.931 283.652 220.606 283.652 223.413C283.652 226.219 285.125 227.894 287.164 227.894ZM287.164 219.761C288.7 219.761 289.757 221.058 289.757 223.412C289.757 225.766 288.699 227.062 287.164 227.062C285.628 227.062 284.571 225.765 284.571 223.412C284.571 221.058 285.628 219.761 287.164 219.761Z" fill="black"/>
<path d="M291.415 219.812H293.492V227.818H294.399V219.006H291.415V219.812Z" fill="black"/>
<path d="M300.011 227.894C302.05 227.894 303.535 226.219 303.535 223.413C303.535 220.605 302.05 218.931 300.011 218.931C297.971 218.931 296.499 220.606 296.499 223.413C296.499 226.219 297.971 227.894 300.011 227.894ZM300.011 219.761C301.547 219.761 302.604 221.058 302.604 223.412C302.604 225.766 301.546 227.062 300.011 227.062C298.475 227.062 297.418 225.765 297.418 223.412C297.418 221.058 298.475 219.761 300.011 219.761Z" fill="black"/>
<path d="M306.339 227.818H307.245V219.006H304.262V219.812H306.339V227.818Z" fill="black"/>
<path d="M309.346 223.413C309.346 226.22 310.819 227.894 312.858 227.894C314.897 227.894 316.382 226.219 316.382 223.413C316.382 223.218 316.358 223.043 316.344 222.859C315.942 222.369 315.522 221.893 315.105 221.416C315.322 221.96 315.451 222.62 315.451 223.412C315.451 225.766 314.393 227.062 312.858 227.062C311.322 227.062 310.265 225.765 310.265 223.412C310.265 221.057 311.322 219.761 312.858 219.761C313.192 219.761 313.498 219.834 313.781 219.954C313.46 219.612 313.139 219.27 312.81 218.935C310.796 218.962 309.346 220.628 309.346 223.413Z" fill="black"/>
<path d="M319.983 227.818C319.722 227.421 319.456 227.027 319.186 226.636V227.818H319.983Z" fill="black"/>
<path d="M233.889 215.266C233.714 215.413 233.544 215.565 233.371 215.715H233.889V215.266Z" fill="black"/>
<path d="M239.502 215.79C241.541 215.79 243.026 214.116 243.026 211.309C243.026 210.485 242.885 209.772 242.652 209.156C242.386 209.307 242.12 209.458 241.857 209.613C242.006 210.097 242.094 210.658 242.094 211.309C242.094 213.663 241.036 214.959 239.501 214.959C238.319 214.959 237.427 214.185 237.075 212.76C236.817 212.948 236.559 213.135 236.305 213.327C236.84 214.894 238.016 215.79 239.502 215.79Z" fill="black"/>
<path d="M245.83 215.714H246.736V207.037C246.272 207.254 245.814 207.479 245.358 207.708H245.83V215.714Z" fill="black"/>
<path d="M250.372 215.714H251.278V206.902H248.295V207.708H250.372V215.714Z" fill="black"/>
<path d="M256.891 215.79C258.93 215.79 260.415 214.116 260.415 211.309C260.415 208.501 258.93 206.827 256.891 206.827C254.851 206.827 253.379 208.501 253.379 211.309C253.379 214.116 254.851 215.79 256.891 215.79ZM256.891 207.658C258.427 207.658 259.484 208.954 259.484 211.309C259.484 213.663 258.426 214.959 256.891 214.959C255.355 214.959 254.298 213.663 254.298 211.309C254.298 208.954 255.355 207.658 256.891 207.658Z" fill="black"/>
<path d="M263.218 215.714H264.125V206.902H261.141V207.708H263.218V215.714Z" fill="black"/>
<path d="M269.737 215.79C271.776 215.79 273.261 214.116 273.261 211.309C273.261 208.501 271.776 206.827 269.737 206.827C267.697 206.827 266.225 208.501 266.225 211.309C266.225 214.116 267.698 215.79 269.737 215.79ZM269.737 207.658C271.273 207.658 272.33 208.954 272.33 211.309C272.33 213.663 271.272 214.959 269.737 214.959C268.201 214.959 267.144 213.663 267.144 211.309C267.144 208.954 268.201 207.658 269.737 207.658Z" fill="black"/>
<path d="M278.067 215.79C280.106 215.79 281.592 214.116 281.592 211.309C281.592 208.501 280.107 206.827 278.067 206.827C276.028 206.827 274.555 208.501 274.555 211.309C274.555 214.116 276.027 215.79 278.067 215.79ZM278.067 207.658C279.603 207.658 280.66 208.954 280.66 211.309C280.66 213.663 279.602 214.959 278.067 214.959C276.531 214.959 275.474 213.663 275.474 211.309C275.474 208.954 276.531 207.658 278.067 207.658Z" fill="black"/>
<path d="M286.397 215.79C288.436 215.79 289.922 214.116 289.922 211.309C289.922 208.501 288.437 206.827 286.397 206.827C284.357 206.827 282.885 208.501 282.885 211.309C282.884 214.116 284.357 215.79 286.397 215.79ZM286.397 207.658C287.933 207.658 288.99 208.954 288.99 211.309C288.99 213.663 287.932 214.959 286.397 214.959C284.861 214.959 283.804 213.663 283.804 211.309C283.803 208.954 284.861 207.658 286.397 207.658Z" fill="black"/>
<path d="M292.725 215.714H293.631V206.902H290.648V207.708H292.725V215.714Z" fill="black"/>
<path d="M295.19 207.708H297.267V215.714H298.173V208.116C297.359 207.692 296.535 207.287 295.699 206.902H295.19V207.708Z" fill="black"/>
<path d="M303.786 215.79C305.159 215.79 306.268 215.016 306.854 213.663C306.606 213.472 306.364 213.272 306.113 213.084C305.711 214.298 304.872 214.959 303.786 214.959C302.25 214.959 301.193 213.663 301.193 211.309C301.193 210.778 301.254 210.309 301.354 209.889C301.085 209.727 300.809 209.577 300.538 209.42C300.367 209.973 300.274 210.606 300.274 211.31C300.274 214.116 301.746 215.79 303.786 215.79Z" fill="black"/>
<path d="M221.017 239.921V231.109H220.741C220.53 231.482 220.314 231.852 220.111 232.231V239.921H221.017Z" fill="black"/>
<path d="M226.63 239.997C228.669 239.997 230.154 238.323 230.154 235.516C230.154 232.708 228.669 231.034 226.63 231.034C224.59 231.034 223.118 232.708 223.118 235.516C223.118 238.323 224.591 239.997 226.63 239.997ZM226.63 231.865C228.166 231.865 229.223 233.161 229.223 235.516C229.223 237.87 228.165 239.166 226.63 239.166C225.094 239.166 224.037 237.87 224.037 235.516C224.037 233.161 225.094 231.865 226.63 231.865Z" fill="black"/>
<path d="M232.958 239.921H233.864V231.109H230.88V231.915H232.958V239.921Z" fill="black"/>
<path d="M237.5 239.921H238.406V231.109H235.423V231.915H237.5V239.921Z" fill="black"/>
<path d="M242.043 239.921H242.949V231.109H239.966V231.915H242.043V239.921Z" fill="black"/>
<path d="M246.585 239.921H247.491V231.109H244.508V231.915H246.585V239.921Z" fill="black"/>
<path d="M253.104 231.034C251.064 231.034 249.592 232.708 249.592 235.516C249.592 238.323 251.065 239.997 253.104 239.997C255.143 239.997 256.628 238.323 256.628 235.516C256.628 232.708 255.143 231.034 253.104 231.034ZM253.104 239.166C251.568 239.166 250.511 237.87 250.511 235.516C250.511 233.161 251.568 231.865 253.104 231.865C254.64 231.865 255.697 233.161 255.697 235.516C255.697 237.87 254.639 239.166 253.104 239.166Z" fill="black"/>
<path d="M261.433 231.034C259.393 231.034 257.921 232.708 257.921 235.516C257.921 238.323 259.394 239.997 261.433 239.997C263.472 239.997 264.957 238.323 264.957 235.516C264.958 232.708 263.472 231.034 261.433 231.034ZM261.433 239.166C259.897 239.166 258.84 237.87 258.84 235.516C258.84 233.161 259.897 231.865 261.433 231.865C262.969 231.865 264.026 233.161 264.026 235.516C264.026 237.87 262.969 239.166 261.433 239.166Z" fill="black"/>
<path d="M269.763 231.034C267.724 231.034 266.251 232.708 266.251 235.516C266.251 238.323 267.724 239.997 269.763 239.997C271.802 239.997 273.288 238.323 273.288 235.516C273.287 232.708 271.802 231.034 269.763 231.034ZM269.763 239.166C268.227 239.166 267.17 237.87 267.17 235.516C267.17 233.161 268.227 231.865 269.763 231.865C271.299 231.865 272.356 233.161 272.356 235.516C272.356 237.87 271.298 239.166 269.763 239.166Z" fill="black"/>
<path d="M276.091 239.921H276.997V231.109H274.014V231.915H276.091V239.921Z" fill="black"/>
<path d="M278.556 231.915H280.633V239.921H281.539V231.109H278.556V231.915Z" fill="black"/>
<path d="M287.152 239.997C289.191 239.997 290.676 238.323 290.676 235.516C290.676 232.708 289.191 231.034 287.152 231.034C285.112 231.034 283.64 232.708 283.64 235.516C283.64 238.323 285.112 239.997 287.152 239.997ZM287.152 231.865C288.688 231.865 289.745 233.161 289.745 235.516C289.745 237.87 288.687 239.166 287.152 239.166C285.616 239.166 284.559 237.87 284.559 235.516C284.559 233.161 285.616 231.865 287.152 231.865Z" fill="black"/>
<path d="M294.386 239.921V231.109H291.402V231.915H293.48V239.921H294.386Z" fill="black"/>
<path d="M299.999 239.997C302.038 239.997 303.523 238.323 303.523 235.516C303.523 232.708 302.038 231.034 299.999 231.034C297.959 231.034 296.487 232.708 296.487 235.516C296.487 238.323 297.959 239.997 299.999 239.997ZM299.999 231.865C301.535 231.865 302.592 233.161 302.592 235.516C302.592 237.87 301.534 239.166 299.999 239.166C298.463 239.166 297.406 237.87 297.406 235.516C297.405 233.161 298.463 231.865 299.999 231.865Z" fill="black"/>
<path d="M306.326 239.921H307.233V231.109H304.249V231.915H306.326V239.921Z" fill="black"/>
<path d="M312.845 239.997C314.884 239.997 316.369 238.323 316.369 235.516C316.369 232.708 314.884 231.034 312.845 231.034C310.805 231.034 309.333 232.708 309.333 235.516C309.333 238.323 310.806 239.997 312.845 239.997ZM312.845 231.865C314.381 231.865 315.438 233.161 315.438 235.516C315.438 237.87 314.38 239.166 312.845 239.166C311.309 239.166 310.252 237.87 310.252 235.516C310.252 233.161 311.309 231.865 312.845 231.865Z" fill="black"/>
<path d="M319.173 239.921H320.08V231.109H317.096V231.915H319.173V239.921Z" fill="black"/>
<path d="M325.692 239.997C325.824 239.997 325.946 239.971 326.072 239.957C325.975 239.689 325.871 239.424 325.77 239.157C325.743 239.158 325.719 239.166 325.692 239.166C324.156 239.166 323.099 237.87 323.099 235.516C323.099 234.812 323.203 234.215 323.377 233.706C323.208 233.368 323.036 233.032 322.861 232.699C322.434 233.43 322.18 234.373 322.18 235.516C322.18 238.323 323.652 239.997 325.692 239.997Z" fill="black"/>
<path d="M218.313 255.242C216.273 255.242 214.8 256.916 214.8 259.724C214.8 262.531 216.273 264.205 218.313 264.205C220.352 264.205 221.837 262.53 221.837 259.724C221.837 256.916 220.352 255.242 218.313 255.242ZM218.313 263.375C216.777 263.375 215.719 262.078 215.719 259.725C215.719 257.37 216.777 256.074 218.313 256.074C219.848 256.074 220.906 257.371 220.906 259.725C220.905 262.078 219.848 263.375 218.313 263.375Z" fill="black"/>
<path d="M226.642 255.242C224.603 255.242 223.13 256.916 223.13 259.724C223.13 262.531 224.603 264.205 226.642 264.205C228.681 264.205 230.166 262.53 230.166 259.724C230.166 256.916 228.681 255.242 226.642 255.242ZM226.642 263.375C225.106 263.375 224.049 262.078 224.049 259.725C224.049 257.37 225.106 256.074 226.642 256.074C228.178 256.074 229.236 257.371 229.236 259.725C229.236 262.078 228.178 263.375 226.642 263.375Z" fill="black"/>
<path d="M233.876 264.129V255.318H230.893V256.123H232.97V264.129H233.876Z" fill="black"/>
<path d="M238.419 264.129V255.318H235.436V256.123H237.513V264.129H238.419Z" fill="black"/>
<path d="M242.961 264.129V255.318H239.978V256.123H242.055V264.129H242.961Z" fill="black"/>
<path d="M247.503 264.129V255.318H244.52V256.123H246.597V264.129H247.503Z" fill="black"/>
<path d="M249.604 259.724C249.604 262.531 251.077 264.205 253.116 264.205C255.155 264.205 256.64 262.53 256.64 259.724C256.64 256.916 255.155 255.242 253.116 255.242C251.076 255.242 249.604 256.916 249.604 259.724ZM253.115 256.073C254.651 256.073 255.709 257.37 255.709 259.724C255.709 262.077 254.651 263.374 253.115 263.374C251.579 263.374 250.522 262.077 250.522 259.724C250.523 257.37 251.579 256.073 253.115 256.073Z" fill="black"/>
<path d="M261.445 255.242C259.405 255.242 257.932 256.916 257.932 259.724C257.932 262.531 259.405 264.205 261.445 264.205C263.484 264.205 264.969 262.53 264.969 259.724C264.97 256.916 263.484 255.242 261.445 255.242ZM261.445 263.375C259.909 263.375 258.851 262.078 258.851 259.725C258.851 257.37 259.909 256.074 261.445 256.074C262.98 256.074 264.038 257.371 264.038 259.725C264.038 262.078 262.981 263.375 261.445 263.375Z" fill="black"/>
<path d="M269.775 264.206C271.814 264.206 273.299 262.531 273.299 259.725C273.299 256.917 271.814 255.243 269.775 255.243C267.736 255.243 266.263 256.917 266.263 259.725C266.263 262.531 267.736 264.206 269.775 264.206ZM269.775 256.073C271.311 256.073 272.369 257.37 272.369 259.724C272.369 262.077 271.311 263.374 269.775 263.374C268.239 263.374 267.182 262.077 267.182 259.724C267.182 257.37 268.238 256.073 269.775 256.073Z" fill="black"/>
<path d="M277.009 264.129V255.318H274.026V256.123H276.103V264.129H277.009Z" fill="black"/>
<path d="M281.552 255.318H278.569V256.123H280.646V264.129H281.552V255.318Z" fill="black"/>
<path d="M287.164 255.242C285.124 255.242 283.651 256.916 283.651 259.724C283.651 262.531 285.124 264.205 287.164 264.205C289.203 264.205 290.688 262.53 290.688 259.724C290.689 256.916 289.203 255.242 287.164 255.242ZM287.164 263.375C285.628 263.375 284.57 262.078 284.57 259.725C284.57 257.37 285.628 256.074 287.164 256.074C288.699 256.074 289.757 257.371 289.757 259.725C289.757 262.078 288.699 263.375 287.164 263.375Z" fill="black"/>
<path d="M291.415 256.123H293.492V264.129H294.399V255.318H291.415V256.123Z" fill="black"/>
<path d="M300.011 264.206C302.05 264.206 303.535 262.531 303.535 259.725C303.535 256.917 302.05 255.243 300.011 255.243C297.971 255.243 296.498 256.917 296.498 259.725C296.498 262.531 297.971 264.206 300.011 264.206ZM300.011 256.073C301.546 256.073 302.604 257.37 302.604 259.724C302.604 262.077 301.546 263.374 300.011 263.374C298.475 263.374 297.417 262.077 297.417 259.724C297.417 257.37 298.475 256.073 300.011 256.073Z" fill="black"/>
<path d="M307.245 264.129V255.318H304.262V256.123H306.339V264.129H307.245Z" fill="black"/>
<path d="M312.858 264.206C314.897 264.206 316.382 262.531 316.382 259.725C316.382 256.917 314.897 255.243 312.858 255.243C310.819 255.243 309.346 256.917 309.346 259.725C309.346 262.531 310.819 264.206 312.858 264.206ZM312.858 256.073C314.394 256.073 315.452 257.37 315.452 259.724C315.452 262.077 314.394 263.374 312.858 263.374C311.322 263.374 310.265 262.077 310.265 259.724C310.265 257.37 311.321 256.073 312.858 256.073Z" fill="black"/>
<path d="M320.092 264.129V255.318H317.109V256.123H319.186V264.129H320.092Z" fill="black"/>
<path d="M322.193 259.724C322.193 262.531 323.666 264.205 325.705 264.205C327.744 264.205 329.229 262.53 329.229 259.724C329.229 256.916 327.744 255.242 325.705 255.242C323.665 255.242 322.193 256.916 322.193 259.724ZM325.704 256.073C327.24 256.073 328.298 257.37 328.298 259.724C328.298 262.077 327.24 263.374 325.704 263.374C324.168 263.374 323.111 262.077 323.111 259.724C323.112 257.37 324.168 256.073 325.704 256.073Z" fill="black"/>
<path d="M217.332 247.62C217.332 245.672 216.607 244.287 215.488 243.611C215.406 243.895 215.323 244.179 215.245 244.465C215.962 245.042 216.401 246.11 216.401 247.62C216.401 249.963 215.352 251.256 213.827 251.268C213.787 251.541 213.758 251.818 213.722 252.092C213.751 252.093 213.777 252.101 213.807 252.101C215.847 252.102 217.332 250.427 217.332 247.62Z" fill="black"/>
<path d="M220.136 252.026H221.042V243.214H218.059V244.02H220.136V252.026Z" fill="black"/>
<path d="M226.654 243.138C224.615 243.138 223.142 244.812 223.142 247.62C223.142 250.427 224.615 252.102 226.654 252.102C228.693 252.102 230.178 250.428 230.178 247.62C230.179 244.813 228.693 243.138 226.654 243.138ZM226.654 251.271C225.118 251.271 224.061 249.975 224.061 247.621C224.061 245.267 225.118 243.97 226.654 243.97C228.19 243.97 229.248 245.266 229.248 247.621C229.248 249.974 228.191 251.271 226.654 251.271Z" fill="black"/>
<path d="M230.905 244.02H232.983V252.026H233.889V243.214H230.905V244.02Z" fill="black"/>
<path d="M235.989 247.62C235.989 250.427 237.462 252.102 239.501 252.102C241.54 252.102 243.025 250.428 243.025 247.62C243.025 244.812 241.54 243.138 239.501 243.138C237.462 243.138 235.989 244.813 235.989 247.62ZM239.501 243.969C241.037 243.969 242.095 245.265 242.095 247.62C242.095 249.974 241.037 251.27 239.501 251.27C237.965 251.27 236.908 249.974 236.908 247.62C236.908 245.266 237.965 243.969 239.501 243.969Z" fill="black"/>
<path d="M245.829 252.026H246.736V243.214H243.752V244.02H245.829V252.026Z" fill="black"/>
<path d="M250.371 252.026H251.277V243.214H248.294V244.02H250.371V252.026Z" fill="black"/>
<path d="M253.378 247.62C253.378 250.427 254.851 252.102 256.891 252.102C258.93 252.102 260.415 250.428 260.415 247.62C260.415 244.812 258.93 243.138 256.891 243.138C254.851 243.138 253.378 244.813 253.378 247.62ZM259.484 247.62C259.484 249.974 258.426 251.27 256.891 251.27C255.355 251.27 254.297 249.974 254.297 247.62C254.297 245.266 255.355 243.969 256.891 243.969C258.426 243.969 259.484 245.266 259.484 247.62Z" fill="black"/>
<path d="M264.124 252.026V243.214H261.141V244.02H263.218V252.026H264.124Z" fill="black"/>
<path d="M269.737 252.102C271.776 252.102 273.261 250.428 273.261 247.62C273.261 244.812 271.776 243.138 269.737 243.138C267.697 243.138 266.224 244.812 266.224 247.62C266.225 250.427 267.697 252.102 269.737 252.102ZM269.737 243.969C271.272 243.969 272.33 245.265 272.33 247.62C272.33 249.974 271.272 251.27 269.737 251.27C268.201 251.27 267.143 249.974 267.143 247.62C267.144 245.266 268.201 243.969 269.737 243.969Z" fill="black"/>
<path d="M274.555 247.62C274.555 250.427 276.028 252.102 278.067 252.102C280.106 252.102 281.591 250.428 281.591 247.62C281.591 244.812 280.106 243.138 278.067 243.138C276.027 243.138 274.555 244.813 274.555 247.62ZM280.66 247.62C280.66 249.974 279.602 251.27 278.066 251.27C276.53 251.27 275.473 249.974 275.473 247.62C275.473 245.266 276.53 243.969 278.066 243.969C279.603 243.969 280.66 245.266 280.66 247.62Z" fill="black"/>
<path d="M286.397 252.102C288.436 252.102 289.922 250.428 289.922 247.62C289.922 244.812 288.437 243.138 286.397 243.138C284.357 243.138 282.884 244.812 282.884 247.62C282.884 250.427 284.357 252.102 286.397 252.102ZM286.397 243.969C287.932 243.969 288.99 245.265 288.99 247.62C288.99 249.974 287.932 251.27 286.397 251.27C284.861 251.27 283.803 249.974 283.803 247.62C283.803 245.266 284.861 243.969 286.397 243.969Z" fill="black"/>
<path d="M292.725 252.026H293.631V243.214H290.648V244.02H292.725V252.026Z" fill="black"/>
<path d="M297.267 252.026H298.173V243.214H295.19V244.02H297.267V252.026Z" fill="black"/>
<path d="M300.274 247.62C300.274 250.427 301.747 252.102 303.786 252.102C305.825 252.102 307.31 250.428 307.31 247.62C307.31 244.812 305.825 243.138 303.786 243.138C301.746 243.138 300.274 244.813 300.274 247.62ZM303.785 243.969C305.321 243.969 306.379 245.265 306.379 247.62C306.379 249.974 305.321 251.27 303.785 251.27C302.249 251.27 301.192 249.974 301.192 247.62C301.193 245.266 302.249 243.969 303.785 243.969Z" fill="black"/>
<path d="M310.113 252.026H311.02V243.214H308.036V244.02H310.113V252.026Z" fill="black"/>
<path d="M313.12 247.62C313.12 250.427 314.593 252.102 316.632 252.102C318.671 252.102 320.156 250.428 320.156 247.62C320.156 244.812 318.671 243.138 316.632 243.138C314.593 243.138 313.12 244.813 313.12 247.62ZM316.632 243.969C318.168 243.969 319.226 245.265 319.226 247.62C319.226 249.974 318.168 251.27 316.632 251.27C315.096 251.27 314.039 249.974 314.039 247.62C314.039 245.266 315.096 243.969 316.632 243.969Z" fill="black"/>
<path d="M322.96 252.026H323.866V243.214H320.883V244.02H322.96V252.026Z" fill="black"/>
<path d="M325.967 247.62C325.967 250.201 327.219 251.807 329.004 252.052C328.967 251.768 328.937 251.482 328.896 251.2C327.683 250.906 326.886 249.663 326.886 247.621C326.886 246.439 327.153 245.525 327.612 244.906C327.527 244.584 327.43 244.267 327.34 243.947C326.493 244.702 325.967 245.955 325.967 247.62Z" fill="black"/>
<path d="M217.308 271.827C217.308 269.019 215.823 267.345 213.784 267.345C213.763 267.345 213.744 267.351 213.723 267.351C213.759 267.627 213.788 267.906 213.828 268.181C215.338 268.207 216.376 269.496 216.376 271.827C216.376 273.323 215.946 274.387 215.241 274.968C215.319 275.254 215.402 275.538 215.484 275.823C216.592 275.142 217.308 273.763 217.308 271.827Z" fill="black"/>
<path d="M218.034 268.226H220.111V276.233H221.017V267.421H218.034V268.226Z" fill="black"/>
<path d="M226.63 276.308C228.669 276.308 230.154 274.634 230.154 271.827C230.154 269.019 228.669 267.345 226.63 267.345C224.59 267.345 223.118 269.019 223.118 271.827C223.118 274.634 224.591 276.308 226.63 276.308ZM226.63 268.176C228.166 268.176 229.223 269.472 229.223 271.826C229.223 274.18 228.165 275.476 226.63 275.476C225.094 275.476 224.037 274.18 224.037 271.826C224.037 269.472 225.094 268.176 226.63 268.176Z" fill="black"/>
<path d="M232.958 276.233H233.864V267.421H230.88V268.226H232.958V276.233Z" fill="black"/>
<path d="M237.5 276.233H238.406V267.421H235.423V268.226H237.5V276.233Z" fill="black"/>
<path d="M239.966 268.226H242.043V276.233H242.949V267.421H239.966V268.226Z" fill="black"/>
<path d="M244.508 268.226H246.585V276.233H247.491V267.421H244.508V268.226Z" fill="black"/>
<path d="M253.104 276.308C255.143 276.308 256.628 274.634 256.628 271.827C256.628 269.019 255.143 267.345 253.104 267.345C251.064 267.345 249.592 269.019 249.592 271.827C249.592 274.634 251.064 276.308 253.104 276.308ZM253.104 268.176C254.64 268.176 255.697 269.472 255.697 271.826C255.697 274.18 254.639 275.476 253.104 275.476C251.568 275.476 250.511 274.18 250.511 271.826C250.51 269.472 251.568 268.176 253.104 268.176Z" fill="black"/>
<path d="M261.433 267.345C259.393 267.345 257.921 269.019 257.921 271.827C257.921 274.635 259.394 276.308 261.433 276.308C263.472 276.308 264.957 274.634 264.957 271.827C264.958 269.019 263.472 267.345 261.433 267.345ZM261.433 275.477C259.897 275.477 258.84 274.181 258.84 271.827C258.84 269.472 259.897 268.177 261.433 268.177C262.969 268.177 264.026 269.473 264.026 271.827C264.026 274.181 262.969 275.477 261.433 275.477Z" fill="black"/>
<path d="M269.763 276.308C271.802 276.308 273.288 274.634 273.288 271.827C273.288 269.019 271.803 267.345 269.763 267.345C267.724 267.345 266.251 269.019 266.251 271.827C266.251 274.634 267.723 276.308 269.763 276.308ZM269.763 268.176C271.299 268.176 272.356 269.472 272.356 271.826C272.356 274.18 271.298 275.476 269.763 275.476C268.227 275.476 267.17 274.18 267.17 271.826C267.17 269.472 268.227 268.176 269.763 268.176Z" fill="black"/>
<path d="M276.091 276.233H276.997V267.421H274.014V268.226H276.091V276.233Z" fill="black"/>
<path d="M281.539 276.233V267.421H278.556V268.226H280.633V276.233H281.539Z" fill="black"/>
<path d="M287.152 276.308C289.191 276.308 290.676 274.634 290.676 271.827C290.676 269.019 289.191 267.345 287.152 267.345C285.112 267.345 283.64 269.019 283.64 271.827C283.64 274.634 285.112 276.308 287.152 276.308ZM287.152 268.176C288.688 268.176 289.745 269.472 289.745 271.826C289.745 274.18 288.687 275.476 287.152 275.476C285.616 275.476 284.559 274.18 284.559 271.826C284.559 269.472 285.616 268.176 287.152 268.176Z" fill="black"/>
<path d="M294.386 267.421H291.402V268.226H293.48V276.233H294.386V267.421Z" fill="black"/>
<path d="M299.999 276.308C302.038 276.308 303.523 274.634 303.523 271.827C303.523 269.019 302.038 267.345 299.999 267.345C297.959 267.345 296.487 269.019 296.487 271.827C296.487 274.634 297.959 276.308 299.999 276.308ZM299.999 268.176C301.535 268.176 302.592 269.472 302.592 271.826C302.592 274.18 301.534 275.476 299.999 275.476C298.463 275.476 297.406 274.18 297.406 271.826C297.405 269.472 298.463 268.176 299.999 268.176Z" fill="black"/>
<path d="M304.249 268.226H306.326V276.233H307.233V267.421H304.249V268.226Z" fill="black"/>
<path d="M316.37 271.827C316.37 269.019 314.885 267.345 312.846 267.345C310.806 267.345 309.334 269.019 309.334 271.827C309.334 274.635 310.807 276.308 312.846 276.308C314.884 276.308 316.37 274.634 316.37 271.827ZM312.845 275.477C311.309 275.477 310.252 274.181 310.252 271.827C310.252 269.472 311.309 268.177 312.845 268.177C314.381 268.177 315.438 269.473 315.438 271.827C315.439 274.181 314.381 275.477 312.845 275.477Z" fill="black"/>
<path d="M317.096 268.226H319.173V276.233H320.08V267.421H317.096V268.226Z" fill="black"/>
<path d="M325.692 267.345C323.653 267.345 322.18 269.019 322.18 271.827C322.18 274.635 323.653 276.308 325.692 276.308C326.25 276.308 326.761 276.172 327.217 275.932C327.367 275.413 327.524 274.897 327.66 274.373C327.201 275.089 326.52 275.478 325.692 275.478C324.156 275.478 323.099 274.182 323.099 271.828C323.099 269.473 324.156 268.178 325.692 268.178C327.202 268.178 328.245 269.438 328.279 271.719C328.442 270.939 328.582 270.152 328.714 269.361C328.116 268.075 327.028 267.345 325.692 267.345Z" fill="black"/>
<path d="M230.167 296.034C230.167 293.226 228.682 291.552 226.642 291.552C225.44 291.552 224.446 292.146 223.823 293.198C224.015 293.471 224.206 293.744 224.403 294.014C224.834 292.957 225.63 292.384 226.642 292.384C228.178 292.384 229.235 293.68 229.235 296.034C229.235 297.318 228.912 298.275 228.377 298.89C228.572 299.104 228.778 299.307 228.976 299.518C229.712 298.749 230.167 297.569 230.167 296.034Z" fill="black"/>
<path d="M232.97 300.44H233.877V291.628H230.893V292.433H232.97V300.44Z" fill="black"/>
<path d="M235.436 292.433H237.513V300.44H238.419V291.628H235.436V292.433Z" fill="black"/>
<path d="M239.978 292.433H242.055V300.44H242.961V291.628H239.978V292.433Z" fill="black"/>
<path d="M244.52 292.433H246.597V300.44H247.504V291.628H244.52V292.433Z" fill="black"/>
<path d="M253.116 291.552C251.076 291.552 249.604 293.226 249.604 296.034C249.604 298.842 251.077 300.515 253.116 300.515C255.155 300.515 256.64 298.841 256.64 296.034C256.64 293.226 255.155 291.552 253.116 291.552ZM253.116 299.684C251.58 299.684 250.523 298.388 250.523 296.034C250.523 293.679 251.58 292.384 253.116 292.384C254.652 292.384 255.709 293.68 255.709 296.034C255.709 298.388 254.652 299.684 253.116 299.684Z" fill="black"/>
<path d="M261.445 291.552C259.405 291.552 257.933 293.226 257.933 296.034C257.933 298.842 259.406 300.515 261.445 300.515C263.484 300.515 264.969 298.841 264.969 296.034C264.97 293.226 263.484 291.552 261.445 291.552ZM261.445 299.684C259.909 299.684 258.852 298.388 258.852 296.034C258.852 293.679 259.909 292.384 261.445 292.384C262.981 292.384 264.038 293.68 264.038 296.034C264.039 298.388 262.981 299.684 261.445 299.684Z" fill="black"/>
<path d="M269.775 291.552C267.735 291.552 266.263 293.226 266.263 296.034C266.263 298.842 267.736 300.515 269.775 300.515C271.814 300.515 273.299 298.841 273.299 296.034C273.299 293.226 271.814 291.552 269.775 291.552ZM269.775 299.684C268.239 299.684 267.182 298.388 267.182 296.034C267.182 293.679 268.239 292.384 269.775 292.384C271.311 292.384 272.368 293.68 272.368 296.034C272.368 298.388 271.311 299.684 269.775 299.684Z" fill="black"/>
<path d="M274.026 292.433H276.103V300.44H277.009V291.628H274.026V292.433Z" fill="black"/>
<path d="M278.569 292.433H280.646V300.44H281.552V291.628H278.569V292.433Z" fill="black"/>
<path d="M287.164 291.552C285.125 291.552 283.652 293.226 283.652 296.034C283.652 298.842 285.125 300.515 287.164 300.515C289.203 300.515 290.688 298.841 290.688 296.034C290.689 293.226 289.203 291.552 287.164 291.552ZM287.164 299.684C285.628 299.684 284.571 298.388 284.571 296.034C284.571 293.679 285.628 292.384 287.164 292.384C288.7 292.384 289.757 293.68 289.757 296.034C289.758 298.388 288.7 299.684 287.164 299.684Z" fill="black"/>
<path d="M291.415 292.433H293.492V300.44H294.399V291.628H291.415V292.433Z" fill="black"/>
<path d="M300.011 291.552C297.971 291.552 296.499 293.226 296.499 296.034C296.499 298.842 297.972 300.515 300.011 300.515C302.05 300.515 303.535 298.841 303.535 296.034C303.535 293.226 302.05 291.552 300.011 291.552ZM300.011 299.684C298.475 299.684 297.418 298.388 297.418 296.034C297.418 293.679 298.475 292.384 300.011 292.384C301.547 292.384 302.604 293.68 302.604 296.034C302.604 298.388 301.547 299.684 300.011 299.684Z" fill="black"/>
<path d="M304.262 292.433H306.339V300.44H307.245V291.628H304.262V292.433Z" fill="black"/>
<path d="M312.858 291.552C310.818 291.552 309.346 293.226 309.346 296.034C309.346 298.819 310.797 300.484 312.811 300.51C313.14 300.175 313.462 299.833 313.783 299.491C313.5 299.612 313.193 299.684 312.859 299.684C311.323 299.684 310.266 298.388 310.266 296.034C310.266 293.679 311.323 292.384 312.859 292.384C314.395 292.384 315.452 293.68 315.452 296.034C315.452 296.826 315.324 297.487 315.106 298.03C315.524 297.553 315.943 297.078 316.345 296.587C316.359 296.403 316.383 296.228 316.383 296.033C316.383 293.226 314.897 291.552 312.858 291.552Z" fill="black"/>
<path d="M317.109 292.433H319.186V292.81C319.457 292.419 319.722 292.025 319.984 291.628H317.109V292.433Z" fill="black"/>
<path d="M221.042 279.524H218.059V280.33H220.136V287.264C220.331 287.626 220.539 287.979 220.741 288.337H221.042V279.524Z" fill="black"/>
<path d="M226.655 279.449C224.615 279.449 223.143 281.123 223.143 283.931C223.143 286.739 224.616 288.412 226.655 288.412C228.694 288.412 230.179 286.738 230.179 283.931C230.179 281.123 228.694 279.449 226.655 279.449ZM226.655 287.581C225.119 287.581 224.062 286.285 224.062 283.931C224.062 281.577 225.119 280.281 226.655 280.281C228.191 280.281 229.248 281.577 229.248 283.931C229.248 286.285 228.191 287.581 226.655 287.581Z" fill="black"/>
<path d="M230.905 280.33H232.983V288.336H233.889V279.524H230.905V280.33Z" fill="black"/>
<path d="M239.502 279.449C237.462 279.449 235.99 281.123 235.99 283.931C235.99 286.739 237.463 288.412 239.502 288.412C241.541 288.412 243.026 286.738 243.026 283.931C243.026 281.123 241.541 279.449 239.502 279.449ZM239.502 287.581C237.966 287.581 236.909 286.285 236.909 283.931C236.909 281.577 237.966 280.281 239.502 280.281C241.038 280.281 242.095 281.577 242.095 283.931C242.095 286.285 241.037 287.581 239.502 287.581Z" fill="black"/>
<path d="M245.83 288.336H246.736V279.524H243.753V280.33H245.83V288.336Z" fill="black"/>
<path d="M248.295 280.33H250.372V288.336H251.278V279.524H248.295V280.33Z" fill="black"/>
<path d="M260.415 283.93C260.415 281.122 258.93 279.448 256.891 279.448C254.851 279.448 253.379 281.122 253.379 283.93C253.379 286.738 254.852 288.411 256.891 288.411C258.93 288.412 260.415 286.738 260.415 283.93ZM256.891 287.581C255.355 287.581 254.298 286.285 254.298 283.931C254.298 281.577 255.355 280.281 256.891 280.281C258.427 280.281 259.484 281.577 259.484 283.931C259.484 286.285 258.426 287.581 256.891 287.581Z" fill="black"/>
<path d="M264.125 288.336V279.524H261.141V280.33H263.218V288.336H264.125Z" fill="black"/>
<path d="M269.737 288.412C271.776 288.412 273.261 286.738 273.261 283.931C273.261 281.123 271.776 279.449 269.737 279.449C267.697 279.449 266.225 281.123 266.225 283.931C266.225 286.738 267.698 288.412 269.737 288.412ZM269.737 280.28C271.273 280.28 272.33 281.576 272.33 283.93C272.33 286.284 271.272 287.58 269.737 287.58C268.201 287.58 267.144 286.284 267.144 283.93C267.144 281.576 268.201 280.28 269.737 280.28Z" fill="black"/>
<path d="M278.067 279.449C276.028 279.449 274.555 281.123 274.555 283.931C274.555 286.739 276.028 288.412 278.067 288.412C280.106 288.412 281.592 286.738 281.592 283.931C281.591 281.123 280.106 279.449 278.067 279.449ZM278.067 287.581C276.531 287.581 275.474 286.285 275.474 283.931C275.474 281.577 276.531 280.281 278.067 280.281C279.603 280.281 280.66 281.577 280.66 283.931C280.66 286.285 279.603 287.581 278.067 287.581Z" fill="black"/>
<path d="M286.397 288.412C288.436 288.412 289.922 286.738 289.922 283.931C289.922 281.123 288.437 279.449 286.397 279.449C284.357 279.449 282.885 281.123 282.885 283.931C282.884 286.738 284.357 288.412 286.397 288.412ZM286.397 280.28C287.933 280.28 288.99 281.576 288.99 283.93C288.99 286.284 287.932 287.58 286.397 287.58C284.861 287.58 283.804 286.284 283.804 283.93C283.804 281.576 284.861 280.28 286.397 280.28Z" fill="black"/>
<path d="M293.631 288.336V279.524H290.648V280.33H292.725V288.336H293.631Z" fill="black"/>
<path d="M297.267 288.336H298.173V279.524H295.19V280.33H297.267V288.336Z" fill="black"/>
<path d="M303.786 279.449C301.746 279.449 300.274 281.123 300.274 283.931C300.274 286.739 301.747 288.412 303.786 288.412C305.825 288.412 307.31 286.738 307.31 283.931C307.31 281.123 305.825 279.449 303.786 279.449ZM303.786 287.581C302.25 287.581 301.193 286.285 301.193 283.931C301.193 281.577 302.25 280.281 303.786 280.281C305.322 280.281 306.379 281.577 306.379 283.931C306.379 286.285 305.321 287.581 303.786 287.581Z" fill="black"/>
<path d="M310.113 288.336H311.02V279.524H308.036V280.33H310.113V288.336Z" fill="black"/>
<path d="M316.633 279.449C314.593 279.449 313.121 281.123 313.121 283.931C313.121 286.739 314.594 288.412 316.633 288.412C318.672 288.412 320.157 286.738 320.157 283.931C320.157 281.123 318.672 279.449 316.633 279.449ZM316.633 287.581C315.097 287.581 314.04 286.285 314.04 283.931C314.04 281.577 315.097 280.281 316.633 280.281C318.169 280.281 319.226 281.577 319.226 283.931C319.226 286.285 318.168 287.581 316.633 287.581Z" fill="black"/>
<path d="M320.884 279.524V280.33H322.961V286.554C323.27 285.961 323.578 285.369 323.867 284.764V279.524H320.884Z" fill="black"/>
<path d="M233.37 303.732C233.535 303.874 233.697 304.019 233.863 304.159V303.732H233.37Z" fill="black"/>
<path d="M235.423 303.732V304.538H237.5V306.989C237.801 307.205 238.101 307.423 238.406 307.633V303.732H235.423Z" fill="black"/>
<path d="M239.966 303.732V304.538H242.043V309.94C242.344 310.116 242.645 310.291 242.949 310.461V303.732H239.966Z" fill="black"/>
<path d="M247.491 303.732H244.508V304.538H246.585V312.341C246.734 312.411 246.886 312.476 247.036 312.545H247.492V303.732H247.491Z" fill="black"/>
<path d="M253.104 303.657C251.064 303.657 249.592 305.331 249.592 308.139C249.592 310.947 251.065 312.62 253.104 312.62C255.143 312.62 256.628 310.946 256.628 308.139C256.628 305.331 255.143 303.657 253.104 303.657ZM253.104 311.789C251.568 311.789 250.511 310.493 250.511 308.139C250.511 305.785 251.568 304.489 253.104 304.489C254.64 304.489 255.697 305.785 255.697 308.139C255.697 310.493 254.639 311.789 253.104 311.789Z" fill="black"/>
<path d="M261.433 303.657C259.393 303.657 257.921 305.331 257.921 308.139C257.921 310.947 259.394 312.62 261.433 312.62C263.472 312.62 264.957 310.946 264.957 308.139C264.958 305.331 263.472 303.657 261.433 303.657ZM261.433 311.789C259.897 311.789 258.84 310.493 258.84 308.139C258.84 305.785 259.897 304.489 261.433 304.489C262.969 304.489 264.026 305.785 264.026 308.139C264.026 310.493 262.969 311.789 261.433 311.789Z" fill="black"/>
<path d="M269.763 303.657C267.724 303.657 266.251 305.331 266.251 308.139C266.251 310.947 267.724 312.62 269.763 312.62C271.802 312.62 273.288 310.946 273.288 308.139C273.287 305.331 271.802 303.657 269.763 303.657ZM269.763 311.789C268.227 311.789 267.17 310.493 267.17 308.139C267.17 305.785 268.227 304.489 269.763 304.489C271.299 304.489 272.356 305.785 272.356 308.139C272.356 310.493 271.298 311.789 269.763 311.789Z" fill="black"/>
<path d="M276.091 312.544H276.997V303.732H274.014V304.538H276.091V312.544Z" fill="black"/>
<path d="M278.556 304.538H280.633V312.544H281.539V303.732H278.556V304.538Z" fill="black"/>
<path d="M287.152 303.657C285.112 303.657 283.64 305.331 283.64 308.139C283.64 310.947 285.113 312.62 287.152 312.62C289.191 312.62 290.676 310.946 290.676 308.139C290.676 305.331 289.191 303.657 287.152 303.657ZM287.152 311.789C285.616 311.789 284.559 310.493 284.559 308.139C284.559 305.785 285.616 304.489 287.152 304.489C288.688 304.489 289.745 305.785 289.745 308.139C289.745 310.493 288.688 311.789 287.152 311.789Z" fill="black"/>
<path d="M291.402 304.538H293.48V312.544H294.386V303.732H291.402V304.538Z" fill="black"/>
<path d="M299.999 303.657C297.959 303.657 296.487 305.331 296.487 308.139C296.487 309.658 296.928 310.83 297.647 311.6C297.914 311.465 298.181 311.331 298.445 311.191C297.798 310.594 297.406 309.564 297.406 308.139C297.406 305.785 298.463 304.489 299.999 304.489C301.535 304.489 302.592 305.785 302.592 308.139C302.592 308.373 302.574 308.588 302.554 308.801C302.877 308.595 303.202 308.393 303.521 308.181C303.521 308.166 303.524 308.154 303.524 308.139C303.523 305.331 302.038 303.657 299.999 303.657Z" fill="black"/>
<path d="M304.249 303.732V304.538H306.326V306.199C306.633 305.968 306.93 305.724 307.232 305.487V303.733H304.249V303.732Z" fill="black"/>
<path d="M256.122 315.848C257.079 316.107 258.045 316.344 259.021 316.555C258.44 316.045 257.715 315.76 256.891 315.76C256.623 315.759 256.367 315.792 256.122 315.848Z" fill="black"/>
<path d="M261.141 315.836V316.642H263.218V317.301C263.519 317.343 263.822 317.379 264.124 317.416V315.836H261.141Z" fill="black"/>
<path d="M269.737 315.759C268.431 315.759 267.364 316.452 266.76 317.682C267.084 317.707 267.407 317.736 267.733 317.756C268.191 317.001 268.886 316.59 269.737 316.59C270.629 316.59 271.351 317.04 271.807 317.869C272.135 317.867 272.461 317.852 272.788 317.844C272.197 316.517 271.096 315.759 269.737 315.759Z" fill="black"/>
<path d="M278.067 315.759C276.738 315.759 275.66 316.48 275.063 317.751C275.414 317.729 275.764 317.699 276.113 317.671C276.572 316.969 277.248 316.59 278.067 316.59C278.714 316.59 279.269 316.833 279.702 317.276C280.038 317.228 280.374 317.177 280.709 317.123C280.078 316.25 279.156 315.759 278.067 315.759Z" fill="black"/>
<path d="M284.488 316.376C285.258 316.198 286.022 316.008 286.78 315.8C286.652 315.786 286.529 315.76 286.396 315.76C285.674 315.759 285.028 315.979 284.488 316.376Z" fill="black"/>
</g>
<path d="M242.577 174.484V175.387H237.306V168.124H242.432V169.027H238.344V171.258H241.986V172.14H238.344V174.485H242.577V174.484Z" fill="white"/>
<path d="M250.505 168.124V175.387H249.654L245.296 169.97V175.387H244.258V168.124H245.109L249.467 173.54V168.124H250.505Z" fill="white"/>
<path d="M252.093 171.756C252.093 169.608 253.732 168.041 255.943 168.041C257.064 168.041 258.039 168.425 258.703 169.172L258.029 169.826C257.468 169.235 256.784 168.965 255.985 168.965C254.345 168.965 253.131 170.148 253.131 171.757C253.131 173.365 254.345 174.548 255.985 174.548C256.784 174.548 257.468 174.268 258.029 173.676L258.703 174.33C258.039 175.077 257.064 175.471 255.933 175.471C253.732 175.47 252.093 173.903 252.093 171.756Z" fill="white"/>
<path d="M265.042 175.387L263.475 173.156C263.33 173.167 263.174 173.177 263.019 173.177H261.224V175.387H260.186V168.124H263.019C264.907 168.124 266.048 169.079 266.048 170.656C266.048 171.777 265.467 172.586 264.45 172.949L266.173 175.388H265.042V175.387ZM265.012 170.656C265.012 169.618 264.317 169.027 262.989 169.027H261.225V172.295H262.989C264.316 172.295 265.012 171.693 265.012 170.656Z" fill="white"/>
<path d="M270.407 172.876V175.387H269.38V172.855L266.495 168.123H267.605L269.929 171.952L272.264 168.123H273.291L270.407 172.876Z" fill="white"/>
<path d="M280.078 170.656C280.078 172.233 278.936 173.188 277.048 173.188H275.253V175.388H274.215V168.125H277.047C278.936 168.124 280.078 169.079 280.078 170.656ZM279.04 170.656C279.04 169.618 278.345 169.027 277.017 169.027H275.253V172.285H277.017C278.345 172.285 279.04 171.693 279.04 170.656Z" fill="white"/>
<path d="M282.817 169.027H280.327V168.124H286.335V169.027H283.845V175.387H282.818V169.027H282.817Z" fill="white"/>
<path d="M287.465 168.124H288.503V175.387H287.465V168.124Z" fill="white"/>
<path d="M290.091 171.756C290.091 169.628 291.731 168.041 293.961 168.041C296.171 168.041 297.811 169.618 297.811 171.756C297.811 173.893 296.171 175.47 293.961 175.47C291.73 175.47 290.091 173.883 290.091 171.756ZM296.773 171.756C296.773 170.148 295.569 168.964 293.961 168.964C292.332 168.964 291.129 170.147 291.129 171.756C291.129 173.364 292.333 174.547 293.961 174.547C295.569 174.547 296.773 173.364 296.773 171.756Z" fill="white"/>
<path d="M305.645 168.124V175.387H304.794L300.436 169.97V175.387H299.398V168.124H300.249L304.607 173.54V168.124H305.645Z" fill="white"/>
<path d="M256.195 251.802V240.28C256.195 231.841 263.036 225 271.475 225C279.914 225 286.755 231.841 286.755 240.28V251.802" stroke="white" stroke-width="4" stroke-miterlimit="10"/>
<path d="M296.233 250.681L271.475 243.378L246.717 250.681V265.168C246.717 277.227 254.211 288.015 265.51 292.225L271.474 294.447L277.438 292.225C288.738 288.015 296.231 277.226 296.231 265.168V250.681H296.233Z" fill="#407BFF"/>
<path opacity="0.2" d="M266.559 289.413C256.486 285.66 249.718 275.917 249.718 265.168V252.923L271.476 246.505L293.233 252.923V265.168C293.233 275.917 286.465 285.66 276.392 289.413L271.476 291.246L266.559 289.413Z" fill="black"/>
<path d="M275.234 263.67C275.234 261.594 273.551 259.912 271.476 259.912C269.401 259.912 267.718 261.595 267.718 263.67C267.718 265.147 268.578 266.412 269.817 267.026L269.092 274.054H273.861L273.136 267.026C274.374 266.412 275.234 265.147 275.234 263.67Z" fill="#263238"/>
<path d="M342.069 172.125V170.107H340.292C340.176 169.591 339.97 169.112 339.696 168.678L340.955 167.418L339.529 165.991L338.27 167.251C337.836 166.977 337.357 166.771 336.841 166.655V164.878H334.823V166.655C334.307 166.771 333.828 166.976 333.394 167.251L332.135 165.992L330.708 167.419L331.967 168.678C331.693 169.111 331.487 169.591 331.372 170.107H329.595V172.125H331.372C331.488 172.641 331.694 173.12 331.967 173.554L330.708 174.813L332.135 176.24L333.394 174.981C333.827 175.255 334.307 175.46 334.823 175.577V177.354H336.841V175.577C337.357 175.461 337.836 175.255 338.27 174.981L339.529 176.24L340.955 174.813L339.696 173.554C339.97 173.121 340.176 172.641 340.292 172.125H342.069ZM335.832 172.981C334.802 172.981 333.967 172.146 333.967 171.116C333.967 170.086 334.802 169.251 335.832 169.251C336.862 169.251 337.697 170.086 337.697 171.116C337.697 172.146 336.862 172.981 335.832 172.981Z" fill="white"/>
<path d="M208.468 165.614L201.724 172.022H203.807V176.619H213.13V172.022H215.213L208.468 165.614Z" fill="white"/>
<path opacity="0.3" d="M323.173 334.03H219.779C216.755 334.03 214.303 336.482 214.303 339.506C214.303 342.53 216.755 344.982 219.779 344.982H323.173C326.197 344.982 328.649 342.531 328.649 339.506C328.648 336.482 326.197 334.03 323.173 334.03Z" fill="#407BFF"/>
<path d="M291.999 334.998H219.879C217.389 334.998 215.371 337.016 215.371 339.506C215.371 341.996 217.389 344.014 219.879 344.014H291.999C294.489 344.014 296.507 341.996 296.507 339.506C296.507 337.016 294.489 334.998 291.999 334.998Z" fill="#407BFF"/>
<path d="M388.99 393.772C388.99 393.772 394.256 368.887 384.666 355.406C375.076 341.926 393.334 355.251 395.434 367.869C395.434 367.869 398.581 345.307 389.278 329.433C379.975 313.559 397.381 326.593 398.859 342.949C398.859 342.949 401.709 322.82 397.435 311.509C393.161 300.198 400.597 307.471 403.456 314.562C406.315 321.652 402.564 339.21 402.564 339.21C402.564 339.21 410.024 306.744 417.086 309.328C424.148 311.912 406.529 333.183 404.085 344.249C404.085 344.249 412.412 329.358 418.729 332.458C425.046 335.558 408.945 337.1 401.573 359.304L398.983 369.715C398.983 369.715 406.645 355.019 411.655 359.655C416.665 364.291 396.8 372.293 392.184 394.567L388.99 393.772Z" fill="#263238"/>
<path d="M390.022 395.205C390.022 395.205 391.129 363.83 406.632 350.542C422.135 337.254 396.297 347.774 390.022 362.261C390.022 362.261 392.975 334.3 408.847 318.059C424.719 301.818 399.988 312.243 393.344 331.392C393.344 331.392 395.928 306.434 404.418 294.16C412.908 281.885 401.834 288.382 396.297 296.023C390.76 303.664 390.022 325.811 390.022 325.811C390.022 325.811 390.76 284.703 381.532 285.694C372.304 286.685 387.069 317.412 386.7 331.393C386.7 331.393 381.163 311.076 372.674 312.907C364.184 314.738 383.009 321.382 385.224 350.173V363.414C385.224 363.414 380.426 343.529 373.043 347.589C365.661 351.649 387.07 367.152 385.962 395.205H390.022Z" fill="#263238"/>
<path opacity="0.2" d="M390.022 395.205C390.022 395.205 391.129 363.83 406.632 350.542C422.135 337.254 396.297 347.774 390.022 362.261C390.022 362.261 392.975 334.3 408.847 318.059C424.719 301.818 399.988 312.243 393.344 331.392C393.344 331.392 395.928 306.434 404.418 294.16C412.908 281.885 401.834 288.382 396.297 296.023C390.76 303.664 390.022 325.811 390.022 325.811C390.022 325.811 390.76 284.703 381.532 285.694C372.304 286.685 387.069 317.412 386.7 331.393C386.7 331.393 381.163 311.076 372.674 312.907C364.184 314.738 383.009 321.382 385.224 350.173V363.414C385.224 363.414 380.426 343.529 373.043 347.589C365.661 351.649 387.07 367.152 385.962 395.205H390.022Z" fill="white"/>
<path d="M376.481 417.288H400.073C406.145 417.288 411.067 412.366 411.067 406.294V401.371H365.486V406.294C365.487 412.365 370.409 417.288 376.481 417.288Z" fill="#407BFF"/>
<path d="M363.729 406.435H412.825C415.151 406.435 417.036 404.55 417.036 402.224V396.393C417.036 394.067 415.151 392.182 412.825 392.182H363.729C361.403 392.182 359.518 394.067 359.518 396.393V402.224C359.518 404.55 361.403 406.435 363.729 406.435Z" fill="#407BFF"/>
<path opacity="0.2" d="M363.729 406.435H412.825C415.151 406.435 417.036 404.55 417.036 402.224V396.393C417.036 394.067 415.151 392.182 412.825 392.182H363.729C361.403 392.182 359.518 394.067 359.518 396.393V402.224C359.518 404.55 361.403 406.435 363.729 406.435Z" fill="white"/>
<path d="M120.182 110.659H83.7384C81.9414 110.659 80.4844 112.116 80.4844 113.913V149.523C80.4844 151.32 81.9414 152.777 83.7384 152.777H103.618L115.125 161.171L109.895 152.777H120.182C121.979 152.777 123.436 151.32 123.436 149.523V113.913C123.436 112.115 121.979 110.659 120.182 110.659Z" fill="#407BFF"/>
<path d="M94.0874 141.923C94.9144 135.062 99.5544 130.089 101.962 131.504C104.506 132.997 97.8894 137.293 97.2494 144.232" stroke="white" stroke-width="0.5" stroke-miterlimit="10" stroke-linecap="round" stroke-linejoin="round"/>
<path d="M93.0474 140.658C94.0044 134.073 98.8834 127.483 103.128 130.193C107.591 133.038 99.0604 137.413 98.5354 144.747" stroke="white" stroke-width="0.5" stroke-miterlimit="10" stroke-linecap="round" stroke-linejoin="round"/>
<path d="M95.1123 142.869C95.6843 138.333 98.6333 133.524 100.031 133.537C101.492 133.55 96.6993 137.959 96.2363 143.67" stroke="white" stroke-width="0.5" stroke-miterlimit="10" stroke-linecap="round" stroke-linejoin="round"/>
<path d="M92.0171 138.843C93.4581 131.191 100.277 125.397 104.418 128.544C109.817 132.648 100.636 138.432 100.272 145.168" stroke="white" stroke-width="0.5" stroke-miterlimit="10" stroke-linecap="round" stroke-linejoin="round"/>
<path d="M102.904 145.251C101.884 142.557 103.825 138.557 106.217 135.046C108.194 132.144 111.424 132.539 112.844 132.893" stroke="white" stroke-width="0.5" stroke-miterlimit="10" stroke-linecap="round" stroke-linejoin="round"/>
<path d="M105.255 144.789C103.367 142.089 105.317 137.611 108.308 135.197C110.113 133.741 111.757 134.053 112.839 134.594" stroke="white" stroke-width="0.5" stroke-miterlimit="10" stroke-linecap="round" stroke-linejoin="round"/>
<path d="M106.738 144.196C105.183 141.372 107.887 137.143 109.802 136.331C110.926 135.852 111.94 136.175 112.632 136.565" stroke="white" stroke-width="0.5" stroke-miterlimit="10" stroke-linecap="round" stroke-linejoin="round"/>
<path d="M108.605 143.025C107.778 142.11 107.887 140.414 109.344 138.781C110.447 137.548 111.503 137.819 112.163 138.214" stroke="white" stroke-width="0.5" stroke-miterlimit="10" stroke-linecap="round" stroke-linejoin="round"/>
<path d="M109.937 141.813C109.713 141.35 109.625 140.747 110.213 140.237C110.66 139.852 111.05 139.805 111.362 139.894" stroke="white" stroke-width="0.5" stroke-miterlimit="10" stroke-linecap="round" stroke-linejoin="round"/>
<path d="M91.1802 135.894V135.889C91.7052 133.819 93.0012 130.791 96.1792 128.409C100.164 125.418 102.624 125.319 104.418 123.317C105.77 121.798 105.89 119.801 105.146 118.183" stroke="white" stroke-width="0.5" stroke-miterlimit="10" stroke-linecap="round" stroke-linejoin="round"/>
<path d="M102.826 117.746C103.419 118.365 103.903 119.307 103.627 120.638C102.774 124.789 93.9262 125.788 91.0762 131.463" stroke="white" stroke-width="0.5" stroke-miterlimit="10" stroke-linecap="round" stroke-linejoin="round"/>
<path d="M100.267 117.839C100.985 118.229 101.578 118.859 101.417 119.868C100.85 123.353 93.6462 124.898 91.0762 128.997" stroke="white" stroke-width="0.5" stroke-miterlimit="10" stroke-linecap="round" stroke-linejoin="round"/>
<path d="M98.0561 118.432C98.5191 118.676 98.9091 119.103 98.8361 119.868C98.6021 122.23 93.6651 123.717 91.2471 126.667" stroke="white" stroke-width="0.5" stroke-miterlimit="10" stroke-linecap="round" stroke-linejoin="round"/>
<path d="M95.82 119.608C96.059 119.868 96.231 120.222 96.168 120.69C96.059 121.533 94.051 121.959 92.439 123.317" stroke="white" stroke-width="0.5" stroke-miterlimit="10" stroke-linecap="round" stroke-linejoin="round"/>
<path d="M107.71 119.353C107.71 119.358 107.71 119.358 107.71 119.358C107.84 120.232 107.819 121.454 107.122 122.645C106.051 124.486 105.208 125.938 106.113 127.945C106.95 129.792 109.198 131.378 112.844 131.316" stroke="white" stroke-width="0.5" stroke-miterlimit="10" stroke-linecap="round" stroke-linejoin="round"/>
<path d="M109.973 121.236C109.869 122.125 109.536 123.254 108.667 124.372C107.242 126.219 108.417 129.787 112.844 129.392" stroke="white" stroke-width="0.5" stroke-miterlimit="10" stroke-linecap="round" stroke-linejoin="round"/>
<path d="M111.419 123.207C110.8 123.94 109.994 124.762 109.916 125.527C109.781 126.869 110.603 128.216 112.808 127.769" stroke="white" stroke-width="0.5" stroke-miterlimit="10" stroke-linecap="round" stroke-linejoin="round"/>
<path d="M112.584 126.219C112.111 126.052 112.126 125.647 112.313 125.226" stroke="white" stroke-width="0.5" stroke-miterlimit="10" stroke-linecap="round" stroke-linejoin="round"/>
<path d="M102.786 126.3C102.786 126.3 103.955 125.801 104.416 125.321C104.416 125.321 104.279 126.418 104.51 127.036C104.51 127.036 103.952 126.455 102.786 126.3Z" fill="white"/>
<path d="M107.176 131.014C107.176 131.014 107.348 131.666 107.039 132.386C107.039 132.386 108.034 131.803 108.582 131.7C108.582 131.7 107.622 131.425 107.176 131.014Z" fill="white"/>
<path d="M120.069 204.866C118.971 208.776 124.245 223.374 133.344 223.242C142.443 223.11 121.563 199.545 120.069 204.866Z" fill="#EBB376"/>
<path opacity="0.2" d="M120.069 204.866C118.971 208.776 124.245 223.374 133.344 223.242C142.443 223.11 121.563 199.545 120.069 204.866Z" fill="black"/>
<path d="M151.229 194.583C151.229 194.583 153.872 192.451 154.458 191.531C155.044 190.61 160.843 190.239 161.688 190.365C162.533 190.491 161.375 195.246 161.174 195.893C160.973 196.54 155.442 197.726 154.703 197.51C153.966 197.295 151.229 194.583 151.229 194.583Z" fill="#EBB376"/>
<path opacity="0.2" d="M151.229 194.583C151.229 194.583 153.872 192.451 154.458 191.531C155.044 190.61 160.843 190.239 161.688 190.365C162.533 190.491 161.375 195.246 161.174 195.893C160.973 196.54 155.442 197.726 154.703 197.51C153.966 197.295 151.229 194.583 151.229 194.583Z" fill="black"/>
<path d="M172.497 199.505C172.497 199.505 173.568 198.467 173.723 198.071C173.878 197.675 173.678 189.912 173.11 189.615C172.542 189.318 167.251 190.258 166.806 191C166.361 191.742 167.35 198.813 167.399 199.209C167.448 199.605 170.232 200.297 170.232 200.297L172.497 199.505Z" fill="#EBB376"/>
<path d="M172.925 183.892L172.28 183.835L167.671 183.43L167.026 183.373C166.493 183.326 165.979 183.719 165.877 184.251L163.621 196.021C163.519 196.553 163.868 197.022 164.401 197.069L165.046 197.126L169.655 197.531L170.3 197.588C170.833 197.635 171.347 197.242 171.449 196.71L173.705 184.94C173.807 184.408 173.458 183.939 172.925 183.892Z" fill="#263238"/>
<path opacity="0.2" d="M172.28 183.836L167.026 183.374C166.493 183.327 165.979 183.72 165.877 184.252L163.621 196.022C163.519 196.554 163.868 197.023 164.401 197.07L169.655 197.532C170.188 197.579 170.702 197.186 170.804 196.654L173.06 184.884C173.162 184.352 172.813 183.883 172.28 183.836Z" fill="white"/>
<path d="M170.265 196.468L164.021 195.918L166.253 184.273L172.497 184.823L170.265 196.468Z" fill="#407BFF"/>
<path opacity="0.6" d="M170.265 196.468L164.021 195.918L166.253 184.273L172.497 184.823L170.265 196.468Z" fill="white"/>
<path d="M146.82 398.849L151.879 398.93C157.019 374.785 160.654 344.905 162.916 322.365C163.269 318.831 163.592 315.488 163.875 312.368C164.006 310.884 164.138 309.46 164.259 308.086C164.865 301.31 165.279 295.938 165.532 292.616C165.714 290.193 165.805 288.859 165.805 288.859H147.527L147.699 293.514L148.265 308.884L148.326 310.641L148.71 320.79L149.346 338.068C143.073 362.394 146.82 398.849 146.82 398.849Z" fill="#EBB376"/>
<path d="M105.821 397.556L110.799 398.495C120.766 373.583 130.127 341.682 136.216 319.396C137.155 315.942 138.024 312.711 138.801 309.783C138.841 309.632 138.872 309.49 138.912 309.349C140.447 303.532 141.628 298.897 142.366 295.959C142.932 293.657 143.245 292.394 143.245 292.394L125.23 289.284L124.21 296.858L122.705 307.986L122.412 310.167L121.392 317.751L118.655 338.089C108.336 360.99 105.821 397.556 105.821 397.556Z" fill="#EBB376"/>
<path opacity="0.2" d="M122.706 307.985L138.803 309.782C138.843 309.631 138.874 309.489 138.914 309.348C140.449 303.531 141.63 298.896 142.368 295.958L124.211 296.857L122.706 307.985Z" fill="black"/>
<path opacity="0.2" d="M147.698 293.514L148.264 308.884L148.325 310.641L163.876 312.368C164.007 310.884 164.139 309.46 164.26 308.086C164.866 301.31 165.28 295.938 165.533 292.616L147.698 293.514Z" fill="black"/>
<path d="M161.756 415.631C160.815 414.869 159.742 414.285 158.59 413.909C158.59 413.909 155.147 410.493 153.49 400.209L148.982 399.033C147.414 398.653 145.776 399.293 144.881 400.634C144.756 400.816 144.659 401.016 144.594 401.226C144.362 402.329 144.201 403.445 144.113 404.568C143.66 408.048 144.048 415.861 144.048 415.861H144.863L145.187 408.77C145.307 406.363 147.149 409.187 147.677 411.778C148.205 414.37 149.325 417.128 154.601 417.258C160.756 417.381 163.311 417.14 161.756 415.631Z" fill="#263238"/>
<path d="M144.724 400.719C144.428 398.312 144.335 394.128 144.335 394.128L154.351 395.239C154.351 395.239 153.138 399.997 154.138 403.57C149.093 402.246 144.724 400.719 144.724 400.719Z" fill="#263238"/>
<path d="M121.001 415.631C120.06 414.869 118.987 414.285 117.835 413.909C117.835 413.909 114.392 410.493 112.734 400.209L108.226 399.033C106.658 398.653 105.02 399.293 104.125 400.634C104 400.816 103.903 401.016 103.838 401.226C103.606 402.329 103.445 403.445 103.357 404.568C102.903 408.048 103.292 415.861 103.292 415.861H104.107L104.431 408.77C104.551 406.363 106.393 409.187 106.921 411.778C107.449 414.37 108.569 417.128 113.845 417.258C120.001 417.381 122.556 417.14 121.001 415.631Z" fill="#263238"/>
<path d="M103.968 400.719C103.672 398.312 103.579 394.128 103.579 394.128L113.595 395.239C113.595 395.239 112.382 399.997 113.382 403.57C108.338 402.246 103.968 400.719 103.968 400.719Z" fill="#263238"/>
<path d="M156.33 180.747C156.186 181.328 155.824 181.739 155.523 181.664C155.221 181.589 155.094 181.057 155.238 180.476C155.382 179.895 155.744 179.484 156.045 179.559C156.347 179.634 156.474 180.166 156.33 180.747Z" fill="#263238"/>
<path d="M155.913 179.556L157.02 179.304C157.02 179.304 156.266 180.246 155.913 179.556Z" fill="#263238"/>
<path d="M154.584 181.895C154.584 181.895 154.843 184.035 155.479 185.479C155.479 185.479 154.54 186.18 153.389 185.559L154.584 181.895Z" fill="#D58745"/>
<path d="M137.361 186.448C137.41 186.533 137.468 186.621 137.532 186.692C138.336 187.807 139.308 188.944 140.585 189.731C144.154 191.943 146.981 192.314 149.304 191.149C149.313 191.152 149.313 191.152 149.313 191.152C152.626 189.346 154.816 184.895 156.387 179.161C157.115 176.534 157.51 174.168 157.393 172.182C157.39 172.162 157.412 172.097 157.409 172.077C157.398 171.995 157.405 171.888 157.394 171.806C157.163 169.009 155.939 166.831 153.352 165.208C152.457 164.649 151.396 164.146 150.158 163.705C139.243 159.862 131.096 177.334 137.361 186.448Z" fill="#EBB376"/>
<path opacity="0.2" d="M137.532 186.692C138.336 187.807 139.36 188.791 140.637 189.577C144.206 191.789 147.076 192.033 149.408 190.842C147.363 190.615 144.751 189.902 142.653 187.907C141.329 186.655 139.46 186.429 137.532 186.692Z" fill="black"/>
<path d="M133.051 196.207C131.314 199.097 134.922 201.743 134.922 201.743C142.49 201.17 144.913 198.074 144.913 198.074C140.379 193.324 144.742 185.734 144.742 185.734L143.432 185.904L135.037 184.765C135.037 184.765 135.795 189.699 135.759 190.753C135.756 190.762 135.762 190.773 135.759 190.782C135.539 196.281 133.051 196.207 133.051 196.207Z" fill="#EBB376"/>
<path d="M157.423 172.111C157.423 172.111 155.412 179.999 147.01 180.82C147.01 180.82 141.168 187.736 136.528 186.282C130.202 184.3 127.712 173.491 132.98 165.139C139.81 154.308 157.999 159.43 157.423 172.111Z" fill="#263238"/>
<path d="M151.445 179.869C151.85 178.67 151.572 176.329 149.617 175.969C147.593 175.596 144.907 179.984 149.283 182.658C149.911 183.042 150.6 182.371 151.445 179.869Z" fill="#EBB376"/>
<path d="M146.825 159.394C146.825 159.394 154.783 160.035 157.831 164.361C161.39 169.412 161.973 173.583 154.492 177.201C154.492 177.201 143.544 169.024 139.167 168.477C134.789 167.929 131.458 168.126 131.458 168.126C133.362 159.707 143.298 156.34 146.825 159.394Z" fill="#263238"/>
<path d="M138.466 163.827C138.466 163.827 133.861 155.256 126.887 156.921C119.912 158.587 118.999 164.544 119.379 170.385C119.759 176.226 118.607 186.977 114.007 189.033C114.007 189.033 118.332 191.898 122.947 186.922C127.563 181.946 128.342 165.372 136.014 168.185L138.466 163.827Z" fill="#263238"/>
<path d="M154.064 176.195C154.064 176.195 155.394 175.854 156.892 177.092" stroke="#263238" stroke-width="0.7247" stroke-miterlimit="10" stroke-linecap="round" stroke-linejoin="round"/>
<path d="M161.876 242.18L131.976 245.08C130.586 223.72 120.066 204.87 120.066 204.87C120.066 204.87 118.656 200.02 132.586 196.22C146.516 192.43 155.756 195.54 155.756 195.54C158.706 199.55 160.406 205.62 161.346 212.07C161.716 214.56 161.976 217.1 162.146 219.6C162.926 231.34 161.876 242.18 161.876 242.18Z" fill="#407BFF"/>
<path d="M163.03 244.112L162.431 238.223L130.779 241.403L131.439 246.017L131.449 246.016C119.527 267.122 122.415 291.191 122.415 291.191L120.968 303.025C120.968 303.025 123.959 304.881 144.012 306.188C161.646 307.337 166.127 305.51 166.127 305.51C172.369 268.885 167.011 251.451 163.03 244.112Z" fill="#263238"/>
<path d="M149.339 244.519L163.58 243.391L163.39 239.078L149.021 240.584L149.339 244.519Z" fill="#263238"/>
<path d="M135.081 245.647L148.311 244.6L147.996 240.691L134.793 242.075L135.081 245.647Z" fill="#263238"/>
<path d="M133.768 242.182L130.407 242.534L130.836 245.983L134.054 245.729L133.768 242.182Z" fill="#263238"/>
<g opacity="0.3">
<path d="M149.339 244.519L163.58 243.391L163.39 239.078L149.021 240.584L149.339 244.519Z" fill="white"/>
<path d="M135.081 245.647L148.311 244.6L147.996 240.691L134.793 242.075L135.081 245.647Z" fill="white"/>
<path d="M133.768 242.182L130.407 242.534L130.836 245.983L134.054 245.729L133.768 242.182Z" fill="white"/>
</g>
<path d="M155.758 195.539C155.758 195.539 150.288 195.017 150.752 201.743C151.009 205.47 154.065 212.825 157.436 213.484C159.435 213.875 160.367 210.686 160.367 210.686C160.367 210.686 169.69 221.06 174.356 219.711C179.022 218.363 172.642 198.582 172.642 198.582L168.984 198.978C168.984 198.978 171.587 209.264 170.795 210.055C170.005 210.846 158.292 196.138 155.758 195.539Z" fill="#EBB376"/>
<path opacity="0.2" d="M162.147 219.6C158.477 216.95 155.477 206.89 155.477 206.89L160.367 210.69C160.367 210.69 160.777 211.24 161.347 212.07C161.717 214.56 161.977 217.1 162.147 219.6Z" fill="black"/>
</g>
<defs>
<clipPath id="clip0_561_3031">
<rect width="500" height="500" fill="white" transform="translate(0.806152)"/>
</clipPath>
</defs>
</svg>
