<svg width="501" height="500" viewBox="0 0 501 500" fill="none" xmlns="http://www.w3.org/2000/svg">
<g clip-path="url(#clip0_561_2844)">
<path d="M500.181 382.398H0.180908V382.648H500.181V382.398Z" fill="#EBEBEB"/>
<path d="M444.07 391.922H410.948V392.172H444.07V391.922Z" fill="#EBEBEB"/>
<path d="M181.514 395.306H131.652V395.556H181.514V395.306Z" fill="#EBEBEB"/>
<path d="M409.948 401.208H380.422V401.458H409.948V401.208Z" fill="#EBEBEB"/>
<path d="M74.2369 399.528H52.6399V399.778H74.2369V399.528Z" fill="#EBEBEB"/>
<path d="M121.514 399.528H83.1399V399.778H121.514V399.528Z" fill="#EBEBEB"/>
<path d="M331.401 389.208H237.725V389.458H331.401V389.208Z" fill="#EBEBEB"/>
<path d="M237.195 337.8H44.0959C40.9489 337.8 38.3879 335.24 38.3879 332.092V60.6599C38.3879 57.5129 40.9489 54.9519 44.0959 54.9519H237.195C240.341 54.9519 242.902 57.5129 242.902 60.6599V332.092C242.902 335.239 240.341 337.8 237.195 337.8ZM44.0959 55.2029C41.0859 55.2029 38.6379 57.6509 38.6379 60.6609V332.093C38.6379 335.103 41.0859 337.551 44.0959 337.551H237.195C240.204 337.551 242.652 335.103 242.652 332.093V60.6599C242.652 57.6509 240.204 55.2019 237.195 55.2019L44.0959 55.2029Z" fill="#EBEBEB"/>
<path d="M453.491 337.8H260.393C257.246 337.8 254.686 335.24 254.686 332.092V60.6599C254.686 57.5129 257.247 54.9519 260.393 54.9519H453.491C456.639 54.9519 459.199 57.5129 459.199 60.6599V332.092C459.2 335.239 456.639 337.8 453.491 337.8ZM260.393 55.2029C257.384 55.2029 254.936 57.6509 254.936 60.6609V332.093C254.936 335.103 257.384 337.551 260.393 337.551H453.491C456.501 337.551 458.949 335.103 458.949 332.093V60.6599C458.949 57.6509 456.501 55.2019 453.491 55.2019L260.393 55.2029Z" fill="#EBEBEB"/>
<path d="M218.474 74.667H72.865V382.399H218.474V74.667Z" fill="#E6E6E6"/>
<path d="M221.71 74.667H76.1011V382.399H221.71V74.667Z" fill="#F5F5F5"/>
<path d="M215.902 375.875L215.902 81.1917L81.9096 81.1917L81.9096 375.875H215.902Z" fill="#FAFAFA"/>
<path d="M112.769 375.874L146.712 81.1909H185.042L151.098 375.874H112.769Z" fill="white"/>
<path d="M215.901 375.874L215.901 81.1914H213.455L213.455 375.874H215.901Z" fill="#E6E6E6"/>
<path d="M219.307 106.715H78.5029V115.474H219.307V106.715Z" fill="#F5F5F5"/>
<path d="M441.757 382.398V240.234H385.715V382.398H441.757Z" fill="#F0F0F0"/>
<path d="M438.682 275.741V244.385H388.793V275.741H438.682Z" fill="#F5F5F5"/>
<path d="M402.695 243.97H424.779C424.779 245.766 423.323 247.221 421.528 247.221H405.946C404.15 247.221 402.695 245.766 402.695 243.97Z" fill="#E6E6E6"/>
<path d="M438.682 309.91V278.555H388.793V309.91H438.682Z" fill="#F5F5F5"/>
<path d="M438.682 344.079V312.724H388.793V344.079H438.682Z" fill="#F5F5F5"/>
<path d="M438.682 378.248V346.893H388.793V378.248H438.682Z" fill="#F5F5F5"/>
<path d="M402.695 278.139H424.779C424.779 279.935 423.323 281.39 421.528 281.39H405.946C404.15 281.39 402.695 279.935 402.695 278.139Z" fill="#E6E6E6"/>
<path d="M402.695 312.308H424.779C424.779 314.104 423.323 315.559 421.528 315.559H405.946C404.15 315.559 402.695 314.104 402.695 312.308Z" fill="#E6E6E6"/>
<path d="M402.695 346.478H424.779C424.779 348.274 423.323 349.729 421.528 349.729H405.946C404.15 349.729 402.695 348.273 402.695 346.478Z" fill="#E6E6E6"/>
<path d="M385.716 382.398V240.234H357.725V382.398H385.716Z" fill="#F5F5F5"/>
<path d="M380.656 382.398V240.234H324.614V382.398H380.656Z" fill="#F0F0F0"/>
<path d="M377.581 275.74V244.385H327.692V275.74H377.581Z" fill="#F5F5F5"/>
<path d="M341.594 243.97H363.678C363.678 245.766 362.222 247.221 360.427 247.221H344.845C343.049 247.221 341.594 245.766 341.594 243.97Z" fill="#E6E6E6"/>
<path d="M377.581 309.909V278.554H327.692V309.909H377.581Z" fill="#F5F5F5"/>
<path d="M377.581 344.079V312.724H327.692V344.079H377.581Z" fill="#F5F5F5"/>
<path d="M377.581 378.247V346.892H327.692V378.247H377.581Z" fill="#F5F5F5"/>
<path d="M341.594 278.139H363.678C363.678 279.935 362.222 281.39 360.427 281.39H344.845C343.049 281.39 341.594 279.935 341.594 278.139Z" fill="#E6E6E6"/>
<path d="M341.594 312.308H363.678C363.678 314.104 362.222 315.559 360.427 315.559H344.845C343.049 315.559 341.594 314.104 341.594 312.308Z" fill="#E6E6E6"/>
<path d="M341.594 346.478H363.678C363.678 348.274 362.222 349.729 360.427 349.729H344.845C343.049 349.729 341.594 348.273 341.594 346.478Z" fill="#E6E6E6"/>
<path d="M324.615 382.398V240.234H296.624V382.398H324.615Z" fill="#F5F5F5"/>
<path d="M328.193 240.234H349.035V204.087H328.193V240.234Z" fill="#E0E0E0"/>
<path d="M414.478 240.234H334.99L323.154 181.732H402.642L414.478 240.234Z" fill="#E6E6E6"/>
<path d="M423.552 240.234H337.016L325.18 181.732H411.716L423.552 240.234Z" fill="#F0F0F0"/>
<path d="M343.332 235.624L333.362 186.343H405.399L415.369 235.624H343.332Z" fill="white"/>
<path d="M363.546 235.623L375.942 186.342H385.186L372.79 235.623H363.546Z" fill="#F5F5F5"/>
<path d="M376.412 235.623L388.808 186.342H398.052L385.656 235.623H376.412Z" fill="#F5F5F5"/>
<path d="M294.255 149.506H299.036L315.432 141.72H295.852L294.255 149.506Z" fill="#E6E6E6"/>
<path d="M297.028 149.506H301.809L318.205 141.72H313.415L297.028 149.506Z" fill="#F5F5F5"/>
<path d="M410.316 149.506H415.096L431.493 141.72H411.913L410.316 149.506Z" fill="#E6E6E6"/>
<path d="M413.089 149.506H417.87L434.266 141.72H429.476L413.089 149.506Z" fill="#F5F5F5"/>
<path d="M282.425 141.719H314.324V136.653H282.425V141.719Z" fill="#E6E6E6"/>
<path d="M446.351 136.654H314.325V141.72H446.351V136.654Z" fill="#F5F5F5"/>
<path d="M388.183 136.653H430.125V116.71H388.183V136.653Z" fill="#F0F0F0"/>
<path d="M388.183 116.711H431.493V111.369H388.183V116.711Z" fill="#F0F0F0"/>
<path d="M388.183 111.369H375.323V116.711H388.183V111.369Z" fill="#EBEBEB"/>
<path d="M388.182 116.711H376.444V136.654H388.182V116.711Z" fill="#EBEBEB"/>
<path opacity="0.7" d="M376.444 118.359H430.125V116.71H376.444V118.359Z" fill="#E0E0E0"/>
<path d="M316.486 136.653H382.694V104.677H316.486V136.653Z" fill="#F0F0F0"/>
<path d="M316.487 104.678L384.854 104.678V101.381L316.487 101.381V104.678Z" fill="#F0F0F0"/>
<path d="M316.486 101.38H296.187V104.677H316.486V101.38Z" fill="#EBEBEB"/>
<path d="M316.487 104.678H297.957V136.654H316.487V104.678Z" fill="#EBEBEB"/>
<path opacity="0.7" d="M297.958 106.604L382.695 106.604V104.678L297.958 104.678V106.604Z" fill="#E0E0E0"/>
<path d="M250.181 427.561C357.263 427.561 444.07 422.492 444.07 416.238C444.07 409.985 357.263 404.915 250.181 404.915C143.099 404.915 56.292 409.985 56.292 416.238C56.292 422.492 143.099 427.561 250.181 427.561Z" fill="#F5F5F5"/>
<path d="M141.017 94.241H256.345C261.482 94.241 265.924 98.444 266.215 103.581L279.213 332.698C279.505 337.835 275.54 342.038 270.403 342.038H155.075C149.938 342.038 145.496 337.835 145.205 332.698L132.207 103.581C131.916 98.444 135.88 94.241 141.017 94.241Z" fill="white"/>
<path d="M132.102 177.372L131.492 166.611L132.59 166.548L133.2 177.309L132.102 177.372ZM130.841 155.139L129.034 123.292L130.132 123.229L131.939 155.076L130.841 155.139Z" fill="#407BFF"/>
<path d="M270.427 342.478H155.1C149.707 342.478 145.072 338.091 144.766 332.698L131.768 103.581C131.462 98.189 135.6 93.802 140.993 93.802H256.321C261.714 93.802 266.349 98.189 266.655 103.581L279.653 332.698C279.958 338.091 275.82 342.478 270.427 342.478ZM141.042 94.681C136.134 94.681 132.368 98.674 132.646 103.581L145.644 332.698C145.923 337.606 150.142 341.598 155.05 341.598H270.378C275.286 341.598 279.052 337.605 278.774 332.698L265.776 103.581C265.498 98.673 261.278 94.681 256.371 94.681H141.042Z" fill="#407BFF"/>
<path opacity="0.2" d="M148.914 336.105C150.856 336.105 152.341 334.531 152.231 332.589L139.246 103.691C139.136 101.749 137.472 100.175 135.53 100.175C133.588 100.175 132.103 101.749 132.213 103.691L145.198 332.589C145.309 334.531 146.972 336.105 148.914 336.105Z" fill="#407BFF"/>
<path opacity="0.5" d="M209.543 110.875H250.268C253.1 110.875 255.526 113.171 255.687 116.003L257.997 156.728C258.158 159.56 255.992 161.856 253.16 161.856H212.435C209.603 161.856 207.177 159.56 207.016 156.728L204.706 116.003C204.546 113.17 206.711 110.875 209.543 110.875Z" fill="#407BFF"/>
<path opacity="0.4" d="M182.859 112.291H193.701C196.533 112.291 198.959 114.587 199.12 117.419L199.735 128.261C199.896 131.093 197.73 133.389 194.898 133.389H184.056C181.224 133.389 178.798 131.093 178.637 128.261L178.022 117.419C177.861 114.587 180.027 112.291 182.859 112.291Z" fill="#407BFF"/>
<path opacity="0.2" d="M156.094 112.291H166.936C169.768 112.291 172.194 114.587 172.355 117.419L172.97 128.261C173.131 131.093 170.965 133.389 168.133 133.389H157.291C154.459 133.389 152.033 131.093 151.872 128.261L151.257 117.419C151.096 114.587 153.262 112.291 156.094 112.291Z" fill="#407BFF"/>
<path opacity="0.4" d="M184.393 139.342H195.235C198.067 139.342 200.493 141.638 200.654 144.47L201.269 155.312C201.43 158.144 199.264 160.44 196.432 160.44H185.59C182.758 160.44 180.332 158.144 180.171 155.312L179.556 144.47C179.396 141.637 181.561 139.342 184.393 139.342Z" fill="#407BFF"/>
<path opacity="0.4" d="M157.628 139.342H168.47C171.302 139.342 173.728 141.638 173.889 144.47L174.504 155.312C174.665 158.144 172.499 160.44 169.667 160.44H158.825C155.993 160.44 153.567 158.144 153.406 155.312L152.791 144.47C152.631 141.637 154.796 139.342 157.628 139.342Z" fill="#407BFF"/>
<path d="M167.379 156.825H160.704C158.721 156.825 157.015 155.212 156.903 153.228L156.524 146.552C156.411 144.568 157.934 142.955 159.917 142.955H166.592C168.575 142.955 170.28 144.568 170.393 146.552L170.772 153.228C170.884 155.212 169.362 156.825 167.379 156.825ZM159.966 143.835C158.467 143.835 157.317 145.054 157.402 146.553L157.781 153.229C157.866 154.727 159.154 155.947 160.653 155.947H167.328C168.827 155.947 169.977 154.728 169.892 153.229L169.513 146.553C169.428 145.055 168.14 143.835 166.641 143.835H159.966Z" fill="white"/>
<path opacity="0.5" d="M203.786 235.11H163.061C160.229 235.11 158.063 237.406 158.224 240.238L160.534 280.963C160.695 283.795 163.121 286.091 165.953 286.091H206.678C209.51 286.091 211.676 283.795 211.515 280.963L209.205 240.238C209.044 237.406 206.619 235.11 203.786 235.11Z" fill="#407BFF"/>
<path opacity="0.4" d="M230.632 236.527H219.79C216.958 236.527 214.792 238.823 214.953 241.655L215.568 252.497C215.729 255.329 218.155 257.625 220.987 257.625H231.829C234.661 257.625 236.827 255.329 236.666 252.497L236.051 241.655C235.89 238.823 233.464 236.527 230.632 236.527Z" fill="#407BFF"/>
<path opacity="0.4" d="M257.397 236.527H246.555C243.723 236.527 241.557 238.823 241.718 241.655L242.333 252.497C242.494 255.329 244.92 257.625 247.752 257.625H258.594C261.426 257.625 263.592 255.329 263.431 252.497L262.816 241.655C262.655 238.823 260.229 236.527 257.397 236.527Z" fill="#407BFF"/>
<path opacity="0.4" d="M232.166 263.578H221.324C218.492 263.578 216.326 265.874 216.487 268.706L217.102 279.548C217.263 282.38 219.689 284.676 222.521 284.676H233.363C236.195 284.676 238.361 282.38 238.2 279.548L237.585 268.706C237.424 265.873 234.998 263.578 232.166 263.578Z" fill="#407BFF"/>
<path opacity="0.4" d="M258.931 263.578H248.089C245.257 263.578 243.091 265.874 243.252 268.706L243.867 279.548C244.028 282.38 246.454 284.676 249.286 284.676H260.128C262.96 284.676 265.126 282.38 264.965 279.548L264.35 268.706C264.189 265.873 261.763 263.578 258.931 263.578Z" fill="#407BFF"/>
<path opacity="0.4" d="M233.401 303.672H222.559C219.727 303.672 217.561 305.968 217.722 308.8L218.337 319.642C218.498 322.474 220.924 324.77 223.756 324.77H234.598C237.43 324.77 239.596 322.474 239.435 319.642L238.82 308.8C238.659 305.968 236.233 303.672 233.401 303.672Z" fill="#407BFF"/>
<path opacity="0.4" d="M261.206 303.672H250.364C247.532 303.672 245.366 305.968 245.527 308.8L246.142 319.642C246.303 322.474 248.729 324.77 251.561 324.77H262.403C265.235 324.77 267.401 322.474 267.24 319.642L266.625 308.8C266.464 305.968 264.038 303.672 261.206 303.672Z" fill="#407BFF"/>
<path opacity="0.4" d="M177.793 303.672H166.951C164.119 303.672 161.953 305.968 162.114 308.8L162.729 319.642C162.89 322.474 165.316 324.77 168.148 324.77H178.99C181.822 324.77 183.988 322.474 183.827 319.642L183.211 308.8C183.051 305.968 180.625 303.672 177.793 303.672Z" fill="#407BFF"/>
<path opacity="0.4" d="M205.597 303.672H194.755C191.923 303.672 189.757 305.968 189.918 308.8L190.533 319.642C190.694 322.474 193.12 324.77 195.952 324.77H206.794C209.626 324.77 211.792 322.474 211.631 319.642L211.016 308.8C210.855 305.968 208.429 303.672 205.597 303.672Z" fill="#407BFF"/>
<path opacity="0.2" d="M217.972 293.031C217.192 293.031 216.596 293.663 216.641 294.442C216.685 295.222 217.353 295.854 218.133 295.854C218.913 295.854 219.509 295.222 219.464 294.442C219.419 293.663 218.752 293.031 217.972 293.031Z" fill="#407BFF"/>
<path opacity="0.2" d="M226.967 293.031C226.188 293.031 225.591 293.663 225.636 294.442C225.68 295.222 226.348 295.854 227.128 295.854C227.907 295.854 228.504 295.222 228.459 294.442C228.414 293.663 227.746 293.031 226.967 293.031Z" fill="#407BFF"/>
<path opacity="0.2" d="M199.982 293.031C199.202 293.031 198.606 293.663 198.651 294.442C198.695 295.222 199.363 295.854 200.143 295.854C200.923 295.854 201.519 295.222 201.474 294.442C201.43 293.663 200.762 293.031 199.982 293.031Z" fill="#407BFF"/>
<path opacity="0.4" d="M208.977 293.031C208.197 293.031 207.601 293.663 207.646 294.442C207.69 295.222 208.358 295.854 209.138 295.854C209.918 295.854 210.514 295.222 210.469 294.442C210.424 293.663 209.757 293.031 208.977 293.031Z" fill="#407BFF"/>
<path d="M160.498 149.89C160.597 151.63 162.087 153.04 163.827 153.04C165.567 153.04 166.897 151.63 166.798 149.89C166.699 148.15 165.209 146.74 163.469 146.74C161.729 146.74 160.399 148.151 160.498 149.89Z" fill="white"/>
<path d="M232.387 154.606C222.329 154.606 213.682 146.423 213.112 136.366C212.542 126.308 220.26 118.125 230.318 118.125C240.376 118.125 249.023 126.308 249.593 136.366C250.163 146.423 242.444 154.606 232.387 154.606ZM230.367 119.004C220.793 119.004 213.447 126.792 213.991 136.366C214.534 145.939 222.764 153.727 232.337 153.727C241.911 153.727 249.257 145.939 248.714 136.366C248.17 126.792 239.941 119.004 230.367 119.004Z" fill="white"/>
<path d="M231.377 136.805C231.313 136.805 231.249 136.791 231.188 136.763L224.668 133.786C224.442 133.683 224.332 133.421 224.423 133.201C224.513 132.981 224.773 132.887 224.996 132.99L231.259 135.849L238.597 129.575C238.775 129.422 239.055 129.45 239.219 129.638C239.383 129.826 239.371 130.103 239.191 130.257L231.648 136.706C231.572 136.771 231.476 136.805 231.377 136.805Z" fill="white"/>
<path d="M192.169 128.548C191.936 128.548 191.699 128.474 191.487 128.326L189.255 126.769C189.159 126.702 189.037 126.702 188.948 126.769L186.894 128.326C186.504 128.622 185.977 128.621 185.553 128.326C185.129 128.03 184.938 127.53 185.066 127.051L185.742 124.531C185.771 124.423 185.726 124.306 185.63 124.24L183.399 122.682C182.975 122.386 182.784 121.886 182.912 121.407C183.041 120.928 183.449 120.619 183.952 120.619H186.6C186.714 120.619 186.81 120.546 186.839 120.439L187.515 117.919C187.643 117.44 188.051 117.131 188.554 117.131C189.057 117.131 189.501 117.44 189.685 117.919L190.646 120.439C190.687 120.547 190.791 120.619 190.905 120.619H193.554C194.057 120.619 194.499 120.928 194.683 121.407C194.866 121.886 194.731 122.386 194.341 122.682L192.287 124.239C192.199 124.306 192.167 124.423 192.208 124.531L193.17 127.05C193.353 127.529 193.218 128.03 192.828 128.325C192.632 128.475 192.402 128.548 192.169 128.548ZM184.001 121.499C183.829 121.499 183.777 121.625 183.762 121.68C183.748 121.734 183.729 121.871 183.874 121.972L186.105 123.529C186.522 123.82 186.718 124.332 186.592 124.803L185.916 127.323C185.872 127.486 185.979 127.581 186.028 127.615C186.076 127.648 186.204 127.716 186.335 127.615L188.389 126.058C188.774 125.766 189.313 125.766 189.73 126.058L191.962 127.615C192.108 127.716 192.226 127.649 192.269 127.615C192.313 127.582 192.41 127.486 192.348 127.323L191.386 124.804C191.206 124.332 191.344 123.82 191.728 123.529L193.782 121.972C193.915 121.871 193.881 121.734 193.861 121.679C193.84 121.625 193.774 121.499 193.603 121.499H190.954C190.458 121.499 190.004 121.182 189.824 120.711L188.863 118.191C188.801 118.028 188.661 118.011 188.604 118.011C188.547 118.011 188.409 118.029 188.366 118.191L187.69 120.711C187.564 121.182 187.146 121.499 186.65 121.499H184.001Z" fill="white"/>
<path d="M165.313 129.208H159.125C158.272 129.208 157.538 128.518 157.49 127.67L157.138 121.472C157.124 121.229 157.31 121.033 157.553 121.033H159.294C160.142 121.033 160.793 120.343 160.745 119.495L160.646 117.754C160.632 117.511 160.818 117.315 161.061 117.315H164.638C165.486 117.315 166.216 118.005 166.264 118.853L166.764 127.67C166.813 128.518 166.161 129.208 165.313 129.208ZM158.043 121.912L158.37 127.67C158.391 128.034 158.707 128.329 159.076 128.329H165.264C165.627 128.329 165.907 128.033 165.886 127.67L165.386 118.853C165.365 118.489 165.052 118.194 164.689 118.194H161.551L161.625 119.495C161.701 120.828 160.678 121.913 159.345 121.913L158.043 121.912Z" fill="white"/>
<path d="M194.939 154.298H186.387C185.911 154.298 185.501 153.91 185.474 153.434C185.461 153.205 185.538 152.989 185.691 152.825L186.24 152.243L186.11 149.961C185.977 147.618 187.727 145.646 190.011 145.565C191.183 145.51 192.332 145.95 193.226 146.769C194.121 147.588 194.651 148.689 194.718 149.869L194.853 152.249L195.466 152.823C195.638 152.986 195.741 153.203 195.754 153.434C195.781 153.911 195.415 154.298 194.939 154.298ZM190.218 146.442C190.176 146.442 190.134 146.443 190.092 146.444C188.275 146.509 186.883 148.087 186.989 149.962L187.119 152.249C187.132 152.479 187.055 152.696 186.902 152.859L186.349 153.445L194.889 153.419L194.262 152.86C194.09 152.698 193.987 152.481 193.974 152.249L193.839 149.869C193.786 148.93 193.364 148.054 192.652 147.402C191.971 146.78 191.111 146.442 190.218 146.442Z" fill="white"/>
<path d="M189.423 144.053C189.444 144.416 189.755 144.711 190.118 144.711C190.482 144.711 190.759 144.416 190.739 144.053C190.718 143.69 190.407 143.395 190.044 143.395C189.681 143.395 189.403 143.69 189.423 144.053Z" fill="white"/>
<path d="M191.58 155.108C191.817 155.108 192.001 155.346 191.928 155.567C191.771 156.046 191.325 156.385 190.782 156.385C190.238 156.385 189.755 156.045 189.543 155.567C189.445 155.346 189.602 155.108 189.839 155.108H191.58Z" fill="white"/>
<path d="M220.631 253.031C220.491 253.031 220.353 252.964 220.263 252.847C220.149 252.699 220.134 252.502 220.225 252.35C220.231 252.342 220.702 251.551 221.127 250.488C220.363 249.482 219.923 248.308 219.854 247.076C219.668 243.792 222.188 241.12 225.472 241.12C228.756 241.12 231.579 243.792 231.765 247.076C231.951 250.36 229.431 253.032 226.148 253.032C225.018 253.032 223.909 252.715 222.922 252.113C221.837 252.728 220.787 253.006 220.74 253.018C220.704 253.027 220.667 253.031 220.631 253.031ZM222.885 251.157C222.973 251.157 223.063 251.184 223.141 251.236C224.033 251.835 225.055 252.152 226.097 252.152C228.895 252.152 231.044 249.875 230.885 247.075C230.726 244.276 228.32 241.999 225.521 241.999C222.722 241.999 220.573 244.276 220.732 247.075C220.796 248.2 221.221 249.268 221.962 250.165C222.066 250.292 222.097 250.461 222.042 250.608C221.875 251.05 221.697 251.452 221.536 251.79C221.883 251.644 222.278 251.454 222.664 251.218C222.732 251.177 222.808 251.157 222.885 251.157Z" fill="white"/>
<path d="M187.53 272.526H182.912C180.714 272.526 178.598 271.249 177.521 269.274C177.157 268.606 176.644 268.019 175.996 267.525C172.383 264.777 170.168 260.673 169.918 256.265C169.694 252.313 171.13 248.493 173.858 245.785C176.624 243.039 180.369 241.664 184.403 241.914C191.799 242.372 198.06 248.521 198.656 255.914C199.022 260.452 197.288 264.679 193.899 267.511C193.292 268.018 192.84 268.611 192.553 269.275C191.7 271.25 189.729 272.526 187.53 272.526ZM183.521 242.716C180.056 242.716 176.866 244.003 174.461 246.391C171.853 248.98 170.535 252.487 170.749 256.266C170.985 260.42 173.072 264.287 176.476 266.876C177.226 267.447 177.822 268.131 178.245 268.907C179.17 270.603 180.982 271.696 182.865 271.696H187.483C189.366 271.696 191.055 270.603 191.786 268.91C192.121 268.135 192.645 267.446 193.344 266.861C196.538 264.192 198.171 260.21 197.827 255.934C197.265 248.969 191.367 243.175 184.399 242.744C184.104 242.725 183.811 242.716 183.521 242.716Z" fill="white"/>
<path d="M188.872 279.452H182.357C181.262 279.452 180.32 278.56 180.258 277.465L180.179 276.065C180.117 274.97 180.957 274.078 182.053 274.078H188.568C189.663 274.078 190.606 274.97 190.668 276.065L190.747 277.465C190.808 278.56 189.967 279.452 188.872 279.452ZM182.099 274.909C181.462 274.909 180.973 275.427 181.009 276.065L181.088 277.465C181.124 278.102 181.672 278.621 182.309 278.621H188.824C189.462 278.621 189.951 278.103 189.915 277.465L189.836 276.065C189.8 275.428 189.252 274.909 188.614 274.909H182.099Z" fill="white"/>
<path d="M233.421 279.996H221.932C221.104 279.996 220.392 279.322 220.344 278.494L219.848 269.758C219.801 268.93 220.437 268.256 221.265 268.256H232.754C233.582 268.256 234.294 268.93 234.341 269.758L234.836 278.494C234.885 279.322 234.25 279.996 233.421 279.996ZM221.316 269.135C220.973 269.135 220.709 269.415 220.728 269.758L221.224 278.494C221.244 278.838 221.539 279.117 221.883 279.117H233.372C233.715 279.117 233.979 278.838 233.96 278.494L233.464 269.758C233.445 269.414 233.149 269.135 232.805 269.135H221.316Z" fill="white"/>
<path d="M234.016 271.743H220.401C220.158 271.743 219.95 271.546 219.937 271.303C219.923 271.06 220.109 270.863 220.352 270.863H233.966C234.209 270.863 234.417 271.06 234.43 271.303C234.444 271.546 234.259 271.743 234.016 271.743Z" fill="white"/>
<path d="M222.628 274.787H224.032C224.244 274.787 224.406 274.615 224.394 274.403L224.358 273.777C224.346 273.565 224.164 273.393 223.952 273.393H222.548C222.336 273.393 222.174 273.565 222.186 273.777L222.221 274.403C222.234 274.615 222.416 274.787 222.628 274.787Z" fill="white"/>
<path d="M226.679 274.787H228.083C228.295 274.787 228.457 274.615 228.445 274.403L228.409 273.777C228.397 273.565 228.215 273.393 228.003 273.393H226.599C226.387 273.393 226.225 273.565 226.237 273.777L226.272 274.403C226.286 274.615 226.467 274.787 226.679 274.787Z" fill="white"/>
<path d="M230.73 274.787H232.134C232.346 274.787 232.508 274.615 232.496 274.403L232.46 273.777C232.448 273.565 232.266 273.393 232.054 273.393H230.65C230.438 273.393 230.276 273.565 230.288 273.777L230.323 274.403C230.337 274.615 230.518 274.787 230.73 274.787Z" fill="white"/>
<path d="M222.791 277.665H224.195C224.407 277.665 224.569 277.493 224.557 277.281L224.521 276.655C224.509 276.443 224.327 276.271 224.115 276.271H222.711C222.499 276.271 222.337 276.443 222.349 276.655L222.385 277.281C222.398 277.493 222.579 277.665 222.791 277.665Z" fill="white"/>
<path d="M226.842 277.665H228.246C228.458 277.665 228.62 277.493 228.608 277.281L228.572 276.655C228.56 276.443 228.378 276.271 228.166 276.271H226.762C226.55 276.271 226.388 276.443 226.4 276.655L226.436 277.281C226.449 277.493 226.63 277.665 226.842 277.665Z" fill="white"/>
<path d="M230.894 277.665H232.298C232.51 277.665 232.672 277.493 232.66 277.281L232.624 276.655C232.612 276.443 232.43 276.271 232.218 276.271H230.814C230.602 276.271 230.44 276.443 230.452 276.655L230.488 277.281C230.5 277.493 230.682 277.665 230.894 277.665Z" fill="white"/>
<path d="M253.72 254.473H251.778C251.156 254.473 250.621 253.967 250.586 253.345L250.498 251.794C250.463 251.172 250.94 250.666 251.562 250.666H253.504C254.126 250.666 254.661 251.172 254.696 251.794L254.784 253.345C254.819 253.967 254.342 254.473 253.72 254.473ZM251.612 251.546C251.475 251.546 251.369 251.658 251.377 251.795L251.465 253.346C251.473 253.483 251.591 253.595 251.728 253.595H253.67C253.807 253.595 253.913 253.483 253.905 253.346L253.817 251.795C253.809 251.658 253.691 251.546 253.554 251.546H251.612ZM254.017 249.591H250.919C250.676 249.591 250.468 249.394 250.455 249.152L250.437 248.842C250.404 248.256 250.445 247.787 250.562 247.407C250.678 247.029 250.866 246.679 251.119 246.368C251.355 246.077 251.865 245.591 252.68 244.883C253.124 244.504 253.148 244.291 253.145 244.234C253.13 243.976 253.03 243.886 252.997 243.857C252.877 243.751 252.653 243.728 252.487 243.728C252.217 243.728 252.016 243.808 251.856 243.98C251.739 244.105 251.592 244.394 251.557 245.057C251.551 245.174 251.498 245.281 251.409 245.353C251.322 245.426 251.208 245.459 251.088 245.444L247.902 245.053C247.664 245.024 247.482 244.813 247.491 244.576C247.538 243.311 247.95 242.273 248.717 241.492C249.49 240.704 250.711 240.305 252.343 240.305C253.613 240.305 254.676 240.58 255.507 241.123C256.661 241.874 257.283 242.897 257.355 244.161C257.386 244.701 257.266 245.226 256.999 245.723C256.74 246.205 256.224 246.759 255.423 247.418C254.799 247.936 254.608 248.212 254.549 248.331C254.453 248.528 254.414 248.804 254.433 249.151C254.445 249.395 254.26 249.591 254.017 249.591ZM251.31 248.712H253.554C253.575 248.404 253.641 248.135 253.752 247.909C253.911 247.586 254.255 247.211 254.837 246.728C255.546 246.144 256.01 245.656 256.216 245.274C256.412 244.91 256.496 244.547 256.474 244.161C256.419 243.193 255.954 242.438 255.053 241.851C254.376 241.408 253.481 241.184 252.391 241.184C250.994 241.184 249.974 241.501 249.361 242.125C248.819 242.677 248.503 243.371 248.402 244.235L250.72 244.52C250.795 244.005 250.952 243.623 251.196 243.362C251.513 243.021 251.931 242.849 252.437 242.849C252.908 242.849 253.286 242.972 253.561 243.216C253.756 243.39 253.993 243.707 254.023 244.234C254.048 244.677 253.804 245.111 253.276 245.562C252.512 246.227 252.019 246.693 251.815 246.945C251.628 247.175 251.49 247.431 251.405 247.708C251.327 247.96 251.295 248.298 251.31 248.712Z" fill="white"/>
<path d="M254.148 274.817C252.149 274.817 250.43 273.19 250.316 271.191C250.203 269.192 251.737 267.565 253.736 267.565C255.735 267.565 257.454 269.192 257.568 271.191C257.681 273.19 256.147 274.817 254.148 274.817ZM253.786 268.444C252.272 268.444 251.109 269.676 251.195 271.191C251.281 272.706 252.584 273.938 254.098 273.938C255.612 273.938 256.775 272.706 256.689 271.191C256.603 269.676 255.3 268.444 253.786 268.444Z" fill="white"/>
<path d="M259.389 280.688C259.146 280.688 258.938 280.491 258.924 280.248C258.736 276.941 255.301 276.684 254.253 276.684C253.205 276.684 249.799 276.941 249.987 280.248C250.001 280.491 249.815 280.688 249.572 280.688C249.329 280.688 249.121 280.491 249.108 280.248C248.955 277.549 250.955 275.805 254.203 275.805C257.452 275.805 259.65 277.549 259.803 280.248C259.818 280.492 259.632 280.688 259.389 280.688Z" fill="white"/>
<path opacity="0.5" d="M247.686 165.016L158.009 187.674C155.169 188.392 153.613 191.375 154.533 194.338L167.762 236.943C168.682 239.906 171.73 241.726 174.57 241.009L264.247 218.351C267.087 217.634 268.643 214.65 267.723 211.687L254.494 169.082C253.574 166.119 250.526 164.298 247.686 165.016Z" fill="#407BFF"/>
<path d="M384.016 150.7L384.749 153.533C384.977 154.451 385.177 155.369 385.383 156.285C385.798 158.117 386.141 159.962 386.484 161.812C387.131 165.519 387.698 169.263 388.043 173.105C388.225 175.023 388.361 176.973 388.455 178.951C388.527 180.93 388.531 182.961 388.46 185.052C388.378 187.143 388.243 189.311 387.821 191.67C387.378 194.034 386.842 196.578 385.265 199.709L385.133 199.97C384.981 200.273 384.785 200.59 384.597 200.86C382.761 203.44 379.995 205.488 377.402 206.467C374.793 207.492 372.43 207.765 370.345 207.812C368.247 207.861 366.397 207.606 364.66 207.266C362.933 206.915 361.323 206.483 359.792 205.961C356.738 204.906 353.962 203.625 351.326 202.178C350.008 201.457 348.736 200.678 347.484 199.879L345.636 198.624L343.773 197.242C341.446 195.516 340.958 192.231 342.684 189.904C343.95 188.197 346.054 187.48 348.005 187.9L348.508 188.01L352.249 188.821C353.511 189.105 354.779 189.348 356.026 189.586C358.52 190.048 360.973 190.432 363.26 190.586C364.4 190.666 365.488 190.715 366.482 190.667C367.465 190.614 368.361 190.491 368.994 190.322C369.632 190.155 369.996 189.893 369.891 189.795C369.799 189.666 369.254 189.94 368.949 190.243L368.281 191.394C368.234 191.282 368.45 190.283 368.487 189.113C368.536 187.926 368.561 186.513 368.473 185.029C368.394 183.544 368.265 181.999 368.071 180.412C367.899 178.824 367.697 177.213 367.444 175.581C366.932 172.322 366.368 169 365.712 165.676L364.715 160.682L363.701 155.808L363.628 155.456C362.45 149.795 366.084 144.251 371.745 143.072C377.234 141.929 382.618 145.335 384.016 150.7Z" fill="#263238"/>
<path opacity="0.2" d="M384.016 150.7L384.749 153.533C384.977 154.451 385.177 155.369 385.383 156.285C385.798 158.117 386.141 159.962 386.484 161.812C387.131 165.519 387.698 169.263 388.043 173.105C388.225 175.023 388.361 176.973 388.455 178.951C388.527 180.93 388.531 182.961 388.46 185.052C388.378 187.143 388.243 189.311 387.821 191.67C387.378 194.034 386.842 196.578 385.265 199.709L385.133 199.97C384.981 200.273 384.785 200.59 384.597 200.86C382.761 203.44 379.995 205.488 377.402 206.467C374.793 207.492 372.43 207.765 370.345 207.812C368.247 207.861 366.397 207.606 364.66 207.266C362.933 206.915 361.323 206.483 359.792 205.961C356.738 204.906 353.962 203.625 351.326 202.178C350.008 201.457 348.736 200.678 347.484 199.879L345.636 198.624L343.773 197.242C341.446 195.516 340.958 192.231 342.684 189.904C343.95 188.197 346.054 187.48 348.005 187.9L348.508 188.01L352.249 188.821C353.511 189.105 354.779 189.348 356.026 189.586C358.52 190.048 360.973 190.432 363.26 190.586C364.4 190.666 365.488 190.715 366.482 190.667C367.465 190.614 368.361 190.491 368.994 190.322C369.632 190.155 369.996 189.893 369.891 189.795C369.799 189.666 369.254 189.94 368.949 190.243L368.281 191.394C368.234 191.282 368.45 190.283 368.487 189.113C368.536 187.926 368.561 186.513 368.473 185.029C368.394 183.544 368.265 181.999 368.071 180.412C367.899 178.824 367.697 177.213 367.444 175.581C366.932 172.322 366.368 169 365.712 165.676L364.715 160.682L363.701 155.808L363.628 155.456C362.45 149.795 366.084 144.251 371.745 143.072C377.234 141.929 382.618 145.335 384.016 150.7Z" fill="black"/>
<path d="M395.727 411.576C395.727 411.576 403.862 403.406 403.538 400.705L411.222 396.338L416.248 404.208L412.012 406.826L410.817 406.517L410.085 407.921C406.253 410.099 398.822 413.549 395.826 413.569C395.192 412.298 395.727 411.576 395.727 411.576Z" fill="#263238"/>
<path d="M388.333 310.623C382.611 269.657 384.479 244.753 378.472 224.562L341.271 221.57C341.271 221.57 357.758 286.564 365.318 313.627C372.907 340.795 401.899 402.549 401.899 402.549L412.013 396.802C412.012 396.8 398.406 342.315 388.333 310.623Z" fill="#407BFF"/>
<path opacity="0.2" d="M357.99 251.866C360.523 257.721 365.461 295.293 365.441 314.055C365.401 313.915 365.361 313.766 365.321 313.626C362.666 304.117 358.903 289.915 355.142 275.496L357.99 251.866Z" fill="black"/>
<path d="M329.24 412.923C329.24 412.923 344.67 409.421 345.377 406.913H355.167L355.98 416.238H350.539L349.534 415.379L348.323 416.238C343.915 416.238 331.197 416.275 328.46 414.642C328.438 413.231 329.24 412.923 329.24 412.923Z" fill="#263238"/>
<path d="M355.368 311.772C363.54 256.256 363.54 221.89 363.54 221.89L327.136 221.303C327.136 221.303 331.507 287.504 333.027 315.232C334.604 344.063 343.605 407.514 343.605 407.514H356.294C356.294 407.514 359.198 347.416 355.368 311.772Z" fill="#407BFF"/>
<path d="M359.319 117.674C361.008 125.003 362.282 134.404 364.388 139.813C360.715 143.227 354.761 147.464 346.827 147.349C338.893 147.234 340.344 141.868 342.472 139.104C348.157 136.236 348.378 133.336 346.988 130.787L359.319 117.674Z" fill="#FFC3BD"/>
<path d="M372.922 141.354C372.922 141.354 367.859 135.401 365.864 134.404C363.869 133.407 348.735 135.453 345.161 136.118C341.587 136.783 337.242 142.103 337.242 142.103L372.922 141.354Z" fill="#407BFF"/>
<path d="M334.261 116.759C334.422 117.476 334.172 118.139 333.701 118.24C333.231 118.341 332.719 117.842 332.558 117.125C332.397 116.408 332.648 115.745 333.118 115.644C333.589 115.543 334.1 116.042 334.261 116.759Z" fill="#263238"/>
<path d="M332.99 121.039C331.141 121.039 329.293 119.136 328.699 116.492C328.31 114.756 328.535 113.004 329.301 111.807C329.778 111.061 330.428 110.58 331.183 110.417C333.21 109.982 335.38 111.995 336.034 114.905C336.423 116.641 336.198 118.393 335.432 119.591C334.955 120.337 334.304 120.818 333.549 120.98C333.363 121.019 333.177 121.038 332.99 121.039ZM331.753 110.89C331.6 110.89 331.447 110.906 331.296 110.938C330.683 111.07 330.149 111.47 329.75 112.093C329.06 113.174 328.861 114.774 329.221 116.374C329.809 119 331.7 120.831 333.436 120.457C334.049 120.325 334.584 119.925 334.983 119.302C335.673 118.222 335.872 116.621 335.512 115.021C334.975 112.625 333.352 110.89 331.753 110.89Z" fill="#263238"/>
<path d="M334.529 117.751C334.529 117.751 333.823 122.238 332.471 124.621C334.009 125.531 336.051 124.524 336.051 124.524L334.529 117.751Z" fill="#ED847E"/>
<path d="M331.779 112.631C331.896 112.707 332.048 112.725 332.185 112.665C333.924 111.905 335.237 112.737 335.292 112.772C335.491 112.902 335.757 112.846 335.886 112.646C336.015 112.446 335.96 112.18 335.762 112.048C335.689 112.002 334.018 110.916 331.84 111.869C331.623 111.964 331.524 112.219 331.619 112.439C331.653 112.521 331.71 112.586 331.779 112.631Z" fill="#263238"/>
<path d="M358.056 109.459C359.491 118.379 360.786 123.531 357.341 129.01C352.158 137.251 340.35 135.567 336.268 127.233C332.594 119.732 330.864 106.404 338.723 101.039C346.465 95.7539 356.621 100.538 358.056 109.459Z" fill="#FFC3BD"/>
<path d="M342.934 118.597C338.291 118.442 335.413 116.62 335.413 116.62C335.413 116.62 334.879 111.631 335.7 107.74C334.101 108.359 327.987 109.984 327.677 103.793C330.257 105.96 334.481 102.632 332.82 101.549C331.159 100.466 327.032 99.382 327.548 97.215C329.663 99.382 334.056 99.227 335.033 97.937C333.481 95.306 331.407 96.286 331.407 96.286C331.407 96.286 334.617 92.158 340.963 95.46C338.693 92.055 343.491 90.249 343.491 90.249C343.491 90.249 341.788 93.087 344.574 93.396C347.36 93.706 357.937 92.079 356.389 96.943C360.517 95.512 365.327 100.322 363.625 106.978C361.922 113.634 362.755 127.022 360.896 127.346C351.07 129.059 344.74 124.118 342.934 118.597Z" fill="#263238"/>
<path d="M341.733 117.209C341.73 117.209 341.726 117.209 341.722 117.209L328.949 116.7C328.801 116.694 328.687 116.57 328.693 116.423C328.699 116.279 328.817 116.167 328.96 116.167C328.963 116.167 328.967 116.167 328.971 116.167L341.744 116.676C341.891 116.682 342.006 116.806 342 116.953C341.994 117.096 341.876 117.209 341.733 117.209Z" fill="#263238"/>
<path d="M354.068 97.422C357.505 96.824 358.058 91.747 355.719 90.99C361.498 91.402 360.019 98.763 354.068 97.422Z" fill="#263238"/>
<path d="M345.963 117.088C346.293 119.222 345.712 121.231 344.776 122.544C343.368 124.519 341.188 123.29 340.344 120.884C339.584 118.718 339.401 115.081 341.409 113.991C343.388 112.918 345.586 114.648 345.963 117.088Z" fill="#FFC3BD"/>
<path d="M372.409 140.351C360.111 138.835 342.665 138.974 331.084 140.994C325.187 142.023 320.769 146.946 320.283 152.913C318.845 170.578 322.753 201.463 326.127 232.548C353.378 241.691 381.04 232.425 381.04 232.425C381.648 226.151 378.269 205.606 376.164 194.634C377.712 183.307 381.638 170.337 383.856 155.295C384.932 147.99 379.737 141.254 372.409 140.351Z" fill="#263238"/>
<path opacity="0.2" d="M335.398 165.091C333.543 175.733 327.648 188.411 322.262 196.799C321.524 189.448 320.906 182.446 320.507 175.993L335.398 165.091Z" fill="black"/>
<path d="M174.027 223.69L270.53 209.905C273.429 209.491 275.311 206.823 274.732 203.947L265.451 157.822C264.872 154.946 262.053 152.95 259.153 153.364L162.651 167.15C159.751 167.564 157.87 170.232 158.449 173.108L167.73 219.233C168.308 222.108 171.127 224.104 174.027 223.69Z" fill="white"/>
<path opacity="0.2" d="M174.027 223.69L270.53 209.905C273.429 209.491 275.311 206.823 274.732 203.947L265.451 157.822C264.872 154.946 262.053 152.95 259.153 153.364L162.651 167.15C159.751 167.564 157.87 170.232 158.449 173.108L167.73 219.233C168.308 222.108 171.127 224.104 174.027 223.69Z" fill="#407BFF"/>
<path d="M253.356 173.236L175.897 184.3C173.476 184.646 171.115 182.974 170.632 180.573C170.149 178.172 171.725 175.938 174.145 175.592L251.604 164.527C254.025 164.181 256.386 165.853 256.869 168.254C257.352 170.655 255.777 172.89 253.356 173.236ZM174.312 176.42C172.352 176.7 171.076 178.51 171.467 180.454C171.858 182.398 173.771 183.752 175.731 183.472L253.19 172.407C255.15 172.127 256.426 170.318 256.035 168.374C255.644 166.43 253.731 165.076 251.771 165.356L174.312 176.42Z" fill="white"/>
<path d="M256.196 187.349L178.737 198.414C176.316 198.76 173.955 197.088 173.472 194.687C172.989 192.286 174.565 190.052 176.985 189.706L254.444 178.641C256.865 178.295 259.226 179.967 259.709 182.368C260.192 184.769 258.616 187.003 256.196 187.349ZM177.151 190.534C175.191 190.814 173.915 192.623 174.306 194.567C174.697 196.511 176.61 197.865 178.57 197.585L256.029 186.52C257.989 186.24 259.265 184.431 258.874 182.487C258.483 180.543 256.57 179.189 254.61 179.469L177.151 190.534Z" fill="white"/>
<path d="M259.02 201.387L209.639 208.441C207.261 208.781 204.939 207.138 204.464 204.778C203.989 202.419 205.538 200.223 207.917 199.883L257.298 192.829C259.676 192.489 261.998 194.132 262.473 196.492C262.948 198.851 261.399 201.047 259.02 201.387ZM208.054 200.561C206.053 200.847 204.749 202.695 205.148 204.68C205.547 206.666 207.501 208.048 209.502 207.762L258.883 200.708C260.884 200.422 262.188 198.574 261.789 196.588C261.389 194.602 259.436 193.22 257.435 193.506L208.054 200.561Z" fill="white"/>
<path d="M266.091 176.139L268.791 175.097C269.806 174.705 270.949 174.828 271.857 175.427L276.103 178.227C277.801 179.346 278.851 181.219 278.922 183.251L278.966 184.509C274.606 186.544 268.395 185.531 268.395 185.531L266.593 185.439C264.988 185.356 263.796 184.096 263.855 182.544L263.992 178.97C264.039 177.734 264.874 176.608 266.091 176.139Z" fill="#FFC3BD"/>
<path d="M341.103 156.871L339.952 159.562C339.572 160.428 339.169 161.276 338.773 162.128C337.983 163.832 337.127 165.501 336.268 167.176C334.516 170.507 332.678 173.817 330.603 177.069C329.575 178.699 328.492 180.325 327.358 181.949C326.205 183.56 324.969 185.17 323.635 186.782C322.293 188.387 320.861 190.021 319.087 191.631C317.292 193.232 315.313 194.918 312.152 196.434L311.737 196.633C311.478 196.757 311.187 196.863 310.92 196.938C306.333 198.188 302.546 197.836 299.181 197.32C295.816 196.764 292.832 195.765 289.997 194.68C287.182 193.539 284.529 192.253 281.999 190.803C280.731 190.084 279.502 189.311 278.287 188.522C277.058 187.706 275.942 186.902 274.676 185.928C272.37 184.153 271.939 180.845 273.714 178.539C274.994 176.876 277.071 176.188 278.995 176.6L279.391 176.687L283.096 177.486C284.346 177.77 285.603 178.019 286.843 178.268C289.326 178.76 291.775 179.19 294.144 179.476C295.325 179.615 296.478 179.746 297.599 179.811C298.716 179.865 299.788 179.87 300.784 179.853C302.754 179.803 304.458 179.361 305.017 178.974L303.785 179.477C303.816 179.36 304.598 178.701 305.342 177.797C306.106 176.887 306.989 175.784 307.826 174.555C308.671 173.331 309.512 172.029 310.328 170.654C311.162 169.292 311.986 167.893 312.783 166.447C314.369 163.554 315.951 160.58 317.463 157.547L319.725 152.984L321.9 148.506L322.057 148.182C324.583 142.98 330.847 140.811 336.049 143.337C341.092 145.784 343.274 151.77 341.103 156.871Z" fill="#263238"/>
<path d="M104.906 315.297L103.795 314.859C109.505 300.335 103.948 275.881 98.0648 249.991C91.5668 221.392 84.8468 191.819 93.6588 174.477L94.7228 175.018C86.1078 191.975 92.7788 221.334 99.2308 249.725C105.155 275.801 110.752 300.43 104.906 315.297Z" fill="#407BFF"/>
<path d="M96.8249 171.821C96.8249 176.512 95.3379 178.084 93.5039 178.084C91.6699 178.084 90.1829 176.512 90.1829 171.821C90.1829 167.13 93.5039 161.098 93.5039 161.098C93.5039 161.098 96.8249 167.131 96.8249 171.821Z" fill="#407BFF"/>
<path d="M98.4188 197.984C95.2078 201.972 92.8668 202.291 91.3078 201.035C89.7478 199.779 89.5608 197.425 92.7718 193.436C95.9828 189.448 102.937 186.592 102.937 186.592C102.937 186.592 101.63 193.995 98.4188 197.984Z" fill="#407BFF"/>
<path d="M105.906 237.278C102.12 241.98 99.3609 242.356 97.5229 240.875C95.6839 239.395 95.4629 236.619 99.2489 231.917C103.035 227.215 111.232 223.849 111.232 223.849C111.232 223.849 109.691 232.577 105.906 237.278Z" fill="#407BFF"/>
<path d="M115.446 287.858C111.377 292.316 108.599 292.521 106.856 290.929C105.113 289.338 105.064 286.553 109.133 282.095C113.202 277.637 121.593 274.784 121.593 274.784C121.593 274.784 119.516 283.4 115.446 287.858Z" fill="#407BFF"/>
<path d="M87.8718 212.536C92.0318 215.521 92.4808 217.84 91.3128 219.467C90.1458 221.094 87.8048 221.412 83.6448 218.427C79.4848 215.442 76.2478 208.658 76.2478 208.658C76.2478 208.658 83.7118 209.551 87.8718 212.536Z" fill="#407BFF"/>
<path d="M97.1467 259.649C102.777 263.688 103.383 266.826 101.804 269.028C100.225 271.229 97.0567 271.66 91.4277 267.621C85.7977 263.582 81.4177 254.401 81.4177 254.401C81.4177 254.401 91.5167 255.61 97.1467 259.649Z" fill="#407BFF"/>
<path d="M92.7147 309.046L100.889 414.695C100.956 415.565 101.682 416.237 102.555 416.237H109.685C110.558 416.237 111.284 415.565 111.351 414.695L119.526 309.046C119.636 307.629 118.515 306.418 117.094 306.418H95.1477C93.7257 306.419 92.6047 307.629 92.7147 309.046Z" fill="#263238"/>
</g>
<defs>
<clipPath id="clip0_561_2844">
<rect width="500" height="500" fill="white" transform="translate(0.180908)"/>
</clipPath>
</defs>
</svg>
