<?xml version="1.0" encoding="UTF-8" standalone="no"?>
<!DOCTYPE svg PUBLIC "-//W3C//DTD SVG 1.1//EN" "http://www.w3.org/Graphics/SVG/1.1/DTD/svg11.dtd">
<svg width="60" height="60" viewBox="0 0 60 60" version="1.1" xmlns="http://www.w3.org/2000/svg" xmlns:xlink="http://www.w3.org/1999/xlink" xml:space="preserve" xmlns:serif="http://www.serif.com/" style="fill-rule:evenodd;clip-rule:evenodd;stroke-linejoin:round;stroke-miterlimit:2;">
    <g transform="matrix(1,0,0,1,-3.73003,0.159908)">
        <g transform="matrix(0.465863,0,0,0.465863,3.91478,0.0172972)">
            <path d="M55,27C49.514,27 45,31.514 45,37C45,42.486 49.514,47 55,47C60.486,47 65,42.486 65,37C65,31.514 60.486,27 55,27ZM55,43C51.708,43 49,40.292 49,37C49,33.708 51.708,31 55,31C58.292,31 61,33.708 61,37C61,40.292 58.292,43 55,43Z" style="fill:rgb(180,183,201);fill-rule:nonzero;"/>
        </g>
        <g transform="matrix(0.465863,0,0,0.465863,3.91478,0.0172972)">
            <circle cx="47" cy="70" r="2" style="fill:rgb(180,183,201);"/>
        </g>
        <g transform="matrix(0.465863,0,0,0.465863,3.91478,0.0172972)">
            <circle cx="63" cy="70" r="2" style="fill:rgb(180,183,201);"/>
        </g>
        <g transform="matrix(0.465863,0,0,0.465863,3.91478,0.0172972)">
            <circle cx="47" cy="122" r="2" style="fill:rgb(180,183,201);"/>
        </g>
        <g transform="matrix(0.465863,0,0,0.465863,3.91478,0.0172972)">
            <circle cx="63" cy="122" r="2" style="fill:rgb(180,183,201);"/>
        </g>
        <g transform="matrix(0.465863,0,0,0.465863,3.91478,0.0172972)">
            <path d="M88,66C74.834,66 64,76.834 64,90C64,103.166 74.834,114 88,114C101.166,114 112,103.166 112,90C112,76.834 101.166,66 88,66ZM103.48,102.65L101.67,100.84C101.295,100.465 100.786,100.254 100.255,100.254C99.157,100.254 98.254,101.157 98.254,102.255C98.254,102.786 98.465,103.295 98.84,103.67L100.65,105.48C97.614,107.972 93.908,109.51 90,109.9L90,107.33C90,106.233 89.097,105.33 88,105.33C86.903,105.33 86,106.233 86,107.33L86,109.9C82.092,109.51 78.386,107.972 75.35,105.48L77.16,103.67C77.535,103.295 77.746,102.786 77.746,102.255C77.746,101.157 76.843,100.254 75.745,100.254C75.214,100.254 74.705,100.465 74.33,100.84L72.52,102.65C70.029,99.614 68.491,95.908 68.1,92L70.66,92C71.757,92 72.66,91.097 72.66,90C72.66,88.903 71.757,88 70.66,88L68.1,88C68.491,84.092 70.029,80.386 72.52,77.35L74.33,79.16C74.705,79.535 75.214,79.746 75.745,79.746C76.843,79.746 77.746,78.843 77.746,77.745C77.746,77.214 77.535,76.705 77.16,76.33L75.35,74.52C78.386,72.028 82.092,70.49 86,70.1L86,72.67C86,73.767 86.903,74.67 88,74.67C89.097,74.67 90,73.767 90,72.67L90,70.1C93.908,70.491 97.614,72.029 100.65,74.52L98.84,76.33C98.465,76.705 98.254,77.214 98.254,77.745C98.254,78.843 99.157,79.746 100.255,79.746C100.786,79.746 101.295,79.535 101.67,79.16L103.48,77.35C105.971,80.386 107.509,84.092 107.9,88L105.33,88C104.233,88 103.33,88.903 103.33,90C103.33,91.097 104.233,92 105.33,92L107.89,92C107.503,95.907 105.968,99.613 103.48,102.65Z" style="fill:rgb(180,183,201);fill-rule:nonzero;"/>
        </g>
        <g transform="matrix(0.465863,0,0,0.465863,3.91478,0.0172972)">
            <path d="M26,46C27.097,46 28,45.097 28,44L28,22C28,20.903 27.097,20 26,20C24.903,20 24,20.903 24,22L24,44C24,45.097 24.903,46 26,46Z" style="fill:rgb(180,183,201);fill-rule:nonzero;"/>
        </g>
        <g transform="matrix(0.465863,0,0,0.465863,3.91478,0.0172972)">
            <path d="M18,46C19.097,46 20,45.097 20,44L20,34C20,32.903 19.097,32 18,32C16.903,32 16,32.903 16,34L16,44C16,45.097 16.903,46 18,46Z" style="fill:rgb(180,183,201);fill-rule:nonzero;"/>
        </g>
        <g transform="matrix(0.465863,0,0,0.465863,3.91478,0.0172972)">
            <path d="M84,46C85.097,46 86,45.097 86,44L86,22C86,20.903 85.097,20 84,20C82.903,20 82,20.903 82,22L82,44C82,45.097 82.903,46 84,46Z" style="fill:rgb(180,183,201);fill-rule:nonzero;"/>
        </g>
        <g transform="matrix(0.465863,0,0,0.465863,3.91478,0.0172972)">
            <path d="M92,46C93.097,46 94,45.097 94,44L94,34C94,32.903 93.097,32 92,32C90.903,32 90,32.903 90,34L90,44C90,45.097 90.903,46 92,46Z" style="fill:rgb(180,183,201);fill-rule:nonzero;"/>
        </g>
        <g transform="matrix(0.465863,0,0,0.465863,3.91478,0.0172972)">
            <path d="M63.36,103.26L63.22,103.01C62.87,102.36 62.55,101.69 62.22,101.01L42.79,101.01L42.23,96.01L60.65,96.01C60.36,94.692 60.167,93.356 60.07,92.01L57,92.01L57,53C57,51.903 56.097,51 55,51C53.903,51 53,51.903 53,53L53,92L49,92L49,78C49,76.903 48.097,76 47,76C45.903,76 45,76.903 45,78L45,92L38,92C36.903,92 36,91.097 36,90L36,35.82C36.332,31.378 37.47,27.034 39.36,23L70.65,23C72.534,27.035 73.67,31.379 74,35.82L74,65.77C75.281,65.029 76.618,64.39 78,63.86L78,55.86L83,62.42C84.552,62.142 86.124,61.995 87.7,61.98L78,49.32L78,35.61C76.42,13.09 56.88,0.81 56,0.3C55.382,-0.057 54.618,-0.057 54,0.3C53.12,0.81 33.58,13.09 32,35.61L32,49.32L16.41,69.64C16.143,69.99 15.999,70.419 16,70.86L16,94C16,96.63 17.29,97.53 18.07,97.83C18.411,97.964 18.774,98.031 19.14,98.03C20.339,97.96 21.453,97.381 22.2,96.44L32,86L32,90C32,93.292 34.708,96 38,96L38.21,96L39.01,103.22C39.122,104.229 39.985,105.001 41,105L45,105L45,113C45,114.097 45.903,115 47,115C48.097,115 49,114.097 49,113L49,105L53,105L53,126C53,127.097 53.903,128 55,128C56.097,128 57,127.097 57,126L57,105L61,105L61,113C61,114.097 61.903,115 63,115C64.097,115 65,114.097 65,113L65,105.94C64.74,105.57 64.51,105.19 64.27,104.81C64.03,104.43 63.65,103.79 63.36,103.26ZM68.54,19L57,19L57,5.93C61.574,9.586 65.479,14.008 68.54,19ZM53,5.94L53,19L41.48,19C44.54,14.016 48.437,9.598 53,5.94ZM20,92.94L20,71.54L32,55.89L32,80.12L20,92.94Z" style="fill:rgb(180,183,201);fill-rule:nonzero;"/>
        </g>
        <g transform="matrix(0.465863,0,0,0.465863,3.91478,0.0172972)">
            <path d="M61,78L61,82.6C61.621,80.339 62.524,78.165 63.69,76.13C63.469,76.049 63.235,76.007 63,76.007C61.906,76.007 61.004,76.906 61,78Z" style="fill:rgb(180,183,201);fill-rule:nonzero;"/>
        </g>
        <g transform="matrix(0.465863,0,0,0.465863,3.91478,0.0172972)">
            <path d="M98,88L90,88L90,82C90,80.903 89.097,80 88,80C86.903,80 86,80.903 86,82L86,90C86,91.097 86.903,92 88,92L98,92C99.097,92 100,91.097 100,90C100,88.903 99.097,88 98,88Z" style="fill:rgb(180,183,201);fill-rule:nonzero;"/>
        </g>
    </g>
</svg>
