<?xml version="1.0" encoding="UTF-8"?><svg xmlns="http://www.w3.org/2000/svg" viewBox="0 0 500 500"><defs><style>.m{fill:#f0f0f0;}.n,.o,.p{opacity:.7;}.q,.r,.s,.t,.u,.o,.v,.w,.x{fill:#fff;}.y{fill:#fafafa;}.a`,.t{opacity:.5;}.r,.aa{opacity:.4;}.ab,.x{opacity:.6;}.ac{fill:#f5f5f5;}.s,.ad{opacity:.3;}.ae{isolation:isolate;}.af,.v{stroke:#fafafa;stroke-miterlimit:10;}.af,.p,.ag{fill:#407bff;}.ah,.w,.ai{opacity:.2;}.aj{fill:#e0e0e0;}.u{opacity:.8;}.ak{fill:#e6e6e6;}.v{opacity:.9;}.al{mix-blend-mode:multiply;}.al,.am{opacity:.1;}.an{fill:#ebebeb;}.ao{fill:#ff8b7b;}.ai,.ap{fill:#263238;}.aq{fill:#ff5652;}.ar{fill:#ffc3bd;}.as{fill:#ed893e;}.at{fill:#1a2e35;}</style></defs><g class="ae"><g id="a"><g><rect class="an" x="416.78" y="398.49" width="33.12" height=".25"/><rect class="an" x="322.53" y="401.21" width="8.69" height=".25"/><rect class="an" x="396.59" y="389.21" width="19.19" height=".25"/><rect class="an" x="52.46" y="390.89" width="43.19" height=".25"/><rect class="an" x="104.56" y="390.89" width="6.33" height=".25"/><rect class="an" x="131.47" y="395.11" width="93.68" height=".25"/><path class="an" d="M237.01,337.8H43.92c-3.15,0-5.71-2.56-5.71-5.71V60.66c0-3.15,2.56-5.71,5.71-5.71H237.01c3.15,0,5.71,2.56,5.71,5.71V332.09c0,3.15-2.56,5.71-5.71,5.71ZM43.92,55.2c-3.01,0-5.46,2.45-5.46,5.46V332.09c0,3.01,2.45,5.46,5.46,5.46H237.01c3.01,0,5.46-2.45,5.46-5.46V60.66c0-3.01-2.45-5.46-5.46-5.46H43.92Z"/><path class="an" d="M453.31,337.8h-193.1c-3.15,0-5.71-2.56-5.71-5.71V60.66c0-3.15,2.56-5.71,5.71-5.71h193.1c3.15,0,5.71,2.56,5.71,5.71V332.09c0,3.15-2.56,5.71-5.71,5.71ZM260.21,55.2c-3.01,0-5.46,2.45-5.46,5.46V332.09c0,3.01,2.45,5.46,5.46,5.46h193.1c3.01,0,5.46-2.45,5.46-5.46V60.66c0-3.01-2.45-5.46-5.46-5.46h-193.1Z"/><rect class="an" y="382.4" width="500" height=".25"/></g><g><rect class="ak" x="88.31" y="136.56" width="103.5" height="245.67"/><rect class="m" x="92.71" y="141.01" width="94.7" height="241.22"/><g><polygon class="y" points="128.61 261.17 145.26 154.33 137.82 154.33 121.17 261.17 128.61 261.17"/><polygon class="y" points="153.11 261.17 180.75 261.17 180.75 154.33 169.76 154.33 153.11 261.17"/><polygon class="y" points="130.76 154.33 99.87 154.33 99.87 261.17 114.11 261.17 130.76 154.33"/></g><rect class="an" x="99.87" y="287.88" width="80.87" height="88.34"/><rect class="ak" x="99.87" y="265.14" width="6.9" height="17.99"/><rect class="aj" x="106.78" y="265.14" width="1.36" height="17.99" transform="translate(214.91 548.28) rotate(180)"/><circle class="aj" cx="101.59" cy="272.21" r="2.91"/><rect class="aj" x="102.44" y="277.25" width="1.5" height="3.64"/><path class="an" d="M103.09,272.21c0,2.25-1.82,4.07-4.07,4.07s-4.07-1.82-4.07-4.07,1.82-4.07,4.07-4.07,4.07,1.82,4.07,4.07Z"/></g><g><rect class="an" x="242.9" y="318.78" width="159.26" height="52.33"/><rect class="ak" x="245.66" y="374.66" width="10.01" height="7.56"/><rect class="ak" x="404.3" y="312.4" width="10.01" height="69.82"/><path class="ac" d="M401.75,312.4H240.32v69.82h5.34v-5.78h153.43v5.78h5.34v-69.82h-2.67Zm-156.1,9.34h74.04v45.36h-74.04v-45.36Zm79.38,0h74.04v45.36h-74.04v-45.36Z"/></g></g><g id="b"><ellipse id="c" class="ac" cx="245.18" cy="412.39" rx="193.89" ry="11.32"/></g><g id="d"><g><path class="ag" d="M339.1,323.64s-17.64-1.84-8.13-13.76c1.55-1.94,3.36-3.53,5.31-4.83,.08,3.08,.59,9.48,3.41,8.24,3.08-1.35,6.03-9.88,6.93-12.68,7.17-1.82,13.45-1.44,13.45-1.44,0,0,.29,3.78,.07,8.96-2.11,1.26-6.22,3.98-6.4,6.08-.19,2.21,3.92,1.68,5.74,1.35-.47,3.35-1.22,6.82-2.39,9.99-2.56-.74-6.45-1.56-7.63-.22-1.29,1.47,1.52,5.61,3.22,7.85-.88,.96-1.86,1.81-2.95,2.48-12.61,7.83-10.62-12.01-10.62-12.01Z"/><g class="ah"><path class="q" d="M340.58,322.15c1.64-8.47,10.95-15.54,17.41-20.1,.78-.55-.19-1.69-.97-1.13-6.83,4.82-16.19,12.2-17.92,21.1-.18,.95,1.31,1.07,1.49,.13h0Z"/></g><g><g><path class="ag" d="M339.09,365.63l.85-.06c-1.72-25.46,2.07-33.73,5.55-36.18,2.04-1.44,3.85-.69,3.87-.68l.34-.78c-.09-.04-2.27-.95-4.7,.76-3.66,2.58-7.65,11.08-5.91,36.94Z"/><path class="ag" d="M343.93,363.05c.84-21.65-2.91-29.73-6.21-32.7-2.06-1.85-3.84-1.61-3.92-1.6l.12,.85c.06,0,1.51-.17,3.27,1.43,3.14,2.87,6.71,10.74,5.88,31.99l.85,.03Z"/><path class="ag" d="M340.28,363.07l.85-.06c-.88-13.01,.72-20.75,4.64-22.39,5.11-2.14,12.75,6.42,12.83,6.5l.64-.57c-.33-.37-8.12-9.1-13.8-6.73-4.35,1.82-6.09,9.63-5.17,23.23Z"/><path class="ag" d="M342.44,363.89c0-8-1.65-12.93-4.94-14.66-3.7-1.95-7.97,.93-8.15,1.06l.48,.7s4.03-2.72,7.27-1c2.98,1.57,4.49,6.25,4.48,13.9h.85Z"/></g><g class="ah"><path d="M339.09,365.63l.85-.06c-1.72-25.46,2.07-33.73,5.55-36.18,2.04-1.44,3.85-.69,3.87-.68l.34-.78c-.09-.04-2.27-.95-4.7,.76-3.66,2.58-7.65,11.08-5.91,36.94Z"/><path d="M343.93,363.05c.84-21.65-2.91-29.73-6.21-32.7-2.06-1.85-3.84-1.61-3.92-1.6l.12,.85c.06,0,1.51-.17,3.27,1.43,3.14,2.87,6.71,10.74,5.88,31.99l.85,.03Z"/><path d="M340.28,363.07l.85-.06c-.88-13.01,.72-20.75,4.64-22.39,5.11-2.14,12.75,6.42,12.83,6.5l.64-.57c-.33-.37-8.12-9.1-13.8-6.73-4.35,1.82-6.09,9.63-5.17,23.23Z"/><path d="M342.44,363.89c0-8-1.65-12.93-4.94-14.66-3.7-1.95-7.97,.93-8.15,1.06l.48,.7s4.03-2.72,7.27-1c2.98,1.57,4.49,6.25,4.48,13.9h.85Z"/></g></g><path class="ap" d="M360.89,405.71l3.06-44.11h-41.64l3.06,44.11c.35,5,4.51,8.88,9.52,8.88h16.48c5.01,0,9.17-3.88,9.52-8.88Z"/><g><path class="ag" d="M347.83,328.15s-8.66-14.55,6.58-14.77c2.26-.03,4.42,.32,6.49,.9-1.96,1.35-5.18,3.82-3.54,4.44,1.72,.65,7.9-.59,10.89-1.26,7.84,4.65,12.9,11.63,12.9,11.63,0,0-4.08,3.92-9.84,7.86-1.52-1.51-3.82-3.41-5.12-2.66-1.31,.76-2.73,4.81-3.6,7.7-2.97,1.37-6.04,2.42-9.04,2.8,.08-2.32,.03-6.09-1.08-6.69-1.15-.61-5.16,3.25-7.43,5.59-11.64-5.03,2.8-15.55,2.8-15.55Z"/><path class="s" d="M347.83,328.15s-8.66-14.55,6.58-14.77c2.26-.03,4.42,.32,6.49,.9-1.96,1.35-5.18,3.82-3.54,4.44,1.72,.65,7.9-.59,10.89-1.26,7.84,4.65,12.9,11.63,12.9,11.63,0,0-4.08,3.92-9.84,7.86-1.52-1.51-3.82-3.41-5.12-2.66-1.31,.76-2.73,4.81-3.6,7.7-2.97,1.37-6.04,2.42-9.04,2.8,.08-2.32,.03-6.09-1.08-6.69-1.15-.61-5.16,3.25-7.43,5.59-11.64-5.03,2.8-15.55,2.8-15.55Z"/></g><g><path class="ag" d="M327.8,339.08c-1.85-.53-4.13,3.14-5.32,5.35-3.76-1.56-7.36-4.08-10.5-6.8,.85-1.87,1.81-4.44,1.2-5.43-.63-1.02-3.94-.21-6.3,.53-3.7-3.92-6.03-7.18-6.03-7.18,0,0,2.21-1.86,5.75-3.98,3.43,.39,8.27,.7,9.45-.48,1.26-1.26-1.43-2.18-3.33-2.65,3.02-1.29,6.43-2.36,10.02-2.8,.45,1.55,1.45,3.95,3.31,3.95,1.73,0,3.79-2.08,5.08-3.62,14.32,3.09,2.95,13.34,2.95,13.34,0,0,12.33,14.63-2.32,16.58-.78-2.52-2.22-6.32-3.96-6.82Z"/><path class="w" d="M327.8,339.08c-1.85-.53-4.13,3.14-5.32,5.35-3.76-1.56-7.36-4.08-10.5-6.8,.85-1.87,1.81-4.44,1.2-5.43-.63-1.02-3.94-.21-6.3,.53-3.7-3.92-6.03-7.18-6.03-7.18,0,0,2.21-1.86,5.75-3.98,3.43,.39,8.27,.7,9.45-.48,1.26-1.26-1.43-2.18-3.33-2.65,3.02-1.29,6.43-2.36,10.02-2.8,.45,1.55,1.45,3.95,3.31,3.95,1.73,0,3.79-2.08,5.08-3.62,14.32,3.09,2.95,13.34,2.95,13.34,0,0,12.33,14.63-2.32,16.58-.78-2.52-2.22-6.32-3.96-6.82Z"/></g><path class="ag" d="M311.53,349.2c1.74,.94,5.06,2.45,6.4,1.11,1.45-1.45-.71-6.97-1.71-9.29,1.63-1.97,3.52-3.56,5.73-4.54,13.57-6.02,8.96,13.47,8.96,13.47,0,0,17.13,4.13,6.08,14.63-.81,.77-1.66,1.45-2.55,2.07-.86-2.04-2.53-5.35-4.2-4.89-1.64,.45-1.03,4.79-.49,7.47-2.97,1.25-6.07,1.96-9.01,2.32-.4-1.9-1.15-4.42-2.37-4.35-1.29,.07-2.99,2.81-4.01,4.69-4.5-.06-7.66-.7-7.66-.7,0,0,.71-11.9,4.84-21.99Z"/><path class="ag" d="M357.51,345.8s9.18-15.17,15.91-1.5c1.1,2.22,1.76,4.54,2.11,6.87-2.82-1.24-8.83-3.51-8.91-.42-.09,3.36,6.37,9.67,8.52,11.67-1.4,7.27-4.43,12.78-4.43,12.78,0,0-3.54-1.34-8.13-3.75-.25-2.45-.95-7.32-2.77-8.38-1.91-1.12-3.19,2.83-3.66,4.62-2.83-1.85-5.65-4.01-8.01-6.42,1.76-2.01,4.17-5.17,3.45-6.81-.78-1.8-5.73-1.02-8.48-.43-.49-1.21-.84-2.45-.99-3.73-1.71-14.74,15.38-4.49,15.38-4.49Z"/><g class="ad"><path class="q" d="M350.08,328.58c8.42-3.58,19.1-1.68,27.41,.88,.92,.28,1.32-1.16,.4-1.44-8.8-2.71-19.73-4.49-28.56-.73-.88,.38-.12,1.66,.75,1.29h0Z"/></g><g class="ad"><path class="q" d="M304.13,326.74c8.55-1.45,18.75-1.63,26.5,2.65,.84,.46,1.6-.83,.75-1.29-8.15-4.49-18.69-4.32-27.66-2.8-.95,.16-.55,1.6,.4,1.44h0Z"/></g><g class="ah"><path class="q" d="M329.83,350.25c-10.09,1.09-17.73,10.45-21.73,18.94-.41,.87,.88,1.63,1.29,.75,3.74-7.94,10.91-17.17,20.44-18.2,.95-.1,.96-1.6,0-1.5h0Z"/></g><g class="ah"><path class="q" d="M358.23,347.77c6.96,5.09,9.39,16.52,10.77,24.31,.17,.95,1.61,.55,1.44-.4-1.45-8.23-4.13-19.85-11.45-25.21-.78-.57-1.52,.73-.75,1.29h0Z"/></g></g></g><g id="e"><g><rect class="ag" x="312.39" y="91.83" width="109.27" height="96.74" rx="8.54" ry="8.54"/><rect class="o" x="312.39" y="91.83" width="109.27" height="96.74" rx="8.54" ry="8.54"/><g><g><path class="ap" d="M373.73,114.83s-2.31,20.16,5.22,21.74c9.4,1.97,7.12-15.94,7.12-15.94l-7.12-10.34-5.22,4.55Z"/><path class="ab" d="M373.73,114.83s-2.31,20.16,5.22,21.74c9.4,1.97,7.12-15.94,7.12-15.94l-7.12-10.34-5.22,4.55Z"/></g><path class="ap" d="M397.16,119.79s11.42,8.12,6.54,14.56-12.98-2.65-13.15-7.71c-.16-5.06,6.61-6.85,6.61-6.85Z"/><path class="ar" d="M362.67,168.81l-6.89,.66s-7.95-3.26-10.55-2.49c-1.77,.53-4.33,4.54-3.83,6.32,.19,.66,1.77,1.19,2.45,1.25,.9,.08,2.55-1.98,3.44-2.06,1.21-.1,3.54,1.91,4.75,1.94,1.08,.02,4.28-.66,4.28-.66l8.12,.2-1.78-5.16Z"/><path class="ap" d="M359.88,168.54l1.64,5.89s11.88,1.62,16.55-.43c4.67-2.04,1.14-36.51-3.35-36.13-4.49,.38-2.02,19.45-2.02,25.44,0,4.58-12.82,5.24-12.82,5.24Z"/><path class="t" d="M359.88,168.54l1.64,5.89s11.88,1.62,16.55-.43c4.67-2.04,1.14-36.51-3.35-36.13-4.49,.38-2.02,19.45-2.02,25.44,0,4.58-12.82,5.24-12.82,5.24Z"/><path class="ap" d="M373.83,137.91c-4.5,6.44,5.84,16.54,6.06,50.67h33.39c.97-9.22,4.42-45.34-.39-52.16-5.53-7.83-34.77-4.64-39.06,1.49Z"/><path class="w" d="M373.83,137.91c-4.5,6.44,5.84,16.54,6.06,50.67h33.39c.97-9.22,4.42-45.34-.39-52.16-5.53-7.83-34.77-4.64-39.06,1.49Z"/><path class="ar" d="M383.69,128.86l6.7-7.28c.64,5.58,3.61,10.16,4.21,10.34l-.73,2.56c-8.12,9.13-9.99,.36-9.99,.36,1.98-1.66-.18-5.99-.18-5.99Z"/><path class="ar" d="M393.48,118.27c-.03,1.51-.63,2.96-1.68,4.05-1.39,1.41-2.98,.35-3.34-1.51-.32-1.69,.02-4.44,1.77-5.15,1.75-.7,3.26,.74,3.24,2.61Z"/><path class="ar" d="M385.89,169.95l-6.89,.66s-7.79-3.91-10.55-3.54c-1.78,.24-5.19,4.49-4.88,6.26,.12,.68,1.78,1.09,2.45,1.25,1.09,.26,4.5-2,4.5-2,0,0,3.47,2.84,4.75,2.99,1.07,.13,4.28-.66,4.28-.66l8.12,.2-1.78-5.16Z"/><path class="ap" d="M411.2,135.86c-2.22-1.51-4.59-.05-6.99,13.76-2.85,16.38-4.74,17.12-21.11,20.07l1.78,5.89s13.98,1.72,20.74-2.68c6.77-4.4,11.55-32.97,5.58-37.04Z"/><path class="t" d="M411.2,135.86c-2.22-1.51-4.59-.05-6.99,13.76-2.85,16.38-4.74,17.12-21.11,20.07l1.78,5.89s13.98,1.72,20.74-2.68c6.77-4.4,11.55-32.97,5.58-37.04Z"/><path class="ar" d="M387.26,139.59c5.44-.11,10.34-6.61,7.66-7.77-3.67,.13-7.39,.6-10.7,1.32-1.58,1.2-2.58,6.56,3.04,6.44Z"/><path class="ai" d="M387.7,124.5l3.12-.31s-.14,9.36-6.54,10.16c1.19-1.89-.6-5.49-.6-5.49l4.02-4.36Z"/><path class="ar" d="M389.48,113.58c1.45,6.62,2.64,10.4,.35,14.77-2.21,4.33-7.5,6.05-11.83,3.85-1.59-.81-2.9-2.09-3.75-3.66-3.04-5.38-4.91-15.29,.64-19.9,3.69-3.24,9.32-2.88,12.56,.82,1.03,1.17,1.73,2.6,2.04,4.13Z"/><path class="ap" d="M380.26,118.54c.16,.52,0,1.04-.36,1.12-.35,.08-.74-.23-.89-.75-.16-.52,0-1.05,.37-1.12,.36-.08,.74,.23,.88,.76Z"/><path class="ap" d="M374.36,120.45c.16,.52,0,1.04-.36,1.12-.36,.09-.74-.23-.9-.76-.16-.53,0-1.04,.37-1.12,.36-.09,.74,.23,.89,.76Z"/><path class="ap" d="M381.54,116.02c.05-.01,.1-.03,.14-.07,.11-.14,.08-.34-.05-.45h-.01c-.82-.65-1.9-.85-2.89-.53-.16,.06-.25,.25-.18,.41h0c.06,.17,.25,.26,.41,.19h0c.77-.24,1.61-.1,2.25,.39,.09,.08,.22,.1,.33,.04Z"/><path class="ap" d="M371.24,119.21c.1-.04,.17-.13,.18-.24,.12-.83,.61-1.56,1.34-1.97,.15-.1,.18-.31,.08-.45-.08-.11-.22-.17-.36-.13h0c-.92,.5-1.54,1.41-1.69,2.44-.03,.17,.08,.34,.26,.37h0c.06,.01,.12,0,.18-.02Z"/><path class="ap" d="M380.67,126.7c-.26,.16-.54,.3-.82,.41-.09,.04-.2,0-.24-.09h0c-.03-.1,.02-.21,.11-.24,1.46-.56,2.57-1.78,2.99-3.29,.02-.1,.11-.16,.21-.14,.1,.02,.16,.11,.14,.21-.34,1.33-1.2,2.47-2.39,3.15Z"/><path class="as" d="M376.41,120.1c-.16,1.82-.57,3.61-1.2,5.32,1.17,.57,2.64-.31,2.64-.31l-1.44-5.02Z"/><g><path class="ap" d="M373.57,119.67l-1.5,.04s1.05,.86,1.5-.04Z"/><path class="ap" d="M379.4,117.82l-1.5,.04s1.02,.82,1.5-.04Z"/></g><path class="ap" d="M382.98,108.78s-2.41,8.29-13.78,7.27c0,0-3.62-13.02,10.54-13.14,0,0,11.17-4.88,14.29,7.33,0,0,9.87,11.35,.56,15.39-6.92,3-11.61-16.84-11.61-16.84Z"/></g><g><path class="ap" d="M380.19,175.31h-53.25c-.8,0-1.45,.65-1.45,1.45s.65,1.45,1.45,1.45h53.25c.8,0,1.45-.65,1.45-1.45s-.65-1.45-1.45-1.45Z"/><path class="ap" d="M327.73,177.33h18.2c.47,0,.81-.47,.65-.92l-9.98-28.52c-.27-.79-1.02-1.31-1.85-1.31h-18.2c-.47,0-.81,.47-.65,.92l9.98,28.52c.27,.79,1.02,1.31,1.85,1.31Z"/><path class="ag" d="M326.85,177.33h18.2c.47,0,.81-.47,.65-.92l-9.98-28.52c-.28-.79-1.02-1.31-1.85-1.31h-18.2c-.47,0-.81,.47-.65,.92l9.98,28.52c.27,.79,1.02,1.31,1.85,1.31Z"/><path class="t" d="M329.91,163.91h2.3c.06,0,.1-.06,.08-.12l-1.26-3.61c-.03-.1-.13-.17-.23-.17h-2.3c-.06,0-.1,.06-.08,.12l1.26,3.61c.03,.1,.13,.17,.23,.17Z"/><path class="ag" d="M348.27,178.22c-.8,0-1.45-.65-1.45-1.45s.65-1.45,1.45-1.45h31.92c.8,0,1.45,.65,1.45,1.45s-.65,1.45-1.45,1.45h-31.92Z"/></g><path class="ag" d="M388.31,178.27h-75.92v1.76c0,.95,.16,1.87,.45,2.72h75.47c1.24,0,2.24-1,2.24-2.24s-1-2.24-2.24-2.24Z"/><path class="ag" d="M320.93,188.58h65.29v-5.82h-73.38c1.14,3.38,4.33,5.82,8.09,5.82Z"/><path class="x" d="M388.31,178.27h-75.92v1.76c0,.95,.16,1.87,.45,2.72h75.47c1.24,0,2.24-1,2.24-2.24s-1-2.24-2.24-2.24Z"/><path class="r" d="M320.93,188.58h65.29v-5.82h-73.38c1.14,3.38,4.33,5.82,8.09,5.82Z"/></g></g><g id="f"><g><path class="ap" d="M111.26,338.82h-11.76c-6.15,0-11.35-4.8-11.83-10.94l-2.14-27.13,4.46-.35,2.14,27.13c.3,3.82,3.54,6.81,7.37,6.81h11.76v4.48Z"/><g><path class="ag" d="M105.32,303.65c2.82-.29,4.88-2.81,4.59-5.63l-3.56-34.73c-.29-2.82-2.81-4.88-5.63-4.59h-34.01c-1.88,.19-3.25,1.88-3.06,3.76l3.9,38.13c.19,1.88,1.88,3.25,3.76,3.06h34.01Z"/><path class="ad" d="M105.32,303.65c2.82-.29,4.88-2.81,4.59-5.63l-3.56-34.73c-.29-2.82-2.81-4.88-5.63-4.59h-34.01c-1.88,.19-3.25,1.88-3.06,3.76l3.9,38.13c.19,1.88,1.88,3.25,3.76,3.06h34.01Z"/><path class="ag" d="M67.55,300.58l-3.9-38.13c-.19-1.88,1.18-3.57,3.06-3.76h0c2.82-.29,5.35,1.77,5.63,4.59l3.56,34.73c.29,2.82-1.77,5.35-4.59,5.63h0c-1.88,.19-3.57-1.18-3.76-3.06Z"/></g><path class="ap" d="M106.02,404.57l.31-.93c.39-1.18,1.49-1.98,2.74-1.98h31.8c1.35,0,2.53,.94,2.82,2.26l.08,.37c.28,1.28,1.42,2.2,2.73,2.2h0c1.79,0,3.12-1.65,2.73-3.4l-.08-.37c-.86-3.89-4.3-6.66-8.28-6.66h-31.8c-3.66,0-6.9,2.35-8.05,5.82l-.31,.93c-.6,1.81,.75,3.67,2.66,3.67h0c1.21,0,2.28-.77,2.66-1.92Z"/><rect class="n" x="119.79" y="396.07" width="9.84" height="5.59"/><path class="ap" d="M124.71,405.86h0c-1.54,0-2.8-1.25-2.8-2.8v-74.34h5.59v74.34c0,1.54-1.25,2.8-2.8,2.8Z"/><path class="ag" d="M128.62,410.93c0,2.16-1.75,3.92-3.92,3.92s-3.92-1.75-3.92-3.92,1.75-3.92,3.92-3.92,3.92,1.75,3.92,3.92Z"/><path class="ag" d="M104.48,410.93c0,2.16-1.75,3.92-3.92,3.92s-3.92-1.75-3.92-3.92,1.75-3.92,3.92-3.92,3.92,1.75,3.92,3.92Z"/><path class="ag" d="M153.2,410.93c0,2.16-1.75,3.92-3.92,3.92s-3.92-1.75-3.92-3.92,1.75-3.92,3.92-3.92,3.92,1.75,3.92,3.92Z"/><rect class="n" x="121.91" y="333.05" width="5.59" height="13.23"/><path class="ap" d="M142.86,339.42h-36.89c-3.09,0-5.77-2.15-6.44-5.17l-1.1-4.99h52.55l-1.86,5.64c-.89,2.7-3.41,4.52-6.26,4.52Z"/><path class="t" d="M142.86,339.42h-36.89c-3.09,0-5.77-2.15-6.44-5.17l-1.1-4.99h52.55l-1.86,5.64c-.89,2.7-3.41,4.52-6.26,4.52Z"/><path class="ag" d="M97.3,324.19h54.81c2.53,0,4.59,2.06,4.59,4.59v1.31c0,1.69-1.37,3.06-3.06,3.06h-57.86c-1.69,0-3.06-1.37-3.06-3.06v-1.31c0-2.53,2.06-4.59,4.59-4.59Z"/></g><g><g><path class="ao" d="M163.38,302.1s23.02-1.15,24.66,6.53c1.64,7.68-1.84,97.98-1.84,97.98l-7.25,.46s-12.56-72.36-6.38-84.76l-18.29,.25,9.1-20.45Z"/><path class="al" d="M187.58,366.01c-4.49-.05-9.53,.07-14.49,.27,.51,4.45,1.07,8.86,1.64,13.04,3.93-.75,8.22-1.78,12.54-3.15,.11-3.28,.21-6.69,.31-10.17Z"/><g><path class="ag" d="M187.95,406.35c-.08-.01-.14-.07-.16-.14-.02-.08,.01-.16,.08-.2,.12-.08,2.75-1.85,4.09-1.58,.25,.05,.47,.19,.62,.39,.19,.23,.22,.55,.07,.81-.29,.44-1.29,.7-2.27,.77-.81,.05-1.62,.04-2.42-.05Zm.59-.29c1.48,.08,3.46-.08,3.79-.62,.05-.07,.09-.18-.07-.41-.09-.13-.23-.22-.39-.23-.12-.02-.24-.03-.36-.02-1.06,.23-2.08,.67-2.98,1.28Z"/><path class="ag" d="M187.85,406.35c-.06-.03-.1-.1-.1-.16,0-.1,.06-2.24,1-3.14,.27-.26,.64-.41,1.02-.39,.52,.01,.7,.26,.73,.47,.23,.87-1.54,2.72-2.45,3.2-.02,.01-.05,.02-.08,.01-.04,.02-.09,.02-.13,0Zm1.82-3.33c-.24,.01-.46,.11-.63,.28-.54,.72-.84,1.59-.87,2.49,.93-.65,2.08-2.07,1.99-2.6-.02-.05-.05-.18-.39-.18l-.11,.02h0Z"/><path class="ap" d="M187.07,405.31l-8.59,.62c-.32,.02-.59,.27-.64,.59l-1.05,7.1c-.1,.63,.33,1.22,.96,1.32,.08,.01,.16,.02,.24,.01,3.09-.28,5.84-.65,9.69-.92,4.55-.33,3.44,.3,8.79-.01,3.23-.19,3.55-3.9,2.17-3.98-6.31-.33-7.1-2.18-9.68-4.24-.56-.39-1.24-.57-1.91-.49Z"/></g></g><g><path class="ao" d="M149.37,302.84s23.05,1.1,24.32,8.86c1.27,7.75-7.71,95.48-7.71,95.48l-7.26,.11s-9.06-72.88-2.29-84.97l-18.28-.63,11.22-18.85Z"/><path class="al" d="M168.69,379.71c.41-4.28,.84-8.82,1.26-13.45-5.49-.04-10.84,.03-15.12,.11,.33,4.88,.71,9.72,1.11,14.26,2.61-.05,7.21-.25,12.74-.92Z"/><g><path class="ag" d="M167.59,407.07c-.08-.01-.14-.07-.16-.15-.02-.08,.02-.16,.08-.2,.12-.07,2.82-1.73,4.15-1.41,.25,.06,.46,.21,.6,.42,.18,.23,.2,.56,.04,.81-.31,.43-1.32,.64-2.3,.67-.81,.02-1.62-.03-2.42-.15Zm.6-.27c1.47,.14,3.46,.06,3.81-.46,.05-.07,.1-.18-.05-.41-.08-.14-.22-.23-.37-.25-.12-.03-.24-.04-.36-.04-1.07,.19-2.1,.58-3.03,1.15Z"/><path class="ag" d="M167.49,407.07c-.06-.04-.09-.1-.09-.17,0-.1,.15-2.23,1.13-3.09,.28-.25,.65-.38,1.03-.35,.52,.04,.69,.29,.71,.5,.2,.88-1.65,2.65-2.58,3.1-.02,.01-.05,.02-.08,0-.04,.01-.09,.01-.13,0Zm1.96-3.25c-.24,0-.46,.1-.64,.25-.57,.7-.91,1.55-.97,2.45,.96-.61,2.16-1.98,2.1-2.52-.02-.05-.04-.18-.38-.2h-.11Z"/><path class="ap" d="M166.75,405.99l-8.61,.26c-.32,0-.6,.24-.66,.56l-1.34,7.05c-.12,.62,.28,1.23,.91,1.36,.08,.02,.16,.02,.24,.02,3.1-.15,5.86-.4,9.72-.52,4.56-.14,3.42,.44,8.79,.35,3.23-.06,3.71-3.75,2.34-3.89-6.3-.6-7-2.47-9.49-4.64-.54-.41-1.21-.62-1.89-.57Z"/></g></g><path class="ap" d="M99.36,286.52s-.54,3.51-2.22,8.35c-2.94,8.43-3.6,22.02,2.34,26.88,9.36,7.64,45.42-1.09,50.66,4.53,4.36,4.68,2.04,49.12,2.04,49.12,0,0,20.73-.76,38.75-3.63,0,0-2-11.6-1.12-33.85,.88-22.25,3.06-34.18-10.47-35.71-13.52-1.53-37.62-6.14-40.61-10.74-2.01-3.09-1.07-4.86-1.07-4.86l-38.31-.09Z"/><path class="a`" d="M179.44,373.31c-.83-3.98-1.87-13.89-.41-37.38,.94-15.12,4.12-31.09-8.97-31.09,0,0,7.2,1.25,7.2,9.1,0,6.76-3.56,48.54-4.55,60.06,2.18-.2,4.44-.43,6.73-.69Z"/><path class="a`" d="M138.51,291.09c-1.69-2.85-.83-4.48-.83-4.48l-38.31-.09s-.39,2.54-1.54,6.27c4.94,.43,15.17,1.12,21.52,.78,8.89-.48,20.47,2.49,20.47,2.49,0,0-4.1-3.02-1.3-4.98Z"/><path class="ap" d="M151.69,210.64s-2.47,6.13-.68,15.58c1.43,7.56-11.6,4.43-15.87,0-4.28-4.43,13.33-16.24,13.33-16.24l3.22,.66Z"/><path class="aa" d="M151.69,210.64s-2.47,6.13-.68,15.58c1.43,7.56-11.6,4.43-15.87,0-4.28-4.43,13.33-16.24,13.33-16.24l3.22,.66Z"/><path class="ao" d="M152.77,274.5l5.37,1.45s7.17-4.02,9.67-3.45c1.36,.31,3.43,2.57,4.92,4.41,.91,1.12,.35,2.8-1.05,3.16h0c-.34,.08-.69,.08-1.02-.02l-3.68-1.06s-4.12,1.83-5.73,1.93c-2.84,.18-10.64-1.99-10.64-1.99l2.16-4.43Z"/><g><path class="ag" d="M143.42,231.02c2.29,.36,6.78,2.83,1.94,23.12-.77,3.21-2.12,9.31-1.07,12.44,1.89,5.66,12.15,8.18,12.15,8.18l-1.16,5.74s-18.98-4.07-20.91-10.68c-1.87-6.4-1.16-40.4,9.06-38.8Z"/><path class="x" d="M143.42,231.02c2.29,.36,6.78,2.83,1.94,23.12-.77,3.21-2.12,9.31-1.07,12.44,1.89,5.66,12.15,8.18,12.15,8.18l-1.16,5.74s-18.98-4.07-20.91-10.68c-1.87-6.4-1.16-40.4,9.06-38.8Z"/></g><path class="ag" d="M98.12,288.38s17.46,2.94,39.99,0c0,0-1.41-8.52,1.33-22.68,.34-1.73,3.12-12,3.62-13.69,5.4-18.18,8.38-22.8-16.39-24.56-21.28-1.52-24.53,3.81-25.08,16.4-.55,12.58-3.47,44.53-3.47,44.53Z"/><path class="r" d="M98.12,288.38s17.46,2.94,39.99,0c0,0-1.41-8.52,1.33-22.68,.34-1.73,3.12-12,3.62-13.69,5.4-18.18,8.38-22.8-16.39-24.56-21.28-1.52-24.53,3.81-25.08,16.4-.55,12.58-3.47,44.53-3.47,44.53Z"/><path class="ao" d="M120.37,274.03l5.44,2.39s7.26-4.07,9.79-3.5c1.62,.37,4.68,4.73,4.68,4.73,.96,.97,.5,2.62-.82,2.95h0c-.3,.08-.62,.07-.91-.02l-3.78-1.09s-4.17,1.85-5.8,1.96c-2.87,.18-10.77-2.94-10.77-2.94l2.19-4.49Z"/><path class="ag" d="M123.37,226.63c-2.97,.78-4.75,2.88-3.6,10.92,0,0,2.26-2.81,4.69,0,2.42,2.81,6.75,7.42,6.75,7.42,0,0,3.67-3.32,5.97-6.2,2.3-2.88,3.65,.48,3.65,.48,0,0,1.93-8.99-2.83-11-4.31-1.82-11.04-2.55-14.62-1.61Z"/><path class="x" d="M123.37,226.63c-2.97,.78-4.75,2.88-3.6,10.92,0,0,2.26-2.81,4.69,0,2.42,2.81,6.75,7.42,6.75,7.42,0,0,3.67-3.32,5.97-6.2,2.3-2.88,3.65,.48,3.65,.48,0,0,1.93-8.99-2.83-11-4.31-1.82-11.04-2.55-14.62-1.61Z"/><path class="am" d="M101.6,243.85c-.31,6.98-1.34,19.91-2.2,30.05,40.99,16.51,15.13-2.21,15.13-2.21,0,0-8.2-5.59-4.36-19.02,3.85-13.43,2.68-21.77,2.68-21.77l-1.31-2.85c-7.91,1.93-9.56,7.15-9.94,15.8Z"/><g><path class="ag" d="M109.4,228.79c5.31-.28,6.99,1.87-.85,21.24-1.25,3.09-3.26,9.42-2.2,12.59,1.92,5.72,18.8,12.52,18.8,12.52l-2.48,5.73s-28.17-9.38-27.49-16.09c.69-6.71,5.48-35.53,14.21-35.99Z"/><path class="x" d="M109.4,228.79c5.31-.28,6.99,1.87-.85,21.24-1.25,3.09-3.26,9.42-2.2,12.59,1.92,5.72,18.8,12.52,18.8,12.52l-2.48,5.73s-28.17-9.38-27.49-16.09c.69-6.71,5.48-35.53,14.21-35.99Z"/></g><path class="ao" d="M131.61,242.77s10.86-9.33,6.72-13c-2.1-1.86-8.53-3.54-14.19-2.25-1.36,.31-2.6,4.32,7.47,15.25Z"/><path class="ao" d="M138.25,233.24c-.05-1.75-.36-2.97-.36-2.97-1-.51-2.73-2.4-.86-5.36l-6.06-10.64c-1.15,4.82-2.13,12.59-6.58,14.13,0,0-1.4,3.65,4.96,11.53l8.9-6.69Z"/><path class="ah" d="M130.97,214.27c-.38,1.61-.75,3.56-1.24,5.48,.17,2.52,1.28,7.35,7.05,9.52-.65-.93-.99-2.41,.25-4.36l-6.06-10.64Z"/><path class="ao" d="M129.75,205.14c-1.32,8.18-2.04,11.6,1.11,16.65,4.73,7.6,15.07,7.42,18.8-.19,3.35-6.86,4.94-19.13-2.26-24.06-5.11-3.58-12.15-2.34-15.73,2.77-1.01,1.44-1.67,3.09-1.92,4.83Z"/><path class="ap" d="M142.84,211.52c-.2,.64-.02,1.27,.39,1.41,.41,.14,.93-.28,1.14-.92,.21-.64,.02-1.27-.39-1.41-.41-.14-.91,.32-1.14,.92Z"/><path class="ap" d="M150.08,213.83c-.2,.65-.02,1.27,.39,1.41,.41,.14,.93-.28,1.14-.92,.21-.64,.02-1.27-.4-1.4-.42-.12-.92,.27-1.13,.91Z"/><path class="ap" d="M151.01,212.9l1.68,.04s-1.17,.96-1.68-.04Z"/><path class="aq" d="M147.47,214.29c.11,1.65,.45,3.27,1,4.83-.81,.26-1.7,.15-2.43-.3l1.43-4.53Z"/><path class="ap" d="M141.76,220.22c.3,.15,.61,.27,.92,.37,.1,.04,.21-.02,.25-.12h0c.03-.11-.04-.22-.14-.25-1.63-.48-2.93-1.71-3.51-3.3-.03-.11-.14-.17-.24-.14-.11,.03-.17,.14-.14,.24,.48,1.41,1.51,2.56,2.86,3.2Z"/><path class="ap" d="M140.38,209.14c.15,.08,.34,.05,.46-.07,1.02-.8,2.33-1.14,3.62-.94,.22,.04,.42-.11,.46-.32,.04-.21-.1-.41-.32-.45h-.01c-1.54-.26-3.12,.17-4.32,1.17-.15,.15-.14,.4,0,.55h0s.06,.06,.1,.07Z"/><path class="ap" d="M153.31,211.18c.13,.06,.28,.05,.4-.02,.18-.12,.23-.37,.12-.55-.67-1.11-1.84-1.81-3.13-1.87-.21,0-.38,.15-.39,.36,0,.01,0,.02,0,.03,0,.21,.17,.39,.39,.39h0c1,.08,1.91,.64,2.43,1.5,.04,.07,.1,.12,.18,.16Z"/><path class="ap" d="M143.74,210.64l1.68,.04s-1.15,.92-1.68-.04Z"/><path class="ap" d="M128.99,208.84s4.56,5.9,6.99,.62,11.86-7.34,10.06-10.4c0,0,3.86,2.36,6.32,6.13,.29,.44,.95,.22,.91-.3-.25-3.53-1.64-10.49-8.7-10.22,0,0-7.39-5.5-13.71-1.13-6.02,4.16-1.88,15.29-1.88,15.29Z"/><path class="ap" d="M142.55,194.49s-10.86-7.27-17.85,6.25c-6.99,13.52-17.16,16.41-11,24.43,6.15,8.02,17.5,6.21,17.56,1.9,.06-4.32-2.78-8.07-.94-13.93s12.23-18.64,12.23-18.64Z"/><path class="ao" d="M126.17,210.85c.18,1.56,.97,2.98,2.2,3.96,1.65,1.27,3.26,0,3.47-1.98,.17-1.78-.47-4.59-2.43-5.12-1.44-.34-2.88,.54-3.22,1.98-.09,.38-.1,.78-.02,1.16Z"/></g></g><g id="g"><g><g><path class="ap" d="M229.29,409.71l-19.62-5.39-2.46-118.86h-6.95l-2.46,118.86-19.62,5.39c-2.38,.65-4.03,2.82-4.03,5.29h59.17c0-2.47-1.65-4.63-4.03-5.29Z"/><path class="t" d="M229.29,409.71l-19.62-5.39-2.46-118.86h-6.95l-2.46,118.86-19.62,5.39c-2.38,.65-4.03,2.82-4.03,5.29h59.17c0-2.47-1.65-4.63-4.03-5.29Z"/><path class="w" d="M195.71,415v-3.17c0-.97,.48-1.87,1.28-2.42l6.74-4.6v-114.66h-1.98v114.66l-9.87,4.68c-1.02,.48-1.67,1.52-1.67,2.65v2.86h5.5Z"/></g><g><rect class="ap" x="136.26" y="288.12" width="150.62" height="4.06"/><rect class="s" x="136.26" y="288.12" width="150.62" height="4.06"/><rect class="ah" x="211.77" y="288.12" width="75.1" height="4.06"/><rect class="ap" x="127.17" y="284.06" width="168.79" height="4.06"/><rect class="ad" x="202.69" y="284.06" width="93.27" height="4.06"/></g></g></g><g id="h"><g><path class="ag" d="M330.16,260.32v-26.5h-.01v-4.89c0-6.84-5.57-12.41-12.41-12.41h-74.33c-6.84,0-12.41,5.57-12.41,12.41v42.16h3.27v-42.16c0-5.04,4.1-9.14,9.14-9.14h74.33c5.04,0,9.14,4.1,9.14,9.14v31.4h-3.87l5.52,8.96,5.52-8.96h-3.89Z"/><rect class="ag" x="187.38" y="270.57" width="213.56" height="3.27"/></g></g><g id="i"><g><path class="ag" d="M243.37,288.43h-25.3c-1.46,0-2.64-1.18-2.64-2.64v-35.99c0-1.46,1.18-2.64,2.64-2.64h29.22c1.46,0,2.64,1.18,2.64,2.64v35.99c0,1.46-1.18,2.64-2.64,2.64h-3.92Z"/><path class="u" d="M243.37,288.43h-25.3c-1.46,0-2.64-1.18-2.64-2.64v-35.99c0-1.46,1.18-2.64,2.64-2.64h29.22c1.46,0,2.64,1.18,2.64,2.64v35.99c0,1.46-1.18,2.64-2.64,2.64h-3.92Z"/><path class="ap" d="M247.29,247.16h-29.22c-1.46,0-2.64,1.18-2.64,2.64v3.89h34.5v-3.89c0-1.46-1.18-2.64-2.64-2.64Z"/><circle class="ag" cx="246.01" cy="250.59" r="1.1"/><circle class="ag" cx="241.62" cy="250.59" r="1.1"/><circle class="ag" cx="237.24" cy="250.59" r="1.1"/><g><path class="ap" d="M229.69,260.31l-3.87,1.42,3.87,1.4v1.45l-5.52-2.1v-1.51l5.52-2.1v1.44Z"/><path class="ap" d="M233.85,256.02h1.61l-3.83,10.93h-1.61l3.83-10.93Z"/><path class="ap" d="M241.19,260.98v1.51l-5.52,2.1v-1.45l3.86-1.4-3.86-1.42v-1.44l5.52,2.1Z"/></g><g><rect class="ap" x="218.5" y="270.69" width="7.74" height="1.72" rx=".79" ry=".79"/><rect class="ap" x="227.77" y="270.69" width="9.67" height="1.72" rx=".79" ry=".79"/><rect class="ap" x="238.98" y="270.69" width="7.87" height="1.72" rx=".79" ry=".79"/><rect class="ap" x="218.5" y="274.97" width="8.38" height="1.72" rx=".79" ry=".79"/><rect class="ap" x="228.42" y="274.97" width="10.32" height="1.72" rx=".79" ry=".79"/><rect class="ap" x="240.27" y="274.97" width="6.58" height="1.72" rx=".79" ry=".79"/><rect class="ap" x="218.5" y="279.24" width="7.09" height="1.72" rx=".79" ry=".79"/><rect class="ap" x="227.13" y="279.24" width="9.67" height="1.72" rx=".79" ry=".79"/><rect class="ap" x="238.33" y="279.24" width="8.52" height="1.72" rx=".79" ry=".79"/><rect class="ap" x="218.5" y="283.51" width="9.67" height="1.72" rx=".79" ry=".79"/><rect class="ap" x="229.71" y="283.51" width="9.03" height="1.72" rx=".79" ry=".79"/><rect class="ap" x="240.27" y="283.51" width="6.58" height="1.72" rx=".79" ry=".79"/></g></g><g><path class="ag" d="M339.46,235.88h-25.3c-1.46,0-2.64-1.18-2.64-2.64v-35.99c0-1.46,1.18-2.64,2.64-2.64h29.22c1.46,0,2.64,1.18,2.64,2.64v35.99c0,1.46-1.18,2.64-2.64,2.64h-3.92Z"/><path class="u" d="M339.46,235.88h-25.3c-1.46,0-2.64-1.18-2.64-2.64v-35.99c0-1.46,1.18-2.64,2.64-2.64h29.22c1.46,0,2.64,1.18,2.64,2.64v35.99c0,1.46-1.18,2.64-2.64,2.64h-3.92Z"/><path class="ap" d="M343.38,194.61h-29.22c-1.46,0-2.64,1.18-2.64,2.64v3.89h34.5v-3.89c0-1.46-1.18-2.64-2.64-2.64Z"/><circle class="ag" cx="342.1" cy="198.05" r="1.1"/><circle class="ag" cx="337.72" cy="198.05" r="1.1"/><circle class="ag" cx="333.33" cy="198.05" r="1.1"/><g><path class="ap" d="M325.79,207.77l-3.87,1.42,3.87,1.4v1.45l-5.52-2.1v-1.51l5.52-2.1v1.44Z"/><path class="ap" d="M329.94,203.47h1.61l-3.83,10.93h-1.61l3.83-10.93Z"/><path class="ap" d="M337.29,208.43v1.51l-5.52,2.1v-1.45l3.86-1.4-3.86-1.42v-1.44l5.52,2.1Z"/></g><g><rect class="ap" x="314.6" y="218.15" width="7.74" height="1.72" rx=".79" ry=".79"/><rect class="ap" x="323.87" y="218.15" width="9.67" height="1.72" rx=".79" ry=".79"/><path class="ap" d="M335.86,218.15h6.29c.44,0,.79,.35,.79,.79v.14c0,.44-.35,.79-.79,.79h-6.29c-.44,0-.79-.35-.79-.79v-.14c0-.44,.35-.79,.79-.79Z"/><rect class="ap" x="314.6" y="222.42" width="8.38" height="1.72" rx=".79" ry=".79"/><rect class="ap" x="324.51" y="222.42" width="10.32" height="1.72" rx=".79" ry=".79"/><rect class="ap" x="336.36" y="222.42" width="6.58" height="1.72" rx=".79" ry=".79"/><rect class="ap" x="314.6" y="226.69" width="7.09" height="1.72" rx=".79" ry=".79"/><rect class="ap" x="323.22" y="226.69" width="9.67" height="1.72" rx=".79" ry=".79"/><rect class="ap" x="334.42" y="226.69" width="8.52" height="1.72" rx=".79" ry=".79"/><path class="ap" d="M315.39,230.96h8.09c.44,0,.79,.35,.79,.79v.14c0,.44-.35,.79-.79,.79h-8.09c-.44,0-.79-.35-.79-.79v-.14c0-.44,.35-.79,.79-.79Z"/><rect class="ap" x="325.8" y="230.96" width="9.03" height="1.72" rx=".79" ry=".79"/><path class="ap" d="M337.15,230.96h5c.44,0,.79,.35,.79,.79v.14c0,.44-.35,.79-.79,.79h-5c-.44,0-.79-.35-.79-.79v-.14c0-.44,.35-.79,.79-.79Z"/></g></g><g><path class="ag" d="M408.64,288.43h-25.3c-1.46,0-2.64-1.18-2.64-2.64v-35.99c0-1.46,1.18-2.64,2.64-2.64h29.22c1.46,0,2.64,1.18,2.64,2.64v35.99c0,1.46-1.18,2.64-2.64,2.64h-3.92Z"/><path class="u" d="M408.64,288.43h-25.3c-1.46,0-2.64-1.18-2.64-2.64v-35.99c0-1.46,1.18-2.64,2.64-2.64h29.22c1.46,0,2.64,1.18,2.64,2.64v35.99c0,1.46-1.18,2.64-2.64,2.64h-3.92Z"/><path class="ap" d="M412.56,247.16h-29.22c-1.46,0-2.64,1.18-2.64,2.64v3.89h34.5v-3.89c0-1.46-1.18-2.64-2.64-2.64Z"/><circle class="ag" cx="411.28" cy="250.59" r="1.1"/><circle class="ag" cx="406.9" cy="250.59" r="1.1"/><circle class="ag" cx="402.51" cy="250.59" r="1.1"/><g><path class="ap" d="M394.97,260.31l-3.87,1.42,3.87,1.4v1.45l-5.52-2.1v-1.51l5.52-2.1v1.44Z"/><path class="ap" d="M399.12,256.02h1.61l-3.83,10.93h-1.61l3.83-10.93Z"/><path class="ap" d="M406.47,260.98v1.51l-5.52,2.1v-1.45l3.86-1.4-3.86-1.42v-1.44l5.52,2.1Z"/></g><g><path class="ap" d="M384.57,270.69h6.16c.44,0,.79,.35,.79,.79v.14c0,.44-.35,.79-.79,.79h-6.16c-.44,0-.79-.35-.79-.79v-.14c0-.44,.35-.79,.79-.79Z"/><rect class="ap" x="393.05" y="270.69" width="9.67" height="1.72" rx=".79" ry=".79"/><rect class="ap" x="404.25" y="270.69" width="7.87" height="1.72" rx=".79" ry=".79"/><path class="ap" d="M384.57,274.97h6.8c.44,0,.79,.35,.79,.79v.14c0,.44-.35,.79-.79,.79h-6.8c-.44,0-.79-.35-.79-.79v-.14c0-.44,.35-.79,.79-.79Z"/><rect class="ap" x="393.69" y="274.97" width="10.32" height="1.72" rx=".79" ry=".79"/><rect class="ap" x="405.54" y="274.97" width="6.58" height="1.72" rx=".79" ry=".79"/><path class="ap" d="M384.57,279.24h5.51c.44,0,.79,.35,.79,.79v.14c0,.44-.35,.79-.79,.79h-5.51c-.44,0-.79-.35-.79-.79v-.14c0-.44,.35-.79,.79-.79Z"/><rect class="ap" x="392.4" y="279.24" width="9.67" height="1.72" rx=".79" ry=".79"/><rect class="ap" x="403.61" y="279.24" width="8.52" height="1.72" rx=".79" ry=".79"/><path class="ap" d="M384.57,283.51h8.09c.44,0,.79,.35,.79,.79v.14c0,.44-.35,.79-.79,.79h-8.09c-.44,0-.79-.35-.79-.79v-.14c0-.44,.35-.79,.79-.79Z"/><rect class="ap" x="394.98" y="283.51" width="9.03" height="1.72" rx=".79" ry=".79"/><rect class="ap" x="405.54" y="283.51" width="6.58" height="1.72" rx=".79" ry=".79"/></g></g><g><g><path class="ag" d="M296.37,288.43h-25.3c-1.46,0-2.64-1.18-2.64-2.64v-35.99c0-1.46,1.18-2.64,2.64-2.64h29.22c1.46,0,2.64,1.18,2.64,2.64v35.99c0,1.46-1.18,2.64-2.64,2.64h-3.92Z"/><path class="u" d="M296.37,288.43h-25.3c-1.46,0-2.64-1.18-2.64-2.64v-35.99c0-1.46,1.18-2.64,2.64-2.64h29.22c1.46,0,2.64,1.18,2.64,2.64v35.99c0,1.46-1.18,2.64-2.64,2.64h-3.92Z"/><path class="ap" d="M300.29,247.16h-29.22c-1.46,0-2.64,1.18-2.64,2.64v3.89h34.5v-3.89c0-1.46-1.18-2.64-2.64-2.64Z"/><circle class="ag" cx="299.01" cy="250.59" r="1.1"/><circle class="ag" cx="294.63" cy="250.59" r="1.1"/><circle class="ag" cx="290.24" cy="250.59" r="1.1"/><g><path class="ap" d="M282.7,260.31l-3.87,1.42,3.87,1.4v1.45l-5.52-2.1v-1.51l5.52-2.1v1.44Z"/><path class="ap" d="M286.85,256.02h1.61l-3.83,10.93h-1.61l3.83-10.93Z"/><path class="ap" d="M294.2,260.98v1.51l-5.52,2.1v-1.45l3.86-1.4-3.86-1.42v-1.44l5.52,2.1Z"/></g></g><g><rect class="ap" x="271.51" y="270.69" width="9.67" height="1.72" rx=".79" ry=".79"/><rect class="ap" x="282.71" y="270.69" width="9.67" height="1.72" rx=".79" ry=".79"/><rect class="ap" x="293.92" y="270.69" width="5.94" height="1.72" rx=".79" ry=".79"/><rect class="ap" x="271.51" y="274.97" width="7.74" height="1.72" rx=".79" ry=".79"/><rect class="ap" x="280.78" y="274.97" width="10.32" height="1.72" rx=".79" ry=".79"/><rect class="ap" x="292.63" y="274.97" width="7.23" height="1.72" rx=".79" ry=".79"/><rect class="ap" x="271.51" y="279.24" width="9.67" height="1.72" rx=".79" ry=".79"/><rect class="ap" x="282.71" y="279.24" width="9.67" height="1.72" rx=".79" ry=".79"/><rect class="ap" x="293.92" y="279.24" width="5.94" height="1.72" rx=".79" ry=".79"/><rect class="ap" x="271.51" y="283.51" width="6.45" height="1.72" rx=".79" ry=".79"/><rect class="ap" x="279.49" y="283.51" width="10.96" height="1.72" rx=".79" ry=".79"/><path class="ap" d="M292.77,283.51h6.29c.44,0,.79,.35,.79,.79v.14c0,.44-.35,.79-.79,.79h-6.29c-.44,0-.79-.35-.79-.79v-.14c0-.44,.35-.79,.79-.79Z"/></g></g><g><circle class="ap" cx="360.63" cy="272.21" r="8.93"/><path class="ag" d="M359.83,277.55l-5.55-5.55c-.42-.42-.42-1.1,0-1.52h0c.42-.42,1.1-.42,1.52,0l4.03,4.03,9.58-9.58c.42-.42,1.1-.42,1.52,0h0c.42,.42,.42,1.1,0,1.52l-11.1,11.1Z"/><g class="a`"><path class="q" d="M359.83,277.55l-5.55-5.55c-.42-.42-.42-1.1,0-1.52h0c.42-.42,1.1-.42,1.52,0l4.03,4.03,9.58-9.58c.42-.42,1.1-.42,1.52,0h0c.42,.42,.42,1.1,0,1.52l-11.1,11.1Z"/></g></g><g><g><circle class="ap" cx="360.63" cy="218.15" r="8.93"/><path class="ag" d="M366.06,212.71h0c-.42-.42-1.1-.42-1.52,0l-3.91,3.91-3.91-3.91c-.42-.42-1.1-.42-1.52,0h0c-.42,.42-.42,1.1,0,1.52l3.91,3.91-3.91,3.91c-.42,.42-.42,1.1,0,1.52h0c.42,.42,1.1,.42,1.52,0l3.91-3.91,3.91,3.91c.42,.42,1.1,.42,1.52,0h0c.42-.42,.42-1.1,0-1.52l-3.91-3.91,3.91-3.91c.42-.42,.42-1.1,0-1.52Z"/><path class="t" d="M366.06,212.71h0c-.42-.42-1.1-.42-1.52,0l-3.91,3.91-3.91-3.91c-.42-.42-1.1-.42-1.52,0h0c-.42,.42-.42,1.1,0,1.52l3.91,3.91-3.91,3.91c-.42,.42-.42,1.1,0,1.52h0c.42,.42,1.1,.42,1.52,0l3.91-3.91,3.91,3.91c.42,.42,1.1,.42,1.52,0h0c.42-.42,.42-1.1,0-1.52l-3.91-3.91,3.91-3.91c.42-.42,.42-1.1,0-1.52Z"/></g><path class="ap" d="M356.03,219.24h-10.26c-.6,0-1.09-.49-1.09-1.09h0c0-.6,.49-1.09,1.09-1.09h10.26v2.18Z"/></g></g><g id="j"><path class="p" d="M182.93,81.63c0-7.09,5.75-12.84,12.84-12.84,1.28,0,2.52,.19,3.69,.54-.19-1.29-.29-2.6-.29-3.94,0-15.01,12.17-27.18,27.18-27.18,1.71,0,3.38,.17,5.01,.47,4.18-6.84,11.69-11.42,20.29-11.42,13.02,0,23.57,10.46,23.77,23.43,.13,0,.26-.02,.4-.02,12.09,0,21.9,9.8,21.9,21.9s-9.8,21.9-21.9,21.9h-80.41l.02-.02c-6.92-.19-12.47-5.85-12.47-12.82Z"/></g><g id="k"><g><g><path class="at" d="M128.23,280.97h60.32c.81,0,1.47,.66,1.47,1.47s-.66,1.47-1.47,1.47h-60.32c-.81,0-1.47-.66-1.47-1.47s.66-1.47,1.47-1.47Z"/><path class="at" d="M187.75,283.01h-24.97c-.48,0-.81-.47-.66-.92l10.07-28.76c.28-.79,1.02-1.32,1.86-1.32h24.97c.48,0,.81,.47,.66,.92l-10.07,28.76c-.28,.79-1.03,1.32-1.86,1.32Z"/><g><path class="at" d="M188.64,283.01h-24.97c-.48,0-.81-.47-.66-.92l10.07-28.76c.28-.79,1.03-1.32,1.86-1.32h24.97c.48,0,.81,.47,.66,.92l-10.07,28.76c-.28,.79-1.03,1.32-1.86,1.32Z"/><path class="o" d="M188.64,283.01h-24.97c-.48,0-.81-.47-.66-.92l10.07-28.76c.28-.79,1.03-1.32,1.86-1.32h24.97c.48,0,.81,.47,.66,.92l-10.07,28.76c-.28,.79-1.03,1.32-1.86,1.32Z"/></g><path class="o" d="M160.42,283.9c.81,0,1.47-.66,1.47-1.47s-.66-1.47-1.47-1.47h-32.19c-.81,0-1.47,.66-1.47,1.47s.66,1.47,1.47,1.47h32.19Z"/></g><polygon class="ag" points="192.18 253.19 199.12 253.19 198.54 254.86 191.6 254.86 192.18 253.19"/></g></g><g id="l"><g><circle class="af" cx="246.01" cy="116.05" r="41.48"/><g class="ad"><circle class="q" cx="246.01" cy="116.05" r="41.48"/><path class="y" d="M246.01,159.03c-23.7,0-42.98-19.28-42.98-42.98s19.28-42.98,42.98-42.98,42.98,19.28,42.98,42.98-19.28,42.98-42.98,42.98Zm0-82.97c-22.05,0-39.98,17.94-39.98,39.98s17.94,39.98,39.98,39.98,39.98-17.94,39.98-39.98-17.94-39.98-39.98-39.98Z"/></g><path class="v" d="M233.22,127.9v-22.37c3.34-1.13,5.75-4.28,5.75-7.99,0-4.65-3.79-8.44-8.44-8.44s-8.44,3.79-8.44,8.44c0,3.71,2.41,6.87,5.75,7.99v22.37c-3.34,1.13-5.75,4.28-5.75,7.99,0,4.65,3.79,8.44,8.44,8.44s8.44-3.79,8.44-8.44c0-3.71-2.41-6.87-5.75-7.99Zm-2.69-33.44c1.69,0,3.07,1.38,3.07,3.07s-1.38,3.07-3.07,3.07-3.07-1.38-3.07-3.07,1.38-3.07,3.07-3.07Zm0,44.5c-1.69,0-3.07-1.38-3.07-3.07s1.38-3.07,3.07-3.07,3.07,1.38,3.07,3.07-1.38,3.07-3.07,3.07Z"/><path class="v" d="M268,127.9v-21.94c0-6.13-4.99-11.12-11.12-11.12h-7.98v-4.4l-7.08,7.08,7.08,7.08v-4.4h7.98c3.17,0,5.75,2.58,5.75,5.75v21.94c-3.34,1.13-5.75,4.28-5.75,7.99,0,4.65,3.79,8.44,8.44,8.44s8.44-3.79,8.44-8.44c0-3.71-2.41-6.87-5.75-7.99Zm-2.69,11.06c-1.69,0-3.07-1.38-3.07-3.07s1.38-3.07,3.07-3.07,3.07,1.38,3.07,3.07-1.38,3.07-3.07,3.07Z"/></g></g></g></svg>