<?xml version="1.0" encoding="UTF-8" standalone="no"?><!DOCTYPE svg PUBLIC "-//W3C//DTD SVG 1.1//EN" "http://www.w3.org/Graphics/SVG/1.1/DTD/svg11.dtd"><svg width="100%" height="100%" viewBox="0 0 86 86" version="1.1" xmlns="http://www.w3.org/2000/svg" xmlns:xlink="http://www.w3.org/1999/xlink" xml:space="preserve" xmlns:serif="http://www.serif.com/" style="fill-rule:evenodd;clip-rule:evenodd;stroke-linejoin:round;stroke-miterlimit:2;"><rect id="Artboard1" x="0" y="0" width="85.312" height="85.312" style="fill:none;"/><path d="M63.113,59.198c11.816,-0 21.363,-9.637 21.363,-21.363c0,-11.816 -9.636,-21.363 -21.363,-21.363l-0.636,-0c-5,-6.637 -12.91,-10.547 -21.184,-10.547c-11.816,-0 -22.184,7.726 -25.547,19c-8.453,1.09 -14.91,8.453 -14.91,17.09c-0,9.453 7.726,17.184 17.184,17.184l6.636,-0c0.727,-0 1.364,-0.637 1.364,-1.364c-0,-0.726 -0.637,-1.363 -1.364,-1.363l-6.547,0c-8,0 -14.453,-6.547 -14.453,-14.453c0,-7.547 5.911,-13.91 13.363,-14.453c0.547,0 1.09,-0.453 1.184,-1c2.727,-10.547 12.273,-17.91 23.184,-17.91c7.637,0 14.91,3.727 19.363,9.91c0.273,0.364 0.637,0.547 1.09,0.547l1.273,0c10.273,0 18.637,8.363 18.637,18.637c0,10.273 -8.363,18.637 -18.637,18.637l-14.09,-0.004c-4.183,0 -7.547,3.364 -7.547,7.547l0,4.547l-1,0c-1.636,0 -3,1.363 -3,3l0,4.91c0,1.637 1.364,3 3,3l4.911,0c1.636,0 3,-1.363 3,-3l-0,-4.91c-0,-1.637 -1.364,-3 -3,-3l-1.184,0l-0,-4.547c-0,-2.637 2.184,-4.816 4.816,-4.816l2.004,-0.004l0,4.637c0,4.183 3.364,7.546 7.547,7.546l5.817,0l-0,1.817c-0,1.09 0.546,2.09 1.453,2.547c0.453,0.273 1,0.363 1.453,0.363c0.453,0 1,-0.09 1.453,-0.363l5.637,-3.274c0.91,-0.547 1.453,-1.547 1.453,-2.547c-0,-1.089 -0.547,-2.089 -1.453,-2.546l-5.637,-3.274c-0.91,-0.547 -2.09,-0.547 -3,0c-0.91,0.547 -1.453,1.547 -1.453,2.547l-0,2l-5.817,0c-2.636,0 -4.816,-2.184 -4.816,-4.816l-0,-4.637l9.453,-0l0,0.088Zm-22.726,-9.411c0,-3.184 -2.547,-5.727 -5.726,-5.727c-3.184,0 -5.727,2.547 -5.727,5.727c0,2.637 1.817,4.91 4.363,5.547l0,9.727c0,2.636 -2.183,4.816 -4.816,4.816l-9.73,-0c-0.637,-2.453 -2.817,-4.363 -5.547,-4.363c-3.184,-0 -5.727,2.547 -5.727,5.726c0,3.184 2.547,5.727 5.727,5.727c2.636,-0 4.91,-1.817 5.547,-4.363l9.726,-0c4.184,-0 7.547,-3.364 7.547,-7.547l0,-9.723c2.543,-0.637 4.363,-2.82 4.363,-5.547Zm5.269,21.864l0,4.91c0,0.183 -0.183,0.273 -0.273,0.273l-4.91,0c-0.184,0 -0.274,-0.183 -0.274,-0.273l0,-4.91c0,-0.184 0.184,-0.274 0.274,-0.274l4.91,0c0.094,0.004 0.273,0.094 0.273,0.274Zm-32.453,2.589c-1.636,0 -3,-1.363 -3,-3c0,-1.637 1.364,-3 3,-3c1.637,0 3,1.363 3,3c0,1.637 -1.363,3 -3,3Zm53.91,-7.495c0,-0.09 0,-0.184 0.09,-0.184l0.18,-0l5.637,3.273c0.089,0.09 0.089,0.09 0.089,0.184c0,0.09 0,0.183 -0.089,0.183l-5.637,3.274c-0.09,0.09 -0.184,0.09 -0.274,-0c-0.089,-0.09 -0.089,-0.09 -0.089,-0.184l0.003,-6.547l0.09,0.001Zm-35.457,-16.958c0,-1.637 1.364,-3 3,-3c1.637,0 3,1.363 3,3c0,1.637 -1.363,3 -3,3c-1.632,0 -3,-1.363 -3,-3Z" style="fill:url(#_Linear1);fill-rule:nonzero;"/><defs><linearGradient id="_Linear1" x1="0" y1="0" x2="1" y2="0" gradientUnits="userSpaceOnUse" gradientTransform="matrix(83.6423,0,0,62.5338,0.835851,42.8329)"><stop offset="0" style="stop-color:#1685ff;stop-opacity:1"/><stop offset="0.5" style="stop-color:#8b5cf6;stop-opacity:1"/><stop offset="1" style="stop-color:#d946ef;stop-opacity:1"/></linearGradient></defs></svg>