<?xml version="1.0" encoding="UTF-8" standalone="no"?><!DOCTYPE svg PUBLIC "-//W3C//DTD SVG 1.1//EN" "http://www.w3.org/Graphics/SVG/1.1/DTD/svg11.dtd"><svg width="100%" height="100%" viewBox="0 0 200 200" version="1.1" xmlns="http://www.w3.org/2000/svg" xmlns:xlink="http://www.w3.org/1999/xlink" xml:space="preserve" xmlns:serif="http://www.serif.com/" style="fill-rule:evenodd;clip-rule:evenodd;stroke-linejoin:round;stroke-miterlimit:2;"><g id="Layer5"><path d="M194.493,168.867l-5.204,0l0,-76.081c0,-5.844 -4.754,-10.597 -10.598,-10.597l-35.657,0l-1.482,-2.354c5.127,-3.461 6.885,-10.152 4.254,-15.64c9.736,-3.992 20.873,-5.898 33.265,-5.708c2.613,0.042 5.261,0.17 7.874,0.383c0.942,0.077 1.913,-0.428 2.399,-1.209c0.002,-0.003 0.018,-0.022 0.019,-0.024l0,0c0.393,-0.64 0.547,-1.666 0.022,-2.584c-0.019,-0.032 -0.025,-0.068 -0.045,-0.099l0,0l-0.001,-0.001l-7.353,-11.683c5.143,-4.279 6.4,-11.677 2.752,-17.471c-3.646,-5.793 -10.86,-7.861 -16.942,-5.074l-7.354,-11.683c-0.027,-0.043 -0.067,-0.073 -0.096,-0.114c-1.183,-1.656 -3.743,-1.32 -4.471,0.58c-5.931,15.46 -14.887,29.785 -28.412,39.461c-1.264,-1.193 -3.215,-1.445 -4.752,-0.478l-10.454,6.581c-1.821,1.147 -2.37,3.561 -1.223,5.382l1.903,3.024l-4.765,3.001c-0.882,0.555 -1.495,1.42 -1.727,2.437c-0.231,1.017 -0.053,2.063 0.503,2.945l2.617,4.157c1.145,1.822 3.561,2.37 5.383,1.226l4.765,-2.999l1.903,3.024c0.741,1.176 2.012,1.822 3.312,1.822c0.71,0 1.428,-0.193 2.072,-0.598l0.635,-0.4l2.579,4.096l-47.349,0l0,2.992l49.233,0l2.814,4.472l-47.233,0l0,2.992l49.117,0l1.702,2.704c1.134,1.802 3.53,2.389 5.383,1.224l2.575,-1.62c0.869,-0.547 1.438,-1.386 1.681,-2.308l30.554,0c0.067,0 0.142,0.066 0.142,0.155l0,76.067l-122.9,0l0,-29.463l-2.993,0l0,29.453l-4.485,0l0,-30.878l-2.993,0l0,30.888c-2.975,0.297 -6.698,-0.938 -6.698,1.496c0,11.227 9.134,20.36 20.361,20.36l116.503,0c11.227,0 20.361,-9.133 20.361,-20.36c0,-0.827 -0.67,-1.496 -1.496,-1.496Zm-18.865,18.863l-116.503,0c-9.073,0 -16.544,-6.992 -17.305,-15.871l52.211,0l4.913,8.09c0.271,0.446 0.757,0.719 1.279,0.719l34.307,0c0.523,0 1.008,-0.273 1.279,-0.719l4.913,-8.09l52.211,0c-0.761,8.879 -8.232,15.871 -17.305,15.871Zm-99.079,-12.945c-2.763,0 -5.01,2.247 -5.01,5.009c0,2.763 2.247,5.011 5.01,5.011c2.762,0 5.01,-2.248 5.01,-5.011c0,-2.762 -2.248,-5.009 -5.01,-5.009Zm-15.699,0c-2.761,0 -5.009,2.247 -5.009,5.009c0,2.763 2.248,5.011 5.009,5.011c2.763,0 5.01,-2.248 5.01,-5.011c0,-2.762 -2.247,-5.009 -5.01,-5.009Zm15.699,7.027c-1.112,0 -2.018,-0.906 -2.018,-2.018c0,-1.112 0.906,-2.017 2.018,-2.017c1.131,0 2.017,0.886 2.017,2.017c0,1.131 -0.886,2.018 -2.017,2.018Zm-15.699,0c-1.112,0 -2.016,-0.906 -2.016,-2.018c0,-1.112 0.904,-2.017 2.016,-2.017c1.131,0 2.018,0.886 2.018,2.017c0,1.131 -0.887,2.018 -2.018,2.018Zm76.37,-9.953l-3.532,5.816l-32.623,0l-3.533,-5.816l39.688,0Zm41.471,-82.206l-30.97,0c-0.016,-0.027 -0.024,-0.057 -0.041,-0.084l-2.762,-4.388l33.773,0c4.194,0 7.605,3.412 7.605,7.605l0,76.071l-4.47,0l0,-76.057c0,-1.736 -1.406,-3.147 -3.135,-3.147Zm-82.338,73.008l-25.119,0l0,2.993l25.119,0l0,-2.993Zm40.686,2.993c0.826,0 1.496,-0.67 1.496,-1.497l0,-45.335c0,-0.827 -0.67,-1.496 -1.496,-1.496l-9.543,0c-0.826,0 -1.496,0.669 -1.496,1.496l0,45.335c0,0.827 0.67,1.497 1.496,1.497l9.543,0Zm34.995,0c0.826,0 1.496,-0.67 1.496,-1.497l0,-45.335c0,-0.827 -0.67,-1.496 -1.496,-1.496l-9.543,0c-0.826,0 -1.496,0.669 -1.496,1.496l0,45.335c0,0.827 0.67,1.497 1.496,1.497l9.543,0Zm-17.497,0c0.826,0 1.496,-0.67 1.496,-1.497l0,-32.989c0,-0.827 -0.67,-1.496 -1.496,-1.496l-9.544,0c-0.826,0 -1.496,0.669 -1.496,1.496l0,32.989c0,0.827 0.67,1.497 1.496,1.497l9.544,0Zm-34.995,0c0.826,0 1.496,-0.67 1.496,-1.497l0,-24.007c0,-0.827 -0.67,-1.496 -1.496,-1.496l-9.543,0c-0.826,0 -1.496,0.669 -1.496,1.496l0,24.007c0,0.827 0.67,1.497 1.496,1.497l9.543,0Zm44.445,-45.336l6.55,0l0,42.343l-6.55,0l0,-42.343Zm-34.994,0l6.55,0l0,42.343l-6.55,0l0,-42.343Zm-17.497,21.329l6.55,0l0,21.014l-6.55,0l0,-21.014Zm34.994,-8.983l6.55,0l0,29.997l-6.55,0l0,-29.997Zm-50.137,20.842l-25.119,0l0,2.993l25.119,0l0,-2.993Zm-59.639,-69.665c-10.84,10.077 -12.553,26.502 -4.237,38.566l-2.638,2.452c-1.462,-1.215 -2.969,-4.385 -4.661,-2.812l-18.124,16.848l-0.001,0c-3.891,3.621 -4.099,9.686 -0.491,13.561c3.61,3.875 9.696,4.086 13.567,0.486l18.123,-16.848c0.605,-0.562 0.641,-1.509 0.077,-2.116l-2.545,-2.734l2.641,-2.456c11.437,9.136 27.942,8.651 38.793,-1.438c12.04,-11.19 12.727,-29.965 1.523,-41.999c-11.168,-11.994 -30.021,-12.672 -42.027,-1.51Zm-18.622,66.909c-2.669,2.48 -6.858,2.331 -9.339,-0.334c-2.486,-2.669 -2.336,-6.843 0.339,-9.329l-0.001,0l17.029,-15.83c10.241,11.001 -2.199,-2.362 8.998,9.665l-17.026,15.828Zm78.261,-6.398l-25.119,0l0,2.992l25.119,0l0,-2.992Zm-21.172,-19.194c-10.733,9.976 -27.701,9.501 -37.794,-1.363c-10.055,-10.796 -9.44,-27.717 1.364,-37.762c10.766,-10.008 27.725,-9.463 37.799,1.358c10.072,10.817 9.462,27.698 -1.369,37.767Zm-39.03,1.657l-2.407,2.238c-0.14,-0.15 -2.005,-2.154 -1.866,-2.004l2.408,-2.237c0.586,0.688 1.444,1.591 1.865,2.003Zm5.364,-37.817c-9.168,8.523 -9.692,22.88 -1.161,32.044c8.494,9.123 22.879,9.692 32.062,1.153c9.166,-8.52 9.695,-22.881 1.162,-32.044c-8.521,-9.152 -22.905,-9.669 -32.063,-1.153Zm28.864,31.005c-7.953,7.391 -20.439,6.944 -27.835,-1.001c-7.401,-7.95 -6.95,-20.416 1.008,-27.812c7.934,-7.377 20.422,-6.963 27.836,1.001c7.402,7.948 6.949,20.412 -1.009,27.812Zm74.483,-27.583c-1.577,0.776 -3.047,2.577 -3.832,1.334l-10.862,-17.255l4.116,-2.592l10.863,17.257c0.267,0.425 0.139,0.989 -0.285,1.256Zm-1.789,-27.021c2.04,4.151 0.751,9.245 -3.1,11.908l-3.147,-5.001c0.409,-0.292 1.075,-0.542 1.702,-1.41c0.056,-0.15 1.187,-1.551 0.561,-3.481c1.225,-0.676 2.624,-1.388 3.984,-2.016Zm-18.924,10.275l-10.583,-16.814c-0.267,-0.424 -0.139,-0.988 0.286,-1.255l10.452,-6.58c0.151,-0.095 0.318,-0.141 0.484,-0.141c0.303,0 0.601,0.152 0.774,0.426c-0.122,-0.191 1.56,2.501 10.581,16.814c0.273,0.433 0.131,0.987 -0.284,1.248c-0.543,0.342 -10.605,6.684 -10.451,6.587c-0.429,0.269 -0.992,0.139 -1.259,-0.285Zm-6.03,-3.962l-4.765,2.998c-0.425,0.269 -0.989,0.14 -1.257,-0.285l-2.616,-4.159c-0.268,-0.423 -0.14,-0.987 0.285,-1.255l4.766,-3c0.12,0.191 3.704,5.887 3.587,5.701Zm36.218,-51.168l21.993,34.939c-14.741,0.145 -27.732,3.26 -38.739,9.322l-8.412,-13.364c10.225,-7.305 18.655,-17.669 25.158,-30.897Zm4.029,-9.18c7.145,11.35 -4.585,-7.284 27.983,44.455c-2.192,-0.166 -4.346,-0.265 -6.469,-0.312l-24.029,-38.175c0.876,-1.935 1.717,-3.92 2.515,-5.968Zm11.04,11.919c4.649,-1.913 10.04,-0.276 12.8,4.109c2.761,4.386 1.909,9.959 -1.83,13.32c-0.106,-0.168 -11.067,-17.583 -10.97,-17.429Zm21.993,6.248l0.212,2.984l4.015,-0.285l-0.212,-2.984l-4.015,0.285Zm1.915,-7.467l-1.676,-2.479l-3.334,2.255l1.676,2.478l3.334,-2.254Zm-8.043,-7.148l-2.692,-1.309l-1.76,3.619l2.691,1.309l1.761,-3.619Z" style="fill:url(#_Linear1);fill-rule:nonzero;"/></g><defs><linearGradient id="_Linear1" x1="0" y1="0" x2="1" y2="0" gradientUnits="userSpaceOnUse" gradientTransform="matrix(127.181,140.839,-140.839,127.181,57.0141,46.995)"><stop offset="0" style="stop-color:#4d7aff;stop-opacity:1"/><stop offset="1" style="stop-color:#d748f0;stop-opacity:1"/></linearGradient></defs></svg>