<?xml version="1.0" encoding="UTF-8" standalone="no"?><!DOCTYPE svg PUBLIC "-//W3C//DTD SVG 1.1//EN" "http://www.w3.org/Graphics/SVG/1.1/DTD/svg11.dtd"><svg width="100%" height="100%" viewBox="0 0 40 40" version="1.1" xmlns="http://www.w3.org/2000/svg" xmlns:xlink="http://www.w3.org/1999/xlink" xml:space="preserve" xmlns:serif="http://www.serif.com/" style="fill-rule:evenodd;clip-rule:evenodd;stroke-linejoin:round;stroke-miterlimit:2;"><path d="M23.333,12.667l-18,0c-1.84,0 -3.333,1.494 -3.333,3.333l-0,13.333l1.333,0l0,-13.333c0,-1.103 0.896,-2 2,-2l18,-0c0.368,-0 0.667,-0.299 0.667,-0.667c0,-0.368 -0.299,-0.666 -0.667,-0.666Z" style="fill:#fff;"/><path d="M10.666,29.333l0,2.667c0,0.368 0.298,0.666 0.666,0.666l8.001,0c0.368,0 0.666,-0.298 0.666,-0.666l0,-2.667l-1.333,0l0,2l-6.667,0l0,-2l-1.333,0Z" style="fill:#fff;"/><path d="M30.667,29.334c0,-0.369 -0.299,-0.667 -0.667,-0.667l-29.333,0c-0.367,0 -0.667,0.298 -0.667,0.667l0,2.666c0,1.84 1.494,3.334 3.333,3.334l24.001,-0c1.839,-0 3.333,-1.494 3.333,-3.334l0,-2.666Zm-1.334,0.666l0,2c0,1.104 -0.895,2 -1.999,2l-24.001,0c-1.104,0 -1.999,-0.896 -1.999,-2l-0,-2l27.999,0Z" style="fill:#fff;"/><path d="M25.334,14l0,11.333c0,1.104 0.896,2 2,2l10.667,0c1.104,0 2,-0.896 2,-2l-0,-11.333c-0,-0.368 -0.299,-0.667 -0.667,-0.667c-0.368,0 -0.667,0.299 -0.667,0.667l0,11.333c0,0.368 -0.299,0.667 -0.666,0.667l-10.667,-0c-0.368,-0 -0.667,-0.299 -0.667,-0.667l0,-11.333c0,-0.368 -0.299,-0.667 -0.666,-0.667c-0.368,0 -0.667,0.299 -0.667,0.667Z" style="fill:#fff;"/><path d="M40.001,11.334l-0,-4.667c-0,-1.104 -0.896,-2 -2,-2l-10.667,-0c-1.104,-0 -2,0.896 -2,2l0,4.667c0,0.368 0.299,0.666 0.667,0.666c0.367,0 0.666,-0.298 0.666,-0.666l0,-4.667c0,-0.368 0.299,-0.667 0.667,-0.667l10.667,0c0.367,0 0.666,0.299 0.666,0.667l0,4.667c0,0.368 0.299,0.666 0.667,0.666c0.368,0 0.667,-0.298 0.667,-0.666Z" style="fill:#fff;"/><rect x="26" y="23.334" width="4.781" height="1.334" style="fill:#fff;fill-rule:nonzero;"/><rect x="34.553" y="23.334" width="4.781" height="1.334" style="fill:#fff;fill-rule:nonzero;"/><rect x="26" y="7.334" width="13.333" height="1.334" style="fill:#fff;fill-rule:nonzero;"/><path d="M32.667,20c0.368,0 0.666,-0.298 0.666,-0.666c0,-0.369 -0.298,-0.667 -0.666,-0.667c-0.369,0 -0.667,0.299 -0.667,0.667c0,0.368 0.298,0.666 0.667,0.666Z" style="fill:#fff;fill-rule:nonzero;"/><path d="M32.667,22c-1.472,0 -2.667,1.195 -2.667,2.667c0,1.471 1.195,2.666 2.667,2.666c1.471,0 2.666,-1.195 2.666,-2.666c0,-1.472 -1.195,-2.667 -2.666,-2.667Zm-0,1.333c0.736,0 1.333,0.598 1.333,1.334c0,0.736 -0.597,1.333 -1.333,1.333c-0.736,0 -1.334,-0.597 -1.334,-1.333c0,-0.736 0.598,-1.334 1.334,-1.334Z" style="fill:#fff;"/><path d="M4.001,32.666c0.368,0 0.666,-0.298 0.666,-0.666c0,-0.369 -0.298,-0.667 -0.666,-0.667c-0.369,-0 -0.667,0.298 -0.667,0.667c-0,0.368 0.298,0.666 0.667,0.666Z" style="fill:#fff;fill-rule:nonzero;"/><path d="M6.667,32.666c0.368,0 0.666,-0.298 0.666,-0.666c0,-0.369 -0.298,-0.667 -0.666,-0.667c-0.369,-0 -0.667,0.298 -0.667,0.667c0,0.368 0.298,0.666 0.667,0.666Z" style="fill:#fff;fill-rule:nonzero;"/><path d="M4,0c-1.104,0 -2,0.896 -2,2c0,1.104 0.896,2 2,2c1.104,0 2,-0.896 2,-2c0,-1.104 -0.896,-2 -2,-2Zm0,1.333c0.368,0 0.667,0.299 0.667,0.667c-0,0.368 -0.299,0.667 -0.667,0.667c-0.368,-0 -0.667,-0.299 -0.667,-0.667c0,-0.368 0.299,-0.667 0.667,-0.667Z" style="fill:#fff;"/><path d="M36,36c-1.104,0 -2,0.896 -2,2c0,1.104 0.896,2 2,2c1.104,0 2,-0.896 2,-2c0,-1.104 -0.896,-2 -2,-2Zm0,1.333c0.368,0 0.667,0.299 0.667,0.667c-0,0.368 -0.299,0.667 -0.667,0.667c-0.368,-0 -0.667,-0.299 -0.667,-0.667c0,-0.368 0.299,-0.667 0.667,-0.667Z" style="fill:#fff;"/><path d="M5.334,2.666l26.667,0l-0,2.667l1.333,0l0,-3.333c0,-0.368 -0.299,-0.667 -0.667,-0.667l-27.333,0l-0,1.333Z" style="fill:#fff;"/><path d="M8.667,7.333l6.666,0c0.177,0 0.347,-0.07 0.472,-0.195l4.666,-4.667l-0.942,-0.943l-4.472,4.472l-6.39,-0c-0.368,-0 -0.667,0.298 -0.667,0.666c0,0.368 0.299,0.667 0.667,0.667Z" style="fill:#fff;"/><path d="M11.333,10.666l6,0c0.176,0 0.346,-0.07 0.471,-0.195l8,-8l-0.943,-0.943l-7.804,7.805l-5.724,0c-0.368,0 -0.667,0.299 -0.667,0.667c0,0.368 0.299,0.666 0.667,0.666Z" style="fill:#fff;"/><path d="M34.667,37.334l-27.334,-0l0,-2.667l-1.333,0l-0,3.333c-0,0.368 0.298,0.667 0.667,0.667l28,0l-0,-1.333Z" style="fill:#fff;"/><path d="M15.334,23.333c-1.104,-0 -2,0.896 -2,2c0,1.104 0.896,2 2,2c1.104,-0 2,-0.896 2,-2c0,-1.104 -0.896,-2 -2,-2Zm0,1.333c0.368,0 0.667,0.299 0.667,0.667c-0,0.368 -0.299,0.667 -0.667,0.667c-0.368,-0 -0.667,-0.299 -0.667,-0.667c0,-0.368 0.299,-0.667 0.667,-0.667Z" style="fill:#fff;"/><path d="M35,16.625c-0.709,-0.409 -1.514,-0.625 -2.333,-0.625c-0.82,0 -1.624,0.216 -2.334,0.625c-0.318,0.184 -0.428,0.592 -0.244,0.911c0.184,0.319 0.592,0.428 0.911,0.244c0.507,-0.293 1.081,-0.447 1.667,-0.447c0.585,0 1.16,0.154 1.666,0.447c0.319,0.184 0.727,0.075 0.911,-0.244c0.184,-0.319 0.075,-0.727 -0.244,-0.911Z" style="fill:#fff;"/><path d="M36.333,14.315c-1.115,-0.643 -2.38,-0.982 -3.667,-0.982c-1.287,0 -2.552,0.339 -3.667,0.982c-0.318,0.184 -0.428,0.593 -0.243,0.911c0.183,0.319 0.591,0.428 0.91,0.244c0.912,-0.526 1.947,-0.804 3,-0.804c1.053,0 2.088,0.278 3,0.804c0.319,0.184 0.727,0.075 0.911,-0.244c0.184,-0.318 0.074,-0.726 -0.244,-0.911Z" style="fill:#fff;"/><path d="M37.667,12.007c-1.52,-0.878 -3.244,-1.34 -5,-1.34c-1.755,0 -3.479,0.462 -5,1.34c-0.318,0.184 -0.428,0.592 -0.244,0.911c0.184,0.318 0.593,0.428 0.911,0.244c1.318,-0.761 2.812,-1.161 4.333,-1.161c1.522,-0 3.016,0.4 4.334,1.161c0.318,0.184 0.727,0.074 0.911,-0.244c0.184,-0.319 0.074,-0.727 -0.245,-0.911Z" style="fill:#fff;"/><path d="M18.633,22.034c-0.875,-0.875 -2.063,-1.367 -3.3,-1.367c-1.238,0 -2.425,0.492 -3.3,1.367c-0.26,0.26 -0.26,0.683 0,0.943c0.26,0.26 0.683,0.26 0.943,-0c0.625,-0.625 1.473,-0.977 2.357,-0.977c0.884,0 1.732,0.352 2.357,0.977c0.26,0.26 0.683,0.26 0.943,-0c0.26,-0.261 0.26,-0.683 -0,-0.943Z" style="fill:#fff;"/><path d="M20.519,20.148c-1.375,-1.375 -3.24,-2.148 -5.185,-2.148c-1.945,0 -3.811,0.773 -5.186,2.148c-0.26,0.26 -0.26,0.683 0,0.943c0.26,0.26 0.683,0.26 0.943,-0c1.125,-1.126 2.651,-1.758 4.243,-1.758c1.591,0 3.117,0.632 4.242,1.758c0.261,0.26 0.683,0.26 0.943,-0c0.26,-0.26 0.26,-0.683 0,-0.943Z" style="fill:#fff;"/><path d="M22.406,18.262c-1.876,-1.875 -4.419,-2.929 -7.071,-2.929c-2.653,0 -5.196,1.054 -7.072,2.929c-0.26,0.26 -0.26,0.683 0,0.943c0.261,0.26 0.683,0.26 0.944,-0c1.625,-1.625 3.829,-2.538 6.128,-2.538c2.298,-0 4.503,0.913 6.128,2.538c0.26,0.26 0.683,0.26 0.943,-0c0.26,-0.26 0.26,-0.683 -0,-0.943Z" style="fill:#fff;"/></svg>