<svg width="50" height="50" viewBox="0 0 50 50" fill="none" xmlns="http://www.w3.org/2000/svg">
<g clip-path="url(#clip0_411_69)">
<path d="M47.0009 11.1441H28.0621C27.8303 11.1441 27.6081 11.2362 27.4442 11.4C27.2802 11.564 27.1882 11.7862 27.1882 12.0179C27.1882 12.2498 27.2802 12.472 27.4442 12.636C27.6081 12.7998 27.8303 12.8919 28.0621 12.8919H47.0009C47.3247 12.8938 47.6349 13.0232 47.8639 13.2523C48.0929 13.4813 48.2224 13.7915 48.2243 14.1153V32.334H16.9813C16.8562 32.2599 16.7141 32.2189 16.5688 32.2151C16.337 32.2151 16.1148 32.3072 15.9509 32.471C15.7871 32.635 15.6949 32.8572 15.6949 33.0889V35.1234C15.6968 35.9109 16.0104 36.6655 16.5672 37.2223C17.1241 37.7791 17.8787 38.0928 18.6661 38.0946H29.8519L29.2226 41.4153H25.3566C25.2303 41.416 25.1055 41.4438 24.991 41.4969C24.8764 41.55 24.7746 41.627 24.6925 41.7229L21.7631 45.1416C21.6533 45.2679 21.5821 45.4232 21.558 45.5889C21.5339 45.7546 21.5578 45.9237 21.627 46.0761C21.6962 46.2285 21.8079 46.3579 21.9485 46.4488C22.0891 46.5397 22.2529 46.5882 22.4203 46.5887H43.2396C43.4106 46.5966 43.5802 46.5541 43.7273 46.4665C43.8744 46.379 43.9924 46.25 44.0669 46.0958C44.1413 45.9417 44.1688 45.7691 44.1461 45.5994C44.1234 45.4299 44.0512 45.2705 43.9387 45.1416L41.0025 41.7229C40.9175 41.6213 40.8103 41.5407 40.689 41.4873C40.5678 41.4339 40.4358 41.4092 40.3034 41.4153H36.4792L35.8431 38.0946H47.0288C47.8162 38.0928 48.5709 37.7791 49.1277 37.2223C49.6845 36.6655 49.9981 35.9109 50 35.1234V14.1503C50.0037 13.7551 49.9287 13.363 49.7795 12.9971C49.6301 12.6311 49.4094 12.2986 49.1303 12.0188C48.8511 11.739 48.5191 11.5175 48.1535 11.3674C47.7879 11.2172 47.3961 11.1414 47.0009 11.1441Z" fill="url(#paint0_linear_411_69)"/>
<path d="M24.0979 23.7148C24.3296 23.7148 24.5519 23.6227 24.7158 23.4588C24.8798 23.295 24.9717 23.0726 24.9717 22.8409C24.9717 22.6091 24.8798 22.3869 24.7158 22.223C24.5519 22.059 24.3296 21.967 24.0979 21.967H5.45274C5.24505 21.3353 4.81886 20.7985 4.25105 20.4526C3.68309 20.1067 3.01049 19.9744 2.3539 20.0797C1.69732 20.1849 1.09973 20.5207 0.668337 21.0267C0.236956 21.5327 0 22.1759 0 22.8409C0 23.5058 0.236956 24.1491 0.668337 24.655C1.09973 25.1611 1.69732 25.4968 2.3539 25.6021C3.01049 25.7073 3.68309 25.5751 4.25105 25.2293C4.81886 24.8834 5.24505 24.3464 5.45274 23.7148H24.0979ZM2.85211 23.8616C2.65055 23.8602 2.45389 23.7992 2.28697 23.6862C2.12004 23.5732 1.9903 23.4133 1.91412 23.2266C1.83793 23.0401 1.81872 22.835 1.85889 22.6375C1.89906 22.44 1.99682 22.2588 2.13983 22.1167C2.28286 21.9747 2.46473 21.8781 2.66254 21.8394C2.86034 21.8005 3.06519 21.8211 3.25129 21.8985C3.4374 21.976 3.59644 22.1068 3.70828 22.2745C3.82011 22.4423 3.87985 22.6394 3.87985 22.8409C3.87985 22.9754 3.85322 23.1089 3.8014 23.2331C3.74973 23.3574 3.67388 23.4703 3.57831 23.5651C3.48288 23.66 3.36946 23.735 3.24482 23.7859C3.12017 23.8367 2.98674 23.8625 2.85211 23.8616Z" fill="url(#paint1_linear_411_69)"/>
<path d="M10.8013 30.7404V29.1326H26.7968C27.0285 29.1326 27.2509 29.0405 27.4147 28.8765C27.5786 28.7127 27.6708 28.4903 27.6708 28.2586C27.6708 28.0269 27.5786 27.8047 27.4147 27.6407C27.2509 27.4768 27.0285 27.3848 26.7968 27.3848H9.92746C9.81246 27.3838 9.69832 27.4058 9.59196 27.4494C9.48545 27.493 9.38872 27.5572 9.3074 27.6387C9.22608 27.72 9.16174 27.8167 9.11813 27.9231C9.07452 28.0296 9.05264 28.1436 9.0535 28.2586V30.6216C8.42121 30.7943 7.87081 31.1863 7.50105 31.7275C7.13114 32.2687 6.96591 32.9239 7.03485 33.5758C7.10379 34.2278 7.40231 34.8339 7.87714 35.2858C8.35198 35.7378 8.97204 36.0061 9.62664 36.0426C10.2811 36.0793 10.9274 35.882 11.4495 35.4859C11.9719 35.0898 12.3363 34.5207 12.4775 33.8806C12.6189 33.2406 12.5277 32.571 12.2207 31.9918C11.9136 31.4128 11.4104 30.9617 10.8013 30.7194V30.7404ZM9.76669 34.3268C9.56504 34.3255 9.36843 34.2645 9.20147 34.1515C9.03451 34.0385 8.90482 33.8786 8.82868 33.6919C8.7524 33.5054 8.73325 33.3003 8.77341 33.1028C8.81357 32.9052 8.9113 32.724 9.05437 32.5821C9.19744 32.44 9.37922 32.3434 9.57713 32.3046C9.77489 32.2658 9.97971 32.2864 10.1658 32.3639C10.3519 32.4413 10.511 32.5721 10.6228 32.7398C10.7346 32.9075 10.7944 33.1045 10.7944 33.3062C10.7944 33.4408 10.7677 33.574 10.7159 33.6984C10.6643 33.8228 10.5884 33.9355 10.4928 34.0305C10.3974 34.1253 10.284 34.2003 10.1593 34.2512C10.0347 34.3021 9.90127 34.3278 9.76669 34.3268Z" fill="url(#paint2_linear_411_69)"/>
<path d="M8.55658 13.4169V17.6116C8.55658 17.8434 8.64856 18.0657 8.81249 18.2296C8.97629 18.3934 9.19867 18.4855 9.4304 18.4855H26.6704C26.9021 18.4855 27.1243 18.3934 27.2883 18.2296C27.4521 18.0657 27.5442 17.8434 27.5442 17.6116C27.5442 17.3798 27.4521 17.1576 27.2883 16.9937C27.1243 16.8299 26.9021 16.7377 26.6704 16.7377H10.3042V13.3191C10.9231 13.0761 11.4351 12.6204 11.7483 12.034C12.0616 11.4476 12.1558 10.7689 12.0138 10.1194C11.8719 9.46987 11.5033 8.89212 10.9739 8.48983C10.4447 8.08768 9.78937 7.88704 9.12555 7.92432C8.46173 7.96145 7.83289 8.23392 7.35187 8.69278C6.8707 9.15163 6.56887 9.7668 6.50036 10.4282C6.43185 11.0894 6.60126 11.7535 6.97807 12.3012C7.35475 12.849 7.9145 13.2445 8.55658 13.4169ZM9.25566 9.73269C9.45803 9.72995 9.6568 9.78738 9.8265 9.89792C9.9962 10.0083 10.1292 10.1668 10.2085 10.353C10.2879 10.5393 10.3101 10.745 10.2724 10.9439C10.2345 11.1428 10.1385 11.3259 9.99634 11.4701C9.85414 11.6142 9.67235 11.7128 9.47387 11.7534C9.27553 11.7938 9.06956 11.7745 8.8823 11.6977C8.69505 11.6208 8.53471 11.4901 8.42201 11.3218C8.30916 11.1537 8.249 10.9558 8.24886 10.7535C8.24886 10.4827 8.35652 10.2231 8.5478 10.0316C8.73923 9.84021 8.99889 9.73269 9.26962 9.73269H9.25566Z" fill="url(#paint3_linear_411_69)"/>
<path d="M15.6393 8.90776V12.1307C15.6385 12.2457 15.6603 12.3597 15.7039 12.4662C15.7476 12.5726 15.8119 12.6693 15.8932 12.7506C15.9745 12.8321 16.0713 12.8963 16.1778 12.9399C16.2841 12.9835 16.3983 13.0055 16.5133 13.0045H23.6302C23.8619 13.0045 24.0841 12.9125 24.2481 12.7486C24.4119 12.5847 24.504 12.3624 24.504 12.1307C24.504 11.899 24.4119 11.6766 24.2481 11.5128C24.0841 11.3489 23.8619 11.2567 23.6302 11.2567H17.4081V8.80989C18.0269 8.56693 18.5388 8.11124 18.8522 7.52486C19.1655 6.93848 19.2597 6.25969 19.1177 5.61027C18.9758 4.9607 18.6071 4.38296 18.0778 3.98067C17.5484 3.57837 16.8931 3.37789 16.2293 3.41501C15.5656 3.45229 14.9368 3.72475 14.4556 4.18361C13.9746 4.64247 13.6726 5.25763 13.6043 5.91901C13.5357 6.58023 13.705 7.24434 14.0818 7.792C14.4586 8.33981 15.0182 8.73533 15.6603 8.90776H15.6393ZM16.3384 5.21647C16.5421 5.21517 16.7414 5.27419 16.9112 5.38631C17.0812 5.49843 17.2141 5.65849 17.293 5.84603C17.3717 6.03372 17.3931 6.24055 17.3543 6.44033C17.3154 6.64025 17.2181 6.82391 17.0746 6.96842C16.9311 7.11278 16.748 7.21138 16.5485 7.25168C16.349 7.29183 16.1421 7.27197 15.9538 7.19439C15.7657 7.11681 15.6048 6.98511 15.4915 6.81585C15.3782 6.64673 15.3178 6.44781 15.3178 6.24429C15.3178 6.10871 15.3445 5.97442 15.3966 5.84934C15.4487 5.72412 15.525 5.61056 15.6212 5.51499C15.7175 5.41956 15.8315 5.344 15.957 5.29276C16.0825 5.24152 16.2169 5.21561 16.3525 5.21647H16.3384Z" fill="url(#paint4_linear_411_69)"/>
<path d="M30.3835 21.6941C30.2459 21.7686 30.1305 21.8786 30.0495 22.0126C29.9683 22.1464 29.9244 22.2996 29.9222 22.4562V23.2252C29.9231 23.3804 29.9648 23.5325 30.0434 23.6664C30.122 23.8002 30.2346 23.9108 30.3696 23.9872L31.7259 24.7423C31.858 25.1903 32.0409 25.622 32.2712 26.0286L31.8098 27.4267C31.759 27.5808 31.7516 27.7458 31.7886 27.9037C31.8257 28.0616 31.9055 28.2063 32.0195 28.3216L32.5648 28.8669C32.6801 28.9809 32.8248 29.0608 32.9827 29.0978C33.1406 29.1348 33.3057 29.1275 33.4597 29.0766L34.8159 28.6012C35.2341 28.8384 35.6772 29.0283 36.1373 29.1676L36.9132 30.4958C36.9896 30.631 37.1003 30.7435 37.234 30.822C37.3679 30.9006 37.52 30.9424 37.6753 30.9433H38.4442C38.5995 30.9424 38.7516 30.9006 38.8855 30.822C39.0192 30.7435 39.1299 30.631 39.2063 30.4958L39.9054 29.2095C40.3913 29.0709 40.8603 28.8786 41.3036 28.6362L42.6109 29.0556C42.7638 29.1067 42.9278 29.1141 43.0847 29.0771C43.2415 29.0401 43.385 28.9601 43.4988 28.8459L44.0371 28.3007C44.1503 28.1863 44.2303 28.0432 44.2684 27.8868C44.3067 27.7303 44.3015 27.5665 44.2539 27.4128L43.8483 26.1475C44.1147 25.6843 44.3259 25.1916 44.4776 24.6794L45.701 23.9801C45.8347 23.9046 45.946 23.7949 46.0233 23.6622C46.1007 23.5296 46.1414 23.3788 46.1414 23.2252V22.4562C46.1414 22.3026 46.1007 22.1518 46.0233 22.0191C45.946 21.8864 45.8347 21.7767 45.701 21.7011L44.4986 21.002C44.3472 20.4696 44.1311 19.9578 43.8553 19.4779L44.2539 18.2545C44.3015 18.1008 44.3067 17.937 44.2684 17.7805C44.2303 17.6242 44.1503 17.4812 44.0371 17.3667L43.4988 16.8214C43.3837 16.7094 43.2402 16.6307 43.0839 16.5938C42.9276 16.5568 42.764 16.563 42.6109 16.6117L41.3665 17.0101C40.8985 16.7421 40.3981 16.5354 39.8775 16.3949L39.1783 15.1646C39.1028 15.0308 38.993 14.9196 38.8605 14.8421C38.7277 14.7647 38.5769 14.724 38.4233 14.7241H37.6543C37.5007 14.724 37.3499 14.7647 37.2172 14.8421C37.0845 14.9196 36.9748 15.0308 36.8992 15.1646L36.2001 16.4369C35.7112 16.5821 35.2416 16.7864 34.802 17.045L33.4736 16.6396C33.3196 16.5888 33.1545 16.5814 32.9966 16.6186C32.8387 16.6556 32.6942 16.7354 32.5788 16.8493L32.0405 17.3946C31.9239 17.5084 31.8419 17.6526 31.8034 17.8109C31.7652 17.9692 31.7722 18.135 31.8237 18.2895L32.2712 19.6247C32.0355 20.0492 31.8501 20.4997 31.7189 20.9671L30.3835 21.6941ZM35.4242 22.8127C35.4228 22.2826 35.5788 21.7639 35.8724 21.3224C36.1662 20.8811 36.5843 20.5368 37.0738 20.3333C37.5633 20.1298 38.1024 20.0761 38.6224 20.1793C39.1424 20.2824 39.6201 20.5376 39.9951 20.9124C40.3699 21.2873 40.6251 21.765 40.7281 22.285C40.8312 22.8051 40.7776 23.3441 40.5741 23.8336C40.3706 24.3231 40.0263 24.7413 39.5849 25.0349C39.1436 25.3286 38.6248 25.4847 38.0947 25.4832C37.387 25.4814 36.7088 25.1995 36.2084 24.6991C35.7079 24.1986 35.4259 23.5204 35.4242 22.8127Z" fill="url(#paint5_linear_411_69)"/>
</g>
<defs>
<linearGradient id="paint0_linear_411_69" x1="15.6951" y1="28.9522" x2="50.0008" y2="28.9522" gradientUnits="userSpaceOnUse">
<stop stop-color="#1685FF"/>
<stop offset="0.5" stop-color="#8B5CF6"/>
<stop offset="1" stop-color="#D946EF"/>
</linearGradient>
<linearGradient id="paint1_linear_411_69" x1="7.19663e-05" y1="22.8544" x2="24.9723" y2="22.8544" gradientUnits="userSpaceOnUse">
<stop stop-color="#1685FF"/>
<stop offset="0.5" stop-color="#8B5CF6"/>
<stop offset="1" stop-color="#D946EF"/>
</linearGradient>
<linearGradient id="paint2_linear_411_69" x1="7.01959" y1="31.7367" x2="27.6712" y2="31.7367" gradientUnits="userSpaceOnUse">
<stop stop-color="#1685FF"/>
<stop offset="0.5" stop-color="#8B5CF6"/>
<stop offset="1" stop-color="#D946EF"/>
</linearGradient>
<linearGradient id="paint3_linear_411_69" x1="6.48554" y1="13.2281" x2="27.5446" y2="13.2281" gradientUnits="userSpaceOnUse">
<stop stop-color="#1685FF"/>
<stop offset="0.5" stop-color="#8B5CF6"/>
<stop offset="1" stop-color="#D946EF"/>
</linearGradient>
<linearGradient id="paint4_linear_411_69" x1="13.5893" y1="8.23071" x2="24.5043" y2="8.23071" gradientUnits="userSpaceOnUse">
<stop stop-color="#1685FF"/>
<stop offset="0.5" stop-color="#8B5CF6"/>
<stop offset="1" stop-color="#D946EF"/>
</linearGradient>
<linearGradient id="paint5_linear_411_69" x1="29.9222" y1="22.8727" x2="46.1417" y2="22.8727" gradientUnits="userSpaceOnUse">
<stop stop-color="#1685FF"/>
<stop offset="0.5" stop-color="#8B5CF6"/>
<stop offset="1" stop-color="#D946EF"/>
</linearGradient>
<clipPath id="clip0_411_69">
<rect width="50" height="50" fill="white"/>
</clipPath>
</defs>
</svg>
