<?xml version="1.0" encoding="UTF-8" standalone="no"?><!DOCTYPE svg PUBLIC "-//W3C//DTD SVG 1.1//EN" "http://www.w3.org/Graphics/SVG/1.1/DTD/svg11.dtd"><svg width="100%" height="100%" viewBox="0 0 110 110" version="1.1" xmlns="http://www.w3.org/2000/svg" xmlns:xlink="http://www.w3.org/1999/xlink" xml:space="preserve" xmlns:serif="http://www.serif.com/" style="fill-rule:evenodd;clip-rule:evenodd;stroke-linejoin:round;stroke-miterlimit:2;"><rect id="Artboard1" x="0" y="0" width="110" height="110" style="fill:none;"/><path d="M45.834,0.544c12.168,-0 23.228,1.848 31.275,4.836c8.674,3.219 13.978,7.866 14.02,13.297l0,41.442c18.351,5.153 24.6,28.339 10.967,41.973c-4.552,4.552 -10.834,7.364 -17.774,7.364c-4.468,0 -8.665,-1.167 -12.3,-3.209c-3.607,0.988 -7.62,1.777 -11.922,2.325c-15.221,1.934 -32.967,0.714 -45.536,-3.951c-8.665,-3.215 -14.021,-7.904 -14.021,-13.297l-0,-72.713c0.042,-5.365 5.389,-10.026 14.016,-13.232c8.05,-2.987 19.111,-4.835 31.275,-4.835l-0,-0Zm53.298,68.968c-13.16,-13.16 -35.756,-3.791 -35.756,14.81c-0,18.601 22.596,27.97 35.756,14.809c8.178,-8.177 8.178,-21.442 -0,-29.62l-0,0.001Zm-39.944,14.956c-16.871,1.995 -43.3,0.199 -54.457,-9.511l0,16.365c0,3.465 4.311,6.798 11.284,9.388c14.021,5.205 35.51,5.909 51.545,2.345c-5.129,-4.6 -8.33,-11.232 -8.372,-18.587l-0,0Zm23.119,-13.859l4.298,0l0,21.382l3.992,-0l-6.141,6.14l-6.14,-6.14l3.991,-0l-0,-21.382Zm4.634,-11.284l-0,-8.584c-15.713,13.68 -66.496,13.68 -82.21,-0l0,16.369c0,3.465 4.311,6.798 11.284,9.388c11.907,4.42 29.105,5.55 43.503,3.725c2.142,-12.999 14.073,-22.283 27.422,-20.899l0.001,0.001Zm-0.006,-32.796c-15.717,13.676 -66.492,13.675 -82.204,-0.005l0,16.365c0,3.465 4.311,6.798 11.284,9.388c16.374,6.079 43.257,6.079 59.632,0c6.972,-2.59 11.283,-5.923 11.283,-9.388l0.005,-16.36l0.006,-0.005l-0.006,0l-0,0.005Zm-11.283,-17.24c-16.374,-6.079 -43.257,-6.079 -59.632,0c-15.022,5.578 -15.022,13.193 0,18.772c16.375,6.079 43.258,6.079 59.632,0c15.023,-5.573 15.028,-13.188 0,-18.772Z" style="fill:url(#_Linear1);"/><defs><linearGradient id="_Linear1" x1="0" y1="0" x2="1" y2="0" gradientUnits="userSpaceOnUse" gradientTransform="matrix(108.916,0,0,125.278,0.543166,55.2623)"><stop offset="0" style="stop-color:#1685ff;stop-opacity:1"/><stop offset="0.5" style="stop-color:#8b5cf6;stop-opacity:1"/><stop offset="1" style="stop-color:#d946ef;stop-opacity:1"/></linearGradient></defs></svg>