<svg width="30" height="31" viewBox="0 0 30 31" fill="none" xmlns="http://www.w3.org/2000/svg">
<g clip-path="url(#clip0_449_1130)">
<path d="M18.6335 4.36063L23.2873 7.04638C23.3739 7.09653 23.4617 7.12579 23.5468 7.13414C23.6402 7.1425 23.7326 7.12693 23.8211 7.09691L24.6262 6.82298C25.0639 6.67404 25.5221 6.68848 25.929 6.84121C26.3598 7.01788 26.6843 7.2789 26.9195 7.68581L28.1485 9.81078C28.3811 10.2135 28.4559 10.6664 28.3849 11.095C28.3005 11.5475 28.0961 11.927 27.7473 12.2313L27.1068 12.7914C27.0331 12.8556 26.9768 12.9297 26.9411 13.0091C26.9058 13.0869 26.8875 13.1785 26.8875 13.28V18.6929C26.8875 18.7951 26.9058 18.8863 26.9407 18.9638C26.9768 19.0432 27.0331 19.1169 27.1068 19.1815L27.7458 19.7407C28.095 20.0454 28.3115 20.4485 28.3833 20.8771C28.4548 21.3038 28.3803 21.7563 28.1482 22.1586L26.894 24.3288C26.6615 24.7095 26.3184 24.9846 25.929 25.1312C25.4848 25.2809 25.0741 25.3026 24.6254 25.1491L23.8211 24.8748C23.7242 24.8417 23.6315 24.8299 23.5472 24.8379C23.4541 24.847 23.3682 24.8793 23.2873 24.9261L18.5985 27.6308C18.5119 27.6825 18.442 27.7437 18.3926 27.8132C18.3428 27.8831 18.3071 27.9686 18.2877 28.0674L18.1228 28.9017C18.0336 29.3565 17.7908 29.7467 17.4549 30.0225C17.1179 30.2995 16.6886 30.4621 16.2266 30.4621H13.7722C13.3102 30.4621 12.8809 30.2995 12.5439 30.0221C12.2073 29.7459 11.9653 29.3561 11.876 28.9013L11.7111 28.0674C11.6917 27.9686 11.656 27.8823 11.6062 27.8128C11.5557 27.7418 11.4865 27.6806 11.4022 27.632L6.71229 24.9261C6.62529 24.8759 6.5379 24.8459 6.4547 24.8379C6.36807 24.8299 6.27537 24.8417 6.17849 24.8748L5.37417 25.1491C4.93686 25.2984 4.47942 25.2832 4.07327 25.1312C3.66674 24.9796 3.31264 24.6894 3.08013 24.2859L1.82748 22.1161C1.61472 21.7251 1.54785 21.2909 1.61586 20.8798C1.68653 20.4516 1.90347 20.0466 2.25301 19.7407L2.89282 19.1811C2.96653 19.1169 3.02276 19.0428 3.05847 18.9634C3.0938 18.8855 3.11204 18.7939 3.11204 18.6925V13.28C3.11204 13.1785 3.0938 13.0869 3.05847 13.0091C3.02276 12.9297 2.96653 12.8556 2.89282 12.7914L2.25225 12.2317C1.90271 11.9259 1.68577 11.5212 1.61472 11.0923C1.54443 10.6668 1.61928 10.2154 1.85104 9.81382L3.10482 7.64402C3.33734 7.26294 3.68042 6.98749 4.07023 6.84121C4.51476 6.69152 4.92508 6.67024 5.37417 6.82336L6.17811 7.09767C6.27499 7.13072 6.36769 7.1425 6.45204 7.13452C6.53866 7.12617 6.62681 7.09653 6.71305 7.04752L11.4022 4.34049C11.4865 4.29186 11.5557 4.23069 11.6062 4.15964C11.656 4.09011 11.6917 4.00387 11.7111 3.90509L11.876 3.07189C11.9653 2.61673 12.2077 2.2273 12.5435 1.95071C12.8809 1.67335 13.3102 1.51074 13.7722 1.51074H16.2266C16.689 1.51074 17.1175 1.67373 17.4549 1.95033C17.7908 2.22692 18.0332 2.61673 18.1228 3.07113L18.2877 3.90509C18.3071 4.00349 18.3428 4.08897 18.3926 4.15888C18.4606 4.25425 18.5377 4.30098 18.6335 4.36063ZM19.1198 11.685C20.2516 12.8225 20.8834 14.2697 20.8834 15.8821C20.8834 16.2374 20.5951 16.5257 20.2398 16.5257C19.8846 16.5257 19.5962 16.2374 19.5962 15.8821C19.5962 14.843 19.2524 13.8852 18.6741 13.1173L18.4754 13.316C18.2243 13.5672 17.817 13.5672 17.5659 13.316C17.3147 13.0649 17.3147 12.6576 17.5659 12.4065L17.7646 12.2078C17.1574 11.7503 16.4325 11.4407 15.6434 11.3301V11.6101C15.6434 11.9654 15.355 12.2538 14.9998 12.2538C14.6446 12.2538 14.3562 11.9654 14.3562 11.6101V11.3301C13.5663 11.4407 12.841 11.7507 12.2346 12.2074L12.4337 12.4065C12.6849 12.6576 12.6849 13.0649 12.4337 13.316C12.1826 13.5672 11.7753 13.5672 11.5242 13.316L11.3255 13.1173C10.7464 13.8867 10.4034 14.8438 10.4034 15.8821C10.4034 16.2374 10.115 16.5257 9.75974 16.5257C9.40451 16.5257 9.11614 16.2374 9.11614 15.8821C9.11614 14.2792 9.74911 12.8104 10.8817 11.6835C11.944 10.6413 13.3984 9.99847 14.9998 9.99847C16.6024 9.99847 18.0575 10.6425 19.1198 11.685ZM14.3588 18.5838L14.3585 15.6838C14.3585 15.3301 14.6457 15.0428 14.9994 15.0428C15.3531 15.0428 15.6404 15.3301 15.6404 15.6838L15.6407 18.5838C15.8398 18.6678 16.0195 18.7898 16.17 18.9402C16.4694 19.2396 16.6552 19.6541 16.6552 20.1104C16.6552 20.5675 16.4694 20.9812 16.17 21.2806C15.8706 21.58 15.4569 21.7658 14.9998 21.7658C14.5427 21.7658 14.129 21.58 13.8296 21.2806C13.5302 20.9812 13.3444 20.5675 13.3444 20.1104C13.3444 19.6541 13.5302 19.2396 13.8296 18.9402C13.98 18.7898 14.1598 18.6678 14.3588 18.5838ZM14.9998 7.09577C17.4538 7.09577 19.6775 8.09158 21.2862 9.70022C22.8948 11.3089 23.8906 13.5322 23.8906 15.9862C23.8906 18.4402 22.8948 20.6636 21.2862 22.2722C19.6775 23.8809 17.4538 24.8767 14.9998 24.8767C12.5458 24.8767 10.322 23.8809 8.71341 22.2722C7.10477 20.6636 6.10896 18.4402 6.10896 15.9862C6.10896 13.5322 7.10477 11.3089 8.71341 9.70022C10.322 8.09158 12.5458 7.09577 14.9998 7.09577ZM20.3766 10.6098C19.0013 9.23442 17.0997 8.38299 14.9998 8.38299C12.8999 8.38299 10.9983 9.23442 9.62297 10.6098C8.24761 11.9851 7.39618 13.8863 7.39618 15.9862C7.39618 18.0861 8.24761 19.9873 9.62297 21.3627C10.9983 22.738 12.8999 23.5895 14.9998 23.5895C17.0997 23.5895 19.0013 22.738 20.3766 21.3627C21.752 19.9873 22.6034 18.0861 22.6034 15.9862C22.6034 13.8863 21.752 11.9851 20.3766 10.6098ZM20.3006 6.80284L17.9557 5.45028C17.7102 5.30818 17.5055 5.12429 17.347 4.90279C17.1901 4.68243 17.0811 4.42977 17.0264 4.15128L16.8615 3.31733C16.8311 3.16231 16.7505 3.03086 16.6403 2.94043C16.5309 2.85077 16.3862 2.79796 16.2266 2.79796H13.7722C13.6127 2.79796 13.4675 2.85115 13.3581 2.94081C13.2483 3.03124 13.1677 3.16269 13.1374 3.31809L12.9725 4.15128C12.9178 4.43015 12.8095 4.68319 12.6518 4.90355C12.4949 5.12315 12.2893 5.3078 12.0405 5.45142L7.3559 8.15731C7.10591 8.29978 6.84451 8.38489 6.57742 8.4111C6.30728 8.43732 6.03449 8.4054 5.76626 8.31422L4.96232 8.03991C4.8187 7.99089 4.67129 7.99165 4.54135 8.03497C4.39508 8.09348 4.29022 8.16642 4.20397 8.30206L2.96197 10.4548C2.88294 10.59 2.85786 10.7431 2.88142 10.8864C2.9046 11.0277 2.9783 11.1633 3.09646 11.2667L3.73703 11.8263C3.95283 12.0148 4.11848 12.2355 4.22943 12.481C4.34189 12.7283 4.39926 12.9969 4.39926 13.28V18.6925C4.39926 18.9755 4.34189 19.2442 4.22943 19.4915C4.11848 19.7369 3.95283 19.9577 3.73703 20.1461L3.09722 20.7058C2.97944 20.8087 2.90574 20.9444 2.88256 21.0857C2.86014 21.221 2.88104 21.3649 2.94829 21.4945L4.18991 23.643C4.2678 23.7809 4.3871 23.879 4.52311 23.9299C4.65685 23.98 4.81186 23.9838 4.96232 23.9325L5.76664 23.6582C6.03487 23.567 6.30766 23.5351 6.5778 23.5613C6.84907 23.5883 7.11084 23.6734 7.3559 23.8151L12.0405 26.521C12.2893 26.6646 12.4949 26.8493 12.6518 27.0689C12.8095 27.2893 12.9178 27.5423 12.9725 27.8212L13.1374 28.6551C13.1677 28.8098 13.2479 28.9412 13.3585 29.032C13.4675 29.1221 13.6127 29.1749 13.7722 29.1749H16.2266C16.3862 29.1749 16.5313 29.1221 16.6403 29.0324C16.7505 28.942 16.8311 28.8105 16.8615 28.6555L17.0264 27.8212C17.0811 27.5423 17.1901 27.2896 17.347 27.0693C17.5051 26.8478 17.7099 26.6631 17.9557 26.521L22.6437 23.8151C22.8827 23.6768 23.1376 23.5929 23.4016 23.5636C23.6813 23.5321 23.967 23.5678 24.2329 23.6582L25.0373 23.9325C25.1813 23.9816 25.3287 23.9804 25.4582 23.9371C25.603 23.8809 25.7105 23.8034 25.7949 23.6704L27.0372 21.5177C27.1159 21.3832 27.1406 21.2305 27.117 21.0884C27.0938 20.9444 27.0198 20.8091 26.9016 20.7058L26.2626 20.1465C26.0467 19.9581 25.8815 19.7377 25.7698 19.4919C25.6581 19.2449 25.6003 18.9763 25.6003 18.6929V13.28C25.6003 12.9969 25.6577 12.7283 25.7702 12.481C25.8811 12.2355 26.0467 12.0148 26.2626 11.8263L26.9031 11.2663C27.0171 11.1668 27.0897 11.0368 27.1155 10.9016C27.1398 10.7382 27.1212 10.5995 27.0376 10.4544L25.8097 8.32866C25.7356 8.1972 25.6243 8.10222 25.4985 8.05016C25.3386 7.99393 25.2014 7.98406 25.038 8.03953L24.2329 8.31346C23.9712 8.40274 23.7052 8.43542 23.4412 8.41224C23.1623 8.39097 22.8853 8.29674 22.6437 8.15731L20.3006 6.80284Z" fill="url(#paint0_linear_449_1130)"/>
</g>
<defs>
<linearGradient id="paint0_linear_449_1130" x1="1.58943" y1="16.0562" x2="28.4112" y2="16.0562" gradientUnits="userSpaceOnUse">
<stop stop-color="#1685FF"/>
<stop offset="0.5" stop-color="#8B5CF6"/>
<stop offset="1" stop-color="#D946EF"/>
</linearGradient>
<clipPath id="clip0_449_1130">
<rect width="30" height="30" fill="white" transform="translate(0 0.986328)"/>
</clipPath>
</defs>
</svg>
