<?xml version="1.0" encoding="UTF-8" standalone="no"?><!DOCTYPE svg PUBLIC "-//W3C//DTD SVG 1.1//EN" "http://www.w3.org/Graphics/SVG/1.1/DTD/svg11.dtd"><svg width="100%" height="100%" viewBox="0 0 496 496" version="1.1" xmlns="http://www.w3.org/2000/svg" xmlns:xlink="http://www.w3.org/1999/xlink" xml:space="preserve" xmlns:serif="http://www.serif.com/" style="fill-rule:evenodd;clip-rule:evenodd;stroke-linejoin:round;stroke-miterlimit:2;"><path d="M176,337.376l0,-25.376c0,-39.701 -32.299,-72 -72,-72l-16,-0c-39.701,-0 -72,32.299 -72,72l0,25.376c-9.311,3.303 -16,12.195 -16,22.624l0,8c0,8.822 7.178,16 16,16l0,40c0,39.701 32.299,72 72,72l16,-0c39.701,-0 72,-32.299 72,-72l0,-40c8.822,-0 16,-7.178 16,-16l0,-8c0,-10.429 -6.689,-19.321 -16,-22.624Zm96,-337.376l-16,0l0,496l16,0l0,-176l224,0l0,-16l-224,0l0,-16l224,0l0,-16l-224,0l0,-272Zm-48,176l-224,0l0,16l224,0l0,16l-224,0l0,16l224,0l0,272l16,0l0,-496l-16,0l0,176Zm-64,248c0,3.982 -0.425,7.866 -1.219,11.616c-4.496,-2.346 -9.537,-3.616 -14.781,-3.616c-17.645,0 -32,14.355 -32,32c0,5.244 1.27,10.285 3.616,14.781c-3.75,0.794 -7.634,1.219 -11.616,1.219l-16,0c-3.982,0 -7.866,-0.425 -11.616,-1.219c2.346,-4.496 3.616,-9.537 3.616,-14.781c0,-17.645 -14.355,-32 -32,-32c-5.244,0 -10.285,1.27 -14.781,3.616c-0.794,-3.75 -1.219,-7.634 -1.219,-11.616l0,-40l16,0l0,8c0,22.056 17.944,40 40,40l16,0c22.056,0 40,-17.944 40,-40l0,-8l16,0l0,40Zm-121.113,26.876c2.646,-1.846 5.795,-2.876 9.113,-2.876c8.822,0 16,7.178 16,16c0,3.318 -1.03,6.467 -2.876,9.113c-9.359,-5.142 -17.095,-12.878 -22.237,-22.237Zm91.989,22.237c-1.846,-2.646 -2.876,-5.795 -2.876,-9.113c0,-8.822 7.178,-16 16,-16c3.318,0 6.467,1.03 9.113,2.876c-5.142,9.359 -12.878,17.095 -22.237,22.237Zm-4.252,-73.113c-3.302,9.311 -12.195,16 -22.624,16l-16,0c-10.429,0 -19.321,-6.689 -22.624,-16l61.248,0Zm-62.624,-16l-0,-16l64,0l-0,16l-64,0Zm112,-16l-32,0l-0,-16l24,0c4.411,0 8,3.589 8,8l-0,8Zm-160,-8c-0,-4.411 3.589,-8 8,-8l24,0l-0,16l-32,0l-0,-8Zm112,-8l-64,0l-0,-8c-0,-13.233 10.767,-24 24,-24l16,0c13.233,0 24,10.767 24,24l-0,8Zm-24,-96c3.982,0 7.866,0.425 11.616,1.219c-2.346,4.496 -3.616,9.537 -3.616,14.781c-0,17.645 14.355,32 32,32c5.244,0 10.285,-1.27 14.781,-3.616c0.794,3.75 1.219,7.634 1.219,11.616l-0,24l-16.805,0c-3.717,-18.235 -19.878,-32 -39.195,-32l-16,0c-19.317,0 -35.478,13.765 -39.195,32l-16.805,0l-0,-24c-0,-3.982 0.425,-7.866 1.219,-11.616c4.496,2.346 9.537,3.616 14.781,3.616c17.645,0 32,-14.355 32,-32c-0,-5.244 -1.27,-10.285 -3.616,-14.781c3.75,-0.794 7.634,-1.219 11.616,-1.219l16,0Zm49.113,29.124c-2.646,1.846 -5.795,2.876 -9.113,2.876c-8.822,0 -16,-7.178 -16,-16c-0,-3.318 1.03,-6.467 2.876,-9.113c9.359,5.142 17.095,12.878 22.237,22.237Zm-91.989,-22.237c1.846,2.646 2.876,5.795 2.876,9.113c-0,8.822 -7.178,16 -16,16c-3.318,0 -6.467,-1.03 -9.113,-2.876c5.142,-9.359 12.878,-17.095 22.237,-22.237Zm418.876,-150.887l-0,-40c-0,-39.701 -32.299,-72 -72,-72l-16,0c-39.701,0 -72,32.299 -72,72l-0,40c-8.822,0 -16,7.178 -16,16l-0,8c-0,10.429 6.689,19.321 16,22.624l-0,25.376c-0,39.701 32.299,72 72,72l16,0c39.701,0 72,-32.299 72,-72l-0,-25.376c9.311,-3.303 16,-12.195 16,-22.624l-0,-8c-0,-8.822 -7.178,-16 -16,-16Zm-88,128c-3.982,0 -7.866,-0.425 -11.616,-1.219c2.346,-4.496 3.616,-9.537 3.616,-14.781c-0,-17.645 -14.355,-32 -32,-32c-5.244,0 -10.285,1.27 -14.781,3.616c-0.794,-3.75 -1.219,-7.634 -1.219,-11.616l-0,-24l16.805,0c3.717,18.235 19.878,32 39.195,32l16,0c19.317,0 35.478,-13.765 39.195,-32l16.805,0l-0,24c-0,3.982 -0.425,7.866 -1.219,11.616c-4.496,-2.346 -9.537,-3.616 -14.781,-3.616c-17.645,0 -32,14.355 -32,32c-0,5.244 1.27,10.285 3.616,14.781c-3.75,0.794 -7.634,1.219 -11.616,1.219l-16,0Zm-49.113,-29.124c2.646,-1.846 5.795,-2.876 9.113,-2.876c8.822,0 16,7.178 16,16c-0,3.318 -1.03,6.467 -2.876,9.113c-9.359,-5.142 -17.095,-12.878 -22.237,-22.237Zm91.989,22.237c-1.846,-2.646 -2.876,-5.795 -2.876,-9.113c-0,-8.822 7.178,-16 16,-16c3.318,0 6.467,1.03 9.113,2.876c-5.142,9.359 -12.878,17.095 -22.237,22.237Zm-66.876,-89.113l64,0l-0,8c-0,13.233 -10.767,24 -24,24l-16,0c-13.233,0 -24,-10.767 -24,-24l-0,-8Zm-304,-32l24,0c22.056,0 40,-17.944 40,-40c-0,-22.056 -17.944,-40 -40,-40l-40,0l-0,128l16,0l-0,-48Zm256,16l32,0l-0,16l-24,0c-4.411,0 -8,-3.589 -8,-8l-0,-8Zm160,8c-0,4.411 -3.589,8 -8,8l-24,0l-0,-16l32,0l-0,8Zm-48,-24l-0,16l-64,0l-0,-16l64,0Zm-96,-40c-0,-3.982 0.425,-7.866 1.219,-11.616c4.496,2.346 9.537,3.616 14.781,3.616c17.645,0 32,-14.355 32,-32c-0,-5.244 -1.27,-10.285 -3.616,-14.781c3.75,-0.794 7.634,-1.219 11.616,-1.219l16,0c3.982,0 7.866,0.425 11.616,1.219c-2.346,4.496 -3.616,9.537 -3.616,14.781c-0,17.645 14.355,32 32,32c5.244,0 10.285,-1.27 14.781,-3.616c0.794,3.75 1.219,7.634 1.219,11.616l-0,40l-16,0l-0,-8c-0,-22.056 -17.944,-40 -40,-40l-16,0c-22.056,0 -40,17.944 -40,40l-0,8l-16,0l-0,-40Zm33.376,24c3.302,-9.311 12.195,-16 22.624,-16l16,0c10.429,0 19.321,6.689 22.624,16l-61.248,0Zm-305.376,-48l24,0c13.233,0 24,10.767 24,24c-0,13.233 -10.767,24 -24,24l-24,0l-0,-48Zm393.113,-2.876c-2.646,1.846 -5.795,2.876 -9.113,2.876c-8.822,0 -16,-7.178 -16,-16c-0,-3.318 1.03,-6.467 2.876,-9.113c9.359,5.142 17.095,12.878 22.237,22.237Zm-91.989,-22.237c1.846,2.646 2.876,5.795 2.876,9.113c-0,8.822 -7.178,16 -16,16c-3.318,0 -6.467,-1.03 -9.113,-2.876c5.142,-9.359 12.878,-17.095 22.237,-22.237Z" style="fill:url(#_Linear1);fill-rule:nonzero;"/><defs><linearGradient id="_Linear1" x1="0" y1="0" x2="1" y2="0" gradientUnits="userSpaceOnUse" gradientTransform="matrix(496.002,0,0,495.959,-6.88338e-14,249.194)"><stop offset="0" style="stop-color:#1685ff;stop-opacity:1"/><stop offset="0.5" style="stop-color:#8b5cf6;stop-opacity:1"/><stop offset="1" style="stop-color:#d946ef;stop-opacity:1"/></linearGradient></defs></svg>