<svg width="40" height="46" viewBox="0 0 40 46" fill="none" xmlns="http://www.w3.org/2000/svg">
<path d="M4.13383 34.1039C1.74089 33.4589 1.12875 32.8248 1.01761 32.6831V28.3662C1.78623 28.7017 2.58006 28.9763 3.39176 29.1873C6.20112 29.9434 9.91068 30.3599 13.8371 30.3599C16.5242 30.3745 19.2076 30.1597 21.8581 29.718C22.2112 29.2643 22.6005 28.8399 23.0221 28.4491C20.0009 29.0726 16.9218 29.372 13.8371 29.3423C9.99757 29.3423 6.38195 28.9384 3.65633 28.2049C2.74566 27.9745 1.86135 27.6503 1.01761 27.2374V22.5306C1.78623 22.8661 2.58006 23.1407 3.39176 23.3517C6.2019 24.1079 9.91147 24.5243 13.8371 24.5243C17.7634 24.5243 21.473 24.1079 24.2816 23.3517C25.0933 23.1408 25.8872 22.8663 26.6558 22.5306V26.2425C26.9895 26.1229 27.3291 26.0205 27.6734 25.9356V9.42698C27.6734 8.62856 26.2276 7.76202 23.8041 7.10918C21.1482 6.39374 17.6077 6 13.8371 6C10.0657 6 6.52598 6.39374 3.86924 7.10918C1.44656 7.76202 0 8.62856 0 9.42698V32.7693C0 33.5677 1.44656 34.4342 3.86924 35.0863C6.52598 35.8017 10.0657 36.1955 13.8371 36.1955C15.7744 36.2004 17.7103 36.0893 19.6343 35.8628C19.6452 35.5129 19.6732 35.1679 19.718 34.828C17.7669 35.0667 15.8028 35.1835 13.8371 35.1778C10.1526 35.1778 6.7068 34.7966 4.13383 34.1039ZM4.13383 8.09235C6.7068 7.39959 10.1526 7.01761 13.8371 7.01761C17.5208 7.01761 20.9673 7.39959 23.5395 8.09235C25.6014 8.64734 26.3411 9.19528 26.5775 9.42698C26.3411 9.65789 25.6014 10.2058 23.5395 10.7608C20.9673 11.4544 17.5208 11.8356 13.8371 11.8356C10.1526 11.8356 6.70679 11.4544 4.13382 10.7608C2.07279 10.2058 1.33228 9.65789 1.09588 9.42698C1.33228 9.19528 2.07278 8.64734 4.13383 8.09235ZM1.01761 10.6348C1.91483 11.1292 2.87377 11.5022 3.86925 11.744C6.52599 12.4594 10.0657 12.8532 13.8371 12.8532C17.6077 12.8532 21.1482 12.4594 23.8041 11.744C24.7997 11.5023 25.7586 11.1293 26.6558 10.6348V15.5655C25.8122 15.979 24.9279 16.3035 24.017 16.5338C21.2922 17.2672 17.6766 17.6711 13.8371 17.6711C9.99757 17.6711 6.38195 17.2672 3.65633 16.5338C2.74552 16.3035 1.86117 15.979 1.01761 15.5655V10.6348ZM1.01761 16.6942C1.78607 17.0304 2.57993 17.3052 3.39176 17.5162C6.2019 18.2723 9.91068 18.6888 13.8371 18.6888C17.7635 18.6888 21.473 18.2723 24.2816 17.5162C25.0935 17.3054 25.8873 17.0305 26.6558 16.6942V21.4011C25.8122 21.8146 24.9278 22.1391 24.017 22.3693C21.2922 23.1028 17.6766 23.5067 13.8371 23.5067C9.99757 23.5067 6.38273 23.1028 3.65633 22.3693C2.74552 22.1391 1.86117 21.8146 1.01761 21.4011V16.6942Z" fill="url(#paint0_linear_1351_149)"/>
<path d="M30.2053 26.4131C28.2683 26.4132 26.3749 26.9876 24.7643 28.0638C23.1538 29.1401 21.8986 30.6697 21.1574 32.4593C20.4163 34.2488 20.2224 36.218 20.6004 38.1178C20.9783 40.0175 21.9112 41.7626 23.2809 43.1322C24.6506 44.5018 26.3957 45.4345 28.2955 45.8123C30.1953 46.1901 32.1645 45.996 33.954 45.2547C35.7435 44.5134 37.273 43.258 38.3491 41.6474C39.4252 40.0368 39.9995 38.1433 39.9994 36.2063C39.9963 33.6098 38.9635 31.1205 37.1274 29.2845C35.2912 27.4486 32.8019 26.4159 30.2053 26.4131ZM30.2053 44.9828C28.4696 44.9827 26.7729 44.4679 25.3298 43.5036C23.8866 42.5392 22.7619 41.1686 22.0977 39.565C21.4335 37.9614 21.2597 36.1968 21.5984 34.4945C21.937 32.7922 22.7728 31.2285 24.0002 30.0011C25.2275 28.7738 26.7912 27.938 28.4935 27.5993C30.1959 27.2607 31.9604 27.4345 33.564 28.0986C35.1676 28.7628 36.5382 29.8876 37.5026 31.3308C38.4669 32.7739 38.9817 34.4706 38.9818 36.2063C38.9792 38.5332 38.0536 40.764 36.4083 42.4093C34.763 44.0546 32.5322 44.9801 30.2053 44.9828Z" fill="url(#paint1_linear_1351_149)"/>
<path d="M31.1103 34.4936C30.6878 34.3434 30.2887 34.1344 29.9247 33.8726C29.8545 33.809 29.8545 33.8057 29.8545 33.721C29.8545 33.4892 30.2502 33.4642 30.4204 33.4642C30.9213 33.4586 31.4139 33.5928 31.8427 33.8516C31.9777 33.9277 32.1274 33.9737 32.2817 33.9866C32.4361 33.9995 32.5914 33.9788 32.737 33.9261C32.8827 33.8734 33.0152 33.7899 33.1256 33.6813C33.236 33.5726 33.3216 33.4414 33.3766 33.2967L33.7644 32.2732C33.8545 32.0362 33.8577 31.7749 33.7733 31.5359C33.689 31.2968 33.5226 31.0954 33.3037 30.9674C32.8442 30.6972 32.3431 30.5051 31.8207 30.3987V29.8494C31.8203 29.5646 31.7069 29.2915 31.5054 29.0902C31.304 28.8888 31.0309 28.7756 30.746 28.7754H29.7855C29.5008 28.7757 29.2278 28.889 29.0265 29.0903C28.8251 29.2917 28.7119 29.5647 28.7116 29.8494V30.594C28.0234 30.831 27.4272 31.2785 27.0074 31.8732C26.5877 32.4678 26.3656 33.1794 26.3727 33.9073C26.3727 36.0306 28.0064 36.9573 29.5988 37.5815C30.6779 38.0194 30.6779 38.3056 30.6779 38.4278C30.6779 38.8396 30.0901 38.8716 29.91 38.8716C29.3327 38.8707 28.7678 38.7039 28.2826 38.3911C28.147 38.2991 27.9922 38.2393 27.8299 38.2163C27.6677 38.1933 27.5023 38.2078 27.3465 38.2586C27.1907 38.3094 27.0486 38.3952 26.931 38.5094C26.8135 38.6236 26.7236 38.7631 26.6683 38.9174L26.2962 39.9561C26.2183 40.1764 26.2139 40.416 26.2837 40.639C26.3535 40.8619 26.4937 41.0563 26.6833 41.1928C27.2627 41.5796 27.9165 41.8414 28.6028 41.9613V42.5624C28.6029 42.8473 28.716 43.1206 28.9173 43.3222C29.1187 43.5238 29.3918 43.6374 29.6767 43.6379H30.6537C30.9386 43.6374 31.2117 43.5238 31.413 43.3222C31.6144 43.1206 31.7275 42.8473 31.7276 42.5624V41.7699C32.4418 41.5179 33.0605 41.051 33.4986 40.4332C33.9368 39.8154 34.1729 39.0771 34.1745 38.3198C34.1745 36.012 32.4262 35.0308 31.1103 34.4936ZM31.0786 40.9148C30.9724 40.9453 30.879 41.0095 30.8125 41.0977C30.746 41.1859 30.71 41.2934 30.71 41.4039V42.5623C30.71 42.5774 30.7042 42.5919 30.6936 42.6028C30.6831 42.6136 30.6688 42.6199 30.6537 42.6203H29.6767C29.6616 42.6199 29.6473 42.6136 29.6368 42.6028C29.6263 42.5919 29.6204 42.5774 29.6204 42.5623V41.5262C29.6204 41.4018 29.5748 41.2816 29.4922 41.1885C29.4096 41.0954 29.2957 41.0358 29.1721 41.021C28.497 40.9548 27.847 40.73 27.2751 40.365C27.2653 40.3574 27.258 40.347 27.2543 40.3352C27.2506 40.3233 27.2507 40.3106 27.2544 40.2988L27.6264 39.2605C27.6295 39.2517 27.6348 39.2439 27.6417 39.2376C27.6487 39.2314 27.657 39.2269 27.6661 39.2247C27.6702 39.2234 27.6744 39.2227 27.6788 39.2227C27.6913 39.2231 27.7034 39.2273 27.7135 39.2346C28.3676 39.6593 29.1302 39.8866 29.91 39.8892C30.978 39.8892 31.6955 39.3019 31.6955 38.4278C31.6955 37.887 31.4919 37.2516 29.9759 36.6364C28.4239 36.0279 27.3903 35.331 27.3903 33.9073C27.3903 32.718 28.1263 31.7997 29.359 31.4507C29.4655 31.4205 29.5594 31.3564 29.6262 31.2681C29.693 31.1797 29.7292 31.072 29.7292 30.9612V29.8494C29.7294 29.8345 29.7354 29.8203 29.7459 29.8097C29.7564 29.7992 29.7706 29.7932 29.7855 29.793H30.746C30.761 29.7931 30.7754 29.799 30.786 29.8096C30.7967 29.8201 30.8028 29.8344 30.8031 29.8494V30.8295C30.8031 30.9534 30.8483 31.073 30.9302 31.1659C31.0122 31.2588 31.1252 31.3187 31.2481 31.3342C31.7913 31.3961 32.3159 31.57 32.7885 31.8449C32.8001 31.8515 32.809 31.862 32.8134 31.8746C32.8178 31.8872 32.8175 31.901 32.8126 31.9134L32.4239 32.9391C32.4208 32.9465 32.4161 32.9532 32.41 32.9586C32.4039 32.9639 32.3967 32.9678 32.3889 32.9699C32.3817 32.9724 32.374 32.9734 32.3663 32.9728C32.3587 32.9721 32.3512 32.97 32.3444 32.9663C31.763 32.6197 31.0973 32.4399 30.4204 32.4466C29.2516 32.4466 28.8369 33.1331 28.8369 33.721C28.8369 34.4354 29.2773 34.8357 30.7217 35.4341L30.7242 35.4351C31.9271 35.926 33.157 36.6526 33.157 38.3198C33.1569 39.553 32.3606 40.5473 31.0786 40.9148Z" fill="url(#paint2_linear_1351_149)"/>
<path d="M27 16L20 9H24V0H30V9H34L27 16Z" fill="url(#paint3_linear_1351_149)"/>
<defs>
<linearGradient id="paint0_linear_1351_149" x1="7.54837e-05" y1="21.1705" x2="27.6739" y2="21.1705" gradientUnits="userSpaceOnUse">
<stop stop-color="#1685FF"/>
<stop offset="0.5" stop-color="#8B5CF6"/>
<stop offset="1" stop-color="#D946EF"/>
</linearGradient>
<linearGradient id="paint1_linear_1351_149" x1="20.4122" y1="36.2539" x2="39.9998" y2="36.2539" gradientUnits="userSpaceOnUse">
<stop stop-color="#1685FF"/>
<stop offset="0.5" stop-color="#8B5CF6"/>
<stop offset="1" stop-color="#D946EF"/>
</linearGradient>
<linearGradient id="paint2_linear_1351_149" x1="26.2344" y1="36.2425" x2="34.1747" y2="36.2425" gradientUnits="userSpaceOnUse">
<stop stop-color="#1685FF"/>
<stop offset="0.5" stop-color="#8B5CF6"/>
<stop offset="1" stop-color="#D946EF"/>
</linearGradient>
<linearGradient id="paint3_linear_1351_149" x1="20" y1="8.03854" x2="34.0003" y2="8.03854" gradientUnits="userSpaceOnUse">
<stop stop-color="#1685FF"/>
<stop offset="0.5" stop-color="#8B5CF6"/>
<stop offset="1" stop-color="#D946EF"/>
</linearGradient>
</defs>
</svg>
