<?xml version="1.0" encoding="UTF-8" standalone="no"?><!DOCTYPE svg PUBLIC "-//W3C//DTD SVG 1.1//EN" "http://www.w3.org/Graphics/SVG/1.1/DTD/svg11.dtd"><svg width="100%" height="100%" viewBox="0 0 94 95" version="1.1" xmlns="http://www.w3.org/2000/svg" xmlns:xlink="http://www.w3.org/1999/xlink" xml:space="preserve" xmlns:serif="http://www.serif.com/" style="fill-rule:evenodd;clip-rule:evenodd;stroke-linejoin:round;stroke-miterlimit:2;"><g><path d="M65.66,65.787l-38.73,-0l0,-35.52l11.44,-0l0,11.27c0,1.25 1.45,1.95 2.43,1.17l5.49,-4.37l5.49,4.37c0.98,0.78 2.43,0.08 2.43,-1.17l0,-11.27l11.45,-0l0,35.52Zm-5.82,-9.13l-8.05,-0c-1.98,-0 -1.98,3 0,3l8.05,-0c1.98,-0 1.98,-3 0,-3Zm-18.48,-18.23l3.99,-3.17c0.55,-0.43 1.32,-0.43 1.87,-0l3.99,3.17l0,-8.16l-9.84,-0l0,8.16l-0.01,-0Zm-27.32,-20.64c-1.36,1.46 0.86,3.46 2.2,2.03c4.66,-5.04 10.44,-8.77 16.86,-10.95l-0.32,0.45c-1.13,1.61 1.28,3.34 2.46,1.73c4.13,-5.86 4.35,-4.67 -1.76,-8.41c-1.71,-1.03 -3.25,1.54 -1.56,2.56l0.94,0.57c-7.19,2.3 -13.64,6.42 -18.82,12.02Zm-7.32,40.41c-1.53,-5.7 -1.81,-11.73 -0.71,-17.84l0.51,0.83c1.03,1.7 3.6,0.09 2.55,-1.58c-3.75,-6.04 -2.56,-5.85 -8.42,-1.68c-1.62,1.14 0.1,3.6 1.74,2.44l0.65,-0.46c-1.17,6.62 -0.83,13.03 0.78,19.07c0.51,1.91 3.4,1.13 2.9,-0.78Zm29.42,32.17c1.76,-0 2.07,-2.54 0.35,-2.96c-6.7,-1.64 -12.81,-4.94 -17.87,-9.61l1.02,-0c1.98,0.01 1.98,-2.99 0,-2.99c-4.83,-0.01 -5.1,-0.13 -5.64,0.36c-0.16,0.08 -0.49,0.53 -0.52,1.02c0,0.5 -0.02,0.09 0.28,4.88c0.12,1.92 3.12,1.82 3,-0.19l-0.05,-0.73c8.05,7.34 18.02,10.22 19.42,10.22l0.01,-0Zm42.84,-13.35c1.33,-1.47 -0.9,-3.48 -2.23,-2.01c-4.72,5.26 -10.62,9.14 -17.2,11.38l0.49,-0.88c0.97,-1.74 -1.66,-3.19 -2.62,-1.46c-3.49,6.25 -3.81,5.11 2.62,8.18c1.78,0.85 3.08,-1.84 1.29,-2.71l-0.69,-0.32c7.02,-2.42 13.31,-6.57 18.34,-12.18Zm11.8,-22.47c-2.32,1.32 -0.53,1.38 -0.53,-6.91c0,-4.12 -0.56,-8.17 -1.67,-12.05c-0.56,-1.91 -3.44,-1.08 -2.89,0.83c1.54,5.34 1.97,11.1 1.14,17.03c-1.02,-2.04 -3.6,-0.57 -2.77,1.16c2.24,4.63 2.03,4.24 2.23,4.51c0.2,0.27 0.65,0.54 1.15,0.54c0.54,-0 0.43,-0.02 4.82,-2.5c1.71,-0.95 0.27,-3.58 -1.48,-2.61Zm-12.11,-35.72c0.06,-0.13 0.02,0.34 0.23,-4.89c0.1,-1.99 -2.9,-2.09 -3,-0.13l-0.05,1.3c-5.45,-4.96 -12.02,-8.47 -19.2,-10.2c-1.92,-0.48 -2.64,2.45 -0.71,2.91c6.32,1.53 12.13,4.55 17.03,8.77c-2.44,-0.2 -2.42,2.76 -0.56,2.96c3.28,0.35 4.7,0.5 4.8,0.5c0.72,-0 1.35,-0.51 1.46,-1.22Zm-33.87,8.44l3,-0l0,-16.04c-0.99,0.22 -1.99,0.23 -3,-0l0,16.04Zm3,56.02l0,-14.5l-3,-0l0,14.5c0.99,-0.23 1.99,-0.23 3,-0Zm28.98,-55.37l-8.12,4.8l0,3.48l9.38,-5.54c-0.61,-0.79 -1.03,-1.73 -1.26,-2.74Zm-60.91,39.06l8.06,-4.77l0,-3.48l-9.17,5.43c0.58,0.83 0.96,1.82 1.11,2.82Zm52.79,-5.45l8.17,4.44c0.27,-1.16 0.76,-2.01 1.31,-2.7l-9.48,-5.15l0,3.41Zm-44.73,-27.69l-8.38,-4.56c-0.33,0.87 -0.73,1.66 -1.6,2.55l9.98,5.42l0,-3.41Z" style="fill:url(#_Linear1);fill-rule:nonzero;"/><path d="M46.023,86.167c2.233,0 4.046,1.813 4.046,4.046c0,2.233 -1.813,4.046 -4.046,4.046c-2.232,-0 -4.045,-1.813 -4.045,-4.046c-0,-2.233 1.813,-4.046 4.045,-4.046Zm-37.224,-22.288c2.233,-0 4.046,1.812 4.046,4.045c-0,2.233 -1.813,4.046 -4.046,4.046c-2.233,-0 -4.046,-1.813 -4.046,-4.046c0,-2.233 1.813,-4.045 4.046,-4.045Zm74.908,-0.46c2.233,0 4.046,1.813 4.046,4.046c-0,2.233 -1.813,4.045 -4.046,4.045c-2.233,0 -4.045,-1.812 -4.045,-4.045c-0,-2.233 1.812,-4.046 4.045,-4.046Zm-74.678,-40.441c2.233,-0 4.046,1.813 4.046,4.046c-0,2.232 -1.813,4.045 -4.046,4.045c-2.233,0 -4.046,-1.813 -4.046,-4.045c0,-2.233 1.813,-4.046 4.046,-4.046Zm74.219,-0.689c2.233,-0 4.045,1.812 4.045,4.045c0,2.233 -1.812,4.046 -4.045,4.046c-2.233,-0 -4.046,-1.813 -4.046,-4.046c0,-2.233 1.813,-4.045 4.046,-4.045Zm-36.535,-22.289c2.233,0 4.045,1.813 4.045,4.046c0,2.232 -1.812,4.045 -4.045,4.045c-2.233,0 -4.046,-1.813 -4.046,-4.045c0,-2.233 1.813,-4.046 4.046,-4.046Z" style="fill:#ffc100;"/></g><defs><linearGradient id="_Linear1" x1="0" y1="0" x2="1" y2="0" gradientUnits="userSpaceOnUse" gradientTransform="matrix(90.8865,0,0,87.9266,1.16564,46.4468)"><stop offset="0" style="stop-color:#565ae2;stop-opacity:1"/><stop offset="1" style="stop-color:#7d71fe;stop-opacity:1"/></linearGradient></defs></svg>