<svg width="30" height="30" viewBox="0 0 30 30" fill="none" xmlns="http://www.w3.org/2000/svg">
<path d="M15.8907 8.5239H18.3288V10.4666H15.8907V12.9145H13.9479V10.4666H8.42404V15.9905H13.9479V13.5621H15.8907V15.9905H21.4275V10.4666H18.9764V8.5239H21.4275V3H15.8907V8.5239ZM13.3003 15.343H9.07162V11.1142H13.3003V15.343ZM20.78 15.343H16.5383V11.1142H20.78V15.343ZM16.5383 3.64758H20.78V7.87631H16.5383V3.64758ZM28.2272 14.0478H28.8748V15.9905H26.932V15.343H28.2272V14.0478ZM24.0179 15.343H25.313V15.9905H23.3703V14.0478H24.0179V15.343ZM23.3703 10.4666H25.313V11.1142H24.0179V12.4094H23.3703V10.4666ZM28.8942 10.4666V12.4094H28.2272V11.1142H26.932V10.4666H28.8942ZM5.11812 18.0304L6.16073 19.0666V26.19L5.11812 27.2359H2V26.5883H4.84937L5.51315 25.9213V19.3418L4.84937 18.678H2V18.0304H5.11812ZM20.2522 24.7977L21.1037 25.6363V27.1614L20.2651 28H11.2443L8.33014 25.0859H7.09973V24.4383H8.59889L11.513 27.3524H19.9834L20.4562 26.9023V25.9051L19.9834 25.4453H14.0775L11.4677 22.8323L11.9242 22.3757L14.343 24.7977H14.9905L15.6964 24.0918V23.4442L12.0991 19.8469H7.10944V19.1993H12.3614L16.3472 23.1787V24.3606L15.9231 24.7977H20.2522Z" fill="url(#paint0_linear_1774_141)"/>
<defs>
<linearGradient id="paint0_linear_1774_141" x1="2.00007" y1="15.5602" x2="28.8948" y2="15.5602" gradientUnits="userSpaceOnUse">
<stop stop-color="#1685FF"/>
<stop offset="0.5" stop-color="#8B5CF6"/>
<stop offset="1" stop-color="#D946EF"/>
</linearGradient>
</defs>
</svg>
