<svg width="50" height="51" viewBox="0 0 50 51" fill="none" xmlns="http://www.w3.org/2000/svg">
<path d="M48.0698 35.5511H33.8635V24.5328H48.2271C49.2062 24.5328 50 23.7391 50 22.7599C50 21.7808 49.2062 20.987 48.2271 20.987H33.8635V2.19639C33.8635 1.21722 33.0698 0.42347 32.0906 0.42347C31.1115 0.42347 30.3177 1.21722 30.3177 2.19639V25.9516H15.5823L21.0698 20.0157C23.5312 17.9037 25.0573 14.7365 24.951 11.2157C24.7771 5.43857 20.1214 0.701074 14.3479 0.433887C14.1703 0.425553 13.9943 0.421387 13.8182 0.421387C7.6651 0.421387 2.67969 5.40889 2.67969 11.5599C2.67969 14.9422 4.1875 17.9724 6.56615 20.0151L12.0542 25.9511H4.96719C3.98802 25.9511 3.19427 26.7448 3.19427 27.724C3.19427 28.7032 3.98802 29.4969 4.96719 29.4969H30.3177V35.5511H17.9901C17.9052 35.5386 17.8208 35.525 17.7323 35.525C17.6438 35.525 17.5594 35.5386 17.4745 35.5511H1.77292C0.79375 35.5511 0 36.3448 0 37.324C0 38.3032 0.79375 39.0969 1.77292 39.0969H15.9594V48.6448C15.9594 49.624 16.7531 50.4177 17.7323 50.4177C18.7115 50.4177 19.5052 49.624 19.5052 48.6448V39.0969H48.0698C49.049 39.0969 49.8427 38.3032 49.8427 37.324C49.8427 36.3448 49.049 35.5511 48.0698 35.5511ZM9.16979 17.6084L9.03125 17.4589L8.87656 17.3261C7.19167 15.8787 6.22552 13.7771 6.22552 11.5604C6.22552 7.37399 9.63177 3.96826 13.8182 3.96826C13.9391 3.96826 14.062 3.97087 14.1839 3.9766C18.1156 4.15889 21.2885 7.38545 21.4073 11.3229C21.4771 13.6344 20.5125 15.8224 18.7609 17.325L18.6052 17.4584L18.4661 17.6089L13.8177 22.6365L9.16979 17.6084Z" fill="url(#paint0_linear_603_845)"/>
<path d="M13.8177 13.9461C15.2882 13.9461 16.4802 12.7541 16.4802 11.2836C16.4802 9.81314 15.2882 8.62109 13.8177 8.62109C12.3473 8.62109 11.1552 9.81314 11.1552 11.2836C11.1552 12.7541 12.3473 13.9461 13.8177 13.9461Z" fill="url(#paint1_linear_603_845)"/>
<defs>
<linearGradient id="paint0_linear_603_845" x1="0.000220583" y1="25.54" x2="50.0011" y2="25.54" gradientUnits="userSpaceOnUse">
<stop stop-color="#1685FF"/>
<stop offset="0.5" stop-color="#8B5CF6"/>
<stop offset="1" stop-color="#D946EF"/>
</linearGradient>
<linearGradient id="paint1_linear_603_845" x1="11.1552" y1="11.2964" x2="16.4803" y2="11.2964" gradientUnits="userSpaceOnUse">
<stop stop-color="#1685FF"/>
<stop offset="0.5" stop-color="#8B5CF6"/>
<stop offset="1" stop-color="#D946EF"/>
</linearGradient>
</defs>
</svg>
