<svg width="302" height="289" viewBox="0 0 302 289" fill="none" xmlns="http://www.w3.org/2000/svg">
<path d="M126.327 250.59C124.513 251.91 122.622 253.145 120.665 254.267C118.746 255.378 116.751 256.395 114.699 257.307V282.093C114.699 285.589 111.858 288.43 108.362 288.43H69.335C65.8389 288.43 62.9983 285.589 62.9983 282.093V257.307C60.9462 256.395 58.9607 255.378 57.0321 254.267C55.075 253.136 53.194 251.91 51.3794 250.59L29.9182 262.988C26.8971 264.736 23.0304 263.71 21.2824 260.689L1.76872 226.887C0.0206628 223.865 1.0467 219.999 4.0678 218.251L25.548 205.862C25.3105 203.62 25.187 201.359 25.187 199.127C25.187 196.894 25.3105 194.652 25.5385 192.419L4.0678 180.022C1.0467 178.273 0.0206628 174.407 1.76872 171.386L21.2824 137.612C23.0114 134.591 26.8781 133.555 29.8897 135.284L51.3984 147.692C53.2225 146.352 55.094 145.127 57.0226 144.015C58.9417 142.904 60.9367 141.887 62.9888 140.975V116.17C62.9888 112.674 65.8294 109.833 69.3255 109.833H108.353C111.849 109.833 114.69 112.674 114.69 116.17V140.975C116.742 141.887 118.737 142.913 120.665 144.015C122.594 145.127 124.475 146.362 126.299 147.692L147.798 135.284C150.819 133.555 154.676 134.591 156.405 137.612L175.919 171.414C177.648 174.426 176.613 178.273 173.611 180.012L152.14 192.419C152.377 194.662 152.491 196.904 152.491 199.136C152.491 201.369 152.368 203.611 152.14 205.843L173.611 218.241C176.632 219.989 177.658 223.856 175.91 226.877L156.396 260.651C154.667 263.672 150.8 264.707 147.789 262.978L126.308 250.58L126.327 250.59ZM275.359 97.4352L275.235 97.7487C274.58 99.4493 273.934 100.95 273.316 102.214C272.651 103.572 271.872 104.997 270.989 106.47L270.799 106.784L282.266 123.799C284.223 126.696 283.453 130.629 280.556 132.577L252.986 151.16C250.088 153.117 246.155 152.347 244.207 149.449L232.741 132.434C231.021 132.719 229.282 132.928 227.525 133.042C225.815 133.166 224.095 133.204 222.357 133.156L213.36 151.578C211.83 154.722 208.04 156.033 204.895 154.494L175.026 139.902C171.881 138.372 170.57 134.581 172.109 131.437L181.116 112.997C180.023 111.657 178.988 110.261 178.019 108.817C177.04 107.363 176.138 105.871 175.311 104.361L154.828 105.786C151.342 106.014 148.33 103.373 148.102 99.8958L145.803 66.7302C145.575 63.2435 148.216 60.2319 151.693 60.0039L172.166 58.5789L172.29 58.2559C172.879 56.7263 173.525 55.2348 174.219 53.8192C174.903 52.3657 175.682 50.9311 176.527 49.5251L176.708 49.2401L165.241 32.225C163.284 29.3274 164.053 25.3943 166.951 23.4467L194.521 4.86406C197.418 2.907 201.351 3.67652 203.299 6.57412L214.766 23.5987C216.476 23.3137 218.205 23.1142 219.944 22.9907C221.663 22.8672 223.392 22.8292 225.14 22.8767L234.147 4.44605C235.676 1.30144 239.467 -0.00960397 242.611 1.52945L272.48 16.1219C275.625 17.6515 276.936 21.4421 275.397 24.5867L266.391 43.0364C267.502 44.3854 268.538 45.7725 269.488 47.1975L269.735 47.587C270.618 48.9266 271.445 50.2851 272.195 51.6721L292.688 50.2566C296.174 50.0286 299.186 52.6697 299.414 56.1468L301.713 89.3124C301.941 92.799 299.3 95.8106 295.823 96.0387L275.349 97.4637L275.359 97.4352ZM263.465 93.2456C263.854 92.2385 264.244 91.0415 264.633 89.6829C265.346 87.1844 267.559 85.2843 270.295 85.1038L288.659 83.8307L287.234 63.2815L269.022 64.5451C266.381 64.8111 263.74 63.367 262.619 60.802C261.65 58.6074 260.51 56.5173 259.227 54.5697L258.999 54.2562C257.669 52.2802 256.187 50.4181 254.563 48.7175C252.539 46.8745 251.884 43.8534 253.138 41.2693L261.232 24.7102L242.735 15.6754L234.65 32.2155C233.51 34.5336 231.002 36.0156 228.285 35.7306C225.815 35.4646 223.307 35.4266 220.818 35.5976C218.329 35.7686 215.858 36.1676 213.436 36.7756C210.918 37.4122 208.163 36.4621 206.624 34.1821L196.316 18.8865L179.235 30.3914L189.524 45.6679C190.949 47.815 190.977 50.7126 189.381 52.9167C188.764 53.7717 188.127 54.7122 187.51 55.7288L187.329 56.0423C186.711 57.0778 186.103 58.1799 185.543 59.3389C184.944 60.4979 184.45 61.638 184.023 62.7495C183.633 63.7661 183.263 64.8586 182.93 66.0081C182.322 68.6587 180.033 70.7108 177.183 70.9008L158.819 72.1738L160.244 92.723L178.446 91.4595C181.097 91.1935 183.728 92.6375 184.859 95.2026C185.885 97.5302 187.101 99.7438 188.479 101.786C189.771 103.705 191.262 105.567 192.906 107.297C194.929 109.14 195.585 112.161 194.331 114.745L186.246 131.294L204.743 140.329L212.818 123.789C213.958 121.471 216.466 119.989 219.184 120.274C221.663 120.54 224.181 120.578 226.679 120.407C229.149 120.236 231.62 119.837 234.042 119.229C236.56 118.592 239.315 119.542 240.854 121.823L251.152 137.109L268.234 125.604L257.945 110.327C256.52 108.18 256.491 105.282 258.087 103.078C258.771 102.147 259.455 101.093 260.139 99.9623C260.719 99.0028 261.318 97.8817 261.916 96.6467C262.572 95.3166 263.085 94.1671 263.446 93.2266L263.465 93.2456ZM237.652 49.5536C245.518 53.3917 251.076 60.0609 253.708 67.7182C256.339 75.3755 256.045 84.0492 252.216 91.887C248.378 99.7533 241.709 105.311 234.052 107.943C226.394 110.574 217.721 110.28 209.883 106.451C202.017 102.613 196.459 95.9437 193.827 88.2864C191.196 80.6291 191.49 71.9553 195.319 64.1176C199.157 56.2513 205.826 50.6936 213.483 48.062C221.141 45.4304 229.814 45.7249 237.652 49.5536ZM241.737 71.8223C240.16 67.2337 236.826 63.234 232.114 60.935C227.401 58.6264 222.186 58.4554 217.588 60.0324C212.999 61.6095 208.999 64.9441 206.7 69.6563C204.392 74.3684 204.221 79.5841 205.798 84.1823C207.375 88.7709 210.709 92.7705 215.421 95.0696C220.134 97.3782 225.349 97.5492 229.947 95.9721C234.536 94.3951 238.536 91.0605 240.835 86.3483C243.143 81.6362 243.314 76.4205 241.737 71.8223ZM205.361 204.798C206.14 201.397 209.531 199.269 212.932 200.048C216.333 200.827 218.462 204.219 217.683 207.62L215.155 218.555C227.952 218.241 239.153 215.23 248.73 209.53C259.531 203.117 268.452 193.151 275.463 179.67C277.079 176.573 280.898 175.357 284.004 176.972C287.101 178.587 288.317 182.406 286.702 185.513C278.589 201.103 268.063 212.75 255.161 220.407C245.461 226.174 234.479 229.623 222.224 230.772L229.035 237.584C231.506 240.054 231.506 244.063 229.035 246.543C226.565 249.013 222.556 249.013 220.077 246.543L202.748 229.214C201.275 227.723 200.563 225.519 201.066 223.324L205.342 204.789L205.361 204.798ZM127.667 70.0268C126.888 73.4279 123.496 75.556 120.095 74.7769C116.694 73.9979 114.566 70.6063 115.345 67.2052L117.872 56.2703C105.398 56.5838 94.4349 59.4529 85.02 64.8681L84.7255 65.0486C73.7242 71.4613 64.6609 81.5032 57.5641 95.1551C55.9491 98.2522 52.1299 99.4683 49.0233 97.8532C45.9262 96.2382 44.7102 92.419 46.3252 89.3124C54.5525 73.4944 65.2309 61.7615 78.3413 54.1137L78.7023 53.9237C88.2026 48.4515 98.9 45.1644 110.785 44.0434L103.973 37.2317C101.503 34.7616 101.503 30.7524 103.973 28.2729C106.443 25.8028 110.452 25.8028 112.932 28.2729L130.261 45.6014C131.733 47.093 132.446 49.2971 131.942 51.4916L127.667 70.0173V70.0268ZM114.338 243.332C116.941 241.831 119.411 240.092 121.701 238.163C123.677 236.51 126.565 236.159 128.931 237.517L148.653 248.899L161.849 226.032L142.478 214.84C140.046 213.624 138.592 210.907 139.077 208.095C139.59 205.169 139.846 202.157 139.846 199.136C139.846 196.106 139.58 193.094 139.067 190.168C138.64 187.631 139.78 184.971 142.136 183.613L161.849 172.231L148.653 149.364L128.921 160.755C126.688 162.037 123.8 161.866 121.72 160.109C119.478 158.218 116.998 156.489 114.348 154.95C111.896 153.535 109.322 152.319 106.652 151.321C103.992 150.571 102.045 148.119 102.045 145.222V122.507H75.6907V145.222C75.6717 147.806 74.0757 150.228 71.5106 151.16C68.689 152.186 65.9624 153.459 63.3878 154.941C60.8607 156.404 58.4951 158.047 56.3386 159.833C54.3625 161.743 51.2749 162.199 48.7763 160.755L29.0726 149.373L15.8767 172.231L35.2574 183.423C37.6894 184.639 39.143 187.356 38.6585 190.168C38.136 193.103 37.8794 196.106 37.8794 199.127C37.8794 202.157 38.1455 205.169 38.6585 208.104C39.0765 210.651 37.9269 213.311 35.5614 214.66L15.8767 226.022L29.0821 248.889L48.6148 237.603C50.8854 236.206 53.878 236.349 56.0156 238.163C58.3051 240.092 60.7752 241.831 63.3783 243.341C65.8199 244.747 68.3945 245.963 71.0641 246.961C73.7242 247.711 75.6812 250.162 75.6812 253.06V275.775H102.035V253.06C102.054 250.476 103.65 248.053 106.215 247.122C109.046 246.106 111.763 244.823 114.338 243.341V243.332ZM88.8677 163.063C98.805 163.063 107.821 167.111 114.348 173.628C120.893 180.174 124.94 189.189 124.94 199.136C124.94 209.073 120.893 218.089 114.376 224.616C107.83 231.162 98.8145 235.209 88.8677 235.209C78.9113 235.209 69.886 231.162 63.3688 224.645L63.0268 224.274C56.7091 217.776 52.8044 208.902 52.8044 199.136C52.8044 189.199 56.8516 180.183 63.3688 173.656C69.8955 167.111 78.9208 163.063 88.8677 163.063ZM105.427 182.577C101.199 178.359 95.3374 175.737 88.8677 175.737C82.4075 175.737 76.5458 178.359 72.3181 182.587C68.0905 186.805 65.4684 192.666 65.4684 199.136C65.4684 205.473 67.9765 211.221 72.0331 215.429L72.3181 215.695C76.5458 219.923 82.3979 222.545 88.8677 222.545C95.3374 222.545 101.199 219.923 105.427 215.705C109.645 211.477 112.267 205.615 112.267 199.146C112.267 192.676 109.645 186.814 105.427 182.587V182.577Z" fill="white"/>
</svg>
