<?xml version="1.0" encoding="UTF-8" standalone="no"?><!DOCTYPE svg PUBLIC "-//W3C//DTD SVG 1.1//EN" "http://www.w3.org/Graphics/SVG/1.1/DTD/svg11.dtd"><svg width="100%" height="100%" viewBox="0 0 100 100" version="1.1" xmlns="http://www.w3.org/2000/svg" xmlns:xlink="http://www.w3.org/1999/xlink" xml:space="preserve" xmlns:serif="http://www.serif.com/" style="fill-rule:evenodd;clip-rule:evenodd;stroke-linejoin:round;stroke-miterlimit:2;"><rect id="Artboard1" x="0" y="0" width="100" height="100" style="fill:none;"/><path d="M37.461,14.165c-0.622,-0 -1.133,-0.512 -1.133,-1.134c-0,-0.281 0.105,-0.553 0.294,-0.762c0.747,-1.021 1.15,-2.254 1.15,-3.519c0,-3.27 -2.691,-5.961 -5.961,-5.961c-3.27,-0 -5.961,2.691 -5.961,5.961c-0,1.265 0.403,2.498 1.15,3.519c0.189,0.209 0.294,0.481 0.294,0.762c0,0.622 -0.511,1.133 -1.132,1.134l-6.487,-0c-2.955,0.01 -5.384,2.438 -5.395,5.394l0,29.327l17.701,0l0,-11.471c0.022,-2.135 2.216,-3.952 5.75,-5.168c3.649,-1.14 7.447,-1.733 11.27,-1.759l-0,-16.323l-11.54,-0Zm30.833,23.25l-0,11.471l17.701,0l-0,-10.664c0,-0.622 0.512,-1.133 1.133,-1.133c0.213,0 0.422,0.06 0.602,0.173c0.866,0.465 1.834,0.708 2.817,0.708c3.268,0 5.958,-2.689 5.958,-5.958c-0,-3.267 -2.689,-5.957 -5.956,-5.958c-0.984,-0.007 -1.955,0.236 -2.819,0.706c-0.18,0.113 -0.389,0.173 -0.602,0.173c-0.621,-0 -1.133,-0.511 -1.133,-1.133l-0,-6.241c-0.01,-2.955 -2.439,-5.384 -5.394,-5.394l-4.838,-0c0.088,0.195 0.169,0.394 0.241,0.595c0.317,0.888 0.48,1.823 0.48,2.766c-0,4.511 -3.712,8.223 -8.223,8.223c-4.511,-0 -8.223,-3.712 -8.223,-8.223c0,-0.943 0.162,-1.878 0.479,-2.766c0.073,-0.201 0.153,-0.4 0.241,-0.595l-9.484,-0l0,16.328c3.823,0.025 7.621,0.618 11.27,1.759c3.534,1.209 5.727,3.029 5.75,5.167l-0,-0.004Zm-0,13.743l-0,7.462c-0.023,2.136 -2.216,3.952 -5.75,5.167c-3.649,1.142 -7.447,1.734 -11.27,1.759l0,20.34l11.64,0c0.001,0 0.001,0 0.001,0c0.622,0 1.133,0.511 1.133,1.132c-0,0.277 -0.102,0.544 -0.285,0.751c-0.357,0.491 -0.636,1.035 -0.828,1.611c-0.198,0.601 -0.299,1.231 -0.299,1.864c0,3.268 2.689,5.957 5.957,5.957c3.268,-0 5.957,-2.689 5.957,-5.957c-0,-0.633 -0.101,-1.263 -0.299,-1.864c-0.192,-0.576 -0.471,-1.12 -0.828,-1.611c-0.184,-0.207 -0.285,-0.474 -0.285,-0.751c-0,-0.621 0.511,-1.132 1.132,-1.132c0.001,0 0.001,0 0.001,0l6.331,0c2.956,-0.01 5.384,-2.439 5.394,-5.395l-0,-29.339l-17.702,0.006Zm-2.266,7.429c-0,1.072 -1.612,2.161 -4.219,3.055c-3.778,1.162 -7.716,1.718 -11.668,1.649c-3.952,0.069 -7.89,-0.488 -11.667,-1.649c-2.607,-0.894 -4.22,-1.979 -4.22,-3.055l-0,-3.537c1.079,0.718 2.252,1.285 3.485,1.684c4.014,1.242 8.2,1.84 12.402,1.772c4.202,0.068 8.388,-0.53 12.403,-1.772c1.233,-0.399 2.405,-0.966 3.484,-1.684l-0,3.537Zm-0,-7.044c-0,1.072 -1.612,2.161 -4.219,3.055c-3.778,1.161 -7.716,1.718 -11.668,1.649c-3.952,0.069 -7.89,-0.488 -11.667,-1.649c-2.607,-0.894 -4.22,-1.979 -4.22,-3.055l-0,-3.537c1.079,0.718 2.252,1.284 3.485,1.684c4.014,1.242 8.2,1.84 12.402,1.771c4.202,0.069 8.388,-0.529 12.403,-1.771c1.233,-0.4 2.405,-0.966 3.484,-1.684l-0,3.537Zm-0,-7.044c-0,1.072 -1.612,2.161 -4.219,3.055c-3.778,1.161 -7.716,1.718 -11.668,1.649c-3.952,0.069 -7.89,-0.488 -11.667,-1.649c-2.607,-0.894 -4.22,-1.979 -4.22,-3.055l-0,-3.537c1.079,0.718 2.252,1.284 3.485,1.684c4.014,1.242 8.2,1.84 12.402,1.771c4.202,0.069 8.388,-0.529 12.403,-1.771c1.233,-0.4 2.405,-0.966 3.484,-1.684l-0,3.537Zm-34.039,14.115l0,-7.462l-17.701,0l0,9.323c0,0 0,0.001 0,0.001c0,0.621 -0.511,1.132 -1.132,1.132c-0.241,0 -0.476,-0.076 -0.67,-0.219c-0.444,-0.264 -0.921,-0.468 -1.418,-0.608c-0.525,-0.147 -1.068,-0.222 -1.614,-0.222c-3.267,-0 -5.956,2.689 -5.956,5.957c-0,3.267 2.689,5.956 5.956,5.956c0.546,0 1.089,-0.075 1.614,-0.222c0.497,-0.14 0.974,-0.345 1.418,-0.609c0.194,-0.143 0.429,-0.22 0.67,-0.22c0.621,0 1.132,0.512 1.132,1.133c0,0 0,0.001 0,0.001l0,7.925c0.01,2.956 2.439,5.385 5.395,5.395l3.859,0c-0.073,-0.171 -0.138,-0.346 -0.195,-0.522c-0.281,-0.842 -0.425,-1.723 -0.425,-2.611c-0,-4.511 3.712,-8.223 8.223,-8.223c4.511,0 8.222,3.712 8.222,8.223c0,0.888 -0.143,1.769 -0.425,2.611c-0.059,0.177 -0.124,0.351 -0.195,0.522l10.258,0l0,-20.34c-3.823,-0.025 -7.621,-0.617 -11.269,-1.759c-3.535,-1.209 -5.728,-3.028 -5.75,-5.167l0.003,0.005Zm29.82,-24.22c2.607,0.893 4.219,1.979 4.219,3.055c-0,1.076 -1.612,2.16 -4.219,3.054c-3.778,1.162 -7.716,1.719 -11.668,1.649c-3.952,0.07 -7.89,-0.487 -11.667,-1.649c-2.607,-0.894 -4.22,-1.979 -4.22,-3.054c-0,-1.075 1.613,-2.162 4.22,-3.055c3.777,-1.162 7.715,-1.719 11.667,-1.65c3.952,-0.069 7.89,0.488 11.668,1.65Zm26.454,5.513l0,40.57c-0.011,4.198 -3.462,7.65 -7.661,7.661l-4.398,-0c0.071,0.17 0.134,0.344 0.194,0.52c0.279,0.838 0.422,1.717 0.422,2.601c0,4.511 -3.712,8.222 -8.223,8.222c-4.511,0 -8.222,-3.711 -8.222,-8.222c-0,-0.884 0.142,-1.763 0.422,-2.601c0.059,-0.176 0.123,-0.35 0.193,-0.52l-24.181,-0c-0.621,-0.001 -1.132,-0.513 -1.132,-1.134c-0,-0.276 0.101,-0.544 0.284,-0.751c0.735,-1.015 1.131,-2.237 1.131,-3.491c0,-3.266 -2.687,-5.953 -5.953,-5.953c-3.266,-0 -5.954,2.687 -5.954,5.953c0,0.636 0.102,1.267 0.302,1.871c0.194,0.579 0.476,1.126 0.836,1.62c0.184,0.207 0.285,0.475 0.285,0.752c0,0.621 -0.511,1.133 -1.132,1.133l-5.795,-0c-4.199,-0.011 -7.65,-3.463 -7.661,-7.661l-0,-6.157c-0.11,0.038 -0.228,0.074 -0.344,0.11c-0.729,0.206 -1.483,0.311 -2.241,0.311c-4.511,-0 -8.223,-3.712 -8.223,-8.223c0,-4.511 3.712,-8.222 8.223,-8.222c0.758,-0 1.512,0.104 2.241,0.311c0.116,0.033 0.23,0.069 0.343,0.11l-0,-39.158c0.011,-4.199 3.462,-7.65 7.661,-7.661l4.539,-0c-0.073,-0.174 -0.139,-0.351 -0.199,-0.531c-0.285,-0.846 -0.43,-1.733 -0.43,-2.626c-0,-4.511 3.712,-8.222 8.223,-8.222c4.51,-0 8.222,3.711 8.222,8.222c0,0.893 -0.145,1.78 -0.43,2.626c-0.06,0.18 -0.127,0.357 -0.2,0.531l23.38,-0c0,-0 0.001,-0 0.001,-0c0.621,-0 1.133,0.511 1.133,1.132c-0,0.294 -0.115,0.576 -0.319,0.787c-0.837,1.054 -1.293,2.361 -1.293,3.706c0,3.268 2.689,5.957 5.957,5.957c3.268,-0 5.957,-2.689 5.957,-5.957c-0,-1.345 -0.456,-2.652 -1.293,-3.706c-0.204,-0.211 -0.318,-0.493 -0.318,-0.787c-0,-0.621 0.511,-1.132 1.132,-1.132c0.001,-0 0.001,-0 0.002,-0l6.858,-0c4.199,0.011 7.65,3.462 7.661,7.661l0,4.558c0.079,-0.023 0.159,-0.045 0.24,-0.065c0.673,-0.174 1.366,-0.263 2.062,-0.263c4.511,0 8.223,3.712 8.223,8.223c-0,4.511 -3.712,8.223 -8.223,8.223c-0.696,-0 -1.389,-0.088 -2.062,-0.263l-0.24,-0.065Z" style="fill:url(#_Linear1);"/><defs><linearGradient id="_Linear1" x1="0" y1="0" x2="1" y2="0" gradientUnits="userSpaceOnUse" gradientTransform="matrix(97.5756,0,0,96.198,1.21233,50.2384)"><stop offset="0" style="stop-color:#1685ff;stop-opacity:1"/><stop offset="0.5" style="stop-color:#8b5cf6;stop-opacity:1"/><stop offset="1" style="stop-color:#d946ef;stop-opacity:1"/></linearGradient></defs></svg>