<?xml version="1.0" encoding="UTF-8" standalone="no"?><!DOCTYPE svg PUBLIC "-//W3C//DTD SVG 1.1//EN" "http://www.w3.org/Graphics/SVG/1.1/DTD/svg11.dtd"><svg width="100%" height="100%" viewBox="0 0 103 103" version="1.1" xmlns="http://www.w3.org/2000/svg" xmlns:xlink="http://www.w3.org/1999/xlink" xml:space="preserve" xmlns:serif="http://www.serif.com/" style="fill-rule:evenodd;clip-rule:evenodd;stroke-linejoin:round;stroke-miterlimit:2;"><rect id="Artboard1" x="0" y="0" width="102.275" height="102.275" style="fill:none;"/><path d="M76.235,89.654c0.007,-0.077 0.01,-0.154 0.01,-0.231c0,-1.992 -2.344,-4.16 -6.445,-5.801c-0.703,-0.293 -0.996,-1.113 -0.703,-1.816c0.234,-0.703 1.054,-0.996 1.757,-0.703c5.274,2.109 8.145,5.097 8.145,8.32c-0,6.68 -12.008,11.715 -27.887,11.715l-0,-0c-13.916,-0 -24.818,-3.872 -27.297,-9.325c-0.116,-0.165 -0.195,-0.357 -0.225,-0.566c-0.202,-0.593 -0.306,-1.201 -0.306,-1.824c-0,-3.223 2.871,-6.211 8.144,-8.32c0.703,-0.293 1.465,-0 1.758,0.703c0.293,0.703 -0.058,1.523 -0.762,1.816c-4.101,1.641 -6.445,3.809 -6.445,5.801c0,0.077 0.003,0.154 0.01,0.231l11.119,-0c0.762,-0 1.348,0.644 1.348,1.406c-0,0.762 -0.586,1.348 -1.348,1.348l-9.524,-0c3.451,3.218 12.194,5.98 23.528,5.98c11.376,-0 20.096,-2.762 23.535,-5.98l-8.832,-0c-0.762,-0 -1.348,-0.586 -1.348,-1.348c0,-0.762 0.586,-1.406 1.348,-1.406l10.42,-0Zm-25.123,1.175c-2.813,-0 -5.508,-1.113 -7.5,-3.106c-0,-0.058 -0.059,-0.058 -0.059,-0.058c-2.285,-2.637 -4.922,-5.449 -7.734,-8.379c-11.012,-11.656 -23.492,-24.898 -23.492,-39.309c-0,-21.441 17.398,-38.84 38.781,-38.84c21.441,-0 38.84,17.398 38.84,38.84c-0,14.41 -12.477,27.652 -23.551,39.25c-2.754,2.988 -5.391,5.742 -7.676,8.379c-0.059,0.058 -0.059,0.058 -0.059,0.117c-2.05,1.992 -4.687,3.105 -7.558,3.105l0.008,0.001Zm-5.508,-5.039c1.465,1.465 3.457,2.285 5.508,2.285c2.109,-0 4.101,-0.82 5.566,-2.285c2.285,-2.637 4.922,-5.449 7.735,-8.438c10.719,-11.246 22.789,-24.02 22.789,-37.375c-0,-19.918 -16.168,-36.086 -36.086,-36.086c-19.859,0 -36.086,16.168 -36.086,36.086c-0,13.355 12.125,26.129 22.789,37.375c2.812,2.989 5.449,5.801 7.793,8.438l-0.008,-0Zm5.508,-17.984c-15.348,-0 -27.828,-12.477 -27.828,-27.828c-0,-15.348 12.477,-27.887 27.828,-27.887c15.406,-0 27.887,12.535 27.887,27.887c-0,15.348 -12.477,27.828 -27.887,27.828Zm-0,-52.957c-13.824,-0 -25.133,11.246 -25.133,25.133c-0,13.824 11.305,25.133 25.133,25.133c13.883,-0 25.133,-11.305 25.133,-25.133c-0,-13.883 -11.246,-25.133 -25.133,-25.133Zm9.957,41.18l-1.817,-0c-0.761,-0 -1.347,-0.586 -1.347,-1.348c-0,-0.762 0.586,-1.406 1.347,-1.406l1.817,-0c1.875,-0 3.398,-1.523 3.398,-3.398l0,-1.758c0,-0.762 0.586,-1.406 1.348,-1.406c0.762,-0 1.348,0.644 1.348,1.406l-0,1.758c-0,3.398 -2.696,6.152 -6.094,6.152Zm-18.043,-0l-1.817,-0c-3.398,-0 -6.152,-2.754 -6.152,-6.152l0,-1.758c0,-0.762 0.645,-1.406 1.406,-1.406c0.703,-0 1.348,0.644 1.348,1.406l0,1.758c0,1.875 1.523,3.398 3.398,3.398l1.817,-0c0.762,-0 1.348,0.644 1.348,1.406c-0,0.762 -0.645,1.348 -1.348,1.348Zm8.086,-6.852c-5.039,-0 -9.199,-4.102 -9.199,-9.199c-0,-5.098 4.16,-9.2 9.199,-9.2c5.098,0 9.258,4.102 9.258,9.2c-0,5.097 -4.161,9.199 -9.258,9.199Zm-0,-15.699c-3.574,-0 -6.445,2.93 -6.445,6.504c-0,3.574 2.871,6.445 6.445,6.445c3.574,0 6.504,-2.871 6.504,-6.445c-0,-3.574 -2.93,-6.504 -6.504,-6.504Zm14.703,-0.297c-0.762,-0 -1.348,-0.586 -1.348,-1.348l0,-1.816c0,-1.875 -1.523,-3.399 -3.398,-3.399l-1.817,0c-0.761,0 -1.347,-0.586 -1.347,-1.347c-0,-0.762 0.586,-1.348 1.347,-1.348l1.817,-0c3.34,-0 6.094,2.754 6.094,6.094l-0,1.816c-0,0.762 -0.586,1.348 -1.348,1.348Zm-29.352,-0c-0.762,-0 -1.406,-0.586 -1.406,-1.348l-0,-1.816c-0,-3.34 2.754,-6.094 6.152,-6.094l1.816,-0c0.762,-0 1.348,0.586 1.348,1.348c0,0.761 -0.586,1.347 -1.348,1.347l-1.816,0c-1.875,0 -3.398,1.524 -3.398,3.399l-0,1.816c-0,0.762 -0.645,1.348 -1.348,1.348Z" style="fill:url(#_Linear1);"/><defs><linearGradient id="_Linear1" x1="0" y1="0" x2="1" y2="0" gradientUnits="userSpaceOnUse" gradientTransform="matrix(77.6225,0,0,85.1241,12.327,51.3782)"><stop offset="0" style="stop-color:#1685ff;stop-opacity:1"/><stop offset="0.5" style="stop-color:#8b5cf6;stop-opacity:1"/><stop offset="1" style="stop-color:#d946ef;stop-opacity:1"/></linearGradient></defs></svg>