<?xml version="1.0" encoding="UTF-8" standalone="no"?><!DOCTYPE svg PUBLIC "-//W3C//DTD SVG 1.1//EN" "http://www.w3.org/Graphics/SVG/1.1/DTD/svg11.dtd"><svg width="100%" height="100%" viewBox="0 0 200 200" version="1.1" xmlns="http://www.w3.org/2000/svg" xmlns:xlink="http://www.w3.org/1999/xlink" xml:space="preserve" xmlns:serif="http://www.serif.com/" style="fill-rule:evenodd;clip-rule:evenodd;stroke-linejoin:round;stroke-miterlimit:2;"><g id="Layer3"><path d="M191.217,9.003l-55.48,0c-1.442,0 -2.611,1.169 -2.611,2.611l0,30.515c0,1.443 1.169,2.612 2.611,2.612l18.975,0l-1.165,4.277l-6.221,0c-1.443,0 -2.612,1.169 -2.612,2.611c0,1.443 1.169,2.612 2.612,2.612l32.309,0c1.442,0 2.611,-1.169 2.611,-2.612c0,-1.442 -1.169,-2.611 -2.611,-2.611l-6.224,0l-1.165,-4.277l18.975,0c1.443,0 2.611,-1.169 2.611,-2.612l0,-30.515c-0.004,-1.442 -1.173,-2.611 -2.615,-2.611Zm-32.259,40.013l1.165,-4.278l6.709,0l1.164,4.278l-9.038,0Zm29.648,-9.498l-50.26,0l0,-1.018l50.26,0l0,1.018Zm0,-6.24l-50.26,0l0,-19.053l50.26,0l0,19.053Zm-1.583,119.472c-0.746,-2.548 -2.396,-4.495 -4.641,-5.475c-0.749,-0.327 -1.518,-0.529 -2.292,-0.605c-0.01,-0.002 -0.023,-0.002 -0.033,-0.004c-0.383,-0.035 -0.767,-0.037 -1.15,-0.008l-31.351,0c-1.169,-0.09 -2.338,0.117 -3.477,0.615c-2.245,0.982 -3.893,2.926 -4.639,5.475l-6.408,21.866c-1.152,3.933 0.261,8.168 3.435,10.301c3.397,2.285 7.704,1.488 10.242,-1.892l6.818,-9.08l19.405,0l6.818,9.08c1.568,2.088 3.809,3.188 6.094,3.188c1.415,0 2.849,-0.422 4.148,-1.296c3.175,-2.135 4.587,-6.37 3.435,-10.301l-6.404,-21.864Zm0.059,27.835c-1.079,0.725 -2.288,0.46 -3.153,-0.694l-7.602,-10.123c-0.493,-0.656 -1.267,-1.043 -2.088,-1.043l-22.015,0c-0.822,0 -1.595,0.387 -2.088,1.043l-7.602,10.123c-0.866,1.154 -2.074,1.419 -3.153,0.694c-1.286,-0.863 -1.848,-2.755 -1.338,-4.499l6.408,-21.866c0.318,-1.085 0.88,-1.792 1.721,-2.16c0.366,-0.159 0.7,-0.219 1.024,-0.19c0.084,0.008 0.167,0.012 0.251,0.012l31.573,0c0.084,0 0.167,-0.004 0.249,-0.012c0.109,-0.011 0.215,-0.011 0.328,0c0.006,0 0.013,0.002 0.017,0.002c0.217,0.023 0.445,0.086 0.679,0.188c0.841,0.368 1.403,1.075 1.721,2.16l6.406,21.866c0.51,1.741 -0.053,3.633 -1.338,4.499Zm-28.325,-20.192c0,1.443 -1.168,2.612 -2.611,2.612l-2.174,0l0,2.176c0,1.443 -1.169,2.611 -2.611,2.611c-1.443,0 -2.612,-1.168 -2.612,-2.611l0,-2.176l-2.174,0c-1.442,0 -2.611,-1.169 -2.611,-2.612c0,-1.442 1.169,-2.611 2.611,-2.611l2.174,0l0,-2.176c0,-1.443 1.169,-2.611 2.612,-2.611c1.442,0 2.611,1.168 2.611,2.611l0,2.176l2.174,0c1.441,0 2.611,1.169 2.611,2.611Zm16.899,-7.156c-3.947,0 -7.156,3.211 -7.156,7.156c0,3.948 3.211,7.157 7.156,7.157c3.945,0 7.156,-3.211 7.156,-7.157c0.003,-3.945 -3.209,-7.156 -7.156,-7.156Zm0,9.09c-1.066,0 -1.934,-0.867 -1.934,-1.934c0,-1.066 0.868,-1.933 1.934,-1.933c1.066,0 1.934,0.867 1.934,1.933c0,1.067 -0.866,1.934 -1.934,1.934Zm-137.864,-32.252l-27.544,0c-2.436,0 -4.416,1.98 -4.416,4.415l0,47.303c0,2.436 1.98,4.416 4.416,4.416l27.546,0c2.436,0 4.416,-1.98 4.416,-4.416l0,-47.303c0,-2.433 -1.982,-4.415 -4.418,-4.415Zm-8.256,5.222l-0.286,0.719l-10.458,0l-0.286,-0.719l11.03,0Zm7.451,45.689l-25.932,0l0,-45.689l1.829,0l1.712,4.299c0.395,0.993 1.357,1.645 2.425,1.645l13.997,0c1.069,0 2.03,-0.652 2.426,-1.645l1.712,-4.299l1.829,0l0,45.689l0.002,0Zm-25.485,-141.395l46.145,0c1.443,0 2.611,-1.168 2.611,-2.611l0,-23.675c0,-2.372 -1.929,-4.302 -4.302,-4.302l-42.762,0c-2.373,0 -4.303,1.93 -4.303,4.302l0,23.675c0,1.443 1.169,2.611 2.611,2.611Zm2.611,-25.366l40.925,0l0,20.144l-40.925,0l0,-20.144Zm-2.155,37.739l45.233,0c3.331,0 6.038,-2.71 6.038,-6.04l0,-3.429c0,-1.442 -1.169,-2.611 -2.611,-2.611l-52.089,0c-1.442,0 -2.611,1.169 -2.611,2.611l0,3.429c0.002,3.332 2.71,6.04 6.04,6.04Zm-0.818,-6.855l46.867,0l0,0.817c0,0.443 -0.375,0.817 -0.818,0.817l-45.231,0c-0.443,0 -0.818,-0.374 -0.818,-0.817l0,-0.817Zm109.877,32.666c-1.02,-1.02 -1.02,-2.672 0,-3.692l16.669,-16.669c1.02,-1.02 2.674,-1.02 3.692,0c1.02,1.02 1.02,2.672 0,3.692l-16.669,16.669c-0.51,0.51 -1.177,0.765 -1.846,0.765c-0.669,0 -1.336,-0.255 -1.846,-0.765Zm-43.189,43.189c1.02,1.02 1.02,2.672 0,3.692l-16.669,16.669c-0.51,0.51 -1.179,0.765 -1.846,0.765c-0.669,0 -1.336,-0.255 -1.846,-0.765c-1.02,-1.021 -1.02,-2.672 0,-3.692l16.669,-16.669c1.02,-1.018 2.672,-1.018 3.692,0Zm-16.669,-63.55l16.669,16.669c1.02,1.02 1.02,2.672 0,3.692c-0.51,0.51 -1.177,0.765 -1.846,0.765c-0.669,0 -1.336,-0.255 -1.846,-0.765l-16.669,-16.669c-1.02,-1.02 -1.02,-2.672 0,-3.692c1.021,-1.02 2.672,-1.018 3.692,0Zm76.527,83.911l-16.669,-16.669c-1.02,-1.02 -1.02,-2.672 0,-3.692c1.02,-1.02 2.672,-1.02 3.692,0l16.669,16.669c1.02,1.02 1.02,2.673 0,3.692c-0.51,0.51 -1.177,0.765 -1.846,0.765c-0.669,0 -1.336,-0.255 -1.846,-0.765Zm-15.791,-37.421l-3.473,-2.097c0.086,-0.681 0.138,-1.367 0.151,-2.055c0.012,-0.688 -0.011,-1.376 -0.069,-2.059l3.554,-1.959c0.606,-0.335 1.056,-0.895 1.248,-1.562c0.193,-0.665 0.113,-1.38 -0.221,-1.986l-4.953,-8.986c-0.696,-1.263 -2.285,-1.722 -3.548,-1.026l-3.552,1.959c-1.096,-0.839 -2.273,-1.552 -3.521,-2.131l0.082,-4.051c0.014,-0.692 -0.249,-1.361 -0.728,-1.861c-0.478,-0.5 -1.137,-0.788 -1.831,-0.801l-10.259,-0.203c-1.44,-0.029 -2.634,1.117 -2.661,2.559l-0.082,4.052c-1.269,0.531 -2.473,1.196 -3.602,1.99l-3.473,-2.097c-0.591,-0.357 -1.302,-0.466 -1.975,-0.301c-0.674,0.166 -1.251,0.592 -1.61,1.186l-5.306,8.783c-0.747,1.233 -0.349,2.839 0.884,3.585l3.473,2.097c-0.086,0.682 -0.138,1.367 -0.151,2.055c-0.012,0.688 0.011,1.376 0.069,2.059l-3.552,1.959c-1.263,0.697 -1.723,2.283 -1.026,3.548l4.952,8.986c0.335,0.606 0.895,1.056 1.562,1.248c0.665,0.192 1.38,0.113 1.986,-0.222l3.552,-1.959c1.098,0.839 2.273,1.552 3.521,2.131l-0.082,4.051c-0.029,1.441 1.117,2.635 2.559,2.662l10.259,0.205l0.052,0c0.674,0 1.322,-0.262 1.809,-0.728c0.5,-0.479 0.788,-1.137 0.801,-1.831l0.081,-4.052c1.269,-0.531 2.473,-1.196 3.602,-1.99l3.473,2.097c0.592,0.357 1.302,0.466 1.976,0.301c0.673,-0.165 1.25,-0.592 1.609,-1.186l5.306,-8.782c0.745,-1.238 0.347,-2.844 -0.886,-3.588Zm-7.48,-9.92c-0.989,0.546 -1.516,1.664 -1.305,2.774c0.18,0.947 0.261,1.919 0.243,2.892c-0.019,0.97 -0.141,1.938 -0.356,2.878c-0.255,1.1 0.228,2.239 1.194,2.823l2.77,1.674l-2.605,4.313l-2.774,-1.676c-0.968,-0.586 -2.202,-0.481 -3.057,0.259c-1.484,1.281 -3.182,2.218 -5.044,2.785c-1.081,0.328 -1.83,1.317 -1.851,2.446l-0.065,3.236l-5.036,-0.1l0.065,-3.237c0.023,-1.129 -0.686,-2.147 -1.752,-2.517c-1.84,-0.64 -3.498,-1.643 -4.93,-2.983c-0.826,-0.772 -2.055,-0.926 -3.044,-0.381l-2.839,1.564l-2.431,-4.411l2.835,-1.562c0.988,-0.545 1.515,-1.664 1.304,-2.772c-0.18,-0.947 -0.261,-1.919 -0.242,-2.891c0.018,-0.97 0.14,-1.941 0.355,-2.879c0.255,-1.1 -0.228,-2.239 -1.194,-2.823l-2.77,-1.674l2.605,-4.313l2.774,1.676c0.968,0.584 2.202,0.481 3.057,-0.259c1.484,-1.281 3.182,-2.218 5.045,-2.785c1.081,-0.328 1.829,-1.317 1.85,-2.446l0.065,-3.236l5.036,0.1l-0.065,3.237c-0.023,1.131 0.686,2.147 1.752,2.517c1.84,0.64 3.498,1.643 4.93,2.983c0.826,0.772 2.053,0.926 3.044,0.381l2.839,-1.564l2.432,4.413l-2.835,1.558Zm-14.783,-5.124c-2.808,-0.059 -5.47,0.984 -7.493,2.931c-2.024,1.946 -3.172,4.564 -3.226,7.371c-0.057,2.808 0.985,5.47 2.931,7.493c1.946,2.026 4.564,3.172 7.372,3.226c0.071,0.002 0.144,0.002 0.215,0.002c2.728,0 5.306,-1.037 7.277,-2.933c2.024,-1.946 3.172,-4.564 3.226,-7.372c0.057,-2.807 -0.984,-5.469 -2.931,-7.492c-1.946,-2.026 -4.564,-3.172 -7.371,-3.226Zm3.458,14.325c-1.019,0.978 -2.359,1.509 -3.772,1.474c-1.413,-0.027 -2.73,-0.604 -3.711,-1.625c-0.978,-1.02 -1.503,-2.358 -1.476,-3.771c0.027,-1.414 0.604,-2.731 1.625,-3.709c0.993,-0.953 2.289,-1.476 3.662,-1.476c0.036,0 0.071,0 0.109,0.002c1.413,0.027 2.73,0.604 3.711,1.624c0.978,1.019 1.503,2.359 1.476,3.772c-0.027,1.413 -0.606,2.73 -1.624,3.709Z" style="fill:url(#_Linear1);fill-rule:nonzero;"/></g><defs><linearGradient id="_Linear1" x1="0" y1="0" x2="1" y2="0" gradientUnits="userSpaceOnUse" gradientTransform="matrix(183.778,183.784,-183.784,183.778,8.5629,7.75589)"><stop offset="0" style="stop-color:#4d7aff;stop-opacity:1"/><stop offset="1" style="stop-color:#d748f0;stop-opacity:1"/></linearGradient></defs></svg>