<?xml version="1.0" encoding="UTF-8"?><svg id="a" xmlns="http://www.w3.org/2000/svg" xmlns:xlink="http://www.w3.org/1999/xlink" viewBox="0 0 50 50"><defs><style>.c{fill:url(#b);}</style><linearGradient id="b" x1="3.42" y1="25.1" x2="46.58" y2="25.1" gradientTransform="matrix(1, 0, 0, 1, 0, 0)" gradientUnits="userSpaceOnUse"><stop offset=".01" stop-color="#4376fc"/><stop offset=".99" stop-color="#c84bf1"/></linearGradient></defs><path class="c" d="M37.6,18.33h-.62v-4.84c0-1.33-1.09-2.42-2.42-2.42s-2.33,1-2.41,2.26l-8.5,4.71h-5.41c-2.13,0-3.86,1.73-3.86,3.86,0,1.82,1.27,3.35,2.97,3.75v3.33c-2.08,1.05-4.16,2.66-5.98,4.13h-1.69v-.38c0-.37-.3-.67-.67-.67H4.1c-.37,0-.67,.3-.67,.67s.3,.67,.67,.67h4.23v9.51H4.1c-.37,0-.67,.3-.67,.67s.3,.67,.67,.67h4.9c.37,0,.67-.3,.67-.67v-.05c2.48,1.44,5.01,2.08,7.47,2.7,.24,.06,.47,.12,.71,.18,.05,.01,.11,.02,.17,.02h7.39c1.2,0,2.17-.98,2.17-2.17v-.35c0-.33-.07-.64-.21-.92,.88-.28,1.52-1.1,1.52-2.07v-.35c0-.45-.14-.87-.37-1.21,.57-.39,.94-1.05,.94-1.79v-.35c0-.74-.37-1.39-.94-1.79,.23-.35,.37-.76,.37-1.21v-.35c0-1.2-.98-2.17-2.17-2.17h-3.9v-5.94h.81l8.5,4.71c.08,1.26,1.13,2.26,2.41,2.26s2.42-1.09,2.42-2.42v-4.84h.62c1.97,0,3.57-1.6,3.57-3.57s-1.6-3.56-3.57-3.56h0Zm-10.88,14.71c.45,0,.82,.37,.82,.82v.35c0,.45-.37,.82-.82,.82h-4.27c-.37,0-.67,.3-.67,.67s.3,.67,.67,.67h4.84c.45,0,.82,.37,.82,.82v.35c0,.45-.37,.82-.82,.82h-4.84c-.37,0-.67,.3-.67,.67s.3,.67,.67,.67h4.27c.45,0,.82,.37,.82,.82v.35c0,.45-.37,.82-.82,.82h-4.27c-.37,0-.67,.3-.67,.67s.3,.67,.67,.67h2.96c.45,0,.82,.37,.82,.82v.35c0,.45-.37,.82-.82,.82h-7.31c-.21-.06-.42-.11-.63-.16-2.71-.68-5.28-1.33-7.8-2.98v-7.5h1.93c.15,0,.3-.05,.42-.15,1.63-1.32,3.48-2.77,5.32-3.8v1.86c0,.37,.3,.67,.67,.67h8.71Zm-8.03-1.35v-5.94h2.79v5.94h-2.79Zm4.45-7.28h-4.91c-1.38,0-2.51-1.13-2.51-2.51s1.13-2.51,2.51-2.51h4.91v5.02Zm9,4.51l-7.65-4.23v-5.58l7.65-4.23v14.05Zm3.5,1.38c0,.59-.48,1.07-1.07,1.07s-1.07-.48-1.07-1.07V13.48c0-.59,.48-1.07,1.07-1.07s1.07,.48,1.07,1.07V30.3Zm1.97-6.19h-.62v-4.43h.62c1.22,0,2.22,.99,2.22,2.22s-.99,2.22-2.22,2.22h0Zm5.28-2.02c-.37,0-.67-.3-.67-.67s.3-.67,.67-.67h3.03c.37,0,.67,.3,.67,.67s-.3,.67-.67,.67h-3.03Zm-.32-4.37c-.23-.3-.17-.72,.12-.94l2.62-2.02c.3-.23,.72-.17,.94,.12s.17,.72-.12,.94l-2.62,2.02c-.12,.09-.27,.14-.41,.14-.2,0-.4-.09-.53-.26Zm3.69,10.24c-.13,.17-.33,.26-.53,.26-.14,0-.29-.05-.41-.14l-2.62-2.02c-.3-.23-.35-.65-.12-.94,.23-.3,.65-.35,.94-.12l2.62,2.02c.3,.23,.35,.65,.13,.94h0ZM3.76,16l6.34,3.67c.1,.06,.22,.09,.34,.09s.23-.03,.34-.09l6.35-3.67c.21-.12,.34-.34,.34-.58v-2.94h7.18l2.32,2.44c.13,.14,.31,.21,.49,.21,.17,0,.33-.06,.46-.19,.27-.26,.28-.68,.03-.95l-2.52-2.65c-.13-.13-.3-.21-.49-.21h-7.48v-3.04c0-.24-.13-.46-.34-.58l-6.35-3.67c-.21-.12-.47-.12-.67,0L3.76,7.51c-.21,.12-.34,.34-.34,.58v7.33c0,.24,.13,.46,.34,.58h0Zm12.35-.97l-5,2.89v-5.77l5-2.89v5.77ZM10.44,5.21l5,2.89-5,2.88-5-2.88,5-2.89Zm-5.67,4.05l5,2.88v5.77l-5-2.89v-5.77Z"/></svg>