<svg width="50" height="50" viewBox="0 0 50 50" fill="none" xmlns="http://www.w3.org/2000/svg">
<g clip-path="url(#clip0_412_78)">
<path d="M49.8127 32.2915C49.4592 31.2507 48.6165 30.4952 47.4393 30.164C46.1752 29.8084 44.5325 29.9232 42.5561 30.5044L33.5805 33.145C33.1173 32.2065 32.2675 31.464 31.1792 31.1734L24.7939 29.4675C20.1271 26.2029 17.6278 27.1436 13.9528 28.9441C11.9255 29.9372 9.86504 30.9157 7.76456 31.9079L7.59956 31.5327C7.11623 30.433 5.82758 29.9307 4.72742 30.4135L1.30679 31.9137C0.770464 32.1492 0.359135 32.5767 0.148137 33.118C-0.0629445 33.6592 -0.0494115 34.2528 0.186636 34.7887L6.30441 48.6969C6.66324 49.5123 7.46473 49.9995 8.30422 49.9995C8.59589 49.9995 8.89305 49.9405 9.17671 49.816L12.5972 48.3159C13.1335 48.0804 13.5448 47.6529 13.7558 47.111C13.967 46.5699 13.9528 45.9761 13.7175 45.4404L13.1205 44.0829L16.173 42.5962C16.9913 42.1979 17.814 42.1271 18.688 42.3803L25.8644 44.4586C26.3927 44.6117 26.9377 44.6767 27.4909 44.6767C29.4013 44.6767 31.4038 43.8957 33.087 43.2392C33.2353 43.1812 33.3803 43.1251 33.5226 43.0697L46.9848 37.871C49.1697 37.0271 50.5173 34.3677 49.8127 32.2915ZM12.4358 46.5969C12.3622 46.7852 12.2177 46.9352 12.0284 47.018L8.60789 48.5182C8.22256 48.687 7.77106 48.5117 7.60173 48.1264L1.48379 34.2188C1.40046 34.0293 1.39512 33.8215 1.46862 33.6332C1.54229 33.4448 1.68679 33.295 1.87629 33.2122L5.29675 31.7119C5.39625 31.668 5.50025 31.6475 5.60242 31.6475C5.89641 31.6475 6.17724 31.818 6.30274 32.1037L12.4207 46.0119C12.5035 46.2007 12.5088 46.4085 12.4358 46.5969ZM46.4739 36.5493L33.0116 41.7481C32.8683 41.8034 32.7216 41.8608 32.5717 41.9193C30.6012 42.6877 28.1479 43.6446 26.2579 43.0974L19.0814 41.0191C17.8718 40.6689 16.6838 40.7708 15.5522 41.3223L12.5495 42.7851L8.33556 33.2052C10.4529 32.205 12.5295 31.2189 14.5763 30.2165C18.0033 28.5377 19.9826 27.7967 24.0801 30.6977C24.1487 30.7464 24.2251 30.782 24.3069 30.8037L30.8138 32.5422C32.063 32.876 32.8077 34.1637 32.4738 35.4127C32.313 36.0145 31.9245 36.5195 31.3805 36.834C30.836 37.1483 30.205 37.2333 29.6032 37.0726L20.9556 34.7622C20.5779 34.661 20.1893 34.8855 20.0881 35.2638C19.9869 35.6417 20.2114 36.0303 20.5898 36.1315L29.2374 38.442C30.205 38.7006 31.2177 38.5653 32.0895 38.0608C32.9613 37.5565 33.5838 36.7463 33.8425 35.7787C33.9561 35.3537 33.9918 34.9262 33.9583 34.511L42.9554 31.8645C45.924 30.991 47.986 31.3212 48.4705 32.7478C48.9298 34.0992 47.9405 35.9826 46.4739 36.5493ZM23.9252 20.5045C24.8269 20.5045 25.3904 21.0895 25.6171 21.6366C25.8439 22.1838 25.8591 22.9961 25.2216 23.6338C24.6511 24.2041 24.6511 25.1324 25.2216 25.7028L26.8457 27.3269C27.416 27.8974 28.3437 27.8974 28.9147 27.3269C29.5533 26.6884 30.3652 26.7029 30.9123 26.9297C31.4595 27.1566 32.044 27.7204 32.044 28.6232C32.044 29.4295 32.7005 30.086 33.507 30.086H35.8038C36.6103 30.086 37.2668 29.4295 37.2668 28.6232C37.2668 27.7216 37.8518 27.1581 38.3989 26.9314C38.9461 26.7046 39.7584 26.6894 40.3961 27.3269C40.6721 27.6031 41.0396 27.7556 41.4302 27.7556C41.8211 27.7556 42.1886 27.6036 42.4646 27.3269L44.0887 25.7028C44.3654 25.4268 44.5174 25.0593 44.5174 24.6686C44.5174 24.2778 44.3654 23.9103 44.0887 23.6343C43.4512 22.9968 43.4664 22.185 43.693 21.6371C43.9199 21.09 44.4834 20.505 45.385 20.505C46.1914 20.505 46.8478 19.8485 46.8478 19.0421V17.8937C46.8478 17.5023 46.5307 17.1852 46.1394 17.1852H43.4664L43.4637 15.667H44.0785C44.3122 16.0318 44.7204 16.2743 45.1864 16.2743C45.9132 16.2743 46.502 15.6855 46.502 14.9587C46.502 14.2317 45.9132 13.6429 45.1864 13.6429C44.7209 13.6429 44.3129 13.8854 44.079 14.2502H42.7547C42.5664 14.2502 42.3861 14.3249 42.2536 14.458C42.1204 14.5912 42.0462 14.7719 42.0462 14.9597L42.0506 17.1852H40.2682C39.8771 17.1852 39.5599 17.5023 39.5599 17.8937C39.5599 20.5975 37.3604 22.7969 34.6565 22.7969C31.9525 22.7969 29.753 20.5975 29.753 17.8937C29.753 17.5023 29.4358 17.1852 29.0447 17.1852H27.2624L27.2667 14.9597C27.2672 14.7714 27.1925 14.5912 27.0594 14.458C26.9264 14.3249 26.746 14.2502 26.5582 14.2502H25.2339C25.0001 13.8854 24.5921 13.6429 24.1266 13.6429C23.3997 13.6429 22.8109 14.2317 22.8109 14.9587C22.8109 15.6855 23.4002 16.2743 24.1266 16.2743C24.5921 16.2743 25.0001 16.0318 25.2346 15.667H25.8492L25.8466 17.1852H23.1709C22.7796 17.1852 22.4624 17.5023 22.4624 17.8937V19.0421C22.4624 19.8485 23.1184 20.5045 23.9252 20.5045ZM23.8792 18.602H28.3735C28.7269 21.7551 31.4092 24.2139 34.6548 24.2139C37.9004 24.2139 40.5827 21.7546 40.9362 18.602H45.4304V19.0421C45.4304 19.0675 45.4099 19.0881 45.3844 19.0881C44.046 19.0881 42.8964 19.8571 42.3834 21.095C41.8704 22.3331 42.1399 23.6899 43.0859 24.6361C43.089 24.6393 43.0994 24.6496 43.0994 24.6686C43.0994 24.6874 43.089 24.6978 43.0859 24.7009L41.4617 26.3252C41.4584 26.3284 41.4482 26.3387 41.4292 26.3387C41.4102 26.3387 41.4001 26.3284 41.3967 26.3252C40.4507 25.3791 39.0934 25.1096 37.8556 25.6228C36.6178 26.1352 35.8488 27.2852 35.8488 28.6237C35.8488 28.6492 35.8281 28.6697 35.8028 28.6697H33.5058C33.4805 28.6697 33.4598 28.6492 33.4598 28.6237C33.4598 27.2842 32.6908 26.1336 31.4535 25.6211C31.039 25.4496 30.6108 25.3656 30.1893 25.3656C29.3525 25.3656 28.5414 25.6958 27.9119 26.3257C27.9087 26.3289 27.8984 26.3392 27.8794 26.3392C27.8605 26.3392 27.8502 26.3289 27.8469 26.3257L26.2227 24.7016C26.2049 24.6838 26.2049 24.6544 26.2227 24.6366C27.1687 23.6906 27.4384 22.3331 26.9252 21.0955C26.4127 19.8576 25.2626 19.0886 23.9242 19.0886C23.8987 19.0886 23.8782 19.068 23.8782 19.0426L23.8792 18.602ZM40.5232 12.483C40.6142 12.503 40.7089 12.5145 40.8057 12.5145C41.5326 12.5145 42.1214 11.925 42.1214 11.1987C42.1214 10.4719 41.5326 9.88307 40.8057 9.88307C40.0789 9.88307 39.4901 10.4719 39.4901 11.1987C39.4901 11.2957 39.5014 11.3904 39.5214 11.4814L36.2726 14.7302C36.1394 14.8634 36.0653 15.043 36.0653 15.2314V17.1852H33.245V15.2314C33.245 15.0435 33.1703 14.8634 33.0376 14.7302L29.7888 11.4814C29.8088 11.3904 29.8202 11.2957 29.8202 11.1987C29.8202 10.4719 29.2314 9.88307 28.5045 9.88307C27.7777 9.88307 27.1889 10.4719 27.1889 11.1987C27.1889 11.9257 27.7782 12.5145 28.5045 12.5145C28.6014 12.5145 28.696 12.503 28.787 12.483L31.8287 15.5247V17.1852H31.4162C31.025 17.1852 30.7078 17.5023 30.7078 17.8937C30.7078 20.0703 32.4787 21.8418 34.656 21.8418C36.8333 21.8418 38.6041 20.071 38.6041 17.8937C38.6041 17.5023 38.2869 17.1852 37.8956 17.1852H37.4833V15.5247L40.5232 12.483ZM34.6548 20.4243C33.5053 20.4243 32.5322 19.6536 32.2248 18.602H37.0849C36.7774 19.6536 35.8045 20.4243 34.6548 20.4243ZM26.5079 4.37629C26.2314 4.09963 26.2314 3.65096 26.5079 3.37447C28.6842 1.19832 31.5775 0 34.6548 0C37.7323 0 40.6249 1.19882 42.8012 3.37497C43.0777 3.65163 43.0777 4.10029 42.8012 4.37679C42.6627 4.51529 42.4814 4.58412 42.3001 4.58412C42.1187 4.58412 41.9374 4.51479 41.7989 4.37679C39.8901 2.46798 37.3528 1.41682 34.6543 1.41682C31.9553 1.41682 29.418 2.46798 27.5092 4.37629C27.2337 4.65279 26.785 4.65279 26.5079 4.37629ZM39.3883 6.78793C38.1241 5.52361 36.4429 4.82712 34.6555 4.82712C32.8672 4.82712 31.1862 5.52311 29.922 6.78743C29.6453 7.06393 29.1967 7.06393 28.9202 6.78743C28.6435 6.51077 28.6435 6.06211 28.9202 5.78561C30.4523 4.25396 32.489 3.41013 34.6555 3.41013C36.8219 3.41013 38.8584 4.25396 40.3906 5.78611C40.6672 6.06261 40.6672 6.51127 40.3906 6.78793C40.2521 6.92643 40.0707 6.99526 39.8894 6.99526C39.7082 6.99526 39.5263 6.92643 39.3883 6.78793ZM34.6548 6.82093C35.9105 6.82093 37.0908 7.3096 37.9784 8.19775C38.2549 8.47425 38.2549 8.92291 37.9784 9.19958C37.8399 9.33808 37.6586 9.40691 37.4773 9.40691C37.2959 9.40691 37.1146 9.33758 36.9761 9.19958C36.356 8.57925 35.5316 8.23775 34.6543 8.23775C33.777 8.23775 32.9526 8.57925 32.3325 9.19958C32.056 9.47607 31.6073 9.47607 31.3307 9.19958C31.0542 8.92291 31.0542 8.47425 31.3307 8.19775C32.2193 7.3101 33.3998 6.82093 34.6548 6.82093Z" fill="url(#paint0_linear_412_78)"/>
</g>
<defs>
<linearGradient id="paint0_linear_412_78" x1="-0.000695207" y1="25.1203" x2="50.0018" y2="25.1203" gradientUnits="userSpaceOnUse">
<stop stop-color="#1685FF"/>
<stop offset="0.5" stop-color="#8B5CF6"/>
<stop offset="1" stop-color="#D946EF"/>
</linearGradient>
<clipPath id="clip0_412_78">
<rect width="50" height="50" fill="white"/>
</clipPath>
</defs>
</svg>
