<svg width="29" height="29" viewBox="0 0 29 29" fill="none" xmlns="http://www.w3.org/2000/svg">
<path d="M1 24.5V26H0.5C0.223633 26 0 26.2236 0 26.5C0 26.7764 0.223633 27 0.5 27H10.5C10.7764 27 11 26.7764 11 26.5C11 26.2236 10.7764 26 10.5 26H10V24.5C10 22.7478 8.98352 21.2429 7.51831 20.5C8.98352 19.7571 10 18.2522 10 16.5V15H10.5C10.7764 15 11 14.7764 11 14.5C11 14.2236 10.7764 14 10.5 14H0.5C0.223633 14 0 14.2236 0 14.5C0 14.7764 0.223633 15 0.5 15H1V16.5C1 18.2502 2.01434 19.7536 3.47687 20.4974C3.37659 20.549 3.27362 20.595 3.17725 20.6543C2.94238 20.7998 2.86963 21.1074 3.01416 21.3428C3.15869 21.5771 3.46533 21.6484 3.70264 21.5059C4.0976 21.262 4.53931 21.1044 5 21.0376V23.2498L2 25.4998V24.4297C2 24.1533 1.77637 23.9648 1.5 23.9648C1.22363 23.9648 1 24.2236 1 24.5ZM5.5 24.125L7.99976 26H3.00024L5.5 24.125ZM9 24.5V25.4998L6 23.2498V21.0505C7.69165 21.2958 9 22.7415 9 24.5ZM9 15V16.5C9 16.7341 8.97491 16.9623 8.93085 17.1836C8.37653 17.378 7.04645 17.7136 5.72461 17.0537C4.29156 16.3322 2.86597 16.5397 2.02832 16.7802C2.02069 16.6862 2 16.5959 2 16.5V15H9ZM2.2439 17.7593C2.91199 17.5567 4.09668 17.3544 5.27637 17.9473C6.02734 18.3223 6.76953 18.4473 7.42529 18.4473C7.81256 18.4473 8.15515 18.3981 8.46582 18.3369C7.84772 19.3311 6.75415 20 5.5 20C4.01538 20 2.75159 19.0669 2.2439 17.7593Z" fill="url(#paint0_linear_349_38)"/>
<path d="M8.5 12H19.5C19.7764 12 20 11.7764 20 11.5C20 11.2236 19.7764 11 19.5 11H8.5C8.22363 11 8 11.2236 8 11.5C8 11.7764 8.22363 12 8.5 12Z" fill="url(#paint1_linear_349_38)"/>
<path d="M19.5 14H13.5C13.2236 14 13 14.2236 13 14.5C13 14.7764 13.2236 15 13.5 15H19.5C19.7764 15 20 14.7764 20 14.5C20 14.2236 19.7764 14 19.5 14Z" fill="url(#paint2_linear_349_38)"/>
<path d="M19.5 17H13.5C13.2236 17 13 17.2236 13 17.5C13 17.7764 13.2236 18 13.5 18H19.5C19.7764 18 20 17.7764 20 17.5C20 17.2236 19.7764 17 19.5 17Z" fill="url(#paint3_linear_349_38)"/>
<path d="M27.7148 13.6572C27.3535 13.1577 26.9092 12.7051 26.3926 12.312C26.2344 12.1924 26.0205 12.1758 25.8486 12.272L25.208 12.625C24.8496 12.4272 24.4658 12.2681 24.0625 12.1499L23.8604 11.4512C23.8057 11.2607 23.6426 11.1206 23.4463 11.0942C23.2943 11.074 23.1486 11.0745 23 11.0638V5.5C23 5.36719 22.9473 5.24023 22.8535 5.14648L19.8535 2.14648C19.7598 2.05273 19.6328 2 19.5 2H5.5C5.22363 2 5 2.22363 5 2.5V12.5C5 12.7764 5.22363 13 5.5 13C5.77637 13 6 12.7764 6 12.5V3H19V5.5C19 5.77637 19.2236 6 19.5 6H22V26H12.5C12.2236 26 12 26.2236 12 26.5C12 26.7764 12.2236 27 12.5 27H22.5C22.7764 27 23 26.7764 23 26.5V23.9957C23.1486 23.9849 23.2943 23.9856 23.4463 23.9648C23.6426 23.9395 23.8047 23.7988 23.8604 23.6084L24.0605 22.9141C24.4541 22.8018 24.8398 22.6406 25.2109 22.4346L25.8525 22.7803C26.0215 22.8711 26.2305 22.8564 26.3867 22.7422C26.9092 22.3564 27.3555 21.9092 27.7148 21.4131C27.8271 21.2578 27.8408 21.0518 27.75 20.8828L27.4043 20.2412C27.6094 19.873 27.7725 19.4873 27.8906 19.0889L28.585 18.8789C28.7725 18.8223 28.9092 18.6621 28.9355 18.4678C29.0205 17.8457 29.0205 17.2148 28.9355 16.5928C28.9092 16.3984 28.7725 16.2383 28.585 16.1816L27.8906 15.9717C27.7725 15.5732 27.6094 15.188 27.4043 14.8203L27.749 14.1895C27.8408 14.0205 27.8271 13.8135 27.7148 13.6572ZM23 16.1224C23.5807 16.3295 24 16.8793 24 17.5303C24 18.1813 23.5807 18.7311 23 18.9382V16.1224ZM20 3.70703L21.293 5H20V3.70703ZM27.9795 17.043C28.0059 17.3672 28.0059 17.6934 27.9795 18.0176L27.3359 18.2119C27.166 18.2627 27.0361 18.4004 26.9941 18.5723C26.876 19.0605 26.6787 19.5293 26.4062 19.9658C26.3105 20.1182 26.3047 20.3096 26.3896 20.4678L26.7148 21.0713C26.5166 21.3115 26.29 21.5371 26.0391 21.7451L25.4375 21.4199C25.2793 21.334 25.0879 21.3408 24.9355 21.4365C24.4932 21.7129 24.0273 21.9063 23.5518 22.0117C23.373 22.0518 23.2305 22.1855 23.1797 22.3613L23 22.9818V19.9797C24.14 19.7475 25 18.7379 25 17.5303C25 16.3226 24.14 15.313 23 15.0808V12.0773L23.1797 12.6987C23.2295 12.8716 23.3682 13.0044 23.543 13.0464C24.0469 13.1675 24.5156 13.3618 24.9355 13.624C25.0889 13.7212 25.2832 13.7256 25.4414 13.6382L26.0381 13.3096C26.2871 13.5225 26.5137 13.7524 26.7148 13.9971L26.3906 14.5908C26.3047 14.749 26.3105 14.9419 26.4062 15.0947C26.6777 15.5303 26.876 15.999 26.9941 16.4883C27.0361 16.6602 27.166 16.7979 27.3359 16.8486L27.9795 17.043Z" fill="url(#paint4_linear_349_38)"/>
<path d="M8.5 9H19.5C19.7764 9 20 8.77637 20 8.5C20 8.22363 19.7764 8 19.5 8H8.5C8.22363 8 8 8.22363 8 8.5C8 8.77637 8.22363 9 8.5 9Z" fill="url(#paint5_linear_349_38)"/>
<path d="M2.25903 22.2983C2.53517 22.2983 2.75903 22.0744 2.75903 21.7983C2.75903 21.5222 2.53517 21.2983 2.25903 21.2983C1.98288 21.2983 1.75903 21.5222 1.75903 21.7983C1.75903 22.0744 1.98288 22.2983 2.25903 22.2983Z" fill="url(#paint6_linear_349_38)"/>
<defs>
<linearGradient id="paint0_linear_349_38" x1="5.5" y1="14" x2="5.5" y2="27" gradientUnits="userSpaceOnUse">
<stop stop-color="#1685FF"/>
<stop offset="0.5" stop-color="#8B5CF6"/>
<stop offset="1" stop-color="#D946EF"/>
</linearGradient>
<linearGradient id="paint1_linear_349_38" x1="14" y1="11" x2="14" y2="12" gradientUnits="userSpaceOnUse">
<stop stop-color="#1685FF"/>
<stop offset="0.5" stop-color="#8B5CF6"/>
<stop offset="1" stop-color="#D946EF"/>
</linearGradient>
<linearGradient id="paint2_linear_349_38" x1="16.5" y1="14" x2="16.5" y2="15" gradientUnits="userSpaceOnUse">
<stop stop-color="#1685FF"/>
<stop offset="0.5" stop-color="#8B5CF6"/>
<stop offset="1" stop-color="#D946EF"/>
</linearGradient>
<linearGradient id="paint3_linear_349_38" x1="16.5" y1="17" x2="16.5" y2="18" gradientUnits="userSpaceOnUse">
<stop stop-color="#1685FF"/>
<stop offset="0.5" stop-color="#8B5CF6"/>
<stop offset="1" stop-color="#D946EF"/>
</linearGradient>
<linearGradient id="paint4_linear_349_38" x1="16.9996" y1="2" x2="16.9996" y2="27" gradientUnits="userSpaceOnUse">
<stop stop-color="#1685FF"/>
<stop offset="0.5" stop-color="#8B5CF6"/>
<stop offset="1" stop-color="#D946EF"/>
</linearGradient>
<linearGradient id="paint5_linear_349_38" x1="14" y1="8" x2="14" y2="9" gradientUnits="userSpaceOnUse">
<stop stop-color="#1685FF"/>
<stop offset="0.5" stop-color="#8B5CF6"/>
<stop offset="1" stop-color="#D946EF"/>
</linearGradient>
<linearGradient id="paint6_linear_349_38" x1="2.25903" y1="21.2983" x2="2.25903" y2="22.2983" gradientUnits="userSpaceOnUse">
<stop stop-color="#1685FF"/>
<stop offset="0.5" stop-color="#8B5CF6"/>
<stop offset="1" stop-color="#D946EF"/>
</linearGradient>
</defs>
</svg>
