<?xml version="1.0" encoding="UTF-8" standalone="no"?><!DOCTYPE svg PUBLIC "-//W3C//DTD SVG 1.1//EN" "http://www.w3.org/Graphics/SVG/1.1/DTD/svg11.dtd"><svg width="100%" height="100%" viewBox="0 0 77 77" version="1.1" xmlns="http://www.w3.org/2000/svg" xmlns:xlink="http://www.w3.org/1999/xlink" xml:space="preserve" xmlns:serif="http://www.serif.com/" style="fill-rule:evenodd;clip-rule:evenodd;stroke-linejoin:round;stroke-miterlimit:2;"><rect id="Artboard2" x="0" y="0" width="76.513" height="76.513" style="fill:none;"/><path d="M47.808,45.681c-2.576,-1.23 -5.968,-1.907 -9.551,-1.907c-3.584,0 -6.975,0.677 -9.551,1.907c-2.861,1.362 -4.43,3.276 -4.43,5.391l0,17.949c0,2.114 1.569,4.029 4.422,5.39c2.576,1.231 5.967,1.908 9.559,1.908c3.591,-0 6.982,-0.677 9.558,-1.908c2.853,-1.361 4.422,-3.276 4.422,-5.39l0,-17.949c0,-2.107 -1.569,-4.022 -4.429,-5.391Zm2.053,14.412c-0,2.33 -4.768,4.921 -11.604,4.921c-6.837,0 -11.605,-2.591 -11.605,-4.921l0,-4.861c0.585,0.446 1.269,0.862 2.054,1.239c2.576,1.23 5.967,1.907 9.551,1.907c3.583,-0 6.975,-0.677 9.551,-1.907c0.784,-0.377 1.468,-0.793 2.053,-1.239l-0,4.861Zm-11.604,-13.935c6.836,0 11.604,2.592 11.604,4.922c-0,2.33 -4.768,4.921 -11.604,4.921c-6.837,0 -11.605,-2.591 -11.605,-4.921c0,-2.33 4.768,-4.922 11.605,-4.922Zm-0,27.784c-6.837,0 -11.605,-2.591 -11.605,-4.921l0,-4.768c0.585,0.446 1.262,0.861 2.046,1.23c2.576,1.231 5.967,1.907 9.559,1.907c3.591,0 6.982,-0.676 9.558,-1.907c0.777,-0.369 1.461,-0.784 2.046,-1.23l-0,4.775c-0,2.323 -4.768,4.914 -11.604,4.914Zm31.46,-73.747l-10.997,-0c-0.646,-0 -1.238,0.238 -1.707,0.707l-3.615,3.622c-0.461,0.462 -0.707,1.054 -0.707,1.707l-0,19.041c-0,1.33 1.084,2.415 2.415,2.415l14.611,-0c1.33,-0 2.414,-1.085 2.414,-2.415l0,-22.663c0,-1.33 -1.084,-2.414 -2.414,-2.414Zm-11.897,3.268l0,1.861l-1.861,-0l1.861,-1.861Zm11.935,21.809c0,0.015 -0.015,0.038 -0.038,0.038l-14.611,0c-0.024,0 -0.039,-0.015 -0.039,-0.038l0,-17.564l3.937,-0c0.654,-0 1.192,-0.531 1.192,-1.192l0,-3.937l9.521,-0c0.015,-0 0.038,0.015 0.038,0.038l0,22.655Zm-1.699,-14.48c-0,0.653 -0.531,1.192 -1.192,1.192l-8.905,-0c-0.654,-0 -1.192,-0.531 -1.192,-1.192c-0,-0.654 0.53,-1.192 1.192,-1.192l8.905,-0c0.661,-0 1.192,0.538 1.192,1.192Zm-0,7.836c-0,0.653 -0.531,1.192 -1.192,1.192l-8.905,-0c-0.654,-0 -1.192,-0.531 -1.192,-1.192c-0,-0.654 0.53,-1.192 1.192,-1.192l8.905,-0c0.661,-0 1.192,0.53 1.192,1.192Zm-37.105,9.059l14.611,-0c1.331,-0 2.415,-1.085 2.415,-2.415l-0,-22.663c-0,-1.33 -1.084,-2.414 -2.415,-2.414l-10.997,-0c-0.646,-0 -1.238,0.238 -1.707,0.707l-3.614,3.622c-0.462,0.462 -0.708,1.054 -0.708,1.707l0,19.041c0,1.33 1.085,2.415 2.415,2.415Zm14.65,-25.078l-0,22.655c-0,0.016 -0.016,0.039 -0.039,0.039l-14.611,-0c-0.023,-0 -0.038,-0.023 -0.038,-0.039l-0,-17.556l3.945,-0c0.653,-0 1.192,-0.531 1.192,-1.192l-0,-3.937l9.512,-0c0.016,-0 0.039,0.015 0.039,0.03Zm-11.935,0.854l-0,1.861l-1.861,-0l1.861,-1.861Zm9.043,6.137c0.654,-0 1.192,0.53 1.192,1.192c0,0.653 -0.53,1.192 -1.192,1.192l-8.905,-0c-0.654,-0 -1.192,-0.531 -1.192,-1.192c0,-0.654 0.531,-1.192 1.192,-1.192l8.905,-0Zm1.192,9.028c0,0.653 -0.53,1.192 -1.192,1.192l-8.905,-0c-0.654,-0 -1.192,-0.531 -1.192,-1.192c0,-0.654 0.531,-1.192 1.192,-1.192l8.905,-0c0.654,-0 1.192,0.53 1.192,1.192Zm-20.071,6.644l0,-22.663c0,-1.33 -1.084,-2.414 -2.422,-2.414l-10.997,-0c-0.646,-0 -1.238,0.238 -1.707,0.707l-3.622,3.622c-0.462,0.469 -0.7,1.061 -0.7,1.707l-0,19.041c-0,1.33 1.084,2.415 2.415,2.415l14.611,-0c1.33,-0 2.422,-1.085 2.422,-2.415Zm-14.319,-21.809l0,1.861l-1.861,-0l1.861,-1.861Zm-2.753,21.809l0,-17.564l3.945,-0c0.654,-0 1.192,-0.531 1.192,-1.192l0,-3.937l9.513,-0c0.023,-0 0.038,0.023 0.038,0.038l0,22.655c0,0.015 -0.015,0.038 -0.038,0.038l-14.611,0c-0.016,-0.007 -0.039,-0.023 -0.039,-0.038Zm12.989,-14.48c-0,0.653 -0.531,1.192 -1.192,1.192l-8.905,-0c-0.654,-0 -1.192,-0.531 -1.192,-1.192c-0,-0.654 0.53,-1.192 1.192,-1.192l8.905,-0c0.653,-0 1.192,0.538 1.192,1.192Zm-0,7.836c-0,0.653 -0.531,1.192 -1.192,1.192l-8.905,-0c-0.654,-0 -1.192,-0.531 -1.192,-1.192c-0,-0.654 0.53,-1.192 1.192,-1.192l8.905,-0c0.653,-0 1.192,0.53 1.192,1.192Zm43.91,12.834c-0.777,4.053 -3.161,7.26 -7.275,9.775l1.2,0.399c0.623,0.208 0.961,0.885 0.753,1.508c-0.169,0.5 -0.63,0.815 -1.13,0.815c-0.123,-0 -0.254,-0.023 -0.377,-0.062l-3.806,-1.269c-0.3,-0.1 -0.546,-0.315 -0.693,-0.599c-0.138,-0.285 -0.161,-0.608 -0.061,-0.908l1.269,-3.806c0.207,-0.623 0.884,-0.962 1.507,-0.754c0.623,0.208 0.961,0.884 0.754,1.507l-0.308,0.931c3.307,-2.115 5.222,-4.73 5.837,-7.975c0.123,-0.646 0.746,-1.069 1.392,-0.946c0.63,0.116 1.061,0.739 0.938,1.384Zm-39.465,10.567c-0.139,0.284 -0.393,0.499 -0.693,0.599l-3.806,1.269c-0.123,0.039 -0.254,0.062 -0.377,0.062c-0.5,-0 -0.961,-0.315 -1.13,-0.815c-0.208,-0.623 0.13,-1.3 0.753,-1.508l1.192,-0.399c-4.114,-2.515 -6.506,-5.722 -7.275,-9.775c-0.123,-0.645 0.3,-1.268 0.946,-1.391c0.646,-0.123 1.269,0.299 1.392,0.945c0.615,3.238 2.53,5.86 5.837,7.975l-0.308,-0.93c-0.207,-0.623 0.131,-1.3 0.754,-1.508c0.623,-0.207 1.3,0.131 1.507,0.754l1.269,3.806c0.1,0.308 0.077,0.631 -0.061,0.916Zm15.257,-10.79l-0,5.991l0.799,-0.8c0.462,-0.461 1.215,-0.461 1.684,0c0.462,0.462 0.462,1.215 0,1.684l-2.837,2.838c-0.231,0.231 -0.538,0.346 -0.838,0.346c-0.308,0 -0.608,-0.115 -0.839,-0.346l-2.837,-2.838c-0.462,-0.461 -0.469,-1.215 -0,-1.684c0.461,-0.461 1.215,-0.469 1.684,0l0.807,0.808l0,-5.991c0,-0.654 0.531,-1.192 1.192,-1.192c0.654,-0.008 1.185,0.523 1.185,1.184Z" style="fill:url(#_Linear1);fill-rule:nonzero;"/><defs><linearGradient id="_Linear1" x1="0" y1="0" x2="1" y2="0" gradientUnits="userSpaceOnUse" gradientTransform="matrix(67.7506,0,0,83.5546,4.38246,38.44)"><stop offset="0" style="stop-color:#1685ff;stop-opacity:1"/><stop offset="0.5" style="stop-color:#8b5cf6;stop-opacity:1"/><stop offset="1" style="stop-color:#d946ef;stop-opacity:1"/></linearGradient></defs></svg>