<?xml version="1.0" encoding="UTF-8" standalone="no"?><!DOCTYPE svg PUBLIC "-//W3C//DTD SVG 1.1//EN" "http://www.w3.org/Graphics/SVG/1.1/DTD/svg11.dtd"><svg width="100%" height="100%" viewBox="0 0 64 64" version="1.1" xmlns="http://www.w3.org/2000/svg" xmlns:xlink="http://www.w3.org/1999/xlink" xml:space="preserve" xmlns:serif="http://www.serif.com/" style="fill-rule:evenodd;clip-rule:evenodd;stroke-linejoin:round;stroke-miterlimit:2;"><rect id="Artboard1" x="0" y="0" width="64" height="64" style="fill:none;"/><path d="M32,6c-16.54,0 -30,13.46 -30,30c0,0.55 0.45,1 1,1l7.03,0c0.52,11.67 10.18,21 21.97,21c11.79,0 21.45,-9.33 21.97,-21l7.03,0c0.55,0 1,-0.45 1,-1c0,-16.54 -13.46,-30 -30,-30Zm1,2.02c6.71,0.24 12.84,2.84 17.55,7.02l-4.25,4.25c-3.61,-3.09 -8.23,-5.04 -13.29,-5.27l0,-6l-0.01,0Zm-13.96,22.67c1.41,-3.42 4.16,-6.19 7.55,-7.61c1.06,-0.45 2.17,-0.75 3.29,-0.92l-2.84,8.52c-0.11,0.32 -0.04,0.68 0.17,0.94l1.59,1.99c-0.5,0.67 -0.81,1.49 -0.81,2.39c0,2.21 1.79,4 4,4c2.21,0 4,-1.79 4,-4c0,-0.9 -0.31,-1.72 -0.81,-2.39l1.59,-1.99c0.21,-0.26 0.28,-0.62 0.17,-0.94l-2.84,-8.52c1.09,0.16 2.16,0.45 3.2,0.88c3.42,1.41 6.19,4.16 7.61,7.55c0.72,1.7 1.08,3.52 1.08,5.4c0,1.88 -0.35,3.62 -1.05,5.31c-2.17,5.28 -7.25,8.69 -12.95,8.69c-5.7,0 -10.74,-3.37 -12.92,-8.6c-0.72,-1.7 -1.08,-3.52 -1.08,-5.4c0,-1.88 0.35,-3.62 1.04,-5.31l0.01,0.01Zm-1.42,-1.67l-3.7,-1.52c1.96,-4.16 5.31,-7.53 9.46,-9.52l1.54,3.69c-3.16,1.57 -5.75,4.17 -7.3,7.35Zm16.01,3.33c-0.5,-0.22 -1.05,-0.36 -1.63,-0.36c-0.58,-0 -1.13,0.13 -1.63,0.36l-1.25,-1.56l2.88,-8.64l2.88,8.64l-1.25,1.56Zm0.37,3.64c-0,1.1 -0.9,2 -2,2c-1.1,-0 -2,-0.9 -2,-2c-0,-1.1 0.9,-2 2,-2c1.1,-0 2,0.9 2,2Zm4.98,-14.38l1.52,-3.7c4.16,1.96 7.53,5.31 9.52,9.45l-3.69,1.54c-1.57,-3.16 -4.17,-5.75 -7.35,-7.3l-0,0.01Zm-0.33,-4.46l-1.52,3.7c-1.21,-0.41 -2.45,-0.67 -3.71,-0.78l-0.47,-1.4c-0.14,-0.41 -0.52,-0.68 -0.95,-0.68c-0.43,-0 -0.81,0.28 -0.95,0.68l-0.47,1.4c-1.31,0.11 -2.59,0.38 -3.82,0.81l-1.54,-3.68c2.12,-0.77 4.4,-1.21 6.78,-1.21c2.38,-0 4.56,0.42 6.65,1.16Zm-7.65,-9.13l-0,6c-5.06,0.23 -9.68,2.18 -13.29,5.27l-4.25,-4.25c4.71,-4.17 10.83,-6.78 17.55,-7.02l-0.01,-0Zm-26.98,26.98c0.25,-7.22 3.26,-13.75 7.99,-18.58l4.24,4.24c-3.65,3.74 -5.97,8.77 -6.22,14.34l-6.01,0Zm7.98,1c-0,-2.33 0.42,-4.56 1.16,-6.65l3.7,1.52c-0.56,1.65 -0.86,3.37 -0.86,5.13c-0,1.76 0.31,3.56 0.9,5.24l-3.69,1.54c-0.77,-2.12 -1.21,-4.4 -1.21,-6.78Zm11.5,18.08c-4.16,-1.96 -7.53,-5.31 -9.52,-9.45l3.67,-1.54c1.6,3.25 4.21,5.79 7.36,7.31l-1.51,3.68Zm8.5,1.92c-2.33,0 -4.56,-0.42 -6.65,-1.16l1.52,-3.69c1.62,0.55 3.35,0.85 5.13,0.85c1.78,0 3.59,-0.31 5.24,-0.89l1.54,3.68c-2.12,0.77 -4.4,1.21 -6.78,1.21Zm8.62,-1.98l-1.54,-3.67c3.14,-1.55 5.72,-4.1 7.3,-7.37l3.69,1.51c-1.96,4.16 -5.31,7.53 -9.46,9.52l0.01,0.01Zm10.22,-11.37l-3.7,-1.52c0.56,-1.65 0.86,-3.37 0.86,-5.13c-0,-1.76 -0.31,-3.56 -0.9,-5.24l3.69,-1.54c0.77,2.12 1.21,4.4 1.21,6.78c-0,2.38 -0.42,4.56 -1.16,6.65Zm3.13,-7.65c-0.25,-5.56 -2.58,-10.59 -6.22,-14.34l4.24,-4.24c4.73,4.83 7.74,11.36 7.99,18.58l-6.01,0Z" style="fill:url(#_Linear1);fill-rule:nonzero;"/><defs><linearGradient id="_Linear1" x1="0" y1="0" x2="1" y2="0" gradientUnits="userSpaceOnUse" gradientTransform="matrix(60.0003,0,0,50.5472,1.99993,32.1253)"><stop offset="0" style="stop-color:#1685ff;stop-opacity:1"/><stop offset="0.5" style="stop-color:#8b5cf6;stop-opacity:1"/><stop offset="1" style="stop-color:#d946ef;stop-opacity:1"/></linearGradient></defs></svg>