<?xml version="1.0" encoding="UTF-8" standalone="no"?><!DOCTYPE svg PUBLIC "-//W3C//DTD SVG 1.1//EN" "http://www.w3.org/Graphics/SVG/1.1/DTD/svg11.dtd"><svg width="100%" height="100%" viewBox="0 0 110 110" version="1.1" xmlns="http://www.w3.org/2000/svg" xmlns:xlink="http://www.w3.org/1999/xlink" xml:space="preserve" xmlns:serif="http://www.serif.com/" style="fill-rule:evenodd;clip-rule:evenodd;stroke-linejoin:round;stroke-miterlimit:2;"><rect id="Artboard1" x="0" y="0" width="110" height="110" style="fill:none;"/><path d="M24.096,51.877l-0,14.414l-8.409,5.604c-0.54,0.362 -0.863,0.964 -0.863,1.605l0,10.665c-3.542,0.867 -6.173,4.067 -6.173,7.874c0,4.472 3.629,8.11 8.101,8.11c4.477,0 8.11,-3.638 8.11,-8.11c0,-3.807 -2.636,-7.007 -6.183,-7.874l0,-9.629l8.414,-5.609c0.535,-0.357 0.858,-0.959 0.858,-1.6l0,-15.449l8.795,-0c0.014,0.771 0.077,1.537 0.192,2.303l-4.77,3.181c-0.728,0.487 -1.036,1.402 -0.752,2.231c1.046,3.051 2.674,5.879 4.8,8.313c0.573,0.655 1.522,0.848 2.303,0.462l5.142,-2.544c1.402,1.113 2.954,2.01 4.617,2.665l0.371,5.72c0.057,0.877 0.694,1.6 1.551,1.769c0.954,0.188 1.909,0.318 2.872,0.39l0,13.32c-4.452,0.901 -7.811,4.838 -7.811,9.546c-0,5.374 4.366,9.739 9.739,9.739c5.373,0 9.739,-4.366 9.739,-9.739c0,-4.708 -3.359,-8.645 -7.811,-9.546l-0,-13.32c0.963,-0.072 1.918,-0.202 2.872,-0.39c0.857,-0.169 1.494,-0.892 1.551,-1.769l0.371,-5.72c1.663,-0.655 3.215,-1.552 4.617,-2.665l5.142,2.544c0.781,0.386 1.73,0.193 2.303,-0.462c2.126,-2.434 3.754,-5.262 4.8,-8.313c0.284,-0.829 -0.024,-1.744 -0.752,-2.231l-4.77,-3.181c0.115,-0.766 0.178,-1.532 0.192,-2.303l8.795,-0l-0,15.449c-0,0.641 0.323,1.243 0.858,1.6l8.414,5.609l-0,9.629c-3.547,0.867 -6.183,4.067 -6.183,7.874c-0,4.472 3.633,8.11 8.11,8.11c4.472,0 8.101,-3.638 8.101,-8.11c-0,-3.807 -2.631,-7.007 -6.173,-7.874l-0,-10.665c-0,-0.641 -0.323,-1.243 -0.863,-1.605l-8.409,-5.604l0,-14.414l8.149,-0c0.521,-0 1.012,-0.207 1.378,-0.578c3.205,-3.268 5.185,-7.74 5.185,-12.674c0,-9.387 -7.156,-17.112 -16.307,-18.014c-0.921,-9.127 -8.636,-16.259 -18.004,-16.259c-2.405,-0 -4.699,0.467 -6.795,1.325c-2.135,-2.829 -5.523,-4.65 -9.334,-4.65c-4.651,-0 -8.67,2.717 -10.549,6.655c-0.781,-0.169 -1.591,-0.251 -2.419,-0.251c-6.453,-0 -11.696,5.238 -11.696,11.696c-0,0.506 0.029,1.002 0.096,1.494c-9.112,0.934 -16.225,8.645 -16.225,18.004c0,4.934 1.981,9.406 5.185,12.673c0.367,0.371 0.858,0.578 1.379,0.578l8.149,0.001Zm30.904,53.24c-3.248,-0 -5.884,-2.636 -5.884,-5.884c0,-3.243 2.636,-5.879 5.884,-5.879c3.248,-0 5.884,2.636 5.884,5.879c0,3.248 -2.636,5.884 -5.884,5.884Zm-38.248,-17.329c2.347,-0 4.255,1.903 4.255,4.25c0,2.351 -1.908,4.255 -4.255,4.255c-2.342,-0 -4.246,-1.904 -4.246,-4.255c0,-2.347 1.904,-4.25 4.246,-4.25Zm76.497,8.505c-2.347,-0 -4.255,-1.904 -4.255,-4.255c-0,-2.347 1.908,-4.25 4.255,-4.25c2.342,-0 4.245,1.903 4.245,4.25c0,2.351 -1.903,4.255 -4.245,4.255Zm-35.642,-65.688l0.352,5.451c0.053,0.795 0.588,1.474 1.349,1.715c2.024,0.632 3.879,1.706 5.441,3.142c0.588,0.54 1.441,0.661 2.159,0.309l4.901,-2.419c1.05,1.388 1.927,2.906 2.607,4.51l-4.549,3.036c-0.66,0.443 -0.983,1.243 -0.81,2.024c0.463,2.067 0.463,4.212 0,6.284c-0.173,0.776 0.15,1.581 0.81,2.024l4.549,3.031c-0.68,1.61 -1.557,3.123 -2.607,4.511l-4.901,-2.415c-0.718,-0.356 -1.571,-0.231 -2.159,0.309c-1.561,1.431 -3.417,2.511 -5.441,3.142c-0.761,0.236 -1.296,0.92 -1.349,1.715l-0.352,5.451c-1.73,0.216 -3.484,0.216 -5.214,-0l-0.352,-5.451c-0.053,-0.795 -0.588,-1.479 -1.349,-1.715c-2.024,-0.632 -3.88,-1.711 -5.441,-3.142c-0.588,-0.54 -1.441,-0.665 -2.159,-0.309l-4.901,2.415c-1.05,-1.388 -1.927,-2.901 -2.607,-4.511l4.549,-3.031c0.66,-0.443 0.983,-1.248 0.81,-2.024c-0.463,-2.072 -0.463,-4.217 -0,-6.284c0.173,-0.781 -0.15,-1.581 -0.81,-2.024l-4.549,-3.036c0.68,-1.605 1.557,-3.122 2.607,-4.51l4.901,2.419c0.718,0.352 1.571,0.231 2.159,-0.309c1.561,-1.436 3.417,-2.51 5.441,-3.142c0.761,-0.241 1.296,-0.92 1.349,-1.715l0.352,-5.451c1.73,-0.216 3.484,-0.216 5.209,-0.004l0.005,0.004Zm-2.607,11.393c-5.253,-0 -9.517,4.26 -9.517,9.517c-0,5.253 4.264,9.518 9.517,9.518c5.253,-0 9.517,-4.265 9.517,-9.518c0,-5.257 -4.264,-9.517 -9.517,-9.517Zm-0,3.855c3.128,-0 5.662,2.535 5.662,5.662c0,3.128 -2.535,5.662 -5.662,5.662c-3.128,0 -5.662,-2.534 -5.662,-5.662c-0,-3.128 2.534,-5.662 5.662,-5.662Zm1.079,-38.292c-1.436,-1.643 -3.551,-2.679 -5.903,-2.679c-3.576,-0 -6.597,2.4 -7.542,5.681c-0.144,0.521 -0.51,0.959 -0.997,1.2c-0.487,0.241 -1.051,0.261 -1.561,0.063c-0.887,-0.352 -1.856,-0.54 -2.868,-0.54c-4.327,0 -7.84,3.513 -7.84,7.841c-0,0.53 0.053,1.05 0.154,1.552c4.896,0.549 9.204,3.055 12.124,6.722c0.955,1.2 1.764,2.53 2.395,3.956c0.429,0.974 -0.009,2.111 -0.983,2.545c-0.973,0.424 -2.115,-0.015 -2.544,-0.983c-0.496,-1.123 -1.132,-2.174 -1.889,-3.118c-2.597,-3.263 -6.597,-5.407 -11.089,-5.421l-0.053,-0c-7.864,-0 -14.245,6.38 -14.245,14.245c0,3.599 1.34,6.886 3.547,9.397l18.91,-0l-3.528,-2.357c-0.727,-0.487 -1.036,-1.397 -0.752,-2.226c1.046,-3.056 2.675,-5.879 4.8,-8.313c0.574,-0.66 1.523,-0.848 2.304,-0.463l5.141,2.54c1.403,-1.108 2.954,-2.01 4.617,-2.665l0.371,-5.72c0.058,-0.872 0.694,-1.6 1.552,-1.764c3.171,-0.626 6.428,-0.626 9.599,0c0.858,0.164 1.494,0.892 1.552,1.764l0.371,5.72c1.663,0.655 3.214,1.556 4.617,2.665l5.141,-2.54c0.781,-0.385 1.73,-0.197 2.304,0.463c2.125,2.434 3.754,5.257 4.8,8.313c0.284,0.829 -0.024,1.739 -0.752,2.226c-0,0 -2.116,1.412 -3.528,2.357c5.186,-0 18.91,-0 18.91,-0.005c2.207,-2.506 3.547,-5.797 3.547,-9.392c-0,-7.865 -6.381,-14.245 -14.245,-14.245c-3.966,-0 -7.557,1.667 -10.14,4.288c-0.747,0.757 -1.966,0.762 -2.727,0.02c-0.757,-0.747 -0.766,-1.971 -0.019,-2.728c2.824,-2.867 6.602,-4.795 10.809,-5.281c-0.873,-7.017 -6.858,-12.463 -14.111,-12.471l-0.024,-0c-2.386,-0 -4.631,0.588 -6.612,1.624c-0.082,0.048 -0.168,0.086 -0.255,0.11c-2.723,1.509 -4.896,3.894 -6.149,6.766c-0.434,0.974 -1.576,1.407 -2.545,0.979c-0.973,-0.434 -1.412,-1.576 -0.978,-2.545c1.369,-3.074 3.566,-5.696 6.313,-7.58l0.001,-0.001Z" style="fill:url(#_Linear1);"/><defs><linearGradient id="_Linear1" x1="0" y1="0" x2="1" y2="0" gradientUnits="userSpaceOnUse" gradientTransform="matrix(92.6983,0,0,104.931,8.65095,55.26)"><stop offset="0" style="stop-color:#1685ff;stop-opacity:1"/><stop offset="0.5" style="stop-color:#8b5cf6;stop-opacity:1"/><stop offset="1" style="stop-color:#d946ef;stop-opacity:1"/></linearGradient></defs></svg>