<?xml version="1.0" encoding="UTF-8"?><svg id="a" xmlns="http://www.w3.org/2000/svg" xmlns:xlink="http://www.w3.org/1999/xlink" viewBox="0 0 50 50"><defs><style>.h{fill:url(#c);}.i{fill:url(#f);}.j{fill:url(#g);}.k{fill:url(#b);}.l{fill:url(#d);}.m{fill:url(#e);}</style><linearGradient id="b" x1="20.56" y1="19.25" x2="23.08" y2="19.25" gradientTransform="matrix(1, 0, 0, 1, 0, 0)" gradientUnits="userSpaceOnUse"><stop offset=".01" stop-color="#4376fc"/><stop offset=".99" stop-color="#c84bf1"/></linearGradient><linearGradient id="c" x1="23.74" x2="26.26" xlink:href="#b"/><linearGradient id="d" x1="26.92" x2="29.44" xlink:href="#b"/><linearGradient id="e" x1="4.24" y1="27.36" x2="45.76" y2="27.36" xlink:href="#b"/><linearGradient id="f" x1="26.59" y1="30.03" x2="37.04" y2="30.03" xlink:href="#b"/><linearGradient id="g" x1="12.96" y1="30.03" x2="24.99" y2="30.03" xlink:href="#b"/></defs><path class="k" d="M21.54,20.22h.57c.54,0,.97-.44,.97-.97s-.44-.97-.97-.97h-.57c-.54,0-.97,.44-.97,.97s.44,.97,.97,.97Z"/><path class="h" d="M24.72,20.22h.57c.54,0,.97-.44,.97-.97s-.44-.97-.97-.97h-.57c-.54,0-.97,.44-.97,.97s.44,.97,.97,.97Z"/><path class="l" d="M27.89,20.22h.57c.54,0,.97-.44,.97-.97s-.44-.97-.97-.97h-.57c-.54,0-.97,.44-.97,.97s.44,.97,.97,.97Z"/><path class="m" d="M43.63,16.84h-3.25c-.39-.69-1.12-1.16-1.97-1.16H11.6c-.85,0-1.58,.47-1.97,1.16h-3.25c-1.18,0-2.13,.96-2.13,2.13v16.77c0,1.18,.96,2.13,2.13,2.13h3.25c.39,.69,1.12,1.17,1.97,1.17h26.8c.85,0,1.58-.47,1.97-1.17h3.25c1.18,0,2.13-.96,2.13-2.13V18.97c0-1.18-.96-2.13-2.13-2.13Zm.19,2.13v2.51h-3.14v-2.7h2.95c.1,0,.19,.08,.19,.19Zm-32.22-1.35h26.8c.18,0,.33,.15,.33,.33v2.94H11.27v-2.94c0-.18,.15-.33,.33-.33Zm-5.23,1.16h2.95v2.7h-3.14v-2.51c0-.1,.08-.19,.19-.19Zm-.19,16.96v-12.31h3.14v12.5h-2.95c-.1,0-.19-.08-.19-.19Zm32.22,1.35H11.6c-.18,0-.33-.15-.33-.33v-13.93h27.46v13.93c0,.18-.15,.33-.33,.33Zm5.23-1.17h-2.95v-12.5h3.14v12.31c0,.1-.08,.19-.19,.19Z"/><path class="i" d="M36.06,29.06h-3.58v-.59c0-1.15-.88-2.08-1.97-2.08h-2.95c-.54,0-.97,.44-.97,.97v5.35c0,.54,.44,.97,.97,.97h2.95c1.08,0,1.97-.93,1.97-2.08v-.6h3.58c.54,0,.97-.44,.97-.97s-.44-.97-.97-.97Zm-5.53,2.54c0,.09-.04,.13-.02,.13h-1.97v-3.41h1.94s.05,.05,.05,.14v3.14Z"/><path class="j" d="M24.02,29.65c.54,0,.97-.44,.97-.97s-.44-.97-.97-.97h-.61v-.35c0-.54-.44-.97-.97-.97h-2.95c-1.08,0-1.97,.93-1.97,2.08v.6h-3.58c-.54,0-.97,.44-.97,.97s.44,.97,.97,.97h3.58v.59c0,1.15,.88,2.08,1.97,2.08h2.95c.54,0,.97-.44,.97-.97v-.35h.61c.54,0,.97-.44,.97-.97s-.44-.97-.97-.97h-.61v-.76h.61Zm-4.55,1.95v-1.56h0v-1.57c0-.09,.04-.13,.02-.13h1.97v3.41h-1.94s-.05-.05-.05-.14Z"/></svg>