<svg width="51" height="49" viewBox="0 0 51 49" fill="none" xmlns="http://www.w3.org/2000/svg">
<path fill-rule="evenodd" clip-rule="evenodd" d="M44.6656 38.2405C40.2112 44.3509 33.0445 48.135 25.2162 48.135C13.551 48.135 3.53962 39.751 1.51088 28.2489C1.35652 27.3492 1.95188 26.4914 2.85599 26.3327C3.7601 26.1739 4.6201 26.7759 4.77446 27.6756C6.51653 37.5943 15.1387 44.8272 25.2162 44.8272C31.8538 44.8272 37.94 41.6783 41.799 36.569C41.4241 36.3043 41.1814 35.9008 41.1153 35.4488C41.0491 34.9416 41.2255 34.4322 41.5783 34.0661L47.9073 27.6205C48.4366 27.0802 49.2523 26.9677 49.9138 27.3448C50.5533 27.7219 50.8622 28.4937 50.6638 29.2214L48.2379 37.9185C48.1056 38.4125 47.7529 38.8138 47.2898 39.0056C46.8047 39.1997 46.2754 39.1644 45.8343 38.9086L44.6656 38.2405ZM25.7234 6.78839C16.2633 6.78839 8.58933 14.5285 8.58933 24.0702C8.58933 33.6119 16.2633 41.3519 25.7234 41.3519C35.1835 41.3519 42.8575 33.6119 42.8575 24.0702C42.8575 14.5285 35.1835 6.78839 25.7234 6.78839ZM25.7234 10.0961C33.3532 10.0961 39.5497 16.3632 39.5497 24.0702C39.5497 31.7772 33.3532 38.0442 25.7234 38.0442C18.0936 38.0442 11.8971 31.7772 11.8971 24.0702C11.8971 16.3632 18.0936 10.0961 25.7234 10.0961ZM27.3773 22.4163H35.0953C36.0214 22.4163 36.7491 23.1572 36.7491 24.0702C36.7491 24.9831 36.0214 25.724 35.0953 25.724H25.7234C24.8193 25.724 24.0695 24.9831 24.0695 24.0702V14.6035C24.0695 13.6905 24.8193 12.9496 25.7234 12.9496C26.6275 12.9496 27.3773 13.6905 27.3773 14.6035V22.4163ZM6.07542 9.49193C10.5519 3.62182 17.5644 0.00537109 25.2162 0.00537109C36.9035 0.00537109 46.8929 8.38933 48.9216 19.8914C49.076 20.7911 48.4806 21.6489 47.5765 21.8077C46.6724 21.9665 45.8124 21.3645 45.658 20.4648C43.916 10.546 35.2938 3.3131 25.2162 3.3131C18.7772 3.3131 12.8233 6.29444 8.9643 11.1612L9.51559 11.4832C9.95662 11.739 10.2653 12.1844 10.3315 12.6916C10.3976 13.1988 10.2213 13.7082 9.86849 14.0742L3.53944 20.5199C3.01021 21.0601 2.1945 21.1726 1.53295 20.7955C0.893458 20.4184 0.584543 19.6466 0.783006 18.9189L3.20889 10.2218C3.3412 9.72787 3.69387 9.32654 4.15695 9.13469C4.64208 8.94064 5.1714 8.9759 5.61243 9.2317L6.07542 9.49193Z" fill="url(#paint0_linear_600_105)"/>
<defs>
<linearGradient id="paint0_linear_600_105" x1="0.723609" y1="24.1861" x2="50.7245" y2="24.1861" gradientUnits="userSpaceOnUse">
<stop stop-color="#1685FF"/>
<stop offset="0.5" stop-color="#8B5CF6"/>
<stop offset="1" stop-color="#D946EF"/>
</linearGradient>
</defs>
</svg>
