<?xml version="1.0" encoding="UTF-8" standalone="no"?><!DOCTYPE svg PUBLIC "-//W3C//DTD SVG 1.1//EN" "http://www.w3.org/Graphics/SVG/1.1/DTD/svg11.dtd"><svg width="100%" height="100%" viewBox="0 0 94 94" version="1.1" xmlns="http://www.w3.org/2000/svg" xmlns:xlink="http://www.w3.org/1999/xlink" xml:space="preserve" xmlns:serif="http://www.serif.com/" style="fill-rule:evenodd;clip-rule:evenodd;stroke-linejoin:round;stroke-miterlimit:2;"><path d="M92.735,46.437l-23.438,-8.86c-0.36,-0.14 -0.75,-0.14 -1.11,0l-23.438,8.86c-0.609,0.234 -1.015,0.812 -1.015,1.469l-0,16.5c-0,9.5 5.343,18.422 13.938,23.297l10.281,5.828c0.234,0.14 0.5,0.203 0.765,0.203c0.266,-0 0.531,-0.063 0.766,-0.203l10.281,-5.828c8.594,-4.875 13.938,-13.797 13.938,-23.297l-0,-16.5c-0,-0.657 -0.406,-1.235 -1.016,-1.469l0.048,-0Zm-42.843,40.094c-4.36,0.625 -9.063,0.953 -13.953,0.953c-18.781,-0 -32.812,-4.953 -32.812,-9.375l-0,-16.531c6,4.672 19.719,7.156 32.812,7.156c1.125,0 2.234,-0.015 3.312,-0.062c0.859,-0.032 1.531,-0.766 1.485,-1.625c-0.032,-0.86 -0.797,-1.516 -1.625,-1.485c-1.047,0.047 -2.11,0.063 -3.188,0.063c-18.781,-0 -32.812,-4.953 -32.812,-9.375l0,-16.531c6,4.672 19.719,7.156 32.812,7.156c1.078,-0 2.125,-0 3.172,-0.047c0.859,-0.031 1.547,-0.75 1.516,-1.609c-0.032,-0.86 -0.75,-1.578 -1.61,-1.516c-1.015,0.031 -2.031,0.047 -3.078,0.047c-18.781,-0 -32.812,-4.953 -32.812,-9.375l0,-16.531c6,4.672 19.719,7.156 32.812,7.156c13.093,0 26.812,-2.469 32.812,-7.156l0,15.125c0,0.859 0.703,1.562 1.563,1.562c0.859,0 1.562,-0.703 1.562,-1.562l0,-20.469c0,-8.125 -18.516,-12.5 -35.938,-12.5c-17.422,-0 -35.922,4.359 -35.922,12.484l0,65.625c0,8.125 18.516,12.5 35.938,12.5c5.047,0 9.891,-0.328 14.391,-0.984c0.859,-0.125 1.453,-0.922 1.328,-1.766c-0.125,-0.859 -0.906,-1.437 -1.765,-1.328l-0,-0Zm40.733,-22.125c0,8.375 -4.734,16.25 -12.359,20.578l-9.515,5.39l-9.516,-5.39c-7.625,-4.313 -12.359,-12.203 -12.359,-20.578l0,-15.422l21.875,-8.266l21.875,8.266l-0.001,15.422Zm-54.687,9.015c-2.578,-0 -4.688,2.109 -4.688,4.687c0,2.578 2.11,4.688 4.688,4.688c2.578,-0 4.687,-2.11 4.687,-4.688c0,-2.578 -2.109,-4.687 -4.687,-4.687Zm17.188,-9.374c-0,8.609 7.015,15.625 15.625,15.625c8.609,-0 15.625,-7.016 15.625,-15.625c-0,-8.61 -7.016,-15.625 -15.625,-15.625c-8.61,-0 -15.625,7.015 -15.625,15.625Zm-17.188,15.624c-0.86,-0 -1.563,-0.703 -1.563,-1.563c0,-0.859 0.703,-1.562 1.563,-1.562c0.859,-0 1.562,0.703 1.562,1.562c0,0.86 -0.703,1.563 -1.562,1.563Zm45.313,-15.624c-0,6.89 -5.61,12.5 -12.5,12.5c-6.891,-0 -12.5,-5.61 -12.5,-12.5c-0,-6.891 5.609,-12.5 12.5,-12.5c6.89,-0 12.5,5.609 12.5,12.5Zm-19.203,-1.11c-0.61,-0.61 -1.594,-0.61 -2.203,-0c-0.61,0.609 -0.61,1.594 -0,2.203l4.687,4.687c0.313,0.313 0.703,0.454 1.109,0.454c0.407,-0 0.797,-0.157 1.11,-0.454l9.375,-9.375c0.609,-0.609 0.609,-1.593 -0,-2.203c-0.61,-0.609 -1.594,-0.609 -2.203,0l-8.266,8.266l-3.578,-3.578l-0.031,-0Zm-26.11,-11.39c-2.578,-0 -4.688,2.109 -4.688,4.687c0,2.578 2.11,4.688 4.688,4.688c2.578,-0 4.687,-2.11 4.687,-4.688c0,-2.578 -2.109,-4.687 -4.687,-4.687Zm-0,6.25c-0.86,-0 -1.563,-0.703 -1.563,-1.563c0,-0.859 0.703,-1.562 1.563,-1.562c0.859,-0 1.562,0.703 1.562,1.562c0,0.86 -0.703,1.563 -1.562,1.563Zm-4.687,-23.438c-0,2.578 2.109,4.687 4.687,4.687c2.578,0 4.688,-2.109 4.688,-4.687c-0,-2.578 -2.11,-4.688 -4.688,-4.688c-2.578,0 -4.687,2.11 -4.687,4.688Zm6.25,-0c-0,0.859 -0.704,1.562 -1.563,1.562c-0.859,0 -1.562,-0.703 -1.562,-1.562c-0,-0.86 0.703,-1.563 1.562,-1.563c0.859,0 1.563,0.703 1.563,1.563Zm-1.562,-31.25c20.328,-0 32.812,5.453 32.812,9.375c-0,3.922 -12.484,9.375 -32.812,9.375c-20.328,-0 -32.812,-5.453 -32.812,-9.375c-0,-3.922 12.484,-9.375 32.812,-9.375Z" style="fill:url(#_Linear1);fill-rule:nonzero;"/><defs><linearGradient id="_Linear1" x1="0" y1="0" x2="1" y2="0" gradientUnits="userSpaceOnUse" gradientTransform="matrix(93.7033,0,0,91.1151,-0.000105699,47.0927)"><stop offset="0" style="stop-color:#1685ff;stop-opacity:1"/><stop offset="0.5" style="stop-color:#8b5cf6;stop-opacity:1"/><stop offset="1" style="stop-color:#d946ef;stop-opacity:1"/></linearGradient></defs></svg>