<svg width="64" height="64" viewBox="0 0 64 64" fill="none" xmlns="http://www.w3.org/2000/svg">
<path d="M53.2885 29.6822C53.2174 29.496 53.0915 29.3358 52.9273 29.2228C52.7632 29.1098 52.5686 29.0493 52.3693 29.0493H41.4597L41.42 28.97C40.629 27.3804 39.4462 26.0184 37.9829 25.0126C36.5197 24.0069 34.8244 23.3904 33.0569 23.2214C33.2233 22.096 33.704 21.0404 34.4436 20.176C35.1833 19.3117 36.1519 18.6736 37.2381 18.3353L37.5538 18.236C38.0092 18.8321 38.5929 19.318 39.2617 19.6578C39.9305 19.9975 40.6671 20.1823 41.4171 20.1986C41.6832 20.1982 41.9488 20.1762 42.2114 20.1328C43.2612 19.9211 44.2435 19.4563 45.0729 18.7788C45.9023 18.1012 46.5537 17.2314 46.9705 16.2448C47.5142 14.4478 49.8808 13.9239 49.9009 13.9195C50.098 13.8792 50.2779 13.7795 50.4165 13.6337C50.5551 13.488 50.6457 13.3032 50.6761 13.1044C50.7064 12.9056 50.6751 12.7022 50.5863 12.5218C50.4975 12.3413 50.3555 12.1924 50.1795 12.0951C46.8707 10.2673 43.9729 9.88171 41.5708 10.9469C40.5039 11.4949 39.5587 12.2527 38.7919 13.175C38.025 14.0973 37.4524 15.1649 37.1083 16.3139L36.6484 16.4585C35.224 16.9105 33.9544 17.752 32.9832 18.8878V13.8771C34.147 13.2374 35.1227 12.3038 35.8132 11.1694C36.5036 10.035 36.8847 8.73942 36.9183 7.41185C36.8787 5.97629 36.4383 4.58044 35.6468 3.38213C34.8554 2.18381 33.7444 1.23083 32.4396 0.630947C32.3032 0.56289 32.1529 0.527424 32.0005 0.527344C31.8481 0.527264 31.6977 0.562571 31.5613 0.630485C30.2564 1.23034 29.1453 2.18337 28.3538 3.38179C27.5624 4.58021 27.122 5.9762 27.0826 7.41185C27.1161 8.73934 27.4969 10.0349 28.1872 11.1693C28.8775 12.3037 29.8531 13.2373 31.0167 13.8771V18.8876C30.0457 17.7518 28.7763 16.9104 27.352 16.4585L26.8923 16.314C26.5483 15.1649 25.9757 14.0971 25.2088 13.1748C24.4419 12.2524 23.4966 11.4944 22.4296 10.9464C20.0265 9.88322 17.1302 10.2683 13.8214 12.0952C13.6461 12.1926 13.5047 12.3412 13.4162 12.5212C13.3276 12.7012 13.2962 12.9039 13.326 13.1022C13.3558 13.3006 13.4455 13.4851 13.583 13.631C13.7206 13.777 13.8994 13.8775 14.0956 13.9191C14.1197 13.9239 16.4867 14.4478 17.0304 16.2453C17.447 17.2318 18.0984 18.1015 18.9277 18.7789C19.757 19.4563 20.7392 19.9209 21.789 20.1323C22.0515 20.1762 22.3172 20.1983 22.5833 20.1986C23.3333 20.1824 24.07 19.9976 24.7388 19.6578C25.4076 19.3181 25.9914 18.8322 26.4469 18.2362L26.7623 18.3353C27.8486 18.6736 28.8173 19.3116 29.5571 20.1759C30.2968 21.0403 30.7776 22.096 30.944 23.2214C29.1764 23.3902 27.481 24.0066 26.0177 25.0124C24.5545 26.0182 23.3717 27.3803 22.5809 28.9701L22.5412 29.0493H15.5363C15.3356 29.0492 15.1396 29.1106 14.9748 29.2252C14.81 29.3399 14.6842 29.5022 14.6143 29.6904C13.7833 31.9213 13.3437 34.279 13.3148 36.6595L8.51964 45.2913C8.4364 45.441 8.39371 45.6098 8.39579 45.7811C8.39787 45.9524 8.44465 46.1202 8.5315 46.2678C8.61835 46.4154 8.74226 46.5378 8.89095 46.6229C9.03965 46.7079 9.20798 46.7526 9.37927 46.7526H13.3133V50.6867C13.3154 52.512 14.0414 54.2619 15.3321 55.5526C16.6227 56.8433 18.3727 57.5693 20.198 57.5713H21.1815V62.4889C21.1815 62.7498 21.2851 62.9999 21.4696 63.1844C21.654 63.3688 21.9042 63.4724 22.165 63.4724C22.4259 63.4724 22.676 63.3688 22.8605 63.1844C23.0449 62.9999 23.1485 62.7498 23.1485 62.4889V57.5713H27.0826C27.3435 57.5713 27.5936 57.4677 27.7781 57.2833C27.9625 57.0988 28.0661 56.8487 28.0661 56.5878C28.0661 56.327 27.9625 56.0768 27.7781 55.8924C27.5936 55.7079 27.3435 55.6043 27.0826 55.6043H20.198C18.8942 55.6028 17.6443 55.0842 16.7224 54.1623C15.8005 53.2404 15.2819 51.9904 15.2804 50.6867V45.7691C15.2804 45.5083 15.1767 45.2581 14.9923 45.0737C14.8079 44.8892 14.5577 44.7856 14.2969 44.7856H11.051L15.1565 37.3953C15.2376 37.2491 15.2803 37.0846 15.2804 36.9174C15.2796 34.912 15.6013 32.9196 16.2332 31.0163H51.6788C52.218 32.5952 52.5367 34.241 52.6258 35.907C52.8535 40.0508 51.694 44.1523 49.3306 47.5636C46.9672 50.9749 43.5345 53.5015 39.5749 54.7442C39.3262 54.8224 39.1188 54.9961 38.9981 55.2272C38.8773 55.4582 38.8533 55.7278 38.9312 55.9766C39.0091 56.2254 39.1825 56.4331 39.4134 56.5541C39.6443 56.6751 39.9138 56.6995 40.1627 56.6219C41.7851 56.1138 43.3381 55.4065 44.7865 54.5163V62.4889C44.7865 62.7498 44.8901 62.9999 45.0745 63.1844C45.259 63.3688 45.5091 63.4724 45.77 63.4724C46.0308 63.4724 46.281 63.3688 46.4654 63.1844C46.6499 62.9999 46.7535 62.7498 46.7535 62.4889V53.1292C49.352 51.08 51.4203 48.4365 52.7842 45.4213C54.1481 42.4061 54.7677 39.1074 54.5909 35.8028C54.4778 33.7073 54.0384 31.6422 53.2885 29.6822ZM42.3785 12.74C43.1694 12.4444 44.0108 12.3075 44.8546 12.3373C45.6984 12.367 46.5281 12.5628 47.2961 12.9134C46.2471 13.5332 45.4615 14.5159 45.088 15.6757C44.7795 16.3092 44.3316 16.8646 43.7778 17.3004C43.2241 17.7361 42.5789 18.0408 41.8906 18.1917C41.4978 18.2559 41.0957 18.2336 40.7123 18.1264C40.329 18.0191 39.9737 17.8294 39.6713 17.5706L41.7782 16.9085C41.9015 16.8698 42.0159 16.8071 42.1149 16.7242C42.2139 16.6413 42.2956 16.5396 42.3554 16.4251C42.4152 16.3106 42.4518 16.1854 42.4632 16.0568C42.4745 15.9281 42.4605 15.7985 42.4217 15.6752C42.383 15.552 42.3204 15.4376 42.2375 15.3386C42.1545 15.2395 42.0529 15.1578 41.9384 15.0981C41.8239 15.0383 41.6987 15.0017 41.5701 14.9903C41.4414 14.9789 41.3117 14.993 41.1885 15.0317L39.5846 15.5358C40.1792 14.3192 41.1623 13.3355 42.3785 12.74ZM22.1098 18.1917C21.4216 18.0407 20.7766 17.7359 20.2229 17.3002C19.6693 16.8645 19.2214 16.3091 18.9129 15.6757C18.539 14.516 17.7534 13.5333 16.7043 12.9134C18.2557 12.2061 20.0245 12.1437 21.6219 12.7401C22.8382 13.3355 23.8214 14.3193 24.4163 15.5359L22.8119 15.0318C22.563 14.9535 22.2933 14.9774 22.062 15.0981C21.8307 15.2188 21.6569 15.4264 21.5786 15.6753C21.5004 15.9241 21.5243 16.1939 21.645 16.4252C21.7657 16.6564 21.9733 16.8303 22.2222 16.9085L24.3298 17.5709C24.0275 17.83 23.6721 18.0198 23.2886 18.1271C22.905 18.2343 22.5027 18.2564 22.1098 18.1917ZM29.0497 7.41185C29.0817 6.42666 29.3709 5.46699 29.8885 4.6281C30.4061 3.78921 31.1341 3.10028 32.0002 2.62968C32.8663 3.10035 33.5943 3.78928 34.112 4.62815C34.6296 5.46701 34.919 6.42665 34.9513 7.41185C34.9341 8.1904 34.7494 8.95612 34.4098 9.65691C34.0702 10.3577 33.5837 10.9771 32.9832 11.4731V8.41458C32.9837 8.28519 32.9585 8.15699 32.9093 8.03734C32.8601 7.91768 32.7877 7.80892 32.6964 7.71728C32.605 7.62565 32.4965 7.55294 32.377 7.50333C32.2575 7.45372 32.1294 7.42818 32 7.42818C31.8706 7.42818 31.7425 7.45372 31.623 7.50333C31.5035 7.55294 31.3949 7.62565 31.3036 7.71728C31.2122 7.80892 31.1399 7.91768 31.0906 8.03734C31.0414 8.15699 31.0163 8.28519 31.0167 8.41458V11.4729C30.4165 10.9769 29.9301 10.3575 29.5907 9.65671C29.2512 8.95595 29.0667 8.1903 29.0497 7.41185ZM32.0002 25.1152C33.4328 25.1121 34.843 25.4711 36.0997 26.1589C37.3565 26.8467 38.419 27.8409 39.1887 29.0493H24.8121C25.5816 27.8409 26.6441 26.8467 27.9008 26.1589C29.1575 25.4711 30.5676 25.1121 32.0002 25.1152ZM57.5712 14.2965C57.5713 14.4257 57.5458 14.5536 57.4964 14.6729C57.447 14.7922 57.3746 14.9007 57.2832 14.992C57.1919 15.0833 57.0835 15.1558 56.9641 15.2052C56.8448 15.2546 56.7169 15.28 56.5877 15.28H53.6362C53.3753 15.28 53.1252 15.1764 52.9407 14.9919C52.7563 14.8075 52.6526 14.5573 52.6526 14.2965C52.6526 14.0356 52.7563 13.7855 52.9407 13.601C53.1252 13.4166 53.3753 13.313 53.6362 13.313H56.5877C56.7169 13.3129 56.8448 13.3383 56.9641 13.3878C57.0835 13.4372 57.1919 13.5096 57.2832 13.601C57.3746 13.6923 57.447 13.8007 57.4964 13.9201C57.5458 14.0394 57.5713 14.1673 57.5712 14.2965ZM52.1532 9.5705L55.0596 9.05808C55.3165 9.01274 55.5809 9.07131 55.7946 9.2209C56.0083 9.37049 56.1539 9.59885 56.1992 9.85575C56.2445 10.1126 56.186 10.377 56.0364 10.5907C55.8868 10.8045 55.6584 10.95 55.4015 10.9953L52.4952 11.5078C52.4384 11.5177 52.3809 11.5227 52.3232 11.5226C52.0774 11.5223 51.8406 11.4299 51.6595 11.2636C51.4784 11.0973 51.3661 10.8693 51.3448 10.6244C51.3234 10.3795 51.3946 10.1354 51.5442 9.94036C51.6939 9.74529 51.9111 9.61335 52.1532 9.5705ZM50.0287 5.97162L52.8015 4.96266C53.0466 4.87395 53.3169 4.88612 53.553 4.99652C53.7891 5.10691 53.9717 5.30649 54.0608 5.55143C54.1499 5.79638 54.1381 6.06666 54.0281 6.30292C53.918 6.53919 53.7187 6.72213 53.4739 6.81156L50.701 7.82053C50.4558 7.90969 50.1853 7.8978 49.9489 7.78747C49.7124 7.67715 49.5295 7.47742 49.4404 7.23224C49.3512 6.98706 49.3631 6.71651 49.4734 6.4801C49.5838 6.24368 49.7835 6.06078 50.0287 5.97162ZM46.935 3.97001C46.8704 3.85814 46.8285 3.73464 46.8116 3.60656C46.7948 3.47848 46.8033 3.34834 46.8367 3.22356C46.8702 3.09878 46.9279 2.98181 47.0066 2.87933C47.0852 2.77686 47.1833 2.69088 47.2952 2.62632L49.851 1.15056C49.9629 1.0859 50.0864 1.04392 50.2145 1.02702C50.3426 1.01012 50.4728 1.01862 50.5976 1.05204C50.7224 1.08547 50.8395 1.14316 50.942 1.22182C51.0445 1.30048 51.1305 1.39857 51.1951 1.51048C51.2597 1.6224 51.3016 1.74594 51.3185 1.87406C51.3353 2.00218 51.3267 2.13236 51.2933 2.25717C51.2598 2.38197 51.202 2.49896 51.1233 2.60144C51.0446 2.70392 50.9465 2.78989 50.8345 2.85443L48.2787 4.33019C48.0527 4.46049 47.7843 4.49575 47.5323 4.42822C47.2803 4.36068 47.0655 4.19587 46.935 3.97001ZM56.1987 18.7372C56.1587 18.9647 56.0398 19.1709 55.863 19.3195C55.6861 19.4681 55.4625 19.5496 55.2315 19.5498C55.1739 19.5498 55.1164 19.5448 55.0596 19.5349L52.1532 19.0225C51.8968 18.9767 51.6689 18.831 51.5198 18.6174C51.3706 18.4038 51.3122 18.1398 51.3575 17.8832C51.4028 17.6266 51.548 17.3985 51.7613 17.2489C51.9746 17.0993 52.2385 17.0404 52.4952 17.0852L55.4015 17.5976C55.5288 17.62 55.6503 17.6672 55.7593 17.7366C55.8682 17.8061 55.9624 17.8963 56.0364 18.0021C56.1105 18.108 56.1629 18.2274 56.1908 18.3535C56.2186 18.4796 56.2213 18.61 56.1987 18.7372ZM52.8015 23.6303L50.0287 22.6213C49.7835 22.5322 49.5838 22.3493 49.4734 22.1129C49.3631 21.8765 49.3512 21.6059 49.4404 21.3607C49.5295 21.1155 49.7124 20.9158 49.9489 20.8055C50.1853 20.6952 50.4558 20.6833 50.701 20.7724L53.4739 21.7814C53.5957 21.8253 53.7076 21.8927 53.8032 21.9799C53.8989 22.0671 53.9764 22.1723 54.0313 22.2895C54.0862 22.4067 54.1174 22.5336 54.1232 22.6629C54.129 22.7922 54.1092 22.9214 54.065 23.043C54.0207 23.1647 53.9529 23.2764 53.8654 23.3718C53.778 23.4671 53.6725 23.5443 53.5551 23.5989C53.4378 23.6534 53.3108 23.6843 53.1815 23.6897C53.0522 23.6951 52.923 23.6749 52.8015 23.6303ZM50.8345 25.7385C51.0603 25.869 51.225 26.0839 51.2925 26.3358C51.36 26.5877 51.3246 26.8561 51.1942 27.082C51.0639 27.3079 50.8491 27.4727 50.5972 27.5403C50.3453 27.6079 50.0769 27.5727 49.851 27.4424L47.2952 25.9666C47.0694 25.8362 46.9046 25.6213 46.8372 25.3694C46.7697 25.1175 46.8051 24.8491 46.9354 24.6232C47.0658 24.3973 47.2806 24.2325 47.5325 24.1649C47.7843 24.0973 48.0528 24.1325 48.2787 24.2628L50.8345 25.7385ZM10.3628 15.28H7.41223C7.15138 15.28 6.90122 15.1764 6.71678 14.9919C6.53233 14.8075 6.42871 14.5573 6.42871 14.2965C6.42871 14.0356 6.53233 13.7855 6.71678 13.601C6.90122 13.4166 7.15138 13.313 7.41223 13.313H10.3628C10.6236 13.313 10.8738 13.4166 11.0582 13.601C11.2427 13.7855 11.3463 14.0356 11.3463 14.2965C11.3463 14.5573 11.2427 14.8075 11.0582 14.9919C10.8738 15.1764 10.6236 15.28 10.3628 15.28ZM7.80024 9.85576C7.82257 9.7285 7.86978 9.60689 7.93917 9.4979C8.00855 9.38891 8.09875 9.29468 8.20461 9.22059C8.31046 9.1465 8.42988 9.09401 8.55604 9.06614C8.6822 9.03826 8.81262 9.03553 8.93983 9.05812L11.8462 9.57054C12.0885 9.61317 12.306 9.74504 12.4558 9.94015C12.6057 10.1353 12.6769 10.3794 12.6556 10.6245C12.6342 10.8696 12.5218 11.0977 12.3405 11.264C12.1592 11.4303 11.9222 11.5226 11.6762 11.5227C11.6186 11.5227 11.5611 11.5177 11.5043 11.5078L8.5979 10.9954C8.34105 10.9499 8.11275 10.8044 7.96317 10.5907C7.8136 10.377 7.75499 10.1126 7.80024 9.85576ZM9.9373 5.55094C10.0267 5.30596 10.2096 5.10644 10.446 4.99615C10.6823 4.88587 10.9527 4.87382 11.1979 4.96266L13.9708 5.97162C14.0922 6.01577 14.2038 6.0834 14.299 6.17064C14.3943 6.25788 14.4714 6.36304 14.5261 6.4801C14.5807 6.59716 14.6117 6.72383 14.6174 6.85288C14.6231 6.98194 14.6033 7.11084 14.5591 7.23224C14.515 7.35365 14.4474 7.46516 14.3601 7.56043C14.2729 7.65569 14.1677 7.73284 14.0507 7.78747C13.9336 7.8421 13.8069 7.87313 13.6779 7.87881C13.5488 7.88448 13.4199 7.86468 13.2985 7.82053L10.5256 6.81156C10.2805 6.72231 10.0808 6.5394 9.9705 6.30302C9.86019 6.06663 9.84825 5.79613 9.9373 5.55094ZM12.8053 1.51073C12.8697 1.39875 12.9556 1.30059 13.058 1.22187C13.1604 1.14315 13.2774 1.08543 13.4022 1.05202C13.527 1.0186 13.6571 1.01014 13.7852 1.02714C13.9133 1.04413 14.0367 1.08624 14.1485 1.15104L16.7038 2.6268C16.816 2.69117 16.9144 2.77705 16.9934 2.87952C17.0724 2.982 17.1303 3.09905 17.164 3.22396C17.1976 3.34888 17.2063 3.47921 17.1895 3.60749C17.1727 3.73576 17.1307 3.85946 17.066 3.97149C17.0013 4.08352 16.9152 4.18168 16.8125 4.26034C16.7097 4.339 16.5925 4.39663 16.4675 4.4299C16.3425 4.46318 16.2121 4.47146 16.0839 4.45427C15.9557 4.43707 15.8321 4.39475 15.7203 4.32971L13.165 2.85395C13.0531 2.78942 12.955 2.70348 12.8764 2.60103C12.7978 2.49859 12.7401 2.38165 12.7067 2.2569C12.6733 2.13215 12.6648 2.00204 12.6817 1.874C12.6986 1.74597 12.7406 1.62253 12.8053 1.51073ZM8.76791 19.5498C8.52192 19.5496 8.28491 19.4573 8.10362 19.2911C7.92233 19.1248 7.80993 18.8966 7.78858 18.6516C7.76724 18.4065 7.83851 18.1623 7.98833 17.9672C8.13814 17.7721 8.35564 17.6403 8.5979 17.5976L11.5043 17.0852C11.7609 17.0404 12.0249 17.0993 12.2381 17.2489C12.4514 17.3985 12.5966 17.6267 12.6419 17.8832C12.6872 18.1398 12.6289 18.4038 12.4797 18.6174C12.3305 18.831 12.1027 18.9767 11.8462 19.0225L8.93983 19.5349C8.88307 19.5448 8.82553 19.5498 8.76791 19.5498ZM14.5591 21.3607C14.6481 21.6059 14.6362 21.8764 14.5258 22.1128C14.4155 22.3492 14.2159 22.5321 13.9708 22.6213L11.1979 23.6303C11.0764 23.6749 10.9473 23.6951 10.818 23.6897C10.6887 23.6843 10.5617 23.6534 10.4443 23.5989C10.3269 23.5443 10.2215 23.4671 10.134 23.3718C10.0465 23.2764 9.97874 23.1647 9.93451 23.043C9.89027 22.9214 9.87048 22.7922 9.87626 22.6629C9.88204 22.5336 9.91328 22.4067 9.96819 22.2895C10.0231 22.1723 10.1006 22.0671 10.1962 21.9799C10.2919 21.8927 10.4038 21.8253 10.5256 21.7814L13.2984 20.7724C13.5436 20.6834 13.8141 20.6954 14.0505 20.8057C14.2869 20.916 14.4698 21.1156 14.5591 21.3607ZM13.1649 25.739L15.7203 24.2633C15.8321 24.1982 15.9557 24.1559 16.0839 24.1387C16.2121 24.1215 16.3425 24.1298 16.4675 24.1631C16.5925 24.1963 16.7097 24.254 16.8124 24.3326C16.9151 24.4113 17.0013 24.5095 17.066 24.6215C17.1307 24.7335 17.1727 24.8572 17.1895 24.9855C17.2063 25.1138 17.1976 25.2441 17.164 25.369C17.1303 25.4939 17.0724 25.611 16.9934 25.7134C16.9144 25.8159 16.816 25.9018 16.7038 25.9662L14.1485 27.4419C14.0366 27.507 13.913 27.5493 13.7848 27.5665C13.6566 27.5837 13.5262 27.5754 13.4012 27.5421C13.2762 27.5088 13.159 27.4512 13.0563 27.3726C12.9536 27.2939 12.8674 27.1957 12.8027 27.0837C12.738 26.9717 12.696 26.848 12.6792 26.7197C12.6624 26.5914 12.6711 26.4611 12.7047 26.3362C12.7384 26.2113 12.7964 26.0942 12.8753 25.9917C12.9543 25.8893 13.0527 25.8034 13.1649 25.739Z" fill="url(#paint0_linear_360_1359)"/>
<defs>
<linearGradient id="paint0_linear_360_1359" x1="6.42885" y1="32.1515" x2="57.5723" y2="32.1515" gradientUnits="userSpaceOnUse">
<stop stop-color="#1685FF"/>
<stop offset="0.5" stop-color="#8B5CF6"/>
<stop offset="1" stop-color="#D946EF"/>
</linearGradient>
</defs>
</svg>
