<svg width="30" height="30" viewBox="0 0 30 30" fill="none" xmlns="http://www.w3.org/2000/svg">
<path d="M24.9625 8.17223H23.8292V6.93861V3.34341C23.8292 3.15321 23.676 3 23.4858 3H6.81741C6.62722 3 6.47401 3.15321 6.47401 3.34341V8.17223H5.34341C5.15321 8.17223 5 8.32544 5 8.51564V23.4935C5 23.6836 5.15321 23.8369 5.34341 23.8369H13.9497V25.7969H10.1168C9.92656 25.7969 9.77335 25.9501 9.77335 26.1403V27.6566C9.77335 27.8468 9.92656 28 10.1168 28H20.1918C20.382 28 20.5352 27.8468 20.5352 27.6566V26.1403C20.5352 25.9501 20.382 25.7969 20.1918 25.7969H16.3562V23.8369H24.9625C25.1527 23.8369 25.3059 23.6836 25.3059 23.4935V8.51564C25.3059 8.32544 25.1527 8.17223 24.9625 8.17223ZM24.6191 8.85905V21.0341H23.8292V8.85905H24.6191ZM19.925 21.0341C19.7718 18.271 17.78 16.2238 15.1648 16.2238C12.5497 16.2238 10.5368 18.2684 10.3836 21.0341H7.16346V7.27937H23.1477V21.0341H19.9276H19.925ZM19.2434 21.0341H11.0624C11.2077 18.625 12.8878 16.9106 15.1622 16.9106C17.4366 16.9106 19.0955 18.625 19.2408 21.0341H19.2434ZM23.1451 3.68681V6.59256H7.16082V3.68681H23.1451ZM6.47665 8.85905V21.0341H5.68945V8.85905H6.47665ZM19.8484 27.3132H10.4602V26.4837H19.8484V27.3132ZM15.672 25.7969H14.6392V23.8369H15.672V25.7969ZM16.0154 23.15H5.68681V21.7209H24.6191V23.15H16.0128H16.0154ZM16.3588 22.3998C16.3588 22.59 16.2056 22.7432 16.0154 22.7432H14.2958C14.1056 22.7432 13.9523 22.59 13.9523 22.3998C13.9523 22.2096 14.1056 22.0564 14.2958 22.0564H16.0154C16.2056 22.0564 16.3588 22.2096 16.3588 22.3998ZM9.02578 6.3601C9.67561 6.3601 10.2039 5.83178 10.2039 5.18195C10.2039 4.53212 9.67561 4.0038 9.02578 4.0038C8.37595 4.0038 7.84763 4.53212 7.84763 5.18195C7.84763 5.83178 8.37595 6.3601 9.02578 6.3601ZM9.02578 4.69062C9.29787 4.69062 9.51712 4.90987 9.51712 5.18195C9.51712 5.45404 9.29787 5.67329 9.02578 5.67329C8.7537 5.67329 8.53445 5.45404 8.53445 5.18195C8.53445 4.90987 8.7537 4.69062 9.02578 4.69062ZM19.5578 11.4584C18.7838 9.45604 17.08 8.17223 15.1569 8.17223C13.2338 8.17223 11.5564 9.43755 10.7745 11.4135C10.299 11.4663 9.92392 11.8678 9.92392 12.3565V13.4528C9.92392 13.9784 10.3519 14.4064 10.8775 14.4064C11.4032 14.4064 11.8311 13.9784 11.8311 13.4528V12.3565C11.8311 12.0422 11.6753 11.7648 11.4402 11.5904C12.1296 9.92096 13.5614 8.85905 15.1569 8.85905C16.7524 8.85905 18.2 9.93153 18.8842 11.6169C18.6359 11.7886 18.4747 12.0765 18.4747 12.3988V13.495C18.4747 13.8992 18.7283 14.2452 19.085 14.3826V14.6864H18.1208C18.0547 14.4883 17.9279 14.3219 17.7589 14.2083C18.0389 13.7407 18.1895 13.2018 18.1895 12.6497C18.1895 10.975 16.8264 9.61454 15.1543 9.61454C13.4821 9.61454 12.1191 10.9776 12.1191 12.6497C12.1191 14.3219 13.4821 15.6849 15.1543 15.6849C15.4343 15.6849 15.7064 15.6453 15.9732 15.5713C16.1396 15.8223 16.4222 15.9861 16.7445 15.9861H17.249C17.6506 15.9861 17.9887 15.7272 18.1155 15.3706H19.4284C19.6186 15.3706 19.7718 15.2174 19.7718 15.0272V14.38C20.1284 14.2426 20.382 13.8966 20.382 13.4924V12.3961C20.382 11.9154 20.0227 11.5191 19.5578 11.4557V11.4584ZM11.147 13.4554C11.147 13.6033 11.0255 13.7222 10.8802 13.7222C10.7349 13.7222 10.6134 13.6007 10.6134 13.4554V12.3592C10.6134 12.2112 10.7349 12.0924 10.8802 12.0924C11.0255 12.0924 11.147 12.2139 11.147 12.3592V13.4554ZM12.8033 12.6524C12.8033 11.3553 13.8572 10.3014 15.1543 10.3014C16.4513 10.3014 17.5053 11.3553 17.5053 12.6524C17.5053 13.1596 17.3415 13.6509 17.0404 14.0551H16.7445C16.6811 14.0551 16.6204 14.063 16.5622 14.0735C16.5437 14.0762 16.5253 14.0841 16.5068 14.0894C16.4671 14.1 16.4302 14.1105 16.3932 14.1237C16.372 14.1317 16.3509 14.1449 16.3324 14.1554C16.3007 14.1713 16.269 14.1871 16.24 14.2056C16.2188 14.2188 16.2003 14.2347 16.1818 14.2505C16.1554 14.2717 16.129 14.2902 16.1052 14.3139C16.0867 14.3324 16.0709 14.3509 16.055 14.3694C16.0339 14.3932 16.0128 14.4169 15.9943 14.4434C15.9784 14.4645 15.9679 14.4883 15.9547 14.5094C15.9388 14.5358 15.923 14.5649 15.9098 14.5939C15.8992 14.6177 15.8913 14.6441 15.8807 14.6679C15.8701 14.6996 15.8596 14.7287 15.8516 14.7604C15.8464 14.7868 15.8411 14.8132 15.8384 14.8422C15.8358 14.8634 15.8305 14.8819 15.8279 14.9004C15.6113 14.9638 15.3894 14.9955 15.1622 14.9955C13.8652 14.9955 12.8112 13.9415 12.8112 12.6444L12.8033 12.6524ZM17.4868 15.0641C17.4868 15.1962 17.3785 15.3045 17.2464 15.3045H16.7419C16.6098 15.3045 16.5015 15.1962 16.5015 15.0641V14.9822C16.5015 14.8502 16.6098 14.7419 16.7419 14.7419H17.2464C17.3785 14.7419 17.4868 14.8502 17.4868 14.9822V15.0641ZM19.6952 13.4977C19.6952 13.6456 19.5736 13.7645 19.4284 13.7645C19.2831 13.7645 19.1616 13.643 19.1616 13.4977V12.4014C19.1616 12.2535 19.2831 12.132 19.4284 12.132C19.5736 12.132 19.6952 12.2535 19.6952 12.4014V13.4977ZM16.1528 6.06953H21.4413C21.996 6.06953 22.4477 5.61781 22.4477 5.06308C22.4477 4.50835 21.996 4.05664 21.4413 4.05664H16.1528C15.5981 4.05664 15.1463 4.50835 15.1463 5.06308C15.1463 5.61781 15.5981 6.06953 16.1528 6.06953ZM16.1528 4.74609H21.4413C21.6182 4.74609 21.7609 4.88874 21.7609 5.06572C21.7609 5.24271 21.6182 5.38536 21.4413 5.38536H16.1528C15.9758 5.38536 15.8332 5.24271 15.8332 5.06572C15.8332 4.88874 15.9758 4.74609 16.1528 4.74609ZM12.2168 6.36538C12.8667 6.36538 13.395 5.83707 13.395 5.18724C13.395 4.5374 12.8667 4.00909 12.2168 4.00909C11.567 4.00909 11.0387 4.5374 11.0387 5.18724C11.0387 5.83707 11.567 6.36538 12.2168 6.36538ZM12.2168 4.6959C12.4889 4.6959 12.7082 4.91515 12.7082 5.18724C12.7082 5.45932 12.4889 5.67857 12.2168 5.67857C11.9447 5.67857 11.7255 5.45932 11.7255 5.18724C11.7255 4.91515 11.9447 4.6959 12.2168 4.6959Z" fill="url(#paint0_linear_1774_163)"/>
<defs>
<linearGradient id="paint0_linear_1774_163" x1="5.00006" y1="15.5602" x2="25.3063" y2="15.5602" gradientUnits="userSpaceOnUse">
<stop stop-color="#1685FF"/>
<stop offset="0.5" stop-color="#8B5CF6"/>
<stop offset="1" stop-color="#D946EF"/>
</linearGradient>
</defs>
</svg>
