<?xml version="1.0" encoding="UTF-8"?><svg id="a" xmlns="http://www.w3.org/2000/svg" xmlns:xlink="http://www.w3.org/1999/xlink" viewBox="0 0 50 50"><defs><style>.q{fill:url(#l);}.r{fill:url(#c);}.s{fill:url(#m);}.t{fill:url(#f);}.u{fill:url(#p);}.v{fill:url(#g);}.w{fill:url(#b);}.x{fill:url(#i);}.y{fill:url(#h);}.a`{fill:url(#d);}.aa{fill:url(#e);}.ab{fill:url(#n);}.ac{fill:url(#j);}.ad{fill:url(#o);}.ae{fill:url(#k);}</style><linearGradient id="b" x1="10.15" y1="27.44" x2="44.7" y2="27.44" gradientTransform="matrix(1, 0, 0, 1, 0, 0)" gradientUnits="userSpaceOnUse"><stop offset=".01" stop-color="#4376fc"/><stop offset=".99" stop-color="#c84bf1"/></linearGradient><linearGradient id="c" x1="31.29" y1="16.06" x2="40.44" y2="16.06" xlink:href="#b"/><linearGradient id="d" x1="33.57" y1="16.05" x2="38.14" y2="16.05" xlink:href="#b"/><linearGradient id="e" x1="20.45" y1="15.61" x2="24.36" y2="15.61" xlink:href="#b"/><linearGradient id="f" x1="17.39" y1="20.69" x2="21.3" y2="20.69" xlink:href="#b"/><linearGradient id="g" x1="23.52" y1="24.58" x2="27.38" y2="24.58" xlink:href="#b"/><linearGradient id="h" x1="24.81" y1="3.89" x2="26.13" y2="3.89" xlink:href="#b"/><linearGradient id="i" x1="18.95" y1="4.76" x2="20.73" y2="4.76" xlink:href="#b"/><linearGradient id="j" x1="13.53" y1="7.21" x2="15.82" y2="7.21" xlink:href="#b"/><linearGradient id="k" x1="9.18" y1="11.07" x2="11.84" y2="11.07" xlink:href="#b"/><linearGradient id="l" x1="6.08" y1="15.93" x2="9.09" y2="15.93" xlink:href="#b"/><linearGradient id="m" x1="4.56" y1="21.46" x2="7.74" y2="21.46" xlink:href="#b"/><linearGradient id="n" x1="4.84" y1="27.15" x2="7.94" y2="27.15" xlink:href="#b"/><linearGradient id="o" x1="6.78" y1="32.56" x2="9.7" y2="32.56" xlink:href="#b"/><linearGradient id="p" x1="10.26" y1="37.22" x2="12.85" y2="37.22" xlink:href="#b"/></defs><path class="w" d="M44.57,14.41c-.21-.5-.59-.67-1.49-.67h-.78l-.13-.33-.13-.32,.57-.59c.61-.64,.75-.98,.6-1.46-.12-.38-2.09-2.33-2.43-2.41-.47-.12-.83,.03-1.43,.58-.6,.57-.64,.59-.99,.43-.21-.1-.22-.13-.22-.9,0-.88-.12-1.17-.53-1.43-.2-.12-.52-.14-1.75-.14-1.3,0-1.53,.02-1.77,.17-.41,.25-.57,.67-.57,1.51v.72l-.28,.12c-.29,.12-.29,.12-.83-.39-.79-.75-1.07-.85-1.67-.57-.29,.14-.34,.13-1-.08-2.52-.83-5.55-.93-8.11-.28-4.87,1.23-8.88,4.82-10.55,9.46-.66,1.82-.91,3.33-.91,5.28,0,1.83,.19,3.01,.73,4.71,.72,2.27,1.9,4.17,3.71,5.99,1.29,1.29,2.36,2.08,3.84,2.83l.78,.4v2.42l-.31,.2c-.18,.11-.41,.36-.52,.57-.17,.32-.2,.5-.2,1.47,0,1.26,.08,1.5,.64,1.93,.28,.22,.41,.25,1.11,.28l.78,.04v1.32c0,1.52,.07,1.78,.59,2.18l.33,.26h3.53c3.43,0,3.53,0,3.77-.19,.57-.43,.61-.54,.66-2.1l.04-1.44,.75-.04c.83-.05,1.03-.13,1.36-.53,.36-.43,.44-.81,.4-1.91-.04-1.14-.17-1.46-.72-1.81l-.33-.21v-2.43l.46-.21c2.41-1.12,4.76-3.18,6.22-5.47,.57-.89,1.04-1.85,1.04-2.11,0-.35-.3-.59-.69-.56-.36,.03-.31-.04-1.15,1.4-1.08,1.85-2.62,3.48-4.29,4.56-.57,.37-1.42,.85-1.52,.85-.04,0-.08-.78-.08-1.78,0-1.74,0-1.78,.19-1.78,.32,0,.75-.26,.92-.56,.15-.24,.18-.45,.18-1.44,0-1.25-.06-1.46-.56-1.79-.36-.24-2.43-.24-2.79,0-.5,.34-.56,.54-.56,1.79,0,.98,.03,1.2,.17,1.43,.2,.33,.57,.57,.89,.57h.23v7.46h-.98v-2.75c0-2.28-.03-2.81-.13-3.09-.1-.21-1.05-1.23-2.76-2.95l-2.61-2.63,.22-.21c.25-.23,.36-.66,.27-1.06-.08-.37-1.27-1.63-1.78-1.87-.61-.3-.91-.17-1.88,.82-.86,.89-1,1.17-.83,1.7,.13,.4,1.68,1.92,1.97,1.94,.39,.02,.65-.03,.91-.18l.26-.15,2.52,2.57,2.52,2.57v5.29h-1.33v-2.88c0-2.77,0-2.88-.19-3.11-.24-.3-.7-.32-.97-.04-.17,.19-.18,.3-.18,3.11v2.91h-2.04v-4.79h.28c.36,0,.78-.3,.93-.67,.19-.44,.17-2.18-.03-2.58-.26-.55-.53-.65-1.83-.65s-1.51,.08-1.78,.53c-.2,.36-.2,2.49,0,2.84,.18,.29,.56,.53,.87,.53h.23v4.79h-.89v-1.47c0-.83-.04-1.54-.09-1.64-.05-.09-.58-.41-1.17-.71-1.57-.78-2.54-1.47-3.76-2.7-2.19-2.18-3.54-4.87-3.95-7.86-.15-1.07-.12-3,.04-4.08,.86-5.38,4.75-9.75,9.95-11.19,2.35-.65,5.38-.6,7.57,.1l.29,.1-.44,.46c-.75,.76-.74,1.26,.07,2.13,.57,.6,.59,.64,.43,.99-.1,.21-.12,.22-.93,.22s-.83,0-1.16,.3l-.33,.3-.03,1.55c-.04,1.74,.02,1.97,.54,2.28,.22,.14,.44,.18,1.05,.18,.73,0,.76,0,.86,.22,.16,.35,.14,.38-.43,.99-.55,.59-.69,.94-.59,1.43,.04,.17,.42,.61,1.1,1.29,1.1,1.08,1.29,1.23,1.66,1.23,.34,0,.56-.13,1.15-.71q.53-.52,.83-.4l.28,.12v.73c0,.84,.16,1.26,.57,1.51,.24,.15,.46,.17,1.77,.17,1.23,0,1.54-.03,1.75-.14,.42-.26,.53-.55,.53-1.43v-.79l.3-.15c.49-.23,.53-.1,.44,1.25-.09,1.49-.09,1.59,.1,1.79,.19,.2,.64,.24,.88,.06,.19-.13,.31-.66,.32-1.3,0-.27,.04-.53,.07-.59,.04-.05,.22-.12,.42-.16,.29-.06,.52-.24,1.39-1.1,1.47-1.46,1.54-1.75,.55-2.78l-.57-.59,.13-.32,.13-.33h.78c.91,0,1.28-.17,1.49-.67,.18-.43,.18-2.86,0-3.28Zm-22.6,13.05l-.44,.44-.44-.44-.44-.43,.42-.43c.23-.23,.44-.43,.47-.43s.24,.2,.47,.43l.42,.43-.44,.43Zm6.3,18.64v.31h-6.21v-.62h6.21v.31Zm0-1.91v.27h-6.21v-.53h6.21v.27Zm1.51-14.83h1.24v1.24h-1.24v-1.24Zm-8.26,2.66h1.24v1.24h-1.24v-1.24Zm-1.94,8.81c.08-.08,1.46-.11,5.63-.11,4.95,0,5.52,.02,5.58,.14,.07,.18,.07,1.4,0,1.58-.05,.12-.63,.14-5.63,.14s-5.58-.02-5.63-.14c-.1-.26-.06-1.5,.05-1.62Zm23.78-23.83l-.74,.03c-.61,.03-.8,.07-1.07,.26-.34,.23-.74,.98-.83,1.55-.06,.4,.21,.96,.73,1.46l.4,.39-.68,.69-.68,.68-.5-.47c-.67-.65-1.07-.77-1.76-.54-1.05,.36-1.36,.75-1.42,1.83l-.04,.7h-1.93v-.75c0-.88-.17-1.21-.8-1.54-1.06-.54-1.5-.49-2.26,.24l-.54,.52-.7-.7-.7-.71,.51-.52c.67-.67,.75-1.04,.44-1.88-.36-.98-.75-1.24-1.86-1.24h-.56v-1.95h.56c1.11,0,1.54-.29,1.9-1.31,.29-.82,.11-1.38-.72-2.15l-.24-.21,1.38-1.38,.5,.47c.81,.77,1.22,.82,2.34,.26,.61-.3,.77-.61,.77-1.52v-.73h1.93l.04,.68c.03,.4,.11,.82,.2,.99,.18,.35,.65,.67,1.28,.87,.65,.2,1.02,.09,1.68-.54l.52-.48,.68,.68,.68,.67-.47,.5c-.63,.66-.76,1.07-.56,1.72,.18,.55,.45,.99,.79,1.23,.19,.14,.43,.2,1,.22l.75,.04v1.91Z"/><path class="r" d="M39.58,14.19c-.43,0-.68,.3-.62,.71,.17,1.04,.16,1.49-.03,2.1-.24,.77-.68,1.37-1.34,1.79-1.63,1.06-3.76,.46-4.64-1.31-.26-.53-.28-.66-.28-1.43s.03-.91,.25-1.38c.33-.69,.92-1.3,1.61-1.61,.45-.21,.67-.25,1.25-.25,.39,0,.91,.04,1.16,.07,.41,.07,.48,.05,.65-.12,.23-.23,.25-.73,.03-.92-.42-.38-1.89-.51-2.9-.27-.29,.07-.79,.28-1.11,.48-1.48,.88-2.31,2.3-2.31,3.94,0,1.38,.5,2.52,1.49,3.44,1.83,1.69,4.51,1.63,6.27-.13,1.16-1.16,1.65-2.82,1.26-4.31-.17-.59-.36-.81-.73-.81Z"/><path class="a`" d="M34.88,13.96c-.52,.24-1.04,.78-1.21,1.26-.15,.45-.14,1.33,.03,1.73,.52,1.21,2,1.76,3.16,1.18,.8-.4,1.28-1.17,1.28-2.08,0-1.7-1.73-2.81-3.26-2.1Zm1.4,2.97c-.52,.26-1.17-.02-1.36-.57-.32-.97,.88-1.73,1.59-1.01,.47,.47,.36,1.28-.23,1.58Z"/><path class="aa" d="M23.79,17.39c.44-.28,.57-.65,.57-1.78s-.1-1.46-.49-1.77c-.22-.18-.35-.2-1.46-.2-.9,0-1.27,.04-1.45,.14-.44,.23-.52,.52-.52,1.86v1.21l.35,.35,.35,.35h1.18c1,0,1.23-.03,1.46-.17Zm-2.01-2.41h1.24v1.24h-1.24v-1.24Z"/><path class="t" d="M20.67,18.85c-.4-.19-2.27-.19-2.66,0-.51,.25-.61,.56-.61,1.86s.06,1.47,.55,1.79c.2,.13,.44,.16,1.4,.16s1.21-.03,1.4-.16c.49-.32,.55-.52,.55-1.79s-.11-1.62-.63-1.86Zm-.7,1.86v.62h-1.24l-.03-.52c-.04-.76-.03-.77,.67-.75l.6,.03v.62Z"/><path class="v" d="M24.98,28.73c.27,.28,.73,.27,.97-.04,.18-.22,.19-.35,.19-2.34,0-2.26,0-2.22,.44-2.22,.1,0,.31-.14,.49-.31l.31-.32v-1.24c0-1.89-.14-2.03-1.97-2.03-.91,0-1.14,.03-1.34,.17-.51,.33-.55,.48-.55,1.8,0,1.09,.02,1.23,.19,1.46,.2,.27,.48,.44,.86,.52l.24,.04v2.16c0,2.05,0,2.17,.18,2.35Zm-.19-7.17h1.25v1.34l-.59-.03-.6-.03-.03-.65-.03-.64Z"/><path class="y" d="M25.78,5.35c.33-.17,.38-.43,.34-1.73-.03-.91-.04-1-.24-1.16-.28-.23-.6-.21-.85,.05-.21,.2-.22,.26-.22,1.38s0,1.17,.22,1.38c.25,.26,.4,.28,.75,.09Z"/><path class="x" d="M20.54,6.13c.27-.22,.26-.5-.08-1.62-.35-1.15-.51-1.34-1.05-1.25-.25,.04-.47,.34-.47,.62,0,.2,.36,1.48,.55,2,.17,.43,.68,.56,1.05,.26Z"/><path class="ac" d="M15.56,8.53c.16-.12,.24-.28,.26-.49,.02-.26-.08-.47-.59-1.24-.57-.86-.76-1.04-1.11-1.05-.04,0-.2,.12-.34,.26-.14,.14-.26,.35-.26,.44s.29,.6,.65,1.14c.73,1.08,.97,1.24,1.38,.94Z"/><path class="ae" d="M11.84,11.66c0-.33-.2-.55-1.23-1.37-.65-.52-1.06-.6-1.3-.26-.08,.11-.14,.33-.14,.49,0,.26,.1,.37,.91,1.05,.52,.44,.99,.75,1.1,.75,.33,0,.66-.33,.66-.67Z"/><path class="q" d="M8.47,16.94c.29,0,.62-.36,.62-.66,0-.33-.29-.54-1.31-.98-1.05-.44-1.03-.44-1.32-.32-.41,.17-.51,.75-.18,1.04,.27,.24,1.88,.91,2.19,.91Z"/><path class="s" d="M7.67,21.81c.24-.56-.1-.84-1.16-.97-.41-.05-.86-.11-1.01-.12-.14-.03-.36,0-.45,.04-.23,.09-.48,.43-.48,.64,0,.08,.09,.25,.2,.37,.18,.2,.32,.24,1.29,.36,1.22,.14,1.45,.1,1.62-.32Z"/><path class="ab" d="M7.71,26.54c-.27-.22-.43-.22-1.53,0-.45,.08-.92,.2-1.05,.27-.43,.24-.37,.92,.1,1.11,.36,.14,2.25-.19,2.52-.43,.28-.25,.25-.7-.04-.93Z"/><path class="ad" d="M9.08,31.5c-.12,0-.61,.2-1.1,.45-1.09,.57-1.2,.65-1.2,1.03,0,.36,.27,.65,.58,.65s2.15-.93,2.26-1.15c.23-.44-.07-.99-.54-.99Z"/><path class="u" d="M12.22,35.94c-.26,0-.41,.1-1.02,.68q-.95,.91-.92,1.26c.03,.4,.38,.68,.74,.59,.14-.04,.59-.41,1.05-.85,.66-.65,.79-.83,.79-1.06,0-.38-.25-.63-.63-.63Z"/></svg>