<svg width="100" height="100" viewBox="0 0 100 100" fill="none" xmlns="http://www.w3.org/2000/svg">
<path d="M92.736 42.2086C89.4302 42.2086 86.6681 44.6009 86.1027 47.7544H73.4668C73.184 42.1868 70.9548 37.1194 67.4424 33.2264L74.4998 26.169C76.1853 27.463 78.1971 28.1155 80.2197 28.1155C82.6229 28.1155 85.0261 27.2021 86.853 25.3752C88.6255 23.6027 89.6042 21.243 89.6042 18.7419C89.6042 16.2408 88.6255 13.8811 86.853 12.1086C85.0805 10.3361 82.7208 9.35738 80.2197 9.35738C77.7186 9.35738 75.3589 10.3361 73.5864 12.1086C71.8139 13.8811 70.8352 16.2408 70.8352 18.7419C70.8352 20.8406 71.5311 22.8306 72.7925 24.4617L65.7351 31.5192C61.8422 28.0068 56.7856 25.7775 51.2071 25.4948V19.079C54.3498 18.5026 56.753 15.7515 56.753 12.4457C56.753 8.72667 53.7299 5.69275 50.0001 5.69275C46.2702 5.69275 43.2471 8.7158 43.2471 12.4457C43.2471 15.7515 45.6395 18.5135 48.793 19.079V25.4948C43.2254 25.7775 38.158 28.0176 34.265 31.5192L27.2076 24.4617C30.0458 20.7862 29.7848 15.4796 26.4138 12.1086C24.6412 10.3361 22.2815 9.35738 19.7804 9.35738C17.2794 9.35738 14.9196 10.3361 13.1471 12.1086C11.3746 13.8811 10.3959 16.2408 10.3959 18.7419C10.3959 21.243 11.3746 23.6027 13.1471 25.3752C14.974 27.2021 17.3772 28.1155 19.7804 28.1155C21.8031 28.1155 23.8148 27.463 25.5003 26.169L32.5577 33.2264C29.0453 37.1194 26.8161 42.1759 26.5334 47.7544H13.8975C13.3211 44.6118 10.5699 42.2086 7.26416 42.2086C3.54515 42.2086 0.51123 45.2316 0.51123 48.9615C0.51123 52.6805 3.53428 55.7144 7.26416 55.7144C10.5699 55.7144 13.332 53.3221 13.8975 50.1685H26.5334C26.8161 55.7362 29.0562 60.8036 32.5577 64.6966L25.5003 71.754C21.8248 68.9158 16.5182 69.1768 13.1471 72.5478C11.3746 74.3203 10.3959 76.68 10.3959 79.1811C10.3959 81.6822 11.3746 84.0419 13.1471 85.8144C14.9196 87.5869 17.2794 88.5656 19.7804 88.5656C22.2815 88.5656 24.6412 87.5869 26.4138 85.8144C28.1863 84.0419 29.1649 81.6822 29.1649 79.1811C29.1649 77.0824 28.469 75.0924 27.2076 73.4612L34.265 66.4038C38.158 69.9162 43.2145 72.1454 48.793 72.4282V80.921C45.6504 81.4973 43.2471 84.2485 43.2471 87.5543C43.2471 91.2733 46.2702 94.3072 50.0001 94.3072C53.7299 94.3072 56.753 91.2842 56.753 87.5543C56.753 84.2485 54.3606 81.4865 51.2071 80.921V72.4282C56.7747 72.1454 61.8422 69.9162 65.7351 66.4038L72.7925 73.4612C71.5311 75.0924 70.8352 77.0824 70.8352 79.1811C70.8352 81.6822 71.8139 84.0419 73.5864 85.8144C75.3589 87.5869 77.7186 88.5656 80.2197 88.5656C82.7208 88.5656 85.0805 87.5869 86.853 85.8144C88.6255 84.0419 89.6042 81.6822 89.6042 79.1811C89.6042 76.68 88.6255 74.3203 86.853 72.5478C83.482 69.1768 78.1753 68.9158 74.4998 71.754L67.4424 64.6966C70.9548 60.8036 73.184 55.747 73.4668 50.1685H86.1027C86.679 53.3112 89.4302 55.7144 92.736 55.7144C96.455 55.7144 99.4889 52.6914 99.4889 48.9615C99.4889 45.2316 96.4658 42.2086 92.736 42.2086ZM7.26416 53.3003C4.87182 53.3003 2.92532 51.3538 2.92532 48.9615C2.92532 46.5692 4.87182 44.6227 7.26416 44.6227C9.6565 44.6227 11.603 46.5692 11.603 48.9615C11.603 51.3538 9.6565 53.3003 7.26416 53.3003ZM62.2554 47.7544C62.1684 44.677 61.7769 41.7084 61.1027 38.9898C63.1906 37.9567 64.8435 36.6301 65.8548 35.0968C68.8561 38.5222 70.7591 42.9154 71.0309 47.7544H62.2554ZM51.2071 28.3004C54.0997 29.0833 56.6442 32.6283 58.2101 37.6087C56.1658 38.3373 53.7626 38.8049 51.2071 38.9137V28.3004ZM58.9061 32.8676C58.0905 31.2364 57.1662 29.888 56.1658 28.8006C59.1453 29.714 61.8421 31.2908 64.0931 33.3352C63.4407 34.6074 62.1575 35.7384 60.4285 36.6518C60.0044 35.3034 59.4933 34.0311 58.9061 32.8676ZM39.5608 36.6518C37.8318 35.7384 36.5486 34.6074 35.8961 33.3352C38.158 31.2908 40.8439 29.7249 43.8235 28.8006C42.823 29.888 41.8987 31.2473 41.0832 32.8676C40.5068 34.0311 39.9957 35.3034 39.5608 36.6518ZM48.793 28.3004V38.9137C46.2376 38.8049 43.8343 38.3373 41.79 37.6087C43.3559 32.6283 45.9005 29.0942 48.793 28.3004ZM48.793 41.3277V47.7436H40.1588C40.2458 44.9706 40.5938 42.3282 41.1593 39.925C43.4211 40.7297 46.0201 41.219 48.793 41.3277ZM48.793 50.1685V56.3343C45.9875 56.4539 43.3559 56.965 41.0723 57.7914C40.5394 55.4426 40.2241 52.8654 40.148 50.1685H48.793ZM48.793 58.7375V69.7857C45.8352 68.981 43.2471 65.2838 41.6812 60.1076C43.7474 59.3464 46.1941 58.8571 48.793 58.7375ZM41.094 65.2185C41.8552 66.7301 42.7143 68.0023 43.6277 69.0463C40.7026 68.122 38.071 66.5561 35.8526 64.5443C36.4725 63.2285 37.7448 62.065 39.4629 61.1189C39.9196 62.5761 40.4633 63.968 41.094 65.2185ZM60.5372 61.1189C62.2554 62.065 63.5277 63.2394 64.1475 64.5443C61.9291 66.5561 59.2976 68.122 56.3724 69.0463C57.2967 67.9915 58.1558 66.7301 58.9061 65.2185C59.5368 63.968 60.0805 62.5761 60.5372 61.1189ZM51.2071 69.7857V58.7375C53.8061 58.8571 56.2528 59.3464 58.3189 60.1076C56.753 65.2838 54.1649 68.981 51.2071 69.7857ZM51.2071 56.3234V50.1577H59.8522C59.776 52.8545 59.4607 55.4208 58.9278 57.7805C56.6442 56.9541 54.0127 56.443 51.2071 56.3234ZM51.2071 47.7544V41.3386C53.98 41.2299 56.579 40.7297 58.8408 39.9358C59.4063 42.3391 59.7543 44.9815 59.8413 47.7544H51.2071ZM75.2936 13.805C76.6094 12.4892 78.3602 11.7606 80.2197 11.7606C82.0792 11.7606 83.8299 12.4892 85.1457 13.805C86.4615 15.1207 87.1901 16.8715 87.1901 18.731C87.1901 20.5905 86.4615 22.3413 85.1457 23.6571C82.4272 26.3756 78.0122 26.3756 75.2936 23.6571C73.9778 22.3413 73.2493 20.5905 73.2493 18.731C73.2493 16.8715 73.9778 15.1316 75.2936 13.805ZM45.6612 12.4348C45.6612 10.0425 47.6077 8.09596 50.0001 8.09596C52.3924 8.09596 54.3389 10.0425 54.3389 12.4348C54.3389 14.8271 52.3924 16.7736 50.0001 16.7736C47.6077 16.7736 45.6612 14.8271 45.6612 12.4348ZM14.8544 23.6679C13.5386 22.3521 12.81 20.6014 12.81 18.7419C12.81 16.8824 13.5386 15.1316 14.8544 13.8158C16.1702 12.5 17.9209 11.7715 19.7804 11.7715C21.6399 11.7715 23.3907 12.5 24.7065 13.8158C27.4251 16.5344 27.4251 20.9494 24.7065 23.6679C21.9879 26.3865 17.573 26.3865 14.8544 23.6679ZM34.1562 35.0968C35.1675 36.6192 36.8204 37.9459 38.9083 38.9898C38.2341 41.7084 37.8426 44.677 37.7556 47.7544H28.991C29.2519 42.9154 31.1549 38.5222 34.1562 35.0968ZM37.7339 50.1685C37.81 53.1807 38.1797 56.0841 38.8104 58.7592C36.7226 59.8249 35.0806 61.1842 34.091 62.7501C31.1223 59.3356 29.2519 54.9641 28.9801 50.1577H37.7339V50.1685ZM24.7065 84.1072C23.3907 85.4229 21.6399 86.1515 19.7804 86.1515C17.9209 86.1515 16.1702 85.4229 14.8544 84.1072C13.5386 82.7914 12.81 81.0406 12.81 79.1811C12.81 77.3216 13.5386 75.5708 14.8544 74.2551C16.2137 72.8958 17.9971 72.2216 19.7804 72.2216C21.5638 72.2216 23.3472 72.8958 24.7065 74.2551C26.0223 75.5708 26.7509 77.3216 26.7509 79.1811C26.7509 81.0406 26.0223 82.7914 24.7065 84.1072ZM54.3389 87.5543C54.3389 89.9466 52.3924 91.8931 50.0001 91.8931C47.6077 91.8931 45.6612 89.9466 45.6612 87.5543C45.6612 85.162 47.6077 83.2155 50.0001 83.2155C52.3924 83.2155 54.3389 85.162 54.3389 87.5543ZM80.2197 72.2107C82.0031 72.2107 83.7864 72.8849 85.1457 74.2442C86.4615 75.56 87.1901 77.3107 87.1901 79.1702C87.1901 81.0297 86.4615 82.7805 85.1457 84.0963C83.8299 85.4121 82.0792 86.1406 80.2197 86.1406C78.3602 86.1406 76.6094 85.4121 75.2936 84.0963C73.9778 82.7805 73.2493 81.0297 73.2493 79.1702C73.2493 77.3107 73.9778 75.56 75.2936 74.2442C76.6529 72.8958 78.4363 72.2107 80.2197 72.2107ZM65.9091 62.7501C64.9196 61.1842 63.2667 59.8249 61.1897 58.7592C61.8313 56.0841 62.1901 53.1807 62.2662 50.1685H71.0309C70.7482 54.9641 68.8778 59.3356 65.9091 62.7501ZM92.736 53.3003C90.3436 53.3003 88.3971 51.3538 88.3971 48.9615C88.3971 46.5692 90.3436 44.6227 92.736 44.6227C95.1283 44.6227 97.0748 46.5692 97.0748 48.9615C97.0748 51.3538 95.1283 53.3003 92.736 53.3003Z" fill="url(#paint0_linear_310_757)"/>
<defs>
<linearGradient id="paint0_linear_310_757" x1="0.5115" y1="50.2134" x2="99.491" y2="50.2134" gradientUnits="userSpaceOnUse">
<stop stop-color="#1685FF"/>
<stop offset="0.5" stop-color="#8B5CF6"/>
<stop offset="1" stop-color="#D946EF"/>
</linearGradient>
</defs>
</svg>
