<?xml version="1.0" encoding="UTF-8" standalone="no"?><!DOCTYPE svg PUBLIC "-//W3C//DTD SVG 1.1//EN" "http://www.w3.org/Graphics/SVG/1.1/DTD/svg11.dtd"><svg width="100%" height="100%" viewBox="0 0 36 40" version="1.1" xmlns="http://www.w3.org/2000/svg" xmlns:xlink="http://www.w3.org/1999/xlink" xml:space="preserve" xmlns:serif="http://www.serif.com/" style="fill-rule:evenodd;clip-rule:evenodd;stroke-linejoin:round;stroke-miterlimit:2;"><path d="M20.12,20l-1.364,-1.975l-1.364,1.975l1.364,1.975l1.364,-1.975Zm-7.381,-7.639c-1.575,-0.6 -3.25,-0.892 -4.935,-0.858c-1.685,-0.034 -3.36,0.258 -4.935,0.858c-1.114,0.47 -1.804,1.067 -1.804,1.681c0,0.613 0.69,1.211 1.804,1.681c1.575,0.599 3.25,0.89 4.935,0.855c1.685,0.035 3.36,-0.256 4.935,-0.855c1.114,-0.47 1.803,-1.068 1.803,-1.681c0,-0.614 -0.689,-1.211 -1.803,-1.681Zm-11.674,11.489l0,2.11c0,0.614 0.69,1.212 1.804,1.681c1.575,0.6 3.25,0.89 4.935,0.856c1.685,0.034 3.36,-0.256 4.935,-0.856c1.114,-0.47 1.803,-1.067 1.803,-1.681l0,-2.11c-0.426,0.326 -0.894,0.593 -1.391,0.795c-1.705,0.656 -3.521,0.976 -5.347,0.943c-1.826,0.033 -3.642,-0.287 -5.347,-0.942c-0.497,-0.202 -0.965,-0.47 -1.392,-0.795l0,-0.001Zm0,-3.976c0.427,0.326 0.895,0.594 1.392,0.796c1.705,0.655 3.521,0.975 5.347,0.943c1.826,0.032 3.642,-0.288 5.347,-0.943c0.497,-0.202 0.965,-0.47 1.391,-0.796l0,2.111c0,0.614 -0.689,1.211 -1.803,1.681c-1.575,0.6 -3.25,0.89 -4.935,0.855c-1.684,0.035 -3.36,-0.254 -4.935,-0.853c-1.114,-0.47 -1.804,-1.068 -1.804,-1.681l0,-2.113Zm0,-3.973c0.427,0.325 0.895,0.593 1.392,0.795c1.705,0.655 3.521,0.975 5.347,0.942c1.826,0.033 3.642,-0.287 5.347,-0.942c0.497,-0.202 0.965,-0.47 1.391,-0.795l0,2.11c0,0.613 -0.689,1.211 -1.803,1.681c-1.575,0.6 -3.25,0.891 -4.935,0.857c-1.685,0.035 -3.36,-0.255 -4.935,-0.855c-1.114,-0.47 -1.804,-1.067 -1.804,-1.681l0,-2.112Zm14.542,-1.864l-0,11.923c-0,1.081 -0.938,2.018 -2.457,2.659c-1.705,0.655 -3.52,0.974 -5.346,0.941c-1.826,0.033 -3.642,-0.287 -5.347,-0.942c-1.519,-0.641 -2.457,-1.578 -2.457,-2.659l0,-11.919c0,-1.082 0.938,-2.018 2.457,-2.659c1.705,-0.655 3.521,-0.975 5.347,-0.941c1.826,-0.033 3.642,0.287 5.347,0.942c1.519,0.641 2.457,1.578 2.457,2.659l-0.001,-0.004Zm-3.117,4.731l0.691,-0.23c0.133,-0.044 0.244,-0.139 0.307,-0.265c0.063,-0.125 0.074,-0.271 0.03,-0.404c-0.044,-0.134 -0.139,-0.244 -0.265,-0.307c-0.125,-0.064 -0.271,-0.074 -0.404,-0.03l-0.692,0.234c-0.133,0.044 -0.243,0.14 -0.307,0.265c-0.031,0.063 -0.05,0.13 -0.055,0.2c-0.005,0.069 0.004,0.139 0.026,0.205c0.021,0.066 0.056,0.127 0.102,0.18c0.045,0.053 0.101,0.096 0.163,0.127c0.125,0.063 0.271,0.074 0.404,0.03l0,-0.005Zm0,4.085l0.691,-0.23c0.133,-0.044 0.244,-0.14 0.307,-0.265c0.063,-0.126 0.074,-0.271 0.03,-0.405c-0.044,-0.133 -0.139,-0.244 -0.265,-0.307c-0.125,-0.063 -0.271,-0.074 -0.404,-0.03l-0.692,0.23c-0.133,0.044 -0.243,0.14 -0.307,0.265c-0.063,0.126 -0.074,0.272 -0.029,0.405c0.044,0.133 0.139,0.244 0.265,0.307c0.125,0.063 0.271,0.074 0.404,0.03Zm0,3.907c-0.133,0.044 -0.279,0.033 -0.404,-0.03c-0.126,-0.063 -0.221,-0.174 -0.265,-0.307c-0.045,-0.134 -0.034,-0.279 0.029,-0.405c0.064,-0.125 0.174,-0.221 0.307,-0.265l0.692,-0.23c0.133,-0.044 0.279,-0.033 0.404,0.03c0.126,0.063 0.221,0.174 0.265,0.307c0.044,0.134 0.033,0.279 -0.03,0.405c-0.063,0.125 -0.174,0.22 -0.307,0.264l-0.691,0.231Zm21.551,-22.44l-3.112,-0c-0.141,-0.001 -0.276,-0.057 -0.376,-0.157c-0.1,-0.099 -0.156,-0.235 -0.156,-0.376l0,-2.725l-5.102,-0l0,12.107l8.746,-0.001l-0.001,-8.848Zm-0.858,-1.066l-1.72,0l-0,-1.535l1.72,1.536l-0,-0.001Zm-1.864,-3.085l3.574,3.191c0.067,0.05 0.121,0.114 0.159,0.189c0.037,0.074 0.057,0.156 0.057,0.239l-0,9.918c-0,0.069 -0.014,0.139 -0.041,0.203c-0.027,0.065 -0.066,0.123 -0.116,0.173c-0.05,0.049 -0.108,0.088 -0.173,0.115c-0.065,0.027 -0.134,0.04 -0.204,0.04l-9.811,0c-0.141,0 -0.276,-0.056 -0.376,-0.156c-0.1,-0.099 -0.156,-0.235 -0.156,-0.376l-0,-13.173c-0,-0.141 0.056,-0.276 0.156,-0.376c0.1,-0.1 0.235,-0.156 0.376,-0.156l6.165,0c0.073,-0 0.145,0.015 0.212,0.044c0.067,0.029 0.127,0.071 0.177,0.125l0.001,-0Zm2.722,29.914l-3.111,-0c-0.141,-0 -0.276,-0.056 -0.376,-0.156c-0.1,-0.1 -0.156,-0.235 -0.156,-0.376l0,-2.725l-5.102,-0l0,12.106l8.745,0l0,-8.849Zm-0.858,-1.065l-1.72,0l-0,-1.537l1.72,1.537Zm-1.864,-3.087l3.574,3.192c0.067,0.05 0.121,0.114 0.159,0.188c0.037,0.075 0.057,0.157 0.057,0.24l-0,9.917c-0,0.07 -0.014,0.14 -0.041,0.204c-0.027,0.065 -0.066,0.123 -0.116,0.173c-0.05,0.049 -0.108,0.088 -0.173,0.115c-0.065,0.027 -0.134,0.04 -0.204,0.04l-9.811,0c-0.141,0 -0.276,-0.056 -0.376,-0.156c-0.1,-0.1 -0.156,-0.235 -0.156,-0.376l-0,-13.173c-0,-0.141 0.056,-0.277 0.156,-0.376c0.1,-0.1 0.235,-0.156 0.376,-0.156l6.165,-0c0.073,-0 0.145,0.015 0.212,0.044c0.067,0.029 0.127,0.071 0.177,0.124l0.001,0Zm-13.095,-18.812c0,-0.141 0.056,-0.277 0.156,-0.377c0.1,-0.099 0.235,-0.156 0.376,-0.156l3.874,0c0.138,0.004 0.27,0.062 0.366,0.161c0.097,0.1 0.151,0.233 0.151,0.372c-0,0.138 -0.054,0.271 -0.151,0.371c-0.096,0.099 -0.228,0.157 -0.366,0.161l-3.341,-0l0,9.277l1.913,2.77c0.063,0.09 0.095,0.197 0.094,0.307c-0.001,0.11 -0.036,0.216 -0.1,0.305l-1.907,2.761l0,9.278l3.341,0c0.139,0.004 0.27,0.062 0.367,0.161c0.096,0.1 0.15,0.233 0.15,0.372c0,0.138 -0.054,0.271 -0.15,0.37c-0.097,0.1 -0.228,0.158 -0.367,0.162l-3.873,-0c-0.141,-0 -0.277,-0.056 -0.377,-0.156c-0.1,-0.1 -0.156,-0.235 -0.156,-0.377l0,-9.809l-1.913,-2.77c-0.062,-0.09 -0.095,-0.197 -0.094,-0.307c0.001,-0.11 0.036,-0.216 0.1,-0.305l1.907,-2.762l0,-9.809Z" style="fill:#fff;"/></svg>