<?xml version="1.0" encoding="UTF-8" standalone="no"?><!DOCTYPE svg PUBLIC "-//W3C//DTD SVG 1.1//EN" "http://www.w3.org/Graphics/SVG/1.1/DTD/svg11.dtd"><svg width="100%" height="100%" viewBox="0 0 110 110" version="1.1" xmlns="http://www.w3.org/2000/svg" xmlns:xlink="http://www.w3.org/1999/xlink" xml:space="preserve" xmlns:serif="http://www.serif.com/" style="fill-rule:evenodd;clip-rule:evenodd;stroke-linejoin:round;stroke-miterlimit:2;"><rect id="Artboard1" x="0" y="0" width="110" height="110" style="fill:none;"/><path d="M26.607,81.581c-2.055,-2.042 -5.139,-2.649 -7.816,-1.537c-2.677,1.116 -4.419,3.728 -4.419,6.629c-0,2.897 1.742,5.513 4.419,6.625c2.677,1.112 5.761,0.505 7.816,-1.537c1.355,-1.346 2.117,-3.177 2.117,-5.088c-0,-1.911 -0.762,-3.742 -2.117,-5.092Zm65.505,-0c-2.056,-2.042 -5.139,-2.649 -7.816,-1.537c-2.677,1.116 -4.42,3.728 -4.42,6.629c0,2.897 1.743,5.513 4.42,6.625c2.677,1.112 5.76,0.505 7.816,-1.537c1.355,-1.346 2.116,-3.177 2.116,-5.088c0,-1.911 -0.761,-3.742 -2.116,-5.092Zm-64.084,-65.444l0,18.347l5.98,-3.443c0.505,-0.304 1.135,-0.304 1.64,-0l5.98,3.443l-0,-18.347l-13.6,0Zm16.852,0l20.332,0l-0,48.438l-60.768,0l0,-48.438l20.332,0l0,21.168c0.005,0.584 0.318,1.121 0.822,1.411c0.505,0.29 1.126,0.29 1.631,0l7.606,-4.401l7.521,4.34c0.5,0.337 1.145,0.374 1.673,0.089c0.533,-0.285 0.864,-0.836 0.864,-1.439l0,-21.168l-0.013,0Zm33.811,22.724l-0,20.155l26.625,0c-0.196,-0.869 -0.5,-1.705 -0.911,-2.49l-7.176,-14.1c-1.07,-2.228 -3.341,-3.63 -5.812,-3.588l-12.726,0.023Zm26.863,23.406l-0,22.724l-8.204,-0c-0.813,-5.079 -5.19,-8.811 -10.334,-8.811c-5.139,-0 -9.521,3.732 -10.334,8.811l-44.826,-0c-0.813,-5.079 -5.191,-8.811 -10.33,-8.811c-5.143,-0 -9.521,3.732 -10.334,8.811l-6.746,-0l0,-17.212l62.393,0c0.901,0 1.635,-0.724 1.64,-1.626l-0,-27.292l6.947,-0l-0,21.78c-0,0.897 0.728,1.626 1.63,1.626l28.498,-0Zm3.265,-1.771l0,26.182c0,0.429 -0.172,0.845 -0.476,1.149c-0.304,0.304 -0.72,0.476 -1.149,0.476l-9.844,0c-0.813,5.079 -5.19,8.812 -10.334,8.812c-5.139,-0 -9.521,-3.733 -10.334,-8.812l-44.826,0c-0.813,5.079 -5.191,8.812 -10.33,8.812c-5.143,-0 -9.521,-3.733 -10.334,-8.812l-8.372,0c-0.434,0.005 -0.85,-0.168 -1.158,-0.471c-0.309,-0.304 -0.482,-0.72 -0.482,-1.154l0,-72.167c0,-0.897 0.729,-1.626 1.626,-1.626l64.033,0c0.901,0 1.635,0.725 1.64,1.626l-0,21.099l22.905,-0c3.686,-0.052 7.074,2.023 8.704,5.33l7.176,14.114c0.906,1.682 1.434,3.537 1.556,5.443l-0.001,-0.001Zm-27.507,7.321l3.588,-0c0.453,0.037 0.901,-0.117 1.238,-0.425c0.336,-0.309 0.528,-0.743 0.528,-1.196c-0,-0.458 -0.192,-0.893 -0.528,-1.201c-0.337,-0.308 -0.785,-0.458 -1.238,-0.42l-3.588,-0c-0.897,-0 -1.626,0.728 -1.626,1.625c-0,0.898 0.729,1.626 1.626,1.626l-0,-0.009Zm-70.28,-7.368l12.189,0c0.85,-0.074 1.499,-0.785 1.499,-1.635c0,-0.85 -0.649,-1.56 -1.499,-1.63l-12.189,-0c-0.845,0.07 -1.495,0.78 -1.495,1.63c0,0.85 0.65,1.561 1.495,1.635Zm0,-7.521l12.189,-0c0.897,-0 1.626,-0.729 1.626,-1.631c-0,-0.897 -0.729,-1.626 -1.626,-1.626l-12.189,0c-0.897,0 -1.625,0.729 -1.625,1.626c-0,0.902 0.728,1.631 1.625,1.631Z" style="fill:url(#_Linear1);"/><defs><linearGradient id="_Linear1" x1="0" y1="0" x2="1" y2="0" gradientUnits="userSpaceOnUse" gradientTransform="matrix(107.64,0,0,75.4694,1.18037,55.2028)"><stop offset="0" style="stop-color:#1685ff;stop-opacity:1"/><stop offset="0.5" style="stop-color:#8b5cf6;stop-opacity:1"/><stop offset="1" style="stop-color:#d946ef;stop-opacity:1"/></linearGradient></defs></svg>