<svg width="50" height="50" viewBox="0 0 50 50" fill="none" xmlns="http://www.w3.org/2000/svg">
<path d="M24.8144 30.2624C25.4092 30.2624 25.9905 30.0861 26.485 29.7557C26.9794 29.4252 27.3649 28.9556 27.5925 28.4061C27.8201 27.8567 27.8796 27.2522 27.7635 26.6689C27.6475 26.0856 27.3611 25.5499 26.9406 25.1292C26.5202 24.7088 25.9844 24.4224 25.4011 24.3063C24.8178 24.1903 24.2132 24.2498 23.6637 24.4774C23.1143 24.705 22.6447 25.0905 22.3142 25.5849C21.984 26.0795 21.8076 26.6608 21.8076 27.2555C21.8076 28.053 22.1244 28.8177 22.6882 29.3816C23.2521 29.9455 24.017 30.2624 24.8144 30.2624ZM24.8144 25.7521C25.1119 25.7521 25.4025 25.8402 25.6497 26.0054C25.8969 26.1706 26.0896 26.4054 26.2034 26.6802C26.3172 26.9549 26.347 27.2572 26.289 27.5488C26.2309 27.8404 26.0878 28.1083 25.8775 28.3186C25.6673 28.5288 25.3994 28.6721 25.1078 28.7301C24.8162 28.788 24.5139 28.7582 24.2391 28.6444C23.9644 28.5306 23.7296 28.338 23.5644 28.0907C23.3992 27.8435 23.3111 27.5529 23.3111 27.2555C23.3111 26.8567 23.4694 26.4744 23.7514 26.1924C24.0333 25.9104 24.4157 25.7521 24.8144 25.7521Z" fill="url(#paint0_linear_414_141)"/>
<path d="M38.8231 27.2654C39.0772 27.0301 39.335 26.7947 39.5748 26.5602C39.6454 26.4912 39.7018 26.4088 39.7406 26.3178C39.7794 26.227 39.7999 26.1295 39.801 26.0305C39.8021 25.9318 39.7837 25.8338 39.7469 25.7421C39.7101 25.6504 39.6555 25.5668 39.5865 25.4961C39.5173 25.4255 39.4349 25.3692 39.3441 25.3303C39.2532 25.2915 39.1556 25.2711 39.0569 25.2699C38.958 25.2688 38.8599 25.2873 38.7682 25.324C38.6765 25.3608 38.593 25.4154 38.5224 25.4845C38.2585 25.7416 37.9781 26.0002 37.6955 26.2587C36.1663 24.9441 34.5638 23.717 32.8957 22.5836C32.7439 20.5779 32.4807 18.5823 32.1071 16.6059C32.6154 16.4466 33.1148 16.3016 33.6053 16.1713C34.0109 16.7662 34.6161 17.1957 35.3114 17.3821C36.0067 17.5683 36.7457 17.499 37.3942 17.1868C38.0427 16.8745 38.5578 16.34 38.8457 15.6803C39.1335 15.0205 39.1753 14.2794 38.9632 13.5916C38.7511 12.9037 38.2994 12.3149 37.6899 11.9319C37.0805 11.5488 36.3539 11.397 35.6421 11.5042C34.9303 11.6113 34.2806 11.9703 33.811 12.5159C33.3413 13.0613 33.0831 13.7572 33.0829 14.4769C33.0829 14.5701 33.1024 14.6582 33.1107 14.7499C32.6808 14.8657 32.2454 14.9905 31.8027 15.1258C30.436 9.12399 28.0269 4.70459 24.814 4.70459C21.6012 4.70459 19.1933 9.12174 17.8229 15.1228C17.4884 15.019 17.1524 14.913 16.8268 14.8221C16.6349 14.7681 16.4294 14.7926 16.2554 14.8903C16.0815 14.9879 15.9536 15.1506 15.8996 15.3425C15.8458 15.5347 15.8703 15.7402 15.9678 15.9141C16.0656 16.0879 16.2282 16.216 16.4202 16.2699C16.778 16.3699 17.1464 16.4849 17.5147 16.6006C17.1407 18.579 16.8769 20.5767 16.7246 22.5844C15.0583 23.717 13.4575 24.9426 11.9294 26.2557C11.5284 25.8874 11.1451 25.5196 10.7792 25.1522C11.2066 24.5271 11.3906 23.7673 11.2968 23.016C11.2028 22.2645 10.8374 21.5734 10.2691 21.0728C9.70104 20.5722 8.96953 20.2965 8.21232 20.2979C7.45495 20.2991 6.72435 20.5772 6.15806 21.0799C5.59161 21.5824 5.22857 22.2747 5.13717 23.0265C5.04577 23.7782 5.23248 24.5373 5.66197 25.161C6.09146 25.7846 6.73412 26.2297 7.46894 26.4124C8.2039 26.595 8.9802 26.5027 9.65173 26.1528C10.0185 26.5226 10.4019 26.8927 10.8018 27.2631C7.73171 30.1129 5.62694 32.9363 5.00984 35.2494C4.8326 35.7871 4.76585 36.3549 4.81351 36.9191C4.86116 37.4831 5.02232 38.0318 5.2872 38.5321C6.11401 39.9649 7.93706 40.7017 10.5492 40.7017C11.7978 40.6871 13.0423 40.5542 14.2658 40.3047C15.4608 40.0676 16.6422 39.7665 17.8049 39.4027C17.88 39.7342 17.9552 40.0694 18.0356 40.3889C18.0771 40.5506 18.1711 40.694 18.3031 40.7964C18.4349 40.8988 18.5971 40.9542 18.7641 40.9542C18.827 40.9542 18.8897 40.9463 18.9505 40.9302C19.1436 40.8807 19.3091 40.7567 19.4107 40.5853C19.5123 40.4138 19.5418 40.2091 19.4925 40.016C19.4023 39.6643 19.3203 39.2967 19.2384 38.929C21.1431 38.2588 23.0081 37.4809 24.8245 36.5987C26.6365 37.4711 28.4956 38.2421 30.3932 38.908C30.306 39.299 30.2128 39.6778 30.1173 40.0521C29.4422 40.0469 28.7853 40.2702 28.2533 40.6859C27.7212 41.1017 27.3457 41.6852 27.1876 42.3416C27.0294 42.998 27.0981 43.6884 27.3825 44.3009C27.667 44.9132 28.1501 45.4112 28.7537 45.714C29.3571 46.0166 30.0453 46.1062 30.7062 45.9679C31.3669 45.8298 31.9616 45.4718 32.3932 44.9527C32.8246 44.4335 33.0679 43.7835 33.0829 43.1085C33.0979 42.4335 32.8842 41.7734 32.4763 41.2354C32.2323 40.9117 31.9255 40.6407 31.5742 40.4385C31.6636 40.0897 31.7531 39.7402 31.8358 39.3794C34.2002 40.1686 36.6663 40.6112 39.1576 40.6934C41.6135 40.6934 43.477 40.0378 44.3444 38.5366C44.6093 38.0362 44.7705 37.4875 44.8183 36.9233C44.8659 36.3591 44.7995 35.791 44.6227 35.2531C44.0009 32.937 41.8977 30.1129 38.8231 27.2654ZM36.0898 12.9735C36.3872 12.9735 36.6779 13.0617 36.925 13.2269C37.1723 13.3922 37.3651 13.627 37.4789 13.9016C37.5927 14.1764 37.6224 14.4786 37.5644 14.7702C37.5064 15.0619 37.3631 15.3298 37.1529 15.5401C36.9426 15.7504 36.6747 15.8935 36.3831 15.9515C36.0915 16.0096 35.7891 15.9798 35.5145 15.866C35.2397 15.7522 35.0049 15.5595 34.8397 15.3123C34.6746 15.065 34.5864 14.7743 34.5864 14.4769C34.5864 14.0783 34.7448 13.6958 35.0267 13.414C35.3087 13.1319 35.6911 12.9735 36.0898 12.9735ZM6.77261 23.4976C6.77261 23.2003 6.8607 22.9097 7.02591 22.6624C7.19113 22.4151 7.42594 22.2225 7.70074 22.1087C7.9754 21.9949 8.27771 21.9652 8.56935 22.023C8.86099 22.0811 9.12888 22.2243 9.33919 22.4347C9.54935 22.6448 9.69262 22.9127 9.75064 23.2043C9.80867 23.496 9.77876 23.7983 9.66511 24.0729C9.55131 24.3478 9.35858 24.5826 9.11129 24.7478C8.864 24.913 8.57341 25.0011 8.27606 25.0011C7.87723 25.0011 7.49494 24.8428 7.21292 24.5608C6.9309 24.2788 6.77261 23.8965 6.77261 23.4976ZM31.5644 43.2507C31.5419 43.4503 31.4796 43.6433 31.3813 43.8185C31.283 43.9935 31.1507 44.1471 30.992 44.2702C30.8334 44.3933 30.6516 44.4834 30.4575 44.5351C30.2635 44.5868 30.061 44.5991 29.8621 44.5713C29.6632 44.5435 29.472 44.4762 29.2996 44.3732C29.1271 44.2702 28.9771 44.1337 28.8583 43.9718C28.7394 43.8099 28.6543 43.6258 28.6079 43.4305C28.5613 43.2351 28.5545 43.0323 28.5876 42.8343C28.6378 42.4751 28.8161 42.1464 29.0897 41.9084C29.3631 41.6703 29.7134 41.5392 30.076 41.539C30.1467 41.5389 30.2173 41.5437 30.2872 41.5533C30.6817 41.6092 31.0378 41.8194 31.2774 42.1376C31.5171 42.4559 31.6197 42.8562 31.5644 43.2507ZM36.5776 27.2518C35.4795 28.1906 34.2887 29.1206 33.0175 30.0242C33.0566 29.1123 33.0829 28.1914 33.0829 27.2563C33.0829 26.3347 33.0596 25.4109 33.0175 24.4907C34.2977 25.3996 35.4885 26.3249 36.5776 27.2518ZM18.0484 27.2563C18.0484 25.9851 18.0943 24.6952 18.1814 23.4127C19.2226 22.7234 20.3037 22.0476 21.4311 21.3974C22.5588 20.747 23.6864 20.1442 24.814 19.5835C25.9415 20.1457 27.0774 20.7493 28.1967 21.3974C29.3161 22.0453 30.4052 22.7234 31.4464 23.4127C31.5336 24.6952 31.5795 25.9851 31.5795 27.2563C31.5795 28.5486 31.5366 29.8309 31.4577 31.0901C30.4052 31.7877 29.3168 32.4665 28.1967 33.1138C27.0766 33.761 25.946 34.3615 24.826 34.9179C23.6713 34.3525 22.5317 33.7474 21.4311 33.1138C20.3104 32.4665 19.2204 31.7892 18.1709 31.0923C18.092 29.8331 18.0484 28.5508 18.0484 27.2563ZM31.2863 21.5206C30.5247 21.0358 29.749 20.5576 28.9484 20.0924C28.1479 19.6271 27.3352 19.1865 26.5242 18.7648C27.9291 18.1221 29.3146 17.562 30.6585 17.087C30.9225 18.51 31.133 20.0014 31.2863 21.5206ZM24.814 6.20804C27.2142 6.20804 29.1739 10.2298 30.3564 15.6046C28.47 16.2707 26.6223 17.0419 24.8223 17.9147C23.0171 17.0396 21.1641 16.2668 19.2722 15.6001C20.454 10.2276 22.4144 6.20804 24.814 6.20804ZM18.9701 17.0825C20.3232 17.5613 21.7079 18.1274 23.1105 18.7693C22.2979 19.1925 21.4852 19.6301 20.6795 20.0954C19.8736 20.5606 19.1009 21.0358 18.3416 21.5237C18.4949 19.9992 18.7063 18.5047 18.9701 17.0825ZM16.6104 24.4907C16.5683 25.4109 16.545 26.3347 16.545 27.2563C16.545 28.1779 16.5675 29.1055 16.6073 30.0182C15.3362 29.1161 14.1493 28.1846 13.054 27.2488C14.1395 26.3226 15.3316 25.3989 16.6104 24.4907ZM13.9802 38.8328C10.1012 39.5846 7.40775 39.2028 6.58845 37.7805C6.42655 37.4495 6.33199 37.0897 6.31034 36.7219C6.2887 36.3542 6.34026 35.9857 6.46218 35.638C7.02441 33.5332 9.00441 30.9217 11.9158 28.2545C13.4468 29.566 15.0502 30.7901 16.7186 31.9215C16.8643 33.9352 17.1237 35.9389 17.4959 37.9233C16.3417 38.2915 15.1681 38.5951 13.9802 38.8328ZM18.9355 37.4496C18.6709 36.0273 18.4618 34.5291 18.3145 32.9768C19.0881 33.4701 19.8728 33.9541 20.6795 34.4209C21.486 34.8878 22.2867 35.323 23.1029 35.7477C21.6868 36.3928 20.2894 36.967 18.9355 37.4458V37.4496ZM26.5429 35.7304C27.3442 35.3118 28.1464 34.8788 28.9484 34.4172C29.7505 33.9556 30.5368 33.4746 31.3066 32.9836C31.1608 34.5179 30.9571 36.001 30.6984 37.4038C29.3364 36.9212 27.9382 36.3575 26.5429 35.7304ZM43.0388 37.7805C41.8398 39.8574 37.3813 39.547 32.1439 37.8872C32.5111 35.9177 32.7657 33.9289 32.907 31.9305C34.5787 30.7974 36.185 29.5707 37.718 28.256C40.628 30.9224 42.6042 33.531 43.1688 35.6372C43.2905 35.9852 43.3417 36.354 43.3193 36.7219C43.2971 37.0899 43.2016 37.4498 43.0388 37.7805Z" fill="url(#paint1_linear_414_141)"/>
<path d="M5.58394 16.9288C5.75352 17.0334 5.95781 17.0663 6.15189 17.0203C6.34582 16.9745 6.51358 16.8533 6.61821 16.6836C6.82296 16.3683 7.10408 16.1098 7.43541 15.9319C7.60738 15.8329 7.73321 15.6698 7.78538 15.4784C7.83754 15.2869 7.81198 15.0826 7.71412 14.91C7.61625 14.7373 7.4542 14.6104 7.26313 14.5567C7.07206 14.5032 6.86761 14.5272 6.69413 14.6239C6.14242 14.927 5.67685 15.3655 5.34116 15.8981C5.23743 16.0672 5.20481 16.2703 5.25021 16.4633C5.29576 16.6564 5.41572 16.8237 5.58394 16.9288Z" fill="url(#paint2_linear_414_141)"/>
<path d="M9.20942 15.385C9.24009 15.3849 9.27075 15.3829 9.30112 15.379C9.70536 15.3321 10.112 15.3093 10.5189 15.3106H10.7023H10.7114C10.9107 15.3117 11.1024 15.2335 11.2441 15.0934C11.3859 14.9531 11.4662 14.7624 11.4672 14.563C11.4683 14.3637 11.3901 14.172 11.25 14.0303C11.1097 13.8885 10.919 13.8082 10.7196 13.8072H10.5212C10.0529 13.8058 9.58494 13.8324 9.11997 13.8869C8.9295 13.9096 8.75497 14.0041 8.632 14.1511C8.50903 14.2982 8.44694 14.4867 8.45837 14.6782C8.46979 14.8696 8.55383 15.0494 8.69349 15.1807C8.83314 15.3121 9.0176 15.3852 9.20942 15.385Z" fill="url(#paint3_linear_414_141)"/>
<path d="M6.02018 20.6602C6.1433 20.6602 6.26461 20.63 6.37345 20.5721C6.48214 20.5142 6.57504 20.4306 6.64389 20.3284C6.71275 20.2263 6.75529 20.1088 6.76807 19.9863C6.78084 19.8637 6.76326 19.7399 6.71696 19.6258C6.54618 19.2181 6.42411 18.7916 6.35316 18.3553C6.33857 18.2576 6.30505 18.1638 6.25424 18.0792C6.20343 17.9944 6.13653 17.9206 6.05716 17.8618C5.97778 17.803 5.88773 17.7603 5.79182 17.7364C5.69606 17.7124 5.59655 17.7076 5.49883 17.722C5.40112 17.7366 5.30731 17.7701 5.22252 17.8209C5.13789 17.8717 5.06408 17.9388 5.00515 18.018C4.94637 18.0974 4.90383 18.1876 4.87977 18.2833C4.85587 18.3791 4.85091 18.4787 4.86549 18.5763C4.95479 19.1301 5.10872 19.6716 5.324 20.1895C5.38007 20.3284 5.47613 20.4473 5.60015 20.5312C5.72418 20.6151 5.87045 20.6599 6.02018 20.6602Z" fill="url(#paint4_linear_414_141)"/>
<path d="M12.8513 15.4931C13.3139 15.5592 13.7922 15.6434 14.2864 15.7456C14.3841 15.768 14.4852 15.7707 14.584 15.7534C14.6828 15.7362 14.777 15.6993 14.8614 15.6451C14.9456 15.5908 15.0182 15.5201 15.0748 15.4374C15.1314 15.3548 15.1709 15.2616 15.1909 15.1632C15.211 15.0651 15.2112 14.9639 15.1916 14.8656C15.1719 14.7673 15.1329 14.6739 15.0765 14.5909C15.0203 14.508 14.948 14.4372 14.8639 14.3824C14.7799 14.3279 14.6858 14.2907 14.587 14.273C14.0624 14.1643 13.5539 14.0747 13.0618 14.0047C12.8644 13.9764 12.664 14.0278 12.5043 14.1473C12.3448 14.267 12.2395 14.4451 12.2112 14.6425C12.1829 14.8399 12.2343 15.0403 12.354 15.1998C12.4735 15.3594 12.6517 15.4648 12.849 15.4931H12.8513Z" fill="url(#paint5_linear_414_141)"/>
<path d="M27.251 46.7442C26.9831 47.0955 26.6747 47.4142 26.3324 47.6935C26.1761 47.8174 26.0754 47.9982 26.0524 48.1962C26.0294 48.3944 26.0861 48.5934 26.2099 48.7497C26.3337 48.9061 26.5145 49.0068 26.7126 49.0298C26.9106 49.0528 27.1097 48.9961 27.266 48.8723C27.7018 48.5187 28.0945 48.115 28.4357 47.6695C28.5585 47.5124 28.6139 47.313 28.5896 47.115C28.5654 46.9171 28.4635 46.737 28.3064 46.6141C28.1493 46.4913 27.9498 46.4359 27.7519 46.4602C27.554 46.4844 27.3738 46.5871 27.251 46.7442Z" fill="url(#paint6_linear_414_141)"/>
<path d="M24.7538 48.3039C24.3776 48.2853 24.0126 48.1718 23.6923 47.974C23.6072 47.9138 23.5107 47.872 23.4088 47.8511C23.3067 47.8304 23.2015 47.8308 23.0997 47.8528C22.9979 47.8747 22.9018 47.9177 22.8175 47.9788C22.7332 48.0398 22.6624 48.1177 22.6098 48.2074C22.5571 48.2973 22.5236 48.397 22.5116 48.5004C22.4994 48.6038 22.509 48.7086 22.5396 48.8081C22.5701 48.9077 22.6209 48.9998 22.689 49.0786C22.7569 49.1575 22.8405 49.2214 22.9345 49.2662C23.472 49.5929 24.0837 49.7776 24.7124 49.8029H24.7357C24.9351 49.8057 25.1273 49.7294 25.2704 49.5905C25.4134 49.4515 25.4953 49.2614 25.4983 49.062C25.5012 48.8627 25.4247 48.6703 25.2858 48.5273C25.1469 48.3843 24.9569 48.3023 24.7575 48.2994L24.7538 48.3039Z" fill="url(#paint7_linear_414_141)"/>
<path d="M21.5274 45.4475C21.43 45.2734 21.2676 45.1452 21.0758 45.0909C20.8838 45.0366 20.6783 45.0607 20.5042 45.1581C20.3301 45.2554 20.2019 45.4177 20.1476 45.6097C20.0934 45.8015 20.1176 46.007 20.2148 46.1811C20.474 46.6494 20.7643 47.0996 21.0837 47.529C21.2034 47.6885 21.3815 47.7938 21.5789 47.8221C21.7762 47.8504 21.9767 47.799 22.1362 47.6793C22.2957 47.5596 22.4011 47.3816 22.4293 47.1843C22.4576 46.9869 22.4062 46.7863 22.2865 46.627C22.0075 46.2512 21.7539 45.8571 21.5274 45.4475Z" fill="url(#paint8_linear_414_141)"/>
<path d="M20.6081 43.4995C20.4343 43.0659 20.2679 42.6094 20.109 42.1298C20.0462 41.9404 19.9107 41.7838 19.7324 41.6942C19.5541 41.6047 19.3474 41.5897 19.158 41.6525C18.9687 41.7152 18.8119 41.8508 18.7225 42.0291C18.6329 42.2074 18.6179 42.4139 18.6807 42.6034C18.8491 43.1116 19.0245 43.5964 19.207 44.0579C19.2628 44.1976 19.3591 44.3173 19.4836 44.4016C19.6081 44.4858 19.755 44.5309 19.9053 44.5309C20.0009 44.5309 20.0956 44.5125 20.1842 44.4768C20.2763 44.4405 20.3603 44.3866 20.4316 44.3179C20.5029 44.249 20.5597 44.1669 20.5991 44.0761C20.6386 43.9853 20.6596 43.8876 20.6612 43.7887C20.6627 43.6898 20.6446 43.5915 20.6081 43.4995Z" fill="url(#paint9_linear_414_141)"/>
<path d="M43.3132 17.847V17.8755C43.3135 17.9736 43.3332 18.0705 43.3712 18.1607C43.4094 18.2511 43.4649 18.3328 43.535 18.4015C43.6049 18.4701 43.6877 18.5241 43.7786 18.5604C43.8697 18.5967 43.967 18.6146 44.0649 18.6131C44.2659 18.6099 44.4574 18.5277 44.5981 18.3843C44.7388 18.241 44.8173 18.048 44.8167 17.847C44.8252 17.2287 44.679 16.618 44.3912 16.0707C44.3445 15.9838 44.281 15.9068 44.2045 15.8444C44.1282 15.7819 44.0401 15.7351 43.9455 15.7067C43.851 15.6782 43.7517 15.6687 43.6536 15.6786C43.5553 15.6885 43.4599 15.7177 43.3731 15.7643C43.286 15.8111 43.209 15.8745 43.1467 15.951C43.0841 16.0275 43.0374 16.1155 43.009 16.21C42.9805 16.3046 42.9709 16.4038 42.9808 16.5021C42.9908 16.6003 43.0199 16.6956 43.0667 16.7826C43.2363 17.1113 43.321 17.4772 43.3132 17.847Z" fill="url(#paint10_linear_414_141)"/>
<path d="M42.4808 22.0349C42.5657 22.0856 42.6595 22.1188 42.7572 22.1331C42.8549 22.1474 42.9545 22.1423 43.0502 22.1181C43.1458 22.0939 43.2359 22.051 43.315 21.9919C43.3942 21.933 43.4609 21.8589 43.5114 21.7741C43.7874 21.3152 44.032 20.8379 44.2437 20.3458C44.2822 20.2549 44.3023 20.157 44.3031 20.0582C44.3038 19.9593 44.285 19.8613 44.2478 19.7696C44.2106 19.6781 44.1558 19.5946 44.0865 19.5243C44.017 19.4538 43.9345 19.3977 43.8434 19.3592C43.7523 19.3207 43.6546 19.3006 43.5556 19.2998C43.4567 19.2991 43.3587 19.3179 43.2672 19.355C43.1755 19.3923 43.0922 19.447 43.0217 19.5165C42.9513 19.5859 42.8952 19.6684 42.8568 19.7595C42.6709 20.1886 42.4567 20.6047 42.2154 21.0052C42.1652 21.0901 42.1323 21.1842 42.1185 21.2821C42.1045 21.3798 42.1101 21.4795 42.1347 21.5751C42.1594 21.6707 42.2027 21.7606 42.262 21.8395C42.3214 21.9184 42.3958 21.9849 42.4808 22.0349Z" fill="url(#paint11_linear_414_141)"/>
<path d="M40.9844 22.7758C40.6947 23.1436 40.3826 23.5159 40.0478 23.8928C39.9797 23.9662 39.9271 24.0523 39.8927 24.1464C39.8584 24.2404 39.8432 24.3402 39.848 24.4401C39.8528 24.54 39.8775 24.638 39.9206 24.7282C39.9638 24.8185 40.0245 24.8993 40.0992 24.9657C40.1741 25.0321 40.2613 25.0831 40.356 25.1154C40.4506 25.1477 40.5508 25.1608 40.6507 25.1539C40.7503 25.1471 40.8477 25.1204 40.9372 25.0754C41.0265 25.0303 41.106 24.968 41.1708 24.8919C41.5265 24.492 41.8595 24.0957 42.1661 23.7049C42.2853 23.5479 42.3383 23.3503 42.3131 23.1547C42.288 22.9591 42.1872 22.7811 42.0322 22.6593C41.877 22.5374 41.6804 22.4813 41.4844 22.5031C41.2885 22.5249 41.1089 22.6228 40.9844 22.7758Z" fill="url(#paint12_linear_414_141)"/>
<path d="M40.47 15.4004C40.9086 15.4566 41.339 15.5641 41.7524 15.7206C41.8404 15.7551 41.9339 15.7729 42.0283 15.7732C42.2037 15.7738 42.3738 15.7129 42.5089 15.6014C42.6442 15.4898 42.7362 15.3344 42.769 15.1622C42.8019 14.99 42.7735 14.8117 42.6887 14.6582C42.6039 14.5047 42.4682 14.3856 42.3051 14.3216C41.7806 14.1212 41.2343 13.9837 40.6774 13.9119C40.5784 13.8951 40.4769 13.8984 40.379 13.9216C40.2812 13.9447 40.1889 13.9873 40.1077 14.0466C40.0267 14.1062 39.9583 14.1812 39.9067 14.2676C39.8551 14.3539 39.8213 14.4497 39.8075 14.5493C39.7936 14.6489 39.7998 14.7503 39.8258 14.8474C39.8518 14.9446 39.8971 15.0355 39.9589 15.1149C40.0206 15.1943 40.0978 15.2604 40.1856 15.3094C40.2733 15.3584 40.37 15.3894 40.47 15.4004Z" fill="url(#paint13_linear_414_141)"/>
<path fill-rule="evenodd" clip-rule="evenodd" d="M28.0997 11.1913L36.6506 19.742L45.2014 11.1913H40.3152V0.197266H32.9859V11.1913H28.0997Z" fill="url(#paint14_linear_414_141)"/>
<path d="M36.4208 15.385V6.73145H36.9751V15.385H36.4208ZM37.8912 9.58779C37.8642 9.31512 37.7481 9.10328 37.543 8.9523C37.338 8.80131 37.0596 8.72582 36.7081 8.72582C36.4692 8.72582 36.2675 8.75962 36.103 8.82723C35.9385 8.89258 35.8123 8.98385 35.7244 9.10103C35.6388 9.21821 35.596 9.35117 35.596 9.49991C35.5915 9.62385 35.6174 9.73202 35.6737 9.82441C35.7323 9.91681 35.8123 9.99681 35.9137 10.0644C36.0151 10.1298 36.1323 10.1872 36.2653 10.2368C36.3982 10.2841 36.5402 10.3247 36.6912 10.3585L37.3132 10.5072C37.6151 10.5748 37.8923 10.665 38.1447 10.7777C38.3971 10.8903 38.6157 11.0289 38.8005 11.1934C38.9853 11.3579 39.1284 11.5517 39.2298 11.7748C39.3335 11.9979 39.3864 12.2537 39.3887 12.5422C39.3864 12.9658 39.2782 13.3332 39.0642 13.6441C38.8523 13.9529 38.5459 14.1929 38.1447 14.3641C37.7458 14.5332 37.2647 14.6177 36.7013 14.6177C36.1425 14.6177 35.6557 14.532 35.2411 14.3608C34.8287 14.1895 34.5064 13.936 34.2743 13.6002C34.0444 13.2622 33.9239 12.8441 33.9126 12.3461H35.3289C35.3447 12.5782 35.4112 12.772 35.5284 12.9275C35.6478 13.0808 35.8067 13.1968 36.005 13.2757C36.2056 13.3523 36.432 13.3906 36.6844 13.3906C36.9323 13.3906 37.1475 13.3546 37.3301 13.2825C37.5149 13.2103 37.658 13.1101 37.7594 12.9816C37.8608 12.8532 37.9115 12.7055 37.9115 12.5388C37.9115 12.3833 37.8653 12.2526 37.7729 12.1467C37.6828 12.0408 37.5498 11.9506 37.374 11.8763C37.2005 11.8019 36.9875 11.7343 36.7351 11.6734L35.9813 11.4841C35.3977 11.3422 34.9368 11.1202 34.5988 10.8182C34.2608 10.5162 34.0929 10.1095 34.0951 9.59793C34.0929 9.17878 34.2044 8.81258 34.4298 8.49934C34.6574 8.1861 34.9695 7.94159 35.3661 7.76582C35.7627 7.59004 36.2135 7.50215 36.7182 7.50215C37.232 7.50215 37.6805 7.59004 38.0636 7.76582C38.449 7.94159 38.7487 8.1861 38.9628 8.49934C39.1768 8.81258 39.2873 9.1754 39.294 9.58779H37.8912Z" fill="white"/>
<defs>
<linearGradient id="paint0_linear_414_141" x1="21.8076" y1="27.2699" x2="27.8214" y2="27.2699" gradientUnits="userSpaceOnUse">
<stop stop-color="#1685FF"/>
<stop offset="0.5" stop-color="#8B5CF6"/>
<stop offset="1" stop-color="#D946EF"/>
</linearGradient>
<linearGradient id="paint1_linear_414_141" x1="4.79878" y1="25.4674" x2="44.834" y2="25.4674" gradientUnits="userSpaceOnUse">
<stop stop-color="#1685FF"/>
<stop offset="0.5" stop-color="#8B5CF6"/>
<stop offset="1" stop-color="#D946EF"/>
</linearGradient>
<linearGradient id="paint2_linear_414_141" x1="5.23022" y1="15.7908" x2="7.81198" y2="15.7908" gradientUnits="userSpaceOnUse">
<stop stop-color="#1685FF"/>
<stop offset="0.5" stop-color="#8B5CF6"/>
<stop offset="1" stop-color="#D946EF"/>
</linearGradient>
<linearGradient id="paint3_linear_414_141" x1="8.45702" y1="14.5999" x2="11.4672" y2="14.5999" gradientUnits="userSpaceOnUse">
<stop stop-color="#1685FF"/>
<stop offset="0.5" stop-color="#8B5CF6"/>
<stop offset="1" stop-color="#D946EF"/>
</linearGradient>
<linearGradient id="paint4_linear_414_141" x1="4.85737" y1="19.1942" x2="6.77213" y2="19.1942" gradientUnits="userSpaceOnUse">
<stop stop-color="#1685FF"/>
<stop offset="0.5" stop-color="#8B5CF6"/>
<stop offset="1" stop-color="#D946EF"/>
</linearGradient>
<linearGradient id="paint5_linear_414_141" x1="12.2037" y1="14.8851" x2="15.2062" y2="14.8851" gradientUnits="userSpaceOnUse">
<stop stop-color="#1685FF"/>
<stop offset="0.5" stop-color="#8B5CF6"/>
<stop offset="1" stop-color="#D946EF"/>
</linearGradient>
<linearGradient id="paint6_linear_414_141" x1="26.0474" y1="47.7509" x2="28.5952" y2="47.7509" gradientUnits="userSpaceOnUse">
<stop stop-color="#1685FF"/>
<stop offset="0.5" stop-color="#8B5CF6"/>
<stop offset="1" stop-color="#D946EF"/>
</linearGradient>
<linearGradient id="paint7_linear_414_141" x1="22.5065" y1="48.8242" x2="25.4983" y2="48.8242" gradientUnits="userSpaceOnUse">
<stop stop-color="#1685FF"/>
<stop offset="0.5" stop-color="#8B5CF6"/>
<stop offset="1" stop-color="#D946EF"/>
</linearGradient>
<linearGradient id="paint8_linear_414_141" x1="20.1192" y1="46.4528" x2="22.437" y2="46.4528" gradientUnits="userSpaceOnUse">
<stop stop-color="#1685FF"/>
<stop offset="0.5" stop-color="#8B5CF6"/>
<stop offset="1" stop-color="#D946EF"/>
</linearGradient>
<linearGradient id="paint9_linear_414_141" x1="18.6425" y1="43.0796" x2="20.6613" y2="43.0796" gradientUnits="userSpaceOnUse">
<stop stop-color="#1685FF"/>
<stop offset="0.5" stop-color="#8B5CF6"/>
<stop offset="1" stop-color="#D946EF"/>
</linearGradient>
<linearGradient id="paint10_linear_414_141" x1="42.9771" y1="17.1511" x2="44.8171" y2="17.1511" gradientUnits="userSpaceOnUse">
<stop stop-color="#1685FF"/>
<stop offset="0.5" stop-color="#8B5CF6"/>
<stop offset="1" stop-color="#D946EF"/>
</linearGradient>
<linearGradient id="paint11_linear_414_141" x1="42.111" y1="20.7272" x2="44.3031" y2="20.7272" gradientUnits="userSpaceOnUse">
<stop stop-color="#1685FF"/>
<stop offset="0.5" stop-color="#8B5CF6"/>
<stop offset="1" stop-color="#D946EF"/>
</linearGradient>
<linearGradient id="paint12_linear_414_141" x1="39.8473" y1="23.8336" x2="42.3193" y2="23.8336" gradientUnits="userSpaceOnUse">
<stop stop-color="#1685FF"/>
<stop offset="0.5" stop-color="#8B5CF6"/>
<stop offset="1" stop-color="#D946EF"/>
</linearGradient>
<linearGradient id="paint13_linear_414_141" x1="39.8003" y1="14.8417" x2="42.7824" y2="14.8417" gradientUnits="userSpaceOnUse">
<stop stop-color="#1685FF"/>
<stop offset="0.5" stop-color="#8B5CF6"/>
<stop offset="1" stop-color="#D946EF"/>
</linearGradient>
<linearGradient id="paint14_linear_414_141" x1="28.0997" y1="10.0167" x2="45.2019" y2="10.0167" gradientUnits="userSpaceOnUse">
<stop stop-color="#1685FF"/>
<stop offset="0.5" stop-color="#8B5CF6"/>
<stop offset="1" stop-color="#D946EF"/>
</linearGradient>
</defs>
</svg>
