<?xml version="1.0" encoding="UTF-8" standalone="no"?><!DOCTYPE svg PUBLIC "-//W3C//DTD SVG 1.1//EN" "http://www.w3.org/Graphics/SVG/1.1/DTD/svg11.dtd"><svg width="100%" height="100%" viewBox="0 0 60 60" version="1.1" xmlns="http://www.w3.org/2000/svg" xmlns:xlink="http://www.w3.org/1999/xlink" xml:space="preserve" xmlns:serif="http://www.serif.com/" style="fill-rule:evenodd;clip-rule:evenodd;stroke-linejoin:round;stroke-miterlimit:2;"><path d="M50,37.4l0.8,-0.8c2.1,-2.1 3.2,-4.9 3.2,-7.8l0,-11.8c0,-1.7 -1.3,-3 -3,-3l-2,0c-1.7,0 -3,1.3 -3,3l0,2.3l-18.1,7.2c-1.2,0.5 -1.9,1.6 -1.9,2.9l0,0.6c0,1.7 1.3,3 3,3c0.4,0 0.8,-0.1 1.1,-0.2l3.7,-1.5l-1.7,13.7l-1.1,0c-1.7,0 -3,1.3 -3,3l0,10l-2,0l0,-13.3l-4.7,-30.2c-0.2,-1.5 -1.5,-2.5 -3,-2.5l-4.6,0c-1.5,0 -2.7,1.1 -3,2.5l-4.7,30.2l0,13.3l-6,0l0,2l60,0l0,-2l-10,0l0,-20.6Zm-12.9,11.7l-0.1,0l0,-1c0,-1.6 -1.3,-2.9 -2.9,-3l0.4,-3l6.8,0l1.5,16l-3.8,0l0,-6.2c0,-1.3 -0.7,-2.4 -1.9,-2.8Zm10.9,8.9l-3.1,0l-2.9,-29.9l4,-1.6l0,14.9l2,-2l0,18.6Zm-18,0l0,-1.2c0,-0.3 0.1,-0.5 0.3,-0.7l5,-5c0.4,-0.4 1,-0.4 1.4,0c0.2,0.2 0.3,0.4 0.3,0.7l0,6.2l-7,0Zm-12,-4l0,4l-4,0l0,-4l4,0Zm2,0l4,0l0,4l-4,0l0,-4Zm-12,0l4,0l0,4l-4,0l0,-4Zm23,-7l3,0c0.6,0 1,0.4 1,1l0,1c-0.4,0.2 -0.8,0.4 -1.1,0.7l-3.9,3.9l0,-5.6c0,-0.6 0.4,-1 1,-1Zm-7,-1l0,6l-16,0l0,-6l16,0Zm-4,2l-8,0l0,2l8,0l0,-2Zm-0.1,-4l-0.5,-8l3.1,0l1.2,8l-3.8,0Zm-2,0l-3.9,0l0.5,-8l2.9,0l0.5,8Zm-5.3,-8l-0.5,8l-3.9,0l1.2,-8l3.2,0Zm22.4,2l6,0l0.2,2l-6.4,0l0.2,-2Zm13,-21c0,-0.6 0.4,-1 1,-1l2,0c0.6,0 1,0.4 1,1l0,11.9c0,2.4 -0.9,4.7 -2.6,6.4l-1.4,1.3l0,-19.6Zm-7.9,11.8l0.7,7.2l-5.5,0l0.7,-5.5l4.1,-1.7Zm-23.3,-2.8l0.5,8l-2.6,0l0.5,-8l1.6,0Zm5.5,8l-3,0l-0.5,-8l2.2,0l1.3,8Zm-9.6,0l-3,0l1.2,-8l2.2,0l-0.4,8Zm16.7,-3c-0.5,0.2 -1.1,0 -1.3,-0.6c-0,-0.1 -0.1,-0.2 -0.1,-0.4l-0,-0.7c-0,-0.4 0.2,-0.8 0.6,-0.9l17.4,-6.9l-0,2.8l-16.6,6.7Zm-14.1,-7l0.6,-10l0.1,0l0.6,10l-1.3,0Zm4,-9.2l1.4,9.2l-2,0l-0.6,-10l0.2,0c0.5,0 0.9,0.4 1,0.8Zm-6.6,0c0.1,-0.5 0.5,-0.8 1,-0.8l0.2,0l-0.6,10l-2,0l1.4,-9.2Zm3.3,-4.8c2.8,0 5,-2.2 5,-5c-0,-1.7 1.3,-3 3,-3l3,0l-0,-2l-11,0c-2.8,0 -5,2.2 -5,5c-0,2.8 2.2,5 5,5Zm-0,-8l4,0c-0.7,0.9 -1,1.9 -1,3c-0,1.7 -1.3,3 -3,3c-1.7,0 -3,-1.3 -3,-3c-0,-1.7 1.3,-3 3,-3Z" style="fill:url(#_Linear1);fill-rule:nonzero;"/><defs><linearGradient id="_Linear1" x1="0" y1="0" x2="1" y2="0" gradientUnits="userSpaceOnUse" gradientTransform="matrix(60.0003,0,0,53.76,-1.9984e-14,30.1445)"><stop offset="0" style="stop-color:#1685ff;stop-opacity:1"/><stop offset="0.5" style="stop-color:#8b5cf6;stop-opacity:1"/><stop offset="1" style="stop-color:#d946ef;stop-opacity:1"/></linearGradient></defs></svg>