<svg width="135" height="135" viewBox="0 0 135 135" fill="none" xmlns="http://www.w3.org/2000/svg">
<path d="M130.053 80.9028C129.837 79.1722 128.713 77.6894 127.098 77.014L103.628 67.0623C102.404 66.5294 101.016 66.5294 99.797 67.0623L92.7421 70.0488V67.2944H95.4174C99.5174 67.2891 102.842 63.9649 102.847 59.8649V47.0903C102.842 42.9851 99.5174 39.6556 95.4174 39.6503H92.7368V29.2712H95.4174C99.5174 29.266 102.842 25.9418 102.847 21.8418V9.06192C102.842 4.95667 99.5174 1.63247 95.4174 1.6272H11.9684C7.86319 1.6272 4.53371 4.95667 4.52844 9.06192V21.8418C4.53372 25.947 7.86332 29.2712 11.9684 29.2712H14.6384V39.6556L11.9684 39.6503C7.85792 39.6556 4.52844 42.9798 4.52844 47.0903V59.8702V59.8649C4.53372 63.9701 7.86332 67.2944 11.9684 67.2944H14.6384V77.6787H11.9684C7.86319 77.6787 4.53898 81.0082 4.53371 85.1082V97.888C4.53899 101.993 7.86319 105.317 11.9684 105.323H75.1134C75.641 107.539 76.3375 109.708 77.2082 111.813C81.1287 121.227 88.3471 127.943 99.918 132.961L99.9127 132.956C100.525 133.23 101.19 133.373 101.86 133.373C102.393 133.373 102.926 133.283 103.432 133.109C123.193 126.46 132.638 100.837 130.053 80.9028ZM8.26397 21.8414V9.06151C8.26397 7.01423 9.92087 5.36259 11.9682 5.36259H95.4171C97.4539 5.36787 99.1108 7.01949 99.116 9.06151V21.8414C99.1108 23.8834 97.4539 25.535 95.4171 25.5403H11.9682C10.9867 25.5403 10.0422 25.1498 9.3457 24.4533C8.65446 23.7621 8.26397 22.8229 8.26397 21.8414ZM18.374 29.2708H89.001V39.6552L18.374 39.6499V29.2708ZM8.26397 59.864V47.0894C8.26397 46.1026 8.65444 45.1634 9.34567 44.4669C10.0422 43.7757 10.9814 43.3852 11.9681 43.3852H95.4171C97.4591 43.3852 99.116 45.0421 99.116 47.0894V59.8693V59.864C99.1107 61.906 97.4538 63.5576 95.4171 63.5629H11.9681C10.9867 63.5629 10.0421 63.1725 9.34567 62.4812C8.65444 61.7847 8.26397 60.8455 8.26397 59.864ZM18.374 67.2987L89.001 67.2934V71.6202L75.9732 77.1289V77.1342C75.6302 77.2767 75.3083 77.4614 75.0023 77.6777H18.3736L18.374 67.2987ZM11.9682 101.586C9.92614 101.581 8.26924 99.9294 8.26924 97.8874V85.1075C8.26924 83.0655 9.92614 81.4138 11.9682 81.4086H72.9815C72.9815 81.5088 72.971 81.6144 72.9815 81.7093C73.0132 84.3741 73.066 87.0229 73.1768 89.6243H64.8609C63.8267 89.6243 62.993 90.458 62.993 91.4922C62.993 92.5211 63.8267 93.3601 64.8609 93.3601H73.3826C73.5831 96.1672 73.8839 98.9111 74.343 101.581L11.9682 101.586ZM121.711 110.52C117.236 120.091 110.324 126.856 102.251 129.569C101.976 129.669 101.67 129.658 101.407 129.532C78.8494 119.754 76.9813 104.235 76.7071 81.6726C76.6912 81.1871 76.9762 80.7492 77.4247 80.5751L101.254 70.5021C101.545 70.3649 101.882 70.3649 102.172 70.5021L125.643 80.4538C126.039 80.6015 126.313 80.9656 126.35 81.3824C127.526 91.3394 125.917 101.423 121.701 110.519L121.711 110.52ZM20.2945 9.51957C17.899 9.51957 15.7356 10.9653 14.8174 13.1815C13.8993 15.3976 14.4111 17.9462 16.1049 19.64C17.7987 21.339 20.3525 21.8456 22.5634 20.9275C24.7795 20.0093 26.2253 17.846 26.2253 15.4451C26.22 12.1735 23.5659 9.52484 20.2945 9.51957ZM20.2945 17.6402C19.4081 17.6402 18.606 17.1073 18.2683 16.2894C17.9254 15.4663 18.1153 14.5218 18.7432 13.8939C19.3711 13.266 20.3157 13.0813 21.1335 13.419C21.9514 13.762 22.4896 14.5588 22.4896 15.4452C22.4843 16.6588 21.5029 17.6402 20.2945 17.6402ZM44.2349 15.4452C44.2349 16.4794 43.4012 17.3131 42.367 17.3131H32.3785C31.3707 17.2867 30.5633 16.4583 30.5633 15.4504C30.5633 14.4373 31.3706 13.6089 32.3785 13.5825H42.3723C43.4013 13.5878 44.2349 14.4215 44.2349 15.4452ZM60.4757 15.4452C60.4757 16.4794 59.642 17.3131 58.6131 17.3131H48.614C48.1127 17.3289 47.622 17.1389 47.2632 16.7854C46.8991 16.4372 46.6986 15.9517 46.6986 15.4504C46.6986 14.9439 46.8991 14.4637 47.2632 14.1102C47.622 13.7566 48.1127 13.5667 48.614 13.5825H58.6131C59.642 13.5825 60.4757 14.4162 60.4757 15.4452ZM76.7219 15.4452C76.7219 15.9412 76.5267 16.4161 76.1732 16.7696C75.8249 17.1178 75.35 17.3131 74.854 17.3131H64.8549C64.3536 17.3289 63.8629 17.1389 63.5041 16.7854C63.14 16.4372 62.9342 15.9517 62.9342 15.4505C62.9342 14.9439 63.14 14.4637 63.5041 14.1102C63.8629 13.7567 64.3536 13.5667 64.8549 13.5825H74.854C75.35 13.5825 75.8249 13.7778 76.1732 14.126C76.5214 14.4796 76.7219 14.9544 76.7219 15.4452ZM92.9627 15.4452C92.9627 16.4794 92.129 17.3131 91.0948 17.3131H81.101C80.0879 17.2867 79.2858 16.4583 79.2858 15.4504C79.2858 14.4373 80.0878 13.6089 81.101 13.5825H91.0948C92.129 13.5825 92.9627 14.4162 92.9627 15.4452ZM20.2932 47.5431C17.8924 47.5431 15.7342 48.9889 14.8161 51.205C13.8979 53.4211 14.4045 55.9697 16.0983 57.6635C17.7921 59.3626 20.3459 59.8691 22.5622 58.951C24.773 58.0329 26.2188 55.8695 26.2188 53.4739C26.2188 50.2023 23.5647 47.5484 20.2932 47.5431ZM20.2932 55.669C19.4067 55.669 18.6047 55.1308 18.267 54.313C17.924 53.4951 18.114 52.5506 18.7419 51.9227C19.3698 51.2949 20.3144 51.1048 21.1321 51.4478C21.95 51.7855 22.4882 52.5876 22.4882 53.474C22.4829 54.6824 21.5015 55.6638 20.2932 55.669ZM60.4744 53.474C60.4744 53.97 60.2791 54.4449 59.9309 54.7931C59.5826 55.1467 59.1077 55.3419 58.6117 55.3419H48.6127C47.5837 55.3419 46.75 54.5082 46.75 53.474C46.75 52.4451 47.5837 51.6061 48.6127 51.6061H58.6117C59.6407 51.6061 60.4744 52.4451 60.4744 53.474ZM76.7206 53.474C76.7206 53.97 76.5253 54.4449 76.1718 54.7931C75.8235 55.1467 75.3486 55.3419 74.8527 55.3419H64.8536C63.8246 55.3419 62.9909 54.5082 62.9909 53.474C62.9909 52.4451 63.8246 51.6061 64.8536 51.6061H74.8527C75.3487 51.6061 75.8235 51.8013 76.1718 52.1549C76.5201 52.5031 76.7206 52.978 76.7206 53.474ZM92.9613 53.474C92.9613 53.97 92.7661 54.4449 92.4179 54.7931C92.0643 55.1467 91.5894 55.3419 91.0934 55.3419H81.0996C80.0654 55.3419 79.2317 54.5082 79.2317 53.474C79.2317 52.4451 80.0654 51.6061 81.0996 51.6061H91.0934C92.1276 51.6061 92.9613 52.4451 92.9613 53.474ZM37.3674 47.5431C34.9719 47.5431 32.8084 48.9889 31.8903 51.205C30.9722 53.4212 31.4787 55.9697 33.1778 57.6635C34.8716 59.3626 37.4201 59.8691 39.6363 58.951C41.8524 58.0329 43.2982 55.8695 43.2982 53.4739C43.2929 50.2023 40.6388 47.5484 37.3674 47.5431ZM37.3674 55.6691C36.481 55.6691 35.6789 55.1308 35.3412 54.313C34.9982 53.4951 35.1882 52.5506 35.8161 51.9227C36.444 51.2949 37.3886 51.1048 38.2064 51.4478C39.0295 51.7855 39.5624 52.5876 39.5624 53.474C39.5624 54.6824 38.5811 55.6691 37.3674 55.6691ZM20.2918 85.5722C17.8963 85.5722 15.7329 87.018 14.82 89.2341C13.9019 91.445 14.4084 93.9935 16.1022 95.6873C17.8013 97.3864 20.3498 97.8929 22.5607 96.9748C24.7768 96.0567 26.2226 93.8933 26.2226 91.4977C26.2173 88.2261 23.5632 85.5722 20.2918 85.5722ZM20.2918 93.6928C19.4054 93.6928 18.6033 93.1599 18.2656 92.3368C17.9226 91.5189 18.1126 90.5744 18.7405 89.9465C19.3684 89.3186 20.313 89.1286 21.1308 89.4716C21.9487 89.8093 22.4869 90.6114 22.4869 91.4978C22.4816 92.7115 21.5002 93.6928 20.2918 93.6928ZM37.3674 85.5722C34.9719 85.5722 32.8084 87.018 31.8903 89.2288C30.9775 91.445 31.484 93.9935 33.1778 95.6873C34.8716 97.3864 37.4254 97.8929 39.6363 96.9748C41.8524 96.0567 43.2982 93.8933 43.2982 91.4977C43.2929 88.2261 40.6388 85.5722 37.3674 85.5722ZM37.3674 93.6928C36.481 93.6928 35.6789 93.1599 35.3412 92.3368C34.9982 91.5189 35.1882 90.5744 35.8161 89.9465C36.444 89.3186 37.3886 89.1286 38.2064 89.4716C39.0295 89.8093 39.5624 90.6114 39.5624 91.4978C39.5624 92.7115 38.5811 93.6928 37.3674 93.6928ZM53.6136 85.5722C51.2128 85.5722 49.0546 87.018 48.1365 89.2341C47.2236 91.445 47.7302 93.9935 49.424 95.6873C51.1178 97.3864 53.6663 97.8929 55.8825 96.9748C58.0986 96.0567 59.5391 93.8933 59.5391 91.4977C59.5391 88.2261 56.8851 85.5722 53.6136 85.5722ZM53.6136 93.6928C52.7219 93.6928 51.9251 93.1599 51.5821 92.3368C51.2444 91.5189 51.4291 90.5744 52.057 89.9465C52.6849 89.3186 53.6295 89.1286 54.4473 89.4716C55.2704 89.8093 55.8034 90.6114 55.8034 91.4978C55.8034 92.7062 54.822 93.6876 53.6136 93.6928ZM112.358 91.0123C112.706 91.3658 112.906 91.8407 112.906 92.3314C112.906 92.8274 112.706 93.3023 112.358 93.6506L100.723 105.286V105.291C99.9945 106.019 98.8125 106.019 98.0844 105.291L92.3593 99.5657H92.354C91.6259 98.8322 91.6259 97.6502 92.354 96.9221C93.0822 96.1887 94.2642 96.1887 94.9976 96.9169L99.4035 101.323L109.719 91.0071C110.067 90.6588 110.542 90.4636 111.038 90.4636C111.534 90.4636 112.009 90.664 112.358 91.0123Z" fill="white"/>
</svg>
