<svg width="63" height="62" viewBox="0 0 63 62" fill="none" xmlns="http://www.w3.org/2000/svg">
<path d="M14 44C11.794 44 10 45.794 10 48C10 50.206 11.794 52 14 52C16.206 52 18 50.206 18 48C18 45.794 16.206 44 14 44ZM14 50C12.897 50 12 49.103 12 48C12 46.897 12.897 46 14 46C15.103 46 16 46.897 16 48C16 49.103 15.103 50 14 50Z" fill="url(#paint0_linear_1332_34)"/>
<path d="M14 40C9.589 40 6 43.589 6 48C6 52.411 9.589 56 14 56C18.411 56 22 52.411 22 48C22 43.589 18.411 40 14 40ZM14 54C10.691 54 8 51.309 8 48C8 44.691 10.691 42 14 42C17.309 42 20 44.691 20 48C20 51.309 17.309 54 14 54Z" fill="url(#paint1_linear_1332_34)"/>
<path d="M62.603 44.935L60 43.026V26.612L56.916 27.64C56.2 27.879 55.455 28 54.702 28C53.212 28 52 26.788 52 25.299V22.701C52 21.212 53.212 20 54.701 20C55.456 20 56.201 20.121 56.917 20.359L60 21.389V11C60 9.346 58.654 8 57 8H49.388L49.728 6.979C49.908 6.438 50 5.874 50 5.301C50 2.378 47.622 0 44.698 0H43.302C40.378 0 38 2.379 38 5.303C38 5.874 38.092 6.439 38.272 6.979L38.612 8H33C32.229 8 31.532 8.301 31 8.78C30.468 8.301 29.771 8 29 8H21.388L21.728 6.979C21.908 6.438 22 5.874 22 5.301C22 2.378 19.622 0 16.698 0H15.302C12.378 0 10 2.379 10 5.303C10 5.874 10.092 6.439 10.272 6.979L10.612 8H5C3.346 8 2 9.346 2 11V40.2L1.272 40.928L2.635 42.293C3.073 42.731 2.912 43.237 2.853 43.383C2.793 43.527 2.549 44 1.929 44H0V52H1.929C2.549 52 2.793 52.473 2.854 52.617C2.914 52.763 3.075 53.268 2.635 53.707L1.273 55.072L6.928 60.727L8.293 59.364C8.733 58.925 9.237 59.088 9.383 59.146C9.527 59.207 10 59.451 10 60.071V62H18V60.071C18 59.451 18.473 59.207 18.617 59.146C18.762 59.087 19.267 58.922 19.707 59.365L21.072 60.727L26.727 55.072L25.364 53.707C24.926 53.269 25.087 52.763 25.146 52.617C25.207 52.473 25.451 52 26.071 52H27H28H45V60.19L62.603 44.935ZM33 10H41.388L40.169 6.346C40.057 6.009 40 5.658 40 5.303C40 3.481 41.481 2 43.302 2H44.698C46.519 2 48 3.481 48 5.302C48 5.658 47.943 6.009 47.831 6.346L46.612 10H57C57.552 10 58 10.448 58 11V18.613L57.55 18.463C56.63 18.155 55.672 18 54.701 18C52.109 18 50 20.109 50 22.701V25.299C50 27.891 52.109 30 54.702 30C55.671 30 56.628 29.845 57.547 29.539L58 29.388V41.56L45 32.027V40H32V29.388L32.451 29.538C33.371 29.846 34.329 30.001 35.299 30.001C37.892 30 40 27.891 40 25.299V22.702C40 21.446 39.511 20.264 38.623 19.377C37.735 18.49 36.555 18.001 35.3 18.001C35.3 18.001 35.299 18.001 35.298 18.001C34.329 18.001 33.372 18.156 32.452 18.463L32 18.613V11C32 10.448 32.448 10 33 10ZM4 11C4 10.448 4.448 10 5 10H13.388L12.169 6.346C12.057 6.009 12 5.658 12 5.303C12 3.481 13.481 2 15.302 2H16.698C18.519 2 20 3.481 20 5.302C20 5.658 19.943 6.009 19.831 6.346L18.612 10H29C29.552 10 30 10.448 30 11V21.389L33.084 20.361C33.8 20.123 34.545 20.002 35.298 20.002C35.299 20.002 35.299 20.002 35.3 20.002C36.021 20.002 36.699 20.282 37.209 20.793C37.719 21.303 38 21.981 38 22.703V25.3C38 26.789 36.788 28.001 35.299 28.002C34.545 28.002 33.8 27.881 33.084 27.642L30 26.614V40H25.8L21.072 35.272L19.707 36.635C19.268 37.074 18.762 36.91 18.617 36.853C18.473 36.793 18 36.549 18 35.929V34H10V35.929C10 36.549 9.527 36.793 9.383 36.854C9.237 36.912 8.734 37.077 8.293 36.635L6.928 35.273L4 38.2V11ZM26 50.001C24.794 50.027 23.763 50.731 23.299 51.853C22.835 52.973 23.067 54.2 23.901 55.071L21.071 57.901C20.199 57.066 18.974 56.836 17.853 57.299C16.732 57.762 16.027 58.794 16.001 60H11.999C11.973 58.794 11.269 57.763 10.147 57.299C9.026 56.836 7.8 57.068 6.929 57.901L4.1 55.07C4.934 54.199 5.165 52.972 4.702 51.852C4.237 50.731 3.206 50.027 2 50.001V45.999C3.206 45.973 4.237 45.269 4.701 44.147C5.165 43.027 4.933 41.8 4.099 40.929L6.929 38.099C7.801 38.933 9.025 39.164 10.147 38.701C11.268 38.237 11.972 37.206 11.999 36H16.001C16.027 37.206 16.731 38.237 17.853 38.701C18.976 39.166 20.202 38.932 21.071 38.099L23.901 40.929C23.067 41.8 22.836 43.027 23.299 44.147C23.763 45.268 24.794 45.972 26 45.999V50.001ZM28 50V44H26.071C25.451 44 25.207 43.527 25.146 43.383C25.086 43.237 24.925 42.732 25.365 42.293L25.658 42H47V35.974L59.397 45.066L47 55.81V50H28Z" fill="url(#paint2_linear_1332_34)"/>
<path d="M12 23C12 21.346 10.654 20 9 20C7.346 20 6 21.346 6 23C6 24.654 7.346 26 9 26C10.654 26 12 24.654 12 23ZM8 23C8 22.448 8.448 22 9 22C9.552 22 10 22.448 10 23C10 23.552 9.552 24 9 24C8.448 24 8 23.552 8 23Z" fill="url(#paint3_linear_1332_34)"/>
<path d="M17 26C18.654 26 20 24.654 20 23C20 21.346 18.654 20 17 20C15.346 20 14 21.346 14 23C14 24.654 15.346 26 17 26ZM17 22C17.552 22 18 22.448 18 23C18 23.552 17.552 24 17 24C16.448 24 16 23.552 16 23C16 22.448 16.448 22 17 22Z" fill="url(#paint4_linear_1332_34)"/>
<path d="M25 26C26.654 26 28 24.654 28 23C28 21.346 26.654 20 25 20C23.346 20 22 21.346 22 23C22 24.654 23.346 26 25 26ZM25 22C25.552 22 26 22.448 26 23C26 23.552 25.552 24 25 24C24.448 24 24 23.552 24 23C24 22.448 24.448 22 25 22Z" fill="url(#paint5_linear_1332_34)"/>
<defs>
<linearGradient id="paint0_linear_1332_34" x1="10" y1="48.0193" x2="18.0002" y2="48.0193" gradientUnits="userSpaceOnUse">
<stop stop-color="#1685FF"/>
<stop offset="0.5" stop-color="#8B5CF6"/>
<stop offset="1" stop-color="#D946EF"/>
</linearGradient>
<linearGradient id="paint1_linear_1332_34" x1="6.00004" y1="48.0385" x2="22.0003" y2="48.0385" gradientUnits="userSpaceOnUse">
<stop stop-color="#1685FF"/>
<stop offset="0.5" stop-color="#8B5CF6"/>
<stop offset="1" stop-color="#D946EF"/>
</linearGradient>
<linearGradient id="paint2_linear_1332_34" x1="0.00017076" y1="31.1493" x2="62.6043" y2="31.1493" gradientUnits="userSpaceOnUse">
<stop stop-color="#1685FF"/>
<stop offset="0.5" stop-color="#8B5CF6"/>
<stop offset="1" stop-color="#D946EF"/>
</linearGradient>
<linearGradient id="paint3_linear_1332_34" x1="6.00002" y1="23.0145" x2="12.0001" y2="23.0145" gradientUnits="userSpaceOnUse">
<stop stop-color="#1685FF"/>
<stop offset="0.5" stop-color="#8B5CF6"/>
<stop offset="1" stop-color="#D946EF"/>
</linearGradient>
<linearGradient id="paint4_linear_1332_34" x1="14" y1="23.0145" x2="20.0001" y2="23.0145" gradientUnits="userSpaceOnUse">
<stop stop-color="#1685FF"/>
<stop offset="0.5" stop-color="#8B5CF6"/>
<stop offset="1" stop-color="#D946EF"/>
</linearGradient>
<linearGradient id="paint5_linear_1332_34" x1="22" y1="23.0145" x2="28.0001" y2="23.0145" gradientUnits="userSpaceOnUse">
<stop stop-color="#1685FF"/>
<stop offset="0.5" stop-color="#8B5CF6"/>
<stop offset="1" stop-color="#D946EF"/>
</linearGradient>
</defs>
</svg>
