<?xml version="1.0" encoding="UTF-8" standalone="no"?><!DOCTYPE svg PUBLIC "-//W3C//DTD SVG 1.1//EN" "http://www.w3.org/Graphics/SVG/1.1/DTD/svg11.dtd"><svg width="100%" height="100%" viewBox="0 0 61 60" version="1.1" xmlns="http://www.w3.org/2000/svg" xmlns:xlink="http://www.w3.org/1999/xlink" xml:space="preserve" xmlns:serif="http://www.serif.com/" style="fill-rule:evenodd;clip-rule:evenodd;stroke-linejoin:round;stroke-miterlimit:2;"><path d="M16.184,9.01c-8.61,0.4 -15.7,7.46 -16.16,16.06c-0.27,5.12 1.75,10.04 5.55,13.49c1.34,1.22 2.18,2.87 2.38,4.63c-1.14,0.43 -1.95,1.52 -1.95,2.8c-0,1.65 1.35,3 3,3l-0,3c-0,1.65 1.35,3 3,3c-0,2.76 2.24,5 5,5c2.76,0 5,-2.24 5,-5c1.65,0 3,-1.35 3,-3l-0,-3c1.65,0 3,-1.35 3,-3c-0,-1.29 -0.82,-2.38 -1.96,-2.8c0.19,-1.77 1,-3.39 2.28,-4.54c3.61,-3.22 5.67,-7.83 5.67,-12.66c-0,-4.83 -1.87,-9.06 -5.27,-12.3c-3.39,-3.24 -7.86,-4.9 -12.55,-4.68l0.01,-0Zm0.82,48.98c-1.65,-0 -3,-1.35 -3,-3l6,-0c-0,1.65 -1.35,3 -3,3Zm6,-6c-0,0.55 -0.45,1 -1,1l-10,-0c-0.55,-0 -1,-0.45 -1,-1l-0,-3l12,-0l-0,3Zm2,-5l-16,-0c-0.55,-0 -1,-0.45 -1,-1c-0,-0.55 0.45,-1 1,-1l16,-0c0.55,-0 1,0.45 1,1c-0,0.55 -0.45,1 -1,1Zm1.99,-9.84c-1.66,1.48 -2.7,3.57 -2.94,5.84l-2.05,-0l-0,-11l1.18,-0c0.41,1.16 1.51,2 2.82,2c1.65,-0 3,-1.35 3,-3c-0,-1.65 -1.35,-3 -3,-3c-1.3,-0 -2.4,0.84 -2.82,2l-2.18,-0c-0.55,-0 -1,0.45 -1,1l-0,12l-2,-0l-0,-21.18c1.16,-0.41 2,-1.51 2,-2.82c-0,-1.65 -1.35,-3 -3,-3c-1.65,-0 -3,1.35 -3,3c-0,1.3 0.84,2.4 2,2.82l-0,21.18l-2,-0l-0,-17c-0,-0.55 -0.45,-1 -1,-1l-2.18,-0c-0.41,-1.16 -1.51,-2 -2.82,-2c-1.65,-0 -3,1.35 -3,3c-0,1.65 1.35,3 3,3c1.3,-0 2.4,-0.84 2.82,-2l1.18,-0l-0,16l-2.05,-0c-0.25,-2.25 -1.32,-4.36 -3.03,-5.91c-3.35,-3.04 -5.14,-7.38 -4.9,-11.9c0.4,-7.59 6.66,-13.81 14.25,-14.17c4.15,-0.19 8.08,1.27 11.08,4.13c3,2.86 4.65,6.71 4.65,10.85c-0,4.14 -1.82,8.32 -5.01,11.16Zm32.25,-24.04l-2.93,-0.73c-0.18,-0.52 -0.39,-1.04 -0.64,-1.54l1.55,-2.59c0.24,-0.39 0.17,-0.9 -0.15,-1.22l-4.11,-4.11c-0.32,-0.32 -0.83,-0.39 -1.22,-0.15l-2.59,1.56c-0.5,-0.25 -1.02,-0.46 -1.54,-0.64l-0.73,-2.93c-0.11,-0.44 -0.51,-0.76 -0.97,-0.76l-5.82,-0c-0.46,-0 -0.86,0.31 -0.97,0.76l-0.73,2.93c-0.52,0.18 -1.04,0.39 -1.54,0.64l-2.59,-1.56c-0.39,-0.24 -0.9,-0.17 -1.22,0.15l-4.11,4.11c-0.32,0.32 -0.39,0.83 -0.15,1.22l1.55,2.59c-0.08,0.17 -0.16,0.34 -0.23,0.52c-0.21,0.51 0.04,1.1 0.55,1.3c0.51,0.21 1.1,-0.04 1.3,-0.55c0.12,-0.29 0.26,-0.57 0.41,-0.83c0.17,-0.31 0.16,-0.68 -0.02,-0.99l-1.44,-2.4l3.01,-3.01l2.4,1.44c0.3,0.18 0.68,0.19 0.99,0.02c0.71,-0.39 1.46,-0.7 2.22,-0.92c0.34,-0.1 0.6,-0.37 0.69,-0.72l0.68,-2.71l4.26,-0l0.68,2.71c0.09,0.34 0.35,0.61 0.69,0.72c0.76,0.23 1.51,0.54 2.22,0.92c0.31,0.17 0.69,0.16 0.99,-0.02l2.4,-1.44l3.01,3.01l-1.44,2.4c-0.18,0.3 -0.19,0.68 -0.02,0.99c0.39,0.71 0.7,1.46 0.92,2.22c0.1,0.34 0.37,0.6 0.72,0.69l2.71,0.68l-0,4.26l-2.71,0.68c-0.34,0.09 -0.61,0.35 -0.72,0.69c-0.23,0.76 -0.54,1.51 -0.92,2.22c-0.17,0.31 -0.16,0.69 0.02,0.99l1.44,2.4l-3.01,3.01l-2.4,-1.44c-0.3,-0.18 -0.68,-0.19 -0.99,-0.02c-0.71,0.39 -1.46,0.7 -2.22,0.92c-0.34,0.1 -0.6,0.37 -0.69,0.72l-0.68,2.71l-4.26,-0l-0.68,-2.71c-0.09,-0.34 -0.34,-0.61 -0.68,-0.71c-0.79,-0.24 -1.53,-0.54 -2.2,-0.91c-0.48,-0.26 -1.09,-0.09 -1.36,0.4c-0.27,0.48 -0.09,1.09 0.4,1.36c0.63,0.35 1.31,0.65 2.04,0.89l0.73,2.93c0.11,0.44 0.51,0.76 0.97,0.76l5.82,-0c0.46,-0 0.86,-0.31 0.97,-0.76l0.73,-2.93c0.52,-0.18 1.04,-0.39 1.54,-0.64l2.59,1.56c0.39,0.24 0.9,0.17 1.22,-0.15l4.11,-4.11c0.32,-0.32 0.39,-0.83 0.15,-1.22l-1.55,-2.59c0.24,-0.5 0.46,-1.02 0.64,-1.54l2.93,-0.73c0.44,-0.11 0.76,-0.51 0.76,-0.97l-0,-5.82c-0,-0.46 -0.31,-0.86 -0.76,-0.97l-0.02,-0.04Zm-34.24,17.88c-0,-0.55 0.45,-1 1,-1c0.55,-0 1,0.45 1,1c-0,0.55 -0.45,1 -1,1c-0.55,-0 -1,-0.45 -1,-1Zm-16,-5c-0,0.55 -0.45,1 -1,1c-0.55,-0 -1,-0.45 -1,-1c-0,-0.55 0.45,-1 1,-1c0.55,-0 1,0.45 1,1Zm34,-2c3.86,-0 7,-3.14 7,-7c-0,-3.86 -3.14,-7 -7,-7c-3.86,-0 -7,3.14 -7,7c-0,3.86 3.14,7 7,7Zm-0,-12c2.76,-0 5,2.24 5,5c-0,2.76 -2.24,5 -5,5c-2.76,-0 -5,-2.24 -5,-5c-0,-2.76 2.24,-5 5,-5Zm-26,8c-0.55,-0 -1,-0.45 -1,-1c-0,-0.55 0.45,-1 1,-1c0.55,-0 1,0.45 1,1c-0,0.55 -0.45,1 -1,1Z" style="fill:url(#_Linear1);fill-rule:nonzero;"/><defs><linearGradient id="_Linear1" x1="0" y1="0" x2="1" y2="0" gradientUnits="userSpaceOnUse" gradientTransform="matrix(60.0243,0,0,53.751,-2.04281e-14,30.1394)"><stop offset="0" style="stop-color:#1685ff;stop-opacity:1"/><stop offset="0.5" style="stop-color:#8b5cf6;stop-opacity:1"/><stop offset="1" style="stop-color:#d946ef;stop-opacity:1"/></linearGradient></defs></svg>