<svg width="30" height="30" viewBox="0 0 30 30" fill="none" xmlns="http://www.w3.org/2000/svg">
<path d="M14.7394 2C9.85232 2 5.47093 4.71382 3.30041 9.08176C1.23747 13.2318 1.64899 17.9198 4.3924 21.6557L2.28643 26.5132C2.23263 26.6369 2.25415 26.7821 2.3456 26.8817C2.41284 26.957 2.50966 27 2.60649 27C2.63877 27 2.67104 26.9946 2.70332 26.9866L8.86792 25.2033C12.4962 27.425 16.9879 27.4653 20.912 25.3002C25.0083 23.0409 27.4559 18.9769 27.4559 14.4287C27.4532 7.57827 21.7512 2 14.7394 2ZM20.5731 24.6896C16.8265 26.7552 12.5392 26.6961 9.10461 24.5282C9.04813 24.4933 8.98357 24.4744 8.91902 24.4744C8.88675 24.4744 8.85447 24.4798 8.8222 24.4879L3.22241 26.1097L5.11321 21.7472C5.16432 21.6315 5.14818 21.497 5.07018 21.3975C2.38056 17.8499 1.95291 13.3609 3.9244 9.39107C5.97658 5.2652 10.1213 2.6993 14.7394 2.6993C21.3639 2.6993 26.7539 7.96288 26.7539 14.4314C26.7539 18.7214 24.4435 22.5568 20.5704 24.6923L20.5731 24.6896ZM22.6172 12.2071C21.7835 9.37762 19.7044 7.13717 17.1304 6.27918C17.1304 6.26573 17.1358 6.2496 17.1358 6.23615C17.1358 5.4454 16.493 4.80258 15.7022 4.80258H13.7603C12.9696 4.80258 12.3268 5.4454 12.3268 6.23615C12.3268 6.25229 12.3321 6.26842 12.3321 6.28187C9.78777 7.13448 7.7329 9.33459 6.88298 12.1237C6.21865 12.2474 5.71569 12.8311 5.71569 13.5304V15.475C5.71569 16.2657 6.35851 16.9086 7.14926 16.9086C7.94 16.9086 8.58282 16.2657 8.58282 15.475V13.5304C8.58282 12.8983 8.16862 12.3658 7.59842 12.1775C8.408 9.68424 10.2558 7.7262 12.5285 6.95428C12.7786 7.37924 13.2332 7.66971 13.763 7.66971H15.7049C16.2348 7.66971 16.692 7.37924 16.9395 6.95159C19.2364 7.72889 21.1003 9.71651 21.8964 12.2421C21.3101 12.4223 20.8824 12.9629 20.8824 13.6057V15.5503C20.8824 16.1824 21.294 16.7122 21.8615 16.9032C20.9927 19.5444 19.0078 21.5293 16.5602 22.199C16.3827 21.6127 15.8421 21.1824 15.1993 21.1824H14.2633C13.4752 21.1824 12.8324 21.8252 12.8324 22.6159V22.7665C12.8324 23.5573 13.4752 24.2001 14.2633 24.2001H15.1993C15.9389 24.2001 16.5414 23.6326 16.614 22.9118C19.4005 22.2017 21.6517 19.9559 22.5769 16.9623C23.2412 16.8386 23.7469 16.255 23.7469 15.5557V13.6111C23.7469 12.9252 23.2628 12.3523 22.6172 12.2125V12.2071ZM7.88083 13.5331V15.4777C7.88083 15.8838 7.55001 16.2119 7.14657 16.2119C6.74312 16.2119 6.4123 15.8811 6.4123 15.4777V13.5331C6.4123 13.1269 6.74312 12.7988 7.14657 12.7988C7.5527 12.7988 7.88083 13.1296 7.88083 13.5331ZM15.7022 6.97041H13.7603C13.3542 6.97041 13.0261 6.63959 13.0261 6.23615C13.0261 5.83271 13.3569 5.50188 13.7603 5.50188H15.7022C16.1084 5.50188 16.4365 5.83271 16.4365 6.23615C16.4365 6.63959 16.1057 6.97041 15.7022 6.97041ZM15.9282 22.7639C15.9282 23.1673 15.6 23.4981 15.1993 23.4981H14.2633C13.8599 23.4981 13.5317 23.17 13.5317 22.7639V22.6132C13.5317 22.2098 13.8599 21.879 14.2633 21.879H15.1993C15.6027 21.879 15.9282 22.2071 15.9282 22.6132V22.7639ZM23.0476 15.5503C23.0476 15.9564 22.7168 16.2846 22.3133 16.2846C21.9099 16.2846 21.5817 15.9537 21.5817 15.5503V13.6057C21.5817 13.1996 21.9099 12.8714 22.3133 12.8714C22.7168 12.8714 23.0476 13.2023 23.0476 13.6057V15.5503ZM12.4451 16.3787V15.1495H16.45V16.3787C16.45 16.5723 16.606 16.7283 16.7996 16.7283H17.9723C18.1659 16.7283 18.3219 16.5723 18.3219 16.3787C18.3219 16.185 18.1659 16.029 17.9723 16.029H17.1493V15.1495H18.2493C19.0401 15.1495 19.6829 14.504 19.6829 13.7133V13.4685C19.6829 12.6778 19.0401 12.0323 18.2493 12.0323H17.2326V11.3303C17.6361 11.185 17.9266 10.8031 17.9266 10.3513C17.9266 9.77569 17.4586 9.30769 16.883 9.30769C16.3074 9.30769 15.8394 9.77569 15.8394 10.3513C15.8394 10.8031 16.1299 11.1877 16.536 11.3303V12.0323H12.4451V11.3303C12.8486 11.185 13.1417 10.8031 13.1417 10.3513C13.1417 9.77569 12.6737 9.30769 12.0982 9.30769C11.5226 9.30769 11.0546 9.77569 11.0546 10.3513C11.0546 10.8031 11.3451 11.185 11.7485 11.3303V12.0323H10.7318C9.94108 12.0323 9.29826 12.6778 9.29826 13.4685V13.7133C9.29826 14.504 9.94108 15.1495 10.7318 15.1495H11.7485V16.029H10.9255C10.7318 16.029 10.5758 16.185 10.5758 16.3787C10.5758 16.5723 10.7318 16.7283 10.9255 16.7283H12.0982C12.2918 16.7283 12.4478 16.5723 12.4478 16.3787H12.4451ZM16.8857 10.007C17.0766 10.007 17.2326 10.163 17.2326 10.354C17.2326 10.5449 17.0766 10.6982 16.8857 10.6982C16.6947 10.6982 16.5387 10.5422 16.5387 10.354C16.5387 10.1657 16.6947 10.007 16.8857 10.007ZM12.0955 10.007C12.2864 10.007 12.4424 10.163 12.4424 10.354C12.4424 10.5449 12.2864 10.6982 12.0955 10.6982C11.9045 10.6982 11.7485 10.5422 11.7485 10.354C11.7485 10.1657 11.9045 10.007 12.0955 10.007ZM9.99487 13.7133V13.4685C9.99487 13.0624 10.3257 12.7316 10.7291 12.7316H18.2493C18.6554 12.7316 18.9836 13.0624 18.9836 13.4685V13.7133C18.9836 14.1194 18.6528 14.4502 18.2493 14.4502H16.8561C16.8373 14.4476 16.8184 14.4395 16.7969 14.4395C16.7754 14.4395 16.7593 14.4476 16.7377 14.4502H12.1493C12.1304 14.4476 12.1116 14.4395 12.0901 14.4395C12.0686 14.4395 12.0524 14.4476 12.0309 14.4502H10.7238C10.3176 14.4502 9.98949 14.1194 9.98949 13.7133H9.99487ZM14.4946 19.8375C13.6662 19.8375 12.8351 19.5229 12.2057 18.8908C12.0686 18.7536 12.0686 18.5331 12.2057 18.3959C12.3429 18.2587 12.5635 18.2587 12.7006 18.3959C13.6904 19.383 15.2961 19.3857 16.2832 18.4013C16.4204 18.2641 16.6409 18.2641 16.7781 18.4013C16.9153 18.5385 16.9153 18.759 16.7781 18.8962C16.1514 19.5229 15.3257 19.8375 14.5 19.8375H14.4946Z" fill="url(#paint0_linear_1775_317)"/>
<defs>
<linearGradient id="paint0_linear_1775_317" x1="2.00007" y1="14.5602" x2="27.4564" y2="14.5602" gradientUnits="userSpaceOnUse">
<stop stop-color="#1685FF"/>
<stop offset="0.5" stop-color="#8B5CF6"/>
<stop offset="1" stop-color="#D946EF"/>
</linearGradient>
</defs>
</svg>
