<svg width="50" height="50" viewBox="0 0 50 50" fill="none" xmlns="http://www.w3.org/2000/svg">
<path d="M49.8119 30.3067C49.4584 29.2659 48.6158 28.5104 47.4386 28.1791C46.1745 27.8236 44.5319 27.9383 42.5555 28.5196L33.5802 31.1601C33.1171 30.2217 32.2673 29.479 31.179 29.1886L24.7939 27.4826C20.1273 24.2181 17.6281 25.1587 13.9532 26.9593C11.926 27.9524 9.86557 28.9309 7.76516 29.9229L7.60017 29.5479C7.11686 28.4481 5.82824 27.9459 4.72812 28.4286L1.3076 29.9289C0.771293 30.1643 0.359977 30.5918 0.148986 31.133C-0.062088 31.6743 -0.0485554 32.2679 0.187485 32.8037L6.30506 46.7113C6.66388 47.5269 7.46534 48.0141 8.30481 48.0141C8.59646 48.0141 8.89362 47.9551 9.17727 47.8306L12.5976 46.3303C13.1339 46.095 13.5453 45.6674 13.7562 45.1257C13.9674 44.5844 13.9532 43.9908 13.7179 43.455L13.1209 42.0977L16.1733 40.6109C16.9916 40.2126 17.8142 40.1418 18.6882 40.3951L25.8644 42.4732C26.3927 42.6263 26.9377 42.6913 27.4908 42.6913C29.4012 42.6913 31.4037 41.9103 33.0868 41.2539C33.2351 41.196 33.3801 41.1397 33.5224 41.0845L46.9842 35.8858C49.1689 35.0421 50.5165 32.3826 49.8119 30.3067ZM12.4363 44.6116C12.3626 44.7999 12.2181 44.9497 12.0288 45.0325L8.60846 46.5328C8.22314 46.7016 7.77166 46.5263 7.60234 46.141L1.4846 32.2338C1.40127 32.0444 1.39593 31.8366 1.46943 31.6483C1.54309 31.46 1.68759 31.31 1.87708 31.2271L5.29743 29.727C5.39693 29.6832 5.50093 29.6625 5.60309 29.6625C5.89708 29.6625 6.1779 29.833 6.30339 30.1189L12.4211 44.0264C12.504 44.2154 12.5093 44.4232 12.4363 44.6116ZM46.4732 34.5642L33.0114 39.7629C32.8681 39.8181 32.7214 39.8754 32.5714 39.9339C30.601 40.7024 28.1478 41.6594 26.2579 41.1121L19.0817 39.034C17.8721 38.6838 16.6841 38.7855 15.5525 39.337L12.55 40.7999L8.33614 31.2201C10.4534 30.22 12.53 29.2339 14.5767 28.2316C18.0036 26.5528 19.9828 25.812 24.0801 28.7127C24.1488 28.7614 24.2251 28.7972 24.307 28.8189L30.8137 30.5572C32.0628 30.8912 32.8074 32.1786 32.4736 33.4277C32.3128 34.0295 31.9243 34.5345 31.3803 34.8488C30.8359 35.1633 30.2049 35.2483 29.6031 35.0875L20.9558 32.7772C20.5781 32.6759 20.1895 32.9006 20.0883 33.2789C19.9871 33.6565 20.2116 34.0452 20.59 34.1463L29.2373 36.4567C30.2049 36.7154 31.2175 36.5801 32.0893 36.0758C32.9611 35.5713 33.5836 34.7612 33.8422 33.7935C33.9559 33.3687 33.9916 32.9412 33.9581 32.5261L42.9548 29.8795C45.9234 29.0061 47.9853 29.3362 48.4698 30.7628C48.9291 32.1143 47.9398 33.9975 46.4732 34.5642Z" fill="url(#paint0_linear_415_187)"/>
<path d="M21.3677 15.9192H22.0427C22.2152 15.9192 22.3673 16.0329 22.415 16.1979C22.626 16.9549 22.9286 17.6843 23.3156 18.368C23.3983 18.5183 23.3726 18.7053 23.2515 18.828L22.7616 19.3174C22.5013 19.5741 22.3527 19.9277 22.3527 20.2942C22.3527 20.6609 22.5013 21.0147 22.7616 21.2712L24.0439 22.5525C24.5869 23.0839 25.4564 23.0839 26.0012 22.5525L26.4908 22.063H26.489C26.6102 21.9402 26.799 21.9127 26.9495 22.0007C27.6281 22.3875 28.3509 22.6898 29.101 22.9043C29.2662 22.9519 29.378 23.1041 29.3762 23.2764V23.9509C29.378 24.706 29.9925 25.3182 30.7501 25.3182H32.5606C33.3145 25.3163 33.9272 24.7042 33.929 23.9509V23.2508C33.9253 23.0784 34.0408 22.9244 34.2078 22.8805C34.9653 22.6678 35.6954 22.3673 36.3796 21.9805C36.5301 21.8962 36.7171 21.9237 36.8401 22.0447L37.3297 22.534V22.5321C37.8727 23.0638 38.7421 23.0638 39.2851 22.5321L40.5674 21.251V21.2529C40.8295 20.9944 40.9782 20.6425 40.9782 20.2741C40.9782 19.9076 40.8295 19.5538 40.5674 19.2973L40.0776 18.8078C39.9546 18.687 39.9271 18.5 40.0098 18.3496C40.4004 17.666 40.7031 16.9384 40.9104 16.1796C40.9599 16.0146 41.1102 15.9009 41.2809 15.9009H41.9613C42.7171 15.9009 43.3316 15.2869 43.3316 14.5318V12.7227C43.3316 11.9676 42.7171 11.3554 41.9613 11.3554H41.2625C41.09 11.3536 40.9397 11.2399 40.8902 11.0768C40.6902 10.3253 40.3949 9.60318 40.0153 8.92505C39.9326 8.77472 39.9601 8.58789 40.0831 8.4669L40.5729 7.97742C40.835 7.72093 40.9837 7.36711 40.9837 7.00063C40.9837 6.63214 40.835 6.28016 40.5729 6.02183L39.2558 4.77189C38.7128 4.24024 37.8433 4.24024 37.3004 4.77189L36.8107 5.2612V5.25937C36.6896 5.38403 36.5006 5.40969 36.3502 5.32353C35.6661 4.93671 34.936 4.63623 34.1785 4.42357C34.0115 4.37957 33.896 4.22558 33.8997 4.05325V3.35312C33.8978 2.59981 33.2852 1.98767 32.5312 1.98584H30.7208C29.9742 2.00051 29.378 2.60898 29.3762 3.35312V4.02759C29.378 4.19991 29.2662 4.35207 29.101 4.39974C28.3436 4.61423 27.6134 4.91838 26.9293 5.30887C26.7806 5.39503 26.59 5.36936 26.4707 5.2447L25.9808 4.75522V4.75706C25.438 4.22558 24.5686 4.22558 24.0238 4.75706L22.7415 6.03833L22.7433 6.0365C22.481 6.29482 22.3343 6.64681 22.3343 7.01513C22.3343 7.38178 22.481 7.7336 22.7433 7.99208L23.2331 8.48156H23.2313C23.3523 8.60239 23.38 8.78938 23.2955 8.93971C22.9121 9.61968 22.615 10.3437 22.4058 11.0951C22.3582 11.2601 22.206 11.3738 22.0335 11.3738H21.3677C20.6119 11.3738 19.9993 11.9877 19.9993 12.7429V14.552C19.9993 15.3071 20.6119 15.9192 21.3677 15.9192ZM20.9769 12.7429C20.9769 12.5267 21.1531 12.3526 21.3677 12.3526H22.0427C22.6498 12.3526 23.1855 11.9547 23.3598 11.3738C23.5449 10.692 23.8164 10.034 24.1668 9.42002C24.4842 8.87755 24.3906 8.19008 23.9413 7.75209L23.4515 7.26261V7.26445C23.2991 7.10879 23.2991 6.8613 23.4515 6.70731L24.7336 5.43169C24.8859 5.27953 25.1336 5.27953 25.2857 5.43169L25.7755 5.92101V5.91917C26.2085 6.35549 26.8798 6.44698 27.4136 6.14466C28.0299 5.79451 28.6866 5.52519 29.3707 5.3382C29.954 5.16771 30.354 4.63073 30.3485 4.02392V3.35312C30.3522 3.13696 30.5282 2.9628 30.7446 2.9628H32.5551C32.6597 2.9628 32.7587 3.00313 32.8321 3.07646C32.9054 3.14979 32.9457 3.25045 32.9457 3.35312V4.02759C32.9439 4.63439 33.342 5.17137 33.9253 5.3437C34.6076 5.53052 35.2643 5.80184 35.8806 6.15016C36.4144 6.45248 37.084 6.36082 37.515 5.92467L38.0048 5.43536C38.1588 5.2832 38.4065 5.2832 38.5625 5.43536L39.8391 6.71097C39.9124 6.78614 39.9548 6.88513 39.9566 6.98963C39.9529 7.09412 39.9124 7.19479 39.8391 7.26812L39.3493 7.75759C38.9183 8.19191 38.8266 8.86088 39.1293 9.39436C39.4778 10.012 39.7474 10.6681 39.9364 11.3499C40.1069 11.9311 40.6407 12.3306 41.2479 12.3269H41.9283H41.9265C42.0312 12.3269 42.1302 12.3691 42.2035 12.4424C42.277 12.5157 42.3192 12.6147 42.3192 12.7191V14.5281V14.5263C42.3192 14.6308 42.2768 14.7298 42.2035 14.8031C42.1302 14.8765 42.0312 14.9186 41.9265 14.9186H41.2625C40.6554 14.915 40.1216 15.3144 39.9509 15.8954C39.7621 16.5772 39.4924 17.2335 39.144 17.8512C38.8413 18.3845 38.933 19.0534 39.3639 19.4879L39.8538 19.9772C39.9271 20.0506 39.9674 20.1514 39.9711 20.2559C39.9693 20.3604 39.9271 20.4592 39.8538 20.5344L38.5478 21.8285C38.3918 21.9823 38.1442 21.9823 37.9902 21.8285L37.5004 21.339V21.3409C37.0694 20.9047 36.3997 20.813 35.8661 21.1155C35.2496 21.4637 34.593 21.735 33.9107 21.922C33.3274 22.0942 32.9294 22.6295 32.9312 23.2361V23.9106C32.9312 24.0151 32.8907 24.1141 32.8174 24.1874C32.7441 24.2607 32.6451 24.3029 32.5404 24.3029H30.73C30.5135 24.3029 30.3375 24.1287 30.3338 23.9106V23.2508C30.3393 22.6441 29.9393 22.1072 29.356 21.9367C28.6719 21.7497 28.0153 21.4802 27.399 21.1302C26.8651 20.8295 26.1957 20.9212 25.7609 21.3555L25.271 21.845V21.8432C25.1189 21.9953 24.8712 21.9953 24.7189 21.8432L23.4368 20.5674C23.2845 20.4136 23.2845 20.1661 23.4368 20.0102L23.9266 19.5209V19.5228C24.3612 19.0883 24.4531 18.4193 24.1523 17.8842C23.8018 17.27 23.5303 16.6121 23.3451 15.9302C23.1708 15.3493 22.6352 14.9515 22.028 14.9515H21.3677C21.1531 14.9515 20.9771 14.7775 20.9771 14.5611L20.9769 12.7429Z" fill="url(#paint1_linear_415_187)"/>
<path d="M31.6691 20.3186C34.3655 20.3168 36.7957 18.6917 37.8255 16.2013C38.8555 13.7089 38.2847 10.8424 36.3763 8.93745C34.4697 7.03087 31.6031 6.46206 29.1126 7.49385C26.622 8.52547 24.9989 10.9575 24.9989 13.6518C25.0007 17.3346 27.9863 20.3186 31.6691 20.3186ZM30.8377 19.2454V17.2651C30.832 16.9249 30.6393 16.615 30.335 16.46C29.343 15.9367 28.7364 14.8974 28.7666 13.7787C28.7951 13.0833 29.0747 12.4238 29.5527 11.9193V13.5614C29.5527 13.8297 29.6604 14.0847 29.8494 14.2737C30.0384 14.4627 30.2935 14.5704 30.5618 14.5704H32.7386C33.0051 14.5704 33.2621 14.4627 33.451 14.2737C33.6399 14.0847 33.7457 13.8297 33.7457 13.5614V11.9137C34.358 12.577 34.6263 13.4839 34.4752 14.3721C34.322 15.26 33.7665 16.0273 32.9691 16.4486C32.6611 16.6055 32.4664 16.9211 32.4664 17.2649V19.2302C31.9148 19.319 31.3535 19.319 30.8037 19.2302L30.8377 19.2454ZM31.6691 7.99266V7.99466C34.4373 7.98699 36.8049 9.98441 37.2605 12.7148C37.7179 15.4472 36.1288 18.1061 33.5097 18.9995V17.3404C34.5812 16.7678 35.3256 15.7305 35.5221 14.5306C35.7206 13.3326 35.3483 12.11 34.517 11.2239C34.2353 10.9139 33.7914 10.81 33.402 10.963C33.0129 11.118 32.7577 11.496 32.7634 11.9135V13.5669H30.5715V11.9192C30.5753 11.5053 30.3258 11.1294 29.9422 10.9744C29.5587 10.8175 29.1184 10.9139 28.8331 11.2144C27.9978 12.0968 27.6238 13.3194 27.8203 14.5192C28.0186 15.7192 28.7651 16.7585 29.8402 17.3253V18.9995C27.2211 18.1057 25.632 15.447 26.0894 12.7148C26.5448 9.98441 28.9124 7.98699 31.6808 7.99466L31.6691 7.99266Z" fill="url(#paint2_linear_415_187)"/>
<defs>
<linearGradient id="paint0_linear_415_187" x1="0.00015928" y1="36.7209" x2="50.001" y2="36.7209" gradientUnits="userSpaceOnUse">
<stop stop-color="#1685FF"/>
<stop offset="0.5" stop-color="#8B5CF6"/>
<stop offset="1" stop-color="#D946EF"/>
</linearGradient>
<linearGradient id="paint1_linear_415_187" x1="19.9993" y1="13.7082" x2="43.3321" y2="13.7082" gradientUnits="userSpaceOnUse">
<stop stop-color="#1685FF"/>
<stop offset="0.5" stop-color="#8B5CF6"/>
<stop offset="1" stop-color="#D946EF"/>
</linearGradient>
<linearGradient id="paint2_linear_415_187" x1="24.9989" y1="13.6844" x2="38.332" y2="13.6844" gradientUnits="userSpaceOnUse">
<stop stop-color="#1685FF"/>
<stop offset="0.5" stop-color="#8B5CF6"/>
<stop offset="1" stop-color="#D946EF"/>
</linearGradient>
</defs>
</svg>
