<svg width="50" height="50" viewBox="0 0 50 50" fill="none" xmlns="http://www.w3.org/2000/svg">
<path d="M44.5046 29.563V23.4379C44.5023 21.5046 43.7831 19.6409 42.486 18.2073C41.1891 16.7736 39.4066 15.8718 37.4833 15.6761V7.05467C37.4833 3.19828 20.2721 3.15381 19.5396 3.15381C18.807 3.15381 1.59595 3.19828 1.59595 7.05467V16.4165C1.59595 17.6975 3.49878 18.5556 6.06076 19.1338C1.59595 20.1237 1.59595 21.3885 1.59595 21.8776V31.2394C1.59595 32.5206 3.49878 33.3787 6.06076 33.9568C1.59595 34.9468 1.59595 36.2114 1.59595 36.7006V46.0625C1.59595 49.9189 18.807 49.9633 19.5396 49.9633C23.7301 50.0108 27.9164 49.686 32.0494 48.9927C34.5967 50.1022 37.456 50.2679 40.1144 49.4602C42.7728 48.6524 45.0566 46.924 46.556 44.585C48.0555 42.2459 48.6725 39.4491 48.2965 36.6962C47.9206 33.9433 46.5763 31.4144 44.5046 29.563ZM42.9443 23.4379V28.3786C42.446 28.0609 41.9245 27.7813 41.384 27.5424V23.4379C41.384 22.1965 40.8909 21.0059 40.013 20.128C39.1352 19.2502 37.9446 18.7569 36.703 18.7569C35.4615 18.7569 34.2711 19.2502 33.3931 20.128C32.5152 21.0059 32.0221 22.1965 32.0221 23.4379V27.5424C31.4816 27.7813 30.9601 28.0609 30.4618 28.3786V23.4379C30.4618 21.7827 31.1194 20.1952 32.2899 19.0247C33.4602 17.8542 35.0477 17.1966 36.703 17.1966C38.3584 17.1966 39.9459 17.8542 41.1164 19.0247C42.2867 20.1952 42.9443 21.7827 42.9443 23.4379ZM34.5505 21.188C35.0394 21.3192 35.4943 21.5544 35.884 21.8776C35.2219 22.3699 34.4546 22.7018 33.6425 22.8474C33.7658 22.2134 34.0832 21.6335 34.5505 21.188ZM33.5824 24.4693C34.3865 24.2841 35.1705 24.0201 35.923 23.6813V26.5983C35.1312 26.6496 34.3471 26.7823 33.5824 26.9939V24.4693ZM37.4833 21.8776C37.4569 21.553 37.3463 21.2407 37.1625 20.9719C36.9786 20.7031 36.7277 20.4869 36.4347 20.3446C36.5244 20.3367 36.611 20.3172 36.703 20.3172C37.5307 20.3172 38.3245 20.646 38.9097 21.2314C39.4949 21.8165 39.8237 22.6104 39.8237 23.4379V26.9939C39.0592 26.7823 38.2749 26.6496 37.4833 26.5983V21.8776ZM19.5396 4.71412C29.4274 4.71412 35.2286 6.18237 35.8949 7.05467C35.2286 7.92681 29.4274 9.39506 19.5396 9.39506C9.65186 9.39506 3.85067 7.92681 3.18435 7.05467C3.85067 6.18237 9.65186 4.71412 19.5396 4.71412ZM3.15626 16.4165V8.82861C7.40963 10.9257 18.9427 10.9554 19.5396 10.9554C20.1363 10.9554 31.6694 10.9257 35.923 8.82861V15.6761C34.139 15.8551 32.4718 16.6447 31.203 17.9113C27.3446 18.5091 23.4439 18.7919 19.5396 18.7569C9.40999 18.7569 3.569 17.2161 3.15626 16.4165ZM11.2925 19.9164C15.3438 20.3071 19.201 20.3172 19.5396 20.3172C22.9906 20.3346 26.4389 20.1261 29.8626 19.6932C29.2312 20.8403 28.9006 22.1285 28.9015 23.4379V23.707C25.7934 24.0591 22.6674 24.2296 19.5396 24.2181C9.65889 24.2181 3.85847 22.7522 3.18591 21.8776C3.51517 21.4962 5.47418 20.5061 11.2933 19.921L11.2925 19.9164ZM3.15626 31.2394V23.6517C7.40963 25.7488 18.9427 25.7784 19.5396 25.7784C22.6671 25.789 25.7929 25.6221 28.9015 25.2783V29.563C27.7241 30.6187 26.7724 31.9015 26.1031 33.3342C24.0193 33.4949 21.8168 33.58 19.5396 33.58C9.40999 33.58 3.569 32.0392 3.15626 31.2394ZM11.2925 34.7392C15.3438 35.1301 19.201 35.1403 19.5396 35.1403C21.5907 35.1403 23.5823 35.0716 25.4867 34.9421C25.1656 36.0191 25.0019 37.1371 25.0006 38.2609C25.0006 38.4638 25.0209 38.662 25.0311 38.8625C23.2663 38.9748 21.4315 39.0411 19.5396 39.0411C9.65889 39.0411 3.85847 37.5752 3.18591 36.7006C3.51517 36.3191 5.47418 35.3291 11.2933 34.7439L11.2925 34.7392ZM19.5396 48.403C9.40999 48.403 3.569 46.8622 3.15626 46.0625V38.4747C7.40963 40.5718 18.9427 40.6015 19.5396 40.6015C21.49 40.6015 23.3865 40.5328 25.2082 40.415C25.7673 43.3755 27.446 46.0065 29.8954 47.7609C26.4617 48.2056 23.002 48.4202 19.5396 48.403ZM36.703 48.403C34.6972 48.403 32.7363 47.8082 31.0685 46.6937C29.4005 45.5794 28.1007 43.9953 27.3331 42.1421C26.5655 40.2889 26.3645 38.2497 26.7558 36.2822C27.1472 34.315 28.1131 32.5078 29.5316 31.0895C30.9499 29.671 32.7571 28.7051 34.7244 28.3137C36.6918 27.9223 38.731 28.1233 40.5842 28.8909C42.4375 29.6585 44.0215 30.9584 45.1358 32.6264C46.2503 34.2942 46.8452 36.2551 46.8452 38.2609C46.842 40.9498 45.7725 43.5276 43.8712 45.4291C41.9698 47.3304 39.3919 48.3999 36.703 48.403Z" fill="url(#paint0_linear_415_168)"/>
<path d="M36.705 32.02C35.7572 32.0203 34.8316 32.3082 34.0511 32.8458C33.2704 33.3834 32.6715 34.1452 32.3332 35.0306C31.995 35.916 31.9335 36.8832 32.1568 37.8044C32.3803 38.7255 32.8781 39.5571 33.5844 40.1891V41.3821C33.5844 42.2096 33.9131 43.0034 34.4983 43.5886C35.0835 44.1739 35.8773 44.5027 36.705 44.5027C37.5327 44.5027 38.3263 44.1739 38.9116 43.5886C39.4968 43.0034 39.8256 42.2096 39.8256 41.3821V40.1891C40.5319 39.5571 41.0297 38.7255 41.253 37.8044C41.4764 36.8832 41.4149 35.916 41.0766 35.0306C40.7385 34.1452 40.1394 33.3834 39.3589 32.8458C38.5782 32.3082 37.6528 32.0203 36.705 32.02ZM38.5774 39.1975C38.4805 39.2703 38.4018 39.3645 38.3477 39.4728C38.2934 39.5811 38.2653 39.7005 38.2653 39.8217V41.3821C38.2653 41.7959 38.1008 42.1927 37.8082 42.4853C37.5156 42.7779 37.1188 42.9424 36.705 42.9424C36.2911 42.9424 35.8943 42.7779 35.6016 42.4853C35.309 42.1927 35.1447 41.7959 35.1447 41.3821V39.8217C35.1447 39.7005 35.1164 39.5811 35.0623 39.4728C35.0081 39.3645 34.9295 39.2703 34.8326 39.1975C34.3086 38.8046 33.9216 38.2567 33.7262 37.6315C33.531 37.0063 33.5374 36.3355 33.7445 35.7143C33.9515 35.0929 34.349 34.5523 34.8803 34.1694C35.4117 33.7865 36.0501 33.5803 36.705 33.5803C37.3599 33.5803 37.9983 33.7865 38.5296 34.1694C39.061 34.5523 39.4583 35.0929 39.6655 35.7143C39.8726 36.3355 39.879 37.0063 39.6836 37.6315C39.4884 38.2567 39.1012 38.8046 38.5774 39.1975Z" fill="url(#paint1_linear_415_168)"/>
<path d="M7.20471 13.47C6.94334 13.4193 6.68976 13.3678 6.44711 13.3139C6.24503 13.2691 6.03327 13.3063 5.85865 13.4175C5.68388 13.5287 5.5606 13.7047 5.51566 13.9069C5.47072 14.109 5.50802 14.3207 5.61928 14.4955C5.73038 14.6701 5.9064 14.7936 6.10864 14.8384C6.36534 14.8953 6.63358 14.9499 6.91134 15.003C7.01278 15.0244 7.11748 15.0253 7.21923 15.0056C7.32097 14.9861 7.41787 14.9465 7.50417 14.8891C7.59046 14.8316 7.66443 14.7577 7.72185 14.6712C7.77912 14.5849 7.81876 14.488 7.83826 14.3863C7.85777 14.2845 7.85668 14.1798 7.8353 14.0784C7.81392 13.977 7.77257 13.8809 7.71358 13.7956C7.6546 13.7104 7.57923 13.6377 7.49184 13.582C7.40445 13.5262 7.30692 13.4876 7.20471 13.47Z" fill="url(#paint2_linear_415_168)"/>
<path d="M11.0414 14.0225L10.2682 13.9359C10.0626 13.912 9.85604 13.9708 9.6939 14.0994C9.53161 14.228 9.42722 14.4156 9.40334 14.6212C9.37962 14.8267 9.43845 15.0334 9.56688 15.1955C9.69546 15.3578 9.88319 15.4622 10.0887 15.486L10.876 15.5734C10.9036 15.5764 10.9315 15.578 10.9594 15.5781C11.1586 15.5772 11.35 15.5001 11.4942 15.3628C11.6384 15.2253 11.7247 15.0379 11.7352 14.8389C11.7456 14.64 11.6796 14.4446 11.5505 14.2928C11.4215 14.1409 11.2394 14.0442 11.0414 14.0225Z" fill="url(#paint3_linear_415_168)"/>
<path d="M7.20465 28.2927C6.94327 28.242 6.68969 28.1905 6.44704 28.1367C6.34702 28.1145 6.24356 28.1122 6.14259 28.13C6.04163 28.1478 5.94504 28.1852 5.85859 28.2403C5.77214 28.2954 5.69724 28.3669 5.63841 28.4508C5.57958 28.5349 5.53791 28.6296 5.5156 28.7297C5.49344 28.8299 5.4911 28.9333 5.50889 29.0343C5.52668 29.1352 5.56413 29.2317 5.61921 29.3183C5.67414 29.4047 5.74577 29.4795 5.82972 29.5385C5.91367 29.5973 6.00839 29.639 6.10858 29.6613C6.36527 29.7182 6.63352 29.7727 6.91128 29.8257C7.01271 29.8471 7.11742 29.8481 7.21916 29.8286C7.3209 29.8089 7.41781 29.7693 7.5041 29.7118C7.5904 29.6544 7.66436 29.5804 7.72179 29.4941C7.77906 29.4077 7.81869 29.3108 7.8382 29.209C7.85771 29.1073 7.85661 29.0026 7.83523 28.9012C7.81386 28.7997 7.7725 28.7036 7.71352 28.6184C7.65453 28.5332 7.57916 28.4606 7.49178 28.4048C7.40439 28.3491 7.30686 28.3104 7.20465 28.2927Z" fill="url(#paint4_linear_415_168)"/>
<path d="M11.0414 28.8457L10.2682 28.7591C10.1664 28.7473 10.0633 28.7557 9.9648 28.7838C9.86618 28.8119 9.77411 28.859 9.6939 28.9227C9.61354 28.9863 9.54659 29.0651 9.49666 29.1547C9.44688 29.2443 9.4152 29.3427 9.40334 29.4445C9.39164 29.5462 9.39991 29.6494 9.428 29.748C9.45608 29.8465 9.50337 29.9385 9.56688 30.0189C9.63054 30.0991 9.70935 30.166 9.79892 30.216C9.88849 30.2658 9.98696 30.2974 10.0887 30.3093L10.876 30.3967C10.9036 30.3998 10.9315 30.4014 10.9594 30.4014C11.1586 30.4004 11.35 30.3235 11.4942 30.186C11.6384 30.0485 11.7247 29.8611 11.7351 29.6622C11.7456 29.4632 11.6796 29.2678 11.5505 29.116C11.4215 28.9642 11.2394 28.8674 11.0414 28.8457Z" fill="url(#paint5_linear_415_168)"/>
<path d="M7.20465 43.1161C6.94327 43.0653 6.68969 43.0138 6.44704 42.96C6.34702 42.9377 6.24356 42.9355 6.14259 42.9531C6.04163 42.9709 5.94504 43.0084 5.85859 43.0635C5.77214 43.1186 5.69724 43.1902 5.63841 43.2741C5.57958 43.3581 5.53791 43.4528 5.5156 43.5528C5.49344 43.653 5.4911 43.7565 5.50889 43.8574C5.52668 43.9584 5.56413 44.055 5.61921 44.1414C5.67414 44.2279 5.74577 44.3028 5.82972 44.3616C5.91367 44.4205 6.00839 44.4621 6.10858 44.4844C6.36527 44.5414 6.63352 44.596 6.91128 44.6491C7.01271 44.6703 7.11742 44.6712 7.21916 44.6517C7.3209 44.6322 7.41781 44.5926 7.5041 44.5351C7.5904 44.4777 7.66436 44.4036 7.72179 44.3173C7.77906 44.231 7.81869 44.1341 7.8382 44.0322C7.85771 43.9305 7.85661 43.8258 7.83523 43.7243C7.81386 43.6231 7.7725 43.5269 7.71352 43.4416C7.65453 43.3564 7.57916 43.2838 7.49178 43.2279C7.40439 43.1722 7.30686 43.1337 7.20465 43.1161Z" fill="url(#paint6_linear_415_168)"/>
<path d="M11.0414 43.6684L10.2682 43.5818C10.1664 43.5701 10.0633 43.5784 9.9648 43.6065C9.86618 43.6346 9.77411 43.6818 9.6939 43.7453C9.61354 43.809 9.54659 43.8878 9.49666 43.9774C9.44688 44.067 9.4152 44.1654 9.40334 44.2672C9.39164 44.3689 9.39991 44.4721 9.428 44.5707C9.45608 44.6691 9.50337 44.7612 9.56688 44.8416C9.63054 44.9218 9.70935 44.9889 9.79892 45.0387C9.88849 45.0884 9.98696 45.1203 10.0887 45.132L10.876 45.2194C10.9036 45.2225 10.9315 45.224 10.9594 45.224C11.1586 45.2233 11.35 45.1462 11.4942 45.0087C11.6384 44.8712 11.7247 44.684 11.7351 44.485C11.7456 44.286 11.6796 44.0905 11.5505 43.9387C11.4215 43.7869 11.2394 43.6903 11.0414 43.6684Z" fill="url(#paint7_linear_415_168)"/>
<path d="M36.5113 0.0322266L43.3385 6.85943H39.4372V15.6374H33.5853V6.85943H29.684L36.5113 0.0322266Z" fill="url(#paint8_linear_415_168)"/>
<defs>
<linearGradient id="paint0_linear_415_168" x1="1.5961" y1="26.6737" x2="48.405" y2="26.6737" gradientUnits="userSpaceOnUse">
<stop stop-color="#1685FF"/>
<stop offset="0.5" stop-color="#8B5CF6"/>
<stop offset="1" stop-color="#D946EF"/>
</linearGradient>
<linearGradient id="paint1_linear_415_168" x1="32.025" y1="38.2914" x2="41.3851" y2="38.2914" gradientUnits="userSpaceOnUse">
<stop stop-color="#1685FF"/>
<stop offset="0.5" stop-color="#8B5CF6"/>
<stop offset="1" stop-color="#D946EF"/>
</linearGradient>
<linearGradient id="paint2_linear_415_168" x1="5.49709" y1="14.1617" x2="7.85215" y2="14.1617" gradientUnits="userSpaceOnUse">
<stop stop-color="#1685FF"/>
<stop offset="0.5" stop-color="#8B5CF6"/>
<stop offset="1" stop-color="#D946EF"/>
</linearGradient>
<linearGradient id="paint3_linear_415_168" x1="9.39819" y1="14.7584" x2="11.7362" y2="14.7584" gradientUnits="userSpaceOnUse">
<stop stop-color="#1685FF"/>
<stop offset="0.5" stop-color="#8B5CF6"/>
<stop offset="1" stop-color="#D946EF"/>
</linearGradient>
<linearGradient id="paint4_linear_415_168" x1="5.49703" y1="28.9845" x2="7.85209" y2="28.9845" gradientUnits="userSpaceOnUse">
<stop stop-color="#1685FF"/>
<stop offset="0.5" stop-color="#8B5CF6"/>
<stop offset="1" stop-color="#D946EF"/>
</linearGradient>
<linearGradient id="paint5_linear_415_168" x1="9.39819" y1="29.5816" x2="11.7362" y2="29.5816" gradientUnits="userSpaceOnUse">
<stop stop-color="#1685FF"/>
<stop offset="0.5" stop-color="#8B5CF6"/>
<stop offset="1" stop-color="#D946EF"/>
</linearGradient>
<linearGradient id="paint6_linear_415_168" x1="5.49703" y1="43.8077" x2="7.85209" y2="43.8077" gradientUnits="userSpaceOnUse">
<stop stop-color="#1685FF"/>
<stop offset="0.5" stop-color="#8B5CF6"/>
<stop offset="1" stop-color="#D946EF"/>
</linearGradient>
<linearGradient id="paint7_linear_415_168" x1="9.39819" y1="44.4043" x2="11.7362" y2="44.4043" gradientUnits="userSpaceOnUse">
<stop stop-color="#1685FF"/>
<stop offset="0.5" stop-color="#8B5CF6"/>
<stop offset="1" stop-color="#D946EF"/>
</linearGradient>
<linearGradient id="paint8_linear_415_168" x1="43.3385" y1="7.79727" x2="29.6838" y2="7.79727" gradientUnits="userSpaceOnUse">
<stop stop-color="#1685FF"/>
<stop offset="0.5" stop-color="#8B5CF6"/>
<stop offset="1" stop-color="#D946EF"/>
</linearGradient>
</defs>
</svg>
