<svg width="49" height="40" viewBox="0 0 49 40" fill="none" xmlns="http://www.w3.org/2000/svg">
<path d="M31.5685 22.5075H30.2432C29.7883 22.5075 29.4045 22.1788 29.3306 21.7259L29.1138 20.4534C28.6802 20.3241 28.2655 20.1489 27.8754 19.9302L26.8513 20.6706C26.4763 20.9387 25.9726 20.8937 25.6512 20.5652L24.7153 19.6092C24.3993 19.2861 24.3581 18.7822 24.617 18.411L25.3458 17.3546C25.1282 16.9505 24.9545 16.5218 24.8269 16.0741L23.5857 15.8563C23.1392 15.773 22.8184 15.384 22.8184 14.9307V13.5799C22.8184 13.1204 23.1417 12.731 23.587 12.6542L24.8256 12.4367C24.951 11.9937 25.1251 11.5647 25.3456 11.156L24.6157 10.098C24.3615 9.72698 24.4025 9.22412 24.7124 8.90123L25.6512 7.94196C25.9768 7.61614 26.479 7.57408 26.8494 7.8388L27.8735 8.57833C28.2701 8.35798 28.6855 8.18241 29.1138 8.05413L29.3311 6.7816C29.4047 6.33001 29.7885 6 30.2432 6H31.5685C32.023 6 32.4068 6.33001 32.4809 6.78474L32.6977 8.05413C33.126 8.18241 33.5414 8.35798 33.9382 8.57833L34.9607 7.84005C35.3323 7.57408 35.835 7.61614 36.1574 7.93903L37.0962 8.8983C37.409 9.2237 37.4503 9.72656 37.1968 10.0967L36.4661 11.156C36.6867 11.5654 36.8608 11.9941 36.9859 12.4367L38.226 12.6544C38.6701 12.731 38.9934 13.1204 38.9934 13.5799V14.9307C38.9934 15.384 38.6726 15.773 38.2306 15.8555L36.9849 16.0741C36.8572 16.5213 36.6835 16.9501 36.4659 17.3546L37.196 18.4129C37.4536 18.7829 37.412 19.2866 37.096 19.6092L36.1606 20.5652C35.8387 20.8941 35.3348 20.9389 34.9621 20.6717L33.9361 19.9302C33.546 20.1489 33.1313 20.3241 32.6977 20.4534L32.4805 21.7289C32.407 22.1788 32.0232 22.5075 31.5685 22.5075ZM27.8522 18.9898C27.9311 18.9898 28.01 19.0116 28.0797 19.0551C28.5434 19.3456 29.0529 19.5613 29.5943 19.6965C29.7594 19.7377 29.8843 19.8727 29.913 20.0403L30.1761 21.5849C30.1825 21.6247 30.21 21.6504 30.2432 21.6504H31.5685C31.6022 21.6504 31.629 21.6253 31.635 21.5878L31.8985 20.0403C31.9272 19.8727 32.0521 19.7377 32.2172 19.6965C32.7584 19.5615 33.2681 19.3456 33.7319 19.0551C33.8794 18.9628 34.0688 18.9687 34.2102 19.071L35.4625 19.9759C35.489 19.9947 35.5227 19.9907 35.5481 19.9656L36.4835 19.0097C36.5096 18.9829 36.5132 18.9325 36.4916 18.9013L35.6079 17.6204C35.5127 17.4823 35.5068 17.3015 35.5926 17.1575C35.8787 16.6779 36.0907 16.1539 36.2231 15.6C36.2629 15.4338 36.3977 15.307 36.5659 15.2775L38.0778 15.0121C38.1042 15.0071 38.1362 14.9749 38.1362 14.9307V13.5799C38.1362 13.5372 38.1067 13.5036 38.0791 13.4987L36.5659 13.2332C36.3968 13.2035 36.2616 13.0758 36.2227 12.9086C36.0957 12.3647 35.8837 11.8414 35.5926 11.3534C35.5068 11.2094 35.5127 11.0286 35.6079 10.8905L36.4904 9.61126C36.5142 9.57652 36.5105 9.52588 36.4807 9.49491L35.5479 8.5415C35.5253 8.5189 35.4893 8.51556 35.461 8.53585L34.2136 9.43652C34.073 9.53823 33.885 9.54471 33.7379 9.4541C33.2602 9.15988 32.7485 8.9435 32.2172 8.81083C32.0523 8.7696 31.9272 8.63484 31.8985 8.46722L31.6355 6.92599C31.6288 6.88477 31.6007 6.85714 31.5685 6.85714H30.2432C30.2108 6.85714 30.1828 6.88477 30.1765 6.92285L29.913 8.46722C29.8843 8.63484 29.7594 8.7696 29.5943 8.81083C29.0628 8.9435 28.5511 9.15988 28.0736 9.4541C27.9263 9.54471 27.7386 9.53802 27.5979 9.43652L26.3493 8.53481C26.3225 8.51597 26.2863 8.51953 26.261 8.54443L25.3281 9.49784C25.3011 9.52567 25.2973 9.57631 25.322 9.6123L26.2038 10.8905C26.299 11.0286 26.3049 11.2094 26.2191 11.3534C25.9282 11.8408 25.7162 12.3641 25.5888 12.9086C25.5497 13.0758 25.4147 13.2035 25.2456 13.2332L23.7339 13.4985C23.705 13.5036 23.6755 13.5372 23.6755 13.5799V14.9307C23.6755 14.9749 23.7075 15.0071 23.7385 15.013L25.2456 15.2775C25.4139 15.307 25.5486 15.4336 25.5884 15.5997C25.7211 16.1545 25.9332 16.6785 26.2191 17.1575C26.3049 17.3015 26.299 17.4823 26.2038 17.6204L25.3214 18.8996C25.2983 18.9325 25.3021 18.9831 25.3281 19.0097L26.2639 19.9656C26.2886 19.9914 26.3231 19.9949 26.3509 19.9746L27.6011 19.071C27.6758 19.017 27.7639 18.9898 27.8522 18.9898Z" fill="url(#paint0_linear_1368_277)"/>
<path d="M26.6877 33.4277C26.5645 33.4277 26.4402 33.4038 26.3215 33.3546C25.9626 33.2061 25.7307 32.8608 25.7307 32.4751V29.8896C25.7307 29.8317 25.6918 29.7928 25.6339 29.7928H24.5304C23.135 29.7928 22 28.6575 22 27.2621V19.0255C22 17.6302 23.135 16.4951 24.5304 16.4951H25.3677C25.6044 16.4951 25.7962 16.687 25.7962 16.9237C25.7962 17.1604 25.6044 17.3523 25.3677 17.3523H24.5304C23.6078 17.3523 22.8571 18.1029 22.8571 19.0255V27.2621C22.8571 28.185 23.6078 28.9356 24.5304 28.9356H25.6339C26.1687 28.9356 26.5879 29.3548 26.5879 29.8896V32.4751C26.5879 32.5264 26.6212 32.5511 26.6492 32.5626C26.69 32.5791 26.7275 32.572 26.7599 32.54L30.0043 29.2221C30.1902 29.0361 30.4323 28.9356 30.689 28.9356H37.9934C38.916 28.9356 39.6666 28.185 39.6666 27.2621V25.0843H33.0012C31.6058 25.0843 30.4708 23.9493 30.4708 22.5539C30.4708 22.3172 30.6627 22.1253 30.8993 22.1253C31.136 22.1253 31.3279 22.3172 31.3279 22.5539C31.3279 23.4766 32.0785 24.2272 33.0012 24.2272H40.0952C40.3319 24.2272 40.5238 24.4191 40.5238 24.6558V27.2621C40.5238 28.6575 39.3887 29.7928 37.9934 29.7928H30.689C30.6694 29.7928 30.6403 29.7984 30.6137 29.8248L27.3695 33.1424C27.183 33.3291 26.9374 33.4277 26.6877 33.4277Z" fill="url(#paint1_linear_1368_277)"/>
<path d="M44.3141 28.7185C44.0634 28.7185 43.8181 28.6191 43.6344 28.4321L40.3806 25.1146C40.3626 25.0962 40.3373 25.0857 40.3113 25.0857H33.0072C31.6118 25.0857 30.4766 23.9505 30.4766 22.5551C30.4766 22.3184 30.6685 22.1265 30.9051 22.1265C31.1418 22.1265 31.3337 22.3184 31.3337 22.5551C31.3337 23.478 32.0843 24.2286 33.0072 24.2286H40.3113C40.566 24.2286 40.8142 24.3328 40.9925 24.5144L44.2463 27.8319C44.2764 27.8624 44.3118 27.8696 44.3522 27.8537C44.3922 27.8373 44.4125 27.807 44.4125 27.7639V25.1826C44.4125 24.6565 44.8404 24.2286 45.3665 24.2286H46.4701C47.3928 24.2286 48.1434 23.478 48.1434 22.5551V11.4298C48.1434 10.5072 47.3928 9.75656 46.4701 9.75656H37.0296C36.793 9.75656 36.6011 9.56466 36.6011 9.32799C36.6011 9.09131 36.793 8.89941 37.0296 8.89941H46.4701C47.8655 8.89941 49.0006 10.0345 49.0006 11.4298V22.5551C49.0006 23.9505 47.8655 25.0857 46.4701 25.0857H45.3665C45.3131 25.0857 45.2696 25.1293 45.2696 25.1826V27.7639C45.2696 28.1531 45.0367 28.4999 44.6765 28.647C44.5587 28.6951 44.4359 28.7185 44.3141 28.7185Z" fill="url(#paint2_linear_1368_277)"/>
<path d="M30.8998 18.0873C28.7882 18.0873 27.0703 16.3694 27.0703 14.2577C27.0703 12.1421 28.7882 10.4209 30.8998 10.4209C33.0153 10.4209 34.7365 12.1421 34.7365 14.2577C34.7365 16.3694 33.0153 18.0873 30.8998 18.0873ZM30.8998 11.278C29.2609 11.278 27.9275 12.6148 27.9275 14.2577C27.9275 15.8967 29.2609 17.2301 30.8998 17.2301C32.5428 17.2301 33.8793 15.8967 33.8793 14.2577C33.8793 12.6148 32.5428 11.278 30.8998 11.278Z" fill="url(#paint3_linear_1368_277)"/>
<path d="M45.9653 14.6823H40.8446C40.6079 14.6823 40.416 14.4904 40.416 14.2538C40.416 14.0171 40.6079 13.8252 40.8446 13.8252H45.9653C46.2019 13.8252 46.3938 14.0171 46.3938 14.2538C46.3938 14.4904 46.2019 14.6823 45.9653 14.6823Z" fill="url(#paint4_linear_1368_277)"/>
<path d="M45.9653 17.2536H40.8446C40.6079 17.2536 40.416 17.0617 40.416 16.8251C40.416 16.5884 40.6079 16.3965 40.8446 16.3965H45.9653C46.2019 16.3965 46.3938 16.5884 46.3938 16.8251C46.3938 17.0617 46.2019 17.2536 45.9653 17.2536Z" fill="url(#paint5_linear_1368_277)"/>
<path d="M45.9653 19.8249H40.8446C40.6079 19.8249 40.416 19.633 40.416 19.3963C40.416 19.1597 40.6079 18.9678 40.8446 18.9678H45.9653C46.2019 18.9678 46.3938 19.1597 46.3938 19.3963C46.3938 19.633 46.2019 19.8249 45.9653 19.8249Z" fill="url(#paint6_linear_1368_277)"/>
<path fill-rule="evenodd" clip-rule="evenodd" d="M20.1197 20.0004L18.7558 18.0254L17.3919 20.0004L18.7558 21.9755L20.1197 20.0004ZM12.7392 12.3612C11.1645 11.7611 9.48891 11.4699 7.80406 11.5035C6.11921 11.4699 4.44365 11.7611 2.86895 12.3612C1.75479 12.8312 1.06547 13.4289 1.06547 14.0423C1.06547 14.6557 1.75479 15.2534 2.86895 15.7238C4.44391 16.3228 6.1194 16.6131 7.80406 16.5789C9.48872 16.6131 11.1642 16.3228 12.7392 15.7238C13.8533 15.2534 14.5422 14.6557 14.5422 14.0423C14.5422 13.4289 13.8533 12.8312 12.7392 12.3612ZM1.06547 23.8504V25.9608C1.06547 26.5742 1.75479 27.1719 2.86895 27.6419C4.4438 28.2413 6.11935 28.5317 7.80406 28.4974C9.48876 28.5317 11.1643 28.2412 12.7392 27.6419C13.8533 27.1719 14.5422 26.5742 14.5422 25.9608V23.8504C14.1159 24.1762 13.6481 24.4436 13.1511 24.6456C11.446 25.3011 9.63046 25.6212 7.80406 25.5882C5.97772 25.6215 4.16214 25.3017 2.45706 24.6465C1.95996 24.4444 1.49198 24.1761 1.06547 23.8504ZM1.06547 19.8745C1.49193 20.2004 1.95991 20.4681 2.45706 20.6705C4.16214 21.3259 5.97768 21.6459 7.80406 21.6132C9.63044 21.6459 11.446 21.3259 13.1511 20.6705C13.6481 20.4684 14.1159 20.2008 14.5422 19.8749V21.9853C14.5422 22.5991 13.8533 23.1964 12.7392 23.6668C11.1643 24.266 9.48873 24.5563 7.80406 24.5219C6.1195 24.5569 4.44395 24.2672 2.86895 23.6686C1.75479 23.1982 1.06547 22.6009 1.06547 21.9871V19.8767V19.8745ZM1.06547 15.9012C1.49198 16.2268 1.95996 16.4942 2.45706 16.6964C4.16208 17.3519 5.97766 17.672 7.80406 17.639C9.63046 17.672 11.446 17.3519 13.1511 16.6964C13.6481 16.4944 14.1159 16.2269 14.5422 15.9012V18.0116C14.5422 18.6249 13.8533 19.2227 12.7392 19.6926C11.1644 20.2926 9.48888 20.5836 7.80406 20.5499C6.11938 20.5844 4.44383 20.2941 2.86895 19.6949C1.75479 19.2249 1.06547 18.6272 1.06547 18.0138V15.9034V15.9012ZM15.6068 14.0378V25.9608C15.6068 27.0419 14.6686 27.9787 13.1497 28.6194C11.445 29.2743 9.62992 29.5939 7.80406 29.5606C5.97766 29.5936 4.16208 29.2735 2.45706 28.618C0.938149 27.9774 0 27.0406 0 25.9595V14.0401C0 12.959 0.938149 12.0222 2.45706 11.3815C4.16217 10.7265 5.97775 10.4068 7.80406 10.4403C9.63046 10.4073 11.446 10.7273 13.1511 11.3829C14.67 12.0235 15.6081 12.9603 15.6081 14.0414L15.6068 14.0378ZM12.4903 18.7688L13.181 18.5387C13.3145 18.4946 13.425 18.3993 13.4882 18.2738C13.5514 18.1483 13.5621 18.0027 13.5181 17.8693C13.474 17.7358 13.3787 17.6253 13.2531 17.5621C13.1276 17.4989 12.9821 17.4881 12.8486 17.5322L12.1575 17.7668C12.024 17.8109 11.9136 17.9062 11.8504 18.0318C11.8191 18.094 11.8004 18.1617 11.7953 18.2312C11.7902 18.3006 11.7988 18.3703 11.8207 18.4364C11.8425 18.5025 11.8772 18.5636 11.9227 18.6163C11.9681 18.669 12.0236 18.7122 12.0857 18.7435C12.2113 18.8067 12.3569 18.8174 12.4903 18.7732V18.7688ZM12.4903 22.8533L13.181 22.6232C13.3145 22.5792 13.425 22.4839 13.4882 22.3583C13.5514 22.2328 13.5621 22.0873 13.5181 21.9538C13.474 21.8203 13.3787 21.7098 13.2531 21.6466C13.1276 21.5834 12.9821 21.5727 12.8486 21.6167L12.1575 21.8468C12.024 21.8909 11.9136 21.9863 11.8504 22.1119C11.7872 22.2375 11.7765 22.383 11.8207 22.5165C11.8648 22.6499 11.9602 22.7604 12.0857 22.8236C12.2113 22.8867 12.3569 22.8974 12.4903 22.8533ZM12.4903 26.76C12.3569 26.8042 12.2113 26.7935 12.0857 26.7303C11.9602 26.6671 11.8648 26.5567 11.8207 26.4232C11.7765 26.2897 11.7872 26.1442 11.8504 26.0186C11.9136 25.893 12.024 25.7977 12.1575 25.7535L12.8486 25.5235C12.9821 25.4794 13.1276 25.4901 13.2531 25.5533C13.3787 25.6166 13.474 25.727 13.5181 25.8605C13.5621 25.994 13.5514 26.1395 13.4882 26.265C13.425 26.3906 13.3145 26.4859 13.181 26.53L12.4903 26.76ZM18.2233 7.1192C18.2233 6.97805 18.2794 6.84267 18.3791 6.74282C18.4789 6.64297 18.6142 6.58681 18.7554 6.58669H22.6286C22.7671 6.59071 22.8986 6.64854 22.9951 6.74793C23.0917 6.84732 23.1457 6.98042 23.1457 7.11898C23.1457 7.25754 23.0917 7.39064 22.9951 7.49003C22.8986 7.58942 22.7671 7.64726 22.6286 7.65127H19.2883V16.9287L21.2013 19.6984C21.2636 19.7886 21.2964 19.8958 21.2954 20.0054C21.2943 20.1149 21.2594 20.2215 21.1955 20.3105L19.2883 23.0718V32.3496H22.629C22.7676 32.3536 22.899 32.4115 22.9956 32.5108C23.0921 32.6102 23.1461 32.7433 23.1461 32.8819C23.1461 33.0205 23.0921 33.1536 22.9956 33.2529C22.899 33.3523 22.7676 33.4102 22.629 33.4142H18.7558C18.6146 33.4142 18.4792 33.3581 18.3793 33.2582C18.2794 33.1584 18.2233 33.0229 18.2233 32.8817V23.0722L16.3099 20.3024C16.2477 20.2122 16.2149 20.105 16.2161 19.9954C16.2172 19.8859 16.2522 19.7793 16.3162 19.6904L18.2233 16.9287V7.1192Z" fill="url(#paint7_linear_1368_277)"/>
<defs>
<linearGradient id="paint0_linear_1368_277" x1="22.8184" y1="14.2935" x2="38.9937" y2="14.2935" gradientUnits="userSpaceOnUse">
<stop stop-color="#1685FF"/>
<stop offset="0.5" stop-color="#8B5CF6"/>
<stop offset="1" stop-color="#D946EF"/>
</linearGradient>
<linearGradient id="paint1_linear_1368_277" x1="22.0001" y1="25.0022" x2="40.5242" y2="25.0022" gradientUnits="userSpaceOnUse">
<stop stop-color="#1685FF"/>
<stop offset="0.5" stop-color="#8B5CF6"/>
<stop offset="1" stop-color="#D946EF"/>
</linearGradient>
<linearGradient id="paint2_linear_1368_277" x1="30.4766" y1="18.8567" x2="49.001" y2="18.8567" gradientUnits="userSpaceOnUse">
<stop stop-color="#1685FF"/>
<stop offset="0.5" stop-color="#8B5CF6"/>
<stop offset="1" stop-color="#D946EF"/>
</linearGradient>
<linearGradient id="paint3_linear_1368_277" x1="27.0703" y1="14.2725" x2="34.7366" y2="14.2725" gradientUnits="userSpaceOnUse">
<stop stop-color="#1685FF"/>
<stop offset="0.5" stop-color="#8B5CF6"/>
<stop offset="1" stop-color="#D946EF"/>
</linearGradient>
<linearGradient id="paint4_linear_1368_277" x1="40.416" y1="14.2558" x2="46.394" y2="14.2558" gradientUnits="userSpaceOnUse">
<stop stop-color="#1685FF"/>
<stop offset="0.5" stop-color="#8B5CF6"/>
<stop offset="1" stop-color="#D946EF"/>
</linearGradient>
<linearGradient id="paint5_linear_1368_277" x1="40.416" y1="16.8271" x2="46.394" y2="16.8271" gradientUnits="userSpaceOnUse">
<stop stop-color="#1685FF"/>
<stop offset="0.5" stop-color="#8B5CF6"/>
<stop offset="1" stop-color="#D946EF"/>
</linearGradient>
<linearGradient id="paint6_linear_1368_277" x1="40.416" y1="19.3984" x2="46.394" y2="19.3984" gradientUnits="userSpaceOnUse">
<stop stop-color="#1685FF"/>
<stop offset="0.5" stop-color="#8B5CF6"/>
<stop offset="1" stop-color="#D946EF"/>
</linearGradient>
<linearGradient id="paint7_linear_1368_277" x1="6.65189e-05" y1="20.096" x2="24.3873" y2="20.096" gradientUnits="userSpaceOnUse">
<stop stop-color="#1685FF"/>
<stop offset="0.5" stop-color="#8B5CF6"/>
<stop offset="1" stop-color="#D946EF"/>
</linearGradient>
</defs>
</svg>
