<svg width="50" height="50" viewBox="0 0 50 50" fill="none" xmlns="http://www.w3.org/2000/svg">
<g clip-path="url(#clip0_410_40)">
<path d="M31.476 30.4953C26.3551 30.4953 21.6439 27.5025 19.4705 22.871C19.4021 22.7116 19.4021 22.541 19.4705 22.3816C21.6439 17.7502 26.3665 14.7573 31.476 14.7573C36.5855 14.7573 41.3079 17.7502 43.4815 22.3816C43.5498 22.541 43.5498 22.7116 43.4815 22.871C41.3079 27.5025 36.5969 30.4953 31.476 30.4953ZM20.6085 22.632C22.6453 26.7287 26.8786 29.3687 31.476 29.3687C36.0734 29.3687 40.2953 26.7401 42.3435 22.632C40.3065 18.5354 36.0734 15.8953 31.476 15.8953C26.8786 15.8953 22.6567 18.524 20.6085 22.632Z" fill="url(#paint0_linear_410_40)"/>
<path d="M31.4724 27.9808C28.5137 27.9808 26.1127 25.5797 26.1127 22.6211C26.1127 19.6623 28.5137 17.2612 31.4724 17.2612C34.4312 17.2612 36.8322 19.6623 36.8322 22.6211C36.8322 25.5797 34.4312 27.9808 31.4724 27.9808ZM31.4724 18.4105C29.1395 18.4105 27.2505 20.2995 27.2505 22.6323C27.2505 24.9651 29.1395 26.8542 31.4724 26.8542C33.8052 26.8542 35.6942 24.9651 35.6942 22.6323C35.6942 20.2995 33.794 18.4105 31.4724 18.4105Z" fill="url(#paint1_linear_410_40)"/>
<path d="M31.4763 24.9744C30.1791 24.9744 29.1207 23.916 29.1207 22.6188C29.1207 21.3216 30.1791 20.2632 31.4763 20.2632C32.7736 20.2632 33.832 21.3216 33.832 22.6188C33.832 23.916 32.7736 24.9744 31.4763 24.9744ZM31.4763 21.4126C30.8049 21.4126 30.2587 21.9588 30.2587 22.6302C30.2587 23.3016 30.8049 23.8478 31.4763 23.8478C32.1478 23.8478 32.694 23.3016 32.694 22.6302C32.694 21.9588 32.1478 21.4126 31.4763 21.4126Z" fill="url(#paint2_linear_410_40)"/>
<path d="M24.192 31.939H2.41138C1.00035 31.939 -0.149048 30.7898 -0.149048 29.3786V24.622C-0.149048 23.2109 1.00035 22.0615 2.41138 22.0615H19.9816C20.3002 22.0615 20.5506 22.3119 20.5506 22.6305C20.5506 22.9491 20.3002 23.1995 19.9816 23.1995H2.41138C1.62617 23.1995 0.988957 23.8367 0.988957 24.622V29.3786C0.988957 30.1638 1.62617 30.8012 2.41138 30.8012H24.192C24.9772 30.8012 25.6144 30.1638 25.6144 29.3786V28.7756C25.6144 28.457 25.8648 28.2066 26.1834 28.2066C26.5021 28.2066 26.7525 28.457 26.7525 28.7756V29.3786C26.7525 30.7898 25.6031 31.939 24.192 31.939Z" fill="url(#paint3_linear_410_40)"/>
<path d="M24.192 40.6798H2.41138C1.00035 40.6798 -0.149048 39.5304 -0.149048 38.1193V33.3627C-0.149048 31.9515 1.00035 30.8022 2.41138 30.8022H24.192C25.6031 30.8022 26.7525 31.9515 26.7525 33.3627V38.1193C26.7525 39.5304 25.6031 40.6798 24.192 40.6798ZM2.41138 31.9401C1.62617 31.9401 0.988957 32.5775 0.988957 33.3627V38.1193C0.988957 38.9045 1.62617 39.5418 2.41138 39.5418H24.192C24.9772 39.5418 25.6144 38.9045 25.6144 38.1193V33.3627C25.6144 32.5775 24.9772 31.9401 24.192 31.9401H2.41138Z" fill="url(#paint4_linear_410_40)"/>
<path d="M24.192 49.421H2.41138C1.00035 49.421 -0.149048 48.2716 -0.149048 46.8605V42.1039C-0.149048 40.6929 1.00035 39.5435 2.41138 39.5435H24.192C25.6031 39.5435 26.7525 40.6929 26.7525 42.1039V46.8605C26.7525 48.2716 25.6031 49.421 24.192 49.421ZM2.41138 40.6815C1.62617 40.6815 0.988957 41.3187 0.988957 42.1039V46.8605C0.988957 47.6458 1.62617 48.283 2.41138 48.283H24.192C24.9772 48.283 25.6144 47.6458 25.6144 46.8605V42.1039C25.6144 41.3187 24.9772 40.6815 24.192 40.6815H2.41138Z" fill="url(#paint5_linear_410_40)"/>
<path d="M4.93308 28.9833C3.84066 28.9833 2.94165 28.0957 2.94165 26.9919C2.94165 25.8881 3.82926 25.0005 4.93308 25.0005C6.03705 25.0005 6.92466 25.8881 6.92466 26.9919C6.92466 28.0957 6.03705 28.9833 4.93308 28.9833ZM4.93308 26.1497C4.46664 26.1497 4.07965 26.5367 4.07965 27.0033C4.07965 27.4699 4.45524 27.8567 4.93308 27.8567C5.41107 27.8567 5.78666 27.4699 5.78666 27.0033C5.78666 26.5367 5.39967 26.1497 4.93308 26.1497Z" fill="url(#paint6_linear_410_40)"/>
<path d="M9.96994 28.9833C8.87752 28.9833 7.97852 28.0957 7.97852 26.9919C7.97852 25.8881 8.86613 25.0005 9.96994 25.0005C11.0738 25.0005 11.9614 25.8881 11.9614 26.9919C11.9614 28.0957 11.0624 28.9833 9.96994 28.9833ZM9.96994 26.1497C9.50334 26.1497 9.11652 26.5367 9.11652 27.0033C9.11652 27.4699 9.49195 27.8567 9.96994 27.8567C10.4479 27.8567 10.8234 27.4699 10.8234 27.0033C10.8234 26.5367 10.4365 26.1497 9.96994 26.1497Z" fill="url(#paint7_linear_410_40)"/>
<path d="M20.5408 27.5731H13.5651C13.2465 27.5731 12.9961 27.3227 12.9961 27.0041C12.9961 26.6855 13.2465 26.4351 13.5651 26.4351H20.5408C20.8594 26.4351 21.1098 26.6855 21.1098 27.0041C21.1098 27.3227 20.8594 27.5731 20.5408 27.5731Z" fill="url(#paint8_linear_410_40)"/>
<path d="M4.93308 37.7328C3.84066 37.7328 2.94165 36.8452 2.94165 35.7414C2.94165 34.6376 3.82926 33.75 4.93308 33.75C6.03705 33.75 6.92466 34.6376 6.92466 35.7414C6.92466 36.8452 6.03705 37.7328 4.93308 37.7328ZM4.93308 34.888C4.46664 34.888 4.07965 35.2748 4.07965 35.7414C4.07965 36.208 4.45524 36.5948 4.93308 36.5948C5.41107 36.5948 5.78666 36.208 5.78666 35.7414C5.78666 35.2748 5.39967 34.888 4.93308 34.888Z" fill="url(#paint9_linear_410_40)"/>
<path d="M9.96994 37.7328C8.87752 37.7328 7.97852 36.8452 7.97852 35.7414C7.97852 34.6376 8.86613 33.75 9.96994 33.75C11.0738 33.75 11.9614 34.6376 11.9614 35.7414C11.9614 36.8452 11.0624 37.7328 9.96994 37.7328ZM9.96994 34.888C9.50334 34.888 9.11652 35.2748 9.11652 35.7414C9.11652 36.208 9.49195 36.5948 9.96994 36.5948C10.4479 36.5948 10.8234 36.208 10.8234 35.7414C10.8234 35.2748 10.4365 34.888 9.96994 34.888Z" fill="url(#paint10_linear_410_40)"/>
<path d="M23.0784 36.3113H13.5651C13.2465 36.3113 12.9961 36.0609 12.9961 35.7423C12.9961 35.4237 13.2465 35.1733 13.5651 35.1733H23.0784C23.3972 35.1733 23.6474 35.4237 23.6474 35.7423C23.6474 36.0609 23.3972 36.3113 23.0784 36.3113Z" fill="url(#paint11_linear_410_40)"/>
<path d="M4.93308 46.4726C3.84066 46.4726 2.94165 45.585 2.94165 44.4812C2.94165 43.3774 3.82926 42.4897 4.93308 42.4897C6.03705 42.4897 6.92466 43.3774 6.92466 44.4812C6.92466 45.585 6.03705 46.4726 4.93308 46.4726ZM4.93308 43.639C4.46664 43.639 4.07965 44.026 4.07965 44.4926C4.07965 44.959 4.45524 45.346 4.93308 45.346C5.41107 45.346 5.78666 44.959 5.78666 44.4926C5.78666 44.026 5.39967 43.639 4.93308 43.639Z" fill="url(#paint12_linear_410_40)"/>
<path d="M9.96994 46.4726C8.87752 46.4726 7.97852 45.585 7.97852 44.4812C7.97852 43.3774 8.86613 42.4897 9.96994 42.4897C11.0738 42.4897 11.9614 43.3774 11.9614 44.4812C11.9614 45.585 11.0624 46.4726 9.96994 46.4726ZM9.96994 43.639C9.50334 43.639 9.11652 44.026 9.11652 44.4926C9.11652 44.959 9.49195 45.346 9.96994 45.346C10.4479 45.346 10.8234 44.959 10.8234 44.4926C10.8234 44.026 10.4365 43.639 9.96994 43.639Z" fill="url(#paint13_linear_410_40)"/>
<path d="M23.0784 45.0491H13.5651C13.2465 45.0491 12.9961 44.7987 12.9961 44.4801C12.9961 44.1615 13.2465 43.9111 13.5651 43.9111H23.0784C23.3972 43.9111 23.6474 44.1615 23.6474 44.4801C23.6474 44.7987 23.3972 45.0491 23.0784 45.0491Z" fill="url(#paint14_linear_410_40)"/>
<path d="M13.0882 23.2008C12.7696 23.2008 12.5192 22.9504 12.5192 22.6318V11.7415C12.5192 11.4229 12.7696 11.1725 13.0882 11.1725C13.4069 11.1725 13.6572 11.4229 13.6572 11.7415V22.6318C13.6572 22.939 13.4069 23.2008 13.0882 23.2008ZM40.3767 7.01886H34.391C34.0724 7.01886 33.822 6.76847 33.822 6.44986C33.822 6.13125 34.0724 5.88086 34.391 5.88086H40.3767C40.6953 5.88086 40.9457 6.13125 40.9457 6.44986C40.9457 6.76847 40.6839 7.01886 40.3767 7.01886ZM25.1849 7.01886H19.199C18.8804 7.01886 18.6302 6.76847 18.6302 6.44986C18.6302 6.13125 18.8804 5.88086 19.199 5.88086H25.1961C25.5149 5.88086 25.7651 6.13125 25.7651 6.44986C25.7651 6.76847 25.5035 7.01886 25.1849 7.01886Z" fill="url(#paint15_linear_410_40)"/>
<path d="M17.6672 12.2997H11.5336C10.3729 12.2997 9.42834 11.3551 9.42834 10.1945V2.68384C9.42834 1.52321 10.3729 0.578613 11.5336 0.578613H17.6672C18.828 0.578613 19.7725 1.52321 19.7725 2.68384V10.2057C19.7725 11.3665 18.828 12.2997 17.6672 12.2997ZM11.5336 1.71662C10.9988 1.71662 10.5663 2.14903 10.5663 2.68384V10.2057C10.5663 10.7407 10.9988 11.1731 11.5336 11.1731H17.6672C18.202 11.1731 18.6345 10.7407 18.6345 10.2057V2.68384C18.6345 2.14903 18.202 1.71662 17.6672 1.71662H11.5336Z" fill="url(#paint16_linear_410_40)"/>
<path d="M32.8539 12.2997H26.7202C25.5596 12.2997 24.615 11.3551 24.615 10.1945V2.68384C24.615 1.52321 25.5596 0.578613 26.7202 0.578613H32.8539C34.0147 0.578613 34.9591 1.52321 34.9591 2.68384V10.2057C34.9591 11.3665 34.0147 12.2997 32.8539 12.2997ZM26.7202 1.71662C26.1854 1.71662 25.753 2.14903 25.753 2.68384V10.2057C25.753 10.7407 26.1854 11.1731 26.7202 11.1731H32.8539C33.3887 11.1731 33.8213 10.7407 33.8213 10.2057V2.68384C33.8213 2.14903 33.3887 1.71662 32.8539 1.71662H26.7202Z" fill="url(#paint17_linear_410_40)"/>
<path d="M48.0436 12.2997H41.9099C40.7493 12.2997 39.8047 11.3551 39.8047 10.1945V2.68384C39.8047 1.52321 40.7493 0.578613 41.9099 0.578613H48.0436C49.2044 0.578613 50.1488 1.52321 50.1488 2.68384V10.2057C50.1488 11.3665 49.2044 12.2997 48.0436 12.2997ZM41.9099 1.71662C41.3751 1.71662 40.9427 2.14903 40.9427 2.68384V10.2057C40.9427 10.7407 41.3751 11.1731 41.9099 11.1731H48.0436C48.5784 11.1731 49.0108 10.7407 49.0108 10.2057V2.68384C49.0108 2.14903 48.5784 1.71662 48.0436 1.71662H41.9099Z" fill="url(#paint18_linear_410_40)"/>
<path d="M16.6907 4.43732H12.5031C12.1843 4.43732 11.9341 4.18693 11.9341 3.86832C11.9341 3.54971 12.1843 3.29932 12.5031 3.29932H16.6907C17.0094 3.29932 17.2597 3.54971 17.2597 3.86832C17.2597 4.18693 17.0094 4.43732 16.6907 4.43732Z" fill="url(#paint19_linear_410_40)"/>
<path d="M16.6907 7.01886H12.5031C12.1843 7.01886 11.9341 6.76847 11.9341 6.44986C11.9341 6.13125 12.1843 5.88086 12.5031 5.88086H16.6907C17.0094 5.88086 17.2597 6.13125 17.2597 6.44986C17.2597 6.76847 17.0094 7.01886 16.6907 7.01886Z" fill="url(#paint20_linear_410_40)"/>
<path d="M16.6907 9.59113H12.5031C12.1843 9.59113 11.9341 9.34074 11.9341 9.02213C11.9341 8.70352 12.1843 8.45312 12.5031 8.45312H16.6907C17.0094 8.45312 17.2597 8.70352 17.2597 9.02213C17.2597 9.34074 17.0094 9.59113 16.6907 9.59113Z" fill="url(#paint21_linear_410_40)"/>
<path d="M31.8806 4.43732H27.6927C27.3741 4.43732 27.1239 4.18693 27.1239 3.86832C27.1239 3.54971 27.3741 3.29932 27.6927 3.29932H31.8806C32.1992 3.29932 32.4496 3.54971 32.4496 3.86832C32.4496 4.18693 32.1878 4.43732 31.8806 4.43732Z" fill="url(#paint22_linear_410_40)"/>
<path d="M31.8806 7.01886H27.6927C27.3741 7.01886 27.1239 6.76847 27.1239 6.44986C27.1239 6.13125 27.3741 5.88086 27.6927 5.88086H31.8806C32.1992 5.88086 32.4496 6.13125 32.4496 6.44986C32.4496 6.76847 32.1878 7.01886 31.8806 7.01886Z" fill="url(#paint23_linear_410_40)"/>
<path d="M31.8806 9.59113H27.6927C27.3741 9.59113 27.1239 9.34074 27.1239 9.02213C27.1239 8.70352 27.3741 8.45312 27.6927 8.45312H31.8806C32.1992 8.45312 32.4496 8.70352 32.4496 9.02213C32.4496 9.34074 32.1878 9.59113 31.8806 9.59113Z" fill="url(#paint24_linear_410_40)"/>
<path d="M47.0671 4.43732H42.8794C42.5608 4.43732 42.3104 4.18693 42.3104 3.86832C42.3104 3.54971 42.5608 3.29932 42.8794 3.29932H47.0671C47.3857 3.29932 47.6361 3.54971 47.6361 3.86832C47.6361 4.18693 47.3857 4.43732 47.0671 4.43732Z" fill="url(#paint25_linear_410_40)"/>
<path d="M47.0671 7.01886H42.8794C42.5608 7.01886 42.3104 6.76847 42.3104 6.44986C42.3104 6.13125 42.5608 5.88086 42.8794 5.88086H47.0671C47.3857 5.88086 47.6361 6.13125 47.6361 6.44986C47.6361 6.76847 47.3857 7.01886 47.0671 7.01886Z" fill="url(#paint26_linear_410_40)"/>
<path d="M47.0671 9.59113H42.8794C42.5608 9.59113 42.3104 9.34074 42.3104 9.02213C42.3104 8.70352 42.5608 8.45312 42.8794 8.45312H47.0671C47.3857 8.45312 47.6361 8.70352 47.6361 9.02213C47.6361 9.34074 47.3857 9.59113 47.0671 9.59113Z" fill="url(#paint27_linear_410_40)"/>
</g>
<defs>
<linearGradient id="paint0_linear_410_40" x1="19.4194" y1="22.6643" x2="43.5333" y2="22.6643" gradientUnits="userSpaceOnUse">
<stop stop-color="#1685FF"/>
<stop offset="0.5" stop-color="#8B5CF6"/>
<stop offset="1" stop-color="#D946EF"/>
</linearGradient>
<linearGradient id="paint1_linear_410_40" x1="26.1127" y1="22.6468" x2="36.8325" y2="22.6468" gradientUnits="userSpaceOnUse">
<stop stop-color="#1685FF"/>
<stop offset="0.5" stop-color="#8B5CF6"/>
<stop offset="1" stop-color="#D946EF"/>
</linearGradient>
<linearGradient id="paint2_linear_410_40" x1="29.1207" y1="22.6302" x2="33.832" y2="22.6302" gradientUnits="userSpaceOnUse">
<stop stop-color="#1685FF"/>
<stop offset="0.5" stop-color="#8B5CF6"/>
<stop offset="1" stop-color="#D946EF"/>
</linearGradient>
<linearGradient id="paint3_linear_410_40" x1="-0.149048" y1="27.0241" x2="26.7531" y2="27.0241" gradientUnits="userSpaceOnUse">
<stop stop-color="#1685FF"/>
<stop offset="0.5" stop-color="#8B5CF6"/>
<stop offset="1" stop-color="#D946EF"/>
</linearGradient>
<linearGradient id="paint4_linear_410_40" x1="-0.149048" y1="35.7647" x2="26.7531" y2="35.7647" gradientUnits="userSpaceOnUse">
<stop stop-color="#1685FF"/>
<stop offset="0.5" stop-color="#8B5CF6"/>
<stop offset="1" stop-color="#D946EF"/>
</linearGradient>
<linearGradient id="paint5_linear_410_40" x1="-0.149048" y1="44.5061" x2="26.7531" y2="44.5061" gradientUnits="userSpaceOnUse">
<stop stop-color="#1685FF"/>
<stop offset="0.5" stop-color="#8B5CF6"/>
<stop offset="1" stop-color="#D946EF"/>
</linearGradient>
<linearGradient id="paint6_linear_410_40" x1="2.94165" y1="27.0015" x2="6.92466" y2="27.0015" gradientUnits="userSpaceOnUse">
<stop stop-color="#1685FF"/>
<stop offset="0.5" stop-color="#8B5CF6"/>
<stop offset="1" stop-color="#D946EF"/>
</linearGradient>
<linearGradient id="paint7_linear_410_40" x1="7.97852" y1="27.0015" x2="11.9615" y2="27.0015" gradientUnits="userSpaceOnUse">
<stop stop-color="#1685FF"/>
<stop offset="0.5" stop-color="#8B5CF6"/>
<stop offset="1" stop-color="#D946EF"/>
</linearGradient>
<linearGradient id="paint8_linear_410_40" x1="12.9961" y1="27.0068" x2="21.1099" y2="27.0068" gradientUnits="userSpaceOnUse">
<stop stop-color="#1685FF"/>
<stop offset="0.5" stop-color="#8B5CF6"/>
<stop offset="1" stop-color="#D946EF"/>
</linearGradient>
<linearGradient id="paint9_linear_410_40" x1="2.94165" y1="35.751" x2="6.92466" y2="35.751" gradientUnits="userSpaceOnUse">
<stop stop-color="#1685FF"/>
<stop offset="0.5" stop-color="#8B5CF6"/>
<stop offset="1" stop-color="#D946EF"/>
</linearGradient>
<linearGradient id="paint10_linear_410_40" x1="7.97852" y1="35.751" x2="11.9615" y2="35.751" gradientUnits="userSpaceOnUse">
<stop stop-color="#1685FF"/>
<stop offset="0.5" stop-color="#8B5CF6"/>
<stop offset="1" stop-color="#D946EF"/>
</linearGradient>
<linearGradient id="paint11_linear_410_40" x1="12.9961" y1="35.7451" x2="23.6477" y2="35.7451" gradientUnits="userSpaceOnUse">
<stop stop-color="#1685FF"/>
<stop offset="0.5" stop-color="#8B5CF6"/>
<stop offset="1" stop-color="#D946EF"/>
</linearGradient>
<linearGradient id="paint12_linear_410_40" x1="2.94165" y1="44.4908" x2="6.92466" y2="44.4908" gradientUnits="userSpaceOnUse">
<stop stop-color="#1685FF"/>
<stop offset="0.5" stop-color="#8B5CF6"/>
<stop offset="1" stop-color="#D946EF"/>
</linearGradient>
<linearGradient id="paint13_linear_410_40" x1="7.97852" y1="44.4908" x2="11.9615" y2="44.4908" gradientUnits="userSpaceOnUse">
<stop stop-color="#1685FF"/>
<stop offset="0.5" stop-color="#8B5CF6"/>
<stop offset="1" stop-color="#D946EF"/>
</linearGradient>
<linearGradient id="paint14_linear_410_40" x1="12.9961" y1="44.4829" x2="23.6477" y2="44.4829" gradientUnits="userSpaceOnUse">
<stop stop-color="#1685FF"/>
<stop offset="0.5" stop-color="#8B5CF6"/>
<stop offset="1" stop-color="#D946EF"/>
</linearGradient>
<linearGradient id="paint15_linear_410_40" x1="12.5193" y1="14.5826" x2="40.9463" y2="14.5826" gradientUnits="userSpaceOnUse">
<stop stop-color="#1685FF"/>
<stop offset="0.5" stop-color="#8B5CF6"/>
<stop offset="1" stop-color="#D946EF"/>
</linearGradient>
<linearGradient id="paint16_linear_410_40" x1="9.42834" y1="6.46742" x2="19.7726" y2="6.46742" gradientUnits="userSpaceOnUse">
<stop stop-color="#1685FF"/>
<stop offset="0.5" stop-color="#8B5CF6"/>
<stop offset="1" stop-color="#D946EF"/>
</linearGradient>
<linearGradient id="paint17_linear_410_40" x1="24.6152" y1="6.46742" x2="34.9594" y2="6.46742" gradientUnits="userSpaceOnUse">
<stop stop-color="#1685FF"/>
<stop offset="0.5" stop-color="#8B5CF6"/>
<stop offset="1" stop-color="#D946EF"/>
</linearGradient>
<linearGradient id="paint18_linear_410_40" x1="39.8047" y1="6.46742" x2="50.149" y2="6.46742" gradientUnits="userSpaceOnUse">
<stop stop-color="#1685FF"/>
<stop offset="0.5" stop-color="#8B5CF6"/>
<stop offset="1" stop-color="#D946EF"/>
</linearGradient>
<linearGradient id="paint19_linear_410_40" x1="11.9341" y1="3.87109" x2="17.2599" y2="3.87109" gradientUnits="userSpaceOnUse">
<stop stop-color="#1685FF"/>
<stop offset="0.5" stop-color="#8B5CF6"/>
<stop offset="1" stop-color="#D946EF"/>
</linearGradient>
<linearGradient id="paint20_linear_410_40" x1="11.9341" y1="6.45263" x2="17.2599" y2="6.45263" gradientUnits="userSpaceOnUse">
<stop stop-color="#1685FF"/>
<stop offset="0.5" stop-color="#8B5CF6"/>
<stop offset="1" stop-color="#D946EF"/>
</linearGradient>
<linearGradient id="paint21_linear_410_40" x1="11.9341" y1="9.02489" x2="17.2599" y2="9.02489" gradientUnits="userSpaceOnUse">
<stop stop-color="#1685FF"/>
<stop offset="0.5" stop-color="#8B5CF6"/>
<stop offset="1" stop-color="#D946EF"/>
</linearGradient>
<linearGradient id="paint22_linear_410_40" x1="27.1239" y1="3.87109" x2="32.4496" y2="3.87109" gradientUnits="userSpaceOnUse">
<stop stop-color="#1685FF"/>
<stop offset="0.5" stop-color="#8B5CF6"/>
<stop offset="1" stop-color="#D946EF"/>
</linearGradient>
<linearGradient id="paint23_linear_410_40" x1="27.1239" y1="6.45263" x2="32.4496" y2="6.45263" gradientUnits="userSpaceOnUse">
<stop stop-color="#1685FF"/>
<stop offset="0.5" stop-color="#8B5CF6"/>
<stop offset="1" stop-color="#D946EF"/>
</linearGradient>
<linearGradient id="paint24_linear_410_40" x1="27.1239" y1="9.02489" x2="32.4496" y2="9.02489" gradientUnits="userSpaceOnUse">
<stop stop-color="#1685FF"/>
<stop offset="0.5" stop-color="#8B5CF6"/>
<stop offset="1" stop-color="#D946EF"/>
</linearGradient>
<linearGradient id="paint25_linear_410_40" x1="42.3104" y1="3.87109" x2="47.6362" y2="3.87109" gradientUnits="userSpaceOnUse">
<stop stop-color="#1685FF"/>
<stop offset="0.5" stop-color="#8B5CF6"/>
<stop offset="1" stop-color="#D946EF"/>
</linearGradient>
<linearGradient id="paint26_linear_410_40" x1="42.3104" y1="6.45263" x2="47.6362" y2="6.45263" gradientUnits="userSpaceOnUse">
<stop stop-color="#1685FF"/>
<stop offset="0.5" stop-color="#8B5CF6"/>
<stop offset="1" stop-color="#D946EF"/>
</linearGradient>
<linearGradient id="paint27_linear_410_40" x1="42.3104" y1="9.02489" x2="47.6362" y2="9.02489" gradientUnits="userSpaceOnUse">
<stop stop-color="#1685FF"/>
<stop offset="0.5" stop-color="#8B5CF6"/>
<stop offset="1" stop-color="#D946EF"/>
</linearGradient>
<clipPath id="clip0_410_40">
<rect width="50" height="50" fill="white"/>
</clipPath>
</defs>
</svg>
