<svg width="64" height="64" viewBox="0 0 64 64" fill="none" xmlns="http://www.w3.org/2000/svg">
<path d="M59.905 34.203C59.962 33.475 60 32.742 60 32C60 30.999 59.945 30.011 59.842 29.037C63.18 26.015 64.427 20.556 62.66 16.314C60.815 11.884 56.116 9.73 49.743 10.357C44.91 6.387 38.729 4 32 4C24.89 4 18.395 6.668 13.452 11.05C13.136 11.026 12.82 11 12.5 11C5.607 11 0 16.607 0 23.5C0 27.016 1.491 30.316 4.017 32.656C4.368 47.793 16.781 60 32 60C41.38 60 49.691 55.359 54.774 48.258C59.997 47.011 63.021 45.023 63.732 42.335C64.366 39.938 63.065 37.202 59.905 34.203ZM53.581 46.483C48.448 47.597 42.063 47.833 36.951 47.523C36.713 45.544 35.042 44 33 44H23.058C24.606 41.052 26.847 38.568 29.617 36.842C32.274 35.187 35.184 34.345 38.106 34.317C38.254 34.94 38.561 35.514 39.024 35.977C39.683 36.637 40.562 37 41.5 37H57.513C56.837 40.453 55.48 43.664 53.581 46.483ZM8.056 42.132L10.619 37H17.5C18.438 37 19.317 36.637 19.977 35.977C20.637 35.317 21 34.438 21 33.5C21 31.57 19.43 30 17.5 30H14C13.733 30 13.487 29.898 13.288 29.694C13.102 29.513 13 29.267 13 29C13 28.449 13.449 28 14 28H32C33.067 28 34.071 27.583 34.827 26.827C35.583 26.071 36 25.067 36 24C36 21.794 34.206 20 32 20H31.969C32.122 19.688 32.293 19.381 32.478 19.08C35.153 19.216 37.747 19.859 40.105 21.033C42.506 22.229 44.481 23.873 45.978 25.861L44.323 30H41.5C39.98 30 38.696 30.98 38.214 32.337C34.877 32.355 31.526 33.296 28.559 35.144C25.195 37.24 22.53 40.331 20.821 44H8.946C8.628 43.39 8.327 42.769 8.056 42.132ZM38.272 14.429C38.47 14.946 38.769 15.424 39.173 15.828C39.929 16.583 40.933 17 42 17H53.217C53.894 17.955 54.508 18.956 55.054 20H49C48.591 20 48.223 20.249 48.071 20.628L46.821 23.754C45.24 21.918 43.279 20.38 40.997 19.243C38.797 18.147 36.413 17.473 33.951 17.196C34.182 16.957 34.419 16.724 34.673 16.504C35.769 15.554 36.989 14.864 38.272 14.429ZM40.298 11.963C40.65 11.388 41.278 11 42 11H47.305C48.9 12.166 50.356 13.509 51.648 15H42C41.467 15 40.965 14.792 40.587 14.413C40.456 14.282 40.354 14.133 40.265 13.976C41.119 13.872 41.986 13.866 42.858 13.99L43.141 12.011C42.194 11.874 41.241 11.868 40.298 11.963ZM56.22 30.976C56.819 30.841 57.394 30.632 57.943 30.358C57.977 30.901 58 31.448 58 32C58 33.015 57.935 34.015 57.822 35H41.5C41.096 35 40.719 34.845 40.437 34.563C40.407 34.533 40.385 34.499 40.358 34.467C41.148 34.576 41.935 34.725 42.712 34.958L43.286 33.042C42.345 32.76 41.383 32.586 40.415 32.469C40.689 32.181 41.073 32 41.5 32H45C45.409 32 45.777 31.751 45.929 31.372L47.296 27.955C48.132 29.538 48.723 31.275 49.012 33.152L50.989 32.848C50.583 30.207 49.634 27.761 48.23 25.619L49.677 22H55.997C56.813 23.95 57.397 26.02 57.716 28.175C57.114 28.581 56.466 28.87 55.78 29.024L56.22 30.976ZM29.803 20H25.032C26.743 19.49 28.477 19.183 30.197 19.086C30.049 19.386 29.924 19.692 29.803 20ZM60.814 17.083C62.062 20.08 61.428 23.945 59.457 26.513C58.358 21.006 55.641 16.076 51.822 12.244C56.331 12.222 59.487 13.897 60.814 17.083ZM44.105 9H42C40 9 38.353 10.481 38.061 12.401C36.367 12.907 34.761 13.781 33.363 14.994C32.644 15.617 32.008 16.312 31.451 17.054C28.643 17.049 25.781 17.557 23.007 18.568C23.005 18.544 23 18.523 23 18.5C23 17.673 23.673 17 24.5 17H26C27.067 17 28.071 16.583 28.827 15.827C29.583 15.071 30 14.067 30 13C30 10.794 28.206 9 26 9H19.895C23.513 7.088 27.631 6 32 6C36.369 6 40.487 7.088 44.105 9ZM2 23.5C2 18.081 6.126 13.609 11.401 13.058C7.286 17.531 4.61 23.342 4.098 29.755C2.766 27.971 2 25.793 2 23.5ZM6.007 31.715C6.086 24.41 9.193 17.821 14.13 13.141C15.036 13.284 15.92 13.532 16.767 13.912L17.586 12.088C17.073 11.857 16.545 11.677 16.012 11.519C16.237 11.343 16.464 11.169 16.695 11H26C27.103 11 28 11.897 28 13C28 13.533 27.792 14.035 27.413 14.413C27.034 14.791 26.533 15 26 15H24.5C22.57 15 21 16.57 21 18.5C21 18.788 21.045 19.067 21.112 19.339C20.579 19.582 20.049 19.838 19.526 20.12L20.474 21.881C21.022 21.586 21.579 21.322 22.139 21.073C22.785 21.666 23.613 22 24.5 22H29.215C29.084 22.665 29 23.334 29 24H31C31 23.335 31.085 22.664 31.245 22H32C33.103 22 34 22.897 34 24C34 24.533 33.792 25.035 33.413 25.413C33.034 25.791 32.533 26 32 26H14C12.346 26 11 27.346 11 29C11 29.811 11.317 30.565 11.874 31.108C12.435 31.683 13.189 32 14 32H17.5C18.327 32 19 32.673 19 33.5C19 33.904 18.845 34.281 18.563 34.563C18.281 34.845 17.904 35 17.5 35H10C9.621 35 9.274 35.214 9.105 35.553L7.117 39.535C6.6 37.83 6.257 36.051 6.101 34.219C6.24 34.302 6.376 34.389 6.519 34.467L7.481 32.714C6.953 32.424 6.469 32.081 6.007 31.715ZM10.108 46H20.006C19.572 47.232 19.234 48.513 19.013 49.835L20.986 50.164C21.227 48.716 21.619 47.323 22.138 45.999H33C33.878 45.999 34.617 46.571 34.885 47.358C33.901 47.263 32.981 47.148 32.164 47.012L31.836 48.985C32.635 49.118 33.529 49.231 34.483 49.327C34.458 49.355 34.439 49.386 34.413 49.412C34.035 49.792 33.533 50 33 50H27C25.346 50 24 51.346 24 53C24 53.811 24.317 54.565 24.874 55.108C25.435 55.683 26.189 56 27 56H41.993C38.915 57.287 35.539 58 32 58C22.816 58 14.735 53.209 10.108 46ZM45.831 54H27C26.733 54 26.487 53.898 26.288 53.694C26.102 53.513 26 53.267 26 53C26 52.449 26.449 52 27 52H33C34.067 52 35.071 51.583 35.827 50.827C36.211 50.443 36.505 49.994 36.704 49.506C38.126 49.594 39.639 49.644 41.205 49.644C44.69 49.644 48.398 49.403 51.771 48.857C50.064 50.856 48.062 52.592 45.831 54ZM61.799 41.825C61.39 43.372 59.483 44.722 56.389 45.731C57.941 42.984 59.042 39.952 59.593 36.733C61.39 38.709 62.162 40.452 61.799 41.825Z" fill="url(#paint0_linear_349_53)"/>
<defs>
<linearGradient id="paint0_linear_349_53" x1="31.9441" y1="4" x2="31.9441" y2="60" gradientUnits="userSpaceOnUse">
<stop stop-color="#1685FF"/>
<stop offset="0.5" stop-color="#8B5CF6"/>
<stop offset="1" stop-color="#D946EF"/>
</linearGradient>
</defs>
</svg>
