<?xml version="1.0" encoding="UTF-8" standalone="no"?><!DOCTYPE svg PUBLIC "-//W3C//DTD SVG 1.1//EN" "http://www.w3.org/Graphics/SVG/1.1/DTD/svg11.dtd"><svg width="100%" height="100%" viewBox="0 0 90 87" version="1.1" xmlns="http://www.w3.org/2000/svg" xmlns:xlink="http://www.w3.org/1999/xlink" xml:space="preserve" xmlns:serif="http://www.serif.com/" style="fill-rule:evenodd;clip-rule:evenodd;stroke-linejoin:round;stroke-miterlimit:2;"><path d="M60.197,21.086c0.984,-0.984 2.464,-1.277 3.75,-0.746c1.285,0.531 2.121,1.785 2.121,3.18c-0,1.39 -0.836,2.644 -2.121,3.176c-1.286,0.535 -2.766,0.238 -3.75,-0.746c-1.344,-1.344 -1.344,-3.52 -0,-4.864l-0,0Zm2.433,1.387c-0.426,-0 -0.805,0.254 -0.965,0.644c-0.164,0.391 -0.074,0.84 0.227,1.141c0.297,0.297 0.746,0.387 1.137,0.227c0.39,-0.164 0.644,-0.543 0.644,-0.965c0,-0.578 -0.469,-1.047 -1.043,-1.047l0,-0Zm9.688,17.555l0.007,-6.539c-0.832,0.75 -1.82,1.305 -2.894,1.613l-0,4.926l2.887,-0Zm8.601,30.488l-71.836,-0c-3.687,0.016 -6.668,3 -6.683,6.684l-0,0.628c0.015,3.688 3,6.676 6.687,6.688l71.832,-0c3.688,-0.012 6.676,-3 6.688,-6.688l-0,-0.628c-0.012,-3.688 -3,-6.672 -6.688,-6.684l0,-0Zm-5.457,3.453l-0.004,0c1.692,-1.691 4.344,-1.953 6.332,-0.621c1.989,1.328 2.762,3.875 1.848,6.086c-0.918,2.211 -3.266,3.465 -5.613,3c-2.344,-0.469 -4.035,-2.527 -4.035,-4.918c-0,-1.332 0.531,-2.606 1.468,-3.547l0.004,0Zm3.547,0.926l-0.004,-0c0.875,-0 1.692,0.437 2.176,1.164c0.488,0.73 0.578,1.652 0.242,2.457c-0.336,0.809 -1.051,1.398 -1.906,1.566c-0.859,0.172 -1.746,-0.097 -2.363,-0.715c-0.75,-0.75 -0.977,-1.875 -0.571,-2.855c0.407,-0.98 1.36,-1.617 2.422,-1.617l0.004,-0Zm-71.559,-0.926l-0.004,0c1.692,-1.691 4.344,-1.953 6.332,-0.621c1.989,1.328 2.762,3.875 1.844,6.086c-0.914,2.211 -3.262,3.465 -5.609,3c-2.348,-0.469 -4.036,-2.527 -4.036,-4.918c0,-1.332 0.528,-2.606 1.469,-3.547l0.004,0Zm3.547,0.926l-0.004,-0c0.875,-0 1.692,0.437 2.176,1.164c0.488,0.73 0.578,1.652 0.242,2.457c-0.336,0.809 -1.051,1.398 -1.91,1.566c-0.856,0.172 -1.742,-0.097 -2.359,-0.715c-0.75,-0.75 -0.977,-1.875 -0.571,-2.855c0.407,-0.977 1.364,-1.617 2.422,-1.617l0.004,-0Zm48.074,0.648l-0.004,0.004c-0.664,0 -1.199,-0.539 -1.199,-1.199c-0,-0.664 0.535,-1.203 1.199,-1.203l10.574,-0c0.664,-0 1.199,0.539 1.199,1.203c0,0.66 -0.535,1.199 -1.199,1.199l-10.57,-0.004Zm10.57,3.942c0.664,-0 1.199,0.535 1.199,1.199c0,0.664 -0.535,1.199 -1.199,1.199l-10.57,0c-0.664,0 -1.199,-0.535 -1.199,-1.199c-0,-0.664 0.535,-1.199 1.199,-1.199l10.57,-0Zm-49.281,-3.938c-0.664,0 -1.199,-0.539 -1.199,-1.199c-0,-0.664 0.535,-1.203 1.199,-1.203l10.57,-0c0.664,-0 1.199,0.539 1.199,1.203c0,0.66 -0.535,1.199 -1.199,1.199l-10.57,0Zm10.57,3.938c0.664,-0 1.199,0.535 1.199,1.199c0,0.664 -0.535,1.199 -1.199,1.199l-10.57,0c-0.664,0 -1.199,-0.535 -1.199,-1.199c-0,-0.664 0.535,-1.199 1.199,-1.199l10.57,-0Zm8.785,-3.938c-0.664,0 -1.199,-0.539 -1.199,-1.199c0,-0.664 0.535,-1.203 1.199,-1.203l10.57,-0c0.664,-0 1.199,0.539 1.199,1.203c0,0.66 -0.535,1.199 -1.199,1.199l-10.57,0Zm10.57,3.938c0.664,-0 1.199,0.535 1.199,1.199c0,0.664 -0.535,1.199 -1.199,1.199l-10.57,0c-0.664,0 -1.199,-0.535 -1.199,-1.199c0,-0.664 0.535,-1.199 1.199,-1.199l10.57,-0Zm-29.793,-64.316c1.446,0.492 2.731,1.359 3.731,2.511l6.07,-7.66l-1.121,-0.555l-0,0.004c-1.008,-0.578 -1.766,-1.5 -2.137,-2.601l-6.539,8.301l-0.004,-0Zm-13.762,15.117l-0.293,10.277l6.051,0.172l-1.371,-9.122c-0.074,-0.488 0.16,-0.972 0.594,-1.218l0.519,-0.332l-0.004,-0c-1.23,-1 -2.164,-2.321 -2.699,-3.817l-2.801,4.039l0.004,0.001Zm17.219,-6.809c-0.058,2.992 -2.226,5.527 -5.172,6.047c-2.949,0.523 -5.851,-1.113 -6.933,-3.906c-1.078,-2.793 -0.031,-5.957 2.496,-7.555c2.531,-1.598 5.84,-1.184 7.894,0.992c1.133,1.192 1.75,2.785 1.715,4.426l0,-0.004Zm0.266,7.324l-0.004,0c0.363,0.274 0.539,0.727 0.457,1.168l-1.684,9.063l4.954,0.14l0.292,-10.273l-2.57,-4.199c-0.535,1.274 -1.367,2.399 -2.426,3.285l0.977,0.813l0.004,0.003Zm29.102,-22.238l-0.004,0c-1.625,-1.621 -4.063,-2.105 -6.184,-1.226c-2.117,0.879 -3.5,2.945 -3.5,5.238c0,2.297 1.383,4.363 3.5,5.242c2.121,0.879 4.559,0.395 6.184,-1.226c2.215,-2.219 2.215,-5.809 -0,-8.028l0.004,0Zm-12.086,4.082l-10.746,-5.183c-0.934,-0.551 -1.453,-1.602 -1.328,-2.68c0.129,-1.074 0.883,-1.973 1.922,-2.289c0.777,-0.199 1.601,-0.121 2.328,0.219l9.926,4.433c-1.372,1.5 -2.122,3.465 -2.102,5.5l-0,0Zm15.992,1.461c-0.5,2.578 -2.223,4.754 -4.617,5.832c0.168,0.922 0.644,1.762 1.351,2.379l11.07,9.613c0.86,0.746 1.985,1.102 3.114,0.989c3.316,-0.289 6.398,-5.379 3.156,-8.2l-11.07,-9.617c-0.828,-0.719 -1.91,-1.078 -3.004,-1l-0,0.004Zm25.043,46.438l-22.465,0l-0,7.574l21.117,0c0.453,0 0.902,0.036 1.348,0.102l-0,-7.676Zm-0,-9.625l-10.035,0l-0,7.231l10.035,-0l-0,-7.231Zm-12.43,7.231l-10.035,-0l-0,-6.965c0.016,-4.832 3.926,-8.746 8.758,-8.762l4.902,0c3.824,-0.008 7.219,2.461 8.391,6.102l-10.82,-0c-0.661,-0 -1.2,0.535 -1.2,1.199l0,8.43l0.004,-0.004Zm-51.309,1.652l-0,2.621c-0,0.664 -0.539,1.203 -1.199,1.203c-0.664,0 -1.2,-0.539 -1.2,-1.203l0,-2.621l-5.253,-0l-0,8.316l12.91,0l-0,-8.316l-5.258,-0Zm20.887,-0l-0.004,2.621c-0,0.664 -0.535,1.203 -1.199,1.203c-0.66,0 -1.199,-0.539 -1.199,-1.203l-0,-2.621l-5.254,-0l-0,8.316l12.91,0l-0,-8.316l-5.254,-0Zm-20.492,-2.398l-9.246,-0c-0.66,-0 -1.199,0.535 -1.199,1.199l-0,9.535c-4.766,0.332 -8.465,4.289 -8.477,9.062l-0,0.629c0.012,5.012 4.07,9.075 9.082,9.082l71.836,0c5.012,-0.007 9.07,-4.07 9.082,-9.082l-0,-0.629c-0.008,-3.562 -2.094,-6.793 -5.34,-8.269l0,-17.746c-0.015,-5.691 -4.305,-10.465 -9.961,-11.09l0.016,-10.242c0.281,-0.879 0.394,-1.809 0.332,-2.734c-0.141,-1.637 -0.926,-3.153 -2.188,-4.207l-11.07,-9.61c-1.234,-1.074 -2.832,-1.644 -4.468,-1.59c-0.293,-2.672 -1.895,-5.023 -4.274,-6.273c-2.379,-1.25 -5.222,-1.234 -7.59,0.043l-11.078,-4.949c-1.234,-0.567 -2.625,-0.684 -3.937,-0.34c-1.238,0.328 -2.301,1.133 -2.953,2.238l-9.676,12.27c-4.586,-0.066 -8.43,3.461 -8.754,8.039l-4.496,6.481c-0.137,0.199 -0.211,0.433 -0.211,0.676l-0.336,11.797c-0.015,0.656 0.504,1.207 1.16,1.222l8.676,0.246l0,0.004c0.356,0.008 0.692,-0.14 0.926,-0.406c0.234,-0.262 0.344,-0.617 0.293,-0.965l-1.469,-9.769l0.949,-0.61c2.11,0.817 4.457,0.778 6.543,-0.109l1.102,0.918l-1.809,9.75l-0.004,-0c-0.058,0.344 0.032,0.695 0.25,0.965c0.219,0.269 0.543,0.429 0.891,0.441l7.543,0.215c0.316,0.008 0.625,-0.109 0.856,-0.324c0.226,-0.219 0.363,-0.52 0.371,-0.836l0.336,-11.77c0.015,-0.25 -0.043,-0.496 -0.172,-0.711l-4.121,-6.727c-0.016,-1.176 -0.27,-2.34 -0.75,-3.414l6.914,-8.726l9.308,4.492c1.367,3.402 4.86,5.461 8.5,5.004c0.297,1.375 1.031,2.617 2.09,3.539l11.07,9.617c1.004,0.871 2.25,1.414 3.57,1.555l0,4.839c-5.515,0.774 -9.621,5.481 -9.64,11.051l-0,16.934l-10.336,0l-0,-9.515c-0,-0.66 -0.535,-1.199 -1.199,-1.199l-9.243,-0l0,-9.864c0,-0.664 -0.535,-1.199 -1.199,-1.199l-15.301,0c-0.66,0 -1.199,0.535 -1.199,1.199l-0,9.868l-0,-0.005Zm10.441,2.398l-0,8.316l-3.184,0l0,-8.316l3.184,-0Zm-4.383,-2.398l-3.664,-0l0,-8.665l5.258,0l-0,2.622c-0.024,0.332 0.094,0.656 0.32,0.898c0.227,0.242 0.547,0.379 0.879,0.379c0.328,-0 0.648,-0.137 0.875,-0.379c0.227,-0.242 0.344,-0.566 0.32,-0.898l0,-2.622l5.258,0l0,8.668l-9.246,-0.003Z" style="fill:url(#_Linear1);"/><defs><linearGradient id="_Linear1" x1="0" y1="0" x2="1" y2="0" gradientUnits="userSpaceOnUse" gradientTransform="matrix(90.0004,0,0,86.9043,-1.24345e-14,43.665)"><stop offset="0" style="stop-color:#1685ff;stop-opacity:1"/><stop offset="0.5" style="stop-color:#8b5cf6;stop-opacity:1"/><stop offset="1" style="stop-color:#d946ef;stop-opacity:1"/></linearGradient></defs></svg>