<svg width="128" height="128" viewBox="0 0 128 128" fill="none" xmlns="http://www.w3.org/2000/svg">
<path d="M88 88H66V60H66.9683C68.0838 59.9644 69.1579 59.5692 70.0305 58.8733C70.9031 58.1775 71.5275 57.2183 71.8105 56.1387C73.0488 51.583 75.7085 47.6533 77.6504 44.7842C78.1772 44.0059 78.6553 43.2979 79.0503 42.667C79.6694 41.6777 80.1919 40.7607 80.647 39.8643C82.1267 37.1429 82.9336 34.1068 83 31.0098C83.0383 26.0141 81.0935 21.2071 77.5923 17.6434C74.0911 14.0797 69.3193 12.0501 64.3237 12H63.6763C58.6807 12.0501 53.9089 14.0797 50.4077 17.6434C46.9065 21.2071 44.9617 26.0141 45 31.0098C45.0664 34.1068 45.8733 37.1429 47.353 39.8643C47.8081 40.7607 48.3306 41.6777 48.9492 42.666C49.3447 43.2979 49.8228 44.0059 50.3496 44.7842C52.2915 47.6533 54.9512 51.583 56.1895 56.1377C56.4723 57.2175 57.0966 58.1769 57.9692 58.873C58.8418 59.569 59.916 59.9643 61.0317 60H62V88H40C39.4696 88 38.9609 88.2107 38.5858 88.5858C38.2107 88.9609 38 89.4696 38 90V98C38 98.5304 38.2107 99.0391 38.5858 99.4142C38.9609 99.7893 39.4696 100 40 100H42.1416L45.3804 122.286C45.602 123.857 46.3785 125.296 47.5694 126.344C48.7602 127.393 50.2868 127.98 51.873 128H76.127C77.7078 127.982 79.23 127.399 80.4195 126.358C81.609 125.317 82.3875 123.885 82.6147 122.32L85.8584 100H88C88.5304 100 89.0391 99.7893 89.4142 99.4142C89.7893 99.0391 90 98.5304 90 98V90C90 89.4696 89.7893 88.9609 89.4142 88.5858C89.0391 88.2107 88.5304 88 88 88ZM61.0317 56C60.7985 55.957 60.5824 55.8487 60.4086 55.6875C60.2347 55.5263 60.1103 55.319 60.0498 55.0898C58.6367 49.8916 55.7617 45.6436 53.6621 42.542C53.1655 41.8076 52.7134 41.1416 52.3403 40.5439C51.7852 39.6572 51.3208 38.8428 50.9204 38.0537C49.7297 35.8916 49.0714 33.477 49 31.0098C48.9608 27.0747 50.4838 23.2846 53.2351 20.4708C55.9864 17.657 59.7413 16.0492 63.6763 16H64.3237C68.2587 16.0492 72.0136 17.657 74.7649 20.4708C77.5162 23.2846 79.0392 27.0747 79 31.0098C78.9286 33.477 78.2702 35.8916 77.0796 38.0537C76.6792 38.8428 76.2148 39.6572 75.6592 40.5449C75.2866 41.1416 74.8345 41.8076 74.3379 42.542C72.2383 45.6436 69.3633 49.8916 67.9502 55.0908C67.8895 55.3198 67.765 55.5269 67.5912 55.6879C67.4173 55.8488 67.2013 55.9571 66.9683 56H66V40.916C66.2986 40.9973 66.6121 41.0077 66.9155 40.9464C67.2188 40.885 67.5036 40.7535 67.7471 40.5625L70.249 38.5625C70.6634 38.2312 70.9292 37.7489 70.988 37.2217C71.0468 36.6944 70.8938 36.1654 70.5625 35.751C70.2312 35.3366 69.7489 35.0708 69.2217 35.012C68.6944 34.9532 68.1654 35.1062 67.751 35.4375L66.498 36.4395L65.2441 35.4375C64.8891 35.1546 64.4486 35.0006 63.9947 35.0008C63.5407 35.0009 63.1003 35.1553 62.7456 35.4385L61.4976 36.4385L60.25 35.4385C59.8357 35.1083 59.3074 34.9559 58.7809 35.0148C58.2545 35.0737 57.7729 35.3391 57.4418 35.7526C57.1107 36.1662 56.9572 36.6942 57.015 37.2208C57.0728 37.7474 57.3371 38.2296 57.75 38.5615L60.2476 40.5615C60.4863 40.7632 60.7721 40.9013 61.0784 40.9631C61.3848 41.0249 61.7018 41.0083 62 40.915V56H61.0317ZM42 92H86V96H42V92ZM78.6519 121.778C78.5467 122.381 78.2391 122.929 77.7801 123.333C77.321 123.737 76.7379 123.972 76.127 124H51.873C51.2568 123.97 50.6694 123.73 50.209 123.32C49.7486 122.909 49.443 122.353 49.3433 121.744L46.1831 100H81.8169L78.6519 121.778Z" fill="url(#paint0_linear_597_4068)"/>
<path d="M64 7.7373C64.5304 7.73728 65.0391 7.52655 65.4142 7.15149C65.7893 6.77642 66 6.26773 66 5.7373V2C66 1.46957 65.7893 0.960859 65.4142 0.585786C65.0391 0.210714 64.5304 0 64 0C63.4696 0 62.9609 0.210714 62.5858 0.585786C62.2107 0.960859 62 1.46957 62 2V5.7373C62 6.26773 62.2107 6.77642 62.5858 7.15149C62.9609 7.52655 63.4696 7.73728 64 7.7373Z" fill="url(#paint1_linear_597_4068)"/>
<path d="M52.2231 8.39429C52.4427 8.87524 52.8419 9.25107 53.3352 9.44127C53.8285 9.63148 54.3767 9.62093 54.8623 9.41189C55.1024 9.30543 55.3191 9.15272 55.5001 8.96249C55.6812 8.77226 55.8229 8.54824 55.9174 8.30321C56.0118 8.05818 56.0571 7.79694 56.0506 7.53442C56.0441 7.2719 55.9859 7.01323 55.8794 6.77319L54.3477 3.32009C54.2413 3.08001 54.0886 2.86325 53.8984 2.68219C53.7081 2.50112 53.4841 2.35929 53.2391 2.2648C52.9941 2.1703 52.7328 2.125 52.4703 2.13147C52.2078 2.13793 51.9491 2.19605 51.709 2.30249C51.4689 2.40893 51.2522 2.56162 51.0711 2.75183C50.89 2.94205 50.7482 3.16606 50.6537 3.41109C50.5592 3.65611 50.5139 3.91735 50.5204 4.17989C50.5268 4.44242 50.585 4.70111 50.6914 4.94119L52.2231 8.39429Z" fill="url(#paint2_linear_597_4068)"/>
<path d="M44.2534 14.3046C44.6437 14.6613 45.1583 14.8508 45.6867 14.8325C46.2151 14.8142 46.7153 14.5897 47.0801 14.2069C47.2594 14.015 47.399 13.7897 47.4912 13.5437C47.5833 13.2978 47.6261 13.0362 47.6171 12.7737C47.608 12.5113 47.5474 12.2532 47.4386 12.0142C47.3298 11.7752 47.1749 11.56 46.9829 11.3808L44.1519 8.73822C43.7642 8.37627 43.2486 8.18316 42.7185 8.20138C42.1884 8.2196 41.6872 8.44765 41.3253 8.83537C40.9633 9.22309 40.7702 9.73872 40.7884 10.2688C40.8066 10.7989 41.0347 11.3001 41.4224 11.662L44.2534 14.3046Z" fill="url(#paint3_linear_597_4068)"/>
<path d="M35.562 21.1483L39.2607 22.579C39.5056 22.6738 39.7669 22.7194 40.0294 22.7132C40.292 22.7071 40.5508 22.6492 40.791 22.543C41.0312 22.4368 41.2482 22.2844 41.4295 22.0943C41.6108 21.9043 41.7529 21.6804 41.8476 21.4355C41.9424 21.1905 41.988 20.9293 41.9818 20.6667C41.9757 20.4042 41.9178 20.1454 41.8116 19.9052C41.7054 19.665 41.553 19.448 41.363 19.2667C41.1729 19.0854 40.949 18.9433 40.7041 18.8485L37.0054 17.4179C36.76 17.3211 36.4979 17.2738 36.2342 17.2787C35.9705 17.2835 35.7104 17.3405 35.4688 17.4464C35.2272 17.5522 35.0089 17.7048 34.8265 17.8953C34.6441 18.0859 34.5012 18.3106 34.406 18.5566C34.3108 18.8026 34.2652 19.065 34.2719 19.3287C34.2785 19.5924 34.3372 19.8521 34.4447 20.093C34.5521 20.3339 34.7062 20.5512 34.8979 20.7323C35.0897 20.9134 35.3154 21.0548 35.562 21.1483Z" fill="url(#paint4_linear_597_4068)"/>
<path d="M40.0039 29.998C40.0039 29.4676 39.7931 28.9589 39.4181 28.5839C39.043 28.2088 38.5343 27.9981 38.0039 27.998H34C33.4696 27.998 32.9609 28.2088 32.5858 28.5838C32.2107 28.9589 32 29.4676 32 29.998C32 30.5285 32.2107 31.0372 32.5858 31.4123C32.9609 31.7873 33.4696 31.998 34 31.998H38.0039C38.5343 31.998 39.043 31.7873 39.4181 31.4122C39.7932 31.0372 40.0039 30.5285 40.0039 29.998Z" fill="url(#paint5_linear_597_4068)"/>
<path d="M94 28H89.9961C89.4657 28 88.957 28.2107 88.5819 28.5858C88.2068 28.9609 87.9961 29.4696 87.9961 30C87.9961 30.5304 88.2068 31.0391 88.5819 31.4142C88.957 31.7893 89.4657 32 89.9961 32H94C94.5304 32 95.0391 31.7893 95.4142 31.4142C95.7893 31.0391 96 30.5304 96 30C96 29.4696 95.7893 28.9609 95.4142 28.5858C95.0391 28.2107 94.5304 28 94 28Z" fill="url(#paint6_linear_597_4068)"/>
<path d="M86.1523 21.4375C86.349 21.928 86.7297 22.3221 87.2131 22.5358C87.6964 22.7494 88.2441 22.7657 88.7393 22.5811L92.438 21.1504C92.9327 20.959 93.3311 20.5789 93.5455 20.0938C93.76 19.6086 93.7729 19.0581 93.5815 18.5635C93.3901 18.0688 93.01 17.6704 92.5249 17.4559C92.0397 17.2415 91.4893 17.2285 90.9946 17.4199L87.2959 18.8506C86.8012 19.0421 86.4029 19.4221 86.1884 19.9073C85.974 20.3924 85.961 20.9428 86.1523 21.4375Z" fill="url(#paint7_linear_597_4068)"/>
<path d="M82.3833 14.836C82.8888 14.8394 83.3766 14.6497 83.7471 14.3058L86.5781 11.6642C86.7704 11.4851 86.9255 11.2699 87.0346 11.0308C87.1437 10.7917 87.2045 10.5335 87.2138 10.2709C87.223 10.0083 87.1803 9.74646 87.0883 9.50034C86.9962 9.25422 86.8566 9.02865 86.6773 8.83654C86.498 8.64443 86.2827 8.48953 86.0435 8.38071C85.8043 8.27189 85.546 8.21127 85.2834 8.20233C85.0208 8.19339 84.759 8.23629 84.513 8.32859C84.267 8.42089 84.0415 8.56078 83.8496 8.74025C83.8496 8.74025 81.0239 11.3771 81.0186 11.3819C80.7332 11.6584 80.5362 12.0134 80.4525 12.4018C80.3687 12.7903 80.4019 13.1949 80.5479 13.5644C80.694 13.934 80.9462 14.2521 81.2729 14.4784C81.5996 14.7047 81.986 14.8291 82.3833 14.836Z" fill="url(#paint8_linear_597_4068)"/>
<path d="M73.1387 9.41312C73.624 9.62344 74.1726 9.63475 74.6662 9.44461C75.1598 9.25447 75.559 8.87809 75.7778 8.39652L77.3096 4.94432C77.5236 4.45966 77.5366 3.9099 77.3457 3.41569C77.1548 2.92148 76.7756 2.5232 76.2913 2.30825C75.8071 2.0933 75.2574 2.07925 74.7628 2.26918C74.2682 2.45911 73.8692 2.83751 73.6533 3.32132L72.1216 6.77342C71.9065 7.25835 71.8928 7.80886 72.0836 8.30387C72.2743 8.79889 72.6538 9.19789 73.1387 9.41312Z" fill="url(#paint9_linear_597_4068)"/>
<path d="M74.5522 68.5519C70.1646 72.9396 70.0049 79.6827 70.0005 79.9679C69.9962 80.2332 70.0448 80.4967 70.1434 80.743C70.2419 80.9894 70.3885 81.2137 70.5746 81.4028C70.7607 81.5919 70.9826 81.7422 71.2273 81.8447C71.472 81.9472 71.7347 82.0001 72 82.0001H72.0327C72.3179 81.9952 79.0596 81.8341 83.4478 77.4464C87.8354 73.0587 87.9951 66.3175 87.9995 66.0323C88.004 65.7643 87.9545 65.4981 87.8539 65.2496C87.7534 65.0011 87.6038 64.7754 87.4141 64.586C87.2236 64.3976 86.9976 64.2489 86.7493 64.1483C86.501 64.0478 86.2352 63.9974 85.9673 64.0001C85.6821 64.005 78.9409 64.1661 74.5522 68.5519ZM80.6196 74.6183C78.8526 76.2284 76.6608 77.2977 74.3042 77.6993C74.7063 75.3431 75.7734 73.1509 77.3799 71.381C79.147 69.7709 81.3391 68.7019 83.6958 68.3009C83.2933 70.6568 82.226 72.8486 80.6196 74.6183Z" fill="url(#paint10_linear_597_4068)"/>
<path d="M40.0005 66.0322C40.0049 66.3174 40.1646 73.0586 44.5522 77.4463C48.9404 81.834 55.6821 81.9951 55.9673 82H56C56.2654 82 56.528 81.9472 56.7727 81.8446C57.0175 81.7421 57.2393 81.5919 57.4254 81.4027C57.6115 81.2136 57.7581 80.9893 57.8567 80.743C57.9552 80.4966 58.0038 80.2331 57.9995 79.9678C57.9951 79.6826 57.8354 72.9395 53.4473 68.5508C49.0591 64.166 42.3179 64.0049 42.0327 64C41.492 63.9966 40.9719 64.2073 40.5859 64.5859C40.3963 64.7754 40.2467 65.0011 40.1461 65.2495C40.0455 65.498 39.996 65.7642 40.0005 66.0322ZM50.6196 71.3799C52.2304 73.1484 53.2998 75.342 53.7007 77.7002C51.3424 77.2989 49.1489 76.2292 47.3804 74.6182C45.7701 72.8502 44.7008 70.6574 44.2993 68.2998C46.6574 68.7008 48.8509 69.7698 50.6196 71.3799Z" fill="url(#paint11_linear_597_4068)"/>
<defs>
<linearGradient id="paint0_linear_597_4068" x1="38.0002" y1="70.2795" x2="90.0012" y2="70.2795" gradientUnits="userSpaceOnUse">
<stop stop-color="#1685FF"/>
<stop offset="0.5" stop-color="#8B5CF6"/>
<stop offset="1" stop-color="#D946EF"/>
</linearGradient>
<linearGradient id="paint1_linear_597_4068" x1="62" y1="3.88729" x2="66.0001" y2="3.88729" gradientUnits="userSpaceOnUse">
<stop stop-color="#1685FF"/>
<stop offset="0.5" stop-color="#8B5CF6"/>
<stop offset="1" stop-color="#D946EF"/>
</linearGradient>
<linearGradient id="paint2_linear_597_4068" x1="50.5198" y1="5.87171" x2="56.0513" y2="5.87171" gradientUnits="userSpaceOnUse">
<stop stop-color="#1685FF"/>
<stop offset="0.5" stop-color="#8B5CF6"/>
<stop offset="1" stop-color="#D946EF"/>
</linearGradient>
<linearGradient id="paint3_linear_597_4068" x1="40.7873" y1="11.5329" x2="47.6184" y2="11.5329" gradientUnits="userSpaceOnUse">
<stop stop-color="#1685FF"/>
<stop offset="0.5" stop-color="#8B5CF6"/>
<stop offset="1" stop-color="#D946EF"/>
</linearGradient>
<linearGradient id="paint4_linear_597_4068" x1="34.2713" y1="20.0091" x2="41.9826" y2="20.0091" gradientUnits="userSpaceOnUse">
<stop stop-color="#1685FF"/>
<stop offset="0.5" stop-color="#8B5CF6"/>
<stop offset="1" stop-color="#D946EF"/>
</linearGradient>
<linearGradient id="paint5_linear_597_4068" x1="32" y1="30.0077" x2="40.0041" y2="30.0077" gradientUnits="userSpaceOnUse">
<stop stop-color="#1685FF"/>
<stop offset="0.5" stop-color="#8B5CF6"/>
<stop offset="1" stop-color="#D946EF"/>
</linearGradient>
<linearGradient id="paint6_linear_597_4068" x1="87.9961" y1="30.0096" x2="96.0002" y2="30.0096" gradientUnits="userSpaceOnUse">
<stop stop-color="#1685FF"/>
<stop offset="0.5" stop-color="#8B5CF6"/>
<stop offset="1" stop-color="#D946EF"/>
</linearGradient>
<linearGradient id="paint7_linear_597_4068" x1="86.0177" y1="20.01" x2="93.7165" y2="20.01" gradientUnits="userSpaceOnUse">
<stop stop-color="#1685FF"/>
<stop offset="0.5" stop-color="#8B5CF6"/>
<stop offset="1" stop-color="#D946EF"/>
</linearGradient>
<linearGradient id="paint8_linear_597_4068" x1="80.4073" y1="11.5346" x2="87.2151" y2="11.5346" gradientUnits="userSpaceOnUse">
<stop stop-color="#1685FF"/>
<stop offset="0.5" stop-color="#8B5CF6"/>
<stop offset="1" stop-color="#D946EF"/>
</linearGradient>
<linearGradient id="paint9_linear_597_4068" x1="71.9498" y1="5.87578" x2="77.4801" y2="5.87578" gradientUnits="userSpaceOnUse">
<stop stop-color="#1685FF"/>
<stop offset="0.5" stop-color="#8B5CF6"/>
<stop offset="1" stop-color="#D946EF"/>
</linearGradient>
<linearGradient id="paint10_linear_597_4068" x1="70.0003" y1="73.0434" x2="88.0002" y2="73.0434" gradientUnits="userSpaceOnUse">
<stop stop-color="#1685FF"/>
<stop offset="0.5" stop-color="#8B5CF6"/>
<stop offset="1" stop-color="#D946EF"/>
</linearGradient>
<linearGradient id="paint11_linear_597_4068" x1="40.0003" y1="73.0434" x2="58.0002" y2="73.0434" gradientUnits="userSpaceOnUse">
<stop stop-color="#1685FF"/>
<stop offset="0.5" stop-color="#8B5CF6"/>
<stop offset="1" stop-color="#D946EF"/>
</linearGradient>
</defs>
</svg>
