<?xml version="1.0" encoding="UTF-8" standalone="no"?><!DOCTYPE svg PUBLIC "-//W3C//DTD SVG 1.1//EN" "http://www.w3.org/Graphics/SVG/1.1/DTD/svg11.dtd"><svg width="100%" height="100%" viewBox="0 0 97 97" version="1.1" xmlns="http://www.w3.org/2000/svg" xmlns:xlink="http://www.w3.org/1999/xlink" xml:space="preserve" xmlns:serif="http://www.serif.com/" style="fill-rule:evenodd;clip-rule:evenodd;stroke-linejoin:round;stroke-miterlimit:2;"><path d="M45.578,89.864l-5.113,-1.471l-0,-22.516c-0,-0.306 -0.121,-0.598 -0.337,-0.814l-5.034,-5.034l-0,-35.348c0.184,-0.207 0.356,-0.425 0.516,-0.652l35.239,-0l0,4.647l-4.705,4.705l-4.868,-0c-0.636,-0 -1.152,0.516 -1.152,1.152l0,6.622c0,0.636 0.516,1.152 1.152,1.152l21.451,-0c0.636,-0 1.152,-0.516 1.152,-1.152l0,-6.622c0,-0.636 -0.516,-1.152 -1.152,-1.152l-4.868,-0l-4.705,-4.705l0,-4.647l4.897,-0c0.466,-0 0.886,-0.281 1.064,-0.711c0.178,-0.43 0.08,-0.926 -0.25,-1.255l-6.048,-6.048c-0.216,-0.216 -0.509,-0.337 -0.814,-0.337l-7.897,-0l-31.231,-15.557c-0.33,-0.164 -0.718,-0.161 -1.045,0.009l-25.777,13.389l-3.606,-0c-1.349,-0 -2.447,1.098 -2.447,2.447l-0,7.774c-0,1.349 1.098,2.447 2.447,2.447l7.774,-0c1.252,-0 2.285,-0.945 2.429,-2.159l11.065,-0c0.16,0.227 0.332,0.445 0.516,0.652l-0,35.349l-5.034,5.034c-0.216,0.216 -0.337,0.509 -0.337,0.814l-0,22.516l-5.114,1.471c-0.494,0.142 -0.833,0.593 -0.833,1.107l-0,4.239c-0,0.636 0.516,1.152 1.152,1.152l31.195,-0c0.636,-0 1.152,-0.516 1.152,-1.152l-0,-4.239c-0,-0.513 -0.34,-0.965 -0.833,-1.107l-0.001,-0Zm35.996,-49.86l-19.148,-0l-0,-4.319l19.148,-0l-0,4.319Zm-12.173,-6.622l2.6,-2.6l2.6,2.6l-5.2,-0Zm-31.239,32.973l0,21.376l-3.068,-0.882l0,-23.562l3.068,3.068Zm24.523,-48.374l6.536,-0l-3.268,3.268l-3.268,-3.268Zm0.487,3.745l-6.536,-0l3.268,-3.268l3.268,3.268Zm-9.316,-0.477l-3.268,-3.268l6.536,-0l-3.268,3.268Zm-2.78,0.477l-6.536,-0l3.268,-3.268l3.268,3.268Zm-9.316,-0.477l-3.268,-3.268l6.536,-0l-3.268,3.268Zm-8.969,51.226l-0,12.343l-5.824,-6.171l5.824,-6.171l-0,-0.001Zm-6.256,3.273l-0,-12.342l5.824,6.171l-5.824,6.171Zm6.256,-9.07l-5.824,-6.171l5.824,-6.171l-0,12.343l-0,-0.001Zm-3.128,-41.857c-2.739,-0 -4.968,-2.229 -4.968,-4.968c-0,-2.739 2.228,-4.968 4.968,-4.968c2.74,-0 4.968,2.229 4.968,4.968c-0,2.739 -2.229,4.968 -4.968,4.968Zm3.128,1.595l-0,3.983l-3.091,-3.275c1.106,-0.006 2.153,-0.259 3.091,-0.707l-0,-0.001Zm-1.58,-13.667c-0.499,-0.109 -1.016,-0.167 -1.548,-0.167c-0.532,-0 -1.048,0.059 -1.547,0.167l-0,-8.093l3.095,-1.608l0,9.702l0,-0.001Zm-5.399,0.94c-0.824,0.517 -1.537,1.194 -2.096,1.988l-11.064,-0c-0.118,-0.994 -0.833,-1.806 -1.776,-2.067l14.936,-7.758l0,7.838l0,-0.001Zm-13.142,5.92l2.116,2.116l-2.116,-0l0,-2.116Zm1.629,-1.629l6.536,-0l-3.268,3.268l-3.268,-3.268Zm12.237,9.145l5.824,6.171l-5.824,6.171l0,-12.343l0,0.001Zm6.256,9.07l0,12.342l-5.824,-6.171l5.824,-6.171Zm-0.432,15.241l-5.824,6.171l0,-12.342l5.824,6.171Zm-5.824,30.108l4.737,5.019l-4.737,-0l0,-5.019Zm10.395,-61.869l2.049,2.049l-2.291,-0c0.159,-0.598 0.246,-1.225 0.246,-1.872c0,-0.059 -0.003,-0.118 -0.004,-0.177Zm31.803,2.049l3.268,-3.268l3.268,3.268l-6.536,-0Zm-33.123,-6.048c-0.559,-0.794 -1.272,-1.471 -2.096,-1.988l-0,-10.676l25.424,12.665l-23.328,-0l-0,-0.001Zm-25.244,8.063c-0,0.077 -0.067,0.144 -0.144,0.144l-7.774,-0c-0.077,-0 -0.144,-0.067 -0.144,-0.144l-0,-7.774c-0,-0.077 0.067,-0.144 0.144,-0.144l7.774,-0c0.077,-0 0.144,0.067 0.144,0.144l-0,7.774Zm9.98,-2.015l2.049,-2.049c-0.001,0.059 -0.004,0.118 -0.004,0.177c-0,0.647 0.086,1.275 0.246,1.872l-2.291,-0Zm0.817,44.629l3.068,-3.068l-0,23.562l-3.068,0.882l-0,-21.376Zm22.945,27.703l-28.892,-0l-0,-2.22l10.329,-2.97l8.234,-0l10.329,2.97l-0,2.22Zm-14.447,-77.203c-1.654,-0 -3,1.346 -3,3c0,1.654 1.346,3 3,3c1.654,-0 3,-1.346 3,-3c0,-1.654 -1.346,-3 -3,-3Zm0,3.697c-0.384,-0 -0.697,-0.312 -0.697,-0.697c0,-0.385 0.312,-0.697 0.697,-0.697c0.385,-0 0.697,0.312 0.697,0.697c0,0.385 -0.312,0.697 -0.697,0.697Zm36.001,55.589c0,0.636 -0.516,1.152 -1.152,1.152l-2.308,-0l-0,2.308c-0,0.636 -0.516,1.152 -1.152,1.152c-0.636,-0 -1.152,-0.516 -1.152,-1.152l-0,-3.46c-0,-0.636 0.516,-1.152 1.152,-1.152l3.46,-0c0.636,-0 1.152,0.516 1.152,1.152Zm-7.863,8.709c0,0.636 -0.516,1.152 -1.152,1.152l-2.308,-0l0,2.308c0,0.636 -0.516,1.152 -1.152,1.152c-0.636,-0 -1.152,-0.516 -1.152,-1.152l0,-3.46c0,-0.636 0.516,-1.152 1.152,-1.152l3.46,-0c0.636,-0 1.152,0.516 1.152,1.152Zm2.1,-13.958l0,-3.46c0,-0.636 0.516,-1.152 1.152,-1.152l3.46,-0c0.636,-0 1.152,0.516 1.152,1.152c0,0.636 -0.516,1.152 -1.152,1.152l-2.308,-0l-0,2.308c-0,0.636 -0.516,1.152 -1.152,1.152c-0.636,-0 -1.152,-0.516 -1.152,-1.152Zm-2.1,-3.46c0,0.636 -0.516,1.152 -1.152,1.152l-2.308,-0l0,2.308c0,0.636 -0.516,1.152 -1.152,1.152c-0.636,-0 -1.152,-0.516 -1.152,-1.152l0,-3.46c0,-0.636 0.516,-1.152 1.152,-1.152l3.46,-0c0.636,-0 1.152,0.516 1.152,1.152Zm0,8.709c0,0.636 -0.516,1.152 -1.152,1.152l-2.308,-0l0,2.308c0,0.636 -0.516,1.152 -1.152,1.152c-0.636,-0 -1.152,-0.516 -1.152,-1.152l0,-3.46c0,-0.636 0.516,-1.152 1.152,-1.152l3.46,-0c0.636,-0 1.152,0.516 1.152,1.152Zm7.863,8.709c0,0.636 -0.516,1.152 -1.152,1.152l-2.308,-0l-0,2.308c-0,0.636 -0.516,1.152 -1.152,1.152c-0.636,-0 -1.152,-0.516 -1.152,-1.152l-0,-3.46c-0,-0.636 0.516,-1.152 1.152,-1.152l3.46,-0c0.636,-0 1.152,0.516 1.152,1.152Zm29.547,-37.357l-28.501,-0c-0.636,-0 -1.152,0.516 -1.152,1.152l0,4.103c0,0.636 0.516,1.152 1.152,1.152l0.949,-0l0,8.084l-18.769,-0c-0.636,-0 -1.152,0.516 -1.152,1.152l0,32.077c0,0.636 0.516,1.152 1.152,1.152l44.22,-0c0.636,-0 1.152,-0.516 1.152,-1.152l0,-41.313l0.949,-0c0.636,-0 1.152,-0.516 1.152,-1.152l0,-4.103c0,-0.636 -0.516,-1.152 -1.152,-1.152Zm-27.349,2.303l26.197,-0l0,1.8l-26.197,-0l0,-1.8Zm-17.82,14.491l17.617,-0l0,29.773l-17.617,-0l0,-29.773Zm35.016,14.96l0,14.813l-8.194,-0l0,-14.813l8.194,-0Zm6.902,14.813l-4.598,-0l0,-14.813l0.379,-0c0.636,-0 1.152,-0.516 1.152,-1.152c0,-0.636 -0.516,-1.152 -1.152,-1.152l-13.559,-0c-0.636,-0 -1.152,0.516 -1.152,1.152c0,0.636 0.516,1.152 1.152,1.152l0.379,-0l0,14.813l-4.597,-0l0,-40.161l21.996,-0l0,40.161Zm-16.918,-21.614l11.747,-0c0.636,-0 1.152,-0.516 1.152,-1.152l0,-11.747c0,-0.636 -0.516,-1.152 -1.152,-1.152l-11.747,-0c-0.636,-0 -1.152,0.516 -1.152,1.152l0,11.747c0,0.636 0.516,1.152 1.152,1.152Zm1.152,-5.874l3.57,-0l0,3.57l-3.57,-0l0,-3.57Zm5.873,3.57l0,-3.57l3.57,-0l-0,3.57l-3.57,-0Zm3.57,-5.874l-3.57,-0l-0,-3.57l3.57,-0l-0,3.57Zm-5.873,-3.57l-0,3.57l-3.57,-0l0,-3.57l3.57,-0Z" style="fill:url(#_Linear1);fill-rule:nonzero;"/><defs><linearGradient id="_Linear1" x1="0" y1="0" x2="1" y2="0" gradientUnits="userSpaceOnUse" gradientTransform="matrix(96.3625,0,0,86.3411,-3.21965e-14,48.4134)"><stop offset="0" style="stop-color:#1685ff;stop-opacity:1"/><stop offset="0.5" style="stop-color:#8b5cf6;stop-opacity:1"/><stop offset="1" style="stop-color:#d946ef;stop-opacity:1"/></linearGradient></defs></svg>