<svg width="64" height="62" viewBox="0 0 64 62" fill="none" xmlns="http://www.w3.org/2000/svg">
<path d="M15 44.2905C12.794 44.2905 11 46.0556 11 48.226C11 50.3964 12.794 52.1615 15 52.1615C17.206 52.1615 19 50.3964 19 48.226C19 46.0556 17.206 44.2905 15 44.2905ZM15 50.1938C13.897 50.1938 13 49.3112 13 48.226C13 47.1408 13.897 46.2583 15 46.2583C16.103 46.2583 17 47.1408 17 48.226C17 49.3112 16.103 50.1938 15 50.1938Z" fill="url(#paint0_linear_594_4042)"/>
<path d="M15 40.355C10.589 40.355 7 43.8861 7 48.2259C7 52.5658 10.589 56.0969 15 56.0969C19.411 56.0969 23 52.5658 23 48.2259C23 43.8861 19.411 40.355 15 40.355ZM15 54.1292C11.691 54.1292 9 51.4816 9 48.2259C9 44.9703 11.691 42.3227 15 42.3227C18.309 42.3227 21 44.9703 21 48.2259C21 51.4816 18.309 54.1292 15 54.1292Z" fill="url(#paint1_linear_594_4042)"/>
<path d="M63.603 45.2102L61 43.332V27.1828L57.916 28.1942C57.2 28.4293 56.455 28.5484 55.702 28.5484C54.212 28.5484 53 27.3559 53 25.891V23.3349C53 21.8699 54.212 20.6774 55.701 20.6774C56.456 20.6774 57.201 20.7965 57.917 21.0306L61 22.044V11.8226C61 10.1953 59.654 8.87097 58 8.87097H50.388L50.728 7.86644C50.908 7.33416 51 6.77926 51 6.2155C51 3.33965 48.622 1 45.698 1H44.302C41.378 1 39 3.34063 39 6.21747C39 6.77926 39.092 7.33515 39.272 7.86644L39.612 8.87097H34C33.229 8.87097 32.532 9.16711 32 9.63839C31.468 9.16711 30.771 8.87097 30 8.87097H22.388L22.728 7.86644C22.908 7.33416 23 6.77926 23 6.2155C23 3.33965 20.622 1 17.698 1H16.302C13.378 1 11 3.34063 11 6.21747C11 6.77926 11.092 7.33515 11.272 7.86644L11.612 8.87097H6C4.346 8.87097 3 10.1953 3 11.8226V40.5516L2.272 41.2679L3.635 42.6109C4.073 43.0418 3.912 43.5396 3.853 43.6833C3.793 43.825 3.549 44.2903 2.929 44.2903H1V52.1613H2.929C3.549 52.1613 3.793 52.6267 3.854 52.7683C3.914 52.912 4.075 53.4088 3.635 53.8408L2.273 55.1837L7.928 60.7475L9.293 59.4065C9.733 58.9746 10.237 59.135 10.383 59.192C10.527 59.252 11 59.4921 11 60.1021V62H19V60.1021C19 59.4921 19.473 59.252 19.617 59.192C19.762 59.134 20.267 58.9716 20.707 59.4075L22.072 60.7475L27.727 55.1837L26.364 53.8408C25.926 53.4098 26.087 52.912 26.146 52.7683C26.207 52.6267 26.451 52.1613 27.071 52.1613H28H29H46V60.2192L63.603 45.2102ZM34 10.8387H42.388L41.169 7.24365C41.057 6.91208 41 6.56674 41 6.21747C41 4.42485 42.481 2.96774 44.302 2.96774H45.698C47.519 2.96774 49 4.42485 49 6.21648C49 6.56674 48.943 6.91208 48.831 7.24365L47.612 10.8387H58C58.552 10.8387 59 11.2795 59 11.8226V19.3128L58.55 19.1652C57.63 18.8622 56.672 18.7097 55.701 18.7097C53.109 18.7097 51 20.7847 51 23.3349V25.891C51 28.4411 53.109 30.5161 55.702 30.5161C56.671 30.5161 57.628 30.3636 58.547 30.0626L59 29.914V41.8897L46 32.5104V40.3548H33V29.914L33.451 30.0616C34.371 30.3646 35.329 30.5171 36.299 30.5171C38.892 30.5161 41 28.4411 41 25.891V23.3358C41 22.1001 40.511 20.9372 39.623 20.0645C38.735 19.1918 37.555 18.7107 36.3 18.7107C36.3 18.7107 36.299 18.7107 36.298 18.7107C35.329 18.7107 34.372 18.8632 33.452 19.1652L33 19.3128V11.8226C33 11.2795 33.448 10.8387 34 10.8387ZM5 11.8226C5 11.2795 5.448 10.8387 6 10.8387H14.388L13.169 7.24365C13.057 6.91208 13 6.56674 13 6.21747C13 4.42485 14.481 2.96774 16.302 2.96774H17.698C19.519 2.96774 21 4.42485 21 6.21648C21 6.56674 20.943 6.91208 20.831 7.24365L19.612 10.8387H30C30.552 10.8387 31 11.2795 31 11.8226V22.044L34.084 21.0326C34.8 20.7984 35.545 20.6794 36.298 20.6794C36.299 20.6794 36.299 20.6794 36.3 20.6794C37.021 20.6794 37.699 20.9549 38.209 21.4576C38.719 21.9594 39 22.6265 39 23.3368V25.8919C39 27.3569 37.788 28.5494 36.299 28.5504C35.545 28.5504 34.8 28.4313 34.084 28.1962L31 27.1847V40.3548H26.8L22.072 35.7031L20.707 37.0441C20.268 37.476 19.762 37.3147 19.617 37.2586C19.473 37.1996 19 36.9595 19 36.3495V34.4516H11V36.3495C11 36.9595 10.527 37.1996 10.383 37.2596C10.237 37.3166 9.734 37.479 9.293 37.0441L7.928 35.7041L5 38.5839V11.8226ZM27 50.1945C25.794 50.2201 24.763 50.9128 24.299 52.0167C23.835 53.1186 24.067 54.3258 24.901 55.1828L22.071 57.9671C21.199 57.1456 19.974 56.9193 18.853 57.3748C17.732 57.8304 17.027 58.8457 17.001 60.0323H12.999C12.973 58.8457 12.269 57.8313 11.147 57.3748C10.026 56.9193 8.8 57.1476 7.929 57.9671L5.1 55.1818C5.934 54.3248 6.165 53.1176 5.702 52.0157C5.237 50.9128 4.206 50.2201 3 50.1945V46.2571C4.206 46.2315 5.237 45.5389 5.701 44.435C6.165 43.333 5.933 42.1258 5.099 41.2689L7.929 38.4845C8.801 39.305 10.025 39.5323 11.147 39.0768C12.268 38.6203 12.972 37.6059 12.999 36.4194H17.001C17.027 37.6059 17.731 38.6203 18.853 39.0768C19.976 39.5343 21.202 39.3041 22.071 38.4845L24.901 41.2689C24.067 42.1258 23.836 43.333 24.299 44.435C24.763 45.5379 25.794 46.2305 27 46.2571V50.1945ZM29 50.1935V44.2903H27.071C26.451 44.2903 26.207 43.825 26.146 43.6833C26.086 43.5396 25.925 43.0428 26.365 42.6109L26.658 42.3226H48V36.3938L60.397 45.3391L48 55.9098V50.1935H29Z" fill="url(#paint2_linear_594_4042)"/>
<path d="M13 23.6289C13 22.0015 11.654 20.6772 10 20.6772C8.346 20.6772 7 22.0015 7 23.6289C7 25.2562 8.346 26.5805 10 26.5805C11.654 26.5805 13 25.2562 13 23.6289ZM9 23.6289C9 23.0858 9.448 22.645 10 22.645C10.552 22.645 11 23.0858 11 23.6289C11 24.172 10.552 24.6127 10 24.6127C9.448 24.6127 9 24.172 9 23.6289Z" fill="url(#paint3_linear_594_4042)"/>
<path d="M18 26.5805C19.654 26.5805 21 25.2562 21 23.6289C21 22.0015 19.654 20.6772 18 20.6772C16.346 20.6772 15 22.0015 15 23.6289C15 25.2562 16.346 26.5805 18 26.5805ZM18 22.645C18.552 22.645 19 23.0858 19 23.6289C19 24.172 18.552 24.6127 18 24.6127C17.448 24.6127 17 24.172 17 23.6289C17 23.0858 17.448 22.645 18 22.645Z" fill="url(#paint4_linear_594_4042)"/>
<path d="M26 26.5805C27.654 26.5805 29 25.2562 29 23.6289C29 22.0015 27.654 20.6772 26 20.6772C24.346 20.6772 23 22.0015 23 23.6289C23 25.2562 24.346 26.5805 26 26.5805ZM26 22.645C26.552 22.645 27 23.0858 27 23.6289C27 24.172 26.552 24.6127 26 24.6127C25.448 24.6127 25 24.172 25 23.6289C25 23.0858 25.448 22.645 26 22.645Z" fill="url(#paint5_linear_594_4042)"/>
<defs>
<linearGradient id="paint0_linear_594_4042" x1="11" y1="48.245" x2="19.0002" y2="48.245" gradientUnits="userSpaceOnUse">
<stop stop-color="#1685FF"/>
<stop offset="0.5" stop-color="#8B5CF6"/>
<stop offset="1" stop-color="#D946EF"/>
</linearGradient>
<linearGradient id="paint1_linear_594_4042" x1="7.00007" y1="48.2639" x2="23.0004" y2="48.2639" gradientUnits="userSpaceOnUse">
<stop stop-color="#1685FF"/>
<stop offset="0.5" stop-color="#8B5CF6"/>
<stop offset="1" stop-color="#D946EF"/>
</linearGradient>
<linearGradient id="paint2_linear_594_4042" x1="1.00028" y1="31.647" x2="63.6044" y2="31.647" gradientUnits="userSpaceOnUse">
<stop stop-color="#1685FF"/>
<stop offset="0.5" stop-color="#8B5CF6"/>
<stop offset="1" stop-color="#D946EF"/>
</linearGradient>
<linearGradient id="paint3_linear_594_4042" x1="7.00003" y1="23.6431" x2="13.0001" y2="23.6431" gradientUnits="userSpaceOnUse">
<stop stop-color="#1685FF"/>
<stop offset="0.5" stop-color="#8B5CF6"/>
<stop offset="1" stop-color="#D946EF"/>
</linearGradient>
<linearGradient id="paint4_linear_594_4042" x1="15" y1="23.6431" x2="21.0001" y2="23.6431" gradientUnits="userSpaceOnUse">
<stop stop-color="#1685FF"/>
<stop offset="0.5" stop-color="#8B5CF6"/>
<stop offset="1" stop-color="#D946EF"/>
</linearGradient>
<linearGradient id="paint5_linear_594_4042" x1="23" y1="23.6431" x2="29.0001" y2="23.6431" gradientUnits="userSpaceOnUse">
<stop stop-color="#1685FF"/>
<stop offset="0.5" stop-color="#8B5CF6"/>
<stop offset="1" stop-color="#D946EF"/>
</linearGradient>
</defs>
</svg>
