<svg width="37" height="37" viewBox="0 0 37 37" fill="none" xmlns="http://www.w3.org/2000/svg">
<g clip-path="url(#clip0_449_1137)">
<path d="M34.4548 25.6669L31.8438 21.6043C30.1924 19.0353 27.5115 17.3177 24.4882 16.8918C24.45 16.8864 24.4118 16.8835 24.3735 16.8835H12.6264C12.5882 16.8835 12.5496 16.886 12.5117 16.8918C9.48844 17.3177 6.80758 19.0353 5.15615 21.6043L2.54518 25.6669C1.20948 27.7459 1.54454 30.4856 3.34192 32.1818L4.67597 33.4406C7.10893 35.7359 10.2909 37 13.6357 37H23.3638C26.7091 37 29.8911 35.7359 32.324 33.4406L33.6585 32.1818C35.4554 30.4856 35.7905 27.7455 34.4548 25.6669ZM4.47042 30.9855C3.24818 29.8323 3.02043 27.9692 3.92898 26.5558L6.53995 22.4932C7.92169 20.3435 10.1594 18.9005 12.6856 18.528H24.3152C25.065 18.6386 25.7882 18.8454 26.4723 19.1352L22.5979 25.9728C21.3313 25.6205 19.9487 25.4248 18.5008 25.4248C15.2341 25.4248 12.2984 26.4131 10.2876 27.9766C10.1828 28.0284 10.0882 28.1019 10.011 28.1986C8.46395 29.4985 7.53402 31.1586 7.53402 32.9654C7.53402 33.1829 7.54923 33.3991 7.57554 33.6137C6.94777 33.2195 6.35413 32.7623 5.80488 32.2443L4.47042 30.9855ZM16.9106 35.3556C16.6196 35.1591 16.4432 34.9256 16.4432 34.7056C16.4432 34.1938 17.323 33.6211 18.5 33.6211C19.677 33.6211 20.5568 34.1938 20.5568 34.7056C20.5568 34.9256 20.3804 35.1595 20.0893 35.3556H16.9106ZM20.1465 32.2554C19.6527 32.0782 19.0961 31.9767 18.5 31.9767C17.9039 31.9767 17.3476 32.0782 16.8535 32.2554L12.0464 28.7166C13.7229 27.6974 15.9967 27.0692 18.5 27.0692C20.0162 27.0692 21.4477 27.3007 22.7143 27.7089C22.7484 27.7213 22.7817 27.7344 22.8162 27.7418C23.6011 28.0025 24.3201 28.3313 24.9536 28.7166L20.1465 32.2554ZM9.55956 34.6037C9.31125 34.0717 9.17805 33.5229 9.17805 32.9654C9.17805 31.7826 9.73346 30.6808 10.6856 29.7567L15.385 33.2162C15.0146 33.6421 14.7988 34.1519 14.7988 34.7056C14.7988 34.9289 14.8337 35.1463 14.9003 35.3556H13.6357C12.2244 35.3556 10.8472 35.0958 9.55956 34.6037ZM22.0993 35.3556C22.1659 35.1463 22.2012 34.9289 22.2012 34.7056C22.2012 34.1514 21.9858 33.6421 21.615 33.2162L26.3148 29.7567C27.2665 30.6808 27.8223 31.7826 27.8223 32.9654C27.8223 33.5224 27.6891 34.0717 27.4408 34.6037C26.1532 35.0958 24.7756 35.3556 23.3638 35.3556H22.0993ZM32.53 30.9855L31.1955 32.2443C30.6467 32.7623 30.0526 33.219 29.4253 33.6137C29.4516 33.3991 29.4668 33.1829 29.4668 32.9654C29.4668 31.1581 28.5364 29.4981 26.9894 28.1981C26.9126 28.1019 26.8184 28.0288 26.714 27.9774C25.9818 27.408 25.1283 26.9138 24.1795 26.5171L27.9202 19.9151C28.9237 20.5827 29.7928 21.4547 30.4605 22.4936L33.0714 26.5562C33.9796 27.9692 33.7518 29.8323 32.53 30.9855Z" fill="url(#paint0_linear_449_1137)"/>
<path d="M18.5 15.0125C21.8962 15.0125 24.6584 12.2499 24.6584 8.8541V6.15844C24.6584 2.76267 21.8962 0 18.5 0C15.1042 0 12.3416 2.76267 12.3416 6.15844V8.85369C12.3416 12.2495 15.1042 15.0125 18.5 15.0125ZM13.986 6.15844C13.986 3.66958 16.0107 1.64444 18.5 1.64444C20.9893 1.64444 23.014 3.66958 23.014 6.15844V8.85369C23.014 11.343 20.9889 13.3677 18.5 13.3677C16.0111 13.3677 13.986 11.3426 13.986 8.85369V6.15844Z" fill="url(#paint1_linear_449_1137)"/>
</g>
<defs>
<linearGradient id="paint0_linear_449_1137" x1="1.73056" y1="26.9902" x2="35.2703" y2="26.9902" gradientUnits="userSpaceOnUse">
<stop stop-color="#1685FF"/>
<stop offset="0.5" stop-color="#8B5CF6"/>
<stop offset="1" stop-color="#D946EF"/>
</linearGradient>
<linearGradient id="paint1_linear_449_1137" x1="12.3416" y1="7.54243" x2="24.6587" y2="7.54243" gradientUnits="userSpaceOnUse">
<stop stop-color="#1685FF"/>
<stop offset="0.5" stop-color="#8B5CF6"/>
<stop offset="1" stop-color="#D946EF"/>
</linearGradient>
<clipPath id="clip0_449_1137">
<rect width="37" height="37" fill="white"/>
</clipPath>
</defs>
</svg>
