<svg width="30" height="30" viewBox="0 0 30 30" fill="none" xmlns="http://www.w3.org/2000/svg">
<path d="M13.2678 11.044H14.1054L14.2126 11.3028L14.7796 11.3037L13.9286 9.25076C13.8867 9.1536 13.7921 9.09078 13.6866 9.09078C13.581 9.09078 13.4855 9.1536 13.4437 9.25076L12.5927 11.3037H13.1597L13.2678 11.044ZM13.6857 10.0364L13.8859 10.5331H13.4839L13.6857 10.0364ZM15.7621 10.5884H15.9296C16.3275 10.5666 16.6391 10.2383 16.6391 9.83958C16.6391 9.44088 16.3275 9.11172 15.9296 9.08994H15.4899C15.3458 9.08994 15.2286 9.2072 15.2286 9.35128V11.3037H15.7621L15.7621 10.5884ZM15.7621 9.6126H15.9296C16.0536 9.6126 16.1533 9.71227 16.1533 9.83624C16.1533 9.95936 16.0536 10.059 15.9296 10.059H15.7621V9.6126ZM17.6785 11.3037H17.1425V9.24404H17.6676L17.6785 11.3037ZM22.7284 9.39146H22.2401V7.60489C22.2401 7.45915 22.122 7.34104 21.9763 7.34104H19.6335C19.6201 7.17268 19.548 7.01439 19.4299 6.89461L18.7599 6.22454C18.6267 6.09136 18.4466 6.01598 18.2582 6.01598C18.0705 6.01598 17.8896 6.09136 17.7573 6.22454L17.4759 6.51268C17.1685 6.34014 16.841 6.20528 16.5017 6.11064V5.70859C16.5017 5.52013 16.4272 5.34004 16.294 5.20772C16.1617 5.07455 15.9816 5 15.794 5H14.8375C14.6498 5 14.4698 5.07455 14.3374 5.20772C14.2042 5.34006 14.1297 5.52014 14.1297 5.70859V6.10142C13.7896 6.19858 13.463 6.33679 13.1556 6.51268L12.8792 6.22623C12.6011 5.95151 12.1538 5.95151 11.8757 6.22623L11.2057 6.8963C11.0876 7.01692 11.0155 7.17523 11.003 7.34357H8.6576C8.58724 7.34273 8.5194 7.37037 8.46914 7.41979C8.41972 7.46921 8.39125 7.53622 8.39125 7.60657V9.39315L7.91381 9.39398C7.67091 9.39398 7.43805 9.49031 7.2672 9.66201C7.09549 9.83372 6.99917 10.0666 7.00001 10.3095V20.2559C7.00001 20.4645 7.08293 20.6638 7.23034 20.8112C7.37775 20.9586 7.57794 21.0416 7.78651 21.0416H13.0281V22.7058H11.208C10.7758 22.7067 10.4257 23.056 10.4215 23.4873V24.7387C10.4215 24.8827 10.5388 25 10.6828 25H19.9483C20.0923 25 20.2096 24.8827 20.2096 24.7387V23.4873C20.2079 23.0543 19.857 22.7025 19.4231 22.7016H17.603V21.0415H22.8446C23.0531 21.0415 23.2533 20.9586 23.4008 20.8112C23.5482 20.6638 23.6311 20.4644 23.6311 20.2559V10.3094C23.6319 10.0665 23.5364 9.83284 23.3647 9.66032C23.1939 9.48861 22.961 9.39145 22.7173 9.39145L22.7284 9.39146ZM19.4299 7.9039L19.4609 7.86788H21.7124V8.72558H19.4123C19.3386 8.53879 19.2514 8.35619 19.1526 8.18113L19.4299 7.9039ZM11.5724 7.27152L12.2425 6.60145C12.3145 6.53026 12.4309 6.53026 12.5038 6.60145L12.9234 7.02361C13.0106 7.11072 13.1463 7.12579 13.2493 7.05962C13.617 6.82845 14.0215 6.66093 14.4445 6.56377C14.5643 6.53529 14.648 6.42724 14.6455 6.30496V5.70861C14.6455 5.60726 14.7276 5.52518 14.829 5.52518H15.7846C15.8366 5.52015 15.8877 5.5369 15.9262 5.57208C15.9639 5.60726 15.9857 5.65668 15.9857 5.70861V6.30496C15.9857 6.42725 16.0711 6.53279 16.1909 6.55959C16.6147 6.65675 17.0184 6.82427 17.3861 7.05544C17.49 7.12161 17.6257 7.10654 17.7119 7.01943L18.1316 6.59727H18.1324C18.2044 6.52524 18.3208 6.52524 18.3937 6.59727L19.0638 7.26734C19.099 7.30252 19.1182 7.34943 19.1182 7.39884C19.1182 7.44826 19.099 7.496 19.0638 7.53118L18.6442 7.95081H18.6433C18.5562 8.03708 18.5411 8.17278 18.6056 8.27663C18.8376 8.64432 19.0052 9.04806 19.1015 9.47186C19.1291 9.5908 19.2355 9.6754 19.3586 9.6754H19.9525C20.0547 9.6754 20.1376 9.75832 20.1376 9.8605V10.8145C20.1376 10.8631 20.1183 10.9108 20.084 10.9452C20.0488 10.9804 20.0019 10.9996 19.9525 10.9996H19.3536C19.2313 11.0005 19.1258 11.0842 19.0973 11.2032C19.0018 11.6278 18.8334 12.0324 18.6014 12.4001C18.5369 12.5039 18.552 12.638 18.6391 12.7242L19.0588 13.1464C19.0939 13.1807 19.114 13.2276 19.114 13.277C19.114 13.3256 19.0939 13.3734 19.0588 13.4077L18.3887 14.0778C18.3167 14.149 18.2002 14.149 18.1273 14.0778L17.7035 13.6598C17.6164 13.5727 17.4815 13.5568 17.3769 13.6221C17.01 13.8541 16.6054 14.0217 16.1825 14.118C16.0635 14.149 15.9814 14.2587 15.9856 14.381V14.9757C15.9856 15.077 15.9044 15.1599 15.8022 15.1608H14.8373C14.7359 15.1599 14.6547 15.077 14.6547 14.9757V14.381C14.6547 14.2579 14.5693 14.1515 14.4487 14.1247C14.0257 14.0284 13.6211 13.8608 13.2543 13.6288C13.1496 13.5627 13.0139 13.5786 12.9276 13.6665L12.508 14.0862C12.4359 14.1582 12.3187 14.1582 12.2466 14.0862L11.5766 13.4161C11.5414 13.3817 11.5221 13.3348 11.5221 13.2854C11.5221 13.2368 11.5414 13.1891 11.5766 13.1548L11.9962 12.7326C12.0833 12.6472 12.0992 12.5123 12.0347 12.4093C11.7993 12.0391 11.6302 11.6312 11.5338 11.2032C11.5054 11.0842 11.3998 11.0005 11.2775 10.9996H10.6829C10.5807 10.9996 10.4978 10.9167 10.4978 10.8145V9.86302C10.4978 9.75999 10.5807 9.67707 10.6829 9.67707H11.2775C11.3998 9.67707 11.5062 9.59331 11.5338 9.47437C11.631 9.04971 11.7985 8.64516 12.0297 8.27663C12.0942 8.1736 12.0791 8.03875 11.992 7.95332L11.5724 7.53369V7.53286C11.5004 7.46082 11.5004 7.3444 11.5724 7.27152ZM8.91893 7.86788H11.1704L11.2014 7.90389L11.4786 8.18114C11.3798 8.3562 11.2927 8.5388 11.219 8.72558H8.91885L8.91893 7.86788ZM8.91893 9.25073H10.337C10.1133 9.37386 9.97429 9.60756 9.97262 9.86302V10.817V10.8162C9.9743 11.2082 10.2917 11.5256 10.6829 11.5265H11.0715C11.1662 11.8665 11.3019 12.194 11.4761 12.5006L11.1988 12.7778C11.0657 12.9102 10.9911 13.0911 10.9911 13.2787C10.9911 13.4672 11.0657 13.6473 11.1988 13.7804L11.8689 14.4505C12.0021 14.5837 12.1822 14.6591 12.3706 14.6591C12.5591 14.6591 12.7392 14.5837 12.8723 14.4505L13.1496 14.1732H13.1487C13.4561 14.3475 13.7828 14.4832 14.1229 14.5778V14.9689C14.1229 15.3601 14.4395 15.6776 14.8306 15.6792H15.7872C16.1783 15.6775 16.4949 15.3601 16.4949 14.9689V14.5845C16.835 14.4898 17.1616 14.3542 17.469 14.1799L17.7463 14.4572H17.7455C17.8786 14.5904 18.0587 14.6657 18.2472 14.6657C18.4356 14.6657 18.6157 14.5904 18.7489 14.4572L19.4189 13.7871C19.5521 13.6539 19.6267 13.4739 19.6267 13.2854C19.6267 13.0978 19.5521 12.9169 19.4189 12.7845L19.1417 12.5073C19.3209 12.1999 19.4608 11.8707 19.5596 11.529H19.9508H19.95C20.3419 11.5281 20.6594 11.2107 20.6602 10.8187V9.86302C20.6594 9.60672 20.5204 9.37218 20.2967 9.24822H21.7148V18.2364H8.91886L8.91893 9.25073ZM7.52267 10.3094C7.5235 10.0942 7.69856 9.92081 7.91382 9.92081H8.39125V18.2363H7.52016L7.52267 10.3094ZM19.4232 23.231C19.5664 23.231 19.6828 23.3449 19.687 23.4873V24.4698L10.9443 24.4706V23.4873C10.946 23.3432 11.0633 23.226 11.2082 23.226H19.4232V23.231ZM13.5533 22.7058V21.0416H17.078V22.7058H13.5533ZM23.1084 20.2492C23.1084 20.3941 22.9903 20.5122 22.8446 20.5122H7.7863C7.64056 20.5122 7.52245 20.3941 7.52245 20.2492V18.7616H23.1084V20.2492ZM23.1084 18.239H22.2399V9.9168H22.7198C22.8237 9.9168 22.9225 9.95868 22.9954 10.0324C23.0683 10.1061 23.1093 10.2058 23.1084 10.3096L23.1084 18.239ZM17.3683 12.396L17.7386 12.7662C17.0961 13.4086 16.2242 13.7696 15.3154 13.7696C14.4065 13.7696 13.5346 13.4086 12.8922 12.7662L13.2632 12.3951L13.2624 12.396C14.3965 13.5292 16.2342 13.5292 17.3683 12.396ZM13.2626 8.2994L12.8923 7.91998C13.5348 7.27755 14.4067 6.91655 15.3155 6.91655C16.2244 6.91655 17.0963 7.27755 17.7387 7.91998L17.3685 8.2994C16.2344 7.16613 14.3966 7.16613 13.2626 8.2994Z" fill="url(#paint0_linear_1775_281)"/>
<defs>
<linearGradient id="paint0_linear_1775_281" x1="7.00005" y1="15.0482" x2="23.6315" y2="15.0482" gradientUnits="userSpaceOnUse">
<stop stop-color="#1685FF"/>
<stop offset="0.5" stop-color="#8B5CF6"/>
<stop offset="1" stop-color="#D946EF"/>
</linearGradient>
</defs>
</svg>
