<?xml version="1.0" encoding="UTF-8" standalone="no"?><!DOCTYPE svg PUBLIC "-//W3C//DTD SVG 1.1//EN" "http://www.w3.org/Graphics/SVG/1.1/DTD/svg11.dtd"><svg width="100%" height="100%" viewBox="0 0 200 200" version="1.1" xmlns="http://www.w3.org/2000/svg" xmlns:xlink="http://www.w3.org/1999/xlink" xml:space="preserve" xmlns:serif="http://www.serif.com/" style="fill-rule:evenodd;clip-rule:evenodd;stroke-linejoin:round;stroke-miterlimit:2;"><g id="Layer10"><path d="M181.883,9.701l-91.801,0c-1.988,0 -3.623,1.67 -3.624,3.699l0,60.422l-16.91,0l0,-6.165c0.116,-10.976 -6.158,-21.033 -15.95,-25.566c3.988,-3.512 6.285,-8.63 6.285,-14.006c0,-10.147 -8.179,-18.496 -18.118,-18.496c-9.939,0 -18.118,8.349 -18.118,18.496c0,5.357 2.28,10.459 6.244,13.97c-9.682,4.676 -15.89,14.667 -15.907,25.602l0,113.445c0.001,2.03 1.636,3.699 3.624,3.7l72.474,0c1.988,-0.001 3.623,-1.671 3.624,-3.7l0,-55.489l18.882,0l-9.271,54.861c-0.337,2 0.997,3.929 2.956,4.275c0.205,0.035 0.413,0.053 0.621,0.053c1.755,-0.002 3.269,-1.306 3.567,-3.071l9.483,-56.118l12.519,0l0,55.489c0,2.03 1.635,3.7 3.623,3.7c1.988,0 3.624,-1.67 3.624,-3.7l0,-55.489l12.633,0l9.159,56.099c0.29,1.774 1.808,3.087 3.569,3.09c0.202,-0.001 0.403,-0.018 0.602,-0.051c1.739,-0.296 3.027,-1.848 3.027,-3.648c0,-0.205 -0.017,-0.409 -0.05,-0.61l-8.96,-54.88l22.193,0c1.988,-0.001 3.623,-1.671 3.624,-3.7l0,-108.513c-0.001,-2.029 -1.636,-3.699 -3.624,-3.699Zm-80.93,83.851l-79.721,0l0,-12.331l79.721,0l0,12.331Zm-70.058,-65.355c0,-6.088 4.907,-11.098 10.871,-11.098c5.964,0 10.871,5.01 10.871,11.098c0,6.088 -4.907,11.098 -10.871,11.098c-5.961,-0.006 -10.865,-5.012 -10.871,-11.098Zm-9.663,39.46c0,-0.016 0,-0.031 0,-0.046c0,-11.499 9.269,-20.962 20.534,-20.962c11.265,0 20.534,9.463 20.534,20.962c0,0.015 0,0.03 0,0.046l0,6.165l-41.068,0l0,-6.165Zm65.226,109.746l-65.226,0l0,-76.453l65.226,0l0,76.453Zm91.801,-59.189l-84.553,0l0,-17.264l10.871,0c1.988,0 3.623,-1.67 3.624,-3.699l0,-19.73c-0.001,-2.029 -1.636,-3.698 -3.624,-3.699l-10.871,0l0,-56.723l84.553,0l0,101.115Z" style="fill:url(#_Linear1);fill-rule:nonzero;"/></g><defs><linearGradient id="_Linear1" x1="0" y1="0" x2="1" y2="0" gradientUnits="userSpaceOnUse" gradientTransform="matrix(140.591,161.682,-161.682,140.591,27.854,18.6198)"><stop offset="0" style="stop-color:#4d7aff;stop-opacity:1"/><stop offset="1" style="stop-color:#d748f0;stop-opacity:1"/></linearGradient></defs></svg>