<svg width="30" height="30" viewBox="0 0 30 30" fill="none" xmlns="http://www.w3.org/2000/svg">
<path fill-rule="evenodd" clip-rule="evenodd" d="M10.3112 20.3896C9.63988 19.7182 8.55129 19.7182 7.87991 20.3896C7.20854 21.061 7.20854 22.1496 7.87991 22.8209C8.55129 23.4923 9.63988 23.4923 10.3112 22.8209C10.9826 22.1496 10.9826 21.061 10.3112 20.3896ZM9.09544 19.2207C10.4124 19.2207 11.4801 20.2885 11.4801 21.6054C11.4801 22.9223 10.4124 23.9901 9.09544 23.9901C7.77853 23.9901 6.71077 22.9223 6.71077 21.6054C6.71077 20.2885 7.77853 19.2207 9.09544 19.2207ZM9.77626 20.6671C9.8932 20.5265 10.1021 20.5071 10.2429 20.6243C10.3835 20.7413 10.4029 20.9501 10.2857 21.091L9.07461 22.544C8.93934 22.7068 8.69295 22.7001 8.56129 22.5393L7.90519 21.7521C7.78825 21.6115 7.80742 21.4026 7.94797 21.2854C8.08852 21.1685 8.2974 21.1876 8.41462 21.3282L8.81989 21.8146L9.77626 20.6671ZM10.3112 13.2842C9.63988 12.6128 8.55129 12.6128 7.87991 13.2842C7.20854 13.9556 7.20854 15.0442 7.87991 15.7155C8.55129 16.3869 9.63988 16.3869 10.3112 15.7155C10.9826 15.0442 10.9826 13.9556 10.3112 13.2842ZM9.09544 12.1153C10.4124 12.1153 11.4801 13.1831 11.4801 14.5C11.4801 15.8169 10.4124 16.8847 9.09544 16.8847C7.77853 16.8847 6.71077 15.8169 6.71077 14.5C6.71077 13.1831 7.77853 12.1153 9.09544 12.1153ZM9.77626 13.5617C9.8932 13.4211 10.1021 13.4017 10.2429 13.5189C10.3835 13.6359 10.4029 13.8447 10.2857 13.9856L9.07461 15.4386C8.93934 15.6014 8.69295 15.5947 8.56129 15.4339L7.90519 14.6464C7.78825 14.5058 7.80742 14.2969 7.94797 14.1797C8.08852 14.0628 8.2974 14.082 8.41462 14.2225L8.81989 14.7089L9.77626 13.5617ZM10.3112 6.1788C9.63988 5.50742 8.55129 5.50742 7.87991 6.1788C7.20854 6.85017 7.20854 7.93876 7.87991 8.61013C8.55129 9.28151 9.63988 9.28151 10.3112 8.61013C10.9826 7.93876 10.9826 6.85017 10.3112 6.1788ZM9.09544 5.00993C10.4124 5.00993 11.4801 6.07769 11.4801 7.3946C11.4801 8.71152 10.4124 9.77927 9.09544 9.77927C7.77853 9.77927 6.71077 8.71152 6.71077 7.3946C6.71077 6.07769 7.77853 5.00993 9.09544 5.00993ZM9.77626 6.45629C9.8932 6.31574 10.1021 6.29629 10.2429 6.41351C10.3835 6.53046 10.4029 6.73934 10.2857 6.88017L9.07461 8.33319C8.93934 8.49597 8.69295 8.4893 8.56129 8.32847L7.90519 7.54127C7.78825 7.40071 7.80742 7.19183 7.94797 7.07461C8.08852 6.95767 8.2974 6.97683 8.41462 7.11739L8.81989 7.60376L9.77626 6.45629ZM20.328 19.6057L20.3955 21.7635L21.6213 19.9882L20.328 19.6057ZM23.7412 7.62182L25.2768 8.07625L25.7587 6.44685C25.7859 6.35518 25.7406 6.25352 25.6545 6.22796L24.4307 5.86575C24.3418 5.83936 24.2498 5.90158 24.2234 5.9913L23.7412 7.62182ZM23.4507 8.60402L24.9862 9.05845L25.0884 8.71263L23.5529 8.25819L23.4507 8.60402ZM20.3946 18.9332L21.9302 19.3877L24.7979 9.69483L23.2624 9.2404C22.3065 12.4712 21.3504 15.7022 20.3946 18.9332ZM22.0035 5.75797L19.3816 3.13609V5.29437C19.3816 5.54853 19.5908 5.75797 19.8452 5.75797H22.0035ZM19.2866 2.1C19.6524 2.46582 23.0318 5.83241 23.079 5.89964C23.1179 5.95491 23.1393 6.02186 23.1393 6.09074V7.31766L23.5873 5.80325C23.719 5.35881 24.1898 5.0966 24.6184 5.22937L25.842 5.59131C26.2856 5.7227 26.5253 6.19574 26.3956 6.63406L23.139 17.641V25.7167C23.139 26.4239 22.5629 27 21.8557 27H5.2833C4.5761 27 4 26.4239 4 25.7167V3.2833C4 2.5761 4.5761 2 5.2833 2H19.0488C19.1388 2.00056 19.2233 2.03528 19.2863 2.09972L19.2866 2.1ZM12.5209 6.55129H17.4739C17.6575 6.55129 17.8066 6.4024 17.8066 6.21852C17.8066 6.03463 17.6578 5.88575 17.4739 5.88575H12.5209C12.3373 5.88575 12.1882 6.03463 12.1882 6.21852C12.1882 6.4024 12.337 6.55129 12.5209 6.55129ZM12.5209 8.90318H20.096C20.2796 8.90318 20.4288 8.75429 20.4288 8.57041C20.4288 8.38652 20.2799 8.23764 20.096 8.23764H12.5209C12.3373 8.23764 12.1882 8.38652 12.1882 8.57041C12.1882 8.75429 12.337 8.90318 12.5209 8.90318ZM12.5209 13.6567H18.9308C19.1144 13.6567 19.2635 13.5078 19.2635 13.3239C19.2635 13.14 19.1147 12.9911 18.9308 12.9911H12.5209C12.3373 12.9911 12.1882 13.14 12.1882 13.3239C12.1882 13.5078 12.337 13.6567 12.5209 13.6567ZM15.4264 16.0086C15.2428 16.0086 15.0936 15.8597 15.0936 15.6758C15.0936 15.4919 15.2425 15.343 15.4264 15.343H20.0958C20.2794 15.343 20.4285 15.4919 20.4285 15.6758C20.4285 15.8597 20.2796 16.0086 20.0958 16.0086H15.4264ZM12.5209 16.0086H14.037C14.2206 16.0086 14.3698 15.8597 14.3698 15.6758C14.3698 15.4919 14.2209 15.343 14.037 15.343H12.5209C12.3373 15.343 12.1882 15.4919 12.1882 15.6758C12.1882 15.8597 12.337 16.0086 12.5209 16.0086ZM17.4111 20.7621H18.2719C18.4555 20.7621 18.6047 20.6132 18.6047 20.4293C18.6047 20.2454 18.4558 20.0965 18.2719 20.0965H17.4111C17.2275 20.0965 17.0783 20.2454 17.0783 20.4293C17.0783 20.6132 17.2272 20.7621 17.4111 20.7621ZM12.5209 20.7621H15.9856C16.1692 20.7621 16.3183 20.6132 16.3183 20.4293C16.3183 20.2454 16.1695 20.0965 15.9856 20.0965H12.5209C12.3373 20.0965 12.1882 20.2454 12.1882 20.4293C12.1882 20.6132 12.337 20.7621 12.5209 20.7621ZM12.5209 23.114H20.096C20.2194 23.114 20.3269 23.047 20.3844 22.9473L22.4199 19.9993L22.474 19.8896V25.7161C22.474 26.0561 22.196 26.3339 21.8563 26.3339H5.2833C4.94331 26.3339 4.66554 26.0559 4.66554 25.7161V3.2833C4.66554 2.94331 4.94359 2.66554 5.2833 2.66554H18.7163V5.29409C18.7163 5.91575 19.2238 6.42296 19.8452 6.42296H22.4738V9.56594L19.6638 19.0632C19.6522 19.1032 19.6483 19.1435 19.6513 19.1827L19.7535 22.4482H12.5206C12.337 22.4482 12.1879 22.597 12.1879 22.7809C12.1879 22.9648 12.3368 23.1137 12.5206 23.1137L12.5209 23.114Z" fill="url(#paint0_linear_1774_176)"/>
<defs>
<linearGradient id="paint0_linear_1774_176" x1="4.00006" y1="14.5602" x2="26.4312" y2="14.5602" gradientUnits="userSpaceOnUse">
<stop stop-color="#1685FF"/>
<stop offset="0.5" stop-color="#8B5CF6"/>
<stop offset="1" stop-color="#D946EF"/>
</linearGradient>
</defs>
</svg>
