<svg width="65" height="65" viewBox="0 0 65 65" fill="none" xmlns="http://www.w3.org/2000/svg">
<g clip-path="url(#clip0_359_1296)">
<path fill-rule="evenodd" clip-rule="evenodd" d="M53.4182 35.1331C53.0077 38.4428 51.8342 41.5174 50.0793 44.1748C49.8137 44.5765 49.2721 44.6873 48.8702 44.422C48.4684 44.1567 48.3573 43.615 48.6229 43.2133C50.3431 40.6089 51.4541 37.568 51.7535 34.2938C51.8082 33.703 51.836 33.1048 51.836 32.5001C51.836 31.9352 51.8117 31.376 51.7639 30.8233C51.5009 27.7383 50.5167 24.8576 48.9813 22.3504C48.7296 21.9397 48.8589 21.4022 49.2695 21.1509C49.6809 20.8994 50.2181 21.0287 50.4698 21.4392C52.0339 23.9935 53.0728 26.9035 53.4364 30.0185C54.9614 30.2739 56.6218 30.221 58.4219 29.8584L58.4262 29.8574C59.2534 29.6955 59.8514 28.9703 59.8514 28.1271C59.8514 28.0875 59.8531 28.0484 59.8583 28.0102C59.9199 26.6809 61.017 25.622 62.3606 25.622H62.4283C63.8491 25.622 65 26.7736 65 28.1942V36.806C65 38.2265 63.8491 39.3781 62.4283 39.3781H62.286C61.642 39.3781 61.0231 39.1221 60.5674 38.6664C60.1118 38.2106 59.8557 37.5925 59.8557 36.948V36.6066C59.8557 35.969 59.3949 35.4245 58.7665 35.3186C56.8223 34.9877 55.0395 34.9234 53.4182 35.1331ZM53.5692 31.8025C53.5762 32.0342 53.5805 32.2666 53.5805 32.5001C53.5805 32.788 53.5745 33.0745 53.5632 33.3597C55.2426 33.183 57.074 33.2606 59.0564 33.5982C60.5258 33.8456 61.6003 35.1172 61.6003 36.6066V36.948C61.6003 37.1297 61.6732 37.3041 61.8017 37.4326C61.9301 37.5612 62.1046 37.6334 62.286 37.6334H62.4283C62.8848 37.6334 63.2555 37.2629 63.2555 36.806V28.1942C63.2555 27.7373 62.8848 27.3669 62.4283 27.3669H62.3606C61.9414 27.3669 61.6003 27.7071 61.6003 28.127C61.6003 28.1647 61.5985 28.2019 61.5942 28.239C61.5421 29.8676 60.3722 31.2531 58.7647 31.5692C56.9013 31.9442 55.1706 32.0167 53.5692 31.8025ZM29.7408 53.5619C26.4288 53.1537 23.3519 51.9812 20.6925 50.2267C20.2907 49.9615 20.1796 49.42 20.4443 49.0181C20.7099 48.6161 21.2515 48.5052 21.6534 48.7702C24.2598 50.4899 27.3028 51.6002 30.5801 51.8971C31.166 51.9503 31.7588 51.9774 32.3585 51.9774C32.9262 51.9774 33.4895 51.953 34.0449 51.9053C37.4082 51.6163 40.5285 50.471 43.1861 48.6888C43.5862 48.4205 44.1278 48.5275 44.3969 48.9274C44.6642 49.3272 44.5574 49.8696 44.1582 50.1378C41.4346 51.9638 38.2666 53.1764 34.8513 53.5769C34.5978 55.0988 34.6516 56.7548 35.0136 58.5495L35.0144 58.5554C35.1759 59.3819 35.9015 59.9794 36.7442 59.9794C36.7842 59.9794 36.8232 59.9818 36.8614 59.9877C38.1911 60.0479 39.25 61.1448 39.25 62.4897V62.557C39.25 63.9775 38.0982 65.1287 36.6774 65.1287H28.0657C26.6449 65.1287 25.494 63.9775 25.494 62.557V62.4141C25.494 61.7706 25.7492 61.1519 26.2057 60.6961C26.6614 60.2404 27.2793 59.9841 27.9234 59.9841H28.2653C28.9024 59.9841 29.4475 59.5236 29.5533 58.8943C29.8832 56.9567 29.9483 55.1794 29.7408 53.5619ZM33.0676 53.7104C32.8316 53.7182 32.5955 53.7221 32.3585 53.7221C32.0756 53.7221 31.7935 53.7166 31.5132 53.7056C31.6885 55.3809 31.6104 57.2082 31.2736 59.1848C31.0262 60.6536 29.7547 61.7293 28.2653 61.7293H27.9234C27.742 61.7293 27.5675 61.8013 27.439 61.93C27.3106 62.0587 27.2386 62.2335 27.2386 62.4141V62.557C27.2386 63.014 27.6092 63.3847 28.0657 63.3847H36.6774C37.1348 63.3847 37.5046 63.014 37.5046 62.557V62.4897C37.5046 62.0694 37.1643 61.7293 36.7442 61.7293C36.7069 61.7293 36.6696 61.7269 36.6323 61.7222C35.004 61.6714 33.6188 60.5013 33.3028 58.8931C32.9288 57.0346 32.855 55.3089 33.0676 53.7104ZM11.2745 34.9372C9.82941 34.7342 8.2654 34.802 6.57899 35.1418L6.57378 35.1427C5.74663 35.3046 5.14949 36.0298 5.14949 36.873C5.14949 36.9127 5.14688 36.9518 5.14168 36.99C5.08092 38.3192 3.98384 39.3781 2.6394 39.3781H2.57172C1.15177 39.3781 1.31597e-06 38.2265 1.31597e-06 36.806V28.1942C1.31597e-06 26.7736 1.15177 25.622 2.57172 25.622H2.71405C3.35893 25.622 3.97691 25.878 4.43258 26.3338C4.88824 26.7896 5.14428 27.4077 5.14428 28.0522V28.3935C5.14428 29.0311 5.60516 29.5757 6.23442 29.6816C8.06317 29.993 9.74958 30.0683 11.2936 29.9012C11.7181 26.4366 12.9783 23.229 14.8661 20.4863C15.1395 20.0897 15.6828 19.9895 16.0795 20.2625C16.4761 20.5354 16.5759 21.0791 16.3034 21.4757C14.4555 24.1598 13.263 27.3295 12.9583 30.7529C12.9071 31.3285 12.8811 31.9112 12.8811 32.5001C12.8811 33.0448 12.9037 33.5843 12.9471 34.1177C13.2222 37.459 14.3427 40.5623 16.0933 43.2133C16.3589 43.615 16.2478 44.1567 15.846 44.422C15.4441 44.6873 14.9025 44.5765 14.6378 44.1748C12.8481 41.465 11.6625 38.3216 11.2745 34.9372ZM11.1522 31.668C9.55168 31.8076 7.81493 31.7205 5.94365 31.402C4.4751 31.1546 3.39971 29.8829 3.39971 28.3935V28.0522C3.39971 27.8704 3.32769 27.696 3.19837 27.5676C3.06991 27.439 2.89632 27.3669 2.71405 27.3669H2.57172C2.11518 27.3669 1.74457 27.7373 1.74457 28.1942V36.806C1.74457 37.2629 2.11518 37.6334 2.57172 37.6334H2.6394C3.05948 37.6334 3.39971 37.293 3.39971 36.8731C3.39971 36.8355 3.40146 36.7983 3.40666 36.7612C3.45787 35.1326 4.62786 33.7471 6.23616 33.431C7.98853 33.0781 9.62458 32.9932 11.1461 33.1627C11.14 32.9426 11.1365 32.7218 11.1365 32.5001C11.1365 32.2214 11.1417 31.9441 11.1522 31.668ZM30.6973 13.0928C27.3757 13.3736 24.291 14.4897 21.6534 16.2299C21.2515 16.495 20.7099 16.384 20.4443 15.9821C20.1796 15.5802 20.2907 15.0387 20.6925 14.7736C23.3927 12.9922 26.5225 11.8108 29.8927 11.4201C30.1453 9.89918 30.0915 8.24411 29.7295 6.45018L29.7287 6.44534C29.5672 5.61786 28.8416 5.02075 27.9989 5.02075C27.959 5.02075 27.9199 5.01815 27.8817 5.01296C26.552 4.95203 25.494 3.85499 25.494 2.51069V2.4435C25.494 1.02293 26.6449 -0.128662 28.0657 -0.128662L36.6774 -0.128662C38.0982 -0.128662 39.25 1.02293 39.25 2.4435V2.58555C39.25 3.23001 38.9939 3.84814 38.5383 4.30391C38.0826 4.75969 37.4637 5.01567 36.8197 5.01567H36.4778C35.8407 5.01567 35.2956 5.47676 35.1897 6.10551C34.8599 8.04444 34.7948 9.82325 35.0031 11.4417C38.1251 11.8305 41.0371 12.8984 43.5871 14.4926C43.995 14.7478 44.1191 15.2865 43.864 15.6948C43.6088 16.103 43.0698 16.2272 42.6618 15.9721C40.1535 14.4036 37.2624 13.3906 34.163 13.1054C33.5684 13.0507 32.967 13.0228 32.3585 13.0228C31.7987 13.0228 31.245 13.0464 30.6973 13.0928ZM33.23 11.2957C33.0546 9.62004 33.1327 7.79282 33.4695 5.81493C33.7169 4.3463 34.9884 3.27098 36.4778 3.27098H36.8197C37.0011 3.27098 37.1756 3.19872 37.3041 3.07013C37.4325 2.94167 37.5046 2.76727 37.5046 2.58555V2.4435C37.5046 1.98655 37.1348 1.61603 36.6774 1.61603L28.0657 1.61603C27.6092 1.61603 27.2386 1.98655 27.2386 2.4435V2.51069C27.2386 2.93057 27.5788 3.27098 27.9989 3.27098C28.0362 3.27098 28.0735 3.27311 28.1108 3.27783C29.7391 3.3292 31.1243 4.49921 31.4411 6.1074C31.8143 7.96485 31.8872 9.69065 31.6763 11.2888C31.902 11.2817 32.1303 11.2781 32.3585 11.2781C32.6502 11.2781 32.9409 11.284 33.23 11.2957ZM51.803 46.3174C52.6978 45.5051 54.0822 45.5307 54.9458 46.3943L54.9866 46.4353C55.8988 47.3479 55.8988 48.8275 54.9866 49.7401L49.7399 54.9866C48.8277 55.8992 47.3479 55.8992 46.4356 54.9866L46.3489 54.9C45.934 54.4848 45.7005 53.9214 45.7005 53.3341C45.7005 52.7468 45.934 52.1836 46.3489 51.7683L46.5563 51.5602C46.9035 51.2136 46.9486 50.6664 46.6648 50.2668C45.4653 48.5752 44.1695 47.274 42.7686 46.3742C42.306 46.0773 42.0022 45.5866 41.9432 45.0399C41.885 44.4941 42.076 43.951 42.4631 43.5623C42.7912 43.2315 43.167 42.856 43.5011 42.5215C43.9013 42.1215 44.4646 41.9303 45.0261 42.0045C45.5868 42.0785 46.0815 42.4105 46.3645 42.9007C47.1526 44.2778 48.346 45.4962 49.9465 46.56L49.9499 46.5627C50.5054 46.936 51.2466 46.8641 51.7197 46.3912C51.7466 46.3646 51.7744 46.3399 51.803 46.3174ZM52.8766 47.6988C51.8125 48.6943 50.1964 48.8294 48.9787 48.012C47.1283 46.7817 45.7621 45.3611 44.8508 43.7687C44.8386 43.7498 44.8196 43.7371 44.797 43.7342C44.7744 43.7311 44.751 43.7389 44.7353 43.7553C44.4021 44.0883 44.028 44.4621 43.7016 44.7914L43.699 44.7938C43.6834 44.8094 43.6756 44.831 43.6782 44.8527C43.6808 44.8746 43.693 44.8942 43.7112 44.906C45.2813 45.9144 46.7429 47.3614 48.0865 49.2559C48.865 50.3494 48.7392 51.8449 47.7905 52.794L47.5822 53.002C47.4945 53.09 47.445 53.2095 47.445 53.3341C47.445 53.4588 47.4945 53.5782 47.5822 53.6664L47.669 53.7529C47.9007 53.9841 48.2748 53.9841 48.5066 53.7529L53.7533 48.5063C53.9841 48.2751 53.9841 47.9003 53.7533 47.6689L53.7116 47.6281C53.5033 47.4194 53.1648 47.4194 52.9565 47.6281C52.9313 47.6534 52.9044 47.677 52.8766 47.6988ZM18.4819 51.8034C19.2943 52.6979 19.2691 54.082 18.4055 54.9456L18.3639 54.9866C17.4517 55.8992 15.9718 55.8992 15.0596 54.9866L9.81293 49.7401C8.89986 48.8275 8.89986 47.3479 9.81293 46.4353L9.89973 46.3487C10.3146 45.9335 10.8779 45.7001 11.4655 45.7001C12.0531 45.7001 12.6155 45.9335 13.0312 46.3487L13.2396 46.5567C13.5859 46.9035 14.1327 46.9487 14.5328 46.6644C16.2244 45.4648 17.5254 44.1693 18.4255 42.7688C18.7223 42.3059 19.2127 42.0025 19.7595 41.9436C20.3054 41.8848 20.8488 42.0757 21.2367 42.4631C21.5683 42.7913 21.9432 43.1668 22.2783 43.5013C22.6784 43.9014 22.8694 44.4648 22.7947 45.0257C22.7209 45.5866 22.3894 46.0816 21.899 46.3641C20.5216 47.1522 19.303 48.3456 18.2397 49.9462L18.2372 49.9503C17.8631 50.5051 17.9351 51.2466 18.4081 51.7195C18.435 51.7462 18.4593 51.7742 18.4819 51.8034ZM17.101 52.8768C16.1055 51.8125 15.9701 50.1962 16.7877 48.9788C18.0176 47.1282 19.4384 45.762 21.0311 44.8506C21.0493 44.8389 21.0623 44.8193 21.0658 44.7972C21.0684 44.7743 21.0606 44.7513 21.0441 44.735C20.7108 44.402 20.3376 44.0282 20.0077 43.7015L20.006 43.699C19.9904 43.6835 19.9687 43.6759 19.947 43.6782C19.9253 43.6806 19.9053 43.6929 19.8932 43.7113C18.8846 45.2811 17.4378 46.743 15.5439 48.0863C14.4503 48.8646 12.9549 48.7394 12.0053 47.7904L11.7979 47.5825C11.7094 47.4943 11.5896 47.4448 11.4655 47.4448C11.3405 47.4448 11.2216 47.4943 11.1331 47.5825L11.0463 47.6691C10.8154 47.9002 10.8154 48.2751 11.0463 48.5063L16.293 53.7529C16.5247 53.9841 16.8997 53.9841 17.1305 53.7529L17.1713 53.7119C17.3805 53.5033 17.3805 53.165 17.1713 52.9564C17.1462 52.9311 17.1227 52.9047 17.101 52.8768ZM13.1528 18.6387C12.2579 19.4509 10.8744 19.4253 10.0108 18.5618L9.97004 18.5208C9.05696 17.6082 9.05696 16.1286 9.97004 15.216L15.2159 9.96954C16.1289 9.05694 17.6079 9.05694 18.521 9.96954L18.6078 10.056C19.0226 10.4714 19.2561 11.0346 19.2561 11.6219C19.2561 12.2092 19.0226 12.7725 18.6078 13.1878L18.3995 13.3958C18.0531 13.7425 18.0071 14.2896 18.2918 14.6892C19.4913 16.3809 20.7872 17.682 22.1872 18.5818C22.6498 18.8788 22.9535 19.3694 23.0125 19.9163C23.0716 20.462 22.8806 21.005 22.4927 21.3937C22.1646 21.7246 21.7896 22.1001 21.4546 22.4346C21.0545 22.8346 20.4912 23.0257 19.9305 22.9516C19.3698 22.8775 18.8742 22.5456 18.5921 22.0554C17.804 20.6783 16.6106 19.4599 15.0101 18.396L15.0058 18.3933C14.4512 18.0201 13.71 18.092 13.237 18.5648C13.21 18.5916 13.1823 18.6161 13.1528 18.6387ZM12.0791 17.2572C13.1441 16.2618 14.7602 16.1267 15.977 16.9441C17.8284 18.1744 19.1945 19.595 20.1058 21.1873C20.1171 21.2062 20.1371 21.219 20.1588 21.2219C20.1822 21.2249 20.2048 21.2171 20.2213 21.2008C20.5545 20.8678 20.9278 20.494 21.255 20.1647L21.2567 20.1622C21.2723 20.1467 21.2801 20.1251 21.2775 20.1033C21.2758 20.0816 21.2637 20.0618 21.2446 20.05C19.6753 19.0416 18.2129 17.5948 16.8702 15.7002C16.0916 14.6067 16.2166 13.1111 17.1661 12.1621L17.3735 11.954C17.4621 11.866 17.5116 11.7465 17.5116 11.6219C17.5116 11.4973 17.4621 11.3778 17.3735 11.2898L17.2868 11.2032C17.0559 10.972 16.6809 10.972 16.4501 11.2032L11.2034 16.4497C10.9716 16.681 10.9716 17.0559 11.2034 17.2871L11.2442 17.328C11.4533 17.5367 11.791 17.5367 12.0001 17.328C12.0253 17.3028 12.0513 17.2792 12.0791 17.2572ZM46.3176 12.9961C45.5052 12.1015 45.5304 10.7173 46.3949 9.85383L46.4356 9.81286C47.3479 8.90025 48.8277 8.90025 49.7399 9.81286L54.9866 15.0593C55.8988 15.9719 55.8988 17.4515 54.9866 18.3642L54.8998 18.4507C54.4849 18.866 53.9216 19.0993 53.334 19.0993C52.7473 19.0993 52.184 18.866 51.7683 18.4507L51.5608 18.2428C51.2137 17.896 50.6668 17.8506 50.2667 18.1351C48.5751 19.3346 47.2741 20.6302 46.374 22.0306C46.0772 22.4935 45.5868 22.797 45.04 22.8559C44.4941 22.9147 43.9507 22.7238 43.5619 22.3363C43.2312 22.0081 42.8563 21.6326 42.5212 21.2981C42.122 20.8981 41.9302 20.3346 42.0048 19.7737C42.0786 19.2129 42.4101 18.7178 42.9005 18.4354C44.2779 17.6472 45.4965 16.4538 46.5598 14.8533L46.5632 14.8491C46.9364 14.2943 46.8644 13.5528 46.3914 13.0799C46.3645 13.0532 46.3402 13.0251 46.3176 12.9961ZM47.6985 11.9226C48.694 12.987 48.8294 14.6032 48.0118 15.8207C46.7819 17.6713 45.3611 19.0374 43.7685 19.9488C43.7502 19.9605 43.7372 19.9801 43.7346 20.0022C43.7311 20.0251 43.739 20.0481 43.7555 20.0644C44.0879 20.3974 44.462 20.7712 44.7918 21.098L44.7944 21.1004C44.8091 21.1159 44.8308 21.1236 44.8525 21.1212C44.8742 21.1189 44.8942 21.1066 44.9063 21.0882C45.9149 19.5183 47.3617 18.0564 49.2556 16.7131C50.3492 15.9349 51.8446 16.06 52.7942 17.009L53.0016 17.2169C53.0901 17.3051 53.2099 17.3546 53.334 17.3546C53.459 17.3546 53.5779 17.3051 53.6665 17.2169L53.7533 17.1304C53.9841 16.8992 53.9841 16.5243 53.7533 16.2931L48.5066 11.0465C48.2748 10.8153 47.9007 10.8153 47.669 11.0465L47.6282 11.0875C47.4199 11.2961 47.4199 11.6344 47.6282 11.8431C47.6534 11.8683 47.6768 11.8947 47.6985 11.9226ZM20.6014 26.1129C20.624 26.1086 20.7386 26.0861 20.8123 26.0596C21.0154 25.9871 21.2446 25.8673 21.4919 25.7147C22.8129 24.8978 24.541 23.1951 25.3629 21.6457C26.2491 19.9752 27.2507 18.8892 28.4007 18.462C29.2435 18.1488 30.1835 18.1547 31.2588 18.5818C33.2377 19.3677 33.4235 21.3554 32.408 23.7319C31.1998 26.5572 28.353 29.9857 26.9157 31.5395C25.3031 33.283 23.9925 33.9824 22.7374 34.0298C21.8651 34.0627 20.9911 33.7858 20.0277 33.2276C19.27 32.7884 18.784 32.0097 18.5566 31.0916C18.2615 29.9003 18.409 28.4792 18.7727 27.537C18.9732 27.0172 19.2509 26.6276 19.5321 26.406C19.8671 26.1412 20.2326 26.0508 20.6014 26.1129ZM20.5719 27.8527C20.4929 28.0078 20.3185 28.3678 20.2516 28.6728C20.1249 29.2493 20.0945 29.9388 20.2239 30.5568C20.3245 31.04 20.5103 31.4908 20.9026 31.7179C21.5362 32.085 22.0977 32.308 22.6715 32.2862C23.5845 32.2518 24.462 31.6227 25.6346 30.3548C26.9825 28.8976 29.6705 25.6954 30.8032 23.046C31.0696 22.4238 31.2493 21.8397 31.2736 21.3262C31.2979 20.8181 31.1278 20.4069 30.6148 20.2033C28.9527 19.5433 27.9086 20.5698 26.9044 22.4633C25.9488 24.2646 23.9456 26.249 22.4093 27.1988C21.6985 27.638 21.0458 27.8454 20.5719 27.8527ZM47.6733 28.7482C48.0969 30.856 46.7073 33.3561 45.0339 34.7849C44.3344 35.3816 43.5914 35.7896 42.9335 35.9458C42.3546 36.0832 41.8225 36.0378 41.3773 35.8255C39.3177 34.8437 37.5124 33.9949 37.5046 31.0803C37.4976 28.1247 39.6701 24.7234 43.3414 25.3372C47.064 25.9597 47.6646 28.711 47.6646 28.711C47.6681 28.7233 47.6707 28.7357 47.6733 28.7482ZM45.9678 29.1199C45.9236 28.984 45.3742 27.4461 43.0533 27.0581C40.5727 26.6433 39.2448 29.0787 39.25 31.076C39.2552 33.1151 40.6873 33.5636 42.1281 34.2504C42.2921 34.329 42.4952 34.2713 42.7165 34.1925C43.1001 34.0557 43.5072 33.7941 43.9013 33.4577C45.1199 32.4172 46.2586 30.6579 45.9678 29.1199ZM34.7775 49.5322C34.7775 49.5322 33.8297 50.1188 32.6962 50.3213C31.3908 50.5544 29.8858 50.3176 29.0343 48.5518C28.4945 47.4336 28.3044 46.5898 28.1308 45.8842C27.9373 45.1013 27.7723 44.5448 26.7707 43.8912C25.632 43.1484 25.2675 41.6625 25.6329 40.1675C26.1441 38.0757 28.0423 36.1264 30.3796 36.6253C31.8083 36.9302 33.3272 38.3637 34.3999 40.3096C35.9483 43.1203 36.5524 46.9129 35.0544 49.2594C34.9841 49.3701 34.8894 49.4633 34.7775 49.5322ZM33.6891 48.1436C34.0632 47.466 34.2055 46.6466 34.1916 45.7826C34.1673 44.2355 33.6413 42.5493 32.8715 41.1516C32.0825 39.7194 31.067 38.556 30.016 38.3316C28.6325 38.0363 27.63 39.3436 27.328 40.5817C27.1509 41.3075 27.1708 42.0693 27.7237 42.4299C29.0256 43.2792 29.4162 44.0275 29.6896 44.9565C29.9005 45.6759 30.003 46.5453 30.6053 47.7937C31.0158 48.6442 31.7605 48.716 32.3898 48.6036C32.9461 48.5043 33.44 48.2744 33.6891 48.1436ZM32.1528 33.0357C31.6885 32.9805 31.3474 32.5663 31.3864 32.0967C31.4264 31.617 31.849 31.2599 32.3282 31.3001C32.3759 31.3041 32.5851 31.3462 32.6293 31.3635C33.0746 31.5391 33.1579 31.8932 33.1779 32.0817C33.1996 32.2795 33.164 32.4865 33.0173 32.6886C32.9565 32.7718 32.848 32.9089 32.6102 32.9961C32.4583 33.0521 32.3012 33.063 32.1528 33.0357ZM31.8664 32.9292C31.6989 32.8306 31.5626 32.6755 31.4906 32.4788C31.4802 32.4512 31.4715 32.4234 31.4646 32.3957C31.5036 32.5645 31.6025 32.7828 31.8664 32.9292ZM39.3298 42.2126C39.0356 42.5192 38.5522 42.5724 38.1954 42.3192C37.8031 42.0405 37.7102 41.4955 37.9897 41.1029C38.0375 41.0352 38.2371 40.8501 38.277 40.821C38.8993 40.3667 39.4314 40.9276 39.4643 40.9672C39.605 41.136 39.7716 41.4206 39.605 41.8439C39.5459 41.9947 39.4487 42.1198 39.3298 42.2126ZM38.1225 42.0817C37.9255 41.845 37.8613 41.5113 37.9811 41.2052C37.8153 41.6284 37.9819 41.913 38.1225 42.0817ZM39.2882 42.2429C39.079 42.3867 38.8108 42.4371 38.5539 42.3633C38.7561 42.4311 39.0121 42.4362 39.2882 42.2429ZM19.5729 37.6046C19.7057 37.5902 19.8437 37.606 19.9765 37.6568C20.2568 37.7633 20.3584 37.9212 20.4001 37.9812C20.5728 38.2269 20.5832 38.4633 20.5398 38.6664C20.4964 38.8717 20.3697 39.2129 19.8958 39.3325C19.8333 39.3485 19.4106 39.3406 19.2466 39.3248C18.7675 39.2785 18.4159 38.8517 18.4628 38.3726C18.5088 37.8933 18.9358 37.5418 19.4149 37.5881C19.4453 37.591 19.5139 37.5982 19.5729 37.6046ZM16.569 29.415C16.5585 29.442 16.549 29.4666 16.5464 29.474C16.3728 29.9232 15.8668 30.1469 15.4181 29.9735C14.9685 29.8 14.7454 29.2947 14.9182 28.8455C14.9529 28.7564 15.136 28.3439 15.2931 28.1902C15.55 27.939 15.8434 27.8837 16.102 27.925C16.5777 28.0009 16.9014 28.4485 16.8259 28.924C16.7946 29.1187 16.7009 29.2881 16.569 29.415ZM31.521 15.0754C31.5782 15.1179 31.8629 15.3322 31.948 15.4121C32.0921 15.5482 32.1676 15.6862 32.2066 15.7844C32.3325 16.1068 32.2726 16.3812 32.1216 16.6092C32.0252 16.7555 31.8421 16.9768 31.4229 17.0169C31.0453 17.053 30.7008 16.8423 30.5489 16.5169C30.3788 16.3733 30.1531 16.1725 30.0845 16.0612C29.832 15.6512 29.9604 15.1134 30.3701 14.8611C30.7554 14.6241 31.2528 14.7227 31.521 15.0754ZM39.1788 20.7238C39.3333 21.0869 39.2248 21.5219 38.8933 21.7663C38.5062 22.0523 37.9594 21.97 37.6738 21.5825C37.5271 21.3836 37.4334 21.1104 37.4273 20.791C37.4221 20.4698 37.5262 20.0626 37.5636 19.8392C37.6426 19.3643 38.0921 19.0429 38.5678 19.1221C39.0425 19.2012 39.3637 19.6511 39.2847 20.126C39.2639 20.2506 39.1996 20.6077 39.1788 20.7238ZM47.0232 35.9177C47.0918 35.8403 47.4147 35.4756 47.5154 35.3755C47.8556 35.0351 48.4085 35.0351 48.7487 35.3755C49.0889 35.716 49.0889 36.2688 48.7487 36.6092C48.6376 36.7206 48.4284 36.9905 48.2453 37.1662C48.0561 37.3478 47.8617 37.4628 47.7176 37.5122C47.2628 37.6686 46.7655 37.426 46.6092 36.9706C46.4686 36.56 46.6518 36.1158 47.0232 35.9177ZM26.5451 48.0402C26.927 48.2585 27.0901 48.7345 26.9105 49.1463C26.7178 49.5874 26.2031 49.7891 25.7613 49.5962C25.4845 49.4749 25.2449 49.2249 25.0731 48.9855C24.7927 48.5939 24.8838 48.0486 25.2753 47.7684C25.6667 47.4883 26.2118 47.5787 26.4921 47.9703C26.5051 47.9887 26.5295 48.0199 26.5451 48.0402ZM49.5394 25.8296C49.5698 26.249 49.2929 26.641 48.8702 26.7411C48.4015 26.8522 47.9311 26.5619 47.82 26.0934C47.7766 25.9094 47.7454 25.5922 47.7957 25.4207C47.9068 25.0388 48.1542 24.7621 48.6723 24.7508C49.154 24.7401 49.5533 25.1222 49.5637 25.6036C49.5654 25.6815 49.5568 25.7572 49.5394 25.8296Z" fill="url(#paint0_linear_359_1296)"/>
</g>
<defs>
<linearGradient id="paint0_linear_359_1296" x1="32.3434" y1="-0.128484" x2="32.3434" y2="65.1301" gradientUnits="userSpaceOnUse">
<stop stop-color="#1685FF"/>
<stop offset="0.5" stop-color="#8B5CF6"/>
<stop offset="1" stop-color="#D946EF"/>
</linearGradient>
<clipPath id="clip0_359_1296">
<rect width="65" height="65" fill="white"/>
</clipPath>
</defs>
</svg>
