<?xml version="1.0" encoding="UTF-8" standalone="no"?><!DOCTYPE svg PUBLIC "-//W3C//DTD SVG 1.1//EN" "http://www.w3.org/Graphics/SVG/1.1/DTD/svg11.dtd"><svg width="100%" height="100%" viewBox="0 0 79 79" version="1.1" xmlns="http://www.w3.org/2000/svg" xmlns:xlink="http://www.w3.org/1999/xlink" xml:space="preserve" xmlns:serif="http://www.serif.com/" style="fill-rule:evenodd;clip-rule:evenodd;stroke-linejoin:round;stroke-miterlimit:2;"><g><path d="M76.345,30.719l-15.914,-0l-0,-19.328c-0,-1.161 -0.97,-2.11 -2.167,-2.11l-7.875,0l0,-7.648c0,-0.899 -0.746,-1.629 -1.664,-1.629l-18.955,-0.004c-0.917,-0 -1.663,0.73 -1.663,1.629l-0,7.648l-7.876,0c-1.197,0 -2.166,0.95 -2.166,2.11l-0,19.328l-15.911,0.004c-1.185,-0 -2.154,0.949 -2.154,2.109l0,43.52c0,1.16 0.969,2.109 2.154,2.109l74.192,0c1.185,0 2.154,-0.949 2.154,-2.109l0,-43.516c0,-1.172 -0.969,-2.113 -2.154,-2.113l-0.001,-0Zm-58.276,44.473l-14.742,-0l-0,-41.211l14.738,-0l0.004,41.211Zm32.017,-0l-22.183,-0l0,-32.66l22.183,-0l-0,32.66Zm7.017,-0l-3.678,-0l-0,-33.871c-0,-1.129 -0.942,-2.051 -2.095,-2.051l-24.663,-0c-1.153,-0 -2.094,0.922 -2.094,2.051l-0,33.871l-3.176,-0l-0,-62.652l6.71,-0l0,7.648c0,0.898 0.746,1.629 1.664,1.629l18.955,-0c0.918,-0 1.664,-0.731 1.664,-1.629l-0,-7.648l6.71,-0l0.003,62.652Zm18.069,-0l-14.742,-0l-0,-41.211l14.738,-0l0.004,41.211Zm-68.493,-0.852l7.64,-0c0.917,-0 1.664,-0.731 1.664,-1.629l-0,-7.481c-0,-0.898 -0.747,-1.629 -1.664,-1.629l-7.64,0c-0.918,0 -1.664,0.731 -1.664,1.629l0,7.481c0,0.898 0.746,1.629 1.664,1.629Zm56.992,-0l7.64,-0c0.917,-0 1.663,-0.731 1.663,-1.629l0,-7.481c0,-0.898 -0.746,-1.629 -1.663,-1.629l-7.64,0c-0.918,0 -1.664,0.731 -1.664,1.629l-0,7.481c-0,0.898 0.746,1.629 1.664,1.629Zm-55.329,-7.481l4.309,0l0,4.219l-4.309,-0l0,-4.219Zm57.004,0l4.309,0l-0,4.219l-4.309,-0l0,-4.219Zm-58.667,-6.898l7.64,-0c0.917,-0 1.664,-0.731 1.664,-1.629l-0,-7.481c-0,-0.898 -0.747,-1.629 -1.664,-1.629l-7.64,0c-0.918,0 -1.664,0.731 -1.664,1.629l0,7.481c0,0.886 0.746,1.629 1.664,1.629Zm56.992,-0l7.64,-0c0.917,-0 1.663,-0.731 1.663,-1.629l0,-7.481c0,-0.898 -0.746,-1.629 -1.663,-1.629l-7.64,0c-0.918,0 -1.664,0.731 -1.664,1.629l-0,7.481c-0,0.886 0.746,1.629 1.664,1.629Zm-55.329,-7.481l4.309,0l0,4.219l-4.309,-0l0,-4.219Zm57.004,0l4.309,0l-0,4.219l-4.309,-0l0,-4.219Zm-58.667,-6.909l7.64,-0c0.917,-0 1.664,-0.731 1.664,-1.629l-0,-7.481c-0,-0.898 -0.747,-1.629 -1.664,-1.629l-7.64,0c-0.918,0 -1.664,0.731 -1.664,1.629l0,7.481c0,0.898 0.746,1.629 1.664,1.629Zm56.992,-0l7.64,-0c0.917,-0 1.663,-0.731 1.663,-1.629l0,-7.481c0,-0.898 -0.746,-1.629 -1.663,-1.629l-7.64,0c-0.918,0 -1.664,0.731 -1.664,1.629l-0,7.481c-0,0.898 0.746,1.629 1.664,1.629Zm-55.329,-7.481l4.309,0l0,4.219l-4.309,-0l0,-4.219Zm57.004,0l4.309,0l-0,4.219l-4.309,-0l0,-4.219Zm-24.543,-11.289l-0,7.48c-0,0.899 0.746,1.629 1.663,1.629l11.459,0c0.917,0 1.663,-0.73 1.663,-1.629l0,-7.48c0,-0.899 -0.746,-1.629 -1.663,-1.629l-11.459,-0c-0.917,-0 -1.663,0.73 -1.663,1.629Zm-4.746,-1.629l-0.022,-0l-11.462,-0c-0.918,-0 -1.664,0.73 -1.664,1.629l-0,7.48c-0,0.898 0.746,1.629 1.664,1.629l11.458,-0c0.918,-0 1.664,-0.731 1.664,-1.629l-0,-7.48c0.004,-0.892 -0.731,-1.618 -1.638,-1.629Zm8.077,3.269l8.131,0l-0,4.219l-8.131,0l0,-4.219Zm-9.767,4.211l-8.13,0l-0,-4.219l8.13,0l0,4.219Zm-2.929,-29.382l15.615,-0l0,15.289l-15.615,-0l0,-15.289Zm13.369,6.012l-3.889,-0l-0,-3.809c-0,-0.898 -0.747,-1.629 -1.664,-1.629c-0.918,0 -1.664,0.731 -1.664,1.629l0,3.809l-3.89,-0c-0.917,-0 -1.663,0.73 -1.663,1.629c-0,0.898 0.746,1.628 1.663,1.628l3.89,0l0,3.809c0,0.898 0.746,1.629 1.664,1.629c0.917,-0 1.664,-0.731 1.664,-1.629l-0,-3.809l3.889,0c0.918,0 1.664,-0.73 1.664,-1.628c0,-0.899 -0.746,-1.629 -1.664,-1.629Z" style="fill:url(#_Linear1);fill-rule:nonzero;"/></g><defs><linearGradient id="_Linear1" x1="0" y1="0" x2="1" y2="0" gradientUnits="userSpaceOnUse" gradientTransform="matrix(78.5003,0,0,78.451,-1.06581e-14,39.4176)"><stop offset="0" style="stop-color:#1685ff;stop-opacity:1"/><stop offset="0.5" style="stop-color:#8b5cf6;stop-opacity:1"/><stop offset="1" style="stop-color:#d946ef;stop-opacity:1"/></linearGradient></defs></svg>