<svg width="51" height="51" viewBox="0 0 51 51" fill="none" xmlns="http://www.w3.org/2000/svg">
<path d="M25.3749 7.27387C35.4879 7.27387 43.7166 15.4552 43.7166 25.5874C43.7166 35.7196 35.4879 43.9638 25.3749 43.9638C15.2618 43.9638 7.09598 35.7196 7.09598 25.5874C7.09598 15.4552 15.2618 7.27387 25.3749 7.27387ZM13.6286 36.3489H37.1211C37.8121 35.5937 38.4402 34.8385 38.9427 33.9574H11.807C12.3724 34.8385 12.9377 35.5937 13.6286 36.3489ZM34.4201 38.7403H16.3925C21.7945 42.4534 29.0181 42.4534 34.4201 38.7403ZM34.4201 12.4344C29.0181 8.72132 21.7945 8.72132 16.3925 12.4344H34.4201ZM13.6286 14.8258C12.9377 15.581 12.3724 16.3991 11.807 17.2173H38.9427C38.4402 16.3991 37.8121 15.581 37.1211 14.8258H13.6286ZM10.6136 19.6087C10.2995 20.4269 10.0482 21.1821 9.8598 22.0002H40.89C40.7015 21.1821 40.4503 20.4269 40.1362 19.6087H10.6136ZM9.54573 24.3916C9.48292 24.8322 9.48292 25.2098 9.48292 25.5874C9.48292 26.0279 9.48292 26.4055 9.54573 26.7831H41.2668C41.2668 26.4055 41.3297 26.0279 41.3297 25.5874C41.3297 25.2098 41.2668 24.8322 41.2668 24.3916H9.54573ZM9.8598 29.1745C10.0482 29.9927 10.2995 30.8108 10.6136 31.566H40.1362C40.4503 30.8108 40.7015 29.9927 40.89 29.1745H9.8598ZM4.33216 0.540039H46.4176C48.6161 0.540039 50.3749 2.36509 50.3749 4.50482V46.6699C50.3749 48.8726 48.6161 50.6347 46.4176 50.6347H4.33216C2.19649 50.6347 0.374878 48.8726 0.374878 46.6699V4.50482C0.374878 2.36509 2.19649 0.540039 4.33216 0.540039ZM46.4176 2.93149H4.33216C3.45277 2.93149 2.76181 3.62375 2.76181 4.50482V46.6699C2.76181 47.551 3.45277 48.2432 4.33216 48.2432H46.4176C47.297 48.2432 47.9879 47.551 47.9879 46.6699V4.50482C47.9879 3.62375 47.297 2.93149 46.4176 2.93149Z" fill="url(#paint0_linear_599_61)"/>
<defs>
<linearGradient id="paint0_linear_599_61" x1="0.375099" y1="25.708" x2="50.376" y2="25.708" gradientUnits="userSpaceOnUse">
<stop stop-color="#1685FF"/>
<stop offset="0.5" stop-color="#8B5CF6"/>
<stop offset="1" stop-color="#D946EF"/>
</linearGradient>
</defs>
</svg>
