<svg width="40" height="40" viewBox="0 0 40 40" fill="none" xmlns="http://www.w3.org/2000/svg">
<path d="M37.6091 2.97426H27.5385C27.2919 2.55763 26.9943 2.16819 26.6457 1.81278C25.4996 0.644515 23.9674 0 22.3297 0C20.6615 0 19.109 0.664889 17.9577 1.8706C17.6329 2.2107 17.354 2.58141 17.121 2.97426H2.39095C1.07136 2.97426 0 4.04728 0 5.36521V29.6896C0 31.0092 1.07302 32.0806 2.39095 32.0806H14.805L12.778 36.2044H10.098C9.05216 36.2044 8.20017 37.0563 8.20017 38.1022C8.20017 39.148 9.05212 40 10.098 40H29.9023C30.9481 40 31.8001 39.148 31.8001 38.1022C31.8001 37.0563 30.9481 36.2044 29.9023 36.2044H27.2223L25.1953 32.0806H37.6093C38.9289 32.0806 40.0003 31.0076 40.0003 29.6896V5.36696C40.0003 4.04736 38.9271 2.97426 37.6091 2.97426ZM11.6762 20.5597H12.018C12.4907 20.5597 12.8835 20.8215 13.0638 21.2586C13.2457 21.6956 13.1539 22.1582 12.8189 22.4932L12.5774 22.7346C12.1472 23.1649 12.1472 23.8655 12.5774 24.2957L14.0909 25.8092C14.5211 26.2394 15.2218 26.2394 15.652 25.8092L15.8935 25.5677C16.2285 25.2327 16.6893 25.1409 17.1263 25.3229C17.5634 25.5048 17.8253 25.8942 17.8253 26.3687V26.7105C17.8253 27.3192 18.3201 27.8141 18.9289 27.8141H21.0682C21.677 27.8141 22.1719 27.3193 22.1719 26.7105V26.3687C22.1719 25.8959 22.4338 25.5031 22.8708 25.3229C23.3078 25.1409 23.7687 25.2327 24.1037 25.5677L24.3452 25.8092C24.5543 26.0184 24.8315 26.1323 25.1257 26.1323C25.4216 26.1323 25.6988 26.0184 25.9063 25.8092L27.4181 24.2974C27.6272 24.0883 27.7412 23.8111 27.7412 23.5169C27.7412 23.221 27.6272 22.9438 27.4181 22.7363L27.1766 22.4948C26.8416 22.1598 26.7498 21.699 26.9317 21.2603C27.1137 20.8232 27.5048 20.5613 27.9775 20.5613H28.3193C28.9281 20.5613 29.423 20.0665 29.423 19.4577V18.2078C31.5044 17.599 32.9703 15.6808 32.9703 13.4752C32.9703 12.0128 32.3122 10.6268 31.1915 9.68985C31.3412 8.75457 31.1133 7.80227 30.5436 7.02511C30.411 6.84485 30.2648 6.6799 30.1049 6.52856H36.4412V28.53H3.55288V6.52856H13.5199C12.9604 7.05232 12.5676 7.75465 12.4367 8.54199H11.9571C9.23793 8.54199 7.0256 10.7544 7.0256 13.4735C7.0256 15.6791 8.49146 17.5973 10.5729 18.206V19.4559C10.5729 20.0647 11.0673 20.5597 11.6762 20.5597ZM13.6505 13.448L13.46 13.2576L14.8715 11.8461L15.0619 12.0366C15.7354 12.71 16.6995 12.9004 17.5787 12.5365C18.4579 12.1726 19.0037 11.3547 19.0037 10.4041V10.1354H20.9984V10.4041C20.9984 11.3564 21.5443 12.1726 22.4235 12.5365C23.3026 12.9004 24.2669 12.7083 24.9402 12.0366L25.1307 11.8461L26.5421 13.2576L26.3517 13.448C25.6783 14.1214 25.4878 15.0856 25.8517 15.9648C26.2157 16.8439 27.0336 17.3898 27.9842 17.3898H28.2529V19.3845H27.9842C27.0319 19.3845 26.2156 19.9304 25.8517 20.8096C25.4878 21.6887 25.68 22.6529 26.3517 23.3263L26.5421 23.5168L25.1307 24.9282L24.9402 24.7378C24.2668 24.0643 23.3026 23.8739 22.4235 24.2378C21.5443 24.6017 20.9984 25.4197 20.9984 26.3703V26.639H19.0037V26.3703C19.0037 25.418 18.4579 24.6017 17.5787 24.2378C16.6995 23.8739 15.7353 24.0661 15.0619 24.7378L14.8715 24.9282L13.46 23.5168L13.6505 23.3263C14.3239 22.6529 14.5144 21.6887 14.1504 20.8096C13.7865 19.9304 12.9686 19.3845 12.018 19.3845H11.7493V17.3898H12.018C12.9703 17.3898 13.7865 16.8439 14.1504 15.9648C14.516 15.0839 14.3239 14.1197 13.6505 13.448ZM18.8101 2.68346C19.7369 1.71244 20.9885 1.1768 22.3302 1.1768C23.6481 1.1768 24.8827 1.69546 25.8061 2.63587C26.7295 3.57799 27.2243 4.82444 27.1988 6.14407C27.192 6.46548 27.4454 6.73248 27.7651 6.74266C28.498 6.76987 29.1664 7.12358 29.5999 7.71538C30.037 8.31057 30.173 9.05878 29.9775 9.7679C29.9111 10.0077 30.0013 10.2611 30.2036 10.4056C31.2019 11.113 31.7988 12.2592 31.7988 13.4717C31.7988 15.0514 30.8125 16.4357 29.3772 16.9816C29.2361 16.5343 28.8177 16.2095 28.3246 16.2095H27.9827C27.51 16.2095 27.1172 15.9476 26.9369 15.5106C26.755 15.0736 26.8468 14.611 27.1818 14.276L27.4233 14.0345C27.6325 13.8254 27.7464 13.5482 27.7464 13.254C27.7464 12.9581 27.6325 12.6809 27.4233 12.4734L25.9115 10.9616C25.7023 10.7525 25.4251 10.6385 25.1309 10.6385C24.835 10.6385 24.5579 10.7525 24.3504 10.9616L24.1089 11.2031C23.7739 11.5381 23.3131 11.63 22.8743 11.448C22.4373 11.266 22.1754 10.8766 22.1754 10.4022V10.0604C22.1754 9.4516 21.6806 8.95671 21.0717 8.95671H18.9325C18.3237 8.95671 17.8288 9.45156 17.8288 10.0604V10.4022C17.8288 10.8749 17.5669 11.2678 17.1299 11.448C16.6928 11.63 16.2303 11.5381 15.8953 11.2031L15.6538 10.9616C15.2236 10.5314 14.5229 10.5314 14.0927 10.9616L12.5809 12.4734C12.3718 12.6826 12.2578 12.9598 12.2578 13.254C12.2578 13.5499 12.3718 13.8271 12.5809 14.0345L12.8224 14.276C13.1574 14.611 13.2493 15.0719 13.0673 15.5106C12.8853 15.9476 12.4959 16.2095 12.0215 16.2095H11.6797C11.1865 16.2095 10.7682 16.5343 10.627 16.9816C9.19178 16.4357 8.20548 15.0514 8.20548 13.4717C8.20548 11.4004 9.89071 9.71688 11.9603 9.71688H12.9806C13.3054 9.71688 13.569 9.4533 13.569 9.12848C13.569 7.81228 14.6403 6.74092 15.9566 6.74092C16.2099 6.74092 16.4599 6.78173 16.7014 6.85996C16.885 6.92118 17.0857 6.88547 17.2404 6.76813C17.3935 6.65079 17.4802 6.46544 17.4717 6.27328C17.4054 4.93158 17.8816 3.65617 18.8101 2.68346ZM30.6238 38.1037C30.6238 38.5016 30.3007 38.8247 29.9028 38.8247H10.0985C9.70057 38.8247 9.37749 38.5016 9.37749 38.1037C9.37749 37.7058 9.70059 37.3827 10.0985 37.3827H29.9028C30.3007 37.3827 30.6238 37.7058 30.6238 38.1037ZM25.9117 36.2059H14.0897L16.1168 32.0821H23.8832L25.9117 36.2059ZM38.8238 29.6911C38.8238 30.3611 38.2779 30.907 37.6079 30.907L2.39139 30.9053C1.72136 30.9053 1.1755 30.3594 1.1755 29.6894L1.1772 5.36674C1.1772 4.69671 1.72306 4.15084 2.39309 4.15084H16.5872C16.4597 4.53856 16.3713 4.93989 16.3236 5.35141H2.96579C2.64099 5.35141 2.37739 5.615 2.37739 5.93981V29.1162C2.37739 29.441 2.64097 29.7046 2.96579 29.7046H37.0361C37.3609 29.7046 37.6245 29.4411 37.6245 29.1162L37.6228 5.93981C37.6228 5.61501 37.3592 5.35141 37.0344 5.35141H28.3364C28.2904 4.93988 28.2003 4.53855 28.0728 4.15084H37.6075C38.2775 4.15084 38.8234 4.69671 38.8234 5.36674L38.8238 29.6911ZM20.0007 23.343C22.7335 23.343 24.9579 21.1187 24.9579 18.3859C24.9579 15.6531 22.7336 13.4287 20.0007 13.4287C17.2679 13.4287 15.0436 15.653 15.0436 18.3859C15.0436 21.1186 17.2679 23.343 20.0007 23.343ZM20.0007 14.6058C22.0856 14.6058 23.781 16.3013 23.781 18.3861C23.781 20.471 22.0856 22.1664 20.0007 22.1664C17.9159 22.1664 16.2205 20.471 16.2205 18.3861C16.2205 16.3013 17.9159 14.6058 20.0007 14.6058ZM16.9772 18.4439C16.6966 18.279 16.6031 17.9185 16.768 17.6379C17.4398 16.4968 18.6777 15.7877 20.0008 15.7877C21.3238 15.7877 22.5618 16.4968 23.2335 17.6379C23.3984 17.9185 23.3049 18.279 23.0243 18.4439C22.9308 18.4984 22.8287 18.5256 22.7267 18.5256C22.5244 18.5256 22.3288 18.4218 22.2199 18.2348C21.7591 17.4508 20.9088 16.9645 20.0024 16.9645C19.0944 16.9645 18.2458 17.4508 17.7832 18.2348C17.6183 18.5154 17.2578 18.6089 16.9772 18.4439ZM21.6331 18.8351C21.8202 19.1003 21.7573 19.4676 21.492 19.6547C21.2267 19.8418 20.8594 19.7788 20.6723 19.5136C20.5176 19.2942 20.2676 19.165 20.0006 19.165C19.7098 19.165 19.4394 19.3197 19.2915 19.5714C19.1809 19.7584 18.9854 19.8622 18.783 19.8622C18.681 19.8622 18.5789 19.8367 18.4854 19.7805C18.2048 19.6156 18.1113 19.2551 18.2763 18.9745C18.6334 18.3657 19.2932 17.9882 19.9989 17.9882C20.6485 17.9882 21.259 18.3045 21.6331 18.8351ZM20.0006 19.7261C19.4547 19.7261 19.0126 20.17 19.0126 20.7141C19.0126 21.26 19.4564 21.7021 20.0006 21.7021C20.5465 21.7021 20.9886 21.2583 20.9886 20.7141C20.9886 20.17 20.5465 19.7261 20.0006 19.7261ZM20.0006 20.9029C19.8969 20.9029 19.8136 20.8179 19.8136 20.7158C19.8136 20.6121 19.8986 20.5288 20.0006 20.5288C20.1043 20.5288 20.1877 20.6138 20.1877 20.7158C20.1877 20.8179 20.1043 20.9029 20.0006 20.9029Z" fill="url(#paint0_linear_1351_133)"/>
<defs>
<linearGradient id="paint0_linear_1351_133" x1="0.000109107" y1="20.0963" x2="40.0011" y2="20.0963" gradientUnits="userSpaceOnUse">
<stop stop-color="#1685FF"/>
<stop offset="0.5" stop-color="#8B5CF6"/>
<stop offset="1" stop-color="#D946EF"/>
</linearGradient>
</defs>
</svg>
