<?xml version="1.0" encoding="UTF-8" standalone="no"?><!DOCTYPE svg PUBLIC "-//W3C//DTD SVG 1.1//EN" "http://www.w3.org/Graphics/SVG/1.1/DTD/svg11.dtd"><svg width="100%" height="100%" viewBox="0 0 64 64" version="1.1" xmlns="http://www.w3.org/2000/svg" xmlns:xlink="http://www.w3.org/1999/xlink" xml:space="preserve" xmlns:serif="http://www.serif.com/" style="fill-rule:evenodd;clip-rule:evenodd;stroke-linejoin:round;stroke-miterlimit:2;"><rect id="Artboard1" x="0" y="0" width="64" height="64" style="fill:none;"/><clipPath id="_clip1"><rect x="0" y="0" width="64" height="64"/></clipPath><g clip-path="url(#_clip1)"><g><path d="M57.099,25.116c0,-0.006 0,-0.011 0,-0.017c0,-13.769 -11.33,-25.099 -25.099,-25.099c-13.769,0 -25.099,11.33 -25.099,25.099c-0,3.991 0.952,7.926 2.776,11.475c-1.176,1.185 -1.174,3.127 0.006,4.309l2.169,2.17c-0.836,1.061 -1.294,2.372 -1.299,3.722l-0,6.495c0.004,1.83 0.961,3.53 2.521,4.485l0,2.842c0.002,1.866 1.537,3.401 3.403,3.403l2.107,0c1.865,-0.002 3.4,-1.537 3.402,-3.403l0,-2.041l20.028,-0l-0,2.041c0.002,1.866 1.537,3.401 3.402,3.403l2.107,0c1.866,-0.002 3.401,-1.537 3.403,-3.403l-0,-2.842c1.56,-0.955 2.517,-2.655 2.521,-4.485l0,-6.495c-0.005,-1.35 -0.463,-2.661 -1.299,-3.722l2.169,-2.17c1.18,-1.182 1.182,-3.124 0.005,-4.309c1.822,-3.545 2.774,-7.473 2.777,-11.458Zm-37.395,35.481c-0,0.615 -0.506,1.121 -1.12,1.121l-2.107,0c-0.615,-0 -1.12,-0.506 -1.121,-1.121l-0,-2.09c0.161,0.015 0.317,0.049 0.482,0.049l3.866,-0l0,2.041Zm28.94,0c-0.001,0.615 -0.506,1.121 -1.121,1.121l-2.107,0c-0.614,-0 -1.12,-0.506 -1.12,-1.121l-0,-2.041l3.866,-0c0.165,-0 0.321,-0.034 0.482,-0.049l0,2.09Zm2.468,-14.344l-6.012,-0c-2.601,0.003 -4.741,2.142 -4.744,4.743l0,0.788c0.001,0.945 0.779,1.722 1.724,1.723l9.061,0c-0.119,1.55 -1.425,2.762 -2.979,2.767l-32.324,0c-1.554,-0.005 -2.86,-1.217 -2.979,-2.767l9.061,0c0.945,-0.001 1.723,-0.778 1.724,-1.723l-0,-0.788c-0.003,-2.601 -2.143,-4.74 -4.744,-4.743l-6.013,-0c0.257,-1.883 1.88,-3.304 3.78,-3.309l30.666,-0c1.9,0.005 3.523,1.426 3.779,3.309Zm-14.205,0.725l-9.814,-0c-1.116,0.001 -2.034,0.92 -2.035,2.036l-0,2.353c0.001,1.117 0.919,2.035 2.035,2.036l9.814,0c1.116,-0.001 2.034,-0.919 2.035,-2.036l0,-2.353c-0.001,-1.116 -0.919,-2.035 -2.035,-2.036Zm5.731,4.247l-0,-0.229c0.001,-1.35 1.112,-2.46 2.462,-2.461l6.065,-0l0,2.69l-8.527,0Zm-23.738,-2.69c1.35,0.001 2.461,1.111 2.462,2.461l0,0.229l-8.527,0l-0,-2.69l6.065,-0Zm17.76,2.587l-9.32,-0l-0,-1.863l9.32,0l0,1.863Zm16.044,-11.852l-2.268,2.268c-0.352,-0.209 -0.724,-0.381 -1.11,-0.514l-0.193,-0.361l2.482,-2.482c0.303,-0.288 0.786,-0.288 1.089,0c0.298,0.299 0.298,0.79 -0,1.089l-0,0Zm-41.634,-0.544c0,-0.423 0.348,-0.77 0.77,-0.77c0.204,-0 0.4,0.081 0.545,0.225l2.482,2.483l-0.192,0.36c-0.387,0.133 -0.759,0.305 -1.111,0.514l-2.268,-2.268c-0.145,-0.144 -0.227,-0.34 -0.226,-0.544l-0,-0Zm6.383,1.936l4.455,-8.348c0.176,-0.275 0.478,-0.443 0.803,-0.448l18.578,-0c0.289,-0.001 0.564,0.129 0.747,0.354l4.51,8.442l-29.093,0Zm32.549,-4.094l-1.993,1.993l-4.016,-7.51c-0.598,-0.911 -1.615,-1.463 -2.704,-1.467l-18.578,-0c-1.125,0.013 -2.168,0.603 -2.759,1.561l-3.962,7.416l-1.992,-1.993c-0.586,-0.585 -1.386,-0.906 -2.213,-0.887c-1.526,-2.919 -2.401,-6.135 -2.566,-9.425l3.428,0c0.626,0 1.141,-0.515 1.141,-1.14c0,-0.626 -0.515,-1.141 -1.141,-1.141l-3.407,-0c0.258,-5.25 2.332,-10.25 5.865,-14.141l2.403,2.403c0.214,0.214 0.505,0.334 0.807,0.334c0.626,0 1.141,-0.515 1.141,-1.14c-0,-0.303 -0.12,-0.593 -0.334,-0.807l-2.404,-2.404c3.892,-3.533 8.892,-5.606 14.141,-5.864l0,3.407c0,0.625 0.515,1.14 1.141,1.14c0.626,0 1.141,-0.515 1.141,-1.14l-0,-3.407c5.249,0.258 10.249,2.331 14.141,5.864l-2.404,2.404c-0.214,0.214 -0.334,0.504 -0.334,0.807c0,0.625 0.515,1.14 1.141,1.14c0.302,0 0.593,-0.12 0.807,-0.334l2.403,-2.403c3.533,3.891 5.607,8.891 5.865,14.141l-3.407,-0c-0.626,-0 -1.141,0.515 -1.141,1.141c-0,0.625 0.515,1.14 1.141,1.14l3.428,0c-0.165,3.3 -1.045,6.525 -2.579,9.451c-0.819,-0.021 -1.613,0.29 -2.2,0.861Zm-7.111,-12.593l-7.679,-0c-0.344,-0.966 -1.105,-1.727 -2.071,-2.072l-0,-11.058c-0,-0.626 -0.515,-1.141 -1.141,-1.141c-0.626,-0 -1.141,0.515 -1.141,1.141l0,11.058c-1.364,0.48 -2.282,1.776 -2.282,3.221c0,1.873 1.542,3.414 3.415,3.414c1.445,0 2.741,-0.918 3.22,-2.281l7.679,-0c0.626,-0 1.141,-0.515 1.141,-1.141c-0,-0.626 -0.515,-1.141 -1.141,-1.141l-0,-0Zm-10.891,2.281c-0.001,0 -0.001,0 -0.002,0c-0.626,0 -1.141,-0.515 -1.141,-1.14c-0,-0.626 0.515,-1.141 1.141,-1.141c0.621,-0 1.135,0.508 1.141,1.13l-0.003,0.011l0.003,0.011c-0.006,0.62 -0.518,1.128 -1.139,1.129Z" style="fill:url(#_Linear2);fill-rule:nonzero;"/></g></g><defs><linearGradient id="_Linear2" x1="0" y1="0" x2="1" y2="0" gradientUnits="userSpaceOnUse" gradientTransform="matrix(50.1987,0,0,63.9948,6.90077,32.1541)"><stop offset="0" style="stop-color:#1685ff;stop-opacity:1"/><stop offset="0.5" style="stop-color:#8b5cf6;stop-opacity:1"/><stop offset="1" style="stop-color:#d946ef;stop-opacity:1"/></linearGradient></defs></svg>