<svg width="50" height="50" viewBox="0 0 50 50" fill="none" xmlns="http://www.w3.org/2000/svg">
<g clip-path="url(#clip0_410_38)">
<path d="M25 28.9172C25.433 28.9172 25.7835 29.2675 25.7835 29.7006C25.7835 30.1336 25.433 30.4839 25 30.4839C22.2695 30.4839 19.6691 30.0793 17.6784 29.3456C17.2721 29.1957 17.0647 28.7451 17.214 28.3394C17.3647 27.934 17.816 27.7267 18.2199 27.8752C20.0423 28.5469 22.45 28.9172 25 28.9172ZM28.1337 30.4839C28.5664 30.4839 28.9172 30.1333 28.9172 29.7006C28.9172 29.2679 28.5664 28.9172 28.1337 28.9172C27.7012 28.9172 27.3504 29.2679 27.3504 29.7006C27.3504 30.1333 27.7012 30.4839 28.1337 30.4839ZM18.2199 35.7095C17.816 35.5602 17.3647 35.7676 17.214 36.1738C17.0647 36.5794 17.2721 37.03 17.6784 37.1799C19.6691 37.9136 22.2695 38.3184 25 38.3184C25.433 38.3184 25.7835 37.9679 25.7835 37.5349C25.7835 37.1018 25.433 36.7514 25 36.7514C22.45 36.7514 20.0423 36.3812 18.2199 35.7095ZM28.1337 38.3184C28.5664 38.3184 28.9172 37.9676 28.9172 37.5349C28.9172 37.1022 28.5664 36.7514 28.1337 36.7514C27.7012 36.7514 27.3504 37.1022 27.3504 37.5349C27.3504 37.9676 27.7012 38.3184 28.1337 38.3184ZM25 44.5859C22.45 44.5859 20.0423 44.2155 18.2199 43.5438C17.816 43.3945 17.3647 43.6019 17.214 44.0081C17.0647 44.4137 17.2721 44.8643 17.6784 45.0142C19.6691 45.7479 22.2695 46.1525 25 46.1525C25.433 46.1525 25.7835 45.8022 25.7835 45.3692C25.7835 44.9362 25.433 44.5859 25 44.5859ZM28.1337 44.5859C27.7012 44.5859 27.3504 44.9365 27.3504 45.3692C27.3504 45.8019 27.7012 46.1525 28.1337 46.1525C28.5664 46.1525 28.9172 45.8019 28.9172 45.3692C28.9172 44.9365 28.5664 44.5859 28.1337 44.5859ZM7.76465 8.54784H12.4651C12.8981 8.54784 13.2486 8.19753 13.2486 7.76449C13.2486 7.33145 12.8981 6.98114 12.4651 6.98114H7.76465C7.33161 6.98114 6.98114 7.33145 6.98114 7.76449C6.98114 8.19753 7.33161 8.54784 7.76465 8.54784ZM11.6809 10.8974C11.6809 10.4643 11.3297 10.114 10.8975 10.114L7.76465 10.1149C7.33161 10.1149 6.98114 10.466 6.98114 10.8982C6.98114 11.3313 7.33228 11.6816 7.76465 11.6816L10.8975 11.6809C11.3306 11.6809 11.6809 11.3298 11.6809 10.8974ZM46.1527 6.19763V15.5988C46.1527 16.0318 45.8022 16.3823 45.3694 16.3823H40.557C40.3036 17.3158 39.616 18.0976 38.6802 18.4372L34.9445 19.7958C35.5898 20.3908 35.9682 21.0812 35.9682 21.8663V45.3692C35.9682 48.4225 30.3173 50.0698 25 50.0698C19.6828 50.0698 14.0321 48.4225 14.0321 45.3692V21.8663C14.0321 21.0812 14.4103 20.3908 15.0558 19.7958L11.3199 18.4372C10.3841 18.0976 9.69653 17.3158 9.44316 16.3823H4.63093C4.19789 16.3823 3.84741 16.0318 3.84741 15.5988V3.0639C3.84741 2.63086 4.19789 2.28039 4.63093 2.28039H12.4651C12.6733 2.28039 12.8722 2.36312 13.0191 2.51003L16.1528 5.64375C16.2998 5.79066 16.3823 5.98955 16.3823 6.19763V15.5988C16.3823 16.0318 16.0318 16.3823 15.5988 16.3823H11.1374C11.306 16.6437 11.551 16.8545 11.8554 16.9653L16.6985 18.7265C18.6536 17.7901 21.4387 17.2644 24.2166 17.1807V14.0319H19.516C19.083 14.0319 18.7325 13.6815 18.7325 13.2486V0.71369C18.7325 0.280651 19.083 -0.0698242 19.516 -0.0698242H27.3504C27.5584 -0.0698242 27.7573 0.0127382 27.9042 0.159647L31.038 3.29337C31.1849 3.44028 31.2674 3.63917 31.2674 3.84742V13.2486C31.2674 13.6815 30.9171 14.0319 30.4841 14.0319H25.7835V17.1807C28.5614 17.2644 31.3465 17.7901 33.3016 18.7265L38.1447 16.9653C38.4491 16.8545 38.6941 16.6437 38.8627 16.3823H34.4012C33.9683 16.3823 33.6178 16.0318 33.6178 15.5988V3.0639C33.6178 2.63086 33.9683 2.28039 34.4012 2.28039H42.2356C42.4437 2.28039 42.6426 2.36312 42.7895 2.51003L45.9232 5.64375C46.0701 5.79066 46.1527 5.98955 46.1527 6.19763ZM20.2996 12.4651H29.7007V4.17165L27.026 1.49704H20.2996V12.4651ZM5.41428 14.8153H14.8155V6.52203L12.1408 3.84742H5.41428V14.8153ZM34.4012 32.2047C32.3538 33.6424 28.6032 34.4012 25 34.4012C21.3969 34.4012 17.6463 33.6424 15.5988 32.2047V37.5349C15.5988 38.8432 19.1756 40.6686 25 40.6686C30.8245 40.6686 34.4012 38.8432 34.4012 37.5349V32.2047ZM34.4012 24.3704C32.3538 25.8081 28.6032 26.5668 25 26.5668C21.3969 26.5668 17.6463 25.8081 15.5988 24.3704V29.7006C15.5988 31.0089 19.1756 32.8343 25 32.8343C30.8245 32.8343 34.4012 31.0089 34.4012 29.7006V24.3704ZM34.4012 45.3692V40.039C32.3538 41.4767 28.6032 42.2355 25 42.2355C21.3969 42.2355 17.6463 41.4767 15.5988 40.039V45.3692C15.5988 46.6775 19.1756 48.5029 25 48.5029C30.8245 48.5029 34.4012 46.6775 34.4012 45.3692ZM33.1868 20.4349L32.373 20.7309C32.0219 20.8586 31.7366 21.1135 31.5698 21.4469L31.1849 22.2167C30.9907 22.6038 30.5217 22.7597 30.1336 22.567C29.7465 22.3735 29.5898 21.903 29.7833 21.5158L30.168 20.7461C30.41 20.263 30.7764 19.8675 31.2195 19.5779C29.8115 19.1316 27.9706 18.8112 25.7835 18.7479V21.0827C25.7835 21.5158 25.433 21.8663 25 21.8663C24.5671 21.8663 24.2166 21.5158 24.2166 21.0827V18.7479C22.0295 18.8112 20.1886 19.1316 18.7807 19.5779C19.2237 19.8675 19.5901 20.263 19.8321 20.7461L20.2168 21.5158C20.4104 21.903 20.2536 22.3735 19.8665 22.567C19.4758 22.7611 19.008 22.6011 18.8153 22.2167L18.4304 21.4469C18.2636 21.1135 17.9783 20.8586 17.6271 20.7309L16.8133 20.4349C16.0277 20.9103 15.5988 21.4182 15.5988 21.8663C15.5988 23.1746 19.1756 25 25 25C30.8245 25 34.4012 23.1746 34.4012 21.8663C34.4012 21.4182 33.9725 20.9103 33.1868 20.4349ZM44.5858 6.52203L41.9112 3.84742H35.1847V14.8153H44.5858V6.52203ZM36.7515 7.76449C36.7515 8.19753 37.102 8.54784 37.5349 8.54784H42.2356C42.6685 8.54784 43.019 8.19753 43.019 7.76449C43.019 7.33145 42.6685 6.98114 42.2356 6.98114H37.5349C37.102 6.98114 36.7515 7.33145 36.7515 7.76449ZM40.6679 10.114L37.5349 10.1149C37.102 10.1149 36.7515 10.466 36.7515 10.8982C36.7515 11.3313 37.1027 11.6816 37.5349 11.6816L40.6679 11.6809C41.101 11.6809 41.4513 11.3298 41.4513 10.8974C41.4513 10.4643 41.1001 10.114 40.6679 10.114ZM22.6498 6.19763H27.3504C27.7834 6.19763 28.1337 5.84715 28.1337 5.41411C28.1337 4.98124 27.7834 4.63076 27.3504 4.63076H22.6498C22.2167 4.63076 21.8663 4.98124 21.8663 5.41411C21.8663 5.84715 22.2167 6.19763 22.6498 6.19763ZM26.5662 8.54717C26.5662 8.11413 26.215 7.76366 25.7827 7.76366L22.6498 7.76449C22.2167 7.76449 21.8663 8.11564 21.8663 8.54784C21.8663 8.98088 22.2176 9.33135 22.6498 9.33135L25.7827 9.33052C26.2157 9.33052 26.5662 8.97937 26.5662 8.54717Z" fill="url(#paint0_linear_410_38)"/>
</g>
<defs>
<linearGradient id="paint0_linear_410_38" x1="3.84758" y1="25.1208" x2="46.1535" y2="25.1208" gradientUnits="userSpaceOnUse">
<stop stop-color="#1685FF"/>
<stop offset="0.5" stop-color="#8B5CF6"/>
<stop offset="1" stop-color="#D946EF"/>
</linearGradient>
<clipPath id="clip0_410_38">
<rect width="50" height="50" fill="white"/>
</clipPath>
</defs>
</svg>
