<svg width="51" height="51" viewBox="0 0 51 51" fill="none" xmlns="http://www.w3.org/2000/svg">
<path fill-rule="evenodd" clip-rule="evenodd" d="M39.4619 0.25C39.028 0.25 38.6302 0.481513 38.4167 0.859136C38.4167 0.859136 36.4657 4.02617 29.8706 4.02617C29.2098 4.02617 28.6726 4.56338 28.6726 5.22419C28.6726 7.77311 29.0254 10.0231 29.5986 12.0032C27.6319 12.8146 25.755 14.2396 24.2288 16.4087C19.4861 9.63833 11.4212 10.0411 7.24944 14.0059C4.05093 17.0425 3.05517 22.2642 4.5005 28.1105C4.65785 28.7511 5.30966 29.1467 5.95251 28.9893C6.59537 28.8297 6.98648 28.1779 6.82686 27.5351C5.62435 22.6643 6.23573 18.2766 8.89928 15.7459C12.4731 12.3496 19.5917 12.48 23.1679 19.2726C23.3747 19.6659 23.7815 19.911 24.2265 19.911C24.6716 19.911 25.0807 19.666 25.2875 19.2726C26.6249 16.7304 28.4411 15.1143 30.3988 14.2714C33.3186 21.2932 38.9219 24.0984 38.9219 24.0984C39.2613 24.2692 39.6637 24.2692 40.003 24.0984C40.003 24.0984 40.9246 23.6286 42.2035 22.6216C42.2462 24.1613 42.0507 25.8157 41.6281 27.5352C41.4685 28.178 41.8596 28.8299 42.5025 28.9894C43.1453 29.1468 43.7949 28.7512 43.9545 28.1106C44.6175 25.4201 44.7704 22.8577 44.4287 20.5922C47.2002 17.6566 50.2502 12.7274 50.2502 5.22454C50.2502 4.56373 49.713 4.02652 49.0522 4.02652C42.4574 4.02652 40.5061 0.859481 40.5061 0.859481C40.2948 0.484114 39.8948 0.250345 39.4609 0.250345L39.4619 0.25ZM39.4619 3.30915C40.7138 4.50268 43.2448 6.14129 47.8255 6.39304C47.3648 15.9191 41.3228 20.4614 39.4619 21.6393C37.6007 20.4592 31.5591 15.9188 31.0982 6.39304C35.679 6.14129 38.2097 4.50268 39.4619 3.30915ZM39.4619 7.44271C38.801 7.44271 38.2638 7.97991 38.2638 8.64073V11.0391H35.8655C35.2047 11.0391 34.6675 11.5763 34.6675 12.2371C34.6675 12.8979 35.2047 13.4351 35.8655 13.4351H38.2638V15.8334C38.2638 16.4942 38.801 17.0315 39.4619 17.0315C40.1227 17.0315 40.6599 16.4943 40.6599 15.8334V13.4351H43.0582C43.719 13.4351 44.2562 12.8979 44.2562 12.2371C44.2562 11.5763 43.719 11.0391 43.0582 11.0391H40.6599V8.64073C40.6599 7.97992 40.1227 7.44271 39.4619 7.44271ZM35.0158 23.0262C34.5618 23.0262 34.146 23.2824 33.9437 23.6892L30.68 30.219H27.8231C27.459 30.219 27.1151 30.3854 26.8858 30.6686L23.3097 35.1393L18.1242 23.7299C17.9444 23.3343 17.5623 23.0691 17.1285 23.0331C16.6947 22.9994 16.2766 23.1995 16.0361 23.5614L11.5969 30.2212H1.44826C0.787454 30.2212 0.250244 30.7584 0.250244 31.4193C0.250244 32.0801 0.787448 32.6173 1.44826 32.6173H12.2373C12.6374 32.6173 13.0128 32.4172 13.2353 32.0846L16.8339 26.6878L21.9363 37.9107C22.1071 38.2906 22.4667 38.5513 22.8803 38.603C23.2939 38.6547 23.703 38.4884 23.9637 38.1624L28.3984 32.6173H31.4194C31.8734 32.6173 32.2892 32.3611 32.4915 31.9543L35.0157 26.9059L37.5399 31.9543C37.7422 32.3611 38.158 32.6173 38.6121 32.6173H47.0028C47.6636 32.6173 48.2008 32.0801 48.2008 31.4193C48.2008 30.7585 47.6636 30.2213 47.0028 30.2213H39.3515L36.0878 23.6915C35.8855 23.2846 35.4697 23.0284 35.0156 23.0284L35.0158 23.0262ZM39.4281 34.4896C39.0438 34.5031 38.6707 34.6986 38.4481 35.047C35.3845 39.9066 29.4256 44.6133 24.2267 47.9761C19.0277 44.6135 13.0711 39.911 10.0076 35.0516C9.6547 34.492 8.91522 34.3256 8.35551 34.6785C7.79582 35.0314 7.62726 35.7709 7.98014 36.3306C11.3405 41.6577 17.9648 46.8521 23.5883 50.4128C23.9794 50.66 24.4762 50.66 24.8695 50.4128C30.4956 46.8501 37.1196 41.6555 40.48 36.3266C40.8307 35.7669 40.6621 35.0252 40.1024 34.6745C39.8934 34.5419 39.6596 34.4834 39.4281 34.4902L39.4281 34.4896Z" fill="url(#paint0_linear_599_42)"/>
<defs>
<linearGradient id="paint0_linear_599_42" x1="0.250465" y1="25.5454" x2="50.2514" y2="25.5454" gradientUnits="userSpaceOnUse">
<stop stop-color="#1685FF"/>
<stop offset="0.5" stop-color="#8B5CF6"/>
<stop offset="1" stop-color="#D946EF"/>
</linearGradient>
</defs>
</svg>
