<svg width="790" height="790" viewBox="0 0 790 790" fill="none" xmlns="http://www.w3.org/2000/svg">
<path d="M688.712 72.8924L608.951 106.328C605.888 107.604 605.888 112.071 609.079 113.22L628.349 120.749L484.396 267.637L476.484 248.495C475.208 245.432 470.741 245.432 469.593 248.495L437.816 328.894C436.54 331.957 439.73 335.019 442.793 333.743L522.554 300.307C525.617 299.031 525.617 294.565 522.426 293.416L503.156 285.887L646.981 138.998L654.894 158.141C656.17 161.204 660.636 161.204 661.785 158.141L693.562 77.7419C694.838 74.5515 691.775 71.6163 688.712 72.8924Z" fill="url(#paint0_linear_350_56)"/>
<path d="M434.242 699.369V395.893H434.115C432.583 378.027 419.311 354.162 368.264 335.403C330.362 321.492 280.335 313.708 227.374 313.708C174.413 313.708 124.386 321.365 86.4839 335.403C39.6481 352.631 24.5892 374.071 21.1436 391.172H20.2502V699.241C20.2502 717.363 31.7358 743.269 86.3563 763.305C124.259 777.215 174.285 785 227.246 785C280.208 785 330.234 777.343 368.136 763.305C422.757 743.269 434.242 717.49 434.242 699.369ZM404.125 697.454H403.997C404.125 698.092 404.125 698.73 404.125 699.241C404.125 708.302 392.001 722.595 357.799 735.102C323.215 747.863 276.762 754.882 227.246 754.882C177.731 754.882 131.405 747.991 96.6933 735.229C62.4917 722.595 50.368 708.429 50.368 699.369C50.368 698.858 50.368 698.348 50.4957 697.837H50.368V646.152C59.5565 652.278 71.2974 658.276 86.3563 663.763C124.259 677.673 174.285 685.458 227.246 685.458C280.208 685.458 330.234 677.801 368.136 663.763C383.195 658.276 394.936 652.278 404.125 646.152V697.454ZM404.125 597.785H403.997C404.125 598.423 404.125 599.061 404.125 599.571C404.125 608.632 392.001 622.925 357.799 635.432C323.215 648.194 276.762 655.213 227.246 655.213C177.731 655.213 131.405 648.321 96.6933 635.56C62.4917 622.925 50.368 608.76 50.368 599.699C50.368 599.189 50.368 598.678 50.4957 598.168H50.368V546.482C59.5565 552.608 71.2974 558.606 86.3563 564.094C124.259 578.004 174.285 585.789 227.246 585.789C280.208 585.789 330.234 578.132 368.136 564.094C383.195 558.606 394.936 552.608 404.125 546.482V597.785ZM404.125 498.115H403.997C404.125 498.753 404.125 499.391 404.125 499.902C404.125 508.963 392.001 523.256 357.799 535.762C323.215 548.524 276.762 555.543 227.246 555.543C177.731 555.543 131.405 548.652 96.6933 535.89C62.4917 523.256 50.368 509.09 50.368 500.029C50.368 499.519 50.368 499.009 50.4957 498.498H50.368V445.92C59.5565 452.045 71.2974 458.043 86.3563 463.531C124.259 477.441 174.285 485.226 227.246 485.226C280.208 485.226 330.234 477.569 368.136 463.531C383.195 458.043 394.936 452.045 404.125 445.92V498.115ZM357.799 435.455C323.215 448.217 276.762 455.236 227.246 455.236C177.731 455.236 131.405 448.217 96.6933 435.455C62.4917 422.821 50.368 408.655 50.368 399.594C50.368 390.533 62.6193 376.368 96.6933 363.734C131.278 350.972 177.731 343.953 227.246 343.953C276.762 343.953 323.087 350.972 357.799 363.734C392.001 376.368 404.125 390.533 404.125 399.594C404.125 408.655 392.001 422.821 357.799 435.455Z" fill="url(#paint1_linear_350_56)"/>
<path d="M371.837 506.666C376.912 506.666 381.026 502.552 381.026 497.478C381.026 492.403 376.912 488.289 371.837 488.289C366.763 488.289 362.649 492.403 362.649 497.478C362.649 502.552 366.763 506.666 371.837 506.666Z" fill="url(#paint2_linear_350_56)"/>
<path d="M340.443 517.386C345.518 517.386 349.632 513.272 349.632 508.197C349.632 503.123 345.518 499.009 340.443 499.009C335.368 499.009 331.255 503.123 331.255 508.197C331.255 513.272 335.368 517.386 340.443 517.386Z" fill="url(#paint3_linear_350_56)"/>
<path d="M309.049 524.021C314.124 524.021 318.238 519.908 318.238 514.833C318.238 509.758 314.124 505.645 309.049 505.645C303.975 505.645 299.861 509.758 299.861 514.833C299.861 519.908 303.975 524.021 309.049 524.021Z" fill="url(#paint4_linear_350_56)"/>
<path d="M371.837 605.57C376.912 605.57 381.026 601.456 381.026 596.381C381.026 591.307 376.912 587.193 371.837 587.193C366.763 587.193 362.649 591.307 362.649 596.381C362.649 601.456 366.763 605.57 371.837 605.57Z" fill="url(#paint5_linear_350_56)"/>
<path d="M340.443 616.29C345.518 616.29 349.632 612.176 349.632 607.101C349.632 602.026 345.518 597.913 340.443 597.913C335.368 597.913 331.255 602.026 331.255 607.101C331.255 612.176 335.368 616.29 340.443 616.29Z" fill="url(#paint6_linear_350_56)"/>
<path d="M309.049 622.925C314.124 622.925 318.238 618.811 318.238 613.736C318.238 608.662 314.124 604.548 309.049 604.548C303.975 604.548 299.861 608.662 299.861 613.736C299.861 618.811 303.975 622.925 309.049 622.925Z" fill="url(#paint7_linear_350_56)"/>
<path d="M374.517 704.218C379.592 704.218 383.706 700.104 383.706 695.029C383.706 689.955 379.592 685.841 374.517 685.841C369.442 685.841 365.329 689.955 365.329 695.029C365.329 700.104 369.442 704.218 374.517 704.218Z" fill="url(#paint8_linear_350_56)"/>
<path d="M343.124 714.938C348.198 714.938 352.312 710.824 352.312 705.749C352.312 700.674 348.198 696.561 343.124 696.561C338.049 696.561 333.935 700.674 333.935 705.749C333.935 710.824 338.049 714.938 343.124 714.938Z" fill="url(#paint9_linear_350_56)"/>
<path d="M311.729 721.574C316.804 721.574 320.918 717.46 320.918 712.386C320.918 707.311 316.804 703.197 311.729 703.197C306.655 703.197 302.541 707.311 302.541 712.386C302.541 717.46 306.655 721.574 311.729 721.574Z" fill="url(#paint10_linear_350_56)"/>
<path d="M448.28 5H352.695V36.394H448.28V5Z" fill="url(#paint11_linear_350_56)"/>
<path d="M52.6652 145.508H21.2712V241.094H52.6652V145.508Z" fill="url(#paint12_linear_350_56)"/>
<path d="M383.323 774.28H438.071V742.886H431.69C421.608 753.861 406.166 764.708 383.323 774.28Z" fill="url(#paint13_linear_350_56)"/>
<path d="M565.561 742.886H469.975V774.28H565.561V742.886Z" fill="url(#paint14_linear_350_56)"/>
<path d="M52.6652 333.36V272.997H21.2712V357.608C29.0559 348.674 39.5206 340.635 52.6652 333.36Z" fill="url(#paint15_linear_350_56)"/>
<path d="M320.663 5H225.077V36.394H320.663V5Z" fill="url(#paint16_linear_350_56)"/>
<path d="M575.771 5H480.185V36.394H575.771V5Z" fill="url(#paint17_linear_350_56)"/>
<path d="M193.173 5H97.5869V36.394H193.173V5Z" fill="url(#paint18_linear_350_56)"/>
<path d="M52.6652 81.4434C52.6652 65.4912 61.3432 50.5599 75.126 42.52L59.3013 15.3374C35.8197 29.1201 21.2712 54.3884 21.2712 81.4434V113.603H52.6652V81.4434Z" fill="url(#paint19_linear_350_56)"/>
<path d="M769.622 155.461H738.228V251.047H769.622V155.461Z" fill="url(#paint20_linear_350_56)"/>
<path d="M769.622 410.569H738.228V506.155H769.622V410.569Z" fill="url(#paint21_linear_350_56)"/>
<path d="M597.593 742.886V774.28H693.179H693.434L693.306 742.886H597.593Z" fill="url(#paint22_linear_350_56)"/>
<path d="M741.929 22.6108L721.893 46.7306C732.358 55.4086 738.356 68.0428 738.356 81.4426V123.684H769.75V81.4426C769.622 58.5991 759.54 37.1593 741.929 22.6108Z" fill="url(#paint23_linear_350_56)"/>
<path d="M769.622 282.952H738.228V378.537H769.622V282.952Z" fill="url(#paint24_linear_350_56)"/>
<path d="M607.675 5V36.394H693.179C695.731 36.394 698.156 36.6492 700.708 37.0321L705.941 6.14856C701.729 5.38285 697.518 5.12762 693.307 5.12762H607.675V5Z" fill="url(#paint25_linear_350_56)"/>
<path d="M769.622 538.06H738.228V633.646H769.622V538.06Z" fill="url(#paint26_linear_350_56)"/>
<path d="M738.228 697.837C738.228 713.789 729.677 728.593 715.767 736.761L731.719 763.816C755.073 750.033 769.622 724.764 769.622 697.837V665.55H738.228V697.837Z" fill="url(#paint27_linear_350_56)"/>
<defs>
<linearGradient id="paint0_linear_350_56" x1="565.693" y1="72.5869" x2="565.693" y2="334.04" gradientUnits="userSpaceOnUse">
<stop stop-color="#1685FF"/>
<stop offset="0.5" stop-color="#8B5CF6"/>
<stop offset="1" stop-color="#D946EF"/>
</linearGradient>
<linearGradient id="paint1_linear_350_56" x1="227.247" y1="313.708" x2="227.247" y2="785" gradientUnits="userSpaceOnUse">
<stop stop-color="#1685FF"/>
<stop offset="0.5" stop-color="#8B5CF6"/>
<stop offset="1" stop-color="#D946EF"/>
</linearGradient>
<linearGradient id="paint2_linear_350_56" x1="371.837" y1="488.289" x2="371.837" y2="506.666" gradientUnits="userSpaceOnUse">
<stop stop-color="#1685FF"/>
<stop offset="0.5" stop-color="#8B5CF6"/>
<stop offset="1" stop-color="#D946EF"/>
</linearGradient>
<linearGradient id="paint3_linear_350_56" x1="340.443" y1="499.009" x2="340.443" y2="517.386" gradientUnits="userSpaceOnUse">
<stop stop-color="#1685FF"/>
<stop offset="0.5" stop-color="#8B5CF6"/>
<stop offset="1" stop-color="#D946EF"/>
</linearGradient>
<linearGradient id="paint4_linear_350_56" x1="309.049" y1="505.645" x2="309.049" y2="524.021" gradientUnits="userSpaceOnUse">
<stop stop-color="#1685FF"/>
<stop offset="0.5" stop-color="#8B5CF6"/>
<stop offset="1" stop-color="#D946EF"/>
</linearGradient>
<linearGradient id="paint5_linear_350_56" x1="371.837" y1="587.193" x2="371.837" y2="605.57" gradientUnits="userSpaceOnUse">
<stop stop-color="#1685FF"/>
<stop offset="0.5" stop-color="#8B5CF6"/>
<stop offset="1" stop-color="#D946EF"/>
</linearGradient>
<linearGradient id="paint6_linear_350_56" x1="340.443" y1="597.913" x2="340.443" y2="616.29" gradientUnits="userSpaceOnUse">
<stop stop-color="#1685FF"/>
<stop offset="0.5" stop-color="#8B5CF6"/>
<stop offset="1" stop-color="#D946EF"/>
</linearGradient>
<linearGradient id="paint7_linear_350_56" x1="309.049" y1="604.548" x2="309.049" y2="622.925" gradientUnits="userSpaceOnUse">
<stop stop-color="#1685FF"/>
<stop offset="0.5" stop-color="#8B5CF6"/>
<stop offset="1" stop-color="#D946EF"/>
</linearGradient>
<linearGradient id="paint8_linear_350_56" x1="374.517" y1="685.841" x2="374.517" y2="704.218" gradientUnits="userSpaceOnUse">
<stop stop-color="#1685FF"/>
<stop offset="0.5" stop-color="#8B5CF6"/>
<stop offset="1" stop-color="#D946EF"/>
</linearGradient>
<linearGradient id="paint9_linear_350_56" x1="343.124" y1="696.561" x2="343.124" y2="714.938" gradientUnits="userSpaceOnUse">
<stop stop-color="#1685FF"/>
<stop offset="0.5" stop-color="#8B5CF6"/>
<stop offset="1" stop-color="#D946EF"/>
</linearGradient>
<linearGradient id="paint10_linear_350_56" x1="311.729" y1="703.197" x2="311.729" y2="721.574" gradientUnits="userSpaceOnUse">
<stop stop-color="#1685FF"/>
<stop offset="0.5" stop-color="#8B5CF6"/>
<stop offset="1" stop-color="#D946EF"/>
</linearGradient>
<linearGradient id="paint11_linear_350_56" x1="400.487" y1="5" x2="400.487" y2="36.394" gradientUnits="userSpaceOnUse">
<stop stop-color="#1685FF"/>
<stop offset="0.5" stop-color="#8B5CF6"/>
<stop offset="1" stop-color="#D946EF"/>
</linearGradient>
<linearGradient id="paint12_linear_350_56" x1="36.9682" y1="145.508" x2="36.9682" y2="241.094" gradientUnits="userSpaceOnUse">
<stop stop-color="#1685FF"/>
<stop offset="0.5" stop-color="#8B5CF6"/>
<stop offset="1" stop-color="#D946EF"/>
</linearGradient>
<linearGradient id="paint13_linear_350_56" x1="410.697" y1="742.886" x2="410.697" y2="774.28" gradientUnits="userSpaceOnUse">
<stop stop-color="#1685FF"/>
<stop offset="0.5" stop-color="#8B5CF6"/>
<stop offset="1" stop-color="#D946EF"/>
</linearGradient>
<linearGradient id="paint14_linear_350_56" x1="517.768" y1="742.886" x2="517.768" y2="774.28" gradientUnits="userSpaceOnUse">
<stop stop-color="#1685FF"/>
<stop offset="0.5" stop-color="#8B5CF6"/>
<stop offset="1" stop-color="#D946EF"/>
</linearGradient>
<linearGradient id="paint15_linear_350_56" x1="36.9682" y1="272.997" x2="36.9682" y2="357.608" gradientUnits="userSpaceOnUse">
<stop stop-color="#1685FF"/>
<stop offset="0.5" stop-color="#8B5CF6"/>
<stop offset="1" stop-color="#D946EF"/>
</linearGradient>
<linearGradient id="paint16_linear_350_56" x1="272.87" y1="5" x2="272.87" y2="36.394" gradientUnits="userSpaceOnUse">
<stop stop-color="#1685FF"/>
<stop offset="0.5" stop-color="#8B5CF6"/>
<stop offset="1" stop-color="#D946EF"/>
</linearGradient>
<linearGradient id="paint17_linear_350_56" x1="527.978" y1="5" x2="527.978" y2="36.394" gradientUnits="userSpaceOnUse">
<stop stop-color="#1685FF"/>
<stop offset="0.5" stop-color="#8B5CF6"/>
<stop offset="1" stop-color="#D946EF"/>
</linearGradient>
<linearGradient id="paint18_linear_350_56" x1="145.38" y1="5" x2="145.38" y2="36.394" gradientUnits="userSpaceOnUse">
<stop stop-color="#1685FF"/>
<stop offset="0.5" stop-color="#8B5CF6"/>
<stop offset="1" stop-color="#D946EF"/>
</linearGradient>
<linearGradient id="paint19_linear_350_56" x1="48.1986" y1="15.3374" x2="48.1986" y2="113.603" gradientUnits="userSpaceOnUse">
<stop stop-color="#1685FF"/>
<stop offset="0.5" stop-color="#8B5CF6"/>
<stop offset="1" stop-color="#D946EF"/>
</linearGradient>
<linearGradient id="paint20_linear_350_56" x1="753.925" y1="155.461" x2="753.925" y2="251.047" gradientUnits="userSpaceOnUse">
<stop stop-color="#1685FF"/>
<stop offset="0.5" stop-color="#8B5CF6"/>
<stop offset="1" stop-color="#D946EF"/>
</linearGradient>
<linearGradient id="paint21_linear_350_56" x1="753.925" y1="410.569" x2="753.925" y2="506.155" gradientUnits="userSpaceOnUse">
<stop stop-color="#1685FF"/>
<stop offset="0.5" stop-color="#8B5CF6"/>
<stop offset="1" stop-color="#D946EF"/>
</linearGradient>
<linearGradient id="paint22_linear_350_56" x1="645.514" y1="742.886" x2="645.514" y2="774.28" gradientUnits="userSpaceOnUse">
<stop stop-color="#1685FF"/>
<stop offset="0.5" stop-color="#8B5CF6"/>
<stop offset="1" stop-color="#D946EF"/>
</linearGradient>
<linearGradient id="paint23_linear_350_56" x1="745.821" y1="22.6108" x2="745.821" y2="123.684" gradientUnits="userSpaceOnUse">
<stop stop-color="#1685FF"/>
<stop offset="0.5" stop-color="#8B5CF6"/>
<stop offset="1" stop-color="#D946EF"/>
</linearGradient>
<linearGradient id="paint24_linear_350_56" x1="753.925" y1="282.952" x2="753.925" y2="378.537" gradientUnits="userSpaceOnUse">
<stop stop-color="#1685FF"/>
<stop offset="0.5" stop-color="#8B5CF6"/>
<stop offset="1" stop-color="#D946EF"/>
</linearGradient>
<linearGradient id="paint25_linear_350_56" x1="656.808" y1="5" x2="656.808" y2="37.0321" gradientUnits="userSpaceOnUse">
<stop stop-color="#1685FF"/>
<stop offset="0.5" stop-color="#8B5CF6"/>
<stop offset="1" stop-color="#D946EF"/>
</linearGradient>
<linearGradient id="paint26_linear_350_56" x1="753.925" y1="538.06" x2="753.925" y2="633.646" gradientUnits="userSpaceOnUse">
<stop stop-color="#1685FF"/>
<stop offset="0.5" stop-color="#8B5CF6"/>
<stop offset="1" stop-color="#D946EF"/>
</linearGradient>
<linearGradient id="paint27_linear_350_56" x1="742.694" y1="665.55" x2="742.694" y2="763.816" gradientUnits="userSpaceOnUse">
<stop stop-color="#1685FF"/>
<stop offset="0.5" stop-color="#8B5CF6"/>
<stop offset="1" stop-color="#D946EF"/>
</linearGradient>
</defs>
</svg>
