<svg width="30" height="30" viewBox="0 0 30 30" fill="none" xmlns="http://www.w3.org/2000/svg">
<path fill-rule="evenodd" clip-rule="evenodd" d="M2.52956 2H27.0094C27.4159 2 27.8042 2.16125 28.0915 2.44741C28.3788 2.7347 28.5401 3.12418 28.5401 3.52958V25.4693C28.5401 25.8758 28.3788 26.2642 28.0915 26.5515C27.8042 26.8387 27.4159 27 27.0094 27H2.52956C1.68473 27 1 26.3141 1 25.4693V3.53543C1 2.69061 1.68473 2.00587 2.52956 2.00587V2ZM19.0539 24.5586H25.7852V24.5575C25.8772 24.5665 25.9669 24.537 26.0351 24.4746C26.1032 24.4132 26.1418 24.3258 26.1418 24.235C26.1418 24.143 26.1032 24.0567 26.0351 23.9942C25.9669 23.9329 25.8772 23.9034 25.7852 23.9125H19.0539C18.963 23.9034 18.8722 23.9329 18.8041 23.9942C18.7371 24.0567 18.6985 24.143 18.6985 24.235C18.6985 24.3258 18.7371 24.4132 18.8041 24.4746C18.8722 24.537 18.963 24.5665 19.0539 24.5575V24.5586ZM19.0539 22.5975H25.7852V22.5964C25.8772 22.6055 25.9669 22.5748 26.0351 22.5135C26.1032 22.4522 26.1418 22.3647 26.1418 22.2739C26.1418 22.1819 26.1032 22.0945 26.0351 22.0332C25.9669 21.9718 25.8772 21.9412 25.7852 21.9503H19.0539C18.963 21.9412 18.8722 21.9718 18.8041 22.0332C18.7371 22.0945 18.6985 22.1819 18.6985 22.2739C18.6985 22.3647 18.7371 22.4522 18.8041 22.5135C18.8722 22.5748 18.963 22.6055 19.0539 22.5964V22.5975ZM19.0539 20.6331H25.7852V20.6319C25.8772 20.641 25.9669 20.6103 26.0351 20.549C26.1032 20.4877 26.1418 20.4003 26.1418 20.3094C26.1418 20.2175 26.1032 20.13 26.0351 20.0687C25.9669 20.0074 25.8772 19.9767 25.7852 19.9858H19.0539C18.963 19.9767 18.8722 20.0074 18.8041 20.0687C18.7371 20.13 18.6985 20.2175 18.6985 20.3094C18.6985 20.4003 18.7371 20.4877 18.8041 20.549C18.8722 20.6103 18.963 20.641 19.0539 20.6319V20.6331ZM9.17021 3.36165C8.77504 3.36619 8.4219 3.60692 8.27429 3.97258C8.12553 4.33821 8.2107 4.75722 8.49117 5.03542C8.77165 5.31476 9.19294 5.39765 9.55858 5.24663C9.92422 5.09446 10.1627 4.73677 10.1615 4.34047C10.1604 3.79995 9.7221 3.36277 9.18271 3.36164L9.17021 3.36165ZM9.40867 4.10542C9.31329 4.01004 9.17021 3.98165 9.0453 4.03275C8.92153 4.08385 8.83977 4.20535 8.83977 4.34048C8.83864 4.42905 8.87384 4.51422 8.93743 4.57667C9.06802 4.70612 9.27923 4.70612 9.40868 4.57667C9.47227 4.51422 9.50747 4.42905 9.50633 4.34048C9.50747 4.25191 9.47226 4.16674 9.40867 4.10542ZM6.92982 3.36165C6.53352 3.36051 6.17582 3.60011 6.02367 3.96688C5.87264 4.33365 5.95781 4.75493 6.23828 5.03542C6.62322 5.41469 7.24095 5.41469 7.62476 5.03542C7.9041 4.75381 7.98699 4.33252 7.83483 3.96688C7.68267 3.60124 7.32613 3.36278 6.92982 3.36165ZM7.16488 4.10542H7.16601C7.10356 4.04183 7.01953 4.00663 6.92982 4.00663C6.74587 4.00663 6.59712 4.15653 6.59712 4.34047C6.59599 4.42904 6.63119 4.51421 6.69478 4.57666C6.75723 4.63911 6.84239 4.67432 6.92983 4.67432C7.01954 4.67545 7.1047 4.64025 7.16829 4.5778C7.23188 4.51534 7.26708 4.42904 7.26708 4.34047C7.26708 4.2519 7.23188 4.16673 7.16942 4.10541L7.16488 4.10542ZM21.593 4.66525H25.4982C25.589 4.67433 25.6799 4.64367 25.748 4.58235C25.815 4.52103 25.8536 4.4336 25.8536 4.34162C25.8536 4.25078 25.815 4.16334 25.748 4.10202C25.6799 4.0407 25.589 4.01004 25.4982 4.01913H21.591C21.5001 4.01004 21.4093 4.0407 21.3411 4.10202C21.2741 4.16334 21.2355 4.25078 21.2355 4.34162C21.2355 4.4336 21.2741 4.52103 21.3411 4.58235C21.4093 4.64367 21.5001 4.67433 21.591 4.66525H21.593ZM4.68495 3.36165C4.28751 3.36051 3.92981 3.60011 3.77766 3.96688C3.62663 4.33365 3.7118 4.75493 3.99341 5.03542C4.27388 5.31362 4.69518 5.39652 5.06082 5.24436C5.42645 5.09333 5.66605 4.73677 5.66718 4.34047C5.66491 3.79881 5.22547 3.36165 4.68495 3.36165ZM4.92341 4.10542C4.79169 3.97484 4.58048 3.97484 4.44876 4.10542C4.38744 4.16788 4.35224 4.25191 4.35111 4.34048C4.35111 4.42905 4.38631 4.51308 4.44876 4.57667C4.58048 4.70612 4.7917 4.70612 4.92341 4.57667C4.98586 4.51308 5.02107 4.42905 5.02107 4.34048C5.01993 4.25191 4.98473 4.16788 4.92341 4.10542ZM19.0608 18.6707H25.7922C25.883 18.6787 25.9739 18.6492 26.0409 18.5878C26.109 18.5265 26.1476 18.4391 26.1476 18.3471C26.1476 18.2563 26.109 18.1688 26.0409 18.1075C25.9739 18.0462 25.883 18.0155 25.7922 18.0246H19.0597C18.9688 18.0155 18.878 18.0462 18.811 18.1075C18.7428 18.1688 18.7042 18.2563 18.7042 18.3471C18.7042 18.4391 18.7428 18.5265 18.811 18.5878C18.878 18.6492 18.9688 18.6787 19.0597 18.6707H19.0608ZM6.67107 12.5513H9.31231L9.31117 12.5502C9.40202 12.5593 9.49286 12.5286 9.56099 12.4673C9.62799 12.406 9.66659 12.3185 9.66659 12.2277C9.66659 12.1357 9.62799 12.0483 9.56099 11.9869C9.49286 11.9256 9.40202 11.8961 9.31117 11.9041H6.66994C6.5791 11.8961 6.48825 11.9256 6.42126 11.9869C6.35312 12.0483 6.31452 12.1357 6.31452 12.2277C6.31452 12.3185 6.35312 12.406 6.42126 12.4673C6.48825 12.5286 6.5791 12.5593 6.66994 12.5502L6.67107 12.5513ZM6.67107 11.6735L8.18473 11.6724C8.27671 11.6804 8.36641 11.6508 8.43454 11.5895C8.50268 11.5282 8.54128 11.4408 8.54128 11.3488C8.54128 11.2579 8.50268 11.1705 8.43454 11.1092C8.36641 11.0479 8.2767 11.0172 8.18473 11.0263H6.68584C6.595 11.0172 6.50416 11.0479 6.43602 11.1092C6.36903 11.1705 6.33042 11.2579 6.33042 11.3488C6.33042 11.4408 6.36903 11.5282 6.43602 11.5895C6.50416 11.6508 6.595 11.6804 6.68584 11.6724L6.67107 11.6735ZM4.29327 10.789V10.7878C4.12067 10.7958 3.98554 10.9389 3.98667 11.1126V12.465C3.98667 12.5456 4.0196 12.624 4.07638 12.6807C4.13429 12.7387 4.2115 12.7705 4.29326 12.7705H5.64567C5.81827 12.7727 5.96133 12.6376 5.9693 12.465V11.1183C5.97043 11.032 5.93637 10.9491 5.87505 10.8877C5.81487 10.8264 5.73197 10.7935 5.64567 10.7935L4.29327 10.789ZM5.32434 11.4351L4.6169 11.4328V12.1391H5.3232L5.32434 11.4397L5.32434 11.4351ZM6.67107 9.96004H9.31231L9.31117 9.95891C9.40202 9.96685 9.49286 9.93733 9.56099 9.87601C9.62799 9.81469 9.66659 9.72726 9.66659 9.63528C9.66659 9.54444 9.62799 9.457 9.56099 9.39568C9.49286 9.33436 9.40202 9.3037 9.31117 9.31279H6.66994C6.5791 9.3037 6.48825 9.33436 6.42126 9.39568C6.35312 9.457 6.31452 9.54444 6.31452 9.63528C6.31452 9.72726 6.35312 9.81469 6.42126 9.87601C6.48825 9.93733 6.5791 9.96685 6.66994 9.95891L6.67107 9.96004ZM6.67107 9.08228L8.18473 9.08001C8.27671 9.0891 8.36641 9.05957 8.43454 8.99712C8.50268 8.9358 8.54128 8.8495 8.54128 8.75752C8.54128 8.66554 8.50268 8.57924 8.43454 8.51679C8.36641 8.45547 8.2767 8.42595 8.18473 8.43503H6.68584C6.595 8.42595 6.50416 8.45547 6.43602 8.51679C6.36903 8.57924 6.33042 8.66554 6.33042 8.75752C6.33042 8.8495 6.36903 8.9358 6.43602 8.99712C6.50416 9.05957 6.595 9.0891 6.68584 9.08001L6.67107 9.08228ZM4.29327 8.20113V8.19886C4.20924 8.19886 4.12862 8.23292 4.07071 8.29424C4.01279 8.35442 3.98213 8.43618 3.98668 8.52021V9.87261C3.98554 10.0452 4.12067 10.1894 4.29327 10.1974H5.64568C5.73198 10.1985 5.81487 10.1644 5.87506 10.1031C5.93638 10.0418 5.97044 9.95892 5.9693 9.87262V8.53838C5.9693 8.45321 5.93524 8.37032 5.87506 8.31014C5.81374 8.24995 5.73084 8.21702 5.64568 8.21702L4.29327 8.20113ZM5.32434 8.84496H4.6169V9.55126H5.3232L5.32434 8.84496ZM22.4231 7.79232C20.4393 7.78778 18.728 9.18563 18.3373 11.1307C17.9456 13.0758 18.9835 15.0254 20.8151 15.7885C22.6455 16.5516 24.761 15.9145 25.8671 14.268C26.9719 12.6203 26.7607 10.4221 25.3606 9.0163C24.5839 8.23278 23.5255 7.79232 22.4231 7.79232ZM24.9042 9.46609C23.721 8.28287 21.8667 8.09892 20.4746 9.02891C19.0824 9.95777 18.5397 11.7417 19.179 13.2882C19.8183 14.8347 21.4614 15.7148 23.1034 15.3912C24.7453 15.0664 25.9297 13.6277 25.9331 11.954C25.9331 11.0229 25.5629 10.1304 24.9043 9.47173L24.9042 9.46609ZM24.5988 12.4707C24.6896 12.4174 24.7657 12.3413 24.8191 12.2504C24.9326 12.0619 24.9326 11.8269 24.8191 11.6384C24.7714 11.5543 24.7044 11.4839 24.6226 11.4328H24.5976L21.443 9.59669L21.4441 9.59782C21.2556 9.48314 21.0194 9.48314 20.8321 9.59782C20.7401 9.65006 20.664 9.72614 20.6118 9.81812C20.5561 9.9101 20.5266 10.0157 20.5289 10.1236V13.7744C20.5289 13.8709 20.5516 13.9663 20.5959 14.0526L20.6106 14.0776H20.6118C20.664 14.1696 20.7401 14.2457 20.8321 14.2979C20.9252 14.3513 21.0297 14.3797 21.1375 14.3808C21.2352 14.3808 21.3306 14.3558 21.4157 14.3104H21.4407L24.5953 12.4742L24.5988 12.4707ZM21.1808 13.6948L24.2159 11.945L21.1808 10.1917V13.7039V13.6948ZM1.6393 6.03556H27.8883V3.53511C27.886 3.04456 27.4886 2.64712 26.998 2.64485H2.51822C2.02654 2.64712 1.6291 3.04456 1.62683 3.53511V6.03556H1.6393ZM27.8871 6.68169H1.6393V25.4758C1.64157 25.9663 2.03901 26.3638 2.52956 26.366H27.0094C27.501 26.3637 27.8985 25.9663 27.9007 25.4758V6.68169H27.8871ZM3.95237 15.8148C3.36984 15.8148 2.89746 16.2883 2.89746 16.8708C2.89746 17.4533 3.36984 17.9269 3.95237 17.9269C4.53603 17.9269 5.00841 17.4533 5.00841 16.8708C5.00955 16.7516 4.99024 16.6335 4.9505 16.5222L6.45281 15.3867C6.84912 15.666 7.38394 15.6399 7.75071 15.322L9.14288 16.1884C9.12245 16.2701 9.11223 16.3553 9.11223 16.4393C9.11223 17.023 9.58461 17.4954 10.1683 17.4954C10.7508 17.4954 11.2232 17.023 11.2232 16.4393C11.2266 16.2429 11.1743 16.051 11.0733 15.8829L12.8481 13.8753C12.9833 13.9344 13.1297 13.965 13.2762 13.9639C13.5556 13.9662 13.8236 13.856 14.02 13.6584C14.0291 13.6527 14.0359 13.6448 14.0416 13.6368L15.8505 14.4999C15.8471 14.5464 15.8471 14.593 15.8505 14.6407C15.8505 15.2232 16.3229 15.6956 16.9054 15.6956C17.195 15.7115 17.4789 15.607 17.6889 15.4083C17.899 15.2084 18.0182 14.9314 18.0182 14.6418C18.0182 14.3523 17.899 14.0752 17.6889 13.8753C17.4788 13.6766 17.195 13.5721 16.9054 13.588C16.6261 13.5846 16.3569 13.6948 16.1594 13.8935C16.1503 13.8992 16.1435 13.906 16.1378 13.9151L14.3289 13.0521C14.3323 13.0044 14.3323 12.9567 14.3289 12.9079C14.2994 12.348 13.8361 11.9097 13.2751 11.9097C12.7141 11.9097 12.2509 12.348 12.2213 12.9079C12.2202 13.0986 12.2702 13.286 12.3678 13.4495L10.593 15.4571C10.459 15.3981 10.3148 15.3674 10.1683 15.3685C9.91507 15.3674 9.67094 15.4571 9.47902 15.6229L8.08685 14.7724V14.7712C8.10615 14.6895 8.11637 14.6055 8.11751 14.5203C8.11751 13.9378 7.64513 13.4654 7.06147 13.4654C6.47894 13.4654 6.00656 13.9378 6.00656 14.5203C6.00656 14.6395 6.02587 14.7576 6.06448 14.87L4.56216 16.0055V16.0044C4.38274 15.8784 4.16925 15.8102 3.9501 15.8125L3.95237 15.8148ZM4.24307 16.5801C4.16585 16.504 4.06138 16.4609 3.95237 16.4609C3.7264 16.4609 3.54243 16.6448 3.54243 16.8708C3.54243 17.0968 3.72639 17.2808 3.95237 17.2808C4.11929 17.2819 4.26917 17.182 4.33277 17.0275C4.39636 16.8742 4.36116 16.6971 4.24307 16.5801ZM7.35206 14.233C7.27144 14.1535 7.16015 14.1103 7.0466 14.1137C6.8263 14.1217 6.65256 14.3034 6.65482 14.5237C6.65482 14.6327 6.69798 14.7372 6.77406 14.8144C6.85127 14.8916 6.95574 14.9336 7.06475 14.9336C7.17376 14.9348 7.27823 14.8916 7.35545 14.8144C7.43266 14.7372 7.47581 14.6327 7.47468 14.5237C7.47922 14.4101 7.43607 14.2989 7.35545 14.2182L7.35206 14.233ZM10.4579 16.1361H10.459C10.3772 16.0567 10.2671 16.0124 10.1524 16.0169C10.0434 16.0169 9.93891 16.0601 9.8617 16.1361C9.78107 16.2179 9.73792 16.328 9.74247 16.4427C9.74247 16.6687 9.92642 16.8527 10.1524 16.8527C10.3784 16.8527 10.5623 16.6687 10.5623 16.4427C10.5669 16.328 10.5237 16.2179 10.4431 16.1361H10.4579ZM13.5648 12.6239C13.4467 12.5093 13.2718 12.4752 13.1197 12.5376C12.9675 12.6001 12.8676 12.7466 12.8642 12.9112C12.8585 13.0259 12.9028 13.1372 12.9857 13.2178C13.1458 13.3768 13.4047 13.3768 13.5648 13.2178C13.6477 13.1372 13.692 13.0259 13.6863 12.9112C13.6875 12.8022 13.6432 12.6989 13.5648 12.6239ZM3.16109 19.328C2.98282 19.328 2.83746 19.4711 2.83633 19.6493V24.1868C2.83746 24.3606 2.97486 24.5036 3.14859 24.5116H4.76106C4.93252 24.5014 5.06765 24.3594 5.06652 24.1868V19.6493C5.07106 19.5653 5.0404 19.4836 4.98249 19.4234C4.92458 19.3621 4.84509 19.328 4.76106 19.328L3.16109 19.328ZM4.44879 19.9741L3.46996 19.973V23.8657H4.43742L4.43629 19.973L4.44879 19.9741ZM6.26677 16.982V16.9808C6.18275 16.9763 6.10099 17.007 6.03967 17.0649C5.97949 17.1228 5.94542 17.2034 5.94542 17.2874V24.1723C5.94542 24.3494 6.0885 24.4948 6.26678 24.4959H7.87924C8.04503 24.4857 8.17561 24.3528 8.18471 24.187V17.3022C8.17562 17.1307 8.03255 16.9956 7.86108 16.9967L6.26677 16.982ZM7.55787 17.6281L6.57904 17.627V23.8656H7.54651L7.54537 17.627L7.55787 17.6281ZM9.37585 18.8863V18.884C9.20212 18.8829 9.05905 19.018 9.05109 19.1906V24.1871C9.05109 24.3665 9.19644 24.5118 9.37585 24.5118H10.9883C11.1655 24.5096 11.3097 24.3654 11.3097 24.1871V19.2054C11.3097 19.1214 11.2756 19.0419 11.2143 18.984C11.1541 18.9261 11.0712 18.8954 10.9883 18.9L9.37585 18.8863ZM10.6636 19.5324L9.68472 19.5301V23.8656H10.6522L10.651 19.5301L10.6636 19.5324ZM12.469 15.3685C12.2976 15.3776 12.1624 15.5206 12.1624 15.6932V24.1871C12.1624 24.3597 12.2976 24.5016 12.469 24.5118H14.0815C14.253 24.5016 14.3881 24.3597 14.3881 24.1871V15.6932C14.3881 15.5206 14.253 15.3776 14.0815 15.3685H12.469ZM13.7601 16.0146H12.7938V23.8657H13.7613L13.7601 16.0146ZM15.5747 17.4124C15.4032 17.4227 15.2681 17.5646 15.2693 17.7372V24.1872C15.2681 24.3598 15.4032 24.5017 15.5747 24.5119H17.1872C17.3666 24.5119 17.5119 24.3666 17.5119 24.1872V17.7372C17.5119 17.6509 17.4779 17.568 17.4166 17.5078C17.3564 17.4465 17.2735 17.4124 17.1872 17.4124L15.5747 17.4124ZM16.8658 18.0586H15.8995V23.8725H16.8669V18.0586H16.8658ZM17.1724 14.3522C17.0975 14.2739 16.993 14.2296 16.884 14.2296C16.6591 14.2319 16.4763 14.4147 16.474 14.6407C16.474 14.7497 16.5161 14.8541 16.5933 14.9314C16.6705 15.0086 16.775 15.0506 16.884 15.0506C17.1099 15.0483 17.2927 14.8655 17.295 14.6406C17.295 14.5316 17.2508 14.4272 17.1724 14.3522ZM2.48328 25.4146H17.8515C18.0173 25.3976 18.1445 25.2579 18.1445 25.091C18.1445 24.9241 18.0173 24.7844 17.8515 24.7685H2.48444C2.31866 24.7844 2.19148 24.9241 2.19148 25.091C2.19148 25.2579 2.31866 25.3976 2.48444 25.4146H2.48328Z" fill="url(#paint0_linear_1774_183)"/>
<defs>
<linearGradient id="paint0_linear_1774_183" x1="1.00008" y1="14.5602" x2="28.5407" y2="14.5602" gradientUnits="userSpaceOnUse">
<stop stop-color="#1685FF"/>
<stop offset="0.5" stop-color="#8B5CF6"/>
<stop offset="1" stop-color="#D946EF"/>
</linearGradient>
</defs>
</svg>
