<?xml version="1.0" encoding="UTF-8" standalone="no"?><!DOCTYPE svg PUBLIC "-//W3C//DTD SVG 1.1//EN" "http://www.w3.org/Graphics/SVG/1.1/DTD/svg11.dtd"><svg width="100%" height="100%" viewBox="0 0 11 11" version="1.1" xmlns="http://www.w3.org/2000/svg" xmlns:xlink="http://www.w3.org/1999/xlink" xml:space="preserve" xmlns:serif="http://www.serif.com/" style="fill-rule:evenodd;clip-rule:evenodd;stroke-linejoin:round;stroke-miterlimit:2;"><rect id="Artboard1" x="0" y="0" width="10.583" height="10.6" style="fill:none;"/><clipPath id="_clip1"><rect x="0" y="0" width="10.583" height="10.6"/></clipPath><g clip-path="url(#_clip1)"><g><path d="M4.444,0c-0.171,0 -0.312,0.141 -0.312,0.312l0,0.662c-0.378,0.101 -0.741,0.252 -1.08,0.447l-0.468,-0.468c-0.121,-0.121 -0.32,-0.121 -0.441,-0l-1.198,1.198c-0.121,0.121 -0.121,0.32 -0,0.441l0.468,0.469c-0.196,0.339 -0.346,0.702 -0.447,1.08l-0.663,-0c-0.171,-0 -0.311,0.14 -0.311,0.311l-0,1.696c-0,0.171 0.14,0.311 0.311,0.311l0.663,0c0.101,0.378 0.251,0.741 0.447,1.08l-0.468,0.469c-0.121,0.121 -0.121,0.32 -0,0.441l1.198,1.198c0.121,0.121 0.32,0.121 0.441,0l0.468,-0.468c0.339,0.195 0.702,0.346 1.08,0.447l0,0.662c0,0.171 0.141,0.312 0.312,0.312l1.695,-0c0.171,-0 0.312,-0.141 0.312,-0.312l0,-0.662c0.262,-0.07 0.518,-0.163 0.763,-0.28c0.109,-0.052 0.178,-0.161 0.178,-0.282c0,-0.046 -0.01,-0.092 -0.03,-0.133c-0.051,-0.109 -0.161,-0.178 -0.282,-0.178c-0.046,-0 -0.092,0.01 -0.133,0.03c-0.278,0.132 -0.57,0.23 -0.871,0.292c-0.144,0.03 -0.248,0.158 -0.248,0.305l-0,0.596l-1.072,0l-0,-0.596c-0,-0.147 -0.104,-0.275 -0.249,-0.305c-0.474,-0.098 -0.926,-0.285 -1.331,-0.551c-0.123,-0.081 -0.287,-0.064 -0.391,0.04l-0.422,0.422l-0.757,-0.758l0.421,-0.421c0.104,-0.104 0.121,-0.268 0.041,-0.391c-0.266,-0.406 -0.453,-0.857 -0.551,-1.332c-0.03,-0.144 -0.158,-0.248 -0.306,-0.248l-0.596,-0l0,-1.072l0.596,0c0.148,0 0.276,-0.104 0.306,-0.248c0.098,-0.475 0.285,-0.926 0.551,-1.332c0.08,-0.123 0.063,-0.287 -0.041,-0.391l-0.421,-0.421l0.757,-0.758l0.422,0.422c0.104,0.104 0.268,0.121 0.391,0.04c0.405,-0.266 0.857,-0.453 1.331,-0.551c0.145,-0.03 0.249,-0.158 0.249,-0.305l-0,-0.596l1.072,-0l-0,0.593c-0,0.147 0.104,0.276 0.248,0.306c0.301,0.062 0.594,0.161 0.872,0.293c0.154,0.073 0.342,0.006 0.415,-0.148c0.02,-0.042 0.031,-0.088 0.031,-0.134c-0,-0.12 -0.07,-0.23 -0.178,-0.281c-0.246,-0.117 -0.502,-0.211 -0.765,-0.282l0,-0.659c0,-0.171 -0.141,-0.312 -0.312,-0.312l-1.695,0Zm4.586,2.381c-0.398,0 -0.741,0.257 -0.87,0.613l-4.528,0c-0.171,0 -0.312,0.141 -0.312,0.312c0,0.171 0.141,0.312 0.312,0.312l4.528,-0c0.129,0.356 0.472,0.613 0.87,0.613c0.398,-0 0.741,-0.257 0.87,-0.613l0.38,-0c0.171,-0 0.312,-0.141 0.312,-0.312c-0,-0.171 -0.141,-0.312 -0.312,-0.312l-0.38,0c-0.129,-0.356 -0.472,-0.613 -0.87,-0.613Zm0,0.624c0.17,-0 0.302,0.131 0.302,0.301c-0,0.17 -0.132,0.301 -0.302,0.301c-0.169,0 -0.3,-0.13 -0.301,-0.299c-0,-0 -0,-0.001 -0,-0.002c-0,-0 -0,-0.001 -0,-0.001c0,-0.17 0.131,-0.3 0.301,-0.3l0,-0Zm-4.178,1.37c-0.398,0 -0.741,0.257 -0.87,0.613l-0.35,0c-0.171,0 -0.312,0.141 -0.312,0.312c0,0 0,0 0,0c0,0.171 0.141,0.312 0.312,0.312l0.35,-0c0.129,0.356 0.472,0.613 0.87,0.613c0.398,-0 0.74,-0.257 0.87,-0.613l4.558,-0c0.171,-0 0.312,-0.141 0.312,-0.312c-0,0 -0,0 -0,0c-0,-0.171 -0.141,-0.312 -0.312,-0.312l-4.558,0c-0.13,-0.356 -0.472,-0.613 -0.87,-0.613Zm-0,0.624c0.169,-0 0.3,0.13 0.301,0.299c-0,0.001 -0,0.001 -0,0.002c-0,0.001 -0,0.002 -0,0.003c-0.001,0.169 -0.132,0.299 -0.301,0.299c-0.171,-0 -0.302,-0.131 -0.302,-0.301c0,-0.171 0.131,-0.302 0.302,-0.302l-0,-0Zm4.178,1.37c-0.398,0 -0.741,0.258 -0.87,0.613l-4.528,0c-0.171,0 -0.312,0.141 -0.312,0.312c0,0 0,0 0,0c0,0.171 0.141,0.312 0.312,0.312l4.528,-0c0.129,0.356 0.472,0.613 0.87,0.613c0.398,-0 0.741,-0.257 0.87,-0.613l0.38,-0c0.171,-0 0.312,-0.141 0.312,-0.312c-0,0 -0,0 -0,0c-0,-0.171 -0.141,-0.312 -0.312,-0.312l-0.38,0c-0.129,-0.355 -0.472,-0.613 -0.87,-0.613Zm0,0.624c0.17,-0 0.302,0.131 0.302,0.301c-0,0.17 -0.132,0.301 -0.302,0.301c-0.169,0 -0.3,-0.129 -0.301,-0.298c-0,-0.001 -0,-0.002 -0,-0.003c-0,-0 -0,-0.001 -0,-0.001c0,-0.169 0.131,-0.3 0.301,-0.3l0,-0Z" style="fill:#fff;fill-rule:nonzero;"/></g></g></svg>