<?xml version="1.0" encoding="UTF-8" standalone="no"?><!DOCTYPE svg PUBLIC "-//W3C//DTD SVG 1.1//EN" "http://www.w3.org/Graphics/SVG/1.1/DTD/svg11.dtd"><svg width="100%" height="100%" viewBox="0 0 200 200" version="1.1" xmlns="http://www.w3.org/2000/svg" xmlns:xlink="http://www.w3.org/1999/xlink" xml:space="preserve" xmlns:serif="http://www.serif.com/" style="fill-rule:evenodd;clip-rule:evenodd;stroke-linejoin:round;stroke-miterlimit:2;"><g id="Layer6"></g><g id="Layer7"><path d="M178.774,115.275c0.824,-4.629 1.248,-9.386 1.248,-14.127c0,-4.741 -0.416,-9.499 -1.248,-14.128c-0.256,-1.447 0.712,-2.838 2.159,-3.094c1.455,-0.256 2.838,0.712 3.094,2.159c0.88,4.941 1.327,10.01 1.327,15.063c0,5.053 -0.447,10.122 -1.327,15.063c-0.232,1.296 -1.351,2.199 -2.622,2.199c-0.152,0 -0.312,-0.016 -0.472,-0.04c-1.447,-0.256 -2.414,-1.647 -2.159,-3.094l0,-0.001Zm-92.857,-92.857c9.266,-1.655 18.997,-1.655 28.256,0c0.16,0.032 0.312,0.04 0.472,0.04c1.263,0 2.39,-0.903 2.622,-2.199c0.256,-1.447 -0.711,-2.838 -2.159,-3.094c-9.874,-1.759 -20.252,-1.759 -30.126,0c-1.448,0.256 -2.415,1.647 -2.159,3.094c0.256,1.448 1.647,2.415 3.094,2.159l0,0Zm-66.601,60.78c-1.447,-0.272 -2.838,0.68 -3.11,2.127c-0.976,5.181 -1.463,10.506 -1.463,15.815c0,15.207 4.053,30.143 11.729,43.183c0.496,0.848 1.391,1.311 2.303,1.311c0.455,0 0.927,-0.12 1.351,-0.367c1.271,-0.744 1.695,-2.383 0.943,-3.654c-7.187,-12.225 -10.993,-26.224 -10.993,-40.48c0,-4.989 0.463,-9.978 1.375,-14.831c0.272,-1.448 -0.68,-2.839 -2.127,-3.111l-0.008,0.007Zm95.201,96.607c-4.741,0.864 -9.61,1.303 -14.472,1.303c-14.255,0 -28.247,-3.798 -40.479,-10.993c-1.271,-0.744 -2.903,-0.32 -3.646,0.943c-0.744,1.271 -0.32,2.903 0.943,3.654c13.049,7.676 27.976,11.729 43.184,11.729c5.181,0 10.378,-0.471 15.431,-1.391c1.447,-0.264 2.407,-1.655 2.143,-3.102c-0.264,-1.447 -1.647,-2.407 -3.102,-2.143l-0.002,0Zm26.113,-78.667c0,22.38 -18.205,40.584 -40.584,40.584c-22.379,0 -40.584,-18.205 -40.584,-40.584c0,-22.379 18.205,-40.584 40.584,-40.584c22.379,0 40.584,18.205 40.584,40.584Zm-5.333,0c0,-19.436 -15.815,-35.252 -35.252,-35.252c-19.437,0 -35.252,15.815 -35.252,35.252c0,19.437 15.815,35.252 35.252,35.252c19.437,0 35.252,-15.815 35.252,-35.252Zm-45.637,-3.19l0,22.38c0,1.471 -1.192,2.67 -2.671,2.67l-10.386,0c-1.471,0 -2.67,-1.191 -2.67,-2.67l0,-22.38c0,-1.471 1.191,-2.67 2.67,-2.67l10.386,0c1.471,0 2.671,1.191 2.671,2.67Zm-5.333,2.671l-5.054,0l0,17.038l5.054,0l0,-17.038Zm23.579,-24.378l0,44.086c0,1.471 -1.192,2.671 -2.671,2.671l-10.386,0c-1.471,0 -2.67,-1.192 -2.67,-2.671l0,-44.086c0,-1.471 1.191,-2.67 2.67,-2.67l10.386,0c1.471,0 2.671,1.191 2.671,2.67Zm-5.333,2.671l-5.053,0l0,38.754l5.053,0l0,-38.754Zm23.579,8.762l0,32.661c0,1.471 -1.191,2.671 -2.67,2.671l-10.386,0c-1.471,0 -2.671,-1.192 -2.671,-2.671l0,-32.661c0,-1.471 1.191,-2.67 2.671,-2.67l10.386,0c1.471,0 2.67,1.191 2.67,2.67Zm-5.333,2.671l-5.053,0l0,27.329l5.053,0l0,-27.329Zm75.236,70.488c0,20.028 -16.294,36.322 -36.322,36.322c-20.028,0 -36.323,-16.294 -36.323,-36.322c0,-4.925 0.984,-9.619 2.767,-13.904c-7.708,4.413 -16.63,6.948 -26.13,6.948c-9.499,0 -18.797,-2.551 -26.911,-7.38c-2.279,-1.351 -5.045,-1.064 -6.98,0.703c1.175,2.847 0.608,6.253 -1.703,8.563l-29.016,29.016c-2.614,2.614 -6.06,3.926 -9.498,3.926c-3.438,0 -6.876,-1.312 -9.498,-3.926c-5.237,-5.237 -5.237,-13.76 0,-18.997l29.015,-29.015c1.479,-1.48 3.454,-2.295 5.557,-2.295c1.047,0 2.063,0.2 3.006,0.592c1.759,-1.935 2.055,-4.71 0.696,-6.98c-4.83,-8.116 -7.38,-17.422 -7.38,-26.912c0,-9.489 2.527,-18.421 6.948,-26.129c-4.286,1.783 -8.979,2.766 -13.904,2.766c-20.028,0 -36.323,-16.294 -36.323,-36.322c-0.008,-20.045 16.287,-36.339 36.307,-36.339c20.028,0 36.322,16.294 36.322,36.322c0,4.925 -0.983,9.619 -2.766,13.904c7.707,-4.413 16.63,-6.948 26.129,-6.948c9.499,0 18.421,2.527 26.13,6.948c-1.783,-4.285 -2.767,-8.979 -2.767,-13.904c0,-20.028 16.295,-36.322 36.323,-36.322c20.028,0 36.322,16.294 36.322,36.322c0,20.028 -16.294,36.323 -36.322,36.323c-4.925,0 -9.619,-0.984 -13.904,-2.767c4.413,7.708 6.948,16.631 6.948,26.13c0,9.506 -2.527,18.421 -6.948,26.129c4.285,-1.783 8.979,-2.766 13.904,-2.766c20.028,0 36.322,16.294 36.322,36.322l-0.001,-0.008Zm-36.322,-88.381c8.099,0 15.479,-3.126 21.004,-8.227c-2.191,-9.803 -10.809,-16.783 -21.004,-16.783c-10.194,0 -18.813,6.98 -21.004,16.783c5.524,5.101 12.904,8.227 21.004,8.227Zm8.859,-39.281c0,-4.885 -3.974,-8.858 -8.859,-8.858c-4.885,0 -8.859,3.973 -8.859,8.858c0,4.886 3.974,8.859 8.859,8.859c4.885,0 8.859,-3.973 8.859,-8.859Zm-39.85,8.3c0,6.74 2.167,12.976 5.837,18.069c1.575,-4.19 4.182,-7.955 7.62,-10.922c2.422,-2.086 5.181,-3.709 8.139,-4.813c-2.942,-2.598 -4.805,-6.404 -4.805,-10.634c0,-7.827 6.364,-14.191 14.192,-14.191c7.827,0 14.191,6.364 14.191,14.191c0,4.23 -1.863,8.028 -4.805,10.634c2.958,1.104 5.717,2.719 8.139,4.813c3.438,2.967 6.045,6.733 7.62,10.922c3.67,-5.093 5.837,-11.329 5.837,-18.069c0,-17.086 -13.896,-30.991 -30.991,-30.991c-17.086,0 -30.991,13.896 -30.991,30.991l0.017,0Zm-119.361,0c0,6.74 2.167,12.976 5.837,18.069c1.575,-4.19 4.181,-7.955 7.619,-10.922c2.423,-2.086 5.181,-3.709 8.14,-4.813c-2.943,-2.598 -4.806,-6.404 -4.806,-10.634c0,-7.827 6.365,-14.191 14.192,-14.191c7.827,0 14.192,6.364 14.192,14.191c0,4.23 -1.863,8.028 -4.805,10.634c2.958,1.104 5.716,2.719 8.139,4.813c3.438,2.967 6.044,6.733 7.619,10.922c3.67,-5.093 5.837,-11.329 5.837,-18.069c0,-17.086 -13.896,-30.991 -30.99,-30.991c-17.087,0 -30.991,13.896 -30.991,30.991l0.017,0Zm39.849,-8.3c0,-4.885 -3.973,-8.858 -8.858,-8.858c-4.886,0 -8.859,3.973 -8.859,8.858c0,4.886 3.973,8.859 8.859,8.859c4.885,0 8.858,-3.973 8.858,-8.859Zm-8.858,39.281c8.099,0 15.478,-3.126 21.004,-8.227c-2.191,-9.803 -10.81,-16.783 -21.004,-16.783c-10.195,0 -18.813,6.98 -21.005,16.783c5.525,5.101 12.905,8.227 21.005,8.227Zm20.308,75.946l-7.884,-7.883c-0.472,-0.472 -1.111,-0.736 -1.783,-0.736c-0.679,0 -1.311,0.264 -1.783,0.736l-29.015,29.015c-3.158,3.159 -3.158,8.299 0,11.458c3.158,3.158 8.299,3.158 11.457,0l29.016,-29.016c0.983,-0.983 0.983,-2.59 0,-3.574l-0.008,0Zm39.376,0.136c26.13,0 47.388,-21.26 47.388,-47.387c0,-26.128 -21.26,-47.388 -47.388,-47.388c-26.127,0 -47.388,21.26 -47.388,47.388c0,8.531 2.295,16.894 6.629,24.185c2.518,4.237 2.054,9.362 -1.104,13.04l4.638,4.637c3.677,-3.15 8.802,-3.622 13.04,-1.103c7.292,4.333 15.655,6.628 24.185,6.628l0,0Zm59.685,43.28c8.099,0 15.479,-3.126 21.004,-8.227c-2.191,-9.803 -10.809,-16.782 -21.004,-16.782c-10.194,0 -18.813,6.98 -21.004,16.782c5.524,5.101 12.904,8.227 21.004,8.227Zm8.859,-39.28c0,-4.885 -3.974,-8.859 -8.859,-8.859c-4.885,0 -8.859,3.974 -8.859,8.859c0,4.885 3.974,8.858 8.859,8.858c4.885,0 8.859,-3.973 8.859,-8.858Zm22.13,8.299c0,-17.086 -13.896,-30.991 -30.991,-30.991c-17.086,0 -30.991,13.896 -30.991,30.991c0,6.74 2.167,12.976 5.837,18.069c1.575,-4.189 4.182,-7.955 7.62,-10.921c2.422,-2.087 5.181,-3.71 8.139,-4.814c-2.942,-2.598 -4.805,-6.404 -4.805,-10.633c0,-7.828 6.364,-14.192 14.191,-14.192c7.828,0 14.192,6.364 14.192,14.192c0,4.229 -1.863,8.027 -4.805,10.633c2.958,1.104 5.717,2.719 8.139,4.814c3.438,2.966 6.045,6.732 7.62,10.921c3.67,-5.093 5.836,-11.329 5.836,-18.069l0.018,0Z" style="fill:url(#_Linear1);fill-rule:nonzero;"/></g><defs><linearGradient id="_Linear1" x1="0" y1="0" x2="1" y2="0" gradientUnits="userSpaceOnUse" gradientTransform="matrix(167.448,175.774,-175.774,167.448,15.8244,15.7299)"><stop offset="0" style="stop-color:#4d7aff;stop-opacity:1"/><stop offset="1" style="stop-color:#d748f0;stop-opacity:1"/></linearGradient></defs></svg>