<svg width="51" height="50" viewBox="0 0 51 50" fill="none" xmlns="http://www.w3.org/2000/svg">
<path d="M40.2854 0.195758C39.8892 0.21883 39.5525 0.492655 39.453 0.876373L38.1436 5.76211H25.5143C25.4846 5.76059 25.4542 5.76059 25.4241 5.76211C24.9952 5.78518 24.6391 6.10181 24.5702 6.5259L23.147 9.48333H20.4385C19.9373 9.48727 19.5336 9.89558 19.5348 10.3965V14.6274C19.5375 15.1259 19.9401 15.5293 20.4385 15.5333H22.0441L22.3927 17.9312C20.6896 17.2445 18.832 16.8593 16.8809 16.8593H15.3916C7.23668 16.8593 0.646976 23.4584 0.646976 31.6133V32.4032C0.646066 32.7186 0.808479 33.0119 1.07623 33.1789C0.811211 33.6506 0.646976 34.1849 0.646976 34.7608C0.646976 35.6885 1.04557 36.5252 1.67397 37.1229C1.04587 37.7206 0.646976 38.5576 0.646976 39.485C0.646976 40.2968 0.959355 41.0339 1.4557 41.6076C0.963302 42.0621 0.646976 42.7038 0.646976 43.4197V46.6121C0.646976 47.976 1.77567 49.1023 3.13963 49.1023H29.1712C30.5351 49.1023 31.6614 47.976 31.6614 46.6121V43.4197C31.6614 42.7038 31.3469 42.0621 30.8551 41.6076C31.1156 41.3062 31.3199 40.9571 31.4598 40.5782H43.6836C44.1371 40.5794 44.522 40.2467 44.5873 39.798L48.1376 15.5333H49.7338C50.2359 15.5345 50.6442 15.1292 50.647 14.6274V10.3965C50.6482 9.89164 50.2387 9.48211 49.7338 9.48333H47.0065L45.6143 6.55413C45.553 6.0842 45.1416 5.73964 44.6681 5.76211H44.438L45.6192 1.35329C45.7886 0.753425 45.3192 0.164186 44.6966 0.196062C43.2064 0.209722 41.7292 0.209723 40.2854 0.195758ZM41.03 2.02419H43.5558L42.5549 5.76211H40.0267L41.03 2.02419ZM26.0859 7.58356H44.0919L44.9932 9.48333H25.1755L26.0859 7.58356ZM21.3544 11.302H48.8279V13.7139H21.3544V11.302ZM23.885 15.5333H46.2973L42.894 38.7498H31.5715C31.4228 38.1183 31.0922 37.5552 30.6347 37.1205C31.2625 36.5233 31.6617 35.6882 31.6617 34.7605C31.6617 34.1785 31.496 33.6376 31.2255 33.1619C31.4774 32.9916 31.6277 32.7071 31.6262 32.4029V31.613C31.6262 26.1997 28.714 21.4846 24.3759 18.9175L23.885 15.5333ZM15.3922 18.6874H16.8816C24.0095 18.6874 29.6742 24.3813 29.7525 31.4898H28.415C28.4068 31.4898 28.3995 31.4873 28.391 31.4873L3.92012 31.4898H2.52094C2.59957 24.3816 8.26397 18.6874 15.3922 18.6874ZM3.92042 33.3185H28.3913C29.2094 33.3185 29.8427 33.9414 29.8427 34.7605C29.8427 35.5798 29.2103 36.2119 28.3913 36.2119H25.7113C25.3464 36.2137 25.018 36.4332 24.8765 36.7692L22.2512 43.0423C22.0669 42.7087 21.9151 42.3696 21.7129 42.039C21.3408 41.4306 20.9343 40.8305 20.4938 40.2367C20.0988 39.7039 19.6766 39.1784 19.2203 38.6596C18.5549 37.9031 17.8196 37.1675 17.0075 36.4468C16.8403 36.296 16.6232 36.2125 16.398 36.2119H3.92042C3.10108 36.2119 2.4666 35.5786 2.4666 34.7605C2.4666 33.9424 3.10229 33.3182 3.92042 33.3185ZM3.92042 38.0333H16.0206C16.68 38.6347 17.3005 39.2382 17.849 39.8621C18.1599 40.2154 18.4392 40.5761 18.7194 40.9364H11.977C11.4785 40.9404 11.076 41.3441 11.0733 41.8426V43.607C11.0733 44.124 10.6832 44.5128 10.1674 44.5128C9.65162 44.5128 9.26152 44.1227 9.26152 43.607V41.8426C9.25909 41.3459 8.85929 40.9431 8.36264 40.9364H3.92042C3.10168 40.9364 2.4666 40.3038 2.4666 39.485C2.4666 38.6663 3.10168 38.0333 3.92042 38.0333ZM26.3209 38.0333H28.3913C29.21 38.0333 29.8427 38.666 29.8427 39.4847C29.8427 40.3035 29.21 40.9361 28.3913 40.9361H25.1042L26.3209 38.0333ZM3.14024 42.7551H3.92042H7.4425V43.6067C7.4425 45.1021 8.67228 46.3315 10.1677 46.3315C11.6631 46.3315 12.8929 45.1006 12.8929 43.6067V42.7551H19.9959C20.0454 42.8341 20.104 42.9109 20.1526 42.9901C20.6656 43.8283 21.1243 44.6856 21.5256 45.5538C21.8614 46.2596 22.872 46.2423 23.1835 45.5262L24.3431 42.756H28.3916H29.1718C29.5597 42.756 29.843 43.0323 29.843 43.42V46.6124C29.843 47.0003 29.5597 47.2836 29.1718 47.2836H3.14024C2.75227 47.2836 2.4666 47 2.4666 46.6124V43.42C2.4666 43.032 2.75227 42.756 3.14024 42.756V42.7551Z" fill="url(#paint0_linear_599_51)"/>
<path d="M15.0346 21.915C13.7016 21.915 12.6053 23.0112 12.6053 24.3442C12.6053 25.6772 13.7016 26.7826 15.0346 26.7826C16.3675 26.7826 17.4726 25.6772 17.4726 24.3442C17.4729 23.0112 16.3679 21.915 15.0346 21.915ZM15.0346 23.735C15.3834 23.735 15.6529 23.9957 15.6529 24.3445C15.6529 24.6934 15.3831 24.9629 15.0346 24.9629C14.6857 24.9629 14.425 24.6931 14.425 24.3445C14.4253 23.9957 14.686 23.735 15.0346 23.735Z" fill="url(#paint1_linear_599_51)"/>
<path d="M9.1543 24.5688C7.82131 24.5688 6.7251 25.6651 6.7251 26.9981C6.7251 28.3311 7.82131 29.4273 9.1543 29.4273C10.4873 29.4273 11.5926 28.3311 11.5923 26.9981C11.5926 25.6651 10.4873 24.5688 9.1543 24.5688ZM9.1543 26.3885C9.50311 26.3885 9.77269 26.6492 9.77269 26.9981C9.77269 27.3469 9.50281 27.6076 9.1543 27.6076C8.8055 27.6076 8.54473 27.3469 8.54473 26.9981C8.54473 26.6492 8.8058 26.3885 9.1543 26.3885Z" fill="url(#paint2_linear_599_51)"/>
<defs>
<linearGradient id="paint0_linear_599_51" x1="0.647193" y1="24.7664" x2="50.6481" y2="24.7664" gradientUnits="userSpaceOnUse">
<stop stop-color="#1685FF"/>
<stop offset="0.5" stop-color="#8B5CF6"/>
<stop offset="1" stop-color="#D946EF"/>
</linearGradient>
<linearGradient id="paint1_linear_599_51" x1="12.6054" y1="24.3605" x2="17.4727" y2="24.3605" gradientUnits="userSpaceOnUse">
<stop stop-color="#1685FF"/>
<stop offset="0.5" stop-color="#8B5CF6"/>
<stop offset="1" stop-color="#D946EF"/>
</linearGradient>
<linearGradient id="paint2_linear_599_51" x1="6.72512" y1="27.0098" x2="11.5924" y2="27.0098" gradientUnits="userSpaceOnUse">
<stop stop-color="#1685FF"/>
<stop offset="0.5" stop-color="#8B5CF6"/>
<stop offset="1" stop-color="#D946EF"/>
</linearGradient>
</defs>
</svg>
