<svg width="30" height="30" viewBox="0 0 30 30" fill="none" xmlns="http://www.w3.org/2000/svg">
<path fill-rule="evenodd" clip-rule="evenodd" d="M8.78978 17.7267V11.5315C8.78978 10.9398 9.27274 10.4568 9.86444 10.4568H20.0402C20.6319 10.4568 21.1149 10.9398 21.1149 11.5315V17.7267H21.6846C21.8519 17.7267 21.9876 17.8624 21.9876 18.0297V19.4417C21.9876 20.0691 21.4753 20.5814 20.8479 20.5814H20.286L19.9704 20.897C19.7381 21.1293 19.3598 21.1293 19.1275 20.897L18.8118 20.5814H9.05682C8.42937 20.5814 7.9171 20.0691 7.9171 19.4417V18.0297C7.9171 17.8624 8.05277 17.7267 8.22012 17.7267H8.78978ZM12.5799 24.0765C12.4364 24.0765 12.3201 23.9602 12.3201 23.8167C12.3201 23.6733 12.4364 23.557 12.5799 23.557H15.4678C15.6112 23.557 15.7275 23.6733 15.7275 23.8167C15.7275 23.9602 15.6112 24.0765 15.4678 24.0765H12.5799ZM16.3509 24.0765C16.2074 24.0765 16.0911 23.9602 16.0911 23.8167C16.0911 23.6733 16.2074 23.557 16.3509 23.557H17.3248C17.4682 23.557 17.5845 23.6733 17.5845 23.8167C17.5845 23.9602 17.4682 24.0765 17.3248 24.0765H16.3509ZM12.5748 22.1535C12.4319 22.1506 12.3184 22.0326 12.3212 21.8897C12.324 21.7468 12.4421 21.6332 12.585 21.636L13.1745 21.6491C13.3174 21.6519 13.431 21.77 13.4282 21.9129C13.4254 22.0558 13.3073 22.1693 13.1644 22.1665L12.5748 22.1535ZM14.0523 22.1675C13.9088 22.1675 13.7926 22.0512 13.7926 21.9078C13.7926 21.7643 13.9088 21.648 14.0523 21.648H17.3508C17.4942 21.648 17.6105 21.7643 17.6105 21.9078C17.6105 22.0512 17.4942 22.1675 17.3508 22.1675H14.0523ZM10.8137 23.1155C10.6702 23.1155 10.554 22.9992 10.554 22.8558C10.554 22.7123 10.6702 22.596 10.8137 22.596H19.091C19.2344 22.596 19.3507 22.7123 19.3507 22.8558C19.3507 22.9992 19.2344 23.1155 19.091 23.1155H10.8137ZM12.5799 9.86953C12.4364 9.86953 12.3201 9.75326 12.3201 9.60981C12.3201 9.46635 12.4364 9.35008 12.5799 9.35008H15.6236C15.7671 9.35008 15.8834 9.46635 15.8834 9.60981C15.8834 9.75326 15.7671 9.86953 15.6236 9.86953H12.5799ZM16.4677 9.86953C16.3243 9.86953 16.208 9.75326 16.208 9.60981C16.208 9.46635 16.3243 9.35008 16.4677 9.35008H17.3248C17.4682 9.35008 17.5845 9.46635 17.5845 9.60981C17.5845 9.75326 17.4682 9.86953 17.3248 9.86953H16.4677ZM12.5799 7.94752C12.4364 7.94752 12.3201 7.83125 12.3201 7.6878C12.3201 7.54434 12.4364 7.42807 12.5799 7.42807H13.4809C13.6244 7.42807 13.7406 7.54434 13.7406 7.6878C13.7406 7.83125 13.6244 7.94752 13.4809 7.94752H12.5799ZM14.286 7.94752C14.1426 7.94752 14.0263 7.83125 14.0263 7.6878C14.0263 7.54434 14.1426 7.42807 14.286 7.42807H17.3248C17.4682 7.42807 17.5845 7.54434 17.5845 7.6878C17.5845 7.83125 17.4682 7.94752 17.3248 7.94752H14.286ZM10.0175 8.90855C9.87409 8.90855 9.75782 8.79228 9.75782 8.64882C9.75782 8.50537 9.87409 8.3891 10.0175 8.3891H19.8871C20.0306 8.3891 20.1468 8.50537 20.1468 8.64882C20.1468 8.79228 20.0306 8.90855 19.8871 8.90855H10.0175ZM23.9197 23.6678H23.5533C23.525 23.836 23.4871 23.9908 23.4416 24.127C23.6362 24.0156 23.8006 23.8576 23.9197 23.6678ZM23.0271 23.6678H22.5051C22.5295 23.7926 22.5599 23.9056 22.5954 24.0039C22.6629 24.1906 22.7251 24.3061 22.7661 24.3061C22.807 24.3061 22.8693 24.1906 22.9368 24.0039C22.9723 23.9056 23.0027 23.7925 23.0271 23.6678ZM21.9789 23.6678H21.6125C21.7317 23.8576 21.896 24.0156 22.0906 24.127C22.0451 23.9908 22.0072 23.836 21.9789 23.6678ZM21.42 23.1483H21.9251V22.7416H21.42C21.3999 22.8761 21.3999 23.0139 21.42 23.1483ZM22.4449 23.1483H23.0873V22.7416H22.4449V23.1483ZM23.6072 23.1483H24.1122C24.1324 23.0138 24.1324 22.8761 24.1122 22.7416H23.6072V23.1483ZM21.6125 22.2221H21.9789C22.0072 22.0539 22.0451 21.8991 22.0906 21.763C21.896 21.8744 21.7316 22.0324 21.6125 22.2221ZM22.5051 22.2221H23.0271C23.0027 22.0974 22.9723 21.9843 22.9368 21.8861C22.8693 21.6993 22.8071 21.5838 22.7661 21.5838C22.7251 21.5838 22.6629 21.6993 22.5954 21.8861C22.5599 21.9843 22.5295 22.0974 22.5051 22.2221ZM23.5533 22.2221H23.9197C23.8006 22.0324 23.6362 21.8744 23.4416 21.763C23.4871 21.8991 23.525 22.0539 23.5533 22.2221ZM22.7661 21.0643C21.7276 21.0643 20.8855 21.9064 20.8855 22.945C20.8855 23.9835 21.7275 24.8256 22.7661 24.8256C23.8047 24.8256 24.6467 23.9836 24.6467 22.945C24.6467 21.9064 23.8047 21.0643 22.7661 21.0643ZM23.0461 20.0345V16.9566C23.0461 16.8132 22.9298 16.6969 22.7863 16.6969H21.7455C21.602 16.6969 21.4858 16.8132 21.4858 16.9566C21.4858 17.1001 21.602 17.2163 21.7455 17.2163H22.5266V20.0345C22.5266 20.1779 22.6428 20.2942 22.7863 20.2942C22.9297 20.2942 23.0461 20.1779 23.0461 20.0345ZM7.51882 22.3077C7.62019 22.2064 7.78464 22.2064 7.88607 22.3077C7.98745 22.4092 7.98745 22.5736 7.88607 22.675L6.97889 23.5822C6.87751 23.6835 6.71306 23.6835 6.61164 23.5822L6.22387 23.1944C6.12249 23.093 6.12249 22.9285 6.22387 22.8271C6.32529 22.7258 6.4897 22.7258 6.59112 22.8271L6.79526 23.0313L7.51882 22.3077ZM7.05499 20.89C5.92012 20.89 5 21.8101 5 22.945C5 24.0798 5.92016 25 7.05499 25C8.18986 25 9.10998 24.0798 9.10998 22.945C9.10998 21.8101 8.18982 20.89 7.05499 20.89ZM8.14081 21.8591C7.5412 21.2595 6.56883 21.2595 5.96916 21.8591C5.36955 22.4588 5.36955 23.4312 5.96916 24.0308C6.56878 24.6304 7.5412 24.6304 8.14081 24.0308C8.74043 23.4312 8.74043 22.4588 8.14081 21.8591ZM7.36311 20.0345V17.2163H8.14419C8.28765 17.2163 8.40392 17.1001 8.40392 16.9566C8.40392 16.8132 8.28765 16.6969 8.14419 16.6969H7.10338C6.95993 16.6969 6.84366 16.8132 6.84366 16.9566V20.0345C6.84366 20.1779 6.95993 20.2942 7.10338 20.2942C7.24684 20.2942 7.36311 20.1779 7.36311 20.0345ZM22.4377 10.3096V12.3471H21.98C21.8366 12.3471 21.7203 12.4634 21.7203 12.6068C21.7203 12.7503 21.8366 12.8665 21.98 12.8665H22.6974C22.8409 12.8665 22.9571 12.7503 22.9571 12.6068V10.3096C22.9571 10.1661 22.8409 10.0498 22.6974 10.0498C22.554 10.0498 22.4377 10.1661 22.4377 10.3096ZM22.7316 6.42436C23.4036 6.42436 23.7428 7.24077 23.2669 7.71671C22.791 8.19262 21.9746 7.85341 21.9746 7.18142C21.9746 6.76343 22.3136 6.42436 22.7316 6.42436ZM22.8997 7.01342C22.7505 6.86429 22.4941 6.97018 22.4941 7.18146C22.4941 7.39275 22.7506 7.49859 22.8997 7.3495C22.9924 7.2567 22.9924 7.10614 22.8997 7.01342ZM23.4065 5.58047C23.4065 5.4323 23.4017 5.32326 23.2924 5.19911C23.1522 5.03977 22.9349 5.02994 22.7317 5.02994C22.5284 5.02994 22.3111 5.03977 22.1709 5.19911C22.0616 5.3233 22.0568 5.43234 22.0568 5.58047C21.9194 5.6383 21.7988 5.70795 21.6819 5.79682L21.6145 5.75791L21.6142 5.75834C21.4163 5.64155 21.1629 5.69207 21.0221 5.87608C20.9105 6.02209 20.8167 6.18377 20.7458 6.3535C20.6573 6.56535 20.7406 6.81053 20.9392 6.92516L20.9394 6.92472L21.0075 6.96407C20.9886 7.11207 20.9887 7.25038 21.0075 7.39838L20.9392 7.43781L20.9395 7.43824C20.8396 7.49616 20.769 7.58594 20.7346 7.68797C20.6649 7.89419 20.7663 8.08016 20.8689 8.25729C20.9713 8.43429 21.0836 8.6161 21.2959 8.65852C21.4566 8.6906 21.5539 8.64008 21.6819 8.56614C21.7988 8.65497 21.9195 8.72471 22.0568 8.7825C22.0568 8.93067 22.0616 9.03967 22.1709 9.16386C22.3111 9.3232 22.5284 9.33303 22.7316 9.33303C22.9349 9.33303 23.1522 9.32324 23.2924 9.16386C23.4017 9.03971 23.4065 8.93071 23.4065 8.78254C23.544 8.72466 23.6648 8.65484 23.7819 8.56584L23.8498 8.60506C24.0505 8.7209 24.3005 8.67073 24.4411 8.48688C24.5529 8.34083 24.6465 8.17928 24.7175 8.00947C24.806 7.79762 24.7226 7.55244 24.5241 7.43781L24.5239 7.43824L24.4557 7.3989C24.4746 7.2509 24.4746 7.11203 24.4558 6.96407L24.5231 6.9252C24.7227 6.81001 24.8063 6.56604 24.7175 6.3535C24.6465 6.18368 24.5529 6.02214 24.4411 5.87608C24.3004 5.69202 24.0496 5.64198 23.8488 5.75791L23.8491 5.75834L23.7818 5.79717C23.6646 5.70808 23.5441 5.63839 23.4065 5.58047ZM23.3409 6.12481C23.19 6.03759 23.0755 6.02802 22.9704 5.87145C22.8997 5.76626 22.887 5.67774 22.887 5.55597H22.5762C22.5762 6.02594 22.2523 6.00958 21.9843 6.21745C21.8249 6.34112 21.6129 6.35536 21.438 6.25433L21.4022 6.23364L21.2457 6.50423C21.6322 6.72742 21.4965 6.98749 21.5151 7.26453C21.5242 7.4005 21.5493 7.48365 21.478 7.62893C21.4213 7.74429 21.3484 7.79978 21.2459 7.859L21.4022 8.12916C21.5082 8.06795 21.5921 8.0341 21.717 8.04258C21.9441 8.05804 22.0037 8.20223 22.2697 8.31101C22.4567 8.38754 22.5762 8.56476 22.5762 8.76522V8.80682H22.8871C22.8871 8.33698 23.2109 8.3533 23.4789 8.14539C23.6384 8.02167 23.8503 8.00748 24.0253 8.10851L24.025 8.10894L24.0608 8.12959L24.2176 7.85857C23.831 7.63559 23.9669 7.37717 23.9482 7.09826C23.939 6.96234 23.9141 6.87914 23.9853 6.73387C24.0406 6.62115 24.1116 6.56544 24.2175 6.50427L24.0608 6.23325C23.9553 6.29411 23.8744 6.32896 23.7463 6.32021C23.5557 6.30723 23.4911 6.21169 23.3409 6.12481ZM15.2179 14.017C15.811 14.017 16.2063 14.6262 15.9733 15.1655C16.2692 15.2833 16.4896 15.5464 16.5498 15.8628C16.9643 14.9109 16.2677 13.8316 15.2179 13.8316C14.1688 13.8316 13.4712 14.9103 13.886 15.8629C13.9461 15.5464 14.1666 15.2834 14.4624 15.1655C14.2294 14.6262 14.6247 14.017 15.2179 14.017ZM15.4322 14.6252C15.242 14.4349 14.9147 14.57 14.9147 14.8395C14.9147 14.9711 15.0182 15.0873 15.0616 15.0994H15.3741C15.437 15.0908 15.6337 14.8266 15.4322 14.6252ZM15.9601 16.5318V16.0377C15.9601 15.8555 15.8101 15.7054 15.6279 15.7054H14.8078C14.6256 15.7054 14.4755 15.8555 14.4755 16.0377V16.5318C14.9318 16.8036 15.5039 16.8036 15.9601 16.5318ZM15.2179 13.2255C14.0813 13.2255 13.1598 14.147 13.1598 15.2835C13.1598 16.4254 14.0864 17.3416 15.2179 17.3416C16.3544 17.3416 17.2759 16.4201 17.2759 15.2835C17.2759 14.147 16.3544 13.2255 15.2179 13.2255ZM19.9442 20.0662L20.0805 19.9299L18.4833 18.3327H18.4454L17.9496 18.8285L17.9381 18.8508L19.5489 20.4616L19.9442 20.0662ZM20.6885 19.9754C20.8945 19.9754 21.0552 19.9876 21.2245 19.8184C21.3214 19.7215 21.3815 19.5881 21.3815 19.4417V18.3327H19.3402L20.5159 19.5085C20.6428 19.6352 20.7015 19.8072 20.6885 19.9754ZM17.9048 18.0164L17.3409 17.4525C17.2588 17.5328 17.1722 17.6085 17.0815 17.6792L17.6617 18.2595L17.9048 18.0164ZM17.2461 19.0039H11.9204C11.753 19.0039 11.6174 18.8683 11.6174 18.7009V18.3327H8.52313V19.4416C8.52313 19.7345 8.76389 19.9753 9.05682 19.9753H18.2058L17.2901 19.0596C17.2729 19.0424 17.2583 19.0237 17.2461 19.0039ZM18.35 17.6047C18.4595 17.5601 18.5897 17.5822 18.6786 17.6711L18.7342 17.7267H20.5088V11.5315C20.5088 11.2743 20.2973 11.0628 20.0402 11.0628H9.86444C9.60727 11.0628 9.39576 11.2743 9.39576 11.5315V17.7267H11.9203C12.0877 17.7267 12.2233 17.8624 12.2233 18.0297V18.398H16.9432L16.5544 18.0091C15.3468 18.6025 13.8981 18.3249 12.9908 17.3456H10.7675C10.3131 17.3456 9.94915 16.9637 9.94915 16.5105V12.2987C9.94915 11.8455 10.3131 11.4637 10.7675 11.4637H19.1371C19.5915 11.4637 19.9554 11.8456 19.9554 12.2987V16.5105C19.9554 16.9637 19.5915 17.3456 19.1371 17.3456H18.0909L18.35 17.6047ZM17.0955 16.8247C18.4113 15.18 17.2205 12.8545 15.2179 12.8545C13.8762 12.8545 12.7888 13.9419 12.7888 15.2835C12.7888 16.6215 13.8725 17.7126 15.2179 17.7126C15.9687 17.7126 16.6464 17.3713 17.0955 16.8247ZM17.8815 16.7395H19.1371C19.2574 16.7395 19.3494 16.6341 19.3494 16.5105V12.2987C19.3494 12.1751 19.2574 12.0697 19.1371 12.0697H10.7675C10.6472 12.0697 10.5552 12.1751 10.5552 12.2987V16.5105C10.5552 16.6341 10.6472 16.7395 10.7675 16.7395H12.5542C11.9054 15.5551 12.1223 14.0869 13.0717 13.1374C14.257 11.9521 16.1786 11.9521 17.3639 13.1374C18.3134 14.0869 18.5303 15.5551 17.8815 16.7395ZM7.11157 10.6212V12.6068C7.11157 12.7503 7.22784 12.8665 7.37129 12.8665H8.02182C8.16527 12.8665 8.28154 12.7503 8.28154 12.6068C8.28154 12.4634 8.16527 12.3471 8.02182 12.3471H7.63102V10.6212C7.63102 10.4778 7.51475 10.3615 7.37129 10.3615C7.22784 10.3615 7.11157 10.4778 7.11157 10.6212ZM7.76248 6.88057V7.23297C7.76248 7.37643 7.64621 7.4927 7.50276 7.4927C7.3593 7.4927 7.24303 7.37643 7.24303 7.23297V6.881C7.06668 6.78672 6.95101 6.60202 6.95101 6.39411C6.95101 6.25065 7.06728 6.13438 7.21074 6.13438C7.35419 6.13438 7.47046 6.25065 7.47046 6.39411C7.47046 6.43566 7.53505 6.4383 7.53505 6.39411C7.53505 6.25065 7.65132 6.13438 7.79477 6.13438C7.93823 6.13438 8.0545 6.25065 8.0545 6.39411C8.0545 6.54574 7.99273 6.68335 7.89286 6.78322L7.76248 6.88057ZM7.97377 8.45399H7.02776V9.00924C7.02776 9.21953 7.20074 9.3925 7.41103 9.3925C7.58431 9.3925 7.72673 9.41397 7.86096 9.27974C7.93052 9.21018 7.97372 9.11438 7.97372 9.00924L7.97377 8.45399ZM7.1916 7.93454H7.85957L8.26769 6.58492C8.4814 5.87764 7.79928 5.33287 7.19442 5.57939C6.78721 5.7454 6.58294 6.21788 6.75206 6.63426C6.75609 6.64422 6.75947 6.65431 6.76219 6.66444L7.1916 7.93454ZM8.3869 7.98471L8.7648 6.73508C8.80813 6.59141 8.82887 6.47077 8.82887 6.32943C8.82887 5.76098 8.45616 5.24352 7.91351 5.06661C7.04555 4.78364 6.17262 5.43949 6.17262 6.33069C6.17262 6.5125 6.20378 6.64998 6.27153 6.83001L6.65389 7.9609C6.56766 8.00315 6.50827 8.09176 6.50827 8.19426V9.00924C6.50827 9.50626 6.914 9.912 7.41099 9.912H7.59041C8.08744 9.912 8.49313 9.50626 8.49313 9.00924V8.19426C8.49322 8.10821 8.45136 8.03193 8.3869 7.98471Z" fill="url(#paint0_linear_1775_251)"/>
<defs>
<linearGradient id="paint0_linear_1775_251" x1="5.00005" y1="15.0482" x2="24.7532" y2="15.0482" gradientUnits="userSpaceOnUse">
<stop stop-color="#1685FF"/>
<stop offset="0.5" stop-color="#8B5CF6"/>
<stop offset="1" stop-color="#D946EF"/>
</linearGradient>
</defs>
</svg>
