<svg width="50" height="50" viewBox="0 0 50 50" fill="none" xmlns="http://www.w3.org/2000/svg">
<g clip-path="url(#clip0_479_74)">
<path d="M39.5854 11.1402C39.0479 11.087 38.5114 11.2506 38.0932 11.5952C37.6751 11.9398 37.4094 12.4374 37.3543 12.979C37.3282 13.2484 37.3551 13.5204 37.4334 13.7794C37.5118 14.0383 37.6402 14.2791 37.811 14.488C37.9819 14.6969 38.1919 14.8698 38.4291 14.9968C38.6663 15.1238 38.9261 15.2023 39.1935 15.228L44.2588 15.7291C44.5261 15.7553 44.796 15.7282 45.0529 15.6492C45.3098 15.5702 45.5486 15.4409 45.7559 15.2687C45.9631 15.0965 46.1347 14.8848 46.2607 14.6456C46.3866 14.4065 46.4645 14.1447 46.49 13.8752C46.516 13.6057 46.4891 13.3337 46.4107 13.0748C46.3323 12.8158 46.2041 12.575 46.0332 12.3661C45.8624 12.1572 45.6524 11.9843 45.4151 11.8573C45.1779 11.7303 44.9182 11.6518 44.6508 11.6262L39.5854 11.1402Z" fill="url(#paint0_linear_479_74)"/>
<path d="M21.9623 0.487821C18.8036 0.880728 15.6761 1.90081 12.7512 3.603C9.5126 5.48779 6.85079 8.01396 4.85175 10.9275C4.69769 11.1497 4.58873 11.4005 4.5311 11.6654C4.47347 11.9302 4.46834 12.2039 4.51597 12.4708C4.56359 12.7377 4.66306 12.9924 4.80864 13.2204C4.95422 13.4484 5.14306 13.6453 5.36431 13.7995C5.58576 13.954 5.83535 14.0629 6.0987 14.1198C6.36206 14.1767 6.63393 14.1804 6.89876 14.131C7.16359 14.0815 7.41611 13.9798 7.64175 13.8316C7.8674 13.6833 8.06174 13.4915 8.21356 13.2673C9.87807 10.8415 12.077 8.7506 14.7865 7.17376C24.574 1.47777 37.0402 4.84512 42.691 14.7109C42.9632 15.182 43.4098 15.525 43.9327 15.6646C44.4555 15.8042 45.012 15.729 45.4799 15.4555C45.9472 15.1811 46.2875 14.7309 46.426 14.2039C46.5645 13.6768 46.4899 13.116 46.2186 12.6444C41.1527 3.79975 31.4387 -0.690824 21.9623 0.487821ZM4.38441 15.7902C3.87261 15.6133 3.31209 15.6484 2.82593 15.8878C2.33978 16.1271 1.96774 16.551 1.79144 17.0666C1.68493 17.3833 1.58304 17.7055 1.48964 18.024C1.33781 18.5479 1.39862 19.1111 1.65871 19.5899C1.9188 20.0686 2.35685 20.4237 2.87658 20.5769C3.39433 20.7305 3.95136 20.6714 4.42593 20.4123C4.90049 20.1531 5.25405 19.7152 5.40924 19.1941C5.4872 18.9264 5.57747 18.6494 5.66546 18.3887C5.83558 17.8728 5.79631 17.31 5.55623 16.8232C5.31614 16.3363 4.89514 15.965 4.38441 15.7902ZM2.51506 23.0995C1.97588 23.1053 1.46088 23.326 1.08243 23.7131C0.70398 24.1003 0.492816 24.6226 0.49496 25.1661C0.495886 25.3007 0.487318 25.4703 0.49496 25.6671C0.505561 25.9376 0.568959 26.2033 0.681577 26.4491C0.794194 26.6949 0.953768 26.9158 1.15121 27.0993C1.34865 27.2828 1.58007 27.4253 1.83219 27.5185C2.08432 27.6118 2.35227 27.654 2.62059 27.6427C3.15985 27.6211 3.66868 27.3852 4.03591 26.9865C4.40314 26.5879 4.59888 26.0589 4.58039 25.5153C4.57692 25.4258 4.58147 25.288 4.58039 25.1355C4.57749 24.8651 4.52176 24.5979 4.41639 24.3492C4.31101 24.1005 4.15804 23.8751 3.96624 23.686C3.77444 23.4969 3.54757 23.3478 3.29857 23.2471C3.04957 23.1465 2.78333 23.0964 2.51506 23.0995Z" fill="url(#paint1_linear_479_74)"/>
<path d="M46.3995 6.33834C46.1401 6.26822 45.8696 6.25035 45.6034 6.28574C45.3372 6.32114 45.0806 6.40911 44.8481 6.54461C44.6157 6.68011 44.412 6.86047 44.2488 7.0754C44.0855 7.29033 43.966 7.53559 43.897 7.79715L42.4799 13.1461C42.4103 13.4076 42.3926 13.6802 42.4277 13.9486C42.4628 14.2169 42.5501 14.4756 42.6846 14.7099C42.819 14.9442 42.9979 15.1495 43.2111 15.3141C43.4244 15.4786 43.6676 15.5991 43.9271 15.6687C44.1864 15.7388 44.457 15.7567 44.7232 15.7213C44.9894 15.6859 45.246 15.5978 45.4785 15.4623C45.7109 15.3268 45.9146 15.1465 46.0778 14.9315C46.241 14.7166 46.3606 14.4714 46.4296 14.2099L47.8467 8.86087C47.9163 8.59945 47.934 8.32679 47.8989 8.05845C47.8638 7.79011 47.7766 7.53135 47.6421 7.29705C47.5077 7.06275 47.3288 6.85752 47.1155 6.69301C46.9023 6.5285 46.6589 6.40795 46.3995 6.33834Z" fill="url(#paint2_linear_479_74)"/>
<path d="M5.74116 34.2685C5.47384 34.2422 5.204 34.2694 4.94711 34.3484C4.69021 34.4274 4.45129 34.5567 4.24404 34.7289C4.03679 34.9011 3.86527 35.1128 3.73931 35.3519C3.61335 35.591 3.53543 35.8529 3.51 36.1224C3.48394 36.3919 3.51089 36.6638 3.58926 36.9228C3.66764 37.1818 3.7959 37.4226 3.96674 37.6316C4.13758 37.8405 4.3476 38.0133 4.58483 38.1403C4.82205 38.2672 5.08181 38.3458 5.3492 38.3714L10.4145 38.8577C10.6818 38.8839 10.9517 38.8568 11.2086 38.7778C11.4655 38.6988 11.7044 38.5695 11.9116 38.3973C12.1189 38.2251 12.2904 38.0134 12.4164 37.7743C12.5423 37.5351 12.6202 37.2733 12.6457 37.0038C12.6941 36.462 12.5278 35.923 12.1832 35.5045C11.8386 35.0859 11.3436 34.8218 10.8065 34.77L5.74116 34.2685Z" fill="url(#paint3_linear_479_74)"/>
<path d="M47.3794 22.3551C46.8401 22.3767 46.3313 22.6126 45.9641 23.0112C45.5968 23.4099 45.4011 23.9388 45.4196 24.4825C45.423 24.572 45.4185 24.6942 45.4196 24.8474C45.4205 25.1191 45.4748 25.3879 45.5793 25.6384C45.6838 25.8888 45.8364 26.116 46.0284 26.3067C46.2204 26.4974 46.4479 26.6479 46.6979 26.7496C46.9479 26.8512 47.2154 26.9019 47.4849 26.8988C48.0241 26.8929 48.5391 26.6724 48.9175 26.2852C49.296 25.8981 49.5072 25.3757 49.505 24.8321C49.5041 24.6975 49.5127 24.528 49.505 24.3311C49.4944 24.0606 49.431 23.7949 49.3183 23.5491C49.2057 23.3034 49.0461 23.0824 48.8486 22.8989C48.6512 22.7154 48.4198 22.573 48.1677 22.4797C47.9155 22.3865 47.6477 22.3438 47.3794 22.3551ZM47.1231 29.4212C46.6053 29.2676 46.0483 29.3268 45.5737 29.5859C45.0992 29.845 44.7456 30.283 44.5904 30.804C44.5125 31.0717 44.4221 31.3479 44.3342 31.6094C44.1641 32.1253 44.2034 32.6881 44.4434 33.175C44.6835 33.6618 45.1048 34.0332 45.6156 34.2079C46.1273 34.3848 46.6878 34.3497 47.174 34.1104C47.6601 33.871 48.0322 33.447 48.2085 32.9315C48.315 32.6148 48.4169 32.2927 48.5103 31.9741C48.6621 31.4502 48.6012 30.887 48.3411 30.4082C48.0811 29.9295 47.6428 29.5744 47.1231 29.4212ZM6.07282 34.3295C5.55249 34.1936 4.99999 34.2699 4.53513 34.5419C4.30242 34.6765 4.09832 34.856 3.93447 35.0702C3.77061 35.2844 3.65023 35.529 3.5802 35.7901C3.51016 36.0512 3.49185 36.3236 3.52631 36.5918C3.56077 36.86 3.6473 37.1188 3.78101 37.3533C10.5356 49.1459 25.5492 53.2034 37.2484 46.3949C40.487 44.51 43.1488 41.9839 45.1479 39.0703C45.3019 38.848 45.4109 38.5973 45.4686 38.3325C45.5262 38.0676 45.5314 37.7938 45.4838 37.527C45.4361 37.2601 45.3367 37.0054 45.1911 36.7774C45.0455 36.5494 44.8567 36.3525 44.6354 36.1983C44.4149 36.043 44.1661 35.9332 43.9033 35.8751C43.6406 35.817 43.3691 35.8118 43.1043 35.8598C42.8396 35.9078 42.5868 36.0081 42.3606 36.1548C42.1344 36.3016 41.9392 36.4919 41.7862 36.7149C40.1217 39.1408 37.9228 41.2468 35.2133 42.8237C25.4258 48.5198 12.9746 45.1523 7.32384 35.2865C7.18829 35.0516 7.00796 34.8459 6.7932 34.6816C6.57844 34.5173 6.33375 34.3979 6.07282 34.3295Z" fill="url(#paint4_linear_479_74)"/>
<path d="M6.07285 34.3295C5.81351 34.2594 5.54301 34.2416 5.2768 34.277C5.0106 34.3123 4.75389 34.4004 4.52144 34.5359C4.289 34.6714 4.08535 34.8517 3.92214 35.0667C3.75893 35.2816 3.6394 35.5268 3.57034 35.7884L2.15325 41.1374C2.08371 41.3988 2.06602 41.6714 2.10114 41.9398C2.13626 42.2081 2.22353 42.4668 2.35795 42.7011C2.49237 42.9354 2.67131 43.1408 2.88453 43.3053C3.09774 43.4698 3.34102 43.5903 3.60049 43.6599C3.85984 43.73 4.13039 43.7479 4.3966 43.7125C4.66281 43.6771 4.91946 43.5891 5.1519 43.4536C5.38435 43.3181 5.588 43.1377 5.75121 42.9228C5.91441 42.7078 6.034 42.4626 6.10306 42.2011L7.52009 36.8521C7.58964 36.5907 7.60739 36.318 7.57227 36.0497C7.53715 35.7813 7.44988 35.5226 7.31546 35.2883C7.18103 35.054 7.00209 34.8487 6.78888 34.6842C6.57566 34.5197 6.33233 34.3992 6.07285 34.3295Z" fill="url(#paint5_linear_479_74)"/>
<path d="M25.0075 10.5933C17.1366 10.5933 10.701 17.0651 10.701 24.9991C10.701 32.9331 17.1366 39.4049 25.0075 39.4049C32.8786 39.4049 39.299 32.9331 39.299 24.9991C39.299 17.0651 32.8786 10.5933 25.0075 10.5933ZM25.0075 14.7114C30.6711 14.7114 35.2136 19.2902 35.2136 24.9991C35.2136 30.708 30.6711 35.2868 25.0075 35.2868C19.3439 35.2868 14.7865 30.708 14.7865 24.9991C14.7865 19.2902 19.3439 14.7114 25.0075 14.7114Z" fill="url(#paint6_linear_479_74)"/>
<path d="M25.001 20.8809L25.0011 24.9979Z" fill="url(#paint7_linear_479_74)"/>
<path d="M25.0075 18.8294C24.7393 18.8283 24.4734 18.8806 24.2251 18.9831C23.9769 19.0856 23.7512 19.2365 23.5608 19.427C23.3704 19.6175 23.2191 19.8439 23.1156 20.0934C23.012 20.3428 22.9582 20.6104 22.9573 20.8808V24.9989C22.9582 25.2693 23.012 25.5369 23.1156 25.7864C23.2191 26.0359 23.3704 26.2624 23.5608 26.4529C23.7512 26.6434 23.9769 26.7941 24.2251 26.8967C24.4734 26.9992 24.7393 27.0515 25.0075 27.0504C25.5467 27.0485 26.0632 26.8319 26.4445 26.4475C26.8258 26.0632 27.0408 25.5424 27.0427 24.9989V20.8808C27.0408 20.3373 26.8258 19.8165 26.4445 19.4322C26.0632 19.0479 25.5467 18.8312 25.0075 18.8294Z" fill="url(#paint8_linear_479_74)"/>
<path d="M27.8893 27.9087L25.001 24.9976Z" fill="url(#paint9_linear_479_74)"/>
<path d="M23.5603 23.54C23.3697 23.7313 23.2184 23.9586 23.1152 24.209C23.012 24.4593 22.9589 24.7277 22.9589 24.9988C22.9589 25.2699 23.012 25.5383 23.1152 25.7886C23.2184 26.039 23.3697 26.2663 23.5603 26.4576L26.4397 29.36C26.6294 29.5522 26.855 29.7046 27.1033 29.8086C27.3517 29.9126 27.618 29.9661 27.8869 29.9661C28.1558 29.9661 28.4221 29.9126 28.6705 29.8086C28.9188 29.7046 29.1444 29.5522 29.3341 29.36C29.7144 28.9744 29.9278 28.4526 29.9278 27.9088C29.9278 27.365 29.7144 26.8433 29.3341 26.4576L26.4397 23.54C26.057 23.1566 25.5395 22.9414 25 22.9414C24.4605 22.9414 23.9429 23.1566 23.5603 23.54Z" fill="url(#paint10_linear_479_74)"/>
</g>
<defs>
<linearGradient id="paint0_linear_479_74" x1="37.3447" y1="13.4457" x2="46.4998" y2="13.4457" gradientUnits="userSpaceOnUse">
<stop stop-color="#1685FF"/>
<stop offset="0.5" stop-color="#8B5CF6"/>
<stop offset="1" stop-color="#D946EF"/>
</linearGradient>
<linearGradient id="paint1_linear_479_74" x1="0.491886" y1="14.0392" x2="46.4951" y2="14.0392" gradientUnits="userSpaceOnUse">
<stop stop-color="#1685FF"/>
<stop offset="0.5" stop-color="#8B5CF6"/>
<stop offset="1" stop-color="#D946EF"/>
</linearGradient>
<linearGradient id="paint2_linear_479_74" x1="42.4102" y1="11.0263" x2="47.9165" y2="11.0263" gradientUnits="userSpaceOnUse">
<stop stop-color="#1685FF"/>
<stop offset="0.5" stop-color="#8B5CF6"/>
<stop offset="1" stop-color="#D946EF"/>
</linearGradient>
<linearGradient id="paint3_linear_479_74" x1="3.50039" y1="36.5742" x2="12.6541" y2="36.5742" gradientUnits="userSpaceOnUse">
<stop stop-color="#1685FF"/>
<stop offset="0.5" stop-color="#8B5CF6"/>
<stop offset="1" stop-color="#D946EF"/>
</linearGradient>
<linearGradient id="paint4_linear_479_74" x1="3.50952" y1="36.0917" x2="49.5092" y2="36.0917" gradientUnits="userSpaceOnUse">
<stop stop-color="#1685FF"/>
<stop offset="0.5" stop-color="#8B5CF6"/>
<stop offset="1" stop-color="#D946EF"/>
</linearGradient>
<linearGradient id="paint5_linear_479_74" x1="2.0836" y1="39.0175" x2="7.58992" y2="39.0175" gradientUnits="userSpaceOnUse">
<stop stop-color="#1685FF"/>
<stop offset="0.5" stop-color="#8B5CF6"/>
<stop offset="1" stop-color="#D946EF"/>
</linearGradient>
<linearGradient id="paint6_linear_479_74" x1="10.7011" y1="25.0685" x2="39.2996" y2="25.0685" gradientUnits="userSpaceOnUse">
<stop stop-color="#1685FF"/>
<stop offset="0.5" stop-color="#8B5CF6"/>
<stop offset="1" stop-color="#D946EF"/>
</linearGradient>
<linearGradient id="paint7_linear_479_74" x1="25.001" y1="22.9493" x2="25.0011" y2="22.9493" gradientUnits="userSpaceOnUse">
<stop stop-color="#1685FF"/>
<stop offset="0.5" stop-color="#8B5CF6"/>
<stop offset="1" stop-color="#D946EF"/>
</linearGradient>
<linearGradient id="paint8_linear_479_74" x1="22.9573" y1="22.9597" x2="27.0428" y2="22.9597" gradientUnits="userSpaceOnUse">
<stop stop-color="#1685FF"/>
<stop offset="0.5" stop-color="#8B5CF6"/>
<stop offset="1" stop-color="#D946EF"/>
</linearGradient>
<linearGradient id="paint9_linear_479_74" x1="25.001" y1="26.4601" x2="27.8893" y2="26.4601" gradientUnits="userSpaceOnUse">
<stop stop-color="#1685FF"/>
<stop offset="0.5" stop-color="#8B5CF6"/>
<stop offset="1" stop-color="#D946EF"/>
</linearGradient>
<linearGradient id="paint10_linear_479_74" x1="22.9589" y1="26.4707" x2="29.928" y2="26.4707" gradientUnits="userSpaceOnUse">
<stop stop-color="#1685FF"/>
<stop offset="0.5" stop-color="#8B5CF6"/>
<stop offset="1" stop-color="#D946EF"/>
</linearGradient>
<clipPath id="clip0_479_74">
<rect width="50" height="50" fill="white"/>
</clipPath>
</defs>
</svg>
