<svg width="30" height="30" viewBox="0 0 30 30" fill="none" xmlns="http://www.w3.org/2000/svg">
<path d="M25.533 13.0341C24.8134 13.0341 24.2148 13.5584 24.0959 14.243H20.8598V11.5014H25.533C25.6742 11.5014 25.7888 11.3868 25.7888 11.2456V5.9195C26.4734 5.79744 26.9977 5.20201 26.9977 4.48238C26.9977 3.67571 26.3397 3.01768 25.533 3.01768C24.7264 3.01768 24.0683 3.67574 24.0683 4.48238C24.0683 5.20198 24.5926 5.80062 25.2772 5.9195L25.2783 10.994H20.8597V10.008C20.8597 8.97845 20.0201 8.13891 18.9906 8.13891L18.0035 8.13785V6.02889H20.0307C20.1528 6.71347 20.7482 7.2378 21.4679 7.2378C22.2745 7.2378 22.9326 6.57973 22.9326 5.7731C22.9326 4.96646 22.2745 4.3084 21.4679 4.3084C20.7482 4.3084 20.1496 4.83272 20.0307 5.5173H17.7488C17.6076 5.5173 17.493 5.63194 17.493 5.7731V8.13467H14.7547V4.90182C15.4392 4.77976 15.9636 4.18433 15.9636 3.4647C15.9636 2.65804 15.3055 2 14.4989 2C13.6922 2 13.0342 2.65806 13.0342 3.4647C13.0342 4.18431 13.5585 4.78295 14.2431 4.90182V8.13793H11.5015V3.46473C11.5015 3.32356 11.3868 3.20893 11.2457 3.20893H5.91955C5.80067 2.52435 5.20312 2.00002 4.48349 2.00002C3.67682 2.00002 3.01879 2.65809 3.01879 3.46472C3.01879 4.27136 3.67685 4.92942 4.48349 4.92942C5.20309 4.92942 5.80173 4.4051 5.92061 3.72052L10.994 3.71945V8.13806H10.008C8.97848 8.13806 8.13893 8.9776 8.13893 10.0072V10.9932H6.02997V8.96595C6.71456 8.84389 7.23888 8.24846 7.23888 7.52883C7.23888 6.72216 6.58082 6.06413 5.77418 6.06413C4.96755 6.06413 4.30948 6.72219 4.30948 7.52883C4.30948 8.24843 4.83381 8.84707 5.51839 8.96595V11.2479C5.51839 11.3891 5.63302 11.5037 5.77419 11.5037H8.13576V14.2453L4.90182 14.2464C4.77976 13.5618 4.18433 13.0374 3.4647 13.0374C2.65804 13.0343 2 13.6923 2 14.499C2 15.3056 2.65806 15.9637 3.4647 15.9637C4.18431 15.9637 4.78295 15.4393 4.90182 14.7548H8.13793V17.4964H3.46473C3.32356 17.4964 3.20893 17.611 3.20893 17.7521V23.0783C2.52435 23.1972 2.00002 23.7915 2.00002 24.5143C2.00002 25.321 2.65809 25.979 3.46472 25.979C4.27136 25.979 4.92942 25.321 4.92942 24.5143C4.92942 23.7947 4.4051 23.1961 3.72052 23.0772L3.71945 18.0038H8.13806V18.9898C8.13806 20.0194 8.9776 20.8589 10.0072 20.8589H10.9932V22.9679H8.96595C8.84389 22.2833 8.24846 21.7589 7.52883 21.7589C6.72216 21.7589 6.06413 22.417 6.06413 23.2236C6.06413 24.0303 6.72219 24.6883 7.52883 24.6883C8.24843 24.6883 8.84707 24.164 8.96595 23.4794H11.2479C11.3891 23.4794 11.5037 23.3648 11.5037 23.2236V20.8621H14.2453V24.0982C13.5607 24.2202 13.0364 24.8157 13.0364 25.5353C13.0364 26.342 13.6944 27 14.5011 27C15.3077 27 15.9658 26.3419 15.9658 25.5353C15.9658 24.8157 15.4415 24.2171 14.7569 24.0982V20.8599H17.4985V25.5331C17.4985 25.6743 17.6131 25.7889 17.7543 25.7889H23.0804C23.2025 26.4735 23.7979 26.9978 24.5175 26.9978C25.3242 26.9978 25.9822 26.3397 25.9822 25.5331C25.9822 24.7265 25.3242 24.0684 24.5175 24.0684C23.7979 24.0684 23.1993 24.5927 23.0804 25.2773L18.0037 25.2784V20.8598H18.9897C20.0193 20.8598 20.8588 20.0202 20.8588 18.9907L20.8599 18.0036H22.9688V20.0308C22.2842 20.1529 21.7599 20.7483 21.7599 21.4679C21.7599 22.2746 22.418 22.9326 23.2246 22.9326C24.0313 22.9326 24.6893 22.2746 24.6893 21.4679C24.6893 20.7483 24.165 20.1497 23.4804 20.0308V17.7489C23.4804 17.6077 23.3658 17.4931 23.2246 17.4931H20.863V14.7547H24.0992C24.2212 15.4393 24.8166 15.9636 25.5363 15.9636C26.3429 15.9636 27.001 15.3056 27.001 14.4989C27.001 13.6923 26.3397 13.0341 25.533 13.0341ZM24.5799 4.48355C24.5799 3.95604 25.0087 3.52937 25.5341 3.52937C26.0616 3.52937 26.4883 3.95816 26.4883 4.48355C26.4883 5.00787 26.0595 5.43772 25.5341 5.43772C25.0066 5.43985 24.5799 5.00999 24.5799 4.48355ZM21.4712 4.82001C21.9988 4.82001 22.4254 5.2488 22.4254 5.77419C22.4254 6.30169 21.9966 6.72836 21.4712 6.72836C20.9437 6.72836 20.5171 6.29957 20.5171 5.77419C20.5171 5.24986 20.9469 4.82001 21.4712 4.82001ZM13.5448 3.46462C13.5448 2.93712 13.9736 2.51044 14.499 2.51044C15.0265 2.51044 15.4532 2.93923 15.4532 3.46462C15.4532 3.98895 15.0265 4.41774 14.499 4.41774C13.9715 4.41774 13.5448 3.99107 13.5448 3.46462ZM4.48371 4.41774C3.9562 4.41774 3.52953 3.98895 3.52953 3.46356C3.52953 2.93923 3.95832 2.50938 4.48371 2.50938C5.01121 2.50938 5.43788 2.93817 5.43788 3.46356C5.43682 3.98895 5.01015 4.41774 4.48371 4.41774ZM4.82017 7.52641C4.82017 6.99891 5.24896 6.57224 5.77435 6.57224C6.29867 6.57224 6.72852 7.00103 6.72852 7.52641C6.72852 8.05392 6.29973 8.48059 5.77435 8.48059C5.25002 8.48059 4.82017 8.05074 4.82017 7.52641ZM3.46478 15.4528C2.93727 15.4528 2.5106 15.0241 2.5106 14.4987C2.5106 13.9743 2.93939 13.5445 3.46478 13.5445C3.99228 13.5445 4.41896 13.9733 4.41896 14.4987C4.4179 15.023 3.99123 15.4528 3.46478 15.4528ZM4.4179 24.514C4.4179 25.0415 3.98911 25.4681 3.46372 25.4681C2.93622 25.4681 2.50954 25.0393 2.50954 24.514C2.50954 23.9865 2.93833 23.5598 3.46372 23.5598C3.99123 23.5577 4.4179 23.9875 4.4179 24.514ZM7.52657 24.1775C6.99907 24.1775 6.5724 23.7487 6.5724 23.2233C6.5724 22.6958 7.00119 22.2691 7.52657 22.2691C8.0509 22.2691 8.48075 22.6979 8.48075 23.2233C8.48075 23.7476 8.0509 24.1775 7.52657 24.1775ZM15.453 25.5329C15.453 26.0604 15.0242 26.4871 14.4988 26.4871C13.9713 26.4871 13.5447 26.0583 13.5447 25.5329C13.5447 25.0086 13.9713 24.5798 14.4988 24.5798C15.0263 24.5798 15.453 25.0064 15.453 25.5329ZM24.5141 24.5798C25.0416 24.5798 25.4683 25.0086 25.4683 25.5339C25.4683 26.0583 25.0395 26.4881 24.5141 26.4881C23.9866 26.4881 23.5599 26.0593 23.5599 25.5339C23.561 25.0086 23.9877 24.5798 24.5141 24.5798ZM24.1777 21.4711C24.1777 21.9986 23.7489 22.4253 23.2235 22.4253C22.6992 22.4253 22.2693 21.9965 22.2693 21.4711C22.2693 20.9436 22.6981 20.5169 23.2235 20.5169C23.7478 20.5169 24.1777 20.9468 24.1777 21.4711ZM20.3492 18.9906C20.3492 19.741 19.741 20.3492 18.9906 20.3492H10.0072C9.25685 20.3492 8.64867 19.741 8.64867 18.9906V10.0072C8.64867 9.25685 9.25685 8.64867 10.0072 8.64867H18.9898C19.7402 8.64867 20.3484 9.25685 20.3484 10.0072L20.3492 18.9906ZM25.533 15.4529C25.0055 15.4529 24.5788 15.0241 24.5788 14.4988C24.5788 13.9744 25.0076 13.5446 25.533 13.5446C26.0605 13.5446 26.4871 13.9734 26.4871 14.4988C26.4871 15.0231 26.0605 15.4529 25.533 15.4529ZM18.9906 9.25976H10.0072C9.59437 9.25976 9.26003 9.5941 9.26003 10.007V18.9896C9.26003 19.4024 9.59437 19.7368 10.0072 19.7368H18.9898C19.4027 19.7368 19.737 19.4024 19.737 18.9896L19.7381 10.007C19.7381 9.5941 19.4035 9.25976 18.9906 9.25976ZM19.2263 18.9904C19.2263 19.1177 19.118 19.2271 18.9896 19.2271L10.007 19.226C9.87963 19.226 9.77031 19.1177 9.77031 18.9893L9.77137 10.0067C9.77137 9.87936 9.87963 9.77004 10.0081 9.77004H18.9906C19.118 9.77004 19.2273 9.8783 19.2273 10.0067L19.2263 18.9904ZM17.9112 13.4148C17.9463 13.3522 17.9792 13.2874 18.0067 13.2163C18.167 12.795 18.0991 12.3301 17.8274 11.9724C17.5801 11.6487 17.2022 11.4672 16.8084 11.464C16.7543 10.8059 16.2003 10.2901 15.5284 10.2901C15.1856 10.2901 14.863 10.4228 14.621 10.6648C14.5743 10.7115 14.5371 10.7603 14.501 10.8112C14.4628 10.7592 14.4246 10.7104 14.3811 10.6648C14.1391 10.4228 13.8164 10.2901 13.4736 10.2901C12.8028 10.2901 12.2509 10.8091 12.1936 11.464C11.7998 11.4672 11.4188 11.6519 11.1747 11.9724C10.903 12.328 10.835 12.7928 10.9953 13.2163C11.0229 13.2843 11.0526 13.3522 11.0908 13.4148C10.5718 13.7874 10.3001 14.439 10.4168 15.0833C10.5389 15.7435 11.0494 16.2625 11.6884 16.4121C11.6067 16.7306 11.6555 17.067 11.8295 17.3525C12.0227 17.6677 12.3432 17.8747 12.7073 17.9257C12.7317 17.9288 12.7593 17.931 12.7837 17.9342C12.8241 18.1135 12.9111 18.2791 13.0448 18.4128C13.2348 18.606 13.4874 18.7121 13.7591 18.7121C14.0277 18.7121 14.2813 18.606 14.4713 18.4128C14.4819 18.4022 14.4904 18.3852 14.5042 18.3746C14.5148 18.3884 14.5233 18.4022 14.5371 18.4128C14.7271 18.606 14.9797 18.7121 15.2493 18.7121C15.7216 18.7121 16.1218 18.3778 16.2215 17.932C16.246 17.9288 16.2736 17.9267 16.298 17.9235C16.662 17.8747 16.9825 17.6656 17.1757 17.3504C17.3498 17.068 17.3986 16.7306 17.3169 16.41C17.9559 16.2604 18.4685 15.7414 18.5884 15.0812C18.702 14.4358 18.4302 13.7863 17.9112 13.4148ZM14.1051 18.0519C14.0127 18.1474 13.8875 18.1983 13.7569 18.1983C13.6243 18.1983 13.5011 18.1463 13.4088 18.0519C13.3547 17.9946 13.3133 17.9298 13.2921 17.8587C13.4417 17.8046 13.5829 17.7175 13.7028 17.6029C13.8058 17.5074 13.8111 17.345 13.7134 17.242C13.6179 17.1391 13.4555 17.1338 13.3526 17.2314C13.1955 17.3779 12.9853 17.4458 12.7741 17.4161C12.5618 17.3864 12.375 17.2665 12.2636 17.0818C12.1521 16.8992 12.1277 16.6795 12.201 16.4757C12.2721 16.2719 12.4292 16.1148 12.6298 16.0437C12.7624 15.997 12.8304 15.8506 12.7847 15.7179C12.738 15.5852 12.5916 15.5173 12.4589 15.5629C12.2498 15.6394 12.0672 15.7667 11.9293 15.9355C11.4262 15.876 11.0112 15.4929 10.9188 14.9898C10.8318 14.5228 11.0409 14.0494 11.4325 13.7968C11.5843 13.9082 11.7615 13.99 11.9547 14.025C12.0938 14.0526 12.2264 13.9624 12.254 13.8244C12.2816 13.6854 12.1914 13.5527 12.0534 13.5251C11.787 13.4731 11.5695 13.2884 11.475 13.0337C11.3773 12.7779 11.4177 12.4955 11.5833 12.2811C11.7435 12.072 11.9993 11.9574 12.2572 11.9744C12.3167 12.1538 12.4143 12.3172 12.5481 12.4584C12.6457 12.5592 12.806 12.5645 12.9089 12.4669C13.0097 12.3692 13.0151 12.209 12.9174 12.106C12.7784 11.9617 12.703 11.7717 12.703 11.5711C12.703 11.1444 13.0511 10.7962 13.4778 10.7962C13.6848 10.7962 13.8769 10.878 14.0244 11.0212C14.1709 11.1677 14.2494 11.3609 14.2494 11.5679V12.158C14.2494 12.3374 14.1953 12.5252 14.103 12.6547C13.9862 12.8182 13.8175 12.8988 13.5872 12.8988C13.446 12.8988 13.3314 13.0135 13.3314 13.1546C13.3314 13.2958 13.446 13.4104 13.5872 13.4104C13.878 13.4104 14.0924 13.3266 14.2526 13.2151V15.9842C14.0159 16.0245 13.8398 16.1253 13.7283 16.2155C13.6169 16.3026 13.6009 16.4628 13.688 16.5743C13.74 16.6369 13.8132 16.6719 13.8886 16.6719C13.9427 16.6719 14 16.6528 14.0457 16.6178C14.1083 16.569 14.1762 16.534 14.2526 16.5095V17.7131C14.2463 17.8373 14.1942 17.9595 14.1051 18.0519ZM18.0832 14.9897C17.9909 15.4928 17.5727 15.8759 17.0728 15.9354C16.9337 15.7666 16.7522 15.6392 16.5431 15.5628C16.4105 15.5161 16.263 15.584 16.2173 15.7178C16.1706 15.8504 16.2385 15.998 16.3723 16.0436C16.5729 16.1168 16.731 16.275 16.8011 16.4756C16.8722 16.6762 16.8499 16.8991 16.7384 17.0816C16.627 17.2642 16.4391 17.3863 16.2279 17.416C16.0156 17.4457 15.8044 17.3778 15.6495 17.2313C15.5465 17.1358 15.3862 17.1421 15.2886 17.2419C15.1931 17.3449 15.1994 17.5051 15.2992 17.6028C15.4192 17.7174 15.5603 17.8013 15.71 17.8586C15.6473 18.0571 15.4627 18.1982 15.2451 18.1982C15.1145 18.1982 14.9893 18.1462 14.897 18.0517C14.8046 17.9594 14.7558 17.8395 14.7579 17.7121V17.7089V17.7057V15.5511C14.9702 15.6191 15.0678 15.7634 15.0763 15.774C15.1252 15.8526 15.2069 15.8961 15.2939 15.8961C15.3375 15.8961 15.3831 15.8855 15.4245 15.861C15.5465 15.7878 15.5848 15.6329 15.5115 15.5108C15.5009 15.4917 15.2695 15.117 14.759 15.0268L14.7569 11.572C14.7569 11.365 14.8386 11.1697 14.9819 11.0254C15.1284 10.8789 15.3215 10.8003 15.5285 10.8003C15.9552 10.8003 16.3033 11.1485 16.3033 11.5752C16.3033 11.7758 16.2269 11.9636 16.0889 12.1101C15.9913 12.2109 15.9966 12.3733 16.0974 12.471C16.1982 12.5686 16.3606 12.5633 16.4583 12.4625C16.5909 12.3234 16.6897 12.1579 16.7491 11.9785C17.007 11.9626 17.2628 12.074 17.4231 12.2852C17.5887 12.4996 17.63 12.782 17.5313 13.0378C17.4337 13.2936 17.2193 13.4751 16.9529 13.5292C16.8138 13.5568 16.7247 13.6894 16.7523 13.8285C16.7799 13.9675 16.9126 14.0567 17.0516 14.0291C17.2448 13.9909 17.421 13.9123 17.5738 13.8009C17.9602 14.0503 18.1671 14.5195 18.0832 14.9897ZM13.6054 15.5065C13.5534 15.566 13.4833 15.5989 13.4101 15.5989C13.3528 15.5989 13.2955 15.5798 13.2498 15.5416C13.1171 15.4301 12.9484 15.2231 12.8699 14.9631C12.7478 14.9875 12.6034 14.996 12.457 14.9599C12.3211 14.927 12.2373 14.789 12.2723 14.65C12.3052 14.5142 12.4432 14.4303 12.5822 14.4653C12.6799 14.4897 12.7828 14.4653 12.8571 14.4409C12.8815 14.338 12.925 14.2286 12.9898 14.1204C13.063 13.9983 13.218 13.9601 13.34 14.0312C13.4621 14.1045 13.5003 14.2594 13.4292 14.3815C13.1819 14.7975 13.5375 15.1181 13.581 15.1531C13.6786 15.2369 13.6945 15.3972 13.6054 15.5065ZM16.5124 14.6203C16.5209 14.7615 16.4116 14.8814 16.2704 14.8888H16.2567C16.1208 14.8888 16.0093 14.7827 16.0009 14.6468C15.9924 14.4781 15.8512 14.3804 15.7482 14.3284C15.6591 14.3857 15.5498 14.4292 15.4277 14.4611C15.2919 14.4961 15.1528 14.4123 15.1178 14.2764C15.0828 14.1405 15.1666 14.0015 15.3025 13.9665C15.7695 13.8465 15.7451 13.3689 15.7398 13.3148C15.7292 13.1758 15.8321 13.0516 15.9711 13.0378C16.1102 13.024 16.2344 13.1269 16.2482 13.266C16.2641 13.4369 16.2375 13.7033 16.107 13.9453C16.2949 14.0716 16.4933 14.2806 16.5124 14.6203Z" fill="url(#paint0_linear_1775_233)"/>
<defs>
<linearGradient id="paint0_linear_1775_233" x1="2.00007" y1="14.5602" x2="27.0015" y2="14.5602" gradientUnits="userSpaceOnUse">
<stop stop-color="#1685FF"/>
<stop offset="0.5" stop-color="#8B5CF6"/>
<stop offset="1" stop-color="#D946EF"/>
</linearGradient>
</defs>
</svg>
