<?xml version="1.0" encoding="UTF-8" standalone="no"?><!DOCTYPE svg PUBLIC "-//W3C//DTD SVG 1.1//EN" "http://www.w3.org/Graphics/SVG/1.1/DTD/svg11.dtd"><svg width="100%" height="100%" viewBox="0 0 154 154" version="1.1" xmlns="http://www.w3.org/2000/svg" xmlns:xlink="http://www.w3.org/1999/xlink" xml:space="preserve" xmlns:serif="http://www.serif.com/" style="fill-rule:evenodd;clip-rule:evenodd;stroke-linejoin:round;stroke-miterlimit:2;"><rect id="Artboard1" x="0" y="0" width="153.68" height="153.68" style="fill:none;"/><g><path d="M92.436,141.335l-33.537,-0c-3.049,-0 -5.863,-1.524 -7.622,-4.104c-1.642,-2.58 -1.994,-5.746 -0.821,-8.56l4.339,-10.554c0.469,-1.173 1.876,-1.759 3.049,-1.29c1.172,0.469 1.759,1.876 1.289,3.049l-4.338,10.553c-0.587,1.408 -0.469,2.932 0.352,4.222c0.82,1.29 2.228,1.993 3.752,1.993l33.537,0c1.29,0 2.345,1.056 2.345,2.346c0,1.29 -1.055,2.345 -2.345,2.345Zm47.726,-0l-30.488,-0c-6.45,-0 -11.726,-5.277 -11.726,-11.726l-0,-28.144c-0,-1.289 1.055,-2.345 2.345,-2.345c1.29,0 2.345,1.056 2.345,2.345l0,28.144c0,3.869 3.166,7.035 7.036,7.035l30.488,0c3.87,0 7.036,-3.166 7.036,-7.035l0,-58.632c0,-3.87 -3.166,-7.036 -7.036,-7.036l-32.833,0c-1.29,0 -2.346,-1.055 -2.346,-2.345c0,-1.29 1.056,-2.345 2.346,-2.345l32.833,-0c6.45,-0 11.727,5.277 11.727,11.726l-0,58.632c-0,6.449 -5.277,11.726 -11.727,11.726Zm-1.172,-9.381l-28.143,-0c-1.29,-0 -2.346,-1.055 -2.346,-2.345c0,-1.29 1.056,-2.346 2.346,-2.346l28.143,0c1.29,0 2.345,1.056 2.345,2.346c-0,1.29 -1.055,2.345 -2.345,2.345Zm-49.251,-18.762l-68.012,-0c-11.023,-0 -19.935,-8.912 -19.935,-19.935l-0,-60.977c-0,-11.023 8.912,-19.935 19.935,-19.935l110.227,0c11.023,0 19.935,8.912 19.935,19.935l-0,19.935c-0,1.29 -1.056,2.345 -2.346,2.345c-1.29,0 -2.345,-1.055 -2.345,-2.345l0,-19.935c0,-8.443 -6.801,-15.244 -15.244,-15.244l-110.227,0c-8.443,0 -15.245,6.801 -15.245,15.244l0,60.977c0,8.443 6.802,15.244 15.245,15.244l68.012,0c1.29,0 2.345,1.056 2.345,2.346c0,1.289 -1.055,2.345 -2.345,2.345Zm-58.631,-48.377c-4.035,-1.048 -7.036,-4.732 -7.036,-9.082c-0,-5.16 4.221,-9.381 9.381,-9.381c5.159,-0 9.381,4.221 9.381,9.381c-0,4.35 -3.002,8.034 -7.036,9.082l0,8.507c0,1.994 1.525,3.518 3.518,3.518l16.534,0c1.186,-11.808 11.227,-21.107 23.335,-21.107c12.109,-0 22.15,9.299 23.336,21.107l16.534,0c4.573,0 8.208,3.635 8.208,8.209l0,8.507c4.035,1.048 7.036,4.732 7.036,9.082c0,5.16 -4.221,9.381 -9.381,9.381c-5.159,0 -9.381,-4.221 -9.381,-9.381c0,-4.35 3.001,-8.034 7.036,-9.082l-0,-8.507c-0,-1.994 -1.525,-3.518 -3.518,-3.518l-16.534,-0c-1.186,11.808 -11.227,21.107 -23.336,21.107c-12.108,0 -22.149,-9.299 -23.335,-21.107l-16.534,-0c-4.573,-0 -8.208,-3.635 -8.208,-8.209l-0,-8.507Zm93.81,33.133c-2.58,-0 -4.69,2.11 -4.69,4.69c-0,2.58 2.11,4.691 4.69,4.691c2.58,-0 4.691,-2.111 4.691,-4.691c-0,-2.58 -2.111,-4.69 -4.691,-4.69Zm-45.733,-37.525c-10.319,0 -18.762,8.443 -18.762,18.762c0,10.32 8.443,18.763 18.762,18.763c10.32,-0 18.763,-8.443 18.763,-18.763c-0,-10.319 -8.443,-18.762 -18.763,-18.762Zm-2.931,28.73c-0.586,-0 -1.173,-0.235 -1.642,-0.704l-6.449,-6.449c-0.938,-0.938 -0.938,-2.345 -0,-3.284c0.938,-0.938 2.345,-0.938 3.283,0l4.808,4.808l11.843,-11.843c0.939,-0.938 2.346,-0.938 3.284,-0c0.938,0.938 0.938,2.345 -0,3.283l-13.485,13.485c-0.469,0.469 -1.056,0.704 -1.642,0.704Zm-42.801,-38.111c-2.58,0 -4.691,2.111 -4.691,4.691c0,2.58 2.111,4.69 4.691,4.69c2.58,0 4.69,-2.11 4.69,-4.69c0,-2.58 -2.11,-4.691 -4.69,-4.691Z" style="fill:url(#_Linear1);fill-rule:nonzero;"/></g><defs><linearGradient id="_Linear1" x1="0" y1="0" x2="1" y2="0" gradientUnits="userSpaceOnUse" gradientTransform="matrix(150.1,0,0,109.8,1.79221,77.1509)"><stop offset="0" style="stop-color:#1685ff;stop-opacity:1"/><stop offset="0.5" style="stop-color:#8b5cf6;stop-opacity:1"/><stop offset="1" style="stop-color:#d946ef;stop-opacity:1"/></linearGradient></defs></svg>