<?xml version="1.0" encoding="UTF-8"?><svg id="a" xmlns="http://www.w3.org/2000/svg" xmlns:xlink="http://www.w3.org/1999/xlink" viewBox="0 0 50 50"><defs><style>.h{fill:url(#c);}.i{fill:url(#f);}.j{fill:url(#g);}.k{fill:url(#b);}.l{fill:url(#d);}.m{fill:url(#e);}</style><linearGradient id="b" x1="1.6" y1="25.6" x2="48.7" y2="25.6" gradientTransform="matrix(1, 0, 0, 1, 0, 0)" gradientUnits="userSpaceOnUse"><stop offset="0" stop-color="#4376fc"/><stop offset="1" stop-color="#c84bf1"/></linearGradient><linearGradient id="c" x1="23.59" y1="17.58" x2="29.78" y2="22.84" xlink:href="#b"/><linearGradient id="d" x1="24.88" y1="18.78" x2="27.47" y2="18.78" xlink:href="#b"/><linearGradient id="e" x1="18.51" y1="17.28" x2="22.62" y2="17.28" xlink:href="#b"/><linearGradient id="f" x1="19.05" y1="19.22" x2="23.16" y2="19.22" xlink:href="#b"/><linearGradient id="g" x1="19.6" y1="21.15" x2="23.72" y2="21.15" xlink:href="#b"/></defs><path class="k" d="M23.35,6.42c-1.78,.27-3.68,1.06-5.22,2.15-.89,.64-2.13,1.88-2.7,2.69-.35,.5-.39,.53-.75,.53-.55,0-1.9,.25-2.55,.47-3.02,1.01-5.28,3.48-6.07,6.61-.28,1.11-.28,3.12,0,4.23,.86,3.37,3.43,5.98,6.73,6.81l.39,.1v5.69h-2.47l-.19-.56c-.74-2.18-3.03-3.49-5.27-3.02-2.08,.43-3.66,2.38-3.66,4.5s1.58,4.07,3.66,4.5c2.24,.47,4.54-.84,5.27-3.02l.19-.56h1.78c1.19,0,1.87-.04,2.02-.11,.49-.22,.51-.33,.51-3.94v-3.31h9.2v5.59l-.52,.17c-1.45,.46-2.62,1.73-3.03,3.3-.72,2.8,1.54,5.66,4.46,5.66,2.12,0,4.07-1.58,4.5-3.66,.47-2.25-.84-4.54-3.02-5.27l-.56-.19v-5.59h9.2v3.31c0,3.61,.02,3.72,.51,3.94,.16,.07,.84,.11,2.02,.11h1.78l.19,.56c.74,2.18,3.03,3.49,5.27,3.02,2.08-.43,3.66-2.38,3.66-4.5s-1.58-4.07-3.66-4.5c-2.25-.47-4.62,.9-5.3,3.06l-.17,.52h-2.47v-5.69l.4-.1c1.5-.38,3.13-1.31,4.23-2.41,3.62-3.63,3.63-9.39,0-13.02-1.53-1.53-3.62-2.49-5.79-2.66l-.74-.06-.5-.67c-2.54-3.47-7.08-5.34-11.37-4.67h0Zm4.2,2.01c2.48,.63,4.69,2.19,6.04,4.25,.27,.4,.57,.79,.69,.85,.11,.06,.66,.12,1.21,.15,2.53,.11,4.58,1.27,5.94,3.35,.81,1.23,1.14,2.37,1.14,3.97,0,1.19-.09,1.68-.51,2.78-.61,1.64-2.39,3.42-4.03,4.03-1.43,.53-.63,.51-12.9,.51s-11.47,.03-12.9-.51c-1.64-.61-3.42-2.39-4.03-4.03-.41-1.1-.51-1.59-.51-2.78,0-1.6,.33-2.73,1.15-3.99,1.37-2.11,3.72-3.36,6.28-3.37,.9,0,.96-.04,1.63-1.06,1.22-1.84,3.27-3.35,5.4-4,1.72-.52,3.72-.58,5.38-.15h0ZM7.43,34.19c.97,.47,1.48,1.32,1.48,2.45s-.52,1.97-1.5,2.46c-.43,.21-.64,.26-1.21,.26s-.78-.05-1.21-.26c-1.47-.73-1.98-2.56-1.09-3.96,.74-1.16,2.26-1.56,3.53-.95h0Zm37.91,0c.97,.47,1.48,1.32,1.48,2.45s-.52,1.97-1.5,2.46c-.43,.21-.64,.26-1.21,.26s-.78-.05-1.21-.26c-1.47-.73-1.98-2.56-1.09-3.96,.74-1.16,2.26-1.56,3.53-.95h0Zm-18.95,3.68c.97,.47,1.48,1.32,1.48,2.45s-.52,1.97-1.5,2.46c-.43,.21-.64,.26-1.21,.26s-.78-.05-1.21-.26c-1.47-.73-1.98-2.56-1.09-3.96,.74-1.16,2.26-1.56,3.53-.95h0Zm0,0"/><g><path class="h" d="M30.28,18.4c-.36-1.92-1.73-3.38-3.59-3.86-.46-.12-1.13-.17-1.6-.12-.95,.09-1.89,.48-2.61,1.07-.1,.08-.2,.18-.23,.23-.07,.12-.06,.3,.01,.41,.1,.15,.18,.19,.35,.19,.14,0,.16-.01,.3-.12,.55-.44,1.13-.73,1.75-.87,.91-.2,1.84-.07,2.68,.35,1.06,.55,1.8,1.49,2.08,2.69,.07,.28,.07,.35,.08,.85,0,.48,0,.58-.06,.81-.28,1.23-1.01,2.2-2.1,2.75-.83,.43-1.77,.55-2.67,.35-.62-.14-1.2-.42-1.76-.87-.14-.12-.16-.12-.3-.12-.17,0-.26,.05-.35,.19-.07,.11-.08,.29,0,.41,.11,.18,.69,.59,1.15,.82,1.52,.75,3.35,.63,4.75-.29,1.13-.74,1.87-1.87,2.12-3.22,.06-.33,.06-1.3,0-1.63Z"/><path class="l" d="M25.54,16.47c-.13-.1-.28-.11-.43-.03-.09,.04-.13,.09-.17,.18-.06,.11-.06,.12-.06,1.28,0,.75,.01,1.2,.03,1.24,.02,.04,.46,.51,.99,1.04,1.02,1.02,1.04,1.04,1.24,1,.11-.02,.24-.12,.29-.22,.04-.09,.05-.25,.01-.35-.01-.04-.41-.46-.88-.92l-.85-.85v-1.05c0-1.17,0-1.17-.17-1.3Z"/><path class="m" d="M22.4,17.65c.16-.08,.26-.3,.21-.47-.03-.12-.17-.26-.29-.29-.05-.02-.75-.03-1.78-.03h-1.69l-.11,.06c-.17,.09-.24,.2-.23,.38,.01,.17,.08,.28,.21,.34,.08,.04,.28,.04,1.85,.04s1.77,0,1.83-.04Z"/><path class="i" d="M21.17,19.63c1.72,0,1.75,0,1.82-.06,.14-.1,.18-.18,.18-.35s-.04-.25-.18-.35c-.07-.05-.1-.05-1.84-.06-1.44,0-1.79,0-1.85,.03-.17,.07-.27,.27-.24,.47,.02,.12,.15,.26,.27,.3,.06,.02,.66,.03,1.84,.02Z"/><path class="j" d="M23.49,21.51c.17-.09,.24-.2,.23-.38-.01-.17-.08-.28-.21-.34-.08-.04-.28-.04-1.86-.04h-1.77l-.09,.06c-.13,.08-.21,.27-.19,.41,.02,.14,.17,.3,.29,.33,.06,.02,.72,.03,1.79,.03h1.69l.11-.06Z"/></g></svg>