<?xml version="1.0" encoding="UTF-8" standalone="no"?><!DOCTYPE svg PUBLIC "-//W3C//DTD SVG 1.1//EN" "http://www.w3.org/Graphics/SVG/1.1/DTD/svg11.dtd"><svg width="100%" height="100%" viewBox="0 0 512 512" version="1.1" xmlns="http://www.w3.org/2000/svg" xmlns:xlink="http://www.w3.org/1999/xlink" xml:space="preserve" xmlns:serif="http://www.serif.com/" style="fill-rule:evenodd;clip-rule:evenodd;stroke-linejoin:round;stroke-miterlimit:2;"><rect id="Artboard1" x="0" y="0" width="512" height="512" style="fill:none;"/><g><g><path d="M469.951,511.763l-427.913,-0c-23.061,-0 -42.038,-18.977 -42.038,-42.038l-0,-427.45c-0,-23.061 18.977,-42.038 42.038,-42.038l427.924,0c23.061,0 42.038,18.977 42.038,42.038l0,427.45c-0.041,23.05 -18.999,42.003 -42.049,42.038Zm-427.913,-495.357c-14.192,-0 -25.87,11.677 -25.87,25.869l0,427.45c0,14.192 11.678,25.869 25.87,25.869l427.924,0c14.192,0 25.87,-11.677 25.87,-25.869l-0,-427.45c-0,-14.192 -11.678,-25.869 -25.87,-25.869l-427.924,-0Z" style="fill:#fff;fill-rule:nonzero;"/><path d="M503.916,105.882l-495.832,-0c-4.435,-0 -8.084,-3.65 -8.084,-8.085c-0,-4.434 3.649,-8.084 8.084,-8.084l495.832,0c4.435,0 8.084,3.65 8.084,8.084c0,4.435 -3.649,8.085 -8.084,8.085Z" style="fill:#fff;fill-rule:nonzero;"/><path d="M68.737,76.239c-12.719,0 -23.185,-10.466 -23.185,-23.185c-0,-12.719 10.466,-23.186 23.185,-23.186c12.72,0 23.186,10.467 23.186,23.186c-0.012,12.715 -10.471,23.174 -23.186,23.185Zm0,-30.181c-3.849,0 -7.017,3.168 -7.017,7.018c0,3.849 3.168,7.017 7.017,7.017c3.85,-0 7.017,-3.168 7.017,-7.017c0,-0.004 0,-0.008 0,-0.011c0,-3.85 -3.167,-7.017 -7.017,-7.017l0,0.01Z" style="fill:#fff;fill-rule:nonzero;"/><path d="M443.252,76.239c-12.719,0 -23.186,-10.466 -23.186,-23.185c0,-12.719 10.467,-23.186 23.186,-23.186c12.719,0 23.185,10.467 23.185,23.186c-0.011,12.715 -10.47,23.174 -23.185,23.185Zm-0,-30.181c-3.85,0 -7.017,3.168 -7.017,7.018c-0,3.849 3.167,7.017 7.017,7.017c3.849,-0 7.017,-3.168 7.017,-7.017c-0,-0.004 -0,-0.008 -0,-0.011c-0,-3.85 -3.168,-7.017 -7.017,-7.017l-0,0.01Z" style="fill:#fff;fill-rule:nonzero;"/><path d="M370.893,73.976l-229.797,-0c-11.835,-0.263 -21.427,-10.07 -21.427,-21.908c-0,-11.838 9.592,-21.646 21.427,-21.909l229.797,0c11.835,0.263 21.427,10.071 21.427,21.909c0,11.838 -9.592,21.645 -21.427,21.908Zm-229.797,-27.648c-3.055,0.132 -5.496,2.682 -5.496,5.74c0,3.058 2.441,5.607 5.496,5.739l229.797,0c3.055,-0.132 5.496,-2.681 5.496,-5.739c0,-3.058 -2.441,-5.608 -5.496,-5.74l-229.797,-0Z" style="fill:#fff;fill-rule:nonzero;"/><path d="M212.399,239.077c-29.566,0 -57.495,-5.282 -78.686,-14.875c-23.164,-10.509 -35.926,-25.266 -35.926,-41.52c-0,-16.255 12.762,-31.011 35.926,-41.521c21.137,-9.593 49.066,-14.875 78.686,-14.875c29.621,0 57.495,5.282 78.633,14.875c23.174,10.51 35.937,25.255 35.937,41.521c-0,16.265 -12.763,31.011 -35.937,41.52c-21.138,9.593 -49.045,14.875 -78.633,14.875Zm0,-96.622c-57.98,-0 -98.39,21.202 -98.39,40.227c-0,19.024 40.41,40.227 98.39,40.227c57.98,-0 98.401,-21.203 98.401,-40.227c0,-19.025 -40.41,-40.227 -98.401,-40.227Z" style="fill:#fff;fill-rule:nonzero;"/><path d="M212.399,475.201c-29.566,-0 -57.484,-5.282 -78.686,-14.875c-23.164,-10.51 -35.926,-25.266 -35.926,-41.521l-0,-236.102c-0,-4.435 3.649,-8.084 8.084,-8.084c4.435,-0 8.084,3.649 8.084,8.084l0,236.059c0,19.025 40.41,40.227 98.39,40.227c41.424,0 78.87,-11.275 93.184,-28.025c1.536,-1.799 3.785,-2.836 6.15,-2.836c4.435,0 8.085,3.65 8.085,8.085c-0,1.924 -0.687,3.786 -1.936,5.25c-17.419,20.501 -58.821,33.738 -105.429,33.738Zm106.485,-235.854c-0.003,-0 -0.007,-0 -0.01,-0c-4.429,-0 -8.074,-3.645 -8.074,-8.074c0,-0.003 0,-0.007 0,-0.011l0,-48.559c0,-4.435 3.65,-8.084 8.084,-8.084c4.435,-0 8.085,3.649 8.085,8.084l-0,48.581c-0.012,4.427 -3.658,8.063 -8.085,8.063Z" style="fill:#fff;fill-rule:nonzero;"/><path d="M190.938,278.431c-0.532,0 -1.063,-0.054 -1.584,-0.162c-0.517,-0.105 -1.022,-0.26 -1.509,-0.463c-0.491,-0.201 -0.96,-0.45 -1.402,-0.744c-0.442,-0.291 -0.854,-0.627 -1.228,-1.002c-0.375,-0.375 -0.711,-0.787 -1.003,-1.229c-0.29,-0.44 -0.539,-0.905 -0.744,-1.391c-0.41,-0.979 -0.619,-2.031 -0.614,-3.093c0.006,-2.143 0.854,-4.2 2.361,-5.724c0.38,-0.369 0.791,-0.704 1.228,-1.002c0.444,-0.29 0.913,-0.539 1.402,-0.744c0.487,-0.2 0.992,-0.351 1.509,-0.453c1.041,-0.215 2.116,-0.215 3.158,0c0.52,0.103 1.028,0.255 1.52,0.453c0.485,0.205 0.951,0.454 1.39,0.744c0.438,0.298 0.849,0.633 1.229,1.002c0.378,0.376 0.714,0.792 1.003,1.24c0.585,0.879 0.995,1.864 1.207,2.899c0.107,0.522 0.161,1.053 0.161,1.585c0.001,0.529 -0.054,1.056 -0.161,1.574c-0.107,0.519 -0.262,1.028 -0.464,1.519c-0.205,0.486 -0.454,0.951 -0.743,1.391c-0.586,0.887 -1.345,1.646 -2.232,2.231c-0.437,0.294 -0.903,0.543 -1.39,0.744c-0.491,0.201 -1,0.357 -1.52,0.463c-0.518,0.108 -1.045,0.162 -1.574,0.162Z" style="fill:#fff;fill-rule:nonzero;"/><path d="M212.399,278.431c-0.529,0 -1.056,-0.054 -1.574,-0.162c-0.52,-0.106 -1.028,-0.262 -1.519,-0.463c-0.488,-0.201 -0.954,-0.45 -1.391,-0.744c-0.444,-0.289 -0.856,-0.625 -1.229,-1.002c-1.513,-1.516 -2.366,-3.571 -2.371,-5.713c0,-0.532 0.055,-1.063 0.162,-1.585c0.105,-0.517 0.26,-1.022 0.463,-1.509c0.199,-0.488 0.448,-0.954 0.744,-1.39c0.286,-0.447 0.622,-0.859 1.002,-1.229c0.375,-0.378 0.787,-0.717 1.229,-1.013c0.44,-0.29 0.905,-0.539 1.391,-0.744c0.491,-0.198 1,-0.35 1.519,-0.453c1.042,-0.215 2.117,-0.215 3.159,0c0.516,0.102 1.022,0.253 1.509,0.453c0.488,0.205 0.957,0.454 1.401,0.744c0.44,0.298 0.852,0.638 1.229,1.013c3.125,3.138 3.125,8.288 -0,11.426c-0.375,0.375 -0.786,0.711 -1.229,1.002c-0.441,0.294 -0.911,0.543 -1.401,0.744c-0.487,0.203 -0.993,0.358 -1.509,0.463c-0.522,0.107 -1.053,0.162 -1.585,0.162Z" style="fill:#fff;fill-rule:nonzero;"/><path d="M190.938,435.847c-0.532,-0 -1.063,-0.054 -1.584,-0.162c-0.517,-0.102 -1.022,-0.253 -1.509,-0.453c-0.489,-0.204 -0.958,-0.453 -1.402,-0.743c-0.44,-0.299 -0.851,-0.638 -1.228,-1.014c-0.375,-0.375 -0.711,-0.786 -1.003,-1.228c-0.292,-0.439 -0.541,-0.905 -0.744,-1.391c-0.201,-0.487 -0.356,-0.993 -0.463,-1.509c-0.098,-0.522 -0.149,-1.053 -0.151,-1.584c0.006,-2.14 0.855,-4.194 2.361,-5.713c0.374,-0.375 0.786,-0.711 1.228,-1.003c0.442,-0.294 0.911,-0.543 1.402,-0.744c0.485,-0.207 0.991,-0.363 1.509,-0.463c1.041,-0.216 2.116,-0.216 3.158,0c0.521,0.102 1.031,0.257 1.52,0.463c0.977,0.408 1.867,1.001 2.619,1.747c0.378,0.372 0.714,0.784 1.003,1.228c0.292,0.439 0.541,0.905 0.743,1.391c0.202,0.487 0.357,0.993 0.464,1.509c0.215,1.045 0.215,2.124 -0,3.169c-0.107,0.516 -0.262,1.022 -0.464,1.509c-0.202,0.486 -0.451,0.952 -0.743,1.391c-0.289,0.444 -0.625,0.856 -1.003,1.228c-0.377,0.376 -0.788,0.715 -1.229,1.014c-0.439,0.289 -0.905,0.538 -1.39,0.743c-0.492,0.198 -1,0.35 -1.52,0.453c-0.518,0.108 -1.045,0.162 -1.574,0.162Z" style="fill:#fff;fill-rule:nonzero;"/><path d="M212.399,435.847c-2.141,-0.008 -4.195,-0.861 -5.713,-2.372c-0.377,-0.372 -0.713,-0.784 -1.002,-1.228c-0.296,-0.437 -0.545,-0.903 -0.744,-1.391c-0.201,-0.487 -0.357,-0.993 -0.463,-1.509c-0.107,-0.521 -0.162,-1.052 -0.162,-1.584c0.003,-2.143 0.856,-4.199 2.371,-5.713c0.375,-0.378 0.787,-0.718 1.229,-1.014c0.44,-0.289 0.905,-0.538 1.391,-0.743c0.491,-0.198 1,-0.35 1.519,-0.453c1.042,-0.216 2.117,-0.216 3.159,0c0.516,0.102 1.022,0.253 1.509,0.453c0.488,0.205 0.957,0.453 1.401,0.743c0.44,0.299 0.852,0.638 1.229,1.014c1.513,1.515 2.364,3.571 2.364,5.713c0,4.434 -3.649,8.084 -8.084,8.084c-0.001,-0 -0.003,-0 -0.004,-0Z" style="fill:#fff;fill-rule:nonzero;"/><path d="M233.871,435.847c-0.532,-0 -1.063,-0.054 -1.585,-0.162c-0.516,-0.102 -1.022,-0.253 -1.509,-0.453c-0.488,-0.204 -0.957,-0.453 -1.401,-0.743c-0.44,-0.299 -0.852,-0.638 -1.229,-1.014c-0.377,-0.372 -0.713,-0.784 -1.002,-1.228c-0.292,-0.439 -0.541,-0.905 -0.744,-1.391c-0.201,-0.487 -0.357,-0.993 -0.463,-1.509c-0.202,-1.047 -0.202,-2.122 -0,-3.169c0.106,-0.516 0.262,-1.022 0.463,-1.509c0.203,-0.486 0.452,-0.952 0.744,-1.391c0.292,-0.442 0.628,-0.853 1.002,-1.228c1.914,-1.9 4.652,-2.728 7.298,-2.21c0.519,0.103 1.028,0.255 1.519,0.453c0.486,0.205 0.951,0.454 1.391,0.743c0.44,0.299 0.852,0.638 1.229,1.014c0.374,0.375 0.71,0.786 1.002,1.228c0.292,0.439 0.541,0.905 0.744,1.391c0.201,0.487 0.357,0.993 0.463,1.509c0.107,0.521 0.162,1.052 0.162,1.585c-0.005,2.141 -0.858,4.196 -2.371,5.712c-0.377,0.376 -0.789,0.715 -1.229,1.014c-0.44,0.289 -0.905,0.538 -1.391,0.743c-0.491,0.198 -1,0.35 -1.519,0.453c-0.518,0.108 -1.045,0.162 -1.574,0.162Z" style="fill:#fff;fill-rule:nonzero;"/><path d="M190.938,357.139c-0.532,-0 -1.063,-0.054 -1.584,-0.162c-0.517,-0.105 -1.022,-0.26 -1.509,-0.463c-0.489,-0.205 -0.958,-0.454 -1.402,-0.744c-0.442,-0.292 -0.854,-0.628 -1.228,-1.003c-0.372,-0.377 -0.708,-0.788 -1.003,-1.228c-0.292,-0.443 -0.541,-0.912 -0.744,-1.402c-0.203,-0.486 -0.358,-0.992 -0.463,-1.509c-0.099,-0.518 -0.149,-1.045 -0.151,-1.573c0.001,-0.532 0.052,-1.062 0.151,-1.585c0.105,-0.517 0.26,-1.022 0.463,-1.509c0.203,-0.49 0.452,-0.959 0.744,-1.401c0.585,-0.887 1.345,-1.646 2.231,-2.231c0.444,-0.29 0.913,-0.539 1.402,-0.744c1.474,-0.618 3.1,-0.78 4.667,-0.464c0.52,0.107 1.029,0.262 1.52,0.464c0.485,0.205 0.951,0.454 1.39,0.744c0.44,0.295 0.852,0.63 1.229,1.002c0.375,0.375 0.711,0.786 1.003,1.229c0.292,0.442 0.541,0.911 0.743,1.401c0.203,0.487 0.359,0.992 0.464,1.509c0.107,0.521 0.162,1.052 0.161,1.585c0.001,0.528 -0.054,1.056 -0.161,1.573c-0.105,0.517 -0.261,1.023 -0.464,1.509c-0.202,0.49 -0.451,0.959 -0.743,1.402c-0.586,0.887 -1.345,1.646 -2.232,2.231c-0.439,0.29 -0.905,0.539 -1.39,0.744c-0.491,0.201 -1,0.356 -1.52,0.463c-0.518,0.108 -1.045,0.162 -1.574,0.162Z" style="fill:#fff;fill-rule:nonzero;"/><path d="M212.399,357.139c-2.141,-0.008 -4.195,-0.861 -5.713,-2.372c-0.375,-0.374 -0.711,-0.786 -1.002,-1.228c-0.297,-0.44 -0.546,-0.91 -0.744,-1.402c-0.203,-0.486 -0.358,-0.992 -0.463,-1.509c-0.108,-0.517 -0.162,-1.045 -0.162,-1.573c-0,-0.533 0.054,-1.064 0.162,-1.585c0.105,-0.517 0.26,-1.022 0.463,-1.509c0.198,-0.492 0.447,-0.962 0.744,-1.401c0.291,-0.443 0.627,-0.854 1.002,-1.229c3.142,-3.127 8.295,-3.127 11.437,0c0.372,0.377 0.707,0.789 1.002,1.229c0.292,0.442 0.541,0.911 0.744,1.401c0.203,0.487 0.358,0.992 0.463,1.509c0.1,0.523 0.15,1.053 0.151,1.585c-0.001,0.528 -0.052,1.055 -0.151,1.573c-0.105,0.517 -0.26,1.023 -0.463,1.509c-0.203,0.49 -0.452,0.959 -0.744,1.402c-0.295,0.44 -0.63,0.851 -1.002,1.228c-1.522,1.512 -3.579,2.365 -5.724,2.372Z" style="fill:#fff;fill-rule:nonzero;"/><path d="M212.399,316.05c-29.566,-0 -57.495,-5.282 -78.686,-14.875c-23.164,-10.521 -35.926,-25.266 -35.926,-41.521c-0,-4.435 3.649,-8.084 8.084,-8.084c4.435,-0 8.084,3.649 8.084,8.084c0,19.025 40.41,40.227 98.39,40.227c8.048,0.002 16.09,-0.43 24.091,-1.293c0.244,-0.023 0.489,-0.034 0.734,-0.034c4.435,0 8.084,3.65 8.084,8.084c0,4.055 -3.049,7.513 -7.072,8.021c-8.563,0.926 -17.17,1.39 -25.783,1.391Z" style="fill:#fff;fill-rule:nonzero;"/><path d="M212.399,401.516c-29.566,-0 -57.495,-5.282 -78.686,-14.864c-23.164,-10.521 -35.926,-25.266 -35.926,-41.532c-0,-4.435 3.649,-8.084 8.084,-8.084c4.435,0 8.084,3.649 8.084,8.084c0,19.036 40.41,40.227 98.39,40.227c15.064,0.074 30.092,-1.487 44.819,-4.656c0.504,-0.097 1.015,-0.146 1.528,-0.146c4.434,0 8.084,3.65 8.084,8.084c-0,3.696 -2.535,6.944 -6.119,7.842c-15.856,3.423 -32.037,5.115 -48.258,5.045Z" style="fill:#fff;fill-rule:nonzero;"/><path d="M321.752,449.428c-1.278,0.002 -2.539,-0.301 -3.676,-0.884l-10.337,-5.271c-48.174,-24.503 -78.586,-74.221 -78.46,-128.269l-0,-45.918c0.026,-7.024 4.359,-13.355 10.898,-15.921l75.344,-29.286c3.988,-1.558 8.419,-1.558 12.407,-0l75.345,29.275c6.569,2.525 10.917,8.884 10.886,15.921l0,45.886c0.124,54.047 -30.287,103.764 -78.459,128.269l-10.305,5.271c-1.125,0.592 -2.373,0.909 -3.643,0.927Zm-0,-210.545c-0.111,0.001 -0.221,0.023 -0.324,0.065l-75.366,29.286c-0.352,0.135 -0.585,0.475 -0.582,0.852l-0,45.886c-0.124,47.991 26.876,92.144 69.653,113.901l6.619,3.395l6.618,-3.395c42.777,-21.757 69.777,-65.91 69.653,-113.901l0,-45.886c0.002,-0.373 -0.225,-0.711 -0.571,-0.852l-75.366,-29.286c-0.107,-0.043 -0.22,-0.064 -0.334,-0.065Z" style="fill:#fff;fill-rule:nonzero;"/><path d="M352.698,394.186l-61.957,0c-7.849,0.125 -14.416,-6.218 -14.563,-14.066l0,-55.286c0.094,-6.658 5.641,-12.063 12.299,-11.986l66.485,0c6.658,-0.077 12.204,5.328 12.298,11.986l0,55.286c-0.146,7.848 -6.713,14.191 -14.562,14.066Zm-60.362,-16.168l58.745,-0l0,-49.001l-58.745,-0l-0,49.001Z" style="fill:#fff;fill-rule:nonzero;"/><path d="M353.011,329.017c-4.435,-0 -8.085,-3.65 -8.085,-8.085l0,-22.894c0,-11.49 -10.401,-20.836 -23.185,-20.836c-12.784,0 -23.196,9.346 -23.196,20.836l-0,22.927c-0,4.435 -3.65,8.084 -8.085,8.084c-4.435,-0 -8.084,-3.649 -8.084,-8.084l0,-22.927c0,-20.405 17.656,-37.004 39.365,-37.004c21.709,-0 39.332,16.524 39.332,37.004l0,22.927c-0.017,4.414 -3.648,8.04 -8.062,8.052Z" style="fill:#fff;fill-rule:nonzero;"/></g></g></svg>