<?xml version="1.0" encoding="UTF-8"?><svg id="a" xmlns="http://www.w3.org/2000/svg" xmlns:xlink="http://www.w3.org/1999/xlink" viewBox="0 0 50 50"><defs><style>.g{fill:url(#c);}.h{fill:url(#f);}.i{fill:url(#b);}.j{fill:url(#d);}.k{fill:url(#e);}</style><linearGradient id="b" x1="1.88" y1="25.08" x2="42.91" y2="25.08" gradientTransform="matrix(1, 0, 0, 1, 0, 0)" gradientUnits="userSpaceOnUse"><stop offset=".01" stop-color="#4376fc"/><stop offset=".99" stop-color="#c84bf1"/></linearGradient><linearGradient id="c" x1="15.29" y1="8.5" x2="22.22" y2="8.5" xlink:href="#b"/><linearGradient id="d" x1="21.33" y1="19.43" x2="30.21" y2="19.43" xlink:href="#b"/><linearGradient id="e" x1="30.89" y1="36.24" x2="47.29" y2="36.24" xlink:href="#b"/><linearGradient id="f" x1="34.7" y1="31.53" x2="43.08" y2="31.53" xlink:href="#b"/></defs><path class="i" d="M32.66,23.74c-.07-.14-.16-.35-.19-.48l-.07-.21h2.46c2.84,0,3.4-.09,4.56-.66,1.68-.84,2.88-2.3,3.34-4.06,.21-.83,.19-2.32-.06-3.2-.47-1.71-1.72-3.2-3.29-3.94l-.57-.28-.21-.81c-1-3.9-4.74-6.61-8.79-6.38-.55,.03-1.24,.11-1.52,.19l-.52,.13-.54-.42c-1.98-1.52-4.65-2.2-7.19-1.84-1.95,.29-4,1.35-5.4,2.82-1.56,1.64-2.49,3.66-2.63,5.76l-.06,.83-.6,.39c-2.12,1.39-3.2,4.03-2.66,6.53,.3,1.39,1.45,3.13,2.52,3.78l.38,.24v9.49h-3.48l-.12-.35c-.84-2.34-3.97-2.81-5.47-.84-1.22,1.59-.68,3.84,1.13,4.74,1.26,.62,2.69,.34,3.67-.7,.25-.26,.52-.67,.61-.9l.16-.43h2.12c2.18,0,2.64-.07,2.81-.38,.06-.11,.1-2.06,.1-5.07v-4.87l.27,.06c.14,.03,.66,.09,1.14,.12l.88,.06v13.87l-.37,.11c-.53,.15-1.37,.95-1.7,1.61-.22,.46-.27,.67-.27,1.31,0,1.3,.6,2.27,1.75,2.83,.56,.28,.72,.31,1.4,.31,.56,0,.89-.06,1.22-.21,.67-.31,1.34-.97,1.64-1.65,.24-.52,.26-.67,.22-1.41-.03-.68-.09-.91-.31-1.33-.34-.63-.87-1.12-1.54-1.42l-.52-.23v-13.82h2.18l-.24,.58c-.31,.76-.27,.88,.86,1.98,1,.98,1.07,1,1.91,.63q.54-.24,.9-.06c.19,.1,.51,.23,.71,.29,.31,.11,.38,.18,.56,.69,.23,.62,.46,.85,.87,.85h.27v14.29l-.28,.07c-.34,.08-1.04,.56-1.38,.97-.48,.56-.68,1.15-.68,1.98,0,1.3,.6,2.27,1.75,2.83,.56,.28,.72,.31,1.4,.31,.92,0,1.45-.22,2.11-.82,.65-.59,.92-1.2,.97-2.13,.03-.62,0-.87-.16-1.3-.29-.74-.84-1.35-1.59-1.72l-.61-.31v-14.18h.28c.39,0,.67-.27,.91-.86,.2-.5,.22-.52,.94-.82l.74-.31,.5,.24c.79,.36,.85,.34,1.95-.75,1.05-1.05,1.13-1.22,.85-1.76ZM6.1,33.57c-.45,.37-.97,.51-1.44,.36-1.58-.48-1.67-2.57-.12-3.11,.45-.16,.47-.16,.91-.05,1.27,.35,1.65,1.96,.66,2.79Zm11.05,5.1c.91,.67,.92,2.05,0,2.65-.88,.58-1.96,.28-2.39-.67-.22-.5-.22-.86,0-1.35,.41-.89,1.6-1.21,2.38-.63Zm.82-17.34l.48,.18h-2.05c-1.51,0-2.21-.03-2.66-.13-1.68-.4-3.05-1.75-3.49-3.43-.53-2.08,.48-4.31,2.42-5.33,.37-.19,.71-.4,.74-.47,.04-.07,.1-.65,.13-1.31,.05-.79,.14-1.42,.28-1.86,1.27-4.06,5.23-6.43,9.34-5.58,1.15,.24,2.58,.93,3.54,1.72,.78,.65,.73,.64,1.81,.33,.29-.09,.92-.18,1.38-.21,2.45-.15,4.94,1.08,6.3,3.12,.56,.84,.89,1.63,1.11,2.7,.1,.47,.22,.91,.28,.97,.06,.07,.35,.21,.66,.31,1.93,.65,3.16,2.38,3.16,4.45,0,2.22-1.39,4.01-3.59,4.58-.42,.1-1.07,.14-2.61,.13h-2.05l.43-.19c.77-.34,.76-.32,.76-1.91,0-1.39,0-1.41-.25-1.6-.13-.1-.44-.26-.69-.34-.44-.14-.46-.16-.74-.9l-.29-.75,.22-.5c.35-.8,.32-.87-.71-1.93-.51-.51-1.03-.96-1.15-1-.13-.03-.46,.05-.83,.2l-.6,.26-.37-.18c-.2-.11-.51-.23-.7-.3-.3-.1-.36-.17-.52-.64-.29-.84-.41-.9-1.95-.9s-1.61,.03-1.91,.85c-.18,.51-.25,.58-.56,.69-.19,.06-.51,.19-.71,.3l-.36,.17-.58-.25c-.39-.16-.68-.22-.83-.18-.31,.08-1.87,1.59-2.02,1.96-.1,.24-.09,.35,.13,.86l.25,.58-.3,.74-.31,.74-.58,.23c-.38,.15-.62,.31-.7,.46-.08,.15-.12,.69-.12,1.49,0,1.46,.04,1.55,.81,1.85Zm9.4,23.99c0,1.16-1.08,1.94-2.15,1.54-1.01-.39-1.38-1.48-.81-2.41,.42-.7,1.34-.93,2.1-.55,.54,.28,.86,.8,.86,1.43Zm4.16-24.36c-.09,.29-.31,.85-.51,1.26l-.34,.74,.2,.5c.11,.28,.21,.54,.21,.6,0,.05-.15,.24-.33,.42l-.33,.32-.51-.21c-.64-.27-.68-.27-1.31,.07-.29,.14-.82,.36-1.17,.49-.55,.18-.68,.26-.81,.53l-.15,.32h-.74c-.56,0-.74-.03-.74-.13,0-.27-.38-.61-.82-.72-.24-.07-.73-.26-1.1-.44-.36-.18-.73-.33-.8-.33-.09,0-.37,.1-.63,.21l-.49,.2-.75-.75,.19-.43c.26-.56,.25-.75-.08-1.4-.14-.3-.34-.78-.44-1.07-.21-.67-.31-.78-.91-.99l-.48-.17v-1.09l.47-.17c.58-.21,.73-.37,.93-1.02,.09-.29,.28-.76,.43-1.06,.32-.65,.33-.78,.09-1.37l-.2-.46,.38-.37,.37-.38,.49,.2c.61,.27,.67,.27,1.33-.07,.3-.14,.78-.34,1.07-.44,.67-.21,.81-.34,1.01-.92l.17-.47h1.09l.21,.52c.24,.59,.27,.61,1.14,.91,.33,.11,.79,.31,1,.44,.49,.28,.67,.29,1.25,.04l.46-.2,.38,.38,.37,.38-.2,.5c-.11,.27-.21,.54-.21,.6s.12,.34,.28,.63c.14,.29,.37,.82,.49,1.18,.21,.65,.22,.66,.77,.91l.56,.25v1.07l-.56,.24c-.54,.24-.57,.27-.72,.75Z"/><path class="g" d="M19.27,7.12c.7-.37,.99-.47,1.88-.56,.9-.1,1.12-.31,1.07-.99,0-.09-.1-.25-.2-.35-.25-.25-1.12-.25-2.08,0-2.43,.64-4.24,2.7-4.59,5.21-.12,.86-.06,1.16,.3,1.41,.29,.2,.57,.19,.87-.04,.19-.15,.25-.31,.31-.78,.19-1.79,1.04-3.14,2.45-3.89Z"/><path class="j" d="M24.81,15.09c-2.79,.63-4.28,3.7-3.04,6.29,.83,1.73,2.79,2.76,4.65,2.45,2.92-.49,4.61-3.6,3.38-6.26-.86-1.87-3-2.93-4.99-2.48Zm2.96,6.45c-.63,.58-1.17,.79-2.03,.79-1.17,0-2.06-.55-2.58-1.6-1.23-2.5,1.38-5.13,3.88-3.91,1.01,.49,1.6,1.45,1.59,2.61,0,.9-.27,1.55-.87,2.11Z"/><path class="k" d="M45.5,42.98c-.37-.19-.59-.23-1.35-.23s-.98,.04-1.36,.22c-.62,.31-1.23,.95-1.51,1.58l-.23,.53h-1.38v-5.4l.36-.1c.31-.08,.38-.15,.67-.73,.16-.36,.36-.65,.43-.65,.06,0,.34-.1,.61-.24l.51-.23,.52,.24c.34,.16,.6,.22,.73,.18,.12-.04,.62-.46,1.11-.93,.98-.98,1.03-1.12,.69-1.9l-.19-.43,.29-.66c.26-.63,.3-.67,.78-.86,.74-.3,.86-.55,.82-1.97-.03-1.06-.04-1.13-.27-1.34-.13-.12-.44-.31-.69-.39-.26-.1-.46-.22-.46-.28,0-.07-.11-.34-.25-.63l-.24-.52,.2-.45c.35-.83,.31-.96-.7-1.97s-1.09-1.03-1.88-.69l-.47,.2-.67-.27c-.62-.26-.68-.31-.83-.71-.31-.83-.37-.86-1.85-.86-1.23,0-1.32,0-1.5,.21-.11,.12-.27,.41-.35,.65-.15,.4-.21,.45-.83,.71l-.67,.27-.47-.2c-.79-.34-.89-.31-1.88,.69-.99,1-1.04,1.13-.7,1.94l.2,.46-.25,.54c-.13,.3-.24,.58-.24,.64s-.2,.17-.45,.27c-.87,.31-.89,.36-.89,1.85,0,.89,.04,1.34,.12,1.46,.06,.09,.35,.26,.64,.39,.52,.22,.53,.25,.79,.91l.27,.67-.2,.38c-.36,.73-.3,.91,.7,1.89,.48,.48,.97,.9,1.1,.93,.13,.04,.39-.02,.73-.18l.52-.24,.51,.23c.27,.13,.55,.24,.61,.24,.07,0,.27,.29,.43,.64,.29,.58,.35,.66,.68,.73l.35,.1v3.12c0,2.09,.04,3.21,.11,3.36,.16,.36,.49,.45,1.7,.45h1.13l.16,.43c.24,.6,.92,1.33,1.56,1.64,.47,.23,.66,.27,1.35,.27s.89-.04,1.35-.27c.31-.15,.73-.47,.97-.74,1.41-1.56,.93-4.02-.97-4.96Zm-6.6-4.86c-.44,0-.47-.02-.57-.32-.16-.49-.44-.79-.84-.92-.19-.07-.69-.27-1.09-.45l-.74-.34-1.09,.42-.32-.32-.32-.32,.2-.39c.27-.52,.26-.69-.08-1.34-.15-.31-.32-.74-.39-.97-.14-.53-.32-.74-.83-.96-.4-.17-.41-.18-.41-.64v-.46l.5-.24c.49-.22,.52-.25,.76-.94,.14-.39,.35-.87,.46-1.06,.24-.43,.24-.62,0-1.16l-.18-.43,.32-.31c.31-.31,.34-.31,.64-.19,.6,.25,.84,.23,1.59-.12,.39-.19,.77-.34,.86-.34,.31,0,.74-.37,.86-.73,.17-.51,.15-.51,.68-.51,.43,0,.48,.02,.56,.26,.22,.62,.33,.73,1,.98,.37,.14,.86,.35,1.09,.47,.45,.23,.76,.23,1.32,0,.3-.12,.32-.11,.64,.19l.32,.31-.18,.43c-.23,.54-.23,.73,0,1.16,.11,.19,.31,.67,.46,1.06,.26,.71,.27,.72,.81,.97q.54,.27,.54,.69c0,.41,0,.43-.42,.58-.52,.2-.75,.45-.91,1-.07,.24-.25,.68-.4,.97-.32,.65-.33,.75-.08,1.31l.19,.43-.32,.32-.32,.32-.46-.2c-.58-.26-.61-.26-1.27,.08-.3,.14-.76,.34-1.03,.43-.57,.18-.73,.33-.94,.89-.16,.4-.17,.41-.62,.41Zm3.85,8.53c-.21-.35-.25-.52-.21-.94,.05-.59,.4-1.14,.88-1.35,.39-.16,1.03-.17,1.43,0,.49,.2,.85,.73,.9,1.35,.14,1.72-2.13,2.42-2.99,.94Z"/><path class="h" d="M43.07,31.23c-.17-2.56-2.74-4.4-5.21-3.73-1.83,.49-3.15,2.18-3.16,4.04,0,1.64,.93,3.09,2.47,3.84,.6,.29,.69,.31,1.73,.31s1.14-.02,1.72-.3c1.65-.78,2.58-2.37,2.45-4.17Zm-6.13,2.11c-1.35-1.47-.62-3.86,1.34-4.38,.51-.13,1.36,0,1.88,.27,.97,.52,1.48,1.46,1.39,2.55-.19,2.33-3.03,3.29-4.62,1.56Z"/></svg>