<?xml version="1.0" encoding="UTF-8" standalone="no"?><!DOCTYPE svg PUBLIC "-//W3C//DTD SVG 1.1//EN" "http://www.w3.org/Graphics/SVG/1.1/DTD/svg11.dtd"><svg width="100%" height="100%" viewBox="0 0 77 77" version="1.1" xmlns="http://www.w3.org/2000/svg" xmlns:xlink="http://www.w3.org/1999/xlink" xml:space="preserve" xmlns:serif="http://www.serif.com/" style="fill-rule:evenodd;clip-rule:evenodd;stroke-linejoin:round;stroke-miterlimit:2;"><rect id="Artboard2" x="0" y="0" width="76.513" height="76.513" style="fill:none;"/><path d="M53.735,75.657c1.414,-0.002 2.577,-1.166 2.579,-2.58l-0,-20.635c-0.002,-1.414 -1.165,-2.577 -2.579,-2.579l-30.953,-0c-1.414,0.002 -2.578,1.165 -2.579,2.579l-0,20.635c0.001,1.414 1.165,2.578 2.579,2.58l30.953,-0Zm-30.953,-23.215l30.953,0l0.002,20.635l-30.955,0l-0,-20.635Zm27.083,2.579l-23.215,0c-0.707,0 -1.289,0.582 -1.289,1.289l0,12.899c0,0.707 0.582,1.289 1.289,1.289l12.898,-0l-0,-2.58l-11.607,0l-0,-10.317l20.635,-0l-0,9.028l2.579,-0l0,-10.319c0,-0.707 -0.582,-1.289 -1.289,-1.289c-0,0 -0,0 -0.001,0Zm1.29,12.897l-2.579,0l-0,2.58l2.579,-0l0,-2.58Zm-3.869,0l-2.579,0l-0,2.58l2.579,-0l0,-2.58Zm-3.869,0l-2.579,0l-0,2.58l2.579,-0l-0,-2.58Zm20.606,-54.993l-1.98,1.653c10.053,12.071 9.403,29.977 -1.499,41.287l1.857,1.791c11.811,-12.253 12.515,-31.654 1.622,-44.731l0,0Zm-48.459,42.508c-10.532,-11.355 -11.002,-28.955 -1.091,-40.855l-1.98,-1.653c-10.738,12.893 -10.23,31.961 1.179,44.264l1.892,-1.756Zm3.701,-10.086c-0.892,-1.543 -1.592,-3.19 -2.085,-4.904l-2.479,0.71c0.55,1.918 1.334,3.76 2.333,5.487l2.231,-1.293Zm37.986,0l2.232,1.293c1.918,-3.327 3.029,-7.059 3.242,-10.893l-2.575,-0.141c-0.18,3.431 -1.173,6.77 -2.899,9.741Zm-17.655,-3.222c-0,-0.712 -0.578,-1.29 -1.29,-1.29c-0.712,-0 -1.29,0.578 -1.29,1.29c0,0.711 0.578,1.289 1.29,1.289c0.712,0 1.29,-0.578 1.29,-1.289Zm2.904,-5.317c-2.599,-1.492 -5.809,-1.48 -8.397,0.032l1.328,2.211c1.777,-1.033 3.978,-1.04 5.762,-0.018l1.307,-2.225Zm-23.587,-1.844c-0,-2.122 -1.747,-3.869 -3.869,-3.869c-2.123,0 -3.869,1.747 -3.869,3.869c-0,2.123 1.746,3.87 3.869,3.87c2.121,-0.003 3.866,-1.748 3.869,-3.87Zm-3.869,1.29c-0.708,0 -1.29,-0.582 -1.29,-1.29c0,-0.707 0.582,-1.289 1.29,-1.289c0.707,-0 1.289,0.582 1.289,1.289c-0,0.708 -0.582,1.29 -1.289,1.29Zm30.261,-3.618c-2.049,-1.388 -4.469,-2.127 -6.944,-2.119l-0.069,0c-2.494,-0.006 -4.932,0.75 -6.985,2.168l1.476,2.113c1.625,-1.116 3.552,-1.709 5.523,-1.701c1.98,-0.04 3.922,0.546 5.551,1.672l1.448,-2.133Zm20.357,-4.175c-0,-2.83 -2.329,-5.159 -5.159,-5.159c-2.83,-0 -5.159,2.329 -5.159,5.159c0,2.83 2.329,5.158 5.159,5.158c2.829,-0.002 5.156,-2.329 5.159,-5.158Zm-5.159,2.579c-1.415,-0 -2.58,-1.164 -2.58,-2.579c0,-1.415 1.165,-2.58 2.58,-2.58c1.415,0 2.579,1.165 2.579,2.58c-0.002,1.414 -1.165,2.577 -2.579,2.579Zm-12.368,-2.815c-2.912,-1.886 -6.313,-2.883 -9.782,-2.866l-0.071,-0c-3.478,-0.003 -6.884,1.001 -9.804,2.891l1.409,2.162c5.12,-3.284 11.71,-3.294 16.84,-0.026l1.408,-2.161Zm8.394,-5.961l2.149,-1.428c-4.538,-6.835 -12.216,-10.954 -20.42,-10.954c-11.454,0 -21.455,8.03 -23.931,19.213l2.519,0.555c2.216,-10.006 11.164,-17.188 21.412,-17.188c7.341,-0 14.211,3.686 18.271,9.802Zm-32.457,-13.671c-0,-2.83 -2.329,-5.159 -5.159,-5.159c-2.83,-0 -5.159,2.329 -5.159,5.159c0,2.83 2.329,5.158 5.159,5.158c2.829,-0.003 5.156,-2.33 5.159,-5.158Zm34.464,-3.004c-2.123,-0 -3.869,1.746 -3.869,3.869c-0,2.122 1.746,3.869 3.869,3.869c2.122,-0 3.869,-1.747 3.869,-3.869c-0.003,-2.122 -1.748,-3.867 -3.869,-3.869Zm-39.623,5.583c-1.415,-0 -2.58,-1.164 -2.58,-2.579c0,-1.415 1.165,-2.58 2.58,-2.58c1.415,0 2.579,1.165 2.579,2.58c-0.002,1.414 -1.165,2.577 -2.579,2.579Zm39.623,-0.425c-0.708,0 -1.29,-0.582 -1.29,-1.289c-0,-0.708 0.582,-1.29 1.29,-1.29c0.707,0 1.289,0.582 1.289,1.29c-0,0.707 -0.582,1.289 -1.289,1.289Zm-5.421,-3.522l1.239,-2.262c-9.099,-4.967 -20.003,-5.454 -29.509,-1.318l1.033,2.363c8.774,-3.816 18.838,-3.366 27.237,1.217l-0,-0Z" style="fill:url(#_Linear1);fill-rule:nonzero;"/><defs><linearGradient id="_Linear1" x1="0" y1="0" x2="1" y2="0" gradientUnits="userSpaceOnUse" gradientTransform="matrix(66.9843,0,0,82.1013,4.76561,38.4368)"><stop offset="0" style="stop-color:#1685ff;stop-opacity:1"/><stop offset="0.5" style="stop-color:#8b5cf6;stop-opacity:1"/><stop offset="1" style="stop-color:#d946ef;stop-opacity:1"/></linearGradient></defs></svg>