<?xml version="1.0" encoding="UTF-8" standalone="no"?><!DOCTYPE svg PUBLIC "-//W3C//DTD SVG 1.1//EN" "http://www.w3.org/Graphics/SVG/1.1/DTD/svg11.dtd"><svg width="100%" height="100%" viewBox="0 0 444 456" version="1.1" xmlns="http://www.w3.org/2000/svg" xmlns:xlink="http://www.w3.org/1999/xlink" xml:space="preserve" xmlns:serif="http://www.serif.com/" style="fill-rule:evenodd;clip-rule:evenodd;stroke-linejoin:round;stroke-miterlimit:2;"><path d="M286.628,355.274l-0,29c-0.013,10.333 -5.701,19.864 -14.791,24.78c-1.816,26.287 -23.95,46.943 -50.3,46.943c-26.349,0 -48.483,-20.656 -50.3,-46.943c-9.075,-4.936 -14.757,-14.46 -14.789,-24.79l-0,-29c-0,-20.7 -12.38,-33.38 -26.31,-47.65c-20.211,-20.69 -43.341,-44.36 -43.341,-97.3c0,-73.96 60.86,-134.82 134.82,-134.82c73.961,-0 134.82,60.86 134.82,134.82c0,53 -23.22,76.75 -43.49,97.48c-13.939,14.27 -26.319,26.92 -26.319,47.48Zm-235.5,-118.18c9.09,-0 9.09,13.82 -0,13.82l-44.31,-0c-9.09,-0 -9.09,-13.82 -0,-13.82l44.31,-0Zm18.11,-95.48c9,5.2 5.21,18.95 -6.91,11.93l-38.37,-22.15c-7.84,-4.54 -0.93,-16.47 6.91,-11.94l38.37,22.16Zm61.93,-68.08l-22.16,-38.37c-4.54,-7.84 -16.47,-0.93 -11.93,6.91l22.15,38.37c4.54,7.84 16.47,0.93 11.94,-6.91Zm83.55,-22.38l-0,-44.31c-0,-9.12 13.82,-9.13 13.82,-0l-0,44.31c-0,9.18 -13.82,9.18 -13.82,-0Zm177.41,199.76c-9.09,-0 -9.09,-13.82 -0,-13.82l44.31,-0c9.09,-0 9.09,13.82 -0,13.82l-44.31,-0Zm-11.2,-97.37c-7.84,4.54 -14.75,-7.39 -6.91,-11.93l38.37,-22.16c7.84,-4.53 14.75,7.4 6.91,11.94l-38.37,22.15Zm-56.9,-73.1l22.15,-38.37c4.54,-7.84 -7.39,-14.75 -11.93,-6.91l-22.16,38.37c-4.53,7.84 7.4,14.75 11.94,6.91Zm-153.75,287.43l19.25,-0l-0,-109.57l-21.51,-0c-19.377,-0.007 -35.318,-15.954 -35.318,-35.33c0,-8.934 3.389,-17.543 9.478,-24.08l-0.05,-2.19c0.684,-43.137 36.358,-78.249 79.5,-78.249c43.141,-0 78.815,35.112 79.5,78.249l-0.05,2.2c6.091,6.536 9.48,15.146 9.48,24.08c0,19.376 -15.944,35.32 -35.32,35.32c-0.003,-0 -0.007,-0 -0.01,-0l-21.5,-0l-0,109.57l19.07,-0l-0,-12.6c-0,-26.13 14.23,-40.69 30.269,-57.08c18.441,-18.85 39.561,-40.45 39.561,-87.87c-0,-66.379 -54.622,-121 -121,-121c-66.379,-0 -121,54.621 -121,121c-0,47.36 21,68.88 39.39,87.69c16,16.41 30.26,31 30.26,57.26l-0,12.6Zm102.53,13.82l-102.52,-0l-0,2.62c0.005,7.87 6.47,14.348 14.34,14.37l73.8,-0c7.877,-0.011 14.354,-6.493 14.36,-14.37l-0,-2.62l0.02,-0Zm-69.46,-13.82l36.56,-0l-0,-109.57l-36.56,-0l-0,109.57Zm-47,-178.24c3.744,-1.307 7.683,-1.975 11.65,-1.975c19.379,-0 35.33,15.936 35.35,35.315l-0,21.51l36.56,-0l-0,-21.48c0.026,-19.38 15.98,-35.311 35.359,-35.311c3.963,-0 7.898,0.666 11.641,1.971c-3.607,-33.169 -31.941,-58.589 -65.305,-58.589c-33.365,0 -61.699,25.42 -65.305,58.589l0.05,-0.03Zm97.39,33.37l-0,21.51l21.5,-0c0.003,-0 0.006,-0 0.01,-0c11.8,-0 21.51,-9.71 21.51,-21.51c-0,-11.8 -9.71,-21.51 -21.51,-21.51c-11.801,-0 -21.51,9.71 -21.51,21.51Zm-85.72,21.51l21.51,-0l-0,-21.51c-0,-11.8 -9.71,-21.51 -21.51,-21.51c-11.801,-0 -21.51,9.71 -21.51,21.51c-0,11.8 9.709,21.51 21.51,21.51Zm89.49,168l-71.88,-0c3.282,17.181 18.448,29.724 35.94,29.724c17.491,-0 32.657,-12.543 35.94,-29.724Z" style="fill:url(#_Linear1);"/><defs><linearGradient id="_Linear1" x1="0" y1="0" x2="1" y2="0" gradientUnits="userSpaceOnUse" gradientTransform="matrix(443.257,0,0,408.573,-1.49214e-13,229.097)"><stop offset="0" style="stop-color:#1685ff;stop-opacity:1"/><stop offset="0.5" style="stop-color:#8b5cf6;stop-opacity:1"/><stop offset="1" style="stop-color:#d946ef;stop-opacity:1"/></linearGradient></defs></svg>