<svg width="30" height="30" viewBox="0 0 30 30" fill="none" xmlns="http://www.w3.org/2000/svg">
<path d="M20.4907 2H9.28134C8.02358 2 7 3.02358 7 4.28134V24.7187C7 25.9764 8.02358 27 9.28134 27H20.4907C21.7458 27 22.7694 25.9764 22.7694 24.7187V4.28134C22.7694 3.02358 21.7484 2 20.4907 2ZM9.28134 2.80518H20.4907C21.3038 2.80518 21.9642 3.46564 21.9642 4.27871V21.7716H7.80781V4.28134C7.80781 3.46827 8.46827 2.80518 9.28134 2.80518ZM20.4907 26.1922H9.28134C8.46827 26.1922 7.80781 25.5317 7.80781 24.7187V22.5794H21.9642V24.7187C21.9642 25.5291 21.3038 26.1922 20.4907 26.1922ZM16.9753 24.3871C16.9753 24.6108 16.7937 24.7897 16.5727 24.7897H13.1993C12.9757 24.7897 12.7968 24.6081 12.7968 24.3871C12.7968 24.1635 12.9783 23.9845 13.1993 23.9845H16.5727C16.7963 23.9819 16.9753 24.1635 16.9753 24.3871ZM11.3074 12.12H14.1414C14.365 12.12 14.5439 11.9384 14.5439 11.7174V8.88085C14.5439 8.65719 14.3624 8.47827 14.1414 8.47827H11.3074C11.0838 8.47827 10.9049 8.65982 10.9049 8.88085V11.7148C10.9049 11.9384 11.0838 12.12 11.3074 12.12ZM11.71 9.28344H13.7388V11.3122H11.71V9.28344ZM11.3074 16.1406H14.1414C14.365 16.1406 14.5439 15.9591 14.5439 15.738V12.9041C14.5439 12.6805 14.3624 12.5015 14.1414 12.5015H11.3074C11.0838 12.5015 10.9049 12.6831 10.9049 12.9041V15.738C10.9049 15.9617 11.0838 16.1406 11.3074 16.1406ZM11.71 13.3067H13.7388V15.3354H11.71V13.3067ZM18.4251 12.5015H15.5912C15.3675 12.5015 15.1886 12.6831 15.1886 12.9041V15.738C15.1886 15.9617 15.3702 16.1406 15.5912 16.1406H18.4251C18.6488 16.1406 18.8277 15.9591 18.8277 15.738V12.9041C18.8277 12.6831 18.6461 12.5015 18.4251 12.5015ZM18.0225 15.3354H15.9938V13.3067H18.0225V15.3354ZM17.0068 12.1595C18.033 12.1595 18.8672 11.3253 18.8672 10.2991C18.8672 9.27292 18.033 8.4388 17.0068 8.4388C15.9806 8.4388 15.1465 9.27292 15.1465 10.2991C15.1465 11.3253 15.9806 12.1595 17.0068 12.1595ZM17.0068 9.24397C17.5884 9.24397 18.062 9.71761 18.062 10.2991C18.062 10.8806 17.5884 11.3543 17.0068 11.3543C16.4253 11.3543 15.9517 10.8806 15.9517 10.2991C15.9543 9.71761 16.4253 9.24397 17.0068 9.24397Z" fill="url(#paint0_linear_1775_269)"/>
<defs>
<linearGradient id="paint0_linear_1775_269" x1="7.00004" y1="14.5602" x2="22.7697" y2="14.5602" gradientUnits="userSpaceOnUse">
<stop stop-color="#1685FF"/>
<stop offset="0.5" stop-color="#8B5CF6"/>
<stop offset="1" stop-color="#D946EF"/>
</linearGradient>
</defs>
</svg>
