<?xml version="1.0" encoding="UTF-8" standalone="no"?><!DOCTYPE svg PUBLIC "-//W3C//DTD SVG 1.1//EN" "http://www.w3.org/Graphics/SVG/1.1/DTD/svg11.dtd"><svg width="100%" height="100%" viewBox="0 0 200 200" version="1.1" xmlns="http://www.w3.org/2000/svg" xmlns:xlink="http://www.w3.org/1999/xlink" xml:space="preserve" xmlns:serif="http://www.serif.com/" style="fill-rule:evenodd;clip-rule:evenodd;stroke-linejoin:round;stroke-miterlimit:2;"><g id="Layer11"><path d="M101.013,33.17c-29.734,0.003 -54.2,24.472 -54.2,54.207c0,10.555 3.082,20.883 8.867,29.711c2.132,3.246 4.777,6.735 7.577,10.429c5.131,6.77 10.862,14.332 13.886,21.234l-5.81,0c-1.24,0 -2.26,1.021 -2.26,2.26l0,7.726c0.008,5.475 4.511,9.977 9.986,9.984l1.183,0l0,5.461c0,5.419 3.48,9.841 7.799,9.977c0,0.04 0.014,0.08 0.025,0.12c1.56,5.831 6.883,9.917 12.919,9.917c6.081,0 11.432,-4.147 12.951,-10.035c4.341,-0.102 7.849,-4.539 7.849,-9.979l0,-5.461l1.183,0c5.474,-0.007 9.977,-4.509 9.985,-9.984l0,-7.726c0,-1.239 -1.02,-2.26 -2.26,-2.26l-5.812,0c3.027,-6.902 8.755,-14.462 13.889,-21.234c2.8,-3.692 5.444,-7.181 7.576,-10.429c5.785,-8.828 8.868,-19.156 8.868,-29.711c0,-29.735 -24.466,-54.204 -54.201,-54.207Zm49.683,54.192c0,1.307 -0.056,2.607 -0.157,3.901l-12.315,0c-0.001,0 -0.002,0 -0.004,0c-1.238,0 -2.258,1.019 -2.258,2.258c0,0.552 0.203,1.085 0.569,1.498c1.448,1.641 2.247,3.755 2.247,5.944c0,4.928 -4.055,8.983 -8.984,8.983c-4.928,0 -8.984,-4.055 -8.984,-8.983c0,-2.189 0.8,-4.303 2.248,-5.944c0.358,-0.412 0.555,-0.938 0.555,-1.483c0,-1.236 -1.013,-2.254 -2.248,-2.26l-18.092,0l0,-14.055c1.641,0.681 3.4,1.031 5.176,1.031c7.407,0 13.502,-6.095 13.502,-13.502c0,-7.406 -6.095,-13.501 -13.502,-13.501c-1.776,0 -3.535,0.35 -5.176,1.031l0,-14.538c26.362,1.232 47.391,23.238 47.423,49.629l0,-0.009Zm-51.943,-49.62l0,18.579c0.001,1.239 1.021,2.259 2.26,2.259c0.551,0 1.083,-0.201 1.496,-0.566c1.641,-1.448 3.756,-2.247 5.944,-2.247c4.928,0 8.984,4.055 8.984,8.983c0,4.929 -4.056,8.984 -8.984,8.984c-2.188,0 -4.303,-0.799 -5.944,-2.247c-0.413,-0.365 -0.945,-0.566 -1.496,-0.566c-1.239,0 -2.259,1.019 -2.26,2.259l0,18.096l-14.05,0c0.683,-1.643 1.034,-3.405 1.034,-5.184c0,-7.408 -6.095,-13.504 -13.504,-13.504c-7.408,0 -13.504,6.096 -13.504,13.504c0,1.779 0.352,3.541 1.035,5.184l-8.276,0c-0.101,-1.294 -0.158,-2.595 -0.158,-3.901c0.031,-26.392 21.06,-48.401 47.423,-49.633Zm-31.896,87.045c-2.751,-3.632 -5.35,-7.06 -7.4,-10.179c-3.741,-5.694 -6.263,-12.102 -7.406,-18.819l11.753,0c1.239,0 2.258,-1.019 2.258,-2.258c0,-0.55 -0.201,-1.082 -0.566,-1.495c-1.448,-1.641 -2.247,-3.756 -2.247,-5.944c0,-4.928 4.055,-8.984 8.983,-8.984c4.929,0 8.984,4.056 8.984,8.984c0,2.188 -0.799,4.303 -2.247,5.944c-0.365,0.413 -0.567,0.945 -0.567,1.495c0,1.239 1.02,2.258 2.258,2.258l18.093,0l0,14.053c-1.641,-0.682 -3.401,-1.033 -5.178,-1.033c-7.407,0 -13.502,6.095 -13.502,13.502c0,7.407 6.095,13.502 13.502,13.502c1.777,0 3.537,-0.35 5.178,-1.032l0,13.97l-16.726,0c-3.021,-7.935 -9.452,-16.421 -15.17,-23.964Zm34.129,64.905c-3.589,-0.005 -6.835,-2.189 -8.192,-5.512l16.384,0c-1.351,3.326 -4.603,5.509 -8.192,5.502l0,0.01Zm16.279,-15.495c0,2.911 -1.628,5.461 -3.483,5.461l-25.538,0c-1.854,0 -3.482,-2.554 -3.482,-5.461l0,-5.462l32.503,0l0,5.462Zm11.168,-15.449c0,2.996 -2.465,5.461 -5.461,5.461l-43.9,0c-2.996,0 -5.462,-2.465 -5.462,-5.461l0,-5.462l54.823,0l0,5.462Zm14.137,-44.13c-2.051,3.12 -4.651,6.55 -7.403,10.181c-5.715,7.541 -12.147,16.027 -15.167,23.963l-16.727,0l0,-18.021c0,-1.24 -1.02,-2.26 -2.26,-2.26c-0.55,0 -1.082,0.201 -1.495,0.566c-1.641,1.448 -3.756,2.248 -5.945,2.248c-4.929,0 -8.984,-4.055 -8.984,-8.984c0,-4.928 4.055,-8.983 8.984,-8.983c2.189,0 4.304,0.8 5.945,2.248c0.413,0.364 0.945,0.566 1.495,0.566c1.24,0 2.26,-1.021 2.26,-2.26l0,-18.093l14.051,0c-0.683,1.643 -1.035,3.405 -1.035,5.184c0,7.408 6.096,13.504 13.504,13.504c7.408,0 13.504,-6.096 13.504,-13.504c0,-1.779 -0.351,-3.541 -1.034,-5.184l7.713,0c-1.144,6.717 -3.666,13.125 -7.406,18.819l0,0.01Zm-43.817,-91.581l0,-15.622c0,-1.239 1.02,-2.26 2.26,-2.26c1.24,0 2.26,1.021 2.26,2.26l0,15.62c0,1.24 -1.02,2.26 -2.26,2.26c-1.24,0 -2.26,-1.02 -2.26,-2.26c0,0 0,0.002 0,0.002Zm-45.704,118.048c0.423,0.423 0.662,0.998 0.662,1.597c0,0.599 -0.239,1.174 -0.662,1.597l-11.045,11.062c-0.419,0.394 -0.973,0.614 -1.549,0.614c-1.24,0 -2.26,-1.02 -2.26,-2.26c0,-0.576 0.22,-1.13 0.614,-1.549l11.045,-11.047c0.873,-0.878 2.315,-0.883 3.195,-0.01l0,-0.004Zm110.168,11.046c0.427,0.425 0.667,1.003 0.667,1.605c0,1.242 -1.022,2.264 -2.264,2.264c-0.599,0 -1.173,-0.237 -1.597,-0.659l-11.047,-11.047c-0.408,-0.421 -0.636,-0.985 -0.636,-1.572c0,-1.24 1.02,-2.26 2.26,-2.26c0.587,0 1.151,0.229 1.573,0.637l11.044,11.032Zm-124.408,-118.014c-0.394,-0.419 -0.614,-0.974 -0.614,-1.549c0,-1.24 1.02,-2.26 2.26,-2.26c0.576,0 1.13,0.219 1.549,0.614l11.047,11.044c0.408,0.422 0.636,0.986 0.636,1.572c0,1.24 -1.02,2.26 -2.26,2.26c-0.587,0 -1.152,-0.228 -1.573,-0.637l-11.045,-11.044Zm-5.627,59.009c0,1.239 -1.019,2.258 -2.258,2.258l-15.611,0c-0.023,0.001 -0.046,0.001 -0.069,0.001c-1.24,0 -2.26,-1.02 -2.26,-2.26c0,-1.24 1.02,-2.26 2.26,-2.26c0.023,0 0.046,0 0.069,0.001l15.622,0c1.235,0.006 2.248,1.025 2.247,2.26Zm130.035,-62.204c0.876,0.877 0.876,2.318 0,3.195l-11.044,11.044c-0.422,0.409 -0.986,0.637 -1.573,0.637c-1.24,0 -2.26,-1.02 -2.26,-2.26c0,-0.586 0.228,-1.15 0.636,-1.572l11.047,-11.044c0.876,-0.876 2.318,-0.876 3.194,0Zm25.767,62.204c0,1.239 -1.019,2.258 -2.258,2.258c-0.001,0 -0.001,0 -0.002,0l-15.621,0c-1.214,-0.037 -2.192,-1.045 -2.192,-2.259c0,-1.214 0.978,-2.222 2.192,-2.259l15.621,0c1.24,0 2.26,1.02 2.26,2.26Z" style="fill:url(#_Linear1);fill-rule:nonzero;"/></g><defs><linearGradient id="_Linear1" x1="0" y1="0" x2="1" y2="0" gradientUnits="userSpaceOnUse" gradientTransform="matrix(114.561,156.425,-156.425,114.561,36.3955,16.361)"><stop offset="0" style="stop-color:#4d7aff;stop-opacity:1"/><stop offset="1" style="stop-color:#d748f0;stop-opacity:1"/></linearGradient></defs></svg>