<svg width="60" height="60" viewBox="0 0 60 60" fill="none" xmlns="http://www.w3.org/2000/svg">
<path d="M33.6734 50.2783C34.0273 50.2783 34.3156 49.9924 34.3156 49.6361V48.2018C34.3156 47.8478 34.0297 47.5596 33.6734 47.5596C33.3195 47.5596 33.0312 47.8455 33.0312 48.2018V49.6361C33.0312 49.99 33.3195 50.2783 33.6734 50.2783Z" fill="url(#paint0_linear_1337_49)"/>
<path d="M37.9645 50.2783C38.3184 50.2783 38.6066 49.9924 38.6066 49.6361V48.2018C38.6066 47.8478 38.3207 47.5596 37.9645 47.5596C37.6105 47.5596 37.3223 47.8455 37.3223 48.2018V49.6361C37.3246 49.99 37.6106 50.2783 37.9645 50.2783Z" fill="url(#paint1_linear_1337_49)"/>
<path d="M42.2594 50.2783C42.6133 50.2783 42.9016 49.9924 42.9016 49.6361V48.2018C42.9016 47.8478 42.6156 47.5596 42.2594 47.5596C41.9055 47.5596 41.6172 47.8455 41.6172 48.2018V49.6361C41.6172 49.99 41.9031 50.2783 42.2594 50.2783Z" fill="url(#paint2_linear_1337_49)"/>
<path d="M28.2043 48.9215C28.2043 48.5676 27.9184 48.2793 27.5621 48.2793H17.7418C17.3879 48.2793 17.0996 48.5652 17.0996 48.9215C17.0996 49.2754 17.3855 49.5637 17.7418 49.5637L27.5645 49.5613C27.9184 49.5613 28.2043 49.2754 28.2043 48.9215Z" fill="url(#paint3_linear_1337_49)"/>
<path d="M33.6734 34.9502C33.3195 34.9502 33.0312 35.2361 33.0312 35.5924V37.0268C33.0312 37.3807 33.3172 37.669 33.6734 37.669C34.0273 37.669 34.3156 37.383 34.3156 37.0268V35.5924C34.3133 35.2361 34.0273 34.9502 33.6734 34.9502Z" fill="url(#paint4_linear_1337_49)"/>
<path d="M37.9645 34.9502C37.6105 34.9502 37.3223 35.2361 37.3223 35.5924V37.0268C37.3223 37.3807 37.6082 37.669 37.9645 37.669C38.3184 37.669 38.6066 37.383 38.6066 37.0268V35.5924C38.6066 35.2361 38.3184 34.9502 37.9645 34.9502Z" fill="url(#paint5_linear_1337_49)"/>
<path d="M42.2594 34.9502C41.9055 34.9502 41.6172 35.2361 41.6172 35.5924V37.0268C41.6172 37.3807 41.9031 37.669 42.2594 37.669C42.6133 37.669 42.9016 37.383 42.9016 37.0268V35.5924C42.8992 35.2361 42.6133 34.9502 42.2594 34.9502Z" fill="url(#paint6_linear_1337_49)"/>
<path d="M27.566 35.665H17.7457C17.3918 35.665 17.1035 35.951 17.1035 36.3072C17.1035 36.6611 17.3895 36.9494 17.7457 36.9494L27.566 36.9471C27.92 36.9471 28.2082 36.6611 28.2082 36.3049C28.2059 35.9533 27.9199 35.665 27.566 35.665Z" fill="url(#paint7_linear_1337_49)"/>
<path d="M33.6734 22.3359C33.3195 22.3359 33.0312 22.6219 33.0312 22.9781V24.4125C33.0312 24.7664 33.3172 25.0547 33.6734 25.0547C34.0273 25.0547 34.3156 24.7688 34.3156 24.4125V22.9781C34.3133 22.6219 34.0273 22.3359 33.6734 22.3359Z" fill="url(#paint8_linear_1337_49)"/>
<path d="M37.9645 22.3359C37.6105 22.3359 37.3223 22.6219 37.3223 22.9781V24.4125C37.3223 24.7664 37.6082 25.0547 37.9645 25.0547C38.3184 25.0547 38.6066 24.7688 38.6066 24.4125V22.9781C38.6066 22.6219 38.3184 22.3359 37.9645 22.3359Z" fill="url(#paint9_linear_1337_49)"/>
<path d="M42.2594 22.3359C41.9055 22.3359 41.6172 22.6219 41.6172 22.9781V24.4125C41.6172 24.7664 41.9031 25.0547 42.2594 25.0547C42.6133 25.0547 42.9016 24.7688 42.9016 24.4125V22.9781C42.8992 22.6219 42.6133 22.3359 42.2594 22.3359Z" fill="url(#paint10_linear_1337_49)"/>
<path d="M27.566 23.0537H17.7457C17.3918 23.0537 17.1035 23.3397 17.1035 23.6959C17.1035 24.0498 17.3895 24.3381 17.7457 24.3381L27.566 24.3357C27.92 24.3357 28.2082 24.0498 28.2082 23.6936C28.2059 23.3397 27.9199 23.0537 27.566 23.0537Z" fill="url(#paint11_linear_1337_49)"/>
<path d="M33.6734 9.72168C33.3195 9.72168 33.0312 10.0076 33.0312 10.3639V11.7982C33.0312 12.1522 33.3172 12.4404 33.6734 12.4404C34.0273 12.4404 34.3156 12.1545 34.3156 11.7982V10.3639C34.3133 10.01 34.0273 9.72168 33.6734 9.72168Z" fill="url(#paint12_linear_1337_49)"/>
<path d="M37.9645 9.72168C37.6105 9.72168 37.3223 10.0076 37.3223 10.3639V11.7982C37.3223 12.1522 37.6082 12.4404 37.9645 12.4404C38.3184 12.4404 38.6066 12.1545 38.6066 11.7982V10.3639C38.6066 10.01 38.3184 9.72168 37.9645 9.72168Z" fill="url(#paint13_linear_1337_49)"/>
<path d="M42.2594 9.72168C41.9055 9.72168 41.6172 10.0076 41.6172 10.3639V11.7982C41.6172 12.1522 41.9031 12.4404 42.2594 12.4404C42.6133 12.4404 42.9016 12.1545 42.9016 11.7982V10.3639C42.8992 10.01 42.6133 9.72168 42.2594 9.72168Z" fill="url(#paint14_linear_1337_49)"/>
<path d="M27.566 10.4385H17.7457C17.3918 10.4385 17.1035 10.7244 17.1035 11.0807C17.1035 11.4346 17.3895 11.7229 17.7457 11.7229L27.566 11.7205C27.92 11.7205 28.2082 11.4346 28.2082 11.0783C28.2059 10.7244 27.9199 10.4385 27.566 10.4385Z" fill="url(#paint15_linear_1337_49)"/>
<path d="M2.69302 32.6882C3.95634 32.6882 5.01571 31.814 5.30402 30.6421H10.983C11.3369 30.6421 11.6252 30.3561 11.6252 29.9999C11.6252 29.646 11.3392 29.3577 10.983 29.3577H5.30402C5.01573 28.1858 3.95634 27.3115 2.69302 27.3115C1.20938 27.3115 0 28.5162 0 29.9999C0 31.4812 1.20704 32.6882 2.69302 32.6882Z" fill="url(#paint16_linear_1337_49)"/>
<path d="M10.983 43.8169C11.3369 43.8169 11.6252 43.5309 11.6252 43.1747C11.6252 42.8208 11.3393 42.5325 10.983 42.5325L8.71896 42.5348V36.966H10.983C11.3369 36.966 11.6252 36.6801 11.6252 36.3238C11.6252 35.9699 11.3393 35.6816 10.983 35.6816L8.07671 35.684C7.7228 35.684 7.43452 35.9699 7.43452 36.3262V42.5351H5.30402C5.01573 41.3608 3.95634 40.4889 2.69302 40.4889C1.20938 40.4889 0 41.6936 0 43.1773C0 44.6586 1.20704 45.8656 2.69302 45.8656C3.95634 45.8656 5.01571 44.9914 5.30402 43.8194L7.43687 43.8171V51.6736L5.30402 51.6713C5.01573 50.4994 3.95634 49.6251 2.69302 49.6251C1.20938 49.6251 0 50.8298 0 52.3134C0 53.7948 1.20704 55.0018 2.69302 55.0018C3.95634 55.0018 5.01571 54.1276 5.30402 52.9556L8.07671 52.9533C8.43062 52.9533 8.7189 52.6674 8.7189 52.3111V43.815L10.983 43.8169Z" fill="url(#paint17_linear_1337_49)"/>
<path d="M7.43687 16.5681H5.30402C5.01573 15.3962 3.95634 14.5219 2.69302 14.5219C1.20938 14.5219 0 15.7266 0 17.2103C0 18.6916 1.20704 19.8986 2.69302 19.8986C3.95634 19.8986 5.01571 19.0244 5.30402 17.8525L7.43687 17.8501V23.6767C7.43687 24.0306 7.72281 24.3189 8.07905 24.3189H10.9854C11.3393 24.3189 11.6276 24.033 11.6276 23.6767C11.6276 23.3228 11.3416 23.0345 10.9854 23.0345H8.71896V17.8501H10.983C11.3369 17.8501 11.6252 17.5642 11.6252 17.2079C11.6252 16.854 11.3393 16.5657 10.983 16.5657L8.71896 16.5681V7.68736C8.71896 7.33345 8.43302 7.04517 8.07677 7.04517L5.30408 7.04751C5.01579 5.8733 3.9564 4.99902 2.69308 4.99902C1.2071 4.99902 6.00009e-05 6.20606 6.00009e-05 7.68736C6.00009e-05 9.16866 1.2071 10.3757 2.69308 10.3757C3.9564 10.3757 5.01577 9.50149 5.30408 8.32955H7.43693L7.43687 16.5681Z" fill="url(#paint18_linear_1337_49)"/>
<path d="M57.3071 27.3125C56.0438 27.3125 54.9845 28.1867 54.6962 29.3586H49.0172C48.6633 29.3586 48.375 29.6446 48.375 30.0008C48.375 30.3547 48.6609 30.643 49.0172 30.643H54.6962C54.9844 31.8149 56.0438 32.6892 57.3071 32.6892C58.7908 32.6892 60.0002 31.4845 60.0002 30.0008C60.0002 28.5195 58.7931 27.3125 57.3071 27.3125Z" fill="url(#paint19_linear_1337_49)"/>
<path d="M57.3071 14.5215C56.0438 14.5215 54.9845 15.3957 54.6962 16.5677H52.5633V8.32955H54.6962C54.9844 9.50143 56.0438 10.3757 57.3071 10.3757C58.7908 10.3757 60.0002 9.171 60.0002 7.68736C60.0002 6.20606 58.7931 4.99902 57.3071 4.99902C56.0438 4.99902 54.9845 5.87324 54.6962 7.04517L51.9235 7.04752C51.5695 7.04752 51.2813 7.33346 51.2813 7.6897V16.5704H49.0172C48.6633 16.5704 48.375 16.8564 48.375 17.2126C48.375 17.5665 48.6609 17.8548 49.0172 17.8548L51.2813 17.8501V23.0346H49.0172C48.6633 23.0346 48.375 23.3205 48.375 23.6767C48.375 24.0307 48.6609 24.3189 49.0172 24.3189L51.9235 24.3166C52.2774 24.3166 52.5657 24.0306 52.5657 23.6744V17.8478H54.6985C54.9868 19.0197 56.0462 19.8939 57.3095 19.8939C58.7932 19.8939 60.0026 18.6892 60.0026 17.2056C60.0002 15.7267 58.7931 14.5215 57.3071 14.5215Z" fill="url(#paint20_linear_1337_49)"/>
<path d="M52.5637 43.8167H54.6966C54.9849 44.9886 56.0443 45.8629 57.3076 45.8629C58.7912 45.8629 60.0006 44.6582 60.0006 43.1745C60.0006 41.6932 58.7936 40.4862 57.3076 40.4862C56.0443 40.4862 54.9849 41.3604 54.6966 42.5323L52.5637 42.5347V36.3258C52.5637 35.9719 52.2778 35.6836 51.9216 35.6836H49.0152C48.6613 35.6836 48.373 35.9695 48.373 36.3258C48.373 36.6797 48.659 36.968 49.0152 36.968L51.2816 36.9656V42.5344H49.0176C48.6637 42.5344 48.3754 42.8204 48.3754 43.1766C48.3754 43.5305 48.6613 43.8188 49.0176 43.8188L51.2816 43.8165V52.3126C51.2816 52.6665 51.5676 52.9548 51.9238 52.9548H54.6965C54.9848 54.1266 56.0442 55.0009 57.3075 55.0009C58.7912 55.0009 60.0006 53.7962 60.0006 52.3126C60.0006 50.8313 58.7935 49.6242 57.3075 49.6242C56.0442 49.6242 54.9848 50.4985 54.6965 51.6704H52.5637L52.5637 43.8167Z" fill="url(#paint21_linear_1337_49)"/>
<path d="M48.334 54.6263C47.0707 54.6263 46.0113 55.5005 45.723 56.6724H38.4617V53.7192H46.4538C46.8077 53.7192 47.096 53.4333 47.096 53.077V44.7639C47.096 44.41 46.8101 44.1217 46.4538 44.1217H44.9491V41.103H46.4538C46.8077 41.103 47.096 40.817 47.096 40.4608L47.0937 32.1495C47.0937 31.7956 46.8077 31.5073 46.4515 31.5073H44.9468V28.4885H46.4515C46.8054 28.4885 47.0937 28.2026 47.0937 27.8463V19.5332C47.0937 19.1793 46.8077 18.891 46.4515 18.891H44.9468V15.8723H46.4515C46.8054 15.8723 47.0937 15.5863 47.0937 15.2301V6.92356C47.0937 6.56965 46.8077 6.28137 46.4515 6.28137H38.4618V3.32819H45.7231C46.0114 4.50006 47.0708 5.37434 48.3341 5.37434C49.8177 5.37434 51.0271 4.16964 51.0271 2.686C51.0271 1.2047 49.8201 0 48.3341 0C47.0708 0 46.0114 0.874212 45.7231 2.04615H37.8222C37.4683 2.04615 37.18 2.33209 37.18 2.68834V6.28137H22.8218V2.68834C22.8218 2.33443 22.5358 2.04615 22.1796 2.04615H14.2787C13.9904 0.874272 12.931 0 11.6677 0C10.1817 0 8.97467 1.2047 8.97467 2.68834C8.97467 4.16964 10.1817 5.37668 11.6677 5.37668C12.931 5.37668 13.9904 4.50246 14.2787 3.33053L21.54 3.32818V6.28137H13.5479C13.194 6.28137 12.9057 6.56731 12.9057 6.92355V15.2367C12.9057 15.5906 13.1916 15.8789 13.5479 15.8789H15.0526V18.8976H13.5479C13.194 18.8976 12.9057 19.1836 12.9057 19.5398V27.8529C12.9057 28.2068 13.1916 28.4951 13.5479 28.4951H15.0526V31.5139H13.5479C13.194 31.5139 12.9057 31.7998 12.9057 32.1561V40.4692C12.9057 40.8231 13.1916 41.1114 13.5479 41.1114H15.0526V44.1301H13.5479C13.194 44.1301 12.9057 44.4161 12.9057 44.7723L12.908 53.0764C12.908 53.4304 13.194 53.7186 13.5502 53.7186H21.5399V56.6718H14.2786C13.9903 55.4999 12.9309 54.6257 11.6676 54.6257C10.184 54.6257 8.97461 55.8304 8.97461 57.314C8.97461 58.7953 10.1816 60 11.6676 60C12.9309 60 13.9903 59.1258 14.2786 57.9539H22.1795C22.5334 57.9539 22.8217 57.6679 22.8217 57.3117V53.7186H37.1799V57.314C37.1799 57.6679 37.4659 57.9562 37.8221 57.9562H45.723C46.0113 59.1257 47.0707 59.9999 48.334 59.9999C49.8177 59.9999 51.027 58.7952 51.027 57.3116C51.027 55.8303 49.82 54.6256 48.334 54.6256V54.6263ZM14.1899 7.56281H45.8146V14.5943H14.1899V7.56281ZM14.1899 20.1768H45.8146V27.2083H14.1899V20.1768ZM14.1899 32.7908H45.8146V39.8223H14.1899V32.7908ZM14.1899 45.4047H45.8146L45.8122 52.4362H14.19L14.1899 45.4047Z" fill="url(#paint22_linear_1337_49)"/>
<defs>
<linearGradient id="paint0_linear_1337_49" x1="33.0313" y1="48.9255" x2="34.3157" y2="48.9255" gradientUnits="userSpaceOnUse">
<stop stop-color="#1685FF"/>
<stop offset="0.5" stop-color="#8B5CF6"/>
<stop offset="1" stop-color="#D946EF"/>
</linearGradient>
<linearGradient id="paint1_linear_1337_49" x1="37.3223" y1="48.9255" x2="38.6067" y2="48.9255" gradientUnits="userSpaceOnUse">
<stop stop-color="#1685FF"/>
<stop offset="0.5" stop-color="#8B5CF6"/>
<stop offset="1" stop-color="#D946EF"/>
</linearGradient>
<linearGradient id="paint2_linear_1337_49" x1="41.6172" y1="48.9255" x2="42.9016" y2="48.9255" gradientUnits="userSpaceOnUse">
<stop stop-color="#1685FF"/>
<stop offset="0.5" stop-color="#8B5CF6"/>
<stop offset="1" stop-color="#D946EF"/>
</linearGradient>
<linearGradient id="paint3_linear_1337_49" x1="17.0996" y1="48.9246" x2="28.2046" y2="48.9246" gradientUnits="userSpaceOnUse">
<stop stop-color="#1685FF"/>
<stop offset="0.5" stop-color="#8B5CF6"/>
<stop offset="1" stop-color="#D946EF"/>
</linearGradient>
<linearGradient id="paint4_linear_1337_49" x1="33.0313" y1="36.3161" x2="34.3157" y2="36.3161" gradientUnits="userSpaceOnUse">
<stop stop-color="#1685FF"/>
<stop offset="0.5" stop-color="#8B5CF6"/>
<stop offset="1" stop-color="#D946EF"/>
</linearGradient>
<linearGradient id="paint5_linear_1337_49" x1="37.3223" y1="36.3161" x2="38.6067" y2="36.3161" gradientUnits="userSpaceOnUse">
<stop stop-color="#1685FF"/>
<stop offset="0.5" stop-color="#8B5CF6"/>
<stop offset="1" stop-color="#D946EF"/>
</linearGradient>
<linearGradient id="paint6_linear_1337_49" x1="41.6172" y1="36.3161" x2="42.9016" y2="36.3161" gradientUnits="userSpaceOnUse">
<stop stop-color="#1685FF"/>
<stop offset="0.5" stop-color="#8B5CF6"/>
<stop offset="1" stop-color="#D946EF"/>
</linearGradient>
<linearGradient id="paint7_linear_1337_49" x1="17.1035" y1="36.3103" x2="28.2085" y2="36.3103" gradientUnits="userSpaceOnUse">
<stop stop-color="#1685FF"/>
<stop offset="0.5" stop-color="#8B5CF6"/>
<stop offset="1" stop-color="#D946EF"/>
</linearGradient>
<linearGradient id="paint8_linear_1337_49" x1="33.0313" y1="23.7019" x2="34.3157" y2="23.7019" gradientUnits="userSpaceOnUse">
<stop stop-color="#1685FF"/>
<stop offset="0.5" stop-color="#8B5CF6"/>
<stop offset="1" stop-color="#D946EF"/>
</linearGradient>
<linearGradient id="paint9_linear_1337_49" x1="37.3223" y1="23.7019" x2="38.6067" y2="23.7019" gradientUnits="userSpaceOnUse">
<stop stop-color="#1685FF"/>
<stop offset="0.5" stop-color="#8B5CF6"/>
<stop offset="1" stop-color="#D946EF"/>
</linearGradient>
<linearGradient id="paint10_linear_1337_49" x1="41.6172" y1="23.7019" x2="42.9016" y2="23.7019" gradientUnits="userSpaceOnUse">
<stop stop-color="#1685FF"/>
<stop offset="0.5" stop-color="#8B5CF6"/>
<stop offset="1" stop-color="#D946EF"/>
</linearGradient>
<linearGradient id="paint11_linear_1337_49" x1="17.1035" y1="23.699" x2="28.2085" y2="23.699" gradientUnits="userSpaceOnUse">
<stop stop-color="#1685FF"/>
<stop offset="0.5" stop-color="#8B5CF6"/>
<stop offset="1" stop-color="#D946EF"/>
</linearGradient>
<linearGradient id="paint12_linear_1337_49" x1="33.0313" y1="11.0876" x2="34.3157" y2="11.0876" gradientUnits="userSpaceOnUse">
<stop stop-color="#1685FF"/>
<stop offset="0.5" stop-color="#8B5CF6"/>
<stop offset="1" stop-color="#D946EF"/>
</linearGradient>
<linearGradient id="paint13_linear_1337_49" x1="37.3223" y1="11.0876" x2="38.6067" y2="11.0876" gradientUnits="userSpaceOnUse">
<stop stop-color="#1685FF"/>
<stop offset="0.5" stop-color="#8B5CF6"/>
<stop offset="1" stop-color="#D946EF"/>
</linearGradient>
<linearGradient id="paint14_linear_1337_49" x1="41.6172" y1="11.0876" x2="42.9016" y2="11.0876" gradientUnits="userSpaceOnUse">
<stop stop-color="#1685FF"/>
<stop offset="0.5" stop-color="#8B5CF6"/>
<stop offset="1" stop-color="#D946EF"/>
</linearGradient>
<linearGradient id="paint15_linear_1337_49" x1="17.1035" y1="11.0838" x2="28.2085" y2="11.0838" gradientUnits="userSpaceOnUse">
<stop stop-color="#1685FF"/>
<stop offset="0.5" stop-color="#8B5CF6"/>
<stop offset="1" stop-color="#D946EF"/>
</linearGradient>
<linearGradient id="paint16_linear_1337_49" x1="3.17096e-05" y1="30.0128" x2="11.6254" y2="30.0128" gradientUnits="userSpaceOnUse">
<stop stop-color="#1685FF"/>
<stop offset="0.5" stop-color="#8B5CF6"/>
<stop offset="1" stop-color="#D946EF"/>
</linearGradient>
<linearGradient id="paint17_linear_1337_49" x1="3.17097e-05" y1="45.3883" x2="11.6255" y2="45.3883" gradientUnits="userSpaceOnUse">
<stop stop-color="#1685FF"/>
<stop offset="0.5" stop-color="#8B5CF6"/>
<stop offset="1" stop-color="#D946EF"/>
</linearGradient>
<linearGradient id="paint18_linear_1337_49" x1="3.17161e-05" y1="14.7055" x2="11.6278" y2="14.7055" gradientUnits="userSpaceOnUse">
<stop stop-color="#1685FF"/>
<stop offset="0.5" stop-color="#8B5CF6"/>
<stop offset="1" stop-color="#D946EF"/>
</linearGradient>
<linearGradient id="paint19_linear_1337_49" x1="48.375" y1="30.0138" x2="60.0004" y2="30.0138" gradientUnits="userSpaceOnUse">
<stop stop-color="#1685FF"/>
<stop offset="0.5" stop-color="#8B5CF6"/>
<stop offset="1" stop-color="#D946EF"/>
</linearGradient>
<linearGradient id="paint20_linear_1337_49" x1="48.375" y1="14.7055" x2="60.0028" y2="14.7055" gradientUnits="userSpaceOnUse">
<stop stop-color="#1685FF"/>
<stop offset="0.5" stop-color="#8B5CF6"/>
<stop offset="1" stop-color="#D946EF"/>
</linearGradient>
<linearGradient id="paint21_linear_1337_49" x1="48.3731" y1="45.3888" x2="60.0009" y2="45.3888" gradientUnits="userSpaceOnUse">
<stop stop-color="#1685FF"/>
<stop offset="0.5" stop-color="#8B5CF6"/>
<stop offset="1" stop-color="#D946EF"/>
</linearGradient>
<linearGradient id="paint22_linear_1337_49" x1="8.97472" y1="30.1445" x2="51.028" y2="30.1445" gradientUnits="userSpaceOnUse">
<stop stop-color="#1685FF"/>
<stop offset="0.5" stop-color="#8B5CF6"/>
<stop offset="1" stop-color="#D946EF"/>
</linearGradient>
</defs>
</svg>
