<svg width="512" height="513" viewBox="0 0 512 513" fill="none" xmlns="http://www.w3.org/2000/svg">
<path d="M256 1.66455C189.16 1.66455 126.339 28.1798 79.1087 76.3276C31.9642 124.386 6 188.261 6 256.185C6 324.11 31.9642 387.984 79.1087 436.043C126.339 484.191 189.16 510.706 256 510.706C322.84 510.706 385.661 484.191 432.891 436.043C480.036 387.984 506 324.11 506 256.185C506 188.261 480.036 124.386 432.891 76.3276C385.661 28.1798 322.84 1.66455 256 1.66455ZM272.987 476.057V429.237H239.013V476.057C193.283 472.343 149.977 453.95 115.551 423.621L148.038 390.507L123.785 366.716L91.7957 399.327C61.9434 363.673 44.039 319.546 40.6083 273.172H86.1327V239.198H40.6083C48.7025 131.22 133.295 44.7524 239.013 36.3132V83.1329H272.987V36.3132C318.717 40.0276 362.023 58.42 396.449 88.7491L363.962 121.864L388.215 145.655L420.204 113.043C450.057 148.697 467.961 192.824 471.392 239.198H425.867V273.172H471.392C463.297 381.15 378.705 467.618 272.987 476.057Z" fill="url(#paint0_linear_477_38)"/>
<path d="M313.384 205.993C311.747 202.57 309.01 199.794 305.611 198.108L141.504 116.691C138.337 115.12 134.758 114.575 131.267 115.135C127.776 115.694 124.546 117.329 122.028 119.811C119.51 122.294 117.83 125.5 117.221 128.983C116.612 132.466 117.105 136.052 118.632 139.241L198.616 306.378C200.253 309.801 202.99 312.576 206.389 314.263L370.496 395.679C373.663 397.251 377.242 397.795 380.733 397.235C384.224 396.676 387.454 395.041 389.972 392.559C392.49 390.077 394.17 386.871 394.779 383.388C395.388 379.905 394.895 376.318 393.369 373.129L313.384 205.993ZM170.548 169.022L269.539 218.134L218.792 269.837L170.548 169.022ZM242.461 294.231L293.208 242.528L341.452 343.348L242.461 294.231Z" fill="url(#paint1_linear_477_38)"/>
<defs>
<linearGradient id="paint0_linear_477_38" x1="6.00136" y1="257.411" x2="506.011" y2="257.411" gradientUnits="userSpaceOnUse">
<stop stop-color="#1685FF"/>
<stop offset="0.5" stop-color="#8B5CF6"/>
<stop offset="1" stop-color="#D946EF"/>
</linearGradient>
<linearGradient id="paint1_linear_477_38" x1="116.968" y1="256.866" x2="395.039" y2="256.866" gradientUnits="userSpaceOnUse">
<stop stop-color="#1685FF"/>
<stop offset="0.5" stop-color="#8B5CF6"/>
<stop offset="1" stop-color="#D946EF"/>
</linearGradient>
</defs>
</svg>
