<?xml version="1.0" encoding="UTF-8" standalone="no"?><!DOCTYPE svg PUBLIC "-//W3C//DTD SVG 1.1//EN" "http://www.w3.org/Graphics/SVG/1.1/DTD/svg11.dtd"><svg width="100%" height="100%" viewBox="0 0 90 90" version="1.1" xmlns="http://www.w3.org/2000/svg" xmlns:xlink="http://www.w3.org/1999/xlink" xml:space="preserve" xmlns:serif="http://www.serif.com/" style="fill-rule:evenodd;clip-rule:evenodd;stroke-linejoin:round;stroke-miterlimit:2;"><path d="M70.903,17.288l-9.33,-9.34l0,7.37c0.027,1.078 0.922,1.95 2,1.95l7.33,0.02Zm-49.18,-6.54c-1.33,-1.338 -3.14,-2.09 -5.026,-2.09c-3.89,-0 -7.09,3.2 -7.09,7.09c-0,3.889 3.2,7.09 7.09,7.09c1.886,-0 3.696,-0.753 5.026,-2.09c2.728,-2.75 2.728,-7.25 0,-10Zm-5,-4.47c5.201,-0 9.48,4.279 9.48,9.48c0,5.2 -4.279,9.48 -9.48,9.48c-5.2,-0 -9.48,-4.28 -9.48,-9.48c0.006,-5.199 4.282,-9.475 9.48,-9.48Zm1.73,6.81c0.228,-0.293 0.578,-0.464 0.948,-0.464c0.659,-0 1.2,0.541 1.2,1.2c0,0.33 -0.136,0.647 -0.378,0.874l-3.38,3.73c-0.229,0.258 -0.559,0.407 -0.905,0.407c-0.345,-0 -0.675,-0.149 -0.905,-0.407l-1.86,-2.25c-0.144,-0.203 -0.221,-0.446 -0.221,-0.695c-0,-0.658 0.542,-1.2 1.2,-1.2c0.325,0 0.636,0.132 0.861,0.365l1,1.16l2.46,-2.72l-0.02,-0Zm-11.71,13.86l-3.59,8l3.67,-0.43c0.402,-0.05 0.802,0.109 1.06,0.42l2.41,2.6l3.21,-7.14l-0.74,-0.33l-2.94,-0.25c-0.777,-0.068 -1.483,-0.484 -1.92,-1.13l-1.16,-1.74Zm13.18,3.43l3.21,7.14l2.44,-2.65c0.247,-0.293 0.619,-0.449 1,-0.42l3.67,0.43l-3.59,-8l-1.08,1.74c-0.453,0.667 -1.194,1.086 -2,1.13l-3,0.26l-0.68,0.32l0.03,0.05Zm-2.15,-1.68l-1.06,0.48c-0.12,-0 -2.87,-1.37 -3.3,-1.49c-0.59,-0.16 -3.35,-0.28 -3.47,-0.34c-0.12,-0.06 -1.55,-2.4 -2,-2.84c-0.45,-0.44 -2.76,-1.86 -2.83,-2c-0.07,-0.14 -0.19,-2.88 -0.35,-3.47c-0.16,-0.59 -1.47,-3.09 -1.47,-3.28c0,-0.19 1.33,-2.71 1.49,-3.3c0.16,-0.59 0.28,-3.35 0.35,-3.47c0.07,-0.12 2.36,-1.52 2.83,-2c0.43,-0.43 1.86,-2.76 2,-2.83c0.14,-0.07 2.88,-0.19 3.47,-0.35c0.59,-0.16 3.14,-1.46 3.28,-1.46c0.14,-0 2.72,1.33 3.3,1.48c0.58,0.15 3.35,0.28 3.47,0.35c0.12,0.07 1.58,2.42 2,2.83c0.42,0.41 2.76,1.86 2.83,2c0.07,0.14 0.19,2.88 0.35,3.47c0.16,0.59 1.49,3.12 1.49,3.3c0,0.18 -1.33,2.72 -1.49,3.3c-0.16,0.58 -0.28,3.35 -0.35,3.47c-0.07,0.12 -2.4,1.55 -2.83,2c-0.43,0.45 -1.85,2.76 -2,2.84c-0.15,0.08 -2.88,0.18 -3.47,0.34l-2.24,1l0,-0.03Zm49.13,10.18l-2.51,2.5c-1.358,1.377 -1.358,3.623 0,5l5.67,5.67c1.38,1.353 3.621,1.353 5,-0l2.51,-2.49l-10.67,-10.68Zm-22,22l-2.51,2.5l10.68,10.69l2.5,-2.51c1.364,-1.375 1.364,-3.625 0,-5l-5.67,-5.67c-1.374,-1.364 -3.625,-1.364 -5,-0l0,-0.01Zm18.07,1.4l11.65,12.67l0.1,0.11l6.39,6.89c0.622,0.595 1.45,0.927 2.31,0.927c1.833,0 3.34,-1.507 3.34,-3.34c0,-0.002 0,-0.005 0,-0.007c0.004,-0.864 -0.36,-1.69 -1,-2.27l-12.72,-11.76l-0.12,-0.1l-6.79,-6.27l-3.16,3.15Zm4.92,-4.77c0.894,-0.8 1.804,-1.58 2.73,-2.34c0.643,0.223 1.32,0.331 2,0.32l0,6.35l-4.7,-4.33l-0.03,-0Zm-2.62,-0.85c-2.804,2.595 -5.443,5.363 -7.9,8.29l-0.1,-0.1l-5.7,-5.67l0,-0.06c4.005,-3.366 7.705,-7.077 11.06,-11.09l0.07,0.06l5.76,5.76c-0.72,0.61 -2.59,2.21 -3.19,2.81Zm-18.14,26l-11.4,-0c-1.338,0.005 -2.439,1.102 -2.45,2.44l0,2.45l16.29,-0l0,-2.44c-0.005,-1.337 -1.103,-2.435 -2.44,-2.44l0,-0.01Zm4.84,4.29l0,1.8c0,0.658 -0.541,1.2 -1.2,1.2l-18.68,-0c-0.658,-0 -1.2,-0.542 -1.2,-1.2l0,-1.8l-14.41,-0c-2.386,-0 -4.35,-1.964 -4.35,-4.35l0,-43.4c-0.157,0.46 -0.386,0.892 -0.68,1.28c-0.48,0.445 -1.241,0.418 -1.69,-0.06l-3.26,-3.47l-5.17,0.61c-0.044,0.005 -0.088,0.007 -0.133,0.007c-0.658,0 -1.2,-0.541 -1.2,-1.2c-0,-0.168 0.035,-0.334 0.103,-0.487l4.76,-10.63c-1,-0.69 -2,-1.17 -2.14,-2.6l-0.26,-3l-1.31,-2.8c-0.339,-0.687 -0.339,-1.494 0,-2.18l1.32,-2.86l0.25,-2.94c0.069,-0.777 0.484,-1.483 1.13,-1.92l2.42,-1.63l1.63,-2.37c0.437,-0.647 1.143,-1.062 1.92,-1.13l3,-0.26l2.8,-1.31c0.689,-0.331 1.492,-0.331 2.18,-0l2.86,1.32l2.91,0.2c1.42,0.12 1.89,1.09 2.58,2.11l34.2,-0c0.32,0.002 0.627,0.131 0.85,0.36l13.54,13.52c0.163,0.209 0.251,0.465 0.25,0.73l0,25.09l5.13,5.13c0.226,0.225 0.353,0.531 0.353,0.85c0,0.319 -0.127,0.625 -0.353,0.85l-3.35,3.35c-0.517,0.5 -1.12,0.903 -1.78,1.19l0,9.1l12.43,11.46c1.071,1.069 1.673,2.522 1.673,4.035c0,3.128 -2.574,5.703 -5.703,5.703c-1.51,-0 -2.961,-0.601 -4.03,-1.668l-4.37,-4.74l0,3.76c0,2.386 -1.963,4.35 -4.35,4.35l-18.67,-0Zm-5.4,-6.67l0,-2.49c0,-0.379 -0.311,-0.69 -0.69,-0.69l-9,-0c-0.38,-0 -0.694,0.31 -0.7,0.69l0,2.49l10.39,-0Zm-12.74,0.37c-1.607,0.676 -2.732,2.168 -2.94,3.9l-14.41,-0c-1.044,-0.047 -1.884,-0.905 -1.91,-1.95l0,-48.73l1.14,-2.53c0.659,0.31 1.422,0.31 2.08,-0l3.94,8.75c0.183,0.446 0.62,0.739 1.102,0.739c0.344,0 0.673,-0.149 0.898,-0.409l3.19,-3.47l5.17,0.61c0.045,0.005 0.089,0.007 0.134,0.007c0.658,0 1.2,-0.541 1.2,-1.2c-0,-0.168 -0.035,-0.334 -0.104,-0.487l-4.75,-10.63c1,-0.69 2,-1.17 2.14,-2.6l0.25,-2.94l1.31,-2.86c0.34,-0.687 0.34,-1.494 0,-2.18l-1.31,-2.79l-0.26,-3c-0.13,-1.43 -1.13,-1.93 -2.13,-2.6l30.61,-0l0,9.06c0,2.386 1.964,4.35 4.35,4.35c0.014,-0 0.027,-0 0.04,-0l9,-0l0,21.49l-4.85,-4.84c-0.223,-0.225 -0.527,-0.352 -0.845,-0.352c-0.317,-0 -0.621,0.127 -0.845,0.352l-3.35,3.35c-1.619,1.621 -2.162,4.042 -1.39,6.2c-3.578,4.34 -7.566,8.325 -11.91,11.9c-2.159,-0.758 -4.571,-0.217 -6.2,1.39l-3.35,3.36c-0.225,0.223 -0.352,0.528 -0.352,0.845c0,0.317 0.127,0.621 0.352,0.845l12.4,12.38c0.468,0.455 1.223,0.455 1.69,-0l3.35,-3.36c1.606,-1.605 2.155,-3.996 1.41,-6.14c0.87,-1 1.75,-2.07 2.66,-3.08l11.23,12.21l0,6.36c-0.027,1.078 -0.921,1.95 -2,1.95l-18.64,-0c-0.204,-1.73 -1.325,-3.223 -2.93,-3.9l0,-2.86c-0.005,-1.693 -1.396,-3.085 -3.09,-3.09l-9,-0c-1.693,0.005 -3.084,1.397 -3.09,3.09l0,2.86l0.01,-0Zm15.48,-60.82l-7.2,7.19c-0.223,0.225 -0.527,0.352 -0.845,0.352c-0.317,-0 -0.621,-0.127 -0.845,-0.352l-2.61,-2.61c-0.25,-0.247 -0.588,-0.385 -0.94,-0.385c-0.733,-0 -1.337,0.602 -1.34,1.335c0.001,0.352 0.141,0.691 0.39,0.94l4.38,4.38c0.531,0.526 1.4,0.526 1.93,-0l9,-9c0.249,-0.25 0.388,-0.588 0.388,-0.94c0,-0.731 -0.601,-1.333 -1.333,-1.333c-0.354,-0 -0.694,0.141 -0.945,0.393l-0.03,0.03Zm-8,4.65l-1.77,-1.76c-0.69,-0.643 -1.599,-1.001 -2.542,-1.001c-2.046,-0 -3.73,1.684 -3.73,3.73c-0,0.924 0.343,1.815 0.962,2.501l4.34,4.42c1.463,1.461 3.868,1.461 5.33,-0l9,-9c0.697,-0.699 1.089,-1.647 1.089,-2.634c0,-2.046 -1.683,-3.73 -3.73,-3.73c-0.984,-0 -1.93,0.39 -2.629,1.084l-6.36,6.39l0.04,-0Zm-15.38,18.12l-3.69,4.07l-1.64,-2c-0.226,-0.271 -0.561,-0.428 -0.915,-0.428c-0.654,0 -1.192,0.538 -1.192,1.193c-0,0.279 0.098,0.55 0.277,0.765l2.52,3c0.226,0.261 0.555,0.411 0.9,0.411c0.346,0 0.675,-0.15 0.9,-0.411l4.61,-5.08c0.164,-0.211 0.253,-0.47 0.253,-0.736c-0,-0.658 -0.542,-1.2 -1.2,-1.2c-0.306,-0 -0.6,0.117 -0.823,0.326l0,0.09Zm6.71,16.4l7.72,-0c0.659,-0 1.2,-0.542 1.2,-1.2c0,-0.659 -0.541,-1.2 -1.2,-1.2l-7.72,-0c-0.658,-0 -1.2,0.541 -1.2,1.2c0,0.658 0.542,1.2 1.2,1.2Zm0,-11.86l24.7,-0c0.615,-0.057 1.091,-0.578 1.091,-1.195c0,-0.617 -0.476,-1.139 -1.091,-1.195l-24.7,-0c-0.036,-0.004 -0.072,-0.005 -0.109,-0.005c-0.658,-0 -1.2,0.541 -1.2,1.2c0,0.658 0.542,1.2 1.2,1.2c0.037,-0 0.073,-0.002 0.109,-0.005Zm0,23.72c-0.658,-0 -1.2,-0.542 -1.2,-1.2c0,-0.659 0.542,-1.2 1.2,-1.2l8.81,-0c0.659,-0 1.2,0.541 1.2,1.2c0,0.658 -0.541,1.2 -1.2,1.2l-8.81,-0Zm-6.71,-16.4l-3.69,4.06l-1.64,-2c-0.224,-0.317 -0.59,-0.506 -0.979,-0.506c-0.658,-0 -1.2,0.541 -1.2,1.2c0,0.317 0.126,0.621 0.349,0.846l2.52,3c0.228,0.258 0.556,0.406 0.9,0.406c0.345,0 0.673,-0.148 0.9,-0.406l4.61,-5.08c0.164,-0.211 0.253,-0.47 0.253,-0.736c-0,-0.658 -0.542,-1.2 -1.2,-1.2c-0.306,-0 -0.6,0.117 -0.823,0.326l0,0.09Zm0,11.85l-3.69,4.07l-1.64,-2c-0.228,-0.267 -0.563,-0.421 -0.915,-0.421c-0.661,0 -1.205,0.544 -1.205,1.206c-0,0.288 0.103,0.566 0.29,0.785l2.52,3c0.228,0.258 0.556,0.406 0.9,0.406c0.345,0 0.673,-0.148 0.9,-0.406l4.61,-5c0.164,-0.211 0.253,-0.47 0.253,-0.736c-0,-0.658 -0.542,-1.2 -1.2,-1.2c-0.306,-0 -0.6,0.117 -0.823,0.326l0,-0.03Z" style="fill:url(#_Linear1);"/><defs><linearGradient id="_Linear1" x1="0" y1="0" x2="1" y2="0" gradientUnits="userSpaceOnUse" gradientTransform="matrix(89.0967,0,0,80.5932,-2.93099e-14,45.1905)"><stop offset="0" style="stop-color:#1685ff;stop-opacity:1"/><stop offset="0.5" style="stop-color:#8b5cf6;stop-opacity:1"/><stop offset="1" style="stop-color:#d946ef;stop-opacity:1"/></linearGradient></defs></svg>