<?xml version="1.0" encoding="UTF-8" standalone="no"?><!DOCTYPE svg PUBLIC "-//W3C//DTD SVG 1.1//EN" "http://www.w3.org/Graphics/SVG/1.1/DTD/svg11.dtd"><svg width="100%" height="100%" viewBox="0 0 64 64" version="1.1" xmlns="http://www.w3.org/2000/svg" xmlns:xlink="http://www.w3.org/1999/xlink" xml:space="preserve" xmlns:serif="http://www.serif.com/" style="fill-rule:evenodd;clip-rule:evenodd;stroke-linejoin:round;stroke-miterlimit:2;"><rect id="Artboard1" x="0" y="0" width="64" height="64" style="fill:none;"/><clipPath id="_clip1"><rect x="0" y="0" width="64" height="64"/></clipPath><g clip-path="url(#_clip1)"><path d="M34.992,0.306c-1.922,-0.408 -4.063,-0.408 -5.985,-0c-0.476,0.101 -0.818,0.522 -0.818,1.01l-0,2.888c-0.344,0.12 -0.685,0.261 -1.018,0.418l-2.043,-2.043c-0.348,-0.348 -0.89,-0.402 -1.299,-0.131c-1.662,1.099 -3.121,2.559 -4.221,4.221c-0.272,0.409 -0.216,0.953 0.131,1.299l2.036,2.037c-0.165,0.344 -0.31,0.691 -0.432,1.04l-2.879,-0c-0.488,-0 -0.909,0.34 -1.011,0.818c-0.134,0.634 -0.208,1.294 -0.254,1.959l-10.593,0c-2.198,0 -3.984,1.787 -3.984,3.985l-0,42.209c-0,2.197 1.786,3.984 3.984,3.984l50.788,0c2.198,0 3.984,-1.787 3.984,-3.985l0,-42.209c0,-2.198 -1.786,-3.985 -3.984,-3.985l-10.593,0c-0.046,-0.667 -0.12,-1.325 -0.254,-1.959c-0.102,-0.478 -0.523,-0.819 -1.011,-0.819l-2.879,0c-0.122,-0.347 -0.265,-0.69 -0.429,-1.028l2.033,-2.033c0.344,-0.344 0.402,-0.882 0.138,-1.291c-1.089,-1.682 -2.554,-3.147 -4.237,-4.236c-0.409,-0.263 -0.945,-0.207 -1.29,0.137l-2.034,2.034c-0.336,-0.164 -0.68,-0.308 -1.028,-0.43l0,-2.88c0,-0.488 -0.342,-0.909 -0.818,-1.01Zm24.322,17.5l-0,42.209c-0,1.059 -0.862,1.92 -1.92,1.92l-50.788,0c-1.058,0 -1.92,-0.861 -1.92,-1.92l0,-42.209c0,-1.058 0.862,-1.92 1.92,-1.92l10.593,-0c0.047,0.667 0.12,1.325 0.254,1.958c0.102,0.478 0.523,0.819 1.011,0.819l2.887,-0c0.124,0.349 0.265,0.69 0.425,1.024l-2.037,2.037c-0.344,0.344 -0.402,0.882 -0.138,1.291c1.097,1.697 2.52,3.124 4.232,4.245c0.407,0.27 0.949,0.214 1.295,-0.133l2.043,-2.043c0.333,0.157 0.674,0.298 1.018,0.419l-0,2.886c-0,0.487 0.341,0.908 0.817,1.01c0.96,0.204 1.967,0.308 2.993,0.308c1.026,-0 2.034,-0.104 2.993,-0.308c0.476,-0.102 0.817,-0.523 0.817,-1.01l0,-2.879c0.348,-0.122 0.692,-0.266 1.028,-0.43l2.034,2.034c0.345,0.346 0.881,0.4 1.29,0.137c1.698,-1.097 3.126,-2.521 4.246,-4.231c0.267,-0.409 0.211,-0.95 -0.134,-1.296l-2.043,-2.042c0.157,-0.334 0.297,-0.675 0.418,-1.018l2.887,-0c0.488,-0 0.909,-0.341 1.011,-0.819c0.134,-0.634 0.208,-1.292 0.254,-1.958l10.594,-0c1.058,-0.001 1.92,0.861 1.92,1.919Zm-6.297,36.305l-27.235,-0c-0.459,-1.663 -1.969,-2.895 -3.775,-2.895c-1.807,0 -3.317,1.232 -3.775,2.895l-7.249,-0c-0.571,-0 -1.032,0.461 -1.032,1.032c-0,0.571 0.461,1.032 1.032,1.032l7.247,0c0.455,1.669 1.968,2.904 3.778,2.904c1.809,0 3.322,-1.236 3.778,-2.904l27.231,0c0.571,0 1.032,-0.461 1.032,-1.032c0,-0.571 -0.461,-1.032 -1.032,-1.032Zm-31.01,2.904c-1.03,-0 -1.868,-0.839 -1.868,-1.868c0,-1.029 0.838,-1.867 1.868,-1.867c1.029,-0 1.867,0.838 1.867,1.867c-0,1.029 -0.838,1.868 -1.867,1.868Zm31.01,-12.866l-5.623,0c-0.455,-1.667 -1.968,-2.902 -3.778,-2.902c-1.809,-0 -3.322,1.235 -3.778,2.902l-28.855,0c-0.571,0 -1.032,0.462 -1.032,1.033c-0,0.571 0.461,1.032 1.032,1.032l28.859,-0c0.458,1.663 1.969,2.895 3.775,2.895c1.807,0 3.317,-1.232 3.775,-2.895l5.625,-0c0.571,-0 1.032,-0.461 1.032,-1.032c0,-0.571 -0.461,-1.033 -1.032,-1.033Zm-9.4,2.895c-1.029,-0 -1.867,-0.838 -1.867,-1.867c-0,-1.03 0.838,-1.868 1.867,-1.868c1.027,0 1.862,0.834 1.867,1.86c-0,0.004 -0.003,0.008 -0.003,0.012c0,0.003 0.003,0.005 0.003,0.008c-0.009,1.024 -0.842,1.855 -1.867,1.855Zm-12.034,-12.866c-0.455,-1.667 -1.969,-2.903 -3.778,-2.903c-1.81,-0 -3.322,1.236 -3.778,2.903l-13.044,-0c-0.571,-0 -1.032,0.461 -1.032,1.032c-0,0.571 0.461,1.032 1.032,1.032l13.048,0c0.458,1.663 1.968,2.896 3.775,2.896c1.806,-0 3.317,-1.233 3.775,-2.896l21.436,0c0.571,0 1.032,-0.461 1.032,-1.032c0,-0.571 -0.461,-1.032 -1.032,-1.032l-21.434,-0Zm-3.777,2.895c-1.026,0 -1.861,-0.833 -1.866,-1.858c-0,-0.002 0.001,-0.003 0.001,-0.005c-0,-0.003 -0.002,-0.005 -0.002,-0.008c0.002,-1.027 0.838,-1.864 1.866,-1.864c1.029,0 1.867,0.839 1.867,1.868c0,1.029 -0.837,1.867 -1.866,1.867Zm8.697,-30.288c0.405,0.24 0.922,0.175 1.254,-0.159l1.963,-1.963c0.934,0.699 1.772,1.536 2.471,2.47l-1.964,1.963c-0.332,0.332 -0.398,0.847 -0.16,1.253c0.376,0.638 0.654,1.305 0.824,1.98c0.117,0.457 0.528,0.778 1.001,0.778l2.778,-0c0.079,0.569 0.119,1.152 0.119,1.745c-0,0.592 -0.04,1.177 -0.119,1.745l-2.778,0c-0.465,0 -0.874,0.313 -0.996,0.762c-0.191,0.7 -0.46,1.359 -0.827,2.016c-0.225,0.404 -0.155,0.906 0.172,1.232l1.961,1.962c-0.71,0.944 -1.541,1.772 -2.48,2.473l-1.964,-1.964c-0.332,-0.332 -0.847,-0.4 -1.254,-0.159c-0.635,0.373 -1.302,0.651 -1.98,0.825c-0.456,0.115 -0.777,0.528 -0.777,1l-0,2.778c-1.138,0.157 -2.355,0.157 -3.493,-0l0,-2.778c0,-0.466 -0.312,-0.875 -0.761,-0.996c-0.7,-0.191 -1.36,-0.461 -2.016,-0.827c-0.404,-0.226 -0.906,-0.155 -1.233,0.171l-1.961,1.961c-0.945,-0.711 -1.773,-1.542 -2.474,-2.48l1.965,-1.964c0.33,-0.33 0.397,-0.841 0.164,-1.245c-0.366,-0.638 -0.639,-1.294 -0.833,-2.004c-0.122,-0.45 -0.531,-0.762 -0.996,-0.762l-2.778,0c-0.079,-0.569 -0.119,-1.153 -0.119,-1.745c0,-0.593 0.04,-1.177 0.119,-1.745l2.778,0c0.473,0 0.883,-0.321 1.001,-0.778c0.169,-0.669 0.448,-1.343 0.828,-2.002c0.233,-0.405 0.166,-0.915 -0.164,-1.245l-1.958,-1.958c0.706,-0.926 1.543,-1.764 2.47,-2.47l1.958,1.958c0.326,0.326 0.829,0.398 1.233,0.171c0.656,-0.365 1.316,-0.636 2.016,-0.827c0.45,-0.121 0.761,-0.53 0.761,-0.996l0,-2.779c1.138,-0.156 2.355,-0.156 3.493,0l-0,2.778c-0,0.472 0.321,0.884 0.777,1.001c0.678,0.173 1.344,0.451 1.979,0.824Zm-8.671,8.068c-0,2.298 1.87,4.168 4.168,4.168c2.298,-0 4.168,-1.871 4.168,-4.168c0,-2.298 -1.87,-4.168 -4.168,-4.168c-2.298,0 -4.168,1.87 -4.168,4.168Zm6.272,-0c-0,1.16 -0.944,2.103 -2.104,2.103c-1.16,0 -2.104,-0.943 -2.104,-2.103c0,-1.16 0.944,-2.103 2.104,-2.103c1.16,-0 2.104,0.943 2.104,2.103Z" style="fill:url(#_Linear2);fill-rule:nonzero;"/></g><defs><linearGradient id="_Linear2" x1="0" y1="0" x2="1" y2="0" gradientUnits="userSpaceOnUse" gradientTransform="matrix(58.7571,0,0,57.344,2.62158,32.1541)"><stop offset="0" style="stop-color:#1685ff;stop-opacity:1"/><stop offset="0.5" style="stop-color:#8b5cf6;stop-opacity:1"/><stop offset="1" style="stop-color:#d946ef;stop-opacity:1"/></linearGradient></defs></svg>