<?xml version="1.0" encoding="UTF-8" standalone="no"?><!DOCTYPE svg PUBLIC "-//W3C//DTD SVG 1.1//EN" "http://www.w3.org/Graphics/SVG/1.1/DTD/svg11.dtd"><svg width="100%" height="100%" viewBox="0 0 100 100" version="1.1" xmlns="http://www.w3.org/2000/svg" xmlns:xlink="http://www.w3.org/1999/xlink" xml:space="preserve" xmlns:serif="http://www.serif.com/" style="fill-rule:evenodd;clip-rule:evenodd;stroke-linejoin:round;stroke-miterlimit:2;"><rect id="Artboard1" x="0" y="0" width="100" height="100" style="fill:none;"/><path d="M49.995,1.045l0.009,-0c11.471,-0 20.91,9.439 20.91,20.909c-0,8.026 -4.621,15.372 -11.854,18.847c4.599,0.976 8.984,2.779 12.94,5.321l1.174,-2.184c0.264,-0.485 0.774,-0.788 1.326,-0.788c0.558,-0 1.073,0.309 1.334,0.803l7.415,13.765l15.387,2.789c0.713,0.131 1.237,0.759 1.237,1.484c-0,0.385 -0.147,0.756 -0.412,1.036l-10.815,11.305l2.106,15.503c0.009,0.067 0.013,0.134 0.013,0.201c0,0.827 -0.68,1.508 -1.507,1.508c-0.227,-0 -0.451,-0.052 -0.655,-0.15l-14.1,-6.784l-9.364,4.51l1.102,8.127c0.009,0.067 0.013,0.134 0.013,0.201c0,0.827 -0.68,1.507 -1.507,1.507c-0.227,0 -0.451,-0.051 -0.655,-0.149l-14.095,-6.789l-14.09,6.789c-0.204,0.098 -0.428,0.149 -0.654,0.149c-0.828,0 -1.509,-0.681 -1.509,-1.508c0,-0.084 0.007,-0.167 0.021,-0.25l1.095,-8.077l-9.358,-4.51l-14.098,6.789c-0.204,0.099 -0.428,0.15 -0.654,0.15c-0.828,-0 -1.509,-0.681 -1.509,-1.509c0,-0.083 0.007,-0.166 0.021,-0.248l2.096,-15.454l-10.816,-11.306c-0.266,-0.28 -0.415,-0.652 -0.415,-1.038c0,-0.755 0.567,-1.399 1.315,-1.495l15.314,-2.771l7.416,-13.79c0.264,-0.485 0.774,-0.788 1.326,-0.788c0.558,-0 1.073,0.309 1.334,0.803l1.167,2.169c3.956,-2.543 8.341,-4.346 12.941,-5.321c-7.234,-3.475 -11.854,-10.821 -11.854,-18.847c-0,-11.47 9.439,-20.909 20.909,-20.909Zm-14.709,84.934l0.574,-4.235l-10.815,-11.305c-0.267,-0.281 -0.416,-0.653 -0.416,-1.04c0,-0.755 0.567,-1.399 1.316,-1.495l15.314,-2.777l1.506,-2.801l-9.692,-1.757c-0.487,-0.057 -0.917,-0.35 -1.149,-0.783l-6.422,-11.95l-6.429,11.947c-0.217,0.404 -0.608,0.688 -1.06,0.769l-13.349,2.417l9.383,9.811c0.314,0.331 0.462,0.787 0.401,1.24l-1.829,13.445c4.073,-1.963 8.155,-3.915 12.222,-5.888c0.414,-0.201 0.898,-0.201 1.312,-0l9.133,4.4l-0,0.002Zm8.978,-26.444l4.407,-8.191c0.264,-0.485 0.773,-0.787 1.325,-0.787c0.559,-0 1.073,0.309 1.335,0.803l4.403,8.173l10.027,-1.818l4.804,-8.929c-11.946,-7.913 -29.184,-7.913 -41.131,0l4.804,8.929l10.027,1.818l-0.001,0.002Zm-6.263,28.848c0,0.038 -0.009,0.076 -0.015,0.111l-0.865,6.376l12.222,-5.888c0.414,-0.199 0.897,-0.199 1.31,-0l12.224,5.891l-0.865,-6.375c-0.006,-0.039 -0.011,-0.077 -0.015,-0.111l-0.938,-6.921c-0.074,-0.464 0.073,-0.936 0.397,-1.276l9.381,-9.809l-13.262,-2.405c-0.487,-0.058 -0.916,-0.351 -1.149,-0.783l-6.429,-11.95l-6.428,11.947c-0.217,0.404 -0.608,0.688 -1.06,0.768l-13.349,2.42l9.381,9.809c0.315,0.331 0.463,0.788 0.401,1.24l-0.942,6.956l0.001,0Zm35.888,-39.406c-0.017,0.034 -0.036,0.067 -0.055,0.101l-5.763,10.705c-0.217,0.404 -0.608,0.688 -1.06,0.769l-9.779,1.773l1.506,2.8l15.389,2.789c0.714,0.131 1.237,0.759 1.237,1.484c-0,0.385 -0.147,0.756 -0.411,1.036l-10.815,11.306l0.574,4.235c3.046,-1.464 6.091,-2.931 9.133,-4.4c0.414,-0.201 0.898,-0.201 1.312,-0l12.223,5.89l-1.818,-13.412c-0.074,-0.463 0.073,-0.936 0.396,-1.276l9.382,-9.808l-13.261,-2.403c-0.488,-0.057 -0.918,-0.35 -1.15,-0.783l-6.429,-11.947l-0.614,1.141l0.003,-0Zm-23.902,-9.143c0.004,-0 0.008,-0 0.013,-0c9.81,-0 17.882,-8.073 17.882,-17.883c0,-9.81 -8.072,-17.883 -17.882,-17.883c-9.811,0 -17.883,8.073 -17.883,17.883c-0,0.003 -0,0.005 -0,0.008c-0,9.804 8.066,17.872 17.87,17.875Z" style="fill:url(#_Linear1);"/><defs><linearGradient id="_Linear1" x1="0" y1="0" x2="1" y2="0" gradientUnits="userSpaceOnUse" gradientTransform="matrix(99.7462,0,0,87.7281,0.127113,50.2357)"><stop offset="0" style="stop-color:#1685ff;stop-opacity:1"/><stop offset="0.5" style="stop-color:#8b5cf6;stop-opacity:1"/><stop offset="1" style="stop-color:#d946ef;stop-opacity:1"/></linearGradient></defs></svg>