<svg width="70" height="70" viewBox="0 0 70 70" fill="none" xmlns="http://www.w3.org/2000/svg">
<path d="M12.7808 46.3342H4.11424C2.78549 46.3342 1.70709 45.2529 1.70709 43.927V12.503C1.70709 11.1742 2.78833 10.0958 4.11424 10.0958H56.9351C58.2639 10.0958 59.3423 11.1771 59.3423 12.503V15.3454C59.3423 15.8178 59.7236 16.199 60.1959 16.199C60.6683 16.199 61.0495 15.8178 61.0495 15.3454V12.503C61.0495 10.2352 59.2029 8.38867 56.9352 8.38867H4.11431C1.84658 8.38867 0 10.2353 0 12.503V43.927C0 46.1948 1.84665 48.0413 4.11431 48.0413H12.7809C13.2532 48.0413 13.6345 47.6601 13.6345 47.1877C13.6345 46.7154 13.2531 46.3342 12.7808 46.3342Z" fill="url(#paint0_linear_603_860)"/>
<path d="M64.6737 17.432H49.7502C46.8167 17.432 44.4294 19.8192 44.4294 22.7527V31.9801C44.4294 32.4525 44.8107 32.8338 45.283 32.8338C45.7553 32.8338 46.1366 32.4525 46.1366 31.9801V22.7527C46.1366 20.761 47.7585 19.1392 49.7502 19.1392H64.6737C66.6654 19.1392 68.2872 20.7611 68.2872 22.7527V56.2906C68.2872 58.2824 66.6654 59.9041 64.6737 59.9041H49.7502C47.7584 59.9041 46.1366 58.2823 46.1366 56.2906V40.5331H51.9354C52.1801 40.5331 52.3793 40.3339 52.3793 40.0892V36.3703C52.3793 36.1256 52.1801 35.9265 51.9354 35.9265H41.7064V32.6003C41.7064 32.3926 41.4617 32.2816 41.3081 32.4182L35.2105 37.756C34.926 38.0064 34.926 38.4502 35.2105 38.7007L41.3081 44.0385C41.4645 44.175 41.7064 44.0641 41.7064 43.8564V40.5302H44.4294V46.3318L17.1543 46.3346C16.682 46.3346 16.3007 46.7159 16.3007 47.1882C16.3007 47.6606 16.682 48.0418 17.1543 48.0418H24.8965V55.7469H22.7483C22.276 55.7469 21.8947 56.1282 21.8947 56.6005C21.8947 57.0729 22.276 57.4541 22.7483 57.4541H38.3063C38.7786 57.4541 39.1599 57.0729 39.1599 56.6005C39.1599 56.1282 38.7786 55.7469 38.3063 55.7469H36.1581V48.0418H44.4349V56.2903C44.4349 59.2238 46.8221 61.6111 49.7557 61.6111H64.6792C67.6127 61.6111 70 59.2239 70 56.2903L69.9943 22.7524C69.9943 19.8189 67.6073 17.432 64.6737 17.432Z" fill="url(#paint1_linear_603_860)"/>
<path d="M60.5225 24.3715C61.2424 24.3715 61.8257 23.7882 61.8257 23.0683C61.8257 22.3485 61.2424 21.7651 60.5225 21.7651H53.9015C53.1816 21.7651 52.5983 22.3484 52.5983 23.0683C52.5983 23.7882 53.1816 24.3715 53.9015 24.3715H60.5225Z" fill="url(#paint2_linear_603_860)"/>
<path d="M35.3955 30.1819L41.4931 24.8441C41.7776 24.5937 41.7776 24.1499 41.4931 23.8994L35.3955 18.5616C35.239 18.4251 34.9972 18.536 34.9972 18.7437V22.0699H24.7682C24.5235 22.0699 24.3243 22.2691 24.3243 22.5138V26.2326C24.3243 26.4773 24.5235 26.6765 24.7682 26.6765H34.9972V30.0027C34.9972 30.2104 35.2419 30.3214 35.3955 30.1848V30.1819Z" fill="url(#paint3_linear_603_860)"/>
<defs>
<linearGradient id="paint0_linear_603_860" x1="0.000269329" y1="28.3105" x2="61.0509" y2="28.3105" gradientUnits="userSpaceOnUse">
<stop stop-color="#1685FF"/>
<stop offset="0.5" stop-color="#8B5CF6"/>
<stop offset="1" stop-color="#D946EF"/>
</linearGradient>
<linearGradient id="paint1_linear_603_860" x1="16.301" y1="39.6278" x2="70.0012" y2="39.6278" gradientUnits="userSpaceOnUse">
<stop stop-color="#1685FF"/>
<stop offset="0.5" stop-color="#8B5CF6"/>
<stop offset="1" stop-color="#D946EF"/>
</linearGradient>
<linearGradient id="paint2_linear_603_860" x1="52.5983" y1="23.0746" x2="61.8259" y2="23.0746" gradientUnits="userSpaceOnUse">
<stop stop-color="#1685FF"/>
<stop offset="0.5" stop-color="#8B5CF6"/>
<stop offset="1" stop-color="#D946EF"/>
</linearGradient>
<linearGradient id="paint3_linear_603_860" x1="24.3244" y1="24.4015" x2="41.7069" y2="24.4015" gradientUnits="userSpaceOnUse">
<stop stop-color="#1685FF"/>
<stop offset="0.5" stop-color="#8B5CF6"/>
<stop offset="1" stop-color="#D946EF"/>
</linearGradient>
</defs>
</svg>
