<svg width="62" height="60" viewBox="0 0 62 60" fill="none" xmlns="http://www.w3.org/2000/svg">
<path d="M41.0221 60H17.7078C17.4491 60 17.2018 59.8928 17.0248 59.7038C16.848 59.515 16.7571 59.2615 16.7735 59.0031C16.7778 58.9333 17.1621 51.9832 13.3307 45.8749C12.7738 45.3388 9.93856 42.4924 7.53726 37.903C5.11092 33.2661 2.70729 25.9143 5.03485 17.2214C5.03649 17.2155 5.03813 17.2096 5.03977 17.2036C5.07008 17.0989 5.80197 14.6038 7.64048 11.5236C9.343 8.6713 12.3594 4.76102 17.0609 2.33077C22.8268 -0.6499 29.721 -0.772239 37.5525 1.96668C37.5882 1.9791 37.623 1.99375 37.6569 2.01039C37.8044 2.08304 41.3093 3.82825 44.6625 7.231C49.0448 11.6782 51.0838 16.8878 50.5766 22.324L57.3421 29.6277C57.8109 30.1336 58.0691 30.7925 58.0691 31.4829C58.0691 32.3867 57.6237 33.2297 56.8778 33.7381L52.544 36.6927L52.6554 45.7347C52.6556 45.7511 52.6554 45.7674 52.6547 45.7838C52.6485 45.939 52.5609 47.3299 51.4097 48.3681C50.5547 49.1393 49.378 49.4833 47.9139 49.3935L42.6647 49.2816C42.4016 49.4545 41.9067 49.8674 41.9555 50.5063C41.9574 50.5301 41.9582 50.5539 41.9582 50.5778V59.0625C41.9583 59.5803 41.5391 60 41.0221 60ZM18.6617 58.1251H40.0859V50.6107C39.9765 48.912 41.2557 47.8498 42.0344 47.4884C42.1638 47.4281 42.3054 47.399 42.448 47.4017L47.9731 47.5194C47.9866 47.5197 48 47.5203 48.0136 47.5212C49.1429 47.5934 49.9449 47.3215 50.3958 46.7106C50.7091 46.2864 50.7724 45.8157 50.7825 45.717L50.6653 36.2127C50.6615 35.8984 50.815 35.6031 51.0746 35.4262L55.8239 32.1883C56.0572 32.0294 56.1965 31.7657 56.1965 31.4829C56.1965 31.267 56.1159 31.061 55.9694 30.9029L48.9145 23.2867C48.7278 23.0853 48.639 22.812 48.6712 22.5392C49.2706 17.4604 47.4735 12.753 43.3296 8.54802C40.3981 5.57322 37.292 3.92926 36.8772 3.71669C29.5822 1.17733 23.2094 1.26885 17.9355 3.98879C9.77367 8.198 6.93176 17.4144 6.84036 17.7188C5.10706 24.2032 5.88928 30.682 9.16535 36.9747C11.632 41.7126 14.6654 44.5592 14.6957 44.5874C14.7544 44.6419 14.8065 44.7042 14.8494 44.7718C18.2243 50.082 18.6415 55.8463 18.6617 58.1251Z" fill="url(#paint0_linear_246_579)"/>
<path d="M32.1951 38.4385C30.6499 38.4385 29.1572 37.9547 27.9152 37.0634C26.6732 37.9547 25.1804 38.4385 23.6354 38.4385C19.5792 38.4385 16.2794 35.1342 16.2794 31.0727C16.2794 31.0191 16.2801 30.965 16.2814 30.91C14.9148 29.533 14.1394 27.665 14.1394 25.7158C14.1394 24.3828 14.4918 23.099 15.1639 21.9659C14.4918 20.8328 14.1394 19.549 14.1394 18.2161C14.1394 16.2374 14.9387 14.3422 16.3446 12.959C16.5683 11.2627 17.3737 9.70051 18.6373 8.52751C20.0004 7.2617 21.7754 6.5647 23.6354 6.5647C25.1805 6.5647 26.6732 7.04831 27.9152 7.93972C29.1572 7.04831 30.6501 6.5647 32.1951 6.5647C34.0551 6.5647 35.8302 7.2617 37.1933 8.52751C38.4566 9.70051 39.2621 11.2627 39.4859 12.959C40.8919 14.3422 41.6911 16.2376 41.6911 18.2161C41.6911 19.549 41.3387 20.8329 40.6666 21.9659C41.3386 23.0989 41.6911 24.3828 41.6911 25.7158C41.6911 27.665 40.9156 29.533 39.5491 30.91C39.5505 30.965 39.5512 31.0191 39.5512 31.0727C39.5512 35.1342 36.2512 38.4385 32.1951 38.4385ZM27.9152 34.9255C28.1388 34.9255 28.3623 35.0053 28.5402 35.1649C29.545 36.0668 30.8429 36.5635 32.1951 36.5635C35.2187 36.5635 37.6786 34.1002 37.6786 31.0727C37.6786 30.9293 37.6717 30.7762 37.6577 30.6045C37.6335 30.3104 37.749 30.0221 37.9695 29.8263C39.1445 28.7825 39.8185 27.2843 39.8185 25.7158C39.8185 24.5586 39.4623 23.4512 38.7884 22.5135C38.5533 22.1864 38.5533 21.7455 38.7884 21.4183C39.4623 20.4806 39.8185 19.3733 39.8185 18.2161C39.8185 16.6488 39.1449 15.1508 37.9704 14.1065C37.79 13.946 37.6784 13.7221 37.659 13.4813C37.4302 10.6541 35.0301 8.43962 32.1951 8.43962C30.8428 8.43962 29.5448 8.93625 28.5402 9.83808C28.1845 10.1573 27.6459 10.1573 27.2903 9.83808C26.2856 8.93625 24.9875 8.43962 23.6354 8.43962C20.8004 8.43962 18.4004 10.6541 18.1715 13.4812C18.1519 13.722 18.0404 13.9459 17.86 14.1064C16.6855 15.1507 16.0119 16.6485 16.0119 18.216C16.0119 19.3731 16.3681 20.4804 17.0419 21.4183C17.2769 21.7454 17.2769 22.1864 17.0419 22.5134C16.3681 23.4512 16.0119 24.5586 16.0119 25.7158C16.0119 27.2843 16.6858 28.7825 17.861 29.8263C18.0814 30.0221 18.197 30.3104 18.1728 30.6045C18.1586 30.7762 18.1518 30.9293 18.1518 31.0727C18.1518 34.1003 20.6118 36.5635 23.6354 36.5635C24.9875 36.5635 26.2856 36.0669 27.2903 35.1649C27.4682 35.0053 27.6917 34.9255 27.9152 34.9255Z" fill="url(#paint1_linear_246_579)"/>
<path d="M32.9474 31.8761H23.5851C23.0681 31.8761 22.6489 31.4564 22.6489 30.9387V21.5641C22.6489 21.0463 23.0681 20.6266 23.5851 20.6266H32.9474C33.4644 20.6266 33.8836 21.0463 33.8836 21.5641V30.9387C33.8836 31.4564 33.4644 31.8761 32.9474 31.8761ZM24.5214 30.0012H32.0112V22.5015H24.5214V30.0012Z" fill="url(#paint2_linear_246_579)"/>
<path d="M23.5851 22.5014C23.0681 22.5014 22.6489 22.0817 22.6489 21.564V17.8141C22.6489 14.7126 25.1689 12.1893 28.2663 12.1893C31.3638 12.1893 33.8836 14.7126 33.8836 17.8141C33.8836 18.3318 33.4644 18.7516 32.9474 18.7516C32.4304 18.7516 32.0112 18.3318 32.0112 17.8141C32.0112 15.7464 30.3312 14.0643 28.2663 14.0643C26.2013 14.0643 24.5214 15.7464 24.5214 17.8141V21.564C24.5214 22.0817 24.1022 22.5014 23.5851 22.5014Z" fill="url(#paint3_linear_246_579)"/>
<path d="M28.2663 28.1262C27.7493 28.1262 27.3301 27.7065 27.3301 27.1888V26.2513C27.3301 25.7336 27.7493 25.3138 28.2663 25.3138C28.7833 25.3138 29.2025 25.7336 29.2025 26.2513V27.1888C29.2025 27.7065 28.7833 28.1262 28.2663 28.1262Z" fill="url(#paint4_linear_246_579)"/>
<defs>
<linearGradient id="paint0_linear_246_579" x1="4.08861" y1="30.1444" x2="58.0694" y2="30.1444" gradientUnits="userSpaceOnUse">
<stop stop-color="#1685FF"/>
<stop offset="0.5" stop-color="#8B5CF6"/>
<stop offset="1" stop-color="#D946EF"/>
</linearGradient>
<linearGradient id="paint1_linear_246_579" x1="14.1394" y1="22.5783" x2="41.6912" y2="22.5783" gradientUnits="userSpaceOnUse">
<stop stop-color="#1685FF"/>
<stop offset="0.5" stop-color="#8B5CF6"/>
<stop offset="1" stop-color="#D946EF"/>
</linearGradient>
<linearGradient id="paint2_linear_246_579" x1="22.6489" y1="26.2784" x2="33.8837" y2="26.2784" gradientUnits="userSpaceOnUse">
<stop stop-color="#1685FF"/>
<stop offset="0.5" stop-color="#8B5CF6"/>
<stop offset="1" stop-color="#D946EF"/>
</linearGradient>
<linearGradient id="paint3_linear_246_579" x1="22.6489" y1="17.3702" x2="33.8837" y2="17.3702" gradientUnits="userSpaceOnUse">
<stop stop-color="#1685FF"/>
<stop offset="0.5" stop-color="#8B5CF6"/>
<stop offset="1" stop-color="#D946EF"/>
</linearGradient>
<linearGradient id="paint4_linear_246_579" x1="27.3301" y1="26.7268" x2="29.2025" y2="26.7268" gradientUnits="userSpaceOnUse">
<stop stop-color="#1685FF"/>
<stop offset="0.5" stop-color="#8B5CF6"/>
<stop offset="1" stop-color="#D946EF"/>
</linearGradient>
</defs>
</svg>
