<svg width="30" height="30" viewBox="0 0 30 30" fill="none" xmlns="http://www.w3.org/2000/svg">
<path d="M14.6965 22.1394H8.31077C8.13917 22.1394 8 22.2786 8 22.4502V27.6892C8 27.8608 8.13916 28 8.31077 28H14.6965C14.8681 28 15.0073 27.8608 15.0073 27.6892V22.4502C15.0073 22.2786 14.8671 22.1394 14.6965 22.1394ZM10.7341 22.763H12.2711V23.9841L11.6873 23.5499C11.5774 23.4672 11.4278 23.4672 11.3148 23.5499L10.7309 23.9841L10.732 22.763H10.7341ZM14.3858 27.3814H8.62068V22.763H10.1096V24.6035C10.1096 24.7217 10.1766 24.8285 10.2812 24.8818C10.3858 24.9352 10.5114 24.9247 10.6055 24.8525L11.5001 24.1881L12.3947 24.8525C12.4481 24.8923 12.515 24.9143 12.5799 24.9143C12.628 24.9143 12.6762 24.9038 12.7191 24.8818C12.8237 24.8285 12.8907 24.7207 12.8907 24.6035V22.763H14.3796V27.3814H14.3858ZM14.6965 12.5686H8.31082C8.13923 12.5686 8.00005 12.7078 8.00005 12.8794V18.1184C8.00005 18.29 8.13921 18.4292 8.31082 18.4292H14.6965C14.8681 18.4292 15.0073 18.29 15.0073 18.1184V12.8816C15.0073 12.7079 14.8671 12.5686 14.6965 12.5686ZM10.7341 13.1922H12.2712V14.4133L11.6873 13.9791C11.5775 13.8964 11.4278 13.8964 11.3148 13.9791L10.731 14.4133L10.732 13.1922H10.7341ZM14.3858 17.8106H8.62073V13.1922H10.1096V15.0327C10.1096 15.151 10.1766 15.2577 10.2812 15.3111C10.3859 15.3644 10.5114 15.354 10.6056 15.2818L11.5002 14.6173L12.3948 15.2818C12.4481 15.3215 12.5151 15.3435 12.58 15.3435C12.6281 15.3435 12.6762 15.333 12.7191 15.3111C12.8238 15.2577 12.8907 15.1499 12.8907 15.0327V13.1922H14.3796V17.8106L14.3858 17.8106ZM14.6966 3H8.31088C8.13928 3 8.00011 3.13916 8.00011 3.31077V8.54979C8.00011 8.72139 8.13927 8.86056 8.31088 8.86056H14.6966C14.8682 8.86056 15.0074 8.7214 15.0074 8.54979V3.31077C15.0074 3.14022 14.8672 3 14.6966 3ZM10.7342 3.62151H12.2712V4.84257L11.6874 4.40834C11.5775 4.32568 11.4279 4.32568 11.3149 4.40834L10.731 4.84257L10.7321 3.62151H10.7342ZM14.3859 8.23991H8.62079V3.62151H10.1097V5.46199C10.1097 5.58022 10.1767 5.68694 10.2813 5.74032C10.3859 5.79368 10.5115 5.78322 10.6056 5.71102L11.5002 5.0466L12.3948 5.71102C12.4482 5.75078 12.5152 5.77275 12.58 5.77275C12.6282 5.77275 12.6763 5.76229 12.7192 5.74032C12.8238 5.68695 12.8908 5.57918 12.8908 5.46199V3.62151H14.3797V8.23991H14.3859ZM22.0565 7.04816V23.9556C22.0565 24.7435 21.4162 25.3828 20.6293 25.3828H17.077C16.9054 25.3828 16.7663 25.2436 16.7663 25.072C16.7663 24.9004 16.9054 24.7612 17.077 24.7612H20.6315C21.0762 24.7612 21.4382 24.3992 21.4382 23.9545V7.04816C21.4382 6.60346 21.0762 6.24145 20.6315 6.24145H17.7981L18.2909 6.76147C18.4091 6.88703 18.4039 7.08268 18.2773 7.20092C18.2187 7.25742 18.1402 7.28671 18.0628 7.28671C17.9801 7.28671 17.8964 7.25428 17.8378 7.19045L16.8491 6.14624C16.7308 6.02068 16.7361 5.82502 16.8627 5.70679L17.9069 4.71802C18.0325 4.59978 18.2281 4.60502 18.3463 4.73162C18.4646 4.85718 18.4593 5.05284 18.3327 5.17107L17.8556 5.62099H20.6253C21.4173 5.61994 22.0565 6.26028 22.0565 7.04816Z" fill="url(#paint0_linear_1774_157)"/>
<defs>
<linearGradient id="paint0_linear_1774_157" x1="8.00004" y1="15.5602" x2="22.057" y2="15.5602" gradientUnits="userSpaceOnUse">
<stop stop-color="#1685FF"/>
<stop offset="0.5" stop-color="#8B5CF6"/>
<stop offset="1" stop-color="#D946EF"/>
</linearGradient>
</defs>
</svg>
