<?xml version="1.0" encoding="UTF-8" standalone="no"?><!DOCTYPE svg PUBLIC "-//W3C//DTD SVG 1.1//EN" "http://www.w3.org/Graphics/SVG/1.1/DTD/svg11.dtd"><svg width="100%" height="100%" viewBox="0 0 96 96" version="1.1" xmlns="http://www.w3.org/2000/svg" xmlns:xlink="http://www.w3.org/1999/xlink" xml:space="preserve" xmlns:serif="http://www.serif.com/" style="fill-rule:evenodd;clip-rule:evenodd;stroke-linejoin:round;stroke-miterlimit:2;"><rect id="Artboard1" x="0" y="0" width="95.591" height="95.591" style="fill:none;"/><path d="M26.83,46.182c0,0.891 -0.721,1.613 -1.612,1.613l-11.29,-0c-0.891,-0 -1.612,-0.722 -1.612,-1.613c-0,-0.891 0.721,-1.613 1.612,-1.613l11.29,0c0.891,0 1.612,0.722 1.612,1.613Zm40.317,-14.514l-8.063,0c-0.891,0 -1.613,0.722 -1.613,1.613c-0,0.891 0.722,1.613 1.613,1.613l8.063,-0c0.891,-0 1.613,-0.722 1.613,-1.613c-0,-0.891 -0.722,-1.613 -1.613,-1.613Zm8.064,-6.45l-16.127,-0c-0.891,-0 -1.613,0.721 -1.613,1.612c-0,0.891 0.722,1.613 1.613,1.613l16.127,0c0.891,0 1.612,-0.722 1.612,-1.613c0,-0.891 -0.721,-1.612 -1.612,-1.612Zm-14.514,48.38l-11.289,0c-0.892,0 -1.613,0.722 -1.613,1.613c-0,0.891 0.721,1.613 1.613,1.613l11.289,-0c0.891,-0 1.613,-0.722 1.613,-1.613c-0,-0.891 -0.722,-1.613 -1.613,-1.613Zm33.866,-25.803c-0,25.787 -20.981,46.768 -46.768,46.768c-25.786,-0 -46.767,-20.981 -46.767,-46.768c-0,-25.786 20.981,-46.767 46.767,-46.767c25.787,-0 46.768,20.981 46.768,46.767Zm-45.155,-1.612l41.889,-0c-0.834,-22.728 -19.162,-41.055 -41.889,-41.89l-0,41.89Zm-29.48,35.039l26.255,-33.975l0,-42.954c-23.263,0.851 -41.93,20.033 -41.93,43.502c0,13.417 6.104,25.432 15.676,33.427l-0.001,0Zm71.369,-31.814l-42.712,0l-26.101,33.781c7.136,5.121 15.873,8.148 25.31,8.148c23.469,0 42.648,-18.666 43.502,-41.929l0.001,0Zm-43.502,19.352c0,0.891 0.722,1.613 1.613,1.613l22.578,0c0.891,0 1.612,-0.722 1.612,-1.613c0,-0.891 -0.721,-1.612 -1.612,-1.612l-22.578,-0c-0.891,-0 -1.613,0.721 -1.613,1.612Zm-11.289,-30.641l-22.578,-0c-0.891,-0 -1.612,0.721 -1.612,1.612c-0,0.891 0.721,1.613 1.612,1.613l22.578,0c0.891,0 1.613,-0.722 1.613,-1.613c-0,-0.891 -0.722,-1.612 -1.613,-1.612Zm-0,-6.451l-22.578,-0c-0.891,-0 -1.612,0.722 -1.612,1.613c-0,0.891 0.721,1.612 1.612,1.612l22.578,0c0.891,0 1.613,-0.721 1.613,-1.612c-0,-0.891 -0.722,-1.613 -1.613,-1.613Z" style="fill:url(#_Linear1);fill-rule:nonzero;"/><defs><linearGradient id="_Linear1" x1="0" y1="0" x2="1" y2="0" gradientUnits="userSpaceOnUse" gradientTransform="matrix(93.5369,0,0,79.6202,1.02805,48.0207)"><stop offset="0" style="stop-color:#1685ff;stop-opacity:1"/><stop offset="0.5" style="stop-color:#8b5cf6;stop-opacity:1"/><stop offset="1" style="stop-color:#d946ef;stop-opacity:1"/></linearGradient></defs></svg>