<svg width="70" height="70" viewBox="0 0 70 70" fill="none" xmlns="http://www.w3.org/2000/svg">
<path d="M65.7033 31.1035C65.7033 26.9132 64.1013 22.9258 61.1912 19.8757C58.5119 17.0705 54.9932 15.3287 51.1946 14.9089C50.7749 11.1104 49.033 7.59162 46.2278 4.91234C43.1778 2.0092 39.1903 0.407227 35 0.407227C30.8097 0.407227 26.8222 2.0092 23.7722 4.91933C20.967 7.59861 19.2251 11.1174 18.8054 14.9159C15.0068 15.3357 11.4881 17.0775 8.8088 19.8827C5.89866 22.9258 4.29669 26.9132 4.29669 31.1035C4.29669 38.0641 8.8018 44.2831 15.3426 46.5216V59.6382C15.3426 65.2207 23.9751 69.5929 35 69.5929C46.0179 69.5929 54.6574 65.2207 54.6574 59.6382V46.5286C61.1982 44.2901 65.7033 38.0641 65.7033 31.1035ZM17.5112 38.197C20.7431 41.3939 27.2839 43.5346 35 43.5346C42.7161 43.5346 49.2569 41.3939 52.4888 38.197V46.6686C52.4888 48.5713 50.7329 50.5021 47.6619 51.9642C44.297 53.5731 39.7989 54.4546 34.993 54.4546C30.1871 54.4546 25.696 53.5661 22.3241 51.9642C19.2601 50.5021 17.4972 48.5713 17.4972 46.6686V38.197H17.5112ZM47.6549 38.8756C44.283 40.4845 39.7919 41.373 35 41.373C30.2081 41.373 25.717 40.4845 22.3451 38.8756C19.2741 37.4065 17.5112 35.4827 17.5112 33.5869C17.5112 31.6912 19.2741 29.7674 22.3451 28.2983C25.717 26.6894 30.2081 25.8009 35 25.8009C39.7919 25.8009 44.283 26.6894 47.6549 28.2983C50.7259 29.7674 52.4888 31.6912 52.4888 33.5869C52.4888 35.4827 50.7259 37.4135 47.6549 38.8756ZM47.6619 64.9408C44.297 66.5498 39.7989 67.4312 34.993 67.4312C30.1871 67.4312 25.689 66.5498 22.3241 64.9408C19.2601 63.4788 17.4972 61.548 17.4972 59.6452V51.2856C20.7292 54.4825 27.27 56.6232 34.986 56.6232C42.7021 56.6232 49.2429 54.4825 52.4748 51.2856V59.6452C52.4888 61.548 50.7259 63.4718 47.6619 64.9408ZM54.6504 44.2131V33.5869C54.6504 28.0045 46.0179 23.6323 34.993 23.6323C23.9751 23.6323 15.3356 28.0045 15.3356 33.5869V44.2131C10.04 42.0795 6.45131 36.8818 6.45131 31.1035C6.45131 23.5764 12.3415 17.3783 19.8547 16.9936C20.4074 16.9656 20.8551 16.5249 20.8831 15.9652C21.2748 8.45906 27.4728 2.56884 35 2.56884C42.5272 2.56884 48.7252 8.45906 49.1099 15.9722C49.1379 16.5249 49.5786 16.9726 50.1383 17.0006C57.6515 17.3853 63.5417 23.5834 63.5417 31.1105C63.5347 36.8888 59.946 42.0865 54.6504 44.2131Z" fill="url(#paint0_linear_479_105)"/>
<defs>
<linearGradient id="paint0_linear_479_105" x1="4.29686" y1="35.1667" x2="65.7046" y2="35.1667" gradientUnits="userSpaceOnUse">
<stop stop-color="#1685FF"/>
<stop offset="0.5" stop-color="#8B5CF6"/>
<stop offset="1" stop-color="#D946EF"/>
</linearGradient>
</defs>
</svg>
