<svg width="110" height="110" viewBox="0 0 110 110" fill="none" xmlns="http://www.w3.org/2000/svg">
<g clip-path="url(#clip0_359_1336)">
<path d="M100.833 0H9.16667C4.10667 0 0 4.10667 0 9.16667V78.8333C0 83.8933 4.10667 88 9.16667 88H14.6667C15.675 88 16.5 87.175 16.5 86.1667C16.5 85.1583 15.675 84.3333 14.6667 84.3333H9.16667C6.1417 84.3333 3.66667 81.8583 3.66667 78.8333V18.3339H106.333V78.8333C106.333 81.8583 103.858 84.3333 100.833 84.3333H95.3333C94.325 84.3333 93.5 85.1583 93.5 86.1667C93.5 87.175 94.325 88 95.3333 88H100.833C105.893 88 110 83.8933 110 78.8333V9.16667C110 4.10667 105.893 0 100.833 0ZM3.66725 14.6667V9.16667C3.66725 6.1417 6.14228 3.66667 9.16725 3.66667H100.834C103.859 3.66667 106.334 6.1417 106.334 9.16667V14.6667H3.66725Z" fill="url(#paint0_linear_359_1336)"/>
<path d="M12.8334 9.16712C12.8334 11.61 9.16669 11.61 9.16669 9.16712C9.16669 6.72424 12.8334 6.72424 12.8334 9.16712Z" fill="url(#paint1_linear_359_1336)"/>
<path d="M20.1667 9.16712C20.1667 11.61 16.5 11.61 16.5 9.16712C16.5 6.72424 20.1667 6.72424 20.1667 9.16712Z" fill="url(#paint2_linear_359_1336)"/>
<path d="M27.5 9.16712C27.5 11.61 23.8333 11.61 23.8333 9.16712C23.8333 6.72424 27.5 6.72424 27.5 9.16712Z" fill="url(#paint3_linear_359_1336)"/>
<path d="M80.6672 100.833C80.6672 103.276 77.0005 103.276 77.0005 100.833C77.0005 98.3898 80.6672 98.3898 80.6672 100.833Z" fill="url(#paint4_linear_359_1336)"/>
<path d="M73.3339 100.833C73.3339 103.276 69.6672 103.276 69.6672 100.833C69.6672 98.3898 73.3339 98.3898 73.3339 100.833Z" fill="url(#paint5_linear_359_1336)"/>
<path d="M66.0006 100.833C66.0006 103.276 62.3339 103.276 62.3339 100.833C62.3339 98.3898 66.0006 98.3898 66.0006 100.833Z" fill="url(#paint6_linear_359_1336)"/>
<path d="M82.5011 36.6667H27.5011C23.4495 36.6667 20.1678 39.9484 20.1678 44.0001V102.667C20.1678 106.718 23.4495 110 27.5011 110H82.5011C86.5528 110 89.8345 106.718 89.8345 102.667V44.0001C89.8345 39.9484 86.5528 36.6667 82.5011 36.6667ZM27.5011 40.3334H82.5011C84.5178 40.3334 86.1678 41.9834 86.1678 44.0001V91.6668H23.8345V44.0001C23.8345 41.9834 25.4844 40.3334 27.5011 40.3334ZM86.1678 102.667C86.1678 104.683 84.5178 106.333 82.5011 106.333H27.5011C25.4844 106.333 23.8345 104.683 23.8345 102.667V95.3334H86.1678V102.667Z" fill="url(#paint7_linear_359_1336)"/>
<path d="M31.1678 67.8338C31.1678 68.8421 31.9928 69.6671 33.0011 69.6671H36.3562L53.6816 87.4502C54.0299 87.7985 54.5066 88.0002 55.0016 88.0002C55.4966 88.0002 55.9732 87.7985 56.3216 87.4502L73.647 69.6671H77.0021C78.0104 69.6671 78.8354 68.8421 78.8354 67.8338C78.8354 66.8255 78.0104 66.0005 77.0021 66.0005H76.6904C80.0454 60.4637 79.422 53.0574 74.802 48.235C72.1803 45.5034 68.6971 44 64.9754 44C61.2537 44 57.7704 45.5033 55.1487 48.235C55.0937 48.29 55.057 48.345 55.002 48.3817C54.947 48.3267 54.9104 48.2717 54.8554 48.235C52.2337 45.5034 48.7504 44 45.0287 44C41.307 44 37.8237 45.5033 35.202 48.235C30.582 53.0567 29.9403 60.4635 33.3137 66.0005H33.002C31.9937 66.0005 31.1678 66.8255 31.1678 67.8338ZM55.0005 83.5459L41.4884 69.6677H45.8334C46.5301 69.6677 47.1717 69.2827 47.465 68.6594L49.5001 64.6077L53.3684 72.326C53.6618 72.931 54.2668 73.316 54.9452 73.3344H55.0185C55.6602 73.3344 56.2652 73.0044 56.5952 72.4361L60.6102 65.7444L62.6636 68.8427C63.0119 69.3561 63.5802 69.6677 64.1853 69.6677H68.5302L55.0181 83.5459H55.0005ZM37.8405 65.9271C33.8255 61.7471 33.8255 54.9454 37.8405 50.7653C39.7655 48.767 42.3139 47.667 45.0272 47.667C47.7405 47.667 50.2889 48.767 52.2139 50.7653C52.6722 51.242 53.0939 51.7737 53.4605 52.342C54.1389 53.387 55.8622 53.387 56.5405 52.342C56.9255 51.7554 57.3289 51.2237 57.7872 50.747C59.7122 48.7487 62.2605 47.6487 64.9739 47.6487C67.6872 47.6487 70.2356 48.7487 72.1605 50.747C76.1756 54.927 76.1756 61.7287 72.1605 65.8901L72.0872 65.9634H65.1388L62.0222 61.2884C61.6739 60.7567 61.1239 60.445 60.4455 60.4634C59.8222 60.4634 59.2356 60.8117 58.9238 61.3617L55.1471 67.6684L51.1321 59.6567C50.5087 58.4101 48.4737 58.4101 47.8504 59.6567L44.697 65.9817H37.9137L37.8404 65.9084L37.8405 65.9271Z" fill="url(#paint8_linear_359_1336)"/>
</g>
<defs>
<linearGradient id="paint0_linear_359_1336" x1="0.000300043" y1="44.212" x2="110.002" y2="44.212" gradientUnits="userSpaceOnUse">
<stop stop-color="#1685FF"/>
<stop offset="0.5" stop-color="#8B5CF6"/>
<stop offset="1" stop-color="#D946EF"/>
</linearGradient>
<linearGradient id="paint1_linear_359_1336" x1="9.1667" y1="9.17595" x2="12.8334" y2="9.17595" gradientUnits="userSpaceOnUse">
<stop stop-color="#1685FF"/>
<stop offset="0.5" stop-color="#8B5CF6"/>
<stop offset="1" stop-color="#D946EF"/>
</linearGradient>
<linearGradient id="paint2_linear_359_1336" x1="16.5" y1="9.17595" x2="20.1667" y2="9.17595" gradientUnits="userSpaceOnUse">
<stop stop-color="#1685FF"/>
<stop offset="0.5" stop-color="#8B5CF6"/>
<stop offset="1" stop-color="#D946EF"/>
</linearGradient>
<linearGradient id="paint3_linear_359_1336" x1="23.8333" y1="9.17595" x2="27.5001" y2="9.17595" gradientUnits="userSpaceOnUse">
<stop stop-color="#1685FF"/>
<stop offset="0.5" stop-color="#8B5CF6"/>
<stop offset="1" stop-color="#D946EF"/>
</linearGradient>
<linearGradient id="paint4_linear_359_1336" x1="77.0006" y1="100.841" x2="80.6673" y2="100.841" gradientUnits="userSpaceOnUse">
<stop stop-color="#1685FF"/>
<stop offset="0.5" stop-color="#8B5CF6"/>
<stop offset="1" stop-color="#D946EF"/>
</linearGradient>
<linearGradient id="paint5_linear_359_1336" x1="69.6672" y1="100.841" x2="73.334" y2="100.841" gradientUnits="userSpaceOnUse">
<stop stop-color="#1685FF"/>
<stop offset="0.5" stop-color="#8B5CF6"/>
<stop offset="1" stop-color="#D946EF"/>
</linearGradient>
<linearGradient id="paint6_linear_359_1336" x1="62.3339" y1="100.841" x2="66.0007" y2="100.841" gradientUnits="userSpaceOnUse">
<stop stop-color="#1685FF"/>
<stop offset="0.5" stop-color="#8B5CF6"/>
<stop offset="1" stop-color="#D946EF"/>
</linearGradient>
<linearGradient id="paint7_linear_359_1336" x1="20.168" y1="73.5101" x2="89.8359" y2="73.5101" gradientUnits="userSpaceOnUse">
<stop stop-color="#1685FF"/>
<stop offset="0.5" stop-color="#8B5CF6"/>
<stop offset="1" stop-color="#D946EF"/>
</linearGradient>
<linearGradient id="paint8_linear_359_1336" x1="31.1679" y1="66.1061" x2="78.8364" y2="66.1061" gradientUnits="userSpaceOnUse">
<stop stop-color="#1685FF"/>
<stop offset="0.5" stop-color="#8B5CF6"/>
<stop offset="1" stop-color="#D946EF"/>
</linearGradient>
<clipPath id="clip0_359_1336">
<rect width="110" height="110" fill="white"/>
</clipPath>
</defs>
</svg>
