<?xml version="1.0" encoding="UTF-8" standalone="no"?><!DOCTYPE svg PUBLIC "-//W3C//DTD SVG 1.1//EN" "http://www.w3.org/Graphics/SVG/1.1/DTD/svg11.dtd"><svg width="100%" height="100%" viewBox="0 0 200 200" version="1.1" xmlns="http://www.w3.org/2000/svg" xmlns:xlink="http://www.w3.org/1999/xlink" xml:space="preserve" xmlns:serif="http://www.serif.com/" style="fill-rule:evenodd;clip-rule:evenodd;stroke-linejoin:round;stroke-miterlimit:2;"><g id="Layer12"><path d="M149.781,66.919c1.987,-2.039 4.716,-3.191 7.563,-3.191c5.792,0 10.559,4.767 10.559,10.56c0,5.793 -4.767,10.559 -10.559,10.559c-5.746,0 -10.491,-4.689 -10.559,-10.434c-0.037,-2.796 1.042,-5.494 2.996,-7.494Zm7.476,0.974c-3.486,0.039 -6.333,2.918 -6.333,6.404c0,3.514 2.891,6.405 6.405,6.405c3.514,0 6.405,-2.891 6.405,-6.405c0,-1.723 -0.696,-3.376 -1.929,-4.581c-1.212,-1.189 -2.85,-1.846 -4.548,-1.823Zm6.381,-8.941c-0.5,-0.202 -1.013,-0.387 -1.513,-0.541c-0.79,-0.179 -1.407,-0.805 -1.574,-1.598l-0.707,-3.275l-5.208,0.065l-0.585,3.093c-0.112,0.808 -0.689,1.48 -1.471,1.713c-0.553,0.167 -1.098,0.362 -1.632,0.584c-0.514,0.214 -0.999,0.445 -1.457,0.69c-0.682,0.425 -1.552,0.419 -2.228,-0.016l-2.824,-1.823l-3.646,3.729l1.809,2.658c0.458,0.644 0.511,1.496 0.136,2.191c-0.277,0.509 -0.525,1.033 -0.745,1.568c-0.203,0.499 -0.385,1.013 -0.539,1.513c-0.182,0.79 -0.808,1.405 -1.601,1.572l-3.275,0.707l0.065,5.208l3.093,0.587c0.81,0.11 1.483,0.687 1.716,1.471c0.165,0.55 0.36,1.091 0.583,1.62c0.203,0.513 0.444,0.999 0.689,1.457c0.425,0.682 0.419,1.552 -0.016,2.228l-1.823,2.826l3.727,3.646l2.657,-1.809c0.645,-0.457 1.496,-0.509 2.192,-0.136c0.992,0.54 2.038,0.974 3.121,1.294c0.771,0.195 1.367,0.813 1.534,1.59l0.705,3.276l5.207,-0.065l0.588,-3.093c0.111,-0.809 0.687,-1.482 1.47,-1.716c0.554,-0.165 1.098,-0.359 1.631,-0.581c0.513,-0.215 0.998,-0.445 1.456,-0.691c0.682,-0.425 1.553,-0.419 2.228,0.016l2.826,1.823l3.646,-3.729l-1.809,-2.655c-0.453,-0.647 -0.501,-1.498 -0.123,-2.192c0.282,-0.525 0.53,-1.047 0.745,-1.566c0.215,-0.518 0.397,-1.036 0.547,-1.553c0.193,-0.772 0.812,-1.369 1.59,-1.534l3.276,-0.707l-0.082,-5.211l-3.093,-0.588c-0.809,-0.111 -1.481,-0.688 -1.713,-1.47c-0.168,-0.55 -0.362,-1.091 -0.584,-1.621c-0.214,-0.512 -0.443,-0.998 -0.69,-1.456c-0.425,-0.683 -0.419,-1.552 0.016,-2.228l1.823,-2.826l-3.729,-3.636l-2.656,1.809c-0.644,0.456 -1.495,0.509 -2.191,0.136c-0.509,-0.276 -1.033,-0.525 -1.568,-0.746l0.006,-0.008Zm0.737,-4.175l-0.81,-3.771c-0.205,-0.966 -1.071,-1.659 -2.058,-1.647l-8.507,0.105c-1.029,-0.041 -1.941,0.686 -2.129,1.698l-0.697,3.66c-0.274,0.101 -0.545,0.202 -0.81,0.322c-0.266,0.119 -0.555,0.239 -0.835,0.371l-3.241,-2.097c-0.83,-0.532 -1.929,-0.406 -2.617,0.3l-5.975,6.111c-0.739,0.7 -0.86,1.844 -0.286,2.684l2.101,3.087c-0.122,0.263 -0.237,0.533 -0.351,0.81c-0.113,0.278 -0.223,0.559 -0.326,0.843l-3.772,0.81c-0.966,0.204 -1.66,1.07 -1.648,2.058l0.105,8.508c-0.041,1.028 0.686,1.94 1.697,2.13l3.663,0.695c0.101,0.274 0.202,0.547 0.322,0.81c0.119,0.264 0.239,0.556 0.37,0.835l-2.098,3.251c-0.532,0.83 -0.406,1.929 0.3,2.617l6.109,5.957c0.7,0.739 1.844,0.86 2.684,0.286l3.081,-2.088c0.263,0.121 0.533,0.239 0.81,0.352c0.279,0.116 0.561,0.223 0.844,0.326l0.811,3.77c0.205,0.966 1.072,1.659 2.06,1.647l8.507,-0.106c1.029,0.042 1.942,-0.685 2.131,-1.697l0.695,-3.662c0.273,-0.1 0.547,-0.203 0.81,-0.32c0.263,-0.118 0.555,-0.239 0.835,-0.373l3.251,2.098c0.829,0.532 1.929,0.406 2.617,-0.299l5.957,-6.108c0.738,-0.7 0.861,-1.844 0.288,-2.686l-2.103,-3.084c0.122,-0.266 0.239,-0.535 0.352,-0.811c0.114,-0.275 0.225,-0.561 0.327,-0.842l3.769,-0.811c0.967,-0.204 1.661,-1.07 1.649,-2.058l-0.107,-8.507c0.041,-1.029 -0.686,-1.941 -1.698,-2.131l-3.65,-0.705c-0.101,-0.273 -0.202,-0.547 -0.322,-0.81c-0.119,-0.263 -0.239,-0.555 -0.371,-0.833l2.097,-3.253c0.532,-0.83 0.405,-1.93 -0.302,-2.617l-6.105,-5.963c-0.702,-0.742 -1.852,-0.864 -2.694,-0.286l-3.085,2.101c-0.27,-0.122 -0.54,-0.239 -0.81,-0.353c-0.278,-0.113 -0.559,-0.222 -0.845,-0.324l0.01,0Zm-55.578,49.799c0.502,-0.461 0.791,-1.111 0.798,-1.792c0,-1.283 0,-1.688 -0.01,-2.077c-0.075,-5.236 -0.127,-8.965 4.086,-13.934c0.437,-0.518 0.849,-1.058 1.235,-1.62l0.027,-0.039c0.93,-1.347 1.69,-2.804 2.262,-4.338c3.7,-10.168 -1.56,-21.585 -11.693,-25.379c-5.852,-2.162 -12.286,-2.168 -18.141,-0.018c-7.835,2.703 -13.024,10.252 -12.741,18.534c-0.005,2.294 0.401,4.571 1.197,6.723c0.589,1.569 1.375,3.057 2.339,4.428l0.031,0.04c0.364,0.523 0.754,1.028 1.168,1.515c4.086,4.819 4.029,8.952 3.956,14.143c0,0.369 -0.01,0.735 -0.01,2.016c0.007,0.682 0.297,1.331 0.8,1.792c0.566,0.525 1.311,0.815 2.083,0.81l20.533,0c0.772,0.005 1.518,-0.285 2.084,-0.81l-0.004,0.006Zm-22.117,4.981c-0.003,0.043 -0.003,0.085 0,0.128l0,2.218c-0.003,0.042 -0.003,0.085 0,0.127l19.648,0c0.003,-0.042 0.003,-0.085 0,-0.127l0,-2.218c0.004,-0.043 0.004,-0.085 0,-0.128l-19.648,0Zm4.126,6.648c0.307,0.587 0.723,1.11 1.226,1.542c2.595,2.123 6.361,2.123 8.957,0c0.498,-0.433 0.91,-0.956 1.215,-1.542l-11.398,0Zm-28.293,-36.177c-0.035,1.121 -0.967,2.024 -2.088,2.024c-1.121,0 -2.052,-0.903 -2.087,-2.024l0,-28.716l-4.529,0c-1.146,-0.001 -2.088,-0.943 -2.088,-2.089c0,-0.459 0.152,-0.905 0.431,-1.27l13.192,-18.388c0.667,-0.93 1.98,-1.147 2.911,-0.482c0.198,0.142 0.37,0.318 0.509,0.518l13.206,18.407c0.253,0.354 0.389,0.778 0.389,1.213c0,1.144 -0.94,2.086 -2.084,2.089l-4.529,0l0,3.255c0.001,0.021 0.001,0.043 0.001,0.065c0,1.145 -0.943,2.088 -2.089,2.088c-1.145,0 -2.088,-0.943 -2.088,-2.088c0,-0.022 0,-0.044 0.001,-0.065l0,-5.342c0,-1.144 0.942,-2.086 2.086,-2.086l2.551,0l-9.166,-12.784l-9.168,12.778l2.55,0c1.145,0 2.088,0.941 2.089,2.086l0,30.811Zm-15.259,44.073l-7.697,-4.456l7.596,-13.167l46.515,26.874l-7.596,13.166l-38.516,-22.249c-0.096,-0.064 -0.197,-0.121 -0.302,-0.168Zm1.215,36.229l45.947,26.536l0,-46.506l-5.789,10.025c-0.37,0.645 -1.059,1.044 -1.802,1.044c-0.363,0 -0.72,-0.096 -1.034,-0.276l-37.316,-21.545l0,30.722l-0.006,0Zm96.068,0l0,-30.722l-37.306,21.545c-0.317,0.183 -0.677,0.28 -1.043,0.28c-0.742,0 -1.431,-0.397 -1.802,-1.04l-5.79,-10.025l0,46.489l45.947,-26.535l-0.006,0.008Zm-68.625,-71.322c0.085,0.103 0.17,0.202 0.257,0.308c3.085,3.646 3.039,7.089 2.978,11.404c-0.012,0.952 -0.027,1.942 -0.027,2.064c0.008,1.832 0.777,3.58 2.121,4.825c0.416,0.391 0.878,0.731 1.376,1.012c-0.08,0.348 -0.121,0.705 -0.12,1.062l0,2.218c-0.004,1.04 0.343,2.051 0.987,2.868c0.686,0.895 1.748,1.425 2.876,1.434l0.03,0c0.457,1.828 1.474,3.468 2.907,4.691c4.159,3.486 10.278,3.486 14.436,0c1.432,-1.222 2.447,-2.862 2.901,-4.689l0.03,0c1.129,-0.009 2.192,-0.539 2.879,-1.434c0.642,-0.817 0.99,-1.829 0.986,-2.868l0,-2.218c0,-0.38 -0.046,-0.758 -0.138,-1.126c0.457,-0.268 0.881,-0.587 1.266,-0.95c1.345,-1.245 2.113,-2.994 2.121,-4.825c0,-0.183 -0.014,-1.173 -0.028,-2.127c-0.063,-4.325 -0.106,-7.404 3.107,-11.194c0.113,-0.133 0.227,-0.271 0.338,-0.405l25.278,14.584l-45.963,26.542l-45.958,-26.535l25.36,-14.643l0,0.002Zm72.807,38.186l8.625,-4.979c0.988,-0.568 1.333,-1.848 0.766,-2.836l-9.666,-16.749c-0.081,-0.146 -0.179,-0.283 -0.292,-0.405l-0.101,-0.102c-0.123,-0.114 -0.259,-0.212 -0.405,-0.293l-28.111,-16.229c0.606,-1.08 1.127,-2.206 1.558,-3.367c0.974,-2.615 1.474,-5.383 1.474,-8.173c0.309,-10.099 -6.04,-19.282 -15.597,-22.561c-6.799,-2.51 -14.275,-2.517 -21.078,-0.018c-9.483,3.27 -15.768,12.405 -15.433,22.431c0,2.791 0.5,5.559 1.475,8.173c0.445,1.201 0.987,2.364 1.62,3.478l-28.188,16.27c-0.147,0.08 -0.283,0.179 -0.405,0.293c-0.036,0.033 -0.069,0.067 -0.103,0.102c-0.113,0.123 -0.211,0.259 -0.292,0.405l-9.664,16.739c-0.567,0.988 -0.222,2.268 0.766,2.836l8.625,4.979l0,34.338c-0.001,0.743 0.398,1.432 1.043,1.802l49.965,28.839c0.722,0.512 1.694,0.512 2.416,0l49.781,-28.741c0.74,-0.341 1.216,-1.085 1.215,-1.9l0,-34.332l0.006,0Zm-3.257,-2.925l-38.512,22.237l-7.596,-13.166l46.515,-26.845l7.596,13.166l-7.697,4.456c-0.104,0.048 -0.205,0.105 -0.302,0.168l-0.004,-0.016Zm-53.475,-83.341l0,-10.148c-0.001,-1.145 -0.943,-2.087 -2.088,-2.088l-2.557,0l9.166,-12.771l9.168,12.777l-2.55,0c-1.14,0.005 -2.076,0.942 -2.081,2.082l0,10.199c0,1.146 0.943,2.088 2.089,2.088c1.145,0 2.088,-0.942 2.088,-2.088l0,-8.102l4.527,0c1.145,-0.002 2.086,-0.944 2.086,-2.089c0,-0.435 -0.136,-0.859 -0.388,-1.213l-13.207,-18.406c-0.137,-0.202 -0.31,-0.378 -0.508,-0.519c-0.931,-0.666 -2.244,-0.45 -2.911,0.48l-13.201,18.378c-0.279,0.365 -0.431,0.811 -0.431,1.27c0,1.146 0.943,2.088 2.088,2.089l4.529,0l0,8.061c-0.001,0.022 -0.001,0.044 -0.001,0.065c0,1.146 0.943,2.089 2.089,2.089c1.145,0 2.088,-0.943 2.088,-2.089c0,-0.021 0,-0.043 -0.001,-0.065l0.006,0Zm-58.944,57.543l0,-30.803c0,-1.143 -0.939,-2.085 -2.083,-2.088l-2.554,0l9.168,-12.778l9.168,12.778l-2.553,0c-1.144,0 -2.086,0.942 -2.086,2.086c0,0.001 0,0.001 0,0.002l0,13.786c0.035,1.121 0.966,2.024 2.087,2.024c1.121,0 2.053,-0.903 2.088,-2.024l0,-11.699l4.533,0c1.144,-0.003 2.084,-0.945 2.084,-2.089c0,-0.435 -0.136,-0.859 -0.389,-1.213l-13.206,-18.407c-0.138,-0.201 -0.31,-0.377 -0.509,-0.518c-0.93,-0.666 -2.243,-0.449 -2.911,0.48l-13.192,18.388c-0.279,0.365 -0.431,0.811 -0.431,1.27c0,1.145 0.942,2.088 2.088,2.089l4.529,0l0,28.716c-0.001,0.022 -0.001,0.044 -0.001,0.065c0,1.146 0.943,2.089 2.088,2.089c1.146,0 2.089,-0.943 2.089,-2.089c0,-0.021 -0.001,-0.043 -0.001,-0.065l-0.006,0Z" style="fill:url(#_Linear1);"/></g><defs><linearGradient id="_Linear1" x1="0" y1="0" x2="1" y2="0" gradientUnits="userSpaceOnUse" gradientTransform="matrix(83.4509,169.302,-169.302,83.4509,31.9829,15.0237)"><stop offset="0" style="stop-color:#4d7aff;stop-opacity:1"/><stop offset="1" style="stop-color:#d748f0;stop-opacity:1"/></linearGradient></defs></svg>