<?xml version="1.0" encoding="UTF-8" standalone="no"?><!DOCTYPE svg PUBLIC "-//W3C//DTD SVG 1.1//EN" "http://www.w3.org/Graphics/SVG/1.1/DTD/svg11.dtd"><svg width="100%" height="100%" viewBox="0 0 91 90" version="1.1" xmlns="http://www.w3.org/2000/svg" xmlns:xlink="http://www.w3.org/1999/xlink" xml:space="preserve" xmlns:serif="http://www.serif.com/" style="fill-rule:evenodd;clip-rule:evenodd;stroke-linejoin:round;stroke-miterlimit:2;"><path d="M11.15,86.598l-0,-10.12l-8.75,-5.053l0,10.117c2.92,1.686 5.838,3.371 8.754,5.056l-0.004,-0Zm1.2,-12.183l-8.767,-5.059l8.764,-5.057l8.762,5.056l-8.764,5.06l0.005,-0Zm9.95,-2.983l-8.754,5.054l-0,10.112l8.754,-5.056l-0,-10.11Zm-11.15,-46.561l-0,-10.12l-8.75,-5.054l-0,10.117l8.754,5.057l-0.004,-0Zm1.2,-12.184l-8.767,-5.055l8.764,-5.06l8.762,5.06l-8.764,5.06l0.005,-0.005Zm9.95,-2.987l-8.754,5.054l-0,10.117l8.754,-5.057l-0,-10.114Zm54.156,76.9l0,-10.122l-8.756,-5.053l0,10.117c2.92,1.686 5.838,3.371 8.754,5.056l0.002,0.002Zm1.2,-12.183l-8.761,-5.059l8.764,-5.057l8.761,5.056l-8.764,5.06Zm9.944,-2.985l-8.75,5.049l-0,10.117l8.75,-5.056l-0,-10.11Zm-11.145,-46.561l-0,-10.12l-8.755,-5.054l-0,10.117l8.754,5.057l0.001,-0Zm1.2,-12.184l-8.766,-5.055l8.764,-5.06l8.761,5.06l-8.764,5.06l0.005,-0.005Zm9.945,-2.987l-8.75,5.054l-0,10.117l8.75,-5.057l-0,-10.114Zm-35.2,32.112l-14.8,-0l-0,12.995l14.8,-0l-0,-12.995Zm-4.027,-2.4l-0,-2.04c-0.005,-1.271 -1.049,-2.315 -2.32,-2.32l-2.109,-0c-1.271,0.005 -2.315,1.049 -2.32,2.32l-0,2.045l6.749,-0.005Zm-9.147,-0l-0,-2.04c0.005,-2.585 2.13,-4.71 4.715,-4.716l2.112,-0c2.585,0.006 4.71,2.131 4.715,4.716l-0,2.045l2.832,-0c0.658,-0 1.2,0.542 1.2,1.2l-0,15.387c-0,0.658 -0.542,1.2 -1.2,1.2l-17.2,-0c-0.658,-0 -1.2,-0.542 -1.2,-1.2l-0,-15.389c-0,-0.658 0.542,-1.2 1.2,-1.2l2.826,-0.003Zm4.574,5.28c0,-0.658 0.542,-1.2 1.2,-1.2c0.658,-0 1.2,0.542 1.2,1.2l-0,2.126c-0,0.658 -0.542,1.2 -1.2,1.2c-0.658,-0 -1.2,-0.542 -1.2,-1.2l-0,-2.126Zm36.648,-2.56c-0.741,-0.741 -1.747,-1.158 -2.795,-1.158c-2.168,0 -3.953,1.785 -3.953,3.953c0,2.169 1.785,3.953 3.953,3.953c1.048,0 2.054,-0.416 2.795,-1.157c1.531,-1.535 1.531,-4.056 -0,-5.591Zm-32.648,38.245c0.741,-0.741 1.158,-1.747 1.158,-2.795c-0,-2.169 -1.784,-3.953 -3.953,-3.953c-2.169,-0 -3.953,1.784 -3.953,3.953c-0,1.048 0.417,2.054 1.158,2.795c1.534,1.531 4.056,1.531 5.59,-0Zm-32.657,-38.245c-0.741,-0.741 -1.747,-1.158 -2.795,-1.158c-2.168,0 -3.953,1.785 -3.953,3.953c0,2.169 1.785,3.953 3.953,3.953c1.048,0 2.054,-0.416 2.795,-1.157c1.531,-1.535 1.531,-4.056 -0,-5.591Zm32.657,-27.06c0.741,-0.741 1.158,-1.747 1.158,-2.795c-0,-2.169 -1.784,-3.953 -3.953,-3.953c-2.169,-0 -3.953,1.784 -3.953,3.953c-0,1.048 0.417,2.054 1.158,2.795c1.534,1.531 4.056,1.531 5.59,-0Zm-9.031,-3.993c0.574,-2.977 3.204,-5.148 6.236,-5.148c3.032,0 5.662,2.171 6.236,5.148l14.07,-0l0,-3.447c0,-0.468 0.275,-0.895 0.7,-1.09c3.685,-2.127 7.368,-4.254 11.048,-6.381c0.374,-0.217 0.839,-0.214 1.21,0.008c3.69,2.133 7.38,4.264 11.069,6.393c0.406,0.201 0.663,0.617 0.662,1.07l-0,12.874c-0.001,0.458 -0.263,0.877 -0.675,1.077l-10.475,6.042l-0,11.069c2.978,0.573 5.15,3.203 5.15,6.235c-0,3.033 -2.172,5.663 -5.15,6.236l-0,11.067l10.483,6.055c0.408,0.199 0.667,0.615 0.667,1.069l-0,12.876c-0,0.458 -0.263,0.878 -0.675,1.078l-10.979,6.333c-0.413,0.298 -0.974,0.298 -1.387,-0l-11.054,-6.379c-0.369,-0.213 -0.598,-0.608 -0.6,-1.034l-0,-3.45l-14.069,-0c-0.574,2.977 -3.204,5.148 -6.236,5.148c-3.032,-0 -5.662,-2.171 -6.236,-5.148l-14.07,-0l-0,3.452c-0,0.458 -0.263,0.878 -0.675,1.078l-10.978,6.333c-0.413,0.298 -0.974,0.298 -1.387,-0l-11.054,-6.379c-0.37,-0.212 -0.599,-0.606 -0.6,-1.032l-0,-12.876c0,-0.468 0.275,-0.895 0.7,-1.09l10.45,-6.034l-0,-11.067c-2.978,-0.573 -5.15,-3.203 -5.15,-6.236c0,-3.032 2.172,-5.662 5.15,-6.235l-0,-11.069l-10.55,-6.088c-0.37,-0.212 -0.6,-0.607 -0.6,-1.034l-0,-12.871c0,-0.468 0.275,-0.895 0.7,-1.09c3.685,-2.127 7.368,-4.254 11.048,-6.381c0.374,-0.217 0.839,-0.214 1.21,0.008c3.69,2.133 7.38,4.264 11.069,6.393c0.406,0.2 0.664,0.617 0.663,1.07l-0,3.45l14.079,-0.003Zm12.472,2.4c-0.574,2.977 -3.204,5.148 -6.236,5.148c-3.032,-0 -5.662,-2.171 -6.236,-5.148l-14.075,-0l-0,7.028c-0.001,0.458 -0.263,0.877 -0.675,1.077l-10.474,6.041l-0,11.069c2.978,0.573 5.15,3.203 5.15,6.235c-0,3.033 -2.172,5.663 -5.15,6.236l-0,11.067l10.483,6.055c0.406,0.201 0.664,0.617 0.663,1.07l-0,7.028l14.07,-0c0.574,-2.977 3.204,-5.148 6.236,-5.148c3.032,0 5.662,2.171 6.236,5.148l14.07,-0l-0,-7.029c0,-0.468 0.275,-0.895 0.7,-1.09l10.452,-6.034l-0,-11.067c-2.978,-0.573 -5.15,-3.203 -5.15,-6.236c0,-3.032 2.172,-5.662 5.15,-6.235l-0,-11.069l-10.55,-6.088c-0.369,-0.213 -0.598,-0.608 -0.6,-1.034l-0,-7.028l-14.064,0.004Zm6.129,19.089c3.278,3.278 5.122,7.729 5.122,12.365c-0,9.593 -7.894,17.487 -17.487,17.487c-9.593,0 -17.487,-7.894 -17.487,-17.487c-0,-4.636 1.844,-9.087 5.122,-12.365c6.784,-6.783 17.946,-6.783 24.73,-0Zm-12.37,-7.521c10.907,-0 19.883,8.975 19.883,19.883c-0,10.907 -8.976,19.883 -19.883,19.883c-10.907,-0 -19.882,-8.974 -19.883,-19.881c-0,-0.001 -0,-0.001 -0,-0.002c-0,-10.908 8.976,-19.883 19.883,-19.883Z" style="fill:url(#_Linear1);"/><defs><linearGradient id="_Linear1" x1="0" y1="0" x2="1" y2="0" gradientUnits="userSpaceOnUse" gradientTransform="matrix(90.0004,0,0,87.356,-0.000101522,45.1498)"><stop offset="0" style="stop-color:#1685ff;stop-opacity:1"/><stop offset="0.5" style="stop-color:#8b5cf6;stop-opacity:1"/><stop offset="1" style="stop-color:#d946ef;stop-opacity:1"/></linearGradient></defs></svg>