<svg width="100" height="100" viewBox="0 0 100 100" fill="none" xmlns="http://www.w3.org/2000/svg">
<g clip-path="url(#clip0_479_46)">
<path fill-rule="evenodd" clip-rule="evenodd" d="M55.1368 90.299C54.7858 90.299 54.4493 90.1596 54.2012 89.9115C53.953 89.6634 53.8136 89.3268 53.8136 88.9759V84.5285H47.0425V88.9759C47.0425 89.3268 46.9031 89.6634 46.6549 89.9115C46.4068 90.1596 46.0703 90.299 45.7194 90.299H42.3838L49.9666 96.9701L57.5606 90.299H55.1368ZM40.7383 61.1129C40.3899 61.0737 40.0709 60.8989 39.8503 60.6264C39.6298 60.3538 39.5254 60.0054 39.5597 59.6564C39.65 59.355 39.8414 59.0938 40.1018 58.9171C40.3622 58.7404 40.6756 58.6589 40.989 58.6863C41.3025 58.7137 41.597 58.8484 41.8227 59.0677C42.0484 59.287 42.1916 59.5773 42.2282 59.8899C42.2129 60.0689 42.162 60.2431 42.0784 60.4021C41.9948 60.5611 41.8801 60.7018 41.7413 60.8158C41.6024 60.9298 41.4421 61.0148 41.2698 61.0658C41.0976 61.1169 40.9168 61.1329 40.7383 61.1129ZM36.1797 61.1129C35.8293 61.0764 35.5075 60.9028 35.2846 60.6299C35.0617 60.357 34.9558 60.0071 34.99 59.6564C35.01 59.3835 35.1115 59.1229 35.2812 58.9082C35.451 58.6936 35.6812 58.5348 35.9422 58.4524C36.2031 58.37 36.4828 58.3678 36.745 58.446C37.0073 58.5243 37.24 58.6794 37.4131 58.8914C37.5862 59.1033 37.6917 59.3623 37.7161 59.6349C37.7404 59.9075 37.6824 60.1811 37.5496 60.4203C37.4168 60.6596 37.2152 60.8535 36.971 60.977C36.7268 61.1004 36.4511 61.1478 36.1797 61.1129ZM31.61 61.1129C31.2616 61.0737 30.9426 60.8989 30.722 60.6264C30.5015 60.3538 30.3971 60.0054 30.4314 59.6564C30.4927 59.3173 30.6797 59.0139 30.9551 58.8067C31.2304 58.5996 31.5738 58.504 31.9166 58.5391C32.2594 58.5743 32.5763 58.7375 32.8039 58.9962C33.0315 59.2548 33.1531 59.5899 33.1443 59.9344C33.1239 60.1138 33.0676 60.2872 32.9788 60.4443C32.8899 60.6015 32.7703 60.7392 32.6272 60.8491C32.484 60.9591 32.3201 61.0391 32.1454 61.0845C31.9706 61.1298 31.7886 61.1395 31.61 61.1129ZM40.7383 51.6289C40.3899 51.5896 40.0709 51.4148 39.8503 51.1423C39.6298 50.8697 39.5254 50.5213 39.5597 50.1723C39.621 49.8332 39.808 49.5298 40.0834 49.3226C40.3587 49.1155 40.7021 49.0199 41.0449 49.0551C41.3877 49.0902 41.7046 49.2534 41.9322 49.5121C42.1598 49.7708 42.2814 50.1058 42.2726 50.4503C42.2522 50.6297 42.1959 50.8031 42.1071 50.9602C42.0182 51.1174 41.8986 51.2551 41.7555 51.365C41.6123 51.475 41.4484 51.555 41.2737 51.6004C41.0989 51.6457 40.9169 51.6554 40.7383 51.6289ZM36.1797 51.6289C35.8293 51.5923 35.5075 51.4187 35.2846 51.1458C35.0617 50.873 34.9558 50.523 34.99 50.1723C35.01 49.8994 35.1115 49.6388 35.2812 49.4241C35.451 49.2095 35.6812 49.0507 35.9422 48.9683C36.2031 48.8859 36.4828 48.8837 36.745 48.962C37.0073 49.0402 37.24 49.1954 37.4131 49.4073C37.5862 49.6192 37.6917 49.8782 37.7161 50.1508C37.7404 50.4234 37.6824 50.697 37.5496 50.9362C37.4168 51.1755 37.2152 51.3694 36.971 51.4929C36.7268 51.6163 36.4511 51.6637 36.1797 51.6289ZM31.61 51.6289C31.2616 51.5896 30.9426 51.4148 30.722 51.1423C30.5015 50.8697 30.3971 50.5213 30.4314 50.1723C30.4927 49.8332 30.6797 49.5298 30.9551 49.3226C31.2304 49.1155 31.5738 49.0199 31.9166 49.0551C32.2594 49.0902 32.5763 49.2534 32.8039 49.5121C33.0315 49.7708 33.1531 50.1058 33.1443 50.4503C33.1239 50.6297 33.0676 50.8031 32.9788 50.9602C32.8899 51.1174 32.7703 51.2551 32.6272 51.365C32.484 51.475 32.3201 51.555 32.1454 51.6004C31.9706 51.6457 31.7886 51.6554 31.61 51.6289ZM40.7383 42.2115C40.4772 42.1792 40.2314 42.0705 40.0319 41.8989C39.8324 41.7273 39.6881 41.5006 39.6172 41.2473C39.5462 40.9939 39.5517 40.7252 39.633 40.475C39.7143 40.2248 39.8678 40.0042 40.0742 39.8409C40.2805 39.6777 40.5305 39.5791 40.7927 39.5576C41.055 39.536 41.3177 39.5925 41.5479 39.7199C41.7781 39.8473 41.9655 40.0399 42.0866 40.2736C42.2076 40.5072 42.2569 40.7714 42.2282 41.0329C42.2103 41.2092 42.1573 41.3801 42.0722 41.5355C41.987 41.6909 41.8716 41.8276 41.7326 41.9375C41.5937 42.0474 41.4341 42.1283 41.2633 42.1754C41.0924 42.2224 40.9139 42.2347 40.7383 42.2115ZM36.1797 42.2115C35.9245 42.1712 35.6867 42.0571 35.4956 41.8832C35.3046 41.7094 35.1686 41.4834 35.1044 41.2331C35.0403 40.9829 35.0508 40.7193 35.1346 40.475C35.2185 40.2306 35.3721 40.0162 35.5764 39.8581C35.7807 39.7 36.0269 39.6052 36.2844 39.5854C36.542 39.5655 36.7997 39.6215 37.0259 39.7464C37.252 39.8714 37.4366 40.0597 37.5569 40.2884C37.6772 40.517 37.728 40.7758 37.7029 41.0329C37.6839 41.2118 37.6289 41.385 37.5412 41.5421C37.4535 41.6992 37.3349 41.8369 37.1927 41.947C37.0504 42.0571 36.8873 42.1373 36.7132 42.1828C36.5391 42.2282 36.3576 42.238 36.1797 42.2115ZM31.61 42.2115C31.3522 42.1709 31.112 42.0556 30.919 41.8799C30.7261 41.7042 30.5889 41.4757 30.5245 41.2228C30.4601 40.97 30.4712 40.7037 30.5566 40.4571C30.6419 40.2105 30.7977 39.9943 31.0047 39.8354C31.2116 39.6764 31.4607 39.5816 31.721 39.5627C31.9812 39.5439 32.2413 39.6018 32.4691 39.7292C32.6968 39.8567 32.8821 40.0481 33.0022 40.2798C33.1222 40.5115 33.1716 40.7734 33.1443 41.0329C33.127 41.2135 33.0727 41.3887 32.9847 41.5474C32.8968 41.7061 32.7772 41.8451 32.6333 41.9556C32.4894 42.0662 32.3243 42.1459 32.1482 42.1899C31.9722 42.2339 31.789 42.2413 31.61 42.2115ZM28.5858 53.7858H53.4467L60.1178 51.1063C60.3346 51.0075 60.5741 50.9692 60.8108 50.9952C61.0476 51.0212 61.273 51.1107 61.4632 51.2542C61.6533 51.3976 61.8012 51.5898 61.8912 51.8103C61.9813 52.0309 62.0101 52.2717 61.9746 52.5072L61.7967 53.7858H71.4476V46.9591H28.5858V53.7858ZM46.8423 56.4432H28.5858V62.714L29.1973 63.0587H45.7527L47.7874 60.4903L45.9084 59.0115C45.7048 58.8745 45.5433 58.6836 45.442 58.4601C45.3407 58.2366 45.3036 57.9893 45.3347 57.7459C45.3658 57.5025 45.4641 57.2726 45.6184 57.0818C45.7727 56.891 45.9771 56.7469 46.2086 56.6655L46.8423 56.4098V56.4432ZM59.0171 54.4418L49.3329 58.3333L50.5337 59.2784C50.8019 59.4962 50.9734 59.811 51.0108 60.1545C51.0483 60.498 50.9488 60.8424 50.7338 61.1129L41.7056 72.3426C41.5574 72.5773 41.3391 72.7593 41.0817 72.8631C40.8243 72.9668 40.5408 72.987 40.2713 72.9208C39.3739 72.7534 38.4464 72.8781 37.6251 73.2766C37.4075 73.3821 37.1653 73.4264 36.9244 73.4049C36.6835 73.3833 36.453 73.2967 36.2575 73.1543L30.3425 69.4185C29.6642 68.996 29.7421 68.4845 29.6198 67.9175C29.4835 67.3711 29.2387 66.8577 28.9002 66.4078C28.5616 65.9579 28.136 65.5805 27.6488 65.2983C27.1615 65.016 26.6226 64.8345 26.0638 64.7646C25.5051 64.6947 24.938 64.7378 24.3962 64.8913C23.8544 65.0448 23.349 65.3056 22.91 65.6582C22.471 66.0109 22.1073 66.4481 21.8406 66.9441C21.5739 67.44 21.4095 67.9844 21.3573 68.5451C21.3051 69.1058 21.3661 69.6712 21.5366 70.2079C21.7145 70.7305 22.0592 71.2197 21.6256 71.8979L16.4332 80.1145C17.4601 80.6005 18.3531 81.3294 19.035 82.2381L24.4385 73.6657C24.8722 72.9875 25.4503 73.0876 26.0063 73.0209C26.5726 72.9536 27.1203 72.776 27.6184 72.4983C27.831 72.3627 28.0779 72.2907 28.33 72.2907C28.5822 72.2907 28.829 72.3627 29.0416 72.4983L34.6676 76.0451C35.4236 76.5232 35.2124 77.157 35.3903 77.9797C35.5195 78.5163 35.7531 79.0222 36.0779 79.4685C36.4026 79.9148 36.812 80.2927 37.2828 80.5808C37.7536 80.8688 38.2766 81.0613 38.8218 81.1473C39.3669 81.2333 39.9237 81.211 40.4603 81.0818C40.9969 80.9526 41.5028 80.7189 41.9491 80.3942C42.3954 80.0695 42.7733 79.66 43.0614 79.1892C43.3494 78.7184 43.5419 78.1955 43.6279 77.6503C43.7139 77.1051 43.6916 76.5483 43.5624 76.0117C43.4887 75.7625 43.4894 75.4971 43.5645 75.2482C43.6395 74.9993 43.7856 74.7778 43.9849 74.6108L53.3467 63.1254C53.4576 62.9857 53.5957 62.8699 53.7525 62.785C53.9094 62.7 54.0818 62.6477 54.2594 62.6311C54.437 62.6145 54.6161 62.6339 54.786 62.6883C54.9559 62.7427 55.113 62.8308 55.2479 62.9475L57.5272 64.7376L59.0171 54.4418ZM74.0938 64.4485C74.0946 64.633 74.0568 64.8157 73.9828 64.9848C73.9088 65.1538 73.8002 65.3055 73.6641 65.4301C73.528 65.5547 73.3673 65.6495 73.1924 65.7083C73.0175 65.7671 72.8322 65.7887 72.6484 65.7716H60.0845L59.851 67.4505C59.8178 67.6812 59.7248 67.8992 59.5812 68.0827C59.4376 68.2663 59.2484 68.4091 59.0325 68.4968C58.8166 68.5845 58.5815 68.6141 58.3505 68.5827C58.1196 68.5513 57.9009 68.46 57.7162 68.3177L54.6031 65.8717C52.0458 69.0404 48.9882 73.3099 46.2531 76.1674C46.2826 76.3328 46.3011 76.4999 46.3087 76.6677H68.9793C71.0033 76.6619 72.9428 75.8552 74.374 74.424C75.8052 72.9928 76.6118 71.0534 76.6177 69.0293V31.0262C76.6118 29.0022 75.8052 27.0628 74.374 25.6316C72.9428 24.2003 71.0033 23.3937 68.9793 23.3878H31.0429C29.0189 23.3937 27.0795 24.2003 25.6482 25.6316C24.217 27.0628 23.4104 29.0022 23.4045 31.0262V62.3137C24.2187 62.0513 25.0744 61.942 25.9284 61.9913V36.1519C25.927 35.9772 25.9601 35.804 26.0259 35.6421C26.0918 35.4803 26.189 35.3332 26.312 35.2091C26.435 35.0851 26.5814 34.9866 26.7426 34.9194C26.9039 34.8522 27.0768 34.8177 27.2515 34.8177H72.7707C72.9454 34.8177 73.1184 34.8522 73.2796 34.9194C73.4409 34.9866 73.5872 35.0851 73.7102 35.2091C73.8332 35.3332 73.9305 35.4803 73.9963 35.6421C74.0621 35.804 74.0953 35.9772 74.0938 36.1519V64.3818V64.4485ZM71.4365 56.4432V63.1143H60.4625L61.4076 56.4432H71.4365ZM71.4365 44.3018V37.4861H28.5858V44.3018H71.4365ZM43.6402 65.7049L40.0045 70.2079C39.0536 70.1415 38.0994 70.2741 37.2026 70.597L32.2215 67.4727C32.0984 66.8585 31.8927 66.2639 31.61 65.7049H43.6402ZM20.7361 63.9148V31.0262C20.7449 28.2954 21.8336 25.6789 23.7646 23.7479C25.6956 21.8169 28.3121 20.7282 31.0429 20.7194H68.9793C71.7101 20.7282 74.3266 21.8169 76.2576 23.7479C78.1886 25.6789 79.2774 28.2954 79.2862 31.0262V68.9626C79.2774 71.6935 78.1886 74.3099 76.2576 76.2409C74.3266 78.172 71.7101 79.2607 68.9793 79.2695H45.964C45.4723 80.7508 44.4908 82.0206 43.1813 82.8699C41.8717 83.7191 40.312 84.0972 38.7589 83.9419C37.2058 83.7866 35.7519 83.1071 34.6364 82.0154C33.521 80.9236 32.8104 79.4846 32.6218 77.9352L28.1744 75.1445C27.5577 75.4079 26.906 75.5802 26.2397 75.656L20.3025 85.0844C20.6075 86.7667 20.266 88.5021 19.3463 89.9432C18.7444 90.8983 17.9162 91.6901 16.935 92.2483C15.9538 92.8066 14.85 93.1141 13.7216 93.1436C12.5931 93.1731 11.4747 92.9236 10.4658 92.4173C9.45678 91.911 8.58834 91.1635 7.93745 90.2412C7.28656 89.3189 6.87335 88.2502 6.73445 87.1299C6.59556 86.0096 6.73527 84.8723 7.14121 83.8189C7.54715 82.7656 8.20676 81.8287 9.06155 81.0913C9.91634 80.3539 10.9399 79.8389 12.0414 79.5919C12.5736 79.4701 13.1188 79.4141 13.6647 79.4251L18.9571 71.0529C18.5398 69.8228 18.4792 68.4997 18.7822 67.2365C19.0852 65.9734 19.7394 64.8218 20.6694 63.9148H20.7361ZM9.41744 86.1518C9.4467 85.5706 9.59541 85.0016 9.8543 84.4804C10.1132 83.9592 10.4767 83.4969 10.9222 83.1223C11.3676 82.7478 11.8855 82.4691 12.4434 82.3036C13.0013 82.1381 13.5874 82.0893 14.165 82.1603C14.9686 82.3261 15.7152 82.6983 16.3313 83.2403C16.9473 83.7823 17.4116 84.4753 17.6785 85.2512C17.8339 85.8363 17.861 86.448 17.758 87.0446C17.6551 87.6411 17.4245 88.2084 17.082 88.7075C16.7396 89.2067 16.2933 89.626 15.7738 89.9367C15.2542 90.2475 14.6737 90.4423 14.0719 90.5079C13.4702 90.5735 12.8613 90.5083 12.287 90.3168C11.7128 90.1254 11.1866 89.8121 10.7446 89.3984C10.3027 88.9848 9.95525 88.4805 9.72618 87.9202C9.49711 87.3598 9.3918 86.7566 9.41744 86.1518ZM87.6584 44.3685V38.8759C87.6642 38.6014 87.7546 38.3355 87.9172 38.1142C88.0798 37.893 88.3066 37.7273 88.5668 37.6398C88.8271 37.5522 89.1079 37.5471 89.3712 37.6251C89.6344 37.703 89.8672 37.8603 90.0378 38.0754L99.6664 49.1161C99.8813 49.3582 100 49.6707 100 49.9944C100 50.3182 99.8813 50.6307 99.6664 50.8728L90.0378 62.0024C89.8587 62.2054 89.6222 62.3492 89.3596 62.4146C89.0969 62.48 88.8206 62.464 88.5673 62.3687C88.314 62.2734 88.0956 62.1033 87.9412 61.881C87.7868 61.6587 87.7037 61.3947 87.7029 61.1241V56.4432H83.2555C83.0808 56.4446 82.9075 56.4115 82.7457 56.3457C82.5839 56.2798 82.4367 56.1826 82.3127 56.0596C82.1887 55.9366 82.0902 55.7902 82.023 55.629C81.9558 55.4677 81.9212 55.2948 81.9212 55.1201V45.7027C81.9212 45.3488 82.0618 45.0095 82.312 44.7593C82.5622 44.509 82.9016 44.3685 83.2555 44.3685H87.6584ZM90.3157 55.1201V57.5773L96.9868 49.9944L90.3157 42.4116V45.7472C90.3157 46.0981 90.1763 46.4346 89.9282 46.6827C89.6801 46.9309 89.3435 47.0703 88.9926 47.0703H84.5452V53.8303H88.9926C89.1673 53.8303 89.3403 53.8649 89.5015 53.9321C89.6628 53.9993 89.8091 54.0977 89.9321 54.2218C90.0552 54.3458 90.1524 54.493 90.2182 54.6548C90.284 54.8166 90.3172 54.9899 90.3157 55.1645V55.1201ZM9.70652 45.547V42.4005L3.09101 49.9944L9.76211 57.5884V55.1201C9.76065 54.9454 9.79379 54.7721 9.85962 54.6103C9.92546 54.4485 10.0227 54.3013 10.1457 54.1773C10.2687 54.0533 10.415 53.9548 10.5763 53.8876C10.7376 53.8204 10.9105 53.7858 11.0852 53.7858H15.5326V47.0258H11.0852C10.8935 47.0333 10.7023 46.9994 10.5248 46.9264C10.3474 46.8533 10.1878 46.7428 10.0569 46.6024C9.92603 46.4621 9.82698 46.2951 9.76651 46.113C9.70604 45.9308 9.68558 45.7378 9.70652 45.547ZM12.3638 56.4098V61.1129C12.3699 61.3864 12.2918 61.6552 12.14 61.8828C11.9882 62.1104 11.7701 62.2859 11.5152 62.3854C11.2604 62.4849 10.9811 62.5036 10.7153 62.4391C10.4494 62.3746 10.2098 62.2299 10.029 62.0247L0.333618 50.9061C0.118696 50.664 0 50.3515 0 50.0278C0 49.704 0.118696 49.3915 0.333618 49.1494L10.0401 38.0309C10.22 37.832 10.4556 37.6919 10.7163 37.6289C10.977 37.5659 11.2506 37.5829 11.5015 37.6777C11.7523 37.7725 11.9688 37.9408 12.1226 38.1605C12.2765 38.3802 12.3605 38.6411 12.3638 38.9093V44.4129H16.8112C16.9859 44.4129 17.1589 44.4475 17.3202 44.5147C17.4814 44.5819 17.6278 44.6803 17.7508 44.8044C17.8738 44.9284 17.971 45.0756 18.0368 45.2374C18.1027 45.3992 18.1358 45.5725 18.1344 45.7472V55.1645C18.1344 55.3392 18.0998 55.5122 18.0326 55.6734C17.9654 55.8347 17.8669 55.9811 17.7429 56.1041C17.6189 56.2271 17.4717 56.3243 17.3099 56.3901C17.1481 56.456 16.9748 56.4891 16.8001 56.4876L12.3638 56.4098ZM44.3852 12.3138H38.8926C38.6244 12.3105 38.3635 12.2264 38.1438 12.0726C37.9241 11.9188 37.7559 11.7023 37.6611 11.4514C37.5662 11.2006 37.5492 10.9269 37.6122 10.6662C37.6752 10.4056 37.8153 10.1699 38.0142 9.99003L49.1328 0.283569C49.3749 0.0686471 49.6874 -0.0500488 50.0111 -0.0500488C50.3349 -0.0500488 50.6474 0.0686471 50.8895 0.283569L62.0191 9.96779C62.2221 10.1468 62.3659 10.3833 62.4313 10.646C62.4967 10.9086 62.4807 11.1849 62.3854 11.4382C62.2901 11.6916 62.12 11.9099 61.8977 12.0643C61.6754 12.2187 61.4114 12.3018 61.1407 12.3027H56.471V16.7501C56.4702 16.9351 56.431 17.118 56.3557 17.2871C56.2805 17.4562 56.1709 17.6077 56.0339 17.7322C55.8969 17.8566 55.7355 17.9512 55.56 18.0099C55.3845 18.0686 55.1987 18.0902 55.0144 18.0732H45.7194C45.5447 18.0747 45.3714 18.0415 45.2096 17.9757C45.0478 17.9098 44.9006 17.8126 44.7766 17.6896C44.6526 17.5666 44.5541 17.4202 44.4869 17.259C44.4197 17.0977 44.3851 16.9248 44.3852 16.7501V12.3027V12.3138ZM55.1368 9.65647H57.5939L50.0111 3.07432L42.4172 9.74542H45.7527C46.1036 9.74542 46.4402 9.88482 46.6883 10.133C46.9364 10.3811 47.0758 10.7176 47.0758 11.0685V15.5159H53.8359V11.0685C53.8359 10.8938 53.8705 10.7209 53.9377 10.5596C54.0048 10.3984 54.1033 10.252 54.2273 10.129C54.3514 10.006 54.4986 9.90876 54.6604 9.84293C54.8222 9.77709 54.9954 9.74395 55.1701 9.74542L55.1368 9.65647ZM44.3852 87.6417V83.1943C44.3851 83.0196 44.4197 82.8466 44.4869 82.6854C44.5541 82.5241 44.6526 82.3778 44.7766 82.2548C44.9006 82.1318 45.0478 82.0345 45.2096 81.9687C45.3714 81.9029 45.5447 81.8697 45.7194 81.8712H55.1368C55.3143 81.8711 55.4901 81.9067 55.6536 81.976C55.8171 82.0453 55.9649 82.1467 56.0884 82.2743C56.2119 82.4019 56.3084 82.5531 56.3722 82.7188C56.436 82.8845 56.4658 83.0613 56.4599 83.2388V87.6862H61.1296C61.4012 87.6848 61.6668 87.7663 61.8909 87.9198C62.1149 88.0733 62.2867 88.2916 62.3834 88.5454C62.4801 88.7992 62.4971 89.0765 62.432 89.3402C62.3668 89.6039 62.2228 89.8414 62.0191 90.0211L50.9006 99.7164C50.6585 99.9313 50.346 100.05 50.0222 100.05C49.6985 100.05 49.386 99.9313 49.1439 99.7164L38.0921 90.0211C37.877 89.8505 37.7197 89.6177 37.6417 89.3545C37.5638 89.0912 37.5689 88.8104 37.6565 88.5502C37.744 88.29 37.9097 88.0631 38.1309 87.9005C38.3522 87.7379 38.6181 87.6476 38.8926 87.6417H44.3852Z" fill="url(#paint0_linear_479_46)"/>
</g>
<defs>
<linearGradient id="paint0_linear_479_46" x1="0.000272767" y1="50.2411" x2="100.002" y2="50.2411" gradientUnits="userSpaceOnUse">
<stop stop-color="#1685FF"/>
<stop offset="0.5" stop-color="#8B5CF6"/>
<stop offset="1" stop-color="#D946EF"/>
</linearGradient>
<clipPath id="clip0_479_46">
<rect width="100" height="100" fill="white"/>
</clipPath>
</defs>
</svg>
