<svg width="30" height="30" viewBox="0 0 30 30" fill="none" xmlns="http://www.w3.org/2000/svg">
<path d="M15.9009 14.5935C15.933 14.6224 15.9628 14.6554 15.9885 14.6907C16.8396 15.6326 17.767 16.4162 18.5666 16.9032C19.3662 16.4162 20.2937 15.6326 21.1447 14.6907C21.1704 14.6554 21.1994 14.6224 21.2323 14.5935C21.5707 14.2125 21.8961 13.8059 22.1943 13.3848C23.104 12.1006 23.7558 10.6869 23.7558 9.41877C23.7558 7.98586 23.1756 6.68876 22.2361 5.74929C21.2974 4.81063 20.0003 4.22959 18.5674 4.22959C17.1345 4.22959 15.8374 4.81063 14.8979 5.74929C13.9593 6.68876 13.3782 7.98586 13.3782 9.41877C13.3782 10.6869 14.03 12.1006 14.9397 13.3848C15.2387 13.8059 15.5634 14.2125 15.9025 14.5935H15.9009ZM18.5666 11.5991C19.2377 11.5991 19.846 11.3266 20.2856 10.887C20.726 10.4474 20.9977 9.83908 20.9977 9.16803C20.9977 8.49617 20.7252 7.88861 20.2856 7.44821C19.846 7.00862 19.2377 6.73618 18.5666 6.73618C17.8948 6.73618 17.2872 7.00862 16.8468 7.44821C16.4072 7.88861 16.1348 8.49617 16.1348 9.16803C16.1348 9.83908 16.4072 10.4474 16.8468 10.887C17.2872 11.3274 17.8948 11.5991 18.5666 11.5991ZM21.156 11.7566C20.493 12.4196 19.5776 12.8295 18.5666 12.8295C17.5556 12.8295 16.6395 12.4196 15.9772 11.7566C15.315 11.0936 14.9044 10.1782 14.9044 9.16722C14.9044 8.15623 15.3142 7.24007 15.9772 6.57786C16.6403 5.91565 17.5556 5.50498 18.5666 5.50498C19.5776 5.50498 20.493 5.91485 21.156 6.57786C21.8182 7.24087 22.2289 8.15623 22.2289 9.16722C22.2289 10.1782 21.819 11.0936 21.156 11.7566ZM3.4676 21.1087C3.47162 21.0862 3.47644 21.0645 3.48287 21.0436L4.92382 14.9415C4.97525 14.6538 5.2268 14.4352 5.52977 14.4352H14.1899C14.1047 14.3218 14.0204 14.2069 13.9384 14.0912C12.8944 12.6181 12.1462 10.961 12.1462 9.41877C12.1462 7.64591 12.8647 6.04102 14.026 4.87974C15.1881 3.71846 16.793 3 18.565 3C20.3379 3 21.9428 3.71846 23.104 4.87974C24.2661 6.04182 24.9846 7.64672 24.9846 9.41877C24.9846 10.961 24.2372 12.6173 23.1924 14.0912C23.1105 14.2069 23.0269 14.3218 22.9409 14.4352H24.7242V14.436C25.0039 14.436 25.257 14.6272 25.3229 14.9109L26.7711 21.0436C26.7775 21.0645 26.7823 21.0862 26.7864 21.1087L28.2273 27.2108C28.2434 27.2663 28.2522 27.3241 28.2522 27.3852C28.2522 27.7252 27.9766 28 27.6366 28H2.61493V27.9992C2.56912 27.9992 2.52251 27.9944 2.47509 27.9831C2.14479 27.906 1.93906 27.5757 2.01621 27.2454L3.466 21.1087H3.4676ZM4.84988 20.6024H10.3999L11.6721 15.6656H6.01598L4.84988 20.6024ZM11.6657 20.6024H25.4057L24.2396 15.6656H21.9098C20.894 16.7593 19.7858 17.6498 18.8672 18.1464C18.6904 18.2461 18.4678 18.2549 18.2757 18.1521C17.3547 17.657 16.2425 16.7641 15.2226 15.6664H12.937L11.6649 20.6032L11.6657 20.6024ZM25.6966 21.8328H19.8356L18.5634 26.7696H26.8627L25.6966 21.8328ZM18.5698 21.8328H11.349L10.0776 26.7696H17.2984L18.5706 21.8328H18.5698ZM10.0833 21.8328H4.55896L3.39367 26.7696H8.81189L10.0833 21.8328Z" fill="url(#paint0_linear_1774_57)"/>
<defs>
<linearGradient id="paint0_linear_1774_57" x1="2.00007" y1="15.5602" x2="28.2528" y2="15.5602" gradientUnits="userSpaceOnUse">
<stop stop-color="#1685FF"/>
<stop offset="0.5" stop-color="#8B5CF6"/>
<stop offset="1" stop-color="#D946EF"/>
</linearGradient>
</defs>
</svg>
