<?xml version="1.0" encoding="UTF-8" standalone="no"?><!DOCTYPE svg PUBLIC "-//W3C//DTD SVG 1.1//EN" "http://www.w3.org/Graphics/SVG/1.1/DTD/svg11.dtd"><svg width="100%" height="100%" viewBox="0 0 56 40" version="1.1" xmlns="http://www.w3.org/2000/svg" xmlns:xlink="http://www.w3.org/1999/xlink" xml:space="preserve" xmlns:serif="http://www.serif.com/" style="fill-rule:evenodd;clip-rule:evenodd;stroke-linejoin:round;stroke-miterlimit:2;"><path d="M14.107,34.108l-2.291,-0c-0.631,-0 -1.144,-0.514 -1.144,-1.145l0,-1.743c-0.714,-0.219 -1.407,-0.506 -2.068,-0.858l-1.234,1.234c-0.446,0.446 -1.172,0.446 -1.618,-0l-3.24,-3.241c-0.446,-0.446 -0.446,-1.172 -0,-1.618l1.233,-1.233c-0.352,-0.661 -0.639,-1.354 -0.858,-2.069l-1.743,0c-0.631,0 -1.144,-0.513 -1.144,-1.144l-0,-4.582c-0,-0.631 0.513,-1.144 1.144,-1.144l1.744,-0c0.218,-0.714 0.506,-1.408 0.857,-2.068l-1.233,-1.234c-0.446,-0.446 -0.446,-1.172 -0,-1.618l3.24,-3.241c0.216,-0.215 0.503,-0.334 0.809,-0.334c0.306,0 0.594,0.119 0.809,0.334l1.234,1.234c0.661,-0.351 1.354,-0.639 2.068,-0.857l0,-1.744c0,-0.631 0.513,-1.144 1.144,-1.144l2.291,-0c0.251,-0 0.455,0.203 0.455,0.454l-0,7.772c-0,0.251 -0.204,0.454 -0.455,0.454c-0.251,0 -0.454,-0.203 -0.454,-0.454l-0,-7.317l-1.837,-0c-0.127,-0 -0.235,0.107 -0.235,0.235l0,2.085c0,0.205 -0.137,0.384 -0.335,0.438c-0.87,0.238 -1.71,0.587 -2.496,1.036c-0.178,0.102 -0.402,0.072 -0.547,-0.073l-1.476,-1.476c-0.09,-0.09 -0.242,-0.09 -0.332,0l-3.24,3.241c-0.09,0.09 -0.09,0.242 -0,0.332l1.475,1.475c0.145,0.145 0.175,0.369 0.073,0.547c-0.449,0.787 -0.797,1.627 -1.035,2.497c-0.054,0.198 -0.234,0.335 -0.439,0.335l-2.085,-0c-0.127,-0 -0.235,0.107 -0.235,0.235l0,4.582c0,0.128 0.108,0.235 0.235,0.235l2.085,0c0.205,0 0.384,0.138 0.438,0.335c0.238,0.871 0.587,1.712 1.036,2.498c0.101,0.178 0.071,0.402 -0.074,0.546l-1.474,1.475c-0.09,0.09 -0.09,0.243 -0,0.333l3.24,3.24c0.09,0.09 0.242,0.09 0.332,0l1.476,-1.475c0.145,-0.145 0.369,-0.175 0.547,-0.074c0.786,0.449 1.627,0.798 2.496,1.036c0.198,0.054 0.335,0.233 0.335,0.438l0,2.086c0,0.127 0.108,0.235 0.235,0.235l1.837,-0l-0,-7.317c-0,-0.251 0.203,-0.455 0.454,-0.455c0.251,0 0.455,0.204 0.455,0.455l-0,7.771c-0,0.251 -0.204,0.455 -0.455,0.455Z" style="fill:#fff;fill-rule:nonzero;"/><path d="M14.107,28.194c-4.518,-0 -8.193,-3.676 -8.193,-8.193c0,-4.518 3.675,-8.193 8.193,-8.193c0.251,-0 0.455,0.203 0.455,0.454c-0,0.251 -0.204,0.455 -0.455,0.455c-4.016,-0 -7.284,3.267 -7.284,7.284c0,4.016 3.268,7.284 7.284,7.284c0.251,-0 0.455,0.203 0.455,0.454c-0,0.251 -0.204,0.455 -0.455,0.455Z" style="fill:#fff;fill-rule:nonzero;"/><path d="M14.402,26.344c-3.498,-0 -6.343,-2.846 -6.343,-6.344c-0,-3.497 2.845,-6.343 6.343,-6.343c3.497,0 6.343,2.846 6.343,6.343c0,3.498 -2.846,6.344 -6.343,6.344Zm-0,-11.778c-2.997,0 -5.434,2.438 -5.434,5.434c-0,2.997 2.437,5.435 5.434,5.435c2.996,-0 5.434,-2.438 5.434,-5.435c-0,-2.996 -2.438,-5.434 -5.434,-5.434Z" style="fill:#fff;fill-rule:nonzero;"/><path d="M17.097,22.903l-5.393,0c-0.251,0 -0.454,-0.203 -0.454,-0.454l0,-4.898c0,-0.251 0.204,-0.454 0.454,-0.454l5.393,-0c0.251,-0 0.455,0.203 0.455,0.454l-0,4.898c-0,0.251 -0.204,0.454 -0.455,0.454Zm-4.938,-0.909l4.483,-0l0,-3.988l-4.483,-0l0,3.988Z" style="fill:#fff;fill-rule:nonzero;"/><path d="M15.525,21.33l-2.246,0c-0.251,0 -0.455,-0.203 -0.455,-0.454l0,-1.752c0,-0.251 0.204,-0.454 0.455,-0.454l2.246,-0c0.251,-0 0.455,0.203 0.455,0.454l-0,1.752c-0,0.251 -0.204,0.454 -0.455,0.454Zm-1.792,-0.909l1.338,0l-0,-0.842l-1.338,-0l0,0.842Z" style="fill:#fff;fill-rule:nonzero;"/><path d="M23.737,16.92l-4.626,-0c-0.251,-0 -0.455,-0.204 -0.455,-0.455c0,-0.251 0.204,-0.454 0.455,-0.454l4.437,-0l3.903,-3.903c0.178,-0.178 0.466,-0.178 0.643,-0c0.178,0.177 0.178,0.465 0,0.642l-4.036,4.036c-0.085,0.086 -0.201,0.134 -0.321,0.134Z" style="fill:#fff;fill-rule:nonzero;"/><path d="M23.683,12.715l-9.574,0c-0.251,0 -0.455,-0.203 -0.455,-0.454c0,-0.251 0.204,-0.455 0.455,-0.455l9.119,0l0,-7.691c0,-0.251 0.204,-0.455 0.455,-0.455c0.251,0 0.454,0.204 0.454,0.455l0,8.146c0,0.251 -0.203,0.454 -0.454,0.454Z" style="fill:#fff;fill-rule:nonzero;"/><path d="M30.571,20.455l-10.306,-0c-0.237,-0 -0.429,-0.204 -0.429,-0.455c-0,-0.251 0.192,-0.454 0.429,-0.454l10.306,-0c0.237,-0 0.429,0.203 0.429,0.454c0,0.251 -0.192,0.455 -0.429,0.455Z" style="fill:#fff;fill-rule:nonzero;"/><path d="M23.683,36.339c-0.251,-0 -0.455,-0.204 -0.455,-0.455l0,-7.692l-9.119,0c-0.251,0 -0.455,-0.203 -0.455,-0.454c0,-0.251 0.204,-0.455 0.455,-0.455l9.574,0c0.251,0 0.454,0.204 0.454,0.455l0,8.146c0,0.251 -0.203,0.455 -0.454,0.455Z" style="fill:#fff;fill-rule:nonzero;"/><path d="M27.773,28.025c-0.116,0 -0.233,-0.044 -0.322,-0.133l-3.903,-3.903l-4.437,0c-0.251,0 -0.455,-0.203 -0.455,-0.454c0,-0.252 0.204,-0.455 0.455,-0.455l4.626,0c0.12,0 0.236,0.048 0.321,0.133l4.036,4.036c0.178,0.178 0.178,0.465 0,0.643c-0.089,0.089 -0.205,0.133 -0.321,0.133Z" style="fill:#fff;fill-rule:nonzero;"/><path d="M23.681,4.57c-1.259,-0 -2.285,-1.025 -2.285,-2.285c0,-1.26 1.026,-2.285 2.285,-2.285c1.26,0 2.285,1.025 2.285,2.285c0,1.26 -1.025,2.285 -2.285,2.285Zm0,-3.661c-0.758,0 -1.375,0.617 -1.375,1.376c-0,0.759 0.617,1.376 1.375,1.376c0.759,-0 1.376,-0.617 1.376,-1.376c0,-0.759 -0.617,-1.376 -1.376,-1.376Z" style="fill:#fff;fill-rule:nonzero;"/><path d="M29.068,13.42c-1.26,0 -2.285,-1.025 -2.285,-2.284c0,-1.26 1.025,-2.285 2.285,-2.285c1.26,-0 2.285,1.025 2.285,2.285c0,1.259 -1.025,2.284 -2.285,2.284Zm0,-3.66c-0.759,-0 -1.376,0.617 -1.376,1.375c0,0.759 0.617,1.376 1.376,1.376c0.759,0 1.376,-0.617 1.376,-1.376c-0,-0.758 -0.617,-1.375 -1.376,-1.375Z" style="fill:#fff;fill-rule:nonzero;"/><path d="M29.068,31.15c-1.26,0 -2.285,-1.025 -2.285,-2.285c0,-1.26 1.025,-2.285 2.285,-2.285c1.26,0 2.285,1.025 2.285,2.285c0,1.26 -1.025,2.285 -2.285,2.285Zm0,-3.661c-0.759,0 -1.376,0.617 -1.376,1.376c0,0.759 0.617,1.376 1.376,1.376c0.759,0 1.376,-0.617 1.376,-1.376c-0,-0.759 -0.617,-1.376 -1.376,-1.376Z" style="fill:#fff;fill-rule:nonzero;"/><path d="M23.681,40.001c-1.259,-0 -2.285,-1.025 -2.285,-2.285c0,-1.26 1.026,-2.285 2.285,-2.285c1.26,-0 2.285,1.025 2.285,2.285c0,1.26 -1.025,2.285 -2.285,2.285Zm0,-3.661c-0.758,-0 -1.375,0.617 -1.375,1.376c-0,0.758 0.617,1.376 1.375,1.376c0.759,-0 1.376,-0.618 1.376,-1.376c0,-0.759 -0.617,-1.376 -1.376,-1.376Z" style="fill:#fff;fill-rule:nonzero;"/><path d="M39.78,20.059c-1.515,-0 -2.954,-0.236 -4.035,-0.67c-1.196,-0.48 -1.858,-1.157 -1.858,-1.911c-0,-0.754 0.662,-1.432 1.858,-1.911c1.088,-0.434 2.52,-0.67 4.035,-0.67c1.515,-0 2.954,0.236 4.036,0.67c1.195,0.479 1.857,1.157 1.857,1.911c0,0.754 -0.662,1.431 -1.857,1.911c-1.089,0.434 -2.521,0.67 -4.036,0.67Zm0,-4.401c-2.939,-0 -5.132,0.959 -5.132,1.82c0,0.86 2.193,1.819 5.132,1.819c2.939,0 5.132,-0.959 5.132,-1.819c0,-0.861 -2.193,-1.82 -5.132,-1.82Z" style="fill:#fff;fill-rule:nonzero;"/><path d="M39.78,22.579c-3.358,0 -5.893,-1.112 -5.893,-2.581c-0,-0.213 0.167,-0.381 0.38,-0.381c0.214,0 0.381,0.168 0.381,0.381c0,0.86 2.193,1.82 5.132,1.82c2.939,-0 5.132,-0.96 5.132,-1.82c0,-0.213 0.168,-0.381 0.381,-0.381c0.213,0 0.38,0.168 0.38,0.381c0,1.477 -2.535,2.581 -5.893,2.581Z" style="fill:#fff;fill-rule:nonzero;"/><path d="M39.78,25.111c-3.358,-0 -5.893,-1.112 -5.893,-2.582l-0,-5.048c-0,-0.213 0.167,-0.38 0.38,-0.38c0.214,-0 0.381,0.167 0.381,0.38l0,5.048c0,0.861 2.193,1.82 5.132,1.82c2.939,0 5.132,-0.959 5.132,-1.82l0,-5.048c0,-0.213 0.168,-0.38 0.381,-0.38c0.213,-0 0.38,0.167 0.38,0.38l0,5.048c0,1.47 -2.535,2.582 -5.893,2.582Z" style="fill:#fff;fill-rule:nonzero;"/><path d="M39.775,29c-4.964,0 -9,-4.035 -9,-9c0,-4.964 4.036,-9 9,-9c4.965,0 9,4.036 9,9c0,4.965 -4.043,9 -9,9Zm0,-17.239c-4.545,0 -8.238,3.693 -8.238,8.239c-0,4.546 3.693,8.239 8.238,8.239c4.546,-0 8.239,-3.693 8.239,-8.239c0,-4.546 -3.7,-8.239 -8.239,-8.239Z" style="fill:#fff;fill-rule:nonzero;"/><path d="M53.271,20.382l-4.888,-0.001c-0.214,0 -0.381,-0.167 -0.381,-0.38c0,-0.213 0.167,-0.381 0.381,-0.381l4.888,0c0.213,0 0.381,0.168 0.381,0.381c-0,0.213 -0.168,0.38 -0.381,0.38Z" style="fill:#fff;fill-rule:nonzero;"/><path d="M53.592,22.083c-0.092,-0 -0.183,-0.015 -0.267,-0.053c-0.259,-0.107 -0.419,-0.351 -0.419,-0.632l0,-2.772c0,-0.282 0.16,-0.525 0.419,-0.639c0.259,-0.107 0.556,-0.054 0.754,0.144l1.386,1.386c0.129,0.129 0.198,0.305 0.198,0.487c-0,0.183 -0.069,0.358 -0.198,0.488l-1.386,1.385c-0.137,0.13 -0.312,0.206 -0.487,0.206Zm0.068,-3.282l0,2.414l1.203,-1.203l-1.203,-1.211Zm1.256,1.257c0.008,-0 0.008,-0 0,-0Z" style="fill:#fff;fill-rule:nonzero;"/></svg>