<?xml version="1.0" encoding="UTF-8" standalone="no"?><!DOCTYPE svg PUBLIC "-//W3C//DTD SVG 1.1//EN" "http://www.w3.org/Graphics/SVG/1.1/DTD/svg11.dtd"><svg width="100%" height="100%" viewBox="0 0 100 100" version="1.1" xmlns="http://www.w3.org/2000/svg" xmlns:xlink="http://www.w3.org/1999/xlink" xml:space="preserve" xmlns:serif="http://www.serif.com/" style="fill-rule:evenodd;clip-rule:evenodd;stroke-linejoin:round;stroke-miterlimit:2;"><rect id="Artboard1" x="0" y="0" width="100" height="100" style="fill:none;"/><path d="M49.189,56.7c-1.018,-0 -1.855,-0.838 -1.855,-1.855c0,-1.017 0.837,-1.855 1.855,-1.855l0.03,0c1.017,0 1.855,0.838 1.855,1.855c-0,1.017 -0.838,1.855 -1.855,1.855l-0.03,-0Zm7.579,-0c-1.017,-0 -1.854,-0.838 -1.854,-1.855c-0,-1.017 0.837,-1.855 1.854,-1.855l0.032,0c1.017,0 1.854,0.838 1.854,1.855c0,1.017 -0.837,1.855 -1.854,1.855l-0.032,-0Zm7.581,-0c-1.017,-0 -1.854,-0.838 -1.854,-1.855c-0,-1.017 0.837,-1.855 1.854,-1.855l0.032,0c1.017,0 1.854,0.838 1.854,1.855c0,1.017 -0.837,1.855 -1.854,1.855l-0.032,-0Zm-15.16,22.585c-1.018,-0 -1.855,-0.838 -1.855,-1.855c0,-1.017 0.837,-1.855 1.855,-1.855l0.03,0c1.017,0 1.855,0.838 1.855,1.855c-0,1.017 -0.838,1.855 -1.855,1.855l-0.03,-0Zm7.579,-0c-1.017,-0 -1.854,-0.838 -1.854,-1.855c-0,-1.017 0.837,-1.855 1.854,-1.855l0.032,0c1.017,0 1.854,0.838 1.854,1.855c0,1.017 -0.837,1.855 -1.854,1.855l-0.032,-0Zm7.581,-0c-1.017,-0 -1.854,-0.838 -1.854,-1.855c-0,-1.017 0.837,-1.855 1.854,-1.855l0.032,0c1.017,0 1.854,0.838 1.854,1.855c0,1.017 -0.837,1.855 -1.854,1.855l-0.032,-0Zm8.269,-30.843l-68.378,0l-0,12.804l68.378,0l0,-12.804Zm-62.812,5.133l-2.862,-0l0,-2.602l2.862,0l-0,2.602Zm-0,5.134l-2.862,0l0,-2.601l2.862,-0l-0,2.601Zm4.709,-5.134l-2.861,-0l-0,-2.602l2.861,0l0,2.602Zm0,5.134l-2.861,0l-0,-2.601l2.861,-0l0,2.601Zm4.711,-5.134l-2.863,-0l0,-2.602l2.863,0l-0,2.602Zm-0,5.134l-2.863,0l0,-2.601l2.863,-0l-0,2.601Zm4.709,-5.134l-2.862,-0l-0,-2.602l2.862,0l0,2.602Zm0,5.134l-2.862,0l-0,-2.601l2.862,-0l0,2.601Zm4.714,-5.134l-2.867,-0l0,-2.602l2.867,0l-0,2.602Zm-0,5.134l-2.867,0l0,-2.601l2.867,-0l-0,2.601Zm4.465,-5.134l-2.862,-0l0,-2.602l2.862,0l-0,2.602Zm-0,5.134l-2.862,0l0,-2.601l2.862,-0l-0,2.601Zm-23.304,17.017l-2.862,0l0,-2.601l2.862,-0l-0,2.601Zm-1.561,5.133l-1.301,0l0,-2.589l2.862,0l-0,2.596l-1.561,-0.007Zm6.27,-5.133l-2.861,0l-0,-2.601l2.861,-0l0,2.601Zm-1.56,5.133l-1.301,0l-0,-2.589l2.861,0l0,2.596l-1.56,-0.007Zm6.271,-5.133l-2.863,0l0,-2.601l2.863,-0l-0,2.601Zm-1.562,5.133l-1.301,0l0,-2.589l2.863,0l-0,2.596l-1.562,-0.007Zm6.271,-5.133l-2.862,0l-0,-2.601l2.862,-0l0,2.601Zm-1.561,5.133l-1.301,0l-0,-2.589l2.862,0l0,2.596l-1.561,-0.007Zm6.271,-5.133l-2.863,0l0,-2.601l2.863,-0l-0,2.601Zm-1.562,5.133l-1.301,0l0,-2.589l2.863,0l-0,2.596l-1.562,-0.007Zm6.031,-5.133l-2.862,0l0,-2.601l2.862,-0l-0,2.601Zm-1.561,5.133l-1.301,0l0,-2.589l2.862,0l-0,2.596l-1.561,-0.007Zm40.602,11.581l-67.919,-0l-0,3.737l67.919,-0l-0,-3.737Zm-62.381,-2.596l57.301,-0l0,-3.845l-57.301,0l0,3.845Zm57.301,-21.841l0,-4.161l-57.301,0l0,4.161l57.301,0Zm1.301,2.602l-64.14,-0l-0,12.798l68.378,0l0,-12.804l-4.238,0.006Zm-58.574,-39.426l-2.862,0l0,-2.596l2.862,0l-0,2.596Zm-0,5.134l-2.862,-0l0,-2.602l2.862,0l-0,2.602Zm4.709,-5.134l-2.861,0l-0,-2.596l2.861,0l0,2.596Zm0,5.134l-2.861,-0l-0,-2.602l2.861,0l0,2.602Zm4.711,-5.134l-2.863,0l0,-2.596l2.863,0l-0,2.596Zm-0,5.134l-2.863,-0l0,-2.602l2.863,0l-0,2.602Zm4.709,-5.134l-2.862,0l-0,-2.596l2.862,0l0,2.596Zm0,5.134l-2.862,-0l-0,-2.602l2.862,0l0,2.602Zm4.714,-5.134l-2.867,0l0,-2.596l2.867,0l-0,2.596Zm-0,5.134l-2.867,-0l0,-2.602l2.867,0l-0,2.602Zm4.465,-5.134l-2.862,0l0,-2.596l2.862,0l-0,2.596Zm-0,5.134l-2.862,-0l0,-2.602l2.862,0l-0,2.602Zm-23.336,5.133l0,4.401l57.301,-0l0,-4.401l-57.301,-0Zm31.818,-11.341c1.759,1.769 4.152,2.766 6.646,2.767l38.108,0c5.164,0 9.414,-4.249 9.414,-9.413c-0,-5.164 -4.25,-9.414 -9.414,-9.414l-2.608,0c-0.639,-0.001 -1.187,-0.473 -1.283,-1.105c-0.48,-3.129 -3.2,-5.464 -6.365,-5.464c-1.416,0 -2.793,0.467 -3.917,1.329l-0.066,0.046c-0.59,0.395 -1.4,0.234 -1.795,-0.355c-0.967,-1.442 -2.273,-2.625 -3.803,-3.444c-1.525,-0.812 -3.227,-1.237 -4.955,-1.237c-5.209,-0 -9.676,3.862 -10.428,9.016c-0.046,0.68 -0.619,1.215 -1.301,1.213l-1.587,0c-0.004,0 -0.008,0 -0.012,0c-5.157,0 -9.401,4.244 -9.401,9.401c0,2.498 0.997,4.897 2.767,6.66Zm-5.36,-6.655l-33.295,0c-0.713,0 -1.3,0.587 -1.3,1.301l-0,15.398c-0,0.713 0.587,1.3 1.3,1.3l4.247,0l-0,4.401l-4.247,-0c-0.713,-0 -1.3,0.587 -1.3,1.3l-0,15.395c-0,0.713 0.587,1.301 1.3,1.301l4.247,-0l-0,4.161l-4.247,-0c-0.713,-0 -1.3,0.587 -1.3,1.3l-0,15.394c-0,0.713 0.587,1.3 1.3,1.3l4.247,0l-0,3.845l-4.247,-0c-0.713,-0 -1.3,0.587 -1.3,1.301l-0,6.325c-0,0.714 0.587,1.301 1.3,1.301l70.516,-0c0.714,-0 1.301,-0.587 1.301,-1.301l-0,-6.331c-0,-0.713 -0.587,-1.3 -1.301,-1.3l-3.782,-0l0,-3.842l4.242,0c0.713,0 1.3,-0.587 1.3,-1.3l0,-15.398c0,-0.714 -0.587,-1.301 -1.3,-1.301l-4.242,0l0,-4.158l4.242,0c0.713,0 1.3,-0.587 1.3,-1.3l0,-15.397c0,-0.714 -0.587,-1.301 -1.3,-1.301l-4.242,0l0,-4.398l4.242,-0c0.713,-0 1.3,-0.587 1.3,-1.301l0,-4.678l11.133,0c6.588,0 12.009,-5.421 12.009,-12.009c0,-6.589 -5.421,-12.01 -12.009,-12.01l-1.565,0c-1.101,-3.873 -4.664,-6.564 -8.69,-6.564c-0.986,-0 -1.965,0.161 -2.898,0.477c-0.517,0.175 -1.017,0.397 -1.494,0.663c-2.492,-3.035 -6.218,-4.797 -10.145,-4.797c-6.107,0 -11.447,4.262 -12.801,10.217l-0.512,-0c-6.58,0.018 -11.989,5.426 -12.009,12.006Zm12.01,12.017c-5.611,-0.015 -10.506,-3.947 -11.73,-9.423l-32.276,-0l-0,12.806l68.378,0l0,-3.383l-24.372,0Zm30.999,20.675c-0.028,0.002 -0.056,0.003 -0.084,0.003c-0.713,0 -1.301,-0.587 -1.301,-1.301c0,-0.713 0.588,-1.3 1.301,-1.3c0.028,-0 0.056,0.001 0.084,0.002l2.98,0l-0,-14.279c-0.002,-0.028 -0.003,-0.056 -0.003,-0.084c-0,-0.713 0.587,-1.3 1.301,-1.3c0.713,-0 1.3,0.587 1.3,1.3c0,0.028 -0.001,0.056 -0.002,0.084l-0,15.578c-0.001,0.464 -0.249,0.894 -0.651,1.126l-0.028,0.015l-0.027,0.014l-0.028,0.015l-0.03,0.014l-0.028,0.012l-0.029,0.011l-0.03,0.012l-0.03,0.01l-0.03,0.011l-0.031,0.009l-0.031,0.008l-0.031,0.008l-0.063,0.013l-4.514,-0l0.005,0.019Zm0,22.157c-0.714,0 -1.301,-0.587 -1.301,-1.3c0,-0.714 0.587,-1.301 1.301,-1.301l10.449,-0l-0,-36.431c-0,-0.713 0.587,-1.3 1.3,-1.3c0.714,-0 1.301,0.587 1.301,1.3l0,37.734c0,0.713 -0.587,1.3 -1.301,1.3l-11.754,0l0.005,-0.002Z" style="fill:url(#_Linear1);"/><defs><linearGradient id="_Linear1" x1="0" y1="0" x2="1" y2="0" gradientUnits="userSpaceOnUse" gradientTransform="matrix(96.7193,0,0,94.8206,1.64047,50.235)"><stop offset="0" style="stop-color:#1685ff;stop-opacity:1"/><stop offset="0.5" style="stop-color:#8b5cf6;stop-opacity:1"/><stop offset="1" style="stop-color:#d946ef;stop-opacity:1"/></linearGradient></defs></svg>