<?xml version="1.0" encoding="UTF-8"?><svg id="a" xmlns="http://www.w3.org/2000/svg" xmlns:xlink="http://www.w3.org/1999/xlink" viewBox="0 0 50 50"><defs><style>.e{fill:url(#c);}.f{fill:url(#b);}.g{fill:url(#d);}</style><linearGradient id="b" x1="2.1" y1="25.18" x2="47.62" y2="25.18" gradientTransform="matrix(1, 0, 0, 1, 0, 0)" gradientUnits="userSpaceOnUse"><stop offset=".01" stop-color="#4376fc"/><stop offset=".99" stop-color="#c84bf1"/></linearGradient><linearGradient id="c" x1="16.16" y1="32.44" x2="22.75" y2="32.44" xlink:href="#b"/><linearGradient id="d" x1="27.18" y1="32.44" x2="33.76" y2="32.44" xlink:href="#b"/></defs><path class="f" d="M43.19,17.56c.03-.38,.06-.76,.06-1.17,0-7.29-5.9-13.2-13.19-13.2-2.57,0-5.08,.75-7.23,2.15-1.85,1.22-3.38,2.88-4.43,4.84-.44-.05-.89-.08-1.34-.08-2.31,0-4.56,.76-6.39,2.17-1.67,1.28-2.94,3.02-3.65,5-.83,.43-1.59,.98-2.25,1.64-1.72,1.71-2.68,4.04-2.68,6.47,0,5.04,4.1,9.15,9.13,9.15h.79v3.24c0,1.79,1.46,3.24,3.25,3.24h4.39v1.49h-.85c-.59,0-1.06,.48-1.06,1.06v2.59c0,.59,.48,1.02,1.06,1.02h12.09c.59,0,1.06-.43,1.06-1.02v-2.59c0-.59-.48-1.06-1.06-1.06h-.85v-1.49h4.39c1.79,0,3.24-1.45,3.25-3.24v-3.24h.79c5.05,0,9.14-4.1,9.13-9.15,0-3.2-1.68-6.17-4.43-7.82Zm-13.34,27.48h-9.97v-.42h9.97v.42Zm-8.06-2.55v-1.49h6.15v1.49h-6.15Zm13.79-4.72c0,.62-.5,1.12-1.12,1.12H15.26c-.62,0-1.12-.5-1.12-1.12v-11.24c0-.62,.5-1.12,1.12-1.12h19.2c.62,0,1.12,.5,1.12,1.12v11.24Zm9.19-9.28c-.34,.69-.79,1.31-1.33,1.86h0c-1.31,1.32-3.09,2.07-4.95,2.07h-.79v-5.92c-.01-1.78-1.47-3.22-3.25-3.21H15.27c-1.78-.01-3.24,1.42-3.25,3.2h0v5.92h-.79c-3.88,0-7.02-3.16-7.01-7.03,0-1.86,.74-3.64,2.06-4.95,.6-.59,1.3-1.08,2.07-1.43l.43-.2,.14-.45c.54-1.74,1.61-3.27,3.05-4.38,1.46-1.13,3.25-1.73,5.1-1.73,.58,0,1.16,.05,1.73,.16l.82,.16,.35-.76c.88-1.9,2.28-3.53,4.03-4.68,5.12-3.35,11.98-1.91,15.33,3.21,1.18,1.8,1.81,3.91,1.81,6.07,0,.5-.04,1-.1,1.5l-.09,.88,.65,.33c3.47,1.71,4.89,5.92,3.18,9.39Z"/><polygon class="e" points="16.16 33.09 22.75 35.83 22.75 34.27 18.19 32.43 22.75 30.6 22.75 29.05 16.16 31.78 16.16 33.09"/><polygon class="g" points="27.18 30.6 31.74 32.43 27.18 34.27 27.18 35.83 33.76 33.09 33.76 31.78 27.18 29.05 27.18 30.6"/></svg>