<svg width="80" height="80" viewBox="0 0 80 80" fill="none" xmlns="http://www.w3.org/2000/svg">
<g clip-path="url(#clip0_359_1291)">
<path d="M79.8018 48.2744C79.6885 47.2691 78.9097 46.462 77.8761 46.3346L72.1558 45.57C71.8018 44.4089 71.3345 43.2762 70.754 42.1859L74.2513 37.5841C74.846 36.7629 74.846 35.6585 74.2372 34.8797C72.9628 33.2514 71.5044 31.793 69.8761 30.5187C69.0973 29.9098 67.9929 29.8956 67.1575 30.5187L64.3398 32.6567C64.2973 31.9771 64.2549 31.2974 64.1699 30.6178C64.0425 29.4992 63.1646 28.6071 62.0319 28.4656L54.8814 27.5027C54.4283 25.9735 53.8195 24.5151 53.0832 23.1417L57.4442 17.4072C58.1239 16.501 58.1239 15.2549 57.4442 14.3771C55.9009 12.4231 54.1168 10.639 52.1628 9.09564C51.285 8.40184 50.0389 8.40184 49.1327 9.09564L43.3982 13.4567C42.0248 12.7204 40.5664 12.1116 39.0372 11.6585L38.0743 4.50803C37.9186 3.37529 37.0407 2.49742 35.9221 2.36998C33.4159 2.07264 30.9664 2.07264 28.4602 2.36998C27.3416 2.49742 26.4496 3.37529 26.308 4.50803L25.3451 11.6585C23.8159 12.1116 22.3575 12.7204 20.9841 13.4567L15.2496 9.09564C14.3434 8.40184 13.0973 8.416 12.2195 9.09564C10.2655 10.639 8.48142 12.4089 6.93805 14.3771C6.24425 15.2549 6.24425 16.501 6.93805 17.4072L11.2991 23.1417C10.5628 24.5151 9.95398 25.9735 9.50088 27.5027L2.35044 28.4656C1.2177 28.6213 0.339823 29.4992 0.21239 30.6178C0.0707966 31.8638 0 33.124 0 34.3417C0 35.5594 0.0707966 36.8195 0.21239 38.0656C0.339823 39.1841 1.2177 40.062 2.35044 40.2178L9.50088 41.1806C9.95398 42.7098 10.5628 44.1824 11.2991 45.5417L6.93805 51.2762C6.25841 52.1824 6.25841 53.4284 6.93805 54.3063C8.48142 56.2744 10.2655 58.0443 12.2195 59.5877C13.0973 60.2815 14.3434 60.2815 15.2496 59.5877L20.9841 55.2266C22.3575 55.9629 23.8159 56.5718 25.3451 57.0248L26.308 64.1753C26.4637 65.308 27.3416 66.1859 28.4602 66.3133C29.7062 66.4549 30.9522 66.5257 32.1699 66.5257C32.1841 66.9647 32.3398 67.4036 32.623 67.7576C33.8973 69.3859 35.3558 70.8443 36.9841 72.1187C37.7628 72.7275 38.8673 72.7417 39.7027 72.1187L44.2903 68.6355C45.3805 69.216 46.5133 69.6833 47.6743 70.0372L48.4389 75.7576C48.5805 76.7771 49.3734 77.57 50.3788 77.6833C51.3841 77.7965 52.4035 77.8532 53.4513 77.8532C54.4991 77.8532 55.5186 77.7965 56.5097 77.6833C57.515 77.57 58.3221 76.7912 58.4496 75.7576L59.2142 70.0372C60.3752 69.6833 61.508 69.216 62.5982 68.6355L67.2 72.1328C68.0212 72.7275 69.1257 72.7275 69.9044 72.1187C71.5327 70.8443 72.9912 69.3859 74.2655 67.7576C74.8743 66.9788 74.8885 65.8744 74.2655 65.039L70.7823 60.4514C71.3628 59.3611 71.8301 58.2284 72.1841 57.0673L77.9044 56.3027C78.9239 56.1611 79.7168 55.3682 79.8301 54.3629C79.9434 53.3576 80 52.3381 80 51.2903C80 50.2425 79.9434 49.2231 79.8301 48.2319L79.8018 48.2744ZM28.4035 63.9204L27.3416 56.0762C27.285 55.6514 26.9735 55.2974 26.5628 55.1983C24.7221 54.7027 22.9947 53.9948 21.423 53.0744C21.2531 52.9753 21.069 52.9328 20.885 52.9328C20.6584 52.9328 20.4319 53.0036 20.2478 53.1452L13.9611 57.931C13.8336 58.0302 13.6496 58.0302 13.5363 57.931C11.7097 56.4868 10.0531 54.8302 8.60885 53.0036C8.50974 52.8903 8.52389 52.7063 8.60885 52.5788L13.3947 46.2921C13.6496 45.9523 13.6779 45.485 13.4655 45.1169C12.5451 43.5452 11.823 41.8036 11.3416 39.9629C11.2283 39.5523 10.8885 39.2408 10.4637 39.1841L2.61947 38.1222C2.46372 38.0939 2.32212 37.9806 2.30796 37.8248C2.16637 36.6496 2.10973 35.4744 2.10973 34.3417C2.10973 33.2089 2.18053 32.0337 2.30796 30.8585C2.32212 30.7027 2.44956 30.5894 2.61947 30.5611L10.4637 29.4992C10.8885 29.4425 11.2425 29.131 11.3416 28.7204C11.8372 26.8797 12.5451 25.1523 13.4655 23.5664C13.6779 23.1983 13.6496 22.731 13.3947 22.3912L8.60885 16.1045C8.50974 15.9771 8.50974 15.793 8.60885 15.6797C10.0531 13.8532 11.7097 12.1824 13.5363 10.7523C13.6496 10.6673 13.8336 10.6673 13.9611 10.7523L20.2478 15.5381C20.5876 15.793 21.0549 15.8213 21.423 15.6089C22.9947 14.6886 24.7363 13.9664 26.5628 13.485C26.9735 13.3718 27.285 13.0319 27.3416 12.6071L28.4035 4.7629C28.4319 4.60715 28.5451 4.46556 28.7009 4.4514C31.0372 4.18237 33.331 4.18237 35.6673 4.4514C35.8088 4.46556 35.9363 4.59299 35.9646 4.7629L37.0265 12.6071C37.0832 13.0319 37.3947 13.3859 37.8053 13.485C39.646 13.9806 41.3734 14.6886 42.9451 15.6089C43.3133 15.8213 43.7805 15.793 44.1204 15.5381L50.4071 10.7523C50.5345 10.6532 50.7186 10.6532 50.8319 10.7523C52.6584 12.1965 54.315 13.8532 55.7593 15.6797C55.8584 15.793 55.8442 15.9771 55.7593 16.1045L50.9735 22.3912C50.7186 22.731 50.6903 23.1983 50.9027 23.5664C51.823 25.1523 52.5451 26.8797 53.0265 28.7204C53.1398 29.131 53.4796 29.4425 53.9044 29.4992L61.7487 30.5611C61.9186 30.5894 62.046 30.7027 62.0602 30.8585C62.2018 32.0337 62.2584 33.2089 62.2584 34.3417C62.2584 35.4744 62.1876 36.6496 62.0602 37.8248C62.046 37.9806 61.9186 38.0939 61.7487 38.1222L53.9044 39.1841C53.4796 39.2408 53.1257 39.5523 53.0265 39.9629C52.531 41.8036 51.823 43.531 50.9027 45.1169C50.6903 45.485 50.7186 45.9523 50.9735 46.2921L55.7593 52.5788C55.8584 52.7063 55.8584 52.8903 55.7593 53.0036C54.315 54.8302 52.6584 56.4868 50.8319 57.931C50.7186 58.0302 50.5345 58.016 50.4071 57.931L44.1204 53.1452C43.7805 52.8903 43.3133 52.862 42.9451 53.0744C41.3734 53.9948 39.6319 54.7169 37.8053 55.1983C37.3947 55.3116 37.0832 55.6514 37.0265 56.0762L35.9646 63.9204C35.9363 64.0762 35.823 64.2178 35.6673 64.2319C33.331 64.501 31.0372 64.501 28.7009 64.2319C28.5593 64.2178 28.4319 64.0903 28.4035 63.9204ZM57.4442 51.2903L53.0832 45.5558C53.8195 44.1824 54.4283 42.724 54.8814 41.1948H54.9522C59.9363 41.931 63.6743 46.2638 63.6743 51.3328C63.6743 56.9965 59.0726 61.5983 53.4089 61.5983C49.4867 61.5983 45.9327 59.3187 44.2195 55.8921L49.1044 59.616C50.0106 60.2956 51.2566 60.2956 52.1345 59.616C54.0885 58.0726 55.8726 56.2886 57.4159 54.3346C58.1097 53.4567 58.1097 52.2107 57.4159 51.3045L57.4442 51.2903ZM77.5929 54.2355L71.1788 55.0992C70.754 55.1558 70.4 55.4673 70.3009 55.8779C69.9186 57.3222 69.3381 58.724 68.5876 60.0408C68.3752 60.4089 68.4035 60.8762 68.6584 61.216L72.5805 66.4691C71.4195 67.9558 70.0743 69.301 68.4602 70.462L63.3204 66.5541C62.9805 66.2992 62.5133 66.2709 62.1451 66.4833C60.8283 67.2479 59.4265 67.8284 57.9823 68.1965C57.5717 68.3098 57.2602 68.6496 57.2035 69.0744L56.2549 75.5877C54.4283 75.8001 52.531 75.8992 50.5345 75.4886L49.6708 69.0744C49.6142 68.6496 49.3027 68.2956 48.892 68.1965C47.4478 67.8142 46.046 67.2337 44.7292 66.4833C44.3611 66.2709 43.8938 66.2992 43.554 66.5541L38.3009 70.4762C36.8425 69.3293 35.5257 68.0266 34.3788 66.4691C34.9027 66.4266 35.4124 66.3983 35.9363 66.3275C37.0549 66.2001 37.9469 65.3222 38.0885 64.1895L39.0513 57.039C40.0566 56.7417 41.0195 56.3594 41.954 55.9346C43.8088 60.5647 48.3681 63.708 53.4372 63.708C60.2761 63.708 65.8265 58.1576 65.8265 51.3187C65.8265 46.7594 63.3062 42.6956 59.5257 40.5576L62.046 40.2178C63.1788 40.062 64.0566 39.1841 64.1841 38.0656C64.2973 37.1452 64.3398 36.2248 64.3681 35.3045L68.5735 32.1894C70.0602 33.3505 71.4053 34.6956 72.5664 36.3098L68.6584 41.4496C68.4035 41.7894 68.3752 42.2567 68.5876 42.6248C69.3522 43.9417 69.9327 45.3434 70.3009 46.7877C70.4142 47.1983 70.754 47.5098 71.1788 47.5664L77.692 48.5151C77.8053 49.4355 77.8619 50.3841 77.8619 51.3328C77.8619 52.2815 77.8053 53.2302 77.6071 54.2355H77.5929ZM32.1841 48.147C30.6549 48.147 29.1681 47.9063 27.7805 47.4248C27.2283 47.2408 26.931 46.6319 27.1292 46.0797C27.3274 45.5275 27.9221 45.2302 28.4743 45.4284C29.6496 45.8249 30.8956 46.0372 32.1982 46.0372C38.6407 46.0372 43.8796 40.7983 43.8796 34.3558C43.8796 29.8956 41.3876 25.8886 37.3947 23.8921C36.8708 23.6372 36.6584 23.0001 36.9133 22.462C37.1681 21.9381 37.8195 21.7257 38.3434 21.9806C43.0726 24.331 46.0177 29.0602 46.0177 34.3417C46.0177 41.9594 39.8301 48.147 32.2124 48.147H32.1841ZM20.5027 34.3417C20.5027 35.6443 20.7009 36.8903 21.1115 38.0656C21.3097 38.6178 21.0124 39.2266 20.4602 39.4107C20.3469 39.4532 20.2336 39.4673 20.1204 39.4673C19.6814 39.4673 19.2708 39.1841 19.115 38.7452C18.6336 37.3576 18.3929 35.8709 18.3929 34.3417C18.3929 29.0602 21.3381 24.331 26.0673 21.9806C26.5912 21.7257 27.2283 21.9381 27.4973 22.462C27.7664 22.9859 27.5398 23.6231 27.0159 23.8921C23.0088 25.8744 20.531 29.8815 20.531 34.3558L20.5027 34.3417ZM32.9345 35.0921L23.9292 44.0974C23.7168 44.3098 23.4478 44.4089 23.1788 44.4089C22.9097 44.4089 22.6407 44.3098 22.4283 44.0974C22.0177 43.6868 22.0177 43.0072 22.4283 42.5965L31.1221 33.9027V20.1824C31.1221 19.6018 31.6035 19.1204 32.1841 19.1204C32.7646 19.1204 33.246 19.6018 33.246 20.1824V34.3417C33.246 34.6248 33.1327 34.8939 32.9345 35.0921Z" fill="url(#paint0_linear_359_1291)"/>
</g>
<defs>
<linearGradient id="paint0_linear_359_1291" x1="0.000218213" y1="40.1824" x2="80.0017" y2="40.1824" gradientUnits="userSpaceOnUse">
<stop stop-color="#1685FF"/>
<stop offset="0.5" stop-color="#8B5CF6"/>
<stop offset="1" stop-color="#D946EF"/>
</linearGradient>
<clipPath id="clip0_359_1291">
<rect width="80" height="80" fill="white"/>
</clipPath>
</defs>
</svg>
