<?xml version="1.0" encoding="UTF-8" standalone="no"?><!DOCTYPE svg PUBLIC "-//W3C//DTD SVG 1.1//EN" "http://www.w3.org/Graphics/SVG/1.1/DTD/svg11.dtd"><svg width="100%" height="100%" viewBox="0 0 100 100" version="1.1" xmlns="http://www.w3.org/2000/svg" xmlns:xlink="http://www.w3.org/1999/xlink" xml:space="preserve" xmlns:serif="http://www.serif.com/" style="fill-rule:evenodd;clip-rule:evenodd;stroke-linejoin:round;stroke-miterlimit:2;"><rect id="Artboard1" x="0" y="0" width="100" height="100" style="fill:none;"/><path d="M83.685,61.091c-0.828,-0.001 -1.5,0.671 -1.5,1.499l0,13.84c0,0.828 0.672,1.5 1.5,1.5c0.828,0 1.5,-0.672 1.5,-1.5l0,-13.84c0,-0.828 -0.672,-1.5 -1.5,-1.5Zm5.843,0c-0.828,0 -1.5,0.672 -1.5,1.5l-0,13.84c-0,0.828 0.672,1.5 1.5,1.5c0.828,0 1.5,-0.672 1.5,-1.5l-0,-13.84c-0,-0.828 -0.672,-1.5 -1.5,-1.5Zm7.918,-6.05c-0.007,-0.018 -0.01,-0.035 -0.018,-0.053l-21.15,-46.955c-0.021,-0.046 -0.044,-0.092 -0.069,-0.136l-0.13,-0.236c-0.264,-0.49 -0.813,-1.512 -2.168,-1.512l-47.824,0c-1.495,0 -1.978,1.043 -2.368,1.884l-21.053,46.758c-0.015,0.034 -0.022,0.068 -0.034,0.104c-0.339,0.7 -0.545,1.476 -0.545,2.304l-0,24.625c-0,2.943 2.395,5.338 5.338,5.338l7.695,0l-0,3.549c-0,1.731 1.409,3.141 3.141,3.141l13.145,0c1.731,0 3.141,-1.409 3.141,-3.141l-0,-3.549l30.91,0l-0,3.549c-0,1.731 1.409,3.141 3.141,3.141l13.145,0c1.731,0 3.141,-1.409 3.141,-3.141l-0,-3.549l7.691,0c2.943,0 5.338,-2.395 5.338,-5.338l-0,-24.626c-0.002,-0.768 -0.173,-1.496 -0.467,-2.157Zm-70.968,-45.826c0.01,-0.022 0.021,-0.044 0.029,-0.065l46.965,0c0.032,0.059 0.065,0.119 0.101,0.182l19.165,42.548c-0.056,-0.002 -0.108,-0.017 -0.165,-0.017l-25.014,0c2.159,-3.292 3.426,-7.221 3.426,-11.443c0,-11.545 -9.392,-20.938 -20.937,-20.938c-11.545,0 -20.938,9.393 -20.938,20.938c0,4.223 1.267,8.151 3.426,11.443l-25.111,0c-0.054,0 -0.103,0.015 -0.156,0.016l19.209,-42.664Zm23.57,49.14c-9.891,-0.001 -17.938,-8.047 -17.938,-17.937c0,-9.891 8.047,-17.938 17.938,-17.938c9.891,0 17.937,8.047 17.937,17.938c-0.001,9.891 -8.047,17.936 -17.937,17.936Zm-18.502,32.356c-0,0.079 -0.062,0.141 -0.141,0.141l-13.144,0c-0.079,0 -0.141,-0.062 -0.141,-0.141l-0,-3.549l13.426,0l-0,3.549Zm50.336,0c-0,0.079 -0.062,0.141 -0.141,0.141l-13.144,0c-0.079,0 -0.141,-0.062 -0.141,-0.141l0,-3.549l13.426,0l0,3.549Zm13.029,-8.887c0,1.289 -1.049,2.338 -2.338,2.338l-9.036,0c-0.052,-0.005 -0.103,-0.016 -0.155,-0.016c-0.052,0 -0.104,0.011 -0.155,0.016l-16.116,0c-0.052,-0.005 -0.103,-0.016 -0.155,-0.016c-0.052,0 -0.104,0.011 -0.155,0.016l-33.6,0c-0.052,-0.005 -0.103,-0.016 -0.155,-0.016c-0.052,0 -0.104,0.011 -0.155,0.016l-16.116,0c-0.052,-0.005 -0.103,-0.016 -0.155,-0.016c-0.052,0 -0.104,0.011 -0.155,0.016l-9.04,0c-1.289,0 -2.338,-1.049 -2.338,-2.338l0,-24.625c0,-1.288 1.049,-2.336 2.338,-2.336l27.504,0c3.814,3.991 9.176,6.492 15.119,6.492c5.943,0 11.305,-2.501 15.119,-6.492l27.406,0c1.289,0 2.338,1.048 2.338,2.336l0,24.625Zm-58.014,-15.029c-1.498,0 -2.717,1.219 -2.717,2.717c0,1.498 1.219,2.717 2.717,2.717c1.499,0 2.719,-1.219 2.719,-2.717c0,-1.498 -1.22,-2.717 -2.719,-2.717Zm-0.281,2.717c0,-0.156 0.126,-0.283 0.281,-0.283c0.156,0 0.283,0.127 0.283,0.283c0.001,0.313 -0.564,0.317 -0.564,0Zm35.383,-8.42c-0.828,0 -1.5,0.672 -1.5,1.5l0,13.84c0,0.828 0.672,1.5 1.5,1.5c0.828,0 1.5,-0.672 1.5,-1.5l0,-13.84c0,-0.828 -0.672,-1.5 -1.5,-1.5Zm-5.844,0c-0.828,0 -1.5,0.672 -1.5,1.5l0,13.84c0,0.828 0.672,1.5 1.5,1.5c0.828,0 1.5,-0.672 1.5,-1.5l0,-13.84c0,-0.828 -0.672,-1.5 -1.5,-1.5Zm-41.148,5.703c-1.499,0 -2.719,1.219 -2.719,2.717c0,1.498 1.22,2.717 2.719,2.717c1.498,0 2.717,-1.219 2.717,-2.717c0,-1.498 -1.219,-2.717 -2.717,-2.717Zm-0.283,2.717c0,-0.159 0.124,-0.283 0.283,-0.283c0.155,0 0.281,0.127 0.281,0.283c0.001,0.316 -0.563,0.314 -0.564,0Zm-11.61,-2.717c-1.498,0 -2.717,1.219 -2.717,2.717c0,1.498 1.219,2.717 2.717,2.717c1.498,0 2.717,-1.219 2.717,-2.717c0,-1.498 -1.219,-2.717 -2.717,-2.717Zm0,3c-0.159,0 -0.283,-0.124 -0.283,-0.283c0,-0.156 0.127,-0.283 0.283,-0.283c0.153,0 0.283,0.13 0.283,0.283c0,0.156 -0.127,0.283 -0.283,0.283Zm64.729,-8.703c-0.828,0 -1.5,0.672 -1.5,1.5l0,13.84c0,0.828 0.672,1.5 1.5,1.5c0.828,0 1.5,-0.672 1.5,-1.5l0,-13.84c0,-0.828 -0.672,-1.5 -1.5,-1.5Zm-17.479,-22.101l-20.875,0c-0.828,0 -1.5,0.672 -1.5,1.5c0,0.828 0.672,1.5 1.5,1.5l20.875,0c0.828,0 1.5,-0.672 1.5,-1.5c0,-0.828 -0.672,-1.5 -1.5,-1.5Zm0,7.625l-20.875,0c-0.828,0 -1.5,0.672 -1.5,1.5c0,0.828 0.672,1.5 1.5,1.5l20.875,0c0.828,0 1.5,-0.672 1.5,-1.5c0,-0.828 -0.672,-1.5 -1.5,-1.5Zm0,-15.25l-20.875,0c-0.828,0 -1.5,0.672 -1.5,1.5c0,0.828 0.672,1.5 1.5,1.5l20.875,0c0.828,0 1.5,-0.672 1.5,-1.5c0,-0.828 -0.672,-1.5 -1.5,-1.5Z" style="fill:url(#_Linear1);fill-rule:nonzero;"/><defs><linearGradient id="_Linear1" x1="0" y1="0" x2="1" y2="0" gradientUnits="userSpaceOnUse" gradientTransform="matrix(95.8264,0,0,85.2527,2.08689,50.2113)"><stop offset="0" style="stop-color:#1685ff;stop-opacity:1"/><stop offset="0.5" style="stop-color:#8b5cf6;stop-opacity:1"/><stop offset="1" style="stop-color:#d946ef;stop-opacity:1"/></linearGradient></defs></svg>