<svg width="64" height="64" viewBox="0 0 64 64" fill="none" xmlns="http://www.w3.org/2000/svg">
<g clip-path="url(#clip0_313_767)">
<path d="M6.42105 15.6316H10.6842V12.7895H7.84211V2.84211H56.1579V12.7895H24.8947V15.6316H57.5789C58.3605 15.6316 59 14.9921 59 14.2105V1.42105C59 0.639474 58.3605 0 57.5789 0H6.42105C5.63947 0 5 0.639474 5 1.42105V14.2105C5 14.9921 5.63947 15.6316 6.42105 15.6316Z" fill="url(#paint0_linear_313_767)"/>
<path d="M6.42105 38.3684H10.6842V35.5263H7.84211V25.5789H56.1579V35.5263H24.8947V38.3684H57.5789C58.3605 38.3684 59 37.7289 59 36.9473V24.1578C59 23.3763 58.3605 22.7368 57.5789 22.7368H19.2105V15.6315H22.0526V12.7894H13.5263V15.6315H16.3684V22.7368H6.42105C5.63947 22.7368 5 23.3763 5 24.1578V36.9473C5 37.7289 5.63947 38.3684 6.42105 38.3684Z" fill="url(#paint1_linear_313_767)"/>
<path d="M6.42105 61.1053H10.6842V58.2632H7.84211V48.3158H56.1579V58.2632H24.8947V61.1053H57.5789C58.3605 61.1053 59 60.4658 59 59.6843V46.8948C59 46.1132 58.3605 45.4737 57.5789 45.4737H19.2105V38.3685H22.0526V35.5264H13.5263V38.3685H16.3684V45.4737H6.42105C5.63947 45.4737 5 46.1132 5 46.8948V59.6843C5 60.4658 5.63947 61.1053 6.42105 61.1053Z" fill="url(#paint2_linear_313_767)"/>
<path d="M44.7895 7.10522H19.2106V9.94733H44.7895V7.10522Z" fill="url(#paint3_linear_313_767)"/>
<path d="M44.7895 29.8422H19.2106V32.6843H44.7895V29.8422Z" fill="url(#paint4_linear_313_767)"/>
<path d="M19.2106 63.9473V61.1052H22.0527V58.2631H19.2106V55.421H16.3685V58.2631H13.5264V61.1052H16.3685V63.9473H19.2106Z" fill="url(#paint5_linear_313_767)"/>
<path d="M44.7895 52.579H22.0526V55.4211H44.7895V52.579Z" fill="url(#paint6_linear_313_767)"/>
</g>
<defs>
<linearGradient id="paint0_linear_313_767" x1="5.00015" y1="7.85344" x2="59.0012" y2="7.85344" gradientUnits="userSpaceOnUse">
<stop stop-color="#1685FF"/>
<stop offset="0.5" stop-color="#8B5CF6"/>
<stop offset="1" stop-color="#D946EF"/>
</linearGradient>
<linearGradient id="paint1_linear_313_767" x1="5.00015" y1="25.6405" x2="59.0012" y2="25.6405" gradientUnits="userSpaceOnUse">
<stop stop-color="#1685FF"/>
<stop offset="0.5" stop-color="#8B5CF6"/>
<stop offset="1" stop-color="#D946EF"/>
</linearGradient>
<linearGradient id="paint2_linear_313_767" x1="5.00015" y1="48.3775" x2="59.0012" y2="48.3775" gradientUnits="userSpaceOnUse">
<stop stop-color="#1685FF"/>
<stop offset="0.5" stop-color="#8B5CF6"/>
<stop offset="1" stop-color="#D946EF"/>
</linearGradient>
<linearGradient id="paint3_linear_313_767" x1="19.2106" y1="8.53312" x2="44.7901" y2="8.53312" gradientUnits="userSpaceOnUse">
<stop stop-color="#1685FF"/>
<stop offset="0.5" stop-color="#8B5CF6"/>
<stop offset="1" stop-color="#D946EF"/>
</linearGradient>
<linearGradient id="paint4_linear_313_767" x1="19.2106" y1="31.2701" x2="44.7901" y2="31.2701" gradientUnits="userSpaceOnUse">
<stop stop-color="#1685FF"/>
<stop offset="0.5" stop-color="#8B5CF6"/>
<stop offset="1" stop-color="#D946EF"/>
</linearGradient>
<linearGradient id="paint5_linear_313_767" x1="13.5264" y1="59.7047" x2="22.0529" y2="59.7047" gradientUnits="userSpaceOnUse">
<stop stop-color="#1685FF"/>
<stop offset="0.5" stop-color="#8B5CF6"/>
<stop offset="1" stop-color="#D946EF"/>
</linearGradient>
<linearGradient id="paint6_linear_313_767" x1="22.0527" y1="54.0069" x2="44.7899" y2="54.0069" gradientUnits="userSpaceOnUse">
<stop stop-color="#1685FF"/>
<stop offset="0.5" stop-color="#8B5CF6"/>
<stop offset="1" stop-color="#D946EF"/>
</linearGradient>
<clipPath id="clip0_313_767">
<rect width="64" height="64" fill="white"/>
</clipPath>
</defs>
</svg>
