<?xml version="1.0" encoding="UTF-8" standalone="no"?><!DOCTYPE svg PUBLIC "-//W3C//DTD SVG 1.1//EN" "http://www.w3.org/Graphics/SVG/1.1/DTD/svg11.dtd"><svg width="100%" height="100%" viewBox="0 0 100 100" version="1.1" xmlns="http://www.w3.org/2000/svg" xmlns:xlink="http://www.w3.org/1999/xlink" xml:space="preserve" xmlns:serif="http://www.serif.com/" style="fill-rule:evenodd;clip-rule:evenodd;stroke-linejoin:round;stroke-miterlimit:2;"><rect id="Artboard1" x="0" y="0" width="100" height="100" style="fill:none;"/><path d="M88.94,36.325c-0.62,-3.34 -3.61,-5.88 -7.06,-5.88l-4.16,-0c-0.19,-0.5 -0.39,-0.98 -0.6,-1.46l2.94,-2.95c2.8,-2.8 2.8,-7.35 0,-10.15l-6.37,-6.37c-2.8,-2.8 -7.36,-2.79 -10.15,-0l-2.95,2.95c-0.48,-0.21 -0.97,-0.41 -1.46,-0.6l0,-4.17c0,-3.96 -3.22,-7.18 -7.18,-7.18l-9.01,-0c-3.96,-0 -7.18,3.22 -7.18,7.18l0,4.16c-0.49,0.19 -0.98,0.39 -1.46,0.6l-2.95,-2.95c-2.8,-2.8 -7.35,-2.8 -10.15,-0l-6.37,6.37c-2.8,2.8 -2.8,7.35 0,10.15l2.95,2.95c-0.21,0.48 -0.42,0.97 -0.6,1.46l-4.17,-0c-3.96,-0 -7.18,3.22 -7.18,7.18l0,9.01c0,3.96 3.22,7.18 7.18,7.18l4.16,-0c0.19,0.5 0.4,0.99 0.61,1.46l-2.95,2.95c-1.35,1.35 -2.1,3.15 -2.1,5.07c0,1.92 0.74,3.72 2.1,5.07l6.37,6.37c2.8,2.8 7.35,2.8 10.15,-0l2.95,-2.95c0.48,0.21 0.96,0.41 1.46,0.61l0,4.16c0,3.96 3.22,7.18 7.18,7.18l9.01,-0c3.96,-0 7.18,-3.22 7.18,-7.18l0,-4.16c0.5,-0.19 0.98,-0.39 1.46,-0.61l2.95,2.95c1.66,1.66 4.02,2.36 6.25,2l0,14.64c0,4.48 3.64,8.12 8.12,8.12l0.14,-0c4.48,-0 8.12,-3.64 8.12,-8.12l0,-29.16c4.96,-2.9 8,-8.17 8,-13.97c0,-4.55 -1.89,-8.84 -5.23,-11.91Zm-23.22,36.24l-3.71,-3.71c-0.47,-0.47 -1.18,-0.59 -1.77,-0.3c-1,0.49 -2.06,0.93 -3.16,1.32c-0.62,0.22 -1.04,0.8 -1.04,1.46l0,5.24c0,2.25 -1.83,4.09 -4.09,4.09l-9.01,-0c-2.25,-0 -4.09,-1.83 -4.09,-4.09l0,-5.24c0,-0.66 -0.41,-1.24 -1.03,-1.46c-1.1,-0.39 -2.16,-0.83 -3.17,-1.32c-0.59,-0.29 -1.3,-0.17 -1.77,0.3l-3.71,3.71c-1.59,1.59 -4.18,1.59 -5.78,-0l-6.37,-6.37c-0.77,-0.77 -1.19,-1.79 -1.19,-2.89c0,-1.09 0.42,-2.12 1.19,-2.89l3.71,-3.71c0.47,-0.47 0.59,-1.18 0.3,-1.77c-0.48,-0.98 -0.92,-2.05 -1.32,-3.16c-0.22,-0.62 -0.8,-1.03 -1.46,-1.03l-5.24,-0c-2.25,-0 -4.09,-1.83 -4.09,-4.09l0,-9.01c0,-2.25 1.83,-4.09 4.09,-4.09l5.25,-0c0.66,-0 1.25,-0.42 1.46,-1.04c0.37,-1.06 0.81,-2.13 1.31,-3.16c0.29,-0.59 0.17,-1.3 -0.3,-1.77l-3.71,-3.71c-1.59,-1.59 -1.59,-4.18 0,-5.78l6.37,-6.37c1.59,-1.59 4.18,-1.59 5.78,-0l3.71,3.71c0.47,0.47 1.18,0.59 1.77,0.3c1.01,-0.49 2.08,-0.94 3.16,-1.31c0.62,-0.22 1.04,-0.8 1.04,-1.46l0,-5.27c0,-2.25 1.83,-4.09 4.09,-4.09l9.01,-0c2.25,-0 4.09,1.83 4.09,4.09l0,5.25c0,0.66 0.42,1.25 1.04,1.46c1.09,0.37 2.15,0.81 3.16,1.31c0.59,0.29 1.31,0.17 1.77,-0.3l3.71,-3.71c1.59,-1.59 4.19,-1.59 5.78,-0l6.37,6.37c1.59,1.59 1.59,4.18 0,5.78l-3.71,3.71c-0.46,0.47 -0.58,1.17 -0.3,1.77c0.48,1 0.93,2.06 1.31,3.17c0.22,0.62 0.8,1.03 1.46,1.03l5.24,-0c1.19,-0 2.29,0.53 3.04,1.38c-0.31,0.06 -0.62,0.17 -0.92,0.31c-1.43,0.67 -2.32,2.08 -2.32,3.66l0,7.93c0,2.04 -1.66,3.71 -3.71,3.71c-2.05,-0 -3.71,-1.66 -3.71,-3.71l0,-7.93c0,-1.58 -0.89,-2.98 -2.32,-3.66c-1.43,-0.67 -3.08,-0.46 -4.3,0.54c-0.24,0.2 -0.47,0.4 -0.69,0.61c-2.51,-8.51 -10.41,-14.59 -19.53,-14.59c-11.22,-0 -20.36,9.13 -20.36,20.36c0,11.23 9.13,20.36 20.36,20.36c6.16,-0 11.97,-2.82 15.8,-7.53c1.36,2.99 3.62,5.53 6.54,7.24l0,11.38c-1.37,0.41 -2.96,0.04 -4.03,-1.03Zm-3.64,-21.27c-3.15,5.01 -8.7,8.1 -14.64,8.1c-9.52,-0 -17.26,-7.74 -17.26,-17.26c-0,-9.52 7.74,-17.26 17.26,-17.26c8.45,-0 15.67,6.17 17.03,14.44c-1.73,2.62 -2.68,5.71 -2.68,8.93c-0,1.03 0.1,2.05 0.29,3.05Zm21.85,8.62c-0.52,0.26 -0.84,0.8 -0.84,1.38l-0,30.1c-0,2.77 -2.25,5.03 -5.03,5.03l-0.14,-0c-2.77,-0 -5.03,-2.26 -5.03,-5.03l-0,-30.1c-0,-0.07 -0.01,-0.13 -0.01,-0.19c-0,-0.02 -0,-0.03 -0.01,-0.05c-0.01,-0.05 -0.02,-0.1 -0.03,-0.16c-0,-0.01 -0.01,-0.02 -0.01,-0.03c-0.02,-0.06 -0.04,-0.12 -0.07,-0.18c-0,-0.01 -0.01,-0.01 -0.01,-0.02c-0.02,-0.05 -0.05,-0.1 -0.08,-0.15c-0.01,-0.01 -0.02,-0.03 -0.02,-0.04c-0.03,-0.05 -0.07,-0.1 -0.1,-0.14c-0,-0 -0,-0.01 -0.01,-0.01c-0.04,-0.05 -0.08,-0.09 -0.13,-0.14c-0.01,-0.01 -0.03,-0.02 -0.04,-0.03c-0.04,-0.03 -0.08,-0.07 -0.12,-0.1c-0.01,-0.01 -0.02,-0.01 -0.03,-0.02c-0.05,-0.04 -0.11,-0.07 -0.17,-0.1c-0,-0 -0.01,-0 -0.01,-0.01c-3.47,-1.77 -5.91,-4.92 -6.79,-8.6c-0.01,-0.06 -0.02,-0.12 -0.04,-0.17c-0.21,-0.94 -0.32,-1.91 -0.32,-2.91c-0,-3.92 1.73,-7.6 4.75,-10.09c0.18,-0.15 0.38,-0.23 0.59,-0.23c0.14,-0 0.28,0.03 0.42,0.1c0.36,0.17 0.54,0.47 0.54,0.86l-0,7.93c-0,3.75 3.05,6.8 6.8,6.8c3.75,-0 6.8,-3.05 6.8,-6.8l-0,-7.93c-0,-0.39 0.19,-0.69 0.54,-0.86c0.35,-0.16 0.7,-0.12 1,0.12c3.02,2.5 4.75,6.18 4.75,10.09c-0,4.95 -2.74,9.43 -7.15,11.68Zm-4.37,32.03c0,0.85 -0.69,1.55 -1.55,1.55l-0.07,-0c-0.85,-0 -1.55,-0.69 -1.55,-1.55c0,-0.86 0.69,-1.55 1.55,-1.55l0.07,-0c0.86,0.01 1.55,0.7 1.55,1.55Zm-39.67,-51.07l0,-8.23c0,-0.85 -0.69,-1.55 -1.55,-1.55c-0.86,-0 -1.55,0.69 -1.55,1.55l0,8.23c-1.72,0.63 -2.95,2.29 -2.95,4.22c0,1.94 1.23,3.59 2.96,4.22c-0.01,0.05 -0.01,0.1 -0.01,0.16l0,2.15c0,0.85 0.69,1.55 1.55,1.55c0.86,-0 1.55,-0.69 1.55,-1.55l0,-2.15c0,-0.05 0,-0.1 -0.01,-0.16c1.72,-0.63 2.95,-2.28 2.95,-4.22c0.01,-1.94 -1.22,-3.59 -2.94,-4.22Zm-1.54,5.62c-0.77,-0 -1.4,-0.63 -1.4,-1.4c-0,-0.77 0.63,-1.4 1.4,-1.4c0.77,-0 1.4,0.63 1.4,1.4c-0,0.77 -0.63,1.4 -1.4,1.4Zm19.74,-5.62l-0,-8.23c-0,-0.85 -0.69,-1.55 -1.55,-1.55c-0.86,-0 -1.54,0.7 -1.54,1.55l-0,8.23c-1.72,0.63 -2.94,2.28 -2.94,4.22c-0,1.94 1.23,3.59 2.95,4.22c-0.01,0.05 -0.01,0.1 -0.01,0.15l-0,2.15c-0,0.85 0.69,1.55 1.55,1.55c0.86,-0 1.55,-0.69 1.55,-1.55l-0,-2.15c-0,-0.05 -0,-0.1 -0.01,-0.16c1.72,-0.63 2.96,-2.28 2.96,-4.22c-0.01,-1.93 -1.24,-3.58 -2.96,-4.21Zm-1.55,5.62c-0.76,-0 -1.4,-0.64 -1.4,-1.4c-0,-0.77 0.63,-1.4 1.4,-1.4c0.77,-0 1.4,0.63 1.4,1.4c0.01,0.77 -0.62,1.4 -1.4,1.4Zm-7.56,-11.54c0.01,-0.05 0.01,-0.1 0.01,-0.16l-0,-2.15c-0,-0.85 -0.69,-1.55 -1.55,-1.55c-0.86,-0 -1.55,0.69 -1.55,1.55l-0,2.15c-0,0.05 -0,0.1 0.01,0.16c-1.72,0.63 -2.95,2.28 -2.95,4.22c-0,1.93 1.23,3.59 2.94,4.22l-0,8.23c-0,0.85 0.69,1.55 1.55,1.55c0.86,-0 1.55,-0.69 1.55,-1.55l-0,-8.23c1.72,-0.63 2.95,-2.29 2.95,-4.22c-0,-1.94 -1.23,-3.59 -2.96,-4.22Zm-1.53,5.62c-0.77,-0 -1.4,-0.63 -1.4,-1.4c-0,-0.76 0.64,-1.4 1.4,-1.4c0.77,-0 1.4,0.63 1.4,1.4c-0,0.77 -0.63,1.4 -1.4,1.4Z" style="fill:url(#_Linear1);fill-rule:nonzero;"/><defs><linearGradient id="_Linear1" x1="0" y1="0" x2="1" y2="0" gradientUnits="userSpaceOnUse" gradientTransform="matrix(88.3404,0,0,96.205,5.8299,50.2384)"><stop offset="0" style="stop-color:#1685ff;stop-opacity:1"/><stop offset="0.5" style="stop-color:#8b5cf6;stop-opacity:1"/><stop offset="1" style="stop-color:#d946ef;stop-opacity:1"/></linearGradient></defs></svg>