<svg width="61" height="60" viewBox="0 0 61 60" fill="none" xmlns="http://www.w3.org/2000/svg">
<path fill-rule="evenodd" clip-rule="evenodd" d="M14.2447 38.3003H4.19914C3.74944 38.3003 3.38867 38.6636 3.38867 39.0981V57.729C3.38867 58.1762 3.74944 58.5395 4.19914 58.5395H14.1862C14.6054 58.5242 14.9534 58.1914 14.9687 57.7595V55.2697C20.4692 56.5857 25.9697 57.9044 31.4701 59.2204C33.5967 59.9013 35.6673 59.1772 37.4204 57.917C43.4722 53.9511 49.5797 50.0588 55.5732 46.0068C59.6408 43.2552 57.1357 38.799 52.3161 40.4173C48.8405 41.5911 45.5707 43.2552 42.2549 44.7898C41.7341 43.6745 40.7509 42.9504 39.5034 42.9504L28.2585 42.9478C26.5639 42.9478 24.6533 41.4133 22.9892 40.9509C20.4282 40.2573 17.6055 40.3132 14.9709 40.4453V39.0835C14.9532 38.6922 14.6512 38.3003 14.2447 38.3003ZM31.0077 40.6022C19.7452 40.8918 10.4515 31.8295 10.4515 20.5663C10.4515 9.50681 19.4402 0.518188 30.4997 0.518188C41.5742 0.518188 50.5478 9.49186 50.5478 20.5663C50.5504 31.4249 41.8636 40.3401 31.0077 40.6022ZM12.1309 22.9267H29.3998C32.4969 22.9267 32.4969 18.2367 29.3998 18.2367H12.1309C12.0445 19.0039 11.9708 19.7991 11.9708 20.5664C11.9733 21.3489 12.0318 22.1467 12.1309 22.9267ZM12.3926 24.4485C13.3199 28.8514 15.8529 32.7562 19.4553 35.4495C22.654 37.8224 26.5181 39.0979 30.4993 39.0979C31.889 39.0979 33.2635 38.9404 34.61 38.6355C34.8997 38.5771 35.174 38.5059 35.4485 38.417C37.5902 37.2025 36.7366 33.9023 34.262 33.9023C29.079 33.9023 29.079 26.0135 34.262 26.0135C38.8936 26.0135 43.5557 26.0719 48.1872 26.0135C49.8234 20.6578 48.9392 14.883 45.8422 10.2359C42.3844 5.05037 36.7235 2.03944 30.5017 2.03944C28.1846 2.03944 26.1013 2.45864 23.9293 3.27163C23.726 3.63494 23.6244 4.03892 23.6244 4.45811C23.6244 5.78943 24.7093 6.87684 26.0432 6.87684C31.2261 6.87684 31.2261 14.75 26.0432 14.75L12.9257 14.7475C12.7072 15.4004 12.5345 16.0508 12.3896 16.7165H29.3991C34.5236 16.7165 34.5236 24.4452 29.3991 24.4452L12.3926 24.4485ZM47.6544 27.5303H47.4359H34.2651C31.0817 27.5303 31.0817 32.3804 34.2651 32.3804C36.9278 32.3804 38.8104 34.9871 38.0279 37.4897C42.3851 35.5511 45.8606 31.9609 47.6544 27.5303ZM13.5054 13.2292H26.0407C29.2242 13.2292 29.2242 8.39176 26.0407 8.39176C23.8685 8.39176 22.1027 6.61329 22.1027 4.45374C22.1027 4.32417 22.1027 4.19459 22.1154 4.07772C18.2841 6.03402 15.2153 9.27866 13.5054 13.2292ZM4.8953 39.8068H13.4651V57.0322H4.8953V39.8068ZM26.0869 49.7508C26.3181 49.2173 26.8389 48.8667 27.4334 48.8667H39.5063C40.9977 48.8667 42.1994 47.7946 42.4458 46.3337C45.8478 44.728 49.2192 43.0486 52.7964 41.8469C55.8223 40.8205 57.4432 42.919 54.7349 44.7585C48.8 48.7677 42.7785 52.6037 36.8006 56.527C34.8037 57.8303 34.0059 58.2927 31.5897 57.7008C26.046 56.3669 20.5152 55.0509 14.9712 53.7196L14.9686 41.9485C17.4737 41.8342 20.1516 41.7452 22.5979 42.4109C24.5364 42.9317 26.1446 44.4536 28.2432 44.4536H39.5057C41.4315 44.4536 41.4315 47.3626 39.5057 47.3626H27.4328C26.2769 47.3626 25.2326 48.0436 24.7398 49.0852C24.2774 50.0684 25.6804 50.6935 26.0869 49.7508Z" fill="url(#paint0_linear_246_597)"/>
<defs>
<linearGradient id="paint0_linear_246_597" x1="0.354664" y1="25.0279" x2="63.671" y2="25.0279" gradientUnits="userSpaceOnUse">
<stop stop-color="#1685FF"/>
<stop offset="1" stop-color="#F544CE"/>
</linearGradient>
</defs>
</svg>
