<svg width="60" height="60" viewBox="0 0 60 60" fill="none" xmlns="http://www.w3.org/2000/svg">
<g clip-path="url(#clip0_479_51)">
<path d="M10.3418 49.6582H4.98047V44.2969H1.40625V58.5938H4.98047V53.2324H10.3418V58.5938H13.916V44.2969H10.3418V49.6582Z" fill="url(#paint0_linear_479_51)"/>
<path d="M17.4902 47.8711H21.0645V58.5938H24.6387V47.8711H28.2129V44.2969H17.4902V47.8711Z" fill="url(#paint1_linear_479_51)"/>
<path d="M31.7871 47.8711H35.3613V58.5938H38.9355V47.8711H42.5098V44.2969H31.7871V47.8711Z" fill="url(#paint2_linear_479_51)"/>
<path d="M53.2324 44.2969H46.084V58.5938H49.6582V55.0195H53.2324C54.6543 55.0195 56.018 54.4547 57.0235 53.4492C58.0289 52.4438 58.5937 51.0801 58.5938 49.6582C58.5937 48.2363 58.0289 46.8726 57.0235 45.8672C56.018 44.8617 54.6543 44.2969 53.2324 44.2969ZM53.2324 51.4453H49.6582V47.8711H53.2324C53.7064 47.8711 54.161 48.0594 54.4961 48.3945C54.8312 48.7297 55.0195 49.1842 55.0195 49.6582C55.0195 50.1322 54.8312 50.5867 54.4961 50.9219C54.161 51.257 53.7064 51.4453 53.2324 51.4453Z" fill="url(#paint3_linear_479_51)"/>
<path d="M1.40625 1.40625V40.7227H4.98047V19.2773H55.0195V40.7227H58.5938V1.40625H1.40625ZM55.0195 15.7031H4.98047V4.98047H55.0195V15.7031Z" fill="url(#paint4_linear_479_51)"/>
<path d="M12.1289 8.55469H8.55469V12.1289H12.1289V8.55469Z" fill="url(#paint5_linear_479_51)"/>
<path d="M19.2773 8.55469H15.7031V12.1289H19.2773V8.55469Z" fill="url(#paint6_linear_479_51)"/>
<path d="M51.4453 8.55469H22.8516V12.1289H51.4453V8.55469Z" fill="url(#paint7_linear_479_51)"/>
</g>
<defs>
<linearGradient id="paint0_linear_479_51" x1="1.40628" y1="51.4798" x2="13.9163" y2="51.4798" gradientUnits="userSpaceOnUse">
<stop stop-color="#1685FF"/>
<stop offset="0.5" stop-color="#8B5CF6"/>
<stop offset="1" stop-color="#D946EF"/>
</linearGradient>
<linearGradient id="paint1_linear_479_51" x1="17.4903" y1="51.4798" x2="28.2131" y2="51.4798" gradientUnits="userSpaceOnUse">
<stop stop-color="#1685FF"/>
<stop offset="0.5" stop-color="#8B5CF6"/>
<stop offset="1" stop-color="#D946EF"/>
</linearGradient>
<linearGradient id="paint2_linear_479_51" x1="31.7871" y1="51.4798" x2="42.51" y2="51.4798" gradientUnits="userSpaceOnUse">
<stop stop-color="#1685FF"/>
<stop offset="0.5" stop-color="#8B5CF6"/>
<stop offset="1" stop-color="#D946EF"/>
</linearGradient>
<linearGradient id="paint3_linear_479_51" x1="46.084" y1="51.4798" x2="58.594" y2="51.4798" gradientUnits="userSpaceOnUse">
<stop stop-color="#1685FF"/>
<stop offset="0.5" stop-color="#8B5CF6"/>
<stop offset="1" stop-color="#D946EF"/>
</linearGradient>
<linearGradient id="paint4_linear_479_51" x1="1.40641" y1="21.1592" x2="58.595" y2="21.1592" gradientUnits="userSpaceOnUse">
<stop stop-color="#1685FF"/>
<stop offset="0.5" stop-color="#8B5CF6"/>
<stop offset="1" stop-color="#D946EF"/>
</linearGradient>
<linearGradient id="paint5_linear_479_51" x1="8.5547" y1="10.3504" x2="12.129" y2="10.3504" gradientUnits="userSpaceOnUse">
<stop stop-color="#1685FF"/>
<stop offset="0.5" stop-color="#8B5CF6"/>
<stop offset="1" stop-color="#D946EF"/>
</linearGradient>
<linearGradient id="paint6_linear_479_51" x1="15.7031" y1="10.3504" x2="19.2774" y2="10.3504" gradientUnits="userSpaceOnUse">
<stop stop-color="#1685FF"/>
<stop offset="0.5" stop-color="#8B5CF6"/>
<stop offset="1" stop-color="#D946EF"/>
</linearGradient>
<linearGradient id="paint7_linear_479_51" x1="22.8516" y1="10.3504" x2="51.4459" y2="10.3504" gradientUnits="userSpaceOnUse">
<stop stop-color="#1685FF"/>
<stop offset="0.5" stop-color="#8B5CF6"/>
<stop offset="1" stop-color="#D946EF"/>
</linearGradient>
<clipPath id="clip0_479_51">
<rect width="60" height="60" fill="white"/>
</clipPath>
</defs>
</svg>
