<svg width="30" height="30" viewBox="0 0 30 30" fill="none" xmlns="http://www.w3.org/2000/svg">
<path d="M26.3401 5H4.34699C3.60426 5 3 5.60431 3 6.34704V18.2093C3 18.952 3.60426 19.5563 4.34699 19.5563H12.8103V22.4086H9.54071C8.79797 22.4086 8.19371 22.9898 8.19371 23.7043C8.19371 24.4187 8.79797 25 9.54071 25H21.1464C21.8892 25 22.4935 24.4187 22.4935 23.7043C22.4935 22.9898 21.8892 22.4086 21.1464 22.4086H17.8768V19.5563H22.9168L24.4171 21.0566C24.6412 21.2807 24.9458 21.4092 25.2529 21.4092C25.5339 21.4092 25.7938 21.304 25.985 21.1129C26.3983 20.6996 26.3763 20.0047 25.939 19.5563H26.3401C27.0829 19.5563 27.6872 18.9521 27.6872 18.2093V6.34704C27.6872 5.60431 27.0829 5 26.3401 5ZM27.3015 18.2093C27.3015 18.7393 26.8702 19.1706 26.3401 19.1706H25.5543L24.7217 18.338H26.2759C26.3824 18.338 26.4688 18.2517 26.4688 18.1452V6.41117C26.4688 6.30466 26.3824 6.2183 26.2759 6.2183H4.41108C4.30456 6.2183 4.21821 6.30466 4.21821 6.41117V18.1451C4.21821 18.2516 4.30456 18.338 4.41108 18.338H21.6985L22.5311 19.1705H4.34699C3.81694 19.1705 3.38574 18.7393 3.38574 18.2093V6.34704C3.38574 5.81699 3.81694 5.38574 4.34699 5.38574H26.3401C26.8702 5.38574 27.3015 5.81694 27.3015 6.34704V18.2093ZM25.6559 19.8177C25.9533 20.1152 25.9786 20.5738 25.7122 20.8401C25.5939 20.9583 25.4308 21.0235 25.2529 21.0235C25.0473 21.0235 24.8421 20.9361 24.6898 20.7838L21.4606 17.5545L22.4266 16.5884L25.6559 19.8177ZM26.0831 7.99241H4.60394V6.60404H26.0831V7.99241ZM4.60394 8.37814H26.0831V17.9523H24.336L21.8558 15.4721C22.8954 13.753 22.6747 11.4797 21.1919 9.99679C20.3474 9.15227 19.2246 8.68726 18.0304 8.68726C16.8362 8.68726 15.7134 9.15237 14.8689 9.99684C14.0244 10.8413 13.5593 11.9641 13.5593 13.1583C13.5593 14.3526 14.0244 15.4754 14.8689 16.3198C15.7134 17.1643 16.8362 17.6293 18.0304 17.6293C18.8597 17.6293 19.6542 17.4046 20.3454 16.9849L21.3127 17.9522H4.60394V8.37814ZM18.0304 17.2436C16.9392 17.2436 15.9133 16.8187 15.1417 16.0471C14.37 15.2755 13.9451 14.2496 13.9451 13.1584C13.9451 12.0671 14.37 11.0412 15.1417 10.2696C15.9133 9.49799 16.9392 9.07305 18.0304 9.07305C19.1217 9.07305 20.1475 9.49799 20.9191 10.2696C22.512 11.8625 22.512 14.4543 20.9192 16.0471C20.1476 16.8187 19.1217 17.2436 18.0304 17.2436ZM20.6722 16.7661C20.8548 16.6319 21.0287 16.4832 21.192 16.3198C21.3562 16.1557 21.5049 15.9817 21.6382 15.7999L22.1539 16.3157L21.1878 17.2818L20.6722 16.7661ZM21.1464 24.6143H9.54071C9.01066 24.6143 8.57945 24.2061 8.57945 23.7043C8.57945 23.2026 9.01066 22.7943 9.54071 22.7943H21.1464C21.6765 22.7943 22.1077 23.2026 22.1077 23.7043C22.1077 24.2061 21.6765 24.6143 21.1464 24.6143ZM13.196 22.4085V19.5563H17.491V22.4085H13.196Z" fill="url(#paint0_linear_1774_123)"/>
<path d="M5.38818 7.51757H5.75685C5.86336 7.51757 5.94972 7.43122 5.94972 7.3247C5.94972 7.21819 5.86336 7.13184 5.75685 7.13184H5.38818C5.28167 7.13184 5.19531 7.21819 5.19531 7.3247C5.19531 7.43122 5.28167 7.51757 5.38818 7.51757Z" fill="url(#paint1_linear_1774_123)"/>
<path d="M6.66943 7.51757H7.03815C7.14466 7.51757 7.23102 7.43122 7.23102 7.3247C7.23102 7.21819 7.14466 7.13184 7.03815 7.13184H6.66943C6.56292 7.13184 6.47656 7.21819 6.47656 7.3247C6.47656 7.43122 6.56292 7.51757 6.66943 7.51757Z" fill="url(#paint2_linear_1774_123)"/>
<path d="M7.95068 7.51757H8.3194C8.42591 7.51757 8.51227 7.43122 8.51227 7.3247C8.51227 7.21819 8.42591 7.13184 8.3194 7.13184H7.95068C7.84417 7.13184 7.75781 7.21819 7.75781 7.3247C7.75781 7.43122 7.84417 7.51757 7.95068 7.51757Z" fill="url(#paint3_linear_1774_123)"/>
<path d="M20.4379 15.5636C21.7641 14.2374 21.7641 12.0794 20.4379 10.7531C19.7954 10.1107 18.9413 9.75684 18.0327 9.75684C17.1241 9.75684 16.2699 10.1107 15.6274 10.7531C14.3013 12.0795 14.3013 14.2374 15.6274 15.5636C16.2699 16.206 17.1241 16.5599 18.0327 16.5599C18.9413 16.5599 19.7955 16.206 20.4379 15.5636ZM15.9002 15.2908C14.7244 14.115 14.7244 12.2018 15.9002 11.0259C16.4698 10.4563 17.2272 10.1426 18.0327 10.1426C18.8382 10.1426 19.5956 10.4563 20.1652 11.0259C21.341 12.2017 21.341 14.1149 20.1652 15.2908C19.5956 15.8604 18.8382 16.1741 18.0327 16.1741C17.2271 16.1742 16.4698 15.8605 15.9002 15.2908Z" fill="url(#paint4_linear_1774_123)"/>
<path d="M8.16031 14.2764H5.25537C5.14886 14.2764 5.0625 14.3627 5.0625 14.4692V17.3742C5.0625 17.4807 5.14886 17.5671 5.25537 17.5671H8.16031C8.26682 17.5671 8.35318 17.4807 8.35318 17.3742V14.4692C8.35318 14.3627 8.26682 14.2764 8.16031 14.2764ZM7.96744 17.1814H5.44824V14.6621H6.13716V15.3281C6.13716 15.3973 6.1742 15.4612 6.23418 15.4955C6.29426 15.5299 6.36803 15.5295 6.42767 15.4945L6.70791 15.33L6.9881 15.4945C7.01824 15.5122 7.05199 15.521 7.08574 15.521C7.11882 15.521 7.15189 15.5126 7.18155 15.4956C7.24158 15.4612 7.27861 15.3974 7.27861 15.3282V14.6621H7.96749L7.96744 17.1814ZM6.89282 14.6621V14.9912L6.8055 14.94C6.74523 14.9046 6.67054 14.9046 6.61022 14.94L6.52285 14.9912V14.6621H6.89282Z" fill="url(#paint5_linear_1774_123)"/>
<path d="M11.8556 14.2764H8.95068C8.84417 14.2764 8.75781 14.3627 8.75781 14.4692V17.3742C8.75781 17.4807 8.84417 17.5671 8.95068 17.5671H11.8556C11.9621 17.5671 12.0485 17.4807 12.0485 17.3742V14.4692C12.0485 14.3627 11.9621 14.2764 11.8556 14.2764ZM11.6628 17.1814H9.14355V14.6621H9.83248V15.3281C9.83248 15.3973 9.86951 15.4612 9.92949 15.4955C9.98957 15.5299 10.0633 15.5295 10.123 15.4945L10.4032 15.33L10.6834 15.4945C10.7135 15.5122 10.7473 15.521 10.7811 15.521C10.8141 15.521 10.8472 15.5126 10.8769 15.4956C10.9369 15.4612 10.9739 15.3974 10.9739 15.3282V14.6621H11.6628V17.1814H11.6628ZM10.5881 14.6621V14.9912L10.5008 14.94C10.4405 14.9046 10.3659 14.9046 10.3055 14.94L10.2182 14.9912V14.6621H10.5881Z" fill="url(#paint6_linear_1774_123)"/>
<path d="M8.16031 10.6328H5.25537C5.14886 10.6328 5.0625 10.7192 5.0625 10.8257V13.7307C5.0625 13.8372 5.14886 13.9235 5.25537 13.9235H8.16031C8.26682 13.9235 8.35318 13.8372 8.35318 13.7307V10.8257C8.35318 10.7192 8.26682 10.6328 8.16031 10.6328ZM7.96744 13.5378H5.44824V11.0185H6.13716V11.6846C6.13716 11.7538 6.1742 11.8176 6.23418 11.852C6.29426 11.8864 6.36803 11.886 6.42767 11.8509L6.70791 11.6865L6.9881 11.8509C7.01824 11.8686 7.05199 11.8775 7.08574 11.8775C7.11882 11.8775 7.15189 11.869 7.18155 11.852C7.24158 11.8177 7.27861 11.7538 7.27861 11.6846V11.0186H7.96749L7.96744 13.5378ZM6.89282 11.0185V11.3477L6.8055 11.2964C6.74523 11.261 6.67054 11.261 6.61022 11.2964L6.52285 11.3477V11.0185H6.89282Z" fill="url(#paint7_linear_1774_123)"/>
<path d="M11.8556 10.6328H8.95068C8.84417 10.6328 8.75781 10.7192 8.75781 10.8257V13.7307C8.75781 13.8372 8.84417 13.9235 8.95068 13.9235H11.8556C11.9621 13.9235 12.0485 13.8372 12.0485 13.7307V10.8257C12.0485 10.7192 11.9621 10.6328 11.8556 10.6328ZM11.6628 13.5378H9.14355V11.0185H9.83248V11.6846C9.83248 11.7538 9.86951 11.8176 9.92949 11.852C9.98957 11.8864 10.0633 11.886 10.123 11.8509L10.4032 11.6865L10.6834 11.8509C10.7135 11.8686 10.7473 11.8775 10.7811 11.8775C10.8141 11.8775 10.8472 11.869 10.8769 11.852C10.9369 11.8177 10.9739 11.7538 10.9739 11.6846V11.0186H11.6628V13.5378H11.6628ZM10.5881 11.0185V11.3477L10.5008 11.2964C10.4405 11.261 10.3659 11.261 10.3055 11.2964L10.2182 11.3477V11.0185H10.5881Z" fill="url(#paint8_linear_1774_123)"/>
<path d="M18.1058 15.7641C18.1073 15.7635 18.1087 15.7627 18.1102 15.762C18.1162 15.7593 18.1223 15.7566 18.1281 15.7531L20.2247 14.5427C20.2844 14.5083 20.3212 14.4446 20.3212 14.3757V11.9547C20.3212 11.948 20.3206 11.9414 20.3199 11.9349C20.3197 11.9332 20.3198 11.9315 20.3195 11.9299C20.3181 11.9189 20.3155 11.9084 20.3123 11.898C20.3114 11.8951 20.3105 11.8924 20.3094 11.8895C20.3056 11.8788 20.3011 11.8684 20.2954 11.8584C20.2954 11.8584 20.2954 11.8584 20.2953 11.8583C20.2953 11.8583 20.2952 11.8582 20.2952 11.8581C20.2895 11.8482 20.2827 11.839 20.2752 11.8303C20.2733 11.8281 20.2715 11.8259 20.2695 11.8238C20.2621 11.8158 20.2543 11.8082 20.2454 11.8015C20.2441 11.8005 20.2426 11.7997 20.2412 11.7987C20.2359 11.7948 20.2305 11.791 20.2247 11.7876L18.1281 10.5771C18.0685 10.5427 17.9949 10.5427 17.9352 10.5771L15.8387 11.7876C15.8329 11.7909 15.8276 11.7947 15.8223 11.7986C15.8209 11.7996 15.8193 11.8004 15.8179 11.8015C15.8092 11.8082 15.8013 11.8158 15.7939 11.8237C15.7919 11.8259 15.7901 11.8281 15.7881 11.8303C15.7808 11.8391 15.7739 11.8482 15.7681 11.8581C15.7681 11.8582 15.768 11.8583 15.768 11.8583C15.768 11.8584 15.7679 11.8584 15.7679 11.8584C15.7622 11.8683 15.7578 11.8788 15.7539 11.8895C15.7529 11.8924 15.7519 11.8951 15.751 11.898C15.7478 11.9084 15.7452 11.919 15.7438 11.9299C15.7436 11.9315 15.7437 11.9332 15.7435 11.9349C15.7428 11.9414 15.7422 11.948 15.7422 11.9547V14.3757C15.7422 14.4446 15.7789 14.5083 15.8386 14.5427L17.9352 15.7531C17.941 15.7565 17.947 15.7593 17.9531 15.762C17.9546 15.7626 17.956 15.7635 17.9576 15.7642C17.9677 15.7684 17.9783 15.7714 17.9889 15.7739C17.9917 15.7746 17.9946 15.775 17.9974 15.7756C18.0088 15.7776 18.0202 15.779 18.0317 15.779C18.0432 15.779 18.0546 15.7776 18.0659 15.7756C18.0688 15.775 18.0716 15.7746 18.0745 15.7739C18.0851 15.7714 18.0956 15.7684 18.1058 15.7641ZM18.9729 11.5103L17.1656 12.5538C17.1637 12.5549 17.1623 12.5564 17.1605 12.5575C17.1571 12.5596 17.1537 12.5617 17.1505 12.5641C17.1468 12.5667 17.1433 12.5696 17.1397 12.5725C17.1364 12.5753 17.1331 12.578 17.1299 12.581C17.1273 12.5835 17.1247 12.586 17.1222 12.5887C17.1191 12.5919 17.1163 12.5953 17.1135 12.5987C17.1107 12.6021 17.1079 12.6055 17.1053 12.6091C17.1029 12.6124 17.1008 12.6159 17.0986 12.6194C17.0975 12.6211 17.096 12.6225 17.095 12.6244C17.0939 12.6263 17.0934 12.6283 17.0924 12.6302C17.0904 12.6337 17.0885 12.6373 17.0869 12.641C17.085 12.6451 17.0835 12.6493 17.0819 12.6535C17.0804 12.6576 17.0789 12.6616 17.0777 12.6657C17.0766 12.6693 17.0756 12.6728 17.0748 12.6765C17.0738 12.6807 17.073 12.685 17.0723 12.6894C17.0716 12.6938 17.0709 12.6981 17.0704 12.7024C17.07 12.7065 17.0699 12.7105 17.0698 12.7146C17.0697 12.7168 17.0691 12.7188 17.0691 12.721V13.0195L16.939 12.9443V12.5345L18.8428 11.4353L18.9729 11.5103ZM19.7426 11.9547L18.0317 12.9425L17.6478 12.7208L19.3586 11.733L19.7426 11.9547ZM18.2246 13.2765L19.9354 12.2888V14.2644L18.2246 15.2521V13.2765ZM16.7462 12.2004L16.3208 11.9547L18.0316 10.967L18.4571 11.2126L16.7462 12.2004ZM16.1279 12.2887L16.5533 12.5344V13.0556C16.5533 13.1245 16.5901 13.1882 16.6497 13.2227L17.1656 13.5204C17.1954 13.5377 17.2287 13.5463 17.262 13.5463C17.2953 13.5463 17.3286 13.5377 17.3584 13.5204C17.4181 13.486 17.4549 13.4223 17.4549 13.3534V13.0549L17.8388 13.2766V15.2521L16.1279 14.2644V12.2887Z" fill="url(#paint9_linear_1774_123)"/>
<defs>
<linearGradient id="paint0_linear_1774_123" x1="3.00007" y1="15.0482" x2="27.6878" y2="15.0482" gradientUnits="userSpaceOnUse">
<stop stop-color="#1685FF"/>
<stop offset="0.5" stop-color="#8B5CF6"/>
<stop offset="1" stop-color="#D946EF"/>
</linearGradient>
<linearGradient id="paint1_linear_1774_123" x1="5.19531" y1="7.32563" x2="5.94973" y2="7.32563" gradientUnits="userSpaceOnUse">
<stop stop-color="#1685FF"/>
<stop offset="0.5" stop-color="#8B5CF6"/>
<stop offset="1" stop-color="#D946EF"/>
</linearGradient>
<linearGradient id="paint2_linear_1774_123" x1="6.47656" y1="7.32563" x2="7.23103" y2="7.32563" gradientUnits="userSpaceOnUse">
<stop stop-color="#1685FF"/>
<stop offset="0.5" stop-color="#8B5CF6"/>
<stop offset="1" stop-color="#D946EF"/>
</linearGradient>
<linearGradient id="paint3_linear_1774_123" x1="7.75781" y1="7.32563" x2="8.51228" y2="7.32563" gradientUnits="userSpaceOnUse">
<stop stop-color="#1685FF"/>
<stop offset="0.5" stop-color="#8B5CF6"/>
<stop offset="1" stop-color="#D946EF"/>
</linearGradient>
<linearGradient id="paint4_linear_1774_123" x1="14.6328" y1="13.1748" x2="21.4327" y2="13.1748" gradientUnits="userSpaceOnUse">
<stop stop-color="#1685FF"/>
<stop offset="0.5" stop-color="#8B5CF6"/>
<stop offset="1" stop-color="#D946EF"/>
</linearGradient>
<linearGradient id="paint5_linear_1774_123" x1="5.06251" y1="15.9297" x2="8.35325" y2="15.9297" gradientUnits="userSpaceOnUse">
<stop stop-color="#1685FF"/>
<stop offset="0.5" stop-color="#8B5CF6"/>
<stop offset="1" stop-color="#D946EF"/>
</linearGradient>
<linearGradient id="paint6_linear_1774_123" x1="8.75782" y1="15.9297" x2="12.0486" y2="15.9297" gradientUnits="userSpaceOnUse">
<stop stop-color="#1685FF"/>
<stop offset="0.5" stop-color="#8B5CF6"/>
<stop offset="1" stop-color="#D946EF"/>
</linearGradient>
<linearGradient id="paint7_linear_1774_123" x1="5.06251" y1="12.2861" x2="8.35325" y2="12.2861" gradientUnits="userSpaceOnUse">
<stop stop-color="#1685FF"/>
<stop offset="0.5" stop-color="#8B5CF6"/>
<stop offset="1" stop-color="#D946EF"/>
</linearGradient>
<linearGradient id="paint8_linear_1774_123" x1="8.75782" y1="12.2861" x2="12.0486" y2="12.2861" gradientUnits="userSpaceOnUse">
<stop stop-color="#1685FF"/>
<stop offset="0.5" stop-color="#8B5CF6"/>
<stop offset="1" stop-color="#D946EF"/>
</linearGradient>
<linearGradient id="paint9_linear_1774_123" x1="15.7422" y1="13.1777" x2="20.3213" y2="13.1777" gradientUnits="userSpaceOnUse">
<stop stop-color="#1685FF"/>
<stop offset="0.5" stop-color="#8B5CF6"/>
<stop offset="1" stop-color="#D946EF"/>
</linearGradient>
</defs>
</svg>
