<svg width="50" height="50" viewBox="0 0 50 50" fill="none" xmlns="http://www.w3.org/2000/svg">
<path d="M45.2475 11.5574L39.8214 11.8334C39.04 11.87 38.2781 11.577 37.7213 11.0202C37.1645 10.4634 36.8715 9.7015 36.9081 8.92006L37.1841 3.53063C37.1963 3.37434 37.1914 3.19852 37.1914 3.04956L37.1792 2.68082L36.8666 2.50012C35.0278 1.43787 33.0596 0.624681 31.0083 0.0923079L30.7079 -0.000488281L30.4515 0.180216C30.283 0.304757 30.1512 0.443952 30.0706 0.529416L26.4272 4.56842C25.8948 5.15693 25.1647 5.48169 24.3759 5.48169C23.5872 5.48169 22.857 5.15691 22.3247 4.56842L18.6813 0.529416C18.6007 0.441508 18.4689 0.297431 18.3004 0.180216L18.0366 -0.000488281L17.7363 0.0874192C15.6924 0.624656 13.7216 1.43786 11.878 2.49523L11.5654 2.67593L11.5532 3.04467C11.5459 3.20095 11.541 3.37678 11.5605 3.48911L11.8365 8.91518C11.8731 9.69661 11.58 10.4585 11.0233 11.0153C10.4665 11.5721 9.70459 11.8651 8.92316 11.8285L3.53372 11.5525C3.37743 11.5403 3.20161 11.5452 3.05265 11.5452L2.68391 11.5574L2.50321 11.87C1.44096 13.7088 0.627773 15.677 0.0953994 17.7283L0.0148119 18.0213L0.190634 18.2704C0.197959 18.2777 0.202843 18.2826 0.202843 18.2948C0.271222 18.3827 0.327385 18.4584 0.403084 18.5317C0.434829 18.5634 0.45925 18.5879 0.490992 18.6123C0.503202 18.6245 0.522738 18.644 0.547157 18.6611L0.539831 18.6685L4.55445 22.2875L4.67899 22.412C5.21623 22.9493 5.50925 23.6745 5.48487 24.4364C5.46045 25.1984 5.13567 25.8991 4.57159 26.4046L0.532592 30.048L0.46422 30.1164C0.376305 30.1921 0.271306 30.2971 0.176066 30.429L0.168739 30.4363L0.000244141 30.7074L0.0881522 31.0077C0.625389 33.0517 1.43859 35.0224 2.49596 36.866L2.67667 37.1786L3.0454 37.1908C3.20169 37.1982 3.37751 37.203 3.48984 37.1835L8.91591 36.9076C9.69735 36.8709 10.4593 37.164 11.016 37.7207C11.5728 38.2775 11.8658 39.0394 11.8292 39.8209L11.5533 45.2103C11.5411 45.3666 11.5459 45.5424 11.5459 45.6914L11.5582 46.0601L11.8707 46.2408C13.7095 47.303 15.6777 48.1162 17.729 48.6486L18.0294 48.7365L18.2858 48.5558C18.4494 48.4362 18.5788 48.2994 18.6667 48.2066L22.3102 44.1676C22.8474 43.5742 23.5726 43.2543 24.3614 43.2543C25.1501 43.2543 25.8803 43.5791 26.4126 44.1676L30.056 48.2066C30.1366 48.2945 30.2685 48.4386 30.437 48.5558L30.6934 48.7365L30.9937 48.6486C33.0377 48.1114 35.0084 47.2982 36.852 46.2408L37.1646 46.0601L37.1768 45.6914C37.189 45.5277 37.1841 45.3593 37.1695 45.2469L37.0889 43.5595C37.7776 44.1969 39.2208 45.5107 40.6835 46.7854C44.6908 50.2725 45.0473 50.2725 45.5601 49.7622L49.7554 45.5669C50.2682 45.0541 50.2682 44.6975 46.7787 40.6902C45.5039 39.2275 44.1853 37.7769 43.5455 37.0957L45.1962 37.1762C45.3598 37.1958 45.5283 37.1958 45.6846 37.1885L46.0534 37.1762L46.2341 36.8637C47.2963 35.0249 48.1095 33.0567 48.6419 31.0054L48.7298 30.705L48.5491 30.4486C48.4245 30.2801 48.2853 30.1482 48.1999 30.0676L44.1609 26.4242C43.5675 25.887 43.2476 25.1618 43.2476 24.373C43.2476 23.5843 43.5797 22.8541 44.1609 22.3218L48.2121 18.6711C48.7445 18.3267 48.7127 17.9214 48.6492 17.7407C48.112 15.6967 47.2988 13.726 46.2414 11.8824L46.0607 11.5698L45.692 11.5576C45.543 11.5527 45.3671 11.5452 45.2475 11.5574ZM27.6947 34.182C24.0122 35.4323 19.8435 34.4873 17.0478 31.701C13.0088 27.662 13.0088 21.0929 17.0478 17.0538C21.0868 13.0148 27.6559 13.0148 31.695 17.0538C34.4837 19.8425 35.4263 24.0186 34.176 27.7007L32.5448 26.0694C32.4813 26.0059 32.4569 25.8936 32.4764 25.7813C32.8818 23.2245 32.032 20.6165 30.2078 18.7921C28.833 17.4173 27.0137 16.5846 25.0748 16.4405C24.5937 16.4088 24.1371 16.5846 23.805 16.9094C23.6683 17.0461 23.5608 17.2098 23.4729 17.3905C23.1921 18.0083 23.324 18.7213 23.805 19.2024L26.8819 22.267C26.9503 22.3354 26.9894 22.4355 26.9625 22.5356L26.2177 25.9984C26.186 26.1058 26.1054 26.1864 25.993 26.2182L22.5426 26.963L22.4547 26.9703C22.3912 26.963 22.3301 26.9385 22.2739 26.8824L19.2044 23.8128C18.8674 23.4758 18.4351 23.3073 18.0102 23.3439C17.5658 23.3561 17.1409 23.5564 16.8478 23.8885C16.5474 24.2206 16.4034 24.6382 16.4424 25.0948C16.5865 27.0264 17.4168 28.8384 18.7941 30.2156C18.9186 30.3402 19.0627 30.4721 19.1555 30.5478C19.3191 30.7114 19.4876 30.8408 19.5877 30.9043C19.7 30.9971 19.8197 31.085 19.9442 31.168L19.9515 31.1753L19.9833 31.1998C20.015 31.2242 20.0639 31.2632 20.12 31.2877C20.2446 31.3756 20.3569 31.444 20.4521 31.4928C20.6011 31.5856 20.7769 31.6686 20.8966 31.7175C21.0162 31.7858 21.1408 31.8493 21.2653 31.9104L21.8148 32.1228C21.8343 32.1301 21.8465 32.135 21.8709 32.1424C22.0199 32.1985 22.164 32.2352 22.3325 32.2864C22.5205 32.3426 22.6939 32.3939 22.8502 32.411L22.9259 32.4305C23.0504 32.4623 23.1627 32.4793 23.2946 32.4989L23.3508 32.5111C23.3752 32.5184 23.3947 32.5184 23.4191 32.5233C23.4436 32.5306 23.4753 32.5355 23.5071 32.5306L23.6511 32.5502C23.7146 32.5575 23.7757 32.5624 23.888 32.5697C23.9564 32.5819 24.0125 32.5819 24.037 32.577L24.4619 32.5892H24.5693L24.9503 32.5819L25.1066 32.5697C25.1627 32.5697 25.2189 32.5624 25.2702 32.5575C25.2824 32.5502 25.3019 32.5575 25.3141 32.5502L25.363 32.5428H25.3752C25.5192 32.5233 25.6511 32.5111 25.8001 32.4867L25.8685 32.4794C25.9368 32.472 26.0321 32.4867 26.0931 32.555L27.6947 34.182ZM31.1696 25.5619C31.0817 26.0943 31.2453 26.6315 31.614 27.0003L42.2609 37.6471C42.8421 38.2283 47.6064 43.4981 48.5317 44.9363L44.9371 48.5309C43.4988 47.6005 38.2362 42.8411 37.6479 42.26L27.0011 31.6132C26.6519 31.264 26.1635 31.1004 25.6506 31.1517L25.5627 31.1639C25.4553 31.1883 25.3503 31.1956 25.2306 31.2127L25.15 31.22C25.1012 31.2274 25.0499 31.2323 24.9815 31.2396L24.6494 31.2518C24.5737 31.2518 24.4932 31.2591 24.4126 31.2518L23.7874 31.22C23.719 31.2078 23.6556 31.2005 23.5872 31.1956L23.4431 31.1761C23.3503 31.1566 23.2624 31.1443 23.1745 31.1272L23.067 31.1028C22.9425 31.0833 22.8302 31.054 22.647 30.9954C22.5225 30.9636 22.4101 30.9319 22.271 30.883C22.1782 30.8513 22.0951 30.8196 22.0145 30.7902L21.7508 30.6828C21.6702 30.6388 21.5823 30.5949 21.4749 30.5387C21.3552 30.4899 21.238 30.4264 21.0939 30.3385C21.0011 30.2896 20.9132 30.2384 20.8253 30.1749L20.6446 30.0503C20.5567 29.9942 20.4688 29.9307 20.3638 29.8452C20.2563 29.7695 20.1586 29.6962 20.0317 29.5693C19.9193 29.4765 19.807 29.369 19.7069 29.2762C18.5567 28.1261 17.8632 26.6072 17.7435 24.993C17.7313 24.9051 17.7509 24.8294 17.8119 24.7732C17.8608 24.7097 17.956 24.6658 18.061 24.6658C18.1245 24.6584 18.1807 24.6902 18.2417 24.7537L21.3113 27.8232C21.6043 28.1163 21.9926 28.2848 22.3736 28.2994C22.5176 28.3068 22.6617 28.2921 22.7985 28.2628L26.2636 27.5058C26.8961 27.3813 27.3894 26.8929 27.5139 26.2677L28.2587 22.8172C28.3784 22.28 28.2099 21.7159 27.8216 21.3301L24.752 18.2605C24.6275 18.1359 24.6641 18.0041 24.6959 17.9406C24.7203 17.8771 24.8033 17.7477 24.9889 17.7599C26.6006 17.8844 28.1268 18.5779 29.277 19.7281C30.8008 21.247 31.5066 23.4301 31.1696 25.5619ZM47.2865 17.7232L43.2792 21.3373C42.422 22.1187 41.9287 23.2128 41.9287 24.3751C41.9214 25.5375 42.4171 26.6389 43.2792 27.413L47.2865 31.0271C46.8103 32.7145 46.1436 34.3335 45.2914 35.8646L42.1974 35.7083L35.2133 28.7242C36.9397 24.4239 35.9386 19.4108 32.637 16.1088C28.0803 11.552 20.6667 11.552 16.1075 16.1088C11.5508 20.6655 11.5557 28.0791 16.1075 32.6383C19.409 35.9398 24.4226 36.9459 28.723 35.2145L35.7096 42.1962L35.8659 45.2901C34.3275 46.1399 32.7084 46.809 31.0283 47.2852L27.4142 43.2779C26.6401 42.4208 25.5388 41.9275 24.3764 41.9275C23.214 41.9201 22.12 42.4207 21.3386 43.2779L17.7245 47.2852C16.042 46.8164 14.418 46.1424 12.8869 45.2901L13.1629 39.8885C13.219 38.731 12.7868 37.6077 11.9614 36.7872C11.1433 35.9691 10.0102 35.5296 8.86011 35.5857L3.45848 35.8617C2.60865 34.3233 1.93956 32.7042 1.46339 31.0241L5.47069 27.41C6.30095 26.6652 6.78937 25.6225 6.81376 24.4894C6.8455 23.371 6.40839 22.277 5.6196 21.4834L1.46339 17.7203C1.93225 16.0378 2.60622 14.4138 3.45848 12.8827L8.86011 13.1587C10.0176 13.2148 11.1483 12.7777 11.9614 11.9572C12.7795 11.1391 13.219 10.0061 13.1629 8.85593L12.8869 3.4543C14.4253 2.60448 16.0444 1.93539 17.7245 1.45921L21.3386 5.46652C22.1127 6.32365 23.214 6.81696 24.3764 6.81696C25.5388 6.82428 26.645 6.33589 27.4142 5.46652L31.0283 1.45921C32.7157 1.9354 34.3348 2.60204 35.8659 3.4543L35.5899 8.85593C35.5338 10.0134 35.9709 11.1441 36.7914 11.9572C37.6095 12.7753 38.7425 13.2148 39.8927 13.1587L45.2943 12.8827C46.1368 14.409 46.8059 16.0329 47.287 17.7227L47.2865 17.7232Z" fill="url(#paint0_linear_600_95)"/>
<defs>
<linearGradient id="paint0_linear_600_95" x1="0.000464723" y1="25.123" x2="50.0014" y2="25.123" gradientUnits="userSpaceOnUse">
<stop stop-color="#1685FF"/>
<stop offset="0.5" stop-color="#8B5CF6"/>
<stop offset="1" stop-color="#D946EF"/>
</linearGradient>
</defs>
</svg>
