<svg width="57" height="58" viewBox="0 0 57 58" fill="none" xmlns="http://www.w3.org/2000/svg">
<path fill-rule="evenodd" clip-rule="evenodd" d="M42.1375 30.9224C44.629 30.9224 46.8873 31.9338 48.52 33.5662C50.1524 35.1987 51.1637 37.4569 51.1637 39.9487V45.1221C51.6706 45.2196 52.1251 45.4695 52.4773 45.8217C52.9366 46.2809 53.2222 46.914 53.2222 47.6135V49.5815C53.2222 49.8957 52.9675 50.1479 52.6534 50.1479H31.6199C31.3057 50.1479 31.0511 49.8933 31.0511 49.5815L31.0535 47.6112C31.0535 47.0948 31.2106 46.6141 31.4771 46.2119H3.15209C2.63333 46.2119 2.1479 46.081 1.7219 45.8359C1.29832 45.5908 0.941399 45.2339 0.67963 44.7817C0.417866 44.3296 0.286987 43.8417 0.286987 43.3563C0.286987 42.8685 0.417866 42.383 0.67963 41.931L19.5506 9.2466C19.8123 8.79446 20.1693 8.43753 20.5928 8.19239C21.0188 7.94729 21.5042 7.81641 22.023 7.81641C22.5418 7.81641 23.0272 7.94729 23.4532 8.19239C23.8768 8.4375 24.2337 8.79445 24.4955 9.2466L37.6881 32.0986C39.0017 31.349 40.5199 30.923 42.1381 30.923L42.1375 30.9224ZM22.0201 36.774C21.3705 36.774 20.7803 37.0382 20.3544 37.4641L20.352 37.4665C19.926 37.8925 19.6619 38.4826 19.6619 39.1323C19.6619 39.7819 19.926 40.3721 20.352 40.798L20.3544 40.8004C20.7803 41.2264 21.3705 41.4905 22.0201 41.4905C22.6722 41.4905 23.2623 41.2264 23.6859 40.798C24.1143 40.3697 24.3784 39.7819 24.3784 39.1323C24.3784 38.4803 24.1142 37.8901 23.6859 37.4641C23.2623 37.0382 22.6722 36.774 22.0201 36.774ZM22.8864 38.2684C22.665 38.0471 22.3581 37.9091 22.0201 37.9091C21.6822 37.9091 21.3753 38.0447 21.1539 38.2661C20.9326 38.4874 20.797 38.7943 20.797 39.1323C20.797 39.4725 20.9326 39.7772 21.1539 39.9985C21.3752 40.2198 21.6822 40.3554 22.0201 40.3554C22.3581 40.3554 22.665 40.2174 22.8864 39.9961H22.8887C23.11 39.7748 23.2457 39.4702 23.2457 39.1299C23.2457 38.7944 23.1077 38.4874 22.8864 38.2684ZM22.0201 34.0707C22.37 34.0707 22.3795 33.809 22.389 33.4639C22.3937 33.3092 22.4009 33.1474 22.4104 33.0284L23.4098 21.0895L23.4122 21.0467C23.4122 20.8539 23.2932 20.6659 23.1052 20.5136C22.872 20.3256 22.5436 20.1971 22.182 20.1686C22.132 20.1638 22.0772 20.1614 22.0201 20.1614C21.963 20.1614 21.9131 20.1638 21.8702 20.1662C21.5061 20.1948 21.1754 20.3209 20.9398 20.5112C20.7494 20.6659 20.6281 20.8563 20.6281 21.0514C20.7114 24.8279 21.2539 29.2207 21.549 33.0543L21.5656 33.3542C21.5894 33.7587 21.6061 34.0707 22.0201 34.0707ZM23.5217 33.4996C23.5264 33.3925 23.5288 33.2783 23.5431 33.1213L24.5425 21.1823C24.5473 21.1347 24.5497 21.0895 24.5497 21.0467C24.5497 20.4898 24.2665 19.9948 23.8168 19.6332C23.4122 19.3071 22.8649 19.0882 22.2771 19.0382C22.1891 19.0311 22.1034 19.0263 22.0225 19.0263C21.9511 19.0263 21.8726 19.0287 21.7893 19.0359C21.1944 19.0811 20.6423 19.3 20.233 19.6284C19.7809 19.9925 19.4953 20.4899 19.4953 21.0514C19.4953 21.0871 19.4977 21.1299 19.5001 21.1775L20.4186 33.1378L20.4353 33.4162C20.49 34.43 20.5329 35.2057 22.0202 35.2057C23.4646 35.2057 23.4884 34.4682 23.5217 33.4996ZM34.6681 34.8822L22.02 12.9775L5.14846 42.1998H33.1116V39.9486C33.1116 38.0711 33.6853 36.3266 34.6681 34.8822ZM33.1118 43.3347H4.16784V43.3323C4.07265 43.3323 3.97508 43.3085 3.88704 43.2586C3.61576 43.1039 3.52295 42.7565 3.67763 42.4876L21.53 11.5662C21.5776 11.4829 21.649 11.4092 21.7394 11.3568C22.0107 11.2021 22.3557 11.2949 22.5104 11.5662L35.4179 33.9229C35.5274 33.8016 35.6393 33.6826 35.7559 33.566C36.0628 33.259 36.3912 32.9735 36.7387 32.7141L23.5125 9.80544C23.3531 9.5294 23.1389 9.31523 22.8867 9.17006C22.6368 9.0249 22.3417 8.94875 22.0181 8.94875C21.6968 8.94875 21.4018 9.02728 21.1495 9.17006C20.8973 9.31522 20.6831 9.53176 20.5237 9.80544L1.66007 42.4922C1.50302 42.7659 1.42211 43.061 1.42211 43.3561C1.42211 43.6512 1.50064 43.9438 1.66007 44.2199C1.81951 44.4959 2.03368 44.7125 2.28589 44.8577C2.53576 45.0028 2.83083 45.079 3.15448 45.079H33.1145L33.1118 43.3347ZM34.2469 45.0766H40.8907C41.0692 45.0766 41.2381 45.0528 41.3952 45.0076C41.4547 44.991 41.5142 44.9695 41.5713 44.9458V39.9485C41.5713 39.6344 41.8259 39.3798 42.1376 39.3798C42.4518 39.3798 42.7064 39.6344 42.7064 39.9485V45.0767H50.0307V39.9485C50.0307 37.7687 49.1478 35.796 47.72 34.3682C46.2922 32.9404 44.3195 32.0575 42.1397 32.0575C39.9599 32.0575 37.9872 32.9404 36.5594 34.3682C35.1316 35.796 34.2487 37.7687 34.2487 39.9485V42.766L34.2469 45.0766ZM54.7169 32.3908L51.8875 33.7781C51.6067 33.9162 51.4901 34.2541 51.6281 34.5349C51.7662 34.8157 52.1041 34.9323 52.3849 34.7943L55.2143 33.4046C55.4951 33.2665 55.6117 32.9286 55.4737 32.6478C55.3356 32.3694 54.9977 32.2528 54.7169 32.3908ZM49.5935 27.6601L47.7778 30.2349C47.5969 30.4895 47.6588 30.8441 47.9158 31.025C48.1704 31.2058 48.525 31.1439 48.7059 30.8869L50.5216 28.3121C50.7024 28.0575 50.6406 27.7029 50.3836 27.5221C50.1289 27.3412 49.7744 27.4031 49.5935 27.6601ZM42.7066 29.0927V25.942C42.7066 25.6279 42.452 25.3756 42.1379 25.3756C41.8237 25.3756 41.5715 25.6302 41.5715 25.942V29.0927C41.5715 29.4068 41.8261 29.6614 42.1379 29.6614C42.452 29.6614 42.7066 29.4068 42.7066 29.0927ZM56.1466 39.3825H52.9959C52.6818 39.3825 52.4295 39.6371 52.4295 39.9513C52.4295 40.2654 52.6842 40.5176 52.9959 40.5176H56.1466C56.4607 40.5176 56.7129 40.263 56.7129 39.9513C56.7129 39.6371 56.4607 39.3825 56.1466 39.3825ZM50.5972 46.2122H33.5898C33.2067 46.2122 32.8545 46.3692 32.6022 46.6238C32.3476 46.8785 32.1905 47.2283 32.1905 47.6114V49.013H52.0916L52.0892 47.6114C52.0892 47.2259 51.9322 46.8761 51.6776 46.6238C51.4253 46.3716 51.0731 46.2122 50.69 46.2122H50.5972Z" fill="url(#paint0_linear_602_824)"/>
<defs>
<linearGradient id="paint0_linear_602_824" x1="0.287236" y1="29.0841" x2="56.7142" y2="29.0841" gradientUnits="userSpaceOnUse">
<stop stop-color="#1685FF"/>
<stop offset="0.5" stop-color="#8B5CF6"/>
<stop offset="1" stop-color="#D946EF"/>
</linearGradient>
</defs>
</svg>
