<?xml version="1.0" encoding="UTF-8"?><svg id="a" xmlns="http://www.w3.org/2000/svg" xmlns:xlink="http://www.w3.org/1999/xlink" viewBox="0 0 50 50"><defs><style>.c{fill:url(#b);fill-rule:evenodd;}</style><linearGradient id="b" x1="3.37" y1="25" x2="46.63" y2="25" gradientTransform="matrix(1, 0, 0, 1, 0, 0)" gradientUnits="userSpaceOnUse"><stop offset=".01" stop-color="#4376fc"/><stop offset=".99" stop-color="#c84bf1"/></linearGradient></defs><path class="c" d="M32.41,17.59c-1.9-1.9-4.52-3.07-7.41-3.07s-5.52,1.17-7.41,3.07c-1.9,1.9-3.07,4.52-3.07,7.41s1.17,5.52,3.07,7.41c1.9,1.9,4.52,3.07,7.41,3.07s5.52-1.17,7.41-3.07c1.9-1.9,3.07-4.52,3.07-7.41s-1.17-5.52-3.07-7.41Zm-7.41-4.06c3.17,0,6.04,1.28,8.11,3.36,2.08,2.08,3.36,4.94,3.36,8.11s-1.28,6.04-3.36,8.11c-2.08,2.08-4.94,3.36-8.11,3.36s-6.04-1.28-8.11-3.36c-2.08-2.08-3.36-4.94-3.36-8.11s1.28-6.04,3.36-8.11c2.08-2.08,4.94-3.36,8.11-3.36Zm-4.19-5.91l1.24-3.86c.05-.22,.25-.38,.48-.38h4.93c.21,0,.4,.14,.47,.35l1.25,3.9,.53,.14c.72,.2,1.43,.44,2.12,.73,.7,.29,1.37,.62,2.02,.99l.48,.27,3.61-1.86c.19-.12,.44-.09,.61,.07l3.49,3.49h0c.15,.15,.19,.38,.09,.58l-1.87,3.64,.27,.48c.37,.65,.7,1.32,.99,2.02,.29,.69,.53,1.4,.73,2.12l.14,.53,3.86,1.24c.22,.05,.38,.25,.38,.48v4.93h0c0,.21-.13,.4-.34,.47l-3.9,1.25-.14,.53c-.2,.72-.44,1.43-.73,2.12-.29,.7-.62,1.37-.99,2.02l-.27,.48,1.86,3.61c.12,.19,.09,.44-.07,.61l-3.49,3.49h0c-.15,.15-.38,.19-.58,.09l-3.64-1.87-.48,.27c-.65,.37-1.32,.7-2.02,.99-.69,.29-1.4,.53-2.12,.73l-.53,.14-1.24,3.86c-.05,.22-.25,.38-.48,.38h-4.93c-.21,0-.4-.14-.47-.35l-1.25-3.9-.53-.14c-.72-.2-1.43-.44-2.12-.73-.7-.29-1.37-.62-2.02-.99l-.48-.27-3.61,1.86c-.19,.12-.44,.09-.61-.07l-3.49-3.49h0c-.15-.15-.19-.38-.09-.58l1.87-3.64-.27-.48c-.37-.65-.7-1.32-.99-2.02-.29-.69-.53-1.4-.73-2.12l-.14-.53-3.86-1.24c-.22-.05-.38-.25-.38-.48v-4.93h0c0-.21,.13-.4,.34-.47l3.9-1.25,.14-.53c.2-.72,.44-1.43,.73-2.12,.29-.7,.62-1.37,.99-2.02l.27-.48-1.86-3.61c-.12-.19-.09-.44,.07-.61l3.49-3.49h0c.15-.15,.38-.19,.58-.09l3.64,1.87,.48-.27c.65-.37,1.32-.7,2.02-.99,.69-.29,1.4-.53,2.12-.73l.53-.14h0Zm2.08-3.25h4.21l1.22,3.81c.05,.15,.17,.28,.34,.32l.79,.21c.68,.19,1.35,.41,2.01,.69,.65,.27,1.28,.58,1.9,.93l.71,.41c.14,.08,.32,.09,.47,0l3.56-1.83,2.98,2.98-1.82,3.54c-.09,.15-.09,.34,0,.5l.41,.71c.35,.62,.67,1.25,.93,1.9,.27,.66,.5,1.33,.69,2.01l.21,.77c.04,.17,.16,.31,.33,.36l3.81,1.22v4.21l-3.81,1.22c-.15,.05-.28,.17-.32,.34l-.21,.79c-.19,.68-.41,1.35-.69,2.01-.27,.65-.58,1.28-.93,1.9l-.41,.71c-.08,.14-.09,.32,0,.47l1.83,3.56-2.98,2.98-3.54-1.82c-.15-.09-.34-.09-.5,0l-.71,.41c-.62,.35-1.25,.67-1.9,.93-.66,.27-1.33,.5-2.01,.69l-.76,.21c-.17,.04-.31,.16-.36,.33l-1.22,3.81h-4.21l-1.22-3.81c-.05-.15-.17-.28-.34-.32l-.79-.21c-.68-.19-1.35-.41-2.01-.69-.65-.27-1.28-.58-1.9-.93l-.71-.41c-.14-.08-.32-.09-.47,0l-3.56,1.83-2.98-2.98,1.82-3.54c.09-.15,.09-.34,0-.5l-.41-.71c-.35-.62-.67-1.25-.93-1.9-.27-.66-.5-1.33-.69-2.01l-.21-.76c-.04-.17-.16-.31-.33-.36l-3.81-1.22v-4.21l3.81-1.22c.15-.05,.28-.17,.32-.34l.21-.79c.19-.68,.41-1.35,.69-2.01,.27-.65,.58-1.28,.93-1.9l.41-.71c.08-.14,.09-.32,0-.47l-1.83-3.56,2.98-2.98,3.54,1.82c.15,.09,.34,.09,.5,0l.71-.41c.62-.35,1.25-.67,1.9-.93,.66-.27,1.33-.5,2.01-.69l.76-.21c.17-.04,.31-.16,.36-.33l1.22-3.81h0Zm.83,20.06c0,.61,.3,1.19,.81,1.53-.19,.33-.46,.61-.79,.8l-.02-.02c-.33-.29-.84-.26-1.13,.07-.14,.16-.21,.37-.2,.58h0c.03,.42,.38,.75,.8,.75h.05c.44-.03,.77-.41,.75-.85h0c.45-.26,.82-.63,1.06-1.08,.99,.29,2.02-.27,2.32-1.25,.24-.8-.09-1.66-.8-2.11,0-1.06-.07-2.11-.19-3.17-.02-.12-.11-.22-.23-.25-.19-.04-.38-.07-.57-.08-.28-.02-.56,0-.84,.03-.16,.03-.27,.17-.24,.33,.13,1.02,.2,2.05,.21,3.07-.6,.32-.98,.95-.98,1.64Zm-.51,3.14c-.12,0-.22-.08-.23-.2,0-.12,.08-.22,.2-.23,.12,0,.22,.08,.23,.2,.01,.12-.08,.22-.19,.23h0Zm1.91-7.63c.14,0,.29,0,.43,0,.09,0,.19,.02,.28,.03,.09,.76,.14,1.79,.16,2.64-.23-.05-.47-.06-.7-.02-.02-.83-.08-1.88-.17-2.65Zm.47,3.21c.71,0,1.28,.58,1.28,1.28s-.58,1.28-1.28,1.28-1.28-.58-1.28-1.28,.58-1.28,1.28-1.28Zm-5.31,3.25c-.07-.17-.07-.36,0-.52l.67-1.5c.1-.21,.15-.45,.14-.68,0-1.66,.94-3.18,2.43-3.9,.14-.07,.32-.01,.39,.13s.01,.32-.13,.39c-1.29,.63-2.11,1.94-2.1,3.38,0,.32-.07,.63-.2,.92l-.67,1.5s0,.07,.03,.08h0l.63,.21c.12,.04,.2,.15,.2,.28v1.54c0,.24,.2,.44,.44,.44h1.57c.13,0,.24,.09,.28,.21l.33,1.14c.02,.06,.08,.09,.14,.08l4.2-1.19c.06-.02,.1-.08,.08-.14l-.62-2.17c-.03-.1,0-.21,.07-.28,.73-.76,1.11-1.78,1.04-2.83-.09-1.33-.87-2.52-2.07-3.12-.14-.07-.2-.25-.13-.39,.07-.14,.25-.2,.39-.13h0c1.37,.7,2.28,2.07,2.38,3.61,.08,1.15-.31,2.29-1.09,3.15l.58,2.02c.1,.37-.11,.75-.48,.85l-4.2,1.2c-.37,.1-.75-.11-.86-.48l-.27-.93h-1.35c-.56,0-1.02-.46-1.02-1.02v-1.33l-.43-.14c-.17-.06-.31-.19-.39-.35Z"/></svg>