<?xml version="1.0" encoding="UTF-8"?><svg id="a" xmlns="http://www.w3.org/2000/svg" xmlns:xlink="http://www.w3.org/1999/xlink" viewBox="0 0 50 50"><defs><style>.c{fill:url(#b);}</style><linearGradient id="b" x1="1.78" y1="26.29" x2="47.07" y2="26.29" gradientTransform="matrix(1, 0, 0, 1, 0, 0)" gradientUnits="userSpaceOnUse"><stop offset=".01" stop-color="#4376fc"/><stop offset=".99" stop-color="#c84bf1"/></linearGradient></defs><path class="c" d="M46.08,23.47c-1.1-.98-2.6-1-4.22-.06l-10.27,5.91c-.37-1.07-1.24-1.89-2.33-2.18l-8.18-2.19c-2.6-.94-5.49-.62-7.83,.87-1.94,1.3-3.59,2.99-4.82,4.97-.55-.9-1.71-1.21-2.63-.68l-3.06,1.77h0c-.93,.54-1.24,1.72-.71,2.64l6.96,12.06c.53,.92,1.72,1.24,2.64,.71l3.06-1.77c.93-.54,1.24-1.72,.71-2.65l-.18-.31,3.22-2.09,11.83,.2c.13,0,.25-.04,.35-.12l15.44-12.67c.63-.53,.99-1.3,1-2.12,.03-.87-.33-1.71-.98-2.29ZM14.16,44.59l-3.06,1.77c-.41,.24-.93,.1-1.17-.31l-6.96-12.06c-.24-.41-.1-.93,.31-1.17h0l3.06-1.77c.41-.23,.93-.09,1.17,.31l6.96,12.06c.24,.41,.1,.93-.31,1.17h0Zm31.22-17.54l-15.28,12.54-11.8-.2c-.11,0-.21,.03-.3,.09l-3.31,2.15-5.65-9.78c3.48-5.41,7.31-7.33,11.71-5.86h.03l8.19,2.21c1.23,.33,1.96,1.6,1.63,2.83-.33,1.23-1.6,1.96-2.83,1.63l-6.65-1.78c-.29-.07-.58,.11-.65,.4-.07,.28,.1,.56,.37,.64l6.65,1.78c1.81,.48,3.67-.59,4.15-2.4,.07-.27,.11-.55,.12-.83l10.63-6.12c.84-.48,2.03-.89,2.96-.06,.41,.38,.63,.91,.61,1.46,0,.5-.22,.98-.6,1.31h0Zm-31.54-7.61h7.67c-.38,1.03-.58,2.12-.58,3.22,0,.3,.24,.54,.54,.54h17.42c.3,0,.54-.24,.54-.54h0c0-1.1-.2-2.19-.58-3.22h7.67c.3,0,.54-.24,.54-.54h0c0-3.28-2.1-6.19-5.21-7.23,1.64-1.18,2.02-3.47,.84-5.11-1.18-1.64-3.47-2.02-5.11-.84-1.64,1.18-2.02,3.47-.84,5.11,.19,.27,.42,.51,.67,.71-1.52,.42-2.87,1.29-3.88,2.5-.22-.09-.44-.16-.66-.23,2.04-1.3,2.64-4,1.34-6.04-1.3-2.04-4-2.64-6.04-1.34-2.04,1.3-2.64,4-1.34,6.04,.3,.47,.69,.88,1.14,1.21-.4,.1-.79,.22-1.17,.37-.91-1.1-2.11-1.92-3.47-2.38,1.64-1.18,2.02-3.47,.84-5.11-1.18-1.64-3.47-2.02-5.11-.84-1.64,1.18-2.02,3.47-.84,5.11,.19,.27,.42,.51,.67,.71-3.31,.91-5.61,3.92-5.62,7.36,0,.3,.24,.54,.54,.54h0Zm8.19,2.68c.3-4.5,4.19-7.91,8.69-7.61,4.09,.27,7.34,3.52,7.61,7.61H22.03ZM39.72,6.12c1.43,0,2.58,1.16,2.58,2.58,0,1.43-1.16,2.58-2.58,2.58s-2.58-1.16-2.58-2.58h0c0-1.42,1.15-2.58,2.58-2.58h0Zm-.29,6.24c3.41,0,6.24,2.61,6.53,6.01h-7.6c-.86-1.63-2.18-2.96-3.8-3.84,1.24-1.39,3.01-2.18,4.87-2.17h0Zm-12.2-2.22c0-1.82,1.47-3.29,3.29-3.29,1.82,0,3.29,1.47,3.29,3.29,0,1.82-1.47,3.29-3.29,3.29h-.18c-1.75-.1-3.12-1.54-3.12-3.29Zm-6.03-4.01c1.43,.02,2.56,1.19,2.54,2.62-.02,1.4-1.15,2.52-2.54,2.54h-.13c-1.42-.08-2.51-1.3-2.43-2.72,.08-1.36,1.2-2.43,2.57-2.44h0Zm-.29,6.24h.22c1.78,.06,3.46,.84,4.65,2.17-1.62,.88-2.94,2.21-3.8,3.84h-7.6c.29-3.39,3.12-6,6.53-6Z"/></svg>