<svg width="95" height="95" viewBox="0 0 95 95" fill="none" xmlns="http://www.w3.org/2000/svg">
<path d="M38.7391 74.1799L40.4491 75.6039C41.0044 75.9318 41.647 76.0815 42.2901 76.0329C43.1013 75.9815 43.8605 75.6156 44.4061 75.0129C44.6702 74.7182 44.8718 74.3729 44.9987 73.9981C45.1255 73.6232 45.175 73.2264 45.1441 72.8319C45.115 72.4366 45.0071 72.0512 44.8268 71.6982C44.6465 71.3453 44.3973 71.032 44.0941 70.7769L30.7481 59.5509C27.5721 56.8749 25.5291 57.0419 21.6871 57.3509C21.2091 57.3909 20.6991 57.4319 19.9871 57.4769L13.6241 57.9209L14.7991 73.8209L16.4941 73.7049L17.8251 73.6139C17.9991 73.6008 18.174 73.6231 18.3391 73.6795C18.5043 73.7359 18.6563 73.8251 18.7861 73.9419L31.7261 85.6669C31.8347 85.7676 31.9544 85.8839 32.0851 86.0159C32.9061 86.8289 34.2791 88.1919 38.8171 87.8739L74.9171 85.3589C75.8896 85.2949 76.7985 84.8527 77.4491 84.1269C77.7604 83.7816 78.0003 83.378 78.1548 82.9395C78.3092 82.5009 78.3753 82.0361 78.3491 81.5719C78.3491 81.5369 78.3491 81.4959 78.3391 81.4609C78.297 80.9974 78.1638 80.5467 77.947 80.1349C77.7303 79.723 77.4343 79.358 77.076 79.0609C76.3282 78.4305 75.3636 78.1172 74.3881 78.1879L48.6431 79.9819L48.0761 80.0229C45.2581 80.2299 42.3261 80.4469 40.0491 78.5479L38.9101 77.5999C38.7231 77.4739 38.5471 77.3419 38.3701 77.1999L28.1331 68.5849C28.0067 68.4803 27.9027 68.3514 27.8272 68.2057C27.7518 68.0601 27.7066 67.9007 27.6941 67.7372C27.6817 67.5736 27.7024 67.4092 27.755 67.2539C27.8075 67.0985 27.8909 66.9553 28.0001 66.8329C28.2254 66.583 28.5389 66.4302 28.8746 66.4067C29.2103 66.3832 29.5421 66.4908 29.8001 66.7069L38.7181 74.1999L38.7391 74.1799ZM34.8391 40.1409C36.4655 40.1464 38.03 39.5176 39.2001 38.3879C39.7704 37.8405 40.2242 37.1835 40.5342 36.4564C40.8441 35.7292 41.0039 34.9469 41.0039 34.1564C41.0039 33.3659 40.8441 32.5836 40.5342 31.8564C40.2242 31.1292 39.7704 30.4722 39.2001 29.9249C38.0299 28.7976 36.4684 28.1677 34.8436 28.1677C33.2187 28.1677 31.6572 28.7976 30.4871 29.9249C29.9153 30.4714 29.4603 31.1282 29.1494 31.8554C28.8385 32.5827 28.6783 33.3655 28.6783 34.1564C28.6783 34.9473 28.8385 35.7301 29.1494 36.4573C29.4603 37.1846 29.9153 37.8413 30.4871 38.3879C31.6553 39.5179 33.2187 40.1469 34.8441 40.1409H34.8391ZM41.0101 40.1509C39.35 41.7447 37.1379 42.6347 34.8366 42.6347C32.5352 42.6347 30.3231 41.7447 28.6631 40.1509C27.8544 39.3755 27.211 38.4445 26.7714 37.414C26.3319 36.3835 26.1053 35.2747 26.1053 34.1544C26.1053 33.034 26.3319 31.9253 26.7714 30.8948C27.211 29.8643 27.8544 28.9333 28.6631 28.1579C30.3243 26.5664 32.536 25.6779 34.8366 25.6779C37.1371 25.6779 39.3488 26.5664 41.0101 28.1579C41.8187 28.9333 42.4621 29.8643 42.9017 30.8948C43.3413 31.9253 43.5678 33.034 43.5678 34.1544C43.5678 35.2747 43.3413 36.3835 42.9017 37.414C42.4621 38.4445 41.8187 39.3755 41.0101 40.1509ZM48.3351 36.2729H59.2641C59.5995 36.2686 59.923 36.3974 60.1636 36.6312C60.4043 36.8649 60.5425 37.1845 60.5481 37.5199V40.9839C60.549 41.147 60.5825 41.3083 60.6468 41.4582C60.711 41.6081 60.8046 41.7437 60.9221 41.8569C61.1626 42.0922 61.4856 42.2239 61.8221 42.2239C62.1585 42.2239 62.4816 42.0922 62.7221 41.8569C62.8405 41.7445 62.9348 41.6091 62.9991 41.459C63.0634 41.3089 63.0964 41.1472 63.0961 40.9839V37.5199C63.1016 37.1845 63.2398 36.8649 63.4805 36.6312C63.7211 36.3974 64.0446 36.2686 64.3801 36.2729H69.0231C69.3585 36.2686 69.682 36.3974 69.9226 36.6312C70.1633 36.8649 70.3015 37.1845 70.3071 37.5199V45.7559C70.3081 45.9197 70.3418 46.0817 70.406 46.2324C70.4702 46.3831 70.5637 46.5196 70.6811 46.6339C70.9231 46.8661 71.2456 46.9958 71.5811 46.9958C71.9165 46.9958 72.239 46.8661 72.4811 46.6339C72.5997 46.5205 72.694 46.3842 72.7585 46.2333C72.8229 46.0824 72.8561 45.92 72.8561 45.7559V37.5199C72.8616 37.1845 72.9998 36.8649 73.2405 36.6312C73.4811 36.3974 73.8046 36.2686 74.1401 36.2729H75.2401C75.8159 36.2737 76.3695 36.0506 76.784 35.6509C76.986 35.4579 77.1468 35.226 77.2567 34.9691C77.3665 34.7122 77.4231 34.4358 77.4231 34.1564C77.4231 33.877 77.3665 33.6006 77.2567 33.3437C77.1468 33.0868 76.986 32.8549 76.784 32.6619C76.3714 32.2589 75.8169 32.0341 75.2401 32.0359H48.3361C48.0477 32.039 47.7668 31.9443 47.5393 31.7672C47.3117 31.5901 47.1509 31.3411 47.0831 31.0609C46.3645 28.4136 44.7803 26.083 42.5831 24.4409C40.1303 22.6101 37.1076 21.7088 34.0527 21.8975C30.9979 22.0861 28.109 23.3523 25.9001 25.4709C24.7282 26.5937 23.7957 27.942 23.1587 29.4347C22.5217 30.9273 22.1932 32.5335 22.1932 34.1564C22.1932 35.7793 22.5217 37.3854 23.1587 38.8781C23.7957 40.3708 24.7282 41.7191 25.9001 42.8419C28.111 44.9587 31.0004 46.2236 34.0555 46.4122C37.1105 46.6007 40.1336 45.7007 42.5881 43.8719C44.7919 42.221 46.3768 39.8771 47.0881 37.2169C47.1631 36.9441 47.3261 36.7037 47.5518 36.533C47.7774 36.3623 48.0521 36.2709 48.3351 36.2729ZM57.9781 38.7669H49.2921C48.327 41.5862 46.5357 44.0498 44.1511 45.8369C41.2008 48.0416 37.5637 49.1273 33.8876 48.9008C30.2116 48.6743 26.7353 47.1501 24.0781 44.5999C22.6696 43.2482 21.5489 41.6257 20.7834 39.8299C20.0178 38.0341 19.6232 36.1021 19.6232 34.1499C19.6232 32.1977 20.0178 30.2657 20.7834 28.4699C21.5489 26.6741 22.6696 25.0516 24.0781 23.6999C26.7358 21.1502 30.2124 19.6269 33.8885 19.4012C37.5646 19.1756 41.2014 20.2624 44.1511 22.4679C46.5356 24.2546 48.327 26.7178 49.2921 29.5369H75.2451C76.498 29.5379 77.7014 30.0267 78.6001 30.8999C79.0404 31.3209 79.3908 31.8268 79.6302 32.387C79.8696 32.9473 79.993 33.5502 79.993 34.1594C79.993 34.7686 79.8696 35.3715 79.6302 35.9317C79.3908 36.4919 79.0404 36.9978 78.6001 37.4189C77.7459 38.2452 76.6167 38.727 75.4291 38.7719V45.7609C75.4275 46.254 75.3267 46.7418 75.1328 47.1951C74.9388 47.6485 74.6556 48.0582 74.3001 48.3999C73.5706 49.1031 72.5968 49.4961 71.5836 49.4961C70.5703 49.4961 69.5965 49.1031 68.8671 48.3999C68.5112 48.058 68.228 47.648 68.0342 47.1942C67.8404 46.7405 67.74 46.2523 67.7391 45.7589V38.7669H65.6681V40.9839C65.6676 41.4766 65.5674 41.9642 65.3736 42.4172C65.1797 42.8702 64.8962 43.2793 64.5401 43.6199C63.8123 44.3261 62.8381 44.7211 61.8241 44.7211C60.81 44.7211 59.8358 44.3261 59.1081 43.6199C58.7518 43.2794 58.4681 42.8703 58.2741 42.4173C58.0801 41.9643 57.9797 41.4767 57.9791 40.9839L57.9781 38.7669ZM42.7781 15.9379C42.5445 16.1815 42.2258 16.3254 41.8886 16.3394C41.5515 16.3533 41.2219 16.2363 40.9691 16.0129C40.8457 15.9039 40.7456 15.7712 40.6747 15.6227C40.6037 15.4742 40.5634 15.3129 40.5561 15.1484C40.5488 14.984 40.5747 14.8198 40.6323 14.6656C40.6898 14.5114 40.7778 14.3704 40.8911 14.2509C43.795 11.188 47.297 8.75406 51.1801 7.09989C56.8476 4.68971 63.0978 3.99539 69.1562 5.10297C75.2146 6.21055 80.8148 9.07135 85.2631 13.3309C88.1097 16.0602 90.3748 19.3371 91.9222 22.9645C93.4696 26.5919 94.2673 30.4947 94.2673 34.4384C94.2673 38.382 93.4696 42.2849 91.9222 45.9123C90.3748 49.5397 88.1097 52.8166 85.2631 55.5459C82.2502 58.4553 78.6837 60.7298 74.775 62.2345C70.8664 63.7393 66.6953 64.4435 62.5093 64.3054C58.3233 64.1674 54.2077 63.1899 50.4066 61.431C46.6056 59.672 43.1967 57.1674 40.3821 54.0659C40.2718 53.9443 40.1874 53.8017 40.1338 53.6466C40.0802 53.4915 40.0585 53.3271 40.0701 53.1634C40.0817 52.9997 40.1263 52.8401 40.2012 52.6941C40.2761 52.5481 40.3798 52.4187 40.5061 52.3139C40.7628 52.0966 41.0938 51.9873 41.4294 52.0089C41.7651 52.0306 42.0793 52.1814 42.3061 52.4299C44.9728 55.3902 48.2369 57.7514 51.8831 59.3579C57.1063 61.6539 62.8931 62.3495 68.5116 61.3566C74.1302 60.3638 79.3281 57.727 83.4481 53.7799C86.0571 51.2785 88.1333 48.2752 89.5516 44.9506C90.9699 41.626 91.701 38.0489 91.701 34.4344C91.701 30.8199 90.9699 27.2428 89.5516 23.9182C88.1333 20.5936 86.0571 17.5903 83.4481 15.0889C79.3719 11.1832 74.2389 8.56009 68.6857 7.54487C63.1325 6.52965 57.4034 7.16701 52.2091 9.37789C48.6481 10.8935 45.4377 13.1266 42.7781 15.9379ZM13.1771 51.7499L13.4471 55.4359L19.8151 54.9919C20.2991 54.9609 20.9021 54.9109 21.4741 54.8649C26.0121 54.5019 28.4251 54.3049 32.4221 57.6649L45.7681 68.8999C46.3257 69.3626 46.7843 69.933 47.1165 70.5769C47.4487 71.2209 47.6476 71.9252 47.7015 72.6478C47.7553 73.3704 47.663 74.0964 47.4299 74.7825C47.1969 75.4686 46.8279 76.1006 46.3451 76.6409H46.3391C45.9913 77.0366 45.5869 77.3786 45.1391 77.6559C46.0281 77.6769 46.9631 77.6059 47.8841 77.5399L48.4611 77.4999L74.2051 75.7069C75.8539 75.5887 77.4839 76.1178 78.7491 77.1819C79.3681 77.6955 79.8775 78.3284 80.247 79.0429C80.6165 79.7574 80.8386 80.5389 80.9001 81.3409C80.9578 82.1408 80.8531 82.9442 80.5923 83.7026C80.3314 84.461 79.9197 85.1588 79.3821 85.7539C78.2845 86.9859 76.7465 87.737 75.1001 87.8449L39.0001 90.3589C33.2861 90.7589 31.3941 88.8799 30.2661 87.7589C30.1661 87.6589 30.0791 87.5719 29.9851 87.4909L17.4551 76.1339L14.9861 76.3059L15.2611 79.9999C15.2799 80.3345 15.1652 80.663 14.942 80.9131C14.7189 81.1632 14.4057 81.3145 14.0711 81.3339L4.18805 82.0199C3.85396 82.0457 3.52315 81.9388 3.26728 81.7225C3.01141 81.5061 2.85109 81.1976 2.82105 80.8639L0.736053 52.6129C0.726607 52.4474 0.749965 52.2817 0.804782 52.1252C0.859599 51.9688 0.944795 51.8247 1.05547 51.7013C1.16615 51.5779 1.30013 51.4776 1.4497 51.4061C1.59928 51.3346 1.7615 51.2934 1.92705 51.2849L11.8041 50.5929C12.1391 50.5665 12.471 50.6731 12.728 50.8897C12.9849 51.1062 13.1463 51.4153 13.1771 51.7499ZM12.6101 78.9319L10.7101 53.1689L3.39005 53.6789L5.29005 79.4419L12.6101 78.9319Z" fill="white"/>
</svg>
