<?xml version="1.0" encoding="UTF-8" standalone="no"?><!DOCTYPE svg PUBLIC "-//W3C//DTD SVG 1.1//EN" "http://www.w3.org/Graphics/SVG/1.1/DTD/svg11.dtd"><svg width="100%" height="100%" viewBox="0 0 90 90" version="1.1" xmlns="http://www.w3.org/2000/svg" xmlns:xlink="http://www.w3.org/1999/xlink" xml:space="preserve" xmlns:serif="http://www.serif.com/" style="fill-rule:evenodd;clip-rule:evenodd;stroke-linejoin:round;stroke-miterlimit:2;"><rect id="Artboard1" x="0" y="0" width="89.001" height="89.001" style="fill:none;"/><g><path d="M44.501,74.258c14.406,-0 26.125,-11.719 26.125,-26.125c-0,-5.035 -2.852,-12.172 -8.715,-21.812c-1.652,-2.61 -5.559,-0.219 -4.004,2.433c6.641,10.914 8.031,16.559 8.031,19.375c-1.172,28.43 -41.699,28.441 -42.875,0c0,-8.179 11,-25.152 21.438,-38.504c1.778,2.274 4.942,6.422 8.317,11.344c1.789,2.516 5.566,-0.086 3.867,-2.652c-3.691,-5.379 -7.133,-9.855 -8.844,-12.031c-1.57,-2.152 -5.094,-2.16 -6.664,-0.012c-6.855,8.723 -22.797,30.262 -22.797,41.855c0,14.406 11.719,26.125 26.125,26.125l-0.004,0.004Z" style="fill:url(#_Linear1);fill-rule:nonzero;"/><path d="M34.419,48.137c-0.051,-3.074 -4.637,-3.082 -4.688,-0c0,8.144 6.625,14.77 14.77,14.77c1.293,-0 2.344,-1.051 2.344,-2.344c0,-1.293 -1.051,-2.344 -2.344,-2.344c-5.558,0 -10.082,-4.523 -10.082,-10.082l-0,-0Z" style="fill:url(#_Linear2);fill-rule:nonzero;"/><path d="M85.907,76.453c-7.207,-0.082 -7.274,3.074 -13.809,3.191c-6.527,-0.117 -6.61,-3.273 -13.809,-3.191c-7.199,-0.082 -7.274,3.074 -13.797,3.191c-6.527,-0.117 -6.602,-3.273 -13.805,-3.191c-3.965,-0 -6.047,0.961 -7.883,1.812c-1.598,0.739 -2.98,1.379 -5.914,1.379c-2.934,0 -4.316,-0.64 -5.914,-1.379c-1.836,-0.851 -3.918,-1.812 -7.883,-1.812c-1.293,-0 -2.344,1.051 -2.344,2.344c0,1.293 1.051,2.343 2.344,2.343c6.52,0.118 6.602,3.274 13.797,3.192c7.199,0.082 7.27,-3.074 13.797,-3.192c6.527,0.118 6.602,3.274 13.805,3.192c7.199,0.082 7.273,-3.074 13.797,-3.192c6.535,0.118 6.606,3.274 13.809,3.192c7.199,0.082 7.277,-3.074 13.809,-3.192c3.051,-0.043 3.106,-4.632 0,-4.687l-0,-0Z" style="fill:url(#_Linear3);fill-rule:nonzero;"/><path d="M69.103,67.265c-0.121,4.969 9.816,1.418 10.883,0.726c1.601,-0.738 2.984,-1.379 5.922,-1.379c1.293,0 2.344,-1.05 2.344,-2.343c-0.239,-4.719 -9.219,-1.102 -10.234,-0.535c-1.602,0.738 -2.985,1.378 -5.922,1.378c-1.434,-0.214 -2.887,0.614 -2.993,2.153l-0,-0Z" style="fill:url(#_Linear4);fill-rule:nonzero;"/><path d="M3.095,66.613c2.929,-0 4.308,0.637 5.906,1.375c1.836,0.847 3.922,1.812 7.89,1.812c1.563,0.2 3.141,-0.836 3.008,-2.523c-0.105,-1.559 -1.574,-2.387 -3.008,-2.164c-6.531,-0.117 -6.601,-3.27 -13.797,-3.188c-3.074,0.051 -3.085,4.633 0,4.688l0.001,-0Z" style="fill:url(#_Linear5);fill-rule:nonzero;"/></g><defs><linearGradient id="_Linear1" x1="0" y1="0" x2="1" y2="0" gradientUnits="userSpaceOnUse" gradientTransform="matrix(52.2468,0,0,59.2376,18.3802,39.6303)"><stop offset="0" style="stop-color:#1685ff;stop-opacity:1"/><stop offset="0.5" style="stop-color:#8b5cf6;stop-opacity:1"/><stop offset="1" style="stop-color:#d946ef;stop-opacity:1"/></linearGradient><linearGradient id="_Linear2" x1="0" y1="0" x2="1" y2="0" gradientUnits="userSpaceOnUse" gradientTransform="matrix(17.1141,0,0,14.5378,29.7314,54.4087)"><stop offset="0" style="stop-color:#1685ff;stop-opacity:1"/><stop offset="0.5" style="stop-color:#8b5cf6;stop-opacity:1"/><stop offset="1" style="stop-color:#d946ef;stop-opacity:1"/></linearGradient><linearGradient id="_Linear3" x1="0" y1="0" x2="1" y2="0" gradientUnits="userSpaceOnUse" gradientTransform="matrix(87.4681,0,0,6.70954,0.749518,80.4113)"><stop offset="0" style="stop-color:#1685ff;stop-opacity:1"/><stop offset="0.5" style="stop-color:#8b5cf6;stop-opacity:1"/><stop offset="1" style="stop-color:#d946ef;stop-opacity:1"/></linearGradient><linearGradient id="_Linear4" x1="0" y1="0" x2="1" y2="0" gradientUnits="userSpaceOnUse" gradientTransform="matrix(19.1502,0,0,6.80213,69.1018,65.8902)"><stop offset="0" style="stop-color:#1685ff;stop-opacity:1"/><stop offset="0.5" style="stop-color:#8b5cf6;stop-opacity:1"/><stop offset="1" style="stop-color:#d946ef;stop-opacity:1"/></linearGradient><linearGradient id="_Linear5" x1="0" y1="0" x2="1" y2="0" gradientUnits="userSpaceOnUse" gradientTransform="matrix(19.123,0,0,6.72559,0.784492,65.8933)"><stop offset="0" style="stop-color:#1685ff;stop-opacity:1"/><stop offset="0.5" style="stop-color:#8b5cf6;stop-opacity:1"/><stop offset="1" style="stop-color:#d946ef;stop-opacity:1"/></linearGradient></defs></svg>