<?xml version="1.0" encoding="UTF-8"?><svg id="a" xmlns="http://www.w3.org/2000/svg" xmlns:xlink="http://www.w3.org/1999/xlink" viewBox="0 0 50 50"><defs><style>.c{fill:url(#b);}</style><linearGradient id="b" x1="4.36" y1="25.86" x2="45.64" y2="25.86" gradientTransform="matrix(1, 0, 0, 1, 0, 0)" gradientUnits="userSpaceOnUse"><stop offset=".01" stop-color="#4376fc"/><stop offset=".99" stop-color="#c84bf1"/></linearGradient></defs><path class="c" d="M26.99,29.72c0-1.1-.92-1.96-1.96-1.96-1.1,0-1.96,.86-1.96,1.96,0,1.03,.86,1.96,1.96,1.96,1.03,0,1.96-.92,1.96-1.96h0ZM8.33,12.5c0-.63,1.03-.63,1.03,0,0,.98,2.07,.98,2.07,0,0-.52-.58-.63-1.15-.75-.98-.17-1.96-.4-1.96-1.78,0-.87,.75-1.5,1.55-1.67v-.69c0-.69,1.03-.69,1.03,0v.69c.8,.17,1.55,.8,1.55,1.67,0,.69-1.03,.69-1.03,0,0-.98-2.07-.98-2.07,0,0,.58,.58,.69,1.15,.8,.98,.17,1.96,.35,1.96,1.73,0,.92-.75,1.55-1.55,1.73v.69c0,.69-1.03,.69-1.03,0v-.69c-.8-.18-1.55-.81-1.55-1.73h0Zm2.07-7.31c3.34,0,6.04,2.71,6.04,6.04s-2.71,6.1-6.04,6.1-6.04-2.71-6.04-6.1c0-3.34,2.71-6.04,6.04-6.04h0Zm0,1.04c-2.76,0-5.06,2.25-5.06,5.01s2.3,5.06,5.06,5.06,5.06-2.25,5.06-5.06c0-2.77-2.24-5.01-5.06-5.01h0Zm12.55,6.27c0-.63,1.03-.63,1.03,0,0,.98,2.07,.98,2.07,0,0-.52-.58-.63-1.15-.75-.98-.17-1.96-.4-1.96-1.78,0-.87,.75-1.5,1.55-1.67v-.69c0-.69,.98-.69,.98,0v.69c.86,.17,1.55,.8,1.55,1.67,0,.69-.98,.69-.98,0,0-.98-2.07-.98-2.07,0,0,.58,.52,.69,1.1,.8,.98,.17,1.96,.35,1.96,1.73,0,.92-.69,1.55-1.55,1.73v.69c0,.69-.98,.69-.98,0v-.69c-.8-.18-1.55-.81-1.55-1.73h0Zm2.07-7.31c3.34,0,6.04,2.71,6.04,6.04s-2.71,6.1-6.04,6.1-6.1-2.71-6.1-6.1c0-3.34,2.71-6.04,6.1-6.04h0Zm0,1.04c-2.82,0-5.06,2.25-5.06,5.01s2.25,5.06,5.06,5.06,5.01-2.25,5.01-5.06-2.25-5.01-5.01-5.01h0Zm12.49,6.27c0-.63,1.03-.63,1.03,0,0,.98,2.07,.98,2.07,0,0-.52-.58-.63-1.15-.75-.98-.17-1.96-.4-1.96-1.78,0-.87,.75-1.5,1.55-1.67v-.69c0-.69,1.03-.69,1.03,0v.69c.8,.17,1.55,.8,1.55,1.67,0,.69-1.03,.69-1.03,0,0-.98-2.07-.98-2.07,0,0,.58,.58,.69,1.15,.8,.98,.17,1.96,.35,1.96,1.73,0,.92-.75,1.55-1.55,1.73v.69c0,.69-1.03,.69-1.03,0v-.69c-.8-.18-1.55-.81-1.55-1.73h0Zm2.07-7.31c3.34,0,6.04,2.71,6.04,6.04s-2.71,6.1-6.04,6.1-6.04-2.71-6.04-6.1c0-3.34,2.7-6.04,6.04-6.04h0Zm0,1.04c-2.76,0-5.06,2.25-5.06,5.01s2.3,5.06,5.06,5.06,5.06-2.25,5.06-5.06-2.25-5.01-5.06-5.01h0Zm-5.7,16.46l.58,.8-.86,.58-.58-.8,.86-.58Zm1.1,1.84l.4,.92-.98,.4-.35-.92,.92-.4Zm.74,2.07l.17,.98-.98,.17-.23-.98,1.03-.17Zm.29,2.13v.98h-1.03v-.98h1.03Zm-.12,2.13l-.17,.98-1.03-.17,.23-.98,.98,.17Zm-.51,2.13l-.4,.92-.92-.4,.35-.92,.98,.4Zm-.92,1.96l-.58,.8-.86-.58,.58-.8,.86,.58Zm-18.37,.8l-.58-.8,.86-.58,.58,.8-.86,.58Zm-1.1-1.84l-.4-.92,.98-.4,.35,.92-.92,.4Zm-.74-2.07l-.17-.98,.98-.17,.23,.98-1.03,.17Zm-.29-2.13v-.98h1.03v.98h-1.03Zm.12-2.13l.17-.98,1.03,.17-.23,.98-.98-.17Zm.51-2.13l.4-.92,.92,.4-.35,.92-.98-.4Zm.92-1.96l.58-.8,.86,.58-.58,.8-.86-.58Zm-5.47-4.67c0-.69,1.03-.69,1.03,0v1.1c0,.35,.28,.63,.69,.63h12.84v-1.73c0-.69,1.03-.69,1.03,0v1.73h12.9c.35,0,.69-.29,.69-.63v-1.1c0-.69,.98-.69,.98,0v1.1c0,.92-.75,1.67-1.67,1.67H11.79c-.98,0-1.73-.75-1.73-1.67v-1.1Zm5.01,25.28c1.55,.12,4.72,.98,5.88,1.21,.8,.23,1.27,.28,2.13,.12l7.14-1.03c.63-.06,1.5-.4,2.07-.8l7.14-5.24c0-.46-.28-.75-.75-.8-.69-.06-1.5,.52-2.13,.92l-5.7,3.4c-.06,.06-.12,.06-.23,.12-2.82,.17-5.64,.46-8.46,.69-.63,.06-.75-.98-.06-1.03,1.67-.12,6.28-.63,6.56-2.59,.06-.46-.12-1.1-.69-.98-2.07,.52-4.61,.86-6.68,.12-1.38-.46-2.53-.58-3.57-.52-.92,.06-1.78,.35-2.65,.75v5.68h0Zm0-6.8c.86-.35,1.67-.58,2.59-.63,1.15-.12,2.42,.06,3.91,.58,1.9,.63,4.26,.28,6.16-.17,.58-.12,1.03,.06,1.38,.35,1.21-.8,3.05-1.84,4.31-.52,1.21-.69,2.71-1.44,4.03-.12,.4-.17,.86-.28,1.32-.23,1.1,.06,1.78,.98,1.67,2.07,0,.17-.12,.28-.23,.4l-7.37,5.36c-.86,.58-1.5,.8-2.53,1.03l-7.14,1.03c-.98,.12-1.5,.06-2.48-.12-.98-.23-4.49-1.15-5.64-1.27v.23c0,.52-.4,.98-.98,.98h-3.57c-.52,0-.98-.46-.98-.98v-7.99c0-.58,.46-.98,.98-.98h3.57c.58,0,.98,.4,.98,.98h0Zm-1.96,0v7.94h.98v-7.94h-.98Zm-1.04,7.95v-7.95h-1.5v7.94h1.5Zm16.24-4.14l2.13-.17,6.04-3.68c-.63-.46-1.55-.06-2.13,.28l-6.04,3.57Zm1.32-2.82c.06,.28,.06,.58,0,.86l2.82-1.67c-.87-.51-2.14,.35-2.82,.81h0Zm-1.67-8.58c0,1.61-1.32,2.93-2.93,2.93s-3-1.32-3-2.93,1.32-3,3-3c1.61,0,2.93,1.32,2.93,3h0Zm1.32,.75c-.06,.17,.06,.35,.17,.46l1.38,1.1-.92,1.61-1.61-.69c-.17-.06-.35-.06-.52,.12-.12,.12-.8,.58-1.32,.69-.12,.12-.28,.23-.28,.46l-.23,1.73h-1.9l-.23-1.73c0-.23-.12-.35-.28-.46-.52-.12-1.15-.58-1.32-.69-.17-.17-.35-.17-.52-.12l-1.61,.69-.92-1.61,1.38-1.1c.17-.12,.23-.28,.17-.46-.06-.63-.06-.92,0-1.5,.06-.17,0-.4-.17-.52l-1.38-1.03,.92-1.61,1.61,.63c.17,.06,.35,.06,.52-.06,.17-.12,.8-.58,1.32-.75,.17-.06,.28-.23,.28-.4l.23-1.73h1.9l.23,1.73c0,.17,.17,.35,.28,.4,.52,.17,1.21,.63,1.32,.75,.17,.12,.35,.12,.52,.06l1.61-.63,.92,1.61-1.38,1.03c-.12,.12-.23,.35-.17,.52,.06,.58,.06,.87,0,1.5h0Zm1.03-1.38l1.5-1.15c.23-.17,.29-.46,.12-.69l-1.38-2.36c-.12-.23-.35-.28-.58-.23l-1.78,.75c-.35-.23-.69-.46-1.03-.63l-.28-1.84c0-.23-.23-.46-.52-.46h-2.71c-.28,0-.52,.23-.52,.46l-.23,1.84c-.4,.17-.75,.4-1.1,.63l-1.73-.75c-.28-.06-.52,0-.63,.23l-1.38,2.36c-.17,.23-.06,.52,.12,.69l1.5,1.15c-.06,.4-.06,.8,0,1.21l-1.5,1.15c-.17,.17-.28,.46-.12,.69l1.38,2.36c.12,.23,.35,.35,.63,.23l1.73-.75c.35,.29,.69,.46,1.1,.63l.23,1.84c0,.28,.23,.46,.52,.46h2.71c.29,0,.52-.17,.52-.46l.28-1.84c.35-.17,.69-.35,1.03-.63l1.78,.75c.23,.12,.46,0,.58-.23l1.38-2.36c.17-.23,.12-.52-.12-.69l-1.5-1.15c.06-.4,.06-.8,0-1.21h0Z"/></svg>