<svg width="30" height="30" viewBox="0 0 30 30" fill="none" xmlns="http://www.w3.org/2000/svg">
<path fill-rule="evenodd" clip-rule="evenodd" d="M14.5157 15.5098H15.5678V14.454L14.9678 13.8653C14.8742 13.7733 14.8633 13.629 14.9358 13.5248L15.35 12.8865H14.5157V15.5098ZM12.9312 15.5098H13.9833V12.8868H12.9312V15.5098ZM17.7526 10.4024V10.6206C17.7606 10.6657 17.7706 10.7104 17.7831 10.7544C17.8437 10.9693 17.9582 11.1695 18.1266 11.334C18.3118 11.5144 18.5378 11.6289 18.7767 11.6782C19.0272 11.7298 19.2929 11.7107 19.5436 11.622C19.6085 11.5991 19.6759 11.5951 19.7396 11.6091L19.7408 11.6102C19.8054 11.6244 19.865 11.656 19.9139 11.7036L20.5157 12.2907C20.6357 12.2085 20.747 12.1147 20.8486 12.0114C20.9699 11.8876 21.0768 11.7498 21.1671 11.6007L20.5768 11.0251C20.5273 10.9769 20.4939 10.9177 20.4781 10.8537C20.4624 10.7895 20.4644 10.7219 20.4855 10.6566C20.5677 10.4044 20.5801 10.1379 20.5224 9.88833C20.4672 9.65054 20.3475 9.42764 20.163 9.24762C19.9945 9.08339 19.7912 8.97383 19.5743 8.91849C19.4525 8.88738 19.3267 8.87316 19.2007 8.8756L19.7696 9.43053C19.8163 9.47586 19.8485 9.53075 19.8654 9.59054C19.8823 9.65098 19.8837 9.71432 19.8679 9.77633L19.6703 10.5519C19.6545 10.6139 19.6232 10.6691 19.5792 10.7139C19.5354 10.7588 19.481 10.7917 19.4187 10.8091L18.6482 11.0257C18.5856 11.0433 18.5225 11.044 18.4624 11.0289C18.4027 11.0135 18.3473 10.9826 18.3007 10.9373L17.7524 10.4026L17.7526 10.4024ZM17.2213 10.0919C17.1933 10.2826 17.1933 10.4755 17.2213 10.6637C17.2224 10.6759 17.2244 10.6882 17.227 10.6999C17.2384 10.7666 17.253 10.8326 17.2715 10.8977C17.3568 11.2 17.5184 11.482 17.7564 11.7142C18.0164 11.9678 18.334 12.1285 18.6707 12.1978C18.9814 12.2618 19.3074 12.2476 19.6176 12.156L20.0179 12.5465C19.787 12.6305 19.5383 12.6776 19.2789 12.6803V12.6792L19.2769 12.6803C18.6605 12.6863 18.1 12.4418 17.6924 12.0418C17.2848 11.642 17.0295 11.0873 17.023 10.4724H17.0241L17.023 10.4704C17.017 9.85389 17.2615 9.29341 17.6615 8.88582C18.0613 8.47824 18.616 8.22289 19.2309 8.21645V8.21756L19.2332 8.21645C19.8497 8.21044 20.4101 8.45491 20.8177 8.85493C21.2253 9.25474 21.4806 9.80944 21.4871 10.4244H21.486L21.4871 10.4266C21.4893 10.6544 21.4573 10.8746 21.3958 11.0822L21.0215 10.7173C21.1053 10.4044 21.1117 10.0783 21.0402 9.76988C20.9626 9.43519 20.7937 9.12139 20.533 8.86715C20.2948 8.63469 20.009 8.48046 19.7052 8.40268C19.3934 8.32312 19.0614 8.3249 18.7414 8.4069C18.6733 8.42424 18.6165 8.45868 18.5727 8.5038C18.5293 8.54824 18.4989 8.60292 18.4831 8.66159C18.4678 8.71915 18.4669 8.78159 18.4824 8.84293H18.4816C18.4971 8.90405 18.5293 8.96249 18.5798 9.01161L19.3276 9.74099L19.1789 10.3248L18.6 10.4877L17.8513 9.75744C17.8015 9.70899 17.7426 9.67854 17.6811 9.66432C17.6204 9.65032 17.5577 9.65276 17.4995 9.66987C17.4415 9.68699 17.3873 9.71899 17.3433 9.76388C17.2993 9.80899 17.2661 9.86655 17.2506 9.93434C17.2415 9.97389 17.2337 10.0137 17.227 10.0537C17.2241 10.0661 17.2221 10.079 17.221 10.0921L17.2213 10.0919ZM10.6537 12.8865H6.28186V13.3819H10.6537V12.8865ZM20.6388 12.8399C20.6266 12.8483 20.6137 12.8556 20.6001 12.8619C20.2097 13.0799 19.7603 13.2059 19.2814 13.2106L19.2794 13.2117V13.2106C18.5176 13.2172 17.8246 12.915 17.3204 12.4203C16.8159 11.9256 16.5003 11.2378 16.493 10.4744L16.4919 10.4724H16.493C16.4863 9.71054 16.7886 9.01761 17.2833 8.51335C17.778 8.00888 18.4658 7.6933 19.2292 7.68597L19.2312 7.68485V7.68597C19.993 7.6793 20.6859 7.98154 21.1902 8.47624C21.6947 8.97094 22.0102 9.65876 22.0176 10.4221L22.0187 10.4241H22.0176C22.0245 11.1862 21.722 11.8789 21.2273 12.3832C21.0533 12.5605 20.8555 12.7143 20.6388 12.8399ZM15.3785 8.36512H10.6155V8.86049H15.15C15.1629 8.82715 15.1762 8.79426 15.1898 8.76137C15.246 8.62603 15.3091 8.4938 15.3785 8.36512ZM15.5931 9.19651C15.6198 9.11828 15.6491 9.04094 15.6807 8.96516C15.7729 8.74315 15.8845 8.53247 16.0134 8.33512C16.0732 8.24311 16.0685 8.12777 16.011 8.04221H16.0114L15.9567 7.96109C15.9523 7.95354 15.9474 7.94643 15.9421 7.93954L15.4909 7.27327L16.0652 6.6879L16.8586 7.20282C16.9508 7.26283 17.0666 7.25794 17.1521 7.19993C17.349 7.07215 17.5582 6.96192 17.7771 6.87124C17.9937 6.78168 18.2209 6.71101 18.4562 6.66168C18.5645 6.63923 18.6433 6.55367 18.6629 6.45166L18.8385 5.54116L19.6581 5.53316L19.8548 6.45811C19.8781 6.56811 19.9665 6.6479 20.0712 6.66523C20.3008 6.71457 20.5239 6.78457 20.7382 6.87369C20.9602 6.96592 21.1711 7.0777 21.3682 7.20638C21.4602 7.26616 21.5755 7.26149 21.6611 7.20393V7.20438L22.4303 6.6839L23.0156 7.25816L22.5005 8.05155C22.4405 8.14377 22.4454 8.25956 22.5034 8.34512C22.6312 8.54202 22.7414 8.75115 22.8321 8.97005C22.9216 9.18651 22.9921 9.41364 23.0414 9.64876C23.0639 9.75699 23.1494 9.83589 23.2514 9.85544L24.1622 10.031L24.1702 10.8506L23.2452 11.0473C23.1352 11.0706 23.0554 11.1591 23.0381 11.2638C22.9887 11.4933 22.9187 11.7165 22.8296 11.9307C22.7374 12.1527 22.6258 12.3636 22.4969 12.5607C22.4372 12.6527 22.4418 12.7681 22.4994 12.8536H22.4989L23.0194 13.6226L22.4452 14.208L21.8671 13.8328C21.8558 13.8241 21.8436 13.8161 21.8309 13.8093L21.6515 13.6928C21.5593 13.6328 21.4435 13.6377 21.358 13.6957C21.1608 13.8235 20.9519 13.9337 20.7328 14.0244C20.5164 14.1139 20.2892 14.1844 20.0541 14.2337C19.9459 14.2562 19.867 14.3417 19.8474 14.4437L19.6719 15.3545L18.8522 15.3625L18.6553 14.4375C18.632 14.3275 18.5436 14.2477 18.4389 14.2304C18.2093 14.1811 17.9862 14.1111 17.772 14.0219C17.7191 13.9999 17.6668 13.9768 17.6153 13.9528C17.6053 13.9473 17.5948 13.9424 17.5842 13.9382C17.4304 13.8646 17.2826 13.7813 17.1419 13.6893C17.0457 13.6268 16.9241 13.6346 16.8375 13.6999L16.0805 14.2122L16.0341 14.1666C16.0254 14.1566 16.0158 14.1473 16.0056 14.1386L15.4945 13.6372L16.0096 12.8439C16.0696 12.7516 16.0647 12.6358 16.0067 12.5503C15.9954 12.533 15.9843 12.5154 15.9732 12.4976C15.9667 12.4852 15.9594 12.4734 15.9512 12.4621C15.8467 12.2912 15.7552 12.1116 15.678 11.9251C15.5885 11.7085 15.518 11.4815 15.4685 11.2464C15.446 11.1382 15.3605 11.0593 15.2585 11.0397L14.3477 10.8642L14.3397 10.0446L15.2647 9.84766C15.3725 9.82477 15.4511 9.73943 15.4707 9.63765C15.5005 9.49742 15.538 9.36008 15.5827 9.22585C15.5867 9.21607 15.59 9.20584 15.5929 9.19562L15.5931 9.19651ZM17.7528 22.1585H21.4389V14.2684C21.2773 14.3609 21.1091 14.4437 20.9348 14.5158C20.7417 14.5955 20.5419 14.662 20.3366 14.714L20.1528 15.668C20.1274 15.8005 20.0079 15.891 19.8768 15.8834L18.6396 15.8954C18.5113 15.8965 18.4036 15.8061 18.378 15.6852H18.3776L18.1709 14.7133C18.0284 14.6773 17.8889 14.6342 17.7526 14.5849V22.1583L17.7528 22.1585ZM6.96769 22.1585H10.6539V13.9142H6.96746V22.1585H6.96769ZM22.8739 23.7186H5.53248V24.4684H22.8736L22.8739 23.7186ZM6.28208 23.1863H22.1245V22.691H6.28186V23.1863H6.28208ZM5.26646 23.1863H5.74961V22.4247C5.74961 22.2778 5.86872 22.1585 6.01585 22.1585H6.43521V13.9142H6.01585C5.86895 13.9142 5.74961 13.795 5.74961 13.6479V12.6201C5.74961 12.4732 5.86872 12.3538 6.01585 12.3538H10.6537V9.39275H10.3492C10.2023 9.39275 10.083 9.27363 10.083 9.12651V8.09866C10.083 7.95176 10.2021 7.83242 10.3492 7.83242H15.2276L14.9287 7.39083C14.8538 7.27972 14.874 7.13215 14.9707 7.04503L15.8383 6.16053C15.9303 6.06697 16.0747 6.05608 16.1787 6.12853L17.0059 6.66545C17.1875 6.55722 17.3777 6.46166 17.5753 6.37988C17.7684 6.3001 17.9682 6.23343 18.1738 6.18142L18.3576 5.22736C18.3829 5.09491 18.5024 5.00445 18.6336 5.01201L19.8708 5.00001C19.999 4.9989 20.1068 5.08935 20.1323 5.21025H20.1328L20.3395 6.18209C20.547 6.23476 20.7484 6.30187 20.9419 6.38232C21.1371 6.46344 21.3257 6.55856 21.5064 6.66656L22.312 6.1212C22.4232 6.0463 22.5707 6.06653 22.6578 6.1632L23.5421 7.03059C23.6357 7.12259 23.6466 7.26683 23.5741 7.37106L23.0372 8.19822C23.1454 8.37979 23.241 8.57002 23.3228 8.76759C23.4026 8.96072 23.469 9.16051 23.521 9.36585L24.4751 9.54964C24.6075 9.57498 24.698 9.69454 24.6904 9.82566L24.7024 11.0629C24.7035 11.1911 24.6131 11.2989 24.4922 11.3244V11.3249L23.5203 11.5316C23.4677 11.7391 23.4006 11.9405 23.3201 12.134C23.239 12.3292 23.1439 12.5178 23.0359 12.6985L23.5812 13.5041C23.6561 13.6152 23.6359 13.7628 23.5392 13.8499L22.6718 14.7344C22.5798 14.828 22.4356 14.8389 22.3314 14.7664L21.9709 14.5324V22.1576H22.3903C22.5372 22.1576 22.6565 22.2767 22.6565 22.4238V23.1854H23.1396C23.2865 23.1854 23.4059 23.3046 23.4059 23.4517V24.7338C23.4059 24.8807 23.2868 25 23.1396 25H5.26624C5.11934 25 5 24.8809 5 24.7338V23.4517C5 23.3048 5.11912 23.1854 5.26624 23.1854L5.26646 23.1863ZM12.1885 22.1585H11.186V9.39319H14.8524L14.0175 9.57076V9.5712C13.8968 9.59676 13.8064 9.70432 13.8075 9.83277L13.8195 11.07C13.8119 11.2011 13.9024 11.3207 14.0348 11.346L14.9889 11.5298C15.0409 11.7351 15.1073 11.9349 15.1871 12.128C15.2187 12.2045 15.2525 12.28 15.2882 12.3543H12.665C12.5181 12.3543 12.3987 12.4734 12.3987 12.6205V15.5098H12.0409C11.894 15.5098 11.7747 15.6289 11.7747 15.7761C11.7747 15.9232 11.8938 16.0423 12.0409 16.0423H16.365C16.5119 16.0423 16.6312 15.9232 16.6312 15.7761C16.6312 15.6289 16.5121 15.5098 16.365 15.5098H16.1001V14.8147C16.1341 14.808 16.1674 14.7947 16.1979 14.774L17.0028 14.2291C17.0741 14.2717 17.1466 14.3122 17.2201 14.3509V22.1589H16.2176V18.0367C16.2176 17.8898 16.0985 17.7704 15.9514 17.7704H12.4545C12.3076 17.7704 12.1883 17.8895 12.1883 18.0367V22.1589L12.1885 22.1585ZM13.937 22.1585V18.3024H12.721V22.1585H13.937ZM14.4693 18.3024V22.1585H15.6854V18.3024H14.4693ZM9.04293 15.0773V15.5727H8.48623V15.0773H9.04293ZM8.22021 14.5451H9.30917C9.45607 14.5451 9.57541 14.6642 9.57541 14.8113V15.8392C9.57541 15.9861 9.45629 16.1054 9.30917 16.1054H8.22021C8.07331 16.1054 7.95397 15.9863 7.95397 15.8392V14.8113C7.95397 14.6644 8.07309 14.5451 8.22021 14.5451ZM9.04293 17.2686V17.764H8.48623V17.2686H9.04293ZM8.22021 16.7363H9.30917C9.45607 16.7363 9.57541 16.8555 9.57541 17.0026V18.0304C9.57541 18.1773 9.45629 18.2967 9.30917 18.2967H8.22021C8.07331 18.2967 7.95397 18.1775 7.95397 18.0304V17.0026C7.95397 16.8557 8.07309 16.7363 8.22021 16.7363ZM9.04293 19.4599V19.9552H8.48623V19.4599H9.04293ZM8.22021 18.9276H9.30917C9.45607 18.9276 9.57541 19.0467 9.57541 19.1938V20.2217C9.57541 20.3686 9.45629 20.4879 9.30917 20.4879H8.22021C8.07331 20.4879 7.95397 20.3688 7.95397 20.2217V19.1938C7.95397 19.0469 8.07309 18.9276 8.22021 18.9276ZM19.9199 17.2688V17.7642H19.3632V17.2688H19.9199ZM19.0972 16.7366H20.1861C20.333 16.7366 20.4524 16.8557 20.4524 17.0028V18.0307C20.4524 18.1775 20.3332 18.2969 20.1861 18.2969H19.0972C18.9503 18.2969 18.8309 18.1778 18.8309 18.0307V17.0028C18.8309 16.8559 18.95 16.7366 19.0972 16.7366ZM19.9199 19.4601V19.9554H19.3632V19.4601H19.9199ZM19.0972 18.9278H20.1861C20.333 18.9278 20.4524 19.0469 20.4524 19.1941V20.2219C20.4524 20.3688 20.3332 20.4881 20.1861 20.4881H19.0972C18.9503 20.4881 18.8309 20.369 18.8309 20.2219V19.1941C18.8309 19.0472 18.95 18.9278 19.0972 18.9278Z" fill="url(#paint0_linear_1774_221)"/>
<defs>
<linearGradient id="paint0_linear_1774_221" x1="5.00005" y1="15.0482" x2="24.7028" y2="15.0482" gradientUnits="userSpaceOnUse">
<stop stop-color="#1685FF"/>
<stop offset="0.5" stop-color="#8B5CF6"/>
<stop offset="1" stop-color="#D946EF"/>
</linearGradient>
</defs>
</svg>
