<?xml version="1.0" encoding="UTF-8" standalone="no"?><!DOCTYPE svg PUBLIC "-//W3C//DTD SVG 1.1//EN" "http://www.w3.org/Graphics/SVG/1.1/DTD/svg11.dtd"><svg width="100%" height="100%" viewBox="0 0 64 64" version="1.1" xmlns="http://www.w3.org/2000/svg" xmlns:xlink="http://www.w3.org/1999/xlink" xml:space="preserve" xmlns:serif="http://www.serif.com/" style="fill-rule:evenodd;clip-rule:evenodd;stroke-linejoin:round;stroke-miterlimit:2;"><rect id="Artboard1" x="0" y="0" width="64" height="64" style="fill:none;"/><g><path d="M49.608,40.419c0,4.21 -3.42,7.63 -7.63,7.63c-0.106,0 -0.211,0 -0.316,-0.021c0.116,-0.063 0.231,-0.147 0.347,-0.231c1.558,-1.221 2.968,-2.632 4.189,-4.189c0.968,-1.211 0.979,-2.937 0.032,-4.179l-2.642,-3.473c0.242,-0.537 0.474,-1.084 0.674,-1.642l1.915,-0.263c2.063,1.368 3.431,3.715 3.431,6.368Zm12.104,-0c-0,0.747 -0.042,1.515 -0.137,2.284c-0.084,0.747 -0.673,1.336 -1.421,1.442l-4.252,0.568c-0.273,0.884 -0.621,1.715 -1.042,2.515l2.6,3.41c0.452,0.6 0.452,1.432 -0.011,2.021c-0.947,1.2 -2.031,2.284 -3.241,3.231c-0.579,0.463 -1.411,0.463 -2.011,0l-3.41,-2.599c-0.8,0.421 -1.631,0.768 -2.515,1.042l-0.568,4.252c-0.106,0.747 -0.695,1.336 -1.442,1.421c-0.769,0.094 -1.537,0.136 -2.284,0.136c-0.748,0 -1.516,-0.042 -2.284,-0.136c-0.748,-0.085 -1.337,-0.674 -1.442,-1.421l-0.569,-4.252c-0.884,-0.274 -1.715,-0.621 -2.515,-1.042l-3.41,2.599c-0.6,0.453 -1.431,0.453 -2.01,0c-0.979,-0.778 -1.895,-1.642 -2.705,-2.599c0.694,-0.021 1.4,-0.074 2.094,-0.148c1.547,-0.179 2.779,-1.389 2.989,-2.947l0.59,-4.336c0.484,-0.179 0.968,-0.379 1.442,-0.589c1.62,2.61 4.515,4.357 7.82,4.357c5.083,0 9.209,-4.126 9.209,-9.209c0,-2.621 -1.095,-4.979 -2.842,-6.663l0.253,-0.031c1.558,-0.211 2.768,-1.432 2.947,-2.979c0.105,-0.989 0.168,-1.989 0.168,-2.957c0,-0.79 -0.042,-1.6 -0.116,-2.4l0.6,-0.453c0.6,-0.452 1.432,-0.452 2.021,0.011c1.2,0.947 2.284,2.031 3.231,3.242c0.463,0.579 0.463,1.41 0.011,2.01l-2.6,3.41c0.421,0.8 0.769,1.631 1.042,2.515l4.252,0.569c0.748,0.105 1.337,0.694 1.421,1.442c0.095,0.768 0.137,1.536 0.137,2.284Zm-11.577,-12.63c-0,0.905 -0.053,1.842 -0.158,2.768c-0.095,0.831 -0.748,1.494 -1.59,1.6l-5.315,0.715c-0.337,1.137 -0.789,2.221 -1.336,3.242l3.241,4.263c0.516,0.673 0.505,1.599 0,2.252c-1.147,1.452 -2.473,2.778 -3.926,3.926c-0.652,0.515 -1.578,0.515 -2.252,-0l-4.262,-3.242c-1.021,0.547 -2.105,1 -3.242,1.337l-0.716,5.315c-0.116,0.842 -0.768,1.494 -1.6,1.589c-0.926,0.105 -1.863,0.158 -2.768,0.158c-0.905,-0 -1.842,-0.053 -2.768,-0.158c-0.831,-0.095 -1.484,-0.747 -1.6,-1.589l-0.715,-5.315c-1.137,-0.337 -2.221,-0.79 -3.242,-1.337l-4.263,3.242c-0.673,0.515 -1.599,0.505 -2.252,-0c-1.452,-1.148 -2.779,-2.463 -3.926,-3.926c-0.515,-0.653 -0.515,-1.579 0,-2.252l3.242,-4.263c-0.547,-1.021 -1,-2.105 -1.337,-3.242l-5.315,-0.715c-0.842,-0.116 -1.494,-0.769 -1.589,-1.6c-0.105,-0.937 -0.158,-1.863 -0.158,-2.768c0,-0.905 0.053,-1.842 0.158,-2.768c0.095,-0.832 0.747,-1.495 1.589,-1.6l5.315,-0.716c0.337,-1.137 0.79,-2.231 1.337,-3.242l-3.242,-4.262c-0.505,-0.674 -0.505,-1.6 0,-2.253c1.147,-1.462 2.474,-2.778 3.926,-3.925c0.653,-0.516 1.579,-0.516 2.252,-0l4.263,3.241c1.021,-0.547 2.105,-1 3.242,-1.336l0.715,-5.315c0.116,-0.842 0.769,-1.495 1.6,-1.59c1.863,-0.221 3.684,-0.221 5.547,0c0.831,0.095 1.484,0.748 1.6,1.59l0.715,5.315c1.137,0.336 2.221,0.789 3.242,1.336l4.263,-3.241c0.673,-0.516 1.599,-0.506 2.252,-0c1.452,1.147 2.779,2.473 3.926,3.925c0.516,0.653 0.516,1.579 -0,2.253l-3.242,4.262c0.547,1.021 1,2.105 1.337,3.242l5.315,0.716c0.842,0.116 1.494,0.768 1.589,1.6c0.105,0.926 0.158,1.863 0.158,2.768l-0.01,-0Zm-32.175,2.768c-0.295,-0.874 -0.453,-1.8 -0.453,-2.768c0,-3.316 1.853,-6.294 4.821,-7.778c0.389,-0.19 0.547,-0.663 0.357,-1.063c-0.189,-0.4 -0.673,-0.548 -1.063,-0.358c-3.515,1.747 -5.704,5.262 -5.704,9.188c-0,1.137 0.179,2.242 0.537,3.273c0.115,0.327 0.421,0.537 0.747,0.537c0.084,0 0.168,-0.01 0.252,-0.042c0.411,-0.137 0.632,-0.589 0.485,-1l0.021,0.011Zm8.788,-2.21c0.147,-0.148 0.232,-0.348 0.232,-0.558l-0,-10.525c-0,-0.432 -0.358,-0.79 -0.79,-0.79c-0.431,0 -0.789,0.358 -0.789,0.79l-0,10.198l-6.462,6.463c-0.306,0.305 -0.306,0.81 -0,1.115c0.157,0.158 0.357,0.232 0.557,0.232c0.2,-0 0.4,-0.074 0.558,-0.232l6.694,-6.693Zm9.704,-0.558c0,-3.926 -2.189,-7.441 -5.704,-9.189c-0.39,-0.189 -0.864,-0.031 -1.063,0.358c-0.19,0.39 -0.032,0.863 0.357,1.063c2.979,1.474 4.821,4.452 4.821,7.778c-0,4.789 -3.894,8.683 -8.683,8.683c-0.969,0 -1.895,-0.147 -2.768,-0.452c-0.411,-0.148 -0.863,0.073 -1,0.484c-0.137,0.41 0.073,0.863 0.484,1c1.031,0.358 2.136,0.537 3.273,0.537c5.663,-0 10.262,-4.6 10.262,-10.262l0.021,-0Z" style="fill:#ffc100;fill-rule:nonzero;"/><path d="M50.135,27.789c-0,0.905 -0.053,1.842 -0.158,2.768c-0.095,0.831 -0.748,1.494 -1.59,1.6l-5.315,0.715c-0.337,1.137 -0.789,2.221 -1.336,3.242l3.241,4.263c0.516,0.673 0.505,1.599 0,2.252c-1.147,1.452 -2.473,2.778 -3.926,3.926c-0.652,0.515 -1.578,0.515 -2.252,-0l-4.262,-3.242c-1.021,0.547 -2.105,1 -3.242,1.337l-0.716,5.315c-0.116,0.842 -0.768,1.494 -1.6,1.589c-0.926,0.105 -1.863,0.158 -2.768,0.158c-0.905,-0 -1.842,-0.053 -2.768,-0.158c-0.831,-0.095 -1.484,-0.747 -1.6,-1.589l-0.715,-5.315c-1.137,-0.337 -2.221,-0.79 -3.242,-1.337l-4.263,3.242c-0.673,0.515 -1.599,0.505 -2.252,-0c-1.452,-1.148 -2.779,-2.463 -3.926,-3.926c-0.515,-0.653 -0.515,-1.579 0,-2.252l3.242,-4.263c-0.547,-1.021 -1,-2.105 -1.337,-3.242l-5.315,-0.715c-0.842,-0.116 -1.494,-0.769 -1.589,-1.6c-0.105,-0.937 -0.158,-1.863 -0.158,-2.768c0,-0.905 0.053,-1.842 0.158,-2.768c0.095,-0.832 0.747,-1.495 1.589,-1.6l5.315,-0.716c0.337,-1.137 0.79,-2.231 1.337,-3.242l-3.242,-4.262c-0.505,-0.674 -0.505,-1.6 0,-2.253c1.147,-1.462 2.474,-2.778 3.926,-3.925c0.653,-0.516 1.579,-0.516 2.252,-0l4.263,3.241c1.021,-0.547 2.105,-1 3.242,-1.336l0.715,-5.315c0.116,-0.842 0.769,-1.495 1.6,-1.59c1.863,-0.221 3.684,-0.221 5.547,0c0.831,0.095 1.484,0.748 1.6,1.59l0.715,5.315c1.137,0.336 2.221,0.789 3.242,1.336l4.263,-3.241c0.673,-0.516 1.599,-0.506 2.252,-0c1.452,1.147 2.779,2.473 3.926,3.925c0.516,0.653 0.516,1.579 -0,2.253l-3.242,4.262c0.547,1.021 1,2.105 1.337,3.242l5.315,0.716c0.842,0.116 1.494,0.768 1.589,1.6c0.105,0.926 0.158,1.863 0.158,2.768l-0.01,-0Zm-13.683,-0c0,-3.926 -2.189,-7.441 -5.704,-9.189c-0.39,-0.189 -0.864,-0.031 -1.063,0.358c-0.19,0.39 -0.032,0.863 0.357,1.063c2.979,1.474 4.821,4.452 4.821,7.778c-0,4.789 -3.894,8.683 -8.683,8.683c-0.969,0 -1.895,-0.147 -2.768,-0.452c-0.411,-0.148 -0.863,0.073 -1,0.484c-0.137,0.41 0.073,0.863 0.484,1c1.031,0.358 2.136,0.537 3.273,0.537c5.663,-0 10.262,-4.6 10.262,-10.262l0.021,-0Zm-9.704,0.558c0.147,-0.148 0.232,-0.348 0.232,-0.558l-0,-10.525c-0,-0.432 -0.358,-0.79 -0.79,-0.79c-0.431,0 -0.789,0.358 -0.789,0.79l-0,10.198l-6.462,6.463c-0.306,0.305 -0.306,0.81 -0,1.115c0.157,0.158 0.357,0.232 0.557,0.232c0.2,-0 0.4,-0.074 0.558,-0.232l6.694,-6.693Zm-8.788,2.21c-0.295,-0.874 -0.453,-1.8 -0.453,-2.768c0,-3.316 1.853,-6.294 4.821,-7.778c0.389,-0.19 0.547,-0.663 0.357,-1.063c-0.189,-0.4 -0.673,-0.548 -1.063,-0.358c-3.515,1.747 -5.704,5.262 -5.704,9.188c-0,1.137 0.179,2.242 0.537,3.273c0.115,0.327 0.421,0.537 0.747,0.537c0.084,0 0.168,-0.01 0.252,-0.042c0.411,-0.137 0.632,-0.589 0.485,-1l0.021,0.011Z" style="fill:url(#_Linear1);fill-rule:nonzero;"/></g><defs><linearGradient id="_Linear1" x1="0" y1="0" x2="1" y2="0" gradientUnits="userSpaceOnUse" gradientTransform="matrix(46.7556,0,0,46.7556,2.88766,27.281)"><stop offset="0" style="stop-color:#565ae2;stop-opacity:1"/><stop offset="1" style="stop-color:#7d71fe;stop-opacity:1"/></linearGradient></defs></svg>