<?xml version="1.0" encoding="UTF-8" standalone="no"?><!DOCTYPE svg PUBLIC "-//W3C//DTD SVG 1.1//EN" "http://www.w3.org/Graphics/SVG/1.1/DTD/svg11.dtd"><svg width="100%" height="100%" viewBox="0 0 100 100" version="1.1" xmlns="http://www.w3.org/2000/svg" xmlns:xlink="http://www.w3.org/1999/xlink" xml:space="preserve" xmlns:serif="http://www.serif.com/" style="fill-rule:evenodd;clip-rule:evenodd;stroke-linejoin:round;stroke-miterlimit:2;"><rect id="Artboard1" x="0" y="0" width="100" height="100" style="fill:none;"/><path d="M99.49,47.05c0,-5.02 -1.85,-9.85 -5.22,-13.61c-3.11,-3.47 -7.26,-5.77 -11.79,-6.54c-2.5,-7.74 -9.75,-13.07 -17.97,-13.07c-2.84,0 -5.65,0.64 -8.19,1.87c-4.24,-6.69 -11.63,-10.79 -19.63,-10.79c-12.78,0 -23.18,10.37 -23.25,23.13c-7.5,2.98 -12.64,10.19 -12.93,18.29c-0.03,0.85 0.64,1.57 1.49,1.6c0.86,0.03 1.57,-0.64 1.6,-1.49c0.26,-7.2 5.04,-13.57 11.9,-15.86c0.65,-0.22 1.08,-0.84 1.06,-1.52c-0.01,-0.31 -0.02,-0.61 -0.02,-0.91c0,-11.11 9.04,-20.15 20.15,-20.15c7.38,0 14.16,4.02 17.7,10.5c0.2,0.37 0.54,0.64 0.95,0.75c0.4,0.11 0.84,0.05 1.2,-0.16c2.41,-1.42 5.17,-2.17 7.98,-2.17c7.16,0 13.44,4.83 15.26,11.75c0.16,0.61 0.68,1.07 1.31,1.14c8.72,1.04 15.3,8.44 15.3,17.23c0,9.57 -7.78,17.36 -17.35,17.36l-58.1,0c-8.29,0 -15.46,-5.92 -17.04,-14.07c-0.16,-0.84 -0.98,-1.39 -1.81,-1.22c-0.84,0.16 -1.39,0.98 -1.23,1.81c1.86,9.57 10.25,16.52 19.97,16.57l0,1.52c0,1.59 1.01,2.99 2.53,3.48l4.04,1.31c0.18,0.06 0.28,0.15 0.34,0.34c0.21,0.56 0.45,1.14 0.71,1.72c0.08,0.18 0.08,0.32 -0.01,0.49l-1.92,3.78c-0.72,1.42 -0.45,3.12 0.67,4.25l4.35,4.35c1.13,1.13 2.83,1.4 4.25,0.67l3.77,-1.92c0.18,-0.09 0.32,-0.09 0.5,-0.01c0.58,0.27 1.16,0.51 1.73,0.72c0.18,0.07 0.28,0.16 0.34,0.35l1.31,4.03c0.5,1.51 1.9,2.52 3.48,2.52l6.14,0c1.59,0 2.99,-1.02 3.48,-2.53l1.31,-4.03c0.06,-0.19 0.16,-0.29 0.34,-0.36c0.56,-0.21 1.14,-0.45 1.73,-0.72c0.17,-0.08 0.31,-0.08 0.49,0.01l3.77,1.92c1.42,0.72 3.13,0.45 4.25,-0.67l4.34,-4.34c1.13,-1.12 1.4,-2.83 0.68,-4.25l-1.92,-3.79c-0.09,-0.17 -0.09,-0.31 -0.01,-0.47c0.25,-0.53 0.49,-1.1 0.72,-1.74c0.07,-0.18 0.17,-0.28 0.36,-0.34l4.03,-1.31c1.53,-0.5 2.52,-1.87 2.52,-3.48l0,-1.52c11.22,-0.02 20.34,-9.17 20.34,-20.42Zm-40.83,20.45c-0.73,4.12 -4.34,7.26 -8.67,7.26c-4.33,0 -7.94,-3.14 -8.67,-7.26l17.34,0Zm17,2.07l-4.01,1.31c-1.1,0.35 -1.92,1.14 -2.31,2.21c-0.2,0.55 -0.41,1.04 -0.62,1.5c-0.48,1.05 -0.46,2.18 0.07,3.19l1.92,3.78c0.12,0.23 0.08,0.47 -0.11,0.65l-4.34,4.35c-0.18,0.18 -0.43,0.22 -0.66,0.1l-3.78,-1.93c-1.03,-0.52 -2.17,-0.54 -3.19,-0.06c-0.51,0.23 -1.01,0.44 -1.5,0.62c-1.07,0.39 -1.86,1.21 -2.21,2.3l-1.31,4.03c-0.08,0.24 -0.27,0.39 -0.53,0.39l-6.14,0c-0.26,0 -0.46,-0.14 -0.54,-0.39l-1.31,-4.02c-0.35,-1.09 -1.14,-1.91 -2.21,-2.31c-0.49,-0.18 -0.99,-0.39 -1.49,-0.62c-1.03,-0.49 -2.17,-0.47 -3.21,0.05l-3.78,1.92c-0.23,0.12 -0.47,0.08 -0.65,-0.1l-4.35,-4.35c-0.18,-0.18 -0.22,-0.42 -0.1,-0.65l1.92,-3.78c0.52,-1.02 0.54,-2.15 0.06,-3.19c-0.23,-0.51 -0.44,-1.01 -0.62,-1.5c-0.4,-1.08 -1.22,-1.87 -2.3,-2.22l-4.02,-1.31c-0.25,-0.08 -0.39,-0.28 -0.39,-0.54l0,-1.52l14.26,0c0.76,5.84 5.76,10.36 11.8,10.36c6.04,0 11.04,-4.52 11.8,-10.36l14.26,0l0,1.52c-0.02,0.29 -0.16,0.48 -0.41,0.57Zm-13.86,-32.2l1.99,1.61c-1.49,-6.31 -7.15,-10.88 -13.79,-10.88c-4.09,0 -7.98,1.77 -10.68,4.85c-0.56,0.64 -1.54,0.71 -2.18,0.15c-0.64,-0.56 -0.71,-1.54 -0.15,-2.18c3.28,-3.76 8.02,-5.91 13.01,-5.91c8.14,0 15.08,5.65 16.84,13.42l1.39,-1.71c0.54,-0.66 1.52,-0.76 2.18,-0.22c0.66,0.54 0.76,1.51 0.22,2.18l-3.86,4.74c-0.31,0.38 -0.75,0.57 -1.2,0.57c-0.34,0 -0.69,-0.11 -0.97,-0.35l-4.75,-3.85c-0.66,-0.54 -0.77,-1.51 -0.23,-2.18c0.54,-0.68 1.51,-0.78 2.18,-0.24Zm-26.41,3.55l4.75,3.85c0.66,0.54 0.77,1.51 0.23,2.18c-0.54,0.66 -1.51,0.77 -2.18,0.23l-1.99,-1.61c1.49,6.32 7.13,10.89 13.79,10.89c4.09,0 7.98,-1.77 10.68,-4.85c0.56,-0.64 1.54,-0.71 2.18,-0.15c0.64,0.56 0.71,1.54 0.15,2.18c-3.29,3.76 -8.03,5.91 -13.01,5.91c-8.16,0 -15.07,-5.64 -16.84,-13.42l-1.39,1.71c-0.31,0.38 -0.75,0.57 -1.2,0.57c-0.34,0 -0.69,-0.11 -0.97,-0.35c-0.66,-0.54 -0.77,-1.51 -0.23,-2.18l3.85,-4.75c0.54,-0.64 1.52,-0.75 2.18,-0.21Z" style="fill:url(#_Linear1);fill-rule:nonzero;"/><defs><linearGradient id="_Linear1" x1="0" y1="0" x2="1" y2="0" gradientUnits="userSpaceOnUse" gradientTransform="matrix(98.9828,0,0,103.731,0.509785,50.2172)"><stop offset="0" style="stop-color:#1685ff;stop-opacity:1"/><stop offset="0.5" style="stop-color:#8b5cf6;stop-opacity:1"/><stop offset="1" style="stop-color:#d946ef;stop-opacity:1"/></linearGradient></defs></svg>