<?xml version="1.0" encoding="UTF-8" standalone="no"?><!DOCTYPE svg PUBLIC "-//W3C//DTD SVG 1.1//EN" "http://www.w3.org/Graphics/SVG/1.1/DTD/svg11.dtd"><svg width="100%" height="100%" viewBox="0 0 17 17" version="1.1" xmlns="http://www.w3.org/2000/svg" xmlns:xlink="http://www.w3.org/1999/xlink" xml:space="preserve" xmlns:serif="http://www.serif.com/" style="fill-rule:evenodd;clip-rule:evenodd;stroke-linejoin:round;stroke-miterlimit:2;"><rect id="Artboard1" x="0" y="0" width="16.933" height="17" style="fill:none;"/><g><path d="M1.549,1.488c-0.632,-0 -1.148,0.518 -1.148,1.15l0,9.544c0,0.632 0.516,1.15 1.148,1.15l4.463,-0l-0.355,1.624l-1.298,0c-0.152,0 -0.277,0.126 -0.277,0.278c-0,0.001 -0,0.001 -0,0.001c0,0.152 0.125,0.277 0.277,0.277l8.213,0c0,0 0,0 0.001,0c0.152,0 0.277,-0.125 0.278,-0.277c-0,-0 -0,-0 -0,-0.001c-0,-0.152 -0.126,-0.278 -0.278,-0.278c-0.001,0 -0.001,0 -0.001,0l-1.299,0l-0.355,-1.624l4.464,-0c0.632,-0 1.15,-0.518 1.15,-1.15l0,-9.544c0,-0.632 -0.518,-1.15 -1.15,-1.15l-13.833,-0Zm-0,0.556l13.833,-0c0.334,-0 0.593,0.26 0.593,0.594l0,9.544c0,0.334 -0.259,0.594 -0.593,0.594l-13.833,-0c-0.334,-0 -0.592,-0.26 -0.592,-0.594l0,-9.544c0,-0.334 0.258,-0.594 0.592,-0.594Zm5.647,1.326c-0.396,0.011 -0.72,0.339 -0.72,0.738c-0,0.085 0.015,0.167 0.042,0.243l-1.476,1.028c-0.099,-0.048 -0.21,-0.075 -0.326,-0.075c-0.404,0 -0.741,0.332 -0.741,0.737c0,0.406 0.337,0.74 0.741,0.74c0.405,-0 0.742,-0.334 0.742,-0.74c-0,-0.085 -0.016,-0.168 -0.043,-0.245l1.475,-1.025c0.098,0.048 0.209,0.075 0.325,0.075c0.116,0 0.226,-0.026 0.324,-0.074l1.471,1.047c-0.023,0.07 -0.035,0.145 -0.035,0.222c-0,0.406 0.336,0.74 0.741,0.74c0.404,-0 0.741,-0.334 0.741,-0.74c-0,-0.085 -0.015,-0.167 -0.042,-0.244l1.475,-1.026c0.098,0.049 0.208,0.075 0.324,0.075c0.405,0 0.742,-0.333 0.742,-0.738c-0,-0.406 -0.337,-0.738 -0.742,-0.738c-0.405,0 -0.738,0.332 -0.738,0.738c-0,0.085 0.014,0.167 0.041,0.243l-1.476,1.028c-0.099,-0.048 -0.21,-0.075 -0.325,-0.075c-0.125,0 -0.243,0.032 -0.347,0.087l-1.456,-1.036c0.028,-0.078 0.043,-0.161 0.043,-0.247c0,-0.406 -0.336,-0.738 -0.741,-0.738l-0.019,0Zm0.009,0.557l0.01,-0c0.106,-0 0.185,0.078 0.185,0.181c-0,0.051 -0.02,0.096 -0.053,0.129c-0.034,0.033 -0.079,0.053 -0.132,0.053c-0.053,0 -0.096,-0.02 -0.129,-0.053c-0.034,-0.033 -0.053,-0.078 -0.053,-0.129c-0,-0.1 0.071,-0.177 0.172,-0.181Zm4.999,-0c0.004,-0 0.007,-0 0.01,-0c0.106,-0 0.185,0.078 0.185,0.181c-0,0.102 -0.079,0.182 -0.185,0.182c-0.053,0 -0.095,-0.02 -0.129,-0.053c-0.034,-0.033 -0.053,-0.078 -0.053,-0.129c-0,-0.1 0.072,-0.177 0.172,-0.181l0,-0Zm-5.703,1.922c-0.152,0 -0.277,0.125 -0.277,0.277l-0,5.046c0,0.152 0.125,0.276 0.277,0.277l1.428,0c0.153,0.001 0.279,-0.124 0.28,-0.277l-0,-5.046c-0.001,-0.153 -0.127,-0.278 -0.28,-0.277l-1.428,-0Zm5.001,-0c-0.152,-0.001 -0.278,0.124 -0.279,0.277l-0,5.046c0.001,0.153 0.127,0.278 0.279,0.277l1.427,0c0.152,0.001 0.278,-0.124 0.279,-0.277l-0,-5.046c-0.001,-0.153 -0.127,-0.278 -0.279,-0.277l-1.427,-0Zm-6.786,0.012c0.053,-0 0.098,0.02 0.132,0.053c0.033,0.034 0.054,0.076 0.054,0.127c-0,0.103 -0.08,0.183 -0.186,0.183c-0.106,-0 -0.184,-0.08 -0.184,-0.183c-0,-0.102 0.078,-0.18 0.184,-0.18l0,-0Zm5,-0l0,-0c0.053,-0 0.098,0.02 0.131,0.053c0.033,0.034 0.054,0.076 0.054,0.127c-0,0.103 -0.079,0.183 -0.185,0.183c-0.106,-0 -0.185,-0.08 -0.185,-0.183c-0,-0.102 0.079,-0.18 0.185,-0.18l-0,-0Zm-2.936,0.544l0.872,-0l0,4.488l-0.872,-0l-0,-4.488Zm4.999,-0l0.873,-0l-0,4.488l-0.873,-0l0,-4.488Zm-2.778,1.314c-0.152,0 -0.276,0.125 -0.277,0.277l0,3.176c0.001,0.152 0.125,0.276 0.277,0.277l1.429,0c0.152,-0.001 0.277,-0.125 0.277,-0.277l0,-3.176c-0,-0.152 -0.125,-0.277 -0.277,-0.277l-1.429,-0Zm0.279,0.556l0.871,0l0,2.618l-0.871,-0l0,-2.618Zm-5.278,0.089c-0.153,-0.001 -0.279,0.124 -0.279,0.277l-0,2.531c0,0.153 0.126,0.278 0.279,0.277l1.429,0c0.152,-0.001 0.277,-0.125 0.277,-0.277l0,-2.531c-0,-0.152 -0.125,-0.277 -0.277,-0.277l-1.429,-0Zm0.277,0.556l0.873,-0l-0,1.973l-0.873,-0l0,-1.973Zm2.304,4.412l3.767,-0l0.355,1.624l-4.477,0l0.355,-1.624Z" style="fill:url(#_Linear1);"/></g><defs><linearGradient id="_Linear1" x1="0" y1="0" x2="1" y2="0" gradientUnits="userSpaceOnUse" gradientTransform="matrix(16.1313,0,0,13.6328,0.401044,8.53378)"><stop offset="0" style="stop-color:#1685ff;stop-opacity:1"/><stop offset="0.5" style="stop-color:#8b5cf6;stop-opacity:1"/><stop offset="1" style="stop-color:#d946ef;stop-opacity:1"/></linearGradient></defs></svg>