<?xml version="1.0" encoding="UTF-8"?><svg id="a" xmlns="http://www.w3.org/2000/svg" xmlns:xlink="http://www.w3.org/1999/xlink" viewBox="0 0 50 50"><defs><style>.j{fill:url(#c);}.k{fill:url(#f);}.l{fill:url(#g);}.m{fill:url(#b);}.n{fill:url(#i);}.o{fill:url(#h);}.p{fill:url(#d);}.q{fill:url(#e);}</style><linearGradient id="b" x1="3.53" y1="11.24" x2="17.77" y2="11.24" gradientTransform="matrix(1, 0, 0, 1, 0, 0)" gradientUnits="userSpaceOnUse"><stop offset=".01" stop-color="#4376fc"/><stop offset=".99" stop-color="#c84bf1"/></linearGradient><linearGradient id="c" x1="34.83" y1="9.48" x2="46.21" y2="9.48" xlink:href="#b"/><linearGradient id="d" x1="3.59" y1="27.62" x2="46.2" y2="27.62" xlink:href="#b"/><linearGradient id="e" x1="31.29" y1="40.07" x2="36.92" y2="40.07" xlink:href="#b"/><linearGradient id="f" x1="31.99" y1="9.48" x2="33.41" y2="9.48" xlink:href="#b"/><linearGradient id="g" x1="44.79" y1="18.01" x2="46.21" y2="18.01" xlink:href="#b"/><linearGradient id="h" y1="27.27" x2="13.5" y2="27.27" xlink:href="#b"/><linearGradient id="i" x1="14.92" y1="24.42" x2="16.34" y2="24.42" xlink:href="#b"/></defs><path class="m" d="M5.02,15.06c.22,.06,.92,.11,1.76,.11,.76,0,1.39,.02,1.39,.03,0,.02-.16,.43-.36,.91-.22,.54-.36,1.01-.36,1.24,0,.42,.24,.84,.65,1.15,.24,.18,.36,.19,2.55,.19s2.31,0,2.54-.19c.75-.55,.82-1.14,.31-2.38-.2-.49-.36-.9-.36-.92,0,0,.62-.03,1.39-.03,.84,0,1.54-.04,1.76-.11,.49-.14,1.23-.88,1.37-1.37,.15-.52,.15-7.91,0-8.43-.14-.49-.88-1.23-1.37-1.37-.49-.14-10.86-.13-11.33,0-.44,.14-1.18,.91-1.32,1.36-.15,.52-.15,7.91,0,8.43,.14,.49,.88,1.23,1.37,1.37Zm5.64,2.24c-1.4,0-1.79-.03-1.75-.12,.03-.05,.21-.53,.43-1.07l.37-.95h1.9l.37,.95c.21,.53,.4,1.01,.43,1.07,.04,.09-.35,.12-1.75,.12ZM4.96,5.65l.22-.21,.21-.22H15.91l.21,.22,.22,.21v5.25H4.96V5.65Zm0,6.68h11.38v.49c0,.41-.04,.53-.22,.71l-.21,.22H5.4l-.21-.22c-.19-.18-.22-.3-.22-.71v-.49Z"/><path class="j" d="M38.83,14.91c1.98,.62,4.17,.07,5.7-1.43,2.23-2.21,2.23-5.77,0-8.01-1.39-1.38-3.34-1.96-5.24-1.55-2.54,.55-4.46,2.94-4.46,5.56,0,2.43,1.68,4.7,4,5.43Zm2.71-9.57c2.28,.6,3.69,2.93,3.11,5.16-.18,.67-.6,1.46-.99,1.83l-.3,.29V7.35h-1.42v6.13l-.23,.09c-.5,.2-.48,.29-.48-2.36v-2.44h-1.42v2.44c0,2.65,.02,2.55-.48,2.36l-.23-.09v-3.29h-1.42v2.44l-.3-.29c-.39-.37-.81-1.16-.99-1.83-.79-3.05,2.11-5.95,5.16-5.16Z"/><path class="p" d="M42.95,33.08c-.28-.07-.64-.13-.81-.13-.27,0-.29-.02-.23-.2,.03-.11,.11-.3,.18-.43,.22-.44,.49-1.64,.54-2.44,.26-3.91-2.55-7.49-6.42-8.17-.43-.07-1.08-.13-1.43-.13h-.66v-1.2c0-1.16,0-1.22,.22-1.42l.21-.22h8.81v-1.42h-4.41c-3.13,0-4.52,.03-4.77,.11-.44,.13-1.07,.68-1.28,1.11-.14,.28-.18,.61-.21,1.83l-.04,1.49-.74,.29c-.81,.33-1.78,.93-2.38,1.49l-.39,.36V10.63l.22-.21c.18-.19,.3-.22,.71-.22h.49v-1.42h-.5c-.28,0-.67,.04-.87,.11-.49,.14-1.23,.88-1.37,1.37-.08,.28-.11,2.28-.11,8.09v7.73l-.24,.67c-.12,.36-.25,.68-.26,.7-.02,.02-.2-.11-.41-.28-.21-.18-.57-.42-.8-.56l-.43-.24v-7.87c0-5.92-.03-7.97-.11-8.24-.14-.49-.88-1.23-1.37-1.37-.25-.07-1.12-.11-2.65-.11h-2.28v1.42h4.54l.21,.22,.22,.21v15.28l-.69-.04c-.62-.04-1.64,.06-2.02,.2-.1,.04-.13,0-.13-.23,0-.56-.2-1.01-.67-1.47-.54-.55-.9-.67-2.04-.67h-.85v1.42h.84c.78,0,.87,.02,1.07,.22,.2,.19,.22,.29,.22,.82,0,.59,0,.61-.27,.76-.44,.27-1.36,1.25-1.72,1.85-.68,1.16-1.02,2.86-.75,3.75l.13,.42-.23,.05c-1.27,.28-2.22,.92-2.87,1.93-.26,.39-.45,.58-.8,.76-.25,.13-.71,.47-1.01,.75l-.55,.51-.52-.18c-2.34-.83-4.86,.56-5.5,3-.07,.28-.13,.64-.13,.79,0,.27-.04,.31-.47,.51-1.02,.46-1.62,1.4-1.62,2.55s.55,2.01,1.58,2.56l.46,.24h15.74l.56-.3c.94-.52,1.47-1.34,1.48-2.32,0-.69-.22-1.22-.81-1.87l-.4-.44h5.49l.13,.29c.1,.2,.23,.32,.49,.4,.19,.06,.36,.12,.37,.14,0,0-.05,.18-.15,.36-.1,.2-.15,.43-.12,.53,.07,.23,2.24,2.44,2.51,2.54,.19,.07,.44,0,.92-.26,.04-.02,.11,.13,.16,.33,.16,.6,.27,.63,2.13,.63s1.97-.03,2.13-.63c.05-.2,.12-.35,.16-.33,.48,.26,.74,.33,.92,.26,.27-.11,2.44-2.31,2.51-2.54,.03-.11-.03-.34-.12-.53-.1-.19-.16-.36-.15-.36,.02-.02,.19-.08,.37-.14,.26-.08,.39-.2,.49-.4l.13-.29h.93c1.57,0,2.61-.4,3.49-1.32,2.28-2.38,1.16-6.24-2.04-7.08Zm-20.95,10.75c-.05,.38-.26,.7-.63,.98-.24,.19-.3,.19-7.88,.19s-7.64,0-7.88-.19c-.47-.35-.61-.63-.61-1.19,0-.8,.44-1.28,1.27-1.41,.69-.11,.76-.21,.83-1.28,.07-1.06,.28-1.59,.84-2.15,.56-.57,1.11-.79,1.96-.79,.66,0,.77,.02,1.38,.33,.97,.49,.98,.49,1.8-.51,.19-.23,.36-.41,.36-.39,.02,.02,.07,.27,.12,.56,.3,1.67,1.72,3.1,3.38,3.42,.27,.04,1,.09,1.64,.09h1.16l.77,.58c.42,.32,.93,.77,1.14,1,.34,.37,.36,.45,.33,.76Zm17.1-2.89l-.49,.11c-.92,.2-1.1,.6-.66,1.41l.3,.53-.6,.6-.6,.6-.53-.3c-.82-.44-1.21-.26-1.41,.66l-.11,.49h-1.76l-.11-.49c-.2-.92-.6-1.1-1.41-.66l-.53,.3-.6-.6-.6-.6,.3-.53c.44-.82,.26-1.21-.66-1.41l-.49-.11v-1.76l.49-.11c.92-.2,1.1-.6,.66-1.41l-.3-.53,.6-.6,.6-.6,.53,.3c.82,.44,1.21,.26,1.41-.66l.11-.49h1.76l.11,.49c.2,.92,.6,1.1,1.41,.66l.53-.3,.6,.6,.6,.6-.3,.53c-.44,.82-.26,1.21,.66,1.41l.49,.11v1.76Zm5.64-3.72c0,.64-.04,.83-.23,1.21-.36,.68-.62,.95-1.24,1.28-.53,.28-.61,.3-1.64,.34l-1.09,.04v-.85c0-.8-.02-.88-.22-1.08-.12-.12-.28-.22-.37-.22-.34,0-.39-.12-.2-.49,.1-.2,.15-.43,.12-.53-.07-.23-2.24-2.44-2.51-2.54-.19-.07-.44,0-.92,.26-.04,.02-.11-.13-.16-.33-.16-.6-.27-.63-2.13-.63s-1.97,.03-2.13,.63c-.05,.2-.12,.35-.16,.33-.48-.26-.74-.33-.92-.26-.27,.11-2.44,2.31-2.51,2.54-.03,.11,.03,.34,.12,.53,.19,.36,.13,.49-.2,.49-.09,0-.26,.1-.37,.22-.2,.2-.22,.28-.22,1.07v.85l-5.35-.03-5.36-.03-.56-.3c-.61-.34-.98-.71-1.28-1.34-.15-.32-.2-.56-.2-1.16,0-.89,.21-1.42,.79-2s1.09-.76,2.17-.84c.82-.05,.93-.08,1.08-.27,.24-.3,.21-.52-.19-1.35-.39-.81-.43-1.08-.22-1.93,.4-1.7,1.74-3.04,3.44-3.44,1.83-.43,3.71,.29,4.82,1.86,.44,.6,.54,.68,.94,.68s.59-.32,.65-1.04c.09-.89,.28-1.57,.7-2.43,.3-.61,.52-.91,1.17-1.56,.66-.66,.95-.88,1.58-1.19,.43-.2,1.07-.45,1.42-.54,.8-.2,2.04-.21,2.87-.04,.76,.16,2.06,.79,2.7,1.32,1.34,1.12,2.19,2.78,2.29,4.56,.09,1.37-.28,2.77-1.04,3.9-.39,.59-.44,.9-.19,1.21,.16,.2,.24,.21,1.45,.27,1.05,.04,1.34,.08,1.67,.24,.63,.3,1,.67,1.34,1.28,.28,.52,.3,.62,.29,1.32Z"/><path class="q" d="M34.26,37.25c-.44-.03-.75,0-1.03,.11-1.26,.46-2.04,1.63-1.94,2.91,.23,2.83,3.94,3.62,5.31,1.13,.29-.53,.32-.63,.32-1.33s-.03-.81-.3-1.32c-.52-.94-1.28-1.43-2.36-1.49Zm.84,3.8c-.58,.58-1.4,.58-1.97,0-1.1-1.09,.12-2.89,1.55-2.28,.92,.38,1.14,1.57,.43,2.28Z"/><polygon class="k" points="33.41 8.77 31.99 8.77 31.99 9.48 31.99 10.19 33.41 10.19 33.41 8.77"/><polygon class="l" points="44.79 17.3 44.79 18.01 44.79 18.73 46.21 18.73 46.21 17.3 44.79 17.3"/><path class="o" d="M5.02,34.98c.52,.15,6.49,.15,7.01,0,.49-.14,1.23-.88,1.37-1.37,.08-.28,.11-1.91,.11-6.35s-.03-6.07-.11-6.35c-.14-.49-.88-1.23-1.37-1.37-.48-.14-6.61-.13-7.06,0-.44,.14-1.18,.91-1.32,1.36-.15,.52-.15,12.17,0,12.7,.14,.49,.88,1.23,1.37,1.37Zm3.5-14.12c1.23,0,1.42,.02,1.42,.13,0,.08-.1,.24-.22,.36-.2,.21-.28,.22-1.2,.22s-1,0-1.2-.22c-.12-.12-.22-.28-.22-.36,0-.12,.2-.13,1.42-.13Zm-3.56,.44l.22-.21c.25-.26,.49-.29,.49-.08,0,.68,.78,1.68,1.48,1.88,.2,.06,.82,.11,1.37,.11s1.16-.04,1.37-.11c.69-.2,1.48-1.2,1.48-1.88,0-.21,.24-.18,.49,.08l.22,.21v11.93l-.22,.21-.21,.22H5.4l-.21-.22-.22-.21v-11.93Z"/><polygon class="n" points="14.92 24.42 14.92 25.13 16.34 25.13 16.34 23.7 14.92 23.7 14.92 24.42"/></svg>