<svg width="40" height="40" viewBox="0 0 40 40" fill="none" xmlns="http://www.w3.org/2000/svg">
<g clip-path="url(#clip0_449_1146)">
<path d="M20 12.2363C15.6893 12.2363 12.1844 15.7425 12.1844 20.0519C12.1844 24.3626 15.6906 27.8675 20 27.8675C24.3094 27.8675 27.8156 24.3613 27.8156 20.0519C27.8156 15.7425 24.3106 12.2363 20 12.2363ZM20 25.58C16.9525 25.58 14.4719 23.1006 14.4719 20.0519C14.4719 17.0032 16.9513 14.5238 20 14.5238C23.0487 14.5238 25.5281 17.0045 25.5281 20.0519C25.5281 23.0994 23.0474 25.58 20 25.58Z" fill="url(#paint0_linear_449_1146)"/>
<path d="M21.5517 18.0248L19.1955 19.9221L18.6313 19.2016C18.2437 18.706 17.5231 18.617 17.0262 19.0071C16.5281 19.3973 16.4417 20.1166 16.8318 20.6135L18.1115 22.2452C18.2996 22.4867 18.5767 22.643 18.8804 22.6773C18.9236 22.6824 18.9668 22.6849 19.0113 22.6849C19.2705 22.6849 19.5247 22.596 19.728 22.432L22.9852 19.8078C23.4782 19.4113 23.5545 18.692 23.1593 18.2002C22.7653 17.7084 22.0435 17.627 21.5517 18.0248Z" fill="url(#paint1_linear_449_1146)"/>
<path d="M35.6922 8.45807L21.6546 1.40496C20.6201 0.885194 19.3824 0.885194 18.3454 1.40496L4.30779 8.45807C3.04967 9.08967 2.27192 10.3554 2.277 11.7597C2.29734 16.4986 3.42837 32.4221 17.1927 38.4026C18.0848 38.7902 19.0418 38.9847 20 38.9847C20.9582 38.9847 21.9151 38.7902 22.8072 38.4026C36.5716 32.4221 37.7039 16.4986 37.723 11.7597C37.7281 10.3554 36.9503 9.08967 35.6922 8.45807ZM21.8961 36.3057C20.69 36.8293 19.3099 36.8293 18.1039 36.3057C5.61166 30.878 4.58229 16.139 4.56449 11.7508C4.56195 11.2208 4.85679 10.7417 5.33462 10.5016L19.3697 3.44846C19.5679 3.34933 19.7839 3.30104 20 3.30104C20.216 3.30104 20.4321 3.3506 20.6278 3.44846L34.6641 10.5016C35.1419 10.7417 35.4367 11.2196 35.4342 11.7508C35.4177 16.139 34.3883 30.878 21.8961 36.3057Z" fill="url(#paint2_linear_449_1146)"/>
</g>
<defs>
<linearGradient id="paint0_linear_449_1146" x1="12.1844" y1="20.0896" x2="27.8159" y2="20.0896" gradientUnits="userSpaceOnUse">
<stop stop-color="#1685FF"/>
<stop offset="0.5" stop-color="#8B5CF6"/>
<stop offset="1" stop-color="#D946EF"/>
</linearGradient>
<linearGradient id="paint1_linear_449_1146" x1="16.5876" y1="20.2403" x2="23.4121" y2="20.2403" gradientUnits="userSpaceOnUse">
<stop stop-color="#1685FF"/>
<stop offset="0.5" stop-color="#8B5CF6"/>
<stop offset="1" stop-color="#D946EF"/>
</linearGradient>
<linearGradient id="paint2_linear_449_1146" x1="2.27707" y1="20.0914" x2="37.7237" y2="20.0914" gradientUnits="userSpaceOnUse">
<stop stop-color="#1685FF"/>
<stop offset="0.5" stop-color="#8B5CF6"/>
<stop offset="1" stop-color="#D946EF"/>
</linearGradient>
<clipPath id="clip0_449_1146">
<rect width="40" height="40" fill="white"/>
</clipPath>
</defs>
</svg>
