<svg width="30" height="30" viewBox="0 0 30 30" fill="none" xmlns="http://www.w3.org/2000/svg">
<path d="M8.43088 15.5385C8.43088 15.8315 8.19337 16.069 7.9004 16.069C7.60743 16.069 7.36991 15.8315 7.36991 15.5385V5.65272C7.36991 4.92421 7.66821 4.2615 8.14856 3.78084C8.63141 3.2983 9.29412 3 10.0226 3H21.8004C22.5289 3 23.1916 3.2983 23.6723 3.77865C24.1548 4.2615 24.4531 4.92421 24.4531 5.65272V25.3473C24.4531 26.0748 24.1545 26.7379 23.6742 27.2188C23.1756 27.7174 22.5063 28 21.8004 28H10.9968C10.7038 28 10.4663 27.7625 10.4663 27.4695C10.4663 27.1765 10.7038 26.939 10.9968 26.939H21.8004C22.2391 26.939 22.637 26.7604 22.924 26.4731C23.0907 26.3064 23.2211 26.1037 23.3013 25.8778H14.232C13.939 25.8778 13.7015 25.6402 13.7015 25.3473C13.7015 25.0543 13.939 24.8168 14.232 24.8168H23.3921V6.1832H8.43088V15.5385ZM8.90997 26.5972C8.617 26.5972 8.37949 26.3597 8.37949 26.0667C8.37949 25.7737 8.617 25.5362 8.90997 25.5362H10.1019C10.3949 25.5362 10.6324 25.7737 10.6324 26.0667C10.6324 26.3597 10.3949 26.5972 10.1019 26.5972H8.90997ZM8.97546 17.4104C8.97546 17.1175 9.21297 16.8799 9.50594 16.8799C9.79891 16.8799 10.0364 17.1175 10.0364 17.4104V17.7914C10.7486 17.8024 11.3954 18.0985 11.8669 18.5698C12.3495 19.0526 12.6478 19.7153 12.6478 20.4438V23.5446C12.6478 23.8376 12.4103 24.0751 12.1173 24.0751H6.89427C6.6013 24.0751 6.36379 23.8376 6.36379 23.5446V20.4438C6.36379 19.7153 6.66208 19.0526 7.14243 18.572C7.6162 18.0985 8.26324 17.8024 8.97546 17.7914V17.4104ZM6.53048 25.3357C6.23751 25.3357 6 25.0982 6 24.8052C6 24.5122 6.23751 24.2747 6.53048 24.2747H12.4814C12.7744 24.2747 13.0119 24.5122 13.0119 24.8052C13.0119 25.0982 12.7744 25.3357 12.4814 25.3357H6.53048ZM9.99506 18.8521H9.01651C8.57846 18.8521 8.17989 19.0313 7.89162 19.319C7.60398 19.6072 7.42475 20.0058 7.42475 20.4438V23.0142H11.5868V20.4438C11.5868 20.0058 11.4076 19.6072 11.1199 19.319C10.8317 19.0313 10.4331 18.8521 9.99506 18.8521ZM12.0443 8.67831H16.7409C17.324 8.67831 17.8555 8.91927 18.2399 9.3075C18.6238 9.6951 18.8625 10.229 18.8625 10.8147V15.5542C18.8625 16.1398 18.6238 16.6738 18.2399 17.0611C17.8555 17.449 17.3247 17.6902 16.7409 17.6902H16.4385L14.5494 20.066C14.3674 20.2947 14.034 20.3329 13.8053 20.1509C13.6868 20.0566 13.6194 19.9215 13.6072 19.7818L13.4242 17.6902H12.0443C11.4605 17.6902 10.9301 17.4493 10.5453 17.0611C10.1614 16.6738 9.92268 16.1398 9.92268 15.5542V10.8147C9.92268 10.229 10.1614 9.6951 10.5453 9.3075C10.9297 8.91927 11.4612 8.67831 12.0443 8.67831ZM16.7409 9.73928H12.0443C11.7529 9.73928 11.4872 9.8596 11.2954 10.0532C11.1033 10.2472 10.9836 10.517 10.9836 10.8147V15.5542C10.9836 15.8519 11.1033 16.1214 11.2954 16.3153C11.4872 16.5086 11.7529 16.6293 12.0443 16.6293H13.9102C14.1828 16.6293 14.4147 16.838 14.4385 17.1143L14.5476 18.3664L15.7501 16.8539C15.8463 16.7179 16.0046 16.6293 16.1838 16.6293H16.7409C17.0323 16.6293 17.298 16.5086 17.4898 16.3153C17.6819 16.1214 17.8016 15.8519 17.8016 15.5542V10.8147C17.8016 10.517 17.6819 10.2472 17.4898 10.0532C17.298 9.8596 17.0323 9.73928 16.7409 9.73928ZM23.301 5.12224C23.2208 4.89664 23.091 4.69391 22.9253 4.52784C22.637 4.24019 22.2384 4.06096 21.8004 4.06096H10.0226C9.58459 4.06096 9.18602 4.24019 8.89775 4.52784C8.732 4.69391 8.60227 4.89664 8.52206 5.12224H23.301Z" fill="url(#paint0_linear_1774_169)"/>
<defs>
<linearGradient id="paint0_linear_1774_169" x1="6.00005" y1="15.5602" x2="24.4535" y2="15.5602" gradientUnits="userSpaceOnUse">
<stop stop-color="#1685FF"/>
<stop offset="0.5" stop-color="#8B5CF6"/>
<stop offset="1" stop-color="#D946EF"/>
</linearGradient>
</defs>
</svg>
