<svg width="98" height="98" viewBox="0 0 98 98" fill="none" xmlns="http://www.w3.org/2000/svg">
<g clip-path="url(#clip0_359_1305)">
<path d="M97.2721 87.9919L88.253 72.3697C88.0039 71.9378 87.6003 71.6288 87.1184 71.4994C86.6908 71.3852 86.2481 71.4243 85.8521 71.6071L84.6827 69.5816C88.9394 65.9047 91.6372 60.471 91.6372 54.4184C91.6372 50.4065 90.4515 46.6676 88.4129 43.5304V7.8356C88.4129 4.53187 85.7249 1.84277 82.4201 1.84277H5.99173C2.68801 1.84277 0 4.53079 0 7.8356V61.4664C0 64.7701 2.68801 67.4592 5.99173 67.4592H25.4507L21.3583 74.4822C20.9515 75.1817 20.946 76.0128 21.3453 76.7068C21.7445 77.4019 22.4886 77.8349 23.2849 77.8349H65.128C65.9243 77.8349 66.6684 77.403 67.0676 76.7068C67.4668 76.0128 67.4614 75.1806 67.0545 74.4822L66.6803 73.8415C68.2555 74.2407 69.9046 74.4539 71.6027 74.4539C73.9133 74.4539 76.1324 74.059 78.1993 73.3367L79.3644 75.3546C78.5844 75.9051 78.3375 76.9722 78.8237 77.8142L87.8429 93.4365C88.8502 95.1802 90.6832 96.1571 92.5662 96.1571C93.4887 96.1571 94.4242 95.9221 95.2781 95.4293C97.8791 93.9271 98.7722 90.5918 97.2721 87.9919ZM5.99173 4.91805H82.4201C84.0289 4.91805 85.3376 6.2267 85.3376 7.8356V39.847C81.7478 36.4617 76.9135 34.3828 71.6016 34.3828C60.5548 34.3828 51.5672 43.3704 51.5672 54.4173C51.5672 55.2658 51.6205 56.1023 51.7238 56.9226H3.07419V7.8356C3.07419 6.2267 4.38284 4.91805 5.99173 4.91805ZM3.07419 61.4664V59.9989H52.3602C52.8095 61.5458 53.4393 63.0155 54.2269 64.3839H5.99173C4.38284 64.3839 3.07419 63.0753 3.07419 61.4664ZM63.6584 74.7596H24.7545L29.009 67.4581H56.4047C57.9941 69.3074 59.913 70.8652 62.0712 72.0368L63.6584 74.7596ZM54.6425 54.4184C54.6425 45.0664 62.2507 37.4581 71.6027 37.4581C80.9548 37.4581 88.563 45.0664 88.563 54.4184C88.563 63.7704 80.9548 71.3786 71.6027 71.3786C62.2507 71.3786 54.6425 63.7704 54.6425 54.4184ZM82.1927 71.4189L83.1859 73.1388L82.023 73.8099L81.0309 72.0923C81.4269 71.8801 81.8141 71.655 82.1927 71.4189ZM86.1926 74.9522L87.1706 76.647L83.0673 79.0163L82.0894 77.3214L86.1926 74.9522ZM93.7421 92.7653C92.6108 93.4191 91.1596 93.0296 90.5058 91.8983L84.6055 81.6771L88.7088 79.3078L94.6102 89.529C95.2629 90.6603 94.8735 92.1126 93.7421 92.7653ZM71.6027 39.2476C63.2374 39.2476 56.4319 46.053 56.4319 54.4184C56.4319 62.7838 63.2374 69.5892 71.6027 69.5892C79.9681 69.5892 86.7735 62.7838 86.7735 54.4184C86.7735 46.0541 79.9681 39.2476 71.6027 39.2476ZM71.6027 66.5161C64.9322 66.5161 59.5061 61.09 59.5061 54.4195C59.5061 47.7489 64.9322 42.3229 71.6027 42.3229C78.2733 42.3229 83.6993 47.7489 83.6993 54.4195C83.6993 61.0889 78.2733 66.5161 71.6027 66.5161ZM16.9374 15.025C18.4843 16.127 19.2915 19.2784 20.0714 22.3254C21.1527 26.5462 22.3787 31.3304 26.1437 33.0775C27.0901 33.5159 28.1289 33.7367 29.2712 33.7367C30.7212 33.7367 32.3377 33.3799 34.1381 32.6684C35.772 35.9809 36.9991 40.0602 37.6343 44.5507C36.9642 46.0454 36.429 47.5586 36.0733 49.0391C35.8753 49.8648 36.3834 50.6948 37.209 50.8928C37.3298 50.9221 37.4505 50.9363 37.5691 50.9363C38.2631 50.9363 38.893 50.462 39.0627 49.7581C39.3857 48.4147 39.8807 47.0299 40.5008 45.6614C40.5911 45.5254 40.6618 45.3764 40.7064 45.2165C41.4896 43.5652 42.4534 41.9454 43.5206 40.4573C45.6799 41.6256 47.6108 42.2076 49.3502 42.2076C50.1487 42.2076 50.908 42.0857 51.6292 41.841C55.5617 40.5127 57.2989 35.8895 58.8306 31.8101C59.9369 28.8654 61.0813 25.8206 62.7381 24.8927C63.3418 24.5544 63.6453 23.8549 63.48 23.1826C63.3135 22.5103 62.7196 22.0328 62.0277 22.0143C49.744 21.6923 43.0289 26.1839 40.8445 30.4906C39.5043 33.1329 39.6414 35.9961 41.1828 38.4807C40.764 39.0518 40.3615 39.6414 39.9753 40.244C39.2117 36.8217 38.1195 33.7084 36.7641 31.0334C38.6754 28.7022 39.166 25.8021 38.0956 22.964C36.391 18.4462 30.2056 13.2573 17.9556 12.2424C17.267 12.1869 16.623 12.5959 16.3848 13.2464C16.1487 13.8948 16.3739 14.6236 16.9374 15.025ZM43.5869 31.8798C45.074 28.9481 49.8038 25.6596 58.4172 25.1418C57.4534 26.7376 56.7148 28.7011 55.9533 30.7278C54.5979 34.335 53.1968 38.0651 50.6458 38.9267C49.3198 39.3749 47.5858 39.0659 45.4786 38.0097C47.353 35.9156 49.3839 34.3121 51.2561 33.6225C52.0524 33.3287 52.4603 32.4454 52.1666 31.6481C51.8729 30.8518 50.9896 30.4438 50.1922 30.7376C47.9197 31.5752 45.5026 33.4462 43.3008 35.8775C42.8124 34.5819 42.9049 33.2243 43.5869 31.8798ZM35.2194 24.0485C35.7568 25.4736 35.6948 26.8475 35.0508 28.0931C33.2417 25.3963 31.115 23.361 28.7762 22.197C28.0169 21.8185 27.0933 22.1285 26.7148 22.8889C26.3362 23.6493 26.6462 24.5718 27.4066 24.9503C29.3103 25.8967 31.0748 27.6362 32.6032 29.9652C30.4275 30.7626 28.6957 30.8724 27.4393 30.2905C24.9971 29.158 24.0083 25.2973 23.0521 21.565C22.5147 19.4677 21.9947 17.4356 21.2082 15.7452C29.7128 17.1909 34.0598 20.9732 35.2194 24.0485ZM50.1585 21.5607C50.4108 21.7184 50.6915 21.7924 50.9689 21.7924C51.4823 21.7924 51.9849 21.5356 52.2754 21.0668L57.0052 13.4629H61.2717V14.393C61.2717 15.8768 62.4781 17.0832 63.9619 17.0832H77.6945C79.1783 17.0832 80.3847 15.8768 80.3847 14.393V9.45863C80.3847 7.97484 79.1783 6.76844 77.6945 6.76844H63.9608C62.477 6.76844 61.2706 7.97484 61.2706 9.45863V10.3887H56.1502C55.6193 10.3887 55.1255 10.6629 54.8448 11.1143L49.6646 19.4438C49.2164 20.1639 49.4372 21.1114 50.1585 21.5607ZM64.3448 9.84263H77.3095V14.0079H64.3448V9.84263ZM8.08579 55.3909H21.8185C23.3023 55.3909 24.5087 54.1845 24.5087 52.7007V51.7706H29.6291C30.2981 51.7706 30.8909 51.3377 31.0933 50.7002L34.2218 40.8804C34.4797 40.0711 34.0326 39.2063 33.2243 38.9495C32.415 38.6906 31.5502 39.1388 31.2934 39.9471L28.5053 48.6964H24.5087V47.7663C24.5087 46.2826 23.3023 45.0762 21.8185 45.0762H8.08579C6.602 45.0762 5.39561 46.2826 5.39561 47.7663V52.7007C5.39561 54.1845 6.60309 55.3909 8.08579 55.3909ZM8.47088 48.1503H21.4345V52.3156H8.47088V48.1503ZM71.6027 45.2948C70.3996 45.2948 69.2302 45.5265 68.125 45.9823C67.6724 46.1694 67.3363 46.5599 67.2188 47.0353C67.1013 47.5107 67.2177 48.0133 67.5321 48.3886C67.6898 48.5779 67.878 48.8966 67.878 49.3437C67.878 50.1661 67.209 50.8362 66.3855 50.8362C65.9569 50.8362 65.6469 50.6621 65.462 50.5164C65.078 50.2129 64.571 50.1106 64.1 50.2411C63.6279 50.3717 63.2461 50.7187 63.072 51.1767C62.6771 52.2134 62.4781 53.3045 62.4781 54.4195C62.4781 59.4507 66.5715 63.5441 71.6027 63.5441C76.6339 63.5441 80.7274 59.4507 80.7274 54.4195C80.7274 49.3883 76.6339 45.2948 71.6027 45.2948ZM71.6027 60.4689C68.2664 60.4689 65.5533 57.7547 65.5533 54.4195C65.5533 54.2248 65.562 54.0311 65.5805 53.8386C65.846 53.8864 66.1158 53.9104 66.3866 53.9104C68.9049 53.9104 70.9533 51.862 70.9533 49.3437C70.9533 49.0293 70.9207 48.7182 70.8576 48.4136C71.1034 48.3831 71.3525 48.3679 71.6038 48.3679C74.9402 48.3679 77.6543 51.082 77.6543 54.4184C77.6532 57.7547 74.9391 60.4689 71.6027 60.4689Z" fill="url(#paint0_linear_359_1305)"/>
</g>
<defs>
<linearGradient id="paint0_linear_359_1305" x1="0.000267311" y1="49.2271" x2="98.0021" y2="49.2271" gradientUnits="userSpaceOnUse">
<stop stop-color="#1685FF"/>
<stop offset="0.5" stop-color="#8B5CF6"/>
<stop offset="1" stop-color="#D946EF"/>
</linearGradient>
<clipPath id="clip0_359_1305">
<rect width="98" height="98" fill="white"/>
</clipPath>
</defs>
</svg>
