<svg width="100" height="100" viewBox="0 0 100 100" fill="none" xmlns="http://www.w3.org/2000/svg">
<path d="M20.349 12.3412V75.5389V87.6591C20.349 93.7191 25.3269 98.697 31.387 98.697H68.613C74.6731 98.697 79.651 93.7191 79.651 87.6591V76.8375V12.3412C79.651 6.28113 74.6731 1.30322 68.613 1.30322H31.387C25.3269 1.30322 20.349 6.28113 20.349 12.3412ZM50 92.7452C47.0782 92.7452 44.6974 90.3644 44.6974 87.4426C44.6974 84.5208 47.0782 82.1401 50 82.1401C52.9218 82.1401 55.3026 84.5208 55.3026 87.4426C55.3026 90.3644 52.9218 92.7452 50 92.7452ZM72.5088 16.5616C73.6992 16.5616 74.6731 17.5355 74.6731 18.7259V73.8075C74.6731 74.9979 73.6992 75.9718 72.5088 75.9718H27.4912C26.3008 75.9718 25.3269 74.9979 25.3269 73.8075V18.7259C25.3269 17.5355 26.3008 16.5616 27.4912 16.5616H72.5088ZM41.7756 9.09473C41.7756 8.8783 41.9921 8.77008 42.1003 8.77008H57.7915C58.0079 8.77008 58.1161 8.98651 58.1161 9.09473V10.6097C58.1161 10.8262 58.0079 10.9344 57.7915 10.9344H42.2085C41.9921 10.9344 41.8838 10.8262 41.8838 10.6097V9.09473H41.7756Z" fill="url(#paint0_linear_362_1394)"/>
<path d="M55.8436 54.2203C55.8436 55.0861 56.4929 55.7354 57.3586 55.7354C58.2244 55.7354 58.8737 55.0861 58.8737 54.2203C58.8737 53.571 58.4408 53.03 57.8997 52.8135C57.6833 52.7053 57.5751 52.7053 57.3586 52.7053C57.1422 52.7053 57.034 52.7053 56.9258 52.8135C56.2765 53.03 55.8436 53.571 55.8436 54.2203ZM57.3586 53.3546C57.8997 53.3546 58.2244 53.7875 58.2244 54.2203C58.2244 54.6532 57.7915 55.0861 57.3586 55.0861C56.8176 55.0861 56.4929 54.6532 56.4929 54.2203C56.4929 53.7875 56.8176 53.3546 57.3586 53.3546Z" fill="#FFC100"/>
<path d="M36.5814 62.445H63.4188C64.8256 62.445 66.0159 61.2546 66.0159 59.8478V52.922C66.0159 50.6495 64.6091 48.7016 62.553 47.9441L57.1423 45.888C57.6834 47.6195 57.8998 49.6756 57.8998 51.9481C58.9819 52.1645 59.7395 53.1385 59.7395 54.3288C59.7395 55.6274 58.6573 56.7096 57.3587 56.7096C56.0601 56.7096 54.978 55.6274 54.978 54.3288C54.978 53.1385 55.8437 52.1645 56.9259 51.9481C56.8176 49.4591 56.493 47.2948 55.9519 45.4552L54.3287 44.8059C54.1123 44.6977 53.7876 44.8059 53.7876 45.0223L50.0001 55.7356C50.0001 55.8438 49.7836 55.8438 49.6754 55.7356L46.3207 45.1305C46.2125 44.9141 45.9961 44.8059 45.7797 44.8059L43.3989 45.6716C42.8579 46.9702 42.6414 48.1606 42.6414 49.2427C42.7496 49.2427 42.8579 49.3509 42.8579 49.3509L43.0743 50.6495C43.0743 50.7577 43.1825 50.8659 43.3989 50.8659C45.3468 51.0824 46.8618 52.4892 47.1865 54.437L47.2947 55.411C47.2947 55.5192 47.1865 55.6274 47.0783 55.6274H46.8618L47.1865 58.5492C47.2947 59.1985 46.8618 59.7396 46.2125 59.8478C46.2125 59.956 46.1043 60.1725 45.9961 60.1725H45.5632C45.2386 60.1725 44.9139 59.956 44.9139 59.6314C44.9139 59.3067 45.1304 58.9821 45.455 58.9821H45.8879C45.9961 58.9821 46.2125 59.0903 46.2125 59.1985C46.5372 59.1985 46.8618 58.7657 46.7536 58.441L46.429 55.5192H46.2125C46.1043 55.5192 45.9961 55.411 45.9961 55.3028L45.8879 54.3288C45.6715 52.7056 44.2647 51.6234 42.6414 51.8399C41.1264 52.0563 40.0443 53.5713 40.2607 55.0863L40.3689 55.9521C40.3689 56.0603 40.2607 56.1685 40.1525 56.1685H39.936L40.2607 59.0903C40.2607 59.415 40.5853 59.7396 41.0182 59.6314C41.0182 59.5232 41.1264 59.3067 41.2346 59.3067H41.6675C41.9921 59.3067 42.3168 59.5232 42.3168 59.8478C42.3168 60.1725 42.1004 60.4971 41.7757 60.4971H41.3428C41.2346 60.4971 41.0182 60.3889 41.0182 60.2807C40.3689 60.3889 39.8278 59.956 39.7196 59.3067L39.395 56.3849H39.1785C39.0703 56.3849 38.9621 56.2767 38.9621 56.1685L38.8539 55.3028C38.6375 53.3549 39.7196 51.407 41.5593 50.7577C41.6675 50.7577 41.7757 50.5413 41.7757 50.4331L41.5593 49.1345C41.5593 49.0263 41.5593 49.0263 41.6675 48.9181C41.6675 47.9441 41.7757 46.862 42.2086 45.6716L37.5553 47.403C35.4992 48.1606 34.0924 50.2166 34.0924 52.381V59.3067C33.9842 61.2546 35.1746 62.445 36.5814 62.445Z" fill="#FFC100"/>
<path d="M43.8318 37.4471C44.3728 40.6936 46.97 42.8579 49.7836 43.3989C49.8918 43.3989 49.8918 43.3989 50 43.3989C50.2165 43.3989 50.5411 43.3989 50.7575 43.2907C54.1122 42.3168 55.7354 39.7196 56.1683 37.4471C57.034 37.5553 57.6833 36.906 58.1162 35.6074C58.4408 33.876 58.549 32.5774 57.034 32.6856C57.7915 26.6256 54.1122 29.872 54.7615 27.1666C55.4108 24.5695 41.5592 23.0545 43.0742 32.6856C41.7757 32.4692 41.2346 33.1185 41.7757 35.1746C42.1003 36.906 42.7496 37.6635 43.8318 37.4471Z" fill="#FFC100"/>
<defs>
<linearGradient id="paint0_linear_362_1394" x1="74.2861" y1="-4.18204" x2="-1.15178" y2="34.0442" gradientUnits="userSpaceOnUse">
<stop stop-color="#8B5CF6"/>
<stop offset="1" stop-color="#1685FF"/>
</linearGradient>
</defs>
</svg>
