<svg width="100" height="100" viewBox="0 0 100 100" fill="none" xmlns="http://www.w3.org/2000/svg">
<path d="M62.42 59.655C59.07 58.055 54.66 57.175 50 57.175C45.34 57.175 40.93 58.055 37.58 59.655C33.86 61.425 31.82 63.915 31.82 66.665V90.005C31.82 92.755 33.86 95.245 37.57 97.015C40.92 98.615 45.33 99.495 50 99.495C54.67 99.495 59.08 98.615 62.43 97.015C66.14 95.245 68.18 92.755 68.18 90.005V66.665C68.18 63.925 66.14 61.435 62.42 59.655ZM65.09 78.395C65.09 81.425 58.89 84.795 50 84.795C41.11 84.795 34.91 81.425 34.91 78.395V72.075C35.67 72.655 36.56 73.195 37.58 73.685C40.93 75.285 45.34 76.165 50 76.165C54.66 76.165 59.07 75.285 62.42 73.685C63.44 73.195 64.33 72.655 65.09 72.075V78.395ZM50 60.275C58.89 60.275 65.09 63.645 65.09 66.675C65.09 69.705 58.89 73.075 50 73.075C41.11 73.075 34.91 69.705 34.91 66.675C34.91 63.645 41.11 60.275 50 60.275ZM50 96.405C41.11 96.405 34.91 93.035 34.91 90.005V83.805C35.67 84.385 36.55 84.925 37.57 85.405C40.92 87.005 45.33 87.885 50 87.885C54.67 87.885 59.08 87.005 62.43 85.405C63.44 84.925 64.33 84.385 65.09 83.805V90.015C65.09 93.035 58.89 96.405 50 96.405ZM90.91 0.505005H76.61C75.77 0.505005 75 0.815005 74.39 1.425L69.69 6.135C69.09 6.73501 68.77 7.50501 68.77 8.35501V33.115C68.77 34.845 70.18 36.255 71.91 36.255H90.91C92.64 36.255 94.05 34.845 94.05 33.115V3.645C94.05 1.915 92.64 0.505005 90.91 0.505005ZM75.44 4.755V7.175H73.02L75.44 4.755ZM90.96 33.115C90.96 33.135 90.94 33.165 90.91 33.165H71.91C71.88 33.165 71.86 33.145 71.86 33.115V10.275H76.98C77.83 10.275 78.53 9.58501 78.53 8.72501V3.605H90.91C90.93 3.605 90.96 3.625 90.96 3.655V33.115ZM88.75 14.285C88.75 15.135 88.06 15.835 87.2 15.835H75.62C74.77 15.835 74.07 15.145 74.07 14.285C74.07 13.435 74.76 12.735 75.62 12.735H87.2C88.06 12.735 88.75 13.435 88.75 14.285ZM88.75 24.475C88.75 25.325 88.06 26.025 87.2 26.025H75.62C74.77 26.025 74.07 25.335 74.07 24.475C74.07 23.625 74.76 22.925 75.62 22.925H87.2C88.06 22.925 88.75 23.615 88.75 24.475ZM40.5 36.255H59.5C61.23 36.255 62.64 34.845 62.64 33.115V3.645C62.64 1.915 61.23 0.505005 59.5 0.505005H45.2C44.36 0.505005 43.59 0.815005 42.98 1.425L38.28 6.135C37.68 6.73501 37.36 7.50501 37.36 8.35501V33.115C37.36 34.845 38.77 36.255 40.5 36.255ZM59.55 3.645V33.105C59.55 33.125 59.53 33.155 59.5 33.155H40.5C40.47 33.155 40.45 33.125 40.45 33.105V10.275H45.58C46.43 10.275 47.13 9.58501 47.13 8.72501V3.605H59.5C59.52 3.605 59.55 3.625 59.55 3.645ZM44.03 4.755V7.175H41.61L44.03 4.755ZM55.79 12.735C56.64 12.735 57.34 13.425 57.34 14.285C57.34 15.135 56.65 15.835 55.79 15.835H44.21C43.36 15.835 42.66 15.145 42.66 14.285C42.66 13.435 43.35 12.735 44.21 12.735H55.79ZM57.34 24.475C57.34 25.325 56.65 26.025 55.79 26.025H44.21C43.36 26.025 42.66 25.335 42.66 24.475C42.66 23.625 43.35 22.925 44.21 22.925H55.79C56.64 22.925 57.34 23.615 57.34 24.475ZM31.24 33.115V3.645C31.24 1.915 29.83 0.505005 28.09 0.505005H13.79C12.95 0.505005 12.18 0.815005 11.57 1.425L6.86001 6.135C6.26001 6.74501 5.95001 7.51501 5.95001 8.35501V33.115C5.95001 34.845 7.36001 36.255 9.09001 36.255H28.09C29.82 36.255 31.24 34.845 31.24 33.115ZM12.62 4.755V7.175H10.2L12.62 4.755ZM9.04001 33.115V10.275H14.17C15.02 10.275 15.72 9.58501 15.72 8.72501V3.605H28.09C28.12 3.605 28.14 3.635 28.14 3.655V33.115C28.14 33.135 28.12 33.165 28.09 33.165H9.09001C9.07001 33.155 9.04001 33.135 9.04001 33.115ZM25.93 14.285C25.93 15.135 25.24 15.835 24.38 15.835H12.8C11.95 15.835 11.25 15.145 11.25 14.285C11.25 13.435 11.94 12.735 12.8 12.735H24.38C25.23 12.735 25.93 13.435 25.93 14.285ZM25.93 24.475C25.93 25.325 25.24 26.025 24.38 26.025H12.8C11.95 26.025 11.25 25.335 11.25 24.475C11.25 23.625 11.94 22.925 12.8 22.925H24.38C25.23 22.925 25.93 23.615 25.93 24.475ZM83.03 41.165C82.02 46.435 78.92 50.605 73.57 53.875L75.13 54.395C75.94 54.665 76.38 55.545 76.11 56.355C75.89 57.005 75.29 57.415 74.64 57.415C74.48 57.415 74.31 57.385 74.15 57.335L69.2 55.685C68.81 55.555 68.49 55.275 68.3 54.905C68.12 54.535 68.09 54.115 68.22 53.725L69.87 48.775C70.14 47.965 71.02 47.525 71.83 47.795C72.64 48.065 73.08 48.945 72.81 49.755L72.41 50.965C76.71 48.215 79.2 44.815 80 40.595C80.16 39.755 80.97 39.205 81.81 39.365C82.63 39.515 83.19 40.325 83.03 41.165ZM31.71 54.905C31.53 55.275 31.2 55.555 30.81 55.685L25.86 57.335C25.7 57.385 25.53 57.415 25.37 57.415C24.72 57.415 24.12 57.005 23.9 56.355C23.63 55.545 24.07 54.665 24.88 54.395L26.43 53.875C21.08 50.605 17.97 46.435 16.97 41.165C16.81 40.325 17.36 39.515 18.2 39.355C19.04 39.195 19.85 39.745 20.01 40.585C20.81 44.795 23.3 48.205 27.6 50.955L27.2 49.745C26.93 48.935 27.37 48.055 28.18 47.785C28.99 47.515 29.87 47.955 30.14 48.765L31.79 53.715C31.92 54.115 31.89 54.535 31.71 54.905ZM51.55 40.875V48.665L52.59 47.625C53.19 47.025 54.17 47.025 54.78 47.625C55.38 48.225 55.38 49.205 54.78 49.815L51.09 53.505C50.79 53.805 50.39 53.955 50 53.955C49.6 53.955 49.21 53.805 48.91 53.505L45.22 49.815C44.62 49.215 44.61 48.235 45.22 47.625C45.82 47.025 46.8 47.015 47.41 47.625L48.46 48.675V40.885C48.46 40.035 49.15 39.335 50.01 39.335C50.86 39.325 51.55 40.015 51.55 40.875Z" fill="url(#paint0_linear_311_762)"/>
<defs>
<linearGradient id="paint0_linear_311_762" x1="5.95025" y1="50.2384" x2="94.0519" y2="50.2384" gradientUnits="userSpaceOnUse">
<stop stop-color="#1685FF"/>
<stop offset="0.5" stop-color="#8B5CF6"/>
<stop offset="1" stop-color="#D946EF"/>
</linearGradient>
</defs>
</svg>
