<svg width="30" height="30" viewBox="0 0 30 30" fill="none" xmlns="http://www.w3.org/2000/svg">
<path fill-rule="evenodd" clip-rule="evenodd" d="M29.2607 9.5053C29.2607 10.3993 28.5358 11.1246 27.6414 11.1246C27.1535 11.1246 26.7215 10.9045 26.4245 10.563L26.3736 10.6139C23.2137 7.88284 19.0985 6.22673 14.594 6.22673C10.1049 6.22673 6.00237 7.87147 2.84658 10.5857C2.54964 10.9345 2.11265 11.16 1.61928 11.16C0.724832 11.16 0 10.4352 0 9.54077C0 8.98009 0.285567 8.48626 0.71892 8.19569C4.45585 4.96214 9.32232 3 14.6517 3C19.962 3 24.8125 4.9485 28.5436 8.16113C28.976 8.4517 29.2607 8.94508 29.2607 9.5053ZM5.4849 12.8216C7.99998 10.8122 11.1817 9.60216 14.6512 9.60216C18.1008 9.60216 21.2666 10.7976 23.7753 12.7861C24.2619 13.0653 24.5929 13.5842 24.5929 14.1853C24.5929 15.0798 23.8681 15.8046 22.9741 15.8046C22.483 15.8046 22.0483 15.5813 21.7513 15.2357L21.7404 15.2467C19.7846 13.7151 17.3282 12.7943 14.6517 12.7943C11.9606 12.7943 9.49148 13.7247 7.5307 15.2708L7.51934 15.2594C7.2224 15.6114 6.78359 15.8401 6.28703 15.8401C5.39259 15.8401 4.66775 15.1152 4.66775 14.2208C4.6673 13.6197 4.99834 13.1013 5.4849 12.8216ZM9.58379 17.9705L9.96985 17.5844C10.5005 17.0537 11.3613 17.0537 11.892 17.5844L14.6594 20.3519L17.4269 17.5844C17.9576 17.0537 18.8184 17.0537 19.349 17.5844L19.7351 17.9705C20.2657 18.5016 20.2657 19.3619 19.7351 19.8926L16.9676 22.6596L19.6018 25.2938C20.1325 25.8245 20.1325 26.6853 19.6018 27.2159L19.2158 27.602C18.6851 28.1327 17.8243 28.1327 17.2937 27.602L14.6594 24.9678L12.0248 27.602C11.4941 28.1327 10.6333 28.1327 10.1026 27.602L9.71657 27.2159C9.1859 26.6853 9.1859 25.8245 9.71657 25.2938L12.3508 22.6596L9.58379 19.8926C9.05312 19.3619 9.05312 18.5011 9.58379 17.9705Z" fill="url(#paint0_linear_1774_109)"/>
<defs>
<linearGradient id="paint0_linear_1774_109" x1="7.98133e-05" y1="15.5602" x2="29.2613" y2="15.5602" gradientUnits="userSpaceOnUse">
<stop stop-color="#1685FF"/>
<stop offset="0.5" stop-color="#8B5CF6"/>
<stop offset="1" stop-color="#D946EF"/>
</linearGradient>
</defs>
</svg>
