<svg width="30" height="30" viewBox="0 0 30 30" fill="none" xmlns="http://www.w3.org/2000/svg">
<path d="M13.2776 13.644C13.2776 13.836 13.1219 13.9907 12.9308 13.9907H7.78701C7.59506 13.9907 7.44027 13.8351 7.44027 13.644C7.44027 13.4521 7.59596 13.2973 7.78701 13.2973H12.9299C13.1219 13.2964 13.2776 13.4521 13.2776 13.644ZM12.9299 15.1098H7.78701C7.59506 15.1098 7.44027 15.2654 7.44027 15.4565C7.44027 15.6484 7.59596 15.8032 7.78701 15.8032H12.9299C13.1219 15.8032 13.2767 15.6475 13.2767 15.4565C13.2775 15.2654 13.1219 15.1098 12.9299 15.1098ZM9.92855 16.9231H7.76754C7.57559 16.9231 7.4208 17.0788 7.4208 17.2699C7.4208 17.4618 7.57648 17.6166 7.76754 17.6166H9.92855C10.1205 17.6166 10.2753 17.4609 10.2753 17.2699C10.2762 17.0788 10.1205 16.9231 9.92855 16.9231ZM9.92855 18.7374H7.76754C7.57559 18.7374 7.4208 18.8931 7.4208 19.0841C7.4208 19.2761 7.57648 19.4308 7.76754 19.4308H9.92855C10.1205 19.4308 10.2753 19.2752 10.2753 19.0841C10.2762 18.8922 10.1205 18.7374 9.92855 18.7374ZM9.92855 20.5516H7.76754C7.57559 20.5516 7.4208 20.7073 7.4208 20.8984C7.4208 21.0903 7.57648 21.2451 7.76754 21.2451H9.92855C10.1205 21.2451 10.2753 21.0894 10.2753 20.8984C10.2762 20.7064 10.1205 20.5516 9.92855 20.5516ZM9.92855 22.365H7.76754C7.57559 22.365 7.4208 22.5207 7.4208 22.7117C7.4208 22.9037 7.57648 23.0585 7.76754 23.0585H9.92855C10.1205 23.0585 10.2753 22.9028 10.2753 22.7117C10.2762 22.5207 10.1205 22.365 9.92855 22.365ZM26.1922 24.6533C26.1922 24.8452 26.0365 25 25.8455 25H4.34674C4.15567 25 4 24.8443 4 24.6533C4 24.4613 4.15568 24.3065 4.34674 24.3065H5.94781L5.94869 12.0438C5.94869 11.8518 6.10438 11.6971 6.29543 11.6971H14.6324C14.8244 11.6971 14.9792 11.8527 14.9792 12.0438V16.9231H17.7736C17.9655 16.9231 18.1203 17.0788 18.1203 17.2699L18.1212 20.1288L18.1433 20.0288L18.4148 18.786V18.7834L18.4352 18.6905L18.621 17.8483L18.8907 16.6232L19.2578 14.9452L19.4436 14.1004L19.9337 11.8695C19.1924 11.4891 18.6838 10.7187 18.6838 9.82969C18.6838 8.56476 19.7125 7.53598 20.9775 7.53598C22.2424 7.53598 23.2712 8.56474 23.2712 9.82969C23.2712 10.7187 22.7617 11.49 22.0195 11.8704L22.5087 14.1004L22.6945 14.9425L23.0633 16.6232L23.3331 17.8483L23.5162 18.6887V18.6913L23.5392 18.7869L23.8108 20.0297L24.752 24.3067H25.8471C26.0364 24.3058 26.1922 24.4613 26.1922 24.6533ZM11.4005 16.9229H14.2859V12.3912H6.64322V24.3063H11.0538V17.2705C11.0538 17.0786 11.2094 16.9229 11.4005 16.9229ZM15.4811 20.7939H13.6934V24.3066H15.4811V20.7939ZM17.4281 17.6175H11.7482V24.3057H12.9999V20.4463C12.9999 20.2543 13.1556 20.0995 13.3466 20.0995H15.8288C16.0207 20.0995 16.1755 20.2552 16.1755 20.4463V24.3057H17.2025L17.4272 23.284L17.4281 17.6175ZM21.436 16.3835L22.5886 17.7015L22.3851 16.7709L22.1268 15.5936L21.436 16.3835ZM20.9769 16.9107L19.3891 18.7267L20.9769 20.5427L22.5647 18.7267L20.9769 16.9107ZM20.9769 15.8536L21.942 14.7488L21.3564 12.0898C21.2326 12.111 21.1061 12.1243 20.9769 12.1243C20.8478 12.1243 20.7213 12.111 20.5974 12.0907L20.0118 14.7524L20.9769 15.8536ZM20.976 11.429C21.8579 11.429 22.5753 10.7116 22.5753 9.82971C22.5753 8.9478 21.8579 8.2304 20.976 8.2304C20.0941 8.2304 19.3767 8.9478 19.3767 9.82971C19.3776 10.7116 20.095 11.429 20.976 11.429ZM19.3643 17.699L20.5143 16.3836L19.8261 15.5954L19.5678 16.771L19.3643 17.699ZM17.9871 23.9608L20.5143 21.0708L19.0034 19.3406L18.1144 23.3786C18.1135 23.3848 18.1117 23.3901 18.1109 23.3954L17.9871 23.9608ZM23.3431 24.3057L20.9769 21.5963L18.6089 24.3057H23.3431ZM23.9614 23.9581L22.9494 19.339L21.4368 21.0692L23.9614 23.9581ZM20.9759 11.0027C20.3292 11.0027 19.8029 10.4763 19.8029 9.82971C19.8029 9.18396 20.3292 8.65853 20.9759 8.65853C21.6225 8.65853 22.1488 9.18396 22.1488 9.82971C22.1488 10.4763 21.6225 11.0027 20.9759 11.0027ZM20.9759 10.3083C21.2395 10.3083 21.4544 10.0933 21.4544 9.82971C21.4544 9.56698 21.2395 9.35203 20.9759 9.35203C20.7123 9.35203 20.4973 9.5661 20.4973 9.82971C20.4973 10.0942 20.7123 10.3083 20.9759 10.3083ZM8.55305 9.73329C9.08201 9.26888 9.76048 9.01324 10.4646 9.01324C11.1678 9.01324 11.8472 9.26888 12.3762 9.73329C12.4416 9.79078 12.5239 9.81997 12.6053 9.81997C12.7017 9.81997 12.7981 9.78017 12.8662 9.70144C12.9927 9.55725 12.9785 9.33787 12.8344 9.21138C12.1789 8.6364 11.3377 8.31885 10.4655 8.31885C9.59326 8.31885 8.75205 8.63552 8.09657 9.21138C7.95238 9.33787 7.93823 9.55724 8.06472 9.70144C8.18945 9.84562 8.40887 9.85978 8.55305 9.73329ZM11.9224 10.5719C12.0197 10.5719 12.1161 10.5312 12.1851 10.4516C12.3107 10.3065 12.2948 10.0871 12.1497 9.96237C11.6827 9.55811 11.0838 9.3361 10.4646 9.3361C9.84455 9.3361 9.24659 9.55813 8.77953 9.96237C8.63446 10.088 8.61854 10.3073 8.74415 10.4516C8.86976 10.5966 9.08912 10.6125 9.23333 10.4869C9.57477 10.1924 10.0117 10.0296 10.4646 10.0296C10.9175 10.0296 11.3554 10.1924 11.696 10.4869C11.7614 10.5435 11.8419 10.5719 11.9224 10.5719ZM9.46587 10.7098C9.31815 10.8319 9.2978 11.0513 9.42075 11.1981C9.54282 11.3458 9.7622 11.3662 9.90903 11.2432C10.0638 11.115 10.2602 11.0442 10.4636 11.0442C10.6689 11.0442 10.8608 11.1132 11.0192 11.2441C11.0837 11.2972 11.1625 11.3237 11.2403 11.3237C11.3403 11.3237 11.4393 11.2804 11.5083 11.1972C11.6304 11.0495 11.6092 10.831 11.4614 10.709C11.1819 10.4781 10.8272 10.3507 10.4637 10.3507C10.0992 10.3507 9.74449 10.4781 9.46587 10.7098ZM10.4646 7.35295C10.6565 7.35295 10.8113 7.19727 10.8113 7.00621V5.69439H20.3082V6.84256C20.3082 7.03451 20.4638 7.1893 20.6549 7.1893C20.8469 7.1893 21.0016 7.03361 21.0016 6.84256L21.0034 5.34674C21.0034 5.15479 20.8477 5 20.6567 5H10.4646C10.2727 5 10.1179 5.15568 10.1179 5.34674V7.00531C10.117 7.19726 10.2726 7.35295 10.4646 7.35295Z" fill="url(#paint0_linear_1774_211)"/>
<defs>
<linearGradient id="paint0_linear_1774_211" x1="4.00006" y1="15.0482" x2="26.1927" y2="15.0482" gradientUnits="userSpaceOnUse">
<stop stop-color="#1685FF"/>
<stop offset="0.5" stop-color="#8B5CF6"/>
<stop offset="1" stop-color="#D946EF"/>
</linearGradient>
</defs>
</svg>
