<svg width="41" height="40" viewBox="0 0 41 40" fill="none" xmlns="http://www.w3.org/2000/svg">
<path d="M13.8314 15.4152C13.8013 15.5989 13.7846 15.786 13.7846 15.9714C13.7846 16.2587 13.5525 16.4925 13.2635 16.4925C12.9762 16.4925 12.7423 16.2604 12.7423 15.9714C12.7423 15.7275 12.7624 15.482 12.8041 15.2415C12.8526 14.9575 13.1198 14.7654 13.4037 14.8156C13.6877 14.8623 13.8782 15.1312 13.8314 15.4152ZM17.0984 11.617C15.5919 11.617 14.2139 12.3786 13.4088 13.6564C13.2551 13.9002 13.3286 14.2209 13.5725 14.3746C13.6577 14.4297 13.7546 14.4548 13.8498 14.4548C14.0218 14.4548 14.1922 14.3679 14.2907 14.2109C14.902 13.2388 15.9509 12.6592 17.0984 12.6592C18.1406 12.6592 19.1011 13.1353 19.7358 13.9654C19.9095 14.1942 20.2369 14.2376 20.4657 14.0639C20.6945 13.8902 20.7379 13.5628 20.5642 13.334C19.7308 12.2417 18.4681 11.617 17.0984 11.617ZM16.8395 5.4268H18.0805V9.14647C18.0805 9.43376 18.3127 9.66762 18.6017 9.66762C18.889 9.66762 19.1228 9.43545 19.1228 9.14647V4.90566C19.1228 4.61837 18.8906 4.38451 18.6017 4.38451H17.8651L20.0431 1.4014L22.2228 4.38618H21.4862C21.1989 4.38618 20.9651 4.61835 20.9651 4.90732V9.14814C20.9651 9.43543 21.1972 9.66928 21.4862 9.66928C21.7735 9.66928 22.0074 9.43712 22.0074 9.14814V5.42847H23.2483C23.4438 5.42847 23.6242 5.31823 23.7127 5.14452C23.8012 4.96914 23.7845 4.76036 23.6692 4.6017L20.4657 0.213794C20.3671 0.0801727 20.2118 0 20.0448 0C19.8794 0 19.7224 0.0785009 19.6238 0.213794L16.4203 4.6017C16.305 4.76037 16.2883 4.96916 16.3768 5.14452C16.4637 5.31656 16.6441 5.4268 16.8395 5.4268ZM4.90898 25.3481C4.98915 25.3481 5.07099 25.3297 5.14448 25.2913C5.31986 25.2028 5.42843 25.0224 5.42843 24.827V23.586H6.73958C7.02687 23.586 7.26073 23.3539 7.26073 23.0649C7.26073 22.7776 7.02856 22.5437 6.73958 22.5437H4.90899C4.62171 22.5437 4.38785 22.7759 4.38785 23.0649V23.8015L1.40307 21.6218L4.38785 19.4421V20.1787C4.38785 20.466 4.62002 20.6998 4.90899 20.6998H6.74129C7.02858 20.6998 7.26244 20.4676 7.26244 20.1787C7.26244 19.8914 7.03027 19.6575 6.74129 19.6575H5.43014L5.42847 18.4182C5.42847 18.2228 5.31823 18.0424 5.14452 17.9539C4.96914 17.8654 4.76036 17.8821 4.6017 17.9973L0.213794 21.2025C0.0785009 21.3011 0 21.4564 0 21.6235C0 21.7888 0.0785009 21.9458 0.213794 22.0444L4.6017 25.2479C4.6919 25.3131 4.80041 25.3481 4.90898 25.3481ZM39.8728 21.2025L35.4849 17.999C35.3263 17.8837 35.1175 17.867 34.9421 17.9555C34.7667 18.0441 34.6582 18.2244 34.6582 18.4198V19.6608H33.347C33.0597 19.6608 32.8259 19.893 32.8259 20.182C32.8259 20.4693 33.058 20.7031 33.347 20.7031H35.1793C35.4666 20.7031 35.7005 20.471 35.7005 20.182V19.4454L38.6852 21.6251L35.7005 23.8048V23.0682C35.7005 22.7809 35.4683 22.5471 35.1793 22.5471H33.347C33.0597 22.5471 32.8259 22.7792 32.8259 23.0682C32.8259 23.3555 33.058 23.5893 33.347 23.5893H34.6582V24.8303C34.6582 25.0257 34.7684 25.2061 34.9421 25.2946C35.0173 25.3331 35.0974 25.3514 35.1776 25.3514C35.2862 25.3514 35.3931 25.318 35.4849 25.2512L39.8728 22.0476C40.0065 21.9491 40.0866 21.7938 40.0866 21.6267C40.0866 21.4564 40.0081 21.3011 39.8728 21.2025ZM23.2469 34.5732H22.0059V30.8535C22.0059 30.5662 21.7738 30.3324 21.4848 30.3324C21.1975 30.3324 20.9637 30.5646 20.9637 30.8535V35.0943C20.9637 35.3816 21.1958 35.6155 21.4848 35.6155H22.2214L20.0434 38.5986L17.8636 35.6138H18.6003C18.8875 35.6138 19.1214 35.3817 19.1214 35.0927V30.8519C19.1214 30.5646 18.8892 30.3307 18.6003 30.3307C18.313 30.3307 18.0791 30.5629 18.0791 30.8519V34.5715H16.8381C16.6427 34.5715 16.4623 34.6818 16.3738 34.8555C16.2853 35.0309 16.302 35.2396 16.4172 35.3983L19.6208 39.7862C19.7194 39.9198 19.8747 40 20.0417 40C20.2071 40 20.3641 39.9215 20.4626 39.7862L23.6662 35.3983C23.7814 35.2396 23.7981 35.0308 23.7096 34.8555C23.6228 34.6834 23.4423 34.5732 23.2469 34.5732ZM36.2383 29.3169C36.2383 30.5462 35.2379 31.5466 34.0086 31.5466C32.958 31.5466 32.0761 30.8168 31.8422 29.838L26.9934 29.8363C26.7061 29.8363 26.4722 29.6041 26.4722 29.3152V26.1634H23.6011V32.4921H26.1933C26.4288 31.5133 27.3107 30.7834 28.3596 30.7834C29.589 30.7834 30.5894 31.7839 30.5894 33.0132C30.5894 34.2425 29.589 35.243 28.3596 35.243C27.3091 35.243 26.4272 34.5131 26.1933 33.5343H23.08C22.7927 33.5343 22.5588 33.3021 22.5588 33.0131L22.5605 26.1632H17.5265V33.0131C17.5265 33.3004 17.2943 33.5343 17.0054 33.5343H13.892C13.6565 34.5131 12.7746 35.243 11.7257 35.243C10.4964 35.243 9.49589 34.2425 9.49589 33.0132C9.49589 31.7839 10.4964 30.7834 11.7257 30.7834C12.7763 30.7834 13.6582 31.5133 13.892 32.4921H16.4843V26.1634H13.6131V29.3152C13.6131 29.6024 13.3809 29.8363 13.0919 29.8363H8.24481C8.0093 30.8151 7.12739 31.545 6.07847 31.545C4.84916 31.545 3.84869 30.5445 3.84869 29.3152C3.84869 28.0859 4.84916 27.0871 6.07847 27.0871C7.12906 27.0871 8.01096 27.817 8.24481 28.7958H12.5724V26.1634H11.8676C9.36385 26.1634 7.32618 24.1274 7.32618 21.622C7.32618 19.3354 9.02485 17.4397 11.2246 17.1272C11.1494 16.7481 11.1127 16.3622 11.1127 15.9714C11.1127 12.6727 13.7968 9.98689 17.0972 9.98689C19.7278 9.98689 22.0213 11.7006 22.7995 14.1525C23.4108 13.8569 24.0806 13.7032 24.7721 13.7032C26.8699 13.7032 28.7056 15.1764 29.1882 17.1857C31.2477 17.635 32.7593 19.479 32.7593 21.6219C32.7593 24.1257 30.7232 26.1634 28.2179 26.1634H27.513V28.7957H31.8406C32.0761 27.8169 32.9581 27.087 34.007 27.087C35.2396 27.087 36.2383 28.0875 36.2383 29.3169ZM7.26413 29.3169C7.26413 28.6621 6.73131 28.1293 6.07659 28.1293C5.42187 28.1293 4.88905 28.6621 4.88905 29.3169C4.88905 29.9716 5.42187 30.5044 6.07659 30.5044C6.73131 30.5044 7.26413 29.9716 7.26413 29.3169ZM12.913 33.0131C12.913 32.3584 12.3802 31.8256 11.7255 31.8256C11.0707 31.8256 10.5379 32.3584 10.5379 33.0131C10.5379 33.6679 11.0707 34.2007 11.7255 34.2007C12.3802 34.2007 12.913 33.6679 12.913 33.0131ZM27.1739 33.0131C27.1739 33.6679 27.7067 34.2007 28.3614 34.2007C29.0162 34.2007 29.549 33.6679 29.549 33.0131C29.549 32.3584 29.0162 31.8256 28.3614 31.8256C27.7067 31.8256 27.1739 32.3584 27.1739 33.0131ZM11.8675 25.1229H28.2194C30.1485 25.1229 31.7186 23.5528 31.7186 21.6237C31.7186 19.8732 30.4124 18.3817 28.6803 18.1545C28.4498 18.1244 28.2678 17.9457 28.2327 17.7169C27.9755 16.0233 26.489 14.7472 24.7736 14.7472C24.0504 14.7472 23.3555 14.966 22.7659 15.3802C22.6206 15.4821 22.4352 15.5038 22.2699 15.437C22.1062 15.3702 21.9876 15.2249 21.9542 15.0512C21.5149 12.7212 19.4722 11.0309 17.0972 11.0309C14.3713 11.0309 12.1547 13.249 12.1547 15.9734C12.1547 16.4761 12.2299 16.9738 12.3785 17.4499C12.4286 17.6085 12.3986 17.7806 12.3017 17.9142C12.2032 18.0478 12.0478 18.1263 11.8825 18.1263H11.8658C9.93828 18.1263 8.36822 19.6964 8.36822 21.6255C8.36822 23.553 9.93839 25.1229 11.8675 25.1229ZM35.1976 29.3169C35.1976 28.6622 34.6648 28.1294 34.0101 28.1294C33.3553 28.1294 32.8225 28.6622 32.8225 29.3169C32.8225 29.9716 33.3553 30.5044 34.0101 30.5044C34.6648 30.5044 35.1976 29.9716 35.1976 29.3169Z" fill="url(#paint0_linear_1376_278)"/>
<defs>
<linearGradient id="paint0_linear_1376_278" x1="0.000109343" y1="20.0963" x2="40.0875" y2="20.0963" gradientUnits="userSpaceOnUse">
<stop stop-color="#1685FF"/>
<stop offset="0.5" stop-color="#8B5CF6"/>
<stop offset="1" stop-color="#D946EF"/>
</linearGradient>
</defs>
</svg>
