<svg width="30" height="30" viewBox="0 0 30 30" fill="none" xmlns="http://www.w3.org/2000/svg">
<path d="M16.2761 16.4551L13.3445 13.0704C13.1213 12.8362 12.8196 12.6924 12.4971 12.6664C12.1746 12.6404 11.8538 12.734 11.5959 12.9293C11.338 13.1247 11.1611 13.4082 11.0988 13.7257C11.0366 14.0432 11.0934 14.3725 11.2584 14.6508L14.946 19.9688C14.3077 19.78 13.6439 19.6912 12.9784 19.7054C11.5297 19.8161 11.053 21.4597 12.6597 22.0286C14.364 22.6839 16.0289 23.4376 17.6458 24.2859C18.7205 24.8364 19.6318 25.0761 20.6617 24.9787C21.7338 24.876 22.7478 24.3834 23.7593 23.472C25.9982 21.4544 23.6934 17.3954 22.1605 15.5306C21.0015 14.0687 19.5739 14.2873 18.6678 15.4542C17.8249 15.3673 16.8425 15.5095 16.2761 16.4551ZM16.7634 17.3033C16.9504 16.6974 17.3508 16.0337 18.7916 16.2786C18.8689 16.2918 18.9483 16.2815 19.0196 16.2491C19.091 16.2167 19.151 16.1637 19.192 16.0969C19.7003 15.362 20.5616 14.7799 21.5626 16.0442C22.4451 17.1193 23.1397 18.3358 23.6171 19.6422C24.1122 21.1304 23.9858 22.2235 23.2404 22.8952C21.5757 24.3939 19.9664 24.6099 18.0225 23.5958C16.3704 22.7288 14.6685 21.9601 12.9257 21.2937C12.6228 21.1884 12.4411 21.0303 12.4595 20.8644C12.4779 20.6985 12.6913 20.5352 13.0574 20.5035C13.9872 20.4114 15.7915 21.0672 15.7968 21.0672C15.8755 21.096 15.9613 21.099 16.0419 21.0757C16.1224 21.0525 16.1934 21.0043 16.2448 20.938C16.2961 20.8717 16.325 20.7909 16.3273 20.7071C16.3296 20.6233 16.3053 20.541 16.2577 20.4719L11.909 14.2189C11.8468 14.1076 11.827 13.9775 11.8534 13.8527C11.8798 13.728 11.9506 13.6171 12.0525 13.5405C12.1545 13.464 12.2808 13.427 12.4079 13.4365C12.5351 13.4459 12.6545 13.5012 12.744 13.592L16.0865 17.4429C16.1329 17.4956 16.1923 17.5351 16.2589 17.5574C16.3255 17.5797 16.3968 17.584 16.4655 17.5698C16.5343 17.5556 16.5981 17.5235 16.6504 17.4767C16.7027 17.4298 16.7417 17.37 16.7634 17.3033Z" fill="url(#paint0_linear_1775_257)"/>
<path d="M12.7771 11.7722C12.8629 11.772 12.9463 11.7439 13.0148 11.6921C13.0832 11.6403 13.1329 11.5676 13.1563 11.4851L13.396 10.6501C13.4247 10.5492 13.412 10.441 13.3609 10.3494C13.3098 10.2577 13.2244 10.1902 13.1234 10.1615C13.0225 10.1329 12.9143 10.1455 12.8227 10.1966C12.731 10.2478 12.6635 10.3332 12.6348 10.4341L12.3978 11.2665C12.3812 11.3253 12.3783 11.3872 12.3895 11.4473C12.4007 11.5075 12.4257 11.5642 12.4624 11.6131C12.4991 11.662 12.5465 11.7018 12.6011 11.7294C12.6557 11.757 12.7159 11.7717 12.7771 11.7722Z" fill="url(#paint1_linear_1775_257)"/>
<path d="M11.4638 11.7878C11.5624 11.7537 11.6436 11.6819 11.6895 11.5881C11.7354 11.4943 11.7423 11.3862 11.7087 11.2874L11.4243 10.4682C11.407 10.4192 11.3802 10.3742 11.3455 10.3356C11.3108 10.297 11.2688 10.2656 11.222 10.2432C11.1751 10.2208 11.1243 10.2079 11.0725 10.2051C11.0207 10.2024 10.9688 10.2099 10.9198 10.2272C10.8709 10.2445 10.8258 10.2712 10.7872 10.3059C10.7486 10.3407 10.7173 10.3826 10.6949 10.4295C10.6725 10.4763 10.6596 10.5271 10.6568 10.5789C10.6541 10.6308 10.6615 10.6826 10.6788 10.7316L10.9607 11.5481C10.9958 11.6464 11.0685 11.7269 11.1628 11.7718C11.257 11.8167 11.3653 11.8224 11.4638 11.7878Z" fill="url(#paint2_linear_1775_257)"/>
<path d="M10.4875 12.5097C10.5182 12.4677 10.5403 12.42 10.5526 12.3695C10.5648 12.3189 10.567 12.2664 10.5589 12.215C10.5508 12.1637 10.5327 12.1144 10.5055 12.07C10.4783 12.0256 10.4426 11.9871 10.4005 11.9565L9.69726 11.4482C9.61238 11.3867 9.50656 11.3615 9.40307 11.378C9.29959 11.3946 9.20691 11.4515 9.14544 11.5364C9.08396 11.6213 9.05872 11.7271 9.07527 11.8306C9.09182 11.9341 9.1488 12.0268 9.23368 12.0882L9.93695 12.5966C10.0216 12.6578 10.127 12.683 10.2301 12.6667C10.3333 12.6504 10.4258 12.594 10.4875 12.5097Z" fill="url(#paint3_linear_1775_257)"/>
<path d="M8.85213 13.2393C8.74734 13.2393 8.64685 13.2809 8.57275 13.355C8.49866 13.4291 8.45703 13.5296 8.45703 13.6344C8.45703 13.7391 8.49866 13.8396 8.57275 13.9137C8.64685 13.9878 8.74734 14.0295 8.85213 14.0295L9.72661 14.0453C9.8314 14.0453 9.93189 14.0036 10.006 13.9295C10.0801 13.8554 10.1217 13.7549 10.1217 13.6502C10.1217 13.5454 10.0801 13.4449 10.006 13.3708C9.93189 13.2967 9.8314 13.2551 9.72661 13.2551L8.85213 13.2393Z" fill="url(#paint4_linear_1775_257)"/>
<path d="M7.14578 5.00001C6.8419 5.00001 6.55047 5.12073 6.33559 5.3356C6.12072 5.55048 6 5.84192 6 6.1458V23.1429C6.0007 23.4463 6.12172 23.7371 6.33652 23.9514C6.55132 24.1657 6.84236 24.286 7.14578 24.286H15.24C15.3448 24.286 15.4453 24.2444 15.5194 24.1703C15.5935 24.0962 15.6351 23.9957 15.6351 23.8909C15.6351 23.7862 15.5935 23.6857 15.5194 23.6116C15.4453 23.5375 15.3448 23.4959 15.24 23.4959H7.14578C7.05193 23.4959 6.96188 23.4588 6.89527 23.3926C6.82866 23.3265 6.79089 23.2367 6.7902 23.1429V6.15633C6.78915 6.10885 6.79755 6.06163 6.81492 6.01743C6.83228 5.97322 6.85827 5.93291 6.89136 5.89884C6.92445 5.86477 6.96398 5.83762 7.00766 5.81897C7.05134 5.80032 7.09829 5.79055 7.14578 5.79021H8.36005L8.39429 6.12209C8.43087 6.38362 8.56432 6.62188 8.76823 6.78969C8.97213 6.95749 9.23162 7.04261 9.4953 7.02818H13.4278C13.692 7.04329 13.9521 6.95849 14.1566 6.79062C14.361 6.62275 14.4949 6.3841 14.5315 6.12209L14.5604 5.79021H15.7747C15.8232 5.78875 15.8715 5.79722 15.9165 5.8151C15.9616 5.83299 16.0026 5.8599 16.0369 5.8942C16.0711 5.92849 16.0981 5.96943 16.1159 6.01451C16.1338 6.05959 16.1423 6.10786 16.1408 6.15633V15.1435C16.1408 15.2483 16.1825 15.3488 16.2566 15.4229C16.3307 15.497 16.4311 15.5386 16.5359 15.5386C16.6407 15.5386 16.7412 15.497 16.8153 15.4229C16.8894 15.3488 16.931 15.2483 16.931 15.1435V6.15633C16.9324 6.00454 16.9037 5.85398 16.8464 5.7134C16.7891 5.57282 16.7044 5.44503 16.5973 5.33744C16.4902 5.22986 16.3628 5.14463 16.2225 5.0867C16.0822 5.02877 15.9318 4.99931 15.78 5.00001H7.14578ZM13.7465 6.05361C13.7237 6.11781 13.6797 6.17234 13.6218 6.20824C13.5639 6.24414 13.4955 6.25928 13.4278 6.25115H9.4953C9.42806 6.25865 9.36026 6.24322 9.3029 6.20736C9.24553 6.1715 9.20195 6.11733 9.17922 6.05361L9.15288 5.79021H13.7703L13.7465 6.05361Z" fill="url(#paint5_linear_1775_257)"/>
<defs>
<linearGradient id="paint0_linear_1775_257" x1="11.0743" y1="18.8607" x2="24.6913" y2="18.8607" gradientUnits="userSpaceOnUse">
<stop stop-color="#1685FF"/>
<stop offset="0.5" stop-color="#8B5CF6"/>
<stop offset="1" stop-color="#D946EF"/>
</linearGradient>
<linearGradient id="paint1_linear_1775_257" x1="12.3828" y1="10.9633" x2="13.4111" y2="10.9633" gradientUnits="userSpaceOnUse">
<stop stop-color="#1685FF"/>
<stop offset="0.5" stop-color="#8B5CF6"/>
<stop offset="1" stop-color="#D946EF"/>
</linearGradient>
<linearGradient id="paint2_linear_1775_257" x1="10.6563" y1="11.0113" x2="11.7297" y2="11.0113" gradientUnits="userSpaceOnUse">
<stop stop-color="#1685FF"/>
<stop offset="0.5" stop-color="#8B5CF6"/>
<stop offset="1" stop-color="#D946EF"/>
</linearGradient>
<linearGradient id="paint3_linear_1775_257" x1="9.07032" y1="12.0254" x2="10.5637" y2="12.0254" gradientUnits="userSpaceOnUse">
<stop stop-color="#1685FF"/>
<stop offset="0.5" stop-color="#8B5CF6"/>
<stop offset="1" stop-color="#D946EF"/>
</linearGradient>
<linearGradient id="paint4_linear_1775_257" x1="8.45704" y1="13.6442" x2="10.1217" y2="13.6442" gradientUnits="userSpaceOnUse">
<stop stop-color="#1685FF"/>
<stop offset="0.5" stop-color="#8B5CF6"/>
<stop offset="1" stop-color="#D946EF"/>
</linearGradient>
<linearGradient id="paint5_linear_1775_257" x1="6.00003" y1="14.6895" x2="16.9313" y2="14.6895" gradientUnits="userSpaceOnUse">
<stop stop-color="#1685FF"/>
<stop offset="0.5" stop-color="#8B5CF6"/>
<stop offset="1" stop-color="#D946EF"/>
</linearGradient>
</defs>
</svg>
