<svg width="90" height="90" viewBox="0 0 90 90" fill="none" xmlns="http://www.w3.org/2000/svg">
<path fill-rule="evenodd" clip-rule="evenodd" d="M66.9652 80.115C66.98 80.0815 66.9949 80.0481 67.0134 80.0147C67.2546 79.4795 67.2658 78.8961 67.0839 78.3834C66.9058 77.8705 66.5347 77.4209 66.0114 77.1533C65.978 77.1385 65.9446 77.1236 65.9112 77.105C65.3768 76.8635 64.7942 76.8523 64.2821 77.0344C63.77 77.2128 63.321 77.5844 63.0537 78.1083C63.0389 78.1418 63.024 78.1752 63.0055 78.2087C62.7643 78.7438 62.7531 79.3272 62.935 79.84C63.1131 80.3528 63.4842 80.8024 64.0075 81.07C64.0409 81.0849 64.0743 81.0997 64.1077 81.1183C64.6421 81.3599 65.2247 81.371 65.7368 81.1889C66.2489 81.0068 66.6979 80.6352 66.9652 80.115ZM46.9518 86.5735C46.9667 86.54 46.9815 86.5066 47.0001 86.4731C47.2413 85.938 47.2524 85.3546 47.0706 84.8418C46.8924 84.329 46.5213 83.8794 45.9981 83.6118C45.9647 83.5969 45.9313 83.5821 45.8979 83.5635C45.7309 83.4855 45.5564 83.4334 45.382 83.4037C45.2633 83.4595 45.1334 83.4892 44.9961 83.4892C44.8588 83.4892 44.7252 83.4595 44.6101 83.4037C44.4951 83.426 44.38 83.4557 44.2724 83.4929C43.7603 83.6713 43.3113 84.0429 43.044 84.5668C43.0292 84.6003 43.0143 84.6337 42.9958 84.6672C42.7546 85.2023 42.7434 85.7857 42.9253 86.2985C43.1034 86.8113 43.4745 87.2609 43.9978 87.5285C44.0312 87.5434 44.0646 87.5582 44.098 87.5768C44.6324 87.8183 45.215 87.8295 45.7271 87.6474C46.2355 87.469 46.6846 87.0974 46.9518 86.5735ZM48.7814 84.2473C49.1191 85.2171 49.0894 86.3134 48.6107 87.313L48.607 87.3167C48.1245 88.3164 47.2858 89.0224 46.3172 89.3642C45.3486 89.7024 44.2538 89.6727 43.2555 89.1933H43.2518C42.2535 88.7102 41.5484 87.8704 41.2071 86.9005C40.8694 85.9306 40.899 84.838 41.3778 83.8384L41.3815 83.831C41.8639 82.8313 42.7026 82.1253 43.6712 81.7835C43.8086 81.7352 43.9459 81.6943 44.0832 81.6608V73.1845C40.2274 73.1325 36.6054 72.7386 33.4514 72.0884V79.1116C33.4514 79.6133 33.0432 80.0221 32.5422 80.0221H28.883C28.8162 80.3045 28.7197 80.5832 28.5899 80.8582C28.1074 81.8578 27.2687 82.5639 26.3001 82.9057C25.3315 83.2438 24.233 83.2141 23.2347 82.731C22.2364 82.2479 21.5313 81.4081 21.19 80.4382C20.8523 79.4683 20.882 78.372 21.3607 77.3724V77.3687C21.8431 76.3691 22.6818 75.663 23.6504 75.3212C24.619 74.9831 25.7138 75.0128 26.7121 75.4922H26.7158C27.7141 75.9752 28.4192 76.815 28.7606 77.785C28.8088 77.9225 28.8459 78.06 28.883 78.1975H31.6329V71.6684C30.5678 71.4008 29.5695 71.0998 28.6492 70.7728C24.17 69.1823 21.3978 66.871 21.3978 64.2178V58.3725H14.755V61.126C14.8961 61.1595 15.0334 61.1966 15.167 61.2449C16.1355 61.5831 16.9779 62.2929 17.4567 63.2924C17.9392 64.2921 17.9688 65.392 17.6311 66.3619C17.2934 67.3318 16.5846 68.1753 15.5864 68.6547C14.5881 69.1378 13.4897 69.1675 12.521 68.8294C11.5525 68.4912 10.7101 67.7814 10.2313 66.7819C9.74882 65.7823 9.71913 64.6824 10.0568 63.7124C10.3945 62.7426 11.1034 61.8991 12.1016 61.4196C12.3725 61.2895 12.6545 61.1892 12.9366 61.126L12.9403 57.4657C12.9403 56.964 13.3485 56.5553 13.8495 56.5553H21.4015V45.9121L11.3036 45.9084C11.2702 46.0496 11.2294 46.1871 11.1849 46.3209C10.8546 47.2684 10.168 48.0971 9.20689 48.5802C9.16607 48.6062 9.11782 48.6285 9.0733 48.6434C8.09362 49.093 7.02484 49.1153 6.07851 48.7846C5.1322 48.4539 4.30462 47.7664 3.82219 46.804C3.79621 46.7594 3.77395 46.7148 3.7591 46.6702C3.31006 45.6892 3.2878 44.619 3.61808 43.6714C3.95579 42.7016 4.66463 41.858 5.66283 41.3786C6.66112 40.8955 7.75955 40.8658 8.7282 41.2039C9.69685 41.5421 10.5392 42.2519 11.018 43.2514C11.1479 43.5227 11.2481 43.8051 11.3111 44.0875H21.409V33.4443H13.857C13.356 33.4443 12.9478 33.0356 12.9478 32.5339V28.8699C12.8068 28.8364 12.6695 28.7956 12.5359 28.7472C11.5673 28.4091 10.7249 27.6993 10.2461 26.6998C9.7637 25.7001 9.73401 24.6002 10.0717 23.6303C10.4094 22.6604 11.1183 21.8169 12.1165 21.3375C13.1148 20.8544 14.2132 20.8246 15.1818 21.1628C16.1504 21.501 16.9928 22.2108 17.4716 23.2103C17.954 24.2099 17.9837 25.3098 17.646 26.2798C17.3083 27.2496 16.5995 28.0931 15.6013 28.5726C15.3304 28.7027 15.0483 28.803 14.7663 28.8662V31.6197H21.4091V25.7707C21.4091 25.7373 21.4128 25.7038 21.4128 25.6741C21.4499 24.314 22.1439 22.9911 23.5021 21.802C25.1572 20.3528 27.8775 19.0633 31.659 18.1603V11.7948H28.9091C28.8757 11.936 28.8349 12.0735 28.7866 12.2073C28.4489 13.1771 27.7401 14.0206 26.7419 14.5001H26.7382C25.7399 14.9795 24.6452 15.0092 23.6765 14.671C22.7302 14.3403 21.9026 13.6528 21.4202 12.6904C21.3942 12.6495 21.3719 12.6049 21.3571 12.5566C20.9081 11.5757 20.8858 10.5054 21.2161 9.55785C21.5464 8.61026 22.2329 7.78158 23.194 7.29851C23.2386 7.2725 23.2831 7.2502 23.3276 7.23534C24.3073 6.78569 25.3761 6.7634 26.3224 7.09412C27.291 7.43228 28.1334 8.14208 28.6122 9.14161C28.7421 9.41289 28.8423 9.6953 28.9054 9.97772H32.5645C33.0655 9.97772 33.4737 10.3865 33.4737 10.8881V17.7777C36.4611 17.2091 40.0052 16.8598 44.1055 16.8152V8.33894C43.9645 8.3055 43.8272 8.26462 43.6936 8.22003C42.725 7.88187 41.8826 7.17207 41.4038 6.17254C40.9214 5.17291 40.8917 4.07301 41.2294 3.10307C41.5671 2.13321 42.2759 1.28969 43.2741 0.810235C44.2724 0.327154 45.3709 0.297426 46.3395 0.635586C47.3081 0.973745 48.1505 1.68354 48.6293 2.68308C49.1117 3.6827 49.1414 4.7826 48.8037 5.75255C48.466 6.7224 47.7571 7.56592 46.7589 8.04538C46.488 8.17544 46.206 8.27578 45.924 8.33894V16.8114C50.0284 16.856 53.5725 17.2016 56.5558 17.7702V10.8881C56.5558 10.3864 56.964 9.97763 57.465 9.97763H61.1241C61.1575 9.83642 61.1946 9.69893 61.2429 9.56515C61.5806 8.5953 62.2894 7.75178 63.2876 7.27232C64.2859 6.78924 65.3843 6.75951 66.353 7.09767C67.3215 7.43583 68.1639 8.14563 68.6427 9.14516C69.1252 10.1448 69.1549 11.2447 68.8172 12.2146C68.4795 13.1845 67.7706 14.028 66.7724 14.5075H66.7687C65.7704 14.9868 64.6757 15.0166 63.707 14.6784C62.7385 14.3402 61.8961 13.6304 61.4173 12.6309V12.6272C61.2874 12.3559 61.1909 12.0772 61.1241 11.7948H58.3742V18.1566C62.1484 19.0559 64.8611 20.338 66.5052 21.7835C67.8708 22.98 68.5648 24.3179 68.5871 25.6854C68.5908 25.7151 68.5908 25.7448 68.5908 25.7745V31.6235H75.2336V28.87C74.9515 28.8031 74.6732 28.7065 74.3986 28.5764C73.4003 28.0933 72.6952 27.2535 72.3538 26.2836C72.0161 25.3137 72.0458 24.2137 72.5283 23.2141C73.007 22.2145 73.8494 21.5084 74.818 21.1666C75.7866 20.8285 76.8851 20.8582 77.8834 21.3413C78.8817 21.8244 79.5868 22.6642 79.9281 23.6341C80.2658 24.604 80.2362 25.704 79.7537 26.7036C79.2713 27.7032 78.4326 28.4093 77.464 28.7511C77.3267 28.7994 77.1893 28.8365 77.052 28.87V32.534C77.052 33.0357 76.6438 33.4444 76.1428 33.4444H68.5908V44.0905H78.6887C78.7555 43.8081 78.852 43.5294 78.9819 43.2544C79.4643 42.2547 80.303 41.5487 81.2717 41.2069C82.2402 40.8687 83.3387 40.8984 84.337 41.3815C85.3353 41.8609 86.0404 42.7044 86.3818 43.6744C86.7195 44.6442 86.6898 45.7442 86.2074 46.7438C85.7286 47.7435 84.8863 48.4495 83.9176 48.7913C82.949 49.1295 81.8505 49.0998 80.8522 48.6167C79.8539 48.1336 79.1488 47.2938 78.8075 46.3238C78.7592 46.1864 78.7221 46.0489 78.6887 45.9114L68.5908 45.9039V56.55H76.1428C76.6438 56.55 77.052 56.9587 77.052 57.4604V61.1244C77.3341 61.1913 77.6124 61.2879 77.887 61.418C78.8853 61.8974 79.5904 62.7409 79.9318 63.7108C80.2695 64.6807 80.2398 65.7807 79.7574 66.7803C79.2749 67.7799 78.4363 68.486 77.4676 68.8278C76.499 69.1659 75.4005 69.1362 74.4022 68.6531C73.4039 68.1738 72.6988 67.3303 72.3575 66.3603C72.0198 65.3905 72.0495 64.2905 72.5319 63.2908C73.0143 62.2912 73.853 61.5851 74.8217 61.2433C74.959 61.195 75.0963 61.1579 75.2336 61.1207V58.3672H68.5908V64.2162C68.5908 66.8694 65.8186 69.177 61.3394 70.7712C60.4153 71.0982 59.4171 71.3992 58.3557 71.6668V78.1958H61.1056C61.1724 77.9171 61.2689 77.6384 61.395 77.3672L61.3987 77.3597C61.8812 76.3601 62.7199 75.6541 63.6885 75.3123C64.6571 74.9741 65.7482 75.0038 66.7465 75.4832L66.7539 75.4869C67.7522 75.97 68.4573 76.8098 68.7987 77.7797C69.1364 78.7496 69.1067 79.8459 68.6279 80.8455L68.6242 80.8492C68.1418 81.8488 67.3031 82.5549 66.3345 82.8967C65.3659 83.2349 64.2711 83.2051 63.2728 82.7258L63.2691 82.7221C62.2708 82.239 61.5657 81.3992 61.2243 80.4292C61.1761 80.2917 61.139 80.1542 61.1056 80.0167H57.4464C56.9455 80.0167 56.5372 79.608 56.5372 79.1063V72.083C53.3828 72.7333 49.7608 73.1236 45.9054 73.1792V81.6555C46.1838 81.7224 46.4621 81.8153 46.733 81.9454L46.7404 81.9491C47.735 82.4322 48.4438 83.272 48.7815 84.2456L48.7814 84.2473ZM77.0971 63.0551C76.5515 62.7912 75.9467 62.7727 75.416 62.9585C74.8853 63.1443 74.4251 63.5344 74.1616 64.0807C73.8982 64.627 73.8833 65.2326 74.0652 65.764C74.2507 66.2954 74.6404 66.7563 75.1859 67.0201C75.7314 67.2839 76.3363 67.3025 76.867 67.1167C77.3977 66.9309 77.8579 66.5407 78.1213 65.9944C78.3848 65.4482 78.3997 64.8425 78.2178 64.3111C78.0323 63.7797 77.6463 63.3226 77.0971 63.0551ZM77.0971 22.9738C76.5515 22.71 75.9467 22.6914 75.416 22.8772C74.8853 23.063 74.4251 23.4532 74.1616 23.9995C73.8982 24.5457 73.8833 25.1514 74.0652 25.6828C74.2507 26.2142 74.6404 26.675 75.1859 26.9388C75.7314 27.2026 76.3363 27.2212 76.867 27.0354C77.3977 26.8496 77.8579 26.4594 78.1213 25.9132C78.3848 25.3669 78.3997 24.7649 78.2178 24.2298C78.0323 23.6984 77.6463 23.2376 77.0971 22.9738ZM83.5506 43.014C83.0051 42.7501 82.4002 42.7353 81.8695 42.9174C81.3389 43.1032 80.8787 43.4934 80.6152 44.0396C80.5261 44.2254 80.4668 44.4149 80.4297 44.6082C80.4853 44.7271 80.515 44.8571 80.515 44.9946C80.515 45.1321 80.4853 45.2659 80.4297 45.3811C80.4519 45.4963 80.4816 45.6115 80.5187 45.7193C80.7043 46.2507 81.0902 46.7115 81.6395 46.9753C82.185 47.2391 82.7862 47.254 83.3206 47.0719C83.8512 46.8861 84.3114 46.4959 84.5749 45.9496C84.8383 45.4034 84.8569 44.7977 84.6714 44.2663C84.4858 43.7386 84.0962 43.2778 83.5506 43.014ZM14.5765 62.9618C14.0458 62.776 13.4446 62.7946 12.8954 63.0585C12.3499 63.3223 11.9602 63.7831 11.7746 64.3145C11.5891 64.8459 11.6076 65.4479 11.8711 65.9978C12.1346 66.5441 12.5948 66.9342 13.1254 67.1201C13.6561 67.3059 14.2573 67.2873 14.8065 67.0234C15.352 66.7596 15.7417 66.2988 15.9273 65.7674C16.1128 65.236 16.0943 64.6341 15.8308 64.0841C15.5636 63.5378 15.1034 63.1477 14.5765 62.9618ZM14.5765 22.8806C14.0458 22.6948 13.4446 22.7134 12.8954 22.9772C12.3499 23.2411 11.9602 23.7018 11.7746 24.2332C11.5891 24.7646 11.6076 25.3666 11.8711 25.9166C12.1346 26.4628 12.5948 26.853 13.1254 27.0388C13.6561 27.2246 14.2573 27.206 14.8065 26.9422C15.352 26.6784 15.7417 26.2176 15.9273 25.6862C16.1128 25.1548 16.0943 24.5528 15.8308 24.0029C15.5636 23.4529 15.1034 23.0664 14.5765 22.8806ZM8.1229 42.9208C7.59222 42.735 6.99103 42.7535 6.44182 43.0174C5.89629 43.2812 5.50663 43.742 5.32107 44.2734C5.13552 44.8048 5.15407 45.4068 5.41385 45.953C5.67733 46.4993 6.1375 46.8894 6.66817 47.0752C7.19885 47.261 7.80004 47.2425 8.34555 46.9786H8.35297C8.8985 46.7148 9.28815 46.254 9.47372 45.7226C9.51083 45.6111 9.54052 45.4997 9.56279 45.3845C9.50712 45.2656 9.47743 45.1355 9.47743 44.998C9.47743 44.8605 9.50712 44.7267 9.56279 44.6078C9.52939 44.4146 9.4663 44.2251 9.37724 44.0393C9.11375 43.493 8.65357 43.1066 8.1229 42.9208ZM27.0713 11.6134C27.2568 11.082 27.2383 10.48 26.9748 9.93004C26.7113 9.38379 26.2511 8.9936 25.7205 8.80779C25.1898 8.62199 24.5886 8.64057 24.0431 8.90069C23.4976 9.16453 23.1079 9.62532 22.9223 10.1567C22.7368 10.6881 22.7553 11.2901 23.0188 11.84C23.2823 12.3863 23.7425 12.7765 24.2731 12.9623C24.8038 13.1481 25.405 13.1295 25.9542 12.8657C26.4997 12.6055 26.8894 12.1448 27.0713 11.6134ZM67.1027 11.6134C67.2883 11.082 67.2697 10.48 67.0062 9.93004C66.7428 9.38379 66.2826 8.9936 65.7519 8.80779C65.2212 8.62199 64.62 8.64057 64.0708 8.90441C63.5253 9.16824 63.1356 9.62903 62.9501 10.1604C62.7645 10.6918 62.7831 11.2938 63.0466 11.8437C63.31 12.39 63.7702 12.7802 64.3009 12.966C64.8316 13.1518 65.4328 13.1332 65.982 12.8694C66.5275 12.6055 66.9172 12.1448 67.1027 11.6134ZM47.0856 5.15488C47.2711 4.6235 47.2526 4.0215 46.9891 3.47155C46.7256 2.9253 46.2654 2.53511 45.7348 2.3493C45.2041 2.1635 44.6029 2.18208 44.0537 2.44592C43.5082 2.70975 43.1185 3.17054 42.9329 3.70192C42.7474 4.2333 42.7659 4.8353 43.0294 5.38525C43.2929 5.93151 43.7531 6.32169 44.2837 6.5075C44.3951 6.54466 44.5064 6.57439 44.6215 6.59669C44.7402 6.54095 44.8701 6.51122 45.0074 6.51122C45.1447 6.51122 45.2783 6.54095 45.3934 6.59669C45.5863 6.56324 45.7756 6.50007 45.9611 6.41089C46.5141 6.14705 46.9037 5.68626 47.0856 5.15488ZM57.8105 19.8744C57.7029 19.919 57.5841 19.9413 57.4616 19.9413C57.1981 19.9413 56.9643 19.8298 56.7974 19.6514C53.6206 19.0086 49.6944 18.6258 45.0113 18.6258C40.3131 18.6258 36.3719 19.016 33.1843 19.6664C33.021 19.8187 32.8021 19.9116 32.5646 19.9116C32.4644 19.9116 32.3642 19.893 32.2751 19.8633C28.7199 20.6846 26.1927 21.8513 24.6934 23.1669C23.7397 24.003 23.2498 24.8689 23.2201 25.7087C23.2201 25.731 23.2238 25.7496 23.2238 25.7719V25.9093C23.2683 26.7306 23.7582 27.5778 24.6897 28.3917C27.5918 30.9335 34.3458 32.9178 45.0185 32.9178C55.6436 32.9178 62.4012 30.9222 65.3102 28.3694C66.2417 27.5482 66.7315 26.7009 66.7798 25.8797V25.7682C66.7798 25.7459 66.7798 25.7199 66.7835 25.6976C66.7612 24.854 66.2751 23.9845 65.3213 23.1447C63.8258 21.8478 61.3285 20.6919 57.8105 19.8744ZM26.9601 80.0662C27.2236 79.5199 27.2384 78.9142 27.0566 78.3829C26.8785 77.87 26.5074 77.4204 25.9841 77.1528C25.9507 77.138 25.9173 77.1231 25.8839 77.1045C25.3495 76.863 24.7669 76.8518 24.2548 77.0339C23.7427 77.2123 23.2937 77.5839 23.0264 78.1078C23.0116 78.1413 22.9967 78.1747 22.9782 78.2082C22.7369 78.7433 22.7258 79.3267 22.9077 79.8395C23.0932 80.3708 23.4829 80.8317 24.0284 81.0955C24.5739 81.3593 25.1788 81.3779 25.7095 81.1921C26.2365 81.0026 26.6967 80.6124 26.9601 80.0662ZM53.6683 64.3364C52.388 64.5073 51.0075 64.6411 49.5231 64.7303C48.1203 64.8158 46.6099 64.8603 44.9919 64.8603C43.3739 64.8603 41.8634 64.8158 40.4607 64.7303C38.98 64.6411 37.5995 64.511 36.3192 64.3438C35.8219 64.2806 35.3691 64.63 35.3023 65.1242C35.2355 65.6221 35.5881 66.0755 36.0817 66.1424C37.4214 66.317 38.8464 66.4545 40.3531 66.5437C41.8338 66.6329 43.3813 66.6812 44.9919 66.6812C46.6025 66.6812 48.1463 66.6329 49.627 66.5437C51.1337 66.4508 52.5587 66.3133 53.8984 66.1387C54.3957 66.0755 54.7446 65.6184 54.6778 65.1205C54.6184 64.6225 54.1656 64.2732 53.6683 64.3364ZM53.6683 51.7354C52.388 51.9064 51.0075 52.0401 49.5231 52.1293C48.1203 52.2148 46.6099 52.2594 44.9919 52.2594C43.3739 52.2594 41.8634 52.2148 40.4607 52.133C38.98 52.0439 37.5995 51.9138 36.3192 51.7429C35.8219 51.6797 35.3691 52.029 35.3023 52.5232C35.2355 53.0212 35.5881 53.4745 36.0817 53.5414C37.4214 53.7161 38.8464 53.8535 40.3531 53.9427C41.8338 54.0319 43.3813 54.0802 44.9919 54.0802C46.6025 54.0802 48.1463 54.0319 49.627 53.9427C51.1337 53.8498 52.5587 53.7123 53.8984 53.534C54.3957 53.4708 54.7446 53.0137 54.6778 52.5158C54.6184 52.0216 54.1656 51.6723 53.6683 51.7354ZM53.6683 39.027C52.388 39.1979 51.0075 39.328 49.5231 39.4209C48.1203 39.5063 46.6099 39.5509 44.9919 39.5509C43.3739 39.5509 41.8634 39.5063 40.4607 39.4246C38.98 39.3354 37.5995 39.2053 36.3192 39.0344C35.8219 38.9712 35.3691 39.3205 35.3023 39.8148C35.2355 40.3127 35.5881 40.7661 36.0817 40.8329C37.4214 41.0076 38.8464 41.1451 40.3494 41.2343C41.8301 41.3235 43.3776 41.3718 44.9882 41.3718C46.5988 41.3718 48.1426 41.3235 49.6233 41.2343C51.13 41.1414 52.555 41.0039 53.8947 40.8292C54.392 40.7661 54.7409 40.309 54.6741 39.8111C54.6184 39.3131 54.1656 38.9638 53.6683 39.027ZM66.7721 54.9651C65.5178 56.1207 63.6549 57.139 61.3391 57.9602C57.1418 59.4503 51.36 60.3756 44.9957 60.3756C38.6314 60.3756 32.8495 59.4541 28.6523 57.9639C26.3329 57.1389 24.4737 56.1245 23.2193 54.9688V64.2255C23.2193 66.024 25.5276 67.7408 29.2572 69.0674C33.2689 70.4907 38.8316 71.3751 44.9954 71.3751C51.1592 71.3751 56.7226 70.4944 60.7336 69.0674C64.4633 67.7408 66.7716 66.024 66.7716 64.2255L66.7721 54.9651ZM66.7721 42.152C65.5178 43.3076 63.6549 44.3221 61.3391 45.1471C57.1418 46.6372 51.36 47.5588 44.9957 47.5588C38.6314 47.5588 32.8495 46.6373 28.6523 45.1471C26.3329 44.3221 24.4737 43.3076 23.2193 42.152V51.4049C23.2193 53.2035 25.5276 54.9203 29.2572 56.2469C33.2689 57.6701 38.8316 58.5546 44.9954 58.5546C51.1592 58.5546 56.7226 57.6739 60.7336 56.2469C64.4633 54.9203 66.7716 53.2035 66.7716 51.4049L66.7721 42.152ZM66.7721 38.5883V29.4878C66.6831 29.5733 66.5903 29.6587 66.4975 29.7405C63.2986 32.5461 56.1137 34.7422 45.0144 34.7422C33.8706 34.7422 26.6855 32.5572 23.4943 29.7627C23.4016 29.681 23.3088 29.5955 23.2234 29.5138V38.592C23.2234 40.3906 25.5317 42.1074 29.2614 43.434C33.2731 44.8572 38.8358 45.7417 44.9996 45.7417C51.1637 45.7417 56.7268 44.861 60.7378 43.434C64.4674 42.1074 66.772 40.3943 66.7757 38.5958L66.7721 38.5883Z" fill="url(#paint0_linear_479_110)"/>
<defs>
<linearGradient id="paint0_linear_479_110" x1="3.39335" y1="45.2149" x2="86.6087" y2="45.2149" gradientUnits="userSpaceOnUse">
<stop stop-color="#1685FF"/>
<stop offset="0.5" stop-color="#8B5CF6"/>
<stop offset="1" stop-color="#D946EF"/>
</linearGradient>
</defs>
</svg>
