<svg width="90" height="90" viewBox="0 0 90 90" fill="none" xmlns="http://www.w3.org/2000/svg">
<path fill-rule="evenodd" clip-rule="evenodd" d="M28.9098 30.4788L36.4018 39.8098V16.7548H33.2018V29.2908C33.2015 29.6054 33.0763 29.9071 32.8537 30.1295C32.6312 30.3519 32.3294 30.4768 32.0148 30.4768L28.9098 30.4788ZM51.5428 28.2658L44.0508 18.9358V41.9908H47.2508V29.4528C47.2508 29.1381 47.3757 28.8364 47.5981 28.6138C47.8205 28.3912 48.1221 28.266 48.4368 28.2658H51.5428ZM18.1118 71.0768V78.9708C18.1118 81.1648 20.4418 83.2458 24.2118 84.8358C33.0068 88.5478 47.4518 88.5478 56.2468 84.8358C60.0138 83.2458 62.3468 81.1648 62.3468 78.9708V71.0768C60.8234 72.4421 59.0695 73.5256 57.1668 74.2768C47.7668 78.2458 32.7018 78.2458 23.2978 74.2768C21.3952 73.5254 19.6412 72.4419 18.1178 71.0768H18.1118ZM18.1118 58.3428C19.6355 59.7075 21.3894 60.791 23.2918 61.5428C32.6918 65.5118 47.7568 65.5118 57.1608 61.5428C59.0633 60.7912 60.8172 59.7077 62.3408 58.3428V66.2368C62.3408 68.4308 60.0108 70.5118 56.2408 72.1018C47.4408 75.8138 33.0008 75.8138 24.2058 72.1018C20.4388 70.5118 18.1058 68.4308 18.1058 66.2368V58.3428H18.1118ZM18.1118 45.6088V53.5018C18.1118 55.7018 20.4418 57.7778 24.2118 59.3678C33.0068 63.0788 47.4518 63.0788 56.2468 59.3678C60.0138 57.7788 62.3468 55.6978 62.3468 53.5028V45.6088C60.8232 46.9738 59.0693 48.0572 57.1668 48.8088C47.7668 52.7788 32.7018 52.7788 23.2978 48.8088C21.3954 48.057 19.6415 46.9735 18.1178 45.6088H18.1118ZM55.0818 55.4378C54.9334 55.4909 54.776 55.5138 54.6187 55.5051C54.4614 55.4965 54.3074 55.4564 54.1658 55.3874C54.0242 55.3183 53.8979 55.2216 53.7942 55.1029C53.6906 54.9843 53.6117 54.8461 53.5622 54.6965C53.5128 54.547 53.4938 54.389 53.5063 54.2319C53.5189 54.0749 53.5627 53.9219 53.6352 53.7821C53.7078 53.6422 53.8076 53.5183 53.9287 53.4176C54.0499 53.3169 54.19 53.2415 54.3408 53.1958L56.5548 52.4568C56.702 52.4081 56.8575 52.389 57.0121 52.4004C57.1668 52.4118 57.3178 52.4535 57.4563 52.5233C57.5948 52.593 57.7183 52.6894 57.8196 52.8068C57.9209 52.9242 57.9981 53.0605 58.0468 53.2078C58.0954 53.3551 58.1146 53.5105 58.1032 53.6652C58.0918 53.8198 58.05 53.9708 57.9803 54.1093C57.9105 54.2479 57.8142 54.3713 57.6967 54.4726C57.5793 54.5739 57.443 54.6511 57.2958 54.6998L55.0818 55.4378ZM55.0818 68.5278L57.2958 67.7898C57.443 67.7411 57.5793 67.6639 57.6967 67.5626C57.8142 67.4613 57.9105 67.3379 57.9803 67.1993C58.05 67.0608 58.0918 66.9098 58.1032 66.7552C58.1146 66.6005 58.0954 66.4451 58.0468 66.2978C57.9981 66.1505 57.9209 66.0142 57.8196 65.8968C57.7183 65.7793 57.5948 65.683 57.4563 65.6133C57.3178 65.5435 57.1668 65.5018 57.0121 65.4904C56.8575 65.479 56.702 65.4981 56.5548 65.5468L54.3408 66.2848C54.1935 66.3334 54.0572 66.4106 53.9398 66.5119C53.8223 66.6132 53.726 66.7367 53.6563 66.8752C53.5865 67.0138 53.5448 67.1647 53.5333 67.3194C53.5219 67.4741 53.5411 67.6295 53.5898 67.7768C53.6384 67.9241 53.7156 68.0603 53.8169 68.1777C53.9182 68.2952 54.0417 68.3915 54.1802 68.4613C54.3188 68.531 54.4697 68.5728 54.6244 68.5842C54.7791 68.5956 54.9345 68.5764 55.0818 68.5278ZM55.0818 81.0478C54.9334 81.1009 54.776 81.1238 54.6187 81.1151C54.4614 81.1065 54.3074 81.0664 54.1658 80.9974C54.0242 80.9283 53.8979 80.8316 53.7942 80.7129C53.6906 80.5943 53.6117 80.4561 53.5622 80.3065C53.5128 80.1569 53.4938 79.999 53.5063 79.8419C53.5189 79.6849 53.5627 79.5319 53.6352 79.3921C53.7078 79.2522 53.8076 79.1283 53.9287 79.0276C54.0499 78.9269 54.19 78.8515 54.3408 78.8058L56.5548 78.0668C56.702 78.0181 56.8575 77.999 57.0121 78.0104C57.1668 78.0218 57.3178 78.0635 57.4563 78.1333C57.5948 78.203 57.7183 78.2994 57.8196 78.4168C57.9209 78.5342 57.9981 78.6705 58.0468 78.8178C58.0954 78.9651 58.1146 79.1205 58.1032 79.2752C58.0918 79.4298 58.05 79.5808 57.9803 79.7193C57.9105 79.8579 57.8142 79.9813 57.6967 80.0826C57.5793 80.1839 57.443 80.2611 57.2958 80.3098L55.0818 81.0478ZM64.4488 39.0838C62.8998 34.2308 55.3858 31.6608 50.0268 30.6388H54.0128C54.2352 30.637 54.4526 30.5727 54.6403 30.4535C54.828 30.3342 54.9784 30.1646 55.0745 29.964C55.1705 29.7634 55.2084 29.5399 55.1837 29.3189C55.159 29.0979 55.0727 28.8882 54.9348 28.7138L43.8408 14.8908C43.6968 14.6828 43.4902 14.5262 43.251 14.4439C43.0118 14.3616 42.7526 14.3579 42.5112 14.4332C42.2697 14.5086 42.0586 14.6591 41.9087 14.8628C41.7588 15.0665 41.6779 15.3128 41.6778 15.5658V29.7658H38.7728V15.5658C38.7729 15.4099 38.7423 15.2556 38.6828 15.1116C38.6232 14.9676 38.5359 14.8367 38.4257 14.7265C38.3156 14.6163 38.1848 14.5288 38.0409 14.4692C37.8969 14.4095 37.7426 14.3788 37.5868 14.3788H32.0138C31.8579 14.3788 31.7036 14.4095 31.5597 14.4692C31.4157 14.5288 31.2849 14.6163 31.1748 14.7265C31.0646 14.8367 30.9773 14.9676 30.9178 15.1116C30.8582 15.2556 30.8276 15.4099 30.8278 15.5658V28.1068H26.4398C26.2174 28.1084 25.9999 28.1724 25.8122 28.2916C25.6244 28.4107 25.4739 28.5802 25.3778 28.7808C25.2817 28.9813 25.2438 29.2048 25.2686 29.4258C25.2933 29.6468 25.3797 29.8565 25.5178 30.0308L26.7108 31.5168C22.4878 32.7448 17.2558 35.1588 16.0048 39.0808H9.59076C7.67696 39.0808 5.84154 38.3205 4.48828 36.9673C3.13502 35.614 2.37476 33.7786 2.37476 31.8648C2.37476 29.951 3.13502 28.1156 4.48828 26.7623C5.84154 25.409 7.67696 24.6488 9.59076 24.6488H10.0818C10.2692 24.6491 10.454 24.6049 10.621 24.5199C10.7881 24.4349 10.9326 24.3116 11.0427 24.1599C11.1528 24.0082 11.2253 23.8326 11.2544 23.6474C11.2834 23.4623 11.2681 23.2729 11.2098 23.0948C10.5698 20.669 10.7145 18.1028 11.623 15.7643C12.5315 13.4257 14.1572 11.4349 16.2669 10.0773C18.3767 8.71977 20.8622 8.06513 23.367 8.20731C25.8717 8.34949 28.2672 9.28118 30.2098 10.8688C30.3636 10.9958 30.5471 11.0818 30.7431 11.1189C30.9392 11.156 31.1414 11.1429 31.331 11.0808C31.5206 11.0187 31.6914 10.9097 31.8276 10.7639C31.9637 10.6181 32.0608 10.4402 32.1098 10.2468C32.9672 7.84629 34.5738 5.78514 36.6923 4.36765C38.8109 2.95017 41.3291 2.25149 43.8751 2.37479C46.4211 2.49808 48.8601 3.43681 50.8317 5.05237C52.8034 6.66793 54.2033 8.87467 54.8248 11.3468C54.8755 11.5553 54.9819 11.746 55.1328 11.8986C55.2837 12.0512 55.4732 12.1598 55.6812 12.2128C55.8891 12.2659 56.1075 12.2613 56.313 12.1996C56.5185 12.138 56.7034 12.0215 56.8478 11.8628C58.708 10.1314 61.0743 9.04204 63.5993 8.75466C66.1243 8.46729 68.6749 8.99703 70.8766 10.2661C73.0784 11.5352 74.8152 13.4767 75.8321 15.8057C76.8491 18.1346 77.0925 20.7283 76.5268 23.2058C76.4883 23.3788 76.4892 23.5582 76.5293 23.7308C76.5693 23.9034 76.6476 24.0648 76.7584 24.2032C76.8691 24.3416 77.0094 24.4533 77.1691 24.5303C77.3287 24.6072 77.5036 24.6474 77.6808 24.6478H79.5548C81.4686 24.6478 83.304 25.408 84.6572 26.7613C86.0105 28.1146 86.7708 29.95 86.7708 31.8638C86.7708 33.7776 86.0105 35.613 84.6572 36.9663C83.304 38.3195 81.4686 39.0798 79.5548 39.0798L64.4488 39.0838ZM15.7398 41.4568H9.59076C7.1305 41.4572 4.76419 40.512 2.9813 38.8167C1.19841 37.1213 0.13537 34.8055 0.0120616 32.3484C-0.111247 29.8912 0.714616 27.4806 2.31882 25.6153C3.92302 23.75 6.18282 22.5726 8.63076 22.3268C8.19312 19.606 8.55405 16.8167 9.66981 14.2969C10.7856 11.7772 12.6082 9.63514 14.9169 8.13045C17.2256 6.62576 19.9212 5.82302 22.6769 5.81953C25.4327 5.81604 28.1303 6.61194 30.4428 8.11078C31.6389 5.60465 33.5413 3.50269 35.9161 2.06333C38.291 0.623973 41.0346 -0.090039 43.8098 0.00908214C46.585 0.108203 49.2707 1.01614 51.5368 2.62125C53.8028 4.22637 55.5505 6.4587 56.5648 9.04378C58.8076 7.40973 61.479 6.46656 64.2506 6.33015C67.0222 6.19375 69.7733 6.87006 72.1657 8.27598C74.5582 9.68189 76.4877 11.7562 77.7173 14.2438C78.9469 16.7315 79.4229 19.5242 79.0868 22.2788H79.5548C82.0979 22.2788 84.5369 23.289 86.3352 25.0873C88.1335 26.8856 89.1438 29.3246 89.1438 31.8678C89.1438 34.4109 88.1335 36.8499 86.3352 38.6482C84.5369 40.4465 82.0979 41.4568 79.5548 41.4568H64.7128V78.9708C64.7128 82.2078 61.8268 85.0448 57.1608 87.0138C47.7608 90.9828 32.6958 90.9828 23.2918 87.0138C18.6258 85.0448 15.7398 82.2078 15.7398 78.9708V41.4568ZM24.2088 46.6328C19.1628 44.5038 15.3658 40.6908 20.7798 36.7758C23.0806 35.2506 25.6375 34.1524 28.3278 33.5338L36.6128 43.8508C36.7568 44.0582 36.9633 44.2144 37.2022 44.2964C37.4411 44.3784 37.6999 44.3822 37.941 44.307C38.1822 44.2318 38.393 44.0817 38.543 43.8784C38.6929 43.6751 38.7741 43.4294 38.7748 43.1768V32.1348H41.6748V43.1768C41.6748 43.3326 41.7055 43.4869 41.7651 43.6309C41.8248 43.7748 41.9123 43.9056 42.0225 44.0158C42.1327 44.1259 42.2636 44.2132 42.4076 44.2728C42.5516 44.3323 42.7059 44.3629 42.8618 44.3628H48.4358C48.7503 44.3628 49.052 44.2378 49.2744 44.0154C49.4968 43.793 49.6218 43.4913 49.6218 43.1768V32.9698C52.8391 33.5034 55.9391 34.593 58.7828 36.1898C65.1648 40.0838 62.1038 44.1578 56.2408 46.6328C47.4488 50.3448 33.0038 50.3448 24.2088 46.6328Z" fill="url(#paint0_linear_1329_14)"/>
<defs>
<linearGradient id="paint0_linear_1329_14" x1="0.000243155" y1="45.212" x2="89.1457" y2="45.212" gradientUnits="userSpaceOnUse">
<stop stop-color="#1685FF"/>
<stop offset="0.5" stop-color="#8B5CF6"/>
<stop offset="1" stop-color="#D946EF"/>
</linearGradient>
</defs>
</svg>
