<?xml version="1.0" encoding="UTF-8" standalone="no"?><!DOCTYPE svg PUBLIC "-//W3C//DTD SVG 1.1//EN" "http://www.w3.org/Graphics/SVG/1.1/DTD/svg11.dtd"><svg width="100%" height="100%" viewBox="0 0 200 200" version="1.1" xmlns="http://www.w3.org/2000/svg" xmlns:xlink="http://www.w3.org/1999/xlink" xml:space="preserve" xmlns:serif="http://www.serif.com/" style="fill-rule:evenodd;clip-rule:evenodd;stroke-linejoin:round;stroke-miterlimit:2;"><g id="Layer8"><path d="M140.136,76.101c0.403,0.028 0.806,0.041 1.209,0.041c9.694,0 17.671,-7.977 17.671,-17.671c0,-9.623 -7.859,-17.567 -17.481,-17.671c-33.712,-1.292 -50.027,-3.835 -82.044,-18.244l-2.797,66.089c35.365,-12.163 52.337,-14.599 83.442,-12.544Zm-80.412,-58.799c30.703,14.154 49.265,17.523 81.917,18.667c12.194,0.213 22.11,10.303 22.11,22.499c0,12.345 -10.158,22.503 -22.503,22.503c-0.441,0 -0.883,-0.013 -1.323,-0.039l-1.399,0l-1.992,13.519c3.73,1.271 7.268,2.5 10.807,3.856c3.538,1.356 7.755,3.094 11.993,5.022l19.07,-4.238c0.227,-0.069 0.464,-0.104 0.702,-0.104c1.197,0 2.223,0.89 2.391,2.075l8.306,28.605c0.142,0.311 0.215,0.649 0.215,0.99c0,1.084 -0.735,2.038 -1.782,2.315c-7.262,2.012 -14.723,3.22 -22.249,3.602c-3.43,0.209 -6.798,1.004 -9.959,2.352c-5.125,2.283 -10.832,2.927 -16.336,1.844l-9.853,0.233c-1.039,22.481 -29.665,18.667 -25.936,-1.293c-5.043,0.424 -10.255,-1.949 -11.399,-6.356c-0.105,-0.41 -0.169,-0.828 -0.191,-1.25c-4.471,-1.484 -5.573,-10.129 -6.23,-14.197c-0.657,-4.068 -1.843,-11.082 2.352,-13.879c6.813,-4.769 14.483,-8.18 22.588,-10.043l2.119,-14.028c-11.506,-0.402 -45.133,9.493 -56.702,13.9l-0.17,4.005c-0.402,9.535 -14.832,8.963 -14.514,-0.593l1.123,-26.55c-5.573,-2.712 -8.158,-9.705 -7.904,-16.019c0.255,-6.314 3.454,-13.074 9.26,-15.425l1.144,-26.805c0.403,-9.556 14.833,-8.941 14.515,0.615l-0.17,4.238l0,-0.021Zm-4.661,-4.408c-0.002,-1.335 -1.101,-2.434 -2.437,-2.434c-1.216,0 -2.256,0.911 -2.416,2.116c-1.214,28.252 -2.415,56.554 -3.602,84.905c0.002,1.335 1.101,2.434 2.437,2.434c1.216,0 2.256,-0.911 2.416,-2.116l3.602,-84.905Zm-11.93,52.146l0.848,-20.023c-5.17,4.449 -5.615,15.15 -0.848,20.023Zm95.351,97.47c0.442,-0.382 1.008,-0.593 1.592,-0.593c0.729,0 1.42,0.327 1.883,0.889l2.691,3.306l5.615,-14.832l-15.68,2.648l1.229,1.505c0.347,0.432 0.537,0.971 0.537,1.525c0,0.779 -0.374,1.513 -1.003,1.971l-17.354,13.73c-1.017,0.89 -1.886,1.801 -3.39,1.123c-1.272,-0.585 -2.703,-0.734 -4.069,-0.424c-0.846,0.232 -1.755,-0.012 -2.373,-0.635l-8.115,-8.2c-0.932,-0.954 -0.657,-1.78 -0.657,-2.776c-0.009,-3.551 -2.933,-6.468 -6.484,-6.468c-1.715,0 -3.362,0.68 -4.577,1.891c-1.531,1.546 -2.199,3.755 -1.779,5.891c0.216,0.823 -0.018,1.702 -0.615,2.309l-12.968,13.01c-0.717,0.719 -1.818,0.907 -2.733,0.466c-1.428,-0.487 -2.979,-0.487 -4.407,0c-0.818,0.304 -1.74,0.132 -2.395,-0.445c-3.814,-3.072 -17.459,-13.878 -20.235,-16.357c-0.982,-0.426 -1.565,-1.461 -1.42,-2.522c0.038,-0.286 0.058,-0.575 0.058,-0.863c0,-3.569 -2.937,-6.505 -6.505,-6.505c-3.569,0 -6.505,2.936 -6.505,6.505c0,3.568 2.936,6.505 6.505,6.505c0.753,0 1.501,-0.131 2.209,-0.387c1.018,-0.342 2.147,0.02 2.776,0.89l20.278,16.57c1.187,0.89 1.017,1.695 1.017,2.733c0.009,3.551 2.933,6.468 6.484,6.468c1.715,0 3.362,-0.68 4.577,-1.891c1.241,-1.257 1.928,-2.959 1.907,-4.725c-0.088,-0.736 0.17,-1.473 0.699,-1.992l14.006,-14.07c1.038,-1.059 2.119,-0.635 2.924,-0.55c0.838,0.086 1.685,0.022 2.5,-0.191c0.9,-0.375 1.943,-0.165 2.628,0.53l7.564,7.564c0.628,0.615 0.866,1.531 0.615,2.373c-0.784,10.34 13.264,9.472 12.904,1.038c-0.127,-1.843 1.08,-2.118 1.928,-2.775c5.318,-3.963 12.713,-10.001 18.074,-14.26l0.064,0.021Zm-7.904,-5.997l-15.489,12.247c-1.423,-0.411 -2.913,-0.541 -4.386,-0.381l-6.357,-6.357c0.002,-0.074 0.002,-0.149 0.002,-0.224c0,-6.219 -5.117,-11.336 -11.336,-11.336c-6.218,0 -11.336,5.117 -11.336,11.336c0,0.394 0.021,0.787 0.062,1.178l-11.082,11.082c-1.646,-0.371 -3.355,-0.371 -5.001,0l-18.879,-15.341c-0.051,-6.183 -5.152,-11.243 -11.336,-11.243c-6.219,0 -11.336,5.117 -11.336,11.336c0,6.219 5.117,11.336 11.336,11.336c0.747,0 1.492,-0.074 2.224,-0.22l19.071,15.574c0.206,6.07 5.256,10.951 11.329,10.951c6.002,0 11.017,-4.767 11.322,-10.761l12.459,-12.692c0.997,0.148 2.011,0.148 3.009,0l5.763,5.785c-0.004,0.129 -0.007,0.259 -0.007,0.389c0,6.219 5.118,11.336 11.336,11.336c5.656,0 10.49,-4.233 11.237,-9.839c5.276,-3.92 11.273,-8.878 16.443,-12.968l3.835,4.725c0.455,0.617 1.177,0.981 1.944,0.981c1.04,0 1.968,-0.671 2.294,-1.659l8.603,-22.63c0.103,-0.273 0.157,-0.564 0.157,-0.856c0,-1.326 -1.091,-2.416 -2.416,-2.416c-0.167,0 -0.333,0.017 -0.496,0.052l-23.859,3.792c-1.169,0.196 -2.034,1.218 -2.034,2.404c0,0.55 0.187,1.085 0.53,1.516l2.331,2.84l0.063,0.063Zm-10.594,-88.379c-0.076,0.007 -0.151,0.011 -0.227,0.011c-1.337,0 -2.437,-1.1 -2.437,-2.437c0,-1.337 1.1,-2.437 2.437,-2.437c0.076,0 0.151,0.004 0.227,0.011l16.548,0c1.246,0.116 2.21,1.174 2.21,2.426c0,1.251 -0.964,2.309 -2.21,2.426l-16.548,0Zm2.966,-7.734c-1.246,-0.117 -2.21,-1.175 -2.21,-2.426c0,-1.252 0.964,-2.31 2.21,-2.426l16.549,0c1.246,0.116 2.21,1.174 2.21,2.426c0,1.251 -0.964,2.309 -2.21,2.426l-16.549,0Zm2.967,-7.755c-1.246,-0.117 -2.21,-1.175 -2.21,-2.426c0,-1.252 0.964,-2.31 2.21,-2.427l16.548,0c1.246,0.117 2.21,1.175 2.21,2.427c0,1.251 -0.964,2.309 -2.21,2.426l-16.548,0Zm-0.933,88.57c-6.017,0.127 -11.526,-2.945 -15.934,-2.522c-4.238,15.087 15.32,16.422 15.934,2.522Zm45.663,-35.534l7.119,24.621c2.119,-0.381 4.238,-0.868 6.781,-1.483l-7.183,-24.664l-6.717,1.526Zm2.309,25.427l-7.035,-24.347l-6.356,1.441c-0.545,0.123 -1.116,0.048 -1.611,-0.212c-4.237,-1.97 -8.306,-3.644 -12.395,-5.191c-3.2,-1.229 -6.357,-2.373 -9.789,-3.517l-2.119,13.667c1.144,3.157 2.119,6.462 3.03,9.683c0.067,0.227 0.102,0.462 0.102,0.699c0,1.168 -0.84,2.18 -1.988,2.395c-5.281,1.082 -10.712,1.218 -16.04,0.402c-5.255,-0.551 -18.435,-0.911 -21.443,4.535c-1.441,2.585 3.114,5.551 8.729,3.665c6.505,-2.119 13.455,2.713 19.939,1.929c1.187,0 14.133,-0.276 14.133,-0.297c12.142,1.992 13.9,-3.623 25.427,-4.238c1.992,0 4.365,-0.275 7.226,-0.657l0.19,0.043Zm-45.365,-9.324c-5.637,0.17 -10.341,-1.038 -15.744,-0.932l6.209,-40.683l15.595,0.551l-6.06,41.064Zm-20.723,-0.444l1.335,-8.773c-2.479,1.123 -4.386,2.649 -6.675,3.835c-0.098,2.183 -0.389,4.353 -0.869,6.484c2.016,-0.712 4.095,-1.23 6.209,-1.546Zm2.119,-14.324l1.186,-7.777c-6.832,1.787 -13.29,4.78 -19.07,8.836c-1.843,1.229 -0.487,7.48 0,10.383c2.267,15.298 5.319,6.123 5.658,-2.776c0,-1.059 0.89,-2.288 2.627,-3.539c0,0 8.836,-4.831 9.705,-5.127l-0.106,0Zm-77.594,-44.815l-12.417,6.505c-1.047,0.286 -1.778,1.245 -1.778,2.33c0,1.325 1.09,2.416 2.415,2.416c0.537,0 1.058,-0.179 1.482,-0.508l12.438,-6.505c0.931,-0.358 1.548,-1.257 1.548,-2.255c0,-1.325 -1.09,-2.415 -2.415,-2.415c-0.493,0 -0.975,0.151 -1.379,0.432l0.106,0Zm3.75,-20.299l-11.845,-7.501c-0.386,-0.244 -0.835,-0.374 -1.292,-0.374c-1.327,0 -2.419,1.092 -2.419,2.419c0,0.829 0.426,1.602 1.126,2.045l11.845,7.522c0.423,0.318 0.938,0.491 1.467,0.491c1.337,0 2.437,-1.1 2.437,-2.437c0,-0.91 -0.51,-1.747 -1.319,-2.165Zm-4.598,9.641c1.324,0.068 2.367,1.196 2.331,2.521c-0.011,1.318 -1.098,2.397 -2.416,2.397c-0.035,0 -0.07,-0.001 -0.106,-0.002l-14.006,-0.572c-1.293,-0.045 -2.332,-1.121 -2.332,-2.414c0,-0.029 0.001,-0.058 0.002,-0.087c0.068,-1.324 1.196,-2.366 2.521,-2.33l14.006,0.487Z" style="fill:url(#_Linear1);"/></g><defs><linearGradient id="_Linear1" x1="0" y1="0" x2="1" y2="0" gradientUnits="userSpaceOnUse" gradientTransform="matrix(105.562,184.864,-184.864,105.562,30.3677,7.96433)"><stop offset="0" style="stop-color:#4d7aff;stop-opacity:1"/><stop offset="1" style="stop-color:#d748f0;stop-opacity:1"/></linearGradient></defs></svg>