<svg width="75" height="75" viewBox="0 0 75 75" fill="none" xmlns="http://www.w3.org/2000/svg">
<path d="M60.7098 16.8553V5.73906C60.7098 4.44314 60.195 3.2003 59.2787 2.28394C58.3623 1.36759 57.1195 0.852783 55.8235 0.852783L19.1765 0.852783C17.8805 0.852783 16.6377 1.36759 15.7213 2.28394C14.805 3.2003 14.2902 4.44314 14.2902 5.73906V16.8553C12.9115 17.1389 11.6728 17.889 10.7827 18.9793C9.89264 20.0697 9.40568 21.4335 9.4039 22.841V52.1587C9.40568 53.5662 9.89264 54.9301 10.7827 56.0204C11.6728 57.1107 12.9115 57.8609 14.2902 58.1444V69.2607C14.2902 70.5566 14.805 71.7994 15.7213 72.7158C16.6377 73.6322 17.8805 74.147 19.1765 74.147H55.8235C57.1195 74.147 58.3623 73.6322 59.2787 72.7158C60.195 71.7994 60.7098 70.5566 60.7098 69.2607V58.1444C62.0885 57.8609 63.3272 57.1107 64.2173 56.0204C65.1074 54.9301 65.5943 53.5662 65.5961 52.1587V22.841C65.5943 21.4335 65.1074 20.0697 64.2173 18.9793C63.3272 17.889 62.0885 17.1389 60.7098 16.8553ZM16.7333 16.7332V13.0685H58.2667V16.7332H16.7333ZM19.1765 3.29592H55.8235C56.4715 3.29592 57.0929 3.55332 57.5511 4.0115C58.0093 4.46968 58.2667 5.0911 58.2667 5.73906V10.6253H16.7333V5.73906C16.7333 5.0911 16.9907 4.46968 17.4489 4.0115C17.9071 3.55332 18.5285 3.29592 19.1765 3.29592ZM58.2667 58.2666V61.9313H16.7333V58.2666H58.2667ZM55.8235 71.7038H19.1765C18.5285 71.7038 17.9071 71.4464 17.4489 70.9882C16.9907 70.5301 16.7333 69.9086 16.7333 69.2607V64.3744H58.2667V69.2607C58.2667 69.9086 58.0093 70.5301 57.5511 70.9882C57.0929 71.4464 56.4715 71.7038 55.8235 71.7038ZM63.153 52.1587C63.153 53.1306 62.7669 54.0628 62.0796 54.75C61.3923 55.4373 60.4602 55.8234 59.4883 55.8234H15.5117C14.5398 55.8234 13.6077 55.4373 12.9204 54.75C12.2331 54.0628 11.847 53.1306 11.847 52.1587V22.841C11.847 21.8691 12.2331 20.937 12.9204 20.2497C13.6077 19.5624 14.5398 19.1763 15.5117 19.1763H59.4883C60.4602 19.1763 61.3923 19.5624 62.0796 20.2497C62.7669 20.937 63.153 21.8691 63.153 22.841V52.1587Z" fill="url(#paint0_linear_358_1277)"/>
<path d="M42.3863 8.18215H43.6078C43.9318 8.18215 44.2425 8.05345 44.4716 7.82436C44.7007 7.59527 44.8294 7.28456 44.8294 6.96058C44.8294 6.6366 44.7007 6.32589 44.4716 6.0968C44.2425 5.86771 43.9318 5.73901 43.6078 5.73901H42.3863C42.0623 5.73901 41.7516 5.86771 41.5225 6.0968C41.2934 6.32589 41.1647 6.6366 41.1647 6.96058C41.1647 7.28456 41.2934 7.59527 41.5225 7.82436C41.7516 8.05345 42.0623 8.18215 42.3863 8.18215Z" fill="url(#paint1_linear_358_1277)"/>
<path d="M31.3922 8.18215H37.5C37.824 8.18215 38.1347 8.05345 38.3638 7.82436C38.5929 7.59527 38.7216 7.28456 38.7216 6.96058C38.7216 6.6366 38.5929 6.32589 38.3638 6.0968C38.1347 5.86771 37.824 5.73901 37.5 5.73901H31.3922C31.0682 5.73901 30.7575 5.86771 30.5284 6.0968C30.2993 6.32589 30.1706 6.6366 30.1706 6.96058C30.1706 7.28456 30.2993 7.59527 30.5284 7.82436C30.7575 8.05345 31.0682 8.18215 31.3922 8.18215Z" fill="url(#paint2_linear_358_1277)"/>
<path d="M38.7216 66.8176H36.2784C35.9544 66.8176 35.6437 66.9463 35.4146 67.1754C35.1856 67.4045 35.0569 67.7152 35.0569 68.0392C35.0569 68.3632 35.1856 68.6739 35.4146 68.903C35.6437 69.1321 35.9544 69.2608 36.2784 69.2608H38.7216C39.0455 69.2608 39.3563 69.1321 39.5853 68.903C39.8144 68.6739 39.9431 68.3632 39.9431 68.0392C39.9431 67.7152 39.8144 67.4045 39.5853 67.1754C39.3563 66.9463 39.0455 66.8176 38.7216 66.8176Z" fill="url(#paint3_linear_358_1277)"/>
<path d="M55.0686 25.3782C54.9208 25.3163 54.7622 25.2843 54.602 25.2842H47.2725C46.9486 25.2842 46.6379 25.4129 46.4088 25.642C46.1797 25.8711 46.051 26.1818 46.051 26.5057C46.051 26.8297 46.1797 27.1404 46.4088 27.3695C46.6379 27.5986 46.9486 27.7273 47.2725 27.7273H51.6531L38.7216 40.6589L34.341 36.2783C33.8829 35.8203 33.2615 35.563 32.6137 35.563C31.9659 35.563 31.3446 35.8203 30.8864 36.2783L19.5344 47.6304C19.4177 47.743 19.3246 47.8778 19.2606 48.0269C19.1966 48.1759 19.1629 48.3362 19.1615 48.4984C19.1601 48.6606 19.191 48.8215 19.2524 48.9716C19.3138 49.1217 19.4045 49.2581 19.5192 49.3728C19.6339 49.4875 19.7703 49.5782 19.9204 49.6396C20.0706 49.701 20.2314 49.7319 20.3936 49.7305C20.5558 49.7291 20.7161 49.6954 20.8652 49.6314C21.0142 49.5674 21.149 49.4743 21.2617 49.3577L32.6137 38.0056L36.9943 42.3862C37.4524 42.8442 38.0737 43.1015 38.7216 43.1015C39.3694 43.1015 39.9907 42.8442 40.4489 42.3862L53.3804 29.4546V33.8352C53.3804 34.1591 53.5091 34.4699 53.7382 34.6989C53.9673 34.928 54.278 35.0567 54.602 35.0567C54.9259 35.0567 55.2367 34.928 55.4657 34.6989C55.6948 34.4699 55.8235 34.1591 55.8235 33.8352V26.5057C55.8233 26.2642 55.7514 26.0282 55.617 25.8275C55.4826 25.6269 55.2918 25.4705 55.0686 25.3782Z" fill="url(#paint4_linear_358_1277)"/>
<defs>
<linearGradient id="paint0_linear_358_1277" x1="9.40405" y1="37.6764" x2="65.5973" y2="37.6764" gradientUnits="userSpaceOnUse">
<stop stop-color="#1685FF"/>
<stop offset="0.5" stop-color="#8B5CF6"/>
<stop offset="1" stop-color="#D946EF"/>
</linearGradient>
<linearGradient id="paint1_linear_358_1277" x1="41.1647" y1="6.96647" x2="44.8295" y2="6.96647" gradientUnits="userSpaceOnUse">
<stop stop-color="#1685FF"/>
<stop offset="0.5" stop-color="#8B5CF6"/>
<stop offset="1" stop-color="#D946EF"/>
</linearGradient>
<linearGradient id="paint2_linear_358_1277" x1="30.1706" y1="6.96647" x2="38.7218" y2="6.96647" gradientUnits="userSpaceOnUse">
<stop stop-color="#1685FF"/>
<stop offset="0.5" stop-color="#8B5CF6"/>
<stop offset="1" stop-color="#D946EF"/>
</linearGradient>
<linearGradient id="paint3_linear_358_1277" x1="35.0569" y1="68.0451" x2="39.9432" y2="68.0451" gradientUnits="userSpaceOnUse">
<stop stop-color="#1685FF"/>
<stop offset="0.5" stop-color="#8B5CF6"/>
<stop offset="1" stop-color="#D946EF"/>
</linearGradient>
<linearGradient id="paint4_linear_358_1277" x1="19.1615" y1="37.5663" x2="55.8243" y2="37.5663" gradientUnits="userSpaceOnUse">
<stop stop-color="#1685FF"/>
<stop offset="0.5" stop-color="#8B5CF6"/>
<stop offset="1" stop-color="#D946EF"/>
</linearGradient>
</defs>
</svg>
