<?xml version="1.0" encoding="UTF-8" standalone="no"?><!DOCTYPE svg PUBLIC "-//W3C//DTD SVG 1.1//EN" "http://www.w3.org/Graphics/SVG/1.1/DTD/svg11.dtd"><svg width="100%" height="100%" viewBox="0 0 66 66" version="1.1" xmlns="http://www.w3.org/2000/svg" xmlns:xlink="http://www.w3.org/1999/xlink" xml:space="preserve" xmlns:serif="http://www.serif.com/" style="fill-rule:evenodd;clip-rule:evenodd;stroke-linejoin:round;stroke-miterlimit:2;"><rect id="Artboard1" x="0" y="0" width="66" height="66" style="fill:none;"/><g><path d="M32.931,24.435l-0.14,-0.001c-5.954,0 -16.086,0.941 -16.086,4.597l-0,26.532c-0,3.656 10.132,4.596 16.086,4.596c5.954,0 16.087,-0.94 16.087,-4.596l-0,-26.532c-0,-3.628 -9.975,-4.582 -15.947,-4.596Zm-0.14,33.635c-8.67,-0 -13.684,-1.671 -13.997,-2.507l-0,-6.372c3.238,1.567 9.714,2.089 13.997,2.089c4.283,0 10.759,-0.522 13.997,-2.089l0,6.372c-0.417,0.836 -5.431,2.507 -13.997,2.507Zm13.997,-17.758l0,6.372c-0.417,0.94 -5.431,2.507 -13.997,2.507c-8.565,-0 -13.579,-1.567 -13.997,-2.507l-0,-6.372c3.238,1.567 9.714,2.089 13.997,2.089c4.283,0.105 10.759,-0.418 13.997,-2.089Zm-34.993,1.254l-3.552,-3.552c-0.417,-0.418 -1.044,-0.418 -1.462,-0c-0.418,0.418 -0.418,1.045 0,1.462l1.776,1.776l-6.894,0c-0.627,0 -1.045,0.418 -1.045,1.045c0,0.627 0.418,1.044 1.045,1.044l6.789,0l-1.775,1.776c-0.418,0.418 -0.418,1.045 -0,1.463c0.417,0.417 1.044,0.417 1.462,-0l3.552,-3.552c0.417,-0.418 0.417,-1.045 0.104,-1.462Zm52.542,-0.314l-7.312,0l1.776,-1.776c0.418,-0.417 0.418,-1.044 0,-1.462c-0.418,-0.418 -1.044,-0.418 -1.462,-0l-3.552,3.552c-0.418,0.417 -0.418,1.044 0,1.462l3.552,3.552c0.418,0.417 1.044,0.417 1.462,-0c0.418,-0.418 0.418,-1.045 0,-1.463l-1.776,-1.776l7.312,0c0.627,0 1.045,-0.417 1.045,-1.044c-0,-0.523 -0.418,-1.045 -1.045,-1.045Zm-31.546,-0.835c-8.565,-0 -13.579,-1.567 -13.997,-2.507l-0,-6.372c3.447,1.671 10.132,2.089 13.997,2.089c3.761,-0 9.819,-0.418 13.371,-1.776l0.104,-0c0.209,-0.104 0.418,-0.209 0.627,-0.313l-0,6.372c-0.522,0.835 -5.536,2.507 -14.102,2.507Zm0,-13.893c8.461,-0 13.475,1.566 13.997,2.507l-0.104,0.104c-1.985,1.985 -11.073,2.298 -13.893,2.298c-8.461,0 -13.475,-1.567 -13.997,-2.507c0.522,-0.836 5.432,-2.402 13.997,-2.402Zm-17.34,-10.968c-0.627,-0 -1.045,0.417 -1.045,1.044l0,2.507l-5.536,-5.536c-0.418,-0.418 -1.044,-0.418 -1.462,-0c-0.418,0.418 -0.418,1.044 -0,1.462l5.536,5.537l-2.507,-0c-0.627,-0 -1.044,0.417 -1.044,1.044c-0,0.627 0.417,1.045 1.044,1.045l5.014,-0c0.627,-0 1.045,-0.418 1.045,-1.045l-0,-5.014c-0,-0.627 -0.418,-1.044 -1.045,-1.044Zm42.306,-1.672c-0.418,-0.418 -1.045,-0.418 -1.463,0l-5.118,5.119l-0,-2.507c-0,-0.627 -0.418,-1.045 -1.045,-1.045c-0.627,0 -1.044,0.418 -1.044,1.045l-0,5.014c-0,0.626 0.417,1.044 1.044,1.044l5.014,0c0.627,0 1.045,-0.418 1.045,-1.044c-0,-0.627 -0.418,-1.045 -1.045,-1.045l-2.507,0l5.119,-5.118c0.417,-0.418 0.417,-1.045 -0,-1.463Zm-20.683,-1.984c-0.418,-0.418 -1.045,-0.418 -1.463,-0l-1.775,1.775l-0,-6.789c-0,-0.627 -0.418,-1.045 -1.045,-1.045c-0.627,-0 -1.044,0.418 -1.044,1.045l-0,6.685l-1.776,-1.776c-0.418,-0.418 -1.045,-0.418 -1.463,0c-0.418,0.418 -0.418,1.045 0,1.462l3.552,3.552c0.209,0.209 0.522,0.313 0.731,0.313c0.209,0 0.522,-0.104 0.731,-0.313l3.552,-3.552c0.418,-0.313 0.418,-0.94 -0,-1.357Z" style="fill:url(#_Linear1);fill-rule:nonzero;"/></g><defs><linearGradient id="_Linear1" x1="0" y1="0" x2="1" y2="0" gradientUnits="userSpaceOnUse" gradientTransform="matrix(64.7642,0,0,52.8006,0.617972,33.1308)"><stop offset="0" style="stop-color:#1685ff;stop-opacity:1"/><stop offset="0.5" style="stop-color:#8b5cf6;stop-opacity:1"/><stop offset="1" style="stop-color:#d946ef;stop-opacity:1"/></linearGradient></defs></svg>