<svg width="30" height="30" viewBox="0 0 30 30" fill="none" xmlns="http://www.w3.org/2000/svg">
<path fill-rule="evenodd" clip-rule="evenodd" d="M15 6.39535C14.3578 6.39535 13.8372 6.91594 13.8372 7.55814C13.8372 8.20033 14.3578 8.72093 15 8.72093C15.6422 8.72093 16.1628 8.20033 16.1628 7.55814C16.1628 6.91594 15.6422 6.39535 15 6.39535ZM12.4419 7.55814C12.4419 6.14532 13.5872 5 15 5C16.4128 5 17.5581 6.14532 17.5581 7.55814C17.5581 8.97096 16.4128 10.1163 15 10.1163C13.5872 10.1163 12.4419 8.97096 12.4419 7.55814ZM19.6413 10.5012C20.963 10.218 22.2093 11.2256 22.2093 12.5772C22.2093 13.4911 21.6246 14.3024 20.7576 14.5914L18.734 15.266C18.6065 15.3085 18.5302 15.334 18.4737 15.3554C18.4379 15.3689 18.4228 15.3762 18.4192 15.378C18.3428 15.4262 18.3012 15.5142 18.3126 15.6038C18.3135 15.6078 18.3175 15.6241 18.3298 15.6603C18.3492 15.7176 18.378 15.7927 18.4262 15.9181L19.586 18.9337C20.1071 20.2883 19.1072 21.7442 17.6557 21.7442C16.9136 21.7442 16.2284 21.3465 15.8601 20.7021L15 19.1969L14.1399 20.7021C13.7716 21.3465 13.0864 21.7442 12.3442 21.7442C10.8929 21.7442 9.89297 20.2883 10.414 18.9337L11.5738 15.9181C11.622 15.7927 11.6508 15.7176 11.6702 15.6603C11.6825 15.6241 11.6865 15.6078 11.6875 15.6038C11.6988 15.5142 11.6572 15.4262 11.5809 15.378C11.5772 15.3762 11.5622 15.3689 11.5264 15.3554C11.4698 15.334 11.3935 15.3085 11.266 15.266L9.24244 14.5914C8.37547 14.3024 7.7907 13.4911 7.7907 12.5772C7.7907 11.2256 9.03702 10.218 10.3587 10.5012L12.1239 10.8795C12.2229 10.9007 12.2692 10.9106 12.3149 10.9201C14.0862 11.2865 15.9138 11.2865 17.6851 10.9201C17.7308 10.9106 17.777 10.9007 17.8761 10.8795L19.6413 10.5012ZM20.814 12.5772C20.814 12.1139 20.3867 11.7685 19.9337 11.8656L18.166 12.2444C18.0703 12.2649 18.0189 12.2759 17.9677 12.2865C16.01 12.6915 13.99 12.6915 12.0323 12.2865C11.9811 12.2759 11.9297 12.2649 11.8343 12.2445L10.0663 11.8656C9.61327 11.7685 9.18605 12.1139 9.18605 12.5772C9.18605 12.8905 9.3865 13.1687 9.68369 13.2677L11.7072 13.9422C11.7241 13.9478 11.741 13.9534 11.758 13.9591C11.9493 14.0224 12.148 14.0883 12.3118 14.1894C12.8598 14.5276 13.1568 15.1572 13.0696 15.7952C13.0435 15.986 12.9681 16.1812 12.8954 16.3691C12.8889 16.3859 12.8825 16.4025 12.8761 16.4191L11.7163 19.4346C11.5468 19.8753 11.8721 20.3488 12.3442 20.3488C12.5857 20.3488 12.8086 20.2194 12.9284 20.0099L14.3942 17.4446C14.5184 17.2272 14.7497 17.093 15 17.093C15.2503 17.093 15.4816 17.2272 15.6058 17.4446L17.0716 20.0099C17.1914 20.2194 17.4143 20.3488 17.6557 20.3488C18.1279 20.3488 18.4532 19.8753 18.2837 19.4346L17.1239 16.4191C17.1175 16.4025 17.1111 16.3859 17.1046 16.3691C17.0319 16.1812 16.9565 15.986 16.9303 15.7952C16.8432 15.1572 17.1402 14.5276 17.6882 14.1894C17.852 14.0883 18.0507 14.0224 18.242 13.9591C18.259 13.9534 18.2759 13.9478 18.2927 13.9422L20.3163 13.2677C20.6135 13.1687 20.814 12.8905 20.814 12.5772ZM8.68967 17.0122C8.86274 17.3565 8.72398 17.7758 8.37973 17.9489C6.96492 18.6603 6.39535 19.4604 6.39535 20.1163C6.39535 20.8267 7.06885 21.7021 8.70857 22.44C10.2828 23.1485 12.5065 23.6047 15 23.6047C17.4935 23.6047 19.7172 23.1485 21.2914 22.44C22.9312 21.7021 23.6047 20.8267 23.6047 20.1163C23.6047 19.4604 23.0351 18.6603 21.6203 17.9489C21.276 17.7758 21.1372 17.3565 21.3103 17.0122C21.4834 16.6679 21.9028 16.5292 22.2471 16.7022C23.7782 17.4721 25 18.6279 25 20.1163C25 21.7178 23.5911 22.9353 21.864 23.7125C20.0714 24.5192 17.6441 25 15 25C12.3559 25 9.92851 24.5192 8.13596 23.7125C6.4089 22.9353 5 21.7178 5 20.1163C5 18.6279 6.22177 17.4721 7.75294 16.7022C8.09719 16.5292 8.51658 16.6679 8.68967 17.0122Z" fill="url(#paint0_linear_1775_302)"/>
<defs>
<linearGradient id="paint0_linear_1775_302" x1="5.00005" y1="15.0482" x2="25.0004" y2="15.0482" gradientUnits="userSpaceOnUse">
<stop stop-color="#1685FF"/>
<stop offset="0.5" stop-color="#8B5CF6"/>
<stop offset="1" stop-color="#D946EF"/>
</linearGradient>
</defs>
</svg>
