<svg width="50" height="50" viewBox="0 0 50 50" fill="none" xmlns="http://www.w3.org/2000/svg">
<path d="M37.787 16.2849C37.6525 9.55119 14.376 9.53879 14.1666 16.25C14.1367 16.2417 14.1731 28.4313 14.1595 28.4394H12.5971C12.2698 28.4394 11.9876 28.6696 11.9216 28.9903L11.4058 31.5036C11.1686 31.6274 10.9397 31.7607 10.7209 31.903L8.32936 31.1028C8.01694 30.9971 7.67408 31.1298 7.51117 31.4161L4.81399 36.1558C4.65439 36.4367 4.71096 36.7908 4.95061 37.0077L6.83291 38.7129C6.8172 38.9845 6.81703 39.2635 6.83291 39.5359L4.95061 41.2411C4.71096 41.4579 4.65439 41.8122 4.81399 42.0937L7.51117 46.8327C7.67408 47.1189 8.01628 47.2502 8.32936 47.1452L10.7209 46.3458C10.9397 46.4872 11.1686 46.6205 11.4058 46.7444L11.9216 49.2578C11.9876 49.5784 12.2698 49.8088 12.5971 49.8088H17.9914C18.3187 49.8088 18.6009 49.5784 18.6669 49.2578L19.1827 46.7451C19.4197 46.6212 19.6488 46.4879 19.8683 46.3458L22.2598 47.1452C22.5716 47.2508 22.9151 47.1182 23.078 46.8327L24.7865 43.8307C31.0382 44.2601 38.0408 41.9145 37.7901 38.7827C37.7656 38.7308 37.787 16.2849 37.787 16.2849ZM25.9751 12.5694C32.1232 12.5694 36.4076 14.5278 36.4076 16.2849C36.4076 18.0426 32.1232 20.001 25.9751 20.001C19.8266 20.001 15.542 18.0426 15.542 16.2849C15.542 14.5278 19.8266 12.5694 25.9751 12.5694ZM15.5387 18.7467C19.4543 22.2242 32.492 22.2225 36.4076 18.7499V23.8149C35.9589 26.5485 29.1862 27.579 25.9753 27.4991C22.7815 27.5871 15.9057 26.5331 15.5399 23.781C15.5357 23.7754 15.5404 18.7535 15.5387 18.7467ZM15.5387 26.2518C20.3008 29.7931 31.6404 29.7941 36.4076 26.2557V31.3104C36.5804 33.1828 30.742 35.3029 25.1004 34.97L23.078 31.4161C22.9151 31.1298 22.5709 30.9965 22.2598 31.1028L19.8683 31.903C19.6495 31.7607 19.4197 31.6274 19.1827 31.5029L18.6669 28.9903C18.6009 28.6696 18.3187 28.4394 17.9914 28.4394H15.5387V26.2518ZM22.1594 45.6575L19.9821 44.9296C19.3324 44.7702 18.8852 45.4703 18.2795 45.6533C18.0837 45.7465 17.943 45.9262 17.8992 46.1384L17.4291 48.4294H13.1594L12.6894 46.1384C12.6455 45.9262 12.5048 45.7465 12.3088 45.6535C11.7018 45.4714 11.2579 44.768 10.6071 44.9294L8.42975 45.6575L6.28613 41.8915L8.00817 40.3319C8.462 39.8488 8.07945 39.0847 8.23244 38.488C8.25129 38.2725 8.16843 38.0609 8.00817 37.9162L6.28613 36.3564L8.42975 32.5905L10.6069 33.3192C11.2582 33.4777 11.701 32.7796 12.3088 32.5946C12.5048 32.5015 12.6455 32.3218 12.6894 32.1097L13.1594 29.8186H17.4291L17.8992 32.1097C18.0791 32.7405 18.9411 32.813 19.3625 33.2263C19.541 33.3549 19.7727 33.3898 19.9822 33.3192L22.1594 32.5905L24.3031 36.3564L22.581 37.9162C22.2193 38.2255 22.4112 38.7126 22.3883 39.1244C22.4115 39.5354 22.22 40.0223 22.581 40.3319L24.3031 41.8915L22.1594 45.6575ZM25.9786 42.4841C25.8356 42.4841 25.7004 42.4749 25.5594 42.4729C25.8124 42.0803 26.053 41.6231 25.6384 41.2411L23.7554 39.5352C23.7713 39.2635 23.7713 38.9845 23.7554 38.7129L25.6386 37.0077C25.8212 36.8425 25.8956 36.5979 25.8511 36.3664C25.8941 36.3665 25.9356 36.3692 25.9786 36.3692C30.6087 36.3692 34.4558 35.3363 36.4076 33.7494C36.4098 33.7601 36.4036 38.7819 36.4098 38.791C36.3969 40.5398 32.1172 42.4841 25.9786 42.4841Z" fill="url(#paint0_linear_415_179)"/>
<path d="M13.4459 39.1231L14.3222 37.9984C14.8726 37.2858 13.7909 36.4421 13.2337 37.1513L12.0277 38.6995C11.8337 38.9488 11.8337 39.2976 12.0277 39.5468L13.2339 41.0944C13.3698 41.2695 13.5733 41.3603 13.7787 41.3603C14.3313 41.3767 14.6811 40.6783 14.3222 40.2471L13.4459 39.1231Z" fill="url(#paint1_linear_415_179)"/>
<path d="M16.3863 37.0313C16.086 37.2656 16.032 37.6986 16.2657 37.9989L17.142 39.1236L16.2657 40.2476C16.032 40.5479 16.0853 40.9811 16.3863 41.2155C16.6845 41.4477 17.1188 41.3974 17.354 41.0949L18.5602 39.5473C18.7542 39.2981 18.7542 38.9493 18.5602 38.7L17.354 37.1518C17.1197 36.8515 16.6867 36.7982 16.3863 37.0313Z" fill="url(#paint2_linear_415_179)"/>
<path d="M15.3353 33.1748C12.0509 33.1748 9.37866 35.843 9.37866 39.1221C9.70564 47.011 20.966 47.0087 21.292 39.1219C21.292 35.8429 18.6197 33.1748 15.3353 33.1748ZM15.3353 43.6893C12.8112 43.6893 10.7578 41.6408 10.7578 39.1221C10.9877 33.0703 19.6838 33.0719 19.9127 39.1221C19.9127 41.6408 17.8594 43.6893 15.3353 43.6893Z" fill="url(#paint3_linear_415_179)"/>
<path d="M43.3381 13.3427V2.32279C43.3381 1.75733 43.1135 1.21518 42.7138 0.815264C42.3139 0.415517 41.7717 0.190918 41.2063 0.190918C40.641 0.190918 40.0986 0.415517 39.6989 0.815264C39.2992 1.21518 39.0746 1.75733 39.0746 2.32279V13.3427C38.3196 13.8068 37.7367 14.5049 37.4147 15.3305C37.0927 16.1562 37.0489 17.0645 37.2902 17.9172C37.5313 18.77 38.0443 19.5209 38.7512 20.0554C39.4579 20.5901 40.3201 20.8794 41.2063 20.8794C42.0926 20.8794 42.9546 20.5901 43.6615 20.0554C44.3684 19.5209 44.8814 18.77 45.1225 17.9172C45.3638 17.0645 45.32 16.1562 44.998 15.3305C44.6758 14.5049 44.0931 13.8068 43.3381 13.3427ZM41.2063 20.1535C40.4781 20.1535 39.7697 19.9158 39.1888 19.4764C38.608 19.0371 38.1866 18.4202 37.9884 17.7194C37.7903 17.0185 37.8264 16.2723 38.0911 15.5939C38.3558 14.9154 38.8349 14.3418 39.4553 13.9606L39.8005 13.7479V2.32279C39.8005 1.94984 39.9485 1.59227 40.2123 1.32863C40.4759 1.065 40.8335 0.916814 41.2063 0.916814C41.5792 0.916814 41.9368 1.065 42.2004 1.32863C42.4641 1.59227 42.6122 1.94984 42.6122 2.32279V13.7481L42.9576 13.9606C43.5781 14.3418 44.0571 14.9154 44.3219 15.5939C44.5865 16.2723 44.6226 17.0187 44.4244 17.7194C44.2263 18.4202 43.8047 19.0373 43.2239 19.4765C42.643 19.9158 41.9346 20.1537 41.2063 20.1535Z" fill="url(#paint4_linear_415_179)"/>
<path d="M41.5702 14.6926V6.94971H40.8443V14.6926C40.2936 14.7837 39.7974 15.0786 39.4542 15.5187C39.111 15.9588 38.9458 16.5119 38.9916 17.0681C39.0373 17.6243 39.2905 18.143 39.701 18.521C40.1115 18.8991 40.6492 19.109 41.2072 19.109C41.7652 19.109 42.3029 18.8991 42.7134 18.521C43.1239 18.143 43.3771 17.6243 43.4229 17.0681C43.4686 16.5119 43.3034 15.9588 42.9602 15.5187C42.617 15.0786 42.1208 14.7837 41.5702 14.6926ZM41.2072 18.3828C40.9111 18.3828 40.6216 18.2951 40.3755 18.1306C40.1292 17.966 39.9373 17.7321 39.824 17.4586C39.7106 17.185 39.681 16.884 39.7389 16.5936C39.7966 16.3032 39.9392 16.0364 40.1485 15.827C40.3579 15.6176 40.6247 15.4751 40.9151 15.4172C41.2055 15.3595 41.5066 15.3891 41.7801 15.5025C42.0537 15.6158 42.2875 15.8077 42.4521 16.0539C42.6167 16.3 42.7045 16.5896 42.7045 16.8857C42.704 17.2826 42.546 17.6632 42.2654 17.9438C41.9847 18.2245 41.6041 18.3825 41.2072 18.3828Z" fill="url(#paint5_linear_415_179)"/>
<defs>
<linearGradient id="paint0_linear_415_179" x1="4.72402" y1="30.6101" x2="37.7974" y2="30.6101" gradientUnits="userSpaceOnUse">
<stop stop-color="#1685FF"/>
<stop offset="0.5" stop-color="#8B5CF6"/>
<stop offset="1" stop-color="#D946EF"/>
</linearGradient>
<linearGradient id="paint1_linear_415_179" x1="11.8822" y1="39.1327" x2="14.474" y2="39.1327" gradientUnits="userSpaceOnUse">
<stop stop-color="#1685FF"/>
<stop offset="0.5" stop-color="#8B5CF6"/>
<stop offset="1" stop-color="#D946EF"/>
</linearGradient>
<linearGradient id="paint2_linear_415_179" x1="16.1202" y1="39.1344" x2="18.7057" y2="39.1344" gradientUnits="userSpaceOnUse">
<stop stop-color="#1685FF"/>
<stop offset="0.5" stop-color="#8B5CF6"/>
<stop offset="1" stop-color="#D946EF"/>
</linearGradient>
<linearGradient id="paint3_linear_415_179" x1="9.37866" y1="39.1348" x2="21.2922" y2="39.1348" gradientUnits="userSpaceOnUse">
<stop stop-color="#1685FF"/>
<stop offset="0.5" stop-color="#8B5CF6"/>
<stop offset="1" stop-color="#D946EF"/>
</linearGradient>
<linearGradient id="paint4_linear_415_179" x1="37.1365" y1="10.585" x2="45.2763" y2="10.585" gradientUnits="userSpaceOnUse">
<stop stop-color="#1685FF"/>
<stop offset="0.5" stop-color="#8B5CF6"/>
<stop offset="1" stop-color="#D946EF"/>
</linearGradient>
<linearGradient id="paint5_linear_415_179" x1="38.9842" y1="13.0587" x2="43.4304" y2="13.0587" gradientUnits="userSpaceOnUse">
<stop stop-color="#1685FF"/>
<stop offset="0.5" stop-color="#8B5CF6"/>
<stop offset="1" stop-color="#D946EF"/>
</linearGradient>
</defs>
</svg>
