<svg width="30" height="30" viewBox="0 0 30 30" fill="none" xmlns="http://www.w3.org/2000/svg">
<path fill-rule="evenodd" clip-rule="evenodd" d="M5.73094 17.5385L8.15341 15.8497C8.42982 15.6524 8.74653 15.5189 9.08073 15.4587C9.40335 15.4038 9.73454 15.4302 10.0444 15.5354L15.7819 17.4546C15.8003 17.4611 15.818 17.4697 15.8346 17.4802C16.3695 17.7729 16.7718 18.2597 16.9584 18.8402L22.3269 15.7637C22.3639 15.7425 22.4055 15.7304 22.4482 15.7284C23.8033 15.626 24.7614 15.6707 25.3223 15.8625C25.4576 15.8968 25.5844 15.9587 25.6947 16.0442C25.805 16.1298 25.8966 16.2371 25.9635 16.3596C26.0154 16.4868 26.036 16.6245 26.0236 16.7612C26.0112 16.8979 25.9662 17.0297 25.8924 17.1455C25.6739 17.5608 25.1615 18.0719 24.3553 18.6785C24.3472 18.6848 24.3386 18.6907 24.3297 18.6959L15.5224 23.8087C15.0578 24.0858 14.5048 24.1746 13.9768 24.0569L9.81077 23.1797C9.40889 23.0879 8.98703 23.1571 8.63549 23.3724L8.29849 23.5713L8.31948 23.6201C8.32255 23.6275 8.32536 23.6349 8.32792 23.6424C8.36462 23.7442 8.36098 23.8563 8.31773 23.9555C8.27448 24.0548 8.19491 24.1337 8.09532 24.1762L8.08125 24.1818L6.22685 24.9666C6.12343 25.0103 6.00693 25.0112 5.90285 24.9691C5.79878 24.927 5.71561 24.8454 5.67158 24.7422L3.0334 18.5441C3.03033 18.537 3.02777 18.5295 3.02521 18.5221C2.98843 18.4203 2.99201 18.3083 3.03521 18.209C3.07842 18.1098 3.15797 18.0308 3.25755 17.9883C3.26242 17.9863 3.26702 17.9843 3.27188 17.9827L5.12603 17.1979C5.22946 17.1541 5.34606 17.1531 5.45022 17.1952C5.55437 17.2373 5.63757 17.319 5.68156 17.4223L5.73094 17.5385ZM13.1281 8.41926C13.1068 8.41926 13.0856 8.41926 13.0641 8.41926C12.4408 8.41898 11.8271 8.57245 11.2774 8.86606C10.7276 9.15967 10.2587 9.58436 9.91235 10.1025C9.56596 10.6206 9.35272 11.2162 9.29154 11.8365C9.23036 12.4567 9.32313 13.0825 9.56161 13.6583C9.8001 14.2341 10.1769 14.7422 10.6588 15.1376C11.1406 15.533 11.7125 15.8034 12.3238 15.9249C12.9351 16.0464 13.5669 16.0152 14.1633 15.8341C14.7597 15.653 15.3022 15.3276 15.7427 14.8868C15.8109 14.8185 15.8759 14.7484 15.9377 14.6764C16.2943 15.2155 16.7828 15.6544 17.3569 15.9513C17.931 16.2483 18.5715 16.3935 19.2175 16.373C19.8635 16.3526 20.4935 16.1673 21.0477 15.8346C21.6018 15.502 22.0617 15.0332 22.3835 14.4726C22.7054 13.9121 22.8785 13.2786 22.8864 12.6323C22.8943 11.9861 22.7367 11.3485 22.4287 10.7803C22.1206 10.2121 21.6724 9.73213 21.1265 9.38606C20.5806 9.03998 19.9553 8.8393 19.31 8.80309C19.3207 8.75371 19.3302 8.70381 19.3387 8.65417C19.4107 8.2266 19.3931 7.78875 19.2872 7.36831C19.1813 6.94786 18.9893 6.55396 18.7233 6.21153C18.4574 5.8691 18.1233 5.58559 17.7421 5.37892C17.3609 5.17225 16.941 5.04692 16.509 5.01086C16.0769 4.9748 15.642 5.02879 15.2319 5.16942C14.8217 5.31005 14.4452 5.53426 14.1262 5.82787C13.8072 6.12148 13.5525 6.4781 13.3784 6.87517C13.2042 7.27225 13.1144 7.70114 13.1145 8.13472C13.1145 8.22598 13.119 8.32083 13.1281 8.41926ZM18.754 8.81256C18.4837 8.83695 18.2169 8.8904 17.9582 8.97198C17.8215 8.69437 17.6195 8.45405 17.3696 8.27162C17.2751 8.20276 17.1745 8.14279 17.069 8.0925C17.2204 7.93226 17.3216 7.73117 17.36 7.51407C17.3985 7.29697 17.3724 7.07336 17.2852 6.87088C17.198 6.66839 17.0533 6.4959 16.8692 6.3747C16.685 6.2535 16.4693 6.18892 16.2488 6.18892C16.0284 6.18892 15.8127 6.2535 15.6285 6.3747C15.4444 6.4959 15.2997 6.66839 15.2125 6.87088C15.1252 7.07336 15.0992 7.29697 15.1377 7.51407C15.1761 7.73117 15.2773 7.93226 15.4287 8.0925C15.3582 8.12609 15.2898 8.16404 15.224 8.20611C14.9966 8.35152 14.8025 8.54336 14.6544 8.76906C14.343 8.62476 14.0132 8.52377 13.6744 8.46891C13.6716 8.44562 13.6688 8.42208 13.6665 8.39854C13.658 8.31128 13.6539 8.22366 13.6542 8.136C13.655 7.77764 13.7301 7.42335 13.8746 7.09545C14.0192 6.76755 14.2302 6.47317 14.4942 6.23086C14.7582 5.98855 15.0696 5.80358 15.4086 5.68761C15.7477 5.57164 16.1071 5.52719 16.4642 5.55705C16.8213 5.58691 17.1684 5.69045 17.4835 5.86113C17.7986 6.03181 18.0749 6.26592 18.295 6.54871C18.5151 6.83151 18.6743 7.15684 18.7624 7.50419C18.8505 7.85155 18.8656 8.2134 18.8069 8.56691C18.7929 8.65135 18.7752 8.73366 18.7537 8.81384L18.754 8.81256ZM16.2483 7.9057C16.1121 7.9058 15.9801 7.85867 15.8748 7.77233C15.7695 7.686 15.6974 7.5658 15.6707 7.43224C15.6441 7.29868 15.6646 7.16002 15.7288 7.03989C15.7929 6.91976 15.8968 6.82561 16.0226 6.77347C16.1484 6.72133 16.2884 6.71444 16.4187 6.75397C16.5491 6.7935 16.6616 6.877 16.7373 6.99025C16.8129 7.1035 16.847 7.23947 16.8336 7.375C16.8202 7.51054 16.7602 7.63723 16.6639 7.73349C16.6093 7.78826 16.5444 7.83169 16.4729 7.86129C16.4015 7.89088 16.3249 7.90607 16.2476 7.90596L16.2483 7.9057ZM17.4571 9.17105C17.4162 9.19101 17.3755 9.21157 17.3351 9.23272C16.9131 9.45529 16.5368 9.75529 16.2258 10.1171C15.9383 9.68344 15.5649 9.31332 15.1288 9.02955C15.2627 8.83724 15.4437 8.68259 15.6546 8.58045C15.8654 8.47832 16.099 8.43214 16.3329 8.44635C16.5667 8.46056 16.793 8.53469 16.9899 8.6616C17.1869 8.78852 17.3476 8.96396 17.4571 9.17105ZM16.2819 14.2092C16.555 14.6817 16.942 15.0784 17.4078 15.363C17.945 15.6904 18.5657 15.8549 19.1946 15.8366C19.8235 15.8183 20.4335 15.6178 20.9508 15.2597C21.468 14.9015 21.8702 14.4009 22.1086 13.8187C22.347 13.2365 22.4114 12.5976 22.2939 11.9795C22.1764 11.3614 21.8821 10.7907 21.4467 10.3365C21.0112 9.88241 20.4534 9.56436 19.8408 9.42097C19.2282 9.27759 18.5872 9.31502 17.9954 9.52874C17.4037 9.74245 16.8866 10.1233 16.507 10.625C16.7685 11.1947 16.8848 11.8203 16.8455 12.4459C16.8062 13.0715 16.6126 13.6777 16.2819 14.2102V14.2092ZM19.0979 12.3668C18.9164 12.3668 18.7405 12.3039 18.6002 12.1888C18.4599 12.0737 18.3639 11.9135 18.3284 11.7355C18.293 11.5575 18.3204 11.3727 18.4058 11.2127C18.4913 11.0526 18.6297 10.9271 18.7973 10.8576C18.9649 10.788 19.1515 10.7788 19.3252 10.8314C19.4989 10.8839 19.649 10.9951 19.7499 11.1459C19.8508 11.2968 19.8964 11.4779 19.8787 11.6585C19.8611 11.8392 19.7814 12.0081 19.6531 12.1365C19.5803 12.2096 19.4938 12.2676 19.3985 12.3071C19.3032 12.3466 19.201 12.3669 19.0979 12.3668ZM20.0347 12.5185C20.0232 12.5301 20.0116 12.5413 19.9996 12.5523C20.4086 12.7287 20.757 13.021 21.0018 13.3931C21.2467 13.7652 21.3772 14.2008 21.3773 14.6462C21.3773 14.7178 21.3489 14.7865 21.2982 14.8371C21.2476 14.8877 21.1789 14.9162 21.1073 14.9162C21.0357 14.9162 20.9671 14.8877 20.9165 14.8371C20.8658 14.7865 20.8374 14.7178 20.8374 14.6462C20.8374 14.1847 20.6541 13.7422 20.3277 13.4159C20.0014 13.0895 19.5588 12.9062 19.0974 12.9062C18.6359 12.9062 18.1933 13.0895 17.867 13.4159C17.5407 13.7422 17.3573 14.1847 17.3573 14.6462C17.3552 14.7164 17.3258 14.7829 17.2754 14.8317C17.2251 14.8806 17.1577 14.9079 17.0875 14.9079C17.0174 14.9079 16.9499 14.8806 16.8996 14.8317C16.8492 14.7829 16.8198 14.7164 16.8177 14.6462C16.8178 14.2009 16.9483 13.7653 17.1931 13.3932C17.4379 13.0211 17.7862 12.7288 18.1951 12.5523C18.1833 12.5413 18.1716 12.5301 18.1603 12.5185C17.975 12.3333 17.8488 12.0972 17.7977 11.8403C17.7466 11.5833 17.7728 11.3169 17.8731 11.0749C17.9733 10.8328 18.1431 10.6259 18.361 10.4803C18.5788 10.3348 18.835 10.2571 19.097 10.2571C19.359 10.2571 19.6151 10.3348 19.833 10.4803C20.0508 10.6259 20.2206 10.8328 20.3209 11.0749C20.4211 11.3169 20.4474 11.5833 20.3962 11.8403C20.3451 12.0972 20.2189 12.3333 20.0336 12.5185H20.0347ZM15.3617 9.91005C14.8301 9.37836 14.1306 9.04745 13.3823 8.9737C12.6341 8.89996 11.8834 9.08794 11.2583 9.50562C10.6331 9.9233 10.1721 10.5448 9.95381 11.2643C9.73553 11.9838 9.77348 12.7567 10.0612 13.4513C10.3489 14.146 10.8686 14.7194 11.5317 15.0738C12.1947 15.4282 12.9602 15.5418 13.6976 15.3951C14.435 15.2484 15.0988 14.8505 15.5757 14.2693C16.0527 13.6881 16.3134 12.9595 16.3133 12.2076C16.3139 11.7809 16.2301 11.3582 16.0668 10.9639C15.9035 10.5696 15.6639 10.2114 15.3617 9.91005ZM13.0641 11.9878C12.8825 11.9879 12.7064 11.9251 12.566 11.8099C12.4255 11.6948 12.3293 11.5345 12.2938 11.3564C12.2582 11.1783 12.2855 10.9934 12.3711 10.8331C12.4566 10.6729 12.595 10.5473 12.7628 10.4777C12.9305 10.4081 13.1172 10.3988 13.2911 10.4514C13.4649 10.504 13.6151 10.6153 13.7161 10.7662C13.8171 10.9172 13.8626 11.0985 13.845 11.2792C13.8273 11.46 13.7475 11.629 13.6191 11.7575C13.5463 11.8306 13.4598 11.8886 13.3646 11.9281C13.2693 11.9676 13.1672 11.9879 13.0641 11.9878ZM14.0009 12.1396C13.9894 12.1511 13.9776 12.1624 13.9658 12.1734C14.3748 12.3498 14.7231 12.6421 14.9678 13.0142C15.2126 13.3863 15.3431 13.8219 15.3433 14.2673C15.3411 14.3374 15.3117 14.4039 15.2614 14.4528C15.211 14.5016 15.1436 14.5289 15.0734 14.5289C15.0033 14.5289 14.9359 14.5016 14.8855 14.4528C14.8351 14.4039 14.8058 14.3374 14.8036 14.2673C14.8036 13.8058 14.6203 13.3632 14.294 13.0369C13.9676 12.7106 13.5251 12.5272 13.0636 12.5272C12.6021 12.5272 12.1595 12.7106 11.8332 13.0369C11.5069 13.3632 11.3236 13.8058 11.3236 14.2673C11.3214 14.3374 11.292 14.4039 11.2417 14.4528C11.1913 14.5016 11.1239 14.5289 11.0537 14.5289C10.9836 14.5289 10.9162 14.5016 10.8658 14.4528C10.8154 14.4039 10.7861 14.3374 10.7839 14.2673C10.7841 13.8219 10.9146 13.3863 11.1593 13.0142C11.4041 12.6421 11.7524 12.3498 12.1613 12.1734C12.1493 12.1624 12.1378 12.1511 12.1263 12.1396C11.941 11.9543 11.8149 11.7183 11.7638 11.4613C11.7127 11.2043 11.7389 10.938 11.8392 10.6959C11.9395 10.4539 12.1093 10.247 12.3271 10.1015C12.545 9.95591 12.8011 9.87822 13.0631 9.87822C13.3251 9.87822 13.5812 9.95591 13.799 10.1015C14.0169 10.247 14.1867 10.4539 14.2869 10.6959C14.3872 10.938 14.4135 11.2043 14.3624 11.4613C14.3113 11.7183 14.1851 11.9543 13.9999 12.1396H14.0009ZM8.08585 23.0713L8.36144 22.9088C8.82852 22.6254 9.38713 22.5337 9.92029 22.6529L14.0864 23.5301C14.4846 23.6215 14.9028 23.5544 15.2524 23.343L24.0477 18.2373C24.7794 17.6856 25.2352 17.2379 25.4152 16.8942C25.447 16.85 25.4688 16.7994 25.4789 16.7459C25.489 16.6924 25.4871 16.6373 25.4735 16.5846C25.3959 16.4753 25.2798 16.3994 25.1485 16.3722C24.6641 16.2067 23.7949 16.1699 22.5411 16.2616L17.0503 19.409C17.052 19.5461 17.0363 19.6828 17.0035 19.8159C16.9326 20.1084 16.7663 20.369 16.5308 20.5564C16.17 20.8445 15.615 20.9947 14.8356 20.8947C14.825 20.8934 14.8145 20.8914 14.8041 20.8888L11.4574 20.0526C11.4228 20.0442 11.3903 20.0291 11.3616 20.0081C11.3329 19.9871 11.3086 19.9606 11.2902 19.9302C11.2718 19.8998 11.2596 19.866 11.2543 19.8308C11.249 19.7957 11.2507 19.7598 11.2594 19.7253C11.268 19.6908 11.2834 19.6584 11.3046 19.6298C11.3258 19.6013 11.3525 19.5773 11.383 19.5591C11.4136 19.5409 11.4475 19.529 11.4827 19.5239C11.5179 19.5189 11.5537 19.5209 11.5882 19.5298L14.9239 20.364C15.5306 20.4382 15.9436 20.3358 16.1954 20.1337C16.3377 20.0197 16.438 19.8616 16.4804 19.6844C16.526 19.4844 16.5214 19.2763 16.4669 19.0787C16.4029 18.8429 16.2923 18.6223 16.1415 18.4301C15.9907 18.2378 15.8029 18.0778 15.5892 17.9594L9.8727 16.0467C9.64634 15.9699 9.40437 15.9508 9.16876 15.9912C8.91319 16.0383 8.67128 16.1416 8.46047 16.2936L5.94665 18.0457L8.08585 23.0713ZM5.23043 17.7386L3.57383 18.4387L6.12245 24.4264L7.7793 23.7253L5.23043 17.7386Z" fill="url(#paint0_linear_1775_323)"/>
<defs>
<linearGradient id="paint0_linear_1775_323" x1="3.00006" y1="15.0482" x2="26.0276" y2="15.0482" gradientUnits="userSpaceOnUse">
<stop stop-color="#1685FF"/>
<stop offset="0.5" stop-color="#8B5CF6"/>
<stop offset="1" stop-color="#D946EF"/>
</linearGradient>
</defs>
</svg>
