<?xml version="1.0" encoding="UTF-8" standalone="no"?><!DOCTYPE svg PUBLIC "-//W3C//DTD SVG 1.1//EN" "http://www.w3.org/Graphics/SVG/1.1/DTD/svg11.dtd"><svg width="100%" height="100%" viewBox="0 0 100 100" version="1.1" xmlns="http://www.w3.org/2000/svg" xmlns:xlink="http://www.w3.org/1999/xlink" xml:space="preserve" xmlns:serif="http://www.serif.com/" style="fill-rule:evenodd;clip-rule:evenodd;stroke-linejoin:round;stroke-miterlimit:2;"><rect id="Artboard1" x="0" y="0" width="100" height="100" style="fill:none;"/><path d="M17.253,75.889c0.126,0.294 0.259,0.579 0.397,0.855c0.997,2.095 2.478,3.923 4.321,5.334l-0,-6.749c-1.585,0.063 -3.163,0.25 -4.718,0.56Zm-1.661,-7.174c0.088,1.577 0.347,3.141 0.772,4.663c1.846,-0.392 3.723,-0.624 5.609,-0.695l-0,-3.973l-6.381,0.005Zm0.772,-7.306c-0.425,1.522 -0.684,3.085 -0.772,4.662l6.379,0l-0,-3.973c-1.886,-0.07 -3.762,-0.302 -5.608,-0.693l0.001,0.004Zm5.608,-8.704c-1.837,1.408 -3.314,3.232 -4.31,5.321c-0.142,0.283 -0.277,0.575 -0.406,0.871c1.555,0.31 3.132,0.497 4.716,0.56l-0,-6.753l-0,0.001Zm-7.31,5.54c-0.968,-0.293 -1.917,-0.646 -2.841,-1.057c0.199,-0.221 0.403,-0.442 0.615,-0.652c1.516,-1.517 3.332,-2.7 5.332,-3.473c-0.973,1.158 -1.803,2.428 -2.472,3.784c-0.225,0.452 -0.437,0.918 -0.634,1.398Zm-1.717,7.825c0.089,-1.802 0.378,-3.588 0.861,-5.326c-1.23,-0.377 -2.432,-0.843 -3.595,-1.393c-1.254,2.035 -2.013,4.337 -2.215,6.719l4.949,0Zm0.862,7.97c-0.483,-1.738 -0.772,-3.525 -0.862,-5.326l-4.949,-0c0.202,2.382 0.961,4.684 2.215,6.72c1.163,-0.551 2.365,-1.017 3.596,-1.394Zm3.962,7.681c-2.001,-0.772 -3.817,-1.955 -5.333,-3.473c-0.212,-0.211 -0.416,-0.428 -0.615,-0.651c0.925,-0.412 1.875,-0.765 2.843,-1.058c0.193,0.47 0.4,0.927 0.621,1.373c0.672,1.365 1.506,2.644 2.484,3.809Zm14.324,-5.129c-0.184,0.441 -0.38,0.875 -0.589,1.302c-0.649,1.325 -1.45,2.569 -2.388,3.708c1.883,-0.774 3.594,-1.914 5.033,-3.354c0.211,-0.21 0.416,-0.427 0.614,-0.651c-0.869,-0.387 -1.761,-0.723 -2.67,-1.005Zm1.743,-7.878c-0.094,1.821 -0.39,3.626 -0.883,5.382c1.171,0.366 2.314,0.813 3.422,1.338c1.255,-2.035 2.014,-4.338 2.216,-6.72l-4.755,-0Zm-0.883,-8.026c0.495,1.755 0.791,3.561 0.883,5.382l4.753,0c-0.202,-2.382 -0.961,-4.684 -2.216,-6.719c-1.106,0.524 -2.247,0.97 -3.415,1.337l-0.005,-0Zm-3.848,-7.505c0.915,1.103 1.701,2.307 2.343,3.589c0.232,0.46 0.449,0.934 0.65,1.42c0.909,-0.282 1.8,-0.617 2.669,-1.004c-0.199,-0.221 -0.404,-0.438 -0.615,-0.652c-1.441,-1.442 -3.154,-2.583 -5.039,-3.357l-0.008,0.004Zm0.403,5.679c-1.614,0.332 -3.252,0.532 -4.898,0.597l-0,-6.896c1.911,1.405 3.448,3.258 4.476,5.396c0.147,0.295 0.288,0.594 0.422,0.9l-0,0.003Zm1.676,7.212c-0.087,-1.592 -0.349,-3.169 -0.78,-4.703c-1.906,0.416 -3.845,0.661 -5.794,0.734l-0,3.973l6.574,-0.004Zm-0.783,7.346c0.431,-1.535 0.694,-3.112 0.783,-4.703l-6.57,-0l0,3.973c1.948,0.073 3.886,0.318 5.791,0.734l-0.004,-0.004Zm-5.791,8.806l-0,-6.897c1.646,0.065 3.283,0.264 4.897,0.596c-0.118,0.273 -0.243,0.54 -0.372,0.802c-1.027,2.18 -2.583,4.07 -4.525,5.496l-0,0.003Zm62.933,-25.69c-2.878,-2.878 -6.785,-4.497 -10.855,-4.497c-8.395,0 -15.312,6.884 -15.354,15.278l0,0.076c0,8.422 6.931,15.353 15.354,15.353c8.422,-0 15.353,-6.931 15.353,-15.353c-0,-4.071 -1.619,-7.979 -4.498,-10.857Zm6.635,6.6c0.339,1.394 0.511,2.823 0.511,4.258c-0,9.874 -8.125,17.999 -17.999,17.999c-9.399,-0 -17.297,-7.363 -17.955,-16.739l-17.491,-0c-0.659,9.374 -8.555,16.735 -17.952,16.735c-0.002,-0 -0.003,-0 -0.005,-0c-9.872,-0 -17.996,-8.124 -17.996,-17.997c0,-1.434 0.172,-2.864 0.511,-4.258c-1.64,-1.643 -2.963,-3.576 -3.9,-5.7c-1.027,-2.359 -1.557,-4.905 -1.557,-7.477c-0,-10.265 8.435,-18.716 18.699,-18.736l1.468,-0c1.867,-9.611 10.361,-16.614 20.151,-16.614c6.381,0 12.41,2.975 16.292,8.039c2.198,-1.362 4.734,-2.084 7.32,-2.084c6.405,-0 12.02,4.429 13.512,10.659l3.149,-0c10.258,0.029 18.69,8.461 18.719,18.719c0.001,2.581 -0.536,5.134 -1.577,7.495c-0.938,2.124 -2.26,4.056 -3.9,5.699l-0,0.002Zm-17.49,-13.741c-9.354,0.002 -17.227,7.294 -17.945,16.62l-17.506,0c-0.718,-9.326 -8.591,-16.618 -17.945,-16.62c-7.176,0.004 -13.694,4.294 -16.535,10.883c-0.995,-1.179 -1.816,-2.494 -2.44,-3.906c-0.878,-2.023 -1.331,-4.205 -1.331,-6.411c-0,-8.816 7.242,-16.076 16.058,-16.097l2.581,-0c0.694,0.001 1.278,-0.543 1.325,-1.235c1.246,-8.785 8.846,-15.383 17.718,-15.383c5.971,0 11.562,2.988 14.88,7.953c0.402,0.6 1.227,0.764 1.828,0.362c0.023,-0.016 0.045,-0.032 0.066,-0.049c1.962,-1.502 4.365,-2.317 6.837,-2.317c5.528,0 10.278,4.077 11.115,9.542c0.098,0.643 0.655,1.123 1.305,1.126l4.236,-0c8.81,0.025 16.052,7.267 16.077,16.077c0.003,2.214 -0.458,4.405 -1.351,6.431c-0.622,1.412 -1.443,2.727 -2.439,3.906c-2.841,-6.589 -9.359,-10.878 -16.534,-10.882Zm-6.876,24.581l-0,-9.673l12.9,0l-0,9.673l-12.9,-0Zm8.561,-12.317l-4.213,-0l0,-1.087c0.026,-1.138 0.969,-2.059 2.107,-2.059c1.137,0 2.08,0.921 2.106,2.059l0,1.087Zm-6.862,-0l0,-1.087c0,-2.606 2.145,-4.75 4.751,-4.75c2.606,-0 4.75,2.144 4.75,4.75l-0,1.087l1.7,-0c0.698,-0 1.369,0.278 1.863,0.772c0.495,0.496 0.773,1.168 0.772,1.869l0,9.673c0,1.453 -1.196,2.648 -2.649,2.648l-12.886,0c-0.701,0.001 -1.373,-0.277 -1.869,-0.772c-0.494,-0.494 -0.772,-1.165 -0.772,-1.863l-0,-9.683c-0,-0.698 0.278,-1.369 0.772,-1.863l0.006,-0.005c0.494,-0.495 1.164,-0.773 1.863,-0.773l1.699,-0.003Z" style="fill:url(#_Linear1);"/><defs><linearGradient id="_Linear1" x1="0" y1="0" x2="1" y2="0" gradientUnits="userSpaceOnUse" gradientTransform="matrix(99.3109,0,0,68.8076,0.344652,50.1705)"><stop offset="0" style="stop-color:#1685ff;stop-opacity:1"/><stop offset="0.5" style="stop-color:#8b5cf6;stop-opacity:1"/><stop offset="1" style="stop-color:#d946ef;stop-opacity:1"/></linearGradient></defs></svg>