<svg width="30" height="30" viewBox="0 0 30 30" fill="none" xmlns="http://www.w3.org/2000/svg">
<path fill-rule="evenodd" clip-rule="evenodd" d="M26.6972 4.41983C25.6485 3.37115 24.1985 2.72148 22.598 2.72148C20.9974 2.72148 19.5473 3.36998 18.4987 4.41983C17.4501 5.46851 16.8004 6.91853 16.8004 8.51904C16.8004 10.1196 17.4489 11.5697 18.4987 12.6183C19.5474 13.6669 20.9974 14.3166 22.598 14.3166C24.1985 14.3166 25.6486 13.6681 26.6972 12.6183C27.7458 11.5696 28.3955 10.1196 28.3955 8.51904C28.3955 6.91853 27.747 5.46836 26.6972 4.41983ZM22.2364 6.65606C22.2364 6.45716 22.3976 6.29474 22.5977 6.29474C22.7966 6.29474 22.959 6.45599 22.959 6.65606V8.37089L23.7935 9.20535C23.9347 9.34658 23.9347 9.57492 23.7935 9.71614C23.6523 9.85736 23.4239 9.85738 23.2827 9.71614L22.3446 8.7781C22.2776 8.71219 22.2364 8.62157 22.2364 8.52035L22.2364 6.65606ZM22.9579 5.15073V5.51205H22.2364V4.78941H22.9579V5.15073ZM19.228 8.15905H19.5894V8.88051H18.8667V8.15905H19.228ZM22.2364 11.8889V11.5275H22.9578V12.2502H22.2364V11.8889ZM25.9662 8.88054H25.6049V8.15908H26.3275V8.88054H25.9662ZM6.45086 7.72831C6.32728 7.72831 6.21429 7.77892 6.1319 7.8613C6.04951 7.94369 5.9989 8.05668 5.9989 8.18026V9.8386C5.9989 9.96218 6.04951 10.0752 6.1319 10.1576C6.21429 10.2399 6.32728 10.2906 6.45086 10.2906C6.57444 10.2906 6.68743 10.2399 6.76982 10.1576C6.85221 10.0752 6.90282 9.96218 6.90282 9.8386V8.18026C6.90282 8.05668 6.85221 7.94369 6.76982 7.8613C6.68743 7.77892 6.57444 7.72831 6.45086 7.72831ZM12.5453 7.72831C12.4217 7.72831 12.3087 7.77892 12.2263 7.8613C12.1439 7.94369 12.0933 8.05668 12.0933 8.18026V8.90998V8.91116V9.8386C12.0933 9.96218 12.1439 10.0752 12.2263 10.1576C12.3087 10.2399 12.4217 10.2906 12.5453 10.2906C12.6689 10.2906 12.7819 10.2399 12.8642 10.1576C12.9466 10.0752 12.9972 9.96218 12.9972 9.8386V8.18026C12.9972 8.05668 12.9466 7.94369 12.8642 7.8613C12.7819 7.77892 12.6689 7.72831 12.5453 7.72831ZM12.5453 7.00684C12.8689 7.00684 13.162 7.13866 13.375 7.35168C13.5881 7.56471 13.7199 7.85777 13.7199 8.18143V8.54984H16.0785V8.52041C16.0785 6.71965 16.8082 5.09069 17.9887 3.91019C19.168 2.73087 20.7981 2 22.5989 2C24.3997 2 26.0286 2.72972 27.2091 3.91019C28.3885 5.08952 29.1193 6.71959 29.1193 8.52041C29.1193 10.3212 28.3896 11.9501 27.2091 13.1306C26.1381 14.2017 24.6963 14.902 23.0934 15.022V25.8725C23.0934 26.1832 22.9662 26.4645 22.7626 26.6693C22.559 26.8741 22.2765 27 21.9658 27L3.12753 26.9988C2.81683 26.9988 2.53553 26.8717 2.33074 26.6681C2.12595 26.4633 2 26.182 2 25.8713V9.67632C2 9.36562 2.12711 9.08433 2.33074 8.87953C2.53553 8.67474 2.81683 8.54879 3.12753 8.54879H5.27783V8.18039C5.27783 7.85673 5.40965 7.56365 5.62267 7.35063C5.8357 7.13761 6.12877 7.0058 6.45243 7.0058C6.77608 7.0058 7.06916 7.13761 7.28218 7.35063C7.49521 7.56366 7.62702 7.85673 7.62702 8.18039V8.54879H11.3722V8.18039C11.3722 7.85673 11.504 7.56365 11.717 7.35063C11.9301 7.13761 12.2231 7.0058 12.5468 7.0058L12.5453 7.00684ZM22.1068 12.7623C21.1229 12.6505 20.2413 12.2032 19.5775 11.5394C18.8043 10.7662 18.3264 9.69867 18.3264 8.5204C18.3264 7.34107 18.8043 6.27359 19.5775 5.50135C20.3508 4.72809 21.4183 4.25026 22.5966 4.25026C23.7759 4.25026 24.8434 4.72809 25.6156 5.50135C26.3889 6.27461 26.8667 7.34213 26.8667 8.5204C26.8667 9.69972 26.3889 10.7672 25.6156 11.5394C24.8988 12.2562 23.9278 12.7199 22.8486 12.7823L22.8345 12.7752L22.8309 12.7741L22.8239 12.7705L22.8203 12.7694L22.8133 12.7658H22.8121L22.8109 12.7647L22.8086 12.7635H22.8062L22.8038 12.7623L22.8003 12.7611H22.798L22.7956 12.7599H22.7933L22.7909 12.7588H22.7885L22.785 12.7576H22.7827L22.7815 12.7564H22.7791L22.7732 12.7552H22.7721H22.7709H22.7685L22.765 12.7541H22.7627L22.7603 12.7529L22.7532 12.7517L22.7438 12.7505L22.7356 12.7494H22.7344H22.7332H22.725H22.7238H22.7226H22.7144H22.0918L22.1068 12.7623ZM22.0538 13.4826C22.0491 13.4826 22.0444 13.4814 22.0385 13.4814C20.8828 13.3531 19.847 12.8305 19.0667 12.0502C18.164 11.1475 17.6049 9.89876 17.6049 8.52049C17.6049 7.14221 18.164 5.8935 19.0667 4.99074C19.9694 4.08801 21.2182 3.52894 22.5965 3.52894C23.9747 3.52894 25.2234 4.08801 26.1262 4.99074C27.0289 5.89347 27.588 7.14221 27.588 8.52049C27.588 9.89876 27.0289 11.1475 26.1262 12.0502C25.2564 12.92 24.0665 13.4708 22.7483 13.5097H22.7342C22.6883 13.5109 22.6424 13.512 22.5953 13.512C22.4117 13.512 22.2305 13.5026 22.0515 13.4826L22.0538 13.4826ZM18.371 13.4838C19.455 14.4077 20.8462 14.9832 22.3693 15.035V25.8713C22.3693 25.9819 22.3234 26.0832 22.2504 26.1573C22.1763 26.2315 22.0751 26.2762 21.9644 26.2762L3.12704 26.2774C3.01641 26.2774 2.91519 26.2315 2.84104 26.1585C2.76689 26.0843 2.72217 25.9831 2.72217 25.8725V13.4851H18.3712L18.371 13.4838ZM2.72202 12.7623V9.67758C2.72202 9.56694 2.76792 9.46573 2.84089 9.39158C2.91504 9.31743 3.01625 9.2727 3.12689 9.2727H5.27719V9.84117C5.27719 10.1648 5.40901 10.4579 5.62203 10.6709C5.83506 10.884 6.12813 11.0158 6.45178 11.0158C6.77544 11.0158 7.06852 10.8839 7.28154 10.6709C7.49456 10.4579 7.62638 10.1648 7.62638 9.84117V9.2727H11.3716V9.84117C11.3716 10.1648 11.5034 10.4579 11.7164 10.6709C11.9294 10.8839 12.2225 11.0158 12.5462 11.0158C12.8698 11.0158 13.1629 10.8839 13.3759 10.6709C13.5889 10.4579 13.7207 10.1648 13.7207 9.84117V9.2727H16.1218C16.2736 10.598 16.8232 11.802 17.6483 12.7636L2.72089 12.7624L2.72202 12.7623ZM13.6219 16.3719H11.4716V18.5222H13.6219V16.3719ZM11.1103 15.6504C10.9114 15.6504 10.749 15.8117 10.749 16.0118V18.8847C10.749 19.0836 10.9102 19.246 11.1103 19.246H13.9833C14.1822 19.246 14.3446 19.0848 14.3446 18.8847V16.0118C14.3446 15.8128 14.1833 15.6504 13.9833 15.6504H11.1103ZM19.4832 16.3719H17.3329V18.5222H19.4832V16.3719ZM16.9715 15.6504C16.7726 15.6504 16.6102 15.8117 16.6102 16.0118V18.8847C16.6102 19.0836 16.7715 19.246 16.9715 19.246H19.8445C20.0434 19.246 20.2058 19.0848 20.2058 18.8847V16.0118C20.2058 15.8128 20.0446 15.6504 19.8445 15.6504H16.9715ZM7.75954 21.3703H5.60924V23.5206H7.75954V21.3703ZM5.24792 20.6489C5.04901 20.6489 4.8866 20.8101 4.8866 21.0102V23.8832C4.8866 24.0821 5.04784 24.2445 5.24792 24.2445H8.12089C8.3198 24.2445 8.48221 24.0832 8.48221 23.8832V21.0102C8.48221 20.8113 8.32097 20.6489 8.12089 20.6489H5.24792ZM13.6208 21.3703H11.4705V23.5206H13.6208V21.3703ZM11.1092 20.6489C10.9103 20.6489 10.7479 20.8101 10.7479 21.0102V23.8832C10.7479 24.0821 10.9091 24.2445 11.1092 24.2445H13.9821C14.1811 24.2445 14.3435 24.0832 14.3435 23.8832V21.0102C14.3435 20.8113 14.1822 20.6489 13.9821 20.6489H11.1092ZM19.482 21.3703H17.3317V23.5206H19.482V21.3703ZM16.9704 20.6489C16.7715 20.6489 16.6091 20.8101 16.6091 21.0102V23.8832C16.6091 24.0821 16.7703 24.2445 16.9704 24.2445H19.8434C20.0423 24.2445 20.2047 24.0832 20.2047 23.8832V21.0102C20.2047 20.8113 20.0435 20.6489 19.8434 20.6489H16.9704ZM8.46347 15.901C8.41639 15.7562 8.28104 15.6515 8.11981 15.6515H5.24683C5.04793 15.6515 4.88551 15.8127 4.88551 16.0128V18.8857C4.88551 19.0847 5.04676 19.2471 5.24683 19.2471H8.11981C8.31871 19.2471 8.48113 19.0858 8.48113 18.8857V16.8884L9.21202 16.1787C9.35444 16.0398 9.35797 15.8127 9.21909 15.6703C9.08021 15.5279 8.85307 15.5243 8.71064 15.6632L8.46348 15.9033L8.46347 15.901ZM6.07541 17.4087C5.92241 17.2815 5.9024 17.0556 6.02951 16.9026C6.15663 16.7496 6.38261 16.7295 6.53561 16.8567L7.04406 17.2803L7.75965 16.5848V16.3729H5.60935V18.5232H7.75965V17.5875L7.31357 18.0206C7.18293 18.1477 6.97578 18.1572 6.83336 18.0395L6.07658 17.4086L6.07541 17.4087Z" fill="url(#paint0_linear_1774_12)"/>
<defs>
<linearGradient id="paint0_linear_1774_12" x1="2.00007" y1="14.5602" x2="29.1199" y2="14.5602" gradientUnits="userSpaceOnUse">
<stop stop-color="#1685FF"/>
<stop offset="0.5" stop-color="#8B5CF6"/>
<stop offset="1" stop-color="#D946EF"/>
</linearGradient>
</defs>
</svg>
