<?xml version="1.0" encoding="UTF-8" standalone="no"?><!DOCTYPE svg PUBLIC "-//W3C//DTD SVG 1.1//EN" "http://www.w3.org/Graphics/SVG/1.1/DTD/svg11.dtd"><svg width="100%" height="100%" viewBox="0 0 200 200" version="1.1" xmlns="http://www.w3.org/2000/svg" xmlns:xlink="http://www.w3.org/1999/xlink" xml:space="preserve" xmlns:serif="http://www.serif.com/" style="fill-rule:evenodd;clip-rule:evenodd;stroke-linejoin:round;stroke-miterlimit:2;"><path d="M194.247,134.338l-12.938,5.309c-0.351,0.144 -0.713,0.213 -1.07,0.213c-1.113,0 -2.165,-0.662 -2.614,-1.753l-5.31,-12.938c-0.592,-1.443 0.098,-3.092 1.541,-3.684c1.443,-0.593 3.091,0.098 3.684,1.541l2.711,6.605c3.499,-9.454 5.279,-19.394 5.279,-29.631c0,-27.133 -13.082,-52.93 -34.993,-69.005c-1.257,-0.923 -1.528,-2.691 -0.607,-3.946c0.923,-1.258 2.691,-1.528 3.946,-0.607c11.31,8.297 20.691,19.249 27.128,31.674c6.653,12.842 10.17,27.325 10.17,41.884c0,11.002 -1.927,21.687 -5.723,31.843l6.653,-2.73c1.442,-0.593 3.091,0.098 3.684,1.541c0.592,1.442 -0.098,3.091 -1.541,3.684Zm-167.196,-84.264c0.503,0.37 1.087,0.547 1.667,0.547c0.869,0 1.726,-0.399 2.279,-1.154c16.075,-21.913 41.872,-34.994 69.003,-34.994c10.235,0 20.175,1.777 29.63,5.276l-6.607,2.711c-1.443,0.593 -2.131,2.241 -1.54,3.684c0.449,1.092 1.501,1.753 2.613,1.753c0.358,0 0.719,-0.069 1.071,-0.212l12.938,-5.31c1.443,-0.593 2.131,-2.241 1.54,-3.684l-5.31,-12.938c-0.592,-1.443 -2.241,-2.133 -3.684,-1.541c-1.443,0.593 -2.133,2.242 -1.54,3.685l2.73,6.65c-10.157,-3.794 -20.841,-5.721 -31.841,-5.721c-14.56,0 -29.042,3.518 -41.884,10.173c-12.423,6.438 -23.375,15.819 -31.672,27.129c-0.924,1.258 -0.651,3.025 0.607,3.946Zm22.418,118.93c-21.913,-16.076 -34.997,-41.87 -34.997,-69.004c0,-10.233 1.778,-20.171 5.279,-29.626l2.709,6.601c0.449,1.091 1.501,1.752 2.613,1.752c0.358,0 0.72,-0.068 1.071,-0.212c1.443,-0.592 2.131,-2.241 1.541,-3.684l-5.31,-12.938c-0.593,-1.442 -2.241,-2.131 -3.684,-1.54l-12.938,5.31c-1.443,0.592 -2.133,2.241 -1.541,3.684c0.593,1.443 2.242,2.131 3.684,1.54l6.653,-2.732c-3.796,10.161 -5.723,20.845 -5.723,31.845c0,14.56 3.517,29.042 10.172,41.884c6.439,12.423 15.82,23.375 27.13,31.673c0.503,0.37 1.087,0.546 1.667,0.546c0.869,0 1.726,-0.399 2.279,-1.153c0.923,-1.256 0.651,-3.023 -0.605,-3.946Zm123.482,-19.074c-1.257,-0.923 -3.025,-0.65 -3.946,0.607c-16.075,21.909 -41.871,34.991 -69.005,34.991c-10.237,0 -20.175,-1.778 -29.628,-5.277l6.603,-2.711c1.442,-0.592 2.133,-2.241 1.54,-3.684c-0.592,-1.443 -2.241,-2.131 -3.684,-1.541l-12.938,5.31c-0.692,0.285 -1.243,0.832 -1.532,1.524c-0.289,0.69 -0.291,1.468 -0.006,2.16l5.31,12.938c0.449,1.092 1.501,1.753 2.613,1.753c0.358,0 0.719,-0.069 1.071,-0.212c1.443,-0.593 2.133,-2.241 1.54,-3.684l-2.73,-6.653c10.157,3.796 20.841,5.723 31.843,5.723c14.56,0 29.042,-3.517 41.884,-10.17c12.425,-6.437 23.377,-15.818 31.675,-27.128c0.921,-1.257 0.648,-3.023 -0.61,-3.946Zm-72.718,19.244c-38.142,0 -69.172,-31.03 -69.172,-69.172c0,-38.142 31.03,-69.172 69.172,-69.172c38.142,0 69.174,31.028 69.174,69.17c0,38.142 -31.032,69.174 -69.174,69.174Zm2.59,-116.389c7.703,0.455 14.915,2.763 21.198,6.483c-5.353,-12.824 -13.052,-21.113 -21.198,-22.556l0,16.073Zm-5.646,-15.99c-7.878,1.659 -15.331,9.747 -20.575,22.107c6.136,-3.508 13.125,-5.676 20.575,-6.119l0,-15.988Zm-38.833,63.205c0,22.969 18.687,41.656 41.656,41.656c22.969,0 41.656,-18.687 41.656,-41.656c0,-22.969 -18.687,-41.656 -41.656,-41.656c-22.969,0 -41.656,18.687 -41.656,41.656Zm44.479,63.294c8.244,-1.44 15.87,-9.671 21.215,-22.57c-6.287,3.726 -13.503,6.036 -21.215,6.491l0,16.079Zm-26.237,-22.204c5.237,12.433 12.624,20.466 20.589,22.115l0,-15.988c-7.454,-0.443 -14.45,-2.615 -20.589,-6.127Zm41.063,20.009c10.233,-2.921 19.416,-8.352 26.847,-15.578c-4.254,-2.044 -9.069,-3.797 -14.242,-5.183c-3.308,8.734 -7.634,15.807 -12.605,20.761Zm30.88,-19.88c8.919,-10.435 14.522,-23.78 15.165,-38.396l-16.477,0c-0.74,12.525 -6.376,23.754 -15.019,31.795c-0.037,0.123 -0.075,0.243 -0.112,0.366c6.015,1.638 11.593,3.753 16.443,6.235Zm15.165,-44.042c-0.643,-14.62 -6.25,-27.972 -15.175,-38.408c-4.851,2.48 -10.425,4.592 -16.439,6.228c0.039,0.127 0.079,0.254 0.116,0.383c8.643,8.042 14.277,19.271 15.019,31.797l16.479,0Zm-19.211,-42.708c-7.41,-7.202 -16.561,-12.62 -26.759,-15.543c4.935,4.93 9.225,11.973 12.528,20.72c5.167,-1.387 9.98,-3.137 14.231,-5.177Zm-61.712,-15.551c-10.179,2.915 -19.318,8.312 -26.724,15.491c4.235,2.044 9.033,3.8 14.187,5.191c3.304,-8.73 7.601,-15.759 12.537,-20.682Zm-30.766,19.786c-8.956,10.445 -14.586,23.822 -15.231,38.473l16.009,0c0.755,-12.761 6.59,-24.177 15.51,-32.25c-5.988,-1.639 -11.441,-3.722 -16.288,-6.223Zm-15.231,44.119c0.645,14.643 6.266,28.013 15.215,38.456c4.844,-2.501 10.297,-4.584 16.283,-6.224c-8.907,-8.069 -14.734,-19.479 -15.489,-32.229l-16.009,0l0,-0.003Zm19.254,42.752c7.406,7.185 16.549,12.588 26.733,15.505c-1.042,-1.037 -2.055,-2.166 -3.036,-3.391c-3.684,-4.601 -6.915,-10.513 -9.495,-17.314c-5.16,1.395 -9.963,3.154 -14.202,5.2Zm12.47,-53.567c1.346,0.792 3.075,0.343 3.865,-1.002c5.741,-9.759 16.331,-15.819 27.635,-15.819c11.306,0 21.894,6.062 27.635,15.819c0.526,0.894 1.467,1.391 2.436,1.391c0.487,0 0.979,-0.125 1.428,-0.391c1.344,-0.79 1.793,-2.522 1.003,-3.865c-6.751,-11.474 -19.207,-18.603 -32.504,-18.603c-13.298,0 -25.751,7.129 -32.504,18.603c-0.786,1.345 -0.337,3.077 1.006,3.867Zm31.502,8.772c-4.528,0 -8.769,2.426 -11.067,6.335c-0.79,1.345 -0.343,3.075 1.002,3.865c0.449,0.264 0.942,0.39 1.429,0.39c0.966,0 1.91,-0.496 2.436,-1.393c1.289,-2.189 3.664,-3.551 6.2,-3.551c2.333,0 4.528,1.14 5.875,3.048c0.901,1.275 2.662,1.576 3.936,0.678c1.274,-0.9 1.578,-2.661 0.678,-3.936c-2.404,-3.403 -6.325,-5.436 -10.489,-5.436Zm0,-15.62c-8.913,0 -17.26,4.778 -21.784,12.468c-0.79,1.343 -0.343,3.075 1.002,3.865c0.449,0.264 0.942,0.391 1.428,0.391c0.967,0 1.911,-0.497 2.437,-1.391c3.515,-5.975 9.998,-9.686 16.917,-9.686c6.921,0 13.404,3.711 16.917,9.686c0.79,1.343 2.522,1.792 3.865,1.002c1.345,-0.79 1.792,-2.522 1.002,-3.865c-4.524,-7.692 -12.871,-12.47 -21.784,-12.47Zm7.418,37.882c0,4.092 -3.329,7.418 -7.418,7.418c-4.089,0 -7.418,-3.328 -7.418,-7.418c0,-4.091 3.329,-7.418 7.418,-7.418c4.089,0 7.418,3.329 7.418,7.418Zm-5.647,0c0,-0.977 -0.794,-1.771 -1.771,-1.771c-0.977,0 -1.771,0.794 -1.771,1.771c0,0.977 0.794,1.771 1.771,1.771c0.977,0 1.771,-0.794 1.771,-1.771Z" style="fill:url(#_Linear1);fill-rule:nonzero;"/><defs><linearGradient id="_Linear1" x1="0" y1="0" x2="1" y2="0" gradientUnits="userSpaceOnUse" gradientTransform="matrix(153.15,151.796,-151.796,153.15,20.0615,25.166)"><stop offset="0" style="stop-color:#2483ff;stop-opacity:1"/><stop offset="1" style="stop-color:#ce4bf2;stop-opacity:1"/></linearGradient></defs></svg>