<?xml version="1.0" encoding="UTF-8" standalone="no"?><!DOCTYPE svg PUBLIC "-//W3C//DTD SVG 1.1//EN" "http://www.w3.org/Graphics/SVG/1.1/DTD/svg11.dtd"><svg width="100%" height="100%" viewBox="0 0 512 512" version="1.1" xmlns="http://www.w3.org/2000/svg" xmlns:xlink="http://www.w3.org/1999/xlink" xml:space="preserve" xmlns:serif="http://www.serif.com/" style="fill-rule:evenodd;clip-rule:evenodd;stroke-linejoin:round;stroke-miterlimit:2;"><rect id="Artboard1" x="0" y="0" width="512" height="512" style="fill:none;"/><g><path d="M339.728,400.443l59.549,-0c3.73,-0 6.661,2.931 6.661,6.661l0,92.054c0,3.597 -2.931,6.661 -6.661,6.661l-59.549,0c-3.73,0 -6.661,-2.931 -6.661,-6.661l0,-92.054c0,-3.73 3.064,-6.661 6.661,-6.661Zm-92.587,-40.366l59.549,0c3.73,0 6.661,2.931 6.661,6.661l-0,132.287c-0,3.597 -2.931,6.661 -6.661,6.661l-59.549,-0c-3.73,-0 -6.661,-2.931 -6.661,-6.661l-0,-132.287c-0,-3.597 2.931,-6.661 6.661,-6.661Zm-92.721,12.257l59.549,-0c3.73,-0 6.661,2.93 6.661,6.661l0,120.03c0,3.597 -2.931,6.661 -6.661,6.661l-59.549,-0c-3.73,-0 -6.661,-2.931 -6.661,-6.661l0,-120.03c0,-3.597 2.931,-6.661 6.661,-6.661Zm-92.587,51.555l59.549,0c3.73,0 6.661,2.931 6.661,6.661l0,68.608c0,3.597 -2.931,6.661 -6.661,6.661l-59.549,0c-3.73,0 -6.661,-2.931 -6.661,-6.661l0,-68.608c-0.133,-3.73 2.931,-6.661 6.661,-6.661Zm370.616,-97.25l59.549,0c3.73,0 6.661,2.931 6.661,6.661l-0,165.725c-0,3.597 -2.931,6.661 -6.661,6.661l-59.549,-0c-3.73,-0 -6.661,-2.931 -6.661,-6.661l-0,-165.725c-0,-3.597 2.931,-6.661 6.661,-6.661Zm-340.908,24.113c5.062,0 9.725,1.466 13.588,4.13l56.352,-43.962c-6.661,-16.12 5.196,-33.971 22.78,-33.971c7.328,-0 13.989,3.197 18.518,8.393l49.957,-23.98c-4.13,-23.713 24.646,-38.767 41.698,-21.715c6.128,6.128 8.659,15.187 6.394,23.847l53.554,32.239c6.395,-5.196 15.054,-6.795 23.047,-4.13l61.947,-43.696c-5.995,-15.986 5.862,-33.305 23.047,-33.305c21.848,0 32.905,26.511 17.452,41.964c-8.793,8.793 -22.781,9.725 -32.639,1.998l-58.35,41.032c12.789,15.986 1.332,39.966 -19.317,39.966c-17.052,-0 -28.908,-17.052 -23.18,-33.039l-52.621,-31.706c-10.125,9.592 -26.111,8.793 -35.303,-1.598l-49.958,24.112c3.864,21.848 -21.048,37.168 -38.9,24.113l-55.818,43.429c7.593,16.253 -4.13,35.037 -22.248,35.037c-21.848,-0 -32.905,-26.511 -17.452,-41.964c4.53,-4.396 10.658,-7.194 17.452,-7.194Zm52.488,-270.168c-20.382,-8.393 -14.92,1.732 -23.18,-23.58l-16.386,-0l-4.796,14.787c-0.666,2.132 -2.531,3.864 -4.929,4.396c-8.925,1.999 -18.251,5.862 -25.978,10.791c-1.998,1.332 -4.529,1.466 -6.66,0.4l-13.855,-7.061l-11.59,11.59c12.123,23.713 8.659,12.656 0.266,33.039c-8.393,20.382 1.732,14.92 -23.58,23.18l0,16.386l14.788,4.796c2.131,0.666 3.863,2.531 4.396,4.929c1.998,8.925 5.862,18.251 10.791,25.977c1.332,1.866 1.465,4.53 0.399,6.661l-7.194,14.122l11.591,11.59c23.713,-12.123 12.655,-8.66 33.038,-0.267c20.382,8.393 14.92,-1.732 23.18,23.58l16.386,0l4.796,-14.787c0.666,-2.132 2.531,-3.864 4.929,-4.396c8.926,-1.999 18.384,-5.862 25.978,-10.791c1.998,-1.332 4.529,-1.466 6.661,-0.4l13.854,7.061l11.591,-11.59c-12.123,-23.713 -8.66,-12.656 -0.267,-33.039c8.393,-20.382 -1.732,-14.92 23.58,-23.18l-0,-16.386l-14.787,-4.796c-2.132,-0.666 -3.864,-2.531 -4.397,-4.929c-1.998,-8.925 -5.861,-18.384 -10.79,-25.977c-1.333,-1.866 -1.466,-4.397 -0.4,-6.661l7.061,-13.855l-11.591,-11.59c-23.579,11.856 -12.522,8.392 -32.905,-0Zm-1.465,45.827c-16.519,-16.519 -43.43,-16.519 -59.949,0c-16.519,16.519 -16.519,43.43 0,60.082c16.519,16.519 43.43,16.519 59.949,-0c16.652,-16.652 16.652,-43.563 -0,-60.082Zm-29.974,-25.711c30.773,-0 55.685,24.912 55.685,55.685c0,30.774 -24.912,55.819 -55.685,55.819c-30.774,0 -55.819,-24.912 -55.819,-55.819c0.133,-30.773 25.045,-55.685 55.819,-55.685Z" style="fill:url(#_Linear1);fill-rule:nonzero;"/><path d="M347.988,194.619l54.486,0c0.267,-0.533 0.4,-1.332 0.4,-2.264l0,-14.521c0,-0.933 -0.133,-1.732 -0.4,-2.265l-54.486,-0c-0.267,0.533 -0.4,1.332 -0.4,2.265l0,14.521c0,0.932 0.133,1.731 0.4,2.264Zm65.277,-128.023c-21.048,-20.916 -55.019,-20.916 -75.935,-0c-9.725,9.725 -15.72,23.18 -15.72,37.967c0,34.904 22.514,43.163 30.774,57.684l46.094,0c8.393,-14.388 30.64,-22.78 30.64,-57.684c-0.133,-14.787 -6.128,-28.242 -15.853,-37.967Zm-44.628,-53.821c-0,-8.792 13.322,-8.792 13.322,0l-0,12.39c-0,8.792 -13.322,8.792 -13.322,-0l-0,-12.39Zm-46.094,15.986c-4.396,-7.593 7.194,-14.254 11.457,-6.661l6.261,10.791c4.396,7.594 -7.194,14.255 -11.457,6.661l-6.261,-10.791Zm-31.973,36.769c-7.593,-4.396 -0.932,-15.853 6.661,-11.457l10.791,6.128c7.594,4.396 0.933,15.853 -6.661,11.457l-10.791,-6.128Zm-9.325,47.959c-8.792,-0 -8.792,-13.322 0,-13.322l12.389,-0c8.793,-0 8.793,13.322 0,13.322l-12.389,-0Zm135.217,-91.389c1.866,-3.197 5.862,-4.263 9.059,-2.397c3.198,1.865 4.263,5.861 2.398,9.058l-6.128,10.791c-4.396,7.594 -15.853,0.933 -11.457,-6.661l6.128,-10.791Zm36.902,31.973c7.594,-4.396 14.121,7.194 6.661,11.457l-10.791,6.261c-7.593,4.396 -14.254,-7.194 -6.661,-11.457l10.791,-6.261Zm15.853,46.094c8.793,-0 8.793,13.322 0,13.322l-12.389,-0c-8.793,-0 -8.793,-13.322 -0,-13.322l12.389,-0Zm-104.843,121.629l21.848,-0l-0,-13.722l-21.848,0l-0,13.722Zm-67.276,-62.213c-7.593,4.396 -14.121,-7.194 -6.661,-11.457l10.791,-6.128c7.593,-4.397 14.121,7.194 6.661,11.457l-10.791,6.128Zm162.927,-11.457c3.197,1.865 4.263,5.861 2.398,9.059c-1.865,3.197 -5.862,4.263 -9.059,2.398l-10.791,-6.128c-7.593,-4.397 -0.932,-15.854 6.661,-11.457l10.791,6.128Zm-111.771,-27.443c-6.261,-6.262 3.198,-15.587 9.459,-9.459l9.192,9.192l26.111,-26.111c6.128,-6.128 15.587,3.198 9.458,9.459l-30.773,30.773c-2.531,2.665 -6.794,2.665 -9.459,0l-13.988,-13.854Z" style="fill:#ffc100;fill-rule:nonzero;"/></g><defs><linearGradient id="_Linear1" x1="0" y1="0" x2="1" y2="0" gradientUnits="userSpaceOnUse" gradientTransform="matrix(474.148,0,0,438.51,19.4224,276.687)"><stop offset="0" style="stop-color:#565ae2;stop-opacity:1"/><stop offset="1" style="stop-color:#7d71fe;stop-opacity:1"/></linearGradient></defs></svg>