<svg width="111" height="110" viewBox="0 0 111 110" fill="none" xmlns="http://www.w3.org/2000/svg">
<path d="M67.8188 47.1354C67.7844 47.1698 67.7458 47.2042 67.7071 47.2428C66.3069 43.4157 63.2101 40.5208 59.4087 39.3268C61.6379 37.991 63.137 35.5513 63.137 32.7636C63.137 28.55 59.7094 25.1224 55.4958 25.1224C51.2822 25.1224 47.8546 28.55 47.8546 32.7636C47.8546 35.5469 49.3537 37.9909 51.5828 39.3268C47.7816 40.5208 44.6848 43.4159 43.2845 47.2428C43.2501 47.2085 43.2114 47.1741 43.1728 47.1354C36.3777 40.3404 36.3777 29.2849 43.1728 22.4896C46.5703 19.0964 51.033 17.3955 55.4957 17.3955C59.9585 17.3955 64.4212 19.0921 67.8187 22.4896C74.6137 29.2846 74.6138 40.3401 67.8188 47.1354ZM55.4959 40.4049C50.4705 40.4049 46.085 43.6865 44.6504 48.4499C47.7258 50.9025 51.5056 52.2382 55.4959 52.2382C59.4861 52.2382 63.2659 50.9025 66.3413 48.4499C64.9067 43.6865 60.5212 40.4049 55.4959 40.4049ZM61.4576 32.7638C61.4576 29.4779 58.7817 26.802 55.4959 26.802C52.21 26.802 49.5341 29.4779 49.5341 32.7638C49.5341 36.0496 52.21 38.7256 55.4959 38.7256C58.7817 38.7256 61.4576 36.0496 61.4576 32.7638ZM59.9891 62.8424C57.0039 63.3191 53.9887 63.3191 51.012 62.8424L50.6297 58.9509C50.5954 58.5944 50.3334 58.298 49.9854 58.2164C47.4641 57.6279 45.0631 56.6315 42.8511 55.2613C42.5461 55.0723 42.1509 55.0981 41.8761 55.3257L38.8608 57.804C36.4125 56.0344 34.2821 53.8997 32.5125 51.4558L34.9908 48.4405C35.2185 48.1613 35.2443 47.7704 35.0553 47.4655C33.6851 45.2535 32.693 42.8524 32.1002 40.3311C32.0186 39.9789 31.7222 39.7212 31.3614 39.6868L27.4699 39.3089C26.9931 36.3237 26.9931 33.3085 27.4699 30.3232L31.3614 29.9453C31.7179 29.9109 32.0186 29.6489 32.1002 29.301C32.6886 26.7711 33.6851 24.3743 35.0553 22.1666C35.2443 21.8616 35.2185 21.4665 34.9908 21.1916L32.5125 18.172C34.2822 15.728 36.4169 13.5976 38.8608 11.8238L41.8761 14.3064C42.1552 14.534 42.5461 14.5598 42.8511 14.3708C45.0717 12.9963 47.4727 11.9999 49.9854 11.4114C50.3334 11.3298 50.5954 11.0334 50.6297 10.6769L51.012 6.7897C54.0058 6.31294 57.021 6.31294 59.9891 6.7897L60.367 10.6769C60.4014 11.0334 60.6634 11.3341 61.0113 11.4157C63.5284 12.0042 65.9294 13.0006 68.1457 14.3751C68.4506 14.5641 68.8458 14.5383 69.1207 14.3107L72.1402 11.8281C74.5843 13.602 76.7147 15.7324 78.4885 18.1763L76.0059 21.1959C75.7783 21.4751 75.7525 21.8659 75.9415 22.1709C77.3159 24.3872 78.3124 26.7882 78.9009 29.3053C78.9825 29.6575 79.2789 29.9152 79.6397 29.9496L83.5312 30.3275C84.0079 33.3127 84.0079 36.3279 83.5312 39.3131L79.6397 39.6911C79.2832 39.7255 78.9868 39.9832 78.9009 40.3354C78.3124 42.8482 77.3159 45.2492 75.9415 47.4698C75.7525 47.7747 75.7783 48.1699 76.0059 48.4448L78.4885 51.4601C76.7103 53.9127 74.5756 56.0474 72.1402 57.8083L69.1207 55.33C68.8415 55.1024 68.4506 55.0766 68.1457 55.2656C65.938 56.6358 63.5412 57.6279 61.0113 58.2207C60.6591 58.3023 60.4014 58.5987 60.367 58.9595L59.9891 62.851V62.8424ZM55.5006 53.9169C60.0535 53.9169 64.3616 52.332 67.8026 49.4284C67.8198 49.4156 67.8327 49.4027 67.8499 49.3855C68.2493 49.0462 68.6402 48.694 69.0139 48.3203C72.6218 44.7124 74.6105 39.9146 74.6105 34.812C74.6105 29.7094 72.6218 24.9115 69.0139 21.2993C61.566 13.8557 49.4403 13.8557 41.9929 21.2993C38.385 24.9072 36.3963 29.705 36.3963 34.8076C36.3963 39.9102 38.385 44.7081 41.9929 48.3159C42.3666 48.6896 42.7575 49.0418 43.1569 49.3811C43.1741 49.394 43.187 49.4112 43.2042 49.424C46.6446 52.3276 50.9528 53.9125 55.5062 53.9125L55.5006 53.9169Z" fill="#FFC100"/>
<path d="M89.729 64.5868V56.4603C89.5786 56.4388 89.4283 56.4302 89.278 56.4302C87.4096 56.4302 85.8848 57.9507 85.8848 59.8234V64.2389C87.1734 63.775 88.5821 63.9253 89.729 64.5911L89.729 64.5868ZM104.668 48.5053C104.212 47.715 103.482 47.1523 102.61 46.9204C101.738 46.6842 100.828 46.8044 100.042 47.2597C99.2514 47.715 98.6887 48.4452 98.4568 49.3171L93.44 68.0352C92.9074 70.0239 92.5724 70.7068 91.3998 71.3898L89.7675 72.3347C89.759 72.339 89.7547 72.3433 89.7461 72.3476L79.124 78.5242C78.9908 78.6015 78.8448 78.6401 78.703 78.6401C78.4153 78.6401 78.1318 78.4898 77.9771 78.2235C77.7452 77.824 77.8783 77.3086 78.2821 77.0723L88.8483 70.9302C88.8569 70.9259 88.8612 70.9173 88.8698 70.913H88.8741C90.2486 70.1141 90.7125 68.4304 89.935 67.0774C89.1404 65.7115 87.3751 65.239 86.0049 66.0294L85.5282 66.3043C85.5153 66.3129 85.5024 66.3171 85.4938 66.3257L71.891 74.1817C71.8738 74.1902 71.8609 74.1988 71.8437 74.2074C71.0061 74.6241 70.2502 75.5432 70.0096 76.4453L66.6809 88.854L79.2182 92.2128L79.738 90.2586C80.1374 88.7681 80.829 88.2442 81.9242 87.5526C81.9328 87.5483 81.9414 87.5398 81.95 87.5355L96.0257 79.4046C97.0909 78.7904 97.8512 77.7896 98.1733 76.5956L105.011 51.0777C105.248 50.2058 105.127 49.2952 104.672 48.5092L104.668 48.5053ZM96.1631 51.366C95.7379 51.1813 95.2783 51.0825 94.8101 51.0825C92.9374 51.0825 91.4126 52.603 91.4126 54.4757V66.2873C91.6145 66.6524 91.7648 67.0304 91.8593 67.4126L96.1631 51.366ZM83.2519 96.3067L81.5338 102.707C81.3362 103.437 80.5201 103.617 79.8802 103.557L59.2631 101.598C58.9925 101.573 58.8164 101.392 58.7134 101.246C58.4943 100.933 58.4213 100.49 58.5201 100.112L61.123 90.3837C61.2089 90.0615 61.4151 89.7952 61.7071 89.6277C61.8961 89.516 62.1066 89.4602 62.3213 89.4602C62.4287 89.4602 62.5361 89.4731 62.6392 89.5031L82.3667 94.7906C83.0281 94.9667 83.419 95.6496 83.2472 96.3068L83.2519 96.3067ZM66.6252 96.2079L63.0903 95.2587C62.6436 95.1384 62.1797 95.4047 62.0595 95.8514C61.9392 96.2981 62.2055 96.762 62.6522 96.8823L66.1871 97.8315C66.2601 97.853 66.3332 97.8616 66.4062 97.8616C66.7756 97.8616 67.1149 97.6125 67.218 97.2388C67.3382 96.7921 67.0719 96.3282 66.6252 96.2079ZM52.4768 100.099C52.5756 100.481 52.4983 100.928 52.2792 101.246C52.1761 101.392 52 101.568 51.738 101.594L31.121 103.552C30.4767 103.613 29.6606 103.428 29.4673 102.706L27.7492 96.3021C27.5731 95.645 27.964 94.9664 28.6212 94.7859L48.353 89.4985C48.4604 89.4684 48.5678 89.4556 48.6752 89.4556C48.8899 89.4556 49.1047 89.5114 49.2937 89.6231C49.5815 89.7906 49.7833 90.0569 49.8692 90.3747L52.4765 100.095L52.4768 100.099ZM48.9375 95.8511C48.8172 95.4044 48.3576 95.1381 47.9066 95.2584L44.3673 96.2076C43.9206 96.3279 43.6543 96.7875 43.7746 97.2385C43.8734 97.6164 44.2127 97.8613 44.5864 97.8613C44.6594 97.8613 44.7324 97.8527 44.8054 97.8312L48.3447 96.882C48.7914 96.7617 49.0577 96.3021 48.9375 95.8511ZM19.1764 67.2798C19.2709 66.9447 19.404 66.614 19.5801 66.2918V54.467C19.5801 52.5986 18.0596 51.0738 16.1869 51.0738C15.7145 51.0738 15.2592 51.1726 14.8339 51.3573L19.1033 67.2759H19.1721L19.1764 67.2798ZM25.1123 64.2259V59.8104C25.1123 57.9421 23.5875 56.4173 21.7148 56.4173C21.5645 56.4173 21.4142 56.4302 21.2638 56.4516V64.5781C22.4107 63.9081 23.8238 63.7578 25.1166 64.2259L25.1123 64.2259ZM29.0768 87.5446C30.1721 88.2404 30.8679 88.7687 31.2631 90.2505L31.7828 92.2005L44.3158 88.8417L40.9913 76.4329C40.7508 75.5352 39.9949 74.6118 39.1573 74.1951C39.1401 74.1865 39.1272 74.1779 39.11 74.1693L25.5116 66.3134C25.4987 66.3048 25.4858 66.3005 25.4729 66.2919L24.9961 66.017C23.6217 65.2267 21.8563 65.6992 21.066 67.0694C20.2886 68.4224 20.7525 70.1018 22.1227 70.9007L22.1313 70.905C22.1484 70.9136 22.1613 70.9265 22.1742 70.9351L32.7189 77.06C33.1184 77.292 33.2558 77.8074 33.0239 78.2112C32.8692 78.4775 32.5857 78.6278 32.298 78.6278C32.1562 78.6278 32.0102 78.5935 31.877 78.5162L21.2506 72.3396C21.2335 72.331 21.2206 72.3181 21.2077 72.3096L19.6056 71.3818C18.5103 70.7461 18.1453 70.1105 17.6728 68.4353C17.6513 68.3794 17.6341 68.3193 17.6255 68.2592C17.604 68.1818 17.5826 68.1045 17.5611 68.0229L12.5443 49.3082C12.3081 48.4362 11.7454 47.7018 10.9551 47.2507C10.169 46.7954 9.25414 46.6752 8.39086 46.9114C7.51463 47.1476 6.78449 47.706 6.32916 48.4963C5.87387 49.2824 5.75359 50.1973 5.98554 51.0691L12.8279 76.587C13.15 77.7853 13.9103 78.7818 14.9754 79.3961L29.0467 87.5269C29.0553 87.5312 29.0682 87.5403 29.0768 87.5446Z" fill="url(#paint0_linear_362_1388)"/>
<defs>
<linearGradient id="paint0_linear_362_1388" x1="96.1498" y1="43.5956" x2="45.2375" y2="117.671" gradientUnits="userSpaceOnUse">
<stop stop-color="#8B5CF6"/>
<stop offset="1" stop-color="#1685FF"/>
</linearGradient>
</defs>
</svg>
