<?xml version="1.0" encoding="UTF-8" standalone="no"?><!DOCTYPE svg PUBLIC "-//W3C//DTD SVG 1.1//EN" "http://www.w3.org/Graphics/SVG/1.1/DTD/svg11.dtd"><svg width="100%" height="100%" viewBox="0 0 100 100" version="1.1" xmlns="http://www.w3.org/2000/svg" xmlns:xlink="http://www.w3.org/1999/xlink" xml:space="preserve" xmlns:serif="http://www.serif.com/" style="fill-rule:evenodd;clip-rule:evenodd;stroke-linejoin:round;stroke-miterlimit:2;"><rect id="Artboard1" x="0" y="0" width="100" height="100" style="fill:none;"/><path d="M83.749,53.59c-0.45,0.422 -1.142,0.468 -1.643,0.108c-1.973,-1.289 -4.176,-2.185 -6.489,-2.638c-0.62,-0.105 -1.079,-0.647 -1.081,-1.276l0,-3.623l-1.081,-1.081l-2.996,-0l-1.081,1.081l-0,3.623c0.003,0.631 -0.459,1.175 -1.081,1.276c-1.168,0.251 -2.308,0.614 -3.407,1.081c-1.085,0.45 -2.125,1.004 -3.103,1.655c-0.516,0.402 -1.259,0.355 -1.72,-0.109l-2.584,-2.584l-1.536,-0l-2.162,2.109l-0,1.535l2.563,2.552c0.463,0.453 0.523,1.186 0.14,1.709c-0.644,0.984 -1.195,2.027 -1.644,3.114c-0.472,1.093 -0.834,2.231 -1.081,3.395c-0.101,0.623 -0.645,1.085 -1.276,1.082l-3.568,-0l-1.082,1.081l0,2.985l1.082,1.081l3.622,0c0.631,-0.003 1.175,0.459 1.276,1.081c0.34,1.642 0.896,3.231 1.655,4.726c0.303,0.628 0.642,1.239 1.016,1.828c0.401,0.514 0.359,1.253 -0.097,1.719l-2.563,2.563l0,1.535l2.163,2.163l1.535,-0l2.563,-2.563c0.441,-0.456 1.152,-0.529 1.676,-0.173c0.981,0.643 2.02,1.193 3.104,1.644c1.096,0.472 2.238,0.834 3.406,1.081c0.624,0.106 1.085,0.654 1.081,1.287l0,3.558l1.082,1.081l2.984,-0l1.082,-1.081l-0,-3.58c-0.004,-0.633 0.457,-1.181 1.081,-1.286c1.165,-0.247 2.302,-0.609 3.395,-1.082c1.102,-0.438 2.16,-0.982 3.158,-1.622c0.514,-0.4 1.254,-0.359 1.719,0.097l2.552,2.563l1.536,0l2.163,-2.162l-0,-1.46l-2.563,-2.563c-0.464,-0.461 -0.511,-1.204 -0.108,-1.719c0.652,-0.978 1.207,-2.017 1.654,-3.104c0.468,-1.095 0.83,-2.232 1.081,-3.395c0.101,-0.623 0.646,-1.085 1.276,-1.082l3.537,0l1.081,-1.081l-0,-3.017l-1.017,-1.017l-3.611,-0.065c-0.653,0.031 -1.233,-0.436 -1.341,-1.081c-0.245,-1.183 -0.608,-2.338 -1.082,-3.449c-0.447,-1.091 -1.001,-2.134 -1.654,-3.115c-0.403,-0.515 -0.356,-1.258 0.108,-1.719l2.563,-2.563l-0,-1.492l-2.163,-2.109l-1.481,0l-2.639,2.498Zm-22.849,19.465c-0.507,-0.185 -0.846,-0.67 -0.846,-1.21c-0,-0.705 0.58,-1.286 1.286,-1.286c0.225,-0 0.446,0.059 0.641,0.171l0.401,0.183c-0.765,-4.265 1.407,-8.55 5.298,-10.456c0.214,-0.143 0.465,-0.22 0.723,-0.22c0.712,0 1.297,0.586 1.297,1.298c0,0.576 -0.384,1.087 -0.938,1.247c-2.703,1.331 -4.291,4.229 -3.958,7.223l0.173,-0.346c0.184,-0.507 0.669,-0.846 1.209,-0.846c0.706,-0 1.287,0.581 1.287,1.286c-0,0.225 -0.059,0.446 -0.171,0.641l-1.503,3.158c-0.199,0.488 -0.676,0.809 -1.203,0.809c-0.218,0 -0.433,-0.055 -0.625,-0.16l-3.147,-1.514l0.076,0.022Zm13.312,-15.356c0.215,-0.145 0.469,-0.223 0.73,-0.223c0.715,-0 1.304,0.589 1.304,1.305c0,0.433 -0.216,0.839 -0.575,1.081l-0.356,0.249c4.07,1.471 6.693,5.489 6.401,9.808c0,0.001 0,0.003 0,0.005c0,0.711 -0.586,1.297 -1.297,1.297c-0.712,0 -1.298,-0.586 -1.298,-1.297c0,-0.056 0.004,-0.112 0.011,-0.168c0.197,-3.019 -1.543,-5.851 -4.326,-7.039l0.227,0.324c0.144,0.214 0.221,0.467 0.221,0.725c-0,0.714 -0.588,1.301 -1.302,1.301c-0.434,0 -0.84,-0.216 -1.081,-0.577l-1.893,-2.898c-0.182,-0.228 -0.281,-0.511 -0.281,-0.803c0,-0.457 0.244,-0.88 0.638,-1.111l2.877,-1.979Zm6.672,19.227c0.007,0.054 0.01,0.109 0.01,0.164c0,0.712 -0.586,1.298 -1.298,1.298c-0.7,-0 -1.281,-0.567 -1.297,-1.268l0,-0.432c-3.308,2.795 -8.103,3.061 -11.7,0.649c-0.362,-0.241 -0.58,-0.647 -0.58,-1.082c0,-0.712 0.587,-1.298 1.299,-1.298c0.256,-0 0.506,0.075 0.719,0.217c2.504,1.681 5.813,1.607 8.24,-0.184l-0.4,0c-0.055,0.007 -0.111,0.011 -0.166,0.011c-0.712,-0 -1.298,-0.586 -1.298,-1.298c0,-0.705 0.575,-1.288 1.28,-1.297l3.504,-0.227c0.033,-0.003 0.067,-0.004 0.1,-0.004c0.671,-0 1.235,0.524 1.284,1.193l0.281,3.558l0.022,-0Zm-8.932,-23.184c8.473,0.005 15.441,6.979 15.441,15.452c0,8.477 -6.975,15.453 -15.452,15.453c-8.477,-0 -15.453,-6.976 -15.453,-15.453l0,0c0,-8.477 6.976,-15.453 15.453,-15.453c0.003,0 0.007,0 0.011,0.001Zm9.094,6.358c2.408,2.41 3.763,5.681 3.763,9.089c-0,7.053 -5.804,12.857 -12.857,12.857c-7.054,0 -12.858,-5.804 -12.858,-12.857c0,-3.408 1.355,-6.679 3.763,-9.089c4.991,-4.985 13.198,-4.985 18.189,-0Zm1.654,-9.073l2.282,-2.162c0.243,-0.228 0.564,-0.356 0.897,-0.357l2.607,-0c0.346,0.001 0.677,0.141 0.919,0.389l2.865,2.866c0.272,0.269 0.41,0.646 0.379,1.027l-0,2.487c-0.004,0.343 -0.14,0.673 -0.379,0.919l-2.162,2.163c1.041,1.783 1.814,3.711 2.292,5.72l3.244,0.054c0.334,0.005 0.653,0.141 0.887,0.379l1.752,1.73c0.243,0.244 0.379,0.575 0.378,0.919l0,4.055c-0.001,0.346 -0.141,0.678 -0.389,0.919l-1.838,1.839c-0.244,0.243 -0.575,0.379 -0.92,0.378l-3.114,0c-0.502,1.981 -1.288,3.879 -2.336,5.634l2.163,2.163c0.24,0.241 0.377,0.568 0.379,0.908l-0,2.649c-0.001,0.35 -0.141,0.685 -0.39,0.93l-2.855,2.855c-0.241,0.248 -0.573,0.389 -0.919,0.39l-2.563,-0c-0.349,-0.001 -0.684,-0.141 -0.929,-0.39l-2.163,-2.162c-1.753,1.051 -3.651,1.838 -5.634,2.335l-0,3.125c-0.001,0.347 -0.141,0.678 -0.389,0.92l-1.893,1.816c-0.241,0.241 -0.567,0.377 -0.908,0.379l-4.044,-0c-0.346,-0.002 -0.677,-0.143 -0.92,-0.39l-1.838,-1.827c-0.241,-0.245 -0.377,-0.575 -0.378,-0.919l-0,-3.125c-1.983,-0.497 -3.881,-1.284 -5.634,-2.336l-2.163,2.163c-0.241,0.248 -0.573,0.388 -0.919,0.389l-2.66,-0c-0.35,-0 -0.685,-0.141 -0.93,-0.389l-2.855,-2.866c-0.247,-0.241 -0.384,-0.574 -0.378,-0.919l-0,-2.563c-0.002,-0.345 0.134,-0.676 0.378,-0.919l2.163,-2.163l-0.249,-0.422l-46.79,0c-2.966,0 -5.407,-2.44 -5.407,-5.406l-0,-9.268c-0,-2.966 2.441,-5.406 5.407,-5.406l2.422,-0l-0,-7.678l-2.422,-0c-2.966,-0 -5.407,-2.441 -5.407,-5.407l-0,-9.224c-0,-2.966 2.441,-5.407 5.407,-5.407l2.422,0l-0,-7.688l-2.422,-0c-2.966,-0 -5.407,-2.441 -5.407,-5.407l-0,-9.224c-0,-2.966 2.441,-5.407 5.407,-5.407l59.096,0c2.966,0 5.407,2.441 5.407,5.407l-0,9.267c-0,2.966 -2.441,5.407 -5.407,5.407l-2.422,0l-0,7.678l2.422,-0c2.966,-0 5.407,2.441 5.407,5.407l-0,5.19l2.768,0c0.346,0.002 0.677,0.142 0.919,0.389l1.838,1.839c0.244,0.244 0.38,0.575 0.379,0.919l-0,3.114c1.964,0.476 3.845,1.245 5.58,2.282l-0.033,0.032Zm-31.197,13.052l-3.125,0c-0.341,0.002 -0.667,0.138 -0.908,0.379l-1.795,1.784c-0.249,0.245 -0.389,0.581 -0.39,0.93l0,4.055c0.002,0.344 0.138,0.674 0.379,0.919l1.838,1.828c0.242,0.247 0.573,0.387 0.919,0.389l3.125,0c0.226,0.893 0.508,1.77 0.844,2.628l-45.644,-0c-0.008,-0 -0.015,-0 -0.022,-0c-1.526,-0 -2.784,-1.253 -2.79,-2.779l0,-9.268c0.006,-1.526 1.264,-2.779 2.79,-2.779c0.007,0 0.014,0 0.022,0l45.319,0c-0.216,0.617 -0.4,1.233 -0.562,1.86l0,0.054Zm1.676,-4.444l-41.448,-0l-0,-7.775l39.805,-0c-0.187,0.224 -0.286,0.508 -0.282,0.8l0,2.606c-0.005,0.345 0.132,0.678 0.379,0.919l2.163,2.163c-0.228,0.389 -0.455,0.789 -0.66,1.19l0.043,0.097Zm7.97,-8.532l-2.163,-2.163c-0.241,-0.248 -0.573,-0.388 -0.919,-0.389l-2.66,-0c-0.627,-0 -0.909,0.368 -1.309,0.768l-47.352,-0c-0.008,-0 -0.015,-0 -0.022,-0c-1.531,-0 -2.79,-1.26 -2.79,-2.79c-0,-0.015 -0,-0.029 0,-0.043l0,-9.257c0.006,-1.526 1.264,-2.779 2.79,-2.779c0.007,-0 0.014,0 0.022,0l59.096,0c1.522,0.006 2.773,1.257 2.779,2.779l-0,6.023l-1.449,1.449c-0.249,0.246 -0.389,0.581 -0.389,0.93l-0,3.115c-1.984,0.504 -3.883,1.298 -5.634,2.357Zm-20.708,14.782c-2.029,0 -3.698,1.67 -3.698,3.698c-0,2.029 1.669,3.699 3.698,3.699c2.029,-0 3.698,-1.67 3.698,-3.699c0,-2.028 -1.669,-3.698 -3.698,-3.698Zm-27.856,4.985l14.49,0c0.04,0.004 0.079,0.006 0.119,0.006c0.711,-0 1.297,-0.586 1.297,-1.298c0,-0.712 -0.586,-1.298 -1.297,-1.298c-0.04,0 -0.079,0.002 -0.119,0.006l-14.49,-0c-0.039,-0.004 -0.079,-0.006 -0.118,-0.006c-0.712,0 -1.298,0.586 -1.298,1.298c0,0.712 0.586,1.298 1.298,1.298c0.039,-0 0.079,-0.002 0.118,-0.006Zm48.585,-32.743c2.029,-0 3.699,1.669 3.699,3.698c-0,2.029 -1.67,3.698 -3.699,3.698c-2.028,0 -3.698,-1.669 -3.698,-3.698c0,-2.029 1.67,-3.698 3.698,-3.698Zm-10.359,-0c2.029,-0 3.698,1.669 3.698,3.698c0,2.029 -1.669,3.698 -3.698,3.698c-2.029,0 -3.698,-1.669 -3.698,-3.698c-0,-2.029 1.669,-3.698 3.698,-3.698Zm-10.37,-0c-2.029,-0 -3.698,1.669 -3.698,3.698c-0,2.029 1.669,3.698 3.698,3.698c2.029,0 3.698,-1.669 3.698,-3.698c0,-2.029 -1.669,-3.698 -3.698,-3.698Zm-27.856,5.028l14.49,-0c0.712,-0 1.298,-0.586 1.298,-1.298c-0,-0.711 -0.586,-1.297 -1.298,-1.297l-14.49,-0c-0.712,-0 -1.298,0.586 -1.298,1.297c0,0.712 0.586,1.298 1.298,1.298Zm48.229,-11.3l-0,-7.721l-49.083,-0l-0,7.721l49.083,-0Zm0.346,-21.411c-2.029,-0 -3.699,1.669 -3.699,3.698c0,2.029 1.67,3.698 3.699,3.698c2.028,0 3.698,-1.669 3.698,-3.698c-0,-0.003 -0,-0.007 -0,-0.011c-0.006,-2.024 -1.674,-3.687 -3.698,-3.687Zm-10.36,-0c-0.003,-0 -0.007,-0 -0.011,-0c-2.028,-0 -3.698,1.669 -3.698,3.698c0,2.029 1.67,3.698 3.698,3.698c2.029,0 3.699,-1.669 3.699,-3.698c-0,-0.003 -0,-0.007 -0,-0.011c-0.006,-2.02 -1.667,-3.681 -3.688,-3.687Zm-10.37,-0c-2.029,-0 -3.698,1.669 -3.698,3.698c-0,2.029 1.669,3.698 3.698,3.698c2.029,0 3.698,-1.669 3.698,-3.698l0,-0.011c0,-2.023 -1.664,-3.687 -3.687,-3.687c-0.004,-0 -0.007,-0 -0.011,-0Zm-27.845,4.974l14.49,0c0.04,0.004 0.079,0.006 0.119,0.006c0.711,-0 1.297,-0.586 1.297,-1.298c0,-0.712 -0.586,-1.298 -1.297,-1.298c-0.04,0 -0.079,0.002 -0.119,0.006l-14.49,-0c-0.039,-0.004 -0.079,-0.006 -0.118,-0.006c-0.712,0 -1.298,0.586 -1.298,1.298c0,0.712 0.586,1.298 1.298,1.298c0.039,-0 0.079,-0.002 0.118,-0.006Zm53.257,-8.651l-59.096,0c-1.519,-0.012 -2.783,1.218 -2.812,2.736l0,9.267c0.006,1.527 1.264,2.78 2.79,2.78c0.007,-0 0.014,-0 0.022,-0.001l59.096,0c1.522,-0.005 2.773,-1.256 2.779,-2.779l-0,-9.267c-0.029,-1.506 -1.273,-2.73 -2.779,-2.736Z" style="fill:url(#_Linear1);"/><defs><linearGradient id="_Linear1" x1="0" y1="0" x2="1" y2="0" gradientUnits="userSpaceOnUse" gradientTransform="matrix(97.3227,0,0,89.2424,1.33874,50.2211)"><stop offset="0" style="stop-color:#1685ff;stop-opacity:1"/><stop offset="0.5" style="stop-color:#8b5cf6;stop-opacity:1"/><stop offset="1" style="stop-color:#d946ef;stop-opacity:1"/></linearGradient></defs></svg>