<svg width="30" height="30" viewBox="0 0 30 30" fill="none" xmlns="http://www.w3.org/2000/svg">
<path d="M25.0748 19.1676C25.2372 20.5419 25.2146 22.5684 25.0141 24.5888C24.9907 24.8242 24.7922 25 24.5608 25C24.5459 25 24.5307 24.9993 24.5154 24.9977C24.2645 24.9729 24.0816 24.7494 24.1065 24.4987C24.3008 22.5404 24.324 20.5875 24.1687 19.2745C24.1238 18.8944 23.9311 18.7247 23.5436 18.7247C23.1785 18.7247 22.8847 18.9245 22.8847 19.0898C22.8847 19.0976 22.8847 19.8652 22.8847 19.8652C22.8847 20.117 22.6804 20.3213 22.4286 20.3213C22.1768 20.3213 21.9725 20.117 21.9725 19.8652V17.8569C21.9725 17.7609 21.7444 17.5011 21.4842 17.4658C20.907 17.3873 20.969 17.6546 20.9711 17.7367L20.9756 18.4966C20.9756 18.7484 20.7713 18.9527 20.5195 18.9527C20.2677 18.9527 20.0634 18.7484 20.0634 18.4966V17.5002C20.0634 17.1921 19.6303 17.0824 19.2246 17.0824C18.9201 17.0824 18.7666 17.2418 18.7176 17.4028L18.7334 18.0638C18.7393 18.3155 18.5402 18.5247 18.2884 18.5306C18.2845 18.5308 18.2811 18.5308 18.2772 18.5308C18.0305 18.5308 17.8273 18.3338 17.8216 18.0857L17.8042 17.3604L17.601 10.0842C17.5743 9.53476 17.0619 9.4912 16.9054 9.4912C16.4085 9.4912 16.3344 10.083 16.3344 10.4358C16.4053 17.1013 16.3862 20.6301 16.2774 20.9193C16.2739 20.9287 15.8251 21.8794 15.4465 22.0019C15.3136 22.0446 15.1578 22.0245 15.0422 21.9476C14.4086 21.5266 13.0321 20.4358 13.0015 20.3681C11.9595 18.0606 11.2324 17.7568 10.1209 17.8259C10.3245 18.6043 10.8612 20.2693 11.2048 20.8714C11.5786 21.5257 12.4165 22.6334 13.695 24.1635C13.8565 24.3569 13.8307 24.6442 13.6373 24.8059C13.4439 24.9674 13.1568 24.9416 12.9949 24.7482C11.6635 23.155 10.5656 21.7264 10.1594 21.0156C9.84173 20.4595 9.10532 17.3689 9.18126 17.2188C9.25036 17.082 9.39108 16.9828 9.54297 16.965C11.4407 16.7465 12.5123 17.1182 13.7856 19.8889C14.0234 20.0723 14.6937 20.5861 15.2116 20.9556C15.2928 20.8306 15.3754 20.6944 15.4128 20.6206C15.4513 20.2953 15.4636 18.7183 15.4616 16.7688H14.818C14.6292 16.7688 14.4759 16.6156 14.4759 16.4267C14.4759 16.2379 14.6292 16.0847 14.818 16.0847H15.4607C15.4559 14.2041 15.4402 12.0888 15.4226 10.4411C15.4226 9.30806 16.0048 8.57941 16.9059 8.57941C17.8102 8.57941 18.4709 9.184 18.513 10.0497L18.6866 16.2616C18.8517 16.2023 19.0333 16.1706 19.2248 16.1706C19.9619 16.1706 20.4511 16.4188 20.7207 16.7625C20.909 16.6742 21.133 16.6268 21.3843 16.6268C22.2256 16.6268 22.885 17.1673 22.885 17.8574V17.9306C23.0854 17.8549 23.3085 17.8127 23.5438 17.8127C24.3895 17.8124 24.9763 18.3317 25.0748 19.1676ZM9.6554 16.7684H5.34209C5.15326 16.7684 5 16.6151 5 16.4263V12.113C5 11.9241 5.15326 11.7709 5.34209 11.7709H9.6554C9.70512 11.7709 12.1004 10.7337 12.1004 10.7337L11.7193 9.9033C11.6854 9.82918 11.6936 9.74229 11.741 9.67593C11.7882 9.60956 11.8667 9.57375 11.949 9.58128L14.2 9.80182C14.2789 9.80957 14.348 9.85769 14.3829 9.92907C14.4175 10.0005 14.4127 10.0848 14.3699 10.1517L13.1187 12.1102C13.0765 12.1762 13.004 12.2156 12.9265 12.2156C12.9215 12.2156 12.916 12.2154 12.9107 12.2152C12.8275 12.2095 12.7541 12.1586 12.7192 12.0826L12.3454 11.2422L9.99749 12.2106V16.4267C9.99749 16.6151 9.84423 16.7684 9.6554 16.7684ZM12.2998 10.0737L12.9598 11.512L13.7856 10.2192L12.2998 10.0737ZM9.31331 12.4551H5.68418V16.0842H9.31331V12.4551ZM5.34209 11.3873C5.53093 11.3873 5.68418 11.234 5.68418 11.0452V9.18309C5.68418 8.99425 5.53093 8.841 5.34209 8.841C5.15326 8.841 5 8.99425 5 9.18309V11.0452C5 11.234 5.15326 11.3873 5.34209 11.3873ZM5.34209 7.75018C5.53093 7.75018 5.68418 7.59693 5.68418 7.40809V5.68418H7.01993C7.20877 5.68418 7.36202 5.53093 7.36202 5.34209C7.36202 5.15326 7.20877 5 7.01993 5H5.34209C5.15326 5 5 5.15326 5 5.34209V7.40809C5 7.59693 5.15326 7.75018 5.34209 7.75018ZM9.05674 5.68418H11.2972C11.486 5.68418 11.6393 5.53093 11.6393 5.34209C11.6393 5.15326 11.486 5 11.2972 5H9.05674C8.86791 5 8.71465 5.15326 8.71465 5.34209C8.71465 5.53093 8.86791 5.68418 9.05674 5.68418ZM13.683 5.68418H16.0691C16.258 5.68418 16.4112 5.53093 16.4112 5.34209C16.4112 5.15326 16.258 5 16.0691 5H13.683C13.4941 5 13.3409 5.15326 13.3409 5.34209C13.3409 5.53093 13.4941 5.68418 13.683 5.68418ZM18.5133 5.68418H20.6372C20.826 5.68418 20.9793 5.53093 20.9793 5.34209C20.9793 5.15326 20.826 5 20.6372 5H18.5133C18.3244 5 18.1712 5.15326 18.1712 5.34209C18.1712 5.53093 18.3244 5.68418 18.5133 5.68418ZM24.8413 5H23.0232C22.8343 5 22.6811 5.15326 22.6811 5.34209C22.6811 5.53093 22.8343 5.68418 23.0232 5.68418H24.4992V6.94262C24.4992 7.13145 24.6524 7.28471 24.8413 7.28471C25.0301 7.28471 25.1834 7.13145 25.1834 6.94262V5.34209C25.1834 5.15326 25.0301 5 24.8413 5ZM24.8413 8.22979C24.6524 8.22979 24.4992 8.38305 24.4992 8.57188V10.1432C24.4992 10.3321 24.6524 10.4853 24.8413 10.4853C25.0301 10.4853 25.1834 10.3321 25.1834 10.1432V8.57188C25.1834 8.38305 25.0301 8.22979 24.8413 8.22979ZM24.8413 11.3141C24.6524 11.3141 24.4992 11.4673 24.4992 11.6562V13.3438C24.4992 13.5327 24.6524 13.6859 24.8413 13.6859C25.0301 13.6859 25.1834 13.5327 25.1834 13.3438V11.6562C25.1834 11.4673 25.0301 11.3141 24.8413 11.3141ZM24.8413 14.6894C24.6524 14.6894 24.4992 14.8426 24.4992 15.0315V16.0842H22.6448C22.456 16.0842 22.3027 16.2375 22.3027 16.4263C22.3027 16.6151 22.456 16.7684 22.6448 16.7684H24.8413C25.0301 16.7684 25.1834 16.6151 25.1834 16.4263V15.0315C25.1834 14.8426 25.0301 14.6894 24.8413 14.6894ZM11.5301 16.0842C11.3412 16.0842 11.188 16.2375 11.188 16.4263C11.188 16.6151 11.3412 16.7684 11.5301 16.7684H13.2467C13.4355 16.7684 13.5888 16.6151 13.5888 16.4263C13.5888 16.2375 13.4355 16.0842 13.2467 16.0842H11.5301Z" fill="url(#paint0_linear_1775_245)"/>
<defs>
<linearGradient id="paint0_linear_1775_245" x1="5.00006" y1="15.0482" x2="25.1838" y2="15.0482" gradientUnits="userSpaceOnUse">
<stop stop-color="#1685FF"/>
<stop offset="0.5" stop-color="#8B5CF6"/>
<stop offset="1" stop-color="#D946EF"/>
</linearGradient>
</defs>
</svg>
