<?xml version="1.0" encoding="UTF-8" standalone="no"?><!DOCTYPE svg PUBLIC "-//W3C//DTD SVG 1.1//EN" "http://www.w3.org/Graphics/SVG/1.1/DTD/svg11.dtd"><svg width="100%" height="100%" viewBox="0 0 500 500" version="1.1" xmlns="http://www.w3.org/2000/svg" xmlns:xlink="http://www.w3.org/1999/xlink" xml:space="preserve" xmlns:serif="http://www.serif.com/" style="fill-rule:evenodd;clip-rule:evenodd;stroke-linejoin:round;stroke-miterlimit:2;"><rect id="Artboard1" x="0" y="0" width="500" height="500" style="fill:none;"/><clipPath id="_clip1"><rect x="0" y="0" width="500" height="500"/></clipPath><g clip-path="url(#_clip1)"><path d="M273.921,372.859l-18.538,0c-4.189,0 -7.574,3.385 -7.574,7.6l0,42.976c-12.311,-0.638 -24.406,-2.937 -36.053,-6.769c-39.566,-13.027 -71.828,-43.87 -86.636,-82.823c0.697,-5.237 2.069,-5.875 2.835,-6.194c0.262,-0.128 0.556,-0.256 0.868,-0.448l19.356,11.176c16.206,9.355 35.746,-5.611 30.914,-23.691c-1.456,-5.491 -4.943,-10.026 -9.751,-12.771l-52.638,-31.035c1.66,-17.432 6.475,-34.035 14.387,-49.553l30.709,17.752l-5.485,9.451c-8.34,14.431 -3.366,32.951 11.067,41.316c14.444,8.366 32.969,3.385 41.316,-11.047l5.472,-9.514l33.641,19.413l-0,46.424c-0,4.15 3.384,7.599 7.573,7.599l18.538,0c8.355,0 15.077,6.78 15.077,15.071c-0.001,8.299 -6.763,15.067 -15.078,15.067Zm-94.183,53.832c2.899,1.66 11.527,1.596 16.316,0.32c-39.42,-16.476 -71.023,-49.299 -85.787,-89.593c-0.383,-1.086 -0.523,-2.171 -0.421,-3.321c1.251,-13.665 6.922,-17.944 11.705,-20.178c0.115,-0.064 0.205,-0.128 0.294,-0.128c4.361,-2.555 9.559,-2.555 13.939,-0.064l19.968,11.558c2.841,1.661 6.489,0.638 8.123,-2.171c1.609,-2.81 0.699,-6.46 -2.171,-8.109l-76.284,-44.956l-28.877,50.001l12.076,6.959c5.026,2.873 8.934,6.45 12.306,11.175c33.308,46.744 50.99,60.857 98.813,88.507Zm-141.981,-104.407l-18.103,-10.472l39.968,-69.221l18.104,10.472l-39.969,69.221Zm40.735,-70.563l-0.013,0l0.013,0Zm195.429,75.8l-10.958,0l0,-43.167c0,-2.747 -1.443,-5.237 -3.793,-6.578l-43.979,-25.415c-3.627,-2.043 -8.263,-0.83 -10.351,2.81l-9.266,16.028c-6.695,11.593 -24.127,9.386 -27.618,-3.641c-1.047,-3.895 -0.523,-7.981 1.474,-11.43l9.279,-16.092c2.088,-3.576 0.843,-8.237 -2.784,-10.344l-43.992,-25.352c-3.62,-2.106 -8.251,-0.894 -10.351,2.747c-9.981,17.241 -16.387,35.824 -19.132,55.364l-9.706,-5.683c1.992,-6.002 -0.435,-12.772 -6.124,-16.092l-20.747,-11.943c-6.5,-3.768 -14.853,-1.533 -18.608,4.981l-41.496,71.839c-3.775,6.58 -1.486,14.879 4.981,18.646l20.747,11.941c5.773,3.333 12.994,2.003 17.293,-3.065l12.255,7.024c3.16,1.852 5.415,3.895 7.535,6.897c34.707,48.723 54.285,64.368 103.584,92.786c9.631,5.56 32.288,4.651 39.138,-5.428c0.351,-0.51 0.716,-1.086 1.092,-1.596c13.908,4.023 28.347,6.067 42.989,6.067c4.182,-0 7.58,-3.385 7.58,-7.6l0,-43.231l10.958,0c16.667,0 30.231,-13.538 30.231,-30.204c-0,-16.694 -13.593,-30.269 -30.231,-30.269Zm-70.364,-197.895c-9.151,8.173 -17.153,17.497 -23.889,27.841l37.242,21.52c3.657,2.06 4.844,6.769 2.778,10.344l-9.272,16.028c-4.15,7.216 -1.679,16.475 5.524,20.626c7.195,4.124 16.466,1.666 20.619,-5.555l9.26,-16.029c2.095,-3.641 6.73,-4.853 10.351,-2.746l40.199,23.18l33.627,-19.412l-5.48,-9.515c-8.339,-14.431 -3.371,-32.95 11.067,-41.316c14.287,-8.257 32.901,-3.395 41.309,11.111l5.486,9.45l30.709,-17.688c-9.483,-14.623 -21.476,-27.076 -35.741,-37.229l-53.167,30.076c-10.187,5.754 -22.896,2.356 -28.761,-7.791c-5.828,-10.08 -2.324,-22.997 7.727,-28.8l19.356,-11.175c0.018,-0.383 0.05,-0.702 0.069,-0.958c0.071,-0.83 0.211,-2.362 -3.959,-5.555c-39.579,-6.386 -80.799,4.981 -111.54,30.588l-3.514,3.005Zm7.35,-32.695c47.83,-27.651 68.902,-35.888 126.041,-41.38c5.78,-0.51 10.812,-2.108 15.843,-5.045l12.069,-6.959l28.87,50l-77.07,43.615c-2.841,1.597 -6.488,0.638 -8.123,-2.172c-1.634,-2.873 -0.657,-6.513 2.184,-8.174l19.967,-11.494c4.375,-2.554 6.967,-7.024 6.949,-12.069c-0,-0.128 0.013,-0.256 0.018,-0.319c0.467,-5.301 -0.44,-12.389 -11.641,-20.307c-0.926,-0.638 -1.967,-1.022 -3.072,-1.277c-42.299,-7.343 -86.488,3.641 -120.461,29.567c1.268,-4.855 5.527,-12.326 8.426,-13.986Zm179.51,-81.228l39.968,69.223l-18.098,10.472l-39.968,-69.221l18.098,-10.474Zm-225.066,151.024l37.427,21.584l-5.486,9.515c-11.775,20.408 3.421,45.339 26.105,45.339c10.77,0 20.866,-5.783 26.283,-15.133l5.473,-9.452l37.427,21.584c2.338,1.341 5.23,1.341 7.574,0l43.978,-25.415c3.615,-2.108 4.86,-6.705 2.771,-10.345l-9.265,-16.027c-4.163,-7.216 -1.685,-16.476 5.517,-20.627c7.21,-4.15 16.45,-1.66 20.613,5.492l9.272,16.091c2.095,3.641 6.717,4.854 10.344,2.747l44.005,-25.416c3.614,-2.044 4.853,-6.705 2.778,-10.344c-9.954,-17.242 -22.848,-32.057 -38.404,-44.253l9.828,-5.556c4.326,4.865 11.257,5.998 16.948,2.746l20.747,-11.94c6.508,-3.768 8.742,-12.133 4.981,-18.647l-41.495,-71.839c-3.748,-6.513 -12.101,-8.748 -18.608,-5.045l-20.746,12.002c-5.83,3.385 -8.212,10.409 -5.951,16.54l-12.248,7.088c-3.166,1.788 -6.073,2.746 -9.712,3.064c-59.547,5.684 -82.868,14.88 -132.172,43.296c-9.387,5.427 -20.256,25.543 -14.84,36.654c0.287,0.575 0.555,1.15 0.843,1.724c-10.435,10.026 -19.42,21.52 -26.75,34.227c-2.096,3.577 -0.852,8.239 2.763,10.346Zm296.139,318.138l-79.944,0l0,-20.881l79.944,0l-0,20.881Zm-134.094,-51.277l0,-35.441l10.952,-0c16.673,-0 30.243,-13.603 30.243,-30.269c-0,-16.666 -13.57,-30.204 -30.243,-30.204l-10.952,-0l0,-38.825l40.186,-23.245c3.657,-2.063 4.844,-6.769 2.778,-10.344l-9.272,-16.029c-6.595,-11.373 3.788,-25.649 16.967,-22.095c3.908,1.022 7.172,3.513 9.17,7.024l9.266,16.029c2.087,3.64 6.724,4.853 10.351,2.746l37.242,-21.456c5.824,11.43 9.981,23.499 12.445,36.079c7.944,40.295 -2.714,83.08 -28.698,114.945c-4.866,1.98 -6.111,1.15 -6.807,0.638c-0.23,-0.128 -0.492,-0.32 -0.785,-0.512l-0,-22.35c-0,-11.686 -9.464,-21.137 -21.105,-21.137c-11.622,0 -21.086,9.451 -21.086,21.073l-0.549,61.047c-15.92,7.281 -32.714,11.432 -50.103,12.326Zm145.62,-159.07c5.447,42.338 -7.133,86.145 -34.681,119.031c-0.715,0.894 -1.615,1.597 -2.637,2.044c-12.453,5.748 -19.03,3.001 -23.36,0c-0.096,-0.127 -0.184,-0.191 -0.261,-0.191c-4.388,-2.555 -6.993,-7.024 -6.993,-12.069l-0,-23.053c-0,-3.321 -2.67,-5.939 -5.951,-5.939c-3.27,-0 -5.939,2.618 -5.939,5.939l-0.786,88.507l57.74,-0l0,-13.921c0,-5.811 1.118,-10.984 3.532,-16.284c23.838,-52.171 27.222,-74.586 27.222,-129.822c0.001,-3.322 -4.36,-10.793 -7.886,-14.242Zm-7.72,174.523c6.425,1.086 11.348,6.642 11.348,13.411l-0,23.947c-0,7.471 -6.111,13.601 -13.628,13.601l-82.995,0c-7.509,0 -13.621,-6.13 -13.621,-13.601l-0,-23.947c-0,-6.577 4.668,-12.069 10.849,-13.347l0.096,-11.302c-18.251,7.407 -37.503,11.174 -57.376,11.174c-4.289,0 -7.728,-3.4 -7.728,-7.599l0,-50.831c0,-4.151 3.385,-7.535 7.581,-7.535l18.525,-0c8.321,-0 15.09,-6.769 15.09,-15.135c-0,-8.302 -6.769,-15.071 -15.09,-15.071l-18.525,0c-4.196,0 -7.581,-3.384 -7.581,-7.599l0,-50.767c0,-2.682 1.437,-5.173 3.793,-6.577l37.415,-21.585l-5.486,-9.514c-8.316,-14.407 -3.377,-32.919 11.073,-41.252c14.43,-8.322 32.97,-3.398 41.309,11.046l5.48,9.515l37.42,-21.649c3.62,-2.108 8.257,-0.83 10.345,2.811c7.33,12.643 12.772,26.181 16.245,40.23c0.645,0.064 1.29,0.128 1.928,0.128c12.293,0.894 24.292,20.37 24.292,31.163c-0,56.96 -3.748,81.737 -28.589,136.144c-1.52,3.321 -2.171,6.322 -2.171,9.962l-0,14.179l0.001,0Z" style="fill:url(#_Linear2);"/></g><defs><linearGradient id="_Linear2" x1="0" y1="0" x2="1" y2="0" gradientUnits="userSpaceOnUse" gradientTransform="matrix(492.112,0,0,448,3.94521,251.204)"><stop offset="0" style="stop-color:#1685ff;stop-opacity:1"/><stop offset="0.5" style="stop-color:#8b5cf6;stop-opacity:1"/><stop offset="1" style="stop-color:#d946ef;stop-opacity:1"/></linearGradient></defs></svg>