<svg width="30" height="30" viewBox="0 0 30 30" fill="none" xmlns="http://www.w3.org/2000/svg">
<path d="M14.058 27C10.8376 27 7.80896 25.7453 5.53169 23.4681C3.30781 21.2442 2.05429 18.287 2.00166 15.1421C1.95025 12.0054 3.09681 9.01598 5.23253 6.72475C5.37939 6.56739 5.62697 6.55795 5.78432 6.70586C5.94167 6.85273 5.95111 7.1003 5.8032 7.25765C1.64288 11.7201 1.76561 18.5975 6.08329 22.9152C8.21278 25.0447 11.0452 26.2175 14.0567 26.2175C17.0684 26.2175 19.9008 25.0447 22.0301 22.9152C22.1822 22.7631 22.4298 22.7631 22.5829 22.9152C22.735 23.0673 22.735 23.3149 22.5829 23.468C20.3066 25.7455 17.2781 27 14.0577 27L14.058 27Z" fill="url(#paint0_linear_1775_329)"/>
<path d="M22.0152 25.6447C21.9963 25.6447 21.9784 25.6436 21.9596 25.6405C21.7456 25.6101 21.5976 25.4118 21.6281 25.1989L21.8672 23.5236L20.1909 23.2844C19.9769 23.254 19.829 23.0557 19.8594 22.8428C19.8899 22.6288 20.0881 22.4809 20.3011 22.5113L22.3634 22.8061C22.5774 22.8365 22.7253 23.0348 22.6949 23.2477L22.4001 25.31C22.3728 25.5041 22.2061 25.6447 22.0152 25.6447Z" fill="url(#paint1_linear_1775_329)"/>
<path d="M23.4802 22.399C23.3847 22.399 23.2893 22.3644 23.2137 22.2941C23.0564 22.1472 23.0469 21.8997 23.1949 21.7423C27.3552 17.2799 27.2324 10.4024 22.9148 6.08475C18.5184 1.68838 11.3641 1.68838 6.96769 6.08475C6.81558 6.23685 6.56801 6.23685 6.41486 6.08475C6.26275 5.93264 6.26275 5.68507 6.41486 5.53192C8.69227 3.25451 11.7197 2 14.9412 2C18.1616 2 21.1903 3.25462 23.4675 5.53192C25.6914 7.7558 26.9449 10.713 26.9976 13.8579C27.049 16.9945 25.9024 19.984 23.7667 22.2752C23.6891 22.357 23.584 22.399 23.4802 22.399Z" fill="url(#paint2_linear_1775_329)"/>
<path d="M8.75411 6.49291C8.73523 6.49291 8.7174 6.49186 8.69851 6.48871L6.63616 6.19393C6.53336 6.17924 6.44105 6.1247 6.37916 6.04182C6.31726 5.95895 6.28999 5.8551 6.30468 5.7523L6.59946 3.68995C6.62988 3.47595 6.82814 3.32803 7.04108 3.35846C7.25508 3.38888 7.403 3.58714 7.37258 3.80008L7.1334 5.47535L8.80972 5.71557C9.02372 5.746 9.17164 5.94426 9.14121 6.1572C9.11289 6.35231 8.94608 6.49291 8.75411 6.49291Z" fill="url(#paint3_linear_1775_329)"/>
<path d="M21.9209 21.5319H6.6871C6.471 21.5319 6.29688 21.3567 6.29688 21.1416V19.5797C6.29688 19.3636 6.47206 19.1895 6.6871 19.1895H21.9209C22.137 19.1895 22.3111 19.3646 22.3111 19.5797V21.1416C22.3111 21.3567 22.137 21.5319 21.9209 21.5319ZM7.07757 20.7504H21.5296V19.9688H7.07757V20.7504Z" fill="url(#paint4_linear_1775_329)"/>
<path d="M10.202 19.9682H7.85847C7.64237 19.9682 7.46824 19.7931 7.46824 19.578V17.6248H6.29649C6.14334 17.6248 6.00383 17.5356 5.94089 17.3961C5.87795 17.2566 5.90207 17.0929 6.00278 16.9775L8.73765 13.8525C8.81213 13.7675 8.91913 13.7192 9.03139 13.7192C9.14364 13.7192 9.25168 13.7675 9.32512 13.8525L12.06 16.9775C12.1607 17.0929 12.1848 17.2566 12.1219 17.3961C12.0568 17.5346 11.9184 17.6248 11.7642 17.6248H10.5924V19.578C10.5924 19.7931 10.418 19.9682 10.202 19.9682ZM8.24872 19.1867H9.81069V17.2335C9.81069 17.0174 9.98587 16.8432 10.2009 16.8432H10.9027L9.03021 14.7022L7.15667 16.8432H7.85847C8.07456 16.8432 8.24869 17.0184 8.24869 17.2335L8.24872 19.1867Z" fill="url(#paint5_linear_1775_329)"/>
<path d="M15.6707 19.9682H13.3272C13.1111 19.9682 12.937 19.793 12.937 19.578V14.4998H11.7652C11.6121 14.4998 11.4726 14.4106 11.4096 14.2711C11.3467 14.1316 11.3708 13.9679 11.4715 13.8525L14.2064 10.7275C14.2809 10.6425 14.3879 10.5942 14.5001 10.5942C14.6124 10.5942 14.7204 10.6425 14.7939 10.7275L17.5287 13.8525C17.6295 13.9679 17.6536 14.1316 17.5906 14.2711C17.5256 14.4106 17.3871 14.4998 17.234 14.4998H16.0622V19.578C16.0612 19.793 15.8868 19.9682 15.6707 19.9682ZM13.7175 19.1867H15.2794L15.2805 14.1095C15.2805 13.8934 15.4557 13.7193 15.6707 13.7193H16.3725L14.499 11.5772L12.6254 13.7183H13.3272C13.5433 13.7183 13.7174 13.8935 13.7174 14.1085L13.7175 19.1867Z" fill="url(#paint6_linear_1775_329)"/>
<path d="M21.1395 19.9683H18.796C18.5799 19.9683 18.4057 19.7931 18.4057 19.578V11.3748H17.234C17.0808 11.3748 16.9413 11.2856 16.8784 11.1461C16.8154 11.0066 16.8396 10.8429 16.9403 10.7275L19.6752 7.60246C19.7496 7.51749 19.8566 7.46924 19.9689 7.46924C20.0811 7.46924 20.1892 7.51749 20.2626 7.60246L22.9975 10.7275C23.0982 10.8429 23.1223 11.0066 23.0594 11.1461C22.9944 11.2856 22.8559 11.3748 22.7027 11.3748H21.531V19.578C21.531 19.7931 21.3556 19.9683 21.1395 19.9683ZM19.1862 19.1867H20.7482L20.7492 10.9845C20.7492 10.7684 20.9244 10.5943 21.1395 10.5943H21.8413L19.9677 8.45224L18.0942 10.5933H18.796C19.0121 10.5933 19.1862 10.7685 19.1862 10.9835L19.1862 19.1867Z" fill="url(#paint7_linear_1775_329)"/>
<defs>
<linearGradient id="paint0_linear_1775_329" x1="2.00006" y1="16.8494" x2="22.6974" y2="16.8494" gradientUnits="userSpaceOnUse">
<stop stop-color="#1685FF"/>
<stop offset="0.5" stop-color="#8B5CF6"/>
<stop offset="1" stop-color="#D946EF"/>
</linearGradient>
<linearGradient id="paint1_linear_1775_329" x1="19.8555" y1="24.0836" x2="22.6989" y2="24.0836" gradientUnits="userSpaceOnUse">
<stop stop-color="#1685FF"/>
<stop offset="0.5" stop-color="#8B5CF6"/>
<stop offset="1" stop-color="#D946EF"/>
</linearGradient>
<linearGradient id="paint2_linear_1775_329" x1="6.30084" y1="12.2486" x2="26.9997" y2="12.2486" gradientUnits="userSpaceOnUse">
<stop stop-color="#1685FF"/>
<stop offset="0.5" stop-color="#8B5CF6"/>
<stop offset="1" stop-color="#D946EF"/>
</linearGradient>
<linearGradient id="paint3_linear_1775_329" x1="6.30079" y1="4.93126" x2="9.14524" y2="4.93126" gradientUnits="userSpaceOnUse">
<stop stop-color="#1685FF"/>
<stop offset="0.5" stop-color="#8B5CF6"/>
<stop offset="1" stop-color="#D946EF"/>
</linearGradient>
<linearGradient id="paint4_linear_1775_329" x1="6.29692" y1="20.3663" x2="22.3115" y2="20.3663" gradientUnits="userSpaceOnUse">
<stop stop-color="#1685FF"/>
<stop offset="0.5" stop-color="#8B5CF6"/>
<stop offset="1" stop-color="#D946EF"/>
</linearGradient>
<linearGradient id="paint5_linear_1775_329" x1="5.90627" y1="16.8588" x2="12.1567" y2="16.8588" gradientUnits="userSpaceOnUse">
<stop stop-color="#1685FF"/>
<stop offset="0.5" stop-color="#8B5CF6"/>
<stop offset="1" stop-color="#D946EF"/>
</linearGradient>
<linearGradient id="paint6_linear_1775_329" x1="11.375" y1="15.3038" x2="17.6254" y2="15.3038" gradientUnits="userSpaceOnUse">
<stop stop-color="#1685FF"/>
<stop offset="0.5" stop-color="#8B5CF6"/>
<stop offset="1" stop-color="#D946EF"/>
</linearGradient>
<linearGradient id="paint7_linear_1775_329" x1="16.8438" y1="13.7489" x2="23.0942" y2="13.7489" gradientUnits="userSpaceOnUse">
<stop stop-color="#1685FF"/>
<stop offset="0.5" stop-color="#8B5CF6"/>
<stop offset="1" stop-color="#D946EF"/>
</linearGradient>
</defs>
</svg>
