<svg width="50" height="50" viewBox="0 0 50 50" fill="none" xmlns="http://www.w3.org/2000/svg">
<path d="M40.8531 37.2646V7.86459C40.8518 6.85041 40.4483 5.87817 39.7311 5.16104C39.014 4.44391 38.0418 4.04042 37.0276 4.03906H32.2468C32.2299 3.71569 32.0896 3.41113 31.8549 3.18808C31.6201 2.96502 31.3088 2.84045 30.985 2.84002H28.9866C28.9264 2.06777 28.5774 1.34656 28.0091 0.82019C27.4408 0.293822 26.695 0.000962169 25.9205 0H24.0808C23.3062 0.000962169 22.5604 0.293822 21.9921 0.82019C21.4238 1.34656 21.0748 2.06777 21.0146 2.84002H19.0162C18.6924 2.84045 18.3811 2.96502 18.1464 3.18808C17.9116 3.41113 17.7713 3.71569 17.7544 4.03906H12.9725C11.9583 4.04042 10.9861 4.44391 10.2689 5.16104C9.55181 5.87817 9.14833 6.85041 9.14697 7.86459V37.2646C9.14824 38.2322 9.51567 39.1635 10.1754 39.8714C10.8352 40.5792 11.7384 41.0112 12.7036 41.0804L10.5539 43.2221C10.4125 43.3644 10.3134 43.5432 10.2675 43.7384C10.2217 43.9337 10.2308 44.1379 10.294 44.3282C10.3572 44.5186 10.4719 44.6877 10.6254 44.8168C10.779 44.9459 10.9653 45.0299 11.1636 45.0595L14.1122 45.4866L14.5392 48.4351C14.5673 48.6341 14.6505 48.8214 14.7794 48.9756C14.9084 49.1298 15.078 49.2448 15.2689 49.3075C15.3803 49.3448 15.4969 49.3641 15.6144 49.3646C15.7569 49.3647 15.8981 49.3362 16.0295 49.2809C16.1608 49.2256 16.2799 49.1446 16.3795 49.0426L22.2696 43.0719C22.5369 43.25 22.7856 43.4545 23.0119 43.6823L23.7667 44.4366C24.1337 44.8029 24.6311 45.0087 25.1496 45.0087C25.6682 45.0087 26.1656 44.8029 26.5325 44.4366L27.2868 43.6823C27.3439 43.6252 27.4056 43.5681 27.4661 43.511L33.6212 49.6844C33.7634 49.8259 33.9422 49.9251 34.1375 49.9711C34.3328 50.0171 34.537 50.008 34.7275 49.9449C34.9179 49.8818 35.0872 49.7671 35.2163 49.6135C35.3455 49.46 35.4295 49.2736 35.4591 49.0752L35.8845 46.1284L38.8336 45.7018C39.032 45.6724 39.2184 45.5886 39.372 45.4597C39.5257 45.3307 39.6405 45.1617 39.7039 44.9714C39.7672 44.7811 39.7766 44.5769 39.7309 44.3816C39.6852 44.1863 39.5863 44.0075 39.4451 43.865L36.7044 41.0912H37.0282C38.0424 41.0896 39.0146 40.6858 39.7316 39.9685C40.4486 39.2512 40.8519 38.2788 40.8531 37.2646ZM35.5585 32.6443L34.8042 31.89C34.3778 31.4798 34.0407 30.9859 33.8142 30.4393C33.5876 29.8928 33.4764 29.3053 33.4876 28.7137V27.6442C33.4873 27.1255 33.2811 26.628 32.9143 26.2612C32.5475 25.8943 32.0502 25.688 31.5314 25.6875H30.4648C29.8731 25.6994 29.2853 25.5889 28.7383 25.363C28.1913 25.137 27.697 24.8004 27.2862 24.3743L26.532 23.62C26.1648 23.2541 25.6675 23.0486 25.1491 23.0486C24.6306 23.0486 24.1334 23.2541 23.7662 23.62L23.0113 24.3743C22.6006 24.8004 22.1062 25.137 21.5592 25.363C21.0122 25.5889 20.4244 25.6994 19.8327 25.6875H18.7662C18.2477 25.6881 17.7506 25.8943 17.384 26.261C17.0174 26.6276 16.8112 27.1246 16.8106 27.6431V28.7137C16.822 29.3057 16.711 29.8937 16.4844 30.4408C16.2578 30.9879 15.9206 31.4823 15.4939 31.8929L14.7391 32.6443C14.373 33.0114 14.1674 33.5087 14.1674 34.0271C14.1674 34.5456 14.373 35.0429 14.7391 35.41L15.4939 36.1643C15.7459 36.4149 15.9692 36.6927 16.1597 36.9928H14.5312C14.19 36.9925 13.8628 36.8568 13.6216 36.6155C13.3803 36.3742 13.2446 36.047 13.2443 35.7058V9.42334C13.2447 9.08215 13.3805 8.75507 13.6217 8.51382C13.863 8.27256 14.1901 8.13682 14.5312 8.13637H17.7481V8.22658C17.7486 8.56217 17.8821 8.88388 18.1194 9.12117C18.3567 9.35847 18.6784 9.49198 19.014 9.49243H30.985C31.3206 9.49198 31.6423 9.35847 31.8796 9.12117C32.1169 8.88388 32.2504 8.56217 32.2508 8.22658V8.13637H35.4677C35.8089 8.13682 36.136 8.27256 36.3772 8.51382C36.6185 8.75507 36.7542 9.08215 36.7547 9.42334V35.7052C36.7545 36.0466 36.6189 36.3739 36.3776 36.6153C36.1363 36.8567 35.809 36.9925 35.4677 36.9928H34.1379C34.3286 36.6929 34.552 36.4152 34.8042 36.1649L35.5585 35.4106C35.9248 35.0435 36.1305 34.546 36.1305 34.0274C36.1305 33.5088 35.9248 33.0114 35.5585 32.6443ZM19.1653 4.25832H21.7141C21.902 4.25832 22.0822 4.18366 22.2151 4.05078C22.348 3.9179 22.4227 3.73767 22.4227 3.54974V3.07697C22.4239 2.63819 22.5987 2.21773 22.909 1.90746C23.2192 1.5972 23.6397 1.42236 24.0785 1.42115H25.9159C26.3547 1.42236 26.7751 1.5972 27.0854 1.90746C27.3957 2.21773 27.5705 2.63819 27.5717 3.07697V3.55031C27.5717 3.73824 27.6464 3.91847 27.7792 4.05135C27.9121 4.18424 28.0924 4.25889 28.2803 4.25889H30.8291V8.07584H19.1653V4.25832ZM12.9725 39.6764C12.3336 39.6756 11.7211 39.4215 11.2693 38.9698C10.8175 38.5181 10.5633 37.9057 10.5624 37.2669V7.86459C10.5633 7.22572 10.8175 6.6133 11.2693 6.16161C11.7211 5.70992 12.3336 5.45583 12.9725 5.45508H17.7481V6.71921H14.5312C13.8143 6.72012 13.1271 7.00531 12.6201 7.51224C12.1132 8.01916 11.828 8.70644 11.8271 9.42334V35.7052C11.8279 36.4222 12.113 37.1096 12.62 37.6165C13.1269 38.1235 13.8143 38.4086 14.5312 38.4094H15.3791L14.1116 39.6764H12.9725ZM15.8473 47.5684L15.4414 44.758C15.4196 44.6067 15.3494 44.4665 15.2413 44.3584C15.1333 44.2502 14.9932 44.1799 14.8419 44.1579L12.0304 43.7514L16.7974 38.994C16.8054 39.1082 16.8106 39.2224 16.8106 39.3412V40.4083C16.8112 40.9268 17.0174 41.4239 17.384 41.7905C17.7506 42.1571 18.2477 42.3633 18.7662 42.3639H19.8327C20.1808 42.3627 20.5279 42.3995 20.8679 42.4736L15.8473 47.5684ZM26.2842 42.6802L25.5299 43.4345C25.4288 43.5354 25.2917 43.5921 25.1488 43.5921C25.0059 43.5921 24.8688 43.5354 24.7677 43.4345L24.0134 42.6802C23.471 42.1224 22.8205 41.6811 22.1016 41.3833C21.3828 41.0856 20.6107 40.9376 19.8327 40.9485H18.7662C18.6233 40.9485 18.4863 40.8918 18.3852 40.7908C18.2842 40.6899 18.2273 40.5529 18.2272 40.4101V39.3429C18.238 38.5649 18.09 37.7929 17.7922 37.0741C17.4945 36.3552 17.0532 35.7047 16.4954 35.1622L15.7411 34.408C15.6402 34.3069 15.5836 34.17 15.5836 34.0271C15.5836 33.8843 15.6402 33.7474 15.7411 33.6463L16.4954 32.8915C17.0529 32.3494 17.494 31.6994 17.7918 30.981C18.0896 30.2627 18.2377 29.4912 18.2272 28.7137V27.6442C18.2275 27.5014 18.2843 27.3645 18.3854 27.2634C18.4864 27.1624 18.6233 27.1055 18.7662 27.1052H19.8327C20.6107 27.1161 21.3827 26.9682 22.1015 26.6705C22.8203 26.3729 23.4709 25.9317 24.0134 25.3741L24.7677 24.6198C24.8692 24.5195 25.0061 24.4633 25.1488 24.4633C25.2915 24.4633 25.4284 24.5195 25.5299 24.6198L26.2842 25.3741C26.8267 25.9317 27.4773 26.3728 28.1961 26.6706C28.9149 26.9684 29.6869 27.1164 30.4648 27.1058H31.5314C31.6743 27.1058 31.8113 27.1625 31.9123 27.2635C32.0134 27.3644 32.0703 27.5014 32.0704 27.6442V28.7137C32.0596 29.4917 32.2076 30.2639 32.5053 30.9828C32.8031 31.7017 33.2444 32.3524 33.8022 32.8949L34.5564 33.6486C34.6574 33.7498 34.714 33.8868 34.714 34.0297C34.714 34.1726 34.6574 34.3097 34.5564 34.4108L33.8022 35.1651C33.2444 35.7075 32.8031 36.3581 32.5053 37.0769C32.2076 37.7958 32.0596 38.5678 32.0704 39.3458V40.4129C32.0703 40.5558 32.0134 40.6927 31.9123 40.7937C31.8113 40.8946 31.6743 40.9513 31.5314 40.9513H30.4648C29.687 40.9401 28.9151 41.0876 28.1963 41.3849C27.4775 41.6821 26.8268 42.1229 26.2842 42.6802ZM35.1577 44.7997C35.0063 44.8215 34.8661 44.8917 34.758 44.9997C34.6498 45.1078 34.5795 45.2479 34.5576 45.3992L34.151 48.2101L28.676 42.7191C29.2414 42.4789 29.8505 42.3585 30.4648 42.3656H31.5314C32.0499 42.365 32.547 42.1588 32.9137 41.7922C33.2804 41.4256 33.4868 40.9286 33.4876 40.4101V39.8556L37.9743 44.392L35.1577 44.7997ZM34.0505 38.4094H35.4677C36.1846 38.4086 36.872 38.1235 37.379 37.6165C37.8859 37.1096 38.1711 36.4222 38.1718 35.7052V9.42334C38.1709 8.70644 37.8857 8.01916 37.3788 7.51224C36.8719 7.00531 36.1846 6.72012 35.4677 6.71921H32.2508V5.45508H37.0265C37.6653 5.45583 38.2778 5.70992 38.7296 6.16161C39.1814 6.6133 39.4356 7.22572 39.4365 7.86459V37.2646C39.4356 37.9034 39.1814 38.5159 38.7296 38.9675C38.2778 39.4192 37.6653 39.6733 37.0265 39.6741H35.301L34.0505 38.4094ZM21.432 19.8299C21.432 19.6422 21.5065 19.4621 21.6392 19.3293C21.7718 19.1964 21.9517 19.1216 22.1395 19.1213H31.1283C31.2213 19.1213 31.3135 19.1397 31.3995 19.1753C31.4854 19.2109 31.5635 19.2631 31.6293 19.3289C31.6951 19.3947 31.7473 19.4728 31.7829 19.5587C31.8185 19.6447 31.8369 19.7368 31.8369 19.8299C31.8369 19.923 31.8185 20.0151 31.7829 20.1011C31.7473 20.187 31.6951 20.2651 31.6293 20.3309C31.5635 20.3967 31.4854 20.4489 31.3995 20.4845C31.3135 20.5202 31.2213 20.5385 31.1283 20.5385H22.1395C21.9515 20.5385 21.7713 20.4638 21.6384 20.3309C21.5055 20.1981 21.4309 20.0178 21.4309 19.8299H21.432ZM34.5005 21.8352C34.5005 22.023 34.4259 22.2031 34.2931 22.336C34.1604 22.4689 33.9803 22.5436 33.7925 22.5437H22.1395C21.9515 22.5437 21.7713 22.4691 21.6384 22.3362C21.5055 22.2033 21.4309 22.0231 21.4309 21.8352C21.4309 21.6472 21.5055 21.467 21.6384 21.3341C21.7713 21.2012 21.9515 21.1266 22.1395 21.1266H33.7925C33.9801 21.127 34.1599 21.2019 34.2924 21.3347C34.4249 21.4676 34.4993 21.6475 34.4993 21.8352H34.5005ZM19.0499 19.485C19.1827 19.618 19.2572 19.7982 19.2572 19.9861C19.2572 20.1739 19.1827 20.3541 19.0499 20.4871L17.3564 22.18C17.2908 22.2459 17.2127 22.2982 17.1268 22.3339C17.0409 22.3696 16.9487 22.388 16.8557 22.388C16.7626 22.388 16.6705 22.3696 16.5846 22.3339C16.4986 22.2982 16.4206 22.2459 16.3549 22.18L15.5213 21.3481C15.3899 21.2149 15.3165 21.0352 15.3171 20.8481C15.3177 20.661 15.3923 20.4817 15.5246 20.3494C15.657 20.2171 15.8362 20.1425 16.0233 20.1419C16.2104 20.1412 16.3902 20.2146 16.5234 20.3461L16.8557 20.6784L18.0479 19.4862C18.1805 19.3534 18.3604 19.2786 18.5481 19.2784C18.7358 19.2782 18.9159 19.3525 19.0488 19.485H19.0499ZM21.432 12.9417C21.432 12.7538 21.5067 12.5735 21.6396 12.4406C21.7725 12.3078 21.9527 12.2331 22.1406 12.2331H29.7614C29.9493 12.2331 30.1295 12.3078 30.2624 12.4406C30.3953 12.5735 30.47 12.7538 30.47 12.9417C30.47 13.1296 30.3953 13.3098 30.2624 13.4427C30.1295 13.5756 29.9493 13.6503 29.7614 13.6503H22.1395C21.9515 13.6503 21.7713 13.5756 21.6384 13.4427C21.5055 13.3098 21.4309 13.1296 21.4309 12.9417H21.432ZM34.5005 14.9469C34.5005 15.1348 34.4259 15.3149 34.2931 15.4478C34.1604 15.5806 33.9803 15.6554 33.7925 15.6555H22.1395C21.9515 15.6555 21.7713 15.5809 21.6384 15.448C21.5055 15.3151 21.4309 15.1349 21.4309 14.9469C21.4309 14.759 21.5055 14.5788 21.6384 14.4459C21.7713 14.313 21.9515 14.2384 22.1395 14.2384H33.7925C33.9801 14.2388 34.1599 14.3137 34.2924 14.4465C34.4249 14.5793 34.4993 14.7593 34.4993 14.9469H34.5005ZM19.0499 12.5968C19.1826 12.7297 19.2572 12.9098 19.2572 13.0976C19.2572 13.2853 19.1826 13.4654 19.0499 13.5983L17.3564 15.2918C17.2236 15.4245 17.0435 15.499 16.8557 15.499C16.6679 15.499 16.4878 15.4245 16.3549 15.2918L15.5213 14.4582C15.3939 14.3242 15.3239 14.1457 15.3262 13.9609C15.3286 13.776 15.4031 13.5994 15.5339 13.4687C15.6646 13.338 15.8413 13.2636 16.0262 13.2613C16.2111 13.2591 16.3895 13.3292 16.5234 13.4567L16.8557 13.789L18.0479 12.5968C18.1806 12.4641 18.3606 12.3896 18.5483 12.3896C18.736 12.3896 18.916 12.4641 19.0488 12.5968H19.0499ZM27.924 32.9023L25.096 35.7304C25.0303 35.7963 24.9523 35.8486 24.8663 35.8843C24.7804 35.9199 24.6883 35.9383 24.5952 35.9383C24.5022 35.9383 24.41 35.9199 24.3241 35.8843C24.2382 35.8486 24.1602 35.7963 24.0945 35.7304L22.7024 34.3389C22.5788 34.2042 22.512 34.027 22.516 33.8443C22.52 33.6615 22.5945 33.4874 22.7238 33.3583C22.8532 33.2291 23.0274 33.155 23.2102 33.1513C23.393 33.1476 23.5701 33.2147 23.7045 33.3386L24.5952 34.2293L26.9225 31.9026C27.0553 31.7698 27.2354 31.6951 27.4233 31.6951C27.6111 31.6951 27.7912 31.7698 27.924 31.9026C28.0568 32.0354 28.1314 32.2155 28.1314 32.4033C28.1314 32.5911 28.0568 32.7712 27.924 32.904V32.9023ZM25.1491 28.5726C24.0703 28.5726 23.0157 28.8925 22.1187 29.4919C21.2217 30.0912 20.5226 30.9431 20.1098 31.9398C19.6969 32.9365 19.5889 34.0332 19.7994 35.0913C20.0098 36.1493 20.5293 37.1212 21.2921 37.8841C22.055 38.6469 23.0269 39.1664 24.0849 39.3769C25.143 39.5873 26.2397 39.4793 27.2364 39.0665C28.2331 38.6536 29.085 37.9545 29.6843 37.0575C30.2837 36.1605 30.6036 35.1059 30.6036 34.0271C30.6021 32.581 30.0269 31.1945 29.0043 30.1719C27.9817 29.1493 26.5952 28.5742 25.1491 28.5726ZM25.1491 38.0645C24.3506 38.0645 23.57 37.8277 22.906 37.3841C22.2421 36.9405 21.7246 36.3099 21.419 35.5722C21.1135 34.8344 21.0335 34.0227 21.1893 33.2395C21.3451 32.4563 21.7296 31.7369 22.2942 31.1723C22.8589 30.6077 23.5782 30.2232 24.3614 30.0674C25.1446 29.9116 25.9564 29.9915 26.6941 30.2971C27.4318 30.6027 28.0624 31.1202 28.506 31.7841C28.9496 32.4481 29.1864 33.2286 29.1864 34.0271C29.1852 35.0976 28.7595 36.1238 28.0026 36.8807C27.2457 37.6375 26.2195 38.0633 25.1491 38.0645Z" fill="url(#paint0_linear_600_114)"/>
<defs>
<linearGradient id="paint0_linear_600_114" x1="9.14711" y1="25.1205" x2="40.8538" y2="25.1205" gradientUnits="userSpaceOnUse">
<stop stop-color="#1685FF"/>
<stop offset="0.5" stop-color="#8B5CF6"/>
<stop offset="1" stop-color="#D946EF"/>
</linearGradient>
</defs>
</svg>
