<svg width="30" height="30" viewBox="0 0 30 30" fill="none" xmlns="http://www.w3.org/2000/svg">
<path d="M14.9349 7.16634C14.6472 7.16634 14.4141 6.93316 14.4141 6.64551V5.60384C14.4141 5.31618 14.6472 5.08301 14.9349 5.08301C15.2226 5.08301 15.4557 5.31618 15.4557 5.60384V6.64551C15.4557 6.93316 15.2226 7.16634 14.9349 7.16634Z" fill="url(#paint0_linear_1774_13)"/>
<path d="M9.21094 12.8962H8.16927C7.88161 12.8962 7.64844 12.663 7.64844 12.3753C7.64844 12.0877 7.88161 11.8545 8.16927 11.8545H9.21094C9.49859 11.8545 9.73177 12.0877 9.73177 12.3753C9.73177 12.663 9.49859 12.8962 9.21094 12.8962Z" fill="url(#paint1_linear_1774_13)"/>
<path d="M14.9349 19.6663C14.6472 19.6663 14.4141 19.4331 14.4141 19.1455V18.1038C14.4141 17.8162 14.6472 17.583 14.9349 17.583C15.2226 17.583 15.4557 17.8162 15.4557 18.1038V19.1455C15.4557 19.4331 15.2226 19.6663 14.9349 19.6663Z" fill="url(#paint2_linear_1774_13)"/>
<path d="M10.8902 8.84516C10.7569 8.84516 10.6236 8.79433 10.5219 8.69261L9.78535 7.95605C9.58197 7.75266 9.58197 7.42287 9.78535 7.21943C9.98874 7.01605 10.3185 7.01605 10.522 7.21943L11.2585 7.956C11.4619 8.15938 11.4619 8.48917 11.2585 8.69261C11.1568 8.79433 11.0235 8.84516 10.8902 8.84516Z" fill="url(#paint3_linear_1774_13)"/>
<path d="M19.7222 17.6826C19.5889 17.6826 19.4557 17.6317 19.3539 17.53L18.6174 16.7934C18.414 16.59 18.414 16.2603 18.6174 16.0568C18.8208 15.8535 19.1506 15.8534 19.354 16.0568L20.0906 16.7934C20.2939 16.9968 20.2939 17.3266 20.0906 17.53C19.9888 17.6318 19.8555 17.6826 19.7222 17.6826Z" fill="url(#paint4_linear_1774_13)"/>
<path d="M21.7109 12.8962H20.6693C20.3816 12.8962 20.1484 12.663 20.1484 12.3753C20.1484 12.0877 20.3816 11.8545 20.6693 11.8545H21.7109C21.9986 11.8545 22.2318 12.0877 22.2318 12.3753C22.2318 12.663 21.9986 12.8962 21.7109 12.8962Z" fill="url(#paint5_linear_1774_13)"/>
<path d="M18.6213 8.69212C18.4179 8.48874 18.4179 8.15895 18.6213 7.95551L19.3579 7.21895C19.5612 7.01556 19.891 7.01556 20.0945 7.21895C20.2979 7.42233 20.2979 7.75212 20.0945 7.95556L19.3579 8.69212C19.1545 8.89546 18.8247 8.89551 18.6213 8.69212Z" fill="url(#paint6_linear_1774_13)"/>
<path d="M10.1537 17.6816C10.0204 17.6816 9.88709 17.6307 9.78537 17.5291C9.58199 17.3257 9.58193 16.9959 9.78537 16.7924L10.5219 16.0559C10.7253 15.8525 11.0551 15.8524 11.2585 16.0558C11.4619 16.2592 11.4619 16.589 11.2585 16.7924L10.522 17.5291C10.4203 17.6307 10.2869 17.6816 10.1537 17.6816Z" fill="url(#paint7_linear_1774_13)"/>
<path d="M14.9375 13.9375C14.0759 13.9375 13.375 13.2366 13.375 12.375C13.375 11.5134 14.0759 10.8125 14.9375 10.8125C15.7991 10.8125 16.5 11.5134 16.5 12.375C16.5 13.2366 15.7991 13.9375 14.9375 13.9375ZM14.9375 11.8542C14.6503 11.8542 14.4167 12.0878 14.4167 12.375C14.4167 12.6622 14.6503 12.8958 14.9375 12.8958C15.2247 12.8958 15.4583 12.6622 15.4583 12.375C15.4583 12.0878 15.2247 11.8542 14.9375 11.8542Z" fill="url(#paint8_linear_1774_13)"/>
<path d="M13.8958 12.8957H12.3333C12.0457 12.8957 11.8125 12.6625 11.8125 12.3748C11.8125 12.0872 12.0457 11.854 12.3333 11.854H13.8958C14.1835 11.854 14.4167 12.0872 14.4167 12.3748C14.4167 12.6625 14.1835 12.8957 13.8958 12.8957Z" fill="url(#paint9_linear_1774_13)"/>
<path d="M14.9349 11.8538C14.6472 11.8538 14.4141 11.6207 14.4141 11.333V8.72884C14.4141 8.44118 14.6472 8.20801 14.9349 8.20801C15.2226 8.20801 15.4557 8.44118 15.4557 8.72884V11.333C15.4557 11.6207 15.2226 11.8538 14.9349 11.8538Z" fill="url(#paint10_linear_1774_13)"/>
<path d="M14.9401 19.6663C10.9195 19.6663 7.64844 16.3953 7.64844 12.3747C7.64844 8.35405 10.9195 5.08301 14.9401 5.08301C18.9607 5.08301 22.2318 8.35405 22.2318 12.3747C22.2318 16.3953 18.9607 19.6663 14.9401 19.6663ZM14.9401 6.12467C11.4938 6.12467 8.6901 8.92842 8.6901 12.3747C8.6901 15.8209 11.4938 18.6247 14.9401 18.6247C18.3864 18.6247 21.1901 15.8209 21.1901 12.3747C21.1901 8.92842 18.3864 6.12467 14.9401 6.12467Z" fill="url(#paint11_linear_1774_13)"/>
<path d="M14.9375 21.75C9.76807 21.75 5.5625 17.5444 5.5625 12.375C5.5625 7.20562 9.76807 3 14.9375 3C20.1069 3 24.3125 7.20562 24.3125 12.375C24.3125 17.5444 20.1069 21.75 14.9375 21.75ZM14.9375 4.04167C10.3425 4.04167 6.60417 7.78 6.60417 12.375C6.60417 16.9701 10.3425 20.7083 14.9375 20.7083C19.5325 20.7083 23.2708 16.9701 23.2708 12.375C23.2708 7.78 19.5325 4.04167 14.9375 4.04167Z" fill="url(#paint12_linear_1774_13)"/>
<path d="M9.72917 28.0002H4.52083C4.23318 28.0002 4 27.7669 4 27.4793V24.3543C4 24.0667 4.23318 23.8335 4.52083 23.8335H9.72917C10.0168 23.8335 10.25 24.0667 10.25 24.3543V27.4793C10.25 27.7669 10.0168 28.0002 9.72917 28.0002ZM5.04167 26.9585H9.20833V24.8752H5.04167V26.9585Z" fill="url(#paint13_linear_1774_13)"/>
<path d="M25.3542 28.0002H20.1458C19.8582 28.0002 19.625 27.7669 19.625 27.4793V24.3543C19.625 24.0667 19.8582 23.8335 20.1458 23.8335H25.3542C25.6418 23.8335 25.875 24.0667 25.875 24.3543V27.4793C25.875 27.7669 25.6418 28.0002 25.3542 28.0002ZM20.6667 26.9585H24.8333V24.8752H20.6667V26.9585Z" fill="url(#paint14_linear_1774_13)"/>
<path d="M17.5417 28.0002H12.3333C12.0457 28.0002 11.8125 27.7669 11.8125 27.4793V24.3543C11.8125 24.0667 12.0457 23.8335 12.3333 23.8335H17.5417C17.8293 23.8335 18.0625 24.0667 18.0625 24.3543V27.4793C18.0625 27.7669 17.8293 28.0002 17.5417 28.0002ZM12.8542 26.9585H17.0208V24.8752H12.8542V26.9585Z" fill="url(#paint15_linear_1774_13)"/>
<path d="M22.7474 24.8747C22.4597 24.8747 22.2266 24.6414 22.2266 24.3538V21.7497H7.64323V24.3538C7.64323 24.6414 7.41005 24.8747 7.1224 24.8747C6.83474 24.8747 6.60156 24.6414 6.60156 24.3538V21.2288C6.60156 20.9412 6.83474 20.708 7.1224 20.708H22.7474C23.0351 20.708 23.2682 20.9412 23.2682 21.2288V24.3538C23.2682 24.6414 23.0351 24.8747 22.7474 24.8747Z" fill="url(#paint16_linear_1774_13)"/>
<path d="M14.9349 24.8747C14.6472 24.8747 14.4141 24.6414 14.4141 24.3538V21.2288C14.4141 20.9412 14.6472 20.708 14.9349 20.708C15.2226 20.708 15.4557 20.9412 15.4557 21.2288V24.3538C15.4557 24.6414 15.2226 24.8747 14.9349 24.8747Z" fill="url(#paint17_linear_1774_13)"/>
<defs>
<linearGradient id="paint0_linear_1774_13" x1="14.4141" y1="6.12969" x2="15.4558" y2="6.12969" gradientUnits="userSpaceOnUse">
<stop stop-color="#1685FF"/>
<stop offset="0.5" stop-color="#8B5CF6"/>
<stop offset="1" stop-color="#D946EF"/>
</linearGradient>
<linearGradient id="paint1_linear_1774_13" x1="7.64844" y1="12.3778" x2="9.73182" y2="12.3778" gradientUnits="userSpaceOnUse">
<stop stop-color="#1685FF"/>
<stop offset="0.5" stop-color="#8B5CF6"/>
<stop offset="1" stop-color="#D946EF"/>
</linearGradient>
<linearGradient id="paint2_linear_1774_13" x1="14.4141" y1="18.6297" x2="15.4558" y2="18.6297" gradientUnits="userSpaceOnUse">
<stop stop-color="#1685FF"/>
<stop offset="0.5" stop-color="#8B5CF6"/>
<stop offset="1" stop-color="#D946EF"/>
</linearGradient>
<linearGradient id="paint3_linear_1774_13" x1="9.63282" y1="7.96031" x2="11.4111" y2="7.96031" gradientUnits="userSpaceOnUse">
<stop stop-color="#1685FF"/>
<stop offset="0.5" stop-color="#8B5CF6"/>
<stop offset="1" stop-color="#D946EF"/>
</linearGradient>
<linearGradient id="paint4_linear_1774_13" x1="18.4648" y1="16.7977" x2="20.2431" y2="16.7977" gradientUnits="userSpaceOnUse">
<stop stop-color="#1685FF"/>
<stop offset="0.5" stop-color="#8B5CF6"/>
<stop offset="1" stop-color="#D946EF"/>
</linearGradient>
<linearGradient id="paint5_linear_1774_13" x1="20.1484" y1="12.3778" x2="22.2318" y2="12.3778" gradientUnits="userSpaceOnUse">
<stop stop-color="#1685FF"/>
<stop offset="0.5" stop-color="#8B5CF6"/>
<stop offset="1" stop-color="#D946EF"/>
</linearGradient>
<linearGradient id="paint6_linear_1774_13" x1="18.4688" y1="7.95981" x2="20.247" y2="7.95981" gradientUnits="userSpaceOnUse">
<stop stop-color="#1685FF"/>
<stop offset="0.5" stop-color="#8B5CF6"/>
<stop offset="1" stop-color="#D946EF"/>
</linearGradient>
<linearGradient id="paint7_linear_1774_13" x1="9.63282" y1="16.7968" x2="11.4111" y2="16.7968" gradientUnits="userSpaceOnUse">
<stop stop-color="#1685FF"/>
<stop offset="0.5" stop-color="#8B5CF6"/>
<stop offset="1" stop-color="#D946EF"/>
</linearGradient>
<linearGradient id="paint8_linear_1774_13" x1="13.375" y1="12.3825" x2="16.5001" y2="12.3825" gradientUnits="userSpaceOnUse">
<stop stop-color="#1685FF"/>
<stop offset="0.5" stop-color="#8B5CF6"/>
<stop offset="1" stop-color="#D946EF"/>
</linearGradient>
<linearGradient id="paint9_linear_1774_13" x1="11.8125" y1="12.3773" x2="14.4167" y2="12.3773" gradientUnits="userSpaceOnUse">
<stop stop-color="#1685FF"/>
<stop offset="0.5" stop-color="#8B5CF6"/>
<stop offset="1" stop-color="#D946EF"/>
</linearGradient>
<linearGradient id="paint10_linear_1774_13" x1="14.4141" y1="10.0397" x2="15.4558" y2="10.0397" gradientUnits="userSpaceOnUse">
<stop stop-color="#1685FF"/>
<stop offset="0.5" stop-color="#8B5CF6"/>
<stop offset="1" stop-color="#D946EF"/>
</linearGradient>
<linearGradient id="paint11_linear_1774_13" x1="7.64848" y1="12.4098" x2="22.2321" y2="12.4098" gradientUnits="userSpaceOnUse">
<stop stop-color="#1685FF"/>
<stop offset="0.5" stop-color="#8B5CF6"/>
<stop offset="1" stop-color="#D946EF"/>
</linearGradient>
<linearGradient id="paint12_linear_1774_13" x1="5.56255" y1="12.4202" x2="24.3129" y2="12.4202" gradientUnits="userSpaceOnUse">
<stop stop-color="#1685FF"/>
<stop offset="0.5" stop-color="#8B5CF6"/>
<stop offset="1" stop-color="#D946EF"/>
</linearGradient>
<linearGradient id="paint13_linear_1774_13" x1="4.00002" y1="25.9269" x2="10.2501" y2="25.9269" gradientUnits="userSpaceOnUse">
<stop stop-color="#1685FF"/>
<stop offset="0.5" stop-color="#8B5CF6"/>
<stop offset="1" stop-color="#D946EF"/>
</linearGradient>
<linearGradient id="paint14_linear_1774_13" x1="19.625" y1="25.9269" x2="25.8751" y2="25.9269" gradientUnits="userSpaceOnUse">
<stop stop-color="#1685FF"/>
<stop offset="0.5" stop-color="#8B5CF6"/>
<stop offset="1" stop-color="#D946EF"/>
</linearGradient>
<linearGradient id="paint15_linear_1774_13" x1="11.8125" y1="25.9269" x2="18.0626" y2="25.9269" gradientUnits="userSpaceOnUse">
<stop stop-color="#1685FF"/>
<stop offset="0.5" stop-color="#8B5CF6"/>
<stop offset="1" stop-color="#D946EF"/>
</linearGradient>
<linearGradient id="paint16_linear_1774_13" x1="6.60161" y1="22.8014" x2="23.2686" y2="22.8014" gradientUnits="userSpaceOnUse">
<stop stop-color="#1685FF"/>
<stop offset="0.5" stop-color="#8B5CF6"/>
<stop offset="1" stop-color="#D946EF"/>
</linearGradient>
<linearGradient id="paint17_linear_1774_13" x1="14.4141" y1="22.8014" x2="15.4558" y2="22.8014" gradientUnits="userSpaceOnUse">
<stop stop-color="#1685FF"/>
<stop offset="0.5" stop-color="#8B5CF6"/>
<stop offset="1" stop-color="#D946EF"/>
</linearGradient>
</defs>
</svg>
