<?xml version="1.0" encoding="UTF-8" standalone="no"?><!DOCTYPE svg PUBLIC "-//W3C//DTD SVG 1.1//EN" "http://www.w3.org/Graphics/SVG/1.1/DTD/svg11.dtd"><svg width="100%" height="100%" viewBox="0 0 110 110" version="1.1" xmlns="http://www.w3.org/2000/svg" xmlns:xlink="http://www.w3.org/1999/xlink" xml:space="preserve" xmlns:serif="http://www.serif.com/" style="fill-rule:evenodd;clip-rule:evenodd;stroke-linejoin:round;stroke-miterlimit:2;"><rect id="Artboard1" x="0" y="0" width="110" height="110" style="fill:none;"/><g><path d="M64.412,59.278c-1.939,-3.306 -5.477,-5.361 -9.355,-5.361c-3.877,0 -7.299,1.939 -9.354,5.361l-19.511,33.656c-1.939,3.423 -2.055,7.416 -0,10.839c1.938,3.422 5.477,5.477 9.354,5.477l39.477,-0c3.877,-0 7.416,-2.055 9.354,-5.477c1.939,-3.423 1.939,-7.416 0,-10.839l-19.965,-33.656Zm16.084,42.325c-1.141,2.054 -3.307,3.306 -5.589,3.306l-39.476,0.005c-2.398,-0 -4.448,-1.257 -5.589,-3.307c-1.141,-2.054 -1.141,-4.447 0,-6.502l19.739,-33.656c1.14,-2.054 3.306,-3.195 5.588,-3.195c2.282,-0 4.448,1.141 5.588,3.195l19.739,33.656c1.141,2.05 1.141,4.448 -0,6.498l-0,-0Zm-21.451,-6.73c0,2.587 -1.939,3.88 -3.877,3.88c-1.939,0 -3.877,-1.293 -3.877,-3.88c-0,-5.175 7.754,-5.175 7.754,-0Zm-3.877,-7.987c1.141,0 2.166,-0.913 2.166,-2.165l0,-15.063c0,-1.141 -0.913,-2.166 -2.166,-2.166c-1.256,-0 -2.166,0.913 -2.166,2.166l0,15.174c0,1.141 0.91,2.055 2.166,2.055l0,-0.001Zm42.667,-48.714l-6.048,-0.914l-1.711,-4.22l3.65,-4.907c2.282,-3.079 1.939,-7.188 -0.686,-9.924l-6.159,-6.159c-2.737,-2.737 -6.846,-2.968 -9.925,-0.687l-4.902,3.65l-4.221,-1.711l-0.913,-6.048c-0.571,-3.765 -3.766,-6.502 -7.532,-6.502l-8.672,0c-3.766,0 -6.962,2.737 -7.532,6.502l-0.914,6.048l-4.1,1.711l-4.906,-3.65c-3.08,-2.281 -7.189,-1.938 -9.925,0.687l-6.159,6.159c-2.625,2.625 -2.968,6.845 -0.686,9.924l3.65,4.907l-1.712,4.22l-6.159,0.914c-3.766,0.57 -6.502,3.65 -6.502,7.416l0,8.672c0,3.766 2.736,6.961 6.502,7.416l6.048,0.914l1.711,4.22l-3.65,4.907c-2.282,2.968 -1.938,7.188 0.687,9.924l4.336,4.337c0.454,0.454 1.025,0.686 1.484,0.686c0.454,-0 1.141,-0.227 1.484,-0.686c0.798,-0.798 0.798,-2.166 -0,-3.08l-4.336,-4.336c-1.141,-1.141 -1.257,-2.968 -0.343,-4.22l4.447,-5.932c0.455,-0.571 0.571,-1.368 0.227,-2.166l-2.286,-6.395c-0.343,-0.687 -0.913,-1.257 -1.711,-1.368l-7.3,-1.025c-1.595,-0.228 -2.736,-1.596 -2.736,-3.196l-0,-8.672c-0,-1.596 1.141,-2.968 2.736,-3.196l7.3,-1.025c0.798,-0.116 1.368,-0.57 1.711,-1.256l2.737,-6.503c0.343,-0.686 0.227,-1.484 -0.228,-2.165l-4.447,-5.932c-0.914,-1.257 -0.798,-3.08 0.343,-4.22l6.159,-6.159c1.141,-1.141 2.968,-1.257 4.22,-0.344l5.932,4.448c0.57,0.455 1.368,0.571 2.166,0.227l6.502,-2.736c0.686,-0.343 1.256,-0.913 1.368,-1.711l1.025,-7.3c0.227,-1.595 1.595,-2.852 3.195,-2.852l8.673,-0c1.595,-0 2.968,1.141 3.195,2.736l1.025,7.3c0.116,0.798 0.571,1.368 1.368,1.711l6.502,2.736c0.687,0.344 1.484,0.228 2.166,-0.227l5.932,-4.447c1.257,-1.025 3.079,-0.798 4.22,0.343l6.159,6.159c1.141,1.141 1.257,2.968 0.343,4.22l-4.447,5.932c-0.455,0.57 -0.571,1.368 -0.228,2.166l2.737,6.502c0.343,0.686 0.913,1.141 1.711,1.256l7.3,1.025c1.595,0.228 2.852,1.596 2.852,3.196l0,8.672c0,1.596 -1.141,2.968 -2.852,3.196l-7.3,1.025c-0.798,0.116 -1.368,0.57 -1.711,1.257l-3.182,6.729c-0.343,0.686 -0.228,1.484 0.227,2.166l4.448,5.931c0.913,1.257 0.797,3.08 -0.344,4.221l-4.336,4.336c-0.798,0.798 -0.798,2.166 0,3.08c0.798,0.797 2.166,0.797 3.08,-0l4.336,-4.337c2.625,-2.625 2.968,-6.961 0.686,-9.925l-3.65,-4.906l1.712,-4.221l6.047,-0.913c3.766,-0.455 6.502,-3.766 6.502,-7.416l0,-8.672c0.116,-3.757 -2.625,-6.953 -6.39,-7.523l-0,-0Zm-26.008,23.731c0.344,0.228 0.687,0.344 1.025,0.344c0.798,-0 1.485,-0.344 1.828,-1.141c1.938,-3.423 2.968,-7.189 2.968,-11.066c-0,-12.433 -10.152,-22.591 -22.591,-22.591c-12.433,0 -22.59,10.153 -22.59,22.591c-0,3.877 1.025,7.759 2.968,11.182c0.57,1.025 1.938,1.368 2.968,0.797c1.025,-0.57 1.368,-1.938 0.798,-2.968c-1.596,-2.736 -2.398,-5.82 -2.398,-9.011c-0,-10.041 8.213,-18.254 18.254,-18.254c10.041,0 18.254,8.213 18.254,18.254c0,3.195 -0.798,6.275 -2.398,9.011c-0.459,0.909 -0.115,2.282 0.914,2.852l0,0Z" style="fill:url(#_Linear1);fill-rule:nonzero;"/></g><defs><linearGradient id="_Linear1" x1="0" y1="0" x2="1" y2="0" gradientUnits="userSpaceOnUse" gradientTransform="matrix(98.4582,0,0,97.2156,5.77115,55.2612)"><stop offset="0" style="stop-color:#1685ff;stop-opacity:1"/><stop offset="0.5" style="stop-color:#8b5cf6;stop-opacity:1"/><stop offset="1" style="stop-color:#d946ef;stop-opacity:1"/></linearGradient></defs></svg>