<svg width="110" height="110" viewBox="0 0 110 110" fill="none" xmlns="http://www.w3.org/2000/svg">
<path d="M58.9763 39.6309H47.1173C46.1432 39.6309 45.3569 40.4171 45.3569 41.3912V91.1007C45.3569 92.0748 46.1432 92.8611 47.1173 92.8611H58.9763C59.4437 92.8611 59.8936 92.6776 60.2256 92.3456C60.5532 92.018 60.7411 91.5681 60.7411 91.1007V41.3912C60.7411 40.9238 60.5532 40.4739 60.2256 40.1462C59.8936 39.8142 59.4437 39.6309 58.9763 39.6309ZM57.2116 89.3359H48.8859V43.1556H57.2116V89.3359ZM36.4759 50.6736H24.6203C23.6462 50.6736 22.8555 51.4642 22.8555 52.4383V91.1006C22.8555 91.568 23.0434 92.0179 23.3753 92.3456C23.703 92.6775 24.1529 92.861 24.6203 92.861H36.476C37.4501 92.861 38.2363 92.0747 38.2363 91.1007V52.4383C38.2363 51.9709 38.0529 51.521 37.7209 51.1934C37.3933 50.8614 36.9433 50.6736 36.4759 50.6736ZM34.7112 89.3359H26.3855L26.3899 54.1983H34.7156L34.7112 89.3359ZM13.98 62.2575H2.12433C1.15023 62.2619 0.359619 63.0482 0.359619 64.0222V91.1006C0.359619 92.0747 1.15025 92.861 2.12433 92.861H13.98C14.9497 92.861 15.7403 92.0747 15.7403 91.1006V64.0222C15.7403 63.0481 14.9497 62.2619 13.98 62.2575ZM12.2153 89.3359H3.88959V65.7867H12.2153V89.3359ZM46.5276 31.9161C43.4568 34.6374 38.8702 34.7422 35.6772 32.1651L32.7548 29.8499H32.7505C30.7717 28.2818 27.9324 28.4434 26.1502 30.23L6.87386 49.5064C6.18369 50.1965 5.06979 50.1965 4.3796 49.5064C3.6938 48.8206 3.6938 47.7023 4.3796 47.0121L23.656 27.7402C26.705 24.6868 31.558 24.4073 34.9391 27.085L37.8658 29.4001C39.7354 30.9071 42.4174 30.846 44.2127 29.2516L65.5735 10.6864H64.9664H64.9707C64.4946 10.6995 64.0316 10.5204 63.6909 10.1884C63.3502 9.85644 63.158 9.39779 63.158 8.92604C63.158 8.44991 63.3502 7.99125 63.6909 7.65928C64.0316 7.3273 64.4946 7.14821 64.9707 7.16132H70.4004C70.4615 7.16568 70.5227 7.17005 70.5838 7.18316L70.6363 7.19189C70.7062 7.205 70.776 7.22247 70.8459 7.24868L70.9246 7.27926L70.9202 7.27489C70.977 7.29673 71.0294 7.31857 71.0818 7.34915L71.1299 7.37099C71.1473 7.37972 71.1648 7.39283 71.1823 7.40593C71.226 7.43214 71.2653 7.45835 71.3046 7.48456C71.3439 7.51077 71.3657 7.52824 71.3963 7.55445C71.4269 7.57629 71.4575 7.60687 71.4881 7.63308C71.5186 7.65929 71.5798 7.72044 71.6191 7.76849C71.6366 7.79033 71.6541 7.8078 71.6715 7.82964V7.82527C71.7589 7.93884 71.8375 8.06552 71.8987 8.20094L71.9249 8.26646V8.26209C71.9817 8.40624 72.021 8.55913 72.0384 8.71638V8.76006C72.0515 8.89111 72.0515 9.02216 72.0384 9.15319L71.3046 14.4867C71.1692 15.4477 70.2824 16.1247 69.3171 15.9894C68.3518 15.8583 67.6791 14.9672 67.8101 14.0019L67.9018 13.3205L46.5276 31.9161ZM85.7402 55.0538C84.9015 55.0538 84.0671 55.0974 83.2328 55.1848V31.6926C83.2328 31.2209 83.045 30.7753 82.7174 30.4433C82.3854 30.1113 81.9355 29.9279 81.4681 29.9279H69.6124C69.145 29.9279 68.6994 30.1113 68.3674 30.4433C68.0354 30.7753 67.852 31.2252 67.852 31.6926V63.1255C62.9902 68.625 60.9285 76.0547 62.2564 83.2763C63.5887 90.4969 68.1621 96.7043 74.6667 100.112C81.1709 103.519 88.8808 103.746 95.5724 100.727C102.264 97.7091 107.197 91.7815 108.948 84.6527C110.704 77.5238 109.079 69.9846 104.549 64.2055C100.019 58.4307 93.087 55.0585 85.7445 55.0585L85.7402 55.0538ZM79.7078 33.4537V55.8276C76.6937 56.6138 73.8675 57.9855 71.3821 59.8638V33.4541L79.7078 33.4537ZM85.7402 99.3342C80.3368 99.3342 75.1517 97.1894 71.3293 93.3673C67.5071 89.5451 65.3624 84.3602 65.3624 78.9564C65.3624 73.5531 67.5072 68.368 71.3293 64.55C75.1515 60.7279 80.3364 58.5788 85.7402 58.5788C91.1439 58.5788 96.3286 60.728 100.147 64.55C103.969 68.3679 106.118 73.5528 106.118 78.9564C106.109 84.3598 103.96 89.5404 100.142 93.3584C96.3199 97.1805 91.1436 99.3297 85.7402 99.3342ZM83.9798 63.9561V61.8988C83.9667 61.4227 84.1458 60.964 84.4778 60.6233C84.8098 60.2826 85.264 60.0904 85.7402 60.0904C86.2163 60.0904 86.6706 60.2826 87.0025 60.6233C87.3345 60.964 87.5136 61.4227 87.5005 61.8988V63.9561C87.5136 64.4323 87.3345 64.8909 87.0025 65.2316C86.6706 65.5723 86.2163 65.7645 85.7402 65.7645C85.264 65.7645 84.8097 65.5723 84.4778 65.2316C84.1458 64.8909 83.9667 64.4322 83.9798 63.9561ZM95.0968 69.5955C94.7691 69.2635 94.5813 68.8179 94.5813 68.3505C94.5813 67.8831 94.7691 67.4332 95.0968 67.1012L96.5557 65.6422V65.6466C97.2459 64.9564 98.3598 64.9564 99.05 65.6466C99.7358 66.3324 99.7358 67.4507 99.05 68.1365L97.591 69.5955C96.9008 70.2813 95.7869 70.2813 95.0968 69.5955ZM104.563 78.9521C104.563 79.9262 103.772 80.7168 102.798 80.7168H100.736C99.7619 80.7168 98.9713 79.9262 98.9713 78.9521C98.9713 77.978 99.7619 77.1917 100.736 77.1917H102.798C103.265 77.1917 103.715 77.3752 104.047 77.7072C104.375 78.0392 104.563 78.4891 104.563 78.9565L104.563 78.9521ZM99.0499 89.7633C99.7357 90.4491 99.7357 91.5674 99.0499 92.2576C98.3597 92.9434 97.2458 92.9434 96.5556 92.2576L95.0966 90.7986C94.4633 90.0997 94.4938 89.0295 95.1578 88.3655C95.8218 87.7015 96.8963 87.6753 97.5909 88.3087L99.0499 89.7633ZM87.5051 93.9437L87.5007 96.0142C87.5138 96.4903 87.3347 96.949 87.0027 97.2897C86.6708 97.6304 86.2165 97.8226 85.7404 97.8226C85.2642 97.8226 84.8099 97.6304 84.478 97.2897C84.146 96.949 83.9669 96.4903 83.98 96.0142V93.9524C83.9669 93.4763 84.146 93.0176 84.478 92.6769C84.81 92.3362 85.2642 92.144 85.7404 92.144C86.2165 92.144 86.6708 92.3362 87.0027 92.6769C87.3347 93.0176 87.5138 93.4763 87.5007 93.9524L87.5051 93.9437ZM76.3838 88.3043C76.7114 88.6363 76.8992 89.0862 76.8992 89.5536C76.8992 90.021 76.7114 90.4666 76.3838 90.7986L74.9248 92.2576C74.2346 92.9434 73.1207 92.9434 72.4305 92.2576C71.7447 91.5674 71.7447 90.4491 72.4305 89.7633L73.8895 88.3087C74.2171 87.9767 74.667 87.7932 75.1345 87.7932C75.6062 87.7976 76.0518 87.9811 76.3838 88.3174V88.3043ZM70.7444 80.7213H68.6826C67.7085 80.7213 66.9179 79.9306 66.9179 78.9565C66.9179 77.9825 67.7085 77.1918 68.6826 77.1918H70.7444C71.7185 77.1918 72.5091 77.9825 72.5091 78.9565C72.5091 79.9306 71.7185 80.7213 70.7444 80.7213ZM76.3838 67.1099V67.1056C77.0696 67.7957 77.0696 68.914 76.3794 69.5998C75.6936 70.29 74.5753 70.29 73.8895 69.5998L72.4305 68.1408C71.7403 67.4507 71.7403 66.3368 72.4305 65.6466C73.1163 64.9608 74.2346 64.9608 74.9204 65.6466L76.3838 67.1099ZM93.5589 74.4397C94.0438 75.2828 93.7555 76.3573 92.9125 76.8465L86.6223 80.4808C86.0763 80.7953 85.4036 80.7953 84.8576 80.4808C84.3116 80.1663 83.9796 79.5854 83.9796 78.9563V68.9008C83.9665 68.4247 84.1456 67.9617 84.4776 67.621C84.8096 67.2803 85.2638 67.0881 85.74 67.0881C86.2161 67.0881 86.6704 67.2803 87.0024 67.621C87.3343 67.9617 87.5134 68.4247 87.5003 68.9008V75.9073L91.1477 73.7931C91.5539 73.5573 92.0345 73.4961 92.4887 73.6184C92.9386 73.7407 93.323 74.0378 93.5589 74.444L93.5589 74.4397Z" fill="url(#paint0_linear_596_4060)"/>
<defs>
<linearGradient id="paint0_linear_596_4060" x1="0.360101" y1="55.2306" x2="109.643" y2="55.2306" gradientUnits="userSpaceOnUse">
<stop stop-color="#1685FF"/>
<stop offset="0.5" stop-color="#8B5CF6"/>
<stop offset="1" stop-color="#D946EF"/>
</linearGradient>
</defs>
</svg>
