<?xml version="1.0" encoding="UTF-8" standalone="no"?><!DOCTYPE svg PUBLIC "-//W3C//DTD SVG 1.1//EN" "http://www.w3.org/Graphics/SVG/1.1/DTD/svg11.dtd"><svg width="100%" height="100%" viewBox="0 0 200 200" version="1.1" xmlns="http://www.w3.org/2000/svg" xmlns:xlink="http://www.w3.org/1999/xlink" xml:space="preserve" xmlns:serif="http://www.serif.com/" style="fill-rule:evenodd;clip-rule:evenodd;stroke-linejoin:round;stroke-miterlimit:2;"><g id="Layer9"><path d="M158.349,137.836c-8.769,-4.682 -19,-8.187 -26.011,-10.231l-2.637,8.472c26.307,8.187 38,16.66 38,21.626l0,25.44l-134.462,0l0,-25.428c0,-4.967 11.692,-13.736 38,-21.626l-2.626,-8.484c-7.011,2.044 -17.242,5.549 -26.011,10.231c-12.286,6.428 -18.132,12.857 -18.132,19.879l0,34.197l152,0l0,-34.197c0,-7.022 -5.846,-13.451 -18.121,-19.879l0,0Zm-118.101,-36.837l14.615,0c7.605,18.715 25.143,31.868 45.606,31.868c4.682,0 9.649,-0.88 14.033,-2.044l-2.34,-8.484c-3.803,1.165 -7.605,1.759 -11.396,1.759c-22.505,0 -40.625,-19.583 -40.625,-43.548c-0.011,-23.979 18.11,-43.56 40.33,-43.56c22.22,0 40.923,19.582 40.923,43.548c0,7.605 -1.758,14.912 -5.264,21.626l7.605,4.088c0.879,-1.759 1.758,-3.506 2.341,-5.264l1.461,0l0,8.187l-20.758,0.011c-1.165,-2.626 -3.803,-4.088 -7.011,-4.088c-4.385,0 -7.605,3.506 -7.605,7.605c0,4.385 3.506,7.605 7.605,7.605c2.341,0 4.088,-0.879 5.549,-2.341l30.991,0l0,-16.956l4.087,0c7.308,0 13.154,-5.846 13.154,-13.154l0,-17.835c0,-7.308 -5.846,-13.154 -13.154,-13.154l-3.22,0l0.297,-6.143l0,-0.297c0,-13.736 -4.682,-25.429 -13.451,-33.616c-8.187,-7.604 -19.297,-11.989 -31.572,-11.989l-26.308,0c-12.274,0 -23.384,4.088 -31.572,11.989c-8.769,8.187 -13.451,19.88 -13.451,33.616l0.297,6.428l-0.879,0c-7.308,0 -13.154,5.846 -13.154,13.154l0,17.835c-0.285,7.308 5.858,13.154 12.868,13.154l-0.002,0Zm79.516,12.869c-0.582,0 -1.164,-0.583 -1.164,-1.165c0,-0.582 0.582,-1.165 1.164,-1.165c0.583,0 1.165,0.583 1.165,1.165c0,0.582 -0.582,1.165 -1.165,1.165Zm45.01,-43.847l0,17.836c0,2.341 -2.044,4.384 -4.385,4.384l-10.23,-0.011l0,-26.605l10.23,0c2.341,0.012 4.385,2.056 4.385,4.396Zm-128.913,0c0,-2.34 2.044,-4.384 4.385,-4.384l10.23,0l0,26.604l-10.23,0c-2.341,0 -4.385,-2.043 -4.385,-4.384l0,-17.836Zm14.033,-19.582c0,-25.428 18.121,-36.837 36.24,-36.837l26.308,0c17.836,0 36.24,11.396 36.24,36.837l-0.296,6.429l-3.506,0c-8.461,-16.957 -25.12,-28.649 -44.416,-28.649c-19.296,0 -35.957,11.692 -44.144,28.649l-6.429,0l0.003,-6.429Z" style="fill:url(#_Linear1);fill-rule:nonzero;"/></g><defs><linearGradient id="_Linear1" x1="0" y1="0" x2="1" y2="0" gradientUnits="userSpaceOnUse" gradientTransform="matrix(122.029,169.528,-169.528,122.029,54.2027,19.5355)"><stop offset="0" style="stop-color:#4d7aff;stop-opacity:1"/><stop offset="1" style="stop-color:#d748f0;stop-opacity:1"/></linearGradient></defs></svg>