<svg width="170" height="170" viewBox="0 0 170 170" fill="none" xmlns="http://www.w3.org/2000/svg">
<path fill-rule="evenodd" clip-rule="evenodd" d="M89.9765 43.2155C97.0794 39.0861 105.239 37.1704 113.423 37.7108C121.607 38.2513 129.448 41.2235 135.955 46.2517C142.461 51.2799 147.341 58.1382 149.978 65.9594C152.614 73.7805 152.888 82.2133 150.765 90.1914C148.642 98.1694 144.218 105.334 138.052 110.78C131.886 116.226 124.255 119.709 116.123 120.787C107.992 121.865 99.7254 120.491 92.3695 116.838C85.0136 113.185 78.8984 107.418 74.7973 100.265C72.0741 95.5155 70.3066 90.2722 69.5956 84.8347C68.8846 79.3971 69.2442 73.8718 70.6537 68.5742C72.0632 63.2766 74.4952 58.3105 77.8106 53.9594C81.126 49.6084 85.26 45.9576 89.9765 43.2155ZM110.711 96.5455C112.11 96.5455 113.478 96.9634 114.642 97.7463C115.805 98.5292 116.712 99.6419 117.248 100.944C117.783 102.246 117.924 103.678 117.651 105.061C117.378 106.443 116.704 107.712 115.715 108.709C114.725 109.706 113.465 110.384 112.092 110.66C110.72 110.935 109.297 110.794 108.004 110.255C106.711 109.716 105.606 108.803 104.829 107.631C104.051 106.46 103.636 105.082 103.635 103.673C103.635 101.783 104.381 99.9703 105.707 98.6337C107.034 97.2971 108.834 96.546 110.711 96.5455ZM110.711 102.276C110.985 102.276 111.254 102.357 111.482 102.511C111.71 102.664 111.888 102.882 111.994 103.137C112.099 103.392 112.127 103.673 112.073 103.944C112.02 104.215 111.888 104.464 111.694 104.66C111.5 104.856 111.253 104.989 110.984 105.043C110.715 105.097 110.436 105.069 110.182 104.964C109.929 104.858 109.712 104.679 109.559 104.449C109.407 104.219 109.326 103.949 109.326 103.673C109.325 103.49 109.361 103.308 109.43 103.138C109.5 102.969 109.602 102.815 109.731 102.685C109.859 102.555 110.012 102.453 110.18 102.382C110.348 102.312 110.529 102.276 110.711 102.276ZM109.654 95.1358C108.585 94.8824 107.614 94.3174 106.862 93.5115C106.109 92.7055 105.61 91.6943 105.424 90.604C104.296 85.1152 100.316 65.2177 100.316 58.6991C100.316 51.2183 107.705 45.8924 114.569 48.7505C116.513 49.5732 118.17 50.9571 119.334 52.7277C120.497 54.4983 121.113 56.5762 121.104 58.6991C121.104 65.2563 117.071 85.3949 115.964 90.7348H115.971C115.344 93.6717 112.62 95.7762 109.652 95.1347L109.654 95.1358ZM108.916 78.8564C108.084 74.3916 106.007 62.9792 106.007 58.6991C106.001 58.0192 106.13 57.3448 106.388 56.7163C106.645 56.0877 107.026 55.5177 107.506 55.0402C110.545 52.0481 115.416 54.3733 115.416 58.6991C115.416 64.3763 111.806 82.6959 110.714 88.1148C110.339 86.2613 109.652 82.8108 108.916 78.8564ZM132.025 133.519L134.329 132.179L129.128 123.108C132.676 121.591 136.026 119.642 139.104 117.306L144.305 126.378L146.576 125.058C146.994 124.817 147.49 124.752 147.956 124.877C148.422 125.003 148.819 125.309 149.062 125.729L166.557 156.168C166.797 156.589 166.862 157.089 166.737 157.558C166.613 158.027 166.308 158.427 165.891 158.671L151.34 167.132C150.922 167.374 150.426 167.439 149.96 167.313C149.494 167.187 149.097 166.881 148.854 166.462L131.359 136.023C131.119 135.601 131.054 135.102 131.179 134.632C131.304 134.163 131.608 133.763 132.025 133.519Z" fill="#FFC100"/>
<path fill-rule="evenodd" clip-rule="evenodd" d="M70.4904 122.123C74.257 120.284 77.8403 118.398 81.2403 116.464C76.6549 112.775 72.7974 108.252 69.868 103.131C56.8655 80.4513 64.609 51.3479 87.1298 38.2539C94.9093 33.7405 103.805 31.5541 112.775 31.9511C121.744 32.3481 130.415 35.312 137.772 40.4953C137.826 6.43429 104.574 -13.8186 70.4904 20.0207C11.3103 -38.7376 -45.3937 65.5819 70.4904 122.124V122.123Z" fill="url(#paint0_linear_360_1366)"/>
<defs>
<linearGradient id="paint0_linear_360_1366" x1="125.598" y1="-4.10601" x2="11.0555" y2="103.24" gradientUnits="userSpaceOnUse">
<stop stop-color="#8B5CF6"/>
<stop offset="1" stop-color="#1685FF"/>
</linearGradient>
</defs>
</svg>
