<?xml version="1.0" encoding="UTF-8" standalone="no"?><!DOCTYPE svg PUBLIC "-//W3C//DTD SVG 1.1//EN" "http://www.w3.org/Graphics/SVG/1.1/DTD/svg11.dtd"><svg width="100%" height="100%" viewBox="0 0 110 110" version="1.1" xmlns="http://www.w3.org/2000/svg" xmlns:xlink="http://www.w3.org/1999/xlink" xml:space="preserve" xmlns:serif="http://www.serif.com/" style="fill-rule:evenodd;clip-rule:evenodd;stroke-linejoin:round;stroke-miterlimit:2;"><rect id="Artboard1" x="0" y="0" width="110" height="110" style="fill:none;"/><path d="M84.414,52.082l-1.754,-0c-0.908,-0 -1.641,-0.734 -1.641,-1.642c-0,-0.907 0.733,-1.641 1.641,-1.641l3.395,0c0.907,0 1.641,0.734 1.641,1.641l0,13.811l1.754,0c0.907,0 1.641,0.734 1.641,1.641c0,0.908 -0.733,1.642 -1.641,1.642l-6.79,-0c-0.908,-0 -1.641,-0.734 -1.641,-1.642c-0,-0.907 0.733,-1.641 1.641,-1.641l1.754,0l-0,-12.169Zm-0,-6.979c-0,-0.907 0.733,-1.641 1.641,-1.641c0.907,0 1.641,0.734 1.641,1.641l0,0.005c0,0.908 -0.733,1.641 -1.641,1.641c-0.908,0 -1.641,-0.733 -1.641,-1.641l-0,-0.005Zm-55.981,-31.683l5.525,-0.005c0.292,0 0.56,-0.127 0.762,-0.324c0.198,-0.198 0.32,-0.466 0.32,-0.762l-0,-5.516l-6.607,6.607Zm17.63,31.594c-4.486,-2.04 -10.726,-3.301 -17.657,-3.301c-1.279,0 -2.53,0.043 -3.757,0.127c-0.033,0.005 -0.071,0.005 -0.104,0.01c-5.375,0.371 -10.161,1.518 -13.796,3.169c-4.101,1.867 -6.635,4.298 -6.635,6.861c-0,2.558 2.534,4.993 6.635,6.86c4.486,2.041 10.725,3.301 17.657,3.301c6.935,0 13.175,-1.265 17.657,-3.301c4.1,-1.867 6.634,-4.298 6.634,-6.86c0,-2.563 -2.534,-4.994 -6.634,-6.861l-0,-0.005Zm-41.954,42.33l-0,7.989c-0,2.563 2.534,4.994 6.634,6.861c4.486,2.04 10.726,3.301 17.657,3.301c6.936,-0 13.176,-1.265 17.657,-3.301c4.101,-1.867 6.635,-4.298 6.635,-6.861l0,-7.989c-1.387,1.26 -3.169,2.384 -5.276,3.343c-4.899,2.234 -11.628,3.612 -19.02,3.612c-7.393,-0 -14.117,-1.383 -19.021,-3.612c-2.102,-0.959 -3.889,-2.083 -5.276,-3.343l0.01,-0Zm-0,-14.483c1.387,1.261 3.169,2.384 5.276,3.344c4.899,2.233 11.628,3.611 19.02,3.611c7.393,-0 14.117,-1.383 19.021,-3.611c2.102,-0.96 3.889,-2.084 5.276,-3.344l0,7.989c0,2.563 -2.534,4.994 -6.635,6.861c-4.486,2.041 -10.726,3.301 -17.657,3.301c-6.935,-0 -13.175,-1.265 -17.657,-3.301c-4.1,-1.867 -6.635,-4.298 -6.635,-6.861l0,-7.989l-0.009,0Zm-0,-14.492c1.387,1.26 3.169,2.384 5.276,3.343c4.899,2.234 11.628,3.612 19.02,3.612c7.393,-0 14.117,-1.383 19.021,-3.612c2.102,-0.959 3.889,-2.083 5.276,-3.343l0,7.998c0,2.563 -2.534,4.994 -6.635,6.861c-4.486,2.041 -10.726,3.301 -17.657,3.301c-6.935,0 -13.175,-1.265 -17.657,-3.301c-4.1,-1.867 -6.635,-4.298 -6.635,-6.861l0,-7.998l-0.009,-0Zm7.119,22.171c-0.39,-0.16 -0.715,-0.296 -0.969,-0.414c-0.287,-0.131 -0.597,-0.277 -0.921,-0.442c-0.809,-0.409 -1.792,-0.084 -2.201,0.724c-0.409,0.809 -0.085,1.792 0.724,2.201c0.31,0.155 0.654,0.32 1.035,0.494c0.418,0.188 0.785,0.348 1.095,0.475c0.837,0.338 1.796,-0.066 2.135,-0.903c0.339,-0.837 -0.066,-1.796 -0.903,-2.135l0.005,0Zm-0,-14.314c-0.395,-0.16 -0.715,-0.296 -0.969,-0.414c-0.287,-0.131 -0.592,-0.277 -0.921,-0.442c-0.809,-0.409 -1.792,-0.084 -2.201,0.724c-0.409,0.809 -0.085,1.792 0.724,2.201c0.31,0.155 0.654,0.32 1.035,0.494c0.418,0.188 0.785,0.348 1.095,0.479c0.837,0.339 1.796,-0.065 2.135,-0.902c0.339,-0.837 -0.066,-1.797 -0.903,-2.135l0.005,-0.005Zm-0,28.627c0.837,0.339 1.241,1.298 0.903,2.135c-0.339,0.837 -1.298,1.241 -2.135,0.903c-0.315,-0.127 -0.677,-0.287 -1.096,-0.48c-0.381,-0.174 -0.724,-0.338 -1.034,-0.494c-0.809,-0.409 -1.133,-1.391 -0.724,-2.2c0.409,-0.809 1.391,-1.134 2.2,-0.724c0.325,0.164 0.63,0.315 0.917,0.442c0.254,0.112 0.574,0.253 0.969,0.413l-0,0.005Zm36.71,-76.637c-0.907,-0 -1.641,-0.734 -1.641,-1.641c0,-0.908 0.734,-1.641 1.641,-1.641l30.372,-0c0.907,-0 1.641,0.733 1.641,1.641c-0,0.907 -0.734,1.641 -1.641,1.641l-30.372,-0Zm-9.945,11.746c-0.908,-0 -1.641,-0.734 -1.641,-1.641c-0,-0.908 0.733,-1.641 1.641,-1.641l40.317,-0c0.907,-0 1.641,0.733 1.641,1.641c0,0.907 -0.733,1.641 -1.641,1.641l-40.317,-0Zm62.084,11.511c-3.588,-3.588 -8.544,-5.807 -14.022,-5.807c-5.473,-0 -10.434,2.219 -14.022,5.807c-3.587,3.588 -5.807,8.544 -5.807,14.022c0,5.473 2.22,10.434 5.807,14.021c3.588,3.588 8.545,5.808 14.022,5.808c5.474,-0 10.434,-2.22 14.022,-5.808c3.587,-3.587 5.807,-8.544 5.807,-14.021c-0,-5.474 -2.22,-10.435 -5.807,-14.022Zm-9.156,-8.577l0,-27.32c0,-1.199 -0.489,-2.289 -1.279,-3.08c-0.79,-0.79 -1.881,-1.279 -3.08,-1.279l-49.882,0c-0.456,0 -0.87,0.189 -1.171,0.489l-12.188,12.189c-0.32,0.319 -0.48,0.738 -0.48,1.161l0,23.644c-5.172,0.503 -9.813,1.688 -13.453,3.343c-5.267,2.398 -8.535,5.849 -8.558,9.79l-0,43.501c-0,3.959 3.273,7.43 8.558,9.837c4.9,2.234 11.629,3.612 19.021,3.612c7.392,-0 14.117,-1.383 19.021,-3.612c5.285,-2.407 8.558,-5.878 8.558,-9.837l-0,-5.868l30.583,-0c1.199,-0 2.29,-0.489 3.08,-1.279c0.79,-0.79 1.279,-1.881 1.279,-3.08l0,-7.007c4.43,-0.95 8.389,-3.169 11.474,-6.254c4.18,-4.18 6.766,-9.959 6.766,-16.34c0,-6.381 -2.586,-12.16 -6.766,-16.34c-3.09,-3.089 -7.049,-5.304 -11.474,-6.254l-0.009,-0.016Zm-4.867,-0.512c0.532,-0 1.063,0.018 1.585,0.056l0,-26.863c0,-0.297 -0.122,-0.565 -0.32,-0.762c-0.197,-0.198 -0.465,-0.32 -0.761,-0.32l-48.241,0l0,7.834c0,1.199 -0.489,2.29 -1.279,3.08c-0.785,0.785 -1.876,1.274 -3.08,1.274l-7.834,0.005l0,21.781c0.753,-0.028 1.515,-0.042 2.281,-0.042c7.387,-0 14.117,1.382 19.021,3.611c5.266,2.398 8.534,5.85 8.558,9.79l0,34.35l30.583,0c0.296,0 0.564,-0.122 0.762,-0.319c0.197,-0.198 0.32,-0.466 0.32,-0.762l-0,-6.55c-0.522,0.032 -1.049,0.056 -1.585,0.056c-6.381,-0 -12.16,-2.586 -16.34,-6.767c-4.18,-4.18 -6.767,-9.959 -6.767,-16.34c0,-6.381 2.587,-12.16 6.767,-16.34c4.18,-4.179 9.959,-6.766 16.34,-6.766l-0.01,-0.006Z" style="fill:#fff;"/></svg>