<?xml version="1.0" encoding="UTF-8" standalone="no"?><!DOCTYPE svg PUBLIC "-//W3C//DTD SVG 1.1//EN" "http://www.w3.org/Graphics/SVG/1.1/DTD/svg11.dtd"><svg width="100%" height="100%" viewBox="0 0 93 93" version="1.1" xmlns="http://www.w3.org/2000/svg" xmlns:xlink="http://www.w3.org/1999/xlink" xml:space="preserve" xmlns:serif="http://www.serif.com/" style="fill-rule:evenodd;clip-rule:evenodd;stroke-linejoin:round;stroke-miterlimit:2;"><path d="M89.509,73.118l-19.668,-19.668c2.515,-4.984 3.941,-10.605 3.941,-16.559c-0,-20.34 -16.551,-36.891 -36.891,-36.891c-20.344,0.004 -36.891,16.551 -36.891,36.895c-0,20.34 16.547,36.891 36.891,36.891c5.953,0 11.574,-1.426 16.555,-3.941l19.668,19.668c2.18,2.183 5.094,3.382 8.195,3.382c3.106,0 6.016,-1.203 8.196,-3.382c2.179,-2.184 3.382,-5.094 3.382,-8.196c0,-3.105 -1.203,-6.015 -3.382,-8.195l0.004,-0.004Zm-86.844,-36.223c-0,-18.875 15.352,-34.227 34.227,-34.227c18.871,0 34.227,15.352 34.227,34.227c-0,18.871 -15.352,34.227 -34.227,34.227c-18.875,-0.004 -34.227,-15.355 -34.227,-34.227Zm84.961,50.734c-1.68,1.68 -3.922,2.602 -6.313,2.602c-2.391,-0 -4.633,-0.926 -6.312,-2.602l-19.121,-19.121c5.168,-3.113 9.511,-7.461 12.625,-12.625l19.121,19.121c1.679,1.68 2.601,3.922 2.601,6.312c0,2.395 -0.926,4.633 -2.601,6.313Zm-50.734,-78.844c-15.5,-0 -28.105,12.609 -28.105,28.105c-0,15.5 12.609,28.105 28.105,28.105c15.5,-0 28.105,-12.609 28.105,-28.105c-0,-15.5 -12.609,-28.105 -28.105,-28.105Zm-0,53.551c-14.027,-0 -25.441,-11.414 -25.441,-25.445c-0,-14.031 11.414,-25.441 25.441,-25.441c14.027,-0 25.441,11.414 25.441,25.441c-0,14.031 -11.414,25.445 -25.441,25.445Zm16.793,-35.906l-16.129,-9.313c-0.411,-0.238 -0.918,-0.238 -1.332,0l-16.129,9.313c-0.414,0.238 -0.668,0.68 -0.668,1.152l-0,18.621c-0,0.477 0.254,0.914 0.668,1.153l16.129,9.312c0.207,0.117 0.437,0.18 0.664,0.18c0.23,-0 0.461,-0.059 0.664,-0.18l16.129,-9.312c0.414,-0.239 0.668,-0.68 0.668,-1.153l-0,-18.621c-0,-0.476 -0.254,-0.914 -0.668,-1.152l0.004,-0Zm-16.793,8.926l-5.399,-3.117l13.465,-7.774l5.399,3.117l-13.465,7.774Zm-0,-15.547l5.398,3.117l-13.465,7.773l-5.398,-3.117l13.465,-7.773Zm-14.797,10.082l5.41,3.125l0.078,6.082c0.008,0.73 0.601,1.316 1.332,1.316l0.016,0c0.734,-0.008 1.324,-0.613 1.316,-1.348l-0.059,-4.5l5.371,3.102l0,15.547l-13.465,-7.773l0.001,-15.551Zm16.129,23.32l-0,-15.547l13.465,-7.774l-0,15.547l-13.465,7.774Zm11.453,-10.773c0.367,0.637 0.148,1.453 -0.489,1.82l-3.566,2.059c-0.211,0.121 -0.438,0.179 -0.664,0.179c-0.461,0 -0.906,-0.238 -1.156,-0.668c-0.368,-0.636 -0.149,-1.453 0.488,-1.82l3.566,-2.058c0.637,-0.368 1.453,-0.149 1.821,0.488l-0,-0Z" style="fill:url(#_Linear1);fill-rule:nonzero;"/><defs><linearGradient id="_Linear1" x1="0" y1="0" x2="1" y2="0" gradientUnits="userSpaceOnUse" gradientTransform="matrix(92.8874,0,0,92.8954,0,46.6712)"><stop offset="0" style="stop-color:#1685ff;stop-opacity:1"/><stop offset="0.5" style="stop-color:#8b5cf6;stop-opacity:1"/><stop offset="1" style="stop-color:#d946ef;stop-opacity:1"/></linearGradient></defs></svg>