<?xml version="1.0" encoding="UTF-8" standalone="no"?><!DOCTYPE svg PUBLIC "-//W3C//DTD SVG 1.1//EN" "http://www.w3.org/Graphics/SVG/1.1/DTD/svg11.dtd"><svg width="100%" height="100%" viewBox="0 0 19 19" version="1.1" xmlns="http://www.w3.org/2000/svg" xmlns:xlink="http://www.w3.org/1999/xlink" xml:space="preserve" xmlns:serif="http://www.serif.com/" style="fill-rule:evenodd;clip-rule:evenodd;stroke-linejoin:round;stroke-miterlimit:2;"><rect id="Artboard1" x="0" y="0" width="18.332" height="18.332" style="fill:none;"/><g><path d="M3.156,2.657c-0.132,-0 -0.259,0.053 -0.353,0.146c-1.688,1.688 -2.637,3.977 -2.637,6.364c0,2.386 0.949,4.675 2.637,6.363c0.194,0.194 0.513,0.194 0.707,-0c0.194,-0.194 0.194,-0.513 -0,-0.707c-1.501,-1.5 -2.344,-3.534 -2.344,-5.656c0,-2.122 0.843,-4.156 2.344,-5.657c0.194,-0.194 0.194,-0.513 -0,-0.707c-0.094,-0.093 -0.221,-0.146 -0.354,-0.146Zm12.02,-0c-0.133,-0 -0.26,0.053 -0.354,0.146c-0.194,0.194 -0.194,0.513 0,0.707c1.501,1.501 2.344,3.535 2.344,5.657c0,2.122 -0.843,4.156 -2.344,5.656c-0.194,0.194 -0.194,0.513 0,0.707c0.194,0.194 0.513,0.194 0.707,-0c1.688,-1.688 2.637,-3.977 2.637,-6.363c0,-2.387 -0.949,-4.676 -2.637,-6.364c-0.093,-0.093 -0.221,-0.146 -0.353,-0.146Zm-10.252,2.267c-1.125,1.126 -1.758,2.652 -1.758,4.243c0,1.591 0.633,3.117 1.758,4.242c0.194,0.194 0.513,0.194 0.707,-0c0.194,-0.194 0.194,-0.513 -0,-0.707c-0.938,-0.938 -1.465,-2.209 -1.465,-3.535c0,-1.327 0.527,-2.598 1.465,-3.535c0.194,-0.194 0.194,-0.514 -0,-0.708c-0.194,-0.193 -0.513,-0.193 -0.707,0Zm7.777,0c-0.194,0.194 -0.194,0.514 0,0.708c0.938,0.937 1.465,2.208 1.465,3.535c0,1.326 -0.527,2.597 -1.465,3.535c-0.194,0.194 -0.194,0.513 0,0.707c0.194,0.194 0.513,0.194 0.707,-0c1.125,-1.125 1.758,-2.651 1.758,-4.242c0,-1.591 -0.633,-3.117 -1.758,-4.243c-0.194,-0.193 -0.513,-0.193 -0.707,0Zm-3.535,1.243c-1.651,-0 -3,1.349 -3,3c0,1.651 1.349,3 3,3c1.651,-0 3,-1.349 3,-3c0,-1.651 -1.349,-3 -3,-3Zm0,1c1.111,-0 2,0.889 2,2c0,1.11 -0.889,2 -2,2c-1.11,-0 -2,-0.89 -2,-2c0,-1.111 0.89,-2 2,-2Z" style="fill:url(#_Linear1);fill-rule:nonzero;"/></g><defs><linearGradient id="_Linear1" x1="0" y1="0" x2="1" y2="0" gradientUnits="userSpaceOnUse" gradientTransform="matrix(18.0003,0,0,11.0818,0.166198,9.19751)"><stop offset="0" style="stop-color:#1685ff;stop-opacity:1"/><stop offset="0.5" style="stop-color:#8b5cf6;stop-opacity:1"/><stop offset="1" style="stop-color:#d946ef;stop-opacity:1"/></linearGradient></defs></svg>