<?xml version="1.0" encoding="UTF-8"?><svg id="a" xmlns="http://www.w3.org/2000/svg" xmlns:xlink="http://www.w3.org/1999/xlink" viewBox="0 0 50 50"><defs><style>.f{fill:url(#c);}.g{fill:url(#b);}.h{fill:url(#d);}.i{fill:url(#e);}</style><linearGradient id="b" x1="4.64" y1="25.02" x2="45.36" y2="25.02" gradientTransform="matrix(1, 0, 0, 1, 0, 0)" gradientUnits="userSpaceOnUse"><stop offset=".01" stop-color="#4376fc"/><stop offset=".99" stop-color="#c84bf1"/></linearGradient><linearGradient id="c" x1="14.96" y1="22.7" x2="34.3" y2="22.7" xlink:href="#b"/><linearGradient id="d" x1="17.63" y1="22.67" x2="31.62" y2="22.67" xlink:href="#b"/><linearGradient id="e" x1="22.59" y1="22.66" x2="26.65" y2="22.66" xlink:href="#b"/></defs><path class="g" d="M45.15,41.46c-.19-.18-.31-.2-1.14-.2h-.93v-3.13c0-1.78-.04-3.26-.09-3.45-.05-.17-.2-.42-.33-.55-.2-.19-.34-.22-.99-.25l-.75-.04-.05-.45c-.09-.74-.37-1.23-1.52-2.58-1.37-1.63-1.47-1.87-1.1-2.66,.3-.66,.58-.76,2.64-.96,2.03-.19,2.5-.35,3.07-1.01,.54-.62,.62-.99,.67-3,.07-2.75-.09-3.57-.86-4.29-.65-.62-.79-.66-2.99-.86-1-.09-1.76-.2-1.94-.29-.45-.21-.68-.61-.73-1.2-.05-.61,0-.66,1.36-2.3,1.1-1.33,1.3-1.72,1.31-2.55,0-.99-.27-1.43-2-3.15-1.74-1.74-2.24-2.05-3.24-2.05-.85,0-1.28,.24-2.76,1.5-.68,.58-1.36,1.1-1.49,1.15-.64,.25-1.43-.04-1.76-.63-.15-.26-.22-.68-.34-1.93-.17-1.91-.29-2.39-.74-2.9-.46-.54-1.08-.83-1.98-.93-.86-.1-2.81-.1-3.77,0-.79,.08-1.36,.33-1.82,.78-.57,.57-.67,.93-.86,2.96-.19,2.08-.28,2.33-.96,2.65-.75,.36-1.02,.26-2.72-1.14-.72-.58-1.47-1.14-1.67-1.23-.24-.11-.58-.17-1.01-.17-1.01,0-1.36,.22-3.15,2-1.79,1.8-2.04,2.2-2.04,3.25,0,.86,.17,1.19,1.42,2.65,1.16,1.35,1.4,1.79,1.31,2.34-.07,.41-.5,.96-.86,1.1-.13,.05-1,.16-1.93,.26-1.91,.18-2.39,.34-2.94,.89-.55,.57-.71,1.06-.78,2.43-.04,.66-.04,1.76,0,2.45,.06,1.03,.11,1.35,.29,1.73,.35,.76,1.01,1.31,1.75,1.47,.16,.03,.99,.12,1.86,.19,.99,.09,1.71,.19,1.9,.28,.56,.27,.85,.92,.72,1.61-.04,.21-.44,.78-1.24,1.76-1.33,1.62-1.52,2.03-1.43,2.94,.08,.8,.44,1.31,2.03,2.91,1.2,1.21,1.57,1.51,2.07,1.77,.57,.27,.67,.29,1.3,.26,.84-.05,1.1-.2,2.56-1.45,.6-.51,1.22-1,1.37-1.09,.37-.24,.99-.22,1.42,.03,.56,.31,.68,.68,.86,2.54,.08,.88,.21,1.79,.28,2.02,.17,.56,.68,1.13,1.23,1.4,.73,.37,2.78,.51,4.74,.32,1.03-.1,1.43-.25,1.96-.74,.62-.57,.77-1.02,.92-2.89,.07-.88,.2-1.79,.27-2,.16-.45,.46-.71,.96-.87,.59-.17,.95,0,2.43,1.21,.73,.6,1.46,1.17,1.62,1.24,.16,.08,.59,.16,.97,.19,.62,.03,.74,0,1.21-.24l.52-.26v2.89h-.91c-.86,0-.94,.02-1.14,.23-.36,.36-.31,.78,.16,1.3,2.6,2.84,4.07,4.38,4.3,4.51,.32,.19,.64,.2,.99,.05,.2-.09,1.61-1.54,4.29-4.42,.36-.39,.44-.53,.44-.83,0-.25-.06-.41-.21-.55Zm-8.25-4.12c-.62,.55-1.38,.7-1.97,.4-.16-.08-.88-.64-1.61-1.24-1.32-1.09-1.81-1.35-2.46-1.35-.46,0-1.15,.27-1.52,.59-.64,.55-.76,.91-.95,2.97-.17,1.93-.25,2.19-.72,2.59-.47,.39-.89,.46-2.97,.46s-2.49-.06-2.95-.45c-.43-.36-.55-.78-.73-2.65-.19-1.92-.29-2.24-.89-2.82-.61-.59-1.8-.78-2.59-.39-.17,.09-.85,.61-1.51,1.17-.65,.55-1.34,1.09-1.52,1.18-.45,.24-1.01,.23-1.52-.02-.57-.27-3.1-2.8-3.37-3.37-.41-.86-.27-1.22,1.07-2.86,1.24-1.51,1.39-1.74,1.44-2.4,.09-1.04-.36-1.88-1.25-2.33-.45-.23-.69-.26-2.19-.39-.93-.08-1.82-.18-1.97-.24-.34-.1-.81-.57-.95-.95-.25-.65-.27-4.3-.04-4.93,.12-.33,.5-.78,.78-.92,.19-.1,.89-.21,2.05-.32,2.02-.19,2.34-.29,2.91-.92,.45-.48,.62-.94,.62-1.63,0-.72-.24-1.12-1.41-2.5-1.41-1.65-1.57-2.07-1.12-3.02,.22-.47,2.8-3.06,3.29-3.31,.48-.25,1.11-.25,1.56,0,.18,.09,.85,.61,1.48,1.14,1.41,1.18,1.76,1.37,2.55,1.36,1.08,0,1.94-.68,2.23-1.72,.07-.26,.18-1.09,.24-1.83,.12-1.61,.2-1.95,.51-2.33,.53-.62,1.12-.73,3.64-.68,1.28,.02,1.72,.06,2.01,.17,.84,.36,.99,.73,1.19,2.84,.17,1.88,.29,2.29,.83,2.82,.67,.67,1.74,.88,2.57,.51,.21-.1,1-.68,1.75-1.31,1.43-1.2,1.65-1.31,2.38-1.21,.52,.07,.97,.4,2.28,1.71,1.35,1.34,1.59,1.64,1.73,2.19,.17,.68,.03,.99-1.16,2.43-.58,.69-1.16,1.47-1.28,1.72-.44,.91-.19,2.13,.54,2.75,.55,.47,.92,.56,2.76,.72,1.92,.16,2.19,.25,2.62,.78,.37,.47,.47,1.21,.42,3.37-.04,1.61-.05,1.82-.24,2.16-.38,.73-.77,.88-2.76,1.03-1.53,.13-2.11,.26-2.61,.62-.42,.31-.84,1.02-.91,1.59-.12,.83,.12,1.3,1.42,2.86,.83,.99,1.21,1.53,1.28,1.79,.18,.66,.16,.67-.93,.72-1.51,.07-1.7,.3-1.71,2.11v1.07l-.35,.29Zm5.38,6.98c-1.09,1.15-2.03,2.11-2.09,2.13-.08,.02-1.21-1.15-3.91-4.07l-.28-.3,.93,.02c.66,.02,.97,0,1.07-.09,.13-.11,.15-.55,.15-3.52,0-1.88,.03-3.47,.05-3.55,.05-.13,.31-.15,1.95-.15s1.91,.02,1.95,.15c.03,.08,.05,1.67,.05,3.55,0,3.05,.02,3.41,.15,3.52,.1,.08,.48,.15,1.05,.17l.9,.05-1.98,2.1Z"/><path class="f" d="M33.18,18.11c-1.26-2.37-3.52-4.15-6.14-4.84-1.13-.29-2.98-.36-4.06-.16-3.94,.75-7.02,3.71-7.84,7.57-.24,1.12-.24,2.89,0,4.01,.99,4.66,5.36,7.99,10.05,7.67,2.37-.16,4.4-1.04,6.07-2.63,1.28-1.21,2.14-2.56,2.63-4.13,.36-1.16,.46-2,.4-3.4-.07-1.66-.34-2.65-1.11-4.1Zm-.03,6.85c-.46,1.57-1.3,2.97-2.43,4.05-1.17,1.1-2.36,1.78-3.86,2.18-.77,.21-1.09,.24-2.22,.24-1.46,0-2.07-.1-3.28-.58-1.93-.77-3.67-2.37-4.59-4.23-.65-1.3-.91-2.45-.91-3.92,0-2.46,.9-4.6,2.67-6.3,2.09-2.01,4.81-2.85,7.59-2.36,2.77,.48,5.18,2.3,6.4,4.84,.68,1.41,.82,2.03,.82,3.83,0,1.34-.03,1.64-.21,2.27Z"/><path class="h" d="M23.75,15.71c-3.7,.51-6.35,3.72-6.1,7.42,.07,1.06,.26,1.73,.71,2.67,.69,1.41,1.77,2.47,3.23,3.18,1.09,.53,1.83,.69,3.04,.69,3.12,0,5.67-1.85,6.69-4.85,.28-.8,.3-.94,.3-2.09,0-1.43-.13-2.03-.68-3.15-1.31-2.66-4.29-4.27-7.18-3.88Zm6.42,9.53c-1.07,2.24-3.12,3.53-5.58,3.52-2.84,0-5.18-1.87-5.89-4.67-.15-.61-.17-.94-.15-1.68,.08-1.63,.68-2.96,1.85-4.11,1.52-1.49,3.7-2.07,5.78-1.53,3.66,.95,5.61,5.1,3.99,8.48Z"/><path class="i" d="M24.71,22.24c-.63-.08-1.02-.36-1.15-.83-.16-.59,.17-1.21,.78-1.41,.4-.14,.83,0,1.18,.36,.32,.34,.63,.36,.82,.05,.11-.16,.13-.27,.05-.4-.14-.26-.73-.76-1.03-.86-.21-.07-.26-.15-.26-.39,0-.22-.06-.36-.2-.45-.11-.08-.23-.15-.26-.15s-.15,.06-.26,.15c-.14,.09-.2,.23-.2,.45,0,.26-.04,.32-.31,.41-.17,.05-.48,.26-.68,.47-.85,.84-.79,2.17,.12,2.97,.34,.31,.67,.44,1.37,.53,.35,.05,.53,.14,.76,.36,.26,.26,.3,.36,.3,.77,0,.37-.05,.51-.25,.74-.47,.51-1.22,.51-1.72,0-.31-.32-.72-.37-.87-.1-.05,.1-.09,.22-.09,.27,0,.19,.64,.8,.99,.97,.31,.14,.36,.21,.39,.48,.05,.67,.82,.68,.88,0,.03-.27,.08-.35,.32-.45,.78-.32,1.25-1.05,1.25-1.91,0-1.13-.73-1.91-1.94-2.05Z"/></svg>