<?xml version="1.0" encoding="UTF-8" standalone="no"?><!DOCTYPE svg PUBLIC "-//W3C//DTD SVG 1.1//EN" "http://www.w3.org/Graphics/SVG/1.1/DTD/svg11.dtd"><svg width="100%" height="100%" viewBox="0 0 200 200" version="1.1" xmlns="http://www.w3.org/2000/svg" xmlns:xlink="http://www.w3.org/1999/xlink" xml:space="preserve" xmlns:serif="http://www.serif.com/" style="fill-rule:evenodd;clip-rule:evenodd;stroke-linejoin:round;stroke-miterlimit:2;"><g id="Layer1"><path d="M161.09,72.403c0,-35.229 -27.814,-63.891 -62.003,-63.891c-34.185,0 -61.997,28.662 -61.997,63.891c0,22.323 11.019,42.657 29.475,54.398c0.729,0.461 0.45,3.458 0.284,5.245c-0.125,1.345 -0.272,3.013 -0.136,4.668l-1.268,0c-3.785,0 -6.862,3.077 -6.862,6.861l0,26.3c0,3.781 3.077,6.861 6.862,6.861l6.967,0c0.274,9.423 7.111,17.008 15.528,17.008l22.298,0c8.417,0 15.254,-7.585 15.528,-17.008l5.339,0c3.783,0 6.862,-3.08 6.862,-6.861l0,-26.3c0,-3.784 -3.079,-6.861 -6.862,-6.861l-0.053,0c0.21,-1.601 0.188,-3.218 0.154,-4.527c-0.053,-2.001 -0.128,-5.033 0.72,-5.6c18.808,-12.599 29.165,-31.842 29.164,-54.184Zm-50.852,114.48l-22.298,0c-4.65,0 -8.425,-4.508 -8.673,-10.147l39.644,0c-0.248,5.639 -4.023,10.147 -8.673,10.147Zm20.864,-34.519l-9.429,0l0,6.862l9.426,0l-0.003,10.649l-65.651,0l0,-10.649l32.115,0l0,-6.862l-32.115,0l0,-8.789l65.66,0l-0.003,8.789Zm-15.058,0l-11.008,0l0,6.862l11.008,0l0,-6.862Zm12.064,-31.48c-3.984,2.671 -3.861,7.553 -3.762,11.479c0.035,1.428 0.093,3.772 -0.24,4.351l-5.275,0l0,-25.256l20.365,-14.638l2.811,-21.878c4.654,-1.348 8.086,-5.597 8.086,-10.678c0,-6.16 -5.009,-11.168 -11.166,-11.168c-6.155,0 -11.163,5.008 -11.163,11.168c0,4.813 3.079,8.885 7.356,10.451l-2.35,18.276l-13.939,10.018l0,-42.129c4.471,-1.457 7.734,-5.619 7.734,-10.569c0,-6.157 -5.007,-11.168 -11.165,-11.168c-6.155,0 -11.164,5.011 -11.164,11.168c0,4.95 3.261,9.112 7.734,10.569l0,75.834l-9.45,0l0,-95.56c4.471,-1.457 7.735,-5.619 7.735,-10.569c0,-6.157 -5.009,-11.165 -11.166,-11.165c-6.155,0 -11.165,5.008 -11.165,11.165c0,4.95 3.263,9.112 7.734,10.569l0,95.56l-10.06,0l0,-54.148c4.473,-1.457 7.736,-5.616 7.736,-10.569c0,-6.157 -5.009,-11.165 -11.166,-11.165c-6.156,0 -11.163,5.008 -11.163,11.165c0,4.953 3.261,9.112 7.732,10.569l0,16.422l-13.292,-10.144l0,-27.964c4.473,-1.457 7.735,-5.619 7.735,-10.569c0,-6.157 -5.009,-11.168 -11.166,-11.168c-6.155,0 -11.163,5.011 -11.163,11.168c0,4.95 3.261,9.112 7.732,10.569l0,31.361l20.154,15.379l0,29.094l-5.128,0c-0.216,-0.797 -0.048,-2.776 0.072,-4.034c0.349,-3.778 0.833,-8.956 -3.434,-11.667c-16.465,-10.477 -26.296,-28.647 -26.296,-48.61c0,-31.448 24.736,-57.03 55.136,-57.03c30.405,0 55.141,25.582 55.141,57.03c0.002,19.979 -9.274,37.195 -26.12,48.481Zm-45.94,-44.581c-2.373,0 -4.304,-1.931 -4.304,-4.306c0,-2.373 1.931,-4.304 4.304,-4.304c2.374,0 4.304,1.931 4.304,4.304c0,2.375 -1.93,4.306 -4.304,4.306Zm56.759,-7.736c-2.372,0 -4.303,-1.93 -4.303,-4.303c0,-2.375 1.931,-4.306 4.303,-4.306c2.374,0 4.305,1.931 4.305,4.306c0,2.373 -1.931,4.303 -4.305,4.303Zm-23.527,-13.953c-2.374,0 -4.303,-1.927 -4.303,-4.303c0,-2.376 1.929,-4.306 4.303,-4.306c2.373,0 4.305,1.93 4.305,4.306c0,2.376 -1.932,4.303 -4.305,4.303Zm-53.386,0c-2.372,0 -4.303,-1.927 -4.303,-4.303c0,-2.376 1.931,-4.306 4.303,-4.306c2.374,0 4.305,1.93 4.305,4.306c0,2.376 -1.931,4.303 -4.305,4.303Zm37.075,-19.723c-2.374,0 -4.303,-1.931 -4.303,-4.306c0,-2.376 1.929,-4.303 4.303,-4.303c2.374,0 4.305,1.927 4.305,4.303c0,2.375 -1.931,4.306 -4.305,4.306Z" style="fill:url(#_Linear1);fill-rule:nonzero;"/></g><defs><linearGradient id="_Linear1" x1="0" y1="0" x2="1" y2="0" gradientUnits="userSpaceOnUse" gradientTransform="matrix(93.1914,156.3,-156.3,93.1914,49.3401,18.074)"><stop offset="0" style="stop-color:#5a77ba;stop-opacity:1"/><stop offset="1" style="stop-color:#d748f0;stop-opacity:1"/></linearGradient></defs></svg>