<svg width="30" height="30" viewBox="0 0 30 30" fill="none" xmlns="http://www.w3.org/2000/svg">
<path fill-rule="evenodd" clip-rule="evenodd" d="M7.94693 6.03569C7.94693 5.89439 8.06101 5.78031 8.2023 5.78031C8.34255 5.78031 8.45768 5.89439 8.45768 6.03569V7.94052L9.52732 8.63758C9.64558 8.71398 9.67803 8.87202 9.60163 8.98924C9.52522 9.10751 9.36823 9.141 9.24996 9.06355L8.08089 8.3016C8.00031 8.25869 7.94693 8.17392 7.94693 8.07763L7.94693 6.03569ZM13.7546 4.35484C13.3622 4.35484 13.0063 4.51392 12.7488 4.77139C12.4914 5.02886 12.3323 5.38472 12.3323 5.77718C12.3323 6.0357 12.4014 6.27747 12.5217 6.48678L11.5913 7.27278V7.27069C11.4008 6.40095 10.8796 5.60343 10.0705 5.08538C9.26153 4.5673 8.31955 4.42498 7.45089 4.61441C6.58115 4.80489 5.78363 5.32609 5.26558 6.13514C5.19022 6.25341 5.22476 6.41039 5.34198 6.4868C5.46025 6.5632 5.61723 6.52866 5.69364 6.4104C6.13635 5.72068 6.81666 5.27482 7.5587 5.11366C8.30074 4.95143 9.10558 5.07284 9.79532 5.51451C10.485 5.95721 10.9299 6.63752 11.0921 7.37956C11.2543 8.12265 11.1329 8.92644 10.6912 9.61618C10.2485 10.3059 9.56819 10.7518 8.82615 10.9129C8.08411 11.0751 7.27927 10.9537 6.58953 10.5121C6.02749 10.152 5.62875 9.63606 5.4121 9.05728C5.25406 8.6355 5.19231 8.18022 5.23522 7.72809L5.50211 8.09127C5.58584 8.20431 5.74492 8.22942 5.85795 8.14569C5.97098 8.06301 5.9961 7.90393 5.91237 7.78985L5.30743 6.96408L5.30639 6.96304C5.2258 6.84791 5.06671 6.8207 4.95159 6.90129L4.10803 7.49682C3.9929 7.57741 3.96569 7.73649 4.04628 7.85162C4.12792 7.96674 4.28595 7.99396 4.40108 7.91337L4.73077 7.68102C4.68053 8.20957 4.7517 8.74227 4.93695 9.23524C5.19128 9.9145 5.65911 10.5205 6.31533 10.9412C7.12435 11.4593 8.06632 11.6016 8.93499 11.4122C9.80472 11.2217 10.6023 10.7005 11.1203 9.89146C11.5201 9.26769 11.6959 8.56437 11.6677 7.87674L12.8504 6.87722C13.0953 7.08026 13.4103 7.20166 13.7536 7.20166C14.1461 7.20166 14.5019 7.04258 14.7594 6.78511C14.8536 6.69196 14.9342 6.5852 14.9991 6.46798L17.4398 7.29166C17.4303 7.35864 17.4251 7.42772 17.4251 7.49784C17.4251 7.89031 17.5842 8.24618 17.8417 8.50363C18.0991 8.7611 18.455 8.92019 18.8475 8.92019C19.2399 8.92019 19.5958 8.7611 19.8532 8.50363C20.1107 8.24617 20.2698 7.89031 20.2698 7.49784C20.2698 7.25294 20.2081 7.02269 20.0992 6.82174L23.0068 4.49512C23.2569 4.71282 23.5835 4.84469 23.9414 4.84469C24.3339 4.84469 24.6898 4.68561 24.9472 4.42814C25.2047 4.17067 25.3638 3.81481 25.3638 3.42235C25.3638 3.02988 25.2047 2.67401 24.9472 2.41655C24.6898 2.15909 24.335 2 23.9414 2C23.549 2 23.1931 2.15908 22.9356 2.41655C22.6782 2.67402 22.5191 3.02988 22.5191 3.42235C22.5191 3.66725 22.5808 3.8975 22.6897 4.09845L19.7821 6.42402C19.5319 6.20633 19.2054 6.07445 18.8475 6.07445C18.455 6.07445 18.0991 6.23353 17.8417 6.491C17.7475 6.5852 17.6669 6.69091 17.603 6.80813L15.1613 5.98445C15.1707 5.91642 15.177 5.84839 15.177 5.77722C15.177 5.38475 15.0169 5.02889 14.7604 4.77143C14.503 4.51501 14.1482 4.35484 13.7546 4.35484ZM14.4004 5.13246C14.5647 5.29782 14.6673 5.52493 14.6673 5.77716C14.6673 6.02939 14.5647 6.25756 14.4004 6.42293C14.235 6.58829 14.0069 6.68981 13.7546 6.68981C13.5024 6.68981 13.2753 6.58829 13.1099 6.42293C12.9446 6.25756 12.8431 6.03046 12.8431 5.77716C12.8431 5.52492 12.9446 5.29675 13.1099 5.13246C13.2753 4.96709 13.5024 4.86557 13.7546 4.86557C14.0069 4.86557 14.235 4.96814 14.4004 5.13246ZM19.4943 6.85205C19.6587 7.01741 19.7612 7.24559 19.7612 7.49782C19.7612 7.75005 19.6587 7.97822 19.4943 8.14359C19.329 8.30896 19.1019 8.41048 18.8486 8.41048C18.5963 8.41048 18.3692 8.30791 18.2039 8.14359C18.0385 7.97823 17.937 7.75005 17.937 7.49782C17.937 7.24559 18.0385 7.01742 18.2039 6.85205C18.3692 6.68668 18.5963 6.58516 18.8486 6.58516C19.1008 6.58516 19.329 6.68669 19.4943 6.85205ZM24.5872 2.77653C24.7526 2.94189 24.8541 3.16899 24.8541 3.42123C24.8541 3.67346 24.7526 3.90163 24.5872 4.067C24.4218 4.23236 24.1947 4.33388 23.9414 4.33388C23.6892 4.33388 23.4621 4.23236 23.2967 4.067C23.1314 3.90163 23.0298 3.67453 23.0298 3.42123C23.0298 3.16899 23.1314 2.94082 23.2967 2.77653C23.4621 2.61116 23.6892 2.50964 23.9414 2.50964C24.1947 2.50964 24.4218 2.61221 24.5872 2.77653ZM7.13381 14.415H10.1898C10.3311 14.415 10.4452 14.5291 10.4452 14.6704V19.5089C10.4452 19.6502 10.3311 19.7643 10.1898 19.7643H7.13381C6.99252 19.7643 6.87844 19.6502 6.87844 19.5089V14.6704C6.87844 14.5291 6.99252 14.415 7.13381 14.415ZM9.93451 14.9257H7.38915V19.2544H9.93451V14.9257ZM14.7184 19.4752C14.7195 19.4846 14.7205 19.493 14.7205 19.5024C14.7237 19.5453 14.7279 19.5893 14.7331 19.6322C14.8608 20.772 15.4385 21.7516 16.2695 22.4141C17.1005 23.0767 18.1838 23.4231 19.3245 23.2944C20.4632 23.1667 21.4428 22.5889 22.1054 21.7579C22.6109 21.1237 22.9322 20.3418 22.9992 19.5014C23.0002 19.4941 23.0002 19.4857 23.0013 19.4784C23.0201 19.2251 23.0159 18.9655 22.9866 18.7039C22.9029 17.9619 22.6287 17.2868 22.2173 16.7237C22.2111 16.7164 22.2048 16.708 22.1996 16.6986C21.9839 16.4077 21.7317 16.147 21.4502 15.922C21.1048 15.6468 20.7175 15.427 20.2999 15.2721C20.2916 15.27 20.2832 15.2669 20.2759 15.2637C19.6929 15.0512 19.0534 14.9675 18.3962 15.0418C18.056 15.0806 17.7315 15.158 17.4239 15.271C17.4144 15.2752 17.405 15.2784 17.3945 15.2815C16.6839 15.5484 16.0727 16.0026 15.6143 16.5782C15.5735 16.6285 15.5358 16.6787 15.4981 16.7311C15.4929 16.7394 15.4876 16.7467 15.4814 16.7541C14.934 17.5192 14.6441 18.4716 14.7184 19.4752ZM14.237 19.7641H12.2275C12.0873 19.7641 11.9721 19.65 11.9721 19.5087V10.3832C11.9721 10.2419 12.0862 10.1278 12.2275 10.1278H15.2835C15.4248 10.1278 15.5389 10.2419 15.5389 10.3832V15.8978C15.9691 15.4613 16.4861 15.1065 17.0659 14.8648V12.8448C17.0659 12.7035 17.18 12.5894 17.3213 12.5894H20.3773C20.5176 12.5894 20.6327 12.7035 20.6327 12.8448V14.8553C21.0419 15.0238 21.4239 15.2499 21.7683 15.5241C21.9054 15.633 22.0362 15.7502 22.1597 15.8737L22.1587 7.53964C22.1587 7.39834 22.2727 7.28426 22.414 7.28426H25.4701C25.6103 7.28426 25.7254 7.39834 25.7254 7.53964V19.5098C25.7254 19.6511 25.6114 19.7652 25.4701 19.7652H23.4846C23.3747 20.6244 23.0273 21.4209 22.5039 22.0761C21.7598 23.0086 20.6598 23.6575 19.3799 23.8019C18.3437 23.9181 17.3484 23.6858 16.5122 23.197L16.0349 23.7381C16.1364 23.8312 16.1459 23.9903 16.0538 24.0939L13.5691 26.9134C13.476 27.0191 13.3148 27.0296 13.2091 26.9364L11.8642 25.7506C11.7585 25.6574 11.7491 25.4963 11.8412 25.3905L14.3258 22.5711C14.4169 22.4675 14.5739 22.456 14.6796 22.5428L15.1568 22.0017C14.6733 21.3696 14.3448 20.6066 14.237 19.7641ZM15.0272 16.5132C14.485 17.2961 14.1784 18.2464 14.1983 19.2534H12.4808V10.6377H15.0261L15.0272 16.5132ZM20.1222 14.6785V13.1002H17.5758V14.6859C17.8217 14.6157 18.0771 14.5645 18.3398 14.5351C18.9563 14.4661 19.5581 14.5205 20.1222 14.6785ZM20.4791 15.9941C20.4895 15.9983 20.499 16.0035 20.5084 16.0088C20.7114 16.1155 20.904 16.2401 21.083 16.3824C21.7915 16.9476 22.2855 17.7817 22.3996 18.7519C22.4017 18.7635 22.4027 18.775 22.4038 18.7865C22.5095 19.7577 22.2123 20.6808 21.6471 21.3894C21.0819 22.0979 20.2478 22.592 19.2776 22.706C19.266 22.7081 19.2545 22.7092 19.243 22.7102C18.2718 22.8149 17.3487 22.5187 16.6401 21.9535C15.9316 21.3884 15.4375 20.5542 15.3235 19.584C15.3214 19.5725 15.3203 19.561 15.3193 19.5495C15.2146 18.5782 15.5108 17.6551 16.076 16.9476C16.3763 16.5697 16.7531 16.2537 17.1864 16.0234C17.1969 16.0172 17.2073 16.0119 17.2178 16.0067C17.5904 15.8131 18.0028 15.6833 18.4444 15.631C18.4559 15.6289 18.4675 15.6278 18.479 15.6268C19.1938 15.5493 19.8825 15.6896 20.4791 15.9941ZM20.6319 16.6817C20.6769 16.7142 20.7208 16.7477 20.7648 16.7822C21.375 17.2689 21.7999 17.989 21.8941 18.8262C21.9883 19.6646 21.7339 20.4611 21.2462 21.0723C20.7595 21.6824 20.0395 22.1074 19.2022 22.2016H19.2011C18.3628 22.2957 17.5663 22.0414 16.9551 21.5537C16.345 21.066 15.92 20.347 15.8258 19.5086L15.8269 19.5097C15.7327 18.6713 15.987 17.8748 16.4747 17.2636C16.6443 17.0501 16.8442 16.8597 17.0661 16.6974V19.5096C17.0661 19.6509 17.1801 19.765 17.3214 19.765H20.3775C20.5177 19.765 20.6329 19.6509 20.6329 19.5096L20.6319 16.6817ZM17.5758 16.3971C17.8668 16.2621 18.1829 16.172 18.5188 16.1344C19.0871 16.0705 19.6366 16.1668 20.1222 16.3876V19.2543H17.5758V16.3971ZM23.5215 19.2543C23.5257 19.0544 23.5153 18.8524 23.4922 18.6483C23.4012 17.8382 23.1081 17.1004 22.6685 16.4797V7.79389H25.215V19.2542L23.5215 19.2543ZM16.0832 22.9121L15.6541 23.3998L15.0627 22.8786L15.4919 22.3909C15.6363 22.5416 15.7902 22.6819 15.9524 22.8116C15.9953 22.8462 16.0382 22.8797 16.0832 22.9121ZM15.5034 23.9472L13.3557 26.3848L12.3928 25.536L14.5415 23.0984L15.5034 23.9472Z" fill="url(#paint0_linear_1774_189)"/>
<defs>
<linearGradient id="paint0_linear_1774_189" x1="4.00006" y1="14.5602" x2="25.7259" y2="14.5602" gradientUnits="userSpaceOnUse">
<stop stop-color="#1685FF"/>
<stop offset="0.5" stop-color="#8B5CF6"/>
<stop offset="1" stop-color="#D946EF"/>
</linearGradient>
</defs>
</svg>
