<?xml version="1.0" encoding="UTF-8" standalone="no"?><!DOCTYPE svg PUBLIC "-//W3C//DTD SVG 1.1//EN" "http://www.w3.org/Graphics/SVG/1.1/DTD/svg11.dtd"><svg width="100%" height="100%" viewBox="0 0 110 110" version="1.1" xmlns="http://www.w3.org/2000/svg" xmlns:xlink="http://www.w3.org/1999/xlink" xml:space="preserve" xmlns:serif="http://www.serif.com/" style="fill-rule:evenodd;clip-rule:evenodd;stroke-linejoin:round;stroke-miterlimit:2;"><rect id="Artboard1" x="0" y="0" width="110" height="110" style="fill:none;"/><clipPath id="_clip1"><rect x="0" y="0" width="110" height="110"/></clipPath><g clip-path="url(#_clip1)"><path d="M55.851,0.226l48.052,26.687c0.536,0.296 0.834,0.831 0.834,1.385l0.01,0l-0,53.404c-0,0.65 -0.402,1.208 -0.978,1.457l-47.942,26.629c-0.542,0.297 -1.177,0.273 -1.678,-0.014l-48.052,-26.687c-0.536,-0.296 -0.834,-0.831 -0.834,-1.385l-0.01,-0l0.005,-53.404c0,-0.65 0.402,-1.208 0.973,-1.457l47.947,-26.629c0.537,-0.297 1.177,-0.273 1.673,0.014l0,-0Zm-0.849,46.387c-2.611,0 -4.974,1.108 -6.582,2.885l-26.098,-14.494l8.077,-2.083l-0.859,-3.089l-11.954,3.08c-0.889,0.229 -1.415,1.103 -1.177,1.958l3.202,11.5l3.212,-0.826l-2.164,-7.775l26.092,14.494c-1.727,4.828 1.405,10.005 6.578,10.97l0.01,28.985l-5.907,-5.683l-2.354,2.263l8.738,8.406c0.511,0.497 1.276,0.625 1.931,0.32c0.715,-0.339 7.953,-7.532 9.189,-8.726l-2.358,-2.268l-5.908,5.683l-0.005,-28.98c5.173,-0.964 8.311,-6.141 6.578,-10.97l26.098,-14.49l-2.164,7.775l3.212,0.826l3.202,-11.5c0.238,-0.855 -0.288,-1.729 -1.177,-1.958l-11.954,-3.081l-0.859,3.09l8.077,2.083l-26.093,14.49c-1.608,-1.777 -3.971,-2.885 -6.582,-2.885l-0.001,0Zm3.808,4.724c-3.381,-3.253 -9.199,-0.941 -9.199,3.663c0,4.608 5.813,6.92 9.199,3.663c2.105,-2.02 2.105,-5.306 0,-7.326Zm42.605,-22.123l-46.414,-25.78l-46.413,25.78l-0,51.57l46.413,25.781l46.414,-25.781l-0,-51.57Z" style="fill:url(#_Linear2);"/></g><defs><linearGradient id="_Linear2" x1="0" y1="0" x2="1" y2="0" gradientUnits="userSpaceOnUse" gradientTransform="matrix(99.494,0,0,106.927,5.2531,55.265)"><stop offset="0" style="stop-color:#1685ff;stop-opacity:1"/><stop offset="0.5" style="stop-color:#8b5cf6;stop-opacity:1"/><stop offset="1" style="stop-color:#d946ef;stop-opacity:1"/></linearGradient></defs></svg>