<svg width="61" height="60" viewBox="0 0 61 60" fill="none" xmlns="http://www.w3.org/2000/svg">
<g clip-path="url(#clip0_246_560)">
<path fill-rule="evenodd" clip-rule="evenodd" d="M24.9077 31.5049C24.5399 31.411 24.3181 31.0379 24.4121 30.6727C24.506 30.3049 24.879 30.0831 25.2443 30.177C26.173 30.4171 26.9791 30.9597 27.5478 31.6927C28.106 32.4127 28.4399 33.3154 28.4399 34.2936C28.4399 34.5858 28.4086 34.8754 28.3486 35.1623C28.2886 35.4519 28.1999 35.7284 28.0825 35.9919C27.9312 36.3389 27.5269 36.498 27.1799 36.3467C26.8329 36.1954 26.6738 35.7911 26.8251 35.4441C26.9034 35.2667 26.9634 35.0762 27.0051 34.8806C27.0442 34.6954 27.0651 34.4997 27.0651 34.291C27.0651 33.6258 26.8407 33.0127 26.4651 32.5275C26.079 32.0292 25.5338 31.6614 24.9077 31.4996L24.9077 31.5049ZM23.8381 20.0187C23.4703 19.9222 23.2511 19.5465 23.3477 19.1787C23.4442 18.8109 23.8198 18.5917 24.1877 18.6883C25.1138 18.9335 25.9172 19.4813 26.4808 20.2222C27.0312 20.9448 27.3573 21.8501 27.3521 22.8283C27.3495 23.1309 27.3182 23.4231 27.2582 23.6971C27.1956 23.984 27.1043 24.2632 26.9869 24.5293C26.833 24.8762 26.426 25.0301 26.0816 24.8762C25.7347 24.7223 25.5807 24.3153 25.7347 23.971C25.8129 23.7962 25.8729 23.611 25.9147 23.4127C25.9564 23.217 25.9799 23.0188 25.9799 22.8231C25.9851 22.1579 25.7634 21.5448 25.3877 21.0544C25.0042 20.5535 24.4616 20.1831 23.8355 20.0161L23.8381 20.0187ZM29.8043 27.3309C29.6165 27.4848 29.413 27.6257 29.1939 27.7509C28.9356 27.897 28.6669 28.0144 28.393 28.1031C28.1113 28.1944 27.8243 28.2544 27.5374 28.2831C27.1591 28.3222 26.8226 28.0483 26.7834 27.67C26.7443 27.2918 27.0182 26.9552 27.3965 26.9161C27.5896 26.8952 27.7826 26.8561 27.973 26.7935C28.1583 26.7335 28.3383 26.6552 28.5157 26.5535C28.8339 26.3735 29.1078 26.1387 29.3322 25.87C29.5357 25.6222 29.6975 25.3509 29.8044 25.0639V17.2896C29.8044 16.6635 29.5488 16.0948 29.134 15.6826C28.7218 15.2705 28.1504 15.0122 27.527 15.0122C26.9009 15.0122 26.3322 15.2679 25.9201 15.6826C25.5079 16.0948 25.2496 16.6662 25.2496 17.2896C25.2496 17.6705 24.9418 17.9783 24.5609 17.9783C24.3496 17.9783 24.1618 17.8844 24.0366 17.7357C23.8957 17.5974 23.7261 17.5009 23.5357 17.4357C23.3087 17.36 23.0426 17.3261 22.753 17.3261C22.2548 17.3261 21.8008 17.5296 21.4747 17.8557C21.1486 18.1818 20.9452 18.6357 20.9452 19.134C20.9452 19.6323 21.1486 20.0862 21.4747 20.4123C21.8008 20.7384 22.2548 20.9419 22.753 20.9419C23.1339 20.9419 23.4417 21.2497 23.4417 21.6306C23.4417 22.0114 23.1339 22.3192 22.753 22.3192C21.9339 22.3192 21.1878 22.0114 20.6243 21.5027C20.1521 21.6957 19.7425 22.0114 19.4347 22.4079C19.0591 22.8932 18.8347 23.5062 18.8347 24.1714C18.8347 24.2653 18.8399 24.3593 18.8478 24.4506C19.4687 24.1036 20.1835 23.9053 20.9452 23.9053C22.1347 23.9053 23.2096 24.388 23.9896 25.1653C24.7696 25.9454 25.2496 27.0201 25.2496 28.2098C25.2496 28.5906 24.9418 28.8984 24.5609 28.8984C24.1801 28.8984 23.8723 28.5906 23.8723 28.2098C23.8723 27.4011 23.5436 26.668 23.014 26.1384C22.4844 25.6088 21.7513 25.2801 20.9426 25.2801C20.1339 25.2801 19.4008 25.6088 18.8712 26.1384C18.3416 26.668 18.0129 27.401 18.0129 28.2098C18.0129 28.815 18.1929 29.3733 18.5033 29.8376C18.8164 30.3046 19.2599 30.6776 19.7843 30.9046C19.8104 30.9125 19.8364 30.9229 19.8599 30.9359C20.2043 31.1003 20.3478 31.5099 20.186 31.8516C20.1077 32.016 20.0477 32.1882 20.0086 32.3577C19.9721 32.5247 19.9512 32.7047 19.9512 32.8951C19.9512 33.5656 20.2225 34.1734 20.6634 34.6117C21.1017 35.0499 21.7095 35.3239 22.38 35.3239C22.8313 35.3239 23.2513 35.2039 23.6087 34.9925C23.9817 34.7734 24.2921 34.4578 24.5034 34.0795C24.6886 33.7482 25.106 33.6282 25.4373 33.8134C25.7686 33.9986 25.8887 34.416 25.7034 34.7473C25.3721 35.3395 24.8869 35.8351 24.3025 36.1769C23.7364 36.5108 23.079 36.7012 22.3799 36.7012H22.3433C22.3381 36.7195 22.3329 36.7404 22.3277 36.7612C22.2885 36.923 22.2703 37.0925 22.2703 37.2725C22.2703 37.8882 22.5207 38.4465 22.9225 38.8509C23.3268 39.2552 23.8851 39.5057 24.5008 39.5057C24.5686 39.5057 24.6338 39.503 24.6991 39.4978C24.7669 39.4926 24.8321 39.4848 24.8921 39.4717C25.1895 39.4196 25.4765 39.5683 25.6147 39.8187C25.8208 40.1317 26.0999 40.3926 26.426 40.5752C26.7495 40.7552 27.1252 40.857 27.5243 40.857C28.1504 40.857 28.7191 40.6013 29.1312 40.1865C29.5434 39.7743 29.8017 39.203 29.8017 38.5796V27.3305L29.8043 27.3309ZM41.171 20.368C41.3301 19.9897 41.4188 19.5723 41.4188 19.1366C41.4188 18.2575 41.0614 17.4618 40.4849 16.8853C39.9084 16.3087 39.1127 15.9514 38.2335 15.9514C37.8109 15.9514 37.4013 16.0061 37.0153 16.1366C36.9892 16.147 36.9605 16.1548 36.9344 16.1653C36.7544 15.6122 36.444 15.114 36.0396 14.7122C35.377 14.0496 34.4639 13.64 33.4596 13.64C32.4526 13.64 31.5395 14.0495 30.8795 14.7122C30.7386 14.8531 30.6108 15.0044 30.496 15.1635C30.3786 15.0018 30.2508 14.8505 30.1125 14.7122C29.4499 14.0496 28.5368 13.64 27.5324 13.64C26.5255 13.64 25.6124 14.0495 24.9524 14.7122C24.548 15.1165 24.2402 15.6122 24.0576 16.1653C24.0315 16.1548 24.0054 16.147 23.9767 16.1366C23.5906 16.0061 23.1811 15.9514 22.7585 15.9514C21.8793 15.9514 21.0836 16.3088 20.5071 16.8853C19.9306 17.4618 19.5732 18.2575 19.5732 19.1366C19.5732 19.5723 19.6619 19.9897 19.821 20.368C19.2445 20.655 18.7436 21.0698 18.3549 21.5732C17.7966 22.2932 17.4627 23.1959 17.4627 24.1742C17.4627 24.4663 17.494 24.7559 17.554 25.0429C17.5827 25.1759 17.6167 25.309 17.6558 25.4394C17.0245 26.1881 16.6436 27.156 16.6436 28.2125C16.6436 29.0942 16.9123 29.9186 17.3714 30.6047C17.721 31.1264 18.1801 31.5673 18.7175 31.8934C18.7019 31.9482 18.6888 32.003 18.6758 32.0604C18.6132 32.3369 18.5819 32.6187 18.5819 32.9004C18.5819 33.9517 19.0071 34.9013 19.6958 35.59C20.0637 35.9578 20.5071 36.25 20.9976 36.443L20.995 36.4508C20.9324 36.7169 20.8985 36.9935 20.8985 37.2752C20.8985 38.2718 21.3028 39.1744 21.955 39.8266C22.6072 40.4788 23.5098 40.8831 24.5063 40.8831C24.5689 40.8831 24.6315 40.8805 24.6942 40.8779C24.9889 41.2405 25.3516 41.5457 25.7638 41.7753C26.2907 42.0675 26.8934 42.2345 27.5299 42.2345C28.5342 42.2345 29.4499 41.8249 30.1099 41.1623C30.2508 41.0214 30.3786 40.8701 30.4934 40.7109C30.6108 40.8727 30.7387 41.024 30.8769 41.1623C31.5395 41.8249 32.4526 42.2345 33.457 42.2345C34.0935 42.2345 34.6962 42.0675 35.2231 41.7753C35.6353 41.5458 35.9979 41.2405 36.2927 40.8779C36.3553 40.8805 36.4179 40.8831 36.4805 40.8831C37.4771 40.8831 38.3797 40.4787 39.0319 39.8266C39.6841 39.1744 40.0884 38.2718 40.0884 37.2752C40.0884 36.9935 40.0545 36.7196 39.9919 36.4508L39.9893 36.443C40.4823 36.25 40.9232 35.9578 41.291 35.59C41.9797 34.9013 42.405 33.9517 42.405 32.9004C42.405 32.6186 42.3711 32.3369 42.3111 32.0604C42.298 32.003 42.285 31.9482 42.2693 31.8934C42.8067 31.5673 43.2659 31.1265 43.6154 30.6047C44.0746 29.9186 44.3433 29.0942 44.3433 28.2125C44.3433 27.156 43.9624 26.1907 43.3311 25.4394C43.3702 25.309 43.4067 25.1785 43.4328 25.0429C43.4928 24.7559 43.5241 24.4663 43.5241 24.1742C43.5241 23.1959 43.1928 22.2932 42.632 21.5732C42.2406 21.0698 41.7398 20.6576 41.1658 20.368H41.171ZM35.7422 30.1772C36.11 30.0833 36.4831 30.3051 36.5744 30.6729C36.6683 31.0407 36.4465 31.4138 36.0787 31.5051C35.4526 31.6668 34.9074 32.0347 34.5213 32.533C34.1456 33.0182 33.9213 33.6312 33.9213 34.2965C33.9213 34.5052 33.9422 34.7008 33.9813 34.8861C34.023 35.0817 34.083 35.2695 34.1613 35.4495C34.3126 35.7965 34.1535 36.2009 33.8065 36.3522C33.4595 36.5035 33.0552 36.3444 32.9038 35.9974C32.7891 35.7339 32.6978 35.4548 32.6377 35.1678C32.5777 34.8808 32.5464 34.5913 32.5464 34.2965C32.5464 33.3182 32.8778 32.4156 33.4386 31.6956C34.0073 30.9599 34.8134 30.4173 35.7421 30.1799L35.7422 30.1772ZM36.8013 18.691C37.1691 18.5945 37.5422 18.8137 37.6413 19.1815C37.7378 19.5493 37.5187 19.9224 37.1509 20.0215C36.5248 20.1859 35.9821 20.5589 35.5987 21.0598C35.223 21.5502 35.0039 22.1633 35.0065 22.8285C35.0091 23.0242 35.03 23.2224 35.0717 23.4181C35.1134 23.6163 35.1761 23.8016 35.2517 23.9764C35.4056 24.3233 35.2517 24.7277 34.9047 24.8816C34.5578 25.0355 34.1534 24.8816 33.9995 24.5347C33.8795 24.2686 33.7882 23.9894 33.7282 23.7025C33.6682 23.4285 33.6369 23.1364 33.6343 22.8337C33.6264 21.8528 33.9525 20.9502 34.5056 20.2276C35.0691 19.4893 35.8726 18.9389 36.7987 18.6937L36.8013 18.691ZM31.1846 25.0669V17.2925C31.1846 16.6664 31.4403 16.0977 31.8551 15.6856C32.2673 15.2734 32.8386 15.0151 33.462 15.0151C34.0881 15.0151 34.6569 15.2708 35.069 15.6856C35.4812 16.0977 35.7394 16.6691 35.7394 17.2925C35.7394 17.6734 36.0473 17.9812 36.4281 17.9812C36.6394 17.9812 36.8273 17.8873 36.9525 17.7386C37.0933 17.6003 37.2629 17.5038 37.4534 17.4386C37.6803 17.3629 37.9464 17.329 38.236 17.329C38.7343 17.329 39.1882 17.5325 39.5143 17.8586C39.8404 18.1847 40.0439 18.6386 40.0439 19.1369C40.0439 19.6352 39.8404 20.0891 39.5143 20.4152C39.1882 20.7413 38.7343 20.9448 38.236 20.9448C37.8551 20.9448 37.5473 21.2526 37.5473 21.6335C37.5473 22.0143 37.8552 22.3221 38.236 22.3221C39.0552 22.3221 39.8013 22.0143 40.3647 21.5056C40.8369 21.6986 41.2465 22.0143 41.5543 22.4108C41.93 22.8961 42.1543 23.5091 42.1543 24.1743C42.1543 24.2682 42.1491 24.3622 42.1413 24.4535C41.5204 24.1065 40.8056 23.9082 40.0438 23.9082C38.8543 23.9082 37.7795 24.3909 36.9994 25.1683C36.2194 25.9483 35.7394 27.0231 35.7394 28.2127C35.7394 28.5936 36.0472 28.9014 36.4281 28.9014C36.809 28.9014 37.1168 28.5935 37.1168 28.2127C37.1168 27.404 37.4455 26.6709 37.9751 26.1413C38.5047 25.6117 39.2377 25.283 40.0465 25.283C40.8552 25.283 41.5882 25.6117 42.1178 26.1413C42.6474 26.6709 42.9761 27.4039 42.9761 28.2127C42.9761 28.8179 42.7961 29.3762 42.4857 29.8405C42.1726 30.3075 41.7292 30.6806 41.2048 30.9075C41.1787 30.9154 41.1526 30.9258 41.1291 30.9389C40.7848 31.1032 40.6413 31.5128 40.803 31.8545C40.8813 32.0189 40.9413 32.1911 40.9804 32.3606C41.0169 32.5276 41.0378 32.7076 41.0378 32.898C41.0378 33.5685 40.7665 34.1763 40.3256 34.6146C39.8873 35.0529 39.2795 35.3268 38.6091 35.3268C38.1578 35.3268 37.7377 35.2068 37.3804 34.9955C37.0073 34.7763 36.6969 34.4607 36.4856 34.0824C36.3004 33.7511 35.883 33.6311 35.5517 33.8163C35.2204 34.0015 35.1004 34.4189 35.2856 34.7502C35.6169 35.3424 36.1022 35.838 36.6865 36.1798C37.2526 36.5137 37.91 36.7041 38.6092 36.7041H38.6457C38.6509 36.7224 38.6561 36.7433 38.6613 36.7641C38.7005 36.9259 38.7187 37.0955 38.7187 37.2755C38.7187 37.8911 38.4683 38.4494 38.0666 38.8538C37.6622 39.2581 37.1039 39.5086 36.4882 39.5086C36.4204 39.5086 36.3552 39.506 36.29 39.5007C36.2222 39.4955 36.1569 39.4877 36.0969 39.4747C35.7995 39.4225 35.5126 39.5712 35.3743 39.8216C35.1682 40.1347 34.8891 40.3955 34.563 40.5781C34.2395 40.7581 33.8639 40.8599 33.4648 40.8599C32.8387 40.8599 32.2699 40.6042 31.8578 40.1895C31.4456 39.7773 31.1874 39.2059 31.1874 38.5825V27.3334C31.3752 27.4873 31.5787 27.6282 31.7978 27.7534C32.0561 27.8995 32.3248 28.0169 32.5987 28.1056C32.8804 28.1969 33.1674 28.2569 33.4543 28.2856C33.8326 28.3247 34.1691 28.0508 34.2083 27.6725C34.2474 27.2942 33.9735 26.9577 33.5952 26.9186C33.4021 26.8977 33.2091 26.8586 33.0187 26.796C32.8334 26.736 32.6534 26.6577 32.476 26.556C32.1578 26.376 31.8839 26.1412 31.6595 25.8725C31.456 25.6247 31.2942 25.3534 31.1873 25.0664L31.1846 25.0669ZM3.23215 28.7713C2.85388 28.7739 2.54608 28.4661 2.54347 28.0878C2.54087 27.7096 2.8487 27.4018 3.22694 27.3992L7.127 27.3731C7.50527 27.3705 7.81307 27.6783 7.81568 28.0565C7.81828 28.4348 7.51045 28.7426 7.13221 28.7452L3.23215 28.7713ZM29.6326 0.635837C29.63 0.257566 29.9378 -0.0502354 30.316 -0.05284C30.6943 -0.0554486 31.0021 0.252383 31.0047 0.630628L31.0308 4.53068C31.0334 4.90896 30.7256 5.21676 30.3473 5.21936C29.9691 5.22197 29.6613 4.91414 29.6587 4.53589L29.6326 0.635837ZM16.1168 4.72376C15.9264 4.39766 16.0359 3.97765 16.362 3.78464C16.6881 3.5942 17.1081 3.70377 17.3011 4.02986L19.2733 7.39258C19.4638 7.71867 19.3542 8.13869 19.0281 8.33169C18.702 8.52213 18.282 8.41256 18.089 8.08647L16.1168 4.72376ZM6.45382 15.0205C6.12511 14.8327 6.00772 14.4153 6.19555 14.084C6.38338 13.7553 6.80078 13.6379 7.13206 13.8257L10.5208 15.7536C10.8495 15.9414 10.9669 16.3588 10.7791 16.6901C10.5913 17.0188 10.1739 17.1362 9.84257 16.9484L6.45382 15.0205ZM7.31994 42.2845C6.99384 42.4749 6.57383 42.3653 6.38082 42.0392C6.19038 41.7131 6.29995 41.2931 6.62604 41.1001L9.98876 39.1279C10.3148 38.9375 10.7349 39.047 10.9279 39.3731C11.1183 39.6992 11.0087 40.1193 10.6826 40.3123L7.31994 42.2845ZM54.5463 40.7844C54.875 40.9723 54.9924 41.3896 54.8046 41.7209C54.6167 42.0496 54.1993 42.167 53.868 41.9792L50.4793 40.0513C50.1506 39.8635 50.0332 39.4461 50.221 39.1148C50.4089 38.7861 50.8263 38.6687 51.1575 38.8566L54.5463 40.7844ZM57.7681 27.0362C58.1464 27.0336 58.4542 27.3415 58.4568 27.7197C58.4594 28.098 58.1515 28.4058 57.7733 28.4084L53.8732 28.4345C53.495 28.4371 53.1872 28.1293 53.1846 27.751C53.182 27.3727 53.4898 27.0649 53.868 27.0623L57.7681 27.0362ZM53.6802 13.5205C54.0063 13.33 54.4263 13.4396 54.6193 13.7657C54.8097 14.0918 54.7002 14.5118 54.3741 14.7048L51.0113 16.677C50.6853 16.8675 50.2652 16.7579 50.0722 16.4318C49.8818 16.1057 49.9914 15.6857 50.3175 15.4927L53.6802 13.5205ZM43.3834 3.8575C43.5712 3.5288 43.9886 3.4114 44.3199 3.59923C44.6486 3.78706 44.766 4.20446 44.5782 4.53575L42.6503 7.9245C42.4625 8.25321 42.0451 8.3706 41.7138 8.18277C41.3851 7.99494 41.2677 7.57754 41.4555 7.24626L43.3834 3.8575ZM40.5842 47.0922H20.7393C20.4367 47.0922 20.1628 47.2174 19.9645 47.4157C19.7636 47.6165 19.641 47.8905 19.641 48.1905V49.0748C19.641 49.3775 19.7636 49.6514 19.9645 49.8497C20.1654 50.0505 20.4393 50.1732 20.7393 50.1732H40.5842C40.8868 50.1732 41.1608 50.0506 41.359 49.8497C41.5599 49.6488 41.6825 49.3749 41.6825 49.0748V48.1905C41.6825 47.8879 41.5573 47.614 41.359 47.4157C41.1582 47.2148 40.8843 47.0922 40.5842 47.0922ZM21.0318 45.7148H40.0967C40.2506 45.5426 40.3758 45.3469 40.4697 45.1356C40.5741 44.8956 40.6367 44.6295 40.6471 44.353C40.6837 43.3668 40.8871 42.4486 41.2524 41.5955C41.6176 40.7451 42.1498 39.9598 42.8411 39.2424C44.3777 37.6537 45.609 35.7702 46.4438 33.6884C47.2472 31.6823 47.6829 29.4909 47.6672 27.1952C47.6359 22.4551 45.6872 18.1767 42.5593 15.0906C39.4314 12.0044 35.1243 10.1079 30.3846 10.1418C25.6445 10.1731 21.3661 12.1218 18.28 15.2497C15.1938 18.3776 13.2973 22.6847 13.3311 27.4244C13.3468 29.7149 13.8112 31.901 14.6407 33.8967C15.5016 35.9707 16.759 37.8359 18.3112 39.4012C19.013 40.1082 19.553 40.8856 19.9313 41.7334C20.3096 42.5839 20.5261 43.5021 20.5756 44.4831C20.5887 44.7596 20.6565 45.0231 20.7635 45.2631C20.8365 45.4248 20.9278 45.5761 21.0348 45.7118L21.0318 45.7148ZM23.0562 51.5505C22.7066 51.5505 22.391 51.694 22.1588 51.9236C21.9292 52.1532 21.7857 52.4714 21.7857 52.821V53.7889C21.7857 54.1384 21.9292 54.4541 22.1588 54.6863C22.3883 54.9159 22.7066 55.0594 23.0562 55.0594H38.2676C38.6172 55.0594 38.9328 54.9159 39.1651 54.6863C39.3946 54.4567 39.5381 54.1385 39.5381 53.7889V52.821C39.5381 52.4715 39.3946 52.1558 39.1651 51.9236C38.9355 51.694 38.6172 51.5505 38.2676 51.5505H23.0562ZM36.4831 56.4341H24.9315C25.0411 56.9872 25.3202 57.4828 25.7089 57.8689C26.2176 58.3724 26.9168 58.6802 27.6811 58.675L33.7856 58.6359L33.7882 58.6333V58.6359C34.5499 58.6307 35.2413 58.3124 35.7422 57.8063C36.11 57.4358 36.3735 56.9611 36.4857 56.4367L36.4831 56.4341ZM40.5867 51.5505C41.2676 51.5505 41.8858 51.2714 42.332 50.8227C42.7807 50.374 43.0598 49.7557 43.0598 49.0749V48.1905C43.0598 47.5096 42.7806 46.8887 42.332 46.4426C42.1233 46.2339 41.8754 46.0618 41.6015 45.9365C41.6458 45.8531 41.6876 45.767 41.7241 45.6809C41.8963 45.287 41.998 44.8565 42.0137 44.4026C42.045 43.5965 42.2093 42.8426 42.5119 42.1408C42.8145 41.439 43.2528 40.7895 43.8268 40.1972C45.4833 38.4833 46.8112 36.4511 47.7138 34.2023C48.5799 32.037 49.0521 29.6709 49.0338 27.1926C48.9999 22.0716 46.8947 17.4488 43.5163 14.115C40.1406 10.7836 35.4916 8.73834 30.3732 8.77226C25.2522 8.80617 20.6294 10.9114 17.2956 14.2898C13.9642 17.6655 11.9189 22.3145 11.9529 27.4329C11.9685 29.9138 12.4694 32.2747 13.3642 34.4272C14.2955 36.6629 15.6521 38.6794 17.3321 40.3725C17.9139 40.9595 18.3626 41.6012 18.673 42.2977C18.9834 42.9917 19.1582 43.743 19.1974 44.5517C19.2208 45.0056 19.3278 45.436 19.5026 45.8274C19.5287 45.8874 19.5574 45.9448 19.5861 46.0022C19.3643 46.1196 19.1608 46.2683 18.9861 46.4457C18.5374 46.8944 18.2582 47.5127 18.2582 48.1936V49.0779C18.2582 49.7588 18.5374 50.3771 18.9861 50.8258C19.4347 51.2745 20.0531 51.551 20.7313 51.5536C20.5226 51.9319 20.4052 52.3649 20.4052 52.824V53.7919C20.4052 54.5197 20.7026 55.1823 21.1827 55.6623C21.6627 56.1424 22.3253 56.4398 23.0532 56.4398H23.541C23.6636 57.3789 24.1019 58.219 24.7436 58.8529C25.5002 59.599 26.5411 60.0581 27.6837 60.0529L33.7855 60.0138V60.0164L33.7881 60.0138C34.9334 60.006 35.969 59.5312 36.7178 58.7746C37.3282 58.1537 37.7482 57.345 37.8761 56.4424H38.2674C38.9952 56.4424 39.6578 56.145 40.1379 55.665C40.6179 55.1849 40.9153 54.5223 40.9153 53.7945V52.8266C40.9153 52.3675 40.7979 51.9345 40.5892 51.5562L40.5867 51.5505Z" fill="url(#paint0_linear_246_560)"/>
</g>
<defs>
<linearGradient id="paint0_linear_246_560" x1="2.54344" y1="30.1447" x2="58.4571" y2="30.1447" gradientUnits="userSpaceOnUse">
<stop stop-color="#1685FF"/>
<stop offset="0.5" stop-color="#8B5CF6"/>
<stop offset="1" stop-color="#D946EF"/>
</linearGradient>
<clipPath id="clip0_246_560">
<rect width="61" height="60" fill="white"/>
</clipPath>
</defs>
</svg>
