<?xml version="1.0" encoding="UTF-8" standalone="no"?><!DOCTYPE svg PUBLIC "-//W3C//DTD SVG 1.1//EN" "http://www.w3.org/Graphics/SVG/1.1/DTD/svg11.dtd"><svg width="100%" height="100%" viewBox="0 0 96 96" version="1.1" xmlns="http://www.w3.org/2000/svg" xmlns:xlink="http://www.w3.org/1999/xlink" xml:space="preserve" xmlns:serif="http://www.serif.com/" style="fill-rule:evenodd;clip-rule:evenodd;stroke-linejoin:round;stroke-miterlimit:2;"><rect id="Artboard1" x="0" y="0" width="96" height="96" style="fill:none;"/><path d="M57.508,39.52l-1.175,0l0,-7.285c0,-4.354 -3.738,-7.896 -8.332,-7.896c-4.594,0 -8.332,3.542 -8.332,7.896l0,7.285l-1.176,0c-1.581,0 -2.868,1.287 -2.868,2.868l0,17.39c0,1.581 1.287,2.868 2.868,2.868l19.015,0c1.581,0 2.868,-1.287 2.868,-2.868l0,-17.39c-0,-1.582 -1.287,-2.868 -2.868,-2.868Zm-15.502,-7.286c0,-3.065 2.689,-5.558 5.994,-5.558c3.305,0 5.994,2.493 5.994,5.558l0,7.285l-11.988,0l0,-7.285Zm16.032,27.543c0,0.287 -0.243,0.53 -0.53,0.53l-19.016,0c-0.288,0 -0.53,-0.243 -0.53,-0.53l0,-17.39c0,-0.287 0.243,-0.53 0.53,-0.53l19.015,0c0.288,0 0.53,0.243 0.53,0.53l0,17.39l0.001,0Zm-10.038,-14.883c-2.222,0 -4.03,1.808 -4.03,4.03c0,1.071 0.424,2.084 1.162,2.831l-0.702,4.153c-0.057,0.339 0.038,0.686 0.26,0.949c0.222,0.263 0.549,0.414 0.893,0.414l4.836,0c0.344,0 0.671,-0.152 0.893,-0.414c0.222,-0.263 0.317,-0.61 0.26,-0.949l-0.702,-4.153c0.738,-0.747 1.162,-1.76 1.162,-2.831c-0.002,-2.223 -1.81,-4.03 -4.032,-4.03Zm0.948,5.431c-0.378,0.257 -0.572,0.711 -0.496,1.162l0.583,3.447l-2.07,0l0.583,-3.447c0.076,-0.451 -0.118,-0.905 -0.496,-1.162c-0.466,-0.316 -0.744,-0.84 -0.744,-1.402c0,-0.933 0.759,-1.692 1.692,-1.692c0.933,0 1.692,0.759 1.692,1.692c0,0.562 -0.278,1.086 -0.744,1.402Zm22.49,-19.602c-0.664,7.336 -2.528,14.368 -5.541,20.903c-0.197,0.428 -0.62,0.68 -1.062,0.68c-0.164,0 -0.33,-0.034 -0.489,-0.108c-0.586,-0.27 -0.842,-0.965 -0.572,-1.551c2.768,-6.003 4.529,-12.445 5.24,-19.163c-3.034,-0.859 -6.267,-2.03 -9.411,-3.412c-0.591,-0.26 -0.86,-0.949 -0.6,-1.54c0.26,-0.591 0.949,-0.859 1.54,-0.6c3.37,1.481 6.838,2.71 10.03,3.555c0.551,0.147 0.916,0.669 0.865,1.236Zm-14.984,33.557c0.48,0.432 0.519,1.171 0.087,1.651c-2.386,2.653 -5.027,5.051 -7.849,7.129c-0.206,0.152 -0.45,0.228 -0.693,0.228c-0.243,0 -0.487,-0.076 -0.693,-0.228c-2.822,-2.078 -5.463,-4.476 -7.849,-7.129c-0.432,-0.48 -0.393,-1.219 0.087,-1.651c0.48,-0.432 1.219,-0.393 1.651,0.087c2.083,2.316 4.369,4.429 6.804,6.29c2.434,-1.861 4.72,-3.974 6.804,-6.29c0.432,-0.48 1.171,-0.519 1.651,-0.087Zm-24.228,-13.632c0.27,0.586 0.014,1.28 -0.572,1.551c-0.158,0.073 -0.325,0.108 -0.489,0.108c-0.442,0 -0.865,-0.252 -1.062,-0.68c-3.013,-6.535 -4.877,-13.567 -5.541,-20.903c-0.051,-0.567 0.314,-1.089 0.865,-1.235c3.192,-0.846 6.66,-2.075 10.03,-3.556c0.591,-0.259 1.281,0.009 1.54,0.6c0.26,0.591 -0.009,1.281 -0.6,1.54c-3.144,1.381 -6.377,2.553 -9.411,3.412c0.711,6.718 2.473,13.16 5.24,19.163Zm55.953,22.744c-0.229,0 -0.455,0.016 -0.679,0.049l-2.551,-6.109c-0.182,-0.435 -0.607,-0.718 -1.079,-0.718l-22.278,0c2.389,-2.93 4.53,-6.119 6.379,-9.522c0.829,-1.526 1.595,-3.092 2.3,-4.691l13.461,0c0.069,0.268 0.161,0.529 0.277,0.784c0.504,1.103 1.4,1.96 2.523,2.413c0.56,0.226 1.152,0.341 1.76,0.341c2.595,0 4.707,-2.111 4.707,-4.707c0,-2.596 -2.111,-4.707 -4.707,-4.707c-2.192,0 -4.039,1.506 -4.56,3.538l-12.483,-0c1.793,-4.535 3.097,-9.312 3.881,-14.213l8.74,-0c0.472,-0 0.897,-0.283 1.079,-0.718l2.551,-6.109c0.223,0.032 0.45,0.049 0.679,0.049c2.595,-0 4.707,-2.111 4.707,-4.707c0,-2.595 -2.111,-4.707 -4.707,-4.707c-2.595,-0 -4.707,2.111 -4.707,4.707c0,0.666 0.137,1.31 0.407,1.916l0.017,0.037c0.329,0.72 0.827,1.337 1.447,1.805l-2.251,5.39l-7.628,-0c0.259,-2.068 0.427,-4.154 0.5,-6.25c0.02,-0.583 -0.392,-1.091 -0.966,-1.192c-7.992,-1.401 -20.7,-6.888 -26.157,-12.521c-0.22,-0.227 -0.523,-0.356 -0.84,-0.356c-0.317,-0 -0.619,0.128 -0.84,0.356c-5.457,5.633 -18.165,11.12 -26.157,12.521c-0.574,0.101 -0.986,0.609 -0.966,1.192c0.072,2.096 0.241,4.182 0.5,6.25l-7.628,-0l-2.251,-5.39c0.62,-0.468 1.12,-1.087 1.452,-1.814l0.013,-0.029c0.27,-0.605 0.407,-1.249 0.407,-1.916c0,-2.595 -2.111,-4.707 -4.707,-4.707c-2.596,-0 -4.707,2.111 -4.707,4.707c0,2.595 2.111,4.707 4.707,4.707c0.228,-0 0.455,-0.016 0.679,-0.049l2.551,6.109c0.182,0.435 0.607,0.718 1.079,0.718l8.74,-0c0.784,4.901 2.088,9.678 3.881,14.213l-12.487,-0c-0.521,-2.032 -2.368,-3.538 -4.56,-3.538c-2.596,0.001 -4.707,2.112 -4.707,4.708c0,2.596 2.111,4.707 4.707,4.707c0.608,0 1.2,-0.115 1.76,-0.341c1.124,-0.453 2.02,-1.31 2.523,-2.413c0.116,-0.255 0.209,-0.517 0.278,-0.784l13.462,0c0.705,1.599 1.472,3.165 2.3,4.691c1.849,3.403 3.99,6.592 6.379,9.522l-22.279,0c-0.472,0 -0.897,0.283 -1.079,0.718l-2.551,6.109c-0.223,-0.032 -0.45,-0.049 -0.679,-0.049c-2.595,0 -4.707,2.111 -4.707,4.707c0,2.595 2.111,4.707 4.707,4.707c2.596,0 4.707,-2.111 4.707,-4.707c0,-0.666 -0.137,-1.311 -0.408,-1.918l-0.016,-0.035c-0.329,-0.72 -0.826,-1.336 -1.448,-1.804l2.251,-5.391l23.508,0c3.279,3.621 6.958,6.782 10.946,9.378c0.194,0.126 0.416,0.189 0.638,0.189c0.222,0 0.444,-0.063 0.638,-0.189c3.988,-2.597 7.668,-5.757 10.946,-9.378l23.508,0l2.251,5.39c-0.62,0.468 -1.119,1.086 -1.45,1.811l-0.014,0.031c-0.27,0.605 -0.407,1.249 -0.407,1.915c0,2.595 2.111,4.707 4.707,4.707c2.595,0 4.707,-2.111 4.707,-4.707c0.001,-2.594 -2.111,-4.706 -4.706,-4.706Zm0.114,-24.529c1.306,0 2.369,1.063 2.369,2.369c0,1.306 -1.063,2.369 -2.369,2.369c-0.306,0 -0.604,-0.057 -0.886,-0.171c-0.558,-0.225 -1.021,-0.668 -1.271,-1.216c-0.141,-0.309 -0.212,-0.639 -0.212,-0.982c0,-1.307 1.063,-2.369 2.369,-2.369Zm-0.114,-26.868c1.306,0 2.369,1.063 2.369,2.369c0,1.306 -1.063,2.369 -2.369,2.369c-0.306,0 -0.604,-0.057 -0.876,-0.167l-0.037,-0.015c-0.553,-0.231 -0.995,-0.659 -1.24,-1.196l-0.012,-0.028c-0.135,-0.303 -0.204,-0.628 -0.204,-0.963c0,-1.306 1.062,-2.369 2.369,-2.369Zm-78.192,3.332l-0.008,0.019c-0.249,0.546 -0.691,0.974 -1.241,1.204l-0.03,0.013c-0.281,0.113 -0.579,0.171 -0.886,0.171c-1.306,0 -2.369,-1.063 -2.369,-2.369c0,-1.306 1.063,-2.369 2.369,-2.369c1.306,0 2.369,1.063 2.369,2.369c-0.001,0.335 -0.069,0.659 -0.204,0.962Zm-0.123,26.887c-0.25,0.548 -0.713,0.991 -1.271,1.216c-0.281,0.113 -0.579,0.171 -0.885,0.171c-1.306,0 -2.369,-1.063 -2.369,-2.369c0,-1.306 1.063,-2.369 2.369,-2.369c1.306,0 2.369,1.063 2.369,2.369c-0.001,0.343 -0.072,0.673 -0.213,0.982Zm-2.043,28.254c-1.306,0 -2.369,-1.063 -2.369,-2.369c0,-1.306 1.063,-2.369 2.369,-2.369c0.306,0 0.604,0.057 0.879,0.168l0.034,0.014c0.553,0.231 0.995,0.659 1.241,1.199l0.011,0.025c0.135,0.303 0.204,0.627 0.204,0.963c0,1.307 -1.062,2.369 -2.369,2.369Zm40.179,-4.519c-15.112,-10.154 -24.611,-27.895 -25.585,-47.767c8.11,-1.659 19.646,-6.69 25.585,-12.187c5.939,5.497 17.475,10.528 25.585,12.187c-0.974,19.872 -10.473,37.613 -25.585,47.767Zm40.179,4.519c-1.306,0 -2.369,-1.063 -2.369,-2.369c0,-0.336 0.069,-0.66 0.203,-0.96l0.01,-0.022c0.249,-0.546 0.691,-0.974 1.236,-1.202l0.036,-0.015c0.281,-0.113 0.579,-0.171 0.885,-0.171c1.306,0 2.369,1.063 2.369,2.369c0,1.306 -1.064,2.37 -2.37,2.37Z" style="fill:url(#_Linear1);fill-rule:nonzero;"/><defs><linearGradient id="_Linear1" x1="0" y1="0" x2="1" y2="0" gradientUnits="userSpaceOnUse" gradientTransform="matrix(89.9994,0,0,67.6672,2.9999,48.1677)"><stop offset="0" style="stop-color:#1685ff;stop-opacity:1"/><stop offset="0.5" style="stop-color:#8b5cf6;stop-opacity:1"/><stop offset="1" style="stop-color:#d946ef;stop-opacity:1"/></linearGradient></defs></svg>