<?xml version="1.0" encoding="UTF-8" standalone="no"?><!DOCTYPE svg PUBLIC "-//W3C//DTD SVG 1.1//EN" "http://www.w3.org/Graphics/SVG/1.1/DTD/svg11.dtd"><svg width="100%" height="100%" viewBox="0 0 90 90" version="1.1" xmlns="http://www.w3.org/2000/svg" xmlns:xlink="http://www.w3.org/1999/xlink" xml:space="preserve" xmlns:serif="http://www.serif.com/" style="fill-rule:evenodd;clip-rule:evenodd;stroke-linejoin:round;stroke-miterlimit:2;"><rect id="Artboard1" x="0" y="0" width="90" height="90" style="fill:none;"/><path d="M19.546,7.04c-3.706,2 -5.937,4.754 -6.52,7.74c-0.527,2.679 0.309,5.428 2.28,7.647c-0.826,1.168 -1.576,2.371 -2.249,3.615c-0.513,-2.191 -1.576,-4.255 -2.674,-6.944c-0.285,-0.691 -1.174,-0.877 -1.708,-0.377c-3.074,2.881 -4.421,6.188 -4.177,9.215c0.249,3.022 2.127,5.678 5.126,7.252c-0.327,1.424 -0.558,2.86 -0.711,4.312c-1.412,-1.871 -3.329,-3.3 -5.555,-5.352c-0.581,-0.54 -1.44,-0.28 -1.701,0.384c-1.534,3.92 -1.36,7.489 0.157,10.121c1.458,2.535 4.154,4.097 7.378,4.335c0.233,1.419 0.553,2.824 0.958,4.218c-2.005,-1.195 -4.288,-1.86 -7.116,-2.893c-0.885,-0.32 -1.461,0.255 -1.443,0.994c0.094,4.207 1.516,7.456 3.905,9.337c2.301,1.819 5.393,2.267 8.484,1.279c0.761,1.25 1.591,2.445 2.497,3.592c-2.393,-0.391 -4.815,0.063 -7.935,0.098c-0.819,0.006 -1.233,0.826 -0.942,1.475c1.73,3.841 4.328,6.258 7.256,7.055c2.824,0.767 5.835,-0.03 8.28,-2.133c1.164,0.866 2.371,1.662 3.626,2.388c-2.382,0.523 -4.49,1.807 -7.377,3.044c-0.746,0.32 -0.867,1.169 -0.327,1.722c2.963,2.991 6.341,4.212 9.357,3.863c2.91,-0.336 5.421,-2.195 6.913,-5.073c1.047,0.286 2.103,0.535 3.18,0.725c1.412,0.279 1.789,-1.865 0.359,-2.079c-11.603,-2.04 -21.313,-9.953 -25.66,-20.907c-4.288,-10.802 -2.73,-23.32 4.072,-32.419c1.726,-2.305 4.104,-3.938 4.463,-7.426c0.256,-2.441 -0.343,-4.839 -0.656,-7.983c-0.079,-0.8 -0.916,-1.161 -1.54,-0.825Zm50.908,0c3.707,2 5.933,4.754 6.52,7.74c0.524,2.679 -0.313,5.428 -2.277,7.647c0.824,1.168 1.573,2.371 2.243,3.615c0.512,-2.191 1.579,-4.255 2.677,-6.944c0.279,-0.691 1.175,-0.877 1.708,-0.377c3.068,2.881 4.424,6.188 4.173,9.215c-0.244,3.022 -2.12,5.678 -5.119,7.252c0.325,1.424 0.558,2.86 0.709,4.312c1.412,-1.871 3.323,-3.3 5.55,-5.352c0.586,-0.54 1.447,-0.28 1.708,0.384c1.534,3.92 1.353,7.489 -0.163,10.121c-1.458,2.535 -4.149,4.097 -7.373,4.335c-0.233,1.419 -0.551,2.824 -0.958,4.218c1.998,-1.195 4.288,-1.86 7.118,-2.893c0.883,-0.32 1.459,0.255 1.441,0.994c-0.098,4.207 -1.516,7.456 -3.905,9.337c-2.302,1.819 -5.393,2.267 -8.483,1.279c-0.763,1.25 -1.6,2.445 -2.499,3.592c2.394,-0.391 4.811,0.063 7.937,0.098c0.819,0.006 1.232,0.826 0.935,1.475c-1.726,3.841 -4.323,6.258 -7.258,7.055c-2.817,0.767 -5.827,-0.03 -8.28,-2.133c-1.155,0.866 -2.364,1.662 -3.626,2.388c2.388,0.523 4.492,1.807 7.386,3.044c0.743,0.32 0.865,1.169 0.318,1.722c-2.956,2.991 -6.332,4.212 -9.354,3.863c-2.911,-0.336 -5.421,-2.195 -6.91,-5.073c-1.046,0.286 -2.103,0.535 -3.177,0.725c-1.412,0.279 -1.791,-1.865 -0.361,-2.079c11.605,-2.04 21.314,-9.953 25.66,-20.907c4.288,-10.802 2.732,-23.32 -4.073,-32.419c-1.725,-2.305 -4.107,-3.938 -4.469,-7.426c-0.249,-2.441 0.345,-4.839 0.663,-7.983c0.076,-0.8 0.912,-1.161 1.539,-0.825Zm-37.333,70.514c-1.232,1.976 -2.924,3.283 -4.933,3.515c-1.948,0.225 -4.207,-0.674 -6.485,-2.453c2.062,-0.959 3.962,-1.964 6.035,-2.196c2.076,-0.237 3.557,0.188 5.383,1.134Zm23.76,-0c1.232,1.976 2.922,3.283 4.927,3.515c1.953,0.225 4.207,-0.674 6.485,-2.453c-2.064,-0.959 -3.957,-1.964 -6.031,-2.196c-2.075,-0.237 -3.556,0.188 -5.381,1.134Zm-41.139,-10.024c2.149,0.216 3.717,1.197 5.512,3.273c-1.876,1.382 -3.927,1.97 -5.879,1.44c-1.896,-0.511 -3.661,-2.184 -5.114,-4.682c1.702,-0.096 3.33,-0.251 5.481,-0.031Zm58.519,-0c-2.158,0.216 -3.726,1.197 -5.521,3.273c1.883,1.382 3.935,1.97 5.887,1.44c1.887,-0.511 3.654,-2.184 5.112,-4.682c-1.702,-0.096 -3.329,-0.251 -5.478,-0.031Zm-15.109,-38.188l-2.085,1.593c-0.942,0.714 -2.835,1.034 -4.94,1.196c-0.482,0.037 -0.977,0.076 -1.465,0.106c-2.051,-0.908 -4.481,-2.837 -8.194,-2.639c-1.876,0.1 -4.211,0.6 -6.209,0.981c-1.064,0.229 -2.14,0.408 -3.139,0.472c-0.704,-0.54 -1.408,-1.093 -2.105,-1.64c-1.783,-1.393 -3.521,-1.933 -5.112,-1.44c-1.593,0.494 -2.802,1.784 -4.138,3.473l-4.299,5.452c-1.331,1.69 -2.308,3.165 -2.412,4.829c-0.099,1.637 0.825,3.167 2.569,4.543l2.259,1.761c0.558,0.454 0.896,0.855 1.139,1.266l-1.139,1.192c-1.017,1.063 -1.278,2.638 -0.773,4.056c0.505,1.418 1.669,2.516 3.109,2.946c0.495,0.139 0.994,0.192 1.489,0.164c-0,0.488 0.073,0.976 0.244,1.458c0.505,1.411 1.667,2.51 3.114,2.941c0.488,0.144 0.987,0.192 1.475,0.162c-0.005,0.488 0.075,0.987 0.244,1.463c0.505,1.419 1.669,2.517 3.116,2.941c0.558,0.167 1.138,0.215 1.696,0.152c0.041,0.196 0.093,0.388 0.163,0.586c0.47,1.277 1.522,2.271 2.834,2.673c1.255,0.383 2.646,0.151 3.557,-0.756l0.286,-0.279l2.074,1.593c0.994,0.761 2.405,0.756 3.562,0.186c1.499,-0.744 2.284,-2.063 2.434,-3.219c1.447,0.192 2.622,-0.343 3.65,-1.283c0.875,-0.808 1.283,-1.854 1.399,-3.023c1.586,0.332 2.994,-0.29 4.114,-1.387c0.798,-0.78 1.088,-1.768 1.209,-2.622c1.005,0.377 2.156,0.319 3.18,-0.156c1.365,-0.628 2.357,-1.883 2.65,-3.358c0.22,-1.122 -0.014,-2.268 -0.645,-3.15c2.096,-0.952 4.358,-2.284 6.252,-4.666l1.941,-1.464c1.8,-1.371 2.771,-2.913 2.689,-4.575c-0.08,-1.661 -1.033,-3.149 -2.347,-4.857l-4.225,-5.509c-1.308,-1.709 -2.538,-3.319 -4.561,-3.679c-2.022,-0.359 -3.305,0.495 -4.66,1.517Zm-16.564,2.365c1.667,-0.087 2.985,0.39 4.264,1.005c-0.338,0.083 -0.674,0.175 -0.994,0.291l-7.008,2.511c-1.07,0.155 -1.858,0.219 -2.58,0.436c-0.75,0.225 -1.488,0.836 -1.802,1.631c-0.597,1.512 0.17,3.185 1.587,4.273c1.424,1.086 3.608,1.638 6.229,1.033l3.853,-0.487c1.593,-0.205 3.068,1.078 4.63,2.301l11.278,8.786c0.494,0.384 0.749,1.051 0.592,1.836c-0.151,0.786 -0.732,1.511 -1.465,1.853c-0.732,0.338 -1.451,0.25 -1.939,-0.132l-5.717,-4.446c-0.192,-0.156 -0.437,-0.239 -0.68,-0.232c-1,0.023 -1.408,1.289 -0.61,1.893l3.95,3.081c0.495,0.384 0.743,1.047 0.593,1.83c-0.158,0.785 -0.732,1.523 -1.465,1.86c-0.739,0.338 -1.454,0.25 -1.946,-0.135l-3.957,-3.079c-0.199,-0.157 -0.442,-0.238 -0.686,-0.232c-1,0.028 -1.406,1.295 -0.61,1.893l2.72,2.121c0.494,0.385 0.743,1.041 0.592,1.825c-0.157,0.784 -0.732,1.522 -1.47,1.863c-0.702,0.326 -1.395,0.25 -1.884,-0.098l-2.782,-2.149c-0.199,-0.158 -0.436,-0.237 -0.686,-0.232c-0.999,0.024 -1.406,1.296 -0.61,1.893l2.436,1.894c0.035,0.204 0.046,0.43 -0.007,0.686c-0.132,0.658 -0.633,1.296 -1.248,1.587c-0.617,0.29 -1.181,0.22 -1.557,-0.076l-1.754,-1.365c0.621,-0.935 0.708,-2.143 0.318,-3.254c-0.51,-1.476 -1.744,-2.411 -2.986,-2.714c0.174,-0.756 0.133,-1.563 -0.139,-2.329c-0.506,-1.418 -1.669,-2.517 -3.116,-2.942c-0.492,-0.144 -0.994,-0.198 -1.486,-0.162c-0,-0.487 -0.071,-0.987 -0.245,-1.464c-0.505,-1.419 -1.669,-2.51 -3.109,-2.941c-0.489,-0.139 -0.994,-0.191 -1.481,-0.162c0.006,-0.489 -0.071,-0.988 -0.238,-1.465c-0.505,-1.418 -1.68,-2.516 -3.127,-2.94c-1.314,-0.39 -2.713,-0.134 -3.724,0.714c-0.199,-0.272 -0.419,-0.546 -0.693,-0.813l10.877,-13.789c1.356,0.017 2.796,-0.292 3.953,-0.512c2.024,-0.388 4.342,-0.858 5.929,-0.946Zm-3.866,31.807c0.658,0.198 1.244,0.75 1.477,1.384c0.231,0.634 0.105,1.18 -0.222,1.522l-1.237,1.295c-0.325,0.345 -0.876,0.494 -1.527,0.298c-0.656,-0.204 -1.244,-0.756 -1.475,-1.384c-0.094,-0.25 -0.105,-0.476 -0.101,-0.693l2.384,-2.481c0.237,-0.073 0.491,0.042 0.701,0.059Zm-3.386,-5.303c0.789,0.161 1.458,0.871 1.726,1.621c0.265,0.754 0.116,1.446 -0.314,1.893l-2.348,2.458c-0.429,0.447 -1.12,0.639 -1.9,0.408c-0.778,-0.229 -1.458,-0.866 -1.73,-1.622c-0.268,-0.75 -0.105,-1.454 0.324,-1.9l2.337,-2.447c0.602,-0.633 1.19,-0.558 1.905,-0.411Zm-31.489,-5.428c2.144,0.773 4.195,1.401 5.519,2.249c1.429,0.918 2.488,2.441 3.325,5.048c-2.266,0.536 -4.389,0.268 -5.975,-0.981c-1.538,-1.214 -2.51,-3.445 -2.869,-6.316Zm82.302,-0c-2.139,0.773 -4.19,1.401 -5.521,2.249c-1.429,0.918 -2.48,2.441 -3.323,5.048c2.272,0.536 4.386,0.268 5.978,-0.981c1.542,-1.214 2.512,-3.445 2.866,-6.316Zm-55.817,0.913c0.942,0.174 1.621,0.817 1.887,1.574c0.268,0.755 0.117,1.448 -0.314,1.895l-2.347,2.458c-0.429,0.447 -1.127,0.639 -1.9,0.413c-0.777,-0.232 -1.454,-0.884 -1.719,-1.632c-0.274,-0.756 -0.122,-1.447 0.307,-1.896l2.343,-2.451c0.319,-0.345 0.796,-0.538 1.743,-0.361Zm-4.678,-4.62c0.809,0.204 1.465,0.871 1.733,1.621c0.266,0.756 0.109,1.447 -0.32,1.9l-2.343,2.452c-0.43,0.446 -1.127,0.638 -1.9,0.412c-0.778,-0.233 -1.465,-0.872 -1.73,-1.627c-0.268,-0.751 -0.117,-1.446 0.313,-1.9l2.493,-2.597c0.639,-0.423 1.126,-0.417 1.754,-0.261Zm31.808,-15.934l10.772,13.958c-1.783,2.016 -3.852,3.097 -5.896,3.939l-10.21,-7.959c-1.452,-1.128 -3.469,-3.127 -6.252,-2.771l-4.068,0.528c-2.144,0.279 -3.591,0.005 -4.467,-0.662c-0.878,-0.669 -1.157,-1.57 -0.675,-1.987c0.484,-0.419 1.47,-0.199 2.615,-0.606l7.293,-2.597c1.371,-0.493 3.546,-0.591 5.718,-0.754c1.811,-0.141 3.652,-0.309 5.17,-1.089Zm29.333,3.604c-1.697,1.51 -3.37,2.852 -4.288,4.136c-0.99,1.377 -1.401,3.186 -1.21,5.922c2.302,-0.35 4.173,-1.383 5.178,-3.133c0.982,-1.702 1.052,-4.131 0.32,-6.925Zm-83.593,-0c1.701,1.51 3.375,2.852 4.289,4.136c0.987,1.377 1.405,3.186 1.213,5.922c-2.305,-0.35 -4.17,-1.383 -5.182,-3.133c-0.976,-1.702 -1.052,-4.131 -0.32,-6.925Zm60.199,-6.694c1.057,0.192 2.069,1.133 3.299,2.737l4.225,5.508c1.232,1.605 1.872,2.823 1.911,3.673c0.042,0.848 -0.331,1.626 -1.858,2.784l-1.192,0.906l-10.575,-13.708l1.214,-0.923c1.146,-0.874 1.918,-1.175 2.976,-0.977Zm-33.679,1.022l1.207,0.948l-10.72,13.597l-1.225,-0.953c-1.512,-1.18 -1.872,-1.964 -1.82,-2.812c0.053,-0.849 0.709,-2.057 1.959,-3.645l4.3,-5.456c1.255,-1.586 2.284,-2.509 3.34,-2.689c1.059,-0.186 1.827,0.127 2.959,1.01Zm51.146,-9.699c-0.889,2.098 -1.831,4.027 -2.115,5.579c-0.303,1.667 0.093,3.481 1.435,5.869c1.935,-1.296 3.185,-3.028 3.352,-5.044c0.156,-1.952 -0.813,-4.184 -2.672,-6.404Zm-71.733,0c0.889,2.098 1.831,4.027 2.11,5.579c0.301,1.667 -0.094,3.481 -1.429,5.869c-1.942,-1.296 -3.19,-3.028 -3.354,-5.044c-0.157,-1.952 0.812,-4.184 2.673,-6.404Zm61.598,-11.649c-0.285,2.254 -0.494,4.365 -0.342,5.933c0.162,1.691 0.854,3.329 2.793,5.264c1.512,-1.771 2.245,-3.776 1.855,-5.764c-0.373,-1.925 -1.917,-3.806 -4.306,-5.433Zm-51.466,-0c0.286,2.254 0.495,4.365 0.345,5.933c-0.163,1.691 -0.86,3.329 -2.802,5.264c-1.511,-1.771 -2.243,-3.776 -1.852,-5.764c0.377,-1.925 1.917,-3.806 4.309,-5.433Z" style="fill:url(#_Linear1);fill-rule:nonzero;"/><defs><linearGradient id="_Linear1" x1="0" y1="0" x2="1" y2="0" gradientUnits="userSpaceOnUse" gradientTransform="matrix(88.8246,0,0,68.2484,0.587923,45.1834)"><stop offset="0" style="stop-color:#1685ff;stop-opacity:1"/><stop offset="0.5" style="stop-color:#8b5cf6;stop-opacity:1"/><stop offset="1" style="stop-color:#d946ef;stop-opacity:1"/></linearGradient></defs></svg>