<svg width="500" height="501" viewBox="0 0 500 501" fill="none" xmlns="http://www.w3.org/2000/svg">
<path fill-rule="evenodd" clip-rule="evenodd" d="M113.835 184.696C150.367 203.076 198.718 213.199 249.985 213.199C301.253 213.199 349.604 203.076 386.135 184.696C403.396 176.005 417.188 165.883 427.156 154.767V203.056C427.137 203.302 427.127 203.549 427.127 203.798C427.127 221.116 415.331 235.03 405.413 243.657C389.46 257.557 366.223 268.989 337.986 276.886C323.632 263.044 306.118 252.691 286.792 246.828C258.729 238.314 228.581 239.794 201.487 251.016C186.709 257.136 173.338 265.948 161.992 276.891C133.752 268.992 110.517 257.539 94.5513 243.675C84.657 235.048 72.8378 221.134 72.8378 203.816C72.8378 203.593 72.8299 203.372 72.8143 203.152V154.767C82.7831 165.883 96.5743 176.005 113.835 184.696ZM355.391 297.708C354.188 295.908 352.942 294.142 351.654 292.413C378.741 283.883 401.404 272.055 417.737 257.824C421.183 254.825 424.325 251.733 427.156 248.562V299.202C426.504 315.826 415.103 329.194 405.472 337.577C397.477 344.516 387.675 350.843 376.214 356.466C374.284 335.577 367.185 315.36 355.391 297.708ZM376.141 380.558C376.255 379.397 376.353 378.237 376.435 377.076C392.844 369.873 406.737 361.37 417.796 351.744C421.218 348.762 424.34 345.69 427.156 342.54V391.139C427.155 391.172 427.153 391.206 427.152 391.24C427.15 391.301 427.148 391.362 427.146 391.423C427.145 391.485 427.145 391.547 427.145 391.609C427.145 412.953 409.574 433.551 377.673 449.607C363.39 456.807 347.088 462.64 329.392 466.981C332.96 464.103 336.376 461.027 339.621 457.765C360.359 437.028 373.265 409.743 376.141 380.558ZM386.118 466.385C349.846 484.644 301.9 494.754 251.006 494.888C250.666 494.889 250.326 494.89 249.985 494.889H249.886C198.656 494.876 150.343 484.754 113.835 466.385C75.4406 447.054 54.2191 420.64 54.0419 391.965C54.0373 391.844 54.035 391.724 54.035 391.603V109.913C54.035 81.0986 75.2791 54.5435 113.835 35.1304C150.367 16.7502 198.718 6.62695 249.985 6.62695C301.253 6.62695 349.604 16.7502 386.135 35.1304C424.692 54.5435 445.936 81.0986 445.936 109.913V296.964C445.955 297.21 445.965 297.458 445.965 297.706C445.965 298.318 445.955 298.929 445.936 299.54V391.603C445.936 391.774 445.931 391.944 445.922 392.114C445.675 420.728 424.454 447.086 386.118 466.385ZM249.985 476.11H249.888C191.508 476.058 143.827 429.441 142.055 371.471C142.108 370.827 142.093 370.182 142.013 369.544C142.007 369.073 142.004 368.601 142.004 368.129C142.004 308.587 190.443 260.148 249.985 260.148C309.527 260.148 357.966 308.587 357.966 368.129C357.966 427.638 309.58 476.057 250.083 476.11H249.985ZM125.665 392.853C124.623 387.611 123.917 382.332 123.545 377.048C107.156 369.85 93.2686 361.352 82.245 351.744C78.7942 348.74 75.6484 345.644 72.8143 342.469V391.271C72.8182 391.381 72.8201 391.492 72.8201 391.603C72.8201 412.947 90.3905 433.545 122.292 449.602C136.602 456.816 152.935 462.657 170.667 467.002C170.3 466.707 169.935 466.411 169.571 466.112C146.902 447.507 131.386 421.616 125.665 392.853ZM138.201 308.37C130.176 323.382 125.316 339.74 123.77 356.448C112.312 350.83 102.53 344.508 94.5689 337.577C84.6746 328.944 72.8554 315.024 72.8554 297.706C72.8554 297.412 72.8416 297.119 72.8143 296.829V248.592C75.6438 251.758 78.7837 254.846 82.2274 257.841C98.5667 272.058 121.231 283.884 148.327 292.414C144.578 297.448 141.19 302.778 138.201 308.37ZM72.8143 109.913C72.8143 88.5634 90.3612 67.9649 122.292 51.9027C156.241 34.7959 201.593 25.4063 249.985 25.4063C298.377 25.4063 343.729 34.7959 377.679 51.9027C409.609 67.9649 427.156 88.5634 427.156 109.913C427.156 131.263 409.609 151.861 377.679 167.924C343.729 185.03 298.377 194.42 249.985 194.42C201.593 194.42 156.241 185.03 122.292 167.924C90.3847 151.861 72.8143 131.263 72.8143 109.913ZM202.409 449.39H297.562C304.172 449.382 310.51 446.755 315.187 442.083C319.864 437.412 322.499 431.077 322.515 424.467V360.212C322.505 353.597 319.873 347.257 315.195 342.58C313.239 340.624 310.991 339.025 308.553 337.827V329.003C308.553 313.47 302.383 298.573 291.399 287.589C280.416 276.606 265.519 270.435 249.985 270.435C234.452 270.435 219.555 276.606 208.572 287.589C197.588 298.573 191.417 313.47 191.417 329.003V337.827C188.981 339.025 186.734 340.622 184.777 342.578C180.1 347.253 177.467 353.593 177.456 360.206V424.467C177.472 431.077 180.107 437.412 184.784 442.083C189.461 446.755 195.799 449.382 202.409 449.39ZM289.774 329.003V335.265H210.197V329.003C210.197 318.451 214.389 308.33 221.851 300.868C229.312 293.407 239.433 289.215 249.985 289.215C260.538 289.215 270.658 293.407 278.12 300.868C285.582 308.33 289.774 318.451 289.774 329.003ZM198.047 355.852C199.205 354.696 200.773 354.046 202.409 354.044H297.562C299.196 354.046 300.764 354.695 301.921 355.85C303.078 357.005 303.731 358.571 303.735 360.206V424.467C303.734 426.103 303.083 427.673 301.925 428.83C300.768 429.988 299.198 430.639 297.562 430.64H202.409C200.772 430.639 199.203 429.988 198.045 428.83C196.888 427.673 196.237 426.103 196.235 424.467V360.212C196.239 358.576 196.89 357.008 198.047 355.852ZM238.031 426.474H261.94C264.429 426.467 266.814 425.473 268.57 423.709C270.326 421.945 271.31 419.556 271.306 417.066V400.511C276.482 395.91 279.451 389.725 279.451 383.182C279.451 376.145 275.983 369.408 269.938 364.713C264.528 360.5 257.433 358.152 249.985 358.152C242.538 358.152 235.443 360.5 230.009 364.731C223.964 369.432 220.496 376.157 220.496 383.199C220.496 389.742 223.465 395.928 228.641 400.529V417.084C228.641 419.574 229.631 421.963 231.392 423.724C233.153 425.484 235.541 426.474 238.031 426.474ZM252.55 407.694H247.421L247.409 395.769C247.409 394.121 246.976 392.501 246.152 391.073C245.327 389.646 244.142 388.46 242.714 387.636C240.56 386.392 239.269 384.731 239.269 383.199C239.269 380.312 243.964 376.949 249.979 376.949C255.995 376.949 260.69 380.312 260.69 383.199C260.69 384.701 259.398 386.392 257.245 387.636C255.817 388.46 254.631 389.646 253.807 391.073C252.983 392.501 252.55 394.121 252.55 395.769V407.694Z" fill="url(#paint0_linear_310_450)"/>
<defs>
<linearGradient id="paint0_linear_310_450" x1="54.036" y1="251.934" x2="445.973" y2="251.934" gradientUnits="userSpaceOnUse">
<stop stop-color="#1685FF"/>
<stop offset="0.5" stop-color="#8B5CF6"/>
<stop offset="1" stop-color="#D946EF"/>
</linearGradient>
</defs>
</svg>
