<?xml version="1.0" encoding="UTF-8"?><svg id="a" xmlns="http://www.w3.org/2000/svg" xmlns:xlink="http://www.w3.org/1999/xlink" viewBox="0 0 50 50"><defs><style>.u{fill:url(#t);}.v{fill:url(#r);}.w{fill:url(#l);}.x{fill:url(#c);}.y{fill:url(#m);}.a`{fill:url(#f);}.aa{fill:url(#p);}.ab{fill:url(#g);}.ac{fill:url(#b);}.ad{fill:url(#i);}.ae{fill:url(#h);}.af{fill:url(#d);}.ag{fill:url(#e);}.ah{fill:url(#s);}.ai{fill:url(#n);}.aj{fill:url(#j);}.ak{fill:url(#o);}.al{fill:url(#q);}.am{fill:url(#k);}</style><linearGradient id="b" x1="6.61" y1="25" x2="45.01" y2="25" gradientTransform="matrix(1, 0, 0, 1, 0, 0)" gradientUnits="userSpaceOnUse"><stop offset=".01" stop-color="#4376fc"/><stop offset=".99" stop-color="#c84bf1"/></linearGradient><linearGradient id="c" x1="3.54" y1="43.51" x2="41.19" y2="43.51" xlink:href="#b"/><linearGradient id="d" x1="18.18" y1="15.17" x2="34.17" y2="15.17" xlink:href="#b"/><linearGradient id="e" x1="32.7" y1="17.79" x2="39.5" y2="17.79" xlink:href="#b"/><linearGradient id="f" x1="12.86" y1="23.2" x2="19.64" y2="23.2" xlink:href="#b"/><linearGradient id="g" x1="10.3" y1="33.47" x2="16.68" y2="33.47" xlink:href="#b"/><linearGradient id="h" x1="35.58" y1="22.49" x2="41.96" y2="22.49" xlink:href="#b"/><linearGradient id="i" x1="25.45" y1="20.78" x2="26.91" y2="20.78" xlink:href="#b"/><linearGradient id="j" x1="22.66" y1="25.62" x2="29.69" y2="25.62" xlink:href="#b"/><linearGradient id="k" x1="23.25" y1="33.85" x2="29.1" y2="33.85" xlink:href="#b"/><linearGradient id="l" x1="35.58" y1="33.85" x2="41.96" y2="33.85" xlink:href="#b"/><linearGradient id="m" x1="38.03" y1="28.17" x2="39.5" y2="28.17" xlink:href="#b"/><linearGradient id="n" x1="27.64" y1="33.85" x2="37.04" y2="33.85" xlink:href="#b"/><linearGradient id="o" x1="20.75" y1="15.01" x2="22.29" y2="15.01" xlink:href="#b"/><linearGradient id="p" x1="23.68" y1="15.01" x2="25.22" y2="15.01" xlink:href="#b"/><linearGradient id="q" x1="26.61" y1="15.01" x2="28.15" y2="15.01" xlink:href="#b"/><linearGradient id="r" x1="29.54" y1="15.01" x2="31.08" y2="15.01" xlink:href="#b"/><linearGradient id="s" x1="10.41" y1="5.27" x2="41.16" y2="5.27" xlink:href="#b"/><linearGradient id="t" x1="10.41" y1="8.2" x2="41.16" y2="8.2" xlink:href="#b"/></defs><g><path class="ac" d="M39.87,48.42c-.4,0-.73-.33-.73-.73s.33-.73,.73-.73c2.03,0,3.68-1.65,3.68-3.68V3.32c0-.16-.13-.29-.29-.29H8.36c-.16,0-.29,.13-.29,.29V39.32c0,.4-.33,.73-.73,.73s-.73-.33-.73-.73V3.32c0-.97,.79-1.75,1.75-1.75H43.26c.97,0,1.75,.79,1.75,1.75V43.28c0,2.83-2.31,5.14-5.14,5.14Z"/><path class="x" d="M40.46,48.43H8.67c-1.36,0-2.65-.53-3.63-1.5-.98-.98-1.51-2.27-1.51-3.64v-3.97c0-.4,.33-.73,.73-.73h31.78c.4,0,.73,.33,.73,.73v3.97c0,.98,.38,1.9,1.08,2.6,.7,.69,1.63,1.08,2.6,1.08,.4,0,.73,.33,.73,.73s-.33,.73-.73,.73ZM5,40.05v3.23c0,.98,.38,1.9,1.08,2.6,.7,.69,1.63,1.08,2.6,1.08h28.2l-.04-.04c-.98-.98-1.51-2.27-1.51-3.64v-3.23H5Z"/></g><g><path class="af" d="M32.32,19.32h-12.28c-1.02,0-1.85-.83-1.85-1.85v-4.59c0-1.02,.83-1.85,1.85-1.85h12.28c1.02,0,1.85,.83,1.85,1.85v4.59c0,1.02-.83,1.85-1.85,1.85Zm-12.28-6.83c-.21,0-.39,.17-.39,.39v4.59c0,.21,.17,.39,.39,.39h12.28c.21,0,.39-.17,.39-.39v-4.59c0-.21-.17-.39-.39-.39h-12.28Z"/><path class="ag" d="M38.77,20.76c-.4,0-.73-.33-.73-.73v-3.37c0-.21-.17-.39-.39-.39h-4.21c-.4,0-.73-.33-.73-.73s.33-.73,.73-.73h4.21c1.02,0,1.85,.83,1.85,1.85v3.37c0,.4-.33,.73-.73,.73Z"/><path class="a`" d="M13.59,31.59c-.4,0-.73-.33-.73-.73v-14.19c0-1.02,.83-1.85,1.85-1.85h4.2c.4,0,.73,.33,.73,.73s-.33,.73-.73,.73h-4.2c-.21,0-.39,.17-.39,.39v14.19c0,.4-.33,.73-.73,.73Z"/><path class="ab" d="M13.49,36.66c-1.76,0-3.19-1.43-3.19-3.19s1.43-3.19,3.19-3.19,3.19,1.43,3.19,3.19-1.43,3.19-3.19,3.19Zm0-4.91c-.95,0-1.73,.77-1.73,1.73s.77,1.73,1.73,1.73,1.72-.77,1.72-1.73-.77-1.73-1.72-1.73Z"/><path class="ae" d="M38.77,25.68c-1.76,0-3.19-1.43-3.19-3.19s1.43-3.19,3.19-3.19,3.19,1.43,3.19,3.19-1.43,3.19-3.19,3.19Zm0-4.91c-.95,0-1.73,.77-1.73,1.73s.77,1.73,1.73,1.73,1.73-.77,1.73-1.73-.77-1.73-1.73-1.73Z"/><path class="ad" d="M26.18,23.71c-.4,0-.73-.33-.73-.73v-4.39c0-.4,.33-.73,.73-.73s.73,.33,.73,.73v4.39c0,.4-.33,.73-.73,.73Z"/><path class="aj" d="M26.18,29.13c-.38,0-.76-.15-1.05-.44l-2.02-2.02c-.28-.28-.44-.65-.44-1.05,0-.4,.15-.78,.43-1.06l2.02-2.02c.58-.58,1.53-.58,2.11,0l2.02,2.02c.58,.58,.58,1.52,0,2.1l-2.02,2.02c-.29,.29-.67,.44-1.05,.44Zm.02-5.55l-2.06,2.02,2.03,2.06,2.06-2.02s0-.02,0-.03l-2.02-2.02Z"/><path class="am" d="M27.61,36.77h-2.86c-.82,0-1.49-.67-1.49-1.49v-2.86c0-.82,.67-1.49,1.49-1.49h2.86c.82,0,1.49,.67,1.49,1.49v2.86c0,.82-.67,1.49-1.49,1.49Zm-2.86-4.37l-.03,2.89,2.89,.02,.02-2.89s0-.02-.02-.02h-2.86Z"/><path class="w" d="M38.76,37.04c-1.76,0-3.18-1.43-3.18-3.19s1.43-3.18,3.18-3.18,3.19,1.43,3.19,3.18-1.43,3.19-3.19,3.19Zm0-4.91c-.95,0-1.72,.77-1.72,1.72s.77,1.73,1.72,1.73,1.73-.78,1.73-1.73-.77-1.72-1.73-1.72Z"/><path class="y" d="M38.76,32.13c-.4,0-.73-.33-.73-.73v-6.45c0-.4,.33-.73,.73-.73s.73,.33,.73,.73v6.45c0,.4-.33,.73-.73,.73Z"/><path class="ai" d="M36.31,34.58h-7.94c-.4,0-.73-.33-.73-.73s.33-.73,.73-.73h7.94c.4,0,.73,.33,.73,.73s-.33,.73-.73,.73Z"/></g><path class="ak" d="M21.52,15.78c-.4,0-.77-.36-.77-.77s.36-.77,.77-.77,.77,.36,.77,.77-.36,.77-.77,.77Z"/><path class="aa" d="M24.45,15.78c-.4,0-.77-.36-.77-.77s.36-.77,.77-.77,.77,.36,.77,.77-.36,.77-.77,.77Z"/><path class="al" d="M27.38,15.78c-.4,0-.77-.36-.77-.77s.36-.77,.77-.77,.77,.36,.77,.77-.36,.77-.77,.77Z"/><path class="v" d="M30.31,15.78c-.4,0-.77-.36-.77-.77s.36-.77,.77-.77,.77,.36,.77,.77-.36,.77-.77,.77Z"/><path class="ah" d="M40.42,6H11.14c-.4,0-.73-.33-.73-.73s.33-.73,.73-.73h29.28c.4,0,.73,.33,.73,.73s-.33,.73-.73,.73Z"/><path class="u" d="M40.42,8.93H11.14c-.4,0-.73-.33-.73-.73s.33-.73,.73-.73h29.28c.4,0,.73,.33,.73,.73s-.33,.73-.73,.73Z"/></svg>