<svg width="30" height="30" viewBox="0 0 30 30" fill="none" xmlns="http://www.w3.org/2000/svg">
<path d="M10.5465 19.4538L10.7247 18.7506C11.0091 18.6693 11.2829 18.5558 11.542 18.4118L12.1656 18.7833C12.2676 18.844 12.398 18.828 12.4822 18.7438L13.3938 17.8322C13.4778 17.7482 13.494 17.6178 13.4334 17.5155L13.0618 16.8918C13.2058 16.6326 13.3194 16.3589 13.4007 16.0746L14.104 15.8964C14.2191 15.8673 14.3 15.7635 14.3 15.6446V14.3555C14.3 14.2366 14.2194 14.1329 14.104 14.1037L13.4007 13.9255C13.3194 13.6411 13.2058 13.3671 13.0618 13.1082L13.4331 12.4846C13.494 12.3824 13.4778 12.2522 13.3936 12.168L12.482 11.2564C12.398 11.1724 12.2676 11.1562 12.1654 11.2169L11.5416 11.5884C11.2825 11.4444 11.0087 11.3309 10.7245 11.2495L10.5462 10.546C10.5171 10.4306 10.4133 10.35 10.2945 10.35H9.00534C8.88646 10.35 8.78268 10.4306 8.75357 10.546L8.57534 11.2495C8.2909 11.3309 8.01712 11.4444 7.75823 11.5882L7.13445 11.2166C7.03223 11.1557 6.90178 11.172 6.81778 11.2562L5.90645 12.1677C5.82245 12.2517 5.80622 12.3822 5.86689 12.4844L6.23823 13.108C6.09423 13.3671 5.98067 13.6409 5.89934 13.9253L5.196 14.1035C5.08089 14.1326 5 14.2364 5 14.3553V15.6444C5 15.7633 5.08067 15.8671 5.196 15.8962L5.89934 16.0744C5.98067 16.3589 6.09423 16.6326 6.23823 16.8918L5.86711 17.5155C5.80622 17.6178 5.82245 17.748 5.90667 17.8322L6.81823 18.7438C6.90223 18.828 7.03267 18.844 7.13489 18.7833L7.75867 18.4118C8.01779 18.5558 8.29157 18.6693 8.57579 18.7506L8.75401 19.4542C8.78312 19.5695 8.8869 19.6502 9.00579 19.6502H10.2949C10.4136 19.6498 10.5173 19.5691 10.5465 19.4538ZM10.0927 19.1302H9.20779L9.04157 18.4744C9.01801 18.3811 8.94446 18.3084 8.8509 18.2858C8.51268 18.2038 8.19023 18.07 7.89201 17.8882C7.80979 17.838 7.70667 17.8375 7.62379 17.8869L7.04223 18.2333L6.41667 17.6075L6.76289 17.0262C6.81223 16.9435 6.81156 16.8402 6.76156 16.758C6.57978 16.46 6.446 16.1373 6.364 15.7989C6.34134 15.7053 6.26867 15.632 6.17534 15.6082L5.51978 15.4422V14.5573L6.17534 14.3913C6.26867 14.3675 6.34134 14.2942 6.364 14.2006C6.446 13.8624 6.57978 13.5397 6.76156 13.2415C6.81178 13.1593 6.81223 13.056 6.76289 12.9733L6.41667 12.392L7.04245 11.7662L7.62401 12.1124C7.70667 12.1617 7.81001 12.1611 7.89223 12.1111C8.19023 11.9293 8.5129 11.7955 8.85112 11.7135C8.94468 11.6909 9.01801 11.6182 9.04179 11.5249L9.20801 10.8691H10.0929L10.2591 11.5249C10.2827 11.6182 10.3562 11.6909 10.4498 11.7135C10.7878 11.7953 11.1105 11.9291 11.4087 12.1111C11.4909 12.1613 11.594 12.1617 11.6769 12.1124L12.2585 11.766L12.8842 12.3917L12.538 12.9731C12.4887 13.0557 12.4894 13.1591 12.5394 13.2413C12.7211 13.5393 12.8549 13.862 12.9369 14.2004C12.9596 14.294 13.0322 14.3673 13.1256 14.3911L13.7811 14.5571V15.442L13.1254 15.6082C13.032 15.632 12.9596 15.7053 12.9369 15.7989C12.8549 16.1369 12.7211 16.4595 12.5394 16.7578C12.4891 16.84 12.4887 16.9433 12.538 17.026L12.8845 17.6075L12.2587 18.2333L11.6774 17.8871C11.5947 17.8378 11.4914 17.8384 11.4091 17.8884C11.1111 18.0702 10.7885 18.204 10.4502 18.286C10.3567 18.3086 10.2833 18.3813 10.2596 18.4746L10.0927 19.1302ZM12.2782 15C12.2782 13.5509 11.0994 12.3717 9.65001 12.3717C8.20068 12.3717 7.02201 13.5509 7.02201 15C7.02201 16.4491 8.2009 17.6282 9.65024 17.6282C11.0996 17.6282 12.2782 16.4491 12.2782 15ZM9.65024 17.1086C8.48757 17.1086 7.54156 16.1626 7.54156 15C7.54156 13.8373 8.48757 12.8913 9.65024 12.8913C10.8129 12.8913 11.7589 13.8373 11.7589 15C11.7589 16.1626 10.8129 17.1086 9.65024 17.1086ZM10.9145 14.4106L9.61468 15.9271C9.56801 15.9815 9.5009 16.0142 9.42935 16.0175C9.42535 16.0178 9.42135 16.0178 9.41735 16.0178C9.35001 16.0178 9.2849 15.9915 9.23646 15.9444L8.40201 15.1344C8.29912 15.0344 8.29668 14.87 8.39645 14.7671C8.49645 14.6642 8.6609 14.6617 8.76379 14.7615L9.40001 15.3791L10.52 14.0724C10.6133 13.9635 10.7773 13.9509 10.8862 14.0442C10.9951 14.1377 11.0078 14.3017 10.9145 14.4106ZM24.9636 9.26351V20.7362C24.9636 21.1153 24.6552 21.4238 24.2761 21.4238H13.1491C12.77 21.4238 12.4616 21.1153 12.4616 20.7362V19.6558C12.4616 19.5124 12.5778 19.396 12.7214 19.396C12.8649 19.396 12.9811 19.5122 12.9811 19.6558V20.7362C12.9811 20.8273 13.058 20.9042 13.1491 20.9042H24.2761C24.3672 20.9042 24.4441 20.8273 24.4441 20.7362V9.26351C24.4441 9.1724 24.3672 9.09551 24.2761 9.09551H13.1491C13.058 9.09551 12.9811 9.1724 12.9811 9.26351V10.344C12.9811 10.4873 12.8649 10.6037 12.7214 10.6037C12.5778 10.6037 12.4616 10.4875 12.4616 10.344V9.26351C12.4616 8.8844 12.77 8.57595 13.1491 8.57595H24.2761C24.6552 8.57618 24.9636 8.88462 24.9636 9.26351ZM10.1696 8.05662C10.3129 8.05662 10.4293 7.9404 10.4293 7.79684V6.31439H19.7923V6.84973C19.7923 6.94262 19.8418 7.02817 19.922 7.07462C19.9623 7.09773 20.0072 7.10951 20.0518 7.10951C20.0965 7.10951 20.1416 7.09795 20.1816 7.07462L21.5587 6.2795C21.6392 6.23306 21.6885 6.14728 21.6885 6.05461C21.6885 5.96195 21.6389 5.87617 21.5587 5.82972L20.182 5.03483C20.1016 4.98839 20.0027 4.98839 19.9223 5.03483C19.8418 5.08128 19.7925 5.16706 19.7925 5.25972V5.79506H10.1696C10.0262 5.79506 9.90979 5.91128 9.90979 6.05484V7.79706C9.91001 7.9404 10.0262 8.05662 10.1696 8.05662ZM20.3118 5.7095L20.9096 6.05461L20.3118 6.39995V5.7095ZM21.4292 21.9433C21.2858 21.9433 21.1694 22.0595 21.1694 22.2031V23.6856H11.8065V23.1502C11.8065 23.0573 11.7569 22.9718 11.6767 22.9253C11.5962 22.8789 11.4974 22.8789 11.4169 22.9253L10.0398 23.7204C9.95935 23.7669 9.91001 23.8527 9.91001 23.9453C9.91001 24.0382 9.95957 24.1238 10.0398 24.1702L11.4169 24.9653C11.4571 24.9884 11.5018 25 11.5467 25C11.5916 25 11.6365 24.9884 11.6765 24.9651C11.7569 24.9187 11.8062 24.8329 11.8062 24.7402V24.2049H21.4289C21.5723 24.2049 21.6887 24.0887 21.6887 23.9451V22.2029C21.6889 22.0595 21.5725 21.9433 21.4292 21.9433ZM11.2869 24.2904L10.6891 23.9453L11.2869 23.6002V24.2904ZM14.8836 12.7789H17.492C17.6354 12.7789 17.7518 12.6626 17.7518 12.5191V9.91062C17.7518 9.76729 17.6356 9.65085 17.492 9.65085H14.8836C14.7402 9.65085 14.6238 9.76707 14.6238 9.91062V12.5191C14.6238 12.6626 14.7402 12.7789 14.8836 12.7789ZM15.1434 10.1704H17.2323V12.2593H15.1434V10.1704ZM16.9767 10.8851L16.2805 11.8491C16.2343 11.9131 16.1616 11.9526 16.0827 11.9564C16.0785 11.9566 16.0743 11.9566 16.07 11.9566C15.9958 11.9566 15.9249 11.9249 15.8754 11.8689L15.4151 11.348C15.3203 11.2404 15.3303 11.0764 15.4378 10.9813C15.5454 10.8862 15.7094 10.8964 15.8045 11.004L16.0498 11.2815L16.5558 10.5808C16.6398 10.4644 16.802 10.4384 16.9185 10.5224C17.0345 10.6064 17.0607 10.7686 16.9767 10.8851ZM18.5249 10.3686C18.5249 10.2253 18.6411 10.1088 18.7847 10.1088H23.3221C23.4654 10.1088 23.5818 10.2251 23.5818 10.3686C23.5818 10.5122 23.4656 10.6284 23.3221 10.6284H18.7847C18.6411 10.6282 18.5249 10.512 18.5249 10.3686ZM18.5249 12.0613C18.5249 11.918 18.6411 11.8015 18.7847 11.8015H21.7705C21.9138 11.8015 22.0303 11.9177 22.0303 12.0613C22.0303 12.2049 21.914 12.3211 21.7705 12.3211H18.7847C18.6411 12.3211 18.5249 12.2046 18.5249 12.0613ZM14.6238 16.3042C14.6238 16.4475 14.74 16.564 14.8836 16.564H17.492C17.6354 16.564 17.7518 16.4478 17.7518 16.3042V13.6957C17.7518 13.5524 17.6356 13.436 17.492 13.436H14.8836C14.7402 13.436 14.6238 13.5522 14.6238 13.6957V16.3042ZM15.1434 13.9555H17.2323V16.0444H15.1434V13.9555ZM16.9767 14.67L16.2805 15.634C16.2343 15.698 16.1616 15.7375 16.0827 15.7413C16.0785 15.7415 16.0743 15.7415 16.07 15.7415C15.9958 15.7415 15.9249 15.7098 15.8754 15.6538L15.4151 15.1329C15.3203 15.0253 15.3303 14.8613 15.4378 14.7662C15.5454 14.6711 15.7094 14.6813 15.8045 14.7889L16.0498 15.0664L16.5558 14.3657C16.6398 14.2493 16.802 14.2233 16.9185 14.3073C17.0345 14.3915 17.0607 14.5537 16.9767 14.67ZM18.5249 14.1535C18.5249 14.0102 18.6411 13.8937 18.7847 13.8937H23.3221C23.4654 13.8937 23.5818 14.01 23.5818 14.1535C23.5818 14.2969 23.4656 14.4133 23.3221 14.4133H18.7847C18.6411 14.4133 18.5249 14.2971 18.5249 14.1535ZM18.5249 15.8464C18.5249 15.7031 18.6411 15.5866 18.7847 15.5866H21.7705C21.9138 15.5866 22.0303 15.7029 22.0303 15.8464C22.0303 15.9898 21.914 16.1062 21.7705 16.1062H18.7847C18.6411 16.106 18.5249 15.9898 18.5249 15.8464ZM14.6238 20.0893C14.6238 20.2327 14.74 20.3491 14.8836 20.3491H17.492C17.6354 20.3491 17.7518 20.2329 17.7518 20.0893V17.4809C17.7518 17.3375 17.6356 17.2211 17.492 17.2211H14.8836C14.7402 17.2211 14.6238 17.3373 14.6238 17.4809V20.0893ZM15.1434 17.7406H17.2323V19.8295H15.1434V17.7406ZM18.5249 17.9386C18.5249 17.7953 18.6411 17.6789 18.7847 17.6789H23.3221C23.4654 17.6789 23.5818 17.7951 23.5818 17.9386C23.5818 18.0822 23.4656 18.1984 23.3221 18.1984H18.7847C18.6411 18.1984 18.5249 18.0822 18.5249 17.9386ZM18.5249 19.6315C18.5249 19.4882 18.6411 19.3718 18.7847 19.3718H21.7705C21.9138 19.3718 22.0303 19.488 22.0303 19.6315C22.0303 19.7749 21.914 19.8913 21.7705 19.8913H18.7847C18.6411 19.8911 18.5249 19.7749 18.5249 19.6315Z" fill="url(#paint0_linear_1775_239)"/>
<defs>
<linearGradient id="paint0_linear_1775_239" x1="5.00005" y1="15.0482" x2="24.964" y2="15.0482" gradientUnits="userSpaceOnUse">
<stop stop-color="#1685FF"/>
<stop offset="0.5" stop-color="#8B5CF6"/>
<stop offset="1" stop-color="#D946EF"/>
</linearGradient>
</defs>
</svg>
