<?xml version="1.0" encoding="UTF-8" standalone="no"?><!DOCTYPE svg PUBLIC "-//W3C//DTD SVG 1.1//EN" "http://www.w3.org/Graphics/SVG/1.1/DTD/svg11.dtd"><svg width="100%" height="100%" viewBox="0 0 110 110" version="1.1" xmlns="http://www.w3.org/2000/svg" xmlns:xlink="http://www.w3.org/1999/xlink" xml:space="preserve" xmlns:serif="http://www.serif.com/" style="fill-rule:evenodd;clip-rule:evenodd;stroke-linejoin:round;stroke-miterlimit:2;"><rect id="Artboard1" x="0" y="0" width="110" height="110" style="fill:none;"/><path d="M67.307,43.021l-0.418,0c-0.909,0 -1.646,0.737 -1.646,1.651c0,0.904 0.737,1.636 1.646,1.636l0.418,-0c0.909,-0 1.645,-0.737 1.645,-1.636c0,-0.914 -0.736,-1.651 -1.645,-1.651Zm29.105,37.809l-0.418,0c-0.909,0 -1.646,0.737 -1.646,1.651c0,0.915 0.737,1.651 1.646,1.651l0.418,0c0.909,0 1.645,-0.736 1.645,-1.651c0,-0.914 -0.736,-1.651 -1.645,-1.651Zm-34.475,3.302l0.418,0c0.909,0 1.646,-0.736 1.646,-1.651c-0,-0.914 -0.737,-1.651 -1.646,-1.651l-0.418,0c-0.909,0 -1.646,0.737 -1.646,1.651c0,0.92 0.737,1.651 1.646,1.651Zm38.717,-4.634l-0,9.759c-0,0.225 -0.188,0.418 -0.408,0.418l-22.375,-0.005c-0.224,0 -0.407,-0.193 -0.407,-0.418l-0,-9.759c-0,-0.224 0.188,-0.418 0.407,-0.418l22.375,0c0.22,0.005 0.408,0.204 0.408,0.423l-0,0Zm-3.349,25.25c0,-0.721 -0.59,-1.306 -1.311,-1.306c-0.721,-0 -1.311,0.585 -1.311,1.306c-0,0.736 0.59,1.316 1.311,1.316c0.726,0 1.311,-0.585 1.311,-1.316Zm-13.876,-0c0,-0.721 -0.59,-1.306 -1.311,-1.306c-0.726,-0 -1.311,0.585 -1.311,1.306c-0,0.736 0.59,1.316 1.311,1.316c0.726,0 1.311,-0.585 1.311,-1.316Zm-11.399,-51.121l-34.063,0c-0.475,0 -0.872,-0.402 -0.872,-0.872l-0,-11.353c-0,-0.47 0.402,-0.872 0.872,-0.872l34.058,-0c0.475,-0 0.872,0.402 0.872,0.872l0,11.353c0.005,0.47 -0.397,0.872 -0.867,0.872l0,0Zm-28.222,25.453l22.375,-0c0.224,-0 0.413,0.193 0.413,0.418l-0,9.759c-0,0.224 -0.189,0.418 -0.413,0.418l-22.375,-0.006c-0.22,0 -0.408,-0.193 -0.408,-0.417l0,-9.76c0,-0.214 0.188,-0.412 0.408,-0.412l-0,-0Zm19.445,25.666c-0,-0.721 -0.591,-1.306 -1.317,-1.306c-0.726,0 -1.311,0.585 -1.311,1.306c-0,0.737 0.59,1.317 1.311,1.317c0.726,-0 1.317,-0.585 1.317,-1.317Zm-13.882,0c0,-0.721 -0.59,-1.306 -1.311,-1.306c-0.726,0 -1.311,0.585 -1.311,1.306c-0,0.737 0.59,1.317 1.311,1.317c0.726,-0 1.311,-0.585 1.311,-1.317Zm-11.404,-67.524c-2.299,0 -4.169,1.876 -4.169,4.18l-0,7.178l-8.443,0c-7.094,0 -12.857,-5.762 -12.857,-12.852c0,-9.273 9.555,-15.526 18.082,-11.755c0.982,0.434 2.153,-0.182 2.299,-1.274c1.452,-10.689 10.689,-18.751 21.492,-18.751c9.268,0 17.513,5.883 20.522,14.654c0.36,1.061 1.645,1.453 2.549,0.779c1.358,-1.014 2.978,-1.557 4.686,-1.557c6.447,-0 10.089,7.392 6.254,12.491c-0.815,1.081 -0.037,2.638 1.316,2.638c4.305,0 7.811,3.511 7.811,7.816c-0,4.315 -3.506,7.816 -7.811,7.816l-13.489,-0l0,-7.179c0,-2.304 -1.87,-4.179 -4.169,-4.179l-34.073,-0.005Zm-28.217,41.858c-0.225,-0 -0.408,0.193 -0.408,0.418l0,9.759c0,0.224 0.188,0.418 0.408,0.418l22.375,-0c0.219,-0 0.407,-0.194 0.407,-0.418l0,-9.759c0,-0.225 -0.188,-0.418 -0.407,-0.418l-22.375,-0Zm19.439,25.666c0,-0.721 -0.585,-1.306 -1.311,-1.306c-0.721,0 -1.311,0.585 -1.311,1.306c-0,0.737 0.59,1.317 1.311,1.317c0.726,-0 1.311,-0.585 1.311,-1.317Zm-13.876,0c0,-0.721 -0.59,-1.306 -1.311,-1.306c-0.726,0 -1.316,0.585 -1.316,1.306c-0,0.737 0.59,1.317 1.316,1.317c0.721,-0 1.311,-0.585 1.311,-1.317Zm88.632,-25.249l-0,9.759c-0,2.043 -1.662,3.704 -3.704,3.704l-2.602,0l-0,7.497c1.729,0.669 2.962,2.33 2.962,4.289c0,2.555 -2.069,4.608 -4.608,4.608c-2.539,-0 -4.602,-2.053 -4.602,-4.608c-0,-1.959 1.233,-3.62 2.956,-4.289l0,-7.497l-10.579,0l0,7.497c1.724,0.669 2.957,2.33 2.957,4.289c0,2.555 -2.069,4.608 -4.608,4.608c-2.539,-0 -4.608,-2.053 -4.608,-4.608c0,-1.959 1.233,-3.62 2.957,-4.289l0,-7.497l-2.601,0c-2.043,0 -3.704,-1.666 -3.704,-3.704l-0,-9.759c-0,-2.043 1.661,-3.704 3.704,-3.704l2.795,0l-0,-3.417l-14.336,-8.604c-0.497,-0.293 -0.8,-0.831 -0.8,-1.4l0,-5.454l-8.876,-0l0,18.875l9.54,-0c2.043,-0 3.704,1.666 3.704,3.704l-0,9.759c-0,2.042 -1.661,3.704 -3.704,3.704l-2.602,-0l0,7.497c1.73,0.668 2.962,2.33 2.962,4.289c0,2.554 -2.068,4.608 -4.607,4.608c-2.539,-0 -4.608,-2.054 -4.608,-4.608c-0,-1.959 1.233,-3.621 2.962,-4.289l-0,-7.497l-10.579,-0l-0,7.497c1.729,0.668 2.962,2.33 2.962,4.289c-0,2.554 -2.069,4.608 -4.608,4.608c-2.539,-0 -4.608,-2.054 -4.608,-4.608c0,-1.959 1.233,-3.621 2.962,-4.289l0,-7.497l-2.602,-0c-2.042,-0 -3.704,-1.667 -3.704,-3.704l0,-9.759c0,-2.043 1.662,-3.704 3.704,-3.704l9.54,-0l-0.01,-18.875l-8.876,-0l-0,5.454c-0,0.569 -0.303,1.112 -0.8,1.4l-14.336,8.604l0,3.417l2.795,0c2.043,0 3.704,1.667 3.704,3.704l0,9.759c0,2.043 -1.661,3.704 -3.704,3.704l-2.607,0l0,7.497c1.73,0.669 2.963,2.33 2.963,4.289c-0,2.555 -2.069,4.608 -4.608,4.608c-2.539,-0 -4.603,-2.053 -4.603,-4.608c0,-1.959 1.233,-3.62 2.957,-4.289l-0,-7.497l-10.579,0l-0,7.497c1.724,0.669 2.957,2.33 2.957,4.289c-0,2.555 -2.069,4.608 -4.603,4.608c-2.539,-0 -4.608,-2.053 -4.608,-4.608c0,-1.959 1.233,-3.62 2.962,-4.289l0,-7.497l-2.607,0c-2.042,0 -3.704,-1.666 -3.704,-3.704l0,-9.759c0,-2.043 1.662,-3.704 3.704,-3.704l16.29,0l0,-4.347c0,-0.585 0.303,-1.112 0.8,-1.415l14.335,-8.605l0,-4.508l-3.207,-0c-2.299,-0 -4.169,-1.876 -4.169,-4.164l-0.006,-0.878l-8.442,0c-8.908,0 -16.153,-7.246 -16.153,-16.153c-0,-10.877 10.527,-18.541 20.766,-15.49c2.523,-11.416 12.658,-19.587 24.397,-19.587c9.994,0 18.959,5.94 22.903,14.978c7.377,-3.553 15.956,1.813 15.956,10.004c-0,1.515 -0.303,2.984 -0.878,4.347c4.843,1.191 8.448,5.58 8.448,10.783c-0,6.133 -4.984,11.117 -11.107,11.117l-13.489,0l-0,0.873c-0,2.288 -1.871,4.164 -4.169,4.164l-3.208,-0l0,4.508l14.336,8.605c0.496,0.303 0.799,0.83 0.799,1.416l0,4.346l16.29,0c2.037,0.005 3.694,1.672 3.694,3.709l-0,0.001Zm-77.711,2.983c-0,-0.914 0.736,-1.651 1.645,-1.651l0.418,0c0.909,0 1.646,0.737 1.646,1.651c-0,0.914 -0.737,1.651 -1.646,1.651l-0.418,0c-0.909,0 -1.645,-0.731 -1.645,-1.651Z" style="fill:url(#_Linear1);"/><defs><linearGradient id="_Linear1" x1="0" y1="0" x2="1" y2="0" gradientUnits="userSpaceOnUse" gradientTransform="matrix(97.8897,0,0,105.671,6.05526,55.2618)"><stop offset="0" style="stop-color:#1685ff;stop-opacity:1"/><stop offset="0.5" style="stop-color:#8b5cf6;stop-opacity:1"/><stop offset="1" style="stop-color:#d946ef;stop-opacity:1"/></linearGradient></defs></svg>