<svg width="96" height="96" viewBox="0 0 96 96" fill="none" xmlns="http://www.w3.org/2000/svg">
<path fill-rule="evenodd" clip-rule="evenodd" d="M28.6291 69.1293L24.8451 74.2863C24.5791 74.6493 24.1611 74.8703 23.7101 74.8843C23.2601 74.8983 22.8281 74.7053 22.5391 74.3603L2.89809 50.8923C2.53209 50.4553 2.45308 49.8463 2.69308 49.3313C2.93408 48.8153 3.45209 48.4853 4.02209 48.4853H11.1351C11.4161 35.6723 15.3771 26.2573 21.0821 20.1033C29.9221 10.5673 42.9841 8.74632 53.6951 14.2573C55.1151 14.0833 56.5601 13.9933 58.0261 13.9933C77.5341 13.9933 93.4441 29.9033 93.4441 49.4113C93.4441 68.9193 77.5341 84.8293 58.0261 84.8293C45.8071 84.8293 34.9991 78.5883 28.6291 69.1293ZM54.7391 17.0903C54.5731 17.2303 54.3761 17.3353 54.1561 17.3913C44.0401 19.9893 38.8471 25.6493 36.1911 32.0333C41.3021 25.6183 49.1831 21.5073 58.0261 21.5073C73.4411 21.5073 85.9301 33.9963 85.9301 49.4113C85.9301 64.8253 73.4411 77.3153 58.0261 77.3153C47.3801 77.3153 38.1291 71.3573 33.4251 62.5923L30.4831 66.6023C36.2361 75.7753 46.4381 81.8973 58.0261 81.8973C75.9191 81.8973 90.5121 67.3043 90.5121 49.4113C90.5121 31.5183 75.9191 16.9253 58.0261 16.9253C56.9171 16.9253 55.8201 16.9813 54.7391 17.0903ZM33.6081 44.1533C33.5071 45.6473 33.4631 47.1013 33.4471 48.4853H40.8811C41.4341 48.4853 41.9391 48.7963 42.1891 49.2883C42.4391 49.7813 42.3901 50.3733 42.0631 50.8183L35.3731 59.9373C39.3431 68.4703 47.9921 74.3833 58.0261 74.3833C71.8211 74.3833 82.9981 63.2063 82.9981 49.4113C82.9981 35.6163 71.8211 24.4393 58.0261 24.4393C46.0341 24.4393 36.0201 32.8843 33.6081 44.1533ZM30.5081 49.9513C30.5081 38.6473 31.8421 22.2103 49.7201 15.6943C40.7161 12.2963 30.4151 14.3483 23.2321 22.0963C17.7141 28.0493 14.0511 37.3103 14.0511 49.9513C14.0511 50.7603 13.3951 51.4173 12.5851 51.4173H7.16009L23.5881 71.0443L37.9871 51.4173H31.9741C31.1641 51.4173 30.5081 50.7603 30.5081 49.9513ZM56.5601 39.4103C56.5601 38.6013 57.2171 37.9443 58.0261 37.9443C58.8351 37.9443 59.4921 38.6013 59.4921 39.4103V48.5643L65.4411 51.9983C66.1421 52.4033 66.3831 53.3003 65.9781 54.0013C65.5741 54.7013 64.6771 54.9423 63.9761 54.5373L57.2931 50.6803C56.8401 50.4183 56.5601 49.9343 56.5601 49.4113V39.4103ZM56.5601 28.3623C56.5601 27.5533 57.2171 26.8963 58.0261 26.8963C58.8351 26.8963 59.4921 27.5533 59.4921 28.3623V30.6413C59.4921 31.4503 58.8351 32.1073 58.0261 32.1073C57.2171 32.1073 56.5601 31.4503 56.5601 30.6413V28.3623ZM73.9521 63.2643C74.5241 63.8363 74.5241 64.7653 73.9521 65.3373C73.3801 65.9093 72.4511 65.9093 71.8791 65.3373L70.2621 63.7203C69.6901 63.1483 69.6901 62.2193 70.2621 61.6473C70.8341 61.0753 71.7631 61.0753 72.3351 61.6473L73.9521 63.2643ZM79.0821 47.9453C79.8911 47.9453 80.5481 48.6023 80.5481 49.4113C80.5481 50.2203 79.8911 50.8773 79.0821 50.8773H76.7961C75.9871 50.8773 75.3301 50.2203 75.3301 49.4113C75.3301 48.6023 75.9871 47.9453 76.7961 47.9453H79.0821ZM59.4921 70.4593C59.4921 71.2683 58.8351 71.9253 58.0261 71.9253C57.2171 71.9253 56.5601 71.2683 56.5601 70.4593V68.1813C56.5601 67.3713 57.2171 66.7153 58.0261 66.7153C58.8351 66.7153 59.4921 67.3713 59.4921 68.1813V70.4593ZM44.1731 65.3373C43.6011 65.9093 42.6721 65.9093 42.1001 65.3373C41.5281 64.7653 41.5281 63.8363 42.1001 63.2643L43.7171 61.6473C44.2891 61.0753 45.2181 61.0753 45.7901 61.6473C46.3621 62.2193 46.3621 63.1483 45.7901 63.7203L44.1731 65.3373ZM71.8791 33.4853C72.4511 32.9123 73.3801 32.9123 73.9521 33.4853C74.5241 34.0573 74.5241 34.9863 73.9521 35.5583L72.3351 37.1743C71.7631 37.7473 70.8341 37.7473 70.2621 37.1743C69.6901 36.6023 69.6901 35.6733 70.2621 35.1013L71.8791 33.4853ZM42.1001 35.5583C41.5281 34.9863 41.5281 34.0573 42.1001 33.4853C42.6721 32.9123 43.6011 32.9123 44.1731 33.4853L45.7901 35.1013C46.3621 35.6733 46.3621 36.6023 45.7901 37.1743C45.2181 37.7473 44.2891 37.7473 43.7171 37.1743L42.1001 35.5583Z" fill="white"/>
</svg>
