<svg width="30" height="30" viewBox="0 0 30 30" fill="none" xmlns="http://www.w3.org/2000/svg">
<path d="M21.0845 28C19.2801 28 17.6102 27.2081 16.4791 25.8473L16.4321 26.6491C16.4236 26.7996 16.2984 26.9174 16.1476 26.9174H16.1471L11.7156 26.9088C11.5642 26.9085 11.4396 26.7899 11.4314 26.6391L11.3005 24.1911C10.5947 23.9884 9.9143 23.7036 9.27207 23.343L7.44001 24.9733C7.32713 25.0739 7.15524 25.0688 7.04863 24.9613L3.92384 21.8225C3.81695 21.7154 3.81267 21.5435 3.91358 21.4312L5.55209 19.6068C5.19434 18.9594 4.91328 18.277 4.71402 17.5741L2.26852 17.4324C2.11744 17.4238 1.99972 17.2984 2 17.1473L2.00855 12.7159C2.00884 12.5645 2.12742 12.4396 2.27879 12.4317L4.72656 12.3031C4.92838 11.6001 5.21287 10.9189 5.57489 10.2724L3.94437 8.4403C3.84374 8.32742 3.84916 8.15524 3.95634 8.04863L7.09538 4.92384C7.20228 4.81695 7.37445 4.81239 7.48733 4.91387L9.31141 6.55465C9.95706 6.19605 10.6392 5.91384 11.3447 5.71402L11.4861 3.26852C11.4949 3.11773 11.6198 3 11.7709 3H11.7714L16.2029 3.0114C16.354 3.01169 16.4789 3.13027 16.4868 3.28164L16.6151 5.72656C17.3181 5.92838 17.9991 6.21287 18.6459 6.5746L20.4751 4.94437C20.5877 4.84403 20.7601 4.84916 20.8664 4.95606L23.9944 8.09481C24.1013 8.20199 24.1058 8.37416 24.0043 8.48676L22.3638 10.3108C22.7227 10.9568 23.0047 11.6389 23.2039 12.3439L25.6494 12.4852C25.8005 12.4941 25.9182 12.6192 25.9179 12.7706L25.9065 17.2021C25.9062 17.3532 25.7879 17.4777 25.6369 17.486L25.0776 17.5159C26.3461 18.647 27.0849 20.2718 27.0849 21.9964C27.0849 25.3068 24.3932 28 21.0845 28ZM16.4834 24.8829C17.4831 26.4781 19.2029 27.4299 21.0848 27.4299C24.0787 27.4299 26.5148 24.9924 26.5148 21.9964C26.5148 20.1989 25.6283 18.5213 24.1429 17.5085L24.1426 17.5082C23.2375 16.8919 22.1803 16.5661 21.0845 16.5661C20.7142 16.5661 20.3445 16.6035 19.9859 16.677C19.9617 16.6821 19.9374 16.687 19.9132 16.6924C17.8594 17.1433 16.2668 18.722 15.7947 20.7607C15.779 20.8283 15.7648 20.8967 15.7517 20.9651C15.7511 20.9671 15.7508 20.9691 15.7505 20.9708C15.6847 21.2975 15.6513 21.6415 15.6513 21.9967C15.6513 23.0241 15.9387 24.0218 16.4823 24.8812C16.4823 24.8812 16.4829 24.8821 16.4834 24.8829ZM11.9864 26.3393L15.8788 26.3467L15.9515 25.1067C15.3991 24.2025 15.0998 23.1652 15.0821 22.0959C15.0821 22.0899 15.0818 22.0848 15.0818 22.0791C15.0815 22.0512 15.0812 22.0238 15.0812 21.9959C15.0812 21.7516 15.0955 21.5116 15.1237 21.2781C13.061 21.6546 10.9072 20.9942 9.41517 19.5016C8.20054 18.2884 7.53152 16.675 7.53152 14.9584C7.53152 13.2418 8.20054 11.6281 9.41545 10.4146C10.6287 9.2014 12.2424 8.53294 13.9587 8.53294C15.675 8.53294 17.289 9.20111 18.5019 10.4146C19.995 11.9077 20.6484 13.9866 20.2915 16.047C20.5535 16.0125 20.8188 15.9951 21.0842 15.9951C22.2624 15.9951 23.4003 16.3361 24.382 16.982L25.3364 16.9304L25.3464 13.0383L22.965 12.9006C22.8413 12.8934 22.7364 12.8074 22.7056 12.6874C22.5001 11.8949 22.1843 11.1307 21.7669 10.416C21.7042 10.3091 21.7182 10.1737 21.8011 10.0817L23.3986 8.30518L20.6515 5.54869L18.8702 7.13617C18.7778 7.21855 18.6424 7.23166 18.5361 7.16895C17.8203 6.74792 17.0572 6.42951 16.2673 6.22171C16.1473 6.19006 16.0615 6.08488 16.055 5.96088L15.9307 3.58094L12.0391 3.57097L11.9014 5.95204C11.8943 6.07576 11.8082 6.18037 11.6882 6.21144C10.8952 6.41725 10.1309 6.73338 9.41688 7.15042C9.30998 7.21313 9.17458 7.19888 9.08251 7.11621L7.30604 5.51847L4.54926 8.26271L6.13702 10.0469C6.2194 10.1395 6.23252 10.2743 6.1698 10.381C5.74906 11.0965 5.43037 11.8598 5.22256 12.6497C5.19092 12.7694 5.08573 12.8555 4.96173 12.8618L2.57809 12.9869L2.57068 16.8788L4.95176 17.0165C5.07547 17.0233 5.18009 17.1094 5.21116 17.2294C5.4164 18.0196 5.73139 18.7841 6.14757 19.5013C6.20971 19.6082 6.19574 19.7431 6.11308 19.8349L4.5179 21.6113L7.26214 24.3681L9.04631 22.7806C9.13895 22.6982 9.27378 22.6851 9.38068 22.7481C10.0902 23.1674 10.8524 23.4861 11.6463 23.6954C11.766 23.7267 11.8518 23.8319 11.8584 23.9556L11.9864 26.3393ZM13.9587 9.10391C12.3943 9.10391 10.924 9.71279 9.81824 10.8185C8.71108 11.9243 8.10163 13.3949 8.10163 14.959C8.10163 16.5231 8.71136 17.9937 9.81824 19.0988C11.2287 20.5093 13.2871 21.1059 15.2292 20.6758C15.7292 18.4361 17.4535 16.6895 19.69 16.1585C20.0976 14.2135 19.5096 12.229 18.0988 10.8182C16.9934 9.71279 15.5228 9.10391 13.9587 9.10391ZM21.0831 26.7326C18.4725 26.7326 16.3486 24.6087 16.3486 21.9981C16.3486 19.3873 18.4725 17.2634 21.0831 17.2634C23.6936 17.2634 25.8176 19.3873 25.8176 21.9981C25.8179 24.6087 23.6939 26.7326 21.0831 26.7326ZM21.0831 17.8335C18.7867 17.8335 16.9187 19.7017 16.9187 21.9981C16.9187 24.2946 18.787 26.1625 21.0831 26.1625C23.3792 26.1625 25.2475 24.2943 25.2475 21.9981C25.2478 19.7014 23.3795 17.8335 21.0831 17.8335ZM19.9865 23.7145C19.895 23.7145 19.8046 23.6703 19.7496 23.5888L18.8112 22.1943C18.7234 22.0637 18.7579 21.8864 18.8884 21.7983C19.0193 21.7105 19.1963 21.7447 19.2844 21.8756L20.064 23.034L23.2609 20.8967C23.392 20.8092 23.5691 20.8445 23.6563 20.9751C23.7441 21.1059 23.7087 21.2829 23.5779 21.3704L20.1447 23.666C20.0957 23.6991 20.0409 23.7145 19.9865 23.7145ZM13.9581 20.4588C13.8008 20.4588 13.6731 20.3314 13.6731 20.1738V19.2602C13.6731 19.1025 13.8008 18.9751 13.9581 18.9751C14.1155 18.9751 14.2432 19.1025 14.2432 19.2602V20.1738C14.2432 20.3314 14.1155 20.4588 13.9581 20.4588ZM10.2455 18.9212C10.1726 18.9212 10.0996 18.8933 10.044 18.8377C9.93255 18.7263 9.93255 18.5461 10.044 18.4347L10.6899 17.7884C10.8014 17.677 10.9816 17.677 11.093 17.7884C11.2045 17.8999 11.2045 18.08 11.093 18.1915L10.4471 18.8377C10.3915 18.8933 10.3185 18.9212 10.2455 18.9212ZM13.9581 15.2087H13.9575L12.4624 15.205C12.3051 15.2047 12.1776 15.0767 12.1779 14.9193C12.1782 14.7623 12.3059 14.6349 12.463 14.6349H12.4636L13.6731 14.6377V12.2484C13.6731 12.091 13.8008 11.9633 13.9581 11.9633C14.1155 11.9633 14.2432 12.091 14.2432 12.2484V14.9233C14.2432 14.9992 14.2132 15.0718 14.1594 15.1252C14.1061 15.1787 14.0336 15.2087 13.9581 15.2087ZM19.2086 15.2087H18.295C18.1373 15.2087 18.0099 15.081 18.0099 14.9236C18.0099 14.7663 18.1373 14.6386 18.295 14.6386H19.2086C19.3662 14.6386 19.4936 14.7663 19.4936 14.9236C19.4936 15.081 19.3662 15.2087 19.2086 15.2087ZM9.62126 15.2087H8.70766C8.55031 15.2087 8.4226 15.081 8.4226 14.9236C8.4226 14.7663 8.55031 14.6386 8.70766 14.6386H9.62126C9.77862 14.6386 9.90632 14.7663 9.90632 14.9236C9.90632 15.081 9.77862 15.2087 9.62126 15.2087ZM17.0247 12.1418C16.9518 12.1418 16.8788 12.1138 16.8232 12.0582C16.7118 11.9468 16.7118 11.7663 16.8232 11.6552L17.4694 11.0092C17.5809 10.8978 17.761 10.8978 17.8725 11.0092C17.984 11.1207 17.984 11.3011 17.8725 11.4123L17.2263 12.0582C17.1707 12.1141 17.0977 12.1418 17.0247 12.1418ZM10.8915 12.1418C10.8185 12.1418 10.7455 12.1138 10.6899 12.0582L10.044 11.4123C9.93255 11.3008 9.93255 11.1207 10.044 11.0092C10.1555 10.8978 10.3356 10.8978 10.4471 11.0092L11.093 11.6552C11.2045 11.7666 11.2045 11.9468 11.093 12.0582C11.0374 12.1141 10.9644 12.1418 10.8915 12.1418ZM13.9581 10.8715C13.8008 10.8715 13.6731 10.7438 13.6731 10.5865V9.67288C13.6731 9.51553 13.8008 9.38783 13.9581 9.38783C14.1155 9.38783 14.2432 9.51553 14.2432 9.67288V10.5865C14.2432 10.7438 14.1155 10.8715 13.9581 10.8715Z" fill="url(#paint0_linear_1774_115)"/>
<defs>
<linearGradient id="paint0_linear_1774_115" x1="2.00007" y1="15.5602" x2="27.0855" y2="15.5602" gradientUnits="userSpaceOnUse">
<stop stop-color="#1685FF"/>
<stop offset="0.5" stop-color="#8B5CF6"/>
<stop offset="1" stop-color="#D946EF"/>
</linearGradient>
</defs>
</svg>
