<svg width="30" height="30" viewBox="0 0 30 30" fill="none" xmlns="http://www.w3.org/2000/svg">
<path d="M14.3534 17.3056C14.0042 17.3988 13.6458 17.1919 13.5516 16.8427C13.4584 16.4936 13.6653 16.1352 14.0144 16.0409C14.4077 15.9365 14.8091 15.8833 15.2095 15.8833C15.6078 15.8833 16.0102 15.9355 16.4034 16.0409C16.7526 16.1341 16.9595 16.4936 16.8663 16.8427C16.7731 17.1919 16.4137 17.3988 16.0645 17.3056C15.788 17.2318 15.4993 17.195 15.2084 17.195C14.9186 17.195 14.6299 17.2318 14.3524 17.3056H14.3534ZM19.9095 3.31158L19.5153 4.78409C19.4375 5.07696 19.1722 5.26948 18.8835 5.26948L11.5353 5.2705C11.2179 5.2705 10.9537 5.04522 10.8933 4.74724L10.5083 3.31158H8.73061C8.61695 3.31158 8.51147 3.35869 8.43672 3.43446C8.36094 3.51024 8.31384 3.61469 8.31384 3.72835V25.2734C8.31384 25.387 8.36094 25.4925 8.43672 25.5673C8.51045 25.643 8.61592 25.6902 8.73061 25.6902H21.6883C21.803 25.6902 21.9085 25.6441 21.9843 25.5693C22.059 25.4935 22.1051 25.3891 22.1051 25.2734V3.72835C22.1051 3.62391 22.0662 3.52663 22.0027 3.45392L21.9822 3.43446C21.9065 3.35869 21.802 3.31158 21.6883 3.31158L19.9095 3.31158ZM11.863 3.31158L12.0371 3.96081H18.3818L18.5558 3.31158H11.863ZM14.5306 21.3494H15.8884C16.3441 21.3494 16.7578 21.5358 17.0588 21.8358L17.0998 21.8809C17.3753 22.1768 17.5452 22.5731 17.5452 23.0062C17.5452 23.4609 17.3589 23.8746 17.0588 24.1736L17.0568 24.1756C16.7568 24.4757 16.343 24.6621 15.8894 24.6621H14.5316C14.078 24.6621 13.6633 24.4757 13.3643 24.1756C13.0612 23.8756 12.8758 23.4619 12.8758 23.0052C12.8758 22.5495 13.0622 22.1348 13.3622 21.8338C13.6622 21.5337 14.076 21.3474 14.5326 21.3474L14.5306 21.3494ZM15.8884 22.6601H14.5306C14.4364 22.6601 14.3494 22.699 14.2869 22.7615C14.2244 22.824 14.1855 22.911 14.1855 23.0052C14.1855 23.1004 14.2244 23.1865 14.2869 23.2499C14.3483 23.3124 14.4344 23.3513 14.5306 23.3513H15.8884C15.9847 23.3513 16.0707 23.3124 16.1332 23.251C16.1956 23.1885 16.2335 23.1015 16.2335 23.0062C16.2335 22.9202 16.2018 22.8414 16.1506 22.781L16.1321 22.7625C16.0697 22.7001 15.9826 22.6611 15.8884 22.6611L15.8884 22.6601ZM10.3108 24.662C9.94934 24.662 9.65545 24.3692 9.65545 24.0067C9.65545 23.6452 9.94832 23.3513 10.3108 23.3513H11.1976C11.5591 23.3513 11.8529 23.6442 11.8529 24.0067C11.8529 24.3681 11.5601 24.662 11.1976 24.662H10.3108ZM19.2205 24.662C18.8591 24.662 18.5652 24.3692 18.5652 24.0067C18.5652 23.6452 18.858 23.3513 19.2205 23.3513H20.1073C20.4688 23.3513 20.7627 23.6442 20.7627 24.0067C20.7627 24.3681 20.4698 24.662 20.1073 24.662H19.2205ZM8.73061 2H21.6863C22.1614 2 22.5935 2.19456 22.9068 2.50688L22.9478 2.55194C23.2366 2.86119 23.4137 3.27488 23.4137 3.72749V25.2725C23.4137 25.7456 23.2192 26.1777 22.9068 26.4911L22.9048 26.4931C22.5914 26.8054 22.1603 27 21.6862 27H8.72849C8.25438 27 7.82329 26.8054 7.50995 26.4931C7.19456 26.1798 7 25.7476 7 25.2725V3.7275C7 3.25134 7.19456 2.82024 7.50688 2.5069C7.82022 2.19356 8.25131 2.00002 8.72747 2.00002L8.73061 2ZM11.8845 13.0396C11.567 13.2106 11.1697 13.0919 10.9987 12.7734C10.8277 12.456 10.9465 12.0586 11.2649 11.8877C12.4958 11.2262 13.8536 10.8964 15.2084 10.8964C16.5631 10.8964 17.921 11.2272 19.1518 11.8877C19.4692 12.0587 19.589 12.456 19.418 12.7734C19.247 13.0908 18.8497 13.2107 18.5322 13.0396C17.499 12.4846 16.3542 12.2071 15.2083 12.2071C14.0623 12.2071 12.9188 12.4846 11.8845 13.0396ZM13.1235 15.1378C12.7928 15.2832 12.4067 15.1327 12.2603 14.803C12.1149 14.4722 12.2654 14.0862 12.5951 13.9397C13.4266 13.5732 14.3175 13.3898 15.2073 13.3898C16.0971 13.3898 16.988 13.5731 17.8195 13.9397C18.1503 14.0851 18.2998 14.4722 18.1543 14.803C18.0089 15.1337 17.6219 15.2832 17.2911 15.1378C16.6306 14.847 15.9189 14.7006 15.2073 14.7006C14.4956 14.7006 13.785 14.846 13.1235 15.1378Z" fill="url(#paint0_linear_1774_102)"/>
<defs>
<linearGradient id="paint0_linear_1774_102" x1="7.00004" y1="14.5602" x2="23.4141" y2="14.5602" gradientUnits="userSpaceOnUse">
<stop stop-color="#1685FF"/>
<stop offset="0.5" stop-color="#8B5CF6"/>
<stop offset="1" stop-color="#D946EF"/>
</linearGradient>
</defs>
</svg>
