<?xml version="1.0" encoding="UTF-8" standalone="no"?><!DOCTYPE svg PUBLIC "-//W3C//DTD SVG 1.1//EN" "http://www.w3.org/Graphics/SVG/1.1/DTD/svg11.dtd"><svg width="100%" height="100%" viewBox="0 0 81 90" version="1.1" xmlns="http://www.w3.org/2000/svg" xmlns:xlink="http://www.w3.org/1999/xlink" xml:space="preserve" xmlns:serif="http://www.serif.com/" style="fill-rule:evenodd;clip-rule:evenodd;stroke-linejoin:round;stroke-miterlimit:2;"><path d="M74.52,69.31c-1.25,-0.43 -4.51,-1.28 -8.27,-2.26c-4.1,-1.07 -8.76,-2.28 -10.87,-2.98c-2.58,-0.86 -2.81,-3.59 -2.86,-7.65c-0.01,-0.46 -0.02,-0.91 -0.03,-1.35c3.07,-3.24 5.16,-8.11 5.55,-13.65c0.07,-0.02 7.08,-3.89 7.08,-3.89c0.33,-0.18 0.53,-0.54 0.51,-0.91c-0.01,-0.38 -0.24,-0.71 -0.58,-0.87c-2.75,-1.25 -3.41,-1.85 -3.89,-9.62c-0.51,-8.23 -7.14,-16.74 -17.36,-16.74l-0.41,0c-10.22,0 -16.86,8.51 -17.36,16.74c-0.48,7.77 -1.15,8.37 -3.89,9.62c-0.34,0.16 -0.57,0.49 -0.58,0.87c-0.01,0.38 0.18,0.73 0.51,0.91c0,0 7.01,3.86 7.08,3.88c0.38,5.54 2.47,10.42 5.55,13.66c-0.01,0.44 -0.02,0.89 -0.03,1.35c-0.05,4.07 -0.28,6.8 -2.86,7.66c-1.6,0.53 -4.65,1.36 -7.82,2.19l0.23,-1.87c0.07,-0.55 -0.32,-1.05 -0.87,-1.11c-0.41,-0.05 -0.8,0.16 -0.99,0.51l-4.31,-45.78c-0.05,-0.51 -0.48,-0.91 -1,-0.91l-1.39,0l-0,-6.23l1.61,0c0.55,0 1,-0.45 1,-1l0,-8.88c0,-0.55 -0.45,-1 -1,-1l-5.23,0c-0.55,0 -1,0.45 -1,1l-0,8.88c-0,0.55 0.45,1 1,1l1.61,0l-0,6.23l-1.32,0c-0.55,0 -1,0.45 -1,1l-0,28.71l-10.25,-0.79c-0.28,-0.02 -0.55,0.07 -0.76,0.26c-0.2,0.19 -0.32,0.46 -0.32,0.73l-0,5.05c-0,0.51 0.39,0.95 0.9,1l11.62,1.13l-0.3,15.29c-5.79,2.4 -5.74,10.84 -5.69,17.66c0.01,0.63 0.01,1.25 0.01,1.85c-0,0.55 0.45,1 1,1l72.08,0c0.55,0 1,-0.45 1,-1c-0,-0.6 -0,-1.22 0.01,-1.85c0.05,-6.98 0.13,-15.69 -6.11,-17.84Zm4.11,17.83c-0,0.29 -0,0.58 -0.01,0.87l-34.03,0l-0,-15.31c0.02,-0.02 0.04,-0.04 0.06,-0.06l-0,-0.01l6.15,-2.46l4.11,3.26c0.18,0.14 0.4,0.22 0.62,0.22c0.12,0 0.25,-0.02 0.37,-0.07c0.33,-0.13 0.57,-0.43 0.62,-0.78l0.9,-6.01c2.32,0.65 5.35,1.44 8.32,2.22c3.57,0.93 6.95,1.81 8.13,2.21c4.87,1.66 4.81,9.57 4.76,15.92Zm-48.88,-20.36l0.9,6.01c0.05,0.35 0.29,0.65 0.62,0.78c0.12,0.05 0.24,0.07 0.37,0.07c0.22,0 0.44,-0.07 0.62,-0.22l4.11,-3.26l6.15,2.46l-0,0.01c0.02,0.02 0.04,0.04 0.06,0.06l-0,15.32l-21.28,0l2.41,-19.61c2.2,-0.58 4.32,-1.14 6.04,-1.62Zm-21.2,20.36c-0.05,-6.35 -0.12,-14.26 4.76,-15.94c1.18,-0.41 8.26,-2.25 8.32,-2.26l-2.35,19.07l-10.73,0l0,-0.87Zm60.68,-8.6l-14.06,0c-0.55,0 -1,0.45 -1,1l0,4.48c0,0.55 0.45,1 1,1l14.06,0c0.55,0 1,-0.45 1,-1l0,-4.48c0,-0.55 -0.45,-1 -1,-1Zm-1,4.48l-12.06,0l0,-2.48l12.06,0l0,2.48Zm-13.49,-17.05c0.22,0.07 0.48,0.15 0.74,0.23l-0.68,4.57l-3.21,-2.54c-0.28,-0.22 -0.66,-0.28 -0.99,-0.14l-3.46,1.38l4.99,-5.35c0.61,0.81 1.44,1.46 2.61,1.85Zm-22.31,0c1.17,-0.39 2.01,-1.04 2.61,-1.85l4.99,5.35l-3.46,-1.38c-0.33,-0.13 -0.71,-0.08 -0.99,0.14l-3.21,2.54l-0.68,-4.57c0.26,-0.07 0.52,-0.15 0.74,-0.23Zm11.16,4.38l-7.57,-8.12c0.55,-1.67 0.61,-3.61 0.64,-5.38c2.06,1.53 4.43,2.4 6.94,2.4c2.51,-0 4.87,-0.87 6.93,-2.4c0.03,1.77 0.09,3.71 0.64,5.38l-7.58,8.12Zm-41.59,-19.18l0,-3.06l10.25,0.79c0.27,0.02 0.55,-0.07 0.76,-0.26c0.2,-0.19 0.32,-0.46 0.32,-0.73l0,-28.81l2.79,-0l4.53,48.03c-2.55,0.66 -4.83,1.26 -6.4,1.7l0.3,-15.52c0.01,-0.52 -0.38,-0.96 -0.9,-1.01l-11.65,-1.13Zm29.53,-16.33c3.76,-1.05 8.25,-1.94 11.86,-1.94l0.39,-0c3.61,-0 8.1,0.9 11.87,1.94c0.3,1.53 0.45,3.12 0.45,4.71c0,9.75 -5.61,17.69 -12.52,17.69c-6.91,-0 -12.52,-7.93 -12.52,-17.69c0.01,-1.59 0.17,-3.18 0.47,-4.71Zm26.56,4.3c-0.02,-1.23 -0.12,-2.46 -0.31,-3.66c1.72,0.54 3.16,1.09 4.13,1.54l-3.82,2.12Zm-32.84,-2.12c0.97,-0.45 2.41,-1 4.13,-1.54c-0.19,1.2 -0.28,2.43 -0.3,3.66l-3.83,-2.12Zm18.13,-25.63l0.4,-0c9.05,-0 14.92,7.56 15.37,14.86c0.25,3.98 0.56,6.38 1.31,8.01c-4.37,-1.6 -11.37,-3.36 -16.68,-3.36l-0.39,-0c-5.31,-0 -12.31,1.76 -16.68,3.36c0.74,-1.63 1.06,-4.02 1.31,-8.01c0.45,-7.31 6.32,-14.86 15.36,-14.86Zm-4.26,11.94l-0.71,4.15c-0.06,0.38 0.09,0.75 0.4,0.98c0.17,0.13 0.38,0.19 0.59,0.19c0.16,-0 0.32,-0.04 0.47,-0.11l3.73,-1.96l3.73,1.96c0.34,0.18 0.75,0.15 1.05,-0.08c0.31,-0.22 0.46,-0.6 0.4,-0.98l-0.71,-4.15l3.02,-2.94c0.27,-0.27 0.37,-0.66 0.25,-1.03c-0.12,-0.36 -0.43,-0.63 -0.81,-0.68l-4.17,-0.61l-1.86,-3.78c-0.17,-0.34 -0.52,-0.56 -0.9,-0.56c-0.38,-0 -0.73,0.22 -0.9,0.56l-1.86,3.78l-4.17,0.61c-0.38,0.05 -0.69,0.32 -0.81,0.68c-0.12,0.36 -0.02,0.76 0.25,1.03l3.01,2.94Zm2.51,-3.35c0.33,-0.05 0.61,-0.25 0.75,-0.55l1.2,-2.43l1.2,2.43c0.15,0.3 0.43,0.5 0.75,0.55l2.68,0.39l-1.94,1.89c-0.24,0.23 -0.34,0.56 -0.29,0.89l0.46,2.67l-2.4,-1.26c-0.29,-0.15 -0.64,-0.15 -0.93,-0l-2.4,1.26l0.46,-2.67c0.06,-0.32 -0.05,-0.66 -0.29,-0.89l-1.94,-1.89l2.69,-0.39Zm-28.6,-17.98l3.23,-0l0,6.88l-3.23,-0l0,-6.88Z" style="fill:url(#_Linear1);fill-rule:nonzero;"/><defs><linearGradient id="_Linear1" x1="0" y1="0" x2="1" y2="0" gradientUnits="userSpaceOnUse" gradientTransform="matrix(80.64,0,0,89.9926,-1.06581e-14,45.2167)"><stop offset="0" style="stop-color:#1685ff;stop-opacity:1"/><stop offset="0.5" style="stop-color:#8b5cf6;stop-opacity:1"/><stop offset="1" style="stop-color:#d946ef;stop-opacity:1"/></linearGradient></defs></svg>