<svg width="50" height="50" viewBox="0 0 50 50" fill="none" xmlns="http://www.w3.org/2000/svg">
<g clip-path="url(#clip0_413_139)">
<path d="M7.47556 14.8305C7.47556 13.5043 8.52302 12.4493 9.85678 12.4493C11.1832 12.4493 12.2382 13.4968 12.2382 14.8305C12.2382 16.1569 11.1907 17.2119 9.85678 17.2119C8.53057 17.2044 7.47556 16.1569 7.47556 14.8305ZM32.517 40.4899C33.2855 40.4899 33.2855 41.6806 32.517 41.6806H28.7415C26.9932 41.6806 25.5915 40.211 25.5915 38.5306V28.0483C24.6797 27.7695 23.911 27.0687 23.7001 26.0889H21.4619C20.6933 26.0889 20.6933 24.8983 21.4619 24.8983H23.7001C23.911 23.9865 24.612 23.2179 25.5915 23.0069V12.5246C25.5915 10.7763 26.9932 9.37462 28.7415 9.37462H32.517C33.2855 9.37462 33.2855 10.5652 32.517 10.5652H28.7415C27.6261 10.5652 26.7821 11.4018 26.7821 12.5246V23.0144C27.8975 23.2255 28.8094 24.2729 28.8094 25.5313C28.8094 26.7221 27.8975 27.7695 26.7821 28.0483V38.5382C26.7821 39.5856 27.6186 40.4975 28.7415 40.4975H32.517V40.4899ZM26.2169 24.1296C25.4484 24.1296 24.8153 24.7627 24.8153 25.5313C24.8153 26.3 25.4484 26.9331 26.2169 26.9331C26.9856 26.9331 27.6186 26.3 27.6186 25.5313C27.6186 24.7627 26.9856 24.1296 26.2169 24.1296ZM43.1423 6.92551C43.1423 4.40851 43.1423 3.63997 43.1423 1.12297H41.605V6.92551H43.1423ZM43.1423 41.4695C43.1423 38.9525 43.1423 38.184 43.1423 35.667H41.605V41.4695H43.1423ZM46.0135 41.4695C46.0135 39.7212 46.0135 39.7212 46.0135 37.9729H44.4083V41.4695H46.0135ZM48.8092 41.6127V40.3542H47.2041V41.4695H48.0407C48.2517 41.4695 48.5305 41.4695 48.8092 41.6127ZM48.8092 43.783C48.8092 43.1501 48.8092 42.7356 48.0407 42.6677H40.7686C40.4899 42.6677 40.2788 42.4568 40.2109 42.1779L39.8643 40.7083C39.7211 40.2864 39.5855 40.0075 39.0279 40.0075H36.1642C35.9532 40.0075 35.7422 40.2186 35.7422 40.4296V48.5381C35.7422 48.7491 35.9532 48.9602 36.1642 48.9602H48.4024C48.6133 48.9602 48.8243 48.7491 48.8243 48.5381V43.783H48.8092ZM47.1965 39.0958H49.3669C49.7135 39.0958 50 39.3746 50 39.7288C50 43.2253 50 44.9736 50 48.5381C50 49.4499 49.2992 50.1432 48.3949 50.1432H36.1491C35.2373 50.1432 34.544 49.4424 34.544 48.5381V40.422C34.544 39.5102 35.2448 38.8169 36.1491 38.8169H39.0128C39.6457 38.7492 40.0602 38.9601 40.339 39.239V35.0416C40.339 34.6949 40.6179 34.4085 40.9721 34.4085H43.7678C44.1145 34.4085 44.4008 34.6874 44.4008 35.0416V36.722H46.5711C46.9178 36.722 47.2041 37.0007 47.2041 37.3549V39.0958H47.1965ZM43.1423 24.1975C43.1423 21.6805 43.1423 20.912 43.1423 18.395H41.605V24.1975H43.1423ZM46.0135 24.1975C46.0135 22.4492 46.0135 22.4492 46.0135 20.7009H44.4083V24.1975H46.0135ZM48.8092 24.3407V23.0822H47.2041V24.1975H48.0407C48.2517 24.1975 48.5305 24.2729 48.8092 24.3407ZM48.8092 26.511C48.8092 25.8781 48.8092 25.4636 48.0407 25.4636H40.7686C40.4899 25.4636 40.2788 25.2525 40.2109 24.9738L39.8568 23.4967C39.7136 23.0069 39.578 22.728 39.0203 22.7959H36.1567C35.9456 22.7959 35.7346 22.939 35.7346 23.2179V31.2585C35.7346 31.4696 35.9456 31.6806 36.1567 31.6806H48.3949C48.6059 31.6806 48.8168 31.4696 48.8168 31.2585V26.511H48.8092ZM47.1965 21.8238H49.3669C49.7135 21.8238 50 22.1026 50 22.4568C50 26.0212 50 27.7695 50 31.2661C50 32.1779 49.2992 32.9465 48.3949 32.9465H36.1491C35.2373 32.9465 34.544 32.1779 34.544 31.2661V23.2179C34.544 22.3061 35.2448 21.5374 36.1491 21.5374H39.0128C39.6457 21.5374 40.0602 21.6805 40.339 21.9594V17.7694C40.339 17.4907 40.6179 17.2119 40.9721 17.2119H43.7678C44.1145 17.2119 44.4008 17.4907 44.4008 17.7694V19.5179H46.5711C46.9178 19.5179 47.2041 19.7966 47.2041 20.1508V21.8238H47.1965ZM46.0135 6.92551C46.0135 5.17722 46.0135 5.17722 46.0135 3.42894H44.4083V6.92551H46.0135ZM48.8092 7.06866V5.81016H47.2041V6.92551H48.0407C48.2517 6.92551 48.5305 6.92551 48.8092 7.06866ZM48.8092 9.23147C48.8092 8.59837 48.8092 8.18401 48.0407 8.11612H40.7686C40.4899 8.11612 40.2788 7.97297 40.2109 7.62633L39.8643 6.22469C39.7211 5.7349 39.5855 5.45598 39.0279 5.45598L36.1642 5.52386C35.9532 5.52386 35.7422 5.66701 35.7422 5.8705V13.979C35.7422 14.19 35.9532 14.4011 36.1642 14.4011H48.4024C48.6133 14.4011 48.8243 14.19 48.8243 13.979V9.23147H48.8092ZM47.1965 4.55166H49.3669C49.7135 4.55166 50 4.83058 50 5.18477C50 8.68134 50 10.4975 50 13.9941C50 14.9059 49.2992 15.6745 48.3949 15.6745H36.1491C35.2373 15.6745 34.544 14.9059 34.544 13.9941V5.87805C34.544 4.96619 35.2448 4.27291 36.1491 4.27291H39.0128C39.6457 4.20502 40.0602 4.41606 40.339 4.69498V0.48987C40.339 0.14323 40.6179 -0.143066 40.9721 -0.143066H43.7678C44.1145 -0.143066 44.4008 0.135687 44.4008 0.48987V2.23832H46.5711C46.9178 2.23832 47.2041 2.44919 47.2041 2.79583V4.55166H47.1965ZM2.93136 20.422C0.271211 21.6128 0.69328 23.0822 3.63218 24.1975C7.12892 25.5239 12.7204 25.456 16.217 24.1296C17.6865 23.5721 18.523 22.8713 18.523 22.1705C18.523 21.4018 17.6111 20.7687 16.7747 20.422L16.6315 20.7009C16.4884 20.912 16.1417 21.0476 15.8628 20.912L13.6925 20.0754C13.3458 20.3543 12.9239 20.6331 12.4341 20.7762L12.1552 23.0822C12.0873 23.3611 11.8765 23.6398 11.5223 23.6398H8.16884C7.88992 23.6398 7.61117 23.3611 7.53574 23.0822L7.25698 20.7762C6.83491 20.6331 6.34512 20.3543 5.99848 20.0754L3.82813 20.912C3.54937 21.0551 3.19519 20.912 3.05959 20.7009L2.93136 20.422ZM17.4076 19.3746C18.6661 19.9322 19.6458 20.8441 19.7136 22.3136C19.7136 27.2118 19.7136 32.1025 19.7136 37.0007C19.7136 38.2592 18.523 39.3067 16.6391 40.0754C12.8636 41.5449 6.85 41.5449 3.07467 40.0754C1.18307 39.3067 0 38.2592 0 37.0007C0 32.1025 0 27.2118 0 22.3136C0.0678865 20.7762 1.04746 19.9322 2.30596 19.3746L1.3941 17.7694C1.25096 17.4907 1.32622 17.1365 1.60514 17.0009L3.42131 15.5992C3.35342 15.1094 3.35342 14.6195 3.42131 14.0618L1.60514 12.6602C1.32622 12.517 1.2585 12.1704 1.3941 11.8916L3.07467 9.02798C3.21782 8.74923 3.56446 8.60591 3.84321 8.74923L6.01357 9.58566C6.36021 9.30673 6.85 9.02798 7.27207 8.88483L7.55082 6.64676C7.61871 6.29995 7.89746 6.01365 8.18393 6.01365H11.5374C11.884 6.01365 12.0949 6.29257 12.1703 6.64676L12.449 8.88483C12.939 9.02798 13.3609 9.30673 13.7075 9.58566L15.8779 8.74923C16.1567 8.60591 16.5108 8.74923 16.6466 9.02798L18.327 11.8916C18.4702 12.1704 18.3949 12.5246 18.116 12.6602L16.3 14.0618C16.3677 14.6195 16.3677 15.1094 16.3 15.5992L18.116 17.0009C18.3949 17.144 18.4626 17.4907 18.327 17.7694L17.4076 19.3746ZM6.21706 14.8305C6.21706 16.8577 7.89746 18.4704 9.85678 18.4704C11.884 18.4704 13.4967 16.8653 13.4967 14.8305C13.4967 12.8712 11.8915 11.1908 9.85678 11.1908C7.89746 11.1908 6.21706 12.8712 6.21706 14.8305ZM4.67964 15.7348C4.67964 15.9459 4.61192 16.1569 4.40089 16.2925L2.72049 17.6187L3.9111 19.578L5.80254 18.8095C6.01357 18.6662 6.29232 18.7416 6.50336 18.8772C6.64651 19.0204 7.4831 19.578 8.04061 19.7891C8.25165 19.857 8.38725 20.0678 8.46268 20.2789L8.74143 22.3738H10.9797L11.2584 20.2789C11.3263 20.0678 11.4695 19.857 11.6805 19.7891C12.2382 19.578 13.0821 19.0204 13.2178 18.8772C13.4288 18.7341 13.7075 18.6662 13.9186 18.8095L15.8779 19.578L16.9932 17.6187L15.3127 16.2925C15.1016 16.1494 15.0339 15.9459 15.0339 15.7348C15.1016 14.9661 15.1016 14.6874 15.0339 13.9187C15.0339 13.7076 15.1016 13.4968 15.3127 13.361L16.9932 12.0348L15.8779 10.0754L13.9186 10.8442C13.7075 10.9873 13.4288 10.9119 13.2178 10.7763C13.0746 10.6331 12.2382 10.0754 11.6805 9.86441C11.4695 9.79669 11.3339 9.58565 11.2584 9.37462L10.9797 7.27969H8.74143L8.46268 9.37462C8.39479 9.58565 8.25165 9.79669 8.04061 9.86441C7.4831 10.0754 6.63896 10.6331 6.50336 10.7763C6.29232 10.9194 6.01357 10.9873 5.80254 10.8442L3.9111 10.0754L2.72049 12.0348L4.40089 13.361C4.61192 13.5043 4.67964 13.7076 4.67964 13.9187C4.61192 14.6874 4.61192 14.9661 4.67964 15.7348ZM18.5305 36.9934V34.1974C18.0407 34.6195 17.4151 34.9662 16.6391 35.2449C12.8636 36.7144 6.85 36.7144 3.07467 35.2449C2.30596 34.9662 1.67303 34.612 1.18307 34.1974V36.9934C1.18307 37.6942 2.09493 38.395 3.48903 38.9525C6.9856 40.3542 12.7204 40.3542 16.217 38.9525C17.6865 38.395 18.5305 37.6942 18.5305 36.9934ZM11.9517 27.6264C12.7204 27.5585 12.8636 28.6738 12.0949 28.817C10.6255 29.028 9.15596 29.028 7.61871 28.817C6.85 28.6738 6.9856 27.5585 7.76186 27.6264C9.15596 27.8372 10.5576 27.8372 11.9517 27.6264ZM11.9517 32.6602C12.7204 32.5923 12.8636 33.7077 12.0949 33.8508C10.6255 34.0618 9.15596 34.0618 7.61871 33.8508C6.85 33.7077 6.9856 32.5923 7.76186 32.6602C9.15596 32.8712 10.5576 32.8712 11.9517 32.6602ZM11.9517 37.5584C12.7204 37.4153 12.8636 38.6059 12.0949 38.7492C10.6255 38.8923 9.15596 38.8923 7.61871 38.7492C6.85 38.6059 6.9856 37.4228 7.76186 37.5584C9.15596 37.6942 10.5576 37.6942 11.9517 37.5584ZM18.5305 29.4424C18.0407 29.8644 17.4151 30.2111 16.6391 30.4898C12.8636 31.9594 6.85 31.9594 3.07467 30.4898C2.30596 30.2111 1.67303 29.8569 1.18307 29.4424C1.18307 30.3542 1.18307 31.2585 1.18307 32.1704C1.18307 32.8712 2.09493 33.6399 3.48903 34.1974C6.9856 35.5238 12.7204 35.5238 16.217 34.1974C17.6865 33.6399 18.523 32.8712 18.523 32.1704C18.5305 31.2661 18.5305 30.3542 18.5305 29.4424ZM18.5305 27.4153C18.5305 26.3 18.5305 25.245 18.5305 24.1975C18.0407 24.6196 17.4151 24.9662 16.6391 25.245C12.8636 26.7145 6.9856 26.7145 3.21028 25.3129C2.44157 24.9662 1.67303 24.612 1.18307 24.1975C1.18307 25.245 1.18307 26.2924 1.18307 27.4153C1.18307 28.1162 2.09493 28.817 3.48903 29.3747C6.9856 30.7763 12.7204 30.7763 16.217 29.3747C17.6865 28.817 18.5305 28.1162 18.5305 27.4153Z" fill="url(#paint0_linear_413_139)"/>
</g>
<defs>
<linearGradient id="paint0_linear_413_139" x1="0.000167621" y1="25.1213" x2="50.001" y2="25.1213" gradientUnits="userSpaceOnUse">
<stop stop-color="#1685FF"/>
<stop offset="0.5" stop-color="#8B5CF6"/>
<stop offset="1" stop-color="#D946EF"/>
</linearGradient>
<clipPath id="clip0_413_139">
<rect width="50" height="50" fill="white"/>
</clipPath>
</defs>
</svg>
