<?xml version="1.0" encoding="UTF-8" standalone="no"?><!DOCTYPE svg PUBLIC "-//W3C//DTD SVG 1.1//EN" "http://www.w3.org/Graphics/SVG/1.1/DTD/svg11.dtd"><svg width="100%" height="100%" viewBox="0 0 61 60" version="1.1" xmlns="http://www.w3.org/2000/svg" xmlns:xlink="http://www.w3.org/1999/xlink" xml:space="preserve" xmlns:serif="http://www.serif.com/" style="fill-rule:evenodd;clip-rule:evenodd;stroke-linejoin:round;stroke-miterlimit:2;"><path d="M34,22l-30,0c-2.21,0 -4,1.79 -4,4l0,10c0,1.86 1.28,3.41 3,3.86l0,2.28c-1.72,0.45 -3,2 -3,3.86l0,10c0,2.21 1.79,4 4,4l30,0c2.21,0 4,-1.79 4,-4l0,-10c0,-1.86 -1.28,-3.41 -3,-3.86l0,-2.28c1.72,-0.45 3,-2 3,-3.86l0,-10c0,-2.21 -1.79,-4 -4,-4Zm2,24l0,10c0,1.1 -0.9,2 -2,2l-30,0c-1.1,0 -2,-0.9 -2,-2l0,-10c0,-1.1 0.9,-2 2,-2l30,0c1.1,0 2,0.9 2,2Zm-4,3c-0.55,0 -1,0.45 -1,1l0,2c0,0.55 0.45,1 1,1c0.55,0 1,-0.45 1,-1l0,-2c0,-0.55 -0.45,-1 -1,-1Zm-4,0c-0.55,0 -1,0.45 -1,1l0,2c0,0.55 0.45,1 1,1c0.55,0 1,-0.45 1,-1l0,-2c0,-0.55 -0.45,-1 -1,-1Zm-4,0c-0.55,0 -1,0.45 -1,1l0,2c0,0.55 0.45,1 1,1c0.55,0 1,-0.45 1,-1l0,-2c0,-0.55 -0.45,-1 -1,-1Zm-17,0c1.104,0 2,0.896 2,2c0,1.104 -0.896,2 -2,2c-1.104,0 -2,-0.896 -2,-2c0,-1.104 0.896,-2 2,-2Zm6,0c1.104,0 2,0.896 2,2c0,1.104 -0.896,2 -2,2c-1.104,0 -2,-0.896 -2,-2c0,-1.104 0.896,-2 2,-2Zm39,-33c-0.55,0 -1,0.45 -1,1l0,32.72c0,0.7 -0.57,1.28 -1.28,1.28l-8.72,0c-0.55,0 -1,0.45 -1,1c0,0.55 0.45,1 1,1l8.72,0c1.81,0 3.28,-1.47 3.28,-3.28l0,-32.72c0,-0.55 -0.45,-1 -1,-1Zm-19,26l-28,0l0,-2l28,0l0,2Zm3,-6c0,1.1 -0.9,2 -2,2l-30,0c-1.1,0 -2,-0.9 -2,-2l0,-10c0,-1.1 0.9,-2 2,-2l30,0c1.1,0 2,0.9 2,2l0,10Zm-4,-7c-0.55,0 -1,0.45 -1,1l0,2c0,0.55 0.45,1 1,1c0.55,0 1,-0.45 1,-1l0,-2c0,-0.55 -0.45,-1 -1,-1Zm-4,0c-0.55,0 -1,0.45 -1,1l0,2c0,0.55 0.45,1 1,1c0.55,0 1,-0.45 1,-1l0,-2c0,-0.55 -0.45,-1 -1,-1Zm-4,0c-0.55,0 -1,0.45 -1,1l0,2c0,0.55 0.45,1 1,1c0.55,0 1,-0.45 1,-1l0,-2c0,-0.55 -0.45,-1 -1,-1Zm-17,0c1.104,0 2,0.896 2,2c0,1.104 -0.896,2 -2,2c-1.104,0 -2,-0.896 -2,-2c0,-1.104 0.896,-2 2,-2Zm6,0c1.104,0 2,0.896 2,2c0,1.104 -0.896,2 -2,2c-1.104,0 -2,-0.896 -2,-2c0,-1.104 0.896,-2 2,-2Zm46.02,-29l-10.02,0c-0.4,0 -0.77,0.24 -0.92,0.62c-0.15,0.37 -0.07,0.8 0.22,1.09l2.82,2.82l-13.82,13.82c-0.39,0.39 -0.39,1.02 0,1.41l2.95,2.95c0.2,0.2 0.45,0.29 0.71,0.29c0.26,0 0.51,-0.1 0.71,-0.29l13.82,-13.82l2.82,2.82c0.29,0.29 0.71,0.37 1.09,0.22c0.37,-0.15 0.62,-0.52 0.62,-0.92l0,-10.01c0,-0.55 -0.45,-1 -1,-1Zm-1.01,8.6l-1.83,-1.83c-0.39,-0.39 -1.02,-0.39 -1.41,-0l-13.82,13.82l-1.53,-1.53l13.82,-13.82c0.39,-0.39 0.39,-1.02 -0,-1.41l-1.82,-1.82l6.59,-0l0,6.59Zm-50.01,11.4c0.55,0 1,-0.45 1,-1l-0,-8.72c-0,-0.7 0.57,-1.28 1.28,-1.28l32.72,0c0.55,0 1,-0.45 1,-1c-0,-0.55 -0.45,-1 -1,-1l-32.72,0c-1.81,0 -3.28,1.47 -3.28,3.28l-0,8.72c-0,0.55 0.45,1 1,1Z" style="fill:url(#_Linear1);fill-rule:nonzero;"/><defs><linearGradient id="_Linear1" x1="0" y1="0" x2="1" y2="0" gradientUnits="userSpaceOnUse" gradientTransform="matrix(60.0203,0,0,58.3237,-6.77037e-05,30.1445)"><stop offset="0" style="stop-color:#1685ff;stop-opacity:1"/><stop offset="0.5" style="stop-color:#8b5cf6;stop-opacity:1"/><stop offset="1" style="stop-color:#d946ef;stop-opacity:1"/></linearGradient></defs></svg>