<svg width="30" height="30" viewBox="0 0 30 30" fill="none" xmlns="http://www.w3.org/2000/svg">
<path d="M24.6875 5H20.0344C19.9524 5.00035 19.8738 5.03289 19.8156 5.09063L18.6359 6.25H16.0484C15.9813 6.02406 15.843 5.82585 15.654 5.6849C15.4651 5.54395 15.2357 5.46781 15 5.46781C14.7643 5.46781 14.5349 5.54395 14.346 5.6849C14.157 5.82585 14.0187 6.02406 13.9516 6.25H11.3641L10.1859 5.09063C10.1273 5.03251 10.0481 4.99993 9.96562 5H5.3125C5.22962 5 5.15013 5.03292 5.09153 5.09153C5.03292 5.15013 5 5.22962 5 5.3125C5 5.39538 5.03292 5.47487 5.09153 5.53347C5.15013 5.59208 5.22962 5.625 5.3125 5.625H9.84375L11.0219 6.78437C11.0801 6.84211 11.1586 6.87465 11.2406 6.875H13.9516C14.0191 7.10033 14.1576 7.29787 14.3463 7.4383C14.535 7.57873 14.764 7.65458 14.9992 7.65458C15.2345 7.65458 15.4634 7.57873 15.6522 7.4383C15.8409 7.29787 15.9793 7.10033 16.0469 6.875H18.7641C18.846 6.87465 18.9246 6.84211 18.9828 6.78437L20.1562 5.625H24.6875C24.7704 5.625 24.8499 5.59208 24.9085 5.53347C24.9671 5.47487 25 5.39538 25 5.3125C25 5.22962 24.9671 5.15013 24.9085 5.09153C24.8499 5.03292 24.7704 5 24.6875 5ZM15 7.03125C14.9073 7.03125 14.8167 7.00376 14.7396 6.95225C14.6625 6.90074 14.6024 6.82754 14.5669 6.74188C14.5315 6.65623 14.5222 6.56198 14.5403 6.47105C14.5583 6.38012 14.603 6.2966 14.6685 6.23104C14.7341 6.16549 14.8176 6.12084 14.9085 6.10276C14.9995 6.08467 15.0937 6.09395 15.1794 6.12943C15.265 6.16491 15.3382 6.22499 15.3897 6.30208C15.4413 6.37916 15.4687 6.46979 15.4687 6.5625C15.4687 6.68682 15.4194 6.80605 15.3315 6.89396C15.2435 6.98186 15.1243 7.03125 15 7.03125Z" fill="url(#paint0_linear_1775_287)"/>
<path d="M24.6872 7.03125H22.6107C22.5356 6.77948 22.3724 6.56314 22.151 6.42179C21.9295 6.28045 21.6646 6.22353 21.4046 6.26146C21.1446 6.29939 20.907 6.42963 20.7352 6.62836C20.5633 6.82709 20.4688 7.08103 20.4688 7.34375C20.4688 7.60647 20.5633 7.86042 20.7352 8.05915C20.907 8.25788 21.1446 8.38811 21.4046 8.42604C21.6646 8.46397 21.9295 8.40706 22.151 8.26571C22.3724 8.12436 22.5356 7.90802 22.6107 7.65625H24.6872C24.7701 7.65625 24.8496 7.62333 24.9082 7.56472C24.9668 7.50612 24.9997 7.42663 24.9997 7.34375C24.9997 7.26087 24.9668 7.18139 24.9082 7.12278C24.8496 7.06418 24.7701 7.03125 24.6872 7.03125ZM21.5622 7.8125C21.4695 7.8125 21.3789 7.78501 21.3018 7.7335C21.2247 7.682 21.1646 7.60879 21.1292 7.52314C21.0937 7.43748 21.0844 7.34323 21.1025 7.2523C21.1206 7.16138 21.1652 7.07785 21.2308 7.0123C21.2963 6.94674 21.3798 6.9021 21.4708 6.88401C21.5617 6.86592 21.6559 6.87521 21.7416 6.91068C21.8273 6.94616 21.9005 7.00624 21.952 7.08333C22.0035 7.16041 22.031 7.25104 22.031 7.34375C22.031 7.46807 21.9816 7.5873 21.8937 7.67521C21.8058 7.76312 21.6865 7.8125 21.5622 7.8125Z" fill="url(#paint1_linear_1775_287)"/>
<path d="M24.6875 24.3748H20.1562L18.9781 23.2154C18.9199 23.1577 18.8414 23.1251 18.7594 23.1248H16.0484C15.9809 22.8995 15.8424 22.7019 15.6537 22.5615C15.465 22.4211 15.236 22.3452 15.0008 22.3452C14.7655 22.3452 14.5366 22.4211 14.3478 22.5615C14.1591 22.7019 14.0207 22.8995 13.9531 23.1248H11.2359C11.154 23.1251 11.0754 23.1577 11.0172 23.2154L9.84375 24.3748H5.3125C5.22962 24.3748 5.15013 24.4077 5.09153 24.4663C5.03292 24.5249 5 24.6044 5 24.6873C5 24.7702 5.03292 24.8497 5.09153 24.9083C5.15013 24.9669 5.22962 24.9998 5.3125 24.9998H9.96562C10.0476 24.9994 10.1262 24.9669 10.1844 24.9092L11.3641 23.7498H13.9516C14.0191 23.9751 14.1576 24.1727 14.3463 24.3131C14.535 24.4535 14.764 24.5294 14.9992 24.5294C15.2345 24.5294 15.4634 24.4535 15.6522 24.3131C15.8409 24.1727 15.9793 23.9751 16.0469 23.7498H18.6359L19.8141 24.9092C19.8723 24.9669 19.9508 24.9994 20.0328 24.9998H24.6875C24.7704 24.9998 24.8499 24.9669 24.9085 24.9083C24.9671 24.8497 25 24.7702 25 24.6873C25 24.6044 24.9671 24.5249 24.9085 24.4663C24.8499 24.4077 24.7704 24.3748 24.6875 24.3748ZM15 23.906C14.9073 23.906 14.8167 23.8785 14.7396 23.827C14.6625 23.7755 14.6024 23.7023 14.5669 23.6167C14.5315 23.531 14.5222 23.4368 14.5403 23.3458C14.5583 23.2549 14.603 23.1714 14.6685 23.1058C14.7341 23.0403 14.8176 22.9956 14.9085 22.9775C14.9995 22.9595 15.0937 22.9687 15.1794 23.0042C15.265 23.0397 15.3382 23.0998 15.3897 23.1769C15.4413 23.254 15.4687 23.3446 15.4687 23.4373C15.4687 23.5616 15.4194 23.6808 15.3315 23.7687C15.2435 23.8567 15.1243 23.906 15 23.906Z" fill="url(#paint2_linear_1775_287)"/>
<path d="M24.6872 22.3438H22.6107C22.5356 22.092 22.3724 21.8756 22.151 21.7343C21.9295 21.5929 21.6646 21.536 21.4046 21.574C21.1446 21.6119 20.907 21.7421 20.7352 21.9409C20.5633 22.1396 20.4688 22.3935 20.4688 22.6563C20.4688 22.919 20.5633 23.1729 20.7352 23.3716C20.907 23.5704 21.1446 23.7006 21.4046 23.7385C21.6646 23.7765 21.9295 23.7196 22.151 23.5782C22.3724 23.4369 22.5356 23.2205 22.6107 22.9688H24.6872C24.7701 22.9688 24.8496 22.9358 24.9082 22.8772C24.9668 22.8186 24.9997 22.7391 24.9997 22.6563C24.9997 22.5734 24.9668 22.4939 24.9082 22.4353C24.8496 22.3767 24.7701 22.3438 24.6872 22.3438ZM21.5622 23.125C21.4695 23.125 21.3789 23.0975 21.3018 23.046C21.2247 22.9945 21.1646 22.9213 21.1292 22.8356C21.0937 22.75 21.0844 22.6557 21.1025 22.5648C21.1206 22.4739 21.1652 22.3904 21.2308 22.3248C21.2963 22.2592 21.3798 22.2146 21.4708 22.1965C21.5617 22.1784 21.6559 22.1877 21.7416 22.2232C21.8273 22.2587 21.9005 22.3187 21.952 22.3958C22.0035 22.4729 22.031 22.5635 22.031 22.6563C22.031 22.7806 21.9816 22.8998 21.8937 22.9877C21.8058 23.0756 21.6865 23.125 21.5622 23.125Z" fill="url(#paint3_linear_1775_287)"/>
<path d="M15 11.5625C15.5063 11.562 16.0064 11.6741 16.4641 11.8906C16.6538 11.9316 16.826 12.0311 16.9562 12.175C17.4236 12.4985 17.8041 12.9321 18.0641 13.4375H18.75C18.3888 12.5706 17.7384 11.8556 16.9094 11.4142C16.0805 10.9728 15.1242 10.8322 14.2033 11.0164C13.2824 11.2006 12.4537 11.6981 11.8583 12.4244C11.2629 13.1507 10.9375 14.0609 10.9375 15C10.9375 15.9392 11.2629 16.8493 11.8583 17.5756C12.4537 18.3019 13.2824 18.7994 14.2033 18.9836C15.1242 19.1678 16.0805 19.0272 16.9094 18.5858C17.7384 18.1444 18.3888 17.4294 18.75 16.5625H18.0641C17.8047 17.0709 17.4236 17.5073 16.9547 17.8328C16.8246 17.9759 16.6531 18.0748 16.4641 18.1156C15.9981 18.3328 15.4894 18.4427 14.9753 18.4373C14.4612 18.4318 13.9549 18.3112 13.4937 18.0841C13.0325 17.8571 12.628 17.5295 12.3101 17.1254C11.9923 16.7214 11.7691 16.2512 11.657 15.7495C11.5449 15.2478 11.5468 14.7273 11.6624 14.2264C11.7781 13.7255 12.0047 13.2569 12.3255 12.8552C12.6462 12.4534 13.053 12.1287 13.5159 11.905C13.9788 11.6813 14.4859 11.5643 15 11.5625Z" fill="url(#paint4_linear_1775_287)"/>
<path d="M15.4797 7.96875H14.5203C14.3552 7.97078 14.1974 8.03728 14.0806 8.15405C13.9638 8.27082 13.8973 8.42862 13.8953 8.59375V9.16719C13.097 9.32027 12.3386 9.63564 11.6672 10.0937L11.2625 9.6875C11.2043 9.62797 11.1348 9.58067 11.058 9.54838C10.9813 9.51609 10.8989 9.49945 10.8156 9.49945C10.7324 9.49945 10.6499 9.51609 10.5732 9.54838C10.4965 9.58067 10.427 9.62797 10.3687 9.6875L9.6875 10.3672C9.62797 10.4254 9.58067 10.4949 9.54838 10.5716C9.51609 10.6484 9.49945 10.7308 9.49945 10.8141C9.49945 10.8973 9.51609 10.9797 9.54838 11.0565C9.58067 11.1332 9.62797 11.2027 9.6875 11.2609L10.0922 11.6656C9.63726 12.3352 9.32408 13.0908 9.17187 13.8859H8.59375C8.42862 13.888 8.27082 13.9545 8.15405 14.0712C8.03728 14.188 7.97078 14.3458 7.96875 14.5109V15.4703C7.97078 15.6354 8.03728 15.7932 8.15405 15.91C8.27082 16.0268 8.42862 16.0933 8.59375 16.0953H9.16719C9.31904 16.8969 9.63446 17.6586 10.0937 18.3328L9.6875 18.7375C9.62797 18.7957 9.58067 18.8652 9.54838 18.942C9.51609 19.0187 9.49945 19.1011 9.49945 19.1844C9.49945 19.2676 9.51609 19.35 9.54838 19.4268C9.58067 19.5035 9.62797 19.573 9.6875 19.6312L10.3672 20.3125C10.4254 20.372 10.4949 20.4193 10.5716 20.4516C10.6484 20.4839 10.7308 20.5005 10.8141 20.5005C10.8973 20.5005 10.9797 20.4839 11.0565 20.4516C11.1332 20.4193 11.2027 20.372 11.2609 20.3125L11.6656 19.9078C12.3352 20.3627 13.0908 20.6759 13.8859 20.8281V21.4062C13.888 21.5714 13.9545 21.7292 14.0712 21.8459C14.188 21.9627 14.3458 22.0292 14.5109 22.0312H15.4703C15.6354 22.0292 15.7932 21.9627 15.91 21.8459C16.0268 21.7292 16.0933 21.5714 16.0953 21.4062V20.8328C16.8969 20.681 17.6586 20.3655 18.3328 19.9062L18.7375 20.3125C18.7957 20.372 18.8652 20.4193 18.942 20.4516C19.0187 20.4839 19.1011 20.5005 19.1844 20.5005C19.2676 20.5005 19.35 20.4839 19.4268 20.4516C19.5035 20.4193 19.573 20.372 19.6312 20.3125L20.3125 19.6328C20.372 19.5746 20.4193 19.5051 20.4516 19.4283C20.4839 19.3516 20.5005 19.2692 20.5005 19.1859C20.5005 19.1027 20.4839 19.0203 20.4516 18.9435C20.4193 18.8668 20.372 18.7973 20.3125 18.7391L19.9062 18.3328C20.2738 17.7917 20.5494 17.1935 20.7219 16.5625H20.0703C19.892 17.147 19.614 17.6962 19.2484 18.1859C19.2036 18.2461 19.1819 18.3205 19.1873 18.3954C19.1928 18.4703 19.225 18.5407 19.2781 18.5937L19.8703 19.1953L19.1812 19.8734L18.5937 19.2781C18.5407 19.225 18.4703 19.1928 18.3954 19.1873C18.3205 19.1819 18.2461 19.2036 18.1859 19.2484C17.4749 19.7805 16.6416 20.1254 15.7625 20.2516C15.6874 20.2622 15.6187 20.2997 15.5693 20.3572C15.5199 20.4147 15.493 20.4882 15.4937 20.5641V21.4094H14.5266V20.5609C14.5273 20.4851 14.5005 20.4116 14.451 20.3541C14.4016 20.2966 14.3329 20.259 14.2578 20.2484C13.3787 20.1223 12.5454 19.7774 11.8344 19.2453C11.7742 19.2004 11.6998 19.1787 11.6249 19.1842C11.5501 19.1896 11.4796 19.2219 11.4266 19.275L10.825 19.8672L10.1469 19.1781L10.7219 18.5937C10.775 18.5407 10.8072 18.4703 10.8127 18.3954C10.8181 18.3205 10.7964 18.2461 10.7516 18.1859C10.2195 17.4749 9.87456 16.6416 9.74844 15.7625C9.73782 15.6874 9.70027 15.6187 9.64278 15.5693C9.58528 15.5199 9.51177 15.493 9.43594 15.4937H8.59062V14.5266H9.42812C9.50395 14.5273 9.57747 14.5005 9.63496 14.451C9.69246 14.4016 9.73001 14.3329 9.74062 14.2578C9.86674 13.3787 10.2117 12.5454 10.7437 11.8344C10.7954 11.7737 10.8219 11.6955 10.8178 11.616C10.8137 11.5364 10.7794 11.4614 10.7219 11.4062L10.1297 10.8047L10.8187 10.1266L11.4062 10.7219C11.4593 10.775 11.5297 10.8072 11.6046 10.8127C11.6795 10.8181 11.7539 10.7964 11.8141 10.7516C12.525 10.2194 13.3584 9.87443 14.2375 9.74844C14.3126 9.73782 14.3813 9.70027 14.4307 9.64277C14.4801 9.58528 14.507 9.51177 14.5062 9.43594V8.59062H15.4734V9.42812C15.4727 9.50395 15.4995 9.57747 15.549 9.63496C15.5984 9.69246 15.6671 9.73001 15.7422 9.74062C16.6213 9.86661 17.4546 10.2116 18.1656 10.7437C18.2263 10.7954 18.3044 10.8219 18.384 10.8178C18.4636 10.8137 18.5386 10.7794 18.5937 10.7219L19.1953 10.1297L19.8734 10.8187L19.2781 11.4062C19.225 11.4593 19.1928 11.5297 19.1873 11.6046C19.1819 11.6795 19.2036 11.7539 19.2484 11.8141C19.614 12.3037 19.892 12.853 20.0703 13.4375H20.7219C20.5494 12.8065 20.2738 12.2083 19.9062 11.6672L20.3125 11.2625C20.372 11.2043 20.4193 11.1348 20.4516 11.058C20.4839 10.9813 20.5005 10.8989 20.5005 10.8156C20.5005 10.7324 20.4839 10.6499 20.4516 10.5732C20.4193 10.4965 20.372 10.427 20.3125 10.3687L19.6328 9.6875C19.5746 9.62797 19.5051 9.58067 19.4283 9.54838C19.3516 9.51609 19.2692 9.49945 19.1859 9.49945C19.1027 9.49945 19.0203 9.51609 18.9435 9.54838C18.8668 9.58067 18.7973 9.62797 18.7391 9.6875L18.3328 10.0937C17.6631 9.63938 16.9075 9.32672 16.1125 9.175V8.59375C16.1104 8.42728 16.0429 8.26832 15.9244 8.15133C15.806 8.03433 15.6462 7.96874 15.4797 7.96875Z" fill="url(#paint5_linear_1775_287)"/>
<path d="M22.0303 15.625C22.0303 15.5421 21.9974 15.4626 21.9388 15.404C21.8801 15.3454 21.8007 15.3125 21.7178 15.3125H14.2178C14.1527 15.3127 14.0893 15.3332 14.0365 15.3712C13.9836 15.4091 13.9439 15.4626 13.923 15.5242C13.902 15.5858 13.9007 15.6524 13.9194 15.7147C13.9381 15.777 13.9758 15.832 14.0272 15.8719L16.0709 17.4422C16.1366 17.4927 16.2197 17.5151 16.3019 17.5044C16.3841 17.4937 16.4586 17.4508 16.5092 17.3852C16.5597 17.3195 16.5821 17.2364 16.5714 17.1542C16.5607 17.072 16.5178 16.9974 16.4522 16.9469L15.135 15.9375H21.7178C21.8007 15.9375 21.8801 15.9046 21.9388 15.846C21.9974 15.7874 22.0303 15.7079 22.0303 15.625Z" fill="url(#paint6_linear_1775_287)"/>
<path d="M23.9054 13.2814C23.6699 13.2813 23.4405 13.3573 23.2516 13.4981C23.0627 13.6389 22.9243 13.8369 22.857 14.0626H15.1351L16.4523 13.047C16.518 12.9964 16.5609 12.9219 16.5716 12.8397C16.5823 12.7575 16.5599 12.6744 16.5093 12.6087C16.4588 12.543 16.3842 12.5001 16.302 12.4894C16.2198 12.4787 16.1367 12.5011 16.0711 12.5517L14.0273 14.1345C13.9783 14.175 13.9429 14.2295 13.9257 14.2908C13.9085 14.352 13.9104 14.417 13.9311 14.4771C13.9518 14.5372 13.9904 14.5895 14.0416 14.6272C14.0929 14.6648 14.1544 14.6859 14.2179 14.6876H22.857C22.915 14.882 23.0258 15.0564 23.1772 15.1914C23.3286 15.3264 23.5145 15.4167 23.7142 15.4521C23.914 15.4875 24.1196 15.4667 24.3082 15.3919C24.4967 15.3172 24.6608 15.1915 24.782 15.0289C24.9033 14.8663 24.9769 14.6731 24.9947 14.4711C25.0125 14.269 24.9737 14.066 24.8828 13.8847C24.7919 13.7034 24.6523 13.551 24.4797 13.4444C24.3071 13.3379 24.1083 13.2814 23.9054 13.2814ZM23.9054 14.8439C23.8127 14.8439 23.7221 14.8164 23.645 14.7649C23.5679 14.7134 23.5079 14.6402 23.4724 14.5545C23.4369 14.4689 23.4276 14.3746 23.4457 14.2837C23.4638 14.1927 23.5084 14.1092 23.574 14.0437C23.6395 13.9781 23.7231 13.9335 23.814 13.9154C23.9049 13.8973 23.9992 13.9066 24.0848 13.9421C24.1705 13.9775 24.2437 14.0376 24.2952 14.1147C24.3467 14.1918 24.3742 14.2824 24.3742 14.3751C24.3742 14.4994 24.3248 14.6187 24.2369 14.7066C24.149 14.7945 24.0298 14.8439 23.9054 14.8439Z" fill="url(#paint7_linear_1775_287)"/>
<path d="M5.625 22.9687H7.38906C7.46413 23.2205 7.6273 23.4369 7.84876 23.5782C8.07022 23.7196 8.33515 23.7765 8.59512 23.7385C8.85509 23.7006 9.09272 23.5704 9.26456 23.3716C9.4364 23.1729 9.53097 22.919 9.53097 22.6562C9.53097 22.3935 9.4364 22.1396 9.26456 21.9409C9.09272 21.7421 8.85509 21.6119 8.59512 21.574C8.33515 21.536 8.07022 21.5929 7.84876 21.7343C7.6273 21.8756 7.46413 22.092 7.38906 22.3437H5.625V7.65625H7.38906C7.46413 7.90802 7.6273 8.12436 7.84876 8.26571C8.07022 8.40706 8.33515 8.46397 8.59512 8.42604C8.85509 8.38811 9.09272 8.25788 9.26456 8.05915C9.4364 7.86042 9.53097 7.60647 9.53097 7.34375C9.53097 7.08103 9.4364 6.82709 9.26456 6.62836C9.09272 6.42963 8.85509 6.29939 8.59512 6.26146C8.33515 6.22353 8.07022 6.28045 7.84876 6.42179C7.6273 6.56314 7.46413 6.77948 7.38906 7.03125H5.625C5.45924 7.03125 5.30027 7.0971 5.18306 7.21431C5.06585 7.33152 5 7.49049 5 7.65625V22.3437C5 22.5095 5.06585 22.6685 5.18306 22.7857C5.30027 22.9029 5.45924 22.9687 5.625 22.9687ZM8.4375 22.1875C8.53021 22.1875 8.62084 22.215 8.69792 22.2665C8.77501 22.318 8.83509 22.3912 8.87057 22.4769C8.90605 22.5625 8.91533 22.6568 8.89724 22.7477C8.87916 22.8386 8.83451 22.9221 8.76896 22.9877C8.7034 23.0533 8.61988 23.0979 8.52895 23.116C8.43802 23.1341 8.34377 23.1248 8.25812 23.0893C8.17246 23.0538 8.09925 22.9938 8.04775 22.9167C7.99624 22.8396 7.96875 22.749 7.96875 22.6562C7.96875 22.5319 8.01814 22.4127 8.10604 22.3248C8.19395 22.2369 8.31318 22.1875 8.4375 22.1875ZM8.4375 6.875C8.53021 6.875 8.62084 6.90249 8.69792 6.954C8.77501 7.00551 8.83509 7.07872 8.87057 7.16437C8.90605 7.25002 8.91533 7.34427 8.89724 7.4352C8.87916 7.52613 8.83451 7.60965 8.76896 7.67521C8.7034 7.74076 8.61988 7.78541 8.52895 7.8035C8.43802 7.82158 8.34377 7.8123 8.25812 7.77682C8.17246 7.74134 8.09925 7.68126 8.04775 7.60418C7.99624 7.52709 7.96875 7.43646 7.96875 7.34375C7.96875 7.21943 8.01814 7.1002 8.10604 7.0123C8.19395 6.92439 8.31318 6.875 8.4375 6.875Z" fill="url(#paint8_linear_1775_287)"/>
<defs>
<linearGradient id="paint0_linear_1775_287" x1="5.00005" y1="6.33368" x2="25.0004" y2="6.33368" gradientUnits="userSpaceOnUse">
<stop stop-color="#1685FF"/>
<stop offset="0.5" stop-color="#8B5CF6"/>
<stop offset="1" stop-color="#D946EF"/>
</linearGradient>
<linearGradient id="paint1_linear_1775_287" x1="20.4688" y1="7.34902" x2="24.9998" y2="7.34902" gradientUnits="userSpaceOnUse">
<stop stop-color="#1685FF"/>
<stop offset="0.5" stop-color="#8B5CF6"/>
<stop offset="1" stop-color="#D946EF"/>
</linearGradient>
<linearGradient id="paint2_linear_1775_287" x1="5.00005" y1="23.6789" x2="25.0004" y2="23.6789" gradientUnits="userSpaceOnUse">
<stop stop-color="#1685FF"/>
<stop offset="0.5" stop-color="#8B5CF6"/>
<stop offset="1" stop-color="#D946EF"/>
</linearGradient>
<linearGradient id="paint3_linear_1775_287" x1="20.4688" y1="22.6615" x2="24.9998" y2="22.6615" gradientUnits="userSpaceOnUse">
<stop stop-color="#1685FF"/>
<stop offset="0.5" stop-color="#8B5CF6"/>
<stop offset="1" stop-color="#D946EF"/>
</linearGradient>
<linearGradient id="paint4_linear_1775_287" x1="10.9375" y1="15.0196" x2="18.7502" y2="15.0196" gradientUnits="userSpaceOnUse">
<stop stop-color="#1685FF"/>
<stop offset="0.5" stop-color="#8B5CF6"/>
<stop offset="1" stop-color="#D946EF"/>
</linearGradient>
<linearGradient id="paint5_linear_1775_287" x1="7.96878" y1="15.0339" x2="20.7221" y2="15.0339" gradientUnits="userSpaceOnUse">
<stop stop-color="#1685FF"/>
<stop offset="0.5" stop-color="#8B5CF6"/>
<stop offset="1" stop-color="#D946EF"/>
</linearGradient>
<linearGradient id="paint6_linear_1775_287" x1="13.9063" y1="16.4151" x2="22.0305" y2="16.4151" gradientUnits="userSpaceOnUse">
<stop stop-color="#1685FF"/>
<stop offset="0.5" stop-color="#8B5CF6"/>
<stop offset="1" stop-color="#D946EF"/>
</linearGradient>
<linearGradient id="paint7_linear_1775_287" x1="13.9141" y1="13.985" x2="24.9991" y2="13.985" gradientUnits="userSpaceOnUse">
<stop stop-color="#1685FF"/>
<stop offset="0.5" stop-color="#8B5CF6"/>
<stop offset="1" stop-color="#D946EF"/>
</linearGradient>
<linearGradient id="paint8_linear_1775_287" x1="5.00001" y1="15.0422" x2="9.53106" y2="15.0422" gradientUnits="userSpaceOnUse">
<stop stop-color="#1685FF"/>
<stop offset="0.5" stop-color="#8B5CF6"/>
<stop offset="1" stop-color="#D946EF"/>
</linearGradient>
</defs>
</svg>
