<svg width="110" height="110" viewBox="0 0 110 110" fill="none" xmlns="http://www.w3.org/2000/svg">
<path d="M102.111 40.7063C100.864 39.4591 99.0552 38.6675 97.2419 38.7825C94.637 38.8975 92.3727 40.7063 91.581 43.0857L85.8051 60.2937C84.5579 59.5021 83.0897 59.1616 81.7275 59.2765C79.9142 59.3915 78.1054 60.1832 76.8582 61.6559L64.8593 75.3485C62.2544 78.294 60.6712 82.1416 60.4456 86.1042L59.1984 106.599C59.1984 107.165 59.424 107.731 59.7645 108.182C60.2156 108.633 60.7817 108.863 61.3478 108.863H80.7103C81.7275 108.863 82.6341 108.072 82.8596 107.05L84.3324 98.8992L95.6542 90.8589C98.8252 88.5945 100.749 85.083 101.09 81.2354L103.92 45.5717C103.92 43.6479 103.354 41.9491 102.111 40.7063ZM96.6759 80.7833C96.4503 83.3882 95.0926 85.763 93.0538 87.2358L81.0504 95.8422C80.5993 96.1827 80.2588 96.6338 80.1438 97.1999L78.7861 104.559H63.6171L64.7493 86.4442C64.9749 83.3882 66.107 80.5577 68.1458 78.2934L80.259 64.4819C80.7101 63.9158 81.3912 63.5753 82.0723 63.5753C82.6384 63.5753 83.2045 63.6903 83.6556 64.0264C84.1067 64.3669 84.4472 64.7075 84.5622 65.2736V65.3886C84.7878 66.1802 84.6772 67.0868 84.1111 67.768L74.2576 80.1065C73.466 81.0131 73.6915 82.3708 74.5982 83.1625C75.5048 83.9541 76.8625 83.7285 77.6541 82.8219L87.5032 70.4834C88.7504 68.9002 89.3165 66.8613 88.8609 64.8225L95.654 44.4433C95.8795 43.6516 96.6712 43.0856 97.4673 43.0856C97.9184 43.0856 98.5995 43.3111 98.94 43.6516C99.2806 44.1028 99.5061 44.5583 99.5061 45.1244L96.6759 80.7833Z" fill="url(#paint0_linear_359_1310)"/>
<path d="M45.1614 75.3475L33.1581 61.536C31.9109 60.0633 30.2126 59.2717 28.2888 59.1566C26.9311 59.0417 25.4583 59.4972 24.2111 60.1738L18.4352 42.9658C17.6436 40.4759 15.3792 38.7777 12.6593 38.6626C10.846 38.5477 9.14771 39.2287 7.90503 40.5864C6.65782 41.8337 5.98123 43.6424 6.09173 45.4557L8.92218 81.1194C9.26271 85.082 11.3016 88.5936 14.3575 90.7429L25.6793 98.7832L27.1521 106.934C27.3776 107.951 28.2843 108.747 29.3014 108.747H48.664C49.2301 108.747 49.7961 108.522 50.2472 108.066C50.6983 107.615 50.9283 107.049 50.8133 106.483L49.5661 85.9883C49.4644 82.1407 47.8769 78.2929 45.1614 75.3475ZM31.2345 104.559L29.8768 97.3147C29.7618 96.7486 29.4257 96.2975 28.9702 95.957L16.9668 87.3507C14.8175 85.8779 13.5703 83.503 13.3447 80.8981L10.5143 45.2345C10.5143 44.6684 10.6293 44.1023 11.0804 43.7617C11.4209 43.3106 11.987 43.1956 12.6636 43.1956C13.4552 43.1956 14.1363 43.7617 14.4769 44.5533L21.27 64.9326C20.9294 66.9714 21.385 69.0102 22.6277 70.4784L32.3663 82.8215C33.1579 83.7281 34.5156 83.9537 35.4222 83.162C36.3289 82.3704 36.5544 81.0127 35.7628 80.106L25.9137 67.7675C25.3476 67.0865 25.2326 66.2948 25.4626 65.3881V65.2732C25.6882 64.8221 25.9137 64.3665 26.3692 64.0259C26.8203 63.6854 27.3864 63.4599 27.9525 63.5748C28.6335 63.5748 29.3102 63.9154 29.7658 64.4815L41.879 78.2929C43.8028 80.5573 45.05 83.3877 45.2755 86.4437L46.4077 104.559L31.2345 104.559Z" fill="url(#paint1_linear_359_1310)"/>
<path d="M93.2791 20.5524C92.713 14.4404 89.542 8.77996 84.4472 5.15246C76.7475 -0.393411 64.068 0.9643 56.8243 8.09794L54.7854 10.1368L52.07 7.30632C47.7668 3.00313 41.6549 0.738769 35.5379 1.19436C29.4215 1.87102 23.761 5.04196 20.138 10.1368C14.5921 17.947 15.9498 30.516 23.0835 37.7597L53.2017 67.878C53.6528 68.3291 54.2189 68.559 54.785 68.559C55.351 68.559 55.9172 68.3335 56.3682 67.878L87.1624 37.0838C91.4656 32.6657 93.7303 26.6649 93.2791 20.5524ZM54.785 63.2344L26.2552 34.7046C20.5943 29.0437 19.3471 18.7386 23.7653 12.7426C26.7108 8.66494 31.0094 6.17505 35.994 5.83449C36.4451 5.83449 36.9006 5.7195 37.3517 5.7195C41.7654 5.7195 45.9581 7.41777 49.0143 10.5888L53.3174 14.892C53.7686 15.3431 54.3346 15.573 54.9007 15.573C55.4667 15.573 56.0329 15.3475 56.4839 14.892L60.106 11.2699C65.7669 5.609 76.072 4.36179 82.068 8.78001C86.1457 11.7255 88.6356 16.0242 88.9761 21.0087C89.3167 25.878 87.6184 30.6322 84.2219 34.0288L54.785 63.2344Z" fill="url(#paint2_linear_359_1310)"/>
<path d="M37.2362 10.5879C33.3886 10.5879 29.9921 12.4012 27.7277 15.5676C24.7822 19.6453 25.8039 27.2302 29.7665 31.3027C30.2176 31.7538 30.7837 31.9838 31.3498 31.9838C31.9158 31.9838 32.482 31.7582 32.933 31.3027C33.8396 30.511 33.8396 29.0383 32.933 28.2467C30.5536 25.8673 29.762 20.547 31.3498 18.1721C32.8225 16.1333 34.9718 15.0011 37.3512 15.0011C38.5984 15.0011 39.5006 13.9839 39.5006 12.8518C39.5006 11.7196 38.479 10.5879 37.2362 10.5879Z" fill="url(#paint3_linear_359_1310)"/>
<defs>
<linearGradient id="paint0_linear_359_1310" x1="59.1985" y1="73.9862" x2="103.921" y2="73.9862" gradientUnits="userSpaceOnUse">
<stop stop-color="#1685FF"/>
<stop offset="0.5" stop-color="#8B5CF6"/>
<stop offset="1" stop-color="#D946EF"/>
</linearGradient>
<linearGradient id="paint1_linear_359_1310" x1="6.08014" y1="73.8676" x2="50.8436" y2="73.8676" gradientUnits="userSpaceOnUse">
<stop stop-color="#1685FF"/>
<stop offset="0.5" stop-color="#8B5CF6"/>
<stop offset="1" stop-color="#D946EF"/>
</linearGradient>
<linearGradient id="paint2_linear_359_1310" x1="16.7199" y1="35.0103" x2="93.337" y2="35.0103" gradientUnits="userSpaceOnUse">
<stop stop-color="#1685FF"/>
<stop offset="0.5" stop-color="#8B5CF6"/>
<stop offset="1" stop-color="#D946EF"/>
</linearGradient>
<linearGradient id="paint3_linear_359_1310" x1="26.0309" y1="21.3371" x2="39.5009" y2="21.3371" gradientUnits="userSpaceOnUse">
<stop stop-color="#1685FF"/>
<stop offset="0.5" stop-color="#8B5CF6"/>
<stop offset="1" stop-color="#D946EF"/>
</linearGradient>
</defs>
</svg>
