<svg width="80" height="81" viewBox="0 0 80 81" fill="none" xmlns="http://www.w3.org/2000/svg">
<g clip-path="url(#clip0_479_115)">
<path d="M23.2992 9.3645C18.7621 9.3645 14.7341 12.2677 13.2994 16.5719L9.37116 28.3566L7.32538 27.1754C6.065 26.4478 4.45336 26.8796 3.72569 28.14C2.99801 29.4004 3.42984 31.012 4.69022 31.7396L7.67001 33.4601L7.24345 34.7397C3.20455 36.9907 0.472656 41.3047 0.472656 46.2567V62.0676C0.472656 67.8891 5.19185 72.6083 11.0133 72.6083C16.3885 72.6083 20.824 68.5848 21.4724 63.3852H45.4554C44.5119 61.754 43.7805 59.9847 43.2994 58.1149H18.9188C17.4634 58.1149 16.2836 59.2947 16.2836 60.7501V62.0676C16.2836 64.9783 13.9239 67.3379 11.0133 67.3379C8.10257 67.3379 5.74297 64.9783 5.74297 62.0676V46.2567C5.74297 41.8906 9.28237 38.3512 13.6484 38.3512H48.4075C50.6016 36.0343 53.3162 34.2152 56.3641 33.0809H13.3519L18.2992 18.2385C19.0166 16.0864 21.0306 14.6348 23.2992 14.6348H56.7008C58.9694 14.6348 60.9834 16.0864 61.7008 18.2385L66.2596 31.9151C68.4183 32.1748 70.4766 32.7606 72.384 33.6219L72.2873 33.3319L75.0451 31.7396C76.3055 31.012 76.7372 29.4004 76.0095 28.14C75.2818 26.8796 73.6703 26.4478 72.4099 27.1754L70.5861 28.2284L66.7006 16.5719C65.2659 12.2677 61.2379 9.3645 56.7008 9.3645H23.2992Z" fill="url(#paint0_linear_479_115)"/>
<path d="M25.5066 48.8917C25.5066 50.3471 24.3269 51.5269 22.8715 51.5269H17.6012C16.1458 51.5269 14.966 50.3471 14.966 48.8917C14.966 47.4364 16.1458 46.2566 17.6012 46.2566H22.8715C24.3269 46.2566 25.5066 47.4364 25.5066 48.8917Z" fill="url(#paint1_linear_479_115)"/>
<path fill-rule="evenodd" clip-rule="evenodd" d="M73.925 50.2095C73.676 49.2424 73.2932 48.3289 72.7977 47.4901L74.8964 45.3914C75.9255 44.3622 75.9255 42.6937 74.8964 41.6646C73.8673 40.6356 72.1988 40.6356 71.1697 41.6646L69.0709 43.7634C68.2321 43.2678 67.3187 42.8851 66.3516 42.636V39.6688C66.3516 38.2135 65.1718 37.0337 63.7164 37.0337C62.261 37.0337 61.0812 38.2135 61.0812 39.6688V42.636C60.1141 42.8851 59.2007 43.2678 58.3619 43.7634L56.263 41.6646C55.234 40.6354 53.5654 40.6354 52.5364 41.6646C51.5072 42.6936 51.5072 44.3622 52.5364 45.3912L54.6351 47.4901C54.1396 48.3289 53.7568 49.2424 53.5078 50.2095H50.5406C49.0852 50.2095 47.9055 51.3892 47.9055 52.8446C47.9055 54.3 49.0852 55.4798 50.5406 55.4798H53.5078C53.7568 56.4469 54.1396 57.3604 54.6351 58.1991L52.5364 60.298C51.5072 61.3271 51.5072 62.9956 52.5364 64.0247C53.5654 65.0538 55.234 65.0538 56.263 64.0247L58.3619 61.9259C59.2007 62.4214 60.1141 62.8042 61.0812 63.0532V66.0204C61.0812 67.4758 62.261 68.6556 63.7164 68.6556C65.1718 68.6556 66.3516 67.4758 66.3516 66.0204V63.0532C67.3187 62.8042 68.2321 62.4214 69.0709 61.9259L71.1697 64.0247C72.1988 65.0537 73.8673 65.0537 74.8964 64.0247C75.9255 62.9955 75.9255 61.3271 74.8964 60.2979L72.7977 58.1991C73.2932 57.3604 73.676 56.4469 73.925 55.4798H76.8922C78.3476 55.4798 79.5273 54.3 79.5273 52.8446C79.5273 51.3892 78.3476 50.2095 76.8922 50.2095H73.925ZM58.4461 52.8446C58.4461 55.7553 60.8057 58.1149 63.7164 58.1149C65.1673 58.1149 66.4813 57.5286 67.4343 56.58L67.443 56.5713L67.4517 56.5626C68.4004 55.6096 68.9867 54.2955 68.9867 52.8446C68.9867 51.3937 68.4004 50.0798 67.4519 49.1268L67.443 49.118L67.4342 49.1092C66.4812 48.1606 65.1673 47.5743 63.7164 47.5743C60.8057 47.5743 58.4461 49.934 58.4461 52.8446Z" fill="url(#paint2_linear_479_115)"/>
</g>
<defs>
<linearGradient id="paint0_linear_479_115" x1="0.472863" y1="41.1387" x2="76.3647" y2="41.1387" gradientUnits="userSpaceOnUse">
<stop stop-color="#1685FF"/>
<stop offset="0.5" stop-color="#8B5CF6"/>
<stop offset="1" stop-color="#D946EF"/>
</linearGradient>
<linearGradient id="paint1_linear_479_115" x1="14.966" y1="48.9044" x2="25.5069" y2="48.9044" gradientUnits="userSpaceOnUse">
<stop stop-color="#1685FF"/>
<stop offset="0.5" stop-color="#8B5CF6"/>
<stop offset="1" stop-color="#D946EF"/>
</linearGradient>
<linearGradient id="paint2_linear_479_115" x1="47.9055" y1="52.9208" x2="79.528" y2="52.9208" gradientUnits="userSpaceOnUse">
<stop stop-color="#1685FF"/>
<stop offset="0.5" stop-color="#8B5CF6"/>
<stop offset="1" stop-color="#D946EF"/>
</linearGradient>
<clipPath id="clip0_479_115">
<rect width="80" height="80" fill="white" transform="translate(0 0.986328)"/>
</clipPath>
</defs>
</svg>
