<svg width="50" height="50" viewBox="0 0 50 50" fill="none" xmlns="http://www.w3.org/2000/svg">
<path d="M47.1574 13.2982C47.1899 10.5854 46.3696 7.93096 44.8122 5.70954C43.2549 3.48813 41.0391 1.81195 38.4778 0.917641C35.9165 0.0233316 33.139 -0.0439374 30.5374 0.725331C27.9359 1.4946 25.6416 3.06155 23.9785 5.20497C23.1054 4.78208 22.1484 4.56081 21.1783 4.55751C20.336 4.55744 19.5022 4.72462 18.7251 5.04936C17.948 5.37409 17.2431 5.8499 16.6513 6.4492C16.0596 7.04849 15.5927 7.75934 15.2778 8.54048C14.9629 9.32163 14.8063 10.1575 14.817 10.9997C14.817 11.1616 14.817 11.3396 14.817 11.5015C12.2665 12.2711 10.0323 13.8427 8.44599 15.983C6.8597 18.1234 6.00599 20.7182 6.01162 23.3823V29.8568C6.00488 33.0025 5.04554 36.0724 3.25994 38.6622C3.01647 39.01 2.87336 39.4181 2.84627 39.8419C2.81918 40.2656 2.90916 40.6886 3.10635 41.0646C3.30354 41.4406 3.60036 41.7551 3.96432 41.9737C4.32828 42.1924 4.74536 42.3067 5.16993 42.3041H12.3729C12.7097 44.397 13.7809 46.3014 15.3945 47.6761C17.0081 49.0507 19.0585 49.8057 21.1783 49.8057C23.298 49.8057 25.3485 49.0507 26.962 47.6761C28.5756 46.3014 29.6468 44.397 29.9836 42.3041H37.2513C37.6759 42.3067 38.093 42.1924 38.4569 41.9737C38.8209 41.7551 39.1177 41.4406 39.3149 41.0646C39.5121 40.6886 39.6021 40.2656 39.575 39.8419C39.5479 39.4181 39.4048 39.01 39.1613 38.6622C37.3757 36.0724 36.4164 33.0025 36.4096 29.8568V26.1178C39.4278 25.5971 42.1638 24.0235 44.1315 21.6765C46.0992 19.3294 47.1713 16.3609 47.1574 13.2982ZM34.2083 3.44065C36.1604 3.44705 38.0668 4.03198 39.6866 5.12152C41.3065 6.21105 42.5669 7.7563 43.3088 9.56197C44.0507 11.3677 44.2407 13.3527 43.8547 15.2663C43.4688 17.1799 42.5242 18.9362 41.1405 20.3132C39.7567 21.6902 37.9958 22.626 36.0804 23.0026C34.1649 23.3791 32.1808 23.1794 30.3788 22.4286C28.5767 21.6779 27.0377 20.4098 25.9562 18.7847C24.8746 17.1596 24.299 15.2503 24.3022 13.2982C24.3151 10.6907 25.3587 8.1942 27.2055 6.35347C29.0523 4.51275 31.5523 3.47727 34.1597 3.47302L34.2083 3.44065ZM21.2592 7.71386C21.658 7.72044 22.0524 7.79714 22.4246 7.94046C21.9889 8.90717 21.6736 9.92373 21.4858 10.9673H17.941C17.9453 10.1115 18.2882 9.29228 18.8949 8.68867C19.5015 8.08506 20.3225 7.74622 21.1783 7.74623L21.2592 7.71386ZM21.2592 46.723C19.9543 46.7402 18.6818 46.3165 17.6477 45.5204C16.6137 44.7243 15.8786 43.6024 15.5616 42.3365H26.8921C26.5754 43.6083 25.8392 44.7363 24.8024 45.5381C23.7656 46.3399 22.4888 46.7687 21.1783 46.7554L21.2592 46.723ZM21.2592 39.1964H6.69145C8.34171 36.361 9.20765 33.1375 9.20034 29.8568V23.3823C9.20421 20.9487 10.1627 18.6139 11.8698 16.8795C13.5769 15.1452 15.8963 14.1499 18.3295 14.1075H21.2268C21.417 17.254 22.7485 20.2231 24.9715 22.458C27.1945 24.6929 30.1564 26.0402 33.3019 26.2473V29.8568C33.2946 33.1375 34.1605 36.361 35.8107 39.1964H21.2592Z" fill="url(#paint0_linear_412_80)"/>
<path d="M34.0777 4.94824C33.5 4.94824 32.9458 5.1777 32.5373 5.58622C32.1288 5.99474 31.8993 6.54893 31.8993 7.12664V14.388C31.8993 14.9657 32.1288 15.5198 32.5373 15.9284C32.9458 16.3369 33.5 16.5663 34.0777 16.5663C34.6554 16.5663 35.2096 16.3369 35.6181 15.9284C36.0266 15.5198 36.2561 14.9657 36.2561 14.388V7.12664C36.2561 6.54893 36.0266 5.99474 35.6181 5.58622C35.2096 5.1777 34.6554 4.94824 34.0777 4.94824ZM34.8038 14.388C34.8038 14.5805 34.7273 14.7652 34.5912 14.9015C34.455 15.0375 34.2703 15.1141 34.0777 15.1141C33.8851 15.1141 33.7004 15.0375 33.5642 14.9015C33.4281 14.7652 33.3516 14.5805 33.3516 14.388V7.12664C33.3516 6.93407 33.4281 6.74934 33.5642 6.61312C33.7004 6.47704 33.8851 6.40051 34.0777 6.40051C34.2703 6.40051 34.455 6.47704 34.5912 6.61312C34.7273 6.74934 34.8038 6.93407 34.8038 7.12664V14.388Z" fill="url(#paint1_linear_412_80)"/>
<path d="M34.0777 18.0186C33.6468 18.0186 33.2257 18.1464 32.8674 18.3857C32.5093 18.625 32.23 18.9653 32.0652 19.3633C31.9003 19.7614 31.8571 20.1994 31.9411 20.6219C32.0252 21.0445 32.2328 21.4327 32.5373 21.7374C32.842 22.0419 33.2302 22.2494 33.6528 22.3335C34.0752 22.4176 34.5132 22.3743 34.9113 22.2095C35.3094 22.0447 35.6496 21.7654 35.889 21.4073C36.1283 21.049 36.2561 20.6278 36.2561 20.1969C36.2561 19.6192 36.0266 19.0651 35.6181 18.6565C35.2096 18.248 34.6554 18.0186 34.0777 18.0186ZM34.0777 20.9231C33.9341 20.9231 33.7936 20.8805 33.6743 20.8007C33.5549 20.7209 33.4618 20.6075 33.4069 20.4748C33.3519 20.3422 33.3375 20.1961 33.3655 20.0554C33.3935 19.9145 33.4627 19.7851 33.5642 19.6834C33.6658 19.5819 33.7952 19.5128 33.9361 19.4848C34.0768 19.4567 34.2229 19.4711 34.3555 19.5262C34.4883 19.581 34.6017 19.6741 34.6814 19.7935C34.7613 19.9129 34.8038 20.0533 34.8038 20.1969C34.8038 20.3895 34.7273 20.5742 34.5912 20.7105C34.455 20.8465 34.2703 20.9231 34.0777 20.9231Z" fill="url(#paint2_linear_412_80)"/>
<defs>
<linearGradient id="paint0_linear_412_80" x1="2.84155" y1="25.1195" x2="47.1598" y2="25.1195" gradientUnits="userSpaceOnUse">
<stop stop-color="#1685FF"/>
<stop offset="0.5" stop-color="#8B5CF6"/>
<stop offset="1" stop-color="#D946EF"/>
</linearGradient>
<linearGradient id="paint1_linear_412_80" x1="31.8993" y1="10.7853" x2="36.2562" y2="10.7853" gradientUnits="userSpaceOnUse">
<stop stop-color="#1685FF"/>
<stop offset="0.5" stop-color="#8B5CF6"/>
<stop offset="1" stop-color="#D946EF"/>
</linearGradient>
<linearGradient id="paint2_linear_412_80" x1="31.8993" y1="20.2074" x2="36.2562" y2="20.2074" gradientUnits="userSpaceOnUse">
<stop stop-color="#1685FF"/>
<stop offset="0.5" stop-color="#8B5CF6"/>
<stop offset="1" stop-color="#D946EF"/>
</linearGradient>
</defs>
</svg>
