<?xml version="1.0" encoding="UTF-8" standalone="no"?><!DOCTYPE svg PUBLIC "-//W3C//DTD SVG 1.1//EN" "http://www.w3.org/Graphics/SVG/1.1/DTD/svg11.dtd"><svg width="100%" height="100%" viewBox="0 0 200 200" version="1.1" xmlns="http://www.w3.org/2000/svg" xmlns:xlink="http://www.w3.org/1999/xlink" xml:space="preserve" xmlns:serif="http://www.serif.com/" style="fill-rule:evenodd;clip-rule:evenodd;stroke-linejoin:round;stroke-miterlimit:2;"><g id="Layer4"><path d="M66.55,120.533c0.679,1.132 0.329,2.592 -0.802,3.292c-0.391,0.226 -0.823,0.35 -1.234,0.35c-0.803,0 -1.605,-0.412 -2.058,-1.152c-3.929,-6.501 -10.8,-10.389 -18.391,-10.389c-7.591,0 -14.462,3.888 -18.392,10.389c-0.679,1.131 -2.16,1.501 -3.291,0.802c-1.132,-0.679 -1.502,-2.16 -0.803,-3.292c4.794,-7.941 13.208,-12.693 22.486,-12.693c9.278,0 17.671,4.732 22.485,12.693Zm-22.485,-3.415c-6.007,0 -11.438,3.066 -14.545,8.209c-0.679,1.131 -0.329,2.592 0.803,3.291c1.131,0.679 2.592,0.329 3.291,-0.802c2.222,-3.703 6.131,-5.904 10.451,-5.904c4.32,0 8.208,2.201 10.45,5.904c0.453,0.74 1.235,1.152 2.058,1.152c0.411,0 0.843,-0.103 1.234,-0.35c1.131,-0.679 1.502,-2.16 0.802,-3.291c-3.127,-5.143 -8.558,-8.209 -14.544,-8.209Zm0,9.278c-2.675,0 -5.205,1.42 -6.583,3.724c-0.679,1.131 -0.329,2.592 0.802,3.291c0.391,0.227 0.823,0.35 1.234,0.35c0.803,0 1.605,-0.411 2.058,-1.152c0.534,-0.884 1.46,-1.419 2.489,-1.419c1.028,0 1.954,0.535 2.489,1.419c0.679,1.132 2.16,1.502 3.292,0.802c1.131,-0.678 1.501,-2.16 0.802,-3.291c-1.399,-2.304 -3.909,-3.724 -6.583,-3.724Zm151.637,-88.049l0,96.546c0,3.662 -2.983,6.624 -6.624,6.624l-52.562,0l0,9.587l7.159,3.723c0.206,0.103 0.432,0.226 0.659,0.329c2.18,1.091 5.163,2.613 5.163,6.316c0,3.806 -3.106,6.912 -6.912,6.912l-47.769,0c-3.806,0 -6.912,-3.106 -6.912,-6.912c0,-3.703 2.983,-5.205 5.164,-6.316c0.205,-0.103 0.432,-0.226 0.658,-0.329l7.139,-3.723l0,-9.587l-40.384,0l0,14.051l4.279,0c1.05,-3.312 4.156,-5.719 7.818,-5.719c4.526,0 8.188,3.682 8.188,8.187c0,4.526 -3.683,8.188 -8.188,8.188c-3.724,0 -6.851,-2.489 -7.859,-5.884l-6.624,0c-1.317,0 -2.386,-1.069 -2.386,-2.386l0,-16.437l-9.361,0l0,8.681c3.354,1.029 5.802,4.156 5.802,7.838c0,4.526 -3.683,8.188 -8.188,8.188c-4.526,0 -8.188,-3.682 -8.188,-8.188c0,-3.682 2.448,-6.809 5.802,-7.838l0,-8.681l-9.361,0l0,16.437c0,1.317 -1.07,2.386 -2.386,2.386l-6.624,0c-1.008,3.395 -4.135,5.884 -7.859,5.884c-4.526,0 -8.188,-3.682 -8.188,-8.188c0,-4.526 3.683,-8.187 8.188,-8.187c3.662,0 6.748,2.407 7.817,5.719l4.28,0l0,-14.051l-7.838,0c-8.764,0 -15.903,-7.139 -15.903,-15.902c0,-6.419 3.909,-12.179 9.71,-14.648c0,-0.185 -0.02,-0.349 -0.02,-0.535c0,-5.986 4.875,-10.841 10.841,-10.841c0.185,0 0.391,0 0.576,0.02c3.312,-6.932 9.566,-12.055 16.869,-14.03l0,-47.234c0,-3.661 2.983,-6.624 6.625,-6.624l140.775,0c3.662,-0.02 6.624,2.963 6.624,6.624Zm-176.941,119.689c0,-1.872 -1.522,-3.415 -3.415,-3.415c-1.872,0 -3.415,1.523 -3.415,3.415c0,1.893 1.522,3.415 3.415,3.415c1.872,0 3.415,-1.522 3.415,-3.415Zm25.201,-3.394c-1.872,0 -3.415,1.522 -3.415,3.415c0,1.893 1.522,3.415 3.415,3.415c1.872,0 3.415,-1.522 3.415,-3.415c0,-1.893 -1.543,-3.415 -3.415,-3.415Zm25.201,3.394c0,1.872 1.522,3.415 3.415,3.415c1.872,0 3.415,-1.522 3.415,-3.415c0,-1.892 -1.523,-3.415 -3.415,-3.415c-1.893,0.021 -3.415,1.543 -3.415,3.415Zm-22.712,-73.298c0.658,-0.041 1.317,-0.083 1.996,-0.083c14.421,0 26.147,11.727 26.147,26.148l0,0.205c2.901,1.255 5.308,3.333 7.015,5.905l109.32,0l0,-78.586c0,-1.029 -0.822,-1.852 -1.851,-1.852l-140.775,0c-1.029,0 -1.852,0.823 -1.852,1.852l0,46.411Zm-26.867,52.006l48.756,0c6.13,0 11.13,-4.978 11.13,-11.129c0,-4.897 -3.292,-9.278 -7.982,-10.677c-1.091,-0.329 -1.79,-1.358 -1.708,-2.469c0.041,-0.555 0.062,-1.111 0.062,-1.666c0,-11.788 -9.587,-21.375 -21.375,-21.375c-8.763,0 -16.766,5.493 -19.934,13.66c-0.432,1.132 -1.646,1.749 -2.798,1.461c-0.473,-0.124 -0.967,-0.185 -1.461,-0.185c-3.353,0 -6.068,2.715 -6.068,6.068c0,0.515 0.061,1.05 0.205,1.543c0.329,1.276 -0.411,2.572 -1.687,2.901c-4.896,1.337 -8.27,5.74 -8.27,10.739c0,6.13 4.999,11.129 11.13,11.129Zm112.159,15.82l0,-11.027l-26.106,0l0,11.027c0,0.885 -0.493,1.708 -1.296,2.119l-8.434,4.382c-0.227,0.123 -0.473,0.247 -0.7,0.35c-2.057,1.049 -2.53,1.419 -2.53,2.036c0,1.173 0.946,2.14 2.139,2.14l47.748,0c1.173,0 2.14,-0.946 2.14,-2.14c0,-0.617 -0.473,-1.008 -2.531,-2.036c-0.226,-0.124 -0.473,-0.227 -0.699,-0.35l-8.435,-4.382c-0.802,-0.411 -1.296,-1.234 -1.296,-2.119Zm59.186,-17.671l0,-13.187l-107.201,0c0.329,1.255 0.494,2.571 0.494,3.929c0,4.32 -1.728,8.25 -4.547,11.13l109.403,0c1.008,-0.021 1.851,-0.844 1.851,-1.872Zm-91.649,-38.655c0.474,0.473 1.07,0.699 1.687,0.699c0.618,0 1.214,-0.226 1.687,-0.699c0.926,-0.926 0.947,-2.449 0,-3.374l-16.108,-16.149l16.108,-16.15c0.926,-0.925 0.926,-2.448 0,-3.373c-0.925,-0.926 -2.448,-0.926 -3.374,0l-17.794,17.836c-0.926,0.925 -0.926,2.448 0,3.373l17.794,17.837Zm35.426,0c0.473,0.473 1.07,0.699 1.687,0.699c0.617,0 1.234,-0.226 1.687,-0.699l17.795,-17.837c0.925,-0.925 0.925,-2.448 0,-3.373l-17.795,-17.836c-0.926,-0.926 -2.448,-0.947 -3.374,0c-0.926,0.925 -0.947,2.448 0,3.373l16.108,16.15l-16.108,16.149c-0.926,0.925 -0.926,2.448 0,3.374Zm-22.444,4.957c0.205,0.062 0.411,0.083 0.617,0.083c1.069,0 2.036,-0.72 2.304,-1.79l11.623,-44.374c0.329,-1.276 -0.432,-2.592 -1.707,-2.921c-1.276,-0.33 -2.593,0.432 -2.922,1.707l-11.623,44.374c-0.329,1.296 0.432,2.592 1.708,2.921Zm11.129,25.633l-9.401,0c-1.317,0 -2.387,1.07 -2.387,2.387c0,1.316 1.07,2.386 2.387,2.386l9.401,0c1.317,0 2.386,-1.07 2.386,-2.386c0,-1.317 -1.069,-2.387 -2.386,-2.387Z" style="fill:url(#_Linear1);fill-rule:nonzero;"/></g><defs><linearGradient id="_Linear1" x1="0" y1="0" x2="1" y2="0" gradientUnits="userSpaceOnUse" gradientTransform="matrix(145.265,146.099,-146.099,145.265,28.8157,25.0364)"><stop offset="0" style="stop-color:#4d7aff;stop-opacity:1"/><stop offset="1" style="stop-color:#d748f0;stop-opacity:1"/></linearGradient></defs></svg>