<svg width="50" height="50" viewBox="0 0 50 50" fill="none" xmlns="http://www.w3.org/2000/svg">
<g clip-path="url(#clip0_415_160)">
<path d="M46.7806 35.5389C45.6318 35.5389 44.6669 36.3467 44.4276 37.4246H39.6836L39.6625 32.357H44.7301C45.0193 32.357 45.2547 32.1234 45.2547 31.8324V27.1973C45.2547 26.9371 45.0632 26.7169 44.8068 26.6787L40.48 26.0487C40.166 24.9996 39.7448 23.9849 39.2279 23.0199L41.8431 19.5068C41.9981 19.2982 41.9771 19.0073 41.7933 18.8235L36.7545 13.7767C36.5708 13.5929 36.2798 13.5719 36.071 13.7269L32.5656 16.346C31.6028 15.8271 30.5899 15.406 29.5445 15.092L28.9147 10.7557C28.8763 10.4991 28.6563 10.3076 28.3959 10.3076H21.2701C21.0097 10.3076 20.7896 10.4991 20.7512 10.7557L20.1215 15.092C19.0761 15.4079 18.0614 15.8271 17.1003 16.346L13.5949 13.7269C13.3862 13.5699 13.0952 13.591 12.9114 13.7767L7.87268 18.8254C7.68889 19.0092 7.66782 19.3002 7.82285 19.5088L10.438 23.0218C9.91918 23.9869 9.49998 25.0015 9.18599 26.0507L4.85921 26.6806C4.60272 26.7188 4.41125 26.9391 4.41125 27.1993V31.8344C4.41125 32.1234 4.64487 32.3589 4.93582 32.3589H10.3367L10.3157 37.4266L5.57165 37.4228C5.33232 36.3449 4.36747 35.5371 3.21867 35.5371C1.89 35.5389 0.80835 36.6187 0.80835 37.9474C0.80835 39.2761 1.89 40.3558 3.21867 40.3558C4.36747 40.3558 5.33232 39.5479 5.57165 38.47H10.8383C11.1274 38.47 11.3611 38.2364 11.3629 37.9494L11.3859 32.3552H17.1085L17.0854 43.7061H13.5992C13.3599 42.6282 12.395 41.8204 11.2462 41.8204C9.91755 41.8204 8.83589 42.9001 8.83589 44.2287C8.83589 45.5574 9.91755 46.6372 11.2462 46.6372C12.395 46.6372 13.3599 45.8294 13.5992 44.7515H17.6081C17.8972 44.7515 18.1307 44.5179 18.1326 44.2287L18.1557 32.3514L24.4755 32.3553V44.7458C23.3978 44.9851 22.5878 45.948 22.5878 47.0968C22.5898 48.4255 23.6714 49.5052 25.0001 49.5052C26.3288 49.5052 27.4106 48.4255 27.4106 47.0968C27.4106 45.948 26.6008 44.9851 25.5229 44.7458L25.5247 32.3553H31.8462L31.8692 44.2326C31.8692 44.5216 32.1046 44.7553 32.3936 44.7553H36.4027C36.642 45.8331 37.6068 46.641 38.7556 46.641C40.0841 46.641 41.166 45.5613 41.166 44.2326C41.166 42.904 40.0843 41.8241 38.7556 41.8241C37.6068 41.8241 36.642 42.6321 36.4027 43.71H32.9164L32.8934 32.3589H38.616L38.6388 37.9531C38.6408 38.2423 38.8744 38.4739 39.1634 38.4739H44.4282C44.6676 39.5517 45.6324 40.3597 46.7811 40.3597C48.1097 40.3597 49.1915 39.2798 49.1915 37.9512C49.1915 36.6187 48.1094 35.5389 46.7806 35.5389ZM22.1583 31.3078C22.3805 29.9295 23.4947 28.8784 24.833 28.8784C26.1711 28.8784 27.2855 29.9295 27.5075 31.3078H22.1583ZM35.3493 31.3078H28.5641C28.4168 30.0883 27.7466 29.0392 26.8009 28.4208L29.2725 24.2664C29.4198 24.0174 29.3395 23.6959 29.0907 23.5484C28.8417 23.401 28.52 23.4814 28.3727 23.7304L25.8455 27.9786C25.524 27.8828 25.1832 27.8312 24.8328 27.8312C22.9203 27.8312 21.3369 29.3494 21.1015 31.308H14.3164V30.7661C14.3164 28.0552 15.3444 25.5797 17.0312 23.7109L18.0764 24.7563C18.287 24.9669 18.6412 24.9555 18.8384 24.7352C19.0204 24.5304 19.0107 24.2107 18.8175 24.0172L17.7701 22.9683C19.5182 21.3792 21.8002 20.3683 24.3102 20.2438V21.7371C24.3102 22.0263 24.5438 22.2617 24.8348 22.2617C25.1238 22.2617 25.3594 22.0282 25.3594 21.7371V20.2438C27.8692 20.3683 30.1512 21.3772 31.8994 22.9683L30.8521 24.0172C30.6588 24.2107 30.6492 24.5304 30.831 24.7352C31.0282 24.9573 31.3824 24.9669 31.5931 24.7563L32.6383 23.7109C34.3249 25.5795 35.3532 28.055 35.3532 30.7676C35.3493 30.7733 35.3493 30.8234 35.3493 31.3078ZM36.3964 31.3078V30.7661C36.3964 24.5554 31.4894 19.4706 25.3558 19.1971V17.4453H26.1157C26.4049 17.4453 26.6403 17.2117 26.6403 16.9207C26.6403 16.6316 26.4069 16.3962 26.1157 16.3962L23.5484 16.3981C23.2594 16.3981 23.0239 16.6316 23.0239 16.9225C23.0239 17.2117 23.2575 17.4471 23.5484 17.4471H24.3086V19.1989C18.1743 19.4746 13.2679 24.5578 13.2679 30.7718V31.3118L5.45844 31.308V27.6494L9.67217 27.0348C9.87703 27.0042 10.0456 26.8567 10.101 26.6558C10.4323 25.463 10.909 24.3105 11.5177 23.2326C11.6192 23.0527 11.6058 22.8287 11.4815 22.6621L8.93506 19.2428L13.3327 14.8376L16.7463 17.3876C16.9128 17.5121 17.1367 17.5255 17.3187 17.4241C18.3947 16.8132 19.5433 16.3365 20.7343 16.0054C20.9332 15.9498 21.0826 15.7814 21.1113 15.5765L21.7239 11.3551H27.9425L28.5551 15.5765C28.5857 15.7814 28.7332 15.9498 28.9324 16.0054C30.1231 16.3365 31.2718 16.8132 32.3477 17.4241C32.5297 17.5275 32.7537 17.5121 32.9202 17.3876L36.3337 14.8376L40.7314 19.2428L38.185 22.6621C38.0607 22.8287 38.0473 23.0527 38.1487 23.2326C38.7574 24.3105 39.2341 25.4611 39.5654 26.6558C39.621 26.8549 39.7894 27.0042 39.9943 27.0348L44.208 27.6494V31.308L36.3964 31.3078Z" fill="url(#paint0_linear_415_160)"/>
<path d="M23.8054 3.03043L24.3108 2.43692L24.3089 8.234C24.3089 8.523 24.5425 8.75858 24.8334 8.75858C25.1226 8.75858 25.358 8.52496 25.358 8.234L25.356 2.43692L25.8615 3.03043C26.0606 3.26584 26.432 3.27352 26.6426 3.04954C26.8226 2.85808 26.8303 2.55176 26.6599 2.35262L25.2317 0.675489C25.0269 0.434342 24.64 0.434342 24.4351 0.675489L23.007 2.35082C22.8194 2.57088 22.8462 2.90219 23.0663 3.08973C23.2865 3.27548 23.6178 3.25065 23.8054 3.03043Z" fill="url(#paint1_linear_415_160)"/>
<path d="M35.3382 5.54469L35.8437 4.95118V11.3759C35.8437 11.6651 36.0771 11.9005 36.3682 11.9005C36.6572 11.9005 36.8928 11.667 36.8928 11.3759L36.8909 4.95118L37.3962 5.54469C37.5953 5.7801 37.9668 5.78778 38.1774 5.56381C38.3574 5.37234 38.3649 5.06603 38.1945 4.86688L36.7664 3.19171C36.5615 2.95042 36.1748 2.95042 35.97 3.19171L34.5416 4.86688C34.3541 5.0871 34.3809 5.41825 34.6011 5.60579C34.8194 5.78958 35.1507 5.76475 35.3382 5.54469Z" fill="url(#paint2_linear_415_160)"/>
<path d="M44.7733 13.9215L45.2787 13.328V23.314C45.2787 23.6032 45.5122 23.8386 45.8033 23.8386C46.0923 23.8386 46.3277 23.605 46.3277 23.314L46.3259 13.328L46.8312 13.9215C47.0304 14.1569 47.4019 14.1646 47.6124 13.9406C47.7923 13.7492 47.8 13.4429 47.6296 13.2437L46.2014 11.5685C45.9966 11.3274 45.6099 11.3274 45.405 11.5685L43.9767 13.2437C43.7891 13.4639 43.8159 13.7951 44.0362 13.9828C44.2544 14.1685 44.5857 14.1417 44.7733 13.9215Z" fill="url(#paint3_linear_415_160)"/>
<path d="M12.2688 5.54469L12.7743 4.95118V11.3759C12.7743 11.6651 13.0078 11.9005 13.2989 11.9005C13.5879 11.9005 13.8235 11.667 13.8235 11.3759L13.8215 4.95118L14.327 5.54469C14.5259 5.7801 14.8974 5.78778 15.108 5.56381C15.288 5.37234 15.2956 5.06603 15.1253 4.86688L13.697 3.19171C13.4921 2.95042 13.1055 2.95042 12.9006 3.19171L11.4724 4.86688C11.2847 5.0871 11.3115 5.41825 11.5317 5.60579C11.752 5.78958 12.0813 5.76475 12.2688 5.54469Z" fill="url(#paint4_linear_415_160)"/>
<path d="M2.83379 13.9215L3.33925 13.328V23.314C3.33925 23.6032 3.57287 23.8386 3.86382 23.8386C4.15282 23.8386 4.38839 23.605 4.38839 23.314L4.38643 13.328L4.89189 13.9215C5.09087 14.1569 5.46237 14.1646 5.67295 13.9406C5.85298 13.7492 5.86066 13.4429 5.69027 13.2437L4.26195 11.5685C4.05709 11.3274 3.6704 11.3274 3.46553 11.5685L2.03738 13.2437C1.84967 13.4639 1.87646 13.7951 2.09668 13.9828C2.3169 14.1685 2.64625 14.1417 2.83379 13.9215Z" fill="url(#paint5_linear_415_160)"/>
</g>
<defs>
<linearGradient id="paint0_linear_415_160" x1="0.808513" y1="30.0009" x2="49.1925" y2="30.0009" gradientUnits="userSpaceOnUse">
<stop stop-color="#1685FF"/>
<stop offset="0.5" stop-color="#8B5CF6"/>
<stop offset="1" stop-color="#D946EF"/>
</linearGradient>
<linearGradient id="paint1_linear_415_160" x1="22.882" y1="4.64646" x2="26.7829" y2="4.64646" gradientUnits="userSpaceOnUse">
<stop stop-color="#1685FF"/>
<stop offset="0.5" stop-color="#8B5CF6"/>
<stop offset="1" stop-color="#D946EF"/>
</linearGradient>
<linearGradient id="paint2_linear_415_160" x1="34.4168" y1="7.477" x2="38.3175" y2="7.477" gradientUnits="userSpaceOnUse">
<stop stop-color="#1685FF"/>
<stop offset="0.5" stop-color="#8B5CF6"/>
<stop offset="1" stop-color="#D946EF"/>
</linearGradient>
<linearGradient id="paint3_linear_415_160" x1="43.8519" y1="17.643" x2="47.7526" y2="17.643" gradientUnits="userSpaceOnUse">
<stop stop-color="#1685FF"/>
<stop offset="0.5" stop-color="#8B5CF6"/>
<stop offset="1" stop-color="#D946EF"/>
</linearGradient>
<linearGradient id="paint4_linear_415_160" x1="11.3475" y1="7.477" x2="15.2483" y2="7.477" gradientUnits="userSpaceOnUse">
<stop stop-color="#1685FF"/>
<stop offset="0.5" stop-color="#8B5CF6"/>
<stop offset="1" stop-color="#D946EF"/>
</linearGradient>
<linearGradient id="paint5_linear_415_160" x1="1.9124" y1="17.643" x2="5.81328" y2="17.643" gradientUnits="userSpaceOnUse">
<stop stop-color="#1685FF"/>
<stop offset="0.5" stop-color="#8B5CF6"/>
<stop offset="1" stop-color="#D946EF"/>
</linearGradient>
<clipPath id="clip0_415_160">
<rect width="50" height="50" fill="white"/>
</clipPath>
</defs>
</svg>
