<svg width="110" height="110" viewBox="0 0 110 110" fill="none" xmlns="http://www.w3.org/2000/svg">
<path d="M96.5601 26.1934L89.3021 19.7085V4.8616C89.3021 3.65045 88.3143 2.77441 87.2149 2.77441H48.7343C47.5232 2.77441 46.6472 3.7622 46.6472 4.8616V11.6773C46.6472 12.8884 47.6349 13.7645 48.7343 13.7645C49.8337 13.7645 50.8215 12.7767 50.8215 11.6773V7.06049H85.0164V18.4925L61.816 18.4968C60.6048 18.4968 59.7288 19.4846 59.7288 20.584C59.7288 21.7951 60.7166 22.6712 61.816 22.6712H86.4413L93.6994 29.2678C97.6591 32.7852 99.858 37.8444 99.858 43.0109V96.2218C99.858 99.8508 96.8904 102.818 93.2614 102.818L72.4797 102.823C71.2685 102.823 70.3925 103.811 70.3925 104.91C70.3925 106.121 71.3803 106.997 72.4797 106.997H93.257C99.3039 106.997 104.14 102.161 104.14 96.1144L104.144 43.1223C104.144 36.6373 101.396 30.4791 96.5601 26.1934Z" fill="url(#paint0_linear_359_1323)"/>
<path d="M91.063 75.999C92.2742 75.999 93.1502 75.0112 93.1502 73.9118V43.1274C93.1502 39.7173 91.72 36.5307 89.1904 34.3318L84.3546 30.0458C83.4742 29.277 82.1558 29.3844 81.387 30.1574C80.6183 31.0378 80.6183 32.3563 81.606 33.125L86.4418 37.4111C88.091 38.8413 88.9714 40.9285 88.9714 43.02V73.8045C88.9714 75.1186 89.9636 75.999 91.063 75.999Z" fill="url(#paint1_linear_359_1323)"/>
<path d="M54.0128 62.6938H44.5558V53.2368C44.5558 52.0257 43.568 51.1497 42.4686 51.1497H30.9245C29.7133 51.1497 28.8373 52.1374 28.8373 53.2368L28.833 62.6938H19.376C18.1649 62.6938 17.2888 63.6816 17.2888 64.781V76.3252C17.2888 77.5363 18.2766 78.4123 19.376 78.4123H28.833V87.9809C28.833 89.1921 29.8208 90.0681 30.9202 90.0681H42.4643C43.6755 90.0681 44.5515 89.0803 44.5515 87.9809V78.5239H54.0085C55.2196 78.5239 56.0957 77.5362 56.0957 76.4368L56.1 64.8926C56.1 63.6814 55.2195 62.6938 54.0128 62.6938ZM51.8139 74.238H42.3569C41.1458 74.238 40.2697 75.2258 40.2697 76.3252V85.7821H33.0116V76.3252C33.0116 75.114 32.0239 74.238 30.9245 74.238H21.4675V66.9799H30.9245C32.1356 66.9799 33.0116 65.9921 33.0116 64.8927V55.4357H40.2697V64.8927C40.2697 66.1039 41.2575 66.9799 42.3569 66.9799H51.8139V74.238Z" fill="url(#paint2_linear_359_1323)"/>
<path d="M61.0471 38.3939L55.0001 33.0084V20.6957C55.0001 19.4846 54.0123 18.6085 52.9129 18.6085L20.4793 18.6042C19.2682 18.6042 18.3922 19.592 18.3922 20.6914L18.3879 33.0085L12.4526 38.394C8.16226 42.0231 5.85596 47.3013 5.85596 52.91V97.7684C5.85596 103.047 10.142 107.225 15.3129 107.225H57.9725C63.2507 107.225 67.4294 102.939 67.4294 97.7684L67.4251 52.91C67.5325 47.301 65.1141 42.0228 61.0471 38.3939ZM22.5665 22.7829H50.7145V31.7975H22.5665V22.7829ZM63.2459 97.7639C63.2459 100.624 60.9354 102.93 58.0794 102.93L15.3089 102.935C12.4486 102.935 10.1424 100.624 10.1424 97.7682V52.9098C10.1424 48.6237 12.0105 44.4449 15.2016 41.5844L21.2485 36.1989H52.0329L58.0799 41.5844C61.2665 44.4447 63.1391 48.6191 63.1391 52.9098L63.1348 97.7638L63.2459 97.7639Z" fill="url(#paint3_linear_359_1323)"/>
<defs>
<linearGradient id="paint0_linear_359_1323" x1="46.6473" y1="55.1368" x2="104.145" y2="55.1368" gradientUnits="userSpaceOnUse">
<stop stop-color="#1685FF"/>
<stop offset="0.5" stop-color="#8B5CF6"/>
<stop offset="1" stop-color="#D946EF"/>
</linearGradient>
<linearGradient id="paint1_linear_359_1323" x1="80.8353" y1="52.8717" x2="93.1505" y2="52.8717" gradientUnits="userSpaceOnUse">
<stop stop-color="#1685FF"/>
<stop offset="0.5" stop-color="#8B5CF6"/>
<stop offset="1" stop-color="#D946EF"/>
</linearGradient>
<linearGradient id="paint2_linear_359_1323" x1="17.2889" y1="70.7026" x2="56.1008" y2="70.7026" gradientUnits="userSpaceOnUse">
<stop stop-color="#1685FF"/>
<stop offset="0.5" stop-color="#8B5CF6"/>
<stop offset="1" stop-color="#D946EF"/>
</linearGradient>
<linearGradient id="paint3_linear_359_1323" x1="5.85612" y1="63.1283" x2="67.4307" y2="63.1283" gradientUnits="userSpaceOnUse">
<stop stop-color="#1685FF"/>
<stop offset="0.5" stop-color="#8B5CF6"/>
<stop offset="1" stop-color="#D946EF"/>
</linearGradient>
</defs>
</svg>
