<svg width="57" height="58" viewBox="0 0 57 58" fill="none" xmlns="http://www.w3.org/2000/svg">
<path fill-rule="evenodd" clip-rule="evenodd" d="M48.6099 44.3558L48.6199 44.3658L53.1306 48.8373C53.4384 49.1424 53.8451 49.2949 54.2525 49.2949C54.6592 49.2949 55.0659 49.1424 55.3737 48.8373C55.682 48.5323 55.8353 48.1291 55.8353 47.7259C55.8353 47.3227 55.6814 46.9195 55.3737 46.6144L48.5424 39.8419L48.5323 39.8319L48.3173 39.6181L48.101 39.8331L48.0928 39.8413L46.0742 41.8416L48.6099 44.3558ZM16.4915 13.867C16.5917 13.6051 16.7008 13.3494 16.8194 13.1006C16.9518 12.8218 17.0956 12.5499 17.2501 12.2867L17.0269 11.8666L15.9334 9.80749C15.8123 9.5787 15.8615 9.30552 16.0368 9.13237L16.0362 9.13174L17.0205 8.15531L18.0049 7.18013C18.1998 6.98634 18.4974 6.95883 18.7219 7.09699L20.7644 8.16219L21.1876 8.38348C21.6 8.14593 22.03 7.93402 22.4752 7.75086C22.9135 7.57082 23.3675 7.4183 23.8342 7.29515L23.9754 6.84506L24.6716 4.62152C24.7486 4.37397 24.9781 4.21582 25.2259 4.21582L26.6177 4.21645H28.0094C28.2862 4.21645 28.5183 4.40836 28.5763 4.66528L29.2592 6.84694L29.4005 7.29702C29.8671 7.41955 30.3205 7.57207 30.7594 7.75273C31.2046 7.93589 31.6347 8.14781 32.0471 8.38535L32.4703 8.16406L34.5475 7.08073C34.7783 6.96008 35.0532 7.00947 35.2285 7.18263L35.2291 7.182L36.2135 8.15718L37.1979 9.13362C37.3927 9.32678 37.4205 9.62183 37.2811 9.84438L36.2066 11.8685L35.9833 12.2886C36.1378 12.5518 36.2816 12.8231 36.414 13.1025C36.5326 13.3513 36.6417 13.607 36.742 13.8689H48.2397C49.6138 13.8689 50.8624 14.4259 51.7673 15.3223C52.6722 16.2193 53.2341 17.4571 53.2341 18.8192V40.3964C53.2341 40.8258 53.1767 41.2453 53.0695 41.6497C52.9982 41.9173 52.9049 42.1761 52.792 42.4242L56.1972 45.7999C56.7326 46.3306 57 47.0288 57 47.7271C57 48.4247 56.7326 49.123 56.1972 49.6537C55.6625 50.1844 54.9581 50.4495 54.2537 50.4495C53.5494 50.4495 52.845 50.1838 52.3096 49.6537L47.9641 45.346H32.2187L34.3539 49.0905H39.8723C40.5186 49.0905 41.1063 49.3518 41.5314 49.7737C41.957 50.1957 42.2212 50.7777 42.2212 51.419V52.7818C42.2212 53.0462 42.1115 53.2875 41.9343 53.4632L41.9356 53.4644C41.759 53.6388 41.5156 53.7476 41.247 53.7476H11.2985C11.0298 53.7476 10.7864 53.6388 10.6099 53.4644C10.4339 53.29 10.3242 53.0481 10.3242 52.7818V51.419C10.3242 50.7783 10.5878 50.1957 11.0134 49.7737C11.4385 49.3518 12.0262 49.0905 12.6726 49.0905H18.1916L20.3262 45.346H4.99373C3.61965 45.346 2.37106 44.7891 1.46615 43.8926C0.561235 42.995 0 41.7579 0 40.3957V18.8173C0 17.4552 0.561865 16.2174 1.46678 15.3204C2.37169 14.4234 3.62028 13.867 4.99373 13.867H16.4915ZM35.4896 13.867C35.4492 13.7751 35.4076 13.6826 35.3641 13.592C35.2039 13.255 35.0236 12.9275 34.8243 12.6105C34.719 12.4424 34.7045 12.2261 34.8035 12.0385L35.1787 11.3315L36.0723 9.64871L35.3899 8.97234L34.7076 8.29596L33.0101 9.18238L32.317 9.54369C32.1373 9.64621 31.9084 9.64996 31.7198 9.53369C31.2734 9.25802 30.803 9.01735 30.313 8.81543C29.8299 8.61727 29.3286 8.45662 28.8128 8.33784V8.33722C28.6173 8.29283 28.4508 8.14906 28.3878 7.94589L28.15 7.1845L27.5812 5.36979H26.6164H25.6509L25.0828 7.1845L24.8507 7.92652C24.7965 8.1253 24.6363 8.28846 24.4194 8.33784C23.9036 8.45599 23.4022 8.61665 22.9192 8.81606C22.4292 9.01735 21.9588 9.25802 21.5123 9.53369C21.3433 9.63809 21.1245 9.65247 20.9353 9.5537L20.2227 9.18175L18.5245 8.29534L17.8422 8.97171L17.1599 9.64809L18.0535 11.3309L18.418 12.0179C18.5214 12.1961 18.5252 12.423 18.4079 12.6099C18.2086 12.9268 18.0276 13.2544 17.8681 13.5913C17.8246 13.6826 17.7829 13.7745 17.7426 13.8664H20.3444C20.9719 12.8518 21.8421 12.0017 22.8763 11.3947C23.9729 10.7508 25.2518 10.3814 26.6158 10.3814C27.9798 10.3814 29.258 10.7508 30.3546 11.3947C31.3888 12.0017 32.2596 12.8518 32.8865 13.8664H35.4896V13.867ZM28.2251 31.079C28.1822 31.0965 28.1368 31.109 28.0901 31.1159C28.2333 33.1419 29.0858 35.1291 30.6491 36.6782C32.3694 38.3841 34.6238 39.2361 36.8788 39.2361C39.1338 39.2361 41.3882 38.3841 43.1085 36.6782C44.6806 35.1197 45.5344 33.1187 45.67 31.079H40.3584L38.9585 33.7532C38.8936 33.877 38.7838 33.9789 38.6407 34.0302C38.3393 34.1383 38.0069 33.9839 37.8978 33.6851L35.3874 26.8644L35.0929 27.9028L34.3211 30.6214C34.2656 30.8827 34.0323 31.0784 33.7516 31.0784L28.2251 31.079ZM26.9058 30.5658C26.9058 30.5589 26.9058 30.5526 26.9058 30.5464V30.5333V30.5076V30.5026V30.4982C26.9065 27.969 27.8808 25.4411 29.8268 23.5113C31.7741 21.581 34.3268 20.6158 36.8788 20.6158C39.4308 20.6158 41.9835 21.581 43.9308 23.5113C45.8787 25.4417 46.8524 27.9722 46.8524 30.5026C46.8524 33.0331 45.8787 35.5629 43.9308 37.4939C41.9835 39.4243 39.4308 40.3895 36.8788 40.3895C34.3268 40.3895 31.7741 39.4243 29.8268 37.4939C27.8953 35.5792 26.9216 33.075 26.9058 30.5658ZM25.0664 31.1015C25.0443 31.0952 25.0235 31.0884 25.0027 31.0796H22.6865L21.2866 33.7539C21.2222 33.8776 21.1113 33.9795 20.9681 34.0308C20.6673 34.1389 20.3344 33.9845 20.2253 33.6857L17.7142 26.8651L17.4197 27.9034L16.6479 30.622C16.593 30.8833 16.359 31.079 16.0791 31.079H6.96246C6.64149 31.079 6.38105 30.8208 6.38105 30.5026C6.38105 30.1838 6.64149 29.9263 6.96246 29.9263H15.6402L16.3029 27.5927L17.0849 24.8384C17.1713 24.5328 17.4922 24.354 17.8006 24.4396C17.9961 24.494 18.1392 24.6403 18.1966 24.8178L20.8641 32.0642L21.8011 30.2751C21.89 30.07 22.0956 29.9263 22.3359 29.9263H25.0657C25.2045 27.1207 26.3541 24.3546 28.5158 22.2117C30.825 19.9225 33.8519 18.7779 36.8788 18.7779C39.9057 18.7779 42.9326 19.9225 45.2425 22.2117C47.5517 24.5015 48.707 27.5021 48.707 30.5026C48.707 33.0043 47.9042 35.5061 46.2987 37.5958L47.5063 38.7929L47.9067 38.3954C48.1338 38.1703 48.502 38.1703 48.729 38.3954L49.19 38.8523H52.07V18.8173C52.07 17.7734 51.6386 16.8244 50.9443 16.1356C50.2494 15.4473 49.2922 15.0197 48.2391 15.0197H4.99373C3.94126 15.0197 2.98337 15.4479 2.28908 16.1356C1.59416 16.8244 1.16346 17.7734 1.16346 18.8173V38.8529H28.5757C28.5555 38.8329 28.5359 38.8136 28.5158 38.7936C26.3591 36.6563 25.2095 33.8989 25.0664 31.1015ZM31.4739 13.867C31.0022 13.2756 30.4227 12.7718 29.765 12.3861C28.8443 11.846 27.7679 11.5353 26.6164 11.5353C25.4649 11.5353 24.3891 11.846 23.4678 12.3861C22.8101 12.7718 22.2306 13.2756 21.7589 13.867H31.4739ZM45.5458 38.481L46.6827 39.6081L46.0635 40.2213L44.9265 39.0942C45.0331 38.9967 45.1378 38.8961 45.2418 38.7936C45.3459 38.6904 45.4468 38.5866 45.5458 38.481ZM43.8091 40.0057H44.2013L45.2412 41.0371L44.8408 41.4347C44.6137 41.6591 44.6137 42.0242 44.8408 42.2498L46.7994 44.1914H4.99373C3.94126 44.1914 2.98337 43.7639 2.28845 43.0756C1.59416 42.3874 1.16283 41.4384 1.16283 40.3945V40.0057H29.9472C32.0087 41.4872 34.4428 42.228 36.8775 42.228C39.3123 42.228 41.7477 41.4872 43.8091 40.0057ZM36.8788 19.9313C39.608 19.9313 42.3373 20.9627 44.4195 23.0275C46.5018 25.0916 47.5429 27.7971 47.5429 30.5026C47.5429 33.2081 46.5018 35.9136 44.4195 37.9778C42.3373 40.0425 39.608 41.074 36.8788 41.074C34.1496 41.074 31.4203 40.0425 29.3381 37.9778C27.2565 35.9136 26.2153 33.2094 26.2147 30.5045V30.5026V30.5008C26.2147 27.7959 27.2558 25.091 29.3381 23.0275C31.4197 20.9633 34.1489 19.9313 36.8788 19.9313ZM36.8788 21.7697C34.6238 21.7697 32.3694 22.6218 30.6491 24.3277C29.077 25.8861 28.2232 27.8871 28.0876 29.9269H33.3115L33.9742 27.5933L34.7562 24.8391C34.8426 24.5334 35.1636 24.3546 35.4719 24.4402C35.6674 24.4946 35.8106 24.6409 35.8679 24.8184L38.5354 32.0648L39.4718 30.2763C39.5607 30.0707 39.7669 29.9269 40.0066 29.9269H45.6694C45.5344 27.8871 44.6806 25.8861 43.1079 24.3277C41.3882 22.6218 39.1332 21.7697 36.8788 21.7697ZM51.894 41.5334L50.3528 40.0057H52.07V40.3945C52.07 40.7295 52.0271 41.0515 51.9464 41.3553C51.93 41.4153 51.9123 41.4747 51.894 41.5334ZM33.0239 49.0892L30.8893 45.3448H21.6567L19.5221 49.0892H33.0239ZM39.8729 50.2426H12.6732C12.3478 50.2426 12.0514 50.3745 11.8364 50.5883C11.6213 50.8014 11.4877 51.0952 11.4877 51.4178V52.593H41.0584V51.4178C41.0584 51.0946 40.9247 50.8014 40.7097 50.5883C40.4947 50.3745 40.1983 50.2426 39.8729 50.2426Z" fill="url(#paint0_linear_603_831)"/>
<defs>
<linearGradient id="paint0_linear_603_831" x1="0.000251464" y1="29.1011" x2="57.0013" y2="29.1011" gradientUnits="userSpaceOnUse">
<stop stop-color="#1685FF"/>
<stop offset="0.5" stop-color="#8B5CF6"/>
<stop offset="1" stop-color="#D946EF"/>
</linearGradient>
</defs>
</svg>
