<?xml version="1.0" encoding="UTF-8" standalone="no"?><!DOCTYPE svg PUBLIC "-//W3C//DTD SVG 1.1//EN" "http://www.w3.org/Graphics/SVG/1.1/DTD/svg11.dtd"><svg width="100%" height="100%" viewBox="0 0 94 94" version="1.1" xmlns="http://www.w3.org/2000/svg" xmlns:xlink="http://www.w3.org/1999/xlink" xml:space="preserve" xmlns:serif="http://www.serif.com/" style="fill-rule:evenodd;clip-rule:evenodd;stroke-linejoin:round;stroke-miterlimit:2;"><path d="M77.396,4.205c-0,-2.039 -2.477,-3.067 -3.922,-1.625c-1.441,1.441 -0.418,3.922 1.625,3.922c1.269,-0 2.297,-1.028 2.297,-2.297Zm-59.293,43.539l-7.434,-0c-0.738,3.187 -4.73,4.363 -7.07,2.019c-2.645,-2.644 -0.762,-7.18 2.973,-7.18c1.976,0 3.66,1.372 4.097,3.25l7.434,0l-0,-8.132l-6.523,-0c-1.258,-0 -1.258,-1.911 -0,-1.911l6.523,0l-0,-8.132l-5.891,-0c-0.293,-0 -0.554,-0.133 -0.73,-0.34l-5.121,-5.227c-2.781,1.66 -6.356,-0.344 -6.356,-3.617c0,-3.734 4.536,-5.617 7.18,-2.973c1.402,1.403 1.637,3.602 0.551,5.27l4.879,4.973l5.492,-0l-0,-6.688c-0,-0.527 0.426,-0.953 0.957,-0.953l6.684,-0l-0,-5.492l-4.973,-4.879c-2.777,1.812 -6.504,-0.18 -6.504,-3.524c-0,-3.734 4.535,-5.617 7.18,-2.972c1.355,1.355 1.629,3.469 0.64,5.125l5.227,5.121c0.207,0.176 0.34,0.437 0.34,0.73l-0,5.891l8.132,-0l0,-6.524c0,-1.257 1.911,-1.257 1.911,0l-0,6.524l8.132,-0l0,-7.434c-3.187,-0.738 -4.363,-4.73 -2.019,-7.07c2.644,-2.645 7.18,-0.762 7.18,2.973c-0,1.976 -1.371,3.66 -3.25,4.097l-0,7.434l8.132,-0l0,-6.523c0,-1.258 1.911,-1.258 1.911,-0l-0,6.523l8.132,-0l0,-5.891c0,-0.293 0.133,-0.554 0.34,-0.73l5.227,-5.121c-1.66,-2.781 0.34,-6.356 3.613,-6.356c3.735,0 5.617,4.536 2.973,7.18c-1.402,1.402 -3.602,1.637 -5.27,0.551l-4.972,4.879l-0,5.492l6.683,-0c0.528,-0 0.957,0.426 0.957,0.953l0,6.688l5.493,-0l4.878,-4.973c-1.812,-2.777 0.18,-6.504 3.524,-6.504c3.734,-0 5.617,4.535 2.973,7.18c-1.356,1.355 -3.469,1.629 -5.125,0.64l-5.122,5.227c-0.175,0.207 -0.437,0.34 -0.73,0.34l-5.891,-0l0,8.132l6.524,0c1.258,0 1.258,1.911 -0,1.911l-6.524,-0l0,8.132l7.434,0c0.738,-3.187 4.73,-4.363 7.07,-2.019c2.645,2.644 0.762,7.18 -2.972,7.18c-1.977,-0 -3.661,-1.371 -4.098,-3.25l-7.434,-0l0,8.132l6.524,0c1.257,0 1.257,1.911 -0,1.911l-6.524,-0l0,8.132l5.891,0c0.293,0 0.555,0.133 0.73,0.34l5.121,5.227c2.782,-1.66 6.356,0.34 6.356,3.613c-0,3.735 -4.535,5.617 -7.18,2.973c-1.402,-1.402 -1.636,-3.602 -0.551,-5.27l-4.878,-4.976l-5.493,-0l0,6.687c0,0.528 -0.425,0.953 -0.957,0.953l-6.683,0l-0,5.493l4.972,4.879c2.778,-1.813 6.504,0.179 6.504,3.523c0,3.734 -4.535,5.617 -7.179,2.973c-1.356,-1.356 -1.629,-3.469 -0.641,-5.125l-5.227,-5.121c-0.207,-0.176 -0.339,-0.438 -0.339,-0.731l-0,-5.891l-8.133,0l-0,6.524c-0,1.258 -1.91,1.258 -1.91,-0l-0,-6.524l-8.133,0l-0,7.434c3.187,0.738 4.359,4.731 2.019,7.07c-2.644,2.645 -7.179,0.762 -7.179,-2.972c-0,-1.977 1.371,-3.661 3.25,-4.098l-0,-7.434l-8.133,0l-0,6.524c-0,1.258 -1.91,1.258 -1.91,-0l-0,-6.524l-8.133,0l-0,5.891c-0,0.293 -0.133,0.555 -0.34,0.73l-5.227,5.122c1.661,2.781 -0.34,6.355 -3.613,6.355c-3.734,0 -5.617,-4.539 -2.973,-7.18c1.403,-1.402 3.602,-1.636 5.27,-0.55l4.973,-4.879l-0,-5.493l-6.684,0c-0.527,0 -0.957,-0.425 -0.957,-0.953l-0,-6.687l-5.492,-0l-4.879,4.976c1.812,2.778 -0.18,6.504 -3.524,6.504c-3.734,0 -5.617,-4.535 -2.972,-7.179c1.355,-1.356 3.469,-1.629 5.125,-0.641l5.121,-5.227c0.176,-0.207 0.437,-0.339 0.73,-0.339l5.891,-0l-0,-8.133l-6.524,-0c-1.257,-0 -1.257,-1.91 0,-1.91l6.524,-0l-0,-8.129Zm-11.531,-3.254c-2.039,-0 -3.067,2.476 -1.625,3.918c1.441,1.441 3.918,0.418 3.918,-1.625c0.004,-1.266 -1.024,-2.293 -2.293,-2.293Zm-3.988,32.235c1.441,1.441 3.921,0.418 3.921,-1.625c0,-2.039 -2.476,-3.067 -3.921,-1.625c-0.899,0.898 -0.899,2.355 -0,3.25Zm1.621,-60.547c-2.039,-0 -3.067,2.476 -1.625,3.922c1.441,1.441 3.922,0.414 3.922,-1.625c-0,-1.27 -1.028,-2.297 -2.297,-2.297Zm84.422,28.984c-1.442,-1.442 -3.922,-0.418 -3.922,1.625c-0,2.039 2.476,3.066 3.922,1.625c0.894,-0.899 0.894,-2.352 -0,-3.25Zm0.742,32.234c2.039,-0 3.066,-2.477 1.625,-3.922c-1.442,-1.442 -3.922,-0.418 -3.922,1.625c-0,1.269 1.027,2.297 2.297,2.297Zm1.621,-60.547c-1.441,-1.442 -3.922,-0.418 -3.922,1.625c0,2.039 2.477,3.066 3.922,1.625c0.898,-0.899 0.898,-2.356 -0,-3.25Zm-42.578,71.773c1.441,-1.442 0.418,-3.918 -1.625,-3.918c-2.039,-0 -3.066,2.476 -1.625,3.918c0.898,0.898 2.352,0.898 3.25,-0Zm-32.234,0.746c-0,2.039 2.477,3.066 3.918,1.625c1.441,-1.442 0.418,-3.922 -1.625,-3.922c-1.266,-0 -2.293,1.027 -2.293,2.297Zm60.547,1.621c1.441,-1.442 0.418,-3.922 -1.625,-3.922c-2.039,-0 -3.066,2.477 -1.625,3.922c0.898,0.898 2.355,0.898 3.25,-0Zm-37.871,-57.223c-3.594,-0.235 -5.914,1.742 -5.066,5.394c2.179,-0.648 4.691,-0.3 6.574,0.965c2.609,1.758 3.508,3.871 3.769,6.821c0.11,1.246 -1.785,1.414 -1.894,0.164c-0.211,-2.403 -0.832,-3.981 -2.942,-5.403c-3.507,-2.363 -8.554,-0.074 -9.172,3.731c-0.437,2.695 0.356,4.496 2.274,6.289c0.133,0.125 0.277,0.246 0.426,0.371c0.632,-0.914 1.523,-1.676 2.648,-2.148c0.488,-0.204 1.043,0.027 1.246,0.515c0.203,0.488 -0.027,1.043 -0.515,1.246c-3.754,1.563 -3.844,8.184 2.425,8.332c0.082,-0.453 0.243,-0.883 0.446,-1.285c0.238,-0.469 0.812,-0.652 1.277,-0.414c0.469,0.238 0.652,0.813 0.414,1.277c-1.223,2.395 1.711,4.305 3.66,3.356c1.289,-0.625 1.426,-1.445 1.402,-2.762l-0.003,0l0.003,-26.809c-0.128,-1.656 -0.886,-2.566 -1.781,-2.898c-1.785,-0.66 -4.476,0.804 -2.969,3.785c0.239,0.469 0.047,1.043 -0.421,1.277c-0.469,0.239 -1.043,0.047 -1.278,-0.422c-0.25,-0.48 -0.418,-0.941 -0.523,-1.382l-0,-0Zm-3.352,-1.477c-3.3,1.18 -4.382,4.348 -3.484,7.66c-1.953,1.141 -3.406,2.891 -3.777,5.184c-0.61,3.746 0.851,6.523 3.734,8.727c-0.316,1.047 -0.363,2.168 -0.121,3.242c0.684,3.051 3.387,4.82 6.902,4.848c1.102,3.347 5.742,4.308 8.035,1.597c0.375,0.446 0.879,0.828 1.536,1.145c2.472,1.199 5.652,-0.172 6.5,-2.742c2.457,-0.02 4.242,-0.84 5.406,-2.055c1.551,-1.613 2.004,-3.949 1.371,-6.039c2.883,-2.203 4.344,-4.981 3.734,-8.727c-0.371,-2.293 -1.824,-4.043 -3.777,-5.183c1.32,-4.875 -1.707,-8.34 -6.769,-8.094c-0.688,-3.598 -5.793,-4.746 -8,-1.5c-2.211,-3.25 -7.317,-2.094 -8,1.5c-1.239,-0.059 -2.34,0.097 -3.29,0.437l0,0Zm21.93,1.797c-0.757,-0.273 -1.668,-0.387 -2.707,-0.32c-0.105,0.441 -0.277,0.902 -0.519,1.383c-0.238,0.468 -0.809,0.66 -1.277,0.422c-0.469,-0.239 -0.661,-0.809 -0.422,-1.278c1.507,-2.98 -1.184,-4.445 -2.969,-3.785c-0.992,0.367 -1.656,1.313 -1.797,3.043l-0,26.523c0.008,0.059 0.012,0.121 0.012,0.184c-0.055,1.308 0.183,2.132 1.402,2.722c1.949,0.946 4.883,-0.965 3.66,-3.355c-0.238,-0.469 -0.055,-1.039 0.414,-1.277c0.469,-0.239 1.039,-0.055 1.278,0.414c0.207,0.402 0.363,0.836 0.445,1.285c6.281,-0.149 6.172,-6.774 2.426,-8.332c-0.489,-0.203 -0.715,-0.758 -0.516,-1.246c0.203,-0.489 0.758,-0.715 1.246,-0.516c1.129,0.469 2.02,1.231 2.649,2.148c1.066,-0.867 1.992,-2.003 2.433,-3.136c0.387,-0.996 0.492,-2.141 0.27,-3.524c-0.328,-2.019 -1.754,-3.339 -3.52,-4.195c-1.683,-0.816 -4.07,-0.598 -5.652,0.465c-2.11,1.422 -2.727,3 -2.942,5.402c-0.109,1.25 -2.003,1.082 -1.894,-0.164c0.262,-2.949 1.16,-5.062 3.769,-6.82c1.883,-1.27 4.395,-1.613 6.575,-0.965c0.511,-2.234 -0.114,-4.273 -2.364,-5.078l0,0Zm-8.347,-27.516c-0,-2.039 -2.477,-3.066 -3.922,-1.625c-1.442,1.442 -0.418,3.918 1.625,3.918c1.269,0.004 2.297,-1.023 2.297,-2.293Zm-32.234,-3.988c-1.442,1.441 -0.418,3.922 1.625,3.922c2.039,-0 3.066,-2.477 1.625,-3.922c-0.899,-0.899 -2.356,-0.899 -3.25,-0Zm6.925,20.238c-0.527,-0 -0.957,0.43 -0.957,0.957l0,46.023c0,0.527 0.426,0.953 0.957,0.953l46.023,0c0.528,0 0.958,-0.426 0.958,-0.953l-0.004,-46.027c-0,-0.527 -0.426,-0.957 -0.957,-0.957l-46.02,0.004Zm45.07,1.91l-44.113,0l0,44.113l44.113,0l0,-44.113Zm4.715,-4.719l-53.547,0l0,53.551l53.551,0l-0.004,-53.551Z" style="fill:url(#_Linear1);"/><defs><linearGradient id="_Linear1" x1="0" y1="0" x2="1" y2="0" gradientUnits="userSpaceOnUse" gradientTransform="matrix(93.5737,0,0,90.9552,-0.000105552,47.0101)"><stop offset="0" style="stop-color:#1685ff;stop-opacity:1"/><stop offset="0.5" style="stop-color:#8b5cf6;stop-opacity:1"/><stop offset="1" style="stop-color:#d946ef;stop-opacity:1"/></linearGradient></defs></svg>