<svg width="74" height="86" viewBox="0 0 74 86" fill="none" xmlns="http://www.w3.org/2000/svg">
<path d="M68.428 7.194H65.138V4.019C65.1367 2.9535 64.7128 1.93202 63.9594 1.1786C63.206 0.425177 62.1845 0.00132311 61.119 0H4.019C2.9535 0.00132311 1.93202 0.425177 1.1786 1.1786C0.425177 1.93202 0.00132311 2.9535 0 4.019V74.677C0.00132311 75.7425 0.425177 76.764 1.1786 77.5174C1.93202 78.2708 2.9535 78.6947 4.019 78.696H7.973V81.208C7.97432 82.4493 8.46803 83.6395 9.34579 84.5172C10.2235 85.395 11.4137 85.8887 12.655 85.89H68.428C69.6694 85.8887 70.8596 85.395 71.7376 84.5173C72.6155 83.6395 73.1094 82.4494 73.111 81.208V11.876C73.1094 10.6346 72.6155 9.44446 71.7376 8.56673C70.8596 7.689 69.6694 7.19532 68.428 7.194ZM2.38 74.677V4.019C2.38027 3.58466 2.55292 3.16818 2.86005 2.86105C3.16718 2.55392 3.58366 2.38126 4.018 2.381H61.118C61.5522 2.38153 61.9684 2.55431 62.2753 2.8614C62.5822 3.1685 62.7547 3.58483 62.755 4.019V74.019C62.755 74.629 62.5127 75.214 62.0813 75.6453C61.65 76.0767 61.065 76.319 60.455 76.319H4.018C3.80263 76.3187 3.58943 76.2761 3.39055 76.1934C3.19168 76.1107 3.01103 75.9897 2.85893 75.8372C2.70683 75.6848 2.58625 75.5038 2.50407 75.3048C2.4219 75.1057 2.37974 74.8924 2.38 74.677ZM70.73 81.208C70.73 81.818 70.4877 82.403 70.0563 82.8343C69.625 83.2657 69.04 83.508 68.43 83.508H12.655C12.045 83.508 11.46 83.2657 11.0287 82.8343C10.5973 82.403 10.355 81.818 10.355 81.208V78.696H60.455C61.6959 78.6947 62.8856 78.2012 63.7632 77.3239C64.6407 76.4465 65.1344 75.2569 65.136 74.016V9.574H68.426C69.0356 9.57532 69.6198 9.81807 70.0509 10.2491C70.4819 10.6802 70.7247 11.2644 70.726 11.874L70.73 81.208ZM53.202 67.115C53.202 67.4306 53.0766 67.7333 52.8535 67.9565C52.6303 68.1796 52.3276 68.305 52.012 68.305H13.126C12.8104 68.305 12.5077 68.1796 12.2845 67.9565C12.0614 67.7333 11.936 67.4306 11.936 67.115C11.936 66.7994 12.0614 66.4967 12.2845 66.2735C12.5077 66.0504 12.8104 65.925 13.126 65.925H52.012C52.3276 65.925 52.6303 66.0504 52.8535 66.2735C53.0766 66.4967 53.202 66.7994 53.202 67.115ZM53.202 58.854C53.2021 59.0104 53.1714 59.1652 53.1117 59.3097C53.052 59.4542 52.9643 59.5855 52.8538 59.6961C52.7433 59.8067 52.6121 59.8945 52.4676 59.9543C52.3232 60.0142 52.1684 60.045 52.012 60.045H13.126C12.9668 60.0496 12.8082 60.0222 12.6597 59.9645C12.5113 59.9067 12.3759 59.8198 12.2616 59.7088C12.1474 59.5978 12.0565 59.465 11.9945 59.3182C11.9325 59.1715 11.9005 59.0138 11.9005 58.8545C11.9005 58.6952 11.9325 58.5375 11.9945 58.3908C12.0565 58.244 12.1474 58.1112 12.2616 58.0002C12.3759 57.8892 12.5113 57.8023 12.6597 57.7445C12.8082 57.6868 12.9668 57.6594 13.126 57.664H52.012C52.3276 57.664 52.6303 57.7894 52.8535 58.0125C53.0766 58.2357 53.202 58.5384 53.202 58.854ZM15.069 42.829C14.7534 42.829 14.4507 42.9544 14.2275 43.1775C14.0044 43.4007 13.879 43.7034 13.879 44.019V50.607C13.8789 50.7634 13.9096 50.9182 13.9693 51.0627C14.029 51.2072 14.1167 51.3385 14.2272 51.4491C14.3377 51.5597 14.4689 51.6475 14.6134 51.7073C14.7578 51.7672 14.9126 51.798 15.069 51.798H20.634C20.7904 51.798 20.9452 51.7672 21.0896 51.7073C21.2341 51.6475 21.3653 51.5597 21.4758 51.4491C21.5863 51.3385 21.674 51.2072 21.7337 51.0627C21.7934 50.9182 21.8241 50.7634 21.824 50.607V44.019C21.824 43.7034 21.6986 43.4007 21.4755 43.1775C21.2523 42.9544 20.9496 42.829 20.634 42.829H15.069ZM19.443 49.417H16.255V45.209H19.439L19.443 49.417ZM35.417 36.311C35.2606 36.311 35.1058 36.3418 34.9614 36.4017C34.8169 36.4615 34.6857 36.5493 34.5752 36.6599C34.4647 36.7705 34.377 36.9018 34.3173 37.0463C34.2576 37.1908 34.2269 37.3456 34.227 37.502V50.602C34.2269 50.7584 34.2576 50.9132 34.3173 51.0577C34.377 51.2022 34.4647 51.3335 34.5752 51.4441C34.6857 51.5547 34.8169 51.6425 34.9614 51.7023C35.1058 51.7622 35.2606 51.793 35.417 51.793H40.982C41.1384 51.793 41.2932 51.7622 41.4376 51.7023C41.5821 51.6425 41.7133 51.5547 41.8238 51.4441C41.9343 51.3335 42.022 51.2022 42.0817 51.0577C42.1414 50.9132 42.1721 50.7584 42.172 50.602V37.502C42.1721 37.3456 42.1414 37.1908 42.0817 37.0463C42.022 36.9018 41.9343 36.7705 41.8238 36.6599C41.7133 36.5493 41.5821 36.4615 41.4376 36.4017C41.2932 36.3418 41.1384 36.311 40.982 36.311H35.417ZM39.791 49.417H36.607V38.692H39.791V49.417ZM25.243 29.794C24.9274 29.794 24.6247 29.9194 24.4015 30.1425C24.1784 30.3657 24.053 30.6684 24.053 30.984V50.607C24.0529 50.7634 24.0836 50.9182 24.1433 51.0627C24.203 51.2072 24.2907 51.3385 24.4012 51.4491C24.5117 51.5597 24.6429 51.6475 24.7874 51.7073C24.9318 51.7672 25.0866 51.798 25.243 51.798H30.808C30.9644 51.798 31.1192 51.7672 31.2636 51.7073C31.4081 51.6475 31.5393 51.5597 31.6498 51.4491C31.7603 51.3385 31.848 51.2072 31.9077 51.0627C31.9674 50.9182 31.9981 50.7634 31.998 50.607V30.984C31.998 30.6684 31.8726 30.3657 31.6495 30.1425C31.4263 29.9194 31.1236 29.794 30.808 29.794H25.243ZM29.617 49.417H26.433V32.175H29.617V49.417ZM45.591 23.531C45.2751 23.531 44.9722 23.6565 44.7488 23.8798C44.5255 24.1032 44.4 24.4061 44.4 24.722V50.607C44.4 50.9229 44.5255 51.2258 44.7488 51.4492C44.9722 51.6725 45.2751 51.798 45.591 51.798H51.155C51.3114 51.798 51.4662 51.7672 51.6106 51.7073C51.7551 51.6475 51.8863 51.5597 51.9968 51.4491C52.1073 51.3385 52.195 51.2072 52.2547 51.0627C52.3144 50.9182 52.3451 50.7634 52.345 50.607V24.722C52.3451 24.5656 52.3144 24.4108 52.2547 24.2663C52.195 24.1218 52.1073 23.9905 51.9968 23.8799C51.8863 23.7693 51.7551 23.6815 51.6106 23.6217C51.4662 23.5618 51.3114 23.531 51.155 23.531H45.591ZM49.965 49.417H46.781V25.912H49.965V49.417ZM17.855 34.41C18.5872 34.4108 19.3067 34.2189 19.9414 33.8538C20.576 33.4886 21.1035 32.963 21.4708 32.3296C21.8382 31.6962 22.0325 30.9774 22.0343 30.2452C22.0361 29.513 21.8453 28.7932 21.481 28.158L25.722 23.937C26.5613 24.4949 27.5743 24.7298 28.5735 24.5984C29.5728 24.4669 30.4905 23.978 31.157 23.222L34.085 25.222C33.973 25.874 34.0173 26.5432 34.2144 27.1747C34.4115 27.8062 34.7557 28.3819 35.2187 28.8544C35.6817 29.3269 36.2503 29.6828 36.8776 29.8927C37.505 30.1026 38.1732 30.1606 38.8273 30.0619C39.4814 29.9631 40.1028 29.7105 40.6402 29.3248C41.1777 28.9391 41.6159 28.4313 41.9188 27.8432C42.2217 27.2551 42.3807 26.6035 42.3826 25.942C42.3846 25.2804 42.2294 24.6279 41.93 24.038L47.091 16.794C48.0481 17.1033 49.0846 17.0577 50.0107 16.6654C50.9369 16.2731 51.6909 15.5605 52.1347 14.6579C52.5786 13.7553 52.6825 12.723 52.4276 11.75C52.1727 10.777 51.576 9.92834 50.7466 9.35926C49.9173 8.79018 48.9107 8.53875 47.9112 8.65099C46.9116 8.76323 45.9859 9.23162 45.3034 9.97047C44.6209 10.7093 44.2273 11.6692 44.1945 12.6745C44.1617 13.6798 44.4921 14.6633 45.125 15.445L40.255 22.284C39.4404 21.8227 38.4943 21.6491 37.569 21.7914C36.6438 21.9336 35.7934 22.3833 35.155 23.068L32.167 21.029C32.2557 20.3907 32.1956 19.7406 31.9913 19.1294C31.787 18.5182 31.444 17.9625 30.9893 17.5059C30.5346 17.0493 29.9805 16.704 29.3702 16.4971C28.7598 16.2902 28.1099 16.2273 27.4713 16.3133C26.8326 16.3992 26.2225 16.6318 25.6887 16.9928C25.1548 17.3537 24.7117 17.8332 24.3939 18.3939C24.0762 18.9545 23.8924 19.5811 23.8571 20.2245C23.8217 20.868 23.9356 21.5109 24.19 22.103L19.755 26.514C19.1923 26.2271 18.572 26.0715 17.9405 26.0588C17.309 26.0462 16.6829 26.1769 16.1092 26.4411C15.5356 26.7053 15.0293 27.0962 14.6284 27.5843C14.2275 28.0723 13.9425 28.6449 13.7948 29.259C13.6471 29.8731 13.6406 30.5127 13.7757 31.1297C13.9108 31.7466 14.184 32.325 14.5748 32.8211C14.9656 33.3173 15.4638 33.7184 16.032 33.9943C16.6001 34.2702 17.2234 34.4137 17.855 34.414V34.41ZM48.377 11.02C48.733 11.02 49.081 11.1256 49.377 11.3234C49.673 11.5211 49.9037 11.8023 50.04 12.1312C50.1762 12.4601 50.2119 12.822 50.1424 13.1712C50.073 13.5203 49.9015 13.8411 49.6498 14.0928C49.3981 14.3445 49.0773 14.516 48.7282 14.5854C48.379 14.6549 48.0171 14.6192 47.6882 14.483C47.3593 14.3467 47.0781 14.116 46.8804 13.82C46.6826 13.524 46.577 13.176 46.577 12.82C46.577 12.3433 46.7661 11.8861 47.1028 11.5486C47.4395 11.2112 47.8963 11.0211 48.373 11.02H48.377ZM38.203 24.12C38.559 24.12 38.907 24.2256 39.203 24.4234C39.499 24.6211 39.7297 24.9023 39.866 25.2312C40.0022 25.5601 40.0379 25.922 39.9684 26.2712C39.899 26.6203 39.7275 26.9411 39.4758 27.1928C39.2241 27.4445 38.9033 27.616 38.5542 27.6854C38.205 27.7549 37.8431 27.7192 37.5142 27.583C37.1853 27.4467 36.9041 27.216 36.7064 26.92C36.5086 26.624 36.403 26.276 36.403 25.92C36.4041 25.444 36.5936 24.9878 36.9302 24.6512C37.2668 24.3146 37.723 24.1251 38.199 24.124L38.203 24.12ZM28.025 18.658C28.381 18.658 28.729 18.7636 29.025 18.9614C29.321 19.1591 29.5517 19.4403 29.688 19.7692C29.8242 20.0981 29.8599 20.46 29.7904 20.8092C29.721 21.1583 29.5495 21.4791 29.2978 21.7308C29.0461 21.9825 28.7253 22.154 28.3762 22.2234C28.027 22.2929 27.6651 22.2572 27.3362 22.121C27.0073 21.9847 26.7261 21.754 26.5284 21.458C26.3306 21.162 26.225 20.814 26.225 20.458C26.225 20.2216 26.2716 19.9876 26.362 19.7692C26.4525 19.5508 26.5851 19.3524 26.7522 19.1852C26.9194 19.0181 27.1178 18.8855 27.3362 18.795C27.5546 18.7046 27.7886 18.658 28.025 18.658ZM17.855 28.434C18.211 28.434 18.559 28.5396 18.855 28.7374C19.151 28.9351 19.3817 29.2163 19.518 29.5452C19.6542 29.8741 19.6899 30.236 19.6204 30.5852C19.551 30.9343 19.3795 31.2551 19.1278 31.5068C18.8761 31.7585 18.5553 31.93 18.2062 31.9994C17.857 32.0689 17.4951 32.0332 17.1662 31.897C16.8373 31.7607 16.5561 31.53 16.3584 31.234C16.1606 30.938 16.055 30.59 16.055 30.234C16.055 29.7566 16.2446 29.2988 16.5822 28.9612C16.9198 28.6236 17.3776 28.434 17.855 28.434Z" fill="url(#paint0_linear_1332_29)"/>
<defs>
<linearGradient id="paint0_linear_1332_29" x1="0.000199422" y1="43.1519" x2="73.1126" y2="43.1519" gradientUnits="userSpaceOnUse">
<stop stop-color="#1685FF"/>
<stop offset="0.5" stop-color="#8B5CF6"/>
<stop offset="1" stop-color="#D946EF"/>
</linearGradient>
</defs>
</svg>
