<?xml version="1.0" encoding="UTF-8" standalone="no"?><!DOCTYPE svg PUBLIC "-//W3C//DTD SVG 1.1//EN" "http://www.w3.org/Graphics/SVG/1.1/DTD/svg11.dtd"><svg width="100%" height="100%" viewBox="0 0 77 77" version="1.1" xmlns="http://www.w3.org/2000/svg" xmlns:xlink="http://www.w3.org/1999/xlink" xml:space="preserve" xmlns:serif="http://www.serif.com/" style="fill-rule:evenodd;clip-rule:evenodd;stroke-linejoin:round;stroke-miterlimit:2;"><rect id="Artboard2" x="0" y="0" width="76.513" height="76.513" style="fill:none;"/><path d="M73.105,29.044c-1.804,-1.997 -4.22,-3.34 -6.868,-3.818c-0.313,-4.802 -2.293,-9.347 -5.595,-12.847c-3.167,-3.182 -7.254,-5.293 -11.682,-6.033c-4.377,-0.817 -8.895,-0.403 -13.05,1.197c-3.648,1.331 -6.697,3.933 -8.586,7.326c-1.513,-0.559 -3.112,-0.845 -4.724,-0.845c-6.665,0 -12.402,4.886 -13.463,11.465c-5.239,1.466 -8.889,6.276 -8.889,11.717c0,6.675 5.493,12.167 12.168,12.167l7.655,0l0,14.994c0,4.076 9.149,6.209 18.186,6.209c9.036,-0 18.19,-2.133 18.19,-6.209l-0,-14.994l7.651,-0c0.004,-0 0.009,-0 0.013,-0c6.668,-0 12.154,-5.487 12.154,-12.154c-0,-3.022 -1.127,-5.938 -3.16,-8.175Zm-18.738,13.502c-0,0.684 -1.324,1.769 -4.284,2.661c-3.854,1.038 -7.835,1.532 -11.826,1.468c-3.991,0.064 -7.971,-0.43 -11.825,-1.468c-2.958,-0.892 -4.282,-1.977 -4.282,-2.661l0,-7.479c1.182,0.717 2.458,1.265 3.792,1.626c4.015,1.073 8.159,1.587 12.315,1.526c6.402,0 12.893,-1.078 16.11,-3.167l-0,7.494Zm-32.217,3.048c3.213,2.083 9.687,3.16 16.107,3.16c6.419,-0 12.897,-1.077 16.11,-3.16l-0,7.869c-0,0.508 -0.903,1.64 -4.285,2.661c-3.854,1.036 -7.834,1.529 -11.825,1.464c-3.991,0.064 -7.971,-0.431 -11.824,-1.47c-3.38,-1.019 -4.283,-2.151 -4.283,-2.655l0,-7.869Zm32.214,-13.568c-0.016,0.511 -0.945,1.646 -4.333,2.661c-3.839,1.027 -7.801,1.516 -11.774,1.453c-3.957,0.06 -7.903,-0.426 -11.727,-1.444c-3.358,-0.996 -4.333,-2.119 -4.38,-2.641l0,-0.051c0,-0.508 0.902,-1.64 4.283,-2.66c3.854,-1.038 7.833,-1.531 11.824,-1.465c3.991,-0.064 7.971,0.431 11.825,1.47c3.35,1.009 4.266,2.129 4.284,2.643c-0.001,0.012 -0.002,0.024 -0.002,0.034Zm-4.282,35.001c-3.854,1.039 -7.834,1.534 -11.825,1.47c-3.991,0.064 -7.971,-0.431 -11.824,-1.47c-3.381,-1.02 -4.283,-2.151 -4.283,-2.661l0,-7.862c3.213,2.086 9.687,3.163 16.107,3.163c6.419,-0 12.897,-1.077 16.11,-3.163l-0,7.863c-0,0.509 -0.903,1.639 -4.285,2.66Zm14.016,-19.734l-7.651,0l-0,-15.285c-0,-4.076 -9.151,-6.208 -18.19,-6.208c-9.039,-0 -18.186,2.132 -18.186,6.208l0,15.285l-7.657,0c-5.534,0 -10.088,-4.553 -10.088,-10.088c0,-4.737 3.338,-8.868 7.97,-9.863c0.439,-0.095 0.768,-0.465 0.814,-0.912c0.622,-5.843 5.609,-10.327 11.485,-10.327c1.657,0 3.295,0.357 4.803,1.046c0.136,0.063 0.284,0.095 0.434,0.095c0.411,0 0.785,-0.244 0.951,-0.62c2.799,-6.354 11.128,-9.817 19.804,-8.233c9.274,1.693 15.123,8.348 15.634,17.802c0.027,0.508 0.424,0.924 0.929,0.977c5.112,0.535 9.04,4.895 9.04,10.035c-0,5.534 -4.554,10.088 -10.089,10.088c-0.001,0 -0.002,0 -0.003,0Zm-25.841,-6.006c0.57,0 1.04,0.47 1.04,1.04c-0,0.571 -0.47,1.04 -1.04,1.04c-0.877,0 -1.73,-0.019 -2.536,-0.056c-0.551,-0.025 -0.991,-0.486 -0.991,-1.038c-0,-0.571 0.469,-1.04 1.039,-1.04c0.016,0 0.032,0 0.048,0.001c0.774,0.036 1.594,0.053 2.44,0.053Zm-4.612,0.853c-0.058,0.523 -0.505,0.923 -1.031,0.924c-0.039,-0 -0.078,-0.002 -0.117,-0.007c-2.438,-0.204 -4.832,-0.774 -7.101,-1.69c-0.353,-0.176 -0.577,-0.538 -0.577,-0.932c-0,-0.57 0.469,-1.04 1.04,-1.04c0.138,0 0.274,0.028 0.401,0.081c2.069,0.824 4.249,1.335 6.469,1.516c0.523,0.058 0.923,0.506 0.923,1.032c-0,0.039 -0.002,0.078 -0.007,0.116Zm1.086,10.977c0.03,-0.568 0.518,-1.012 1.086,-0.988c0.836,0.039 1.657,0.058 2.44,0.058c0.559,0.015 1.011,0.479 1.011,1.039c0,0.56 -0.452,1.025 -1.011,1.04c-0.815,-0 -1.668,-0.02 -2.536,-0.06c-0.551,-0.025 -0.991,-0.486 -0.991,-1.038c-0,-0.017 0,-0.034 0.001,-0.051Zm-9.847,-2.239c0.238,-0.518 0.861,-0.748 1.379,-0.51c2.068,0.826 4.248,1.338 6.467,1.521c0.522,0.06 0.921,0.507 0.921,1.033c0,0.569 -0.468,1.038 -1.037,1.04c-0.04,-0 -0.079,-0.003 -0.119,-0.007c-2.438,-0.206 -4.832,-0.778 -7.1,-1.696c-0.369,-0.169 -0.607,-0.539 -0.607,-0.945c0,-0.15 0.033,-0.299 0.096,-0.436Zm14.412,13.237c-0,0 -0,0.001 -0,0.001c-0,0.57 -0.469,1.039 -1.039,1.039c-0.876,0 -1.729,-0.019 -2.536,-0.056c-0.551,-0.026 -0.991,-0.486 -0.991,-1.039c-0,-0.57 0.469,-1.039 1.039,-1.039c0.016,-0 0.032,0 0.048,0.001c0.775,0.036 1.597,0.054 2.44,0.054c0.57,-0 1.039,0.469 1.039,1.039Zm-5.651,-0.187c-0.058,0.523 -0.505,0.923 -1.031,0.924c-0.039,-0 -0.076,-0 -0.117,-0.006c-2.439,-0.203 -4.834,-0.774 -7.102,-1.692c-0.369,-0.17 -0.606,-0.54 -0.606,-0.945c0,-0.57 0.469,-1.039 1.04,-1.039c0.15,-0 0.298,0.032 0.434,0.095c2.066,0.824 4.244,1.335 6.461,1.515c0.525,0.056 0.928,0.504 0.928,1.032c-0,0.039 -0.002,0.078 -0.007,0.116Z" style="fill:url(#_Linear1);fill-rule:nonzero;"/><defs><linearGradient id="_Linear1" x1="0" y1="0" x2="1" y2="0" gradientUnits="userSpaceOnUse" gradientTransform="matrix(76.0179,0,0,70.9478,0.24895,38.4123)"><stop offset="0" style="stop-color:#1685ff;stop-opacity:1"/><stop offset="0.5" style="stop-color:#8b5cf6;stop-opacity:1"/><stop offset="1" style="stop-color:#d946ef;stop-opacity:1"/></linearGradient></defs></svg>