<?xml version="1.0" encoding="UTF-8" standalone="no"?><!DOCTYPE svg PUBLIC "-//W3C//DTD SVG 1.1//EN" "http://www.w3.org/Graphics/SVG/1.1/DTD/svg11.dtd"><svg width="100%" height="100%" viewBox="0 0 200 200" version="1.1" xmlns="http://www.w3.org/2000/svg" xmlns:xlink="http://www.w3.org/1999/xlink" xml:space="preserve" xmlns:serif="http://www.serif.com/" style="fill-rule:evenodd;clip-rule:evenodd;stroke-linejoin:round;stroke-miterlimit:2;"><g id="Layer2"><path d="M15.071,58.252c-1.119,0 -2.04,0.92 -2.04,2.039c0,1.12 0.921,2.04 2.04,2.04c1.119,0 2.04,-0.92 2.04,-2.04c-0.001,-1.118 -0.921,-2.038 -2.04,-2.039Zm12.959,-29.02c-1.119,0 -2.04,0.921 -2.04,2.04c0,1.119 0.921,2.04 2.04,2.04c1.119,0 2.04,-0.921 2.04,-2.04c-0.001,-1.119 -0.922,-2.039 -2.04,-2.04Zm0.098,58.039c0,0 -0.001,0 -0.002,0c-1.12,0 -2.042,0.922 -2.042,2.042c0,1.12 0.922,2.042 2.042,2.042c1.121,0 2.042,-0.922 2.042,-2.042c-0.001,-1.119 -0.921,-2.04 -2.04,-2.042Zm14.728,-76.764c-1.119,0 -2.04,0.921 -2.04,2.04c0,1.119 0.921,2.04 2.04,2.04c1.119,0 2.04,-0.921 2.04,-2.04c-0.001,-1.119 -0.922,-2.039 -2.04,-2.04Zm0.048,95.496c-1.118,0.001 -2.038,0.921 -2.038,2.04c0,1.119 0.921,2.04 2.04,2.04c1.119,0 2.04,-0.921 2.04,-2.04c-0.001,-1.12 -0.923,-2.04 -2.042,-2.04Zm143.468,-47.153c-0.383,-0.382 -0.902,-0.597 -1.443,-0.597c-1.119,0 -2.04,0.92 -2.04,2.04c0,1.119 0.921,2.04 2.04,2.04c0.541,0 1.06,-0.216 1.443,-0.598c0.79,-0.792 0.79,-2.093 0,-2.885Zm-12.958,-29.015c-0.383,-0.382 -0.902,-0.597 -1.442,-0.597c-1.119,0 -2.04,0.921 -2.04,2.04c0,1.119 0.921,2.04 2.04,2.04c0.54,0 1.059,-0.215 1.442,-0.597c0.79,-0.792 0.79,-2.094 0,-2.886Zm-0.093,58.035c-0.382,-0.382 -0.901,-0.597 -1.441,-0.597c-1.12,0 -2.04,0.921 -2.04,2.04c0,1.119 0.92,2.04 2.04,2.04c0.54,0 1.059,-0.215 1.441,-0.596c0.791,-0.792 0.791,-2.095 0,-2.887Zm-14.74,-76.769c-0.382,-0.382 -0.901,-0.596 -1.441,-0.596c-1.119,0 -2.04,0.92 -2.04,2.039c0,1.12 0.921,2.04 2.04,2.04c0.54,0 1.059,-0.214 1.441,-0.596c0.792,-0.792 0.792,-2.095 0,-2.887Zm-0.05,95.496c-0.382,-0.382 -0.901,-0.596 -1.442,-0.596c-1.119,0 -2.04,0.92 -2.04,2.04c0,1.119 0.921,2.04 2.04,2.04c0.541,0 1.06,-0.215 1.442,-0.597c0.791,-0.792 0.791,-2.095 0,-2.887Zm-72.029,-42.263c-0.461,0.408 -1.057,0.634 -1.673,0.634c-1.383,0 -2.521,-1.138 -2.521,-2.521c0,-0.616 0.226,-1.211 0.635,-1.672c9.357,-9.358 24.757,-9.358 34.114,0c0.409,0.461 0.635,1.056 0.635,1.672c0,1.383 -1.138,2.521 -2.521,2.521c-0.616,0 -1.212,-0.226 -1.673,-0.634c-3.578,-3.58 -8.437,-5.593 -13.498,-5.593c-5.061,0 -9.92,2.013 -13.498,5.593Zm-8.414,-8.414c12.021,-12.02 31.803,-12.02 43.824,0c0.459,0.399 1.047,0.619 1.656,0.619c1.383,0 2.521,-1.138 2.521,-2.521c0,-0.608 -0.221,-1.196 -0.62,-1.655c-6.752,-6.753 -15.92,-10.551 -25.469,-10.551c-9.549,0 -18.717,3.798 -25.469,10.551c-0.399,0.459 -0.62,1.047 -0.62,1.655c0,1.383 1.138,2.521 2.521,2.521c0.609,0 1.197,-0.22 1.656,-0.619Zm-8.061,-8.062c-0.459,0.4 -1.047,0.62 -1.656,0.62c-1.383,0 -2.521,-1.138 -2.521,-2.521c0,-0.608 0.22,-1.197 0.62,-1.655c8.889,-8.89 20.958,-13.89 33.53,-13.89c12.572,0 24.641,5 33.53,13.89c0.4,0.458 0.62,1.047 0.62,1.655c0,1.383 -1.138,2.521 -2.521,2.521c-0.609,0 -1.197,-0.22 -1.656,-0.62c-16.443,-16.442 -43.503,-16.442 -59.946,0Zm25.509,35.76c2.814,-1.378 6.114,-1.378 8.928,0c1.796,-1.384 2.849,-3.526 2.849,-5.793c0,-4.012 -3.301,-7.313 -7.313,-7.313c-4.012,0 -7.313,3.301 -7.313,7.313c0,2.267 1.053,4.409 2.849,5.793Zm0.449,67.871c0.369,0.449 0.571,1.012 0.571,1.593c0,1.375 -1.132,2.506 -2.507,2.506c-0.749,0 -1.46,-0.335 -1.936,-0.914l-12.731,-15.465c-0.09,-0.092 -0.173,-0.192 -0.248,-0.298c-1.809,-1.998 -4.88,-2.29 -7.034,-0.67c-1.137,0.868 -1.859,2.174 -1.987,3.599c-0.137,1.366 0.275,2.732 1.145,3.794l28.082,34.112c2.994,3.586 6.944,6.251 11.389,7.685c9.69,3.433 23.081,2.864 31.186,-3.559c2.45,-1.884 4.312,-4.429 5.368,-7.334c4.786,-13.507 4.386,-31.394 4.099,-44.207c-0.066,-2.971 -0.127,-5.695 -0.127,-7.498c0,-2.834 -2.332,-5.166 -5.166,-5.166c-2.834,0 -5.166,2.332 -5.166,5.166l0,8.286c0.004,0.054 0.006,0.108 0.006,0.163c0,1.383 -1.139,2.521 -2.522,2.521c-1.383,0 -2.521,-1.138 -2.521,-2.521c0,-0.055 0.002,-0.109 0.006,-0.163l0,-12.221c-0.057,-2.794 -2.371,-5.062 -5.165,-5.062c-2.795,0 -5.109,2.268 -5.165,5.062l0,13.608c0,1.383 -1.138,2.521 -2.522,2.521c-1.383,0 -2.521,-1.138 -2.521,-2.521l0,-18.114c-0.056,-2.795 -2.37,-5.062 -5.165,-5.062c-2.794,0 -5.108,2.267 -5.165,5.062l0,16.763c0.004,0.054 0.006,0.108 0.006,0.162c0,1.383 -1.138,2.521 -2.521,2.521c-1.384,0 -2.522,-1.138 -2.522,-2.521c0,-0.054 0.002,-0.108 0.006,-0.162l0,-40.365c0,-2.834 -2.332,-5.166 -5.166,-5.166c-2.834,0 -5.166,2.332 -5.166,5.166l0,57.287c0.394,0.494 0.779,0.971 1.151,1.421l0.008,-0.009Zm14.213,-49.161c19.326,-4.69 33.045,-22.136 33.045,-42.023c0,-23.722 -19.521,-43.242 -43.243,-43.242c-23.722,0 -43.243,19.52 -43.243,43.242c0,19.887 13.719,37.333 33.045,42.023l0,-9.538c-0.001,-2.098 0.649,-4.146 1.862,-5.859c-2.551,-2.337 -4.005,-5.641 -4.005,-9.099c0,-6.77 5.571,-12.341 12.341,-12.341c6.77,0 12.341,5.571 12.341,12.341c0,3.458 -1.454,6.762 -4.005,9.099c1.213,1.713 1.863,3.761 1.862,5.859l0,9.542l0,-0.004Zm0.38,5.066c-0.128,0.069 -0.254,0.14 -0.38,0.21l0,-0.131l0.38,-0.084l0,0.005Zm-20.776,0.084c-10.53,-2.275 -20.001,-8.015 -26.891,-16.297c-0.189,0.045 -0.382,0.067 -0.576,0.067l-16.79,0l-0.078,10.192c2.716,1.052 4.515,3.68 4.515,6.593c0,3.879 -3.192,7.072 -7.071,7.072c-3.879,0 -7.072,-3.193 -7.072,-7.072c0,-2.951 1.848,-5.606 4.615,-6.631l0.087,-12.671c0,-1.383 1.138,-2.521 2.521,-2.521l16.221,0c-0.804,-1.26 -1.55,-2.557 -2.238,-3.891l-18.866,0c-1.383,0 -2.521,-1.138 -2.521,-2.521c0,-1.383 1.138,-2.521 2.521,-2.521l16.629,0c-0.588,-1.562 -1.095,-3.154 -1.517,-4.769l-22.53,0l-0.076,10.192c2.717,1.053 4.518,3.681 4.518,6.595c0,3.881 -3.194,7.074 -7.074,7.074c-3.881,0 -7.074,-3.193 -7.074,-7.074c0,-2.952 1.849,-5.608 4.618,-6.633l0.086,-12.671c0,-1.383 1.138,-2.521 2.521,-2.521l23.979,0c-0.231,-1.54 -0.387,-3.101 -0.468,-4.683l-30.108,0c-1.043,2.736 -3.682,4.553 -6.609,4.553c-3.881,0 -7.074,-3.193 -7.074,-7.074c0,-3.88 3.193,-7.073 7.074,-7.073c2.927,0 5.566,1.817 6.609,4.552l30.106,0c0.082,-1.582 0.239,-3.143 0.47,-4.683l-24.082,0c-1.381,-0.002 -2.517,-1.14 -2.517,-2.521c0,-0.066 0.003,-0.133 0.008,-0.199l-0.094,-12.467c-2.769,-1.025 -4.617,-3.681 -4.617,-6.634c0,-3.88 3.193,-7.073 7.073,-7.073c3.881,0 7.074,3.193 7.074,7.073c0,2.914 -1.801,5.543 -4.518,6.596l0.085,10.223l22.618,0c0.421,-1.615 0.928,-3.207 1.517,-4.769l-17.808,0c-1.383,0 -2.521,-1.138 -2.521,-2.521c0,-1.383 1.138,-2.521 2.521,-2.521l20.039,0c0.685,-1.335 1.43,-2.632 2.235,-3.891l-16.263,0c-1.381,-0.002 -2.517,-1.139 -2.517,-2.521c0,-0.07 0.003,-0.14 0.009,-0.21l-0.095,-12.467c-2.769,-1.025 -4.617,-3.681 -4.617,-6.633c0,-3.881 3.193,-7.074 7.074,-7.074c3.88,0 7.073,3.193 7.073,7.074c0,2.914 -1.8,5.542 -4.517,6.595l0.078,10.192c5.802,0 11.68,0.096 17.473,-0.013c9.15,-10.987 22.731,-17.35 37.03,-17.35c14.325,0 27.929,6.387 37.079,17.409c0.596,-0.116 15.49,-0.046 17.424,-0.046l0.078,-10.192c-2.717,-1.053 -4.517,-3.681 -4.517,-6.595c0,-3.881 3.193,-7.074 7.073,-7.074c3.881,0 7.074,3.193 7.074,7.074c0,2.952 -1.848,5.608 -4.617,6.633l-0.086,12.671c0,1.383 -1.138,2.521 -2.521,2.521l-16.259,0c0.802,1.26 1.548,2.557 2.235,3.891l20.039,0c1.383,0 2.521,1.138 2.521,2.521c0,1.383 -1.138,2.521 -2.521,2.521l-17.808,0c0.589,1.562 1.096,3.154 1.517,4.769l22.618,0l0.078,-10.192c-2.717,-1.053 -4.517,-3.681 -4.517,-6.595c0,-3.881 3.193,-7.074 7.073,-7.074c3.881,0 7.074,3.193 7.074,7.074c0,2.952 -1.848,5.608 -4.617,6.633l-0.086,12.671c0,1.383 -1.138,2.521 -2.521,2.521l-24.072,0c0.231,1.54 0.388,3.101 0.47,4.683l30.106,0c1.043,-2.736 3.682,-4.553 6.609,-4.553c3.881,0 7.074,3.193 7.074,7.074c0,3.88 -3.193,7.073 -7.074,7.073c-2.927,0 -5.566,-1.817 -6.609,-4.552l-30.108,0c-0.08,1.582 -0.236,3.143 -0.468,4.683l23.986,0c1.381,0.002 2.517,1.139 2.517,2.521c0,0.07 -0.003,0.14 -0.009,0.21l0.092,12.467c2.769,1.025 4.618,3.681 4.618,6.633c0,3.881 -3.193,7.074 -7.074,7.074c-3.88,0 -7.074,-3.193 -7.074,-7.074c0,-2.914 1.801,-5.543 4.518,-6.596l-0.076,-10.191l-22.53,0c-0.422,1.615 -0.929,3.207 -1.517,4.769l16.629,0c1.383,0 2.521,1.138 2.521,2.521c0,1.383 -1.138,2.521 -2.521,2.521l-18.862,0c-0.686,1.335 -1.432,2.632 -2.237,3.891l16.212,0c0.002,0 0.004,0 0.006,0c1.383,0 2.521,1.138 2.521,2.521c0,0.057 -0.002,0.115 -0.006,0.172l0.095,12.467c2.769,1.025 4.617,3.681 4.617,6.633c0,3.881 -3.193,7.074 -7.074,7.074c-3.88,0 -7.073,-3.193 -7.073,-7.074c0,-2.913 1.8,-5.542 4.517,-6.595l-0.078,-10.192l-16.744,0c-0.208,0 -0.416,-0.026 -0.617,-0.077c-5.827,7.002 -13.519,12.215 -22.182,15.034c4.306,-0.176 8.282,2.389 9.898,6.384c1.725,-1.227 3.79,-1.887 5.908,-1.887c3.982,0 7.614,2.334 9.268,5.957c1.759,-1.306 3.892,-2.011 6.083,-2.011c5.589,0 10.192,4.592 10.206,10.181c0,2.588 0.052,4.891 0.107,7.399c0.296,13.202 0.708,31.625 -4.374,45.976c-3.507,9.925 -13.776,14.95 -24.028,16.078c-6.388,0.703 -12.852,-0.02 -18.927,-2.115c-5.283,-1.747 -9.976,-4.931 -13.551,-9.194l-28.12,-34.16c-1.485,-1.819 -2.296,-4.096 -2.296,-6.443c0,-5.59 4.6,-10.189 10.19,-10.189c2.943,0 5.746,1.275 7.68,3.493c2.422,2.543 4.706,5.213 6.842,8l0,-36.2Z" style="fill:url(#_Linear1);"/></g><defs><linearGradient id="_Linear1" x1="0" y1="0" x2="1" y2="0" gradientUnits="userSpaceOnUse" gradientTransform="matrix(132.433,175.672,-175.672,132.433,23.3815,12.0932)"><stop offset="0" style="stop-color:#4d7aff;stop-opacity:1"/><stop offset="1" style="stop-color:#d748f0;stop-opacity:1"/></linearGradient></defs></svg>