<svg width="30" height="30" viewBox="0 0 30 30" fill="none" xmlns="http://www.w3.org/2000/svg">
<path d="M26.3284 12.345L25.6409 12.121C25.6202 12.1156 25.6014 12.1048 25.5863 12.0897C25.5713 12.0745 25.5606 12.0556 25.5554 12.0349C25.4648 11.7546 25.3518 11.4821 25.2175 11.2199C25.2066 11.2015 25.2008 11.1804 25.2008 11.159C25.2008 11.1375 25.2066 11.1165 25.2175 11.098L25.5452 10.4531C25.6327 10.2825 25.6637 10.0886 25.6337 9.89923C25.6037 9.70989 25.5143 9.53499 25.3784 9.39977L24.6364 8.65773C24.501 8.52202 24.326 8.43276 24.1367 8.40278C23.9474 8.37281 23.7534 8.40366 23.5827 8.49091L22.9378 8.81859C22.9194 8.8295 22.8984 8.83525 22.877 8.83525C22.8556 8.83525 22.8346 8.8295 22.8163 8.81859C22.5539 8.6843 22.2811 8.57133 22.0006 8.48078C21.9799 8.47545 21.961 8.46465 21.9459 8.4495C21.9308 8.43435 21.9201 8.41542 21.9148 8.39469L21.6911 7.70656C21.6322 7.52396 21.5167 7.3648 21.3615 7.25204C21.2062 7.13928 21.0191 7.07876 20.8272 7.07921H19.7787C19.5868 7.07876 19.3997 7.13928 19.2444 7.25204C19.0892 7.3648 18.9737 7.52396 18.9148 7.70656L18.6914 8.39439C18.686 8.41509 18.6752 8.434 18.6601 8.44917C18.6451 8.46435 18.6262 8.47526 18.6056 8.48078C18.3248 8.57148 18.0518 8.68445 17.7891 8.81859C17.7707 8.82938 17.7499 8.83508 17.7286 8.83508C17.7073 8.83508 17.6864 8.82938 17.6681 8.81859L17.0229 8.48942C16.8521 8.40235 16.6582 8.37162 16.4689 8.40164C16.2796 8.43167 16.1047 8.5209 15.9692 8.65654L15.2275 9.39829C15.0917 9.53362 15.0024 9.70857 14.9724 9.89792C14.9424 10.0873 14.9733 10.2813 15.0607 10.4519L15.3884 11.0969C15.3991 11.1154 15.4048 11.1364 15.4048 11.1578C15.4048 11.1792 15.3991 11.2002 15.3884 11.2187C15.254 11.4812 15.1409 11.754 15.0503 12.0346C15.0449 12.0553 15.034 12.0741 15.0189 12.0891C15.0038 12.1042 14.9849 12.1149 14.9642 12.1201L14.8188 12.1705H11.7559C11.6532 12.1705 11.5547 12.2113 11.482 12.2839C11.4094 12.3565 11.3686 12.455 11.3686 12.5577V14.023C10.0041 14.4517 8.76697 15.2113 7.76742 16.2343L7.00482 15.0698C7.23029 14.5997 7.33137 14.0796 7.29841 13.5592C7.26545 13.0389 7.09954 12.5357 6.81656 12.0978C6.50992 11.6285 6.07838 11.2541 5.57052 11.0167C5.06266 10.7794 4.49863 10.6885 3.94191 10.7543C3.87643 10.7619 3.81397 10.7861 3.76045 10.8246C3.70693 10.8631 3.66412 10.9146 3.63608 10.9742C3.60804 11.0339 3.59569 11.0997 3.60021 11.1655C3.60473 11.2313 3.62596 11.2948 3.6619 11.3501L4.69468 12.9262L4.26721 14.0525L3.10335 13.9739L2.06848 12.3951C2.03222 12.3399 1.98246 12.2949 1.92392 12.2644C1.86538 12.2339 1.80001 12.2188 1.73401 12.2207C1.66802 12.2225 1.6036 12.2412 1.54686 12.275C1.49012 12.3087 1.44296 12.3564 1.40984 12.4135C1.14044 12.8761 0.998985 13.402 1.00001 13.9373C1.00103 14.4726 1.14448 14.9979 1.41565 15.4595C1.68682 15.921 2.07593 16.302 2.54303 16.5635C3.01013 16.8249 3.53839 16.9573 4.07358 16.9471L5.76768 19.534C5.58758 20.0906 5.46637 20.6646 5.40605 21.2466C4.94318 21.3346 4.52978 21.5921 4.24662 21.9687C3.96345 22.3453 3.83086 22.8139 3.87475 23.283C3.91865 23.7521 4.13588 24.188 4.48399 24.5055C4.83211 24.823 5.2861 24.9993 5.75726 25H22.4922C22.9804 24.9975 23.4488 24.8064 23.7995 24.4667C24.1502 24.127 24.3561 23.6649 24.3742 23.177C24.3923 22.6891 24.2211 22.213 23.8965 21.8483C23.5719 21.4836 23.1189 21.2584 22.6322 21.2198C22.5489 20.4436 22.3576 19.6829 22.0638 18.9597C22.3219 18.8737 22.5732 18.7687 22.8157 18.6454C22.834 18.6346 22.8549 18.6289 22.8761 18.6289C22.8974 18.6289 22.9183 18.6346 22.9366 18.6454L23.5818 18.9731C23.7525 19.0603 23.9464 19.0911 24.1357 19.0611C24.325 19.0311 24.4999 18.9417 24.6352 18.806L25.3766 18.0645C25.5127 17.9293 25.6022 17.7543 25.6323 17.5649C25.6624 17.3754 25.6315 17.1813 25.544 17.0106L25.2164 16.3656C25.2055 16.3473 25.1997 16.3263 25.1997 16.3049C25.1997 16.2835 25.2055 16.2625 25.2164 16.2441C25.3506 15.9817 25.4636 15.709 25.5542 15.4285C25.5597 15.4078 25.5705 15.389 25.5857 15.3739C25.6008 15.3588 25.6196 15.3479 25.6403 15.3424L26.3284 15.1187C26.5109 15.0599 26.6699 14.9446 26.7826 14.7894C26.8952 14.6343 26.9557 14.4474 26.9551 14.2557V13.208C26.9555 13.0163 26.895 12.8295 26.7823 12.6744C26.6697 12.5193 26.5108 12.404 26.3284 12.345ZM12.1425 12.9432H15.8998V21.2126H12.1425V12.9432ZM16.6705 13.8797C16.6726 13.9283 16.6764 13.9766 16.6803 14.0248L16.6705 14.0215V13.8797ZM17.4346 13.7326C17.4339 13.1776 17.5943 12.6343 17.8963 12.1687C18.1984 11.7031 18.6291 11.3352 19.1361 11.1095C19.6432 10.8839 20.2048 10.8103 20.7529 10.8976C21.301 10.985 21.812 11.2295 22.2238 11.6015C22.6356 11.9736 22.9306 12.4571 23.073 12.9935C23.2154 13.53 23.199 14.0962 23.0259 14.6235C22.8528 15.1508 22.5303 15.6165 22.0977 15.9641C21.6651 16.3118 21.1408 16.5264 20.5886 16.5819C19.741 15.6107 18.6868 14.8415 17.5034 14.3305C17.4602 14.1341 17.4376 13.9337 17.4361 13.7326H17.4346ZM16.6705 14.8327C18.0443 15.3065 19.2582 16.155 20.1752 17.2824C21.0922 18.4098 21.6757 19.7711 21.8597 21.2126H16.672L16.6705 14.8327ZM11.368 14.8327V21.2126H6.18145C6.36534 19.7713 6.94854 18.4101 7.86519 17.2827C8.78184 16.1554 9.99543 15.3068 11.3689 14.8327H11.368ZM4.59817 16.3365C4.55954 16.2776 4.5056 16.2304 4.44214 16.1999C4.37868 16.1694 4.30811 16.1568 4.23802 16.1634C3.88473 16.1986 3.52813 16.1495 3.19755 16.02C2.86698 15.8904 2.57189 15.6843 2.33655 15.4184C2.10122 15.1526 1.93239 14.8347 1.84394 14.4908C1.75548 14.147 1.74995 13.7871 1.82779 13.4407L2.56089 14.5598C2.59373 14.6099 2.63771 14.6516 2.6894 14.6818C2.74108 14.712 2.79906 14.7298 2.85878 14.7338L4.50105 14.8449C4.58366 14.85 4.66574 14.8286 4.73537 14.7839C4.80501 14.7392 4.85858 14.6734 4.88831 14.5962L5.48737 13.0174C5.50903 12.9602 5.51686 12.8988 5.51023 12.8381C5.50361 12.7773 5.48271 12.719 5.44924 12.6679L4.71583 11.5488C5.011 11.6049 5.2918 11.7201 5.54139 11.8874C5.79098 12.0546 6.00422 12.2706 6.16835 12.5223C6.39549 12.8743 6.52069 13.2824 6.53005 13.7013C6.53941 14.1201 6.43257 14.5334 6.22137 14.8953C6.18501 14.9574 6.16669 15.0285 6.16848 15.1005C6.17027 15.1724 6.19209 15.2425 6.2315 15.3028L7.2345 16.8342C6.7864 17.3906 6.41009 18.0011 6.11443 18.6514L4.59817 16.3365ZM23.6122 23.1066C23.6119 23.4036 23.4938 23.6883 23.2838 23.8984C23.0739 24.1084 22.7891 24.2266 22.4922 24.227H5.75696C5.60831 24.2294 5.46067 24.2022 5.32264 24.147C5.1846 24.0918 5.05894 24.0097 4.95296 23.9054C4.84698 23.8011 4.76282 23.6768 4.70537 23.5397C4.64791 23.4026 4.61833 23.2554 4.61833 23.1068C4.61833 22.9581 4.64791 22.8109 4.70537 22.6738C4.76282 22.5367 4.84698 22.4124 4.95296 22.3081C5.05894 22.2038 5.1846 22.1217 5.32264 22.0665C5.46067 22.0113 5.60831 21.9841 5.75696 21.9865H22.4922C22.7891 21.9869 23.0738 22.1051 23.2837 22.315C23.4937 22.525 23.6118 22.8097 23.6122 23.1066ZM26.1815 14.2557C26.1826 14.2841 26.1741 14.3121 26.1574 14.3352C26.1406 14.3582 26.1166 14.3749 26.0892 14.3826L25.4005 14.6066C25.2637 14.6502 25.1394 14.726 25.038 14.8276C24.9367 14.9292 24.8611 15.0536 24.8178 15.1905C24.74 15.4314 24.6428 15.6657 24.5273 15.8911C24.4614 16.0187 24.4269 16.1602 24.4269 16.3038C24.4269 16.4475 24.4614 16.589 24.5273 16.7166L24.855 17.3621C24.8689 17.3869 24.874 17.4157 24.8695 17.4438C24.8651 17.4719 24.8512 17.4977 24.8303 17.517L24.0885 18.2587C24.0693 18.2797 24.0435 18.2935 24.0154 18.298C23.9873 18.3025 23.9585 18.2974 23.9336 18.2835L23.2875 17.9558C23.16 17.8897 23.0185 17.8553 22.8749 17.8553C22.7313 17.8553 22.5899 17.8897 22.4624 17.9558C22.2366 18.0713 22.0019 18.1685 21.7605 18.2462C21.7516 18.2492 21.7436 18.254 21.7349 18.257C21.5593 17.9164 21.3611 17.588 21.1415 17.2739C21.7995 17.1189 22.4013 16.7838 22.8796 16.3061C23.3579 15.8284 23.6937 15.227 23.8495 14.5692C24.0053 13.9114 23.9749 13.2232 23.7617 12.5818C23.5485 11.9403 23.1609 11.3708 22.6423 10.9372C22.1238 10.5035 21.4947 10.2228 20.8257 10.1265C20.1566 10.0301 19.4739 10.1219 18.8541 10.3916C18.2342 10.6613 17.7017 11.0983 17.3161 11.6535C16.9306 12.2088 16.7072 12.8604 16.6711 13.5354V12.5577C16.6711 12.455 16.6303 12.3565 16.5576 12.2839C16.485 12.2113 16.3865 12.1705 16.2838 12.1705H15.8251C15.8954 11.9664 15.9796 11.7673 16.0771 11.5747C16.1431 11.447 16.1776 11.3054 16.1776 11.1616C16.1776 11.0179 16.1431 10.8763 16.0771 10.7486L15.7494 10.1037C15.7355 10.0789 15.7304 10.0501 15.7348 10.022C15.7393 9.99392 15.753 9.96814 15.7738 9.94879L16.5153 9.20734C16.5346 9.18635 16.5605 9.17248 16.5887 9.16794C16.6169 9.16341 16.6458 9.16847 16.6708 9.18231L17.316 9.50999C17.4435 9.57597 17.585 9.6104 17.7286 9.6104C17.8722 9.6104 18.0136 9.57597 18.1412 9.50999C18.3667 9.39477 18.6011 9.29775 18.8421 9.21985C18.9789 9.17639 19.1033 9.10078 19.2049 8.99935C19.3065 8.89792 19.3823 8.77363 19.426 8.63688L19.65 7.94815C19.6578 7.92074 19.6745 7.89673 19.6976 7.87998C19.7207 7.86324 19.7487 7.85472 19.7772 7.85581H20.826C20.8545 7.85474 20.8825 7.86326 20.9055 7.88001C20.9285 7.89676 20.9452 7.92076 20.953 7.94815L21.1767 8.63658C21.2204 8.77345 21.2962 8.89785 21.3979 8.99933C21.4996 9.10082 21.6242 9.17644 21.7611 9.21985C22.0019 9.29759 22.236 9.39462 22.4612 9.50999C22.5888 9.57605 22.7304 9.61052 22.874 9.61052C23.0177 9.61052 23.1593 9.57605 23.2869 9.50999L23.9319 9.18231C23.9567 9.16837 23.9855 9.16319 24.0137 9.16762C24.0418 9.17205 24.0677 9.18583 24.0871 9.20674L24.8294 9.94879C24.8502 9.96814 24.8639 9.99395 24.8683 10.0221C24.8727 10.0502 24.8675 10.0789 24.8535 10.1037L24.5258 10.7489C24.4599 10.8765 24.4254 11.018 24.4254 11.1616C24.4254 11.3053 24.4599 11.4468 24.5258 11.5744C24.6412 11.7998 24.7384 12.0341 24.8163 12.275C24.8596 12.4118 24.9351 12.5362 25.0364 12.6378C25.1377 12.7394 25.262 12.8152 25.3987 12.8589L26.0877 13.0829C26.1151 13.0906 26.1391 13.1073 26.1558 13.1304C26.1726 13.1534 26.1811 13.1813 26.18 13.2098L26.1815 14.2557ZM28.5536 11.6798C28.5051 11.695 28.454 11.7004 28.4034 11.6958C28.3527 11.6911 28.3035 11.6765 28.2585 11.6527C28.2136 11.629 28.1737 11.5966 28.1414 11.5573C28.109 11.5181 28.0847 11.4729 28.0699 11.4242C27.5405 9.78125 26.5031 8.34877 25.1072 7.33329C23.7114 6.3178 22.0291 5.77175 20.303 5.77385C18.6765 5.75864 17.0836 6.23566 15.7332 7.14227C14.3828 8.04888 13.3382 9.34268 12.7365 10.8538C12.7195 10.9033 12.6926 10.9488 12.6575 10.9876C12.6224 11.0264 12.5797 11.0576 12.5322 11.0795C12.4847 11.1014 12.4332 11.1134 12.3809 11.1148C12.3286 11.1162 12.2765 11.107 12.2278 11.0877C12.1792 11.0685 12.1349 11.0396 12.0978 11.0027C12.0606 10.9659 12.0313 10.9219 12.0116 10.8734C11.9919 10.8249 11.9822 10.773 11.9832 10.7206C11.9841 10.6683 11.9957 10.6167 12.0171 10.569C12.7092 8.8699 13.9072 7.42479 15.4485 6.42968C16.9898 5.43458 18.7999 4.93764 20.6333 5.00626C22.4667 5.07488 24.2346 5.70575 25.6972 6.8133C27.1598 7.92084 28.2464 9.45146 28.8095 11.1975C28.8396 11.2956 28.8295 11.4016 28.7815 11.4922C28.7336 11.5828 28.6516 11.6507 28.5536 11.681V11.6798Z" fill="url(#paint0_linear_1774_227)"/>
<defs>
<linearGradient id="paint0_linear_1774_227" x1="1.00008" y1="15.0482" x2="28.8271" y2="15.0482" gradientUnits="userSpaceOnUse">
<stop stop-color="#1685FF"/>
<stop offset="0.5" stop-color="#8B5CF6"/>
<stop offset="1" stop-color="#D946EF"/>
</linearGradient>
</defs>
</svg>
