<?xml version="1.0" encoding="UTF-8" standalone="no"?><!DOCTYPE svg PUBLIC "-//W3C//DTD SVG 1.1//EN" "http://www.w3.org/Graphics/SVG/1.1/DTD/svg11.dtd"><svg width="100%" height="100%" viewBox="0 0 512 512" version="1.1" xmlns="http://www.w3.org/2000/svg" xmlns:xlink="http://www.w3.org/1999/xlink" xml:space="preserve" xmlns:serif="http://www.serif.com/" style="fill-rule:evenodd;clip-rule:evenodd;stroke-linejoin:round;stroke-miterlimit:2;"><rect id="Artboard1" x="0" y="0" width="512" height="512" style="fill:none;"/><g><path d="M465.869,79.71l-33.737,-0c-42.117,-0 -82.682,-12.672 -117.308,-36.644l-54.045,-37.416c-2.875,-1.989 -6.681,-1.989 -9.557,0l-54.045,37.416c-34.627,23.972 -75.192,36.644 -117.309,36.644l-33.737,-0c-4.636,-0 -8.394,3.759 -8.394,8.395l-0,140.246c-0,61.404 19.135,120.076 55.338,169.671c36.202,49.595 86.249,85.703 144.733,104.417l15.633,5.003c0.832,0.267 1.695,0.4 2.558,0.4c0.863,-0 1.727,-0.133 2.558,-0.4l15.633,-5.002c58.482,-18.714 108.531,-54.822 144.733,-104.417c36.202,-49.595 55.34,-108.268 55.34,-169.672l0,-140.246c0,-4.636 -3.758,-8.395 -8.394,-8.395Zm-8.395,148.641c-0,57.822 -18.019,113.069 -52.109,159.772c-34.091,46.702 -81.219,80.703 -136.29,98.325l-13.075,4.186l-13.075,-4.185c-55.07,-17.622 -102.199,-51.623 -136.29,-98.325c-34.09,-46.703 -52.109,-101.951 -52.109,-159.773l0,-131.852l25.342,0c45.548,0 89.417,-13.704 126.864,-39.629l49.268,-34.108l49.267,34.108c37.448,25.925 81.316,39.629 126.865,39.629l25.342,0l-0,131.852Zm-196.229,-180.381c-3.067,-2.452 -7.423,-2.452 -10.49,0l-11.838,9.473c-45.017,36.013 -101.558,55.846 -159.207,55.846c-4.636,-0 -8.394,3.759 -8.394,8.395l-0,101.847c-0,104.68 62.17,198.965 158.386,240.201l22.99,9.853c1.056,0.452 2.182,0.679 3.307,0.679c1.125,-0 2.252,-0.227 3.306,-0.679l22.99,-9.853c96.219,-41.236 158.389,-135.521 158.389,-240.201l0,-101.847c0,-4.636 -3.758,-8.395 -8.394,-8.395c-57.649,-0 -114.19,-19.833 -159.206,-55.846l-11.839,-9.473Zm162.65,175.561c-0,97.955 -58.176,186.183 -148.211,224.769l-19.684,8.435l-19.684,-8.436c-90.035,-38.586 -148.211,-126.813 -148.211,-224.768l0,-93.584c58.521,-1.832 115.504,-22.758 161.3,-59.394l6.595,-5.277l6.596,5.277c45.795,36.636 102.778,57.562 161.299,59.394l-0,93.584Zm-302.211,32.468c0,74.063 60.254,134.316 134.316,134.316c74.062,0 134.316,-60.253 134.316,-134.316c-0,-74.062 -60.254,-134.315 -134.316,-134.315c-74.062,-0 -134.316,60.253 -134.316,134.315Zm16.813,1.795l0.624,0.313c2.878,1.431 5.953,2.156 9.138,2.156c6.285,-0 12.064,-2.811 15.91,-7.554l7.454,5.591c4.09,3.066 8.897,4.652 13.809,4.651c2.325,0 4.674,-0.354 6.984,-1.076c7.188,-2.246 12.676,-7.632 15.058,-14.775l1.397,-4.181c0.285,-0.857 0.432,-1.755 0.432,-2.66l0,-11.008c0,-3.561 2.416,-6.652 5.871,-7.518l1.334,-0.334c6.734,-1.682 12.14,-6.588 14.461,-13.126c2.32,-6.535 1.22,-13.75 -2.941,-19.296l-6.371,-8.497c-4.522,-6.018 -9.706,-11.475 -15.406,-16.213l-10.776,-8.976c17.692,-10.671 38.403,-16.818 60.525,-16.818c11.751,0 23.101,1.742 33.815,4.967l-9.457,7.879c-5.389,4.486 -8.662,11.077 -8.982,18.082c-0.321,7.011 2.342,13.878 7.306,18.841c1.554,1.554 2.41,3.622 2.41,5.82c-0,1.356 -0.332,3.373 -1.91,5.269l-14.63,17.553c-11.245,13.503 -13.437,32.377 -5.58,48.087c5.618,11.222 16.907,18.194 29.463,18.194c7.144,-0 13.958,-2.278 19.709,-6.591c2.981,-2.238 6.928,-3.064 10.605,-2.14c4.694,1.171 9.521,1.765 14.348,1.765c11.717,0 23.065,-3.432 32.832,-9.936c2.206,-1.475 4.751,-2.485 7.362,-2.934c-0.794,12.844 -3.659,25.135 -8.266,36.544c-4.191,-0.798 -8.448,-1.202 -12.724,-1.202c-8.683,0 -17.178,1.635 -25.255,4.862c-14.756,5.91 -22.972,21.988 -19.111,37.394l4.531,18.118c-16.768,9.225 -36.014,14.481 -56.466,14.481c-64.204,-0 -116.54,-51.754 -117.503,-115.732Zm132.773,40.919l-25.094,-10.038c-1.173,-0.469 -2.28,-1.091 -3.29,-1.848l-7.233,-5.424c-7.417,-5.561 -16.843,-7.533 -25.868,-5.401c-9.023,2.13 -16.576,8.108 -20.722,16.4l-1.127,2.255l-0.001,0c-2.153,4.307 -3.29,9.129 -3.29,13.942l-0,16.666c-0,8.327 3.242,16.155 9.131,22.045l7.817,7.816c5.895,5.897 13.93,9.121 22.113,9.121c2.503,-0 5.018,-0.302 7.493,-0.92l16.247,-4.062c1.139,-0.284 2.313,-0.429 3.488,-0.429l8.757,0c9.378,0 18.165,-4.158 24.11,-11.41c5.945,-7.252 8.3,-16.685 6.461,-25.88c-2.074,-10.371 -9.174,-18.906 -18.992,-22.833Zm56.071,50.615l-3.121,-12.478c-1.83,-7.304 2.068,-14.928 9.06,-17.728c6.081,-2.43 12.48,-3.661 19.02,-3.661c1.636,-0 3.268,0.085 4.892,0.242c-7.718,13.033 -17.879,24.452 -29.851,33.625Zm-56.524,-12.548c-2.743,3.346 -6.799,5.266 -11.126,5.266l-8.757,-0c-2.548,-0 -5.093,0.313 -7.562,0.93l-16.246,4.061c-4.874,1.22 -10.109,-0.231 -13.662,-3.784l-7.817,-7.816c-2.718,-2.717 -4.214,-6.331 -4.214,-10.174l0,-16.665c0,-2.222 0.526,-4.446 1.519,-6.435l1.126,-2.254c1.913,-3.826 5.399,-6.584 9.563,-7.568c4.162,-0.983 8.513,-0.074 11.937,2.493l7.233,5.424c2.187,1.641 4.585,2.988 7.128,4.005l25.095,10.038c4.53,1.812 7.806,5.751 8.764,10.536c0.85,4.244 -0.237,8.597 -2.981,11.943Zm102.309,-90.449l-2.487,0.413c-4.985,0.829 -9.841,2.753 -14.029,5.553c-6.988,4.653 -15.118,7.112 -23.513,7.112c-3.457,-0 -6.918,-0.426 -10.27,-1.263c-2.33,-0.585 -4.73,-0.882 -7.132,-0.882c-6.318,-0 -12.579,2.089 -17.629,5.879c-2.818,2.114 -6.148,3.231 -9.632,3.231c-6.159,0 -11.696,-3.417 -14.449,-8.916c-4.871,-9.743 -3.51,-21.452 3.466,-29.828l14.633,-17.557c3.738,-4.494 5.796,-10.181 5.796,-16.012c0,-6.684 -2.602,-12.967 -7.327,-17.691c-1.658,-1.659 -2.513,-3.862 -2.405,-6.204c0.107,-2.338 1.155,-4.448 2.954,-5.946l16.534,-13.777c36.246,17.803 62.04,53.729 65.49,95.888Zm-191.827,-80.999l14.214,11.841c4.703,3.91 8.984,8.417 12.717,13.385l6.367,8.494c1.081,1.44 0.809,2.876 0.55,3.604c-0.258,0.729 -0.954,2.017 -2.71,2.456l-1.342,0.335c-10.94,2.742 -18.581,12.531 -18.581,23.805l-0,9.643l-0.966,2.891c-0.656,1.966 -2.163,3.447 -4.138,4.064c-1.975,0.618 -4.058,0.259 -5.714,-0.982l-10.716,-8.037c-3.093,-2.311 -7.018,-3.125 -10.778,-2.235c-3.749,0.889 -6.888,3.375 -8.606,6.812c-0.765,1.524 -2.225,2.067 -3.337,2.067c-0.569,-0 -1.129,-0.136 -1.647,-0.393l-6.986,-3.494c4.176,-29.758 19.528,-55.977 41.673,-74.256Z" style="fill:url(#_Linear1);fill-rule:nonzero;"/></g><defs><linearGradient id="_Linear1" x1="0" y1="0" x2="1" y2="0" gradientUnits="userSpaceOnUse" gradientTransform="matrix(436.529,0,0,489.612,37.7361,257.213)"><stop offset="0" style="stop-color:#1685ff;stop-opacity:1"/><stop offset="0.5" style="stop-color:#8b5cf6;stop-opacity:1"/><stop offset="1" style="stop-color:#d946ef;stop-opacity:1"/></linearGradient></defs></svg>