<svg width="64" height="65" viewBox="0 0 64 65" fill="none" xmlns="http://www.w3.org/2000/svg">
<path d="M32 33.4598C37.9222 33.4598 42.7397 28.6423 42.7397 22.7201C42.7397 16.798 37.9222 11.9805 32 11.9805C26.0778 11.9805 21.2603 16.798 21.2603 22.7201C21.2603 28.6423 26.0778 33.4598 32 33.4598ZM32 14.566C36.4962 14.566 40.1542 18.2233 40.1542 22.7201C40.1542 27.217 36.4962 30.8743 32 30.8743C27.5038 30.8743 23.8458 27.217 23.8458 22.7201C23.8458 18.2233 27.5038 14.566 32 14.566Z" fill="url(#paint0_linear_449_1157)"/>
<path d="M2.5855 22.7288C2.5855 16.5302 4.41732 10.536 7.88275 5.39785C8.28169 4.80576 8.12577 4.00158 7.53368 3.60264C6.94159 3.20497 6.1393 3.35899 5.73911 3.95234C1.98457 9.51975 0 16.0125 0 22.7288C0 26.5717 0.653319 30.3628 1.94165 33.9962C2.12913 34.5264 2.62779 34.8572 3.15992 34.8572C3.30321 34.8572 3.44902 34.8332 3.59168 34.7827C4.26456 34.5441 4.61679 33.8055 4.37818 33.1327C3.18895 29.7771 2.5855 26.2763 2.5855 22.7288Z" fill="url(#paint1_linear_449_1157)"/>
<path d="M9.25378 22.7289C9.25378 17.8596 10.6936 13.1519 13.4173 9.11462C13.8163 8.52253 13.6604 7.71835 13.0683 7.31942C12.4768 6.92174 11.6733 7.07703 11.2737 7.66785C8.26086 12.1344 6.66827 17.342 6.66827 22.7289C6.66827 25.8535 7.19345 28.8947 8.22866 31.7681C8.41866 32.2958 8.91544 32.6227 9.44504 32.6227C9.59085 32.6227 9.73856 32.5988 9.88311 32.5457C10.5547 32.3046 10.9032 31.5635 10.6614 30.8919C9.72719 28.3001 9.25378 25.553 9.25378 22.7289Z" fill="url(#paint2_linear_449_1157)"/>
<path d="M15.7295 30.3893C15.8753 30.3893 16.0237 30.3654 16.1689 30.3123C16.8405 30.0699 17.1883 29.3289 16.9453 28.6573C16.2661 26.7787 15.922 24.7841 15.922 22.7288C15.922 19.1699 16.9636 15.7487 18.9349 12.8337C19.3345 12.2416 19.1792 11.4374 18.5877 11.0385C17.9956 10.6395 17.1921 10.7936 16.7925 11.3857C14.5315 14.7299 13.3365 18.6523 13.3365 22.7288C13.3365 25.0858 13.7323 27.3759 14.5138 29.5359C14.7038 30.0624 15.2006 30.3893 15.7295 30.3893Z" fill="url(#paint3_linear_449_1157)"/>
<path d="M58.2609 3.95234C57.8613 3.35899 57.0572 3.20497 56.4663 3.60264C55.8742 4.00158 55.7183 4.80576 56.1173 5.39785C59.5827 10.536 61.4145 16.5302 61.4145 22.7288C61.4145 26.2763 60.8111 29.7771 59.6218 33.1327C59.3832 33.8055 59.7354 34.5441 60.4083 34.7827C60.551 34.8332 60.6968 34.8572 60.8401 34.8572C61.3722 34.8572 61.8709 34.5264 62.0584 33.9962C63.3467 30.3628 64 26.5717 64 22.7288C64 16.0125 62.0154 9.51975 58.2609 3.95234Z" fill="url(#paint4_linear_449_1157)"/>
<path d="M50.9317 7.31942C50.3397 7.71835 50.1837 8.52253 50.5827 9.11462C53.3064 13.1519 54.7462 17.8596 54.7462 22.7289C54.7462 25.553 54.2728 28.3001 53.3386 30.8919C53.0969 31.5635 53.4453 32.3046 54.1169 32.5457C54.2615 32.5988 54.4092 32.6227 54.555 32.6227C55.0846 32.6227 55.5814 32.2945 55.7714 31.7681C56.8066 28.8947 57.3317 25.8535 57.3317 22.7289C57.3317 17.342 55.7392 12.1344 52.7263 7.66785C52.3261 7.07703 51.5226 6.92174 50.9317 7.31942Z" fill="url(#paint5_linear_449_1157)"/>
<path d="M45.4123 11.0385C44.8208 11.4374 44.6655 12.2416 45.0651 12.8337C47.0364 15.7487 48.0779 19.1699 48.0779 22.7288C48.0779 24.7841 47.7339 26.7787 47.0547 28.6573C46.8117 29.3289 47.1595 30.0699 47.8311 30.3123C47.9763 30.3654 48.1247 30.3893 48.2705 30.3893C48.7994 30.3893 49.2962 30.0624 49.4862 29.5359C50.2677 27.3759 50.6635 25.0858 50.6635 22.7288C50.6635 18.6523 49.4685 14.7299 47.2075 11.3857C46.8073 10.7936 46.0037 10.6395 45.4123 11.0385Z" fill="url(#paint6_linear_449_1157)"/>
<path d="M40.3448 33.8892C40.0879 33.8892 39.8373 33.9662 39.6239 34.1088C35.0968 37.1488 28.9032 37.1488 24.376 34.1088C24.1627 33.9662 23.8698 33.8892 23.6129 33.8892C18.4476 33.8892 14.2449 38.0919 14.2449 43.2566V61.2983C14.2449 62.0128 14.8237 62.591 15.5376 62.591C16.2515 62.591 16.8304 62.0128 16.8304 61.2983V43.2566C16.8304 39.6396 19.6766 36.6754 23.2853 36.4848C25.8967 38.1424 28.9 39.0172 32 39.0172C35.1006 39.0172 38.1058 38.1424 40.7172 36.4822C44.3045 36.6552 47.1696 39.6283 47.1696 43.2566V61.2983C47.1696 62.0128 47.7485 62.591 48.4624 62.591C49.1763 62.591 49.7551 62.0128 49.7551 61.2983V43.2566C49.7551 38.0919 45.5524 33.8892 40.3448 33.8892Z" fill="url(#paint7_linear_449_1157)"/>
<path d="M23.5952 47.1899C22.8813 47.1899 22.3025 47.7681 22.3025 48.4827V61.2978C22.3025 62.0124 22.8813 62.5906 23.5952 62.5906C24.3092 62.5906 24.888 62.0124 24.888 61.2978V48.4827C24.888 47.7681 24.3092 47.1899 23.5952 47.1899Z" fill="url(#paint8_linear_449_1157)"/>
<path d="M40.4048 47.1899C39.6908 47.1899 39.112 47.7681 39.112 48.4827V61.2978C39.112 62.0124 39.6908 62.5906 40.4048 62.5906C41.1187 62.5906 41.6975 62.0124 41.6975 61.2978V48.4827C41.6975 47.7681 41.1187 47.1899 40.4048 47.1899Z" fill="url(#paint9_linear_449_1157)"/>
<defs>
<linearGradient id="paint0_linear_449_1157" x1="21.2604" y1="22.7719" x2="42.7401" y2="22.7719" gradientUnits="userSpaceOnUse">
<stop stop-color="#1685FF"/>
<stop offset="0.5" stop-color="#8B5CF6"/>
<stop offset="1" stop-color="#D946EF"/>
</linearGradient>
<linearGradient id="paint1_linear_449_1157" x1="2.21043e-05" y1="19.1954" x2="8.10391" y2="19.1954" gradientUnits="userSpaceOnUse">
<stop stop-color="#1685FF"/>
<stop offset="0.5" stop-color="#8B5CF6"/>
<stop offset="1" stop-color="#D946EF"/>
</linearGradient>
<linearGradient id="paint2_linear_449_1157" x1="6.66829" y1="19.9224" x2="13.6385" y2="19.9224" gradientUnits="userSpaceOnUse">
<stop stop-color="#1685FF"/>
<stop offset="0.5" stop-color="#8B5CF6"/>
<stop offset="1" stop-color="#D946EF"/>
</linearGradient>
<linearGradient id="paint3_linear_449_1157" x1="13.3366" y1="20.6503" x2="19.1567" y2="20.6503" gradientUnits="userSpaceOnUse">
<stop stop-color="#1685FF"/>
<stop offset="0.5" stop-color="#8B5CF6"/>
<stop offset="1" stop-color="#D946EF"/>
</linearGradient>
<linearGradient id="paint4_linear_449_1157" x1="55.8963" y1="19.1954" x2="64.0002" y2="19.1954" gradientUnits="userSpaceOnUse">
<stop stop-color="#1685FF"/>
<stop offset="0.5" stop-color="#8B5CF6"/>
<stop offset="1" stop-color="#D946EF"/>
</linearGradient>
<linearGradient id="paint5_linear_449_1157" x1="50.3617" y1="19.9224" x2="57.3319" y2="19.9224" gradientUnits="userSpaceOnUse">
<stop stop-color="#1685FF"/>
<stop offset="0.5" stop-color="#8B5CF6"/>
<stop offset="1" stop-color="#D946EF"/>
</linearGradient>
<linearGradient id="paint6_linear_449_1157" x1="44.8434" y1="20.6503" x2="50.6636" y2="20.6503" gradientUnits="userSpaceOnUse">
<stop stop-color="#1685FF"/>
<stop offset="0.5" stop-color="#8B5CF6"/>
<stop offset="1" stop-color="#D946EF"/>
</linearGradient>
<linearGradient id="paint7_linear_449_1157" x1="14.245" y1="48.3092" x2="49.7559" y2="48.3092" gradientUnits="userSpaceOnUse">
<stop stop-color="#1685FF"/>
<stop offset="0.5" stop-color="#8B5CF6"/>
<stop offset="1" stop-color="#D946EF"/>
</linearGradient>
<linearGradient id="paint8_linear_449_1157" x1="22.3025" y1="54.9274" x2="24.888" y2="54.9274" gradientUnits="userSpaceOnUse">
<stop stop-color="#1685FF"/>
<stop offset="0.5" stop-color="#8B5CF6"/>
<stop offset="1" stop-color="#D946EF"/>
</linearGradient>
<linearGradient id="paint9_linear_449_1157" x1="39.112" y1="54.9274" x2="41.6976" y2="54.9274" gradientUnits="userSpaceOnUse">
<stop stop-color="#1685FF"/>
<stop offset="0.5" stop-color="#8B5CF6"/>
<stop offset="1" stop-color="#D946EF"/>
</linearGradient>
</defs>
</svg>
