<?xml version="1.0" encoding="UTF-8"?><svg id="a" xmlns="http://www.w3.org/2000/svg" xmlns:xlink="http://www.w3.org/1999/xlink" viewBox="0 0 50 50"><defs><style>.c{fill:url(#b);}</style><linearGradient id="b" x1="2.29" y1="25.84" x2="47.71" y2="25.84" gradientTransform="matrix(1, 0, 0, 1, 0, 0)" gradientUnits="userSpaceOnUse"><stop offset=".01" stop-color="#4376fc"/><stop offset=".99" stop-color="#c84bf1"/></linearGradient></defs><path class="c" d="M31.15,27.96c0,.34,.28,.62,.62,.62h6.5c.34,0,.62-.28,.62-.62v-2.85c0-.34-.28-.62-.62-.62h-6.5c-.34,0-.62,.28-.62,.62v2.85Zm1.24-2.23h5.26v1.61h-5.26v-1.61Zm-.62-12.17h6.5c.34,0,.62-.28,.62-.62v-2.85c0-.34-.28-.62-.62-.62h-6.5c-.34,0-.62,.28-.62,.62v2.85c0,.34,.28,.62,.62,.62Zm.62-2.85h5.26v1.61h-5.26v-1.61Zm-1.24,7.24c0,.34,.28,.62,.62,.62h6.5c.34,0,.62-.28,.62-.62v-2.85c0-.34-.28-.62-.62-.62h-6.5c-.34,0-.62,.28-.62,.62v2.85Zm1.24-2.23h5.26v1.61h-5.26v-1.61Zm-1.24,7.24c0,.34,.28,.62,.62,.62h6.5c.34,0,.62-.28,.62-.62v-2.85c0-.34-.28-.62-.62-.62h-6.5c-.34,0-.62,.28-.62,.62v2.85Zm1.24-2.23h5.26v1.61h-5.26v-1.61Zm-3.77-10.45c.34,0,.62,.28,.62,.62V27.16c0,.34-.28,.62-.62,.62s-.62-.28-.62-.62V10.89c0-.34,.28-.62,.62-.62h0Zm-2.27,0c.34,0,.62,.28,.62,.62v5.39c0,.34-.28,.62-.62,.62s-.62-.28-.62-.62v-5.39c0-.34,.28-.62,.62-.62h0Zm-14.12,10.11c-.34,0-.62,.28-.62,.62v2.69c0,.34,.28,.62,.62,.62h2.68c.34,0,.62-.28,.62-.62v-2.69c0-.34-.28-.62-.62-.62h-2.68Zm2.06,2.69h-1.44v-1.45h1.44v1.45Zm2.57-2.69c-.34,0-.62,.28-.62,.62v2.69c0,.34,.28,.62,.62,.62h2.69c.34,0,.62-.28,.62-.62v-2.69c0-.34-.28-.62-.62-.62h-2.69Zm2.07,2.69h-1.45v-1.45h1.45v1.45Zm5.95,.62v-2.69c0-.34-.28-.62-.62-.62h-2.68c-.34,0-.62,.28-.62,.62v2.69c0,.34,.28,.62,.62,.62h2.68c.34,0,.62-.28,.62-.62Zm-1.24-.62h-1.44v-1.45h1.44v1.45Zm20.42,11.38c-.15-.02-.31,.01-.44,.1-.66,.45-1.43,.68-2.23,.68s-1.57-.24-2.23-.68c-.13-.09-.29-.12-.44-.1-.85,.13-1.63,.51-2.24,1.07,.35-.56,.56-1.23,.56-1.94,0-2.03-1.65-3.68-3.68-3.68s-3.68,1.65-3.68,3.68c0,.55,.12,1.07,.34,1.54-.58-.48-1.29-.8-2.07-.92-.15-.02-.31,.01-.44,.1-.66,.45-1.43,.68-2.23,.68s-1.58-.24-2.24-.68c-.13-.09-.28-.12-.44-.1-1.76,.26-3.15,1.61-3.53,3.3h-.99v-5.23h0v-2.58c0-.94-.76-1.7-1.7-1.7h-2.59v-.52c0-.81-.66-1.46-1.46-1.46h-1.53v-6.91h14.91v8.25c-.14-.02-.28-.03-.43-.03-2.03,0-3.68,1.65-3.68,3.68s1.65,3.68,3.68,3.68,3.68-1.65,3.68-3.68c0-1.43-.82-2.66-2.01-3.27v-9.24c0-.34-.28-.62-.62-.62h-1.95v-1.51c0-.34-.28-.62-.62-.62h-.41V7.99h17.44V27.62c-1.74,.29-3.07,1.81-3.07,3.63,0,2.03,1.65,3.68,3.68,3.68s3.68-1.65,3.68-3.68c0-1.81-1.32-3.32-3.05-3.63V7.37c0-.34-.28-.62-.62-.62h-2.67v-1.51c0-.34-.28-.62-.62-.62h-12.1c-.34,0-.62,.28-.62,.62v1.51h-2.67c-.34,0-.62,.28-.62,.62V15.72H12.76c-.34,0-.62,.28-.62,.62v1.51h-1.95c-.34,0-.62,.28-.62,.62v7.53h-1.53c-.8,0-1.46,.66-1.46,1.46v.52H3.99c-.94,0-1.7,.76-1.7,1.7v2.58h0v6.08c0,.94,.77,1.7,1.7,1.7h12.4c.8,0,1.48-.56,1.66-1.31h.94v4.07c0,.26,.16,.49,.4,.58,1.94,.73,3.91,1.09,5.88,1.09,.6,0,1.2-.03,1.8-.1v1.02c0,.26,.16,.49,.4,.58,1.94,.73,3.91,1.09,5.87,1.09s3.94-.36,5.91-1.09c.24-.09,.41-.32,.41-.58v-.75c.57,.06,1.14,.09,1.71,.09,1.97,0,3.96-.36,5.92-1.09,.24-.09,.41-.32,.41-.58v-4.41c0-2.09-1.56-3.9-3.63-4.21h0Zm-16.36-3.46c0,1.34-1.09,2.44-2.44,2.44s-2.44-1.1-2.44-2.44,1.09-2.44,2.44-2.44c1.34,0,2.44,1.09,2.44,2.44Zm16.12,.26c0,1.34-1.09,2.44-2.44,2.44s-2.44-1.09-2.44-2.44,1.1-2.44,2.44-2.44,2.44,1.09,2.44,2.44ZM26.65,5.86h10.86v.89h-10.86v-.89Zm-13.26,11.1h9.76v.89H13.38v-.89Zm19.99,14.18c1.34,0,2.44,1.09,2.44,2.44s-1.1,2.44-2.44,2.44-2.44-1.09-2.44-2.44c0-1.34,1.1-2.44,2.44-2.44Zm2.43,5.2c-.13,.2-.25,.42-.35,.65-.63,.39-1.34,.59-2.09,.59s-1.41-.19-2.01-.55c-.06-.18-.14-.36-.22-.53,.62,.48,1.39,.76,2.23,.76,.93,0,1.78-.35,2.43-.92h0ZM7.83,27.46c0-.12,.1-.22,.22-.22h4.3c.12,0,.22,.1,.22,.22v.52H7.83v-.52Zm-4.29,2.22c0-.25,.21-.46,.46-.46h12.4c.25,0,.46,.21,.46,.46v2.17l-2.5,1.07-2.54,1.09h0c0-.59-.47-1.06-1.05-1.06h-1.14c-.58,0-1.05,.47-1.05,1.05h0l-5.04-2.14v-2.17Zm7.04,4.51v.76h0v1.18h-.75v-1.17h0v-.77h.75Zm6.28,4.16c0,.25-.21,.46-.46,.46H4c-.25,0-.46-.21-.46-.46v-5.14l5.04,2.15v.96c0,.58,.47,1.05,1.05,1.05h1.14c.58,0,1.05-.47,1.05-1.05v-.96l3.03-1.3,2.01-.86v5.14Zm10.22,2.64v2.14c-2.28,.28-4.58,.03-6.84-.76v-3.97c0-1.4,.99-2.63,2.35-2.93,.82,.5,1.75,.76,2.71,.76s1.9-.26,2.71-.76c.85,.19,1.56,.74,1.97,1.49-1.7,.57-2.9,2.19-2.9,4.03h0Zm11.36,3.97c-3.38,1.15-6.78,1.15-10.12,0v-3.97c0-1.4,.99-2.63,2.35-2.93,.82,.5,1.75,.76,2.71,.76s1.9-.26,2.71-.76c1.35,.31,2.35,1.53,2.35,2.93v3.97Zm8.04-2.33c-2.27,.77-4.55,1.03-6.79,.77v-2.4c0-1.8-1.16-3.4-2.81-4,.43-.64,1.08-1.1,1.84-1.27,.82,.5,1.75,.76,2.71,.76s1.89-.26,2.71-.76c1.35,.31,2.35,1.53,2.35,2.94v3.96Z"/></svg>