<svg width="30" height="30" viewBox="0 0 30 30" fill="none" xmlns="http://www.w3.org/2000/svg">
<path d="M25.9617 26.7772H4.54577C4.36662 26.7772 4.22079 26.6324 4.22079 26.4522V5.03633C4.22079 4.85718 4.36557 4.71135 4.54577 4.71135C4.72493 4.71135 4.87076 4.85613 4.87076 5.03633V26.1275H6.95497V20.1591C6.95497 19.98 7.09975 19.8341 7.27996 19.8341C7.45911 19.8341 7.60494 19.9789 7.60494 20.1591V26.1275H10.2308V22.7557C10.2308 22.5766 10.3756 22.4307 10.5558 22.4307C10.7349 22.4307 10.8808 22.5755 10.8808 22.7557V26.1275H13.5066L13.5045 19.0592C13.5045 18.8801 13.6493 18.7342 13.8295 18.7342C14.0087 18.7342 14.1545 18.879 14.1545 19.0592V26.1275H16.7803L16.7793 21.2414C16.7793 21.0623 16.9241 20.9165 17.1043 20.9165C17.2834 20.9165 17.4293 21.0612 17.4293 21.2414V26.1275H20.0551L20.0541 16.473C20.0541 16.2939 20.1989 16.148 20.3791 16.148C20.5582 16.148 20.7041 16.2928 20.7041 16.473V26.1275H25.9631C26.1423 26.1275 26.2881 26.2722 26.2881 26.4524C26.286 26.6316 26.1412 26.7774 25.9621 26.7774L25.9617 26.7772ZM5.50276 5.22587C5.60692 5.37169 5.81002 5.40606 5.95585 5.3019C6.10167 5.19775 6.13604 4.99465 6.03189 4.84882L4.81012 3.13645C4.74866 3.05104 4.65075 3 4.54555 3C4.44035 3 4.34244 3.05104 4.28099 3.13645L3.06026 4.84778C2.9561 4.9936 2.99047 5.19671 3.1363 5.30086C3.19358 5.34148 3.2592 5.36127 3.32482 5.36127C3.42586 5.36127 3.52585 5.3144 3.58939 5.22483L4.54659 3.88328L5.50276 5.22587ZM27.8615 26.1877L26.1492 24.9669C26.0033 24.8628 25.8002 24.8972 25.6961 25.043C25.5919 25.1888 25.6263 25.3919 25.7721 25.4961L27.1137 26.4533L25.7721 27.4105C25.6263 27.5146 25.5919 27.7177 25.6961 27.8636C25.7596 27.9521 25.8596 28 25.9606 28C26.0263 28 26.0919 27.9802 26.1492 27.9396L27.8615 26.7189C27.9469 26.6584 27.998 26.5595 27.998 26.4543C27.998 26.347 27.9469 26.2491 27.8615 26.1877ZM5.77368 16.2727C5.77368 15.4426 6.44968 14.7676 7.27876 14.7676C8.1089 14.7676 8.78384 15.4426 8.78384 16.2727C8.78384 16.5092 8.72863 16.7321 8.63177 16.9321L9.60356 17.7028C9.86291 17.4914 10.1931 17.3643 10.5535 17.3643C10.8191 17.3643 11.068 17.4331 11.2847 17.5549L12.6106 16.0582C12.4294 15.8092 12.3221 15.504 12.3221 15.1739C12.3221 14.3437 12.9981 13.6688 13.8272 13.6688C14.6573 13.6688 15.3323 14.3437 15.3323 15.1739C15.3323 15.3666 15.2958 15.5499 15.2302 15.7186L16.0593 16.2717C16.3301 16.0113 16.6978 15.8509 17.1019 15.8509C17.2207 15.8509 17.3373 15.8655 17.4488 15.8915L18.63 13.4428C17.6488 12.899 16.8228 12.0564 16.3051 10.968C14.9854 8.19219 16.1708 4.86125 18.9455 3.54135C21.7213 2.22167 25.0523 3.40699 26.3721 6.18176C27.0117 7.52645 27.0888 9.03887 26.5898 10.442C26.2034 11.5294 25.5055 12.448 24.5848 13.1042L25.0837 14.1552L25.3629 14.0229C25.5243 13.9458 25.718 14.0156 25.7951 14.1771L27.5377 17.8528C27.7231 18.2434 27.7439 18.6829 27.5981 19.0923C27.4523 19.5016 27.1575 19.8287 26.7669 20.013C26.5482 20.1172 26.3128 20.1693 26.0764 20.1693C25.892 20.1693 25.7066 20.138 25.5275 20.0734C25.1181 19.9276 24.7911 19.6318 24.6067 19.2422L22.8641 15.5665C22.8277 15.4884 22.8225 15.3988 22.8516 15.3186C22.8808 15.2374 22.9402 15.1707 23.0183 15.1343L23.2985 15.0009L22.8006 13.9531C22.3194 14.0844 21.8309 14.1479 21.3465 14.1479C20.6112 14.1479 19.8862 14.001 19.2144 13.724L18.0322 16.1738C18.3822 16.4498 18.6072 16.8768 18.6072 17.356C18.6072 18.1861 17.9312 18.8611 17.1021 18.8611C16.2719 18.8611 15.597 18.1861 15.597 17.356C15.597 17.1633 15.6335 16.98 15.6991 16.8112L14.87 16.2581C14.5992 16.5185 14.2315 16.6789 13.8273 16.6789C13.5617 16.6789 13.3128 16.6102 13.0961 16.4883L11.7702 17.9851C11.9514 18.234 12.0587 18.5392 12.0587 18.8694C12.0587 19.6995 11.3827 20.3745 10.5536 20.3745C9.72347 20.3745 9.04853 19.6995 9.04853 18.8694C9.04853 18.633 9.10374 18.41 9.2006 18.2101L8.22881 17.4393C7.96946 17.6507 7.63929 17.7778 7.27889 17.7778C6.44874 17.7778 5.77368 17.1029 5.77368 16.2727ZM25.3503 14.7478L23.592 15.5811L25.195 18.9632C25.3055 19.1965 25.5023 19.3736 25.7481 19.4611C25.9939 19.5486 26.2575 19.5361 26.4908 19.4257C26.7241 19.3153 26.9012 19.1184 26.9887 18.8737C27.0762 18.6278 27.0637 18.3643 26.9532 18.131L25.3503 14.7478ZM24.0327 13.4521C23.9347 13.5063 23.8348 13.5583 23.7316 13.6073C23.6296 13.6562 23.5254 13.701 23.4223 13.7427L23.8879 14.7218L24.4993 14.4322L24.0327 13.4521ZM21.3475 13.4979C22.0548 13.4979 22.7735 13.3448 23.4536 13.0209C24.642 12.4563 25.5389 11.4626 25.9795 10.2232C26.42 8.98375 26.3523 7.64738 25.7868 6.46006C24.9452 4.68937 23.1745 3.65095 21.3319 3.65095C20.6247 3.65095 19.906 3.80406 19.2258 4.128C16.774 5.29354 15.7272 8.23701 16.8927 10.6888C17.7354 12.4595 19.505 13.4979 21.3475 13.4979ZM16.2469 17.355C16.2469 17.8268 16.6312 18.2111 17.103 18.2111C17.5749 18.2111 17.9592 17.8268 17.9592 17.355C17.9592 16.8831 17.5749 16.4988 17.103 16.4988C16.6312 16.4988 16.2469 16.8831 16.2469 17.355ZM12.9722 15.1728C12.9722 15.6447 13.3565 16.029 13.8284 16.029C14.3002 16.029 14.6845 15.6447 14.6845 15.1728C14.6845 14.701 14.3002 14.3167 13.8284 14.3167C13.3565 14.3167 12.9722 14.7 12.9722 15.1728ZM10.5547 18.0131C10.0829 18.0131 9.69851 18.3975 9.69851 18.8693C9.69851 19.3411 10.0829 19.7255 10.5547 19.7255C11.0265 19.7255 11.4109 19.3411 11.4109 18.8693C11.4109 18.3964 11.0265 18.0131 10.5547 18.0131ZM6.42275 16.2727C6.42275 16.7445 6.80709 17.1288 7.27892 17.1288C7.75075 17.1288 8.13509 16.7445 8.13509 16.2727C8.13509 15.8008 7.75075 15.4165 7.27892 15.4165C6.80709 15.4165 6.42275 15.7998 6.42275 16.2727ZM21.3402 13.1124C20.6455 13.1124 19.9872 12.9551 19.3987 12.6749C19.3883 12.6718 19.3779 12.6676 19.3685 12.6624C19.3571 12.6572 19.3467 12.651 19.3362 12.6437C17.8374 11.9021 16.8031 10.3574 16.8031 8.57413C16.8031 6.07225 18.8384 4.03583 21.3414 4.03583C23.8433 4.03583 25.8797 6.07108 25.8797 8.57413C25.8787 11.076 23.8424 13.1124 21.3406 13.1124L21.3402 13.1124ZM19.3643 11.9219L20.4091 9.75641C20.0591 9.48038 19.8341 9.05334 19.8341 8.57421C19.8341 7.74406 20.5101 7.06913 21.3392 7.06913C22.1693 7.06913 22.8443 7.74406 22.8443 8.57421C22.8443 9.40436 22.1683 10.0793 21.3392 10.0793C21.2204 10.0793 21.1038 10.0647 20.9923 10.0387L19.9476 12.2041C20.3799 12.3697 20.8486 12.4624 21.3381 12.4624C23.4828 12.4624 25.2263 10.7178 25.2263 8.57421C25.2263 6.42958 23.4817 4.68599 21.3381 4.68599C19.1935 4.68599 17.4499 6.43065 17.4499 8.57421C17.4509 9.99701 18.2207 11.2438 19.3643 11.9219ZM21.3402 9.43038C21.8121 9.43038 22.1964 9.04604 22.1964 8.57421C22.1964 8.10238 21.8121 7.71804 21.3402 7.71804C20.8684 7.71804 20.4841 8.10238 20.4841 8.57421C20.4841 9.04604 20.8674 9.43038 21.3402 9.43038Z" fill="url(#paint0_linear_1774_195)"/>
<defs>
<linearGradient id="paint0_linear_1774_195" x1="3.00007" y1="15.5602" x2="27.9985" y2="15.5602" gradientUnits="userSpaceOnUse">
<stop stop-color="#1685FF"/>
<stop offset="0.5" stop-color="#8B5CF6"/>
<stop offset="1" stop-color="#D946EF"/>
</linearGradient>
</defs>
</svg>
