<?xml version="1.0" encoding="UTF-8" standalone="no"?><!DOCTYPE svg PUBLIC "-//W3C//DTD SVG 1.1//EN" "http://www.w3.org/Graphics/SVG/1.1/DTD/svg11.dtd"><svg width="100%" height="100%" viewBox="0 0 504 494" version="1.1" xmlns="http://www.w3.org/2000/svg" xmlns:xlink="http://www.w3.org/1999/xlink" xml:space="preserve" xmlns:serif="http://www.serif.com/" style="fill-rule:evenodd;clip-rule:evenodd;stroke-linejoin:round;stroke-miterlimit:2;"><path d="M310.076,430.086c2.185,0.324 3.693,2.359 3.368,4.545c-3.383,22.739 -25.018,34.751 -25.938,35.251c-0.607,0.33 -1.262,0.487 -1.908,0.487c-1.418,-0 -2.792,-0.756 -3.517,-2.089c-1.056,-1.941 -0.338,-4.37 1.602,-5.426c0.184,-0.101 19.06,-10.661 21.848,-29.401c0.324,-2.184 2.358,-3.703 4.545,-3.367Zm-13.825,-38.433c0.047,0.087 4.794,8.782 7.627,20.002c0.458,1.813 2.087,3.021 3.875,3.021c0.324,-0 0.654,-0.04 0.982,-0.123c2.142,-0.541 3.439,-2.716 2.899,-4.857c-3.099,-12.268 -8.166,-21.52 -8.38,-21.907c-1.068,-1.934 -3.5,-2.633 -5.432,-1.568c-1.931,1.066 -2.635,3.499 -1.571,5.432Zm167.658,-352.894c25.853,25.495 40.091,59.532 40.091,95.838c-0,42.597 -19.523,81.769 -53.563,107.472c-11.327,8.553 -18.089,21.99 -18.089,35.946l-0,43.216c9.131,1.859 16.024,9.95 16.024,19.621l-0,39.627c-0,11.041 -8.983,20.023 -20.024,20.023l-1.97,-0l-0,11.417c-0,10.362 -8.43,18.792 -18.792,18.792l-68.106,-0c0.146,1.398 0.223,2.715 0.223,3.937c0,32.239 -24.273,58.468 -54.11,58.468c-29.837,-0 -54.11,-26.229 -54.11,-58.468c0,-18.848 17.956,-59.68 34.185,-92.735l-27.326,-0c-9.42,-0 -17.084,-7.664 -17.084,-17.085c0,-9.421 7.664,-17.085 17.084,-17.085l6.796,-0l0,-7.596c0,-4.537 -3.691,-8.229 -8.229,-8.229l-26.441,-0c-14.522,25.351 -41.393,40.999 -70.702,40.999c-29.309,-0 -56.179,-15.648 -70.702,-40.999l-65.064,-0c-2.209,-0 -4,-1.791 -4,-4c0,-2.209 1.791,-4 4,-4l67.422,-0c1.476,-0 2.832,0.813 3.528,2.114c12.821,23.985 37.658,38.885 64.816,38.885c27.159,-0 51.996,-14.899 64.817,-38.885c0.696,-1.302 2.052,-2.114 3.528,-2.114l28.798,-0c8.949,-0 16.229,7.28 16.229,16.229l0,7.596l64.912,-0l0,-17.952c0,-39.03 -31.753,-70.784 -70.784,-70.784l-39.155,-0c-1.476,-0 -2.832,-0.813 -3.528,-2.114c-12.82,-23.986 -37.657,-38.886 -64.817,-38.886c-27.16,-0 -51.996,14.9 -64.817,38.886c-0.696,1.302 -2.052,2.114 -3.528,2.114l-67.421,-0c-2.209,-0 -4,-1.791 -4,-4c0,-2.209 1.791,-4 4,-4l65.064,-0c11.104,-19.384 29.43,-33.085 50.542,-38.466l0,-21.602l-38.782,-0c-11.374,-0 -20.627,-9.254 -20.627,-20.628c0,-11.374 9.253,-20.627 20.627,-20.627l117.885,-0c11.375,-0 20.628,9.253 20.628,20.627c0,11.374 -9.253,20.628 -20.628,20.628l-38.782,-0l0,21.602c21.113,5.381 39.438,19.082 50.542,38.466l36.797,-0c4.068,-0 8.066,0.31 11.97,0.908c-15.852,-22.589 -24.463,-49.707 -24.426,-77.496c0.094,-73.093 59.612,-133.387 132.677,-134.404c36.328,-0.529 70.574,13.254 96.422,38.744Zm-383.085,104.18l117.885,-0c6.963,-0 12.628,-5.665 12.628,-12.628c0,-6.963 -5.665,-12.627 -12.628,-12.627l-117.885,-0c-6.963,-0 -12.627,5.665 -12.627,12.627c0,6.962 5.664,12.628 12.627,12.628Zm58.943,27.068c4.112,-0 8.172,0.319 12.161,0.918l0,-19.986l-24.321,-0l0,19.986c3.988,-0.599 8.048,-0.918 12.16,-0.918Zm98.576,163.906l94.504,-0c5.009,-0 9.084,-4.075 9.084,-9.085c0,-5.01 -4.075,-9.085 -9.084,-9.085l-94.504,-0c-5.009,-0 -9.084,4.075 -9.084,9.085c0,5.01 4.074,9.085 9.084,9.085Zm124.915,-183.879c-5.805,-3.306 -14.138,-4.027 -22.087,-1.684c-12.119,3.573 -20.901,13.375 -24.094,26.892c-4.096,17.341 6.649,35.643 17.041,53.342c8.132,13.851 15.814,26.934 15.814,39.007l0,53.237l38.947,-0l0,-53.237c0,-12.073 7.682,-25.156 15.814,-39.007c10.392,-17.699 21.137,-36.001 17.041,-53.342c-3.193,-13.518 -11.976,-23.319 -24.095,-26.892c-7.947,-2.343 -16.282,-1.622 -22.087,1.684c7.987,7.869 18.238,19.21 18.238,30.723c0,13.446 -10.939,24.386 -24.385,24.386c-13.446,-0 -24.386,-10.939 -24.386,-24.386c0,-11.513 10.251,-22.855 18.239,-30.723Zm-10.239,30.722c0,9.035 7.351,16.386 16.386,16.386c9.035,-0 16.385,-7.351 16.385,-16.386c0,-8.635 -9.275,-18.589 -16.385,-25.546c-7.11,6.958 -16.386,16.912 -16.386,25.546Zm-21.314,253.892c0,-14.132 -12.46,-47.023 -35.106,-92.735l-22.007,-0c-22.647,45.711 -35.107,78.602 -35.107,92.735c0,27.828 20.685,50.468 46.11,50.468c25.425,-0 46.11,-22.639 46.11,-50.468Zm86.673,-34.145l-87.071,-0c2.984,8.155 5.351,15.71 6.804,22.209l69.475,-0c5.951,-0 10.792,-4.841 10.792,-10.792l0,-11.417Zm21.994,-20.023l0,-15.813l-124.045,-0c4.294,9.386 8.395,18.852 11.933,27.837l100.088,-0c6.63,-0.001 12.024,-5.395 12.024,-12.024Zm-12.024,-51.652l-78.909,-0c-1.808,7.494 -8.551,13.085 -16.592,13.085l-27.327,-0c2.349,4.786 4.734,9.731 7.096,14.753l127.756,-0l0,-15.813c0,-6.63 -5.394,-12.025 -12.024,-12.025Zm67.652,-194.231c0,-34.148 -13.392,-66.161 -37.708,-90.142c-24.312,-23.975 -56.545,-36.903 -90.693,-36.441c-68.721,0.957 -124.701,57.667 -124.789,126.416c-0.038,29.3 10.145,57.806 28.685,80.405c31.621,10.246 54.556,39.966 54.556,74.956l0,17.952l6.796,-0c3.34,-0 6.449,0.978 9.084,2.641l0,-42.794c0,-9.898 -7.146,-22.07 -14.712,-34.957c-10.669,-18.171 -22.762,-38.768 -17.929,-59.231c3.872,-16.391 14.667,-28.319 29.618,-32.727c11.123,-3.277 22.668,-1.761 30.497,3.796c7.829,-5.558 19.374,-7.075 30.496,-3.797c14.951,4.408 25.747,16.336 29.619,32.727c4.833,20.463 -7.259,41.06 -17.929,59.231c-7.566,12.887 -14.712,25.058 -14.712,34.957l0,53.237l27.47,-0l0,-42.813c0,-16.45 7.951,-32.275 21.269,-42.331c32.018,-24.176 50.382,-61.02 50.382,-101.085Z" style="fill:url(#_Linear1);fill-rule:nonzero;"/><defs><linearGradient id="_Linear1" x1="0" y1="0" x2="1" y2="0" gradientUnits="userSpaceOnUse" gradientTransform="matrix(504.002,0,0,441.832,-1.67866e-13,247.745)"><stop offset="0" style="stop-color:#1685ff;stop-opacity:1"/><stop offset="0.5" style="stop-color:#8b5cf6;stop-opacity:1"/><stop offset="1" style="stop-color:#d946ef;stop-opacity:1"/></linearGradient></defs></svg>