<?xml version="1.0" encoding="UTF-8" standalone="no"?><!DOCTYPE svg PUBLIC "-//W3C//DTD SVG 1.1//EN" "http://www.w3.org/Graphics/SVG/1.1/DTD/svg11.dtd"><svg width="100%" height="100%" viewBox="0 0 450 450" version="1.1" xmlns="http://www.w3.org/2000/svg" xmlns:xlink="http://www.w3.org/1999/xlink" xml:space="preserve" xmlns:serif="http://www.serif.com/" style="fill-rule:evenodd;clip-rule:evenodd;stroke-linejoin:round;stroke-miterlimit:2;"><rect id="Artboard1" x="0" y="0" width="450" height="450" style="fill:none;"/><g><g><path d="M432.4,446.7c-1.2,0 -2.4,-0.1 -3.5,-0.5l-59.6,-16c-4.6,-1.2 -8.3,-4.9 -9.5,-9.6c-1.2,-4.7 0.1,-9.6 3.7,-13.2l6.6,-6.6l-47.3,-47.3c-27.9,21.3 -62.3,32.9 -97.5,32.9c-35.2,0 -69.6,-11.7 -97.5,-32.9l-47.3,47.5l6.8,6.8c4,4 5.1,9.9 2.7,15c-2.2,4.9 -6.9,7.9 -12.2,8l-56.6,15.2c-4.7,1.3 -9.6,-0.1 -13,-3.5c-3.5,-3.5 -4.8,-8.3 -3.5,-13l16,-59.6c1.2,-4.6 4.9,-8.3 9.6,-9.5c4.7,-1.2 9.6,0.1 13.2,3.7l6.6,6.6l47.3,-47.3c-21.3,-27.9 -32.9,-62.3 -32.9,-97.5c0,-35.2 11.7,-69.6 32.9,-97.5l-47.4,-47.4l-6.8,6.8c-4,4 -9.9,5.1 -15,2.7c-4.9,-2.2 -7.9,-6.9 -8,-12.2l-15.1,-56.5c-1.3,-4.7 0.1,-9.6 3.5,-13c3.5,-3.5 8.3,-4.8 13,-3.5l59.6,16c4.6,1.2 8.3,4.9 9.5,9.6c1.2,4.7 -0.1,9.6 -3.7,13.2l-6.6,6.6l47.3,47.3c27.9,-21.3 62.3,-32.9 97.5,-32.9c35.2,0 69.6,11.7 97.5,32.9l47.3,-47.5l-6.8,-6.8c-4,-4 -5,-9.9 -2.7,-15c2.2,-4.9 6.9,-7.9 12.1,-8l56.6,-15.2c4.7,-1.3 9.6,0.1 13,3.5c3.5,3.5 4.8,8.3 3.5,13l-16,59.6c-1.2,4.6 -4.9,8.3 -9.6,9.5c-4.7,1.3 -9.6,-0.1 -13.2,-3.7l-6.6,-6.6l-47.3,47.3c21.3,27.9 32.9,62.3 32.9,97.5c-0,35.2 -11.7,69.6 -32.9,97.5l47.3,47.3l6.8,-6.8c4,-4 9.9,-5 15,-2.7c4.9,2.2 7.9,6.9 8,12.1l15.2,56.6c1.3,4.7 -0.1,9.6 -3.5,13c-2.5,2.8 -5.9,4.1 -9.4,4.1Zm-109.2,-104.6c1.3,0 2.6,0.5 3.5,1.5l53.9,53.9c2,2 2,5.1 -0,7.1l-10.1,10.1c-1.3,1.3 -1.4,2.6 -1.1,3.5c0.3,1.2 1.3,2.2 2.5,2.5l59.6,16c1.7,0.5 2.9,-0.5 3.4,-0.9c0.4,-0.4 1.4,-1.6 0.9,-3.4l-15.4,-57.4c-0.1,-0.5 -0.2,-1 -0.2,-1.6c0.1,-2.1 -1.4,-3 -2,-3.3c-0.5,-0.2 -2.3,-0.9 -3.9,0.7l-10.3,10.3c-0.9,0.9 -2.2,1.5 -3.5,1.5c-1.3,-0 -2.6,-0.5 -3.5,-1.5l-54,-53.9c-1.8,-1.8 -2,-4.7 -0.4,-6.7c21.6,-26.7 33.5,-60.4 33.5,-94.8c-0,-34.4 -11.9,-68.1 -33.5,-94.8c-1.6,-2 -1.5,-4.9 0.4,-6.7l54,-53.8c2,-1.9 5.1,-1.9 7.1,-0l10.1,10.1c1.4,1.3 2.6,1.3 3.5,1.1c1.2,-0.3 2.2,-1.3 2.5,-2.5l16,-59.6c0.5,-1.7 -0.5,-2.9 -0.9,-3.4c-0.4,-0.4 -1.6,-1.4 -3.4,-0.9l-57.3,15.3c-0.5,0.1 -1,0.2 -1.6,0.2c-2.1,-0.1 -3,1.4 -3.3,2c-0.2,0.5 -0.9,2.3 0.7,3.9l10.3,10.4c0.9,0.9 1.5,2.2 1.5,3.5c-0,1.3 -0.5,2.6 -1.5,3.5l-54,54c-1.8,1.8 -4.7,2 -6.7,0.4c-26.7,-21.6 -60.4,-33.5 -94.8,-33.5c-34.4,-0 -68.1,11.9 -94.8,33.5c-2,1.6 -4.9,1.4 -6.7,-0.4l-54,-54c-1.9,-1.9 -1.9,-5.1 -0,-7.1l10.3,-10.1c1.3,-1.3 1.3,-2.7 1.1,-3.5c-0.3,-1.2 -1.3,-2.2 -2.5,-2.5l-59.6,-16c-1.7,-0.5 -2.9,0.5 -3.4,0.9c-0.4,0.4 -1.4,1.6 -0.9,3.4l15.3,57.3c0.1,0.5 0.2,1.1 0.2,1.6c-0.1,2.1 1.4,3.1 2,3.3c0.5,0.2 2.3,0.9 3.9,-0.7l10.3,-10.3c0.9,-0.9 2.2,-1.5 3.5,-1.5c1.3,-0 2.6,0.5 3.5,1.5l53.9,53.9c1.8,1.8 2,4.7 0.4,6.7c-21.6,26.7 -33.5,60.4 -33.5,94.8c-0,34.4 11.9,68.1 33.5,94.8c1.6,2 1.4,4.9 -0.4,6.7l-53.9,53.9c-1.9,2 -5.1,2 -7.1,0l-9.9,-10.1c-1.3,-1.3 -2.6,-1.4 -3.5,-1.1c-1.2,0.3 -2.2,1.3 -2.5,2.5l-16,59.6c-0.5,1.7 0.5,2.9 0.9,3.4c0.4,0.4 1.6,1.4 3.4,0.9l57.3,-15.4c0.5,-0.1 1.1,-0.2 1.6,-0.2c2.1,0.1 3.1,-1.4 3.3,-2c0.2,-0.5 0.9,-2.3 -0.7,-3.9l-10.3,-10.3c-0.9,-0.9 -1.5,-2.2 -1.5,-3.5c-0,-1.3 0.5,-2.6 1.5,-3.5l53.9,-53.9c1.8,-1.8 4.7,-2 6.7,-0.4c26.7,21.6 60.4,33.5 94.8,33.5c34.4,0 68.1,-11.9 94.8,-33.5c0.9,-0.8 2,-1.1 3.1,-1.1Z" style="fill:#fff;fill-rule:nonzero;"/></g><g><path d="M225.3,355.6c-71.6,0 -129.9,-58.3 -129.9,-129.9c0,-71.6 58.2,-129.8 129.9,-129.8c71.7,0 129.9,58.3 129.9,129.9c0,71.6 -58.3,129.8 -129.9,129.8Zm-0,-249.7c-66.1,0 -119.9,53.8 -119.9,119.9c-0,66.1 53.8,119.9 119.9,119.9c66.1,0 119.9,-53.8 119.9,-119.9c0,-66.1 -53.8,-119.9 -119.9,-119.9Z" style="fill:#fff;fill-rule:nonzero;"/></g><g><g><path d="M225.3,220c-41.7,0 -74.4,-19.1 -74.4,-43.5c0,-24.4 32.7,-43.5 74.4,-43.5c41.7,0 74.4,19.1 74.4,43.5c0,24.4 -32.7,43.5 -74.4,43.5Zm-0,-77c-34.9,0 -64.4,15.3 -64.4,33.5c-0,18.2 29.5,33.5 64.4,33.5c34.9,0 64.4,-15.3 64.4,-33.5c0,-18.2 -29.5,-33.5 -64.4,-33.5Z" style="fill:#fff;fill-rule:nonzero;"/></g><g><path d="M225.3,269.2c-41.7,0 -74.4,-19.1 -74.4,-43.5c0,-2.8 2.2,-5 5,-5c2.8,0 5,2.2 5,5c0,18.2 29.5,33.5 64.4,33.5c34.9,0 64.4,-15.3 64.4,-33.5c0,-2.8 2.2,-5 5,-5c2.8,0 5,2.2 5,5c-0,24.4 -32.7,43.5 -74.4,43.5Z" style="fill:#fff;fill-rule:nonzero;"/></g><g><path d="M225.3,318.5c-41.7,0 -74.4,-19.1 -74.4,-43.5l0,-98.4c0,-2.8 2.2,-5 5,-5c2.8,0 5,2.2 5,5l0,98.4c0,18.2 29.5,33.5 64.4,33.5c34.9,0 64.4,-15.3 64.4,-33.5l0,-98.4c0,-2.8 2.2,-5 5,-5c2.8,0 5,2.2 5,5l0,98.4c-0,24.4 -32.7,43.5 -74.4,43.5Z" style="fill:#fff;fill-rule:nonzero;"/></g></g></g></svg>