<?xml version="1.0" encoding="UTF-8"?><svg id="a" xmlns="http://www.w3.org/2000/svg" xmlns:xlink="http://www.w3.org/1999/xlink" viewBox="0 0 50 50"><defs><style>.m{fill:url(#l);}.n{fill:url(#c);}.o{fill:url(#f);}.p{fill:url(#g);}.q{fill:url(#b);}.r{fill:url(#i);}.s{fill:url(#h);}.t{fill:url(#d);}.u{fill:url(#e);}.v{fill:url(#j);}.w{fill:url(#k);}</style><linearGradient id="b" x1="14.99" y1="16.78" x2="33.1" y2="5.9" gradientTransform="matrix(1, 0, 0, 1, 0, 0)" gradientUnits="userSpaceOnUse"><stop offset=".01" stop-color="#4376fc"/><stop offset=".99" stop-color="#c84bf1"/></linearGradient><linearGradient id="c" x1="14.41" y1="20.6" x2="23.58" y2="15.1" xlink:href="#b"/><linearGradient id="d" x1="20.51" y1="21.98" x2="28.38" y2="17.24" xlink:href="#b"/><linearGradient id="e" x1="26.68" y1="19.57" x2="32.17" y2="16.27" xlink:href="#b"/><linearGradient id="f" x1="2.16" y1="34.63" x2="13.44" y2="27.86" xlink:href="#b"/><linearGradient id="g" x1="35.94" y1="33.96" x2="47.22" y2="27.19" xlink:href="#b"/><linearGradient id="h" x1="11.41" y1="45.6" x2="35.63" y2="31.05" xlink:href="#b"/><linearGradient id="i" x1="19.98" y1="40.1" x2="22.43" y2="38.63" xlink:href="#b"/><linearGradient id="j" x1="23.14" y1="40.13" x2="25.59" y2="38.65" xlink:href="#b"/><linearGradient id="k" x1="29.15" y1="40.12" x2="31.61" y2="38.64" xlink:href="#b"/><linearGradient id="l" x1="32.31" y1="40.13" x2="34.76" y2="38.65" xlink:href="#b"/></defs><path class="q" d="M18.11,17.67c.44,.06,.55,.04,.77-.14,.17-.13,.25-.29,.25-.45,0-.44-.19-.57-1.01-.7-1.92-.32-3.21-1.53-3.55-3.36-.21-1.13,.19-2.41,1.05-3.31,.54-.57,1.02-.88,1.73-1.11,.57-.19,.76-.42,.76-.93,0-1.64,1.14-3.38,2.7-4.15,3.07-1.5,6.65,.49,6.99,3.89,.1,1.01,.07,.99,2.23,1.05,1.82,.05,1.83,.05,2.46,.34,1.63,.78,2.58,2.49,2.31,4.17-.31,1.85-1.6,3.09-3.55,3.41-.82,.13-1.01,.26-1.01,.7,0,.17,.08,.32,.25,.45,.22,.18,.32,.19,.82,.14,1.26-.14,2.46-.71,3.32-1.58,2.69-2.72,1.64-7.28-1.97-8.64-.51-.19-.82-.23-2.07-.28l-1.47-.06-.16-.68c-.27-1.15-.75-1.99-1.66-2.9-.64-.64-.95-.87-1.58-1.18-1.3-.64-2.71-.82-4.07-.52-.74,.16-1.75,.63-2.42,1.14-1.1,.82-2.01,2.29-2.28,3.67l-.15,.74-.67,.31c-1.81,.86-3.06,3.08-2.88,5.1,.22,2.59,2.18,4.56,4.86,4.86Z"/><path class="n" d="M20.71,11.93c-.19,.24-.19,.34-.19,4.21v3.97h-1.57l-.19-.37c-.35-.69-1.32-1.2-2.07-1.07-1.34,.21-2.11,1.45-1.72,2.75,.43,1.41,2.31,1.85,3.4,.8,.18-.17,.37-.41,.44-.56l.14-.25h1.19c1.07,0,1.21-.02,1.44-.19l.24-.19v-4.49c0-4.36,0-4.49-.19-4.67-.27-.27-.69-.24-.92,.06Zm-3.11,9.2c-.35,.69-1.44,.4-1.44-.4,0-.24,.06-.37,.3-.56,.35-.3,.75-.27,1.07,.1,.24,.27,.26,.5,.06,.86Z"/><path class="t" d="M25.15,11.9c-.25-.27-.68-.27-.93,0-.19,.19-.19,.3-.19,5.59v5.39l-.4,.23c-.77,.45-1.17,1.35-.98,2.21,.12,.57,.4,.96,.91,1.32,.36,.25,.46,.28,1.12,.28s.76-.03,1.12-.28c.51-.36,.79-.76,.91-1.32,.19-.86-.21-1.76-.98-2.21l-.4-.23v-5.39c0-5.3,0-5.4-.19-5.59Zm.3,13.19c-.06,.3-.44,.59-.76,.59s-.7-.3-.76-.59c-.06-.31,.16-.79,.41-.89,.29-.11,.39-.11,.68,0,.28,.1,.5,.56,.44,.89Z"/><path class="u" d="M28.66,11.93c-.23-.3-.65-.32-.92-.06-.18,.18-.19,.31-.19,4.67v4.49l.24,.19c.22,.18,.37,.19,1.44,.19h1.19l.14,.26c.83,1.61,3.33,1.44,3.84-.25,.39-1.31-.38-2.54-1.72-2.75-.75-.12-1.71,.38-2.07,1.07l-.19,.37h-1.57v-3.97c0-3.87,0-3.97-.19-4.21Zm3.44,8.12c.34-.18,.51-.15,.82,.12,.57,.47,.24,1.33-.5,1.33-.82,0-1.06-1.08-.32-1.45Z"/><path class="o" d="M9.32,39.47c-4.16-1.14-6.82-5.26-6.09-9.41,.47-2.74,2.11-4.94,4.58-6.18,.28-.14,.52-.23,.55-.21,.02,.03-.06,.31-.19,.63-.28,.67-.3,.89-.09,1.18,.18,.26,.69,.28,.91,.03,.22-.24,1.17-2.64,1.17-2.95,0-.15-.07-.33-.16-.41-.2-.18-2.74-1.19-2.97-1.19-.09,0-.26,.08-.37,.19-.26,.24-.27,.68-.02,.91,.1,.09,.35,.23,.56,.3,.2,.06,.37,.15,.37,.19s-.18,.15-.39,.24c-.63,.28-1.65,.98-2.28,1.56-1.27,1.19-2.31,2.93-2.77,4.67-.21,.79-.24,1.08-.24,2.38,0,1.32,.02,1.58,.24,2.41,.44,1.64,1.2,3.01,2.33,4.21,.82,.87,1.6,1.46,2.62,1.98,.83,.44,2.18,.9,2.58,.9,.47,0,.77-.65,.48-1.05-.06-.08-.43-.24-.81-.35Z"/><path class="p" d="M47.26,28.04c-.44-1.64-1.19-3-2.33-4.21-1.18-1.25-2.59-2.14-4.2-2.64-.93-.29-1.17-.3-1.41-.06-.21,.21-.24,.63-.06,.86,.06,.08,.48,.26,.94,.39,4.75,1.37,7.28,6.56,5.45,11.15-.54,1.34-1.49,2.61-2.62,3.48-.58,.45-1.93,1.2-2,1.13-.03-.02,.06-.31,.19-.63,.28-.67,.3-.89,.09-1.18-.18-.26-.69-.28-.91-.03-.22,.24-1.17,2.64-1.17,2.96,0,.15,.07,.33,.17,.41,.19,.18,2.73,1.19,2.96,1.19s.57-.38,.57-.64c0-.36-.17-.54-.65-.71-.25-.09-.46-.19-.46-.22,0-.04,.18-.15,.39-.24,1.27-.56,2.87-1.97,3.73-3.27,.57-.85,1.1-2.1,1.37-3.15,.16-.65,.19-1.07,.19-2.23,0-1.26-.04-1.55-.25-2.36Z"/><path class="s" d="M36.55,33.18c-.15,0-2.11,.5-4.36,1.11-2.25,.61-4.11,1.11-4.13,1.11s-.04-.42-.04-.93c0-1.05-.13-1.3-.64-1.3-.16,0-2.12,.5-4.36,1.11-2.25,.61-4.11,1.11-4.13,1.11s-.04-1.55-.04-3.44c0-3.81-.02-3.91-.59-4.26-.26-.16-.5-.18-2.74-.18s-2.47,0-2.76,.19c-.6,.37-.57-.1-.57,10.03,0,9.18,0,9.21,.19,9.46l.19,.24h24.18l.22-.23,.23-.22v-6.72c0-6.6,0-6.72-.19-6.9-.1-.1-.31-.19-.45-.19Zm-19,5.84v7.13h-4.08v-14.27h4.08v7.13Zm0-9.31v.88h-4.08v-1.76h4.08v.88Zm18.34,16.44H18.85l.02-4.7,.03-4.71,3.8-1.04c2.09-.57,3.85-1.04,3.92-1.04,.08,0,.11,.23,.11,.92,0,.81,.03,.95,.19,1.11,.1,.1,.3,.19,.43,.19s1.99-.47,4.14-1.06c2.15-.58,4.02-1.09,4.17-1.12l.25-.06v11.5Z"/><path class="r" d="M21.22,38.09c-.53,0-.88,.04-.95,.11-.07,.07-.11,.47-.11,1.19s.04,1.11,.11,1.19c.18,.18,1.7,.15,1.87-.04,.19-.19,.21-2.16,.04-2.33-.07-.07-.43-.11-.95-.11Z"/><path class="v" d="M24.36,38.09c-.53,0-.88,.04-.95,.11-.07,.07-.11,.47-.11,1.19s.04,1.11,.11,1.19c.15,.15,1.76,.15,1.91,0,.16-.16,.16-2.21,0-2.37-.07-.07-.43-.11-.95-.11Z"/><path class="w" d="M30.39,38.09c-.53,0-.88,.04-.95,.11-.16,.16-.16,2.21,0,2.37,.14,.14,1.58,.15,1.84,.02,.16-.09,.18-.2,.18-1.19,0-.73-.04-1.13-.11-1.2-.07-.07-.43-.11-.95-.11Z"/><path class="m" d="M33.53,38.09c-.53,0-.88,.04-.95,.11-.16,.16-.16,2.21,0,2.37,.15,.15,1.76,.15,1.91,0,.16-.16,.16-2.21,0-2.37-.07-.07-.43-.11-.95-.11Z"/></svg>