<?xml version="1.0" encoding="UTF-8" standalone="no"?><!DOCTYPE svg PUBLIC "-//W3C//DTD SVG 1.1//EN" "http://www.w3.org/Graphics/SVG/1.1/DTD/svg11.dtd"><svg width="100%" height="100%" viewBox="0 0 89 89" version="1.1" xmlns="http://www.w3.org/2000/svg" xmlns:xlink="http://www.w3.org/1999/xlink" xml:space="preserve" xmlns:serif="http://www.serif.com/" style="fill-rule:evenodd;clip-rule:evenodd;stroke-linejoin:round;stroke-miterlimit:2;"><rect id="Artboard1" x="0" y="0" width="88.76" height="88.76" style="fill:none;"/><path d="M49.657,88.275l-10.554,0c-0.734,0 -1.33,-0.595 -1.33,-1.33l-0,-11.319c-6.17,-1.299 -11.682,-4.374 -15.973,-8.666c-4.292,-4.292 -7.367,-9.803 -8.666,-15.973l-11.319,-0c-0.735,-0 -1.33,-0.596 -1.33,-1.33l-0,-10.554c-0,-0.734 0.595,-1.33 1.33,-1.33l11.319,-0c1.299,-6.17 4.374,-11.682 8.666,-15.973c4.291,-4.292 9.803,-7.368 15.973,-8.666l-0,-11.319c-0,-0.735 0.596,-1.33 1.33,-1.33l10.554,-0c0.734,-0 1.33,0.595 1.33,1.33l-0,11.319c6.17,1.299 11.681,4.374 15.973,8.666c4.292,4.291 7.367,9.803 8.666,15.973l11.319,-0c0.735,-0 1.33,0.596 1.33,1.33l0,10.554c0,0.734 -0.595,1.33 -1.33,1.33l-11.319,-0c-1.299,6.17 -4.374,11.681 -8.666,15.973c-4.292,4.292 -9.803,7.367 -15.973,8.666l-0,11.319c-0,0.735 -0.596,1.33 -1.33,1.33Zm5.664,-80.413c6.122,1.831 11.599,5.163 16.006,9.57c4.407,4.407 7.74,9.885 9.571,16.007c0.21,0.703 0.95,1.103 1.653,0.894c0.703,-0.209 1.103,-0.949 0.893,-1.652c-1.961,-6.558 -5.525,-12.419 -10.236,-17.13c-4.71,-4.71 -10.572,-8.274 -17.129,-10.235c-0.703,-0.21 -1.443,0.19 -1.652,0.893c-0.21,0.703 0.19,1.443 0.894,1.653Zm25.577,47.459c-1.831,6.122 -5.163,11.599 -9.57,16.006c-4.407,4.407 -9.885,7.74 -16.007,9.571c-0.704,0.21 -1.104,0.95 -0.894,1.653c0.209,0.703 0.949,1.103 1.652,0.893c6.557,-1.961 12.419,-5.525 17.13,-10.236c4.71,-4.71 8.274,-10.572 10.235,-17.129c0.21,-0.703 -0.19,-1.443 -0.893,-1.652c-0.703,-0.21 -1.443,0.19 -1.653,0.894Zm-47.459,25.577c-6.122,-1.831 -11.6,-5.164 -16.007,-9.571c-4.407,-4.407 -7.739,-9.884 -9.57,-16.006c-0.21,-0.704 -0.95,-1.104 -1.653,-0.894c-0.703,0.209 -1.103,0.949 -0.893,1.652c1.961,6.557 5.525,12.419 10.235,17.129c4.711,4.711 10.572,8.275 17.13,10.236c0.703,0.21 1.443,-0.19 1.652,-0.893c0.209,-0.703 -0.191,-1.443 -0.894,-1.653Zm-25.577,-47.459c1.831,-6.122 5.163,-11.6 9.57,-16.007c4.407,-4.407 9.885,-7.739 16.007,-9.57c0.703,-0.21 1.103,-0.95 0.894,-1.653c-0.209,-0.703 -0.949,-1.103 -1.652,-0.893c-6.558,1.961 -12.419,5.525 -17.13,10.236c-4.71,4.71 -8.274,10.571 -10.235,17.129c-0.21,0.703 0.19,1.443 0.893,1.652c0.703,0.209 1.443,-0.191 1.653,-0.894Zm23.887,11.38l6.807,7.686c0.485,0.547 1.32,0.599 1.868,0.116l0.003,0.003l16.47,-14.493c0.551,-0.485 0.604,-1.325 0.119,-1.876c-0.485,-0.551 -1.324,-0.604 -1.875,-0.119l-15.479,13.62l-5.928,-6.693c-0.485,-0.548 -1.323,-0.6 -1.871,-0.115c-0.548,0.485 -0.599,1.323 -0.114,1.871Zm12.631,-22.853c-6.189,0 -11.793,2.509 -15.849,6.565c-4.056,4.056 -6.565,9.66 -6.565,15.849c0,6.189 2.509,11.793 6.565,15.849c4.056,4.056 9.66,6.565 15.849,6.565c6.189,-0 11.793,-2.509 15.849,-6.565c4.056,-4.056 6.565,-9.66 6.565,-15.849c-0,-6.189 -2.509,-11.793 -6.565,-15.849c-4.056,-4.056 -9.66,-6.565 -15.849,-6.565Zm13.968,8.446c-3.575,-3.575 -8.513,-5.786 -13.968,-5.786c-5.455,0 -10.394,2.211 -13.968,5.786c-3.575,3.574 -5.786,8.513 -5.786,13.968c0,5.455 2.211,10.393 5.786,13.968c3.574,3.574 8.513,5.785 13.968,5.785c5.455,0 10.393,-2.211 13.968,-5.785c3.574,-3.575 5.785,-8.513 5.785,-13.968c0,-5.455 -2.211,-10.394 -5.785,-13.968Zm-17.915,55.203c0,-0 7.893,-0 7.893,-0l0,-11.085l0.002,-0c-0.001,-0.636 0.457,-1.199 1.105,-1.31c6.056,-1.052 11.475,-3.97 15.646,-8.141c4.157,-4.157 7.069,-9.554 8.13,-15.585c0.081,-0.658 0.641,-1.168 1.321,-1.168l11.085,0l-0,-7.893l-11.085,0l-0,-0.001c-0.636,0 -1.199,-0.457 -1.31,-1.105c-1.052,-6.056 -3.97,-11.476 -8.141,-15.646c-4.157,-4.157 -9.554,-7.069 -15.585,-8.131c-0.658,-0.08 -1.168,-0.64 -1.168,-1.32l0,-11.085l-7.893,0l0,11.085l-0.001,0c0,0.636 -0.457,1.199 -1.105,1.309c-6.056,1.053 -11.476,3.971 -15.646,8.142c-4.157,4.156 -7.069,9.554 -8.131,15.584c-0.08,0.658 -0.64,1.168 -1.32,1.168l-11.085,0l0,7.893l11.085,0l0,0.002c0.636,-0.001 1.199,0.457 1.309,1.105c1.053,6.056 3.971,11.475 8.142,15.646c4.156,4.157 9.554,7.069 15.584,8.13c0.658,0.081 1.168,0.641 1.168,1.321l0,11.085Z" style="fill:url(#_Linear1);"/><defs><linearGradient id="_Linear1" x1="0" y1="0" x2="1" y2="0" gradientUnits="userSpaceOnUse" gradientTransform="matrix(87.7921,0,0,74.7301,0.484947,44.5914)"><stop offset="0" style="stop-color:#1685ff;stop-opacity:1"/><stop offset="0.5" style="stop-color:#8b5cf6;stop-opacity:1"/><stop offset="1" style="stop-color:#d946ef;stop-opacity:1"/></linearGradient></defs></svg>