<svg width="811" height="743" viewBox="0 0 811 743" fill="none" xmlns="http://www.w3.org/2000/svg">
<g clip-path="url(#clip0_561_3396)">
<path d="M687.623 491.836L687.592 491.859L684.853 492.638L678.166 494.611C675.246 484.685 670.345 475.167 663.403 466.637L671.066 460.402C663.412 450.997 654.236 443.516 644.18 438.097L639.465 446.758C630.047 441.593 619.756 438.487 609.259 437.385L610.266 427.595C603.519 426.901 596.687 426.97 589.913 427.813C585.062 428.407 580.238 429.409 575.5 430.81L578.279 440.269C568.354 443.185 558.837 448.087 550.305 455.029L544.07 447.37C534.671 455.02 527.186 464.198 521.768 474.255L530.432 478.975C525.263 488.389 522.162 498.682 521.056 509.18L511.267 508.178C510.052 519.777 511.127 531.589 514.482 542.949L514.563 542.926L520.789 541.094L523.94 540.169C526.86 550.095 531.783 559.64 538.702 568.142L531.04 574.377C538.693 583.782 547.847 591.237 557.872 596.678L562.587 588.012C572.032 593.159 582.346 596.292 592.842 597.394L591.84 607.184C593.749 607.379 595.667 607.515 597.585 607.588C607.301 607.973 617.095 606.799 626.575 603.996L625.968 601.883L623.796 594.537C633.726 591.617 643.269 586.692 651.802 579.75L658.037 587.408C667.436 579.759 674.889 570.603 680.307 560.546L671.648 555.83C676.812 546.412 679.945 536.096 681.047 525.598L690.84 526.601C692.026 515.025 690.979 503.191 687.623 491.836ZM583.583 531.622C575.726 521.963 577.182 507.765 586.839 499.907C590.067 497.277 593.802 495.69 597.634 495.101C605.282 493.926 613.325 496.72 618.562 503.149C622.298 507.738 623.931 513.352 623.586 518.82C623.201 524.874 620.381 530.755 615.303 534.891C605.65 542.75 591.454 541.294 583.583 531.622Z" fill="#1F65CF"/>
<path d="M76.9645 316.798C80.0907 320.639 83.8305 323.685 87.927 325.909L89.8546 322.369C93.713 324.471 97.9277 325.751 102.217 326.202L101.807 330.202C106.537 330.687 111.361 330.27 115.999 328.899L115.751 328.036L114.864 325.034C118.919 323.841 122.82 321.829 126.305 318.992L128.852 322.122C132.693 318.996 135.739 315.255 137.953 311.147L134.414 309.219C136.525 305.372 137.805 301.156 138.256 296.867L142.256 297.278C142.741 292.547 142.313 287.711 140.943 283.071L140.931 283.081L139.812 283.4L137.078 284.207C135.886 280.151 133.884 276.262 131.047 272.776L134.177 270.229C131.051 266.387 127.301 263.33 123.193 261.115L121.266 264.655C117.419 262.544 113.214 261.275 108.925 260.824L109.335 256.824C104.604 256.338 99.7693 256.766 95.1306 258.137L96.2659 262.002C92.2107 263.194 88.3222 265.197 84.8364 268.034L82.2891 264.904C78.4482 268.031 75.3909 271.78 73.1767 275.889L76.7163 277.817C74.6049 281.664 73.3367 285.869 72.886 290.159L68.8868 289.748C68.3897 294.489 68.8285 299.315 70.1997 303.955L70.2331 303.947L72.7763 303.198L74.0644 302.819C75.2563 306.875 77.2681 310.776 80.0947 314.25L76.9645 316.798ZM93.0266 303.724C87.3876 296.795 88.4331 286.607 95.3613 280.968C102.301 275.319 112.488 276.364 118.127 283.293C123.774 290.234 122.729 300.422 115.79 306.071C108.861 311.71 98.6741 310.664 93.0266 303.724Z" stroke="#9FD1FC" stroke-width="2.4056" stroke-miterlimit="10"/>
<path d="M248.954 158.034C249.977 161.954 251.727 165.49 254.021 168.536L256.657 166.556C258.815 169.43 261.518 171.813 264.557 173.604L262.894 176.442C266.25 178.409 269.982 179.735 273.9 180.288L274.007 179.562L274.366 177.027C277.788 177.516 281.374 177.342 284.931 176.413L285.764 179.607C289.684 178.583 293.219 176.833 296.261 174.527L294.281 171.891C297.158 169.744 299.54 167.041 301.332 164.002L304.169 165.665C306.136 162.309 307.459 158.564 308.012 154.646L308 154.65L307.059 154.508L304.751 154.18C305.24 150.757 305.069 147.183 304.141 143.626L307.334 142.792C306.311 138.872 304.557 135.323 302.252 132.281L299.616 134.262C297.469 131.384 294.77 129.013 291.731 127.222L293.394 124.385C290.038 122.418 286.294 121.095 282.376 120.541L281.91 123.803C278.487 123.314 274.914 123.485 271.357 124.414L270.524 121.22C266.604 122.243 263.057 123.996 260.015 126.302L261.995 128.939C259.118 131.085 256.747 133.785 254.956 136.825L252.119 135.161C250.141 138.521 248.83 142.262 248.276 146.18L248.303 146.186L250.45 146.491L251.538 146.647C251.049 150.07 251.222 153.656 252.147 157.201L248.954 158.034Z" fill="#48C6AA"/>
<path d="M290.059 139.938C290.058 139.897 290.058 139.879 290.058 139.875C290.058 139.882 290.059 139.938 290.059 139.938Z" fill="#D9FFFF"/>
<path d="M290.059 139.938C290.058 139.897 290.058 139.879 290.058 139.875C290.058 139.882 290.059 139.938 290.059 139.938Z" fill="#D9FFFF"/>
<path d="M265.465 140.209C265.465 140.209 265.464 140.152 265.464 140.145C265.464 140.15 265.464 140.168 265.465 140.209Z" fill="#D9FFFF"/>
<path d="M265.465 140.209C265.465 140.209 265.464 140.152 265.464 140.145C265.464 140.15 265.464 140.168 265.465 140.209Z" fill="#D9FFFF"/>
<path d="M265.488 140.937C265.5 142.042 265.529 144.647 265.596 150.659C265.719 161.743 276.485 167.081 278.084 167.801C279.723 166.959 290.284 161.472 290.161 150.389C290.099 144.819 290.07 142.175 290.055 140.937L277.797 135.917L265.488 140.937Z" fill="white"/>
<path d="M272.807 148.998L272.855 156.274C272.861 157.084 282.796 157.019 282.791 156.209L282.743 148.933L272.807 148.998ZM276.566 151.72C276.561 151.045 277.105 150.497 277.783 150.492C278.461 150.488 279.016 151.029 279.021 151.704C279.024 152.197 278.728 152.628 278.303 152.821L278.317 154.888C278.319 155.163 278.096 155.393 277.815 155.395C277.54 155.396 277.313 155.169 277.312 154.895L277.298 152.833C276.867 152.644 276.569 152.218 276.566 151.72Z" fill="#48C6AA"/>
<path d="M273.673 148.474L274.679 148.467L274.676 147.977C274.664 146.28 276.042 144.89 277.747 144.879C279.452 144.867 280.848 146.239 280.86 147.937L280.863 148.426L281.869 148.42L281.866 147.93C281.851 145.68 280 143.862 277.74 143.877C275.481 143.892 273.654 145.734 273.669 147.984L273.673 148.474Z" fill="#48C6AA"/>
<path d="M261.148 171.318C261.429 169.248 261.624 167.151 261.624 165.004C261.624 139.186 240.697 118.256 214.882 118.256C195.515 118.256 178.9 130.035 171.808 146.821C166.037 141.681 158.455 138.532 150.118 138.532C132.079 138.532 117.455 153.158 117.455 171.2H111.36C94.0144 171.2 79.8232 185.393 79.8232 202.74C79.8232 220.088 94.0144 234.281 111.36 234.281H258.82C276.165 234.281 290.357 220.088 290.357 202.741C290.358 186.179 277.414 172.523 261.148 171.318Z" fill="#CBE4FF"/>
<path d="M174.212 221.06H240.396V161.181H174.212V221.06Z" fill="#453B73"/>
<path d="M243.202 161.182H171.407V179.257H243.202V161.182Z" fill="#407BFF"/>
<path d="M233.055 175.365H240.154V165.79H233.055V175.365Z" fill="#453B73"/>
<path d="M222.408 175.365H229.506V165.79H222.408V175.365Z" fill="#453B73"/>
<path d="M211.76 175.365H218.859V165.79H211.76V175.365Z" fill="#453B73"/>
<path d="M243.202 182.644H171.407V200.719H243.202V182.644Z" fill="#407BFF"/>
<path d="M233.055 196.829H240.154V187.253H233.055V196.829Z" fill="#453B73"/>
<path d="M222.408 196.829H229.506V187.253H222.408V196.829Z" fill="#453B73"/>
<path d="M211.76 196.829H218.859V187.253H211.76V196.829Z" fill="#453B73"/>
<path d="M243.202 204.107H171.407V222.183H243.202V204.107Z" fill="#407BFF"/>
<path d="M233.055 218.291H240.154V208.715H233.055V218.291Z" fill="#453B73"/>
<path d="M222.408 218.291H229.506V208.715H222.408V218.291Z" fill="#453B73"/>
<path d="M211.76 218.291H218.859V208.715H211.76V218.291Z" fill="#453B73"/>
<path d="M156.792 183.15H145.738V204.245H156.792V183.15Z" fill="#5C5099"/>
<path d="M151.345 211.721L141.56 200.106H160.97L151.345 211.721Z" fill="#5C5099"/>
<path d="M128.385 211.854H139.439V190.76H128.385V211.854Z" fill="#5C5099"/>
<path d="M133.831 183.284L143.617 194.899H124.207L133.831 183.284Z" fill="#5C5099"/>
<path d="M391.34 183.138C391.421 182.538 391.478 181.93 391.478 181.308C391.478 173.825 385.413 167.759 377.93 167.759C372.317 167.759 367.501 171.173 365.446 176.038C363.774 174.549 361.576 173.636 359.16 173.636C353.931 173.636 349.693 177.875 349.693 183.104H347.926C342.899 183.104 338.786 187.218 338.786 192.246C338.786 197.274 342.899 201.387 347.926 201.387H390.667C395.694 201.387 399.807 197.274 399.807 192.246C399.806 187.446 396.055 183.488 391.34 183.138Z" fill="#CBE4FF"/>
<path d="M589.636 518.83L581.761 517.959L562.456 515.991C565.394 487.361 562.795 457.691 553.905 428.412L580.192 420.422C570.39 388.155 554.635 359.22 534.449 334.675L513.185 352.019C494.383 328.798 471.147 309.966 445.281 296.068L458.175 271.917C429.611 256.667 398.037 246.895 365.27 243.581L362.463 270.87C345.901 269.169 328.999 269.324 312.019 271.473C299.65 273.041 287.237 275.671 274.895 279.426L266.906 253.135C261.434 254.795 256.052 256.631 250.779 258.636C224.953 268.412 201.549 282.115 181.174 298.875L198.512 320.151C176.019 338.366 157.643 360.739 143.887 385.634C143.442 386.436 143.003 387.243 142.568 388.055L138.034 385.634L118.424 375.159C116.574 378.609 114.802 382.101 113.12 385.634C100.833 411.385 93.0028 439.263 90.0875 468.08L90.3187 468.116L108.278 469.948L117.373 470.883C116.829 476.188 116.475 481.53 116.317 486.903C115.977 498.503 116.543 510.234 118.067 521.982C119.644 534.162 122.251 546.364 125.924 558.467L106.569 564.348L99.6364 566.452C101.69 573.218 104.007 579.829 106.569 586.281C110.558 596.352 115.151 606.029 120.284 615.298C127.565 628.439 135.935 640.745 145.243 652.132L166.516 634.792C185.414 657.981 208.677 676.912 234.548 690.806L221.653 714.961C250.212 730.211 281.691 740.015 314.453 743.32L315.116 737.248L317.26 716.036C345.887 718.979 375.657 716.353 404.928 707.452L412.917 733.743C445.181 723.944 474.016 708.218 498.559 688.036L481.216 666.76C504.435 647.955 523.364 624.689 537.256 598.82L561.408 611.716C576.656 583.153 586.422 551.57 589.736 518.799L589.636 518.83ZM453.042 537.707C439.953 571.113 412.246 598.406 375.217 609.656C311.094 629.146 243.32 592.951 223.806 528.72C221.231 520.245 219.631 511.711 218.937 503.227C214.375 447.521 248.983 394.231 304.633 377.322C320.51 372.497 336.601 371.078 352.13 372.638C372.179 374.656 391.29 381.652 407.771 392.73C430.146 407.767 447.67 430.317 456.116 458.127C464.381 485.329 462.659 513.167 453.042 537.707ZM589.636 518.83L581.761 517.959L562.456 515.991C565.394 487.361 562.795 457.691 553.905 428.412L580.192 420.422C570.39 388.155 554.635 359.22 534.449 334.675L513.185 352.019C494.383 328.798 471.147 309.966 445.281 296.068L458.175 271.917C429.611 256.667 398.037 246.895 365.27 243.581L362.463 270.87C345.901 269.169 328.999 269.324 312.019 271.473C299.65 273.041 287.237 275.671 274.895 279.426L266.906 253.135C261.434 254.795 256.052 256.631 250.779 258.636C224.953 268.412 201.549 282.115 181.174 298.875L198.512 320.151C176.019 338.366 157.643 360.739 143.887 385.634C143.442 386.436 143.003 387.243 142.568 388.055L138.034 385.634L118.424 375.159C116.574 378.609 114.802 382.101 113.12 385.634C100.833 411.385 93.0028 439.263 90.0875 468.08L90.3187 468.116L108.278 469.948L117.373 470.883C116.829 476.188 116.475 481.53 116.317 486.903C115.977 498.503 116.543 510.234 118.067 521.982C119.644 534.162 122.251 546.364 125.924 558.467L106.569 564.348L99.6364 566.452C101.69 573.218 104.007 579.829 106.569 586.281C110.558 596.352 115.151 606.029 120.284 615.298C127.565 628.439 135.935 640.745 145.243 652.132L166.516 634.792C185.414 657.981 208.677 676.912 234.548 690.806L221.653 714.961C250.212 730.211 281.691 740.015 314.453 743.32L315.116 737.248L317.26 716.036C345.887 718.979 375.657 716.353 404.928 707.452L412.917 733.743C445.181 723.944 474.016 708.218 498.559 688.036L481.216 666.76C504.435 647.955 523.364 624.689 537.256 598.82L561.408 611.716C576.656 583.153 586.422 551.57 589.736 518.799L589.636 518.83ZM453.042 537.707C439.953 571.113 412.246 598.406 375.217 609.656C311.094 629.146 243.32 592.951 223.806 528.72C221.231 520.245 219.631 511.711 218.937 503.227C214.375 447.521 248.983 394.231 304.633 377.322C320.51 372.497 336.601 371.078 352.13 372.638C372.179 374.656 391.29 381.652 407.771 392.73C430.146 407.767 447.67 430.317 456.116 458.127C464.381 485.329 462.659 513.167 453.042 537.707Z" fill="#9FD1FC"/>
<path d="M551.505 524.911L552.525 514.972C553.26 507.839 553.632 500.584 553.632 493.41C553.632 472.474 550.508 451.584 544.351 431.314L541.454 421.765L567.547 413.834C559.34 390.277 547.724 368.484 532.894 348.823L511.729 366.086L505.427 358.3C487.754 336.475 465.927 318.496 440.555 304.861L431.787 300.149L444.572 276.203C422.233 265.415 398.625 258.214 374.155 254.718L371.372 281.821L361.442 280.801C354.311 280.066 347.056 279.695 339.888 279.695C331.043 279.695 322.101 280.261 313.306 281.373C313.297 281.373 313.283 281.377 313.274 281.377C301.336 282.891 289.403 285.445 277.796 288.977L268.248 291.879L260.318 265.783C258.3 266.486 256.296 267.216 254.31 267.968C253.589 268.24 252.868 268.517 252.152 268.798C231.704 276.765 212.638 287.38 195.319 300.436L212.575 321.603L204.79 327.906C185.036 343.903 168.437 363.298 155.37 385.634C153.992 387.983 152.654 390.368 151.358 392.781L146.647 401.55L122.686 388.754C111.918 410.982 104.722 434.598 101.222 459.198L109.297 460.018L128.321 461.973L127.301 471.904C126.793 476.864 126.458 481.884 126.304 486.903C126.236 489.098 126.2 491.288 126.2 493.474C126.204 502.534 126.798 511.694 127.963 520.699C129.482 532.426 132.008 544.156 135.472 555.57L138.369 565.12L112.281 573.042C113.405 576.266 114.598 579.458 115.844 582.605C119.621 592.132 124.051 601.505 129.016 610.46C134.307 620.01 140.278 629.229 146.825 637.967L167.949 620.749L174.251 628.485C192.142 650.441 214.018 668.452 239.268 682.015L248.037 686.726L235.251 710.681C257.626 721.492 281.211 728.702 305.595 732.189L308.338 705.09L318.281 706.111C325.385 706.841 332.622 707.208 339.781 707.208C360.773 707.208 381.72 704.079 402.027 697.903L411.575 695.001L419.51 721.102C443.005 712.908 464.768 701.3 484.413 686.476L467.157 665.305L474.937 659.006C496.864 641.249 514.872 619.406 528.465 594.095L533.175 585.325L557.128 598.112C567.91 575.775 575.11 552.155 578.605 527.668L551.505 524.911ZM462.337 541.349C447.561 579.057 416.866 607.435 378.119 619.206C365.664 622.993 352.806 624.915 339.898 624.915C281.704 624.915 231.21 587.423 214.258 531.622C211.524 522.617 209.751 513.339 208.989 504.043C208.862 502.497 208.762 500.941 208.695 499.382C208.6 497.378 208.554 495.374 208.554 493.382C208.558 435.182 246.004 384.704 301.731 367.772C314.222 363.977 327.116 362.05 340.061 362.05C340.423 362.05 340.791 362.05 341.158 362.054C345.143 362.09 349.165 362.308 353.132 362.703C374.573 364.866 395.392 372.384 413.333 384.446C415.646 386.001 417.904 387.624 420.107 389.32C441.675 405.921 457.712 429.038 465.664 455.225C469.463 467.722 471.386 480.613 471.386 493.55C471.381 508.655 468.801 523.492 463.697 537.712C463.266 538.932 462.808 540.143 462.337 541.349Z" stroke="white" stroke-width="1.3238" stroke-miterlimit="10"/>
<path d="M352.13 372.636C336.601 371.078 320.509 372.496 304.635 377.322C248.981 394.23 214.375 447.521 218.937 503.227C208.862 499.923 201.856 496.579 199.017 493.275C177.101 467.793 220.419 360.758 230.105 346.999C239.785 333.235 275.459 326.098 275.459 326.098C275.459 326.098 275.459 317.943 274.441 302.143C267.305 302.143 259.661 283.798 259.661 283.798L252.525 271.565L250.778 258.635C256.053 256.633 261.432 254.797 266.906 253.135L274.895 279.426C287.235 275.673 299.651 273.043 312.021 271.476L321.322 342.922L352.13 372.636Z" fill="#83C4FC"/>
<path d="M507.845 525.386C505.036 527.941 480.374 539.309 453.043 537.707C462.659 513.167 464.381 485.33 456.117 458.126C447.669 430.318 430.144 407.765 407.768 392.728L473.7 374.519C473.7 374.519 520.585 374.01 526.701 383.184C532.817 392.358 519.058 515.19 507.845 525.386Z" fill="#83C4FC"/>
<mask id="mask0_561_3396" style="mask-type:luminance" maskUnits="userSpaceOnUse" x="149" y="101" width="406" height="513">
<path d="M554.989 101.377H149.841V521.867H223.353C236.153 574.388 283.496 613.377 339.951 613.377C396.406 613.377 443.748 574.388 456.549 521.867H554.99V101.377H554.989Z" fill="white"/>
</mask>
<g mask="url(#mask0_561_3396)">
<path d="M374.216 342.778L440.521 378.847L474.255 295.438L491.598 299.797C491.598 299.797 480.358 396.693 462.316 414.429C444.275 432.166 352.21 393.091 352.21 393.091C329.652 378.66 350.2 332.905 374.216 342.778Z" fill="#F7A594"/>
<path d="M473.04 307.649C473.04 307.649 467.375 289.047 468.726 284.248C470.077 279.448 488.676 274.802 489.365 277.052C490.055 279.303 491.433 284.823 479.344 286.95C486.572 294.962 494.097 310.294 473.04 307.649Z" fill="#F7A594"/>
<path d="M472.013 308.374C472.013 308.374 472.012 292.072 475.235 285.809C479.526 277.47 490.356 272.853 490.356 272.853C490.356 272.853 507.271 288.857 507.59 291.497C507.909 294.137 491.248 308.583 491.248 308.583C491.248 308.583 478.932 318.291 472.013 308.374Z" fill="#F7A594"/>
<path d="M476.134 287.369C476.134 287.369 484.325 247.454 490.571 249.212C493.451 250.023 485.763 288.151 485.763 288.151L476.134 287.369Z" fill="#F7A594"/>
<path d="M471.463 302.375C471.504 302.391 471.55 302.395 471.596 302.384C471.713 302.355 471.783 302.236 471.753 302.12C470.361 296.672 468.145 287.114 468.935 284.307C469.977 280.604 482.234 276.745 487.371 276.686C488.901 276.668 489.126 277.011 489.158 277.116C489.613 278.601 489.933 280.355 488.859 282.11C487.517 284.3 484.302 285.857 479.306 286.737L478.921 286.804L479.183 287.096C482.184 290.423 485.666 295.541 486.434 299.93C486.456 300.049 486.569 300.128 486.686 300.107C486.803 300.086 486.883 299.973 486.862 299.856C486.1 295.503 482.745 290.47 479.764 287.095C484.672 286.181 487.855 284.581 489.229 282.338C490.551 280.179 489.865 277.944 489.573 276.989C489.415 276.478 488.695 276.237 487.366 276.252C482.159 276.312 469.644 280.187 468.517 284.189C467.699 287.094 469.929 296.737 471.332 302.227C471.349 302.297 471.4 302.351 471.463 302.375Z" fill="#E6836F"/>
<path d="M494.098 296.747C494.158 296.77 494.217 296.792 494.276 296.811L494.422 296.859L494.516 296.737C497.483 292.89 503.813 291.813 503.875 291.803C503.994 291.783 504.074 291.672 504.055 291.553C504.036 291.435 503.923 291.354 503.806 291.374C503.542 291.417 497.376 292.464 494.27 296.347C494.264 296.345 494.259 296.343 494.252 296.34C490.48 294.865 485.88 285.194 485.833 285.095C485.782 284.987 485.654 284.94 485.545 284.991C485.436 285.042 485.39 285.172 485.441 285.28C485.633 285.691 490.16 295.208 494.098 296.747Z" fill="#E6836F"/>
<path d="M362.114 338.546C362.114 338.546 376.001 340.398 409.332 361.695C405.628 376.047 394.519 413.548 394.519 413.548C394.519 413.548 343.598 397.807 336.654 380.677C329.71 363.547 337.116 331.601 362.114 338.546Z" fill="#002E73"/>
<path d="M277.825 505.371C259.484 533.579 246.092 669.89 220.822 875.126L258.175 877.094C269.398 822.427 282.049 794.712 294.9 715.909C325.679 646.357 341.641 580.466 349.831 512.629C357.796 461.489 295.018 434.634 277.825 505.371Z" fill="#002E73"/>
<path d="M322.001 515.086C324.638 614.898 342.429 699.679 342.429 699.679C346.508 783.265 352.025 780.47 359.764 877.892L393.524 877.444C396.364 835.7 418.882 641.117 401.396 516.224C392.939 459.96 316.603 441.34 322.001 515.086Z" fill="#002E73"/>
<path d="M398.879 510.367C398.879 527.627 276.319 522.631 276.319 505.371C269.295 354.724 232.893 370.135 242.205 354.972C258.261 328.829 339.372 330.311 368.573 341.547C380.17 346.011 395.742 364.191 400.722 393.174C403.283 408.075 392.312 425.426 390.579 437.472C386.568 465.347 398.064 506.365 398.879 510.367Z" fill="#002E73"/>
<path d="M322.478 353.408C301.786 356.419 288.919 341.977 285.893 335.939L287.341 294.06L311.059 291.751C317.939 292.321 324.817 293.97 330.732 296.306L336.07 323.882L337.248 329.861C339.934 335.746 343.17 350.397 322.478 353.408Z" fill="#F7A594"/>
<path d="M295.323 303.542C299.043 309.269 314.62 323.933 336.07 323.881L331.451 300.024L295.323 303.542Z" fill="#E6836F"/>
<path d="M347.817 248.376C349.677 256.626 353.509 274.739 352.882 283.081C351.928 295.782 340.067 309.869 329.724 311.717C317.75 312.937 301.609 309.372 292.845 301.84C287.968 296.124 278.527 282.562 274.182 270.69C265.12 245.929 282.615 224.215 304.809 219.2C327.002 214.185 342.019 222.653 347.817 248.376Z" fill="#F7A594"/>
<path d="M281.616 287.049C276.988 278.902 283.138 275.601 289.88 281.926C288.728 275.778 281.72 257.765 287.926 251.793C294.938 244.862 325.79 247.878 342.364 230.594C342.364 230.594 330.011 203.505 289.462 219.503C243.666 243.788 281.616 287.049 281.616 287.049Z" fill="#73382A"/>
<path d="M287.719 291.873C291.019 289.131 290.834 283.465 287.306 279.219C283.778 274.973 278.243 273.754 274.943 276.496C271.644 279.239 271.829 284.904 275.357 289.15C278.884 293.396 284.419 294.615 287.719 291.873Z" fill="#F7A594"/>
<path d="M250.614 346.497C264.392 344.848 277.901 411.386 268.438 429.62C268.412 430.966 268.394 432.329 268.36 433.701C268.256 438.893 268.125 444.251 267.96 449.669C267.882 452.066 267.804 454.479 267.726 456.893C267.544 462.216 267.335 467.565 267.127 472.87C265.434 513.984 262.882 552.345 262.882 552.345H406.419C405.274 524.152 401.158 495.211 398.345 472.87C397.616 467.052 396.974 461.677 396.505 456.893C396.244 454.306 396.036 451.892 395.889 449.669C395.532 444.347 395.524 440.1 396.01 437.209C396.175 436.21 396.288 435.029 396.331 433.701C397.052 412.706 383.274 351.702 373.056 340.675C358.722 334.032 342.738 335.653 342.738 335.653C343.745 365.583 331.843 392.44 331.843 392.44C331.843 392.44 301.447 366.348 284.874 335.306C270.313 337.641 257.038 340.567 250.614 346.497Z" fill="#FDB477"/>
<path d="M395.888 449.669C395.531 444.346 395.523 440.1 396.009 437.208C396.174 436.21 396.287 435.029 396.33 433.701H268.359C268.255 438.893 268.125 444.251 267.96 449.669H395.888Z" fill="white"/>
<path d="M267.126 472.87H398.345C397.615 467.053 396.973 461.678 396.504 456.894H267.726C267.543 462.216 267.335 467.565 267.126 472.87Z" fill="white"/>
<path d="M337.621 234.33C337.621 234.33 350.276 239.826 363.431 234.497C361.433 243.49 297.824 256.813 289.664 253.316C281.505 249.819 320.303 230.5 337.621 234.33Z" fill="#5C2D22"/>
<path d="M267.262 263.99C265.496 251.056 263.483 217.844 292.89 209.306C319.024 201.717 337.771 217.425 346.63 227.777C350.464 228.367 360.79 225.564 362.606 227.701C363.032 228.976 362.632 231.442 352.134 235.606C352.169 235.67 352.188 235.706 352.188 235.706C314.233 244.034 281.862 254.636 268.178 272.848C268.178 272.848 265.719 273.968 264.277 273.968C263.02 273.968 266.156 268.89 267.262 263.99Z" fill="#FFF890"/>
<path d="M319.49 236.333C319.49 236.333 307.542 208.157 279.222 215.68L278.673 214.478C278.673 214.478 285.816 210.003 293.902 207.57C302.85 206.156 323.574 209.61 335.505 231.357C329.382 234.498 319.49 236.333 319.49 236.333Z" fill="#FFDD69"/>
<path d="M270.49 422.557L252.908 471.487L328.731 519.586L327.216 536.727C327.216 536.727 225.327 515.569 215.891 491.975C206.454 468.381 238.001 367.512 238.001 367.512C248.754 341.701 267.365 401.028 270.49 422.557Z" fill="#F79683"/>
<path d="M328.45 520.687L368.324 521.694C368.324 521.694 356.08 541.291 328.221 537.738C291.532 533.059 306.029 519.14 328.45 520.687Z" fill="#F79683"/>
<path d="M490.661 516.171V518.242C490.661 518.348 490.653 518.452 490.634 518.554C490.418 519.895 488.81 520.937 486.86 520.937H312.528C310.577 520.937 308.972 519.895 308.754 518.554C308.736 518.452 308.728 518.348 308.728 518.242V516.171H490.661Z" fill="#5D4F99"/>
<path d="M490.634 518.553C490.418 519.895 488.81 520.936 486.86 520.936H312.528C310.577 520.936 308.972 519.895 308.755 518.553H490.634Z" fill="#241F3C"/>
<path d="M510.889 396.95L511.896 397.937L511.348 398.708L510.053 396.893L510.889 396.95Z" fill="#241F3C"/>
<path d="M488.124 515.863H346.695C344.284 515.863 342.658 513.909 343.062 511.498L361.727 400.292C362.132 397.881 364.414 395.926 366.825 395.926H508.254C510.665 395.926 512.291 397.881 511.886 400.292L493.222 511.498C492.817 513.908 490.535 515.863 488.124 515.863Z" fill="#5D4F99"/>
<path d="M489.161 516.882H347.732C345.322 516.882 343.695 514.928 344.1 512.517L362.764 401.311C363.169 398.9 365.451 396.945 367.862 396.945H509.291C511.702 396.945 513.328 398.9 512.923 401.311L494.259 512.517C493.854 514.928 491.572 516.882 489.161 516.882Z" fill="#241F3C"/>
<path d="M448.589 462.074C449.814 451.436 442.502 441.856 432.258 440.676C422.013 439.496 412.715 447.163 411.49 457.801C410.265 468.439 417.577 478.019 427.822 479.199C438.066 480.379 447.364 472.712 448.589 462.074Z" fill="#48C6AA"/>
<path d="M269.343 429.056L220.503 404.904C220.503 404.904 234.06 356.718 249.476 347.505C256.996 352.018 264.469 362.762 268.579 381.4C272.127 397.496 272.185 413.948 269.343 429.056Z" fill="#002E73"/>
<path d="M331.584 279.452C331.616 279.452 331.648 279.449 331.681 279.442C331.893 279.4 336.906 278.37 338.498 275.717C340.074 273.09 329.66 262.641 326.431 259.502C326.237 259.313 325.928 259.318 325.739 259.511C325.551 259.705 325.556 260.015 325.749 260.203C332.102 266.38 338.462 273.876 337.66 275.214C336.29 277.496 331.537 278.474 331.489 278.483C331.224 278.536 331.053 278.794 331.106 279.059C331.152 279.291 331.356 279.452 331.584 279.452Z" fill="#73382A"/>
<path d="M323.435 290.937C331.77 290.937 338.779 288.08 338.891 288.032C339.141 287.929 339.259 287.642 339.154 287.393C339.05 287.144 338.765 287.024 338.515 287.129C338.338 287.203 320.634 294.41 308.393 285.56C308.174 285.401 307.867 285.451 307.71 285.67C307.551 285.889 307.6 286.195 307.819 286.353C312.657 289.851 318.298 290.937 323.435 290.937Z" fill="#73382A"/>
<path d="M335.794 255.561C336.241 257.497 337.485 258.863 338.574 258.612C339.663 258.361 340.184 256.587 339.738 254.651C339.292 252.715 338.047 251.349 336.958 251.601C335.869 251.852 335.348 253.624 335.794 255.561Z" fill="#5C2D22"/>
<path d="M304.312 264.164C304.989 266.234 306.482 267.602 307.646 267.222C308.81 266.841 309.205 264.854 308.527 262.785C307.85 260.715 306.358 259.347 305.193 259.727C304.03 260.108 303.635 262.094 304.312 264.164Z" fill="#5C2D22"/>
</g>
<mask id="mask1_561_3396" style="mask-type:luminance" maskUnits="userSpaceOnUse" x="149" y="101" width="406" height="513">
<path d="M554.989 101.377H149.841V521.867H223.353C236.153 574.388 283.496 613.377 339.951 613.377C396.406 613.377 443.748 574.388 456.549 521.867H554.99V101.377H554.989Z" fill="white"/>
</mask>
<g mask="url(#mask1_561_3396)">
<path d="M496.484 241.399C494.148 242.733 491.152 241.933 489.791 239.613C488.43 237.292 489.22 234.329 491.556 232.995C493.892 231.661 496.888 232.461 498.249 234.781C499.61 237.101 498.82 240.065 496.484 241.399Z" fill="#CBE4FF"/>
<path d="M516.043 226.104L516.045 226.103C516.751 225.636 516.961 224.689 516.498 223.979C508.193 211.255 491.995 207.338 478.811 214.856C478.073 215.276 477.828 216.216 478.246 216.955C478.671 217.707 479.633 217.992 480.388 217.572C492.109 211.026 506.413 214.486 513.858 225.675C514.336 226.395 515.323 226.579 516.043 226.104Z" fill="#CBE4FF"/>
<path d="M510.596 229.702L510.605 229.696C511.331 229.217 511.517 228.242 511.026 227.522C504.512 217.963 492.226 214.989 482.074 220.505C481.308 220.921 481.029 221.876 481.458 222.635L481.464 222.644C481.883 223.384 482.822 223.667 483.573 223.269C492.299 218.644 502.78 221.182 508.432 229.293C508.919 229.993 509.885 230.171 510.596 229.702Z" fill="#CBE4FF"/>
<path d="M505.312 233.19L505.329 233.179C506.064 232.694 506.255 231.696 505.735 230.983C500.969 224.449 492.434 222.38 485.215 226C484.425 226.396 484.139 227.375 484.573 228.143L484.584 228.161C484.995 228.888 485.904 229.164 486.657 228.803C492.475 226.011 499.273 227.66 503.172 232.813C503.676 233.481 504.614 233.651 505.312 233.19Z" fill="#CBE4FF"/>
</g>
<path d="M205.084 528.274V609.009C205.084 612.482 202.27 615.297 198.796 615.297H120.284C115.149 606.029 110.558 596.353 106.566 586.281V564.347L125.922 558.468C122.25 546.366 119.645 534.163 118.068 521.981H198.797C202.27 521.981 205.084 524.8 205.084 528.274Z" fill="#83C4FC"/>
<path d="M180.113 395.65V476.886C180.113 482.418 175.629 486.903 170.093 486.903H116.316C116.475 481.529 116.828 476.187 117.372 470.882L108.277 469.948L90.3182 468.116L90.0869 468.079C93.0023 439.263 100.832 411.385 113.119 385.633H170.093C175.629 385.633 180.113 390.118 180.113 395.65Z" fill="#83C4FC"/>
<path d="M151.34 475.095H41.9486C36.4153 475.095 31.9292 470.609 31.9292 465.075V383.843C31.9292 378.309 36.4153 373.822 41.9486 373.822H151.34C156.874 373.822 161.36 378.308 161.36 383.843V465.075C161.36 470.609 156.874 475.095 151.34 475.095Z" fill="#CBE4FF"/>
<path d="M119.061 456.08H74.228C67.1611 456.08 61.4181 450.337 61.4181 443.27C61.4181 436.203 67.1611 430.46 74.228 430.46L119.061 430.463C126.128 430.463 131.871 436.206 131.871 443.273C131.871 450.34 126.128 456.083 119.061 456.083V456.08ZM74.228 432.597C68.3469 432.597 63.5523 437.389 63.5523 443.273C63.5523 449.154 68.3436 453.949 74.228 453.949L119.061 453.946C124.942 453.946 129.737 449.154 129.737 443.27C129.737 437.389 124.945 432.594 119.061 432.594L74.228 432.597Z" fill="#002E73"/>
<path d="M85.4677 443.273C85.4677 444.948 84.1108 446.314 82.4356 446.314C80.7604 446.314 79.3945 444.948 79.3945 443.273C79.3945 441.597 80.7604 440.231 82.4356 440.231C84.1108 440.231 85.4677 441.597 85.4677 443.273Z" fill="#002E73"/>
<path d="M96.6445 440.228C94.9693 440.228 93.6034 441.594 93.6034 443.269C93.6034 444.945 94.9693 446.311 96.6445 446.311C98.3197 446.311 99.6856 444.945 99.6856 443.269C99.6856 441.594 98.3197 440.228 96.6445 440.228ZM96.6445 440.228C94.9693 440.228 93.6034 441.594 93.6034 443.269C93.6034 444.945 94.9693 446.311 96.6445 446.311C98.3197 446.311 99.6856 444.945 99.6856 443.269C99.6856 441.594 98.3197 440.228 96.6445 440.228ZM119.061 435.797L74.228 435.8C72.1566 435.8 70.3013 436.632 68.9443 437.989C67.5874 439.346 66.7558 441.201 66.7558 443.273C66.7558 447.403 70.0971 450.745 74.228 450.745H119.061C121.132 450.745 122.988 449.913 124.345 448.556C125.702 447.199 126.533 445.344 126.533 443.273C126.533 439.142 123.192 435.8 119.061 435.8V435.797ZM82.439 448.445C79.578 448.445 77.2634 446.119 77.2634 443.269C77.2634 440.421 79.581 438.094 82.439 438.094C85.3 438.094 87.6056 440.42 87.6056 443.269C87.6056 446.118 85.288 448.445 82.439 448.445ZM96.6445 448.445C93.7956 448.445 91.4689 446.119 91.4689 443.269C91.4689 440.421 93.7955 438.094 96.6445 438.094C99.4935 438.094 101.82 440.42 101.82 443.269C101.82 446.118 99.4935 448.445 96.6445 448.445ZM110.85 448.445C108.001 448.445 105.683 446.119 105.683 443.269C105.683 440.421 108.001 438.094 110.85 438.094C113.699 438.094 116.026 440.42 116.026 443.269C116.026 446.118 113.708 448.445 110.85 448.445ZM110.85 440.226C109.175 440.226 107.818 441.592 107.818 443.267C107.818 444.942 109.175 446.308 110.85 446.308C112.525 446.308 113.891 444.942 113.891 443.267C113.891 441.592 112.525 440.226 110.85 440.226ZM96.6445 440.226C94.9693 440.226 93.6034 441.592 93.6034 443.267C93.6034 444.942 94.9693 446.308 96.6445 446.308C98.3197 446.308 99.6856 444.942 99.6856 443.267C99.6856 441.592 98.3197 440.226 96.6445 440.226Z" fill="#002E73"/>
<path d="M93.4413 432.597H78.4972C77.9088 432.597 77.4285 432.117 77.4285 431.528V416.584C77.4285 415.996 77.9088 415.516 78.4972 415.516H93.4413C94.0297 415.516 94.51 415.996 94.51 416.584V431.528C94.51 432.117 94.0297 432.597 93.4413 432.597ZM79.5654 430.463H92.3753V417.653H79.5654V430.463Z" fill="#002E73"/>
<path d="M114.789 432.597H99.8447C99.2563 432.597 98.7759 432.117 98.7759 431.528V416.584C98.7759 415.996 99.2563 415.516 99.8447 415.516H114.789C115.377 415.516 115.857 415.996 115.857 416.584V431.528C115.857 432.117 115.377 432.597 114.789 432.597ZM100.913 430.463H113.723V417.653H100.913V430.463Z" fill="#002E73"/>
<path d="M93.4412 386.699H99.8446V392.955C99.8446 393.628 99.3013 394.171 98.6288 394.171H94.6481C93.9756 394.171 93.4323 393.627 93.4323 392.955V386.699H93.4412Z" fill="#002E73"/>
<path d="M96.6445 401.643C96.0561 401.643 95.5757 401.163 95.5757 400.574V394.171C95.5757 393.582 96.0561 393.102 96.6445 393.102C97.2329 393.102 97.7132 393.582 97.7132 394.171V400.574C97.7132 401.163 97.2329 401.643 96.6445 401.643Z" fill="#002E73"/>
<path d="M93.4413 410.18C93.1651 410.18 92.8979 410.072 92.6848 409.871L91.3939 408.58C90.8175 408.004 90.4962 407.223 90.4962 406.404C90.4962 405.581 90.8174 404.813 91.3939 404.236L95.846 399.784C96.2632 399.367 96.9357 399.367 97.35 399.784L101.844 404.278C102.421 404.855 102.742 405.635 102.742 406.455C102.742 407.277 102.421 408.046 101.844 408.631L100.595 409.88C100.178 410.297 99.5055 410.297 99.0912 409.88C98.6739 409.463 98.6739 408.79 99.0912 408.376L100.34 407.127C100.703 406.764 100.703 406.167 100.34 405.803L96.6055 402.069L92.9129 405.761C92.7328 405.941 92.6367 406.179 92.6367 406.422C92.6367 406.668 92.7328 406.914 92.9129 407.082L94.2038 408.373C94.6211 408.79 94.6211 409.463 94.2038 409.877C93.9907 410.09 93.7235 410.186 93.4473 410.186L93.4413 410.18Z" fill="#002E73"/>
<path d="M84.3687 385.633H108.919V387.767H84.3687V385.633Z" fill="#002E73"/>
<path d="M81.7004 416.587H85.9693V421.925H81.7004V416.587Z" fill="#002E73"/>
<path d="M103.048 416.587H107.317V421.925H103.048V416.587Z" fill="#002E73"/>
<path d="M99.9095 604.414H185.85C189.324 604.414 192.139 601.598 192.139 598.123V517.39C192.139 513.915 189.323 511.099 185.85 511.099H99.9095C96.4355 511.099 93.6197 513.916 93.6197 517.39V598.123C93.6191 601.597 96.4355 604.414 99.9095 604.414Z" fill="#407BFF"/>
<path d="M170.538 579.154H161.894L154.746 558.727C166.232 542.592 150.721 526.733 150.55 526.564C146.683 522.703 136.804 527.919 128.783 535.2L124.41 532.454C125.044 530.661 124.648 528.587 123.213 527.151C121.226 525.164 117.992 525.164 116.004 527.151C114.017 529.139 114.017 532.373 116.004 534.36C116.963 535.319 118.25 535.857 119.613 535.857C120.2 535.857 120.772 535.752 121.31 535.56L124.056 539.927C116.774 547.953 111.558 557.832 115.42 561.694C115.548 561.822 124.033 570.121 134.888 570.121C136.248 570.121 137.655 569.987 139.084 569.69L136.734 579.146H127.345C126.729 579.146 126.23 579.645 126.23 580.261V592.826C126.23 593.442 126.729 593.942 127.345 593.942H170.533C171.149 593.942 171.649 593.442 171.649 592.826V580.261C171.649 579.645 171.149 579.146 170.533 579.146L170.538 579.154ZM169.422 591.719H128.458V581.386H169.414V591.719H169.422ZM123.213 534.361C123.213 534.361 123.222 534.352 123.228 534.346L128.263 537.508L140.194 546.911C139.502 547.669 138.773 548.436 138.029 549.18C137.285 549.924 136.518 550.653 135.76 551.345L126.357 539.414L123.195 534.379C123.195 534.379 123.204 534.37 123.21 534.364L123.213 534.361ZM136.359 553.811C137.445 552.858 138.538 551.832 139.616 550.76C140.688 549.688 141.714 548.595 142.667 547.503C147.287 542.244 151.116 536.13 151.794 531.577C155.842 537.313 161.583 549.319 149.882 561.017C138.195 572.704 126.175 566.968 120.433 562.92C124.992 562.243 131.1 558.428 136.368 553.808L136.359 553.811ZM151.451 562.595C152.046 562 152.596 561.404 153.11 560.811L159.529 579.155H139.029L141.542 569.023C144.794 567.916 148.141 565.905 151.442 562.595H151.451Z" fill="white"/>
<path d="M61.7024 551.448H5.35404C2.39741 551.448 0 549.051 0 546.093V496.356C0 493.399 2.39685 491.001 5.35404 491.001H61.7024C64.659 491.001 67.0564 493.398 67.0564 496.356V546.093C67.0559 549.051 64.659 551.448 61.7024 551.448Z" fill="#CBE4FF"/>
<path fill-rule="evenodd" clip-rule="evenodd" d="M38.4266 508.563H25.1236C24.6995 508.572 24.3622 508.918 24.3622 509.34C24.3622 509.763 24.6995 510.108 25.1236 510.118H38.4266C38.849 510.108 39.1863 509.763 39.1863 509.34C39.1863 508.918 38.849 508.572 38.4266 508.563ZM26.6545 510.705C26.6223 510.881 26.5966 511.059 26.579 511.237C26.5517 511.497 26.5372 511.758 26.5372 512.019C26.5163 513.63 27.0657 515.198 28.0872 516.446C28.9867 517.566 30.3375 518.229 31.7735 518.255C33.2095 518.229 34.5603 517.566 35.4598 516.446C36.4813 515.198 37.0307 513.631 37.0098 512.019C37.0098 511.758 36.9969 511.497 36.9696 511.237C36.9503 511.059 36.9246 510.881 36.8941 510.705H26.6545ZM25.4723 510.705V511.998C25.4723 512.28 25.6875 512.514 25.967 512.54C25.9557 512.368 25.9509 512.194 25.9509 512.019C25.9509 511.738 25.9654 511.457 25.9959 511.178C26.0119 511.019 26.0328 510.861 26.0601 510.705H25.4723ZM36.9393 505.198L35.9225 506.436V506.434C35.8599 506.513 35.7587 506.553 35.6591 506.539L31.7752 506.033L27.893 506.539C27.7934 506.553 27.6938 506.513 27.6295 506.434L26.6128 505.196V505.198C25.9623 506.007 25.5109 506.958 25.2973 507.975H38.2549C38.0428 506.958 37.5914 506.007 36.9393 505.198ZM36.5393 504.762L35.5723 505.938L31.8186 505.448H31.8202C31.8057 505.446 31.7929 505.445 31.7784 505.445H31.772C31.7592 505.445 31.7447 505.446 31.7319 505.448L27.9749 505.938L27.0079 504.762L26.9999 504.753C27.1493 504.597 27.3067 504.449 27.4705 504.308H27.4721C28.672 503.283 30.1963 502.721 31.7736 502.721C33.3509 502.721 34.8769 503.283 36.0751 504.308C36.239 504.447 36.3964 504.597 36.5457 504.753L36.5377 504.762H36.5393ZM25.2203 520.749C25.4002 522.085 25.813 523.38 26.4427 524.572C26.8925 525.412 27.5607 526.114 28.3782 526.602L31.2036 524.031H31.2052C30.341 523.711 29.5652 523.192 28.9372 522.518C28.2433 521.753 27.6875 520.873 27.2972 519.917C26.5824 520.132 25.8869 520.41 25.2203 520.749ZM29.8397 530.902L24.7191 526.714L23.9545 521.486C24.189 521.33 24.4299 521.182 24.6757 521.043H24.6741C24.8733 522.377 25.2989 523.669 25.9334 524.861C26.4683 525.861 27.2859 526.682 28.2849 527.222C28.399 527.281 28.5387 527.259 28.6287 527.167L29.6021 526.282L30.5722 526.941L29.8382 530.902L29.8397 530.902ZM20.6425 539.728V529.117C20.6425 529.056 20.6618 528.997 20.6987 528.947C21.2818 528.129 21.6753 527.193 21.8488 526.205C22.0191 525.209 22.0303 524.191 21.8825 523.19C21.4986 523.581 21.1404 523.993 20.8096 524.427C19.1278 526.632 18.2171 529.329 18.2187 532.103V539.728L20.6425 539.728ZM21.232 534.277V529.209C21.8343 528.34 22.2407 527.352 22.4238 526.311C22.6262 525.113 22.6182 523.889 22.4013 522.693C22.7242 522.399 23.0631 522.122 23.4148 521.862L24.1553 526.912C24.1649 526.984 24.2019 527.05 24.2597 527.097L31.4811 533.001V534.276L21.232 534.277ZM31.4831 537.176V539.728H21.232V537.174L31.4831 537.176ZM21.232 536.588V534.863H31.4814V536.588H21.232ZM32.3454 524.03L35.1707 526.602C35.9883 526.114 36.6581 525.412 37.1078 524.572C37.7359 523.378 38.1503 522.084 38.3286 520.747C37.662 520.41 36.9681 520.131 36.2517 519.915C35.8614 520.873 35.3073 521.753 34.6134 522.517C33.9853 523.192 33.2095 523.711 32.3454 524.03ZM33.1935 531.323L32.4466 527.297L31.9422 527.64C31.9358 527.644 31.9277 527.649 31.9213 527.652L31.9165 527.654L31.9117 527.657H31.9036H31.9052C31.8683 527.676 31.8265 527.686 31.7848 527.688H31.7719C31.7302 527.686 31.6884 527.676 31.6515 527.657H31.6418L31.637 527.654L31.6322 527.652L31.6338 527.654C31.6274 527.649 31.6193 527.644 31.6129 527.64L31.1085 527.297L30.3633 531.323L31.7815 532.482L33.1998 531.323H33.1935ZM32.9766 526.939L33.9484 526.281L34.9218 527.166L34.9202 527.167C35.0101 527.259 35.1499 527.281 35.2639 527.222C36.263 526.682 37.0822 525.861 37.6171 524.861C38.2515 523.669 38.6772 522.378 38.8747 521.043C39.1221 521.182 39.3614 521.33 39.5959 521.486L38.8314 526.714L33.7107 530.9L32.9766 526.939ZM32.4771 526.57L31.7752 527.047L31.0733 526.57C31.0652 526.563 31.0572 526.559 31.0476 526.554L30.0469 525.878L31.7736 524.305L33.5003 525.878L32.4996 526.554C32.4916 526.559 32.4835 526.565 32.4755 526.57H32.4771ZM41.6681 523.19C41.522 524.191 41.5332 525.209 41.7019 526.205C41.8753 527.193 42.2689 528.131 42.8535 528.947C42.8889 528.997 42.9082 529.056 42.9082 529.117V539.728H45.3336V532.103C45.3352 529.329 44.4212 526.632 42.7379 524.427C42.407 523.994 42.0504 523.581 41.6681 523.19ZM32.0692 534.277V533.001L39.2894 527.097C39.3472 527.05 39.3841 526.984 39.3954 526.912L40.1359 521.862H40.1343C40.486 522.121 40.8249 522.399 41.1478 522.693C40.9309 523.889 40.9229 525.113 41.1253 526.311C41.3084 527.352 41.7164 528.342 42.3203 529.209V534.277L32.0692 534.277ZM32.0692 536.588V534.863H42.3187V536.588H32.0692ZM42.3203 537.176L42.3187 539.728H32.0692V537.174L42.3203 537.176ZM35.3555 520.441V520.439C35.0423 521.049 34.6487 521.613 34.1845 522.116C33.5308 522.821 32.6971 523.335 31.7735 523.603C30.85 523.335 30.0163 522.821 29.3626 522.116C28.8984 521.613 28.5049 521.049 28.1932 520.439L29.4927 519.421C29.5618 519.368 29.6035 519.284 29.6051 519.196L29.6212 518.36V518.359C30.9672 518.993 32.5253 519.001 33.8791 518.381L33.9418 519.213C33.9482 519.295 33.9883 519.371 34.0526 519.422L35.352 520.441L35.3555 520.441ZM48.7436 506.545H47.1438C47.0394 506.545 46.9398 506.585 46.8675 506.661C46.7727 506.763 46.7117 506.894 46.694 507.032C46.6619 507.245 46.6362 507.428 46.6153 507.583C46.5961 507.726 46.5736 507.907 46.5447 508.13C46.5029 508.484 46.2732 508.784 45.9439 508.916C45.8974 508.935 45.8427 508.958 45.7801 508.986C45.7175 509.017 45.6693 509.038 45.6195 509.062L45.6179 509.064C45.5183 509.113 45.3978 509.101 45.3095 509.031C45.1071 508.872 44.9047 508.718 44.7023 508.566C44.4999 508.415 44.2959 508.264 44.0887 508.113V508.114C43.9747 508.028 43.8381 507.978 43.6952 507.973C43.5924 507.971 43.4944 508.011 43.4221 508.084L42.2913 509.218C42.2175 509.29 42.1757 509.391 42.1773 509.494C42.1821 509.635 42.2319 509.77 42.3187 509.881C42.4198 510.018 42.5307 510.165 42.6511 510.321C42.778 510.485 42.8905 510.631 42.9884 510.76H42.9868C43.2085 511.036 43.2599 511.41 43.1218 511.736C43.0993 511.793 43.0784 511.846 43.0591 511.895C43.0431 511.939 43.027 511.985 43.0093 512.035C42.9788 512.152 42.8792 512.239 42.7604 512.254C42.4953 512.286 42.2464 512.319 42.0103 512.353C41.7517 512.39 41.5027 512.429 41.265 512.467H41.2634C41.122 512.485 40.9903 512.547 40.8859 512.645C40.812 512.716 40.7703 512.814 40.7719 512.917V514.518V514.517C40.7703 514.621 40.812 514.721 40.8875 514.793C40.9887 514.888 41.1188 514.949 41.2569 514.966C41.4625 514.997 41.644 515.023 41.7998 515.044C41.9428 515.063 42.1227 515.085 42.3427 515.113C42.6929 515.154 42.9933 515.382 43.1282 515.709C43.1555 515.773 43.178 515.827 43.1989 515.872C43.2198 515.917 43.2439 515.97 43.2663 516.015L43.268 516.017C43.329 516.121 43.3194 516.253 43.2439 516.348C43.08 516.555 42.9226 516.754 42.7765 516.944C42.6399 517.12 42.4873 517.321 42.3187 517.548H42.3171C42.2303 517.657 42.1821 517.792 42.1773 517.932C42.1757 518.036 42.2159 518.136 42.2898 518.209L43.4221 519.342C43.496 519.416 43.5956 519.456 43.6984 519.454C43.8398 519.449 43.9747 519.4 44.0855 519.315C44.2558 519.188 44.4036 519.077 44.5304 518.982C44.622 518.913 44.7682 518.801 44.9673 518.645V518.643C45.2436 518.423 45.6195 518.372 45.9455 518.51C46.0034 518.534 46.0596 518.556 46.1142 518.576C46.1688 518.595 46.2138 518.613 46.2604 518.627L46.2587 518.629C46.3792 518.658 46.4676 518.757 46.4836 518.879C46.5157 519.143 46.5479 519.39 46.5816 519.625C46.6185 519.882 46.6571 520.129 46.694 520.365H46.6956C46.7133 520.506 46.776 520.638 46.8723 520.742C46.9446 520.816 47.0426 520.858 47.1454 520.857H48.7468H48.7452C48.8496 520.858 48.9492 520.816 49.0215 520.741C49.1162 520.64 49.1773 520.51 49.1949 520.371C49.2255 520.163 49.2512 519.981 49.272 519.825C49.2913 519.682 49.3138 519.499 49.3427 519.279V519.278C49.3813 518.929 49.6093 518.629 49.9338 518.495C49.9756 518.478 50.0254 518.454 50.0864 518.428C50.141 518.402 50.1844 518.381 50.2213 518.364C50.3257 518.303 50.4574 518.312 50.5522 518.388C50.7594 518.552 50.957 518.707 51.1465 518.855C51.3232 518.992 51.5256 519.146 51.7521 519.315V519.313C51.8613 519.4 51.9962 519.45 52.136 519.454C52.2404 519.456 52.3416 519.416 52.4138 519.342L53.5462 518.209C53.6201 518.136 53.6603 518.036 53.6587 517.932C53.6538 517.792 53.6057 517.657 53.5189 517.546C53.392 517.376 53.2812 517.226 53.1848 517.101C53.1158 517.01 53.0033 516.865 52.8475 516.664H52.8491C52.6291 516.388 52.5793 516.014 52.7174 515.689C52.7399 515.633 52.7624 515.578 52.7817 515.525C52.8009 515.472 52.817 515.429 52.8347 515.376V515.375C52.8652 515.259 52.9648 515.174 53.0852 515.161C53.3615 515.13 53.6137 515.1 53.8418 515.071C54.0698 515.042 54.3236 515.007 54.6015 514.967H54.5999C54.7397 514.95 54.8682 514.889 54.971 514.795C55.0448 514.721 55.0866 514.621 55.0866 514.517V512.915C55.0866 512.811 55.0448 512.711 54.971 512.639C54.8698 512.544 54.7397 512.483 54.6015 512.467C54.3863 512.435 54.2016 512.409 54.0458 512.387C53.9028 512.368 53.7181 512.344 53.4932 512.315V512.316C53.143 512.274 52.8427 512.046 52.7094 511.719C52.6837 511.658 52.6612 511.606 52.6435 511.566C52.6242 511.526 52.5985 511.471 52.5712 511.414C52.5214 511.314 52.5343 511.194 52.6034 511.105C52.7608 510.903 52.9166 510.7 53.0676 510.498C53.2201 510.296 53.3695 510.092 53.5205 509.884C53.6057 509.77 53.6554 509.634 53.6603 509.491C53.6619 509.388 53.6217 509.29 53.5494 509.218L52.417 508.085C52.3448 508.012 52.2452 507.971 52.1408 507.973C52.001 507.978 51.8645 508.026 51.7553 508.113C51.6187 508.214 51.471 508.325 51.3152 508.445C51.1513 508.572 51.0052 508.685 50.8767 508.783C50.7401 508.89 50.5779 508.959 50.4045 508.983C50.2326 509.007 50.0591 508.983 49.8985 508.916C49.8519 508.897 49.8005 508.874 49.7443 508.855C49.6977 508.837 49.6479 508.819 49.5965 508.802C49.4857 508.768 49.4054 508.67 49.3925 508.556C49.362 508.278 49.3315 508.026 49.301 507.795C49.2721 507.565 49.2351 507.31 49.1933 507.03C49.1773 506.892 49.1162 506.762 49.0215 506.659C48.9492 506.585 48.848 506.543 48.7452 506.543L48.7436 506.545ZM50.2213 511.41C51.3136 512.503 51.4822 514.215 50.6245 515.5C49.7652 516.785 48.1188 517.284 46.6908 516.693C45.2629 516.102 44.4518 514.584 44.7521 513.068C45.0541 511.552 46.3857 510.461 47.9309 510.461C48.7902 510.459 49.6142 510.802 50.2213 511.41ZM47.9309 509.873C49.7571 509.873 51.328 511.163 51.6846 512.954C52.0412 514.745 51.0839 516.537 49.3957 517.238C47.7092 517.936 45.7625 517.345 44.7488 515.827C43.7337 514.31 43.9328 512.286 45.2242 510.994C45.9406 510.275 46.9157 509.872 47.9309 509.873ZM37.4902 510.705C37.5159 510.861 37.5368 511.018 37.5544 511.177C37.5834 511.457 37.5978 511.738 37.5994 512.019C37.5994 512.194 37.5946 512.368 37.5834 512.539H37.5817C37.8612 512.514 38.0765 512.279 38.0781 511.998V510.705H37.4902Z" fill="#002E73"/>
<path d="M810.869 274.908L807.111 274.342L797.902 273.032C799.854 259.371 799.171 245.107 795.464 230.913L808.211 227.585C807.106 223.355 805.791 219.232 804.275 215.23C800.185 204.429 794.64 194.493 787.93 185.635L782.128 189.992L777.411 193.539C768.843 182.06 758.072 172.597 745.938 165.446L752.578 154.121C739.181 146.273 724.24 140.994 708.606 138.78L706.744 151.799C693.085 149.848 678.822 150.531 664.625 154.238L661.298 141.49C645.655 145.575 631.495 152.572 619.357 161.777L627.261 172.298C615.778 180.862 606.316 191.639 599.171 203.77L587.847 197.129C579.949 210.542 574.717 225.47 572.508 241.106L572.616 241.13L581.188 242.351L585.526 242.969C583.575 256.629 584.267 270.945 587.959 285.093L575.213 288.42C579.298 304.065 586.284 318.18 595.436 330.333L605.956 322.429C614.57 333.899 625.356 343.409 637.485 350.555L630.85 361.88C644.246 369.733 659.136 375.026 674.775 377.235L675.205 374.338L676.633 364.216C690.296 366.167 704.605 365.475 718.798 361.768L722.125 374.516C737.768 370.431 751.88 363.444 764.023 354.243L756.12 343.718C767.598 335.154 777.107 324.367 784.257 312.236L795.581 318.872C803.428 305.478 808.706 290.536 810.92 274.895L810.869 274.908ZM706.422 314.351C675.332 322.47 643.55 303.844 635.422 272.699C627.304 241.601 645.927 209.82 677.017 201.701C705.547 194.255 734.615 209.259 745.532 235.742C746.533 238.166 747.38 240.684 748.059 243.291C749.463 248.677 750.071 254.083 749.944 259.381C749.369 284.722 732.177 307.63 706.422 314.351Z" fill="#BADBFF"/>
<path d="M749.944 259.381C750.071 254.083 749.462 248.677 748.059 243.291C747.38 240.685 746.533 238.166 745.532 235.742L782.128 189.991L787.931 185.634C794.641 194.493 800.186 204.429 804.276 215.23L749.944 259.381Z" fill="#B7D9FF"/>
<mask id="mask2_561_3396" style="mask-type:luminance" maskUnits="userSpaceOnUse" x="481" y="8" width="370" height="309">
<path d="M850.788 8.32617H483.667L481.563 129.897L635.558 243.099C634.261 247.91 633.566 252.968 633.566 258.19C633.566 290.147 659.468 316.053 691.421 316.053C715.751 316.053 736.571 301.031 745.121 279.757H850.787V8.32617H850.788Z" fill="white"/>
</mask>
<g mask="url(#mask2_561_3396)">
<path d="M676.235 233.94L677.649 232.79C665.219 217.507 660.157 204.759 662.175 193.82C664.922 178.93 680.579 169.901 694.393 161.936C702.148 157.464 709.473 153.241 713.609 148.45C716.713 144.855 718 140.961 717.433 136.877C716.147 127.613 705.818 120.712 705.379 120.423L704.376 121.945C704.476 122.011 714.46 128.69 715.628 137.133C716.118 140.672 714.975 144.079 712.23 147.258C708.294 151.815 701.1 155.963 693.482 160.356C679.326 168.519 663.282 177.77 660.382 193.489C658.262 204.985 663.447 218.217 676.235 233.94Z" fill="#453B73"/>
<path d="M626.758 305.141L632.901 301.212C622.808 285.427 622.81 271.106 632.908 259.795C649.692 240.995 683.77 255.856 684.112 256.008L687.084 249.349C686.69 249.174 677.302 245.02 665.401 243.51C649.106 241.442 635.991 245.394 627.47 254.939C615.14 268.748 614.888 286.577 626.758 305.141Z" fill="#453B73"/>
<path d="M561.854 103.974L571.338 111.325L605.394 67.3794L595.91 60.0283L561.854 103.974Z" fill="#E8DEFF"/>
<path d="M571.284 89.7563L582.399 98.3735C583.12 101.518 582.476 104.947 580.341 107.692L574.088 115.717L556.547 102.067L562.8 94.0417C564.925 91.3086 568.073 89.8412 571.284 89.7563Z" fill="#8DC3FF"/>
<path d="M552.893 103.318L573.656 119.413L575.608 116.893L554.845 100.799L552.893 103.318Z" fill="#453B73"/>
<path d="M544.401 166.021L547.553 169.302L577.894 151.038L569.298 142.093L544.401 166.021Z" fill="#E8DEFF"/>
<path d="M514.014 142.691L510.105 140.366L520.998 106.667L531.661 113.008L514.014 142.691Z" fill="#E8DEFF"/>
<path d="M544.887 112.174L565.787 128.376C568.333 130.351 572.032 129.882 574.006 127.335C575.979 124.789 575.511 121.09 572.965 119.116L552.065 102.913C549.519 100.939 545.82 101.408 543.846 103.954C541.873 106.501 542.341 110.2 544.887 112.174Z" fill="#8DC3FF"/>
<path d="M569.405 118.763C572.085 118.297 574.65 120.052 575.188 122.719L579.702 145.109C580.788 150.233 576.945 155.082 571.709 155.193C566.73 155.299 562.765 151.05 563.214 146.088L565.262 123.263C565.466 120.998 567.165 119.153 569.405 118.763Z" fill="#8DC3FF"/>
<path d="M572.443 143.445C570.33 142.752 568.187 144.323 568.212 146.547C568.226 147.894 569.123 149.116 570.403 149.536C572.515 150.228 574.658 148.658 574.633 146.434C574.618 145.087 573.723 143.865 572.443 143.445Z" fill="#453B73"/>
<path d="M571.043 121.898C569.419 121.366 567.773 122.573 567.792 124.281C567.803 125.316 568.492 126.255 569.475 126.577C571.099 127.11 572.745 125.903 572.726 124.194C572.715 123.16 572.027 122.22 571.043 121.898Z" fill="#453B73"/>
<path d="M554.607 105.787C554.337 103.079 551.959 101.079 549.245 101.276L526.467 102.933C521.24 103.261 517.601 108.263 518.898 113.338C520.132 118.165 525.288 120.845 529.947 119.081L551.384 110.985C553.511 110.182 554.833 108.05 554.607 105.787Z" fill="#8DC3FF"/>
<path d="M550.646 104.518C549.28 103.492 547.333 104.104 546.801 105.728C546.479 106.711 546.828 107.822 547.656 108.444C549.022 109.47 550.969 108.857 551.5 107.234C551.823 106.25 551.473 105.139 550.646 104.518Z" fill="#453B73"/>
<path d="M529.331 108.754C527.554 107.419 525.02 108.217 524.328 110.329C523.908 111.61 524.363 113.056 525.44 113.865C527.218 115.201 529.751 114.403 530.444 112.29C530.863 111.009 530.408 109.563 529.331 108.754Z" fill="#453B73"/>
<path d="M597.028 72.187L640.846 66.3149L638.957 52.2153L595.139 58.0873L597.028 72.187Z" fill="#E8DEFF"/>
<path d="M636.601 75.4103L664.988 71.6062C673.511 70.4639 679.495 62.6283 678.353 54.104C677.21 45.5802 669.375 39.5961 660.853 40.7378L632.465 44.5419L636.601 75.4103Z" fill="#8DC3FF"/>
<path d="M599.83 80.338L619.835 77.657L615.7 46.7886L595.695 49.4696C587.172 50.6119 581.188 58.4475 582.33 66.9718C583.472 75.4962 591.308 81.4803 599.83 80.338Z" fill="#8DC3FF"/>
<path d="M589.327 62.6969C590.507 58.3285 595.02 55.734 599.388 56.9136C603.756 58.0932 606.35 62.607 605.171 66.9755C603.991 71.344 599.478 73.9385 595.11 72.7589C590.742 71.5798 588.148 67.066 589.327 62.6969ZM592.662 63.5978C591.979 66.1273 593.481 68.741 596.01 69.4241C598.539 70.1073 601.153 68.6047 601.836 66.0752C602.519 63.5458 601.016 60.932 598.487 60.2489C595.958 59.5658 593.345 61.0683 592.662 63.5978Z" fill="#E8DEFF"/>
<path d="M782.278 157.807C782.633 157.421 791.034 148.218 796.26 135.163C803.396 117.337 801.115 101.045 789.662 88.0456C781.297 78.5503 770.522 73.2662 758.5 72.7652C744.637 72.1872 731.615 78.2211 727.18 82.481L732.23 87.7408C735.187 84.9008 746.181 79.5501 758.197 80.0511C768.325 80.4729 777.071 84.7849 784.192 92.8664C793.84 103.817 795.622 117.136 789.491 132.453C784.758 144.276 776.993 152.781 776.916 152.865L782.278 157.807Z" fill="#453B73"/>
<path d="M720.728 79.6556L734.601 94.4683L738.667 90.6593L724.794 75.8467L720.728 79.6556Z" fill="#453B73"/>
<path d="M709.215 135.839L743.926 106.438L737.79 99.1912L703.079 128.593L709.215 135.839Z" fill="#453B73"/>
<path d="M771.272 173.786C776.488 169.35 777.12 161.525 772.685 156.308L723.561 98.4805L704.672 114.545L753.796 172.372C758.231 177.589 766.055 178.222 771.272 173.786Z" fill="#453B73"/>
<path d="M704.202 135.059L652.994 66.1106C646.413 57.2498 647.861 44.7975 656.3 37.6841C664.739 30.5706 677.255 31.2515 684.873 39.238L744.012 101.34L704.202 135.059Z" fill="#8DC3FF"/>
<path d="M661.183 43.4775C666.832 38.7154 675.302 39.4375 680.064 45.0875C684.826 50.7374 684.103 59.2086 678.454 63.9712C672.804 68.7333 664.334 68.0111 659.572 62.3612C654.811 56.7108 655.533 48.2401 661.183 43.4775ZM664.818 47.7917C661.547 50.5491 661.128 55.4542 663.885 58.7256C666.642 61.997 671.547 62.4155 674.818 59.6581C678.089 56.9008 678.507 51.9956 675.75 48.7242C672.993 45.4522 668.089 45.0337 664.818 47.7917Z" fill="#453B73"/>
<path d="M669.826 279.011C686.617 293.574 712.034 291.766 726.595 274.972L792.688 198.744C807.249 181.951 805.441 156.531 788.65 141.968C771.858 127.405 746.442 129.214 731.881 146.007L665.787 222.235C651.226 239.029 653.034 264.449 669.826 279.011Z" fill="#8DC3FF"/>
<path d="M747.826 156.707C740.16 165.548 741.111 178.932 749.953 186.6C758.793 194.267 772.175 193.313 779.841 184.472C787.507 175.63 786.556 162.247 777.716 154.58C768.874 146.912 755.492 147.865 747.826 156.707ZM754.261 162.288C758.847 157 766.848 156.43 772.136 161.016C777.422 165.6 777.991 173.603 773.406 178.891C768.822 184.179 760.819 184.749 755.534 180.164C750.246 175.579 749.676 167.576 754.261 162.288Z" fill="#453B73"/>
<path d="M655.319 286.386H728.449V255.01C728.449 234.813 712.078 218.44 691.884 218.44C671.69 218.44 655.319 234.813 655.319 255.01V286.386Z" fill="#453B73"/>
<path d="M630.703 310.171H749.326V282.698H630.703V310.171Z" fill="#453B73"/>
<path d="M647.269 295.92H740.947C760.99 301.367 775.658 310.744 777.188 324.052H611.029C612.559 310.744 627.225 301.367 647.269 295.92Z" fill="#453B73"/>
<path d="M674.176 244.639C672.672 246.932 671.691 249.415 671.202 251.949L673.393 252.374C672.929 254.762 672.958 257.201 673.438 259.539L671.259 259.992C671.794 262.57 672.821 265.046 674.321 267.265L674.734 266.989L676.17 266.019C677.477 267.96 679.192 269.682 681.271 271.047L680.046 272.915C682.338 274.419 684.821 275.401 687.359 275.882L687.785 273.692C690.168 274.163 692.606 274.133 694.945 273.653L695.397 275.833C697.975 275.298 700.455 274.263 702.673 272.764L702.667 272.759L702.311 272.222L701.428 270.914C703.369 269.606 705.086 267.899 706.451 265.819L708.319 267.045C709.823 264.753 710.809 262.262 711.291 259.724L709.1 259.298C709.571 256.915 709.537 254.484 709.057 252.144L711.236 251.692C710.701 249.114 709.667 246.634 708.168 244.415L706.318 245.66C705.011 243.72 703.304 242.002 701.224 240.637L702.45 238.769C700.157 237.265 697.667 236.278 695.129 235.797L694.704 237.988C692.32 237.517 689.89 237.551 687.55 238.03L687.098 235.851C684.514 236.381 682.04 237.42 679.822 238.92L679.831 238.936L680.652 240.153L681.067 240.769C679.127 242.077 677.404 243.791 676.045 245.864L674.176 244.639ZM682.998 250.429C685.988 245.872 692.104 244.602 696.66 247.592C701.223 250.587 702.492 256.703 699.502 261.26C696.508 265.824 690.392 267.093 685.829 264.099C681.274 261.109 680.004 254.992 682.998 250.429Z" fill="#8DC3FF"/>
<path d="M687.711 250.638V261.339L697.603 255.659L687.711 250.638Z" fill="#8DC3FF"/>
<path d="M676.47 278.629C676.829 278.11 677.186 277.589 677.535 277.063C671.009 272.622 666.723 265.137 666.718 256.688L669.3 256.714L665.744 251.354L662.497 256.645L664.824 256.668C664.822 265.775 669.438 273.843 676.47 278.629Z" fill="#8DC3FF"/>
<path d="M717.104 255.911C717.106 248.922 714.425 242.334 709.526 237.334C708.186 235.966 706.721 234.768 705.161 233.736C704.853 234.289 704.547 234.844 704.242 235.399C705.645 236.339 706.963 237.426 708.173 238.66C712.717 243.298 715.206 249.409 715.208 255.891L712.627 255.865L716.183 261.225L719.429 255.934L717.104 255.911Z" fill="#8DC3FF"/>
</g>
</g>
<defs>
<clipPath id="clip0_561_3396">
<rect width="811" height="743" fill="white"/>
</clipPath>
</defs>
</svg>
