<?xml version="1.0" encoding="UTF-8" standalone="no"?><!DOCTYPE svg PUBLIC "-//W3C//DTD SVG 1.1//EN" "http://www.w3.org/Graphics/SVG/1.1/DTD/svg11.dtd"><svg width="100%" height="100%" viewBox="0 0 500 500" version="1.1" xmlns="http://www.w3.org/2000/svg" xmlns:xlink="http://www.w3.org/1999/xlink" xml:space="preserve" xmlns:serif="http://www.serif.com/" style="fill-rule:evenodd;clip-rule:evenodd;stroke-linecap:round;stroke-linejoin:round;"><g id="freepik--background-simple--inject-3"><path d="M390.92,156c0,0 -22.17,-50.36 -71.13,-57.82c-48.96,-7.46 -83.15,28.91 -119.18,47.57c-18.87,9.76 -40.42,6 -60.45,10.7c-64.04,15.13 -88.16,109.85 -61.49,163.71c23.09,46.63 63.74,70.87 125.64,76.47c61.9,5.6 105.31,12.12 160.74,-33.57c55.43,-45.69 51.74,-140.82 25.87,-207.06Z" style="fill:#1685ff;fill-rule:nonzero;"/><path d="M390.92,156c0,0 -22.17,-50.36 -71.13,-57.82c-48.96,-7.46 -83.15,28.91 -119.18,47.57c-18.87,9.76 -40.42,6 -60.45,10.7c-64.04,15.13 -88.16,109.85 -61.49,163.71c23.09,46.63 63.74,70.87 125.64,76.47c61.9,5.6 105.31,12.12 160.74,-33.57c55.43,-45.69 51.74,-140.82 25.87,-207.06Z" style="fill:#fff;fill-opacity:0.6;fill-rule:nonzero;"/></g><g id="freepik--Plant--inject-3"><path d="M451.77,309c0,0 0.77,-2.81 0.8,-3c0.29,-2.13 -0.39,-6.43 -2.56,-7.47c-0.368,-0.166 -0.768,-0.252 -1.172,-0.252c-1.229,-0 -2.325,0.794 -2.708,1.962c-0.58,1.6 0.16,3.56 1,4.91c1.06,1.59 4.64,3.85 4.64,3.85Z" style="fill:#1685ff;fill-rule:nonzero;"/><path d="M464.4,293.66c-2.4,-0.25 -5.25,3 -6.12,5c-0.08,0.17 -1,3 -0.91,3l0.05,0c-0.45,0.51 -0.93,1.07 -1.45,1.69c-0.93,1.15 -2,2.46 -3,4c-1.142,1.605 -2.191,3.274 -3.14,5c-1.07,1.917 -1.966,3.924 -2.68,6l-0,0.08l-0,-2.83c-0.28,-2.14 -2.07,-6.1 -4.44,-6.54c-0.144,-0.022 -0.289,-0.033 -0.434,-0.033c-1.513,-0 -2.778,1.201 -2.856,2.713c-0.14,1.7 1.09,3.4 2.29,4.47c1.35,1.21 5.1,2.37 5.4,2.47c-0.667,2.144 -1.195,4.328 -1.58,6.54c-0.23,1.29 -0.42,2.6 -0.6,3.91l-0,-1.23c-0.28,-2.14 -2.07,-6.1 -4.44,-6.54c-0.143,-0.022 -0.288,-0.033 -0.433,-0.033c-1.515,-0 -2.779,1.209 -2.847,2.723c-0.14,1.69 1.09,3.39 2.28,4.46c1.19,1.07 4.4,2.15 5.25,2.42c-0.07,0.5 -0.13,1 -0.19,1.51c-0.29,2.42 -0.57,4.83 -0.92,7.19c-0.12,0.83 -0.27,1.65 -0.41,2.46l-0,-1.07c-0.28,-2.13 -2.07,-6.09 -4.44,-6.53c-0.144,-0.022 -0.289,-0.033 -0.434,-0.033c-1.513,-0 -2.778,1.201 -2.856,2.713c-0.14,1.7 1.09,3.4 2.29,4.47c1.2,1.07 4.09,2 5.09,2.36c-0.18,0.83 -0.35,1.67 -0.56,2.46c-0.15,0.55 -0.26,1.08 -0.45,1.61c-0.19,0.53 -0.34,1.06 -0.51,1.59c-0.36,1 -0.73,2 -1.11,3c-0.25,0.67 -0.51,1.31 -0.77,1.95c0.13,-0.83 0.35,-2.45 0.35,-2.59c-0.021,-1.894 -0.531,-3.751 -1.48,-5.39c0.02,-0.21 0.02,-0.42 -0,-0.63c-0.182,-1.42 -1.405,-2.496 -2.837,-2.496c-0.22,0 -0.439,0.026 -0.653,0.076c-2.33,0.62 -3.8,4.71 -3.91,6.86c-0,0.13 0.07,1.51 0.14,2.38c-0.12,-0.51 -0.22,-1 -0.35,-1.52c-0.25,-1 -0.52,-2.05 -0.81,-3.15c-0.16,-0.52 -0.32,-1.05 -0.48,-1.59c-0.15,-0.54 -0.38,-1.08 -0.57,-1.63c-0.46,-1.26 -1,-2.51 -1.54,-3.76c0.9,-0.22 4.09,-1 5.37,-2c1.28,-1 2.63,-2.58 2.61,-4.28c0.003,-0.055 0.005,-0.111 0.005,-0.166c-0,-1.569 -1.291,-2.86 -2.86,-2.86c-0.152,-0 -0.305,0.012 -0.455,0.036c-2.39,0.26 -4.47,4.08 -4.91,6.19c0,0.13 -0.17,1.68 -0.23,2.53c-0.34,-0.75 -0.68,-1.5 -1,-2.25c-1.07,-2.16 -2.22,-4.3 -3.36,-6.45c-0.35,-0.66 -0.69,-1.32 -1,-2c0.32,-0.08 4.13,-1 5.57,-2.06c1.27,-1 2.63,-2.58 2.61,-4.28c0.001,-0.026 0.001,-0.053 0.001,-0.079c0,-1.564 -1.286,-2.85 -2.85,-2.85c-0.077,-0 -0.154,0.003 -0.231,0.009c-2.39,0.26 -4.47,4.08 -4.91,6.18c0,0.16 -0.23,2.39 -0.25,3c-0.76,-1.45 -1.5,-2.91 -2.17,-4.37c-0.91,-1.975 -1.695,-4.006 -2.35,-6.08c0.15,-0 4.13,-0.94 5.6,-2.06c1.28,-1 2.63,-2.58 2.62,-4.28c0.001,-0.026 0.001,-0.053 0.001,-0.079c0,-1.564 -1.286,-2.85 -2.85,-2.85c-0.077,-0 -0.154,0.003 -0.231,0.009c-2.4,0.26 -4.48,4.07 -4.91,6.18c0,0.14 -0.18,1.84 -0.24,2.64l-0.14,-0c-0.594,-2.107 -1.002,-4.262 -1.22,-6.44c-0.14,-1.19 -0.2,-2.34 -0.23,-3.47c0.76,-0.09 4.22,-0.55 5.66,-1.42c1.44,-0.87 2.89,-2.27 3.07,-4c0.017,-0.126 0.026,-0.254 0.026,-0.382c-0,-1.533 -1.234,-2.807 -2.766,-2.858c-2.41,-0 -4.9,3.56 -5.56,5.61c0,0.11 -0.28,1.28 -0.45,2.14l0,-1.51c0,-1.83 0.12,-3.49 0.23,-5c0.08,-0.84 0.16,-1.6 0.24,-2.31c0.7,-0.48 3.49,-2.44 4.34,-3.85c0.85,-1.41 1.52,-3.35 0.9,-4.93c-0.417,-1.115 -1.488,-1.859 -2.679,-1.859c-0.464,0 -0.921,0.113 -1.331,0.329c-2.14,1.11 -2.7,5.42 -2.35,7.54c0,0.19 0.84,3 0.88,3c-0.09,0.68 -0.19,1.4 -0.27,2.2c-0.15,1.48 -0.3,3.15 -0.34,5c-0.07,1.971 -0.024,3.945 0.14,5.91c0.168,2.201 0.533,4.384 1.09,6.52l0,0.08c-0.38,-0.6 -1.5,-2.23 -1.6,-2.34c-1.41,-1.63 -5.08,-3.95 -7.3,-3c-1.013,0.463 -1.667,1.479 -1.667,2.593c0,0.517 0.141,1.024 0.407,1.467c0.81,1.49 2.78,2.22 4.37,2.46c1.79,0.26 5.57,-0.84 5.87,-0.93c0.614,2.163 1.376,4.281 2.28,6.34c0.52,1.2 1.08,2.4 1.66,3.59c-0.34,-0.51 -0.65,-1 -0.7,-1c-1.41,-1.63 -5.09,-3.95 -7.31,-3c-1.011,0.464 -1.662,1.478 -1.662,2.591c-0,0.513 0.139,1.018 0.402,1.459c0.82,1.5 2.78,2.23 4.37,2.46c1.59,0.23 4.85,-0.63 5.7,-0.87c0.23,0.45 0.45,0.91 0.68,1.36c1.09,2.18 2.19,4.35 3.21,6.51c0.35,0.76 0.68,1.52 1,2.28c-0.31,-0.45 -0.57,-0.82 -0.62,-0.87c-1.41,-1.63 -5.08,-4 -7.3,-3c-1.013,0.463 -1.667,1.479 -1.667,2.593c0,0.517 0.141,1.024 0.407,1.467c0.82,1.49 2.78,2.22 4.37,2.45c1.59,0.23 4.53,-0.55 5.55,-0.83c0.31,0.79 0.62,1.58 0.89,2.36c0.17,0.54 0.37,1 0.51,1.59c0.14,0.59 0.3,1.08 0.45,1.6c0.25,1 0.51,2.1 0.72,3.11c0.16,0.7 0.29,1.37 0.43,2c-0.35,-0.76 -1.06,-2.23 -1.13,-2.35c-1.15,-1.82 -4.43,-4.67 -6.77,-4.07c-1.22,0.348 -2.068,1.472 -2.068,2.741c-0,0.366 0.07,0.729 0.208,1.069c0.59,1.6 2.41,2.62 3.95,3.09c1.69,0.52 5.44,0.05 5.91,-0c0.22,1.12 0.43,2.21 0.61,3.24c0.63,3.58 1,6.58 1.26,8.69c0.05,0.37 0.08,0.7 0.12,1l-7.26,-0l2.24,43.66l13.33,-0l2.19,-43.76l-6.76,-0l0.15,-0.31c0.93,-1.93 2.21,-4.71 3.6,-8.11c0.44,-1.07 0.89,-2.22 1.34,-3.41c0.46,0.09 4.17,0.85 5.9,0.45c1.56,-0.35 3.46,-1.24 4.16,-2.79c0.191,-0.39 0.291,-0.819 0.291,-1.254c-0,-1.193 -0.75,-2.266 -1.871,-2.676c-2.28,-0.76 -5.77,1.83 -7.05,3.56c-0.07,0.1 -0.77,1.3 -1.19,2.07c0.18,-0.49 0.36,-1 0.54,-1.46c0.37,-1 0.7,-2 1.06,-3.08l0.48,-1.59c0.17,-0.53 0.28,-1.11 0.43,-1.67c0.31,-1.31 0.56,-2.64 0.79,-4c0.87,0.32 4,1.4 5.59,1.29c1.59,-0.11 3.61,-0.7 4.54,-2.13c0.328,-0.476 0.504,-1.04 0.504,-1.618c-0,-1.049 -0.579,-2.016 -1.504,-2.512c-2.14,-1.11 -6,0.93 -7.51,2.45c-0.09,0.09 -1.06,1.3 -1.58,2c0.12,-0.81 0.26,-1.63 0.36,-2.45c0.29,-2.39 0.52,-4.82 0.76,-7.24c0.07,-0.74 0.15,-1.48 0.23,-2.22c0.31,0.12 4,1.48 5.78,1.35c1.6,-0.11 3.61,-0.7 4.54,-2.12c0.328,-0.477 0.504,-1.043 0.504,-1.622c0,-1.051 -0.579,-2.02 -1.504,-2.518c-2.14,-1.1 -6,0.93 -7.51,2.45c-0.11,0.12 -1.51,1.86 -1.84,2.32c0.17,-1.62 0.36,-3.24 0.61,-4.83c0.322,-2.152 0.786,-4.28 1.39,-6.37c0.14,0.06 4,1.5 5.81,1.37c1.6,-0.11 3.61,-0.7 4.54,-2.13c0.331,-0.476 0.508,-1.042 0.508,-1.622c0,-1.049 -0.581,-2.016 -1.508,-2.508c-2.14,-1.11 -6,0.93 -7.5,2.45c-0.1,0.1 -1.17,1.43 -1.66,2.07l-0.12,-0.06c0.659,-2.089 1.506,-4.114 2.53,-6.05c0.54,-1.07 1.13,-2.06 1.72,-3c0.68,0.34 3.83,1.87 5.5,1.94c1.67,0.07 3.67,-0.3 4.75,-1.62c0.459,-0.519 0.713,-1.189 0.713,-1.882c0,-0.927 -0.453,-1.797 -1.213,-2.328c-2,-1.34 -6,0.27 -7.73,1.61c-0.09,0.07 -0.94,0.92 -1.55,1.54c0.28,-0.43 0.55,-0.87 0.82,-1.28c1,-1.52 2,-2.84 2.93,-4c0.53,-0.66 1,-1.25 1.47,-1.79c0.85,-0 4.26,-0.12 5.75,-0.82c1.49,-0.7 3.12,-2 3.47,-3.62c0.067,-0.246 0.102,-0.5 0.102,-0.756c-0,-1.377 -0.996,-2.569 -2.352,-2.814Zm-26.53,64.34c-1.45,3.33 -2.78,6 -3.74,7.94c-0.19,0.38 -0.37,0.72 -0.53,1l-0.16,-0c-0.05,-0.37 -0.1,-0.77 -0.16,-1.23c-0.29,-2.12 -0.75,-5.14 -1.47,-8.74c-0.22,-1.14 -0.48,-2.35 -0.76,-3.59c1.126,-0.451 2.225,-0.969 3.29,-1.55c1.456,1.245 3.074,2.288 4.81,3.1c-0.43,1.12 -0.86,2.15 -1.28,3.07Z" style="fill:#1685ff;fill-rule:nonzero;"/><path d="M409,308.06c1.73,0.76 6,0.66 6,0.66c0,0 -0.91,-2.77 -1,-2.93c-0.93,-2 -3.86,-5.15 -6.25,-4.83c-1.374,0.228 -2.392,1.428 -2.392,2.822c-0,0.256 0.034,0.511 0.102,0.758c0.36,1.65 2.05,2.88 3.54,3.52Z" style="fill:#1685ff;fill-rule:nonzero;"/><path d="M409,308.06c1.73,0.76 6,0.66 6,0.66c0,0 -0.91,-2.77 -1,-2.93c-0.93,-2 -3.86,-5.15 -6.25,-4.83c-1.374,0.228 -2.392,1.428 -2.392,2.822c-0,0.256 0.034,0.511 0.102,0.758c0.36,1.65 2.05,2.88 3.54,3.52Z" style="fill:#fff;fill-opacity:0.3;fill-rule:nonzero;"/><path d="M451.77,309c0,0 0.77,-2.81 0.8,-3c0.29,-2.13 -0.39,-6.43 -2.56,-7.47c-0.368,-0.166 -0.768,-0.252 -1.172,-0.252c-1.229,-0 -2.325,0.794 -2.708,1.962c-0.58,1.6 0.16,3.56 1,4.91c1.06,1.59 4.64,3.85 4.64,3.85Z" style="fill:#fff;fill-opacity:0.3;fill-rule:nonzero;"/><path d="M416.32,319.39c0.614,2.163 1.376,4.281 2.28,6.34c0.52,1.2 1.08,2.4 1.66,3.59c-0.34,-0.51 -0.65,-1 -0.7,-1c-1.41,-1.63 -5.09,-3.95 -7.31,-3c-1.011,0.464 -1.662,1.478 -1.662,2.591c-0,0.513 0.139,1.018 0.402,1.459c0.82,1.5 2.78,2.23 4.37,2.46c1.59,0.23 4.85,-0.63 5.7,-0.87c0.23,0.45 0.45,0.91 0.68,1.36c1.09,2.18 2.19,4.35 3.21,6.51c0.35,0.76 0.68,1.52 1,2.28c-0.31,-0.45 -0.57,-0.82 -0.62,-0.87c-1.41,-1.63 -5.08,-4 -7.3,-3c-1.013,0.463 -1.667,1.479 -1.667,2.593c0,0.517 0.141,1.024 0.407,1.467c0.82,1.49 2.78,2.22 4.37,2.45c1.59,0.23 4.53,-0.55 5.55,-0.83c0.31,0.79 0.62,1.58 0.89,2.36c0.17,0.54 0.37,1 0.51,1.59c0.14,0.59 0.3,1.08 0.45,1.6c0.25,1 0.51,2.1 0.72,3.11c0.16,0.7 0.29,1.37 0.43,2c-0.35,-0.76 -1.06,-2.23 -1.13,-2.35c-1.15,-1.82 -4.43,-4.67 -6.77,-4.07c-1.22,0.348 -2.068,1.472 -2.068,2.741c-0,0.366 0.07,0.729 0.208,1.069c0.59,1.6 2.41,2.62 3.95,3.09c1.69,0.52 5.44,0.05 5.91,0c0.22,1.12 0.43,2.21 0.61,3.24c0.63,3.58 1,6.58 1.26,8.69c0.05,0.37 0.08,0.7 0.12,1l-7.26,0l2.24,43.66l13.24,-0l2.19,-43.65l-6.76,0l0.15,-0.31c0.93,-1.93 2.21,-4.71 3.6,-8.11c0.44,-1.07 0.89,-2.22 1.34,-3.41c0.46,0.09 4.17,0.85 5.9,0.45c1.56,-0.35 3.46,-1.24 4.16,-2.79c0.191,-0.39 0.291,-0.819 0.291,-1.254c-0,-1.193 -0.75,-2.266 -1.871,-2.676c-2.28,-0.76 -5.77,1.83 -7.05,3.56c-0.07,0.1 -0.77,1.3 -1.19,2.07c0.18,-0.49 0.36,-1 0.54,-1.46c0.37,-1 0.7,-2 1.06,-3.08l0.48,-1.59c0.17,-0.53 0.28,-1.11 0.43,-1.67c0.31,-1.31 0.56,-2.64 0.79,-4c0.87,0.32 4,1.4 5.59,1.29c1.59,-0.11 3.61,-0.7 4.54,-2.13c0.328,-0.476 0.504,-1.04 0.504,-1.618c-0,-1.049 -0.579,-2.016 -1.504,-2.512c-2.14,-1.11 -6,0.93 -7.51,2.45c-0.09,0.09 -1.06,1.3 -1.58,2c0.12,-0.81 0.26,-1.63 0.36,-2.45c0.29,-2.39 0.52,-4.82 0.76,-7.24c0.07,-0.74 0.15,-1.48 0.23,-2.22c0.31,0.12 4,1.48 5.78,1.35c1.6,-0.11 3.61,-0.7 4.54,-2.12c0.328,-0.477 0.504,-1.043 0.504,-1.622c0,-1.051 -0.579,-2.02 -1.504,-2.518c-2.14,-1.1 -6,0.93 -7.51,2.45c-0.11,0.12 -1.51,1.86 -1.84,2.32c0.17,-1.62 0.36,-3.24 0.61,-4.83c0.322,-2.152 0.786,-4.28 1.39,-6.37c0.14,0.06 4,1.5 5.81,1.37c1.6,-0.11 3.61,-0.7 4.54,-2.13c0.331,-0.476 0.508,-1.042 0.508,-1.622c0,-1.049 -0.581,-2.016 -1.508,-2.508c-2.14,-1.11 -6,0.93 -7.5,2.45c-0.1,0.1 -1.17,1.43 -1.66,2.07l-0.12,-0.06c0.659,-2.089 1.506,-4.114 2.53,-6.05c0.54,-1.07 1.13,-2.06 1.72,-3c0.68,0.34 3.83,1.87 5.5,1.94c1.67,0.07 3.67,-0.3 4.75,-1.62c0.459,-0.519 0.713,-1.189 0.713,-1.882c0,-0.927 -0.453,-1.797 -1.213,-2.328c-2,-1.34 -6,0.27 -7.73,1.61c-0.09,0.07 -0.94,0.92 -1.55,1.54c0.28,-0.43 0.55,-0.87 0.82,-1.28c1,-1.52 2,-2.84 2.93,-4c0.53,-0.66 1,-1.25 1.47,-1.79c0.85,0 4.26,-0.12 5.75,-0.82c1.49,-0.7 3.12,-2 3.47,-3.62c0.056,-0.225 0.084,-0.456 0.084,-0.688c-0,-1.42 -1.058,-2.635 -2.464,-2.832c-2.4,-0.25 -5.25,3 -6.12,5c-0.08,0.17 -1,3 -0.91,3l0.05,0c-0.45,0.51 -0.93,1.07 -1.45,1.69c-0.93,1.15 -2,2.46 -3,4c-1.142,1.605 -2.191,3.274 -3.14,5c-1.07,1.917 -1.966,3.924 -2.68,6l-0,0.08l-0,-2.83c-0.28,-2.14 -2.07,-6.1 -4.44,-6.54c-0.144,-0.022 -0.289,-0.033 -0.434,-0.033c-1.513,-0 -2.778,1.201 -2.856,2.713c-0.14,1.7 1.09,3.4 2.29,4.47c1.35,1.21 5.1,2.37 5.4,2.47c-0.667,2.144 -1.195,4.328 -1.58,6.54c-0.23,1.29 -0.42,2.6 -0.6,3.91l-0,-1.23c-0.28,-2.14 -2.07,-6.1 -4.44,-6.54c-0.143,-0.022 -0.288,-0.033 -0.433,-0.033c-1.515,-0 -2.779,1.209 -2.847,2.723c-0.14,1.69 1.09,3.39 2.28,4.46c1.19,1.07 4.4,2.15 5.25,2.42c-0.07,0.5 -0.13,1 -0.19,1.51c-0.29,2.42 -0.57,4.83 -0.92,7.19c-0.12,0.83 -0.27,1.65 -0.41,2.46l-0,-1.07c-0.28,-2.13 -2.07,-6.09 -4.44,-6.53c-0.144,-0.022 -0.289,-0.033 -0.434,-0.033c-1.513,-0 -2.778,1.201 -2.856,2.713c-0.14,1.7 1.09,3.4 2.29,4.47c1.2,1.07 4.09,2 5.09,2.36c-0.18,0.83 -0.35,1.67 -0.56,2.46c-0.15,0.55 -0.26,1.08 -0.45,1.61c-0.19,0.53 -0.34,1.06 -0.51,1.59c-0.36,1 -0.73,2 -1.11,3c-0.25,0.67 -0.51,1.31 -0.77,1.95c0.13,-0.83 0.35,-2.45 0.35,-2.59c-0.021,-1.894 -0.531,-3.751 -1.48,-5.39c0.02,-0.21 0.02,-0.42 -0,-0.63c-0.182,-1.42 -1.405,-2.496 -2.837,-2.496c-0.22,0 -0.439,0.026 -0.653,0.076c-2.33,0.62 -3.8,4.71 -3.91,6.86c-0,0.13 0.07,1.51 0.14,2.38c-0.12,-0.51 -0.22,-1 -0.35,-1.52c-0.25,-1 -0.52,-2.05 -0.81,-3.15c-0.16,-0.52 -0.32,-1.05 -0.48,-1.59c-0.15,-0.54 -0.38,-1.08 -0.57,-1.63c-0.46,-1.26 -1,-2.51 -1.54,-3.76c0.9,-0.22 4.09,-1 5.37,-2c1.28,-1 2.63,-2.58 2.61,-4.28c0.005,-0.066 0.007,-0.132 0.007,-0.199c-0,-1.569 -1.291,-2.86 -2.86,-2.86c-0.109,0 -0.218,0.007 -0.327,0.019c-2.39,0.26 -4.47,4.08 -4.91,6.19c-0,0.13 -0.17,1.68 -0.23,2.53c-0.34,-0.75 -0.68,-1.5 -1,-2.25c-1.07,-2.16 -2.22,-4.3 -3.36,-6.45c-0.35,-0.66 -0.69,-1.32 -1,-2c0.32,-0.08 4.13,-1 5.57,-2.06c1.27,-1 2.63,-2.58 2.61,-4.28c0.001,-0.026 0.001,-0.053 0.001,-0.079c0,-1.564 -1.286,-2.85 -2.85,-2.85c-0.077,-0 -0.154,0.003 -0.231,0.009c-2.39,0.26 -4.47,4.08 -4.91,6.18c-0,0.16 -0.23,2.39 -0.25,3c-0.76,-1.45 -1.5,-2.91 -2.17,-4.37c-0.91,-1.975 -1.695,-4.006 -2.35,-6.08c0.15,-0 4.13,-0.94 5.6,-2.06c1.28,-1 2.63,-2.58 2.62,-4.28c0.001,-0.026 0.001,-0.053 0.001,-0.079c0,-1.564 -1.286,-2.85 -2.85,-2.85c-0.077,-0 -0.154,0.003 -0.231,0.009c-2.4,0.26 -4.48,4.07 -4.91,6.18c0,0.14 -0.18,1.84 -0.24,2.64l-0.14,-0c-0.594,-2.107 -1.002,-4.262 -1.22,-6.44c-0.14,-1.19 -0.2,-2.34 -0.23,-3.47c0.76,-0.09 4.22,-0.55 5.66,-1.42c1.44,-0.87 2.89,-2.27 3.07,-4c0.017,-0.126 0.026,-0.254 0.026,-0.382c-0,-1.533 -1.234,-2.807 -2.766,-2.858c-2.41,-0 -4.9,3.56 -5.56,5.61c0,0.11 -0.28,1.28 -0.45,2.14l0,-1.51c0,-1.83 0.12,-3.49 0.23,-5c0.08,-0.84 0.16,-1.6 0.24,-2.31c0.7,-0.48 3.49,-2.44 4.34,-3.85c0.85,-1.41 1.52,-3.35 0.9,-4.93c-0.417,-1.115 -1.488,-1.859 -2.679,-1.859c-0.464,0 -0.921,0.113 -1.331,0.329c-2.14,1.11 -2.7,5.42 -2.35,7.54c0,0.19 0.84,3 0.88,3c-0.09,0.68 -0.19,1.4 -0.27,2.2c-0.15,1.48 -0.3,3.15 -0.34,5c-0.07,1.971 -0.024,3.945 0.14,5.91c0.168,2.201 0.533,4.384 1.09,6.52l0,0.08c-0.38,-0.6 -1.5,-2.23 -1.6,-2.34c-1.41,-1.63 -5.08,-3.95 -7.3,-3c-1.013,0.463 -1.667,1.479 -1.667,2.593c0,0.517 0.141,1.024 0.407,1.467c0.81,1.49 2.78,2.22 4.37,2.46c1.88,0.15 5.64,-0.95 5.96,-1.04Zm18,32.51c1.456,1.245 3.074,2.288 4.81,3.1c-0.43,1.05 -0.86,2.08 -1.28,3c-1.45,3.33 -2.78,6 -3.74,7.94c-0.19,0.38 -0.37,0.72 -0.53,1l-0.16,-0c-0.05,-0.37 -0.1,-0.77 -0.16,-1.23c-0.29,-2.12 -0.75,-5.14 -1.47,-8.74c-0.22,-1.14 -0.48,-2.35 -0.76,-3.59c1.132,-0.428 2.237,-0.922 3.31,-1.48l-0.02,-0Z" style="fill:#fff;fill-opacity:0.3;fill-rule:nonzero;"/></g><g id="freepik--device-1--inject-3"><path d="M148.72,246.63l24.76,0l10.91,-8.43l43.1,0" style="fill:none;fill-rule:nonzero;stroke:#263238;stroke-width:1px;"/><path d="M147.23,265.48l121.43,0" style="fill:none;fill-rule:nonzero;stroke:#263238;stroke-width:1px;"/><path d="M148.72,284.83l17.32,0l9.92,9.92l47.56,0l22.82,12.89l13.39,0" style="fill:none;fill-rule:nonzero;stroke:#263238;stroke-width:1px;"/><path d="M148.22,303.18l7.9,0l10.66,10.66l26.98,-0l10.54,-10.54l20.71,0" style="fill:none;fill-rule:nonzero;stroke:#263238;stroke-width:1px;"/><path d="M165.54,265.48l11.66,-11.65l51.28,0" style="fill:none;fill-rule:nonzero;stroke:#263238;stroke-width:1px;"/><path d="M166.04,284.83l63.44,0" style="fill:none;fill-rule:nonzero;stroke:#263238;stroke-width:1px;"/><rect x="66.07" y="220.35" width="2.94" height="13.24" style="fill:#fff;stroke:#263238;stroke-width:1px;"/><rect x="64.3" y="229.58" width="6.47" height="13.24" style="fill:#fff;stroke:#263238;stroke-width:1px;"/><rect x="84.9" y="220.35" width="2.94" height="13.24" style="fill:#fff;stroke:#263238;stroke-width:1px;"/><rect x="83.14" y="229.58" width="6.47" height="13.24" style="fill:#fff;stroke:#263238;stroke-width:1px;"/><rect x="103.74" y="220.35" width="2.94" height="13.24" style="fill:#fff;stroke:#263238;stroke-width:1px;"/><rect x="101.97" y="229.58" width="6.47" height="13.24" style="fill:#fff;stroke:#263238;stroke-width:1px;"/><rect x="122.58" y="220.35" width="2.94" height="13.24" style="fill:#fff;stroke:#263238;stroke-width:1px;"/><rect x="120.81" y="229.58" width="6.47" height="13.24" style="fill:#fff;stroke:#263238;stroke-width:1px;"/><rect x="122.58" y="316.4" width="2.94" height="13.24" style="fill:#fff;stroke:#263238;stroke-width:1px;"/><rect x="120.82" y="307.18" width="6.47" height="13.24" style="fill:#fff;stroke:#263238;stroke-width:1px;"/><rect x="103.74" y="316.4" width="2.94" height="13.24" style="fill:#fff;stroke:#263238;stroke-width:1px;"/><rect x="101.98" y="307.18" width="6.47" height="13.24" style="fill:#fff;stroke:#263238;stroke-width:1px;"/><rect x="84.91" y="316.4" width="2.94" height="13.24" style="fill:#fff;stroke:#263238;stroke-width:1px;"/><rect x="83.14" y="307.18" width="6.47" height="13.24" style="fill:#fff;stroke:#263238;stroke-width:1px;"/><rect x="66.07" y="316.4" width="2.94" height="13.24" style="fill:#fff;stroke:#263238;stroke-width:1px;"/><rect x="64.31" y="307.18" width="6.47" height="13.24" style="fill:#fff;stroke:#263238;stroke-width:1px;"/><path d="M150.45,248.21l-0,-2.94l-13.24,-0l-0,2.94l13.24,-0Z" style="fill:#fff;stroke:#263238;stroke-width:1px;"/><path d="M141.21,249.98l-0,-6.47l-13.24,-0l-0,6.47l13.24,-0Z" style="fill:#fff;stroke:#263238;stroke-width:1px;"/><path d="M150.44,267.05l-0,-2.94l-13.24,-0l-0,2.94l13.24,-0Z" style="fill:#fff;stroke:#263238;stroke-width:1px;"/><path d="M141.21,268.81l-0,-6.47l-13.24,-0l-0,6.47l13.24,-0Z" style="fill:#fff;stroke:#263238;stroke-width:1px;"/><path d="M150.44,285.89l-0,-2.94l-13.24,-0l-0,2.94l13.24,-0Z" style="fill:#fff;stroke:#263238;stroke-width:1px;"/><path d="M141.21,287.65l-0,-6.47l-13.24,-0l-0,6.47l13.24,-0Z" style="fill:#fff;stroke:#263238;stroke-width:1px;"/><path d="M150.45,304.72l-0,-2.94l-13.24,-0l-0,2.94l13.24,-0Z" style="fill:#fff;stroke:#263238;stroke-width:1px;"/><path d="M141.21,306.49l-0,-6.47l-13.24,-0l-0,6.47l13.24,-0Z" style="fill:#fff;stroke:#263238;stroke-width:1px;"/><path d="M41.14,301.78l-0,2.94l13.24,-0l-0,-2.94l-13.24,-0Z" style="fill:#fff;stroke:#263238;stroke-width:1px;"/><path d="M50.38,300.02l-0,6.47l13.24,-0l0,-6.47l-13.24,-0Z" style="fill:#fff;stroke:#263238;stroke-width:1px;"/><path d="M41.15,282.94l0,2.94l13.24,-0l0,-2.94l-13.24,-0Z" style="fill:#fff;stroke:#263238;stroke-width:1px;"/><path d="M50.38,281.19l0,6.47l13.24,-0l0,-6.47l-13.24,-0Z" style="fill:#fff;stroke:#263238;stroke-width:1px;"/><path d="M41.14,264.11l-0,2.94l13.24,-0l-0,-2.94l-13.24,-0Z" style="fill:#fff;stroke:#263238;stroke-width:1px;"/><path d="M50.38,262.35l-0,6.47l13.24,-0l-0,-6.47l-13.24,-0Z" style="fill:#fff;stroke:#263238;stroke-width:1px;"/><path d="M41.14,245.27l-0,2.94l13.24,-0l-0,-2.94l-13.24,-0Z" style="fill:#fff;stroke:#263238;stroke-width:1px;"/><path d="M50.37,243.52l-0,6.47l13.24,-0l-0,-6.47l-13.24,-0Z" style="fill:#fff;stroke:#263238;stroke-width:1px;"/><path d="M132.72,245.45c0,-4.101 -3.329,-7.43 -7.43,-7.43l-59,0c-4.101,0 -7.43,3.329 -7.43,7.43l0,59c0,4.101 3.329,7.43 7.43,7.43l59,-0c4.101,-0 7.43,-3.329 7.43,-7.43l0,-59Z" style="fill:#1685ff;stroke:#263238;stroke-width:1px;"/><path d="M72.12,278.4c-2.002,-0 -3.65,-1.648 -3.65,-3.65c0,-2.002 1.648,-3.65 3.65,-3.65l48.76,-0c2.002,-0 3.65,1.648 3.65,3.65c0,2.002 -1.648,3.65 -3.65,3.65l-48.76,-0Z" style="fill:#fff;fill-rule:nonzero;"/><path d="M120.88,271.6c1.728,0 3.15,1.422 3.15,3.15c0,1.728 -1.422,3.15 -3.15,3.15l-48.76,0c-1.728,0 -3.15,-1.422 -3.15,-3.15c0,-1.728 1.422,-3.15 3.15,-3.15l48.76,0m0,-1l-48.76,0c-2.277,0 -4.15,1.873 -4.15,4.15c-0,2.277 1.873,4.15 4.15,4.15l48.76,0c2.277,0 4.15,-1.873 4.15,-4.15c0,-2.277 -1.873,-4.15 -4.15,-4.15Z" style="fill:#263238;fill-rule:nonzero;"/><path d="M109.7,271.6l-36.4,0c-2.39,0 -4.34,1.41 -4.34,3.15c-0,1.74 2,3.15 4.34,3.15l36.4,0l-0,-6.3Z" style="fill:#263238;fill-rule:nonzero;stroke:#263238;stroke-width:1px;"/></g><g id="freepik--device-2--inject-3"><path d="M335.1,147c0,-4.233 -3.437,-7.67 -7.67,-7.67l-128.31,0c-4.233,0 -7.67,3.437 -7.67,7.67l-0,256c-0,4.233 3.437,7.67 7.67,7.67l128.31,-0c4.233,-0 7.67,-3.437 7.67,-7.67l0,-256Z" style="fill:#fff;stroke:#263238;stroke-width:1px;"/><rect x="197.84" y="169.12" width="130.88" height="211.75" style="fill:#263238;"/><g><path d="M328.72,309.73l-122.01,71.15l122.01,0l0,-71.15Z" style="fill:#fff;fill-opacity:0.3;fill-rule:nonzero;"/><path d="M137.72,246.63l29.76,0l10.91,-8.43l49.1,0" style="fill:none;fill-rule:nonzero;stroke:#fff;stroke-width:1px;"/><path d="M228.47,265.47l8.54,-8.55l23.63,0" style="fill:none;fill-rule:nonzero;stroke:#fff;stroke-width:1px;"/><path d="M136.23,265.48l148.97,0" style="fill:none;fill-rule:nonzero;stroke:#fff;stroke-width:1px;"/><circle cx="227.49" cy="238.2" r="1.94" style="fill:#fff;"/><circle cx="285.43" cy="265.11" r="1.94" style="fill:#fff;"/><path d="M263.05,256.55c0,-1.064 -0.876,-1.94 -1.94,-1.94c-1.064,-0 -1.94,0.876 -1.94,1.94c0,1.064 0.876,1.94 1.94,1.94c1.064,-0 1.94,-0.876 1.94,-1.94Z" style="fill:#fff;fill-rule:nonzero;"/><circle cx="228.7" cy="253.55" r="1.94" style="fill:#fff;"/><circle cx="229.91" cy="284.43" r="1.94" style="fill:#fff;"/><path d="M227.75,303c0,-1.064 -0.876,-1.94 -1.94,-1.94c-1.064,0 -1.94,0.876 -1.94,1.94c0,1.064 0.876,1.94 1.94,1.94c1.064,0 1.94,-0.876 1.94,-1.94Z" style="fill:#fff;fill-rule:nonzero;"/><circle cx="260.26" cy="307.37" r="1.94" style="fill:#fff;"/><path d="M137.72,284.83l22.32,0l9.92,9.92l53.56,0l22.82,12.89l13.39,0" style="fill:none;fill-rule:nonzero;stroke:#fff;stroke-width:1px;"/><path d="M137.22,303.18l12.9,0l10.66,10.66l32.98,-0l10.54,-10.54l20.71,0" style="fill:none;fill-rule:nonzero;stroke:#fff;stroke-width:1px;"/><path d="M159.54,265.48l11.66,-11.65l57.28,0" style="fill:none;fill-rule:nonzero;stroke:#fff;stroke-width:1px;"/><path d="M160.04,284.83l69.44,0" style="fill:none;fill-rule:nonzero;stroke:#fff;stroke-width:1px;"/></g><rect x="197.84" y="169.12" width="130.88" height="211.75" style="fill:none;stroke:#263238;stroke-width:1px;"/><path d="M277.51,154.3l-28.46,0c-1.064,0 -1.94,-0.876 -1.94,-1.94c0,-1.064 0.876,-1.94 1.94,-1.94l28.46,0c1.064,0 1.94,0.876 1.94,1.94c0,1.064 -0.876,1.94 -1.94,1.94Z" style="fill:#263238;fill-rule:nonzero;"/><path d="M271,392.83c0,-4.257 -3.503,-7.76 -7.76,-7.76c-4.257,0 -7.76,3.503 -7.76,7.76c0,4.257 3.503,7.76 7.76,7.76c4.255,-0.005 7.755,-3.505 7.76,-7.76Z" style="fill:#fff;fill-rule:nonzero;stroke:#263238;stroke-width:0.7px;"/><rect x="259.34" y="388.9" width="7.87" height="7.87" style="fill:#263238;"/></g><g id="freepik--Character--inject-3"><path d="M381.71,248.08l-0.23,9.91c-3.781,-0.478 -7.536,-1.145 -11.25,-2c-4.42,-1.13 -16.24,-6.52 -16.24,-6.52l-2.49,4c0,0 8,7.36 17.52,11c5.783,2.203 11.838,3.609 18,4.18c6.162,0.571 3.08,-0.27 4,-11.19c0.92,-10.92 2.88,-21.47 0.21,-24.27c-2.67,-2.8 -8.23,1.93 -9.52,14.89Z" style="fill:#1685ff;fill-rule:nonzero;stroke:#263238;stroke-width:1px;"/><path d="M370.23,256c-4.42,-1.13 -16.24,-6.52 -16.24,-6.52c0,0 -0.93,-3.68 -1.82,-7.63c-0.89,-3.95 -3.09,-4.24 -3.78,-6.21c-0.69,-1.97 -2.93,-0.81 -2.24,1.17c0.328,1.091 0.994,2.05 1.9,2.74l0.64,4.18l-0.83,-0.55c-0.809,-0.859 -1.663,-1.673 -2.56,-2.44c-0.23,-0.16 -0.53,-0.09 -0.87,0.13l-1.77,-1.2c0,0 -2.33,5.34 -0.89,6.6c0.666,0.523 1.364,1.004 2.09,1.44c2.422,2.099 4.974,4.043 7.64,5.82c2.666,1.777 8,7.36 17.52,11l1,0.36c1.31,-2.631 2.036,-5.513 2.13,-8.45c-0.68,-0.13 -1.32,-0.28 -1.92,-0.44Z" style="fill:#fff;fill-rule:nonzero;stroke:#263238;stroke-width:1px;"/><path d="M339.52,237.65c0,0 -1.07,3.65 -0.39,6.12c0.68,2.47 8.9,7.31 8.9,7.31c0,0 -2.46,-10.11 -2.93,-10.85c-0.47,-0.74 -4.51,-6.73 -5.58,-2.58Z" style="fill:#fff;fill-rule:nonzero;stroke:#263238;stroke-width:1px;"/><path d="M336.96,234.12l9.56,14.92l4.53,-3.66l-8.7,-13.8l-5.39,2.54Z" style="fill:#263238;fill-rule:nonzero;stroke:#263238;stroke-width:1px;"/><path d="M375.71,204c0,0 -6.12,0 -8.43,-4.48c-2.31,-4.48 6.12,-14 15.7,-17.39c9.58,-3.39 19.5,5.33 22,12c2.5,6.67 7.68,14 14.55,18.3c6.87,4.3 19.66,17.91 15.22,25.4c-4.44,7.49 -10.15,10.19 -5.43,15.59c4.72,5.4 5.85,11.78 0.25,16.5c-5.6,4.72 -12.37,6.08 -19.17,3.21c-6.8,-2.87 -14.23,-14.16 -12.87,-22.89c1.36,-8.73 -2.91,-29.25 -8.49,-36.56c-5.58,-7.31 -9.57,-11.16 -13.33,-9.68Z" style="fill:#263238;fill-rule:nonzero;stroke:#263238;stroke-width:1px;"/><path d="M385.77,216.68c1.383,2.159 2.08,4.687 2,7.25c-0.35,3.81 -6.81,10.29 -9.36,16.11c-2.55,5.82 -1.32,10 0.08,12.33c1.4,2.33 3.87,6.21 3.89,8.24c0.02,2.03 0.49,5.7 0.49,5.7c0,0 6.62,2.62 20.54,-1.55c0,0 4.23,-30.72 4.2,-34.76c-0.03,-4.04 -5.2,-7.15 -7.77,-7.79c-2.57,-0.64 -5.42,-2.52 -6.24,-4.61c-0.495,-1.27 -0.847,-2.592 -1.05,-3.94l-6.78,3.02Z" style="fill:#1685ff;fill-rule:nonzero;stroke:#263238;stroke-width:1px;"/><path d="M398.31,221.7c-2.09,-0.87 -4.08,-2.41 -4.74,-4.1c-0.495,-1.27 -0.847,-2.592 -1.05,-3.94l-6.75,3c1.383,2.159 2.08,4.687 2,7.25c-0.16,1.74 -1.59,4 -3.34,6.55c0.94,2.64 2,3.31 5.78,1.08c3.82,-2.168 6.707,-5.674 8.1,-9.84Z" style="fill:#fff;fill-rule:nonzero;stroke:#263238;stroke-width:1px;"/><path d="M375.27,195.08c0,0 -2.19,5 -1.5,7.9c0.69,2.9 1.51,10.24 3.07,12.18c1.56,1.94 5.46,8.45 8.4,7.76c2.94,-0.69 8.5,-10.16 8.57,-13.22c0.07,-3.06 -2,-9.69 -7.83,-14.1c-5.83,-4.41 -10.75,-3.25 -10.71,-0.52Z" style="fill:#fff;fill-rule:nonzero;stroke:#263238;stroke-width:1px;"/><path d="M377.36,206.37c0,0 0.92,0.49 0.86,3c-0.06,2.51 -1.47,3.68 -0.85,3.69c1.145,-0.122 2.283,-0.302 3.41,-0.54" style="fill:none;fill-rule:nonzero;stroke:#263238;stroke-width:0.5px;"/><path d="M379.92,216.17c0,-0 1.38,0.81 2.66,-1.33" style="fill:none;fill-rule:nonzero;stroke:#263238;stroke-width:0.5px;"/><path d="M380.94,205.53l0,1.54c0,0 0.9,1 2.79,-0.4" style="fill:none;fill-rule:nonzero;stroke:#263238;stroke-width:0.5px;"/><path d="M375.65,207l-0.19,1.7c-0,0 0.29,0.62 2,-0.57" style="fill:none;fill-rule:nonzero;stroke:#263238;stroke-width:0.5px;"/><path d="M379.13,203.47c1.09,-0.913 2.638,-1.06 3.88,-0.37" style="fill:none;fill-rule:nonzero;stroke:#263238;stroke-width:0.5px;"/><path d="M376.47,204.8c0,0 -1.21,-1 -1.57,1" style="fill:none;fill-rule:nonzero;stroke:#263238;stroke-width:0.5px;"/><path d="M373.28,193.36c-0,0 7.79,2.3 11.8,8.48c4.01,6.18 5.1,14.68 13.21,16.54c8.11,1.86 14.65,-4.38 14.65,-4.38c0,0 -8.33,-5.22 -13.22,-12c-4.89,-6.78 -10.11,-12.65 -14.7,-13c-4.59,-0.35 -10.89,2.82 -11.74,4.36Z" style="fill:#263238;fill-rule:nonzero;stroke:#263238;stroke-width:1px;"/><path d="M375.52,191.62c2.832,-2.381 6.964,-2.502 9.93,-0.29c5.35,3.83 7.39,16.07 12.74,19.9c5.35,3.83 21.5,5.78 23.1,16.61c1.6,10.83 -7,13.91 -5.58,21c1.42,7.09 9.22,6.71 10.31,13.26c0.702,3.692 -0.918,7.459 -4.08,9.49" style="fill:none;fill-rule:nonzero;stroke:#fff;stroke-width:0.5px;"/><path d="M378.52,188.79c0,0 8.51,-8.19 17.09,-1.26c8.58,6.93 6.91,19.73 11.86,21.78c4.95,2.05 19.18,10.05 21.57,20.2c2.39,10.15 -11.42,13.57 -7.44,20.05c3.98,6.48 13,9.45 10,15.62" style="fill:none;fill-rule:nonzero;stroke:#fff;stroke-width:0.5px;"/><path d="M381.7,398.32c0,0 -2.32,4.49 -4,5.95c-1.68,1.46 -6.37,3.22 -6.68,4c-0.31,0.78 0.17,1.16 1.1,1.55c0.93,0.39 5.1,0.83 7.55,-0.33c2.45,-1.16 3.59,-2.86 4.46,-3.36c0.87,-0.5 3.48,-0.51 4.37,-2.1c0.89,-1.59 -0.36,-5.39 -0.36,-5.39l-6.44,-0.32Z" style="fill:#1685ff;fill-rule:nonzero;stroke:#263238;stroke-width:1px;"/><path d="M424.33,396.3c0,0 -0.86,5 -2.05,6.88c-1.19,1.88 -5.1,5 -5.17,5.79c-0.07,0.79 0.5,1 1.51,1.15c1.01,0.15 5.11,-0.75 7.1,-2.58c1.99,-1.83 2.57,-3.81 3.25,-4.55c0.68,-0.74 3.17,-1.53 3.53,-3.32c0.36,-1.79 -2,-5 -2,-5l-6.17,1.63Z" style="fill:#1685ff;fill-rule:nonzero;stroke:#263238;stroke-width:1px;"/><path d="M420.6,353.74c-2.63,-7.94 -6.7,-14.54 -7.3,-19.25c-1.62,-12.67 1.7,-29.08 -0.87,-41.71c-1.66,-8.1 -3.29,-21.57 -9.05,-28c0,0 -7,3.2 -20.54,1.55c0,0 -7.57,29.6 -8.46,45.88c-0.89,16.28 4.07,56.94 5.3,65.53c1.23,8.59 2,20.6 2,20.6l6.42,0.29c0,0 3.29,-23.82 3.08,-36.39c-0.28,-16.62 -0.95,-31.4 0.2,-37.36c1.15,-5.96 1.06,-21.15 1.06,-21.15c0,0 1.7,9.83 2.8,15c0,0 1.58,17.45 3.21,22.26c1.63,4.81 25.95,55.09 25.95,55.09l6.12,-1.4c0,0 -7.28,-33.01 -9.92,-40.94Z" style="fill:#263238;fill-rule:nonzero;stroke:#263238;stroke-width:1px;"/><path d="M401.22,240.22l6.78,10.71l6.59,11.22c0,0 -4.29,15 -6.91,23l6.8,2.45c11.52,-11.89 9.94,-25.6 10.57,-26.6c0.63,-1 -11.66,-23.55 -11.66,-23.55c0,0 -1.56,-9 -8,-11.88c-6.44,-2.88 -7.39,1.43 -7.39,1.43" style="fill:#1685ff;fill-rule:nonzero;stroke:#263238;stroke-width:1px;"/><path d="M407.63,285.13l-6.22,13.44c0,0 -2.91,0.54 -3.7,1.3c-0.79,0.76 -1.39,2.49 -2.76,3.82c-1.37,1.33 0.72,3.11 0.72,3.11l2,-2.68l-2,6.54c1.018,-0.272 1.955,-0.787 2.73,-1.5c1.18,-1.14 2.54,-1.7 4.88,-3.21c2.34,-1.51 2.82,-6.53 2.82,-6.53l8.39,-11.84l-6.86,-2.45Z" style="fill:#fff;fill-rule:nonzero;stroke:#263238;stroke-width:1px;"/></g></svg>