<svg width="500" height="500" viewBox="0 0 500 500" fill="none" xmlns="http://www.w3.org/2000/svg">
<g clip-path="url(#clip0_542_565)">
<path d="M570.05 421.612H-73.7383V421.934H570.05V421.612Z" fill="#EBEBEB"/>
<path d="M505.546 442.337H462.898V442.659H505.546V442.337Z" fill="#EBEBEB"/>
<path d="M352.734 445.831H341.541V446.153H352.734V445.831Z" fill="#EBEBEB"/>
<path d="M461.608 430.38H436.896V430.702H461.608V430.38Z" fill="#EBEBEB"/>
<path d="M49.421 432.543H-6.19336V432.865H49.421V432.543Z" fill="#EBEBEB"/>
<path d="M69.0409 432.543H60.8867V432.865H69.0409V432.543Z" fill="#EBEBEB"/>
<path d="M216.154 437.981H95.5391V438.303H216.154V437.981Z" fill="#EBEBEB"/>
<path d="M231.436 364.189H-17.1935C-21.2455 364.189 -24.543 360.891 -24.543 356.839V7.34949C-24.543 3.29748 -21.2455 0 -17.1935 0H231.436C235.487 0 238.785 3.29748 238.785 7.34949V356.839C238.785 360.891 235.487 364.189 231.436 364.189ZM-17.1935 0.323181C-21.0691 0.323181 -24.2211 3.47517 -24.2211 7.35078V356.84C-24.2211 360.716 -21.0691 363.868 -17.1935 363.868H231.436C235.311 363.868 238.463 360.716 238.463 356.84V7.34949C238.463 3.47517 235.311 0.321894 231.436 0.321894L-17.1935 0.323181Z" fill="#EBEBEB"/>
<path d="M509.936 364.189H261.307C257.255 364.189 253.959 360.891 253.959 356.839V7.34949C253.959 3.29748 257.256 0 261.307 0H509.936C513.989 0 517.285 3.29748 517.285 7.34949V356.839C517.287 360.891 513.989 364.189 509.936 364.189ZM261.307 0.323181C257.433 0.323181 254.281 3.47517 254.281 7.35078V356.84C254.281 360.716 257.433 363.868 261.307 363.868H509.936C513.811 363.868 516.963 360.716 516.963 356.84V7.34949C516.963 3.47517 513.811 0.321894 509.936 0.321894L261.307 0.323181Z" fill="#EBEBEB"/>
<path d="M420.812 180.105C420.812 176.366 423.845 173.334 427.584 173.334C428.26 173.334 428.913 173.435 429.528 173.621C429.429 172.942 429.376 172.248 429.376 171.541C429.376 163.623 435.796 157.203 443.715 157.203C444.617 157.203 445.499 157.29 446.355 157.45C448.559 153.844 452.52 151.427 457.057 151.427C463.922 151.427 469.492 156.944 469.594 163.785C469.663 163.784 469.733 163.775 469.802 163.775C476.181 163.775 481.353 168.946 481.353 175.325C481.353 181.704 476.182 186.876 469.802 186.876H427.383L427.392 186.867C423.742 186.766 420.812 183.781 420.812 180.105Z" fill="#F0F0F0"/>
<path d="M41.4355 149.525C41.4355 145.786 44.4678 142.754 48.2069 142.754C48.8829 142.754 49.5357 142.855 50.1512 143.041C50.052 142.362 49.9992 141.668 49.9992 140.963C49.9992 133.044 56.4191 126.624 64.3377 126.624C65.2403 126.624 66.1223 126.712 66.9785 126.871C69.1828 123.265 73.1434 120.848 77.6808 120.848C84.5462 120.848 90.1163 126.365 90.218 133.206C90.2875 133.205 90.3557 133.196 90.4266 133.196C96.8052 133.196 101.977 138.367 101.977 144.747C101.977 151.126 96.8065 156.298 90.4266 156.298H48.0073L48.0164 156.287C44.3661 156.184 41.4355 153.201 41.4355 149.525Z" fill="#F0F0F0"/>
<path d="M215.563 51.5337H190.874C190.94 50.9414 190.98 50.3427 190.98 49.7324C190.98 40.7567 183.704 33.4819 174.728 33.4819C174.528 33.4819 174.334 33.5051 174.137 33.5115C172.1 28.047 166.85 24.147 160.675 24.147C152.735 24.147 146.298 30.5836 146.298 38.5241C146.298 38.5356 146.299 38.5459 146.299 38.5562C139.259 38.8846 133.618 44.5023 133.252 51.5324H132.6C128.626 51.5324 125.375 54.7836 125.375 58.757C125.375 62.7305 128.626 65.9816 132.6 65.9816H215.563C219.537 65.9816 222.788 62.7305 222.788 58.757C222.789 54.7849 219.538 51.5337 215.563 51.5337Z" fill="#F0F0F0"/>
<path d="M398.433 61.8499C394.576 55.6953 387.752 51.5879 379.952 51.5879C372.023 51.5879 365.102 55.8317 361.282 62.1589C360.279 61.8782 359.225 61.7173 358.134 61.7173C351.679 61.7173 346.445 66.95 346.445 73.4059C346.445 73.411 346.446 73.4162 346.446 73.4213H340.284C337.074 73.4213 334.447 76.048 334.447 79.2579C334.447 82.4679 337.074 85.0945 340.284 85.0945H361.549C365.421 91.177 372.207 95.2239 379.952 95.2239C386.059 95.2239 391.572 92.708 395.533 88.665C395.901 88.6946 396.27 88.7216 396.646 88.7216C404.103 88.7216 410.148 82.6764 410.148 75.2201C410.148 68.3702 405.044 62.7267 398.433 61.8499Z" fill="#F0F0F0"/>
<path d="M268.529 144.398C264.672 138.243 257.847 134.136 250.047 134.136C242.118 134.136 235.198 138.38 231.377 144.707C230.374 144.426 229.321 144.265 228.229 144.265C221.775 144.265 216.541 149.498 216.541 155.954C216.541 155.959 216.542 155.964 216.542 155.969H210.38C207.17 155.969 204.543 158.596 204.543 161.806C204.543 165.016 207.17 167.642 210.38 167.642H231.645C235.517 173.725 242.302 177.772 250.047 177.772C256.154 177.772 261.668 175.256 265.628 171.213C265.996 171.242 266.366 171.269 266.742 171.269C274.198 171.269 280.243 165.224 280.243 157.768C280.243 150.918 275.14 145.273 268.529 144.398Z" fill="#F0F0F0"/>
<path d="M-1.07031 421.421V359.879H4.19202V330.557H11.884V228.604H23.0035V215.449L46.7451 204.377V191.112H50.0336V228.604H54.638V330.557H59.2424V276.95H71.7396V249.324H75.2276V330.557H84.7196V299.642H90.9683V291.749H105.438V264.781H113.363V245.706H123.105V217.916H126.58V245.706H136.322V264.781H144.247V291.749H158.717V299.642H164.967V330.557H172.377V291.749H186.848V208.214H191.452V199.005H222.367V208.214H228.944V268.728H255.255V274.648H265.121V279.252H255.255V302.931H282.88V224H288.801V207.226H301.627V147.699H305.244V207.226H314.453V224H368.44V218.48H371.728V255.972H376.333V256.63H379.098V294.121H383.703V304.316H393.434V276.691H396.922V342.467H400.804V314.841H404.292V357.925H406.413V327.01H412.663V319.117H427.133V292.149H435.058V273.073H444.798V245.283H448.275V273.073H458.017V292.149H465.94V319.117H480.411V327.01H486.66V357.267H487.781V357.925H490.876V421.421H-1.07031Z" fill="#E6E6E6"/>
<path d="M338.319 227.688H334.592V231.416H338.319V227.688Z" fill="#F0F0F0"/>
<path d="M338.319 233.938H334.592V237.665H338.319V233.938Z" fill="#F0F0F0"/>
<path d="M338.319 258.932H334.592V262.66H338.319V258.932Z" fill="#F0F0F0"/>
<path d="M338.319 265.181H334.592V268.908H338.319V265.181Z" fill="#F0F0F0"/>
<path d="M338.319 271.428H334.592V275.156H338.319V271.428Z" fill="#F0F0F0"/>
<path d="M338.319 290.176H334.592V293.903H338.319V290.176Z" fill="#F0F0F0"/>
<path d="M338.319 296.424H334.592V300.152H338.319V296.424Z" fill="#F0F0F0"/>
<path d="M332.397 252.683H328.67V256.411H332.397V252.683Z" fill="#F0F0F0"/>
<path d="M332.397 258.932H328.67V262.66H332.397V258.932Z" fill="#F0F0F0"/>
<path d="M332.397 265.181H328.67V268.908H332.397V265.181Z" fill="#F0F0F0"/>
<path d="M332.397 271.428H328.67V275.156H332.397V271.428Z" fill="#F0F0F0"/>
<path d="M332.397 277.677H328.67V281.405H332.397V277.677Z" fill="#F0F0F0"/>
<path d="M332.397 290.176H328.67V293.903H332.397V290.176Z" fill="#F0F0F0"/>
<path d="M332.397 296.424H328.67V300.152H332.397V296.424Z" fill="#F0F0F0"/>
<path d="M326.478 227.688H322.75V231.416H326.478V227.688Z" fill="#F0F0F0"/>
<path d="M326.478 233.938H322.75V237.665H326.478V233.938Z" fill="#F0F0F0"/>
<path d="M326.478 240.186H322.75V243.913H326.478V240.186Z" fill="#F0F0F0"/>
<path d="M326.478 246.435H322.75V250.162H326.478V246.435Z" fill="#F0F0F0"/>
<path d="M326.478 252.683H322.75V256.411H326.478V252.683Z" fill="#F0F0F0"/>
<path d="M326.478 258.932H322.75V262.66H326.478V258.932Z" fill="#F0F0F0"/>
<path d="M326.478 265.181H322.75V268.908H326.478V265.181Z" fill="#F0F0F0"/>
<path d="M326.478 271.428H322.75V275.156H326.478V271.428Z" fill="#F0F0F0"/>
<path d="M326.478 277.677H322.75V281.405H326.478V277.677Z" fill="#F0F0F0"/>
<path d="M326.478 283.927H322.75V287.655H326.478V283.927Z" fill="#F0F0F0"/>
<path d="M326.478 296.424H322.75V300.152H326.478V296.424Z" fill="#F0F0F0"/>
<path d="M320.558 227.688H316.83V231.416H320.558V227.688Z" fill="#F0F0F0"/>
<path d="M320.558 233.938H316.83V237.665H320.558V233.938Z" fill="#F0F0F0"/>
<path d="M320.558 240.186H316.83V243.913H320.558V240.186Z" fill="#F0F0F0"/>
<path d="M320.558 246.435H316.83V250.162H320.558V246.435Z" fill="#F0F0F0"/>
<path d="M320.558 252.683H316.83V256.411H320.558V252.683Z" fill="#F0F0F0"/>
<path d="M320.558 258.932H316.83V262.66H320.558V258.932Z" fill="#F0F0F0"/>
<path d="M320.558 265.181H316.83V268.908H320.558V265.181Z" fill="#F0F0F0"/>
<path d="M320.558 321.419H316.83V325.146H320.558V321.419Z" fill="#F0F0F0"/>
<path d="M314.64 227.688H310.912V231.416H314.64V227.688Z" fill="#F0F0F0"/>
<path d="M314.64 233.938H310.912V237.665H314.64V233.938Z" fill="#F0F0F0"/>
<path d="M314.64 240.186H310.912V243.913H314.64V240.186Z" fill="#F0F0F0"/>
<path d="M314.64 246.435H310.912V250.162H314.64V246.435Z" fill="#F0F0F0"/>
<path d="M314.64 252.683H310.912V256.411H314.64V252.683Z" fill="#F0F0F0"/>
<path d="M314.64 258.932H310.912V262.66H314.64V258.932Z" fill="#F0F0F0"/>
<path d="M314.64 265.181H310.912V268.908H314.64V265.181Z" fill="#F0F0F0"/>
<path d="M314.64 271.428H310.912V275.156H314.64V271.428Z" fill="#F0F0F0"/>
<path d="M314.64 308.921H310.912V312.649H314.64V308.921Z" fill="#F0F0F0"/>
<path d="M314.64 315.17H310.912V318.898H314.64V315.17Z" fill="#F0F0F0"/>
<path d="M314.64 321.419H310.912V325.146H314.64V321.419Z" fill="#F0F0F0"/>
<path d="M314.64 327.668H310.912V331.395H314.64V327.668Z" fill="#F0F0F0"/>
<path d="M314.64 352.664H310.912V356.391H314.64V352.664Z" fill="#F0F0F0"/>
<path d="M308.72 227.688H304.992V231.416H308.72V227.688Z" fill="#F0F0F0"/>
<path d="M308.72 233.938H304.992V237.665H308.72V233.938Z" fill="#F0F0F0"/>
<path d="M308.72 240.186H304.992V243.913H308.72V240.186Z" fill="#F0F0F0"/>
<path d="M308.72 246.435H304.992V250.162H308.72V246.435Z" fill="#F0F0F0"/>
<path d="M308.72 252.683H304.992V256.411H308.72V252.683Z" fill="#F0F0F0"/>
<path d="M308.72 258.932H304.992V262.66H308.72V258.932Z" fill="#F0F0F0"/>
<path d="M308.72 265.181H304.992V268.908H308.72V265.181Z" fill="#F0F0F0"/>
<path d="M308.72 271.428H304.992V275.156H308.72V271.428Z" fill="#F0F0F0"/>
<path d="M308.72 277.677H304.992V281.405H308.72V277.677Z" fill="#F0F0F0"/>
<path d="M308.72 283.927H304.992V287.655H308.72V283.927Z" fill="#F0F0F0"/>
<path d="M308.72 302.673H304.992V306.401H308.72V302.673Z" fill="#F0F0F0"/>
<path d="M308.72 308.921H304.992V312.649H308.72V308.921Z" fill="#F0F0F0"/>
<path d="M308.72 315.17H304.992V318.898H308.72V315.17Z" fill="#F0F0F0"/>
<path d="M308.72 321.419H304.992V325.146H308.72V321.419Z" fill="#F0F0F0"/>
<path d="M308.72 327.668H304.992V331.395H308.72V327.668Z" fill="#F0F0F0"/>
<path d="M308.72 352.664H304.992V356.391H308.72V352.664Z" fill="#F0F0F0"/>
<path d="M302.8 227.688H299.072V231.416H302.8V227.688Z" fill="#F0F0F0"/>
<path d="M302.8 233.938H299.072V237.665H302.8V233.938Z" fill="#F0F0F0"/>
<path d="M302.8 240.186H299.072V243.913H302.8V240.186Z" fill="#F0F0F0"/>
<path d="M302.8 246.435H299.072V250.162H302.8V246.435Z" fill="#F0F0F0"/>
<path d="M302.8 252.683H299.072V256.411H302.8V252.683Z" fill="#F0F0F0"/>
<path d="M302.8 258.932H299.072V262.66H302.8V258.932Z" fill="#F0F0F0"/>
<path d="M302.8 265.181H299.072V268.908H302.8V265.181Z" fill="#F0F0F0"/>
<path d="M302.8 271.428H299.072V275.156H302.8V271.428Z" fill="#F0F0F0"/>
<path d="M302.8 277.677H299.072V281.405H302.8V277.677Z" fill="#F0F0F0"/>
<path d="M302.8 283.927H299.072V287.655H302.8V283.927Z" fill="#F0F0F0"/>
<path d="M302.8 290.176H299.072V293.903H302.8V290.176Z" fill="#F0F0F0"/>
<path d="M302.8 296.424H299.072V300.152H302.8V296.424Z" fill="#F0F0F0"/>
<path d="M302.8 302.673H299.072V306.401H302.8V302.673Z" fill="#F0F0F0"/>
<path d="M302.8 308.921H299.072V312.649H302.8V308.921Z" fill="#F0F0F0"/>
<path d="M302.8 315.17H299.072V318.898H302.8V315.17Z" fill="#F0F0F0"/>
<path d="M302.8 321.419H299.072V325.146H302.8V321.419Z" fill="#F0F0F0"/>
<path d="M302.8 327.668H299.072V331.395H302.8V327.668Z" fill="#F0F0F0"/>
<path d="M302.8 333.917H299.072V337.644H302.8V333.917Z" fill="#F0F0F0"/>
<path d="M296.878 227.688H293.15V231.416H296.878V227.688Z" fill="#F0F0F0"/>
<path d="M296.878 233.938H293.15V237.665H296.878V233.938Z" fill="#F0F0F0"/>
<path d="M296.878 240.186H293.15V243.913H296.878V240.186Z" fill="#F0F0F0"/>
<path d="M296.878 246.435H293.15V250.162H296.878V246.435Z" fill="#F0F0F0"/>
<path d="M296.878 252.683H293.15V256.411H296.878V252.683Z" fill="#F0F0F0"/>
<path d="M296.878 258.932H293.15V262.66H296.878V258.932Z" fill="#F0F0F0"/>
<path d="M296.878 265.181H293.15V268.908H296.878V265.181Z" fill="#F0F0F0"/>
<path d="M296.878 271.428H293.15V275.156H296.878V271.428Z" fill="#F0F0F0"/>
<path d="M296.878 277.677H293.15V281.405H296.878V277.677Z" fill="#F0F0F0"/>
<path d="M296.878 283.927H293.15V287.655H296.878V283.927Z" fill="#F0F0F0"/>
<path d="M296.878 302.673H293.15V306.401H296.878V302.673Z" fill="#F0F0F0"/>
<path d="M296.878 308.921H293.15V312.649H296.878V308.921Z" fill="#F0F0F0"/>
<path d="M296.878 315.17H293.15V318.898H296.878V315.17Z" fill="#F0F0F0"/>
<path d="M296.878 321.419H293.15V325.146H296.878V321.419Z" fill="#F0F0F0"/>
<path d="M290.958 227.688H287.23V231.416H290.958V227.688Z" fill="#F0F0F0"/>
<path d="M290.958 233.938H287.23V237.665H290.958V233.938Z" fill="#F0F0F0"/>
<path d="M290.958 240.186H287.23V243.913H290.958V240.186Z" fill="#F0F0F0"/>
<path d="M290.958 246.435H287.23V250.162H290.958V246.435Z" fill="#F0F0F0"/>
<path d="M290.958 252.683H287.23V256.411H290.958V252.683Z" fill="#F0F0F0"/>
<path d="M290.958 258.932H287.23V262.66H290.958V258.932Z" fill="#F0F0F0"/>
<path d="M290.958 265.181H287.23V268.908H290.958V265.181Z" fill="#F0F0F0"/>
<path d="M290.958 271.428H287.23V275.156H290.958V271.428Z" fill="#F0F0F0"/>
<path d="M290.958 277.677H287.23V281.405H290.958V277.677Z" fill="#F0F0F0"/>
<path d="M290.958 283.927H287.23V287.655H290.958V283.927Z" fill="#F0F0F0"/>
<path d="M290.958 302.673H287.23V306.401H290.958V302.673Z" fill="#F0F0F0"/>
<path d="M290.958 308.921H287.23V312.649H290.958V308.921Z" fill="#F0F0F0"/>
<path d="M290.958 315.17H287.23V318.898H290.958V315.17Z" fill="#F0F0F0"/>
<path d="M224.306 211.464H220.578V215.191H224.306V211.464Z" fill="#F0F0F0"/>
<path d="M224.306 217.712H220.578V221.44H224.306V217.712Z" fill="#F0F0F0"/>
<path d="M224.306 223.961H220.578V227.688H224.306V223.961Z" fill="#F0F0F0"/>
<path d="M224.306 230.209H220.578V233.937H224.306V230.209Z" fill="#F0F0F0"/>
<path d="M224.306 236.458H220.578V240.186H224.306V236.458Z" fill="#F0F0F0"/>
<path d="M224.306 242.707H220.578V246.435H224.306V242.707Z" fill="#F0F0F0"/>
<path d="M224.306 248.957H220.578V252.685H224.306V248.957Z" fill="#F0F0F0"/>
<path d="M224.306 255.204H220.578V258.932H224.306V255.204Z" fill="#F0F0F0"/>
<path d="M224.306 273.951H220.578V277.678H224.306V273.951Z" fill="#F0F0F0"/>
<path d="M224.306 280.2H220.578V283.927H224.306V280.2Z" fill="#F0F0F0"/>
<path d="M218.386 211.464H214.658V215.191H218.386V211.464Z" fill="#F0F0F0"/>
<path d="M218.386 217.712H214.658V221.44H218.386V217.712Z" fill="#F0F0F0"/>
<path d="M218.386 223.961H214.658V227.688H218.386V223.961Z" fill="#F0F0F0"/>
<path d="M218.386 230.209H214.658V233.937H218.386V230.209Z" fill="#F0F0F0"/>
<path d="M218.386 236.458H214.658V240.186H218.386V236.458Z" fill="#F0F0F0"/>
<path d="M218.386 242.707H214.658V246.435H218.386V242.707Z" fill="#F0F0F0"/>
<path d="M218.386 248.957H214.658V252.685H218.386V248.957Z" fill="#F0F0F0"/>
<path d="M218.386 255.204H214.658V258.932H218.386V255.204Z" fill="#F0F0F0"/>
<path d="M218.386 280.2H214.658V283.927H218.386V280.2Z" fill="#F0F0F0"/>
<path d="M212.468 211.464H208.74V215.191H212.468V211.464Z" fill="#F0F0F0"/>
<path d="M212.468 217.712H208.74V221.44H212.468V217.712Z" fill="#F0F0F0"/>
<path d="M212.468 223.961H208.74V227.688H212.468V223.961Z" fill="#F0F0F0"/>
<path d="M212.468 230.209H208.74V233.937H212.468V230.209Z" fill="#F0F0F0"/>
<path d="M212.468 236.458H208.74V240.186H212.468V236.458Z" fill="#F0F0F0"/>
<path d="M212.468 242.707H208.74V246.435H212.468V242.707Z" fill="#F0F0F0"/>
<path d="M212.468 248.957H208.74V252.685H212.468V248.957Z" fill="#F0F0F0"/>
<path d="M212.468 255.204H208.74V258.932H212.468V255.204Z" fill="#F0F0F0"/>
<path d="M206.548 211.464H202.82V215.191H206.548V211.464Z" fill="#F0F0F0"/>
<path d="M206.548 217.712H202.82V221.44H206.548V217.712Z" fill="#F0F0F0"/>
<path d="M206.548 223.961H202.82V227.688H206.548V223.961Z" fill="#F0F0F0"/>
<path d="M206.548 230.209H202.82V233.937H206.548V230.209Z" fill="#F0F0F0"/>
<path d="M206.548 236.458H202.82V240.186H206.548V236.458Z" fill="#F0F0F0"/>
<path d="M206.548 242.707H202.82V246.435H206.548V242.707Z" fill="#F0F0F0"/>
<path d="M206.548 255.204H202.82V258.932H206.548V255.204Z" fill="#F0F0F0"/>
<path d="M206.548 261.453H202.82V265.18H206.548V261.453Z" fill="#F0F0F0"/>
<path d="M206.548 280.2H202.82V283.927H206.548V280.2Z" fill="#F0F0F0"/>
<path d="M206.548 286.448H202.82V290.176H206.548V286.448Z" fill="#F0F0F0"/>
<path d="M206.548 292.697H202.82V296.424H206.548V292.697Z" fill="#F0F0F0"/>
<path d="M206.548 298.945H202.82V302.673H206.548V298.945Z" fill="#F0F0F0"/>
<path d="M206.548 305.194H202.82V308.922H206.548V305.194Z" fill="#F0F0F0"/>
<path d="M206.548 311.443H202.82V315.17H206.548V311.443Z" fill="#F0F0F0"/>
<path d="M206.548 317.691H202.82V321.418H206.548V317.691Z" fill="#F0F0F0"/>
<path d="M200.628 211.464H196.9V215.191H200.628V211.464Z" fill="#F0F0F0"/>
<path d="M200.628 217.712H196.9V221.44H200.628V217.712Z" fill="#F0F0F0"/>
<path d="M200.628 223.961H196.9V227.688H200.628V223.961Z" fill="#F0F0F0"/>
<path d="M200.628 230.209H196.9V233.937H200.628V230.209Z" fill="#F0F0F0"/>
<path d="M200.628 236.458H196.9V240.186H200.628V236.458Z" fill="#F0F0F0"/>
<path d="M200.628 242.707H196.9V246.435H200.628V242.707Z" fill="#F0F0F0"/>
<path d="M200.628 261.453H196.9V265.18H200.628V261.453Z" fill="#F0F0F0"/>
<path d="M200.628 267.702H196.9V271.429H200.628V267.702Z" fill="#F0F0F0"/>
<path d="M200.628 273.951H196.9V277.678H200.628V273.951Z" fill="#F0F0F0"/>
<path d="M200.628 280.2H196.9V283.927H200.628V280.2Z" fill="#F0F0F0"/>
<path d="M200.628 286.448H196.9V290.176H200.628V286.448Z" fill="#F0F0F0"/>
<path d="M200.628 292.697H196.9V296.424H200.628V292.697Z" fill="#F0F0F0"/>
<path d="M200.628 298.945H196.9V302.673H200.628V298.945Z" fill="#F0F0F0"/>
<path d="M200.628 305.194H196.9V308.922H200.628V305.194Z" fill="#F0F0F0"/>
<path d="M200.628 311.443H196.9V315.17H200.628V311.443Z" fill="#F0F0F0"/>
<path d="M200.628 317.691H196.9V321.418H200.628V317.691Z" fill="#F0F0F0"/>
<path d="M200.628 323.94H196.9V327.668H200.628V323.94Z" fill="#F0F0F0"/>
<path d="M200.628 336.438H196.9V340.166H200.628V336.438Z" fill="#F0F0F0"/>
<path d="M194.708 211.464H190.98V215.191H194.708V211.464Z" fill="#F0F0F0"/>
<path d="M194.708 217.712H190.98V221.44H194.708V217.712Z" fill="#F0F0F0"/>
<path d="M194.708 223.961H190.98V227.688H194.708V223.961Z" fill="#F0F0F0"/>
<path d="M194.708 230.209H190.98V233.937H194.708V230.209Z" fill="#F0F0F0"/>
<path d="M194.708 236.458H190.98V240.186H194.708V236.458Z" fill="#F0F0F0"/>
<path d="M194.708 242.707H190.98V246.435H194.708V242.707Z" fill="#F0F0F0"/>
<path d="M194.708 261.453H190.98V265.18H194.708V261.453Z" fill="#F0F0F0"/>
<path d="M194.708 267.702H190.98V271.429H194.708V267.702Z" fill="#F0F0F0"/>
<path d="M194.708 273.951H190.98V277.678H194.708V273.951Z" fill="#F0F0F0"/>
<path d="M194.708 280.2H190.98V283.927H194.708V280.2Z" fill="#F0F0F0"/>
<path d="M194.708 298.945H190.98V302.673H194.708V298.945Z" fill="#F0F0F0"/>
<path d="M194.708 305.194H190.98V308.922H194.708V305.194Z" fill="#F0F0F0"/>
<path d="M194.708 311.443H190.98V315.17H194.708V311.443Z" fill="#F0F0F0"/>
<path d="M194.708 317.691H190.98V321.418H194.708V317.691Z" fill="#F0F0F0"/>
<path d="M194.708 323.94H190.98V327.668H194.708V323.94Z" fill="#F0F0F0"/>
<path d="M194.708 336.438H190.98V340.166H194.708V336.438Z" fill="#F0F0F0"/>
<path d="M194.708 342.687H190.98V346.415H194.708V342.687Z" fill="#F0F0F0"/>
<path d="M140.993 269.565H137.266V273.293H140.993V269.565Z" fill="#F0F0F0"/>
<path d="M140.993 275.814H137.266V279.542H140.993V275.814Z" fill="#F0F0F0"/>
<path d="M140.993 282.063H137.266V285.791H140.993V282.063Z" fill="#F0F0F0"/>
<path d="M140.993 288.312H137.266V292.04H140.993V288.312Z" fill="#F0F0F0"/>
<path d="M140.993 294.562H137.266V298.289H140.993V294.562Z" fill="#F0F0F0"/>
<path d="M140.993 300.811H137.266V304.538H140.993V300.811Z" fill="#F0F0F0"/>
<path d="M140.993 307.059H137.266V310.786H140.993V307.059Z" fill="#F0F0F0"/>
<path d="M140.993 325.805H137.266V329.532H140.993V325.805Z" fill="#F0F0F0"/>
<path d="M140.993 332.053H137.266V335.78H140.993V332.053Z" fill="#F0F0F0"/>
<path d="M140.993 338.301H137.266V342.029H140.993V338.301Z" fill="#F0F0F0"/>
<path d="M135.071 269.565H131.344V273.293H135.071V269.565Z" fill="#F0F0F0"/>
<path d="M135.071 275.814H131.344V279.542H135.071V275.814Z" fill="#F0F0F0"/>
<path d="M135.071 282.063H131.344V285.791H135.071V282.063Z" fill="#F0F0F0"/>
<path d="M135.071 288.312H131.344V292.04H135.071V288.312Z" fill="#F0F0F0"/>
<path d="M135.071 294.562H131.344V298.289H135.071V294.562Z" fill="#F0F0F0"/>
<path d="M135.071 300.811H131.344V304.538H135.071V300.811Z" fill="#F0F0F0"/>
<path d="M135.071 307.059H131.344V310.786H135.071V307.059Z" fill="#F0F0F0"/>
<path d="M129.151 269.565H125.424V273.293H129.151V269.565Z" fill="#F0F0F0"/>
<path d="M129.151 275.814H125.424V279.542H129.151V275.814Z" fill="#F0F0F0"/>
<path d="M129.151 282.063H125.424V285.791H129.151V282.063Z" fill="#F0F0F0"/>
<path d="M129.151 288.312H125.424V292.04H129.151V288.312Z" fill="#F0F0F0"/>
<path d="M129.151 294.562H125.424V298.289H129.151V294.562Z" fill="#F0F0F0"/>
<path d="M129.151 300.811H125.424V304.538H129.151V300.811Z" fill="#F0F0F0"/>
<path d="M129.151 307.059H125.424V310.786H129.151V307.059Z" fill="#F0F0F0"/>
<path d="M123.229 269.565H119.502V273.293H123.229V269.565Z" fill="#F0F0F0"/>
<path d="M123.229 275.814H119.502V279.542H123.229V275.814Z" fill="#F0F0F0"/>
<path d="M123.229 282.063H119.502V285.791H123.229V282.063Z" fill="#F0F0F0"/>
<path d="M123.229 288.312H119.502V292.04H123.229V288.312Z" fill="#F0F0F0"/>
<path d="M123.229 294.562H119.502V298.289H123.229V294.562Z" fill="#F0F0F0"/>
<path d="M123.229 300.811H119.502V304.538H123.229V300.811Z" fill="#F0F0F0"/>
<path d="M123.229 307.059H119.502V310.786H123.229V307.059Z" fill="#F0F0F0"/>
<path d="M123.229 313.308H119.502V317.035H123.229V313.308Z" fill="#F0F0F0"/>
<path d="M123.229 319.556H119.502V323.284H123.229V319.556Z" fill="#F0F0F0"/>
<path d="M123.229 325.805H119.502V329.532H123.229V325.805Z" fill="#F0F0F0"/>
<path d="M123.229 332.053H119.502V335.78H123.229V332.053Z" fill="#F0F0F0"/>
<path d="M117.313 269.565H113.586V273.293H117.313V269.565Z" fill="#F0F0F0"/>
<path d="M117.313 275.814H113.586V279.542H117.313V275.814Z" fill="#F0F0F0"/>
<path d="M117.313 282.063H113.586V285.791H117.313V282.063Z" fill="#F0F0F0"/>
<path d="M117.313 288.312H113.586V292.04H117.313V288.312Z" fill="#F0F0F0"/>
<path d="M117.313 294.562H113.586V298.289H117.313V294.562Z" fill="#F0F0F0"/>
<path d="M117.313 300.811H113.586V304.538H117.313V300.811Z" fill="#F0F0F0"/>
<path d="M117.313 307.059H113.586V310.786H117.313V307.059Z" fill="#F0F0F0"/>
<path d="M117.313 313.308H113.586V317.035H117.313V313.308Z" fill="#F0F0F0"/>
<path d="M117.313 319.556H113.586V323.284H117.313V319.556Z" fill="#F0F0F0"/>
<path d="M117.313 325.805H113.586V329.532H117.313V325.805Z" fill="#F0F0F0"/>
<path d="M117.313 332.053H113.586V335.78H117.313V332.053Z" fill="#F0F0F0"/>
<path d="M117.313 338.301H113.586V342.029H117.313V338.301Z" fill="#F0F0F0"/>
<path d="M117.313 357.047H113.586V360.775H117.313V357.047Z" fill="#F0F0F0"/>
<path d="M117.313 363.296H113.586V367.023H117.313V363.296Z" fill="#F0F0F0"/>
<path d="M111.394 269.565H107.666V273.293H111.394V269.565Z" fill="#F0F0F0"/>
<path d="M111.394 275.814H107.666V279.542H111.394V275.814Z" fill="#F0F0F0"/>
<path d="M111.394 282.063H107.666V285.791H111.394V282.063Z" fill="#F0F0F0"/>
<path d="M111.394 300.811H107.666V304.538H111.394V300.811Z" fill="#F0F0F0"/>
<path d="M111.394 307.059H107.666V310.786H111.394V307.059Z" fill="#F0F0F0"/>
<path d="M111.394 313.308H107.666V317.035H111.394V313.308Z" fill="#F0F0F0"/>
<path d="M111.394 319.556H107.666V323.284H111.394V319.556Z" fill="#F0F0F0"/>
<path d="M111.394 325.805H107.666V329.532H111.394V325.805Z" fill="#F0F0F0"/>
<path d="M111.394 332.053H107.666V335.78H111.394V332.053Z" fill="#F0F0F0"/>
<path d="M111.394 338.301H107.666V342.029H111.394V338.301Z" fill="#F0F0F0"/>
<path d="M111.394 357.047H107.666V360.775H111.394V357.047Z" fill="#F0F0F0"/>
<path d="M111.394 363.296H107.666V367.023H111.394V363.296Z" fill="#F0F0F0"/>
<path d="M111.394 369.544H107.666V373.272H111.394V369.544Z" fill="#F0F0F0"/>
<path d="M49.3428 232.074H45.6152V235.802H49.3428V232.074Z" fill="#F0F0F0"/>
<path d="M49.3428 238.322H45.6152V242.05H49.3428V238.322Z" fill="#F0F0F0"/>
<path d="M49.3428 244.571H45.6152V248.299H49.3428V244.571Z" fill="#F0F0F0"/>
<path d="M49.3428 250.82H45.6152V254.547H49.3428V250.82Z" fill="#F0F0F0"/>
<path d="M49.3428 257.068H45.6152V260.796H49.3428V257.068Z" fill="#F0F0F0"/>
<path d="M49.3428 263.317H45.6152V267.044H49.3428V263.317Z" fill="#F0F0F0"/>
<path d="M49.3428 269.565H45.6152V273.293H49.3428V269.565Z" fill="#F0F0F0"/>
<path d="M49.3428 275.814H45.6152V279.542H49.3428V275.814Z" fill="#F0F0F0"/>
<path d="M49.3428 282.063H45.6152V285.791H49.3428V282.063Z" fill="#F0F0F0"/>
<path d="M49.3428 288.312H45.6152V292.04H49.3428V288.312Z" fill="#F0F0F0"/>
<path d="M49.3428 294.562H45.6152V298.289H49.3428V294.562Z" fill="#F0F0F0"/>
<path d="M49.3428 300.811H45.6152V304.538H49.3428V300.811Z" fill="#F0F0F0"/>
<path d="M49.3428 307.059H45.6152V310.786H49.3428V307.059Z" fill="#F0F0F0"/>
<path d="M49.3428 313.308H45.6152V317.035H49.3428V313.308Z" fill="#F0F0F0"/>
<path d="M49.3428 319.556H45.6152V323.284H49.3428V319.556Z" fill="#F0F0F0"/>
<path d="M49.3428 325.805H45.6152V329.532H49.3428V325.805Z" fill="#F0F0F0"/>
<path d="M49.3428 332.053H45.6152V335.78H49.3428V332.053Z" fill="#F0F0F0"/>
<path d="M49.3428 338.301H45.6152V342.029H49.3428V338.301Z" fill="#F0F0F0"/>
<path d="M49.3428 344.55H45.6152V348.278H49.3428V344.55Z" fill="#F0F0F0"/>
<path d="M49.3428 350.799H45.6152V354.526H49.3428V350.799Z" fill="#F0F0F0"/>
<path d="M49.3428 357.047H45.6152V360.775H49.3428V357.047Z" fill="#F0F0F0"/>
<path d="M49.3428 363.296H45.6152V367.023H49.3428V363.296Z" fill="#F0F0F0"/>
<path d="M49.3428 369.544H45.6152V373.272H49.3428V369.544Z" fill="#F0F0F0"/>
<path d="M43.4228 232.074H39.6953V235.802H43.4228V232.074Z" fill="#F0F0F0"/>
<path d="M43.4228 238.322H39.6953V242.05H43.4228V238.322Z" fill="#F0F0F0"/>
<path d="M43.4228 244.571H39.6953V248.299H43.4228V244.571Z" fill="#F0F0F0"/>
<path d="M43.4228 250.82H39.6953V254.547H43.4228V250.82Z" fill="#F0F0F0"/>
<path d="M43.4228 257.068H39.6953V260.796H43.4228V257.068Z" fill="#F0F0F0"/>
<path d="M43.4228 263.317H39.6953V267.044H43.4228V263.317Z" fill="#F0F0F0"/>
<path d="M43.4228 269.565H39.6953V273.293H43.4228V269.565Z" fill="#F0F0F0"/>
<path d="M43.4228 275.814H39.6953V279.542H43.4228V275.814Z" fill="#F0F0F0"/>
<path d="M43.4228 282.063H39.6953V285.791H43.4228V282.063Z" fill="#F0F0F0"/>
<path d="M43.4228 288.312H39.6953V292.04H43.4228V288.312Z" fill="#F0F0F0"/>
<path d="M43.4228 294.562H39.6953V298.289H43.4228V294.562Z" fill="#F0F0F0"/>
<path d="M43.4228 300.811H39.6953V304.538H43.4228V300.811Z" fill="#F0F0F0"/>
<path d="M43.4228 307.059H39.6953V310.786H43.4228V307.059Z" fill="#F0F0F0"/>
<path d="M43.4228 313.308H39.6953V317.035H43.4228V313.308Z" fill="#F0F0F0"/>
<path d="M43.4228 319.556H39.6953V323.284H43.4228V319.556Z" fill="#F0F0F0"/>
<path d="M43.4228 325.805H39.6953V329.532H43.4228V325.805Z" fill="#F0F0F0"/>
<path d="M43.4228 332.053H39.6953V335.78H43.4228V332.053Z" fill="#F0F0F0"/>
<path d="M43.4228 338.301H39.6953V342.029H43.4228V338.301Z" fill="#F0F0F0"/>
<path d="M43.4228 344.55H39.6953V348.278H43.4228V344.55Z" fill="#F0F0F0"/>
<path d="M37.5068 232.074H33.7793V235.802H37.5068V232.074Z" fill="#F0F0F0"/>
<path d="M37.5068 238.322H33.7793V242.05H37.5068V238.322Z" fill="#F0F0F0"/>
<path d="M37.5068 244.571H33.7793V248.299H37.5068V244.571Z" fill="#F0F0F0"/>
<path d="M37.5068 250.82H33.7793V254.547H37.5068V250.82Z" fill="#F0F0F0"/>
<path d="M37.5068 257.068H33.7793V260.796H37.5068V257.068Z" fill="#F0F0F0"/>
<path d="M37.5068 263.317H33.7793V267.044H37.5068V263.317Z" fill="#F0F0F0"/>
<path d="M37.5068 269.565H33.7793V273.293H37.5068V269.565Z" fill="#F0F0F0"/>
<path d="M37.5068 275.814H33.7793V279.542H37.5068V275.814Z" fill="#F0F0F0"/>
<path d="M37.5068 282.063H33.7793V285.791H37.5068V282.063Z" fill="#F0F0F0"/>
<path d="M37.5068 288.312H33.7793V292.04H37.5068V288.312Z" fill="#F0F0F0"/>
<path d="M37.5068 294.562H33.7793V298.289H37.5068V294.562Z" fill="#F0F0F0"/>
<path d="M37.5068 300.811H33.7793V304.538H37.5068V300.811Z" fill="#F0F0F0"/>
<path d="M37.5068 307.059H33.7793V310.786H37.5068V307.059Z" fill="#F0F0F0"/>
<path d="M37.5068 313.308H33.7793V317.035H37.5068V313.308Z" fill="#F0F0F0"/>
<path d="M37.5068 319.556H33.7793V323.284H37.5068V319.556Z" fill="#F0F0F0"/>
<path d="M37.5068 325.805H33.7793V329.532H37.5068V325.805Z" fill="#F0F0F0"/>
<path d="M37.5068 332.053H33.7793V335.78H37.5068V332.053Z" fill="#F0F0F0"/>
<path d="M37.5068 338.301H33.7793V342.029H37.5068V338.301Z" fill="#F0F0F0"/>
<path d="M37.5068 344.55H33.7793V348.278H37.5068V344.55Z" fill="#F0F0F0"/>
<path d="M31.583 232.074H27.8555V235.802H31.583V232.074Z" fill="#F0F0F0"/>
<path d="M31.583 238.322H27.8555V242.05H31.583V238.322Z" fill="#F0F0F0"/>
<path d="M31.583 244.571H27.8555V248.299H31.583V244.571Z" fill="#F0F0F0"/>
<path d="M31.583 250.82H27.8555V254.547H31.583V250.82Z" fill="#F0F0F0"/>
<path d="M31.583 257.068H27.8555V260.796H31.583V257.068Z" fill="#F0F0F0"/>
<path d="M31.583 263.317H27.8555V267.044H31.583V263.317Z" fill="#F0F0F0"/>
<path d="M31.583 269.565H27.8555V273.293H31.583V269.565Z" fill="#F0F0F0"/>
<path d="M31.583 275.814H27.8555V279.542H31.583V275.814Z" fill="#F0F0F0"/>
<path d="M31.583 282.063H27.8555V285.791H31.583V282.063Z" fill="#F0F0F0"/>
<path d="M31.583 288.312H27.8555V292.04H31.583V288.312Z" fill="#F0F0F0"/>
<path d="M31.583 294.562H27.8555V298.289H31.583V294.562Z" fill="#F0F0F0"/>
<path d="M31.583 300.811H27.8555V304.538H31.583V300.811Z" fill="#F0F0F0"/>
<path d="M31.583 307.059H27.8555V310.786H31.583V307.059Z" fill="#F0F0F0"/>
<path d="M31.583 313.308H27.8555V317.035H31.583V313.308Z" fill="#F0F0F0"/>
<path d="M31.583 319.556H27.8555V323.284H31.583V319.556Z" fill="#F0F0F0"/>
<path d="M25.6631 232.074H21.9355V235.802H25.6631V232.074Z" fill="#F0F0F0"/>
<path d="M25.6631 238.322H21.9355V242.05H25.6631V238.322Z" fill="#F0F0F0"/>
<path d="M25.6631 244.571H21.9355V248.299H25.6631V244.571Z" fill="#F0F0F0"/>
<path d="M25.6631 250.82H21.9355V254.547H25.6631V250.82Z" fill="#F0F0F0"/>
<path d="M25.6631 257.068H21.9355V260.796H25.6631V257.068Z" fill="#F0F0F0"/>
<path d="M25.6631 263.317H21.9355V267.044H25.6631V263.317Z" fill="#F0F0F0"/>
<path d="M25.6631 269.565H21.9355V273.293H25.6631V269.565Z" fill="#F0F0F0"/>
<path d="M25.6631 275.814H21.9355V279.542H25.6631V275.814Z" fill="#F0F0F0"/>
<path d="M25.6631 282.063H21.9355V285.791H25.6631V282.063Z" fill="#F0F0F0"/>
<path d="M25.6631 288.312H21.9355V292.04H25.6631V288.312Z" fill="#F0F0F0"/>
<path d="M25.6631 294.562H21.9355V298.289H25.6631V294.562Z" fill="#F0F0F0"/>
<path d="M25.6631 300.811H21.9355V304.538H25.6631V300.811Z" fill="#F0F0F0"/>
<path d="M25.6631 307.059H21.9355V310.786H25.6631V307.059Z" fill="#F0F0F0"/>
<path d="M19.7432 232.074H16.0156V235.802H19.7432V232.074Z" fill="#F0F0F0"/>
<path d="M19.7432 238.322H16.0156V242.05H19.7432V238.322Z" fill="#F0F0F0"/>
<path d="M19.7432 244.571H16.0156V248.299H19.7432V244.571Z" fill="#F0F0F0"/>
<path d="M19.7432 250.82H16.0156V254.547H19.7432V250.82Z" fill="#F0F0F0"/>
<path d="M19.7432 257.068H16.0156V260.796H19.7432V257.068Z" fill="#F0F0F0"/>
<path d="M19.7432 263.317H16.0156V267.044H19.7432V263.317Z" fill="#F0F0F0"/>
<path d="M19.7432 269.565H16.0156V273.293H19.7432V269.565Z" fill="#F0F0F0"/>
<path d="M19.7432 275.814H16.0156V279.542H19.7432V275.814Z" fill="#F0F0F0"/>
<path d="M19.7432 282.063H16.0156V285.791H19.7432V282.063Z" fill="#F0F0F0"/>
<path d="M19.7432 288.312H16.0156V292.04H19.7432V288.312Z" fill="#F0F0F0"/>
<path d="M19.7432 294.562H16.0156V298.289H19.7432V294.562Z" fill="#F0F0F0"/>
<path d="M19.7432 300.811H16.0156V304.538H19.7432V300.811Z" fill="#F0F0F0"/>
<path d="M454.743 277.677H451.016V281.405H454.743V277.677Z" fill="#F0F0F0"/>
<path d="M454.743 283.927H451.016V287.655H454.743V283.927Z" fill="#F0F0F0"/>
<path d="M454.743 290.176H451.016V293.903H454.743V290.176Z" fill="#F0F0F0"/>
<path d="M454.743 296.424H451.016V300.152H454.743V296.424Z" fill="#F0F0F0"/>
<path d="M454.743 302.673H451.016V306.401H454.743V302.673Z" fill="#F0F0F0"/>
<path d="M454.743 308.921H451.016V312.649H454.743V308.921Z" fill="#F0F0F0"/>
<path d="M454.743 315.17H451.016V318.898H454.743V315.17Z" fill="#F0F0F0"/>
<path d="M454.743 321.419H451.016V325.146H454.743V321.419Z" fill="#F0F0F0"/>
<path d="M454.743 327.668H451.016V331.395H454.743V327.668Z" fill="#F0F0F0"/>
<path d="M454.743 333.917H451.016V337.644H454.743V333.917Z" fill="#F0F0F0"/>
<path d="M454.743 340.165H451.016V343.892H454.743V340.165Z" fill="#F0F0F0"/>
<path d="M454.743 346.414H451.016V350.141H454.743V346.414Z" fill="#F0F0F0"/>
<path d="M454.743 352.664H451.016V356.391H454.743V352.664Z" fill="#F0F0F0"/>
<path d="M454.743 358.912H451.016V362.64H454.743V358.912Z" fill="#F0F0F0"/>
<path d="M454.743 365.161H451.016V368.888H454.743V365.161Z" fill="#F0F0F0"/>
<path d="M454.743 371.41H451.016V375.137H454.743V371.41Z" fill="#F0F0F0"/>
<path d="M454.743 377.658H451.016V381.385H454.743V377.658Z" fill="#F0F0F0"/>
<path d="M454.743 383.907H451.016V387.634H454.743V383.907Z" fill="#F0F0F0"/>
<path d="M454.743 390.155H451.016V393.882H454.743V390.155Z" fill="#F0F0F0"/>
<path d="M454.743 396.403H451.016V400.131H454.743V396.403Z" fill="#F0F0F0"/>
<path d="M448.821 277.677H445.094V281.405H448.821V277.677Z" fill="#F0F0F0"/>
<path d="M448.821 283.927H445.094V287.655H448.821V283.927Z" fill="#F0F0F0"/>
<path d="M448.821 290.176H445.094V293.903H448.821V290.176Z" fill="#F0F0F0"/>
<path d="M448.821 296.424H445.094V300.152H448.821V296.424Z" fill="#F0F0F0"/>
<path d="M448.821 302.673H445.094V306.401H448.821V302.673Z" fill="#F0F0F0"/>
<path d="M448.821 308.921H445.094V312.649H448.821V308.921Z" fill="#F0F0F0"/>
<path d="M448.821 315.17H445.094V318.898H448.821V315.17Z" fill="#F0F0F0"/>
<path d="M448.821 321.419H445.094V325.146H448.821V321.419Z" fill="#F0F0F0"/>
<path d="M448.821 327.668H445.094V331.395H448.821V327.668Z" fill="#F0F0F0"/>
<path d="M448.821 333.917H445.094V337.644H448.821V333.917Z" fill="#F0F0F0"/>
<path d="M448.821 340.165H445.094V343.892H448.821V340.165Z" fill="#F0F0F0"/>
<path d="M448.821 346.414H445.094V350.141H448.821V346.414Z" fill="#F0F0F0"/>
<path d="M448.821 352.664H445.094V356.391H448.821V352.664Z" fill="#F0F0F0"/>
<path d="M448.821 358.912H445.094V362.64H448.821V358.912Z" fill="#F0F0F0"/>
<path d="M448.821 365.161H445.094V368.888H448.821V365.161Z" fill="#F0F0F0"/>
<path d="M448.821 371.41H445.094V375.137H448.821V371.41Z" fill="#F0F0F0"/>
<path d="M448.821 377.658H445.094V381.385H448.821V377.658Z" fill="#F0F0F0"/>
<path d="M448.821 383.907H445.094V387.634H448.821V383.907Z" fill="#F0F0F0"/>
<path d="M442.903 277.677H439.176V281.405H442.903V277.677Z" fill="#F0F0F0"/>
<path d="M442.903 283.927H439.176V287.655H442.903V283.927Z" fill="#F0F0F0"/>
<path d="M442.903 290.176H439.176V293.903H442.903V290.176Z" fill="#F0F0F0"/>
<path d="M442.903 296.424H439.176V300.152H442.903V296.424Z" fill="#F0F0F0"/>
<path d="M442.903 302.673H439.176V306.401H442.903V302.673Z" fill="#F0F0F0"/>
<path d="M442.903 308.921H439.176V312.649H442.903V308.921Z" fill="#F0F0F0"/>
<path d="M442.903 315.17H439.176V318.898H442.903V315.17Z" fill="#F0F0F0"/>
<path d="M442.903 321.419H439.176V325.146H442.903V321.419Z" fill="#F0F0F0"/>
<path d="M442.903 327.668H439.176V331.395H442.903V327.668Z" fill="#F0F0F0"/>
<path d="M442.903 333.917H439.176V337.644H442.903V333.917Z" fill="#F0F0F0"/>
<path d="M442.903 340.165H439.176V343.892H442.903V340.165Z" fill="#F0F0F0"/>
<path d="M442.903 346.414H439.176V350.141H442.903V346.414Z" fill="#F0F0F0"/>
<path d="M442.903 352.664H439.176V356.391H442.903V352.664Z" fill="#F0F0F0"/>
<path d="M442.903 358.912H439.176V362.64H442.903V358.912Z" fill="#F0F0F0"/>
<path d="M442.903 365.161H439.176V368.888H442.903V365.161Z" fill="#F0F0F0"/>
<path d="M442.903 371.41H439.176V375.137H442.903V371.41Z" fill="#F0F0F0"/>
<path d="M442.903 377.658H439.176V381.385H442.903V377.658Z" fill="#F0F0F0"/>
<path d="M442.903 383.907H439.176V387.634H442.903V383.907Z" fill="#F0F0F0"/>
<path d="M476.888 323.282H473.16V327.01H476.888V323.282Z" fill="#F0F0F0"/>
<path d="M476.888 329.532H473.16V333.259H476.888V329.532Z" fill="#F0F0F0"/>
<path d="M476.888 335.78H473.16V339.508H476.888V335.78Z" fill="#F0F0F0"/>
<path d="M476.888 342.029H473.16V345.757H476.888V342.029Z" fill="#F0F0F0"/>
<path d="M476.888 348.277H473.16V352.005H476.888V348.277Z" fill="#F0F0F0"/>
<path d="M476.888 354.526H473.16V358.254H476.888V354.526Z" fill="#F0F0F0"/>
<path d="M476.888 360.775H473.16V364.502H476.888V360.775Z" fill="#F0F0F0"/>
<path d="M476.888 367.023H473.16V370.751H476.888V367.023Z" fill="#F0F0F0"/>
<path d="M476.888 373.272H473.16V377H476.888V373.272Z" fill="#F0F0F0"/>
<path d="M476.888 379.521H473.16V383.248H476.888V379.521Z" fill="#F0F0F0"/>
<path d="M476.888 385.77H473.16V389.497H476.888V385.77Z" fill="#F0F0F0"/>
<path d="M476.888 392.018H473.16V395.746H476.888V392.018Z" fill="#F0F0F0"/>
<path d="M476.888 398.267H473.16V401.995H476.888V398.267Z" fill="#F0F0F0"/>
<path d="M470.966 323.282H467.238V327.01H470.966V323.282Z" fill="#F0F0F0"/>
<path d="M470.966 329.532H467.238V333.259H470.966V329.532Z" fill="#F0F0F0"/>
<path d="M470.966 335.78H467.238V339.508H470.966V335.78Z" fill="#F0F0F0"/>
<path d="M470.966 342.029H467.238V345.757H470.966V342.029Z" fill="#F0F0F0"/>
<path d="M470.966 348.277H467.238V352.005H470.966V348.277Z" fill="#F0F0F0"/>
<path d="M470.966 354.526H467.238V358.254H470.966V354.526Z" fill="#F0F0F0"/>
<path d="M470.966 360.775H467.238V364.502H470.966V360.775Z" fill="#F0F0F0"/>
<path d="M470.966 367.023H467.238V370.751H470.966V367.023Z" fill="#F0F0F0"/>
<path d="M470.966 373.272H467.238V377H470.966V373.272Z" fill="#F0F0F0"/>
<path d="M470.966 379.521H467.238V383.248H470.966V379.521Z" fill="#F0F0F0"/>
<path d="M470.966 385.77H467.238V389.497H470.966V385.77Z" fill="#F0F0F0"/>
<path d="M470.966 392.018H467.238V395.746H470.966V392.018Z" fill="#F0F0F0"/>
<path d="M470.966 398.267H467.238V401.995H470.966V398.267Z" fill="#F0F0F0"/>
<path d="M465.048 323.282H461.32V327.01H465.048V323.282Z" fill="#F0F0F0"/>
<path d="M465.048 329.532H461.32V333.259H465.048V329.532Z" fill="#F0F0F0"/>
<path d="M465.048 335.78H461.32V339.508H465.048V335.78Z" fill="#F0F0F0"/>
<path d="M465.048 342.029H461.32V345.757H465.048V342.029Z" fill="#F0F0F0"/>
<path d="M465.048 348.277H461.32V352.005H465.048V348.277Z" fill="#F0F0F0"/>
<path d="M465.048 354.526H461.32V358.254H465.048V354.526Z" fill="#F0F0F0"/>
<path d="M465.048 360.775H461.32V364.502H465.048V360.775Z" fill="#F0F0F0"/>
<path d="M465.048 367.023H461.32V370.751H465.048V367.023Z" fill="#F0F0F0"/>
<path d="M465.048 373.272H461.32V377H465.048V373.272Z" fill="#F0F0F0"/>
<path d="M465.048 379.521H461.32V383.248H465.048V379.521Z" fill="#F0F0F0"/>
<path d="M465.048 385.77H461.32V389.497H465.048V385.77Z" fill="#F0F0F0"/>
<path d="M465.048 392.018H461.32V395.746H465.048V392.018Z" fill="#F0F0F0"/>
<path d="M465.048 398.267H461.32V401.995H465.048V398.267Z" fill="#F0F0F0"/>
<path d="M465.048 404.517H461.32V408.244H465.048V404.517Z" fill="#F0F0F0"/>
<path d="M432.161 325.146H428.434V328.874H432.161V325.146Z" fill="#F0F0F0"/>
<path d="M432.161 331.395H428.434V335.123H432.161V331.395Z" fill="#F0F0F0"/>
<path d="M432.161 337.644H428.434V341.372H432.161V337.644Z" fill="#F0F0F0"/>
<path d="M432.161 343.893H428.434V347.62H432.161V343.893Z" fill="#F0F0F0"/>
<path d="M432.161 350.141H428.434V353.868H432.161V350.141Z" fill="#F0F0F0"/>
<path d="M432.161 356.39H428.434V360.117H432.161V356.39Z" fill="#F0F0F0"/>
<path d="M432.161 362.638H428.434V366.366H432.161V362.638Z" fill="#F0F0F0"/>
<path d="M432.161 368.887H428.434V372.615H432.161V368.887Z" fill="#F0F0F0"/>
<path d="M432.161 375.136H428.434V378.863H432.161V375.136Z" fill="#F0F0F0"/>
<path d="M432.161 381.386H428.434V385.113H432.161V381.386Z" fill="#F0F0F0"/>
<path d="M432.161 400.131H428.434V403.858H432.161V400.131Z" fill="#F0F0F0"/>
<path d="M426.239 325.146H422.512V328.874H426.239V325.146Z" fill="#F0F0F0"/>
<path d="M426.239 331.395H422.512V335.123H426.239V331.395Z" fill="#F0F0F0"/>
<path d="M426.239 337.644H422.512V341.372H426.239V337.644Z" fill="#F0F0F0"/>
<path d="M426.239 343.893H422.512V347.62H426.239V343.893Z" fill="#F0F0F0"/>
<path d="M426.239 350.141H422.512V353.868H426.239V350.141Z" fill="#F0F0F0"/>
<path d="M426.239 356.39H422.512V360.117H426.239V356.39Z" fill="#F0F0F0"/>
<path d="M426.239 362.638H422.512V366.366H426.239V362.638Z" fill="#F0F0F0"/>
<path d="M426.239 368.887H422.512V372.615H426.239V368.887Z" fill="#F0F0F0"/>
<path d="M426.239 375.136H422.512V378.863H426.239V375.136Z" fill="#F0F0F0"/>
<path d="M426.239 393.882H422.512V397.61H426.239V393.882Z" fill="#F0F0F0"/>
<path d="M426.239 400.131H422.512V403.858H426.239V400.131Z" fill="#F0F0F0"/>
<path d="M420.319 325.146H416.592V328.874H420.319V325.146Z" fill="#F0F0F0"/>
<path d="M420.319 331.395H416.592V335.123H420.319V331.395Z" fill="#F0F0F0"/>
<path d="M420.319 337.644H416.592V341.372H420.319V337.644Z" fill="#F0F0F0"/>
<path d="M420.319 343.893H416.592V347.62H420.319V343.893Z" fill="#F0F0F0"/>
<path d="M420.319 350.141H416.592V353.868H420.319V350.141Z" fill="#F0F0F0"/>
<path d="M420.319 356.39H416.592V360.117H420.319V356.39Z" fill="#F0F0F0"/>
<path d="M420.319 362.638H416.592V366.366H420.319V362.638Z" fill="#F0F0F0"/>
<path d="M420.319 368.887H416.592V372.615H420.319V368.887Z" fill="#F0F0F0"/>
<path d="M420.319 387.633H416.592V391.361H420.319V387.633Z" fill="#F0F0F0"/>
<path d="M420.319 393.882H416.592V397.61H420.319V393.882Z" fill="#F0F0F0"/>
<path d="M420.319 400.131H416.592V403.858H420.319V400.131Z" fill="#F0F0F0"/>
<path d="M365.286 230.209H361.559V233.937H365.286V230.209Z" fill="#F0F0F0"/>
<path d="M365.286 236.458H361.559V240.186H365.286V236.458Z" fill="#F0F0F0"/>
<path d="M365.286 242.707H361.559V246.435H365.286V242.707Z" fill="#F0F0F0"/>
<path d="M365.286 248.957H361.559V252.685H365.286V248.957Z" fill="#F0F0F0"/>
<path d="M365.286 255.204H361.559V258.932H365.286V255.204Z" fill="#F0F0F0"/>
<path d="M365.286 261.453H361.559V265.18H365.286V261.453Z" fill="#F0F0F0"/>
<path d="M365.286 267.702H361.559V271.429H365.286V267.702Z" fill="#F0F0F0"/>
<path d="M365.286 273.951H361.559V277.678H365.286V273.951Z" fill="#F0F0F0"/>
<path d="M365.286 280.2H361.559V283.927H365.286V280.2Z" fill="#F0F0F0"/>
<path d="M365.286 286.448H361.559V290.176H365.286V286.448Z" fill="#F0F0F0"/>
<path d="M365.286 292.697H361.559V296.424H365.286V292.697Z" fill="#F0F0F0"/>
<path d="M365.286 298.945H361.559V302.673H365.286V298.945Z" fill="#F0F0F0"/>
<path d="M365.286 305.194H361.559V308.922H365.286V305.194Z" fill="#F0F0F0"/>
<path d="M365.286 311.443H361.559V315.17H365.286V311.443Z" fill="#F0F0F0"/>
<path d="M365.286 317.691H361.559V321.418H365.286V317.691Z" fill="#F0F0F0"/>
<path d="M365.286 323.94H361.559V327.668H365.286V323.94Z" fill="#F0F0F0"/>
<path d="M365.286 330.188H361.559V333.916H365.286V330.188Z" fill="#F0F0F0"/>
<path d="M365.286 342.687H361.559V346.415H365.286V342.687Z" fill="#F0F0F0"/>
<path d="M365.286 348.936H361.559V352.664H365.286V348.936Z" fill="#F0F0F0"/>
<path d="M365.286 355.185H361.559V358.912H365.286V355.185Z" fill="#F0F0F0"/>
<path d="M365.286 361.433H361.559V365.161H365.286V361.433Z" fill="#F0F0F0"/>
<path d="M365.286 367.682H361.559V371.409H365.286V367.682Z" fill="#F0F0F0"/>
<path d="M359.366 230.209H355.639V233.937H359.366V230.209Z" fill="#F0F0F0"/>
<path d="M359.366 236.458H355.639V240.186H359.366V236.458Z" fill="#F0F0F0"/>
<path d="M359.366 242.707H355.639V246.435H359.366V242.707Z" fill="#F0F0F0"/>
<path d="M359.366 248.957H355.639V252.685H359.366V248.957Z" fill="#F0F0F0"/>
<path d="M359.366 255.204H355.639V258.932H359.366V255.204Z" fill="#F0F0F0"/>
<path d="M359.366 261.453H355.639V265.18H359.366V261.453Z" fill="#F0F0F0"/>
<path d="M359.366 267.702H355.639V271.429H359.366V267.702Z" fill="#F0F0F0"/>
<path d="M359.366 273.951H355.639V277.678H359.366V273.951Z" fill="#F0F0F0"/>
<path d="M359.366 280.2H355.639V283.927H359.366V280.2Z" fill="#F0F0F0"/>
<path d="M359.366 286.448H355.639V290.176H359.366V286.448Z" fill="#F0F0F0"/>
<path d="M359.366 292.697H355.639V296.424H359.366V292.697Z" fill="#F0F0F0"/>
<path d="M359.366 298.945H355.639V302.673H359.366V298.945Z" fill="#F0F0F0"/>
<path d="M359.366 305.194H355.639V308.922H359.366V305.194Z" fill="#F0F0F0"/>
<path d="M359.366 311.443H355.639V315.17H359.366V311.443Z" fill="#F0F0F0"/>
<path d="M359.366 317.691H355.639V321.418H359.366V317.691Z" fill="#F0F0F0"/>
<path d="M359.366 323.94H355.639V327.668H359.366V323.94Z" fill="#F0F0F0"/>
<path d="M359.366 361.433H355.639V365.161H359.366V361.433Z" fill="#F0F0F0"/>
<path d="M359.366 367.682H355.639V371.409H359.366V367.682Z" fill="#F0F0F0"/>
<path d="M353.446 230.209H349.719V233.937H353.446V230.209Z" fill="#F0F0F0"/>
<path d="M353.446 236.458H349.719V240.186H353.446V236.458Z" fill="#F0F0F0"/>
<path d="M353.446 242.707H349.719V246.435H353.446V242.707Z" fill="#F0F0F0"/>
<path d="M353.446 248.957H349.719V252.685H353.446V248.957Z" fill="#F0F0F0"/>
<path d="M353.446 255.204H349.719V258.932H353.446V255.204Z" fill="#F0F0F0"/>
<path d="M353.446 261.453H349.719V265.18H353.446V261.453Z" fill="#F0F0F0"/>
<path d="M353.446 267.702H349.719V271.429H353.446V267.702Z" fill="#F0F0F0"/>
<path d="M353.446 273.951H349.719V277.678H353.446V273.951Z" fill="#F0F0F0"/>
<path d="M353.446 280.2H349.719V283.927H353.446V280.2Z" fill="#F0F0F0"/>
<path d="M353.446 286.448H349.719V290.176H353.446V286.448Z" fill="#F0F0F0"/>
<path d="M353.446 292.697H349.719V296.424H353.446V292.697Z" fill="#F0F0F0"/>
<path d="M353.446 298.945H349.719V302.673H353.446V298.945Z" fill="#F0F0F0"/>
<path d="M353.446 305.194H349.719V308.922H353.446V305.194Z" fill="#F0F0F0"/>
<path d="M353.446 311.443H349.719V315.17H353.446V311.443Z" fill="#F0F0F0"/>
<path d="M353.446 317.691H349.719V321.418H353.446V317.691Z" fill="#F0F0F0"/>
<path d="M353.446 323.94H349.719V327.668H353.446V323.94Z" fill="#F0F0F0"/>
<path d="M353.446 336.438H349.719V340.166H353.446V336.438Z" fill="#F0F0F0"/>
<path d="M353.446 342.687H349.719V346.415H353.446V342.687Z" fill="#F0F0F0"/>
<path d="M353.446 348.936H349.719V352.664H353.446V348.936Z" fill="#F0F0F0"/>
<path d="M353.446 355.185H349.719V358.912H353.446V355.185Z" fill="#F0F0F0"/>
<path d="M353.446 367.682H349.719V371.409H353.446V367.682Z" fill="#F0F0F0"/>
<path d="M386.772 308.921H383.045V312.649H386.772V308.921Z" fill="#F0F0F0"/>
<path d="M386.772 315.17H383.045V318.898H386.772V315.17Z" fill="#F0F0F0"/>
<path d="M386.772 321.419H383.045V325.146H386.772V321.419Z" fill="#F0F0F0"/>
<path d="M386.772 327.668H383.045V331.395H386.772V327.668Z" fill="#F0F0F0"/>
<path d="M386.772 333.917H383.045V337.644H386.772V333.917Z" fill="#F0F0F0"/>
<path d="M386.772 340.165H383.045V343.892H386.772V340.165Z" fill="#F0F0F0"/>
<path d="M386.772 346.414H383.045V350.141H386.772V346.414Z" fill="#F0F0F0"/>
<path d="M386.772 358.912H383.045V362.64H386.772V358.912Z" fill="#F0F0F0"/>
<path d="M386.772 365.161H383.045V368.888H386.772V365.161Z" fill="#F0F0F0"/>
<path d="M386.772 371.41H383.045V375.137H386.772V371.41Z" fill="#F0F0F0"/>
<path d="M386.772 377.658H383.045V381.385H386.772V377.658Z" fill="#F0F0F0"/>
<path d="M386.772 383.907H383.045V387.634H386.772V383.907Z" fill="#F0F0F0"/>
<path d="M386.772 390.155H383.045V393.882H386.772V390.155Z" fill="#F0F0F0"/>
<path d="M386.772 396.403H383.045V400.131H386.772V396.403Z" fill="#F0F0F0"/>
<path d="M386.772 402.652H383.045V406.379H386.772V402.652Z" fill="#F0F0F0"/>
<path d="M380.853 308.921H377.125V312.649H380.853V308.921Z" fill="#F0F0F0"/>
<path d="M380.853 315.17H377.125V318.898H380.853V315.17Z" fill="#F0F0F0"/>
<path d="M380.853 321.419H377.125V325.146H380.853V321.419Z" fill="#F0F0F0"/>
<path d="M380.853 327.668H377.125V331.395H380.853V327.668Z" fill="#F0F0F0"/>
<path d="M380.853 333.917H377.125V337.644H380.853V333.917Z" fill="#F0F0F0"/>
<path d="M380.853 340.165H377.125V343.892H380.853V340.165Z" fill="#F0F0F0"/>
<path d="M380.853 358.912H377.125V362.64H380.853V358.912Z" fill="#F0F0F0"/>
<path d="M380.853 365.161H377.125V368.888H380.853V365.161Z" fill="#F0F0F0"/>
<path d="M380.853 371.41H377.125V375.137H380.853V371.41Z" fill="#F0F0F0"/>
<path d="M380.853 377.658H377.125V381.385H380.853V377.658Z" fill="#F0F0F0"/>
<path d="M380.853 383.907H377.125V387.634H380.853V383.907Z" fill="#F0F0F0"/>
<path d="M380.853 390.155H377.125V393.882H380.853V390.155Z" fill="#F0F0F0"/>
<path d="M380.853 396.403H377.125V400.131H380.853V396.403Z" fill="#F0F0F0"/>
<path d="M380.853 402.652H377.125V406.379H380.853V402.652Z" fill="#F0F0F0"/>
<path d="M374.933 308.921H371.205V312.649H374.933V308.921Z" fill="#F0F0F0"/>
<path d="M374.933 315.17H371.205V318.898H374.933V315.17Z" fill="#F0F0F0"/>
<path d="M374.933 321.419H371.205V325.146H374.933V321.419Z" fill="#F0F0F0"/>
<path d="M374.933 327.668H371.205V331.395H374.933V327.668Z" fill="#F0F0F0"/>
<path d="M374.933 333.917H371.205V337.644H374.933V333.917Z" fill="#F0F0F0"/>
<path d="M374.933 340.165H371.205V343.892H374.933V340.165Z" fill="#F0F0F0"/>
<path d="M374.933 352.664H371.205V356.391H374.933V352.664Z" fill="#F0F0F0"/>
<path d="M374.933 358.912H371.205V362.64H374.933V358.912Z" fill="#F0F0F0"/>
<path d="M374.933 365.161H371.205V368.888H374.933V365.161Z" fill="#F0F0F0"/>
<path d="M374.933 371.41H371.205V375.137H374.933V371.41Z" fill="#F0F0F0"/>
<path d="M374.933 377.658H371.205V381.385H374.933V377.658Z" fill="#F0F0F0"/>
<path d="M374.933 383.907H371.205V387.634H374.933V383.907Z" fill="#F0F0F0"/>
<path d="M374.933 390.155H371.205V393.882H374.933V390.155Z" fill="#F0F0F0"/>
<path d="M374.933 396.403H371.205V400.131H374.933V396.403Z" fill="#F0F0F0"/>
<path d="M374.933 402.652H371.205V406.379H374.933V402.652Z" fill="#F0F0F0"/>
<path d="M250.181 273.951H246.453V277.678H250.181V273.951Z" fill="#F0F0F0"/>
<path d="M250.181 280.2H246.453V283.927H250.181V280.2Z" fill="#F0F0F0"/>
<path d="M250.181 286.448H246.453V290.176H250.181V286.448Z" fill="#F0F0F0"/>
<path d="M250.181 292.697H246.453V296.424H250.181V292.697Z" fill="#F0F0F0"/>
<path d="M250.181 298.945H246.453V302.673H250.181V298.945Z" fill="#F0F0F0"/>
<path d="M250.181 305.194H246.453V308.922H250.181V305.194Z" fill="#F0F0F0"/>
<path d="M250.181 311.443H246.453V315.17H250.181V311.443Z" fill="#F0F0F0"/>
<path d="M250.181 317.691H246.453V321.418H250.181V317.691Z" fill="#F0F0F0"/>
<path d="M250.181 323.94H246.453V327.668H250.181V323.94Z" fill="#F0F0F0"/>
<path d="M250.181 330.188H246.453V333.916H250.181V330.188Z" fill="#F0F0F0"/>
<path d="M250.181 336.438H246.453V340.166H250.181V336.438Z" fill="#F0F0F0"/>
<path d="M250.181 342.687H246.453V346.415H250.181V342.687Z" fill="#F0F0F0"/>
<path d="M250.181 348.936H246.453V352.664H250.181V348.936Z" fill="#F0F0F0"/>
<path d="M250.181 361.433H246.453V365.161H250.181V361.433Z" fill="#F0F0F0"/>
<path d="M250.181 367.682H246.453V371.409H250.181V367.682Z" fill="#F0F0F0"/>
<path d="M250.181 373.931H246.453V377.658H250.181V373.931Z" fill="#F0F0F0"/>
<path d="M250.181 380.179H246.453V383.907H250.181V380.179Z" fill="#F0F0F0"/>
<path d="M250.181 392.676H246.453V396.403H250.181V392.676Z" fill="#F0F0F0"/>
<path d="M250.181 398.924H246.453V402.652H250.181V398.924Z" fill="#F0F0F0"/>
<path d="M250.181 405.174H246.453V408.902H250.181V405.174Z" fill="#F0F0F0"/>
<path d="M244.261 273.951H240.533V277.678H244.261V273.951Z" fill="#F0F0F0"/>
<path d="M244.261 280.2H240.533V283.927H244.261V280.2Z" fill="#F0F0F0"/>
<path d="M244.261 286.448H240.533V290.176H244.261V286.448Z" fill="#F0F0F0"/>
<path d="M244.261 292.697H240.533V296.424H244.261V292.697Z" fill="#F0F0F0"/>
<path d="M244.261 298.945H240.533V302.673H244.261V298.945Z" fill="#F0F0F0"/>
<path d="M244.261 305.194H240.533V308.922H244.261V305.194Z" fill="#F0F0F0"/>
<path d="M244.261 311.443H240.533V315.17H244.261V311.443Z" fill="#F0F0F0"/>
<path d="M244.261 317.691H240.533V321.418H244.261V317.691Z" fill="#F0F0F0"/>
<path d="M244.261 323.94H240.533V327.668H244.261V323.94Z" fill="#F0F0F0"/>
<path d="M244.261 330.188H240.533V333.916H244.261V330.188Z" fill="#F0F0F0"/>
<path d="M244.261 336.438H240.533V340.166H244.261V336.438Z" fill="#F0F0F0"/>
<path d="M244.261 342.687H240.533V346.415H244.261V342.687Z" fill="#F0F0F0"/>
<path d="M244.261 348.936H240.533V352.664H244.261V348.936Z" fill="#F0F0F0"/>
<path d="M244.261 367.682H240.533V371.409H244.261V367.682Z" fill="#F0F0F0"/>
<path d="M244.261 373.931H240.533V377.658H244.261V373.931Z" fill="#F0F0F0"/>
<path d="M244.261 386.428H240.533V390.155H244.261V386.428Z" fill="#F0F0F0"/>
<path d="M244.261 392.676H240.533V396.403H244.261V392.676Z" fill="#F0F0F0"/>
<path d="M244.261 398.924H240.533V402.652H244.261V398.924Z" fill="#F0F0F0"/>
<path d="M244.261 405.174H240.533V408.902H244.261V405.174Z" fill="#F0F0F0"/>
<path d="M238.339 273.951H234.611V277.678H238.339V273.951Z" fill="#F0F0F0"/>
<path d="M238.339 280.2H234.611V283.927H238.339V280.2Z" fill="#F0F0F0"/>
<path d="M238.339 286.448H234.611V290.176H238.339V286.448Z" fill="#F0F0F0"/>
<path d="M238.339 292.697H234.611V296.424H238.339V292.697Z" fill="#F0F0F0"/>
<path d="M238.339 298.945H234.611V302.673H238.339V298.945Z" fill="#F0F0F0"/>
<path d="M238.339 305.194H234.611V308.922H238.339V305.194Z" fill="#F0F0F0"/>
<path d="M238.339 311.443H234.611V315.17H238.339V311.443Z" fill="#F0F0F0"/>
<path d="M238.339 317.691H234.611V321.418H238.339V317.691Z" fill="#F0F0F0"/>
<path d="M238.339 323.94H234.611V327.668H238.339V323.94Z" fill="#F0F0F0"/>
<path d="M238.339 330.188H234.611V333.916H238.339V330.188Z" fill="#F0F0F0"/>
<path d="M238.339 336.438H234.611V340.166H238.339V336.438Z" fill="#F0F0F0"/>
<path d="M238.339 342.687H234.611V346.415H238.339V342.687Z" fill="#F0F0F0"/>
<path d="M238.339 348.936H234.611V352.664H238.339V348.936Z" fill="#F0F0F0"/>
<path d="M238.339 355.185H234.611V358.912H238.339V355.185Z" fill="#F0F0F0"/>
<path d="M238.339 367.682H234.611V371.409H238.339V367.682Z" fill="#F0F0F0"/>
<path d="M238.339 380.179H234.611V383.907H238.339V380.179Z" fill="#F0F0F0"/>
<path d="M238.339 386.428H234.611V390.155H238.339V386.428Z" fill="#F0F0F0"/>
<path d="M238.339 392.676H234.611V396.403H238.339V392.676Z" fill="#F0F0F0"/>
<path d="M238.339 398.924H234.611V402.652H238.339V398.924Z" fill="#F0F0F0"/>
<path d="M238.339 405.174H234.611V408.902H238.339V405.174Z" fill="#F0F0F0"/>
<path d="M274.296 309.58H270.568V313.308H274.296V309.58Z" fill="#F0F0F0"/>
<path d="M274.296 315.828H270.568V319.556H274.296V315.828Z" fill="#F0F0F0"/>
<path d="M274.296 322.077H270.568V325.805H274.296V322.077Z" fill="#F0F0F0"/>
<path d="M274.296 328.326H270.568V332.053H274.296V328.326Z" fill="#F0F0F0"/>
<path d="M274.296 334.574H270.568V338.301H274.296V334.574Z" fill="#F0F0F0"/>
<path d="M274.296 340.823H270.568V344.55H274.296V340.823Z" fill="#F0F0F0"/>
<path d="M274.296 359.568H270.568V363.296H274.296V359.568Z" fill="#F0F0F0"/>
<path d="M274.296 365.818H270.568V369.546H274.296V365.818Z" fill="#F0F0F0"/>
<path d="M274.296 372.067H270.568V375.794H274.296V372.067Z" fill="#F0F0F0"/>
<path d="M274.296 378.316H270.568V382.043H274.296V378.316Z" fill="#F0F0F0"/>
<path d="M274.296 384.564H270.568V388.291H274.296V384.564Z" fill="#F0F0F0"/>
<path d="M274.296 390.813H270.568V394.541H274.296V390.813Z" fill="#F0F0F0"/>
<path d="M274.296 397.062H270.568V400.789H274.296V397.062Z" fill="#F0F0F0"/>
<path d="M268.376 309.58H264.648V313.308H268.376V309.58Z" fill="#F0F0F0"/>
<path d="M268.376 315.828H264.648V319.556H268.376V315.828Z" fill="#F0F0F0"/>
<path d="M268.376 322.077H264.648V325.805H268.376V322.077Z" fill="#F0F0F0"/>
<path d="M268.376 328.326H264.648V332.053H268.376V328.326Z" fill="#F0F0F0"/>
<path d="M268.376 334.574H264.648V338.301H268.376V334.574Z" fill="#F0F0F0"/>
<path d="M268.376 340.823H264.648V344.55H268.376V340.823Z" fill="#F0F0F0"/>
<path d="M268.376 359.568H264.648V363.296H268.376V359.568Z" fill="#F0F0F0"/>
<path d="M268.376 365.818H264.648V369.546H268.376V365.818Z" fill="#F0F0F0"/>
<path d="M268.376 372.067H264.648V375.794H268.376V372.067Z" fill="#F0F0F0"/>
<path d="M268.376 378.316H264.648V382.043H268.376V378.316Z" fill="#F0F0F0"/>
<path d="M268.376 384.564H264.648V388.291H268.376V384.564Z" fill="#F0F0F0"/>
<path d="M268.376 390.813H264.648V394.541H268.376V390.813Z" fill="#F0F0F0"/>
<path d="M268.376 403.311H264.648V407.038H268.376V403.311Z" fill="#F0F0F0"/>
<path d="M71.706 282.063H67.9785V285.791H71.706V282.063Z" fill="#F0F0F0"/>
<path d="M71.706 288.312H67.9785V292.04H71.706V288.312Z" fill="#F0F0F0"/>
<path d="M71.706 294.562H67.9785V298.289H71.706V294.562Z" fill="#F0F0F0"/>
<path d="M71.706 300.811H67.9785V304.538H71.706V300.811Z" fill="#F0F0F0"/>
<path d="M71.706 307.059H67.9785V310.786H71.706V307.059Z" fill="#F0F0F0"/>
<path d="M71.706 313.308H67.9785V317.035H71.706V313.308Z" fill="#F0F0F0"/>
<path d="M71.706 319.556H67.9785V323.284H71.706V319.556Z" fill="#F0F0F0"/>
<path d="M71.706 325.805H67.9785V329.532H71.706V325.805Z" fill="#F0F0F0"/>
<path d="M71.706 332.053H67.9785V335.78H71.706V332.053Z" fill="#F0F0F0"/>
<path d="M71.706 338.301H67.9785V342.029H71.706V338.301Z" fill="#F0F0F0"/>
<path d="M71.706 344.55H67.9785V348.278H71.706V344.55Z" fill="#F0F0F0"/>
<path d="M71.706 357.047H67.9785V360.775H71.706V357.047Z" fill="#F0F0F0"/>
<path d="M71.706 363.296H67.9785V367.023H71.706V363.296Z" fill="#F0F0F0"/>
<path d="M71.706 369.544H67.9785V373.272H71.706V369.544Z" fill="#F0F0F0"/>
<path d="M71.706 375.793H67.9785V379.521H71.706V375.793Z" fill="#F0F0F0"/>
<path d="M71.706 382.043H67.9785V385.771H71.706V382.043Z" fill="#F0F0F0"/>
<path d="M71.706 388.292H67.9785V392.02H71.706V388.292Z" fill="#F0F0F0"/>
<path d="M71.706 394.541H67.9785V398.268H71.706V394.541Z" fill="#F0F0F0"/>
<path d="M71.706 400.789H67.9785V404.517H71.706V400.789Z" fill="#F0F0F0"/>
<path d="M65.7861 282.063H62.0586V285.791H65.7861V282.063Z" fill="#F0F0F0"/>
<path d="M65.7861 288.312H62.0586V292.04H65.7861V288.312Z" fill="#F0F0F0"/>
<path d="M65.7861 294.562H62.0586V298.289H65.7861V294.562Z" fill="#F0F0F0"/>
<path d="M65.7861 300.811H62.0586V304.538H65.7861V300.811Z" fill="#F0F0F0"/>
<path d="M65.7861 307.059H62.0586V310.786H65.7861V307.059Z" fill="#F0F0F0"/>
<path d="M65.7861 313.308H62.0586V317.035H65.7861V313.308Z" fill="#F0F0F0"/>
<path d="M65.7861 319.556H62.0586V323.284H65.7861V319.556Z" fill="#F0F0F0"/>
<path d="M65.7861 325.805H62.0586V329.532H65.7861V325.805Z" fill="#F0F0F0"/>
<path d="M65.7861 332.053H62.0586V335.78H65.7861V332.053Z" fill="#F0F0F0"/>
<path d="M65.7861 338.301H62.0586V342.029H65.7861V338.301Z" fill="#F0F0F0"/>
<path d="M65.7861 344.55H62.0586V348.278H65.7861V344.55Z" fill="#F0F0F0"/>
<path d="M65.7861 350.799H62.0586V354.526H65.7861V350.799Z" fill="#F0F0F0"/>
<path d="M65.7861 357.047H62.0586V360.775H65.7861V357.047Z" fill="#F0F0F0"/>
<path d="M65.7861 363.296H62.0586V367.023H65.7861V363.296Z" fill="#F0F0F0"/>
<path d="M65.7861 369.544H62.0586V373.272H65.7861V369.544Z" fill="#F0F0F0"/>
<path d="M65.7861 375.793H62.0586V379.521H65.7861V375.793Z" fill="#F0F0F0"/>
<path d="M65.7861 382.043H62.0586V385.771H65.7861V382.043Z" fill="#F0F0F0"/>
<path d="M65.7861 388.292H62.0586V392.02H65.7861V388.292Z" fill="#F0F0F0"/>
<path d="M65.7861 394.541H62.0586V398.268H65.7861V394.541Z" fill="#F0F0F0"/>
<path d="M65.7861 400.789H62.0586V404.517H65.7861V400.789Z" fill="#F0F0F0"/>
<path d="M100.866 306.4H97.1387V310.128H100.866V306.4Z" fill="#F0F0F0"/>
<path d="M100.866 312.649H97.1387V316.377H100.866V312.649Z" fill="#F0F0F0"/>
<path d="M100.866 318.897H97.1387V322.625H100.866V318.897Z" fill="#F0F0F0"/>
<path d="M100.866 325.146H97.1387V328.874H100.866V325.146Z" fill="#F0F0F0"/>
<path d="M100.866 331.395H97.1387V335.123H100.866V331.395Z" fill="#F0F0F0"/>
<path d="M100.866 337.644H97.1387V341.372H100.866V337.644Z" fill="#F0F0F0"/>
<path d="M100.866 343.893H97.1387V347.62H100.866V343.893Z" fill="#F0F0F0"/>
<path d="M100.866 350.141H97.1387V353.868H100.866V350.141Z" fill="#F0F0F0"/>
<path d="M100.866 356.39H97.1387V360.117H100.866V356.39Z" fill="#F0F0F0"/>
<path d="M100.866 362.638H97.1387V366.366H100.866V362.638Z" fill="#F0F0F0"/>
<path d="M94.9482 306.4H91.2207V310.128H94.9482V306.4Z" fill="#F0F0F0"/>
<path d="M94.9482 312.649H91.2207V316.377H94.9482V312.649Z" fill="#F0F0F0"/>
<path d="M94.9482 318.897H91.2207V322.625H94.9482V318.897Z" fill="#F0F0F0"/>
<path d="M94.9482 325.146H91.2207V328.874H94.9482V325.146Z" fill="#F0F0F0"/>
<path d="M94.9482 331.395H91.2207V335.123H94.9482V331.395Z" fill="#F0F0F0"/>
<path d="M94.9482 337.644H91.2207V341.372H94.9482V337.644Z" fill="#F0F0F0"/>
<path d="M94.9482 343.893H91.2207V347.62H94.9482V343.893Z" fill="#F0F0F0"/>
<path d="M94.9482 350.141H91.2207V353.868H94.9482V350.141Z" fill="#F0F0F0"/>
<path d="M94.9482 356.39H91.2207V360.117H94.9482V356.39Z" fill="#F0F0F0"/>
<path d="M248.155 479.763C386.031 479.763 497.802 473.236 497.802 465.184C497.802 457.132 386.031 450.604 248.155 450.604C110.279 450.604 -1.49219 457.132 -1.49219 465.184C-1.49219 473.236 110.279 479.763 248.155 479.763Z" fill="#F5F5F5"/>
<path d="M242.326 231.965L244.493 234.647L38.8262 398.468L47.5868 409.313L48.7882 410.801L254.455 246.98L256.621 249.663L260.474 231.929L242.326 231.965Z" fill="#407BFF"/>
<path opacity="0.7" d="M242.326 231.965L244.493 234.647L38.8262 398.468L47.5868 409.313L48.7882 410.801L254.455 246.98L256.621 249.663L260.474 231.929L242.326 231.965Z" fill="white"/>
<path d="M8.55469 409.924C8.55469 406.185 11.5869 403.153 15.3261 403.153C16.002 403.153 16.6548 403.255 17.2703 403.44C17.1712 402.762 17.1184 402.068 17.1184 401.362C17.1184 393.443 23.5382 387.024 31.4568 387.024C32.3594 387.024 33.2414 387.111 34.0976 387.271C36.302 383.663 40.2626 381.248 44.8 381.248C51.6653 381.248 57.2354 386.765 57.3371 393.606C57.4067 393.604 57.4749 393.595 57.5457 393.595C63.9256 393.595 69.0966 398.766 69.0966 405.146C69.0966 411.525 63.9256 416.697 57.5457 416.697H15.1265L15.1355 416.687C11.4839 416.585 8.55469 413.601 8.55469 409.924Z" fill="#407BFF"/>
<path opacity="0.8" d="M8.55469 409.924C8.55469 406.185 11.5869 403.153 15.3261 403.153C16.002 403.153 16.6548 403.255 17.2703 403.44C17.1712 402.762 17.1184 402.068 17.1184 401.362C17.1184 393.443 23.5382 387.024 31.4568 387.024C32.3594 387.024 33.2414 387.111 34.0976 387.271C36.302 383.663 40.2626 381.248 44.8 381.248C51.6653 381.248 57.2354 386.765 57.3371 393.606C57.4067 393.604 57.4749 393.595 57.5457 393.595C63.9256 393.595 69.0966 398.766 69.0966 405.146C69.0966 411.525 63.9256 416.697 57.5457 416.697H15.1265L15.1355 416.687C11.4839 416.585 8.55469 413.601 8.55469 409.924Z" fill="white"/>
<path d="M439.682 335.745L444.818 342.104L349.221 419.327L369.991 445.041L372.841 448.57L468.439 371.348L473.576 377.707L482.71 335.66L439.682 335.745Z" fill="#407BFF"/>
<path opacity="0.5" d="M439.682 335.745L444.818 342.104L349.221 419.327L369.991 445.041L372.841 448.57L468.439 371.348L473.576 377.707L482.71 335.66L439.682 335.745Z" fill="white"/>
<path d="M388 416.549C384.142 410.394 377.318 406.287 369.518 406.287C361.589 406.287 354.667 410.53 350.848 416.858C349.845 416.577 348.792 416.416 347.7 416.416C341.245 416.416 336.011 421.649 336.011 428.105C336.011 428.11 336.013 428.115 336.013 428.12H329.85C326.64 428.12 324.014 430.747 324.014 433.957C324.014 437.167 326.64 439.793 329.85 439.793H351.116C354.988 445.876 361.773 449.923 369.518 449.923C375.625 449.923 381.138 447.407 385.099 443.364C385.467 443.393 385.837 443.42 386.213 443.42C393.669 443.42 399.714 437.375 399.714 429.919C399.714 423.069 394.61 417.425 388 416.549Z" fill="#407BFF"/>
<path opacity="0.8" d="M388 416.549C384.142 410.394 377.318 406.287 369.518 406.287C361.589 406.287 354.667 410.53 350.848 416.858C349.845 416.577 348.792 416.416 347.7 416.416C341.245 416.416 336.011 421.649 336.011 428.105C336.011 428.11 336.013 428.115 336.013 428.12H329.85C326.64 428.12 324.014 430.747 324.014 433.957C324.014 437.167 326.64 439.793 329.85 439.793H351.116C354.988 445.876 361.773 449.923 369.518 449.923C375.625 449.923 381.138 447.407 385.099 443.364C385.467 443.393 385.837 443.42 386.213 443.42C393.669 443.42 399.714 437.375 399.714 429.919C399.714 423.069 394.61 417.425 388 416.549Z" fill="white"/>
<path d="M244.474 155.281L242.617 153.325C242.118 152.799 241.385 152.564 240.673 152.701L237.896 153.234C236.988 153.408 236.297 154.148 236.184 155.065L234.762 166.703L239.07 168.355C244.314 166.074 244.043 159.145 244.043 159.145L244.797 157.766C245.24 156.956 245.11 155.952 244.474 155.281Z" fill="#FFB573"/>
<path d="M192.499 190.158C192.499 190.158 196.623 190.407 199.042 190.348C201.481 190.315 203.909 190.271 206.295 190.135C208.672 189.983 211.034 189.815 213.201 189.515C214.274 189.365 215.317 189.171 216.139 188.947C216.524 188.837 216.896 188.719 217.067 188.65C217.344 188.522 217.038 188.747 217.193 188.659C217.596 188.316 218.378 187.386 219.062 186.522C219.767 185.625 220.478 184.66 221.181 183.677C222.593 181.707 223.996 179.66 225.395 177.601L233.806 165.122L240.377 168.622C239.412 171.026 238.364 173.342 237.314 175.687C236.228 178.006 235.12 180.318 233.978 182.631C232.818 184.934 231.613 187.223 230.303 189.515C229.64 190.661 228.959 191.808 228.21 192.98C227.43 194.176 226.712 195.294 225.357 196.772C224.627 197.584 223.289 198.569 222.426 198.994C221.476 199.513 220.66 199.836 219.851 200.142C218.27 200.712 216.838 201.072 215.428 201.388C212.62 202.014 209.946 202.386 207.282 202.641C201.947 203.17 196.828 203.368 191.48 203.249L192.499 190.158Z" fill="#407BFF"/>
<path opacity="0.7" d="M240.372 168.627C239.406 171.022 238.363 173.34 237.32 175.683C236.226 178.001 235.118 180.318 233.972 182.636C232.814 184.928 231.616 187.22 230.303 189.512C229.646 190.658 228.964 191.804 228.204 192.975C227.432 194.173 226.711 195.293 225.359 196.774C224.625 197.585 223.286 198.563 222.423 198.988C221.47 199.516 220.659 199.838 219.848 200.147C218.264 200.714 216.835 201.074 215.431 201.383C212.624 202.014 209.946 202.387 207.281 202.645C206.135 202.761 205.002 202.851 203.882 202.941C199.749 203.237 195.68 203.34 191.482 203.25L191.688 200.546L192.5 190.155C192.5 190.155 196.62 190.413 199.041 190.349C201.487 190.31 203.908 190.271 206.302 190.13C208.672 189.988 211.041 189.821 213.204 189.512C214.273 189.37 215.315 189.177 216.14 188.945C216.526 188.842 216.899 188.726 217.067 188.649C217.35 188.52 217.041 188.752 217.195 188.662C217.594 188.314 218.38 187.387 219.062 186.525C219.771 185.623 220.479 184.658 221.174 183.679C222.59 181.709 223.994 179.662 225.397 177.602L233.805 165.125L240.372 168.627Z" fill="white"/>
<path opacity="0.1" d="M203.882 202.941C199.749 203.237 195.68 203.34 191.482 203.25L191.688 200.546L192.693 198.177C192.693 198.177 199.44 198.087 203.882 202.941Z" fill="black"/>
<path d="M123.634 421.137C123.634 421.137 111.978 413.118 112.693 407.731C112.763 407.202 112.453 406.734 111.893 406.649L102.012 405.154C101.551 405.085 101.058 405.295 100.785 405.678L94.9473 413.86L97.5701 414.809L98.9774 413.821L99.6392 415.557C113.873 420.706 120.079 422.78 123.217 422.911C124.084 421.803 123.634 421.137 123.634 421.137Z" fill="black"/>
<path d="M189.281 269.676C189.281 269.676 188.688 271.221 187.645 273.899C186.525 276.796 184.877 281.02 182.894 286.041C181.568 289.389 180.1 293.097 178.516 296.998C171.242 315.076 161.842 337.441 155.623 348.733C143.713 370.339 112.683 411.374 112.683 411.374L100.283 406.842C100.283 406.842 122.61 364.583 133.876 343.171C137.314 336.643 141.267 327.038 145.181 316.557C147.048 311.574 148.902 306.385 150.692 301.247C151.503 298.93 152.301 296.612 153.074 294.333C155.121 288.307 157.04 282.5 158.726 277.324C158.932 276.68 159.138 276.037 159.344 275.419C160.027 273.294 160.671 271.285 161.25 269.431C163.671 261.809 165.177 256.787 165.229 256.594C165.241 256.594 165.241 256.594 165.241 256.594L176.302 262.62L189.281 269.676Z" fill="#263238"/>
<path opacity="0.3" d="M187.647 273.9C186.527 276.797 184.879 281.02 182.896 286.041C181.569 289.389 180.102 293.097 178.518 296.999C168.398 299.033 158.097 300.411 150.693 301.248C151.505 298.93 152.303 296.612 153.075 294.333C155.123 288.308 157.041 282.501 158.728 277.324C158.934 276.681 159.14 276.037 159.346 275.419C160.028 273.294 160.672 271.286 161.251 269.432C168.694 270.449 178.647 271.968 187.647 273.9Z" fill="black"/>
<path d="M149.654 197.015C149.654 197.025 149.663 197.034 149.663 197.043C151.448 203.033 152.495 209.993 153.079 216.856C153.53 222.194 153.701 227.452 153.724 232.167C153.742 236.918 153.599 241.123 153.445 244.343C153.238 248.479 152.993 251.027 152.993 251.027L192.113 253.037C203.852 210.497 192.501 190.157 192.501 190.157C192.501 190.157 187.626 189.665 182.011 189.916C181.287 189.938 180.552 189.995 179.799 190.053C175.014 190.452 167.392 191.965 162.302 193.114C161.253 193.345 160.2 193.618 159.171 193.896C154.059 195.29 149.654 197.015 149.654 197.015Z" fill="#407BFF"/>
<path opacity="0.7" d="M192.113 253.041L152.996 251.032C152.996 251.032 153.241 248.483 153.447 244.337C153.498 243.127 153.55 241.749 153.601 240.255C153.679 237.848 153.73 235.118 153.73 232.169C153.717 230.74 153.691 229.259 153.653 227.74C153.653 227.495 153.64 227.251 153.64 227.006C153.576 224.598 153.46 222.101 153.292 219.564C153.215 218.663 153.151 217.761 153.073 216.86C153.022 216.152 152.958 215.431 152.893 214.723C152.7 212.92 152.494 211.118 152.236 209.341C152.172 208.851 152.095 208.362 152.018 207.886C151.902 207.075 151.773 206.289 151.631 205.491C151.103 202.555 150.46 199.697 149.674 197.031C149.674 197.031 149.661 197.019 149.648 197.019C149.648 197.019 154.065 195.293 159.176 193.89C160.194 193.619 161.249 193.349 162.292 193.117C167.391 191.971 175.014 190.452 179.791 190.053C180.55 190.001 181.284 189.937 182.018 189.924C187.619 189.666 192.499 190.156 192.499 190.156C192.499 190.156 203.855 210.487 192.113 253.041Z" fill="white"/>
<path d="M216.308 354.842C216.308 354.842 205.132 346.166 206.156 340.829C206.256 340.305 205.974 339.821 205.421 339.704L195.643 337.644C195.186 337.547 194.682 337.729 194.387 338.096L188.09 345.928L190.653 347.026L192.116 346.123L192.677 347.893C206.592 353.853 212.668 356.279 215.795 356.592C216.718 355.532 216.308 354.842 216.308 354.842Z" fill="black"/>
<path d="M171.702 286.274C172.289 286.305 172.616 286.307 172.616 286.307L219.515 293.124L192.818 337.413L206.186 342.502C206.186 342.502 254.525 290.382 243.726 278.497C234.845 268.723 191.326 262.777 191.326 262.777L192.754 252.576L152.5 244.651C135.292 282.319 165.941 285.922 171.702 286.274Z" fill="#263238"/>
<path d="M152.024 248.656L151.17 248.491L151.95 245.778L152.71 245.925L152.024 248.656Z" fill="#263238"/>
<path d="M183.687 254.783L166.502 251.457L167.173 248.729L184.287 252.048L183.687 254.783Z" fill="#263238"/>
<path d="M185.613 252.306L192.879 253.714L192.395 256.468L185.039 255.044L185.613 252.306Z" fill="#263238"/>
<path d="M154.038 246.182L165.854 248.474L165.156 251.197L153.379 248.918L154.038 246.182Z" fill="#263238"/>
<g opacity="0.2">
<path d="M152.024 248.656L151.17 248.491L151.95 245.778L152.71 245.925L152.024 248.656Z" fill="white"/>
<path d="M183.687 254.783L166.502 251.457L167.173 248.729L184.287 252.048L183.687 254.783Z" fill="white"/>
<path d="M185.613 252.306L192.879 253.714L192.395 256.468L185.039 255.044L185.613 252.306Z" fill="white"/>
<path d="M154.038 246.182L165.854 248.474L165.156 251.197L153.379 248.918L154.038 246.182Z" fill="white"/>
</g>
<path d="M178.916 251.545L178.529 253.206C178.467 253.47 178.209 253.64 177.943 253.593L173.64 252.829C173.349 252.778 173.162 252.489 173.234 252.203L173.666 250.479C173.731 250.217 173.991 250.051 174.258 250.102L178.516 250.927C178.8 250.984 178.983 251.264 178.916 251.545Z" stroke="white" stroke-width="0.5891" stroke-miterlimit="10"/>
<path d="M175.352 251.681L174.039 251.45" stroke="white" stroke-width="0.5891" stroke-miterlimit="10" stroke-linecap="round" stroke-linejoin="round"/>
<path d="M166.355 175.365L176.574 183.834C175.574 187.98 177.309 191.803 179.322 192.511C179.322 192.511 180.815 196.066 177.942 196.665C172.119 197.879 165.475 192.238 165.475 192.238C168.554 188.927 167.441 180.657 166.355 175.365Z" fill="#EBB376"/>
<path opacity="0.2" d="M170.521 178.82L176.568 183.829C176.329 184.81 176.144 185.804 176.082 186.769C173.813 186.483 170.68 184.054 170.422 181.69C170.291 180.51 170.331 179.374 170.521 178.82Z" fill="black"/>
<path d="M175.374 158.629C177.846 160.171 181.196 164.818 177.041 165.935C172.885 167.052 171.124 155.981 175.374 158.629Z" fill="#263238"/>
<path d="M162.611 174.51C166.935 180.211 169.176 183.773 174.198 184.793C181.751 186.329 187.244 178.636 184.703 171.738C182.416 165.528 175.731 157.248 168.363 158.818C161.101 160.369 158.287 168.809 162.611 174.51Z" fill="#FFB573"/>
<path d="M163.888 168.303L158.695 162.244C158.695 162.244 151.835 167.291 154.95 170.346C152.895 175.179 161.055 181.923 168.189 180.538C169.015 176.179 162.661 168.736 162.661 168.736C163.054 168.617 163.467 168.467 163.888 168.303Z" fill="#263238"/>
<path d="M163.618 180.993C165.111 182.207 167.026 182.609 168.595 182.409C170.955 182.109 171.23 179.757 169.815 177.997C168.541 176.412 165.778 174.658 163.773 175.845C161.799 177.017 161.909 179.605 163.618 180.993Z" fill="#FFB573"/>
<path d="M172.695 170.069C173.017 170.554 173.534 170.773 173.848 170.559C174.164 170.345 174.157 169.778 173.836 169.294C173.514 168.81 172.996 168.591 172.682 168.805C172.366 169.019 172.373 169.584 172.695 170.069Z" fill="#263238"/>
<path d="M178.144 166.365C178.466 166.849 178.984 167.068 179.298 166.854C179.614 166.64 179.607 166.074 179.285 165.59C178.963 165.106 178.446 164.887 178.132 165.1C177.816 165.314 177.821 165.881 178.144 166.365Z" fill="#263238"/>
<path d="M176.572 167.783C176.572 167.783 179.486 169.709 181.573 170.188C181.236 171.517 179.543 172.135 179.543 172.135L176.572 167.783Z" fill="#ED893E"/>
<path d="M175.059 175.418C174.847 175.532 174.633 175.666 174.417 175.824C174.341 175.88 174.323 175.988 174.378 176.064C174.433 176.141 174.541 176.157 174.615 176.103C176.685 174.597 178.684 175.344 178.703 175.352C178.79 175.387 178.89 175.34 178.923 175.253C178.957 175.164 178.914 175.065 178.826 175.03C178.747 174.999 177.023 174.355 175.059 175.418Z" fill="#263238"/>
<path d="M168.971 168.478C169.09 168.484 169.209 168.427 169.279 168.319C170.107 167.03 171.366 166.998 171.379 166.998C171.568 166.996 171.72 166.84 171.72 166.652C171.719 166.464 171.564 166.312 171.376 166.314C171.309 166.314 169.731 166.354 168.703 167.955C168.6 168.115 168.647 168.326 168.805 168.427C168.857 168.458 168.913 168.475 168.971 168.478Z" fill="#263238"/>
<path d="M178.208 161.969C178.227 161.907 178.23 161.839 178.21 161.77C178.159 161.588 177.969 161.481 177.789 161.531C175.971 162.034 175.5 163.536 175.47 163.6C175.415 163.78 175.515 163.973 175.696 164.031C175.875 164.088 176.065 163.99 176.122 163.811C176.139 163.748 176.516 162.597 177.976 162.193C178.091 162.161 178.174 162.073 178.208 161.969Z" fill="#263238"/>
<path d="M162.663 168.734C162.663 168.734 176.258 163.022 177.091 156.502C177.924 149.982 172.18 152.653 172.18 152.653C172.18 152.653 174.839 152.472 174.579 154.408C174.579 154.408 169.987 151.276 165.612 153.968C165.612 153.968 167.657 153.928 168.733 155.445C168.733 155.445 164.578 156.256 159.916 159.712C155.255 163.168 146.882 175.54 162.663 168.734Z" fill="#263238"/>
<path opacity="0.3" d="M191.328 262.777L169.17 260.233C169.17 260.233 177.942 258.792 191.815 259.301L191.328 262.777Z" fill="black"/>
<path opacity="0.1" d="M153.292 219.564C153.215 218.662 153.151 217.761 153.073 216.86C153.022 216.152 152.958 215.431 152.893 214.722C152.7 212.92 152.494 211.117 152.236 209.34C152.172 208.851 152.095 208.362 152.018 207.885C152.61 207.409 153.267 206.971 153.962 206.585C153.962 206.585 155.224 213.087 153.292 219.564Z" fill="black"/>
<path d="M116.369 251.197L112.52 260.233L120.857 262.295C120.857 262.295 124.436 256.357 120.942 251.828L116.369 251.197Z" fill="#EBB376"/>
<path d="M113.118 267.2L119.7 267.249L120.855 262.295L112.518 260.234L113.118 267.2Z" fill="#EBB376"/>
<path d="M153.857 203.268C154.43 208.934 152.496 211.238 152.496 211.238C152.496 211.238 147.009 214.686 144.628 216.453C142.604 217.978 140.62 219.527 138.738 221.079C137.809 221.859 136.911 222.648 136.089 223.43C135.275 224.202 134.513 225.007 134.031 225.63C133.816 225.879 133.6 226.283 133.369 226.644C133.135 227.022 132.89 227.589 132.637 228.047C132.133 229.086 131.634 230.185 131.16 231.338C130.208 233.638 129.308 236.037 128.452 238.47C126.669 243.31 125.008 248.301 123.298 253.208L115.693 251.4C116.467 246.058 117.511 240.851 118.717 235.577C119.353 232.954 120.057 230.327 120.866 227.656C121.267 226.323 121.724 224.965 122.239 223.572C122.547 222.839 122.794 222.178 123.179 221.394C123.585 220.6 123.958 219.822 124.517 218.999C125.547 217.459 126.558 216.298 127.575 215.178C128.592 214.071 129.613 213.049 130.642 212.064C132.689 210.098 134.791 208.307 136.919 206.583C141.181 203.118 145.461 199.954 150.046 196.896C150.046 196.896 153.338 198.139 153.857 203.268Z" fill="#407BFF"/>
<path opacity="0.7" d="M153.857 203.268C154.43 208.934 152.496 211.238 152.496 211.238C152.496 211.238 147.009 214.686 144.628 216.453C142.604 217.978 140.62 219.527 138.738 221.079C137.809 221.859 136.911 222.648 136.089 223.43C135.275 224.202 134.513 225.007 134.031 225.63C133.816 225.879 133.6 226.283 133.369 226.644C133.135 227.022 132.89 227.589 132.637 228.047C132.133 229.086 131.634 230.185 131.16 231.338C130.208 233.638 129.308 236.037 128.452 238.47C126.669 243.31 125.008 248.301 123.298 253.208L115.693 251.4C116.467 246.058 117.511 240.851 118.717 235.577C119.353 232.954 120.057 230.327 120.866 227.656C121.267 226.323 121.724 224.965 122.239 223.572C122.547 222.839 122.794 222.178 123.179 221.394C123.585 220.6 123.958 219.822 124.517 218.999C125.547 217.459 126.558 216.298 127.575 215.178C128.592 214.071 129.613 213.049 130.642 212.064C132.689 210.098 134.791 208.307 136.919 206.583C141.181 203.118 145.461 199.954 150.046 196.896C150.046 196.896 153.338 198.139 153.857 203.268Z" fill="white"/>
<path d="M171.144 195.671L174.008 200.168C174.008 200.168 164.025 212.266 144.921 216.258L143.646 220.146L147.709 221.21C147.709 221.21 168.342 215.87 176.575 200.394L180.828 195.657L175.815 193.974L171.144 195.671Z" fill="#407BFF"/>
<path d="M161.893 192.962L166.545 188.892L175.814 193.975L176.885 188.417L181.779 191.233L183.18 198.421L176.351 195.466L170.239 200.917L161.893 192.962Z" fill="#407BFF"/>
<path opacity="0.6" d="M161.893 192.962L166.545 188.892L175.814 193.975L176.885 188.417L181.779 191.233L183.18 198.421L176.351 195.466L170.239 200.917L161.893 192.962Z" fill="white"/>
<path d="M289.603 112.43C289.603 112.43 280.945 123.17 272.158 122.278C263.372 121.387 258.881 124.952 258.881 124.952L258.023 129.238L262.735 128.602C262.735 128.602 262.735 125.206 271.904 125.588C281.072 125.97 287.948 118.088 290.622 114.515L289.603 112.43Z" fill="#407BFF"/>
<path d="M351.798 94.5798L351.616 93.7352C351.523 93.4004 351.573 93.3566 351.256 92.5223C350.753 91.2167 349.906 90.1415 349.158 89.4681C347.607 88.0827 346.331 87.5934 345.219 87.1544C343.016 86.3741 341.261 86.1282 339.524 85.9157C337.804 85.72 336.174 85.635 334.568 85.5925C331.363 85.4998 328.274 85.6595 325.213 85.8513C319.072 86.2569 313.166 86.9818 307.094 88.0312L309.303 100.716C314.855 99.8318 320.644 99.022 326.246 98.4413C329.056 98.1554 331.856 97.9803 334.544 97.894C335.883 97.8593 337.201 97.8644 338.415 97.9391C339.269 97.9893 340.114 98.0859 340.747 98.1953C340.787 98.6318 340.804 99.1095 340.788 99.6168C340.707 101.806 340.159 104.368 339.411 106.921C337.899 112.05 335.529 117.376 333.074 122.353L339.184 126.428C343.088 121.491 346.3 116.363 348.961 110.463C350.231 107.489 351.356 104.35 351.865 100.666C352.111 98.8198 352.199 96.8073 351.798 94.5798Z" fill="#407BFF"/>
<path opacity="0.7" d="M351.863 100.669C351.451 103.708 350.601 106.386 349.61 108.896C349.404 109.424 349.185 109.952 348.966 110.467C346.3 116.364 343.082 121.489 339.18 126.42L333.077 122.352C335.523 117.369 337.893 112.051 339.412 106.914C339.927 105.15 340.352 103.373 340.584 101.725C340.7 100.991 340.764 100.283 340.79 99.613C340.803 99.1109 340.79 98.6345 340.751 98.1967C340.12 98.0808 339.27 97.9907 338.421 97.9392C337.197 97.8619 335.884 97.8619 334.545 97.8877C334.442 97.8877 334.352 97.9005 334.249 97.9005C331.648 97.9907 328.957 98.1709 326.24 98.4413C320.806 99.0079 315.218 99.7804 309.823 100.643C309.643 100.669 309.476 100.695 309.308 100.72L307.094 88.0248C313.171 86.9819 319.068 86.2608 325.21 85.8488C328.274 85.6557 331.365 85.5012 334.571 85.5913C336.18 85.6299 337.802 85.7201 339.528 85.9132C341.266 86.1321 343.017 86.3767 345.219 87.1493C346.326 87.5871 347.601 88.0763 349.159 89.4669C349.906 90.1365 350.756 91.218 351.258 92.5185C351.567 93.3554 351.528 93.394 351.618 93.7288L351.798 94.5786C352.198 96.8061 352.107 98.8147 351.863 100.669Z" fill="white"/>
<path opacity="0.1" d="M334.25 97.9002C331.649 97.9904 328.958 98.1706 326.241 98.441C320.807 99.0075 315.219 99.7801 309.824 100.643C311.794 95.8015 313.816 90.9087 313.816 90.9087C313.816 90.9087 322.829 91.7714 334.25 97.9002Z" fill="black"/>
<path opacity="0.1" d="M349.613 108.896C349.407 109.424 349.188 109.952 348.969 110.467C346.303 116.364 343.085 121.488 339.183 126.42L333.08 122.351C335.526 117.368 337.896 112.05 339.415 106.913C339.93 105.149 340.355 103.372 340.587 101.724C343.561 103.72 346.6 106.089 349.613 108.896Z" fill="black"/>
<path d="M267.319 97.1303C267.67 97.5758 267.719 98.123 267.428 98.3522C267.137 98.5827 266.616 98.4076 266.264 97.9621C265.913 97.5166 265.864 96.9694 266.155 96.7402C266.446 96.511 266.967 96.6848 267.319 97.1303Z" fill="#263238"/>
<path d="M267.76 98.0908C267.76 98.0908 268.776 101.459 268.64 103.578C270.009 103.692 271.082 102.297 271.082 102.297L267.76 98.0908Z" fill="#DE5753"/>
<path d="M266.995 93.3706C267.047 93.3088 267.078 93.2277 267.074 93.1401C267.066 92.956 266.91 92.8144 266.726 92.8221C264.885 92.9032 264.089 94.2178 264.054 94.2758C263.96 94.4341 264.013 94.6389 264.172 94.7316C264.33 94.8243 264.535 94.7702 264.627 94.6157C264.653 94.5719 265.287 93.5534 266.756 93.4878C266.852 93.4839 266.937 93.4388 266.995 93.3706Z" fill="#263238"/>
<path d="M280.143 90.2417C284.397 93.3074 292.543 98.159 297.166 96.3203C297.166 96.3203 301.321 99.7788 297.329 108.466C292.94 118.019 290.49 110.852 290.49 110.852C291.641 105.067 287.711 103.423 283.66 102.662L280.143 90.2417Z" fill="#E4897B"/>
<path d="M281.42 84.4576C285.404 90.1899 288.026 93.3432 287.481 98.33C286.662 105.833 277.936 108.659 272.32 104.232C267.265 100.247 261.601 91.5419 265.233 85.1388C268.813 78.8309 277.437 78.7241 281.42 84.4576Z" fill="#E4897B"/>
<path d="M287.822 93.9188C287.225 97.1674 276.291 101.612 271.329 94.6077C271.329 94.6077 265.102 94.5574 261.356 90.8042C257.611 87.0509 258.414 82.9796 261.771 80.7649C264.73 78.813 272.378 64.4333 281.285 74.6953C290.955 74.3013 288.568 89.8642 287.822 93.9188Z" fill="#263238"/>
<path d="M269.348 79.2175C269.348 79.2175 263.605 78.9393 260.295 81.5711C256.984 84.203 257.918 92.2761 259.191 93.8006C260.465 95.3238 261.823 95.3237 261.823 95.3237C261.823 95.3237 259.871 94.3117 259.871 92.822C259.871 92.822 260.72 94.8139 264.625 95.3237C264.625 95.3237 263.511 94.434 263.686 93.3087C263.686 93.3087 265.802 96.0474 270.689 93.3087C275.574 90.57 269.348 79.2175 269.348 79.2175Z" fill="#263238"/>
<path d="M274.233 93.401C275.289 94.8946 275.701 96.7642 275.606 98.2784C275.464 100.555 273.559 100.734 272.06 99.2981C270.712 98.0054 269.16 95.2629 270.041 93.3637C270.911 91.4928 273.027 91.6937 274.233 93.401Z" fill="#E4897B"/>
<path d="M285.663 112.43C285.663 112.43 284.593 99.467 293.057 92.187L303.136 93.1102C303.136 93.1102 297.328 107.285 285.663 112.43Z" fill="#407BFF"/>
<path opacity="0.6" d="M285.663 112.43C285.663 112.43 284.593 99.467 293.057 92.187L303.136 93.1102C303.136 93.1102 297.328 107.285 285.663 112.43Z" fill="white"/>
<path d="M314.725 141.588C314.725 141.588 299.481 126.621 282.631 116.144C282.631 116.144 293.857 89.7923 308.068 87.4399C308.068 87.4399 344.808 98.535 355.468 128.602L314.725 141.588Z" fill="#407BFF"/>
<path d="M316.663 232.884L310.085 235.674L302.967 220.722L309.544 217.93L316.663 232.884Z" fill="#E4897B"/>
<path d="M355.466 128.603L351.585 169.761C349.453 171.34 346.055 172.567 341.954 173.524C333.923 175.393 323.208 176.242 313.954 176.737C303.561 177.304 295.025 177.412 294.254 178.009C292.446 179.415 315.331 226.68 315.331 226.68L304.408 228.041C304.408 228.041 275.703 188.672 271.987 174.994C270.618 169.945 269.239 163.622 278.51 157.713C286.67 152.512 317.06 148.608 317.06 148.608L314.721 141.586L355.466 128.603Z" fill="#263238"/>
<path opacity="0.2" d="M341.955 173.523C333.924 175.393 323.209 176.241 313.955 176.737C312.702 161.549 320.345 146.974 320.345 146.974L331.214 144.186L341.955 173.523Z" fill="black"/>
<path d="M412.442 226.823L413.606 233.872L397.395 237.269L396.232 230.219L412.442 226.823Z" fill="#E4897B"/>
<path d="M413.951 234.131C413.903 234.079 413.828 234.062 413.763 234.089C413.697 234.117 413.656 234.181 413.658 234.252C413.662 234.374 413.76 237.247 414.659 238.089C414.843 238.261 415.052 238.345 415.277 238.337C415.68 238.324 415.846 238.126 415.914 237.961C416.109 237.493 415.752 236.672 415.272 235.891C414.822 235.165 414.267 234.471 413.951 234.131ZM414.025 234.729C414.882 235.762 415.82 237.306 415.601 237.831C415.573 237.899 415.507 237.991 415.265 238C415.131 238.004 415.008 237.952 414.889 237.841C414.816 237.772 414.748 237.684 414.685 237.583C414.247 236.872 414.083 235.472 414.025 234.729Z" fill="#407BFF"/>
<path d="M413.891 234.09C413.836 234.067 413.771 234.074 413.724 234.11C413.658 234.161 412.121 235.334 411.962 236.499C411.915 236.854 411.996 237.174 412.207 237.45C412.492 237.821 412.762 237.812 412.941 237.739C413.697 237.426 414.118 235.161 413.994 234.224C413.99 234.199 413.983 234.177 413.971 234.157C413.952 234.128 413.925 234.104 413.891 234.09ZM412.297 236.545C412.401 235.78 413.249 234.959 413.679 234.587C413.69 235.613 413.264 237.238 412.811 237.426C412.774 237.441 412.662 237.488 412.476 237.244C412.456 237.217 412.436 237.189 412.418 237.161C412.306 236.978 412.266 236.776 412.297 236.545Z" fill="#407BFF"/>
<path d="M412.724 234.035L408.632 227.391C408.479 227.142 408.518 226.82 408.728 226.617L413.396 222.085C413.88 221.615 414.673 221.714 415.017 222.293C416.452 224.715 418.444 228.265 420.3 231.277C422.469 234.8 424.535 237.722 427.079 241.853C428.617 244.351 426.519 246.599 425.647 245.694C421.675 241.576 419.169 237.758 414.101 235.208C413.55 234.931 413.048 234.56 412.724 234.035Z" fill="#263238"/>
<path d="M355.466 128.603C355.466 128.603 368.554 162.25 346.472 175.306C346.472 175.306 346.192 214.184 351.773 218.741C358.565 224.285 408.31 227.106 408.31 227.106L407.877 239.459C407.877 239.459 354.623 243.818 338.5 238.034C319.62 231.26 315.416 142.172 315.416 142.172L355.466 128.603Z" fill="#263238"/>
<path opacity="0.2" d="M340.336 149.258L348.285 146.853C348.285 146.853 349.379 153.692 349.363 157.353L345.677 160.519L342.189 159.408C342.189 159.408 341.236 152.097 340.336 149.258Z" fill="black"/>
<path d="M317.344 141.615L318.373 144.885L315.434 145.797L314.398 142.555L317.344 141.615Z" fill="#263238"/>
<path d="M330.911 137.263L332.019 140.656L319.845 144.43L318.77 141.154L330.911 137.263Z" fill="#263238"/>
<path d="M346.062 132.408L347.167 135.958L333.559 140.173L332.479 136.761L346.062 132.408Z" fill="#263238"/>
<path d="M357.135 132.862L348.754 135.46L348.745 135.462L347.621 131.905L355.94 129.239L357.135 132.862Z" fill="#263238"/>
<g opacity="0.2">
<path d="M317.344 141.615L318.373 144.885L315.434 145.797L314.398 142.555L317.344 141.615Z" fill="white"/>
<path d="M330.909 137.263L332.017 140.655L319.843 144.429L318.768 141.154L330.909 137.263Z" fill="white"/>
<path d="M346.06 132.407L347.165 135.957L333.557 140.173L332.477 136.761L346.06 132.407Z" fill="white"/>
<path d="M357.133 132.862L348.752 135.46L348.743 135.462L347.619 131.905L355.938 129.239L357.133 132.862Z" fill="white"/>
</g>
<path d="M308.065 233.586C308.134 233.571 308.186 233.514 308.195 233.445C308.206 233.375 308.171 233.307 308.109 233.272C308.002 233.214 305.472 231.851 304.29 232.202C304.048 232.274 303.87 232.412 303.763 232.611C303.572 232.965 303.659 233.209 303.767 233.351C304.074 233.755 304.962 233.861 305.879 233.839C306.734 233.82 307.612 233.688 308.065 233.586ZM307.51 233.35C306.187 233.568 304.381 233.601 304.038 233.147C303.993 233.088 303.948 232.985 304.062 232.773C304.127 232.654 304.232 232.574 304.388 232.528C304.486 232.5 304.595 232.484 304.714 232.482C305.548 232.461 306.839 233.025 307.51 233.35Z" fill="#407BFF"/>
<path d="M308.129 233.557C308.177 233.521 308.203 233.462 308.195 233.402C308.185 233.321 307.946 231.401 307.021 230.677C306.737 230.455 306.422 230.365 306.076 230.409C305.612 230.467 305.483 230.706 305.456 230.897C305.344 231.708 307.089 233.212 307.961 233.579C307.983 233.588 308.007 233.593 308.03 233.592C308.065 233.59 308.1 233.579 308.129 233.557ZM306.812 230.943C307.421 231.418 307.702 232.564 307.807 233.123C306.915 232.616 305.727 231.428 305.794 230.942C305.799 230.902 305.816 230.782 306.119 230.743C306.153 230.74 306.188 230.737 306.221 230.736C306.434 230.732 306.629 230.799 306.812 230.943Z" fill="#407BFF"/>
<path d="M308.766 232.577L316.566 232.393C316.858 232.386 317.116 232.582 317.185 232.867L318.747 239.182C318.909 239.836 318.424 240.472 317.749 240.477C314.935 240.497 310.865 240.427 307.328 240.511C303.192 240.609 299.625 240.919 294.776 241.034C291.845 241.103 290.96 238.157 292.181 237.86C297.74 236.505 302.3 236.266 307.057 233.174C307.576 232.838 308.15 232.591 308.766 232.577Z" fill="#263238"/>
<path opacity="0.7" d="M355.469 128.609L314.73 141.587C314.73 141.587 307.546 134.544 297.593 126.729C295.7 125.248 293.717 123.742 291.657 122.248C288.76 120.136 285.721 118.063 282.631 116.145C282.631 116.145 293.859 89.7882 308.073 87.4448C308.073 87.4448 344.808 98.5309 355.469 128.609Z" fill="white"/>
<path opacity="0.1" d="M297.592 126.728C295.699 125.248 293.716 123.741 291.656 122.248L292.455 119.84C292.455 119.84 295.88 122.724 297.592 126.728Z" fill="black"/>
<path d="M238.727 153.614L235.919 154.284C235.218 154.451 234.687 155.023 234.572 155.733L233.937 159.644C233.803 160.469 234.26 161.276 235.037 161.587L237.089 162.406C237.089 162.406 243.015 166.68 248.025 163.92L245.86 158.189L241.624 154.356C240.84 153.646 239.756 153.369 238.727 153.614Z" fill="#E4897B"/>
<path d="M289.857 117.184C293.457 119.345 293.771 123.8 293.771 123.8C293.771 123.8 290.942 131.475 289.3 135.294C288.185 137.886 287.028 140.487 285.681 143.073C284.289 145.682 282.951 148.239 280.679 151.064L280.236 151.598L279.708 152.166C279.39 152.524 278.919 152.95 278.46 153.346C278.266 153.529 277.909 153.778 277.609 153.988C277.317 154.189 276.91 154.459 276.792 154.505L275.702 155.07C274.285 155.784 272.957 156.342 271.624 156.89C268.979 157.975 266.36 158.917 263.733 159.82C258.464 161.582 253.222 163.193 247.842 164.549L245.287 157.663C250.114 155.19 255.034 152.847 259.837 150.433C262.242 149.241 264.637 148.041 266.936 146.831C268.069 146.219 269.199 145.593 270.173 145.001L270.866 144.563C271.053 144.456 270.91 144.507 270.897 144.514C270.869 144.518 270.808 144.593 270.851 144.53C270.891 144.46 270.933 144.438 271.05 144.27L271.205 144.076L271.39 143.805C272.432 142.291 273.613 139.974 274.631 137.703C275.652 135.379 276.673 132.981 277.613 130.523C279.483 125.628 281.279 120.523 282.953 115.577C282.95 115.579 286.036 114.892 289.857 117.184Z" fill="#407BFF"/>
<path opacity="0.7" d="M289.857 117.184C293.457 119.345 293.771 123.8 293.771 123.8C293.771 123.8 290.942 131.475 289.3 135.294C288.185 137.886 287.028 140.487 285.681 143.073C284.289 145.682 282.951 148.239 280.679 151.064L280.236 151.598L279.708 152.166C279.39 152.524 278.919 152.95 278.46 153.346C278.266 153.529 277.909 153.778 277.609 153.988C277.317 154.189 276.91 154.459 276.792 154.505L275.702 155.07C274.285 155.784 272.957 156.342 271.624 156.89C268.979 157.975 266.36 158.917 263.733 159.82C258.464 161.582 253.222 163.193 247.842 164.549L245.287 157.663C250.114 155.19 255.034 152.847 259.837 150.433C262.242 149.241 264.637 148.041 266.936 146.831C268.069 146.219 269.199 145.593 270.173 145.001L270.866 144.563C271.053 144.456 270.91 144.507 270.897 144.514C270.869 144.518 270.808 144.593 270.851 144.53C270.891 144.46 270.933 144.438 271.05 144.27L271.205 144.076L271.39 143.805C272.432 142.291 273.613 139.974 274.631 137.703C275.652 135.379 276.673 132.981 277.613 130.523C279.483 125.628 281.279 120.523 282.953 115.577C282.95 115.579 286.036 114.892 289.857 117.184Z" fill="white"/>
<path d="M54.3848 458.847H271.835L386.914 365.887L391.96 372.135H420.305L449.18 239.217L420.824 239.273L420.837 239.217L284.817 239.487L301.056 259.589L54.3848 458.847Z" fill="#407BFF"/>
<path opacity="0.2" d="M54.3848 458.847H243.491L375.723 352.033L391.96 372.135L420.837 239.217L284.817 239.487L301.056 259.589L54.3848 458.847Z" fill="white"/>
<path d="M49.9579 451.175H206.088C206.015 450.514 205.971 449.844 205.971 449.164C205.971 439.139 214.098 431.013 224.122 431.013C224.345 431.013 224.561 431.038 224.783 431.046C227.058 424.942 232.921 420.586 239.818 420.586C248.686 420.586 255.876 427.776 255.876 436.645C255.876 436.657 255.875 436.669 255.875 436.681C263.738 437.048 270.038 443.322 270.448 451.175H271.178C275.616 451.175 279.248 454.806 279.248 459.245C279.248 463.684 275.617 467.315 271.178 467.315H49.9579C45.5196 467.315 41.8887 463.684 41.8887 459.245C41.8887 454.806 45.5196 451.175 49.9579 451.175Z" fill="#407BFF"/>
<path opacity="0.7" d="M49.9579 451.175H206.088C206.015 450.514 205.971 449.844 205.971 449.164C205.971 439.139 214.098 431.013 224.122 431.013C224.345 431.013 224.561 431.038 224.783 431.046C227.058 424.942 232.921 420.586 239.818 420.586C248.686 420.586 255.876 427.776 255.876 436.645C255.876 436.657 255.875 436.669 255.875 436.681C263.738 437.048 270.038 443.322 270.448 451.175H271.178C275.616 451.175 279.248 454.806 279.248 459.245C279.248 463.684 275.617 467.315 271.178 467.315H49.9579C45.5196 467.315 41.8887 463.684 41.8887 459.245C41.8887 454.806 45.5196 451.175 49.9579 451.175Z" fill="white"/>
</g>
<defs>
<clipPath id="clip0_542_565">
<rect width="500" height="500" fill="white"/>
</clipPath>
</defs>
</svg>
