<?xml version="1.0" encoding="UTF-8" standalone="no"?><!DOCTYPE svg PUBLIC "-//W3C//DTD SVG 1.1//EN" "http://www.w3.org/Graphics/SVG/1.1/DTD/svg11.dtd"><svg width="100%" height="100%" viewBox="0 0 1945 1945" version="1.1" xmlns="http://www.w3.org/2000/svg" xmlns:xlink="http://www.w3.org/1999/xlink" xml:space="preserve" xmlns:serif="http://www.serif.com/" style="fill-rule:evenodd;clip-rule:evenodd;stroke-linejoin:round;stroke-miterlimit:2;"><g id="Layer9"><rect x="-92.062" y="1599.05" width="2181.27" height="1.091" style="fill:#e5e5e4;fill-rule:nonzero;"/><rect x="1726.15" y="1669.27" width="144.496" height="1.091" style="fill:#e5e5e4;fill-rule:nonzero;"/><rect x="1314.97" y="1681.1" width="37.923" height="1.091" style="fill:#e5e5e4;fill-rule:nonzero;"/><rect x="1638.06" y="1628.75" width="83.726" height="1.091" style="fill:#e5e5e4;fill-rule:nonzero;"/><rect x="136.792" y="1636.09" width="188.431" height="1.091" style="fill:#e5e5e4;fill-rule:nonzero;"/><rect x="364.067" y="1636.09" width="27.628" height="1.091" style="fill:#e5e5e4;fill-rule:nonzero;"/><rect x="481.484" y="1654.51" width="408.665" height="1.091" style="fill:#e5e5e4;fill-rule:nonzero;"/><path d="M99.518,171.65c-13.131,0 -23.81,10.679 -23.81,23.806l0,1184.13c0,13.131 10.679,23.811 23.81,23.811l842.402,0c13.122,0 23.806,-10.68 23.806,-23.811l0,-1184.13c0,-13.127 -10.684,-23.806 -23.806,-23.806l-842.402,0Zm842.402,1232.83l-842.402,0c-13.733,0 -24.901,-11.168 -24.901,-24.901l0,-1184.13c0,-13.729 11.168,-24.901 24.901,-24.901l842.402,0c13.724,0 24.896,11.172 24.896,24.901l0,1184.13c0,13.733 -11.172,24.901 -24.896,24.901Z" style="fill:#e5e5e4;fill-rule:nonzero;"/><path d="M1043.12,171.65c-13.127,0 -23.807,10.679 -23.807,23.806l0,1184.13c0,13.131 10.68,23.811 23.807,23.811l842.401,0c13.126,0 23.81,-10.68 23.81,-23.811l0,-1184.13c0,-13.127 -10.684,-23.806 -23.81,-23.806l-842.401,0Zm842.401,1232.83l-842.401,0c-13.729,0 -24.897,-11.168 -24.897,-24.901l0,-1184.13c0,-13.729 11.168,-24.901 24.897,-24.901l842.401,0c13.729,0 24.901,11.172 24.901,24.901l0,1184.13c0,13.733 -11.172,24.901 -24.901,24.901Z" style="fill:#e5e5e4;fill-rule:nonzero;"/><rect x="1289.99" y="535.533" width="569.04" height="29.238" style="fill:#d7d9d9;fill-rule:nonzero;"/><rect x="1316.19" y="427.761" width="25.067" height="107.772" style="fill:#e5e5e4;fill-rule:nonzero;"/><rect x="1437.4" y="427.761" width="25.072" height="107.772" style="fill:#e5e5e4;fill-rule:nonzero;"/><path d="M1618.39,531.275l-24.705,4.258l-18.301,-106.206l24.7,-4.258l18.306,106.206Z" style="fill:#e5e5e4;fill-rule:nonzero;"/><rect x="1347.25" y="441.965" width="25.067" height="93.568" style="fill:#e5e5e4;fill-rule:nonzero;"/><rect x="1404.87" y="441.965" width="25.072" height="93.568" style="fill:#e5e5e4;fill-rule:nonzero;"/><rect x="1550.31" y="441.965" width="25.072" height="93.568" style="fill:#e5e5e4;fill-rule:nonzero;"/><path d="M1515.7,530.097l-24.473,5.436l-20.295,-91.343l24.474,-5.436l20.294,91.343Z" style="fill:#e5e5e4;fill-rule:nonzero;"/><rect x="1381.46" y="422.412" width="12.538" height="113.121" style="fill:#e5e5e4;fill-rule:nonzero;"/><rect x="1530.57" y="422.412" width="12.534" height="113.121" style="fill:#e5e5e4;fill-rule:nonzero;"/><rect x="1682.28" y="450.237" width="122.151" height="84.328" style="fill:#e5e5e4;fill-rule:nonzero;"/><rect x="1289.99" y="753.795" width="569.04" height="29.238" style="fill:#d7d9d9;fill-rule:nonzero;"/><rect x="1807.77" y="646.023" width="25.067" height="107.772" style="fill:#e5e5e4;fill-rule:nonzero;"/><rect x="1686.55" y="646.023" width="25.072" height="107.772" style="fill:#e5e5e4;fill-rule:nonzero;"/><path d="M1530.63,749.537l24.705,4.258l18.301,-106.206l-24.701,-4.258l-18.305,106.206Z" style="fill:#e5e5e4;fill-rule:nonzero;"/><rect x="1776.71" y="660.227" width="25.071" height="93.568" style="fill:#e5e5e4;fill-rule:nonzero;"/><rect x="1719.09" y="660.227" width="25.072" height="93.568" style="fill:#e5e5e4;fill-rule:nonzero;"/><rect x="1573.64" y="660.227" width="25.071" height="93.568" style="fill:#e5e5e4;fill-rule:nonzero;"/><path d="M1633.33,748.359l24.474,5.436l20.294,-91.343l-24.474,-5.436l-20.294,91.343Z" style="fill:#e5e5e4;fill-rule:nonzero;"/><rect x="1755.03" y="640.674" width="12.534" height="113.121" style="fill:#e5e5e4;fill-rule:nonzero;"/><rect x="1605.92" y="640.674" width="12.534" height="113.121" style="fill:#e5e5e4;fill-rule:nonzero;"/><rect x="1344.59" y="668.499" width="122.151" height="84.332" style="fill:#e5e5e4;fill-rule:nonzero;"/><path d="M139.152,1091.25l0,510.417l26.175,0l0,-458.066l462.429,0l0,458.066l30.538,0l0,-510.417l-519.142,0Z" style="fill:#d7d9d9;fill-rule:nonzero;"/><path d="M427.079,1091.25l0,510.417l26.176,0l0,-458.066l462.428,0l0,458.066l30.538,0l0,-510.417l-519.142,0Z" style="fill:#f0f0f0;fill-rule:nonzero;"/><path d="M592.328,901.065c-5.833,-9.61 -15.448,-1.252 -15.448,-1.252c1.374,-18.418 -15.57,-31.017 -15.57,-31.017c0,0 19.693,0 22.437,-18.785c2.748,-18.794 -6.867,-10.052 -15.884,-10.178c-9.018,-0.131 -18.449,26.219 -6.553,41.034c11.892,14.819 8.703,40.113 -18.759,64.434c-6.701,5.938 -11.255,13.838 -14.335,22.385c2.072,-22.345 3.241,-53.834 -3.333,-74.857c-11.172,-35.707 10.112,-45.318 16.294,-63.17c6.177,-17.851 -16.294,-32.958 -16.294,-32.958c0,0 21.102,-9.611 10.802,-20.596c-10.3,-10.985 -31.585,-9.493 -31.585,4.864c0,14.362 14.418,19.854 14.418,19.854c0,0 16.477,17.162 16.477,26.092c0,8.926 -16.477,28.147 -16.477,28.147c0,0 7.552,-16.451 -7.551,-17.149c-15.104,-0.702 -19.911,19.209 -13.734,28.139c6.182,8.925 16.478,1.37 16.478,1.37c0,0 1.199,19.225 4.72,30.899c1.548,5.135 0.82,25.273 -0.48,46.226c-3.041,-7.565 -7.347,-14.497 -13.376,-19.841c-27.466,-24.326 -30.651,-49.62 -18.758,-64.435c11.892,-14.819 2.469,-41.165 -6.553,-41.038c-9.017,0.127 -18.632,-8.612 -15.884,10.178c2.748,18.789 22.437,18.789 22.437,18.789c0,0 -16.945,12.599 -15.57,31.013c0,0 -9.615,-8.358 -15.448,1.257c-10.422,17.162 13.729,27.807 17.79,19.361c0,0 51.212,36.252 38.853,88.433l2.871,4.24c-0.367,4.21 -0.602,6.749 -0.602,6.749l4.004,-1.728l4.559,6.732c-0.235,13.039 1.165,22.681 1.165,22.681l12.246,-18.074c-12.359,-52.181 38.852,-88.438 38.852,-88.438c4.058,8.446 28.213,-2.198 17.791,-19.361Z" style="fill:#d7d9d9;fill-rule:nonzero;"/><path d="M561.31,1091.25l-16.516,-94.619l4.667,-27.532l-52.04,0l4.663,27.532l-16.512,94.619l75.738,0Z" style="fill:#e5e5e4;fill-rule:nonzero;"/><path d="M1844.42,1746.68c0,27.284 -378.694,49.397 -845.848,49.397c-467.149,0 -845.847,-22.113 -845.847,-49.397c0,-27.283 378.698,-49.401 845.847,-49.401c467.154,0 845.848,22.118 845.848,49.401Z" style="fill:#f0f0f0;fill-rule:nonzero;"/><path d="M1125.06,574.416l-134.375,-72.579l94.78,-175.479l134.375,72.58l-94.78,175.478Z" style="fill:#3073ba;fill-rule:nonzero;"/><path d="M1125.06,574.416l-105.744,-57.114l-1.09,-0.589l-27.541,-14.876l94.78,-175.479l134.375,72.58l-94.78,175.478Z" style="fill:#9ec1e6;fill-rule:nonzero;"/><path d="M1181.21,422.491l-94.261,-50.915l5.126,-9.484l94.261,50.915l-5.126,9.484Z" style="fill:#3073ba;fill-rule:nonzero;"/><path d="M1172.24,439.091l-94.261,-50.916l5.121,-9.484l94.261,50.911l-5.121,9.489Z" style="fill:#3073ba;fill-rule:nonzero;"/><path d="M1163.28,455.69l-94.261,-50.915l5.121,-9.484l94.261,50.915l-5.121,9.484Z" style="fill:#3073ba;fill-rule:nonzero;"/><path d="M1154.31,472.289l-94.262,-50.915l5.122,-9.484l94.261,50.911l-5.121,9.488Z" style="fill:#3073ba;fill-rule:nonzero;"/><path d="M1145.35,488.889l-94.261,-50.915l5.121,-9.485l94.261,50.911l-5.121,9.489Z" style="fill:#3073ba;fill-rule:nonzero;"/><path d="M1136.38,505.484l-94.261,-50.911l5.126,-9.484l94.261,50.915l-5.126,9.48Z" style="fill:#3073ba;fill-rule:nonzero;"/><path d="M1127.41,522.088l-94.261,-50.916l5.122,-9.484l94.261,50.911l-5.122,9.489Z" style="fill:#3073ba;fill-rule:nonzero;"/><path d="M1085.23,520.74l-61.041,-32.968l5.117,-9.484l61.05,32.968l-5.126,9.484Z" style="fill:#3073ba;fill-rule:nonzero;"/><path d="M862.844,400.168c-53,-5.436 -91.692,-52.974 -86.256,-105.97c5.431,-53.001 52.974,-91.692 105.97,-86.256c52.997,5.435 91.688,52.969 86.256,105.97c-5.435,52.996 -52.974,91.692 -105.97,86.256Z" style="fill:#3073ba;fill-rule:nonzero;"/><path d="M872.808,392.215c-3.01,0 -6.042,-0.153 -9.104,-0.467c-48.433,-4.964 -83.665,-48.254 -78.701,-96.687c4.655,-45.374 42.95,-79.167 87.591,-79.167c3.011,0 6.043,0.153 9.101,0.467c48.433,4.965 83.669,48.254 78.7,96.687c-4.655,45.375 -42.949,79.167 -87.587,79.167Zm-41.086,-51.229c-0.026,0.183 -0.048,0.366 -0.07,0.55c-0.886,8.663 8.926,16.769 21.712,18.078c1.178,0.122 2.343,0.179 3.482,0.179c11.185,0 20.015,-5.676 20.822,-13.542c0.131,-1.3 -0.894,-2.678 -0.772,-3.887l0.244,-2.386c4.018,-1.352 8.01,-3.036 11.932,-5.069c34.097,-17.682 49.868,-54.916 35.219,-83.163c-9.489,-18.292 -29.4,-28.326 -51.522,-28.326c-12.036,0 -24.727,2.971 -36.741,9.2c-34.102,17.686 -49.868,54.916 -35.223,83.163c6.404,12.342 17.55,20.927 30.917,25.203Z" style="fill:#6698d0;fill-rule:nonzero;"/><path d="M902.591,275.574c-10.164,-7.238 -24.351,-31.847 -24.338,-31.96l-9.144,89.175c0.205,-2.02 -7.748,-4.062 -13.031,-4.603c-12.787,-1.309 -23.536,4.685 -24.426,13.35c-0.886,8.663 8.926,16.769 21.712,18.078c12.787,1.313 23.414,-4.694 24.304,-13.363c0.131,-1.3 -0.894,-2.678 -0.772,-3.887l7.045,-68.705c0,0 7.081,8.878 18.925,14.348c9.637,4.45 13.271,17.791 13.271,17.791c0,0 2.164,-19.043 -13.546,-30.224Z" style="fill:#fff;fill-rule:nonzero;"/><path d="M831.722,340.986c-13.367,-4.276 -24.513,-12.861 -30.917,-25.203c-14.645,-28.247 1.121,-65.477 35.223,-83.163c12.014,-6.229 24.705,-9.2 36.741,-9.2c22.122,0 42.033,10.034 51.522,28.326c14.649,28.247 -1.122,65.481 -35.219,83.163c-3.922,2.033 -7.914,3.717 -11.932,5.069l6.801,-66.319c0,0 7.081,8.878 18.925,14.348c9.637,4.45 13.271,17.791 13.271,17.791c0,0 2.164,-19.043 -13.546,-30.224c-10.164,-7.238 -24.351,-31.847 -24.338,-31.96l-9.144,89.175c0.205,-2.02 -7.748,-4.062 -13.031,-4.603c-1.182,-0.118 -2.347,-0.179 -3.49,-0.179c-10.941,0 -19.71,5.401 -20.866,12.979Z" style="fill:#a9c8e9;fill-rule:nonzero;"/><path d="M852.326,344.114c-7.194,0 -14.156,-1.065 -20.604,-3.128c1.156,-7.578 9.925,-12.979 20.866,-12.979c1.143,0 2.308,0.061 3.49,0.179c5.283,0.541 13.236,2.583 13.031,4.603l9.144,-89.175c-0.013,0.113 14.174,24.722 24.338,31.96c15.71,11.181 13.546,30.224 13.546,30.224c0,0 -3.634,-13.341 -13.271,-17.791c-11.844,-5.47 -18.925,-14.348 -18.925,-14.348l-6.801,66.319c-8.293,2.783 -16.704,4.136 -24.814,4.136Z" style="fill:#fff;fill-rule:nonzero;"/><path d="M696.169,334.119l-207.626,16.87l-12.638,-155.446l207.63,-16.874l12.634,155.45Z" style="fill:#3073ba;fill-rule:nonzero;"/><path d="M674.3,189.545l10.954,134.793l-186.974,15.191l-10.954,-134.794l186.974,-15.19Z" style="fill:#3073ba;fill-rule:nonzero;"/><path d="M685.254,324.338l-1.492,-18.34l-64.657,-42.26l-28.505,24.575l-61.813,-51.212l-35.833,36.902l-5.628,-69.268l186.974,-15.19l10.954,134.793Zm-69.355,-95.591c0,0.414 0.017,0.833 0.048,1.256c0.641,7.896 7.25,13.882 15.037,13.882c0.41,0 0.825,-0.018 1.239,-0.053c7.892,-0.641 13.873,-7.237 13.882,-15.016c0,-0.419 -0.013,-0.837 -0.048,-1.26c-0.646,-7.897 -7.251,-13.882 -15.038,-13.882c-0.41,0 -0.824,0.017 -1.243,0.052c-7.892,0.642 -13.869,7.242 -13.877,15.021Z" style="fill:#8ab3df;fill-rule:nonzero;"/><path d="M683.762,305.998l1.492,18.34l-186.974,15.191l-5.326,-65.526l35.833,-36.902l61.813,51.212l28.505,-24.575l64.657,42.26Z" style="fill:#3073ba;fill-rule:nonzero;"/><path d="M498.28,339.529l-5.326,-65.526l35.833,-36.902l61.813,51.212l28.505,-24.575l64.657,42.26l1.492,18.34l-186.974,15.191Z" style="fill:#6698d0;fill-rule:nonzero;"/><path d="M646.057,227.556c0.676,8.315 -5.519,15.604 -13.834,16.276c-8.31,0.676 -15.6,-5.514 -16.276,-13.829c-0.677,-8.311 5.518,-15.601 13.829,-16.277c8.315,-0.676 15.605,5.519 16.281,13.83Z" style="fill:#3073ba;fill-rule:nonzero;"/><path d="M630.984,243.885c-7.787,0 -14.396,-5.986 -15.037,-13.882c-0.031,-0.423 -0.048,-0.842 -0.048,-1.256c0.008,-7.779 5.985,-14.379 13.877,-15.021c0.419,-0.035 0.833,-0.052 1.243,-0.052c7.787,0 14.392,5.985 15.038,13.882c0.035,0.423 0.048,0.841 0.048,1.26c-0.009,7.779 -5.99,14.375 -13.882,15.016c-0.414,0.035 -0.829,0.053 -1.239,0.053Z" style="fill:#6698d0;fill-rule:nonzero;"/><path d="M284.804,362.148l-8.005,-4.921c-2.932,-1.801 -6.54,-2.111 -9.611,-0.828l-35.659,14.915c-3.072,1.287 -5.205,3.996 -5.68,7.225l-1.305,8.816c-0.475,3.224 -2.609,5.938 -5.68,7.225l-21.28,8.899c-5.074,2.12 -7.211,7.888 -4.777,12.883l56.7,116.209c2.438,4.995 8.528,7.32 13.602,5.2l168.66,-70.547c5.074,-2.12 7.211,-7.887 4.777,-12.878l-56.704,-116.213c-2.434,-4.995 -8.525,-7.321 -13.598,-5.196l-71.829,30.04c-3.072,1.287 -6.679,0.977 -9.611,-0.829Z" style="fill:#3073ba;fill-rule:nonzero;"/><path d="M387.851,337.234l-154.521,64.627c-6.443,2.696 -9.964,10.256 -7.865,16.887l33.844,107.013c2.094,6.631 9.018,9.824 15.461,7.128l154.521,-64.626c6.439,-2.692 9.964,-10.252 7.866,-16.883l-33.845,-107.018c-2.098,-6.631 -9.021,-9.824 -15.461,-7.128Z" style="fill:#3073ba;fill-rule:nonzero;"/><path d="M270.102,533.845c-4.829,0 -9.2,-3.05 -10.793,-8.084l-33.844,-107.013c-0.41,-1.296 -0.607,-2.626 -0.607,-3.948c-0.004,-5.449 3.29,-10.771 8.472,-12.939l154.521,-64.627c1.553,-0.65 3.133,-0.955 4.664,-0.955c4.834,0 9.205,3.049 10.797,8.083l33.845,107.018c0.41,1.291 0.606,2.622 0.606,3.948c0.005,5.449 -3.289,10.766 -8.472,12.935l-154.521,64.626c-1.553,0.65 -3.132,0.956 -4.668,0.956Z" style="fill:#8ab3df;fill-rule:nonzero;"/><path d="M948.293,594.074c1.898,-8.839 2.919,-18.004 2.919,-27.41c0,-71.851 -58.249,-130.099 -130.1,-130.099c-8.219,0 -16.25,0.78 -24.042,2.238c-1.867,-0.35 -3.743,-0.323 -5.636,-0.293c-1.483,0.022 -2.975,0.039 -4.476,-0.118c-24.177,-52.983 -77.531,-88.764 -139.571,-88.764l-47.988,0c-84.737,0 -153.43,67.602 -153.43,152.34c0,1.134 0.057,1.705 0.083,2.835c-60.421,11.085 -106.223,62.734 -106.223,126.361c0,71.681 58.109,128.538 129.785,128.538l471.154,0c46.378,0 83.979,-36.624 83.979,-83.006c0,-43.835 -33.605,-78.809 -76.454,-82.622Z" style="fill:#3073ba;fill-rule:nonzero;"/><path d="M517.602,759.702l-47.988,0c-71.676,0 -129.785,-56.857 -129.785,-128.538c0,-63.627 45.802,-115.276 106.223,-126.361c-0.026,-1.13 -0.083,-1.701 -0.083,-2.835c0,-84.738 68.693,-152.34 153.43,-152.34l47.988,0l-2.36,0l2.36,0c-84.738,0 -153.43,67.602 -153.43,152.34c0,1.134 0.057,1.705 0.083,2.835c-60.421,11.085 -106.223,62.734 -106.223,126.361c0,71.681 58.108,128.538 129.785,128.538Z" style="fill:#8ab3df;fill-rule:nonzero;"/><path d="M940.768,759.702l-230.08,0c-0.031,-1.453 -0.044,-2.901 -0.044,-4.363l0,-43.625l-43.625,0l0,43.625c0,1.457 0.013,2.914 0.035,4.363l-149.452,0c-71.677,0 -129.785,-56.857 -129.785,-128.538c0,-63.627 45.802,-115.276 106.223,-126.361c-0.026,-1.13 -0.083,-1.701 -0.083,-2.835c0,-84.738 68.692,-152.34 153.43,-152.34c62.04,0 115.394,35.781 139.571,88.764c0.986,0.105 1.963,0.131 2.945,0.131c0.51,0 1.02,-0.008 1.531,-0.013c0.51,-0.008 1.021,-0.017 1.531,-0.017c1.374,0 2.744,0.056 4.105,0.31c7.792,-1.458 15.823,-2.238 24.042,-2.238c71.851,0 130.1,58.248 130.1,130.099c0,9.406 -1.021,18.571 -2.919,27.41c42.849,3.813 76.454,38.787 76.454,82.622c0,10.487 -1.92,20.473 -5.432,29.652c-0.349,0.907 -0.711,1.81 -1.09,2.705c-9.393,22.148 -28.174,39.228 -51.409,46.631c-0.362,0.113 -0.728,0.227 -1.09,0.34c-7.888,2.395 -16.268,3.678 -24.958,3.678Z" style="fill:#b4cfec;fill-rule:nonzero;"/><path d="M649.739,349.628l-2.352,0l2.352,0Z" style="fill:#fff;fill-rule:nonzero;"/><g><path d="M651.924,550.973l-0.504,-0.108l-0.454,-0.295l-0.269,-0.43l-0.107,-0.51l0.107,-0.51l0.269,-0.43l0.454,-0.296c0.32,-0.134 0.693,-0.134 1.013,0l0.426,0.296l0.291,0.43l0.107,0.51c0,0.349 -0.158,0.698 -0.398,0.94l-0.426,0.295l-0.509,0.108Z" style="fill:#d7d9d9;fill-rule:nonzero;"/><path d="M651.924,635.742l-0.504,-0.107l-0.454,-0.296l-0.269,-0.43l-0.107,-0.51c0,-0.376 0.136,-0.698 0.376,-0.967l0.454,-0.268c0.32,-0.135 0.693,-0.135 1.013,0l0.426,0.268c0.24,0.269 0.398,0.618 0.398,0.967l-0.107,0.51l-0.291,0.43l-0.426,0.296l-0.509,0.107Z" style="fill:#d7d9d9;fill-rule:nonzero;"/><path d="M666.725,634.399c0,-0.752 0.587,-1.343 1.334,-1.343c0.72,0 1.333,0.591 1.333,1.343c0,0.725 -0.613,1.343 -1.333,1.343c-0.747,0 -1.334,-0.618 -1.334,-1.343Zm16.133,0c0,-0.752 0.587,-1.343 1.333,-1.343c0.718,0 1.333,0.591 1.333,1.343c0,0.725 -0.615,1.343 -1.333,1.343c-0.746,0 -1.333,-0.618 -1.333,-1.343Zm16.106,0c0,-0.752 0.61,-1.343 1.333,-1.343c0.747,0 1.333,0.591 1.333,1.343c0,0.725 -0.586,1.343 -1.333,1.343c-0.723,0 -1.333,-0.618 -1.333,-1.343Zm16.132,0c0,-0.752 0.614,-1.343 1.334,-1.343c0.746,0 1.333,0.591 1.333,1.343c0,0.725 -0.587,1.343 -1.333,1.343c-0.72,0 -1.334,-0.618 -1.334,-1.343Zm16.13,0c0,-0.752 0.587,-1.343 1.333,-1.343c0.747,0 1.334,0.591 1.334,1.343c0,0.725 -0.587,1.343 -1.334,1.343c-0.746,0 -1.333,-0.618 -1.333,-1.343Zm16.133,0c0,-0.752 0.616,-1.343 1.333,-1.343c0.749,0 1.333,0.591 1.333,1.343c0,0.725 -0.584,1.343 -1.333,1.343c-0.717,0 -1.333,-0.618 -1.333,-1.343Zm16.135,0c0,-0.752 0.586,-1.343 1.333,-1.343c0.72,0 1.333,0.591 1.333,1.343c0,0.725 -0.613,1.343 -1.333,1.343c-0.747,0 -1.333,-0.618 -1.333,-1.343Zm16.132,0c0,-0.752 0.587,-1.343 1.334,-1.343c0.717,0 1.333,0.591 1.333,1.343c0,0.725 -0.616,1.343 -1.333,1.343c-0.747,0 -1.334,-0.618 -1.334,-1.343Zm16.133,0c0,-0.752 0.584,-1.343 1.333,-1.343c0.717,0 1.333,0.591 1.333,1.343c0,0.725 -0.616,1.343 -1.333,1.343c-0.749,0 -1.333,-0.618 -1.333,-1.343Zm16.132,0c0,-0.752 0.584,-1.343 1.307,-1.343c0.747,0 1.333,0.591 1.333,1.343c0,0.725 -0.586,1.343 -1.333,1.343c-0.723,0 -1.307,-0.618 -1.307,-1.343Zm16.106,0c0,-0.752 0.613,-1.343 1.333,-1.343c0.747,0 1.334,0.591 1.334,1.343c0,0.725 -0.587,1.343 -1.334,1.343c-0.72,0 -1.333,-0.618 -1.333,-1.343Zm16.13,0c0,-0.752 0.616,-1.343 1.333,-1.343c0.75,0 1.363,0.591 1.363,1.343c0,0.725 -0.613,1.343 -1.363,1.343c-0.717,0 -1.333,-0.618 -1.333,-1.343Zm16.135,0c0,-0.752 0.613,-1.343 1.333,-1.343c0.744,0 1.334,0.591 1.334,1.343c0,0.725 -0.59,1.343 -1.334,1.343c-0.72,0 -1.333,-0.618 -1.333,-1.343Z" style="fill:#d7d9d9;fill-rule:nonzero;"/><path d="M877.728,635.742c-0.347,0 -0.693,-0.161 -0.936,-0.403l-0.291,-0.43l-0.106,-0.51l0.106,-0.51l0.291,-0.457l0.429,-0.268c0.344,-0.162 0.691,-0.162 1.011,0l0.453,0.268l0.27,0.457l0.106,0.51c0,0.349 -0.133,0.698 -0.376,0.94c-0.264,0.242 -0.61,0.403 -0.957,0.403Z" style="fill:#d7d9d9;fill-rule:nonzero;"/><path d="M876.395,566.578c0,-0.725 0.61,-1.343 1.333,-1.343c0.744,0 1.333,0.618 1.333,1.343c0,0.752 -0.589,1.343 -1.333,1.343c-0.723,0 -1.333,-0.591 -1.333,-1.343Zm0,16.949c0,-0.725 0.61,-1.343 1.333,-1.343c0.744,0 1.333,0.618 1.333,1.343c0,0.752 -0.589,1.343 -1.333,1.343c-0.723,0 -1.333,-0.591 -1.333,-1.343Zm0,16.975c0,-0.752 0.61,-1.343 1.333,-1.343c0.744,0 1.333,0.591 1.333,1.343c0,0.725 -0.589,1.316 -1.333,1.316c-0.723,0 -1.333,-0.591 -1.333,-1.316Zm0,16.949c0,-0.752 0.61,-1.343 1.333,-1.343c0.744,0 1.333,0.591 1.333,1.343c0,0.725 -0.589,1.343 -1.333,1.343c-0.723,0 -1.333,-0.618 -1.333,-1.343Z" style="fill:#d7d9d9;fill-rule:nonzero;"/><path d="M877.728,550.973c-0.347,0 -0.693,-0.134 -0.936,-0.376l-0.291,-0.457l-0.106,-0.51l0.106,-0.51l0.291,-0.43l0.429,-0.296c0.344,-0.134 0.691,-0.134 1.011,0l0.453,0.296l0.27,0.43l0.106,0.51c0,0.349 -0.133,0.698 -0.376,0.967c-0.264,0.242 -0.61,0.376 -0.957,0.376Z" style="fill:#d7d9d9;fill-rule:nonzero;"/><path d="M651.924,550.973l-0.504,-0.108l-0.454,-0.295l-0.269,-0.43l-0.107,-0.51l0.107,-0.51l0.269,-0.43l0.454,-0.296c0.32,-0.134 0.693,-0.134 1.013,0l0.426,0.296l0.291,0.43l0.107,0.51c0,0.349 -0.158,0.698 -0.398,0.94l-0.426,0.295l-0.509,0.108Z" style="fill:#d7d9d9;fill-rule:nonzero;"/><path d="M650.59,566.578c0,-0.725 0.59,-1.343 1.334,-1.343c0.722,0 1.333,0.618 1.333,1.343c0,0.752 -0.611,1.343 -1.333,1.343c-0.744,0 -1.334,-0.591 -1.334,-1.343Zm0,16.949c0,-0.725 0.59,-1.343 1.334,-1.343c0.722,0 1.333,0.618 1.333,1.343c0,0.752 -0.611,1.343 -1.333,1.343c-0.744,0 -1.334,-0.591 -1.334,-1.343Zm0,16.975c0,-0.752 0.59,-1.343 1.334,-1.343c0.722,0 1.333,0.591 1.333,1.343c0,0.725 -0.611,1.343 -1.333,1.343c-0.744,0 -1.334,-0.618 -1.334,-1.343Zm0,16.949c0,-0.752 0.59,-1.37 1.334,-1.37c0.722,0 1.333,0.618 1.333,1.37c0,0.725 -0.611,1.343 -1.333,1.343c-0.744,0 -1.334,-0.618 -1.334,-1.343Z" style="fill:#d7d9d9;fill-rule:nonzero;"/><path d="M651.924,635.742l-0.504,-0.107l-0.454,-0.296l-0.269,-0.43l-0.107,-0.51c0,-0.376 0.136,-0.698 0.376,-0.967l0.454,-0.268c0.32,-0.135 0.693,-0.135 1.013,0l0.426,0.268c0.24,0.269 0.398,0.618 0.398,0.967l-0.107,0.51l-0.291,0.43l-0.426,0.296l-0.509,0.107Z" style="fill:#d7d9d9;fill-rule:nonzero;"/><path d="M526.322,524.078l42.467,0c6.546,0 11.85,5.345 11.85,11.939l0,210.9c0,6.594 -5.304,11.939 -11.85,11.939l-42.467,0l0,-234.778Z" style="fill:#d7d9d9;fill-rule:nonzero;"/><path d="M530.548,524.078l-91.422,0c-6.546,0 -11.852,5.345 -11.852,11.939l0,210.9c0,6.594 5.306,11.939 11.852,11.939l91.422,0c6.547,0 11.853,-5.345 11.853,-11.939l0,-210.9c0,-6.594 -5.306,-11.939 -11.853,-11.939Z" style="fill:#fff;fill-rule:nonzero;"/><rect x="427.274" y="710.157" width="115.127" height="2.178" style="fill:#d7d9d9;fill-rule:nonzero;"/><rect x="427.274" y="663.636" width="115.127" height="2.181" style="fill:#d7d9d9;fill-rule:nonzero;"/><rect x="427.274" y="617.118" width="115.127" height="2.181" style="fill:#d7d9d9;fill-rule:nonzero;"/><rect x="427.274" y="570.597" width="115.127" height="2.181" style="fill:#d7d9d9;fill-rule:nonzero;"/><path d="M484.679,564.371l-38.513,0c-2.429,0 -4.397,-1.985 -4.397,-4.432c0,-2.447 1.968,-4.432 4.397,-4.432l38.513,0c2.429,0 4.397,1.985 4.397,4.432c0,2.447 -1.968,4.432 -4.397,4.432Z" style="fill:#76a6d9;fill-rule:nonzero;"/><path d="M484.679,552.858l-38.513,0c-2.429,0 -4.397,-1.984 -4.397,-4.431c0,-2.447 1.968,-4.43 4.397,-4.43l38.513,0c2.429,0 4.397,1.983 4.397,4.43c0,2.447 -1.968,4.431 -4.397,4.431Z" style="fill:#76a6d9;fill-rule:nonzero;"/><path d="M484.679,541.349l-38.513,0c-2.429,0 -4.397,-1.985 -4.397,-4.432c0,-2.447 1.968,-4.432 4.397,-4.432l38.513,0c2.429,0 4.397,1.985 4.397,4.432c0,2.447 -1.968,4.432 -4.397,4.432Z" style="fill:#76a6d9;fill-rule:nonzero;"/><rect x="493.118" y="555.507" width="16.079" height="8.864" style="fill:#e5e5e4;fill-rule:nonzero;"/><rect x="493.118" y="543.997" width="16.079" height="8.861" style="fill:#3073ba;fill-rule:nonzero;"/><rect x="493.118" y="532.485" width="16.079" height="8.864" style="fill:#e5e5e4;fill-rule:nonzero;"/><rect x="511.827" y="555.507" width="16.079" height="8.864" style="fill:#e5e5e4;fill-rule:nonzero;"/><rect x="511.827" y="543.997" width="16.079" height="8.861" style="fill:#e5e5e4;fill-rule:nonzero;"/><rect x="511.827" y="532.485" width="16.079" height="8.864" style="fill:#3073ba;fill-rule:nonzero;"/><path d="M484.679,602.028l-38.513,0c-2.429,0 -4.397,1.982 -4.397,4.429c0,2.447 1.968,4.432 4.397,4.432l38.513,0c2.429,0 4.397,-1.985 4.397,-4.432c0,-2.447 -1.968,-4.429 -4.397,-4.429Z" style="fill:#e5e5e4;fill-rule:nonzero;"/><path d="M484.679,599.377l-38.513,0c-2.429,0 -4.397,-1.982 -4.397,-4.429c0,-2.447 1.968,-4.432 4.397,-4.432l38.513,0c2.429,0 4.397,1.985 4.397,4.432c0,2.447 -1.968,4.429 -4.397,4.429Z" style="fill:#76a6d9;fill-rule:nonzero;"/><path d="M484.679,587.867l-38.513,0c-2.429,0 -4.397,-1.982 -4.397,-4.431c0,-2.447 1.968,-4.43 4.397,-4.43l38.513,0c2.429,0 4.397,1.983 4.397,4.43c0,2.449 -1.968,4.431 -4.397,4.431Z" style="fill:#76a6d9;fill-rule:nonzero;"/><rect x="493.118" y="602.028" width="16.079" height="8.861" style="fill:#e5e5e4;fill-rule:nonzero;"/><rect x="493.118" y="590.516" width="16.079" height="8.861" style="fill:#e5e5e4;fill-rule:nonzero;"/><rect x="493.118" y="579.006" width="16.079" height="8.861" style="fill:#3073ba;fill-rule:nonzero;"/><rect x="511.827" y="602.028" width="16.079" height="8.861" style="fill:#e5e5e4;fill-rule:nonzero;"/><rect x="511.827" y="590.516" width="16.079" height="8.861" style="fill:#e5e5e4;fill-rule:nonzero;"/><rect x="511.827" y="579.006" width="16.079" height="8.861" style="fill:#e5e5e4;fill-rule:nonzero;"/><path d="M484.679,657.41l-38.513,0c-2.429,0 -4.397,-1.985 -4.397,-4.432c0,-2.447 1.968,-4.432 4.397,-4.432l38.513,0c2.429,0 4.397,1.985 4.397,4.432c0,2.447 -1.968,4.432 -4.397,4.432Z" style="fill:#76a6d9;fill-rule:nonzero;"/><path d="M484.679,645.898l-38.513,0c-2.429,0 -4.397,-1.985 -4.397,-4.432c0,-2.447 1.968,-4.432 4.397,-4.432l38.513,0c2.429,0 4.397,1.985 4.397,4.432c0,2.447 -1.968,4.432 -4.397,4.432Z" style="fill:#76a6d9;fill-rule:nonzero;"/><path d="M484.679,634.386l-38.513,0c-2.429,0 -4.397,-1.983 -4.397,-4.429c0,-2.447 1.968,-4.432 4.397,-4.432l38.513,0c2.429,0 4.397,1.985 4.397,4.432c0,2.446 -1.968,4.429 -4.397,4.429Z" style="fill:#76a6d9;fill-rule:nonzero;"/><rect x="493.118" y="648.546" width="16.079" height="8.861" style="fill:#e5e5e4;fill-rule:nonzero;"/><rect x="493.118" y="637.037" width="16.079" height="8.861" style="fill:#3073ba;fill-rule:nonzero;"/><rect x="493.118" y="625.525" width="16.079" height="8.861" style="fill:#e5e5e4;fill-rule:nonzero;"/><rect x="511.827" y="648.546" width="16.079" height="8.861" style="fill:#e5e5e4;fill-rule:nonzero;"/><rect x="511.827" y="637.037" width="16.079" height="8.861" style="fill:#e5e5e4;fill-rule:nonzero;"/><rect x="511.827" y="625.525" width="16.079" height="8.861" style="fill:#3073ba;fill-rule:nonzero;"/><path d="M484.679,703.928l-38.513,0c-2.429,0 -4.397,-1.985 -4.397,-4.432c0,-2.447 1.968,-4.429 4.397,-4.429l38.513,0c2.429,0 4.397,1.982 4.397,4.429c0,2.447 -1.968,4.432 -4.397,4.432Z" style="fill:#76a6d9;fill-rule:nonzero;"/><path d="M484.679,692.416l-38.513,0c-2.429,0 -4.397,-1.982 -4.397,-4.429c0,-2.447 1.968,-4.432 4.397,-4.432l38.513,0c2.429,0 4.397,1.985 4.397,4.432c0,2.447 -1.968,4.429 -4.397,4.429Z" style="fill:#76a6d9;fill-rule:nonzero;"/><path d="M484.679,680.907l-38.513,0c-2.429,0 -4.397,-1.983 -4.397,-4.432c0,-2.447 1.968,-4.429 4.397,-4.429l38.513,0c2.429,0 4.397,1.982 4.397,4.429c0,2.449 -1.968,4.432 -4.397,4.432Z" style="fill:#76a6d9;fill-rule:nonzero;"/><rect x="493.118" y="695.064" width="16.079" height="8.864" style="fill:#e5e5e4;fill-rule:nonzero;"/><rect x="493.118" y="683.555" width="16.079" height="8.861" style="fill:#3073ba;fill-rule:nonzero;"/><rect x="493.118" y="672.046" width="16.079" height="8.861" style="fill:#e5e5e4;fill-rule:nonzero;"/><rect x="511.827" y="695.064" width="16.079" height="8.864" style="fill:#3073ba;fill-rule:nonzero;"/><rect x="511.827" y="683.555" width="16.079" height="8.861" style="fill:#e5e5e4;fill-rule:nonzero;"/><rect x="511.827" y="672.046" width="16.079" height="8.861" style="fill:#3073ba;fill-rule:nonzero;"/><path d="M484.679,750.446l-38.513,0c-2.429,0 -4.397,-1.982 -4.397,-4.429c0,-2.447 1.968,-4.432 4.397,-4.432l38.513,0c2.429,0 4.397,1.985 4.397,4.432c0,2.447 -1.968,4.429 -4.397,4.429Z" style="fill:#76a6d9;fill-rule:nonzero;"/><path d="M484.679,738.937l-38.513,0c-2.429,0 -4.397,-1.985 -4.397,-4.432c0,-2.447 1.968,-4.432 4.397,-4.432l38.513,0c2.429,0 4.397,1.985 4.397,4.432c0,2.447 -1.968,4.432 -4.397,4.432Z" style="fill:#76a6d9;fill-rule:nonzero;"/><path d="M484.679,727.425l-38.513,0c-2.429,0 -4.397,-1.982 -4.397,-4.429c0,-2.447 1.968,-4.432 4.397,-4.432l38.513,0c2.429,0 4.397,1.985 4.397,4.432c0,2.447 -1.968,4.429 -4.397,4.429Z" style="fill:#76a6d9;fill-rule:nonzero;"/><rect x="493.118" y="741.585" width="16.079" height="8.861" style="fill:#3073ba;fill-rule:nonzero;"/><rect x="493.118" y="730.073" width="16.079" height="8.864" style="fill:#e5e5e4;fill-rule:nonzero;"/><rect x="493.118" y="718.564" width="16.079" height="8.861" style="fill:#e5e5e4;fill-rule:nonzero;"/><rect x="511.827" y="741.585" width="16.079" height="8.861" style="fill:#e5e5e4;fill-rule:nonzero;"/><rect x="511.827" y="730.073" width="16.079" height="8.864" style="fill:#e5e5e4;fill-rule:nonzero;"/><rect x="511.827" y="718.564" width="16.079" height="8.861" style="fill:#3073ba;fill-rule:nonzero;"/><path d="M692.212,413.226l62.517,0c9.637,0 17.45,7.867 17.45,17.574l0,310.479c0,9.707 -7.813,17.577 -17.45,17.577l-62.517,0l0,-345.63Z" style="fill:#d7d9d9;fill-rule:nonzero;"/><path d="M698.433,413.226l-134.59,0c-9.634,0 -17.447,7.867 -17.447,17.574l0,310.479c0,9.707 7.813,17.577 17.447,17.577l134.59,0c9.637,0 17.45,-7.87 17.45,-17.577l0,-310.479c0,-9.707 -7.813,-17.574 -17.45,-17.574Z" style="fill:#fff;fill-rule:nonzero;"/><rect x="546.396" y="687.162" width="169.487" height="3.21" style="fill:#d7d9d9;fill-rule:nonzero;"/><rect x="546.396" y="618.678" width="169.487" height="3.207" style="fill:#d7d9d9;fill-rule:nonzero;"/><rect x="546.396" y="550.191" width="169.487" height="3.21" style="fill:#d7d9d9;fill-rule:nonzero;"/><rect x="546.396" y="481.707" width="169.487" height="3.21" style="fill:#d7d9d9;fill-rule:nonzero;"/><path d="M630.906,472.54l-56.696,0c-3.576,0 -6.474,-2.922 -6.474,-6.524c0,-3.602 2.898,-6.524 6.474,-6.524l56.696,0c3.576,0 6.474,2.922 6.474,6.524c0,3.602 -2.898,6.524 -6.474,6.524Z" style="fill:#76a6d9;fill-rule:nonzero;"/><path d="M630.906,455.594l-56.696,0c-3.576,0 -6.474,-2.922 -6.474,-6.524c0,-3.602 2.898,-6.524 6.474,-6.524l56.696,0c3.576,0 6.474,2.922 6.474,6.524c0,3.602 -2.898,6.524 -6.474,6.524Z" style="fill:#76a6d9;fill-rule:nonzero;"/><path d="M630.906,438.648l-56.696,0c-3.576,0 -6.474,-2.919 -6.474,-6.524c0,-3.602 2.898,-6.524 6.474,-6.524l56.696,0c3.576,0 6.474,2.922 6.474,6.524c0,3.605 -2.898,6.524 -6.474,6.524Z" style="fill:#76a6d9;fill-rule:nonzero;"/><rect x="643.332" y="459.492" width="23.671" height="13.048" style="fill:#e5e5e4;fill-rule:nonzero;"/><rect x="643.332" y="442.546" width="23.671" height="13.048" style="fill:#3073ba;fill-rule:nonzero;"/><rect x="643.332" y="425.603" width="23.671" height="13.046" style="fill:#e5e5e4;fill-rule:nonzero;"/><rect x="670.875" y="459.492" width="23.671" height="13.048" style="fill:#e5e5e4;fill-rule:nonzero;"/><rect x="670.875" y="442.546" width="23.671" height="13.048" style="fill:#e5e5e4;fill-rule:nonzero;"/><rect x="670.875" y="425.603" width="23.671" height="13.046" style="fill:#3073ba;fill-rule:nonzero;"/><path d="M630.906,541.024l-56.696,0c-3.576,0 -6.474,-2.92 -6.474,-6.524c0,-3.602 2.898,-6.522 6.474,-6.522l56.696,0c3.576,0 6.474,2.92 6.474,6.522c0,3.604 -2.898,6.524 -6.474,6.524Z" style="fill:#76a6d9;fill-rule:nonzero;"/><path d="M630.906,524.078l-56.696,0c-3.576,0 -6.474,-2.922 -6.474,-6.524c0,-3.602 2.898,-6.521 6.474,-6.521l56.696,0c3.576,0 6.474,2.919 6.474,6.521c0,3.602 -2.898,6.524 -6.474,6.524Z" style="fill:#76a6d9;fill-rule:nonzero;"/><path d="M630.906,507.133l-56.696,0c-3.576,0 -6.474,-2.92 -6.474,-6.525c0,-3.602 2.898,-6.521 6.474,-6.521l56.696,0c3.576,0 6.474,2.919 6.474,6.521c0,3.605 -2.898,6.525 -6.474,6.525Z" style="fill:#76a6d9;fill-rule:nonzero;"/><rect x="643.332" y="527.976" width="23.671" height="13.048" style="fill:#e5e5e4;fill-rule:nonzero;"/><rect x="643.332" y="511.033" width="23.671" height="13.046" style="fill:#e5e5e4;fill-rule:nonzero;"/><rect x="643.332" y="494.087" width="23.671" height="13.046" style="fill:#3073ba;fill-rule:nonzero;"/><rect x="670.875" y="527.976" width="23.671" height="13.048" style="fill:#3073ba;fill-rule:nonzero;"/><rect x="670.875" y="511.033" width="23.671" height="13.046" style="fill:#e5e5e4;fill-rule:nonzero;"/><rect x="670.875" y="494.087" width="23.671" height="13.046" style="fill:#3073ba;fill-rule:nonzero;"/><path d="M630.906,609.508l-56.696,0c-3.576,0 -6.474,-2.919 -6.474,-6.524c0,-3.602 2.898,-6.522 6.474,-6.522l56.696,0c3.576,0 6.474,2.92 6.474,6.522c0,3.605 -2.898,6.524 -6.474,6.524Z" style="fill:#76a6d9;fill-rule:nonzero;"/><path d="M630.906,592.562l-56.696,0c-3.576,0 -6.474,-2.919 -6.474,-6.524c0,-3.602 2.898,-6.521 6.474,-6.521l56.696,0c3.576,0 6.474,2.919 6.474,6.521c0,3.605 -2.898,6.524 -6.474,6.524Z" style="fill:#76a6d9;fill-rule:nonzero;"/><path d="M630.906,575.617l-56.696,0c-3.576,0 -6.474,-2.92 -6.474,-6.525c0,-3.601 2.898,-6.521 6.474,-6.521l56.696,0c3.576,0 6.474,2.92 6.474,6.521c0,3.605 -2.898,6.525 -6.474,6.525Z" style="fill:#76a6d9;fill-rule:nonzero;"/><rect x="643.332" y="596.462" width="23.671" height="13.046" style="fill:#3073ba;fill-rule:nonzero;"/><rect x="643.332" y="579.517" width="23.671" height="13.046" style="fill:#e5e5e4;fill-rule:nonzero;"/><rect x="643.332" y="562.571" width="23.671" height="13.046" style="fill:#e5e5e4;fill-rule:nonzero;"/><rect x="670.875" y="596.462" width="23.671" height="13.046" style="fill:#e5e5e4;fill-rule:nonzero;"/><rect x="670.875" y="579.517" width="23.671" height="13.046" style="fill:#e5e5e4;fill-rule:nonzero;"/><rect x="670.875" y="562.571" width="23.671" height="13.046" style="fill:#3073ba;fill-rule:nonzero;"/><path d="M630.906,677.992l-56.696,0c-3.576,0 -6.474,-2.919 -6.474,-6.524c0,-3.602 2.898,-6.521 6.474,-6.521l56.696,0c3.576,0 6.474,2.919 6.474,6.521c0,3.605 -2.898,6.524 -6.474,6.524Z" style="fill:#76a6d9;fill-rule:nonzero;"/><path d="M630.906,648.001l-56.696,0c-3.576,0 -6.474,2.92 -6.474,6.524c0,3.602 2.898,6.522 6.474,6.522l56.696,0c3.576,0 6.474,-2.92 6.474,-6.522c0,-3.604 -2.898,-6.524 -6.474,-6.524Z" style="fill:#e5e5e4;fill-rule:nonzero;"/><path d="M630.906,644.101l-56.696,0c-3.576,0 -6.474,-2.92 -6.474,-6.522c0,-3.604 2.898,-6.524 6.474,-6.524l56.696,0c3.576,0 6.474,2.92 6.474,6.524c0,3.602 -2.898,6.522 -6.474,6.522Z" style="fill:#76a6d9;fill-rule:nonzero;"/><rect x="643.332" y="664.947" width="23.671" height="13.046" style="fill:#e5e5e4;fill-rule:nonzero;"/><rect x="643.332" y="648.001" width="23.671" height="13.046" style="fill:#3073ba;fill-rule:nonzero;"/><rect x="643.332" y="631.055" width="23.671" height="13.046" style="fill:#e5e5e4;fill-rule:nonzero;"/><rect x="670.875" y="664.947" width="23.671" height="13.046" style="fill:#3073ba;fill-rule:nonzero;"/><rect x="670.875" y="648.001" width="23.671" height="13.046" style="fill:#3073ba;fill-rule:nonzero;"/><rect x="670.875" y="631.055" width="23.671" height="13.046" style="fill:#e5e5e4;fill-rule:nonzero;"/><path d="M630.906,746.477l-56.696,0c-3.576,0 -6.474,-2.92 -6.474,-6.522c0,-3.605 2.898,-6.524 6.474,-6.524l56.696,0c3.576,0 6.474,2.919 6.474,6.524c0,3.602 -2.898,6.522 -6.474,6.522Z" style="fill:#76a6d9;fill-rule:nonzero;"/><path d="M630.906,729.531l-56.696,0c-3.576,0 -6.474,-2.92 -6.474,-6.522c0,-3.604 2.898,-6.524 6.474,-6.524l56.696,0c3.576,0 6.474,2.92 6.474,6.524c0,3.602 -2.898,6.522 -6.474,6.522Z" style="fill:#76a6d9;fill-rule:nonzero;"/><path d="M630.906,712.585l-56.696,0c-3.576,0 -6.474,-2.92 -6.474,-6.522c0,-3.604 2.898,-6.524 6.474,-6.524l56.696,0c3.576,0 6.474,2.92 6.474,6.524c0,3.602 -2.898,6.522 -6.474,6.522Z" style="fill:#76a6d9;fill-rule:nonzero;"/><rect x="643.332" y="733.431" width="23.671" height="13.046" style="fill:#e5e5e4;fill-rule:nonzero;"/><rect x="643.332" y="716.485" width="23.671" height="13.046" style="fill:#e5e5e4;fill-rule:nonzero;"/><rect x="643.332" y="699.539" width="23.671" height="13.046" style="fill:#e5e5e4;fill-rule:nonzero;"/><rect x="670.875" y="733.431" width="23.671" height="13.046" style="fill:#e5e5e4;fill-rule:nonzero;"/><rect x="670.875" y="716.485" width="23.671" height="13.046" style="fill:#e5e5e4;fill-rule:nonzero;"/><rect x="670.875" y="699.539" width="23.671" height="13.046" style="fill:#3073ba;fill-rule:nonzero;"/><path d="M847.735,458.237l54.376,0c8.383,0 15.175,6.844 15.175,15.289l0,270.042c0,8.442 -6.792,15.288 -15.175,15.288l-54.376,0l0,-300.619Z" style="fill:#d7d9d9;fill-rule:nonzero;"/><path d="M853.148,458.237l-117.061,0c-8.383,0 -15.178,6.847 -15.178,15.289l0,270.042c0,8.442 6.795,15.288 15.178,15.288l117.061,0c8.381,0 15.178,-6.846 15.178,-15.288l0,-270.042c0,-8.442 -6.797,-15.289 -15.178,-15.289Z" style="fill:#fff;fill-rule:nonzero;"/><rect x="720.909" y="696.499" width="147.416" height="2.791" style="fill:#d7d9d9;fill-rule:nonzero;"/><rect x="720.909" y="636.935" width="147.416" height="2.791" style="fill:#d7d9d9;fill-rule:nonzero;"/><rect x="720.909" y="577.368" width="147.416" height="2.791" style="fill:#d7d9d9;fill-rule:nonzero;"/><rect x="720.909" y="517.804" width="147.416" height="2.791" style="fill:#d7d9d9;fill-rule:nonzero;"/><path d="M794.412,509.829l-49.309,0c-3.112,0 -5.637,-2.541 -5.637,-5.675c0,-3.132 2.525,-5.673 5.637,-5.673l49.309,0c3.112,0 5.635,2.541 5.635,5.673c0,3.134 -2.523,5.675 -5.635,5.675Z" style="fill:#76a6d9;fill-rule:nonzero;"/><path d="M794.412,495.091l-49.309,0c-3.112,0 -5.637,-2.541 -5.637,-5.675c0,-3.132 2.525,-5.673 5.637,-5.673l49.309,0c3.112,0 5.635,2.541 5.635,5.673c0,3.134 -2.523,5.675 -5.635,5.675Z" style="fill:#76a6d9;fill-rule:nonzero;"/><path d="M794.412,480.351l-49.309,0c-3.112,0 -5.637,-2.541 -5.637,-5.673c0,-3.132 2.525,-5.673 5.637,-5.673l49.309,0c3.112,0 5.635,2.541 5.635,5.673c0,3.132 -2.523,5.673 -5.635,5.673Z" style="fill:#76a6d9;fill-rule:nonzero;"/><rect x="805.222" y="707.264" width="20.588" height="11.348" style="fill:#e5e5e4;fill-rule:nonzero;"/><rect x="805.222" y="722.005" width="20.588" height="11.346" style="fill:#3073ba;fill-rule:nonzero;"/><rect x="805.222" y="736.743" width="20.588" height="11.346" style="fill:#e5e5e4;fill-rule:nonzero;"/><rect x="829.176" y="707.264" width="20.588" height="11.348" style="fill:#e5e5e4;fill-rule:nonzero;"/><rect x="829.176" y="722.005" width="20.588" height="11.346" style="fill:#e5e5e4;fill-rule:nonzero;"/><rect x="829.176" y="736.743" width="20.588" height="11.346" style="fill:#3073ba;fill-rule:nonzero;"/><path d="M794.412,558.048l-49.309,0c-3.112,0 -5.637,2.538 -5.637,5.673c0,3.131 2.525,5.672 5.637,5.672l49.309,0c3.112,0 5.635,-2.541 5.635,-5.672c0,-3.135 -2.523,-5.673 -5.635,-5.673Z" style="fill:#e5e5e4;fill-rule:nonzero;"/><path d="M794.412,554.655l-49.309,0c-3.112,0 -5.637,-2.541 -5.637,-5.672c0,-3.135 2.525,-5.676 5.637,-5.676l49.309,0c3.112,0 5.635,2.541 5.635,5.676c0,3.131 -2.523,5.672 -5.635,5.672Z" style="fill:#76a6d9;fill-rule:nonzero;"/><path d="M794.412,539.917l-49.309,0c-3.112,0 -5.637,-2.54 -5.637,-5.675c0,-3.132 2.525,-5.673 5.637,-5.673l49.309,0c3.112,0 5.635,2.541 5.635,5.673c0,3.135 -2.523,5.675 -5.635,5.675Z" style="fill:#76a6d9;fill-rule:nonzero;"/><rect x="805.222" y="647.7" width="20.588" height="11.348" style="fill:#e5e5e4;fill-rule:nonzero;"/><rect x="805.222" y="662.438" width="20.588" height="11.348" style="fill:#e5e5e4;fill-rule:nonzero;"/><rect x="805.222" y="677.176" width="20.588" height="11.348" style="fill:#3073ba;fill-rule:nonzero;"/><rect x="829.176" y="647.7" width="20.588" height="11.348" style="fill:#3073ba;fill-rule:nonzero;"/><rect x="829.176" y="662.438" width="20.588" height="11.348" style="fill:#e5e5e4;fill-rule:nonzero;"/><rect x="829.176" y="677.176" width="20.588" height="11.348" style="fill:#3073ba;fill-rule:nonzero;"/><path d="M794.412,628.96l-49.309,0c-3.112,0 -5.637,-2.541 -5.637,-5.675c0,-3.132 2.525,-5.673 5.637,-5.673l49.309,0c3.112,0 5.635,2.541 5.635,5.673c0,3.134 -2.523,5.675 -5.635,5.675Z" style="fill:#76a6d9;fill-rule:nonzero;"/><path d="M794.412,614.219l-49.309,0c-3.112,0 -5.637,-2.538 -5.637,-5.672c0,-3.132 2.525,-5.673 5.637,-5.673l49.309,0c3.112,0 5.635,2.541 5.635,5.673c0,3.134 -2.523,5.672 -5.635,5.672Z" style="fill:#76a6d9;fill-rule:nonzero;"/><path d="M794.412,599.482l-49.309,0c-3.112,0 -5.637,-2.541 -5.637,-5.673c0,-3.135 2.525,-5.676 5.637,-5.676l49.309,0c3.112,0 5.635,2.541 5.635,5.676c0,3.132 -2.523,5.673 -5.635,5.673Z" style="fill:#76a6d9;fill-rule:nonzero;"/><rect x="805.222" y="588.133" width="20.588" height="11.348" style="fill:#3073ba;fill-rule:nonzero;"/><rect x="805.222" y="602.874" width="20.588" height="11.346" style="fill:#e5e5e4;fill-rule:nonzero;"/><rect x="805.222" y="617.612" width="20.588" height="11.348" style="fill:#e5e5e4;fill-rule:nonzero;"/><rect x="829.176" y="588.133" width="20.588" height="11.348" style="fill:#e5e5e4;fill-rule:nonzero;"/><rect x="829.176" y="602.874" width="20.588" height="11.346" style="fill:#e5e5e4;fill-rule:nonzero;"/><rect x="829.176" y="617.612" width="20.588" height="11.348" style="fill:#3073ba;fill-rule:nonzero;"/><path d="M794.412,688.524l-49.309,0c-3.112,0 -5.637,-2.541 -5.637,-5.673c0,-3.134 2.525,-5.675 5.637,-5.675l49.309,0c3.112,0 5.635,2.541 5.635,5.675c0,3.132 -2.523,5.673 -5.635,5.673Z" style="fill:#76a6d9;fill-rule:nonzero;"/><path d="M794.412,673.786l-49.309,0c-3.112,0 -5.637,-2.541 -5.637,-5.673c0,-3.134 2.525,-5.675 5.637,-5.675l49.309,0c3.112,0 5.635,2.541 5.635,5.675c0,3.132 -2.523,5.673 -5.635,5.673Z" style="fill:#76a6d9;fill-rule:nonzero;"/><path d="M794.412,659.048l-49.309,0c-3.112,0 -5.637,-2.541 -5.637,-5.675c0,-3.132 2.525,-5.673 5.637,-5.673l49.309,0c3.112,0 5.635,2.541 5.635,5.673c0,3.134 -2.523,5.675 -5.635,5.675Z" style="fill:#76a6d9;fill-rule:nonzero;"/><rect x="805.222" y="528.569" width="20.588" height="11.348" style="fill:#e5e5e4;fill-rule:nonzero;"/><rect x="805.222" y="543.307" width="20.588" height="11.348" style="fill:#3073ba;fill-rule:nonzero;"/><rect x="805.222" y="558.048" width="20.588" height="11.346" style="fill:#e5e5e4;fill-rule:nonzero;"/><rect x="829.176" y="528.569" width="20.588" height="11.348" style="fill:#3073ba;fill-rule:nonzero;"/><rect x="829.176" y="543.307" width="20.588" height="11.348" style="fill:#e5e5e4;fill-rule:nonzero;"/><rect x="829.176" y="558.048" width="20.588" height="11.346" style="fill:#e5e5e4;fill-rule:nonzero;"/><path d="M794.412,748.088l-49.309,0c-3.112,0 -5.637,-2.538 -5.637,-5.673c0,-3.131 2.525,-5.672 5.637,-5.672l49.309,0c3.112,0 5.635,2.541 5.635,5.672c0,3.135 -2.523,5.673 -5.635,5.673Z" style="fill:#76a6d9;fill-rule:nonzero;"/><path d="M794.412,733.35l-49.309,0c-3.112,0 -5.637,-2.538 -5.637,-5.673c0,-3.134 2.525,-5.672 5.637,-5.672l49.309,0c3.112,0 5.635,2.538 5.635,5.672c0,3.135 -2.523,5.673 -5.635,5.673Z" style="fill:#76a6d9;fill-rule:nonzero;"/><path d="M794.412,718.612l-49.309,0c-3.112,0 -5.637,-2.541 -5.637,-5.672c0,-3.135 2.525,-5.676 5.637,-5.676l49.309,0c3.112,0 5.635,2.541 5.635,5.676c0,3.131 -2.523,5.672 -5.635,5.672Z" style="fill:#76a6d9;fill-rule:nonzero;"/><rect x="805.222" y="469.005" width="20.588" height="11.346" style="fill:#3073ba;fill-rule:nonzero;"/><rect x="805.222" y="483.743" width="20.588" height="11.348" style="fill:#e5e5e4;fill-rule:nonzero;"/><rect x="805.222" y="498.481" width="20.588" height="11.348" style="fill:#e5e5e4;fill-rule:nonzero;"/><rect x="829.176" y="469.005" width="20.588" height="11.346" style="fill:#e5e5e4;fill-rule:nonzero;"/><rect x="829.176" y="483.743" width="20.588" height="11.348" style="fill:#e5e5e4;fill-rule:nonzero;"/><rect x="829.176" y="498.481" width="20.588" height="11.348" style="fill:#3073ba;fill-rule:nonzero;"/></g><path d="M647.387,349.628l-2.36,0l2.36,0Z" style="fill:#b4cfec;fill-rule:nonzero;"/><path d="M1075.64,973.466l-146.873,0c-120.275,0 -218.127,-97.847 -218.127,-218.127l0,-43.625l-43.625,0l0,43.625c0,144.33 117.422,261.752 261.752,261.752l146.873,0l0,-43.625Z" style="fill:#3073ba;fill-rule:nonzero;"/><path d="M688.286,682.651l-37.788,37.788l75.576,0l-37.788,-37.788Z" style="fill:#3073ba;fill-rule:nonzero;"/><path d="M362.854,1533.32l-25.935,-79.978c0,0 38.534,-36.353 94.523,-25.447l21.813,74.887l-90.401,30.538Z" style="fill:#3073ba;fill-rule:nonzero;"/><path d="M387.943,1502.72l-7.037,-8.114c1.004,-0.445 2.033,-0.894 3.085,-1.335c4.301,-1.789 8.925,-3.586 13.667,-4.986c2.369,-0.685 4.716,-1.501 7.098,-1.959c2.369,-0.541 4.686,-1.169 6.98,-1.466c2.278,-0.41 4.485,-0.803 6.61,-0.947c2.019,-0.183 3.943,-0.488 5.736,-0.488c0.083,0 0.166,0.004 0.249,0.004c1.858,-0.03 3.577,-0.126 5.113,-0.209c1.527,0.078 2.857,0.144 3.952,0.2c2.208,0.096 3.499,0.096 3.499,0.096c0,0 -1.204,-0.379 -3.368,-0.933c-1.086,-0.275 -2.412,-0.602 -3.926,-0.982c-1.54,-0.227 -3.289,-0.475 -5.213,-0.676c-1.44,-0.231 -2.976,-0.266 -4.59,-0.266c-0.536,0 -1.086,0.004 -1.64,0.004c-0.366,-0.013 -0.742,-0.017 -1.117,-0.017c-1.884,0 -3.839,0.148 -5.846,0.41c-2.417,0.205 -4.886,0.598 -7.368,1.165c-2.508,0.436 -4.969,1.221 -7.456,1.902c-2.477,0.72 -4.851,1.736 -7.241,2.574c-2.326,0.994 -4.603,2.007 -6.749,3.093c-1.335,0.672 -2.626,1.361 -3.865,2.055l-4.86,-5.602c2.294,-1.117 4.746,-2.295 7.342,-3.438c2.151,-1.051 4.476,-1.906 6.766,-2.944c2.304,-1.004 4.703,-1.859 7.067,-2.801c2.404,-0.825 4.777,-1.758 7.168,-2.491c2.413,-0.637 4.716,-1.579 7.037,-2.077c2.325,-0.493 4.519,-1.282 6.679,-1.596c2.146,-0.349 4.17,-0.895 6.064,-1.122c1.893,-0.205 3.638,-0.453 5.191,-0.684c1.558,-0.205 2.923,-0.162 4.049,-0.245c2.255,-0.109 3.573,-0.235 3.573,-0.235c0,0 -1.266,-0.258 -3.53,-0.611c-1.13,-0.14 -2.513,-0.445 -4.105,-0.537c-1.592,-0.078 -3.403,-0.165 -5.383,-0.183c-0.144,-0.004 -0.288,-0.004 -0.436,-0.004c-1.855,0 -3.831,0.235 -5.929,0.401c-2.277,0.114 -4.598,0.663 -7.041,1.073c-4.864,0.916 -9.899,2.491 -14.863,4.223c-4.873,1.955 -9.703,4.022 -14.004,6.396c-2.788,1.452 -5.37,2.992 -7.717,4.489l-8.224,-9.489c0.083,-0.035 0.166,-0.07 0.249,-0.109c7.294,-3.102 17.009,-7.124 26.934,-10.452c2.491,-0.786 4.956,-1.689 7.434,-2.378c2.491,-0.624 4.873,-1.544 7.272,-2.042c2.387,-0.519 4.655,-1.274 6.867,-1.644c2.207,-0.393 4.279,-0.956 6.221,-1.239c1.946,-0.271 3.73,-0.581 5.318,-0.86c1.588,-0.262 2.988,-0.305 4.14,-0.436c2.308,-0.223 3.647,-0.414 3.647,-0.414c0,0 -1.313,-0.197 -3.643,-0.432c-1.836,-0.227 -4.293,-0.389 -7.224,-0.389c-0.799,0 -1.632,0.013 -2.5,0.04c-2.02,0.013 -4.184,0.296 -6.487,0.514c-2.321,0.171 -4.698,0.681 -7.189,1.117c-2.496,0.406 -5.004,1.091 -7.574,1.732c-2.561,0.668 -5.104,1.531 -7.678,2.299c-5.056,1.806 -10.06,3.743 -14.58,5.929c-4.554,2.107 -8.65,4.384 -12.092,6.43c-0.253,0.153 -0.502,0.301 -0.746,0.45l-3.36,-3.874l-4.532,0.488c1.876,-1.212 4.297,-2.652 7.071,-4.279c1.789,-1.043 3.743,-2.134 5.833,-3.237c2.055,-1.17 4.341,-2.164 6.622,-3.346c2.317,-1.109 4.773,-2.112 7.234,-3.189c2.525,-0.917 5.008,-2.077 7.638,-2.801c2.583,-0.873 5.161,-1.75 7.779,-2.321c1.3,-0.336 2.587,-0.672 3.856,-0.999c1.296,-0.24 2.57,-0.476 3.822,-0.702c2.508,-0.528 4.951,-0.873 7.29,-1.069c2.246,-0.262 4.384,-0.519 6.373,-0.519l0.231,0c2.068,-0.07 3.962,-0.14 5.646,-0.201c1.684,0.092 3.149,0.17 4.358,0.235c2.434,0.118 3.852,0.127 3.852,0.127c0,0 -1.339,-0.384 -3.726,-0.964c-1.199,-0.284 -2.661,-0.624 -4.336,-1.017c-1.693,-0.274 -3.625,-0.475 -5.741,-0.684c-1.418,-0.201 -2.919,-0.275 -4.489,-0.275c-0.772,0 -1.566,0.021 -2.369,0.048c-1.226,0.021 -2.482,0.043 -3.765,0.065c-1.278,0.083 -2.574,0.301 -3.9,0.454c-1.322,0.166 -2.67,0.344 -4.031,0.519c-1.348,0.262 -2.705,0.571 -4.07,0.894c-2.749,0.554 -5.462,1.405 -8.171,2.277c-2.731,0.812 -5.296,2.06 -7.901,3.063c-2.548,1.134 -4.991,2.404 -7.329,3.651c-4.629,2.592 -8.773,5.31 -12.097,7.923c-3.272,2.513 -5.811,4.833 -7.552,6.548l-9.541,1.025l-5.505,-16.983c0,0 29.142,-27.484 73.552,-27.484c6.666,0 13.664,0.615 20.971,2.037l21.027,72.196l-28.273,-5.379c1.474,-0.262 2.888,-0.554 4.227,-0.694c1.841,-0.144 3.542,-0.336 5.056,-0.515c0.659,-0.07 1.278,-0.087 1.859,-0.087c0.279,0 0.549,0.004 0.811,0.009c0.262,0.004 0.515,0.008 0.759,0.008c0.175,0 0.34,-0.004 0.506,-0.008c2.195,-0.013 3.477,-0.083 3.477,-0.083c0,0 -1.213,-0.314 -3.394,-0.759c-1.095,-0.183 -2.421,-0.567 -3.97,-0.703c-1.549,-0.135 -3.307,-0.279 -5.235,-0.366c-0.301,-0.009 -0.606,-0.017 -0.916,-0.017c-1.667,0 -3.433,0.157 -5.296,0.261c-2.221,0.092 -4.494,0.58 -6.88,0.951c-0.266,0.044 -0.528,0.092 -0.789,0.144l-4.394,-0.833c-0.366,-0.07 -0.732,-0.105 -1.099,-0.105c-1.278,0 -2.526,0.415 -3.56,1.2l-5.196,3.935c-2.168,0.912 -4.371,1.749 -6.452,2.762c-1.989,0.92 -3.922,1.897 -5.767,2.909Z" style="fill:#b3cfec;fill-rule:nonzero;"/><path d="M351.965,1469.3c1.741,-1.715 4.28,-4.035 7.552,-6.548c3.324,-2.613 7.468,-5.331 12.097,-7.923c2.338,-1.247 4.781,-2.517 7.329,-3.651c2.605,-1.003 5.17,-2.251 7.901,-3.063c2.709,-0.872 5.422,-1.723 8.171,-2.277c1.365,-0.323 2.722,-0.632 4.07,-0.894c1.361,-0.175 2.709,-0.353 4.031,-0.519c1.326,-0.153 2.622,-0.371 3.9,-0.454c1.283,-0.022 2.539,-0.044 3.765,-0.065c0.803,-0.027 1.597,-0.048 2.369,-0.048c1.57,0 3.071,0.074 4.489,0.275c2.116,0.209 4.048,0.41 5.741,0.684c1.675,0.393 3.137,0.733 4.336,1.017c2.387,0.58 3.726,0.964 3.726,0.964c0,0 -1.418,-0.009 -3.852,-0.127c-1.209,-0.065 -2.674,-0.143 -4.358,-0.235c-1.684,0.061 -3.578,0.131 -5.646,0.201l-0.231,0c-1.989,0 -4.127,0.257 -6.373,0.519c-2.339,0.196 -4.782,0.541 -7.29,1.069c-1.252,0.226 -2.526,0.462 -3.822,0.702c-1.269,0.327 -2.556,0.663 -3.856,0.999c-2.618,0.571 -5.196,1.448 -7.779,2.321c-2.63,0.724 -5.113,1.884 -7.638,2.801c-2.461,1.077 -4.917,2.08 -7.234,3.189c-2.281,1.182 -4.567,2.176 -6.622,3.346c-2.09,1.103 -4.044,2.194 -5.833,3.237c-2.774,1.627 -5.195,3.067 -7.071,4.279l-1.872,0.201Z" style="fill:#8ea7c8;fill-rule:nonzero;"/><path d="M363.36,1474.37l-1.631,-1.884c0.244,-0.149 0.493,-0.297 0.746,-0.45c3.442,-2.046 7.538,-4.323 12.092,-6.43c4.52,-2.186 9.524,-4.123 14.58,-5.929c2.574,-0.768 5.117,-1.631 7.678,-2.299c2.57,-0.641 5.078,-1.326 7.574,-1.732c2.491,-0.436 4.868,-0.946 7.189,-1.117c2.303,-0.218 4.467,-0.501 6.487,-0.514c0.868,-0.027 1.701,-0.04 2.5,-0.04c2.931,0 5.388,0.162 7.224,0.389c2.33,0.235 3.643,0.432 3.643,0.432c0,0 -1.339,0.191 -3.647,0.414c-1.152,0.131 -2.552,0.174 -4.14,0.436c-1.588,0.279 -3.372,0.589 -5.318,0.86c-1.942,0.283 -4.014,0.846 -6.221,1.239c-2.212,0.37 -4.48,1.125 -6.867,1.644c-2.399,0.498 -4.781,1.418 -7.272,2.042c-2.478,0.689 -4.943,1.592 -7.434,2.378c-9.925,3.328 -19.64,7.35 -26.934,10.452c-0.083,0.039 -0.166,0.074 -0.249,0.109Z" style="fill:#8ea7c8;fill-rule:nonzero;"/><path d="M373.656,1486.25l-2.072,-2.386c2.347,-1.497 4.929,-3.037 7.717,-4.489c4.301,-2.374 9.131,-4.441 14.004,-6.396c4.964,-1.732 9.999,-3.307 14.863,-4.223c2.443,-0.41 4.764,-0.959 7.041,-1.073c2.098,-0.166 4.074,-0.401 5.929,-0.401c0.148,0 0.292,0 0.436,0.004c1.98,0.018 3.791,0.105 5.383,0.183c1.592,0.092 2.975,0.397 4.105,0.537c2.264,0.353 3.53,0.611 3.53,0.611c0,0 -1.318,0.126 -3.573,0.235c-1.126,0.083 -2.491,0.04 -4.049,0.245c-1.553,0.231 -3.298,0.479 -5.191,0.684c-1.894,0.227 -3.918,0.773 -6.064,1.122c-2.16,0.314 -4.354,1.103 -6.679,1.596c-2.321,0.498 -4.624,1.44 -7.037,2.077c-2.391,0.733 -4.764,1.666 -7.168,2.491c-2.364,0.942 -4.763,1.797 -7.067,2.801c-2.29,1.038 -4.615,1.893 -6.766,2.944c-2.596,1.143 -5.048,2.321 -7.342,3.438Z" style="fill:#8ea7c8;fill-rule:nonzero;"/><path d="M380.906,1494.61l-2.39,-2.761c1.239,-0.694 2.53,-1.383 3.865,-2.055c2.146,-1.086 4.423,-2.099 6.749,-3.093c2.39,-0.838 4.764,-1.854 7.241,-2.574c2.487,-0.681 4.948,-1.466 7.456,-1.902c2.482,-0.567 4.951,-0.96 7.368,-1.165c2.007,-0.262 3.962,-0.41 5.846,-0.41c0.375,0 0.751,0.004 1.117,0.017c0.554,0 1.104,-0.004 1.64,-0.004c1.614,0 3.15,0.035 4.59,0.266c1.924,0.201 3.673,0.449 5.213,0.676c1.514,0.38 2.84,0.707 3.926,0.982c2.164,0.554 3.368,0.933 3.368,0.933c0,0 -1.291,0 -3.499,-0.096c-1.095,-0.056 -2.425,-0.122 -3.952,-0.2c-1.536,0.083 -3.255,0.179 -5.113,0.209c-0.083,0 -0.166,-0.004 -0.249,-0.004c-1.793,0 -3.717,0.305 -5.736,0.488c-2.125,0.144 -4.332,0.537 -6.61,0.947c-2.294,0.297 -4.611,0.925 -6.98,1.466c-2.382,0.458 -4.729,1.274 -7.098,1.959c-4.742,1.4 -9.366,3.197 -13.667,4.986c-1.052,0.441 -2.081,0.89 -3.085,1.335Z" style="fill:#8ea7c8;fill-rule:nonzero;"/><path d="M389.819,1504.89l-1.876,-2.164c1.845,-1.012 3.778,-1.989 5.767,-2.909c2.081,-1.013 4.284,-1.85 6.452,-2.762l-10.343,7.835Zm34.377,-10.173l-9.785,-1.859c0.261,-0.052 0.523,-0.1 0.789,-0.144c2.386,-0.371 4.659,-0.859 6.88,-0.951c1.863,-0.104 3.629,-0.261 5.296,-0.261c0.31,0 0.615,0.008 0.916,0.017c1.928,0.087 3.686,0.231 5.235,0.366c1.549,0.136 2.875,0.52 3.97,0.703c2.181,0.445 3.394,0.759 3.394,0.759c0,0 -1.282,0.07 -3.477,0.083c-0.166,0.004 -0.331,0.008 -0.506,0.008c-0.244,0 -0.497,-0.004 -0.759,-0.008c-0.262,-0.005 -0.532,-0.009 -0.811,-0.009c-0.581,0 -1.2,0.017 -1.859,0.087c-1.514,0.179 -3.215,0.371 -5.056,0.515c-1.339,0.14 -2.753,0.432 -4.227,0.694Z" style="fill:#8ea7c8;fill-rule:nonzero;"/><path d="M351.525,1533.89l53.833,-40.777c1.331,-1.012 3.019,-1.409 4.659,-1.095l61.394,11.67c5.445,1.038 6.579,8.337 1.702,10.976l-50.671,27.436c-0.816,0.445 -1.723,0.685 -2.652,0.711l-64.557,1.671c-5.724,0.148 -8.276,-7.133 -3.708,-10.592Z" style="fill:#3073ba;fill-rule:nonzero;"/><path d="M448.408,1558.05c0,0 82.644,-199.948 97.184,-212.312c14.545,-12.359 106.882,41.3 106.882,41.3l-82.16,211.003l-121.906,-39.991Z" style="fill:#3073ba;fill-rule:nonzero;"/><path d="M477.824,1494.67c23.449,-58.545 58.751,-141.354 72.619,-146.031c1.684,-0.567 3.665,-0.829 5.89,-0.829c26.236,0 85.963,36.458 85.963,36.458c0,0 -54.043,-28.156 -73.84,-28.156c-2.321,0 -4.175,0.388 -5.41,1.252c-6.469,4.533 -33.216,64.112 -56.036,116.942l-3.586,-0.244l-25.6,20.608Z" style="fill:#1f68b3;fill-rule:nonzero;"/><rect x="287.718" y="1538.41" width="350.944" height="207.22" style="fill:#0c2b34;fill-rule:nonzero;"/><path d="M420.78,1745.63l-133.062,0l0,-207.221l133.062,2.181l0,205.04Zm0,-205.04l-1.894,-2.181l4.603,0l-2.709,0l0,2.181Z" style="fill:#45575d;fill-rule:nonzero;"/><path d="M638.662,1745.63l-217.882,0l0,-207.221l2.709,0l-2.709,2.181l217.882,0l0,113.291c-3.433,-1.208 -6.923,-2.199 -10.431,-2.94c-4.013,-0.86 -8.057,-1.405 -12.071,-1.597c-1.095,-0.074 -2.168,-0.091 -3.237,-0.091c-0.715,0 -1.422,0.008 -2.124,0.034c-6.614,-6.36 -14.794,-11.089 -23.898,-13.541c-3.691,-1.008 -7.539,-1.64 -11.495,-1.863c-1.061,-0.083 -2.125,-0.104 -3.185,-0.104c-25.451,0 -46.932,17.088 -53.581,40.436c-1.387,4.864 -2.129,9.999 -2.129,15.304l0,0.096c0.005,4.349 0.506,8.585 1.462,12.638c0.1,0.432 0.209,0.864 0.318,1.291c0.258,1.004 0.541,1.998 0.864,2.984c0.75,2.352 1.658,4.633 2.7,6.836c0.589,1.252 1.231,2.483 1.916,3.678c1.286,2.264 2.73,4.428 4.314,6.483c4.31,5.597 9.663,10.343 15.766,13.96c8.315,4.929 18.022,7.761 28.387,7.761c13.515,0 25.909,-4.817 35.555,-12.817c4.266,2.595 8.769,4.859 13.397,6.731c5.68,2.303 11.565,4.014 17.472,5.026l0,1.444Zm0,-29.256c-0.467,-0.017 -0.942,-0.048 -1.426,-0.1c-4.769,-0.353 -9.611,-1.946 -13.934,-4.384c3.006,-6.845 4.672,-14.41 4.672,-22.363c0,-3.865 -0.388,-7.634 -1.134,-11.277c0.602,0.053 1.204,0.122 1.802,0.214c3.424,0.528 6.836,1.653 10.02,3.237l0,34.673Zm-66.441,-4.637c-0.698,0 -1.396,-0.048 -2.094,-0.131c-4.507,-0.401 -8.625,-2.164 -11.94,-4.868c-2.225,-1.824 -4.092,-4.066 -5.48,-6.61c-0.008,-0.013 -0.017,-0.03 -0.022,-0.043c-0.004,-0.005 -0.004,-0.009 -0.008,-0.013c-0.371,-0.685 -0.707,-1.392 -1.004,-2.121c-0.161,-0.397 -0.314,-0.794 -0.453,-1.195c-0.371,-1.077 -0.659,-2.19 -0.864,-3.333c-0.092,-0.628 -0.175,-1.269 -0.21,-1.932c-0.069,-0.524 -0.113,-1.052 -0.126,-1.58c-0.004,-0.131 -0.004,-0.261 -0.004,-0.392c0,-12.272 9.95,-22.223 22.222,-22.223c0.458,0 0.912,0.017 1.366,0.044c0.061,0.008 0.126,0.017 0.187,0.026c0.855,0.056 1.693,0.157 2.518,0.305c-2.116,4.11 -3.264,8.751 -3.316,13.777c-0.052,4.947 0.951,10.269 3.132,15.81c0.136,0.331 0.271,0.667 0.41,0.999c1.462,3.507 3.32,6.919 5.528,10.191c0.161,0.244 0.327,0.488 0.497,0.733c0.004,0.004 0.009,0.008 0.009,0.013c-3.089,1.623 -6.609,2.543 -10.348,2.543Z" style="fill:#8b989b;fill-rule:nonzero;"/><path d="M420.78,1540.6l82.644,-66.528l184.317,12.542l-49.079,53.986l-217.882,0Z" style="fill:#0c2b34;fill-rule:nonzero;"/><path d="M420.78,1540.6l-62.411,-71.981l-131.966,14.178l61.315,55.622l133.062,2.181Z" style="fill:#0c2b34;fill-rule:nonzero;"/><path d="M420.78,1540.6l-133.062,-2.181l-61.315,-55.622l131.966,-14.178l62.411,71.981Z" style="fill:#2c4248;fill-rule:nonzero;"/><path d="M638.662,1540.6l-217.882,0l82.644,-66.528l184.317,12.542l-49.079,53.986Z" style="fill:#727f84;fill-rule:nonzero;"/><path d="M572.238,1711.75c-12.272,0 -22.222,-9.946 -22.222,-22.222c0,-12.272 9.95,-22.223 22.222,-22.223c12.272,0 22.219,9.951 22.219,22.223c0,12.276 -9.947,22.222 -22.219,22.222Zm0,-77.945c-30.777,0 -55.727,24.945 -55.727,55.723c0,30.777 24.95,55.727 55.727,55.727c30.778,0 55.723,-24.95 55.723,-55.727c0,-30.778 -24.945,-55.723 -55.723,-55.723Z" style="fill:#3073ba;fill-rule:nonzero;"/><path d="M523.771,1717.05c-0.685,-1.195 -1.327,-2.426 -1.916,-3.678c0.594,1.252 1.235,2.478 1.916,3.678Zm99.531,-5.152c-0.005,-0.005 -0.005,-0.005 -0.009,-0.005c3.001,-6.849 4.668,-14.409 4.668,-22.366c0,-3.861 -0.393,-7.63 -1.139,-11.273c0.005,0.004 0.013,0.004 0.018,0.004c0.746,3.643 1.134,7.412 1.134,11.277c0,7.953 -1.666,15.518 -4.672,22.363Zm-51.064,-0.149c-0.715,0 -1.418,-0.034 -2.116,-0.1l0.005,-0.035c-4.507,-0.401 -8.625,-2.164 -11.94,-4.868c3.315,2.704 7.433,4.467 11.94,4.868c0.698,0.083 1.396,0.131 2.094,0.131c3.739,0 7.259,-0.92 10.348,-2.543c0.004,0 0.004,0.004 0.004,0.004c-3.089,1.623 -6.605,2.543 -10.335,2.543Zm-54.265,-9.488c-0.956,-4.053 -1.457,-8.289 -1.462,-12.638c0.009,4.349 0.511,8.581 1.462,12.638Zm34.704,-2.181c-0.371,-0.685 -0.707,-1.392 -1.004,-2.121c-0.161,-0.392 -0.314,-0.794 -0.453,-1.195c0.139,0.401 0.292,0.798 0.453,1.195c0.297,0.729 0.633,1.436 1.004,2.121Zm-2.321,-6.649c-0.092,-0.628 -0.175,-1.269 -0.21,-1.932l-0.043,0.017c-0.044,-0.528 -0.074,-1.06 -0.083,-1.597c0.013,0.528 0.057,1.056 0.126,1.58c0.035,0.663 0.118,1.304 0.21,1.932Zm-33.845,-3.852l0,-0.048l0,0.048Zm2.129,-15.356c6.649,-23.348 28.13,-40.436 53.581,-40.436c1.06,0 2.124,0.021 3.185,0.104c-1.052,-0.061 -2.103,-0.087 -3.168,-0.087c-25.468,0 -46.949,17.084 -53.598,40.419Zm55.151,-6.849c-0.061,-0.009 -0.126,-0.018 -0.187,-0.026c0.061,0.004 0.126,0.008 0.187,0.013l0,0.013Z" style="fill:#d7dada;fill-rule:nonzero;"/><path d="M572.221,1745.25c-1.614,0 -3.228,-0.091 -4.843,-0.218l2.744,-33.382c0.698,0.066 1.401,0.1 2.116,0.1c3.73,0 7.246,-0.92 10.335,-2.543c0.681,0.99 1.396,1.976 2.155,2.945c1.422,1.841 2.949,3.629 4.572,5.366c1.169,1.26 2.4,2.486 3.678,3.682c1.23,1.16 2.508,2.29 3.821,3.385c3.425,2.862 7.116,5.492 10.994,7.853c-9.65,8 -22.048,12.812 -35.572,12.812Zm-47.77,-27.052c-0.231,-0.379 -0.458,-0.763 -0.68,-1.147c-0.681,-1.2 -1.322,-2.426 -1.916,-3.678c-0.615,-1.313 -1.177,-2.661 -1.679,-4.031l30.276,-15.312c-0.031,-0.196 -0.066,-0.397 -0.096,-0.598c0.03,0.201 0.065,0.402 0.096,0.598c0.209,0.933 0.462,1.845 0.768,2.735c0.139,0.401 0.292,0.803 0.453,1.195l-27.222,20.238Zm98.842,-6.304c-3.494,-1.971 -6.648,-4.497 -9.144,-7.368c-0.419,-0.48 -0.816,-0.968 -1.195,-1.461c-0.598,-0.786 -1.148,-1.593 -1.645,-2.417c-0.314,-0.55 -0.615,-1.108 -0.877,-1.684c-0.257,-0.467 -0.484,-0.934 -0.68,-1.401c-0.04,-0.1 -0.079,-0.2 -0.118,-0.296c-4.166,-10.566 2.408,-19.134 14.68,-19.134c0.462,0 0.925,0.013 1.387,0.035c0.061,0.008 0.127,0.013 0.192,0.021c0.31,0.018 0.62,0.04 0.929,0.066c0.746,3.643 1.139,7.412 1.139,11.273c0,7.957 -1.667,15.517 -4.668,22.366Zm-105.124,-8.829c-0.07,-0.266 -0.131,-0.533 -0.196,-0.803c-0.951,-4.057 -1.453,-8.289 -1.462,-12.638l0,-0.092c0,-5.309 0.742,-10.444 2.129,-15.308c6.649,-23.335 28.13,-40.419 53.598,-40.419c1.065,0 2.116,0.026 3.168,0.087c0.375,0.031 0.754,0.066 1.134,0.114c3.555,0.253 7.023,0.846 10.361,1.749c-3.338,-0.903 -6.806,-1.496 -10.361,-1.749l-2.749,33.356c-0.061,-0.005 -0.126,-0.009 -0.187,-0.013c-0.463,-0.062 -0.921,-0.062 -1.383,-0.062c-12.259,0 -22.205,9.951 -22.205,22.249c0,0.127 0,0.258 0.004,0.384c0.009,0.537 0.039,1.069 0.083,1.597l-31.934,11.548Z" style="fill:#b3cfec;fill-rule:nonzero;"/><path d="M543.851,1737.49c-6.103,-3.617 -11.456,-8.363 -15.766,-13.96c4.315,5.588 9.667,10.339 15.766,13.96Zm26.271,-25.844c-4.506,-0.423 -8.62,-2.194 -11.935,-4.903c3.315,2.704 7.433,4.467 11.94,4.868l-0.005,0.035Zm-17.415,-11.513c-0.008,-0.013 -0.017,-0.03 -0.022,-0.043c0.005,0.013 0.014,0.03 0.022,0.043Zm-0.03,-0.056c-0.371,-0.685 -0.707,-1.392 -1.004,-2.121c0.297,0.729 0.633,1.436 1.004,2.121Z" style="fill:#dfe2e2;fill-rule:nonzero;"/><path d="M567.378,1745.03c-8.533,-0.737 -16.525,-3.394 -23.527,-7.538c-6.099,-3.621 -11.451,-8.372 -15.766,-13.96c-1.309,-1.702 -2.521,-3.482 -3.634,-5.336l27.222,-20.238c0.297,0.729 0.633,1.436 1.004,2.121c0.004,0.004 0.004,0.008 0.008,0.013c0.005,0.013 0.014,0.03 0.022,0.043c1.383,2.544 3.25,4.79 5.48,6.61c3.315,2.709 7.429,4.48 11.935,4.903l-2.744,33.382Z" style="fill:#c1d7f0;fill-rule:nonzero;"/><path d="M576.309,1667.68c-0.825,-0.148 -1.663,-0.249 -2.518,-0.305l0,-0.013c0.855,0.056 1.693,0.165 2.518,0.318Zm34.485,-18.384c-6.613,-6.343 -14.789,-11.067 -23.893,-13.541c9.104,2.452 17.284,7.181 23.898,13.541l-0.005,0Z" style="fill:#dfe2e2;fill-rule:nonzero;"/><path d="M576.309,1667.68c-0.825,-0.153 -1.663,-0.262 -2.518,-0.318l2.749,-33.356c3.555,0.253 7.023,0.846 10.361,1.749c9.104,2.474 17.28,7.198 23.893,13.541c-16.721,0.55 -28.936,7.617 -34.485,18.384Z" style="fill:#c1d7f0;fill-rule:nonzero;"/><path d="M519.155,1706.53c-0.323,-0.986 -0.606,-1.98 -0.864,-2.984c0.262,1.004 0.55,2.003 0.864,2.984Zm31.201,-13.105c-0.109,-0.628 -0.196,-1.269 -0.253,-1.915l0.043,-0.017c0.035,0.663 0.118,1.304 0.21,1.932Z" style="fill:#dfe2e2;fill-rule:nonzero;"/><path d="M520.176,1709.34c-0.375,-0.925 -0.716,-1.862 -1.021,-2.805c-0.314,-0.981 -0.602,-1.98 -0.864,-2.984c-0.043,-0.166 -0.083,-0.327 -0.122,-0.488l31.934,-11.548c0.057,0.646 0.144,1.287 0.253,1.915c0.03,0.201 0.065,0.402 0.096,0.598l-30.276,15.312Z" style="fill:#c1d7f0;fill-rule:nonzero;"/><path d="M639.395,1716.4c-12.276,0 -25.599,-8.568 -29.761,-19.134c-4.166,-10.566 2.408,-19.134 14.68,-19.134c12.272,0 25.599,8.568 29.761,19.134c4.166,10.566 -2.408,19.134 -14.68,19.134Zm-26.45,-67.122c-30.778,0 -47.259,21.481 -36.82,47.988c10.449,26.502 43.861,47.988 74.639,47.988c30.778,0 47.259,-21.486 36.815,-47.988c-10.444,-26.507 -43.856,-47.988 -74.634,-47.988Z" style="fill:#3073ba;fill-rule:nonzero;"/><path d="M688.792,1700.7c-0.353,-1.134 -0.759,-2.281 -1.213,-3.433c-2.94,-7.469 -7.704,-14.536 -13.72,-20.836l0.022,-0.008c-1.187,-1.231 -2.43,-2.448 -3.726,-3.63c1.296,1.182 2.539,2.399 3.726,3.63c6.02,6.312 10.767,13.375 13.711,20.853c0.454,1.147 0.86,2.294 1.213,3.424l-0.013,0Z" style="fill:#fff;fill-rule:nonzero;"/><path d="M684.469,1731.4c6.212,-7.949 8.062,-18.72 4.323,-30.704l0.013,0c3.739,11.984 1.88,22.755 -4.336,30.704Z" style="fill:#f3f2f2;fill-rule:nonzero;"/><path d="M592.978,1721.2c-1.278,-1.196 -2.509,-2.422 -3.678,-3.682c1.178,1.26 2.404,2.486 3.678,3.682Z" style="fill:#b9d3ee;fill-rule:nonzero;"/><path d="M639.395,1716.4c-0.244,0 -0.488,-0.004 -0.733,-0.009l0,-0.009c0.24,0.009 0.476,0.014 0.716,0.014c4.703,0 8.568,-1.253 11.316,-3.39c-2.744,2.142 -6.605,3.394 -11.299,3.394Z" style="fill:#f3f2f2;fill-rule:nonzero;"/><path d="M638.662,1716.39c-0.471,-0.013 -0.942,-0.039 -1.413,-0.074l-0.013,-0.035c-4.769,-0.353 -9.611,-1.946 -13.934,-4.384c4.323,2.438 9.165,4.031 13.934,4.384c0.484,0.052 0.959,0.083 1.426,0.1l0,0.009Z" style="fill:#95a0a5;fill-rule:nonzero;"/><path d="M623.293,1711.89c-3.494,-1.971 -6.648,-4.497 -9.144,-7.368c-0.419,-0.48 -0.816,-0.964 -1.195,-1.461c0.379,0.493 0.776,0.981 1.195,1.461c2.496,2.871 5.65,5.397 9.144,7.368Z" style="fill:#b9d3ee;fill-rule:nonzero;"/><path d="M582.063,1708.45c-2.208,-3.272 -4.066,-6.684 -5.528,-10.191c1.462,3.503 3.325,6.914 5.528,10.191Z" style="fill:#95a0a5;fill-rule:nonzero;"/><path d="M611.309,1700.64c-0.314,-0.55 -0.615,-1.108 -0.877,-1.684l-0.035,0.013c-0.235,-0.467 -0.449,-0.938 -0.645,-1.414c0.196,0.467 0.423,0.934 0.68,1.401c0.262,0.576 0.563,1.134 0.877,1.684Z" style="fill:#b9d3ee;fill-rule:nonzero;"/><path d="M647.021,1687.4c-0.388,-0.349 -0.785,-0.694 -1.191,-1.03l0.009,0c0.401,0.336 0.798,0.681 1.182,1.03Z" style="fill:#fff;fill-rule:nonzero;"/><path d="M572.993,1681.45c0.052,-5.026 1.2,-9.667 3.316,-13.777l0.008,0c-2.12,4.11 -3.267,8.751 -3.324,13.777Zm43.167,-32.104c-1.073,-0.048 -2.146,-0.074 -3.215,-0.074c-0.715,0 -1.426,0.009 -2.124,0.035c-0.009,-0.009 -0.014,-0.013 -0.022,-0.018c0.702,-0.026 1.409,-0.034 2.124,-0.034c1.069,0 2.142,0.017 3.237,0.091Z" style="fill:#95a0a5;fill-rule:nonzero;"/><path d="M576.317,1667.68l-0.008,0l0.008,0Zm34.495,-18.366c-0.005,-0.009 -0.013,-0.013 -0.018,-0.018l0.005,0c0.008,0.005 0.013,0.009 0.022,0.018l-0.009,0Z" style="fill:#e3e3e3;fill-rule:nonzero;"/><path d="M576.317,1667.68l-0.008,0c5.549,-10.767 17.764,-17.834 34.485,-18.384c0.005,0.005 0.013,0.009 0.018,0.018c-16.722,0.55 -28.941,7.612 -34.495,18.366Z" style="fill:#c7daf1;fill-rule:nonzero;"/><path d="M625.893,1678.18c-0.065,-0.008 -0.131,-0.013 -0.192,-0.021c0.061,0.004 0.122,0.008 0.188,0.008l0.004,0.013Z" style="fill:#b9d3ee;fill-rule:nonzero;"/><path d="M667.224,1670.21c-2.177,-1.832 -4.459,-3.573 -6.828,-5.208c-5.374,-3.713 -11.203,-6.898 -17.262,-9.402c6.059,2.504 11.888,5.689 17.262,9.402c2.4,1.64 4.686,3.38 6.828,5.208Z" style="fill:#fff;fill-rule:nonzero;"/><path d="M650.746,1745.25c-1.618,0 -3.263,-0.078 -4.916,-0.187l-8.581,-28.745c0.471,0.035 0.942,0.061 1.413,0.074c0.245,0.005 0.489,0.009 0.733,0.009c4.694,0 8.555,-1.252 11.299,-3.394c4.441,-3.451 5.968,-9.214 3.399,-15.731c-1.427,-3.617 -3.901,-6.994 -7.072,-9.868c-0.384,-0.349 -0.781,-0.694 -1.182,-1.03l28.02,-9.947c6.016,6.3 10.78,13.367 13.72,20.836c0.454,1.152 0.86,2.299 1.213,3.433c3.739,11.984 1.889,22.755 -4.323,30.704c-6.697,8.559 -18.449,13.846 -33.723,13.846Zm-56.948,-23.291c-0.275,-0.253 -0.55,-0.506 -0.82,-0.759c-1.274,-1.196 -2.5,-2.422 -3.678,-3.682c-0.968,-1.043 -1.898,-2.103 -2.783,-3.185l25.08,-13.192c-0.096,-0.162 -0.192,-0.327 -0.288,-0.493c0.096,0.166 0.192,0.331 0.288,0.493c0.428,0.654 0.877,1.295 1.357,1.924c0.379,0.497 0.776,0.981 1.195,1.461l-20.351,17.433Zm-11.421,-13.04c-0.105,-0.153 -0.21,-0.305 -0.314,-0.462c-2.203,-3.277 -4.066,-6.688 -5.528,-10.191c-0.139,-0.332 -0.274,-0.659 -0.405,-0.99c-2.182,-5.545 -3.189,-10.868 -3.137,-15.819c0.057,-5.026 1.204,-9.667 3.324,-13.777c5.554,-10.754 17.773,-17.816 34.495,-18.366l0.009,0c0.698,-0.026 1.409,-0.035 2.124,-0.035c1.069,0 2.142,0.026 3.215,0.074c0.384,0.026 0.768,0.057 1.156,0.1c3.63,0.219 7.286,0.725 10.915,1.497c-3.629,-0.772 -7.285,-1.278 -10.915,-1.497l8.573,28.723c-0.066,0 -0.127,-0.004 -0.188,-0.008c-0.484,-0.053 -0.947,-0.053 -1.409,-0.053c-12.259,0 -18.829,8.564 -14.658,19.161c0.039,0.096 0.078,0.192 0.118,0.287c0.196,0.476 0.41,0.947 0.645,1.414l-28.02,9.942Zm60.949,-24.456c-1.034,-0.751 -2.133,-1.427 -3.255,-2.068l20.325,-17.393c2.369,1.635 4.651,3.376 6.828,5.208c0.414,0.354 0.824,0.707 1.226,1.069c0.58,0.498 1.147,1.004 1.705,1.514c-0.558,-0.51 -1.125,-1.016 -1.705,-1.514l-25.124,13.184Z" style="fill:#437ec0;fill-rule:nonzero;"/><path d="M621.19,1739.16c-4.628,-1.872 -9.131,-4.136 -13.397,-6.731c0.004,0 0.004,-0.005 0.004,-0.005c4.267,2.596 8.765,4.86 13.393,6.736Z" style="fill:#aab2b5;fill-rule:nonzero;"/><path d="M607.793,1732.43l0.004,-0.005c0,0 0,0.005 -0.004,0.005Z" style="fill:#6396cf;fill-rule:nonzero;"/><path d="M607.793,1732.43c-3.878,-2.361 -7.569,-4.991 -10.994,-7.853c3.429,2.857 7.12,5.488 10.998,7.848l-0.004,0.005Z" style="fill:#c5daf1;fill-rule:nonzero;"/><path d="M637.249,1716.31c-4.777,-0.375 -9.624,-1.976 -13.947,-4.419c4.323,2.438 9.165,4.031 13.934,4.384l0.013,0.035Z" style="fill:#aab2b5;fill-rule:nonzero;"/><path d="M623.302,1711.89c-0.005,0 -0.009,-0.005 -0.009,-0.005c0.004,0 0.004,0 0.009,0.005Z" style="fill:#e3e3e3;fill-rule:nonzero;"/><path d="M623.293,1711.89c-3.494,-1.971 -6.644,-4.493 -9.144,-7.368c2.496,2.871 5.65,5.397 9.144,7.368Z" style="fill:#c5daf1;fill-rule:nonzero;"/><path d="M645.83,1745.06c-8.285,-0.598 -16.661,-2.666 -24.64,-5.894c-4.628,-1.876 -9.126,-4.14 -13.393,-6.736c-3.878,-2.36 -7.569,-4.991 -10.998,-7.848c-1.025,-0.855 -2.024,-1.732 -3.001,-2.626l20.351,-17.433c2.5,2.875 5.65,5.397 9.144,7.368c0,0 0.004,0.005 0.009,0.005c4.323,2.443 9.17,4.044 13.947,4.419l8.581,28.745Z" style="fill:#6396cf;fill-rule:nonzero;"/><path d="M628.642,1678.47c-0.598,-0.092 -1.2,-0.161 -1.802,-0.214l0,-0.008c0.597,0.052 1.199,0.13 1.802,0.222Z" style="fill:#aab2b5;fill-rule:nonzero;"/><path d="M626.84,1678.26c-0.005,0 -0.013,0 -0.018,-0.004l0,-0.009c0.005,0.005 0.009,0.005 0.018,0.005l0,0.008Z" style="fill:#e3e3e3;fill-rule:nonzero;"/><path d="M626.822,1678.25c-0.309,-0.026 -0.619,-0.048 -0.929,-0.066l-0.004,-0.013c0.31,0.022 0.619,0.044 0.933,0.07l0,0.009Z" style="fill:#c5daf1;fill-rule:nonzero;"/><path d="M660.396,1665c-5.379,-3.713 -11.22,-6.893 -17.293,-9.402l0.031,0c6.059,2.504 11.888,5.689 17.262,9.402Zm-20.028,-10.492l-0.035,0c-0.554,-0.21 -1.112,-0.415 -1.671,-0.611l0,-0.009c0.572,0.201 1.139,0.406 1.706,0.62Z" style="fill:#fff;fill-rule:nonzero;"/><path d="M643.134,1655.6l-0.031,0c-0.92,-0.379 -1.841,-0.746 -2.77,-1.09l0.035,0c0.925,0.349 1.845,0.711 2.766,1.09Z" style="fill:#ebeceb;fill-rule:nonzero;"/><path d="M638.662,1653.89c-3.433,-1.209 -6.919,-2.199 -10.431,-2.949c3.508,0.741 6.998,1.732 10.431,2.94l0,0.009Z" style="fill:#aab2b5;fill-rule:nonzero;"/><path d="M640.071,1682.39c-3.568,-1.95 -7.481,-3.333 -11.429,-3.922c-0.603,-0.092 -1.205,-0.17 -1.802,-0.222c-0.009,0 -0.013,0 -0.018,-0.005c-0.314,-0.026 -0.623,-0.048 -0.933,-0.07l-8.573,-28.723c3.63,0.219 7.286,0.725 10.915,1.497c3.512,0.75 6.998,1.74 10.431,2.949c0.559,0.196 1.117,0.401 1.671,0.611c0.929,0.344 1.85,0.711 2.77,1.09c6.073,2.509 11.914,5.689 17.293,9.402l-20.325,17.393Z" style="fill:#6396cf;fill-rule:nonzero;"/><path d="M582.569,1709.2c0,-0.005 -0.005,-0.009 -0.009,-0.013c0.004,0.004 0.009,0.008 0.009,0.013Z" style="fill:#aab2b5;fill-rule:nonzero;"/><path d="M582.573,1709.2c0,0 0,-0.004 -0.004,-0.004l0.004,0.004Z" style="fill:#e3e3e3;fill-rule:nonzero;"/><path d="M584.728,1712.15c-0.759,-0.969 -1.474,-1.955 -2.155,-2.945c0.689,0.995 1.405,1.976 2.155,2.945Zm26.581,-11.504c-0.327,-0.55 -0.632,-1.108 -0.912,-1.671l0.035,-0.013c0.262,0.576 0.563,1.134 0.877,1.684Z" style="fill:#c5daf1;fill-rule:nonzero;"/><path d="M586.517,1714.33c-0.624,-0.72 -1.217,-1.448 -1.789,-2.181c-0.75,-0.969 -1.466,-1.95 -2.155,-2.945l-0.004,-0.004c0,-0.005 -0.005,-0.009 -0.009,-0.013c-0.061,-0.092 -0.122,-0.179 -0.183,-0.271l28.02,-9.942c0.28,0.563 0.585,1.121 0.912,1.671c0.096,0.166 0.192,0.331 0.288,0.493l-25.08,13.192Z" style="fill:#6396cf;fill-rule:nonzero;"/><path d="M645.83,1686.37c-0.17,-0.144 -0.345,-0.288 -0.515,-0.428c0.175,0.14 0.349,0.284 0.524,0.428l-0.009,0Zm28.029,-9.947c-1.186,-1.243 -2.421,-2.456 -3.704,-3.638c1.296,1.182 2.539,2.399 3.726,3.63l-0.022,0.008Z" style="fill:#fff;fill-rule:nonzero;"/><path d="M645.839,1686.37c-0.175,-0.144 -0.349,-0.288 -0.524,-0.428c-0.632,-0.519 -1.287,-1.016 -1.989,-1.487l25.124,-13.184c0.58,0.498 1.147,1.004 1.705,1.514c1.283,1.182 2.518,2.395 3.704,3.638l-28.02,9.947Z" style="fill:#6396cf;fill-rule:nonzero;"/><path d="M1532.56,1370.46l1.57,67.929l7.155,307.249l23.601,0l7.111,-307.249l1.571,-67.929l-41.008,0Z" style="fill:#3073ba;fill-rule:nonzero;"/><path d="M1564.88,1745.63l-23.601,0l-7.111,-305.378l37.779,0l-3.673,158.792l-0.026,1.091l-3.368,145.495Z" style="fill:#76a6d9;fill-rule:nonzero;"/><path d="M1572,1440.26l-0.044,0l0.044,-1.871l0.781,-33.902l0.022,0l-0.803,35.773Zm0.829,-36.863l-0.022,0l0.358,-15.387l0.009,0l-0.345,15.387Z" style="fill:#c3c5c5;fill-rule:nonzero;"/><path d="M1572.8,1404.48l-0.022,0l0.026,-1.09l0.022,0l-0.026,1.09Z" style="fill:#b2b5b6;fill-rule:nonzero;"/><path d="M1534.17,1440.26l-0.044,0l-0.803,-35.773l0.018,0l0.785,33.902l0.044,1.871Zm-0.851,-36.863l-0.022,0l-0.349,-15.387l0.013,0l0.358,15.387Z" style="fill:#c3c5c5;fill-rule:nonzero;"/><path d="M1533.34,1404.48l-0.018,0l-0.026,-1.09l0.022,0l0.022,1.09Z" style="fill:#b2b5b6;fill-rule:nonzero;"/><path d="M1571.95,1440.26l-37.779,0l-0.044,-1.871l-1.165,-50.379l40.197,0l-0.358,15.387l-0.026,1.09l-0.781,33.902l-0.044,1.871Z" style="fill:#5c8bc8;fill-rule:nonzero;"/><path d="M1404.39,1744.54l21.804,-369.284l35.642,0l-30.525,369.284l-26.921,0Z" style="fill:#3073ba;fill-rule:nonzero;"/><path d="M1434.69,1704.34c-0.022,-0.004 -0.031,-0.004 -0.053,-0.004l3.521,-42.578l0.039,0l-3.507,42.582Zm6.107,-74.525l2.452,-29.678l0.026,0l-2.443,29.678l-0.035,0Zm2.57,-30.769l-0.027,0l8.394,-101.534l-8.367,101.534Z" style="fill:#fff;fill-rule:nonzero;"/><path d="M1443.28,1600.14l-0.026,0l0.091,-1.091l0.027,0l-0.092,1.091Z" style="fill:#f0f0f0;fill-rule:nonzero;"/><path d="M1431.38,1744.54l-26.943,0l26.878,0l3.324,-40.205c0.022,0 0.031,0 0.053,0.004l-3.312,40.201Z" style="fill:#f9f9f9;fill-rule:nonzero;"/><path d="M1423.58,1419.65c-0.008,-0.044 -0.008,-0.074 -0.013,-0.113l0.654,-11.125l0.227,-3.931l0.027,0l-0.895,15.169Zm0.96,-16.259l-0.026,0l0.898,-15.387l0.031,0l-0.087,1.514l-0.816,13.873Z" style="fill:#fff;fill-rule:nonzero;"/><path d="M1424.47,1404.48l-0.027,0l0.066,-1.09l0.026,0l-0.065,1.09Z" style="fill:#f0f0f0;fill-rule:nonzero;"/><path d="M1431.31,1744.54l-26.878,0l1.977,-33.565l22.999,3.158l-2.181,-37.077l0.035,0.004l-0.869,-14.527l11.762,-0.776l-3.521,42.578l-3.324,40.205Zm2.648,-114.407c-0.24,-44.228 -1.872,-132.591 -10.383,-210.484l0.895,-15.169l0.065,-1.09l0.816,-13.873l-1.135,20.198l34.748,0l-7.233,87.796l-8.394,101.534l-0.091,1.091l-2.452,29.678l-6.836,0.319Z" style="fill:#8ab3df;fill-rule:nonzero;"/><path d="M1459.08,1409.72l-0.087,0l0.432,-5.235l0.07,0l-0.415,5.235Zm0.497,-6.325l-0.061,0l1.27,-15.387l0.004,0l-1.213,15.387Z" style="fill:#c3c5c5;fill-rule:nonzero;"/><path d="M1459.49,1404.48l-0.07,0l0.091,-1.09l0.061,0l-0.082,1.09Z" style="fill:#b2b5b6;fill-rule:nonzero;"/><path d="M1458.99,1409.72l-0.022,0l0.109,-1.304l1.671,-20.408l0.035,0l-1.27,15.387l-0.091,1.09l-0.432,5.235Z" style="fill:#1f68b3;fill-rule:nonzero;"/><path d="M1425.35,1389.52l0.087,-1.514l0.004,0l-0.091,1.514Z" style="fill:#c3c5c5;fill-rule:nonzero;"/><path d="M1458.97,1409.72l-34.748,0l1.135,-20.198l0.091,-1.514l35.302,0l-1.671,20.408l-0.109,1.304Z" style="fill:#6c94cd;fill-rule:nonzero;"/><path d="M1674.83,1744.54l-30.525,-369.284l35.638,0l21.804,369.284l-26.917,0Z" style="fill:#3073ba;fill-rule:nonzero;"/><path d="M1672.54,1716.82c-0.03,0 -0.022,0 -0.056,-0.004l-7.168,-86.972l0.035,0l7.189,86.976Zm-7.276,-88.066l-0.035,0l-2.36,-28.614l0.026,0l2.369,28.614Zm-2.457,-29.705l-0.026,0l-8.603,-104.36l8.629,104.36Z" style="fill:#fff;fill-rule:nonzero;"/><path d="M1662.89,1600.14l-0.026,0l-0.088,-1.091l0.026,0l0.088,1.091Z" style="fill:#f0f0f0;fill-rule:nonzero;"/><path d="M1665.35,1629.84l-0.035,0l-0.087,-1.09l0.035,0l0.087,1.09Z" style="fill:#f0f0f0;fill-rule:nonzero;"/><path d="M1701.71,1744.54l-26.943,0l-2.286,-27.728c0.034,0.004 0.026,0.004 0.056,0.004l2.295,27.724l26.878,0Z" style="fill:#f9f9f9;fill-rule:nonzero;"/><path d="M1688.99,1528.43l-7.315,-123.944l0.021,0l0.231,3.931l7.063,120.013Zm-7.355,-125.034l-0.026,0l-0.811,-13.738l-0.092,-1.649l0.03,0l0.899,15.387Z" style="fill:#fff;fill-rule:nonzero;"/><path d="M1681.7,1404.48l-0.021,0l-0.066,-1.09l0.026,0l0.061,1.09Z" style="fill:#f0f0f0;fill-rule:nonzero;"/><path d="M1701.71,1744.54l-26.878,0l-2.295,-27.724l-7.189,-86.976l-0.087,-1.09l-2.369,-28.614l-0.088,-1.091l-8.629,-104.36l-6.997,-84.97l34.747,0l-1.129,-20.063l0.811,13.738l0.066,1.09l7.315,123.944l12.722,216.116Z" style="fill:#8ab3df;fill-rule:nonzero;"/><path d="M1647.16,1409.72l-0.087,0l-0.415,-5.235l0.066,0l0.436,5.235Zm-0.523,-6.325l-0.062,0l-1.212,-15.387l1.274,15.387Z" style="fill:#c3c5c5;fill-rule:nonzero;"/><path d="M1646.72,1404.48l-0.066,0l-0.083,-1.09l0.062,0l0.087,1.09Z" style="fill:#b2b5b6;fill-rule:nonzero;"/><path d="M1647.18,1409.72l-0.022,0l-0.436,-5.235l-0.087,-1.09l-1.274,-15.387l0.039,0l1.671,20.408l0.109,1.304Z" style="fill:#1f68b3;fill-rule:nonzero;"/><path d="M1680.8,1389.66l-0.096,-1.649l0.004,0l0.092,1.649Z" style="fill:#c3c5c5;fill-rule:nonzero;"/><path d="M1681.93,1409.72l-34.747,0l-0.109,-1.304l-1.671,-20.408l35.302,0l0.096,1.649l1.129,20.063Z" style="fill:#6c94cd;fill-rule:nonzero;"/><path d="M1428.91,1337.01l248.319,0c12.045,0 21.813,9.772 21.813,21.813l0,29.185l-291.945,0l0,-29.185c0,-12.041 9.768,-21.813 21.813,-21.813Z" style="fill:#3073ba;fill-rule:nonzero;"/><path d="M1401.89,1362.51l302.371,0c4.847,0 8.773,3.931 8.773,8.778l0,7.948c0,4.842 -3.926,8.773 -8.773,8.773l-302.371,0c-4.847,0 -8.778,-3.931 -8.778,-8.773l0,-7.948c0,-4.847 3.931,-8.778 8.778,-8.778Z" style="fill:#3073ba;fill-rule:nonzero;"/><path d="M1704.26,1388.01l-197.64,0l-1.496,-25.499l199.136,0c4.847,0 8.773,3.931 8.773,8.778l0,7.948c0,4.842 -3.926,8.773 -8.773,8.773Zm-229.041,0l-55.597,0c-1.247,-8.782 -2.608,-17.319 -4.083,-25.499l57.847,0l1.833,25.499Z" style="fill:#9ec1e6;fill-rule:nonzero;"/><path d="M1448.31,923.297c0,0 -1.221,3.315 -3.446,8.769c-2.269,5.671 -5.628,13.654 -9.772,22.646c-10.034,21.851 -24.605,49.554 -39.83,64.521c-4.494,4.402 -9.031,7.718 -13.524,9.423c-16.229,6.235 -56.931,7.369 -93.271,7.02c-35.773,-0.301 -67.401,-2.182 -67.401,-2.182l0,-27.523l119.489,-31.846c0,0 62.995,-113.692 100.251,-130.532l7.504,79.704Z" style="fill:#0c2b34;fill-rule:nonzero;"/><path d="M1408.65,1002.86c-5.213,-0.126 -10.588,-0.261 -15.984,-0.392c-1.418,-33.23 18.248,-63.689 31.864,-80.642c-2.941,19.475 -5.663,42.278 -7.543,67.942c-2.688,4.551 -5.475,8.961 -8.337,13.092Z" style="fill:#021e27;fill-rule:nonzero;"/><path d="M1429.41,1714.14l-34.752,-4.768l-4.816,-82.613l34.708,4.807l4.86,82.574Z" style="fill:#faaf75;fill-rule:nonzero;"/><path d="M1427.27,1677.06l-0.035,-0.004l-0.855,-14.523l0.021,0l0.869,14.527Z" style="fill:#6c94cd;fill-rule:nonzero;"/><path d="M1427.23,1677.06l-34.626,-3.041l-0.541,-9.222l34.312,-2.26l0.855,14.523Z" style="fill:#c58c5e;fill-rule:nonzero;"/><path d="M1428.02,1228.5l8.481,-53.11l194.83,-11.656c0,0 20.718,110.537 4.804,139.985c-20.291,37.53 -104.147,34.743 -166.771,31.96c-25.098,-1.117 -46.784,-2.234 -59.606,-0.755c26.786,109.543 24.169,323.617 24.169,323.617l-63.994,4.886c0,0 -49.249,-230.678 -59.204,-340.278c-6.719,-73.962 54.566,-72.125 117.291,-94.649Z" style="fill:#3073ba;fill-rule:nonzero;"/><path d="M1441.43,1661.55l-76.916,5.06l-6.583,-32.937l84.502,-3.926l-1.003,31.803Z" style="fill:#3073ba;fill-rule:nonzero;"/><path d="M1349.24,1683.29l-34.979,2.574l-21.922,-79.795l34.944,-2.526l21.957,79.747Z" style="fill:#faaf75;fill-rule:nonzero;"/><path d="M1294.44,1690.09c-0.881,-0.585 -1.396,-1.588 -1.343,-2.644c-0.061,-0.523 0.157,-1.034 0.576,-1.348c1.967,-1.483 8.371,-0.222 12.987,1.174c-5.706,2.879 -10.191,3.926 -12.22,2.818Zm4.59,-12.804c-0.061,-0.476 0.078,-1.104 1.165,-1.553l0.379,-0.136c0.633,-0.183 1.313,-0.095 1.876,0.245c2.543,1.365 4.306,6.653 5.13,9.872l-0.789,-0.244c-3.447,-1.893 -7.469,-5.824 -7.761,-8.184Zm10.5,9.768l-0.584,-0.101l-0.633,-0.035l0,-0.008l0.62,-0.005c-0.127,-0.528 -1.78,-10.322 -6.025,-12.651c-1.143,-0.589 -2.325,-0.641 -3.512,-0.153c-1.374,0.432 -2.203,1.741 -2.12,3.176c0.153,2.186 2.495,4.921 5.17,7.098c-3.669,-0.777 -7.827,-1.213 -9.812,0.266c-0.842,0.646 -1.282,1.688 -1.182,2.744c-0.131,1.684 0.729,3.289 2.194,4.123c2.199,0.815 4.629,0.776 6.802,-0.109c2.979,-0.908 5.85,-2.142 8.559,-3.674l0.301,-0.035l0.096,-0.27l0.126,-0.366Z" style="fill:#3073ba;fill-rule:nonzero;"/><path d="M1339.38,1647.48l-3.861,-14.026l0.022,-0.004l3.874,14.025l-0.035,0.005Zm-36.44,-2.823l-0.506,-1.85l0.506,1.85Z" style="fill:#c3c5c5;fill-rule:nonzero;"/><path d="M1304.88,1651.72l-1.941,-7.063l-0.506,-1.85l33.085,-9.353l3.861,14.026l-34.499,4.24Z" style="fill:#c58c5e;fill-rule:nonzero;"/><path d="M1280.49,1646.09l61.599,-18.1c0,0 -36.776,-207.57 -74.075,-279.551c2.792,-0.917 6.5,-2.099 11.08,-3.451c8.246,-2.487 19.196,-5.584 32.065,-9.157c89.519,-24.823 270.957,-71.371 270.957,-71.371l-82.888,-77.352c0,0 -330.157,50.343 -337.006,137.337c-3.272,41.832 118.268,321.645 118.268,321.645Z" style="fill:#3073ba;fill-rule:nonzero;"/><path d="M1350.04,1629.35l-74.172,20.971l-13.301,-30.844l81.828,-21.441l5.645,31.314Z" style="fill:#3073ba;fill-rule:nonzero;"/><path d="M1279.1,1344.98c-12.777,-33.147 -23.383,-86.418 31.105,-102.341c56.273,-16.412 111.912,-21.756 152.912,-23.052l0.606,8.442c-17.607,2.103 -34.29,4.258 -43.276,5.841c-29.578,5.231 -81.536,19.675 -101.735,44.276c-10.164,12.346 -10.121,36.558 -7.547,57.677c-12.869,3.573 -23.819,6.67 -32.065,9.157Zm217.9,-120.768l-0.288,-4.869c19.776,0.349 31.576,1.483 31.576,1.483c0,0 -13.524,1.41 -31.288,3.386Z" style="fill:#1f68b3;fill-rule:nonzero;"/><path d="M1642.14,1219.24c12.983,-9.964 0.515,-102.894 7.19,-194.311c10.164,-139.148 -0.009,-183.855 -10.265,-188.187c-18.921,-3.285 -38.059,-5.182 -57.259,-5.671c-28.099,-1.017 -56.228,-0.41 -84.258,1.819c-19.19,2.365 -38.163,6.225 -56.748,11.552c0,0 -45.911,146.114 -16.582,356.62l217.922,18.178Z" style="fill:#0c2b34;fill-rule:nonzero;"/><path d="M1642.13,1219.25l-2.818,-0.235c0,-0.005 0,-0.005 -0.004,-0.009l2.831,0.235c0.192,-0.144 0.375,-0.309 0.559,-0.493c-0.184,0.188 -0.376,0.354 -0.568,0.502Z" style="fill:#fff;fill-rule:nonzero;"/><path d="M1639.31,1219.02l-116.292,-9.707l116.288,9.698c0.004,0.004 0.004,0.004 0.004,0.009Z" style="fill:#caddf2;fill-rule:nonzero;"/><path d="M1523.02,1209.31l-27.035,-2.255l27.035,2.255Z" style="fill:#caddf2;fill-rule:nonzero;"/><path d="M1647.95,1195.09c1.265,-23.806 -0.759,-62.292 -0.729,-105.338c-0.03,43.041 1.998,81.527 0.729,105.338Zm1.793,-175.849c1.758,-24.976 2.844,-46.841 3.381,-65.879c0.004,0 0.004,-0.004 0.004,-0.004c-0.528,19.029 -1.623,40.881 -3.385,65.883Z" style="fill:#fff;fill-rule:nonzero;"/><path d="M1642.14,1219.24l-2.831,-0.235l-116.288,-9.698l-27.035,-2.255l-5.78,-98.349l0.079,0l-0.934,-14.872l17.668,0c5.214,0 9.432,-4.223 9.432,-9.432l0,-19.688l16.569,0c4.341,0 8.001,-2.932 9.096,-6.928c4.79,-1.108 9.118,-2.574 12.817,-4.467c9.07,-4.642 23.322,-19.688 38.386,-39.865c22.253,-6.566 43.761,-34.076 59.802,-60.094c-0.537,19.038 -1.623,40.903 -3.381,65.879c-0.136,1.884 -0.271,3.786 -0.41,5.706c-1.601,21.9 -2.099,43.891 -2.112,64.805c-0.03,43.046 1.994,81.532 0.729,105.338c-0.65,12.18 -2.16,20.526 -5.248,23.662c-0.184,0.184 -0.367,0.349 -0.559,0.493Zm-180.133,-15.028l-37.784,-3.155c-5.292,-37.997 -8.132,-73.901 -9.231,-107.226l39.053,0l1.209,16.468l6.753,93.913Zm-34.617,-158.365l-12.835,0c0.018,-1.047 0.035,-2.098 0.053,-3.141l12.939,1.662l-0.157,1.479Zm4.511,-42.439c-4.843,-0.113 -10.16,-0.24 -15.762,-0.375c1.741,-29.447 4.646,-55.461 7.866,-77.47c17.712,-27.654 52.088,-59.195 67.881,-73.028c3.664,4.537 9.903,8.419 20.067,10.426c2.692,0.528 5.445,0.772 8.232,0.772c14.803,0 30.652,-6.866 44.162,-14.902c7.216,7.189 18.122,18.575 28.108,31.026c-0.837,1.357 -1.662,2.748 -2.473,4.179c-19.968,35.267 -54.672,109.949 -69.282,113.64c-3.97,1.003 -12.28,1.37 -22.284,1.37c-26.812,0 -65.773,-2.626 -65.773,-2.626l-0.742,6.988Z" style="fill:#cbd0d1;fill-rule:nonzero;"/><path d="M1571.44,736.615c-4.738,27.214 -8.97,76.977 10.369,94.667c0,0 -21.031,25.975 -61.106,27.742c-34.747,1.527 -23.152,-25.918 -23.152,-25.918c30.089,-7.875 28.819,-30.302 23.109,-51.251l50.78,-45.24Z" style="fill:#faaf75;fill-rule:nonzero;"/><path d="M1523.62,796.753c-0.545,-5.043 -1.527,-10.025 -2.919,-14.898l30.045,-26.791c1.213,4.786 1.527,9.751 0.929,14.645c-0.973,12.102 -16.542,25.137 -28.055,27.044Z" style="fill:#c58c5e;fill-rule:nonzero;"/><path d="M1505.48,666.165c15.046,10.204 8.193,27.501 -25.844,54.571c-13.811,-17.93 -16.106,-52.73 -5.117,-61.482c10.989,-8.751 17.847,-1.928 30.961,6.911Z" style="fill:#0c2b34;fill-rule:nonzero;"/><path d="M1570.17,694.19c-1.632,36.767 -0.746,58.335 -18.938,77.513c-27.405,28.815 -73.024,12.787 -82.421,-23.741c-8.389,-32.806 -4.341,-87.438 31.345,-102.633c25.446,-10.993 54.985,0.729 65.979,26.176c3.088,7.145 4.471,14.915 4.035,22.685Z" style="fill:#faaf75;fill-rule:nonzero;"/><path d="M1515.5,705.192c0.048,2.988 -1.505,5.436 -3.455,5.462c-1.95,0.022 -3.551,-2.343 -3.599,-5.327c-0.048,-2.993 1.466,-5.431 3.407,-5.497c1.941,-0.061 3.394,2.422 3.647,5.362Z" style="fill:#0c2b34;fill-rule:nonzero;"/><path d="M1481.53,705.816c0.048,2.988 -1.505,5.44 -3.455,5.462c-1.955,0.022 -3.591,-2.33 -3.652,-5.362c-0.057,-3.027 1.505,-5.436 3.46,-5.462c1.95,-0.022 3.599,2.373 3.647,5.362Z" style="fill:#0c2b34;fill-rule:nonzero;"/><path d="M1492.63,707.033c-3.407,9.201 -8.071,17.886 -13.851,25.813c5.483,4.842 14.344,2.413 14.344,2.413l-0.493,-28.226Z" style="fill:#f08947;fill-rule:nonzero;"/><path d="M1524.6,694.321l1.113,-0.262c0.763,-0.594 0.912,-1.693 0.331,-2.469c-3.372,-4.551 -8.76,-7.164 -14.422,-7.007c-0.934,0.044 -1.654,0.842 -1.61,1.772l0.013,0.126c0.114,0.947 0.943,1.645 1.893,1.597c4.468,-0.053 8.682,2.05 11.326,5.645c0.349,0.384 0.837,0.602 1.356,0.598Z" style="fill:#0c2b34;fill-rule:nonzero;"/><path d="M1465.86,694.626c0.68,-0.018 1.291,-0.415 1.588,-1.025c1.762,-4.11 5.383,-7.124 9.741,-8.11c0.965,-0.149 1.623,-1.043 1.488,-2.003c-0.144,-0.942 -1.008,-1.605 -1.954,-1.496c-5.545,1.169 -10.183,4.943 -12.451,10.134c-0.406,0.868 -0.039,1.902 0.829,2.312l0.022,0.009l0.737,0.179Z" style="fill:#0c2b34;fill-rule:nonzero;"/><path d="M1554.98,661.894c-17.066,6.177 -14.645,24.648 11.718,59.195c17.799,-14.004 28.566,-47.216 20.002,-58.336c-8.564,-11.116 -16.809,-6.225 -31.72,-0.859Z" style="fill:#0c2b34;fill-rule:nonzero;"/><path d="M1588.16,723.266c-2.404,8.947 -8.258,16.573 -16.276,21.211c-10.671,6.024 -18.921,-2.823 -18.423,-14.419c0.458,-10.452 6.591,-26.188 18.466,-27.453c11.875,-1.265 19.134,9.68 16.233,20.661Z" style="fill:#faaf75;fill-rule:nonzero;"/><path d="M1519.68,740.816l-0.053,0.092c-0.654,1.091 -6.617,10.793 -21.878,10.797c-0.388,0 -0.785,-0.008 -1.191,-0.021c-0.632,-0.018 -1.16,0.475 -1.182,1.112c-0.022,0.632 0.476,1.165 1.113,1.182c0.423,0.013 0.846,0.022 1.26,0.022c8.695,0.004 14.715,-2.984 18.511,-5.999c3.795,-3.01 5.396,-6.015 5.448,-6.111c0.297,-0.563 0.083,-1.257 -0.475,-1.553c-0.563,-0.297 -1.257,-0.083 -1.553,0.479Z" style="fill:#0c2b34;fill-rule:nonzero;"/><path d="M1517.68,656.052c0,0 5.488,36.82 40.934,39.154c35.445,2.33 43.08,-19.579 43.08,-19.579c0,0 -5.453,0.811 -8.725,0.729c0,0 10.361,-17.874 0,-35.154c-10.361,-17.284 -45.707,-35.275 -71.93,-26.009c0,0 -25.054,-9.471 -49.637,4.807c-24.578,14.279 -20.216,45.362 -20.216,45.362c0,0 -1.09,-18.877 10.361,-24.16c0,0 -14.178,38.884 7.089,49.245c0,0 2.112,-38.251 49.044,-34.395Z" style="fill:#0c2b34;fill-rule:nonzero;"/><path d="M1457.36,1004c0,0 -126.579,-2.884 -133.66,-3.586c-7.084,-0.707 -37.103,-17.634 -43.451,-18.34c-6.347,-0.703 -23.47,26.096 -25.586,32.448c-2.116,6.348 47.862,23.274 52.8,22.568c4.938,-0.707 16.285,-6.064 16.285,-6.064l129.149,16.599l4.463,-43.625Z" style="fill:#faaf75;fill-rule:nonzero;"/><path d="M1090.18,1030.18l0,11.548c0,3.459 5.95,5.902 9.37,5.902l269.579,0c3.459,0 8.978,-2.443 8.978,-5.902l0,-11.548l-287.927,0Z" style="fill:#0c2b34;fill-rule:nonzero;"/><path d="M1375.13,1045.85l-91.687,0c1.745,-1.034 3.054,-2.46 3.054,-4.122l0,-11.548l-15.88,0l107.493,0l0,11.548c0,1.662 -1.274,3.088 -2.98,4.122Z" style="fill:#9da7aa;fill-rule:nonzero;"/><path d="M1283.44,1045.85l-190.085,0c-1.217,-0.698 -2.238,-1.575 -2.77,-2.582l174.179,0c4.031,0 6.818,-3.709 6.81,-7.809c-0.005,-0.65 -0.074,-1.309 -0.223,-1.964l-0.737,-3.315l15.88,0l0,11.548c0,1.662 -1.309,3.088 -3.054,4.122Z" style="fill:#7b8487;fill-rule:nonzero;"/><path d="M1046.96,888.458l32.095,146.053c1.043,4.79 5.707,8.756 10.418,8.756l175.3,0c4.668,0 7.669,-4.978 6.587,-9.773l-32.051,-144.487c-1.082,-4.75 -5.711,-7.154 -10.422,-7.154l-175.3,0c-4.707,0 -7.665,1.85 -6.627,6.605Z" style="fill:#0c2b34;fill-rule:nonzero;"/><path d="M1264.77,1043.27l-5.959,0c4.711,0 7.669,-4.978 6.626,-9.773l-32.09,-144.487c-1.043,-4.75 -5.711,-7.154 -10.423,-7.154l-169.34,0c-4.066,0 -6.827,1.378 -6.836,4.812c0.009,-3.434 2.77,-4.812 6.836,-4.812l175.3,0c4.711,0 9.34,2.404 10.422,7.154l32.051,144.487c0.149,0.655 0.218,1.314 0.223,1.964c0.008,4.1 -2.779,7.809 -6.81,7.809Z" style="fill:#9da7aa;fill-rule:nonzero;"/><path d="M1258.81,1043.27l-169.341,0c-4.711,0 -9.375,-3.966 -10.418,-8.756l-32.095,-146.053c-0.144,-0.65 -0.209,-1.248 -0.209,-1.793c0.009,-3.434 2.77,-4.812 6.836,-4.812l169.34,0c4.712,0 9.38,2.404 10.423,7.154l32.09,144.487c1.043,4.795 -1.915,9.773 -6.626,9.773Zm-116.406,-100.339c-8.201,0 -13.087,8.769 -10.993,19.592c2.137,10.771 10.513,19.54 18.671,19.54c8.202,0 13.131,-8.769 10.994,-19.54l-0.218,-0.876c-6.282,-2.356 -11.997,-9.424 -13.917,-17.839c-1.483,-0.567 -3.01,-0.877 -4.537,-0.877Z" style="fill:#c1c7c8;fill-rule:nonzero;"/><path d="M1150.08,982.06c-8.158,0 -16.534,-8.769 -18.671,-19.54c-2.094,-10.823 2.792,-19.592 10.993,-19.592c1.527,0 3.054,0.31 4.537,0.877c1.92,8.415 7.635,15.483 13.917,17.839l0.218,0.876c2.137,10.771 -2.792,19.54 -10.994,19.54Z" style="fill:#979ea0;fill-rule:nonzero;"/><path d="M1653.12,953.359c0.056,-1.898 0.104,-3.769 0.148,-5.614c-0.044,1.827 -0.092,3.686 -0.144,5.566l0,0.044c0,0 0,0.004 -0.004,0.004Z" style="fill:#c3c5c5;fill-rule:nonzero;"/><path d="M1593.32,1013.45c23.44,-31.397 48.847,-75.223 59.784,-111.685c0.275,7.403 0.423,15.552 0.423,24.5c0,6.701 -0.082,13.855 -0.257,21.477c-0.044,1.845 -0.092,3.716 -0.148,5.614c-16.041,26.018 -37.549,53.528 -59.802,60.094Z" style="fill:#9fa4a6;fill-rule:nonzero;"/><path d="M1639.07,836.744c64.692,23.314 -48.865,198.517 -84.132,216.574c-35.267,18.056 -128.04,-2.775 -128.04,-2.775l5.75,-54.121c0,0 73.443,4.947 88.057,1.256c14.61,-3.691 49.314,-78.373 69.282,-113.64c19.967,-35.266 49.083,-47.294 49.083,-47.294Z" style="fill:#0c2b34;fill-rule:nonzero;"/><path d="M1364.51,1666.61l-6.583,-32.937l84.502,-3.926l-1.003,31.803l-15.055,0.99l-34.312,2.26l-27.549,1.81Z" style="fill:#568ac7;fill-rule:nonzero;"/><path d="M1275.87,1650.32l-13.301,-30.844l81.828,-21.441l5.645,31.314l-14.519,4.105l-33.085,9.353l-26.568,7.513Z" style="fill:#568ac7;fill-rule:nonzero;"/><path d="M1310.82,1682.31l37.893,-10.574c1.305,-0.428 2.709,0.279 3.137,1.588l0.013,0.039l10.221,29.491c0.912,3.267 -0.977,6.661 -4.231,7.612c-13.28,3.477 -19.798,4.467 -36.506,8.991c-10.243,2.827 -30.215,9.389 -44.825,11.051c-14.606,1.662 -15.858,-12.822 -9.82,-14.815c14.3,-4.791 31.423,-19.697 38.852,-29.818c1.309,-1.741 3.163,-2.993 5.266,-3.565Z" style="fill:#0c2b34;fill-rule:nonzero;"/><path d="M1374.39,1709.37c-0.738,-0.754 -1.03,-1.841 -0.764,-2.862c0.053,-0.523 0.375,-0.981 0.851,-1.204c2.229,-1.034 8.228,1.532 12.451,3.861c-6.178,1.619 -10.78,1.715 -12.538,0.205Zm7.158,-11.56c0.035,-0.48 0.306,-1.074 1.466,-1.279l0.397,-0.052c0.655,-0.052 1.305,0.179 1.785,0.628c2.198,1.863 2.822,7.403 2.957,10.719l-0.719,-0.397c-2.976,-2.57 -6.091,-7.251 -5.886,-9.619Zm9.65,11.643l0,-0.065c0,-0.615 -0.589,-10.523 -4.24,-13.677c-0.995,-0.811 -2.635,-1.147 -3.896,-0.912c-1.435,0.131 -2.761,1.226 -2.979,2.653c-0.31,2.168 1.291,5.322 3.451,8.005c-3.425,-1.522 -7.461,-2.818 -9.712,-1.789c-0.959,0.463 -1.635,1.383 -1.758,2.439c-0.48,1.619 0.013,3.364 1.27,4.485c1.985,1.256 4.358,1.727 6.67,1.313c3.106,-0.271 6.16,-0.877 9.131,-1.806l0.301,0.026l0.144,-0.249l0.886,-0.331l0.732,-0.092Z" style="fill:#3073ba;fill-rule:nonzero;"/><path d="M1392.04,1705.18l39.263,-2.452c1.366,-0.144 2.592,0.842 2.74,2.208l0,0.039l3.856,30.978c0.21,3.385 -2.342,6.308 -5.723,6.561c-13.716,0.633 -20.295,0.249 -37.579,1.191c-10.605,0.633 -31.506,2.888 -46.138,1.471c-14.637,-1.414 -12.844,-15.845 -6.522,-16.534c14.985,-1.706 34.83,-12.717 44.21,-21.072c1.644,-1.43 3.717,-2.272 5.893,-2.39Z" style="fill:#0c2b34;fill-rule:nonzero;"/><path d="M1217.17,1745.63l26.725,0l4.363,-668.546l-35.455,0l4.367,668.546Z" style="fill:#3073ba;fill-rule:nonzero;"/><path d="M1216.86,1698.94l-0.022,0l-0.646,-98.798l0.022,0l0.646,98.798Zm-0.65,-99.889l-0.026,0l-0.72,-109.844c0.009,0.017 0.022,0.048 0.026,0.065l0.72,109.779Z" style="fill:#fff;fill-rule:nonzero;"/><path d="M1216.22,1600.14l-0.022,0l-0.008,-1.091l0.026,0l0.004,1.091Z" style="fill:#eee;fill-rule:nonzero;"/><path d="M1243.89,1745.63l-26.743,0l-0.305,-46.697l0.022,0l0.305,46.697l26.721,0Z" style="fill:#f8f8f8;fill-rule:nonzero;"/><path d="M1214.02,1268.31l-0.532,-81.078l0.03,0l0.532,81.065c-0.008,0.004 -0.026,0.009 -0.03,0.013Z" style="fill:#fff;fill-rule:nonzero;"/><path d="M1215.49,1489.27c-0.004,-0.017 -0.017,-0.048 -0.026,-0.065l-1.444,-220.897c0.004,-0.004 0.022,-0.009 0.03,-0.013l1.44,220.975Z" style="fill:#76a6d9;fill-rule:nonzero;"/><path d="M1247.11,1252.46l0.423,-65.233l0.009,0l-0.428,65.229l-0.004,0.004Z" style="fill:#fff;fill-rule:nonzero;"/><path d="M1245.39,1515.58l1.719,-263.113l0.004,-0.004l-1.723,263.117Z" style="fill:#76a6d9;fill-rule:nonzero;"/><path d="M1243.89,1745.63l-26.721,0l-0.305,-46.697l-0.646,-98.798l-0.004,-1.091l-0.72,-109.779l-1.44,-220.975l-0.532,-81.065l34.015,0l-0.423,65.233l-1.719,263.113l-1.505,230.059Z" style="fill:#76a6d9;fill-rule:nonzero;"/><path d="M1247.55,1187.23l-0.008,0l0.008,-1.2l0.598,-92.197l-0.598,93.397Zm-34.062,0l-0.009,0l-0.598,-93.397l0.598,92.197l0.009,1.2Z" style="fill:#c3c5c5;fill-rule:nonzero;"/><path d="M1247.55,1187.23l-0.009,0l0.611,-93.397l0.004,0l-0.598,92.197l-0.008,1.2Zm-34.024,0l-0.03,0l-0.009,-1.2l-0.598,-92.197l0.026,0l0.611,93.397Z" style="fill:#c3c5c5;fill-rule:nonzero;"/><path d="M1247.54,1187.23l-34.015,0l-0.611,-93.397l35.237,0l-0.611,93.397Z" style="fill:#5c8bc8;fill-rule:nonzero;"/><path d="M933.426,1745.63l26.724,0l48.019,-668.546l-35.454,0l-39.289,668.546Z" style="fill:#3073ba;fill-rule:nonzero;"/><path d="M936.244,1697.41l5.636,-95.74l0.005,0l-5.624,95.74l-0.017,0Zm27.375,-0.091l6.98,-97.18l0.013,0l-6.989,97.18l-0.004,0Zm7.071,-98.271l-0.013,0l36.17,-503.545l0.127,-1.671l0.061,0l-1.209,16.468l-35.136,488.748Zm-24.469,-71.148l0,-0.009l0.34,-5.767l-0.34,5.776Z" style="fill:#fff;fill-rule:nonzero;"/><path d="M970.612,1600.14l-0.013,0l0.078,-1.091l0.013,0l-0.078,1.091Z" style="fill:#f0f0f0;fill-rule:nonzero;"/><path d="M941.885,1601.67l-0.005,0l4.341,-73.779l0,0.009l-4.336,73.77Z" style="fill:#f9f9f9;fill-rule:nonzero;"/><path d="M960.15,1745.63l-26.742,0l2.836,-48.224l0.017,0l-2.835,48.224l26.724,0l3.469,-48.315l0.004,0l-3.473,48.315Z" style="fill:#f9f9f9;fill-rule:nonzero;"/><path d="M960.15,1745.63l-26.724,0l2.835,-48.224l5.624,-95.74l4.336,-73.77l0.34,-5.776l24.234,-411.824l0.096,-1.596l34.935,0l1.021,-13.201l-36.17,503.545l-0.078,1.091l-6.98,97.18l-3.469,48.315Z" style="fill:#8ab3df;fill-rule:nonzero;"/><path d="M970.856,1108.7l-0.061,0l0.934,-14.872l-0.873,14.872Z" style="fill:#c3c5c5;fill-rule:nonzero;"/><path d="M970.891,1108.7l-0.035,0l0.873,-14.872l0.048,0l-0.886,14.872Z" style="fill:#1f68b3;fill-rule:nonzero;"/><path d="M1006.85,1095.5l0.118,-1.671l0.009,0l-0.127,1.671Z" style="fill:#c3c5c5;fill-rule:nonzero;"/><path d="M1005.83,1108.7l-34.935,0l0.886,-14.872l35.188,0l-0.118,1.671l-1.021,13.201Z" style="fill:#6c94cd;fill-rule:nonzero;"/><path d="M1500.91,1745.63l26.725,0l-39.289,-668.546l-35.455,0l48.019,668.546Z" style="fill:#3073ba;fill-rule:nonzero;"/><path d="M1482.2,1485.13l-5.798,-80.642l0.005,0l5.793,80.642Zm-5.872,-81.732l-0.004,0l-1.108,-15.387l0.008,0l1.104,15.387Z" style="fill:#fff;fill-rule:nonzero;"/><path d="M1476.41,1404.48l-0.005,0l-0.078,-1.09l0.004,0l0.079,1.09Z" style="fill:#f0f0f0;fill-rule:nonzero;"/><path d="M1471.56,1337.01l-0.009,0l-0.087,-1.239l0.008,0l0.088,1.239Z" style="fill:#fff;fill-rule:nonzero;"/><path d="M1473.39,1362.51l-0.009,0l-1.832,-25.499l0.009,0l1.832,25.499Z" style="fill:#8ab3df;fill-rule:nonzero;"/><path d="M1475.23,1388.01l-0.008,0l-1.833,-25.499l0.009,0l1.832,25.499Z" style="fill:#caddf2;fill-rule:nonzero;"/><path d="M1471.47,1335.77l-0.008,0l-3.01,-41.871l0.008,0l3.01,41.871Z" style="fill:#8ab3df;fill-rule:nonzero;"/><path d="M1468.46,1293.9l-4.738,-65.866l0.017,0l4.729,65.866l-0.008,0Zm-5.344,-74.308l-1.104,-15.373l0.017,0l1.104,15.373l-0.017,0Z" style="fill:#8ab3df;fill-rule:nonzero;"/><path d="M1463.72,1228.03l-0.606,-8.442l0.017,0l0.606,8.442l-0.017,0Z" style="fill:#83abdb;fill-rule:nonzero;"/><path d="M1462.03,1204.22l-0.017,0l0,-0.004l0.017,0.004Z" style="fill:#879397;fill-rule:nonzero;"/><path d="M1462.03,1204.22l-0.017,-0.004l-6.753,-93.913l-1.209,-16.468l0.052,0l7.927,110.385Z" style="fill:#e3e5e5;fill-rule:nonzero;"/><path d="M1527.63,1745.63l-26.699,0l-18.728,-260.509l-5.793,-80.642l-0.079,-1.09l-1.104,-15.387l-1.832,-25.499l-1.832,-25.499l-0.088,-1.239l-3.01,-41.871l-4.729,-65.866l-0.606,-8.442l-1.104,-15.373l-7.927,-110.385l0.009,0l1.148,14.872l34.935,0l0.096,1.596l37.343,635.334Z" style="fill:#8ab3df;fill-rule:nonzero;"/><path d="M1490.29,1108.7l-0.079,0l-0.872,-14.872l0.017,0l0.934,14.872Z" style="fill:#9fa4a6;fill-rule:nonzero;"/><path d="M1490.21,1108.7l-0.017,0l-0.89,-14.872l0.035,0l0.872,14.872Z" style="fill:#1f68b3;fill-rule:nonzero;"/><path d="M1490.19,1108.7l-34.935,0l-1.148,-14.872l35.193,0l0.89,14.872Z" style="fill:#6c94cd;fill-rule:nonzero;"/><path d="M954.039,1093.83l552.981,0c5.214,0 9.432,-4.223 9.432,-9.432l0,-24.055l-571.845,0l0,24.055c0,5.209 4.223,9.432 9.432,9.432Z" style="fill:#3073ba;fill-rule:nonzero;"/><path d="M1507.02,1093.83l-552.981,0c-5.209,0 -9.432,-4.223 -9.432,-9.432l0,-19.688l0,12.376l571.845,0l0,7.312c0,5.209 -4.218,9.432 -9.432,9.432Z" style="fill:#9ec1e6;fill-rule:nonzero;"/><rect x="944.607" y="1064.71" width="571.845" height="12.376" style="fill:#7d9dca;fill-rule:nonzero;"/><path d="M928.042,1064.71l604.979,0c5.209,0 9.432,-4.219 9.432,-9.432c0,-5.209 -4.223,-9.432 -9.432,-9.432l-604.979,0c-5.209,0 -9.432,4.223 -9.432,9.432c0,5.213 4.223,9.432 9.432,9.432Z" style="fill:#3073ba;fill-rule:nonzero;"/><path d="M1533.02,1064.71l-604.979,0c-5.209,0 -9.432,-4.219 -9.432,-9.432c0,-5.209 4.223,-9.432 9.432,-9.432l604.979,0c5.209,0 9.432,4.223 9.432,9.432c0,5.213 -4.223,9.432 -9.432,9.432Z" style="fill:#9ec1e6;fill-rule:nonzero;"/><g><path d="M295.067,823.979l-200.192,0c-4.473,0 -8.098,-3.628 -8.098,-8.097l0,-158.312c0,-4.472 3.625,-8.097 8.098,-8.097l200.192,0c4.472,0 8.097,3.625 8.097,8.097l0,158.312c0,4.469 -3.625,8.097 -8.097,8.097Z" style="fill:#182f36;fill-rule:nonzero;"/><path d="M283.065,740.839l-0.44,0l0,-3.186l0.44,0l0,3.186Zm-9.591,0l-165.603,0l0,-3.186l169.266,0l-3.663,3.186Z" style="fill:#4b5b61;fill-rule:nonzero;"/><rect x="107.871" y="721.726" width="175.194" height="3.185" style="fill:#4b5b61;fill-rule:nonzero;"/><rect x="107.871" y="705.8" width="175.194" height="3.185" style="fill:#4b5b61;fill-rule:nonzero;"/><path d="M282.625,804.552l-175.194,0l0,-31.854l12.57,-12.569c1.806,-1.806 4.175,-2.711 6.542,-2.711c2.367,0 4.737,0.905 6.543,2.711c1.803,1.8 4.17,2.711 6.543,2.711c2.207,0 4.418,-0.787 6.179,-2.367c4.549,-4.084 10.308,-6.16 16.093,-6.16c4.784,0 9.584,1.42 13.735,4.303l3.829,2.66c5.182,3.602 11.155,5.361 17.089,5.361c8.113,0 16.153,-3.284 22.014,-9.62l8.661,-9.362c3.026,-3.271 7.161,-4.947 11.317,-4.947c3.386,0 6.788,1.112 9.62,3.38c2.819,2.252 6.224,3.376 9.626,3.376c3.613,0 7.218,-1.267 10.114,-3.784l14.719,-12.798l0,71.67Z" style="fill:#608dc9;fill-rule:nonzero;"/><path d="M107.431,804.552l31.866,-30.165c4.068,-3.944 10.614,-3.654 14.322,0.634c3.663,4.236 10.113,4.574 14.2,0.745l14.981,-14.038c6.651,-6.231 16.831,-6.747 24.074,-1.217c7.391,5.638 17.803,4.979 24.419,-1.548l0.755,-0.742c3.804,-3.752 9.907,-3.791 13.758,-0.086c4.246,4.084 10.859,4.38 15.452,0.694l21.367,-16.567l0,62.29l-175.194,0Z" style="fill:#3e75bb;fill-rule:nonzero;"/><path d="M244.659,684.092l-99.376,0c-3.775,0 -6.833,-3.058 -6.833,-6.833c0,-3.775 3.058,-6.832 6.833,-6.832l99.376,0c3.775,0 6.833,3.057 6.833,6.832c0,3.775 -3.058,6.833 -6.833,6.833Z" style="fill:#4b5b61;fill-rule:nonzero;"/></g><g><path d="M1268.01,805.268l-181.72,0c-2.837,0 -5.138,-2.301 -5.138,-5.141l0,-173.342c0,-2.837 2.301,-5.138 5.138,-5.138l181.72,0c2.839,0 5.14,2.301 5.14,5.138l0,173.342c0,2.84 -2.301,5.141 -5.14,5.141Z" style="fill:#182f36;fill-rule:nonzero;"/><path d="M1213.23,731.349c0,29.131 -23.615,52.747 -52.747,52.747c-29.131,0 -52.747,-23.616 -52.747,-52.747c0,-29.133 23.616,-52.747 52.747,-52.747c29.132,0 52.747,23.614 52.747,52.747Z" style="fill:#3e75bb;fill-rule:nonzero;"/><path d="M1160.48,784.096c-28.937,0 -52.747,-23.81 -52.747,-52.747l0,-0.214c0.09,-22.292 14.306,-42.238 35.368,-49.589l17.379,49.803l42.104,-31.774c6.861,9.094 10.596,20.169 10.643,31.558l0,0.216c0,28.937 -23.811,52.747 -52.747,52.747Z" style="fill:#608dc9;fill-rule:nonzero;"/><path d="M1160.48,731.349l40.873,-33.341c7.678,9.411 11.874,21.194 11.874,33.341c0,28.937 -23.811,52.747 -52.747,52.747c-28.937,0 -52.747,-23.81 -52.747,-52.747c0,-11.142 3.53,-22.001 10.08,-31.013l42.667,31.013Z" style="fill:#fff;fill-rule:nonzero;"/><path d="M1243.85,705.429l-11.439,0c-1.505,0 -2.726,-1.219 -2.726,-2.725l0,-11.44c0,-1.504 1.221,-2.725 2.726,-2.725l11.439,0c1.506,0 2.726,1.221 2.726,2.725l0,11.44c0,1.506 -1.22,2.725 -2.726,2.725Z" style="fill:#3e75bb;fill-rule:nonzero;"/><path d="M1243.85,770.902l-11.439,0c-1.505,0 -2.726,-1.222 -2.726,-2.726l0,-11.439c0,-1.505 1.221,-2.726 2.726,-2.726l11.439,0c1.506,0 2.726,1.221 2.726,2.726l0,11.439c0,1.504 -1.22,2.726 -2.726,2.726Z" style="fill:#fff;fill-rule:nonzero;"/><path d="M1243.85,738.166l-11.439,0c-1.505,0 -2.726,-1.222 -2.726,-2.726l0,-11.439c0,-1.505 1.221,-2.726 2.726,-2.726l11.439,0c1.506,0 2.726,1.221 2.726,2.726l0,11.439c0,1.504 -1.22,2.726 -2.726,2.726Z" style="fill:#608dc9;fill-rule:nonzero;"/><path d="M1240.06,651.807l-125.812,0c-2.396,0 -4.338,-1.942 -4.338,-4.338c0,-2.396 1.942,-4.337 4.338,-4.337l125.812,0c2.394,0 4.338,1.941 4.338,4.337c0,2.396 -1.944,4.338 -4.338,4.338Z" style="fill:#4b5b61;fill-rule:nonzero;"/></g></g></svg>