<?xml version="1.0" encoding="UTF-8" standalone="no"?><!DOCTYPE svg PUBLIC "-//W3C//DTD SVG 1.1//EN" "http://www.w3.org/Graphics/SVG/1.1/DTD/svg11.dtd"><svg width="100%" height="100%" viewBox="0 0 96 96" version="1.1" xmlns="http://www.w3.org/2000/svg" xmlns:xlink="http://www.w3.org/1999/xlink" xml:space="preserve" xmlns:serif="http://www.serif.com/" style="fill-rule:evenodd;clip-rule:evenodd;stroke-linejoin:round;stroke-miterlimit:2;"><rect id="Artboard1" x="0" y="0" width="96" height="96" style="fill:none;"/><path d="M31.413,69.108c-0.475,0.476 -0.565,1.215 -0.215,1.79l11.757,19.352c0.817,1.345 2.188,2.196 3.86,2.397c0.252,0.03 0.507,0.045 0.764,0.045c1.898,0 3.892,-0.808 5.252,-2.168c1.544,-1.544 2.377,-3.905 2.123,-6.016c-0.201,-1.672 -1.053,-3.043 -2.397,-3.86l-19.353,-11.756c-0.576,-0.349 -1.315,-0.26 -1.791,0.216Zm5.382,5.381l14.246,8.654c0.579,0.352 0.92,0.928 1.015,1.714c0.149,1.236 -0.369,2.684 -1.289,3.603c-0.92,0.92 -2.367,1.437 -3.603,1.289c-0.786,-0.095 -1.363,-0.436 -1.714,-1.015l-8.655,-14.245Zm-34.034,11.061c-0,0.806 0.653,1.459 1.459,1.459c0.806,0 1.459,-0.653 1.459,-1.459c0,-23.336 18.985,-42.32 42.321,-42.32c23.336,0 42.321,18.985 42.321,42.32c0,0.806 0.653,1.459 1.459,1.459c0.806,0 1.459,-0.653 1.459,-1.459c0,-12.084 -4.706,-23.444 -13.25,-31.989c-8.544,-8.545 -19.905,-13.25 -31.989,-13.25c-12.084,0 -23.444,4.706 -31.989,13.25c-8.545,8.544 -13.25,19.905 -13.25,31.989Zm80.608,-1.459l3.846,0c0.806,0 1.459,0.653 1.459,1.459c0,0.806 -0.653,1.459 -1.459,1.459l-3.846,0c-0.806,0 -1.459,-0.653 -1.459,-1.459c0,-0.806 0.653,-1.459 1.459,-1.459Zm-74.584,0l3.846,0c0.806,0 1.459,0.653 1.459,1.459c0,0.806 -0.653,1.459 -1.459,1.459l-3.846,0c-0.806,0 -1.459,-0.653 -1.459,-1.459c-0,-0.806 0.653,-1.459 1.459,-1.459Zm69.116,-17.489l3.331,-1.923c0.698,-0.403 1.591,-0.164 1.993,0.534c0.403,0.698 0.164,1.59 -0.534,1.993l-3.331,1.923c-0.23,0.133 -0.481,0.196 -0.728,0.196c-0.504,0 -0.995,-0.262 -1.265,-0.73c-0.403,-0.698 -0.164,-1.59 0.534,-1.993Zm-65.126,-1.389c0.403,-0.698 1.295,-0.937 1.993,-0.534l3.331,1.923c0.698,0.403 0.937,1.295 0.534,1.993c-0.27,0.468 -0.761,0.73 -1.265,0.73c-0.247,0 -0.498,-0.063 -0.728,-0.196l-3.331,-1.923c-0.698,-0.402 -0.937,-1.295 -0.534,-1.993Zm53.569,-14.354c0.403,-0.698 1.295,-0.937 1.994,-0.534c0.698,0.403 0.937,1.296 0.534,1.994l-1.923,3.331c-0.27,0.468 -0.761,0.73 -1.265,0.73c-0.247,0 -0.498,-0.063 -0.728,-0.196c-0.698,-0.403 -0.937,-1.296 -0.534,-1.994l1.922,-3.331Zm-38.681,-0.534c0.698,-0.403 1.591,-0.164 1.993,0.534l1.923,3.331c0.403,0.698 0.164,1.59 -0.534,1.993c-0.23,0.133 -0.481,0.196 -0.728,0.196c-0.504,0 -0.995,-0.262 -1.265,-0.73l-1.923,-3.331c-0.403,-0.697 -0.164,-1.59 0.534,-1.993Zm18.878,-0.144l0,-3.846c0,-0.806 0.653,-1.459 1.459,-1.459c0.806,0 1.459,0.653 1.459,1.459l0,3.846c0,0.806 -0.653,1.459 -1.459,1.459c-0.806,0 -1.459,-0.653 -1.459,-1.459Zm-14.931,-27.024c-0.441,-0.408 -0.586,-1.044 -0.367,-1.603c0.219,-0.559 0.758,-0.927 1.359,-0.927l4.274,0l0,-15.86c0,-0.806 0.653,-1.459 1.459,-1.459l6.881,0c0.806,0 1.459,0.653 1.459,1.459l0,28.995c0,0.58 -0.343,1.105 -0.875,1.337c-0.188,0.082 -0.387,0.122 -0.584,0.122c-0.361,0 -0.716,-0.134 -0.992,-0.388l-12.614,-11.676Zm17.715,10.604l0,-28.994c0,-0.58 0.343,-1.105 0.875,-1.337c0.531,-0.232 1.15,-0.128 1.576,0.266l12.614,11.675c0.441,0.408 0.586,1.044 0.367,1.603c-0.219,0.559 -0.758,0.927 -1.359,0.927l-4.274,0l-0,15.86c-0,0.806 -0.653,1.459 -1.459,1.459l-6.881,0c-0.806,0.001 -1.459,-0.653 -1.459,-1.459Zm2.918,-1.459l3.962,0l0,-15.86c0,-0.806 0.653,-1.459 1.459,-1.459l2.009,0l-7.43,-6.877l0,24.196Zm-15.917,-8.757l7.43,6.877l-0,-24.196l-3.962,0l-0,15.86c-0,0.806 -0.653,1.459 -1.459,1.459l-2.009,0Z" style="fill:url(#_Linear1);fill-rule:nonzero;"/><defs><linearGradient id="_Linear1" x1="0" y1="0" x2="1" y2="0" gradientUnits="userSpaceOnUse" gradientTransform="matrix(90.4797,0,0,102.815,2.76125,48.2153)"><stop offset="0" style="stop-color:#1685ff;stop-opacity:1"/><stop offset="0.5" style="stop-color:#8b5cf6;stop-opacity:1"/><stop offset="1" style="stop-color:#d946ef;stop-opacity:1"/></linearGradient></defs></svg>