<?xml version="1.0" encoding="UTF-8" standalone="no"?>
<!DOCTYPE svg PUBLIC "-//W3C//DTD SVG 1.1//EN" "http://www.w3.org/Graphics/SVG/1.1/DTD/svg11.dtd">
<svg width="60" height="60" viewBox="0 0 60 60" version="1.1" xmlns="http://www.w3.org/2000/svg" xmlns:xlink="http://www.w3.org/1999/xlink" xml:space="preserve" xmlns:serif="http://www.serif.com/" style="fill-rule:evenodd;clip-rule:evenodd;stroke-linejoin:round;stroke-miterlimit:2;">
    <g transform="matrix(0.741927,0,0,0.741927,-7.09639,-7.09629)">
        <path d="M47.016,26.951C48.984,27.484 50.862,28.265 52.621,29.274L57.616,24.279C58.036,23.859 58.717,23.859 59.138,24.279L66.473,31.615C66.893,32.035 66.893,32.716 66.473,33.137L61.478,38.132C62.486,39.889 63.269,41.773 63.802,43.737L70.864,43.737C71.458,43.737 71.94,44.219 71.94,44.813L71.94,55.187C71.94,55.781 71.458,56.263 70.864,56.263L63.803,56.263C63.27,58.227 62.487,60.112 61.479,61.869L66.473,66.863C66.893,67.284 66.893,67.965 66.473,68.385L59.138,75.72C58.717,76.141 58.036,76.141 57.616,75.72L52.621,70.725C50.864,71.734 48.982,72.516 47.016,73.049L47.016,80.111C47.016,80.706 46.534,81.188 45.939,81.188L35.566,81.188C34.971,81.188 34.489,80.706 34.489,80.111L34.489,73.051C32.525,72.518 30.641,71.735 28.884,70.726L23.889,75.72C23.469,76.141 22.788,76.141 22.367,75.72L15.032,68.385C14.612,67.965 14.612,67.283 15.032,66.863L20.027,61.868C19.018,60.11 18.236,58.231 17.703,56.263L10.641,56.263C10.047,56.263 9.565,55.781 9.565,55.187L9.565,44.813C9.565,44.219 10.047,43.737 10.641,43.737L17.702,43.737C18.235,41.773 19.018,39.888 20.026,38.131L15.032,33.137C14.612,32.716 14.612,32.035 15.032,31.615L22.367,24.279C22.788,23.859 23.469,23.859 23.889,24.279L28.884,29.275C30.642,28.266 32.522,27.484 34.489,26.951L34.489,19.889C34.489,19.294 34.971,18.812 35.566,18.812L45.939,18.812C46.534,18.812 47.016,19.294 47.016,19.889L47.016,26.951L47.016,26.951ZM39.676,40.124L39.676,40.837C38.679,41.048 37.787,41.546 37.093,42.24L37.095,42.243C33.971,45.106 35.91,51.076 40.753,51.076C42.428,51.076 43.776,52.425 43.776,54.1C43.776,56.787 40.514,58.137 38.614,56.238C37.181,54.805 38.276,53.024 36.653,53.024C34.41,53.024 35.726,58.327 39.676,59.164C39.676,59.763 39.576,60.953 40.753,60.953C41.929,60.953 41.829,59.763 41.829,59.163C42.794,58.958 43.661,58.483 44.346,57.821C47.665,54.69 45.438,48.924 40.753,48.924C38.05,48.924 36.725,45.652 38.612,43.76L38.614,43.762C39.796,42.58 41.716,42.584 42.893,43.76C44.322,45.19 43.228,46.977 44.852,46.977C47.053,46.977 45.849,41.69 41.829,40.837L41.829,40.124C41.829,38.707 39.676,38.707 39.676,40.124ZM40.752,32.562C31.123,32.562 23.314,40.37 23.314,50C23.314,65.484 42.124,73.289 53.083,62.331C64.042,51.371 56.236,32.562 40.752,32.562L40.752,32.562ZM51.561,39.192C41.957,29.587 25.467,36.424 25.467,50C25.467,63.576 41.957,70.413 51.561,60.808C57.53,54.839 57.53,45.16 51.561,39.191L51.561,39.192ZM84.67,32.706L79.253,32.706L79.253,70.167C79.253,71.496 77.694,71.243 76.7,71.243L81.962,78.314L87.224,71.243C86.229,71.243 84.67,71.496 84.67,70.167L84.67,32.706ZM78.177,30.554L85.747,30.554C86.341,30.554 86.823,31.036 86.823,31.63L86.823,69.091L89.362,69.094C90.217,69.093 90.755,70.091 90.224,70.806L82.601,80.973C82.125,81.326 81.453,81.226 81.1,80.75L73.751,70.875C73.114,70.086 73.708,69.091 74.561,69.091L77.101,69.091L77.101,31.63C77.101,31.036 77.583,30.554 78.177,30.554L78.177,30.554ZM45.767,28.849C45.255,28.767 44.863,28.322 44.863,27.786L44.863,20.965L36.642,20.965L36.64,27.786C36.64,28.276 36.303,28.719 35.805,28.833C33.728,29.312 31.093,30.346 29.334,31.508C28.914,31.803 28.33,31.764 27.954,31.388L23.128,26.562L17.314,32.375L22.14,37.201C22.485,37.547 22.56,38.097 22.291,38.529C21.162,40.344 20.029,42.9 19.599,44.999C19.511,45.505 19.069,45.889 18.539,45.889L11.717,45.889L11.717,54.11L18.539,54.113C19.029,54.112 19.472,54.449 19.586,54.947C20.065,57.024 21.098,59.66 22.26,61.418C22.556,61.838 22.516,62.422 22.141,62.798L17.315,67.624L23.128,73.438L27.954,68.612C28.3,68.268 28.849,68.192 29.282,68.461C31.097,69.59 33.653,70.723 35.752,71.153C36.258,71.242 36.642,71.683 36.642,72.214L36.642,79.035L44.863,79.035L44.865,72.213C44.865,71.723 45.202,71.28 45.7,71.166C47.776,70.687 50.412,69.654 52.171,68.492C52.591,68.196 53.175,68.236 53.551,68.611L58.377,73.438L64.19,67.624L59.365,62.798C59.02,62.452 58.944,61.903 59.213,61.47C60.342,59.656 61.476,57.1 61.906,55C61.994,54.495 62.435,54.11 62.966,54.11L69.788,54.11L69.788,45.889L62.965,45.889C62.476,45.888 62.034,45.553 61.918,45.057C61.431,42.963 60.414,40.352 59.244,38.581C58.949,38.161 58.988,37.577 59.364,37.202L64.19,32.375L58.377,26.562L53.551,31.388C53.205,31.733 52.655,31.808 52.223,31.539C50.233,30.3 48.049,29.387 45.767,28.849Z" style="fill:rgb(180,183,201);"/>
    </g>
</svg>
