<svg width="500" height="501" viewBox="0 0 500 501" fill="none" xmlns="http://www.w3.org/2000/svg">
<g clip-path="url(#clip0_243_292)">
<path d="M66.678 400.728H57.9502V401.072H66.678V400.728Z" fill="#EBEBEB"/>
<path d="M261.341 450.517C408.916 450.517 528.549 443.531 528.549 434.913C528.549 426.294 408.916 419.308 261.341 419.308C113.767 419.308 -5.86621 426.294 -5.86621 434.913C-5.86621 443.531 113.767 450.517 261.341 450.517Z" fill="#F5F5F5"/>
<path opacity="0.25" d="M339.745 433.131C339.745 434.649 283.838 435.879 214.871 435.879C145.904 435.879 89.9971 434.649 89.9971 433.131C89.9971 431.614 145.904 430.383 214.871 430.383C283.838 430.383 339.745 431.614 339.745 433.131Z" fill="#606060"/>
<path d="M301.439 185.798C359.892 254.218 372.077 333.563 300.181 401.179C243.51 454.475 145.699 437.208 87.2462 368.789C28.7935 300.369 29.3572 203.939 88.5045 153.408C147.652 102.876 242.986 117.377 301.439 185.798Z" fill="#0460C5"/>
<path d="M308.134 389.014C367.28 338.479 368.432 242.743 310.708 175.182C252.983 107.62 158.24 93.8167 99.0941 144.351C39.9477 194.886 38.7951 290.622 96.5197 358.184C154.244 425.745 248.987 439.548 308.134 389.014Z" fill="#1685FF"/>
<path d="M292.715 370.964C343.136 327.885 344.119 246.272 294.91 188.677C245.701 131.082 164.934 119.315 114.514 162.395C64.0925 205.474 63.1101 287.087 112.319 344.682C161.528 402.277 242.294 414.044 292.715 370.964Z" fill="white"/>
<path d="M278.525 354.359C320.916 318.14 321.742 249.524 280.37 201.102C238.997 152.679 171.094 142.786 128.702 179.005C86.3113 215.224 85.4855 283.839 126.858 332.262C168.23 380.685 236.134 390.578 278.525 354.359Z" fill="#1685FF"/>
<path d="M263.779 337.098C297.826 308.008 298.489 252.9 265.261 214.009C232.033 175.118 177.496 167.173 143.45 196.262C109.403 225.351 108.74 280.46 141.968 319.351C175.196 358.241 229.733 366.187 263.779 337.098Z" fill="white"/>
<path d="M248.891 319.677C274.513 297.786 275.012 256.314 250.006 227.046C225 197.778 183.957 191.799 158.335 213.69C132.714 235.581 132.214 277.054 157.221 306.322C182.227 335.589 223.269 341.569 248.891 319.677Z" fill="#1685FF"/>
<path d="M233.813 302.026C250.901 287.425 251.234 259.765 234.556 240.245C217.878 220.724 190.504 216.736 173.416 231.337C156.327 245.937 155.994 273.597 172.672 293.118C189.351 312.638 216.724 316.626 233.813 302.026Z" fill="white"/>
<path d="M217.003 255.25C224.227 263.706 224.083 275.688 216.679 282.012C209.276 288.337 197.42 286.608 190.195 278.152C182.971 269.696 183.116 257.714 190.519 251.39C197.921 245.066 209.779 246.794 217.003 255.25Z" fill="#1685FF"/>
<path d="M353.194 120.288C353.194 120.288 369.064 65.8002 377.253 65.8002C385.442 65.8002 388.814 84.1047 388.814 84.1047L353.194 120.288Z" fill="#FFA523"/>
<path d="M354.61 121.703C354.61 121.703 409.097 105.834 409.097 97.6451C409.097 89.4562 390.791 86.0839 390.791 86.0839L354.61 121.703Z" fill="#FFA523"/>
<path d="M390.265 84.9938L203.599 266.701" stroke="#004A67" stroke-width="2.0972" stroke-miterlimit="10"/>
<path d="M401.12 197.409C401.12 197.409 438.569 154.768 445.988 158.235C453.407 161.703 448.71 179.714 448.71 179.714L401.12 197.409Z" fill="#0070C0"/>
<path d="M401.802 199.292C401.802 199.292 457.883 207.989 461.351 200.571C464.819 193.152 449.665 182.346 449.665 182.346L401.802 199.292Z" fill="#0070C0"/>
<path d="M449.648 181.135L203.599 266.701" stroke="#004A67" stroke-width="2.0972" stroke-miterlimit="10"/>
<path d="M408.02 311.732C408.02 311.732 462.305 295.182 466.788 302.035C471.271 308.889 457.799 321.732 457.799 321.732L408.02 311.732Z" fill="#61CECB"/>
<path d="M407.609 313.692C407.609 313.692 450.719 350.601 457.572 346.118C464.426 341.635 457.226 324.47 457.226 324.47L407.609 313.692Z" fill="#61CECB"/>
<path d="M457.849 323.432L203.599 266.701" stroke="#004A67" stroke-width="2.0972" stroke-miterlimit="10"/>
<path d="M369.719 394.058C369.719 394.058 425.904 402.053 427.063 410.161C428.222 418.267 410.579 424.197 410.579 424.197L369.719 394.058Z" fill="#A353EA"/>
<path d="M368.517 395.66C368.517 395.66 391.941 447.351 400.047 446.192C408.153 445.033 408.9 426.435 408.9 426.435L368.517 395.66Z" fill="#A353EA"/>
<path d="M409.905 425.758L203.599 266.701" stroke="#004A67" stroke-width="2.0972" stroke-miterlimit="10"/>
</g>
<defs>
<clipPath id="clip0_243_292">
<rect width="500" height="500" fill="white" transform="translate(0 0.267456)"/>
</clipPath>
</defs>
</svg>
