<?xml version="1.0" encoding="UTF-8" standalone="no"?><!DOCTYPE svg PUBLIC "-//W3C//DTD SVG 1.1//EN" "http://www.w3.org/Graphics/SVG/1.1/DTD/svg11.dtd"><svg width="100%" height="100%" viewBox="0 0 512 512" version="1.1" xmlns="http://www.w3.org/2000/svg" xmlns:xlink="http://www.w3.org/1999/xlink" xml:space="preserve" xmlns:serif="http://www.serif.com/" style="fill-rule:evenodd;clip-rule:evenodd;stroke-linejoin:round;stroke-miterlimit:2;"><path d="M161.01,255.44c0.15,-25.44 10.29,-48.51 26.71,-65.48l-54.13,-54.01c-30.23,30.83 -48.92,73.01 -49.04,119.57l76.47,-0.09l-0.01,0.01Z" style="fill:#1478a9;fill-rule:nonzero;"/><path d="M256.67,161.01c25.52,0.18 48.64,10.41 65.61,26.94l54.01,-54.13c-30.82,-30.35 -73.07,-49.12 -119.71,-49.28l0.09,76.47Z" style="fill:#1478a9;fill-rule:nonzero;"/><path d="M189.12,188.54c16.88,-16.73 39.99,-27.17 65.55,-27.52l-0.09,-76.47c-46.67,0.38 -88.9,19.39 -119.6,49.98l54.13,54.01l0.01,0Z" style="fill:#1ba1e2;fill-rule:nonzero;"/><path d="M377.71,135.22l-54.01,54.13c16.71,16.98 27.09,40.21 27.29,65.86l76.47,-0.09c-0.23,-46.77 -19.18,-89.11 -49.75,-119.91l-0,0.01Z" style="fill:#1ba1e2;fill-rule:nonzero;"/><path d="M350.98,257.22c-0.32,25.52 -10.71,48.62 -27.37,65.5l54.13,54.01c30.49,-30.74 49.41,-72.96 49.71,-119.6l-76.47,0.09Z" style="fill:#1478a9;fill-rule:nonzero;"/><path d="M188.1,322.43c-16.45,-16.81 -26.71,-39.7 -27.08,-64.99l-76.47,0.09c0.41,46.4 19.24,88.4 49.54,119.04l54.01,-54.13l0,-0.01Z" style="fill:#1ba1e2;fill-rule:nonzero;"/><path d="M322.19,324.13c-16.91,16.43 -39.92,26.62 -65.31,26.85l0.09,76.47c46.5,-0.26 88.61,-19.03 119.35,-49.31l-54.13,-54.01Z" style="fill:#1ba1e2;fill-rule:nonzero;"/><path d="M254.89,350.99c-25.45,-0.29 -48.48,-10.59 -65.37,-27.14l-54.01,54.13c30.74,30.37 72.9,49.2 119.47,49.47l-0.09,-76.47l-0,0.01Z" style="fill:#1478a9;fill-rule:nonzero;"/><path d="M297.03,140.27l-3.76,0c-0.69,0 -1.25,-0.56 -1.25,-1.25l-0,-10.03c-0,-0.69 0.56,-1.25 1.25,-1.25l3.76,0l-0,12.54l-0,-0.01Zm29.68,-7.2l-12.54,-11.29c-0.51,-0.46 -1.31,-0.42 -1.77,0.09c-0.21,0.23 -0.32,0.53 -0.32,0.84l-0,5.02l-12.54,0l-0,12.54l12.54,0l-0,5.02c-0,0.69 0.56,1.25 1.25,1.25c0.31,0 0.61,-0.12 0.84,-0.33l12.54,-11.29c0.51,-0.47 0.55,-1.26 0.08,-1.77c-0.03,-0.03 -0.06,-0.06 -0.08,-0.08Z" style="fill:#fff;fill-rule:nonzero;"/><g><path d="M131.74,223.58c8.75,0 15.86,-7.11 15.86,-15.86c0,-8.75 -7.11,-15.86 -15.86,-15.86c-8.75,0 -15.86,7.11 -15.86,15.86c0,8.75 7.11,15.86 15.86,15.86Zm0,-29.99c7.79,0 14.13,6.34 14.13,14.13c0,7.79 -6.34,14.13 -14.13,14.13c-7.79,0 -14.13,-6.34 -14.13,-14.13c0,-7.79 6.34,-14.13 14.13,-14.13Z" style="fill:#fff;fill-rule:nonzero;"/><path d="M131.74,197.76c0.48,0 0.87,-0.39 0.87,-0.87l0,-0.72c0,-0.48 -0.39,-0.87 -0.87,-0.87c-0.48,0 -0.87,0.39 -0.87,0.87l0,0.72c0,0.48 0.39,0.87 0.87,0.87Z" style="fill:#fff;fill-rule:nonzero;"/><path d="M131.74,220.12c0.48,0 0.87,-0.39 0.87,-0.87l0,-0.72c0,-0.48 -0.39,-0.87 -0.87,-0.87c-0.48,0 -0.87,0.39 -0.87,0.87l0,0.72c0,0.48 0.39,0.87 0.87,0.87Z" style="fill:#fff;fill-rule:nonzero;"/><path d="M141.69,207.71c0,0.48 0.39,0.87 0.87,0.87l0.72,0c0.48,0 0.87,-0.39 0.87,-0.87c0,-0.48 -0.39,-0.87 -0.87,-0.87l-0.72,0c-0.48,0 -0.87,0.39 -0.87,0.87Z" style="fill:#fff;fill-rule:nonzero;"/><path d="M121.78,207.71c0,-0.48 -0.39,-0.87 -0.87,-0.87l-0.72,0c-0.48,0 -0.87,0.39 -0.87,0.87c0,0.48 0.39,0.87 0.87,0.87l0.72,0c0.48,0 0.87,-0.39 0.87,-0.87Z" style="fill:#fff;fill-rule:nonzero;"/><path d="M136.72,199.1c0.14,0.08 0.28,0.11 0.43,0.11c0.3,0 0.59,-0.16 0.75,-0.44l0.36,-0.62c0.24,-0.41 0.1,-0.94 -0.32,-1.18c-0.42,-0.24 -0.94,-0.09 -1.18,0.32l-0.36,0.62c-0.24,0.41 -0.1,0.94 0.32,1.18l0,0.01Z" style="fill:#fff;fill-rule:nonzero;"/><path d="M126.76,216.33c-0.42,-0.24 -0.94,-0.09 -1.18,0.32l-0.36,0.62c-0.24,0.41 -0.1,0.94 0.32,1.18c0.14,0.08 0.28,0.11 0.43,0.11c0.3,0 0.59,-0.16 0.75,-0.44l0.36,-0.62c0.24,-0.41 0.1,-0.94 -0.32,-1.18l0,0.01Z" style="fill:#fff;fill-rule:nonzero;"/><path d="M140.68,213.87l0.62,0.36c0.14,0.08 0.28,0.12 0.43,0.12c0.3,0 0.59,-0.16 0.75,-0.43c0.24,-0.41 0.1,-0.94 -0.32,-1.18l-0.62,-0.36c-0.41,-0.24 -0.94,-0.09 -1.18,0.32c-0.24,0.41 -0.1,0.94 0.32,1.18l0,-0.01Z" style="fill:#fff;fill-rule:nonzero;"/><path d="M121.32,202.7l0.62,0.36c0.14,0.08 0.28,0.12 0.43,0.12c0.3,-0 0.59,-0.16 0.75,-0.43c0.24,-0.41 0.1,-0.94 -0.32,-1.18l-0.62,-0.36c-0.41,-0.24 -0.94,-0.09 -1.18,0.32c-0.24,0.41 -0.1,0.94 0.32,1.18l-0,-0.01Z" style="fill:#fff;fill-rule:nonzero;"/><path d="M141.11,203.16c0.15,0 0.29,-0.04 0.43,-0.11l0.62,-0.36c0.41,-0.24 0.56,-0.77 0.32,-1.18c-0.24,-0.41 -0.77,-0.56 -1.18,-0.32l-0.62,0.36c-0.41,0.24 -0.56,0.77 -0.32,1.18c0.16,0.28 0.45,0.44 0.75,0.44l0,-0.01Z" style="fill:#fff;fill-rule:nonzero;"/><path d="M122.8,213.89c0.41,-0.24 0.56,-0.77 0.32,-1.18c-0.24,-0.41 -0.77,-0.56 -1.18,-0.32l-0.62,0.36c-0.41,0.24 -0.56,0.77 -0.32,1.18c0.16,0.28 0.45,0.44 0.75,0.44c0.15,-0 0.29,-0.04 0.43,-0.11l0.62,-0.36l0,-0.01Z" style="fill:#fff;fill-rule:nonzero;"/><path d="M137.91,216.65c-0.24,-0.41 -0.77,-0.56 -1.18,-0.32c-0.41,0.24 -0.56,0.77 -0.32,1.18l0.36,0.62c0.16,0.28 0.45,0.44 0.75,0.44c0.15,0 0.29,-0.04 0.43,-0.11c0.41,-0.24 0.56,-0.77 0.32,-1.18l-0.36,-0.62l0,-0.01Z" style="fill:#fff;fill-rule:nonzero;"/><path d="M125.56,198.78c0.16,0.28 0.45,0.44 0.75,0.44c0.15,0 0.29,-0.04 0.43,-0.11c0.41,-0.24 0.56,-0.77 0.32,-1.18l-0.36,-0.62c-0.24,-0.41 -0.77,-0.56 -1.18,-0.32c-0.41,0.24 -0.56,0.77 -0.32,1.18l0.36,0.62l0,-0.01Z" style="fill:#fff;fill-rule:nonzero;"/><path d="M132.63,210.98c0.16,0.28 0.45,0.43 0.75,0.43c0.15,-0 0.3,-0.04 0.43,-0.12c0.41,-0.24 0.55,-0.77 0.31,-1.18l-1.52,-2.63l0,-5.54c0,-0.48 -0.39,-0.87 -0.87,-0.87c-0.48,-0 -0.87,0.39 -0.87,0.87l0,5.77c0,0.15 0.04,0.3 0.12,0.43l1.64,2.83l0.01,0.01Z" style="fill:#fff;fill-rule:nonzero;"/></g><path d="M269.41,243.44c-0.54,-4.12 -4.07,-7.32 -8.34,-7.32c-1.56,0 -3.06,0.42 -4.36,1.22c-1.74,-3.3 -5.24,-5.49 -9.06,-5.49c-5.65,0 -10.24,4.59 -10.24,10.24c0,0.58 0.05,1.15 0.15,1.72c-5.75,1.39 -9.91,6.56 -9.91,12.61c0,7.16 5.83,12.98 12.99,12.98l28.67,0c7.15,0 12.98,-5.82 12.98,-12.98c0,-7.12 -5.77,-12.92 -12.89,-12.97l0.01,-0.01Z" style="fill:#1ba1e2;fill-rule:nonzero;"/><path d="M149.11,304.27c-0.4,-3.11 -3.07,-5.52 -6.29,-5.52c-1.17,0 -2.31,0.32 -3.29,0.92c-1.31,-2.49 -3.95,-4.14 -6.84,-4.14c-4.26,0 -7.72,3.46 -7.72,7.72c0,0.43 0.04,0.87 0.11,1.3c-4.33,1.05 -7.48,4.95 -7.48,9.51c0,5.4 4.4,9.8 9.8,9.8l21.63,0c5.4,0 9.8,-4.39 9.8,-9.8c0,-5.37 -4.36,-9.75 -9.72,-9.79Z" style="fill:#fff;fill-rule:nonzero;"/><path d="M376.33,186.63c-5.5,0 -10.16,3.56 -11.8,8.5c-0.18,0.54 -0.64,0.88 -1.1,0.88c-6.22,0 -11.26,5.04 -11.26,11.26c0,6.22 5.04,11.26 11.26,11.26l12.57,0l0.06,0.07c0.61,0.77 2.04,2.63 2.76,4.21c0.28,0.61 0.57,1.43 0.83,2.22l0.02,0.05c0.15,0.47 0.28,0.88 0.42,1.18c0.12,0.26 0.39,0.76 0.98,0.8c0.58,0.04 0.93,-0.4 1.09,-0.64c0.18,-0.27 0.37,-0.65 0.59,-1.08l3.34,-6.68c0.03,-0.05 0.05,-0.09 0.07,-0.13l3.08,0c6.22,0 11.26,-5.04 11.26,-11.26c0,-6.22 -5.04,-11.26 -11.26,-11.26c-0.47,0 -0.92,-0.34 -1.1,-0.88c-1.64,-4.94 -6.3,-8.5 -11.8,-8.5l-0.01,-0Z" style="fill:#fff;fill-rule:nonzero;"/><path d="M318.38,361.6l-19.42,0c-2.3,0 -4.16,1.86 -4.16,4.16l0,30.52c0,2.3 1.86,4.16 4.16,4.16l19.42,0c2.3,0 4.16,-1.86 4.16,-4.16l0,-30.52c0,-2.3 -1.86,-4.16 -4.16,-4.16Zm-16.65,16.65l13.87,0c0.77,0 1.39,0.62 1.39,1.39c0,0.77 -0.62,1.39 -1.39,1.39l-13.87,0c-0.77,0 -1.39,-0.62 -1.39,-1.39c0,-0.77 0.62,-1.39 1.39,-1.39Zm-1.39,-4.16c0,-0.77 0.62,-1.39 1.39,-1.39l13.87,0c0.77,0 1.39,0.62 1.39,1.39c0,0.77 -0.62,1.39 -1.39,1.39l-13.87,0c-0.77,0 -1.39,-0.62 -1.39,-1.39Zm1.39,18.03l0,-2.77c0,-0.77 0.62,-1.39 1.39,-1.39c0.77,0 1.39,0.62 1.39,1.39l0,2.77l2.77,0l0,-5.55c0,-0.77 0.62,-1.39 1.39,-1.39c0.77,0 1.39,0.62 1.39,1.39l0,5.55l2.77,0l0,-6.94c0,-0.77 0.62,-1.39 1.39,-1.39c0.77,0 1.39,0.62 1.39,1.39l0,6.94c0.77,0 1.39,0.62 1.39,1.39c0,0.77 -0.62,1.39 -1.39,1.39l-13.87,0c-0.77,0 -1.39,-0.62 -1.39,-1.39c0,-0.77 0.62,-1.39 1.39,-1.39l-0.01,0Zm13.87,-22.19l-13.87,0c-0.77,0 -1.39,-0.62 -1.39,-1.39c0,-0.77 0.62,-1.39 1.39,-1.39l13.87,0c0.77,0 1.39,0.62 1.39,1.39c0,0.77 -0.62,1.39 -1.39,1.39Z" style="fill:#fff;fill-rule:nonzero;"/><path d="M224.17,124.76l-11.85,-1.56l13,-1.72c0.5,-0.07 1.01,0.07 1.41,0.38c0.4,0.31 0.66,0.77 0.72,1.28l0.23,1.72c-0.23,-0.06 -0.47,-0.09 -0.71,-0.09l-2.63,0c-0.06,0 -0.11,-0.01 -0.17,-0.02l-0,0.01Zm-36.34,0.03l26.82,0l-25.15,-3.27c-1.04,-0.14 -1.99,0.59 -2.13,1.62l-0.23,1.72c0.23,-0.05 0.46,-0.07 0.69,-0.07Zm15.62,19.58l-9.01,-0c-0.29,-1.99 -1.86,-3.56 -3.85,-3.85l-0,-5.92c2,-0.29 3.57,-1.86 3.85,-3.86l9.01,-0c-2.44,1.4 -3.93,4 -3.93,6.81c-0,2.81 1.5,5.41 3.93,6.82Zm-5.78,-6.82c-0,-0.96 -0.58,-1.83 -1.47,-2.2c-0.89,-0.37 -1.92,-0.17 -2.6,0.52c-0.68,0.68 -0.88,1.71 -0.52,2.6c0.37,0.89 1.24,1.47 2.2,1.47c1.31,-0 2.38,-1.07 2.38,-2.38l0.01,-0.01Zm3.13,-0c0,-2.68 1.61,-5.09 4.09,-6.11c2.47,-1.02 5.32,-0.45 7.21,1.44c1.89,1.89 2.45,4.74 1.43,7.21c-1.03,2.47 -3.44,4.08 -6.11,4.08c-3.65,-0 -6.61,-2.97 -6.61,-6.62l-0.01,-0Zm3.44,-1.19c0,1.06 0.86,1.92 1.92,1.92l2.57,-0c0.33,0.03 0.59,0.31 0.59,0.64c0,0.33 -0.26,0.61 -0.59,0.64l-3.87,-0l0,1.28l1.92,-0l0,1.18l1.27,-0l0,-1.17l0.65,-0c1.06,-0 1.92,-0.86 1.92,-1.92c0,-1.06 -0.86,-1.92 -1.92,-1.92l-2.56,-0c-0.33,-0.03 -0.59,-0.31 -0.59,-0.64c0,-0.33 0.25,-0.61 0.59,-0.64l3.84,-0l0,-1.28l-1.92,-0l0,-1.36l-1.27,-0l0,1.36l-0.65,-0c-1.06,-0 -1.92,0.86 -1.92,1.92l0.03,-0l-0.01,-0.01Zm24.66,-8.39l0,19.16c0,1.05 -0.86,1.91 -1.91,1.91l-39.15,-0c-1.06,-0 -1.91,-0.86 -1.91,-1.91l0,-19.16c0,-1.05 0.86,-1.91 1.91,-1.91l39.15,-0c1.06,-0 1.91,0.86 1.91,1.91Zm-3.4,6.02c0,-0.35 -0.29,-0.64 -0.64,-0.64c-1.79,-0 -3.25,-1.45 -3.25,-3.25c0,-0.35 -0.28,-0.64 -0.64,-0.64l-27.12,-0c-0.17,-0 -0.33,0.07 -0.45,0.19c-0.12,0.12 -0.18,0.28 -0.18,0.45c-0.01,1.79 -1.46,3.23 -3.25,3.24c-0.35,-0 -0.64,0.28 -0.64,0.64l0,7.14c0,0.17 0.07,0.33 0.19,0.45c0.12,0.12 0.28,0.19 0.45,0.18c1.79,-0 3.24,1.45 3.25,3.24c0,0.35 0.28,0.64 0.64,0.64l27.12,-0c0.35,-0 0.64,-0.29 0.64,-0.64c0,-1.8 1.46,-3.25 3.25,-3.25c0.17,-0 0.33,-0.06 0.45,-0.18c0.12,-0.12 0.19,-0.28 0.19,-0.45l0,-7.11l-0.01,-0.01Zm-5.97,2.46c-0.45,-0 -0.85,0.27 -1.02,0.68c-0.17,0.41 -0.08,0.89 0.24,1.2c0.32,0.32 0.79,0.41 1.21,0.24c0.41,-0.17 0.68,-0.58 0.68,-1.02c0,-0.61 -0.5,-1.1 -1.11,-1.1Zm-24.25,-0c-0.45,-0 -0.85,0.27 -1.02,0.68c-0.17,0.41 -0.08,0.89 0.24,1.2c0.32,0.32 0.79,0.41 1.2,0.24c0.41,-0.17 0.68,-0.58 0.68,-1.02c0,-0.61 -0.5,-1.1 -1.1,-1.1Zm28.94,-1.86l0,5.93c-1.99,0.29 -3.56,1.85 -3.85,3.85l-9.01,-0c2.44,-1.41 3.93,-4 3.93,-6.82c0,-2.82 -1.5,-5.41 -3.93,-6.81l9.01,-0c0.29,1.99 1.86,3.56 3.85,3.85Zm-2.29,2.97c0,-0.96 -0.58,-1.83 -1.47,-2.2c-0.89,-0.37 -1.92,-0.16 -2.6,0.52c-0.68,0.68 -0.88,1.7 -0.52,2.6c0.37,0.89 1.24,1.47 2.2,1.47c1.31,-0.01 2.37,-1.08 2.37,-2.39l0.02,-0Z" style="fill:#fff;fill-rule:nonzero;"/><path d="M210.13,372.12l0,-1.85c0,-5.09 -4.14,-9.23 -9.23,-9.23c-5.09,0 -9.23,4.14 -9.23,9.23l0,1.85c-2.04,0 -3.69,1.65 -3.69,3.69l0,12.92c0,2.04 1.65,3.69 3.69,3.69l18.45,0c2.04,0 3.69,-1.65 3.69,-3.69l0,-12.92c0,-2.04 -1.65,-3.69 -3.69,-3.69l0.01,0Zm-14.76,-1.85c0,-3.05 2.48,-5.54 5.54,-5.54c3.06,0 5.54,2.48 5.54,5.54l0,1.85l-11.07,0l0,-1.85l-0.01,0Zm7.38,12.92c0,1.02 -0.83,1.85 -1.85,1.85c-1.02,0 -1.85,-0.83 -1.85,-1.85l0,-3.69c0,-1.02 0.83,-1.85 1.85,-1.85c1.02,0 1.85,0.83 1.85,1.85l0,3.69Z" style="fill:#fff;fill-rule:nonzero;"/><g><path d="M379.83,327.11c-2.33,0 -4.64,-0.46 -6.78,-1.37c-2.07,-0.87 -3.95,-2.14 -5.54,-3.73c-1.59,-1.59 -2.86,-3.47 -3.73,-5.54c-0.91,-2.15 -1.37,-4.45 -1.37,-6.78c0,-2.33 0.46,-4.64 1.37,-6.78c0.87,-2.07 2.14,-3.95 3.73,-5.54c1.59,-1.59 3.47,-2.86 5.54,-3.73c2.15,-0.91 4.45,-1.37 6.78,-1.37c2.33,0 4.64,0.46 6.78,1.37c2.07,0.87 3.95,2.14 5.54,3.73c1.59,1.59 2.86,3.47 3.73,5.54c0.91,2.15 1.37,4.45 1.37,6.78c0,2.33 -0.46,4.64 -1.37,6.78c-0.87,2.07 -2.14,3.95 -3.73,5.54c-1.59,1.59 -3.47,2.86 -5.54,3.73c-2.15,0.91 -4.45,1.37 -6.78,1.37Zm-7.55,-14.16c-0.19,0 -0.38,0.05 -0.54,0.15c-0.52,0.3 -0.7,0.97 -0.4,1.49c1.75,3.03 4.99,4.9 8.49,4.9c3.5,0 6.73,-1.87 8.49,-4.9c0.15,-0.25 0.18,-0.55 0.11,-0.83c-0.07,-0.28 -0.26,-0.52 -0.51,-0.66c-0.17,-0.1 -0.35,-0.15 -0.54,-0.15c-0.39,0 -0.75,0.21 -0.94,0.54c-0.67,1.16 -1.63,2.12 -2.79,2.79c-1.16,0.67 -2.47,1.02 -3.81,1.02l-0.01,0c-1.34,0 -2.65,-0.35 -3.81,-1.02c-1.16,-0.67 -2.12,-1.63 -2.79,-2.79c-0.2,-0.34 -0.56,-0.54 -0.94,-0.54l-0.01,0Zm11.9,-9.8c-1.2,0 -2.18,1.47 -2.18,3.27c0,1.8 0.98,3.27 2.18,3.27c1.2,0 2.18,-1.47 2.18,-3.27c0,-1.8 -0.98,-3.27 -2.18,-3.27Zm-8.71,0c-1.2,0 -2.18,1.47 -2.18,3.27c0,1.8 0.98,3.27 2.18,3.27c1.2,0 2.18,-1.47 2.18,-3.27c0,-1.8 -0.98,-3.27 -2.18,-3.27Z" style="fill:#fff;fill-rule:nonzero;"/></g><g><path d="M132.12,74.18l0,-8.64l3.71,0c0.12,0 0.23,0.02 0.34,0.04c0.47,0.07 0.86,0.23 1.18,0.48c0.32,0.25 0.56,0.56 0.72,0.94c0.16,0.38 0.24,0.8 0.24,1.26c0,0.67 -0.17,1.25 -0.52,1.74c-0.35,0.49 -0.86,0.8 -1.53,0.92l-0.41,0.07l-2.66,0l0,3.19l-1.07,0Zm1.07,-4.21l2.31,0c0.08,0 0.16,0 0.26,-0.01c0.1,0 0.19,-0.02 0.28,-0.04c0.28,-0.06 0.5,-0.18 0.68,-0.35c0.17,-0.17 0.3,-0.37 0.38,-0.6c0.08,-0.23 0.12,-0.46 0.12,-0.71c-0,-0.25 -0.04,-0.48 -0.12,-0.71c-0.08,-0.23 -0.21,-0.43 -0.38,-0.6c-0.17,-0.17 -0.4,-0.29 -0.68,-0.35c-0.09,-0.02 -0.18,-0.04 -0.28,-0.05l-2.57,0l-0,3.42Zm4.07,4.21l-1.7,-3.52l1.06,-0.32l1.87,3.84l-1.23,-0Z" style="fill-rule:nonzero;"/><path d="M142.62,74.36c-0.64,0 -1.19,-0.14 -1.67,-0.42c-0.47,-0.28 -0.84,-0.68 -1.11,-1.18c-0.26,-0.51 -0.4,-1.1 -0.4,-1.77c0,-0.67 0.13,-1.32 0.39,-1.84c0.26,-0.52 0.62,-0.92 1.09,-1.2c0.47,-0.28 1.01,-0.42 1.64,-0.42c0.63,0 1.21,0.15 1.67,0.45c0.46,0.3 0.8,0.73 1.03,1.28c0.23,0.56 0.33,1.22 0.3,1.99l-1.08,0l0,-0.38c-0.01,-0.8 -0.17,-1.39 -0.49,-1.78c-0.32,-0.39 -0.78,-0.59 -1.39,-0.59c-0.66,0 -1.16,0.21 -1.51,0.64c-0.34,0.42 -0.52,1.03 -0.52,1.82c0,0.79 0.17,1.36 0.52,1.78c0.34,0.42 0.83,0.63 1.47,0.63c0.43,0 0.8,-0.1 1.12,-0.29c0.32,-0.19 0.56,-0.48 0.74,-0.85l1.03,0.35c-0.25,0.57 -0.63,1.02 -1.14,1.33c-0.51,0.31 -1.07,0.47 -1.7,0.47l0.01,-0.02Zm-2.39,-3.12l0,-0.86l4.79,0l0,0.86l-4.79,0Z" style="fill-rule:nonzero;"/><path d="M149.44,74.36c-0.6,0 -1.12,-0.15 -1.55,-0.45c-0.43,-0.3 -0.77,-0.71 -1,-1.23c-0.23,-0.52 -0.35,-1.1 -0.35,-1.75c0,-0.65 0.12,-1.23 0.35,-1.75c0.23,-0.52 0.57,-0.92 1,-1.22c0.43,-0.3 0.95,-0.45 1.55,-0.45c0.6,0 1.13,0.15 1.54,0.44c0.42,0.3 0.73,0.7 0.95,1.22c0.21,0.52 0.32,1.1 0.32,1.75c0,0.65 -0.11,1.23 -0.32,1.74c-0.21,0.52 -0.53,0.93 -0.95,1.23c-0.42,0.3 -0.93,0.45 -1.54,0.45l0,0.02Zm0.13,-0.98c0.44,0 0.79,-0.1 1.07,-0.31c0.28,-0.21 0.49,-0.5 0.62,-0.87c0.13,-0.37 0.2,-0.79 0.2,-1.26c0,-0.47 -0.07,-0.9 -0.2,-1.27c-0.13,-0.37 -0.34,-0.65 -0.61,-0.86c-0.28,-0.21 -0.63,-0.31 -1.05,-0.31c-0.42,0 -0.8,0.11 -1.09,0.32c-0.29,0.22 -0.5,0.51 -0.64,0.88c-0.14,0.37 -0.21,0.78 -0.21,1.24c0,0.46 0.07,0.88 0.21,1.25c0.14,0.37 0.35,0.66 0.63,0.88c0.28,0.22 0.63,0.32 1.06,0.32l0.01,-0.01Zm1.9,0.8l0,-4.77l-0.12,0l0,-3.87l1.07,0l0,8.64l-0.95,0Z" style="fill-rule:nonzero;"/><path d="M156.56,74.35c-0.42,-0 -0.77,-0.07 -1.07,-0.2c-0.3,-0.13 -0.54,-0.31 -0.74,-0.53c-0.2,-0.22 -0.35,-0.46 -0.46,-0.73c-0.11,-0.27 -0.19,-0.54 -0.24,-0.82c-0.05,-0.28 -0.07,-0.54 -0.07,-0.79l0,-3.58l1.08,-0l0,3.25c0,0.3 0.03,0.6 0.08,0.88c0.06,0.28 0.15,0.54 0.29,0.77c0.14,0.23 0.31,0.41 0.54,0.54c0.23,0.13 0.51,0.2 0.85,0.2c0.27,-0 0.51,-0.05 0.73,-0.14c0.22,-0.09 0.41,-0.23 0.56,-0.41c0.15,-0.18 0.28,-0.41 0.36,-0.69c0.08,-0.28 0.13,-0.61 0.13,-0.98l0.7,0.22c0,0.62 -0.11,1.16 -0.34,1.61c-0.23,0.45 -0.54,0.8 -0.95,1.04c-0.41,0.24 -0.89,0.36 -1.45,0.36Zm2.16,-0.17l0,-1.73l-0.12,-0l0,-4.75l1.07,-0l0,6.48l-0.95,-0Z" style="fill-rule:nonzero;"/><path d="M164.08,74.36c-0.66,0 -1.21,-0.15 -1.67,-0.44c-0.46,-0.29 -0.81,-0.7 -1.05,-1.21c-0.24,-0.52 -0.36,-1.1 -0.37,-1.76c0,-0.68 0.14,-1.27 0.38,-1.78c0.25,-0.51 0.6,-0.92 1.06,-1.2c0.46,-0.28 1.01,-0.43 1.66,-0.43c0.68,0 1.27,0.17 1.77,0.5c0.49,0.34 0.82,0.8 0.99,1.38l-1.06,0.32c-0.14,-0.38 -0.36,-0.67 -0.66,-0.88c-0.3,-0.21 -0.66,-0.31 -1.05,-0.31c-0.44,0 -0.81,0.1 -1.1,0.31c-0.29,0.21 -0.5,0.49 -0.64,0.85c-0.14,0.36 -0.21,0.78 -0.22,1.24c0,0.72 0.18,1.3 0.5,1.74c0.33,0.44 0.81,0.66 1.45,0.66c0.42,0 0.78,-0.1 1.06,-0.29c0.28,-0.19 0.49,-0.48 0.64,-0.84l1.08,0.28c-0.22,0.6 -0.57,1.07 -1.05,1.39c-0.48,0.32 -1.05,0.48 -1.72,0.48l0,-0.01Z" style="fill-rule:nonzero;"/><path d="M170.71,74.36c-0.64,0 -1.19,-0.14 -1.67,-0.42c-0.47,-0.28 -0.84,-0.68 -1.11,-1.18c-0.26,-0.51 -0.4,-1.1 -0.4,-1.77c0,-0.67 0.13,-1.32 0.39,-1.84c0.26,-0.52 0.62,-0.92 1.09,-1.2c0.47,-0.28 1.01,-0.42 1.64,-0.42c0.63,0 1.21,0.15 1.67,0.45c0.46,0.3 0.8,0.73 1.03,1.28c0.23,0.56 0.33,1.22 0.3,1.99l-1.08,0l0,-0.38c-0.01,-0.8 -0.17,-1.39 -0.49,-1.78c-0.32,-0.39 -0.78,-0.59 -1.39,-0.59c-0.66,0 -1.16,0.21 -1.51,0.64c-0.34,0.42 -0.52,1.03 -0.52,1.82c0,0.79 0.17,1.36 0.52,1.78c0.34,0.42 0.83,0.63 1.47,0.63c0.43,0 0.8,-0.1 1.12,-0.29c0.32,-0.19 0.56,-0.48 0.74,-0.85l1.03,0.35c-0.25,0.57 -0.63,1.02 -1.14,1.33c-0.51,0.31 -1.07,0.47 -1.7,0.47l0.01,-0.02Zm-2.39,-3.12l0,-0.86l4.79,0l0,0.86l-4.79,0Z" style="fill-rule:nonzero;"/><rect x="177.51" y="65.54" width="1.07" height="8.64" style="fill-rule:nonzero;"/><path d="M182.61,74.18l0,-7.63l-2.95,0l0,-1.01l6.96,0l0,1.01l-2.95,0l0,7.63l-1.07,0l0.01,0Z" style="fill-rule:nonzero;"/><path d="M149.68,88.76c-0.86,0 -1.59,-0.19 -2.19,-0.57c-0.6,-0.38 -1.06,-0.91 -1.37,-1.58c-0.31,-0.68 -0.47,-1.46 -0.47,-2.35c0,-0.89 0.16,-1.67 0.47,-2.35c0.31,-0.68 0.77,-1.2 1.37,-1.58c0.6,-0.38 1.33,-0.57 2.19,-0.57c1,0 1.82,0.25 2.47,0.76c0.65,0.51 1.09,1.19 1.33,2.05l-1.09,0.29c-0.18,-0.64 -0.49,-1.15 -0.94,-1.52c-0.45,-0.37 -1.04,-0.56 -1.78,-0.56c-0.64,0 -1.18,0.15 -1.61,0.44c-0.43,0.29 -0.75,0.7 -0.97,1.22c-0.22,0.52 -0.33,1.13 -0.33,1.82c0,0.69 0.1,1.29 0.32,1.81c0.22,0.52 0.54,0.93 0.97,1.22c0.43,0.29 0.97,0.44 1.61,0.44c0.73,0 1.32,-0.19 1.78,-0.56c0.46,-0.37 0.77,-0.88 0.94,-1.52l1.09,0.29c-0.24,0.86 -0.69,1.54 -1.33,2.05c-0.65,0.51 -1.47,0.77 -2.47,0.77l0.01,-0Z" style="fill-rule:nonzero;"/><path d="M157.56,88.76c-0.64,0 -1.2,-0.15 -1.67,-0.44c-0.47,-0.29 -0.83,-0.7 -1.08,-1.21c-0.25,-0.52 -0.38,-1.11 -0.38,-1.78c0,-0.67 0.13,-1.28 0.38,-1.79c0.26,-0.51 0.62,-0.91 1.09,-1.2c0.47,-0.29 1.02,-0.43 1.65,-0.43c0.63,0 1.21,0.15 1.67,0.44c0.47,0.29 0.83,0.69 1.08,1.21c0.25,0.51 0.38,1.1 0.38,1.77c0,0.67 -0.13,1.27 -0.38,1.79c-0.25,0.52 -0.61,0.92 -1.08,1.21c-0.47,0.29 -1.02,0.44 -1.67,0.44l0.01,-0.01Zm0,-1.01c0.67,0 1.17,-0.22 1.5,-0.67c0.33,-0.45 0.49,-1.03 0.49,-1.74c0,-0.71 -0.17,-1.31 -0.5,-1.75c-0.33,-0.43 -0.83,-0.65 -1.49,-0.65c-0.45,0 -0.82,0.1 -1.12,0.31c-0.29,0.2 -0.51,0.49 -0.65,0.85c-0.14,0.36 -0.22,0.78 -0.22,1.25c0,0.73 0.17,1.31 0.5,1.75c0.34,0.44 0.83,0.66 1.48,0.66l0.01,-0.01Z" style="fill-rule:nonzero;"/><path d="M164.36,88.75c-0.77,0 -1.41,-0.17 -1.9,-0.51c-0.49,-0.34 -0.8,-0.81 -0.91,-1.42l1.09,-0.17c0.09,0.35 0.29,0.63 0.61,0.84c0.32,0.21 0.71,0.31 1.18,0.31c0.47,0 0.79,-0.09 1.04,-0.28c0.25,-0.18 0.38,-0.43 0.38,-0.75c0,-0.18 -0.04,-0.33 -0.13,-0.45c-0.08,-0.11 -0.26,-0.22 -0.52,-0.32c-0.26,-0.1 -0.66,-0.22 -1.19,-0.36c-0.57,-0.15 -1.02,-0.31 -1.35,-0.47c-0.33,-0.16 -0.56,-0.35 -0.7,-0.57c-0.14,-0.22 -0.21,-0.48 -0.21,-0.79c0,-0.38 0.1,-0.71 0.31,-1c0.21,-0.29 0.5,-0.51 0.87,-0.66c0.37,-0.16 0.81,-0.23 1.3,-0.23c0.49,0 0.93,0.08 1.32,0.23c0.39,0.16 0.7,0.38 0.94,0.66c0.24,0.29 0.38,0.62 0.42,1l-1.09,0.2c-0.05,-0.35 -0.22,-0.62 -0.5,-0.82c-0.28,-0.2 -0.65,-0.31 -1.09,-0.32c-0.42,-0.02 -0.76,0.06 -1.02,0.22c-0.26,0.16 -0.39,0.39 -0.39,0.67c0,0.16 0.05,0.29 0.15,0.4c0.1,0.11 0.28,0.22 0.55,0.32c0.27,0.1 0.65,0.21 1.16,0.34c0.57,0.14 1.02,0.3 1.35,0.47c0.33,0.17 0.56,0.37 0.71,0.6c0.15,0.23 0.21,0.51 0.21,0.85c0,0.62 -0.23,1.12 -0.69,1.47c-0.46,0.35 -1.09,0.54 -1.9,0.54Z" style="fill-rule:nonzero;"/><path d="M167.56,82.98l0,-0.88l4.34,0l0,0.88l-4.34,0Zm4.34,5.6c-0.38,0.08 -0.76,0.11 -1.14,0.09c-0.37,-0.01 -0.71,-0.09 -1,-0.23c-0.29,-0.14 -0.51,-0.35 -0.67,-0.65c-0.13,-0.26 -0.2,-0.52 -0.21,-0.78c-0.01,-0.26 -0.02,-0.56 -0.02,-0.89l0,-5.83l1.07,0l0,6.46c0,0.19 0.05,0.35 0.12,0.49c0.14,0.26 0.37,0.41 0.69,0.45c0.32,0.04 0.69,0.03 1.14,-0.04l0,0.92l0.02,0.01Z" style="fill-rule:nonzero;"/></g><g><path d="M349.37,74.36c-0.86,0 -1.59,-0.19 -2.19,-0.57c-0.6,-0.38 -1.06,-0.91 -1.37,-1.58c-0.31,-0.68 -0.47,-1.46 -0.47,-2.35c0,-0.89 0.16,-1.67 0.47,-2.35c0.31,-0.68 0.77,-1.2 1.37,-1.58c0.6,-0.38 1.33,-0.57 2.19,-0.57c1,0 1.82,0.25 2.47,0.76c0.65,0.51 1.09,1.19 1.33,2.05l-1.09,0.29c-0.18,-0.64 -0.49,-1.15 -0.94,-1.52c-0.45,-0.37 -1.04,-0.56 -1.78,-0.56c-0.64,0 -1.18,0.15 -1.61,0.44c-0.43,0.29 -0.75,0.7 -0.97,1.22c-0.22,0.52 -0.33,1.13 -0.33,1.82c0,0.69 0.1,1.29 0.32,1.81c0.22,0.52 0.54,0.93 0.97,1.22c0.43,0.29 0.97,0.44 1.61,0.44c0.73,0 1.32,-0.19 1.78,-0.56c0.46,-0.37 0.77,-0.88 0.94,-1.52l1.09,0.29c-0.24,0.86 -0.69,1.54 -1.33,2.05c-0.65,0.51 -1.47,0.77 -2.47,0.77l0.01,-0Z" style="fill-rule:nonzero;"/><path d="M357.26,74.36c-0.64,0 -1.2,-0.15 -1.67,-0.44c-0.47,-0.29 -0.83,-0.7 -1.08,-1.21c-0.25,-0.52 -0.38,-1.11 -0.38,-1.78c0,-0.67 0.13,-1.28 0.38,-1.79c0.26,-0.51 0.62,-0.91 1.09,-1.2c0.47,-0.29 1.02,-0.43 1.65,-0.43c0.63,0 1.21,0.15 1.67,0.44c0.46,0.29 0.83,0.69 1.08,1.21c0.25,0.51 0.38,1.1 0.38,1.77c0,0.67 -0.13,1.27 -0.38,1.79c-0.25,0.52 -0.61,0.92 -1.08,1.21c-0.47,0.29 -1.02,0.44 -1.67,0.44l0.01,-0.01Zm0,-1.01c0.67,0 1.17,-0.22 1.5,-0.67c0.33,-0.45 0.49,-1.03 0.49,-1.74c0,-0.71 -0.17,-1.31 -0.5,-1.75c-0.33,-0.43 -0.83,-0.65 -1.49,-0.65c-0.45,0 -0.82,0.1 -1.12,0.31c-0.29,0.2 -0.51,0.49 -0.65,0.85c-0.14,0.36 -0.22,0.78 -0.22,1.25c0,0.73 0.17,1.31 0.5,1.75c0.34,0.44 0.83,0.66 1.48,0.66l0.01,-0.01Z" style="fill-rule:nonzero;"/><path d="M361.7,74.18l0,-6.48l0.96,0l0,1.73l0.12,0l0,4.75l-1.08,0Zm4.62,0l0,-3.25c0,-0.31 -0.03,-0.6 -0.08,-0.89c-0.05,-0.28 -0.15,-0.54 -0.28,-0.77c-0.13,-0.23 -0.31,-0.41 -0.54,-0.54c-0.23,-0.13 -0.51,-0.2 -0.85,-0.2c-0.27,0 -0.51,0.04 -0.73,0.13c-0.22,0.09 -0.4,0.23 -0.56,0.41c-0.16,0.18 -0.28,0.42 -0.36,0.69c-0.09,0.28 -0.13,0.6 -0.13,0.98l-0.7,-0.22c0,-0.63 0.11,-1.17 0.34,-1.62c0.23,-0.45 0.54,-0.8 0.95,-1.04c0.41,-0.24 0.89,-0.36 1.45,-0.36c0.42,0 0.78,0.07 1.07,0.2c0.3,0.13 0.54,0.31 0.74,0.53c0.2,0.22 0.35,0.46 0.46,0.73c0.11,0.27 0.19,0.54 0.24,0.82c0.05,0.28 0.07,0.54 0.07,0.79l0,3.58l-1.08,0l-0.01,0.03Z" style="fill-rule:nonzero;"/><path d="M368.95,74.18l0,-6.48l0.96,0l0,1.73l0.12,0l0,4.75l-1.08,0Zm4.62,0l0,-3.25c0,-0.31 -0.03,-0.6 -0.08,-0.89c-0.05,-0.28 -0.15,-0.54 -0.28,-0.77c-0.13,-0.23 -0.31,-0.41 -0.54,-0.54c-0.23,-0.13 -0.51,-0.2 -0.85,-0.2c-0.27,0 -0.51,0.04 -0.73,0.13c-0.22,0.09 -0.4,0.23 -0.56,0.41c-0.16,0.18 -0.28,0.42 -0.36,0.69c-0.09,0.28 -0.13,0.6 -0.13,0.98l-0.7,-0.22c0,-0.63 0.11,-1.17 0.34,-1.62c0.23,-0.45 0.54,-0.8 0.95,-1.04c0.41,-0.24 0.89,-0.36 1.45,-0.36c0.42,0 0.78,0.07 1.07,0.2c0.3,0.13 0.54,0.31 0.74,0.53c0.2,0.22 0.35,0.46 0.46,0.73c0.11,0.27 0.19,0.54 0.24,0.82c0.05,0.28 0.07,0.54 0.07,0.79l0,3.58l-1.08,0l-0.01,0.03Z" style="fill-rule:nonzero;"/><path d="M378.96,74.36c-0.64,0 -1.19,-0.14 -1.67,-0.42c-0.47,-0.28 -0.84,-0.68 -1.11,-1.18c-0.26,-0.51 -0.4,-1.1 -0.4,-1.77c0,-0.67 0.13,-1.32 0.39,-1.84c0.26,-0.52 0.62,-0.92 1.09,-1.2c0.47,-0.28 1.01,-0.42 1.64,-0.42c0.63,0 1.21,0.15 1.67,0.45c0.46,0.3 0.8,0.73 1.03,1.28c0.23,0.56 0.33,1.22 0.3,1.99l-1.08,0l0,-0.38c-0.01,-0.8 -0.17,-1.39 -0.49,-1.78c-0.31,-0.39 -0.78,-0.59 -1.39,-0.59c-0.66,0 -1.16,0.21 -1.51,0.64c-0.35,0.43 -0.52,1.03 -0.52,1.82c0,0.79 0.17,1.36 0.52,1.78c0.35,0.42 0.83,0.63 1.47,0.63c0.43,0 0.8,-0.1 1.12,-0.29c0.32,-0.2 0.56,-0.48 0.74,-0.85l1.03,0.35c-0.25,0.57 -0.63,1.02 -1.14,1.33c-0.51,0.31 -1.07,0.47 -1.7,0.47l0.01,-0.02Zm-2.39,-3.12l0,-0.86l4.79,0l0,0.86l-4.79,0Z" style="fill-rule:nonzero;"/><path d="M385.97,74.36c-0.66,0 -1.21,-0.15 -1.67,-0.44c-0.46,-0.29 -0.81,-0.7 -1.05,-1.21c-0.24,-0.51 -0.36,-1.1 -0.37,-1.76c0,-0.68 0.14,-1.27 0.38,-1.78c0.25,-0.51 0.6,-0.92 1.06,-1.2c0.46,-0.28 1.01,-0.43 1.66,-0.43c0.68,0 1.27,0.17 1.77,0.5c0.49,0.34 0.83,0.8 0.99,1.38l-1.06,0.32c-0.14,-0.38 -0.36,-0.67 -0.66,-0.88c-0.31,-0.21 -0.66,-0.31 -1.05,-0.31c-0.44,0 -0.81,0.1 -1.1,0.31c-0.29,0.21 -0.5,0.49 -0.64,0.85c-0.14,0.36 -0.21,0.78 -0.22,1.24c0,0.72 0.18,1.3 0.5,1.74c0.33,0.44 0.81,0.66 1.45,0.66c0.42,0 0.78,-0.1 1.06,-0.29c0.28,-0.19 0.49,-0.48 0.64,-0.84l1.08,0.28c-0.22,0.6 -0.57,1.07 -1.05,1.39c-0.48,0.32 -1.05,0.48 -1.72,0.48l0,-0.01Z" style="fill-rule:nonzero;"/><path d="M389.25,68.58l0,-0.88l4.34,0l0,0.88l-4.34,0Zm4.34,5.6c-0.38,0.08 -0.76,0.11 -1.14,0.09c-0.37,-0.01 -0.71,-0.09 -1,-0.23c-0.29,-0.14 -0.51,-0.35 -0.67,-0.65c-0.13,-0.26 -0.2,-0.52 -0.21,-0.78c0,-0.26 -0.01,-0.56 -0.01,-0.89l0,-5.83l1.07,0l0,6.46c0,0.19 0.05,0.35 0.12,0.49c0.14,0.26 0.37,0.41 0.69,0.45c0.31,0.04 0.69,0.03 1.14,-0.04l0,0.92l0.01,0.01Z" style="fill-rule:nonzero;"/><path d="M398.69,74.18l-1.98,-6.49l1.06,0l1.45,4.75l1.46,-4.74l0.94,0l1.45,4.74l1.45,-4.74l1.06,0l-1.98,6.48l-0.89,0l-1.57,-4.93l-1.57,4.93l-0.89,0l0.01,-0Z" style="fill-rule:nonzero;"/><path d="M406.77,66.56l0,-1.1l1.07,0l0,1.1l-1.07,0Zm0,7.63l0,-6.48l1.07,0l0,6.48l-1.07,0Z" style="fill-rule:nonzero;"/><path d="M408.92,68.58l0,-0.88l4.34,0l0,0.88l-4.34,0Zm4.34,5.6c-0.38,0.08 -0.76,0.11 -1.14,0.09c-0.37,-0.01 -0.71,-0.09 -1,-0.23c-0.29,-0.14 -0.51,-0.35 -0.67,-0.65c-0.13,-0.26 -0.2,-0.52 -0.21,-0.78c0,-0.26 -0.01,-0.56 -0.01,-0.89l0,-5.83l1.07,0l0,6.46c0,0.19 0.05,0.35 0.12,0.49c0.14,0.26 0.37,0.41 0.69,0.45c0.31,0.04 0.69,0.03 1.14,-0.04l0,0.92l0.01,0.01Z" style="fill-rule:nonzero;"/><path d="M414.57,74.18l0,-8.64l0.96,0l0,4.77l0.12,0l0,3.87l-1.08,0Zm4.62,0l0,-3.25c0,-0.31 -0.03,-0.6 -0.08,-0.89c-0.05,-0.28 -0.15,-0.54 -0.28,-0.77c-0.13,-0.23 -0.31,-0.41 -0.54,-0.54c-0.23,-0.13 -0.51,-0.2 -0.86,-0.2c-0.27,0 -0.51,0.04 -0.73,0.13c-0.22,0.09 -0.41,0.23 -0.56,0.41c-0.16,0.18 -0.28,0.42 -0.36,0.69c-0.09,0.28 -0.13,0.6 -0.13,0.98l-0.7,-0.22c0,-0.63 0.11,-1.17 0.34,-1.62c0.23,-0.45 0.54,-0.8 0.95,-1.04c0.41,-0.24 0.89,-0.36 1.45,-0.36c0.42,0 0.78,0.07 1.07,0.2c0.3,0.13 0.54,0.31 0.74,0.53c0.2,0.22 0.35,0.46 0.46,0.73c0.11,0.27 0.19,0.54 0.24,0.82c0.05,0.28 0.07,0.54 0.07,0.79l0,3.58l-1.08,0l0,0.03Z" style="fill-rule:nonzero;"/><path d="M371.48,88.58l0,-8.64l5.46,0l0,1.01l-4.39,0l0,2.71l3.67,0l0,1.01l-3.67,0l0,2.89l4.39,0l0,1.01l-5.46,0l0,0.01Z" style="fill-rule:nonzero;"/><path d="M380.22,88.76c-0.48,0 -0.89,-0.09 -1.22,-0.27c-0.33,-0.18 -0.57,-0.41 -0.74,-0.71c-0.17,-0.3 -0.25,-0.61 -0.25,-0.96c0,-0.35 0.06,-0.64 0.19,-0.89c0.13,-0.25 0.31,-0.46 0.55,-0.62c0.24,-0.17 0.52,-0.3 0.85,-0.39c0.31,-0.08 0.65,-0.16 1.04,-0.22c0.39,-0.06 0.77,-0.12 1.16,-0.17c0.39,-0.05 0.76,-0.1 1.1,-0.15l-0.38,0.22c0.01,-0.58 -0.1,-1 -0.35,-1.28c-0.24,-0.28 -0.66,-0.41 -1.25,-0.41c-0.39,0 -0.73,0.09 -1.03,0.27c-0.29,0.18 -0.5,0.47 -0.62,0.87l-1.01,-0.31c0.16,-0.57 0.46,-1.01 0.91,-1.34c0.45,-0.32 1.04,-0.49 1.77,-0.49c0.59,0 1.09,0.1 1.51,0.31c0.42,0.21 0.72,0.53 0.91,0.95c0.09,0.2 0.15,0.42 0.17,0.65c0.02,0.23 0.04,0.48 0.04,0.74l0,4.01l-0.95,0l0,-1.55l0.22,0.14c-0.24,0.52 -0.58,0.92 -1.02,1.19c-0.44,0.27 -0.97,0.4 -1.6,0.4l-0,0.01Zm0.16,-0.89c0.38,-0 0.72,-0.07 1,-0.21c0.28,-0.14 0.51,-0.32 0.68,-0.55c0.17,-0.23 0.28,-0.47 0.34,-0.74c0.06,-0.2 0.09,-0.42 0.1,-0.67c0.01,-0.25 -0,-0.44 -0,-0.57l0.37,0.16c-0.35,0.05 -0.69,0.09 -1.03,0.14c-0.34,0.05 -0.65,0.09 -0.95,0.14c-0.3,0.05 -0.57,0.11 -0.81,0.18c-0.18,0.06 -0.34,0.13 -0.49,0.22c-0.15,0.09 -0.28,0.2 -0.37,0.34c-0.09,0.14 -0.14,0.31 -0.14,0.51c-0,0.18 0.04,0.34 0.13,0.5c0.09,0.16 0.23,0.29 0.42,0.39c0.19,0.1 0.44,0.15 0.75,0.15l-0,0.01Z" style="fill-rule:nonzero;"/><path d="M387.57,88.75c-0.77,0 -1.41,-0.17 -1.9,-0.51c-0.49,-0.34 -0.8,-0.81 -0.91,-1.42l1.09,-0.17c0.09,0.35 0.29,0.63 0.61,0.84c0.32,0.21 0.71,0.31 1.18,0.31c0.44,0 0.79,-0.09 1.04,-0.28c0.25,-0.18 0.38,-0.43 0.38,-0.75c0,-0.18 -0.04,-0.33 -0.13,-0.45c-0.08,-0.11 -0.26,-0.22 -0.52,-0.32c-0.26,-0.1 -0.66,-0.22 -1.18,-0.36c-0.57,-0.15 -1.02,-0.31 -1.35,-0.47c-0.33,-0.16 -0.56,-0.35 -0.7,-0.57c-0.14,-0.22 -0.21,-0.48 -0.21,-0.79c0,-0.38 0.1,-0.71 0.31,-1c0.21,-0.29 0.5,-0.51 0.87,-0.66c0.37,-0.16 0.81,-0.23 1.3,-0.23c0.49,0 0.93,0.08 1.32,0.23c0.39,0.16 0.7,0.38 0.94,0.66c0.24,0.29 0.38,0.62 0.42,1l-1.09,0.2c-0.05,-0.35 -0.22,-0.62 -0.5,-0.82c-0.28,-0.2 -0.65,-0.31 -1.09,-0.32c-0.42,-0.02 -0.76,0.06 -1.02,0.22c-0.26,0.16 -0.39,0.39 -0.39,0.67c0,0.16 0.05,0.29 0.15,0.4c0.1,0.11 0.28,0.22 0.55,0.32c0.27,0.1 0.65,0.21 1.16,0.34c0.57,0.14 1.02,0.3 1.35,0.47c0.33,0.17 0.57,0.37 0.71,0.6c0.14,0.23 0.21,0.51 0.21,0.85c0,0.62 -0.23,1.12 -0.69,1.47c-0.46,0.35 -1.09,0.54 -1.9,0.54l-0.01,-0Z" style="fill-rule:nonzero;"/><path d="M394.3,88.76c-0.64,0 -1.19,-0.14 -1.67,-0.42c-0.47,-0.28 -0.84,-0.68 -1.11,-1.18c-0.26,-0.51 -0.4,-1.1 -0.4,-1.77c0,-0.67 0.13,-1.32 0.39,-1.84c0.26,-0.52 0.62,-0.92 1.09,-1.2c0.47,-0.28 1.01,-0.42 1.64,-0.42c0.63,0 1.21,0.15 1.67,0.45c0.46,0.3 0.8,0.73 1.03,1.28c0.23,0.56 0.33,1.22 0.3,1.99l-1.08,0l0,-0.38c-0.01,-0.8 -0.17,-1.39 -0.49,-1.78c-0.31,-0.39 -0.78,-0.59 -1.39,-0.59c-0.66,0 -1.16,0.21 -1.51,0.64c-0.35,0.43 -0.52,1.03 -0.52,1.82c0,0.79 0.17,1.36 0.52,1.78c0.35,0.42 0.83,0.63 1.47,0.63c0.43,0 0.8,-0.1 1.12,-0.29c0.32,-0.2 0.56,-0.48 0.74,-0.85l1.03,0.35c-0.25,0.57 -0.63,1.02 -1.14,1.33c-0.51,0.31 -1.07,0.47 -1.7,0.47l0.01,-0.02Zm-2.39,-3.12l0,-0.86l4.79,0l0,0.86l-4.79,0Z" style="fill-rule:nonzero;"/></g><g><path d="M427.09,177.4c-0.67,0 -1.26,-0.14 -1.77,-0.41c-0.51,-0.28 -0.91,-0.66 -1.2,-1.16c-0.29,-0.5 -0.44,-1.08 -0.44,-1.75l-0,-5.48l1.08,0l-0,5.39c-0,0.41 0.07,0.76 0.21,1.07c0.14,0.3 0.32,0.55 0.55,0.75c0.23,0.2 0.48,0.35 0.75,0.45c0.27,0.1 0.55,0.15 0.82,0.15c0.27,0 0.55,-0.05 0.83,-0.15c0.28,-0.1 0.53,-0.25 0.75,-0.45c0.23,-0.2 0.41,-0.45 0.54,-0.75c0.14,-0.3 0.2,-0.66 0.2,-1.06l-0,-5.4l1.08,0l-0,5.49c-0,0.67 -0.15,1.25 -0.43,1.75c-0.29,0.5 -0.69,0.89 -1.2,1.16c-0.51,0.28 -1.1,0.41 -1.77,0.41l-0,-0.01Z" style="fill-rule:nonzero;"/><path d="M432.17,177.22l0,-6.48l0.96,0l0,1.73l0.12,0l0,4.75l-1.08,0Zm4.62,0l0,-3.25c0,-0.31 -0.03,-0.6 -0.08,-0.89c-0.05,-0.28 -0.15,-0.54 -0.28,-0.77c-0.13,-0.23 -0.31,-0.41 -0.54,-0.54c-0.23,-0.13 -0.51,-0.2 -0.85,-0.2c-0.27,0 -0.51,0.04 -0.73,0.13c-0.22,0.09 -0.4,0.23 -0.56,0.41c-0.16,0.18 -0.28,0.42 -0.36,0.69c-0.09,0.28 -0.13,0.6 -0.13,0.98l-0.7,-0.22c0,-0.63 0.11,-1.17 0.34,-1.62c0.23,-0.45 0.54,-0.8 0.95,-1.04c0.41,-0.24 0.89,-0.36 1.45,-0.36c0.42,0 0.78,0.07 1.07,0.2c0.3,0.13 0.54,0.31 0.74,0.53c0.2,0.22 0.35,0.46 0.46,0.73c0.11,0.27 0.19,0.54 0.24,0.82c0.05,0.28 0.07,0.54 0.07,0.79l0,3.58l-1.08,0l-0.01,0.03Z" style="fill-rule:nonzero;"/><path d="M439.55,169.6l0,-1.1l1.07,0l0,1.1l-1.07,0Zm0,7.63l0,-6.48l1.07,0l0,6.48l-1.07,0Z" style="fill-rule:nonzero;"/><path d="M441.94,171.62l0,-0.88l3.87,0l0,0.88l-3.87,0Zm1.1,5.6l0,-6.83c0,-0.17 0,-0.34 0.02,-0.51c0.02,-0.17 0.05,-0.34 0.11,-0.51c0.06,-0.17 0.15,-0.32 0.28,-0.46c0.15,-0.16 0.31,-0.28 0.49,-0.35c0.18,-0.07 0.36,-0.11 0.54,-0.13c0.18,-0.02 0.36,-0.02 0.52,-0.02l0.82,0l0,0.89l-0.76,0c-0.32,0 -0.55,0.08 -0.71,0.23c-0.16,0.15 -0.23,0.39 -0.23,0.7l0,7l-1.07,0l-0.01,-0.01Zm4.03,-7.63l0,-1.1l1.07,0l0,1.1l-1.07,0Zm0,7.63l0,-6.48l1.07,0l0,6.48l-1.07,0Z" style="fill-rule:nonzero;"/><path d="M452.75,177.4c-0.64,0 -1.19,-0.14 -1.67,-0.42c-0.47,-0.28 -0.84,-0.68 -1.11,-1.18c-0.26,-0.51 -0.4,-1.1 -0.4,-1.77c0,-0.67 0.13,-1.32 0.39,-1.84c0.26,-0.52 0.62,-0.92 1.09,-1.2c0.47,-0.28 1.01,-0.42 1.64,-0.42c0.63,0 1.21,0.15 1.67,0.45c0.46,0.3 0.8,0.73 1.03,1.28c0.23,0.56 0.33,1.22 0.3,1.99l-1.08,0l0,-0.38c-0.01,-0.8 -0.17,-1.39 -0.49,-1.78c-0.31,-0.39 -0.78,-0.59 -1.39,-0.59c-0.66,0 -1.16,0.21 -1.51,0.64c-0.34,0.42 -0.52,1.03 -0.52,1.82c0,0.79 0.17,1.36 0.52,1.78c0.34,0.42 0.83,0.63 1.47,0.63c0.43,0 0.8,-0.1 1.12,-0.29c0.32,-0.2 0.56,-0.48 0.74,-0.85l1.03,0.35c-0.25,0.57 -0.63,1.02 -1.14,1.33c-0.51,0.31 -1.07,0.47 -1.7,0.47l0.01,-0.02Zm-2.39,-3.12l0,-0.86l4.79,0l0,0.86l-4.79,0Z" style="fill-rule:nonzero;"/><path d="M459.57,177.4c-0.6,0 -1.12,-0.15 -1.55,-0.45c-0.43,-0.3 -0.76,-0.71 -1,-1.23c-0.23,-0.52 -0.35,-1.1 -0.35,-1.75c0,-0.65 0.12,-1.23 0.35,-1.75c0.23,-0.52 0.57,-0.92 1,-1.22c0.43,-0.3 0.95,-0.45 1.55,-0.45c0.6,0 1.13,0.15 1.54,0.44c0.42,0.3 0.73,0.7 0.95,1.22c0.22,0.52 0.32,1.1 0.32,1.75c0,0.65 -0.11,1.23 -0.32,1.74c-0.21,0.51 -0.53,0.93 -0.95,1.23c-0.42,0.3 -0.93,0.45 -1.54,0.45l0,0.02Zm0.13,-0.98c0.44,-0 0.79,-0.1 1.07,-0.31c0.28,-0.21 0.49,-0.5 0.62,-0.87c0.13,-0.37 0.2,-0.79 0.2,-1.26c0,-0.47 -0.07,-0.9 -0.2,-1.27c-0.13,-0.37 -0.34,-0.65 -0.61,-0.86c-0.28,-0.21 -0.63,-0.31 -1.05,-0.31c-0.42,-0 -0.8,0.11 -1.09,0.32c-0.29,0.22 -0.5,0.51 -0.64,0.88c-0.14,0.37 -0.21,0.78 -0.21,1.24c0,0.46 0.07,0.88 0.21,1.25c0.14,0.37 0.35,0.66 0.63,0.88c0.28,0.22 0.63,0.32 1.06,0.32l0.01,-0.01Zm1.9,0.8l0,-4.77l-0.12,0l0,-3.87l1.07,0l0,8.64l-0.95,0Z" style="fill-rule:nonzero;"/><path d="M466.63,177.22l0,-8.64l3.12,0c0.22,0 0.43,0.02 0.63,0.05c0.67,0.09 1.23,0.33 1.68,0.73c0.45,0.4 0.79,0.9 1.02,1.52c0.23,0.61 0.34,1.29 0.34,2.02c0,0.73 -0.11,1.41 -0.34,2.02c-0.23,0.61 -0.57,1.12 -1.02,1.51c-0.45,0.4 -1.01,0.64 -1.68,0.73c-0.2,0.02 -0.41,0.04 -0.63,0.05l-3.12,0l0,0.01Zm1.09,-1.02l1.58,0c0.15,0 0.32,0 0.51,-0.02c0.19,0 0.35,-0.03 0.49,-0.05c0.47,-0.09 0.85,-0.29 1.15,-0.59c0.29,-0.31 0.51,-0.69 0.64,-1.15c0.13,-0.46 0.2,-0.96 0.2,-1.49c0,-0.53 -0.07,-1.05 -0.21,-1.51c-0.14,-0.46 -0.35,-0.84 -0.65,-1.15c-0.29,-0.3 -0.67,-0.5 -1.14,-0.58c-0.14,-0.03 -0.31,-0.05 -0.5,-0.05c-0.19,0 -0.36,-0.01 -0.5,-0.01l-1.57,0l0,6.6Z" style="fill-rule:nonzero;"/><path d="M476.64,177.4c-0.48,0 -0.89,-0.09 -1.21,-0.27c-0.33,-0.18 -0.57,-0.41 -0.74,-0.71c-0.17,-0.3 -0.25,-0.61 -0.25,-0.96c0,-0.35 0.07,-0.64 0.2,-0.89c0.13,-0.25 0.31,-0.46 0.55,-0.62c0.24,-0.17 0.52,-0.3 0.85,-0.39c0.31,-0.08 0.65,-0.16 1.04,-0.22c0.39,-0.06 0.77,-0.12 1.16,-0.17c0.39,-0.05 0.76,-0.1 1.1,-0.15l-0.38,0.22c0.01,-0.58 -0.1,-1 -0.34,-1.28c-0.24,-0.28 -0.66,-0.41 -1.25,-0.41c-0.39,0 -0.74,0.09 -1.03,0.27c-0.29,0.18 -0.5,0.47 -0.62,0.87l-1.01,-0.31c0.16,-0.57 0.46,-1.01 0.91,-1.34c0.45,-0.32 1.04,-0.49 1.77,-0.49c0.59,0 1.09,0.1 1.52,0.31c0.42,0.21 0.72,0.53 0.91,0.95c0.09,0.2 0.15,0.42 0.17,0.65c0.02,0.23 0.04,0.48 0.04,0.74l0,4.01l-0.95,0l0,-1.55l0.22,0.14c-0.24,0.52 -0.58,0.92 -1.02,1.19c-0.44,0.27 -0.97,0.4 -1.6,0.4l-0.04,0.01Zm0.16,-0.89c0.38,0 0.72,-0.07 1,-0.21c0.28,-0.14 0.51,-0.32 0.68,-0.55c0.17,-0.23 0.28,-0.47 0.34,-0.74c0.06,-0.2 0.09,-0.42 0.1,-0.67c0.01,-0.25 -0,-0.44 -0,-0.57l0.37,0.16c-0.35,0.05 -0.69,0.09 -1.03,0.14c-0.34,0.05 -0.65,0.09 -0.95,0.14c-0.3,0.05 -0.57,0.11 -0.81,0.18c-0.18,0.06 -0.34,0.13 -0.5,0.22c-0.16,0.09 -0.28,0.2 -0.37,0.34c-0.09,0.14 -0.14,0.31 -0.14,0.51c-0,0.18 0.04,0.34 0.13,0.5c0.09,0.16 0.23,0.29 0.42,0.39c0.19,0.1 0.44,0.15 0.75,0.15l0.01,0.01Z" style="fill-rule:nonzero;"/><path d="M480.83,171.62l0,-0.88l4.34,0l0,0.88l-4.34,0Zm4.34,5.6c-0.38,0.08 -0.76,0.11 -1.14,0.09c-0.37,-0.01 -0.71,-0.09 -1,-0.23c-0.29,-0.14 -0.51,-0.35 -0.67,-0.65c-0.13,-0.26 -0.2,-0.52 -0.21,-0.78c-0.01,-0.26 -0.02,-0.56 -0.02,-0.89l0,-5.83l1.07,0l0,6.46c0,0.19 0.05,0.35 0.12,0.49c0.14,0.26 0.37,0.41 0.69,0.45c0.31,0.04 0.69,0.03 1.14,-0.04l0,0.92l0.02,0.01Z" style="fill-rule:nonzero;"/><path d="M488.33,177.4c-0.48,0 -0.89,-0.09 -1.22,-0.27c-0.33,-0.18 -0.57,-0.41 -0.74,-0.71c-0.17,-0.3 -0.25,-0.61 -0.25,-0.96c0,-0.35 0.06,-0.64 0.19,-0.89c0.13,-0.25 0.31,-0.46 0.55,-0.62c0.24,-0.17 0.52,-0.3 0.85,-0.39c0.31,-0.08 0.65,-0.16 1.04,-0.22c0.39,-0.06 0.77,-0.12 1.16,-0.17c0.39,-0.05 0.76,-0.1 1.1,-0.15l-0.38,0.22c0.01,-0.58 -0.1,-1 -0.35,-1.28c-0.24,-0.28 -0.66,-0.41 -1.25,-0.41c-0.39,0 -0.73,0.09 -1.03,0.27c-0.29,0.18 -0.5,0.47 -0.62,0.87l-1.01,-0.31c0.16,-0.57 0.46,-1.01 0.91,-1.34c0.45,-0.32 1.04,-0.49 1.77,-0.49c0.59,0 1.09,0.1 1.51,0.31c0.42,0.21 0.72,0.53 0.91,0.95c0.09,0.2 0.15,0.42 0.17,0.65c0.02,0.23 0.04,0.48 0.04,0.74l0,4.01l-0.95,0l0,-1.55l0.22,0.14c-0.24,0.52 -0.58,0.92 -1.02,1.19c-0.44,0.27 -0.97,0.4 -1.6,0.4l-0,0.01Zm0.16,-0.89c0.38,0 0.72,-0.07 1,-0.21c0.28,-0.14 0.51,-0.32 0.68,-0.55c0.17,-0.23 0.28,-0.47 0.34,-0.74c0.06,-0.2 0.09,-0.42 0.1,-0.67c0.01,-0.25 -0,-0.44 -0,-0.57l0.37,0.16c-0.35,0.05 -0.69,0.09 -1.03,0.14c-0.34,0.05 -0.65,0.09 -0.95,0.14c-0.3,0.05 -0.57,0.11 -0.81,0.18c-0.18,0.06 -0.34,0.13 -0.49,0.22c-0.15,0.09 -0.28,0.2 -0.37,0.34c-0.09,0.14 -0.14,0.31 -0.14,0.51c-0,0.18 0.04,0.34 0.13,0.5c0.09,0.16 0.23,0.29 0.42,0.39c0.19,0.1 0.44,0.15 0.75,0.15l-0,0.01Z" style="fill-rule:nonzero;"/><path d="M441.05,191.8c-0.61,0 -1.16,-0.1 -1.65,-0.31c-0.49,-0.21 -0.89,-0.5 -1.21,-0.89c-0.32,-0.39 -0.52,-0.84 -0.62,-1.37l1.1,-0.17c0.14,0.54 0.43,0.97 0.87,1.27c0.44,0.31 0.96,0.46 1.56,0.46c0.39,0 0.74,-0.06 1.05,-0.18c0.31,-0.12 0.56,-0.3 0.75,-0.52c0.18,-0.23 0.28,-0.5 0.28,-0.81c0,-0.19 -0.03,-0.36 -0.1,-0.5c-0.07,-0.14 -0.16,-0.26 -0.27,-0.35c-0.11,-0.1 -0.24,-0.18 -0.39,-0.25c-0.14,-0.07 -0.29,-0.12 -0.45,-0.17l-2.2,-0.65c-0.24,-0.07 -0.47,-0.16 -0.7,-0.27c-0.22,-0.11 -0.42,-0.25 -0.6,-0.41c-0.18,-0.16 -0.32,-0.37 -0.42,-0.6c-0.1,-0.23 -0.16,-0.51 -0.16,-0.83c0,-0.51 0.13,-0.95 0.4,-1.31c0.27,-0.36 0.63,-0.64 1.08,-0.83c0.46,-0.19 0.97,-0.29 1.54,-0.28c0.58,0 1.1,0.11 1.56,0.31c0.46,0.2 0.84,0.49 1.14,0.87c0.3,0.38 0.5,0.83 0.61,1.35l-1.13,0.2c-0.06,-0.35 -0.19,-0.66 -0.4,-0.91c-0.21,-0.25 -0.46,-0.45 -0.77,-0.59c-0.31,-0.14 -0.65,-0.21 -1.01,-0.21c-0.35,0 -0.67,0.05 -0.95,0.17c-0.28,0.12 -0.51,0.28 -0.68,0.48c-0.17,0.21 -0.25,0.44 -0.25,0.71c0,0.27 0.08,0.48 0.23,0.64c0.15,0.16 0.34,0.29 0.56,0.38c0.22,0.09 0.44,0.17 0.65,0.23l1.64,0.47c0.19,0.05 0.41,0.12 0.65,0.22c0.25,0.09 0.49,0.22 0.72,0.39c0.23,0.17 0.42,0.39 0.58,0.66c0.16,0.27 0.23,0.62 0.23,1.03c0,0.41 -0.08,0.79 -0.25,1.11c-0.17,0.32 -0.4,0.59 -0.69,0.81c-0.3,0.22 -0.64,0.38 -1.03,0.5c-0.39,0.11 -0.81,0.17 -1.26,0.17l-0.01,-0.02Z" style="fill-rule:nonzero;"/><path d="M444.82,186.02l0,-0.88l4.34,0l0,0.88l-4.34,0Zm4.34,5.6c-0.38,0.08 -0.76,0.11 -1.14,0.09c-0.37,-0.01 -0.71,-0.09 -1,-0.23c-0.29,-0.14 -0.51,-0.35 -0.67,-0.65c-0.13,-0.26 -0.2,-0.52 -0.21,-0.78c-0.01,-0.26 -0.02,-0.56 -0.02,-0.89l0,-5.83l1.07,0l0,6.46c0,0.19 0.05,0.35 0.12,0.49c0.14,0.26 0.37,0.41 0.69,0.45c0.31,0.04 0.69,0.03 1.14,-0.04l0,0.92l0.02,0.01Z" style="fill-rule:nonzero;"/><path d="M450.48,191.62l0,-6.48l0.95,0l0,1.57l-0.16,-0.2c0.08,-0.2 0.17,-0.38 0.3,-0.55c0.13,-0.17 0.26,-0.31 0.41,-0.41c0.17,-0.14 0.36,-0.24 0.57,-0.31c0.21,-0.07 0.43,-0.11 0.65,-0.13c0.22,-0.01 0.43,0 0.62,0.04l0,1c-0.22,-0.06 -0.47,-0.08 -0.74,-0.05c-0.27,0.03 -0.52,0.13 -0.74,0.29c-0.21,0.15 -0.37,0.33 -0.48,0.54c-0.11,0.21 -0.19,0.44 -0.24,0.69c-0.05,0.25 -0.07,0.5 -0.07,0.75l0,3.25l-1.07,0Z" style="fill-rule:nonzero;"/><path d="M457.65,191.8c-0.64,0 -1.19,-0.14 -1.67,-0.42c-0.47,-0.28 -0.84,-0.68 -1.11,-1.18c-0.26,-0.51 -0.4,-1.1 -0.4,-1.77c-0,-0.67 0.13,-1.32 0.39,-1.84c0.26,-0.52 0.62,-0.92 1.09,-1.2c0.47,-0.28 1.01,-0.42 1.64,-0.42c0.63,0 1.21,0.15 1.67,0.45c0.46,0.3 0.8,0.73 1.03,1.28c0.23,0.56 0.33,1.22 0.3,1.99l-1.08,0l-0,-0.38c-0.01,-0.8 -0.17,-1.39 -0.49,-1.78c-0.31,-0.39 -0.78,-0.59 -1.39,-0.59c-0.66,0 -1.16,0.21 -1.51,0.64c-0.35,0.43 -0.52,1.03 -0.52,1.82c-0,0.79 0.17,1.36 0.52,1.78c0.35,0.42 0.83,0.63 1.47,0.63c0.43,0 0.8,-0.1 1.12,-0.29c0.32,-0.2 0.56,-0.48 0.74,-0.85l1.03,0.35c-0.25,0.57 -0.63,1.02 -1.14,1.33c-0.51,0.31 -1.07,0.47 -1.7,0.47l0.01,-0.02Zm-2.39,-3.12l-0,-0.86l4.79,0l-0,0.86l-4.79,0Z" style="fill-rule:nonzero;"/><path d="M463.65,191.8c-0.48,0 -0.89,-0.09 -1.21,-0.27c-0.33,-0.18 -0.57,-0.41 -0.74,-0.71c-0.17,-0.3 -0.25,-0.61 -0.25,-0.96c-0,-0.35 0.07,-0.64 0.2,-0.89c0.13,-0.25 0.31,-0.46 0.55,-0.62c0.24,-0.17 0.52,-0.3 0.85,-0.39c0.31,-0.08 0.65,-0.16 1.04,-0.22c0.39,-0.06 0.77,-0.12 1.16,-0.17c0.39,-0.05 0.76,-0.1 1.1,-0.15l-0.38,0.22c0.01,-0.58 -0.1,-1 -0.34,-1.28c-0.24,-0.28 -0.66,-0.41 -1.25,-0.41c-0.39,0 -0.74,0.09 -1.03,0.27c-0.29,0.18 -0.5,0.47 -0.62,0.87l-1.01,-0.31c0.16,-0.57 0.46,-1.01 0.91,-1.34c0.45,-0.32 1.04,-0.49 1.77,-0.49c0.59,0 1.09,0.1 1.52,0.31c0.42,0.21 0.72,0.53 0.91,0.95c0.09,0.2 0.15,0.42 0.17,0.65c0.02,0.23 0.04,0.48 0.04,0.74l-0,4.01l-0.95,0l-0,-1.55l0.22,0.14c-0.24,0.52 -0.58,0.92 -1.02,1.19c-0.44,0.27 -0.97,0.4 -1.6,0.4l-0.04,0.01Zm0.16,-0.89c0.38,0 0.72,-0.07 1,-0.21c0.28,-0.14 0.51,-0.32 0.68,-0.55c0.17,-0.23 0.28,-0.47 0.34,-0.74c0.06,-0.2 0.09,-0.42 0.1,-0.67c0.01,-0.25 -0,-0.44 -0,-0.57l0.37,0.16c-0.35,0.05 -0.69,0.09 -1.03,0.14c-0.34,0.05 -0.65,0.09 -0.95,0.14c-0.3,0.05 -0.57,0.11 -0.81,0.18c-0.18,0.06 -0.34,0.13 -0.5,0.22c-0.16,0.09 -0.28,0.2 -0.37,0.34c-0.09,0.14 -0.14,0.31 -0.14,0.51c-0,0.18 0.04,0.34 0.13,0.5c0.09,0.16 0.23,0.29 0.42,0.39c0.19,0.1 0.44,0.15 0.75,0.15l0.01,0.01Z" style="fill-rule:nonzero;"/><path d="M468.55,191.62l0,-6.48l0.95,0l0,1.73l0.12,0l0,4.75l-1.07,0Zm3.88,0l0,-4.1c0,-0.5 -0.12,-0.88 -0.38,-1.17c-0.26,-0.29 -0.6,-0.42 -1.02,-0.42c-0.42,0 -0.76,0.14 -1.02,0.43c-0.26,0.29 -0.39,0.67 -0.39,1.15l-0.56,-0.34c0,-0.42 0.1,-0.8 0.3,-1.13c0.2,-0.33 0.47,-0.59 0.82,-0.78c0.34,-0.19 0.73,-0.29 1.17,-0.29c0.44,0 0.82,0.09 1.14,0.28c0.32,0.19 0.57,0.45 0.75,0.79c0.18,0.34 0.26,0.75 0.26,1.22l0,4.36l-1.07,0Zm3.87,-0l-0,-4.15c-0,-0.48 -0.12,-0.86 -0.38,-1.14c-0.26,-0.27 -0.59,-0.41 -1,-0.41c-0.24,-0 -0.47,0.05 -0.68,0.17c-0.22,0.11 -0.39,0.28 -0.53,0.52c-0.14,0.23 -0.2,0.53 -0.2,0.9l-0.56,-0.23c-0,-0.46 0.09,-0.86 0.29,-1.21c0.2,-0.35 0.47,-0.61 0.81,-0.81c0.34,-0.19 0.73,-0.29 1.16,-0.29c0.68,-0 1.21,0.21 1.6,0.61c0.39,0.41 0.58,0.96 0.58,1.65l-0,4.38l-1.07,-0l-0.02,0.01Z" style="fill-rule:nonzero;"/></g><g><path d="M438.11,327.12l0,-8.65l5.04,0l0,1.07l-3.97,0l0,2.72l3.25,0l0,1.07l-3.25,0l0,3.79l-1.07,0Z" style="fill-rule:nonzero;"/><path d="M445.84,327.29c-0.48,0 -0.89,-0.09 -1.21,-0.27c-0.33,-0.18 -0.57,-0.41 -0.74,-0.71c-0.17,-0.3 -0.25,-0.61 -0.25,-0.96c-0,-0.35 0.07,-0.64 0.2,-0.89c0.13,-0.25 0.31,-0.46 0.55,-0.62c0.24,-0.17 0.52,-0.3 0.85,-0.39c0.31,-0.08 0.65,-0.16 1.04,-0.22c0.38,-0.06 0.77,-0.12 1.16,-0.17c0.39,-0.05 0.76,-0.1 1.1,-0.15l-0.38,0.22c0.01,-0.58 -0.1,-1 -0.34,-1.28c-0.24,-0.28 -0.66,-0.41 -1.25,-0.41c-0.39,0 -0.74,0.09 -1.03,0.27c-0.29,0.18 -0.5,0.47 -0.62,0.87l-1.01,-0.31c0.16,-0.57 0.46,-1.01 0.91,-1.34c0.45,-0.32 1.04,-0.49 1.77,-0.49c0.59,0 1.09,0.1 1.52,0.31c0.42,0.21 0.72,0.53 0.91,0.95c0.09,0.2 0.15,0.42 0.17,0.65c0.02,0.23 0.04,0.48 0.04,0.74l-0,4.01l-0.95,0l-0,-1.55l0.22,0.14c-0.24,0.52 -0.58,0.92 -1.02,1.19c-0.44,0.27 -0.97,0.4 -1.6,0.4l-0.04,0.01Zm0.16,-0.89c0.38,0 0.72,-0.07 1,-0.21c0.28,-0.14 0.51,-0.32 0.68,-0.55c0.17,-0.23 0.28,-0.47 0.34,-0.74c0.06,-0.2 0.09,-0.42 0.1,-0.67c0.01,-0.25 -0,-0.44 -0,-0.57l0.37,0.16c-0.35,0.05 -0.69,0.09 -1.03,0.14c-0.34,0.05 -0.65,0.09 -0.95,0.14c-0.3,0.05 -0.57,0.11 -0.81,0.18c-0.18,0.06 -0.34,0.13 -0.5,0.22c-0.16,0.09 -0.28,0.2 -0.37,0.34c-0.09,0.14 -0.14,0.31 -0.14,0.51c-0,0.18 0.04,0.34 0.13,0.5c0.09,0.16 0.23,0.29 0.42,0.39c0.19,0.1 0.44,0.15 0.75,0.15l0.01,0.01Z" style="fill-rule:nonzero;"/><path d="M453.19,327.28c-0.77,-0 -1.41,-0.17 -1.9,-0.51c-0.49,-0.34 -0.8,-0.81 -0.91,-1.42l1.09,-0.17c0.09,0.35 0.29,0.63 0.61,0.84c0.32,0.21 0.71,0.31 1.18,0.31c0.47,-0 0.79,-0.09 1.04,-0.28c0.25,-0.18 0.38,-0.43 0.38,-0.75c0,-0.18 -0.04,-0.33 -0.13,-0.45c-0.08,-0.11 -0.26,-0.22 -0.52,-0.32c-0.26,-0.1 -0.66,-0.22 -1.19,-0.36c-0.57,-0.15 -1.02,-0.31 -1.35,-0.47c-0.33,-0.16 -0.56,-0.35 -0.7,-0.57c-0.14,-0.22 -0.21,-0.48 -0.21,-0.79c0,-0.38 0.1,-0.71 0.31,-1c0.21,-0.29 0.5,-0.51 0.87,-0.66c0.37,-0.16 0.81,-0.23 1.3,-0.23c0.49,-0 0.93,0.08 1.32,0.23c0.39,0.16 0.7,0.38 0.94,0.66c0.24,0.29 0.38,0.62 0.42,1l-1.09,0.2c-0.05,-0.35 -0.22,-0.62 -0.5,-0.82c-0.28,-0.2 -0.64,-0.31 -1.09,-0.32c-0.42,-0.02 -0.76,0.06 -1.02,0.22c-0.26,0.16 -0.39,0.39 -0.39,0.67c0,0.16 0.05,0.29 0.15,0.4c0.1,0.11 0.28,0.22 0.55,0.32c0.27,0.1 0.65,0.21 1.16,0.34c0.57,0.14 1.02,0.3 1.35,0.47c0.33,0.17 0.56,0.37 0.71,0.6c0.14,0.23 0.21,0.51 0.21,0.85c0,0.62 -0.23,1.12 -0.69,1.47c-0.46,0.36 -1.09,0.54 -1.9,0.54Z" style="fill-rule:nonzero;"/><path d="M456.39,321.51l0,-0.88l4.34,0l0,0.88l-4.34,0Zm4.34,5.6c-0.38,0.08 -0.76,0.11 -1.14,0.09c-0.38,-0.02 -0.71,-0.09 -1,-0.23c-0.29,-0.14 -0.51,-0.35 -0.67,-0.65c-0.13,-0.26 -0.2,-0.51 -0.21,-0.78c-0.01,-0.26 -0.02,-0.56 -0.02,-0.89l0,-5.83l1.07,0l0,6.46c0,0.19 0.05,0.35 0.12,0.49c0.14,0.26 0.37,0.41 0.69,0.45c0.31,0.04 0.69,0.03 1.14,-0.04l0,0.92l0.02,0.01Z" style="fill-rule:nonzero;"/><path d="M464.59,327.29c-0.64,0 -1.19,-0.14 -1.67,-0.42c-0.47,-0.28 -0.84,-0.68 -1.11,-1.18c-0.26,-0.51 -0.4,-1.1 -0.4,-1.77c-0,-0.67 0.13,-1.32 0.39,-1.84c0.26,-0.52 0.62,-0.92 1.09,-1.2c0.47,-0.28 1.01,-0.42 1.64,-0.42c0.63,0 1.21,0.15 1.67,0.45c0.46,0.3 0.8,0.73 1.03,1.28c0.23,0.56 0.33,1.22 0.3,1.99l-1.08,0l-0,-0.38c-0.01,-0.8 -0.17,-1.39 -0.49,-1.79c-0.31,-0.39 -0.78,-0.59 -1.39,-0.59c-0.66,0 -1.16,0.21 -1.51,0.64c-0.35,0.43 -0.52,1.03 -0.52,1.82c-0,0.79 0.17,1.36 0.52,1.78c0.35,0.42 0.83,0.63 1.47,0.63c0.43,0 0.8,-0.1 1.12,-0.29c0.32,-0.2 0.56,-0.48 0.74,-0.85l1.03,0.35c-0.25,0.57 -0.63,1.01 -1.14,1.33c-0.51,0.31 -1.07,0.47 -1.7,0.47l0.01,-0.01Zm-2.39,-3.12l-0,-0.86l4.79,0l-0,0.86l-4.79,0Z" style="fill-rule:nonzero;"/><path d="M468.86,327.11l0,-6.48l0.95,0l0,1.57l-0.16,-0.2c0.08,-0.2 0.17,-0.38 0.3,-0.55c0.13,-0.17 0.26,-0.31 0.41,-0.41c0.17,-0.14 0.36,-0.24 0.57,-0.31c0.21,-0.07 0.43,-0.11 0.65,-0.13c0.22,-0.01 0.43,0 0.62,0.04l0,1c-0.22,-0.06 -0.47,-0.08 -0.74,-0.05c-0.27,0.03 -0.52,0.13 -0.74,0.29c-0.21,0.15 -0.37,0.33 -0.48,0.54c-0.11,0.21 -0.19,0.44 -0.24,0.69c-0.05,0.25 -0.07,0.5 -0.07,0.75l0,3.25l-1.07,0Z" style="fill-rule:nonzero;"/><path d="M427.38,341.69c-0.64,0 -1.2,-0.15 -1.67,-0.44c-0.47,-0.29 -0.83,-0.7 -1.08,-1.21c-0.25,-0.51 -0.38,-1.11 -0.38,-1.78c0,-0.67 0.13,-1.28 0.38,-1.79c0.26,-0.51 0.62,-0.91 1.09,-1.2c0.47,-0.29 1.02,-0.43 1.65,-0.43c0.63,0 1.21,0.15 1.67,0.44c0.46,0.29 0.83,0.69 1.08,1.21c0.25,0.52 0.38,1.1 0.38,1.77c0,0.67 -0.13,1.27 -0.38,1.79c-0.25,0.51 -0.61,0.92 -1.08,1.21c-0.47,0.29 -1.02,0.44 -1.67,0.44l0.01,-0.01Zm0,-1.01c0.67,0 1.17,-0.22 1.5,-0.67c0.33,-0.45 0.49,-1.03 0.49,-1.74c0,-0.71 -0.17,-1.31 -0.5,-1.75c-0.33,-0.43 -0.83,-0.65 -1.49,-0.65c-0.45,0 -0.82,0.1 -1.12,0.31c-0.3,0.21 -0.51,0.49 -0.65,0.85c-0.14,0.36 -0.22,0.78 -0.22,1.25c0,0.73 0.17,1.31 0.5,1.75c0.34,0.44 0.83,0.66 1.48,0.66l0.01,-0.01Z" style="fill-rule:nonzero;"/><path d="M431.82,341.51l0,-6.48l0.96,0l0,1.73l0.12,0l0,4.75l-1.08,0Zm4.62,0l0,-3.25c0,-0.31 -0.03,-0.6 -0.08,-0.89c-0.05,-0.29 -0.15,-0.54 -0.28,-0.76c-0.13,-0.23 -0.31,-0.41 -0.54,-0.54c-0.23,-0.13 -0.51,-0.2 -0.85,-0.2c-0.27,0 -0.51,0.04 -0.73,0.13c-0.22,0.09 -0.4,0.23 -0.56,0.41c-0.16,0.18 -0.28,0.42 -0.36,0.69c-0.08,0.27 -0.13,0.6 -0.13,0.98l-0.7,-0.22c0,-0.63 0.11,-1.17 0.34,-1.62c0.23,-0.45 0.54,-0.8 0.95,-1.04c0.41,-0.24 0.89,-0.36 1.45,-0.36c0.42,0 0.78,0.07 1.07,0.2c0.3,0.13 0.54,0.31 0.74,0.53c0.2,0.22 0.35,0.46 0.46,0.73c0.11,0.27 0.19,0.54 0.24,0.82c0.05,0.28 0.07,0.54 0.07,0.79l0,3.58l-1.08,0l-0.01,0.02Z" style="fill-rule:nonzero;"/><path d="M439.07,341.51l0,-8.64l1.07,0l0,3.87l-0.12,0l0,4.77l-0.95,0Zm2.98,0.18c-0.61,0 -1.12,-0.15 -1.54,-0.45c-0.42,-0.3 -0.73,-0.71 -0.95,-1.23c-0.21,-0.52 -0.32,-1.1 -0.32,-1.74c0,-0.64 0.11,-1.24 0.32,-1.75c0.21,-0.52 0.53,-0.92 0.95,-1.22c0.42,-0.3 0.93,-0.44 1.54,-0.44c0.61,0 1.12,0.15 1.55,0.45c0.43,0.3 0.77,0.71 1,1.22c0.23,0.52 0.35,1.1 0.35,1.75c0,0.65 -0.12,1.23 -0.35,1.75c-0.23,0.52 -0.56,0.92 -1,1.23c-0.43,0.3 -0.95,0.45 -1.56,0.45l0.01,-0.02Zm-0.13,-0.98c0.43,0 0.78,-0.11 1.06,-0.32c0.28,-0.22 0.49,-0.51 0.63,-0.88c0.14,-0.37 0.21,-0.79 0.21,-1.25c0,-0.46 -0.07,-0.87 -0.21,-1.24c-0.14,-0.37 -0.35,-0.66 -0.64,-0.88c-0.29,-0.22 -0.65,-0.32 -1.09,-0.32c-0.44,0 -0.77,0.1 -1.04,0.31c-0.27,0.21 -0.48,0.49 -0.62,0.86c-0.14,0.37 -0.2,0.79 -0.2,1.27c0,0.48 0.07,0.89 0.2,1.26c0.13,0.37 0.34,0.66 0.62,0.87c0.28,0.21 0.64,0.31 1.07,0.31l0.01,0.01Z" style="fill-rule:nonzero;"/><path d="M449.04,341.69c-0.64,0 -1.2,-0.15 -1.67,-0.44c-0.47,-0.29 -0.83,-0.7 -1.08,-1.21c-0.25,-0.51 -0.38,-1.11 -0.38,-1.78c0,-0.67 0.13,-1.28 0.38,-1.79c0.26,-0.51 0.62,-0.91 1.09,-1.2c0.47,-0.29 1.02,-0.43 1.65,-0.43c0.63,0 1.21,0.15 1.67,0.44c0.47,0.29 0.83,0.69 1.08,1.21c0.25,0.52 0.38,1.1 0.38,1.77c0,0.67 -0.13,1.27 -0.38,1.79c-0.25,0.51 -0.61,0.92 -1.08,1.21c-0.47,0.29 -1.02,0.44 -1.67,0.44l0.01,-0.01Zm0,-1.01c0.67,0 1.17,-0.22 1.5,-0.67c0.33,-0.45 0.49,-1.03 0.49,-1.74c0,-0.71 -0.17,-1.31 -0.5,-1.75c-0.33,-0.43 -0.83,-0.65 -1.49,-0.65c-0.45,0 -0.82,0.1 -1.12,0.31c-0.3,0.21 -0.51,0.49 -0.65,0.85c-0.14,0.36 -0.22,0.78 -0.22,1.25c0,0.73 0.17,1.31 0.5,1.75c0.34,0.44 0.83,0.66 1.48,0.66l0.01,-0.01Z" style="fill-rule:nonzero;"/><path d="M455.33,341.69c-0.48,0 -0.89,-0.09 -1.21,-0.27c-0.32,-0.18 -0.57,-0.41 -0.74,-0.71c-0.17,-0.3 -0.25,-0.61 -0.25,-0.96c0,-0.35 0.07,-0.63 0.2,-0.88c0.13,-0.25 0.31,-0.46 0.55,-0.62c0.24,-0.16 0.52,-0.3 0.85,-0.39c0.31,-0.08 0.65,-0.16 1.04,-0.22c0.38,-0.06 0.77,-0.12 1.16,-0.17c0.39,-0.05 0.76,-0.1 1.1,-0.15l-0.38,0.22c0.01,-0.58 -0.1,-1 -0.34,-1.28c-0.24,-0.28 -0.66,-0.41 -1.25,-0.41c-0.39,0 -0.74,0.09 -1.03,0.27c-0.29,0.18 -0.5,0.47 -0.62,0.87l-1.01,-0.31c0.16,-0.57 0.46,-1.01 0.91,-1.34c0.45,-0.32 1.04,-0.49 1.77,-0.49c0.59,0 1.09,0.11 1.52,0.32c0.42,0.21 0.72,0.53 0.91,0.95c0.09,0.2 0.15,0.42 0.17,0.65c0.02,0.23 0.04,0.48 0.04,0.74l0,4.01l-0.95,0l0,-1.55l0.22,0.14c-0.24,0.52 -0.58,0.92 -1.02,1.19c-0.44,0.27 -0.97,0.4 -1.6,0.4l-0.04,-0.01Zm0.16,-0.89c0.38,0 0.72,-0.07 1,-0.21c0.28,-0.14 0.51,-0.32 0.68,-0.55c0.17,-0.23 0.28,-0.47 0.34,-0.74c0.06,-0.2 0.09,-0.42 0.1,-0.67c0.01,-0.25 -0,-0.43 -0,-0.57l0.37,0.16c-0.35,0.05 -0.69,0.09 -1.03,0.14c-0.34,0.05 -0.65,0.09 -0.95,0.14c-0.3,0.05 -0.57,0.11 -0.81,0.18c-0.18,0.06 -0.34,0.13 -0.5,0.22c-0.16,0.09 -0.28,0.2 -0.37,0.34c-0.09,0.14 -0.14,0.31 -0.14,0.51c-0,0.18 0.04,0.34 0.13,0.5c0.09,0.16 0.23,0.29 0.42,0.39c0.19,0.1 0.44,0.15 0.75,0.15l0.01,0.01Z" style="fill-rule:nonzero;"/><path d="M460.23,341.51l0,-6.48l0.95,0l0,1.57l-0.16,-0.2c0.08,-0.2 0.17,-0.38 0.3,-0.55c0.13,-0.17 0.26,-0.31 0.41,-0.41c0.17,-0.14 0.36,-0.24 0.57,-0.31c0.21,-0.07 0.43,-0.12 0.65,-0.13c0.22,-0.01 0.43,0 0.62,0.04l0,1c-0.22,-0.06 -0.47,-0.08 -0.74,-0.05c-0.27,0.03 -0.52,0.13 -0.74,0.29c-0.21,0.15 -0.37,0.33 -0.48,0.54c-0.11,0.21 -0.19,0.44 -0.24,0.69c-0.05,0.25 -0.07,0.5 -0.07,0.75l0,3.25l-1.07,0Z" style="fill-rule:nonzero;"/><path d="M467.14,341.69c-0.6,0 -1.12,-0.15 -1.55,-0.45c-0.43,-0.3 -0.76,-0.71 -1,-1.23c-0.23,-0.52 -0.35,-1.1 -0.35,-1.75c0,-0.65 0.12,-1.23 0.35,-1.75c0.23,-0.52 0.57,-0.92 1,-1.22c0.43,-0.3 0.95,-0.45 1.55,-0.45c0.6,0 1.13,0.15 1.54,0.44c0.41,0.29 0.73,0.7 0.95,1.22c0.21,0.52 0.32,1.1 0.32,1.75c0,0.65 -0.11,1.23 -0.32,1.74c-0.21,0.52 -0.53,0.93 -0.95,1.23c-0.42,0.3 -0.93,0.45 -1.54,0.45l0,0.02Zm0.13,-0.98c0.44,0 0.79,-0.1 1.07,-0.31c0.28,-0.21 0.49,-0.5 0.62,-0.87c0.13,-0.37 0.2,-0.79 0.2,-1.26c0,-0.47 -0.07,-0.9 -0.2,-1.27c-0.13,-0.37 -0.34,-0.65 -0.61,-0.86c-0.28,-0.21 -0.63,-0.31 -1.05,-0.31c-0.42,0 -0.8,0.11 -1.09,0.32c-0.29,0.22 -0.5,0.51 -0.64,0.88c-0.14,0.37 -0.21,0.78 -0.21,1.24c0,0.46 0.07,0.88 0.21,1.25c0.14,0.37 0.35,0.66 0.63,0.88c0.28,0.22 0.63,0.32 1.06,0.32l0.01,-0.01Zm1.9,0.8l0,-4.77l-0.12,0l0,-3.87l1.07,0l0,8.64l-0.95,0Z" style="fill-rule:nonzero;"/><path d="M471.92,333.88l0,-1.1l1.07,0l0,1.1l-1.07,0Zm0,7.63l0,-6.48l1.07,0l0,6.48l-1.07,0Z" style="fill-rule:nonzero;"/><path d="M474.78,341.51l-0,-6.48l0.96,0l-0,1.73l0.12,0l-0,4.75l-1.08,0Zm4.62,0l-0,-3.25c-0,-0.31 -0.03,-0.6 -0.08,-0.89c-0.05,-0.28 -0.15,-0.54 -0.28,-0.76c-0.13,-0.23 -0.31,-0.41 -0.54,-0.54c-0.23,-0.13 -0.51,-0.2 -0.86,-0.2c-0.27,0 -0.51,0.04 -0.73,0.13c-0.22,0.09 -0.41,0.23 -0.56,0.41c-0.16,0.18 -0.28,0.42 -0.36,0.69c-0.08,0.27 -0.13,0.6 -0.13,0.98l-0.7,-0.22c-0,-0.63 0.11,-1.17 0.34,-1.62c0.23,-0.45 0.54,-0.8 0.95,-1.04c0.41,-0.24 0.89,-0.36 1.45,-0.36c0.42,0 0.78,0.07 1.07,0.2c0.3,0.13 0.54,0.31 0.74,0.53c0.2,0.22 0.35,0.46 0.46,0.73c0.11,0.27 0.19,0.54 0.24,0.82c0.05,0.28 0.07,0.54 0.07,0.79l-0,3.58l-1.08,0l0,0.02Z" style="fill-rule:nonzero;"/><path d="M484.59,341.69c-0.6,0 -1.12,-0.15 -1.55,-0.45c-0.43,-0.3 -0.77,-0.71 -1,-1.23c-0.23,-0.52 -0.35,-1.1 -0.35,-1.75c-0,-0.65 0.12,-1.23 0.35,-1.75c0.23,-0.52 0.57,-0.92 1,-1.22c0.43,-0.3 0.95,-0.45 1.55,-0.45c0.6,0 1.13,0.15 1.54,0.44c0.41,0.29 0.73,0.7 0.95,1.22c0.21,0.52 0.32,1.1 0.32,1.75c-0,0.65 -0.11,1.23 -0.32,1.74c-0.21,0.52 -0.53,0.93 -0.95,1.23c-0.42,0.3 -0.93,0.45 -1.54,0.45l-0,0.02Zm0.08,2.88c-0.34,0 -0.67,-0.05 -1,-0.16c-0.32,-0.1 -0.62,-0.26 -0.89,-0.47c-0.27,-0.21 -0.5,-0.48 -0.68,-0.79l0.98,-0.52c0.16,0.32 0.39,0.55 0.68,0.69c0.29,0.14 0.6,0.22 0.91,0.22c0.41,0 0.75,-0.08 1.03,-0.22c0.27,-0.15 0.47,-0.37 0.6,-0.67c0.13,-0.3 0.19,-0.66 0.19,-1.1l-0,-1.77l0.13,0l-0,-4.74l0.95,0l-0,6.52c-0,0.18 -0,0.35 -0.01,0.51c-0.01,0.16 -0.03,0.33 -0.06,0.49c-0.08,0.46 -0.25,0.84 -0.5,1.14c-0.25,0.3 -0.57,0.52 -0.96,0.67c-0.39,0.15 -0.85,0.22 -1.36,0.22l-0.01,-0.02Zm0.05,-3.86c0.44,0 0.79,-0.1 1.07,-0.31c0.28,-0.21 0.49,-0.5 0.62,-0.87c0.13,-0.37 0.2,-0.79 0.2,-1.26c-0,-0.47 -0.07,-0.9 -0.2,-1.27c-0.13,-0.37 -0.34,-0.65 -0.62,-0.86c-0.28,-0.21 -0.63,-0.31 -1.05,-0.31c-0.42,0 -0.8,0.11 -1.09,0.32c-0.29,0.22 -0.5,0.51 -0.64,0.88c-0.14,0.37 -0.21,0.78 -0.21,1.24c-0,0.46 0.07,0.88 0.21,1.25c0.14,0.37 0.35,0.66 0.63,0.88c0.28,0.22 0.63,0.32 1.06,0.32l0.02,-0.01Z" style="fill-rule:nonzero;"/></g><g><path d="M336.99,434.06c-0.61,0 -1.16,-0.1 -1.65,-0.31c-0.49,-0.21 -0.89,-0.5 -1.21,-0.89c-0.32,-0.39 -0.53,-0.84 -0.62,-1.37l1.1,-0.17c0.14,0.54 0.43,0.97 0.87,1.28c0.44,0.31 0.96,0.46 1.56,0.46c0.39,0 0.74,-0.06 1.05,-0.18c0.31,-0.12 0.56,-0.3 0.75,-0.52c0.18,-0.23 0.28,-0.5 0.28,-0.81c0,-0.19 -0.03,-0.36 -0.1,-0.5c-0.07,-0.14 -0.16,-0.26 -0.27,-0.35c-0.11,-0.1 -0.24,-0.18 -0.39,-0.25c-0.14,-0.07 -0.29,-0.12 -0.45,-0.17l-2.2,-0.65c-0.24,-0.07 -0.47,-0.16 -0.7,-0.27c-0.22,-0.11 -0.42,-0.25 -0.6,-0.41c-0.18,-0.17 -0.32,-0.37 -0.42,-0.6c-0.1,-0.23 -0.16,-0.51 -0.16,-0.83c0,-0.51 0.13,-0.95 0.4,-1.31c0.27,-0.36 0.63,-0.64 1.08,-0.83c0.46,-0.19 0.97,-0.29 1.54,-0.28c0.58,0 1.1,0.11 1.56,0.31c0.46,0.2 0.84,0.49 1.14,0.87c0.3,0.38 0.5,0.83 0.61,1.35l-1.13,0.2c-0.06,-0.35 -0.19,-0.66 -0.4,-0.91c-0.21,-0.25 -0.46,-0.45 -0.77,-0.59c-0.31,-0.14 -0.65,-0.21 -1.01,-0.21c-0.35,0 -0.67,0.05 -0.95,0.17c-0.28,0.12 -0.51,0.28 -0.68,0.48c-0.17,0.2 -0.25,0.44 -0.25,0.71c0,0.27 0.08,0.48 0.23,0.64c0.15,0.16 0.34,0.29 0.56,0.38c0.22,0.09 0.44,0.17 0.65,0.23l1.64,0.47c0.19,0.05 0.41,0.12 0.65,0.22c0.24,0.1 0.48,0.22 0.72,0.39c0.23,0.17 0.42,0.39 0.58,0.66c0.15,0.27 0.23,0.62 0.23,1.04c0,0.42 -0.08,0.79 -0.25,1.11c-0.17,0.32 -0.4,0.59 -0.69,0.81c-0.3,0.22 -0.64,0.38 -1.03,0.5c-0.39,0.11 -0.81,0.17 -1.26,0.17l-0.01,-0.04Z" style="fill-rule:nonzero;"/><path d="M343.33,434.06c-0.48,0 -0.89,-0.09 -1.22,-0.27c-0.33,-0.18 -0.57,-0.41 -0.74,-0.71c-0.17,-0.3 -0.25,-0.61 -0.25,-0.96c0,-0.35 0.06,-0.64 0.19,-0.89c0.13,-0.25 0.31,-0.46 0.55,-0.62c0.24,-0.17 0.52,-0.3 0.85,-0.39c0.31,-0.08 0.65,-0.16 1.04,-0.22c0.38,-0.06 0.77,-0.12 1.16,-0.17c0.39,-0.05 0.76,-0.1 1.1,-0.15l-0.38,0.22c0.01,-0.58 -0.1,-1 -0.35,-1.28c-0.24,-0.28 -0.66,-0.41 -1.25,-0.41c-0.39,0 -0.73,0.09 -1.03,0.27c-0.29,0.18 -0.5,0.47 -0.62,0.87l-1.01,-0.31c0.16,-0.57 0.46,-1.01 0.91,-1.34c0.45,-0.32 1.04,-0.49 1.77,-0.49c0.59,0 1.09,0.1 1.51,0.31c0.42,0.21 0.72,0.53 0.91,0.95c0.09,0.2 0.15,0.42 0.17,0.65c0.02,0.23 0.04,0.48 0.04,0.74l0,4.01l-0.95,0l0,-1.55l0.22,0.14c-0.24,0.52 -0.58,0.92 -1.02,1.19c-0.44,0.27 -0.97,0.4 -1.6,0.4l-0,0.01Zm0.16,-0.89c0.38,0 0.72,-0.07 1,-0.21c0.28,-0.14 0.51,-0.32 0.68,-0.55c0.17,-0.23 0.28,-0.47 0.34,-0.74c0.06,-0.2 0.09,-0.42 0.1,-0.67c0.01,-0.25 -0,-0.44 -0,-0.57l0.37,0.16c-0.35,0.05 -0.69,0.09 -1.03,0.14c-0.34,0.05 -0.65,0.09 -0.95,0.14c-0.3,0.05 -0.57,0.11 -0.81,0.18c-0.18,0.06 -0.34,0.13 -0.49,0.22c-0.15,0.09 -0.28,0.2 -0.37,0.34c-0.09,0.14 -0.14,0.31 -0.14,0.51c-0,0.18 0.04,0.34 0.13,0.5c0.09,0.16 0.23,0.29 0.42,0.39c0.19,0.1 0.44,0.15 0.75,0.15l-0,0.01Z" style="fill-rule:nonzero;"/><rect x="348.35" y="425.06" width="1.07" height="8.82" style="fill-rule:nonzero;"/><path d="M354.03,434.06c-0.64,0 -1.19,-0.14 -1.67,-0.42c-0.47,-0.28 -0.84,-0.68 -1.11,-1.18c-0.26,-0.51 -0.4,-1.1 -0.4,-1.77c-0,-0.67 0.13,-1.32 0.39,-1.84c0.26,-0.52 0.62,-0.92 1.09,-1.2c0.47,-0.28 1.01,-0.42 1.64,-0.42c0.63,0 1.21,0.15 1.67,0.45c0.46,0.3 0.8,0.73 1.03,1.28c0.23,0.56 0.33,1.22 0.3,1.99l-1.08,0l-0,-0.38c-0.01,-0.8 -0.17,-1.39 -0.49,-1.79c-0.31,-0.39 -0.78,-0.59 -1.39,-0.59c-0.66,0 -1.16,0.21 -1.51,0.64c-0.35,0.43 -0.52,1.03 -0.52,1.82c-0,0.79 0.17,1.36 0.52,1.78c0.35,0.42 0.83,0.63 1.47,0.63c0.43,0 0.8,-0.1 1.12,-0.29c0.32,-0.2 0.56,-0.48 0.74,-0.85l1.03,0.35c-0.25,0.57 -0.63,1.01 -1.14,1.33c-0.51,0.31 -1.07,0.47 -1.7,0.47l0.01,-0.01Zm-2.39,-3.12l-0,-0.86l4.79,0l-0,0.86l-4.79,0Z" style="fill-rule:nonzero;"/><path d="M360.76,434.06c-0.77,0 -1.41,-0.17 -1.9,-0.51c-0.49,-0.34 -0.8,-0.81 -0.91,-1.42l1.09,-0.17c0.09,0.35 0.29,0.63 0.61,0.84c0.32,0.21 0.71,0.31 1.18,0.31c0.47,0 0.79,-0.09 1.04,-0.28c0.25,-0.18 0.38,-0.43 0.38,-0.75c0,-0.18 -0.04,-0.33 -0.13,-0.45c-0.08,-0.11 -0.26,-0.22 -0.52,-0.32c-0.26,-0.1 -0.66,-0.22 -1.19,-0.36c-0.57,-0.15 -1.02,-0.31 -1.35,-0.47c-0.33,-0.16 -0.56,-0.35 -0.7,-0.57c-0.14,-0.22 -0.21,-0.48 -0.21,-0.79c0,-0.38 0.1,-0.71 0.31,-1c0.21,-0.29 0.5,-0.51 0.87,-0.66c0.37,-0.16 0.81,-0.23 1.3,-0.23c0.49,0 0.93,0.08 1.32,0.23c0.39,0.16 0.7,0.38 0.94,0.66c0.24,0.29 0.38,0.62 0.42,1l-1.09,0.2c-0.05,-0.35 -0.22,-0.62 -0.5,-0.82c-0.28,-0.2 -0.64,-0.31 -1.09,-0.32c-0.42,-0.02 -0.76,0.06 -1.02,0.22c-0.26,0.16 -0.39,0.39 -0.39,0.67c0,0.16 0.05,0.29 0.15,0.4c0.1,0.11 0.28,0.22 0.55,0.32c0.27,0.1 0.65,0.21 1.16,0.34c0.57,0.14 1.02,0.3 1.35,0.47c0.33,0.17 0.56,0.37 0.71,0.6c0.14,0.23 0.21,0.51 0.21,0.85c0,0.62 -0.23,1.12 -0.69,1.47c-0.46,0.36 -1.09,0.54 -1.9,0.54Z" style="fill-rule:nonzero;"/><path d="M321.53,448.46c-0.64,-0 -1.2,-0.15 -1.67,-0.44c-0.47,-0.29 -0.83,-0.7 -1.08,-1.21c-0.25,-0.51 -0.38,-1.11 -0.38,-1.78c-0,-0.67 0.13,-1.28 0.38,-1.79c0.26,-0.51 0.62,-0.91 1.09,-1.2c0.47,-0.29 1.02,-0.43 1.65,-0.43c0.63,-0 1.21,0.15 1.67,0.44c0.47,0.29 0.83,0.69 1.08,1.21c0.25,0.52 0.38,1.1 0.38,1.77c-0,0.67 -0.13,1.27 -0.38,1.79c-0.25,0.51 -0.61,0.92 -1.08,1.21c-0.47,0.29 -1.02,0.44 -1.67,0.44l0.01,-0.01Zm0,-1.01c0.67,-0 1.17,-0.22 1.5,-0.67c0.33,-0.45 0.49,-1.03 0.49,-1.74c0,-0.71 -0.17,-1.31 -0.5,-1.75c-0.33,-0.43 -0.83,-0.65 -1.49,-0.65c-0.45,-0 -0.82,0.1 -1.12,0.31c-0.3,0.21 -0.51,0.49 -0.65,0.85c-0.14,0.36 -0.22,0.78 -0.22,1.25c0,0.73 0.17,1.31 0.5,1.75c0.34,0.44 0.83,0.66 1.48,0.66l0.01,-0.01Z" style="fill-rule:nonzero;"/><path d="M325.97,448.28l0,-6.48l0.96,-0l0,1.73l0.12,-0l0,4.75l-1.08,-0Zm4.62,-0l0,-3.25c0,-0.31 -0.03,-0.6 -0.08,-0.89c-0.05,-0.28 -0.15,-0.54 -0.28,-0.76c-0.13,-0.23 -0.31,-0.41 -0.54,-0.54c-0.23,-0.13 -0.51,-0.2 -0.86,-0.2c-0.27,-0 -0.51,0.04 -0.73,0.13c-0.22,0.09 -0.41,0.23 -0.56,0.41c-0.16,0.18 -0.28,0.42 -0.36,0.69c-0.08,0.27 -0.13,0.6 -0.13,0.98l-0.7,-0.22c0,-0.63 0.11,-1.17 0.34,-1.62c0.23,-0.45 0.54,-0.8 0.95,-1.04c0.41,-0.24 0.89,-0.36 1.45,-0.36c0.42,-0 0.78,0.07 1.07,0.2c0.3,0.13 0.54,0.31 0.74,0.53c0.2,0.22 0.35,0.46 0.46,0.73c0.11,0.27 0.19,0.54 0.24,0.82c0.05,0.28 0.07,0.54 0.07,0.79l0,3.58l-1.08,-0l0,0.02Z" style="fill-rule:nonzero;"/><path d="M335.62,448.28l0,-8.64l3.12,-0c0.22,-0 0.43,0.02 0.63,0.05c0.67,0.09 1.23,0.33 1.68,0.73c0.45,0.4 0.79,0.9 1.02,1.51c0.23,0.61 0.34,1.29 0.34,2.02c0,0.73 -0.11,1.41 -0.34,2.02c-0.23,0.61 -0.57,1.12 -1.02,1.51c-0.45,0.4 -1.01,0.64 -1.68,0.73c-0.2,0.02 -0.41,0.04 -0.63,0.04l-3.12,-0l0,0.03Zm1.1,-1.02l1.57,-0c0.15,-0 0.32,-0 0.51,-0.02c0.19,-0 0.35,-0.03 0.49,-0.05c0.47,-0.09 0.85,-0.29 1.15,-0.59c0.3,-0.3 0.51,-0.69 0.64,-1.15c0.14,-0.46 0.2,-0.96 0.2,-1.49c0,-0.53 -0.07,-1.05 -0.21,-1.51c-0.14,-0.46 -0.35,-0.84 -0.64,-1.15c-0.29,-0.31 -0.67,-0.5 -1.14,-0.58c-0.14,-0.03 -0.31,-0.05 -0.5,-0.05c-0.19,-0 -0.36,-0.01 -0.5,-0.01l-1.57,-0l0,6.6Z" style="fill-rule:nonzero;"/><path d="M346.61,448.46c-0.64,-0 -1.19,-0.14 -1.67,-0.42c-0.47,-0.28 -0.84,-0.68 -1.11,-1.18c-0.26,-0.51 -0.4,-1.1 -0.4,-1.77c0,-0.67 0.13,-1.32 0.39,-1.84c0.26,-0.52 0.62,-0.92 1.09,-1.2c0.47,-0.28 1.01,-0.42 1.64,-0.42c0.63,-0 1.21,0.15 1.67,0.45c0.46,0.3 0.8,0.73 1.03,1.28c0.23,0.56 0.33,1.22 0.3,1.99l-1.08,-0l0,-0.38c-0.01,-0.8 -0.17,-1.39 -0.49,-1.78c-0.31,-0.39 -0.78,-0.59 -1.39,-0.59c-0.66,-0 -1.16,0.21 -1.51,0.64c-0.34,0.42 -0.52,1.03 -0.52,1.82c0,0.79 0.17,1.36 0.52,1.78c0.34,0.42 0.83,0.63 1.47,0.63c0.43,-0 0.8,-0.1 1.12,-0.29c0.32,-0.2 0.56,-0.48 0.74,-0.85l1.03,0.35c-0.25,0.57 -0.63,1.02 -1.14,1.33c-0.51,0.31 -1.07,0.47 -1.7,0.47l0.01,-0.02Zm-2.39,-3.12l0,-0.86l4.79,-0l0,0.86l-4.79,-0Z" style="fill-rule:nonzero;"/><path d="M350.7,448.28l0,-6.48l0.95,-0l0,1.73l0.12,-0l0,4.75l-1.07,-0Zm3.88,-0l0,-4.1c0,-0.5 -0.12,-0.88 -0.38,-1.17c-0.26,-0.29 -0.6,-0.42 -1.02,-0.42c-0.42,-0 -0.76,0.14 -1.02,0.43c-0.26,0.29 -0.39,0.67 -0.39,1.15l-0.56,-0.34c0,-0.42 0.1,-0.8 0.3,-1.13c0.2,-0.33 0.47,-0.59 0.82,-0.78c0.34,-0.19 0.73,-0.29 1.17,-0.29c0.44,-0 0.82,0.09 1.14,0.28c0.32,0.18 0.57,0.45 0.75,0.79c0.18,0.34 0.26,0.75 0.26,1.22l0,4.36l-1.07,-0Zm3.87,-0l-0,-4.15c-0,-0.48 -0.12,-0.86 -0.38,-1.14c-0.26,-0.27 -0.59,-0.41 -1,-0.41c-0.24,-0 -0.47,0.05 -0.68,0.17c-0.22,0.11 -0.39,0.28 -0.53,0.52c-0.14,0.24 -0.2,0.53 -0.2,0.9l-0.56,-0.23c-0,-0.46 0.09,-0.86 0.28,-1.21c0.2,-0.35 0.47,-0.62 0.81,-0.81c0.34,-0.19 0.73,-0.29 1.16,-0.29c0.68,-0 1.21,0.21 1.6,0.61c0.39,0.41 0.58,0.96 0.58,1.65l-0,4.38l-1.07,-0l-0.01,0.01Z" style="fill-rule:nonzero;"/><path d="M362.93,448.46c-0.48,-0 -0.89,-0.09 -1.22,-0.27c-0.33,-0.18 -0.57,-0.41 -0.74,-0.71c-0.17,-0.3 -0.25,-0.61 -0.25,-0.96c0,-0.35 0.06,-0.63 0.19,-0.88c0.13,-0.25 0.31,-0.46 0.55,-0.62c0.24,-0.17 0.52,-0.3 0.85,-0.39c0.31,-0.08 0.65,-0.16 1.04,-0.22c0.38,-0.06 0.77,-0.12 1.16,-0.17c0.39,-0.05 0.76,-0.1 1.1,-0.15l-0.38,0.22c0.01,-0.58 -0.1,-1 -0.35,-1.28c-0.24,-0.28 -0.66,-0.41 -1.25,-0.41c-0.39,-0 -0.73,0.09 -1.03,0.27c-0.3,0.18 -0.5,0.47 -0.62,0.87l-1.01,-0.31c0.16,-0.57 0.46,-1.01 0.91,-1.34c0.45,-0.33 1.04,-0.49 1.77,-0.49c0.59,-0 1.09,0.11 1.51,0.32c0.42,0.21 0.72,0.53 0.91,0.95c0.09,0.2 0.15,0.42 0.17,0.65c0.02,0.23 0.04,0.48 0.04,0.74l0,4.01l-0.95,-0l0,-1.55l0.22,0.14c-0.24,0.52 -0.58,0.92 -1.02,1.19c-0.44,0.27 -0.97,0.4 -1.6,0.4l-0,-0.01Zm0.16,-0.89c0.38,-0 0.72,-0.07 1,-0.21c0.28,-0.14 0.51,-0.32 0.68,-0.55c0.17,-0.23 0.28,-0.47 0.34,-0.74c0.06,-0.2 0.09,-0.42 0.1,-0.67c0.01,-0.25 -0,-0.43 -0,-0.57l0.37,0.16c-0.35,0.05 -0.69,0.09 -1.03,0.14c-0.34,0.05 -0.65,0.09 -0.95,0.14c-0.3,0.05 -0.57,0.11 -0.81,0.18c-0.18,0.06 -0.34,0.13 -0.49,0.22c-0.15,0.09 -0.28,0.2 -0.37,0.34c-0.09,0.14 -0.14,0.31 -0.14,0.51c-0,0.18 0.04,0.34 0.13,0.5c0.09,0.16 0.23,0.29 0.42,0.39c0.19,0.1 0.44,0.15 0.75,0.15l-0,0.01Z" style="fill-rule:nonzero;"/><path d="M367.83,448.28l0,-6.48l0.96,-0l0,1.73l0.12,-0l0,4.75l-1.08,-0Zm4.62,-0l0,-3.25c0,-0.31 -0.03,-0.6 -0.08,-0.89c-0.05,-0.29 -0.15,-0.54 -0.28,-0.76c-0.13,-0.23 -0.31,-0.41 -0.54,-0.54c-0.23,-0.13 -0.51,-0.2 -0.85,-0.2c-0.27,-0 -0.51,0.04 -0.73,0.13c-0.22,0.09 -0.4,0.23 -0.56,0.41c-0.16,0.18 -0.28,0.42 -0.36,0.69c-0.08,0.27 -0.13,0.6 -0.13,0.98l-0.7,-0.22c0,-0.63 0.11,-1.17 0.34,-1.62c0.23,-0.45 0.54,-0.8 0.95,-1.04c0.41,-0.24 0.89,-0.36 1.45,-0.36c0.42,-0 0.78,0.07 1.07,0.2c0.3,0.13 0.54,0.31 0.74,0.53c0.2,0.22 0.35,0.46 0.46,0.73c0.11,0.27 0.19,0.54 0.24,0.82c0.05,0.28 0.07,0.54 0.07,0.79l0,3.58l-1.08,-0l-0.01,0.02Z" style="fill-rule:nonzero;"/><path d="M377.57,448.46c-0.6,-0 -1.12,-0.15 -1.55,-0.45c-0.43,-0.3 -0.77,-0.71 -1,-1.23c-0.23,-0.52 -0.35,-1.1 -0.35,-1.75c0,-0.65 0.12,-1.23 0.35,-1.75c0.23,-0.52 0.57,-0.92 1,-1.22c0.43,-0.3 0.95,-0.45 1.55,-0.45c0.6,-0 1.13,0.15 1.54,0.44c0.41,0.29 0.73,0.7 0.95,1.22c0.21,0.52 0.32,1.1 0.32,1.75c0,0.65 -0.11,1.23 -0.32,1.74c-0.21,0.52 -0.53,0.93 -0.95,1.23c-0.42,0.3 -0.93,0.45 -1.54,0.45l0,0.02Zm0.13,-0.98c0.44,-0 0.79,-0.1 1.07,-0.31c0.28,-0.21 0.49,-0.5 0.62,-0.87c0.13,-0.37 0.2,-0.79 0.2,-1.26c0,-0.47 -0.07,-0.9 -0.2,-1.27c-0.13,-0.37 -0.34,-0.65 -0.62,-0.86c-0.28,-0.21 -0.63,-0.31 -1.05,-0.31c-0.42,-0 -0.8,0.11 -1.09,0.32c-0.29,0.22 -0.5,0.51 -0.64,0.88c-0.14,0.37 -0.21,0.78 -0.21,1.24c0,0.46 0.07,0.88 0.21,1.25c0.14,0.37 0.35,0.66 0.63,0.88c0.28,0.22 0.63,0.32 1.06,0.32l0.02,-0.01Zm1.9,0.8l0,-4.77l-0.12,-0l0,-3.87l1.07,-0l0,8.64l-0.95,-0Z" style="fill-rule:nonzero;"/></g><g><path d="M140.36,434.18l0,-8.64l5.46,0l0,1.01l-4.39,0l0,2.71l3.67,0l0,1.01l-3.67,0l0,2.89l4.39,0l0,1.01l-5.46,0l0,0.01Z" style="fill-rule:nonzero;"/><path d="M147.26,434.18l0,-6.48l0.96,0l0,1.73l0.12,0l0,4.75l-1.08,0Zm4.62,0l0,-3.25c0,-0.31 -0.03,-0.6 -0.08,-0.89c-0.05,-0.28 -0.15,-0.54 -0.28,-0.76c-0.13,-0.23 -0.31,-0.41 -0.54,-0.54c-0.23,-0.13 -0.51,-0.2 -0.85,-0.2c-0.27,0 -0.51,0.04 -0.73,0.13c-0.22,0.09 -0.4,0.23 -0.56,0.41c-0.16,0.18 -0.28,0.42 -0.36,0.69c-0.08,0.27 -0.13,0.6 -0.13,0.98l-0.7,-0.22c0,-0.63 0.11,-1.17 0.34,-1.62c0.23,-0.45 0.54,-0.8 0.95,-1.04c0.41,-0.24 0.89,-0.36 1.45,-0.36c0.42,0 0.78,0.07 1.07,0.2c0.3,0.13 0.54,0.31 0.74,0.53c0.2,0.22 0.35,0.46 0.46,0.73c0.11,0.27 0.19,0.54 0.24,0.82c0.05,0.28 0.07,0.54 0.07,0.79l0,3.58l-1.08,0l-0.01,0.02Z" style="fill-rule:nonzero;"/><path d="M154.51,434.18l0,-8.64l0.96,0l0,4.77l0.12,0l0,3.87l-1.08,0Zm4.62,0l0,-3.25c0,-0.31 -0.03,-0.6 -0.08,-0.89c-0.05,-0.28 -0.15,-0.54 -0.28,-0.76c-0.13,-0.23 -0.31,-0.41 -0.54,-0.54c-0.23,-0.13 -0.51,-0.2 -0.85,-0.2c-0.27,0 -0.51,0.04 -0.73,0.13c-0.22,0.09 -0.4,0.23 -0.56,0.41c-0.16,0.18 -0.28,0.42 -0.36,0.69c-0.08,0.27 -0.13,0.6 -0.13,0.98l-0.7,-0.22c0,-0.63 0.11,-1.17 0.34,-1.62c0.23,-0.45 0.54,-0.8 0.95,-1.04c0.41,-0.24 0.89,-0.36 1.45,-0.36c0.42,0 0.78,0.07 1.07,0.2c0.3,0.13 0.54,0.31 0.74,0.53c0.2,0.22 0.35,0.46 0.46,0.73c0.11,0.27 0.19,0.54 0.24,0.82c0.05,0.28 0.07,0.54 0.07,0.79l0,3.58l-1.08,0l-0.01,0.02Z" style="fill-rule:nonzero;"/><path d="M163.61,434.36c-0.48,0 -0.89,-0.09 -1.22,-0.27c-0.33,-0.18 -0.57,-0.41 -0.74,-0.71c-0.17,-0.3 -0.25,-0.61 -0.25,-0.96c0,-0.35 0.06,-0.63 0.19,-0.88c0.13,-0.25 0.31,-0.46 0.55,-0.62c0.24,-0.17 0.52,-0.3 0.85,-0.39c0.31,-0.08 0.65,-0.16 1.04,-0.22c0.38,-0.06 0.77,-0.12 1.16,-0.17c0.39,-0.05 0.76,-0.1 1.1,-0.15l-0.38,0.22c0.01,-0.58 -0.1,-1 -0.35,-1.28c-0.24,-0.28 -0.66,-0.41 -1.25,-0.41c-0.39,0 -0.73,0.09 -1.03,0.27c-0.3,0.18 -0.5,0.47 -0.62,0.87l-1.01,-0.31c0.16,-0.57 0.46,-1.01 0.91,-1.34c0.45,-0.32 1.04,-0.49 1.77,-0.49c0.59,0 1.09,0.11 1.52,0.32c0.42,0.21 0.72,0.53 0.91,0.95c0.09,0.2 0.15,0.42 0.17,0.65c0.02,0.23 0.04,0.48 0.04,0.74l0,4.01l-0.95,0l0,-1.55l0.22,0.14c-0.24,0.52 -0.58,0.92 -1.02,1.19c-0.44,0.27 -0.97,0.4 -1.6,0.4l-0.01,-0.01Zm0.16,-0.89c0.38,0 0.72,-0.07 1,-0.21c0.28,-0.14 0.51,-0.32 0.68,-0.55c0.17,-0.23 0.28,-0.47 0.34,-0.74c0.06,-0.2 0.09,-0.42 0.1,-0.67c0.01,-0.25 0,-0.43 0,-0.57l0.37,0.16c-0.35,0.05 -0.69,0.09 -1.03,0.14c-0.34,0.05 -0.65,0.09 -0.95,0.14c-0.3,0.05 -0.57,0.11 -0.81,0.18c-0.18,0.06 -0.34,0.13 -0.49,0.22c-0.15,0.09 -0.28,0.2 -0.37,0.34c-0.09,0.14 -0.14,0.31 -0.14,0.51c0,0.18 0.04,0.34 0.13,0.5c0.09,0.16 0.23,0.29 0.42,0.39c0.19,0.1 0.44,0.15 0.75,0.15l0,0.01Z" style="fill-rule:nonzero;"/><path d="M168.51,434.18l0,-6.48l0.96,0l0,1.73l0.12,0l0,4.75l-1.08,0Zm4.62,0l0,-3.25c0,-0.31 -0.03,-0.6 -0.08,-0.89c-0.05,-0.28 -0.15,-0.54 -0.28,-0.76c-0.13,-0.23 -0.31,-0.41 -0.54,-0.54c-0.23,-0.13 -0.51,-0.2 -0.85,-0.2c-0.27,0 -0.51,0.04 -0.73,0.13c-0.22,0.09 -0.4,0.23 -0.56,0.41c-0.16,0.18 -0.28,0.42 -0.36,0.69c-0.08,0.27 -0.13,0.6 -0.13,0.98l-0.7,-0.22c0,-0.63 0.11,-1.17 0.34,-1.62c0.23,-0.45 0.54,-0.8 0.95,-1.04c0.41,-0.24 0.89,-0.36 1.45,-0.36c0.42,0 0.78,0.07 1.07,0.2c0.3,0.13 0.54,0.31 0.74,0.53c0.2,0.22 0.35,0.46 0.46,0.73c0.11,0.27 0.19,0.54 0.24,0.82c0.05,0.28 0.07,0.54 0.07,0.79l0,3.58l-1.08,0l-0.01,0.02Z" style="fill-rule:nonzero;"/><path d="M178.44,434.36c-0.66,0 -1.21,-0.15 -1.67,-0.44c-0.46,-0.29 -0.81,-0.7 -1.05,-1.21c-0.24,-0.52 -0.36,-1.1 -0.37,-1.76c0,-0.68 0.14,-1.27 0.38,-1.78c0.25,-0.51 0.6,-0.92 1.06,-1.2c0.46,-0.28 1.01,-0.43 1.66,-0.43c0.68,0 1.27,0.17 1.77,0.5c0.49,0.34 0.82,0.8 0.99,1.38l-1.06,0.32c-0.14,-0.38 -0.36,-0.67 -0.66,-0.88c-0.3,-0.21 -0.66,-0.31 -1.05,-0.31c-0.44,0 -0.81,0.1 -1.1,0.31c-0.29,0.21 -0.5,0.49 -0.64,0.85c-0.14,0.36 -0.21,0.78 -0.22,1.24c0,0.72 0.18,1.3 0.5,1.74c0.33,0.44 0.81,0.66 1.45,0.66c0.42,0 0.78,-0.1 1.06,-0.29c0.28,-0.19 0.49,-0.47 0.64,-0.84l1.08,0.28c-0.22,0.6 -0.57,1.07 -1.05,1.39c-0.48,0.32 -1.05,0.48 -1.72,0.48l0,-0.01Z" style="fill-rule:nonzero;"/><path d="M185.07,434.36c-0.64,0 -1.19,-0.14 -1.67,-0.42c-0.47,-0.28 -0.84,-0.68 -1.11,-1.18c-0.27,-0.5 -0.4,-1.1 -0.4,-1.77c0,-0.67 0.13,-1.32 0.39,-1.84c0.26,-0.52 0.62,-0.92 1.09,-1.2c0.47,-0.28 1.01,-0.42 1.64,-0.42c0.63,0 1.21,0.15 1.67,0.45c0.46,0.3 0.8,0.73 1.03,1.28c0.23,0.55 0.33,1.22 0.3,1.99l-1.08,0l0,-0.38c-0.01,-0.8 -0.17,-1.39 -0.49,-1.78c-0.31,-0.39 -0.78,-0.59 -1.39,-0.59c-0.66,0 -1.16,0.21 -1.51,0.64c-0.34,0.42 -0.52,1.03 -0.52,1.82c0,0.79 0.17,1.36 0.52,1.78c0.34,0.42 0.83,0.63 1.47,0.63c0.43,0 0.8,-0.1 1.12,-0.29c0.32,-0.2 0.56,-0.48 0.74,-0.85l1.03,0.35c-0.25,0.57 -0.63,1.02 -1.14,1.33c-0.51,0.31 -1.07,0.47 -1.7,0.47l0.01,-0.02Zm-2.39,-3.12l0,-0.86l4.79,0l0,0.86l-4.79,0Z" style="fill-rule:nonzero;"/><path d="M191.9,434.36c-0.6,0 -1.12,-0.15 -1.55,-0.45c-0.43,-0.3 -0.77,-0.71 -1,-1.23c-0.23,-0.52 -0.35,-1.1 -0.35,-1.75c0,-0.65 0.12,-1.23 0.35,-1.75c0.23,-0.52 0.57,-0.92 1,-1.22c0.43,-0.3 0.95,-0.45 1.55,-0.45c0.6,0 1.13,0.15 1.54,0.44c0.41,0.29 0.73,0.7 0.95,1.22c0.21,0.52 0.32,1.1 0.32,1.75c0,0.65 -0.11,1.23 -0.32,1.74c-0.21,0.52 -0.53,0.93 -0.95,1.23c-0.42,0.3 -0.93,0.45 -1.54,0.45l0,0.02Zm0.13,-0.98c0.44,0 0.79,-0.1 1.07,-0.31c0.28,-0.21 0.49,-0.5 0.62,-0.87c0.13,-0.37 0.2,-0.79 0.2,-1.26c0,-0.47 -0.07,-0.9 -0.2,-1.27c-0.13,-0.37 -0.34,-0.65 -0.61,-0.86c-0.28,-0.21 -0.63,-0.31 -1.05,-0.31c-0.42,0 -0.8,0.11 -1.09,0.32c-0.29,0.22 -0.5,0.51 -0.64,0.88c-0.14,0.37 -0.21,0.78 -0.21,1.24c0,0.46 0.07,0.88 0.21,1.25c0.14,0.37 0.35,0.66 0.63,0.88c0.28,0.22 0.63,0.32 1.06,0.32l0.01,-0.01Zm1.9,0.8l0,-4.77l-0.12,0l0,-3.87l1.07,0l0,8.64l-0.95,0Z" style="fill-rule:nonzero;"/><path d="M134.12,448.76c-0.86,0 -1.59,-0.19 -2.19,-0.57c-0.6,-0.38 -1.06,-0.91 -1.37,-1.58c-0.31,-0.68 -0.47,-1.46 -0.47,-2.35c0,-0.89 0.16,-1.67 0.47,-2.35c0.31,-0.68 0.77,-1.2 1.37,-1.58c0.6,-0.38 1.33,-0.57 2.19,-0.57c1,0 1.82,0.25 2.47,0.76c0.65,0.51 1.09,1.19 1.33,2.05l-1.09,0.29c-0.18,-0.64 -0.49,-1.15 -0.94,-1.52c-0.45,-0.37 -1.04,-0.56 -1.78,-0.56c-0.64,0 -1.18,0.15 -1.61,0.44c-0.43,0.29 -0.75,0.7 -0.97,1.22c-0.22,0.52 -0.33,1.13 -0.33,1.82c0,0.69 0.1,1.29 0.32,1.82c0.22,0.52 0.54,0.93 0.97,1.22c0.43,0.29 0.97,0.44 1.61,0.44c0.73,0 1.32,-0.19 1.78,-0.56c0.46,-0.37 0.77,-0.88 0.94,-1.52l1.09,0.29c-0.24,0.86 -0.69,1.54 -1.33,2.05c-0.65,0.51 -1.47,0.76 -2.47,0.76l0.01,-0Z" style="fill-rule:nonzero;"/><rect x="139.36" y="439.76" width="1.07" height="8.82" style="fill-rule:nonzero;"/><path d="M144.99,448.76c-0.64,0 -1.2,-0.15 -1.67,-0.44c-0.47,-0.29 -0.83,-0.7 -1.08,-1.21c-0.25,-0.52 -0.38,-1.11 -0.38,-1.78c0,-0.67 0.13,-1.28 0.38,-1.79c0.26,-0.51 0.62,-0.91 1.09,-1.2c0.47,-0.29 1.02,-0.43 1.65,-0.43c0.63,0 1.21,0.14 1.67,0.43c0.47,0.29 0.83,0.69 1.08,1.21c0.25,0.51 0.38,1.11 0.38,1.77c0,0.66 -0.13,1.27 -0.38,1.79c-0.25,0.51 -0.61,0.92 -1.08,1.21c-0.47,0.29 -1.02,0.43 -1.67,0.43l0.01,0.01Zm0,-1.01c0.67,0 1.17,-0.22 1.5,-0.67c0.33,-0.45 0.49,-1.03 0.49,-1.74c0,-0.71 -0.17,-1.32 -0.5,-1.75c-0.33,-0.43 -0.83,-0.65 -1.49,-0.65c-0.45,0 -0.82,0.1 -1.12,0.31c-0.29,0.2 -0.51,0.49 -0.65,0.85c-0.14,0.36 -0.22,0.78 -0.22,1.25c0,0.73 0.17,1.31 0.5,1.75c0.33,0.44 0.83,0.66 1.48,0.66l0.01,-0.01Z" style="fill-rule:nonzero;"/><path d="M151.98,448.76c-0.6,0 -1.12,-0.15 -1.55,-0.45c-0.43,-0.3 -0.77,-0.71 -1,-1.23c-0.23,-0.52 -0.35,-1.1 -0.35,-1.75c0,-0.65 0.12,-1.23 0.35,-1.75c0.23,-0.52 0.57,-0.92 1,-1.22c0.43,-0.3 0.95,-0.45 1.55,-0.45c0.6,0 1.13,0.15 1.54,0.44c0.42,0.3 0.73,0.7 0.95,1.22c0.21,0.52 0.32,1.1 0.32,1.75c0,0.65 -0.11,1.22 -0.32,1.74c-0.21,0.52 -0.53,0.93 -0.95,1.23c-0.42,0.3 -0.93,0.45 -1.54,0.45l0,0.02Zm0.13,-0.98c0.44,0 0.79,-0.11 1.07,-0.32c0.28,-0.21 0.49,-0.5 0.62,-0.87c0.13,-0.37 0.2,-0.79 0.2,-1.26c0,-0.47 -0.07,-0.9 -0.2,-1.27c-0.13,-0.37 -0.34,-0.65 -0.61,-0.86c-0.28,-0.21 -0.63,-0.31 -1.05,-0.31c-0.42,0 -0.8,0.11 -1.09,0.32c-0.29,0.21 -0.5,0.51 -0.64,0.88c-0.14,0.37 -0.21,0.78 -0.21,1.24c0,0.46 0.07,0.88 0.21,1.25c0.14,0.37 0.35,0.66 0.63,0.88c0.28,0.22 0.63,0.32 1.06,0.32l0.01,0Zm1.9,0.8l0,-4.77l-0.12,0l0,-3.87l1.07,0l0,8.64l-0.95,0Z" style="fill-rule:nonzero;"/><path d="M162.11,448.76c-0.61,0 -1.16,-0.1 -1.65,-0.31c-0.49,-0.21 -0.89,-0.5 -1.21,-0.89c-0.32,-0.39 -0.52,-0.84 -0.62,-1.37l1.1,-0.17c0.14,0.54 0.43,0.97 0.87,1.28c0.44,0.31 0.96,0.46 1.56,0.46c0.39,0 0.74,-0.06 1.05,-0.18c0.31,-0.12 0.56,-0.3 0.75,-0.52c0.18,-0.23 0.28,-0.5 0.28,-0.81c0,-0.19 -0.03,-0.36 -0.1,-0.5c-0.07,-0.14 -0.16,-0.26 -0.27,-0.35c-0.11,-0.09 -0.24,-0.18 -0.39,-0.25c-0.14,-0.07 -0.29,-0.12 -0.45,-0.17l-2.2,-0.65c-0.24,-0.07 -0.47,-0.16 -0.7,-0.27c-0.22,-0.11 -0.42,-0.25 -0.6,-0.41c-0.18,-0.17 -0.32,-0.37 -0.42,-0.6c-0.1,-0.23 -0.16,-0.51 -0.16,-0.83c0,-0.51 0.13,-0.95 0.4,-1.31c0.27,-0.36 0.63,-0.64 1.08,-0.83c0.46,-0.19 0.97,-0.29 1.54,-0.28c0.58,0 1.1,0.11 1.56,0.31c0.46,0.2 0.84,0.49 1.14,0.87c0.3,0.38 0.5,0.83 0.61,1.35l-1.13,0.2c-0.06,-0.35 -0.19,-0.66 -0.4,-0.91c-0.21,-0.25 -0.46,-0.45 -0.77,-0.59c-0.31,-0.14 -0.65,-0.21 -1.01,-0.21c-0.35,0 -0.67,0.05 -0.95,0.17c-0.28,0.12 -0.51,0.28 -0.68,0.48c-0.17,0.21 -0.25,0.44 -0.25,0.71c0,0.27 0.08,0.48 0.23,0.64c0.15,0.16 0.34,0.29 0.56,0.38c0.22,0.09 0.44,0.17 0.65,0.23l1.64,0.47c0.19,0.05 0.41,0.12 0.65,0.22c0.24,0.1 0.48,0.22 0.72,0.39c0.24,0.17 0.42,0.39 0.58,0.66c0.15,0.27 0.23,0.62 0.23,1.04c0,0.42 -0.08,0.79 -0.25,1.11c-0.17,0.32 -0.4,0.59 -0.69,0.81c-0.3,0.22 -0.64,0.38 -1.03,0.5c-0.39,0.12 -0.81,0.17 -1.26,0.17l-0.01,-0.04Z" style="fill-rule:nonzero;"/><path d="M169.41,448.76c-0.64,0 -1.19,-0.14 -1.67,-0.42c-0.48,-0.28 -0.84,-0.68 -1.11,-1.18c-0.26,-0.51 -0.4,-1.1 -0.4,-1.77c0,-0.67 0.13,-1.32 0.39,-1.84c0.26,-0.52 0.62,-0.92 1.09,-1.2c0.47,-0.28 1.01,-0.42 1.64,-0.42c0.63,0 1.21,0.15 1.67,0.45c0.46,0.3 0.8,0.73 1.03,1.28c0.23,0.56 0.33,1.22 0.3,1.99l-1.08,0l0,-0.38c-0.01,-0.8 -0.17,-1.39 -0.49,-1.79c-0.31,-0.39 -0.78,-0.59 -1.39,-0.59c-0.66,0 -1.16,0.21 -1.51,0.64c-0.34,0.42 -0.52,1.03 -0.52,1.82c0,0.79 0.17,1.36 0.52,1.78c0.34,0.42 0.83,0.63 1.47,0.63c0.43,0 0.8,-0.1 1.12,-0.29c0.32,-0.2 0.56,-0.48 0.74,-0.85l1.03,0.35c-0.25,0.57 -0.63,1.01 -1.14,1.33c-0.51,0.31 -1.07,0.47 -1.7,0.47l0.01,-0.01Zm-2.39,-3.12l0,-0.86l4.79,0l0,0.86l-4.79,0Z" style="fill-rule:nonzero;"/><path d="M176.42,448.76c-0.66,0 -1.21,-0.15 -1.67,-0.44c-0.46,-0.29 -0.81,-0.7 -1.05,-1.21c-0.24,-0.52 -0.36,-1.1 -0.37,-1.76c-0,-0.68 0.14,-1.27 0.38,-1.79c0.25,-0.51 0.6,-0.92 1.06,-1.2c0.46,-0.28 1.01,-0.43 1.66,-0.43c0.68,0 1.27,0.17 1.77,0.5c0.49,0.34 0.82,0.8 0.99,1.38l-1.06,0.32c-0.14,-0.38 -0.36,-0.67 -0.66,-0.88c-0.3,-0.21 -0.66,-0.31 -1.05,-0.31c-0.44,0 -0.81,0.1 -1.1,0.31c-0.29,0.21 -0.5,0.49 -0.64,0.85c-0.14,0.36 -0.21,0.78 -0.22,1.25c-0,0.72 0.18,1.3 0.5,1.74c0.33,0.44 0.81,0.66 1.45,0.66c0.42,0 0.78,-0.1 1.06,-0.29c0.28,-0.19 0.49,-0.48 0.64,-0.84l1.08,0.28c-0.22,0.6 -0.57,1.07 -1.05,1.39c-0.48,0.32 -1.05,0.48 -1.72,0.48l-0,-0.01Z" style="fill-rule:nonzero;"/><path d="M182.88,448.75c-0.42,0 -0.77,-0.07 -1.07,-0.2c-0.3,-0.13 -0.54,-0.31 -0.74,-0.53c-0.2,-0.22 -0.35,-0.46 -0.46,-0.73c-0.11,-0.27 -0.19,-0.54 -0.24,-0.82c-0.05,-0.28 -0.07,-0.54 -0.07,-0.79l0,-3.58l1.08,0l0,3.25c0,0.3 0.03,0.6 0.08,0.88c0.06,0.28 0.15,0.54 0.29,0.77c0.13,0.23 0.31,0.41 0.54,0.54c0.23,0.13 0.51,0.2 0.85,0.2c0.27,0 0.51,-0.05 0.73,-0.14c0.22,-0.09 0.41,-0.23 0.56,-0.41c0.16,-0.18 0.28,-0.41 0.36,-0.69c0.08,-0.28 0.13,-0.61 0.13,-0.98l0.7,0.22c0,0.62 -0.11,1.16 -0.34,1.61c-0.23,0.45 -0.54,0.8 -0.95,1.04c-0.41,0.24 -0.89,0.36 -1.45,0.36Zm2.16,-0.17l0,-1.73l-0.12,-0l0,-4.75l1.07,-0l0,6.48l-0.95,-0Z" style="fill-rule:nonzero;"/><path d="M187.67,448.58l-0,-6.48l0.95,0l-0,1.57l-0.16,-0.2c0.08,-0.2 0.17,-0.38 0.3,-0.55c0.13,-0.17 0.26,-0.31 0.41,-0.41c0.17,-0.14 0.36,-0.24 0.57,-0.31c0.21,-0.07 0.43,-0.11 0.65,-0.13c0.22,-0.01 0.43,0 0.62,0.04l-0,1c-0.22,-0.06 -0.47,-0.08 -0.74,-0.05c-0.27,0.03 -0.52,0.13 -0.74,0.29c-0.21,0.15 -0.37,0.33 -0.48,0.54c-0.11,0.21 -0.19,0.44 -0.24,0.69c-0.05,0.25 -0.07,0.5 -0.07,0.75l-0,3.25l-1.07,0Z" style="fill-rule:nonzero;"/><path d="M192.27,440.96l0,-1.1l1.07,-0l0,1.1l-1.07,-0Zm0,7.63l0,-6.48l1.07,-0l0,6.48l-1.07,-0Z" style="fill-rule:nonzero;"/><path d="M194.42,442.98l-0,-0.88l4.34,0l-0,0.88l-4.34,0Zm4.34,5.6c-0.38,0.08 -0.76,0.11 -1.14,0.09c-0.38,-0.02 -0.71,-0.09 -1,-0.23c-0.29,-0.14 -0.51,-0.35 -0.67,-0.65c-0.13,-0.26 -0.2,-0.51 -0.21,-0.78c-0.01,-0.26 -0.02,-0.56 -0.02,-0.89l-0,-5.83l1.07,0l-0,6.46c-0,0.19 0.05,0.35 0.12,0.49c0.14,0.26 0.37,0.41 0.69,0.45c0.32,0.04 0.69,0.03 1.14,-0.04l-0,0.92l0.02,0.01Z" style="fill-rule:nonzero;"/><path d="M200.8,451.46l1.25,-3.41l0.02,1.01l-2.83,-6.96l1.12,-0l2.22,5.6l-0.38,-0l2.08,-5.6l1.09,-0l-3.53,9.36l-1.04,-0Z" style="fill-rule:nonzero;"/></g><g><path d="M26.81,327.29c-0.86,0 -1.59,-0.19 -2.19,-0.57c-0.6,-0.38 -1.06,-0.91 -1.37,-1.58c-0.31,-0.68 -0.47,-1.46 -0.47,-2.35c-0,-0.89 0.16,-1.67 0.47,-2.35c0.31,-0.68 0.77,-1.2 1.37,-1.58c0.6,-0.38 1.33,-0.57 2.19,-0.57c1,0 1.82,0.25 2.47,0.76c0.65,0.51 1.09,1.19 1.33,2.05l-1.09,0.29c-0.18,-0.64 -0.49,-1.15 -0.94,-1.53c-0.45,-0.37 -1.04,-0.56 -1.78,-0.56c-0.64,0 -1.18,0.15 -1.61,0.44c-0.43,0.29 -0.75,0.7 -0.97,1.22c-0.22,0.52 -0.33,1.13 -0.33,1.82c0,0.69 0.1,1.29 0.32,1.82c0.22,0.52 0.54,0.93 0.97,1.22c0.43,0.29 0.97,0.44 1.61,0.44c0.73,0 1.32,-0.19 1.78,-0.56c0.46,-0.37 0.77,-0.88 0.94,-1.52l1.09,0.29c-0.24,0.86 -0.69,1.54 -1.33,2.05c-0.65,0.51 -1.47,0.76 -2.47,0.76l0.01,0.01Z" style="fill-rule:nonzero;"/><path d="M34.69,327.29c-0.64,0 -1.2,-0.15 -1.67,-0.44c-0.47,-0.29 -0.83,-0.7 -1.08,-1.21c-0.25,-0.52 -0.38,-1.11 -0.38,-1.78c0,-0.67 0.13,-1.28 0.38,-1.79c0.26,-0.51 0.62,-0.91 1.09,-1.2c0.47,-0.29 1.02,-0.43 1.65,-0.43c0.63,0 1.21,0.15 1.67,0.44c0.47,0.29 0.83,0.69 1.08,1.21c0.25,0.51 0.38,1.1 0.38,1.77c0,0.67 -0.13,1.27 -0.38,1.79c-0.25,0.51 -0.61,0.92 -1.08,1.21c-0.47,0.29 -1.02,0.43 -1.67,0.43l0.01,0Zm0,-1.01c0.67,0 1.17,-0.22 1.5,-0.67c0.33,-0.45 0.49,-1.03 0.49,-1.74c0,-0.71 -0.17,-1.31 -0.5,-1.75c-0.33,-0.43 -0.83,-0.65 -1.49,-0.65c-0.45,0 -0.82,0.1 -1.12,0.31c-0.29,0.2 -0.51,0.49 -0.65,0.85c-0.14,0.36 -0.22,0.78 -0.22,1.25c0,0.73 0.17,1.31 0.5,1.75c0.34,0.44 0.83,0.66 1.48,0.66l0.01,-0.01Z" style="fill-rule:nonzero;"/><path d="M39.13,327.11l0,-6.48l0.95,0l0,1.73l0.12,0l0,4.75l-1.07,0Zm3.88,0l0,-4.1c0,-0.5 -0.12,-0.88 -0.38,-1.17c-0.26,-0.29 -0.6,-0.42 -1.02,-0.42c-0.42,0 -0.76,0.14 -1.02,0.43c-0.26,0.29 -0.39,0.67 -0.39,1.15l-0.56,-0.34c0,-0.42 0.1,-0.8 0.3,-1.13c0.2,-0.33 0.47,-0.59 0.82,-0.78c0.35,-0.19 0.73,-0.29 1.17,-0.29c0.44,0 0.82,0.09 1.14,0.28c0.32,0.18 0.57,0.45 0.75,0.79c0.18,0.34 0.26,0.75 0.26,1.22l0,4.36l-1.07,0Zm3.87,0l0,-4.15c0,-0.48 -0.12,-0.86 -0.38,-1.14c-0.26,-0.27 -0.59,-0.41 -1,-0.41c-0.24,0 -0.47,0.05 -0.68,0.17c-0.22,0.11 -0.39,0.28 -0.53,0.52c-0.14,0.23 -0.2,0.53 -0.2,0.9l-0.56,-0.23c0,-0.46 0.09,-0.86 0.28,-1.21c0.2,-0.35 0.47,-0.62 0.81,-0.81c0.34,-0.19 0.73,-0.29 1.16,-0.29c0.68,0 1.21,0.21 1.6,0.61c0.39,0.41 0.58,0.96 0.58,1.65l0,4.38l-1.07,0l-0.01,0.01Z" style="fill-rule:nonzero;"/><path d="M49.51,327.11l0,-8.64l1.07,0l0,3.87l-0.12,0l0,4.77l-0.95,0Zm2.98,0.18c-0.61,0 -1.12,-0.15 -1.54,-0.45c-0.42,-0.3 -0.73,-0.71 -0.94,-1.23c-0.21,-0.52 -0.32,-1.1 -0.32,-1.74c0,-0.64 0.11,-1.24 0.32,-1.75c0.21,-0.52 0.53,-0.92 0.95,-1.22c0.42,-0.3 0.93,-0.45 1.54,-0.45c0.61,0 1.12,0.15 1.55,0.45c0.43,0.3 0.77,0.71 1,1.22c0.23,0.52 0.35,1.1 0.35,1.75c0,0.65 -0.12,1.23 -0.35,1.75c-0.23,0.52 -0.56,0.93 -1,1.23c-0.44,0.3 -0.95,0.45 -1.56,0.45l0,-0.01Zm-0.13,-0.98c0.43,0 0.78,-0.11 1.06,-0.32c0.28,-0.22 0.49,-0.51 0.63,-0.88c0.14,-0.37 0.21,-0.79 0.21,-1.25c0,-0.46 -0.07,-0.87 -0.21,-1.24c-0.14,-0.37 -0.35,-0.66 -0.64,-0.88c-0.29,-0.22 -0.65,-0.32 -1.09,-0.32c-0.44,0 -0.77,0.1 -1.04,0.31c-0.28,0.21 -0.48,0.49 -0.62,0.86c-0.14,0.37 -0.2,0.79 -0.2,1.27c0,0.48 0.07,0.89 0.2,1.26c0.13,0.37 0.34,0.66 0.62,0.87c0.28,0.21 0.64,0.32 1.07,0.32l0.01,0Z" style="fill-rule:nonzero;"/><path d="M56.84,319.48l0,-1.1l1.07,0l0,1.1l-1.07,0Zm0,7.62l0,-6.48l1.07,0l0,6.48l-1.07,0Z" style="fill-rule:nonzero;"/><path d="M59.7,327.11l0,-6.48l0.96,0l0,1.73l0.12,0l0,4.75l-1.08,0Zm4.62,0l0,-3.25c0,-0.31 -0.03,-0.6 -0.08,-0.89c-0.05,-0.29 -0.15,-0.54 -0.28,-0.77c-0.13,-0.23 -0.31,-0.41 -0.54,-0.54c-0.23,-0.13 -0.51,-0.2 -0.85,-0.2c-0.27,0 -0.51,0.04 -0.73,0.13c-0.22,0.09 -0.4,0.23 -0.56,0.41c-0.16,0.18 -0.28,0.42 -0.36,0.69c-0.09,0.28 -0.13,0.61 -0.13,0.98l-0.7,-0.21c0,-0.63 0.11,-1.17 0.34,-1.62c0.23,-0.45 0.54,-0.8 0.95,-1.04c0.41,-0.24 0.89,-0.36 1.45,-0.36c0.42,0 0.78,0.07 1.07,0.2c0.3,0.13 0.54,0.31 0.74,0.53c0.2,0.22 0.35,0.46 0.46,0.73c0.11,0.27 0.19,0.54 0.24,0.82c0.05,0.28 0.07,0.54 0.07,0.79l0,3.58l-1.08,0l-0.01,0.02Z" style="fill-rule:nonzero;"/><path d="M69.71,327.29c-0.64,0 -1.19,-0.14 -1.67,-0.42c-0.47,-0.28 -0.84,-0.68 -1.11,-1.18c-0.26,-0.51 -0.4,-1.1 -0.4,-1.77c-0,-0.67 0.13,-1.32 0.39,-1.84c0.26,-0.52 0.62,-0.92 1.09,-1.2c0.47,-0.28 1.01,-0.42 1.64,-0.42c0.63,0 1.21,0.15 1.67,0.45c0.46,0.3 0.8,0.73 1.03,1.28c0.23,0.56 0.33,1.22 0.3,1.99l-1.08,0l-0,-0.38c-0.01,-0.79 -0.17,-1.39 -0.49,-1.78c-0.32,-0.39 -0.78,-0.59 -1.39,-0.59c-0.66,0 -1.16,0.21 -1.51,0.64c-0.34,0.42 -0.52,1.03 -0.52,1.82c-0,0.79 0.17,1.36 0.52,1.78c0.34,0.42 0.83,0.63 1.47,0.63c0.43,0 0.8,-0.1 1.12,-0.29c0.32,-0.2 0.56,-0.48 0.74,-0.85l1.03,0.35c-0.25,0.57 -0.63,1.01 -1.14,1.33c-0.51,0.31 -1.07,0.47 -1.7,0.47l0.01,-0.02Zm-2.39,-3.12l-0,-0.86l4.79,0l-0,0.86l-4.79,0Z" style="fill-rule:nonzero;"/><path d="M76.53,327.29c-0.6,0 -1.12,-0.15 -1.55,-0.45c-0.43,-0.3 -0.77,-0.71 -1,-1.23c-0.23,-0.52 -0.35,-1.1 -0.35,-1.75c0,-0.65 0.12,-1.23 0.35,-1.75c0.23,-0.52 0.57,-0.92 1,-1.22c0.43,-0.3 0.95,-0.45 1.55,-0.45c0.6,0 1.13,0.15 1.54,0.45c0.42,0.29 0.73,0.7 0.95,1.22c0.21,0.52 0.32,1.1 0.32,1.75c0,0.65 -0.11,1.23 -0.32,1.74c-0.21,0.52 -0.53,0.93 -0.95,1.23c-0.42,0.3 -0.93,0.45 -1.54,0.45l0,0.01Zm0.13,-0.98c0.44,0 0.79,-0.11 1.07,-0.32c0.28,-0.21 0.49,-0.5 0.62,-0.87c0.13,-0.37 0.2,-0.79 0.2,-1.26c0,-0.47 -0.07,-0.9 -0.2,-1.27c-0.13,-0.37 -0.34,-0.65 -0.61,-0.86c-0.28,-0.21 -0.63,-0.31 -1.05,-0.31c-0.42,0 -0.8,0.11 -1.09,0.32c-0.29,0.22 -0.5,0.51 -0.64,0.88c-0.14,0.37 -0.21,0.78 -0.21,1.24c0,0.46 0.07,0.88 0.21,1.25c0.14,0.37 0.35,0.66 0.63,0.88c0.28,0.22 0.63,0.32 1.06,0.32l0.01,0Zm1.9,0.8l0,-4.77l-0.12,0l0,-3.87l1.07,0l0,8.64l-0.95,0Z" style="fill-rule:nonzero;"/><path d="M34.74,341.51l0,-8.64l3.71,0c0.12,0 0.23,0.02 0.34,0.04c0.47,0.07 0.86,0.23 1.18,0.48c0.32,0.25 0.56,0.56 0.72,0.94c0.16,0.38 0.24,0.8 0.24,1.26c0,0.46 -0.08,0.87 -0.24,1.25c-0.16,0.38 -0.4,0.69 -0.72,0.94c-0.32,0.25 -0.71,0.41 -1.17,0.48c-0.11,0.02 -0.22,0.03 -0.34,0.04c-0.12,0 -0.22,0.01 -0.3,0.01l-2.35,0l0,3.19l-1.07,0l0,0.01Zm1.07,-4.21l2.31,-0c0.08,-0 0.16,-0 0.26,-0.01c0.1,-0 0.19,-0.02 0.28,-0.04c0.28,-0.06 0.5,-0.18 0.68,-0.35c0.17,-0.17 0.3,-0.37 0.38,-0.6c0.08,-0.23 0.12,-0.46 0.12,-0.71c0,-0.25 -0.04,-0.47 -0.12,-0.71c-0.08,-0.24 -0.21,-0.43 -0.38,-0.6c-0.17,-0.17 -0.4,-0.29 -0.68,-0.35c-0.09,-0.02 -0.18,-0.04 -0.28,-0.04l-2.57,-0l0,3.42l0,-0.01Z" style="fill-rule:nonzero;"/><path d="M44.83,341.69c-0.64,0 -1.2,-0.15 -1.67,-0.44c-0.47,-0.29 -0.83,-0.7 -1.08,-1.21c-0.25,-0.52 -0.38,-1.11 -0.38,-1.78c0,-0.67 0.13,-1.28 0.38,-1.79c0.26,-0.51 0.62,-0.91 1.09,-1.2c0.47,-0.29 1.02,-0.43 1.65,-0.43c0.63,0 1.21,0.14 1.67,0.44c0.47,0.29 0.83,0.69 1.08,1.21c0.25,0.51 0.38,1.11 0.38,1.77c0,0.66 -0.13,1.27 -0.38,1.79c-0.25,0.52 -0.61,0.92 -1.08,1.21c-0.47,0.29 -1.02,0.43 -1.67,0.43l0.01,0Zm0,-1.01c0.67,0 1.17,-0.22 1.5,-0.67c0.33,-0.45 0.49,-1.03 0.49,-1.74c0,-0.71 -0.17,-1.31 -0.5,-1.75c-0.33,-0.43 -0.83,-0.65 -1.49,-0.65c-0.45,0 -0.82,0.1 -1.12,0.31c-0.29,0.2 -0.51,0.49 -0.65,0.85c-0.14,0.36 -0.22,0.78 -0.22,1.25c0,0.73 0.17,1.31 0.5,1.75c0.34,0.44 0.83,0.66 1.48,0.66l0.01,-0.01Z" style="fill-rule:nonzero;"/><path d="M50.41,341.51l-1.98,-6.49l1.06,0l1.45,4.75l1.46,-4.74l0.94,0l1.45,4.74l1.45,-4.74l1.06,0l-1.98,6.48l-0.89,0l-1.57,-4.93l-1.57,4.93l-0.89,0l0.01,0Z" style="fill-rule:nonzero;"/><path d="M60.95,341.69c-0.64,0 -1.19,-0.14 -1.67,-0.42c-0.48,-0.28 -0.84,-0.68 -1.11,-1.18c-0.26,-0.51 -0.4,-1.1 -0.4,-1.77c0,-0.67 0.13,-1.32 0.39,-1.84c0.26,-0.52 0.62,-0.92 1.09,-1.2c0.47,-0.28 1.01,-0.42 1.64,-0.42c0.63,0 1.21,0.15 1.67,0.45c0.46,0.3 0.8,0.73 1.03,1.28c0.23,0.56 0.33,1.22 0.3,1.99l-1.08,0l0,-0.38c-0.01,-0.8 -0.17,-1.39 -0.49,-1.79c-0.31,-0.39 -0.78,-0.59 -1.39,-0.59c-0.66,0 -1.16,0.21 -1.51,0.64c-0.34,0.42 -0.52,1.03 -0.52,1.82c0,0.79 0.17,1.36 0.52,1.78c0.34,0.42 0.83,0.63 1.47,0.63c0.43,0 0.8,-0.1 1.12,-0.29c0.32,-0.19 0.56,-0.48 0.74,-0.85l1.03,0.35c-0.25,0.57 -0.63,1.01 -1.14,1.33c-0.51,0.31 -1.07,0.47 -1.7,0.47l0.01,-0.01Zm-2.39,-3.12l0,-0.86l4.79,0l0,0.86l-4.79,0Z" style="fill-rule:nonzero;"/><path d="M65.23,341.51l0,-6.48l0.95,0l0,1.57l-0.16,-0.2c0.08,-0.2 0.17,-0.38 0.3,-0.55c0.13,-0.17 0.26,-0.31 0.41,-0.41c0.17,-0.14 0.36,-0.24 0.57,-0.31c0.21,-0.07 0.43,-0.11 0.65,-0.13c0.22,-0.01 0.43,0 0.62,0.04l0,1c-0.22,-0.06 -0.47,-0.08 -0.74,-0.05c-0.27,0.03 -0.52,0.12 -0.74,0.29c-0.21,0.15 -0.37,0.33 -0.48,0.54c-0.11,0.21 -0.19,0.44 -0.24,0.69c-0.05,0.25 -0.07,0.5 -0.07,0.75l0,3.25l-1.07,0Z" style="fill-rule:nonzero;"/></g><g><path d="M221.94,292.26l0,-7.63l-2.95,0l0,-1.01l6.96,0l0,1.01l-2.95,0l0,7.63l-1.07,0l0.01,0Z" style="fill-rule:nonzero;"/><path d="M226.9,292.26l0,-8.64l0.96,0l0,4.77l0.12,0l0,3.87l-1.08,0Zm4.62,0l0,-3.25c0,-0.31 -0.03,-0.6 -0.08,-0.89c-0.05,-0.28 -0.15,-0.54 -0.28,-0.76c-0.13,-0.23 -0.31,-0.41 -0.54,-0.54c-0.23,-0.13 -0.51,-0.2 -0.85,-0.2c-0.27,0 -0.51,0.04 -0.73,0.13c-0.22,0.09 -0.4,0.23 -0.56,0.41c-0.16,0.18 -0.28,0.42 -0.36,0.69c-0.08,0.27 -0.13,0.6 -0.13,0.98l-0.7,-0.22c0,-0.63 0.11,-1.17 0.34,-1.62c0.23,-0.45 0.54,-0.8 0.95,-1.04c0.41,-0.24 0.89,-0.36 1.45,-0.36c0.42,0 0.78,0.07 1.07,0.2c0.3,0.13 0.54,0.31 0.74,0.53c0.2,0.22 0.35,0.46 0.46,0.73c0.11,0.27 0.19,0.54 0.24,0.82c0.05,0.28 0.07,0.54 0.07,0.79l0,3.58l-1.08,0l-0.01,0.02Z" style="fill-rule:nonzero;"/><path d="M234.28,284.63l0,-1.1l1.07,0l0,1.1l-1.07,0Zm0,7.63l0,-6.48l1.07,0l0,6.48l-1.07,0Z" style="fill-rule:nonzero;"/><path d="M237.15,292.26l0,-6.48l0.96,0l0,1.73l0.12,0l0,4.75l-1.08,0Zm4.62,0l0,-3.25c0,-0.31 -0.03,-0.6 -0.08,-0.89c-0.05,-0.28 -0.15,-0.54 -0.28,-0.76c-0.13,-0.23 -0.31,-0.41 -0.54,-0.54c-0.23,-0.13 -0.51,-0.2 -0.85,-0.2c-0.27,0 -0.51,0.04 -0.73,0.13c-0.22,0.09 -0.4,0.23 -0.56,0.41c-0.16,0.18 -0.28,0.42 -0.36,0.69c-0.08,0.27 -0.13,0.6 -0.13,0.98l-0.7,-0.22c0,-0.63 0.11,-1.17 0.34,-1.62c0.23,-0.45 0.54,-0.8 0.95,-1.04c0.41,-0.24 0.89,-0.36 1.45,-0.36c0.42,0 0.78,0.07 1.07,0.2c0.3,0.13 0.54,0.31 0.74,0.53c0.2,0.22 0.35,0.46 0.46,0.73c0.11,0.27 0.19,0.54 0.24,0.82c0.05,0.28 0.07,0.54 0.07,0.79l0,3.58l-1.08,0l-0.01,0.02Z" style="fill-rule:nonzero;"/><path d="M246.95,292.44c-0.6,0 -1.12,-0.15 -1.55,-0.45c-0.43,-0.3 -0.77,-0.71 -1,-1.23c-0.23,-0.52 -0.35,-1.1 -0.35,-1.75c-0,-0.65 0.12,-1.23 0.35,-1.75c0.23,-0.52 0.57,-0.92 1,-1.22c0.43,-0.3 0.95,-0.45 1.55,-0.45c0.6,0 1.13,0.15 1.54,0.44c0.41,0.29 0.73,0.7 0.95,1.22c0.21,0.52 0.32,1.1 0.32,1.75c-0,0.65 -0.11,1.23 -0.32,1.74c-0.21,0.52 -0.53,0.93 -0.95,1.23c-0.42,0.3 -0.93,0.45 -1.54,0.45l-0,0.02Zm0.08,2.88c-0.34,0 -0.67,-0.05 -1,-0.16c-0.32,-0.1 -0.62,-0.26 -0.89,-0.47c-0.27,-0.21 -0.5,-0.48 -0.68,-0.79l0.98,-0.52c0.16,0.32 0.39,0.55 0.68,0.69c0.29,0.14 0.6,0.22 0.91,0.22c0.41,0 0.75,-0.08 1.03,-0.22c0.27,-0.15 0.47,-0.37 0.6,-0.67c0.13,-0.3 0.19,-0.66 0.19,-1.1l-0,-1.77l0.13,0l-0,-4.74l0.95,0l-0,6.52c-0,0.18 -0,0.35 -0.01,0.51c-0.01,0.16 -0.03,0.33 -0.06,0.49c-0.08,0.46 -0.25,0.84 -0.5,1.14c-0.25,0.3 -0.57,0.52 -0.96,0.67c-0.39,0.15 -0.85,0.22 -1.36,0.22l-0.01,-0.02Zm0.05,-3.86c0.44,0 0.79,-0.1 1.07,-0.31c0.28,-0.21 0.49,-0.5 0.62,-0.87c0.13,-0.37 0.2,-0.79 0.2,-1.26c0,-0.47 -0.07,-0.9 -0.2,-1.27c-0.13,-0.37 -0.34,-0.65 -0.61,-0.86c-0.28,-0.21 -0.63,-0.31 -1.05,-0.31c-0.42,0 -0.8,0.11 -1.09,0.32c-0.29,0.22 -0.5,0.51 -0.64,0.88c-0.14,0.37 -0.21,0.78 -0.21,1.24c0,0.46 0.07,0.88 0.21,1.25c0.14,0.37 0.35,0.66 0.63,0.88c0.28,0.22 0.63,0.32 1.06,0.32l0.01,-0.01Z" style="fill-rule:nonzero;"/><path d="M251.01,292.26l-0,-0.19l3.93,-5.32l-3.61,0l-0,-0.97l5.33,0l-0,0.2l-3.92,5.3l3.72,0l-0,0.97l-5.45,0l-0,0.01Z" style="fill-rule:nonzero;"/><path d="M261.53,292.44c-0.86,0 -1.59,-0.19 -2.19,-0.57c-0.6,-0.38 -1.06,-0.91 -1.37,-1.58c-0.31,-0.68 -0.47,-1.46 -0.47,-2.35c-0,-0.89 0.16,-1.67 0.47,-2.35c0.31,-0.68 0.77,-1.2 1.37,-1.58c0.6,-0.38 1.33,-0.57 2.19,-0.57c1,0 1.82,0.25 2.47,0.76c0.65,0.51 1.09,1.19 1.33,2.05l-1.09,0.29c-0.18,-0.64 -0.49,-1.15 -0.94,-1.52c-0.45,-0.37 -1.04,-0.56 -1.78,-0.56c-0.64,0 -1.18,0.15 -1.61,0.44c-0.43,0.29 -0.75,0.7 -0.97,1.22c-0.22,0.52 -0.33,1.13 -0.33,1.82c-0,0.69 0.1,1.29 0.32,1.81c0.22,0.52 0.54,0.93 0.97,1.22c0.43,0.29 0.97,0.44 1.61,0.44c0.73,0 1.32,-0.19 1.78,-0.56c0.46,-0.37 0.77,-0.88 0.94,-1.52l1.09,0.29c-0.24,0.86 -0.69,1.54 -1.33,2.05c-0.65,0.51 -1.47,0.77 -2.47,0.77l0.01,-0Z" style="fill-rule:nonzero;"/><rect x="266.77" y="283.44" width="1.07" height="8.82" style="fill-rule:nonzero;"/><path d="M272.4,292.44c-0.64,0 -1.2,-0.15 -1.67,-0.44c-0.47,-0.29 -0.83,-0.7 -1.08,-1.21c-0.25,-0.51 -0.38,-1.11 -0.38,-1.78c0,-0.67 0.13,-1.28 0.38,-1.79c0.26,-0.51 0.62,-0.91 1.09,-1.2c0.47,-0.29 1.02,-0.43 1.65,-0.43c0.63,0 1.21,0.15 1.67,0.44c0.46,0.29 0.83,0.69 1.08,1.21c0.25,0.52 0.38,1.1 0.38,1.77c0,0.67 -0.13,1.27 -0.38,1.79c-0.25,0.51 -0.61,0.92 -1.08,1.21c-0.47,0.29 -1.02,0.44 -1.67,0.44l0.01,-0.01Zm0,-1.01c0.67,0 1.17,-0.22 1.5,-0.67c0.33,-0.45 0.49,-1.03 0.49,-1.74c0,-0.71 -0.17,-1.31 -0.5,-1.75c-0.33,-0.43 -0.83,-0.65 -1.49,-0.65c-0.45,0 -0.82,0.1 -1.12,0.31c-0.3,0.21 -0.51,0.49 -0.65,0.85c-0.14,0.36 -0.22,0.78 -0.22,1.25c0,0.73 0.17,1.31 0.5,1.75c0.34,0.44 0.83,0.66 1.48,0.66l0.01,-0.01Z" style="fill-rule:nonzero;"/><path d="M279.31,292.43c-0.42,0 -0.77,-0.07 -1.07,-0.2c-0.3,-0.13 -0.54,-0.31 -0.74,-0.53c-0.2,-0.22 -0.35,-0.46 -0.46,-0.73c-0.11,-0.27 -0.19,-0.54 -0.24,-0.82c-0.05,-0.28 -0.07,-0.54 -0.07,-0.79l0,-3.58l1.08,0l0,3.25c0,0.3 0.03,0.6 0.08,0.88c0.06,0.28 0.15,0.54 0.29,0.77c0.13,0.23 0.31,0.41 0.54,0.54c0.23,0.13 0.51,0.2 0.85,0.2c0.27,0 0.51,-0.05 0.73,-0.14c0.22,-0.09 0.41,-0.23 0.56,-0.41c0.16,-0.18 0.28,-0.41 0.36,-0.69c0.08,-0.28 0.13,-0.61 0.13,-0.98l0.7,0.22c0,0.62 -0.11,1.16 -0.34,1.61c-0.23,0.45 -0.54,0.8 -0.95,1.04c-0.41,0.24 -0.89,0.36 -1.45,0.36Zm2.16,-0.17l-0,-1.73l-0.12,-0l-0,-4.75l1.07,-0l-0,6.48l-0.95,-0Z" style="fill-rule:nonzero;"/><path d="M286.65,292.44c-0.6,0 -1.12,-0.15 -1.55,-0.45c-0.43,-0.3 -0.76,-0.71 -1,-1.23c-0.23,-0.52 -0.35,-1.1 -0.35,-1.75c-0,-0.65 0.12,-1.23 0.35,-1.75c0.23,-0.52 0.57,-0.92 1,-1.22c0.43,-0.3 0.95,-0.45 1.55,-0.45c0.6,0 1.13,0.15 1.54,0.44c0.41,0.29 0.73,0.7 0.95,1.22c0.21,0.52 0.32,1.1 0.32,1.75c-0,0.65 -0.11,1.23 -0.32,1.74c-0.21,0.52 -0.53,0.93 -0.95,1.23c-0.42,0.3 -0.93,0.45 -1.54,0.45l-0,0.02Zm0.13,-0.98c0.44,0 0.79,-0.1 1.07,-0.31c0.28,-0.21 0.49,-0.5 0.62,-0.87c0.13,-0.37 0.2,-0.79 0.2,-1.26c-0,-0.47 -0.07,-0.9 -0.2,-1.27c-0.13,-0.37 -0.34,-0.65 -0.61,-0.86c-0.28,-0.21 -0.63,-0.31 -1.05,-0.31c-0.42,0 -0.8,0.11 -1.09,0.32c-0.29,0.22 -0.5,0.51 -0.64,0.88c-0.14,0.37 -0.21,0.78 -0.21,1.24c-0,0.46 0.07,0.88 0.21,1.25c0.14,0.37 0.35,0.66 0.63,0.88c0.28,0.22 0.63,0.32 1.06,0.32l0.01,-0.01Zm1.9,0.8l-0,-4.77l-0.12,0l-0,-3.87l1.07,0l-0,8.64l-0.95,0Z" style="fill-rule:nonzero;"/></g><g><path d="M43.43,177.23l0,-8.65l5.04,0l0,1.07l-3.97,0l0,2.72l3.25,0l0,1.07l-3.25,0l0,3.79l-1.07,0Z" style="fill-rule:nonzero;"/><path d="M51.15,177.4c-0.48,0 -0.89,-0.09 -1.22,-0.27c-0.33,-0.18 -0.57,-0.41 -0.74,-0.71c-0.17,-0.3 -0.25,-0.61 -0.25,-0.96c0,-0.35 0.06,-0.64 0.19,-0.89c0.13,-0.25 0.31,-0.46 0.55,-0.62c0.24,-0.17 0.52,-0.3 0.85,-0.39c0.31,-0.08 0.65,-0.16 1.04,-0.22c0.39,-0.06 0.77,-0.12 1.16,-0.17c0.39,-0.05 0.76,-0.1 1.1,-0.15l-0.38,0.22c0.01,-0.58 -0.1,-1 -0.35,-1.28c-0.24,-0.28 -0.66,-0.41 -1.25,-0.41c-0.39,0 -0.73,0.09 -1.03,0.27c-0.29,0.18 -0.5,0.47 -0.62,0.87l-1.01,-0.31c0.16,-0.57 0.46,-1.01 0.91,-1.34c0.45,-0.32 1.04,-0.49 1.77,-0.49c0.59,0 1.09,0.1 1.52,0.31c0.42,0.21 0.72,0.53 0.91,0.95c0.09,0.2 0.15,0.42 0.17,0.65c0.02,0.23 0.04,0.48 0.04,0.74l0,4.01l-0.95,0l0,-1.55l0.22,0.14c-0.24,0.52 -0.58,0.92 -1.02,1.19c-0.44,0.27 -0.97,0.4 -1.6,0.4l-0.01,0.01Zm0.16,-0.89c0.38,0 0.72,-0.07 1,-0.21c0.28,-0.14 0.51,-0.32 0.68,-0.55c0.17,-0.23 0.28,-0.47 0.34,-0.74c0.06,-0.2 0.09,-0.42 0.1,-0.67c0.01,-0.25 0,-0.44 0,-0.57l0.37,0.16c-0.35,0.05 -0.69,0.09 -1.03,0.14c-0.34,0.05 -0.65,0.09 -0.95,0.14c-0.3,0.05 -0.57,0.11 -0.81,0.18c-0.18,0.06 -0.34,0.13 -0.49,0.22c-0.15,0.09 -0.28,0.2 -0.37,0.34c-0.09,0.14 -0.14,0.31 -0.14,0.51c0,0.18 0.04,0.34 0.13,0.5c0.09,0.16 0.23,0.29 0.42,0.39c0.19,0.1 0.44,0.15 0.75,0.15l0,0.01Z" style="fill-rule:nonzero;"/><path d="M58.51,177.4c-0.77,0 -1.41,-0.17 -1.9,-0.51c-0.49,-0.34 -0.8,-0.81 -0.91,-1.42l1.09,-0.17c0.09,0.35 0.29,0.63 0.61,0.84c0.32,0.21 0.71,0.31 1.18,0.31c0.47,0 0.79,-0.09 1.04,-0.28c0.25,-0.18 0.38,-0.43 0.38,-0.75c0,-0.18 -0.04,-0.33 -0.13,-0.45c-0.08,-0.11 -0.26,-0.22 -0.52,-0.32c-0.26,-0.1 -0.66,-0.22 -1.19,-0.36c-0.57,-0.15 -1.02,-0.31 -1.35,-0.47c-0.33,-0.16 -0.56,-0.35 -0.7,-0.57c-0.14,-0.22 -0.21,-0.48 -0.21,-0.79c0,-0.38 0.1,-0.71 0.31,-1c0.21,-0.29 0.5,-0.51 0.87,-0.66c0.37,-0.16 0.81,-0.23 1.3,-0.23c0.49,0 0.93,0.08 1.32,0.23c0.39,0.16 0.7,0.38 0.94,0.66c0.24,0.29 0.38,0.62 0.42,1l-1.09,0.2c-0.05,-0.35 -0.22,-0.62 -0.5,-0.82c-0.28,-0.2 -0.65,-0.31 -1.09,-0.32c-0.42,-0.02 -0.76,0.06 -1.02,0.22c-0.26,0.16 -0.39,0.39 -0.39,0.67c0,0.16 0.05,0.29 0.15,0.4c0.1,0.11 0.28,0.22 0.55,0.32c0.27,0.1 0.65,0.21 1.16,0.34c0.57,0.14 1.02,0.3 1.35,0.47c0.33,0.17 0.56,0.37 0.71,0.6c0.15,0.23 0.21,0.51 0.21,0.85c0,0.62 -0.23,1.12 -0.69,1.47c-0.46,0.35 -1.09,0.54 -1.9,0.54Z" style="fill-rule:nonzero;"/><path d="M61.7,171.63l0,-0.88l4.34,0l0,0.88l-4.34,0Zm4.34,5.6c-0.38,0.08 -0.76,0.11 -1.14,0.09c-0.37,-0.01 -0.71,-0.09 -1,-0.23c-0.29,-0.14 -0.51,-0.35 -0.67,-0.65c-0.13,-0.26 -0.2,-0.52 -0.21,-0.78c-0.01,-0.26 -0.02,-0.56 -0.02,-0.89l0,-5.83l1.07,0l0,6.46c0,0.19 0.05,0.35 0.12,0.49c0.14,0.26 0.37,0.41 0.69,0.45c0.32,0.04 0.69,0.03 1.14,-0.04l0,0.92l0.02,0.01Z" style="fill-rule:nonzero;"/><path d="M69.9,177.4c-0.64,0 -1.19,-0.14 -1.67,-0.42c-0.47,-0.28 -0.84,-0.68 -1.11,-1.18c-0.26,-0.51 -0.4,-1.1 -0.4,-1.77c0,-0.67 0.13,-1.32 0.39,-1.84c0.26,-0.52 0.62,-0.92 1.09,-1.2c0.47,-0.28 1.01,-0.42 1.64,-0.42c0.63,0 1.21,0.15 1.67,0.45c0.46,0.3 0.8,0.73 1.03,1.28c0.23,0.56 0.33,1.22 0.3,1.99l-1.08,0l0,-0.38c-0.01,-0.8 -0.17,-1.39 -0.49,-1.78c-0.32,-0.39 -0.78,-0.59 -1.39,-0.59c-0.66,0 -1.16,0.21 -1.51,0.64c-0.34,0.42 -0.52,1.03 -0.52,1.82c0,0.79 0.17,1.36 0.52,1.78c0.34,0.42 0.83,0.63 1.47,0.63c0.43,0 0.8,-0.1 1.12,-0.29c0.32,-0.19 0.56,-0.48 0.74,-0.85l1.03,0.35c-0.25,0.57 -0.63,1.02 -1.14,1.33c-0.51,0.31 -1.07,0.47 -1.7,0.47l0.01,-0.02Zm-2.39,-3.12l0,-0.86l4.79,0l0,0.86l-4.79,0Z" style="fill-rule:nonzero;"/><path d="M74.18,177.22l0,-6.48l0.95,0l0,1.57l-0.16,-0.2c0.08,-0.2 0.17,-0.38 0.3,-0.55c0.13,-0.17 0.26,-0.31 0.41,-0.41c0.17,-0.14 0.36,-0.24 0.57,-0.31c0.21,-0.07 0.43,-0.11 0.65,-0.13c0.22,-0.02 0.43,0 0.62,0.04l0,1c-0.22,-0.06 -0.47,-0.08 -0.74,-0.05c-0.27,0.03 -0.52,0.13 -0.74,0.29c-0.21,0.15 -0.37,0.33 -0.48,0.54c-0.11,0.21 -0.19,0.44 -0.24,0.69c-0.05,0.25 -0.07,0.5 -0.07,0.75l0,3.25l-1.07,0Z" style="fill-rule:nonzero;"/><path d="M51.31,191.62l0,-8.64l3.71,0c0.12,0 0.23,0.02 0.34,0.04c0.47,0.07 0.86,0.23 1.18,0.48c0.32,0.25 0.56,0.56 0.72,0.94c0.16,0.38 0.24,0.8 0.24,1.26c-0,0.67 -0.17,1.25 -0.52,1.74c-0.35,0.49 -0.86,0.8 -1.53,0.92l-0.41,0.07l-2.66,0l-0,3.19l-1.07,0Zm1.07,-4.21l2.31,0c0.08,0 0.16,0 0.26,-0.01c0.1,0 0.19,-0.02 0.28,-0.04c0.28,-0.06 0.5,-0.18 0.68,-0.35c0.17,-0.17 0.3,-0.37 0.38,-0.6c0.08,-0.23 0.12,-0.46 0.12,-0.71c-0,-0.25 -0.04,-0.48 -0.12,-0.71c-0.08,-0.23 -0.21,-0.43 -0.38,-0.6c-0.17,-0.17 -0.4,-0.29 -0.68,-0.35c-0.09,-0.02 -0.18,-0.04 -0.28,-0.05l-2.57,0l-0,3.42Zm4.07,4.21l-1.7,-3.52l1.06,-0.32l1.87,3.84l-1.23,0Z" style="fill-rule:nonzero;"/><path d="M62.55,191.8c-0.86,0 -1.59,-0.19 -2.19,-0.57c-0.6,-0.38 -1.06,-0.91 -1.37,-1.58c-0.31,-0.68 -0.47,-1.46 -0.47,-2.35c-0,-0.89 0.16,-1.67 0.47,-2.35c0.31,-0.68 0.77,-1.2 1.37,-1.58c0.6,-0.38 1.33,-0.57 2.19,-0.57c0.86,0 1.6,0.19 2.2,0.57c0.6,0.38 1.06,0.91 1.37,1.58c0.31,0.68 0.47,1.46 0.47,2.35c0,0.89 -0.16,1.67 -0.47,2.35c-0.31,0.68 -0.77,1.2 -1.37,1.58c-0.6,0.38 -1.33,0.57 -2.2,0.57Zm0,-1.02c0.64,0 1.18,-0.14 1.61,-0.44c0.43,-0.3 0.75,-0.7 0.97,-1.23c0.21,-0.52 0.32,-1.13 0.32,-1.82c0,-0.69 -0.11,-1.3 -0.32,-1.82c-0.21,-0.52 -0.54,-0.93 -0.97,-1.22c-0.43,-0.29 -0.97,-0.44 -1.61,-0.44c-0.64,0 -1.18,0.14 -1.6,0.43c-0.43,0.29 -0.75,0.7 -0.96,1.22c-0.22,0.52 -0.33,1.13 -0.33,1.82c0,0.69 0.1,1.29 0.32,1.81c0.22,0.52 0.54,0.93 0.97,1.22c0.43,0.29 0.97,0.44 1.61,0.45l-0.01,0.02Z" style="fill-rule:nonzero;"/><rect x="67.9" y="182.98" width="1.07" height="8.64" style="fill-rule:nonzero;"/></g></svg>