<svg width="493" height="408" viewBox="0 0 493 408" fill="none" xmlns="http://www.w3.org/2000/svg">
<path d="M430.742 252.308V257.925H472.787V252.308H430.742Z" fill="#E0E0E0"/>
<path d="M436.471 252.541C436.617 252.541 436.735 253.719 436.735 255.172C436.735 256.626 436.617 257.804 436.471 257.804C436.325 257.804 436.207 256.626 436.207 255.172C436.207 253.72 436.325 252.541 436.471 252.541Z" fill="#FAFAFA"/>
<path d="M435.556 252.427C435.702 252.427 435.82 253.605 435.82 255.059C435.82 256.512 435.702 257.691 435.556 257.691C435.41 257.691 435.292 256.513 435.292 255.059C435.291 253.605 435.41 252.427 435.556 252.427Z" fill="#FAFAFA"/>
<path d="M469.537 252.541C469.683 252.541 469.801 253.719 469.801 255.172C469.801 256.626 469.683 257.804 469.537 257.804C469.391 257.804 469.273 256.626 469.273 255.172C469.273 253.72 469.391 252.541 469.537 252.541Z" fill="#FAFAFA"/>
<path d="M468.622 257.691C468.768 257.691 468.886 256.512 468.886 255.059C468.886 253.605 468.768 252.427 468.622 252.427C468.476 252.427 468.358 253.605 468.358 255.059C468.358 256.512 468.476 257.691 468.622 257.691Z" fill="#FAFAFA"/>
<path d="M463.13 255.286C463.13 255.432 458.314 255.55 452.375 255.55C446.434 255.55 441.619 255.432 441.619 255.286C441.619 255.14 446.434 255.022 452.375 255.022C458.314 255.022 463.13 255.14 463.13 255.286Z" fill="#FAFAFA"/>
<path d="M430.561 277.598V288.832H472.606V277.598H430.561Z" fill="#E0E0E0"/>
<path d="M473.145 285.672C473.149 285.68 473.072 285.725 472.917 285.803C472.763 285.883 472.528 285.991 472.216 286.123C471.591 286.378 470.647 286.74 469.366 286.939C468.106 287.119 466.414 287.169 464.74 286.283C463.919 285.844 463.137 285.177 462.543 284.292C461.962 283.409 461.588 282.256 461.778 281.056C461.878 280.459 462.128 279.87 462.551 279.383C462.962 278.895 463.621 278.536 464.324 278.578C465.028 278.609 465.664 279.014 466.106 279.539C466.551 280.066 466.856 280.741 466.92 281.455C467.086 282.879 466.486 284.356 465.47 285.436C464.47 286.555 462.975 287.237 461.429 287.411C459.874 287.596 458.265 287.349 456.738 286.829C455.212 286.303 453.705 285.447 452.64 284.075C452.118 283.393 451.74 282.547 451.685 281.649C451.607 280.754 451.893 279.793 452.58 279.125C452.922 278.793 453.4 278.569 453.895 278.548C454.391 278.524 454.87 278.686 455.27 278.935C456.081 279.439 456.6 280.3 456.817 281.202C457.212 283.039 456.485 284.953 455.159 286.151C453.829 287.361 452.087 287.898 450.425 288.078C448.752 288.246 447.068 288.121 445.518 287.595C443.974 287.081 442.584 286.065 441.785 284.693C440.972 283.352 440.705 281.655 441.317 280.23C441.605 279.524 442.255 278.898 443.032 278.779C443.79 278.637 444.565 278.847 445.15 279.29C446.337 280.231 446.535 281.846 446.152 283.075C445.763 284.339 444.913 285.307 444.033 286.06C442.236 287.578 440.108 288.234 438.267 288.3C436.407 288.366 434.843 287.853 433.699 287.262C432.546 286.663 431.788 285.982 431.317 285.496C431.085 285.248 430.916 285.053 430.814 284.912C430.709 284.774 430.658 284.7 430.666 284.695C430.719 284.622 431.508 285.921 433.792 287.078C434.926 287.628 436.457 288.096 438.255 288.004C440.035 287.913 442.082 287.25 443.791 285.776C444.631 285.045 445.421 284.111 445.763 282.959C446.107 281.846 445.884 280.404 444.888 279.64C444.402 279.273 443.733 279.101 443.12 279.223C442.496 279.327 442.002 279.801 441.745 280.417C441.215 281.665 441.447 283.211 442.204 284.443C442.947 285.703 444.221 286.633 445.683 287.118C447.144 287.61 448.768 287.729 450.371 287.564C451.962 287.389 453.595 286.871 454.806 285.763C456.002 284.691 456.654 282.93 456.303 281.323C456.112 280.536 455.661 279.8 454.992 279.386C454.336 278.951 453.478 278.964 452.942 279.51C452.399 280.034 452.136 280.848 452.208 281.615C452.256 282.396 452.581 283.141 453.055 283.763C454.019 285.016 455.45 285.849 456.902 286.351C458.371 286.857 459.91 287.095 461.372 286.927C462.832 286.765 464.198 286.148 465.13 285.118C466.078 284.123 466.625 282.774 466.484 281.501C466.382 280.265 465.439 279.061 464.303 278.984C463.743 278.947 463.207 279.222 462.843 279.641C462.473 280.058 462.24 280.587 462.146 281.117C461.963 282.201 462.288 283.27 462.824 284.107C463.372 284.946 464.106 285.593 464.881 286.022C466.45 286.888 468.099 286.881 469.336 286.734C470.597 286.571 471.543 286.245 472.176 286.023C472.81 285.794 473.136 285.652 473.145 285.672Z" fill="#FAFAFA"/>
<path d="M434.315 258.087V277.578H472.605V258.087H434.315Z" fill="#EBEBEB"/>
<path d="M440.678 258.756C440.824 258.756 440.942 262.98 440.942 268.189C440.942 273.4 440.824 277.623 440.678 277.623C440.532 277.623 440.414 273.4 440.414 268.189C440.414 262.98 440.532 258.756 440.678 258.756Z" fill="#E0E0E0"/>
<path d="M443.58 258.514C443.726 258.514 443.845 262.684 443.845 267.826C443.845 272.97 443.727 277.139 443.58 277.139C443.434 277.139 443.316 272.97 443.316 267.826C443.316 262.684 443.435 258.514 443.58 258.514Z" fill="#E0E0E0"/>
<path d="M468.278 257.888C468.424 257.888 468.542 262.279 468.542 267.694C468.542 273.111 468.424 277.501 468.278 277.501C468.132 277.501 468.014 273.111 468.014 267.694C468.013 262.279 468.132 257.888 468.278 257.888Z" fill="#E0E0E0"/>
<path d="M464.866 258.151C465.012 258.151 465.13 262.429 465.13 267.705C465.13 272.983 465.012 277.26 464.866 277.26C464.72 277.26 464.602 272.983 464.602 267.705C464.601 262.429 464.72 258.151 464.866 258.151Z" fill="#E0E0E0"/>
<path d="M464.476 36.1785H206.34V207.404H464.476V36.1785Z" fill="#E0E0E0"/>
<path d="M0.164898 48.6883C-0.222102 24.4623 19.0819 4.43626 43.1959 4.04726C67.3099 3.65826 87.2439 23.0513 87.6319 47.2763C88.0189 71.5023 68.7149 91.5283 44.6009 91.9173C20.4859 92.3063 0.551898 72.9133 0.164898 48.6883ZM64.8089 47.6443C64.6239 36.0613 55.0929 26.7883 43.5629 26.9743C32.0329 27.1603 22.8029 36.7353 22.9879 48.3183C23.1729 59.9013 32.7039 69.1743 44.2339 68.9883C55.7639 68.8033 64.9939 59.2273 64.8089 47.6443Z" fill="#F5F5F5"/>
<path d="M0.164899 48.6884C-0.222101 24.4624 19.0809 4.43636 43.1949 4.04736L43.5619 26.9754C32.0319 27.1614 22.8019 36.7374 22.9869 48.3204C23.1719 59.9034 32.7029 69.1754 44.2329 68.9894L44.5999 91.9174C20.4859 92.3064 0.552899 72.9144 0.164899 48.6884Z" fill="#E0E0E0"/>
<path d="M39.269 0.521368C67.481 0.0663683 89.987 21.9614 90.44 50.3034L63.739 50.7344C63.522 37.1834 53.211 28.6514 39.722 28.8694L39.269 0.521368Z" fill="#EBEBEB"/>
<path d="M209.398 401.094C208.274 400.13 205.766 397.076 207.7 393.523C208.409 392.221 209.914 391.576 211.277 391.003C212.64 390.429 214.072 389.93 215.2 388.971C217.327 387.162 217.914 384.156 219.325 381.742C220.946 378.971 223.971 376.895 227.167 377.04C230.827 377.206 233.879 380.196 235.263 383.604C236.647 387.012 236.695 390.797 236.724 394.477C236.74 396.512 236.65 398.806 235.155 400.181C233.777 401.448 231.703 401.464 229.836 401.406C223.169 401.201 216.502 400.996 209.836 400.792" fill="#F5F5F5"/>
<path d="M247.652 346.096H195.053L204.528 402.592C204.942 405.06 206.727 406.961 209.019 407.622C209.08 407.641 209.142 407.655 209.203 407.672C209.36 407.712 209.511 407.765 209.671 407.793C210.018 407.865 210.376 407.901 210.741 407.916C210.744 407.934 210.747 407.953 210.75 407.97L211.007 407.929C211.008 407.929 211.008 407.929 211.009 407.929H234.451C234.892 407.929 235.322 407.884 235.739 407.801C238.508 407.373 240.723 405.151 241.06 402.279L245.628 363.352L245.834 361.804H245.81L247.619 346.388L247.652 346.096ZM237.729 382.133H232.331L232.876 365.737H239.13L237.729 382.133ZM239.654 365.737H244.822L242.898 382.133H238.253L239.654 365.737ZM224.233 400.31L223.905 386.066H231.678L231.205 400.31H224.233ZM215.829 386.065H223.382L223.71 400.309H216.936L215.829 386.065ZM216.413 400.31H210.08C209.478 396.464 208.695 391.466 207.848 386.066H215.306L216.413 400.31ZM215.524 382.133L214.25 365.737H222.915L223.293 382.133H215.524ZM223.814 382.133L223.436 365.737H232.353L231.808 382.133H223.814ZM223.346 361.805L222.996 346.62H232.988L232.484 361.805H223.346ZM222.824 361.805H213.944L212.764 346.62H222.474L222.824 361.805ZM213.421 361.805H204.026C203.694 359.708 203.378 357.723 203.093 355.937C202.113 349.798 201.744 347.489 201.54 346.621H212.241L213.421 361.805ZM213.726 365.737L215 382.133H207.23C206.969 380.469 206.704 378.786 206.439 377.102C205.83 373.232 205.22 369.362 204.647 365.736H213.726V365.737ZM206.702 382.133H201.626L198.876 365.737H204.118C204.92 370.804 205.808 376.444 206.702 382.133ZM207.32 386.065C208.094 390.994 208.855 395.854 209.552 400.309H204.675L202.286 386.065H207.32ZM231.728 400.31L232.201 386.066H237.393L236.176 400.31H231.728ZM233.007 361.805L233.511 346.62H240.763L239.466 361.805H233.007ZM201.042 346.62C201.25 347.718 202.211 353.693 203.496 361.805H198.217L195.67 346.62H201.042ZM240.765 400.31H236.7L237.917 386.066H242.436L240.765 400.31ZM245.283 361.805H239.99L241.287 346.62H247.064L245.283 361.805Z" fill="#E0E0E0"/>
<path d="M236.566 259.574H132.573C130.789 259.574 129.343 258.128 129.343 256.344V231.694C129.343 229.91 130.789 228.464 132.573 228.464H236.566C238.35 228.464 239.797 229.91 239.797 231.694V256.344C239.796 258.128 238.35 259.574 236.566 259.574Z" fill="#E0E0E0"/>
<path d="M152.624 249.207C150.299 252.12 146.063 252.588 143.163 250.252C140.263 247.916 139.797 243.661 142.123 240.747C144.448 237.834 148.684 237.366 151.584 239.702C154.484 242.038 154.95 246.294 152.624 249.207Z" fill="#F5F5F5"/>
<path d="M151.157 242.682C151.258 242.785 149.637 244.535 147.538 246.592C147.232 246.888 146.937 247.174 146.649 247.453L146.466 247.63L146.292 247.451C144.657 245.77 143.504 244.465 143.591 244.378C143.678 244.291 144.977 245.451 146.651 247.093L146.295 247.091C146.58 246.808 146.872 246.519 147.175 246.219C149.272 244.163 151.056 242.579 151.157 242.682Z" fill="#E0E0E0"/>
<path d="M228.923 241.638C228.923 241.782 214.098 241.898 195.814 241.898C177.524 241.898 162.702 241.781 162.702 241.638C162.702 241.495 177.524 241.378 195.814 241.378C214.098 241.378 228.923 241.495 228.923 241.638Z" fill="#FAFAFA"/>
<path d="M229.215 247.272C229.215 247.416 214.39 247.532 196.106 247.532C177.816 247.532 162.994 247.415 162.994 247.272C162.994 247.129 177.816 247.012 196.106 247.012C214.39 247.012 229.215 247.129 229.215 247.272Z" fill="#FAFAFA"/>
<path d="M492.155 407.014C492.155 407.158 383.802 407.274 250.174 407.274C116.499 407.274 8.16895 407.157 8.16895 407.014C8.16895 406.871 116.499 406.754 250.174 406.754C383.802 406.753 492.155 406.87 492.155 407.014Z" fill="#263238"/>
<path d="M458.193 40.4753H190.864V215.821H458.193V40.4753Z" fill="#FAFAFA"/>
<path d="M458.194 215.821C458.192 214.133 458.113 147.421 457.987 40.4763L458.194 40.6833C384.832 40.6983 291.8 40.7163 190.886 40.7363H190.865L191.125 40.4763C191.117 102.834 191.11 162.176 191.104 215.821L190.865 215.582C348.158 215.722 456.051 215.819 458.194 215.821C456.053 215.823 348.158 215.92 190.865 216.06H190.626V215.82C190.619 162.175 190.612 102.833 190.605 40.4753V40.2153H190.865H190.886C291.8 40.2353 384.832 40.2543 458.194 40.2683H458.401V40.4753C458.274 147.421 458.196 214.134 458.194 215.821Z" fill="#263238"/>
<path d="M272.564 137.306L298.858 137.668C298.657 151.681 286.85 163.101 272.564 163.101C272.513 163.101 272.461 163.101 272.41 163.1L272.564 137.306Z" fill="#455A64"/>
<path d="M316.041 172.908C316.041 172.924 315.847 172.939 315.479 172.953C315.063 172.964 314.53 172.978 313.871 172.995C312.422 173.012 310.425 173.035 307.996 173.063L307.922 173.064L307.874 173.004C305.528 170.048 302.501 166.235 299.2 162.076C296.636 158.806 294.238 155.749 292.208 153.16L292.343 153.226C289.177 153.197 286.526 153.172 284.605 153.154C283.712 153.134 282.99 153.119 282.441 153.106C281.942 153.089 281.676 153.071 281.676 153.053C281.676 153.035 281.942 153.017 282.441 153C282.99 152.988 283.712 152.972 284.605 152.952C286.526 152.934 289.177 152.91 292.343 152.88L292.426 152.879L292.479 152.945C294.523 155.524 296.936 158.569 299.517 161.826C302.791 166.007 305.792 169.841 308.119 172.812L307.997 172.753C310.426 172.781 312.422 172.804 313.872 172.821C314.531 172.838 315.064 172.852 315.48 172.863C315.847 172.877 316.041 172.892 316.041 172.908Z" fill="#263238"/>
<path d="M325.473 175.939C325.473 176.05 321.664 176.14 316.966 176.14C312.267 176.14 308.458 176.05 308.458 175.939C308.458 175.828 312.266 175.738 316.966 175.738C321.664 175.738 325.473 175.828 325.473 175.939Z" fill="#263238"/>
<path d="M325.473 179.09C325.473 179.201 321.664 179.292 316.966 179.292C312.267 179.292 308.458 179.202 308.458 179.09C308.458 178.979 312.266 178.889 316.966 178.889C321.664 178.888 325.473 178.979 325.473 179.09Z" fill="#263238"/>
<path d="M268.405 133.565L268.036 159.358C253.751 159.161 242.109 147.579 242.109 133.565C242.109 119.414 253.98 107.77 268.406 107.77C282.832 107.77 294.703 119.414 294.703 133.565H268.405Z" fill="#1685FF"/>
<path d="M258.138 125.128C258.14 125.145 257.982 125.181 257.682 125.235C257.325 125.292 256.892 125.361 256.374 125.444C255.167 125.613 253.563 125.838 251.651 126.107L251.573 126.118L251.514 126.061C249.716 124.312 247.55 122.205 245.214 119.932C242.187 116.963 239.464 114.26 237.506 112.289C236.572 111.336 235.797 110.546 235.203 109.94C234.665 109.379 234.377 109.059 234.397 109.039C234.417 109.019 234.742 109.301 235.313 109.828C235.931 110.411 236.736 111.17 237.706 112.086C239.715 114.005 242.47 116.676 245.497 119.645C247.815 121.938 249.963 124.063 251.746 125.826L251.61 125.78C253.529 125.568 255.14 125.391 256.351 125.257C256.874 125.209 257.31 125.17 257.67 125.137C257.974 125.115 258.136 125.111 258.138 125.128Z" fill="#263238"/>
<path d="M227.736 107.903C227.736 108.014 223.927 108.104 219.229 108.104C214.53 108.104 210.721 108.014 210.721 107.903C210.721 107.792 214.529 107.702 219.229 107.702C223.927 107.701 227.736 107.792 227.736 107.903Z" fill="#263238"/>
<path d="M227.736 111.054C227.736 111.165 223.927 111.256 219.229 111.256C214.53 111.256 210.721 111.166 210.721 111.054C210.721 110.943 214.529 110.853 219.229 110.853C223.927 110.853 227.736 110.943 227.736 111.054Z" fill="#263238"/>
<path d="M360.397 82.6044L360.293 66.5754C355.573 66.6024 350.76 68.4694 347.069 71.7314C342.722 75.5734 339.937 81.3504 340.696 88.3324C340.779 89.0954 340.9 89.8704 341.07 90.6614C341.074 90.6804 341.077 90.6984 341.081 90.7174H341.083L360.397 86.3714V82.6044Z" fill="#1685FF"/>
<g opacity="0.3">
<path d="M360.397 82.6044L360.293 66.5754C355.573 66.6024 350.76 68.4694 347.069 71.7314C342.722 75.5734 339.937 81.3504 340.696 88.3324C340.779 89.0954 340.9 89.8704 341.07 90.6614C341.074 90.6804 341.077 90.6984 341.081 90.7174H341.083L360.397 86.3714V82.6044Z" fill="white"/>
</g>
<path d="M380.303 77.6705C377.603 72.0335 372.286 67.5175 364.715 66.7575C364.513 66.7375 364.309 66.7185 364.103 66.7035C363.973 66.6945 363.845 66.6815 363.714 66.6735C363.332 66.6525 362.944 66.6415 362.551 66.6395C362.533 66.6395 362.516 66.6385 362.498 66.6385H362.495C362.479 66.6385 362.463 66.6375 362.446 66.6375V66.6404L362.55 82.6695L362.575 86.4365L381.894 90.6515L381.918 90.6565C382.213 89.3025 382.354 87.9065 382.347 86.5005C382.332 83.4965 381.633 80.4485 380.303 77.6705Z" fill="#1685FF"/>
<g opacity="0.3">
<path d="M380.303 77.6705C377.603 72.0335 372.286 67.5175 364.715 66.7575C364.513 66.7375 364.309 66.7185 364.103 66.7035C363.973 66.6945 363.845 66.6815 363.714 66.6735C363.332 66.6525 362.944 66.6415 362.551 66.6395C362.533 66.6395 362.516 66.6385 362.498 66.6385H362.495C362.479 66.6385 362.463 66.6375 362.446 66.6375V66.6404L362.55 82.6695L362.575 86.4365L381.894 90.6515L381.918 90.6565C382.213 89.3025 382.354 87.9065 382.347 86.5005C382.332 83.4965 381.633 80.4485 380.303 77.6705Z" fill="black"/>
</g>
<path d="M361.432 88.3726L342.118 92.7186C344.1 101.562 351.991 108.171 361.432 108.171C370.919 108.171 378.843 101.497 380.776 92.5885L361.457 88.3736" fill="#1685FF"/>
<path d="M436.612 85.4863C436.612 85.6303 426.626 85.7463 414.311 85.7463C401.992 85.7463 392.008 85.6293 392.008 85.4863C392.008 85.3423 401.991 85.2263 414.311 85.2263C426.626 85.2263 436.612 85.3423 436.612 85.4863Z" fill="#263238"/>
<path d="M436.612 80.4023C436.612 80.5463 426.626 80.6623 414.311 80.6623C401.992 80.6623 392.008 80.5453 392.008 80.4023C392.008 80.2583 401.991 80.1423 414.311 80.1423C426.626 80.1423 436.612 80.2583 436.612 80.4023Z" fill="#263238"/>
<path d="M436.612 75.3184C436.612 75.4624 426.626 75.5784 414.311 75.5784C401.992 75.5784 392.008 75.4614 392.008 75.3184C392.008 75.1744 401.991 75.0584 414.311 75.0584C426.626 75.0574 436.612 75.1744 436.612 75.3184Z" fill="#263238"/>
<path d="M436.612 90.2165C436.612 90.3605 426.626 90.4765 414.311 90.4765C401.992 90.4765 392.008 90.3595 392.008 90.2165C392.008 90.0725 401.991 89.9565 414.311 89.9565C426.626 89.9565 436.612 90.0725 436.612 90.2165Z" fill="#263238"/>
<path d="M422.8 95.3645C422.8 95.5085 415.941 95.6245 407.483 95.6245C399.022 95.6245 392.165 95.5075 392.165 95.3645C392.165 95.2205 399.022 95.1045 407.483 95.1045C415.942 95.1045 422.8 95.2205 422.8 95.3645Z" fill="#263238"/>
<path d="M349.825 132.166H345.231V183.475H349.825V132.166Z" fill="#1685FF"/>
<path d="M358.695 149.593H354.101V183.475H358.695V149.593Z" fill="#1685FF"/>
<path d="M367.565 138.544H362.971V183.736H367.565V138.544Z" fill="#1685FF"/>
<path d="M376.434 134.148H371.84V183.475H376.434V134.148Z" fill="#1685FF"/>
<path d="M385.304 150.636H380.71V183.475H385.304V150.636Z" fill="#1685FF"/>
<path d="M394.173 157.076H389.579V183.475H394.173V157.076Z" fill="#1685FF"/>
<path d="M403.043 137.432H398.449V183.474H403.043V137.432Z" fill="#1685FF"/>
<path d="M411.913 145.733H407.319V183.475H411.913V145.733Z" fill="#1685FF"/>
<path d="M420.782 139.1H416.188V183.475H420.782V139.1Z" fill="#1685FF"/>
<path d="M429.652 153.243H425.058V183.475H429.652V153.243Z" fill="#1685FF"/>
<path d="M438.522 147.491H433.928V183.475H438.522V147.491Z" fill="#1685FF"/>
<path d="M440.397 187.049C440.397 187.153 418.605 187.238 391.729 187.238C364.844 187.238 343.056 187.153 343.056 187.049C343.056 186.945 364.844 186.86 391.729 186.86C418.605 186.86 440.397 186.944 440.397 187.049Z" fill="#263238"/>
<path d="M351.785 191.087C351.785 191.191 350.259 191.276 348.376 191.276C346.493 191.276 344.966 191.191 344.966 191.087C344.966 190.983 346.492 190.898 348.376 190.898C350.258 190.898 351.785 190.983 351.785 191.087Z" fill="#263238"/>
<path d="M363.094 191.293C363.094 191.397 361.27 191.482 359.019 191.482C356.768 191.482 354.944 191.397 354.944 191.293C354.944 191.189 356.768 191.104 359.019 191.104C361.27 191.104 363.094 191.189 363.094 191.293Z" fill="#263238"/>
<path d="M372.74 191.293C372.74 191.397 370.916 191.482 368.666 191.482C366.415 191.482 364.591 191.397 364.591 191.293C364.591 191.189 366.415 191.104 368.666 191.104C370.916 191.104 372.74 191.189 372.74 191.293Z" fill="#263238"/>
<path d="M382.386 191.293C382.386 191.397 380.562 191.482 378.312 191.482C376.061 191.482 374.237 191.397 374.237 191.293C374.237 191.189 376.061 191.104 378.312 191.104C380.562 191.104 382.386 191.189 382.386 191.293Z" fill="#263238"/>
<path d="M392.032 191.293C392.032 191.397 390.208 191.482 387.958 191.482C385.707 191.482 383.883 191.397 383.883 191.293C383.883 191.189 385.707 191.104 387.958 191.104C390.208 191.104 392.032 191.189 392.032 191.293Z" fill="#263238"/>
<path d="M401.679 191.293C401.679 191.397 399.855 191.482 397.605 191.482C395.354 191.482 393.53 191.397 393.53 191.293C393.53 191.189 395.354 191.104 397.605 191.104C399.854 191.104 401.679 191.189 401.679 191.293Z" fill="#263238"/>
<path d="M411.325 191.293C411.325 191.397 409.501 191.482 407.251 191.482C405 191.482 403.176 191.397 403.176 191.293C403.176 191.189 405 191.104 407.251 191.104C409.5 191.104 411.325 191.189 411.325 191.293Z" fill="#263238"/>
<path d="M420.971 191.293C420.971 191.397 419.147 191.482 416.896 191.482C414.645 191.482 412.821 191.397 412.821 191.293C412.821 191.189 414.645 191.104 416.896 191.104C419.147 191.104 420.971 191.189 420.971 191.293Z" fill="#263238"/>
<path d="M430.617 191.293C430.617 191.397 428.793 191.482 426.542 191.482C424.291 191.482 422.467 191.397 422.467 191.293C422.467 191.189 424.291 191.104 426.542 191.104C428.793 191.104 430.617 191.189 430.617 191.293Z" fill="#263238"/>
<path d="M440.263 191.293C440.263 191.397 438.439 191.482 436.189 191.482C433.938 191.482 432.114 191.397 432.114 191.293C432.114 191.189 433.938 191.104 436.189 191.104C438.439 191.104 440.263 191.189 440.263 191.293Z" fill="#263238"/>
<g opacity="0.3">
<path d="M358.695 149.593H354.101V183.475H358.695V149.593Z" fill="white"/>
</g>
<g opacity="0.3">
<path d="M376.434 134.148H371.84V183.475H376.434V134.148Z" fill="white"/>
</g>
<g opacity="0.3">
<path d="M394.173 157.076H389.579V183.475H394.173V157.076Z" fill="white"/>
</g>
<g opacity="0.3">
<path d="M411.913 145.733H407.319V183.475H411.913V145.733Z" fill="white"/>
</g>
<g opacity="0.3">
<path d="M429.652 153.243H425.058V183.475H429.652V153.243Z" fill="white"/>
</g>
<path d="M223.344 73.4332C223.344 75.8752 221.364 77.8552 218.922 77.8552C216.48 77.8552 214.5 75.8752 214.5 73.4332C214.5 70.9912 216.48 69.0112 218.922 69.0112C221.364 69.0112 223.344 70.9902 223.344 73.4332Z" fill="#1685FF"/>
<path d="M299.373 69.9453C299.373 70.0893 284.462 70.2053 266.073 70.2053C247.678 70.2053 232.77 70.0883 232.77 69.9453C232.77 69.8013 247.678 69.6853 266.073 69.6853C284.462 69.6843 299.373 69.8013 299.373 69.9453Z" fill="#1685FF"/>
<path d="M259.509 75.2934C259.509 75.3294 259.142 75.3634 258.477 75.3944C257.813 75.4254 256.852 75.4534 255.664 75.4774C253.289 75.5244 250.007 75.5534 246.383 75.5534C242.758 75.5534 239.476 75.5244 237.101 75.4774C235.913 75.4544 234.952 75.4254 234.288 75.3944C233.624 75.3634 233.257 75.3294 233.257 75.2934C233.257 75.2574 233.624 75.2234 234.288 75.1924C234.952 75.1614 235.913 75.1334 237.101 75.1094C239.476 75.0624 242.758 75.0334 246.383 75.0334C250.007 75.0334 253.288 75.0624 255.664 75.1094C256.852 75.1334 257.813 75.1614 258.477 75.1924C259.141 75.2224 259.509 75.2564 259.509 75.2934Z" fill="#1685FF"/>
<path d="M185.42 56.3484H45.5078V216.026H185.42V56.3484Z" fill="#FAFAFA"/>
<path d="M185.42 216.026C185.42 216.026 185.411 215.766 185.407 215.267C185.404 214.761 185.4 214.021 185.394 213.048C185.388 211.088 185.379 208.196 185.367 204.43C185.353 196.891 185.332 185.86 185.306 171.85C185.278 143.853 185.238 103.963 185.19 56.3484L185.42 56.5784C144.218 56.5874 96.347 56.5974 45.522 56.6084H45.508L45.768 56.3484C45.753 115.218 45.739 170.116 45.728 216.026L45.508 215.806C87.6 215.853 122.551 215.892 146.989 215.919C159.218 215.944 168.814 215.963 175.362 215.976C178.633 215.987 181.141 215.996 182.84 216.001C184.534 216.01 185.42 216.026 185.42 216.026C185.42 216.026 184.567 216.042 182.888 216.051C181.198 216.057 178.704 216.065 175.452 216.076C168.915 216.089 159.336 216.108 147.128 216.133C122.657 216.16 87.6581 216.199 45.508 216.246H45.288V216.025C45.276 170.116 45.263 115.218 45.248 56.3474V56.0874H45.509H45.523C96.348 56.0984 144.219 56.1084 185.421 56.1174H185.651V56.3474C185.603 104.022 185.563 143.964 185.535 171.997C185.509 185.984 185.488 196.998 185.474 204.525C185.462 208.272 185.453 211.149 185.447 213.098C185.441 214.06 185.437 214.792 185.434 215.292C185.429 215.783 185.42 216.026 185.42 216.026Z" fill="#263238"/>
<path d="M173.393 137.882C173.347 137.977 171.844 137.106 168.894 136.172C165.968 135.265 161.453 134.388 155.991 135.214C153.282 135.648 150.348 136.467 147.481 137.949C144.595 139.395 141.845 141.54 139.114 143.967C136.37 146.388 133.647 149.137 130.505 151.679C127.363 154.18 123.758 156.546 119.517 157.626C117.412 158.168 115.208 158.309 113.101 158.013C110.99 157.725 108.996 157.035 107.156 156.178C103.471 154.441 100.319 152.159 97.198 150.256C94.099 148.315 90.983 146.776 87.832 146.057C84.7 145.295 81.659 145.141 78.923 145.374C73.417 145.855 69.251 147.804 66.625 149.378C63.986 150.991 62.742 152.204 62.671 152.119C62.649 152.095 62.956 151.793 63.564 151.24C64.162 150.677 65.117 149.919 66.427 149.062C69.028 147.371 73.229 145.281 78.859 144.701C81.656 144.419 84.782 144.535 88.017 145.286C91.271 145.99 94.523 147.567 97.657 149.503C100.82 151.407 103.972 153.658 107.549 155.326C111.089 157.031 115.253 157.79 119.282 156.699C123.311 155.676 126.828 153.394 129.918 150.948C133.01 148.464 135.746 145.732 138.53 143.306C141.304 140.875 144.132 138.702 147.122 137.242C150.089 135.748 153.113 134.946 155.892 134.546C161.496 133.787 166.078 134.791 169.008 135.819C170.488 136.331 171.589 136.854 172.313 137.241C173.038 137.634 173.408 137.854 173.393 137.882Z" fill="#1685FF"/>
<path d="M95.9131 159.329H84.0181V191.499H95.9131V159.329Z" fill="#1685FF"/>
<path d="M146.387 159.329H134.492V191.499H146.387V159.329Z" fill="#1685FF"/>
<path d="M163.212 140.437H151.317V191.499H163.212V140.437Z" fill="#1685FF"/>
<path d="M80.52 181.371H68.625V192.198H80.52V181.371Z" fill="#1685FF"/>
<path d="M112.738 173.855H100.843V191.498H112.738V173.855Z" fill="#1685FF"/>
<path d="M129.563 169.805H117.668V191.498H129.563V169.805Z" fill="#1685FF"/>
<path d="M96.3916 195.29C96.3916 195.554 93.5146 195.768 89.9656 195.768C86.4156 195.768 83.5386 195.554 83.5386 195.29C83.5386 195.026 86.4156 194.812 89.9656 194.812C93.5146 194.812 96.3916 195.026 96.3916 195.29Z" fill="#263238"/>
<path d="M81.5908 195.29C81.5908 195.554 78.7128 195.768 75.1648 195.768C71.6148 195.768 68.7378 195.554 68.7378 195.29C68.7378 195.026 71.6148 194.812 75.1648 194.812C78.7128 194.812 81.5908 195.026 81.5908 195.29Z" fill="#263238"/>
<path d="M165.555 195.29C165.555 195.554 162.302 195.768 158.291 195.768C154.278 195.768 151.026 195.554 151.026 195.29C151.026 195.026 154.277 194.812 158.291 194.812C162.302 194.812 165.555 195.026 165.555 195.29Z" fill="#263238"/>
<path d="M140.62 195.768C144.632 195.768 147.885 195.554 147.885 195.29C147.885 195.026 144.632 194.812 140.62 194.812C136.608 194.812 133.355 195.026 133.355 195.29C133.355 195.554 136.608 195.768 140.62 195.768Z" fill="#263238"/>
<path d="M129.562 195.29C129.562 195.554 126.684 195.769 123.136 195.769C119.587 195.769 116.71 195.555 116.71 195.29C116.71 195.026 119.587 194.812 123.136 194.812C126.684 194.812 129.562 195.026 129.562 195.29Z" fill="#263238"/>
<path d="M112.179 195.29C112.179 195.554 109.301 195.769 105.753 195.769C102.204 195.769 99.3257 195.555 99.3257 195.29C99.3257 195.026 102.203 194.812 105.753 194.812C109.301 194.812 112.179 195.026 112.179 195.29Z" fill="#263238"/>
<path d="M165.555 79.6274H68.3452V119.997H165.555V79.6274Z" fill="#E0E0E0"/>
<path d="M88.5411 92.3865C88.5411 94.8895 86.5121 96.9185 84.0091 96.9185C81.5061 96.9185 79.4771 94.8895 79.4771 92.3865C79.4771 89.8835 81.5061 87.8545 84.0091 87.8545C86.5121 87.8545 88.5411 89.8835 88.5411 92.3865Z" fill="#263238"/>
<path d="M124.649 89.2566H93.0732V91.0096H124.649V89.2566Z" fill="#263238"/>
<path d="M154.499 93.2405H93.0732V94.9935H154.499V93.2405Z" fill="white"/>
<path d="M88.5411 106.318C88.5411 108.821 86.5121 110.85 84.0091 110.85C81.5061 110.85 79.4771 108.821 79.4771 106.318C79.4771 103.815 81.5061 101.786 84.0091 101.786C86.5121 101.786 88.5411 103.815 88.5411 106.318Z" fill="#1685FF"/>
<path d="M109.198 103.188H93.0732V104.941H109.198V103.188Z" fill="#1685FF"/>
<path d="M154.499 107.172H93.0732V108.925H154.499V107.172Z" fill="white"/>
<path d="M367.859 286.645H308.273V289.543H367.859V286.645Z" fill="#263238"/>
<path d="M299.039 289.543L287.862 247.66H334.387L344.508 289.543H299.039Z" fill="#263238"/>
<path d="M341.72 286.373H300.157L290.482 249.595H332.26L341.72 286.373Z" fill="#F5F5F5"/>
<path d="M291.178 252.239C305.252 252.239 318.889 252.239 332.963 252.239L332.26 249.596H290.482L291.178 252.239Z" fill="#EBEBEB"/>
<path d="M295.69 250.917C295.69 251.169 295.894 251.374 296.146 251.374C296.398 251.374 296.602 251.17 296.602 250.917C296.602 250.665 296.398 250.461 296.146 250.461C295.894 250.461 295.69 250.665 295.69 250.917Z" fill="#FAFAFA"/>
<path d="M294.118 250.917C294.118 251.169 294.322 251.374 294.575 251.374C294.827 251.374 295.031 251.17 295.031 250.917C295.031 250.665 294.827 250.461 294.575 250.461C294.322 250.461 294.118 250.665 294.118 250.917Z" fill="#FAFAFA"/>
<path d="M292.546 250.917C292.546 251.169 292.75 251.374 293.002 251.374C293.254 251.374 293.458 251.17 293.458 250.917C293.458 250.665 293.254 250.461 293.002 250.461C292.75 250.461 292.546 250.665 292.546 250.917Z" fill="#FAFAFA"/>
<path d="M322.578 268.354L327.153 273.589C328.933 272.318 329.971 270.375 329.963 268.325C329.949 264.664 326.603 261.665 322.552 261.681C318.501 261.697 315.179 264.723 315.193 268.383L322.578 268.354Z" fill="#1685FF"/>
<path d="M321.998 269.192C322.017 269.15 322.485 269.624 323.303 270.501C324.12 271.377 325.288 272.657 326.686 274.221L326.844 274.398L326.648 274.545C324.794 275.937 321.706 276.526 318.934 275.302C317.614 274.746 316.521 273.815 315.76 272.75C315.006 271.671 314.627 270.444 314.583 269.314L314.574 269.081L314.803 269.08C316.993 269.069 318.806 269.078 320.061 269.098C321.317 269.119 322.017 269.149 321.998 269.192C321.979 269.235 321.243 269.288 319.984 269.347C318.724 269.406 316.941 269.471 314.81 269.527L315.03 269.293C315.094 270.34 315.461 271.465 316.17 272.46C316.887 273.441 317.908 274.305 319.142 274.824C321.733 275.968 324.628 275.45 326.394 274.185L326.356 274.509C325.031 272.957 323.938 271.65 323.175 270.719C322.411 269.789 321.979 269.235 321.998 269.192Z" fill="#263238"/>
<path d="M319.009 264.404C319.01 264.633 319.196 264.817 319.425 264.817C319.654 264.816 319.838 264.63 319.837 264.401C319.836 264.172 319.65 263.987 319.421 263.988C319.193 263.989 319.008 264.175 319.009 264.404Z" fill="#263238"/>
<path d="M310.778 261.406C310.777 261.262 312.991 261.137 315.721 261.126C315.946 261.126 316.167 261.126 316.38 261.126H316.488L316.562 261.201C318.27 262.919 319.515 264.308 319.422 264.402C319.329 264.496 317.93 263.261 316.198 261.567L316.381 261.642C316.168 261.644 315.947 261.645 315.722 261.647C312.993 261.658 310.778 261.55 310.778 261.406Z" fill="#263238"/>
<path d="M301.421 266.645C301.394 266.679 301.229 265.986 300.948 264.715C300.668 263.445 300.271 261.589 299.816 259.317L299.766 259.068L300.023 259.066C302.965 259.041 306.522 259.01 310.364 258.977C310.309 258.931 310.851 259.379 310.622 259.19V259.192L310.623 259.196L310.624 259.204L310.627 259.22L310.633 259.251L310.645 259.313L310.668 259.437L310.715 259.683L310.808 260.173C310.869 260.499 310.93 260.822 310.991 261.143C311.111 261.784 311.229 262.414 311.344 263.032C311.571 264.264 311.789 265.445 311.995 266.562L312.047 266.843L311.764 266.842C308.658 266.834 306.044 266.796 304.229 266.76C303.397 266.738 302.702 266.72 302.131 266.704C301.653 266.684 301.405 266.665 301.421 266.645C301.438 266.625 301.718 266.604 302.221 266.582C302.804 266.562 303.515 266.538 304.365 266.51C306.191 266.459 308.748 266.401 311.762 266.369L311.531 266.649C311.314 265.535 311.084 264.355 310.845 263.126C310.726 262.509 310.605 261.879 310.482 261.238C310.421 260.917 310.359 260.594 310.297 260.269L310.204 259.779L310.157 259.533L310.134 259.409L310.122 259.347L310.116 259.316L310.113 259.3L310.112 259.292L310.111 259.288V259.286C309.881 259.096 310.424 259.543 310.367 259.497C306.525 259.494 302.968 259.492 300.026 259.489L300.233 259.238C300.626 261.436 300.927 263.264 301.134 264.56C301.339 265.855 301.449 266.611 301.421 266.645Z" fill="#263238"/>
<path d="M318.394 272.731C318.395 272.96 318.581 273.144 318.81 273.144C319.039 273.143 319.223 272.957 319.223 272.728C319.222 272.499 319.036 272.315 318.807 272.315C318.578 272.316 318.393 272.502 318.394 272.731Z" fill="#263238"/>
<path d="M311.295 272.759C311.294 272.615 312.976 272.492 315.05 272.484C317.125 272.476 318.807 272.586 318.808 272.73C318.809 272.874 317.127 272.997 315.053 273.005C312.978 273.013 311.295 272.902 311.295 272.759Z" fill="#263238"/>
<path d="M301.457 276.023C301.433 276.054 301.276 275.564 301.003 274.641C300.73 273.719 300.339 272.358 299.879 270.661L299.814 270.421L300.068 270.416C302.883 270.365 306.63 270.326 310.731 270.309C310.505 270.134 311.04 270.547 310.985 270.505V270.506L310.986 270.509L310.987 270.515L310.99 270.526L310.996 270.548L311.007 270.593L311.03 270.682L311.076 270.86L311.167 271.215L311.347 271.919C311.466 272.385 311.583 272.846 311.698 273.299C311.926 274.203 312.147 275.079 312.358 275.918L312.435 276.224L312.122 276.223C308.959 276.218 306.263 276.181 304.382 276.143C303.523 276.12 302.799 276.1 302.2 276.084C301.701 276.065 301.44 276.045 301.457 276.023C301.474 276.001 301.767 275.978 302.293 275.954C302.904 275.933 303.643 275.907 304.52 275.877C306.412 275.824 309.048 275.766 312.12 275.736L311.884 276.041C311.665 275.204 311.437 274.33 311.201 273.428C311.084 272.975 310.965 272.516 310.844 272.05L310.662 271.346L310.571 270.991L310.525 270.813L310.502 270.724L310.49 270.679L310.484 270.657L310.481 270.646L310.48 270.64L310.479 270.637C310.424 270.594 310.958 271.006 310.731 270.831C306.63 270.847 302.883 270.838 300.067 270.809L300.256 270.564C300.651 272.2 300.955 273.544 301.162 274.495C301.371 275.443 301.481 275.992 301.457 276.023Z" fill="#263238"/>
<path d="M302.241 261.535C302.24 261.391 303.824 261.268 305.777 261.261C307.731 261.253 309.315 261.364 309.316 261.507C309.317 261.65 307.733 261.774 305.779 261.781C303.826 261.789 302.241 261.679 302.241 261.535Z" fill="#263238"/>
<path d="M302.328 262.693C302.327 262.549 303.92 262.426 305.885 262.419C307.851 262.411 309.444 262.522 309.445 262.665C309.446 262.809 307.853 262.932 305.888 262.939C303.922 262.948 302.329 262.837 302.328 262.693Z" fill="#263238"/>
<path d="M302.539 263.81C302.538 263.666 304.076 263.543 305.972 263.536C307.869 263.528 309.407 263.639 309.407 263.783C309.408 263.927 307.871 264.049 305.974 264.057C304.078 264.064 302.54 263.953 302.539 263.81Z" fill="#263238"/>
<path d="M302.45 272.665C302.45 272.521 303.959 272.399 305.821 272.391C307.684 272.384 309.194 272.494 309.194 272.638C309.195 272.782 307.686 272.904 305.823 272.912C303.961 272.919 302.451 272.809 302.45 272.665Z" fill="#263238"/>
<path d="M302.869 273.946C302.868 273.802 304.155 273.68 305.743 273.674C307.332 273.668 308.619 273.779 308.62 273.923C308.62 274.067 307.334 274.188 305.745 274.195C304.158 274.201 302.869 274.09 302.869 273.946Z" fill="#263238"/>
<path d="M237.708 289.406V294.899H241.305V406.11H248.686V294.899H287.858V406.11H295.239V294.899H465.169V406.083H472.55V294.899H475.745V289.406H237.708Z" fill="#263238"/>
<path d="M397.745 330.845C397.745 330.956 399.894 331.047 402.544 331.047C405.195 331.047 407.344 330.957 407.344 330.845C407.344 330.734 405.196 330.643 402.544 330.643C399.894 330.643 397.745 330.734 397.745 330.845Z" fill="#263238"/>
<path d="M327.839 331.979C327.983 331.979 328.099 331.922 328.099 331.851C328.099 331.78 327.983 331.723 327.839 331.723C327.696 331.723 327.579 331.78 327.579 331.851C327.579 331.922 327.696 331.979 327.839 331.979Z" fill="#455A64"/>
<path d="M374.869 232.992L347.301 204.985L346.705 201.953C346.59 201.398 346.475 200.779 346.368 200.075C346.243 199.254 346.261 198.419 346.411 197.607C346.592 196.624 346.885 195.328 347.261 194.672C347.725 193.861 346.982 192.883 346.214 193.218C345.447 193.553 344.113 195.756 343.825 198.781C343.538 201.806 340.956 197.792 339.99 196.347C339.024 194.901 335.831 190.57 335.166 190.518C334.19 190.442 333.94 191.5 334.938 192.921C335.947 194.36 338.636 198.817 337.872 199.296C337.872 199.296 337.862 199.294 337.843 199.291C336.289 199.027 334.755 199.796 334.035 201.18C333.34 202.517 332.564 204.412 333.199 205.285C334.396 206.932 337.595 209.941 337.595 209.941L338.518 210.735C338.52 210.737 362.368 245.294 367.567 246.417C370.8 247.115 420.781 251.261 420.781 251.261L424.551 237.492L374.869 232.992Z" fill="#B78876"/>
<path d="M332.985 204.704C333.835 205.52 334.685 206.337 335.535 207.153C335.823 207.43 336.122 207.714 336.495 207.858C336.868 208.002 337.338 207.971 337.61 207.678C337.856 207.412 337.878 206.997 337.76 206.655C337.641 206.313 337.405 206.026 337.173 205.748C336.347 204.755 335.521 203.762 334.694 202.769" fill="#B78876"/>
<path d="M334.695 202.768C334.75 202.722 335.229 203.196 335.958 203.999C336.366 204.461 336.785 204.935 337.218 205.427C337.444 205.698 337.721 205.977 337.921 206.379C338.116 206.773 338.196 207.335 337.851 207.796C337.474 208.252 336.879 208.265 336.456 208.116C336.018 207.956 335.716 207.664 335.457 207.413C334.997 206.945 334.554 206.494 334.122 206.053C333.373 205.268 332.935 204.757 332.984 204.705C333.034 204.653 333.562 205.07 334.377 205.787C334.834 206.2 335.302 206.625 335.788 207.064C336.046 207.301 336.317 207.531 336.622 207.632C336.915 207.733 337.283 207.685 337.443 207.472C337.614 207.257 337.604 206.886 337.46 206.597C337.32 206.293 337.072 206.016 336.849 205.733C336.445 205.217 336.055 204.719 335.674 204.234C335.019 203.371 334.64 202.814 334.695 202.768Z" fill="#AA6550"/>
<path d="M334.795 202.922C335.645 203.738 336.495 204.555 337.345 205.371C337.633 205.648 337.932 205.932 338.305 206.076C338.678 206.22 339.148 206.189 339.42 205.896C339.666 205.63 339.688 205.215 339.57 204.872C339.451 204.53 339.215 204.243 338.983 203.965C338.157 202.972 337.331 201.979 336.505 200.986" fill="#B78876"/>
<path d="M336.505 200.986C336.56 200.94 337.039 201.414 337.768 202.217C338.176 202.679 338.595 203.153 339.028 203.645C339.254 203.916 339.531 204.195 339.731 204.597C339.926 204.991 340.006 205.553 339.661 206.014C339.284 206.469 338.689 206.483 338.266 206.334C337.828 206.174 337.526 205.882 337.267 205.631C336.807 205.163 336.364 204.712 335.932 204.271C335.183 203.486 334.745 202.975 334.795 202.923C334.845 202.871 335.373 203.289 336.188 204.005C336.645 204.418 337.113 204.843 337.599 205.282C337.857 205.518 338.128 205.749 338.433 205.85C338.726 205.951 339.094 205.903 339.254 205.69C339.425 205.475 339.415 205.104 339.271 204.815C339.13 204.511 338.883 204.234 338.66 203.951C338.256 203.435 337.866 202.937 337.486 202.452C336.828 201.588 336.45 201.032 336.505 200.986Z" fill="#AA6550"/>
<path d="M336.781 201.46C337.631 202.277 338.481 203.093 339.331 203.909C339.619 204.186 339.918 204.47 340.291 204.614C340.664 204.758 341.134 204.727 341.406 204.434C341.652 204.168 341.674 203.753 341.556 203.41C341.437 203.068 341.201 202.781 340.969 202.503C340.143 201.51 339.317 200.517 338.491 199.524" fill="#B78876"/>
<path d="M338.491 199.524C338.546 199.478 339.025 199.952 339.754 200.755C340.162 201.217 340.581 201.691 341.014 202.183C341.24 202.454 341.517 202.733 341.717 203.135C341.912 203.529 341.992 204.091 341.647 204.552C341.27 205.008 340.675 205.021 340.252 204.872C339.814 204.712 339.512 204.42 339.253 204.169C338.793 203.701 338.35 203.249 337.917 202.809C337.168 202.024 336.73 201.513 336.78 201.461C336.83 201.409 337.358 201.827 338.172 202.543C338.629 202.956 339.097 203.381 339.583 203.82C339.841 204.056 340.112 204.287 340.417 204.388C340.71 204.489 341.078 204.441 341.238 204.228C341.409 204.013 341.399 203.642 341.255 203.353C341.115 203.049 340.867 202.772 340.644 202.489C340.24 201.973 339.85 201.475 339.469 200.99C338.814 200.127 338.436 199.57 338.491 199.524Z" fill="#AA6550"/>
<path d="M340.812 205.698C340.805 205.616 341.444 205.488 342.366 205.771L342.072 206.022C341.952 205.531 341.896 204.912 342.007 204.27C342.152 203.349 342.576 202.594 342.962 202.138C343.355 201.679 343.687 201.498 343.728 201.547C343.838 201.646 342.776 202.67 342.521 204.352C342.421 204.929 342.444 205.479 342.506 205.933L342.56 206.333L342.212 206.185C341.414 205.846 340.808 205.8 340.812 205.698Z" fill="#AA6550"/>
<path d="M410.98 191.004L411.098 229.369L396.139 230.083L395.534 220.888C395.534 220.888 388.318 221.984 386.809 216.555C385.845 213.087 386.086 186.283 386.086 186.283L410.98 191.004Z" fill="#B78876"/>
<path d="M382.368 190.066C383.476 192.358 388.756 196.553 388.756 196.553L391.141 202.944C393.213 201.322 395.994 201.415 396.521 205.055C396.902 207.686 393.631 208.217 393.631 208.217C395.535 211.457 396.826 214.078 399.598 217.16C402.598 220.495 404.279 220.832 407.533 220.886H411.121C411.121 220.886 418.463 214.751 417.012 198.591C415.561 182.432 401.033 187.146 397.566 183.109C391.919 176.534 378.668 182.413 382.368 190.066Z" fill="#263238"/>
<path d="M416.196 212.103C416.196 212.103 415.557 212.232 414.42 212.022C413.293 211.82 411.688 211.179 410.134 209.816C408.562 208.467 407.181 206.407 405.802 204.086C404.404 201.802 402.877 199.138 400.305 197.362C397.703 195.622 394.644 195.267 392.017 194.729C389.365 194.231 386.961 193.473 385.325 192.182C383.685 190.907 382.881 189.328 382.644 188.21C382.399 187.074 382.571 186.436 382.571 186.436C382.609 186.434 382.456 187.079 382.723 188.191C382.981 189.286 383.792 190.827 385.415 192.065C387.033 193.318 389.408 194.054 392.054 194.54C394.674 195.068 397.76 195.412 400.422 197.189C403.048 199.004 404.577 201.699 405.967 203.986C407.337 206.311 408.693 208.358 410.232 209.704C411.755 211.064 413.328 211.716 414.437 211.941C414.994 212.065 415.438 212.079 415.738 212.096C416.037 212.094 416.196 212.103 416.196 212.103Z" fill="#455A64"/>
<path d="M417.044 198.96C417.044 198.96 416.776 198.882 416.271 198.726C415.765 198.577 415.017 198.331 414.02 198.225C413.043 198.124 411.729 198.183 410.555 199C409.985 199.402 409.48 200.031 409.35 200.819C409.215 201.586 409.398 202.516 410.048 203.108C410.367 203.401 410.807 203.566 411.257 203.588C411.712 203.608 412.173 203.457 412.589 203.224C413.418 202.74 414.089 201.91 414.398 200.915C415.071 198.956 414.598 196.4 412.799 194.844C411.928 194.065 410.79 193.529 409.572 193.405C408.347 193.275 407.092 193.546 405.854 193.893C404.614 194.241 403.345 194.65 402.006 194.818C400.672 194.998 399.296 195.005 397.925 194.828C396.558 194.639 395.215 194.318 393.989 193.738C392.782 193.166 391.658 192.211 391.296 190.898C390.939 189.619 391.276 188.173 392.211 187.274C393.154 186.357 394.624 186.243 395.725 186.755C396.28 187.008 396.764 187.439 397.028 187.981C397.308 188.516 397.376 189.13 397.304 189.702C397.149 190.852 396.464 191.863 395.553 192.444C394.641 193.032 393.585 193.248 392.598 193.266C391.603 193.288 390.658 193.104 389.795 192.834C388.059 192.291 386.682 191.311 385.677 190.295C384.657 189.279 384.002 188.206 383.574 187.294C383.134 186.382 382.961 185.61 382.829 185.097C382.74 184.573 382.704 184.298 382.704 184.298C382.704 184.298 382.768 184.569 382.87 185.088C383.014 185.595 383.198 186.359 383.647 187.259C384.083 188.158 384.742 189.215 385.759 190.212C386.761 191.21 388.128 192.168 389.839 192.693C390.69 192.955 391.621 193.131 392.594 193.105C393.56 193.083 394.584 192.867 395.459 192.298C396.327 191.743 396.979 190.769 397.122 189.678C397.295 188.591 396.731 187.386 395.645 186.929C394.608 186.448 393.219 186.562 392.349 187.417C391.475 188.256 391.153 189.634 391.493 190.842C391.833 192.074 392.901 192.993 394.08 193.55C395.274 194.115 396.605 194.435 397.952 194.621C399.304 194.795 400.663 194.788 401.979 194.612C403.299 194.448 404.551 194.046 405.801 193.696C407.045 193.349 408.327 193.071 409.594 193.206C410.857 193.336 412.031 193.893 412.929 194.699C414.786 196.313 415.266 198.952 414.564 200.968C414.241 201.995 413.541 202.861 412.671 203.362C412.234 203.605 411.744 203.763 411.254 203.741C410.768 203.716 410.295 203.535 409.952 203.217C409.256 202.572 409.078 201.598 409.222 200.795C409.364 199.967 409.9 199.313 410.49 198.904C411.706 198.072 413.046 198.03 414.031 198.143C415.038 198.263 415.784 198.522 416.287 198.684C416.785 198.855 417.044 198.96 417.044 198.96Z" fill="#455A64"/>
<path d="M398.03 396.743L393.141 390.47L404.834 381.236L412.085 390.338L411.397 390.957C408.312 393.684 395.519 404.606 392.846 405.656C389.862 406.826 398.03 396.743 398.03 396.743Z" fill="#1685FF"/>
<g opacity="0.4">
<path d="M394.176 401.843C394.176 401.843 391.487 405.597 392.375 405.828C393.262 406.058 406.606 395.508 412.084 390.339L411.859 390.093L396.4 402.532C396.4 402.532 394.879 401.334 394.176 401.843Z" fill="white"/>
</g>
<path d="M412.036 389.94C412.04 389.945 411.977 390.007 411.852 390.121C411.687 390.268 411.506 390.43 411.302 390.612C410.745 391.093 410.059 391.685 409.25 392.383C407.507 393.866 405.072 395.883 402.334 398.052C399.595 400.22 397.074 402.129 395.231 403.486C394.366 404.113 393.633 404.645 393.037 405.077C392.813 405.234 392.614 405.373 392.433 405.499C392.294 405.594 392.219 405.641 392.215 405.636C392.211 405.631 392.279 405.574 392.411 405.469C392.586 405.334 392.778 405.186 392.995 405.019C393.582 404.574 394.303 404.027 395.154 403.382C396.977 402 399.485 400.076 402.222 397.909C404.958 395.742 407.404 393.741 409.168 392.284C409.991 391.603 410.689 391.027 411.256 390.557C411.468 390.384 411.656 390.231 411.828 390.092C411.961 389.988 412.032 389.935 412.036 389.94Z" fill="#263238"/>
<path d="M396.546 402.711C396.507 402.75 396.073 402.27 395.348 402.011C394.627 401.739 393.985 401.826 393.981 401.77C393.962 401.728 394.637 401.552 395.41 401.841C396.186 402.121 396.587 402.691 396.546 402.711Z" fill="#263238"/>
<path d="M398.611 398.234C398.595 398.281 398.271 398.211 397.888 398.077C397.505 397.943 397.208 397.797 397.225 397.75C397.241 397.703 397.565 397.773 397.948 397.907C398.33 398.041 398.627 398.187 398.611 398.234Z" fill="#263238"/>
<path d="M399.161 396.986C399.158 397.036 398.876 397.059 398.532 397.037C398.188 397.015 397.911 396.957 397.914 396.908C397.917 396.858 398.199 396.835 398.543 396.857C398.888 396.878 399.164 396.936 399.161 396.986Z" fill="#263238"/>
<path d="M398.887 395.41C398.918 395.449 398.673 395.699 398.339 395.97C398.005 396.24 397.708 396.428 397.677 396.389C397.646 396.35 397.891 396.1 398.225 395.829C398.56 395.559 398.856 395.371 398.887 395.41Z" fill="#263238"/>
<path d="M398.478 394.47C398.519 394.494 398.327 394.864 397.954 395.206C397.582 395.55 397.198 395.71 397.177 395.668C397.152 395.623 397.479 395.401 397.831 395.073C398.186 394.748 398.434 394.44 398.478 394.47Z" fill="#263238"/>
<path d="M397.408 397.528C397.421 397.543 397.161 397.806 396.653 398.117C396.4 398.272 396.083 398.434 395.714 398.573C395.526 398.637 395.342 398.719 395.107 398.746C394.993 398.755 394.856 398.751 394.737 398.66C394.617 398.572 394.577 398.398 394.613 398.27C395.037 397.33 396.075 397.166 396.635 397.326C396.932 397.399 397.144 397.531 397.276 397.633C397.408 397.738 397.463 397.813 397.456 397.821C397.437 397.852 397.171 397.566 396.607 397.451C396.33 397.396 395.982 397.403 395.636 397.541C395.309 397.672 394.915 397.949 394.789 398.31C394.74 398.492 394.897 398.596 395.092 398.57C395.279 398.552 395.477 398.474 395.657 398.416C396.019 398.289 396.333 398.144 396.59 398.006C397.103 397.731 397.39 397.505 397.408 397.528Z" fill="#263238"/>
<path d="M397.243 397.719C397.239 397.736 396.976 397.631 396.744 397.266C396.631 397.086 396.537 396.841 396.515 396.555C396.516 396.284 396.505 395.919 396.838 395.678C397.03 395.563 397.271 395.694 397.344 395.842C397.434 395.984 397.465 396.144 397.482 396.278C397.519 396.554 397.512 396.805 397.487 397.013C397.433 397.429 397.317 397.664 397.297 397.657C397.27 397.649 397.34 397.404 397.359 397.002C397.368 396.802 397.361 396.562 397.317 396.303C397.295 396.063 397.14 395.722 396.925 395.837C396.723 395.967 396.679 396.306 396.682 396.547C396.692 396.803 396.765 397.03 396.856 397.203C397.039 397.555 397.263 397.694 397.243 397.719Z" fill="#263238"/>
<path d="M409.269 386.931C409.287 386.959 408.909 387.164 408.43 387.644C407.953 388.116 407.395 388.906 407.16 389.91C406.927 390.915 407.078 391.87 407.298 392.504C407.516 393.146 407.765 393.496 407.736 393.514C407.727 393.52 407.656 393.44 407.549 393.278C407.441 393.117 407.305 392.87 407.178 392.547C406.921 391.907 406.741 390.916 406.984 389.868C407.229 388.821 407.828 388.011 408.341 387.551C408.598 387.317 408.829 387.156 408.997 387.059C409.165 386.962 409.264 386.921 409.269 386.931Z" fill="#263238"/>
<path d="M404.212 383.025C404.251 382.994 405.146 384.032 406.211 385.345C407.277 386.658 408.109 387.748 408.07 387.779C408.031 387.81 407.136 386.772 406.07 385.458C405.006 384.146 404.174 383.056 404.212 383.025Z" fill="#263238"/>
<path d="M405.4 393.618C405.434 393.651 404.771 394.378 403.828 395.136C402.886 395.897 402.035 396.391 402.01 396.35C401.981 396.306 402.781 395.749 403.714 394.995C404.649 394.245 405.363 393.581 405.4 393.618Z" fill="#263238"/>
<path d="M407.688 391.803C407.739 391.809 407.753 392.014 407.814 392.251C407.871 392.489 407.955 392.677 407.912 392.706C407.874 392.736 407.706 392.569 407.638 392.295C407.569 392.021 407.64 391.795 407.688 391.803Z" fill="#263238"/>
<path d="M407.701 390.047C407.751 390.052 407.771 390.234 407.747 390.452C407.723 390.67 407.663 390.843 407.614 390.837C407.565 390.832 407.544 390.65 407.568 390.432C407.592 390.214 407.652 390.041 407.701 390.047Z" fill="#263238"/>
<path d="M408.548 388.579C408.571 388.625 408.415 388.747 408.291 388.943C408.163 389.136 408.116 389.328 408.064 389.326C408.016 389.33 407.983 389.085 408.14 388.845C408.295 388.603 408.532 388.534 408.548 388.579Z" fill="#263238"/>
<path d="M409.245 387.652C409.288 387.677 409.268 387.79 409.201 387.905C409.134 388.019 409.044 388.091 409.001 388.066C408.958 388.041 408.978 387.928 409.045 387.813C409.112 387.699 409.202 387.627 409.245 387.652Z" fill="#263238"/>
<g opacity="0.3">
<path d="M409.006 386.63L397.177 395.667L396.083 394.246L408.514 385.817L409.006 386.63Z" fill="black"/>
</g>
<path d="M344.261 403.042L344.283 395.088L359.182 395.033L359.273 406.67L358.349 406.733C354.239 406.976 337.432 407.68 334.681 406.857C331.613 405.939 344.261 403.042 344.261 403.042Z" fill="#1685FF"/>
<g opacity="0.4">
<path d="M338.081 404.678C338.081 404.678 333.649 405.974 334.205 406.703C334.761 407.432 351.772 407.359 359.272 406.671L359.247 406.338L339.406 406.592C339.406 406.592 338.949 404.711 338.081 404.678Z" fill="white"/>
</g>
<path d="M359.481 406.328C359.481 406.334 359.393 406.344 359.225 406.357C359.004 406.371 358.762 406.387 358.489 406.404C357.753 406.439 356.849 406.482 355.782 406.532C353.495 406.624 350.334 406.709 346.842 406.727C343.349 406.744 340.187 406.69 337.899 406.621C336.831 406.581 335.926 406.547 335.191 406.52C334.918 406.505 334.676 406.492 334.455 406.48C334.287 406.469 334.199 406.46 334.199 406.454C334.199 406.448 334.288 406.445 334.456 406.444C334.677 406.446 334.919 406.448 335.193 406.45C335.929 406.462 336.834 406.476 337.902 406.493C340.19 406.529 343.35 406.562 346.841 406.546C350.331 406.528 353.491 406.463 355.778 406.404C356.846 406.376 357.751 406.352 358.487 406.333C358.76 406.328 359.003 406.323 359.224 406.319C359.392 406.319 359.481 406.321 359.481 406.328Z" fill="#263238"/>
<path d="M339.411 406.823C339.356 406.83 339.311 406.184 338.9 405.533C338.5 404.875 337.942 404.546 337.972 404.5C337.983 404.455 338.622 404.733 339.053 405.438C339.492 406.137 339.456 406.834 339.411 406.823Z" fill="#263238"/>
<path d="M343.798 404.574C343.756 404.601 343.545 404.346 343.326 404.004C343.107 403.663 342.964 403.364 343.006 403.337C343.048 403.31 343.259 403.565 343.478 403.906C343.696 404.248 343.84 404.547 343.798 404.574Z" fill="#263238"/>
<path d="M345.001 403.931C344.968 403.968 344.732 403.812 344.474 403.583C344.216 403.354 344.034 403.137 344.067 403.1C344.1 403.063 344.336 403.218 344.594 403.448C344.852 403.677 345.034 403.894 345.001 403.931Z" fill="#263238"/>
<path d="M345.759 402.521C345.76 402.571 345.412 402.617 344.982 402.624C344.552 402.631 344.203 402.595 344.202 402.546C344.201 402.496 344.549 402.451 344.979 402.444C345.409 402.437 345.758 402.472 345.759 402.521Z" fill="#263238"/>
<path d="M346.017 401.529C346.034 401.573 345.656 401.746 345.151 401.785C344.646 401.827 344.245 401.716 344.255 401.669C344.263 401.618 344.657 401.645 345.137 401.605C345.616 401.568 346.001 401.479 346.017 401.529Z" fill="#263238"/>
<path d="M343.287 403.276C343.288 403.296 342.921 403.343 342.329 403.274C342.034 403.24 341.685 403.171 341.309 403.054C341.122 402.988 340.927 402.939 340.724 402.816C340.629 402.753 340.523 402.665 340.486 402.52C340.446 402.377 340.522 402.215 340.629 402.137C341.542 401.659 342.461 402.17 342.802 402.641C342.99 402.882 343.077 403.117 343.117 403.278C343.156 403.442 343.153 403.535 343.143 403.537C343.109 403.549 343.077 403.16 342.703 402.722C342.519 402.507 342.241 402.299 341.883 402.194C341.545 402.095 341.063 402.07 340.742 402.277C340.59 402.39 340.651 402.569 340.82 402.669C340.978 402.77 341.182 402.831 341.359 402.896C341.722 403.019 342.06 403.099 342.346 403.149C342.922 403.248 343.287 403.247 343.287 403.276Z" fill="#263238"/>
<path d="M343.04 403.325C343.026 403.335 342.884 403.092 342.927 402.661C342.949 402.45 343.026 402.198 343.185 401.96C343.353 401.747 343.569 401.453 343.98 401.469C344.202 401.496 344.311 401.749 344.277 401.91C344.26 402.078 344.185 402.222 344.116 402.338C343.975 402.578 343.815 402.772 343.666 402.919C343.367 403.214 343.13 403.327 343.12 403.309C343.103 403.286 343.31 403.137 343.573 402.832C343.704 402.68 343.845 402.487 343.971 402.256C344.102 402.053 344.19 401.689 343.95 401.647C343.71 401.625 343.467 401.864 343.321 402.056C343.171 402.264 343.089 402.487 343.053 402.68C342.982 403.069 343.072 403.318 343.04 403.325Z" fill="#263238"/>
<path d="M359.16 402.252C359.157 402.286 358.733 402.213 358.06 402.295C357.393 402.372 356.467 402.65 355.663 403.295C354.86 403.942 354.39 404.787 354.171 405.422C353.946 406.062 353.926 406.491 353.892 406.487C353.881 406.486 353.875 406.379 353.89 406.187C353.905 405.994 353.949 405.716 354.049 405.383C354.241 404.721 354.711 403.83 355.549 403.155C356.387 402.482 357.359 402.215 358.047 402.169C358.393 402.143 358.675 402.159 358.866 402.186C359.058 402.213 359.161 402.242 359.16 402.252Z" fill="#263238"/>
<path d="M357.589 396.059C357.639 396.058 357.702 397.428 357.731 399.118C357.76 400.809 357.743 402.18 357.693 402.181C357.643 402.182 357.58 400.812 357.551 399.121C357.522 397.431 357.539 396.06 357.589 396.059Z" fill="#263238"/>
<path d="M351.989 405.129C351.996 405.176 351.025 405.339 349.815 405.354C348.604 405.372 347.63 405.236 347.635 405.189C347.64 405.137 348.613 405.192 349.812 405.174C351.012 405.159 351.983 405.077 351.989 405.129Z" fill="#263238"/>
<path d="M354.909 405.112C354.945 405.148 354.83 405.319 354.732 405.542C354.63 405.765 354.58 405.964 354.529 405.961C354.481 405.961 354.451 405.726 354.567 405.469C354.682 405.21 354.877 405.076 354.909 405.112Z" fill="#263238"/>
<path d="M356.004 403.738C356.04 403.773 355.944 403.928 355.791 404.085C355.638 404.242 355.484 404.341 355.449 404.306C355.413 404.271 355.509 404.116 355.662 403.959C355.815 403.802 355.968 403.703 356.004 403.738Z" fill="#263238"/>
<path d="M357.575 403.105C357.565 403.156 357.367 403.155 357.148 403.233C356.928 403.306 356.772 403.428 356.733 403.394C356.693 403.367 356.817 403.154 357.089 403.062C357.361 402.968 357.59 403.059 357.575 403.105Z" fill="#263238"/>
<path d="M358.695 402.805C358.713 402.851 358.628 402.928 358.505 402.977C358.382 403.026 358.267 403.027 358.248 402.981C358.23 402.935 358.316 402.858 358.439 402.809C358.563 402.76 358.677 402.759 358.695 402.805Z" fill="#263238"/>
<g opacity="0.3">
<path d="M359.272 401.654L344.253 401.669L344.269 399.875L359.218 399.777L359.272 401.654Z" fill="black"/>
</g>
<path d="M381.037 265.759L375.071 283.724C373.46 288.576 369.221 289.406 364.108 289.406H330.922V281.961L361.241 277.632L368.466 259.174L381.037 265.759Z" fill="#B78876"/>
<path d="M327.274 280.414L324.641 279.168C324.641 279.168 321.804 273.682 321.15 273.902C320.496 274.122 320.308 275.736 321.448 278.256L317.949 277.257C317.949 277.257 310.365 280.761 310.7 281.233C311.035 281.705 311.657 282.823 313.308 281.978C314.96 281.133 317.124 280.142 317.124 280.142L321.211 281.309L315.942 281.978L310.986 286.487C310.986 286.487 312.613 287.704 314.017 286.412L326.889 289.177L330.921 289.405V281.96L327.274 280.414Z" fill="#B78876"/>
<path d="M314.019 286.412C314.074 286.448 314.313 286.067 314.777 285.562C315.011 285.314 315.325 285.055 315.714 284.838C316.089 284.629 316.575 284.538 317.104 284.475C319.249 284.221 320.98 283.926 320.967 283.816C320.953 283.706 319.204 283.821 317.054 284.075C316.515 284.14 315.967 284.247 315.528 284.517C315.109 284.775 314.785 285.085 314.561 285.377C314.122 285.967 313.98 286.389 314.019 286.412Z" fill="#AA6550"/>
<path d="M316.032 286.93C316.081 286.93 316.121 286.663 316.482 286.586C316.85 286.519 317.436 286.449 318.046 286.387C319.282 286.262 320.299 286.272 320.309 286.158C320.322 286.051 319.288 285.857 318.007 285.986C317.363 286.055 316.815 286.159 316.387 286.318C316.166 286.409 316.024 286.589 315.996 286.723C315.962 286.861 316.008 286.934 316.032 286.93Z" fill="#AA6550"/>
<path d="M383.849 261.842L381.297 270.488L365.099 263.155C365.681 261.346 368.36 253.282 373.488 240.487C376.345 233.358 382.702 228.213 390.278 226.953C395.579 226.071 401.346 225.383 405.788 225.432C414.871 225.532 428.242 231.21 430.039 240.113C431.41 246.91 430.088 258.909 430.088 273.488L428.903 301.345L382.357 302.924L383.849 261.842Z" fill="#1685FF"/>
<g opacity="0.3">
<path d="M430.039 267.042C424.375 268.2 418.559 267.033 412.788 266.69C409.289 266.482 405.407 266.104 402.639 268.255C400.444 269.96 399.561 272.828 398.928 275.534C396.514 285.849 396.075 292.764 395.532 303.345L423.55 305.044L430.039 267.042Z" fill="black"/>
</g>
<path d="M382.655 231.607C382.649 231.648 383.121 231.676 383.893 231.979C384.653 232.291 385.698 232.954 386.574 234.149C387.463 235.33 388.061 237.041 388.176 238.999C388.312 240.956 388.022 243.125 387.687 245.38C386.968 249.893 385.87 253.896 385.086 256.79C384.703 258.187 384.385 259.342 384.145 260.218C383.928 261.029 383.82 261.481 383.846 261.489C383.873 261.497 384.031 261.06 384.295 260.263C384.558 259.465 384.927 258.307 385.359 256.869C386.214 253.992 387.36 249.987 388.084 245.443C388.421 243.176 388.705 240.985 388.546 238.973C388.41 236.967 387.755 235.182 386.802 233.979C385.863 232.76 384.749 232.108 383.949 231.833C383.543 231.701 383.218 231.637 382.996 231.616C382.773 231.596 382.656 231.593 382.655 231.607Z" fill="#263238"/>
<path d="M365.605 260.948C365.58 260.996 366.448 261.503 367.887 262.257C369.326 263.011 371.339 264.003 373.598 265.022C375.858 266.041 377.935 266.893 379.452 267.472C380.969 268.052 381.924 268.366 381.943 268.316C381.964 268.262 381.046 267.854 379.559 267.208C378.072 266.562 376.018 265.671 373.763 264.655C371.509 263.638 369.482 262.689 368.013 262.002C366.545 261.315 365.631 260.897 365.605 260.948Z" fill="#263238"/>
<path d="M358.184 305.043C350.254 309.369 347.242 319.245 351.41 327.259L391.922 396.816L410.613 385.526L379.154 322.726L401.955 307.843" fill="#263238"/>
<path d="M407.511 301.594L351.898 303.563C342.87 303.883 335.758 311.367 335.898 320.399L338.207 399.829L361.596 399.777L360.816 324.677L407.511 323.449V301.594Z" fill="#263238"/>
<path d="M360.816 327.392C360.834 327.392 360.856 327.644 360.883 328.126C360.906 328.659 360.936 329.359 360.974 330.234C361.043 332.065 361.115 334.715 361.183 337.989C361.322 344.538 361.416 353.588 361.467 363.581C361.518 373.552 361.564 382.575 361.598 389.175C361.616 392.407 361.631 395.042 361.642 396.931C361.639 397.806 361.637 398.507 361.635 399.04C361.628 399.522 361.615 399.776 361.597 399.776C361.579 399.776 361.557 399.524 361.53 399.042C361.507 398.509 361.477 397.809 361.439 396.934C361.369 395.103 361.298 392.454 361.23 389.179C361.091 382.63 360.996 373.579 360.946 363.583C360.895 353.616 360.849 344.593 360.815 337.993C360.797 334.761 360.782 332.126 360.771 330.236C360.774 329.361 360.776 328.66 360.778 328.126C360.785 327.646 360.798 327.392 360.816 327.392Z" fill="#455A64"/>
<path d="M431.603 251.187H414.778C408.005 251.187 402.514 256.678 402.514 263.451V322.152H368.898C364.208 322.152 360.406 325.954 360.406 330.644H437.159C437.159 330.628 437.158 330.612 437.158 330.596C440.889 330.437 443.866 327.371 443.866 323.601V263.451C443.866 256.677 438.376 251.187 431.603 251.187Z" fill="#455A64"/>
<path d="M407.407 253.123C407.551 253.123 407.667 270.374 407.667 291.649C407.667 312.932 407.55 330.179 407.407 330.179C407.263 330.179 407.146 312.932 407.146 291.649C407.145 270.374 407.263 253.123 407.407 253.123Z" fill="#263238"/>
<path d="M405.279 392.256V330.676H399.809V392.256C396.469 398.839 388.618 403.294 379.054 406.941H427.819C417.916 402.918 408.978 399.829 405.279 392.256Z" fill="#455A64"/>
<path d="M97.2191 384.285C97.2111 384.281 97.2631 384.157 97.3711 383.92C97.4921 383.662 97.6541 383.316 97.8611 382.875C98.2771 381.952 98.8191 380.553 99.3011 378.693C100.254 374.974 100.586 369.292 99.1781 362.541C98.5241 359.161 97.4701 355.536 96.1821 351.692C94.9141 347.842 93.4411 343.756 92.2391 339.341C91.0491 334.936 90.1111 330.153 90.2921 325.14C90.4751 320.117 91.9611 315.103 93.5971 310.112C95.2291 305.113 96.9171 300.227 97.4231 295.312C97.9951 290.406 96.9451 285.589 94.7101 281.643C92.5451 277.655 89.8221 274.244 87.7831 270.71C85.7131 267.188 84.4181 263.567 83.6201 260.2C82.0731 253.41 82.6151 247.688 83.3561 243.917C84.1591 240.126 85.0551 238.167 85.0551 238.167C85.0631 238.17 85.0291 238.3 84.9541 238.549C84.8691 238.821 84.7551 239.186 84.6101 239.651C84.3101 240.62 83.9221 242.066 83.5541 243.955C82.8771 247.718 82.3981 253.4 83.9761 260.116C84.7901 263.447 86.0901 267.02 88.1531 270.493C90.1861 273.984 92.9221 277.381 95.1291 281.416C97.4111 285.406 98.5081 290.379 97.9271 295.362C97.4181 300.36 95.7171 305.279 94.0891 310.272C92.4541 315.259 90.9841 320.22 90.7981 325.159C90.6131 330.095 91.5281 334.832 92.6991 339.216C93.8821 343.61 95.3371 347.696 96.5901 351.558C97.8611 355.413 98.9031 359.068 99.5371 362.471C100.908 369.271 100.517 375.011 99.4961 378.742C98.9801 380.61 98.4041 382.006 97.9551 382.918C97.7281 383.351 97.5501 383.69 97.4171 383.944C97.2941 384.174 97.2271 384.289 97.2191 384.285Z" fill="#263238"/>
<path d="M90.5501 274.196C90.5501 274.196 86.4111 260.961 93.8361 253.211C94.0971 252.939 94.5551 253.068 94.6231 253.438C95.0191 255.624 95.5151 262.281 90.5501 274.196Z" fill="#1685FF"/>
<path d="M93.0299 257.621C93.0999 257.635 92.9819 258.566 92.7509 260.063C92.4789 261.745 92.1599 263.719 91.8069 265.901C91.4609 268.083 91.1469 270.057 90.8799 271.738C90.6529 273.233 90.5169 274.16 90.4419 274.154C90.3749 274.149 90.3819 273.207 90.5159 271.694C90.6529 270.182 90.9189 268.101 91.2949 265.818C91.6679 263.535 92.0669 261.478 92.3899 259.997C92.7139 258.514 92.9599 257.607 93.0299 257.621Z" fill="#263238"/>
<path d="M95.4121 305.411C95.4121 305.411 97.9431 291.777 108.13 288.399C108.488 288.281 108.833 288.609 108.719 288.968C108.048 291.086 105.372 297.202 95.4121 305.411Z" fill="#1685FF"/>
<path d="M105.355 291.921C105.411 291.966 104.871 292.734 103.967 293.949C102.94 295.308 101.734 296.904 100.403 298.667C99.0759 300.433 97.8759 302.032 96.8539 303.393C95.9549 304.608 95.4009 305.364 95.3369 305.323C95.2799 305.287 95.7269 304.458 96.5529 303.183C97.3809 301.91 98.5899 300.196 99.9889 298.353C101.387 296.509 102.701 294.878 103.68 293.72C104.658 292.562 105.3 291.875 105.355 291.921Z" fill="#263238"/>
<path d="M92.6589 339.616C92.6589 339.616 91.1209 325.834 99.8879 319.644C100.196 319.427 100.622 319.64 100.617 320.017C100.589 322.238 99.8059 328.867 92.6589 339.616Z" fill="#1685FF"/>
<path d="M98.2559 323.819C98.3219 323.846 98.0279 324.738 97.5169 326.163C96.9289 327.762 96.2389 329.639 95.4759 331.713C94.7199 333.789 94.0359 335.667 93.4529 337.266C92.9449 338.69 92.6349 339.574 92.5619 339.554C92.4969 339.536 92.6839 338.613 93.1039 337.153C93.5269 335.695 94.1849 333.703 94.9889 331.533C95.7909 329.363 96.5749 327.42 97.1749 326.028C97.7749 324.635 98.1899 323.792 98.2559 323.819Z" fill="#263238"/>
<path d="M100.333 374.02C100.333 374.02 99.2899 360.192 108.272 354.319C108.587 354.113 109.005 354.342 108.987 354.718C108.88 356.937 107.859 363.535 100.333 374.02Z" fill="#1685FF"/>
<path d="M106.491 358.434C106.556 358.463 106.231 359.344 105.668 360.75C105.023 362.327 104.266 364.178 103.43 366.224C102.6 368.271 101.849 370.124 101.209 371.701C100.651 373.106 100.309 373.978 100.236 373.955C100.172 373.935 100.391 373.019 100.864 371.575C101.339 370.133 102.068 368.166 102.95 366.026C103.829 363.886 104.682 361.973 105.332 360.603C105.982 359.232 106.426 358.404 106.491 358.434Z" fill="#263238"/>
<path d="M84.602 262.567C84.602 262.567 72.31 256.148 72.069 245.419C72.061 245.042 72.476 244.808 72.786 245.023C74.613 246.285 79.675 250.637 84.602 262.567Z" fill="#1685FF"/>
<path d="M74.6218 249.104C74.6818 249.064 75.2568 249.806 76.1538 251.026C77.1518 252.407 78.3238 254.027 79.6188 255.818C80.9188 257.604 82.0948 259.22 83.0968 260.597C83.9948 261.813 84.5548 262.564 84.4968 262.613C84.4458 262.657 83.7838 261.987 82.8078 260.823C81.8338 259.658 80.5498 258 79.1978 256.121C77.8448 254.244 76.6708 252.509 75.8508 251.234C75.0308 249.959 74.5618 249.144 74.6218 249.104Z" fill="#263238"/>
<path d="M97.8017 290.991C97.8017 290.991 85.1427 285.33 84.2507 274.635C84.2197 274.259 84.6197 274.001 84.9417 274.196C86.8417 275.346 92.1587 279.383 97.8017 290.991Z" fill="#1685FF"/>
<path d="M87.0218 278.159C87.0788 278.115 87.6978 278.821 88.6668 279.985C89.7468 281.303 91.0158 282.849 92.4168 284.557C93.8228 286.261 95.0948 287.803 96.1778 289.116C97.1478 290.276 97.7529 290.991 97.6979 291.044C97.6499 291.091 96.9488 290.462 95.9038 289.36C94.8608 288.256 93.4789 286.679 92.0149 284.886C90.5509 283.094 89.2728 281.434 88.3778 280.211C87.4818 278.987 86.9648 278.203 87.0218 278.159Z" fill="#263238"/>
<path d="M90.5181 322.697C90.5181 322.697 81.8261 311.892 85.9031 301.964C86.0461 301.615 86.5202 301.567 86.7182 301.888C87.8862 303.777 90.7811 309.792 90.5181 322.697Z" fill="#1685FF"/>
<path d="M86.7652 306.363C86.8362 306.35 87.0662 307.26 87.3982 308.738C87.7602 310.403 88.1842 312.357 88.6542 314.517C89.1292 316.674 89.5602 318.626 89.9262 320.289C90.2622 321.763 90.4742 322.676 90.4012 322.698C90.3372 322.718 89.9992 321.839 89.5712 320.381C89.1452 318.924 88.6332 316.89 88.1472 314.627C87.6602 312.365 87.2792 310.305 87.0382 308.808C86.7972 307.31 86.6942 306.376 86.7652 306.363Z" fill="#263238"/>
<path d="M99.1272 360.007C99.1272 360.007 86.5652 354.134 85.8522 343.426C85.8272 343.05 86.2322 342.798 86.5512 342.998C88.4322 344.18 93.6812 348.305 99.1272 360.007Z" fill="#1685FF"/>
<path d="M88.5639 346.996C88.6219 346.954 89.2289 347.669 90.1789 348.849C91.2369 350.184 92.4789 351.752 93.8519 353.484C95.2289 355.211 96.4749 356.774 97.5359 358.106C98.4869 359.282 99.0789 360.007 99.0239 360.059C98.9749 360.105 98.2839 359.465 97.2579 358.345C96.2339 357.224 94.8779 355.624 93.4449 353.806C92.0109 351.99 90.7619 350.309 89.8869 349.07C89.0109 347.832 88.5069 347.038 88.5639 346.996Z" fill="#263238"/>
<path d="M124.149 305.486C124.161 305.487 124.166 305.591 124.165 305.792C124.159 306.033 124.152 306.325 124.143 306.678C124.106 307.511 124.056 308.636 123.994 310.04C123.832 312.996 123.606 317.118 123.336 322.048L123.335 322.06L123.332 322.077C122.435 327.095 119.88 332.657 116.447 338.056C113.929 342.034 111.289 345.65 109.013 349.014C106.722 352.368 104.788 355.474 103.439 358.227C102.082 360.976 101.293 363.338 100.832 364.988C100.611 365.816 100.445 366.462 100.35 366.905C100.247 367.345 100.184 367.576 100.166 367.573C100.148 367.57 100.177 367.333 100.247 366.885C100.31 366.435 100.444 365.779 100.636 364.938C101.04 363.263 101.782 360.861 103.109 358.068C104.426 355.271 106.342 352.123 108.616 348.747C110.877 345.36 113.502 341.738 116.007 337.78C119.422 332.407 121.964 326.93 122.894 321.992L122.89 322.02C123.236 317.094 123.525 312.977 123.733 310.024C123.846 308.623 123.937 307.501 124.004 306.669C124.039 306.317 124.069 306.027 124.093 305.787C124.119 305.587 124.138 305.485 124.149 305.486Z" fill="#263238"/>
<path d="M116.669 337.024C116.669 337.024 121.989 324.218 115.297 315.828C115.062 315.534 114.593 315.62 114.493 315.983C113.9 318.124 112.804 324.709 116.669 337.024Z" fill="#1685FF"/>
<path d="M115.7 320.293C115.771 320.285 115.934 321.211 116.122 322.716C116.31 324.221 116.521 326.305 116.686 328.612C116.853 330.92 116.93 333.016 116.929 334.535C116.926 336.054 116.847 336.993 116.78 336.992C116.704 336.991 116.653 336.056 116.562 334.547C116.449 332.848 116.315 330.854 116.168 328.65C116.014 326.446 115.875 324.451 115.756 322.751C115.663 321.238 115.629 320.3 115.7 320.293Z" fill="#263238"/>
<g opacity="0.3">
<path d="M116.669 337.024C116.669 337.024 121.989 324.218 115.297 315.828C115.062 315.534 114.593 315.62 114.493 315.983C113.9 318.124 112.804 324.709 116.669 337.024Z" fill="black"/>
</g>
<path d="M100.191 367.884C100.191 367.884 104.455 354.689 97.1049 346.869C96.8469 346.594 96.3869 346.719 96.3159 347.089C95.8979 349.271 95.3399 355.923 100.191 367.884Z" fill="#1685FF"/>
<path d="M97.8682 351.287C97.9382 351.274 98.1762 352.183 98.4852 353.668C98.7952 355.152 99.1742 357.212 99.5252 359.499C99.8782 361.786 100.125 363.869 100.248 365.383C100.368 366.897 100.366 367.839 100.299 367.844C100.223 367.849 100.096 366.921 99.8842 365.424C99.6332 363.74 99.3382 361.763 99.0132 359.578C98.6812 357.393 98.3802 355.416 98.1242 353.732C97.9082 352.232 97.7982 351.3 97.8682 351.287Z" fill="#263238"/>
<g opacity="0.3">
<path d="M100.191 367.884C100.191 367.884 104.455 354.689 97.1049 346.869C96.8469 346.594 96.3869 346.719 96.3159 347.089C95.8979 349.271 95.3399 355.923 100.191 367.884Z" fill="black"/>
</g>
<path d="M123.445 321.373C123.445 321.373 134.805 313.42 133.659 302.75C133.619 302.375 133.177 302.197 132.897 302.449C131.248 303.938 126.79 308.907 123.445 321.373Z" fill="#1685FF"/>
<g opacity="0.3">
<path d="M123.445 321.373C123.445 321.373 134.805 313.42 133.659 302.75C133.619 302.375 133.177 302.197 132.897 302.449C131.248 303.938 126.79 308.907 123.445 321.373Z" fill="black"/>
</g>
<path d="M131.603 306.734C131.667 306.766 131.308 307.634 130.659 309.005C130.011 310.376 129.07 312.248 127.971 314.284C126.873 316.321 125.814 318.132 124.999 319.413C124.181 320.693 123.612 321.443 123.555 321.406C123.491 321.364 123.95 320.548 124.683 319.225C125.499 317.73 126.456 315.976 127.514 314.037C128.567 312.094 129.52 310.336 130.332 308.838C131.065 307.512 131.539 306.703 131.603 306.734Z" fill="#263238"/>
<path d="M104.772 354.802C104.772 354.802 118.474 352.666 122.144 342.581C122.273 342.227 121.955 341.872 121.592 341.976C119.456 342.586 113.265 345.084 104.772 354.802Z" fill="#1685FF"/>
<g opacity="0.3">
<path d="M104.772 354.802C104.772 354.802 118.474 352.666 122.144 342.581C122.273 342.227 121.955 341.872 121.592 341.976C119.456 342.586 113.265 345.084 104.772 354.802Z" fill="black"/>
</g>
<path d="M118.544 345.253C118.588 345.31 117.882 345.931 116.696 346.876C115.51 347.821 113.842 349.087 111.958 350.431C110.075 351.777 108.327 352.935 107.031 353.727C105.733 354.516 104.891 354.939 104.857 354.881C104.818 354.816 105.59 354.284 106.83 353.42C108.221 352.437 109.853 351.284 111.657 350.009C113.458 348.729 115.088 347.569 116.476 346.582C117.717 345.714 118.5 345.196 118.544 345.253Z" fill="#263238"/>
<path d="M91.7011 380.018L87.7041 406.919H112.612L109.382 380.018H91.7011Z" fill="#455A64"/>
<path d="M110.378 388.354C110.378 388.497 105.881 388.613 100.334 388.613C94.786 388.613 90.29 388.497 90.29 388.354C90.29 388.211 94.786 388.095 100.334 388.095C105.881 388.094 110.378 388.21 110.378 388.354Z" fill="#263238"/>
<path d="M110.872 390.494C110.872 390.637 106.227 390.753 100.499 390.753C94.769 390.753 90.125 390.637 90.125 390.494C90.125 390.351 94.769 390.235 100.499 390.235C106.227 390.235 110.872 390.351 110.872 390.494Z" fill="#263238"/>
</svg>
