<svg width="3710" height="3710" viewBox="0 0 3710 3710" fill="none" xmlns="http://www.w3.org/2000/svg">
<g clip-path="url(#clip0_539_72)">
<path d="M3710 0H0V3710H3710V0Z" fill="white"/>
<path d="M2880.28 2854.55C2808.27 2928.77 2743.84 2972.4 2694.52 3005.33C2213.43 3326.56 1663.49 3233.98 1493.46 3202.33C1219.14 3151.28 987.579 3115.26 788.625 2935.51C336.542 2527.07 358.531 1675.04 703.977 1147.24C744.937 1084.66 1089.86 573.374 1640.99 501.329C1654.47 499.567 1664.53 498.563 1673.34 497.631C1758.59 488.604 2286.92 440.962 2717.72 801.886C2779.39 853.55 2878.63 946.74 2970.66 1088.87C3307.15 1608.56 3308.22 2413.44 2880.28 2854.55Z" fill="url(#paint0_linear_539_72)"/>
<path d="M1092.47 468.725C1304.45 645.897 2495.91 1727.31 1681.96 3027.64C1681.96 3027.64 714.305 2517.62 1054.42 482.734C1057.39 464.933 1078.62 457.15 1092.47 468.725Z" fill="#91B3FA"/>
<path d="M1156.83 738.848C1156.83 738.848 1217.67 856.484 1301.81 1036.35C1312.26 1058.86 1323.14 1082.31 1334.41 1106.58C1345.5 1130.94 1356.96 1156.12 1368.74 1182C1380.35 1207.96 1392.44 1234.56 1404.4 1261.93C1410.43 1275.59 1416.52 1289.4 1422.66 1303.34C1428.72 1317.33 1434.83 1331.45 1440.99 1345.68C1465.7 1402.61 1490.47 1461.77 1515.3 1522.01C1527.51 1552.22 1539.81 1582.67 1552.16 1613.24C1564.14 1643.96 1576.5 1674.67 1588.24 1705.63C1599.98 1736.58 1612 1767.43 1623.24 1798.43C1628.94 1813.91 1634.63 1829.35 1640.3 1844.75C1645.95 1860.15 1651.3 1875.62 1656.78 1890.96C1662.21 1906.33 1667.63 1921.63 1673.01 1936.86C1678.21 1952.15 1683.38 1967.37 1688.52 1982.5C1698.97 2012.69 1708.58 2042.76 1718.12 2072.31C1737.15 2131.43 1754.39 2188.95 1769.81 2243.77C1785.17 2298.61 1798.75 2350.74 1810.06 2399.17C1816.11 2423.29 1820.91 2446.64 1825.64 2468.81C1828 2479.9 1830.31 2490.7 1832.55 2501.2C1834.66 2511.73 1836.41 2522.02 1838.27 2531.96C1841.81 2551.87 1845.56 2570.42 1848.24 2587.72C1850.82 2605.04 1853.2 2620.95 1855.34 2635.31C1856.39 2642.5 1857.39 2649.3 1858.33 2655.7C1859.04 2662.14 1859.71 2668.17 1860.32 2673.78C1861.56 2685.01 1862.61 2694.56 1863.46 2702.3C1865.17 2717.79 1866.08 2726.05 1866.08 2726.05C1866.57 2730.46 1863.38 2734.43 1858.97 2734.92C1854.55 2735.4 1850.58 2732.22 1850.1 2727.81L1850.09 2727.77L1850.06 2727.43C1850.06 2727.43 1849.19 2719.25 1847.56 2703.9C1846.75 2696.22 1845.75 2686.75 1844.58 2675.63C1843.99 2670.06 1843.36 2664.08 1842.68 2657.7C1841.78 2651.34 1840.81 2644.59 1839.8 2637.45C1837.73 2623.18 1835.45 2607.38 1832.96 2590.18C1830.38 2572.99 1826.73 2554.53 1823.3 2534.73C1821.49 2524.84 1819.8 2514.61 1817.74 2504.13C1815.56 2493.67 1813.31 2482.92 1811.01 2471.88C1806.4 2449.79 1801.73 2426.54 1795.81 2402.5C1784.76 2354.23 1771.46 2302.24 1756.39 2247.51C1741.26 2192.79 1724.32 2135.35 1705.59 2076.3C1696.2 2046.78 1686.74 2016.73 1676.44 1986.55C1671.38 1971.44 1666.29 1956.23 1661.17 1940.94C1655.86 1925.72 1650.53 1910.42 1645.17 1895.06C1639.76 1879.71 1634.49 1864.26 1628.92 1848.85C1623.32 1833.45 1617.71 1818.01 1612.09 1802.54C1601 1771.53 1589.13 1740.68 1577.55 1709.71C1565.96 1678.75 1553.74 1648.03 1541.92 1617.29C1529.72 1586.71 1517.56 1556.24 1505.5 1526.01C1480.95 1465.72 1456.47 1406.51 1432.04 1349.53C1425.94 1335.28 1419.9 1321.15 1413.91 1307.15C1407.83 1293.19 1401.81 1279.37 1395.85 1265.69C1384.01 1238.3 1372.05 1211.67 1360.56 1185.67C1348.9 1159.76 1337.56 1134.55 1326.59 1110.16C1315.44 1085.86 1304.66 1062.38 1294.31 1039.84C1273.47 994.824 1254.13 953.668 1236.74 917.311C1219.4 880.927 1204.03 849.331 1191.32 823.34C1165.82 771.379 1150.77 741.962 1150.77 741.962C1149.91 740.287 1150.58 738.235 1152.25 737.378C1153.93 736.517 1155.98 737.173 1156.83 738.848Z" fill="white"/>
<path d="M481.496 839.005C725.445 933.249 2122.69 1539.67 1789.15 2953.04C1789.15 2953.04 766.522 2790.6 451.653 863.151C448.898 846.289 465.559 832.848 481.496 839.005Z" fill="#BDD0FB"/>
<path d="M621.876 1061.07C621.876 1061.07 712.271 1147.96 842.526 1283.5C875.104 1317.37 910.149 1354.3 946.932 1393.63C983.65 1433.02 1022.26 1474.67 1061.6 1518.3C1101.1 1561.78 1141.34 1607.25 1181.97 1653.67C1202.12 1677.03 1222.44 1700.57 1242.83 1724.2C1262.93 1748.08 1283.38 1771.83 1303.34 1796C1323.3 1820.16 1343.48 1844.15 1363.01 1868.51C1372.84 1880.64 1382.65 1892.75 1392.43 1904.82C1402.08 1916.99 1411.7 1929.13 1421.29 1941.22C1430.85 1953.33 1440.37 1965.4 1449.84 1977.4C1459.16 1989.53 1468.43 2001.59 1477.65 2013.59C1496.23 2037.46 1514.02 2061.48 1531.58 2085.06C1566.67 2132.24 1599.66 2178.55 1630.21 2222.99C1660.7 2267.47 1688.78 2310.06 1713.69 2350.03C1726.47 2369.81 1737.9 2389.28 1748.91 2407.72C1754.41 2416.94 1759.77 2425.92 1764.98 2434.65C1770.09 2443.45 1774.8 2452.14 1779.5 2460.48C1788.75 2477.26 1797.77 2492.75 1805.45 2507.45C1813.05 2522.19 1820.03 2535.73 1826.34 2547.96C1829.48 2554.09 1832.45 2559.88 1835.24 2565.34C1837.84 2570.89 1840.28 2576.1 1842.55 2580.95C1847.08 2590.64 1850.94 2598.88 1854.07 2605.56C1860.32 2618.93 1863.66 2626.06 1863.66 2626.06C1865.78 2630.6 1863.82 2635.99 1859.29 2638.11C1854.76 2640.23 1849.37 2638.28 1847.25 2633.74L1847.23 2633.7L1847.07 2633.35C1847.07 2633.35 1843.8 2626.28 1837.68 2613.03C1834.62 2606.4 1830.85 2598.23 1826.42 2588.62C1824.2 2583.81 1821.81 2578.65 1819.27 2573.14C1816.53 2567.72 1813.61 2561.96 1810.53 2555.88C1804.35 2543.72 1797.5 2530.26 1790.04 2515.61C1782.5 2500.99 1773.62 2485.56 1764.53 2468.86C1759.9 2460.56 1755.27 2451.91 1750.25 2443.14C1745.11 2434.44 1739.83 2425.48 1734.41 2416.29C1723.56 2397.91 1712.31 2378.49 1699.69 2358.74C1675.12 2318.86 1647.39 2276.31 1617.24 2231.85C1587.05 2187.41 1554.4 2141.09 1519.66 2093.85C1502.26 2070.25 1484.65 2046.2 1466.24 2022.29C1457.11 2010.28 1447.92 1998.19 1438.68 1986.05C1429.29 1974.02 1419.86 1961.93 1410.39 1949.79C1400.88 1937.68 1391.34 1925.52 1381.77 1913.32C1372.07 1901.22 1362.34 1889.08 1352.6 1876.93C1333.23 1852.51 1313.21 1828.46 1293.41 1804.23C1273.61 1780.01 1253.31 1756.18 1233.37 1732.23C1213.13 1708.52 1192.96 1684.91 1172.96 1661.48C1132.62 1614.91 1092.67 1569.29 1053.44 1525.64C1014.37 1481.86 976.014 1440.05 939.536 1400.51C902.993 1361.02 868.17 1323.94 835.797 1289.93C706.356 1153.82 616.536 1066.59 616.536 1066.59C615.014 1065.11 614.98 1062.68 616.456 1061.16C617.929 1059.65 620.354 1059.61 621.876 1061.07Z" fill="white"/>
<path d="M2917.63 1979.06C2917.08 1972.24 2910.12 1966.34 2898.32 1961.61C2911.14 1954.54 2918.23 1946.96 2917.63 1939.53C2915.82 1917.05 2844.62 1904.44 2758.59 1911.38C2672.57 1918.31 2604.3 1942.16 2606.12 1964.65C2606.67 1971.47 2613.63 1977.37 2625.43 1982.1C2612.61 1989.17 2605.52 1996.75 2606.12 2004.18C2606.67 2011 2613.63 2016.9 2625.43 2021.63C2612.61 2028.7 2605.52 2036.28 2606.12 2043.71C2606.67 2050.53 2613.63 2056.43 2625.43 2061.16C2612.61 2068.23 2605.52 2075.81 2606.12 2083.24C2606.92 2093.18 2621.31 2101.19 2644.54 2106.43C2644.24 2113.78 2644.41 2121.84 2645.13 2130.73C2648.49 2172.16 2695.1 2204.64 2756.73 2204.64C2818.37 2204.64 2871.72 2160.35 2872.33 2118.79C2872.48 2108.6 2872.04 2099.63 2871.12 2091.67C2900.61 2081.82 2918.57 2069.79 2917.63 2058.12C2917.08 2051.3 2910.12 2045.4 2898.32 2040.67C2911.14 2033.6 2918.23 2026.02 2917.63 2018.59C2917.08 2011.77 2910.12 2005.87 2898.32 2001.13C2911.14 1994.07 2918.23 1986.49 2917.63 1979.06Z" fill="url(#paint1_linear_539_72)"/>
<path d="M2718.79 2115.38C2693.24 2115.38 2669.87 2113.5 2650.55 2109.8C2649.43 2109.59 2648.7 2108.51 2648.91 2107.39C2649.12 2106.27 2650.2 2105.53 2651.33 2105.75C2681.55 2111.53 2721.92 2112.81 2764.99 2109.33C2800.24 2106.49 2833.2 2100.81 2860.32 2092.89C2861.42 2092.57 2862.56 2093.2 2862.88 2094.3C2863.2 2095.39 2862.57 2096.54 2861.48 2096.86C2834.1 2104.85 2800.85 2110.59 2765.32 2113.45C2749.32 2114.74 2733.69 2115.38 2718.79 2115.38Z" fill="url(#paint2_linear_539_72)"/>
<path d="M2719.22 2075.81C2686.02 2075.81 2656.36 2072.69 2635.44 2066.73C2634.34 2066.42 2633.7 2065.28 2634.02 2064.18C2634.33 2063.08 2635.47 2062.45 2636.57 2062.76C2666.38 2071.25 2714.39 2073.88 2764.99 2069.8C2815.05 2065.77 2861.73 2055.61 2889.86 2042.63C2890.9 2042.16 2892.13 2042.61 2892.6 2043.64C2893.08 2044.68 2892.63 2045.91 2891.59 2046.39C2863.04 2059.55 2815.84 2069.85 2765.33 2073.92C2749.56 2075.19 2734.04 2075.81 2719.22 2075.81Z" fill="url(#paint3_linear_539_72)"/>
<path d="M2718.79 2036.31C2682.95 2036.31 2651.59 2032.65 2630.48 2025.69C2629.4 2025.33 2628.81 2024.16 2629.17 2023.08C2629.52 2021.99 2630.69 2021.4 2631.77 2021.76C2661.15 2031.45 2710.95 2034.63 2764.99 2030.27C2815.04 2026.24 2861.72 2016.08 2889.86 2003.1C2890.9 2002.63 2892.13 2003.08 2892.6 2004.11C2893.08 2005.15 2892.63 2006.38 2891.59 2006.85C2863.04 2020.03 2815.83 2030.32 2765.33 2034.39C2749.32 2035.68 2733.67 2036.31 2718.79 2036.31Z" fill="url(#paint4_linear_539_72)"/>
<path d="M2719.07 1996.76C2690.64 1996.76 2664.78 1994.47 2644.68 1990C2643.57 1989.75 2642.86 1988.65 2643.11 1987.54C2643.36 1986.42 2644.47 1985.72 2645.58 1985.97C2675.81 1992.68 2719.33 1994.42 2764.99 1990.74C2814.6 1986.74 2861.04 1976.7 2889.23 1963.86C2890.26 1963.39 2891.49 1963.85 2891.96 1964.89C2892.43 1965.93 2891.98 1967.15 2890.94 1967.62C2862.34 1980.64 2815.38 1990.82 2765.33 1994.86C2749.51 1996.14 2733.94 1996.76 2719.07 1996.76Z" fill="url(#paint5_linear_539_72)"/>
<path d="M2548.38 1779.52C2537.93 1742.51 2520.19 1707.93 2496.29 1677.81C2445.08 1613.26 2361.53 1482.01 2351.25 1302.86C2336.29 1042.29 2567.39 911.832 2778.27 929.542C2989.15 947.251 3197.24 1104.27 3174.46 1346.68C3160.44 1495.84 3076.96 1608.98 3014.8 1673.95C2975.33 1715.21 2947.17 1765.74 2931.93 1820.77C2913.28 1888.12 2868.88 1972.05 2763.37 1977.17C2626.83 1983.79 2570.12 1856.52 2548.38 1779.52Z" fill="url(#paint6_linear_539_72)"/>
<path d="M2798.24 1925.21L2872.03 1445.29C2873.55 1435.37 2878.43 1428.72 2882.93 1430.42C2887.42 1432.12 2889.83 1441.54 2888.31 1451.45C2888.27 1451.71 2888.21 1452.04 2888.17 1452.3L2804.12 1927.76C2803.48 1931.33 2801.67 1933.59 2800.06 1932.8C2798.5 1932.04 2797.71 1928.67 2798.24 1925.21Z" fill="url(#paint7_linear_539_72)"/>
<path d="M2721.65 1929.02L2647.86 1449.1C2646.34 1439.19 2641.46 1432.53 2636.96 1434.23C2632.47 1435.93 2630.06 1445.35 2631.58 1455.26C2631.62 1455.53 2631.68 1455.85 2631.73 1456.11L2715.77 1931.57C2716.41 1935.15 2718.22 1937.4 2719.83 1936.61C2721.39 1935.85 2722.18 1932.48 2721.65 1929.02Z" fill="url(#paint8_linear_539_72)"/>
<path d="M2871.5 1404.08C2869.63 1401.07 2865.29 1399.94 2861.81 1401.57L2820.73 1420.77L2806.47 1380.13C2805.71 1378.01 2803.96 1376.13 2801.47 1375.1C2796.74 1373.16 2791.09 1374.9 2788.84 1379L2788.77 1379.13L2754.98 1440.73L2723.63 1353.03L2723.58 1352.89C2722.81 1350.75 2721.19 1348.83 2718.83 1347.54C2713.57 1344.67 2706.63 1346.03 2703.32 1350.59L2656.08 1415.62C2654.16 1418.29 2654.82 1421.86 2657.74 1423.83C2660.87 1425.93 2665.36 1425.44 2667.79 1422.73L2709.38 1376.34L2746.83 1459.77L2746.85 1459.83C2747.46 1461.17 2748.59 1462.33 2750.16 1463.06C2753.67 1464.71 2758.06 1463.58 2759.95 1460.53L2796.09 1402.54L2809.69 1431.87L2809.81 1432.13C2809.91 1432.34 2810.02 1432.55 2810.15 1432.76C2812.02 1435.77 2816.35 1436.89 2819.83 1435.27L2868.6 1412.48C2872.07 1410.86 2873.37 1407.1 2871.5 1404.08Z" fill="white"/>
<path d="M3016.4 1612.08C3014.46 1612.08 3012.5 1611.49 3010.83 1610.24C3006.67 1607.16 3005.8 1601.29 3008.89 1597.13C3021.45 1580.21 3032.97 1562.71 3043.12 1545.14C3045.71 1540.67 3051.43 1539.13 3055.91 1541.71C3060.39 1544.3 3061.93 1550.03 3059.34 1554.51C3048.83 1572.7 3036.92 1590.8 3023.93 1608.3C3022.09 1610.78 3019.27 1612.08 3016.4 1612.08Z" fill="white"/>
<path d="M3077.1 1507.9C3075.86 1507.9 3074.59 1507.65 3073.38 1507.13C3068.63 1505.07 3066.45 1499.55 3068.52 1494.81C3146.49 1315.24 3079.24 1164.53 3078.56 1163.03C3076.4 1158.33 3078.46 1152.76 3083.17 1150.61C3087.88 1148.46 3093.43 1150.52 3095.58 1155.22C3098.54 1161.66 3166.97 1315.11 3085.7 1502.27C3084.17 1505.8 3080.72 1507.9 3077.1 1507.9Z" fill="white"/>
<path d="M1118.08 1544.74C1117.58 1538.57 1111.29 1533.24 1100.62 1528.96C1112.21 1522.57 1118.62 1515.72 1118.08 1509C1116.44 1488.68 1052.07 1477.28 974.309 1483.55C896.547 1489.82 834.836 1511.38 836.474 1531.71C836.972 1537.87 843.269 1543.21 853.932 1547.49C842.344 1553.88 835.934 1560.73 836.474 1567.44C836.972 1573.61 843.269 1578.94 853.932 1583.22C842.344 1589.61 835.934 1596.46 836.474 1603.18C836.972 1609.34 843.269 1614.68 853.932 1618.95C842.344 1625.34 835.934 1632.19 836.474 1638.91C837.2 1647.9 850.21 1655.14 871.206 1659.88C870.934 1666.52 871.086 1673.8 871.739 1681.84C874.781 1719.29 916.909 1748.66 972.628 1748.66C1028.35 1748.66 1076.58 1708.62 1077.12 1671.05C1077.26 1661.84 1076.87 1653.73 1076.03 1646.53C1102.69 1637.63 1118.93 1626.75 1118.08 1616.2C1117.58 1610.04 1111.28 1604.7 1100.62 1600.43C1112.21 1594.04 1118.62 1587.19 1118.08 1580.47C1117.58 1574.3 1111.28 1568.97 1100.62 1564.69C1112.21 1558.3 1118.62 1551.45 1118.08 1544.74Z" fill="url(#paint9_linear_539_72)"/>
<path d="M938.329 1667.97C915.234 1667.97 894.103 1666.27 876.643 1662.92C875.63 1662.73 874.966 1661.75 875.16 1660.74C875.354 1659.73 876.327 1659.06 877.345 1659.26C904.666 1664.49 941.156 1665.64 980.096 1662.5C1011.96 1659.93 1041.76 1654.79 1066.27 1647.64C1067.26 1647.35 1068.29 1647.92 1068.58 1648.91C1068.87 1649.9 1068.31 1650.93 1067.31 1651.22C1042.56 1658.45 1012.51 1663.63 980.397 1666.22C965.932 1667.39 951.797 1667.97 938.329 1667.97Z" fill="url(#paint10_linear_539_72)"/>
<path d="M938.717 1632.2C908.71 1632.2 881.896 1629.38 862.981 1623.99C861.989 1623.71 861.414 1622.68 861.696 1621.68C861.979 1620.69 863.008 1620.12 864.004 1620.4C890.955 1628.07 934.354 1630.45 980.095 1626.77C1025.34 1623.12 1067.54 1613.94 1092.97 1602.2C1093.91 1601.77 1095.02 1602.18 1095.45 1603.12C1095.88 1604.05 1095.48 1605.16 1094.54 1605.6C1068.73 1617.5 1026.06 1626.81 980.397 1630.49C966.147 1631.64 952.112 1632.2 938.717 1632.2Z" fill="url(#paint11_linear_539_72)"/>
<path d="M938.332 1596.49C905.934 1596.49 877.583 1593.18 858.5 1586.89C857.52 1586.56 856.988 1585.51 857.312 1584.53C857.634 1583.55 858.687 1583.01 859.669 1583.34C886.225 1592.09 931.244 1594.97 980.094 1591.03C1025.34 1587.38 1067.53 1578.2 1092.97 1566.47C1093.91 1566.04 1095.02 1566.45 1095.45 1567.38C1095.88 1568.32 1095.47 1569.43 1094.54 1569.86C1068.72 1581.77 1026.05 1591.07 980.396 1594.75C965.927 1595.92 951.78 1596.49 938.332 1596.49Z" fill="url(#paint12_linear_539_72)"/>
<path d="M938.582 1560.74C912.881 1560.74 889.508 1558.66 871.336 1554.62C870.329 1554.4 869.693 1553.4 869.917 1552.4C870.141 1551.39 871.142 1550.75 872.145 1550.98C899.471 1557.05 938.818 1558.62 980.094 1555.3C1024.93 1551.68 1066.92 1542.6 1092.4 1531C1093.33 1530.57 1094.44 1530.99 1094.87 1531.93C1095.3 1532.86 1094.88 1533.97 1093.94 1534.4C1068.09 1546.17 1025.64 1555.37 980.395 1559.02C966.099 1560.17 952.022 1560.74 938.582 1560.74Z" fill="url(#paint13_linear_539_72)"/>
<path d="M784.283 1364.35C774.838 1330.9 758.795 1299.64 737.19 1272.41C690.897 1214.06 615.375 1095.41 606.08 933.469C592.558 697.917 801.467 579.987 992.098 595.997C1182.73 612.006 1370.83 753.946 1350.24 973.081C1337.57 1107.91 1262.1 1210.19 1205.91 1268.92C1170.23 1306.22 1144.78 1351.9 1131 1401.64C1114.14 1462.53 1074.01 1538.4 978.624 1543.03C855.2 1549.01 803.937 1433.97 784.283 1364.35Z" fill="url(#paint14_linear_539_72)"/>
<path d="M1010.15 1496.05L1076.85 1062.22C1078.23 1053.26 1082.64 1047.24 1086.71 1048.78C1090.77 1050.31 1092.95 1058.83 1091.57 1067.79C1091.53 1068.03 1091.48 1068.32 1091.44 1068.56L1015.46 1498.36C1014.89 1501.59 1013.25 1503.64 1011.79 1502.92C1010.39 1502.23 1009.67 1499.18 1010.15 1496.05Z" fill="url(#paint15_linear_539_72)"/>
<path d="M940.913 1499.5L874.212 1065.66C872.833 1056.7 868.423 1050.68 864.36 1052.22C860.297 1053.76 858.12 1062.27 859.499 1071.23C859.535 1071.47 859.585 1071.77 859.626 1072L935.605 1501.81C936.176 1505.04 937.817 1507.08 939.271 1506.36C940.679 1505.67 941.392 1502.63 940.913 1499.5Z" fill="url(#paint16_linear_539_72)"/>
<path d="M1076.37 1024.97C1074.68 1022.25 1070.76 1021.23 1067.62 1022.7L1030.48 1040.05L1017.59 1003.32C1016.9 1001.4 1015.32 999.702 1013.07 998.773C1008.8 997.012 1003.69 998.587 1001.66 1002.29L1001.59 1002.41L971.046 1058.1L942.702 978.823L942.655 978.691C941.961 976.757 940.498 975.019 938.365 973.854C933.612 971.26 927.334 972.496 924.341 976.617L881.639 1035.4C879.902 1037.81 880.5 1041.04 883.144 1042.82C885.965 1044.72 890.032 1044.28 892.225 1041.83L929.823 999.892L963.674 1075.31L963.699 1075.37C964.243 1076.57 965.263 1077.63 966.682 1078.29C969.858 1079.78 973.823 1078.75 975.54 1076L1008.21 1023.58L1020.5 1050.09L1020.61 1050.33C1020.7 1050.52 1020.8 1050.71 1020.92 1050.89C1022.61 1053.61 1026.52 1054.63 1029.66 1053.16L1073.75 1032.56C1076.89 1031.09 1078.07 1027.69 1076.37 1024.97Z" fill="white"/>
<path d="M1207.36 1213C1205.61 1213 1203.84 1212.46 1202.32 1211.33C1198.57 1208.54 1197.78 1203.24 1200.57 1199.48C1211.93 1184.18 1222.34 1168.37 1231.51 1152.48C1233.85 1148.44 1239.03 1147.05 1243.08 1149.39C1247.13 1151.72 1248.52 1156.9 1246.18 1160.95C1236.68 1177.4 1225.91 1193.76 1214.17 1209.58C1212.51 1211.82 1209.95 1213 1207.36 1213Z" fill="white"/>
<path d="M1262.24 1118.82C1261.11 1118.82 1259.97 1118.6 1258.87 1118.12C1254.58 1116.26 1252.61 1111.27 1254.47 1106.98C1324.96 944.662 1264.17 808.418 1263.55 807.062C1261.6 802.811 1263.47 797.784 1267.72 795.838C1271.98 793.892 1277 795.755 1278.94 800.006C1281.61 805.827 1343.47 944.541 1270.01 1113.73C1268.62 1116.92 1265.51 1118.82 1262.24 1118.82Z" fill="white"/>
<g opacity="0.3">
<path d="M2375.53 824.24C2371.4 824.259 2367.84 821.157 2367.39 816.964C2366.38 807.794 2365.76 798.444 2365.54 789.175C2365.43 784.665 2369 780.922 2373.51 780.815C2373.56 780.815 2373.62 780.815 2373.67 780.814C2378.11 780.793 2381.76 784.33 2381.87 788.785C2382.08 797.592 2382.67 806.473 2383.62 815.183C2384.11 819.666 2380.87 823.7 2376.39 824.19C2376.1 824.225 2375.82 824.239 2375.53 824.24ZM2375.72 753.096C2375.41 753.098 2375.08 753.08 2374.76 753.043C2370.28 752.534 2367.05 748.489 2367.56 744.007C2368.61 734.802 2370.06 725.551 2371.87 716.512C2372.76 712.09 2377.04 709.234 2381.49 710.109C2385.91 710.997 2388.77 715.303 2387.88 719.722C2386.16 728.314 2384.78 737.103 2383.79 745.851C2383.32 750.008 2379.81 753.077 2375.72 753.096ZM2391.58 683.765C2390.67 683.769 2389.74 683.62 2388.84 683.303C2384.58 681.808 2382.34 677.148 2383.83 672.892C2386.89 664.169 2390.37 655.469 2394.17 647.037C2396.03 642.926 2400.87 641.101 2404.98 642.948C2409.09 644.801 2410.92 649.638 2409.06 653.749C2405.45 661.757 2402.15 670.016 2399.24 678.301C2398.07 681.648 2394.93 683.749 2391.58 683.765ZM2422.54 619.705C2421.04 619.712 2419.52 619.304 2418.15 618.443C2414.34 616.037 2413.2 610.992 2415.61 607.179C2420.55 599.356 2425.88 591.653 2431.47 584.283C2434.19 580.694 2439.31 579.988 2442.91 582.708C2446.5 585.431 2447.21 590.554 2444.48 594.149C2439.18 601.147 2434.11 608.463 2429.42 615.899C2427.87 618.347 2425.24 619.692 2422.54 619.705ZM2467.01 564.16C2464.91 564.17 2462.8 563.369 2461.19 561.76C2458.01 558.566 2458.02 553.395 2461.21 550.212C2467.74 543.696 2474.65 537.367 2481.74 531.407C2485.19 528.501 2490.34 528.942 2493.24 532.396C2496.15 535.847 2495.7 540.998 2492.25 543.904C2485.52 549.569 2478.95 555.585 2472.74 561.777C2471.16 563.356 2469.09 564.15 2467.01 564.16ZM2522.66 519.839C2519.93 519.852 2517.26 518.499 2515.7 516.018C2513.3 512.198 2514.45 507.159 2518.27 504.758C2526.09 499.841 2534.23 495.196 2542.45 490.96C2546.46 488.893 2551.38 490.468 2553.45 494.478C2555.52 498.484 2553.94 503.411 2549.93 505.478C2542.13 509.505 2534.4 513.915 2526.96 518.588C2525.62 519.43 2524.13 519.832 2522.66 519.839ZM2821.81 498.993C2820.68 498.998 2819.53 498.768 2818.43 498.275C2810.43 494.682 2802.16 491.391 2793.86 488.495C2789.6 487.009 2787.35 482.353 2788.84 478.097C2790.32 473.838 2794.98 471.589 2799.24 473.075C2807.98 476.125 2816.69 479.59 2825.12 483.372C2829.24 485.219 2831.08 490.053 2829.23 494.167C2827.87 497.185 2824.91 498.979 2821.81 498.993ZM2586.7 488.972C2583.32 488.988 2580.14 486.878 2578.96 483.502C2577.47 479.244 2579.71 474.586 2583.97 473.095C2592.69 470.04 2601.66 467.328 2610.61 465.033C2614.98 463.934 2619.43 466.545 2620.55 470.916C2621.67 475.284 2619.04 479.734 2614.67 480.855C2606.16 483.032 2597.65 485.608 2589.36 488.509C2588.48 488.817 2587.59 488.968 2586.7 488.972ZM2754.04 477.37C2753.5 477.373 2752.95 477.324 2752.4 477.215C2743.79 475.504 2734.99 474.145 2726.25 473.169C2721.77 472.667 2718.54 468.627 2719.04 464.146C2719.54 459.665 2723.58 456.415 2728.06 456.936C2737.26 457.965 2746.52 459.395 2755.58 461.193C2760 462.072 2762.88 466.371 2762 470.794C2761.23 474.667 2757.84 477.353 2754.04 477.37ZM2656.04 473.185C2651.92 473.204 2648.36 470.111 2647.89 465.924C2647.39 461.441 2650.62 457.403 2655.1 456.901C2664.28 455.879 2673.63 455.238 2682.88 455.004C2682.94 455 2683 455 2683.05 455C2687.49 454.979 2691.14 458.506 2691.25 462.956C2691.37 467.466 2687.81 471.215 2683.3 471.329C2674.51 471.555 2665.63 472.164 2656.91 473.137C2656.62 473.167 2656.33 473.184 2656.04 473.185Z" fill="#91B3FA"/>
<path d="M2871.79 527.108C2870.18 527.116 2868.55 526.651 2867.13 525.669C2863.66 523.28 2860.08 520.927 2856.5 518.666C2852.69 516.263 2851.54 511.218 2853.95 507.404C2856.35 503.587 2861.39 502.437 2865.21 504.85C2868.98 507.225 2872.74 509.702 2876.39 512.214C2880.1 514.771 2881.04 519.858 2878.49 523.57C2876.91 525.862 2874.37 527.096 2871.79 527.108Z" fill="#91B3FA"/>
</g>
<g opacity="0.3">
<path d="M3005.44 737.167C3001.5 737.185 2998.02 734.344 2997.36 730.331C2996.67 726.177 2995.89 721.967 2995.03 717.821C2994.11 713.404 2996.94 709.081 3001.36 708.164C3005.8 707.244 3010.1 710.085 3011.02 714.499C3011.92 718.865 3012.75 723.298 3013.47 727.672C3014.21 732.122 3011.19 736.324 3006.74 737.06C3006.31 737.131 3005.87 737.165 3005.44 737.167Z" fill="#91B3FA"/>
<path d="M2693.48 1107.25C2689.72 1107.27 2685.95 1107.22 2682.17 1107.11C2677.66 1106.98 2674.11 1103.22 2674.24 1098.71C2674.37 1094.2 2678.15 1090.64 2682.64 1090.78C2691.38 1091.04 2700.1 1090.93 2708.68 1090.47C2713.19 1090.24 2717.03 1093.68 2717.27 1098.19C2717.51 1102.69 2714.06 1106.54 2709.55 1106.78C2704.25 1107.07 2698.84 1107.22 2693.48 1107.25ZM2639.26 1102.92C2638.8 1102.92 2638.34 1102.88 2637.87 1102.81C2628.88 1101.31 2619.86 1099.42 2611.05 1097.19C2606.67 1096.08 2604.03 1091.63 2605.14 1087.26C2606.25 1082.89 2610.7 1080.24 2615.06 1081.36C2623.43 1083.48 2632 1085.28 2640.55 1086.7C2644.99 1087.44 2648 1091.64 2647.26 1096.09C2646.6 1100.07 2643.16 1102.9 2639.26 1102.92ZM2752.2 1101.5C2748.35 1101.52 2744.91 1098.8 2744.16 1094.89C2743.3 1090.46 2746.2 1086.17 2750.63 1085.32C2759.1 1083.68 2767.61 1081.66 2775.94 1079.31C2780.28 1078.09 2784.8 1080.6 2786.02 1084.94C2787.25 1089.29 2784.72 1093.8 2780.38 1095.02C2771.61 1097.5 2762.64 1099.63 2753.72 1101.35C2753.21 1101.45 2752.7 1101.5 2752.2 1101.5ZM2571.86 1083.91C2570.82 1083.91 2569.77 1083.72 2568.75 1083.3C2560.32 1079.87 2551.93 1076.04 2543.82 1071.92C2539.8 1069.87 2538.2 1064.96 2540.24 1060.94C2542.29 1056.92 2547.2 1055.32 2551.22 1057.36C2558.92 1061.28 2566.89 1064.92 2574.9 1068.17C2579.08 1069.87 2581.09 1074.64 2579.39 1078.81C2578.11 1081.97 2575.07 1083.89 2571.86 1083.91ZM2819.01 1080.71C2815.85 1080.72 2812.84 1078.89 2811.49 1075.82C2809.68 1071.68 2811.56 1066.87 2815.69 1065.06C2823.59 1061.6 2831.46 1057.76 2839.07 1053.63C2843.03 1051.48 2847.99 1052.95 2850.14 1056.92C2852.29 1060.88 2850.82 1065.84 2846.85 1067.99C2838.84 1072.33 2830.56 1076.38 2822.24 1080.02C2821.19 1080.48 2820.09 1080.7 2819.01 1080.71ZM2879.64 1045.76C2877.11 1045.77 2874.62 1044.62 2873.01 1042.43C2870.34 1038.79 2871.13 1033.68 2874.76 1031.01C2881.74 1025.89 2888.58 1020.42 2895.09 1014.75C2898.49 1011.78 2903.65 1012.14 2906.61 1015.55C2909.57 1018.95 2909.22 1024.1 2905.81 1027.07C2898.96 1033.04 2891.76 1038.79 2884.42 1044.18C2882.98 1045.24 2881.3 1045.75 2879.64 1045.76ZM2931.2 998.423C2929.28 998.432 2927.35 997.768 2925.79 996.404C2922.4 993.437 2922.05 988.277 2925.02 984.882C2930.72 978.364 2936.2 971.537 2941.32 964.584C2944 960.954 2949.1 960.174 2952.74 962.852C2956.37 965.528 2957.15 970.637 2954.47 974.271C2949.08 981.585 2943.31 988.774 2937.32 995.632C2935.71 997.468 2933.46 998.413 2931.2 998.423ZM2971.22 940.973C2969.88 940.979 2968.53 940.66 2967.28 939.98C2963.32 937.826 2961.86 932.869 2964.01 928.907C2968.14 921.305 2972 913.443 2975.47 905.534C2977.28 901.404 2982.1 899.525 2986.22 901.333C2990.35 903.145 2992.23 907.962 2990.42 912.092C2986.77 920.422 2982.71 928.703 2978.36 936.705C2976.88 939.418 2974.1 940.959 2971.22 940.973ZM2997.65 876.114C2996.9 876.117 2996.14 876.016 2995.38 875.802C2991.05 874.575 2988.52 870.06 2989.75 865.723C2992.1 857.418 2994.12 848.904 2995.77 840.411C2996.63 835.983 3000.92 833.094 3005.34 833.948C3009.77 834.805 3012.66 839.091 3011.8 843.52C3010.07 852.46 3007.94 861.424 3005.47 870.167C3004.45 873.75 3001.2 876.098 2997.65 876.114ZM3009.18 807.08C3009.01 807.081 3008.85 807.075 3008.68 807.066C3004.17 806.813 3000.73 802.956 3000.98 798.454C3001.34 792.098 3001.51 785.657 3001.48 779.302C3001.47 777.002 3001.43 774.706 3001.37 772.419C3001.25 767.909 3004.81 764.157 3009.31 764.04C3013.88 763.83 3017.57 767.479 3017.69 771.985C3017.76 774.393 3017.8 776.805 3017.81 779.226C3017.84 785.909 3017.66 792.688 3017.29 799.373C3017.04 803.706 3013.46 807.06 3009.18 807.08Z" fill="#91B3FA"/>
<path d="M2510.15 1050.4C2508.52 1050.41 2506.88 1049.94 2505.45 1048.94C2501.82 1046.42 2498.18 1043.77 2494.62 1041.07C2491.03 1038.34 2490.32 1033.22 2493.05 1029.63C2495.78 1026.03 2500.9 1025.33 2504.49 1028.06C2507.87 1030.62 2511.34 1033.14 2514.78 1035.54C2518.48 1038.11 2519.39 1043.2 2516.82 1046.9C2515.24 1049.17 2512.72 1050.39 2510.15 1050.4Z" fill="#91B3FA"/>
</g>
<path d="M2520.72 955.633C2521.76 956.889 2523.48 957.351 2525 956.782L2568.53 940.545C2585.78 953.701 2605.25 964.202 2626.39 971.36L2637.24 1016.5C2637.62 1018.08 2638.96 1019.25 2640.58 1019.41L2696.05 1024.76C2697.67 1024.92 2699.21 1024.03 2699.89 1022.55L2719.17 980.32C2741.29 977.34 2762.41 970.76 2781.86 961.147L2821.48 985.413C2822.86 986.263 2824.64 986.139 2825.9 985.104L2868.9 949.673C2870.16 948.637 2870.62 946.918 2870.05 945.393L2853.81 901.87C2866.97 884.621 2877.47 865.148 2884.63 844.002L2929.77 833.156C2931.35 832.776 2932.52 831.433 2932.67 829.812L2938.03 774.348C2938.19 772.727 2937.3 771.186 2935.82 770.51L2893.59 751.228C2890.61 729.102 2884.03 707.981 2874.41 688.533L2898.68 648.919C2899.53 647.531 2899.4 645.756 2898.37 644.499L2862.94 601.494C2861.9 600.236 2860.18 599.776 2858.66 600.345L2815.13 616.583C2797.88 603.426 2778.41 592.925 2757.27 585.768L2746.42 540.628C2746.04 539.045 2744.7 537.877 2743.08 537.72L2687.61 532.365C2685.99 532.208 2684.45 533.097 2683.77 534.579L2664.49 576.809C2642.37 579.787 2621.25 586.369 2601.8 595.982L2562.19 571.717C2560.8 570.866 2559.02 570.99 2557.76 572.025L2514.76 607.457C2513.5 608.492 2513.04 610.211 2513.61 611.737L2529.85 655.26C2516.69 672.509 2506.19 691.982 2499.03 713.128L2453.89 723.974C2452.31 724.354 2451.14 725.697 2450.99 727.319L2445.63 782.781C2445.48 784.402 2446.36 785.944 2447.84 786.62L2490.07 805.902C2493.05 828.028 2499.63 849.148 2509.25 868.597L2484.98 908.21C2484.13 909.599 2484.26 911.373 2485.29 912.631L2520.72 955.633Z" fill="#91B3FA"/>
<path d="M2692.06 834.575C2664.75 834.703 2640.69 814.767 2636.46 786.989C2631.81 756.454 2652.87 727.837 2683.4 723.19C2698.2 720.935 2712.98 724.582 2725.03 733.448C2737.08 742.314 2744.95 755.343 2747.2 770.134C2751.85 800.669 2730.79 829.286 2700.26 833.933C2697.5 834.352 2694.76 834.562 2692.06 834.575ZM2691.72 735.611C2689.61 735.621 2687.49 735.784 2685.37 736.107C2661.96 739.669 2645.81 761.615 2649.37 785.022C2652.94 808.432 2674.88 824.589 2698.29 821.018C2721.7 817.457 2737.85 795.511 2734.29 772.103C2732.56 760.761 2726.52 750.773 2717.28 743.973C2709.77 738.448 2700.88 735.568 2691.72 735.611Z" fill="#BDD0FB"/>
<path d="M2693.58 915.466C2688.89 915.488 2684.17 915.274 2679.44 914.818C2677.95 914.675 2676.47 914.507 2674.98 914.316C2667.67 913.371 2660.44 911.845 2653.4 909.763C2653.31 909.735 2653.21 909.706 2653.11 909.678C2652.84 909.596 2652.57 909.515 2652.3 909.43C2651.77 909.27 2651.24 909.103 2650.72 908.937C2649.34 908.497 2648.45 907.222 2648.44 905.844C2648.44 905.509 2648.49 905.168 2648.6 904.832C2649.15 903.113 2650.98 902.17 2652.7 902.714C2661.55 905.534 2670.75 907.418 2680.07 908.315C2726.34 912.791 2769.4 892.53 2796.11 858.374C2810.97 839.378 2820.77 816.08 2823.26 790.345C2823.7 785.832 2823.9 781.33 2823.88 776.858C2823.73 746.758 2813.33 717.864 2793.93 694.321C2771.65 667.276 2740.17 650.526 2705.29 647.158C2633.26 640.21 2569.05 693.129 2562.1 765.128C2561.67 769.567 2561.47 774.012 2561.49 778.443C2561.59 797.643 2565.88 816.61 2574.13 833.966C2574.34 834.415 2574.45 834.886 2574.45 835.352C2574.45 836.577 2573.76 837.757 2572.58 838.318C2570.95 839.088 2569 838.405 2568.23 836.769C2559.57 818.547 2555.06 798.634 2554.96 778.477C2554.94 773.826 2555.15 769.162 2555.6 764.502C2562.89 688.91 2630.35 633.359 2705.92 640.654C2742.53 644.189 2775.58 661.774 2798.97 690.166C2819.34 714.882 2830.26 745.216 2830.41 776.815C2830.43 781.51 2830.22 786.236 2829.76 790.972C2826.23 827.59 2808.64 860.638 2780.25 884.029C2755.53 904.396 2725.19 915.317 2693.58 915.466Z" fill="#BDD0FB"/>
<g opacity="0.3">
<path d="M2097.87 1040.75C2095.68 1040.76 2093.67 1039.35 2093.01 1037.15C2091.79 1033.05 2090.67 1028.85 2089.69 1024.68C2089.05 1021.97 2090.74 1019.26 2093.45 1018.62C2096.16 1017.97 2098.88 1019.66 2099.51 1022.38C2100.44 1026.35 2101.51 1030.35 2102.68 1034.27C2103.48 1036.93 2101.96 1039.74 2099.29 1040.54C2098.81 1040.68 2098.34 1040.75 2097.87 1040.75Z" fill="#91B3FA"/>
<path d="M2090.22 1002.71C2087.67 1002.72 2085.47 1000.8 2085.19 998.204C2084.41 990.873 2083.99 983.418 2083.96 976.049C2083.95 974.498 2083.96 972.941 2083.99 971.379C2084.03 968.591 2086.48 966.476 2089.11 966.415C2091.9 966.461 2094.12 968.756 2094.07 971.539C2094.05 973.032 2094.04 974.52 2094.04 976.002C2094.08 983.031 2094.47 990.142 2095.22 997.132C2095.51 999.904 2093.51 1002.39 2090.74 1002.68C2090.56 1002.7 2090.39 1002.71 2090.22 1002.71ZM2091.08 950.348C2090.85 950.349 2090.6 950.336 2090.36 950.303C2087.6 949.917 2085.67 947.369 2086.06 944.609C2087.29 935.756 2089.08 926.902 2091.38 918.295C2092.1 915.602 2094.88 914.013 2097.56 914.725C2100.25 915.446 2101.84 918.207 2101.13 920.9C2098.93 929.112 2097.22 937.557 2096.05 946C2095.7 948.514 2093.55 950.336 2091.08 950.348ZM2104.62 899.758C2103.98 899.761 2103.33 899.64 2102.7 899.388C2100.12 898.341 2098.88 895.396 2099.93 892.815C2103.29 884.548 2107.2 876.398 2111.56 868.6C2112.92 866.165 2115.98 865.299 2118.42 866.661C2120.85 868.019 2121.72 871.094 2120.37 873.523C2116.21 880.961 2112.47 888.726 2109.27 896.612C2108.48 898.562 2106.6 899.748 2104.62 899.758ZM2130.18 854.041C2129.14 854.046 2128.08 853.726 2127.18 853.065C2124.93 851.416 2124.45 848.256 2126.1 846.012C2131.39 838.806 2137.17 831.868 2143.3 825.387C2145.21 823.364 2148.4 823.279 2150.42 825.186C2152.45 827.097 2152.54 830.289 2150.63 832.317C2144.79 838.492 2139.27 845.113 2134.23 851.983C2133.24 853.322 2131.72 854.033 2130.18 854.041ZM2166.13 815.954C2164.67 815.961 2163.22 815.337 2162.21 814.125C2160.44 811.981 2160.74 808.803 2162.88 807.024C2169.76 801.332 2177.06 796.008 2184.57 791.205C2186.91 789.697 2190.03 790.387 2191.53 792.734C2193.03 795.081 2192.35 798.202 2190 799.701C2182.84 804.286 2175.88 809.363 2169.32 814.797C2168.38 815.57 2167.25 815.949 2166.13 815.954ZM2210.23 787.751C2208.34 787.76 2206.52 786.699 2205.65 784.881C2204.45 782.37 2205.51 779.36 2208.02 778.157C2216.08 774.307 2224.45 770.923 2232.91 768.105C2235.56 767.231 2238.4 768.656 2239.29 771.297C2240.17 773.938 2238.74 776.796 2236.1 777.676C2228.03 780.364 2220.06 783.588 2212.38 787.259C2211.68 787.591 2210.95 787.747 2210.23 787.751ZM2259.87 771.189C2257.5 771.2 2255.38 769.541 2254.9 767.139C2254.35 764.408 2256.13 761.749 2258.86 761.2C2267.58 759.45 2276.53 758.226 2285.46 757.558C2288.25 757.397 2290.66 759.44 2290.86 762.217C2291.07 764.994 2288.99 767.413 2286.21 767.623C2277.69 768.254 2269.16 769.422 2260.84 771.092C2260.51 771.157 2260.19 771.187 2259.87 771.189ZM2338.17 770.182C2337.88 770.183 2337.58 770.16 2337.29 770.108C2330.04 768.856 2322.6 767.98 2315.16 767.503C2314.04 767.425 2312.93 767.361 2311.83 767.311C2309.05 767.176 2306.9 764.817 2307.03 762.034C2307.16 759.245 2309.54 757.018 2312.3 757.231C2313.48 757.289 2314.66 757.353 2315.84 757.436C2323.6 757.937 2331.4 758.855 2339 760.17C2341.75 760.645 2343.59 763.252 2343.11 765.998C2342.69 768.442 2340.57 770.17 2338.17 770.182Z" fill="#91B3FA"/>
</g>
<g opacity="0.3">
<path d="M2305.79 1192.63C2303.04 1192.65 2300.77 1190.44 2300.73 1187.68C2300.68 1184.89 2302.89 1182.59 2305.68 1182.55C2314.06 1182.4 2322.51 1181.74 2330.79 1180.58C2333.53 1180.22 2336.1 1182.12 2336.48 1184.88C2336.86 1187.64 2334.94 1190.19 2332.18 1190.57C2323.5 1191.78 2314.65 1192.48 2305.86 1192.63C2305.84 1192.63 2305.81 1192.63 2305.79 1192.63ZM2280.01 1191.54C2279.83 1191.54 2279.65 1191.53 2279.46 1191.51C2270.73 1190.62 2261.96 1189.18 2253.4 1187.24C2250.68 1186.63 2248.98 1183.93 2249.59 1181.21C2250.21 1178.49 2252.92 1176.8 2255.62 1177.4C2263.79 1179.25 2272.16 1180.62 2280.49 1181.48C2283.26 1181.76 2285.28 1184.24 2285 1187.01C2284.73 1189.6 2282.55 1191.53 2280.01 1191.54ZM2356.79 1185.5C2354.56 1185.51 2352.51 1184.02 2351.9 1181.76C2351.18 1179.07 2352.78 1176.31 2355.47 1175.58C2363.57 1173.41 2371.61 1170.73 2379.36 1167.6C2381.96 1166.57 2384.89 1167.81 2385.92 1170.4C2386.97 1172.98 2385.71 1175.92 2383.13 1176.96C2375 1180.24 2366.57 1183.05 2358.08 1185.32C2357.65 1185.44 2357.22 1185.5 2356.79 1185.5ZM2229.76 1180.14C2229.18 1180.14 2228.6 1180.05 2228.03 1179.84C2219.76 1176.87 2211.59 1173.36 2203.75 1169.4C2201.26 1168.15 2200.26 1165.11 2201.52 1162.62C2202.77 1160.15 2205.81 1159.15 2208.29 1160.4C2215.77 1164.17 2223.55 1167.51 2231.44 1170.35C2234.06 1171.29 2235.42 1174.18 2234.48 1176.8C2233.74 1178.85 2231.81 1180.13 2229.76 1180.14ZM2404.56 1166.25C2402.77 1166.25 2401.04 1165.31 2400.11 1163.64C2398.76 1161.2 2399.65 1158.13 2402.09 1156.79C2409.42 1152.74 2416.57 1148.21 2423.36 1143.3C2425.62 1141.66 2428.77 1142.17 2430.4 1144.43C2432.03 1146.69 2431.53 1149.85 2429.27 1151.48C2422.15 1156.62 2414.65 1161.38 2406.97 1165.62C2406.2 1166.04 2405.37 1166.24 2404.56 1166.25ZM2446.31 1136.1C2444.94 1136.1 2443.58 1135.56 2442.58 1134.48C2440.69 1132.44 2440.81 1129.24 2442.86 1127.35C2449.01 1121.65 2454.88 1115.53 2460.29 1109.16C2462.1 1107.04 2465.28 1106.78 2467.4 1108.58C2469.53 1110.39 2469.79 1113.57 2467.98 1115.69C2462.31 1122.37 2456.16 1128.79 2449.71 1134.76C2448.74 1135.65 2447.52 1136.09 2446.31 1136.1ZM2479.64 1096.81C2478.68 1096.82 2477.71 1096.55 2476.84 1095.98C2474.52 1094.45 2473.87 1091.32 2475.41 1088.99C2480.03 1081.99 2484.25 1074.64 2487.97 1067.15C2489.21 1064.66 2492.23 1063.64 2494.73 1064.88C2497.22 1066.12 2498.24 1069.14 2497 1071.64C2493.1 1079.49 2488.67 1087.2 2483.83 1094.55C2482.86 1096.01 2481.27 1096.8 2479.64 1096.81Z" fill="#91B3FA"/>
<path d="M2183.55 1156.81C2182.58 1156.81 2181.6 1156.54 2180.73 1155.95C2177.14 1153.55 2173.61 1151.03 2170.23 1148.47C2168.01 1146.78 2167.57 1143.62 2169.26 1141.4C2170.94 1139.19 2174.1 1138.75 2176.33 1140.43C2179.55 1142.88 2182.92 1145.28 2186.34 1147.57C2188.66 1149.12 2189.27 1152.26 2187.72 1154.57C2186.75 1156.01 2185.17 1156.8 2183.55 1156.81Z" fill="#91B3FA"/>
</g>
<path d="M2187.44 1091.63C2188.13 1092.47 2189.28 1092.78 2190.3 1092.4L2219.43 1081.53C2230.97 1090.34 2244 1097.36 2258.15 1102.15L2265.41 1132.36C2265.66 1133.42 2266.56 1134.2 2267.65 1134.3L2304.76 1137.89C2305.84 1137.99 2306.87 1137.4 2307.33 1136.41L2320.23 1108.15C2335.04 1106.15 2349.17 1101.75 2362.18 1095.32L2388.69 1111.55C2389.62 1112.12 2390.81 1112.04 2391.65 1111.35L2420.42 1087.64C2421.27 1086.94 2421.57 1085.79 2421.19 1084.77L2410.33 1055.65C2419.13 1044.11 2426.16 1031.08 2430.95 1016.93L2461.15 1009.67C2462.21 1009.42 2463 1008.52 2463.1 1007.43L2466.68 970.32C2466.79 969.235 2466.19 968.203 2465.2 967.751L2436.94 954.848C2434.95 940.042 2430.55 925.909 2424.11 912.896L2440.35 886.388C2440.92 885.459 2440.84 884.271 2440.14 883.431L2416.44 854.653C2415.74 853.812 2414.59 853.504 2413.57 853.884L2384.45 864.75C2372.91 855.946 2359.88 848.92 2345.73 844.13L2338.47 813.924C2338.21 812.865 2337.31 812.083 2336.23 811.979L2299.12 808.395C2298.03 808.29 2297 808.885 2296.55 809.876L2283.65 838.135C2268.84 840.128 2254.71 844.532 2241.69 850.965L2215.19 834.728C2214.26 834.158 2213.07 834.242 2212.23 834.934L2183.45 858.643C2182.61 859.336 2182.3 860.486 2182.68 861.507L2193.55 890.631C2184.74 902.173 2177.72 915.203 2172.93 929.354L2142.72 936.611C2141.66 936.865 2140.88 937.764 2140.78 938.849L2137.19 975.962C2137.09 977.047 2137.68 978.078 2138.67 978.531L2166.93 991.434C2168.93 1006.24 2173.33 1020.37 2179.76 1033.39L2163.52 1059.89C2162.96 1060.82 2163.04 1062.01 2163.73 1062.85L2187.44 1091.63Z" fill="#91B3FA"/>
<path d="M2302.04 1011.3C2293.9 1011.34 2286 1008.78 2279.32 1003.87C2271.12 997.829 2265.75 988.953 2264.22 978.878C2261.05 958.087 2275.4 938.593 2296.19 935.422C2317.03 932.29 2336.49 946.607 2339.65 967.402C2341.19 977.478 2338.71 987.548 2332.67 995.753C2326.63 1003.96 2317.75 1009.33 2307.67 1010.86C2305.79 1011.14 2303.91 1011.29 2302.04 1011.3ZM2301.82 945.075C2300.46 945.081 2299.09 945.187 2297.71 945.395C2282.41 947.727 2271.86 962.066 2274.19 977.364C2275.32 984.772 2279.27 991.305 2285.3 995.744C2291.34 1000.19 2298.75 1002 2306.16 1000.89C2313.57 999.759 2320.1 995.812 2324.54 989.777C2328.99 983.737 2330.81 976.33 2329.68 968.917C2327.57 955.002 2315.5 945.01 2301.82 945.075Z" fill="#BDD0FB"/>
<path d="M2303.02 1067.6C2299.83 1067.62 2296.62 1067.47 2293.37 1067.16C2286.94 1066.54 2280.55 1065.27 2274.39 1063.36C2274.11 1063.28 2273.84 1063.19 2273.56 1063.1C2271.42 1062.42 2270.06 1060.45 2270.05 1058.33C2270.04 1057.81 2270.12 1057.28 2270.29 1056.76C2271.13 1054.11 2273.97 1052.66 2276.62 1053.49C2282.36 1055.32 2288.32 1056.54 2294.34 1057.12H2294.34C2294.67 1057.15 2295 1057.18 2295.33 1057.21C2309.58 1058.45 2323.6 1056.08 2336.38 1050.51C2343.31 1047.48 2349.88 1043.5 2355.91 1038.62C2355.96 1038.58 2356.01 1038.54 2356.06 1038.5C2356.21 1038.38 2356.36 1038.26 2356.51 1038.13C2374.01 1023.71 2384.86 1003.33 2387.04 980.75C2387.32 977.828 2387.45 974.916 2387.44 972.02C2387.34 952.535 2380.61 933.829 2368.05 918.584C2353.62 901.077 2333.24 890.237 2310.67 888.058C2288.1 885.888 2266.01 892.622 2248.5 907.042C2230.99 921.467 2220.15 941.847 2217.97 964.426C2217.69 967.299 2217.56 970.176 2217.57 973.043C2217.63 985.475 2220.41 997.752 2225.76 1008.99C2226.08 1009.68 2226.24 1010.41 2226.24 1011.13C2226.25 1013.02 2225.19 1014.84 2223.37 1015.71C2220.85 1016.89 2217.84 1015.83 2216.64 1013.31C2210.67 1000.74 2207.56 987.004 2207.49 973.1C2207.47 969.889 2207.62 966.671 2207.93 963.458C2210.37 938.193 2222.5 915.394 2242.09 899.255C2261.67 883.12 2286.36 875.557 2311.63 878.015C2336.9 880.453 2359.69 892.581 2375.83 912.174C2389.88 929.225 2397.42 950.153 2397.52 971.954C2397.54 975.19 2397.39 978.452 2397.08 981.718C2392.35 1030.63 2351.14 1067.38 2303.02 1067.6Z" fill="#BDD0FB"/>
<path d="M2006.71 3202.53H1763.3L1872.63 526.919L1887.74 528.797L2006.71 3202.53Z" fill="url(#paint17_linear_539_72)"/>
<path d="M2453.33 2859.77H1313.36V2974.02H2453.33V2859.77Z" fill="url(#paint18_linear_539_72)"/>
<path d="M2558.96 2974.02H1216.53V3088.27H2558.96V2974.02Z" fill="url(#paint19_linear_539_72)"/>
<path d="M2655.79 3088.27H1110.89V3202.53H2655.79V3088.27Z" fill="url(#paint20_linear_539_72)"/>
<path d="M2832.05 1118.65H1026.29V1163.95H2832.05V1118.65Z" fill="url(#paint21_linear_539_72)"/>
<path d="M548.62 1660.6L536.55 1648.73L1056.34 1120.42L1448.89 1649.62L1435.29 1659.71L1054.53 1146.4L548.62 1660.6Z" fill="url(#paint22_linear_539_72)"/>
<path d="M1056.07 1193.14C1089.24 1193.14 1116.13 1166.25 1116.13 1133.08C1116.13 1099.9 1089.24 1073.01 1056.07 1073.01C1022.89 1073.01 995.998 1099.9 995.998 1133.08C995.998 1166.25 1022.89 1193.14 1056.07 1193.14Z" fill="url(#paint23_linear_539_72)"/>
<path d="M2304.52 2105L2289.54 2097.12L2809.02 1109.71L3180.6 2082.63L3164.78 2088.67L2806.57 1150.74L2304.52 2105Z" fill="url(#paint24_linear_539_72)"/>
<path d="M1882.25 1342.34C1978.21 1342.34 2056.01 1264.55 2056.01 1168.58C2056.01 1072.62 1978.21 994.82 1882.25 994.82C1786.28 994.82 1708.49 1072.62 1708.49 1168.58C1708.49 1264.55 1786.28 1342.34 1882.25 1342.34Z" fill="url(#paint25_linear_539_72)"/>
<path d="M2793.23 1196.63C2826.4 1196.63 2853.29 1169.74 2853.29 1136.56C2853.29 1103.39 2826.4 1076.5 2793.23 1076.5C2760.05 1076.5 2733.16 1103.39 2733.16 1136.56C2733.16 1169.74 2760.05 1196.63 2793.23 1196.63Z" fill="url(#paint26_linear_539_72)"/>
<path d="M2735.73 2603.5C3005.96 2603.5 3225.03 2384.43 3225.03 2114.19H2246.43C2246.43 2384.43 2465.49 2603.5 2735.73 2603.5Z" fill="url(#paint27_linear_539_72)"/>
<path d="M3252.34 2138.31H2207.13C2201.14 2138.31 2196.24 2133.41 2196.24 2127.42V2074.69C2196.24 2068.7 2201.14 2063.8 2207.13 2063.8H3252.34C3258.33 2063.8 3263.23 2068.7 3263.23 2074.69V2127.42C3263.23 2133.41 3258.33 2138.31 3252.34 2138.31Z" fill="url(#paint28_linear_539_72)"/>
<path d="M990.837 2190.67C1261.07 2190.67 1480.14 1971.6 1480.14 1701.37H501.536C501.536 1971.6 720.603 2190.67 990.837 2190.67Z" fill="url(#paint29_linear_539_72)"/>
<path d="M1507.45 1725.49H462.245C456.254 1725.49 451.353 1720.59 451.353 1714.6V1661.87C451.353 1655.88 456.254 1650.98 462.245 1650.98H1507.45C1513.44 1650.98 1518.35 1655.88 1518.35 1661.87V1714.6C1518.35 1720.59 1513.44 1725.49 1507.45 1725.49Z" fill="url(#paint30_linear_539_72)"/>
<path d="M1794.97 2269.02C1794.97 2269.02 1733.97 2409.79 1696.43 2391.02C1658.9 2372.25 1630.74 2217.41 1630.74 2217.41C1630.74 2217.41 1748.05 2189.25 1794.97 2269.02Z" fill="url(#paint31_linear_539_72)"/>
<path d="M1582.58 3142.58C1582.58 3142.58 1577.48 3171.45 1574.99 3200.03C1574.01 3211.19 1582.62 3220.89 1593.82 3221.36C1631.88 3222.94 1713.28 3226.03 1742.49 3224.72C1746.88 3224.53 1749.76 3220.03 1748.13 3215.95C1746.77 3212.52 1744.14 3209.76 1740.8 3208.22L1606.33 3146.42L1582.58 3142.58Z" fill="url(#paint32_linear_539_72)"/>
<path d="M1578.41 3125.62L1582.51 3160.15C1582.51 3160.15 1606.06 3171.11 1622.15 3158.77L1612.39 3120.28L1578.41 3125.62Z" fill="url(#paint33_linear_539_72)"/>
<path d="M1581.49 2476.41C1579.72 2485.43 1571.99 2926.42 1619.13 3124.04C1619.9 3127.26 1618.26 3130.59 1615.19 3131.84C1607.96 3134.8 1593.79 3139.07 1576.8 3139.64C1571.54 3139.82 1566.82 3136.4 1565.34 3131.35C1551.87 3085.5 1487.3 2855.77 1478.88 2636.32C1469.46 2391.11 1478.88 2627.97 1478.88 2627.97L1484.4 2476.4L1581.49 2476.41Z" fill="url(#paint34_linear_539_72)"/>
<path d="M1427.91 3157.64C1427.91 3157.64 1419.79 3172.21 1411.93 3210.94C1410.51 3217.93 1415.4 3224.63 1422.5 3225.33C1435.07 3226.56 1454.41 3228.15 1469.91 3228.04C1477.05 3228 1482.62 3221.78 1481.76 3214.68C1480.05 3200.55 1474.7 3177.36 1458.18 3159.28L1427.91 3157.64Z" fill="url(#paint35_linear_539_72)"/>
<path d="M1420.78 3113.22L1430.35 3165.45C1430.35 3165.45 1439.82 3172.49 1458.54 3167.38L1453.97 3111.2L1420.78 3113.22Z" fill="url(#paint36_linear_539_72)"/>
<path d="M1394.91 2489.95C1356.36 2722.61 1403.28 3065.01 1419.1 3132.02C1420.07 3136.12 1423.38 3139.27 1427.54 3139.95C1434.6 3141.13 1446.23 3142.08 1457.69 3138.75C1461.64 3137.6 1464.42 3134.04 1464.58 3129.93C1466.7 3075.75 1462.88 2743.15 1498.8 2611.7C1500.62 2605.04 1504.69 2599.23 1510.32 2595.23L1580.04 2545.66L1585.39 2465.54L1394.91 2489.95Z" fill="url(#paint37_linear_539_72)"/>
<path d="M1644.82 2057.87C1504.05 2043.79 1397.56 2079.42 1397.56 2079.42C1363.12 2280.37 1391.53 2512.15 1391.53 2512.15C1480.98 2535.6 1581.88 2497.81 1581.88 2497.81C1596.74 2413.81 1666.11 2177.44 1666.11 2177.44C1722.56 2170.43 1680.28 2061.42 1644.82 2057.87Z" fill="url(#paint38_linear_539_72)"/>
<path d="M1441.87 2191.29L1397.56 2079.42C1397.56 2079.42 1289.64 2152.74 1271.89 2245.71C1292.29 2247.21 1329.39 2252.52 1365.71 2270.85C1373.69 2226.96 1441.87 2191.29 1441.87 2191.29Z" fill="url(#paint39_linear_539_72)"/>
<path d="M1544.48 2288.24C1544.48 2288.24 1414.24 2365.03 1373.36 2306.56C1364.87 2294.42 1362.84 2282.36 1364.93 2270.85C1328.61 2252.52 1291.51 2247.21 1271.12 2245.71C1265.77 2273.74 1268.6 2303.55 1285.07 2333.67C1356.68 2464.67 1551.44 2326.43 1551.44 2326.43L1544.48 2288.24Z" fill="url(#paint40_linear_539_72)"/>
<path d="M1531 2383.19L1597.13 2152.26C1597.88 2149.64 1600.12 2147.73 1602.83 2147.41C1614.81 2146.01 1649.52 2142.09 1689.61 2138.7C1737.89 2134.62 1793.96 2131.31 1827.46 2134.12C1832.23 2134.52 1835.11 2139.56 1832.99 2143.84C1813.93 2182.39 1735.56 2339.19 1696.31 2390.56C1695.01 2392.26 1693 2393.25 1690.86 2393.23L1537.44 2391.81C1532.97 2391.76 1529.78 2387.48 1531 2383.19Z" fill="url(#paint41_linear_539_72)"/>
<path d="M1696.47 2118.68L1744.41 2110.69C1746.96 2110.27 1749.05 2112.7 1748.24 2115.16L1743.5 2129.54C1743.08 2130.8 1741.99 2131.7 1740.68 2131.88L1694.55 2138.04C1692.16 2138.36 1690.19 2136.19 1690.74 2133.84L1693.68 2121.29C1694 2119.94 1695.1 2118.91 1696.47 2118.68Z" fill="#91B3FA"/>
<path d="M1660.57 2159.27L1664.52 2138.69C1664.91 2136.63 1666.62 2135.07 1668.71 2134.86L1765.54 2125.03C1768.8 2124.7 1771.41 2127.69 1770.64 2130.87L1764.49 2156.51C1764 2158.56 1762.21 2160.04 1760.1 2160.15L1665.48 2164.91C1662.4 2165.07 1659.99 2162.29 1660.57 2159.27Z" fill="#7D97F4"/>
<path d="M1546.98 2327.39C1546.98 2327.39 1537.77 2289.52 1541.49 2276.08C1545.2 2262.64 1552.4 2245.37 1576.4 2249.2C1600.39 2253.04 1628.7 2263.15 1628.7 2263.15C1628.7 2263.15 1627.27 2280.66 1609.03 2275.01L1620.34 2283.76C1620.34 2283.76 1618.73 2297.77 1603.32 2290.29L1613.84 2301.89C1613.84 2301.89 1607.22 2313.4 1595.89 2306.02C1584.56 2298.64 1579.12 2331.96 1546.98 2327.39Z" fill="url(#paint42_linear_539_72)"/>
<path d="M1792.85 2271.04C1792.85 2271.04 1820.77 2243.84 1824.76 2230.49C1828.75 2217.13 1831.83 2198.66 1809.46 2189.17C1787.09 2179.67 1757.74 2173.2 1757.74 2173.2C1757.74 2173.2 1749.65 2188.79 1768.1 2193.69L1753.87 2195.1C1753.87 2195.1 1747.8 2207.83 1764.83 2209.67L1749.75 2213.92C1749.75 2213.92 1749.24 2227.18 1762.76 2226.95C1776.29 2226.72 1763.19 2257.83 1792.85 2271.04Z" fill="url(#paint43_linear_539_72)"/>
<path d="M1537.62 1964.02L1500.86 2070.34C1500.25 2072.1 1500.98 2074.05 1502.61 2074.95C1512.63 2080.49 1548.73 2096.5 1592.24 2068.92C1596.77 2066.05 1599.85 2061.36 1600.54 2056.04L1612.45 1964.02H1537.62Z" fill="url(#paint44_linear_539_72)"/>
<path d="M1617.61 1865.58C1617.61 1865.58 1657.98 1941.57 1652.8 1972.26C1647.63 2002.96 1597.6 2000.75 1553.91 1975.82L1523.38 1893.77L1617.61 1865.58Z" fill="url(#paint45_linear_539_72)"/>
<path d="M1555.84 1935.53C1557.62 1934.74 1558.27 1932.57 1557.21 1930.94C1553.97 1926 1547.91 1915.92 1545.98 1907.1C1545.98 1907.1 1538.72 1902.45 1564.45 1896.29C1590.18 1890.13 1628.54 1880.58 1636.61 1858.68C1644.47 1837.33 1623.81 1783.63 1590.85 1826.41C1589.6 1828.04 1587.14 1828.08 1585.89 1826.45C1580.49 1819.42 1566.28 1804.82 1546.56 1813.67C1528.1 1821.95 1526.03 1835.47 1526.28 1842.29C1526.35 1844.3 1524.56 1845.85 1522.59 1845.48C1513.26 1843.7 1490.87 1842.17 1480.42 1865.14C1471.81 1884.06 1477.41 1894.77 1482.5 1900.01C1484.15 1901.7 1483.43 1904.5 1481.16 1905.19C1475.03 1907.07 1467.11 1912.27 1467.91 1926.64C1469 1946.5 1491.21 1944.75 1497.53 1943.84C1498.57 1943.69 1499.61 1944.05 1500.31 1944.82C1505.73 1950.82 1530.16 1976.3 1556.59 1979.37C1558.88 1979.63 1560.66 1977.37 1559.91 1975.2L1548.47 1941.94C1547.94 1940.4 1548.67 1938.7 1550.17 1938.04L1555.84 1935.53Z" fill="url(#paint46_linear_539_72)"/>
<path d="M1560.44 1940.25C1560.44 1940.25 1531.7 1920.53 1529.6 1937.13C1527.5 1953.74 1555.48 1961.19 1569.34 1955L1560.44 1940.25Z" fill="url(#paint47_linear_539_72)"/>
<path d="M1318.37 1981.16C1316.53 1977.63 1311.31 1978.18 1310.24 1982.02C1306.29 1996.22 1296.75 2021 1276.71 2029.8C1275.7 2030.25 1274.74 2030.7 1273.82 2031.15C1272.91 2028.42 1272.9 2025.26 1275.07 2021.93C1281.3 2012.41 1270.06 1999.41 1270.06 1999.41C1270.06 1999.41 1269.31 2010.86 1260.61 2018.07C1253.11 2024.28 1249.51 2038.1 1254.63 2049.44C1265.48 2091.57 1281.72 2147.28 1218.46 2187.98C1155.2 2228.68 1066.11 2111.17 1066.11 2111.17L1110.33 2251.34C1110.33 2251.34 1178.58 2301.7 1257.96 2230.88C1337.34 2160.07 1284.72 2057.02 1284.72 2057.02C1284.72 2057.02 1345.27 2032.59 1318.37 1981.16Z" fill="url(#paint48_linear_539_72)"/>
<path d="M1055.04 1905.22C1055.04 1905.22 1073.36 1823.01 979.196 1844.77C979.196 1844.77 933.486 1837.3 931.162 1880.44C931.162 1880.44 901.697 1899.86 923.271 1937.2C923.271 1937.2 835.705 1903.37 797.552 1980.13C759.399 2056.88 794.469 2099.11 831.234 2110.11C831.234 2110.11 801.448 2125.07 815.547 2158.84C829.646 2192.61 901.046 2216.41 943.224 2175.34C943.224 2175.34 1063.24 2191.2 1060.84 2106.43C1060.84 2106.43 1116.66 2070.38 1058.03 2000.33C999.4 1930.27 1055.04 1905.22 1055.04 1905.22Z" fill="url(#paint49_linear_539_72)"/>
<path d="M1060.21 2095.77C1041.29 2090.1 986.19 2079.62 933.783 2127.98C924.895 2136.19 921.263 2148.65 924.432 2160.32C938.508 2212.14 975.647 2365.25 943.082 2431.49C943.082 2431.49 1000.47 2494.75 1063.07 2443.77C1063.07 2443.77 1091.16 2321.34 1127.95 2267.6C1153.35 2230.5 1087.45 2128.27 1070.77 2103.57C1068.25 2099.83 1064.53 2097.06 1060.21 2095.77Z" fill="url(#paint50_linear_539_72)"/>
<path d="M1007.96 1992.81C1007.96 1992.81 979.977 2071.97 977.871 2106.89C977.871 2106.89 1008.8 2120.96 1037.95 2097.22C1037.95 2097.22 1041 2018.15 1045.42 2004L1007.96 1992.81Z" fill="url(#paint51_linear_539_72)"/>
<path d="M1046.83 1884.88C1046.83 1884.88 1120.03 1987.32 1076.28 2017.07C1032.52 2046.83 980.415 1974.03 980.415 1974.03C980.415 1974.03 963.43 1917.96 981.191 1898.94C998.949 1879.92 1046.83 1884.88 1046.83 1884.88Z" fill="url(#paint52_linear_539_72)"/>
<path d="M1012.95 1860.4C1012.95 1860.4 1046.58 1868.37 1051.29 1883.59C1056.01 1898.8 1003.61 1912.91 988.926 1913.6L977.096 1975C977.096 1975 942.125 1917.24 955.978 1883.88C969.83 1850.53 1012.95 1860.4 1012.95 1860.4Z" fill="url(#paint53_linear_539_72)"/>
<path d="M994.604 1966.49C994.604 1966.49 966.114 1933.5 954.781 1955.01C943.448 1976.52 980.426 1992.67 993.226 1982.11L994.604 1966.49Z" fill="url(#paint54_linear_539_72)"/>
<path d="M1136.16 2700.8C1135.94 2706.36 1145.7 2750.44 1151.01 2773.96C1153.15 2783.42 1151.66 2793.32 1146.84 2801.74L962.93 3111.28C960.705 3115.02 959.085 3119.08 958.101 3123.32C954.731 3137.84 947.74 3173.44 951.39 3205.83L960.904 3225.59L919.756 3216.25L910.804 3105.75L922.453 3098.64C932.516 3092.51 940.352 3083.33 944.838 3072.44C961.468 3032.04 1002.76 2929.21 1013.41 2879.1C1025.51 2822.15 1088.75 2775.89 1088.75 2775.89L1077.64 2749.62L1136.16 2700.8Z" fill="url(#paint55_linear_539_72)"/>
<path d="M874.025 3178.22C874.025 3178.22 896.245 3142.99 898.859 3129.28C901.473 3115.57 908.751 3091.35 922.451 3098.64C922.451 3098.64 928.906 3165.26 926.681 3191.28C924.456 3217.31 956.105 3216.48 956.105 3216.48C956.105 3216.48 964.828 3217.7 971.216 3224.09C975.627 3228.5 972.472 3236.15 966.249 3236.55C955.892 3237.22 939.441 3237.39 922.167 3234.05C916.13 3232.89 911.655 3227.75 911.289 3221.61L906.729 3144.95L878.7 3180.34L874.025 3178.22Z" fill="url(#paint56_linear_539_72)"/>
<path d="M1026.29 2750.11C1026.29 2750.11 1019.8 3026.99 1018.92 3066.31C1018.05 3105.63 1025.13 3192.78 1064.55 3218.83L1047.4 3231.53C1047.4 3231.53 1025.96 3213.31 1005.02 3178.24C981.493 3138.85 974.379 3131.65 974.379 3131.65L982.186 3115.66C985.605 3108.66 986.609 3100.75 985.035 3093.12C976.528 3051.89 948.109 2914.75 940.357 2885.22C931.206 2850.35 930.555 2803.8 962.391 2764.83C994.228 2725.86 1026.29 2750.11 1026.29 2750.11Z" fill="url(#paint57_linear_539_72)"/>
<path d="M989.887 3244.01C988.664 3244.02 987.625 3243.14 987.452 3241.93C986.139 3232.7 980.679 3195.69 976.21 3186.11C971.09 3175.14 954.369 3128.95 976.219 3125.03C976.219 3125.03 1030.54 3204.39 1040.97 3215.09C1051.39 3225.79 1064.55 3218.83 1064.55 3218.83C1064.55 3218.83 1074.71 3221.83 1082.38 3231.62C1086.02 3236.28 1082.63 3243.12 1076.71 3243.18L1040.12 3243.53C1029.49 3243.63 1019.94 3237.17 1015.99 3227.31C1009.55 3211.22 998.483 3187.63 985.589 3177.16L992.289 3241.31C992.439 3242.74 991.325 3243.99 989.887 3244.01Z" fill="url(#paint58_linear_539_72)"/>
<path d="M1071.73 2413.91C1071.73 2413.91 1063.49 2440.19 1076.15 2483.48L1154.73 2757.87C1155.96 2762.18 1153.64 2766.7 1149.42 2768.21C1125.91 2776.65 1048.65 2800.49 943.176 2793.22C937.866 2792.85 933.413 2789.09 932.259 2783.89C925.309 2752.61 901.598 2645.88 896.715 2623.95C878.112 2540.39 857.34 2450.28 948.718 2395.79C990.833 2413.83 1030.11 2424.46 1071.73 2413.91Z" fill="url(#paint59_linear_539_72)"/>
<path d="M926.285 2138.33C926.285 2138.33 836.882 2212.62 814.696 2314.15C792.509 2415.67 945.336 2426.46 945.336 2426.46C945.336 2426.46 966.083 2403.3 990.714 2411.56C1015.34 2419.82 992.621 2371.13 963.802 2371.25C934.984 2371.38 948.334 2394.17 907.566 2375.7C867.853 2357.71 843.306 2302.08 944.632 2217.74C950.506 2212.86 955.192 2206.62 958.014 2199.52C977.698 2149.97 962.085 2117.49 926.285 2138.33Z" fill="url(#paint60_linear_539_72)"/>
<path d="M2064.92 2461.16L2169.44 2462.45L2132.86 2428.02C2123.77 2419.46 2109.89 2418.07 2099.39 2424.88C2093.25 2428.87 2086.58 2434.28 2080.81 2441.44C2080.81 2441.44 2015.61 2417.61 1984 2364.3C1974.16 2378.93 1962.65 2398.83 1952.67 2423.59C1981.01 2440.23 2017.74 2453.31 2064.92 2461.16Z" fill="url(#paint61_linear_539_72)"/>
<path d="M2200.85 3206.57C2173.02 3208.97 2124.72 3212.88 2086.65 3214.56C2063.76 3215.56 2050.59 3213.32 2043 3210.29C2043.01 3211.14 2043.04 3211.95 2043.07 3212.7C2043.25 3216.71 2046.51 3219.91 2050.55 3220.14C2122.49 3224.15 2179.71 3221.53 2200.08 3220.29C2204.29 3220.03 2206.8 3215.45 2204.65 3211.86C2203.57 3210.07 2202.26 3208.31 2200.85 3206.57Z" fill="url(#paint62_linear_539_72)"/>
<path d="M2086.65 3214.56C2124.73 3212.88 2173.02 3208.98 2200.85 3206.57C2173.49 3173 2086.65 3150.38 2086.65 3150.38H2062.13C2045.26 3174.69 2042.81 3197.84 2043 3210.29C2050.59 3213.32 2063.76 3215.57 2086.65 3214.56Z" fill="url(#paint63_linear_539_72)"/>
<path d="M2058 3110.34L2060.29 3155.76C2060.54 3160.68 2064.22 3164.81 2069.15 3165.51C2074.05 3166.21 2080.61 3166.3 2087.57 3163.99C2091.85 3162.56 2095.03 3158.95 2095.82 3154.55L2103.75 3110.34L2058 3110.34Z" fill="url(#paint64_linear_539_72)"/>
<path d="M1773.34 3245.61C1761.28 3243.65 1755.82 3236.35 1753.53 3228.55C1753.51 3228.62 1753.5 3228.69 1753.48 3228.76C1751.71 3236.99 1755.82 3245.52 1764.05 3249.58C1774 3254.48 1784.87 3255.32 1793.31 3254.91C1802.37 3254.48 1810.68 3250.11 1815.25 3243.13L1815.32 3243.02C1806.23 3248.26 1793.47 3248.88 1773.34 3245.61Z" fill="url(#paint65_linear_539_72)"/>
<path d="M1830.24 3124.33H1810.02C1779.21 3123.6 1759.86 3199.25 1753.53 3228.55C1755.82 3236.35 1761.28 3243.65 1773.35 3245.61C1793.47 3248.88 1806.23 3248.26 1815.32 3243.02C1831.97 3217.52 1840.22 3180.18 1844.19 3158.38C1848.7 3133.59 1830.24 3124.33 1830.24 3124.33Z" fill="url(#paint66_linear_539_72)"/>
<path d="M1812.61 3082.18L1801.38 3126.85C1800.01 3132.33 1802.63 3137.99 1807.69 3140.59C1813.97 3143.81 1822.82 3147.2 1830.95 3146.22C1834.77 3145.76 1837.95 3143.07 1839.21 3139.47L1855.7 3092.47L1812.61 3082.18Z" fill="url(#paint67_linear_539_72)"/>
<path d="M2207.7 2493.85C2207.7 2493.85 2107.33 3121.23 2108.98 3124.68C2108.98 3124.68 2081.26 3137.28 2051.04 3126.28C2051.04 3126.28 2060.12 2790.9 2081.39 2662.31C2081.39 2662.31 1910.1 2962.07 1855.7 3111.44C1855.7 3111.44 1827.33 3108.06 1803.84 3092.6C1803.84 3092.6 1988.28 2553.04 2037.48 2481.18L2207.7 2493.85Z" fill="url(#paint68_linear_539_72)"/>
<path d="M2085.39 2661.25C2084.46 2661.25 2083.51 2661 2082.66 2660.46C2080.24 2658.95 2079.51 2655.76 2081.02 2653.34L2118.53 2593.44C2119.28 2592.23 2120.49 2591.39 2121.89 2591.11L2149.49 2585.56C2152.28 2584.98 2155.01 2586.81 2155.57 2589.6C2156.13 2592.4 2154.32 2595.12 2151.53 2595.68L2126.1 2600.8L2089.78 2658.82C2088.79 2660.39 2087.11 2661.25 2085.39 2661.25Z" fill="url(#paint69_linear_539_72)"/>
<path d="M2668.27 1879.52C2668.27 1879.52 2600.55 1894.45 2559.36 1913.47C2551.18 1917.25 2544.65 1923.85 2540.93 1931.99C2528.61 1958.98 2491.75 2026.65 2420.27 2058.95C2430.57 2072.61 2447.14 2101.03 2454.36 2148.8C2497.29 2116.85 2534.36 2063.48 2552.15 1975.96C2552.15 1975.96 2565.7 1983.33 2582.61 1975.12C2591.54 1970.78 2601.85 1964.63 2609.59 1959.79C2617.3 1954.97 2623.05 1947.48 2625.28 1938.72C2628.22 1927.17 2626.49 1917 2626.49 1906.1L2661.3 1895.31C2661.3 1895.31 2671.77 1891.36 2668.27 1879.52Z" fill="url(#paint70_linear_539_72)"/>
<path d="M2454.36 2148.8C2447.14 2101.03 2430.57 2072.61 2420.27 2058.95C2375.87 2079.01 2318.1 2085.42 2244.55 2059.94C2237.77 2057.59 2230.69 2056.21 2223.52 2055.79C2184.36 2053.49 2055.33 2049.31 1948.55 2084.58C1926.08 2092.01 1907.88 2108.62 1898.5 2130.14C1869.62 2196.43 1822.85 2347.38 1952.67 2423.59C1962.64 2398.83 1974.16 2378.93 1984 2364.3C1963.09 2329.04 1956.9 2280.88 1994 2218.16C2021.05 2291.2 2033.74 2397.78 2036.39 2444.95C2037.27 2460.48 2034.54 2475.98 2028.45 2490.32L2027.78 2491.88C2026.48 2494.95 2028.28 2498.48 2031.56 2499.21C2104.64 2515.63 2180.65 2511.17 2203.36 2509.29C2207.41 2508.96 2210.78 2506.06 2211.71 2502.14C2247.25 2352.4 2247.33 2250.25 2238.63 2185.68C2271.87 2193.11 2373.53 2208.96 2454.36 2148.8Z" fill="url(#paint71_linear_539_72)"/>
<path d="M2238.77 2191.91C2236.22 2191.91 2234 2190.02 2233.66 2187.42C2225.39 2125 2208.63 2097.74 2208.47 2097.47C2206.95 2095.06 2207.67 2091.87 2210.08 2090.35C2212.49 2088.84 2215.67 2089.54 2217.19 2091.94C2217.93 2093.1 2235.29 2121.05 2243.9 2186.07C2244.27 2188.89 2242.28 2191.49 2239.46 2191.86C2239.23 2191.89 2239 2191.91 2238.77 2191.91Z" fill="url(#paint72_linear_539_72)"/>
<path d="M2058.42 1968.56C2058.42 1968.56 2051.03 2046.73 2044.52 2069.85C2043.53 2073.36 2045.05 2077.06 2048.24 2078.88C2059.29 2085.2 2085.79 2095.49 2122.03 2077.73C2127.9 2074.85 2131.43 2068.73 2131.16 2062.25L2127.97 1986.71L2058.42 1968.56Z" fill="url(#paint73_linear_539_72)"/>
<path d="M2129.56 1868.55C2129.56 1868.55 2153.21 1922.88 2154.8 1951.39C2156.38 1979.9 2162.53 1998.4 2129.56 2004.14C2096.59 2009.88 2068.82 1993.46 2053.78 1965.06C2053.78 1965.06 2030.2 1921.3 2035.49 1903.37C2040.78 1885.45 2129.56 1868.55 2129.56 1868.55Z" fill="url(#paint74_linear_539_72)"/>
<path d="M2065.04 1944.64L2066.92 1943.81C2069.31 1942.76 2070.33 1939.91 2069.13 1937.6C2064.48 1928.61 2055.42 1908.03 2067.13 1903.23C2082.22 1897.04 2141.98 1884.85 2154.88 1863.65C2167.27 1843.27 2156.29 1816.96 2139.79 1809.47C2138.68 1808.97 2137.38 1809.37 2136.81 1810.44L2135.44 1813.04C2134.5 1814.82 2131.87 1814.55 2131.31 1812.62C2130.77 1810.76 2128.3 1810.4 2127.27 1812.04C2123.31 1818.39 2112.61 1828.67 2083.99 1833.95C2043.32 1841.46 2016.43 1857.92 2015.76 1886.02C2015.72 1887.81 2013.82 1888.8 2012.29 1887.87C2009.29 1886.04 2004.49 1885.18 1998.06 1890.58C1986.89 1899.97 1991.46 1924.33 2015.95 1944.38C2017.11 1945.33 2017.1 1947.14 2015.84 1947.96C2011.41 1950.85 2004.79 1957.73 2021.93 1966.89C2039.67 1976.37 2052.91 1975.6 2058.01 1974.75C2059.28 1974.54 2060.1 1973.32 2059.82 1972.06L2054.38 1947.36C2054.07 1945.96 2055.13 1944.64 2056.57 1944.64H2065.04Z" fill="url(#paint75_linear_539_72)"/>
<path d="M2066.07 1949.85C2066.07 1949.85 2057.05 1915.15 2041.49 1924.88C2025.93 1934.61 2049.56 1963.76 2062.07 1965.06L2066.07 1949.85Z" fill="url(#paint76_linear_539_72)"/>
<path d="M2570.22 1970.09C2569.07 1970.09 2567.92 1969.71 2566.96 1968.93C2564.75 1967.13 2564.41 1963.88 2566.21 1961.67C2568.8 1958.48 2591.77 1930.4 2600.88 1925.26C2603.48 1923.79 2604.78 1922.48 2605.19 1921.63L2581.35 1926.4L2566.66 1939.01C2564.49 1940.87 2561.23 1940.62 2559.37 1938.46C2557.52 1936.3 2557.77 1933.03 2559.93 1931.18L2575.65 1917.69C2576.32 1917.11 2577.13 1916.71 2578 1916.54L2607.56 1910.62C2609.61 1910.19 2611.69 1911.07 2612.86 1912.8C2615.35 1916.5 2616.19 1920.15 2615.37 1923.66C2614.4 1927.76 2611.33 1931.22 2605.96 1934.25C2600.37 1937.4 2583.53 1956.74 2574.23 1968.18C2573.2 1969.44 2571.72 1970.09 2570.22 1970.09Z" fill="#F8A570"/>
<path d="M2021.14 2419.07C2021.14 2419.07 2030.04 2404.25 2050.79 2404.25C2071.54 2404.25 2095.25 2442.78 2095.25 2442.78C2095.25 2442.78 2062.64 2457.6 2050.79 2469.46C2038.93 2481.32 2021.14 2442.78 2021.14 2419.07Z" fill="url(#paint77_linear_539_72)"/>
</g>
<defs>
<linearGradient id="paint0_linear_539_72" x1="3465.92" y1="3687.58" x2="1515.39" y2="1611.21" gradientUnits="userSpaceOnUse">
<stop stop-color="#DAE3FE"/>
<stop offset="1" stop-color="#E9EFFD"/>
</linearGradient>
<linearGradient id="paint1_linear_539_72" x1="2763.5" y1="1857.64" x2="2768.02" y2="1430.96" gradientUnits="userSpaceOnUse">
<stop stop-color="#09005D"/>
<stop offset="1" stop-color="#1A0F91"/>
</linearGradient>
<linearGradient id="paint2_linear_539_72" x1="2684.97" y1="1413.18" x2="2707.55" y2="1632.16" gradientUnits="userSpaceOnUse">
<stop stop-color="#4F52FF"/>
<stop offset="1" stop-color="#4042E2"/>
</linearGradient>
<linearGradient id="paint3_linear_539_72" x1="2697.11" y1="1411.93" x2="2719.68" y2="1630.91" gradientUnits="userSpaceOnUse">
<stop stop-color="#4F52FF"/>
<stop offset="1" stop-color="#4042E2"/>
</linearGradient>
<linearGradient id="paint4_linear_539_72" x1="2698.8" y1="1411.75" x2="2721.38" y2="1630.74" gradientUnits="userSpaceOnUse">
<stop stop-color="#4F52FF"/>
<stop offset="1" stop-color="#4042E2"/>
</linearGradient>
<linearGradient id="paint5_linear_539_72" x1="2709.23" y1="1410.68" x2="2731.81" y2="1629.66" gradientUnits="userSpaceOnUse">
<stop stop-color="#4F52FF"/>
<stop offset="1" stop-color="#4042E2"/>
</linearGradient>
<linearGradient id="paint6_linear_539_72" x1="2789.71" y1="1997.76" x2="2749.08" y2="914.136" gradientUnits="userSpaceOnUse">
<stop stop-color="#FF928E"/>
<stop offset="1" stop-color="#FE7062"/>
</linearGradient>
<linearGradient id="paint7_linear_539_72" x1="2800.49" y1="65.7418" x2="2820.81" y2="832.706" gradientUnits="userSpaceOnUse">
<stop stop-color="#E1473D"/>
<stop offset="1" stop-color="#E9605A"/>
</linearGradient>
<linearGradient id="paint8_linear_539_72" x1="2633.55" y1="70.1626" x2="2653.87" y2="837.127" gradientUnits="userSpaceOnUse">
<stop stop-color="#E1473D"/>
<stop offset="1" stop-color="#E9605A"/>
</linearGradient>
<linearGradient id="paint9_linear_539_72" x1="984.725" y1="1460" x2="1007.3" y2="1114.59" gradientUnits="userSpaceOnUse">
<stop stop-color="#09005D"/>
<stop offset="1" stop-color="#1A0F91"/>
</linearGradient>
<linearGradient id="paint10_linear_539_72" x1="950.309" y1="1234.39" x2="963.854" y2="1498.53" gradientUnits="userSpaceOnUse">
<stop stop-color="#4F52FF"/>
<stop offset="1" stop-color="#4042E2"/>
</linearGradient>
<linearGradient id="paint11_linear_539_72" x1="959.182" y1="1233.94" x2="972.728" y2="1498.07" gradientUnits="userSpaceOnUse">
<stop stop-color="#4F52FF"/>
<stop offset="1" stop-color="#4042E2"/>
</linearGradient>
<linearGradient id="paint12_linear_539_72" x1="958.847" y1="1233.96" x2="972.392" y2="1498.09" gradientUnits="userSpaceOnUse">
<stop stop-color="#4F52FF"/>
<stop offset="1" stop-color="#4042E2"/>
</linearGradient>
<linearGradient id="paint13_linear_539_72" x1="966.6" y1="1233.56" x2="980.145" y2="1497.69" gradientUnits="userSpaceOnUse">
<stop stop-color="#4F52FF"/>
<stop offset="1" stop-color="#4042E2"/>
</linearGradient>
<linearGradient id="paint14_linear_539_72" x1="1024.16" y1="1623.59" x2="956.434" y2="587.371" gradientUnits="userSpaceOnUse">
<stop stop-color="#FF928E"/>
<stop offset="1" stop-color="#FE7062"/>
</linearGradient>
<linearGradient id="paint15_linear_539_72" x1="1020.07" y1="112.903" x2="1040.39" y2="879.869" gradientUnits="userSpaceOnUse">
<stop stop-color="#E1473D"/>
<stop offset="1" stop-color="#E9605A"/>
</linearGradient>
<linearGradient id="paint16_linear_539_72" x1="869.162" y1="116.903" x2="889.479" y2="883.869" gradientUnits="userSpaceOnUse">
<stop stop-color="#E1473D"/>
<stop offset="1" stop-color="#E9605A"/>
</linearGradient>
<linearGradient id="paint17_linear_539_72" x1="1948.36" y1="415.049" x2="1897.57" y2="2649.91" gradientUnits="userSpaceOnUse">
<stop stop-color="#4F52FF"/>
<stop offset="1" stop-color="#4042E2"/>
</linearGradient>
<linearGradient id="paint18_linear_539_72" x1="1889.57" y1="2834.62" x2="1878.29" y2="2983.62" gradientUnits="userSpaceOnUse">
<stop stop-color="#4F52FF"/>
<stop offset="1" stop-color="#4042E2"/>
</linearGradient>
<linearGradient id="paint19_linear_539_72" x1="1890.23" y1="2927.76" x2="1885.72" y2="3115.13" gradientUnits="userSpaceOnUse">
<stop stop-color="#4F52FF"/>
<stop offset="1" stop-color="#4042E2"/>
</linearGradient>
<linearGradient id="paint20_linear_539_72" x1="1887.11" y1="3063.8" x2="1880.34" y2="3210.54" gradientUnits="userSpaceOnUse">
<stop stop-color="#4F52FF"/>
<stop offset="1" stop-color="#4042E2"/>
</linearGradient>
<linearGradient id="paint21_linear_539_72" x1="1026.29" y1="1141.3" x2="2832.05" y2="1141.3" gradientUnits="userSpaceOnUse">
<stop stop-color="#4F52FF"/>
<stop offset="1" stop-color="#4042E2"/>
</linearGradient>
<linearGradient id="paint22_linear_539_72" x1="536.55" y1="1390.51" x2="1448.89" y2="1390.51" gradientUnits="userSpaceOnUse">
<stop stop-color="#4F52FF"/>
<stop offset="1" stop-color="#4042E2"/>
</linearGradient>
<linearGradient id="paint23_linear_539_72" x1="995.998" y1="1133.08" x2="1116.13" y2="1133.08" gradientUnits="userSpaceOnUse">
<stop stop-color="#4F52FF"/>
<stop offset="1" stop-color="#4042E2"/>
</linearGradient>
<linearGradient id="paint24_linear_539_72" x1="3098.55" y1="1232.44" x2="2664.05" y2="2257.41" gradientUnits="userSpaceOnUse">
<stop stop-color="#4F52FF"/>
<stop offset="1" stop-color="#4042E2"/>
</linearGradient>
<linearGradient id="paint25_linear_539_72" x1="1987.69" y1="976.446" x2="1759.12" y2="1392.94" gradientUnits="userSpaceOnUse">
<stop stop-color="#4F52FF"/>
<stop offset="1" stop-color="#4042E2"/>
</linearGradient>
<linearGradient id="paint26_linear_539_72" x1="2733.16" y1="1136.56" x2="2853.29" y2="1136.56" gradientUnits="userSpaceOnUse">
<stop stop-color="#4F52FF"/>
<stop offset="1" stop-color="#4042E2"/>
</linearGradient>
<linearGradient id="paint27_linear_539_72" x1="2775.99" y1="2806.03" x2="2735.36" y2="2115.25" gradientUnits="userSpaceOnUse">
<stop stop-color="#4F52FF"/>
<stop offset="1" stop-color="#4042E2"/>
</linearGradient>
<linearGradient id="paint28_linear_539_72" x1="2729.74" y1="1821.37" x2="2729.74" y2="1049.32" gradientUnits="userSpaceOnUse">
<stop stop-color="#4F52FF"/>
<stop offset="1" stop-color="#4042E2"/>
</linearGradient>
<linearGradient id="paint29_linear_539_72" x1="1031.75" y1="2278.59" x2="986.04" y2="1643.68" gradientUnits="userSpaceOnUse">
<stop stop-color="#4F52FF"/>
<stop offset="1" stop-color="#4042E2"/>
</linearGradient>
<linearGradient id="paint30_linear_539_72" x1="451.353" y1="1688.23" x2="1518.35" y2="1688.23" gradientUnits="userSpaceOnUse">
<stop stop-color="#4F52FF"/>
<stop offset="1" stop-color="#4042E2"/>
</linearGradient>
<linearGradient id="paint31_linear_539_72" x1="1630.74" y1="2302.67" x2="1794.97" y2="2302.67" gradientUnits="userSpaceOnUse">
<stop stop-color="#C4421B"/>
<stop offset="1" stop-color="#5C0E16"/>
</linearGradient>
<linearGradient id="paint32_linear_539_72" x1="1658.85" y1="2891.5" x2="1662.37" y2="3277.74" gradientUnits="userSpaceOnUse">
<stop stop-color="#09005D"/>
<stop offset="1" stop-color="#1A0F91"/>
</linearGradient>
<linearGradient id="paint33_linear_539_72" x1="1578.41" y1="3142.46" x2="1622.15" y2="3142.46" gradientUnits="userSpaceOnUse">
<stop stop-color="#C4421B"/>
<stop offset="1" stop-color="#5C0E16"/>
</linearGradient>
<linearGradient id="paint34_linear_539_72" x1="1226.45" y1="4825.32" x2="1333.11" y2="4159.94" gradientUnits="userSpaceOnUse">
<stop stop-color="#09005D"/>
<stop offset="1" stop-color="#1A0F91"/>
</linearGradient>
<linearGradient id="paint35_linear_539_72" x1="1443.85" y1="2893.46" x2="1447.36" y2="3279.69" gradientUnits="userSpaceOnUse">
<stop stop-color="#09005D"/>
<stop offset="1" stop-color="#1A0F91"/>
</linearGradient>
<linearGradient id="paint36_linear_539_72" x1="1420.78" y1="3140.22" x2="1458.54" y2="3140.22" gradientUnits="userSpaceOnUse">
<stop stop-color="#C4421B"/>
<stop offset="1" stop-color="#5C0E16"/>
</linearGradient>
<linearGradient id="paint37_linear_539_72" x1="1120.29" y1="4808.31" x2="1226.96" y2="4142.93" gradientUnits="userSpaceOnUse">
<stop stop-color="#09005D"/>
<stop offset="1" stop-color="#1A0F91"/>
</linearGradient>
<linearGradient id="paint38_linear_539_72" x1="1339.28" y1="2580.64" x2="1684.67" y2="1910.18" gradientUnits="userSpaceOnUse">
<stop stop-color="#FF928E"/>
<stop offset="1" stop-color="#FE7062"/>
</linearGradient>
<linearGradient id="paint39_linear_539_72" x1="1202.79" y1="2510.32" x2="1548.18" y2="1839.86" gradientUnits="userSpaceOnUse">
<stop stop-color="#FF928E"/>
<stop offset="1" stop-color="#FE7062"/>
</linearGradient>
<linearGradient id="paint40_linear_539_72" x1="1268.66" y1="2317.89" x2="1551.44" y2="2317.89" gradientUnits="userSpaceOnUse">
<stop stop-color="#C4421B"/>
<stop offset="1" stop-color="#5C0E16"/>
</linearGradient>
<linearGradient id="paint41_linear_539_72" x1="1586.56" y1="2038.54" x2="1710.36" y2="2328.99" gradientUnits="userSpaceOnUse">
<stop stop-color="#09005D"/>
<stop offset="1" stop-color="#1A0F91"/>
</linearGradient>
<linearGradient id="paint42_linear_539_72" x1="1540.6" y1="2288.24" x2="1628.7" y2="2288.24" gradientUnits="userSpaceOnUse">
<stop stop-color="#C4421B"/>
<stop offset="1" stop-color="#5C0E16"/>
</linearGradient>
<linearGradient id="paint43_linear_539_72" x1="1819.05" y1="2241.26" x2="1744.41" y2="2194.46" gradientUnits="userSpaceOnUse">
<stop stop-color="#C4421B"/>
<stop offset="1" stop-color="#5C0E16"/>
</linearGradient>
<linearGradient id="paint44_linear_539_72" x1="1500.65" y1="2024.32" x2="1612.45" y2="2024.32" gradientUnits="userSpaceOnUse">
<stop stop-color="#C4421B"/>
<stop offset="1" stop-color="#5C0E16"/>
</linearGradient>
<linearGradient id="paint45_linear_539_72" x1="1646.34" y1="1999.05" x2="1519.35" y2="1834.81" gradientUnits="userSpaceOnUse">
<stop stop-color="#C4421B"/>
<stop offset="1" stop-color="#5C0E16"/>
</linearGradient>
<linearGradient id="paint46_linear_539_72" x1="1451.04" y1="1799.19" x2="1609.85" y2="1924.62" gradientUnits="userSpaceOnUse">
<stop stop-color="#09005D"/>
<stop offset="1" stop-color="#1A0F91"/>
</linearGradient>
<linearGradient id="paint47_linear_539_72" x1="1610.6" y1="2026.68" x2="1483.62" y2="1862.45" gradientUnits="userSpaceOnUse">
<stop stop-color="#C4421B"/>
<stop offset="1" stop-color="#5C0E16"/>
</linearGradient>
<linearGradient id="paint48_linear_539_72" x1="1345.39" y1="1882.47" x2="1107.56" y2="2263.62" gradientUnits="userSpaceOnUse">
<stop stop-color="#FEBBBA"/>
<stop offset="1" stop-color="#FF928E"/>
</linearGradient>
<linearGradient id="paint49_linear_539_72" x1="685.188" y1="1847.39" x2="925.406" y2="2007.55" gradientUnits="userSpaceOnUse">
<stop stop-color="#09005D"/>
<stop offset="1" stop-color="#1A0F91"/>
</linearGradient>
<linearGradient id="paint50_linear_539_72" x1="2015.22" y1="1544.26" x2="1216.05" y2="2126.7" gradientUnits="userSpaceOnUse">
<stop stop-color="#FF928E"/>
<stop offset="1" stop-color="#FE7062"/>
</linearGradient>
<linearGradient id="paint51_linear_539_72" x1="1052.48" y1="2146.13" x2="1007.89" y2="2047.11" gradientUnits="userSpaceOnUse">
<stop stop-color="#FEBBBA"/>
<stop offset="1" stop-color="#FF928E"/>
</linearGradient>
<linearGradient id="paint52_linear_539_72" x1="1054.78" y1="1905.49" x2="964.288" y2="2101.39" gradientUnits="userSpaceOnUse">
<stop stop-color="#FEBBBA"/>
<stop offset="1" stop-color="#FF928E"/>
</linearGradient>
<linearGradient id="paint53_linear_539_72" x1="749.746" y1="1750.57" x2="989.969" y2="1910.73" gradientUnits="userSpaceOnUse">
<stop stop-color="#09005D"/>
<stop offset="1" stop-color="#1A0F91"/>
</linearGradient>
<linearGradient id="paint54_linear_539_72" x1="1012.2" y1="1885.82" x2="921.717" y2="2081.72" gradientUnits="userSpaceOnUse">
<stop stop-color="#FEBBBA"/>
<stop offset="1" stop-color="#FF928E"/>
</linearGradient>
<linearGradient id="paint55_linear_539_72" x1="802.277" y1="3379.28" x2="1134.47" y2="2779.67" gradientUnits="userSpaceOnUse">
<stop stop-color="#FEBBBA"/>
<stop offset="1" stop-color="#FF928E"/>
</linearGradient>
<linearGradient id="paint56_linear_539_72" x1="919.316" y1="3209.77" x2="1093.15" y2="2859.85" gradientUnits="userSpaceOnUse">
<stop stop-color="#09005D"/>
<stop offset="1" stop-color="#1A0F91"/>
</linearGradient>
<linearGradient id="paint57_linear_539_72" x1="1180.97" y1="2934.44" x2="677.216" y2="3100.81" gradientUnits="userSpaceOnUse">
<stop stop-color="#FEBBBA"/>
<stop offset="1" stop-color="#FF928E"/>
</linearGradient>
<linearGradient id="paint58_linear_539_72" x1="1497.65" y1="2828.22" x2="1285.44" y2="2988.51" gradientUnits="userSpaceOnUse">
<stop stop-color="#09005D"/>
<stop offset="1" stop-color="#1A0F91"/>
</linearGradient>
<linearGradient id="paint59_linear_539_72" x1="1118.89" y1="2391.38" x2="842.82" y2="3022.78" gradientUnits="userSpaceOnUse">
<stop stop-color="#09005D"/>
<stop offset="1" stop-color="#1A0F91"/>
</linearGradient>
<linearGradient id="paint60_linear_539_72" x1="834.18" y1="2454.21" x2="1310.34" y2="1748.22" gradientUnits="userSpaceOnUse">
<stop stop-color="#FEBBBA"/>
<stop offset="1" stop-color="#FF928E"/>
</linearGradient>
<linearGradient id="paint61_linear_539_72" x1="2197.01" y1="2232.95" x2="2102.39" y2="2374.87" gradientUnits="userSpaceOnUse">
<stop stop-color="#FEBBBA"/>
<stop offset="1" stop-color="#FF928E"/>
</linearGradient>
<linearGradient id="paint62_linear_539_72" x1="2043" y1="3214.43" x2="2205.43" y2="3214.43" gradientUnits="userSpaceOnUse">
<stop stop-color="#4F52FF"/>
<stop offset="1" stop-color="#4042E2"/>
</linearGradient>
<linearGradient id="paint63_linear_539_72" x1="2165.59" y1="2945.55" x2="2111.41" y2="3266.12" gradientUnits="userSpaceOnUse">
<stop stop-color="#09005D"/>
<stop offset="1" stop-color="#1A0F91"/>
</linearGradient>
<linearGradient id="paint64_linear_539_72" x1="2058" y1="3138.14" x2="2103.75" y2="3138.14" gradientUnits="userSpaceOnUse">
<stop stop-color="#FEBBBA"/>
<stop offset="1" stop-color="#FF928E"/>
</linearGradient>
<linearGradient id="paint65_linear_539_72" x1="1753.07" y1="3241.77" x2="1815.32" y2="3241.77" gradientUnits="userSpaceOnUse">
<stop stop-color="#4F52FF"/>
<stop offset="1" stop-color="#4042E2"/>
</linearGradient>
<linearGradient id="paint66_linear_539_72" x1="1849.78" y1="2892.17" x2="1795.6" y2="3212.75" gradientUnits="userSpaceOnUse">
<stop stop-color="#09005D"/>
<stop offset="1" stop-color="#1A0F91"/>
</linearGradient>
<linearGradient id="paint67_linear_539_72" x1="1801.02" y1="3114.29" x2="1855.7" y2="3114.29" gradientUnits="userSpaceOnUse">
<stop stop-color="#FEBBBA"/>
<stop offset="1" stop-color="#FF928E"/>
</linearGradient>
<linearGradient id="paint68_linear_539_72" x1="2481.3" y1="2267.63" x2="1887.56" y2="3046.49" gradientUnits="userSpaceOnUse">
<stop stop-color="#09005D"/>
<stop offset="1" stop-color="#1A0F91"/>
</linearGradient>
<linearGradient id="paint69_linear_539_72" x1="2126.91" y1="2580.51" x2="2219.47" y2="2138.03" gradientUnits="userSpaceOnUse">
<stop stop-color="#09005D"/>
<stop offset="1" stop-color="#1A0F91"/>
</linearGradient>
<linearGradient id="paint70_linear_539_72" x1="2553.13" y1="1962.48" x2="2336.57" y2="2244.23" gradientUnits="userSpaceOnUse">
<stop stop-color="#FEBBBA"/>
<stop offset="1" stop-color="#FF928E"/>
</linearGradient>
<linearGradient id="paint71_linear_539_72" x1="2103.87" y1="84.194" x2="2124.19" y2="851.156" gradientUnits="userSpaceOnUse">
<stop stop-color="#FF928E"/>
<stop offset="1" stop-color="#FE7062"/>
</linearGradient>
<linearGradient id="paint72_linear_539_72" x1="2207.67" y1="2140.73" x2="2243.94" y2="2140.73" gradientUnits="userSpaceOnUse">
<stop stop-color="#E1473D"/>
<stop offset="1" stop-color="#E9605A"/>
</linearGradient>
<linearGradient id="paint73_linear_539_72" x1="2070.41" y1="2144.58" x2="2094.1" y2="2020.19" gradientUnits="userSpaceOnUse">
<stop stop-color="#FEBBBA"/>
<stop offset="1" stop-color="#FF928E"/>
</linearGradient>
<linearGradient id="paint74_linear_539_72" x1="2134.52" y1="1916.37" x2="1999.34" y2="2019.8" gradientUnits="userSpaceOnUse">
<stop stop-color="#FEBBBA"/>
<stop offset="1" stop-color="#FF928E"/>
</linearGradient>
<linearGradient id="paint75_linear_539_72" x1="2039.36" y1="1834.47" x2="2165.26" y2="1996.57" gradientUnits="userSpaceOnUse">
<stop stop-color="#09005D"/>
<stop offset="1" stop-color="#1A0F91"/>
</linearGradient>
<linearGradient id="paint76_linear_539_72" x1="2117.75" y1="1894.45" x2="1982.57" y2="1997.89" gradientUnits="userSpaceOnUse">
<stop stop-color="#FEBBBA"/>
<stop offset="1" stop-color="#FF928E"/>
</linearGradient>
<linearGradient id="paint77_linear_539_72" x1="2101.62" y1="2365.79" x2="2039.25" y2="2459.34" gradientUnits="userSpaceOnUse">
<stop stop-color="#FEBBBA"/>
<stop offset="1" stop-color="#FF928E"/>
</linearGradient>
<clipPath id="clip0_539_72">
<rect width="3710" height="3710" fill="white"/>
</clipPath>
</defs>
</svg>
