<svg width="750" height="500" viewBox="0 0 750 500" fill="none" xmlns="http://www.w3.org/2000/svg">
<g clip-path="url(#clip0_355_588)">
<path d="M750.166 0.499023H0.166016V500.499H750.166V0.499023Z" fill="white"/>
<g opacity="0.56">
<path d="M106.317 475.961C45.7528 439.2 6.1998 360.682 15.9673 290.511C18.2003 274.47 22.8308 258.229 33.093 245.7C49.3608 225.838 77.588 218.735 102.98 222.526C128.373 226.318 151.405 239.455 172.369 254.276C244.237 305.088 300.624 378.872 381.183 414.328C399.376 422.335 419.016 428.275 438.855 427.062C472.486 425.007 501.103 403.239 531.587 388.886C563.648 373.791 601.654 366.782 634.5 380.083C667.346 393.383 689.726 443.92 678.475 477.524" fill="#E6E9FC"/>
<path d="M99.7321 229.328C88.0854 225.621 75.4373 225.469 63.6425 228.616C53.4002 231.348 43.9912 236.613 35.956 243.482C19.05 257.937 9.11566 278.809 5.48061 300.506C1.74685 322.791 3.71774 346.011 9.5552 367.765C14.9237 387.769 23.7851 406.861 35.5035 423.933C47.3195 441.146 62.0113 456.335 78.9878 468.506C81.0633 469.994 83.174 471.431 85.313 472.825C87.2192 474.068 88.988 471.017 87.0923 469.781C70.1828 458.759 55.2748 444.686 43.1485 428.555C31.0587 412.473 21.6109 394.4 15.4409 375.246C8.90059 354.944 5.88372 333.302 7.58901 312.001C9.34013 290.112 16.8312 268.378 32.0107 252.143C38.7895 244.893 46.9176 238.87 56.0622 234.944C66.7499 230.356 78.8538 228.761 90.343 230.675C93.2083 231.152 96.0277 231.846 98.7954 232.727C100.963 233.418 101.89 230.014 99.7321 229.328Z" fill="#E6E9FC"/>
<path d="M461.841 434.764C482.434 423.349 503.665 413.077 525.424 404.075C547.202 395.067 569.542 387.04 592.289 380.831C614.108 374.876 637.981 370.937 660.055 377.908C677.092 383.289 693.392 395.293 699.606 412.587C702.735 421.293 702.299 430.487 700.717 439.477C699.014 449.16 696.108 458.601 692.94 467.893C692.253 469.909 691.551 471.919 690.845 473.929C690.09 476.074 693.496 476.996 694.245 474.865C697.488 465.641 700.617 456.352 702.811 446.812C704.95 437.515 706.497 427.603 704.785 418.107C701.442 399.581 686.038 385.126 669.457 377.735C648.497 368.392 625.004 369.665 603.06 374.52C591.035 377.18 579.236 380.842 567.546 384.694C556.119 388.461 544.801 392.559 533.612 396.983C511.176 405.852 489.246 416.001 467.982 427.396C465.331 428.817 462.691 430.258 460.06 431.716C458.076 432.819 459.852 435.865 461.841 434.764Z" fill="#E6E9FC"/>
<path d="M548.398 286.95C554.009 286.95 558.559 282.401 558.559 276.789C558.559 271.177 554.009 266.628 548.398 266.628C542.786 266.628 538.236 271.177 538.236 276.789C538.236 282.401 542.786 286.95 548.398 286.95Z" fill="#E6E9FC"/>
<path d="M580.771 253.976C580.771 252.25 579.371 250.85 577.645 250.85C575.918 250.85 574.519 252.25 574.519 253.976C574.519 255.702 575.918 257.102 577.645 257.102C579.371 257.102 580.771 255.702 580.771 253.976Z" fill="#E6E9FC"/>
<path d="M721.474 377.72C721.623 373.838 718.596 370.57 714.713 370.422C710.83 370.273 707.563 373.3 707.414 377.183C707.266 381.066 710.293 384.333 714.176 384.482C718.058 384.63 721.326 381.603 721.474 377.72Z" fill="#E6E9FC"/>
<path d="M533.091 213.331C533.091 211.172 531.342 209.423 529.184 209.423C527.025 209.423 525.275 211.173 525.275 213.331C525.275 215.49 527.025 217.239 529.184 217.239C531.342 217.239 533.091 215.489 533.091 213.331Z" fill="#E6E9FC"/>
<path d="M544.897 127.023C546.879 122.237 544.607 116.75 539.821 114.768C535.035 112.785 529.548 115.058 527.565 119.844C525.583 124.63 527.855 130.117 532.641 132.1C537.427 134.082 542.914 131.809 544.897 127.023Z" fill="#E6E9FC"/>
<path d="M413.5 25.7377C413.5 21.8523 410.35 18.7026 406.465 18.7026C402.579 18.7026 399.43 21.8523 399.43 25.7377C399.43 29.6231 402.579 32.7727 406.465 32.7727C410.351 32.7727 413.5 29.6231 413.5 25.7377Z" fill="#E6E9FC"/>
<path d="M82.8684 209.423C85.8905 209.423 88.3404 206.973 88.3404 203.951C88.3404 200.929 85.8905 198.479 82.8684 198.479C79.8464 198.479 77.3965 200.929 77.3965 203.951C77.3965 206.973 79.8464 209.423 82.8684 209.423Z" fill="#E6E9FC"/>
<path d="M111.008 70.2901C118.346 70.2901 124.295 64.3411 124.295 57.0027C124.295 49.6643 118.346 43.7153 111.008 43.7153C103.669 43.7153 97.7202 49.6643 97.7202 57.0027C97.7202 64.3411 103.669 70.2901 111.008 70.2901Z" fill="#E6E9FC"/>
<path d="M149.308 49.1863C149.308 47.0273 147.558 45.2786 145.4 45.2786C143.241 45.2786 141.491 47.0285 141.491 49.1863C141.491 51.3452 143.241 53.094 145.4 53.094C147.558 53.0952 149.308 51.3452 149.308 49.1863Z" fill="#E6E9FC"/>
<path d="M69.5799 129.696C69.5799 128.401 68.5304 127.351 67.2353 127.351C65.9401 127.351 64.8906 128.401 64.8906 129.696C64.8906 130.991 65.9401 132.04 67.2353 132.04C68.5304 132.04 69.5799 130.991 69.5799 129.696Z" fill="#E6E9FC"/>
<path d="M283.749 104.683C283.749 100.797 280.6 97.6477 276.714 97.6477C272.829 97.6477 269.679 100.797 269.679 104.683C269.679 108.568 272.829 111.718 276.714 111.718C280.6 111.718 283.749 108.568 283.749 104.683Z" fill="#E6E9FC"/>
<path d="M718.34 190.663C718.34 186.777 715.19 183.628 711.305 183.628C707.42 183.628 704.27 186.777 704.27 190.663C704.27 194.548 707.42 197.698 711.305 197.698C715.19 197.698 718.34 194.548 718.34 190.663Z" fill="#E6E9FC"/>
</g>
<path d="M127.421 477.524C127.421 477.524 225.126 293.058 224.344 295.403" stroke="#B2AEEE" stroke-miterlimit="10"/>
<path d="M115.697 402.488H168.067" stroke="#B2AEEE" stroke-miterlimit="10"/>
<path d="M130.549 372.784H182.918" stroke="#B2AEEE" stroke-miterlimit="10"/>
<path d="M86.7764 453.294H139.147" stroke="#B2AEEE" stroke-miterlimit="10"/>
<path d="M101.628 427.499H153.997" stroke="#B2AEEE" stroke-miterlimit="10"/>
<path d="M75.0522 477.524C75.0522 477.524 172.757 293.058 171.975 295.403" stroke="#B2AEEE" stroke-miterlimit="10"/>
<path d="M35.1743 476.782C38.9986 476.782 742.166 476.782 742.166 476.782" stroke="#DDEBFC" stroke-width="1.0871" stroke-miterlimit="10" stroke-linecap="round"/>
<path d="M603.226 337.412H119.882V323.607C119.882 312.71 128.715 303.877 139.612 303.877H583.496C594.393 303.877 603.226 312.71 603.226 323.607V337.412Z" fill="#25334C"/>
<path d="M248.628 336.672V475.262" stroke="#1C2955" stroke-width="4.8958" stroke-miterlimit="10"/>
<path d="M123.582 475.262V336.672" stroke="#1C2955" stroke-width="4.8958" stroke-miterlimit="10"/>
<path d="M123.582 428.03H600.667" stroke="#1C2955" stroke-width="2.1585" stroke-miterlimit="10"/>
<path d="M600.095 336.672V475.262" stroke="#1C2955" stroke-width="4.8958" stroke-miterlimit="10"/>
<path d="M475.047 475.262V336.672" stroke="#1C2955" stroke-width="4.8958" stroke-miterlimit="10"/>
<path d="M604.534 335.191H115.442V342.591H604.534V335.191Z" fill="#1C2955"/>
<path d="M115.442 476.134V475.74C115.442 472.341 118.197 469.586 121.596 469.586H127.297C130.696 469.586 133.451 472.341 133.451 475.74" fill="#1C2955"/>
<path d="M257.509 476.135H241.23V475.779C241.23 472.706 243.721 470.216 246.793 470.216H251.946C255.018 470.216 257.509 472.706 257.509 475.779V476.135Z" fill="#1C2955"/>
<path d="M484.666 476.135H468.388V475.779C468.388 472.706 470.878 470.216 473.95 470.216H479.104C482.176 470.216 484.666 472.706 484.666 475.779V476.135Z" fill="#1C2955"/>
<path d="M608.234 476.135H591.956V475.779C591.956 472.706 594.446 470.216 597.518 470.216H602.672C605.744 470.216 608.234 472.706 608.234 475.779V476.135Z" fill="#1C2955"/>
<path d="M180.627 223.468C225.996 223.468 262.776 186.688 262.776 141.319C262.776 95.9494 225.996 59.1702 180.627 59.1702C135.257 59.1702 98.478 95.9494 98.478 141.319C98.478 186.688 135.257 223.468 180.627 223.468Z" fill="#E6E9FC"/>
<path d="M113.999 196.958H189.827C202.131 196.958 212.104 186.985 212.104 174.681V109.099C212.104 96.7949 202.13 86.8218 189.827 86.8218H113.999C101.695 86.8218 91.7222 96.7949 91.7222 109.099V174.681C91.7222 186.984 101.695 196.958 113.999 196.958Z" fill="#C4E0FF"/>
<path d="M182.391 182.557C192.601 185.156 204.072 190.086 201.663 169.909C199.803 154.331 182.417 114.878 171.258 110.057C160.099 105.235 155.424 107.785 153.712 124.017C151.891 141.298 149.35 174.147 182.391 182.557Z" fill="#1C3255"/>
<path d="M178.787 143.311L184.048 141.954C182.45 135.767 179.386 133.162 177.097 132.064C174.777 130.952 172.775 131.1 172.053 131.207C166.084 131.61 161.19 129.195 157.5 124.019C154.474 119.773 152.885 114.485 152.443 111.247L147.06 111.98C147.61 116.016 149.479 122.127 153.075 127.173C157.898 133.94 164.646 137.205 172.57 136.617L172.88 136.578C173.467 136.511 177.007 136.41 178.787 143.311Z" fill="#E6E6E6"/>
<path d="M162.831 131.367C162.786 136.987 164.535 142.541 167.82 147.104C168.325 147.806 169.505 147.129 168.993 146.418C165.838 142.036 164.147 136.768 164.19 131.367C164.195 130.493 162.838 130.493 162.831 131.367Z" fill="#E6E6E6"/>
<path d="M164.636 139.937C175.077 143.522 183.137 152.71 185.412 163.498C185.592 164.353 186.902 163.992 186.721 163.138C184.346 151.876 175.869 142.36 164.996 138.628C164.168 138.342 163.812 139.654 164.636 139.937Z" fill="#E6E6E6"/>
<path d="M176.279 146.669C173.124 153.339 171.908 160.785 172.854 168.109C172.964 168.963 174.324 168.975 174.212 168.109C173.298 161.03 174.398 153.812 177.451 147.354C177.823 146.569 176.652 145.878 176.279 146.669Z" fill="#E6E6E6"/>
<path d="M117.242 182.557C107.032 185.156 95.5605 190.086 97.9698 169.909C99.8302 154.331 117.216 114.878 128.375 110.057C139.534 105.235 144.209 107.785 145.921 124.017C147.743 141.298 150.284 174.147 117.242 182.557Z" fill="#1C3255"/>
<path d="M120.135 142C120.573 138.491 125.341 136.542 127.348 136.622C127.684 136.636 128.016 136.642 128.344 136.642C144.289 136.642 150.716 120.985 152.001 111.556C152.818 105.563 152.056 88.3106 152.023 87.5796L146.596 87.8229C146.604 87.9968 147.369 105.313 146.618 110.822C146.325 112.973 143.293 131.816 127.565 131.193C125.273 131.098 122.394 131.991 120.032 133.517C117.008 135.467 115.13 138.241 114.744 141.326L120.135 142Z" fill="#E6E6E6"/>
<path d="M136.415 131.367C136.458 136.768 134.766 142.036 131.612 146.418C131.101 147.129 132.278 147.808 132.785 147.104C136.068 142.54 137.818 136.986 137.774 131.367C137.767 130.494 136.408 130.491 136.415 131.367Z" fill="#E6E6E6"/>
<path d="M135.607 138.627C124.734 142.359 116.258 151.875 113.882 163.136C113.702 163.99 115.011 164.354 115.192 163.497C117.467 152.708 125.527 143.52 135.968 139.936C136.79 139.655 136.437 138.342 135.607 138.627Z" fill="#E6E6E6"/>
<path d="M123.152 147.354C126.206 153.812 127.305 161.029 126.391 168.109C126.279 168.974 127.639 168.966 127.75 168.109C128.696 160.785 127.479 153.34 124.325 146.669C123.951 145.879 122.781 146.568 123.152 147.354Z" fill="#E6E6E6"/>
<path d="M177.363 122.609C170.838 123.781 164.728 126.636 159.605 130.835C158.928 131.39 159.894 132.345 160.565 131.795C165.508 127.744 171.438 125.047 177.724 123.919C178.583 123.765 178.22 122.456 177.363 122.609Z" fill="#E6E6E6"/>
<path d="M138.344 129.491C134.843 125.514 129.954 122.844 124.711 122.068C123.856 121.942 123.487 123.251 124.35 123.379C129.39 124.125 134.017 126.628 137.384 130.453C137.962 131.108 138.92 130.145 138.344 129.491Z" fill="#E6E6E6"/>
<path d="M86.4709 109.605C98.3951 107.513 106.366 96.1506 104.274 84.2263C102.182 72.3021 90.8197 64.3313 78.8955 66.4232C66.9712 68.5151 59.0005 79.8775 61.0924 91.8017C63.1843 103.726 74.5466 111.697 86.4709 109.605Z" fill="#1685FF"/>
<path d="M71.7207 88.0401L78.7064 95.0246L92.1583 81.5715" stroke="white" stroke-width="3.0317" stroke-miterlimit="10" stroke-linecap="round"/>
<path d="M227.126 295.283L225.798 292.66L217.893 292.945L217.715 295.283L221.43 301.727L228.117 296.571L227.126 295.283Z" fill="#F69491"/>
<path d="M222.302 292.923L221.971 299.012C221.971 299.012 219.916 297.846 217.517 295.694L217.847 292.247L222.302 292.923Z" fill="#D46F6C"/>
<path d="M227.603 295.192C227.603 295.192 225.281 295.147 222.579 297.197C220.97 298.417 218.54 295.901 217.796 295.25C217.644 295.117 217.439 295.235 217.413 295.471L216.479 303.982H240.005C240.279 303.982 240.501 303.694 240.501 303.338V301.547C240.501 301.269 240.364 301.022 240.162 300.935L227.603 295.192Z" fill="#1685FF"/>
<path d="M228.925 295.639L225.138 297.829" stroke="white" stroke-width="0.2842" stroke-miterlimit="10"/>
<path d="M230.575 296.484L226.789 298.674" stroke="white" stroke-width="0.2842" stroke-miterlimit="10"/>
<path d="M172.068 291.763L172.285 288.832L166.632 284.154L164.008 286.907L163.863 294.344L172.251 293.379L172.068 291.763Z" fill="#F69491"/>
<path d="M169.694 284.916L166.161 291.967C166.161 291.967 165.004 289.909 164.058 286.827L167.479 283.353L169.694 284.916Z" fill="#D46F6C"/>
<path d="M172.877 292.076C172.877 292.076 171.023 290.677 167.632 290.748C165.613 290.792 165.124 287.327 164.903 286.363C164.858 286.167 164.622 286.142 164.462 286.318L158.708 292.658L177.751 306.473C177.972 306.634 178.321 306.531 178.53 306.242L179.582 304.791C179.745 304.567 179.779 304.287 179.666 304.098L172.877 292.076Z" fill="#1685FF"/>
<path d="M173.792 293.416L169.418 293.338" stroke="white" stroke-width="0.2842" stroke-miterlimit="10"/>
<path d="M174.77 294.991L170.396 294.913" stroke="white" stroke-width="0.2842" stroke-miterlimit="10"/>
<path d="M242.524 88.2543C243.331 87.5679 243.936 87.3446 242.032 85.617C240.128 83.8894 229.775 89.3919 228.883 88.1356C227.991 86.8792 227.771 86.0225 224.885 86.9662C221.997 87.9099 224.091 89.9325 224.091 89.9325C221.779 90.09 223.102 93.5652 223.102 93.5652C221.959 95.3422 222.349 101.859 222.349 101.859L222.355 101.933L224.757 103.986L224.87 103.849L224.983 103.711L224.796 103.551L229.946 100.058C230.349 99.8916 231.858 99.4097 233.144 97.916C234.157 96.7396 235.534 97.755 236.699 97.5611C237.216 97.4741 237.749 97.0945 238.16 96.7278C238.932 96.4587 239.54 95.8922 240.006 95.1812C243.765 95.1542 246.793 91.4568 241.287 89.3132C241.287 89.3132 241.718 88.9406 242.524 88.2543ZM223.246 102.117C223.539 102.286 223.951 102.59 224.276 103.106L223.754 102.66L223.246 102.117Z" fill="#0E162E"/>
<path d="M225.657 192.268C225.657 192.268 228.683 228.46 228.967 238.459C229.251 248.458 227.244 293.038 227.244 293.038L214.657 293.261C214.657 293.261 205.864 218.473 193.64 194.357L225.657 192.268Z" fill="#25334C"/>
<path d="M210.392 194.178C210.392 194.178 219.002 235.989 219.002 242.408C219.002 248.827 220.272 292.943 220.272 292.943" stroke="white" stroke-width="0.2842" stroke-miterlimit="10"/>
<path d="M214.015 288.392H227.353" stroke="white" stroke-width="0.2842" stroke-miterlimit="10"/>
<path d="M226.038 198.479C226.038 198.479 219.785 236.389 214.704 245.768C203.408 260.011 175.982 291.794 175.982 291.794L165.07 282.895L191.265 244.398C192.759 242.202 194.046 239.871 195.112 237.433C199.133 228.231 188.758 199.686 192.39 187.198L226.038 198.479Z" fill="#7692E0"/>
<path d="M209.232 195.744C209.232 195.744 209.806 236.38 204.933 241.079C200.06 245.778 169.628 286.609 169.628 286.609" stroke="#0E162E" stroke-width="0.2842" stroke-miterlimit="10"/>
<path d="M168.131 278.662L179.726 287.586" stroke="#0E162E" stroke-width="0.2842" stroke-miterlimit="10"/>
<path d="M264.89 154.445C264.89 154.445 241.829 169.748 237.717 168.165C233.605 166.582 219.877 125.716 230.076 124.009C230.076 124.009 232.747 122.119 234.584 124.54C236.421 126.961 242.142 133.074 245.692 154.526C245.692 154.526 263.343 148.675 264.78 147.943" fill="#F69491"/>
<path d="M246.897 150.467C246.897 150.467 240.212 113.249 225.694 120.469C217.58 124.504 230.932 167.127 235.138 171.848L264.217 159.776L263.144 148.546L246.897 150.467Z" fill="white"/>
<path d="M215.846 116.64C215.846 116.64 200.058 114.873 196.316 127.454C192.574 140.035 184.784 197.134 184.784 197.134L227.061 203.857L239.253 139.915C239.802 136.62 239.481 133.245 238.324 130.135C237.254 127.264 235.983 123.996 234.938 123.629L220.193 114.632L215.846 116.64Z" fill="#394971"/>
<path d="M218.5 115.751L227.163 133.723L231.921 121.323" stroke="white" stroke-width="0.2532" stroke-miterlimit="10"/>
<path d="M215.034 115.108C215.034 115.108 224.455 125.186 224.641 142.749C224.826 160.312 220.957 207.86 220.957 207.86L180.517 200.87C180.517 200.87 191.744 138.407 193.172 134.607C194.599 130.807 194.078 119.819 206.028 117.089L215.034 115.108Z" fill="white"/>
<path d="M213.221 115.823L213.482 136.127L218.439 138.01L214.925 143.02L222.947 167.282C222.947 167.282 226.356 140.963 222.269 131.378C218.181 121.792 214.531 117.435 214.531 117.435L213.221 115.823Z" fill="#224382"/>
<path d="M212.655 115.501L215.973 134.225L219.738 136.37L216.496 140.743L223.452 164.956C223.452 164.956 226.861 138.637 222.774 129.052C218.686 119.467 219.101 113.453 219.101 113.453L212.655 115.501Z" fill="white"/>
<path d="M230.606 127.734L230.485 128.807L224.865 205.906L234.516 208.209C234.516 208.209 241.805 139.939 240.692 135.59C239.579 131.24 237.486 123.455 231.923 121.324L230.606 127.734Z" fill="white"/>
<path d="M227.275 164.684L235.614 145.705L232.604 141.186L236.836 137.269L233.913 122.859L231.795 122.038L227.275 164.684Z" fill="#224382"/>
<path d="M226.529 162.492L234.868 143.512L231.858 138.994L236.09 135.076L233.167 120.667L231.049 119.846L226.529 162.492Z" fill="white"/>
<path d="M212.167 126.05C212.167 126.05 180.548 153.073 183.869 160.711C185.815 165.187 192.606 161.107 197.894 156.963C202.123 153.648 205.212 149.103 206.764 143.96L212.167 126.05Z" fill="#25334C"/>
<path d="M174.254 188.701L184.446 187.648C184.446 187.648 187.541 197.11 187.132 198.522C186.35 201.216 183.789 194.881 183.789 194.881C183.789 194.881 184.504 208.906 183.631 208.868C182.758 208.831 181.861 203.196 181.441 200.729C181.021 198.262 182.663 209.002 181.942 209.497C180.643 210.388 178.481 202.44 178.574 200.257C178.574 200.257 178.944 210.07 178.297 208.818C177.649 207.566 176.473 206.466 176.24 201.645C176.007 196.825 176.285 207.115 175.611 207.221C173.892 207.491 174.254 188.701 174.254 188.701Z" fill="#F69491"/>
<path d="M209.93 133.088C209.93 133.088 217.873 124.275 210.086 119.757C203.241 115.785 189.32 124.046 175.758 150.157C172.68 156.082 170.713 183.921 172.735 191.822L188.057 187.542L190.189 160.557L209.93 133.088Z" fill="white"/>
<path d="M223.451 164.954C223.393 165.647 223.162 166.194 222.935 166.176C222.71 166.158 222.574 165.583 222.632 164.889C222.691 164.196 222.921 163.65 223.148 163.667C223.374 163.686 223.51 164.262 223.451 164.954Z" fill="white"/>
<path d="M223.214 106.123L220.429 114.622L227.111 128.819L229.932 120.441L230.793 113.105L224.985 105.002C224.985 105.002 223.703 105.552 223.501 105.809C223.299 106.066 223.214 106.123 223.214 106.123Z" fill="#F69491"/>
<path d="M224.984 105.002L230.792 113.105L230.377 117.49C230.377 117.49 224.209 114.264 225.155 108.794" fill="#0E162E"/>
<path d="M224.806 102.427C224.67 102.638 224.372 102.644 224.235 102.436C223.772 101.731 222.773 100.686 221.855 102.894C220.608 105.894 223.984 106.062 224.152 106.538C224.494 107.504 225.562 110.733 227.84 112.39C229.228 113.4 231.477 113.999 233.501 112.754C235.525 111.508 236.036 112.771 239.058 95.4187C239.058 95.4187 237.969 96.7338 236.782 96.876C235.595 97.0182 234.038 97.0593 232.857 96.4365C231.898 95.9311 230.258 101.189 228.223 96.0886C227.313 97.6 225.612 101.184 224.806 102.427Z" fill="#F69491"/>
<path d="M222.394 102.767L223.833 104.437C223.833 104.437 223.871 101.161 222.394 102.767Z" fill="#EC8492"/>
<path d="M235.092 103.698C235.011 104.074 234.795 104.345 234.612 104.306C234.429 104.267 234.345 103.93 234.428 103.554C234.509 103.178 234.724 102.907 234.907 102.946C235.09 102.986 235.173 103.323 235.092 103.698Z" fill="#0E162E"/>
<path d="M237.327 103.833C237.246 104.209 237.031 104.48 236.848 104.442C236.665 104.402 236.581 104.066 236.662 103.69C236.743 103.314 236.958 103.042 237.142 103.081C237.326 103.121 237.408 103.458 237.327 103.833Z" fill="#0E162E"/>
<path d="M232.931 100.16C232.365 100.398 233.472 99.0089 234.179 98.9807C234.886 98.9525 235.474 99.4354 235.492 100.058C235.492 100.058 234.294 99.5905 232.931 100.16Z" fill="#0E162E"/>
<path d="M238.028 101.091C237.343 100.847 236.808 100.862 236.808 100.862C237.021 100.322 237.627 100.042 238.243 100.16" fill="#0E162E"/>
<path d="M236.313 103.593L236.702 106.694C236.708 106.745 236.668 106.789 236.621 106.782L235.406 106.614C235.364 106.608 235.338 106.564 235.35 106.519L236.176 103.586C236.199 103.508 236.304 103.513 236.313 103.593Z" fill="#D46F6C"/>
<path d="M264.78 147.942C264.78 147.942 270.255 140.395 269.56 142.7C268.843 145.075 268.516 146.119 268.516 146.119C268.516 146.119 276.136 144.124 276.481 144.401C277.553 145.262 271.368 147.444 271.368 147.444C271.368 147.444 276.894 145.301 277.306 146.2C277.719 147.099 272.331 149.071 272.331 149.071C272.331 149.071 278.425 146.644 277.669 147.797C276.914 148.95 272.632 150.958 272.632 150.958C272.632 150.958 277.515 148.978 276.877 150.056C276.239 151.132 264.719 154.308 264.719 154.308" fill="#F69491"/>
<path d="M270.683 149.343C271.324 144.384 269.647 140.413 265.77 137.244C262.33 134.434 258.587 132.013 254.013 132.722C250.542 133.26 247.374 135.019 244.276 136.577C241.907 137.767 238.682 139.704 235.914 138.905C234.25 138.424 233.248 136.882 232.587 135.377C231.251 132.332 230.852 128.849 230.542 125.576C230.446 124.554 228.834 124.543 228.932 125.576C229.342 129.907 229.752 135.942 233.189 139.142C235.315 141.121 238.178 140.862 240.724 139.939C246.545 137.832 253.49 131.708 259.89 135.216C262.931 136.882 266.249 139.083 268.033 142.152C269.324 144.374 269.395 146.855 269.073 149.343C268.94 150.367 270.551 150.358 270.683 149.343Z" fill="#B3CAF9"/>
<path d="M267.249 151.659C267.473 151.078 267.705 150.484 268.108 150.01C268.511 149.534 269.124 149.191 269.741 149.274C270.557 149.386 271.105 150.179 271.358 150.962C271.477 151.328 271.554 151.706 271.587 152.091C271.596 152.193 271.586 152.322 271.491 152.36C271.434 152.382 271.371 152.36 271.313 152.34C270.112 151.913 268.739 152.254 267.542 151.813" fill="#B3CAF9"/>
<path d="M271.504 153.324L267.057 152.362C266.768 152.299 266.585 152.014 266.647 151.725C266.709 151.435 266.995 151.252 267.284 151.314L271.731 152.277C272.02 152.339 272.204 152.625 272.141 152.914C272.079 153.203 271.793 153.386 271.504 153.324Z" fill="#4E6FD4"/>
<path d="M223.173 103.355C216.722 101.966 218.853 111.392 219.827 114.665C220.535 117.041 221.383 119.557 222.71 121.669C224.743 124.905 229.425 127.531 232.785 124.639C236.009 121.865 235.641 116.466 235.773 112.636C235.808 111.599 234.199 111.601 234.163 112.636C234.055 115.769 234.3 119.439 232.671 122.25C231.588 124.121 229.562 124.787 227.587 123.873C226.268 123.262 224.856 122.053 224.153 120.942C223.074 119.236 222.359 117.266 221.73 115.359C220.974 113.063 220.31 110.635 220.248 108.206C220.203 106.447 220.544 104.434 222.744 104.908C223.755 105.125 224.186 103.573 223.173 103.355Z" fill="#B3CAF9"/>
<path d="M223.741 102.576L223.386 102.631C222.656 102.744 222.157 103.426 222.27 104.155L222.271 104.16C222.384 104.888 223.066 105.389 223.795 105.276L224.15 105.221L223.741 102.576Z" fill="#4E6FD4"/>
<path d="M498.803 156.524C527.441 127.886 527.441 81.4544 498.803 52.8162C470.165 24.1781 423.733 24.1781 395.095 52.8162C366.457 81.4544 366.457 127.886 395.095 156.524C423.733 185.162 470.165 185.162 498.803 156.524Z" fill="#E6E9FC"/>
<path d="M461.716 154.586H461.723C467.554 154.586 472.28 149.859 472.28 144.029V77.1372H451.158V144.029C451.158 149.859 455.885 154.586 461.716 154.586Z" fill="white"/>
<path d="M469.393 144.029V102.42H454.045V144.029C454.045 148.264 457.479 151.698 461.715 151.698H461.722C465.959 151.698 469.393 148.264 469.393 144.029Z" fill="#1685FF"/>
<path d="M451.863 82.2566H471.897C473.346 82.2566 474.521 81.0814 474.521 79.6323V71.7899C474.521 70.3408 473.346 69.1655 471.897 69.1655H451.863C450.414 69.1655 449.238 70.3408 449.238 71.7899V79.6323C449.238 81.0814 450.412 82.2566 451.863 82.2566Z" fill="#1685FF"/>
<path d="M461.4 142.745H472.281V106.58H461.4V142.745Z" fill="#A3C3FC"/>
<path d="M468.868 110.208V136.451" stroke="#FBFAF6" stroke-width="0.8189" stroke-miterlimit="10"/>
<path d="M465.454 110.208V136.451" stroke="#FBFAF6" stroke-width="0.8189" stroke-miterlimit="10"/>
<path d="M469.313 71.0732V79.6996" stroke="#FBFAF6" stroke-width="0.5808" stroke-miterlimit="10" stroke-linecap="round"/>
<path d="M464.318 71.0732V79.6996" stroke="#FBFAF6" stroke-width="0.5808" stroke-miterlimit="10" stroke-linecap="round"/>
<path d="M459.325 71.0732V79.6996" stroke="#FBFAF6" stroke-width="0.5808" stroke-miterlimit="10" stroke-linecap="round"/>
<path d="M454.33 71.0732V79.6996" stroke="#FBFAF6" stroke-width="0.5808" stroke-miterlimit="10" stroke-linecap="round"/>
<path d="M451.863 82.2566C452.741 82.8771 472.491 94.6813 472.491 94.6813L471.897 82.2566H451.863Z" fill="#E6E9FC"/>
<path d="M434.115 119.412H434.122C439.952 119.412 444.679 114.685 444.679 108.855V41.9619H423.556V108.855C423.557 114.685 428.284 119.412 434.115 119.412Z" fill="white"/>
<path d="M441.791 108.855V67.2463H426.444V108.855C426.444 113.09 429.878 116.525 434.113 116.525H434.121C438.357 116.525 441.791 113.09 441.791 108.855Z" fill="#1685FF"/>
<path d="M424.262 47.084H444.295C445.744 47.084 446.92 45.9087 446.92 44.4596V36.616C446.92 35.167 445.744 33.9917 444.295 33.9917H424.262C422.813 33.9917 421.638 35.167 421.638 36.616V44.4585C421.638 45.9087 422.812 47.084 424.262 47.084Z" fill="#1685FF"/>
<path d="M433.798 107.571H444.679V71.406H433.798V107.571Z" fill="#A3C3FC"/>
<path d="M441.267 75.0337V101.277" stroke="#FBFAF6" stroke-width="0.8189" stroke-miterlimit="10"/>
<path d="M437.852 75.0337V101.277" stroke="#FBFAF6" stroke-width="0.8189" stroke-miterlimit="10"/>
<path d="M441.712 35.8992V44.5255" stroke="#FBFAF6" stroke-width="0.5808" stroke-miterlimit="10" stroke-linecap="round"/>
<path d="M436.717 35.8992V44.5255" stroke="#FBFAF6" stroke-width="0.5808" stroke-miterlimit="10" stroke-linecap="round"/>
<path d="M431.724 35.8992V44.5255" stroke="#FBFAF6" stroke-width="0.5808" stroke-miterlimit="10" stroke-linecap="round"/>
<path d="M426.729 35.8992V44.5255" stroke="#FBFAF6" stroke-width="0.5808" stroke-miterlimit="10" stroke-linecap="round"/>
<path d="M424.262 47.0837C424.376 47.1166 443.6 58.5166 444.89 59.5085L444.295 47.0837H424.262Z" fill="#E6E9FC"/>
<path d="M454.147 45.6018C454.147 40.5483 463.298 26.9495 463.298 26.9495C463.298 26.9495 472.448 40.5483 472.448 45.6018C472.448 50.6554 468.352 54.7523 463.298 54.7523C458.244 54.7523 454.147 50.6554 454.147 45.6018Z" fill="#1685FF"/>
<path d="M471.156 41.4746C470.977 42.2139 470.734 42.9437 470.366 43.6371C469.444 45.3741 468.201 46.9196 466.82 48.3134C463.665 51.5007 458.089 51.5606 454.948 48.3134C454.787 48.1465 454.648 47.9714 454.495 47.801C454.466 47.7845 454.44 47.7622 454.411 47.7458C455.378 51.7628 458.984 54.7514 463.298 54.7514C468.351 54.7514 472.448 50.6545 472.448 45.6009C472.448 44.4774 471.982 42.9214 471.278 41.1973C471.234 41.2901 471.2 41.3841 471.156 41.4746Z" fill="#1685FF"/>
<path d="M462.343 48.2556H464.708V40.7387H462.343V48.2556Z" fill="white"/>
<path d="M467.284 45.68V43.3142H459.767V45.68H467.284Z" fill="white"/>
<path d="M470.821 288.429L467.41 303.258H444.721V301.465L457.623 293.97L459.204 288.701L470.821 288.429Z" fill="#F69491"/>
<path d="M457.623 293.97C458.37 293.493 470.821 288.43 470.821 288.43L459.204 288.701L457.623 293.97Z" fill="#E8716F"/>
<path d="M457.459 293.97L461.3 298.078C462.309 299.158 463.909 299.194 464.956 298.157L469.323 293.806L467.246 303.258H444.557V301.465L457.459 293.97Z" fill="#E6E9FC" stroke="#E6E9FC" stroke-width="1.211" stroke-miterlimit="10"/>
<path d="M498.247 288.628L500.849 303.124H523.027V301.372L510.416 294.044L510.182 288.894L498.247 288.628Z" fill="#F69491"/>
<path d="M510.416 294.044L510.182 288.894L498.247 288.628L510.416 294.044Z" fill="#E8716F"/>
<path d="M510.658 294.044L506.904 298.061C505.917 299.116 504.354 299.15 503.33 298.137L499.513 293.875L501.092 303.123H523.27V301.37L510.658 294.044Z" fill="#E6E9FC" stroke="#E6E9FC" stroke-width="1.1838" stroke-miterlimit="10"/>
<path d="M469.68 182.922L455.427 292.155L472.384 292.015L483.775 223.493C484.701 220.688 487.805 220.717 488.798 223.493L497.628 292.292L514.852 293.058C514.852 293.058 513.324 224.688 500.951 178.418L469.68 182.922Z" fill="#7692E0"/>
<path d="M468.864 194.835C468.864 194.835 468.765 213.726 485.411 211.768C502.058 209.81 504.441 191.245 504.441 191.245L468.864 194.835Z" fill="#25334C"/>
<path d="M497.046 288.02L514.853 288.108" stroke="white" stroke-width="0.4176" stroke-miterlimit="10"/>
<path d="M456.134 288.02L472.644 288.108" stroke="white" stroke-width="0.4176" stroke-miterlimit="10"/>
<path d="M425.746 179.069C425.84 179.934 433.754 179.659 433.754 179.659C433.754 179.659 444.858 180.607 451.998 180.768L466.794 182.051C470.003 176.72 478.567 130.523 469.779 132.04C455.449 134.515 450.792 165.697 450.792 165.697L434.923 169.096L434.926 169.211C434.214 169.122 427.46 170.163 427.179 170.081C427.179 170.081 413.631 175.422 412.458 177.897C411.285 180.372 419.232 176.204 420.274 175.683C421.317 175.16 425.746 179.069 425.746 179.069Z" fill="#EE8881"/>
<path d="M463.586 151.003C463.675 163.721 469.562 178.242 467.707 181.327L457.052 180.659C460.245 175.898 461.326 171.571 463.586 151.003Z" fill="#D46F6C"/>
<path d="M449.914 164.844C449.914 164.844 453.104 135.948 466.523 130.738C474.834 127.51 473.031 169.597 469.823 174.926L449.914 164.844Z" fill="#7692E0"/>
<path d="M454.509 167.243L469.822 174.926C473.029 169.595 470.412 138.764 461.832 136.339L454.509 167.243Z" fill="#25334C"/>
<path d="M450.121 160.419L471.039 169.321" stroke="white" stroke-width="0.1213" stroke-miterlimit="10"/>
<path d="M498.569 139.466C494.882 127.791 482.654 126.905 482.654 126.905L477.133 125.359L477.063 125.461L469.682 135.062L467.632 131.481L467.494 130.044L465.176 131.366C464.14 131.704 460.465 136.895 459.704 139.812C458.892 142.921 458.513 147.233 458.781 150.849L465.759 203.424L508.328 197.886C508.328 197.886 502.457 151.781 498.569 139.466Z" fill="#7692E0"/>
<path d="M465.375 198.719L507.092 192.529" stroke="white" stroke-width="0.1213" stroke-miterlimit="10"/>
<path d="M465.933 130.96L468.346 144.286L479.741 125.83" stroke="white" stroke-width="0.1213" stroke-miterlimit="10"/>
<path d="M469.282 113.141L468.285 111.697C468.285 111.697 459.92 113.206 457.831 112.092C455.742 110.976 455.651 106.9 455.651 106.9C455.651 106.9 451.751 106.214 453.656 104.895C455.561 103.575 454.829 103.624 454.829 103.624C454.829 103.624 449.407 102.891 452.24 100.449C455.074 98.0064 470.954 99.5578 470.954 99.5578C474.017 100.142 476.297 115.447 471.113 115.11" fill="#0F1032"/>
<path d="M456.696 107.457C456.696 107.457 458.304 122.224 462.842 126.438C464.796 126.145 465.848 124.17 467.043 123.996C467.017 123.455 467.279 126.289 466.881 130.45C467.142 131.529 469.128 140.117 469.128 140.117L477.726 125.686L473.697 114.856C473.697 114.856 474.478 114.926 474.964 113.703C475.237 113.018 475.359 111.307 474.524 109.949C473.727 108.654 471.073 109.277 470.815 110.623C470.732 111.051 470.354 111.557 469.738 111.059C469.212 110.632 467.498 104.845 465.794 105.341C462.107 106.412 460.026 107.083 458.218 107.345C457.005 107.522 456.696 107.457 456.696 107.457Z" fill="#F69491"/>
<path d="M472.196 111.347C472.168 111.492 473.419 109.764 474.31 111.988Z" fill="#D46F6C"/>
<path d="M465.969 124.755L469.024 121.596L466.996 131.047L465.969 124.755Z" fill="#D46F6C"/>
<path d="M459.472 116.704C459.543 117.098 459.446 117.444 459.257 117.478C459.067 117.513 458.855 117.221 458.785 116.829C458.714 116.435 458.811 116.088 459 116.054C459.19 116.019 459.402 116.311 459.472 116.704Z" fill="#0F1032"/>
<path d="M462.403 115.922C462.474 116.315 462.377 116.662 462.188 116.696C461.998 116.73 461.786 116.439 461.716 116.046C461.645 115.652 461.742 115.306 461.931 115.272C462.121 115.238 462.333 115.529 462.403 115.922Z" fill="#0F1032"/>
<path d="M460.008 114.616C460.112 115.749 460.155 118.776 460.155 118.776L462.015 118.414L460.008 114.616Z" fill="#D46F6C"/>
<path d="M461.001 111.738C460.726 111.801 459.835 111.086 460.804 110.724C461.785 110.357 463.314 110.996 463.537 111.245C463.761 111.493 462.512 111.385 461.001 111.738Z" fill="#0F1032"/>
<path d="M457.585 114.128C457.31 114.193 456.509 113.341 457.478 112.979C458.459 112.612 459.175 113.585 459.399 113.833C459.622 114.084 459.095 113.777 457.585 114.128Z" fill="#0F1032"/>
<path d="M415.716 175.682C415.716 175.682 411.808 175.812 412.849 174.9C413.892 173.988 421.838 172.425 421.838 172.425L415.716 175.682Z" fill="#D46F6C"/>
<path d="M435.206 169.035L434.922 169.096L434.926 169.211C434.214 169.122 427.46 170.163 427.18 170.081C427.18 170.081 413.632 175.422 412.459 177.897C411.286 180.373 419.233 176.204 420.275 175.683C421.318 175.163 425.747 179.07 425.747 179.07C425.841 179.935 433.754 179.66 433.754 179.66C433.754 179.66 435.572 179.815 438.193 180.009C437.072 176.391 436.08 172.733 435.206 169.035Z" fill="white"/>
<path d="M415.716 175.682C415.716 175.682 411.808 175.812 412.849 174.9C413.892 173.988 421.838 172.425 421.838 172.425L415.716 175.682Z" fill="white"/>
<path d="M415.446 189.346L411.917 195.032" stroke="#0F33AC" stroke-width="0.5189" stroke-miterlimit="10"/>
<path d="M420.984 171.778L428.393 176.378L420.74 188.704C420.473 189.133 419.909 189.266 419.48 188.999L413.626 185.364C413.197 185.097 413.065 184.533 413.331 184.104L420.984 171.778Z" fill="#5163B3"/>
<path d="M417.602 181.153L421.489 183.567L417.542 189.925C417.364 190.211 416.988 190.299 416.701 190.121L413.85 188.35C413.563 188.173 413.476 187.797 413.654 187.51L417.602 181.153Z" fill="#5163B3"/>
<path d="M420.778 170.721L429.257 175.985C429.581 176.186 429.679 176.611 429.48 176.933C429.279 177.256 428.854 177.355 428.532 177.155L420.053 171.891C419.73 171.69 419.631 171.266 419.831 170.944C420.032 170.62 420.456 170.52 420.778 170.721Z" fill="#0F33AC"/>
<path d="M424.8 167.793L430.1 171.083C430.302 171.209 430.364 171.474 430.238 171.676C430.113 171.878 429.848 171.94 429.646 171.814L424.347 168.524C424.145 168.398 424.082 168.134 424.208 167.931C424.334 167.729 424.598 167.667 424.8 167.793Z" fill="#0F33AC"/>
<path d="M427.534 169.877L421.428 179.712" stroke="#0F33AC" stroke-width="2.0756" stroke-miterlimit="10"/>
<path d="M420.762 187.511C420.371 187.307 419.761 186.88 419.37 186.677" stroke="white" stroke-width="0.5189" stroke-miterlimit="10" stroke-linecap="round"/>
<path d="M421.381 186.336C421.004 186.142 420.35 185.736 419.973 185.541" stroke="white" stroke-width="0.5189" stroke-miterlimit="10" stroke-linecap="round"/>
<path d="M417.073 189.639C416.976 189.332 417.036 189.113 417.133 188.916C417.193 188.823 417.254 188.732 417.356 188.663C417.454 188.591 417.558 188.526 417.723 188.491C417.779 188.65 417.776 188.775 417.764 188.893C417.758 189.017 417.711 189.115 417.663 189.215C417.544 189.401 417.388 189.565 417.073 189.639Z" fill="white"/>
<path d="M422.152 185.274C421.85 185.088 421.175 184.658 420.873 184.471" stroke="white" stroke-width="0.5189" stroke-miterlimit="10" stroke-linecap="round"/>
<path d="M422.821 184.064C422.137 183.652 421.678 183.384 421.505 183.279" stroke="white" stroke-width="0.5189" stroke-miterlimit="10" stroke-linecap="round"/>
<path d="M428.861 176.489C428.542 176.57 428.319 176.498 428.118 176.387C428.025 176.321 427.932 176.254 427.864 176.147C427.794 176.045 427.727 175.936 427.697 175.768C427.861 175.721 427.989 175.73 428.112 175.749C428.238 175.762 428.339 175.816 428.44 175.87C428.627 176 428.791 176.167 428.861 176.489Z" fill="white"/>
<path d="M426.387 174.895C425.763 174.767 425.227 174.481 424.716 174.158C424.468 173.986 424.22 173.812 423.999 173.601C423.776 173.394 423.558 173.18 423.381 172.912C423.706 172.974 423.989 173.091 424.265 173.214C424.546 173.333 424.798 173.49 425.051 173.649C425.543 173.988 426.01 174.362 426.387 174.895Z" fill="white"/>
<path d="M509.642 202.779C509.642 202.779 396.659 260.441 382.617 251.137C363.585 238.526 333.88 173.408 333.88 173.408L374.81 147.672L411.937 194.571C411.937 194.571 475.09 181.75 497.135 178.547C497.135 178.547 508.455 160.57 513.94 160.57C517.066 160.57 509.25 174.638 509.25 174.638C509.25 174.638 522.537 164.477 529.964 157.052C537.389 149.627 527.228 172.294 519.802 176.202C512.377 180.109 535.044 160.96 537.389 162.133C539.734 163.306 529.182 176.984 525.665 179.719C522.147 182.455 542.079 165.259 541.688 169.948C541.586 171.18 530.354 187.144 525.665 187.144C520.974 187.144 540.125 176.202 541.298 178.546C542.471 180.893 509.642 202.779 509.642 202.779Z" fill="#FFBDBD"/>
<path d="M396.757 239.573C391.817 228.506 388.69 216.409 387.675 203.943C386.69 191.858 388.84 179.855 390.84 167.922L374.81 147.672L333.88 173.408C333.88 173.408 363.585 238.526 382.617 251.137C385.49 253.041 392.51 252.138 401.853 249.501C400.002 246.284 398.282 242.986 396.757 239.573Z" fill="#EC8492"/>
<path d="M406.885 184.979C402.232 169.218 400.871 159.863 380.466 126.256C378.008 122.207 367.411 109.984 359.654 108.132C348.552 105.482 327.508 122.054 331.815 146.823C329.798 151.645 337.12 203.585 338.895 214.143L406.885 184.979Z" fill="#1685FF"/>
<path d="M432.655 426.55C433.003 459.954 433.351 473.525 433.351 473.525C433.351 473.525 501.315 474.767 503.983 471.535C506.65 468.303 470.873 451.715 470.873 451.715C470.873 451.715 470.235 443.252 470.235 426.551L432.655 426.55Z" fill="#FFBDBD"/>
<path d="M465.768 426.55H433.437C433.616 443.791 433.796 455.736 433.928 463.272C445.077 451.487 455.814 439.347 465.768 426.55Z" fill="#EC8492"/>
<path d="M432.782 448.864C433.326 448.899 441.354 465.52 441.354 465.52C441.354 465.52 450.401 462.388 473.702 451.681C473.702 451.681 514.846 462.455 509.338 475.033L427.436 474.916L432.782 448.864Z" fill="#0D1029" stroke="#0D1029" stroke-width="1.2269" stroke-miterlimit="10" stroke-linecap="round" stroke-linejoin="round"/>
<path d="M479.978 453.342L464.32 464.824" stroke="white" stroke-width="1.3355" stroke-miterlimit="10"/>
<path d="M491.112 455.429L475.454 466.912" stroke="white" stroke-width="1.3355" stroke-miterlimit="10"/>
<path d="M428.827 435.595C426.74 404.975 423.46 317.204 424.652 313.81C425.843 310.416 283.249 286.922 283.298 256.148C283.349 225.374 340.026 243.813 340.026 243.813C340.026 243.813 433.087 242.986 468.996 259.447C489.726 268.949 471.277 434.204 471.277 434.204L428.827 435.595Z" fill="#E6E9FC"/>
<path d="M347.406 223.342C347.406 223.342 325.137 259.529 355.757 266.489C386.377 273.448 442.747 269.969 449.01 281.103C455.563 292.755 448.314 416.11 448.314 416.11" stroke="#25334C" stroke-width="0.6677" stroke-miterlimit="10"/>
<path d="M426.74 416.111L473.188 416.807" stroke="#25334C" stroke-width="0.6677" stroke-miterlimit="10"/>
<path d="M388.464 426.55C388.812 459.954 389.16 473.525 389.16 473.525C389.16 473.525 457.124 474.767 459.792 471.535C462.459 468.303 426.682 451.715 426.682 451.715C426.682 451.715 426.044 443.252 426.044 426.551L388.464 426.55Z" fill="#FFBDBD"/>
<path d="M423.343 426.55H388.464C388.621 441.715 388.78 452.78 388.905 460.355C400.464 448.381 411.897 437.044 423.343 426.55Z" fill="#EC8492"/>
<path d="M387.42 448.818C387.964 448.854 397.163 465.52 397.163 465.52C397.163 465.52 406.21 462.388 429.511 451.681C429.511 451.681 470.655 462.455 465.147 475.033L383.245 474.916L387.42 448.818Z" fill="#1A1F4F" stroke="#1A1F4F" stroke-width="1.2269" stroke-miterlimit="10" stroke-linecap="round" stroke-linejoin="round"/>
<path d="M429.523 438.379C429.523 438.379 444.316 268.066 432.347 259.913C404.121 240.687 291.719 228.717 291.719 228.717C291.719 228.717 269.736 257.074 275.192 296.6C278.54 320.857 342.143 321.48 368.979 319.377C374.9 318.913 379.932 323.607 379.877 329.538C379.643 354.959 386.787 412.613 386.378 438.378L429.523 438.379Z" fill="white"/>
<path d="M302.673 301.784C290.211 290.125 281.182 271.633 279.431 253.236C275.569 264.728 272.849 279.629 275.191 296.6C277.316 311.996 303.712 317.865 329.576 319.564C319.796 314.993 310.659 309.255 302.673 301.784Z" fill="#E6E9FC"/>
<path d="M302.867 233.085C302.867 233.085 281.99 273.447 312.61 280.407C343.23 287.366 394.031 276.927 405.863 290.15C415.417 300.83 406.558 416.111 406.558 416.111" stroke="#25334C" stroke-width="0.6677" stroke-miterlimit="10"/>
<path d="M384.985 416.111L431.434 416.807" stroke="#25334C" stroke-width="0.6677" stroke-miterlimit="10"/>
<path d="M435.787 453.342L420.129 464.824" stroke="white" stroke-width="1.3355" stroke-miterlimit="10"/>
<path d="M446.921 455.429L431.263 466.912" stroke="white" stroke-width="1.3355" stroke-miterlimit="10"/>
<path d="M275.638 269.184C275.638 269.184 271.612 173.268 277.368 141.438C283.125 109.606 316.376 100.851 316.376 100.851L328.139 95.8181L352.733 103.474L361.395 109.314C368.611 114.38 372.569 128.581 374.061 136.854L378.026 244.048C378.026 244.048 370.457 257.616 275.638 269.184Z" fill="#1685FF"/>
<path d="M344.334 192.816C336.922 178.309 330.028 163.513 323.808 148.454C317.816 133.946 313.323 118.88 307.661 104.246C297.389 109.168 281.222 120.127 277.368 141.437C271.612 173.268 275.638 269.183 275.638 269.183C346.12 260.585 368.387 250.882 375.177 246.465C364.061 229.083 353.73 211.205 344.334 192.816Z" fill="#1685FF"/>
<path d="M318.923 99.9939C319.314 101.167 345.574 128.455 354.487 122.661C362.304 117.58 357.613 103.511 357.613 103.511" stroke="white" stroke-width="0.6571" stroke-miterlimit="10"/>
<path d="M355.31 109.463L355.523 106.118L357.031 93.5227L356.382 92.64L356.524 90.4071L339.813 70.1317C339.813 70.1317 338.377 70.3843 337.878 71.0719C337.378 71.7606 334.165 69.1174 334.165 69.1174L321.659 98.038L332.836 107.744C337.445 112.199 346.58 119.936 351.156 119.648C353.936 119.473 354.71 112.92 354.71 112.92L355.096 109.692L355.31 109.463Z" fill="#FFBDBD"/>
<path d="M339.437 69.0776L357.544 90.942L357.014 93.8155C357.014 93.8155 350.429 115.635 342.16 80.3506" fill="#1A1F4F"/>
<path d="M335.533 71.2681C332.053 69.6639 331.505 65.9148 331.429 62.0835C331.352 58.2522 332.535 51.6779 334.165 48.2097C336.88 42.4345 341.762 30.8078 344.521 27.4959C346.476 25.1513 350.775 18.7027 362.593 24.9703C363.208 22.9736 365.307 21.5456 367.389 21.7067C369.472 21.8688 371.325 23.6035 371.625 25.6708C372.614 22.7409 375.824 20.8276 378.905 21.0697C381.988 21.313 384.753 23.5236 385.952 26.3736C387.151 29.2236 386.862 32.5883 385.471 35.3501C387.653 36.6065 388.843 39.373 388.256 41.8211C387.668 44.2691 385.353 46.1942 382.838 46.3234C383.284 47.4517 383.009 48.8314 382.164 49.7023C381.319 50.5731 379.949 50.8893 378.808 50.4779L335.533 71.2681Z" fill="#1A1F4F"/>
<path d="M341.518 64.1334C341.103 64.6376 335.559 57.8599 332.582 63.2837C328.539 70.649 337.736 72.5153 338.068 73.7928C338.742 76.3819 337.165 77.657 342.811 82.5872C346.252 85.5911 355.291 96.3588 361.548 96.2542C364.121 96.2107 367.723 92.7872 379.981 48.9492C379.981 48.9492 376.897 52.0848 373.71 52.1083C370.523 52.1318 367.036 46.9736 364.184 44.8346C351.73 35.502 343.96 61.1659 341.518 64.1334Z" fill="#FFBDBD"/>
<path d="M368.075 69.7895C367.844 70.4992 367.356 70.9774 366.987 70.8575C366.617 70.7377 366.505 70.0632 366.737 69.3535C366.968 68.6439 367.456 68.1656 367.826 68.2855C368.194 68.4053 368.307 69.0786 368.075 69.7895Z" fill="#10242E"/>
<path d="M373.116 70.8131C372.867 71.5756 372.398 72.1079 372.068 71.9998C371.738 71.8917 371.671 71.1867 371.92 70.423C372.169 69.6592 372.602 69.3032 372.933 69.4113C373.263 69.5194 373.365 70.0493 373.116 70.8131Z" fill="#10242E"/>
<path d="M333.778 63.8501C333.778 63.8501 338.618 62.327 338.794 66.8893Z" fill="#EC8492"/>
<path d="M370.231 68.6426L366.832 76.9669L370.965 78.2596C371.229 78.3149 372.246 78.0869 372.201 77.8213L370.231 68.6426Z" fill="#EC8492"/>
<path d="M361.864 78.3433L369.238 80.0674C369.238 80.0674 367.964 83.7776 365.765 82.9126C363.565 82.0476 361.864 78.3433 361.864 78.3433Z" fill="white"/>
<path d="M364.455 62.5913C367.44 61.4301 370.062 62.174 370.062 62.174C369.864 60.6251 368.248 59.5521 366.451 59.7801C365.778 59.8647 364.841 60.3136 364.379 61.0869C364.186 61.4101 363.845 62.7746 364.455 62.5913Z" fill="#10242E"/>
<path d="M373.014 63.2474C376.209 63.4789 378.258 65.2759 378.258 65.2759C378.747 63.7915 377.748 62.1309 376.026 61.5644C375.381 61.3529 374.342 61.3552 373.592 61.8559C373.279 62.0651 372.385 63.151 373.014 63.2474Z" fill="#10242E"/>
<path d="M269.86 172.532C269.86 172.532 244.747 240.756 257.225 259.882C266.431 273.992 394.324 260.756 394.324 260.756C394.324 260.756 412.083 261.607 436.169 265.31C436.169 265.31 431.844 252.633 409.547 246.615C388.036 240.808 311.952 217.974 311.952 217.974L317.64 165.147L269.86 172.532Z" fill="#FFBDBD"/>
<path d="M271.233 180.848C271.233 180.848 259.965 248.478 271.21 250.35C305.339 256.03 345.722 264.551 345.722 264.551C345.722 264.551 255.852 270.798 256.421 257.734C247.139 230.471 263.247 185.596 263.247 185.596L271.233 180.848Z" fill="#EC8492"/>
<path d="M293.911 112.109C297.418 108.92 309.936 101.203 314.435 102.696C325.271 106.292 342.882 127.292 331.73 149.831L314.226 209.453L252.367 201.032C252.367 201.032 264.807 138.584 293.911 112.109Z" fill="#1685FF"/>
<path d="M256.201 189.041L315.137 199.991" stroke="white" stroke-width="0.6571" stroke-miterlimit="10"/>
<path d="M685.795 355.075C714.053 326.817 714.053 281.002 685.795 252.744C657.537 224.485 611.721 224.485 583.463 252.744C555.205 281.002 555.205 326.817 583.463 355.075C611.721 383.333 657.537 383.333 685.795 355.075Z" fill="#E6E9FC"/>
<path d="M628.113 120.765L628.111 120.928L644.826 121.183L644.829 121.02C644.895 116.695 641.443 113.135 637.117 113.069L636.064 113.053C631.739 112.987 628.179 116.44 628.113 120.765ZM634.825 117.032C634.839 116.091 635.614 115.34 636.555 115.354C637.496 115.368 638.247 116.142 638.232 117.084C638.218 118.025 637.444 118.776 636.502 118.762C635.562 118.748 634.811 117.973 634.825 117.032Z" fill="#1685FF"/>
<path d="M585.194 267.96L681.83 269.438C684.445 269.477 686.598 267.39 686.638 264.774L688.728 128.034C688.768 125.419 686.68 123.266 684.064 123.226L587.428 121.749C584.813 121.709 582.66 123.796 582.62 126.411L580.531 263.151C580.492 265.767 582.579 267.92 585.194 267.96Z" fill="#25334C"/>
<path d="M585.651 258.86L681.317 260.323L683.322 129.31L587.655 127.847L585.651 258.86Z" fill="#C9E3FF"/>
<path d="M579.563 213.455L589.737 213.611L589.892 203.437L579.718 203.281L579.563 213.455Z" fill="#1685FF"/>
<path d="M579.981 178.2L594.517 178.423L594.672 168.249L580.137 168.026L579.981 178.2Z" fill="#1685FF"/>
<path d="M579.588 203.884L594.607 204.114L594.763 193.94L579.743 193.71L579.588 203.884Z" fill="white"/>
<path d="M588.075 183.35L626.392 179.094L621.078 131.261L582.762 135.517L588.075 183.35Z" fill="#E5F2FF"/>
<path opacity="0.43" d="M583.765 142.279L583.911 144.165L592.718 141.285L583.765 142.279Z" fill="#BDD1E4"/>
<path d="M598.869 257.628L681.402 258.889L683.396 128.437L590.846 127.023L589.005 247.459C592.857 251.43 595.017 253.657 598.869 257.628Z" fill="white"/>
<path d="M584.266 147.548L592.732 146.607C594.189 146.445 595.237 145.135 595.075 143.679L595.076 143.692C594.914 142.235 593.603 141.187 592.147 141.348L581.642 142.515C580.185 142.677 579.137 143.988 579.298 145.444L579.38 146.183C579.543 147.639 580.872 148.854 582.328 148.693L584.283 148.476" stroke="#A3C3FC" stroke-width="0.3224" stroke-miterlimit="10"/>
<path d="M616.542 131.049L654.679 131.632C656.791 131.664 658.531 129.979 658.562 127.867L658.623 123.888C658.655 121.776 656.97 120.036 654.857 120.005L616.72 119.422C614.608 119.39 612.87 121.075 612.837 123.187L612.776 127.166C612.744 129.278 614.431 131.018 616.542 131.049Z" fill="#D86A6A"/>
<path d="M599.415 257.636L599.568 247.583L589.551 247.429L597.471 257.526L599.415 257.636Z" fill="#BCCDF1"/>
<path d="M597.416 257.606L597.57 247.553L587.553 247.399L597.416 257.606Z" fill="white"/>
<path d="M621.116 136.065L649.944 136.507L650.085 127.301L621.257 126.859L621.116 136.065Z" fill="#1685FF"/>
<path d="M612.718 130.99L658.504 131.69L658.624 123.886C658.655 121.774 656.97 120.035 654.857 120.003L616.72 119.42C614.608 119.388 612.87 121.074 612.837 123.186L612.718 130.99Z" fill="#1685FF"/>
<path d="M600.348 141.949C600.388 139.34 602.535 137.257 605.144 137.297C607.753 137.337 609.836 139.484 609.796 142.093C609.756 144.702 607.608 146.785 604.999 146.745C602.39 146.705 600.308 144.557 600.348 141.949Z" fill="#A3C3FC"/>
<path d="M625.736 155.24L637.877 155.425C638.478 155.435 638.974 154.954 638.984 154.352C638.993 153.751 638.513 153.255 637.91 153.245L625.769 153.059C625.168 153.05 624.672 153.531 624.662 154.132C624.653 154.734 625.134 155.23 625.736 155.24Z" fill="#A3C3FC"/>
<path d="M600.272 154.851L620.797 155.164C621.399 155.174 621.895 154.693 621.904 154.09C621.914 153.488 621.433 152.993 620.83 152.983L600.304 152.669C599.703 152.66 599.207 153.141 599.197 153.744C599.189 154.345 599.67 154.841 600.272 154.851Z" fill="#A3C3FC"/>
<path d="M637.566 164.143L600.563 163.578" stroke="#A3C3FC" stroke-width="0.3224" stroke-miterlimit="10"/>
<path d="M637.466 170.684L600.462 170.118" stroke="#A3C3FC" stroke-width="0.3224" stroke-miterlimit="10"/>
<path d="M676.192 185.451L597.339 184.246" stroke="#25334C" stroke-width="0.155" stroke-miterlimit="10"/>
<path d="M657.096 197.456L671.789 197.68C672.144 197.686 672.435 197.403 672.441 197.048L672.442 197C672.448 196.645 672.165 196.353 671.81 196.348L657.117 196.123C656.762 196.117 656.47 196.4 656.465 196.755L656.463 196.804C656.459 197.159 656.742 197.451 657.096 197.456Z" fill="#1685FF"/>
<path d="M628.724 197.022L637.941 197.163C638.226 197.168 638.459 196.941 638.463 196.657L638.468 196.352C638.473 196.068 638.246 195.835 637.961 195.83L628.744 195.689C628.459 195.685 628.227 195.911 628.222 196.196L628.217 196.5C628.213 196.785 628.44 197.018 628.724 197.022Z" fill="#A3C3FC"/>
<path d="M628.516 210.589L637.733 210.73C638.018 210.735 638.25 210.508 638.255 210.224L638.26 209.919C638.265 209.635 638.038 209.402 637.753 209.397L628.536 209.256C628.251 209.252 628.019 209.479 628.014 209.763L628.009 210.067C628.006 210.351 628.233 210.584 628.516 210.589Z" fill="#A3C3FC"/>
<path d="M628.439 215.676L637.656 215.817C637.94 215.821 638.173 215.594 638.178 215.31L638.183 215.006C638.187 214.721 637.96 214.489 637.676 214.484L628.46 214.343C628.175 214.338 627.943 214.565 627.938 214.849L627.933 215.154C627.928 215.438 628.155 215.672 628.439 215.676Z" fill="#A3C3FC"/>
<path d="M656.996 203.997L671.689 204.222C672.044 204.228 672.335 203.944 672.341 203.59L672.342 203.541C672.348 203.186 672.065 202.895 671.71 202.889L657.017 202.665C656.662 202.659 656.37 202.942 656.365 203.297L656.363 203.345C656.359 203.7 656.641 203.991 656.996 203.997Z" fill="#1685FF"/>
<path d="M656.896 210.537L671.589 210.762C671.943 210.768 672.235 210.484 672.241 210.129L672.242 210.081C672.248 209.726 671.965 209.435 671.61 209.429L656.917 209.204C656.562 209.199 656.27 209.482 656.264 209.837L656.263 209.885C656.257 210.24 656.541 210.532 656.896 210.537Z" fill="#1685FF"/>
<path d="M656.796 217.079L671.489 217.303C671.844 217.309 672.135 217.026 672.141 216.671L672.142 216.623C672.148 216.268 671.865 215.977 671.51 215.971L656.817 215.746C656.462 215.74 656.171 216.024 656.165 216.378L656.164 216.427C656.158 216.782 656.441 217.073 656.796 217.079Z" fill="#1685FF"/>
<path d="M618.552 206.678C620.491 202.023 618.289 196.677 613.633 194.737C608.978 192.798 603.632 195 601.693 199.656C599.754 204.311 601.956 209.657 606.611 211.596C611.267 213.535 616.613 211.333 618.552 206.678Z" stroke="#A3C3FC" stroke-width="2.1242" stroke-miterlimit="10"/>
<path d="M619.266 203.15C619.266 198.107 615.177 194.018 610.134 194.018C605.091 194.018 601.002 198.107 601.002 203.15" stroke="#1685FF" stroke-width="2.1242" stroke-miterlimit="10"/>
<path d="M616.591 235.698C620.157 232.133 620.157 226.351 616.591 222.784C613.025 219.218 607.243 219.218 603.676 222.784C600.11 226.349 600.11 232.132 603.676 235.698C607.243 239.265 613.024 239.265 616.591 235.698Z" stroke="#A3C3FC" stroke-width="2.1242" stroke-miterlimit="10"/>
<path d="M616.59 235.698C620.157 232.133 620.157 226.351 616.59 222.784" stroke="#1685FF" stroke-width="2.1242" stroke-miterlimit="10"/>
<path d="M648.392 160.026C648.487 153.78 653.629 148.793 659.875 148.889C666.122 148.984 671.108 154.125 671.013 160.372C670.918 166.618 665.776 171.605 659.53 171.51C653.283 171.415 648.297 166.273 648.392 160.026Z" fill="#A3C3FC"/>
<path d="M573.943 461.515L572.881 474.568L552.188 475.455L563.788 468.914L566.126 460.734L573.943 461.515Z" fill="#FFBDBD"/>
<path d="M564.433 459.691L572.882 474.568L574.594 460.864L564.433 459.691Z" fill="#EC8492"/>
<path d="M563.782 467.769L550.494 475.847L575.636 476.107L573.943 467.9L568.993 472.719L563.782 467.769Z" fill="#1685FF"/>
<path d="M561.292 469.263L563.61 470.748" stroke="white" stroke-width="0.3042" stroke-miterlimit="10"/>
<path d="M559.225 470.236L561.541 471.721" stroke="white" stroke-width="0.3042" stroke-miterlimit="10"/>
<path d="M596.469 464.021L594.733 475.099L615.629 476.757L603.797 469.602L604.456 463.58L596.469 464.021Z" fill="#FFBDBD"/>
<path d="M604.456 463.58L596.469 464.021L594.733 475.099L604.456 463.58Z" fill="#EC8492"/>
<path d="M604.687 468.942L616.541 476.757L594.005 476.498L595.487 469.417L598.955 474.153L604.687 468.942Z" fill="#1685FF"/>
<path d="M606.936 470.351L604.553 471.727" stroke="white" stroke-width="0.3042" stroke-miterlimit="10"/>
<path d="M608.955 471.42L606.572 472.795" stroke="white" stroke-width="0.3042" stroke-miterlimit="10"/>
<path d="M600.257 340.883L580.407 341.005C580.407 341.005 577.234 343.333 574.061 355.391C570.195 370.084 564.403 408.317 562.499 463.427L576.939 463.86L588.766 379.749C589.12 378.523 590.934 378.82 590.878 380.094L594.757 464.804L608.986 464.25C608.986 464.25 617.24 371.915 611.756 358.097C606.272 344.281 600.257 340.883 600.257 340.883Z" fill="#25334C"/>
<path d="M606.842 363.745L603.961 464.589" stroke="white" stroke-width="0.3042" stroke-miterlimit="10"/>
<path d="M577.734 363.111L566.096 463.531" stroke="white" stroke-width="0.3042" stroke-miterlimit="10"/>
<path d="M578.112 463.601L579.024 456.175L560.525 450.312L561.176 464.121L578.112 463.601Z" fill="#7692E0"/>
<path d="M594.758 464.805C595.048 464.513 595.438 456.826 595.438 456.826L611.723 451.876L610.029 464.643L594.758 464.805Z" fill="#7692E0"/>
<path d="M548.872 302.357C548.872 302.357 559.469 333.653 564.753 332.121L564.673 316.626C564.478 316.934 555.65 299.403 555.65 299.403C555.65 299.403 552.991 295.003 551.797 294.312C551.797 294.312 546.977 290.403 547.562 292.162C548.149 293.92 549.907 295.875 549.907 295.875L548.8 301.932" fill="#FFBDBD"/>
<path d="M552.259 299.172L554.914 287.975" stroke="#1685FF" stroke-width="1.7589" stroke-miterlimit="10" stroke-linecap="round"/>
<path d="M555.436 299.263C555.436 299.263 555.404 294.789 554.777 294.704C554.149 294.62 551.185 294.843 550.9 295.861C550.614 296.879 553.127 296.826 553.127 296.826C553.127 296.826 551.948 298.913 552.961 299.591C553.973 300.268 555.436 299.263 555.436 299.263Z" fill="#FFBDBD"/>
<path d="M590.348 295.906C590.348 295.906 581.401 301.319 578.334 304.373C575.268 307.429 564.375 315.713 564.375 315.713L556.939 301.247L549.94 307.584C549.94 307.584 558.858 332.975 563.88 333.131C568.901 333.289 601.262 310.776 590.348 295.906Z" fill="white"/>
<path d="M578.633 310.139C578.633 310.139 572.12 305.579 577.07 303.365C582.02 301.15 578.243 301.15 575.246 299.717C572.25 298.284 576.289 297.633 579.023 296.59C581.758 295.548 579.415 294.246 577.069 292.812C574.724 291.379 576.027 289.686 576.027 289.686L576.722 282.973C576.076 281.652 577.977 277.792 578.409 276.383C579.718 272.103 586.661 269.815 591.969 272.052C591.969 272.052 603.514 276.398 601.69 280.568C599.496 285.582 601.56 286.169 604.686 286.561C607.812 286.951 610.158 289.297 606.9 291.641C604.044 293.698 602.081 294.508 604.686 295.94C607.292 297.373 611.069 296.461 611.199 299.197C611.33 301.933 605.207 302.064 606.38 304.017C607.553 305.971 611.852 303.886 613.674 307.013C615.498 310.139 615.759 311.572 615.759 311.572L578.633 310.139Z" fill="#1E2F4D"/>
<path d="M591.536 283.002C591.594 283.188 591.792 283.29 591.976 283.225C592.743 282.957 594.46 282.184 595.402 284.108C596.354 286.053 594.811 287.862 593.667 288.326C593.337 288.46 592.585 288.795 592.443 289.122C592.004 290.125 592.247 291.903 592.421 294.165C592.807 299.159 597.128 300.015 597.128 300.015C597.128 300.015 585.985 309.519 584.062 303.562C584.818 302.292 584.362 292.718 582.925 293.236C581.04 293.917 577.316 293.072 576.938 284.523C576.587 276.603 582.038 275.302 583.461 275.079C584.66 274.891 588.674 273.787 591.536 283.002Z" fill="#FFBDBD"/>
<path d="M579.504 275.648C579.504 275.648 590.226 282.86 591.788 283.227C591.788 283.227 592.726 269.606 579.504 275.648Z" fill="#1E2F4D"/>
<path d="M594.727 284.992C594.727 284.992 592.644 282.859 592.285 286.799Z" fill="#EC8492"/>
<path d="M584.862 285.306C583.858 285.625 583.304 286.699 583.623 287.703C583.943 288.706 585.017 289.261 586.02 288.941C587.024 288.622 587.578 287.548 587.259 286.544C586.939 285.541 585.866 284.986 584.862 285.306Z" fill="#FF9C9C"/>
<path d="M577.574 288.564C578.349 288.13 578.739 287.199 578.458 286.321C578.242 285.644 577.684 285.171 577.035 285.033C577.035 285.033 576.952 287.294 577.574 288.564Z" fill="#FF9C9C"/>
<path d="M580.389 284.717L580.629 286.83L579.528 286.736C579.325 286.718 579.214 286.49 579.327 286.32L580.389 284.717Z" fill="#EC8492"/>
<path d="M583.47 282.44C583.822 282.691 583.285 281.575 582.801 281.442C582.317 281.31 581.832 281.541 581.717 281.959C581.717 281.959 582.622 281.836 583.47 282.44Z" fill="black"/>
<path d="M577.607 282.26C577.25 282.507 577.803 281.398 578.29 281.272C578.776 281.146 579.258 281.384 579.367 281.803C579.367 281.803 578.464 281.668 577.607 282.26Z" fill="black"/>
<path d="M582.152 285.013C582.132 285.388 581.969 285.682 581.788 285.673C581.607 285.664 581.476 285.352 581.496 284.977C581.516 284.603 581.679 284.308 581.86 284.317C582.041 284.328 582.172 284.639 582.152 285.013Z" fill="black"/>
<path d="M578.881 284.817C578.862 285.174 578.707 285.457 578.534 285.448C578.36 285.438 578.235 285.141 578.254 284.784C578.273 284.427 578.429 284.143 578.602 284.153C578.776 284.162 578.901 284.459 578.881 284.817Z" fill="black"/>
<path d="M583.352 293.221C583.352 293.221 586.008 292.316 587.7 291.61C589.394 290.902 585.142 297.786 583.352 293.221Z" fill="black"/>
<path d="M580.75 283.807C580.802 285.905 581.61 287.333 582.991 287.299C584.372 287.265 585.981 284.814 585.928 282.717C586.059 282.13 585.504 283.586 584.235 283.042C583.779 282.847 582.049 282.18 580.75 283.807Z" stroke="#1E334D" stroke-width="0.3347" stroke-miterlimit="10"/>
<path d="M575.442 282.651C575.489 284.552 576.404 286.98 577.656 286.95C578.907 286.918 579.983 285.79 579.936 283.888C579.306 282.619 578.387 282.88 577.135 282.912C575.883 282.943 575.395 280.749 575.442 282.651Z" stroke="#1E334D" stroke-width="0.3347" stroke-miterlimit="10"/>
<path d="M580.767 284.312L579.783 284.324" stroke="#1E334D" stroke-width="0.3347" stroke-miterlimit="10"/>
<path d="M585.733 284.263L593.421 282.618" stroke="#1E334D" stroke-width="0.3347" stroke-miterlimit="10"/>
<path d="M593.377 299.436C593.377 299.436 595.243 298.921 594.93 299.313C594.618 299.705 593.952 300.136 593.287 300.569L593.377 299.436Z" fill="#C20600"/>
<path d="M584.017 298.168C584.219 298.673 575.38 315.828 575.568 320.768C575.758 325.742 579.054 341.708 578.78 342.453C578.78 342.453 582.601 345.543 603.925 342.446C610.536 336.8 605.021 309.717 602.896 303.53C602.896 303.53 594.797 296.586 592.995 296.432C592.995 296.432 586.71 305.97 584.017 298.168Z" fill="#A3C3FC"/>
<path d="M595.852 299.29C595.852 299.29 589.557 315.495 586.289 318.931C583.02 322.366 588.978 370.831 588.978 370.831L620.561 372.627C620.561 372.627 615.444 353.935 607.335 345.63C612.766 316.381 606.144 310.649 606.144 310.649C605.547 305.458 601.921 301.12 596.919 299.611L595.852 299.29Z" fill="white"/>
<path d="M594.657 299.038C589.413 310.689 591.313 308.659 586.023 319.318C586.023 319.318 585.228 333.968 585.8 337.946C585.8 337.946 595.29 318.802 597.319 315.227L596.408 310.499L600.384 309.861L598.749 299.793L594.657 299.038Z" fill="#224382"/>
<path d="M593.786 296.309C593.786 296.309 589.358 310.578 584.95 319.461C584.95 319.461 583.552 332.515 584.124 336.493C584.124 336.493 593.41 317.618 595.439 314.044L594.495 309.937L598.105 308.988L599.15 299.404L593.786 296.309Z" fill="white"/>
<path d="M582.139 339.633L607.554 322.292L607.172 326.672C607.172 326.672 603.85 341.616 601.273 345.948C598.564 350.504 595.479 355.719 588.587 348.164L582.139 339.633Z" fill="#25334C"/>
<path d="M583.67 298.25C583.67 298.25 580.176 313.151 580.838 319.834C580.949 320.952 583.582 370.881 583.582 370.881L564.701 370.134L578.134 303.656L583.67 298.25Z" fill="white"/>
<path d="M583.839 297.346C583.651 297.468 580.459 299.849 580.459 299.849L579.616 302.88L581.144 304.822L578.954 306.285C578.954 306.285 576.342 311.963 578.852 325.209C581.361 338.455 580.842 335.16 580.842 335.16L583.839 297.346Z" fill="white"/>
<path d="M583.747 299.826C583.504 299.643 580.31 302.025 580.31 302.025L579.468 305.054L580.996 306.996L577.714 307.575C577.714 307.575 576.195 314.137 578.704 327.383C581.213 340.629 580.75 337.639 580.75 337.639L583.747 299.826Z" fill="#224382"/>
<path d="M584.417 297.778C584.229 297.9 580.457 299.85 580.457 299.85L579.615 302.88L581.142 304.822L577.894 307.365C577.894 307.365 577.734 313.985 580.245 327.232C582.754 340.478 580.89 336.13 580.89 336.13L584.417 297.778Z" fill="white"/>
<path d="M576.63 324.768C576.556 324.258 576.48 323.737 576.244 323.28C576.008 322.823 575.576 322.433 575.063 322.386C574.386 322.325 573.797 322.863 573.449 323.446C573.285 323.719 573.154 324.01 573.055 324.313C573.029 324.394 573.013 324.5 573.083 324.548C573.124 324.576 573.179 324.57 573.229 324.565C574.276 324.442 575.319 324.971 576.364 324.837" fill="#35445C"/>
<path d="M572.896 325.324L576.656 325.369C576.901 325.372 577.101 325.176 577.104 324.932C577.108 324.687 576.912 324.486 576.667 324.484L572.906 324.439C572.662 324.436 572.462 324.632 572.459 324.876C572.455 325.121 572.651 325.321 572.896 325.324Z" fill="#ADBEDE"/>
<path d="M574.644 337.173L566.167 309.427C565.697 307.888 564.605 306.638 563.174 306L545.231 297.994C544.7 297.756 544.147 298.279 544.325 298.848L552.901 326.034C553.363 327.497 554.39 328.697 555.738 329.347L573.719 338.013C574.249 338.268 574.821 337.75 574.644 337.173Z" fill="#25334C"/>
<path d="M573.916 337.597L565.439 309.851C564.969 308.312 563.877 307.062 562.446 306.424L544.503 298.418C543.972 298.181 543.418 298.704 543.598 299.272L552.174 326.458C552.636 327.922 553.663 329.121 555.011 329.771L572.992 338.438C573.521 338.694 574.092 338.174 573.916 337.597Z" fill="#E6E9FC"/>
<path d="M548.872 302.357C548.931 302.259 558.559 306.721 558.559 306.721L557.612 303.35L547.687 298.983L548.872 302.357Z" fill="#1685FF"/>
<path d="M550.623 301.193C550.682 301.094 555.734 303.328 555.734 303.328L555.003 300.728C554.867 300.243 554.512 299.848 554.043 299.66L552.757 299.145C551.463 298.628 550.161 299.878 550.623 301.193Z" fill="#1685FF"/>
<path d="M572.763 327.889C572.763 327.889 591.223 349.873 595.39 346.279L588.862 332.225C588.813 332.586 573.485 320.326 573.485 320.326C573.485 320.326 563.036 316.088 562.772 317.443C562.589 318.384 569.032 319.13 568.421 319.122C568.356 319.121 562.74 318.107 562.19 318.643C561.378 319.435 567.951 320.713 567.87 321.158C567.87 321.158 561.304 321.201 561.098 321.857C560.893 322.513 567.65 323 567.516 323.196C567.382 323.392 563.965 323.15 563.559 324.002C563.154 324.852 572.763 327.889 572.763 327.889Z" fill="#FFBDBD"/>
<path d="M569.738 319.383C569.738 319.383 567.245 314.331 568.358 314.937C569.47 315.544 575.172 321.836 575.172 321.836" fill="#FFBDBD"/>
<path d="M602.374 302.969C602.374 302.969 597.693 311.341 596.178 315.396C594.663 319.45 588.211 331.52 588.211 331.52L575.426 321.466L571.703 330.141C571.703 330.141 590.387 349.511 595.016 347.562C599.647 345.612 618.491 311.942 602.374 302.969Z" fill="white"/>
<path d="M485.969 154.427L494.578 177.309L480.981 190.663C484.975 191.852 516.676 190.924 515.634 177.896C515.146 171.799 511.337 163.569 509.729 158.954L485.969 154.427Z" fill="#25334C"/>
<path d="M471.416 189.799C471.127 189.668 464.035 190.241 463.73 189.525C463.271 188.449 471.192 187.95 471.326 187.936C473.341 187.713 463.765 188.709 463.272 188.044C462.778 187.382 467.115 186.626 467.268 186.597C467.268 186.597 471.019 186.169 471.045 185.889C471.072 185.609 462.402 185.748 462.919 185.026C463.436 184.304 468.954 183.375 470.352 183.321C471.749 183.268 473.247 182.571 474.298 182.422C475.746 182.216 468.995 180.132 470.334 178.524C470.334 178.524 476.463 179.499 478.551 180.495C479.649 181.019 495.067 172.415 495.067 172.415C496.681 171.524 496.705 171.157 495.857 169.521L485.175 145.838C485.175 145.838 480.993 134.799 486.481 134.463C494.659 133.962 508.237 144.486 513.907 172.876C515.194 179.317 512.28 183.948 503.821 186.353L496.486 187.632L496.548 187.792C481.661 190.705 471.922 191.013 470.133 191.138C469.11 191.208 466.011 191.1 465.856 190.709C465.498 189.813 471.704 189.931 471.416 189.799Z" fill="#F69491"/>
<path d="M482.463 179.045C480.427 180.015 478.87 180.649 478.548 180.496C476.461 179.499 470.33 178.524 470.33 178.524C468.993 180.133 475.744 182.216 474.296 182.422C473.245 182.571 471.747 183.268 470.349 183.321C468.952 183.374 463.434 184.304 462.917 185.026C462.4 185.749 469.51 185.836 469.483 186.117C469.456 186.398 467.264 186.598 467.264 186.598C467.111 186.627 462.775 187.383 463.268 188.046C463.762 188.708 473.338 187.714 471.322 187.936C471.19 187.952 463.268 188.45 463.727 189.525C464.032 190.241 471.125 189.667 471.414 189.799C471.703 189.931 465.496 189.813 465.852 190.709C466.007 191.1 469.106 191.209 470.128 191.138C471.414 191.048 476.804 190.864 485.26 189.686C484.368 186.129 483.451 182.578 482.463 179.045Z" fill="white" stroke="white" stroke-width="0.2045" stroke-miterlimit="10"/>
<path d="M483.6 128.221C483.6 128.221 465.612 128.308 490.975 163.73L513.047 158.385C513.047 158.385 496.764 124.365 483.6 128.221Z" fill="#7692E0"/>
<path d="M488.728 159.571L511.289 153.975" stroke="white" stroke-width="0.1213" stroke-miterlimit="10"/>
</g>
<defs>
<clipPath id="clip0_355_588">
<rect width="750" height="500" fill="white"/>
</clipPath>
</defs>
</svg>
