<svg width="1710" height="1133" viewBox="0 0 1710 1133" fill="none" xmlns="http://www.w3.org/2000/svg">
<path d="M1273.8 958.07C1245.09 987.666 1219.4 1005.06 1199.73 1018.2C1007.89 1146.29 788.591 1109.37 720.79 1096.75C611.402 1076.39 519.064 1062.03 439.729 990.355C259.456 827.485 268.224 487.726 405.975 277.261C422.308 252.305 559.85 48.4253 779.619 19.6968C784.995 18.994 789.006 18.5941 792.518 18.2222C826.516 14.6226 1037.19 -4.37551 1208.98 139.547C1233.57 160.149 1273.14 197.309 1309.84 253.985C1444.02 461.217 1444.45 782.174 1273.8 958.07Z" fill="url(#paint0_linear_356_1067)"/>
<path d="M310.906 389.803C344.259 485.764 563.012 1071.04 947.286 1102.7C958.92 1103.66 967.482 1091.98 963.088 1081.16C935.126 1012.34 833.979 799.682 589.095 610.601C412.411 474.18 340.175 409.023 316.33 386.307C313.806 383.903 309.761 386.51 310.906 389.803Z" fill="#91B3FA"/>
<path d="M963.402 1084.79C962.576 1084.86 961.72 1084.65 960.989 1084.14C810.519 977.978 678.246 845.632 593.78 753.303C503.033 654.107 441.651 572.84 440.727 566.926C440.418 564.94 441.777 563.079 443.764 562.769C445.598 562.495 447.35 563.634 447.835 565.396C453.615 578.039 679.397 876.555 965.188 1078.19C966.83 1079.35 967.222 1081.62 966.064 1083.26C965.42 1084.18 964.433 1084.7 963.402 1084.79ZM447.921 565.795C447.922 565.799 447.921 565.8 447.923 565.804C447.921 565.8 447.922 565.797 447.921 565.795Z" fill="#BDD0FB"/>
<path d="M1031.75 1109.43C1115.3 1116.8 1358.32 1101.95 1406.5 691.209C1407.87 679.546 1392.92 673.604 1385.97 683.068C1353.41 727.399 1295.17 803.061 1241.87 829.957C1076.72 913.287 1025.31 1025.45 1009.85 1077.11C1005.27 1092.41 1015.84 1108.02 1031.75 1109.43Z" fill="#91B3FA"/>
<path d="M1018.14 1097.19C1018.13 1097.17 1018.12 1097.14 1018.11 1097.11C1017.17 1094.79 1018.29 1092.15 1020.61 1091.21C1136.55 1044.25 1217.47 968.475 1264.94 913.175C1316.44 853.17 1340.79 803.634 1341.03 803.141C1342.13 800.89 1344.84 799.951 1347.09 801.046C1349.34 802.141 1350.28 804.853 1349.19 807.103C1348.94 807.605 1324.21 857.992 1272.02 918.847C1223.87 974.989 1141.76 1051.92 1024.01 1099.61C1021.72 1100.54 1019.11 1099.46 1018.14 1097.19Z" fill="#BDD0FB"/>
<path d="M1071.87 1045.39C1071.35 1081.16 1025.45 1119.27 972.407 1119.27C919.367 1119.27 879.265 1091.32 876.371 1055.66C869.466 970.625 919.367 971.513 972.407 971.513C1025.45 971.512 1073.16 956.998 1071.87 1045.39Z" fill="url(#paint1_linear_356_1067)"/>
<path d="M1110.86 993.188C1112.42 1012.54 1053.68 1033.06 979.655 1039.03C905.634 1044.99 844.363 1034.15 842.803 1014.8C841.243 995.453 899.985 974.93 974.006 968.962C1048.03 962.994 1109.3 973.84 1110.86 993.188Z" fill="url(#paint2_linear_356_1067)"/>
<path d="M1110.86 959.172C1112.42 978.52 1053.68 999.042 979.655 1005.01C905.634 1010.98 844.363 1000.13 842.803 980.785C841.243 961.437 899.985 940.915 974.006 934.946C1048.03 928.978 1109.3 939.824 1110.86 959.172Z" fill="url(#paint3_linear_356_1067)"/>
<path d="M1110.86 925.157C1112.42 944.504 1053.68 965.027 979.655 970.995C905.634 976.963 844.363 966.117 842.803 946.769C841.243 927.422 899.985 906.899 974.006 900.931C1048.03 894.964 1109.3 905.809 1110.86 925.157Z" fill="url(#paint4_linear_356_1067)"/>
<path d="M1110.86 891.141C1112.42 910.488 1053.68 931.011 979.655 936.979C905.634 942.947 844.363 932.101 842.803 912.753C841.243 893.406 899.985 872.883 974.006 866.916C1048.03 860.947 1109.3 871.793 1110.86 891.141Z" fill="url(#paint5_linear_356_1067)"/>
<path d="M939.754 1042.46C917.77 1042.46 897.655 1040.84 881.035 1037.66C880.071 1037.47 879.439 1036.54 879.624 1035.58C879.808 1034.61 880.735 1033.98 881.704 1034.17C907.71 1039.15 942.445 1040.24 979.511 1037.25C1009.84 1034.81 1038.2 1029.92 1061.54 1023.11C1062.48 1022.83 1063.47 1023.37 1063.74 1024.32C1064.02 1025.26 1063.48 1026.25 1062.53 1026.52C1038.97 1033.4 1010.36 1038.33 979.797 1040.8C966.029 1041.91 952.574 1042.46 939.754 1042.46Z" fill="url(#paint6_linear_356_1067)"/>
<path d="M940.123 1008.41C911.561 1008.41 886.036 1005.73 868.031 1000.6C867.087 1000.33 866.54 999.346 866.808 998.401C867.078 997.457 868.057 996.911 869.006 997.178C894.661 1004.48 935.97 1006.75 979.511 1003.24C1022.58 999.766 1062.75 991.026 1086.96 979.86C1087.85 979.45 1088.91 979.838 1089.32 980.729C1089.73 981.62 1089.34 982.677 1088.45 983.088C1063.88 994.42 1023.26 1003.28 979.797 1006.78C966.234 1007.88 952.875 1008.41 940.123 1008.41Z" fill="url(#paint7_linear_356_1067)"/>
<path d="M939.758 974.421C908.919 974.421 881.931 971.265 863.767 965.276C862.834 964.969 862.328 963.963 862.635 963.031C862.942 962.098 863.944 961.591 864.88 961.899C890.158 970.234 933.011 972.97 979.511 969.223C1022.58 965.751 1062.75 957.01 1086.96 945.843C1087.85 945.434 1088.91 945.822 1089.32 946.713C1089.73 947.604 1089.34 948.661 1088.45 949.072C1063.88 960.404 1023.26 969.263 979.797 972.766C966.025 973.877 952.559 974.421 939.758 974.421Z" fill="url(#paint8_linear_356_1067)"/>
<path d="M939.996 940.389C915.532 940.389 893.282 938.411 875.984 934.568C875.026 934.355 874.421 933.405 874.635 932.446C874.847 931.487 875.801 930.882 876.755 931.097C902.766 936.876 940.22 938.374 979.511 935.206C1022.19 931.764 1062.16 923.12 1086.41 912.079C1087.3 911.67 1088.36 912.066 1088.77 912.961C1089.17 913.854 1088.78 914.908 1087.88 915.315C1063.27 926.517 1022.87 935.277 979.798 938.75C966.188 939.848 952.788 940.389 939.996 940.389Z" fill="url(#paint9_linear_356_1067)"/>
<path d="M793.12 753.451C784.13 721.609 768.86 691.85 748.294 665.931C704.228 610.394 632.34 497.448 623.491 343.297C610.62 119.078 809.477 6.82184 990.937 22.0614C1172.4 37.301 1351.45 172.411 1331.85 381.003C1319.79 509.35 1247.95 606.704 1194.46 662.613C1160.5 698.116 1136.27 741.599 1123.16 788.949C1107.11 846.904 1068.91 919.127 978.111 923.529C860.625 929.226 811.829 819.715 793.12 753.451Z" fill="url(#paint10_linear_356_1067)"/>
<path d="M1008.12 878.816L1071.61 465.854C1072.93 457.323 1077.12 451.593 1080.99 453.057C1084.86 454.521 1086.93 462.624 1085.62 471.155C1085.58 471.382 1085.54 471.664 1085.5 471.887L1013.18 881.012C1012.63 884.088 1011.07 886.031 1009.69 885.351C1008.34 884.692 1007.67 881.795 1008.12 878.816Z" fill="url(#paint11_linear_356_1067)"/>
<path d="M942.214 882.095L878.722 469.133C877.41 460.602 873.211 454.872 869.344 456.336C865.476 457.8 863.404 465.903 864.716 474.434C864.751 474.662 864.798 474.943 864.837 475.166L937.16 884.291C937.704 887.367 939.267 889.311 940.65 888.631C941.992 887.971 942.67 885.074 942.214 882.095Z" fill="url(#paint12_linear_356_1067)"/>
<path d="M1071.16 430.397C1069.55 427.805 1065.82 426.836 1062.83 428.233L1027.47 444.752L1015.2 409.786C1014.55 407.961 1013.05 406.344 1010.9 405.46C1006.83 403.784 1001.97 405.283 1000.04 408.808L999.975 408.921L970.9 461.934L943.92 386.468L943.875 386.343C943.215 384.501 941.822 382.847 939.792 381.738C935.268 379.268 929.291 380.446 926.442 384.367L885.795 440.324C884.141 442.617 884.71 445.69 887.227 447.385C889.913 449.195 893.783 448.774 895.871 446.446L931.66 406.524L963.882 478.314L963.906 478.368C964.423 479.517 965.395 480.519 966.745 481.152C969.769 482.567 973.544 481.591 975.177 478.969L1006.27 429.07L1017.98 454.309L1018.08 454.533C1018.16 454.714 1018.26 454.893 1018.37 455.069C1019.98 457.659 1023.71 458.628 1026.7 457.231L1068.66 437.623C1071.66 436.225 1072.77 432.99 1071.16 430.397Z" fill="white"/>
<path d="M1195.85 603.312C1195.44 603.312 1195.02 603.185 1194.66 602.919C1193.78 602.263 1193.59 601.014 1194.25 600.128C1205.19 585.39 1215.23 570.142 1224.09 554.807C1224.64 553.851 1225.86 553.526 1226.81 554.077C1227.77 554.628 1228.09 555.848 1227.54 556.801C1218.61 572.27 1208.48 587.646 1197.45 602.507C1197.06 603.034 1196.46 603.312 1195.85 603.312Z" fill="white"/>
<path d="M1248.08 513.669C1247.82 513.669 1247.55 513.616 1247.29 513.505C1246.28 513.066 1245.82 511.89 1246.26 510.88C1281.85 428.915 1282.29 354.332 1276.4 306.196C1270.01 254.001 1254.99 220.772 1254.84 220.442C1254.38 219.44 1254.82 218.256 1255.83 217.798C1256.83 217.34 1258.01 217.778 1258.47 218.779C1258.62 219.113 1273.86 252.786 1280.34 305.55C1286.32 354.212 1285.89 429.613 1249.92 512.469C1249.59 513.221 1248.85 513.669 1248.08 513.669Z" fill="white"/>
<path d="M793.12 753.451C784.13 721.609 768.86 691.85 748.294 665.931C704.228 610.394 632.34 497.448 623.491 343.297C610.62 119.078 809.477 6.82184 990.937 22.0614C1172.4 37.301 1351.45 172.411 1331.85 381.003C1319.79 509.35 1247.95 606.704 1194.46 662.613C1160.5 698.116 1136.27 741.599 1123.16 788.949C1107.11 846.904 1068.91 919.127 978.111 923.529C860.625 929.226 811.829 819.715 793.12 753.451Z" fill="#91B3FA"/>
<path d="M969.374 906.667C925.855 906.667 888.945 888.304 859.671 852.087C833.05 819.153 817.723 777.747 809.554 748.811C799.913 714.668 783.803 683.212 761.672 655.318C720.137 602.971 649.171 492.701 640.539 342.318C635.906 261.609 660.383 190.433 711.325 136.483C769.692 74.6697 861.961 37.7664 958.145 37.7664C968.609 37.7664 979.161 38.2073 989.509 39.0761C1092.32 47.7105 1189.66 95.85 1249.89 167.85C1299.79 227.495 1322.25 300.65 1314.85 379.406C1303.42 501.002 1236.37 594.112 1182.13 650.808C1146.75 687.791 1120.67 733.983 1106.7 784.391C1097.47 817.731 1083.74 844.851 1065.88 864.997C1043.04 890.775 1013.23 904.731 977.285 906.474C974.635 906.603 971.973 906.667 969.374 906.667Z" fill="#BDD0FB"/>
<mask id="mask0_356_1067" style="mask-type:luminance" maskUnits="userSpaceOnUse" x="639" y="37" width="678" height="870">
<path d="M969.374 906.667C925.855 906.667 888.945 888.304 859.671 852.087C833.05 819.153 817.723 777.747 809.554 748.811C799.913 714.668 783.803 683.212 761.672 655.318C720.137 602.971 649.171 492.701 640.539 342.318C635.906 261.609 660.383 190.433 711.325 136.483C769.692 74.6697 861.961 37.7664 958.145 37.7664C968.609 37.7664 979.161 38.2073 989.509 39.0761C1092.32 47.7105 1189.66 95.85 1249.89 167.85C1299.79 227.495 1322.25 300.65 1314.85 379.406C1303.42 501.002 1236.37 594.112 1182.13 650.808C1146.75 687.791 1120.67 733.983 1106.7 784.391C1097.47 817.731 1083.74 844.851 1065.88 864.997C1043.04 890.775 1013.23 904.731 977.285 906.474C974.635 906.603 971.973 906.667 969.374 906.667Z" fill="white"/>
</mask>
<g mask="url(#mask0_356_1067)">
<path d="M1292.46 387.682C1296.9 394.772 1301.58 404.937 1300.45 415.102C1298.4 433.583 1270.05 441.797 1245.21 431.529C1227.46 424.196 1235.07 400.099 1240.86 386.928C1242.68 382.785 1239.59 378.14 1235.06 378.14H1171.08V306.07C1171.08 299.777 1177.74 295.73 1183.32 298.643C1190 302.132 1198.79 305.835 1208.04 307.295C1227.55 310.375 1247.06 288.814 1245.01 268.279C1242.95 247.745 1223.44 232.344 1202.91 233.371C1195.81 233.726 1189.9 236.695 1185.2 240.429C1179.8 244.727 1171.8 240.636 1171.8 233.731V170.739H1239.49C1243.22 170.739 1245.28 166.371 1242.88 163.518C1210.22 124.749 1275.8 87.082 1292.23 112.216C1304.83 131.476 1295.67 153.409 1289.59 164.132C1287.91 167.087 1290.02 170.739 1293.42 170.739H1358.97V235.898C1358.97 242.807 1350.99 246.871 1345.56 242.592C1339.91 238.133 1332.64 234.187 1324.06 233.37C1302.5 231.316 1290.18 251.851 1285.95 268.279C1281.73 284.707 1300.45 308.321 1319.96 305.241C1330.48 303.58 1341.29 300.513 1349.03 298.04C1354.45 296.307 1359.96 300.392 1359.93 306.08L1359.48 378.14H1297.84C1292.94 378.139 1289.86 383.531 1292.46 387.682Z" fill="url(#paint13_linear_356_1067)"/>
<path d="M1267.6 438.68C1259.87 438.68 1251.78 437.123 1244.19 433.988C1238.95 431.822 1235.27 428.193 1233.27 423.2C1228.82 412.137 1233.62 396.787 1238.43 385.857C1238.92 384.739 1238.81 383.503 1238.14 382.469C1237.45 381.408 1236.32 380.799 1235.06 380.799H1168.42V306.071C1168.42 302.174 1170.41 298.643 1173.74 296.626C1177.06 294.611 1181.1 294.487 1184.55 296.286C1192.95 300.669 1200.99 303.489 1208.46 304.668C1216.03 305.863 1224.24 302.889 1231 296.508C1238.98 288.971 1243.33 278.255 1242.36 268.544C1240.5 249.944 1222.49 235.054 1203.04 236.026C1197.35 236.311 1191.91 238.492 1186.86 242.51C1183.61 245.094 1179.24 245.568 1175.46 243.744C1171.56 241.865 1169.14 238.029 1169.14 233.732V168.08H1239.49C1240.5 168.08 1240.94 167.366 1241.08 167.058C1241.22 166.759 1241.48 165.982 1240.85 165.231C1228.69 150.808 1230.23 137.771 1233.65 129.376C1239.49 115.079 1256 103.132 1272.07 101.588C1282.02 100.625 1289.97 103.891 1294.46 110.761C1307.71 131.033 1298.55 153.723 1291.9 165.444C1291.44 166.251 1291.75 166.951 1291.9 167.215C1292.05 167.475 1292.5 168.08 1293.42 168.08H1361.63V235.898C1361.63 240.182 1359.22 244.011 1355.35 245.888C1351.57 247.721 1347.19 247.261 1343.91 244.681C1337.46 239.589 1330.7 236.674 1323.81 236.018C1304.5 234.184 1292.73 252.602 1288.53 268.942C1286.69 276.098 1289.85 285.509 1296.58 292.918C1303.21 300.212 1311.8 303.839 1319.54 302.614C1330.08 300.95 1340.95 297.831 1348.22 295.507C1351.61 294.42 1355.21 295.008 1358.08 297.121C1360.96 299.242 1362.61 302.513 1362.58 306.097L1362.12 380.799H1297.84C1296.49 380.799 1295.29 381.51 1294.63 382.701C1294.33 383.251 1293.73 384.699 1294.71 386.271C1299.21 393.457 1304.32 404.343 1303.09 415.395C1302.3 422.492 1297.96 428.71 1290.87 432.906C1284.38 436.746 1276.22 438.68 1267.6 438.68ZM1173.74 375.48H1235.06C1238.11 375.48 1240.93 377.006 1242.59 379.561C1244.24 382.092 1244.51 385.245 1243.29 387.999C1239.7 396.182 1234.25 411.377 1238.2 421.217C1239.67 424.881 1242.3 427.451 1246.22 429.072C1260.55 434.993 1277.4 434.692 1288.16 428.329C1292.14 425.977 1297.04 421.723 1297.8 414.808C1298.86 405.277 1294.25 395.565 1290.2 389.094C1288.48 386.34 1288.39 382.987 1289.98 380.125C1291.56 377.259 1294.58 375.48 1297.84 375.48H1356.84L1357.27 306.063C1357.28 304.203 1356.43 302.506 1354.93 301.407C1353.45 300.316 1351.59 300.015 1349.84 300.574C1342.39 302.954 1331.24 306.152 1320.37 307.868C1310.86 309.375 1300.49 305.121 1292.65 296.496C1284.74 287.797 1281.1 276.461 1283.38 267.616C1288.1 249.247 1301.7 228.569 1324.31 230.723C1332.23 231.477 1339.94 234.769 1347.21 240.505C1348.89 241.833 1351.06 242.054 1353.03 241.104C1354.62 240.333 1356.31 238.562 1356.31 235.899V173.398H1293.42C1290.87 173.398 1288.58 172.087 1287.3 169.891C1286.02 167.689 1286.01 165.045 1287.27 162.821C1293.32 152.153 1301.72 131.582 1290.01 113.673C1285.48 106.742 1277.14 106.445 1272.58 106.882C1258.34 108.251 1243.72 118.785 1238.58 131.386C1234.46 141.477 1236.65 151.996 1244.91 161.804C1246.69 163.918 1247.07 166.79 1245.9 169.302C1244.73 171.828 1242.27 173.398 1239.49 173.398H1174.46V233.731C1174.46 236.404 1176.17 238.181 1177.77 238.953C1179.72 239.893 1181.88 239.67 1183.55 238.346C1189.49 233.622 1195.95 231.055 1202.78 230.714C1225.33 229.59 1245.48 246.318 1247.65 268.013C1248.78 279.33 1243.8 291.73 1234.65 300.374C1226.68 307.895 1216.83 311.375 1207.63 309.921C1199.59 308.653 1191 305.65 1182.09 301C1180.31 300.067 1178.21 300.133 1176.49 301.174C1174.77 302.218 1173.74 304.049 1173.74 306.07V375.48Z" fill="#FCFAFA"/>
<path d="M1289.58 164.132C1295.66 153.409 1304.83 131.477 1292.23 112.216C1275.8 87.0822 1210.22 124.749 1242.88 163.518C1245.28 166.372 1243.22 170.74 1239.49 170.74H1171.8V97.8399C1171.8 91.6721 1165.38 87.6209 1159.81 90.2838C1151.99 94.0293 1141.18 98.2994 1130.01 99.8951C1108.45 102.975 1095.64 78.3338 1098.45 57.7984C1101.26 37.2633 1125.9 24.9427 1138.22 26.9962C1143.94 27.9499 1151.55 32.9503 1158.06 38.0356C1163.57 42.3431 1171.61 38.4501 1171.61 31.454V-39.7411H1237C1242.37 -39.7411 1245.4 -45.8805 1242.15 -50.1494C1228.47 -68.1134 1234.5 -90.4311 1253.22 -97.2374C1275.81 -105.452 1296.34 -99.2914 1299.42 -75.6762C1302.5 -52.0618 1285.35 -39.7407 1285.35 -39.7407C1285.35 -39.7407 1326.43 -39.7407 1357.08 -39.7407L1354.49 31.7703C1354.25 38.5798 1361.76 42.7911 1367.47 39.0621C1374.75 34.2995 1384.38 29.4584 1394.91 28.0236C1417.49 24.9434 1438.03 43.4245 1438.03 62.9333C1438.03 82.441 1420.57 106.056 1392.85 100.922C1382.79 99.0582 1375.56 96.8271 1370.45 94.7412C1364.96 92.5042 1358.97 96.5905 1358.97 102.52V170.74H1293.42C1290.02 170.74 1287.91 167.087 1289.58 164.132Z" fill="url(#paint14_linear_356_1067)"/>
<path d="M1361.63 173.398H1293.42C1290.87 173.398 1288.58 172.087 1287.3 169.891C1286.02 167.689 1286.01 165.045 1287.27 162.821C1293.32 152.153 1301.72 131.582 1290.01 113.673C1285.48 106.742 1277.14 106.445 1272.58 106.882C1258.34 108.251 1243.72 118.785 1238.58 131.386C1234.46 141.477 1236.65 151.996 1244.91 161.804C1246.69 163.918 1247.07 166.79 1245.9 169.302C1244.73 171.828 1242.27 173.398 1239.49 173.398H1169.14V97.8402C1169.14 95.8312 1168.17 94.0667 1166.48 92.9991C1164.78 91.9303 1162.77 91.8159 1160.96 92.6824C1153.52 96.2457 1142.17 100.845 1130.39 102.528C1121.74 103.764 1113.78 101.057 1107.38 94.6978C1098.61 85.9766 1093.96 71.0029 1095.82 57.4379C1097.08 48.1792 1102.65 39.4932 1111.49 32.9818C1120.19 26.5734 1131.11 23.1154 1138.66 24.3735C1143.92 25.2486 1150.99 29.1405 1159.69 35.9397C1161.47 37.328 1163.74 37.567 1165.75 36.585C1167.76 35.6084 1168.95 33.6905 1168.95 31.4543V-42.4009H1237C1238.49 -42.4009 1239.76 -43.1928 1240.42 -44.5187C1241.08 -45.851 1240.93 -47.3536 1240.03 -48.538C1232.73 -58.1251 1230.28 -69.5265 1233.31 -79.8189C1236.02 -89.0736 1242.95 -96.3339 1252.31 -99.7375C1266.36 -104.845 1279.19 -104.554 1288.46 -98.918C1296 -94.3368 1300.7 -86.4194 1302.06 -76.0205C1304.21 -59.5548 1297.22 -48.2974 1292.02 -42.4009H1359.83L1357.15 31.8653C1357.07 34.0404 1358.15 35.9752 1360.04 37.0413C1361.94 38.1152 1364.17 38.0371 1366.01 36.8362C1375.71 30.5003 1385.31 26.6475 1394.55 25.3879C1406.17 23.8036 1418.1 27.4978 1427.3 35.5244C1435.81 42.9535 1440.69 52.9434 1440.69 62.9333C1440.69 74.9696 1434.74 87.3956 1425.17 95.3611C1418.77 100.677 1407.9 106.409 1392.37 103.537C1383.38 101.871 1375.67 99.7396 1369.45 97.2025C1367.68 96.4871 1365.76 96.6831 1364.17 97.7519C1362.56 98.8361 1361.63 100.574 1361.63 102.519V173.398H1361.63ZM1275.4 101.424C1283.79 101.424 1290.48 104.675 1294.46 110.761C1307.71 131.033 1298.54 153.723 1291.9 165.444H1291.9C1291.44 166.251 1291.75 166.951 1291.9 167.215C1292.05 167.475 1292.5 168.08 1293.42 168.08H1356.31V102.519C1356.31 98.8282 1358.14 95.3962 1361.2 93.3379C1364.24 91.2966 1368.07 90.9006 1371.45 92.277C1377.34 94.678 1384.7 96.7064 1393.34 98.3064C1406.83 100.804 1416.25 95.8624 1421.76 91.2721C1430.03 84.3963 1435.37 73.2726 1435.37 62.9337C1435.37 54.4799 1431.15 45.9509 1423.8 39.531C1415.76 32.5176 1405.36 29.2828 1395.27 30.6581C1386.81 31.8113 1377.95 35.3876 1368.92 41.288C1365.44 43.5656 1361.03 43.7123 1357.42 41.6726C1353.82 39.6415 1351.68 35.8108 1351.83 31.6736L1354.32 -37.0813H1277.09L1283.8 -41.9004C1284.44 -42.3666 1299.61 -53.6615 1296.78 -75.3319C1295.63 -84.1998 1291.9 -90.6058 1285.7 -94.3726C1277.95 -99.084 1266.44 -99.2161 1254.13 -94.7374C1246.37 -91.9184 1240.65 -85.9347 1238.41 -78.3183C1235.87 -69.6673 1238 -59.9863 1244.26 -51.7585C1246.38 -48.9718 1246.74 -45.2929 1245.18 -42.1571C1243.63 -39.0261 1240.5 -37.081 1237 -37.081H1174.27V31.4559C1174.27 35.7086 1171.9 39.5058 1168.08 41.3665C1164.25 43.2379 1159.78 42.7611 1156.42 40.1329C1148.54 33.9737 1142.09 30.339 1137.78 29.6208C1131.66 28.6029 1122.14 31.7427 1114.64 37.2657C1106.97 42.9169 1102.16 50.3369 1101.09 58.1608C1099.45 70.1541 1103.48 83.3216 1111.13 90.9262C1114.74 94.5088 1120.87 98.5123 1129.63 97.2644C1140.75 95.6751 1151.56 91.2871 1158.67 87.8863C1162.11 86.2397 1166.09 86.468 1169.31 88.4991C1172.54 90.5314 1174.46 94.0233 1174.46 97.841V168.081H1239.49C1240.5 168.081 1240.94 167.366 1241.08 167.059C1241.22 166.76 1241.48 165.982 1240.84 165.231C1228.69 150.808 1230.23 137.772 1233.65 129.377C1239.48 115.079 1256 103.133 1272.07 101.589C1273.21 101.478 1274.32 101.424 1275.4 101.424Z" fill="#FCFAFA"/>
<path d="M1297.78 561.159C1304.07 549.953 1305.09 533.888 1275.8 519.829C1233.54 499.542 1224.95 537.711 1235.73 562.148C1238.46 568.338 1233.87 575.273 1227.11 575.273H1171.08V514.917C1171.08 508.941 1164.99 504.774 1159.49 507.109C1153.39 509.698 1145.07 512.179 1134.98 512.642C1112.55 513.668 1095.48 495.187 1098.88 469.519C1102.29 443.85 1124.12 437.69 1134.76 440.77C1140.32 442.378 1149.97 448.545 1157.93 454.071C1163.48 457.93 1171.08 453.949 1171.08 447.186V378.14H1235.06C1239.59 378.14 1242.68 382.785 1240.86 386.928C1235.06 400.1 1227.46 424.196 1245.2 431.529C1270.05 441.797 1298.39 433.583 1300.45 415.102C1301.58 404.937 1296.89 394.772 1292.45 387.682C1289.85 383.531 1292.94 378.14 1297.84 378.14H1359.48L1359.09 440.859C1359.05 448.398 1350.64 452.675 1344.38 448.476C1338.56 444.569 1331.47 441.182 1324.06 440.77C1305.58 439.744 1287.1 454.118 1286.01 472.599C1284.93 491.08 1298.39 514.694 1318.93 513.668C1328.63 513.183 1338.57 508.11 1346.35 502.895C1352.59 498.71 1360.95 503.201 1360.91 510.715L1360.52 575.272H1305.92C1298.67 575.272 1294.24 567.48 1297.78 561.159Z" fill="url(#paint15_linear_356_1067)"/>
<path d="M1363.16 577.931H1305.92C1301.6 577.931 1297.73 575.716 1295.55 572.005C1293.35 568.238 1293.31 563.697 1295.47 559.858C1298.73 554.043 1299.55 548.457 1297.9 543.252C1295.46 535.534 1287.64 528.46 1274.65 522.225C1259.79 515.094 1248.23 514.921 1241.21 521.719C1232.26 530.384 1232.63 548.534 1238.16 561.076C1239.8 564.788 1239.45 569.039 1237.23 572.445C1234.99 575.881 1231.21 577.931 1227.11 577.931H1168.42V514.917C1168.42 512.961 1167.44 511.147 1165.8 510.063C1164.2 509.001 1162.27 508.814 1160.53 509.556C1152.51 512.961 1143.96 514.894 1135.1 515.299C1123.69 515.815 1113.33 511.683 1105.96 503.645C1097.91 494.874 1094.46 482.63 1096.25 469.17C1098.21 454.388 1105.77 446.612 1111.77 442.692C1119.08 437.916 1128.4 436.159 1135.5 438.216C1140.35 439.619 1148.41 444.219 1159.45 451.887C1161.23 453.121 1163.43 453.26 1165.35 452.257C1167.27 451.252 1168.42 449.356 1168.42 447.186V375.479H1235.06C1238.11 375.479 1240.92 377.005 1242.59 379.561C1244.24 382.092 1244.5 385.245 1243.29 387.999C1239.69 396.181 1234.25 411.377 1238.2 421.216C1239.67 424.881 1242.3 427.451 1246.22 429.071C1260.55 434.993 1277.4 434.691 1288.16 428.329C1292.14 425.977 1297.04 421.723 1297.8 414.808C1298.86 405.276 1294.25 395.564 1290.2 389.094C1288.48 386.339 1288.39 382.986 1289.98 380.124C1291.56 377.26 1294.58 375.479 1297.84 375.479H1362.16L1361.75 440.876C1361.73 445.356 1359.36 449.279 1355.41 451.366C1351.46 453.466 1346.66 453.204 1342.9 450.684C1336.21 446.195 1329.82 443.753 1323.91 443.425C1306.44 442.452 1289.63 456.432 1288.67 472.755C1288.04 483.412 1292.66 495.652 1300.15 503.215C1303.92 507.01 1310.18 511.429 1318.8 511.012C1326.34 510.635 1335.35 507.064 1344.87 500.685C1348.57 498.197 1353.32 497.965 1357.24 500.075C1361.17 502.185 1363.59 506.268 1363.57 510.731L1363.16 577.931ZM1254.55 511.412C1260.49 511.412 1267.85 513.06 1276.95 517.431C1291.32 524.325 1300.07 532.473 1302.97 541.649C1305.08 548.311 1304.11 555.313 1300.1 562.46C1298.89 564.633 1298.9 567.196 1300.14 569.316C1301.37 571.411 1303.47 572.612 1305.92 572.612H1357.87L1358.25 510.701C1358.26 508.174 1356.95 505.955 1354.73 504.761C1352.51 503.568 1349.93 503.696 1347.83 505.104C1337.36 512.119 1327.68 515.894 1319.06 516.323C1310.7 516.752 1302.86 513.503 1296.38 506.959C1287.75 498.255 1282.64 484.706 1283.36 472.444C1284.5 453.011 1303.6 436.966 1324.21 438.115C1331.08 438.497 1338.37 441.239 1345.86 446.267C1348.02 447.714 1350.66 447.865 1352.92 446.667C1355.11 445.511 1356.42 443.334 1356.43 440.844L1356.8 380.799H1297.84C1296.49 380.799 1295.29 381.51 1294.63 382.701C1294.33 383.251 1293.72 384.698 1294.71 386.271C1299.21 393.457 1304.32 404.343 1303.09 415.395C1302.3 422.492 1297.96 428.71 1290.87 432.906C1278.55 440.191 1260.23 440.615 1244.19 433.988C1238.95 431.822 1235.27 428.192 1233.27 423.2C1228.82 412.137 1233.62 396.786 1238.42 385.857C1238.92 384.739 1238.81 383.503 1238.14 382.469C1237.44 381.408 1236.32 380.799 1235.06 380.799H1173.74V447.187C1173.74 451.311 1171.47 455.061 1167.81 456.972C1164.17 458.881 1159.8 458.607 1156.41 456.256C1146 449.022 1138.26 444.551 1134.02 443.325C1129.37 441.98 1121.58 442.634 1114.68 447.146C1109.61 450.457 1103.21 457.087 1101.52 469.869C1099.95 481.741 1102.91 492.459 1109.88 500.051C1116.17 506.906 1125.03 510.426 1134.86 509.986C1143.08 509.609 1151.02 507.819 1158.45 504.662C1161.82 503.233 1165.66 503.593 1168.74 505.628C1171.87 507.7 1173.74 511.173 1173.74 514.918V572.613H1227.11C1229.4 572.613 1231.52 571.465 1232.78 569.542C1234.03 567.617 1234.22 565.315 1233.3 563.222C1227.12 549.212 1226.49 528.564 1237.51 517.898C1241.04 514.483 1246.46 511.412 1254.55 511.412Z" fill="#FCFAFA"/>
<path d="M872.736 363.167C863.994 350.473 855.445 327.907 887.187 310.66C903.725 301.675 924.149 315.766 926.459 340.407C927.603 352.608 924.84 361.598 921.759 367.568C919.628 371.695 922.749 376.6 927.394 376.6H988.263V443.72C988.263 450.383 995.485 454.534 1001.25 451.201C1041.14 428.149 1058.07 465.34 1057.37 474.652C1056.6 484.92 1050.95 516.749 1027.34 516.749C1016.64 516.749 1007.59 513.588 1000.89 510.13C995.066 507.127 988.133 511.208 988.133 517.758V575.591H929.941C923.365 575.591 918.788 582.164 921.139 588.305C924.494 597.07 927.804 609.453 926.716 622.502C924.663 647.144 890.139 653.304 872.492 638.93C859.461 628.316 868.875 608.662 876.248 593.762C879.312 587.57 874.681 580.331 867.772 580.331H797.347V508.024C797.347 501.949 790.701 498.216 785.527 501.4C779.095 505.358 770.767 509.656 762.438 511.615C744.984 515.722 732.576 493.133 731.593 474.652C730.61 456.171 743.957 442.824 765.519 441.797C773.655 441.41 780.183 444.092 785.158 447.583C790.296 451.189 797.347 447.495 797.347 441.217V372.947H867.535C872.567 372.948 875.589 367.312 872.736 363.167Z" fill="url(#paint16_linear_356_1067)"/>
<path d="M895.574 649.246C886.475 649.247 877.453 646.399 870.813 640.992C855.914 628.855 866.717 607.027 873.865 592.583C874.89 590.511 874.771 588.186 873.539 586.202C872.29 584.19 870.134 582.989 867.774 582.989H794.689V508.024C794.689 506.143 793.71 504.471 792.07 503.556C790.436 502.643 788.514 502.687 786.922 503.665C778.328 508.953 770.297 512.498 763.048 514.204C756.946 515.637 750.885 514.276 745.525 510.258C736.511 503.499 729.689 488.916 728.939 474.794C728.452 465.642 731.205 457.474 736.902 451.173C743.405 443.979 753.523 439.706 765.393 439.141C773.069 438.786 780.243 440.884 786.686 445.405C788.265 446.513 790.228 446.643 791.937 445.756C793.66 444.86 794.689 443.164 794.689 441.217V370.289H867.536C868.911 370.289 870.116 369.56 870.758 368.341C871.383 367.149 871.305 365.779 870.546 364.676C865.446 357.269 859.966 345.931 862.83 333.975C865.223 323.978 872.991 315.348 885.917 308.323C893.435 304.24 902.229 304.288 910.048 308.457C920.65 314.11 927.776 325.961 929.107 340.159C930.351 353.43 927.084 363.052 924.123 368.787C923.562 369.874 923.613 371.108 924.261 372.173C924.935 373.279 926.106 373.94 927.394 373.94H990.923V443.721C990.923 445.883 992.042 447.819 993.916 448.901C995.797 449.984 998.043 449.986 999.921 448.898C1020.21 437.176 1034.29 440.886 1042.53 446.063C1055.03 453.906 1060.48 468.746 1060.02 474.851C1058.79 491.4 1050.51 519.407 1027.34 519.407C1017.87 519.407 1008.56 517.082 999.667 512.494C997.722 511.49 995.468 511.563 993.631 512.681C991.828 513.78 990.793 515.63 990.793 517.757V578.249H929.942C927.678 578.249 925.645 579.318 924.363 581.181C923.096 583.023 922.826 585.273 923.623 587.355C926.879 595.863 930.518 608.906 929.366 622.722C928.499 633.135 922.045 641.641 911.662 646.058C906.613 648.204 901.079 649.246 895.574 649.246ZM800.007 577.67H867.773C871.985 577.67 875.831 579.81 878.057 583.397C880.248 586.925 880.462 591.24 878.633 594.941C870.164 612.052 863.451 628.135 874.172 636.867C883.217 644.234 898.107 646.039 909.58 641.162C914.58 639.036 923.11 633.756 924.066 622.281C925.134 609.463 921.713 597.247 918.654 589.256C917.244 585.569 917.74 581.423 919.98 578.166C922.238 574.887 925.961 572.93 929.942 572.93H985.474V517.757C985.474 513.79 987.489 510.194 990.864 508.139C994.3 506.044 998.504 505.908 1002.11 507.767C1010.24 511.961 1018.73 514.088 1027.34 514.088C1051.48 514.088 1054.6 476.073 1054.72 474.453C1055 470.65 1050.82 457.544 1039.71 450.566C1029.52 444.171 1017.03 445.158 1002.58 453.503C999.038 455.553 994.805 455.554 991.258 453.507C987.717 451.464 985.604 447.806 985.604 443.721V379.259H927.394C924.235 379.259 921.365 377.643 919.718 374.94C918.105 372.292 917.986 369.081 919.396 366.347C922.031 361.244 924.936 352.644 923.811 340.655C922.648 328.242 916.567 317.96 907.545 313.15C901.241 309.791 894.461 309.735 888.457 312.998C876.911 319.27 870.029 326.745 868.002 335.213C865.595 345.265 870.439 355.143 874.927 361.658V361.659C876.798 364.379 877.004 367.886 875.464 370.816C873.911 373.771 870.872 375.607 867.535 375.607H800.007V441.217C800.007 445.126 797.856 448.674 794.391 450.475C790.941 452.267 786.815 451.997 783.631 449.76C778.174 445.931 772.129 444.136 765.645 444.455C755.05 444.959 746.474 448.516 740.846 454.741C736.121 459.968 733.839 466.805 734.25 474.512C734.924 487.173 740.872 500.122 748.716 506.002C752.832 509.087 757.246 510.108 761.83 509.026C768.428 507.474 776.142 504.054 784.136 499.137C787.391 497.133 791.328 497.051 794.664 498.913C798.011 500.783 800.008 504.19 800.008 508.025L800.007 577.67Z" fill="#FCFAFA"/>
<path d="M1106.87 368.531C1111.33 361.491 1115.03 350.54 1111.01 335.53C1103.31 306.781 1077.13 308.321 1064.3 313.969C1053.49 318.726 1040.86 346.793 1055.24 366.571C1058.28 370.75 1055.4 376.6 1050.23 376.6H988.262V303.936C988.262 297.524 981.539 293.301 975.803 296.166C969.547 299.291 961.003 302.299 950.33 303.189C925.689 305.241 914.009 283.68 915.228 262.119C916.286 243.419 943.459 220.084 972.757 240.345C978.466 244.294 986.266 240.135 986.266 233.194V169.049H1062.24C1038.63 188.919 1044.79 217.969 1068.4 229.263C1092.02 240.557 1113.58 231.316 1115.63 205.648C1116.69 192.432 1112 183.571 1107.2 178.084C1104.69 175.209 1106.68 170.74 1110.49 170.74H1171.8V233.731C1171.8 240.636 1179.8 244.726 1185.2 240.429C1189.89 236.695 1195.8 233.725 1202.91 233.37C1223.44 232.344 1242.95 247.745 1245 268.279C1247.06 288.814 1227.55 310.375 1208.04 307.295C1198.79 305.834 1190 302.132 1183.32 298.642C1177.74 295.73 1171.08 299.777 1171.08 306.07V378.139H1112.17C1107.23 378.139 1104.22 372.706 1106.87 368.531Z" fill="url(#paint17_linear_356_1067)"/>
<path d="M1173.74 380.799H1112.17C1108.86 380.799 1105.93 379.069 1104.34 376.172C1102.75 373.283 1102.85 369.895 1104.62 367.108C1108.5 360.985 1112.31 350.657 1108.45 336.219C1105.81 326.397 1100.74 319.622 1093.36 316.083C1083.74 311.464 1072.27 313.369 1065.37 316.404C1061.21 318.232 1055.6 325.304 1052.9 335.284C1051.17 341.697 1049.45 354.088 1057.39 365.005C1059.41 367.776 1059.7 371.381 1058.16 374.413C1056.64 377.403 1053.6 379.258 1050.23 379.258H985.603V303.935C985.603 301.833 984.535 299.916 982.748 298.811C980.961 297.707 978.863 297.61 976.991 298.544C968.876 302.599 959.981 305.053 950.55 305.839C940.222 306.705 931.203 303.676 924.449 297.099C916.222 289.087 911.782 275.954 912.573 261.968C913.195 250.977 921.74 239.338 933.351 233.662C940.883 229.982 956.211 225.67 974.27 238.158C976.105 239.427 978.388 239.563 980.377 238.519C982.399 237.459 983.607 235.469 983.607 233.193V166.389H1069.54L1063.96 171.083C1053.68 179.733 1048.79 190.608 1050.21 201.707C1051.56 212.312 1058.79 221.718 1069.55 226.864C1081.05 232.362 1092.32 232.816 1100.5 228.108C1107.82 223.894 1112.13 216.054 1112.98 205.436C1113.8 195.282 1111.18 186.668 1105.2 179.834C1103.33 177.698 1102.9 174.776 1104.06 172.209C1105.22 169.661 1107.68 168.079 1110.49 168.079H1174.46V233.731C1174.46 236.404 1176.17 238.181 1177.77 238.952C1179.72 239.896 1181.89 239.669 1183.55 238.346C1189.48 233.622 1195.95 231.054 1202.77 230.714C1225.33 229.589 1245.48 246.317 1247.65 268.012C1248.78 279.329 1243.8 291.729 1234.65 300.374C1226.68 307.894 1216.83 311.374 1207.63 309.921C1199.59 308.652 1191 305.65 1182.09 301C1180.31 300.066 1178.21 300.133 1176.49 301.174C1174.77 302.219 1173.74 304.049 1173.74 306.069L1173.74 380.799ZM1109.11 369.954C1108.4 371.078 1108.36 372.445 1109 373.608C1109.64 374.779 1110.83 375.479 1112.17 375.479H1168.42V306.07C1168.42 302.173 1170.41 298.642 1173.73 296.625C1177.06 294.61 1181.1 294.485 1184.55 296.285C1192.95 300.668 1200.99 303.488 1208.45 304.667C1216.02 305.862 1224.24 302.888 1231 296.507C1238.97 288.97 1243.33 278.254 1242.36 268.542C1240.5 249.943 1222.49 235.053 1203.04 236.025C1197.35 236.309 1191.91 238.491 1186.86 242.509C1183.61 245.093 1179.24 245.567 1175.46 243.743C1171.56 241.864 1169.14 238.027 1169.14 233.731V173.398H1110.49C1109.48 173.398 1109.05 174.103 1108.91 174.407C1108.77 174.72 1108.51 175.535 1109.21 176.333C1113.99 181.802 1119.44 191.364 1118.29 205.859C1117.3 218.125 1111.93 227.664 1103.15 232.718C1093.43 238.312 1080.35 237.926 1067.26 231.663C1054.86 225.731 1046.51 214.785 1044.93 202.378C1043.56 191.576 1047.42 180.685 1055.63 171.707H988.926V233.193C988.926 237.418 986.596 241.263 982.847 243.229C979.129 245.18 974.685 244.91 971.245 242.531C955.418 231.587 942.175 235.271 935.686 238.44C925.724 243.311 918.403 253.109 917.884 262.269C917.179 274.738 921.021 286.334 928.161 293.286C933.861 298.837 941.252 301.275 950.11 300.538C958.862 299.808 967.107 297.537 974.615 293.785C978.12 292.035 982.208 292.222 985.548 294.288C988.913 296.369 990.922 299.976 990.922 303.935V373.939H1050.23C1052.22 373.939 1053.12 372.583 1053.42 372.001C1054.06 370.741 1053.94 369.296 1053.09 368.135C1043.85 355.426 1045.79 341.228 1047.77 333.898C1050.62 323.337 1056.83 314.35 1063.23 311.534C1071.16 308.046 1084.41 305.89 1095.67 311.288C1104.5 315.527 1110.53 323.452 1113.58 334.842C1117.95 351.143 1113.56 362.934 1109.11 369.954Z" fill="#FCFAFA"/>
<path d="M876.248 593.762C868.875 608.661 859.461 628.316 872.492 638.93C890.139 653.304 924.663 647.144 926.716 622.502C927.804 609.453 924.493 597.069 921.139 588.305C918.788 582.164 923.365 575.59 929.941 575.59H988.133V647.004C988.133 653.652 995.286 657.767 1001.08 654.508C1027.87 639.446 1060.62 641.71 1057.11 688.213C1054.15 727.428 1020.8 718.654 1002.39 710.692C996.709 708.231 990.373 712.475 990.373 718.671V785.267H929.873C923.75 785.267 919.851 778.753 922.741 773.355C927.533 764.401 932.219 751.951 928.769 741.603C922.609 723.122 886.032 723.122 872.492 735.442C863.779 743.37 870.026 761.739 875.588 773.827C878.057 779.196 874.141 785.296 868.233 785.296H797.348V720.176C797.348 714.151 790.839 710.489 785.619 713.496C779.315 717.128 770.708 720.599 760.386 721.068C737.797 722.095 731.551 688.213 731.594 673.838C731.633 660.896 749.95 632.137 785.077 656.518C790.26 660.115 797.348 656.504 797.348 650.195V580.33H867.773C874.681 580.33 879.312 587.57 876.248 593.762Z" fill="url(#paint18_linear_356_1067)"/>
<path d="M868.234 787.956H794.688V720.176C794.688 718.311 793.769 716.711 792.166 715.784C790.544 714.845 788.593 714.853 786.946 715.801C778.542 720.644 769.645 723.31 760.506 723.725C754.092 724.003 748.399 721.834 743.6 717.234C731.93 706.049 728.904 683.953 728.934 673.832C728.96 665.313 735.359 653.179 746.023 647.62C754.072 643.422 767.647 641.182 786.594 654.335C788.225 655.467 790.239 655.597 791.979 654.686C793.675 653.799 794.688 652.12 794.688 650.195V577.67H867.773C871.985 577.67 875.83 579.81 878.057 583.397C880.248 586.925 880.462 591.24 878.632 594.941C870.163 612.052 863.451 628.135 874.171 636.868C883.215 644.234 898.107 646.039 909.58 641.162C914.58 639.036 923.11 633.756 924.066 622.281C925.134 609.463 921.713 597.247 918.655 589.256C917.244 585.569 917.74 581.423 919.981 578.166C922.238 574.887 925.961 572.93 929.942 572.93H990.793V647.005C990.793 649.15 991.894 651.074 993.738 652.153C995.612 653.249 997.873 653.263 999.778 652.191C1017.24 642.367 1034.44 640.812 1045.77 648.029C1053.19 652.751 1061.64 663.59 1059.76 688.413C1058.74 701.961 1054.09 711.329 1045.93 716.257C1033.05 724.045 1014.57 718.857 1001.34 713.134C999.488 712.333 997.455 712.514 995.757 713.629C994.051 714.749 993.032 716.635 993.032 718.671V787.927H929.873C926.055 787.927 922.606 785.974 920.648 782.704C918.688 779.432 918.593 775.467 920.396 772.1C924.82 763.835 929.425 751.98 926.246 742.444C924.446 737.042 919.155 732.946 911.35 730.907C898.531 727.562 881.903 730.477 874.281 737.411C866.602 744.398 873.316 762.53 878.005 772.716C879.543 776.064 879.277 779.91 877.293 783.007C875.307 786.105 871.92 787.956 868.234 787.956ZM800.007 782.637H868.234C870.127 782.637 871.796 781.725 872.814 780.137C873.83 778.55 873.96 776.656 873.171 774.939C866.704 760.884 861.027 742.279 870.702 733.476C879.646 725.338 898.094 721.948 912.694 725.761C922.298 728.268 928.903 733.595 931.292 740.761C935.069 752.093 930.002 765.423 925.086 774.609C924.173 776.314 924.22 778.318 925.211 779.971C926.199 781.622 927.943 782.608 929.873 782.608H987.713V718.671C987.713 714.837 989.628 711.29 992.836 709.182C996.011 707.098 999.98 706.751 1003.45 708.251C1013.34 712.531 1031.66 718.671 1043.18 711.705C1049.78 707.717 1053.57 699.747 1054.46 688.013C1055.79 670.442 1051.79 658.167 1042.92 652.515C1033.41 646.461 1017.88 648.113 1002.38 656.826C998.813 658.835 994.576 658.805 991.051 656.743C987.558 654.701 985.473 651.059 985.473 647.004V578.249H929.941C927.677 578.249 925.644 579.318 924.362 581.181C923.095 583.022 922.824 585.273 923.622 587.354C926.878 595.863 930.517 608.905 929.365 622.722C928.498 633.135 922.044 641.641 911.661 646.057C898.265 651.751 881.468 649.67 870.812 640.992C855.912 628.855 866.716 607.027 873.864 592.582C874.888 590.511 874.77 588.185 873.538 586.201C872.289 584.19 870.133 582.989 867.773 582.989H800.007V650.194C800.007 654.135 797.928 657.575 794.445 659.399C790.97 661.217 786.799 660.951 783.562 658.704C770.291 649.494 758.164 647.291 748.481 652.336C738.805 657.381 734.27 668.154 734.253 673.847C734.221 684.693 737.663 704.176 747.282 713.393C751.041 716.996 755.299 718.644 760.264 718.411C768.547 718.034 776.63 715.606 784.292 711.192C787.602 709.284 791.544 709.279 794.828 711.179C798.071 713.054 800.007 716.418 800.007 720.176V782.637Z" fill="#FCFAFA"/>
<path d="M686.763 382.579C679.777 393.652 672.069 411.987 686.204 425.113C707.765 445.134 739.337 433.583 743.187 410.482C745.135 398.797 741.172 389.329 736.779 382.826C733.934 378.613 736.829 372.948 741.914 372.948H797.348V441.218C797.348 447.495 790.297 451.189 785.159 447.583C780.183 444.093 773.655 441.41 765.519 441.797C743.958 442.824 730.611 456.171 731.593 474.652C732.577 493.133 744.985 515.722 762.439 511.615C770.767 509.656 779.096 505.358 785.528 501.401C790.702 498.217 797.348 501.95 797.348 508.025V580.33H744.985C737.725 580.33 733.178 572.45 736.866 566.197C740.849 559.446 743.248 550.202 739.851 538.31C731.637 509.562 698.782 513.668 682.354 532.149C673.258 542.382 677.712 556.053 683.499 566.218C687.085 572.518 682.611 580.33 675.363 580.33H615.115V508.639C615.115 503.692 620.3 500.439 624.732 502.638C632.703 506.592 644.786 511.467 657.713 512.642C680.301 514.695 684.456 485.946 685.459 467.465C686.365 450.768 658.798 424.85 625.827 449.538C621.407 452.847 615.106 449.75 615.106 444.228V372.947H681.465C686.417 372.948 689.405 378.39 686.763 382.579Z" fill="url(#paint19_linear_356_1067)"/>
<path d="M800.007 582.989H744.985C740.594 582.989 736.672 580.713 734.496 576.9C732.33 573.109 732.36 568.602 734.575 564.847C739.087 557.2 740.001 548.516 737.295 539.041C734.463 529.131 728.327 522.836 719.551 520.835C708.007 518.201 693.527 523.581 684.342 533.917C676.193 543.083 680.642 555.827 685.811 564.903C687.979 568.712 687.965 573.238 685.771 577.011C683.595 580.755 679.703 582.989 675.362 582.989H612.456V508.639C612.456 505.377 614.11 502.404 616.881 500.686C619.634 498.976 623.01 498.815 625.913 500.255C633.599 504.068 645.396 508.852 657.952 509.993C663.074 510.464 667.243 509.217 670.733 506.2C677.668 500.203 681.729 487.121 682.803 467.321C683.151 460.913 678.032 451.167 667.86 445.726C660.781 441.937 646.109 437.672 627.422 451.667C624.548 453.817 620.782 454.159 617.585 452.556C614.415 450.969 612.446 447.779 612.446 444.229V370.288H681.465C684.77 370.288 687.693 372.013 689.285 374.9C690.882 377.794 690.78 381.195 689.011 383.998C681.735 395.532 675.657 411.689 688.014 423.163C697.578 432.045 710.219 434.98 721.827 431.022C731.795 427.623 738.973 419.585 740.564 410.044C742.06 401.07 740.044 392.412 734.575 384.314C732.687 381.518 732.49 377.947 734.058 374.993C735.624 372.046 738.56 370.288 741.913 370.288H800.007V441.217C800.007 445.126 797.855 448.674 794.391 450.475C790.941 452.268 786.815 451.997 783.631 449.759C778.173 445.931 772.128 444.135 765.645 444.455C755.05 444.958 746.474 448.515 740.846 454.741C736.12 459.968 733.839 466.804 734.249 474.511C734.923 487.173 740.872 500.122 748.716 506.001C752.832 509.087 757.246 510.107 761.83 509.026C768.428 507.474 776.141 504.054 784.135 499.136C787.391 497.132 791.328 497.051 794.664 498.913C798.01 500.783 800.007 504.189 800.007 508.025V582.989ZM713.567 514.869C716.021 514.869 718.424 515.122 720.733 515.649C731.363 518.073 739.061 525.86 742.408 537.578C745.532 548.513 744.438 558.597 739.157 567.549C737.923 569.64 737.908 572.15 739.114 574.263C740.333 576.396 742.528 577.67 744.985 577.67H794.689V508.024C794.689 506.143 793.709 504.471 792.07 503.556C790.436 502.643 788.514 502.687 786.922 503.665C778.328 508.953 770.296 512.498 763.048 514.204C756.946 515.637 750.885 514.276 745.525 510.258C736.51 503.499 729.689 488.916 728.939 474.794C728.451 465.642 731.205 457.474 736.901 451.174C743.404 443.979 753.523 439.706 765.393 439.141C773.069 438.787 780.242 440.884 786.686 445.407C788.265 446.512 790.228 446.643 791.937 445.756C793.66 444.86 794.689 443.164 794.689 441.218V375.607H741.914C739.966 375.607 739.057 376.924 738.755 377.489C738.102 378.72 738.187 380.159 738.982 381.338C745.153 390.472 747.514 400.701 745.81 410.919C743.897 422.393 735.366 432.025 723.544 436.055C710.052 440.658 695.414 437.294 684.393 427.061C672.667 416.173 672.709 399.871 684.513 381.16C685.231 380.021 685.275 378.64 684.628 377.469C683.985 376.303 682.803 375.607 681.465 375.607H617.765V444.228C617.765 445.775 618.589 447.109 619.966 447.8C621.372 448.503 622.967 448.359 624.233 447.408C639.604 435.898 656.421 433.577 670.369 441.035C681.173 446.814 688.636 457.99 688.113 467.609C686.942 489.208 682.394 503.147 674.211 510.223C669.636 514.178 663.999 515.879 657.471 515.291C644.096 514.074 631.642 509.034 623.549 505.021C622.288 504.394 620.879 504.464 619.683 505.205C618.471 505.958 617.774 507.209 617.774 508.639V577.671H675.362C677.788 577.671 679.959 576.425 681.173 574.337C682.403 572.222 682.408 569.678 681.187 567.534C672.542 552.351 672.258 539.504 680.365 530.382C688.981 520.69 701.829 514.869 713.567 514.869Z" fill="#FCFAFA"/>
<path d="M680.043 796.831C673.19 811.374 673.552 834.889 682.353 842.223C694.674 852.49 744.424 858.375 743.957 825.795C743.774 812.996 740.407 804.002 736.386 797.8C732.886 792.401 736.723 785.296 743.157 785.296H797.348V855.364C797.348 861.712 790.167 865.372 785.024 861.65C778.656 857.042 770.719 852.431 763.465 851.464C748.064 849.41 730.61 867.891 731.637 887.399C732.663 906.907 740.877 929.496 761.412 927.442C770.686 926.514 778.913 922.446 785.148 918.262C790.357 914.766 797.348 918.37 797.348 924.643V993.746H739.851C739.851 993.746 768.222 1047.57 731.448 1051.68C697.94 1055.42 676.302 1050.32 687.44 1007.4C689.229 1000.5 684.055 993.746 676.927 993.746H619.723V924.619C619.723 919.867 624.536 916.614 628.927 918.433C635.438 921.131 644.741 924.289 654.632 925.388C673.113 927.441 684.407 912.04 685.434 887.399C686.364 865.067 660.311 852.012 629.435 867.336C624.969 869.553 619.723 866.456 619.723 861.469V785.296H672.471C678.411 785.296 682.574 791.458 680.043 796.831Z" fill="url(#paint20_linear_356_1067)"/>
<path d="M715.791 1056.02C704.334 1056.02 693.691 1053.9 687.282 1046.51C680.33 1038.49 679.329 1025.42 684.221 1006.56C684.819 1004.26 684.328 1001.87 682.876 999.992C681.44 998.135 679.271 997.071 676.928 997.071H619.723C617.887 997.071 616.399 995.583 616.399 993.746V924.62C616.399 921.263 618.064 918.146 620.853 916.284C623.627 914.43 627.12 914.088 630.199 915.362C636.166 917.835 645.311 921.008 654.999 922.085C661.248 922.776 666.601 921.251 670.918 917.545C677.561 911.844 681.536 901.089 682.112 887.261C682.438 879.457 679.035 872.834 672.532 868.613C662.17 861.885 646.613 862.521 630.913 870.314C627.732 871.89 624.052 871.729 621.066 869.876C618.142 868.064 616.398 864.921 616.398 861.469V785.296C616.398 783.46 617.886 781.972 619.723 781.972H672.47C676.486 781.972 680.172 784.006 682.333 787.412C684.425 790.709 684.692 794.761 683.05 798.247C676.562 812.016 677.311 833.694 684.481 839.669C692.025 845.957 715.857 850.33 729.852 843.65C737.126 840.18 740.751 834.189 740.632 825.843C740.482 815.408 738.115 806.582 733.596 799.61C731.274 796.029 731.1 791.661 733.131 787.924C735.156 784.197 738.903 781.973 743.156 781.973H797.347C799.183 781.973 800.671 783.461 800.671 785.297V855.364C800.671 859.554 798.356 863.339 794.629 865.243C790.901 867.147 786.473 866.803 783.074 864.345C775.415 858.801 768.482 855.487 763.026 854.76C757.564 854.022 751.358 856.466 745.974 861.436C738.695 868.156 734.472 878.038 734.955 887.225C735.724 901.823 740.279 914.055 747.141 919.944C751.063 923.308 755.627 924.674 761.081 924.134C768.372 923.404 775.845 920.5 783.294 915.501C786.76 913.177 791.18 912.944 794.836 914.893C798.49 916.841 800.671 920.486 800.671 924.643V993.746C800.671 995.583 799.183 997.071 797.347 997.071H745.132C749.575 1006.97 758.09 1029.56 750.669 1043.56C747.19 1050.13 740.847 1053.97 731.816 1054.98C726.526 1055.57 721.072 1056.02 715.791 1056.02ZM623.048 990.422H676.928C681.344 990.422 685.43 992.427 688.136 995.924C690.855 999.441 691.774 1003.93 690.657 1008.23C686.356 1024.81 686.894 1035.91 692.307 1042.16C698.071 1048.81 710.028 1050.72 731.079 1048.37C737.886 1047.61 742.373 1045.02 744.794 1040.45C751.341 1028.1 741.322 1003.67 736.909 995.297C736.367 994.266 736.403 993.027 737.004 992.03C737.605 991.033 738.686 990.422 739.85 990.422H794.022V924.643C794.022 922.253 792.403 921.131 791.707 920.761C790.201 919.957 788.441 920.054 786.998 921.023C778.632 926.638 770.134 929.911 761.743 930.749C754.477 931.481 748.112 929.538 742.81 924.989C730.97 914.829 728.729 895.439 728.316 887.575C727.732 876.465 732.77 864.576 741.465 856.549C748.306 850.235 756.486 847.186 763.903 848.169C770.542 849.055 778.303 852.685 786.972 858.958C788.357 859.96 790.088 860.095 791.604 859.322C793.119 858.549 794.022 857.069 794.022 855.364V788.622H743.157C741.38 788.622 739.816 789.548 738.974 791.099C738.125 792.66 738.2 794.49 739.175 795.992C744.386 804.031 747.113 814.042 747.281 825.747C747.438 836.764 742.402 845.03 732.716 849.651C715.793 857.727 689.206 852.263 680.224 844.778C669.704 836.01 669.878 810.604 677.035 795.414C677.712 793.977 677.597 792.358 676.719 790.973C675.784 789.5 674.196 788.621 672.47 788.621H623.047V861.47C623.047 862.621 623.602 863.626 624.569 864.226C625.587 864.856 626.853 864.909 627.957 864.359C645.782 855.512 663.798 855.017 676.152 863.036C684.582 868.509 689.175 877.441 688.755 887.538C688.091 903.455 683.421 915.576 675.248 922.59C669.555 927.476 662.3 929.586 654.264 928.692C643.801 927.53 634.018 924.142 627.653 921.505C626.613 921.073 625.482 921.188 624.546 921.812C623.594 922.449 623.047 923.472 623.047 924.62V990.422H623.048Z" fill="white"/>
<path d="M683.499 566.218C677.711 556.053 673.258 542.382 682.353 532.15C698.781 513.669 731.636 509.562 739.851 538.31C743.248 550.202 740.848 559.446 736.866 566.198C733.177 572.45 737.724 580.331 744.984 580.331H797.347V650.196C797.347 656.505 790.259 660.116 785.077 656.519C749.949 632.138 731.632 660.896 731.593 673.839C731.55 688.214 737.797 722.096 760.385 721.069C770.707 720.6 779.315 717.129 785.618 713.497C790.838 710.49 797.347 714.152 797.347 720.177V785.296H743.157C736.723 785.296 732.886 792.402 736.386 797.801C740.407 804.003 743.773 812.996 743.957 825.795C744.424 858.376 694.673 852.491 682.353 842.224C673.552 834.89 673.19 811.374 680.042 796.831C682.573 791.458 678.41 785.296 672.47 785.296H619.723V714.037C619.723 708.842 614.08 705.648 609.614 708.301C600.536 713.696 586.514 720.46 572.493 721.069C548.878 722.096 545.798 695.401 544.771 674.866C543.864 656.73 577.415 635.39 604.709 653.288C609.181 656.221 615.115 653.108 615.115 647.761V580.331H675.362C682.611 580.331 687.085 572.518 683.499 566.218Z" fill="url(#paint21_linear_356_1067)"/>
<path d="M712.492 853.001C699.461 853.001 686.397 849.055 680.651 844.265C672.229 837.247 669.006 814.017 677.637 795.697C678.414 794.049 678.284 792.197 677.282 790.616C676.225 788.95 674.426 787.955 672.472 787.955H617.064V714.036C617.064 712.57 616.307 711.263 615.039 710.542C613.762 709.814 612.242 709.833 610.973 710.587C601.472 716.233 587.104 723.095 572.61 723.724C544.653 724.961 542.927 691.208 542.117 674.997C541.67 666.095 548.424 656.309 559.323 650.066C571.015 643.368 589.465 640.109 606.168 651.061C607.462 651.911 609.037 651.984 610.379 651.26C611.003 650.923 612.456 649.906 612.456 647.759V577.669H675.362C677.788 577.669 679.959 576.424 681.173 574.337C682.403 572.22 682.408 569.677 681.188 567.533C672.543 552.35 672.259 539.503 680.366 530.381C690.784 518.664 707.381 512.601 720.733 515.649C731.363 518.072 739.061 525.86 742.409 537.578C745.532 548.513 744.438 558.596 739.157 567.548C737.923 569.639 737.908 572.149 739.114 574.262C740.333 576.396 742.528 577.67 744.985 577.67H800.007V650.195C800.007 654.136 797.929 657.576 794.446 659.399C790.971 661.217 786.8 660.951 783.563 658.704C770.291 649.494 758.164 647.291 748.482 652.336C738.805 657.381 734.27 668.154 734.253 673.847C734.221 684.694 737.663 704.176 747.282 713.393C751.041 716.996 755.299 718.645 760.265 718.411C768.547 718.035 776.631 715.606 784.292 711.193C787.602 709.284 791.545 709.279 794.829 711.18C798.071 713.055 800.007 716.418 800.007 720.176V787.956H743.157C741.133 787.956 739.351 789.012 738.391 790.78C737.424 792.56 737.509 794.643 738.618 796.354C743.76 804.286 746.451 814.178 746.617 825.757C746.77 836.494 741.865 844.549 732.431 849.051C726.57 851.846 719.535 853.001 712.492 853.001ZM622.383 782.637H672.471C676.258 782.637 679.734 784.555 681.773 787.767C683.742 790.872 683.995 794.684 682.449 797.964C675.858 811.953 676.698 834.048 684.056 840.18C691.726 846.571 715.926 851.028 730.14 844.25C737.668 840.658 741.422 834.461 741.298 825.832C741.147 815.27 738.743 806.325 734.154 799.247C731.968 795.874 731.803 791.76 733.716 788.241C735.622 784.731 739.152 782.637 743.157 782.637H794.688V720.176C794.688 718.311 793.768 716.711 792.166 715.784C790.544 714.845 788.592 714.853 786.946 715.801C778.541 720.644 769.645 723.31 760.505 723.725C754.092 724.003 748.399 721.833 743.6 717.234C731.929 706.049 728.904 683.953 728.933 673.832C728.96 665.313 735.359 653.179 746.023 647.62C754.071 643.422 767.646 641.182 786.594 654.335C788.225 655.467 790.239 655.597 791.979 654.685C793.675 653.798 794.688 652.12 794.688 650.195V582.989H744.983C740.593 582.989 736.671 580.713 734.495 576.9C732.329 573.109 732.359 568.602 734.574 564.847C739.085 557.2 740 548.516 737.294 539.04C734.462 529.131 728.326 522.835 719.55 520.835C708.006 518.201 693.526 523.581 684.341 533.917C679.842 538.976 676.447 548.459 685.809 564.903C687.978 568.712 687.964 573.238 685.77 577.011C683.594 580.755 679.702 582.989 675.361 582.989H617.774V647.76C617.774 651.236 615.953 654.295 612.904 655.941C609.858 657.585 606.158 657.419 603.251 655.51C590.774 647.33 575.339 647.02 561.964 654.683C552.787 659.939 547.082 667.81 547.427 674.733C548.588 697.931 552.37 719.299 572.377 718.411C585.768 717.83 599.278 711.349 608.255 706.014C611.187 704.271 614.708 704.235 617.668 705.919C620.62 707.598 622.382 710.633 622.382 714.037V782.637H622.383Z" fill="#FCFAFA"/>
<path d="M977.261 914.648C969.38 919.332 959.194 924.345 950.331 925.388C932.876 927.441 916.448 905.88 919.529 880.212C922.147 858.394 950.729 838.801 976.899 857.375C982.544 861.381 990.373 857.079 990.373 850.157V785.267H1050.2C1056.96 785.267 1060.65 793.002 1056.55 798.377C1039.33 820.89 1035.45 856.206 1078.67 854.544C1117.34 853.056 1120.13 816.374 1113.23 799.034C1111.11 793.695 1119.45 792.94 1125.2 792.94H1171.08V857.16C1171.08 863.9 1163.53 867.891 1157.98 864.071C1151.07 859.316 1142.52 854.5 1135.14 853.516C1119.74 851.463 1099.21 863.784 1099.21 884.318C1099.21 904.853 1105.37 924.361 1131.04 922.308C1142.81 921.366 1152.2 918.049 1158.93 914.733C1164.53 911.97 1171.08 915.959 1171.08 922.207V993.746H1116.22C1108.43 993.746 1103.07 985.772 1106.19 978.638C1108.59 973.125 1110.8 966.677 1111.6 960.316C1113.65 943.888 1089.97 932.685 1070.46 934.23C1055.1 935.448 1037.23 958.654 1045.45 979.04C1048.29 986.088 1042.87 993.746 1035.27 993.746H990.374V922.073C990.373 915.339 983.05 911.209 977.261 914.648Z" fill="url(#paint22_linear_356_1067)"/>
<path d="M1173.74 996.405H1116.22C1111.61 996.405 1107.36 994.103 1104.84 990.245C1102.35 986.445 1101.94 981.71 1103.75 977.574C1106.55 971.162 1108.3 965.245 1108.96 959.986C1109.5 955.689 1107.97 951.625 1104.42 947.909C1097.36 940.529 1083.18 935.89 1070.67 936.882C1063.86 937.42 1056.22 943.014 1051.2 951.128C1045.76 959.916 1044.56 969.726 1047.91 978.045C1049.55 982.105 1049.05 986.718 1046.57 990.385C1044.03 994.155 1039.8 996.405 1035.27 996.405H987.713V922.073C987.713 919.89 986.585 917.945 984.693 916.87C982.787 915.784 980.515 915.81 978.62 916.936C967.755 923.391 958.341 927.123 950.641 928.03C943.078 928.919 935.463 925.943 929.186 919.651C919.788 910.231 915.076 894.998 916.889 879.896C918.369 867.559 927.319 856.047 939.687 850.569C952.291 844.985 966.418 846.674 978.438 855.207C980.199 856.456 982.422 856.596 984.384 855.58C986.439 854.519 987.714 852.441 987.714 850.157V782.609H1050.2C1054.31 782.609 1057.99 784.886 1059.8 788.553C1061.64 792.281 1061.2 796.664 1058.66 799.992C1048.07 813.841 1044.26 830.427 1049.39 840.324C1053.6 848.46 1063.69 852.44 1078.57 851.887C1091.93 851.372 1101.71 846.499 1107.63 837.402C1114.96 826.136 1114.76 810.068 1110.76 800.017C1109.72 797.392 1110.41 795.496 1111.17 794.369C1113.07 791.579 1117.52 790.28 1125.2 790.28H1173.74V857.16C1173.74 861.275 1171.48 865.021 1167.83 866.936C1164.21 868.847 1159.85 868.589 1156.47 866.262C1147.96 860.405 1140.46 856.909 1134.79 856.152C1127.11 855.134 1117.92 858.17 1111.38 863.9C1105.24 869.269 1101.87 876.52 1101.87 884.318C1101.87 898.56 1104.94 908.617 1111 914.213C1115.65 918.504 1122.33 920.342 1130.82 919.658C1140.41 918.89 1149.47 916.431 1157.75 912.348C1161.24 910.63 1165.27 910.822 1168.55 912.861C1171.8 914.879 1173.74 918.373 1173.74 922.208V996.405H1173.74ZM1074.14 931.428C1087.21 931.428 1100.81 936.438 1108.26 944.234C1112.9 949.095 1114.97 954.77 1114.24 960.646C1113.52 966.411 1111.63 972.822 1108.62 979.703C1107.52 982.225 1107.76 985.005 1109.29 987.332C1110.83 989.683 1113.41 991.086 1116.22 991.086H1168.42V922.208C1168.42 920.195 1167.45 918.435 1165.75 917.377C1164.04 916.313 1161.93 916.219 1160.1 917.119C1151.22 921.5 1141.51 924.138 1131.25 924.958C1121.19 925.772 1113.18 923.462 1107.39 918.12C1100.2 911.476 1096.55 900.105 1096.55 884.318C1096.55 874.965 1100.57 866.292 1107.87 859.897C1115.64 853.099 1126.22 849.645 1135.5 850.88C1142.08 851.759 1150.15 855.46 1159.49 861.88C1161.26 863.1 1163.45 863.23 1165.36 862.228C1167.28 861.221 1168.42 859.326 1168.42 857.16V795.599H1125.2C1116.86 795.599 1115.63 797.283 1115.58 797.356C1115.52 797.438 1115.57 797.724 1115.7 798.051C1120.07 809.025 1120.8 826.928 1112.09 840.304C1107.33 847.611 1097.69 856.474 1078.78 857.201C1057.2 858.045 1048.31 849.812 1044.66 842.772C1037.57 829.089 1044.46 809.804 1054.43 796.762C1055.76 795.027 1055.98 792.839 1055.03 790.911C1054.11 789.043 1052.3 787.928 1050.2 787.928H993.033V850.158C993.033 854.439 990.655 858.328 986.826 860.306C983.061 862.251 978.774 861.966 975.36 859.545C961.046 849.385 948.215 852.607 941.842 855.433C931.317 860.094 923.411 870.18 922.169 880.53C920.547 894.052 924.677 907.602 932.952 915.895C938.053 921.009 944.126 923.449 950.02 922.748C956.877 921.941 965.828 918.351 975.903 912.363C979.463 910.247 983.734 910.203 987.324 912.247C990.899 914.281 993.032 917.955 993.032 922.074V991.087H1035.27C1038.03 991.087 1040.61 989.712 1042.16 987.41C1043.67 985.176 1043.97 982.488 1042.98 980.034C1038.99 970.128 1040.33 958.572 1046.67 948.329C1052.56 938.824 1061.81 932.249 1070.25 931.579C1071.54 931.477 1072.83 931.428 1074.14 931.428Z" fill="#FCFAFA"/>
<path d="M785.147 918.262C778.913 922.445 770.686 926.514 761.412 927.442C740.876 929.496 732.663 906.907 731.636 887.399C730.61 867.891 748.064 849.41 763.465 851.464C770.719 852.431 778.656 857.042 785.024 861.65C790.166 865.372 797.347 861.712 797.347 855.363V785.296H868.233C874.14 785.296 878.056 779.195 875.587 773.828C870.025 761.74 863.778 743.371 872.491 735.443C886.031 723.122 922.609 723.122 928.769 741.603C932.218 751.951 927.532 764.401 922.74 773.355C919.851 778.753 923.75 785.267 929.872 785.267H990.373V850.158C990.373 857.08 982.544 861.381 976.899 857.375C950.728 838.802 922.147 858.394 919.528 880.212C916.448 905.88 932.876 927.442 950.33 925.389C959.193 924.346 969.38 919.332 977.261 914.649C983.049 911.209 990.373 915.34 990.373 922.073V993.746H920.689C912.716 993.746 907.382 985.429 910.839 978.244C914.957 969.681 931.836 959.169 930.822 951.057C928.769 934.629 892.192 930.565 872.491 933.624C857.454 935.958 864.929 959.48 873.475 978.329C876.751 985.554 871.534 993.747 863.601 993.747H797.347V924.644C797.347 918.37 790.357 914.767 785.147 918.262Z" fill="url(#paint23_linear_356_1067)"/>
<path d="M993.032 996.406H920.689C915.991 996.406 911.693 994.028 909.189 990.045C906.714 986.108 906.435 981.264 908.442 977.091C910.332 973.164 914.239 969.257 918.375 965.121C923.177 960.317 928.621 954.875 928.184 951.387C927.846 948.674 926.206 946.193 923.313 944.011C913.058 936.277 888.967 933.754 872.899 936.252C870.404 936.639 868.771 937.691 867.759 939.562C865.944 942.921 864.586 952.282 875.897 977.231C877.819 981.468 877.467 986.325 874.954 990.222C872.46 994.094 868.215 996.406 863.601 996.406H794.688V924.643C794.688 922.734 793.69 921.064 792.02 920.173C790.295 919.252 788.279 919.364 786.629 920.471C778.353 926.023 769.958 929.259 761.677 930.088C754.611 930.792 748.402 928.91 743.244 924.484C731.6 914.491 729.389 895.317 728.98 887.539C728.407 876.621 733.363 864.934 741.917 857.038C748.612 850.859 756.587 847.87 763.817 848.828C770.344 849.698 778.004 853.288 786.584 859.497C788.174 860.648 790.166 860.806 791.908 859.914C793.649 859.024 794.688 857.323 794.688 855.363V782.637H868.234C870.127 782.637 871.796 781.726 872.814 780.138C873.83 778.551 873.96 776.656 873.171 774.94C866.704 760.884 861.027 742.28 870.703 733.476C879.646 725.338 898.097 721.949 912.693 725.761C922.298 728.269 928.903 733.596 931.292 740.761C935.07 752.094 930.003 765.423 925.087 774.61C924.174 776.315 924.221 778.318 925.211 779.971C926.2 781.623 927.944 782.609 929.873 782.609H993.032V850.157C993.032 854.439 990.655 858.328 986.825 860.306C983.061 862.251 978.774 861.965 975.36 859.545C961.046 849.385 948.215 852.607 941.842 855.432C931.316 860.094 923.411 870.18 922.168 880.53C920.547 894.052 924.677 907.602 932.952 915.895C938.052 921.009 944.126 923.449 950.02 922.748C956.876 921.941 965.827 918.351 975.903 912.363C979.462 910.247 983.733 910.203 987.324 912.247C990.898 914.281 993.032 917.954 993.032 922.073V996.406ZM885.854 930.053C899.957 930.053 917.062 932.634 926.516 939.765C930.601 942.845 932.937 946.533 933.462 950.727C934.22 956.795 928.35 962.666 922.137 968.881C918.497 972.521 914.732 976.285 913.237 979.397C912.008 981.95 912.174 984.8 913.692 987.216C915.216 989.639 917.832 991.087 920.689 991.087H987.713V922.073C987.713 919.89 986.585 917.945 984.692 916.87C982.786 915.787 980.515 915.81 978.619 916.936C967.754 923.391 958.341 927.123 950.64 928.03C943.078 928.919 935.463 925.943 929.186 919.652C919.788 910.232 915.076 894.998 916.888 879.896C918.369 867.56 927.318 856.048 939.687 850.569C952.291 844.985 966.418 846.675 978.438 855.208C980.199 856.457 982.422 856.596 984.384 855.58C986.438 854.519 987.713 852.442 987.713 850.157V787.928H929.873C926.055 787.928 922.606 785.975 920.648 782.705C918.687 779.433 918.593 775.468 920.395 772.101C924.82 763.836 929.424 751.981 926.245 742.444C924.446 737.042 919.155 732.947 911.35 730.908C898.53 727.563 881.902 730.478 874.281 737.411C866.601 744.399 873.316 762.531 878.004 772.717C879.543 776.064 879.277 779.911 877.293 783.008C875.307 786.106 871.921 787.956 868.234 787.956H800.007V855.364C800.007 859.304 797.83 862.862 794.327 864.651C790.818 866.441 786.657 866.117 783.464 863.806C775.717 858.198 768.678 854.843 763.113 854.1C757.46 853.342 751.053 855.843 745.524 860.946C738.103 867.798 733.798 877.88 734.291 887.259C735.069 902.037 739.711 914.445 746.707 920.448C750.718 923.892 755.578 925.349 761.147 924.796C768.549 924.055 776.125 921.114 783.665 916.054C786.925 913.867 791.085 913.645 794.522 915.481C797.956 917.312 800.006 920.738 800.006 924.644V991.087H863.601C866.441 991.087 868.95 989.723 870.484 987.341C872.012 984.97 872.225 982.012 871.054 979.429C861.572 958.515 858.964 944.647 863.081 937.033C864.871 933.721 867.984 931.632 872.084 930.996C875.922 930.399 880.687 930.053 885.854 930.053Z" fill="#FCFAFA"/>
<path d="M1107.85 561.461C1110.29 556.792 1112.52 551.11 1113.58 544.682C1119.5 508.832 1075.13 513.668 1057.39 532.149C1048.36 541.558 1051.38 552.645 1056.52 561.264C1060.29 567.584 1055.87 575.591 1048.51 575.591H988.133V517.758C988.133 511.208 995.067 507.127 1000.89 510.13C1007.59 513.588 1016.64 516.749 1027.34 516.749C1050.95 516.749 1056.6 484.92 1057.37 474.652C1058.07 465.34 1041.14 428.149 1001.25 451.201C995.485 454.534 988.263 450.382 988.263 443.72V376.6H1050.23C1055.4 376.6 1058.28 370.75 1055.24 366.571C1040.86 346.793 1053.49 318.726 1064.3 313.969C1077.13 308.322 1103.31 306.781 1111.02 335.53C1115.04 350.54 1111.33 361.492 1106.87 368.531C1104.22 372.706 1107.23 378.139 1112.17 378.139H1171.08V447.186C1171.08 453.949 1163.49 457.93 1157.93 454.071C1149.98 448.545 1140.32 442.378 1134.77 440.77C1124.12 437.689 1102.29 443.85 1098.89 469.518C1095.48 495.187 1112.56 513.668 1134.98 512.641C1145.07 512.179 1153.39 509.698 1159.49 507.109C1164.99 504.773 1171.08 508.941 1171.08 514.917V575.272H1116.15C1109.05 575.272 1104.56 567.75 1107.85 561.461Z" fill="url(#paint24_linear_356_1067)"/>
<path d="M1048.51 578.249H985.474V517.757C985.474 513.79 987.489 510.195 990.864 508.139C994.3 506.044 998.503 505.908 1002.11 507.767C1010.24 511.962 1018.73 514.089 1027.34 514.089C1051.48 514.089 1054.6 476.073 1054.72 474.454C1055 470.65 1050.82 457.544 1039.71 450.567C1029.52 444.171 1017.03 445.158 1002.58 453.503C999.038 455.553 994.805 455.555 991.257 453.507C987.717 451.464 985.603 447.807 985.603 443.721V373.94H1050.23C1052.22 373.94 1053.12 372.584 1053.42 372.001C1054.06 370.742 1053.94 369.297 1053.09 368.136C1043.85 355.426 1045.79 341.229 1047.77 333.899C1050.62 323.338 1056.83 314.35 1063.23 311.535C1071.16 308.047 1084.41 305.89 1095.67 311.288C1104.5 315.528 1110.53 323.453 1113.58 334.843C1117.95 351.144 1113.56 362.935 1109.11 369.955C1108.4 371.079 1108.36 372.446 1109 373.609C1109.64 374.78 1110.83 375.48 1112.17 375.48H1173.74V447.187C1173.74 451.311 1171.47 455.062 1167.81 456.972C1164.17 458.878 1159.8 458.607 1156.41 456.257C1146 449.022 1138.26 444.551 1134.02 443.326C1129.37 441.98 1121.58 442.634 1114.68 447.146C1109.61 450.457 1103.22 457.088 1101.52 469.869C1099.95 481.741 1102.92 492.459 1109.88 500.051C1116.17 506.906 1125.03 510.426 1134.86 509.986C1143.08 509.61 1151.02 507.819 1158.45 504.662C1161.82 503.234 1165.66 503.593 1168.74 505.628C1171.87 507.701 1173.74 511.173 1173.74 514.918V577.932H1116.15C1111.9 577.932 1108.05 575.766 1105.85 572.137C1103.64 568.483 1103.51 564.031 1105.49 560.229C1108.23 554.993 1110.07 549.617 1110.96 544.252C1112.71 533.663 1110 526.494 1102.9 522.942C1091.45 517.205 1070.27 522.576 1059.31 533.992C1052.78 540.797 1052.61 549.515 1058.8 559.903C1061.09 563.739 1061.15 568.331 1058.96 572.185C1056.8 575.982 1052.9 578.249 1048.51 578.249ZM990.793 572.93H1048.51C1050.96 572.93 1053.14 571.669 1054.34 569.557C1055.57 567.388 1055.53 564.796 1054.24 562.626C1046.77 550.105 1047.2 538.93 1055.48 530.308C1068.05 517.205 1091.79 511.427 1105.28 518.184C1110.59 520.838 1119.05 527.867 1116.21 545.116C1115.23 551.042 1113.21 556.956 1110.21 562.692C1109.09 564.832 1109.16 567.332 1110.4 569.381C1111.63 571.404 1113.78 572.612 1116.15 572.612H1168.42V514.917C1168.42 512.961 1167.44 511.147 1165.8 510.063C1164.19 508.999 1162.27 508.816 1160.53 509.556C1152.51 512.961 1143.96 514.894 1135.1 515.299C1123.69 515.815 1113.34 511.683 1105.96 503.645C1097.91 494.874 1094.46 482.629 1096.25 469.17C1098.21 454.388 1105.77 446.612 1111.77 442.692C1119.08 437.916 1128.4 436.159 1135.5 438.216C1140.35 439.619 1148.41 444.219 1159.45 451.887C1161.23 453.121 1163.43 453.26 1165.35 452.257C1167.27 451.252 1168.42 449.356 1168.42 447.186V380.798H1112.17C1108.86 380.798 1105.93 379.069 1104.34 376.171C1102.75 373.283 1102.85 369.894 1104.62 367.107C1108.5 360.985 1112.31 350.657 1108.45 336.219C1105.82 326.396 1100.74 319.622 1093.37 316.083C1083.74 311.464 1072.27 313.369 1065.37 316.404C1061.21 318.232 1055.6 325.305 1052.9 335.284C1051.17 341.697 1049.45 354.088 1057.39 365.005C1059.41 367.776 1059.7 371.381 1058.16 374.414C1056.64 377.402 1053.6 379.258 1050.23 379.258H990.923V443.72C990.923 445.882 992.042 447.818 993.916 448.9C995.798 449.983 998.043 449.986 999.922 448.897C1020.21 437.172 1034.29 440.885 1042.53 446.062C1055.03 453.905 1060.48 468.745 1060.02 474.85C1058.79 491.399 1050.51 519.407 1027.34 519.407C1017.87 519.407 1008.56 517.081 999.667 512.493C997.722 511.489 995.468 511.562 993.632 512.68C991.828 513.779 990.793 515.629 990.793 517.756V572.93Z" fill="#FCFAFA"/>
</g>
<path d="M681.688 1119.71C678.306 1119.71 675.318 1117.94 674.736 1115.44L564.929 643.66C564.281 640.873 566.871 638.232 570.715 637.763C574.561 637.296 578.202 639.171 578.851 641.958L688.658 1113.74C689.306 1116.53 686.716 1119.17 682.872 1119.64C682.474 1119.68 682.079 1119.71 681.688 1119.71Z" fill="#7D97F4"/>
<path d="M316.036 1119.71C315.574 1119.71 315.104 1119.68 314.634 1119.61C310.812 1119.05 308.338 1116.35 309.108 1113.58L438.552 647.936C439.322 645.165 443.039 643.357 446.867 643.931C450.689 644.489 453.163 647.188 452.392 649.959L322.949 1115.6C322.273 1118.03 319.328 1119.71 316.036 1119.71Z" fill="#7D97F4"/>
<path d="M602.696 788.693H415.049C411.151 788.693 407.99 785.871 407.99 782.387C407.99 778.904 411.151 776.081 415.049 776.081H602.696C606.594 776.081 609.755 778.904 609.755 782.387C609.755 785.871 606.595 788.693 602.696 788.693Z" fill="#7D97F4"/>
<path d="M599.294 788.693H418.457C414.7 788.693 411.654 785.871 411.654 782.387C411.654 778.904 414.7 776.081 418.457 776.081H599.294C603.051 776.081 606.097 778.904 606.097 782.387C606.097 785.871 603.051 788.693 599.294 788.693Z" fill="#7D97F4"/>
<path d="M602.696 893.794H415.049C411.151 893.794 407.99 890.971 407.99 887.488C407.99 884.005 411.151 881.182 415.049 881.182H602.696C606.594 881.182 609.755 884.005 609.755 887.488C609.755 890.971 606.595 893.794 602.696 893.794Z" fill="#7D97F4"/>
<path d="M626.425 893.794H382.044C377.856 893.794 374.461 890.972 374.461 887.488C374.461 884.004 377.857 881.182 382.044 881.182H626.425C630.613 881.182 634.008 884.004 634.008 887.488C634.008 890.972 630.613 893.794 626.425 893.794Z" fill="#7D97F4"/>
<path d="M602.696 998.895H415.049C411.151 998.895 407.99 996.073 407.99 992.589C407.99 989.106 411.151 986.283 415.049 986.283H602.696C606.594 986.283 609.755 989.106 609.755 992.589C609.755 996.072 606.595 998.895 602.696 998.895Z" fill="#7D97F4"/>
<path d="M648.523 998.894H356.771C352.594 998.894 349.208 996.072 349.208 992.589C349.208 989.105 352.594 986.282 356.771 986.282H648.523C652.7 986.282 656.086 989.105 656.086 992.589C656.086 996.072 652.7 998.894 648.523 998.894Z" fill="#7D97F4"/>
<path d="M433.881 751.158C433.881 751.158 429.301 758.376 428.149 778.586C428.042 780.469 429.534 782.074 431.42 782.074H467.235C468.676 782.074 469.705 780.661 469.244 779.296C467.145 773.084 460.799 757.939 446.64 749.285L433.881 751.158Z" fill="url(#paint25_linear_356_1067)"/>
<path d="M432.324 737.463L434.35 754.449C434.525 755.914 435.673 757.088 437.139 757.257C439.098 757.482 441.946 757.641 444.713 757.185C447.228 756.77 449.038 754.53 449.038 751.98V735.581L432.324 737.463Z" fill="url(#paint26_linear_356_1067)"/>
<path d="M522.495 749.285C522.495 749.285 515.64 759.941 515.787 774.566C515.821 778.011 518.705 780.756 522.15 780.756H577.776C580.38 780.756 581.438 777.409 579.306 775.912C568.781 768.52 548.092 754.712 533.129 749.285L522.495 749.285Z" fill="url(#paint27_linear_356_1067)"/>
<path d="M516.767 730.941L521.088 751.919C521.571 754.265 523.867 755.843 526.205 755.321C527.626 755.004 529.303 754.397 531.095 753.277C532.798 752.212 533.661 750.186 533.313 748.208L528.844 722.793L516.767 730.941Z" fill="url(#paint28_linear_356_1067)"/>
<path d="M440.261 439.273C440.261 439.273 425.237 452.518 422.41 468.454C419.583 484.389 430.421 743.397 430.421 743.397C430.421 743.397 445.444 745.897 453.188 741.204C453.188 741.204 462.373 573.11 469.355 534.267C469.355 534.267 505.97 708.391 516.115 739.853C516.115 739.853 530.588 741.614 535.256 738.86C535.256 738.86 525.665 513.147 513.613 473.018L440.261 439.273Z" fill="url(#paint29_linear_356_1067)"/>
<path d="M468.917 528.169C468.474 528.169 468.071 527.872 467.954 527.424L461.671 503.321L448.21 494.687C447.747 494.39 447.613 493.773 447.91 493.31C448.206 492.847 448.822 492.71 449.288 493.01L463.076 501.854C463.286 501.989 463.438 502.198 463.502 502.441L469.883 526.92C470.022 527.454 469.702 527.998 469.17 528.137C469.086 528.159 469.002 528.169 468.917 528.169Z" fill="url(#paint30_linear_356_1067)"/>
<path d="M581.427 297.219C518.182 291.969 501.652 305.057 501.652 305.057L532.045 353.039C532.045 353.039 594.189 351.812 638.718 317.491C630.384 308.515 624.597 298.597 620.885 290.875C609.402 295.646 596.179 298.444 581.427 297.219Z" fill="url(#paint31_linear_356_1067)"/>
<path d="M680.468 204.385C680.383 202.358 677.636 201.807 676.775 203.643L668.705 220.864C667.145 224.192 666.645 227.917 667.273 231.538L670.103 241.561C670.95 246.449 669.673 251.457 666.575 255.331C659.16 264.601 643.367 281.532 620.885 290.874C624.597 298.597 630.385 308.515 638.718 317.49C655.057 304.898 669.027 287.855 676.681 264.776C680.348 263.649 682.799 260.197 682.653 256.363L680.468 204.385Z" fill="url(#paint32_linear_356_1067)"/>
<path d="M609.336 317.431C587.072 293.44 544.663 282.601 520.11 278.149C509.353 276.199 498.749 282.184 494.938 292.43C483.888 322.133 453.836 399.41 448.012 412.691C443.233 423.586 438.243 434.228 435.073 440.882C433.178 444.856 434.834 449.612 438.8 451.524C459.458 461.481 496.629 472.747 511.699 477.142C515.014 478.109 518.315 475.62 518.315 472.167C518.315 469.239 519.111 466.365 520.617 463.855L577.691 368.747C613.264 408.19 644.417 411.796 668.348 403.163C664.324 390.727 661.691 378.268 660.428 365.785C625.074 359.728 609.336 317.431 609.336 317.431Z" fill="url(#paint33_linear_356_1067)"/>
<path d="M718.865 359.165L712.484 350.658C691.829 364.844 674.563 368.207 660.429 365.785C661.692 378.268 664.325 390.727 668.349 403.163C699.876 391.79 718.865 359.165 718.865 359.165Z" fill="url(#paint34_linear_356_1067)"/>
<path d="M714.367 359.319L750.313 360.721L783.408 342.236C778.657 339.258 751.793 345.345 751.793 345.345C751.793 345.345 723.71 341.098 716.109 341.088C709.796 341.079 710.698 350.157 711.185 353.234C711.284 353.861 711.367 354.239 711.367 354.239L714.367 359.319Z" fill="url(#paint35_linear_356_1067)"/>
<path d="M553.883 234.088L534.917 280.368C534.917 280.368 556.709 295.451 574.241 294.016L583.706 252.402L553.883 234.088Z" fill="url(#paint36_linear_356_1067)"/>
<path d="M585.919 202.538C586.354 203.154 599.64 251.151 599.64 251.151L572.073 258.154L552.722 214.534C552.722 214.534 578.648 192.235 585.919 202.538Z" fill="url(#paint37_linear_356_1067)"/>
<path d="M563.103 221.161L571.491 244.922C571.599 245.227 571.743 245.508 571.929 245.772C573.067 247.39 577.392 252.667 582.522 247.913C587.176 243.6 591.488 239.732 595.47 239.03C597.258 238.715 598.99 239.806 599.474 241.556C600.68 245.917 603.216 255.795 604.11 264.713C604.291 266.523 603.042 268.159 601.255 268.498C595.871 269.521 584.455 271.359 574.924 270.688C573.633 270.596 572.496 269.822 571.958 268.645C569.331 262.905 561.284 245.492 558.291 240.987C555.482 236.758 548.596 236.877 545.707 237.133C544.76 237.217 543.829 236.911 543.114 236.285C540.588 234.07 535.779 228.415 542.543 221.646C543.959 220.229 543.921 217.944 542.462 216.572C539.557 213.841 536.45 208.996 541.29 202.989C546.209 196.882 552.703 197.854 556.682 199.305C558.29 199.893 560.045 199.212 560.92 197.74C561.418 196.902 562.286 196.268 563.792 196.397C565.821 196.572 567.527 194.878 567.491 192.842C567.42 188.93 568.821 183.987 575.608 181.875C587.65 178.127 595.159 189.761 595.903 198.443C596.647 207.124 583.36 210.445 575.547 209.86C569.606 209.414 565.196 215.302 563.423 218.151C562.861 219.053 562.749 220.159 563.103 221.161Z" fill="url(#paint38_linear_356_1067)"/>
<path d="M561.431 249.607C561.431 249.607 559.486 234.536 553.217 233.798C546.947 233.06 540.845 238.211 547.078 246.671C554.832 257.193 561.431 249.607 561.431 249.607Z" fill="url(#paint39_linear_356_1067)"/>
<path d="M707.571 265.603C701.337 269.787 693.11 273.856 683.835 274.783C663.3 276.837 655.087 254.249 654.06 234.74C653.034 215.233 670.488 196.751 685.889 198.805C693.143 199.772 701.08 204.383 707.447 208.991C712.59 212.713 719.771 209.053 719.771 202.705V132.637H790.656C796.564 132.637 800.48 126.537 798.011 121.169C792.449 109.081 786.202 90.7127 794.915 82.7843C808.455 70.4636 845.032 70.4636 851.193 88.9446C854.642 99.293 849.956 111.743 845.164 120.696C842.274 126.094 846.174 132.609 852.296 132.609H912.797V197.499C912.797 204.422 904.968 208.723 899.323 204.717C873.152 186.143 844.57 205.736 841.952 227.554C838.872 253.222 855.3 274.783 872.754 272.731C881.617 271.687 891.804 266.674 899.685 261.991C905.474 258.551 912.797 262.682 912.797 269.415V341.088H843.113C835.14 341.088 829.807 332.771 833.263 325.585C837.382 317.023 854.261 306.511 853.247 298.398C851.193 281.971 814.616 277.906 794.915 280.965C779.879 283.299 787.353 306.822 795.899 325.671C799.176 332.896 793.958 341.088 786.025 341.088H719.771V271.985C719.771 265.712 712.78 262.108 707.571 265.603Z" fill="url(#paint40_linear_356_1067)"/>
<path d="M915.456 343.747H843.113C838.416 343.747 834.117 341.369 831.613 337.388C829.138 333.449 828.857 328.607 830.865 324.432C832.755 320.505 836.662 316.598 840.798 312.462C845.6 307.659 851.044 302.216 850.607 298.728C850.268 296.016 848.629 293.534 845.736 291.352C835.487 283.621 811.397 281.098 795.322 283.594C792.827 283.98 791.194 285.032 790.182 286.904C788.367 290.262 787.008 299.623 798.32 324.573C800.242 328.81 799.89 333.666 797.378 337.563C794.883 341.435 790.638 343.747 786.024 343.747H717.111V271.984C717.111 270.076 716.114 268.406 714.444 267.515C712.717 266.593 710.701 266.706 709.052 267.812C700.776 273.365 692.381 276.601 684.1 277.429C677.022 278.133 670.823 276.25 665.667 271.825C654.023 261.831 651.814 242.659 651.405 234.881C650.829 223.962 655.786 212.275 664.34 204.38C671.035 198.2 679.024 195.211 686.24 196.169C692.768 197.039 700.427 200.628 709.007 206.837C710.597 207.99 712.591 208.143 714.332 207.255C716.072 206.366 717.111 204.666 717.111 202.705V129.979H790.657C792.55 129.979 794.22 129.067 795.238 127.479C796.255 125.892 796.384 123.998 795.595 122.281C789.128 108.225 783.451 89.6221 793.125 80.8178C802.067 72.6812 820.512 69.2878 835.117 73.1032C844.722 75.6107 851.327 80.9389 853.716 88.1029C857.492 99.4353 852.425 112.765 847.509 121.951C846.596 123.656 846.643 125.66 847.633 127.313C848.623 128.965 850.366 129.95 852.297 129.95H915.457V197.499C915.457 201.781 913.078 205.67 909.248 207.648C905.484 209.593 901.198 209.308 897.784 206.885C883.47 196.728 870.638 199.95 864.263 202.774C853.74 207.438 845.835 217.523 844.593 227.872C842.971 241.394 847.101 254.944 855.376 263.237C860.477 268.35 866.546 270.788 872.444 270.089C879.303 269.283 888.253 265.691 898.327 259.703C901.888 257.588 906.156 257.547 909.748 259.589C913.323 261.623 915.457 265.296 915.457 269.415V343.747H915.456ZM808.277 277.394C822.383 277.394 839.485 279.976 848.94 287.106C853.024 290.186 855.361 293.875 855.884 298.068C856.643 304.137 850.773 310.007 844.56 316.223C840.92 319.862 837.155 323.627 835.659 326.738C834.431 329.291 834.597 332.142 836.116 334.557C837.641 336.981 840.256 338.428 843.113 338.428H910.137V269.414C910.137 267.233 909.007 265.286 907.116 264.211C905.208 263.125 902.939 263.15 901.043 264.276C890.18 270.731 880.767 274.465 873.064 275.371C865.5 276.26 857.885 273.284 851.609 266.993C842.212 257.573 837.499 242.339 839.312 227.237C840.791 214.902 849.74 203.39 862.108 197.91C874.711 192.324 888.838 194.016 900.861 202.547C902.62 203.797 904.843 203.936 906.806 202.921C908.86 201.86 910.137 199.783 910.137 197.499V135.269H852.296C848.478 135.269 845.029 133.316 843.07 130.045C841.11 126.774 841.015 122.81 842.818 119.442C847.242 111.177 851.846 99.3221 848.669 89.7842C846.869 84.3835 841.578 80.2877 833.773 78.2491C820.955 74.9039 804.324 77.8193 796.703 84.7522C789.025 91.74 795.739 109.872 800.427 120.058C801.966 123.405 801.7 127.252 799.716 130.349C797.73 133.447 794.342 135.297 790.656 135.297H722.429V202.705C722.429 206.645 720.253 210.203 716.75 211.992C713.243 213.78 709.08 213.457 705.887 211.146C698.139 205.54 691.103 202.184 685.535 201.441C679.884 200.687 673.476 203.184 667.946 208.289C660.525 215.138 656.222 225.222 656.715 234.6C657.493 249.376 662.134 261.784 669.13 267.789C673.141 271.233 678.001 272.691 683.569 272.137C690.971 271.396 698.547 268.455 706.087 263.395C709.347 261.207 713.506 260.986 716.944 262.822C720.378 264.653 722.428 268.078 722.428 271.985V338.429H786.023C788.863 338.429 791.372 337.064 792.906 334.682C794.434 332.311 794.647 329.353 793.476 326.77C783.994 305.857 781.386 291.988 785.502 284.374C787.293 281.062 790.406 278.974 794.505 278.338C798.344 277.741 803.111 277.394 808.277 277.394Z" fill="#FCFAFA"/>
<defs>
<linearGradient id="paint0_linear_356_1067" x1="1507.33" y1="1290.25" x2="729.536" y2="462.274" gradientUnits="userSpaceOnUse">
<stop stop-color="#DAE3FE"/>
<stop offset="1" stop-color="#E9EFFD"/>
</linearGradient>
<linearGradient id="paint1_linear_356_1067" x1="889.601" y1="899.777" x2="1055.13" y2="1169.09" gradientUnits="userSpaceOnUse">
<stop stop-color="#4F52FF"/>
<stop offset="1" stop-color="#4042E2"/>
</linearGradient>
<linearGradient id="paint2_linear_356_1067" x1="913.782" y1="901.419" x2="1067.86" y2="1152.08" gradientUnits="userSpaceOnUse">
<stop stop-color="#4F52FF"/>
<stop offset="1" stop-color="#4042E2"/>
</linearGradient>
<linearGradient id="paint3_linear_356_1067" x1="928.957" y1="892.091" x2="1083.03" y2="1142.76" gradientUnits="userSpaceOnUse">
<stop stop-color="#4F52FF"/>
<stop offset="1" stop-color="#4042E2"/>
</linearGradient>
<linearGradient id="paint4_linear_356_1067" x1="944.132" y1="882.764" x2="1098.21" y2="1133.43" gradientUnits="userSpaceOnUse">
<stop stop-color="#4F52FF"/>
<stop offset="1" stop-color="#4042E2"/>
</linearGradient>
<linearGradient id="paint5_linear_356_1067" x1="959.306" y1="873.437" x2="1113.38" y2="1124.1" gradientUnits="userSpaceOnUse">
<stop stop-color="#4F52FF"/>
<stop offset="1" stop-color="#4042E2"/>
</linearGradient>
<linearGradient id="paint6_linear_356_1067" x1="1002.5" y1="929.16" x2="1156.08" y2="424.551" gradientUnits="userSpaceOnUse">
<stop stop-color="#09005D"/>
<stop offset="1" stop-color="#1A0F91"/>
</linearGradient>
<linearGradient id="paint7_linear_356_1067" x1="997.176" y1="927.539" x2="1150.75" y2="422.932" gradientUnits="userSpaceOnUse">
<stop stop-color="#09005D"/>
<stop offset="1" stop-color="#1A0F91"/>
</linearGradient>
<linearGradient id="paint8_linear_356_1067" x1="985.603" y1="924.016" x2="1139.18" y2="419.408" gradientUnits="userSpaceOnUse">
<stop stop-color="#09005D"/>
<stop offset="1" stop-color="#1A0F91"/>
</linearGradient>
<linearGradient id="paint9_linear_356_1067" x1="981.875" y1="922.881" x2="1135.45" y2="418.274" gradientUnits="userSpaceOnUse">
<stop stop-color="#09005D"/>
<stop offset="1" stop-color="#1A0F91"/>
</linearGradient>
<linearGradient id="paint10_linear_356_1067" x1="981.485" y1="244.439" x2="945.93" y2="1211.55" gradientUnits="userSpaceOnUse">
<stop stop-color="#FDF53F"/>
<stop offset="1" stop-color="#D93C65"/>
</linearGradient>
<linearGradient id="paint11_linear_356_1067" x1="1044.2" y1="584.252" x2="1070.27" y2="1412.69" gradientUnits="userSpaceOnUse">
<stop stop-color="#FDF53F"/>
<stop offset="1" stop-color="#D93C65"/>
</linearGradient>
<linearGradient id="paint12_linear_356_1067" x1="900.569" y1="588.773" x2="926.643" y2="1417.22" gradientUnits="userSpaceOnUse">
<stop stop-color="#FDF53F"/>
<stop offset="1" stop-color="#D93C65"/>
</linearGradient>
<linearGradient id="paint13_linear_356_1067" x1="1198.94" y1="151.039" x2="1635.83" y2="966.836" gradientUnits="userSpaceOnUse">
<stop stop-color="#FF928E"/>
<stop offset="1" stop-color="#FE7062"/>
</linearGradient>
<linearGradient id="paint14_linear_356_1067" x1="1176.55" y1="-110.334" x2="1665.2" y2="826.935" gradientUnits="userSpaceOnUse">
<stop stop-color="#FF928E"/>
<stop offset="1" stop-color="#FE7062"/>
</linearGradient>
<linearGradient id="paint15_linear_356_1067" x1="1457.47" y1="1202.37" x2="1097.21" y2="-15.0567" gradientUnits="userSpaceOnUse">
<stop stop-color="#FF928E"/>
<stop offset="1" stop-color="#FE7062"/>
</linearGradient>
<linearGradient id="paint16_linear_356_1067" x1="713.979" y1="130.831" x2="1202.63" y2="1068.1" gradientUnits="userSpaceOnUse">
<stop stop-color="#FF928E"/>
<stop offset="1" stop-color="#FE7062"/>
</linearGradient>
<linearGradient id="paint17_linear_356_1067" x1="944.792" y1="10.4954" x2="1433.44" y2="947.763" gradientUnits="userSpaceOnUse">
<stop stop-color="#FF928E"/>
<stop offset="1" stop-color="#FE7062"/>
</linearGradient>
<linearGradient id="paint18_linear_356_1067" x1="742.053" y1="395.718" x2="1178.94" y2="1211.51" gradientUnits="userSpaceOnUse">
<stop stop-color="#FF928E"/>
<stop offset="1" stop-color="#FE7062"/>
</linearGradient>
<linearGradient id="paint19_linear_356_1067" x1="964.183" y1="1348.34" x2="603.925" y2="130.916" gradientUnits="userSpaceOnUse">
<stop stop-color="#FF928E"/>
<stop offset="1" stop-color="#FE7062"/>
</linearGradient>
<linearGradient id="paint20_linear_356_1067" x1="797.348" y1="918.986" x2="619.723" y2="918.986" gradientUnits="userSpaceOnUse">
<stop stop-color="#FDF53F"/>
<stop offset="1" stop-color="#D93C65"/>
</linearGradient>
<linearGradient id="paint21_linear_356_1067" x1="888.869" y1="1370.62" x2="528.611" y2="153.202" gradientUnits="userSpaceOnUse">
<stop stop-color="#FF928E"/>
<stop offset="1" stop-color="#FE7062"/>
</linearGradient>
<linearGradient id="paint22_linear_356_1067" x1="1176.01" y1="1285.65" x2="815.75" y2="68.2329" gradientUnits="userSpaceOnUse">
<stop stop-color="#FF928E"/>
<stop offset="1" stop-color="#FE7062"/>
</linearGradient>
<linearGradient id="paint23_linear_356_1067" x1="1007.6" y1="1335.49" x2="647.346" y2="118.069" gradientUnits="userSpaceOnUse">
<stop stop-color="#FF928E"/>
<stop offset="1" stop-color="#FE7062"/>
</linearGradient>
<linearGradient id="paint24_linear_356_1067" x1="970.601" y1="273.322" x2="1407.49" y2="1089.12" gradientUnits="userSpaceOnUse">
<stop stop-color="#FF928E"/>
<stop offset="1" stop-color="#FE7062"/>
</linearGradient>
<linearGradient id="paint25_linear_356_1067" x1="428.144" y1="765.679" x2="469.355" y2="765.679" gradientUnits="userSpaceOnUse">
<stop stop-color="#09005D"/>
<stop offset="1" stop-color="#1A0F91"/>
</linearGradient>
<linearGradient id="paint26_linear_356_1067" x1="432.324" y1="746.529" x2="449.038" y2="746.529" gradientUnits="userSpaceOnUse">
<stop stop-color="#FEBBBA"/>
<stop offset="1" stop-color="#FF928E"/>
</linearGradient>
<linearGradient id="paint27_linear_356_1067" x1="515.784" y1="765.02" x2="580.446" y2="765.02" gradientUnits="userSpaceOnUse">
<stop stop-color="#09005D"/>
<stop offset="1" stop-color="#1A0F91"/>
</linearGradient>
<linearGradient id="paint28_linear_356_1067" x1="516.767" y1="739.107" x2="533.389" y2="739.107" gradientUnits="userSpaceOnUse">
<stop stop-color="#FEBBBA"/>
<stop offset="1" stop-color="#FF928E"/>
</linearGradient>
<linearGradient id="paint29_linear_356_1067" x1="421.939" y1="591.668" x2="535.256" y2="591.668" gradientUnits="userSpaceOnUse">
<stop stop-color="#09005D"/>
<stop offset="1" stop-color="#1A0F91"/>
</linearGradient>
<linearGradient id="paint30_linear_356_1067" x1="447.752" y1="510.51" x2="469.916" y2="510.51" gradientUnits="userSpaceOnUse">
<stop stop-color="#4F52FF"/>
<stop offset="1" stop-color="#4042E2"/>
</linearGradient>
<linearGradient id="paint31_linear_356_1067" x1="460.675" y1="774.785" x2="575.031" y2="290.764" gradientUnits="userSpaceOnUse">
<stop stop-color="#4F52FF"/>
<stop offset="1" stop-color="#4042E2"/>
</linearGradient>
<linearGradient id="paint32_linear_356_1067" x1="620.885" y1="260.008" x2="682.66" y2="260.008" gradientUnits="userSpaceOnUse">
<stop stop-color="#FEBBBA"/>
<stop offset="1" stop-color="#FF928E"/>
</linearGradient>
<linearGradient id="paint33_linear_356_1067" x1="573.115" y1="352.223" x2="263.436" y2="591.037" gradientUnits="userSpaceOnUse">
<stop stop-color="#4F52FF"/>
<stop offset="1" stop-color="#4042E2"/>
</linearGradient>
<linearGradient id="paint34_linear_356_1067" x1="767.855" y1="265.87" x2="634.377" y2="431.929" gradientUnits="userSpaceOnUse">
<stop stop-color="#FEBBBA"/>
<stop offset="1" stop-color="#FF928E"/>
</linearGradient>
<linearGradient id="paint35_linear_356_1067" x1="793.163" y1="286.211" x2="659.685" y2="452.27" gradientUnits="userSpaceOnUse">
<stop stop-color="#FEBBBA"/>
<stop offset="1" stop-color="#FF928E"/>
</linearGradient>
<linearGradient id="paint36_linear_356_1067" x1="617.692" y1="165.512" x2="488.418" y2="403.04" gradientUnits="userSpaceOnUse">
<stop stop-color="#FEBBBA"/>
<stop offset="1" stop-color="#FF928E"/>
</linearGradient>
<linearGradient id="paint37_linear_356_1067" x1="576.95" y1="209.274" x2="573.86" y2="303.971" gradientUnits="userSpaceOnUse">
<stop stop-color="#FEBBBA"/>
<stop offset="1" stop-color="#FF928E"/>
</linearGradient>
<linearGradient id="paint38_linear_356_1067" x1="637.491" y1="119.03" x2="553.274" y2="268.846" gradientUnits="userSpaceOnUse">
<stop stop-color="#09005D"/>
<stop offset="1" stop-color="#1A0F91"/>
</linearGradient>
<linearGradient id="paint39_linear_356_1067" x1="543.104" y1="306.43" x2="553.429" y2="241.592" gradientUnits="userSpaceOnUse">
<stop stop-color="#FEBBBA"/>
<stop offset="1" stop-color="#FF928E"/>
</linearGradient>
<linearGradient id="paint40_linear_356_1067" x1="930.028" y1="682.831" x2="569.77" y2="-534.59" gradientUnits="userSpaceOnUse">
<stop stop-color="#FF928E"/>
<stop offset="1" stop-color="#FE7062"/>
</linearGradient>
</defs>
</svg>
