<?xml version="1.0" encoding="UTF-8" standalone="no"?><!DOCTYPE svg PUBLIC "-//W3C//DTD SVG 1.1//EN" "http://www.w3.org/Graphics/SVG/1.1/DTD/svg11.dtd"><svg width="100%" height="100%" viewBox="0 0 512 512" version="1.1" xmlns="http://www.w3.org/2000/svg" xmlns:xlink="http://www.w3.org/1999/xlink" xml:space="preserve" xmlns:serif="http://www.serif.com/" style="fill-rule:evenodd;clip-rule:evenodd;stroke-linejoin:round;stroke-miterlimit:2;"><g id="Layer4"><g><rect x="383.522" y="457.489" width="12.767" height="0.367" style="fill:#eceded;fill-rule:nonzero;"/><rect x="492.292" y="439.865" width="28.187" height="0.367" style="fill:#eceded;fill-rule:nonzero;"/><rect x="-13.125" y="442.333" width="63.437" height="0.367" style="fill:#eceded;fill-rule:nonzero;"/><rect x="63.39" y="442.333" width="9.301" height="0.367" style="fill:#eceded;fill-rule:nonzero;"/><rect x="102.919" y="448.534" width="137.581" height="0.367" style="fill:#eceded;fill-rule:nonzero;"/><rect x="377.816" y="35.262" width="146.308" height="161.812" style="fill:#e1e2e1;fill-rule:nonzero;"/><rect x="373.144" y="35.262" width="151.748" height="161.812" style="fill:#f1f2f3;fill-rule:nonzero;"/><rect x="379.564" y="40.423" width="139.151" height="149.216" style="fill:#fff;fill-rule:nonzero;"/><rect x="379.564" y="40.423" width="4.024" height="149.216" style="fill:#e1e2e1;fill-rule:nonzero;"/><rect x="383.158" y="147.725" width="135.914" height="4.024" style="fill:#e1e2e1;fill-rule:nonzero;"/><rect x="379.564" y="140.971" width="141.309" height="6.755" style="fill:#f1f2f3;fill-rule:nonzero;"/><rect x="7.353" y="137.118" width="229.903" height="291.123" style="fill:#f1f2f3;fill-rule:nonzero;"/><rect x="15.479" y="147.728" width="213.651" height="62.253" style="fill:#e1e2e1;fill-rule:nonzero;"/><rect x="15.479" y="157.806" width="12.137" height="52.175" style="fill:#eceded;fill-rule:nonzero;"/><rect x="74.167" y="157.806" width="12.136" height="52.175" style="fill:#eceded;fill-rule:nonzero;"/><path d="M161.786,207.92l-11.959,2.062l-8.863,-51.418l11.961,-2.062l8.861,51.418Z" style="fill:#eceded;fill-rule:nonzero;"/><rect x="30.517" y="164.681" width="12.137" height="45.3" style="fill:#eceded;fill-rule:nonzero;"/><rect x="58.415" y="164.681" width="12.137" height="45.3" style="fill:#eceded;fill-rule:nonzero;"/><rect x="128.829" y="164.681" width="12.136" height="45.3" style="fill:#eceded;fill-rule:nonzero;"/><path d="M112.069,207.348l-11.848,2.634l-9.825,-44.221l11.848,-2.633l9.825,44.22Z" style="fill:#eceded;fill-rule:nonzero;"/><rect x="47.081" y="155.216" width="6.069" height="54.766" style="fill:#eceded;fill-rule:nonzero;"/><rect x="119.27" y="155.216" width="6.069" height="54.766" style="fill:#eceded;fill-rule:nonzero;"/><rect x="15.479" y="219.838" width="213.651" height="62.253" style="fill:#e1e2e1;fill-rule:nonzero;"/><rect x="216.994" y="229.916" width="12.136" height="52.175" style="fill:#eceded;fill-rule:nonzero;"/><rect x="158.308" y="229.916" width="12.136" height="52.175" style="fill:#eceded;fill-rule:nonzero;"/><path d="M82.825,280.03l11.959,2.062l8.861,-51.418l-11.96,-2.062l-8.86,51.418Z" style="fill:#eceded;fill-rule:nonzero;"/><rect x="201.955" y="236.793" width="12.137" height="45.299" style="fill:#eceded;fill-rule:nonzero;"/><rect x="174.058" y="236.793" width="12.137" height="45.299" style="fill:#eceded;fill-rule:nonzero;"/><rect x="103.645" y="236.793" width="12.137" height="45.299" style="fill:#eceded;fill-rule:nonzero;"/><path d="M132.541,279.46l11.848,2.632l9.826,-44.221l-11.848,-2.634l-9.826,44.223Z" style="fill:#eceded;fill-rule:nonzero;"/><rect x="191.461" y="227.326" width="6.069" height="54.766" style="fill:#eceded;fill-rule:nonzero;"/><rect x="119.27" y="227.327" width="6.069" height="54.765" style="fill:#eceded;fill-rule:nonzero;"/><rect x="15.479" y="229.916" width="12.137" height="52.175" style="fill:#eceded;fill-rule:nonzero;"/><rect x="30.517" y="236.793" width="12.137" height="45.299" style="fill:#eceded;fill-rule:nonzero;"/><rect x="58.415" y="236.793" width="12.137" height="45.299" style="fill:#eceded;fill-rule:nonzero;"/><rect x="47.081" y="227.327" width="6.069" height="54.765" style="fill:#eceded;fill-rule:nonzero;"/><rect x="15.479" y="291.948" width="213.651" height="62.253" style="fill:#e1e2e1;fill-rule:nonzero;"/><rect x="138.108" y="302.028" width="12.137" height="52.174" style="fill:#eceded;fill-rule:nonzero;"/><path d="M225.729,352.141l-11.96,2.061l-8.862,-51.418l11.961,-2.06l8.861,51.417Z" style="fill:#eceded;fill-rule:nonzero;"/><rect x="94.461" y="308.903" width="12.137" height="45.299" style="fill:#eceded;fill-rule:nonzero;"/><rect x="122.358" y="308.903" width="12.137" height="45.299" style="fill:#eceded;fill-rule:nonzero;"/><rect x="192.77" y="308.903" width="12.137" height="45.299" style="fill:#eceded;fill-rule:nonzero;"/><path d="M176.012,351.57l-11.848,2.632l-9.826,-44.221l11.848,-2.632l9.826,44.221Z" style="fill:#eceded;fill-rule:nonzero;"/><rect x="111.024" y="299.437" width="6.069" height="54.765" style="fill:#eceded;fill-rule:nonzero;"/><rect x="183.214" y="299.437" width="6.067" height="54.765" style="fill:#eceded;fill-rule:nonzero;"/><path d="M86.1,352.141l-11.961,2.061l-8.861,-51.418l11.96,-2.06l8.862,51.417Z" style="fill:#eceded;fill-rule:nonzero;"/><rect x="53.141" y="308.903" width="12.137" height="45.299" style="fill:#eceded;fill-rule:nonzero;"/><path d="M36.382,351.57l-11.848,2.632l-9.826,-44.221l11.848,-2.632l9.826,44.221Z" style="fill:#eceded;fill-rule:nonzero;"/><rect x="43.583" y="299.437" width="6.069" height="54.765" style="fill:#eceded;fill-rule:nonzero;"/><path d="M377.68,254.47l129.559,0c14.054,0 25.445,11.391 25.445,25.445l0,101.169l-180.45,0l0,-101.169c0,-14.054 11.392,-25.445 25.446,-25.445Z" style="fill:#e7e7e7;fill-rule:nonzero;"/><path d="M313.929,329.456l23.185,0c8.351,0 15.12,6.767 15.12,15.118l0,83.667l-53.425,0l0,-83.667c0,-8.351 6.769,-15.118 15.12,-15.118Z" style="fill:#e1e2e1;fill-rule:nonzero;"/><path d="M313.929,329.456l0.49,0c8.35,0 15.12,6.767 15.12,15.118l0,83.667l-30.73,0l0,-83.667c0,-8.351 6.769,-15.118 15.12,-15.118Z" style="fill:#eceded;fill-rule:nonzero;"/><rect x="336.01" y="389.809" width="177.803" height="38.433" style="fill:#e7e7e7;fill-rule:nonzero;"/><path d="M335.757,354.66l171.474,0c8.491,0 15.373,6.882 15.373,15.371l0,9.577c0,8.49 -6.882,15.373 -15.373,15.373l-171.474,0c-8.489,0 -15.373,-6.883 -15.373,-15.373l0,-9.577c0,-8.489 6.884,-15.371 15.373,-15.371Z" style="fill:#f6f8f9;fill-rule:nonzero;"/><path d="M485.683,354.66l21.268,0c8.49,0 15.373,6.882 15.373,15.371l0,9.577c0,8.49 -6.883,15.373 -15.373,15.373l-21.268,0c-8.491,0 -15.373,-6.883 -15.373,-15.373l0,-9.577c0,-8.489 6.882,-15.371 15.373,-15.371Z" style="fill:#e1e2e1;fill-rule:nonzero;"/><path d="M509.244,329.456l23.186,0c8.351,0 15.12,6.767 15.12,15.12l0,83.665l-53.427,0l0,-83.665c0,-8.353 6.771,-15.12 15.121,-15.12Z" style="fill:#e1e2e1;fill-rule:nonzero;"/><path d="M509.244,329.456l0.49,0c8.351,0 15.12,6.767 15.12,15.12l0,83.665l-30.731,0l0,-83.665c0,-8.353 6.771,-15.12 15.121,-15.12Z" style="fill:#f1f2f3;fill-rule:nonzero;"/><path d="M159.933,69.071c0,-19.106 -15.488,-34.594 -34.594,-34.594c-19.105,0 -34.594,15.488 -34.594,34.594c0,19.105 15.489,34.592 34.594,34.592c19.106,0 34.594,-15.487 34.594,-34.592Z" style="fill:#e1e2e1;fill-rule:nonzero;"/><path d="M154.753,69.071c0,-16.245 -13.169,-29.414 -29.414,-29.414c-16.244,0 -29.414,13.169 -29.414,29.414c0,16.244 13.17,29.412 29.414,29.412c16.245,0 29.414,-13.168 29.414,-29.412Z" style="fill:#f1f2f3;fill-rule:nonzero;"/><path d="M123.951,89.248l0,-20.562l-13.625,7.711l13.625,12.851Z" style="fill:#f1f2f3;fill-rule:nonzero;"/><path d="M125.42,89.248l0,-20.562c0,-0.524 -0.275,-1.004 -0.729,-1.269c-0.452,-0.264 -1.006,-0.267 -1.463,-0.01l-13.626,7.711c-0.707,0.399 -0.955,1.296 -0.555,2.001c0.399,0.707 1.297,0.955 2.002,0.556l11.435,-6.47l0,18.043c0,0.811 0.656,1.469 1.467,1.469c0.812,0 1.469,-0.658 1.469,-1.469Z" style="fill:#e1e2e1;fill-rule:nonzero;"/><path d="M561.765,479.565c0,9.185 -127.491,16.63 -284.763,16.63c-157.27,0 -284.763,-7.445 -284.763,-16.63c0,-9.185 127.493,-16.632 284.763,-16.632c157.272,0 284.763,7.447 284.763,16.632Z" style="fill:#f6f8f9;fill-rule:nonzero;"/><path d="M86.068,432.042l-0.068,-0.004c-0.295,-0.037 -0.505,-0.307 -0.468,-0.602c0.01,-0.097 0.08,-1.15 0.163,-2.967c0.141,-2.719 0.367,-8.411 0.284,-16.029c0.006,-0.137 0.002,-0.229 -0.002,-0.328c-0.103,-8.512 -0.559,-16.888 -1.355,-24.91c-0.738,-7.483 -1.793,-14.748 -3.135,-21.595c-1.228,-6.197 -2.695,-12.069 -4.364,-17.455l-0.016,-0.047l-0.001,0.001c-0.262,-0.844 -0.536,-1.69 -0.813,-2.533c-0.229,-0.686 -0.462,-1.376 -0.706,-2.066c-0.626,-1.788 -1.191,-3.499 -1.683,-5.085c-1.096,-3.493 -2.064,-6.978 -2.871,-10.365c-0.494,-2.029 -0.932,-4.03 -1.3,-5.939c-1.475,-7.462 -2.312,-14.86 -2.485,-21.986c-0.074,-2.908 -0.031,-5.808 0.125,-8.622c0.171,-3.068 0.49,-6.034 0.945,-8.812c0.039,-0.21 0.068,-0.402 0.096,-0.587l0.047,-0.273l0.15,-0.362c0.205,-0.217 0.546,-0.224 0.762,-0.017c0.141,0.135 0.194,0.345 0.154,0.534l0.002,0l-0.049,0.282c-0.031,0.194 -0.06,0.395 -0.098,0.607c-0.448,2.732 -0.762,5.657 -0.933,8.689c-0.154,2.784 -0.195,5.654 -0.123,8.533c0.173,7.067 1.001,14.403 2.464,21.808c0.366,1.893 0.801,3.875 1.291,5.894c0.804,3.362 1.763,6.825 2.852,10.294c0.49,1.578 1.051,3.275 1.672,5.05c0.245,0.693 0.479,1.388 0.714,2.085c0.276,0.848 0.55,1.692 0.813,2.537l0.016,0.048l0.002,0c1.68,5.425 3.159,11.34 4.394,17.577c1.35,6.884 2.409,14.184 3.152,21.697c0.799,8.055 1.256,16.461 1.359,24.986c0.005,0.12 0.01,0.245 0.001,0.383c0.084,7.612 -0.142,13.33 -0.283,16.059c-0.086,1.85 -0.159,2.95 -0.171,3.049c-0.035,0.272 -0.266,0.471 -0.534,0.471Z" style="fill:#3e75ba;fill-rule:nonzero;"/><path d="M68.972,282.029l0.024,-0.025l0.022,-0.027c0.903,-0.872 1.907,-1.632 2.975,-2.275c1.175,-0.683 2.438,-1.239 3.757,-1.607" style="fill:#3e75ba;fill-rule:nonzero;"/><path d="M68.971,282.563l-0.213,-0.044c-0.274,-0.119 -0.398,-0.433 -0.279,-0.706l0.111,-0.166l0.053,-0.053l0,-0.003c0.909,-0.881 1.945,-1.672 3.073,-2.352c1.27,-0.74 2.577,-1.298 3.889,-1.665c0.285,-0.078 0.584,0.088 0.663,0.376c0.081,0.286 -0.086,0.584 -0.374,0.664c-1.223,0.342 -2.444,0.863 -3.629,1.554c-1.052,0.633 -2.021,1.374 -2.873,2.198l-0.012,0.011c-0.104,0.119 -0.254,0.186 -0.409,0.186Z" style="fill:#3e75ba;fill-rule:nonzero;"/><path d="M67.913,292.08l-0.344,-0.123l-3.63,-3.009c-0.229,-0.191 -0.262,-0.531 -0.071,-0.761c0.19,-0.226 0.529,-0.262 0.76,-0.071l3.63,3.011c0.229,0.191 0.26,0.53 0.071,0.761c-0.106,0.126 -0.26,0.192 -0.416,0.192Z" style="fill:#3e75ba;fill-rule:nonzero;"/><path d="M74.419,338.858c-0.287,0 -0.525,-0.27 -0.539,-0.561l0,-0.012c0.152,-1.075 0.397,-2.029 0.738,-2.937c0.47,-1.335 1.142,-2.6 1.999,-3.757c0.622,-0.846 1.354,-1.635 2.173,-2.348c0.223,-0.193 0.566,-0.172 0.761,0.054c0.195,0.225 0.17,0.565 -0.054,0.761c-0.76,0.659 -1.437,1.392 -2.014,2.173c-0.792,1.071 -1.416,2.243 -1.852,3.484c-0.317,0.849 -0.543,1.729 -0.678,2.626c0.013,0.3 -0.215,0.504 -0.513,0.517l-0.021,0Z" style="fill:#3e75ba;fill-rule:nonzero;"/><path d="M77.64,348.524c-0.205,0 -0.404,-0.119 -0.492,-0.321c-1.01,-2.266 -3.019,-4.083 -5.377,-4.857c-0.282,-0.094 -0.436,-0.399 -0.343,-0.681c0.094,-0.283 0.398,-0.439 0.681,-0.345c2.641,0.869 4.892,2.905 6.023,5.444c0.122,0.273 -0.001,0.592 -0.273,0.713l-0.219,0.047Z" style="fill:#3e75ba;fill-rule:nonzero;"/><path d="M85.85,396.519c-1.229,-1.359 -2.348,-6.685 -2.95,-9.548c-0.144,-0.684 -0.266,-1.269 -0.366,-1.689" style="fill:#3e75ba;fill-rule:nonzero;"/><path d="M85.85,397.058c-0.147,0 -0.293,-0.06 -0.399,-0.178c-1.225,-1.351 -2.231,-5.766 -3.079,-9.796c-0.142,-0.681 -0.264,-1.26 -0.362,-1.677c-0.069,-0.289 0.111,-0.579 0.399,-0.648c0.289,-0.076 0.582,0.11 0.649,0.4c0.102,0.423 0.225,1.012 0.369,1.702c0.549,2.613 1.692,8.045 2.824,9.295c0.2,0.221 0.182,0.561 -0.038,0.761l-0.363,0.141Z" style="fill:#3e75ba;fill-rule:nonzero;"/><path d="M71.566,328.521c-0.281,0 -0.517,-0.217 -0.538,-0.5c-0.064,-0.882 -1.445,-21.662 10.023,-29.973c0.242,-0.175 0.578,-0.121 0.753,0.12c0.173,0.241 0.12,0.577 -0.12,0.753c-10.979,7.958 -9.595,28.813 -9.581,29.022c0.021,0.295 -0.201,0.556 -0.499,0.577l-0.038,0.001Z" style="fill:#3e75ba;fill-rule:nonzero;"/><path d="M72.517,373.725c-1.315,5.033 9.798,14.016 9.798,14.016c0,0 14.088,-2.393 15.405,-7.425c1.315,-5.033 -2.629,-12.999 -9.589,-14.819c-6.959,-1.821 -14.298,3.196 -15.614,8.228Z" style="fill:#3e75ba;fill-rule:nonzero;"/><path d="M58.001,313.989c1.589,5.214 11.886,8.515 11.886,8.515c0,0 6.706,-8.483 5.117,-13.695c-1.589,-5.214 -7.445,-10.779 -12.14,-9.349c-4.696,1.431 -6.452,9.318 -4.863,14.529Z" style="fill:#3e75ba;fill-rule:nonzero;"/><path d="M85.451,329.71c-1.301,1.056 -2.642,2.135 -4.24,2.645c-1.597,0.509 -3.531,0.326 -4.685,-0.89c-1.43,-1.509 -1.171,-3.953 -0.397,-5.882c1.536,-3.82 7.527,-10.452 12.422,-8.84c7.069,2.327 -0.1,10.529 -3.1,12.967Z" style="fill:#3e75ba;fill-rule:nonzero;"/><path d="M71.641,339.877c0.962,1.09 1.993,2.474 1.554,3.86c-0.39,1.229 -1.852,1.849 -3.135,1.713c-1.282,-0.138 -2.423,-0.843 -3.513,-1.532c-2.53,-1.597 -7.718,-4.951 -4.653,-8.436c3.186,-3.624 7.72,2.098 9.747,4.395Z" style="fill:#3e75ba;fill-rule:nonzero;"/><path d="M90.086,291.383c1.056,0.07 2.15,0.727 2.375,1.759c0.263,1.209 -0.699,2.318 -1.647,3.115c-2.354,1.986 -9.455,7.376 -11.304,2.557c-1.748,-4.551 7.323,-7.647 10.576,-7.431Z" style="fill:#3e75ba;fill-rule:nonzero;"/><path d="M75.879,275.891c1.517,0.076 3.002,-0.538 4.521,-0.508c1.519,0.029 3.253,1.175 2.981,2.67c-0.251,1.38 -1.931,1.913 -3.328,2.063c-2.382,0.256 -4.798,0.196 -7.165,-0.18c-0.55,-0.087 -1.149,-0.224 -1.481,-0.669c-0.652,-0.875 0.269,-2.126 1.297,-2.492c1.03,-0.366 2.21,-0.31 3.133,-0.893l0.042,0.009Z" style="fill:#3e75ba;fill-rule:nonzero;"/><path d="M61.567,286.937c-1.516,0.11 -3.011,-0.472 -4.531,-0.41c-1.519,0.063 -3.227,1.246 -2.923,2.733c0.281,1.377 1.973,1.873 3.372,1.992c2.388,0.204 4.802,0.089 7.16,-0.335c0.548,-0.098 1.144,-0.248 1.466,-0.699c0.633,-0.89 -0.314,-2.122 -1.351,-2.465c-1.036,-0.342 -2.216,-0.262 -3.151,-0.823l-0.042,0.007Z" style="fill:#3e75ba;fill-rule:nonzero;"/><path d="M68.552,284.044l-0.038,-0.002c-0.297,-0.02 -0.522,-0.279 -0.5,-0.576c0.208,-2.953 -0.11,-5.788 -0.668,-5.951c-0.285,-0.082 -0.449,-0.38 -0.367,-0.668c0.084,-0.285 0.38,-0.451 0.67,-0.366c1.715,0.498 1.579,5.104 1.441,7.062c-0.021,0.283 -0.257,0.501 -0.538,0.501Z" style="fill:#3e75ba;fill-rule:nonzero;"/><path d="M69.554,277.117c-1.006,-2.016 -2.092,-4.127 -3.972,-5.369c-1.88,-1.246 -4.802,-1.216 -6.048,0.661c-1.395,2.1 0.225,5.127 2.544,6.112c2.321,0.986 4.969,0.542 7.446,0.084c0.005,-0.372 0.008,-0.743 0.012,-1.115l0.018,-0.373Z" style="fill:#3e75ba;fill-rule:nonzero;"/><path d="M87.73,450.217l-0.1,-0.01c-0.292,-0.054 -0.486,-0.335 -0.43,-0.627c3.613,-19.28 14.583,-27.692 14.693,-27.775c0.239,-0.179 0.577,-0.129 0.756,0.109c0.178,0.237 0.129,0.574 -0.109,0.754c-0.107,0.08 -10.75,8.268 -14.28,27.109c-0.05,0.258 -0.276,0.44 -0.53,0.44Z" style="fill:#3e75ba;fill-rule:nonzero;"/><path d="M99.073,425.816c-0.222,0 -0.427,-0.136 -0.507,-0.352c-0.103,-0.281 0.038,-0.59 0.317,-0.693c0.089,-0.031 2.19,-0.796 5.671,-0.203c0.295,0.051 0.492,0.329 0.442,0.623c-0.048,0.292 -0.329,0.493 -0.621,0.44c-3.173,-0.536 -5.098,0.146 -5.117,0.15l-0.185,0.035Z" style="fill:#3e75ba;fill-rule:nonzero;"/><path d="M96.638,428.833c-0.285,0 -0.523,-0.225 -0.538,-0.512c-0.373,-7.351 3.525,-13.091 3.691,-13.332c0.168,-0.245 0.504,-0.308 0.751,-0.138c0.243,0.169 0.307,0.505 0.136,0.749c-0.038,0.058 -3.855,5.691 -3.5,12.666c0.013,0.297 -0.214,0.551 -0.512,0.566l-0.028,0.001Z" style="fill:#3e75ba;fill-rule:nonzero;"/><path d="M92.777,435.138c-0.136,0 -0.272,-0.051 -0.376,-0.154c-0.213,-0.207 -0.218,-0.549 -0.011,-0.762c0.128,-0.131 3.155,-3.161 7.46,-1.818c0.285,0.089 0.443,0.392 0.352,0.675c-0.088,0.287 -0.389,0.444 -0.674,0.356c-3.68,-1.155 -6.34,1.512 -6.365,1.54c-0.106,0.109 -0.247,0.163 -0.386,0.163Z" style="fill:#3e75ba;fill-rule:nonzero;"/><path d="M90.803,439.506c-0.203,0 -0.395,-0.114 -0.488,-0.308c-0.073,-0.152 -1.78,-3.812 -1.144,-9.128c0.037,-0.295 0.298,-0.511 0.601,-0.472c0.295,0.037 0.505,0.304 0.47,0.6c-0.597,4.99 1.031,8.502 1.047,8.537c0.128,0.269 0.013,0.591 -0.256,0.718l-0.23,0.053Z" style="fill:#3e75ba;fill-rule:nonzero;"/><path d="M88.839,443.87c0.054,0.085 -0.399,0.495 1.144,0.594c3.803,0.246 10.512,0.171 12.936,-3.053c3.464,-4.606 -4.829,-4.384 -4.097,-6.953c0.731,-2.568 9.715,-0.227 11.348,-3.881c1.634,-3.652 -4.835,-3.095 -4.589,-4.99c0.245,-1.894 7.126,0.744 9.254,-3.121c2.13,-3.864 -3.757,-1.918 -2.841,-3.519c0.915,-1.599 8.268,-8.17 5.164,-9.755c-3.102,-1.584 -9.99,5.295 -12.307,5.991c-1.053,0.316 -1.78,-0.943 -2.544,-2.2c-0.918,-1.513 -1.884,-3.025 -3.525,-1.804c-3.008,2.24 -0.684,12.744 -4.231,13.952c-1.454,0.495 -1.701,-0.406 -2.177,-1.306c-0.388,-0.736 -0.931,-1.472 -2.411,-1.445c-4.474,0.083 -5.515,14.703 -1.124,21.49Z" style="fill:#3e75ba;fill-rule:nonzero;"/><path d="M98.85,435.144l-10.369,0c-0.276,-2.552 -0.973,-4.609 -2.336,-5.104c-0.008,-0.002 -0.017,-0.007 -0.027,-0.01c0.351,-4.244 1.705,-7.611 3.845,-7.65l0.079,0c1.422,0 1.95,0.722 2.332,1.445c0.382,0.724 0.617,1.447 1.448,1.447c0.203,0 0.442,-0.044 0.729,-0.141c3.547,-1.208 1.223,-11.712 4.231,-13.952c0.42,-0.312 0.798,-0.446 1.138,-0.446c0.995,0 1.705,1.125 2.387,2.25c0.683,1.124 1.336,2.249 2.219,2.249c0.106,0 0.213,-0.017 0.325,-0.049c2.079,-0.624 7.838,-6.227 11.241,-6.227c0.389,0 0.748,0.073 1.066,0.236c0.538,0.274 0.761,0.697 0.76,1.218c-0.005,2.489 -5.166,7.216 -5.924,8.537c-0.066,0.116 -0.096,0.213 -0.098,0.296c-0.007,0.879 3.413,0.041 3.406,1.815c-0.002,0.354 -0.138,0.812 -0.467,1.408c-2.128,3.865 -9.009,1.227 -9.254,3.121c-0.005,0.036 -0.006,0.069 -0.006,0.103c-0.002,1.57 4.861,1.381 4.86,3.806c0,0.117 -0.011,0.239 -0.034,0.368c-0.022,0.116 -0.053,0.24 -0.096,0.367c-0.036,0.111 -0.08,0.227 -0.135,0.346c-1.633,3.654 -10.617,1.313 -11.348,3.881c-0.031,0.11 -0.047,0.216 -0.047,0.316c0,0.131 0.028,0.254 0.075,0.37Z" style="fill:#749dd3;fill-rule:nonzero;"/><path d="M87.317,450.687c-0.239,0 -0.458,-0.161 -0.521,-0.402c-4.225,-16.038 -15.285,-26.124 -15.396,-26.224c-0.222,-0.199 -0.24,-0.542 -0.041,-0.762c0.201,-0.222 0.542,-0.239 0.762,-0.041c0.113,0.103 11.409,10.391 15.718,26.754c0.075,0.286 -0.096,0.581 -0.385,0.658l-0.137,0.017Z" style="fill:#3e75ba;fill-rule:nonzero;"/><path d="M78.007,430.757l0.003,0l-0.003,0Zm0.056,0.015l0.112,0.051l-0.112,-0.051Zm-0.16,1.054l-0.107,-0.011l-0.115,-0.036l-0.066,-0.025c-1.887,-0.697 -3.978,-1.013 -5.888,-0.891c-0.289,0.019 -0.553,-0.207 -0.571,-0.505c-0.019,-0.297 0.207,-0.553 0.504,-0.573c2.054,-0.126 4.303,0.211 6.328,0.956l0.074,0.031c0.261,0.079 0.424,0.345 0.368,0.62c-0.05,0.257 -0.276,0.434 -0.527,0.434Z" style="fill:#3e75ba;fill-rule:nonzero;"/><path d="M80.062,434.461l-0.026,-0.001c-0.297,-0.013 -0.528,-0.268 -0.513,-0.564c0.301,-6.144 -3.077,-11.06 -3.111,-11.111c-0.17,-0.244 -0.111,-0.579 0.134,-0.749c0.241,-0.17 0.579,-0.112 0.749,0.132c0.148,0.212 3.625,5.258 3.305,11.779c-0.014,0.289 -0.251,0.514 -0.538,0.514Z" style="fill:#3e75ba;fill-rule:nonzero;"/><path d="M82.322,437.983l-0.367,-0.144c-0.094,-0.085 -2.35,-2.122 -5.575,-1.12c-0.283,0.089 -0.586,-0.072 -0.674,-0.354c-0.09,-0.285 0.07,-0.588 0.355,-0.676c3.834,-1.195 6.518,1.257 6.63,1.362c0.217,0.204 0.228,0.541 0.027,0.76c-0.106,0.115 -0.252,0.172 -0.396,0.172Z" style="fill:#3e75ba;fill-rule:nonzero;"/><path d="M85.25,443.824l-0.231,-0.051c-0.269,-0.127 -0.385,-0.448 -0.259,-0.718c0.017,-0.03 1.443,-3.142 0.908,-7.523c-0.037,-0.297 0.173,-0.566 0.469,-0.601c0.296,-0.045 0.565,0.173 0.602,0.469c0.576,4.707 -0.937,7.979 -1.003,8.116c-0.091,0.195 -0.284,0.308 -0.486,0.308Z" style="fill:#3e75ba;fill-rule:nonzero;"/><path d="M87.021,447.963c-2.935,0.183 -8.066,-2.322 -10.152,-4.886c-2.115,-2.604 3.576,-1.181 2.907,-3.27c-0.67,-2.088 -7.529,-0.222 -8.939,-3.193c-1.411,-2.969 3.618,-2.494 3.352,-4.031c-0.266,-1.538 -5.431,-0.996 -7.235,-4.142c-1.802,-3.144 2.832,-1.542 2.058,-2.842c-0.774,-1.303 -6.728,-6.666 -4.39,-7.94c2.336,-1.274 7.945,4.336 9.767,4.91c0.801,0.253 1.296,-0.392 1.808,-1.037c0.647,-0.821 1.318,-1.64 2.673,-0.617c2.417,1.829 1.041,10.346 3.836,11.34c1.025,0.364 1.294,-0.38 1.587,-1.125c0.304,-0.766 0.636,-1.532 1.852,-1.09c4.198,1.526 2.065,17.848 0.876,17.923Z" style="fill:#3e75ba;fill-rule:nonzero;"/><path d="M88.481,435.144l-17.788,0c0.598,-1.344 3.509,-1.348 3.506,-2.447c0,-0.036 -0.004,-0.075 -0.01,-0.114c-0.266,-1.538 -5.431,-0.996 -7.235,-4.142c-0.298,-0.521 -0.42,-0.914 -0.42,-1.209c0.006,-1.344 2.566,-0.703 2.566,-1.379c0,-0.069 -0.028,-0.153 -0.088,-0.254c-0.648,-1.091 -4.934,-5.033 -4.931,-7.032c0,-0.386 0.162,-0.701 0.541,-0.908c0.238,-0.129 0.508,-0.188 0.805,-0.188c2.632,0 7.325,4.583 8.962,5.098c0.121,0.038 0.236,0.056 0.346,0.056c0.607,0 1.028,-0.546 1.462,-1.093c0.431,-0.548 0.875,-1.094 1.523,-1.094c0.323,0 0.699,0.137 1.15,0.477c2.417,1.829 1.041,10.346 3.836,11.34c0.185,0.065 0.345,0.096 0.486,0.096c0.637,0 0.861,-0.611 1.101,-1.221c0.243,-0.609 0.503,-1.22 1.212,-1.22c0.182,0 0.394,0.041 0.64,0.13c1.363,0.495 2.06,2.552 2.336,5.104Z" style="fill:#608dc9;fill-rule:nonzero;"/><path d="M110.451,453.657c0,14.217 6.273,25.74 -25.74,25.74c-28.452,0 -25.742,-11.523 -25.742,-25.74c0,-14.217 11.525,-18.243 25.742,-18.243c14.215,0 25.74,4.026 25.74,18.243Z" style="fill:#182e35;fill-rule:nonzero;"/><rect x="56.259" y="435.144" width="56.991" height="14.102" style="fill:#182e35;fill-rule:nonzero;"/><path d="M113.25,449.247l-56.991,0l0,-14.103l56.991,0l0,14.103Z" style="fill:#4b5b61;fill-rule:nonzero;"/><path d="M474.063,479.397l-209.007,0c-7.859,0 -14.23,-6.371 -14.23,-14.228l0,-398.655c0,-7.859 6.371,-14.229 14.23,-14.229l209.007,0c7.857,0 14.228,6.37 14.228,14.229l0,398.655c0,7.857 -6.371,14.228 -14.228,14.228Z" style="fill:#3e75ba;fill-rule:nonzero;"/><path d="M474.063,479.397l-209.007,0c-7.859,0 -14.23,-6.371 -14.23,-14.228l0,-201.437l5.614,-7.464c-0.361,-1.296 -0.859,-2.531 -1.442,-3.696l0.914,-0.928l2.126,-2.206c0.268,-0.28 0.535,-0.562 0.801,-0.844l0,22.121l0.001,50.788l-0.001,0.001l0,17.181l0.001,126.118c0,3.008 2.265,5.334 5.271,5.334l210.266,0c3.271,0 5.901,-2.542 5.901,-5.811l0,-347.066l0.006,-0.006l0,-17.194l-0.006,-13.977l0,-19.49c0,-2.868 -2.29,-5.359 -5.16,-5.359l-6.797,0l0.008,-0.007l-45.017,0c-1.491,0 -2.832,0.985 -3.393,2.38l-2.174,5.389c-0.547,1.382 -1.901,2.299 -3.379,2.299l-89.499,0c-1.478,0 -2.832,-0.958 -3.38,-2.34l-2.173,-5.361c-0.561,-1.396 -1.902,-2.367 -3.393,-2.367l-52.567,0c-2.6,0 -4.515,2.283 -4.515,4.883l0,85.524c-0.458,-0.324 -0.893,-0.551 -1.302,-0.672l-0.004,0l0,-0.004l-6.707,-0.993l0,-83.451c0,-7.859 6.371,-14.229 14.23,-14.229l209.007,0c7.857,0 14.228,6.37 14.228,14.229l0,398.655c0,7.857 -6.371,14.228 -14.228,14.228Zm-107.581,-420.679c-1.677,0 -3.039,1.36 -3.039,3.04c0,1.678 1.362,3.038 3.039,3.038c1.679,0 3.04,-1.36 3.04,-3.038c0,-1.68 -1.361,-3.04 -3.04,-3.04Zm7.244,1.091c-1.074,0 -1.946,0.873 -1.946,1.949c0,1.074 0.872,1.946 1.946,1.946c1.076,0 1.947,-0.872 1.947,-1.946c0,-1.076 -0.871,-1.949 -1.947,-1.949Z" style="fill:#d7e5f5;fill-rule:nonzero;"/><path d="M366.482,64.796c-1.677,0 -3.039,-1.36 -3.039,-3.038c0,-1.68 1.362,-3.04 3.039,-3.04c1.679,0 3.04,1.36 3.04,3.04c0,1.678 -1.361,3.038 -3.04,3.038Z" style="fill:#545c68;fill-rule:nonzero;"/><path d="M373.726,63.704c-1.074,0 -1.946,-0.872 -1.946,-1.946c0,-1.076 0.872,-1.949 1.946,-1.949c1.076,0 1.947,0.873 1.947,1.949c0,1.074 -0.871,1.946 -1.947,1.946Z" style="fill:#545c68;fill-rule:nonzero;"/><path d="M480.278,66.593l0,397.733c0,3.269 -2.63,5.811 -5.901,5.811l-210.266,0c-3.006,0 -5.271,-2.326 -5.271,-5.334l0,-398.689c0,-2.604 1.912,-4.88 4.516,-4.88l52.568,0c1.483,0 2.83,0.968 3.384,2.365l2.176,5.359c0.554,1.385 1.899,2.341 3.384,2.341l89.494,0c1.484,0 2.831,-0.918 3.385,-2.303l2.177,-5.384c0.552,-1.397 1.899,-2.378 3.383,-2.378l51.811,0c2.87,0 5.16,2.491 5.16,5.359Z" style="fill:#182e35;fill-rule:nonzero;"/><path d="M480.278,443.774l-221.438,0l0,-105.091l5.464,-5.463l0,105.49l210.509,0l0,-306.451l-9.535,0l3.09,-3.091l6.445,0l0,-6.444l5.471,-5.47l-0.006,326.52Zm-221.438,-122.271l0,-50.789l5.464,-5.464l0,50.789l-5.465,5.465m189.247,-189.245l-50.789,0l3.089,-3.091l50.788,0l-3.088,3.091Zm26.727,-26.729l0,-12.437l-38.351,0l7.011,-7.01l36.805,0l0,13.983l-5.465,5.464Z" style="fill:#647176;fill-rule:nonzero;"/><rect x="264.304" y="132.259" width="210.509" height="306.452" style="fill:#3e75ba;fill-rule:nonzero;"/><path d="M474.813,438.71l-3.426,0l0,-93.572c0,-3.563 -2.891,-6.453 -6.455,-6.453l-190.747,0c-3.564,0 -6.453,2.89 -6.453,6.453l0,93.572l-3.428,0l0,-105.49l64.098,-64.094c10.92,9.78 25.344,15.727 41.157,15.727c34.081,0 61.71,-27.628 61.71,-61.709c0,-15.812 -5.947,-30.234 -15.725,-41.154l49.734,-49.731l9.535,0l0,306.451Zm-210.509,-122.671l0,-50.789l43.561,-43.561c-0.012,0.484 -0.017,0.968 -0.017,1.455c0,13.89 4.588,26.705 12.332,37.019l-55.876,55.876Zm142.274,-142.274c-10.314,-7.743 -23.129,-12.331 -37.019,-12.331c-0.488,0 -0.972,0.006 -1.455,0.016l29.193,-29.191l50.789,0l-41.508,41.506Z" style="fill:#afc8e9;fill-rule:nonzero;"/><path d="M371.302,460.42l0,-1.367l-3.486,0c-1.086,-0.001 -1.962,-0.878 -1.965,-1.964l0,-3.486c0.003,-1.084 0.879,-1.962 1.965,-1.964l3.486,0c1.083,0.002 1.961,0.88 1.964,1.964l0,3.486c-0.003,1.086 -0.88,1.963 -1.964,1.964l0,1.367c1.839,0 3.331,-1.49 3.331,-3.331l0,-3.486c0,-1.841 -1.49,-3.331 -3.331,-3.333l-3.486,0c-1.842,0.002 -3.333,1.492 -3.333,3.333l0,3.486c0,1.841 1.492,3.331 3.333,3.331l3.486,0Z" style="fill:#fff;fill-rule:nonzero;"/><path d="M431.269,223.144c0,34.081 -27.629,61.709 -61.71,61.709c-34.082,0 -61.711,-27.628 -61.711,-61.709c0,-34.082 27.629,-61.71 61.711,-61.71c34.081,0 61.71,27.628 61.71,61.71Z" style="fill:#3e75ba;fill-rule:nonzero;"/><path d="M369.559,280.751l0,-5.473c-14.378,0 -27.397,-5.841 -36.846,-15.287c-9.447,-9.45 -15.288,-22.468 -15.29,-36.847c0.002,-14.378 5.843,-27.397 15.29,-36.846c9.449,-9.447 22.468,-15.288 36.846,-15.289c14.377,0.001 27.396,5.842 36.847,15.289c9.446,9.449 15.287,22.468 15.289,36.846c-0.002,14.379 -5.843,27.397 -15.289,36.847c-9.451,9.446 -22.47,15.287 -36.847,15.287l0,5.473c31.771,-0.006 57.601,-25.835 57.607,-57.607c-0.006,-31.772 -25.836,-57.602 -57.607,-57.606c-31.772,0.004 -57.602,25.834 -57.606,57.606c0.004,31.772 25.834,57.601 57.606,57.607Z" style="fill:#fff;fill-rule:nonzero;"/><path d="M334.547,220.182l24.211,28.526c1.075,1.266 2.662,2.001 4.323,2.001c1.662,0 3.248,-0.735 4.324,-2.001l37.165,-43.789c2.027,-2.388 1.734,-5.967 -0.654,-7.994c-2.388,-2.025 -5.966,-1.733 -7.992,0.655l-32.843,38.694l-19.888,-23.431c-2.027,-2.388 -5.604,-2.681 -7.992,-0.655c-2.389,2.027 -2.681,5.606 -0.654,7.994Z" style="fill:#fff;fill-rule:nonzero;"/><rect x="264.304" y="93.093" width="210.509" height="36.076" style="fill:#3e75ba;fill-rule:nonzero;"/><path d="M464.651,104.975c0,0.891 -0.724,1.614 -1.615,1.614c-0.892,0 -1.615,-0.723 -1.615,-1.614c0,-0.892 0.723,-1.614 1.615,-1.614c0.891,0 1.615,0.722 1.615,1.614Z" style="fill:#fff;fill-rule:nonzero;"/><path d="M464.651,111.13c0,0.891 -0.724,1.615 -1.615,1.615c-0.892,0 -1.615,-0.724 -1.615,-1.615c0,-0.892 0.723,-1.614 1.615,-1.614c0.891,0 1.615,0.722 1.615,1.614Z" style="fill:#fff;fill-rule:nonzero;"/><path d="M464.651,117.285c0,0.893 -0.724,1.616 -1.615,1.616c-0.892,0 -1.615,-0.723 -1.615,-1.616c0,-0.891 0.723,-1.614 1.615,-1.614c0.891,0 1.615,0.723 1.615,1.614Z" style="fill:#fff;fill-rule:nonzero;"/><path d="M316.918,299.136c0,-3.43 2.625,-5.906 6.151,-5.906c1.87,0 3.478,0.673 4.544,1.92l-1.379,1.295c-0.836,-0.902 -1.868,-1.345 -3.066,-1.345c-2.38,0 -4.101,1.674 -4.101,4.036c0,2.361 1.721,4.036 4.101,4.036c1.198,0 2.23,-0.444 3.066,-1.363l1.379,1.313c-1.066,1.247 -2.674,1.919 -4.56,1.919c-3.51,0 -6.135,-2.477 -6.135,-5.905Z" style="fill:#182e35;fill-rule:nonzero;"/><path d="M338.825,299.136c0,-2.347 -1.723,-4.036 -4.036,-4.036c-2.313,0 -4.036,1.689 -4.036,4.036c0,2.345 1.723,4.036 4.036,4.036c2.313,0 4.036,-1.691 4.036,-4.036Zm-10.22,0c0,-3.396 2.624,-5.906 6.184,-5.906c3.56,0 6.185,2.494 6.185,5.906c0,3.412 -2.625,5.905 -6.185,5.905c-3.56,0 -6.184,-2.51 -6.184,-5.905Z" style="fill:#182e35;fill-rule:nonzero;"/><path d="M353.449,293.395l0,11.482l-1.755,0l-6.333,-7.775l0,7.775l-2.115,0l0,-11.482l1.755,0l6.332,7.775l0,-7.775l2.116,0Z" style="fill:#182e35;fill-rule:nonzero;"/><path d="M358.673,295.182l0,3.496l5.546,0l0,1.803l-5.546,0l0,4.396l-2.132,0l0,-11.482l8.383,0l0,1.787l-6.251,0Z" style="fill:#182e35;fill-rule:nonzero;"/><rect x="366.996" y="293.395" width="2.134" height="11.482" style="fill:#182e35;fill-rule:nonzero;"/><path d="M376.859,295.198l-2.494,0l0,4.578l2.494,0c1.871,0 2.837,-0.853 2.837,-2.297c0,-1.444 -0.966,-2.281 -2.837,-2.281Zm2.887,9.679l-2.346,-3.363c-0.148,0.017 -0.295,0.017 -0.443,0.017l-2.592,0l0,3.346l-2.133,0l0,-11.482l4.725,0c3.018,0 4.889,1.542 4.889,4.084c0,1.739 -0.885,3.018 -2.444,3.625l2.641,3.773l-2.297,0Z" style="fill:#182e35;fill-rule:nonzero;"/><path d="M394.779,304.877l-0.016,-7.611l-3.773,6.299l-0.951,0l-3.774,-6.2l0,7.512l-2.034,0l0,-11.482l1.755,0l4.561,7.612l4.478,-7.612l1.756,0l0.015,11.482l-2.017,0Z" style="fill:#182e35;fill-rule:nonzero;"/><path d="M408.519,303.088l0,1.789l-8.612,0l0,-11.482l8.383,0l0,1.787l-6.251,0l0,2.986l5.546,0l0,1.755l-5.546,0l0,3.165l6.48,0Z" style="fill:#182e35;fill-rule:nonzero;"/><path d="M415.826,303.073c2.558,0 4.217,-1.559 4.217,-3.937c0,-2.379 -1.659,-3.938 -4.217,-3.938l-2.789,0l0,7.875l2.789,0Zm-4.922,-9.678l5.02,0c3.725,0 6.266,2.295 6.266,5.741c0,3.445 -2.541,5.741 -6.266,5.741l-5.02,0l0,-11.482Z" style="fill:#182e35;fill-rule:nonzero;"/><path d="M464.932,338.685l-190.747,0c-3.564,0 -6.453,2.89 -6.453,6.453l0,93.572l203.655,0l0,-93.572c0,-3.563 -2.891,-6.453 -6.455,-6.453Z" style="fill:#3e75ba;fill-rule:nonzero;"/><path d="M471.387,438.71l-203.655,0l0,-93.572c0,-3.563 2.889,-6.453 6.453,-6.453l190.747,0c3.564,0 6.455,2.89 6.455,6.453l0,93.572Zm-107.936,-31.508c1.969,0.438 4.008,0.657 6.101,0.657c1.629,0 3.228,-0.137 4.774,-0.397c0.178,-0.028 0.369,-0.054 0.547,-0.097l0,-0.011c2.216,-0.398 4.35,-1.068 6.361,-1.97c1.64,-0.712 3.187,-1.588 4.636,-2.586c0.644,-0.438 1.259,-0.902 1.861,-1.409l0.013,0c6.498,-5.281 10.656,-13.337 10.656,-22.378c0,-15.936 -12.913,-28.848 -28.848,-28.848c-15.936,0 -28.848,12.912 -28.848,28.848c0,8.44 3.624,16.045 9.41,21.312l0.329,0.286l0.013,0c0.424,0.397 0.862,0.765 1.313,1.109c0.712,0.573 1.464,1.094 2.231,1.586c0.136,0.096 0.273,0.191 0.423,0.274c0.177,0.11 0.342,0.218 0.52,0.314c0.273,0.164 0.548,0.314 0.821,0.465c1.299,0.711 2.654,1.313 4.062,1.82c1.177,0.423 2.381,0.765 3.625,1.025Zm-65.151,0.163c1.709,0.329 3.488,0.494 5.293,0.494c4.008,0 7.825,-0.82 11.285,-2.297c2.216,-0.931 4.281,-2.149 6.169,-3.584c0.177,-0.123 0.342,-0.26 0.506,-0.411c6.635,-5.267 10.889,-13.418 10.889,-22.556c0,-15.936 -12.912,-28.848 -28.849,-28.848c-15.936,0 -28.848,12.912 -28.848,28.848c0,9.396 4.487,17.742 11.448,23.007c0.247,0.192 0.494,0.37 0.754,0.548c2.377,1.694 5.048,3.035 7.892,3.94c0.876,0.286 1.764,0.519 2.668,0.696c0.259,0.069 0.533,0.124 0.793,0.163Z" style="fill:#608dc9;fill-rule:nonzero;"/><path d="M303.593,407.859c-1.805,0 -3.584,-0.165 -5.293,-0.494c0.381,-0.459 0.79,-0.86 1.16,-1.185c1.342,0.206 2.729,0.311 4.133,0.311c3.732,0 7.348,-0.735 10.756,-2.191c2.051,-0.861 4.026,-2.009 5.919,-3.447c0.128,-0.089 0.246,-0.191 0.435,-0.357c6.59,-5.233 10.371,-13.065 10.371,-21.485c0,-15.153 -12.327,-27.481 -27.481,-27.481c-15.151,0 -27.479,12.328 -27.479,27.481c0,8.686 3.974,16.672 10.918,21.927c0.225,0.174 0.449,0.335 0.708,0.513c1.792,1.276 3.723,2.325 5.772,3.131c0.003,0.003 0.008,0.005 0.013,0.007c0.141,0.064 0.3,0.124 0.476,0.181c0.417,0.154 0.838,0.3 1.264,0.435c0.657,0.216 1.325,0.399 2.034,0.558c0.039,0.404 0.103,0.931 0.208,1.439c-0.904,-0.177 -1.792,-0.41 -2.668,-0.696c-2.844,-0.905 -5.515,-2.246 -7.892,-3.94c-0.26,-0.178 -0.507,-0.356 -0.754,-0.548c-6.961,-5.265 -11.448,-13.611 -11.448,-23.007c0,-15.936 12.912,-28.848 28.848,-28.848c15.937,0 28.849,12.912 28.849,28.848c0,9.138 -4.254,17.289 -10.889,22.556c-0.164,0.151 -0.329,0.288 -0.506,0.411c-1.888,1.435 -3.953,2.653 -6.169,3.584c-3.46,1.477 -7.277,2.297 -11.285,2.297Z" style="fill:#afc8e9;fill-rule:nonzero;"/><path d="M303.593,406.491c-1.722,0 -3.416,-0.158 -5.036,-0.468c-0.259,-0.041 -0.487,-0.087 -0.704,-0.144c-0.919,-0.182 -1.762,-0.404 -2.588,-0.674c-2.704,-0.856 -5.233,-2.119 -7.525,-3.754c-0.259,-0.178 -0.483,-0.339 -0.708,-0.513c-6.944,-5.255 -10.918,-13.241 -10.918,-21.927c0,-15.153 12.328,-27.481 27.479,-27.481c15.154,0 27.481,12.328 27.481,27.481c0,8.42 -3.781,16.252 -10.371,21.485c-0.189,0.166 -0.307,0.268 -0.435,0.357c-1.893,1.438 -3.868,2.586 -5.919,3.447c-3.408,1.456 -7.024,2.191 -10.756,2.191Z" style="fill:#3e75ba;fill-rule:nonzero;"/><path d="M321.047,401.978c-1.888,1.435 -3.953,2.653 -6.169,3.584c1.341,-1.998 3.516,-3.256 6.169,-3.584Z" style="fill:#182e35;fill-rule:nonzero;"/><path d="M449.832,404.003c1.244,-1.571 2.763,-2.761 4.336,-3.021c-1.34,1.134 -2.791,2.161 -4.336,3.021Z" style="fill:#e0ecf8;fill-rule:nonzero;"/><path d="M387.744,401.389l-0.013,0c-0.468,-0.178 -0.981,-0.374 -1.477,-0.562c0.201,-0.157 0.399,-0.319 0.596,-0.485l0.401,-0.32c6.223,-5.238 9.782,-12.866 9.782,-21.011c0,-15.153 -12.329,-27.481 -27.481,-27.481c-15.153,0 -27.481,12.328 -27.481,27.481c0,7.69 3.246,15.066 8.889,20.229l0.036,0l0.394,0.369c0.123,0.116 0.247,0.228 0.373,0.338c-0.583,0.116 -1.135,0.244 -1.649,0.376c-5.786,-5.267 -9.41,-12.872 -9.41,-21.312c0,-15.936 12.912,-28.848 28.848,-28.848c15.935,0 28.848,12.912 28.848,28.848c0,9.041 -4.158,17.097 -10.656,22.378Z" style="fill:#afc8e9;fill-rule:nonzero;"/><path d="M369.552,406.491c-1.986,0 -3.939,-0.21 -5.806,-0.624c-1.181,-0.247 -2.338,-0.576 -3.456,-0.976c-1.357,-0.488 -2.66,-1.073 -3.871,-1.734c-0.271,-0.149 -0.525,-0.289 -0.777,-0.44c-0.15,-0.082 -0.245,-0.144 -0.344,-0.206l-0.157,-0.1c-0.169,-0.092 -0.261,-0.16 -0.357,-0.227c-0.869,-0.56 -1.56,-1.052 -2.154,-1.532c-0.448,-0.339 -0.851,-0.677 -1.24,-1.043l-0.394,-0.369l-0.036,0c-5.643,-5.163 -8.889,-12.539 -8.889,-20.229c0,-15.153 12.328,-27.481 27.481,-27.481c15.152,0 27.481,12.328 27.481,27.481c0,8.145 -3.559,15.773 -9.782,21.011l-0.401,0.32c-0.561,0.474 -1.134,0.905 -1.748,1.325c-1.429,0.984 -2.911,1.811 -4.413,2.461c-1.955,0.879 -3.988,1.509 -6.057,1.879l-1.074,0.192c-1.341,0.195 -2.673,0.292 -4.006,0.292Z" style="fill:#fff;fill-rule:nonzero;"/><path d="M324.263,407.859c-4.51,0 -8.179,-3.669 -8.179,-8.178c0,-4.509 3.669,-8.178 8.179,-8.178c4.511,0 8.179,3.669 8.179,8.178c0,4.509 -3.668,8.178 -8.179,8.178Z" style="fill:#3e75ba;fill-rule:nonzero;"/><path d="M324.263,408.543l0,-1.367c-2.068,0 -3.937,-0.84 -5.297,-2.199c-1.359,-1.358 -2.198,-3.228 -2.198,-5.296c0,-2.066 0.839,-3.936 2.198,-5.296c1.36,-1.359 3.229,-2.197 5.297,-2.199c2.068,0.002 3.938,0.84 5.296,2.199c1.359,1.36 2.199,3.23 2.199,5.296c0,2.068 -0.84,3.938 -2.199,5.296c-1.358,1.359 -3.228,2.199 -5.296,2.199l0,1.367c4.889,-0.001 8.861,-3.973 8.862,-8.862c-0.001,-4.888 -3.973,-8.861 -8.862,-8.862c-4.889,0.001 -8.86,3.974 -8.862,8.862c0.002,4.888 3.973,8.861 8.862,8.862Z" style="fill:#fff;fill-rule:nonzero;"/><path d="M319.045,399.239l3.608,4.252c0.161,0.189 0.397,0.298 0.644,0.298c0.248,0 0.484,-0.109 0.645,-0.298l5.539,-6.527c0.303,-0.357 0.259,-0.89 -0.097,-1.191c-0.355,-0.303 -0.89,-0.259 -1.191,0.097l-4.895,5.767l-2.965,-3.492c-0.301,-0.356 -0.836,-0.4 -1.191,-0.099c-0.356,0.303 -0.4,0.836 -0.097,1.193Z" style="fill:#fff;fill-rule:nonzero;"/><path d="M390.221,407.859c-4.509,0 -8.178,-3.669 -8.178,-8.178c0,-4.509 3.669,-8.178 8.178,-8.178c4.51,0 8.179,3.669 8.179,8.178c0,4.509 -3.669,8.178 -8.179,8.178Z" style="fill:#3e75ba;fill-rule:nonzero;"/><path d="M390.221,408.543l0,-1.367c-2.067,0 -3.936,-0.84 -5.296,-2.199c-1.359,-1.358 -2.198,-3.228 -2.198,-5.296c0,-2.066 0.839,-3.936 2.198,-5.296c1.36,-1.359 3.229,-2.197 5.296,-2.199c2.068,0.002 3.937,0.84 5.297,2.199c1.359,1.36 2.197,3.23 2.199,5.296c-0.002,2.068 -0.84,3.938 -2.199,5.296c-1.36,1.359 -3.229,2.199 -5.297,2.199l0,1.367c4.889,-0.001 8.862,-3.973 8.863,-8.862c-0.001,-4.888 -3.974,-8.861 -8.863,-8.862c-4.888,0.001 -8.861,3.974 -8.862,8.862c0.001,4.888 3.974,8.861 8.862,8.862Z" style="fill:#fff;fill-rule:nonzero;"/><path d="M385.002,399.239l3.609,4.252c0.16,0.189 0.398,0.298 0.645,0.298c0.248,0 0.484,-0.109 0.645,-0.298l5.539,-6.527c0.303,-0.357 0.259,-0.89 -0.097,-1.191c-0.356,-0.303 -0.89,-0.259 -1.192,0.097l-4.895,5.767l-2.964,-3.492c-0.303,-0.356 -0.836,-0.4 -1.191,-0.099c-0.357,0.303 -0.4,0.836 -0.099,1.193Z" style="fill:#fff;fill-rule:nonzero;"/><path d="M360.581,427.184l8.656,4.589c0.202,0.106 0.441,0.106 0.642,0l8.658,-4.589c0.334,-0.178 0.46,-0.591 0.284,-0.925c-0.177,-0.334 -0.591,-0.46 -0.926,-0.284l-8.336,4.419l-8.338,-4.419c-0.333,-0.176 -0.747,-0.05 -0.923,0.284c-0.178,0.334 -0.05,0.747 0.283,0.925Z" style="fill:#fff;fill-rule:nonzero;"/><path d="M360.581,421.709l8.656,4.589c0.202,0.107 0.441,0.107 0.642,0l8.658,-4.589c0.334,-0.177 0.46,-0.591 0.284,-0.924c-0.177,-0.334 -0.591,-0.461 -0.926,-0.284l-8.336,4.42l-8.338,-4.42c-0.333,-0.177 -0.747,-0.05 -0.923,0.284c-0.178,0.333 -0.05,0.747 0.283,0.924Z" style="fill:#fff;fill-rule:nonzero;"/><path d="M455.216,75.931l-1.592,0l1.592,-1.592l0,1.592Z" style="fill:#a8afb1;fill-rule:nonzero;"/><path d="M469.247,77.262l-12.916,0l0,-4.038l2.269,-2.27l10.647,0l0,6.308Z" style="fill:#a8afb1;fill-rule:nonzero;"/><path d="M258.839,270.715l0,-22.121c0,-0.002 0.001,-0.002 0.001,-0.002l0,22.122l-0.001,0.001Zm0.001,-119.08l-0.001,-0.001l0,-85.524c0,-2.6 1.915,-4.883 4.515,-4.883l52.567,0c1.491,0 2.832,0.971 3.393,2.367l2.173,5.361c0.548,1.382 1.902,2.34 3.38,2.34l89.499,0c1.478,0 2.832,-0.917 3.379,-2.299l2.174,-5.389c0.561,-1.395 1.902,-2.38 3.393,-2.38l45.017,0l-0.008,0.007l-45.014,0c-1.484,0 -2.831,0.981 -3.383,2.378l-2.177,5.384c-0.554,1.385 -1.901,2.303 -3.385,2.303l-89.494,0c-1.485,0 -2.83,-0.956 -3.384,-2.341l-2.176,-5.359c-0.554,-1.397 -1.901,-2.365 -3.384,-2.365l-52.568,0c-2.604,0 -4.516,2.276 -4.516,4.88l0,85.521Z" style="fill:#dfeaf7;fill-rule:nonzero;"/><path d="M258.84,151.635l0,-85.521c0,-2.604 1.912,-4.88 4.516,-4.88l52.568,0c1.483,0 2.83,0.968 3.384,2.365l2.176,5.359c0.554,1.385 1.899,2.341 3.384,2.341l89.494,0c1.484,0 2.831,-0.918 3.385,-2.303l2.177,-5.384c0.552,-1.397 1.899,-2.378 3.383,-2.378l45.014,0l-9.721,9.72l-2.269,0l0,2.27l-1.115,1.115l0,-2.055l-1.621,0l0,3.647l0.029,0l-10.151,10.152l-184.633,0l0,65.552Zm24.403,-78.02l0,3.647l2.734,0l0,-3.647l-2.734,0Zm-4.458,-1.216l0,4.863l2.735,0l0,-4.863l-2.735,0Zm-4.457,-1.216l0,6.079l2.736,0l0,-6.079l-2.736,0Zm-4.458,-1.218l0,7.297l2.735,0l0,-7.297l-2.735,0Z" style="fill:#4b5b61;fill-rule:nonzero;"/><path d="M258.84,270.714l0,-22.122c0.899,-0.953 1.791,-1.912 2.675,-2.88l2.289,0.859l-0.007,-0.107l-0.167,-3.141c0.224,-0.26 0.449,-0.522 0.674,-0.783l0,22.71l-5.465,5.465m3.673,-48.398l-0.624,-11.723l-0.666,-12.594l2.831,-2.071c0.083,0.19 0.167,0.379 0.251,0.569l0,22.772c-0.573,1.018 -1.171,2.034 -1.792,3.047Zm1.792,-64.327c-1.964,-2.905 -3.854,-5.218 -5.464,-6.355l0,-65.552l184.633,0l-7.011,7.01l-172.158,0l0,36.075l136.082,0l-3.089,3.091l-132.993,0l0,25.731Z" style="fill:#848f92;fill-rule:nonzero;"/><path d="M264.304,265.25l0,-22.71c1.972,-2.3 3.902,-4.653 5.761,-7.09c2.5,-3.306 4.916,-6.726 7.159,-10.421c1.118,-1.858 2.193,-3.782 3.184,-5.852c0.99,-2.075 1.902,-4.291 2.57,-6.914c0.099,-0.392 0.165,-0.83 0.179,-1.25l0.008,-0.219c0.095,-2.707 -0.199,-5.045 -0.602,-7.235c-0.41,-2.187 -0.946,-4.237 -1.538,-6.226c-1.146,-3.815 -2.529,-7.392 -4.033,-10.868l1.777,-1.3c0,0 -7.673,-17.126 -14.465,-27.175l0,-25.731l132.993,0l-29.193,29.191c-32.926,0.763 -59.477,27.314 -60.239,60.239l-43.561,43.561Zm0,-45.98l0,-22.772c0.818,1.861 1.571,3.716 2.229,5.544c1.005,2.792 1.788,5.741 1.935,7.827c-0.635,2.416 -1.98,5.359 -3.471,8.145c-0.226,0.419 -0.458,0.837 -0.693,1.256Z" style="fill:#bfd4ee;fill-rule:nonzero;"/><path d="M307.865,221.689c0.762,-32.925 27.313,-59.476 60.239,-60.239l-4.381,4.381c-27.118,2.744 -48.733,24.357 -51.477,51.477l-4.381,4.381Zm11.083,-11.083c2.315,-9.344 7.157,-17.699 13.765,-24.308c6.609,-6.608 14.964,-11.452 24.309,-13.766l-38.074,38.074Z" style="fill:#608dc9;fill-rule:nonzero;"/><path d="M312.246,217.308c2.744,-27.12 24.359,-48.733 51.477,-51.477l-6.701,6.701c-9.345,2.314 -17.7,7.158 -24.309,13.766c-6.608,6.609 -11.45,14.964 -13.765,24.308l-6.702,6.702Z" style="fill:#fff;fill-rule:nonzero;"/><rect x="283.243" y="73.615" width="2.735" height="3.647" style="fill:#babec1;fill-rule:nonzero;"/><rect x="278.785" y="72.399" width="2.735" height="4.863" style="fill:#babec1;fill-rule:nonzero;"/><rect x="274.328" y="71.183" width="2.736" height="6.079" style="fill:#babec1;fill-rule:nonzero;"/><rect x="269.87" y="69.965" width="2.735" height="7.296" style="fill:#babec1;fill-rule:nonzero;"/><path d="M453.624,75.931l-0.029,0l0,-3.647l1.621,0l0,2.055l-1.592,1.592Z" style="fill:#babec1;fill-rule:nonzero;"/><path d="M456.331,73.224l0,-2.27l2.269,0l-2.269,2.27Z" style="fill:#babec1;fill-rule:nonzero;"/><path d="M258.839,338.685l0,-17.181l0.001,17.179l-0.001,0.002Zm221.439,-221.425l0,-17.194l0.006,-0.006l0,17.194" style="fill:#dfeaf7;fill-rule:nonzero;"/><path d="M258.84,338.683l0,-17.18l5.464,-5.464l0,17.181l-5.465,5.465m206.439,-206.426l-17.192,0l3.088,-3.091l17.194,0l-3.09,3.091Zm9.535,-9.535l0,-17.194l5.471,-5.47l-0.006,17.2l-5.465,5.464Z" style="fill:#848f92;fill-rule:nonzero;"/><path d="M264.304,333.22l0,-17.181l55.876,-55.876c2.441,3.25 5.198,6.255 8.222,8.963l-64.098,64.094Zm151.24,-151.23c-2.71,-3.026 -5.713,-5.782 -8.966,-8.225l41.508,-41.506l17.192,0l-49.734,49.731Z" style="fill:#bfd4ee;fill-rule:nonzero;"/><path d="M328.402,269.126c-3.024,-2.708 -5.781,-5.713 -8.222,-8.963l2.951,-2.951c2.41,3.277 5.161,6.292 8.195,8.99l-2.924,2.924Zm6.801,-6.801c-0.856,-0.751 -1.686,-1.529 -2.49,-2.334c-2.068,-2.07 -3.964,-4.309 -5.664,-6.697l19.258,-19.256l7.89,9.295l-18.994,18.992Zm27.041,-27.038l-7.892,-9.296l45.356,-45.357c2.389,1.7 4.628,3.594 6.698,5.664c0.805,0.804 1.584,1.636 2.336,2.493l-6.991,6.99c-0.492,-0.135 -0.997,-0.203 -1.502,-0.203c-1.607,0 -3.203,0.68 -4.325,2.002l-22.602,26.629l-11.078,11.078Zm50.374,-50.373c-2.698,-3.037 -5.711,-5.787 -8.991,-8.198l2.951,-2.951c3.253,2.443 6.256,5.199 8.966,8.225l-2.926,2.924Z" style="fill:#608dc9;fill-rule:nonzero;"/><path d="M331.326,266.202c-3.034,-2.698 -5.785,-5.713 -8.195,-8.99l3.918,-3.918c1.7,2.388 3.596,4.627 5.664,6.697c0.804,0.805 1.634,1.583 2.49,2.334l-3.877,3.877Zm77.416,-77.411c-0.752,-0.857 -1.531,-1.689 -2.336,-2.493c-2.07,-2.07 -4.309,-3.964 -6.698,-5.664l3.919,-3.918c3.28,2.411 6.293,5.161 8.991,8.198l-3.876,3.877Z" style="fill:#fff;fill-rule:nonzero;"/><path d="M354.197,243.333l-7.89,-9.295l8.045,-8.047l7.892,9.296l-8.047,8.046Zm19.125,-19.124l22.602,-26.629c1.122,-1.322 2.718,-2.002 4.325,-2.002c0.505,0 1.01,0.068 1.502,0.203l-28.429,28.428Z" style="fill:#fff;fill-rule:nonzero;"/><path d="M468.368,129.168l-17.194,0l10.731,-10.73c0.29,0.287 0.69,0.463 1.131,0.463c0.891,0 1.615,-0.723 1.615,-1.616c0,-0.44 -0.176,-0.838 -0.463,-1.131l10.625,-10.624l0,17.194l-6.445,6.444Z" style="fill:#608dc9;fill-rule:nonzero;"/><path d="M463.036,118.901c-0.441,0 -0.841,-0.176 -1.131,-0.463l2.283,-2.284c0.287,0.293 0.463,0.691 0.463,1.131c0,0.893 -0.724,1.616 -1.615,1.616Z" style="fill:#fff;fill-rule:nonzero;"/><g><path d="M339.384,112.565l2.478,-0.241c0.149,0.832 0.452,1.443 0.908,1.833c0.456,0.39 1.071,0.585 1.846,0.585c0.82,0 1.438,-0.174 1.854,-0.521c0.416,-0.347 0.624,-0.753 0.624,-1.217c0,-0.299 -0.087,-0.553 -0.262,-0.762c-0.175,-0.209 -0.481,-0.392 -0.917,-0.546c-0.298,-0.104 -0.978,-0.287 -2.039,-0.551c-1.366,-0.339 -2.324,-0.755 -2.874,-1.248c-0.775,-0.694 -1.162,-1.54 -1.162,-2.539c0,-0.642 0.182,-1.243 0.546,-1.803c0.365,-0.559 0.889,-0.985 1.575,-1.278c0.686,-0.292 1.513,-0.438 2.483,-0.438c1.583,0 2.775,0.347 3.575,1.041c0.801,0.694 1.221,1.621 1.261,2.779l-2.547,0.112c-0.109,-0.648 -0.343,-1.114 -0.702,-1.398c-0.358,-0.284 -0.896,-0.426 -1.613,-0.426c-0.74,0 -1.32,0.152 -1.738,0.456c-0.27,0.195 -0.405,0.456 -0.405,0.783c0,0.298 0.126,0.554 0.379,0.766c0.321,0.27 1.101,0.551 2.341,0.843c1.239,0.293 2.155,0.596 2.749,0.908c0.594,0.313 1.059,0.74 1.394,1.283c0.336,0.542 0.504,1.211 0.504,2.009c0,0.723 -0.201,1.4 -0.603,2.031c-0.401,0.631 -0.969,1.1 -1.704,1.407c-0.734,0.307 -1.649,0.46 -2.745,0.46c-1.595,0 -2.82,-0.368 -3.675,-1.106c-0.854,-0.737 -1.365,-1.811 -1.531,-3.222Z" style="fill:#fff;fill-rule:nonzero;"/><path d="M357.06,113.761l2.409,0.404c-0.31,0.884 -0.799,1.556 -1.467,2.018c-0.668,0.462 -1.505,0.693 -2.509,0.693c-1.589,0 -2.765,-0.519 -3.528,-1.558c-0.602,-0.831 -0.904,-1.881 -0.904,-3.149c0,-1.515 0.396,-2.701 1.188,-3.559c0.792,-0.857 1.793,-1.286 3.003,-1.286c1.36,0 2.433,0.449 3.219,1.347c0.786,0.897 1.162,2.273 1.127,4.126l-6.058,0c0.017,0.717 0.212,1.275 0.585,1.674c0.373,0.399 0.838,0.598 1.394,0.598c0.379,0 0.697,-0.103 0.955,-0.31c0.259,-0.206 0.454,-0.539 0.586,-0.998Zm0.137,-2.444c-0.017,-0.7 -0.198,-1.232 -0.542,-1.596c-0.344,-0.365 -0.763,-0.547 -1.256,-0.547c-0.528,0 -0.964,0.192 -1.308,0.577c-0.345,0.384 -0.514,0.906 -0.508,1.566l3.614,0Z" style="fill:#fff;fill-rule:nonzero;"/><path d="M369.538,110.233l-2.384,0.43c-0.08,-0.476 -0.262,-0.835 -0.546,-1.076c-0.284,-0.241 -0.653,-0.361 -1.106,-0.361c-0.603,0 -1.083,0.208 -1.442,0.624c-0.358,0.416 -0.538,1.111 -0.538,2.086c0,1.085 0.183,1.851 0.547,2.298c0.364,0.448 0.853,0.671 1.467,0.671c0.459,0 0.835,-0.13 1.127,-0.391c0.293,-0.261 0.5,-0.71 0.62,-1.347l2.375,0.405c-0.246,1.09 -0.72,1.913 -1.42,2.469c-0.7,0.557 -1.638,0.835 -2.814,0.835c-1.336,0 -2.402,-0.422 -3.197,-1.265c-0.794,-0.843 -1.192,-2.011 -1.192,-3.502c0,-1.509 0.399,-2.684 1.197,-3.524c0.797,-0.841 1.876,-1.261 3.235,-1.261c1.113,0 1.998,0.239 2.655,0.718c0.657,0.479 1.129,1.21 1.416,2.191Z" style="fill:#fff;fill-rule:nonzero;"/><path d="M377.386,116.67l0,-1.369c-0.333,0.488 -0.77,0.872 -1.312,1.153c-0.542,0.282 -1.115,0.422 -1.717,0.422c-0.614,0 -1.165,-0.135 -1.652,-0.404c-0.488,-0.27 -0.841,-0.649 -1.059,-1.136c-0.218,-0.488 -0.327,-1.162 -0.327,-2.023l0,-5.783l2.418,0l0,4.2c0,1.285 0.045,2.072 0.134,2.362c0.089,0.29 0.251,0.519 0.486,0.689c0.235,0.169 0.533,0.253 0.895,0.253c0.413,0 0.783,-0.113 1.11,-0.339c0.327,-0.227 0.551,-0.508 0.671,-0.844c0.121,-0.335 0.181,-1.157 0.181,-2.465l0,-3.856l2.418,0l0,9.14l-2.246,0Z" style="fill:#fff;fill-rule:nonzero;"/><path d="M384.451,116.67l-2.418,0l0,-9.14l2.246,0l0,1.3c0.385,-0.614 0.73,-1.019 1.037,-1.214c0.307,-0.195 0.656,-0.292 1.046,-0.292c0.551,0 1.081,0.152 1.592,0.456l-0.749,2.108c-0.407,-0.264 -0.786,-0.396 -1.136,-0.396c-0.338,0 -0.625,0.094 -0.86,0.28c-0.236,0.187 -0.421,0.524 -0.555,1.011c-0.135,0.488 -0.203,1.509 -0.203,3.064l0,2.823Z" style="fill:#fff;fill-rule:nonzero;"/><path d="M394.288,113.761l2.409,0.404c-0.31,0.884 -0.799,1.556 -1.467,2.018c-0.669,0.462 -1.505,0.693 -2.509,0.693c-1.589,0 -2.765,-0.519 -3.528,-1.558c-0.602,-0.831 -0.904,-1.881 -0.904,-3.149c0,-1.515 0.396,-2.701 1.188,-3.559c0.792,-0.857 1.793,-1.286 3.003,-1.286c1.36,0 2.433,0.449 3.219,1.347c0.786,0.897 1.162,2.273 1.127,4.126l-6.058,0c0.017,0.717 0.212,1.275 0.585,1.674c0.373,0.399 0.838,0.598 1.394,0.598c0.379,0 0.697,-0.103 0.955,-0.31c0.259,-0.206 0.454,-0.539 0.586,-0.998Zm0.137,-2.444c-0.017,-0.7 -0.198,-1.232 -0.542,-1.596c-0.344,-0.365 -0.763,-0.547 -1.256,-0.547c-0.528,0 -0.964,0.192 -1.308,0.577c-0.345,0.384 -0.514,0.906 -0.508,1.566l3.614,0Z" style="fill:#fff;fill-rule:nonzero;"/></g><path d="M207.06,173.225c-1.021,2.021 -1.955,3.711 -2.974,5.519c-1.006,1.773 -2.042,3.524 -3.108,5.258c-2.137,3.465 -4.435,6.843 -6.872,10.158c-2.441,3.313 -5.064,6.541 -7.954,9.63c-2.894,3.087 -6.045,6.054 -9.667,8.731l-0.174,0.128c-1.803,1.335 -4.063,1.685 -6.077,1.16c-3.406,-0.903 -6.017,-2.999 -7.705,-4.97c-1.727,-2.01 -2.823,-4.011 -3.714,-5.935c-1.727,-3.852 -2.641,-7.502 -3.365,-11.102c-0.69,-3.597 -1.065,-7.139 -1.31,-10.655c-0.092,-1.761 -0.148,-3.515 -0.17,-5.268l-0.005,-2.634l0.018,-1.326c-0.025,-0.449 0.059,-0.877 1.09,-1.402c2.392,-1.221 5.045,-1.396 7.433,-0.694l1.834,0.542c1.047,0.31 1.16,0.717 1.168,1.102l0.133,1.178l0.304,2.369c0.221,1.58 0.472,3.153 0.752,4.711c0.513,3.123 1.156,6.195 1.924,9.121c0.755,2.909 1.713,5.723 2.878,7.904c0.572,1.075 1.214,1.967 1.721,2.449c0.529,0.505 0.742,0.459 0.598,0.377l-6.251,1.287c5.079,-4.141 9.608,-9.858 13.726,-15.83c2.056,-3.011 3.995,-6.142 5.844,-9.332c0.928,-1.594 1.832,-3.205 2.701,-4.826c0.852,-1.592 1.745,-3.324 2.438,-4.784l0.041,-0.085c1.943,-4.096 6.84,-5.841 10.935,-3.896c4.094,1.943 5.839,6.839 3.895,10.936l-0.087,0.179Z" style="fill:#182e35;fill-rule:nonzero;"/><path d="M202.739,460.144l9.958,-6.961c0.332,-0.254 0.799,-0.235 1.112,0.042l6.455,6.154c0.58,0.623 0.544,1.597 -0.078,2.177l-0.25,0.188c-3.475,2.345 -5.372,3.419 -9.705,6.441c-2.66,1.852 -13.984,8.6 -18.257,9.086c-4.274,0.486 -4.934,-3.544 -3.215,-4.273c8.663,-3.667 11.908,-8.011 12.884,-11.356c0.19,-0.608 0.576,-1.134 1.096,-1.498Z" style="fill:#182e35;fill-rule:nonzero;"/><path d="M191.282,477.312c-2.359,0 -3.4,-1.516 -3.403,-2.773c-0.002,-0.687 0.307,-1.298 0.88,-1.541c8.111,-3.434 11.472,-7.461 12.669,-10.705l6.889,-1.818c-0.1,4.67 -0.16,7.397 -0.16,7.397l0.944,0.144c-2.683,2.14 -8.624,4.273 -16.42,5.706c-1.164,0.219 -1.382,2.134 -0.176,3.463c-0.188,0.039 -0.364,0.067 -0.531,0.086c-0.243,0.028 -0.473,0.041 -0.692,0.041Z" style="fill:#0f2329;fill-rule:nonzero;"/><path d="M200.803,233.256c0,0 -37.467,83.354 -39.487,113.066c-2.216,32.58 38.305,116.445 38.305,116.445l18.445,-4.871c0,0 -28.633,-84.732 -26.703,-109.698c6.153,-35.716 49.014,-109.024 49.014,-109.024l-39.574,-5.918Z" style="fill:#182e35;fill-rule:nonzero;"/><path d="M196.173,455.425c-0.864,-1.877 -1.864,-4.068 -2.967,-6.524l0.004,0c1.102,2.452 2.102,4.644 2.966,6.518c-0.002,0.002 -0.002,0.005 -0.003,0.006Zm-3.127,-6.891l-0.005,0c-2.303,-5.136 -5.045,-11.394 -7.934,-18.303l0.002,0c2.892,6.912 5.632,13.166 7.937,18.303Zm-8.09,-18.67l-0.003,0c-0.224,-0.537 -0.449,-1.078 -0.675,-1.623l0.003,0c0.226,0.545 0.45,1.087 0.675,1.623Z" style="fill:#fff;fill-rule:nonzero;"/><path d="M185.109,430.231l-0.002,0c-0.052,-0.124 -0.102,-0.242 -0.154,-0.367l0.003,0c0.052,0.124 0.102,0.244 0.153,0.367Z" style="fill:#f1f2f3;fill-rule:nonzero;"/><path d="M193.21,448.901l-0.004,0c-0.055,-0.122 -0.109,-0.245 -0.165,-0.367l0.005,0c0.054,0.122 0.11,0.245 0.164,0.367Z" style="fill:#f1f2f3;fill-rule:nonzero;"/><path d="M184.281,428.241l-0.003,0c-5.097,-12.284 -10.572,-26.439 -14.906,-39.994c4.335,13.555 9.811,27.71 14.909,39.994Zm-7.55,-136.293l-0.002,0c1.232,-3.31 2.485,-6.606 3.743,-9.856l0.003,0c-1.257,3.247 -2.513,6.549 -3.744,9.856Z" style="fill:#f4f6f7;fill-rule:nonzero;"/><path d="M186.196,267.665l0,-0.012c1.843,-4.546 3.622,-8.846 5.265,-12.766l0,0.013c-1.645,3.92 -3.422,8.218 -5.265,12.765Z" style="fill:#e7e7e7;fill-rule:nonzero;"/><path d="M180.475,282.092l-0.003,0c1.924,-4.975 3.859,-9.835 5.724,-14.439l0,0.012c-1.865,4.601 -3.797,9.455 -5.721,14.427Z" style="fill:#f1f2f3;fill-rule:nonzero;"/><path d="M191.461,254.9l0,-0.013c1.547,-3.688 2.974,-7.039 4.224,-9.944l0.006,0c-1.251,2.908 -2.681,6.264 -4.23,9.957Z" style="fill:#f1f2f3;fill-rule:nonzero;"/><path d="M168.219,316.497l0,-0.001c2.475,-7.853 5.419,-16.235 8.51,-24.548l0.002,0c-3.091,8.313 -6.036,16.696 -8.512,24.549Z" style="fill:#e7e7e7;fill-rule:nonzero;"/><path d="M166.025,323.756c0.677,-2.353 1.413,-4.783 2.194,-7.26l0,0.001c-0.781,2.478 -1.517,4.906 -2.194,7.259Z" style="fill:#f1f2f3;fill-rule:nonzero;"/><path d="M212.441,291.948l-0.001,0c0.821,-1.711 1.646,-3.41 2.475,-5.095l-0.002,0.005c-0.827,1.684 -1.651,3.379 -2.472,5.09Z" style="fill:#f4f6f7;fill-rule:nonzero;"/><path d="M208.658,299.989c1.241,-2.695 2.506,-5.38 3.782,-8.041l0.001,0c-1.277,2.66 -2.542,5.346 -3.783,8.041Z" style="fill:#e7e7e7;fill-rule:nonzero;"/><path d="M196.176,455.419c-0.864,-1.874 -1.864,-4.066 -2.966,-6.518c-0.054,-0.122 -0.11,-0.245 -0.164,-0.367c-2.305,-5.137 -5.045,-11.391 -7.937,-18.303c-0.051,-0.123 -0.101,-0.243 -0.153,-0.367c-0.225,-0.536 -0.449,-1.078 -0.675,-1.623c-5.098,-12.284 -10.574,-26.439 -14.909,-39.994c-5.196,-16.249 -8.752,-31.64 -8.051,-41.924c0.393,-5.811 2.142,-13.676 4.704,-22.567c0.677,-2.353 1.413,-4.781 2.194,-7.259c2.476,-7.853 5.421,-16.236 8.512,-24.549c1.231,-3.307 2.487,-6.609 3.744,-9.856c1.924,-4.972 3.856,-9.826 5.721,-14.427c1.843,-4.547 3.62,-8.845 5.265,-12.765c1.549,-3.693 2.979,-7.049 4.23,-9.957l8.627,0.023c0,0 0.004,-0.087 0.015,-0.257l14.199,4.947c-0.52,5.09 -1.116,11.027 -1.745,17.456c-4.951,9.102 -7.863,22.46 -7.574,30.768c1.898,-4.083 3.847,-8.142 5.8,-12.109c-0.032,0.36 -0.066,0.721 -0.098,1.082c-0.829,1.685 -1.654,3.384 -2.475,5.095c-1.276,2.661 -2.541,5.346 -3.782,8.041c-8.057,17.488 -15.076,35.305 -17.3,48.209c-1.012,13.09 6.389,42.609 13.639,67.736c1.349,4.67 2.695,9.188 3.981,13.419c-1.286,-4.231 -2.632,-8.749 -3.981,-13.419c-1.109,8.918 -3.707,25.821 -8.821,39.485Z" style="fill:#4b5b61;fill-rule:nonzero;"/><path d="M209.213,297.88c-0.289,-8.308 2.623,-21.666 7.574,-30.768c-0.576,5.899 -1.179,12.205 -1.774,18.659c-1.953,3.967 -3.902,8.026 -5.8,12.109Z" style="fill:#3b484c;fill-rule:nonzero;"/><path d="M199.62,462.77c0,0 -1.313,-2.708 -3.447,-7.345c0.001,-0.001 0.001,-0.004 0.003,-0.006c2.135,4.639 3.445,7.348 3.445,7.348l1.808,-0.477c0,0.001 0,0.001 -0.001,0.003l-1.808,0.477Z" style="fill:#cecece;fill-rule:nonzero;"/><path d="M201.428,462.293c0.001,-0.002 0.001,-0.002 0.001,-0.003l6.888,-1.82l0,0.005l-6.889,1.818Z" style="fill:#374045;fill-rule:nonzero;"/><path d="M199.621,462.767c0,0 -1.31,-2.709 -3.445,-7.348c5.114,-13.664 7.712,-30.567 8.821,-39.485c1.349,4.67 2.695,9.188 3.981,13.419c-0.27,12.936 -0.511,24.173 -0.661,31.117l-6.888,1.82l-1.808,0.477Z" style="fill:#3b484c;fill-rule:nonzero;"/><path d="M200.286,227.841l54.695,1.908c0,0 0.353,17.936 -3.785,31.285l-54.289,-18.911l3.379,-14.282Z" style="fill:#182e35;fill-rule:nonzero;"/><path d="M218.532,249.656l-14.199,-4.947c0.057,-0.928 0.263,-4.306 0.578,-9.266l2.283,0.144l0.304,-5.938l-2.203,-0.113c0.014,-0.225 0.029,-0.454 0.044,-0.683l35.889,1.225l0.198,1.307l-4.297,-0.219l-0.324,6.298l5.598,0.354l0.114,0.761l0.002,0l0,0.003l6.785,2.545c-0.126,0.164 -0.251,0.327 -0.376,0.49l-1.319,1.695c-1.444,-1.272 -2.463,-1.971 -2.463,-1.971c-0.467,0.55 -0.885,1.124 -1.26,1.713l-23.517,-10.999c0,0 -0.75,6.95 -1.837,17.601Z" style="fill:#4b5b61;fill-rule:nonzero;"/><path d="M211.003,467.289l12.449,0.409c0.42,0.014 0.773,0.318 0.85,0.733l1.72,9.189c0.147,0.823 -0.401,1.608 -1.223,1.755l-0.335,0.021c-4.026,-0.197 -6.95,-0.542 -12.007,-0.707c-3.115,-0.101 -12.525,-0.085 -16.825,-0.224c-4.302,-0.143 -4.723,-4.409 -2.951,-4.743c7.955,-1.463 13.978,-3.652 16.581,-5.838c0.483,-0.414 1.106,-0.627 1.741,-0.595Z" style="fill:#182e35;fill-rule:nonzero;"/><path d="M220.369,232.055c0,0 -9.438,87.403 -9.863,117.448c-0.481,32.943 -2.349,118.369 -2.349,118.369l17.616,2.682c0,0 9.796,-80.929 13.109,-112.848c3.766,-36.38 14.219,-110.342 14.219,-110.342l-32.732,-15.309Z" style="fill:#182e35;fill-rule:nonzero;"/><path d="M225.773,470.554l-1.105,-0.169l-15.567,-2.369l-0.944,-0.144c0,0 1.868,-85.426 2.349,-118.369c0.425,-30.045 9.863,-117.448 9.863,-117.448l23.517,10.999c-2.077,3.271 -2.808,7.091 -2.81,10.845c-0.004,8.876 4.07,17.385 4.07,17.385l5.675,-7.547c-3.293,23.903 -9.281,68.296 -11.939,93.969c-0.2,1.927 -0.423,4.034 -0.667,6.289c-0.013,0.123 -0.026,0.244 -0.039,0.367c-0.282,2.602 -0.591,5.403 -0.92,8.352c-1.814,16.293 -4.257,37.213 -6.425,55.527c-0.063,0.542 -0.128,1.087 -0.191,1.623c-0.015,0.125 -0.03,0.243 -0.044,0.367c-0.782,6.599 -1.522,12.818 -2.178,18.303c-0.015,0.122 -0.03,0.245 -0.044,0.367c-1.541,12.891 -2.601,21.653 -2.601,21.653Z" style="fill:#4b5b61;fill-rule:nonzero;"/><path d="M209.146,235.71l25.708,1.631l0.321,-6.276l-25.724,-1.316l-0.305,5.961Z" style="fill:#182e35;fill-rule:nonzero;"/><path d="M237.129,231.166l-0.324,6.298l17.573,1.115l0.334,-6.514l-17.583,-0.899Z" style="fill:#182e35;fill-rule:nonzero;"/><path d="M207.498,229.649l-7.489,-0.383l-0.997,5.803l8.182,0.518l0.304,-5.938Z" style="fill:#182e35;fill-rule:nonzero;"/><path d="M224.626,237.449l-10.117,-0.518l0.373,-7.291l10.118,0.519l-0.374,7.29Z" style="fill:#fff;fill-rule:nonzero;"/><path d="M195.14,153.884c-4.66,0.904 -18.309,33.271 -18.309,33.271l12.888,16.307l5.643,-7.876l-0.222,-41.702Z" style="fill:#3e75ba;fill-rule:nonzero;"/><path d="M178.376,189.109l-1.546,-1.954c0,0 13.644,-32.368 18.31,-33.276l0,0.005c-4.66,0.904 -18.309,33.271 -18.309,33.271l1.545,1.954Z" style="fill:#ededee;fill-rule:nonzero;"/><path d="M178.463,189.22l-0.087,-0.111l0.087,0.111Z" style="fill:#7b868a;fill-rule:nonzero;"/><path d="M186.514,199.397l-8.051,-10.177l-0.087,-0.111l-1.545,-1.954c0,0 13.649,-32.367 18.309,-33.271c-2.06,2.114 -2.993,12.353 -3.31,25.249c-2.963,4.725 -5.924,11.719 -5.316,20.264Z" style="fill:#87aedc;fill-rule:nonzero;"/><path d="M189.719,203.464l-0.862,-1.094l0.862,1.092l2.042,-2.849l-2.042,2.851Z" style="fill:#bfbebe;fill-rule:nonzero;"/><path d="M189.719,203.462l-0.862,-1.092l-2.343,-2.973c-0.608,-8.545 2.353,-15.539 5.316,-20.264c-0.094,3.801 -0.134,7.831 -0.134,11.956c0,3.141 0.024,6.338 0.065,9.524l-2.042,2.849Z" style="fill:#638ec9;fill-rule:nonzero;"/><path d="M173.744,166.585c0.102,0.549 -0.272,1.025 -0.833,1.063l-9.966,0.671c-0.56,0.039 -1.096,-0.376 -1.196,-0.925l-3.552,-19.52c-0.1,-0.55 0.264,-1.162 0.824,-1.2l9.968,-0.671c0.559,-0.039 1.103,0.512 1.204,1.061l3.551,19.521Z" style="fill:#182e35;fill-rule:nonzero;"/><path d="M163.479,168.284l4.142,-0.279l-4.119,0.278c-0.008,0 -0.015,0 -0.023,0.001Zm-1.574,-0.499c-0.068,-0.078 -0.115,-0.166 -0.132,-0.263l-0.021,-0.112c0.027,0.135 0.081,0.262 0.153,0.375Z" style="fill:#f1f2f3;fill-rule:nonzero;"/><path d="M158.182,147.728l-0.012,0c-0.012,-0.085 0,-0.17 0.031,-0.251c-0.016,0.082 -0.023,0.166 -0.019,0.251Z" style="fill:#fafafa;fill-rule:nonzero;"/><path d="M159.974,157.633l-1.801,-9.889c0,-0.004 -0.001,-0.01 -0.003,-0.016l0.012,0c0.001,0.049 0.006,0.097 0.015,0.146l1.777,9.759Z" style="fill:#f1f2f3;fill-rule:nonzero;"/><path d="M163.541,146.37l4.487,-0.303c0.006,0 0.012,-0.001 0.018,-0.001l-4.505,0.304Z" style="fill:#fafafa;fill-rule:nonzero;"/><path d="M163.38,168.286c-0.476,0 -1.178,-0.162 -1.475,-0.501c-0.072,-0.113 -0.126,-0.24 -0.153,-0.375l-1.778,-9.777l-1.777,-9.759c-0.009,-0.049 -0.014,-0.097 -0.015,-0.146c-0.004,-0.085 0.003,-0.169 0.019,-0.251c0.169,-0.443 0.902,-0.808 1.375,-0.84l3.965,-0.267l4.505,-0.304c0.017,0 0.033,-0.002 0.05,-0.002c0.519,0 0.885,0.413 0.984,0.946l3.593,19.709c0.102,0.555 -0.164,0.956 -0.721,0.994l-4.331,0.292l-4.142,0.279c-0.032,0.002 -0.064,0.002 -0.099,0.002Z" style="fill:#939b9f;fill-rule:nonzero;"/><path d="M195.14,153.884c0,0 35.335,-5.391 62.393,-2.926c0,0 -6.775,52.263 -3.232,79.565l-53.12,-1.811c0,0 -12.058,-45.556 -6.041,-74.828Z" style="fill:#182e35;fill-rule:nonzero;"/><path d="M236.51,150.651c-4.57,5.208 -17.25,4.911 -17.25,4.911c0,0 -8.033,-1.251 -6.673,-3.871c4.504,-1.278 6.484,-3.673 7.091,-6.518c0.351,-1.655 0.227,-3.462 -0.128,-5.295c-0.178,-0.963 -0.435,-1.931 -0.717,-2.883l14.138,-13.179c-1.168,7.774 -2.07,21.933 3.539,26.835Z" style="fill:#fbb474;fill-rule:nonzero;"/><path d="M219.678,145.173c0.145,-0.686 0.21,-1.397 0.21,-2.125c0,-1.031 -0.13,-2.096 -0.338,-3.17l10.679,-8.392c0.437,9.329 -6.884,12.747 -10.551,13.687Z" style="fill:#cd925a;fill-rule:nonzero;"/><path d="M236.187,147.799l-6.769,4.385l13.099,86.395l21.287,7.992l-6.271,-95.613l-21.346,-3.159Z" style="fill:#3e75ba;fill-rule:nonzero;"/><path d="M263.797,246.464l-0.204,-3.1c0.013,-0.014 0.025,-0.028 0.037,-0.041l0.167,3.141Z" style="fill:#b5bcbd;fill-rule:nonzero;"/><path d="M249.304,241.127l-6.785,-2.545l6.785,2.545Z" style="fill:#969fa2;fill-rule:nonzero;"/><path d="M262.242,222.755l-0.829,-12.628c0.158,0.157 0.316,0.313 0.475,0.467l-0.666,-12.594l0.666,12.594l0.624,11.723c-0.09,0.146 -0.179,0.293 -0.27,0.438Z" style="fill:#b5bcbd;fill-rule:nonzero;"/><path d="M239.752,220.336l-10.015,-66.022c0.001,0 0.003,0 0.004,-0.002l10.011,66.024Z" style="fill:#7b868a;fill-rule:nonzero;"/><path d="M229.737,154.314l-0.322,-2.128l0.003,-0.002l0.323,2.128c-0.001,0.002 -0.003,0.002 -0.004,0.002Z" style="fill:#fdd2ad;fill-rule:nonzero;"/><path d="M263.803,246.568l-2.288,-0.857c0.232,-0.254 0.462,-0.507 0.693,-0.763c0.464,-0.525 0.925,-1.053 1.385,-1.584l0.204,3.1l0.006,0.104Zm-14.499,-5.441l-6.785,-2.548l-2.767,-18.243l-10.011,-66.024l-0.323,-2.128l7.853,5.183l5.286,-8.615l14.95,2.212c-0.535,0.025 -7.721,0.501 -10.897,8.537c-1.098,2.781 -1.464,6.151 -1.465,9.41c-0.002,6.43 1.423,12.428 1.464,12.606l0,0.01c0,0 5.074,18.786 14.804,28.6l0.829,12.628c-0.996,1.61 -2.046,3.214 -3.13,4.804c-2.14,3.155 -4.369,6.305 -6.696,9.4c-1.021,1.398 -2.059,2.789 -3.112,4.168Z" style="fill:#87aedc;fill-rule:nonzero;"/><path d="M229.418,152.184l7.664,-7.588l5.736,3.73l-5.547,9.041l-7.853,-5.183Z" style="fill:#3e75ba;fill-rule:nonzero;"/><path d="M237.271,157.367l-7.853,-5.183l7.664,-7.588l5.736,3.73l-5.547,9.041Z" style="fill:#afc8e9;fill-rule:nonzero;"/><path d="M212.587,151.691c-2.989,5.324 -8.269,93.275 -8.269,93.275l-11.117,-0.031c0,0 -4.444,-84.501 1.939,-91.051l17.447,-2.193Z" style="fill:#3e75ba;fill-rule:nonzero;"/><path d="M204.318,244.966l-11.117,-0.031c0,0 -1.154,-21.936 -1.44,-44.322c-0.041,-3.186 -0.065,-6.383 -0.065,-9.524c0,-18.112 0.775,-34.468 3.444,-37.205l12.61,-1.585l0.16,4.863l4.117,-3.663c-2.16,9.755 -5.143,51.815 -6.688,75.354c-0.015,0.229 -0.03,0.458 -0.044,0.683c-0.141,2.146 -0.269,4.127 -0.384,5.907c-0.315,4.96 -0.521,8.338 -0.578,9.266c-0.011,0.17 -0.015,0.257 -0.015,0.257Z" style="fill:#87aedc;fill-rule:nonzero;"/><path d="M214.671,147.136l-6.924,5.103l0.163,4.923l5.965,-5.307l0.796,-4.719Z" style="fill:#3e75ba;fill-rule:nonzero;"/><path d="M207.91,157.162l-0.163,-4.923l6.924,-5.103l-0.692,4.095l-0.104,0.624l-1.228,1.093l-4.737,4.214Z" style="fill:#afc8e9;fill-rule:nonzero;"/><path d="M213.19,108.441c4.527,2.372 3.164,7.423 -5.484,16.066c-4.428,-4.569 -6.176,-14.219 -3.385,-17.012c2.792,-2.794 4.926,-1.106 8.869,0.946Z" style="fill:#182e35;fill-rule:nonzero;"/><path d="M232.154,114.214c0.712,10.322 1.645,16.32 -2.826,22.255c-6.74,8.921 -19.994,5.894 -23.779,-4.011c-3.389,-8.899 -3.994,-24.289 5.493,-29.669c6.759,-3.88 15.383,-1.545 19.263,5.214c1.09,1.899 1.723,4.026 1.849,6.211Z" style="fill:#fbb474;fill-rule:nonzero;"/><path d="M217.232,119.024c0.109,0.834 -0.248,1.569 -0.791,1.636c-0.545,0.068 -1.067,-0.542 -1.175,-1.374c-0.109,-0.833 0.236,-1.563 0.777,-1.642c0.54,-0.08 1.025,0.568 1.189,1.38Z" style="fill:#182e35;fill-rule:nonzero;"/><path d="M207.761,120.28c0.108,0.833 -0.249,1.567 -0.794,1.636c-0.543,0.068 -1.075,-0.539 -1.189,-1.382c-0.112,-0.845 0.248,-1.567 0.793,-1.636c0.545,-0.069 1.081,0.548 1.19,1.382Z" style="fill:#182e35;fill-rule:nonzero;"/><path d="M210.902,120.267c-0.659,2.677 -1.686,5.252 -3.049,7.65c1.686,1.178 4.085,0.219 4.085,0.219l-1.036,-7.869Z" style="fill:#ed883e;fill-rule:nonzero;"/><path d="M219.428,115.699l0.302,-0.109c0.196,-0.191 0.203,-0.502 0.015,-0.7c-1.088,-1.163 -2.674,-1.723 -4.252,-1.498c-0.26,0.042 -0.434,0.286 -0.392,0.546l0.006,0.034c0.062,0.261 0.316,0.429 0.58,0.386c1.246,-0.157 2.491,0.297 3.343,1.218c0.11,0.095 0.254,0.139 0.398,0.123Z" style="fill:#182e35;fill-rule:nonzero;"/><path d="M203.028,117.651c0.188,-0.027 0.347,-0.157 0.41,-0.336c0.363,-1.205 1.279,-2.161 2.465,-2.576c0.264,-0.072 0.42,-0.343 0.352,-0.607c-0.07,-0.259 -0.333,-0.416 -0.595,-0.354c-1.511,0.501 -2.686,1.704 -3.154,3.225c-0.087,0.256 0.05,0.533 0.304,0.62l0.007,0.003l0.211,0.025Z" style="fill:#182e35;fill-rule:nonzero;"/><path d="M226.884,105.674c-4.57,2.267 -3.307,7.351 5.156,16.164c4.526,-4.478 6.478,-14.098 3.733,-16.932c-2.745,-2.833 -4.892,-1.206 -8.889,0.768Z" style="fill:#182e35;fill-rule:nonzero;"/><path d="M238.105,121.765c-0.389,2.574 -1.781,4.892 -3.874,6.441c-2.789,2.023 -5.376,-0.186 -5.605,-3.441c-0.204,-2.934 1.009,-7.527 4.286,-8.257c3.277,-0.731 5.654,2.096 5.193,5.257Z" style="fill:#fbb474;fill-rule:nonzero;"/><path d="M235.067,104.274c0,0 1.274,-3.901 -5.548,-8.336c-6.822,-4.436 -18.701,-2.29 -26.73,2.48c-8.031,4.769 0.513,12.453 4.161,12.938l-0.908,-1.36c0,0 6.339,0.996 11.669,-0.912l-2.262,-0.981c0,0 14.825,-1.341 19.618,-3.829Z" style="fill:#182e35;fill-rule:nonzero;"/><path d="M213.434,130.505c0.718,1.15 1.566,3.369 1.566,3.369c0.216,-0.041 0.43,-0.081 0.642,-0.132c2.9,-0.624 4.041,-1.873 4.425,-3.067c0.207,-0.653 0.18,-1.298 0.091,-1.809c-0.097,-0.591 -0.301,-0.992 -0.301,-0.992c-1.34,1.25 -4,2.041 -5.437,2.402c-0.601,0.158 -0.986,0.229 -0.986,0.229Z" style="fill:#182e35;fill-rule:nonzero;"/><path d="M214.42,130.276l0.487,0.982c2.731,-0.594 4.574,-1.379 5.251,-2.392c-0.097,-0.591 -0.301,-0.992 -0.301,-0.992c-1.34,1.25 -4,2.041 -5.437,2.402Z" style="fill:#fff;fill-rule:nonzero;"/><path d="M215.642,133.742c2.9,-0.624 4.041,-1.873 4.425,-3.067c-0.981,0.251 -2.136,0.663 -3.085,1.332c-0.728,0.509 -1.119,1.136 -1.34,1.735Z" style="fill:#ba4d3d;fill-rule:nonzero;"/><path d="M266.094,165.31c2.08,3.475 3.885,6.756 5.696,10.209c1.783,3.432 3.456,6.935 5.026,10.538c1.571,3.605 3.019,7.311 4.209,11.276c0.592,1.989 1.128,4.039 1.538,6.226c0.403,2.19 0.697,4.528 0.602,7.235l-0.008,0.219c-0.014,0.42 -0.08,0.858 -0.179,1.25c-0.668,2.623 -1.58,4.839 -2.57,6.914c-0.991,2.07 -2.066,3.994 -3.184,5.852c-2.243,3.695 -4.659,7.115 -7.159,10.421c-2.512,3.295 -5.155,6.435 -7.857,9.498c-1.373,1.518 -2.763,3.011 -4.17,4.49l-2.126,2.206l-1.08,1.097c-0.342,0.394 -0.749,0.698 -1.893,0.403c-2.917,-0.754 -5.177,-2.76 -6.354,-5.295l-0.455,-0.996c-0.468,-1.025 -0.213,-1.461 0.11,-1.806l0.902,-1.134l1.786,-2.296c1.182,-1.539 2.346,-3.093 3.488,-4.658c2.327,-3.095 4.556,-6.245 6.696,-9.4c2.144,-3.149 4.158,-6.348 5.885,-9.545c1.686,-3.149 3.184,-6.499 3.682,-9.06l-0.187,1.467c-0.03,-2.096 -0.862,-5.331 -1.959,-8.379c-1.119,-3.109 -2.514,-6.29 -4.028,-9.454c-1.518,-3.165 -3.196,-6.308 -4.932,-9.43c-1.717,-3.095 -3.587,-6.288 -5.401,-9.153l-0.055,-0.087c-2.425,-3.83 -1.286,-8.902 2.543,-11.327c3.831,-2.424 8.902,-1.285 11.327,2.546l0.107,0.173Z" style="fill:#182e35;fill-rule:nonzero;"/><path d="M261.888,210.594c-0.159,-0.154 -0.317,-0.31 -0.475,-0.467l-0.766,-11.705l0.575,-0.422l0.666,12.594Z" style="fill:#939998;fill-rule:nonzero;"/><path d="M261.413,210.127c-9.73,-9.814 -14.804,-28.6 -14.804,-28.6l0,-0.01c0.001,0.003 0.001,0.004 0.001,0.004l11.967,18.413l2.07,-1.512l0.766,11.705Z" style="fill:#638ec9;fill-rule:nonzero;"/><path d="M257.537,150.962c6.802,1.993 21.232,34.203 21.232,34.203l-20.192,14.769l-11.967,-18.413c0,0 -3.297,-13.672 0,-22.02c3.299,-8.349 10.927,-8.539 10.927,-8.539Z" style="fill:#3e75ba;fill-rule:nonzero;"/><path d="M258.577,199.934l-11.967,-18.413c0,0 -1.467,-6.081 -1.465,-12.61c0.001,-3.259 0.367,-6.629 1.465,-9.41c3.299,-8.349 10.927,-8.539 10.927,-8.539c6.802,1.993 21.232,34.203 21.232,34.203l-1.777,1.3l-12.939,9.464l-5.476,4.005Z" style="fill:#87aedc;fill-rule:nonzero;"/><path d="M154.835,171.78l-0.635,-11.452l11.763,4.842c0,0 -0.05,10.253 -5.33,10.005l-5.798,-3.395Z" style="fill:#fbb474;fill-rule:nonzero;"/><path d="M159.564,150.312l8.7,7.599l-2.301,7.259l-11.763,-4.842l5.364,-10.016Z" style="fill:#fbb474;fill-rule:nonzero;"/><path d="M245.146,241.341c0,0 8.808,6.043 11.294,14.927l-11.294,15.016c0,0 -9.156,-19.124 0,-29.943Z" style="fill:#182e35;fill-rule:nonzero;"/><path d="M245.146,271.284c0,0 -4.074,-8.509 -4.07,-17.385c0.002,-4.431 1.021,-8.955 4.07,-12.558c0,0 8.808,6.043 11.294,14.927l-5.614,7.464l-5.68,7.552Z" style="fill:#4b5b61;fill-rule:nonzero;"/></g><g><path d="M359.306,360.493c0,0 -1.621,0.248 -2.27,0.41c-0.898,0.223 -1.277,1.294 -0.344,1.194c0.81,-0.085 1.491,-0.217 2.321,-0.348c0.829,-0.131 1.546,-1.457 0.293,-1.256Z" style="fill:#00b2a7;fill-rule:nonzero;"/><path d="M358.915,361.194l1.954,0.215l0.524,-0.659l-1.659,-0.089l-0.819,0.533Z" style="fill:#00b2a7;fill-rule:nonzero;"/><path d="M360.098,361.325l-0.334,-0.037l-0.849,-0.094c0,0 0.5,-0.308 1.367,-0.503l0.482,0.025l-0.665,0.384l-0.001,0l-0.002,0.002l0.002,0l0,0.223Z" style="fill:#00907c;fill-rule:nonzero;"/><path d="M360.098,361.354l4.552,1.129l1.118,-0.645c0,0 -2.682,-0.774 -5.67,-0.484Z" style="fill:#0c2b34;fill-rule:nonzero;"/><path d="M360.098,361.354l0,0.268l4.238,1.042l0.314,-0.181l-4.552,-1.129Z" style="fill:#23434c;fill-rule:nonzero;"/><path d="M370.601,363.336l-3.439,1.994c0.161,-0.507 0.541,-1.005 0.972,-1.25l3.438,-1.986c-0.16,0.499 -0.532,0.989 -0.971,1.242Zm8.018,-6.141l-0.034,-0.119l-0.017,-0.042l-0.084,-0.11l-0.11,-0.092l-0.042,-0.026c-0.288,-0.17 -1.513,-0.879 -1.674,-0.963c-0.16,-0.093 -0.388,-0.085 -0.641,0.067l-15.334,8.845c-0.508,0.296 -0.913,1.006 -0.913,1.589l0,33.548c0,0.296 0.101,0.499 0.27,0.592c0.16,0.093 1.547,0.896 1.707,0.989l0.042,0.017l0.093,0.033l0.203,0c0.101,-0.008 0.203,-0.05 0.312,-0.109l15.334,-8.855c0.507,-0.287 0.913,-0.997 0.913,-1.579l0,-33.557c0,-0.085 -0.008,-0.161 -0.025,-0.228Z" style="fill:#00b2a7;fill-rule:nonzero;"/><path d="M361.485,400.881l0,-33.548c0,-0.296 0.102,-0.617 0.271,-0.904l-1.716,-0.989c-0.068,0.116 -0.126,0.238 -0.17,0.361c0.151,-0.428 0.457,-0.838 0.813,-1.046l5.064,-2.921c0.985,0.173 1.828,0.387 2.339,0.633l-1.372,0.793l-4.317,2.484c-0.498,0.295 -0.912,1.005 -0.912,1.589l0,33.548Zm9.242,-39.941c-0.463,-0.26 -1.278,-0.489 -2.26,-0.676l7.55,-4.354c0.146,-0.087 0.284,-0.128 0.406,-0.128c0.088,0 0.168,0.022 0.235,0.061c0.161,0.084 1.386,0.793 1.674,0.963l0.042,0.026l0.11,0.092l0.084,0.11l0.017,0.042l0.034,0.119c0.017,0.067 0.025,0.143 0.025,0.228c0,-0.085 -0.008,-0.161 -0.025,-0.228l-0.034,-0.119l-0.017,-0.042l-0.084,-0.11l-0.11,-0.092l-0.042,-0.026c-0.057,-0.024 -0.12,-0.036 -0.188,-0.036c-0.125,0 -0.265,0.041 -0.413,0.129l-7.004,4.041Z" style="fill:#00ae9d;fill-rule:nonzero;"/><path d="M361.789,401.49l-0.042,-0.017c-0.16,-0.093 -1.547,-0.896 -1.707,-0.989c-0.169,-0.093 -0.27,-0.296 -0.27,-0.592l0,-33.548c0,-0.296 0.101,-0.617 0.27,-0.904l1.716,0.989c-0.169,0.287 -0.271,0.608 -0.271,0.904l0,33.548c0,0.313 0.119,0.524 0.304,0.609Z" style="fill:#00b2a7;fill-rule:nonzero;"/><path d="M361.789,401.49l-0.042,-0.017c-0.16,-0.093 -1.547,-0.896 -1.707,-0.989c-0.169,-0.093 -0.27,-0.296 -0.27,-0.592l0,-33.548c0,-0.296 0.101,-0.617 0.27,-0.904l1.716,0.989c-0.169,0.287 -0.271,0.608 -0.271,0.904l0,33.548c0,0.313 0.119,0.524 0.304,0.609Z" style="fill:#00a990;fill-rule:nonzero;"/><path d="M368.134,364.08l3.438,-1.986c-0.16,0.499 -0.532,0.989 -0.971,1.242l-3.439,1.994c0.161,-0.507 0.541,-1.005 0.972,-1.25Zm10.485,-6.885l-0.034,-0.119l-0.017,-0.042l-0.084,-0.11l-0.11,-0.092l-0.042,-0.026c-0.162,-0.067 -0.373,-0.043 -0.601,0.093l-7.13,4.114l-3.887,2.247l-4.317,2.484c-0.498,0.295 -0.912,1.005 -0.912,1.589l0,33.548c0,0.313 0.119,0.524 0.304,0.609l0.093,0.033l0.203,0c0.101,-0.008 0.203,-0.05 0.312,-0.109l15.334,-8.855c0.507,-0.287 0.913,-0.997 0.913,-1.579l0,-33.557c0,-0.085 -0.008,-0.161 -0.025,-0.228Z" style="fill:#00b2a7;fill-rule:nonzero;"/><path d="M367.629,366.557c-0.337,0 -0.568,-0.251 -0.568,-0.695c0,-0.169 0.034,-0.355 0.101,-0.532l3.439,-1.994c0.439,-0.253 0.811,-0.743 0.971,-1.242l0.457,-0.262c0.182,-0.107 0.355,-0.158 0.505,-0.158c0.338,0 0.567,0.255 0.567,0.699c0,0.642 -0.481,1.437 -1.072,1.783l-3.895,2.246c-0.182,0.105 -0.354,0.155 -0.505,0.155Z" style="fill:#00ad99;fill-rule:nonzero;"/><path d="M364.609,370.377l10.911,-6.299c0.195,-0.113 0.354,-0.021 0.354,0.204l0,13.888c0,0.226 -0.159,0.5 -0.354,0.613l-10.911,6.288c-0.196,0.113 -0.354,0.021 -0.354,-0.205l0,-13.876c0,-0.226 0.158,-0.5 0.354,-0.613Z" style="fill:#f9f9f9;fill-rule:nonzero;"/><path d="M375.291,378.914l-1.714,0.988l-0.206,0.12c-0.684,-0.949 -1.285,-1.827 -1.285,-1.827c-0.217,-0.603 -0.366,-1.138 -0.472,-1.574l0,-0.003c-0.185,-0.77 -0.226,-1.235 -0.226,-1.235l0.006,-0.002c0.066,-0.021 0.74,-0.221 1.338,0.002c0.368,0.138 0.753,0.513 1.019,0.965c0.276,0.47 1.005,1.679 1.54,2.566Z" style="fill:#335863;fill-rule:nonzero;"/><path d="M373.577,379.902l-0.206,0.12l-1.983,1.142l-0.303,0.175l-3.967,2.288l-0.162,0.092l-0.019,-0.683l0.199,-3.167c0,-0.611 0.318,-3.043 0.318,-3.043l0.899,-0.358l0.544,-0.216l0.177,-0.07l1.575,-0.63c0.098,-0.035 0.194,-0.064 0.286,-0.089l0.004,0l0.093,-0.022c0.126,-0.032 0.242,-0.05 0.356,-0.058l0.009,0c1.115,-0.087 1.71,0.752 1.985,2.091c0.079,0.385 0.142,1.308 0.195,2.428Z" style="fill:#23434c;fill-rule:nonzero;"/><path d="M371.388,381.164l-0.303,0.175c0.101,-1.437 0.037,-3.246 -0.307,-4.194c0.639,1.563 0.655,3.187 0.61,4.019Z" style="fill:#0c2b34;fill-rule:nonzero;"/><path d="M367.812,380.699c0,0 -0.375,1.455 -0.694,2.928l-0.162,0.092l-2.247,1.295c0.404,-4.025 0.671,-6.173 1.307,-7.249c0.346,-0.589 0.877,-0.737 1.438,-0.939c0.508,0.379 0.718,2.188 0.358,3.873Z" style="fill:#335863;fill-rule:nonzero;"/><path d="M368.514,369.815c0,0 -0.512,0.174 -0.701,0.653c-0.163,0.418 -0.104,1.345 0.114,2.327c0.218,0.984 0.423,1.563 0.552,1.823c0.128,0.261 0.391,0.294 0.391,0.294l-0.026,-1.208l-0.037,-0.839c0,0 0.47,-0.823 0.521,-1.438c0.067,-0.793 -0.076,-1.088 -0.076,-1.088l-0.738,-0.524Z" style="fill:#0c2b34;fill-rule:nonzero;"/><path d="M368.394,369.986l-0.723,-0.255c0.103,-0.267 0.348,-0.427 0.548,-0.357c0.199,0.071 0.277,0.345 0.175,0.612Z" style="fill:#0c2b34;fill-rule:nonzero;"/><path d="M369.343,370.843c0.004,1.249 0.884,2.104 1.967,1.909c1.083,-0.195 1.958,-1.366 1.954,-2.615c-0.003,-1.251 -0.884,-2.105 -1.967,-1.91c-1.082,0.195 -1.958,1.366 -1.954,2.616Z" style="fill:#0c2b34;fill-rule:nonzero;"/><path d="M368.834,372.726c-0.176,0.208 -0.32,-0.224 -0.468,-0.376c-0.148,-0.152 -0.632,-0.309 -0.872,0.32c-0.244,0.641 0.222,1.372 0.584,1.502c0.529,0.19 0.766,-0.468 0.766,-0.468l0.057,2.724c0.515,0.81 1.672,0.011 1.877,0.573c0.034,-0.448 0.636,-0.598 0.256,-1.034l-0.004,-0.83c0,0 0.595,-0.003 0.884,-0.107c0.482,-0.172 0.734,-0.636 0.878,-1.265c0.233,-1.009 0.326,-2.654 0.004,-4.478c-0.541,-0.386 -2.412,0.023 -3.544,1.052c0.083,1.653 -0.241,2.179 -0.418,2.387Z" style="fill:#f69da3;fill-rule:nonzero;"/><path d="M373.065,367.909l-0.071,-0.051l-0.066,0.045c-0.071,0.072 -0.228,0.253 -0.429,0.409c0.04,-0.229 0.042,-0.46 0.007,-0.677c-0.02,-0.133 -0.054,-0.445 -0.201,-0.453c-0.088,-0.005 -0.164,0.093 -0.229,0.174c-0.59,0.742 -1.359,0.582 -2.068,0.733c-0.594,0.127 -1.31,0.532 -1.578,1.247c-0.123,0.325 -0.144,0.651 0.099,0.818c0.206,0.144 0.472,0.179 0.723,0.185c1.182,0.029 2.877,0.292 3.751,-1.135c0.129,-0.21 0.185,-0.432 0.184,-0.7c-0.002,-0.247 -0.047,-0.421 -0.12,-0.589l-0.002,-0.006Z" style="fill:#0c2b34;fill-rule:nonzero;"/><path d="M371.03,375.137c0,0 -1.076,-0.056 -1.453,-0.22c-0.252,-0.108 -0.46,-0.338 -0.522,-0.5c0,0 0.072,0.357 0.298,0.648c0.277,0.356 1.678,0.403 1.678,0.403l-0.001,-0.331Z" style="fill:#f48a8f;fill-rule:nonzero;"/><path d="M370.752,372.089c0,0.142 -0.096,0.275 -0.216,0.296c-0.118,0.021 -0.215,-0.078 -0.215,-0.22c-0.001,-0.143 0.095,-0.276 0.214,-0.297c0.119,-0.021 0.216,0.078 0.217,0.221Z" style="fill:#0c2b34;fill-rule:nonzero;"/><path d="M370.52,371.19l-0.461,0.377c-0.068,-0.14 -0.02,-0.339 0.107,-0.443c0.127,-0.104 0.286,-0.075 0.354,0.066Z" style="fill:#0c2b34;fill-rule:nonzero;"/><path d="M370.871,373.651l0.603,0.152c-0.06,0.211 -0.242,0.347 -0.409,0.304c-0.166,-0.042 -0.253,-0.246 -0.194,-0.456Z" style="fill:#f48a8f;fill-rule:nonzero;"/><path d="M372.583,371.026l-0.421,-0.298c0.085,-0.155 0.249,-0.213 0.365,-0.131c0.116,0.082 0.142,0.274 0.056,0.429Z" style="fill:#0c2b34;fill-rule:nonzero;"/><path d="M372.455,371.71c0.001,0.143 -0.095,0.277 -0.214,0.298c-0.12,0.021 -0.216,-0.079 -0.217,-0.222c0,-0.142 0.096,-0.275 0.215,-0.296c0.119,-0.021 0.216,0.078 0.216,0.22Z" style="fill:#0c2b34;fill-rule:nonzero;"/><path d="M371.446,371.656l0.074,1.484l0.677,-0.388l-0.751,-1.096Z" style="fill:#f48a8f;fill-rule:nonzero;"/><path d="M368.879,375.37c-0.142,0.01 -0.191,0.072 -0.301,0.351c-0.127,0.318 -0.237,0.608 -0.237,0.608c0,0 0,0.592 0.462,1.039c0.458,0.443 1.472,0.599 1.472,0.599c0,0 0.083,-0.558 0.149,-0.794c0.141,-0.516 0.354,-0.172 0.354,-0.172c0,0 -0.026,-0.19 -0.116,-0.264c-0.091,-0.076 -0.671,-0.015 -1.133,-0.257c-0.463,-0.242 -0.643,-0.795 -0.643,-0.795l-0.007,-0.315Z" style="fill:#335863;fill-rule:nonzero;"/><path d="M370.778,377.001c0,-0.289 0.071,-0.358 0.122,-0.454c0.131,-0.249 0.129,-0.453 0.131,-0.678c0.002,-0.227 -0.001,-0.732 -0.001,-0.732c0.158,-0.008 0.274,0 0.373,0.262c0.097,0.263 0.277,0.802 0.195,1.381c-0.081,0.581 -0.291,0.81 -0.291,0.81c0,0 -0.12,-0.451 -0.196,-0.656c-0.075,-0.204 -0.22,-0.233 -0.333,0.067Z" style="fill:#335863;fill-rule:nonzero;"/><path d="M366.469,385.723l7.191,-4.151c0.261,-0.15 0.472,-0.028 0.472,0.273l0,0.189c0,0.302 -0.212,0.668 -0.473,0.819l-7.19,4.151c-0.261,0.151 -0.472,0.029 -0.472,-0.273l0,-0.189c0,-0.301 0.211,-0.669 0.472,-0.819Z" style="fill:#335863;fill-rule:nonzero;"/><path d="M364.714,390.58l2.564,-1.486c0.109,-0.062 0.198,-0.018 0.198,0.1c0,0.118 -0.089,0.264 -0.198,0.328l-2.564,1.485c-0.109,0.062 -0.197,0.018 -0.197,-0.1c-0.001,-0.118 0.088,-0.265 0.197,-0.327Z" style="fill:#335863;fill-rule:nonzero;"/><path d="M369.152,388.018l6.263,-3.616c0.109,-0.063 0.196,-0.019 0.196,0.1c0,0.118 -0.087,0.264 -0.196,0.327l-6.263,3.615c-0.108,0.064 -0.197,0.019 -0.197,-0.099c0,-0.118 0.088,-0.265 0.197,-0.327Z" style="fill:#335863;fill-rule:nonzero;"/><path d="M364.714,391.433l2.564,-1.484c0.109,-0.063 0.198,-0.019 0.198,0.1c0,0.117 -0.089,0.264 -0.198,0.326l-2.564,1.485c-0.109,0.064 -0.197,0.019 -0.197,-0.098c-0.001,-0.119 0.088,-0.266 0.197,-0.329Z" style="fill:#335863;fill-rule:nonzero;"/><path d="M369.152,388.872l6.263,-3.616c0.109,-0.063 0.196,-0.018 0.196,0.1c0,0.117 -0.087,0.264 -0.196,0.327l-6.263,3.616c-0.108,0.062 -0.197,0.018 -0.197,-0.1c0,-0.118 0.088,-0.265 0.197,-0.327Z" style="fill:#335863;fill-rule:nonzero;"/><path d="M364.714,392.288l2.564,-1.486c0.109,-0.062 0.198,-0.017 0.198,0.101c0,0.117 -0.089,0.263 -0.198,0.327l-2.564,1.485c-0.109,0.063 -0.197,0.018 -0.197,-0.1c-0.001,-0.117 0.088,-0.264 0.197,-0.327Z" style="fill:#335863;fill-rule:nonzero;"/><path d="M369.152,389.726l6.263,-3.616c0.109,-0.063 0.196,-0.018 0.196,0.1c0,0.118 -0.087,0.265 -0.196,0.327l-6.263,3.616c-0.108,0.063 -0.197,0.018 -0.197,-0.099c0,-0.119 0.088,-0.266 0.197,-0.328Z" style="fill:#335863;fill-rule:nonzero;"/><path d="M364.714,393.142l2.564,-1.485c0.109,-0.063 0.198,-0.018 0.198,0.1c0,0.118 -0.089,0.264 -0.198,0.327l-2.564,1.485c-0.109,0.063 -0.197,0.019 -0.197,-0.099c-0.001,-0.119 0.088,-0.265 0.197,-0.328Z" style="fill:#335863;fill-rule:nonzero;"/><path d="M369.152,390.58l6.263,-3.616c0.109,-0.062 0.196,-0.018 0.196,0.1c0,0.118 -0.087,0.265 -0.196,0.328l-6.263,3.616c-0.108,0.062 -0.197,0.017 -0.197,-0.101c0,-0.117 0.088,-0.264 0.197,-0.327Z" style="fill:#335863;fill-rule:nonzero;"/><path d="M365.626,394.663l0,2.673l0.772,-0.445l0,-2.674l-0.772,0.446Z" style="fill:#335863;fill-rule:nonzero;"/><path d="M367.942,393.325l0,2.674l0.771,-0.446l0,-2.674l-0.771,0.446Z" style="fill:#335863;fill-rule:nonzero;"/><path d="M371.03,391.542l0,2.674l0.772,-0.446l0,-2.674l-0.772,0.446Z" style="fill:#335863;fill-rule:nonzero;"/><path d="M373.731,389.984l0,2.673l0.772,-0.445l0,-2.674l-0.772,0.446Z" style="fill:#335863;fill-rule:nonzero;"/><path d="M366.784,393.994l0,2.674l0.386,-0.223l0,-2.674l-0.386,0.223Z" style="fill:#335863;fill-rule:nonzero;"/><path d="M372.187,390.874l0,2.674l0.386,-0.223l0,-2.674l-0.386,0.223Z" style="fill:#335863;fill-rule:nonzero;"/><path d="M369.871,392.212l0,2.673l0.386,-0.222l0,-2.674l-0.386,0.223Z" style="fill:#335863;fill-rule:nonzero;"/><path d="M367.556,393.548l0,2.674l0.192,-0.111l0,-2.674l-0.192,0.111Z" style="fill:#335863;fill-rule:nonzero;"/><path d="M370.52,391.837l0.001,2.673l0.192,-0.111l0,-2.674l-0.193,0.112Z" style="fill:#335863;fill-rule:nonzero;"/><path d="M369.293,392.546l0,2.673l0.192,-0.111l0,-2.674l-0.192,0.112Z" style="fill:#335863;fill-rule:nonzero;"/><path d="M373.152,390.317l0,2.674l0.193,-0.112l0,-2.673l-0.193,0.111Z" style="fill:#335863;fill-rule:nonzero;"/><path d="M368.907,392.766l0,2.674l0.192,-0.111l0,-2.674l-0.192,0.111Z" style="fill:#335863;fill-rule:nonzero;"/><path d="M372.766,390.542l0,2.673l0.193,-0.111l0,-2.674l-0.193,0.112Z" style="fill:#335863;fill-rule:nonzero;"/><path d="M366.841,387.946c-0.063,0 -0.105,-0.046 -0.105,-0.128c0,-0.117 0.088,-0.264 0.197,-0.328l6.263,-3.615c0.033,-0.019 0.065,-0.029 0.092,-0.029c0.062,0 0.105,0.047 0.105,0.129c0,0.118 -0.088,0.264 -0.197,0.327l-6.263,3.616c-0.033,0.019 -0.065,0.028 -0.092,0.028Z" style="fill:#00a990;"/><path d="M368.705,364.024c0.352,-0.199 0.243,-1.358 -0.341,-1.695c-1.295,-0.748 -5.478,-1.234 -8.268,-1.227l2.383,-1.376c2.791,-0.008 6.973,0.478 8.268,1.226c0.585,0.337 0.694,1.496 0.342,1.695l-2.384,1.377Z" style="fill:#335863;fill-rule:nonzero;"/><path d="M368.707,364.022c-0.093,0.05 -0.199,0.044 -0.352,-0.057l0.221,-0.126l0.021,-0.037c0.01,-0.024 0.051,-0.118 0.051,-0.312l0,-0.093c-0.017,-0.304 -0.152,-0.701 -0.414,-0.853c-1.267,-0.726 -5.417,-1.19 -8.009,-1.19l-0.127,0l0,-0.254c2.786,-0.008 6.971,0.482 8.263,1.224c0.591,0.338 0.7,1.503 0.346,1.698Z" style="fill:#23434c;fill-rule:nonzero;"/><path d="M361.893,360.83l-0.093,0c-0.143,-0.008 -0.152,-0.076 -0.033,-0.143l0.158,-0.092c0.102,0.03 0.158,0.072 0.168,0.119l-0.064,0.038l-0.136,0.078Zm0.947,-0.529l0,-0.001c-0.019,-0.053 -0.077,-0.101 -0.165,-0.141l0.037,-0.021c0.118,-0.068 0.33,-0.118 0.465,-0.118l0.599,0.016c0.144,0.009 0.152,0.068 0.034,0.127l-0.169,0.093l-0.464,-0.017c-0.009,-0.001 -0.018,-0.001 -0.027,-0.001c-0.092,0 -0.21,0.026 -0.31,0.063Z" style="fill:#14353d;fill-rule:nonzero;"/><path d="M362.293,360.849c-0.012,0 -0.025,-0.001 -0.037,-0.002l-0.363,-0.017l0.136,-0.078l-0.039,0.022c0.034,0.003 0.087,0.006 0.144,0.006c0.083,0 0.175,-0.006 0.227,-0.033c0.153,-0.079 0.33,-0.206 0.444,-0.274c0.041,-0.025 0.054,-0.057 0.054,-0.09c0,-0.031 -0.013,-0.061 -0.019,-0.082c0.1,-0.037 0.218,-0.063 0.31,-0.063c0.009,0 0.018,0 0.027,0.001l0.464,0.017l-0.912,0.49c-0.109,0.062 -0.295,0.103 -0.436,0.103Z" style="fill:#011c24;fill-rule:nonzero;"/><path d="M361.99,360.774l0.103,-0.06c-0.03,-0.138 -0.453,-0.233 -1.293,-0.117c-1.183,0.164 -1.885,0.597 -1.885,0.597c0,0 0.261,-0.48 1.027,-0.902c0.767,-0.42 2.769,-0.364 2.898,0.008c0.014,0.043 0.048,0.123 -0.035,0.173c-0.114,0.068 -0.291,0.195 -0.444,0.274c-0.086,0.044 -0.285,0.034 -0.371,0.027Z" style="fill:#00b2a7;fill-rule:nonzero;"/><path d="M358.915,361.194c0,0 0.261,-0.48 1.027,-0.902c0.368,-0.201 1.02,-0.294 1.614,-0.294c0.643,0 1.217,0.109 1.284,0.302c0.006,0.022 0.019,0.052 0.019,0.083c0,0.033 -0.013,0.065 -0.054,0.09c-0.114,0.068 -0.291,0.195 -0.444,0.274c-0.052,0.027 -0.144,0.033 -0.227,0.033c-0.057,0 -0.11,-0.003 -0.144,-0.006l0.103,-0.06c-0.01,-0.047 -0.066,-0.089 -0.168,-0.119c-0.104,-0.032 -0.255,-0.05 -0.456,-0.05c-0.13,0 -0.281,0.007 -0.452,0.025c-0.069,0.008 -0.141,0.016 -0.217,0.027c-1.183,0.164 -1.885,0.597 -1.885,0.597Z" style="fill:#00a990;fill-rule:nonzero;"/></g></g><g id="Layer5"><g><path d="M300.494,388.906c-1.502,0.175 -2.883,-0.846 -3.068,-2.268l-3.166,-24.336c-0.184,-1.422 0.893,-2.729 2.396,-2.904c1.503,-0.175 2.884,0.845 3.068,2.267l3.166,24.337c0.185,1.422 -0.893,2.729 -2.396,2.904Z" style="fill:#fff;fill-rule:nonzero;"/><path d="M305.994,384.306l-1.781,0c-1.024,0 -1.861,-0.793 -1.861,-1.762l0,-26.206c0,-0.97 0.837,-1.763 1.861,-1.763l1.781,0c1.024,0 1.862,0.793 1.862,1.763l0,26.206c0,0.969 -0.838,1.762 -1.862,1.762Z" style="fill:#fff;fill-rule:nonzero;"/><path d="M317.265,400.26l-17.587,0c-1.655,0 -3.009,-1.282 -3.009,-2.849l0,-20.623c0,-1.567 1.354,-2.849 3.009,-2.849l17.587,0c1.656,0 3.011,1.282 3.011,2.849l0,20.623c0,1.567 -1.355,2.849 -3.011,2.849Z" style="fill:#fff;fill-rule:nonzero;"/><path d="M291.648,386.708c-1.63,0.137 -3.082,-1.012 -3.227,-2.554l-1.086,-11.524c-0.145,-1.542 1.069,-2.916 2.699,-3.054c1.628,-0.138 3.08,1.012 3.225,2.554l1.087,11.524c0.145,1.542 -1.069,2.916 -2.698,3.054Z" style="fill:#fff;fill-rule:nonzero;"/><path d="M288.175,385.323c0.448,4.752 9.659,14.426 9.659,14.426l1.252,-18.163l-9.214,-2.713c0,0 -2.144,1.698 -1.697,6.45Z" style="fill:#fff;fill-rule:nonzero;"/><path d="M301.407,373.696l-5.696,0.664l-0.563,-4.322l5.697,-0.664l0.562,4.322Z" style="fill:#2c2d2c;fill-rule:nonzero;"/><path d="M299.524,370.804c1.135,1.342 -0.276,3.053 -1.928,2.34c-0.139,-0.061 -0.266,-0.154 -0.362,-0.268c-1.134,-1.343 0.278,-3.055 1.93,-2.339c0.139,0.06 0.265,0.153 0.36,0.267Z" style="fill:#ee232f;fill-rule:nonzero;"/><path d="M311.249,388.519c-1.514,0 -2.752,-1.172 -2.752,-2.605l0,-24.521c0,-1.433 1.238,-2.605 2.752,-2.605c1.514,0 2.752,1.172 2.752,2.605l0,24.521c0,1.433 -1.238,2.605 -2.752,2.605Z" style="fill:#fff;fill-rule:nonzero;"/><path d="M317.462,393.623c-1.514,0 -2.753,-1.173 -2.753,-2.606l0,-24.52c0,-1.433 1.239,-2.605 2.753,-2.605c1.514,0 2.753,1.172 2.753,2.605l0,24.52c0,1.433 -1.239,2.606 -2.753,2.606Z" style="fill:#fff;fill-rule:nonzero;"/><path d="M289.879,374.641c-0.105,0 -0.21,-0.018 -0.311,-0.059c-1.764,-0.692 -3.139,-1.993 -3.869,-3.663c-0.73,-1.67 -0.73,-3.509 0.002,-5.178c0.73,-1.67 2.106,-2.97 3.869,-3.662c1.766,-0.691 3.708,-0.69 5.472,0.002c0.416,0.163 0.612,0.613 0.44,1.006c-0.173,0.392 -0.651,0.577 -1.062,0.416c-1.364,-0.535 -2.864,-0.536 -4.228,-0.002c-1.363,0.534 -2.424,1.538 -2.99,2.828c-1.165,2.663 0.174,5.728 2.988,6.832c0.415,0.162 0.612,0.613 0.44,1.005c-0.13,0.297 -0.433,0.475 -0.751,0.475Z" style="fill:#ee232f;fill-rule:nonzero;"/><path d="M288.437,378.3c-0.105,0 -0.211,-0.019 -0.312,-0.058c-5.688,-2.233 -8.398,-8.428 -6.04,-13.813c2.359,-5.383 8.905,-7.948 14.593,-5.716c0.416,0.163 0.612,0.612 0.44,1.005c-0.172,0.393 -0.651,0.577 -1.062,0.417c-4.861,-1.91 -10.454,0.283 -12.469,4.884c-2.015,4.6 0.3,9.894 5.16,11.801c0.415,0.163 0.612,0.613 0.44,1.005c-0.129,0.297 -0.433,0.475 -0.75,0.475Z" style="fill:#ee232f;fill-rule:nonzero;"/><path d="M286.98,382.205c-0.105,0 -0.21,-0.019 -0.312,-0.059c-3.813,-1.497 -6.784,-4.309 -8.362,-7.919c-1.579,-3.611 -1.577,-7.587 0.003,-11.197c1.581,-3.609 4.553,-6.42 8.368,-7.915c3.814,-1.494 8.015,-1.493 11.829,0.004c0.415,0.162 0.612,0.612 0.44,1.005c-0.172,0.393 -0.65,0.577 -1.063,0.416c-3.413,-1.339 -7.172,-1.34 -10.584,-0.003c-3.414,1.337 -6.073,3.853 -7.488,7.083c-1.414,3.229 -1.415,6.787 -0.003,10.018c1.413,3.231 4.071,5.748 7.482,7.086c0.416,0.163 0.613,0.613 0.44,1.006c-0.129,0.296 -0.432,0.475 -0.75,0.475Z" style="fill:#ee232f;fill-rule:nonzero;"/><path d="M327.35,379.423c-1.124,0 -2.04,0.866 -2.04,1.93c0,1.065 0.916,1.93 2.04,1.93c1.125,0 2.04,-0.865 2.04,-1.93c0,-1.064 -0.915,-1.93 -2.04,-1.93Zm0,4.381c-1.428,0 -2.59,-1.1 -2.59,-2.451c0,-1.351 1.162,-2.451 2.59,-2.451c1.428,0 2.59,1.1 2.59,2.451c0,1.351 -1.162,2.451 -2.59,2.451Z" style="fill:#fff;fill-rule:nonzero;"/></g></g></svg>