<?xml version="1.0" encoding="UTF-8" standalone="no"?><!DOCTYPE svg PUBLIC "-//W3C//DTD SVG 1.1//EN" "http://www.w3.org/Graphics/SVG/1.1/DTD/svg11.dtd"><svg width="100%" height="100%" viewBox="0 0 2298 1435" version="1.1" xmlns="http://www.w3.org/2000/svg" xmlns:xlink="http://www.w3.org/1999/xlink" xml:space="preserve" xmlns:serif="http://www.serif.com/" style="fill-rule:evenodd;clip-rule:evenodd;stroke-linejoin:round;stroke-miterlimit:2;"><rect id="Artboard1" x="0" y="0" width="2297.15" height="1434.84" style="fill:none;"/><g id="Background"></g><g id="Illustration"><g><path d="M369.946,1285.43c0.197,0.128 0.393,0.256 0.589,0.384c37.218,24.29 81.152,37.329 126.153,37.329l1650.99,-0c54.033,-0 101.422,-34.845 115.265,-84.997c17.668,-64.004 14.809,-136.172 -15.769,-209.403c-114.935,-275.266 -177.58,-266.969 -75.231,-456.1c102.349,-189.131 -128.075,-769.771 -493.901,-354.149c-365.826,415.622 -421.147,190.882 -596.74,2.532c-95.07,-101.977 -362.436,-328.595 -606.173,-48.189c-154.231,177.435 -90.97,256.681 -199.032,357.749c-108.062,101.068 -399.501,432.988 93.846,754.844Z" style="fill:url(#_Linear1);fill-rule:nonzero;"/><g><path d="M1665.51,1333.55c-0,-0 174.169,-521.417 461.859,-788.538c19.339,-17.956 50.874,-7.528 55.532,18.448c31.151,173.692 73.92,695.891 -517.391,770.09Z" style="fill:#91b3fa;fill-rule:nonzero;"/><path d="M1721.67,1303.98c-1.415,1.154 0.126,3.32 1.683,2.366c57.411,-35.173 283.142,-213.074 395.222,-598.009c0.36,-1.237 -1.448,-1.883 -1.913,-0.682c-34.297,88.481 -171.227,413.796 -394.992,596.325Z" style="fill:#bdd0fb;fill-rule:nonzero;"/></g><g><path d="M1754.16,1334.39c-0,-0 -10.254,-236.007 223.968,-302.434c146.37,-41.511 213.159,-88.525 242.669,-117.952c9.677,-9.651 26.089,-5.48 26.779,6.742c5.151,91.257 -27.528,331.488 -493.416,413.644Z" style="fill:#bdd0fb;fill-rule:nonzero;"/><path d="M2150.95,1028.99c0.674,-0.842 1.977,-0.166 1.424,0.739c-20.391,33.362 -124.131,167.328 -352.146,254.742c-0.732,0.281 -1.134,-0.646 -0.424,-0.981c52.33,-24.683 244.632,-121.265 351.146,-254.5Z" style="fill:#fff;fill-opacity:0.5;fill-rule:nonzero;"/></g><g><path d="M1865.49,828.635c-0,-0 -164.039,-176.89 -28.1,-349.714c84.951,-108 105.14,-178.954 108.333,-216.987c1.047,-12.473 16.411,-17.769 25.029,-8.691c64.34,67.784 198.199,270.213 -105.262,575.392Z" style="fill:#bdd0fb;fill-rule:nonzero;"/><path d="M1979.9,400.781c0.018,-1.035 1.522,-1.108 1.643,-0.08c4.475,37.887 4.442,200.741 -127.594,385.604c-0.424,0.594 -1.346,0.016 -0.974,-0.612c27.358,-46.291 124.143,-221.309 126.925,-384.912Z" style="fill:url(#_Linear2);fill-rule:nonzero;"/></g><g><path d="M434.074,969.319c-0,-0 -163.475,-278.242 -361.196,-396.633c-13.291,-7.958 -30.131,1.868 -29.646,17.352c3.248,103.539 42.236,408.63 390.842,379.281Z" style="fill:#bdd0fb;fill-rule:nonzero;"/><path d="M398.218,959.169c0.953,0.491 0.332,1.922 -0.679,1.563c-37.25,-13.213 -188.532,-87.907 -299.741,-295.326c-0.357,-0.666 0.602,-1.258 1.016,-0.624c30.463,46.639 148.688,216.796 299.404,294.387Z" style="fill:url(#_Linear3);fill-rule:nonzero;"/></g><g><path d="M623.571,909.498c-0,-0 -82.644,-554.569 -324.33,-873.805c-16.247,-21.46 -49.767,-16.567 -59.045,8.7c-62.036,168.951 -197.434,685.904 383.375,865.105Z" style="fill:#91b3fa;fill-rule:nonzero;"/><path d="M572.387,869.847c1.217,1.41 -0.714,3.313 -2.109,2.078c-51.44,-45.493 -246.685,-264.144 -291.123,-670.632c-0.142,-1.306 1.788,-1.635 2.042,-0.346c18.786,94.945 98.739,445.948 291.19,668.9Z" style="fill:#bdd0fb;fill-rule:nonzero;"/></g><g><g><path d="M1282.57,233.2l-498.272,-48.69l-499.087,45.896l-9.209,1067.81l498.883,-22.132l498.401,33.604l498.419,-40.434l9.112,-1056.58l-498.247,20.526Z" style="fill:#fff;fill-rule:nonzero;"/><path d="M785.794,1251.83l-474.004,20.988l8.736,-1012.96l474.198,-43.533l-8.93,1035.51Z" style="fill:url(#_Linear4);fill-rule:nonzero;"/><path d="M1259.34,1283.71l-473.548,-31.884l8.93,-1035.51l473.425,46.196l-8.807,1021.2Z" style="fill:url(#_Linear5);fill-rule:nonzero;"/><path d="M1732.9,1245.36l-473.563,38.35l8.807,-1021.2l473.4,-19.465l-8.644,1002.31Z" style="fill:url(#_Linear6);fill-rule:nonzero;"/><path d="M794.763,216.314l-10.728,-0.092l-8.908,1035.83l10.728,0.092l8.908,-1035.83Z" style="fill:#fff;fill-opacity:0.47;"/></g><g><g><clipPath id="_clip7"><path d="M1267.41,261.149l-473.424,-46.196l-474.198,43.533l-8.736,1012.96l474.004,-20.987l473.548,31.884l473.563,-38.351l8.643,-1002.31l-473.4,19.465Z"/></clipPath><g clip-path="url(#_clip7)"><path d="M1405.23,273.927l122.138,81.793l-84.306,66.71l-97.995,-79.709l60.163,-68.794Z" style="fill:#91b3fa;fill-rule:nonzero;"/><path d="M598.478,425.459l11.016,-89.081l178.433,46.127l-0.976,113.13l-188.473,-70.176Z" style="fill:#91b3fa;fill-rule:nonzero;"/><path d="M1617.61,989.064l99.535,-41.685l12.678,86.409l-86.887,23.174l-25.326,-67.898Z" style="fill:#7d97f4;fill-rule:nonzero;"/><path d="M682.588,1049.68l99.199,44.854l99.388,-13.238l-8.468,-58.385l-90.141,-18.72l-99.978,45.489Z" style="fill:#7d97f4;fill-rule:nonzero;"/><path d="M358.685,497.98l-4.313,15.355l255.253,71.694l4.313,-15.355l-255.253,-71.694Z" style="fill:#7d97f4;"/><path d="M379.023,998.721l-15.911,-12.011l175.576,-232.571l197.481,-12.311l26.314,-171.562l-179.437,-120.589l-261.933,76.763l-5.607,-19.13l270.902,-79.392l197.699,132.86l-30.667,199.948l-204.363,12.74l-170.054,225.255Z" style="fill:#7d97f4;fill-rule:nonzero;"/><path d="M304.363,925.172l-13.022,15.095l204.805,176.676l13.022,-15.096l-204.805,-176.675Z" style="fill:#7d97f4;"/><path d="M1230.4,807.641l-332.243,99.018l5.694,19.106l332.243,-99.018l-5.694,-19.106Z" style="fill:#7d97f4;"/><path d="M1168.76,645.179l-18.534,7.342l120.518,304.223l18.534,-7.342l-120.518,-304.223Z" style="fill:#7d97f4;"/><path d="M1552.74,892.767l-118.424,126.607l14.558,13.617l118.425,-126.607l-14.559,-13.617Z" style="fill:#7d97f4;"/><path d="M1375.91,724.076l-14.273,7.118l118.969,238.552l14.273,-7.118l-118.969,-238.552Z" style="fill:#7d97f4;"/><path d="M1484.16,489.267l-11.43,-16.334c-0.507,0.355 -0.821,0.653 -0.843,0.674c6.387,-6.143 93.183,-109.351 149.969,-177.23l7.086,-8.47l126.71,130.204l-14.288,13.904l-111.307,-114.378c-12.472,14.895 -39.598,47.263 -66.766,79.535c-75.241,89.373 -77.307,90.819 -79.131,92.095Z" style="fill:#7d97f4;fill-rule:nonzero;"/><path d="M1224.94,592.697l-40.447,-137.465l-49.801,-125.417l-227.855,11.062l-1.057,-19.911l242.892,-11.793l55.631,140.214l40.573,137.892l-19.936,5.418Z" style="fill:#7d97f4;fill-rule:nonzero;"/><path d="M597.2,429.673l-15.891,-1.354l9.236,-108.483l199.166,42.959l-3.362,15.59l-181.45,-39.136l-7.699,90.424Z" style="fill:#7d97f4;fill-rule:nonzero;"/><path d="M1440.47,434.047l-9.845,-12.548l83.556,-65.562l-114.267,-83.756l9.429,-12.864l131.225,96.187l-100.098,78.543Z" style="fill:#7d97f4;fill-rule:nonzero;"/><path d="M1652.98,1062.98l-4.11,-15.41l70.028,-18.677l-10.154,-69.211l-90.056,37.716l-6.162,-14.711l109.014,-45.655l15.202,103.609l-83.762,22.339Z" style="fill:#7d97f4;fill-rule:nonzero;"/><path d="M1628.64,583.342l-19.231,5.247l128.238,470.029l19.231,-5.247l-128.238,-470.029Z" style="fill:#7d97f4;"/><path d="M1423.03,1023.09l-244.351,259.941l14.526,13.654l244.35,-259.941l-14.525,-13.654Z" style="fill:#7d97f4;"/><path d="M784.017,1231.66l-292.338,-119.234l7.529,-18.46l277.882,113.338l80.333,-110.323l-71.494,16.424l-121.044,-57.591l8.565,-18.001l114.778,54.609l116.698,-26.809l-120.909,166.047Z" style="fill:#7d97f4;fill-rule:nonzero;"/><path d="M1224.06,1261.73l-215.488,-203.818l-0.373,-0.479l-113.343,-145.631l12.586,-9.795l112.97,145.151l214.608,202.985l-10.96,11.587Z" style="fill:#7d97f4;fill-rule:nonzero;"/></g></g><g><clipPath id="_clip8"><path d="M1267.41,261.149l-473.424,-46.196l-474.198,43.533l-8.736,1012.96l474.004,-20.987l473.548,31.884l473.563,-38.351l8.643,-1002.31l-473.4,19.465Z"/></clipPath><g clip-path="url(#_clip8)"><path d="M850.758,580.945l-69.002,-77.652c-155.652,-56.384 -332.983,-114.815 -470.866,-122.542l1.004,-17.915c140.837,7.894 320.723,67.297 478.114,124.364l2.138,0.775l72.023,81.052l-13.411,11.918Z" style="fill:#91b3fa;fill-rule:nonzero;"/><path d="M1721.68,1202.36c-151.28,-94.675 -322.417,-198.926 -441.592,-239.697l-389.739,140.052l-6.068,-16.886l395.621,-142.165l2.956,0.992c121.143,40.669 294.944,146.494 448.342,242.495l-9.52,15.209Z" style="fill:#91b3fa;fill-rule:nonzero;"/><path d="M868.873,214.784l-16.693,6.575l116.717,296.298l16.693,-6.575l-116.717,-296.298Z" style="fill:#91b3fa;"/><path d="M1508.72,604.019c-29.821,-119.952 -88.548,-202.891 -179.537,-253.56l8.729,-15.676c50.203,27.956 91.704,65.855 123.35,112.644c28.745,42.499 49.964,92.305 64.87,152.262l-17.412,4.33Z" style="fill:#91b3fa;fill-rule:nonzero;"/><path d="M573.122,1087.94l-14.89,-10.166l178.595,-269.813l14.889,10.166l-178.594,269.813Z" style="fill:#91b3fa;fill-rule:nonzero;"/><path d="M1558.13,614.639l-517.618,-25.107l0.87,-17.922l513.713,24.917l189.18,-75.655l6.663,16.659l-192.808,77.108Z" style="fill:#91b3fa;fill-rule:nonzero;"/><path d="M315.74,1189.23l-6.313,-16.796l471.98,-177.398l92.341,9.98l-1.928,17.838l-88.096,-9.52l-467.984,175.896Z" style="fill:#91b3fa;fill-rule:nonzero;"/><path d="M925.11,830.219c-201.952,-3.88 -391.148,-15.775 -486.82,-117.344l13.061,-12.303c90.894,96.497 276.127,107.903 474.103,111.708l-0.344,17.939Z" style="fill:#91b3fa;fill-rule:nonzero;"/><path d="M903.726,1254.62l-40.049,-251.858l0.661,-2.045l124.947,-386.633l55.301,-91.803l216.701,-114.714l145.247,-157.097l13.176,12.181l-147.325,159.343l-215.001,113.814l-51.662,85.761l-123.65,382.621l39.374,247.612l-17.72,2.818Z" style="fill:#91b3fa;fill-rule:nonzero;"/><path d="M1742.13,1242.58l-248.096,-458.229l-464.446,-174.704l-82.759,-20.494l-300.781,-25.348l-334.439,240.67l-10.481,-14.564l339.82,-244.541l3.303,0.278l305.507,25.746l85.162,21.089l0.492,0.185l471.211,177.248l1.594,2.946l249.691,461.174l-15.778,8.544Z" style="fill:#91b3fa;fill-rule:nonzero;"/></g></g><g><clipPath id="_clip9"><path d="M1267.41,261.149l-473.424,-46.196l-474.198,43.533l-8.736,1012.96l474.004,-20.987l473.548,31.884l473.563,-38.351l8.643,-1002.31l-473.4,19.465Z"/></clipPath><g clip-path="url(#_clip9)"><path d="M431.588,1140.73c-1.811,-0 -3.511,-1.12 -4.161,-2.922c-0.831,-2.297 0.36,-4.834 2.658,-5.665l18.495,-6.68c2.298,-0.828 4.834,0.36 5.664,2.659c0.83,2.297 -0.36,4.834 -2.659,5.664l-18.495,6.681c-0.495,0.179 -1.003,0.263 -1.502,0.263Zm36.99,-13.36c-1.812,-0 -3.511,-1.121 -4.162,-2.923c-0.83,-2.298 0.36,-4.834 2.658,-5.665l18.495,-6.68c2.302,-0.828 4.835,0.36 5.664,2.659c0.83,2.298 -0.36,4.834 -2.658,5.665l-18.495,6.68c-0.496,0.179 -1.003,0.264 -1.502,0.264Zm36.99,-13.361c-1.812,-0 -3.511,-1.121 -4.162,-2.923c-0.83,-2.298 0.36,-4.834 2.658,-5.664l18.495,-6.681c2.296,-0.829 4.834,0.359 5.664,2.659c0.83,2.297 -0.36,4.834 -2.658,5.664l-18.494,6.681c-0.496,0.179 -1.004,0.264 -1.503,0.264Zm289.322,-5.998c-2.126,-0 -4.001,-1.536 -4.36,-3.702c-0.4,-2.41 1.231,-4.689 3.641,-5.088l19.399,-3.218c2.412,-0.403 4.69,1.23 5.089,3.641c0.4,2.411 -1.23,4.689 -3.641,5.088l-19.399,3.218c-0.245,0.042 -0.489,0.061 -0.729,0.061Zm-18.736,-0.78c-0.707,-0 -1.423,-0.17 -2.089,-0.527l-17.326,-9.3c-2.153,-1.155 -2.961,-3.837 -1.806,-5.991c1.156,-2.153 3.839,-2.963 5.991,-1.806l17.326,9.3c2.153,1.156 2.962,3.837 1.806,5.991c-0.799,1.488 -2.325,2.333 -3.902,2.333Zm57.535,-5.654c-2.126,-0 -4.001,-1.536 -4.36,-3.702c-0.399,-2.411 1.231,-4.689 3.641,-5.088l19.4,-3.218c2.414,-0.393 4.689,1.232 5.089,3.642c0.399,2.411 -1.231,4.689 -3.641,5.088l-19.4,3.218c-0.245,0.04 -0.489,0.06 -0.729,0.06Zm-291.131,-0.929c-1.812,-0 -3.511,-1.121 -4.162,-2.923c-0.83,-2.298 0.36,-4.834 2.658,-5.665l18.495,-6.682c2.299,-0.829 4.835,0.359 5.664,2.659c0.831,2.297 -0.36,4.834 -2.658,5.665l-18.495,6.681c-0.495,0.18 -1.003,0.265 -1.502,0.265Zm329.93,-5.506c-2.125,-0 -4,-1.536 -4.359,-3.702c-0.399,-2.411 1.231,-4.689 3.641,-5.088l19.4,-3.217c2.407,-0.404 4.689,1.229 5.089,3.641c0.399,2.411 -1.231,4.689 -3.641,5.088l-19.4,3.217c-0.246,0.042 -0.49,0.061 -0.73,0.061Zm-130.986,-6.512c-0.707,-0 -1.423,-0.169 -2.089,-0.527l-17.326,-9.3c-2.153,-1.156 -2.961,-3.837 -1.806,-5.991c1.156,-2.153 3.84,-2.959 5.991,-1.805l17.326,9.3c2.153,1.155 2.961,3.837 1.805,5.991c-0.798,1.487 -2.324,2.332 -3.901,2.332Zm-161.954,-1.344c-1.812,-0 -3.511,-1.121 -4.162,-2.923c-0.83,-2.297 0.36,-4.834 2.658,-5.664l18.495,-6.681c2.296,-0.83 4.834,0.36 5.664,2.659c0.83,2.297 -0.36,4.834 -2.659,5.664l-18.494,6.681c-0.496,0.179 -1.003,0.264 -1.502,0.264Zm331.192,-0.944c-1.901,-0 -3.658,-1.234 -4.235,-3.149c-0.705,-2.34 0.62,-4.808 2.96,-5.513l18.828,-5.674c2.339,-0.7 4.808,0.622 5.513,2.96c0.705,2.34 -0.62,4.808 -2.96,5.513l-18.828,5.674c-0.425,0.129 -0.855,0.189 -1.278,0.189Zm37.656,-11.347c-1.901,-0 -3.658,-1.235 -4.235,-3.15c-0.705,-2.34 0.62,-4.808 2.96,-5.512l18.828,-5.675c2.339,-0.701 4.808,0.621 5.513,2.96c0.705,2.339 -0.62,4.808 -2.96,5.513l-18.828,5.674c-0.425,0.128 -0.855,0.19 -1.278,0.19Zm-331.859,-1.071c-1.812,-0 -3.511,-1.12 -4.162,-2.922c-0.83,-2.297 0.36,-4.834 2.658,-5.665l18.495,-6.68c2.295,-0.831 4.834,0.36 5.665,2.659c0.83,2.297 -0.36,4.834 -2.659,5.665l-18.495,6.68c-0.495,0.179 -1.003,0.263 -1.502,0.263Zm90.312,-3.895c-0.706,-0 -1.423,-0.17 -2.089,-0.527l-17.326,-9.301c-2.153,-1.156 -2.961,-3.837 -1.806,-5.991c1.156,-2.153 3.837,-2.96 5.991,-1.805l17.326,9.301c2.153,1.156 2.961,3.837 1.805,5.991c-0.797,1.487 -2.323,2.332 -3.901,2.332Zm279.203,-6.383c-1.901,-0 -3.658,-1.235 -4.235,-3.15c-0.705,-2.34 0.62,-4.808 2.96,-5.513l18.828,-5.673c2.339,-0.709 4.808,0.62 5.513,2.959c0.705,2.34 -0.62,4.808 -2.96,5.513l-18.828,5.674c-0.426,0.129 -0.855,0.19 -1.278,0.19Zm-332.524,-3.081c-1.812,-0 -3.511,-1.121 -4.162,-2.923c-0.83,-2.297 0.36,-4.834 2.658,-5.664l18.495,-6.681c2.301,-0.83 4.835,0.361 5.664,2.659c0.83,2.297 -0.36,4.834 -2.658,5.665l-18.494,6.68c-0.497,0.178 -1.005,0.264 -1.503,0.264Zm370.122,-8.447c-1.8,-0 -3.493,-1.108 -4.152,-2.896c-0.845,-2.292 0.328,-4.836 2.621,-5.682l18.45,-6.804c2.289,-0.847 4.836,0.327 5.682,2.621c0.846,2.292 -0.328,4.836 -2.621,5.682l-18.45,6.804c-0.504,0.186 -1.022,0.275 -1.53,0.275Zm36.9,-13.607c-1.8,-0 -3.493,-1.108 -4.152,-2.896c-0.845,-2.292 0.328,-4.837 2.621,-5.682l18.45,-6.803c2.296,-0.848 4.837,0.328 5.682,2.621c0.845,2.292 -0.328,4.837 -2.621,5.682l-18.45,6.803c-0.505,0.186 -1.022,0.275 -1.53,0.275Zm36.9,-13.606c-1.8,-0 -3.493,-1.108 -4.152,-2.896c-0.846,-2.292 0.328,-4.837 2.621,-5.682l18.449,-6.804c2.293,-0.844 4.838,0.327 5.683,2.621c0.845,2.292 -0.328,4.837 -2.62,5.682l-18.45,6.804c-0.506,0.186 -1.022,0.275 -1.531,0.275Zm336.902,-1.108c-0.585,-0 -1.175,-0.115 -1.735,-0.354l-7.749,-3.305c-2.248,-0.959 -3.292,-3.558 -2.333,-5.805c0.959,-2.247 3.556,-3.29 5.806,-2.335l5.054,2.156l5.986,-5.766c1.76,-1.694 4.561,-1.642 6.256,0.117c1.695,1.76 1.642,4.561 -0.118,6.256l-8.096,7.797c-0.842,0.812 -1.948,1.239 -3.071,1.239Zm-25.837,-11.019c-0.579,-0 -1.168,-0.114 -1.734,-0.355l-18.087,-7.716c-2.248,-0.959 -3.292,-3.558 -2.333,-5.807c0.959,-2.247 3.56,-3.289 5.806,-2.333l18.087,7.716c2.248,0.959 3.292,3.558 2.333,5.807c-0.718,1.68 -2.353,2.688 -4.072,2.688Zm-274.164,-1.481c-1.801,-0 -3.493,-1.106 -4.152,-2.895c-0.845,-2.292 0.328,-4.837 2.621,-5.682l18.45,-6.803c2.295,-0.848 4.837,0.328 5.682,2.621c0.845,2.292 -0.328,4.837 -2.621,5.682l-18.45,6.803c-0.505,0.186 -1.022,0.274 -1.53,0.274Zm322.262,-8.939c-1.16,-0 -2.319,-0.453 -3.187,-1.355c-1.695,-1.76 -1.642,-4.561 0.118,-6.256l14.163,-13.641c1.759,-1.694 4.56,-1.643 6.256,0.117c1.695,1.76 1.642,4.561 -0.118,6.256l-14.163,13.641c-0.859,0.827 -1.965,1.238 -3.069,1.238Zm-285.362,-4.667c-1.8,-0 -3.493,-1.106 -4.152,-2.894c-0.845,-2.292 0.328,-4.836 2.621,-5.682l18.45,-6.804c2.292,-0.847 4.837,0.327 5.682,2.621c0.845,2.292 -0.328,4.836 -2.621,5.682l-18.45,6.804c-0.505,0.185 -1.022,0.273 -1.53,0.273Zm201.089,-0.345c-0.579,-0 -1.168,-0.114 -1.734,-0.355l-18.088,-7.715c-2.248,-0.959 -3.292,-3.559 -2.333,-5.806c0.958,-2.248 3.557,-3.289 5.806,-2.335l18.088,7.715c2.248,0.959 3.292,3.558 2.333,5.806c-0.718,1.682 -2.353,2.69 -4.072,2.69Zm-164.189,-13.261c-1.8,-0 -3.492,-1.108 -4.152,-2.896c-0.845,-2.292 0.328,-4.837 2.621,-5.682l18.45,-6.803c2.294,-0.846 4.836,0.327 5.682,2.621c0.845,2.292 -0.328,4.837 -2.621,5.682l-18.45,6.803c-0.505,0.187 -1.022,0.275 -1.53,0.275Zm128.013,-2.17c-0.579,-0 -1.167,-0.114 -1.734,-0.355l-18.088,-7.715c-2.248,-0.959 -3.292,-3.558 -2.333,-5.806c0.958,-2.248 3.556,-3.29 5.806,-2.335l18.088,7.715c2.248,0.959 3.292,3.559 2.334,5.806c-0.718,1.682 -2.353,2.69 -4.073,2.69Zm148.776,-6.839c-1.16,-0 -2.319,-0.453 -3.187,-1.355c-1.695,-1.76 -1.642,-4.561 0.117,-6.256l14.163,-13.642c1.76,-1.694 4.561,-1.643 6.256,0.117c1.695,1.76 1.642,4.561 -0.117,6.256l-14.163,13.642c-0.858,0.827 -1.964,1.238 -3.069,1.238Zm-239.889,-4.597c-1.8,-0 -3.493,-1.108 -4.152,-2.896c-0.845,-2.292 0.328,-4.836 2.62,-5.682l18.451,-6.804c2.29,-0.844 4.837,0.328 5.682,2.621c0.846,2.292 -0.328,4.836 -2.621,5.682l-18.45,6.804c-0.504,0.187 -1.021,0.275 -1.53,0.275Zm54.938,-3.995c-0.579,-0 -1.168,-0.114 -1.734,-0.355l-18.088,-7.715c-2.248,-0.959 -3.292,-3.558 -2.334,-5.806c0.959,-2.248 3.557,-3.288 5.806,-2.334l18.088,7.715c2.247,0.959 3.292,3.558 2.333,5.806c-0.716,1.681 -2.351,2.689 -4.071,2.689Zm213.278,-18.691c-1.16,-0 -2.319,-0.453 -3.187,-1.354c-1.695,-1.76 -1.642,-4.561 0.117,-6.256l14.163,-13.642c1.76,-1.695 4.561,-1.643 6.256,0.117c1.695,1.76 1.642,4.561 -0.117,6.256l-14.163,13.642c-0.858,0.826 -1.964,1.237 -3.069,1.237Zm28.327,-27.283c-1.161,-0 -2.319,-0.453 -3.187,-1.355c-1.695,-1.76 -1.642,-4.561 0.118,-6.256l14.164,-13.641c1.76,-1.694 4.562,-1.642 6.256,0.117c1.695,1.76 1.642,4.561 -0.117,6.256l-14.164,13.641c-0.86,0.828 -1.966,1.238 -3.07,1.238Zm10.898,-30.462c-1.656,-0 -3.244,-0.933 -4.001,-2.528l-8.431,-17.766c-1.048,-2.208 -0.108,-4.846 2.1,-5.894c2.208,-1.051 4.847,-0.108 5.894,2.1l8.431,17.766c1.048,2.208 0.108,4.846 -2.1,5.894c-0.611,0.291 -1.257,0.428 -1.893,0.428Zm-16.863,-35.53c-1.656,-0 -3.243,-0.933 -4,-2.528l-8.432,-17.766c-1.048,-2.208 -0.108,-4.846 2.1,-5.894c2.208,-1.05 4.846,-0.108 5.894,2.1l8.432,17.766c1.048,2.208 0.108,4.846 -2.1,5.894c-0.613,0.291 -1.259,0.428 -1.894,0.428Zm-16.864,-35.53c-1.656,-0 -3.244,-0.933 -4.001,-2.528l-8.431,-17.766c-1.048,-2.208 -0.108,-4.846 2.1,-5.894c2.208,-1.05 4.847,-0.108 5.894,2.1l8.431,17.766c1.048,2.208 0.107,4.846 -2.1,5.894c-0.611,0.291 -1.257,0.428 -1.893,0.428Zm-17.482,-34.87c-0.533,-0 -1.075,-0.097 -1.602,-0.302l-18.328,-7.126c-2.277,-0.885 -3.406,-3.449 -2.52,-5.727c0.885,-2.277 3.447,-3.408 5.727,-2.52l18.328,7.126c2.277,0.885 3.406,3.449 2.52,5.727c-0.681,1.75 -2.353,2.822 -4.125,2.822Zm-36.655,-14.253c-0.533,-0 -1.076,-0.097 -1.603,-0.302l-18.328,-7.127c-2.277,-0.885 -3.406,-3.449 -2.52,-5.727c0.886,-2.278 3.449,-3.406 5.727,-2.52l18.328,7.127c2.277,0.885 3.406,3.449 2.52,5.727c-0.68,1.751 -2.352,2.822 -4.124,2.822Zm-36.656,-14.252c-0.533,-0 -1.075,-0.098 -1.602,-0.303l-18.328,-7.126c-2.278,-0.885 -3.406,-3.449 -2.52,-5.727c0.885,-2.277 3.45,-3.404 5.727,-2.52l18.327,7.126c2.277,0.885 3.406,3.449 2.52,5.727c-0.679,1.75 -2.352,2.823 -4.124,2.823Zm-36.655,-14.255c-0.533,-0 -1.075,-0.097 -1.602,-0.302l-18.328,-7.126c-2.278,-0.885 -3.406,-3.449 -2.52,-5.727c0.885,-2.277 3.453,-3.403 5.727,-2.52l18.328,7.126c2.277,0.885 3.406,3.449 2.52,5.727c-0.681,1.751 -2.353,2.822 -4.125,2.822Zm-36.655,-14.251c-0.533,-0 -1.076,-0.098 -1.603,-0.303l-18.327,-7.127c-2.278,-0.885 -3.406,-3.449 -2.52,-5.727c0.886,-2.277 3.448,-3.404 5.727,-2.52l18.328,7.127c2.277,0.885 3.406,3.449 2.52,5.727c-0.681,1.75 -2.354,2.823 -4.125,2.823Zm-36.656,-14.253c-0.533,-0 -1.076,-0.098 -1.602,-0.303l-18.328,-7.126c-2.278,-0.885 -3.406,-3.449 -2.52,-5.727c0.885,-2.277 3.45,-3.407 5.727,-2.52l18.328,7.126c2.278,0.885 3.406,3.449 2.52,5.727c-0.68,1.75 -2.353,2.823 -4.125,2.823Zm-36.655,-14.254c-0.533,-0 -1.075,-0.098 -1.602,-0.303l-18.328,-7.126c-2.278,-0.885 -3.406,-3.449 -2.52,-5.727c0.885,-2.277 3.451,-3.404 5.727,-2.52l18.328,7.126c2.277,0.885 3.406,3.449 2.52,5.727c-0.681,1.751 -2.354,2.823 -4.125,2.823Zm-36.655,-14.253c-0.534,-0 -1.076,-0.097 -1.603,-0.302l-18.328,-7.127c-2.278,-0.885 -3.406,-3.449 -2.52,-5.727c0.885,-2.277 3.448,-3.406 5.727,-2.52l18.328,7.127c2.277,0.885 3.406,3.449 2.52,5.727c-0.68,1.75 -2.353,2.822 -4.124,2.822Zm-36.655,-14.252c-0.533,-0 -1.075,-0.098 -1.602,-0.303l-18.328,-7.126c-2.277,-0.885 -3.406,-3.449 -2.52,-5.727c0.885,-2.276 3.451,-3.405 5.727,-2.52l18.328,7.126c2.277,0.885 3.406,3.449 2.52,5.727c-0.681,1.75 -2.354,2.823 -4.125,2.823Zm-36.656,-14.254c-0.533,-0 -1.076,-0.098 -1.603,-0.303l-18.327,-7.126c-2.277,-0.885 -3.406,-3.449 -2.52,-5.727c0.885,-2.277 3.449,-3.407 5.727,-2.52l18.328,7.126c2.278,0.885 3.406,3.449 2.52,5.727c-0.681,1.751 -2.353,2.823 -4.125,2.823Zm-36.655,-14.253c-0.533,-0 -1.076,-0.097 -1.603,-0.302l-18.328,-7.127c-2.277,-0.885 -3.406,-3.449 -2.52,-5.727c0.885,-2.277 3.449,-3.405 5.727,-2.52l18.328,7.127c2.277,0.885 3.406,3.449 2.52,5.727c-0.68,1.75 -2.353,2.822 -4.124,2.822Zm-36.656,-14.254c-0.533,-0 -1.075,-0.097 -1.602,-0.302l-18.328,-7.126c-2.277,-0.885 -3.406,-3.449 -2.52,-5.727c0.885,-2.277 3.449,-3.408 5.727,-2.52l18.328,7.126c2.278,0.885 3.406,3.449 2.52,5.727c-0.68,1.751 -2.353,2.822 -4.125,2.822Zm-36.655,-14.252c-0.533,-0 -1.075,-0.098 -1.602,-0.303l-18.328,-7.126c-2.277,-0.885 -3.406,-3.449 -2.52,-5.727c0.885,-2.276 3.448,-3.405 5.727,-2.52l18.328,7.126c2.277,0.885 3.406,3.449 2.521,5.727c-0.681,1.751 -2.354,2.823 -4.126,2.823Zm-36.655,-14.253c-0.533,-0 -1.075,-0.098 -1.602,-0.303l-11.967,-4.653c-2.094,-0.814 -3.245,-3.068 -2.678,-5.242l1.724,-6.603c0.618,-2.365 3.037,-3.777 5.399,-3.163c2.364,0.618 3.78,3.034 3.163,5.399l-0.729,2.789l8.294,3.225c2.277,0.885 3.406,3.449 2.52,5.727c-0.68,1.751 -2.353,2.824 -4.124,2.824Zm-5.272,-30.284c-0.37,-0 -0.746,-0.046 -1.121,-0.144c-2.364,-0.618 -3.78,-3.034 -3.163,-5.399l4.968,-19.027c0.618,-2.364 3.035,-3.778 5.399,-3.163c2.364,0.618 3.781,3.034 3.164,5.399l-4.968,19.028c-0.52,1.989 -2.314,3.306 -4.279,3.306Zm20.051,-30.019c-1.591,-0 -3.129,-0.86 -3.92,-2.367c-1.136,-2.163 -0.304,-4.838 1.859,-5.974l17.408,-9.146c2.164,-1.136 4.837,-0.305 5.974,1.859c1.137,2.163 0.304,4.838 -1.859,5.974l-17.408,9.146c-0.656,0.345 -1.36,0.508 -2.054,0.508Zm34.818,-18.29c-1.591,-0 -3.129,-0.861 -3.92,-2.368c-1.136,-2.164 -0.304,-4.838 1.859,-5.974l17.408,-9.145c2.163,-1.136 4.838,-0.305 5.975,1.859c1.136,2.164 0.304,4.838 -1.859,5.974l-17.408,9.145c-0.658,0.345 -1.362,0.509 -2.055,0.509Zm34.817,-18.29c-1.591,-0 -3.129,-0.861 -3.92,-2.367c-1.136,-2.164 -0.304,-4.838 1.859,-5.974l17.409,-9.145c2.163,-1.135 4.839,-0.305 5.975,1.859c1.136,2.164 0.304,4.838 -1.859,5.974l-17.409,9.145c-0.658,0.345 -1.361,0.508 -2.055,0.508Zm34.817,-18.289c-1.591,-0 -3.129,-0.861 -3.921,-2.367c-1.136,-2.163 -0.304,-4.838 1.859,-5.974l17.409,-9.146c2.163,-1.136 4.838,-0.305 5.974,1.859c1.137,2.164 0.304,4.838 -1.859,5.974l-17.409,9.146c-0.656,0.344 -1.359,0.508 -2.053,0.508Zm34.818,-18.291c-1.591,-0 -3.129,-0.86 -3.921,-2.367c-1.136,-2.164 -0.304,-4.838 1.859,-5.974l17.408,-9.145c2.164,-1.136 4.839,-0.305 5.975,1.859c1.136,2.164 0.304,4.838 -1.859,5.974l-17.408,9.145c-0.657,0.345 -1.36,0.508 -2.054,0.508Zm34.817,-18.289c-1.591,-0 -3.129,-0.861 -3.92,-2.367c-1.136,-2.164 -0.304,-4.838 1.859,-5.974l17.408,-9.145c2.163,-1.136 4.839,-0.305 5.974,1.859c1.137,2.164 0.304,4.838 -1.859,5.974l-17.408,9.145c-0.657,0.344 -1.36,0.508 -2.054,0.508Zm34.817,-18.289c-1.591,-0 -3.129,-0.861 -3.92,-2.368c-1.137,-2.163 -0.304,-4.838 1.859,-5.974l17.409,-9.146c2.163,-1.135 4.838,-0.306 5.974,1.859c1.137,2.164 0.304,4.838 -1.859,5.974l-17.409,9.146c-0.656,0.345 -1.36,0.509 -2.054,0.509Zm34.167,-19.432c-1.482,-0 -2.93,-0.744 -3.767,-2.098c-1.286,-2.077 -0.643,-4.804 1.435,-6.09l2.258,-1.397c2.078,-1.285 4.806,-0.643 6.091,1.435c1.286,2.077 0.643,4.805 -1.435,6.09l-2.258,1.397c-0.725,0.449 -1.53,0.663 -2.324,0.663Z" style="fill:#fff;fill-rule:nonzero;"/><circle cx="1279.7" cy="407.996" r="18.236" style="fill:url(#_Linear10);"/><circle cx="428.367" cy="1140.35" r="22.781" style="fill:url(#_Linear11);"/></g></g><clipPath id="_clip12"><path d="M1267.41,261.149l-473.424,-46.196l-474.198,43.533l-8.736,1012.96l474.004,-20.987l473.548,31.884l473.563,-38.351l8.643,-1002.31l-473.4,19.465Z"/></clipPath><g clip-path="url(#_clip12)"><path d="M786.349,378.385l120.488,-37.508l-1.057,-19.911l-123.034,40.327l3.603,17.092Z" style="fill:#7d97f4;fill-rule:nonzero;"/></g></g><circle cx="998.023" cy="557.641" r="60.184" style="fill:url(#_Linear13);"/><path d="M960.523,536.44c11.727,-20.711 38.062,-28.006 58.774,-16.279c20.711,11.727 28.006,38.062 16.279,58.774c-11.727,20.711 -38.062,28.006 -58.774,16.279c-20.711,-11.727 -28.006,-38.062 -16.279,-58.774Z" style="fill:#bdd0fb;"/></g><g><g><path d="M1971.78,1322.37c-0.188,18.568 -16.14,33.623 -35.635,33.665l-471.269,1.027c-19.636,0.043 -35.936,-15.001 -36.402,-33.642l-21.96,-877.772c-0.522,-20.871 15.959,-37.748 36.807,-37.649l500.247,2.391c20.689,0.099 37.286,17.063 37.075,37.843l-8.863,874.137Z" style="fill:url(#_Linear14);fill-rule:nonzero;"/><path d="M1929.3,498.891c0.141,-20.055 -16.314,-36.422 -36.757,-36.512l-397.042,-1.746c-20.57,-0.09 -36.891,16.189 -36.451,36.316l16.322,746.315c0.4,18.28 16.567,33.042 36.106,33.011l377.206,-0.599c19.425,-0.031 35.272,-14.795 35.4,-33.016l5.216,-743.769Z" style="fill:url(#_Linear15);fill-rule:nonzero;"/><path d="M1753.85,433.979c0.01,3.891 -3.119,7.03 -6.99,7.012l-103.33,-0.468c-3.879,-0.018 -7.062,-3.188 -7.109,-7.084c-0.047,-3.898 3.063,-7.046 6.947,-7.028l103.447,0.483c3.875,0.018 7.025,3.191 7.035,7.085Z" style="fill:url(#_Linear16);fill-rule:nonzero;"/></g><g><path d="M1844.46,1028.26l59.522,-59.095l-2.207,124.675l-57.187,-65.439l-0.128,-0.141Z" style="fill:url(#_Linear17);fill-rule:nonzero;"/><path d="M1815.72,1056.81l84.127,96.326l0.852,0.987l-2.425,76.328c-0.193,7.323 -4.113,14.367 -10.317,19.576c-5.47,4.579 -12.571,7.389 -20.001,7.989l-118.871,-135.027l66.635,-66.179Z" style="fill:url(#_Linear18);fill-rule:nonzero;"/><path d="M1886.26,930.638l-67.945,67.732l-28.662,28.579l-66.642,66.432l-109.563,-124.434l0.016,-0.016l66.385,-67.29l-0.194,-0.003l-0.36,-0.189l-0,-0.016l28.931,-28.976l0.271,0.032l0.07,0.024l0.049,-0.024l0.045,-0.032l67.979,-68.843l135.475,-137.004l-5.113,224.744l-20.742,39.284Z" style="fill:url(#_Linear19);fill-rule:nonzero;"/><path d="M1815.53,1258.17l-202.75,0.15l108.065,-107.308l94.685,107.158Z" style="fill:url(#_Linear20);fill-rule:nonzero;"/><path d="M1694.79,1121.52l-137.274,136.848l-12.543,0.009c-8.355,0.006 -16.456,-2.815 -22.536,-7.875c-6.1,-5.063 -9.683,-11.943 -9.942,-19.137l-5.71,-154.302l78.462,-79.542l109.543,123.999Z" style="fill:url(#_Linear21);fill-rule:nonzero;"/><path d="M1558.77,967.497l-53.907,54.927l-4.38,-120.839l58.238,65.912l0.049,-0Z" style="fill:url(#_Linear22);fill-rule:nonzero;"/><path d="M1778.95,743.374l-108.946,-126.692l114.785,-118.757l94.744,-0.609c20.17,-0.13 35.929,15.835 35.437,35.798l-1.802,73.671l-134.218,136.589Z" style="fill:url(#_Linear23);fill-rule:nonzero;"/><path d="M1569.06,499.313l157.617,-1.014l-83.696,86.952l-73.921,-85.938Z" style="fill:url(#_Linear24);fill-rule:nonzero;"/><path d="M1641.06,646.642l108.927,126.205l-67.896,69.109l-28.574,29.087l-65.526,67.664l-87.789,-100.992l-0,-0.016l-2.895,-41.378l-0.237,-0.227l143.99,-149.452Z" style="fill:url(#_Linear25);fill-rule:nonzero;"/><path d="M1514.85,500.397l99.175,114.93l-119.745,124.374l-7.536,-203.217c-0.666,-17.654 11.433,-32.554 28.106,-36.087Z" style="fill:url(#_Linear26);fill-rule:nonzero;"/></g><g><path d="M1695.62,542.071c-0,3.055 -2.477,5.532 -5.532,5.532l-172.786,-0c-3.055,-0 -5.532,-2.477 -5.532,-5.532l-0,-0.031c-0,-3.055 2.477,-5.532 5.532,-5.532l172.786,-0c3.055,-0 5.532,2.477 5.532,5.532l-0,0.031Z" style="fill:#fff;fill-rule:nonzero;"/><path d="M1695.62,572.184c-0,3.055 -2.477,5.532 -5.532,5.532l-172.786,-0c-3.055,-0 -5.532,-2.477 -5.532,-5.532l-0,-0.031c-0,-3.055 2.477,-5.532 5.532,-5.532l172.786,-0c3.055,-0 5.532,2.477 5.532,5.532l-0,0.031Z" style="fill:#fff;fill-rule:nonzero;"/><path d="M1695.62,602.298c-0,3.055 -2.477,5.532 -5.532,5.532l-172.786,-0c-3.055,-0 -5.532,-2.477 -5.532,-5.532l-0,-0.031c-0,-3.055 2.477,-5.532 5.532,-5.532l172.786,-0c3.055,-0 5.532,2.477 5.532,5.532l-0,0.031Z" style="fill:#fff;fill-rule:nonzero;"/></g><g><g><g><path d="M1539.23,1150.98c-6.651,-0 -12.531,-3.482 -15.729,-9.315c-16.63,-30.332 -36.455,-70.275 -36.455,-88.312c-0,-28.774 23.41,-52.184 52.184,-52.184c28.774,-0 52.184,23.41 52.184,52.184c-0,18.039 -19.825,57.981 -36.455,88.312c-3.197,5.833 -9.077,9.315 -15.729,9.315Zm0.001,-141.449c-24.164,-0 -43.823,19.659 -43.823,43.823c-0,12.508 12.912,43.231 35.425,84.292c1.707,3.114 4.847,4.974 8.397,4.974c3.551,-0 6.69,-1.859 8.398,-4.974c22.513,-41.06 35.425,-71.783 35.425,-84.292c0.001,-24.165 -19.658,-43.823 -43.822,-43.823Z" style="fill:#fff;fill-rule:nonzero;"/></g><g><path d="M1539.23,1086.15c-17.448,-0 -31.642,-14.194 -31.642,-31.642c-0,-17.447 14.194,-31.642 31.642,-31.642c17.447,-0 31.641,14.194 31.641,31.642c-0,17.448 -14.194,31.642 -31.641,31.642Zm-0,-54.922c-12.837,-0 -23.281,10.444 -23.281,23.281c-0,12.837 10.444,23.281 23.281,23.281c12.837,-0 23.28,-10.444 23.28,-23.281c-0,-12.838 -10.444,-23.281 -23.28,-23.281Z" style="fill:#fff;fill-rule:nonzero;"/></g></g><g><circle cx="1538.93" cy="1188.25" r="19.858" style="fill:#fff;"/></g></g><g><g><g><path d="M1814.75,595.646c-6.246,-0 -11.767,-3.27 -14.77,-8.747c-15.617,-28.484 -34.234,-65.993 -34.234,-82.931c-0,-27.021 21.983,-49.004 49.005,-49.004c27.021,-0 49.004,21.983 49.004,49.004c-0,16.94 -18.617,54.448 -34.234,82.931c-3.003,5.477 -8.524,8.747 -14.771,8.747Zm0.001,-132.831c-22.692,-0 -41.153,18.461 -41.153,41.153c-0,11.746 12.125,40.597 33.267,79.156c1.604,2.924 4.552,4.671 7.886,4.671c3.335,-0 6.283,-1.746 7.886,-4.671c21.141,-38.558 33.267,-67.409 33.267,-79.156c-0.001,-22.692 -18.462,-41.153 -41.153,-41.153Z" style="fill:#fff;fill-rule:nonzero;"/></g><g><path d="M1814.75,534.764c-16.384,-0 -29.714,-13.33 -29.714,-29.714c-0,-16.384 13.329,-29.714 29.714,-29.714c16.384,-0 29.713,13.33 29.713,29.714c-0,16.384 -13.329,29.714 -29.713,29.714Zm-0,-51.576c-12.055,-0 -21.862,9.807 -21.862,21.862c-0,12.055 9.807,21.862 21.862,21.862c12.055,-0 21.862,-9.807 21.862,-21.862c-0.001,-12.055 -9.808,-21.862 -21.862,-21.862Z" style="fill:#fff;fill-rule:nonzero;"/></g></g><g><path d="M1796.32,626.346c2.383,-10.012 12.447,-16.205 22.459,-13.822c10.012,2.384 16.206,12.448 13.822,22.46c-2.384,10.012 -12.447,16.206 -22.46,13.822c-10.012,-2.384 -16.205,-12.448 -13.821,-22.46Z" style="fill:#fff;"/></g></g></g><g><g><circle cx="441.448" cy="897.611" r="95.787" style="fill:url(#_Linear27);"/><path d="M537.061,889.821l-191.399,-0c-0,-0 -7.626,54.493 77.863,200.116c3.73,6.354 10.545,10.814 17.913,10.818c7.367,0.003 14.195,-4.725 17.924,-11.079c85.479,-145.636 77.699,-199.855 77.699,-199.855Z" style="fill:url(#_Linear28);fill-rule:nonzero;"/></g><g><path d="M443.177,1104.53l-0,0.41l-1.741,-0c-8.338,-0 -16.12,-4.523 -20.309,-11.659c-49.971,-85.122 -68.281,-138.911 -74.841,-169.028c-1.87,-6.928 -2.945,-13.703 -3.284,-20.666c-0.579,-7.123 -0.136,-10.115 -0.084,-10.433l0.252,-1.528c3.859,-51.454 46.683,-91.495 98.279,-91.495c52.274,-0 95.484,40.612 98.405,92.475c0.073,0.679 0.214,2.401 0.159,5.281l0.004,0.354c-0,9.408 -1.329,18.727 -3.951,27.698c-6.785,30.09 -24.323,83.381 -73.443,167.067c-4.215,7.182 -11.596,11.524 -19.446,11.524Zm-94.902,-208.425c-0.023,-0 0.021,3.829 0.273,6.917l0.006,0.161c0.318,6.596 1.338,13.033 3.118,19.608l0.033,0.153c6.461,29.708 24.582,82.878 74.218,167.428c3.195,5.443 10.005,8.83 16.38,8.833l0.874,2.785l-0,-2.781c3.14,-0 12.393,-3.41 15.615,-8.899c48.804,-83.15 67.605,-135.993 73.886,-165.681l-0,-0.172c3.14,-8.489 3.448,-17.31 3.448,-26.219l-0.307,-0.391l-0,-0.031c-0,-2.773 -0.771,-4.272 -0.816,-4.666l-0.355,-0.161c-2.719,-48.953 -43.677,-87.301 -93.027,-87.301c-49.255,-0 -90.124,38.547 -92.931,87.929l-0.235,2.487l-0.18,-0l-0,0.001Z" style="fill:url(#_Linear29);fill-rule:nonzero;"/></g></g><g><g><circle cx="1279.97" cy="159.404" r="104.768" style="fill:url(#_Linear30);"/><path d="M1384.55,150.884l-209.345,-0c-0,-0 -8.341,59.602 85.163,218.879c4.08,6.949 11.534,11.828 19.592,11.832c8.058,0.004 15.526,-5.168 19.605,-12.118c93.495,-159.29 84.985,-218.593 84.985,-218.593Z" style="fill:url(#_Linear31);fill-rule:nonzero;"/></g><g><path d="M1281.86,385.72l-0,0.449l-1.905,-0c-9.12,-0 -17.631,-4.947 -22.214,-12.752c-54.656,-93.102 -74.683,-151.935 -81.857,-184.876c-2.046,-7.577 -3.221,-14.988 -3.592,-22.604c-0.633,-7.791 -0.149,-11.064 -0.092,-11.411l0.276,-1.672c4.221,-56.278 51.059,-100.074 107.494,-100.074c57.175,-0 104.436,44.42 107.631,101.146c0.08,0.742 0.234,2.626 0.173,5.776l0.005,0.387c-0,10.29 -1.454,20.483 -4.321,30.295c-7.422,32.912 -26.603,91.199 -80.328,182.731c-4.61,7.856 -12.683,12.605 -21.27,12.605Zm-103.798,-227.966c-0.025,-0 0.023,4.188 0.298,7.566l0.007,0.176c0.348,7.215 1.463,14.255 3.41,21.446l0.036,0.167c7.067,32.493 26.886,90.648 81.176,183.126c3.495,5.954 10.943,9.658 17.916,9.661l0.956,3.046l-0,-3.042c3.435,-0 13.555,-3.729 17.079,-9.733c53.38,-90.946 73.943,-148.744 80.813,-181.215l-0,-0.188c3.435,-9.285 3.771,-18.933 3.771,-28.677l-0.336,-0.428l-0,-0.034c-0,-3.033 -0.843,-4.673 -0.892,-5.103l-0.389,-0.176c-2.974,-53.543 -47.773,-95.486 -101.749,-95.486c-53.873,-0 -98.573,42.16 -101.644,96.173l-0.257,2.72l-0.195,-0l-0,0.001Z" style="fill:url(#_Linear32);fill-rule:nonzero;"/></g></g><circle cx="648.371" cy="540.707" r="18.236" style="fill:url(#_Linear33);"/><g><g><circle cx="648.647" cy="292.115" r="104.768" style="fill:url(#_Linear34);"/><path d="M753.224,283.595l-209.345,-0c0,-0 -8.341,59.602 85.163,218.879c4.08,6.949 11.534,11.828 19.592,11.832c8.058,0.004 15.526,-5.168 19.605,-12.118c93.495,-159.29 84.985,-218.593 84.985,-218.593Z" style="fill:url(#_Linear35);fill-rule:nonzero;"/></g><g><path d="M650.537,518.431l0,0.449l-1.905,-0c-9.12,-0 -17.631,-4.947 -22.214,-12.752c-54.656,-93.102 -74.683,-151.935 -81.857,-184.876c-2.046,-7.577 -3.221,-14.988 -3.592,-22.604c-0.633,-7.791 -0.149,-11.064 -0.092,-11.411l0.276,-1.672c4.221,-56.278 51.059,-100.074 107.494,-100.074c57.175,-0 104.436,44.42 107.631,101.146c0.08,0.742 0.234,2.626 0.173,5.776l0.005,0.387c0,10.29 -1.454,20.483 -4.321,30.295c-7.422,32.912 -26.603,91.199 -80.328,182.731c-4.61,7.856 -12.683,12.605 -21.27,12.605Zm-103.798,-227.966c-0.025,-0 0.023,4.188 0.298,7.566l0.007,0.176c0.348,7.215 1.463,14.255 3.41,21.446l0.036,0.167c7.067,32.493 26.886,90.648 81.176,183.126c3.495,5.954 10.943,9.658 17.916,9.661l0.956,3.046l0,-3.042c3.435,-0 13.555,-3.729 17.079,-9.733c53.38,-90.946 73.943,-148.744 80.813,-181.215l0,-0.188c3.435,-9.285 3.771,-18.933 3.771,-28.677l-0.336,-0.428l0,-0.034c0,-3.033 -0.843,-4.673 -0.892,-5.103l-0.389,-0.176c-2.974,-53.543 -47.773,-95.486 -101.749,-95.486c-53.873,-0 -98.573,42.16 -101.644,96.173l-0.257,2.72l-0.195,-0l0,0.001Z" style="fill:url(#_Linear36);fill-rule:nonzero;"/></g></g><g><path d="M2024.09,865.647c-0,-0 20.74,6.914 34.176,36.544c3.674,8.101 23.621,9.539 25.679,26.158c1.063,8.58 7.412,15.452 15.958,16.761c21.285,3.262 54.086,14.315 59.334,51.27c4.006,28.207 -10.374,38.902 -25.465,42.604c-11.084,2.719 -18.45,13.5 -16.208,24.69c2.15,10.733 -1.056,23.14 -19.651,32.953c-41.668,21.987 -83.281,-52.089 -83.281,-52.089l-8.528,-129.341l17.986,-49.55Z" style="fill:url(#_Linear37);fill-rule:nonzero;"/><path d="M1890.19,861.633c-0,-0 51.906,82.101 113.629,97.959c-0,-0 -12.027,34.255 -21.31,38.175c-0,-0 -75.937,-63.36 -95.451,-124.468l3.132,-11.666Z" style="fill:url(#_Linear38);fill-rule:nonzero;"/><path d="M2138.5,1386.75l1.682,13.83c0.319,2.624 2.385,4.698 5.011,4.998c4.433,0.506 11.548,1.025 18.509,0.29c3.056,-0.323 5.039,-3.417 4.108,-6.345c-1.697,-5.339 -4.801,-13.353 -9.277,-18.069l-15.342,-0c-2.837,-0.001 -5.034,2.48 -4.691,5.296Z" style="fill:url(#_Linear39);fill-rule:nonzero;"/><path d="M2018.34,1224.75l-2.59,15.232c-0,-0 8.671,87.834 10.214,122.967c0.242,5.508 -1.183,10.952 -4.074,15.646l-15.078,24.485l38.321,-22.613l0.762,-4.676l-6.273,-8.625l8.217,-98.396c0.483,-5.78 -0.71,-11.577 -3.436,-16.697l-7.927,-14.891l-18.136,-12.432Z" style="fill:url(#_Linear40);fill-rule:nonzero;"/><path d="M2004.29,1406.63l12.229,-0c2.289,-0 4.448,-1.051 5.844,-2.865c3.812,-4.954 11.711,-14.618 15.488,-14.87c5.084,-0.34 4.434,17.735 4.434,17.735l2.85,-0l3.61,-22.46c0.908,-5.651 -1.902,-11.249 -6.977,-13.897c-0,-0 -1.162,8.595 -7.464,12.397c-6.302,3.802 -25.645,17.417 -25.645,17.417c-0,-0 -2.369,-0.338 -4.97,0.132c-3.859,0.697 -3.319,6.411 0.601,6.411Z" style="fill:url(#_Linear41);fill-rule:nonzero;"/><path d="M2070.83,1231.98c-0,-0 50.8,96.362 58.875,118.363c8.075,22.001 10.904,40.355 11.012,42.093c0.169,2.715 3.547,5.32 12.858,5.32c4.805,-0 7.159,-1.926 8.311,-3.791c0.983,-1.59 1.034,-3.581 0.206,-5.257c-2.938,-5.947 -12.264,-24.952 -15.718,-33.572c-4.123,-10.291 -12.993,-56.931 -17.858,-73.147c-4.865,-16.216 -10.363,-33.806 -31.547,-50.009c-0,-0 -14.542,-14.243 -26.139,-0Z" style="fill:url(#_Linear42);fill-rule:nonzero;"/><path d="M2038.74,1074.09c-13.104,-55.527 20.092,-86.932 20.092,-86.932c-20.946,-20.106 -59.11,-29.255 -59.11,-29.255c-0,-0 -36.417,26.624 -32.096,47.463c2.532,12.214 25.597,73.158 25.597,73.158c-0,-0 21.328,10.093 45.517,-4.434Z" style="fill:url(#_Linear43);fill-rule:nonzero;"/><path d="M2067.79,1101.58c-5.333,-16.066 -29.053,-27.49 -29.053,-27.49c-24.189,14.528 -45.517,4.434 -45.517,4.434c-0,-0 -4.783,18.283 -1.482,35.273c3.301,16.99 24.013,126.184 24.013,126.184c32.635,6.612 82.828,-6.653 82.828,-6.653c-20.787,-36.907 -25.456,-115.683 -30.789,-131.748Z" style="fill:url(#_Linear44);fill-rule:nonzero;"/><path d="M2023.53,921.207l10.654,47.855c1.02,4.215 -2.823,3.525 -7.084,2.722c-6.979,-1.316 -15.974,-4.026 -18.981,-9.456c-0.306,-0.553 -0.459,-1.178 -0.545,-1.804l-4.577,-33.184c-0.363,-2.632 1.06,-5.187 3.49,-6.265l8.832,-3.916c3.4,-1.509 7.336,0.431 8.211,4.048Z" style="fill:url(#_Linear45);fill-rule:nonzero;"/><g><path d="M2003.12,877.582c-0,-0 -11.342,7.678 -16.216,27.23c-4.874,19.552 3.047,26.566 11.166,26.136c8.119,-0.43 19.891,-2.94 30.09,-16.967c10.198,-14.028 -10.177,-45.781 -25.04,-36.399Z" style="fill:url(#_Linear46);fill-rule:nonzero;"/><path d="M2017.88,906.094c-0,-0 4.156,-28.017 -19.105,-23.731l-4.703,4.897c-0,-0 -11.385,-12.822 1.214,-22.515c12.6,-9.692 30.084,-7.21 39.758,10.435c9.674,17.646 13.184,30.045 5.076,41.009c-8.108,10.965 -14.207,1.561 -14.207,1.561c-0,-0 3.718,-9.49 0.633,-13.562c-3.086,-4.072 -7.066,2.368 -7.066,2.368l-1.6,-0.462Z" style="fill:url(#_Linear47);fill-rule:nonzero;"/></g><g><path d="M1890.55,878.535c-0.157,1.694 6.141,2.864 8.145,-4.356c-0.551,-3.134 -1.53,-16.861 -3.933,-18.993c-12.8,-11.358 -35.626,-24.135 -35.626,-24.135c-2.553,3.898 0.795,6.465 0.795,6.465l11.394,7.689c-1.189,3.937 -2.923,7.417 -3.12,11.912c-0.149,3.403 1.109,6.736 3.368,9.317c2.268,2.591 5.32,5.937 8.072,8.476c5.21,4.808 10.905,3.625 10.905,3.625Z" style="fill:url(#_Linear48);fill-rule:nonzero;"/><path d="M1884.43,872.909l1.598,-0.657c-0.231,-0.564 -5.695,-13.836 -8.329,-16.59c-1.019,-1.065 -1.512,-1.983 -1.467,-2.73c0.026,-0.424 0.239,-0.841 0.646,-1.264l9.292,4.967l4.083,6.393l1.457,-0.93l-4.326,-6.775l-10.736,-5.74l-0.445,0.365c-1.076,0.878 -1.631,1.819 -1.696,2.878c-0.078,1.264 0.558,2.583 1.943,4.031c2.001,2.091 6.438,12.296 7.98,16.052Z" style="fill:url(#_Linear49);fill-rule:nonzero;"/></g><path d="M2058.83,987.156c-0,-0 58.979,121.096 80.339,131.683c-0,-0 21.687,2.266 34.959,6.28c3.339,1.01 3.227,5.751 -0.138,6.669c-9.243,2.521 -24.556,4.627 -38.59,-2.991c-0,-0 7.539,11.3 3.141,15.702c-0,-0 -10.052,-11.932 -13.821,-15.702c-3.318,-3.319 -63.717,-69.167 -89.11,-108.879c-2.052,-3.209 -0.628,-12.744 0.797,-16.276c3.28,-8.127 10.558,-21.104 22.423,-16.486Z" style="fill:url(#_Linear50);fill-rule:nonzero;"/><path d="M2014.16,867.196c4.994,1.639 9.454,4.634 13.506,7.942c4.064,3.33 7.586,7.291 10.559,11.598c2.969,4.316 5.358,9.025 7.018,13.984c0.83,2.481 1.486,5.003 1.97,7.583c0.495,2.582 0.909,5.226 1.707,7.829c0.777,2.588 2.05,5.173 4.01,7.171c1.922,2.022 4.277,3.48 6.63,4.75c2.362,1.267 4.77,2.362 7.03,3.64c2.27,1.253 4.336,2.783 6.18,4.579c3.695,3.586 6.36,8.156 7.71,13.138c0.717,2.503 1.265,5.119 2.215,7.689c0.923,2.556 2.408,5.104 4.614,6.901c2.171,1.827 4.784,2.924 7.384,3.678c2.614,0.746 5.257,1.189 7.86,1.638c5.191,0.827 10.241,2.187 15.055,4.215c9.542,4.031 18.293,10.788 22.984,20.094c2.327,4.61 3.433,9.855 2.762,14.976c-0.695,5.081 -2.932,10.077 -6.75,13.55c-1.893,1.732 -4.14,3.095 -6.609,3.807c-2.475,0.7 -5.12,0.789 -7.67,0.36c-5.087,-0.797 -9.966,-4.051 -11.883,-8.961l-0.405,0.151c1.875,5.128 6.875,8.626 12.15,9.566c2.648,0.503 5.418,0.472 8.054,-0.213c2.64,-0.701 5.062,-2.1 7.101,-3.89c4.109,-3.621 6.504,-8.856 7.304,-14.193c0.774,-5.393 -0.337,-10.966 -2.714,-15.809c-2.367,-4.875 -5.858,-9.137 -9.96,-12.618c-4.099,-3.501 -8.772,-6.262 -13.7,-8.381c-4.931,-2.104 -10.165,-3.53 -15.416,-4.386c-2.606,-0.46 -5.188,-0.907 -7.662,-1.624c-2.461,-0.724 -4.824,-1.748 -6.71,-3.353c-1.906,-1.582 -3.214,-3.74 -4.094,-6.139c-0.899,-2.394 -1.455,-4.97 -2.202,-7.547c-1.437,-5.225 -4.301,-10.108 -8.225,-13.874c-1.951,-1.889 -4.183,-3.522 -6.55,-4.815c-2.353,-1.315 -4.772,-2.403 -7.076,-3.628c-2.294,-1.225 -4.5,-2.594 -6.24,-4.415c-1.781,-1.78 -2.953,-4.059 -3.727,-6.51c-0.786,-2.452 -1.231,-5.044 -1.761,-7.648c-0.523,-2.614 -1.232,-5.214 -2.112,-7.737c-1.764,-5.057 -4.262,-9.838 -7.347,-14.2c-3.127,-4.325 -6.797,-8.27 -10.991,-11.557c-4.184,-3.264 -8.745,-6.189 -13.871,-7.75l-0.128,0.409Z" style="fill:#91b3fa;fill-rule:nonzero;"/><path d="M2042.28,903.438c0.163,3.406 0.36,6.831 0.987,10.224c0.612,3.381 1.601,6.781 3.441,9.81c0.917,1.503 2.036,2.913 3.332,4.122c1.29,1.213 2.701,2.252 4.118,3.231c2.86,1.923 5.631,3.775 8.16,5.979c5.044,4.332 9.279,9.743 10.604,16.216c1.517,6.41 1.1,13.514 3.959,20.242c1.45,3.33 3.868,6.203 6.683,8.381c2.821,2.198 6.008,3.803 9.29,5.013c6.614,2.385 13.462,3.226 20.024,4.714c6.502,1.47 13.009,3.947 17.61,8.754c2.227,2.368 4.196,5.303 4.238,8.572c0.034,3.286 -1.488,6.449 -2.983,9.474l0.381,0.205c1.685,-2.927 3.463,-6.046 3.592,-9.674c0.055,-1.796 -0.418,-3.599 -1.198,-5.187c-0.776,-1.598 -1.794,-3.046 -2.95,-4.378c-4.773,-5.298 -11.572,-8.051 -18.2,-9.756c-6.665,-1.766 -13.475,-2.564 -19.694,-4.922c-6.151,-2.298 -11.959,-6.268 -14.475,-12.219c-2.641,-5.929 -2.367,-12.93 -3.996,-19.758c-0.799,-3.434 -2.28,-6.789 -4.339,-9.657c-2.023,-2.906 -4.531,-5.405 -7.235,-7.586c-5.258,-4.582 -12.178,-6.873 -15.69,-12.544c-1.842,-2.734 -2.957,-5.949 -3.706,-9.228c-0.747,-3.29 -1.136,-6.676 -1.522,-10.061l-0.431,0.033Z" style="fill:#91b3fa;fill-rule:nonzero;"/></g><g><g><rect x="579.478" y="1295.39" width="501.855" height="46.042" style="fill:url(#_Linear51);"/><rect x="568.428" y="1295.39" width="14.733" height="57.092" style="fill:url(#_Linear52);"/><path d="M1075.81,1031.93c-0,-10.971 -11.592,-20.159 -24.164,-20.159l-473.574,-0c-12.573,-0 -22.534,9.188 -22.534,20.159l-0,249.579c-0,10.971 9.962,20.325 22.534,20.325l473.573,-0c12.573,-0 24.164,-9.354 24.164,-20.325l-0,-249.579l0.001,-0Z" style="fill:url(#_Linear53);fill-rule:nonzero;"/><path d="M1059.23,1041.99c-0,-10.038 -8.651,-18.245 -20.507,-18.245l-446.755,-0c-11.857,-0 -23.543,8.207 -23.543,18.245l-0,228.138c-0,10.038 11.686,19.738 23.543,19.738l446.755,-0c11.856,-0 20.507,-9.7 20.507,-19.738l-0,-228.138Z" style="fill:url(#_Linear54);fill-rule:nonzero;"/><path d="M1240.3,1213.78l-31.109,-95.953c-0.78,-2.41 -3.028,-3.842 -5.56,-3.842l-125.056,-0l-0,227.446l169.092,-0l-7.367,-127.651Z" style="fill:url(#_Linear55);fill-rule:nonzero;"/><path d="M1248.6,1306.58c-1.674,-1.1 -3.71,-1.696 -6.043,-1.651l-130.319,2.511l-0.577,37.029l130.204,3.198c4.773,-0 8.903,-2.302 8.903,-5.529l-0,-31.368c-0,-1.578 -0.494,-3.09 -2.168,-4.19Z" style="fill:url(#_Linear56);fill-rule:nonzero;"/><g><path d="M1216.01,1207.12l-18.803,-74.59c-0.656,-2.593 -2.99,-4.725 -5.665,-4.725l-73.541,-0c-1.58,-0 -3.092,0.956 -4.193,2.089c-1.1,1.133 -1.695,2.822 -1.648,4.401l1.764,59.719c0.083,2.801 2.142,5.188 4.909,5.635l90.581,14.654c1.942,0.314 3.912,-0.361 5.241,-1.812c1.328,-1.452 1.838,-3.464 1.355,-5.371Z" style="fill:url(#_Linear57);fill-rule:nonzero;"/><path d="M1212.25,1127.22l-0.959,0.159c-1.628,0.27 -3.065,1.215 -3.958,2.602c-0.893,1.387 -1.158,3.087 -0.729,4.68l20.497,76.222c0.793,2.947 3.72,4.788 6.72,4.226l6.473,-1.214l-28.044,-86.675Z" style="fill:url(#_Linear58);fill-rule:nonzero;"/></g><path d="M1147.63,1227.25c-0,3.052 -2.474,5.525 -5.526,5.525l-23.02,-0c-3.052,-0 -5.526,-2.474 -5.526,-5.525l-0,-2.762c-0,-3.052 2.474,-5.526 5.526,-5.526l23.02,-0c3.052,-0 5.526,2.474 5.526,5.526l-0,2.762Z" style="fill:url(#_Linear59);fill-rule:nonzero;"/><path d="M1087.29,1046.83c-1.961,-0.143 -4.452,0.464 -5.893,1.803c-1.441,1.338 -2.824,3.145 -2.824,5.112l-0,60.248l76.263,-0c-0,-0 -4.098,-62.534 -67.546,-67.163Z" style="fill:url(#_Linear60);fill-rule:nonzero;"/><g><g><circle cx="1156.76" cy="1345.52" r="59.259" style="fill:url(#_Linear61);"/><circle cx="1156.76" cy="1345.52" r="48.125" style="fill:url(#_Linear62);"/><path d="M1197.18,1363.02c-0.12,-0 -0.241,-0.024 -0.359,-0.073c-0.468,-0.198 -0.687,-0.739 -0.489,-1.207c2.174,-5.139 3.276,-10.599 3.276,-16.227c-0,-22.987 -18.701,-41.688 -41.688,-41.688c-7.131,-0 -14.168,1.831 -20.349,5.295c-0.443,0.248 -1.005,0.091 -1.254,-0.353c-0.248,-0.444 -0.09,-1.005 0.353,-1.254c6.456,-3.618 13.804,-5.53 21.25,-5.53c24.002,-0 43.53,19.527 43.53,43.529c-0,5.876 -1.151,11.577 -3.421,16.944c-0.149,0.353 -0.491,0.564 -0.849,0.564Z" style="fill:url(#_Linear63);fill-rule:nonzero;"/></g><circle cx="1156.76" cy="1345.52" r="22.07" style="fill:url(#_Linear64);"/></g><g><g><circle cx="791.401" cy="1345.52" r="59.259" style="fill:url(#_Linear65);"/><circle cx="791.401" cy="1345.52" r="48.125" style="fill:url(#_Linear66);"/><path d="M831.824,1363.02c-0.12,-0 -0.241,-0.024 -0.359,-0.073c-0.468,-0.198 -0.687,-0.739 -0.489,-1.207c2.173,-5.138 3.275,-10.598 3.275,-16.227c-0,-22.987 -18.701,-41.688 -41.688,-41.688c-7.131,-0 -14.168,1.831 -20.349,5.295c-0.444,0.248 -1.005,0.091 -1.254,-0.353c-0.248,-0.444 -0.09,-1.005 0.353,-1.254c6.456,-3.618 13.804,-5.53 21.25,-5.53c24.002,-0 43.53,19.527 43.53,43.529c-0,5.877 -1.151,11.578 -3.421,16.944c-0.148,0.353 -0.489,0.564 -0.848,0.564Z" style="fill:url(#_Linear67);fill-rule:nonzero;"/></g><circle cx="791.401" cy="1345.52" r="22.07" style="fill:url(#_Linear68);"/></g><g><g><circle cx="655.839" cy="1345.52" r="59.259" style="fill:url(#_Linear69);"/><circle cx="655.839" cy="1345.52" r="48.125" style="fill:url(#_Linear70);"/><path d="M696.262,1363.02c-0.12,-0 -0.241,-0.024 -0.359,-0.073c-0.468,-0.198 -0.687,-0.739 -0.489,-1.207c2.174,-5.139 3.276,-10.599 3.276,-16.227c-0,-22.987 -18.701,-41.688 -41.688,-41.688c-7.131,-0 -14.168,1.831 -20.35,5.295c-0.443,0.248 -1.005,0.091 -1.254,-0.353c-0.248,-0.444 -0.09,-1.005 0.353,-1.254c6.456,-3.618 13.804,-5.53 21.251,-5.53c24.002,-0 43.53,19.527 43.53,43.529c-0,5.876 -1.151,11.577 -3.421,16.944c-0.149,0.353 -0.49,0.564 -0.849,0.564Z" style="fill:url(#_Linear71);fill-rule:nonzero;"/></g><circle cx="655.839" cy="1345.52" r="22.07" style="fill:url(#_Linear72);"/></g><g><path d="M1248,1297.83c-0,3.231 -2.619,5.85 -5.85,5.85l-15.005,-0c-3.231,-0 -5.85,-2.619 -5.85,-5.85l-0,-20.53c-0,-3.231 2.619,-5.85 5.85,-5.85l15.005,-0c3.231,-0 5.85,2.619 5.85,5.85l-0,20.53Z" style="fill:url(#_Linear73);fill-rule:nonzero;"/><path d="M1233.27,1271.45l-0,30.388l-4.807,-0c-3.227,-0 -7.164,-3.631 -7.164,-6.858l-0,-19.244c-0,-3.227 3.937,-4.286 7.164,-4.286l4.807,-0Z" style="fill:#fff;fill-opacity:0.8;fill-rule:nonzero;"/></g><path d="M1088.7,1264.09c-0.509,-0 -0.921,-0.412 -0.921,-0.921l-0,-135.363c-0,-0.509 0.412,-0.921 0.921,-0.921c0.509,-0 0.921,0.412 0.921,0.921l-0,135.363c-0,0.508 -0.412,0.921 -0.921,0.921Z" style="fill:url(#_Linear74);fill-rule:nonzero;"/><path d="M1140.84,1107.62c-0.382,-0 -0.739,-0.239 -0.87,-0.621c-5.089,-14.746 -15.104,-34.182 -33.918,-43.027c-11.189,-5.26 -20.268,-4.258 -20.359,-4.247c-0.507,0.061 -0.963,-0.301 -1.023,-0.806c-0.06,-0.505 0.301,-0.963 0.806,-1.023c0.39,-0.047 9.697,-1.073 21.359,4.409c19.396,9.118 29.671,29.011 34.875,44.093c0.166,0.481 -0.089,1.005 -0.57,1.171c-0.099,0.034 -0.2,0.051 -0.3,0.051Z" style="fill:#fff;fill-rule:nonzero;"/></g><g><path d="M792.273,1280.87c12.885,0.245 23.462,-10.133 23.462,-23.021l-0,-102.447c-0,-13.46 -10.817,-24.412 -24.276,-24.559c-40.394,-0.44 -123.706,-0.462 -191.873,5.283c-9.302,0.784 -16.537,8.408 -16.875,17.737l-6.371,99.046c-0.473,13.101 9.884,24.046 22.992,24.295l192.941,3.666Z" style="fill:url(#_Linear75);fill-rule:nonzero;"/><path d="M792.339,1166.49c0.172,8.717 -0.087,22.548 -0.299,31.484c-0.11,4.649 -4.192,8.192 -8.811,7.651l-33.243,-3.896c-4.429,-0.519 -7.549,-4.601 -6.888,-9.01l4.08,-27.221c0.579,-3.865 3.899,-6.724 7.807,-6.724l29.461,-0c4.294,-0 7.809,3.424 7.893,7.716Z" style="fill:#fff;fill-opacity:0.84;fill-rule:nonzero;"/><path d="M705.463,1218.08l-27.731,2.991c-3.88,0.419 -7.191,-2.781 -6.906,-6.674l6.062,-82.491c11.625,-0.369 23.091,-0.637 34.155,-0.826l-0,80.784c0.001,3.193 -2.405,5.874 -5.58,6.216Z" style="fill:#fff;fill-opacity:0.37;fill-rule:nonzero;"/><path d="M694.097,1203.78c-0.085,1.484 -1.315,2.628 -2.782,2.628c-0.055,-0 -0.109,-0.002 -0.164,-0.005c-1.538,-0.089 -2.713,-1.408 -2.622,-2.946l4.181,-71.995c1.875,-0.046 3.735,-0.088 5.594,-0.13l-4.207,72.448Z" style="fill:#fff;fill-rule:nonzero;"/><g><path d="M776.965,1192.47c0.487,-0 0.897,-0.378 0.928,-0.872l1.438,-22.677c0.033,-0.512 -0.356,-0.953 -0.87,-0.986c-0.539,-0.042 -0.953,0.358 -0.986,0.87l-1.438,22.677c-0.033,0.512 0.356,0.953 0.87,0.986c0.02,0.002 0.04,0.002 0.058,0.002Z" style="fill:url(#_Linear76);fill-rule:nonzero;"/><path d="M774.005,1192.47c0.499,-0 0.913,-0.396 0.93,-0.899l0.754,-23.11c0.016,-0.514 -0.387,-0.944 -0.899,-0.961c-0.592,-0.029 -0.943,0.387 -0.961,0.899l-0.754,23.111c-0.016,0.514 0.387,0.944 0.899,0.961c-0,-0.001 0.022,-0.001 0.031,-0.001Z" style="fill:url(#_Linear77);fill-rule:nonzero;"/><path d="M769.992,1192.47c-0.514,-0.024 -0.91,-0.459 -0.884,-0.971c0.369,-7.764 1.071,-22.571 1.082,-23.076c0.004,-0.509 0.42,-0.921 0.93,-0.921c0.514,-0 0.93,0.416 0.93,0.93c-0,0.383 -0.904,19.355 -1.086,23.154c-0.024,0.499 -0.434,0.886 -0.928,0.886c-0.015,-0 -0.03,-0 -0.044,-0.002Zm0.179,-24.038l0.018,-0l-0.018,-0Z" style="fill:url(#_Linear78);fill-rule:nonzero;"/><path d="M763.837,1193.4c0.997,-0 1.822,-0.79 1.856,-1.794c0.786,-22.391 0.648,-22.896 0.557,-23.231c-0.269,-0.993 -1.3,-1.576 -2.283,-1.306c-0.91,0.249 -1.478,1.131 -1.355,2.041c0.06,1.346 -0.356,14.374 -0.636,22.364c-0.036,1.026 0.766,1.889 1.792,1.923c0.024,0.003 0.047,0.003 0.069,0.003Z" style="fill:url(#_Linear79);fill-rule:nonzero;"/><path d="M759.807,1192.47c0.514,-0 0.93,-0.416 0.93,-0.93l-0,-22.677c-0,-0.514 -0.416,-0.93 -0.93,-0.93c-0.514,-0 -0.93,0.416 -0.93,0.93l-0,22.677c0.001,0.514 0.416,0.93 0.93,0.93Z" style="fill:url(#_Linear80);fill-rule:nonzero;"/><path d="M756.553,1192.47c0.505,-0 0.919,-0.403 0.93,-0.908c0.178,-7.88 0.594,-20.75 0.966,-22.297c0.163,-0.292 0.161,-0.663 -0.034,-0.964c-0.281,-0.432 -0.857,-0.548 -1.288,-0.267c-0.507,0.332 -0.988,0.647 -1.504,23.485c-0.011,0.514 0.396,0.939 0.908,0.952l0.022,-0l-0,-0.001Z" style="fill:url(#_Linear81);fill-rule:nonzero;"/><path d="M781.968,1194.54c0.983,-0 1.803,-0.77 1.856,-1.763l1.24,-23.812c0.053,-1.026 -0.735,-1.899 -1.761,-1.954c-0.973,-0.069 -1.899,0.736 -1.954,1.762l-1.24,23.812c-0.053,1.026 0.735,1.899 1.761,1.954c0.033,0.001 0.066,0.001 0.098,0.001Z" style="fill:url(#_Linear82);fill-rule:nonzero;"/></g></g><g><path d="M1028.48,1289.47c12.885,0.245 23.462,-10.133 23.462,-23.021l-0,-102.447c-0,-13.46 -10.817,-24.412 -24.276,-24.559c-40.395,-0.44 -123.706,-0.462 -191.873,5.283c-9.302,0.784 -16.538,8.408 -16.875,17.737l-6.371,99.046c-0.474,13.101 9.884,24.046 22.991,24.295l192.942,3.666Z" style="fill:url(#_Linear83);fill-rule:nonzero;"/><path d="M1028.54,1175.08c0.172,8.717 -0.087,22.548 -0.299,31.484c-0.11,4.649 -4.192,8.192 -8.811,7.651l-33.243,-3.896c-4.429,-0.519 -7.549,-4.601 -6.888,-9.01l4.08,-27.221c0.579,-3.865 3.899,-6.724 7.807,-6.724l29.461,-0c4.293,-0 7.808,3.424 7.893,7.716Z" style="fill:#fff;fill-opacity:0.84;fill-rule:nonzero;"/><path d="M941.668,1226.67l-27.731,2.992c-3.88,0.419 -7.191,-2.781 -6.906,-6.674l6.062,-82.491c11.625,-0.369 23.091,-0.637 34.155,-0.826l-0,80.784c0.001,3.192 -2.405,5.873 -5.58,6.215Z" style="fill:#fff;fill-opacity:0.37;fill-rule:nonzero;"/><path d="M930.302,1212.37c-0.085,1.484 -1.315,2.628 -2.782,2.628c-0.055,-0 -0.109,-0.002 -0.164,-0.005c-1.538,-0.089 -2.713,-1.407 -2.622,-2.946l4.181,-71.996c1.875,-0.046 3.735,-0.088 5.594,-0.129l-4.207,72.448Z" style="fill:#fff;fill-rule:nonzero;"/><g><path d="M1013.17,1201.07c0.487,-0 0.897,-0.378 0.928,-0.872l1.438,-22.677c0.033,-0.512 -0.356,-0.953 -0.87,-0.986c-0.539,-0.042 -0.953,0.358 -0.986,0.87l-1.438,22.677c-0.033,0.512 0.356,0.953 0.87,0.986c0.02,0.002 0.04,0.002 0.058,0.002Z" style="fill:url(#_Linear84);fill-rule:nonzero;"/><path d="M1010.21,1201.07c0.499,-0 0.914,-0.396 0.93,-0.899l0.754,-23.11c0.016,-0.514 -0.387,-0.944 -0.899,-0.961c-0.592,-0.029 -0.943,0.387 -0.961,0.899l-0.754,23.111c-0.016,0.514 0.387,0.944 0.899,0.961c-0,-0.001 0.022,-0.001 0.031,-0.001Z" style="fill:url(#_Linear85);fill-rule:nonzero;"/><path d="M1006.2,1201.07c-0.514,-0.024 -0.91,-0.459 -0.884,-0.971c0.369,-7.764 1.071,-22.571 1.082,-23.076c0.004,-0.509 0.42,-0.921 0.93,-0.921c0.514,-0 0.93,0.416 0.93,0.93c-0,0.383 -0.904,19.355 -1.086,23.154c-0.024,0.5 -0.434,0.886 -0.928,0.886c-0.014,-0 -0.029,-0 -0.044,-0.002Zm0.18,-24.038l0.018,-0l-0.018,-0Z" style="fill:url(#_Linear86);fill-rule:nonzero;"/><path d="M1000.04,1202c0.997,-0 1.822,-0.79 1.856,-1.794c0.786,-22.391 0.648,-22.896 0.557,-23.231c-0.269,-0.993 -1.3,-1.576 -2.283,-1.306c-0.91,0.249 -1.478,1.131 -1.355,2.041c0.06,1.346 -0.356,14.374 -0.635,22.364c-0.036,1.026 0.766,1.889 1.792,1.923c0.023,0.003 0.046,0.003 0.068,0.003Z" style="fill:url(#_Linear87);fill-rule:nonzero;"/><path d="M996.012,1201.07c0.514,-0 0.93,-0.416 0.93,-0.93l-0,-22.677c-0,-0.514 -0.416,-0.93 -0.93,-0.93c-0.514,-0 -0.93,0.416 -0.93,0.93l-0,22.677c0.001,0.514 0.416,0.93 0.93,0.93Z" style="fill:url(#_Linear88);fill-rule:nonzero;"/><path d="M992.758,1201.07c0.505,-0 0.919,-0.403 0.93,-0.908c0.178,-7.88 0.594,-20.75 0.966,-22.297c0.163,-0.292 0.161,-0.663 -0.034,-0.964c-0.282,-0.432 -0.857,-0.548 -1.288,-0.267c-0.507,0.332 -0.988,0.646 -1.504,23.485c-0.011,0.514 0.396,0.939 0.908,0.952l0.022,-0l-0,-0.001Z" style="fill:url(#_Linear89);fill-rule:nonzero;"/><path d="M1018.17,1203.13c0.983,-0 1.803,-0.77 1.856,-1.763l1.24,-23.812c0.053,-1.026 -0.735,-1.9 -1.761,-1.954c-0.973,-0.069 -1.9,0.736 -1.954,1.762l-1.24,23.812c-0.053,1.026 0.735,1.9 1.761,1.954c0.033,0.001 0.065,0.001 0.098,0.001Z" style="fill:url(#_Linear90);fill-rule:nonzero;"/></g></g><g><path d="M754.876,1117.14l-0,-71.946c-0,-9.453 -7.597,-17.144 -17.049,-17.247c-28.368,-0.309 -86.876,-0.324 -134.748,3.71c-6.532,0.55 -11.614,5.905 -11.851,12.456l-4.474,69.557c-0.333,9.2 6.941,16.887 16.146,17.062l135.498,2.575c9.05,0.172 16.478,-7.116 16.478,-16.167Z" style="fill:url(#_Linear91);fill-rule:nonzero;"/><path d="M738.445,1052.97c0.121,6.122 -0.061,15.835 -0.21,22.111c-0.078,3.265 -2.944,5.753 -6.188,5.373l-23.346,-2.736c-3.11,-0.365 -5.301,-3.231 -4.837,-6.328l2.866,-19.117c0.407,-2.714 2.738,-4.722 5.482,-4.722l20.69,-0c3.015,-0 5.484,2.405 5.543,5.419Z" style="fill:#fff;fill-opacity:0.84;fill-rule:nonzero;"/><path d="M677.435,1089.2l-19.475,2.101c-2.725,0.294 -5.05,-1.953 -4.849,-4.687l4.258,-57.932c8.164,-0.259 16.216,-0.448 23.986,-0.58l-0,56.732c-0.001,2.243 -1.691,4.126 -3.92,4.366Z" style="fill:#fff;fill-opacity:0.37;fill-rule:nonzero;"/><path d="M669.453,1079.16c-0.06,1.042 -0.924,1.846 -1.954,1.846c-0.038,-0 -0.077,-0.001 -0.115,-0.004c-1.08,-0.063 -1.905,-0.988 -1.841,-2.068l2.937,-50.561c1.317,-0.032 2.623,-0.062 3.929,-0.091l-2.956,50.878Z" style="fill:#fff;fill-rule:nonzero;"/><g><path d="M727.649,1071.22c0.342,-0 0.63,-0.265 0.652,-0.612l1.01,-15.925c0.023,-0.36 -0.25,-0.67 -0.611,-0.693c-0.379,-0.029 -0.669,0.251 -0.693,0.611l-1.01,15.925c-0.023,0.36 0.25,0.67 0.611,0.692c0.014,0.002 0.028,0.002 0.041,0.002Z" style="fill:url(#_Linear92);fill-rule:nonzero;"/><path d="M725.57,1071.22c0.351,-0 0.642,-0.278 0.653,-0.631l0.529,-16.23c0.011,-0.361 -0.272,-0.663 -0.631,-0.675c-0.416,-0.02 -0.662,0.272 -0.675,0.631l-0.529,16.23c-0.011,0.361 0.272,0.663 0.631,0.675l0.022,-0Z" style="fill:url(#_Linear93);fill-rule:nonzero;"/><path d="M722.751,1071.22c-0.361,-0.017 -0.639,-0.323 -0.621,-0.682c0.259,-5.452 0.753,-15.851 0.76,-16.206c0.003,-0.357 0.295,-0.647 0.653,-0.647c0.361,-0 0.653,0.292 0.653,0.653c-0,0.269 -0.635,13.593 -0.763,16.261c-0.017,0.351 -0.305,0.622 -0.652,0.622c-0.009,0.001 -0.02,0.001 -0.03,-0.001Zm0.126,-16.882l0.013,-0l-0.013,-0Z" style="fill:url(#_Linear94);fill-rule:nonzero;"/><path d="M718.429,1071.88c0.7,-0 1.279,-0.555 1.303,-1.26c0.552,-15.725 0.455,-16.08 0.391,-16.314c-0.189,-0.698 -0.913,-1.107 -1.603,-0.917c-0.639,0.175 -1.038,0.795 -0.951,1.433c0.042,0.945 -0.25,10.094 -0.446,15.706c-0.026,0.72 0.538,1.326 1.259,1.351c0.015,0.001 0.032,0.001 0.047,0.001Z" style="fill:url(#_Linear95);fill-rule:nonzero;"/><path d="M715.599,1071.22c0.361,-0 0.653,-0.292 0.653,-0.653l-0,-15.925c-0,-0.361 -0.292,-0.653 -0.653,-0.653c-0.361,-0 -0.653,0.292 -0.653,0.653l-0,15.925c-0,0.361 0.292,0.653 0.653,0.653Z" style="fill:url(#_Linear96);fill-rule:nonzero;"/><path d="M713.314,1071.22c0.355,-0 0.645,-0.283 0.653,-0.638c0.125,-5.534 0.417,-14.572 0.678,-15.659c0.115,-0.205 0.114,-0.466 -0.024,-0.677c-0.198,-0.303 -0.602,-0.385 -0.904,-0.187c-0.356,0.233 -0.694,0.454 -1.056,16.493c-0.008,0.361 0.278,0.659 0.638,0.668l0.015,-0Z" style="fill:url(#_Linear97);fill-rule:nonzero;"/><path d="M731.162,1072.67c0.69,-0 1.267,-0.541 1.303,-1.238l0.871,-16.722c0.037,-0.721 -0.516,-1.334 -1.237,-1.372c-0.684,-0.048 -1.334,0.517 -1.372,1.237l-0.871,16.722c-0.037,0.721 0.516,1.334 1.237,1.372c0.023,0.001 0.046,0.001 0.069,0.001Z" style="fill:url(#_Linear98);fill-rule:nonzero;"/></g></g><g><path d="M901.134,1119.28l-0,-71.946c-0,-9.453 -6.565,-17.144 -14.734,-17.247c-24.516,-0.309 -75.08,-0.324 -116.453,3.71c-5.646,0.55 -10.037,5.905 -10.242,12.456l-3.867,69.557c-0.287,9.2 5.999,16.887 13.954,17.062l117.101,2.575c7.822,0.171 14.241,-7.117 14.241,-16.167Z" style="fill:url(#_Linear99);fill-rule:nonzero;"/><path d="M886.935,1055.12c0.104,6.122 -0.053,15.835 -0.182,22.111c-0.067,3.265 -2.544,5.753 -5.348,5.373l-20.176,-2.736c-2.688,-0.364 -4.581,-3.231 -4.18,-6.328l2.477,-19.117c0.352,-2.714 2.366,-4.722 4.738,-4.722l17.881,-0c2.605,-0 4.738,2.404 4.79,5.419Z" style="fill:#fff;fill-opacity:0.84;fill-rule:nonzero;"/><path d="M834.207,1091.35l-16.831,2.101c-2.355,0.294 -4.365,-1.953 -4.191,-4.687l3.679,-57.932c7.055,-0.259 14.015,-0.448 20.73,-0.58l-0,56.732c0.001,2.243 -1.46,4.125 -3.387,4.366Z" style="fill:#fff;fill-opacity:0.37;fill-rule:nonzero;"/><path d="M827.309,1081.31c-0.052,1.042 -0.798,1.846 -1.688,1.846c-0.033,-0 -0.066,-0.001 -0.099,-0.004c-0.934,-0.063 -1.647,-0.988 -1.592,-2.068l2.538,-50.561c1.138,-0.032 2.267,-0.062 3.395,-0.091l-2.554,50.878Z" style="fill:#fff;fill-rule:nonzero;"/><g><path d="M877.604,1073.37c0.296,-0 0.544,-0.265 0.563,-0.612l0.873,-15.925c0.02,-0.36 -0.216,-0.67 -0.528,-0.693c-0.327,-0.029 -0.579,0.251 -0.599,0.611l-0.873,15.925c-0.02,0.36 0.216,0.67 0.528,0.692c0.013,0.002 0.025,0.002 0.036,0.002Z" style="fill:url(#_Linear100);fill-rule:nonzero;"/><path d="M875.807,1073.37c0.303,-0 0.554,-0.278 0.564,-0.631l0.457,-16.23c0.01,-0.361 -0.235,-0.663 -0.546,-0.675c-0.359,-0.02 -0.572,0.272 -0.583,0.631l-0.458,16.23c-0.01,0.361 0.235,0.663 0.546,0.675l0.02,-0Z" style="fill:url(#_Linear101);fill-rule:nonzero;"/><path d="M873.371,1073.37c-0.312,-0.017 -0.552,-0.323 -0.537,-0.682c0.224,-5.452 0.65,-15.851 0.657,-16.206c0.002,-0.357 0.255,-0.647 0.564,-0.647c0.312,-0 0.564,0.292 0.564,0.653c-0,0.269 -0.549,13.593 -0.659,16.261c-0.014,0.351 -0.263,0.622 -0.563,0.622c-0.008,-0 -0.017,-0 -0.026,-0.001Zm0.109,-16.882l0.011,-0l-0.011,-0Z" style="fill:url(#_Linear102);fill-rule:nonzero;"/><path d="M869.636,1074.02c0.605,-0 1.105,-0.555 1.126,-1.26c0.477,-15.725 0.393,-16.08 0.338,-16.314c-0.163,-0.698 -0.789,-1.107 -1.385,-0.917c-0.552,0.175 -0.897,0.795 -0.822,1.433c0.036,0.945 -0.216,10.094 -0.386,15.706c-0.022,0.721 0.465,1.326 1.088,1.351c0.013,0.001 0.028,0.001 0.041,0.001Z" style="fill:url(#_Linear103);fill-rule:nonzero;"/><path d="M867.19,1073.37c0.312,-0 0.565,-0.292 0.565,-0.653l-0,-15.925c-0,-0.361 -0.253,-0.653 -0.565,-0.653c-0.312,-0 -0.564,0.292 -0.564,0.653l-0,15.925c-0,0.361 0.252,0.653 0.564,0.653Z" style="fill:url(#_Linear104);fill-rule:nonzero;"/><path d="M865.215,1073.37c0.306,-0 0.558,-0.283 0.564,-0.638c0.108,-5.534 0.361,-14.572 0.586,-15.659c0.099,-0.205 0.098,-0.466 -0.021,-0.677c-0.171,-0.303 -0.52,-0.385 -0.781,-0.187c-0.307,0.233 -0.6,0.454 -0.913,16.493c-0.006,0.361 0.24,0.659 0.551,0.668l0.014,-0Z" style="fill:url(#_Linear105);fill-rule:nonzero;"/><path d="M880.64,1074.82c0.596,-0 1.095,-0.541 1.126,-1.238l0.753,-16.722c0.032,-0.721 -0.446,-1.334 -1.069,-1.372c-0.591,-0.048 -1.153,0.517 -1.186,1.237l-0.753,16.722c-0.032,0.721 0.446,1.334 1.069,1.372c0.02,0.001 0.04,0.001 0.06,0.001Z" style="fill:url(#_Linear106);fill-rule:nonzero;"/></g></g><g><path d="M1047.11,1123.72l-0,-71.946c-0,-9.453 -6.565,-17.144 -14.734,-17.247c-24.517,-0.309 -75.08,-0.324 -116.453,3.71c-5.646,0.55 -10.037,5.905 -10.242,12.456l-3.867,69.557c-0.287,9.2 5.999,16.887 13.954,17.062l117.101,2.575c7.821,0.172 14.241,-7.117 14.241,-16.167Z" style="fill:url(#_Linear107);fill-rule:nonzero;"/><path d="M1032.91,1059.56c0.104,6.122 -0.053,15.835 -0.181,22.111c-0.067,3.265 -2.544,5.753 -5.348,5.373l-20.176,-2.736c-2.688,-0.364 -4.581,-3.231 -4.18,-6.328l2.477,-19.117c0.352,-2.714 2.366,-4.722 4.738,-4.722l17.881,-0c2.605,-0 4.738,2.405 4.789,5.419Z" style="fill:#fff;fill-opacity:0.84;fill-rule:nonzero;"/><path d="M980.187,1095.79l-16.831,2.101c-2.355,0.294 -4.365,-1.953 -4.191,-4.687l3.679,-57.932c7.055,-0.259 14.015,-0.448 20.73,-0.58l-0,56.732c-0,2.243 -1.46,4.125 -3.387,4.366Z" style="fill:#fff;fill-opacity:0.37;fill-rule:nonzero;"/><path d="M973.289,1085.75c-0.052,1.042 -0.798,1.846 -1.689,1.846c-0.033,-0 -0.066,-0.001 -0.099,-0.004c-0.933,-0.063 -1.647,-0.988 -1.592,-2.069l2.538,-50.561c1.138,-0.032 2.267,-0.062 3.395,-0.091l-2.553,50.879Z" style="fill:#fff;fill-rule:nonzero;"/><g><path d="M1023.55,1077.81c0.012,0.001 0.024,0.001 0.035,0.001c0.295,-0 0.544,-0.265 0.563,-0.612l0.873,-15.925c0.02,-0.36 -0.216,-0.67 -0.528,-0.693c-0.328,-0.029 -0.579,0.251 -0.599,0.611l-0.873,15.925c-0.019,0.36 0.217,0.67 0.529,0.693Z" style="fill:url(#_Linear108);fill-rule:nonzero;"/><path d="M1021.79,1077.81c0.303,-0 0.554,-0.278 0.564,-0.631l0.457,-16.23c0.01,-0.361 -0.235,-0.663 -0.546,-0.675c-0.359,-0.02 -0.572,0.272 -0.583,0.631l-0.457,16.23c-0.01,0.361 0.235,0.663 0.546,0.675l0.019,-0Z" style="fill:url(#_Linear109);fill-rule:nonzero;"/><path d="M1019.35,1077.81c-0.312,-0.017 -0.552,-0.323 -0.537,-0.682c0.224,-5.452 0.65,-15.851 0.657,-16.206c0.002,-0.357 0.255,-0.647 0.564,-0.647c0.312,-0 0.564,0.292 0.564,0.653c-0,0.269 -0.549,13.593 -0.659,16.261c-0.014,0.351 -0.263,0.622 -0.563,0.622c-0.008,-0 -0.017,-0 -0.026,-0.001Zm0.109,-16.882l0.011,-0l-0.011,-0Z" style="fill:url(#_Linear110);fill-rule:nonzero;"/><path d="M1015.58,1078.46c0.013,0.001 0.028,0.001 0.041,0.001c0.605,-0 1.106,-0.555 1.126,-1.26c0.477,-15.725 0.394,-16.08 0.338,-16.314c-0.163,-0.698 -0.789,-1.107 -1.385,-0.917c-0.552,0.175 -0.897,0.795 -0.822,1.433c0.036,0.945 -0.216,10.094 -0.386,15.706c-0.022,0.721 0.465,1.327 1.088,1.351Z" style="fill:url(#_Linear111);fill-rule:nonzero;"/><path d="M1013.17,1077.81c0.312,-0 0.564,-0.292 0.564,-0.653l-0,-15.925c-0,-0.361 -0.252,-0.653 -0.564,-0.653c-0.312,-0 -0.564,0.292 -0.564,0.653l-0,15.925c-0,0.361 0.252,0.653 0.564,0.653Z" style="fill:url(#_Linear112);fill-rule:nonzero;"/><path d="M1011.2,1077.81c0.306,-0 0.558,-0.283 0.564,-0.638c0.108,-5.534 0.361,-14.572 0.586,-15.659c0.099,-0.205 0.098,-0.466 -0.021,-0.677c-0.171,-0.303 -0.52,-0.385 -0.781,-0.187c-0.307,0.233 -0.6,0.454 -0.913,16.493c-0.006,0.361 0.24,0.659 0.551,0.668l0.014,-0Z" style="fill:url(#_Linear113);fill-rule:nonzero;"/><path d="M1026.56,1079.26c0.02,0.001 0.04,0.001 0.059,0.001c0.596,-0 1.095,-0.541 1.126,-1.238l0.753,-16.722c0.032,-0.721 -0.446,-1.334 -1.069,-1.372c-0.591,-0.048 -1.153,0.517 -1.186,1.237l-0.753,16.722c-0.031,0.72 0.448,1.334 1.07,1.372Z" style="fill:url(#_Linear114);fill-rule:nonzero;"/></g></g></g></g></g><defs><linearGradient id="_Linear1" x1="0" y1="0" x2="1" y2="0" gradientUnits="userSpaceOnUse" gradientTransform="matrix(2181.97,0,0,2181.97,91.8601,680.392)"><stop offset="0" style="stop-color:#dae3fe;stop-opacity:1"/><stop offset="1" style="stop-color:#e9effd;stop-opacity:1"/></linearGradient><linearGradient id="_Linear2" x1="0" y1="0" x2="1" y2="0" gradientUnits="userSpaceOnUse" gradientTransform="matrix(186.483,-30.3814,30.3814,186.483,1823.96,608.434)"><stop offset="0" style="stop-color:#dae3fe;stop-opacity:1"/><stop offset="1" style="stop-color:#e9effd;stop-opacity:1"/></linearGradient><linearGradient id="_Linear3" x1="0" y1="0" x2="1" y2="0" gradientUnits="userSpaceOnUse" gradientTransform="matrix(300.971,0,0,300.971,97.7198,812.651)"><stop offset="0" style="stop-color:#dae3fe;stop-opacity:1"/><stop offset="1" style="stop-color:#e9effd;stop-opacity:1"/></linearGradient><linearGradient id="_Linear4" x1="0" y1="0" x2="1" y2="0" gradientUnits="userSpaceOnUse" gradientTransform="matrix(-867.087,600.059,-600.059,-867.087,1049.78,412.159)"><stop offset="0" style="stop-color:#4042e2;stop-opacity:1"/><stop offset="1" style="stop-color:#4f52ff;stop-opacity:1"/></linearGradient><linearGradient id="_Linear5" x1="0" y1="0" x2="1" y2="0" gradientUnits="userSpaceOnUse" gradientTransform="matrix(-231.023,33.0033,-33.0033,-231.023,1444.56,690.371)"><stop offset="0" style="stop-color:#4042e2;stop-opacity:1"/><stop offset="1" style="stop-color:#4f52ff;stop-opacity:1"/></linearGradient><linearGradient id="_Linear6" x1="0" y1="0" x2="1" y2="0" gradientUnits="userSpaceOnUse" gradientTransform="matrix(840.085,-447.046,447.046,840.085,1204.29,911.582)"><stop offset="0" style="stop-color:#4042e2;stop-opacity:1"/><stop offset="1" style="stop-color:#4f52ff;stop-opacity:1"/></linearGradient><linearGradient id="_Linear10" x1="0" y1="0" x2="1" y2="0" gradientUnits="userSpaceOnUse" gradientTransform="matrix(-29.5932,21.3233,-21.3233,-29.5932,1294.49,397.334)"><stop offset="0" style="stop-color:#fe7062;stop-opacity:1"/><stop offset="1" style="stop-color:#ff928e;stop-opacity:1"/></linearGradient><linearGradient id="_Linear11" x1="0" y1="0" x2="1" y2="0" gradientUnits="userSpaceOnUse" gradientTransform="matrix(-69.9999,99.9998,-99.9998,-69.9999,440.113,1123.57)"><stop offset="0" style="stop-color:#fe7062;stop-opacity:1"/><stop offset="1" style="stop-color:#ff928e;stop-opacity:1"/></linearGradient><linearGradient id="_Linear13" x1="0" y1="0" x2="1" y2="0" gradientUnits="userSpaceOnUse" gradientTransform="matrix(-63.0064,231.024,-231.024,-63.0064,1142.84,26.6557)"><stop offset="0" style="stop-color:#dae3fe;stop-opacity:1"/><stop offset="1" style="stop-color:#e9effd;stop-opacity:1"/></linearGradient><linearGradient id="_Linear14" x1="0" y1="0" x2="1" y2="0" gradientUnits="userSpaceOnUse" gradientTransform="matrix(-738.076,1044.11,-1044.11,-738.076,2158.65,218.443)"><stop offset="0" style="stop-color:#09005d;stop-opacity:1"/><stop offset="1" style="stop-color:#1a0f91;stop-opacity:1"/></linearGradient><linearGradient id="_Linear15" x1="0" y1="0" x2="1" y2="0" gradientUnits="userSpaceOnUse" gradientTransform="matrix(-244,328,-328,-244,2568.81,-310.576)"><stop offset="0" style="stop-color:#fe7062;stop-opacity:1"/><stop offset="1" style="stop-color:#ff928e;stop-opacity:1"/></linearGradient><linearGradient id="_Linear16" x1="0" y1="0" x2="1" y2="0" gradientUnits="userSpaceOnUse" gradientTransform="matrix(-2.4082,146.902,-146.902,-2.4082,1697.4,295.346)"><stop offset="0" style="stop-color:#8d55d1;stop-opacity:1"/><stop offset="1" style="stop-color:#1c2873;stop-opacity:1"/><stop offset="1" style="stop-color:#1c2873;stop-opacity:1"/></linearGradient><linearGradient id="_Linear17" x1="0" y1="0" x2="1" y2="0" gradientUnits="userSpaceOnUse" gradientTransform="matrix(180.018,276.028,-276.028,180.018,685.815,-823.522)"><stop offset="0" style="stop-color:#e1473d;stop-opacity:1"/><stop offset="1" style="stop-color:#e9605a;stop-opacity:1"/></linearGradient><linearGradient id="_Linear18" x1="0" y1="0" x2="1" y2="0" gradientUnits="userSpaceOnUse" gradientTransform="matrix(180.018,276.028,-276.029,180.018,587.216,-759.214)"><stop offset="0" style="stop-color:#e1473d;stop-opacity:1"/><stop offset="1" style="stop-color:#e9605a;stop-opacity:1"/></linearGradient><linearGradient id="_Linear19" x1="0" y1="0" x2="1" y2="0" gradientUnits="userSpaceOnUse" gradientTransform="matrix(180.018,276.028,-276.028,180.018,690.415,-826.517)"><stop offset="0" style="stop-color:#e1473d;stop-opacity:1"/><stop offset="1" style="stop-color:#e9605a;stop-opacity:1"/></linearGradient><linearGradient id="_Linear20" x1="0" y1="0" x2="1" y2="0" gradientUnits="userSpaceOnUse" gradientTransform="matrix(180.018,276.028,-276.028,180.018,454.76,-672.828)"><stop offset="0" style="stop-color:#e1473d;stop-opacity:1"/><stop offset="1" style="stop-color:#e9605a;stop-opacity:1"/></linearGradient><linearGradient id="_Linear21" x1="0" y1="0" x2="1" y2="0" gradientUnits="userSpaceOnUse" gradientTransform="matrix(180.017,276.027,-276.027,180.017,413.21,-645.731)"><stop offset="0" style="stop-color:#e1473d;stop-opacity:1"/><stop offset="1" style="stop-color:#e9605a;stop-opacity:1"/></linearGradient><linearGradient id="_Linear22" x1="0" y1="0" x2="1" y2="0" gradientUnits="userSpaceOnUse" gradientTransform="matrix(-180.018,276.028,-276.028,-180.018,2091.22,73.4373)"><stop offset="0" style="stop-color:#e1473d;stop-opacity:1"/><stop offset="1" style="stop-color:#e9605a;stop-opacity:1"/></linearGradient><linearGradient id="_Linear23" x1="0" y1="0" x2="1" y2="0" gradientUnits="userSpaceOnUse" gradientTransform="matrix(-180.018,276.028,-276.028,-180.018,2127.3,96.9702)"><stop offset="0" style="stop-color:#e1473d;stop-opacity:1"/><stop offset="1" style="stop-color:#e9605a;stop-opacity:1"/></linearGradient><linearGradient id="_Linear24" x1="0" y1="0" x2="1" y2="0" gradientUnits="userSpaceOnUse" gradientTransform="matrix(180.017,276.027,-276.027,180.017,755.747,-869.12)"><stop offset="0" style="stop-color:#e1473d;stop-opacity:1"/><stop offset="1" style="stop-color:#e9605a;stop-opacity:1"/></linearGradient><linearGradient id="_Linear25" x1="0" y1="0" x2="1" y2="0" gradientUnits="userSpaceOnUse" gradientTransform="matrix(180.018,276.028,-276.028,180.018,599.532,-767.244)"><stop offset="0" style="stop-color:#e1473d;stop-opacity:1"/><stop offset="1" style="stop-color:#e9605a;stop-opacity:1"/></linearGradient><linearGradient id="_Linear26" x1="0" y1="0" x2="1" y2="0" gradientUnits="userSpaceOnUse" gradientTransform="matrix(180.018,276.028,-276.028,180.018,608.222,-772.91)"><stop offset="0" style="stop-color:#e1473d;stop-opacity:1"/><stop offset="1" style="stop-color:#e9605a;stop-opacity:1"/></linearGradient><linearGradient id="_Linear27" x1="0" y1="0" x2="1" y2="0" gradientUnits="userSpaceOnUse" gradientTransform="matrix(-197.99,407.979,-407.979,-197.99,473.664,831.227)"><stop offset="0" style="stop-color:#ff928e;stop-opacity:1"/><stop offset="1" style="stop-color:#feb3b1;stop-opacity:1"/></linearGradient><linearGradient id="_Linear28" x1="0" y1="0" x2="1" y2="0" gradientUnits="userSpaceOnUse" gradientTransform="matrix(-197.99,407.979,-407.979,-197.989,479.847,834.228)"><stop offset="0" style="stop-color:#ff928e;stop-opacity:1"/><stop offset="1" style="stop-color:#feb3b1;stop-opacity:1"/></linearGradient><linearGradient id="_Linear29" x1="0" y1="0" x2="1" y2="0" gradientUnits="userSpaceOnUse" gradientTransform="matrix(-219.022,663.065,-663.065,-219.022,601.687,415.724)"><stop offset="0" style="stop-color:#e1473d;stop-opacity:1"/><stop offset="1" style="stop-color:#e9605a;stop-opacity:1"/></linearGradient><linearGradient id="_Linear30" x1="0" y1="0" x2="1" y2="0" gradientUnits="userSpaceOnUse" gradientTransform="matrix(-354.036,564.057,-564.057,-354.036,1402.88,-36.413)"><stop offset="0" style="stop-color:#ff928e;stop-opacity:1"/><stop offset="1" style="stop-color:#feb3b1;stop-opacity:1"/></linearGradient><linearGradient id="_Linear31" x1="0" y1="0" x2="1" y2="0" gradientUnits="userSpaceOnUse" gradientTransform="matrix(-354.035,564.056,-564.056,-354.035,1417.71,-27.1048)"><stop offset="0" style="stop-color:#ff928e;stop-opacity:1"/><stop offset="1" style="stop-color:#feb3b1;stop-opacity:1"/></linearGradient><linearGradient id="_Linear32" x1="0" y1="0" x2="1" y2="0" gradientUnits="userSpaceOnUse" gradientTransform="matrix(-64.4967,217.489,-217.489,-64.4967,1396.38,-230.791)"><stop offset="0" style="stop-color:#e1473d;stop-opacity:1"/><stop offset="1" style="stop-color:#e9605a;stop-opacity:1"/></linearGradient><linearGradient id="_Linear33" x1="0" y1="0" x2="1" y2="0" gradientUnits="userSpaceOnUse" gradientTransform="matrix(-29.5932,21.3233,-21.3233,-29.5932,663.168,530.045)"><stop offset="0" style="stop-color:#fe7062;stop-opacity:1"/><stop offset="1" style="stop-color:#ff928e;stop-opacity:1"/></linearGradient><linearGradient id="_Linear34" x1="0" y1="0" x2="1" y2="0" gradientUnits="userSpaceOnUse" gradientTransform="matrix(-354.036,564.057,-564.057,-354.036,771.554,96.2979)"><stop offset="0" style="stop-color:#ff928e;stop-opacity:1"/><stop offset="1" style="stop-color:#feb3b1;stop-opacity:1"/></linearGradient><linearGradient id="_Linear35" x1="0" y1="0" x2="1" y2="0" gradientUnits="userSpaceOnUse" gradientTransform="matrix(-354.035,564.056,-564.056,-354.035,786.383,105.606)"><stop offset="0" style="stop-color:#ff928e;stop-opacity:1"/><stop offset="1" style="stop-color:#feb3b1;stop-opacity:1"/></linearGradient><linearGradient id="_Linear36" x1="0" y1="0" x2="1" y2="0" gradientUnits="userSpaceOnUse" gradientTransform="matrix(-64.4967,217.489,-217.489,-64.4967,765.058,-98.0799)"><stop offset="0" style="stop-color:#e1473d;stop-opacity:1"/><stop offset="1" style="stop-color:#e9605a;stop-opacity:1"/></linearGradient><linearGradient id="_Linear37" x1="0" y1="0" x2="1" y2="0" gradientUnits="userSpaceOnUse" gradientTransform="matrix(60.9507,152.894,-152.894,60.9507,1992.64,781.536)"><stop offset="0" style="stop-color:#09005d;stop-opacity:1"/><stop offset="1" style="stop-color:#1a0f91;stop-opacity:1"/></linearGradient><linearGradient id="_Linear38" x1="0" y1="0" x2="1" y2="0" gradientUnits="userSpaceOnUse" gradientTransform="matrix(93.8693,129.754,-129.754,93.8693,1928.95,900.379)"><stop offset="0" style="stop-color:#c4421b;stop-opacity:1"/><stop offset="1" style="stop-color:#5c0e16;stop-opacity:1"/></linearGradient><linearGradient id="_Linear39" x1="0" y1="0" x2="1" y2="0" gradientUnits="userSpaceOnUse" gradientTransform="matrix(29.5762,0,0,29.5762,2138.47,1393.85)"><stop offset="0" style="stop-color:#09005d;stop-opacity:1"/><stop offset="1" style="stop-color:#1a0f91;stop-opacity:1"/></linearGradient><linearGradient id="_Linear40" x1="0" y1="0" x2="1" y2="0" gradientUnits="userSpaceOnUse" gradientTransform="matrix(42.5625,-497.45,497.45,42.5625,2013.49,1510.48)"><stop offset="0" style="stop-color:#c4421b;stop-opacity:1"/><stop offset="1" style="stop-color:#5c0e16;stop-opacity:1"/></linearGradient><linearGradient id="_Linear41" x1="0" y1="0" x2="1" y2="0" gradientUnits="userSpaceOnUse" gradientTransform="matrix(47.8565,0,0,47.8565,2001.06,1388.45)"><stop offset="0" style="stop-color:#09005d;stop-opacity:1"/><stop offset="1" style="stop-color:#1a0f91;stop-opacity:1"/></linearGradient><linearGradient id="_Linear42" x1="0" y1="0" x2="1" y2="0" gradientUnits="userSpaceOnUse" gradientTransform="matrix(42.5737,-497.581,497.582,42.5737,2099.11,1517.88)"><stop offset="0" style="stop-color:#c4421b;stop-opacity:1"/><stop offset="1" style="stop-color:#5c0e16;stop-opacity:1"/></linearGradient><linearGradient id="_Linear43" x1="0" y1="0" x2="1" y2="0" gradientUnits="userSpaceOnUse" gradientTransform="matrix(102.551,145.148,-145.149,102.551,1979.23,966.596)"><stop offset="0" style="stop-color:#fe7062;stop-opacity:1"/><stop offset="1" style="stop-color:#ff928e;stop-opacity:1"/></linearGradient><linearGradient id="_Linear44" x1="0" y1="0" x2="1" y2="0" gradientUnits="userSpaceOnUse" gradientTransform="matrix(-82.9997,155,-155,-82.9997,2086.06,1080.93)"><stop offset="0" style="stop-color:#09005d;stop-opacity:1"/><stop offset="1" style="stop-color:#1a0f91;stop-opacity:1"/></linearGradient><linearGradient id="_Linear45" x1="0" y1="0" x2="1" y2="0" gradientUnits="userSpaceOnUse" gradientTransform="matrix(7.9952,-58.4915,58.4915,7.9952,2008.83,1020.14)"><stop offset="0" style="stop-color:#c4421b;stop-opacity:1"/><stop offset="1" style="stop-color:#5c0e16;stop-opacity:1"/></linearGradient><linearGradient id="_Linear46" x1="0" y1="0" x2="1" y2="0" gradientUnits="userSpaceOnUse" gradientTransform="matrix(44.3064,-135.336,135.336,44.3064,1994.59,949.701)"><stop offset="0" style="stop-color:#c4421b;stop-opacity:1"/><stop offset="1" style="stop-color:#5c0e16;stop-opacity:1"/></linearGradient><linearGradient id="_Linear47" x1="0" y1="0" x2="1" y2="0" gradientUnits="userSpaceOnUse" gradientTransform="matrix(51.2154,79.0494,-79.0494,51.2154,1988.3,840.734)"><stop offset="0" style="stop-color:#09005d;stop-opacity:1"/><stop offset="1" style="stop-color:#1a0f91;stop-opacity:1"/></linearGradient><linearGradient id="_Linear48" x1="0" y1="0" x2="1" y2="0" gradientUnits="userSpaceOnUse" gradientTransform="matrix(93.8694,129.754,-129.754,93.8694,1917.68,908.533)"><stop offset="0" style="stop-color:#c4421b;stop-opacity:1"/><stop offset="1" style="stop-color:#5c0e16;stop-opacity:1"/></linearGradient><linearGradient id="_Linear49" x1="0" y1="0" x2="1" y2="0" gradientUnits="userSpaceOnUse" gradientTransform="matrix(-17.209,2.10749e-15,-2.10749e-15,-17.209,1891.71,861.247)"><stop offset="0" style="stop-color:#ff928e;stop-opacity:1"/><stop offset="1" style="stop-color:#feb3b1;stop-opacity:1"/></linearGradient><linearGradient id="_Linear50" x1="0" y1="0" x2="1" y2="0" gradientUnits="userSpaceOnUse" gradientTransform="matrix(-141.99,1.73888e-14,-1.73888e-14,-141.99,2176.58,1065.34)"><stop offset="0" style="stop-color:#c4421b;stop-opacity:1"/><stop offset="1" style="stop-color:#5c0e16;stop-opacity:1"/></linearGradient><linearGradient id="_Linear51" x1="0" y1="0" x2="1" y2="0" gradientUnits="userSpaceOnUse" gradientTransform="matrix(-63.0066,192.02,-192.02,-63.0066,1025,725.372)"><stop offset="0" style="stop-color:#e1473d;stop-opacity:1"/><stop offset="1" style="stop-color:#e9605a;stop-opacity:1"/></linearGradient><linearGradient id="_Linear52" x1="0" y1="0" x2="1" y2="0" gradientUnits="userSpaceOnUse" gradientTransform="matrix(-201.02,198.02,-198.02,-201.02,908.371,996.326)"><stop offset="0" style="stop-color:#e1473d;stop-opacity:1"/><stop offset="1" style="stop-color:#e9605a;stop-opacity:1"/></linearGradient><linearGradient id="_Linear53" x1="0" y1="0" x2="1" y2="0" gradientUnits="userSpaceOnUse" gradientTransform="matrix(-162,170,-170,-162,1303.05,644.968)"><stop offset="0" style="stop-color:#ff928e;stop-opacity:1"/><stop offset="1" style="stop-color:#feb3b1;stop-opacity:1"/></linearGradient><linearGradient id="_Linear54" x1="0" y1="0" x2="1" y2="0" gradientUnits="userSpaceOnUse" gradientTransform="matrix(124.495,486.45,-486.45,124.495,790.425,1064.37)"><stop offset="0" style="stop-color:#e1473d;stop-opacity:1"/><stop offset="1" style="stop-color:#e9605a;stop-opacity:1"/></linearGradient><linearGradient id="_Linear55" x1="0" y1="0" x2="1" y2="0" gradientUnits="userSpaceOnUse" gradientTransform="matrix(-253.754,345.154,-345.154,-253.754,1172.06,1215.55)"><stop offset="0" style="stop-color:#fe7062;stop-opacity:1"/><stop offset="1" style="stop-color:#ff928e;stop-opacity:1"/></linearGradient><linearGradient id="_Linear56" x1="0" y1="0" x2="1" y2="0" gradientUnits="userSpaceOnUse" gradientTransform="matrix(187.961,4.7328,-4.7328,187.961,1153.21,1324.09)"><stop offset="0" style="stop-color:#e1473d;stop-opacity:1"/><stop offset="1" style="stop-color:#e9605a;stop-opacity:1"/></linearGradient><linearGradient id="_Linear57" x1="0" y1="0" x2="1" y2="0" gradientUnits="userSpaceOnUse" gradientTransform="matrix(-246.951,208.465,-208.465,-246.951,1634.94,773.841)"><stop offset="0" style="stop-color:#09005d;stop-opacity:1"/><stop offset="1" style="stop-color:#1a0f91;stop-opacity:1"/></linearGradient><linearGradient id="_Linear58" x1="0" y1="0" x2="1" y2="0" gradientUnits="userSpaceOnUse" gradientTransform="matrix(352.786,-279.022,279.022,352.786,785.325,1518.54)"><stop offset="0" style="stop-color:#09005d;stop-opacity:1"/><stop offset="1" style="stop-color:#1a0f91;stop-opacity:1"/></linearGradient><linearGradient id="_Linear59" x1="0" y1="0" x2="1" y2="0" gradientUnits="userSpaceOnUse" gradientTransform="matrix(-94.4966,48.7725,-48.7725,-94.4966,1190.75,1194.82)"><stop offset="0" style="stop-color:#e1473d;stop-opacity:1"/><stop offset="1" style="stop-color:#e9605a;stop-opacity:1"/></linearGradient><linearGradient id="_Linear60" x1="0" y1="0" x2="1" y2="0" gradientUnits="userSpaceOnUse" gradientTransform="matrix(-212.016,109.428,-109.428,-212.016,1241.17,1017.69)"><stop offset="0" style="stop-color:#ff928e;stop-opacity:1"/><stop offset="1" style="stop-color:#feb3b1;stop-opacity:1"/></linearGradient><linearGradient id="_Linear61" x1="0" y1="0" x2="1" y2="0" gradientUnits="userSpaceOnUse" gradientTransform="matrix(-105.837,125.079,-125.079,-105.837,1442.91,1007.33)"><stop offset="0" style="stop-color:#09005d;stop-opacity:1"/><stop offset="1" style="stop-color:#1a0f91;stop-opacity:1"/></linearGradient><linearGradient id="_Linear62" x1="0" y1="0" x2="1" y2="0" gradientUnits="userSpaceOnUse" gradientTransform="matrix(96.2499,0,0,96.2499,1108.63,1345.52)"><stop offset="0" style="stop-color:#e1473d;stop-opacity:1"/><stop offset="1" style="stop-color:#e9605a;stop-opacity:1"/></linearGradient><linearGradient id="_Linear63" x1="0" y1="0" x2="1" y2="0" gradientUnits="userSpaceOnUse" gradientTransform="matrix(-138.302,156.341,-156.341,-138.302,1246.3,1245.74)"><stop offset="0" style="stop-color:#ff928e;stop-opacity:1"/><stop offset="1" style="stop-color:#feb3b1;stop-opacity:1"/></linearGradient><linearGradient id="_Linear64" x1="0" y1="0" x2="1" y2="0" gradientUnits="userSpaceOnUse" gradientTransform="matrix(-117.875,127.497,-127.497,-117.875,1453.33,1024.73)"><stop offset="0" style="stop-color:#09005d;stop-opacity:1"/><stop offset="1" style="stop-color:#1a0f91;stop-opacity:1"/></linearGradient><linearGradient id="_Linear65" x1="0" y1="0" x2="1" y2="0" gradientUnits="userSpaceOnUse" gradientTransform="matrix(-171.583,107.44,-107.44,-171.582,1156.78,1116.73)"><stop offset="0" style="stop-color:#09005d;stop-opacity:1"/><stop offset="1" style="stop-color:#1a0f91;stop-opacity:1"/></linearGradient><linearGradient id="_Linear66" x1="0" y1="0" x2="1" y2="0" gradientUnits="userSpaceOnUse" gradientTransform="matrix(96.2498,0,0,96.2498,743.276,1345.52)"><stop offset="0" style="stop-color:#e1473d;stop-opacity:1"/><stop offset="1" style="stop-color:#e9605a;stop-opacity:1"/></linearGradient><linearGradient id="_Linear67" x1="0" y1="0" x2="1" y2="0" gradientUnits="userSpaceOnUse" gradientTransform="matrix(65.2503,0,0,65.2503,770.843,1332.51)"><stop offset="0" style="stop-color:#ff928e;stop-opacity:1"/><stop offset="1" style="stop-color:#feb3b1;stop-opacity:1"/></linearGradient><linearGradient id="_Linear68" x1="0" y1="0" x2="1" y2="0" gradientUnits="userSpaceOnUse" gradientTransform="matrix(45.6997,-190.014,190.014,45.6997,649.831,1934.15)"><stop offset="0" style="stop-color:#09005d;stop-opacity:1"/><stop offset="1" style="stop-color:#1a0f91;stop-opacity:1"/></linearGradient><linearGradient id="_Linear69" x1="0" y1="0" x2="1" y2="0" gradientUnits="userSpaceOnUse" gradientTransform="matrix(-144.322,80.1791,-80.1791,-144.322,1093.72,1102.25)"><stop offset="0" style="stop-color:#09005d;stop-opacity:1"/><stop offset="1" style="stop-color:#1a0f91;stop-opacity:1"/></linearGradient><linearGradient id="_Linear70" x1="0" y1="0" x2="1" y2="0" gradientUnits="userSpaceOnUse" gradientTransform="matrix(96.2498,0,0,96.2498,607.714,1345.52)"><stop offset="0" style="stop-color:#e1473d;stop-opacity:1"/><stop offset="1" style="stop-color:#e9605a;stop-opacity:1"/></linearGradient><linearGradient id="_Linear71" x1="0" y1="0" x2="1" y2="0" gradientUnits="userSpaceOnUse" gradientTransform="matrix(65.2507,0,0,65.2507,635.281,1332.51)"><stop offset="0" style="stop-color:#ff928e;stop-opacity:1"/><stop offset="1" style="stop-color:#feb3b1;stop-opacity:1"/></linearGradient><linearGradient id="_Linear72" x1="0" y1="0" x2="1" y2="0" gradientUnits="userSpaceOnUse" gradientTransform="matrix(45.6997,-190.014,190.014,45.6997,521.682,1903.33)"><stop offset="0" style="stop-color:#09005d;stop-opacity:1"/><stop offset="1" style="stop-color:#1a0f91;stop-opacity:1"/></linearGradient><linearGradient id="_Linear73" x1="0" y1="0" x2="1" y2="0" gradientUnits="userSpaceOnUse" gradientTransform="matrix(18.918,-45.2178,45.2178,18.918,1226.54,1306.95)"><stop offset="0" style="stop-color:#ff928e;stop-opacity:1"/><stop offset="1" style="stop-color:#feb3b1;stop-opacity:1"/></linearGradient><linearGradient id="_Linear74" x1="0" y1="0" x2="1" y2="0" gradientUnits="userSpaceOnUse" gradientTransform="matrix(-200.838,108.236,-108.236,-200.838,1261.47,1102.37)"><stop offset="0" style="stop-color:#ff928e;stop-opacity:1"/><stop offset="1" style="stop-color:#feb3b1;stop-opacity:1"/></linearGradient><linearGradient id="_Linear75" x1="0" y1="0" x2="1" y2="0" gradientUnits="userSpaceOnUse" gradientTransform="matrix(198.433,-158.746,158.746,198.433,573.654,1307.73)"><stop offset="0" style="stop-color:#fe7062;stop-opacity:1"/><stop offset="1" style="stop-color:#ff928e;stop-opacity:1"/></linearGradient><linearGradient id="_Linear76" x1="0" y1="0" x2="1" y2="0" gradientUnits="userSpaceOnUse" gradientTransform="matrix(59.5075,86.4718,-86.4718,59.5075,766.443,1163.87)"><stop offset="0" style="stop-color:#09005d;stop-opacity:1"/><stop offset="1" style="stop-color:#1a0f91;stop-opacity:1"/></linearGradient><linearGradient id="_Linear77" x1="0" y1="0" x2="1" y2="0" gradientUnits="userSpaceOnUse" gradientTransform="matrix(59.5075,86.4718,-86.4718,59.5075,764.303,1165.34)"><stop offset="0" style="stop-color:#09005d;stop-opacity:1"/><stop offset="1" style="stop-color:#1a0f91;stop-opacity:1"/></linearGradient><linearGradient id="_Linear78" x1="0" y1="0" x2="1" y2="0" gradientUnits="userSpaceOnUse" gradientTransform="matrix(59.5076,86.4718,-86.4718,59.5076,761.721,1167.12)"><stop offset="0" style="stop-color:#09005d;stop-opacity:1"/><stop offset="1" style="stop-color:#1a0f91;stop-opacity:1"/></linearGradient><linearGradient id="_Linear79" x1="0" y1="0" x2="1" y2="0" gradientUnits="userSpaceOnUse" gradientTransform="matrix(59.5074,86.4716,-86.4716,59.5074,757.256,1170.19)"><stop offset="0" style="stop-color:#09005d;stop-opacity:1"/><stop offset="1" style="stop-color:#1a0f91;stop-opacity:1"/></linearGradient><linearGradient id="_Linear80" x1="0" y1="0" x2="1" y2="0" gradientUnits="userSpaceOnUse" gradientTransform="matrix(59.5077,86.472,-86.472,59.5077,754.311,1172.22)"><stop offset="0" style="stop-color:#09005d;stop-opacity:1"/><stop offset="1" style="stop-color:#1a0f91;stop-opacity:1"/></linearGradient><linearGradient id="_Linear81" x1="0" y1="0" x2="1" y2="0" gradientUnits="userSpaceOnUse" gradientTransform="matrix(59.507,86.471,-86.471,59.507,752.483,1173.48)"><stop offset="0" style="stop-color:#09005d;stop-opacity:1"/><stop offset="1" style="stop-color:#1a0f91;stop-opacity:1"/></linearGradient><linearGradient id="_Linear82" x1="0" y1="0" x2="1" y2="0" gradientUnits="userSpaceOnUse" gradientTransform="matrix(59.5071,86.4711,-86.4711,59.5071,769.505,1161.76)"><stop offset="0" style="stop-color:#09005d;stop-opacity:1"/><stop offset="1" style="stop-color:#1a0f91;stop-opacity:1"/></linearGradient><linearGradient id="_Linear83" x1="0" y1="0" x2="1" y2="0" gradientUnits="userSpaceOnUse" gradientTransform="matrix(293.44,-146.721,146.721,293.44,777.82,1294.99)"><stop offset="0" style="stop-color:#fe7062;stop-opacity:1"/><stop offset="1" style="stop-color:#ff928e;stop-opacity:1"/></linearGradient><linearGradient id="_Linear84" x1="0" y1="0" x2="1" y2="0" gradientUnits="userSpaceOnUse" gradientTransform="matrix(59.5075,86.4717,-86.4717,59.5075,1002.65,1172.46)"><stop offset="0" style="stop-color:#09005d;stop-opacity:1"/><stop offset="1" style="stop-color:#1a0f91;stop-opacity:1"/></linearGradient><linearGradient id="_Linear85" x1="0" y1="0" x2="1" y2="0" gradientUnits="userSpaceOnUse" gradientTransform="matrix(59.5075,86.4717,-86.4717,59.5075,1000.51,1173.94)"><stop offset="0" style="stop-color:#09005d;stop-opacity:1"/><stop offset="1" style="stop-color:#1a0f91;stop-opacity:1"/></linearGradient><linearGradient id="_Linear86" x1="0" y1="0" x2="1" y2="0" gradientUnits="userSpaceOnUse" gradientTransform="matrix(59.5075,86.4717,-86.4717,59.5075,997.926,1175.71)"><stop offset="0" style="stop-color:#09005d;stop-opacity:1"/><stop offset="1" style="stop-color:#1a0f91;stop-opacity:1"/></linearGradient><linearGradient id="_Linear87" x1="0" y1="0" x2="1" y2="0" gradientUnits="userSpaceOnUse" gradientTransform="matrix(59.5074,86.4715,-86.4715,59.5074,993.46,1178.79)"><stop offset="0" style="stop-color:#09005d;stop-opacity:1"/><stop offset="1" style="stop-color:#1a0f91;stop-opacity:1"/></linearGradient><linearGradient id="_Linear88" x1="0" y1="0" x2="1" y2="0" gradientUnits="userSpaceOnUse" gradientTransform="matrix(59.5073,86.4716,-86.4716,59.5073,990.516,1180.81)"><stop offset="0" style="stop-color:#09005d;stop-opacity:1"/><stop offset="1" style="stop-color:#1a0f91;stop-opacity:1"/></linearGradient><linearGradient id="_Linear89" x1="0" y1="0" x2="1" y2="0" gradientUnits="userSpaceOnUse" gradientTransform="matrix(59.507,86.4711,-86.4711,59.507,988.688,1182.07)"><stop offset="0" style="stop-color:#09005d;stop-opacity:1"/><stop offset="1" style="stop-color:#1a0f91;stop-opacity:1"/></linearGradient><linearGradient id="_Linear90" x1="0" y1="0" x2="1" y2="0" gradientUnits="userSpaceOnUse" gradientTransform="matrix(59.5074,86.4714,-86.4714,59.5074,1005.71,1170.36)"><stop offset="0" style="stop-color:#09005d;stop-opacity:1"/><stop offset="1" style="stop-color:#1a0f91;stop-opacity:1"/></linearGradient><linearGradient id="_Linear91" x1="0" y1="0" x2="1" y2="0" gradientUnits="userSpaceOnUse" gradientTransform="matrix(161.151,-126.275,126.275,161.151,595.262,1142.58)"><stop offset="0" style="stop-color:#fe7062;stop-opacity:1"/><stop offset="1" style="stop-color:#ff928e;stop-opacity:1"/></linearGradient><linearGradient id="_Linear92" x1="0" y1="0" x2="1" y2="0" gradientUnits="userSpaceOnUse" gradientTransform="matrix(41.7906,60.7269,-60.7269,41.7906,720.259,1051.14)"><stop offset="0" style="stop-color:#09005d;stop-opacity:1"/><stop offset="1" style="stop-color:#1a0f91;stop-opacity:1"/></linearGradient><linearGradient id="_Linear93" x1="0" y1="0" x2="1" y2="0" gradientUnits="userSpaceOnUse" gradientTransform="matrix(41.7906,60.7271,-60.7271,41.7906,718.756,1052.17)"><stop offset="0" style="stop-color:#09005d;stop-opacity:1"/><stop offset="1" style="stop-color:#1a0f91;stop-opacity:1"/></linearGradient><linearGradient id="_Linear94" x1="0" y1="0" x2="1" y2="0" gradientUnits="userSpaceOnUse" gradientTransform="matrix(41.7908,60.7272,-60.7272,41.7908,716.943,1053.42)"><stop offset="0" style="stop-color:#09005d;stop-opacity:1"/><stop offset="1" style="stop-color:#1a0f91;stop-opacity:1"/></linearGradient><linearGradient id="_Linear95" x1="0" y1="0" x2="1" y2="0" gradientUnits="userSpaceOnUse" gradientTransform="matrix(41.7906,60.7268,-60.7268,41.7906,713.807,1055.58)"><stop offset="0" style="stop-color:#09005d;stop-opacity:1"/><stop offset="1" style="stop-color:#1a0f91;stop-opacity:1"/></linearGradient><linearGradient id="_Linear96" x1="0" y1="0" x2="1" y2="0" gradientUnits="userSpaceOnUse" gradientTransform="matrix(41.7905,60.7268,-60.7268,41.7905,711.739,1057)"><stop offset="0" style="stop-color:#09005d;stop-opacity:1"/><stop offset="1" style="stop-color:#1a0f91;stop-opacity:1"/></linearGradient><linearGradient id="_Linear97" x1="0" y1="0" x2="1" y2="0" gradientUnits="userSpaceOnUse" gradientTransform="matrix(41.7906,60.7267,-60.7267,41.7906,710.455,1057.88)"><stop offset="0" style="stop-color:#09005d;stop-opacity:1"/><stop offset="1" style="stop-color:#1a0f91;stop-opacity:1"/></linearGradient><linearGradient id="_Linear98" x1="0" y1="0" x2="1" y2="0" gradientUnits="userSpaceOnUse" gradientTransform="matrix(41.7905,60.7268,-60.7268,41.7905,722.409,1049.66)"><stop offset="0" style="stop-color:#09005d;stop-opacity:1"/><stop offset="1" style="stop-color:#1a0f91;stop-opacity:1"/></linearGradient><linearGradient id="_Linear99" x1="0" y1="0" x2="1" y2="0" gradientUnits="userSpaceOnUse" gradientTransform="matrix(228.499,-186.407,186.407,228.499,669.139,1215.4)"><stop offset="0" style="stop-color:#fe7062;stop-opacity:1"/><stop offset="0.53" style="stop-color:#fe7164;stop-opacity:1"/><stop offset="0.86" style="stop-color:#fe8076;stop-opacity:1"/><stop offset="0.97" style="stop-color:#ff8d87;stop-opacity:1"/><stop offset="1" style="stop-color:#ff928e;stop-opacity:1"/></linearGradient><linearGradient id="_Linear100" x1="0" y1="0" x2="1" y2="0" gradientUnits="userSpaceOnUse" gradientTransform="matrix(41.8605,60.8284,-60.8284,41.8605,870.132,1053.26)"><stop offset="0" style="stop-color:#09005d;stop-opacity:1"/><stop offset="1" style="stop-color:#1a0f91;stop-opacity:1"/></linearGradient><linearGradient id="_Linear101" x1="0" y1="0" x2="1" y2="0" gradientUnits="userSpaceOnUse" gradientTransform="matrix(41.7473,60.6639,-60.6639,41.7473,868.965,1054.33)"><stop offset="0" style="stop-color:#09005d;stop-opacity:1"/><stop offset="1" style="stop-color:#1a0f91;stop-opacity:1"/></linearGradient><linearGradient id="_Linear102" x1="0" y1="0" x2="1" y2="0" gradientUnits="userSpaceOnUse" gradientTransform="matrix(41.8038,60.746,-60.746,41.8038,867.505,1055.56)"><stop offset="0" style="stop-color:#09005d;stop-opacity:1"/><stop offset="1" style="stop-color:#1a0f91;stop-opacity:1"/></linearGradient><linearGradient id="_Linear103" x1="0" y1="0" x2="1" y2="0" gradientUnits="userSpaceOnUse" gradientTransform="matrix(41.5886,60.4333,-60.4333,41.5886,865.008,1057.76)"><stop offset="0" style="stop-color:#09005d;stop-opacity:1"/><stop offset="1" style="stop-color:#1a0f91;stop-opacity:1"/></linearGradient><linearGradient id="_Linear104" x1="0" y1="0" x2="1" y2="0" gradientUnits="userSpaceOnUse" gradientTransform="matrix(41.6337,60.4989,-60.4989,41.6337,863.345,1059.17)"><stop offset="0" style="stop-color:#09005d;stop-opacity:1"/><stop offset="1" style="stop-color:#1a0f91;stop-opacity:1"/></linearGradient><linearGradient id="_Linear105" x1="0" y1="0" x2="1" y2="0" gradientUnits="userSpaceOnUse" gradientTransform="matrix(41.8023,60.7439,-60.7439,41.8023,862.304,1060.03)"><stop offset="0" style="stop-color:#09005d;stop-opacity:1"/><stop offset="1" style="stop-color:#1a0f91;stop-opacity:1"/></linearGradient><linearGradient id="_Linear106" x1="0" y1="0" x2="1" y2="0" gradientUnits="userSpaceOnUse" gradientTransform="matrix(41.685,60.5733,-60.5733,41.685,871.851,1051.83)"><stop offset="0" style="stop-color:#09005d;stop-opacity:1"/><stop offset="1" style="stop-color:#1a0f91;stop-opacity:1"/></linearGradient><linearGradient id="_Linear107" x1="0" y1="0" x2="1" y2="0" gradientUnits="userSpaceOnUse" gradientTransform="matrix(220.08,-126.275,126.275,220.08,857.023,1156.92)"><stop offset="0" style="stop-color:#fe7062;stop-opacity:1"/><stop offset="1" style="stop-color:#ff928e;stop-opacity:1"/></linearGradient><linearGradient id="_Linear108" x1="0" y1="0" x2="1" y2="0" gradientUnits="userSpaceOnUse" gradientTransform="matrix(41.8605,60.8283,-60.8283,41.8605,1016.11,1057.7)"><stop offset="0" style="stop-color:#09005d;stop-opacity:1"/><stop offset="1" style="stop-color:#1a0f91;stop-opacity:1"/></linearGradient><linearGradient id="_Linear109" x1="0" y1="0" x2="1" y2="0" gradientUnits="userSpaceOnUse" gradientTransform="matrix(41.7472,60.6639,-60.6639,41.7472,1014.95,1058.77)"><stop offset="0" style="stop-color:#09005d;stop-opacity:1"/><stop offset="1" style="stop-color:#1a0f91;stop-opacity:1"/></linearGradient><linearGradient id="_Linear110" x1="0" y1="0" x2="1" y2="0" gradientUnits="userSpaceOnUse" gradientTransform="matrix(41.8039,60.7461,-60.7461,41.8039,1013.49,1060)"><stop offset="0" style="stop-color:#09005d;stop-opacity:1"/><stop offset="1" style="stop-color:#1a0f91;stop-opacity:1"/></linearGradient><linearGradient id="_Linear111" x1="0" y1="0" x2="1" y2="0" gradientUnits="userSpaceOnUse" gradientTransform="matrix(41.5885,60.4332,-60.4332,41.5885,1010.99,1062.19)"><stop offset="0" style="stop-color:#09005d;stop-opacity:1"/><stop offset="1" style="stop-color:#1a0f91;stop-opacity:1"/></linearGradient><linearGradient id="_Linear112" x1="0" y1="0" x2="1" y2="0" gradientUnits="userSpaceOnUse" gradientTransform="matrix(41.6337,60.4989,-60.4989,41.6337,1009.32,1063.6)"><stop offset="0" style="stop-color:#09005d;stop-opacity:1"/><stop offset="1" style="stop-color:#1a0f91;stop-opacity:1"/></linearGradient><linearGradient id="_Linear113" x1="0" y1="0" x2="1" y2="0" gradientUnits="userSpaceOnUse" gradientTransform="matrix(41.8022,60.7436,-60.7436,41.8022,1008.28,1064.47)"><stop offset="0" style="stop-color:#09005d;stop-opacity:1"/><stop offset="1" style="stop-color:#1a0f91;stop-opacity:1"/></linearGradient><linearGradient id="_Linear114" x1="0" y1="0" x2="1" y2="0" gradientUnits="userSpaceOnUse" gradientTransform="matrix(41.6848,60.5731,-60.5731,41.6848,1017.83,1056.27)"><stop offset="0" style="stop-color:#09005d;stop-opacity:1"/><stop offset="1" style="stop-color:#1a0f91;stop-opacity:1"/></linearGradient></defs></svg>