<svg width="327" height="344" viewBox="0 0 327 344" fill="none" xmlns="http://www.w3.org/2000/svg">
<g clip-path="url(#clip0_299_2)">
<path fill-rule="evenodd" clip-rule="evenodd" d="M165.247 312.312C87.1081 312.312 23.5371 248.741 23.5371 170.602C23.5371 141.681 32.2471 114.753 47.1801 92.308L47.4831 93.841C33.0411 115.924 24.6341 142.303 24.6341 170.602C24.6341 248.136 87.7131 311.214 165.247 311.214C242.781 311.214 305.86 248.136 305.86 170.602C305.86 93.068 242.781 29.989 165.247 29.989C122.988 29.989 85.0221 48.729 59.2241 78.334H57.7731C83.7821 48.08 122.314 28.892 165.247 28.892C243.387 28.892 306.958 92.462 306.958 170.602C306.958 248.741 243.387 312.312 165.247 312.312Z" fill="url(#paint0_linear_299_2)"/>
<path fill-rule="evenodd" clip-rule="evenodd" d="M0.5 143.642C0.224 143.642 0 143.418 0 143.142C0 105.564 15.46 70.062 43.531 43.174C71.319 16.559 107.612 1.901 145.724 1.901C146 1.901 146.224 2.125 146.224 2.401C146.224 2.677 146 2.901 145.724 2.901C67.275 2.901 1 67.123 1 143.142C1 143.418 0.776 143.642 0.5 143.642Z" fill="url(#paint1_linear_299_2)"/>
<path d="M149.051 2.5C149.051 3.88 147.932 5 146.551 5C145.171 5 144.051 3.88 144.051 2.5C144.051 1.119 145.171 0 146.551 0C147.932 0 149.051 1.119 149.051 2.5Z" fill="#8CC3FF"/>
<path fill-rule="evenodd" clip-rule="evenodd" d="M180.364 342.623C180.088 342.623 179.864 342.4 179.864 342.123C179.864 341.847 180.088 341.623 180.364 341.623C258.813 341.623 325.087 277.4 325.087 201.382C325.087 201.106 325.311 200.882 325.587 200.882C325.864 200.882 326.087 201.106 326.087 201.382C326.087 238.96 310.628 274.462 282.557 301.349C254.769 327.965 218.476 342.623 180.364 342.623Z" fill="url(#paint2_linear_299_2)"/>
<path d="M181.426 342.025C181.426 342.928 180.695 343.659 179.792 343.659C178.89 343.659 178.159 342.928 178.159 342.025C178.159 341.123 178.89 340.392 179.792 340.392C180.695 340.392 181.426 341.123 181.426 342.025Z" fill="#8CC3FF"/>
<path fill-rule="evenodd" clip-rule="evenodd" d="M214.577 216.467C214.577 220.464 211.337 223.703 207.341 223.703C203.344 223.703 200.104 220.464 200.104 216.467C200.104 212.471 203.344 209.231 207.341 209.231C211.337 209.231 214.577 212.471 214.577 216.467Z" fill="url(#paint3_linear_299_2)"/>
<path fill-rule="evenodd" clip-rule="evenodd" d="M31.3221 146.576C31.3221 150.572 28.0831 153.812 24.0851 153.812C20.0891 153.812 16.8491 150.572 16.8491 146.576C16.8491 142.579 20.0891 139.339 24.0851 139.339C28.0831 139.339 31.3221 142.579 31.3221 146.576Z" fill="url(#paint4_linear_299_2)"/>
<path d="M41.1999 184.676C41.1999 193.671 33.9089 200.962 24.9139 200.962C15.9189 200.962 8.62793 193.671 8.62793 184.676C8.62793 175.682 15.9189 168.391 24.9139 168.391C33.9089 168.391 41.1999 175.682 41.1999 184.676Z" fill="white"/>
<path fill-rule="evenodd" clip-rule="evenodd" d="M24.9139 168.891C16.2099 168.891 9.12793 175.972 9.12793 184.676C9.12793 193.38 16.2099 200.462 24.9139 200.462C33.6189 200.462 40.6999 193.38 40.6999 184.676C40.6999 175.972 33.6189 168.891 24.9139 168.891ZM24.9139 201.462C15.6579 201.462 8.12793 193.932 8.12793 184.676C8.12793 175.421 15.6579 167.891 24.9139 167.891C34.1699 167.891 41.6999 175.421 41.6999 184.676C41.6999 193.932 34.1699 201.462 24.9139 201.462Z" fill="url(#paint5_linear_299_2)"/>
<path fill-rule="evenodd" clip-rule="evenodd" d="M24.771 190.536C21.377 190.536 18.627 187.785 18.627 184.392C18.627 180.998 21.377 178.248 24.771 178.248C28.165 178.248 30.915 180.998 30.915 184.392C30.915 187.785 28.165 190.536 24.771 190.536ZM24.771 172.749C18.34 172.749 13.127 177.961 13.127 184.392C13.127 190.822 18.34 196.035 24.771 196.035C31.202 196.035 36.415 190.822 36.415 184.392C36.415 177.961 31.202 172.749 24.771 172.749Z" fill="url(#paint6_linear_299_2)"/>
<path fill-rule="evenodd" clip-rule="evenodd" d="M262.319 251.462H221.176C219.401 251.462 217.961 250.023 217.961 248.248C217.961 246.473 219.401 245.033 221.176 245.033H262.319C264.094 245.033 265.533 246.473 265.533 248.248C265.533 250.023 264.094 251.462 262.319 251.462Z" fill="url(#paint7_linear_299_2)"/>
<path fill-rule="evenodd" clip-rule="evenodd" d="M262.319 261.962H221.176C219.401 261.962 217.961 260.523 217.961 258.748C217.961 256.973 219.401 255.533 221.176 255.533H262.319C264.094 255.533 265.533 256.973 265.533 258.748C265.533 260.523 264.094 261.962 262.319 261.962Z" fill="url(#paint8_linear_299_2)"/>
<path fill-rule="evenodd" clip-rule="evenodd" d="M311.648 167.433C311.648 170.462 309.192 172.919 306.162 172.919C303.132 172.919 300.676 170.462 300.676 167.433C300.676 164.403 303.132 161.947 306.162 161.947C309.192 161.947 311.648 164.403 311.648 167.433Z" fill="url(#paint9_linear_299_2)"/>
<path d="M209.615 91.668H236.334C238.679 91.668 240.821 92.996 241.863 95.096L243.899 99.2C245.11 101.641 247.6 103.185 250.324 103.185H298.472V102.185H250.324C247.98 102.185 245.837 100.856 244.795 98.756L242.759 94.652C241.548 92.211 239.059 90.668 236.334 90.668H209.615V91.668Z" fill="#8CC3FF"/>
<path d="M210.115 91.1681H209.115C209.114 92.3031 208.656 93.3271 207.912 94.0721C207.167 94.8161 206.143 95.2741 205.007 95.2741C203.872 95.2741 202.848 94.8161 202.103 94.0721C201.359 93.3271 200.901 92.3031 200.9 91.1681C200.901 90.0321 201.359 89.0081 202.103 88.2631C202.848 87.5191 203.872 87.0601 205.007 87.0601C206.143 87.0601 207.167 87.5191 207.912 88.2631C208.656 89.0081 209.114 90.0321 209.115 91.1681H210.115C210.114 88.3471 207.829 86.0601 205.007 86.0601C202.186 86.0601 199.901 88.3471 199.9 91.1681C199.901 93.9881 202.187 96.2741 205.007 96.2741C207.829 96.2741 210.114 93.9881 210.115 91.1681Z" fill="#8CC3FF"/>
<path d="M308.186 102.685H307.186C307.186 103.82 306.727 104.844 305.983 105.589C305.238 106.333 304.215 106.792 303.079 106.792C301.943 106.792 300.92 106.333 300.175 105.589C299.431 104.844 298.972 103.82 298.972 102.685C298.972 101.549 299.431 100.525 300.175 99.781C300.92 99.037 301.943 98.578 303.079 98.578C304.215 98.578 305.238 99.037 305.983 99.781C306.727 100.525 307.186 101.549 307.186 102.685H308.186C308.186 99.864 305.9 97.578 303.079 97.578C300.258 97.578 297.972 99.864 297.972 102.685C297.972 105.505 300.258 107.792 303.079 107.792C305.9 107.792 308.186 105.505 308.186 102.685Z" fill="#8CC3FF"/>
<path d="M305.221 102.685C305.221 103.868 304.262 104.827 303.079 104.827C301.896 104.827 300.937 103.868 300.937 102.685C300.937 101.502 301.896 100.543 303.079 100.543C304.262 100.543 305.221 101.502 305.221 102.685Z" fill="#8CC3FF"/>
<path d="M57.5309 299.369H56.5309C56.5309 300.505 56.0719 301.528 55.3289 302.273C54.5839 303.017 53.5609 303.475 52.4249 303.476C51.2889 303.475 50.2649 303.017 49.5199 302.273C48.7759 301.528 48.3179 300.505 48.3169 299.369C48.3179 298.233 48.7759 297.21 49.5199 296.465C50.2649 295.721 51.2889 295.262 52.4249 295.262C53.5609 295.262 54.5839 295.721 55.3289 296.465C56.0719 297.21 56.5309 298.233 56.5309 299.369H57.5309C57.5309 296.548 55.2459 294.262 52.4249 294.262C49.6039 294.262 47.3179 296.548 47.3169 299.369C47.3179 302.19 49.6039 304.475 52.4249 304.476C55.2459 304.475 57.5309 302.19 57.5309 299.369Z" fill="#8CC3FF"/>
<path d="M49.8751 329.512H48.8751C48.8751 330.647 48.4171 331.671 47.6731 332.416C46.9281 333.16 45.9041 333.619 44.7691 333.619C43.6331 333.619 42.6091 333.16 41.8651 332.416C41.1211 331.671 40.6621 330.647 40.6621 329.512C40.6621 328.376 41.1211 327.352 41.8641 326.607C42.6091 325.863 43.6331 325.405 44.7691 325.404C45.9041 325.405 46.9281 325.863 47.6731 326.607C48.4171 327.352 48.8751 328.376 48.8751 329.512H49.8751C49.8751 326.691 47.5891 324.405 44.7691 324.404C41.9481 324.405 39.6621 326.691 39.6621 329.512C39.6621 332.332 41.9481 334.619 44.7691 334.619C47.5891 334.619 49.8751 332.332 49.8751 329.512Z" fill="#8CC3FF"/>
<path d="M47.327 329.512C47.327 330.925 46.182 332.07 44.769 332.07C43.355 332.07 42.21 330.925 42.21 329.512C42.21 328.099 43.355 326.953 44.769 326.953C46.182 326.953 47.327 328.099 47.327 329.512Z" fill="#8CC3FF"/>
<path d="M156.606 321.226H155.606C155.606 322.362 155.148 323.385 154.404 324.13C153.659 324.874 152.635 325.333 151.5 325.333C150.364 325.333 149.34 324.874 148.595 324.13C147.851 323.385 147.392 322.362 147.392 321.226C147.392 320.09 147.851 319.067 148.595 318.322C149.34 317.578 150.364 317.119 151.5 317.119C152.635 317.119 153.659 317.578 154.404 318.322C155.148 319.067 155.606 320.09 155.606 321.226H156.606C156.606 318.405 154.32 316.12 151.5 316.119C148.679 316.12 146.392 318.405 146.392 321.226C146.392 324.047 148.679 326.333 151.5 326.333C154.32 326.333 156.606 324.047 156.606 321.226Z" fill="#8CC3FF"/>
<path d="M154.058 321.226C154.058 322.639 152.913 323.784 151.5 323.784C150.086 323.784 148.941 322.639 148.941 321.226C148.941 319.813 150.086 318.667 151.5 318.667C152.913 318.667 154.058 319.813 154.058 321.226Z" fill="#8CC3FF"/>
<path d="M70.4551 311.743H101.887C104.057 311.743 106.011 313.057 106.831 315.067L108.443 319.018C109.11 320.655 110.703 321.726 112.471 321.726H147.416V320.726H112.471C111.109 320.726 109.883 319.901 109.369 318.64L107.757 314.689C106.784 312.303 104.463 310.743 101.887 310.743H70.4551V311.743Z" fill="#8CC3FF"/>
<path fill-rule="evenodd" clip-rule="evenodd" d="M100.31 319.797H78.2759C76.7959 319.797 75.5969 318.598 75.5969 317.119C75.5969 315.64 76.7959 314.441 78.2759 314.441H100.31C101.789 314.441 102.988 315.64 102.988 317.119C102.988 318.598 101.789 319.797 100.31 319.797Z" fill="url(#paint10_linear_299_2)"/>
<path d="M56.4549 299.869H67.6689C68.9309 299.871 69.9519 300.893 69.9549 302.154V321.012C69.9519 322.273 68.9309 323.295 67.6689 323.297H58.2399C56.4249 323.297 54.9549 324.769 54.9549 326.583V326.726C54.9519 327.988 53.9309 329.01 52.6689 329.012H49.1689V330.012H52.6689C54.4829 330.011 55.9539 328.541 55.9549 326.726V326.583C55.9569 325.321 56.9769 324.299 58.2399 324.297H67.6689C69.4829 324.297 70.9539 322.826 70.9549 321.012V302.154C70.9539 300.34 69.4829 298.87 67.6689 298.869H56.4549V299.869Z" fill="#8CC3FF"/>
<path fill-rule="evenodd" clip-rule="evenodd" d="M21.6229 273.051H15.8369V243.801C15.8369 242.203 17.1319 240.908 18.7299 240.908C20.3269 240.908 21.6229 242.203 21.6229 243.801V273.051Z" fill="url(#paint11_linear_299_2)"/>
<path fill-rule="evenodd" clip-rule="evenodd" d="M31.2821 273.051H25.4961V256.519C25.4961 254.921 26.7911 253.626 28.3891 253.626C29.9871 253.626 31.2821 254.921 31.2821 256.519V273.051Z" fill="url(#paint12_linear_299_2)"/>
<path fill-rule="evenodd" clip-rule="evenodd" d="M41.826 273.051H36.04V266.232C36.04 264.634 37.335 263.339 38.933 263.339C40.531 263.339 41.826 264.634 41.826 266.232V273.051Z" fill="url(#paint13_linear_299_2)"/>
<path d="M41.8259 275.301H15.8369V276.587H41.8259V275.301Z" fill="url(#paint14_linear_299_2)"/>
<path d="M230.087 70.926C216.204 70.926 204.909 59.632 204.909 45.749C204.909 31.865 216.204 20.571 230.087 20.571C243.97 20.571 255.265 31.865 255.265 45.749C255.265 59.632 243.97 70.926 230.087 70.926Z" fill="white"/>
<path fill-rule="evenodd" clip-rule="evenodd" d="M230.087 21.071C216.48 21.071 205.409 32.141 205.409 45.749C205.409 59.356 216.48 70.426 230.087 70.426C243.694 70.426 254.765 59.356 254.765 45.749C254.765 32.141 243.694 21.071 230.087 21.071ZM230.087 71.426C215.928 71.426 204.409 59.907 204.409 45.749C204.409 31.589 215.928 20.071 230.087 20.071C244.246 20.071 255.765 31.589 255.765 45.749C255.765 59.907 244.246 71.426 230.087 71.426Z" fill="url(#paint15_linear_299_2)"/>
<path fill-rule="evenodd" clip-rule="evenodd" d="M251.373 45.749C251.373 57.504 241.843 67.035 230.087 67.035C218.33 67.035 208.8 57.504 208.8 45.749C208.8 33.992 218.33 24.462 230.087 24.462C241.843 24.462 251.373 33.992 251.373 45.749Z" fill="url(#paint16_linear_299_2)"/>
<path fill-rule="evenodd" clip-rule="evenodd" d="M164.176 23.462H124.747C122.38 23.462 120.461 25.381 120.461 27.748V35.033C120.461 37.4 122.38 39.319 124.747 39.319H155.333L160.832 45.307C162.07 46.656 164.319 45.78 164.319 43.949V39.305C166.618 39.228 168.461 37.352 168.461 35.033V27.748C168.461 25.381 166.543 23.462 164.176 23.462Z" fill="url(#paint17_linear_299_2)"/>
<path d="M131.11 31.112C131.11 32.036 130.361 32.785 129.438 32.785C128.515 32.785 127.766 32.036 127.766 31.112C127.766 30.189 128.515 29.441 129.438 29.441C130.361 29.441 131.11 30.189 131.11 31.112Z" fill="white"/>
<path d="M139.253 31.112C139.253 32.036 138.504 32.785 137.581 32.785C136.657 32.785 135.909 32.036 135.909 31.112C135.909 30.189 136.657 29.441 137.581 29.441C138.504 29.441 139.253 30.189 139.253 31.112Z" fill="white"/>
<path d="M147.396 31.112C147.396 32.036 146.647 32.785 145.724 32.785C144.8 32.785 144.051 32.036 144.051 31.112C144.051 30.189 144.8 29.441 145.724 29.441C146.647 29.441 147.396 30.189 147.396 31.112Z" fill="white"/>
<path d="M155.539 31.112C155.539 32.036 154.79 32.785 153.867 32.785C152.943 32.785 152.194 32.036 152.194 31.112C152.194 30.189 152.943 29.441 153.867 29.441C154.79 29.441 155.539 30.189 155.539 31.112Z" fill="white"/>
<path fill-rule="evenodd" clip-rule="evenodd" d="M111.687 44.749H151.116C153.483 44.749 155.401 46.667 155.401 49.034V56.32C155.401 58.687 153.483 60.606 151.116 60.606H120.53L115.031 66.594C113.793 67.942 111.544 67.066 111.544 65.236V60.591C109.245 60.514 107.401 58.638 107.401 56.32V49.034C107.401 46.667 109.32 44.749 111.687 44.749Z" fill="url(#paint18_linear_299_2)"/>
<path d="M121.295 52.142C121.295 53.066 120.546 53.814 119.623 53.814C118.699 53.814 117.951 53.066 117.951 52.142C117.951 51.218 118.699 50.47 119.623 50.47C120.546 50.47 121.295 51.218 121.295 52.142Z" fill="white"/>
<path d="M129.438 52.142C129.438 53.066 128.689 53.814 127.766 53.814C126.842 53.814 126.094 53.066 126.094 52.142C126.094 51.218 126.842 50.47 127.766 50.47C128.689 50.47 129.438 51.218 129.438 52.142Z" fill="white"/>
<path d="M137.581 52.142C137.581 53.066 136.832 53.814 135.909 53.814C134.985 53.814 134.236 53.066 134.236 52.142C134.236 51.218 134.985 50.47 135.909 50.47C136.832 50.47 137.581 51.218 137.581 52.142Z" fill="white"/>
<path d="M145.724 52.142C145.724 53.066 144.975 53.814 144.051 53.814C143.128 53.814 142.379 53.066 142.379 52.142C142.379 51.218 143.128 50.47 144.051 50.47C144.975 50.47 145.724 51.218 145.724 52.142Z" fill="white"/>
<path fill-rule="evenodd" clip-rule="evenodd" d="M233.988 118.301C231.377 118.301 229.252 120.426 229.252 123.037V155.037C229.252 157.65 231.377 159.775 233.988 159.775H263.417C266.029 159.775 268.154 157.65 268.154 155.037V123.037C268.154 120.426 266.029 118.301 263.417 118.301H233.988ZM263.417 160.872H233.988C230.771 160.872 228.154 158.255 228.154 155.037V123.037C228.154 119.82 230.771 117.203 233.988 117.203H263.417C266.634 117.203 269.252 119.82 269.252 123.037V155.037C269.252 158.255 266.634 160.872 263.417 160.872Z" fill="url(#paint19_linear_299_2)"/>
<path fill-rule="evenodd" clip-rule="evenodd" d="M259.881 156.889H230.453C227.533 156.889 225.167 154.523 225.167 151.605V119.603C225.167 116.684 227.533 114.318 230.453 114.318H259.881C262.8 114.318 265.167 116.684 265.167 119.603V151.605C265.167 154.523 262.8 156.889 259.881 156.889Z" fill="url(#paint20_linear_299_2)"/>
<path d="M46.778 90.279L82.399 270.13C83.862 277.517 91.847 281.591 98.686 278.442L154.735 252.636C160.574 249.947 163.799 243.598 162.526 237.297L132.425 88.297C131.254 82.501 126.16 78.334 120.247 78.334H56.589C50.285 78.334 45.553 84.095 46.778 90.279Z" fill="#052C49"/>
<path d="M107.862 262.252L107.86 262.251L107.863 262.25L137.62 249.281L137.622 249.282L107.862 262.252ZM88.9229 247.263L88.9209 247.262L79.6909 201.382L79.6929 201.384L88.9229 247.261V247.263Z" fill="#4D7A8F"/>
<path d="M67.401 140.322L60.752 107.292L67.403 140.32L67.404 140.324" fill="#4D7A8F"/>
<path fill-rule="evenodd" clip-rule="evenodd" d="M60.752 107.292L60.753 107.29L57.023 88.7309C56.533 86.3199 58.373 84.0699 60.833 84.0699H86.723L86.893 84.5499C87.563 86.4499 89.373 87.7299 91.393 87.7299H105.563H105.596L105.628 87.7289C105.639 87.7289 105.65 87.7279 105.661 87.7279L105.693 87.7269C105.726 87.7249 105.758 87.7229 105.79 87.7199C105.822 87.7169 105.853 87.7129 105.885 87.7089L105.916 87.7049L105.93 87.7029C105.967 87.6979 106.004 87.6909 106.041 87.6839C106.101 87.6719 106.16 87.6579 106.218 87.6419L106.222 87.6409L106.247 87.6339C106.284 87.6239 106.321 87.6119 106.358 87.5989L106.369 87.5959C106.379 87.5919 106.388 87.5889 106.398 87.5849L106.421 87.577C106.454 87.5649 106.486 87.5519 106.519 87.5379C106.547 87.5259 106.576 87.5129 106.604 87.4999L106.622 87.4919L106.634 87.4859C106.678 87.4649 106.721 87.4419 106.764 87.4179C106.801 87.3969 106.838 87.3749 106.874 87.3519C106.89 87.3419 106.906 87.3319 106.921 87.3219L106.934 87.313L106.947 87.3049C106.993 87.2729 107.039 87.2389 107.083 87.2039L107.102 87.1889L107.124 87.1709C107.188 87.1179 107.25 87.0619 107.309 87.0029C107.421 86.8889 107.523 86.765 107.611 86.632C107.668 86.547 107.72 86.4579 107.767 86.3659L107.786 86.3279C107.806 86.2859 107.825 86.2429 107.843 86.1999C107.876 86.1189 107.905 86.0369 107.93 85.9529C107.94 85.9169 107.95 85.8799 107.959 85.8439C107.968 85.8089 107.975 85.7729 107.982 85.7379L107.986 85.7199C107.988 85.7099 107.989 85.6999 107.991 85.6909L107.996 85.6609L108 85.6349C108.007 85.5889 108.013 85.5429 108.017 85.4959C108.021 85.4549 108.024 85.4139 108.026 85.3719C108.026 85.3569 108.027 85.3429 108.027 85.3279C108.028 85.3079 108.028 85.2879 108.028 85.2679V85.2219C108.023 84.9939 107.986 84.7619 107.913 84.5299L107.773 84.0699H123.823C124.009 84.0699 124.194 84.0789 124.376 84.0969L124.436 84.1039C124.457 84.1059 124.477 84.1079 124.497 84.1109L124.557 84.1179C124.697 84.1369 124.836 84.1599 124.974 84.1889L125.032 84.202C125.104 84.218 125.176 84.2349 125.247 84.2539C125.43 84.3019 125.61 84.3599 125.785 84.4259L125.829 84.4429C125.847 84.4499 125.865 84.4569 125.884 84.4639L125.939 84.4859C125.957 84.4939 125.975 84.5009 125.993 84.5089L126.042 84.5299C126.11 84.5599 126.177 84.5899 126.244 84.6229C126.273 84.6369 126.301 84.6509 126.33 84.6649C126.397 84.6989 126.462 84.7339 126.527 84.7699C126.85 84.9489 127.153 85.1599 127.433 85.3989C127.705 85.6309 127.954 85.8889 128.178 86.1699C128.201 86.1999 128.224 86.2289 128.247 86.2589C128.458 86.5359 128.644 86.8349 128.802 87.1509C128.833 87.2139 128.863 87.2759 128.891 87.3399C129.057 87.7069 129.185 88.0969 129.27 88.5049L129.273 88.521L135.393 118.53L149.123 185.801L155.403 216.601L159.213 235.271C159.723 237.731 158.433 240.221 156.123 241.221L137.623 249.28L137.621 249.281L137.622 249.282L107.863 262.25L107.86 262.251L99.843 265.75C99.078 266.085 98.288 266.242 97.514 266.242C94.845 266.242 92.369 264.382 91.803 261.561L88.923 247.263V247.261L79.693 201.384V201.38L67.404 140.325L67.401 140.322L67.403 140.32L60.754 107.294L149.122 185.802L60.752 107.292Z" fill="url(#paint21_linear_299_2)"/>
<path fill-rule="evenodd" clip-rule="evenodd" d="M211.051 159.101C211.051 189.834 186.136 214.749 155.404 214.749C124.67 214.749 99.7561 189.834 99.7561 159.101C99.7561 128.367 124.67 103.453 155.404 103.453C186.136 103.453 211.051 128.367 211.051 159.101Z" fill="url(#paint22_linear_299_2)"/>
<path d="M168.482 159.103H167.464C167.464 174.437 166.058 188.321 163.796 198.339C162.666 203.346 161.318 207.388 159.849 210.136C159.116 211.511 158.352 212.559 157.597 213.241C156.839 213.927 156.116 214.24 155.407 214.24C154.697 214.24 153.975 213.927 153.216 213.241C151.89 212.048 150.558 209.73 149.367 206.516C145.776 196.865 143.346 179.226 143.349 159.103C143.349 143.769 144.754 129.885 147.017 119.868C148.147 114.86 149.495 110.819 150.964 108.07C151.697 106.695 152.461 105.647 153.216 104.965C153.975 104.28 154.697 103.967 155.407 103.966C156.116 103.967 156.839 104.28 157.597 104.965C158.923 106.158 160.255 108.476 161.446 111.69C165.037 121.341 167.467 138.98 167.464 159.103H168.482C168.481 143.705 167.074 129.766 164.789 119.643C163.644 114.58 162.285 110.473 160.747 107.59C159.976 106.149 159.162 105.01 158.281 104.211C157.404 103.413 156.432 102.948 155.407 102.948C154.381 102.948 153.41 103.413 152.532 104.211C150.995 105.611 149.641 108.044 148.414 111.336C144.75 121.205 142.335 138.889 142.331 159.103C142.332 174.501 143.739 188.44 146.025 198.563C147.169 203.626 148.529 207.733 150.066 210.616C150.837 212.057 151.651 213.196 152.532 213.996C153.41 214.793 154.381 215.259 155.407 215.258C156.432 215.259 157.404 214.793 158.281 213.996C159.819 212.595 161.172 210.163 162.4 206.87C166.063 197.001 168.478 179.317 168.482 159.103Z" fill="white"/>
<path d="M155.407 173.947V172.929C140.072 172.93 126.188 171.524 116.171 169.261C111.164 168.132 107.122 166.783 104.373 165.314C102.999 164.582 101.951 163.818 101.268 163.063C100.583 162.304 100.27 161.581 100.27 160.872C100.27 160.163 100.583 159.44 101.268 158.681C102.462 157.356 104.78 156.024 107.994 154.833C117.645 151.242 135.284 148.812 155.407 148.815C170.741 148.815 184.625 150.22 194.642 152.483C199.649 153.613 203.691 154.961 206.44 156.43C207.814 157.163 208.862 157.926 209.545 158.681C210.23 159.44 210.543 160.163 210.543 160.872C210.543 161.581 210.23 162.304 209.545 163.063C208.351 164.388 206.033 165.721 202.819 166.911C193.169 170.502 175.529 172.933 155.407 172.929V173.947C170.805 173.946 184.743 172.539 194.866 170.254C199.929 169.11 204.036 167.75 206.919 166.212C208.36 165.442 209.499 164.627 210.299 163.746C211.096 162.869 211.562 161.898 211.561 160.872C211.562 159.846 211.096 158.875 210.299 157.998C208.898 156.46 206.466 155.107 203.173 153.879C193.305 150.216 175.62 147.801 155.407 147.797C140.009 147.798 126.07 149.205 115.947 151.49C110.884 152.635 106.777 153.994 103.894 155.532C102.452 156.303 101.314 157.117 100.514 157.998C99.717 158.875 99.251 159.846 99.252 160.872C99.251 161.898 99.717 162.869 100.514 163.746C101.915 165.284 104.347 166.637 107.64 167.865C117.508 171.528 135.193 173.944 155.407 173.947Z" fill="white"/>
<path d="M182.193 159.103H181.175C181.177 174.403 178.204 188.251 173.427 198.231C171.041 203.221 168.203 207.241 165.087 209.995C161.967 212.751 158.589 214.239 155.061 214.24C151.533 214.239 148.155 212.751 145.035 209.995C140.358 205.865 136.318 198.882 133.469 190.059C130.616 181.236 128.946 170.578 128.946 159.103C128.945 143.803 131.918 129.955 136.694 119.975C139.081 114.985 141.918 110.965 145.035 108.211C148.155 105.456 151.533 103.967 155.061 103.966C158.589 103.967 161.967 105.456 165.087 108.211C169.763 112.341 173.803 119.324 176.653 128.147C179.505 136.97 181.176 147.628 181.175 159.103H182.193C182.192 143.671 179.205 129.696 174.345 119.536C171.914 114.456 169.014 110.326 165.761 107.449C162.51 104.573 158.885 102.947 155.061 102.948C151.237 102.947 147.611 104.573 144.361 107.449C139.482 111.766 135.392 118.895 132.5 127.834C129.611 136.774 127.929 147.529 127.929 159.103C127.93 174.535 130.917 188.51 135.776 198.67C138.208 203.75 141.107 207.88 144.361 210.757C147.611 213.633 151.237 215.259 155.061 215.258C158.885 215.259 162.51 213.633 165.761 210.757C170.639 206.44 174.73 199.311 177.621 190.372C180.511 181.433 182.193 170.677 182.193 159.103Z" fill="white"/>
<path d="M196.114 159.099H195.096C195.097 174.366 190.622 188.178 183.419 198.148C176.21 208.122 166.308 214.236 155.407 214.235C144.505 214.236 134.603 208.122 127.394 198.148C120.191 188.178 115.716 174.366 115.717 159.099C115.716 143.832 120.191 130.019 127.394 120.049C134.603 110.076 144.505 103.962 155.407 103.962C166.308 103.962 176.21 110.076 183.419 120.049C190.622 130.019 195.097 143.832 195.096 159.099H196.114C196.113 143.633 191.589 129.623 184.244 119.453C176.903 109.287 166.706 102.945 155.407 102.944C144.107 102.945 133.91 109.287 126.569 119.453C119.224 129.623 114.7 143.633 114.699 159.099C114.7 174.564 119.224 188.574 126.569 198.744C133.91 208.91 144.107 215.253 155.407 215.253C166.706 215.253 176.903 208.91 184.244 198.744C191.589 188.574 196.113 174.564 196.114 159.099Z" fill="white"/>
<g clip-path="url(#clip1_299_2)">
<path fill-rule="evenodd" clip-rule="evenodd" d="M234.984 37.8994C235.301 37.5827 235.778 37.4884 236.192 37.6593C236.606 37.8302 236.875 38.2338 236.875 38.6827C236.875 39.1301 236.606 39.5337 236.192 39.7049C235.778 39.8771 235.301 39.7815 234.984 39.4648C234.551 39.0322 234.551 38.3319 234.984 37.8994ZM235.768 38.3458C235.63 38.3458 235.508 38.4275 235.457 38.553C235.404 38.6789 235.433 38.8234 235.53 38.9202C235.626 39.0158 235.77 39.0448 235.896 38.9933C236.022 38.9405 236.104 38.8185 236.104 38.6827C236.104 38.4967 235.953 38.3458 235.768 38.3458ZM238.889 43.9956L238.892 41.8911C238.624 42.1325 238.305 42.3111 237.959 42.4103V43.9956H238.889ZM241.661 53.8079H218.514C217.326 53.813 216.365 54.7734 216.36 55.959V56.1612C216.365 57.3481 217.327 58.3098 218.515 58.3136H241.661C242.849 58.3098 243.812 57.3481 243.816 56.1612V55.959C243.812 54.7721 242.849 53.8117 241.661 53.8079ZM239.901 54.9192C240.446 54.375 241.301 54.2906 241.941 54.7193C242.582 55.1467 242.831 55.9664 242.537 56.678C242.241 57.3896 241.485 57.7932 240.728 57.6436C239.973 57.4926 239.428 56.8303 239.428 56.0607C239.428 55.6321 239.599 55.222 239.901 54.9192ZM241.044 55.2172C241.326 55.2172 241.589 55.3579 241.745 55.5918C241.902 55.8268 241.931 56.1235 241.823 56.3826C241.715 56.643 241.485 56.8325 241.209 56.8866C240.932 56.9419 240.646 56.8554 240.448 56.6565C240.206 56.4151 240.133 56.053 240.264 55.7376C240.395 55.4222 240.702 55.2172 241.044 55.2172ZM217.986 54.9192C218.531 54.375 219.386 54.2906 220.026 54.7193C220.667 55.1467 220.916 55.9664 220.621 56.678C220.326 57.3896 219.57 57.7932 218.813 57.6436C218.057 57.4926 217.513 56.8303 217.513 56.0607C217.513 55.6321 217.683 55.222 217.986 54.9192ZM219.129 55.2172C219.411 55.2172 219.674 55.3579 219.83 55.5918C219.988 55.8268 220.017 56.1235 219.908 56.3826C219.8 56.643 219.57 56.8325 219.293 56.8866C219.017 56.9419 218.731 56.8554 218.533 56.6565C218.291 56.4151 218.218 56.053 218.349 55.7376C218.48 55.4232 218.788 55.2172 219.129 55.2172ZM234.621 55.4258L234.62 55.427C234.406 55.427 234.233 55.2536 234.233 55.0412C234.233 54.8275 234.406 54.654 234.62 54.654H238.027C238.241 54.654 238.413 54.8275 238.413 55.0412C238.413 55.2536 238.241 55.427 238.027 55.427L234.621 55.4258ZM238.027 56.6945C238.241 56.6945 238.413 56.8666 238.413 57.0803C238.413 57.294 238.241 57.4662 238.027 57.4662H234.621C234.407 57.4662 234.235 57.294 234.235 57.0803C234.235 56.8666 234.407 56.6945 234.621 56.6945H238.027ZM222.147 55.427C221.933 55.427 221.761 55.2536 221.761 55.0412C221.761 54.8275 221.933 54.654 222.147 54.654H225.553C225.767 54.654 225.94 54.8275 225.94 55.0412C225.94 55.2536 225.767 55.427 225.553 55.427H222.147ZM225.553 56.6945C225.767 56.6945 225.94 56.8666 225.94 57.0803C225.94 57.294 225.767 57.4662 225.553 57.4662H222.147C221.933 57.4662 221.761 57.294 221.761 57.0803C221.761 56.8666 221.933 56.6945 222.147 56.6945H225.553ZM228.384 55.427C228.17 55.427 227.998 55.2536 227.998 55.0412C227.998 54.8275 228.17 54.654 228.384 54.654H231.79C232.004 54.654 232.176 54.8275 232.176 55.0412C232.176 55.2536 232.004 55.427 231.79 55.427H228.384ZM231.79 56.6945C232.004 56.6945 232.176 56.8666 232.176 57.0803C232.176 57.294 232.004 57.4662 231.79 57.4662H228.384C228.17 57.4662 227.998 57.294 227.998 57.0803C227.998 56.8666 228.17 56.6945 228.384 56.6945H231.79ZM222.19 35.995C222.656 36.1534 223.07 36.4324 223.392 36.8032L225.348 34.3379L224.987 34.1593V34.1606C224.662 33.9745 224.418 33.6778 224.298 33.3235L222.191 35.995H222.19ZM217.755 40.8603L217.661 44.1678L219.611 44.2232L219.169 41.2874C219.145 41.1303 219.221 40.9745 219.36 40.8954L219.528 40.7885H219.526C219.13 40.4667 218.829 40.0415 218.657 39.5601L217.754 40.86L217.755 40.8603ZM223.304 38.6689C223.285 39.6318 222.587 40.4477 221.637 40.615C220.687 40.7834 219.752 40.2568 219.403 39.3579C219.056 38.459 219.393 37.4407 220.208 36.9264C221.023 36.4121 222.089 36.5454 222.751 37.2457C223.116 37.6293 223.315 38.142 223.304 38.6702V38.6689ZM223.39 41.026H223.388C223.505 41.1142 223.562 41.26 223.535 41.4019L222.993 44.3188L224.589 44.3638L224.683 41.0576L223.855 39.7062C223.683 40.1162 223.415 40.4783 223.073 40.7634L223.388 41.0251L223.39 41.026ZM232.766 33.869C232.242 33.3473 231.456 33.1915 230.773 33.4744C230.091 33.7573 229.645 34.4222 229.645 35.1602C229.645 35.8995 230.091 36.5644 230.773 36.8473C231.456 37.1302 232.242 36.9744 232.766 36.4527C233.479 35.7385 233.479 34.5831 232.766 33.869ZM228.872 35.1827L225.41 33.5146C225.109 33.3373 224.942 32.999 224.982 32.6521C225.024 32.3064 225.266 32.0171 225.601 31.9154C225.852 31.8514 226.117 31.8765 226.351 31.9859L229.55 33.4126C229.108 33.8954 228.866 34.5278 228.872 35.1827ZM234.025 35.6529C233.864 36.4826 233.309 37.183 232.538 37.5299C232.592 37.8266 232.745 38.097 232.973 38.2956L236.54 41.3894C236.817 41.6295 237.18 41.7441 237.543 41.7077C238.612 41.6147 239.605 39.9765 238.56 39.0686L234.993 35.9735C234.727 35.7421 234.378 35.6265 234.025 35.6516V35.6529ZM242.095 50.5985H234.856V53.0361H241.66C241.806 53.0361 241.951 53.0477 242.095 53.0689V50.5985ZM242.095 47.5008H238.861V49.828H242.095V47.5008ZM238.09 49.828H234.856V47.5864C234.861 46.0313 236.121 44.7716 237.678 44.7664H239.258C240.49 44.7639 241.584 45.5585 241.961 46.7303H238.475C238.262 46.7303 238.088 46.9025 238.088 47.1162V49.8293L238.09 49.828ZM221.557 50.3597V51.2032C221.557 51.4169 221.383 51.5904 221.17 51.5904C220.956 51.5904 220.784 51.4169 220.784 51.2032V50.3597H219.091V53.0361H223.251V50.3597H221.557ZM228.287 50.3597L228.286 51.2032C228.286 51.4169 228.113 51.5904 227.899 51.5904C227.687 51.5904 227.513 51.4169 227.513 51.2032V50.3597H225.82V53.0361H229.98V50.3597H228.287ZM221.684 49.5879H218.705C218.492 49.5879 218.318 49.7601 218.318 49.9738V53.0425C216.783 53.1494 215.591 54.4229 215.587 55.959V56.1615C215.591 57.7745 216.898 59.0822 218.513 59.0844H241.66C243.275 59.0822 244.583 57.7745 244.587 56.1615V55.959C244.584 54.8127 243.912 53.7728 242.866 53.2978V47.5864C242.861 45.7548 241.479 44.2184 239.657 44.0172L239.662 40.7209C239.752 40.438 239.789 40.1387 239.769 39.841C239.723 39.3142 239.47 38.8263 239.064 38.487L235.497 35.3942C235.099 35.0485 234.584 34.8651 234.057 34.8824C233.963 34.0225 233.446 33.2658 232.68 32.8636C231.913 32.4613 230.997 32.4664 230.234 32.8774L226.665 31.2846C226.267 31.1021 225.819 31.0645 225.396 31.1752C224.997 31.2807 224.655 31.5398 224.444 31.8955L221.327 35.8444C219.849 35.8232 218.61 36.9583 218.506 38.4317L217.057 40.5175C217.013 40.5816 216.989 40.6569 216.989 40.7351L216.881 44.5318C216.876 44.743 217.043 44.9203 217.255 44.9251L220.05 45.0043V45.0056C220.165 45.0081 220.273 44.9605 220.349 44.8749C220.424 44.7906 220.46 44.6763 220.443 44.5643L219.97 41.4203L220.276 41.224C220.955 41.4869 221.712 41.4744 222.384 41.1889L222.739 41.4843L222.156 44.6223H222.155C222.136 44.733 222.165 44.8459 222.235 44.9328C222.306 45.0194 222.41 45.0709 222.522 45.0748L224.953 45.144C225.055 45.1465 225.154 45.1089 225.229 45.0397C225.302 44.9692 225.346 44.8723 225.348 44.7706L225.457 40.9826C225.461 40.9021 225.443 40.823 225.401 40.7538L224.073 38.5887C224.068 38.2103 223.986 37.8356 223.832 37.49L226.059 34.6816L229.059 36.1273C229.499 37.2222 230.625 37.8849 231.798 37.7378C231.893 38.1803 232.13 38.5801 232.471 38.8768L236.038 41.9719C236.362 42.2522 236.763 42.427 237.188 42.4724V44.0298C235.411 44.2789 234.088 45.7938 234.082 47.5864V53.0364H230.752V49.9741C230.752 49.7617 230.579 49.5882 230.365 49.5882H227.387V46.4136C227.387 46.1999 227.215 46.0277 227.001 46.0277H222.07C221.858 46.0277 221.684 46.1999 221.684 46.4136V49.5895V49.5879ZM225.048 50.3597V53.0361H224.022V50.3597H225.048ZM223.636 49.5879H222.455V46.7992H224.15V47.643C224.142 47.7499 224.18 47.8542 224.253 47.9321C224.326 48.0099 224.429 48.054 224.536 48.054C224.642 48.054 224.745 48.0099 224.818 47.9321C224.891 47.8542 224.929 47.7499 224.921 47.643V46.7992H226.615V49.5889L223.636 49.5879Z" fill="white"/>
</g>
<path d="M243.049 138.023H247.257C247.608 138.023 247.923 137.743 247.923 137.358V133.781H251.499C251.85 133.781 252.165 133.5 252.165 133.115V128.907C252.165 128.557 251.884 128.242 251.499 128.242L247.923 128.24V124.698C247.923 124.347 247.642 124.032 247.257 124.032H243.049C242.698 124.032 242.383 124.313 242.383 124.698V128.274L238.806 128.276C238.455 128.276 238.14 128.557 238.14 128.941V133.149C238.14 133.5 238.421 133.815 238.806 133.815H242.382L242.383 137.358C242.383 137.708 242.699 138.023 243.049 138.023ZM239.473 132.484V129.573H243.049C243.4 129.573 243.715 129.292 243.715 128.907V125.329H246.626V128.906C246.626 129.257 246.906 129.572 247.291 129.572H250.868V132.482L247.257 132.484C246.906 132.484 246.591 132.765 246.591 133.15V136.726H243.681V133.15C243.681 132.799 243.4 132.484 243.015 132.484L239.473 132.484Z" fill="white"/>
<path d="M232.95 129.958H233.089C233.404 129.958 233.651 129.747 233.721 129.432C234.878 124.138 239.682 120.245 245.153 120.245C250.624 120.245 255.428 124.102 256.586 129.432C256.656 129.783 257.006 130.028 257.357 129.922C257.708 129.853 257.919 129.502 257.847 129.151C256.586 123.261 251.22 118.948 245.153 118.948C239.087 118.948 233.721 123.261 232.424 129.187C232.354 129.537 232.599 129.888 232.95 129.958L232.95 129.958Z" fill="white"/>
<path d="M259.216 131.887C258.829 131.501 258.339 131.325 257.743 131.325C256.972 131.361 256.305 131.887 256.06 132.622L254.342 137.777C253.991 137.532 253.571 137.426 253.115 137.462C252.553 137.497 252.027 137.743 251.676 138.163L248.098 142.232C247.327 143.108 246.835 144.266 246.766 145.457L246.379 151.558C246.379 151.734 246.415 151.909 246.555 152.049C246.694 152.188 246.835 152.26 247.045 152.26H252.831C253.146 152.26 253.427 152.049 253.462 151.734L253.919 149.279L257.286 146.86C258.232 146.194 258.828 145.142 258.933 143.985L259.774 133.325C259.776 132.799 259.601 132.273 259.216 131.887ZM257.602 143.881C257.532 144.652 257.146 145.353 256.514 145.809L252.938 148.37C252.798 148.475 252.693 148.615 252.693 148.79L252.306 150.964H247.748L248.098 145.564C248.168 144.652 248.519 143.811 249.115 143.145L252.727 139.043C252.867 138.867 253.042 138.798 253.253 138.762C253.428 138.762 253.604 138.798 253.743 138.902C253.883 139.007 253.954 139.113 254.024 139.252V139.288C254.094 139.533 254.06 139.778 253.884 139.989L250.904 143.67C250.693 143.951 250.728 144.371 251.009 144.582C251.29 144.793 251.711 144.758 251.922 144.477L254.832 140.795C255.219 140.339 255.358 139.707 255.253 139.111L257.287 133.044C257.357 132.799 257.568 132.658 257.849 132.624C258.024 132.624 258.164 132.694 258.305 132.799C258.41 132.905 258.48 133.08 258.48 133.255L257.602 143.881Z" fill="white"/>
<path d="M242.242 142.231L238.63 138.129C238.244 137.708 237.753 137.463 237.192 137.428C236.771 137.392 236.351 137.533 235.964 137.743L234.247 132.588C234.002 131.851 233.334 131.325 232.529 131.291C232.003 131.291 231.477 131.466 231.091 131.853C230.704 132.239 230.529 132.765 230.565 133.291L231.406 143.951C231.511 145.108 232.107 146.16 233.054 146.826L236.421 149.245L236.877 151.699C236.947 152.014 237.192 152.225 237.508 152.225H243.294C243.47 152.225 243.645 152.156 243.785 152.014C243.924 151.875 243.96 151.699 243.96 151.524L243.574 145.423C243.47 144.266 243.013 143.144 242.242 142.231ZM238.034 150.964L237.648 148.79C237.612 148.615 237.508 148.475 237.403 148.369L233.826 145.809C233.195 145.353 232.81 144.652 232.739 143.881L231.898 133.255C231.898 133.08 231.933 132.94 232.073 132.799C232.178 132.693 232.354 132.623 232.529 132.623C232.774 132.623 232.985 132.799 233.055 133.044L235.019 139.111C234.914 139.707 235.055 140.338 235.44 140.794L238.385 144.476C238.596 144.757 239.016 144.791 239.297 144.582C239.578 144.371 239.612 143.95 239.403 143.67L236.458 139.988C236.318 139.812 236.247 139.531 236.318 139.286V139.251C236.354 139.111 236.458 138.97 236.599 138.9C236.739 138.794 236.914 138.76 237.089 138.76C237.3 138.76 237.475 138.866 237.615 139.005L241.227 143.108C241.823 143.774 242.174 144.65 242.244 145.527L242.594 150.926L238.034 150.928L238.034 150.964Z" fill="white"/>
<path fill-rule="evenodd" clip-rule="evenodd" d="M298.472 184.553C284.865 184.553 273.794 195.623 273.794 209.231C273.794 222.838 284.865 233.908 298.472 233.908C312.079 233.908 323.15 222.838 323.15 209.231C323.15 195.623 312.079 184.553 298.472 184.553ZM298.472 234.908C284.313 234.908 272.794 223.389 272.794 209.231C272.794 195.071 284.313 183.553 298.472 183.553C312.631 183.553 324.15 195.071 324.15 209.231C324.15 223.389 312.631 234.908 298.472 234.908Z" fill="url(#paint23_linear_299_2)"/>
<path fill-rule="evenodd" clip-rule="evenodd" d="M319.758 209.231C319.758 220.986 310.228 230.517 298.472 230.517C286.715 230.517 277.185 220.986 277.185 209.231C277.185 197.474 286.715 187.944 298.472 187.944C310.228 187.944 319.758 197.474 319.758 209.231Z" fill="url(#paint24_linear_299_2)"/>
<path fill-rule="evenodd" clip-rule="evenodd" d="M196.114 280.516C182.507 280.516 171.436 291.586 171.436 305.194C171.436 318.801 182.507 329.871 196.114 329.871C209.721 329.871 220.792 318.801 220.792 305.194C220.792 291.586 209.721 280.516 196.114 280.516ZM196.114 330.871C181.955 330.871 170.436 319.352 170.436 305.194C170.436 291.034 181.955 279.516 196.114 279.516C210.273 279.516 221.792 291.034 221.792 305.194C221.792 319.352 210.273 330.871 196.114 330.871Z" fill="url(#paint25_linear_299_2)"/>
<path fill-rule="evenodd" clip-rule="evenodd" d="M217.401 305.194C217.401 316.949 207.871 326.48 196.115 326.48C184.358 326.48 174.828 316.949 174.828 305.194C174.828 293.437 184.358 283.907 196.115 283.907C207.871 283.907 217.401 293.437 217.401 305.194Z" fill="url(#paint26_linear_299_2)"/>
<path d="M296.563 210.876H300.355C300.671 210.876 300.955 210.623 300.955 210.276V207.053H304.177C304.493 207.053 304.777 206.8 304.777 206.453V202.662C304.777 202.346 304.524 202.062 304.177 202.062L300.955 202.061V198.869C300.955 198.553 300.702 198.269 300.355 198.269H296.563C296.247 198.269 295.963 198.522 295.963 198.869V202.091L292.74 202.093C292.424 202.093 292.14 202.346 292.14 202.693V206.484C292.14 206.8 292.393 207.084 292.74 207.084H295.962L295.963 210.276C295.963 210.592 296.247 210.876 296.563 210.876ZM293.341 205.884V203.262H296.563C296.879 203.262 297.163 203.009 297.163 202.662V199.438H299.786V202.661C299.786 202.976 300.039 203.26 300.386 203.26H303.608V205.883L300.355 205.884C300.039 205.884 299.755 206.137 299.755 206.484V209.707H297.132V206.484C297.132 206.168 296.879 205.884 296.532 205.884L293.341 205.884Z" fill="white"/>
<path d="M287.463 203.608H287.589C287.873 203.608 288.095 203.418 288.158 203.135C289.201 198.364 293.53 194.857 298.459 194.857C303.389 194.857 307.717 198.332 308.76 203.135C308.823 203.451 309.139 203.671 309.455 203.576C309.771 203.513 309.961 203.197 309.897 202.882C308.76 197.574 303.926 193.688 298.459 193.688C292.993 193.688 288.158 197.574 286.99 202.913C286.927 203.229 287.148 203.545 287.464 203.608L287.463 203.608Z" fill="white"/>
<path d="M311.13 205.346C310.782 204.998 310.34 204.84 309.803 204.84C309.108 204.872 308.507 205.346 308.286 206.009L306.738 210.653C306.422 210.432 306.044 210.337 305.633 210.369C305.127 210.402 304.653 210.623 304.337 211.001L301.113 214.667C300.418 215.457 299.975 216.5 299.912 217.574L299.564 223.071C299.564 223.229 299.596 223.387 299.722 223.513C299.848 223.639 299.975 223.703 300.164 223.703H305.377C305.661 223.703 305.914 223.513 305.946 223.229L306.357 221.017L309.391 218.838C310.244 218.238 310.781 217.29 310.876 216.247L311.633 206.642C311.635 206.168 311.477 205.694 311.13 205.346ZM309.676 216.153C309.613 216.848 309.265 217.48 308.696 217.891L305.473 220.198C305.347 220.293 305.252 220.419 305.252 220.577L304.904 222.535H300.797L301.113 217.67C301.176 216.848 301.492 216.09 302.029 215.491L305.283 211.794C305.409 211.636 305.567 211.573 305.757 211.541C305.915 211.541 306.073 211.573 306.199 211.667C306.325 211.762 306.389 211.857 306.452 211.983V212.015C306.515 212.236 306.484 212.457 306.326 212.647L303.641 215.963C303.45 216.216 303.483 216.595 303.736 216.785C303.989 216.975 304.368 216.943 304.558 216.69L307.18 213.373C307.528 212.962 307.654 212.393 307.559 211.856L309.392 206.389C309.455 206.168 309.645 206.041 309.898 206.01C310.056 206.01 310.182 206.073 310.309 206.168C310.404 206.263 310.467 206.421 310.467 206.579L309.676 216.153Z" fill="white"/>
<path d="M295.836 214.667L292.582 210.971C292.233 210.592 291.792 210.371 291.286 210.339C290.907 210.307 290.528 210.434 290.18 210.623L288.632 205.978C288.411 205.314 287.81 204.84 287.084 204.81C286.61 204.81 286.136 204.968 285.788 205.316C285.44 205.664 285.282 206.138 285.314 206.612L286.072 216.216C286.167 217.259 286.704 218.207 287.557 218.807L290.591 220.987L291.002 223.198C291.065 223.482 291.286 223.672 291.571 223.672H296.784C296.942 223.672 297.1 223.609 297.226 223.482C297.352 223.356 297.384 223.198 297.384 223.04L297.036 217.543C296.942 216.5 296.531 215.489 295.836 214.667ZM292.045 222.535L291.697 220.577C291.665 220.419 291.571 220.293 291.476 220.198L288.253 217.891C287.684 217.48 287.337 216.848 287.273 216.153L286.515 206.579C286.515 206.421 286.547 206.295 286.673 206.168C286.768 206.073 286.926 206.01 287.084 206.01C287.305 206.01 287.495 206.168 287.558 206.389L289.328 211.856C289.233 212.392 289.36 212.961 289.707 213.372L292.361 216.69C292.551 216.943 292.93 216.974 293.183 216.785C293.436 216.595 293.467 216.216 293.278 215.963L290.624 212.645C290.498 212.487 290.434 212.234 290.498 212.014V211.981C290.53 211.856 290.624 211.728 290.751 211.665C290.877 211.57 291.035 211.54 291.193 211.54C291.383 211.54 291.541 211.635 291.667 211.76L294.922 215.457C295.459 216.057 295.775 216.847 295.838 217.637L296.154 222.502L292.045 222.503L292.045 222.535Z" fill="white"/>
<path d="M196.008 303.523C194.682 303.308 193.336 303.308 192.01 303.523C189.023 304.008 186.692 305.048 184.679 306.796C184.483 306.966 184.414 307.24 184.503 307.483C184.595 307.726 184.826 307.887 185.086 307.887L186.721 307.888C187.252 307.888 187.78 307.889 188.304 307.889C189.92 307.889 191.505 307.885 193.085 307.862H194.921C197.022 307.891 199.12 307.887 201.296 307.888L202.93 307.887C203.19 307.887 203.421 307.726 203.513 307.483C203.602 307.24 203.534 306.966 203.337 306.796C201.324 305.048 198.995 304.008 196.008 303.523ZM193.078 306.618C191.055 306.647 189.03 306.646 186.955 306.644C188.449 305.695 190.158 305.083 192.209 304.75C192.6 304.686 192.993 304.652 193.387 304.629V306.618H193.078V306.618ZM194.93 306.618H194.63V304.629C195.024 304.651 195.417 304.686 195.809 304.75C197.86 305.083 199.567 305.695 201.063 306.644C198.977 306.648 196.958 306.648 194.93 306.618Z" fill="white"/>
<path d="M214.273 309.177C213.748 307.911 212.805 306.98 211.685 306.623C211.626 306.603 211.564 306.593 211.503 306.574C211.378 305.672 211.184 304.776 210.899 303.905L212.265 303.161C212.988 302.748 213.257 301.812 212.861 301.065L211.593 298.763C211.389 298.396 211.056 298.133 210.655 298.021C210.26 297.911 209.848 297.963 209.508 298.158L208.165 298.889C207.618 298.218 207.043 297.61 206.446 297.074L207.235 295.764C207.454 295.417 207.522 295.005 207.43 294.603C207.337 294.203 207.085 293.85 206.731 293.632L204.49 292.282C204.141 292.063 203.726 291.997 203.323 292.092C202.921 292.188 202.57 292.447 202.359 292.797L201.575 294.088C200.771 293.781 199.977 293.546 199.172 293.378L199.209 291.84C199.219 291.428 199.066 291.035 198.778 290.736C198.491 290.438 198.106 290.269 197.692 290.259L195.071 290.21C194.655 290.209 194.255 290.354 193.957 290.645C193.663 290.932 193.501 291.315 193.501 291.711L193.465 293.234C192.642 293.362 191.826 293.556 191.029 293.817L190.291 292.469C189.881 291.735 188.944 291.455 188.19 291.853L185.888 293.123C185.527 293.324 185.265 293.652 185.151 294.048C185.037 294.444 185.085 294.863 185.284 295.222L186.014 296.551C185.344 297.097 184.736 297.672 184.2 298.27L182.879 297.473C182.147 297.036 181.195 297.269 180.757 297.997L179.405 300.242C179.191 300.588 179.127 301.001 179.224 301.402C179.322 301.805 179.571 302.145 179.922 302.356L181.215 303.14C180.952 303.832 180.749 304.544 180.588 305.26C180.437 305.296 180.289 305.338 180.135 305.368C178.833 305.62 177.949 306.593 177.768 307.969C177.64 308.94 177.571 310.016 177.551 311.357C177.536 312.376 177.727 313.74 179.546 313.826L181.213 313.901C181.735 315.151 182.95 316.06 184.397 316.116C184.446 316.117 184.494 316.119 184.543 316.119C186.074 316.119 187.357 315.181 187.867 313.825H203.868C204.052 314.302 204.328 314.739 204.704 315.103C205.382 315.759 206.278 316.117 207.235 316.117C207.268 316.117 207.3 316.116 207.333 316.116C208.799 316.08 210.006 315.188 210.519 313.916L213.039 313.912C213.443 313.865 213.998 313.57 214.232 313.12C214.811 311.991 214.829 310.517 214.273 309.177ZM182.311 302.351L180.567 301.291C180.478 301.238 180.445 301.154 180.434 301.108C180.424 301.065 180.413 300.978 180.469 300.89L181.825 298.638C181.907 298.499 182.096 298.452 182.24 298.54L183.952 299.573C184.199 299.757 184.6 299.724 184.804 299.474C185.466 298.676 186.27 297.914 187.192 297.208C187.435 297.021 187.506 296.684 187.358 296.414L186.374 294.621C186.334 294.55 186.325 294.469 186.347 294.392C186.37 294.314 186.42 294.251 186.491 294.211L188.781 292.948C188.93 292.868 189.123 292.925 189.202 293.071L190.184 294.862L190.185 294.861C190.326 295.12 190.66 295.264 190.955 295.159C191.99 294.782 193.064 294.525 194.146 294.397C194.453 294.361 194.688 294.103 194.695 293.794L194.744 291.727C194.744 291.634 194.788 291.572 194.825 291.536C194.881 291.481 194.966 291.456 195.044 291.454L197.665 291.503C197.776 291.506 197.847 291.564 197.882 291.599C197.914 291.633 197.968 291.705 197.966 291.811L197.916 293.891C197.916 294.194 198.135 294.453 198.432 294.504C199.494 294.687 200.529 294.991 201.595 295.435C201.877 295.556 202.205 295.447 202.365 295.183L203.423 293.44C203.48 293.345 203.566 293.312 203.612 293.301C203.664 293.288 203.745 293.283 203.838 293.342L206.081 294.693C206.148 294.735 206.197 294.804 206.216 294.885C206.227 294.938 206.232 295.02 206.174 295.112L205.15 296.814C205.058 296.929 205.011 297.072 205.016 297.22C205.022 297.397 205.104 297.563 205.241 297.677C206.036 298.337 206.799 299.141 207.508 300.064C207.695 300.307 208.03 300.38 208.299 300.231L210.113 299.242C210.199 299.195 210.276 299.206 210.321 299.218C210.366 299.231 210.449 299.267 210.505 299.363L211.767 301.655C211.847 301.807 211.794 301.998 211.659 302.075L209.855 303.058V303.058C209.657 303.167 209.519 303.379 209.519 303.616C209.519 303.689 209.533 303.761 209.557 303.829C209.84 304.607 210.033 305.409 210.177 306.219C209.678 306.105 209.177 306.005 208.684 305.907C207.149 300.095 201.958 296.068 195.902 296.068C190.616 296.068 185.868 299.188 183.758 304.026C183.177 304.331 182.588 304.606 181.98 304.835C182.142 304.256 182.327 303.681 182.561 303.123C182.68 302.839 182.573 302.511 182.311 302.351ZM207.314 305.619C207.174 305.588 207.032 305.563 206.893 305.53C206.523 305.442 206.015 305.321 205.741 305.098C203.024 302.894 199.743 301.533 195.987 301.052C192.84 300.653 189.522 300.533 186.55 302.384C186.301 302.539 186.052 302.694 185.805 302.846C187.987 299.437 191.756 297.312 195.902 297.312C201.178 297.311 205.734 300.68 207.314 305.619ZM184.445 314.874C183.156 314.824 182.141 313.75 182.181 312.479C182.2 311.843 182.47 311.256 182.938 310.826C183.379 310.42 183.946 310.2 184.545 310.2C184.588 310.2 184.63 310.201 184.673 310.204C185.941 310.269 186.925 311.368 186.868 312.653C186.809 313.948 185.745 314.922 184.445 314.874ZM207.299 314.873C206.647 314.904 206.028 314.655 205.567 314.209C205.117 313.774 204.867 313.184 204.862 312.549C204.851 311.278 205.89 310.226 207.178 310.205C207.191 310.204 207.205 310.204 207.22 310.204C208.495 310.204 209.512 311.197 209.541 312.482C209.571 313.791 208.586 314.841 207.299 314.873ZM213.132 312.537C213.094 312.589 212.957 312.668 212.964 312.672H210.768C210.77 312.598 210.785 312.528 210.784 312.453C210.738 310.494 209.06 308.939 207.155 308.961C205.189 308.995 203.601 310.609 203.617 312.559C203.617 312.566 203.62 312.574 203.62 312.582H188.101C188.121 310.673 186.642 309.061 184.736 308.962C183.762 308.915 182.816 309.249 182.095 309.911C181.38 310.569 180.968 311.468 180.937 312.44C180.935 312.509 180.95 312.576 180.952 312.645L179.603 312.585C179.106 312.561 178.777 312.546 178.794 311.377C178.814 310.086 178.881 309.055 179.002 308.132C179.08 307.535 179.382 306.783 180.374 306.59C182.957 306.088 185.118 304.742 187.216 303.436C189.848 301.795 192.908 301.913 195.83 302.286C199.403 302.742 202.39 303.978 204.958 306.063C205.452 306.465 206.118 306.624 206.606 306.74C207.054 306.847 207.509 306.936 207.962 307.026C208.03 307.054 208.103 307.071 208.18 307.072C208.247 307.086 208.313 307.102 208.381 307.115C209.357 307.308 210.366 307.507 211.308 307.809C212.079 308.055 212.742 308.728 213.126 309.655C213.541 310.659 213.541 311.742 213.132 312.537Z" fill="white"/>
</g>
<defs>
<linearGradient id="paint0_linear_299_2" x1="23.5372" y1="170.602" x2="306.957" y2="170.602" gradientUnits="userSpaceOnUse">
<stop stop-color="white"/>
<stop offset="1" stop-color="#1685FF"/>
</linearGradient>
<linearGradient id="paint1_linear_299_2" x1="146.224" y1="72.771" x2="0.000993575" y2="72.771" gradientUnits="userSpaceOnUse">
<stop stop-color="#1685FF"/>
<stop offset="1" stop-color="white"/>
</linearGradient>
<linearGradient id="paint2_linear_299_2" x1="179.864" y1="271.753" x2="326.087" y2="271.753" gradientUnits="userSpaceOnUse">
<stop stop-color="#1685FF"/>
<stop offset="1" stop-color="white"/>
</linearGradient>
<linearGradient id="paint3_linear_299_2" x1="200.104" y1="216.467" x2="214.577" y2="216.467" gradientUnits="userSpaceOnUse">
<stop stop-color="white"/>
<stop offset="1" stop-color="#1685FF"/>
</linearGradient>
<linearGradient id="paint4_linear_299_2" x1="16.8496" y1="146.576" x2="31.3224" y2="146.576" gradientUnits="userSpaceOnUse">
<stop stop-color="white"/>
<stop offset="1" stop-color="#1685FF"/>
</linearGradient>
<linearGradient id="paint5_linear_299_2" x1="8.12833" y1="184.676" x2="41.7001" y2="184.676" gradientUnits="userSpaceOnUse">
<stop stop-color="white"/>
<stop offset="1" stop-color="#1685FF"/>
</linearGradient>
<linearGradient id="paint6_linear_299_2" x1="-21.1518" y1="190.368" x2="41.4197" y2="182.225" gradientUnits="userSpaceOnUse">
<stop stop-color="white"/>
<stop offset="1" stop-color="#1685FF"/>
</linearGradient>
<linearGradient id="paint7_linear_299_2" x1="205.804" y1="252.962" x2="257.239" y2="246.216" gradientUnits="userSpaceOnUse">
<stop stop-color="white"/>
<stop offset="1" stop-color="#6AB1FF"/>
</linearGradient>
<linearGradient id="paint8_linear_299_2" x1="205.804" y1="263.462" x2="257.239" y2="256.716" gradientUnits="userSpaceOnUse">
<stop stop-color="white"/>
<stop offset="1" stop-color="#6AB1FF"/>
</linearGradient>
<linearGradient id="paint9_linear_299_2" x1="297.81" y1="168.528" x2="309.762" y2="166.961" gradientUnits="userSpaceOnUse">
<stop stop-color="white"/>
<stop offset="1" stop-color="#1685FF"/>
</linearGradient>
<linearGradient id="paint10_linear_299_2" x1="75.5969" y1="317.119" x2="102.988" y2="317.119" gradientUnits="userSpaceOnUse">
<stop stop-color="white"/>
<stop offset="1" stop-color="#1685FF"/>
</linearGradient>
<linearGradient id="paint11_linear_299_2" x1="15.8371" y1="256.98" x2="21.6228" y2="256.98" gradientUnits="userSpaceOnUse">
<stop stop-color="white"/>
<stop offset="1" stop-color="#1685FF"/>
</linearGradient>
<linearGradient id="paint12_linear_299_2" x1="25.4966" y1="263.339" x2="31.2823" y2="263.339" gradientUnits="userSpaceOnUse">
<stop stop-color="white"/>
<stop offset="1" stop-color="#1685FF"/>
</linearGradient>
<linearGradient id="paint13_linear_299_2" x1="36.04" y1="268.195" x2="41.8257" y2="268.195" gradientUnits="userSpaceOnUse">
<stop stop-color="white"/>
<stop offset="1" stop-color="#1685FF"/>
</linearGradient>
<linearGradient id="paint14_linear_299_2" x1="15.8371" y1="275.944" x2="41.8258" y2="275.944" gradientUnits="userSpaceOnUse">
<stop stop-color="white"/>
<stop offset="1" stop-color="#1685FF"/>
</linearGradient>
<linearGradient id="paint15_linear_299_2" x1="204.409" y1="45.748" x2="255.765" y2="45.748" gradientUnits="userSpaceOnUse">
<stop stop-color="white"/>
<stop offset="1" stop-color="#1685FF"/>
</linearGradient>
<linearGradient id="paint16_linear_299_2" x1="222.764" y1="77.253" x2="235.05" y2="24.3959" gradientUnits="userSpaceOnUse">
<stop stop-color="#978EF0"/>
<stop offset="1" stop-color="#1685FF"/>
</linearGradient>
<linearGradient id="paint17_linear_299_2" x1="140.737" y1="74.642" x2="145.88" y2="14.9277" gradientUnits="userSpaceOnUse">
<stop stop-color="#1685FF"/>
<stop offset="1" stop-color="#C0BAFF"/>
</linearGradient>
<linearGradient id="paint18_linear_299_2" x1="135.127" y1="95.929" x2="129.984" y2="155.643" gradientUnits="userSpaceOnUse">
<stop stop-color="#1685FF"/>
<stop offset="0.5" stop-color="#4EBD90"/>
<stop offset="1" stop-color="#978EF0"/>
</linearGradient>
<linearGradient id="paint19_linear_299_2" x1="228.154" y1="139.038" x2="269.252" y2="139.038" gradientUnits="userSpaceOnUse">
<stop stop-color="white"/>
<stop offset="1" stop-color="#1685FF"/>
</linearGradient>
<linearGradient id="paint20_linear_299_2" x1="245.618" y1="174.372" x2="244.475" y2="76.0863" gradientUnits="userSpaceOnUse">
<stop stop-color="#978EF0"/>
<stop offset="1" stop-color="#1685FF"/>
</linearGradient>
<linearGradient id="paint21_linear_299_2" x1="85.0375" y1="303.926" x2="123.626" y2="93.5729" gradientUnits="userSpaceOnUse">
<stop stop-color="white"/>
<stop offset="1" stop-color="#56BDFF"/>
</linearGradient>
<linearGradient id="paint22_linear_299_2" x1="63.5131" y1="184.371" x2="223.513" y2="140.371" gradientUnits="userSpaceOnUse">
<stop stop-color="#00A5E5"/>
<stop offset="1" stop-color="#BCB6FF"/>
</linearGradient>
<linearGradient id="paint23_linear_299_2" x1="272.794" y1="209.23" x2="324.15" y2="209.23" gradientUnits="userSpaceOnUse">
<stop stop-color="white"/>
<stop offset="1" stop-color="#1685FF"/>
</linearGradient>
<linearGradient id="paint24_linear_299_2" x1="291.149" y1="240.735" x2="303.435" y2="187.878" gradientUnits="userSpaceOnUse">
<stop stop-color="#978EF0"/>
<stop offset="1" stop-color="#1685FF"/>
</linearGradient>
<linearGradient id="paint25_linear_299_2" x1="170.436" y1="305.193" x2="221.792" y2="305.193" gradientUnits="userSpaceOnUse">
<stop stop-color="white"/>
<stop offset="1" stop-color="#1685FF"/>
</linearGradient>
<linearGradient id="paint26_linear_299_2" x1="188.792" y1="336.698" x2="201.077" y2="283.841" gradientUnits="userSpaceOnUse">
<stop stop-color="#978EF0"/>
<stop offset="1" stop-color="#1685FF"/>
</linearGradient>
<clipPath id="clip0_299_2">
<rect width="327" height="344" fill="white"/>
</clipPath>
<clipPath id="clip1_299_2">
<rect width="29" height="28" fill="white" transform="translate(215.587 31.113)"/>
</clipPath>
</defs>
</svg>
