<?xml version="1.0" encoding="UTF-8" standalone="no"?>
<!DOCTYPE svg PUBLIC "-//W3C//DTD SVG 1.1//EN" "http://www.w3.org/Graphics/SVG/1.1/DTD/svg11.dtd">
<svg width="100%" height="100%" viewBox="0 0 439 262" version="1.1" xmlns="http://www.w3.org/2000/svg" xmlns:xlink="http://www.w3.org/1999/xlink" xml:space="preserve" xmlns:serif="http://www.serif.com/" style="fill-rule:evenodd;clip-rule:evenodd;stroke-linejoin:round;stroke-miterlimit:2;">
    <g transform="matrix(1,0,0,1,-31.792,-133.456)">
        <path d="M195.444,393.112C186.934,393.112 180.01,386.188 180.01,377.677L180.01,151.321C180.01,142.811 186.934,135.888 195.444,135.888L304.954,135.888C313.464,135.888 320.388,142.811 320.388,151.321L320.388,377.677C320.388,386.188 313.464,393.112 304.954,393.112L195.444,393.112Z" style="fill:white;fill-rule:nonzero;"/>
        <path d="M304.954,134.388L195.444,134.388C186.092,134.388 178.51,141.968 178.51,151.321L178.51,377.677C178.51,387.028 186.092,394.612 195.444,394.612L304.954,394.612C314.306,394.612 321.888,387.028 321.888,377.677L321.888,151.321C321.888,141.968 314.306,134.388 304.954,134.388ZM304.954,137.388C312.637,137.388 318.888,143.638 318.888,151.321L318.888,377.677C318.888,385.361 312.637,391.612 304.954,391.612L195.444,391.612C187.761,391.612 181.51,385.361 181.51,377.677L181.51,151.321C181.51,143.638 187.761,137.388 195.444,137.388L304.954,137.388Z" style="fill:rgb(51,55,56);fill-rule:nonzero;"/>
        <path d="M258.917,378.147L256.917,378.147L256.917,378.154C256.915,379.656 256.221,381.027 255.036,382.062C253.85,383.092 252.18,383.751 250.313,383.751L250.305,383.751C248.437,383.752 246.761,383.094 245.571,382.065C244.38,381.031 243.683,379.659 243.678,378.155L243.675,376.114L243.675,376.11L242.895,376.121L243.675,376.121L243.675,376.11L242.895,376.121L243.675,376.121C243.676,374.62 244.374,373.244 245.566,372.206C246.756,371.172 248.432,370.511 250.296,370.511L250.308,370.511L250.318,370.51L250.3,369.699L250.3,370.511L250.318,370.51L250.3,369.699L250.3,370.511C252.169,370.51 253.842,371.169 255.029,372.2C256.217,373.235 256.914,374.609 256.917,376.117L256.917,378.147L258.917,378.147L258.917,376.116C258.915,373.972 257.907,372.043 256.34,370.689C254.772,369.33 252.638,368.511 250.3,368.511L250.274,368.511L250.296,369.511L250.295,368.511C247.959,368.513 245.825,369.335 244.255,370.695C242.687,372.051 241.674,373.979 241.675,376.121L241.675,376.138L242.675,376.124L241.675,376.125L241.678,378.159C241.682,380.301 242.695,382.226 244.264,383.578C245.834,384.934 247.968,385.75 250.305,385.751L250.313,385.751C252.65,385.749 254.781,384.93 256.346,383.572C257.911,382.219 258.918,380.293 258.917,378.154L258.917,378.147Z" style="fill:rgb(93,97,99);fill-rule:nonzero;"/>
        <path d="M279.472,152.729C279.472,154.704 277.874,156.3 275.905,156.3L224.493,156.3C222.523,156.3 220.926,154.704 220.926,152.729C220.926,150.759 222.523,149.163 224.493,149.163L275.905,149.163C277.874,149.163 279.472,150.759 279.472,152.729Z" style="fill:rgb(93,97,99);fill-rule:nonzero;"/>
        <path d="M250.198,144.263C253.585,144.263 253.585,139.183 250.198,139.183C246.812,139.183 246.812,144.263 250.198,144.263Z" style="fill:rgb(18,22,26);fill-rule:nonzero;"/>
        <g transform="matrix(1.97883,0,0,1,-185.229,0)">
            <rect x="189.235" y="167.126" width="60.963" height="194.746" style="fill:rgb(34,50,90);fill-rule:nonzero;"/>
        </g>
        <path d="M270.893,293.694C270.893,295.661 269.296,297.257 267.327,297.257C265.358,297.257 263.765,295.661 263.765,293.694L263.765,249.983C263.765,248.015 265.358,246.419 267.327,246.419C269.296,246.419 270.893,248.015 270.893,249.983L270.893,293.694Z" style="fill:white;fill-rule:nonzero;"/>
        <path d="M272.333,293.694L269.453,293.694C269.45,294.864 268.5,295.815 267.327,295.817C266.154,295.815 265.207,294.866 265.205,293.694L265.205,249.983C265.207,248.809 266.155,247.861 267.327,247.859C268.5,247.861 269.45,248.811 269.453,249.983L269.453,293.694L272.333,293.694L272.333,249.983C272.331,247.218 270.091,244.98 267.327,244.979C264.562,244.98 262.325,247.22 262.325,249.983L262.325,293.694C262.325,296.456 264.562,298.696 267.327,298.697C270.091,298.696 272.331,296.458 272.333,293.694Z" style="fill:white;fill-rule:nonzero;"/>
        <path d="M289.185,268.274C291.151,268.274 292.747,269.87 292.747,271.839C292.747,273.808 291.151,275.401 289.185,275.401L245.473,275.401C243.504,275.401 241.908,273.808 241.908,271.839C241.908,269.87 243.504,268.274 245.473,268.274L289.185,268.274Z" style="fill:white;fill-rule:nonzero;"/>
        <path d="M289.185,266.834L289.185,269.714C290.355,269.717 291.305,270.666 291.307,271.839C291.305,273.012 290.356,273.959 289.185,273.961L245.473,273.961C244.298,273.959 243.35,273.011 243.348,271.839C243.35,270.666 244.3,269.717 245.473,269.714L289.185,269.714L289.185,266.834L245.473,266.834C242.708,266.835 240.469,269.074 240.468,271.839C240.468,274.604 242.709,276.841 245.473,276.841L289.185,276.841C291.947,276.841 294.186,274.604 294.187,271.839C294.186,269.075 291.948,266.836 289.185,266.834Z" style="fill:white;fill-rule:nonzero;"/>
        <path d="M285.305,284.772C286.695,286.163 286.695,288.421 285.303,289.813C283.911,291.204 281.653,291.204 280.263,289.813L249.354,258.905C247.962,257.513 247.962,255.257 249.354,253.864C250.748,252.472 253.005,252.472 254.397,253.864L285.305,284.772Z" style="fill:white;fill-rule:nonzero;"/>
        <path d="M285.305,284.772L284.286,285.791C284.703,286.208 284.906,286.743 284.907,287.291C284.906,287.84 284.702,288.376 284.284,288.795C283.867,289.212 283.331,289.415 282.782,289.416C282.233,289.415 281.698,289.212 281.281,288.795L250.372,257.887C249.955,257.468 249.752,256.934 249.75,256.386C249.752,255.836 249.955,255.301 250.372,254.882C250.792,254.465 251.327,254.261 251.876,254.26C252.425,254.261 252.96,254.465 253.379,254.882L284.286,285.791L285.305,284.772L286.323,283.754L255.416,252.846C254.442,251.871 253.153,251.378 251.876,251.38C250.6,251.378 249.31,251.871 248.336,252.845C247.361,253.82 246.868,255.109 246.87,256.386C246.868,257.662 247.361,258.951 248.336,259.923L279.244,290.832C280.218,291.806 281.507,292.298 282.782,292.296C284.058,292.298 285.347,291.806 286.321,290.832C287.296,289.857 287.789,288.567 287.787,287.291C287.789,286.015 287.297,284.727 286.323,283.754L285.305,284.772Z" style="fill:white;fill-rule:nonzero;"/>
        <path d="M280.263,253.864C281.653,252.472 283.911,252.472 285.303,253.864C286.695,255.257 286.695,257.513 285.303,258.904L254.396,289.812C253.005,291.204 250.748,291.204 249.354,289.813C247.962,288.421 247.962,286.163 249.354,284.771L280.263,253.864Z" style="fill:white;fill-rule:nonzero;"/>
        <path d="M280.263,253.864L281.282,254.882C281.699,254.465 282.234,254.261 282.782,254.26C283.331,254.261 283.866,254.465 284.284,254.882C284.703,255.302 284.906,255.837 284.907,256.386C284.906,256.932 284.703,257.466 284.285,257.884L253.377,288.793C252.959,289.211 252.424,289.414 251.875,289.416C251.326,289.415 250.79,289.211 250.371,288.794L250.372,288.795C249.955,288.377 249.752,287.841 249.75,287.292C249.752,286.743 249.955,286.207 250.372,285.789L281.281,254.883L280.263,253.864L279.245,252.846L248.336,283.752C247.361,284.726 246.868,286.016 246.87,287.292C246.868,288.568 247.361,289.858 248.336,290.832L248.337,290.833C249.311,291.805 250.599,292.298 251.875,292.296C253.151,292.298 254.441,291.805 255.414,290.829L286.321,259.922C287.295,258.951 287.789,257.66 287.787,256.386C287.789,255.109 287.295,253.819 286.321,252.846C285.348,251.871 284.058,251.378 282.782,251.38C281.506,251.378 280.217,251.871 279.244,252.847L280.263,253.864Z" style="fill:white;fill-rule:nonzero;"/>
        <path d="M287.487,271.839C287.487,282.974 278.464,291.997 267.327,291.997C256.193,291.997 247.167,282.974 247.167,271.839C247.167,260.705 256.193,251.679 267.327,251.679C278.464,251.679 287.487,260.705 287.487,271.839Z" style="fill:white;fill-rule:nonzero;"/>
        <path d="M276.688,271.839C276.688,277.007 272.497,281.198 267.327,281.198C262.159,281.198 257.969,277.007 257.969,271.839C257.969,266.669 262.159,262.478 267.327,262.478C272.497,262.478 276.688,266.669 276.688,271.839Z" style="fill:rgb(60,192,197);fill-rule:nonzero;"/>
        <path d="M245.116,252.931C245.116,254.7 243.68,256.138 241.908,256.138C240.136,256.138 238.7,254.7 238.7,252.931L238.7,213.591C238.7,211.819 240.136,210.382 241.908,210.382C243.68,210.382 245.116,211.819 245.116,213.591L245.116,252.931Z" style="fill:rgb(242,120,141);fill-rule:nonzero;"/>
        <path d="M261.579,230.052C263.35,230.052 264.788,231.489 264.788,233.261C264.788,235.032 263.35,236.468 261.579,236.468L222.24,236.468C220.468,236.468 219.032,235.032 219.032,233.261C219.032,231.489 220.468,230.052 222.24,230.052L261.579,230.052Z" style="fill:rgb(242,120,141);fill-rule:nonzero;"/>
        <path d="M258.087,244.901C259.34,246.153 259.34,248.185 258.087,249.438C256.833,250.69 254.802,250.688 253.55,249.438L225.732,221.62C224.479,220.366 224.479,218.337 225.732,217.083C226.986,215.831 229.016,215.831 230.27,217.085L258.087,244.901Z" style="fill:rgb(242,120,141);fill-rule:nonzero;"/>
        <path d="M253.55,217.083C254.802,215.831 256.833,215.829 258.087,217.083C259.34,218.335 259.34,220.366 258.087,221.62L230.27,249.437C229.016,250.688 226.986,250.69 225.732,249.438C224.479,248.185 224.479,246.153 225.732,244.899L253.55,217.083Z" style="fill:rgb(242,120,141);fill-rule:nonzero;"/>
        <path d="M258.756,233.261C258.756,242.565 251.214,250.108 241.908,250.108C232.604,250.108 225.061,242.565 225.061,233.261C225.061,223.956 232.604,216.411 241.908,216.411C251.214,216.411 258.756,223.956 258.756,233.261Z" style="fill:rgb(242,120,141);fill-rule:nonzero;"/>
        <path d="M250.333,233.261C250.333,237.913 246.561,241.685 241.908,241.685C237.257,241.685 233.484,237.913 233.484,233.261C233.484,228.608 237.257,224.837 241.908,224.837C246.561,224.837 250.333,228.608 250.333,233.261Z" style="fill:rgb(60,192,197);fill-rule:nonzero;"/>
        <path d="M228.125,296.202C228.125,297.62 226.975,298.769 225.559,298.769C224.14,298.769 222.992,297.62 222.992,296.202L222.992,264.731C222.992,263.313 224.14,262.165 225.559,262.165C226.975,262.165 228.125,263.313 228.125,264.731L228.125,296.202Z" style="fill:rgb(250,220,42);fill-rule:nonzero;"/>
        <path d="M241.294,277.901C242.711,277.901 243.861,279.05 243.861,280.466C243.861,281.884 242.711,283.032 241.294,283.032L209.822,283.032C208.406,283.032 207.256,281.884 207.256,280.466C207.256,279.05 208.406,277.901 209.822,277.901L241.294,277.901Z" style="fill:rgb(250,220,42);fill-rule:nonzero;"/>
        <path d="M238.5,289.78C239.501,290.782 239.501,292.405 238.5,293.407C237.498,294.411 235.873,294.411 234.87,293.407L212.617,271.155C211.615,270.153 211.615,268.528 212.617,267.526C213.619,266.524 215.244,266.524 216.247,267.526L238.5,289.78Z" style="fill:rgb(250,220,42);fill-rule:nonzero;"/>
        <path d="M234.87,267.524C235.873,266.524 237.498,266.522 238.5,267.524C239.501,268.528 239.501,270.153 238.5,271.153L216.246,293.407C215.244,294.409 213.619,294.411 212.617,293.407C211.615,292.405 211.615,290.782 212.617,289.778L234.87,267.524Z" style="fill:rgb(250,220,42);fill-rule:nonzero;"/>
        <path d="M239.037,280.466C239.037,287.911 233.001,293.946 225.559,293.946C218.114,293.946 212.08,287.911 212.08,280.466C212.08,273.022 218.114,266.989 225.559,266.989C233.001,266.989 239.037,273.022 239.037,280.466Z" style="fill:rgb(250,220,42);fill-rule:nonzero;"/>
        <path d="M232.298,280.466C232.298,284.188 229.281,287.206 225.559,287.206C221.835,287.206 218.819,284.188 218.819,280.466C218.819,276.745 221.835,273.728 225.559,273.728C229.281,273.728 232.298,276.745 232.298,280.466Z" style="fill:rgb(60,192,197);fill-rule:nonzero;"/>
        <g>
            <path d="M98.407,181.6L98.407,183.1L136.993,183.1C137.388,183.1 137.775,182.94 138.054,182.66C138.333,182.381 138.493,181.995 138.493,181.6L138.493,151.721C138.493,151.326 138.333,150.939 138.054,150.66C137.775,150.381 137.388,150.221 136.993,150.221L98.407,150.221C98.012,150.221 97.625,150.381 97.346,150.66C97.067,150.939 96.907,151.326 96.907,151.721L96.907,181.6C96.907,181.995 97.067,182.381 97.346,182.66C97.625,182.94 98.012,183.1 98.407,183.1L98.407,181.6L99.907,181.6L99.907,153.221L135.493,153.221L135.493,180.1L98.407,180.1L98.407,181.6L99.907,181.6L98.407,181.6Z" style="fill:rgb(125,255,148);fill-rule:nonzero;"/>
            <path d="M135.914,150.678L116.504,170.768C115.929,171.364 115.945,172.314 116.541,172.889C117.137,173.465 118.086,173.449 118.662,172.853L138.072,152.763C138.648,152.167 138.631,151.218 138.035,150.642C137.44,150.066 136.49,150.083 135.914,150.678Z" style="fill:rgb(125,255,148);fill-rule:nonzero;"/>
            <path d="M97.322,152.756L116.498,172.846C117.07,173.445 118.019,173.468 118.619,172.896C119.218,172.324 119.24,171.374 118.668,170.775L99.492,150.685C98.92,150.086 97.97,150.064 97.371,150.636C96.772,151.208 96.75,152.157 97.322,152.756Z" style="fill:rgb(125,255,148);fill-rule:nonzero;"/>
            <path d="M121.916,167.181L135.881,182.606C136.437,183.22 137.386,183.268 138,182.712C138.614,182.156 138.661,181.207 138.105,180.593L124.14,165.167C123.584,164.553 122.636,164.506 122.022,165.062C121.407,165.618 121.36,166.566 121.916,167.181Z" style="fill:rgb(125,255,148);fill-rule:nonzero;"/>
            <path d="M110.898,165.015L97.277,180.613C96.732,181.237 96.796,182.185 97.42,182.729C98.044,183.274 98.992,183.21 99.537,182.586L113.158,166.989C113.703,166.365 113.639,165.417 113.015,164.872C112.391,164.327 111.443,164.391 110.898,165.015Z" style="fill:rgb(125,255,148);fill-rule:nonzero;"/>
        </g>
        <path d="M150.919,166.656L148.519,166.656C148.518,175.165 145.073,182.857 139.498,188.435C133.92,194.01 126.228,197.456 117.719,197.456C109.21,197.456 101.518,194.01 95.94,188.435C90.364,182.857 86.919,175.165 86.918,166.656C86.919,158.147 90.364,150.454 95.939,144.877C101.517,139.302 109.21,135.857 117.719,135.856C126.228,135.857 133.92,139.302 139.498,144.877C145.073,150.454 148.518,158.147 148.519,166.656L150.919,166.656C150.918,148.319 136.055,133.457 117.719,133.456C99.382,133.457 84.519,148.319 84.518,166.656C84.519,184.991 99.382,199.855 117.719,199.856C136.055,199.855 150.918,184.991 150.919,166.656Z" style="fill:white;fill-opacity:0.12;fill-rule:nonzero;"/>
        <path d="M116.651,198.656L116.651,220.689C116.651,221.242 117.099,221.689 117.651,221.689C118.203,221.689 118.651,221.242 118.651,220.689L118.651,198.656C118.651,198.104 118.203,197.656 117.651,197.656C117.099,197.656 116.651,198.104 116.651,198.656Z" style="fill:white;fill-opacity:0.12;fill-rule:nonzero;"/>
        <path d="M117.583,221.689L170,221.689C170.552,221.689 171,221.242 171,220.689C171,220.137 170.552,219.689 170,219.689L117.583,219.689C117.031,219.689 116.583,220.137 116.583,220.689C116.583,221.242 117.031,221.689 117.583,221.689Z" style="fill:white;fill-opacity:0.12;fill-rule:nonzero;"/>
        <path d="M78.266,239.305C78.266,241.676 76.343,243.598 73.971,243.598L46.734,243.598C44.363,243.598 42.44,241.676 42.44,239.305L42.44,228.049C42.44,225.676 44.363,223.752 46.734,223.752L73.971,223.752C76.343,223.752 78.266,225.676 78.266,228.049L78.266,239.305Z" style="fill:rgb(250,220,42);fill-rule:nonzero;"/>
        <path d="M54.805,242.752L46.574,242.814L50.743,249.91L54.805,242.752Z" style="fill:rgb(250,220,42);fill-rule:nonzero;"/>
        <path d="M55.342,233.676C55.342,234.861 54.38,235.824 53.195,235.824C52.009,235.824 51.047,234.861 51.047,233.676C51.047,232.49 52.009,231.529 53.195,231.529C54.38,231.529 55.342,232.49 55.342,233.676Z" style="fill:white;fill-rule:nonzero;"/>
        <path d="M62.5,233.676C62.5,234.861 61.538,235.824 60.353,235.824C59.167,235.824 58.206,234.861 58.206,233.676C58.206,232.49 59.167,231.529 60.353,231.529C61.538,231.529 62.5,232.49 62.5,233.676Z" style="fill:white;fill-rule:nonzero;"/>
        <path d="M69.658,233.676C69.658,234.861 68.696,235.824 67.511,235.824C66.325,235.824 65.363,234.861 65.363,233.676C65.363,232.49 66.325,231.529 67.511,231.529C68.696,231.529 69.658,232.49 69.658,233.676Z" style="fill:white;fill-rule:nonzero;"/>
        <path d="M90.192,234.297L87.792,234.297C87.791,241.7 84.793,248.392 79.941,253.246C75.087,258.098 68.395,261.097 60.992,261.097C53.588,261.097 46.896,258.098 42.042,253.246C37.19,248.392 34.192,241.7 34.192,234.297C34.192,226.893 37.19,220.201 42.042,215.347C46.895,210.495 53.588,207.497 60.992,207.497C68.395,207.497 75.088,210.495 79.941,215.347C84.793,220.201 87.791,226.893 87.792,234.297L90.192,234.297C90.191,218.171 77.117,205.098 60.992,205.097C44.866,205.098 31.793,218.171 31.792,234.297C31.793,250.421 44.865,263.496 60.992,263.497C77.117,263.496 90.191,250.421 90.192,234.297Z" style="fill:white;fill-opacity:0.12;fill-rule:nonzero;"/>
        <path d="M89.719,235.438L170,235.438C170.552,235.438 171,234.99 171,234.438C171,233.885 170.552,233.438 170,233.438L89.719,233.438C89.166,233.438 88.719,233.885 88.719,234.438C88.719,234.99 89.166,235.438 89.719,235.438Z" style="fill:white;fill-opacity:0.12;fill-rule:nonzero;"/>
        <path d="M115.426,357.066C115.426,361.014 112.433,364.215 108.737,364.215L70.663,364.215C66.969,364.215 63.974,361.014 63.974,357.066C63.974,353.119 66.969,349.92 70.663,349.92L108.737,349.92C112.433,349.92 115.426,353.119 115.426,357.066Z" style="fill:rgb(242,120,141);"/>
        <path d="M108.576,347.248C108.576,350.303 105.703,352.779 102.159,352.779L77.242,352.779C73.698,352.779 70.824,350.303 70.824,347.248C70.824,344.193 73.698,341.719 77.242,341.719L102.159,341.719C105.703,341.719 108.576,344.193 108.576,347.248Z" style="fill:rgb(242,120,141);"/>
        <path d="M98.491,343.123C98.491,348.041 94.538,352.029 89.662,352.029C84.786,352.029 80.834,348.041 80.834,343.123C80.834,338.201 84.786,334.215 89.662,334.215C94.538,334.215 98.491,338.201 98.491,343.123Z" style="fill:rgb(242,120,141);"/>
        <path d="M88.463,351.432L88.501,370.307L90.937,370.302L90.899,351.427" style="fill:white;fill-rule:nonzero;"/>
        <path d="M79.736,359.52L81.523,361.178L89.681,352.364L97.876,361.145L99.656,359.48L89.673,348.788L79.736,359.52Z" style="fill:white;fill-rule:nonzero;"/>
        <path d="M122.885,353.344L120.485,353.344C120.484,361.853 117.039,369.545 111.463,375.123C105.886,380.698 98.193,384.143 89.684,384.144C81.175,384.143 73.483,380.698 67.905,375.123C62.33,369.545 58.885,361.853 58.884,353.344C58.885,344.835 62.33,337.143 67.905,331.565C73.483,325.99 81.175,322.544 89.684,322.544C98.193,322.544 105.886,325.99 111.463,331.565C117.039,337.143 120.484,344.835 120.485,353.344L122.885,353.344C122.884,335.009 108.021,320.145 89.684,320.144C71.348,320.145 56.485,335.009 56.484,353.344C56.485,371.681 71.348,386.543 89.684,386.544C108.021,386.543 122.884,371.681 122.885,353.344Z" style="fill:white;fill-opacity:0.12;fill-rule:nonzero;"/>
        <path d="M121.685,354.547L170,354.547C170.552,354.547 171,354.099 171,353.547C171,352.995 170.552,352.547 170,352.547L121.685,352.547C121.132,352.547 120.685,352.995 120.685,353.547C120.685,354.099 121.132,354.547 121.685,354.547Z" style="fill:white;fill-opacity:0.12;fill-rule:nonzero;"/>
        <path d="M136.313,295.932C127.286,290.188 116.428,266.979 131.474,261.235C141.002,257.406 148.404,264.209 148.404,272.826C148.404,280.484 143.082,288.635 136.313,295.932Z" style="fill:rgb(21,188,192);fill-rule:nonzero;"/>
        <path d="M136.557,266.729C129.548,266.146 129.548,276.029 135.555,276.607C142.063,277.771 143.567,267.891 136.557,266.729Z" style="fill:white;fill-rule:nonzero;"/>
        <path d="M165.505,277.91L163.105,277.91C163.104,285.314 160.107,292.006 155.255,296.86C150.401,301.712 143.709,304.71 136.305,304.71C128.901,304.71 122.208,301.712 117.355,296.86C112.503,292.006 109.505,285.314 109.505,277.91C109.505,270.507 112.503,263.815 117.355,258.961C122.208,254.109 128.901,251.111 136.305,251.11C143.708,251.111 150.401,254.109 155.255,258.961C160.107,263.815 163.104,270.507 163.105,277.91L165.505,277.91C165.504,261.787 152.431,248.711 136.305,248.71C120.178,248.711 107.106,261.787 107.105,277.91C107.106,294.036 120.178,307.109 136.305,307.11C152.431,307.109 165.504,294.036 165.505,277.91Z" style="fill:white;fill-opacity:0.12;fill-rule:nonzero;"/>
        <path d="M136.236,305.91L136.236,330.25C136.236,330.802 136.684,331.25 137.236,331.25C137.789,331.25 138.236,330.802 138.236,330.25L138.236,305.91C138.236,305.358 137.789,304.91 137.236,304.91C136.684,304.91 136.236,305.358 136.236,305.91Z" style="fill:white;fill-opacity:0.12;fill-rule:nonzero;"/>
        <path d="M137.168,331.25L170,331.25C170.552,331.25 171,330.802 171,330.25C171,329.698 170.552,329.25 170,329.25L137.168,329.25C136.616,329.25 136.168,329.698 136.168,330.25C136.168,330.802 136.616,331.25 137.168,331.25Z" style="fill:white;fill-opacity:0.12;fill-rule:nonzero;"/>
        <path d="M437.332,179.271C437.332,179.684 436.966,180.02 436.514,180.02L409.327,180.02C408.875,180.02 408.509,179.684 408.509,179.271L408.509,160.328C408.509,159.912 408.875,159.58 409.327,159.58L436.514,159.58C436.966,159.58 437.332,159.912 437.332,160.328L437.332,179.271Z" style="fill:rgb(21,188,192);fill-rule:nonzero;"/>
        <path d="M422.922,142.381C416.331,142.381 410.989,147.725 410.989,154.313L410.989,170.916L421.745,170.916C421.875,170.67 422.119,170.488 422.482,170.488C422.846,170.488 423.091,170.67 423.221,170.916L434.852,170.916L434.852,154.313C434.852,147.725 429.51,142.381 422.922,142.381ZM422.922,146.762C427.085,146.762 430.472,150.148 430.472,154.313L430.472,166.537L424.566,166.537C423.922,166.258 423.215,166.109 422.482,166.109C421.75,166.109 421.043,166.258 420.398,166.537L415.37,166.537L415.37,154.313C415.37,150.148 418.758,146.762 422.922,146.762Z" style="fill:rgb(21,188,192);fill-rule:nonzero;"/>
        <path d="M425.986,167.025C425.986,168.719 424.613,170.09 422.92,170.09C421.228,170.09 419.854,168.719 419.854,167.025C419.854,165.33 421.228,163.959 422.92,163.959C424.613,163.959 425.986,165.33 425.986,167.025Z" style="fill:rgb(84,88,89);fill-rule:nonzero;"/>
        <path d="M425.658,175.639L420.184,175.639L421.717,167.316L424.125,167.316L425.658,175.639Z" style="fill:rgb(84,88,89);fill-rule:nonzero;"/>
        <path d="M452.26,163.207L449.86,163.207C449.859,170.61 446.861,177.302 442.009,182.156C437.155,187.008 430.463,190.006 423.06,190.007C415.656,190.006 408.963,187.008 404.11,182.156C399.258,177.302 396.26,170.61 396.26,163.207C396.26,155.803 399.258,149.111 404.109,144.257C408.963,139.405 415.656,136.408 423.06,136.407C430.463,136.408 437.155,139.405 442.009,144.257C446.861,149.111 449.859,155.803 449.86,163.207L452.26,163.207C452.259,147.081 439.185,134.008 423.06,134.007C406.933,134.008 393.86,147.081 393.86,163.207C393.86,179.331 406.933,192.406 423.06,192.407C439.185,192.406 452.259,179.331 452.26,163.207Z" style="fill:white;fill-opacity:0.12;fill-rule:nonzero;"/>
        <path d="M395.06,162.58L330,162.58C329.448,162.58 329,163.028 329,163.58C329,164.132 329.448,164.58 330,164.58L395.06,164.58C395.612,164.58 396.06,164.132 396.06,163.58C396.06,163.028 395.612,162.58 395.06,162.58Z" style="fill:white;fill-opacity:0.12;fill-rule:nonzero;"/>
        <g>
            <path d="M392.912,236.342L390.312,236.342C390.312,241.955 388.041,247.024 384.363,250.704C380.683,254.382 375.614,256.653 370.001,256.654C364.387,256.653 359.317,254.382 355.637,250.704C351.959,247.024 349.688,241.955 349.688,236.342C349.688,230.728 351.959,225.658 355.637,221.978C359.317,218.3 364.387,216.029 370.001,216.029C375.614,216.029 380.683,218.3 384.363,221.978C388.041,225.658 390.312,230.728 390.312,236.342L392.912,236.342C392.911,223.686 382.655,213.429 370.001,213.429C357.345,213.429 347.088,223.686 347.088,236.342C347.089,248.996 357.345,259.253 370.001,259.253C382.655,259.253 392.911,248.996 392.912,236.342Z" style="fill:rgb(125,255,148);fill-rule:nonzero;"/>
            <path d="M386.189,221.635C380.992,223.77 375.137,225.034 369.338,225.033C363.982,225.033 358.681,223.959 353.947,221.533C353.308,221.205 352.525,221.458 352.198,222.097C351.87,222.735 352.123,223.519 352.762,223.846C357.922,226.491 363.638,227.633 369.338,227.633C375.514,227.632 381.68,226.296 387.176,224.04C387.841,223.768 388.158,223.008 387.885,222.344C387.612,221.68 386.853,221.363 386.189,221.635Z" style="fill:rgb(125,255,148);fill-rule:nonzero;"/>
            <path d="M387.176,248.641C381.68,246.386 375.514,245.051 369.338,245.05C363.638,245.05 357.922,246.192 352.762,248.835C352.123,249.163 351.87,249.946 352.197,250.585C352.525,251.224 353.308,251.477 353.947,251.149C358.681,248.724 363.982,247.65 369.338,247.65C375.137,247.649 380.992,248.912 386.189,251.046C386.853,251.319 387.613,251.002 387.885,250.337C388.158,249.673 387.84,248.914 387.176,248.641Z" style="fill:rgb(125,255,148);fill-rule:nonzero;"/>
            <path d="M382.903,236.342L380.303,236.342C380.306,242.12 379.032,247.339 377.057,251.008C376.073,252.844 374.918,254.284 373.71,255.234C372.497,256.185 371.267,256.651 370.001,256.654C368.734,256.651 367.504,256.185 366.291,255.234C364.476,253.813 362.791,251.272 361.602,247.981C360.408,244.694 359.697,240.676 359.697,236.342C359.694,230.563 360.968,225.343 362.943,221.674C363.927,219.838 365.083,218.397 366.291,217.448C367.504,216.496 368.734,216.031 370.001,216.029C371.267,216.031 372.497,216.496 373.71,217.448C375.524,218.869 377.209,221.41 378.398,224.701C379.592,227.988 380.303,232.007 380.303,236.342L382.903,236.342C382.899,230.183 381.573,224.597 379.348,220.444C378.232,218.368 376.887,216.644 375.319,215.406C373.757,214.17 371.936,213.426 370.001,213.429C368.066,213.426 366.244,214.17 364.682,215.406C362.332,217.266 360.473,220.205 359.158,223.814C357.849,227.425 357.098,231.723 357.097,236.342C357.101,242.499 358.427,248.085 360.652,252.238C361.768,254.314 363.113,256.038 364.682,257.276C366.244,258.511 368.066,259.255 370.001,259.253C371.936,259.255 373.757,258.511 375.319,257.276C377.669,255.416 379.528,252.477 380.842,248.868C382.151,245.257 382.902,240.96 382.903,236.342Z" style="fill:rgb(125,255,148);fill-rule:nonzero;"/>
            <path d="M368.701,214.729L368.701,257.953C368.701,258.671 369.283,259.253 370.001,259.253C370.719,259.253 371.301,258.671 371.301,257.953L371.301,214.729C371.301,214.011 370.719,213.429 370.001,213.429C369.283,213.429 368.701,214.011 368.701,214.729Z" style="fill:rgb(125,255,148);fill-rule:nonzero;"/>
            <path d="M348.388,237.642L391.612,237.642C392.33,237.642 392.912,237.06 392.912,236.342C392.912,235.624 392.33,235.042 391.612,235.042L348.388,235.042C347.67,235.042 347.088,235.624 347.088,236.342C347.088,237.06 347.67,237.642 348.388,237.642Z" style="fill:rgb(125,255,148);fill-rule:nonzero;"/>
        </g>
        <path d="M403.209,236.34L400.809,236.34C400.808,244.848 397.363,252.541 391.788,258.119C386.21,263.694 378.518,267.139 370.009,267.14C361.5,267.139 353.808,263.694 348.23,258.119C342.654,252.541 339.209,244.848 339.209,236.34C339.209,227.83 342.654,220.138 348.23,214.561C353.807,208.985 361.5,205.54 370.009,205.54C378.518,205.54 386.21,208.985 391.788,214.561C397.363,220.138 400.808,227.83 400.809,236.34L403.209,236.34C403.208,218.003 388.345,203.141 370.009,203.14C351.673,203.141 336.81,218.003 336.809,236.34C336.81,254.675 351.673,269.539 370.009,269.54C388.345,269.539 403.208,254.675 403.209,236.34Z" style="fill:white;fill-opacity:0.12;fill-rule:nonzero;"/>
        <path d="M371.014,204.34L371.014,182.365C371.014,181.813 370.566,181.365 370.014,181.365C369.461,181.365 369.014,181.813 369.014,182.365L369.014,204.34C369.014,204.892 369.461,205.34 370.014,205.34C370.566,205.34 371.014,204.892 371.014,204.34Z" style="fill:white;fill-opacity:0.12;fill-rule:nonzero;"/>
        <path d="M370.019,181.365L330,181.365C329.448,181.365 329,181.813 329,182.365C329,182.918 329.448,183.365 330,183.365L370.019,183.365C370.571,183.365 371.019,182.918 371.019,182.365C371.019,181.813 370.571,181.365 370.019,181.365Z" style="fill:white;fill-opacity:0.12;fill-rule:nonzero;"/>
        <path d="M435.665,295.332C435.337,295.332 435.008,295.246 434.714,295.076C434.125,294.736 433.762,294.107 433.762,293.428L433.762,277.273C433.762,276.594 434.125,275.965 434.714,275.627C435.303,275.285 436.027,275.285 436.617,275.627L450.606,283.701C451.195,284.041 451.558,284.67 451.558,285.35C451.559,286.029 451.195,286.658 450.606,286.998L436.617,295.076C436.322,295.246 435.994,295.332 435.665,295.332Z" style="fill:rgb(242,120,141);fill-rule:nonzero;"/>
        <path d="M441,269.773C432.206,269.773 425.051,276.762 425.051,285.352C425.051,293.941 432.206,300.928 441,300.928C449.794,300.928 456.949,293.941 456.949,285.352C456.949,276.762 449.794,269.773 441,269.773ZM441,303.928C430.552,303.928 422.051,295.596 422.051,285.352C422.051,275.107 430.552,266.773 441,266.773C451.448,266.773 459.949,275.107 459.949,285.352C459.949,295.596 451.448,303.928 441,303.928Z" style="fill:rgb(242,120,141);fill-rule:nonzero;"/>
        <path d="M470.208,285.379L467.808,285.379C467.807,292.782 464.81,299.474 459.958,304.328C455.104,309.18 448.412,312.178 441.008,312.179C433.604,312.178 426.912,309.18 422.058,304.328C417.206,299.474 414.208,292.782 414.208,285.379C414.208,277.975 417.206,271.283 422.058,266.429C426.912,261.577 433.604,258.58 441.008,258.58C448.412,258.58 455.104,261.577 459.958,266.429C464.81,271.283 467.807,277.975 467.808,285.379L470.208,285.379C470.207,269.253 457.134,256.18 441.008,256.179C424.882,256.18 411.809,269.253 411.808,285.379C411.809,301.503 424.882,314.578 441.008,314.579C457.134,314.578 470.207,301.503 470.208,285.379Z" style="fill:white;fill-opacity:0.12;fill-rule:nonzero;"/>
        <path d="M413.008,283.834L330,283.834C329.448,283.834 329,284.282 329,284.834C329,285.386 329.448,285.834 330,285.834L413.008,285.834C413.56,285.834 414.008,285.386 414.008,284.834C414.008,284.282 413.56,283.834 413.008,283.834Z" style="fill:white;fill-opacity:0.12;fill-rule:nonzero;"/>
        <path d="M397.495,367.066C397.495,370.051 394.856,372.471 391.6,372.471C388.346,372.471 385.708,370.051 385.708,367.066C385.708,364.082 388.346,361.664 391.6,361.664C394.856,361.664 397.495,364.082 397.495,367.066Z" style="fill:rgb(250,220,42);fill-rule:nonzero;"/>
        <path d="M400.441,360.068C399.903,360.068 399.36,359.9 398.896,359.553C391.684,354.145 384.38,359.498 384.308,359.553C383.169,360.406 381.552,360.176 380.698,359.037C379.843,357.898 380.073,356.283 381.212,355.426C384.806,352.729 393.771,349.262 401.989,355.426C403.13,356.279 403.36,357.896 402.507,359.037C401.999,359.713 401.226,360.068 400.441,360.068Z" style="fill:rgb(250,220,42);fill-rule:nonzero;"/>
        <path d="M405.979,353.438C405.45,353.438 404.917,353.273 404.458,352.938C391.821,343.676 379.27,352.557 378.741,352.941C377.589,353.773 375.979,353.521 375.142,352.375C374.305,351.225 374.552,349.619 375.698,348.779C375.858,348.66 391.784,337.25 407.506,348.779C408.655,349.621 408.903,351.234 408.062,352.383C407.557,353.07 406.773,353.438 405.979,353.438Z" style="fill:rgb(250,220,42);fill-rule:nonzero;"/>
        <path d="M411.491,347.051C410.938,347.051 410.378,346.871 409.907,346.504C391.812,332.389 373.478,346.363 373.294,346.504C372.17,347.379 370.549,347.18 369.675,346.057C368.798,344.934 368.999,343.313 370.122,342.438C370.338,342.271 391.847,325.879 413.079,342.438C414.202,343.313 414.403,344.934 413.526,346.057C413.019,346.709 412.259,347.051 411.491,347.051Z" style="fill:rgb(250,220,42);fill-rule:nonzero;"/>
        <path d="M424.803,352.793L422.403,352.793C422.402,361.302 418.957,368.995 413.381,374.572C407.804,380.148 400.111,383.592 391.603,383.593C383.094,383.592 375.401,380.148 369.824,374.572C364.248,368.995 360.803,361.302 360.803,352.793C360.803,344.285 364.248,336.592 369.824,331.015C375.401,325.439 383.094,321.994 391.603,321.993C400.111,321.994 407.804,325.439 413.381,331.015C418.957,336.592 422.402,344.285 422.403,352.793L424.803,352.793C424.802,334.458 409.939,319.594 391.603,319.593C373.266,319.594 358.403,334.458 358.403,352.793C358.403,371.13 373.266,385.992 391.603,385.993C409.939,385.992 424.802,371.13 424.803,352.793Z" style="fill:white;fill-opacity:0.12;fill-rule:nonzero;"/>
        <path d="M392.602,320.793L392.602,298.998C392.602,298.446 392.154,297.998 391.602,297.998C391.049,297.998 390.602,298.446 390.602,298.998L390.602,320.793C390.602,321.345 391.049,321.793 391.602,321.793C392.154,321.793 392.602,321.345 392.602,320.793Z" style="fill:white;fill-opacity:0.12;fill-rule:nonzero;"/>
        <path d="M391.601,297.428L330,297.428C329.448,297.428 329,297.875 329,298.428C329,298.98 329.448,299.428 330,299.428L391.601,299.428C392.153,299.428 392.601,298.98 392.601,298.428C392.601,297.875 392.153,297.428 391.601,297.428Z" style="fill:white;fill-opacity:0.12;fill-rule:nonzero;"/>
    </g>
</svg>
