<?xml version="1.0" encoding="UTF-8" standalone="no"?><!DOCTYPE svg PUBLIC "-//W3C//DTD SVG 1.1//EN" "http://www.w3.org/Graphics/SVG/1.1/DTD/svg11.dtd"><svg width="100%" height="100%" viewBox="0 0 1838 1838" version="1.1" xmlns="http://www.w3.org/2000/svg" xmlns:xlink="http://www.w3.org/1999/xlink" xml:space="preserve" xmlns:serif="http://www.serif.com/" style="fill-rule:evenodd;clip-rule:evenodd;stroke-linejoin:round;stroke-miterlimit:2;"><rect id="Artboard1" x="0" y="0" width="1838" height="1838" style="fill:none;"/><clipPath id="_clip1"><rect x="0" y="0" width="1838" height="1838"/></clipPath><g clip-path="url(#_clip1)"><g><rect x="-10" y="1758.71" width="2449.5" height="78.396" style="fill:#a07a71;"/><path d="M1462.67,566.968l-0,-173.21l129.754,0l-0.013,-0.089l-30.225,0l-0,-173.251l230.463,0l-0,171.522c0.926,0 1.31,0.966 1.194,1.819l60.508,0l-0,-393.762l-396.341,0l0,566.971l4.66,0Z" style="fill:#9297a3;fill-rule:nonzero;"/><path d="M933.803,1077.49l-0,-178.104l1.902,0l0.491,-14.785c-15.751,-5.515 -31.381,-11.405 -46.441,-18.256l-0,211.145l44.048,0Z" style="fill:#9297a3;fill-rule:nonzero;"/><path d="M857.721,837.882c-0.484,-7.873 0.467,-15.698 2.093,-23.433l-0,-158.903l-522.568,0l-0,165.193l247.69,0l-0,267.091l12.956,0l-0,-85.717l206.868,0l-0,257.842l-27.158,0c-0.003,0.024 -0.019,0.043 -0.024,0.067l27.182,0l-0,80.826l17.816,0c12.269,-14.04 24.894,-28.202 37.238,-41.611l-0,-451.74c-1.381,-2.947 -1.89,-6.328 -2.093,-9.615Z" style="fill:#9297a3;fill-rule:nonzero;"/><path d="M1458.01,1338.37l0,0.401l-22.709,0l-0,-307.116l-230.365,0l0,37l194.908,0l0,271.129l-232.361,0c-0.003,0.355 -0.006,0.709 -0.008,1.063l359.27,0l0,-2.477l-68.735,-0Z" style="fill:#9297a3;fill-rule:nonzero;"/><rect x="1458.01" y="1303.58" width="68.734" height="13.907" style="fill:#9297a3;fill-rule:nonzero;"/><path d="M1592.68,645.491l0,386.166l-134.674,0l0,239.134l68.733,0l-0,-86.54l139.746,0l-0,-86.759l30.241,0l-0.013,-0.093l-30.228,0l-0,-346.503l187.862,0l-0,-151.139l-396.341,0l0,45.734l134.674,0Z" style="fill:#9297a3;fill-rule:nonzero;"/><path d="M209.859,51.499l-0,-51.497l29.943,-0l-0,51.497l36.215,0l-0,378.736l-36.215,0l-0,0.102l36.215,0l-0,0.051l31.288,0l-0,-430.386l29.941,0l-0,430.385l79.779,0c-0.153,-0.931 0.355,-1.991 1.573,-1.991l-0,-187.476l303.863,0l0,189.366l-39.854,0c-0.004,0.034 -0.011,0.067 -0.017,0.101l171.079,0l0,189.315l6.146,0l0,-619.7l29.941,0l0,725.776c11.013,-27.367 23.073,-54.329 35.407,-81.109c8.074,-17.523 15.99,-46.957 41.462,-42.514c0.447,0.078 0.876,0.229 1.32,0.323l0.033,-0.133l30.276,-3.244c2.617,-0.357 5.342,-0.678 8.11,-0.981c4.526,-16.587 9.053,-33.171 13.577,-49.757c0.581,-2.129 0.983,-4.61 1.475,-7.047c-1.686,-0.076 -3.479,-0.483 -5.333,-1.223c-3.751,-1.494 -6.857,-4.274 -9.483,-7.337c-5.126,-5.979 -8.73,-13.249 -10.384,-20.945c-0.685,-3.193 -0.964,-6.652 -0.176,-9.763l-12.885,3.852c-7.087,-7.333 1.77,-13.747 1.77,-13.747c-0.433,-5.65 -26.313,-82.54 44.659,-111.113c-0.153,-0.767 -0.239,-1.559 -0.239,-2.371c-0,-6.667 5.403,-12.068 12.068,-12.068c5.124,-0 9.475,3.206 11.225,7.712c85.167,-16.923 97.729,65.313 97.729,65.313c12.753,-0 10.275,13.228 10.275,13.228l-26.431,7.9c-0.213,26.604 -5.416,53.297 -10.612,79.534c-1.449,7.325 -2.954,14.78 -6.428,21.46c-4.105,7.886 -12.031,7.81 -20.206,7.384c-6.027,-0.313 -12.192,-0.869 -18.31,-1.762c-0.184,9.787 -0.367,19.575 -0.551,29.361c8.15,0.624 15.786,1.568 22.597,2.845c0.21,-0.354 0.452,-0.681 0.783,-0.921c0.677,-0.489 1.568,-0.544 2.405,-0.557c4.44,-0.056 8.603,0.864 12.51,2.462c16.923,1.946 34.444,11.47 43.883,22.567c5.536,6.51 9.422,14.207 12.042,22.367l262.977,-0l0,-645.497l-1445.3,-0l-0,51.502l219.859,-0Zm780.294,32.907l366.799,-0l-0,61.78l-366.799,-0l-0,-61.78Z" style="fill:#9297a3;fill-rule:nonzero;"/><path d="M1435.3,1338.77l22.709,-0l0,-0.401l68.734,-0l0,-20.882l-68.734,-0l0,-13.907l68.734,-0l0,-32.793l-68.734,-0l0,-239.134l-22.709,-0l-0,307.117Z" style="fill:#7b818a;fill-rule:nonzero;"/><path d="M2418.04,-0.003l-22.712,0l0,566.971l-9.882,0l0,-171.999c1.641,0 1.644,-3.076 0,-3.076l0,-170.032c1.641,0 1.644,-3.076 0,-3.076l0,-171.67l-41.317,0l0,-47.118l-22.711,0l0,47.118l-166.437,0l-0,346.508l30.228,0l0.013,0.093l-30.24,0l-0,173.252l-23.73,0l-0,-171.999c1.642,0 1.644,-3.076 -0,-3.076l-0,-170.032c1.642,0 1.644,-3.076 -0,-3.076l-0,-171.67l-180.288,0l-0,-47.118l-22.708,0l-0,47.118l-27.468,0l-0,346.508l27.468,0l-0,0.093l-27.468,0l-0,0.042l-23.73,0l-0,-393.761l-22.709,0l-0,393.761l-60.508,0c0.116,-0.853 -0.268,-1.819 -1.194,-1.819l-0,-171.521l-230.463,0l-0,173.252l30.225,0l0.013,0.089l-129.754,0l-0,173.21l-4.66,0l-0,-566.972l-22.709,0l-0,645.494l22.709,0l-0,-45.734l396.341,0l-0,151.138l-187.862,0l-0,346.504l30.228,0l0.013,0.093l-30.241,0l-0,86.759l90.485,0c-0.007,-0.045 -0.017,-0.086 -0.022,-0.131l-53.634,0l-0,-254.846l56.326,0c-7.035,-1.676 -11.605,-4.276 -6.191,-8.042c4.846,-3.367 16.584,-2.996 22.5,-4.595c7.584,-2.055 15.004,-4.713 22.165,-7.953c3.863,-1.747 7.759,-3.692 11.983,-4.059c2.597,-0.228 5.205,0.152 7.785,0.532c2.109,0.311 6.519,1.109 11.305,2.397c16.618,-1.721 36.972,-6.245 53.091,-10.295c1.785,-0.448 3.58,-0.844 5.354,-1.321c3.115,-0.836 6.218,-1.785 9.319,-2.768l-0,-142.274l-19.894,0l-0,-151.139l51.198,0l-0,5.772c0.21,-0.565 0.406,-1.135 0.654,-1.688c5.331,-11.886 18.08,-18.692 30.648,-22.105c21.354,-5.806 41.97,-2.89 58.388,12.806c1.747,1.671 3.358,3.42 4.89,5.215l298.585,0l-0,335.137l-82.639,0l-0,-10.701l-122.695,0c1.13,7.871 2.045,15.773 2.888,23.603c0.945,8.76 1.632,17.542 2.152,26.335l64.305,0.167l-0.472,115.986l-68.02,-0.008c-0.356,1.653 -0.685,3.311 -1.087,4.954c-0.223,0.911 -0.489,1.886 -1.205,2.498c-0.591,0.506 -1.388,0.679 -2.149,0.831c-0.085,0.017 -0.17,0.035 -0.256,0.051l-0,82.961c1.64,0 2.323,1.426 2.117,2.679l230.232,0l-0,156.598l94.911,0l-0,-405.954l-21.464,0l-0,-335.137l21.464,-0l-0,-32.789l-21.464,-0l-0,-566.971Zm-73.91,934.897l-0,-335.137l51.198,-0l-0,335.137l-51.198,0Z" style="fill:#7b818a;fill-rule:nonzero;"/><path d="M545.082,1199.48c-0.004,0.034 -0.011,0.068 -0.017,0.102l39.871,-0l-0,141.273l12.956,-0l-0,-79.89c-1.475,-0 -1.473,-2.291 -0,-2.291l-0,-126.522c-1.475,-0 -1.473,-2.291 -0,-2.291l-0,-42.025l-12.956,-0l-0,111.645l-39.854,-0l0,-0.001Z" style="fill:#7b818a;fill-rule:nonzero;"/><path d="M1165.37,1068.66c0.199,13.866 0.305,27.734 0.402,41.591c0.106,15.101 0.217,30.198 0.317,45.299c-0,0.095 0.016,0.231 0.019,0.334l0.462,1.527c0,0 1.589,87.402 0.907,182.378l232.361,0l0,-271.129l-194.908,0l0,-37l-40.435,0c0.409,12.327 0.698,24.662 0.875,37Z" style="fill:#7b818a;fill-rule:nonzero;"/><path d="M935.705,899.384l-1.902,0l-0,178.104l-44.048,0l-0,190.275c14.443,-14.576 27.57,-26.758 38.057,-34.723l9.996,-92.54c-0.476,-12.563 -0.574,-25.142 -0.332,-37.713c0.163,-8.438 0.485,-16.87 0.869,-25.3c0.867,-19.052 2.168,-38.088 3.496,-57.113c1.167,-16.696 2.334,-33.392 3.5,-50.088c0.258,-3.688 0.526,-7.373 0.839,-11.055c-4.133,-1.768 -8.239,-3.623 -12.274,-5.675l1.799,-54.172Z" style="fill:#7b818a;fill-rule:nonzero;"/><path d="M1051.93,1186.48c-8.072,33.043 -23.885,86.651 -47.99,121.112l-33.374,33.253l89.268,0c-0.664,-28.411 -1.212,-55.438 -1.512,-77.632l-6.392,-76.733Z" style="fill:#7b818a;fill-rule:nonzero;"/><path d="M781.384,1388.95l-183.492,-0l-0,-48.097l-12.956,-0l-0,48.097l-247.69,-0l-0,0.051l444.095,-0c0.014,-0.017 0.029,-0.034 0.043,-0.051Z" style="fill:#d1aea2;fill-rule:nonzero;"/><path d="M804.76,1361.43c5.799,-6.758 11.763,-13.651 17.816,-20.577l-17.816,0l-0,20.577Z" style="fill:#d1aea2;fill-rule:nonzero;"/><path d="M2344.59,1431.54l13.09,0c13.924,0 13.901,21.603 0,21.603l-189.662,0c-0.894,1.585 -1.861,3.253 -2.853,5.067c-7.117,13.002 -14.387,25.925 -21.769,38.78l117.21,0c13.924,0 13.901,21.603 0,21.603l-135.286,0c-5.338,3.635 -11.515,5.827 -18.673,5.57c-1.116,-0.042 -2.329,-0.177 -3.129,-0.962c-1.158,-1.137 -0.899,-3.015 -0.511,-4.608l-232.915,0c-13.922,0 -13.899,-21.603 0,-21.603l4.637,0c-5.561,-2.502 -22.209,-14.157 -15.087,-20.426c1.981,-1.743 4.829,-1.966 7.462,-2.169c16.099,-1.245 31.995,-4.949 47.012,-10.882c0.912,-0.359 1.829,-0.696 2.732,-1.076c5.609,-2.334 11.143,-5.17 15.547,-9.295l-417.514,0c-13.924,0 -13.901,-21.603 0,-21.603l11.861,0l0,-90.692l-359.27,0c-0.573,77.925 -2.681,160.739 -8.454,204.438c0,-0 -3.898,0.2 -10.099,0.445c4.524,6.749 9.573,12.766 15.021,18.247c-0.02,-0.214 -0.107,-0.383 -0.304,-0.477c16.675,7.966 32.135,20.772 47.77,30.725c7.422,4.7 36.584,17.291 33.755,28.89c-0.146,0.604 -0.321,1.194 -0.498,1.776c-1.458,4.772 -3.145,9.591 -6.215,13.523c-0.194,0.249 -0.424,0.439 -0.627,0.673c2.212,6.335 -1.043,14.825 -9.759,14.825l-589.078,-0c-13.924,-0 -13.901,-21.603 0,-21.603l530.725,-0c-18.336,-6.257 -36.324,-13.531 -53.809,-21.873c-10.152,-4.844 -23.224,-9.257 -30.008,-18.746c-5.972,-8.35 -6.878,-19.186 -5.766,-29.106c0.464,-4.139 1.218,-8.24 1.983,-12.342c0.262,-1.406 0.505,-2.815 0.76,-4.223c-7.601,-0.459 -13.836,-1.213 -17.383,-2.397c-0,-0 -3.456,-108.947 -5.648,-202.775l-89.268,-0l-80.813,80.519l-0,41.932l-29.941,-0l-0,-0.396c-3.931,0.018 -7.861,0.026 -11.792,0.043l-42.68,42.525l-16.83,-13.886c-2.008,7.848 -3.113,15.589 -3.565,23.262c-0.867,14.751 0.203,30.498 3.597,44.903c1.622,6.878 3.523,13.789 5.164,20.696c1.468,6.177 4.814,13.949 4.814,20.27c1.949,8.211 3.321,18.789 -4.979,23.987c-25.253,15.815 -42.335,-34.734 -49.319,-50.51c-9.977,-22.54 -19.972,-45.114 -28.063,-68.417c-3.673,-10.578 -7.27,-19.072 -3.92,-30.118c1.358,-4.476 3.652,-8.565 6.519,-12.235c-12.923,0.039 -25.846,0.109 -38.768,0.143c-112.36,0.295 -224.722,0.384 -337.082,0.27c-113.351,-0.118 -226.701,-0.443 -340.053,-0.975c-14.707,-0.067 -14.69,-22.894 -0,-22.823c63.926,0.295 127.849,0.531 191.773,0.7c112.396,0.295 224.789,0.384 337.185,0.27c68.968,-0.072 137.935,-0.247 206.901,-0.472c3.035,-3.738 7.401,-9.097 12.828,-15.701l-761.545,-0l-0,333.875l2449.5,-0l-0,-417.863l-94.911,-0l-0,90.694Z" style="fill:#d1aea2;fill-rule:nonzero;"/><path d="M1192.06,1639.41c-7.511,-2.174 -14.954,-4.576 -22.355,-7.101l-530.725,0c-13.901,0 -13.924,21.603 -0,21.603l589.078,0c8.715,0 11.971,-8.489 9.759,-14.825c-10.419,11.958 -32.99,4.015 -45.757,0.323Z" style="fill:#a07a71;fill-rule:nonzero;"/><path d="M1940.94,1439.1l-414.196,0l0,-7.557l-11.861,0c-13.901,0 -13.924,21.603 -0,21.603l417.514,0c0.683,-0.64 1.413,-1.227 2.034,-1.937c3.066,-3.504 5.055,-7.682 6.509,-12.109Z" style="fill:#a07a71;fill-rule:nonzero;"/><path d="M729.438,1453.25c2.26,-1.638 4.604,-3.163 6.965,-4.657l-2.518,-2.077c-0,0 1.72,-2.139 4.835,-5.978c-68.966,0.225 -137.933,0.4 -206.901,0.472c-112.396,0.114 -224.79,0.025 -337.185,-0.27c-63.924,-0.169 -127.847,-0.405 -191.773,-0.7c-14.69,-0.072 -14.707,22.755 -0,22.823c113.352,0.531 226.701,0.856 340.053,0.975c112.36,0.114 224.722,0.025 337.082,-0.27c12.923,-0.034 25.846,-0.104 38.768,-0.143c3.038,-3.891 6.721,-7.308 10.674,-10.175Z" style="fill:#a07a71;fill-rule:nonzero;"/><path d="M848.022,1462.95c3.931,-0.018 7.861,-0.026 11.792,-0.043l-0,-11.706l-11.792,11.749Z" style="fill:#a07a71;fill-rule:nonzero;"/><path d="M543.493,1200.95l-262.419,-0l-0,187.999l262.419,-0l-0,-187.999Zm-198.768,172.788l-44.899,-0l-0,-20.148l44.899,-0l-0,20.148Z" style="fill:#e39351;fill-rule:nonzero;"/><path d="M281.073,820.739l-0,187.636l262.418,0l-0,-187.636l-262.418,0Zm18.753,154.011l44.899,0l-0,20.148l-44.899,0l-0,-20.148Z" style="fill:#e39351;fill-rule:nonzero;"/><path d="M543.492,1197.58l-0,-185.847l-262.418,0l-0,185.846l60.896,0c67.172,0.001 134.347,0.001 201.522,0.001Zm-243.666,-33.464l44.899,-0l-0,20.148l-44.899,-0l-0,-20.148Z" style="fill:#e39351;fill-rule:nonzero;"/><path d="M543.492,1008.38l-262.418,0c-2.162,0 -2.167,3.363 -0,3.363l262.418,0l-0,185.847l-262.418,0c-2.162,0 -2.167,3.363 -0,3.363l262.418,0l-0,187.999l41.444,0l-0,-189.37l-39.871,0c0.006,-0.034 0.013,-0.068 0.017,-0.102l39.854,0l-0,-378.736l-41.444,-0l-0,187.636Z" style="fill:#c7764c;fill-rule:nonzero;"/><path d="M804.76,1260.02l-27.182,-0c0.004,-0.024 0.021,-0.043 0.024,-0.067l27.158,-0l-0,-257.842l-28.215,-0l-0,127.742l-178.653,-0c-1.473,-0 -1.475,2.291 -0,2.291l178.653,-0l-0,126.522l-178.653,-0c-1.473,-0 -1.475,2.291 -0,2.291l178.653,-0l-0,127.987l4.839,-0c7.316,-8.698 15.178,-17.967 23.376,-27.52l-0,-101.404Z" style="fill:#c7764c;fill-rule:nonzero;"/><path d="M597.892,1388.95l178.653,-0l-0,-127.987l-178.653,-0l-0,127.987Zm12.768,-24.071l30.567,-0l-0,13.717l-30.567,-0l-0,-13.717Z" style="fill:#e39351;fill-rule:nonzero;"/><rect x="610.66" y="1364.88" width="30.567" height="13.717" style="fill:#f7efec;"/><path d="M776.545,1129.86l-0,-127.742l-178.653,0l-0,127.742l178.653,0Zm-165.885,-22.89l30.567,0l-0,13.717l-30.567,0l-0,-13.717Z" style="fill:#e39351;fill-rule:nonzero;"/><rect x="610.66" y="1106.96" width="30.567" height="13.717" style="fill:#f7efec;"/><path d="M776.545,1258.67l-0,-126.522l-178.653,-0l-0,126.522l178.653,-0Zm-165.885,-22.78l30.567,-0l-0,13.713l-30.567,-0l-0,-13.713Z" style="fill:#e39351;fill-rule:nonzero;"/><rect x="610.66" y="1235.89" width="30.567" height="13.713" style="fill:#f7efec;"/><path d="M337.246,1389l-0,-0.051l-29.941,0l-0,0.051l-67.504,0l-0,35.839l511.746,0c7.954,-9.681 18.18,-22.031 29.794,-35.839l-444.095,0Z" style="fill:#6c6a6d;fill-rule:nonzero;"/><rect x="812.224" y="430.387" width="41.445" height="189.315" style="fill:#c7764c;"/><path d="M681.016,431.758l-131.208,0l-0,187.944l262.416,0l-0,-189.315l-129.634,0c-0.12,0.724 -0.628,1.371 -1.574,1.371Zm-67.557,172.788l-44.901,0l-0,-20.148l44.901,0l-0,20.148Z" style="fill:#e39351;fill-rule:nonzero;"/><rect x="568.559" y="584.399" width="44.901" height="20.148" style="fill:#f7efec;"/><path d="M681.016,428.396l-0,-187.476l-262.418,-0l-0,187.476l262.418,0Zm-243.665,-33.465l44.898,-0l-0,20.148l-44.898,-0l-0,-20.148Z" style="fill:#e39351;fill-rule:nonzero;"/><path d="M418.598,431.758l89.765,0l-0,187.944l41.445,0l0,-187.944l131.208,0c0.947,0 1.455,-0.648 1.574,-1.371c0.006,-0.034 0.013,-0.067 0.017,-0.101l39.854,0l0,-189.366l-41.445,0l0,187.476l-262.418,0c-1.218,0 -1.726,1.06 -1.573,1.991c0.118,0.724 0.626,1.371 1.573,1.371Z" style="fill:#c7764c;fill-rule:nonzero;"/><path d="M859.815,619.702l-620.013,0l-0,35.844l67.504,0l-0,165.193l29.941,0l-0,-165.193l522.568,0l-0,158.904c1.326,-6.308 3.092,-12.558 4.964,-18.715c7.21,-23.721 15.73,-46.98 24.977,-69.957l-0,-725.776l-29.941,0l-0,619.7Z" style="fill:#6c6a6d;fill-rule:nonzero;"/><path d="M889.755,866.343c-6.831,-3.107 -13.578,-6.355 -20.11,-9.946c-3.049,-1.679 -6.148,-3.489 -8.26,-6.257c-0.628,-0.824 -1.137,-1.714 -1.571,-2.641l-0,451.74c10.306,-11.196 20.409,-21.856 29.941,-31.475l-0,-401.421Z" style="fill:#6c6a6d;fill-rule:nonzero;"/><path d="M859.814,1451.2l-0,12.101l29.941,-0l-0,-41.932l-3.481,3.468l-26.46,26.363Z" style="fill:#6c6a6d;fill-rule:nonzero;"/><rect x="990.153" y="84.406" width="366.799" height="61.78" style="fill:#f7efec;"/><path d="M1582.51,1439.1l-0,-254.847l-55.774,0l-0,254.847l55.774,0Z" style="fill:#c7764c;fill-rule:nonzero;"/><path d="M1582.51,1439.1l353.15,0l0,-252.999l-176.575,0c-1.276,0 -1.959,-0.873 -2.118,-1.848l-174.457,0l0,254.847Zm267.491,-47.582l60.426,0l0,27.114l-60.426,0l0,-27.114Z" style="fill:#e39351;fill-rule:nonzero;"/><path d="M1841.29,1181.57l104.355,-0c-0.133,-1.725 -0.274,-3.412 -0.44,-5.009c-2.827,-27.185 -4.289,-54.515 -4.373,-81.848c-0.08,-25.831 1.139,-51.978 7.586,-76.912c-0.623,0.147 -1.242,0.283 -1.867,0.436c1.222,-13.907 2.441,-27.814 3.663,-41.717c0.563,-6.435 1.126,-12.92 0.316,-19.325c-0.649,-5.131 -2.162,-10.071 -4.008,-14.911c-1.354,-3.549 -2.888,-7.042 -4.392,-10.515c-0.359,-0.829 -0.693,-1.669 -1.05,-2.498l-44.307,-0c-2.414,0.217 -4.826,0.468 -7.243,0.654c-7.479,0.578 -14.966,1.017 -22.46,1.262c-8.352,0.27 -16.708,0.329 -25.063,0.185c-1.336,-0.025 -3.521,0.207 -5.718,0.308c-0.207,0.01 -0.409,0.01 -0.615,0.017c-6.396,5.014 -12.793,10.027 -19.188,15.042c-3.137,2.46 -6.757,5.059 -10.707,4.523c-1.027,-0.143 -2.16,-0.642 -2.424,-1.641c-0.179,-0.688 0.111,-1.405 0.409,-2.055c1.084,-2.354 2.318,-4.646 3.599,-6.916c2.072,-3.671 4.261,-7.283 6.122,-10.991c-0.673,1.333 -27.886,1.86 -31.023,2.072c-2.934,0.2 -14.573,-0.494 -22.822,-2.46l-0.552,-0l-0,252.298c27.4,0.001 54.801,0.001 82.202,0.001Z" style="fill:#e39351;fill-rule:nonzero;"/><path d="M1759.09,1186.1l176.575,0l-0,252.999l5.273,0c0.701,-2.136 1.318,-4.31 1.795,-6.531c0.538,-2.506 0.973,-5.038 1.352,-7.544c3.71,-24.388 3.882,-48.616 3.778,-73.206c-0.104,-24.768 1.523,-49.51 3.521,-74.185c0.882,-10.895 0.565,-25.084 3.395,-36.363c0.109,-0.436 0.252,-0.848 0.377,-1.273c-7.39,-14.878 -8.062,-36.522 -9.189,-53.895c-0.1,-1.546 -0.207,-3.057 -0.32,-4.527l-186.557,0l0,-252.3l-55.774,-0l0,254.846l53.634,-0c0.005,0.044 0.015,0.086 0.022,0.131c0.159,0.975 0.841,1.848 2.118,1.848Z" style="fill:#c7764c;fill-rule:nonzero;"/><path d="M1782.46,931.734c3.137,-0.211 30.35,-0.738 31.023,-2.072c-1.861,3.709 -4.051,7.321 -6.122,10.991c-1.281,2.27 -2.515,4.561 -3.599,6.916c-0.298,0.65 -0.589,1.367 -0.409,2.055c0.264,1 1.396,1.498 2.424,1.641c3.95,0.536 7.57,-2.063 10.707,-4.523c6.396,-5.015 12.792,-10.029 19.188,-15.042c0.207,-0.007 0.408,-0.007 0.615,-0.017c2.196,-0.101 4.382,-0.333 5.718,-0.308c8.354,0.144 16.711,0.085 25.063,-0.185c7.494,-0.245 14.981,-0.684 22.46,-1.262c-1.367,-11.152 -3.635,-22.131 -7.251,-32.671c-16.119,4.051 -36.474,8.575 -53.091,10.295c-4.786,-1.287 -9.196,-2.086 -11.305,-2.397c-2.58,-0.38 -5.188,-0.76 -7.785,-0.532c-4.224,0.367 -8.12,2.312 -11.983,4.059c-7.161,3.241 -14.58,5.898 -22.165,7.953c-5.915,1.599 -17.654,1.228 -22.5,4.595c-5.414,3.766 -0.844,6.366 6.191,8.042c8.248,1.968 19.887,2.662 22.821,2.462Z" style="fill:#f6b19d;fill-rule:nonzero;"/><path d="M1149.49,638.816c0.973,2.198 1.85,4.428 2.675,6.675l20.152,0c-2.62,-8.16 -6.506,-15.857 -12.042,-22.367c-9.438,-11.097 -26.96,-20.621 -43.883,-22.567c15.446,6.315 26.669,23.741 33.098,38.259Z" style="fill:#fbba0f;fill-rule:nonzero;"/><path d="M1082.87,1546.02c-0.256,1.408 -0.498,2.818 -0.76,4.223c16.677,19.16 40.996,35.882 65.331,31.012c1.291,-0.858 16.772,-14.331 16.502,-17.278c-5.448,-5.481 -10.498,-11.498 -15.021,-18.247c-15.565,0.617 -45.735,1.518 -66.052,0.29Z" style="fill:#f7efec;fill-rule:nonzero;"/><path d="M1147.44,1581.26c-24.335,4.869 -48.653,-11.852 -65.331,-31.012c-0.766,4.101 -1.519,8.202 -1.983,12.342c-1.112,9.92 -0.207,20.755 5.766,29.106c6.785,9.49 19.856,13.903 30.008,18.746c17.485,8.342 35.473,15.616 53.809,21.873c7.401,2.525 14.843,4.927 22.355,7.101c12.767,3.692 35.338,11.635 45.759,-0.323c0.203,-0.234 0.433,-0.424 0.627,-0.673c3.069,-3.932 4.757,-8.751 6.215,-13.523c0.178,-0.582 0.353,-1.173 0.498,-1.776c2.829,-11.599 -26.333,-24.19 -33.755,-28.89c-15.635,-9.953 -31.095,-22.759 -47.77,-30.725c0.197,0.094 0.284,0.262 0.304,0.477c0.27,2.946 -15.212,16.419 -16.502,17.277Z" style="fill:#161229;fill-rule:nonzero;"/><path d="M784.948,1514.85c0.452,-7.673 1.557,-15.414 3.565,-23.262l-51.936,-42.851c3.766,29.259 22.236,72.413 48.371,66.113Z" style="fill:#f7efec;fill-rule:nonzero;"/><path d="M736.576,1448.74l-0.174,-0.144c-2.36,1.495 -4.705,3.019 -6.965,4.657c-3.952,2.867 -7.636,6.285 -10.675,10.174c-2.867,3.67 -5.161,7.759 -6.519,12.235c-3.35,11.046 0.247,19.54 3.92,30.118c8.091,23.304 18.086,45.878 28.063,68.417c6.983,15.776 24.066,66.325 49.319,50.51c8.299,-5.198 6.928,-15.776 4.979,-23.987c-0,-6.321 -3.346,-14.093 -4.814,-20.27c-1.641,-6.907 -3.542,-13.818 -5.164,-20.696c-3.395,-14.405 -4.464,-30.152 -3.597,-44.903c-26.136,6.301 -44.606,-36.853 -48.373,-66.111Z" style="fill:#161229;fill-rule:nonzero;"/><path d="M1108.22,1031.66l-10.418,0l-0,-19.98c-0.547,8.858 -1.19,17.709 -1.922,26.553c4.216,-2 8.334,-4.188 12.34,-6.573Z" style="fill:#4d82a3;fill-rule:nonzero;"/><path d="M1000.37,495.631c5.101,-3.47 11.117,-2.578 16.26,0.261l117.583,-35.142l26.431,-7.9c-0,-0 2.479,-13.228 -10.275,-13.228c-0,-0 -12.563,-82.236 -97.729,-65.313c-1.75,-4.506 -6.101,-7.712 -11.225,-7.712c-6.665,-0 -12.068,5.401 -12.068,12.068c-0,0.812 0.086,1.604 0.239,2.371c-70.972,28.574 -45.092,105.464 -44.659,111.114c-0,-0 -8.857,6.413 -1.77,13.747l12.885,-3.852c0.338,-1.332 0.851,-2.607 1.645,-3.761c0.734,-1.066 1.647,-1.948 2.683,-2.653Z" style="fill:#fbba0f;fill-rule:nonzero;"/><path d="M1035.06,623.272c22.101,8.898 54.422,0.401 65.189,-22.827c0.137,-0.296 0.287,-0.591 0.454,-0.872c-6.811,-1.278 -14.447,-2.222 -22.597,-2.845c0.184,-9.787 0.367,-19.575 0.551,-29.361c6.118,0.893 12.283,1.449 18.31,1.762c8.175,0.427 16.101,0.502 20.206,-7.384c3.475,-6.679 4.979,-14.135 6.428,-21.46c5.195,-26.237 10.399,-52.93 10.612,-79.534l-117.583,35.142c-5.143,-2.84 -11.159,-3.732 -16.26,-0.261c-1.036,0.705 -1.949,1.587 -2.683,2.654c-0.794,1.153 -1.307,2.429 -1.645,3.761c-0.788,3.111 -0.509,6.57 0.176,9.763c1.654,7.696 5.257,14.966 10.384,20.945c2.626,3.063 5.732,5.844 9.483,7.337c1.855,0.74 3.647,1.147 5.333,1.223c-0.493,2.438 -0.894,4.919 -1.475,7.047c-4.525,16.586 -9.052,33.17 -13.577,49.757c-2.768,0.304 -5.493,0.624 -8.11,0.981c0.926,1.055 1.875,2.084 2.842,3.101c8.888,9.358 22.01,16.256 33.962,21.071Z" style="fill:#a45942;fill-rule:nonzero;"/><path d="M1097.37,928.658c-5.07,-3.753 -10.646,-9.386 -14.534,-15.634c-1.127,-0.225 -2.267,-0.483 -3.417,-0.788c-7.244,-1.919 -14.291,-3.563 -21.217,-5.065l-10.429,16.838c-22.381,-8.008 -44.761,-16.021 -67.143,-24.038c-14.592,-5.225 -29.546,-10.161 -44.429,-15.371l-0.491,14.785l-1.799,54.172c4.036,2.052 8.141,3.907 12.274,5.675c50.31,21.521 107.038,22.634 151.619,17.505l-0,-47.753c-0.146,-0.109 -0.286,-0.216 -0.434,-0.326Z" style="fill:#20648e;fill-rule:nonzero;"/><path d="M1017.98,666.39c4.492,32.531 -10.742,58.649 -23.578,87.012c-1.292,2.857 -19.42,41.002 -24.661,52.637c1.305,0.885 2.166,2.499 2.233,4.013c0.021,0.468 -0.118,0.868 -0.235,1.276l107.968,61.12l-1.284,2.073c4,1.95 8.163,4.098 11.98,6.424c2.384,-1.343 4.862,-2.515 7.397,-3.582l-0.001,-231.87l54.371,0c-0.825,-2.247 -1.702,-4.477 -2.675,-6.675c-6.429,-14.518 -17.652,-31.944 -33.098,-38.259c-3.906,-1.598 -8.07,-2.518 -12.51,-2.462c-0.837,0.013 -1.728,0.068 -2.405,0.557c-0.331,0.24 -0.573,0.568 -0.783,0.921c-0.167,0.282 -0.316,0.577 -0.454,0.872c-10.767,23.228 -43.088,31.725 -65.189,22.827c-11.952,-4.815 -25.074,-11.713 -33.962,-21.072c-0.966,-1.017 -1.916,-2.046 -2.842,-3.101l-30.276,3.244l-0.033,0.133c26.586,5.617 46.628,39.214 50.037,63.912Z" style="fill:#20648e;fill-rule:nonzero;"/><path d="M1166.57,1157.41l-0.462,-1.527c-0.003,-0.102 -0.019,-0.239 -0.019,-0.334c-0.099,-15.101 -0.211,-30.198 -0.317,-45.299c-0.096,-13.857 -0.203,-27.725 -0.402,-41.591c-0.177,-12.338 -0.467,-24.673 -0.875,-37l-39.421,0c-0.213,0.209 -0.44,0.403 -0.68,0.578c-8.709,6.333 -18.072,11.7 -27.937,16.017c-0.492,0.215 -0.985,0.327 -1.475,0.418c-1.109,12.159 -2.374,24.305 -3.846,36.426c-1.228,10.109 -0.96,22.523 -9.426,29.645c-5.572,4.684 -12.859,6.228 -19.99,7.034c-0.505,4.713 -1.01,9.426 -1.515,14.139c-1.56,14.555 -3.12,29.11 -4.679,43.666c-0.257,2.399 -1.947,3.785 -3.819,4.25c-2.757,0.684 -5.918,-0.689 -5.535,-4.25c0.909,-8.487 1.819,-16.973 2.728,-25.459c0.062,-0.582 0.125,-1.163 0.187,-1.745c0.576,-5.377 1.152,-10.754 1.728,-16.13c0.593,-5.531 1.185,-11.061 1.778,-16.592c-0.995,0.104 -2.02,-0.007 -2.896,-0.495c-7.551,-4.19 -14.534,-9.481 -20.633,-15.591c-1.846,-1.852 -1.715,-4.747 -0,-6.616c1.707,-1.861 4.884,-1.734 6.614,0c1.477,1.481 3.002,2.916 4.58,4.287c0.745,0.65 1.5,1.287 2.266,1.907c0.381,0.308 0.765,0.612 1.148,0.917l0.515,0.391c3.253,2.447 6.675,4.654 10.23,6.629c0.87,0.483 1.409,1.244 1.778,2.076c0.414,-0.132 0.821,-0.275 1.304,-0.317c0.093,-0.008 0.198,-0.018 0.292,-0.026c-1.479,-0.61 -2.578,-1.947 -2.408,-4.083c1.42,-17.928 -1.019,-36.013 -2.527,-53.865c-1.538,-18.198 -3.078,-36.392 -4.616,-54.591c-0.509,-6.008 8.85,-5.953 9.354,0c1.538,18.198 3.076,36.392 4.616,54.591c1.508,17.852 3.947,35.937 2.526,53.865c-0.135,1.699 -1.019,2.862 -2.162,3.597c6.126,-0.772 12.816,-2.466 15.741,-7.892c2.521,-4.675 2.441,-11.034 3.08,-16.181c0.652,-5.265 1.272,-10.536 1.857,-15.81c2.458,-22.151 4.296,-44.366 5.57,-66.615c0.295,-5.173 7.285,-5.871 8.974,-2.102l-0,-26.992c-44.581,5.129 -101.31,4.016 -151.619,-17.505c-0.313,3.682 -0.582,7.367 -0.839,11.055c-1.167,16.696 -2.333,33.392 -3.5,50.088c-1.328,19.025 -2.629,38.061 -3.496,57.113c-0.384,8.43 -0.706,16.862 -0.869,25.3c-0.242,12.571 -0.144,25.15 0.332,37.713l-9.996,92.54c-10.487,7.965 -23.614,20.148 -38.057,34.723c-9.531,9.618 -19.634,20.279 -29.941,31.475c-12.345,13.409 -24.969,27.571 -37.238,41.611c-6.053,6.927 -12.017,13.82 -17.816,20.577c-8.198,9.552 -16.06,18.822 -23.376,27.52c-0.014,0.017 -0.028,0.034 -0.043,0.051c-11.614,13.808 -21.84,26.158 -29.794,35.839c-5.426,6.604 -9.793,11.963 -12.828,15.701c-3.115,3.839 -4.835,5.978 -4.835,5.978l2.518,2.077l0.174,0.144l51.936,42.851l16.83,13.886l42.68,-42.525l11.792,-11.749l26.459,-26.363l3.482,-3.468l80.813,-80.519l33.374,-33.253c24.105,-34.461 39.918,-88.069 47.99,-121.112l6.391,76.733c0.301,22.194 0.849,49.221 1.512,77.632c2.192,93.828 5.648,202.775 5.648,202.775c3.547,1.183 9.782,1.938 17.383,2.397c20.317,1.228 50.486,0.327 66.051,-0.289c6.201,-0.245 10.099,-0.445 10.099,-0.445c5.773,-43.699 7.881,-126.513 8.454,-204.438c0.003,-0.354 0.006,-0.709 0.008,-1.063c0.683,-94.977 -0.905,-182.38 -0.905,-182.38Zm-166.276,-133.526c1.92,-1.92 4.65,-1.587 6.614,0c11.686,9.422 24.582,17.321 38.179,23.658c2.299,1.072 2.863,4.376 1.679,6.401c-1.359,2.321 -4.112,2.743 -6.399,1.675c-14.365,-6.696 -27.742,-15.177 -40.073,-25.122c-1.976,-1.595 -1.639,-4.975 0,-6.612Z" style="fill:#4d82a3;fill-rule:nonzero;"/><path d="M1095.88,1038.23c0.732,-8.844 1.375,-17.695 1.922,-26.553l-0,-7.949c-1.689,-3.769 -8.679,-3.071 -8.974,2.102c-1.274,22.249 -3.112,44.464 -5.57,66.615c-0.584,5.274 -1.205,10.545 -1.857,15.81c-0.639,5.148 -0.559,11.506 -3.08,16.181c-2.925,5.426 -9.616,7.12 -15.741,7.892c1.143,-0.735 2.027,-1.898 2.162,-3.597c1.422,-17.928 -1.017,-36.013 -2.526,-53.865c-1.54,-18.198 -3.078,-36.392 -4.616,-54.591c-0.504,-5.953 -9.863,-6.008 -9.354,0c1.538,18.198 3.078,36.392 4.616,54.591c1.508,17.852 3.947,35.937 2.527,53.865c-0.17,2.136 0.929,3.473 2.408,4.083c-0.094,0.009 -0.199,0.018 -0.292,0.026c-0.484,0.042 -0.89,0.185 -1.304,0.317c-0.369,-0.832 -0.908,-1.593 -1.778,-2.076c-3.555,-1.974 -6.977,-4.182 -10.23,-6.629l-0.515,-0.391c-0.383,-0.305 -0.767,-0.609 -1.148,-0.917c-0.766,-0.62 -1.521,-1.257 -2.266,-1.907c-1.578,-1.371 -3.103,-2.806 -4.58,-4.287c-1.73,-1.734 -4.907,-1.861 -6.614,0c-1.715,1.869 -1.846,4.764 -0,6.616c6.099,6.109 13.082,11.401 20.633,15.591c0.876,0.487 1.901,0.599 2.896,0.495c-0.593,5.531 -1.185,11.061 -1.778,16.592c-0.576,5.376 -1.152,10.753 -1.728,16.13c-0.062,0.582 -0.125,1.163 -0.187,1.745c-0.909,8.486 -1.818,16.972 -2.728,25.459c-0.382,3.562 2.778,4.935 5.535,4.25c1.872,-0.465 3.562,-1.851 3.819,-4.25c1.559,-14.556 3.119,-29.112 4.679,-43.666c0.505,-4.713 1.01,-9.426 1.515,-14.139c7.131,-0.806 14.418,-2.349 19.99,-7.034c8.466,-7.122 8.198,-19.536 9.426,-29.645c1.472,-12.121 2.738,-24.267 3.846,-36.426c0.49,-0.091 0.983,-0.203 1.475,-0.418c9.865,-4.316 19.228,-9.683 27.937,-16.017c0.24,-0.175 0.467,-0.369 0.68,-0.578l-16.858,0c-4.008,2.387 -8.126,4.575 -12.342,6.575Z" style="fill:#20648e;fill-rule:nonzero;"/><path d="M1040.37,1055.62c2.287,1.068 5.04,0.646 6.399,-1.675c1.183,-2.025 0.62,-5.329 -1.679,-6.401c-13.597,-6.337 -26.493,-14.236 -38.179,-23.658c-1.964,-1.587 -4.694,-1.92 -6.614,0c-1.639,1.637 -1.977,5.017 -0,6.612c12.331,9.945 25.708,18.426 40.073,25.122Z" style="fill:#20648e;fill-rule:nonzero;"/><path d="M1097.8,645.491l0.001,231.87c5.109,-2.146 10.425,-3.906 15.6,-5.898c5.118,-1.966 10.238,-3.936 15.356,-5.903c1.489,-0.574 14.504,-4.603 14.546,-5.595l1.088,-0.287c1.177,-0.042 2.095,1.169 2.156,2.346c0.059,1.177 -0.5,2.287 -1.08,3.312c-1.998,3.544 -4.42,6.844 -7.188,9.823c-0.542,0.582 -1.665,1.439 -2.903,2.405c-1.308,1.021 -5.443,3.578 -5.103,5.663c0.401,2.46 5.046,2.793 7.006,3.363c5.869,1.701 11.717,3.502 17.445,5.641c11.487,4.283 22.645,9.962 31.563,18.514c1.006,0.962 2.019,2.03 2.34,3.384c0.321,1.354 -0.354,3.038 -1.715,3.329c-0.956,0.207 -1.903,-0.304 -2.753,-0.785c-5.801,-3.283 -11.951,-5.949 -18.31,-7.945c-2.909,-0.911 -12.002,-5.7 -14.371,-3.413c4.398,3.418 9.344,6.308 13.991,9.396c4.319,2.869 8.65,5.755 12.534,9.19c5.279,4.666 9.673,10.325 12.886,16.595c0.492,0.958 0.964,1.97 0.945,3.047c-0.021,1.076 -0.69,2.211 -1.745,2.413c-0.509,0.097 -1.032,-0.029 -1.527,-0.181c-2.844,-0.857 -5.39,-2.464 -7.899,-4.055c-6.247,-3.958 -12.492,-7.92 -18.738,-11.878c-0.937,-0.595 -13.572,-9.063 -13.057,-4.954c0.168,1.346 2.078,1.624 2.909,2.236c3.646,2.675 7.31,5.426 10.89,8.258c7.453,5.894 14.89,11.806 22.312,17.742c0.871,0.697 1.772,1.431 2.257,2.435c0.487,1.004 0.43,2.367 -0.432,3.071c-5.896,-0.557 -11.274,-3.464 -16.468,-6.312c-12.333,-6.764 -24.302,-14.481 -36.858,-20.768c6.869,7.941 15.008,14.781 24.012,20.181c1.721,1.029 3.721,3.131 2.417,4.658c-0.742,0.873 -2.09,0.785 -3.219,0.603c-10.972,-1.738 -21.679,-5.101 -31.7,-9.89c-10.157,-4.853 -18.278,-11.5 -27.188,-18.121l0,102.674l185.834,-0l-0,-386.164l-185.834,0Z" style="fill:#c7764c;fill-rule:nonzero;"/><path d="M1283.63,1031.66l309.046,0l-0,-386.166l-309.046,0l0,386.166Zm205.381,-72.101l73.126,0l0,41.084l-73.126,0l-0,-41.084Z" style="fill:#e39351;fill-rule:nonzero;"/><rect x="1489.02" y="959.556" width="73.126" height="41.084" style="fill:#f7efec;"/><path d="M1082.83,913.024c3.889,6.248 9.464,11.881 14.534,15.634c0.147,0.11 0.287,0.217 0.434,0.326c8.91,6.621 17.031,13.269 27.188,18.121c10.021,4.789 20.728,8.152 31.7,9.89c1.129,0.182 2.477,0.27 3.219,-0.603c1.304,-1.527 -0.696,-3.629 -2.417,-4.658c-9.004,-5.401 -17.144,-12.24 -24.012,-20.181c12.557,6.286 24.525,14.004 36.858,20.768c5.194,2.848 10.572,5.755 16.468,6.312c0.863,-0.704 0.92,-2.067 0.432,-3.071c-0.485,-1.004 -1.386,-1.738 -2.257,-2.435c-7.422,-5.937 -14.859,-11.848 -22.312,-17.742c-3.58,-2.831 -7.245,-5.582 -10.89,-8.258c-0.831,-0.612 -2.741,-0.89 -2.909,-2.236c-0.515,-4.11 12.12,4.359 13.057,4.954c6.247,3.958 12.491,7.92 18.738,11.878c2.509,1.59 5.055,3.198 7.899,4.055c0.496,0.152 1.019,0.278 1.527,0.181c1.055,-0.202 1.724,-1.337 1.745,-2.413c0.019,-1.076 -0.454,-2.089 -0.945,-3.047c-3.213,-6.27 -7.607,-11.928 -12.886,-16.595c-3.884,-3.435 -8.215,-6.321 -12.534,-9.19c-4.647,-3.088 -9.593,-5.979 -13.991,-9.396c2.369,-2.287 11.462,2.502 14.371,3.413c6.359,1.996 12.509,4.662 18.31,7.945c0.85,0.481 1.797,0.992 2.753,0.785c1.361,-0.291 2.036,-1.975 1.715,-3.329c-0.321,-1.354 -1.333,-2.422 -2.34,-3.384c-8.918,-8.553 -20.076,-14.232 -31.563,-18.514c-5.728,-2.139 -11.576,-3.941 -17.445,-5.641c-1.96,-0.569 -6.605,-0.903 -7.006,-3.363c-0.34,-2.084 3.795,-4.641 5.103,-5.663c1.238,-0.966 2.361,-1.822 2.903,-2.405c2.768,-2.979 5.19,-6.278 7.188,-9.823c0.58,-1.025 1.139,-2.135 1.08,-3.312c-0.061,-1.177 -0.979,-2.388 -2.156,-2.346l-1.088,0.287c-0.042,0.992 -13.057,5.021 -14.546,5.595c-5.118,1.966 -10.239,3.937 -15.356,5.903c-5.175,1.992 -10.491,3.751 -15.6,5.898c-2.536,1.067 -5.013,2.239 -7.397,3.582c-3.817,-2.326 -7.98,-4.474 -11.98,-6.424l-20.224,32.651c6.926,1.502 13.973,3.147 21.217,5.065c1.148,0.303 2.288,0.561 3.415,0.786Z" style="fill:#a45942;fill-rule:nonzero;"/><path d="M859.814,814.45c-1.626,7.734 -2.577,15.559 -2.093,23.433c0.202,3.287 0.711,6.668 2.093,9.616c0.434,0.927 0.944,1.817 1.571,2.641c2.112,2.768 5.211,4.578 8.26,6.257c6.532,3.591 13.279,6.839 20.11,9.946c15.06,6.851 30.69,12.742 46.441,18.256c14.883,5.21 29.837,10.147 44.429,15.371c22.382,8.017 44.762,16.03 67.143,24.038l10.429,-16.838l20.224,-32.651l1.284,-2.073l-107.968,-61.12c-0.555,1.941 -2.436,3.208 -4.443,3.403c-2.249,0.219 -4.325,0.544 -6.936,1.139c-2.528,0.57 -5.019,1.296 -7.46,2.169c-2.466,0.882 -4.042,1.561 -6.489,2.81c-2.31,1.177 -4.54,2.498 -6.694,3.941c-2.109,1.409 -5.181,0.405 -6.398,-1.679c-1.331,-2.274 -0.42,-4.996 1.677,-6.396c9.654,-6.456 20.774,-10.215 32.301,-11.338c0.914,-0.089 1.741,0.187 2.444,0.663c5.242,-11.635 23.369,-49.78 24.661,-52.637c12.835,-28.362 28.069,-54.48 23.578,-87.012c-3.409,-24.698 -23.45,-58.295 -50.034,-63.913c-0.443,-0.094 -0.873,-0.245 -1.32,-0.323c-25.472,-4.443 -33.388,24.992 -41.462,42.514c-12.334,26.781 -24.394,53.742 -35.407,81.109c-9.247,22.978 -17.767,46.236 -24.977,69.957c-1.871,6.159 -3.638,12.409 -4.964,18.717Z" style="fill:#fbba0f;fill-rule:nonzero;"/><path d="M969.739,806.039c-0.703,-0.476 -1.53,-0.751 -2.444,-0.663c-11.527,1.122 -22.648,4.882 -32.301,11.338c-2.097,1.401 -3.008,4.122 -1.677,6.396c1.217,2.085 4.289,3.089 6.398,1.679c2.154,-1.443 4.384,-2.764 6.694,-3.941c2.447,-1.249 4.023,-1.928 6.489,-2.81c2.441,-0.873 4.932,-1.599 7.46,-2.169c2.612,-0.594 4.688,-0.919 6.936,-1.139c2.006,-0.195 3.888,-1.462 4.443,-3.403c0.117,-0.408 0.256,-0.808 0.235,-1.276c-0.068,-1.514 -0.928,-3.127 -2.233,-4.012Z" style="fill:#f6a01b;fill-rule:nonzero;"/><path d="M281.073,820.739l26.232,0l-0,-165.193l-67.503,0l-0,263.011l41.271,0l-0,-97.818Z" style="fill:#9297a3;fill-rule:nonzero;"/><path d="M1.461,430.235l-11.461,0l-0,0.102l11.478,0c-0.006,-0.034 -0.013,-0.068 -0.017,-0.102Z" style="fill:#9297a3;fill-rule:nonzero;"/><path d="M3.259,1199.63c-0.006,-0.034 -0.013,-0.067 -0.016,-0.101l-13.243,0l-0,0.101l13.259,0Z" style="fill:#9297a3;fill-rule:nonzero;"/><path d="M111.266,1010.15l-0,-91.598l98.593,0l-0,-263.011l-219.859,0l-0,354.609l121.266,0Z" style="fill:#9297a3;fill-rule:nonzero;"/><path d="M209.861,918.557l-98.594,0l-0,91.598l22.975,0l-0,189.37l-39.854,0c-0.003,0.034 -0.011,0.068 -0.016,0.101l115.489,0l-0,-281.069Z" style="fill:#7b818a;fill-rule:nonzero;"/><path d="M265.451,1340.85l15.622,0l-0,-139.902c-2.167,0 -2.162,-3.363 -0,-3.363l-0,-185.846c-2.167,0 -2.162,-3.363 -0,-3.363l-0,-89.818l-41.272,0l-0,281.07l25.65,0l-0,141.222Z" style="fill:#7b818a;fill-rule:nonzero;"/><path d="M281.073,1340.85l-15.622,0l-0,48.148l41.854,0l-0,-0.051l-26.232,0l-0,-48.097Z" style="fill:#d1aea2;fill-rule:nonzero;"/><path d="M265.451,1199.63l-25.649,0l-0,189.37l25.649,0l-0,-189.37Z" style="fill:#c7764c;fill-rule:nonzero;"/><path d="M209.859,1389l-0,-189.371l-115.489,0c-0.119,0.724 -0.627,1.371 -1.574,1.371l-87.963,0c-0.948,0 -1.455,-0.648 -1.574,-1.371l-13.259,0l-0,154.012l35.24,0l-0,20.148l-35.24,0l-0,15.211l219.859,0Z" style="fill:#e39351;fill-rule:nonzero;"/><rect x="-10" y="1353.64" width="35.24" height="20.148" style="fill:#f7efec;"/><path d="M134.241,1199.53l-0,-189.37l-41.443,0l-0,187.48l-87.965,0c-1.174,0 -1.689,0.986 -1.59,1.89c0.003,0.034 0.011,0.068 0.016,0.101c0.119,0.724 0.626,1.371 1.574,1.371l87.963,0c0.947,0 1.455,-0.648 1.574,-1.371c0.006,-0.034 0.013,-0.067 0.016,-0.101l39.855,0Z" style="fill:#c7764c;fill-rule:nonzero;"/><path d="M4.833,1197.63l87.965,0l-0,-187.48l-102.798,0l-0,189.37l13.243,0c-0.1,-0.905 0.416,-1.89 1.59,-1.89Z" style="fill:#e39351;fill-rule:nonzero;"/><rect x="307.305" y="0.002" width="29.941" height="430.385" style="fill:#6c6a6d;"/><rect x="299.826" y="1353.59" width="44.899" height="20.148" style="fill:#f7efec;"/><rect x="299.826" y="974.75" width="44.899" height="20.148" style="fill:#f7efec;"/><rect x="299.826" y="1164.12" width="44.899" height="20.148" style="fill:#f7efec;"/><path d="M245.945,619.702l-0,-189.315l30.071,0l-0,-0.051l-36.214,0l-0,189.366l6.143,0Z" style="fill:#c7764c;fill-rule:nonzero;"/><path d="M209.859,431.708l-206.807,0c-0.948,0 -1.456,-0.648 -1.574,-1.371l-11.478,0l-0,189.366l219.859,0l-0,-187.995Zm-174.054,172.788l-44.899,-0l-0,-20.148l44.898,-0l-0,20.148l0.001,-0Z" style="fill:#e39351;fill-rule:nonzero;"/><rect x="-9.094" y="584.348" width="44.898" height="20.148" style="fill:#f7efec;"/><rect x="-9.094" y="205.511" width="44.898" height="20.148" style="fill:#f7efec;"/><path d="M239.802,430.235l36.214,0l-0,-378.736l-36.214,-0l-0,378.736Z" style="fill:#c7764c;fill-rule:nonzero;"/><path d="M3.052,428.345l206.807,0l-0,-185.847l-206.807,-0c-1.061,-0 -1.594,-0.806 -1.616,-1.629c-0.023,-0.858 0.511,-1.734 1.616,-1.734l206.807,-0l-0,-187.636l-219.859,-0l-0,378.736l11.462,0c-0.099,-0.905 0.416,-1.89 1.59,-1.89Zm-12.146,-222.834l44.898,-0l-0,20.148l-44.898,-0l-0,-20.148Zm-0,189.37l44.898,-0l-0,20.148l-44.898,-0l-0,-20.148Z" style="fill:#e39351;fill-rule:nonzero;"/><rect x="-9.094" y="394.881" width="44.898" height="20.148" style="fill:#f7efec;"/><path d="M3.052,428.345c-1.174,0 -1.689,0.986 -1.59,1.89c0.003,0.034 0.011,0.068 0.016,0.102c0.118,0.724 0.626,1.371 1.574,1.371l206.807,0l-0,-3.363l-206.807,0Z" style="fill:#c7764c;fill-rule:nonzero;"/><path d="M3.052,239.135c-1.105,0 -1.639,0.875 -1.616,1.734c0.022,0.823 0.555,1.629 1.616,1.629l206.807,0l-0,-3.363l-206.807,0Z" style="fill:#c7764c;fill-rule:nonzero;"/><path d="M209.859,1389l-219.859,0l-0,35.839l219.859,0l-0,-35.839Z" style="fill:#6c6a6d;fill-rule:nonzero;"/><path d="M245.945,619.702l262.418,0l-0,-187.944l-89.765,0c-0.947,0 -1.455,-0.648 -1.573,-1.371l-171.08,0l-0,189.315Zm18.751,-35.303l44.901,0l-0,20.148l-44.901,0l-0,-20.148Z" style="fill:#e39351;fill-rule:nonzero;"/><rect x="264.696" y="584.399" width="44.9" height="20.148" style="fill:#f7efec;"/><rect x="437.351" y="394.931" width="44.898" height="20.148" style="fill:#f7efec;"/><rect x="-10" y="619.702" width="219.859" height="35.844" style="fill:#6c6a6d;"/><path d="M239.802,1424.84l-0,-1424.83l-29.943,0l-0,1424.83l29.943,0Z" style="fill:#93979c;fill-rule:nonzero;"/></g><g><path d="M792.555,344.823l-31.711,0l0.004,0c-1.27,0 -2.485,0.504 -3.379,1.399c-0.899,0.894 -1.399,2.113 -1.399,3.379l0,31.707c0,1.269 0.5,2.484 1.399,3.379c0.894,0.898 2.109,1.398 3.379,1.398l31.711,-0l-0.004,-0c1.269,-0 2.484,-0.5 3.379,-1.398c0.894,-0.895 1.398,-2.11 1.398,-3.379l-0,-31.707c-0,-1.266 -0.504,-2.485 -1.398,-3.379c-0.895,-0.895 -2.11,-1.399 -3.379,-1.399Zm-1.559,33.32c0,0.422 -0.168,0.828 -0.465,1.125c-0.301,0.301 -0.707,0.465 -1.129,0.465l-25.387,0c-0.425,0.004 -0.832,-0.16 -1.132,-0.461c-0.297,-0.301 -0.465,-0.707 -0.461,-1.129l-0,-25.391c-0,-0.422 0.164,-0.828 0.464,-1.129c0.297,-0.296 0.704,-0.464 1.129,-0.464l25.387,-0c0.879,0.004 1.59,0.714 1.594,1.593l0,25.391Z" style="fill:#fff;fill-rule:nonzero;"/><path d="M765.606,376.549l22.207,0l-0,-22.207l-22.207,0l-0,22.207Zm11.094,-19.039c10.496,0.336 10.492,15.551 -0,15.887c-10.496,-0.336 -10.492,-15.551 -0,-15.887Z" style="fill:#fff;fill-rule:nonzero;"/><path d="M781.461,365.456c-0.032,-2.609 -2.153,-4.707 -4.762,-4.707c-2.606,0 -4.731,2.098 -4.758,4.707c0.028,2.606 2.152,4.707 4.758,4.707c2.609,0 4.73,-2.101 4.762,-4.707Z" style="fill:#fff;fill-rule:nonzero;"/><path d="M740.563,353.128c0.605,-0.625 0.597,-1.617 -0.016,-2.23c-0.609,-0.613 -1.602,-0.625 -2.227,-0.027c-3.851,3.875 -6.015,9.121 -6.015,14.586c-0,5.464 2.16,10.707 6.012,14.582c0.628,0.597 1.617,0.585 2.23,-0.028c0.609,-0.613 0.621,-1.601 0.02,-2.226c-3.258,-3.278 -5.082,-7.711 -5.086,-12.328c-0,-4.622 1.828,-9.051 5.082,-12.328l-0,-0.001Z" style="fill:#fff;fill-rule:nonzero;"/><path d="M741.797,365.456c-0.004,-2.945 1.172,-5.769 3.261,-7.843c0.602,-0.625 0.59,-1.614 -0.023,-2.227c-0.613,-0.613 -1.602,-0.621 -2.227,-0.023c-5.558,5.582 -5.558,14.602 0,20.184c0.621,0.621 1.629,0.621 2.25,-0c0.621,-0.622 0.621,-1.629 0,-2.25c-2.089,-2.075 -3.265,-4.899 -3.261,-7.84l-0,-0.001Z" style="fill:#fff;fill-rule:nonzero;"/><path d="M747.274,359.846c-3.067,3.11 -3.067,8.106 -0,11.215c0.621,0.606 1.613,0.602 2.23,-0.007c0.617,-0.606 0.633,-1.598 0.039,-2.227c-1.855,-1.867 -1.855,-4.879 0,-6.746c0.594,-0.629 0.578,-1.621 -0.039,-2.231c-0.617,-0.609 -1.609,-0.609 -2.23,-0.004l-0,0Z" style="fill:#fff;fill-rule:nonzero;"/><path d="M815.352,350.87c-0.625,-0.597 -1.618,-0.586 -2.227,0.028c-0.613,0.613 -0.621,1.605 -0.016,2.23c3.254,3.278 5.082,7.707 5.082,12.328c0,4.617 -1.828,9.051 -5.085,12.328c-0.614,0.621 -0.61,1.621 0.007,2.239c0.618,0.621 1.618,0.628 2.243,0.015c3.851,-3.875 6.011,-9.117 6.011,-14.582c0,-5.465 -2.164,-10.711 -6.015,-14.586l-0,0Z" style="fill:#fff;fill-rule:nonzero;"/><path d="M810.863,355.362c-0.625,-0.601 -1.614,-0.589 -2.227,0.024c-0.613,0.613 -0.625,1.601 -0.023,2.226c4.32,4.336 4.32,11.348 -0,15.684c-0.446,0.457 -0.575,1.137 -0.328,1.727c0.242,0.59 0.816,0.98 1.453,0.988c0.422,0 0.828,-0.168 1.125,-0.465c5.558,-5.582 5.558,-14.602 -0,-20.184l-0,0Z" style="fill:#fff;fill-rule:nonzero;"/><path d="M806.398,359.846c-0.621,-0.605 -1.614,-0.605 -2.231,0.004c-0.617,0.61 -0.637,1.602 -0.039,2.231c1.856,1.867 1.856,4.879 0,6.746c-0.297,0.301 -0.461,0.707 -0.457,1.129c0.004,0.422 0.172,0.824 0.473,1.121c0.629,0.617 1.636,0.613 2.254,-0.016c3.066,-3.109 3.066,-8.105 -0,-11.215l-0,0Z" style="fill:#fff;fill-rule:nonzero;"/><path d="M763.246,329.432c0.422,0 0.828,-0.168 1.129,-0.468c3.273,-3.258 7.707,-5.086 12.324,-5.086c4.621,-0 9.05,1.828 12.328,5.086c0.625,0.601 1.617,0.593 2.23,-0.02c0.613,-0.609 0.625,-1.602 0.027,-2.227c-3.875,-3.855 -9.121,-6.015 -14.586,-6.015c-5.464,-0 -10.707,2.164 -14.582,6.015c-0.445,0.458 -0.57,1.137 -0.328,1.727c0.246,0.59 0.817,0.977 1.457,0.988l0.001,0Z" style="fill:#fff;fill-rule:nonzero;"/><path d="M785.664,333.921c0.64,-0.007 1.211,-0.398 1.457,-0.988c0.242,-0.59 0.113,-1.269 -0.328,-1.727c-2.672,-2.687 -6.305,-4.195 -10.094,-4.195c-3.786,0 -7.418,1.508 -10.09,4.195c-0.598,0.625 -0.59,1.614 0.023,2.227c0.613,0.613 1.602,0.625 2.227,0.024c4.335,-4.321 11.348,-4.321 15.68,-0c0.3,0.296 0.703,0.464 1.125,0.464l-0,0Z" style="fill:#fff;fill-rule:nonzero;"/><path d="M771.078,337.924c0.293,0.301 0.699,0.469 1.121,0.473c0.422,0.004 0.828,-0.16 1.129,-0.457c1.886,-1.805 4.859,-1.805 6.746,-0.004c0.301,0.297 0.707,0.465 1.129,0.461c0.422,-0.004 0.824,-0.176 1.121,-0.477c2.023,-2.656 -3.617,-4.699 -5.625,-4.566c-2.004,-0.129 -7.649,1.914 -5.621,4.57l-0,0Z" style="fill:#fff;fill-rule:nonzero;"/><path d="M789.027,401.503c-3.278,3.258 -7.707,5.086 -12.328,5.086c-4.618,0 -9.051,-1.828 -12.324,-5.086c-0.625,-0.601 -1.618,-0.593 -2.231,0.02c-0.613,0.609 -0.629,1.601 -0.027,2.226c3.875,3.856 9.117,6.016 14.582,6.016c5.465,0 10.711,-2.164 14.586,-6.016c0.597,-0.625 0.586,-1.617 -0.028,-2.226c-0.617,-0.609 -1.605,-0.621 -2.23,-0.02l-0,0Z" style="fill:#fff;fill-rule:nonzero;"/><path d="M766.609,397.01c-0.297,0.297 -0.465,0.703 -0.465,1.125c-0,0.422 0.168,0.828 0.465,1.125c2.672,2.688 6.304,4.196 10.09,4.196c3.789,-0 7.422,-1.508 10.094,-4.192c0.621,-0.625 0.621,-1.633 -0,-2.254c-0.625,-0.621 -1.633,-0.621 -2.254,0c-4.332,4.321 -11.344,4.321 -15.68,0c-0.297,-0.297 -0.703,-0.464 -1.125,-0.464c-0.422,-0 -0.824,0.167 -1.125,0.464l-0,0Z" style="fill:#fff;fill-rule:nonzero;"/><path d="M782.324,392.545c-0.297,-0.304 -0.7,-0.472 -1.121,-0.476c-0.422,-0.004 -0.829,0.164 -1.129,0.461c-1.887,1.801 -4.86,1.801 -6.746,-0c-0.301,-0.297 -0.707,-0.465 -1.129,-0.461c-0.422,0.004 -0.828,0.176 -1.121,0.476c-2.028,2.657 3.617,4.7 5.625,4.567c2.003,0.129 7.648,-1.91 5.621,-4.567Z" style="fill:#fff;fill-rule:nonzero;"/></g><g><path d="M1729.7,265.628l-31.711,-0l0.004,-0c-1.27,-0 -2.485,0.504 -3.379,1.398c-0.899,0.895 -1.399,2.113 -1.399,3.379l0,31.707c0,1.269 0.5,2.484 1.399,3.379c0.894,0.898 2.109,1.398 3.379,1.398l31.711,0l-0.004,0c1.269,0 2.484,-0.5 3.378,-1.398c0.895,-0.895 1.399,-2.11 1.399,-3.379l-0,-31.707c-0,-1.266 -0.504,-2.484 -1.399,-3.379c-0.894,-0.894 -2.109,-1.398 -3.378,-1.398Zm-1.559,33.32c-0,0.422 -0.168,0.828 -0.465,1.125c-0.301,0.3 -0.707,0.465 -1.129,0.465l-25.387,-0c-0.426,0.003 -0.832,-0.161 -1.133,-0.461c-0.296,-0.301 -0.464,-0.707 -0.46,-1.129l-0,-25.391c-0,-0.422 0.164,-0.828 0.464,-1.129c0.297,-0.297 0.703,-0.465 1.129,-0.465l25.387,-0c0.879,0.004 1.59,0.715 1.594,1.594l-0,25.391Z" style="fill:#fff;fill-rule:nonzero;"/><path d="M1702.76,297.354l22.207,-0l-0,-22.207l-22.207,-0l-0,22.207Zm11.094,-19.039c10.496,0.336 10.492,15.551 -0,15.887c-10.496,-0.336 -10.492,-15.551 -0,-15.887Z" style="fill:#fff;fill-rule:nonzero;"/><path d="M1718.61,286.261c-0.032,-2.61 -2.153,-4.707 -4.762,-4.707c-2.606,-0 -4.731,2.097 -4.758,4.707c0.027,2.605 2.152,4.707 4.758,4.707c2.609,-0 4.73,-2.102 4.762,-4.707Z" style="fill:#fff;fill-rule:nonzero;"/><path d="M1677.71,273.933c0.605,-0.625 0.597,-1.618 -0.016,-2.231c-0.609,-0.613 -1.602,-0.625 -2.227,-0.027c-3.851,3.875 -6.015,9.121 -6.015,14.586c-0,5.465 2.16,10.707 6.011,14.582c0.629,0.597 1.618,0.586 2.231,-0.028c0.609,-0.613 0.621,-1.601 0.02,-2.226c-3.258,-3.277 -5.082,-7.711 -5.086,-12.328c-0,-4.621 1.828,-9.051 5.082,-12.328l-0,-0Z" style="fill:#fff;fill-rule:nonzero;"/><path d="M1678.95,286.261c-0.004,-2.946 1.171,-5.77 3.261,-7.844c0.602,-0.625 0.59,-1.613 -0.023,-2.227c-0.613,-0.613 -1.602,-0.621 -2.227,-0.023c-5.558,5.582 -5.558,14.602 0,20.184c0.621,0.621 1.629,0.621 2.25,-0c0.621,-0.621 0.621,-1.629 0,-2.25c-2.09,-2.074 -3.265,-4.899 -3.261,-7.84l-0,-0Z" style="fill:#fff;fill-rule:nonzero;"/><path d="M1684.42,280.651c-3.067,3.109 -3.067,8.105 -0,11.215c0.621,0.605 1.613,0.601 2.23,-0.008c0.617,-0.606 0.633,-1.598 0.039,-2.227c-1.855,-1.867 -1.855,-4.879 0,-6.746c0.594,-0.629 0.578,-1.621 -0.039,-2.23c-0.617,-0.61 -1.609,-0.61 -2.23,-0.004l-0,-0Z" style="fill:#fff;fill-rule:nonzero;"/><path d="M1752.5,271.675c-0.625,-0.598 -1.618,-0.586 -2.227,0.027c-0.613,0.613 -0.621,1.606 -0.016,2.231c3.254,3.277 5.082,7.707 5.082,12.328c0,4.617 -1.828,9.05 -5.086,12.328c-0.613,0.621 -0.609,1.621 0.008,2.238c0.617,0.621 1.617,0.629 2.242,0.015c3.852,-3.875 6.012,-9.117 6.012,-14.582c0,-5.464 -2.164,-10.711 -6.015,-14.586l-0,0.001Z" style="fill:#fff;fill-rule:nonzero;"/><path d="M1748.01,276.167c-0.625,-0.602 -1.614,-0.59 -2.227,0.023c-0.613,0.613 -0.625,1.602 -0.023,2.227c4.32,4.336 4.32,11.348 -0,15.684c-0.446,0.457 -0.575,1.136 -0.329,1.726c0.243,0.59 0.817,0.981 1.454,0.989c0.421,-0 0.828,-0.168 1.125,-0.465c5.558,-5.582 5.558,-14.602 -0,-20.184l-0,-0Z" style="fill:#fff;fill-rule:nonzero;"/><path d="M1743.55,280.651c-0.621,-0.606 -1.614,-0.606 -2.231,0.004c-0.617,0.609 -0.637,1.601 -0.039,2.23c1.856,1.867 1.856,4.879 0,6.746c-0.297,0.301 -0.461,0.707 -0.457,1.129c0.004,0.422 0.172,0.824 0.473,1.121c0.629,0.617 1.636,0.613 2.254,-0.015c3.066,-3.11 3.066,-8.106 -0,-11.215l-0,-0Z" style="fill:#fff;fill-rule:nonzero;"/><path d="M1700.39,250.237c0.421,-0 0.828,-0.168 1.128,-0.469c3.274,-3.258 7.707,-5.086 12.324,-5.086c4.622,0 9.051,1.828 12.328,5.086c0.625,0.601 1.618,0.594 2.231,-0.02c0.613,-0.609 0.625,-1.601 0.027,-2.226c-3.875,-3.856 -9.121,-6.016 -14.586,-6.016c-5.464,0 -10.707,2.164 -14.582,6.016c-0.445,0.457 -0.57,1.136 -0.328,1.726c0.246,0.59 0.817,0.977 1.457,0.989l0.001,-0Z" style="fill:#fff;fill-rule:nonzero;"/><path d="M1722.81,254.726c0.64,-0.008 1.21,-0.399 1.457,-0.989c0.242,-0.589 0.113,-1.269 -0.329,-1.726c-2.671,-2.688 -6.304,-4.196 -10.094,-4.196c-3.785,0 -7.418,1.508 -10.09,4.196c-0.597,0.625 -0.589,1.613 0.024,2.226c0.613,0.614 1.602,0.625 2.227,0.024c4.335,-4.32 11.348,-4.32 15.68,-0c0.3,0.297 0.703,0.465 1.125,0.465l-0,-0Z" style="fill:#fff;fill-rule:nonzero;"/><path d="M1708.23,258.729c0.293,0.3 0.699,0.468 1.121,0.472c0.422,0.004 0.828,-0.16 1.129,-0.457c1.886,-1.804 4.859,-1.804 6.746,-0.004c0.3,0.297 0.707,0.465 1.129,0.461c0.421,-0.004 0.824,-0.175 1.121,-0.476c2.023,-2.656 -3.618,-4.699 -5.625,-4.567c-2.004,-0.129 -7.649,1.914 -5.621,4.571l-0,-0Z" style="fill:#fff;fill-rule:nonzero;"/><path d="M1726.18,322.308c-3.278,3.257 -7.707,5.086 -12.328,5.086c-4.618,-0 -9.051,-1.829 -12.324,-5.086c-0.625,-0.602 -1.618,-0.594 -2.231,0.019c-0.613,0.61 -0.629,1.602 -0.027,2.227c3.875,3.855 9.117,6.015 14.582,6.015c5.465,0 10.711,-2.164 14.586,-6.015c0.597,-0.625 0.586,-1.617 -0.028,-2.227c-0.617,-0.609 -1.605,-0.621 -2.23,-0.019l-0,-0Z" style="fill:#fff;fill-rule:nonzero;"/><path d="M1703.76,317.815c-0.297,0.297 -0.465,0.703 -0.465,1.125c-0,0.422 0.168,0.828 0.465,1.125c2.671,2.687 6.304,4.195 10.09,4.195c3.789,-0 7.421,-1.508 10.094,-4.191c0.621,-0.625 0.621,-1.633 -0,-2.254c-0.625,-0.621 -1.633,-0.621 -2.254,-0c-4.332,4.32 -11.344,4.32 -15.68,-0c-0.297,-0.297 -0.703,-0.465 -1.125,-0.465c-0.422,-0 -0.825,0.168 -1.125,0.465l-0,-0Z" style="fill:#fff;fill-rule:nonzero;"/><path d="M1719.47,313.35c-0.297,-0.305 -0.7,-0.473 -1.122,-0.477c-0.421,-0.004 -0.828,0.164 -1.128,0.461c-1.887,1.801 -4.86,1.801 -6.747,0c-0.3,-0.297 -0.707,-0.465 -1.128,-0.461c-0.422,0.004 -0.829,0.176 -1.122,0.477c-2.027,2.656 3.618,4.699 5.625,4.566c2.004,0.129 7.649,-1.91 5.622,-4.566Z" style="fill:#fff;fill-rule:nonzero;"/></g><g><path d="M1609.26,1087.28l-31.711,-0l0.004,-0c-1.269,-0 -2.484,0.504 -3.379,1.398c-0.898,0.895 -1.398,2.114 -1.398,3.379l-0,31.707c-0,1.27 0.5,2.485 1.398,3.379c0.895,0.899 2.11,1.399 3.379,1.399l31.711,-0l-0.004,-0c1.27,-0 2.485,-0.5 3.379,-1.399c0.895,-0.894 1.399,-2.109 1.399,-3.379l-0,-31.707c-0,-1.265 -0.504,-2.484 -1.399,-3.379c-0.894,-0.894 -2.109,-1.398 -3.379,-1.398Zm-1.558,33.32c-0,0.422 -0.168,0.828 -0.465,1.125c-0.301,0.301 -0.707,0.465 -1.129,0.465l-25.387,-0c-0.426,0.004 -0.832,-0.16 -1.133,-0.461c-0.297,-0.301 -0.465,-0.707 -0.461,-1.129l0,-25.391c0,-0.422 0.164,-0.828 0.465,-1.129c0.297,-0.297 0.703,-0.465 1.129,-0.465l25.387,0c0.879,0.004 1.59,0.715 1.594,1.594l-0,25.391Z" style="fill:#fff;fill-rule:nonzero;"/><path d="M1582.31,1119.01l22.207,-0l0,-22.207l-22.207,-0l0,22.207Zm11.094,-19.039c10.496,0.336 10.492,15.551 0,15.887c-10.496,-0.336 -10.492,-15.551 0,-15.887Z" style="fill:#fff;fill-rule:nonzero;"/><path d="M1598.17,1107.92c-0.031,-2.609 -2.152,-4.707 -4.761,-4.707c-2.606,-0 -4.731,2.098 -4.758,4.707c0.027,2.605 2.152,4.707 4.758,4.707c2.609,-0 4.73,-2.102 4.761,-4.707Z" style="fill:#fff;fill-rule:nonzero;"/><path d="M1557.27,1095.59c0.606,-0.625 0.598,-1.617 -0.015,-2.231c-0.61,-0.613 -1.602,-0.625 -2.227,-0.027c-3.851,3.875 -6.015,9.121 -6.015,14.586c-0,5.465 2.16,10.707 6.011,14.582c0.629,0.598 1.617,0.586 2.231,-0.027c0.609,-0.614 0.621,-1.602 0.019,-2.227c-3.258,-3.277 -5.082,-7.711 -5.086,-12.328c0,-4.621 1.828,-9.051 5.082,-12.328l0,-0Z" style="fill:#fff;fill-rule:nonzero;"/><path d="M1558.5,1107.92c-0.004,-2.945 1.172,-5.77 3.262,-7.844c0.602,-0.625 0.59,-1.613 -0.023,-2.226c-0.614,-0.614 -1.602,-0.622 -2.227,-0.024c-5.559,5.582 -5.559,14.602 -0,20.184c0.621,0.621 1.629,0.621 2.25,0c0.621,-0.621 0.621,-1.629 -0,-2.25c-2.09,-2.074 -3.266,-4.898 -3.262,-7.84l0,-0Z" style="fill:#fff;fill-rule:nonzero;"/><path d="M1563.98,1102.31c-3.066,3.109 -3.066,8.105 0,11.215c0.621,0.605 1.614,0.601 2.231,-0.008c0.617,-0.605 0.633,-1.598 0.039,-2.226c-1.856,-1.868 -1.856,-4.879 -0,-6.747c0.594,-0.629 0.578,-1.621 -0.039,-2.23c-0.617,-0.609 -1.61,-0.609 -2.231,-0.004l0,-0Z" style="fill:#fff;fill-rule:nonzero;"/><path d="M1632.06,1093.33c-0.625,-0.598 -1.617,-0.586 -2.226,0.027c-0.614,0.614 -0.621,1.606 -0.016,2.231c3.254,3.277 5.082,7.707 5.082,12.328c0,4.617 -1.828,9.051 -5.086,12.328c-0.613,0.621 -0.609,1.621 0.008,2.238c0.617,0.621 1.617,0.629 2.242,0.016c3.852,-3.875 6.012,-9.118 6.012,-14.582c-0,-5.465 -2.164,-10.711 -6.016,-14.586l0,-0Z" style="fill:#fff;fill-rule:nonzero;"/><path d="M1627.57,1097.82c-0.625,-0.602 -1.613,-0.59 -2.226,0.023c-0.614,0.614 -0.625,1.602 -0.024,2.227c4.321,4.336 4.321,11.348 0,15.684c-0.445,0.457 -0.574,1.137 -0.328,1.727c0.242,0.589 0.817,0.98 1.453,0.988c0.422,-0 0.828,-0.168 1.125,-0.465c5.559,-5.582 5.559,-14.602 0,-20.184l0,-0Z" style="fill:#fff;fill-rule:nonzero;"/><path d="M1623.1,1102.31c-0.621,-0.606 -1.613,-0.606 -2.23,0.004c-0.617,0.609 -0.637,1.601 -0.039,2.23c1.855,1.868 1.855,4.879 -0,6.746c-0.297,0.301 -0.461,0.707 -0.457,1.129c0.004,0.422 0.172,0.825 0.472,1.121c0.629,0.618 1.637,0.614 2.254,-0.015c3.067,-3.11 3.067,-8.106 0,-11.215l0,-0Z" style="fill:#fff;fill-rule:nonzero;"/><path d="M1579.95,1071.89c0.422,-0 0.828,-0.168 1.129,-0.469c3.274,-3.258 7.707,-5.086 12.324,-5.086c4.621,0 9.051,1.828 12.328,5.086c0.625,0.602 1.617,0.594 2.231,-0.019c0.613,-0.61 0.625,-1.602 0.027,-2.227c-3.875,-3.855 -9.121,-6.016 -14.586,-6.016c-5.465,0 -10.707,2.165 -14.582,6.016c-0.445,0.457 -0.57,1.137 -0.328,1.727c0.246,0.589 0.816,0.976 1.457,0.988l0,-0Z" style="fill:#fff;fill-rule:nonzero;"/><path d="M1602.37,1076.38c0.641,-0.008 1.211,-0.399 1.457,-0.988c0.243,-0.59 0.114,-1.27 -0.328,-1.727c-2.672,-2.687 -6.304,-4.195 -10.094,-4.195c-3.785,-0 -7.418,1.508 -10.09,4.195c-0.597,0.625 -0.59,1.613 0.024,2.227c0.613,0.613 1.601,0.625 2.226,0.023c4.336,-4.32 11.348,-4.32 15.68,0c0.301,0.297 0.703,0.465 1.125,0.465l0,-0Z" style="fill:#fff;fill-rule:nonzero;"/><path d="M1587.78,1080.38c0.293,0.301 0.7,0.469 1.121,0.473c0.422,0.003 0.829,-0.161 1.129,-0.457c1.887,-1.805 4.86,-1.805 6.746,-0.004c0.301,0.297 0.707,0.464 1.129,0.461c0.422,-0.004 0.825,-0.176 1.121,-0.477c2.024,-2.656 -3.617,-4.699 -5.625,-4.566c-2.003,-0.129 -7.648,1.914 -5.621,4.57l0,-0Z" style="fill:#fff;fill-rule:nonzero;"/><path d="M1605.73,1143.96c-3.277,3.258 -7.707,5.086 -12.328,5.086c-4.617,-0 -9.05,-1.828 -12.324,-5.086c-0.625,-0.602 -1.617,-0.594 -2.23,0.019c-0.613,0.61 -0.629,1.602 -0.028,2.227c3.875,3.856 9.118,6.016 14.582,6.016c5.465,-0 10.711,-2.164 14.586,-6.016c0.598,-0.625 0.586,-1.617 -0.027,-2.227c-0.617,-0.609 -1.605,-0.621 -2.23,-0.019l-0.001,-0Z" style="fill:#fff;fill-rule:nonzero;"/><path d="M1583.31,1139.47c-0.297,0.297 -0.465,0.703 -0.465,1.125c0,0.422 0.168,0.828 0.465,1.125c2.672,2.687 6.305,4.195 10.09,4.195c3.789,0 7.422,-1.508 10.094,-4.191c0.621,-0.625 0.621,-1.633 0,-2.254c-0.625,-0.621 -1.632,-0.621 -2.254,-0c-4.332,4.32 -11.344,4.32 -15.68,-0c-0.296,-0.297 -0.703,-0.465 -1.125,-0.465c-0.421,0 -0.824,0.168 -1.125,0.465l0,-0Z" style="fill:#fff;fill-rule:nonzero;"/><path d="M1599.03,1135.01c-0.297,-0.305 -0.699,-0.473 -1.121,-0.477c-0.422,-0.004 -0.828,0.164 -1.129,0.461c-1.886,1.801 -4.859,1.801 -6.746,0c-0.301,-0.297 -0.707,-0.465 -1.129,-0.461c-0.422,0.004 -0.828,0.176 -1.121,0.477c-2.027,2.656 3.617,4.699 5.625,4.566c2.004,0.129 7.649,-1.91 5.621,-4.566Z" style="fill:#fff;fill-rule:nonzero;"/></g><g><path d="M126.041,806.369l-43.46,-0l0.005,-0c-1.74,-0 -3.405,0.667 -4.631,1.851c-1.231,1.185 -1.916,2.799 -1.916,4.475l-0,41.986c-0,1.681 0.685,3.29 1.916,4.474c1.226,1.19 2.891,1.852 4.631,1.852l43.46,-0l-0.005,-0c1.74,-0 3.405,-0.662 4.63,-1.852c1.226,-1.184 1.917,-2.793 1.917,-4.474l0,-41.986c0,-1.676 -0.691,-3.29 -1.917,-4.475c-1.225,-1.184 -2.89,-1.851 -4.63,-1.851Zm-2.136,44.122c-0,0.558 -0.231,1.096 -0.637,1.489c-0.413,0.399 -0.969,0.616 -1.548,0.616l-34.793,-0c-0.583,0.005 -1.14,-0.212 -1.552,-0.61c-0.407,-0.399 -0.637,-0.937 -0.632,-1.495l0,-33.623c0,-0.559 0.225,-1.096 0.637,-1.495c0.407,-0.393 0.964,-0.615 1.547,-0.615l34.793,-0c1.205,0.005 2.179,0.946 2.185,2.11l-0,33.623Z" style="fill:#fff;fill-rule:nonzero;"/><path d="M89.107,848.38l30.435,-0l-0,-29.406l-30.435,-0l-0,29.406Zm15.204,-25.211c14.385,0.444 14.38,20.592 0,21.037c-14.385,-0.445 -14.379,-20.592 0,-21.037Z" style="fill:#fff;fill-rule:nonzero;"/><path d="M110.836,833.691c-0.043,-3.456 -2.949,-6.233 -6.526,-6.233c-3.571,-0 -6.483,2.777 -6.52,6.233c0.037,3.45 2.949,6.233 6.52,6.233c3.577,-0 6.484,-2.783 6.526,-6.233Z" style="fill:#fff;fill-rule:nonzero;"/><path d="M54.785,817.366c0.83,-0.828 0.819,-2.141 -0.021,-2.954c-0.835,-0.812 -2.195,-0.827 -3.052,-0.036c-5.278,5.131 -8.244,12.078 -8.244,19.315c-0,7.236 2.96,14.178 8.239,19.309c0.862,0.792 2.216,0.776 3.057,-0.036c0.835,-0.812 0.851,-2.121 0.027,-2.948c-4.465,-4.34 -6.965,-10.211 -6.971,-16.325c0,-6.119 2.506,-11.985 6.965,-16.325l0,0Z" style="fill:#fff;fill-rule:nonzero;"/><path d="M56.476,833.691c-0.005,-3.901 1.607,-7.64 4.471,-10.387c0.824,-0.828 0.808,-2.136 -0.032,-2.949c-0.841,-0.812 -2.196,-0.822 -3.052,-0.031c-7.618,7.392 -7.618,19.336 -0,26.728c0.851,0.822 2.232,0.822 3.084,-0c0.851,-0.823 0.851,-2.157 -0,-2.98c-2.865,-2.746 -4.476,-6.486 -4.471,-10.381l0,-0Z" style="fill:#fff;fill-rule:nonzero;"/><path d="M63.983,826.262c-4.203,4.117 -4.203,10.733 -0,14.851c0.851,0.801 2.211,0.796 3.057,-0.011c0.845,-0.801 0.867,-2.115 0.053,-2.948c-2.543,-2.473 -2.543,-6.461 0,-8.933c0.814,-0.833 0.792,-2.147 -0.053,-2.954c-0.846,-0.807 -2.206,-0.807 -3.057,-0.005l-0,-0Z" style="fill:#fff;fill-rule:nonzero;"/><path d="M157.284,814.376c-0.856,-0.791 -2.216,-0.776 -3.051,0.036c-0.841,0.812 -0.852,2.126 -0.022,2.954c4.46,4.34 6.965,10.205 6.965,16.324c0,6.114 -2.505,11.985 -6.97,16.325c-0.841,0.822 -0.835,2.147 0.011,2.964c0.845,0.822 2.216,0.833 3.072,0.021c5.279,-5.132 8.24,-12.073 8.24,-19.31c-0,-7.236 -2.966,-14.183 -8.245,-19.314l0,-0Z" style="fill:#fff;fill-rule:nonzero;"/><path d="M151.132,820.324c-0.857,-0.796 -2.211,-0.781 -3.052,0.031c-0.84,0.812 -0.856,2.121 -0.032,2.949c5.921,5.741 5.921,15.027 0,20.768c-0.61,0.606 -0.787,1.506 -0.449,2.287c0.331,0.781 1.118,1.298 1.991,1.308c0.578,0 1.135,-0.222 1.542,-0.615c7.618,-7.392 7.618,-19.336 -0,-26.728l-0,0Z" style="fill:#fff;fill-rule:nonzero;"/><path d="M145.013,826.262c-0.852,-0.802 -2.211,-0.802 -3.057,0.005c-0.846,0.807 -0.873,2.121 -0.054,2.954c2.543,2.472 2.543,6.46 0,8.933c-0.407,0.398 -0.632,0.936 -0.626,1.495c0.005,0.558 0.235,1.091 0.648,1.484c0.862,0.818 2.243,0.812 3.089,-0.02c4.202,-4.118 4.202,-10.734 -0,-14.851l-0,-0Z" style="fill:#fff;fill-rule:nonzero;"/><path d="M85.872,785.988c0.579,-0 1.135,-0.222 1.548,-0.621c4.486,-4.314 10.562,-6.734 16.89,-6.734c6.333,-0 12.404,2.42 16.895,6.734c0.857,0.797 2.217,0.787 3.057,-0.026c0.841,-0.807 0.857,-2.12 0.038,-2.948c-5.311,-5.105 -12.501,-7.966 -19.99,-7.966c-7.49,0 -14.674,2.866 -19.985,7.966c-0.61,0.605 -0.782,1.505 -0.45,2.286c0.337,0.781 1.119,1.293 1.997,1.309l0,-0Z" style="fill:#fff;fill-rule:nonzero;"/><path d="M116.597,791.932c0.877,-0.01 1.659,-0.527 1.996,-1.308c0.332,-0.781 0.156,-1.681 -0.449,-2.287c-3.662,-3.559 -8.641,-5.555 -13.834,-5.555c-5.188,-0 -10.167,1.996 -13.829,5.555c-0.819,0.828 -0.808,2.137 0.032,2.949c0.841,0.812 2.195,0.827 3.052,0.031c5.942,-5.721 15.553,-5.721 21.49,-0c0.412,0.393 0.963,0.615 1.541,0.615l0.001,0Z" style="fill:#fff;fill-rule:nonzero;"/><path d="M96.606,797.233c0.402,0.398 0.959,0.621 1.537,0.626c0.578,0.005 1.135,-0.212 1.547,-0.605c2.586,-2.39 6.66,-2.39 9.246,-0.005c0.412,0.393 0.968,0.615 1.547,0.61c0.578,-0.005 1.129,-0.233 1.536,-0.631c2.773,-3.517 -4.957,-6.223 -7.709,-6.047c-2.746,-0.171 -10.482,2.535 -7.704,6.052l0,0Z" style="fill:#fff;fill-rule:nonzero;"/><path d="M121.206,881.424c-4.492,4.314 -10.563,6.734 -16.896,6.734c-6.328,0 -12.404,-2.42 -16.89,-6.734c-0.857,-0.797 -2.217,-0.787 -3.057,0.026c-0.841,0.807 -0.862,2.12 -0.038,2.948c5.311,5.105 12.496,7.966 19.985,7.966c7.49,-0 14.68,-2.866 19.99,-7.966c0.819,-0.828 0.803,-2.141 -0.037,-2.948c-0.846,-0.807 -2.2,-0.823 -3.057,-0.026l-0,-0Z" style="fill:#fff;fill-rule:nonzero;"/><path d="M90.481,875.474c-0.406,0.393 -0.637,0.931 -0.637,1.49c0,0.559 0.231,1.096 0.637,1.49c3.662,3.558 8.641,5.555 13.829,5.555c5.193,-0 10.172,-1.997 13.834,-5.55c0.851,-0.828 0.851,-2.162 -0,-2.985c-0.857,-0.822 -2.238,-0.822 -3.089,0c-5.937,5.721 -15.547,5.721 -21.49,0c-0.407,-0.393 -0.963,-0.615 -1.542,-0.615c-0.578,-0 -1.129,0.222 -1.541,0.615l-0.001,0Z" style="fill:#fff;fill-rule:nonzero;"/><path d="M112.019,869.562c-0.407,-0.404 -0.958,-0.626 -1.536,-0.631c-0.579,-0.006 -1.135,0.217 -1.548,0.61c-2.585,2.385 -6.659,2.385 -9.245,-0c-0.412,-0.393 -0.969,-0.616 -1.547,-0.61c-0.579,0.005 -1.135,0.232 -1.537,0.631c-2.778,3.517 4.958,6.222 7.709,6.046c2.747,0.171 10.482,-2.529 7.704,-6.046Z" style="fill:#fff;fill-rule:nonzero;"/></g></g></svg>