<svg width="500" height="500" viewBox="0 0 500 500" fill="none" xmlns="http://www.w3.org/2000/svg">
<g clip-path="url(#clip0_540_217)">
<path d="M456.69 52.8517C420.039 0.730893 366.01 12.4519 335.236 27.4341C299.484 44.8409 244.167 130.631 151.455 154.583C58.7432 178.536 -18.4769 263.947 12.0334 358.165C39.7512 443.758 122.078 453.348 169.138 468.399H456.69V52.8517Z" fill="#EDEBEB"/>
<path d="M88.0508 182.116H456.687V180.873H90.0103C89.3526 181.28 88.7048 181.701 88.0508 182.116Z" fill="#CBC8C7"/>
<path d="M283.062 128.185L283.686 128.188V71.0254C283.274 71.417 282.858 71.8099 282.443 72.2028V126.94L214.901 126.651C214.238 127.065 213.572 127.476 212.904 127.886L283.062 128.185Z" fill="#CBC8C7"/>
<path d="M359.761 168.295C343.492 168.295 330.258 155.06 330.258 138.792C330.258 122.524 343.493 109.289 359.761 109.289C376.029 109.289 389.264 122.524 389.264 138.792C389.264 155.058 376.03 168.295 359.761 168.295ZM359.761 110.531C344.178 110.531 331.501 123.208 331.501 138.791C331.501 154.373 344.178 167.05 359.761 167.05C375.344 167.05 388.021 154.373 388.021 138.791C388.021 123.208 375.344 110.531 359.761 110.531Z" fill="#CBC8C7"/>
<path d="M456.492 167.262H282.904V168.506H456.492V167.262Z" fill="#CBC8C7"/>
<path d="M413.862 168.441H398.342V103.739H413.862V168.441ZM399.585 167.198H412.619V104.982H399.585V167.198Z" fill="#CBC8C7"/>
<path d="M430.745 168.441H415.225V103.739H430.745V168.441ZM416.467 167.198H429.501V104.982H416.467V167.198Z" fill="#CBC8C7"/>
<path d="M440.015 168.237L429.855 108.55L445.158 105.947L455.318 165.633L440.015 168.237ZM431.29 109.567L441.032 166.802L453.882 164.615L444.14 107.38L431.29 109.567Z" fill="#CBC8C7"/>
<path d="M55.0928 396.085L67.1668 395.397C70.816 389.153 73.8013 382.499 75.9187 376.191L65.2757 374.532L76.8077 373.395C78.5571 367.557 79.5008 362.139 79.4747 357.766L69.4795 358.164L79.4249 356.192C79.0557 350.561 76.8114 347.061 72.2446 347.352C71.1368 347.423 70.0862 347.635 69.0667 347.922L70.7228 352.114L67.5771 348.425C49.5636 355.57 45.6981 396.291 44.875 412.674C46.2601 414.048 47.6651 415.389 49.0936 416.684C55.2258 412.203 60.7972 405.604 65.4473 398.23L55.0928 396.085Z" fill="#679C93"/>
<path d="M38.3472 395.744C38.3472 395.744 39.0372 369.048 36.4237 343.11L26.763 357.583L35.8406 337.812C34.6445 327.839 32.9088 318.269 30.4035 310.692L20.9864 317.133L28.2425 305.107C25.4885 299.093 21.9997 295.215 17.5809 294.812C12.8015 294.376 10.0463 297.947 8.80789 304.071L16.013 306.564H8.40131C7.60185 312.895 8.07805 321.305 9.41588 330.603L23.0578 335.879H10.2489C11.685 344.251 13.7191 353.13 16.0765 361.729L26.7617 366.452L16.9667 364.911C18.8715 371.575 20.9528 378.007 23.0802 383.825C27.9802 392.671 33.5976 400.436 39.7496 407.296L38.3472 395.744Z" fill="#679C93"/>
<path d="M268.796 250.976L250.118 451.772L214.095 453.251L204.213 252.407L268.796 250.976Z" fill="#7F7767"/>
<path d="M241.881 452.11C241.881 452.11 256.755 456.697 261.884 459.805C267.013 462.914 265.925 471.617 241.214 466.955C216.502 462.292 224.758 452.11 224.758 452.11H241.881Z" fill="#191931"/>
<path d="M114.364 350.178L86.207 459.181L88.6134 459.802L116.77 350.799L114.364 350.178Z" fill="#191931"/>
<path d="M367.766 349.954L365.373 350.636L396.504 459.86L398.896 459.179L367.766 349.954Z" fill="#191931"/>
<path d="M85.0781 257.265C85.0781 257.265 73.7761 255.782 67.5706 269.47C62.6358 280.355 58.1561 354.12 139.388 353.499L141.771 341.687L85.0781 257.265Z" fill="#6C93FB"/>
<path d="M139.809 351.416C131.42 349.78 100.362 347.28 84.1044 323.971C68.0256 300.919 76.8707 265.8 76.8707 265.8L82.3165 257.334C78.5703 257.801 71.8563 260.017 67.5705 269.47C62.6668 280.287 58.2268 353.184 137.883 353.489C138.584 352.739 139.228 352.045 139.809 351.416Z" fill="#4678E7"/>
<path d="M393.435 257.265C393.435 257.265 404.737 255.782 410.942 269.47C415.877 280.355 420.357 354.12 339.124 353.499L336.742 341.687L393.435 257.265Z" fill="#6C93FB"/>
<path d="M338.705 351.416C347.094 349.78 378.151 347.28 394.409 323.971C410.488 300.919 401.643 265.8 401.643 265.8L396.197 257.334C399.943 257.801 406.657 260.017 410.943 269.47C415.847 280.287 420.287 353.184 340.631 353.489C339.93 352.739 339.286 352.045 338.705 351.416Z" fill="#4678E7"/>
<path d="M205.003 98.3046L186.742 99.3963C186.742 99.3963 166.769 98.7585 163.167 122.113C159.565 145.468 152.191 233.423 152.191 233.423C152.191 233.423 150.513 250.997 162.95 251.947C175.387 252.897 265.408 250.976 265.408 250.976C265.408 250.976 278.762 251.382 276.494 235.052C274.736 222.394 264.061 119.464 264.061 119.464C264.061 119.464 261.387 96.5615 235.547 96.6846L205.003 98.3046Z" fill="#679C93"/>
<path d="M204.154 110.376C204.154 110.376 209.132 115.193 220.847 114.363C232.561 113.534 238.635 103.191 238.675 99.2493C238.684 98.3665 238.611 97.5459 238.506 96.7874C237.55 96.7228 236.571 96.678 235.543 96.683L205 98.3031L194.85 98.9098L204.154 110.376Z" fill="#7F7767"/>
<path d="M226.562 53.513C226.562 53.513 228.609 50.1199 231.717 51.7512C235.36 53.6634 234.023 60.6622 226.562 60.0405V53.513Z" fill="#CF9B89"/>
<path d="M200.156 98.5941C200.156 98.5941 200.692 109.925 216.823 110.724C229.885 111.371 236.06 101.843 235.545 96.6855L200.156 98.5941Z" fill="#EABFAD"/>
<path d="M203.202 79.3335C203.202 79.3335 203.628 96.9355 200.156 98.5941L207.9 101.15L235.545 96.6843L228.291 78.6646L206.656 74.625L203.202 79.3335Z" fill="#EABFAD"/>
<path d="M256.449 104.359C256.449 104.359 282.041 140.889 309.682 162.136L298.044 193.212C298.044 193.212 279.758 185.145 264.76 172.601L256.449 104.359Z" fill="#553B8A"/>
<path d="M264.76 172.602C269.113 176.242 273.742 179.503 278.122 182.302C273.732 164.98 274.068 129.064 266.055 117.101C263.452 113.215 261.149 110.755 261.149 110.755L256.812 107.335L264.76 172.602Z" fill="#463374"/>
<path d="M211.27 251.956C212.601 224.243 214.761 144.435 209.132 125.941C203.82 108.486 200.974 102.397 201.322 98.5244L186.742 99.396C186.742 99.396 166.769 98.7582 163.167 122.113C159.565 145.468 152.191 233.423 152.191 233.423C152.191 233.423 150.513 250.996 162.95 251.946C168.144 252.343 191.217 252.212 211.27 251.956Z" fill="#553B8A"/>
<path d="M180.896 231.78C170.96 238.032 154.118 236.027 146.587 221.792C136.057 233.877 132.573 245.617 156.927 246.883C208.733 249.577 212.804 181.493 212.804 181.493L212.807 178.534C203.997 204.097 190.144 225.96 180.896 231.78Z" fill="#463374"/>
<path d="M277.371 300.919C277.371 300.919 260.521 310.704 260.841 341.686C261.16 372.667 260.836 455.143 260.836 455.143H299.704L303.848 360.025L322.498 296.433L277.371 300.919Z" fill="#2B1E45"/>
<path d="M322.499 296.433L308.06 297.868L289.564 308.633C289.564 308.633 280.334 321.672 280.381 338.105C280.428 354.538 296.389 389.04 296.389 389.04L295.154 455.144H299.705L303.849 360.026L322.499 296.433Z" fill="#1E162E"/>
<path d="M166.233 112.206C166.233 112.206 144.697 169.086 142.832 201.303C140.967 233.519 167.355 240.3 180.893 231.781C194.431 223.261 217.847 180.366 220.846 141.807L206.301 138.403C206.301 138.403 199.015 162.959 178.061 191.556C178.061 191.556 195.021 112.637 166.233 112.206Z" fill="#553B8A"/>
<path d="M181.21 100.478C186.382 123.77 185.97 147.636 180.004 170.739C179.903 171.127 180.503 171.292 180.603 170.904C186.592 147.718 187 123.69 181.809 100.312C181.722 99.9218 181.123 100.087 181.21 100.478Z" fill="#372723"/>
<path d="M179.546 189.106C188.185 172.121 198.283 155.935 206.922 138.948C207.104 138.593 206.567 138.277 206.385 138.635C197.746 155.62 187.648 171.806 179.009 188.793C178.829 189.148 179.365 189.464 179.546 189.106Z" fill="#372723"/>
<path d="M220.537 141.806C218.711 155.682 215.261 169.105 210.245 182.168C205.383 194.832 200.145 208.488 192.364 219.699C184.015 231.728 167.545 242.389 153.2 233.25C137.844 223.47 139.094 203.089 141.685 187.505C141.75 187.114 141.152 186.946 141.086 187.34C138.665 201.897 137.326 218.891 148.616 230.318C158.396 240.218 173.21 238.363 183.529 230.29C195.874 220.63 201.845 204.078 207.708 190.111C214.249 174.53 218.953 158.583 221.158 141.806C221.209 141.411 220.588 141.415 220.537 141.806Z" fill="#372723"/>
<path d="M196.607 294.812C196.607 294.812 228.024 307.186 231.843 352.344C233.954 377.293 232.767 459.495 232.767 459.495H192.772C192.772 459.495 192.084 372.772 182.221 353.189C172.359 333.607 126.568 294.812 126.568 294.812H196.607Z" fill="#5E5B42"/>
<path d="M187.881 376.946C193.606 366.938 200.525 341.718 197.335 329.252C194.019 316.296 183.678 308.663 183.678 308.663L182.67 294.811H131.764C133.177 297.38 134.836 300.376 136.675 303.672C150.747 316.298 175.31 339.458 182.225 353.188C184.604 357.917 186.449 366.56 187.881 376.946Z" fill="#4C4936"/>
<path d="M276.492 235.053C274.734 222.395 264.058 119.465 264.058 119.465C264.058 119.465 261.385 96.5625 235.545 96.6856C236.147 100.858 236.7 110.886 234.732 121.307C232.149 134.984 240.853 234.659 249.348 248.75C249.964 249.772 250.731 250.586 251.599 251.254C259.973 251.093 265.407 250.978 265.407 250.978C265.407 250.978 278.76 251.383 276.492 235.053Z" fill="#553B8A"/>
<path d="M103.089 290.308C71.0819 290.308 73.8347 267.294 73.8347 267.294C73.8347 267.294 78.1093 226.266 83.6794 190.687C89.2496 155.108 116.576 152.39 116.576 152.39H141.508H173.564C173.564 152.39 198.497 152.39 199.922 181.51C201.163 206.883 204.909 270.278 204.909 270.278C204.909 270.278 207.046 290.308 190.661 290.308H103.089Z" fill="#EAAC29"/>
<path d="M379.075 290.308C413.007 290.308 410.088 265.912 410.088 265.912C410.088 265.912 405.557 222.418 399.651 184.7C393.746 146.982 364.777 144.102 364.777 144.102H338.347H304.364C304.364 144.102 277.933 144.102 276.423 174.971C275.107 201.87 271.136 269.075 271.136 269.075C271.136 269.075 268.871 290.308 286.239 290.308H379.075Z" fill="#7F7767"/>
<path d="M127.76 152.39C127.76 152.39 134.083 176.013 155.372 175.302C177.726 174.555 163.655 152.39 163.655 152.39H127.76Z" fill="#EABFAD"/>
<path d="M158.21 99.251H130.496V135.615H158.21V99.251Z" fill="#EABFAD"/>
<path d="M158.21 99.251C158.21 99.251 170.459 134.796 158.21 135.615C145.961 136.434 139.904 127.317 139.904 127.317L158.21 99.251Z" fill="#EABFAD"/>
<path d="M228.133 77.2359L203.202 79.3334L202.398 44.9438H230.112L228.133 77.2359Z" fill="#EABFAD"/>
<path d="M230.112 44.9438C230.112 44.9438 239.334 78.5551 227.083 79.3744C214.834 80.1938 208.777 71.0764 208.777 71.0764L230.112 44.9438Z" fill="#EABFAD"/>
<path d="M317.727 127.543L345.441 127.543L345.441 91.179L317.727 91.179L317.727 127.543Z" fill="#EABFAD"/>
<path d="M317.727 91.1787C317.727 91.1787 305.478 126.723 317.727 127.543C329.977 128.362 336.033 119.245 336.033 119.245L317.727 91.1787Z" fill="#EABFAD"/>
<path d="M80.9589 208.333C81.3593 208.333 81.3593 207.711 80.9589 207.711C80.5586 207.711 80.5573 208.333 80.9589 208.333Z" fill="#372723"/>
<path d="M140.656 358.473C141.056 358.473 141.056 357.851 140.656 357.851C140.255 357.851 140.255 358.473 140.656 358.473Z" fill="#372723"/>
<path d="M140.397 358.166C138.914 388.937 137.43 419.707 135.946 450.479C135.926 450.879 136.549 450.878 136.567 450.479C138.051 419.707 139.534 388.937 141.019 358.166C141.037 357.765 140.416 357.766 140.397 358.166Z" fill="#372723"/>
<path d="M144.704 301.188C165.869 313.794 181.358 333.963 188.074 357.666C188.184 358.05 188.783 357.888 188.673 357.501C181.915 333.649 166.317 313.337 145.019 300.65C144.673 300.445 144.36 300.982 144.704 301.188Z" fill="#372723"/>
<path d="M138.478 451.069C150.269 451.417 162.886 453.005 174.621 451.865C175.016 451.826 175.021 451.205 174.621 451.243C162.884 452.383 150.269 450.796 138.478 450.447C138.077 450.435 138.078 451.057 138.478 451.069Z" fill="#372723"/>
<path d="M181.417 283.654C174.15 280.998 111.517 264.942 111.517 264.942L114.492 240.901L77.4379 236.009C75.2198 254.009 73.8347 267.294 73.8347 267.294C73.8347 267.294 71.0819 290.308 103.089 290.308H185.85C186.386 288.539 186.51 285.515 181.417 283.654Z" fill="#EABFAD"/>
<path d="M206.555 234.183C206.555 234.183 209.439 275.17 208.075 281.387C206.711 287.603 197.63 291.148 185.852 290.309L124.029 290.431V286.982C124.029 286.982 147.315 270.047 179.344 268.956C179.344 268.956 185.653 243.425 186.106 237.04C186.106 237.04 194.119 235.237 206.555 234.183Z" fill="#EABFAD"/>
<path d="M200.212 187.26C200.212 187.26 205.331 221.8 211.926 231.7C211.926 231.7 204.093 237.247 186.104 237.04" fill="#EAAC29"/>
<path d="M334.936 357.358C340.709 387.654 347.204 417.804 354.419 447.791C354.512 448.18 355.113 448.015 355.018 447.626C347.803 417.64 341.308 387.49 335.535 357.193C335.461 356.801 334.862 356.966 334.936 357.358Z" fill="#372723"/>
<path d="M312.374 144.101L309.684 158.296L348.66 144.101H312.374Z" fill="#EABFAD"/>
<path d="M385.439 294.812C385.439 294.812 392.536 333.918 345.305 346.196L370.519 459.495H324.049C324.049 459.495 289.48 352.127 288.811 346.725C285.216 317.696 315.657 294.811 315.657 294.811H385.439V294.812Z" fill="#2B1E45"/>
<path d="M279.099 161.762C279.099 161.762 276.181 168.242 274.472 176.635C272.762 185.028 261.261 264.282 261.261 264.282C261.261 264.282 257.065 286.049 275.093 290.43H293.899L287.682 280.298L279.099 161.762Z" fill="#7F7767"/>
<path d="M82.0791 201.303C82.0791 201.303 76.6209 227.739 70.3047 236.571C70.3047 236.571 92.7917 245.537 117.969 242.776C117.969 242.776 116.583 234.643 117.348 227.664" fill="#EAAC29"/>
<path d="M182.668 178.697C182.668 178.697 190.47 195.906 191.355 207.868C191.984 216.377 192.617 213.155 187.644 234.183L186.106 237.04C186.106 237.04 189.601 220.421 188.805 212.153C188.009 203.885 182.923 180.968 182.668 178.697Z" fill="#D19825"/>
<path d="M111.518 264.941C111.518 264.941 133.819 267.088 148.221 271.957C148.221 271.957 166.614 265.766 176.093 264.941C176.093 264.941 185.081 236.937 186.104 237.04C186.104 237.04 184.614 248.91 179.343 268.956C179.343 268.956 163.85 269.215 149.534 274.523L111.518 264.941Z" fill="#D19825"/>
<path d="M182.163 177.764C184.084 187.391 186.377 197.031 187.769 206.749C189.336 217.682 187.435 228.139 185.086 238.823C185 239.214 185.6 239.38 185.685 238.989C187.962 228.634 189.951 218.435 188.559 207.798C187.233 197.67 184.76 187.61 182.762 177.599C182.685 177.207 182.086 177.374 182.163 177.764Z" fill="#372723"/>
<path d="M94.0326 294.812C94.0326 294.812 85.0159 347.388 138.481 350.496C138.481 350.496 131.114 410.798 136.255 460.946H176.404C176.404 460.946 179.344 408.545 183.676 381.164C188.008 353.784 208.523 318.909 142.418 294.812H94.0326Z" fill="#5E5B42"/>
<path d="M236.505 294.812H235.94H97.4531V297.004C97.4531 297.004 130.148 311.07 236.222 309.028C342.297 311.07 374.991 297.004 374.991 297.004V294.812H236.505Z" fill="#7763A1"/>
<path d="M194.152 361.001C194.152 361.001 199.707 411.212 198.624 459.495H192.774C192.774 459.495 192.112 410.124 187.988 375.129C187.988 375.129 191.799 360.731 194.152 361.001Z" fill="#4C4936"/>
<path d="M153.598 134.94L134.754 130.838L130.498 135.614C130.498 135.614 131.231 150.732 127.76 152.389L135.997 157.363L163.656 152.389C156.087 147.416 153.598 134.94 153.598 134.94Z" fill="#EABFAD"/>
<path d="M133.397 114.466C133.397 114.466 148.694 113.846 154.101 103.72C154.101 103.72 156.511 105.998 160.085 105.92C160.085 105.92 162.985 99.0813 156.097 93.7449C149.216 88.416 143.352 87.8875 134.338 89.6009C125.575 91.2657 117.656 99.1335 117.656 110.324C117.656 121.514 116.465 131.524 111.518 140.299C106.569 149.075 103.119 149.489 103.497 157.364C103.497 157.364 110.421 153.22 116.577 152.391H127.758C127.758 152.391 134.908 151.51 136.462 144.101C138.016 136.694 131.214 127.618 130.496 120.81C130.496 120.81 129.244 115.036 133.397 114.466Z" fill="#191931"/>
<path d="M133.398 114.467C133.398 114.467 131.351 111.074 128.243 112.705C124.6 114.618 125.938 121.616 133.398 120.995V114.467Z" fill="#EABFAD"/>
<path d="M160.797 134.717C160.797 134.717 161.9 139.645 165.941 144.825C169.982 150.005 170.085 152.388 170.085 152.388H163.656C163.656 152.388 156.98 148.885 153.746 135.613C153.746 135.613 159.313 135.772 160.797 134.717Z" fill="#191931"/>
<path d="M129.881 121.171C130.653 123.845 132.33 125.628 133.775 127.933C136.624 132.478 137.509 138.875 133.326 142.995C133.04 143.276 133.48 143.716 133.766 143.435C136.22 141.018 137.07 137.598 136.747 134.201C136.241 128.878 131.894 125.903 130.48 121.005C130.37 120.621 129.769 120.785 129.881 121.171Z" fill="#191931"/>
<path d="M118.32 105.852C117.692 114.372 117.063 123.032 114.328 131.184C112.267 137.323 108.3 142.574 108.633 149.274C108.653 149.671 109.275 149.674 109.255 149.274C108.874 141.635 114.257 134.562 116.123 127.249C117.906 120.265 118.414 113.015 118.942 105.854C118.97 105.453 118.348 105.456 118.32 105.852Z" fill="#191931"/>
<path d="M118.075 109.169C118.41 118.856 116.233 126.354 111.384 134.706C107.97 140.587 105.089 146.223 105.875 153.193C105.919 153.586 106.541 153.591 106.496 153.193C105.355 143.066 112.323 136.047 116.067 127.385C118.584 121.566 118.912 115.427 118.697 109.17C118.683 108.77 118.062 108.768 118.075 109.169Z" fill="#191931"/>
<path d="M153.713 102.226C153.205 105.784 151.478 109.46 148.205 111.249C145.332 112.818 141.947 112.849 138.763 112.905C138.364 112.912 138.362 113.534 138.763 113.527C142.331 113.464 146.199 113.379 149.284 111.33C152.227 109.375 153.829 105.786 154.313 102.391C154.368 102 153.769 101.831 153.713 102.226Z" fill="#191931"/>
<path d="M161.417 134.136C161.264 134.297 161.111 134.457 160.939 134.593C163.245 140.088 169.076 144.426 167.984 150.853C167.917 151.245 168.516 151.412 168.583 151.018C169.734 144.253 163.667 139.929 161.417 134.136Z" fill="#191931"/>
<path d="M153.745 135.615C153.745 135.615 149.828 135.622 144.699 134.138C144.699 134.138 149.497 144.792 158.211 146.533C158.211 146.533 155.637 143.123 153.745 135.615Z" fill="#CF9B89"/>
<path d="M124.823 95.9509C124.862 94.9451 123.946 94.0163 122.81 93.7067C121.673 93.3971 120.391 93.6408 119.39 94.1916C118.391 94.7424 117.644 95.5705 117.072 96.4532C115.621 98.6937 115.209 101.396 115.94 103.871C116.2 104.753 116.695 105.691 117.69 106.042C118.791 106.431 120.061 105.937 120.965 105.281C122.45 104.202 123.416 102.685 123.97 101.101C124.523 99.5168 124.688 97.8557 124.783 96.2058" fill="#191931"/>
<path d="M123.719 152.39C123.797 152.39 124.754 167.931 141.022 177.256C159.107 187.623 173.763 177.204 171.107 164.916C169.06 155.442 165.371 152.39 165.371 152.39H123.719Z" fill="#A2222B"/>
<path d="M127.76 152.39C127.76 152.39 134.083 176.013 155.372 175.302C177.726 174.555 163.655 152.39 163.655 152.39L147.569 151.243L127.76 152.39Z" fill="#EABFAD"/>
<path d="M138.482 350.495C138.482 350.495 134.597 346.506 134.287 343.164C134.287 343.164 125.269 349.541 106.193 337.999C106.193 337.999 115.945 349.667 138.482 350.495Z" fill="#4C4936"/>
<path d="M118.209 209.437L116.155 265.967L111.518 264.941L118.209 209.437Z" fill="#D19825"/>
<path d="M108.325 264.582C121.109 267.278 133.769 270.492 146.361 273.967C152.469 275.652 158.56 277.391 164.648 279.142C167.835 280.058 187.031 283.76 185.457 288.928C185.34 289.312 185.939 289.475 186.056 289.094C187.129 285.571 184.379 284.45 181.502 283.353C173.97 280.483 165.716 278.789 157.963 276.579C141.591 271.914 125.154 267.494 108.49 263.982C108.1 263.9 107.933 264.499 108.325 264.582Z" fill="#372723"/>
<path d="M345.441 99.2616C345.441 99.2616 338.92 102.89 337.651 95.585C337.651 95.585 330.311 101.114 315.526 98.4658L314.787 101.292C314.787 101.292 307.112 94.8079 311.774 86.8033C316.437 78.7987 333.3 87.3479 338.74 88.125C338.74 88.125 341.534 86.5248 345.035 87.7358C349.076 89.1346 353.079 92.7875 345.444 116.41V99.2616H345.441Z" fill="#191931"/>
<path d="M343.051 101.267C343.051 101.267 345.097 97.8743 348.206 99.5056C351.849 101.418 350.511 108.417 343.051 107.795V101.267Z" fill="#EABFAD"/>
<path d="M337.562 94.6916C334.74 103.728 321.906 98.7089 315.726 97.3375C315.335 97.2504 315.207 97.5961 315.599 97.6819C321.963 99.0931 335.215 104.294 338.162 94.8557C338.281 94.474 337.681 94.3112 337.562 94.6916Z" fill="#191931"/>
<path d="M335.992 94.4225C335.769 95.1473 335.55 95.9655 335.132 96.6095C334.181 98.0742 332.799 98.2296 331.216 98.3116C328.944 98.4298 326.754 98.3726 324.646 97.3965C324.285 97.2299 323.97 97.7658 324.333 97.9337C326.885 99.1161 330.568 99.0042 333.321 98.4024C335.531 97.9188 335.977 96.5958 336.592 94.5891C336.709 94.2049 336.11 94.0408 335.992 94.4225Z" fill="#191931"/>
<path d="M312.296 88.6655C310.654 90.1551 309.005 92.6977 309.456 95.0501C309.949 97.6126 312.862 98.1298 315.013 98.3362C315.41 98.3748 315.505 97.7606 315.106 97.722C313.06 97.5256 310.103 97.3316 309.91 94.7815C309.75 92.6567 311.127 90.5604 312.664 89.1666C312.959 88.8993 312.592 88.397 312.296 88.6655Z" fill="#191931"/>
<path d="M345.443 127.543L341.187 122.768L321.25 127.107C321.25 127.107 319.737 137.599 312.375 144.101L337.678 147.002L348.661 144.101C345.189 142.443 345.443 127.543 345.443 127.543Z" fill="#EABFAD"/>
<path d="M321.174 127.543C321.174 127.543 329.538 126.797 334.334 121.254C334.334 121.254 334.345 137.754 312.375 144.1C312.375 144.1 318.574 139.451 321.174 127.543Z" fill="#CF9B89"/>
<path d="M348.66 144.1L309.684 158.296L317.463 170.821L354.669 144.1C354.669 144.1 350.965 143.039 348.66 144.1Z" fill="#898378"/>
<path d="M309.681 158.296L296.199 163.572L311.409 141.806C311.409 141.806 312.294 140.482 315.582 140.581C315.582 140.581 314.163 143.375 312.371 144.1L309.681 158.296Z" fill="#898378"/>
<path d="M346.422 139.728C346.422 139.728 355.214 139.615 354.669 144.101H348.66C348.66 144.101 347.006 143.417 346.422 139.728Z" fill="#898378"/>
<path d="M350.664 143.648C350.664 143.648 349.427 143.719 348.656 144.102C348.656 144.102 347.653 143.719 346.963 141.837C346.963 141.837 351.364 141.88 350.664 143.648Z" fill="#726B5E"/>
<path d="M312.375 144.1C312.375 144.1 312.752 142.747 314.128 142.724C314.128 142.724 313.234 143.816 312.375 144.1Z" fill="#726B5E"/>
<path d="M308.586 210.179C308.586 210.179 315.452 259.376 341.976 290.431L356.798 290.286C356.798 290.286 324.514 257.815 308.586 210.179Z" fill="#726B5E"/>
<path d="M357.018 290.066C335.304 266.91 318.867 239.506 308.666 209.446C308.538 209.069 307.938 209.23 308.067 209.611C318.297 239.762 334.8 267.282 356.578 290.506C356.853 290.799 357.292 290.358 357.018 290.066Z" fill="#372723"/>
<path d="M363.625 209.527C363.625 209.527 363.043 235.706 359.762 235.803L366.583 239.008C366.583 239.008 365.961 238.439 365.858 237.609C365.755 236.78 363.625 210.516 363.625 209.527Z" fill="#726B5E"/>
<path d="M317.244 204.682C340.343 228.139 369.784 244.292 401.981 251.163C402.371 251.246 402.538 250.647 402.146 250.563C370.043 243.713 340.715 227.633 317.683 204.243C317.404 203.957 316.963 204.396 317.244 204.682Z" fill="#372723"/>
<path d="M363.314 208.539C364.141 218.592 364.967 228.646 365.794 238.698C365.827 239.094 366.448 239.097 366.416 238.698C365.589 228.645 364.762 218.591 363.935 208.539C363.902 208.143 363.28 208.14 363.314 208.539Z" fill="#372723"/>
<path d="M362.461 189.486C361.475 176.415 360.256 156.133 370.966 146.371C371.262 146.101 370.821 145.662 370.525 145.931C359.7 155.799 360.854 176.416 361.838 189.486C361.869 189.883 362.491 189.886 362.461 189.486Z" fill="#372723"/>
<path d="M296.199 163.571L301.436 164.823L309.681 158.295L296.199 163.571Z" fill="#726B5E"/>
<path d="M309.684 158.295L315.584 170.554L317.463 170.821L309.684 158.295Z" fill="#726B5E"/>
<path d="M317.465 170.821C317.465 170.821 336.798 158.191 344.879 154.15C352.961 150.11 357.696 146.276 359.101 144.101H354.671L317.465 170.821Z" fill="#726B5E"/>
<path d="M282.903 157.225C282.903 157.225 280.302 163.454 278.127 173.969C275.951 184.484 270.277 232.793 270.277 232.793L275.164 233.725C275.164 233.725 278.318 190.89 279.115 182.934C279.912 174.978 282.903 157.225 282.903 157.225Z" fill="#726B5E"/>
<path d="M275.47 232.015C276.737 206.694 279.39 181.318 283.363 156.28C283.425 155.889 282.825 155.721 282.763 156.115C278.782 181.211 276.118 206.636 274.848 232.015C274.828 232.415 275.45 232.414 275.47 232.015Z" fill="#372723"/>
<path d="M279.302 286.49H199.554C198.042 286.49 196.815 285.264 196.815 283.751L190.965 230.401C190.965 228.889 192.191 227.662 193.704 227.662H273.452C274.964 227.662 276.191 228.888 276.191 230.401L282.041 283.751C282.039 285.264 280.814 286.49 279.302 286.49Z" fill="#CBC8C7"/>
<path d="M261.745 112.749C265.38 124.643 265.734 137.246 266.99 149.561C267.914 158.627 268.961 167.688 269.754 176.766C269.789 177.162 270.41 177.166 270.375 176.766C269.545 167.264 268.447 157.781 267.481 148.29C266.262 136.308 265.885 124.171 262.345 112.584C262.229 112.204 261.629 112.365 261.745 112.749Z" fill="#372723"/>
<path d="M305.831 166.732C305.745 167.076 305.813 167.36 306.097 167.587C306.198 167.669 306.354 167.72 306.474 167.636C306.91 167.33 306.85 166.635 306.287 166.512C306.138 166.479 306.024 166.538 305.937 166.655C305.682 166.996 305.807 167.454 306.178 167.647C306.292 167.706 306.464 167.706 306.554 167.598C306.883 167.205 306.886 166.753 306.547 166.362C306.446 166.535 306.346 166.709 306.245 166.882C306.261 166.885 306.278 166.887 306.295 166.89C306.684 166.848 306.702 166.258 306.295 166.268C305.5 166.287 305.186 167.433 306.011 167.705C306.834 167.976 307.385 166.998 306.89 166.361C306.382 165.708 305.286 166.1 305.217 166.901C305.147 167.695 306.196 168.204 306.792 167.684C307.334 167.209 307.068 166.208 306.385 166.024C305.6 165.813 304.896 166.783 305.291 167.479C305.677 168.16 306.793 168.078 307.103 167.377C307.445 166.604 306.637 165.688 305.831 165.966C304.937 166.274 304.943 167.638 305.97 167.713C306.88 167.779 307.005 166.453 306.178 166.222C305.792 166.114 305.627 166.714 306.012 166.821C305.919 167.276 305.961 167.178 306.14 166.529C306.408 166.594 306.548 166.754 306.563 167.01C306.49 167.69 305.399 167.153 305.935 166.725C306.369 166.38 306.724 167.138 306.203 167.275C305.884 167.256 305.822 167.064 306.019 166.699C306.542 166.937 306.634 167 306.296 166.89C306.296 166.682 306.296 166.475 306.296 166.268C305.31 166.371 305.118 167.821 306.209 167.899C307.245 167.974 307.322 166.551 306.411 166.283C306.096 166.19 305.915 166.579 306.109 166.803C306.112 166.922 306.114 167.04 306.117 167.159C306.242 167.143 306.368 167.127 306.494 167.111C306.487 167.064 306.481 167.016 306.475 166.969C306.358 167.016 306.241 167.065 306.124 167.112C306.137 167.108 306.149 167.103 306.162 167.1C306.287 167.116 306.413 167.132 306.538 167.148C306.503 167.065 306.467 166.98 306.433 166.897C306.527 166.509 305.928 166.342 305.831 166.732Z" fill="#372723"/>
<path d="M304.835 172.457C304.749 172.802 304.817 173.085 305.101 173.313C305.202 173.395 305.358 173.446 305.478 173.361C305.914 173.055 305.854 172.36 305.291 172.237C305.142 172.205 305.027 172.263 304.94 172.38C304.686 172.722 304.811 173.18 305.182 173.372C305.296 173.432 305.468 173.432 305.558 173.324C305.887 172.931 305.89 172.478 305.551 172.088C305.45 172.261 305.349 172.435 305.249 172.608C305.265 172.61 305.282 172.613 305.299 172.615C305.688 172.574 305.706 171.984 305.299 171.993C304.504 172.012 304.189 173.158 305.015 173.431C305.838 173.702 306.389 172.723 305.894 172.087C305.386 171.434 304.29 171.826 304.221 172.626C304.151 173.421 305.2 173.929 305.796 173.41C306.338 172.935 306.072 171.934 305.389 171.75C304.603 171.538 303.9 172.508 304.295 173.204C304.681 173.886 305.797 173.804 306.107 173.103C306.449 172.329 305.64 171.414 304.835 171.691C303.941 172 303.947 173.364 304.974 173.438C305.884 173.504 306.008 172.179 305.182 171.947C304.796 171.839 304.631 172.44 305.016 172.547C304.923 173.002 304.965 172.904 305.144 172.255C305.412 172.319 305.552 172.48 305.567 172.736C305.494 173.416 304.403 172.879 304.939 172.451C305.373 172.105 305.727 172.864 305.206 173.001C304.888 172.982 304.826 172.789 305.023 172.425C305.546 172.662 305.638 172.726 305.3 172.615C305.3 172.407 305.3 172.201 305.3 171.993C304.314 172.097 304.122 173.545 305.213 173.625C306.248 173.699 306.325 172.277 305.415 172.008C305.1 171.915 304.919 172.304 305.113 172.528C305.116 172.647 305.118 172.766 305.121 172.885C305.246 172.869 305.372 172.853 305.497 172.836C305.491 172.789 305.485 172.742 305.479 172.695C305.362 172.742 305.245 172.79 305.128 172.838C305.141 172.834 305.153 172.829 305.165 172.825C305.291 172.841 305.417 172.858 305.542 172.874C305.507 172.79 305.471 172.706 305.437 172.623C305.531 172.235 304.932 172.069 304.835 172.457Z" fill="#372723"/>
<path d="M201.927 95.0938C201.927 95.0938 196.661 95.2467 196.115 98.835L199.922 99.6257L201.319 98.5241C201.319 98.5241 201.523 96.1319 201.927 95.0938Z" fill="#553B8A"/>
<path d="M234.525 94.157C234.525 94.157 236.142 97.5899 235.919 100.395L240.04 96.911C240.04 96.911 239.074 94.1259 234.525 94.157Z" fill="#553B8A"/>
<path d="M196.117 98.8354C196.117 98.8354 195.387 108.353 209.131 125.942L209.28 126.455C209.28 126.455 194.433 116.646 192.965 99.0232L196.117 98.8354Z" fill="#463374"/>
<path d="M240.04 96.9121C240.04 96.9121 243.536 109.089 234.527 123.047L234.438 123.843C234.438 123.843 246.301 115.274 244.147 97.6196C244.147 97.6196 242.174 97.0986 240.04 96.9121Z" fill="#463374"/>
<path d="M238.501 254.489C238.023 251.409 235.357 249.265 232.546 249.702C232.5 249.709 232.46 249.729 232.414 249.738C232.392 251.137 231.846 253.642 228.361 254.03C228.241 254.681 228.213 255.367 228.322 256.069C228.801 259.149 231.467 261.292 234.278 260.856C237.089 260.42 238.98 257.569 238.501 254.489Z" fill="#D9D9D9"/>
<path d="M205.947 54.0314C205.947 54.0314 209.051 52.1452 209.28 49.3477C209.28 49.3477 217.641 55.501 224.739 54.0314C231.837 52.5617 230.674 47.1656 230.674 47.1656L231.694 51.8257C231.694 51.8257 235.928 46.7056 233.443 42.3539C230.957 38.0022 225.102 36.1372 217.85 36.1372C210.597 36.1372 206.712 38.9347 206.712 38.9347C206.712 38.9347 197.831 39.9605 200.795 52.2695C200.795 52.2695 198.712 64.2715 202.968 69.3443C202.968 69.3443 203.346 64.9939 202.97 60.3562C202.967 60.3575 203.008 54.9067 205.947 54.0314Z" fill="#191931"/>
<path d="M207.526 39.5956C207.526 39.5956 206.196 38.5077 205.947 37.186C205.947 37.186 205.738 38.3908 206.204 39.5956C206.671 40.8004 207.526 39.5956 207.526 39.5956Z" fill="#191931"/>
<path d="M206.717 39.4402C206.717 39.4402 204.226 38.9354 203.644 37.186C203.644 37.186 203.489 39.3059 204.811 40.1303C206.13 40.9558 206.717 39.4402 206.717 39.4402Z" fill="#191931"/>
<path d="M228.468 79.1145C228.468 79.1145 216.035 82.5685 210.232 74.4097C210.232 74.4097 214.079 87.4635 222.096 86.6491C228.727 85.9752 228.951 80.3118 228.951 80.3118L228.468 79.1145Z" fill="#CF9B89"/>
<path d="M76.873 240.659C76.873 240.659 91.5059 248.22 113.907 247.436L114.455 243.088C114.455 243.088 99.8636 244.951 77.0993 238.802L76.873 240.659Z" fill="#CF9B89"/>
<path d="M118.165 206.775C116.232 226.181 114.006 245.556 111.219 264.858C111.163 265.25 111.761 265.419 111.818 265.024C114.613 245.666 116.848 226.235 118.787 206.775C118.827 206.377 118.204 206.379 118.165 206.775Z" fill="#372723"/>
<path d="M207.528 51.8257C207.528 51.8257 207.8 64.32 210.234 67.9456C212.669 71.5724 227.886 75.617 233.436 67.5328C233.436 67.5328 235.101 72.9699 232.106 77.5591C229.731 81.1984 222.062 81.6733 219.593 80.9733C217.124 80.2733 210.41 78.642 208.266 70.0158C206.121 61.3895 205.838 52.9198 205.838 52.9198L207.528 51.8257Z" fill="#191931"/>
<path d="M208.778 69.5522C208.778 69.5522 208.732 71.8313 208.316 72.7638C208.316 72.7638 209.051 71.8313 209.28 71.1574C209.509 70.4848 208.778 69.5522 208.778 69.5522Z" fill="#191931"/>
<path d="M208.318 68.7485C208.318 68.7485 208.292 70.5613 208.033 71.1581C208.033 71.1581 208.722 70.0963 208.779 69.5517C208.836 69.0072 208.318 68.7485 208.318 68.7485Z" fill="#191931"/>
<path d="M218.142 63.0758C215.649 63.0758 213.621 61.0479 213.621 58.555C213.621 56.0621 215.649 54.0342 218.142 54.0342C220.635 54.0342 222.664 56.0621 222.664 58.555C222.664 61.0479 220.635 63.0758 218.142 63.0758ZM218.142 54.9654C216.164 54.9654 214.554 56.5756 214.554 58.5537C214.554 60.5319 216.164 62.142 218.142 62.142C220.121 62.142 221.731 60.5319 221.731 58.5537C221.731 56.5756 220.121 54.9654 218.142 54.9654Z" fill="#191931"/>
<path d="M229.167 61.9554C226.781 61.9554 224.84 60.0133 224.84 57.6274C224.84 55.2414 226.782 53.2993 229.167 53.2993C231.554 53.2993 233.495 55.2414 233.495 57.6274C233.495 60.0133 231.554 61.9554 229.167 61.9554ZM229.167 54.2318C227.294 54.2318 225.772 55.7549 225.772 57.6274C225.772 59.4998 227.295 61.0229 229.167 61.0229C231.038 61.0229 232.562 59.4998 232.562 57.6274C232.562 55.7549 231.038 54.2318 229.167 54.2318Z" fill="#191931"/>
<path d="M222.233 57.8402L221.652 57.1103C222.289 56.6018 223.923 55.9155 225.565 56.9549L225.065 57.7432C223.588 56.8045 222.289 57.7966 222.233 57.8402Z" fill="#191931"/>
<path d="M213.841 58.0231C213.777 57.982 207.313 53.9536 204.367 53.194L204.601 52.29C207.684 53.0858 214.066 57.0632 214.338 57.2323L213.841 58.0231Z" fill="#191931"/>
<path d="M205.95 54.0311C205.95 54.0311 203.904 50.638 200.795 52.2692C197.152 54.1815 198.49 61.1803 205.95 60.5586V54.0311Z" fill="#EABFAD"/>
<path d="M345.307 346.195C345.307 346.195 344.462 341.48 346.12 338.994C346.12 338.994 347.354 343.741 361.036 340.227C361.036 340.227 354.558 344.058 345.307 346.195Z" fill="#1E162E"/>
<path d="M147.94 116.961C148.272 116.903 148.477 116.496 148.398 116.052C148.32 115.609 147.988 115.296 147.657 115.355C147.325 115.413 147.12 115.821 147.199 116.264C147.277 116.708 147.609 117.02 147.94 116.961Z" fill="#191931"/>
<path d="M160.206 114.317C160.537 114.258 160.742 113.851 160.664 113.408C160.586 112.964 160.254 112.652 159.922 112.71C159.591 112.769 159.386 113.176 159.464 113.62C159.543 114.063 159.875 114.375 160.206 114.317Z" fill="#191931"/>
<path d="M155.204 115.362C155.204 115.362 156.47 118.739 158.098 119.703C159.726 120.668 157.978 122.055 156.651 122.236C155.324 122.416 154.36 115.301 155.204 115.362Z" fill="#DA8A7B"/>
<path d="M329.599 106.995C329.614 106.545 329.354 106.171 329.017 106.159C328.681 106.148 328.396 106.504 328.381 106.954C328.366 107.404 328.626 107.778 328.962 107.79C329.299 107.801 329.584 107.445 329.599 106.995Z" fill="#191931"/>
<path d="M317.081 106.101C317.096 105.651 316.836 105.277 316.5 105.266C316.164 105.254 315.879 105.61 315.863 106.06C315.848 106.511 316.109 106.885 316.445 106.896C316.781 106.907 317.066 106.552 317.081 106.101Z" fill="#191931"/>
<path d="M321.547 107.195C321.547 107.195 320.769 110.716 319.293 111.901C317.817 113.084 319.743 114.212 321.082 114.205C322.422 114.197 322.376 107.016 321.547 107.195Z" fill="#DA8A7B"/>
<path d="M219.279 60.0668C219.615 60.0554 219.876 59.6813 219.86 59.2311C219.845 58.7809 219.56 58.4252 219.224 58.4365C218.888 58.4478 218.628 58.822 218.643 59.2722C218.658 59.7224 218.943 60.0781 219.279 60.0668Z" fill="#191931"/>
<path d="M229.584 59.6391C229.92 59.6277 230.18 59.2536 230.165 58.8034C230.15 58.3532 229.865 57.9974 229.529 58.0088C229.193 58.0201 228.932 58.3942 228.947 58.8444C228.963 59.2946 229.248 59.6504 229.584 59.6391Z" fill="#191931"/>
<path d="M155.402 128.279C155.224 128.279 155.04 128.266 154.846 128.24C151.839 127.831 151.805 124.813 151.805 124.784V123.947L152.351 124.581C152.433 124.675 154.407 126.897 158.291 125.779L158.938 125.594L158.66 126.207C158.651 126.228 157.694 128.279 155.402 128.279ZM152.552 125.582C152.768 126.345 153.353 127.409 154.93 127.625C156.339 127.816 157.229 127.12 157.691 126.564C155.143 127.064 153.426 126.218 152.552 125.582Z" fill="#191931"/>
<path d="M319.771 120.816C318.89 120.816 318.281 120.679 318.264 120.674L318.405 120.07C318.588 120.112 322.873 121.064 324.886 117.378L325.432 117.675C323.974 120.343 321.404 120.816 319.771 120.816Z" fill="#191931"/>
<path d="M222.287 63.8384C222.287 63.8384 222.914 62.794 224.401 62.6361C225.888 62.4782 226.56 63.4157 226.56 63.4157C226.56 63.4157 226.128 64.061 224.817 64.2872C223.507 64.5123 222.287 63.8384 222.287 63.8384Z" fill="#DA8A7B"/>
<path d="M222.949 71.0154C222.559 71.0154 222.137 70.9507 221.679 70.7953C220.196 70.2893 219.485 69.4289 219.376 68.0077L219.324 67.3276L219.871 67.7342C219.899 67.7541 222.625 69.7522 225.563 68.9999L226.355 68.7973L225.898 69.4749C225.885 69.4948 224.831 71.0154 222.949 71.0154ZM220.112 68.6269C220.342 69.3916 220.891 69.869 221.879 70.206C223.181 70.6511 224.155 70.2134 224.74 69.7696C222.751 69.9474 220.999 69.1392 220.112 68.6269Z" fill="#191931"/>
<path d="M205.176 60.5946C205.176 60.5946 205.063 63.4133 203.128 63.8024L202.969 60.3584C202.969 60.3584 204.164 60.6891 205.176 60.5946Z" fill="#CF9B89"/>
<path d="M343.051 107.795C343.051 107.795 343.11 112.261 345.442 113.466V107.716C345.442 107.716 344.149 107.954 343.051 107.795Z" fill="#CF9B89"/>
<path d="M184.283 286.02C191.282 288.213 199.425 285.486 205.587 290.231C205.904 290.475 206.214 289.935 205.9 289.694C199.662 284.891 191.505 287.632 184.448 285.42C184.066 285.301 183.902 285.9 184.283 286.02Z" fill="#372723"/>
<path d="M185.934 286.536C192.74 286.78 200.114 284.446 205.366 290.021C205.641 290.313 206.08 289.873 205.806 289.581C200.389 283.831 193.011 286.168 185.934 285.914C185.535 285.901 185.535 286.522 185.934 286.536Z" fill="#372723"/>
<path d="M292.417 290.43H201.04C200.221 290.43 199.557 289.766 199.557 288.947V287.975C199.557 287.155 200.221 286.491 201.04 286.491H292.417C293.236 286.491 293.9 287.155 293.9 287.975V288.947C293.9 289.766 293.236 290.43 292.417 290.43Z" fill="#CBC8C7"/>
<path d="M196.815 283.752C196.815 285.264 198.041 286.491 199.555 286.491H279.302C280.814 286.491 282.041 285.266 282.041 283.752L281.075 274.943L192.578 245.109L196.815 283.752Z" fill="#D9D9D9"/>
<path d="M228.639 257.265C229.534 259.68 231.848 261.231 234.276 260.855C235.094 260.728 235.819 260.378 236.446 259.897L228.639 257.265Z" fill="#CBC8C7"/>
<path d="M293.9 288.947V287.975C293.9 287.155 293.236 286.491 292.417 286.491H201.04C200.221 286.491 199.557 287.155 199.557 287.975V288.03H284.071C285.432 288.069 285.311 289.197 285.311 289.197V290.287L285.383 290.431H292.418C293.236 290.43 293.9 289.766 293.9 288.947Z" fill="#8E8A87"/>
<path d="M201.04 286.8C227.128 286.8 253.216 286.8 279.303 286.8C279.704 286.8 279.704 286.179 279.303 286.179C253.216 286.179 227.128 286.179 201.04 286.179C200.641 286.179 200.64 286.8 201.04 286.8Z" fill="#372723"/>
<path d="M312.915 206.939L309.006 209.09C309.006 209.09 308.64 209.437 307.972 208.708C307.305 207.98 304.883 206.58 304.666 203.646C304.516 201.606 306.353 200.202 307.441 199.504C307.441 199.504 307.029 197.603 309.187 197.737C309.187 197.737 308.485 196.546 308.458 196.14C308.458 196.14 308.23 195.939 307.791 195.871C307.352 195.802 303.887 195.386 303.217 194.142C302.545 192.899 304.682 193.654 306.334 193.636C307.985 193.619 309.384 193.215 309.384 193.215C309.384 193.215 314.472 196.775 314.717 196.881C314.962 196.988 317.173 197.642 317.611 199.282C318.048 200.922 317.271 202.612 317.271 202.612C317.271 202.612 317.193 204.438 317.019 204.671C316.845 204.903 312.915 206.939 312.915 206.939Z" fill="#EABFAD"/>
<path d="M308.524 209.796C311.497 208.003 314.646 206.523 317.62 204.73C317.962 204.524 317.65 203.987 317.307 204.193C314.334 205.986 311.185 207.466 308.211 209.259C307.869 209.465 308.181 210.003 308.524 209.796Z" fill="#372723"/>
<path d="M317.498 204.545C318.479 198.739 313.852 195.583 309.344 193.001C308.996 192.802 308.683 193.339 309.031 193.538C313.206 195.929 317.826 198.889 316.899 204.38C316.831 204.77 317.431 204.94 317.498 204.545Z" fill="#372723"/>
<path d="M309.103 192.97C308.058 193.221 307 193.355 305.928 193.399C305.059 193.434 304.147 193.281 303.29 193.365C303.188 193.375 303.067 193.415 303.021 193.519C302.668 194.308 303.693 194.972 304.297 195.291C305.537 195.948 306.958 196.069 308.311 196.337C308.701 196.414 308.869 195.815 308.476 195.737C307.541 195.552 306.594 195.45 305.678 195.169C305.261 195.041 304.837 194.894 304.458 194.674C304.18 194.52 303.937 194.326 303.728 194.093C303.306 193.961 303.329 193.93 303.794 194.001C304.683 193.913 305.623 194.054 306.524 193.991C307.45 193.925 308.364 193.788 309.268 193.57C309.657 193.476 309.493 192.877 309.103 192.97Z" fill="#372723"/>
<path d="M308.094 196.119C308.414 196.903 308.839 197.602 309.397 198.24C309.661 198.542 310.1 198.101 309.837 197.8C309.354 197.247 308.972 196.634 308.695 195.954C308.546 195.588 307.944 195.748 308.094 196.119Z" fill="#372723"/>
<path d="M309.793 197.729C308.511 196.962 306.957 197.838 306.973 199.337C306.977 199.737 307.598 199.737 307.594 199.337C307.583 198.312 308.595 197.736 309.479 198.265C309.823 198.471 310.136 197.934 309.793 197.729Z" fill="#372723"/>
<path d="M314.28 197.086C315.451 197.579 316.811 198.147 317.287 199.431C317.659 200.435 317.362 201.779 317.046 202.778C316.925 203.161 317.526 203.324 317.645 202.944C318.019 201.758 318.35 200.14 317.781 198.975C317.129 197.64 315.739 197.032 314.444 196.487C314.077 196.333 313.915 196.933 314.28 197.086Z" fill="#372723"/>
<path d="M209.488 139.247C209.488 139.247 209.119 132.873 208.174 131.434C208.174 131.434 209.767 132.545 210.194 133.147C210.194 133.147 210.567 133.391 210.622 132.61C210.678 131.828 210.716 124.195 210.526 123.132C210.526 123.132 212.435 125.02 213.056 129.968L213.331 130.147C213.331 130.147 214.786 129.097 215.777 130.997C215.777 130.997 217.544 129.913 218.567 131.288C218.567 131.288 220.119 130.57 221.2 131.477C222.282 132.385 222.247 133.433 222.247 133.433C222.247 133.433 224.646 137.197 219.31 141.521L209.488 139.247Z" fill="#EABFAD"/>
<path d="M206.569 139.091C211.343 139.901 215.989 141.297 220.763 142.105C221.154 142.171 221.322 141.573 220.928 141.506C216.154 140.696 211.507 139.3 206.734 138.492C206.342 138.426 206.174 139.025 206.569 139.091Z" fill="#372723"/>
<path d="M209.79 139.181C209.133 136.549 209.782 133.756 208.445 131.293C208.303 131.435 208.161 131.577 208.019 131.718C208.841 132.284 209.554 132.916 210.218 133.653C210.486 133.951 210.924 133.51 210.658 133.213C209.953 132.431 209.199 131.776 208.334 131.18C208.064 130.995 207.769 131.349 207.909 131.605C209.203 133.989 208.554 136.789 209.191 139.345C209.288 139.734 209.887 139.57 209.79 139.181Z" fill="#372723"/>
<path d="M210.871 133.269C211.192 129.822 210.982 126.375 210.826 122.925C210.65 122.998 210.472 123.071 210.295 123.145C211.968 125.102 212.328 128.02 212.842 130.466C212.924 130.857 213.523 130.692 213.441 130.3C212.895 127.703 212.511 124.786 210.734 122.706C210.56 122.502 210.192 122.666 210.203 122.926C210.359 126.376 210.569 129.823 210.248 133.271C210.212 133.668 210.834 133.666 210.871 133.269Z" fill="#372723"/>
<path d="M213.416 130.529C214.195 129.632 215.208 130.47 215.557 131.294C215.713 131.661 216.249 131.345 216.094 130.981C215.585 129.778 214.006 128.903 212.976 130.089C212.716 130.391 213.154 130.833 213.416 130.529Z" fill="#372723"/>
<path d="M215.999 131.374C216.727 130.599 217.87 130.722 218.395 131.649C218.591 131.997 219.129 131.684 218.932 131.336C218.214 130.066 216.558 129.871 215.56 130.934C215.285 131.226 215.724 131.667 215.999 131.374Z" fill="#372723"/>
<path d="M148.896 460.946C148.896 460.946 155.193 486.871 169.147 487.781C179.837 488.478 175.674 467.504 170.882 460.946H148.896Z" fill="#191931"/>
<path d="M201.737 459.495C201.737 459.495 200.804 468.975 209.041 472.239C217.279 475.503 240.591 477.834 245.098 477.057C249.605 476.28 251.315 466.799 226.914 459.495H201.737Z" fill="#191931"/>
<path d="M272.141 455.143C272.141 455.143 260.174 464.312 256.444 471.617C252.714 478.921 266.08 476.279 275.405 470.684C284.73 465.089 295.781 460.582 295.151 455.143H272.141Z" fill="#191931"/>
<path d="M335.234 459.495C335.234 459.495 331.033 487.271 342.596 490.164C354.302 493.093 354.356 461.204 354.045 459.495H335.234Z" fill="#191931"/>
<path d="M38.3478 395.743C38.3478 395.743 39.0391 368.977 36.4144 343.006C36.4019 343.047 27.1279 373.471 37.3245 404.503C38.124 405.448 38.9321 406.38 39.7502 407.293L38.3478 395.743Z" fill="#4C4936"/>
<path d="M65.2753 349.554C49.4414 358.977 45.7599 395.981 44.9082 412.014C64.4386 379.082 65.2642 349.984 65.2753 349.554Z" fill="#4C4936"/>
<path d="M47.097 365.209L59.9992 358.926C60.9789 351.266 61.4949 343.887 61.5533 337.272L49.9977 340.134L61.5496 334.411C61.3171 314.608 56.6993 302.874 47.9176 313.816C46.3262 315.8 44.9498 318.12 43.7549 320.693L49.9977 327.907L42.6857 323.175C40.6466 328.326 39.2441 334.329 38.3141 340.711L45.8525 349.552L38.0169 342.889C34.3279 371.798 39.7452 407.266 39.7489 407.292C41.3466 409.074 42.9828 410.792 44.6489 412.454C52.0132 398.594 56.9232 380.156 59.4757 362.722L47.097 365.209Z" fill="#679C93"/>
<path d="M65.4434 398.232L59.8036 397.062C57.491 399.769 54.2136 404.968 53.3184 413.178C57.7894 409.047 61.8875 403.869 65.4434 398.232Z" fill="#4C4936"/>
<path d="M62.1741 394.739C62.1741 394.739 61.7202 395.078 61.0352 395.747L67.1673 395.398C67.3327 395.115 67.4893 394.828 67.651 394.543L62.1741 394.739Z" fill="#4C4936"/>
<path d="M125.737 455.998C133.141 449.612 138.145 440.762 139.175 430.611C139.551 426.915 139.364 423.286 138.704 419.786L95.1797 426.144L54.7301 413.597C54.0127 415.723 53.4856 417.936 53.1523 420.217C75.1358 438.594 101.385 448.66 125.737 455.998Z" fill="#679C93"/>
<path d="M55.3496 411.889L95.1812 426.145L59.0933 404.706C57.6038 406.953 56.343 409.355 55.3496 411.889Z" fill="#679C93"/>
<path d="M62.1289 400.712L95.1794 426.145L95.3398 385.898C82.0559 385.908 69.9992 391.596 62.1289 400.712Z" fill="#679C93"/>
<path d="M102.758 386.483L95.1797 426.145L130.026 401.693C123.463 393.872 113.892 388.25 102.758 386.483Z" fill="#679C93"/>
<path d="M132.495 404.946L95.1797 426.145L137.07 413.836C135.929 410.696 134.388 407.715 132.495 404.946Z" fill="#679C93"/>
<path d="M436.359 473.973C461.917 473.973 482.636 470.802 482.636 466.89C482.636 462.978 461.917 459.807 436.359 459.807C410.801 459.807 390.082 462.978 390.082 466.89C390.082 470.802 410.801 473.973 436.359 473.973Z" fill="#1E162E"/>
<path d="M451.824 390.597C451.824 390.597 453.126 350.233 500 336.312C500 336.312 493.49 376.121 463.217 390.597H451.824Z" fill="#EAAC29"/>
<path d="M487.45 341.139C452.898 357.799 451.824 390.596 451.824 390.596H456.867C481.23 372.507 487.399 341.397 487.45 341.139Z" fill="#A2222B"/>
<path d="M448.894 390.597C448.894 390.597 447.918 326.264 493.815 296.659C493.815 296.659 489.578 355.939 456.866 390.597H448.894Z" fill="#EAAC29"/>
<path d="M458.254 342.323C448.546 367.318 448.894 390.598 448.894 390.598H451.823C461.896 371.763 458.269 342.436 458.254 342.323Z" fill="#A2222B"/>
<path d="M443.209 390.597C443.209 390.597 424.479 295.157 436.523 240.579C436.523 240.579 469.075 311.994 451.823 390.597H443.209Z" fill="#EAAC29"/>
<path d="M440.75 376.56C451.794 314.691 432.588 279.724 432.542 279.64C431.883 315.984 437.398 355.945 440.75 376.56Z" fill="#A2222B"/>
<path d="M434.569 390.596C434.569 390.596 432.29 314.904 412.108 292.443C412.108 292.443 402.017 350.73 427.407 390.596H434.569Z" fill="#EAAC29"/>
<path d="M422.088 310.985C422.073 311.174 417.503 369.645 431.316 390.596L434.389 386.411C433.755 373.957 431.158 336.405 422.088 310.985Z" fill="#A2222B"/>
<path d="M412.727 350.807C415.149 364.325 419.598 378.332 427.409 390.597H434.571C431.97 365.409 412.771 350.842 412.727 350.807Z" fill="#A2222B"/>
<path d="M425.265 462.19H461.291C491.141 444.031 484.667 397.839 484.667 397.839L443.279 394.897L401.89 397.839C401.89 397.839 395.415 444.031 425.265 462.19Z" fill="#BAB0D0"/>
<path d="M488.866 399.198H397.689C396.619 399.198 395.752 398.33 395.752 397.261V392.534C395.752 391.463 396.62 390.597 397.689 390.597H488.866C489.936 390.597 490.803 391.465 490.803 392.534V397.261C490.803 398.331 489.936 399.198 488.866 399.198Z" fill="#7763A1"/>
<path d="M485.087 402.553C485.087 402.553 438.042 402.346 401.543 415.586C401.543 415.586 400.959 403.425 401.734 399.199H484.822C484.822 399.199 485.026 401.428 485.087 402.553Z" fill="#1E162E"/>
<path d="M431.314 390.597C431.314 390.597 413.411 324.345 431.314 282.028C431.314 282.028 446.288 331.2 437.824 390.597H431.314Z" fill="#EAAC29"/>
<path d="M431.315 390.597C431.315 390.597 417.969 345.025 382.162 336.312C382.162 336.312 390.3 374.167 418.295 390.597H431.315Z" fill="#EAAC29"/>
<path d="M454.872 311.004C454.428 307.421 453.925 303.931 453.374 300.543L446.369 305.465L439.824 370.696C441.707 382.925 443.211 390.597 443.211 390.597C456.097 366.528 454.89 311.785 454.872 311.004Z" fill="#A2222B"/>
<path d="M434.57 390.597H437.825L439.103 325.811C439.103 325.811 432.867 349.084 434.57 390.597Z" fill="#A2222B"/>
<path d="M436.361 390.597C436.361 390.597 435.872 291.142 453.776 248.5C453.776 248.5 457.573 342.702 445.421 390.597H436.361Z" fill="#EAAC29"/>
<path d="M382.162 336.312C382.162 336.312 385.172 350.267 393.794 364.906C393.162 344.066 382.162 336.312 382.162 336.312Z" fill="#A2222B"/>
<path d="M446.92 270.903C446.92 270.903 439.949 282.67 441.981 299.031C441.981 299.031 444.986 278.656 446.92 270.903Z" fill="#A2222B"/>
<path d="M472.982 399.199C472.982 399.199 473.562 440.915 453.897 462.19H451.824C451.824 462.19 471.057 438.439 469.636 399.199H472.982Z" fill="#1E162E"/>
<path d="M444.174 462.19C444.174 462.19 449.245 422.999 448.892 399.199H451.824C451.824 399.199 450.292 440.294 445.215 462.19H444.174Z" fill="#1E162E"/>
<path d="M420.867 290.309H52.5391V294.812H420.867V290.309Z" fill="#BAB0D0"/>
<path d="M64.0776 295.123C103.033 295.123 141.987 295.123 180.942 295.123C241.71 295.123 302.477 295.123 363.245 295.123C377.793 295.123 392.342 295.123 406.89 295.123C407.29 295.123 407.29 294.501 406.89 294.501C367.935 294.501 328.981 294.501 290.026 294.501C229.258 294.501 168.491 294.501 107.723 294.501C93.1743 294.501 78.6259 294.501 64.0776 294.501C63.6773 294.501 63.6773 295.123 64.0776 295.123Z" fill="#372723"/>
<path d="M291.664 289.766C291.989 289.766 292.252 289.503 292.252 289.178C292.252 288.853 291.989 288.59 291.664 288.59C291.34 288.59 291.076 288.853 291.076 289.178C291.076 289.503 291.34 289.766 291.664 289.766Z" fill="#1E162E"/>
<path d="M289.776 289.766C290.1 289.766 290.364 289.503 290.364 289.178C290.364 288.853 290.1 288.59 289.776 288.59C289.451 288.59 289.188 288.853 289.188 289.178C289.188 289.503 289.451 289.766 289.776 289.766Z" fill="#1E162E"/>
<path d="M169.01 308.243C176.787 313.863 183.839 320.79 187.283 329.943C190.827 339.36 190.137 349.816 188.325 359.527C186.551 369.032 183.677 378.194 182.356 387.801C181.431 394.527 180.681 401.302 180.029 408.059C178.331 425.646 177.326 443.319 176.091 460.943C176.064 461.342 176.685 461.341 176.713 460.943C177.99 442.706 178.937 424.39 180.838 406.207C181.991 395.184 183.009 384.043 185.713 373.273C188.087 363.819 190.502 354.397 190.418 344.573C190.281 328.648 181.904 316.793 169.323 307.703C168.999 307.472 168.689 308.01 169.01 308.243Z" fill="#372723"/>
<path d="M302.118 308.068C292.494 320.491 285.344 335.253 289.616 351.208C289.719 351.593 290.32 351.43 290.215 351.042C286.003 335.313 293.086 320.732 302.557 308.508C302.799 308.194 302.361 307.752 302.118 308.068Z" fill="#372723"/>
<path d="M289.612 351.207C300.567 387.444 311.963 423.602 323.748 459.578C323.873 459.956 324.473 459.794 324.348 459.412C312.562 423.436 301.167 387.28 290.212 351.042C290.096 350.66 289.497 350.823 289.612 351.207Z" fill="#372723"/>
<path d="M103.496 157.363C103.496 157.363 103.926 161.076 107.76 160.368C111.126 159.746 110.298 153.582 115.427 152.545C120.556 151.509 108.019 151.82 108.019 151.82L104.756 154.514L103.496 157.363Z" fill="#191931"/>
<path d="M130.082 451.631C93.9028 446.944 53.1523 420.216 53.1523 420.216C75.1346 438.593 101.384 448.659 125.737 455.997C127.3 454.651 128.749 453.187 130.082 451.631Z" fill="#4C4936"/>
<path d="M456.691 68.0059H286.862C286.428 68.4199 285.994 68.8327 285.557 69.2492H456.69V68.0059H456.691Z" fill="#CBC8C7"/>
<path d="M303.777 51.9304H456.026C455.727 51.5138 455.429 51.0948 455.128 50.687H305.111C304.669 51.0973 304.225 51.5126 303.777 51.9304Z" fill="#CBC8C7"/>
<path d="M454.5 75.2481H291.047V68.1274H454.5V75.2481ZM292.29 74.0047H453.257V69.3708H292.29V74.0047Z" fill="#CBC8C7"/>
</g>
<defs>
<clipPath id="clip0_540_217">
<rect width="500" height="500" fill="white"/>
</clipPath>
</defs>
</svg>
