<svg width="500" height="501" viewBox="0 0 500 501" fill="none" xmlns="http://www.w3.org/2000/svg">
<path d="M415.035 368.921C415.035 394.475 394.317 415.193 368.757 415.193H131.238C105.683 415.193 84.9655 394.475 84.9655 368.921V131.396C84.9655 105.842 105.679 85.124 131.238 85.124H368.762C394.317 85.124 415.039 105.842 415.039 131.396L415.035 368.921Z" fill="#419CFF"/>
<path d="M368.762 335.62C368.762 354.009 353.851 368.916 335.465 368.916H164.539C146.149 368.916 131.238 354.009 131.238 335.62V164.693C131.238 146.308 146.149 131.396 164.539 131.396H335.465C353.851 131.396 368.762 146.308 368.762 164.693V335.62Z" fill="#1685FF"/>
<path d="M189.447 181.734C189.447 175.706 185.797 170.537 180.596 168.296V131.396H169.024V168.296C163.823 170.537 160.174 175.71 160.174 181.734C160.174 189.818 166.729 196.368 174.813 196.368C182.896 196.373 189.447 189.818 189.447 181.734Z" fill="white"/>
<path d="M189.447 235.522C181.363 235.522 174.812 242.077 174.812 250.161C174.812 256.48 178.84 261.815 184.448 263.862V368.921H196.02V263.169C200.782 260.758 204.085 255.866 204.085 250.161C204.085 242.077 197.53 235.522 189.447 235.522Z" fill="white"/>
<path d="M249.041 294.904C240.957 294.904 234.402 301.459 234.402 309.539C234.402 315.567 238.052 320.736 243.258 322.981V368.921H254.825V322.981C260.026 320.736 263.68 315.567 263.68 309.539C263.68 301.459 257.121 294.904 249.041 294.904Z" fill="white"/>
<path d="M339.078 224.667C330.999 224.667 324.439 231.221 324.439 239.305C324.439 241.938 325.192 244.373 326.407 246.507L300.793 280.413V368.921H312.36V284.294L335.632 253.492C336.745 253.759 337.882 253.944 339.078 253.944C347.162 253.944 353.717 247.389 353.717 239.305C353.717 231.221 347.162 224.667 339.078 224.667Z" fill="white"/>
<path d="M264.636 220.869C263.588 220.869 262.567 220.994 261.578 221.202L238.435 190.575V131.401H226.864V194.456L252.164 227.941C250.82 230.154 250.002 232.732 250.002 235.513C250.002 243.592 256.553 250.147 264.636 250.147C272.72 250.147 279.275 243.592 279.275 235.513C279.275 227.424 272.72 220.869 264.636 220.869Z" fill="white"/>
<path d="M311.694 211.007C319.778 211.007 326.333 204.452 326.333 196.368C326.333 190.344 322.689 185.175 317.478 182.93V131.396H305.916V182.93C300.705 185.175 297.06 190.344 297.06 196.368C297.06 204.457 303.615 211.007 311.694 211.007Z" fill="white"/>
<path d="M260.211 49.0776H239.789V94.4123H260.211V49.0776Z" fill="#419CFF"/>
<path d="M221.648 49.0776H201.226V94.4123H221.648V49.0776Z" fill="#419CFF"/>
<path d="M183.091 49.0776H162.673V94.4123H183.091V49.0776Z" fill="#419CFF"/>
<path d="M144.537 49.0776H124.115V94.4123H144.537V49.0776Z" fill="#419CFF"/>
<path d="M375.89 49.0776H355.472V94.4123H375.89V49.0776Z" fill="#419CFF"/>
<path d="M337.328 49.0776H316.91V94.4123H337.328V49.0776Z" fill="#419CFF"/>
<path d="M298.774 49.0776H278.352V94.4123H298.774V49.0776Z" fill="#419CFF"/>
<path d="M260.211 405.898H239.789V451.233H260.211V405.898Z" fill="#419CFF"/>
<path d="M221.648 405.898H201.226V451.233H221.648V405.898Z" fill="#419CFF"/>
<path d="M183.09 405.898H162.673V451.233H183.09V405.898Z" fill="#419CFF"/>
<path d="M144.537 405.898H124.115V451.233H144.537V405.898Z" fill="#419CFF"/>
<path d="M375.89 405.898H355.472V451.233H375.89V405.898Z" fill="#419CFF"/>
<path d="M337.327 405.898H316.91V451.233H337.327V405.898Z" fill="#419CFF"/>
<path d="M298.774 405.898H278.351V451.233H298.774V405.898Z" fill="#419CFF"/>
<path d="M451.075 239.945H405.745V260.363H451.075V239.945Z" fill="#419CFF"/>
<path d="M451.075 201.382H405.745V221.805H451.075V201.382Z" fill="#419CFF"/>
<path d="M451.075 162.826H405.745V183.243H451.075V162.826Z" fill="#419CFF"/>
<path d="M451.075 124.267H405.745V144.689H451.075V124.267Z" fill="#419CFF"/>
<path d="M451.075 355.624H405.745V376.042H451.075V355.624Z" fill="#419CFF"/>
<path d="M451.075 317.063H405.745V337.486H451.075V317.063Z" fill="#419CFF"/>
<path d="M451.075 278.504H405.745V298.927H451.075V278.504Z" fill="#419CFF"/>
<path d="M94.2597 239.945H48.925V260.363H94.2597V239.945Z" fill="#419CFF"/>
<path d="M94.2597 201.382H48.925V221.805H94.2597V201.382Z" fill="#419CFF"/>
<path d="M94.2597 162.826H48.925V183.243H94.2597V162.826Z" fill="#419CFF"/>
<path d="M94.2597 124.267H48.925V144.689H94.2597V124.267Z" fill="#419CFF"/>
<path d="M94.2597 355.624H48.925V376.042H94.2597V355.624Z" fill="#419CFF"/>
<path d="M94.2597 317.063H48.925V337.486H94.2597V317.063Z" fill="#419CFF"/>
<path d="M94.2597 278.504H48.925V298.927H94.2597V278.504Z" fill="#419CFF"/>
</svg>
