<?xml version="1.0" encoding="UTF-8" standalone="no"?>
<!DOCTYPE svg PUBLIC "-//W3C//DTD SVG 1.1//EN" "http://www.w3.org/Graphics/SVG/1.1/DTD/svg11.dtd">
<svg width="100%" height="100%" viewBox="0 0 1596 416" version="1.1" xmlns="http://www.w3.org/2000/svg" xmlns:xlink="http://www.w3.org/1999/xlink" xml:space="preserve" xmlns:serif="http://www.serif.com/" style="fill-rule:evenodd;clip-rule:evenodd;stroke-linejoin:round;stroke-miterlimit:2;">
    <g transform="matrix(1,0,0,1,-3362.71,-3137.44)">
        <g transform="matrix(1,0,0,1,-1711.82,1855.27)">
            <g>
                <path d="M5277.88,1282.16C5390.11,1282.16 5481.22,1375.29 5481.22,1489.98C5481.22,1604.68 5390.11,1697.8 5277.88,1697.8C5165.65,1697.8 5074.53,1604.68 5074.53,1489.98C5074.53,1375.29 5165.65,1282.16 5277.88,1282.16ZM5159.59,1550.03C5165.41,1550.03 5170.14,1554.74 5170.14,1560.53C5170.14,1566.33 5165.41,1571.03 5159.59,1571.03C5153.77,1571.03 5149.04,1566.33 5149.04,1560.53C5149.04,1554.74 5153.77,1550.03 5159.59,1550.03ZM5373.66,1432.02C5375.71,1421.34 5368.69,1411.13 5357.97,1409.24C5347.26,1407.35 5336.89,1414.49 5334.84,1425.17L5311.23,1547.95C5309.18,1558.63 5316.21,1568.84 5326.92,1570.73C5337.63,1572.62 5348,1565.48 5350.05,1554.79L5373.66,1432.02ZM5245.75,1432.02C5247.8,1421.34 5240.77,1411.13 5230.06,1409.24C5219.35,1407.35 5208.98,1414.49 5206.93,1425.17L5183.32,1547.95C5181.26,1558.63 5188.29,1568.84 5199.01,1570.73C5209.72,1572.62 5220.08,1565.48 5222.14,1554.79L5245.75,1432.02ZM5309.7,1432.02C5311.76,1421.34 5304.73,1411.13 5294.02,1409.24C5283.3,1407.35 5272.94,1414.49 5270.88,1425.17L5247.28,1547.95C5245.22,1558.63 5252.25,1568.84 5262.96,1570.73C5273.68,1572.62 5284.04,1565.48 5286.1,1554.79L5309.7,1432.02ZM5396.17,1408.94C5401.99,1408.94 5406.71,1413.64 5406.71,1419.43C5406.71,1425.23 5401.99,1429.93 5396.17,1429.93C5390.34,1429.93 5385.62,1425.23 5385.62,1419.43C5385.62,1413.64 5390.34,1408.94 5396.17,1408.94Z" style="fill:rgb(55,125,255);"/>
            </g>
        </g>
        <g transform="matrix(5.96581,0,0,5.96581,-29467.9,-4178.2)">
            <path d="M5586.68,1271.06L5586.68,1243.78L5590.73,1243.78L5590.73,1248.04L5591.09,1248.04C5591.66,1246.59 5592.57,1245.45 5593.84,1244.64C5595.11,1243.83 5596.63,1243.43 5598.4,1243.43C5600.2,1243.43 5601.7,1243.83 5602.9,1244.64C5604.11,1245.45 5605.04,1246.59 5605.72,1248.04L5606,1248.04C5606.7,1246.64 5607.75,1245.51 5609.15,1244.68C5610.54,1243.85 5612.22,1243.43 5614.17,1243.43C5616.61,1243.43 5618.6,1244.19 5620.15,1245.71C5621.7,1247.23 5622.48,1249.6 5622.48,1252.8L5622.48,1271.06L5618.29,1271.06L5618.29,1252.8C5618.29,1250.79 5617.74,1249.35 5616.64,1248.49C5615.54,1247.62 5614.24,1247.19 5612.75,1247.19C5610.83,1247.19 5609.35,1247.77 5608.29,1248.92C5607.24,1250.08 5606.71,1251.54 5606.71,1253.3L5606.71,1271.06L5602.45,1271.06L5602.45,1252.38C5602.45,1250.83 5601.95,1249.57 5600.94,1248.62C5599.94,1247.67 5598.64,1247.19 5597.05,1247.19C5595.96,1247.19 5594.95,1247.48 5594.01,1248.06C5593.07,1248.64 5592.31,1249.44 5591.73,1250.47C5591.16,1251.49 5590.87,1252.67 5590.87,1254.01L5590.87,1271.06L5586.68,1271.06Z" style="fill:rgb(55,125,255);fill-rule:nonzero;"/>
            <path d="M5638.23,1271.62C5635.77,1271.62 5633.61,1271.04 5631.76,1269.87C5629.9,1268.69 5628.46,1267.06 5627.43,1264.95C5626.39,1262.84 5625.87,1260.38 5625.87,1257.56C5625.87,1254.72 5626.39,1252.24 5627.43,1250.12C5628.46,1248 5629.9,1246.36 5631.76,1245.19C5633.61,1244.01 5635.77,1243.43 5638.23,1243.43C5640.69,1243.43 5642.85,1244.01 5644.7,1245.19C5646.55,1246.36 5648,1248 5649.03,1250.12C5650.07,1252.24 5650.59,1254.72 5650.59,1257.56C5650.59,1260.38 5650.07,1262.84 5649.03,1264.95C5648,1267.06 5646.55,1268.69 5644.7,1269.87C5642.85,1271.04 5640.69,1271.62 5638.23,1271.62ZM5638.23,1267.86C5640.1,1267.86 5641.64,1267.38 5642.85,1266.42C5644.05,1265.46 5644.95,1264.2 5645.53,1262.64C5646.11,1261.08 5646.4,1259.38 5646.4,1257.56C5646.4,1255.74 5646.11,1254.04 5645.53,1252.46C5644.95,1250.89 5644.05,1249.62 5642.85,1248.65C5641.64,1247.68 5640.1,1247.19 5638.23,1247.19C5636.36,1247.19 5634.82,1247.68 5633.61,1248.65C5632.41,1249.62 5631.51,1250.89 5630.93,1252.46C5630.35,1254.04 5630.06,1255.74 5630.06,1257.56C5630.06,1259.38 5630.35,1261.08 5630.93,1262.64C5631.51,1264.2 5632.41,1265.46 5633.61,1266.42C5634.82,1267.38 5636.36,1267.86 5638.23,1267.86Z" style="fill:rgb(55,125,255);fill-rule:nonzero;"/>
            <path d="M5658.17,1254.65L5658.17,1271.06L5653.98,1271.06L5653.98,1243.78L5658.03,1243.78L5658.03,1248.04L5658.38,1248.04C5659.02,1246.66 5659.99,1245.54 5661.3,1244.7C5662.6,1243.85 5664.28,1243.43 5666.34,1243.43C5668.18,1243.43 5669.8,1243.8 5671.19,1244.56C5672.57,1245.31 5673.65,1246.44 5674.42,1247.96C5675.19,1249.49 5675.57,1251.41 5675.57,1253.73L5675.57,1271.06L5671.38,1271.06L5671.38,1254.01C5671.38,1251.87 5670.82,1250.2 5669.71,1248.99C5668.6,1247.79 5667.07,1247.19 5665.13,1247.19C5663.79,1247.19 5662.6,1247.48 5661.55,1248.06C5660.51,1248.64 5659.68,1249.49 5659.07,1250.6C5658.47,1251.71 5658.17,1253.06 5658.17,1254.65Z" style="fill:rgb(55,125,255);fill-rule:nonzero;"/>
            <path d="M5691.25,1281.85C5689.23,1281.85 5687.48,1281.59 5686.03,1281.08C5684.57,1280.56 5683.36,1279.89 5682.4,1279.05C5681.43,1278.22 5680.67,1277.33 5680.1,1276.38L5683.44,1274.04C5683.82,1274.54 5684.3,1275.11 5684.88,1275.75C5685.45,1276.4 5686.25,1276.96 5687.26,1277.44C5688.28,1277.92 5689.6,1278.16 5691.25,1278.16C5693.45,1278.16 5695.27,1277.63 5696.7,1276.56C5698.13,1275.49 5698.85,1273.83 5698.85,1271.55L5698.85,1266.01L5698.49,1266.01C5698.19,1266.51 5697.75,1267.12 5697.19,1267.85C5696.63,1268.58 5695.82,1269.22 5694.77,1269.79C5693.73,1270.35 5692.32,1270.63 5690.54,1270.63C5688.34,1270.63 5686.36,1270.11 5684.62,1269.07C5682.87,1268.03 5681.49,1266.51 5680.48,1264.52C5679.47,1262.53 5678.96,1260.12 5678.96,1257.28C5678.96,1254.48 5679.45,1252.05 5680.44,1249.97C5681.42,1247.89 5682.79,1246.28 5684.54,1245.14C5686.29,1244 5688.31,1243.43 5690.61,1243.43C5692.39,1243.43 5693.8,1243.72 5694.85,1244.31C5695.89,1244.89 5696.7,1245.56 5697.26,1246.3C5697.82,1247.04 5698.26,1247.64 5698.57,1248.12L5698.99,1248.12L5698.99,1243.78L5703.04,1243.78L5703.04,1271.84C5703.04,1274.18 5702.51,1276.09 5701.45,1277.56C5700.39,1279.04 5698.97,1280.12 5697.19,1280.81C5695.41,1281.51 5693.43,1281.85 5691.25,1281.85ZM5691.11,1266.87C5692.79,1266.87 5694.21,1266.48 5695.37,1265.71C5696.53,1264.94 5697.41,1263.84 5698.01,1262.39C5698.62,1260.95 5698.92,1259.22 5698.92,1257.21C5698.92,1255.24 5698.62,1253.51 5698.03,1252C5697.44,1250.5 5696.56,1249.32 5695.4,1248.47C5694.24,1247.62 5692.81,1247.19 5691.11,1247.19C5689.33,1247.19 5687.86,1247.64 5686.68,1248.54C5685.5,1249.44 5684.62,1250.65 5684.03,1252.16C5683.45,1253.68 5683.15,1255.36 5683.15,1257.21C5683.15,1259.1 5683.45,1260.77 5684.05,1262.22C5684.65,1263.67 5685.53,1264.81 5686.71,1265.63C5687.89,1266.45 5689.36,1266.87 5691.11,1266.87Z" style="fill:rgb(55,125,255);fill-rule:nonzero;"/>
            <path d="M5707.71,1271.06L5707.71,1243.78L5711.76,1243.78L5711.76,1247.9L5712.04,1247.9C5712.54,1246.55 5713.44,1245.46 5714.74,1244.62C5716.04,1243.78 5717.51,1243.36 5719.14,1243.36C5719.45,1243.36 5719.84,1243.36 5720.3,1243.37C5720.76,1243.39 5721.11,1243.4 5721.35,1243.43L5721.35,1247.69C5721.2,1247.65 5720.88,1247.6 5720.38,1247.52C5719.88,1247.44 5719.35,1247.4 5718.79,1247.4C5717.46,1247.4 5716.28,1247.68 5715.25,1248.23C5714.21,1248.78 5713.39,1249.54 5712.8,1250.5C5712.2,1251.47 5711.9,1252.57 5711.9,1253.8L5711.9,1271.06L5707.71,1271.06Z" style="fill:rgb(55,125,255);fill-rule:nonzero;"/>
            <path d="M5733.55,1271.62C5731.08,1271.62 5728.93,1271.04 5727.07,1269.87C5725.22,1268.69 5723.78,1267.06 5722.74,1264.95C5721.7,1262.84 5721.19,1260.38 5721.19,1257.56C5721.19,1254.72 5721.7,1252.24 5722.74,1250.12C5723.78,1248 5725.22,1246.36 5727.07,1245.19C5728.93,1244.01 5731.08,1243.43 5733.55,1243.43C5736.01,1243.43 5738.16,1244.01 5740.02,1245.19C5741.87,1246.36 5743.31,1248 5744.35,1250.12C5745.39,1252.24 5745.9,1254.72 5745.9,1257.56C5745.9,1260.38 5745.39,1262.84 5744.35,1264.95C5743.31,1267.06 5741.87,1268.69 5740.02,1269.87C5738.16,1271.04 5736.01,1271.62 5733.55,1271.62ZM5733.55,1267.86C5735.41,1267.86 5736.95,1267.38 5738.16,1266.42C5739.37,1265.46 5740.26,1264.2 5740.84,1262.64C5741.42,1261.08 5741.71,1259.38 5741.71,1257.56C5741.71,1255.74 5741.42,1254.04 5740.84,1252.46C5740.26,1250.89 5739.37,1249.62 5738.16,1248.65C5736.95,1247.68 5735.41,1247.19 5733.55,1247.19C5731.68,1247.19 5730.14,1247.68 5728.93,1248.65C5727.72,1249.62 5726.83,1250.89 5726.25,1252.46C5725.67,1254.04 5725.38,1255.74 5725.38,1257.56C5725.38,1259.38 5725.67,1261.08 5726.25,1262.64C5726.83,1264.2 5727.72,1265.46 5728.93,1266.42C5730.14,1267.38 5731.68,1267.86 5733.55,1267.86Z" style="fill:rgb(55,125,255);fill-rule:nonzero;"/>
            <path d="M5770.6,1243.78L5760.52,1271.06L5756.26,1271.06L5746.17,1243.78L5750.72,1243.78L5758.24,1265.52L5758.53,1265.52L5766.06,1243.78L5770.6,1243.78Z" style="fill:rgb(55,125,255);fill-rule:nonzero;"/>
        </g>
    </g>
</svg>
