<?xml version="1.0" encoding="UTF-8" standalone="no"?>
<!DOCTYPE svg PUBLIC "-//W3C//DTD SVG 1.1//EN" "http://www.w3.org/Graphics/SVG/1.1/DTD/svg11.dtd">
<svg width="100%" height="100%" viewBox="0 0 802 568" version="1.1" xmlns="http://www.w3.org/2000/svg" xmlns:xlink="http://www.w3.org/1999/xlink" xml:space="preserve" xmlns:serif="http://www.serif.com/" style="fill-rule:evenodd;clip-rule:evenodd;stroke-linejoin:round;stroke-miterlimit:2;">
    <g transform="matrix(0.870483,0,0,0.870483,96.3318,92.3123)">
        <g transform="matrix(1.02058,0,0,1.02058,-12.6672,-7.93936)">
            <path d="M249.2,28C224.477,28 204.399,48.078 204.399,72.801L204.399,487.201C204.399,511.924 224.477,532.002 249.2,532.002L450.8,532.002C475.523,532.002 495.601,511.924 495.601,487.201L495.601,72.801C495.601,48.078 475.523,28 450.8,28L249.2,28ZM249.2,39.199L450.8,39.199C469.511,39.199 484.402,54.09 484.402,72.801L484.402,84L215.602,84L215.602,72.801C215.602,54.09 230.489,39.199 249.204,39.199L249.2,39.199ZM215.598,95.199L484.398,95.199L484.398,442.399L215.598,442.399L215.598,95.199ZM237.996,134.398C235.062,134.398 232.394,137.066 232.394,140L232.394,196C232.394,198.933 235.062,201.597 237.996,201.601L293.996,201.601C296.93,201.601 299.598,198.933 299.598,196L299.598,140C299.598,137.066 296.93,134.402 293.996,134.398L237.996,134.398ZM321.996,134.398C319.062,134.398 316.394,137.066 316.394,140L316.394,196C316.394,198.933 319.062,201.597 321.996,201.601L377.996,201.601C380.93,201.601 383.598,198.933 383.598,196L383.598,140C383.598,137.066 380.93,134.402 377.996,134.398L321.996,134.398ZM405.996,134.398C403.062,134.398 400.394,137.066 400.394,140L400.394,196C400.394,198.933 403.062,201.597 405.996,201.601L461.996,201.601C464.93,201.601 467.598,198.933 467.598,196L467.598,140C467.598,137.066 464.93,134.402 461.996,134.398L405.996,134.398ZM243.596,145.597L288.397,145.597L288.397,190.398L243.596,190.398L243.596,145.597ZM327.596,145.597L372.397,145.597L372.397,190.398L327.596,190.398L327.596,145.597ZM411.596,145.597L456.397,145.597L456.397,190.398L411.596,190.398L411.596,145.597ZM237.996,218.398C235.062,218.398 232.394,221.066 232.394,224L232.394,280C232.394,282.933 235.062,285.597 237.996,285.601L293.996,285.601C296.93,285.601 299.598,282.933 299.598,280L299.598,224C299.598,221.066 296.93,218.402 293.996,218.398L237.996,218.398ZM321.996,218.398C319.062,218.398 316.394,221.066 316.394,224L316.394,280C316.394,282.933 319.062,285.597 321.996,285.601L377.996,285.601C380.93,285.601 383.598,282.933 383.598,280L383.598,224C383.598,221.066 380.93,218.402 377.996,218.398L321.996,218.398ZM405.996,218.398C403.062,218.398 400.394,221.066 400.394,224L400.394,280C400.394,282.933 403.062,285.597 405.996,285.601L461.996,285.601C464.93,285.601 467.598,282.933 467.598,280L467.598,224C467.598,221.066 464.93,218.402 461.996,218.398L405.996,218.398ZM243.596,229.597L288.397,229.597L288.397,274.398L243.596,274.398L243.596,229.597ZM327.596,229.597L372.397,229.597L372.397,274.398L327.596,274.398L327.596,229.597ZM411.596,229.597L456.397,229.597L456.397,274.398L411.596,274.398L411.596,229.597ZM237.996,302.398C235.062,302.398 232.394,305.066 232.394,308L232.394,364C232.394,366.933 235.062,369.597 237.996,369.601L293.996,369.601C296.93,369.601 299.598,366.933 299.598,364L299.598,308C299.598,305.066 296.93,302.402 293.996,302.398L237.996,302.398ZM321.996,302.398C319.062,302.398 316.394,305.066 316.394,308L316.394,364C316.394,366.933 319.062,369.597 321.996,369.601L377.996,369.601C380.93,369.601 383.598,366.933 383.598,364L383.598,308C383.598,305.066 380.93,302.402 377.996,302.398L321.996,302.398ZM405.996,302.398C403.062,302.398 400.394,305.066 400.394,308L400.394,364C400.394,366.933 403.062,369.597 405.996,369.601L461.996,369.601C464.93,369.601 467.598,366.933 467.598,364L467.598,308C467.598,305.066 464.93,302.402 461.996,302.398L405.996,302.398ZM243.596,313.597L288.397,313.597L288.397,358.398L243.596,358.398L243.596,313.597ZM327.596,313.597L372.397,313.597L372.397,358.398L327.596,358.398L327.596,313.597ZM411.596,313.597L456.397,313.597L456.397,358.398L411.596,358.398L411.596,313.597ZM215.596,453.597L484.396,453.597L484.396,487.199C484.396,505.91 469.509,520.801 450.794,520.801L249.194,520.801C230.483,520.801 215.592,505.91 215.592,487.199L215.596,453.597ZM349.996,470.398C340.719,470.398 333.195,477.921 333.195,487.199C333.195,496.476 340.718,504 349.996,504C359.274,504 366.797,496.481 366.797,487.199C366.797,477.922 359.274,470.398 349.996,470.398Z" style="fill:rgb(33,50,91);fill-rule:nonzero;"/>
        </g>
        <path d="M131.25,405.78C116.172,405.78 103.906,393.514 103.906,378.436C103.906,363.358 116.172,351.092 131.25,351.092C146.328,351.092 158.594,363.358 158.594,378.436C158.594,393.514 146.328,405.78 131.25,405.78ZM131.25,362.03C122.203,362.03 114.844,369.389 114.844,378.436C114.844,387.483 122.203,394.842 131.25,394.842C140.297,394.842 147.656,387.483 147.656,378.436C147.656,369.389 140.297,362.03 131.25,362.03Z" style="fill:rgb(33,50,91);fill-rule:nonzero;"/>
        <path d="M563.28,219.84C545.186,219.84 530.468,205.121 530.468,187.028C530.468,168.935 545.187,154.216 563.28,154.216C581.373,154.216 596.092,168.935 596.092,187.028C596.092,205.121 581.373,219.84 563.28,219.84ZM563.28,165.152C551.218,165.152 541.405,174.964 541.405,187.027C541.405,199.089 551.218,208.902 563.28,208.902C575.343,208.902 585.155,199.089 585.155,187.027C585.155,174.964 575.343,165.152 563.28,165.152Z" style="fill:rgb(33,50,91);fill-rule:nonzero;"/>
        <path d="M120.31,105C126.349,105 131.248,109.898 131.248,115.938C131.248,121.978 126.35,126.876 120.31,126.876C114.27,126.876 109.372,121.978 109.372,115.938C109.372,109.898 114.27,105 120.31,105Z" style="fill:rgb(33,50,91);fill-rule:nonzero;"/>
        <path d="M153.12,269.06C159.159,269.06 164.058,273.958 164.058,279.998C164.058,286.038 159.16,290.936 153.12,290.936C147.08,290.936 142.182,286.038 142.182,279.998C142.182,273.958 147.08,269.06 153.12,269.06Z" style="fill:rgb(33,50,91);fill-rule:nonzero;"/>
        <path d="M557.81,50.312C563.849,50.312 568.748,55.21 568.748,61.25C568.748,67.29 563.85,72.188 557.81,72.188C551.77,72.188 546.872,67.29 546.872,61.25C546.872,55.21 551.77,50.312 557.81,50.312Z" style="fill:rgb(33,50,91);fill-rule:nonzero;"/>
        <path d="M546.88,280C552.919,280 557.818,284.898 557.818,290.938C557.818,296.978 552.92,301.876 546.88,301.876C540.84,301.876 535.942,296.978 535.942,290.938C535.942,284.898 540.84,280 546.88,280Z" style="fill:rgb(33,50,91);fill-rule:nonzero;"/>
        <path d="M535.94,465.94C541.979,465.94 546.878,470.838 546.878,476.878C546.878,482.918 541.98,487.816 535.94,487.816C529.9,487.816 525.002,482.918 525.002,476.878C525.002,470.838 529.9,465.94 535.94,465.94Z" style="fill:rgb(33,50,91);fill-rule:nonzero;"/>
        <path d="M153.12,455C159.159,455 164.058,459.898 164.058,465.938C164.058,471.978 159.16,476.876 153.12,476.876C147.08,476.876 142.182,471.978 142.182,465.938C142.182,459.898 147.08,455 153.12,455Z" style="fill:rgb(33,50,91);fill-rule:nonzero;"/>
    </g>
</svg>
