<?xml version="1.0" encoding="UTF-8" standalone="no"?>
<!DOCTYPE svg PUBLIC "-//W3C//DTD SVG 1.1//EN" "http://www.w3.org/Graphics/SVG/1.1/DTD/svg11.dtd">
<svg width="100%" height="100%" viewBox="0 0 422 422" version="1.1" xmlns="http://www.w3.org/2000/svg" xmlns:xlink="http://www.w3.org/1999/xlink" xml:space="preserve" xmlns:serif="http://www.serif.com/" style="fill-rule:evenodd;clip-rule:evenodd;stroke-linejoin:round;stroke-miterlimit:1.41421;">
    <path d="M421.701,177.162C421.701,237.431 383.73,293.978 322.272,325.748C276.882,416.813 173.158,419.489 161.295,419.489L161.288,419.489L159.637,419.462C153.759,419.289 148.676,415.303 147.087,409.648C145.504,403.999 147.741,397.97 152.655,394.751C171.976,382.123 187.412,367.742 198.777,351.84C88.112,346.63 0,270.273 0,177.165C0,80.691 94.583,2.211 210.851,2.211C327.115,2.217 421.701,80.691 421.701,177.162ZM394.782,177.162C394.782,95.545 312.264,29.122 210.857,29.122C109.431,29.122 26.922,95.544 26.922,177.162C26.922,258.793 109.436,325.212 210.857,325.212C214.49,325.212 218.107,325.104 221.703,324.928C221.913,324.917 222.132,324.917 222.349,324.917C226.835,324.917 231.061,327.162 233.55,330.926C236.182,334.865 236.528,339.9 234.488,344.178C227.263,359.292 217.43,373.366 205.089,386.293C236.959,377.743 277.906,357.573 299.932,310.12C301.229,307.329 303.456,305.064 306.215,303.701C361.67,276.53 394.782,229.212 394.782,177.162Z" style="fill:rgb(55,125,255);fill-rule:nonzero;"/>
    <g transform="matrix(1.05664,0,0,1.05664,104.643,101.965)">
        <circle cx="97.907" cy="70.697" r="120.036" style="fill:rgb(188,211,255);"/>
    </g>
    <g transform="matrix(20.0439,0,0,20.0439,92.6147,251.016)">
        <text x="0px" y="0px" style="font-family:'Apercu-Regular', 'Apercu';font-size:12px;fill:rgb(55,125,255);">@</text>
    </g>
</svg>
