<?xml version="1.0" encoding="UTF-8" standalone="no"?>
<!DOCTYPE svg PUBLIC "-//W3C//DTD SVG 1.1//EN" "http://www.w3.org/Graphics/SVG/1.1/DTD/svg11.dtd">
<svg width="100%" height="100%" viewBox="0 0 512 512" version="1.1" xmlns="http://www.w3.org/2000/svg" xmlns:xlink="http://www.w3.org/1999/xlink" xml:space="preserve" xmlns:serif="http://www.serif.com/" style="fill-rule:evenodd;clip-rule:evenodd;stroke-linejoin:round;stroke-miterlimit:1.41421;">
    <g id="_073---Government-Advice" serif:id="073---Government-Advice">
        <path id="Shape" d="M51.2,358.4C46.487,358.4 42.667,362.221 42.667,366.933L42.667,384C42.667,388.713 46.487,392.533 51.2,392.533C55.913,392.533 59.733,388.713 59.733,384L59.733,366.933C59.733,362.221 55.913,358.4 51.2,358.4Z" style="fill:rgb(189,197,209);fill-rule:nonzero;"/>
        <path id="Shape1" serif:id="Shape" d="M85.333,358.4C80.621,358.4 76.8,362.221 76.8,366.933L76.8,384C76.8,388.713 80.621,392.533 85.333,392.533C90.046,392.533 93.867,388.713 93.867,384L93.867,366.933C93.867,362.221 90.046,358.4 85.333,358.4Z" style="fill:rgb(189,197,209);fill-rule:nonzero;"/>
        <path id="Shape2" serif:id="Shape" d="M51.2,409.6C46.487,409.6 42.667,413.421 42.667,418.133L42.667,435.2C42.667,439.913 46.487,443.733 51.2,443.733C55.913,443.733 59.733,439.913 59.733,435.2L59.733,418.133C59.733,413.421 55.913,409.6 51.2,409.6Z" style="fill:rgb(189,197,209);fill-rule:nonzero;"/>
        <path id="Shape3" serif:id="Shape" d="M85.333,409.6C80.621,409.6 76.8,413.421 76.8,418.133L76.8,435.2C76.8,439.913 80.621,443.733 85.333,443.733C90.046,443.733 93.867,439.913 93.867,435.2L93.867,418.133C93.867,413.421 90.046,409.6 85.333,409.6Z" style="fill:rgb(189,197,209);fill-rule:nonzero;"/>
        <path id="Shape4" serif:id="Shape" d="M426.667,392.533C431.379,392.533 435.2,388.713 435.2,384L435.2,366.933C435.2,362.221 431.379,358.4 426.667,358.4C421.954,358.4 418.133,362.221 418.133,366.933L418.133,384C418.133,388.713 421.954,392.533 426.667,392.533Z" style="fill:rgb(189,197,209);fill-rule:nonzero;"/>
        <path id="Shape5" serif:id="Shape" d="M460.8,392.533C465.513,392.533 469.333,388.713 469.333,384L469.333,366.933C469.333,362.221 465.513,358.4 460.8,358.4C456.087,358.4 452.267,362.221 452.267,366.933L452.267,384C452.267,388.713 456.087,392.533 460.8,392.533Z" style="fill:rgb(189,197,209);fill-rule:nonzero;"/>
        <path id="Shape6" serif:id="Shape" d="M426.667,443.733C431.379,443.733 435.2,439.913 435.2,435.2L435.2,418.133C435.2,413.421 431.379,409.6 426.667,409.6C421.954,409.6 418.133,413.421 418.133,418.133L418.133,435.2C418.133,439.913 421.954,443.733 426.667,443.733Z" style="fill:rgb(189,197,209);fill-rule:nonzero;"/>
        <path id="Shape7" serif:id="Shape" d="M460.8,443.733C465.513,443.733 469.333,439.913 469.333,435.2L469.333,418.133C469.333,413.421 465.513,409.6 460.8,409.6C456.087,409.6 452.267,413.421 452.267,418.133L452.267,435.2C452.267,439.913 456.087,443.733 460.8,443.733Z" style="fill:rgb(189,197,209);fill-rule:nonzero;"/>
        <path id="Shape8" serif:id="Shape" d="M503.467,463.172L503.467,332.8C503.467,323.374 495.826,315.733 486.4,315.733L392.533,315.733L392.533,307.2C392.533,293.062 381.072,281.6 366.933,281.6L358.042,281.6C353.8,231.828 314.307,192.357 264.533,188.143L264.533,110.933C264.533,106.221 260.713,102.4 256,102.4C251.287,102.4 247.467,106.221 247.467,110.933L247.467,113.553L196.267,132.727C191.121,134.654 187.71,139.572 187.71,145.067C187.71,150.562 191.121,155.479 196.267,157.406L247.467,176.58L247.467,188.143C197.693,192.357 158.2,231.828 153.958,281.6L145.067,281.6C130.928,281.6 119.467,293.062 119.467,307.2L119.467,315.733L25.6,315.733C16.174,315.733 8.533,323.374 8.533,332.8L8.533,463.172C3.27,466.197 0.018,471.797 0,477.867L0,494.933C0,504.359 7.641,512 17.067,512L494.933,512C504.359,512 512,504.359 512,494.933L512,477.867C511.982,471.797 508.73,466.197 503.467,463.172ZM486.4,460.8L401.067,460.8L401.067,375.808C401.065,367.462 396.995,359.641 390.161,354.85L358.707,332.8L486.4,332.8L486.4,460.8ZM358.4,460.8L358.4,392.533C358.4,378.395 346.938,366.933 332.8,366.933C318.662,366.933 307.2,378.395 307.2,392.533L307.2,460.8L281.6,460.8L281.6,375.467C281.6,361.328 270.138,349.867 256,349.867C241.862,349.867 230.4,361.328 230.4,375.467L230.4,460.8L204.8,460.8L204.8,392.533C204.8,378.395 193.338,366.933 179.2,366.933C165.062,366.933 153.6,378.395 153.6,392.533L153.6,460.8L128,460.8L128,375.808C128,373.025 129.356,370.417 131.635,368.819L255.932,281.6L380.356,368.819C382.638,370.415 383.998,373.023 384,375.808L384,460.8L358.4,460.8ZM341.333,460.8L324.267,460.8L324.267,392.533C324.267,387.821 328.087,384 332.8,384C337.513,384 341.333,387.821 341.333,392.533L341.333,460.8ZM264.533,460.8L247.467,460.8L247.467,375.467C247.467,370.754 251.287,366.933 256,366.933C260.713,366.933 264.533,370.754 264.533,375.467L264.533,460.8ZM187.733,460.8L170.667,460.8L170.667,392.533C170.667,387.821 174.487,384 179.2,384C183.913,384 187.733,387.821 187.733,392.533L187.733,460.8ZM212.002,145.067L247.467,131.78L247.467,158.353L212.002,145.067ZM136.533,307.2C136.533,302.487 140.354,298.667 145.067,298.667L179.2,298.667C183.913,298.667 187.733,294.846 187.733,290.133C187.733,285.421 183.913,281.6 179.2,281.6L171.102,281.6C175.479,237.991 212.181,204.789 256.009,204.789C299.836,204.789 336.538,237.991 340.915,281.6L332.8,281.6C328.087,281.6 324.267,285.421 324.267,290.133C324.267,294.846 328.087,298.667 332.8,298.667L366.933,298.667C371.646,298.667 375.467,302.487 375.467,307.2L375.467,315.733L334.37,315.733L265.737,267.614C259.882,263.547 252.118,263.547 246.263,267.614L177.63,315.733L136.533,315.733L136.533,307.2ZM25.6,332.8L153.284,332.8L121.83,354.85C115.006,359.648 110.942,367.466 110.933,375.808L110.933,460.8L25.6,460.8L25.6,332.8ZM17.067,494.933L17.067,477.867L494.933,477.867L494.933,494.933L17.067,494.933Z" style="fill:rgb(55,125,255);fill-rule:nonzero;"/>
        <path id="Shape9" serif:id="Shape" d="M486.4,0L315.733,0C301.595,0 290.133,11.462 290.133,25.6L290.133,145.067C290.133,159.205 301.595,170.667 315.733,170.667L341.333,170.667L341.333,197.547C341.299,203.716 344.901,209.327 350.524,211.866C356.14,214.492 362.776,213.563 367.454,209.493L412.757,170.667L486.4,170.667C500.538,170.667 512,159.205 512,145.067L512,25.6C512,11.462 500.538,0 486.4,0ZM494.933,145.067C494.933,149.779 491.113,153.6 486.4,153.6L392.533,153.6C387.821,153.6 384,157.421 384,162.133C384.033,165.077 385.607,167.788 388.147,169.276L358.4,194.765L358.4,170.667C363.113,170.667 366.933,166.846 366.933,162.133C366.933,157.421 363.113,153.6 358.4,153.6L315.733,153.6C311.021,153.6 307.2,149.779 307.2,145.067L307.2,25.6C307.2,20.887 311.021,17.067 315.733,17.067L486.4,17.067C491.113,17.067 494.933,20.887 494.933,25.6L494.933,145.067Z" style="fill:rgb(189,197,209);fill-rule:nonzero;"/>
        <path id="Shape10" serif:id="Shape" d="M469.333,42.667L332.8,42.667C328.087,42.667 324.267,46.487 324.267,51.2C324.267,55.913 328.087,59.733 332.8,59.733L469.333,59.733C474.046,59.733 477.867,55.913 477.867,51.2C477.867,46.487 474.046,42.667 469.333,42.667Z" style="fill:rgb(189,197,209);fill-rule:nonzero;"/>
        <path id="Shape11" serif:id="Shape" d="M469.333,76.8L375.467,76.8C370.754,76.8 366.933,80.621 366.933,85.333C366.933,90.046 370.754,93.867 375.467,93.867L469.333,93.867C474.046,93.867 477.867,90.046 477.867,85.333C477.867,80.621 474.046,76.8 469.333,76.8Z" style="fill:rgb(189,197,209);fill-rule:nonzero;"/>
        <path id="Shape12" serif:id="Shape" d="M332.8,93.867L341.333,93.867C346.046,93.867 349.867,90.046 349.867,85.333C349.867,80.621 346.046,76.8 341.333,76.8L332.8,76.8C328.087,76.8 324.267,80.621 324.267,85.333C324.267,90.046 328.087,93.867 332.8,93.867Z" style="fill:rgb(189,197,209);fill-rule:nonzero;"/>
        <path id="Shape13" serif:id="Shape" d="M418.133,110.933L332.8,110.933C328.087,110.933 324.267,114.754 324.267,119.467C324.267,124.179 328.087,128 332.8,128L418.133,128C422.846,128 426.667,124.179 426.667,119.467C426.667,114.754 422.846,110.933 418.133,110.933Z" style="fill:rgb(189,197,209);fill-rule:nonzero;"/>
    </g>
</svg>
