<?xml version="1.0" encoding="UTF-8" standalone="no"?>
<!DOCTYPE svg PUBLIC "-//W3C//DTD SVG 1.1//EN" "http://www.w3.org/Graphics/SVG/1.1/DTD/svg11.dtd">
<svg width="100%" height="100%" viewBox="0 0 512 512" version="1.1" xmlns="http://www.w3.org/2000/svg" xmlns:xlink="http://www.w3.org/1999/xlink" xml:space="preserve" xmlns:serif="http://www.serif.com/" style="fill-rule:evenodd;clip-rule:evenodd;stroke-linejoin:round;stroke-miterlimit:1.41421;">
    <path d="M501.333,213.333L501.333,298.666C501.333,304.557 496.557,309.333 490.666,309.333L440.32,309.333C436.427,323.026 430.988,336.231 424.107,348.693L459.627,384.213C463.763,388.373 463.763,395.093 459.627,399.253L399.36,459.626C395.168,463.786 388.405,463.786 384.213,459.626L348.693,424.106C336.231,430.987 323.026,436.426 309.333,440.319L309.333,490.666C309.333,496.557 304.557,501.333 298.666,501.333L213.333,501.333C207.442,501.333 202.666,496.557 202.666,490.666L202.666,440.32C188.973,436.427 175.768,430.988 163.306,424.107L127.786,459.627C123.594,463.787 116.831,463.787 112.639,459.627L52.372,399.254C48.236,395.094 48.236,388.374 52.372,384.214L87.892,348.694C81.011,336.232 75.572,323.027 71.679,309.334L21.333,309.334C15.442,309.334 10.666,304.558 10.666,298.667L10.666,213.334C10.666,207.443 15.442,202.667 21.333,202.667L71.68,202.667C75.573,188.974 81.012,175.769 87.893,163.307L52.373,127.787C48.213,123.595 48.213,116.832 52.373,112.64L112.64,52.373C116.832,48.213 123.595,48.213 127.787,52.373L163.307,87.893C175.769,81.012 188.974,75.573 202.667,71.68L202.667,21.333C202.667,15.442 207.443,10.666 213.334,10.666L298.667,10.666C304.558,10.666 309.334,15.442 309.334,21.333L309.334,71.68C323.027,75.573 336.232,81.012 348.694,87.893L384.214,52.373C388.406,48.213 395.169,48.213 399.361,52.373L459.628,112.64C463.788,116.832 463.788,123.595 459.628,127.787L424.108,163.307C430.989,175.769 436.428,188.974 440.321,202.667L490.668,202.667C496.558,202.667 501.333,207.442 501.333,213.333Z" style="fill:white;fill-rule:nonzero;"/>
    <g>
        <path d="M501.333,458.667L501.333,512L288,512L288,458.667C288,458.667 288,437.334 320,426.667C338.215,420.703 356.03,413.577 373.333,405.334L373.333,390.934C347.769,381.926 330.669,357.772 330.666,330.667L330.666,298.667C330.666,263.321 359.32,234.667 394.666,234.667C430.012,234.667 458.666,263.321 458.666,298.667L458.666,330.667C458.664,357.771 441.563,381.926 415.999,390.934L415.999,405.334C433.303,413.577 451.117,420.703 469.332,426.667C501.333,437.333 501.333,458.667 501.333,458.667Z" style="fill:rgb(55,125,255);fill-rule:nonzero;"/>
    </g>
    <g>
        <path d="M490.667,192L448.192,192C445.173,182.859 441.502,173.948 437.205,165.333L467.178,135.36C475.511,127.031 475.514,113.523 467.184,105.19C467.182,105.188 467.18,105.186 467.178,105.184L406.848,44.8C398.407,36.743 385.124,36.743 376.683,44.8L346.667,74.795C338.053,70.499 329.141,66.827 320,63.808L320,21.333C320,9.551 310.449,0 298.667,0L213.334,0C201.551,0 192,9.551 192,21.333L192,63.808C182.859,66.827 173.948,70.498 165.333,74.795L135.328,44.8C126.887,36.731 113.593,36.731 105.152,44.8L44.8,105.152C36.472,113.483 36.472,126.987 44.8,135.317L74.795,165.333C70.499,173.947 66.827,182.859 63.808,192L21.333,192C9.551,192 0,201.551 0,213.333L0,298.666C0,310.449 9.551,320 21.333,320L63.808,320C66.827,329.141 70.498,338.052 74.795,346.667L44.8,376.672C36.467,385.002 36.464,398.509 44.794,406.842L105.152,467.2C113.593,475.257 126.876,475.257 135.317,467.2L165.333,437.205C173.947,441.501 182.859,445.173 192,448.192L192,490.667C192,502.449 201.551,512 213.333,512L256,512L256,490.667L213.333,490.667L213.333,440.331C213.334,435.577 210.189,431.397 205.621,430.08C192.708,426.376 180.247,421.246 168.469,414.784C164.311,412.489 159.136,413.219 155.776,416.576L120.235,452.107L59.894,391.766L95.425,356.267C98.782,352.907 99.512,347.732 97.217,343.574C90.752,331.783 85.622,319.307 81.921,306.379C80.604,301.811 76.424,298.666 71.67,298.667L21.333,298.667L21.333,213.334L71.669,213.334C76.423,213.335 80.603,210.19 81.92,205.622C85.622,192.708 90.752,180.247 97.216,168.47C99.533,164.301 98.801,159.101 95.424,155.734L59.893,120.235L120.234,59.894L155.733,95.425C159.093,98.782 164.268,99.512 168.426,97.217C180.217,90.752 192.693,85.622 205.621,81.921C210.189,80.604 213.334,76.424 213.333,71.67L213.333,21.333L298.666,21.333L298.666,71.669C298.665,76.423 301.81,80.603 306.378,81.92C319.291,85.624 331.752,90.754 343.53,97.216C347.688,99.511 352.863,98.781 356.223,95.424L391.764,59.893L452.105,120.234L416.574,155.733C413.212,159.095 412.481,164.276 414.782,168.437C421.246,180.214 426.376,192.675 430.078,205.589C431.395,210.157 435.575,213.302 440.329,213.301L490.665,213.301L490.665,266.634L512,266.634L512,213.333C512,201.551 502.449,192 490.667,192Z" style="fill:rgb(189,197,209);fill-rule:nonzero;"/>
        <path d="M472.704,416.544C457.058,411.352 441.692,405.353 426.667,398.571L426.667,398.059C452.702,385.71 469.307,359.482 469.334,330.667L469.334,298.667C469.334,257.43 435.905,224 394.667,224C353.429,224 320,257.429 320,298.667L320,330.667C320.027,359.482 336.632,385.71 362.667,398.059L362.667,398.571C347.642,405.354 332.276,411.353 316.63,416.544C277.782,429.493 277.334,457.483 277.334,458.667L277.334,512L298.667,512L298.667,458.955C298.667,458.379 299.734,444.662 323.371,436.79C342.067,430.693 360.349,423.392 378.102,414.934C381.736,413.118 384.023,409.396 384.001,405.334L384.001,390.934C384,386.409 381.144,382.378 376.876,380.875C355.598,373.345 341.364,353.237 341.335,330.667L341.335,298.667C341.335,269.212 365.213,245.334 394.668,245.334C424.123,245.334 448,269.211 448,298.667L448,330.667C447.97,353.237 433.736,373.345 412.459,380.875C408.191,382.377 405.335,386.409 405.334,390.934L405.334,405.334C405.312,409.396 407.599,413.118 411.233,414.934C428.985,423.41 447.267,430.729 465.964,436.843C489.601,444.662 490.668,458.379 490.668,458.667L490.668,512L512,512L512,458.667C512,457.483 511.552,429.493 472.704,416.544Z" style="fill:rgb(55,125,255);fill-rule:nonzero;"/>
        <rect x="384" y="458.667" width="21.333" height="21.333" style="fill:white;fill-rule:nonzero;"/>
        <rect x="426.667" y="458.667" width="21.333" height="21.333" style="fill:white;fill-rule:nonzero;"/>
        <rect x="341.333" y="458.667" width="21.333" height="21.333" style="fill:white;fill-rule:nonzero;"/>
        <path d="M245.333,192L245.333,149.333C245.333,143.442 240.557,138.666 234.666,138.666L149.333,138.666C143.442,138.666 138.666,143.442 138.666,149.333L138.666,192C138.666,197.891 143.442,202.667 149.333,202.667L234.666,202.667C240.558,202.667 245.333,197.891 245.333,192ZM224,181.333L160,181.333L160,160L224,160L224,181.333Z" style="fill:rgb(55,125,255);fill-rule:nonzero;"/>
        <rect x="266.667" y="138.667" width="21.333" height="21.333" style="fill:rgb(55,125,255);fill-rule:nonzero;"/>
        <rect x="309.333" y="138.667" width="21.333" height="21.333" style="fill:rgb(55,125,255);fill-rule:nonzero;"/>
        <rect x="266.667" y="181.333" width="85.333" height="21.333" style="fill:rgb(55,125,255);fill-rule:nonzero;"/>
        <path d="M269.792,327.541L284.875,312.458L245.334,272.917L245.334,224L224,224L224,277.333C224.001,280.162 225.125,282.874 227.125,284.874L269.792,327.541Z" style="fill:rgb(55,125,255);fill-rule:nonzero;"/>
        <rect x="42.667" y="245.333" width="21.333" height="21.333" style="fill:rgb(55,125,255);fill-rule:nonzero;"/>
        <rect x="245.333" y="42.667" width="21.333" height="21.333" style="fill:rgb(55,125,255);fill-rule:nonzero;"/>
        <rect x="106.667" y="384" width="21.333" height="21.333" style="fill:rgb(55,125,255);fill-rule:nonzero;"/>
        <rect x="106.667" y="106.667" width="21.333" height="21.333" style="fill:rgb(55,125,255);fill-rule:nonzero;"/>
        <rect x="384" y="106.667" width="21.333" height="21.333" style="fill:rgb(55,125,255);fill-rule:nonzero;"/>
    </g>
</svg>
