<?xml version="1.0" encoding="UTF-8" standalone="no"?>
<!DOCTYPE svg PUBLIC "-//W3C//DTD SVG 1.1//EN" "http://www.w3.org/Graphics/SVG/1.1/DTD/svg11.dtd">
<svg width="100%" height="100%" viewBox="0 0 512 512" version="1.1" xmlns="http://www.w3.org/2000/svg" xmlns:xlink="http://www.w3.org/1999/xlink" xml:space="preserve" xmlns:serif="http://www.serif.com/" style="fill-rule:evenodd;clip-rule:evenodd;stroke-linejoin:round;stroke-miterlimit:1.41421;">
    <g>
        <path d="M442.421,240.498C442.421,240.498 428.313,277.362 396.91,269.17C396.91,269.17 367.783,258.702 360.046,243.228L302.702,237.767L296.331,226.844L310.894,215.922C310.894,215.922 350.944,156.757 343.662,118.983C343.662,118.983 363.232,71.196 375.52,71.196L377.34,50.716L383.712,38.428L403.282,32.967L416.48,37.063L421.031,50.716L424.672,63.915L436.05,76.658L448.793,94.862L456.075,133.092L466.087,171.776L479.285,196.807L501.586,220.928L499.31,234.581L442.421,240.498Z" style="fill:rgb(188,211,255);"/>
        <path d="M298.748,168.073C298.748,163.931 295.391,160.573 291.248,160.573L82.38,160.573C78.237,160.573 74.88,163.931 74.88,168.073C74.88,172.215 78.237,175.573 82.38,175.573L291.248,175.573C295.391,175.573 298.748,172.215 298.748,168.073Z" style="fill:rgb(55,125,255);fill-rule:nonzero;"/>
        <path d="M255.902,229.496L82.38,229.496C78.237,229.496 74.88,232.854 74.88,236.996C74.88,241.138 78.237,244.496 82.38,244.496L255.901,244.496C260.044,244.496 263.401,241.138 263.401,236.996C263.401,232.854 260.044,229.496 255.902,229.496Z" style="fill:rgb(55,125,255);fill-rule:nonzero;"/>
        <path d="M255.902,298.419L82.38,298.419C78.237,298.419 74.88,301.777 74.88,305.919C74.88,310.061 78.237,313.419 82.38,313.419L255.901,313.419C260.044,313.419 263.401,310.061 263.401,305.919C263.401,301.777 260.044,298.419 255.902,298.419Z" style="fill:rgb(55,125,255);fill-rule:nonzero;"/>
        <path d="M505.458,214.869C480.235,194.527 465.769,164.274 465.769,131.868L465.769,122.977C465.769,98.141 451.85,76.496 431.405,65.427L431.405,55.122C431.405,38.01 417.483,24.089 400.371,24.089C383.26,24.089 369.338,38.011 369.338,55.122L369.338,65.427C348.893,76.496 334.974,98.141 334.974,122.978L334.974,131.869C334.974,164.276 320.507,194.528 295.287,214.868C288.472,220.36 286.693,229.944 291.311,237.495C294.493,242.697 300.033,245.803 306.13,245.803L354.074,245.803C360.518,265.584 379.083,279.376 400.372,279.376C421.661,279.376 440.225,265.584 446.669,245.803L494.613,245.803C500.711,245.803 506.25,242.698 509.431,237.496C514.058,229.929 512.256,220.345 505.458,214.869ZM384.338,55.122C384.338,46.281 391.531,39.088 400.372,39.088C409.213,39.088 416.405,46.281 416.405,55.122L416.405,59.576C405.994,56.942 394.959,56.889 384.338,59.576L384.338,55.122ZM400.372,264.375C387.375,264.375 375.849,256.947 370.252,245.802L430.491,245.802C424.895,256.947 413.37,264.375 400.372,264.375ZM494.613,230.802C473.263,230.802 339.689,230.802 306.131,230.802C304.006,230.802 302.791,228.087 304.701,226.545C333.473,203.342 349.974,168.833 349.974,131.868L349.974,122.977C349.974,95.188 372.582,72.58 400.371,72.58C428.161,72.58 450.769,95.188 450.769,122.977L450.769,131.868C450.769,168.833 467.27,203.342 496.044,226.547C497.953,228.085 496.738,230.802 494.613,230.802Z" style="fill:rgb(55,125,255);fill-rule:nonzero;"/>
        <path d="M445.596,269.099C441.453,269.099 438.096,272.457 438.096,276.599L438.096,340.783C438.096,365.603 417.904,385.796 393.084,385.796L165.633,385.796C159.323,385.796 153.327,388.189 148.751,392.533L67.582,469.585L79.536,403.208C81.172,394.129 74.19,385.797 64.981,385.797L60.012,385.797C35.192,385.797 15,365.604 15,340.784L15,135.798C15,110.978 35.192,90.786 60.012,90.786L320.803,90.786C324.946,90.786 328.303,87.428 328.303,83.286C328.303,79.144 324.946,75.786 320.803,75.786L60.012,75.786C26.922,75.786 0,102.707 0,135.798L0,340.783C0,373.874 26.922,400.796 60.012,400.796L64.729,400.796L51.836,472.389C50.823,478.012 53.522,483.613 58.549,486.325C63.554,489.024 69.719,488.237 73.883,484.284L159.078,403.411C160.855,401.724 163.183,400.795 165.634,400.795L393.085,400.795C426.176,400.795 453.097,373.873 453.097,340.782L453.097,276.598C453.096,272.457 449.738,269.099 445.596,269.099Z" style="fill:rgb(55,125,255);fill-rule:nonzero;"/>
    </g>
</svg>
