<?xml version="1.0" encoding="UTF-8" standalone="no"?>
<!DOCTYPE svg PUBLIC "-//W3C//DTD SVG 1.1//EN" "http://www.w3.org/Graphics/SVG/1.1/DTD/svg11.dtd">
<svg width="100%" height="100%" viewBox="0 0 467 712" version="1.1" xmlns="http://www.w3.org/2000/svg" xmlns:xlink="http://www.w3.org/1999/xlink" xml:space="preserve" xmlns:serif="http://www.serif.com/" style="fill-rule:evenodd;clip-rule:evenodd;stroke-linecap:round;stroke-miterlimit:10;">
    <g>
        <path d="M64.5,583C100.1,583 129,611.9 129,647.5C129,683.1 100.1,712 64.5,712C28.9,712 0,683.1 0,647.5C0,611.9 28.9,583 64.5,583Z" style="fill:rgb(208,218,239);fill-rule:nonzero;"/>
        <path d="M338,428C409.2,428 467,485.8 467,557L338,557L338,428Z" style="fill:rgb(177,197,238);fill-rule:nonzero;"/>
        <path d="M5,114.5L115.3,4.3" style="fill:none;fill-rule:nonzero;stroke:rgb(57,211,159);stroke-width:4px;"/>
        <path d="M75.8,2.8L2.3,76.3" style="fill:none;fill-rule:nonzero;stroke:rgb(57,211,159);stroke-width:4px;"/>
        <path d="M3.1,34.6L35.4,2.4" style="fill:none;fill-rule:nonzero;stroke:rgb(57,211,159);stroke-width:4px;"/>
        <path d="M3.6,53.1L53.9,2.9" style="fill:none;fill-rule:nonzero;stroke:rgb(57,211,159);stroke-width:4px;"/>
        <path d="M45.2,115.2L116.2,44.2" style="fill:none;fill-rule:nonzero;stroke:rgb(57,211,159);stroke-width:4px;"/>
        <path d="M21.2,118.2L117.2,22.2" style="fill:none;fill-rule:nonzero;stroke:rgb(57,211,159);stroke-width:4px;"/>
        <path d="M2.2,96.2L96.2,2.2" style="fill:none;fill-rule:nonzero;stroke:rgb(57,211,159);stroke-width:4px;"/>
        <path d="M84.4,116.9L117.6,83.6" style="fill:none;fill-rule:nonzero;stroke:rgb(57,211,159);stroke-width:4px;"/>
        <path d="M66.9,116.4L117.1,66.1" style="fill:none;fill-rule:nonzero;stroke:rgb(57,211,159);stroke-width:4px;"/>
    </g>
</svg>
