<?xml version="1.0" encoding="UTF-8" standalone="no"?>
<!DOCTYPE svg PUBLIC "-//W3C//DTD SVG 1.1//EN" "http://www.w3.org/Graphics/SVG/1.1/DTD/svg11.dtd">
<svg width="100%" height="100%" viewBox="0 0 937 937" version="1.1" xmlns="http://www.w3.org/2000/svg" xmlns:xlink="http://www.w3.org/1999/xlink" xml:space="preserve" xmlns:serif="http://www.serif.com/" style="fill-rule:evenodd;clip-rule:evenodd;stroke-linecap:round;stroke-linejoin:round;stroke-miterlimit:1.5;">
    <g id="surface1">
        <path d="M139.328,762.496L67.144,763.884L25.499,744.45L18.559,709.746L18.559,72.586L43.545,50.376L124.058,43.435L768.159,46.212L801.474,83.692L795.922,166.98L171.255,172.533L150.433,193.355L142.104,230.835L139.328,762.496Z" style="fill:rgb(188,211,255);"/>
        <path d="M576.107,794.72L577.495,823.871L498.371,825.259L489.598,796.997L472.718,771.233L439.846,765.014L398.091,782.782L334.125,724.147L359.889,698.383L359.889,668.177L343.009,644.189L292.37,638.859L293.258,550.017L352.782,544.687L365.22,498.489L335.013,456.29L396.314,396.766L437.181,424.307L482.49,413.646L489.598,357.676L575.774,360.341L580.216,407.427L627.302,426.972L668.169,400.32L724.139,450.071L697.487,495.38L703.706,532.693L765.895,550.462L758.787,633.973L715.255,647.299L694.821,682.835L725.916,726.368L662.838,790.334L624.637,755.685L576.107,794.72Z" style="fill:rgb(188,211,255);stroke:black;stroke-width:0.75px;"/>
        <g transform="matrix(1,0,0,1,-13,0)">
            <circle cx="543.167" cy="593.433" r="83.94" style="fill:white;"/>
        </g>
        <path d="M62.467,781.083L93.7,781.083L93.7,749.85L62.467,749.85C45.214,749.85 31.233,735.869 31.233,718.617L31.233,93.95C31.233,76.697 45.214,62.717 62.467,62.717L749.6,62.717C766.853,62.717 780.833,76.697 780.833,93.95L780.833,125.183L812.067,125.183L812.067,93.95C812.067,59.453 784.097,31.483 749.6,31.483L62.467,31.483C27.969,31.483 0,59.453 0,93.95L0,718.617C0,753.114 27.969,781.083 62.467,781.083Z" style="fill:rgb(55,125,255);fill-rule:nonzero;"/>
        <rect x="62.467" y="93.95" width="31.233" height="31.233" style="fill:rgb(55,125,255);fill-rule:nonzero;"/>
        <rect x="124.933" y="93.95" width="31.233" height="31.233" style="fill:rgb(55,125,255);fill-rule:nonzero;"/>
        <rect x="187.4" y="93.95" width="31.233" height="31.233" style="fill:rgb(55,125,255);fill-rule:nonzero;"/>
        <path d="M124.933,843.55C124.933,878.047 152.903,906.017 187.4,906.017L874.533,906.017C909.031,906.017 937,878.047 937,843.55L937,218.883C937,184.386 909.031,156.417 874.533,156.417L187.4,156.417C152.903,156.417 124.933,184.386 124.933,218.883L124.933,843.55ZM156.167,218.883C156.167,201.631 170.147,187.65 187.4,187.65L874.533,187.65C891.786,187.65 905.767,201.631 905.767,218.883L905.767,843.55C905.767,860.802 891.786,874.783 874.533,874.783L187.4,874.783C170.147,874.783 156.167,860.802 156.167,843.55L156.167,218.883Z" style="fill:rgb(55,125,255);fill-rule:nonzero;"/>
        <rect x="187.4" y="218.883" width="31.233" height="31.233" style="fill:rgb(55,125,255);fill-rule:nonzero;"/>
        <rect x="249.867" y="218.883" width="31.233" height="31.233" style="fill:rgb(55,125,255);fill-rule:nonzero;"/>
        <rect x="312.333" y="218.883" width="31.233" height="31.233" style="fill:rgb(55,125,255);fill-rule:nonzero;"/>
        <rect x="187.4" y="281.35" width="687.133" height="31.233" style="fill:rgb(55,125,255);fill-rule:nonzero;"/>
        <rect x="187.4" y="359.433" width="124.933" height="31.233" style="fill:rgb(55,125,255);fill-rule:nonzero;"/>
        <rect x="187.4" y="421.9" width="93.7" height="31.233" style="fill:rgb(55,125,255);fill-rule:nonzero;"/>
        <path d="M530.967,484.367C470.589,484.367 421.65,533.305 421.65,593.683C421.65,654.061 470.589,703 530.967,703C591.345,703 640.283,654.061 640.283,593.683C640.213,533.34 591.309,484.437 530.967,484.367ZM530.967,671.767C487.845,671.767 452.883,636.805 452.883,593.683C452.883,550.562 487.845,515.6 530.967,515.6C574.088,515.6 609.05,550.562 609.05,593.683C608.995,636.785 574.069,671.712 530.967,671.767Z" style="fill:rgb(55,125,255);fill-rule:nonzero;"/>
        <path d="M780.833,546.833C780.833,538.205 773.845,531.217 765.217,531.217L723.942,531.217C720.635,520.956 716.512,510.973 711.589,501.389L740.777,472.221C746.867,466.118 746.867,456.237 740.777,450.135L674.515,383.873C668.413,377.783 658.531,377.783 652.429,383.873L623.261,413.045C613.661,408.142 603.686,404.019 593.433,400.708L593.433,359.433C593.433,350.805 586.445,343.817 577.817,343.817L484.117,343.817C475.488,343.817 468.5,350.805 468.5,359.433L468.5,400.708C458.248,404.019 448.273,408.142 438.672,413.045L409.504,383.873C403.402,377.783 393.52,377.783 387.418,383.873L321.157,450.135C315.066,456.237 315.066,466.118 321.157,472.221L350.329,501.389C349.025,503.946 347.768,506.511 346.581,509.103C343.286,516.303 340.42,523.681 337.992,531.217L296.717,531.217C288.088,531.217 281.1,538.205 281.1,546.833L281.1,640.533C281.1,649.161 288.088,656.15 296.717,656.15L337.992,656.15C341.298,666.41 345.421,676.393 350.344,685.978L321.157,715.146C315.066,721.248 315.066,731.129 321.157,737.232L387.418,803.493C393.52,809.584 403.402,809.584 409.504,803.493L438.672,774.321C448.273,779.225 458.248,783.348 468.5,786.658L468.5,827.933C468.5,836.561 475.488,843.55 484.117,843.55L577.817,843.55C586.445,843.55 593.433,836.561 593.433,827.933L593.433,786.658C603.686,783.348 613.661,779.225 623.261,774.321L652.429,803.493C658.531,809.584 668.413,809.584 674.515,803.493L740.777,737.232C746.867,731.129 746.867,721.248 740.777,715.146L711.589,685.978C716.512,676.393 720.635,666.41 723.942,656.15L765.217,656.15C773.845,656.15 780.833,649.161 780.833,640.533L780.833,546.833ZM749.6,624.917L712.214,624.917C705.093,624.917 698.877,629.738 697.097,636.629C693.107,652.129 686.958,667.003 678.825,680.793C675.206,686.923 676.202,694.731 681.23,699.767L707.634,726.187L663.47,770.37L637.051,743.947C632.01,738.91 624.202,737.919 618.069,741.542C604.279,749.674 589.412,755.827 573.913,759.813C567.022,761.594 562.2,767.809 562.2,774.93L562.2,812.317L499.733,812.317L499.733,774.93C499.733,767.809 494.912,761.594 488.021,759.813C472.521,755.827 457.654,749.674 443.865,741.542C437.731,737.919 429.923,738.91 424.883,743.947L398.463,770.37L354.299,726.187L380.703,699.767C385.732,694.731 386.727,686.923 383.108,680.793C374.976,667.003 368.827,652.129 364.837,636.629C363.056,629.738 356.841,624.917 349.72,624.917L312.333,624.917L312.333,562.45L349.72,562.45C356.841,562.45 363.056,557.628 364.837,550.737C367.359,540.907 370.759,531.334 374.991,522.116C377.431,516.771 380.141,511.559 383.108,506.499C386.716,500.366 385.728,492.569 380.703,487.537L354.299,461.117L398.463,416.934L424.883,443.365C429.923,448.401 437.731,449.385 443.865,445.758C457.654,437.634 472.521,431.473 488.021,427.487C494.912,425.71 499.733,419.487 499.733,412.378L499.733,375.05L562.2,375.05L562.2,412.436C562.2,419.557 567.022,425.773 573.913,427.553C589.412,431.539 604.279,437.692 618.069,445.825C624.202,449.448 632.01,448.456 637.051,443.42L663.47,416.996L707.634,461.18L681.23,487.599C676.202,492.636 675.206,500.444 678.825,506.573C686.958,520.363 693.107,535.238 697.097,550.737C698.877,557.628 705.093,562.45 712.214,562.45L749.6,562.45L749.6,624.917Z" style="fill:rgb(55,125,255);fill-rule:nonzero;"/>
        <rect x="780.833" y="812.317" width="93.7" height="31.233" style="fill:rgb(55,125,255);fill-rule:nonzero;"/>
    </g>
</svg>
