<?xml version="1.0" encoding="UTF-8" standalone="no"?>
<!DOCTYPE svg PUBLIC "-//W3C//DTD SVG 1.1//EN" "http://www.w3.org/Graphics/SVG/1.1/DTD/svg11.dtd">
<svg width="100%" height="100%" viewBox="0 0 512 512" version="1.1" xmlns="http://www.w3.org/2000/svg" xmlns:xlink="http://www.w3.org/1999/xlink" xml:space="preserve" xmlns:serif="http://www.serif.com/" style="fill-rule:evenodd;clip-rule:evenodd;stroke-linejoin:round;stroke-miterlimit:1.41421;">
    <rect x="24.622" y="145.022" width="387.778" height="300" style="fill:rgb(188,211,255);"/>
    <path d="M413.091,125.091L17.455,125.091C7.814,125.091 0,132.905 0,142.545L0,450.909C0,460.55 7.814,468.364 17.455,468.364L413.091,468.364C422.732,468.364 430.546,460.55 430.546,450.909L430.546,142.545C430.545,132.905 422.732,125.091 413.091,125.091ZM395.636,433.455L34.909,433.455L34.909,160L395.636,160L395.636,433.455Z" style="fill:rgb(55,125,255);fill-rule:nonzero;"/>
    <path d="M175.709,182.115C148.765,182.115 126.836,204.044 126.836,230.988C126.836,257.932 148.759,279.855 175.709,279.855C202.659,279.855 224.582,257.932 224.582,230.988C224.582,204.044 202.653,182.115 175.709,182.115ZM175.709,244.94C168.012,244.94 161.745,238.68 161.745,230.982C161.745,223.285 168.005,217.018 175.709,217.018C183.406,217.018 189.673,223.278 189.673,230.982C189.673,238.679 183.407,244.94 175.709,244.94Z" style="fill:rgb(55,125,255);fill-rule:nonzero;"/>
    <path d="M355.119,384.57L271.337,251.915C268.364,247.208 263.325,244.2 257.775,243.822C252.073,243.444 246.814,245.742 243.23,249.995L179.143,326.103L151.53,306.374C147.742,303.674 143.03,302.581 138.468,303.366C133.889,304.146 129.805,306.717 127.128,310.511L75.346,383.826C71.582,389.15 71.105,396.131 74.101,401.921C77.103,407.71 83.078,411.346 89.601,411.346L340.365,411.346C346.724,411.346 352.583,407.884 355.649,402.316C358.72,396.748 358.516,389.946 355.119,384.57ZM123.299,376.436L145.513,344.983L171.962,363.875C179.363,369.152 189.597,367.866 195.462,360.914L254.563,290.735L308.695,376.437L123.299,376.437L123.299,376.436Z" style="fill:rgb(55,125,255);fill-rule:nonzero;"/>
    <path d="M494.545,43.636L93.091,43.636C83.45,43.636 75.636,51.45 75.636,61.091L75.636,142.546L110.545,142.546L110.545,78.546L477.09,78.546L477.09,352.582L414.254,352.582L414.254,387.491L494.545,387.491C504.186,387.491 512,379.677 512,370.036L512,61.091C512,51.45 504.186,43.636 494.545,43.636Z" style="fill:rgb(55,125,255);fill-rule:nonzero;"/>
</svg>
