<?xml version="1.0" encoding="UTF-8" standalone="no"?>
<!DOCTYPE svg PUBLIC "-//W3C//DTD SVG 1.1//EN" "http://www.w3.org/Graphics/SVG/1.1/DTD/svg11.dtd">
<svg width="100%" height="100%" viewBox="0 0 373 373" version="1.1" xmlns="http://www.w3.org/2000/svg" xmlns:xlink="http://www.w3.org/1999/xlink" xml:space="preserve" xmlns:serif="http://www.serif.com/" style="fill-rule:evenodd;clip-rule:evenodd;stroke-linejoin:round;stroke-miterlimit:1.41421;">
    <path d="M284.471,332.131L90.987,332.648C90.987,332.648 74.949,255.565 131.339,212.108L135.995,197.106C135.995,197.106 87.883,147.959 138.064,97.259C138.064,97.259 221.356,39.835 248.775,118.47C248.775,118.47 259.639,167.1 240.497,196.588L235.324,209.004L254.983,227.629L278.78,267.981L284.471,332.131Z" style="fill:rgb(188,211,255);"/>
    <path id="XMLID_10_" d="M372.482,263.045C372.482,241.249 365.955,220.203 353.605,202.182C344.722,189.22 333.283,178.456 320.027,170.457C335.634,155.677 345.399,134.787 345.399,111.646C345.399,66.962 309.045,30.608 264.362,30.608C237.866,30.608 213.046,43.712 197.97,65.223C194.139,64.665 190.225,64.364 186.241,64.364C182.257,64.364 178.344,64.666 174.513,65.223C159.436,43.712 134.616,30.608 108.121,30.608C63.437,30.608 27.083,66.962 27.083,111.646C27.083,134.787 36.848,155.677 52.456,170.457C39.199,178.455 27.76,189.22 18.878,202.181C6.528,220.203 0,241.249 0,263.045L0,308.12L78.121,308.12L78.121,341.875L294.363,341.875L294.363,308.12L372.483,308.12L372.483,263.045L372.482,263.045ZM264.362,50.609C298.018,50.609 325.399,77.99 325.399,111.647C325.399,145.304 298.018,172.685 264.362,172.685C263.759,172.685 263.156,172.676 262.552,172.658C262.598,172.53 262.636,172.399 262.681,172.271C263.723,169.317 264.592,166.283 265.289,163.184C265.338,162.964 265.394,162.746 265.441,162.525C265.622,161.689 265.781,160.845 265.936,159.999C266.009,159.599 266.084,159.2 266.151,158.799C266.277,158.044 266.391,157.286 266.496,156.525C266.569,155.996 266.635,155.467 266.698,154.937C266.777,154.265 266.854,153.592 266.917,152.915C266.981,152.224 267.029,151.532 267.075,150.839C267.111,150.293 267.156,149.749 267.181,149.2C267.236,148.023 267.267,146.844 267.271,145.664C267.271,145.577 267.278,145.492 267.278,145.404C267.278,145.357 267.274,145.31 267.274,145.263C267.272,144.058 267.237,142.86 267.183,141.666C267.167,141.319 267.146,140.973 267.126,140.627C267.067,139.612 266.99,138.602 266.895,137.597C266.873,137.369 266.855,137.141 266.832,136.914C263.81,107.705 245.357,82.704 218.737,71.14C230.208,58.253 246.8,50.609 264.362,50.609ZM165.122,88.131C165.317,88.06 165.514,87.993 165.709,87.923C166.316,87.706 166.928,87.5 167.543,87.301C168.009,87.152 168.478,87.008 168.95,86.87C169.293,86.769 169.637,86.672 169.982,86.576C170.598,86.407 171.217,86.242 171.842,86.091C176.462,84.969 181.28,84.36 186.239,84.36C191.202,84.364 196.022,84.974 200.643,86.096C201.264,86.246 201.879,86.41 202.492,86.578C202.842,86.675 203.192,86.773 203.539,86.876C204.005,87.013 204.469,87.155 204.93,87.302C205.553,87.503 206.172,87.711 206.786,87.931C206.975,87.998 207.164,88.062 207.352,88.131C227.765,95.68 243.07,113.847 246.534,135.894C246.561,136.07 246.587,136.247 246.613,136.424C246.724,137.171 246.817,137.924 246.9,138.679C246.93,138.957 246.962,139.234 246.989,139.513C247.055,140.202 247.104,140.896 247.148,141.592C247.166,141.89 247.191,142.187 247.205,142.486C247.247,143.375 247.27,144.269 247.273,145.168C247.273,145.246 247.278,145.322 247.278,145.4C247.278,145.436 247.276,145.473 247.276,145.509C247.274,146.379 247.248,147.243 247.21,148.104C247.198,148.375 247.186,148.646 247.17,148.916C247.123,149.748 247.061,150.576 246.981,151.398C246.95,151.716 246.908,152.033 246.872,152.35C246.811,152.882 246.743,153.413 246.669,153.941C246.611,154.352 246.553,154.764 246.487,155.173C246.386,155.796 246.274,156.415 246.154,157.032C246.047,157.581 245.93,158.128 245.808,158.674C245.735,159.003 245.659,159.332 245.58,159.659C245.385,160.47 245.171,161.276 244.943,162.079C244.852,162.398 244.767,162.719 244.671,163.035C244.532,163.495 244.382,163.951 244.233,164.407C244.113,164.772 243.99,165.135 243.863,165.497C243.719,165.908 243.577,166.32 243.425,166.728C243.166,167.421 242.894,168.108 242.611,168.789C242.485,169.093 242.351,169.394 242.22,169.697C241.973,170.264 241.719,170.828 241.455,171.386C241.424,171.452 241.393,171.518 241.362,171.584C241.267,171.782 241.173,171.981 241.076,172.179C240.78,172.783 240.472,173.38 240.156,173.972C240.033,174.202 239.914,174.435 239.788,174.664C239.78,174.679 239.772,174.693 239.764,174.707C239.418,175.337 239.057,175.957 238.69,176.573C238.544,176.817 238.4,177.062 238.251,177.303C237.851,177.952 237.44,178.594 237.017,179.226C236.754,179.619 236.479,180.004 236.207,180.391C235.976,180.719 235.746,181.048 235.509,181.371C235.202,181.789 234.889,182.202 234.571,182.613C234.355,182.892 234.137,183.169 233.917,183.445C233.581,183.865 233.242,184.283 232.896,184.694C232.681,184.949 232.46,185.199 232.241,185.45C231.881,185.863 231.522,186.277 231.152,186.68C230.932,186.919 230.704,187.149 230.48,187.385C229.878,188.02 229.262,188.641 228.634,189.25C228.261,189.611 227.89,189.973 227.508,190.324C227.244,190.567 226.973,190.803 226.704,191.042C226.266,191.431 225.825,191.816 225.376,192.192C225.148,192.383 224.918,192.572 224.687,192.76C224.144,193.202 223.594,193.635 223.035,194.059C222.883,194.174 222.733,194.291 222.58,194.405C212.42,201.958 199.844,206.435 186.24,206.435C172.635,206.435 160.057,201.957 149.897,194.402C149.747,194.29 149.6,194.175 149.451,194.062C148.89,193.637 148.337,193.201 147.792,192.757C147.563,192.57 147.334,192.383 147.108,192.193C146.657,191.815 146.215,191.428 145.775,191.038C145.508,190.8 145.238,190.566 144.975,190.324C144.592,189.972 144.22,189.609 143.846,189.248C143.215,188.637 142.598,188.014 141.994,187.377C141.773,187.144 141.547,186.917 141.33,186.681C140.959,186.277 140.6,185.862 140.24,185.449C140.021,185.198 139.801,184.949 139.586,184.694C139.239,184.283 138.901,183.865 138.565,183.446C138.345,183.17 138.126,182.893 137.91,182.613C137.593,182.203 137.28,181.79 136.973,181.372C136.736,181.048 136.505,180.718 136.274,180.389C136.002,180.003 135.728,179.619 135.466,179.227C135.041,178.592 134.628,177.948 134.227,177.297C134.08,177.058 133.938,176.817 133.794,176.576C133.421,175.951 133.056,175.323 132.705,174.684C132.576,174.449 132.454,174.21 132.327,173.974C132.011,173.38 131.702,172.781 131.405,172.176C131.299,171.961 131.196,171.744 131.093,171.528C131.077,171.495 131.062,171.462 131.047,171.429C130.77,170.845 130.505,170.255 130.246,169.66C130.123,169.377 129.998,169.095 129.88,168.811C129.59,168.115 129.313,167.413 129.048,166.705C128.905,166.323 128.773,165.937 128.638,165.552C128.499,165.157 128.365,164.759 128.234,164.36C128.093,163.928 127.951,163.496 127.819,163.062C127.622,162.413 127.436,161.76 127.261,161.103C127.138,160.642 127.027,160.177 126.914,159.713C126.826,159.348 126.741,158.983 126.66,158.616C126.56,158.166 126.459,157.717 126.369,157.265C126.23,156.561 126.103,155.853 125.989,155.141C125.927,154.757 125.873,154.372 125.818,153.988C125.737,153.419 125.664,152.847 125.599,152.273C125.567,151.99 125.53,151.707 125.501,151.424C125.418,150.581 125.355,149.732 125.307,148.88C125.293,148.635 125.282,148.39 125.271,148.145C125.23,147.234 125.201,146.32 125.201,145.4C125.201,144.414 125.229,143.435 125.276,142.46C125.289,142.195 125.311,141.932 125.326,141.668C125.37,140.936 125.423,140.206 125.493,139.48C125.517,139.227 125.546,138.975 125.573,138.723C125.659,137.937 125.756,137.155 125.872,136.378C125.894,136.227 125.916,136.075 125.94,135.924C129.393,113.864 144.701,95.685 165.122,88.131ZM47.083,111.647C47.083,77.991 74.464,50.609 108.121,50.609C125.684,50.609 142.275,58.254 153.746,71.138C127.117,82.706 108.66,107.719 105.647,136.94C105.626,137.138 105.611,137.337 105.592,137.536C105.492,138.577 105.413,139.622 105.353,140.673C105.335,140.993 105.315,141.312 105.3,141.633C105.243,142.884 105.204,144.139 105.204,145.403C105.204,146.679 105.241,147.952 105.301,149.224C105.325,149.736 105.367,150.243 105.4,150.752C105.449,151.484 105.499,152.216 105.567,152.946C105.627,153.595 105.701,154.24 105.777,154.885C105.843,155.447 105.913,156.007 105.991,156.567C106.093,157.302 106.203,158.034 106.324,158.763C106.397,159.196 106.477,159.628 106.556,160.06C106.706,160.876 106.859,161.69 107.033,162.497C107.091,162.763 107.157,163.027 107.217,163.292C107.896,166.295 108.739,169.235 109.743,172.102C109.807,172.287 109.863,172.474 109.928,172.658C109.325,172.676 108.721,172.685 108.119,172.685C74.464,172.684 47.083,145.303 47.083,111.647ZM94.888,239.148C94.668,239.495 94.458,239.848 94.242,240.197C93.785,240.935 93.332,241.675 92.894,242.422C92.649,242.839 92.413,243.259 92.175,243.679C91.781,244.372 91.392,245.067 91.014,245.768C90.776,246.209 90.542,246.652 90.31,247.095C89.946,247.792 89.591,248.493 89.243,249.196C89.024,249.638 88.806,250.079 88.594,250.523C88.24,251.264 87.899,252.011 87.562,252.759C87.379,253.166 87.191,253.57 87.014,253.979C86.624,254.875 86.252,255.778 85.887,256.684C85.78,256.949 85.666,257.211 85.562,257.476C85.099,258.653 84.656,259.838 84.236,261.029C84.14,261.302 84.054,261.578 83.959,261.851C83.643,262.769 83.335,263.69 83.044,264.615C82.911,265.04 82.788,265.467 82.66,265.893C82.425,266.677 82.194,267.462 81.977,268.252C81.848,268.722 81.725,269.193 81.602,269.665C81.404,270.423 81.214,271.183 81.034,271.946C80.919,272.429 80.807,272.912 80.7,273.396C80.528,274.169 80.367,274.945 80.212,275.722C80.119,276.189 80.023,276.656 79.936,277.125C79.779,277.971 79.638,278.821 79.501,279.672C79.437,280.072 79.366,280.47 79.306,280.87C79.12,282.12 78.951,283.373 78.809,284.632C78.807,284.647 78.806,284.662 78.805,284.677C78.676,285.822 78.565,286.969 78.472,288.12L20,288.12L20,263.045C20,228.787 39.694,198.032 70.548,183.414C81.788,189.322 94.565,192.685 108.12,192.685C112.04,192.685 115.972,192.395 119.874,191.821C120.482,192.688 121.1,193.546 121.74,194.388C121.956,194.671 122.18,194.947 122.4,195.227C123.032,196.035 123.673,196.834 124.335,197.617C124.606,197.938 124.884,198.252 125.16,198.569C125.78,199.281 126.41,199.984 127.054,200.673C127.392,201.036 127.736,201.393 128.08,201.75C128.669,202.357 129.266,202.955 129.873,203.544C130.101,203.765 130.316,203.999 130.546,204.218C129.677,204.743 128.816,205.281 127.963,205.83C127.824,205.919 127.688,206.013 127.55,206.103C126.697,206.657 125.853,207.223 125.017,207.8C124.728,208 124.44,208.202 124.152,208.404C123.407,208.929 122.67,209.463 121.939,210.006C121.708,210.178 121.474,210.346 121.245,210.52C120.315,211.223 119.396,211.939 118.489,212.671C118.291,212.831 118.097,212.996 117.899,213.158C117.177,213.749 116.462,214.35 115.756,214.96C115.482,215.196 115.21,215.434 114.938,215.673C114.231,216.296 113.533,216.928 112.842,217.569C112.662,217.736 112.478,217.9 112.299,218.069C111.451,218.867 110.616,219.68 109.793,220.507C109.579,220.722 109.37,220.941 109.158,221.157C108.528,221.8 107.905,222.45 107.29,223.109C107.046,223.371 106.802,223.633 106.56,223.898C105.868,224.654 105.186,225.42 104.515,226.197C104.41,226.319 104.301,226.437 104.196,226.56C103.431,227.453 102.683,228.363 101.945,229.282C101.739,229.538 101.538,229.798 101.335,230.057C100.78,230.762 100.233,231.474 99.695,232.193C99.487,232.471 99.278,232.747 99.073,233.027C98.369,233.987 97.674,234.955 96.999,235.94C96.274,236.998 95.572,238.069 94.888,239.148ZM98.121,321.876L98.121,308.121L98.121,296.801C98.121,295.691 98.142,294.585 98.183,293.482C98.196,293.119 98.225,292.759 98.243,292.397C98.279,291.661 98.313,290.924 98.367,290.191C98.4,289.746 98.45,289.305 98.49,288.861C98.548,288.215 98.6,287.568 98.672,286.926C98.725,286.456 98.794,285.989 98.854,285.52C98.932,284.909 99.005,284.297 99.095,283.689C99.168,283.205 99.256,282.725 99.336,282.243C99.434,281.657 99.525,281.069 99.635,280.486C99.728,279.993 99.836,279.505 99.937,279.014C100.053,278.448 100.164,277.88 100.291,277.318C100.403,276.822 100.531,276.331 100.651,275.837C100.786,275.287 100.915,274.734 101.06,274.187C101.192,273.69 101.338,273.198 101.478,272.705C101.63,272.168 101.778,271.63 101.94,271.097C102.091,270.601 102.257,270.109 102.416,269.616C102.586,269.093 102.751,268.569 102.93,268.05C103.1,267.559 103.283,267.072 103.461,266.585C103.649,266.071 103.833,265.555 104.03,265.045C104.218,264.56 104.418,264.081 104.613,263.599C104.818,263.096 105.02,262.59 105.234,262.091C105.441,261.61 105.659,261.134 105.874,260.658C106.095,260.167 106.314,259.674 106.544,259.188C106.769,258.713 107.005,258.244 107.238,257.773C107.476,257.293 107.711,256.812 107.957,256.337C108.2,255.869 108.453,255.407 108.704,254.944C108.958,254.475 109.209,254.006 109.471,253.542C109.731,253.082 110.001,252.629 110.268,252.174C110.538,251.716 110.806,251.257 111.085,250.803C111.362,250.352 111.648,249.908 111.933,249.462C112.219,249.015 112.503,248.568 112.797,248.126C113.091,247.684 113.393,247.248 113.695,246.812C113.996,246.377 114.296,245.942 114.604,245.512C114.914,245.08 115.233,244.654 115.552,244.227C115.868,243.804 116.183,243.381 116.506,242.964C116.832,242.543 117.166,242.128 117.5,241.712C117.831,241.3 118.163,240.889 118.501,240.483C118.842,240.075 119.19,239.672 119.538,239.27C119.885,238.869 120.233,238.468 120.588,238.072C120.943,237.676 121.306,237.286 121.668,236.896C122.03,236.507 122.392,236.12 122.761,235.738C123.131,235.354 123.508,234.976 123.886,234.599C124.263,234.222 124.642,233.847 125.026,233.476C125.409,233.107 125.798,232.743 126.189,232.38C126.581,232.016 126.975,231.653 127.374,231.295C127.772,230.939 128.174,230.588 128.579,230.239C128.985,229.888 129.394,229.539 129.807,229.195C130.218,228.853 130.633,228.516 131.051,228.181C131.472,227.843 131.896,227.508 132.324,227.177C132.747,226.851 133.174,226.529 133.603,226.209C134.039,225.884 134.478,225.563 134.922,225.246C135.356,224.935 135.794,224.629 136.235,224.325C136.687,224.014 137.141,223.707 137.599,223.404C138.044,223.11 138.493,222.819 138.944,222.532C139.411,222.235 139.881,221.942 140.354,221.654C140.81,221.376 141.269,221.101 141.731,220.831C142.211,220.55 142.695,220.273 143.182,220C143.649,219.738 144.119,219.479 144.592,219.225C145.087,218.959 145.586,218.698 146.088,218.44C146.564,218.195 147.042,217.954 147.524,217.717C147.903,217.531 148.286,217.351 148.669,217.17C159.908,223.078 172.687,226.44 186.241,226.44C199.796,226.44 212.574,223.078 223.813,217.17C224.193,217.35 224.573,217.529 224.949,217.713C225.437,217.953 225.92,218.197 226.402,218.444C226.898,218.699 227.392,218.957 227.882,219.22C228.36,219.477 228.835,219.739 229.307,220.004C229.788,220.274 230.266,220.547 230.74,220.825C231.209,221.099 231.674,221.378 232.136,221.66C232.603,221.945 233.066,222.233 233.526,222.526C233.984,222.817 234.438,223.111 234.889,223.41C235.342,223.709 235.791,224.013 236.237,224.32C236.682,224.627 237.125,224.936 237.564,225.25C238.003,225.564 238.437,225.882 238.869,226.204C239.303,226.526 239.734,226.851 240.161,227.181C240.585,227.509 241.005,227.841 241.423,228.176C241.843,228.513 242.261,228.852 242.675,229.196C243.086,229.538 243.492,229.885 243.896,230.234C244.303,230.585 244.708,230.938 245.108,231.297C245.504,231.652 245.895,232.012 246.284,232.373C246.678,232.739 247.071,233.107 247.458,233.48C247.839,233.847 248.214,234.219 248.587,234.592C248.967,234.972 249.347,235.353 249.72,235.739C250.086,236.119 250.447,236.503 250.806,236.889C251.172,237.282 251.537,237.676 251.895,238.075C252.247,238.467 252.592,238.864 252.936,239.262C253.287,239.667 253.638,240.073 253.981,240.485C254.318,240.888 254.647,241.297 254.976,241.706C255.312,242.124 255.648,242.541 255.976,242.965C256.298,243.38 256.611,243.801 256.925,244.222C257.245,244.65 257.565,245.079 257.877,245.513C258.184,245.94 258.483,246.374 258.782,246.807C259.085,247.245 259.389,247.683 259.684,248.127C259.976,248.566 260.258,249.01 260.542,249.454C260.829,249.903 261.117,250.351 261.396,250.805C261.672,251.254 261.938,251.71 262.206,252.164C262.476,252.622 262.748,253.079 263.009,253.542C263.27,254.004 263.52,254.472 263.773,254.938C264.025,255.403 264.279,255.867 264.522,256.336C264.768,256.81 265.002,257.291 265.24,257.77C265.473,258.241 265.71,258.711 265.935,259.187C266.165,259.673 266.383,260.164 266.603,260.654C266.819,261.133 267.038,261.609 267.245,262.092C267.458,262.587 267.657,263.088 267.861,263.588C268.059,264.074 268.261,264.558 268.45,265.048C268.646,265.555 268.829,266.068 269.016,266.58C269.195,267.069 269.378,267.556 269.548,268.049C269.728,268.57 269.894,269.097 270.064,269.622C270.223,270.113 270.388,270.602 270.538,271.097C270.701,271.63 270.848,272.169 271.001,272.706C271.141,273.199 271.287,273.69 271.419,274.187C271.564,274.734 271.693,275.286 271.828,275.837C271.949,276.33 272.076,276.822 272.188,277.318C272.315,277.88 272.425,278.447 272.542,279.012C272.643,279.503 272.751,279.992 272.844,280.486C272.953,281.064 273.043,281.647 273.141,282.229C273.222,282.716 273.312,283.2 273.385,283.69C273.475,284.293 273.547,284.901 273.625,285.507C273.686,285.98 273.756,286.45 273.809,286.925C273.881,287.567 273.933,288.214 273.991,288.86C274.031,289.304 274.081,289.745 274.114,290.19C274.169,290.923 274.202,291.661 274.238,292.398C274.256,292.759 274.285,293.119 274.298,293.481C274.339,294.584 274.36,295.69 274.36,296.8L274.36,321.876L98.121,321.876ZM294.015,288.12C293.819,285.684 293.537,283.263 293.179,280.857C293.122,280.476 293.054,280.098 292.993,279.718C292.854,278.847 292.709,277.978 292.548,277.112C292.463,276.656 292.37,276.202 292.279,275.747C292.122,274.956 291.958,274.167 291.783,273.381C291.677,272.907 291.567,272.433 291.455,271.961C291.272,271.189 291.08,270.42 290.88,269.653C290.759,269.188 290.638,268.724 290.51,268.26C290.291,267.462 290.057,266.668 289.819,265.875C289.693,265.457 289.573,265.038 289.442,264.621C289.147,263.682 288.835,262.748 288.514,261.816C288.424,261.556 288.342,261.293 288.25,261.033C287.828,259.838 287.385,258.65 286.92,257.469C286.82,257.216 286.711,256.966 286.609,256.713C286.24,255.796 285.862,254.881 285.467,253.973C285.292,253.57 285.107,253.172 284.927,252.771C284.587,252.015 284.243,251.262 283.885,250.514C283.676,250.076 283.46,249.641 283.245,249.206C282.894,248.496 282.535,247.789 282.168,247.086C281.938,246.646 281.707,246.208 281.471,245.771C281.091,245.068 280.701,244.37 280.305,243.674C280.067,243.256 279.832,242.838 279.589,242.423C279.149,241.672 278.694,240.929 278.234,240.187C278.02,239.841 277.812,239.492 277.594,239.149C276.909,238.07 276.207,236.999 275.481,235.94C274.805,234.954 274.11,233.986 273.406,233.026C273.202,232.748 272.994,232.473 272.788,232.197C272.247,231.474 271.698,230.76 271.141,230.052C270.94,229.797 270.741,229.539 270.537,229.286C269.798,228.364 269.047,227.452 268.28,226.557C268.18,226.441 268.077,226.328 267.977,226.212C267.301,225.429 266.613,224.657 265.916,223.895C265.676,223.633 265.435,223.374 265.193,223.114C264.575,222.451 263.948,221.796 263.314,221.15C263.105,220.937 262.9,220.722 262.689,220.511C261.864,219.683 261.026,218.867 260.176,218.067C260.001,217.902 259.821,217.742 259.645,217.578C258.95,216.933 258.248,216.298 257.538,215.672C257.268,215.434 256.996,215.198 256.724,214.962C256.016,214.351 255.301,213.75 254.578,213.158C254.381,212.997 254.188,212.832 253.99,212.672C253.084,211.94 252.165,211.224 251.236,210.522C251.004,210.347 250.768,210.177 250.535,210.004C249.807,209.464 249.074,208.932 248.332,208.41C248.041,208.205 247.75,208.001 247.458,207.799C246.63,207.228 245.795,206.668 244.951,206.12C244.803,206.024 244.658,205.924 244.51,205.829C243.658,205.282 242.8,204.745 241.932,204.221C242.156,204.008 242.366,203.781 242.587,203.565C243.207,202.965 243.816,202.355 244.416,201.735C244.751,201.389 245.084,201.042 245.412,200.69C246.067,199.99 246.705,199.276 247.335,198.553C247.603,198.246 247.872,197.941 248.135,197.629C248.806,196.835 249.458,196.024 250.099,195.203C250.309,194.935 250.524,194.671 250.73,194.4C251.373,193.555 251.994,192.693 252.605,191.823C256.507,192.396 260.439,192.686 264.359,192.686C277.914,192.686 290.692,189.324 301.931,183.415C332.786,198.033 352.479,228.788 352.479,263.046L352.479,288.12L294.015,288.12Z" style="fill:rgb(55,125,255);fill-rule:nonzero;"/>
</svg>
