<?xml version="1.0" encoding="UTF-8" standalone="no"?>
<!DOCTYPE svg PUBLIC "-//W3C//DTD SVG 1.1//EN" "http://www.w3.org/Graphics/SVG/1.1/DTD/svg11.dtd">
<svg width="100%" height="100%" viewBox="0 0 448 312" version="1.1" xmlns="http://www.w3.org/2000/svg" xmlns:xlink="http://www.w3.org/1999/xlink" xml:space="preserve" xmlns:serif="http://www.serif.com/" style="fill-rule:evenodd;clip-rule:evenodd;stroke-linejoin:round;stroke-miterlimit:1.41421;">
    <g transform="matrix(1,0,0,1,-48,-16)">
        <g>
            <path d="M336.24,287.68L336.272,287.64L272,200L184,320L360,320L336.272,287.64L336.24,287.68Z" style="fill:rgb(188,211,255);fill-rule:nonzero;"/>
            <path d="M336.272,287.64L360,320L456,320L384,224L336.272,287.64Z" style="fill:rgb(188,211,255);fill-rule:nonzero;"/>
            <circle cx="336" cy="208" r="16" style="fill:rgb(188,211,255);"/>
            <path d="M288,144L288,168L488,168L488,24L288,24L288,144ZM360,64L424,96L360,128L360,64Z" style="fill:rgb(188,211,255);fill-rule:nonzero;"/>
            <path d="M56,72L56,184L124.464,128.016L56,72Z" style="fill:rgb(188,211,255);fill-rule:nonzero;"/>
            <path d="M163.536,128L149.064,139.84C146.129,142.24 141.871,142.24 138.936,139.84L124.464,128L56,184L232,184L163.536,128Z" style="fill:rgb(188,211,255);fill-rule:nonzero;"/>
            <path d="M232,184L232,144L232,72L163.536,128.016L232,184Z" style="fill:rgb(188,211,255);fill-rule:nonzero;"/>
            <path d="M124.48,128L138.952,139.84C141.887,142.24 146.145,142.24 149.08,139.84L163.536,128L232,72L56,72L124.464,128L124.48,128Z" style="fill:rgb(188,211,255);fill-rule:nonzero;"/>
        </g>
        <path d="M336,232C349.166,232 360,221.166 360,208C360,194.834 349.166,184 336,184C322.834,184 312,194.834 312,208C312,221.166 322.834,232 336,232ZM336,200C340.389,200 344,203.611 344,208C344,212.389 340.389,216 336,216C331.611,216 328,212.389 328,208C328,203.611 331.611,200 336,200Z" style="fill:rgb(55,125,255);fill-rule:nonzero;"/>
        <path d="M488,16L288,16C283.611,16 280,19.611 280,24L280,136L240,136L240,72C240,67.611 236.389,64 232,64L56,64C51.611,64 48,67.611 48,72L48,184C48,188.389 51.611,192 56,192L176,192L176,320C176,324.389 179.611,328 184,328L456,328C460.389,328 464,324.389 464,320L464,176L488,176C492.389,176 496,172.389 496,168L496,24C496,19.611 492.389,16 488,16ZM78.4,176L124.44,138.352L133.856,146.048C139.736,150.831 148.24,150.831 154.12,146.048L163.528,138.352L209.6,176L78.4,176ZM224,167.128L176.168,128L224,88.88L224,167.128ZM144,133.664L78.4,80L209.6,80L144,133.664ZM111.832,128L64,167.128L64,88.88L111.832,128ZM364.056,312L346.232,287.688L384,237.336L440,312L364.056,312ZM344.208,312L199.792,312L272,213.528L344.208,312ZM448,296L390.4,219.2C388.827,217.288 386.476,216.178 384,216.178C381.524,216.178 379.173,217.288 377.6,219.2L336.344,274.208L278.456,195.272C276.882,193.322 274.506,192.186 272,192.186C269.494,192.186 267.118,193.322 265.544,195.272L192,295.56L192,192L232,192C236.389,192 240,188.389 240,184L240,152L280,152L280,168C280,172.389 283.611,176 288,176L448,176L448,296ZM480,160L296,160L296,32L480,32L480,160Z" style="fill:rgb(55,125,255);fill-rule:nonzero;"/>
        <path d="M355.792,134.808C358.148,136.265 361.098,136.398 363.576,135.16L427.576,103.16C430.287,101.809 432.007,99.029 432.007,96C432.007,92.971 430.287,90.191 427.576,88.84L363.576,56.84C362.466,56.285 361.241,55.996 360,55.996C355.611,55.996 352,59.608 352,63.996C352,63.998 352,63.999 352,64L352,128C351.999,130.77 353.436,133.351 355.792,134.808ZM368,76.944L406.112,96L368,115.056L368,76.944Z" style="fill:rgb(55,125,255);fill-rule:nonzero;"/>
    </g>
</svg>
