<?xml version="1.0" encoding="UTF-8" standalone="no"?>
<!DOCTYPE svg PUBLIC "-//W3C//DTD SVG 1.1//EN" "http://www.w3.org/Graphics/SVG/1.1/DTD/svg11.dtd">
<svg width="100%" height="100%" viewBox="0 0 512 512" version="1.1" xmlns="http://www.w3.org/2000/svg" xmlns:xlink="http://www.w3.org/1999/xlink" xml:space="preserve" xmlns:serif="http://www.serif.com/" style="fill-rule:evenodd;clip-rule:evenodd;stroke-linejoin:round;stroke-miterlimit:1.41421;">
    <g>
        <rect x="192.668" y="19.882" width="130.133" height="46.222" style="fill:rgb(188,211,255);"/>
        <path d="M188.844,322.533L325.378,322.533L309.733,292.667L309.733,254.267L293.378,208.756L257.822,187.422L224.4,200.222L199.511,235.778L188.844,322.533Z" style="fill:rgb(188,211,255);"/>
        <path d="M346,311L337.68,311C330.117,301.583 326,289.968 326,277.716L326,241C326,207.552 302.411,179.523 271,172.635L271,156C271,147.716 264.284,141 256,141C247.716,141 241,147.716 241,156L241,172.635C209.589,179.523 186,207.551 186,241L186,277.716C186,289.968 181.883,301.583 174.32,311L166,311C157.716,311 151,317.716 151,326C151,334.284 157.716,341 166,341L241,341L241,356C241,364.284 247.716,371 256,371C264.284,371 271,364.284 271,356L271,341L346,341C354.284,341 361,334.284 361,326C361,317.716 354.284,311 346,311ZM209.109,311C213.626,300.639 216,289.358 216,277.716L216,241C216,218.944 233.944,201 256,201C278.056,201 296,218.944 296,241L296,277.716C296,289.359 298.374,300.639 302.891,311L209.109,311Z" style="fill:rgb(55,125,255);fill-rule:nonzero;"/>
        <path d="M376,0L136,0C111.187,0 91,20.187 91,45L91,467C91,491.813 111.187,512 136,512L376,512C400.813,512 421,491.813 421,467L421,45C421,20.187 400.813,0 376,0ZM201,30L311,30L311,45C311,53.271 304.271,60 296,60L216,60C207.729,60 201,53.271 201,45L201,30ZM391,467C391,475.271 384.271,482 376,482L136,482C127.729,482 121,475.271 121,467L121,45C121,36.729 127.729,30 136,30L171,30L171,45C171,69.813 191.187,90 216,90L296,90C320.813,90 341,69.813 341,45L341,30L376,30C384.271,30 391,36.729 391,45L391,467Z" style="fill:rgb(55,125,255);fill-rule:nonzero;"/>
        <path d="M276,432L236,432C227.716,432 221,438.716 221,447C221,455.284 227.716,462 236,462L276,462C284.284,462 291,455.284 291,447C291,438.716 284.284,432 276,432Z" style="fill:rgb(55,125,255);fill-rule:nonzero;"/>
    </g>
</svg>
