<?xml version="1.0" encoding="UTF-8" standalone="no"?>
<!DOCTYPE svg PUBLIC "-//W3C//DTD SVG 1.1//EN" "http://www.w3.org/Graphics/SVG/1.1/DTD/svg11.dtd">
<svg width="100%" height="100%" viewBox="0 0 512 512" version="1.1" xmlns="http://www.w3.org/2000/svg" xmlns:xlink="http://www.w3.org/1999/xlink" xml:space="preserve" xmlns:serif="http://www.serif.com/" style="fill-rule:evenodd;clip-rule:evenodd;stroke-linejoin:round;stroke-miterlimit:1.41421;">
    <circle cx="255.998" cy="182" r="172" style="fill:rgb(188,211,255);"/>
    <g>
        <path d="M223.215,357.471L139.772,501.998L112.084,434.662L39.925,444.351L121.909,302.351L223.215,357.471Z" style="fill:rgb(188,211,255);fill-rule:nonzero;"/>
        <path d="M288.779,357.471L372.222,501.998L399.91,434.662L472.068,444.351L390.084,302.351L288.779,357.471Z" style="fill:rgb(188,211,255);fill-rule:nonzero;"/>
    </g>
    <circle cx="255.998" cy="182" r="120" style="fill:white;"/>
    <path d="M255.982,112.73L277.775,156.857L326.48,163.921L291.247,198.283L299.579,246.788L256.011,223.897L212.456,246.811L220.762,198.302L185.511,163.958L234.213,156.868L255.982,112.73Z" style="fill:rgb(188,211,255);fill-rule:nonzero;"/>
    <path d="M335.99,160.828C334.813,157.208 331.682,154.571 327.916,154.024L284.413,147.714L264.948,108.3C263.262,104.888 259.787,102.728 255.982,102.728L255.98,102.728C252.173,102.729 248.698,104.891 247.014,108.305L227.571,147.729L184.071,154.062C180.304,154.61 177.176,157.25 176.001,160.87C174.826,164.49 175.808,168.464 178.534,171.12L210.02,201.795L202.601,245.122C201.958,248.874 203.502,252.665 206.582,254.902C208.324,256.167 210.386,256.81 212.458,256.81C214.05,256.81 215.649,256.43 217.113,255.66L256.016,235.194L294.93,255.639C298.299,257.41 302.382,257.114 305.461,254.875C308.54,252.637 310.081,248.845 309.437,245.094L301.995,201.771L333.465,171.08C336.187,168.422 337.167,164.448 335.99,160.828ZM284.265,191.124C281.909,193.422 280.834,196.732 281.391,199.976L286.293,228.511L260.662,215.045C257.749,213.514 254.268,213.515 251.355,215.047L225.731,228.527L230.618,199.989C231.174,196.745 230.097,193.435 227.74,191.138L207.002,170.934L235.653,166.763C238.91,166.289 241.725,164.242 243.181,161.291L255.987,135.325L268.808,161.285C270.266,164.236 273.082,166.281 276.339,166.753L304.992,170.909L284.265,191.124Z" style="fill:rgb(55,125,255);fill-rule:nonzero;"/>
    <path d="M480.738,439.367L398.082,295.597C423.043,264.439 437.998,224.936 437.998,182C437.998,81.645 356.353,0 255.998,0C155.643,0 73.998,81.645 73.998,182C73.998,224.936 88.952,264.439 113.914,295.597L31.258,439.367C29.36,442.669 29.502,446.763 31.625,449.926C33.748,453.088 37.487,454.77 41.258,454.263L105.771,445.6L130.525,505.801C131.975,509.326 135.303,511.721 139.107,511.975C139.331,511.99 139.554,511.997 139.776,511.997C143.331,511.997 146.64,510.104 148.434,506.997L231.877,362.47C231.89,362.448 231.899,362.425 231.912,362.402C239.796,363.449 247.834,363.999 256,363.999C264.166,363.999 272.204,363.449 280.088,362.402C280.101,362.424 280.11,362.447 280.123,362.47L363.566,506.997C365.36,510.104 368.67,511.997 372.224,511.997C372.446,511.997 372.669,511.99 372.893,511.975C376.697,511.721 380.025,509.326 381.475,505.801L406.23,445.6L470.743,454.263C474.522,454.77 478.253,453.088 480.376,449.926C482.493,446.763 482.636,442.669 480.738,439.367ZM141.283,479.379L123.263,435.557L139.434,409.168C142.32,404.459 140.842,398.302 136.133,395.417C131.424,392.532 125.267,394.009 122.382,398.718L106.041,425.384L58.711,431.739L127.987,311.243C150.679,333.72 179.235,350.283 211.131,358.399L141.283,479.379ZM93.997,182C93.997,92.673 166.67,20 255.997,20C345.324,20 417.997,92.673 417.997,182C417.997,271.327 345.324,344 255.997,344C166.67,344 93.997,271.327 93.997,182ZM405.952,425.384L389.611,398.718C386.726,394.009 380.569,392.53 375.86,395.417C371.151,398.303 369.673,404.459 372.559,409.168L388.73,435.557L370.71,479.379L300.862,358.399C332.758,350.283 361.315,333.72 384.006,311.243L453.282,431.739L405.952,425.384Z" style="fill:rgb(55,125,255);fill-rule:nonzero;"/>
    <path d="M373.373,237.949C381.749,220.404 385.997,201.58 385.997,182C385.997,110.318 327.679,52 255.997,52C233.681,52 211.664,57.752 192.325,68.636C187.512,71.344 185.806,77.442 188.514,82.255C191.222,87.068 197.32,88.776 202.133,86.066C218.484,76.864 237.11,72 255.997,72C316.651,72 365.997,121.346 365.997,182C365.997,198.574 362.406,214.499 355.324,229.332C352.945,234.316 355.056,240.285 360.04,242.665C361.431,243.329 362.897,243.643 364.342,243.643C368.074,243.643 371.657,241.542 373.373,237.949Z" style="fill:rgb(55,125,255);fill-rule:nonzero;"/>
    <path d="M334.91,258.634L334.688,258.862C330.83,262.813 330.905,269.145 334.856,273.003C336.801,274.902 339.322,275.848 341.841,275.848C344.44,275.848 347.038,274.841 348.997,272.834L349.261,272.563C353.108,268.6 353.013,262.269 349.05,258.422C345.087,254.576 338.756,254.671 334.91,258.634Z" style="fill:rgb(55,125,255);fill-rule:nonzero;"/>
    <path d="M309.002,278.413C292.871,287.302 274.542,292 255.997,292C195.343,292 145.997,242.654 145.997,182C145.997,166.111 149.308,150.787 155.837,136.454C158.127,131.428 155.908,125.498 150.882,123.208C145.856,120.919 139.926,123.137 137.636,128.163C129.912,145.117 125.996,163.23 125.996,182C125.996,253.682 184.314,312 255.996,312C277.907,312 299.574,306.443 318.654,295.929C323.491,293.263 325.252,287.182 322.586,282.345C319.921,277.508 313.839,275.747 309.002,278.413Z" style="fill:rgb(55,125,255);fill-rule:nonzero;"/>
    <path d="M167.981,110.43C170.671,110.43 173.353,109.351 175.324,107.221L175.5,107.032C179.264,102.991 179.04,96.663 174.999,92.899C170.958,89.134 164.63,89.36 160.866,93.4L160.644,93.639C156.894,97.693 157.139,104.02 161.193,107.77C163.116,109.55 165.551,110.43 167.981,110.43Z" style="fill:rgb(55,125,255);fill-rule:nonzero;"/>
</svg>
